P2
# Generated by OpenCV 4.2.0
92 112
255
62 98 127 86 108 94 93 60 56 85 64 66 67 46 56 75 79 106 116 132 140 143 154 165 171 164 174 179 189 190 192 189 180 180 182 179 180 175 176 174 166 163 157 145 135 131 106 73 63 53 24 19 36 50 68 73 85 88 79 66 86 106 65 70 97 118 133 139 141 143 149 158 158 153 155 164 150 143 156 153 147 153 141 98 59 73 101 93 110 115 92 108 51 87 127 81 87 94 72 77 46 72 77 54 76 67 61 78 89 105 127 142 139 147 152 165 168 161 176 184 190 190 190 186 184 183 180 182 183 181 178 175 171 165 162 152 138 125 109 89 70 34 24 19 25 40 66 70 85 98 81 62 71 99 87 76 87 107 127 138 137 133 129 140 150 142 146 152 147 149 149 144 134 119 117 99 85 96 103 109 119 103 106 125 67 71 111 86 67 80 63 66 54 44 87 56 73 74 70 84 96 98 116 134 138 149 149 154 154 167 175 186 190 191 187 183 181 181 181 185 182 184 181 180 174 168 167 166 144 126 109 102 75 40 25 21 23 36 58 67 79 84 68 74 84 81 71 83 99 96 91 114 123 124 127 143 149 149 146 147 145 135 129 128 108 84 100 118 112 122 120 126 114 118 140 126 65 79 98 80 59 67 80 59 67 34 73 67 64 82 73 88 95 105 123 127 132 144 150 154 160 171 176 184 186 186 188 181 175 178 182 186 187 189 186 185 180 174 167 170 163 134 121 103 83 58 32 23 27 34 41 61 80 89 56 66 103 87 62 49 73 93 89 89 100 105 107 102 109 112 117 120 122 121 114 98 99 72 94 122 131 138 131 134 146 140 125 102 57 71 89 68 47 56 99 70 70 48 49 66 59 88 72 98 102 108 132 127 144 151 152 159 172 177 181 184 187 186 185 182 181 180 183 184 182 186 189 189 183 177 174 172 174 155 121 112 97 75 54 26 25 30 35 55 68 90 91 74 89 87 85 66 63 81 84 71 77 90 80 74 89 105 109 104 113 110 87 85 103 104 112 126 132 131 139 149 133 104 86 81 62 67 74 58 51 47 82 83 70 56 50 55 62 81 75 98 105 107 123 140 150 157 159 165 173 181 185 186 187 187 185 183 183 184 185 184 182 189 192 192 193 184 180 181 174 173 150 122 123 95 69 40 24 35 41 46 57 77 104 86 86 89 93 92 96 99 107 113 121 108 98 113 121 113 101 113 101 69 78 81 106 122 116 125 133 133 135 125 109 87 74 66 72 78 74 68 68 50 74 77 69 65 64 55 58 74 81 85 102 99 128 159 162 157 160 170 176 179 183 185 187 190 184 182 184 185 185 189 191 193 191 190 193 192 188 184 179 174 172 144 132 120 88 71 39 27 48 55 52 64 91 94 99 85 106 94 81 98 111 113 119 119 120 117 100 85 94 81 48 57 77 90 131 127 111 131 137 125 116 109 89 80 77 106 81 74 86 74 81 57 67 67 62 59 68 66 53 74 78 83 87 96 144 165 165 166 161 166 173 179 184 186 190 189 186 184 184 184 187 192 193 192 190 192 194 193 194 192 188 182 174 169 145 144 125 96 77 41 26 43 52 56 75 89 101 103 95 89 82 64 69 73 83 90 85 76 74 74 57 45 65 78 68 110 126 82 100 124 101 100 98 84 73 72 93 118 77 68 76 81 90 63 53 50 56 54 68 53 49 73 78 78 73 105 149 165 170 166 168 168 166 170 181 186 190 191 188 188 187 188 191 192 193 193 193 195 195 194 193 193 194 193 184 176 160 144 144 131 110 82 52 35 43 50 59 80 98 100 103 89 90 93 87 85 89 79 67 57 61 50 45 68 94 81 105 130 94 88 111 110 100 92 74 62 61 81 111 102 82 87 70 83 91 62 39 35 39 54 61 44 51 76 84 72 81 120 152 162 167 170 170 169 168 169 179 187 187 186 186 188 190 189 192 192 192 193 189 191 193 194 194 192 194 194 191 187 180 168 156 146 129 116 104 72 46 45 49 60 72 74 89 105 92 87 86 76 66 57 31 28 28 38 73 100 87 98 132 106 80 115 104 80 64 53 49 54 56 73 95 87 79 87 62 74 80 53 33 29 36 44 49 56 63 86 85 72 92 128 156 163 166 170 168 165 168 170 174 180 182 182 182 183 184 185 190 192 192 192 191 192 194 194 193 194 195 194 192 192 189 184 176 164 146 134 127 127 105 75 61 60 62 68 76 90 92 75 62 50 41 42 43 42 48 76 89 79 94 120 92 91 114 94 61 52 53 51 53 48 59 69 69 74 71 83 52 54 71 44 27 26 30 37 38 49 73 86 72 72 108 137 154 157 165 167 168 166 167 169 172 178 180 180 183 182 180 183 186 189 192 192 193 194 194 193 192 190 192 192 192 193 191 190 189 184 174 158 140 134 129 114 96 87 81 77 83 79 80 84 65 57 63 75 76 77 76 68 75 107 121 106 87 101 82 58 42 42 42 38 46 59 72 58 65 88 67 60 52 38 58 52 22 19 30 34 42 51 77 79 68 94 126 141 153 158 164 169 166 166 168 169 172 173 172 177 179 180 178 179 185 188 191 191 192 192 193 195 193 192 190 188 190 193 193 190 190 191 190 188 175 155 134 118 111 103 103 95 95 98 103 117 124 118 106 92 73 72 79 98 114 114 95 84 74 66 68 55 41 42 51 58 64 60 68 81 88 69 58 39 43 39 31 46 37 17 27 31 51 68 79 71 82 122 135 142 149 158 166 168 167 166 168 167 169 174 176 174 176 179 183 182 186 189 191 194 194 192 192 193 195 194 193 191 190 188 186 188 188 192 191 191 191 188 174 150 125 113 108 107 110 109 111 117 128 127 117 108 107 107 103 95 80 70 70 59 50 46 56 53 50 52 74 75 71 68 80 82 52 43 38 33 25 27 22 13 34 41 40 52 70 83 76 83 118 137 139 141 148 157 163 167 166 164 165 165 165 171 172 172 172 176 178 183 184 184 186 190 191 192 194 191 192 193 193 193 192 190 187 187 188 190 190 187 184 185 186 180 157 134 121 114 127 140 145 136 136 133 131 125 115 109 101 88 73 65 61 54 54 63 57 61 67 62 69 71 70 82 81 71 69 47 51 28 25 25 19 11 18 34 38 61 75 73 81 113 138 140 142 143 146 155 160 166 166 164 163 165 166 165 167 171 171 175 177 180 183 184 185 187 189 192 194 193 190 189 188 189 188 188 191 192 191 192 192 191 189 189 186 181 175 168 161 144 122 120 145 161 166 161 158 152 148 145 123 105 87 68 75 74 74 67 69 70 61 65 62 70 71 81 81 78 62 30 67 30 19 22 15 20 24 31 44 69 81 93 111 130 141 146 147 146 147 150 156 159 166 167 162 161 162 165 165 168 170 177 181 182 185 186 186 189 187 191 191 191 189 189 189 190 190 191 193 193 193 193 194 196 194 190 188 179 175 175 170 169 162 143 132 141 153 160 157 164 166 155 138 123 115 78 68 95 90 83 72 76 81 80 76 82 83 78 83 84 90 55 46 43 37 31 28 35 32 37 61 76 92 107 118 133 142 146 148 147 150 152 153 156 168 165 161 156 157 165 170 169 171 175 180 184 188 189 185 188 188 191 192 190 191 190 190 191 191 191 191 194 196 195 198 199 195 190 185 183 186 185 180 174 169 170 164 153 138 135 135 149 149 138 136 130 126 112 81 101 100 89 88 80 71 77 91 94 88 66 65 80 97 107 37 40 47 49 39 15 8 29 59 77 100 119 123 133 143 148 149 148 147 153 158 159 164 163 159 157 158 161 170 174 175 176 180 180 175 180 189 191 192 194 194 192 194 192 196 197 197 196 195 199 202 194 196 197 197 194 190 188 191 189 181 179 180 176 170 169 165 158 148 147 159 162 164 163 153 142 114 115 137 126 124 121 99 87 88 92 94 80 58 73 103 122 88 82 65 34 11 7 13 44 75 101 116 126 128 138 143 148 149 145 143 151 158 162 163 163 160 162 163 167 168 174 179 182 186 186 175 176 189 195 196 198 198 201 201 198 199 201 202 200 198 199 204 200 196 197 194 194 193 193 192 189 184 185 189 184 179 183 188 188 180 169 169 180 184 179 172 160 138 127 130 128 142 144 131 117 107 105 94 96 83 91 104 114 68 46 20 8 6 8 19 52 84 105 120 126 128 136 142 145 148 143 141 151 158 161 162 166 166 166 166 167 170 176 181 188 195 198 197 196 200 203 202 200 201 203 205 203 200 204 204 201 201 202 202 199 196 194 193 192 197 200 195 194 191 193 198 201 204 201 199 199 197 186 182 187 185 178 177 174 155 141 144 140 128 131 127 119 122 114 95 91 95 70 89 103 15 7 6 6 8 9 30 67 96 108 120 128 130 138 143 145 147 147 147 150 153 157 162 165 165 165 164 167 170 178 183 189 196 200 202 201 203 208 206 205 207 207 207 207 205 206 206 204 204 203 205 203 200 195 194 195 197 198 201 199 198 195 196 199 209 209 204 207 208 201 192 183 186 178 176 172 159 160 142 146 154 140 121 118 117 114 107 100 89 75 75 102 4 6 5 7 6 13 45 80 104 113 122 128 132 138 142 143 144 144 144 145 147 154 160 163 164 165 168 171 174 180 186 191 193 198 203 204 205 206 208 206 209 210 210 208 207 206 207 206 205 203 204 202 201 202 201 201 198 200 207 208 207 204 199 193 195 202 206 207 209 207 201 185 184 183 181 175 159 166 159 149 151 152 134 135 140 143 127 106 91 88 81 107 5 4 5 7 6 18 59 84 103 116 122 127 131 137 138 141 140 143 141 140 145 153 160 163 164 165 171 174 175 177 184 189 191 198 203 206 205 206 207 209 210 210 211 209 208 208 208 207 205 202 198 200 200 206 209 206 208 202 203 209 211 210 204 201 198 193 198 201 206 207 201 192 192 188 188 184 170 171 171 158 156 152 135 132 142 146 137 114 86 94 87 95 4 8 8 5 7 24 68 86 102 114 118 123 127 129 132 139 136 135 136 139 145 154 160 164 164 163 170 173 176 175 177 185 189 194 203 208 206 206 207 209 211 209 210 210 208 208 208 207 205 199 200 197 199 204 208 205 205 201 200 205 205 209 206 210 210 199 192 191 196 199 195 192 195 190 188 189 175 171 179 165 153 151 145 132 141 147 143 127 79 74 112 101 7 12 9 5 15 34 73 87 95 112 112 116 123 126 133 134 135 134 136 139 146 154 154 163 169 170 176 181 181 181 180 189 191 187 199 204 203 207 207 206 207 207 209 209 206 207 206 204 200 198 196 197 201 204 207 202 197 202 206 206 203 206 209 205 206 206 197 192 192 191 185 191 193 189 187 186 179 170 179 171 152 146 148 144 144 153 150 127 79 38 82 113 12 12 12 35 59 64 77 88 95 111 114 115 121 127 129 133 130 133 143 147 152 153 165 178 183 184 185 188 185 184 182 186 192 183 188 197 199 202 204 205 207 205 201 204 206 206 205 201 197 197 198 203 202 200 207 204 200 203 206 202 204 204 202 197 198 202 200 197 194 194 191 190 184 187 191 186 180 172 176 169 158 145 146 148 143 145 141 126 79 24 46 88 14 14 72 112 61 51 85 92 95 110 115 112 116 120 123 126 132 141 149 151 159 170 181 184 184 181 179 180 175 173 178 182 188 189 192 198 198 199 197 201 204 204 201 200 202 202 201 198 199 200 196 198 197 200 203 198 200 203 201 200 199 200 197 195 194 196 199 201 197 196 195 193 188 189 193 193 188 178 179 174 168 151 138 146 144 134 138 126 74 19 31 79 32 63 128 76 28 59 84 93 100 111 114 108 110 122 127 129 137 143 155 167 177 184 183 178 172 163 161 154 149 151 154 158 164 171 180 186 192 190 189 192 196 195 197 197 196 197 199 198 196 198 195 195 200 199 196 195 198 198 198 196 195 196 196 195 194 195 198 201 199 196 194 192 189 189 193 193 190 188 187 187 179 164 141 132 132 132 143 123 70 18 41 85 68 110 83 26 37 73 85 92 103 112 114 108 112 124 132 138 144 156 169 169 163 157 160 158 153 144 139 125 120 120 126 131 128 130 140 145 154 167 172 175 178 185 190 186 192 193 193 193 191 192 195 195 198 198 196 194 192 192 196 194 193 194 194 190 189 187 187 187 188 190 188 185 183 184 183 179 179 178 171 184 190 175 157 137 129 136 139 118 64 34 69 99 113 82 61 28 40 73 86 94 101 111 113 111 114 122 132 145 145 145 146 135 133 133 115 111 109 106 107 104 99 86 90 99 106 105 103 108 117 129 144 153 157 170 174 175 183 186 186 186 186 186 187 187 192 191 191 188 183 184 188 185 183 187 185 178 173 169 165 155 153 154 149 149 156 158 156 156 162 162 158 163 173 177 169 150 140 134 129 111 70 71 100 112 78 64 79 51 53 73 87 97 97 103 106 104 106 110 122 130 120 118 121 115 100 98 94 93 87 84 87 82 77 78 77 69 70 77 74 75 85 92 109 133 137 150 158 161 168 174 180 180 178 180 180 181 183 183 183 180 178 176 176 178 177 177 171 163 162 155 138 129 127 115 120 119 121 124 128 131 132 138 141 136 135 153 164 158 144 137 127 105 86 97 110 113 54 60 97 86 66 66 75 94 91 92 103 102 107 114 118 115 113 108 104 111 107 101 98 97 91 86 93 92 82 68 60 56 46 47 49 63 69 80 92 109 120 132 145 154 159 161 169 173 175 176 175 176 176 176 177 172 171 168 168 170 165 163 159 149 144 130 117 108 98 93 89 85 90 99 105 98 103 112 111 108 118 126 139 156 153 141 124 105 93 102 102 110 35 89 139 103 84 70 67 92 87 88 102 104 107 114 115 107 110 106 101 103 113 112 107 106 110 111 107 101 99 94 83 71 62 55 53 57 61 75 92 98 103 114 130 148 150 152 159 165 167 168 168 168 166 168 169 170 165 163 162 161 157 153 153 141 127 121 100 81 73 71 63 68 74 77 75 81 93 104 107 110 119 119 121 137 146 142 125 102 88 91 94 94 99 133 130 129 103 65 65 87 91 92 96 99 104 105 102 97 97 103 110 114 112 109 108 106 105 103 103 102 99 102 102 93 86 77 63 59 64 70 83 90 100 106 113 132 140 144 151 154 155 155 159 159 156 162 163 163 161 154 153 153 151 142 140 130 120 103 86 78 74 72 69 75 78 84 97 100 101 111 117 121 128 128 125 126 144 145 120 89 84 75 66 75 103 95 114 129 81 46 69 79 86 91 93 96 100 105 99 96 97 98 108 112 107 103 101 100 98 95 97 101 105 109 109 108 106 110 98 76 70 66 68 74 88 98 102 113 123 129 137 138 143 146 151 154 154 153 156 153 150 146 142 140 135 130 122 115 108 95 91 86 84 83 92 101 107 112 115 115 116 117 120 126 129 132 130 135 140 142 111 75 61 51 56 84 54 67 90 106 64 49 80 82 85 87 94 100 103 104 98 93 90 96 102 98 93 93 90 93 99 105 107 114 118 114 111 111 114 116 115 105 90 75 60 60 67 73 81 90 99 109 122 126 132 141 144 150 150 152 152 146 139 137 132 122 118 112 104 97 92 88 87 87 96 107 112 116 119 123 125 126 130 126 123 127 122 123 126 132 136 137 98 57 51 53 68 77 36 47 53 73 63 54 85 82 92 94 95 106 109 104 95 94 96 95 90 83 81 83 87 93 85 77 73 75 79 86 87 89 84 78 85 108 114 104 85 63 54 57 61 66 72 84 98 110 119 129 132 140 146 150 147 140 136 130 121 112 102 90 85 81 82 89 99 105 106 100 93 88 92 94 98 100 110 120 125 124 124 123 121 126 134 135 94 51 49 42 68 71 34 28 26 39 54 62 81 77 98 101 94 106 111 109 104 102 105 103 89 83 81 85 80 65 68 84 100 118 118 130 140 137 133 109 77 56 65 95 104 93 69 54 55 56 60 66 77 97 109 119 133 149 156 158 149 139 125 113 105 96 82 75 78 84 90 99 102 86 64 60 75 97 112 121 123 99 77 64 88 109 115 118 114 126 134 138 98 58 54 32 53 74 14 16 22 19 63 77 72 77 104 105 97 108 116 117 113 117 119 118 109 110 102 80 55 75 112 119 122 118 106 91 79 72 84 98 113 102 53 39 71 97 95 77 63 57 53 54 64 78 103 126 145 161 173 175 165 147 127 106 93 79 75 79 86 92 95 85 65 64 86 116 136 131 132 129 139 143 130 99 58 67 97 110 119 132 138 135 97 72 47 31 57 70 4 16 16 18 67 82 81 87 107 105 95 108 118 123 122 126 129 121 114 103 88 84 101 109 94 77 70 84 86 35 46 84 58 15 30 64 95 77 45 69 97 97 79 66 56 49 50 64 96 127 147 169 187 192 185 160 131 101 77 72 81 88 89 91 87 70 81 117 115 94 91 81 46 60 41 52 77 108 112 64 74 112 131 142 144 133 102 82 60 31 64 61 8 12 10 29 74 68 65 85 109 109 101 109 116 121 120 113 114 107 96 96 101 106 82 57 48 59 95 117 92 39 60 67 75 25 38 35 61 74 77 57 77 89 84 75 60 53 47 62 96 126 151 178 194 205 197 169 124 86 74 81 86 88 90 87 81 86 94 87 83 67 77 99 67 56 52 28 49 55 98 107 84 108 139 144 147 133 104 81 80 43 54 53 11 14 13 28 60 53 61 80 109 112 109 111 120 123 123 120 109 97 90 94 94 70 60 49 56 95 113 116 86 48 66 29 0 44 72 67 103 57 65 79 75 81 88 87 78 66 80 92 101 124 153 183 202 210 203 176 123 100 94 88 83 85 86 83 82 79 75 99 141 98 58 42 0 26 68 42 75 44 47 93 114 112 127 141 145 137 117 77 70 97 74 45 17 14 17 32 47 57 56 75 112 112 115 114 127 135 130 128 123 117 116 119 119 120 118 113 113 110 117 127 111 52 78 91 74 79 68 97 144 98 43 49 73 94 129 141 140 127 127 125 118 130 159 184 200 211 208 188 137 117 112 107 106 94 86 77 72 85 114 159 170 120 80 86 57 78 83 49 98 79 48 65 98 117 109 131 144 141 128 84 42 78 118 61 21 23 22 33 51 57 56 79 109 114 117 120 133 135 132 131 132 133 133 124 123 134 137 145 145 138 147 148 144 114 98 107 112 103 100 137 137 128 112 104 113 134 168 181 174 159 140 132 129 138 164 185 197 207 208 196 156 130 141 158 163 128 89 97 119 137 141 156 174 172 107 114 119 110 91 105 150 138 119 117 134 131 123 127 144 143 133 92 33 48 86 93 16 16 33 37 56 59 52 79 108 114 116 116 126 137 140 138 138 137 138 139 125 111 119 130 140 144 147 148 150 154 154 143 156 152 151 149 146 147 155 166 169 173 172 167 167 159 139 139 134 143 162 181 196 202 203 199 175 140 152 177 182 177 167 164 156 154 162 159 170 167 169 165 170 164 150 157 153 148 147 164 165 149 144 147 150 150 141 93 37 46 64 61 17 9 23 56 64 68 61 82 106 110 116 118 125 143 148 150 147 147 147 139 129 116 103 106 120 129 132 138 145 149 147 145 156 152 149 151 147 146 158 170 172 170 167 169 169 153 144 143 137 145 160 178 193 199 198 195 182 159 157 180 182 183 180 178 167 159 149 157 165 162 164 164 164 170 148 157 159 159 160 150 147 161 167 160 160 159 148 100 41 53 61 51 23 19 12 51 83 67 81 88 103 109 114 123 130 144 156 160 157 156 159 160 155 147 135 124 118 118 117 120 125 126 123 129 131 129 128 137 149 154 164 167 168 176 180 175 164 149 148 144 137 140 155 178 191 194 197 197 185 176 162 170 185 179 172 165 161 158 142 137 142 144 148 154 160 159 152 156 156 151 136 133 154 173 173 170 168 163 152 105 42 40 67 50 47 37 17 33 84 81 80 98 105 112 114 126 136 150 164 167 165 166 174 173 171 167 146 144 142 135 126 118 113 106 102 104 110 119 126 142 156 161 161 168 176 184 183 169 156 154 151 145 139 140 148 173 195 198 200 199 192 182 174 166 174 177 175 173 170 165 161 152 134 123 117 107 107 112 117 122 118 120 135 155 160 160 165 168 171 168 158 111 42 39 65 43 63 52 26 35 73 87 97 100 102 112 118 127 140 152 165 171 172 164 157 148 147 144 130 118 122 127 128 123 127 128 131 135 142 149 156 158 158 165 169 180 188 186 179 161 155 159 161 150 145 141 143 164 193 198 200 204 194 184 180 179 174 180 189 187 180 178 176 166 160 154 143 132 124 119 110 116 125 137 157 180 181 172 171 175 178 173 164 120 43 37 52 23 29 42 30 42 68 67 88 111 95 103 117 127 142 156 168 175 177 173 171 174 172 169 166 161 156 152 147 139 142 144 147 153 151 151 158 165 174 173 176 182 187 188 168 158 162 163 161 153 144 139 147 164 188 198 206 212 198 183 176 184 188 187 188 198 190 191 190 181 173 164 154 150 144 140 138 136 132 141 146 152 164 174 175 177 181 175 170 127 43 37 46 11 19 23 23 34 64 60 48 97 96 92 113 129 143 160 168 174 179 185 189 193 196 198 200 190 185 186 182 175 168 164 158 161 165 168 169 172 175 182 179 185 187 174 159 162 165 164 160 152 142 143 151 163 187 198 206 220 205 182 174 177 188 197 198 202 201 199 196 192 188 184 173 163 158 156 164 176 174 181 193 194 190 195 195 184 179 176 174 136 47 34 44 11 16 16 18 33 59 63 38 63 86 86 106 128 142 156 166 168 173 176 182 187 189 191 198 197 193 191 191 192 189 187 186 185 184 188 185 183 181 181 185 186 178 169 165 167 166 162 157 150 146 149 152 164 189 199 207 217 208 184 175 178 185 193 199 202 209 207 201 197 196 198 197 190 195 202 205 211 211 212 212 213 214 209 199 190 180 175 172 143 54 33 40 39 14 15 15 32 52 59 41 49 75 85 102 126 136 150 161 164 167 173 177 181 185 188 191 196 195 192 195 197 197 197 198 196 191 190 190 188 187 187 187 179 169 169 171 168 166 161 157 158 153 153 159 173 192 202 207 212 209 192 181 180 187 190 196 202 208 215 212 208 209 212 213 209 215 218 217 218 216 218 221 216 214 210 199 193 184 174 170 146 66 40 19 39 14 14 19 30 42 55 42 51 73 74 98 122 133 147 153 157 163 168 171 175 183 188 193 196 197 201 206 201 200 205 202 200 195 188 189 189 188 187 184 179 175 172 168 165 165 162 161 165 160 158 170 187 199 209 208 210 212 200 188 182 185 192 196 198 205 211 216 214 213 217 217 218 217 216 216 217 213 213 218 216 212 207 201 196 189 176 169 147 72 52 31 18 11 15 22 29 38 59 39 50 72 69 91 118 129 142 149 157 163 168 175 183 184 191 195 197 202 206 207 204 205 205 200 199 197 193 194 192 189 190 191 189 181 174 167 165 169 164 159 157 160 171 183 192 200 205 207 210 211 202 190 183 182 189 191 195 199 207 212 217 219 219 220 219 219 219 214 215 218 214 216 216 211 205 200 195 192 179 170 148 85 43 43 45 8 16 33 31 35 53 38 49 85 74 86 118 126 138 146 154 166 175 181 187 187 190 195 198 206 212 209 207 207 206 204 206 206 205 208 207 206 202 193 185 180 177 170 158 160 163 156 148 160 178 186 198 207 204 205 209 210 206 196 186 181 184 186 190 194 200 205 214 218 221 221 219 217 220 220 221 221 221 219 214 211 205 200 198 192 182 170 147 87 43 20 51 31 37 42 32 30 52 41 55 80 79 90 118 123 132 145 160 170 173 177 181 185 189 192 199 210 216 213 213 212 211 213 213 213 211 211 211 210 205 196 182 175 172 165 162 159 154 153 151 167 179 187 202 207 208 210 210 209 214 205 188 181 184 190 190 187 194 199 208 214 215 218 219 219 217 220 221 219 218 217 214 212 208 203 197 192 185 174 148 68 39 22 27 43 40 26 27 28 48 45 57 83 88 96 113 120 131 148 163 166 171 175 177 179 185 192 198 205 211 212 213 214 214 214 214 212 210 210 208 206 205 195 176 165 158 162 174 177 169 161 158 166 174 186 194 198 203 209 211 211 215 205 190 181 184 194 196 189 180 184 196 201 206 212 216 218 217 218 220 216 215 215 213 211 208 199 194 192 184 174 147 62 36 36 43 38 35 23 22 30 44 44 53 89 91 98 111 122 132 149 159 164 168 170 173 176 180 184 190 194 201 205 208 210 212 213 212 211 203 199 201 191 181 172 159 153 158 174 185 188 186 174 162 163 169 177 183 195 208 208 209 210 213 206 189 177 178 193 195 193 182 170 170 176 188 195 203 210 212 214 215 215 213 212 212 209 202 196 192 190 186 179 150 63 39 48 55 46 43 29 26 33 46 49 56 78 94 100 113 120 132 145 156 157 158 164 168 171 173 176 183 188 191 194 197 201 205 203 204 202 192 188 185 172 156 151 145 145 161 173 184 198 191 176 163 159 163 167 172 191 204 207 205 208 206 201 188 175 172 184 194 191 186 159 147 150 160 170 182 192 197 204 211 202 205 207 207 203 199 196 192 187 182 177 155 67 54 54 61 56 41 32 31 35 45 56 62 77 95 101 111 122 134 144 150 150 153 158 163 166 168 174 176 180 184 185 190 191 192 192 188 187 182 173 164 152 145 147 140 132 155 169 171 185 180 170 156 151 154 158 166 177 178 183 186 191 190 183 176 167 160 171 185 186 182 159 147 144 147 158 164 171 183 188 188 188 193 197 197 197 195 193 185 181 179 172 159 80 62 81 77 77 51 38 42 46 38 54 69 82 94 103 112 120 129 141 146 146 148 151 156 157 159 164 169 171 173 177 178 182 185 182 175 172 162 153 147 142 140 142 131 123 147 158 162 166 159 151 143 132 132 135 147 157 159 159 165 169 172 168 155 143 145 159 168 174 174 160 154 149 140 147 153 160 167 171 174 179 186 189 189 188 187 187 181 176 175 170 160 98 63 83 95 102 67 40 34 36 44 56 72 84 102 106 111 117 127 135 140 141 144 144 142 147 153 158 162 164 166 170 167 165 165 165 162 154 145 141 140 141 143 144 126 109 131 141 146 144 137 127 117 104 94 94 102 120 131 136 146 153 149 134 115 110 120 133 146 155 159 145 140 137 133 137 145 155 163 168 170 171 175 177 178 178 178 179 178 172 170 167 159 104 78 93 97 109 89 59 52 44 40 56 73 81 96 111 117 119 121 130 132 131 134 138 142 142 145 149 150 155 157 156 155 156 150 145 138 132 127 129 136 147 146 146 128 94 106 114 113 110 96 80 71 68 64 61 63 74 83 107 124 130 121 103 98 93 86 95 114 126 132 128 124 129 127 122 127 143 156 160 163 161 163 166 168 168 167 171 168 166 163 162 156 105 79 96 107 123 112 87 84 84 59 55 74 84 96 116 118 118 121 127 127 124 124 126 133 134 138 141 142 144 144 142 141 142 129 115 106 102 114 133 145 147 148 144 131 99 76 74 68 52 30 18 14 16 24 38 50 51 60 81 100 96 92 81 52 34 28 35 58 88 121 143 148 147 141 127 108 113 129 134 146 151 155 158 159 160 160 161 160 157 153 153 153 108 83 92 113 132 126 111 106 102 83 60 67 81 97 116 119 115 122 120 118 114 113 116 124 124 126 129 133 135 134 125 123 111 90 81 96 122 143 152 152 153 154 147 133 114 78 40 37 23 14 12 9 8 12 17 26 46 49 53 63 68 65 32 11 15 23 21 46 99 149 166 172 161 160 149 124 97 99 122 135 142 148 154 157 154 148 147 147 143 145 145 151 121 85 90 108 129 131 124 117 113 100 77 66 78 100 118 118 119 119 115 110 106 105 111 114 117 118 125 129 126 118 98 74 67 86 119 146 154 156 155 158 159 159 153 141 125 106 60 17 16 17 15 15 16 21 21 22 36 52 53 55 61 48 31 26 23 16 26 68 135 171 175 177 170 165 161 149 132 95 75 106 136 146 157 157 148 144 140 135 132 133 136 146 127 100 77 79 111 120 123 116 115 112 99 74 85 103 115 121 124 117 110 106 100 96 101 108 116 116 116 110 98 74 59 85 124 148 159 152 150 151 153 158 159 155 154 143 132 130 118 68 30 17 11 11 11 12 11 14 21 31 37 40 35 22 16 22 31 44 69 110 163 177 176 179 179 174 164 159 153 139 108 69 73 96 121 138 136 136 136 127 124 120 126 141 122 106 93 69 40 80 102 109 109 105 102 84 82 102 113 120 121 117 111 102 91 85 91 103 111 112 106 85 62 74 117 148 154 147 147 142 141 145 151 152 153 154 158 152 142 141 139 131 108 88 68 47 23 10 9 9 9 9 13 14 15 30 61 90 105 114 126 155 171 171 173 173 173 179 165 153 151 151 150 133 79 50 76 114 137 141 131 120 119 115 121 143 116 94 95 50 0 13 46 70 78 81 80 81 85 104 117 121 119 115 112 104 93 82 87 100 108 106 82 54 83 136 151 144 144 141 136 136 140 143 147 151 148 150 152 155 158 147 142 141 132 128 129 116 102 70 31 11 9 10 14 27 54 97 128 135 130 126 129 155 160 163 169 173 169 179 172 154 146 146 148 152 143 91 50 87 123 129 122 121 113 106 119 143 110 87 72 18 2 0 0 6 17 27 36 56 80 100 121 123 118 112 109 109 103 85 85 104 99 88 64 86 137 140 138 139 131 131 128 124 136 137 142 144 142 143 142 142 148 148 149 147 144 147 137 127 129 132 112 71 40 35 49 79 111 132 134 134 131 131 142 157 165 168 168 173 175 183 181 165 154 141 140 146 149 128 78 38 57 89 108 118 112 106 124 146 97 53 24 13 0 0 1 0 0 0 0 7 67 112 122 120 117 110 109 116 116 98 88 102 97 80 80 133 137 132 124 119 115 120 122 118 125 135 139 136 136 140 143 140 141 140 147 147 147 148 146 148 148 149 143 133 126 111 119 129 125 128 130 130 127 144 163 164 174 170 171 169 176 185 182 172 153 138 131 135 138 137 126 73 43 75 97 114 111 112 132 147 51 4 10 17 0 0 2 2 0 1 0 0 45 107 118 116 116 112 109 118 123 107 89 100 105 92 110 136 121 110 108 108 99 96 97 107 117 130 130 130 136 139 142 141 144 141 145 148 148 145 143 149 148 154 161 157 162 169 164 148 141 140 136 143 152 163 173 171 172 171 173 173 174 187 182 170 146 125 114 114 122 129 134 120 63 74 99 117 115 120 137 146 37 3 13 16 0 1 1 1 1 1 0 0 36 99 114 115 115 113 112 115 127 123 94 98 111 108 116 128 109 91 90 81 74 69 77 92 98 105 113 125 129 130 131 136 141 145 146 145 145 147 147 150 158 167 172 171 173 184 182 176 168 155 150 157 165 164 165 156 154 148 143 142 149 151 154 148 130 99 81 77 88 115 124 129 104 98 106 118 120 128 140 143 33 1 10 16 3 2 2 1 1 1 0 1 32 93 113 111 112 114 112 115 120 126 103 95 118 121 116 132 107 73 60 53 49 40 47 55 63 73 81 85 95 100 94 95 102 105 113 118 123 126 125 127 136 149 153 164 167 170 172 171 160 145 139 132 134 143 146 140 141 140 135 126 117 95 96 107 95 76 64 54 60 90 118 126 121 120 113 120 126 134 145 144 58 4 6 16 3 2 2 3 1 1 0 1 29 83 111 109 114 114 113 114 119 135 119 93 118 129 119 136 131 96 76 89 100 92 57 24 15 24 31 40 57 79 94 93 92 94 107 116 119 121 118 115 111 115 119 121 120 123 129 125 119 122 126 130 127 124 123 115 102 97 106 116 115 103 82 48 59 102 117 112 102 110 124 125 127 135 123 125 132 138 147 129 54 30 7 11 0 2 3 1 3 1 0 1 29 76 113 108 114 115 114 114 117 136 132 98 107 124 116 138 153 141 126 133 139 150 155 135 90 44 19 15 19 29 41 44 37 38 40 48 64 76 88 97 100 99 108 106 106 114 110 113 108 96 82 77 61 51 47 39 36 43 51 64 66 66 64 87 132 159 164 156 145 149 141 125 131 139 128 127 136 142 145 128 56 17 2 22 15 3 3 2 1 1 1 2 28 65 107 110 110 115 116 117 116 126 138 113 97 119 112 132 159 162 152 148 150 154 160 163 167 148 111 78 54 44 47 48 47 51 44 32 30 26 20 24 30 39 46 48 55 61 52 49 47 32 21 26 59 83 96 94 92 83 68 54 63 93 134 149 156 158 158 154 158 164 150 128 140 136 124 131 139 140 140 127 85 28 27 74 96 35 3 3 1 1 3 2 26 64 104 108 103 112 116 117 114 120 136 127 104 106 111 121 149 167 173 163 156 155 153 153 152 150 150 139 117 110 111 109 113 123 120 117 116 110 105 103 106 111 109 94 64 51 57 69 92 116 135 149 162 167 162 155 145 137 135 137 157 172 175 165 154 150 151 155 164 164 142 136 146 130 124 138 140 140 141 124 65 38 88 104 135 111 30 7 8 3 4 2 31 83 100 102 100 108 115 112 115 119 133 132 112 100 107 113 137 156 174 174 164 158 154 150 153 147 143 137 127 119 113 108 108 110 111 120 128 138 143 156 167 180 179 175 172 168 166 177 192 199 202 195 179 168 155 145 139 137 145 154 163 169 170 168 152 150 154 162 167 153 130 137 137 128 132 139 137 136 139 98 34 87 120 107 102 147 123 48 17 8 5 2 34 97 99 105 100 101 112 112 115 115 125 133 121 105 102 107 123 147 166 173 167 163 159 153 150 147 142 138 132 128 125 120 116 110 116 111 117 128 127 136 146 158 164 168 169 168 173 181 178 175 165 155 148 140 142 141 144 146 154 163 164 165 168 168 158 150 157 165 160 141 131 131 122 128 141 140 134 134 131 59 83 129 111 78 25 105 148 114 54 14 7 1 35 99 96 105 101 98 103 109 117 115 118 128 128 112 102 99 116 135 152 161 163 165 163 159 153 147 140 137 134 132 132 125 125 129 130 129 128 130 127 131 134 135 140 146 145 151 159 162 158 154 148 154 154 155 158 160 165 162 162 161 165 164 160 169 165 154 161 160 148 136 135 124 113 129 139 137 132 129 120 106 132 110 82 87 3 35 91 120 67 18 11 1 35 101 100 102 100 95 98 105 110 115 117 121 129 115 103 93 101 126 142 150 156 160 161 158 154 148 143 138 130 130 134 134 130 131 131 132 132 137 138 143 143 137 141 145 144 149 154 162 156 152 158 164 161 156 155 155 158 161 163 160 158 158 163 170 171 166 156 153 141 134 129 117 126 137 134 131 124 128 121 108 101 81 86 131 21 19 41 51 25 20 24 1 28 98 102 93 97 99 96 94 102 106 117 123 127 123 108 104 95 106 126 142 151 157 156 156 154 151 145 141 135 130 130 131 131 132 134 132 133 132 134 139 139 138 140 139 140 144 146 148 145 148 150 154 156 152 153 160 160 159 157 149 153 159 166 171 171 171 161 152 133 129 121 129 143 137 127 120 123 120 89 68 58 84 153 149 20 20 18 22 19 20 35 6 21 94 104 92 89 90 92 95 99 102 110 121 123 129 121 110 107 101 114 134 142 152 159 157 155 152 150 148 144 138 132 131 130 128 128 126 135 136 132 135 133 136 133 134 138 140 142 141 145 153 155 149 156 162 157 159 159 156 153 146 156 165 166 169 171 169 168 156 150 131 123 131 136 131 124 121 102 68 47 39 92 169 104 41 85 48 26 31 18 16 41 20 25 91 108 99 83 87 85 91 96 102 110 116 120 127 127 118 113 109 114 127 138 149 156 155 151 150 148 148 146 145 142 137 137 135 137 135 133 137 132 129 133 135 134 138 142 147 145 141 148 151 157 149 154 158 142 139 142 150 151 157 164 166 169 171 168 159 155 156 150 135 128 134 133 128 128 89 53 39 30 81 159 72 29 58 125 52 31 36 9 18 43 18 23 87 109 109 91 83 78 85 96 100 103 112 119 124 127 122 121 117 116 124 140 144 144 146 146 149 149 147 144 143 145 141 140 140 142 141 138 133 130 131 130 128 126 133 139 150 146 138 147 145 146 141 143 147 145 148 147 149 157 162 166 167 170 169 167 153 148 156 145 134 134 136 133 130 90 47 36 24 51 128 60 15 45 51 40 46 50 17 5 16 31 18 20 83 108 110 100 77 76 77 85 94 98 107 113 122 125 129 126 122 117 120 124 134 141 138 141 150 149 148 147 144 143 144 140 139 143 143 145 142 140 138 134 128 130 132 137 130 129 133 137 141 147 149 151 150 149 152 158 162 164 167 172 171 168 169 164 158 157 146 137 135 136 130 132 100 47 33 25 23 74 61 13 37 40 38 68 69 25 6 9 18 13 19 21 78 107 109 112 85 72 71 76 86 91 99 107 113 120 125 126 122 120 120 119 131 140 139 138 139 144 149 149 149 147 144 143 143 144 146 147 150 148 143 144 138 136 136 132 130 136 137 144 149 146 152 150 152 158 160 162 165 168 175 174 173 169 167 163 163 160 144 139 135 134 134 115 51 38 27 19 24 43 12 24 36 38 38 49 22 7 8 19 22 10 17 19 75 107 108 116 101 68 71 69 75 77 86 102 107 114 121 128 124 121 119 122 125 135 139 136 139 142 148 146 144 148 147 146 144 145 148 150 149 151 151 149 150 151 146 148 146 147 147 145 147 157 154 160 170 171 167 168 171 175 180 177 172 173 171 163 159 155 143 136 136 135 131 76 31 31 21 6 11 18 19 26 32 35 35 15 13 10 19 32 24 8 22 51 88 104 109 112 114 79 66 68 68 69 81 94 103 112 115 122 123 117 116 115 120 128 142 140 143 138 134 150 151 152 151 151 151 152 153 154 152 157 160 154 156 156 152 152 152 150 150 150 156 161 166 175 182 172 173 176 180 182 183 182 173 170 165 169 162 150 144 140 137 134 116 42 26 28 21 1 2 11 20 22 26 28 31 33 22 31 37 33 19 16 64 111 99 103 106 108 115 93 55 64 60 62 75 83 97 104 114 120 122 119 118 115 117 125 136 148 146 137 139 144 149 150 156 158 155 154 156 159 158 162 170 171 169 173 174 170 159 168 175 178 185 190 189 180 164 164 178 184 185 187 190 186 181 176 168 164 161 153 148 140 135 132 98 27 22 19 8 0 1 8 13 17 18 20 23 55 36 65 49 21 12 32 107 134 102 103 106 109 113 108 54 53 58 57 66 75 81 94 101 110 119 120 119 119 119 129 133 139 145 141 138 144 147 148 156 162 160 157 160 165 168 165 169 171 177 183 189 195 190 193 201 203 203 202 199 191 186 188 189 194 196 194 194 186 179 170 173 161 157 153 140 135 130 125 74 19 17 12 2 0 0 3 8 10 10 13 14 69 50 68 46 10 6 29 109 123 98 104 108 108 112 118 72 37 59 59 55 65 74 82 92 101 112 121 119 117 119 124 127 132 140 142 140 146 150 155 160 157 169 169 164 168 173 172 170 174 181 190 193 199 201 199 200 200 202 202 200 201 202 205 203 203 205 200 193 184 178 176 167 164 156 142 140 135 128 119 61 14 13 11 1 1 2 2 3 3 4 7 8 122 79 51 35 8 4 18 90 109 98 107 108 108 112 117 94 39 40 57 55 56 63 72 84 95 103 113 117 118 116 119 129 140 144 143 142 144 149 156 160 158 165 173 173 170 171 172 171 185 194 195 193 196 201 200 200 199 202 206 207 206 203 201 197 204 202 197 185 176 171 166 166 156 151 141 132 127 118 103 53 14 13 13 3 1 3 2 2 1 2 5 6 162 147 101 84 27 4 9 91 125 104 107 110 109 107 112 112 57 33 45 57 54 54 64 75 84 93 100 108 110 113 113 123 134 140 142 144 143 147 155 160 162 164 170 176 175 171 177 182 187 192 195 195 194 196 197 198 199 200 203 202 202 197 196 197 199 194 192 185 172 166 164 159 149 146 134 128 119 104 84 45 14 11 13 3 0 4 3 2 1 2 2 1 166 158 133 96 44 8 5 49 109 102 107 110 112 110 110 113 75 33 41 45 50 50 54 61 69 81 92 94 97 105 103 111 126 128 132 138 136 139 149 154 162 167 164 165 171 175 182 184 187 194 192 195 194 190 188 191 192 194 192 193 200 197 197 198 194 189 186 179 170 164 169 162 142 137 131 116 105 84 75 58 13 7 13 2 0 1 1 1 0 1 1 0 160 156 156 119 67 26 11 18 77 108 107 110 112 113 111 114 102 44 37 40 44 48 52 53 59 70 75 84 96 95 98 101 114 120 124 128 129 132 139 148 157 161 158 159 169 180 182 178 184 193 193 188 186 183 178 182 186 186 182 188 190 195 194 192 185 186 172 164 160 157 157 154 135 124 112 101 78 74 102 96 15 5 13 2 0 0 0 0 0 0 0 0 160 157 159 147 130 66 29 25 72 107 106 110 113 112 111 113 116 68 33 38 41 48 52 52 53 58 64 70 81 85 95 101 105 101 110 122 126 126 130 137 144 152 149 149 155 168 173 172 176 181 186 184 175 170 171 174 172 173 177 179 180 179 182 178 172 178 165 158 152 155 150 140 118 112 97 88 85 108 126 120 32 2 13 3 0 0 0 0 0 0 0 0 167 157 158 156 160 143 76 53 93 107 108 110 113 111 110 113 116 95 37 34 41 46 50 51 51 53 52 55 59 70 78 89 92 98 99 108 119 120 124 126 128 136 136 136 143 148 152 161 163 168 165 169 169 165 165 165 164 164 169 164 168 169 167 164 165 159 161 154 141 143 145 126 105 91 79 98 123 131 129 138 68 0 8 1 0 0 0 0 0 1 1 0 173 171 172 165 160 159 151 103 99 107 111 112 111 112 112 112 116 115 58 29 37 43 47 49 52 53 48 46 51 56 61 78 73 82 98 99 101 116 118 111 118 122 124 129 134 139 142 148 155 157 157 160 158 160 161 160 153 159 158 154 154 154 157 149 147 138 142 138 136 128 129 108 98 83 78 117 142 139 138 145 122 10 1 1 0 0 0 0 0 1 1 0 178 181 176 160 122 78 76 102 102 107 112 112 110 113 112 113 115 119 91 36 33 39 43 44 51 51 50 46 48 54 58 67 72 79 76 78 90 96 101 103 116 112 114 116 128 133 136 137 146 145 147 153 155 157 154 154 147 148 144 139 144 141 137 134 123 134 131 128 129 116 107 94 75 75 81 130 147 146 146 148 156 64 0 1 0 0 0 1 0 1 1 0 164 129 80 40 18 1 58 105 105 106 112 112 111 112 113 115 113 114 114 63 28 35 39 41 45 46 48 46 46 46 47 45 46 57 55 61 78 78 81 83 96 99 108 101 108 117 124 129 129 134 134 141 147 138 139 138 138 125 132 125 125 128 121 115 114 121 119 117 113 102 93 70 66 77 89 143 152 151 152 154 160 137 13 0 0 0 0 0 0 0 0 0 54 25 7 1 1 39 104 109 103 107 111 113 113 111 112 114 114 112 114 95 38 29 34 40 43 41 45 47 44 43 42 40 40 37 48 55 49 61 70 63 69 87 96 80 97 104 108 107 115 113 114 117 122 126 123 117 117 117 118 108 100 97 96 105 103 101 105 104 90 84 76 70 83 76 99 153 157 157 156 158 158 169 98 1 0 0 0 0 0 0 0 0 16 11 4 0 23 96 111 106 105 112 113 114 115 113 113 114 113 112 113 116 70 28 30 35 37 38 39 43 45 43 40 41 44 40 37 41 44 50 60 61 55 60 67 63 77 82 90 99 112 100 104 102 106 112 92 97 98 100 103 97 87 82 90 90 81 80 81 84 64 74 68 88 89 79 113 161 162 161 162 162 163 165 169 84 3 0 0 0 0 0 0 0 22 7 0 9 91 117 116 110 106 111 114 113 115 114 113 113 115 115 114 116 109 47 27 31 34 37 38 39 43 41 40 40 36 33 36 37 43 42 45 44 46 50 54 54 55 63 59 69 75 75 79 99 89 77 85 80 69 69 70 69 76 65 62 64 75 67 64 61 60 62 77 96 88 88 127 166 164 165 164 164 164 162 166 170 107 20 0 0 0 0 0 0 30 9 0 64 121 121 121 115 108 113 114 114 115 114 114 114 114 114 114 117 118 88 34 26 32 35 37 38 38 39 38 37 37 31 31 31 27 30 35 32 35 39 38 32 40 42 38 42 48 51 55 61 51 58 58 48 47 47 42 46 52 50 49 53 57 48 50 54 63 67 88 97 91 97 136 166 162 163 162 162 161 161 158 159 165 141 54 0 0 0 0 0 30 8 22 117 129 121 121 115 110 115 114 114 115 115 117 116 115 113 112 115 115 113 72 25 26 31 34 33 33 35 38 38 37 34 31 30 33 31 30 30 28 27 29 28 29 32 31 31 32 35 36 29 33 38 30 30 31 30 31 30 31 31 36 42 43 43 45 58 68 75 94 99 101 105 142 160 158 158 158 157 155 156 153 153 151 155 150 88 22 0 0 1 30 10 60 141 140 131 121 117 112 116 116 113 114 115 118 117 116 114 113 113 114 116 107 58 24 27 32 32 34 34 34 36 36 35 33 32 33 32 33 34 27 26 25 27 28 24 25 24 28 25 25 23 27 30 26 28 27 25 28 28 29 32 39 40 41 49 60 65 71 79 98 101 109 107 143 154 152 152 152 152 151 149 148 146 144 142 139 144 125 86 46 24 25 19 82 144 143 132 122 117 113 118 123 122 119 121 118 116 118 115 112 113 113 112 114 102 47 23 26 28 28 28 32 36 37 37 35 34 34 30 33 28 24 26 24 23 24 23 24 31 28 25 26 24 24 26 26 28 27 29 31 34 33 38 43 41 49 62 69 70 72 85 105 115 111 110 144 147 146 146 145 146 145 142 141 138 136 133 128 125 122 122 115 101 25 24 95 151 147 131 124 118 117 126 131 132 132 131 125 118 117 113 110 110 110 111 112 113 91 41 24 24 25 27 28 33 35 37 37 35 32 34 34 29 27 25 28 28 28 28 28 32 26 28 29 27 26 28 30 29 30 33 32 35 36 38 41 54 65 71 73 72 78 92 119 121 105 114 138 140 139 139 140 139 137 136 134 132 128 126 121 116 110 104 97 89
