P2
# Generated by OpenCV 4.2.0
92 112
255
156 143 132 161 156 156 156 134 125 132 149 153 150 172 163 164 163 164 165 174 177 175 177 178 179 183 188 190 188 188 187 188 170 162 162 165 171 179 189 186 181 172 180 176 180 187 176 166 172 175 163 156 158 166 170 171 170 169 173 186 178 174 175 161 152 156 152 135 139 141 138 133 140 142 148 156 163 164 160 150 145 153 154 146 139 159 157 150 154 171 174 164 153 133 148 152 155 159 152 136 129 131 144 154 143 162 163 162 167 166 169 175 181 181 183 184 186 188 190 191 189 188 189 191 182 168 163 162 172 181 189 188 186 173 186 182 179 184 169 168 173 178 167 159 162 166 175 180 181 179 177 177 174 174 171 174 170 163 157 154 145 143 142 135 134 137 136 149 157 156 152 154 148 152 157 150 143 150 157 156 157 169 181 173 126 139 151 147 146 154 146 139 136 135 136 147 144 152 160 163 165 169 171 173 176 185 187 187 187 189 191 190 189 190 191 189 188 179 170 162 162 183 192 191 186 178 196 186 175 176 172 173 175 174 169 162 161 169 178 180 193 189 182 177 176 174 170 170 169 171 165 161 158 148 143 139 136 138 133 140 151 154 149 148 142 145 149 152 140 145 156 168 167 165 176 184 121 138 153 166 142 141 135 134 137 138 131 140 140 145 159 160 163 172 176 179 179 181 183 182 185 189 189 186 187 186 189 190 189 181 180 173 168 184 190 191 189 192 203 186 175 173 172 177 172 169 166 162 164 174 177 183 192 192 190 182 179 179 174 171 167 166 167 162 161 153 146 144 141 140 140 136 143 149 146 145 140 134 139 145 141 138 157 173 176 174 163 189 130 140 155 164 161 139 126 136 142 142 136 128 139 139 153 159 168 174 177 178 180 182 184 181 184 186 187 186 185 188 189 190 188 183 180 172 178 181 187 190 203 205 205 186 177 171 177 184 176 172 167 166 167 177 180 190 195 194 191 187 180 180 178 176 174 172 171 168 162 157 152 148 145 140 138 142 145 146 141 146 144 140 139 137 152 142 155 162 176 193 167 192 140 145 150 149 159 129 129 139 148 146 141 133 131 142 146 158 167 173 175 178 179 183 184 183 183 183 180 181 187 193 194 191 184 179 174 177 177 174 189 195 203 207 204 185 176 173 186 190 181 177 170 166 173 181 185 193 195 196 196 192 186 182 182 181 181 177 176 173 168 164 160 152 146 146 141 140 154 163 153 142 148 155 145 132 155 175 156 158 171 179 186 198 133 145 138 150 140 114 128 143 147 143 141 148 141 135 143 156 164 169 175 178 179 180 183 185 185 180 180 186 190 191 191 187 179 173 176 175 177 177 183 175 191 202 197 188 179 175 185 192 182 169 169 170 175 178 189 196 193 193 195 194 191 190 187 185 185 185 182 180 180 171 161 157 153 151 150 139 156 173 171 161 160 154 139 132 145 186 172 166 175 175 187 199 138 128 133 152 120 114 128 141 147 144 140 150 154 147 143 148 158 167 170 175 181 180 184 192 191 188 188 187 187 189 187 184 181 174 180 180 179 172 182 172 182 198 191 187 184 178 181 183 174 169 168 175 179 180 191 197 195 192 190 191 191 191 189 189 189 189 189 187 183 180 171 165 159 154 153 153 149 173 183 184 171 164 152 135 128 174 188 170 181 182 171 194 123 121 156 132 112 115 131 140 145 144 141 147 155 158 156 160 162 174 177 180 182 183 189 192 189 186 188 188 186 187 189 191 193 186 182 186 182 176 172 173 177 185 191 190 185 181 179 179 177 174 177 184 190 186 194 195 194 192 191 191 190 190 190 190 191 192 191 190 185 182 174 169 166 160 156 151 141 153 184 193 183 176 164 158 136 152 203 186 186 189 165 181 123 137 142 100 112 116 129 139 143 145 146 149 159 160 164 168 172 180 178 175 180 185 186 189 187 187 189 187 185 192 199 198 197 190 188 187 185 178 167 169 169 175 183 189 180 177 179 185 185 180 181 194 194 189 196 195 195 192 191 191 190 189 192 192 193 194 193 191 188 182 175 172 172 167 161 157 144 140 155 182 187 179 174 164 145 143 179 204 186 191 167 161 127 137 110 96 110 116 132 142 144 147 149 152 159 160 164 169 174 176 176 185 189 187 186 188 189 190 187 187 189 197 200 196 196 188 188 191 199 189 165 166 168 169 165 179 177 175 178 191 192 189 190 201 196 196 197 196 193 194 191 190 192 192 192 192 192 191 193 192 188 183 180 177 175 171 167 159 153 144 142 147 182 188 181 172 158 164 147 190 196 185 169 153 126 114 83 96 110 119 134 146 145 147 149 155 160 160 164 168 174 173 177 185 187 186 187 186 188 188 189 189 195 197 199 197 197 189 194 197 205 194 167 161 157 169 178 171 176 167 173 200 204 203 196 201 196 198 197 197 193 194 191 191 190 191 194 193 190 189 190 194 189 184 179 178 175 169 169 164 161 149 147 124 146 186 185 179 179 175 153 150 206 191 174 157 115 81 68 101 113 119 138 148 150 148 149 156 160 163 166 168 172 173 178 181 184 183 186 186 187 186 189 192 196 197 198 197 196 190 194 198 197 191 169 158 162 178 192 175 168 162 164 184 205 206 197 195 196 199 199 196 194 192 192 191 190 191 195 192 192 190 189 192 188 182 179 178 175 170 169 166 161 154 147 143 126 168 185 186 174 171 161 132 183 201 179 159 81 68 77 103 114 122 137 149 154 152 152 154 160 163 166 169 170 173 171 179 184 183 185 187 188 187 188 194 192 196 195 198 197 194 198 201 202 197 179 160 164 183 191 180 165 164 161 167 191 205 201 193 197 197 198 196 196 194 194 191 191 194 193 191 192 192 188 189 184 182 179 175 175 172 169 168 163 158 152 149 127 157 169 191 184 168 165 155 149 195 190 160 83 60 80 106 117 122 133 145 153 152 149 153 159 162 167 170 171 172 174 177 180 184 186 188 189 189 192 192 192 194 194 192 197 198 196 197 201 202 184 163 164 182 191 191 169 166 167 163 175 197 201 197 195 196 196 195 192 191 194 194 191 193 195 192 192 193 192 190 182 182 182 179 176 171 170 169 163 157 155 147 128 149 174 177 185 175 166 156 152 171 200 166 78 58 84 108 119 124 134 146 154 151 147 152 160 163 168 171 168 168 177 181 182 184 187 188 184 187 190 187 190 193 194 195 195 196 197 198 202 201 194 179 175 189 191 196 182 167 174 176 179 191 195 197 197 196 195 195 193 195 196 194 194 194 195 193 192 193 192 187 183 180 178 178 174 167 169 163 159 155 155 149 133 133 180 183 187 183 177 164 145 147 190 180 69 60 89 108 118 126 138 151 154 152 150 152 158 163 170 178 169 165 178 181 182 184 186 188 187 185 185 188 192 192 191 193 194 195 196 198 201 201 201 196 191 194 193 196 190 177 174 178 187 195 197 197 198 196 197 199 195 199 199 197 194 193 194 195 194 194 191 186 181 174 174 174 171 168 170 163 151 147 157 151 131 130 177 187 182 199 178 158 149 147 164 183 72 57 91 108 117 124 142 156 154 156 154 156 158 164 170 176 170 168 182 182 180 181 184 185 187 186 187 190 193 191 194 196 194 194 195 196 194 196 197 195 196 196 192 192 191 193 183 180 188 195 197 200 200 197 196 200 201 199 196 194 195 194 194 195 194 191 187 184 179 176 176 172 169 168 165 165 156 139 156 159 128 127 160 194 176 169 206 168 149 149 149 170 108 61 93 106 116 121 145 152 153 156 154 154 162 163 168 172 174 176 180 180 180 183 182 185 185 183 185 188 190 191 194 196 195 193 195 198 196 192 193 192 193 194 192 192 193 194 194 189 192 195 195 200 201 197 198 198 198 197 195 194 194 195 194 192 191 190 187 180 175 175 176 176 172 170 168 163 161 138 153 168 123 124 153 190 187 152 174 199 158 149 143 158 145 70 99 109 115 119 143 149 154 153 155 156 157 164 171 172 176 178 180 181 183 184 185 189 187 185 183 186 189 188 194 194 195 193 194 194 194 191 191 193 192 195 193 191 194 197 197 199 197 196 199 201 198 197 198 197 198 193 192 190 190 189 189 191 190 187 181 175 172 173 173 175 172 172 171 165 160 139 151 168 132 126 150 190 196 167 144 180 182 159 144 151 154 90 96 107 110 117 136 146 150 153 160 157 158 166 168 173 177 180 180 182 184 186 187 191 190 187 188 190 191 189 192 195 195 191 194 194 193 194 192 193 192 196 194 192 194 198 198 201 201 200 201 202 200 200 199 198 198 197 194 193 189 188 188 192 189 184 179 174 173 174 175 175 174 173 173 167 161 143 160 169 137 121 132 190 196 175 142 154 170 169 153 152 138 110 92 104 110 112 130 146 153 152 155 157 160 166 168 173 179 180 180 183 184 187 188 192 191 188 189 190 194 194 193 194 192 188 194 191 191 193 198 195 192 192 192 192 196 202 203 202 203 205 204 200 198 200 199 197 196 195 196 197 196 192 192 190 186 183 179 176 175 176 176 174 175 173 170 165 159 146 163 164 145 127 114 175 199 181 145 142 163 155 159 152 127 107 89 101 107 110 127 148 150 152 158 159 160 164 171 173 182 184 185 186 186 187 191 195 191 191 194 193 193 196 197 197 192 192 193 194 194 194 197 194 191 195 198 197 203 204 203 203 205 207 206 202 199 199 197 198 196 193 188 191 195 195 192 188 186 185 179 177 175 175 172 171 170 168 166 167 156 150 157 153 144 123 109 168 202 180 149 125 157 149 149 152 118 102 86 99 106 110 126 147 150 154 155 153 160 164 172 172 181 183 183 188 189 189 191 193 196 198 199 197 200 201 197 195 198 197 195 198 198 197 195 197 194 199 200 199 203 204 205 206 207 206 206 202 200 197 195 197 197 197 193 189 189 192 193 189 188 183 178 173 172 173 171 170 168 168 171 172 152 148 151 136 122 110 109 157 199 192 149 123 143 156 141 138 101 104 83 95 103 114 133 147 145 138 136 142 146 154 166 172 176 181 181 182 188 191 191 196 197 200 201 203 199 201 199 197 201 198 193 197 198 194 194 198 197 200 199 196 204 205 207 206 209 207 204 203 198 196 192 190 189 187 188 188 185 184 188 188 188 186 177 173 169 170 171 169 166 166 168 168 155 147 143 125 110 116 107 133 189 202 144 127 141 157 148 133 104 102 81 91 101 117 130 121 120 118 116 116 112 124 134 148 157 158 167 170 174 186 188 194 196 200 200 202 201 202 203 201 202 199 193 199 198 192 194 197 198 199 193 192 201 200 201 208 202 197 195 191 183 183 180 181 177 175 174 180 176 170 177 184 187 186 180 177 173 172 170 169 167 164 164 164 156 151 136 119 113 118 111 118 175 203 153 130 134 156 154 138 109 103 82 89 95 102 106 103 104 102 92 85 95 92 95 104 120 133 135 151 159 171 183 186 195 197 200 206 203 203 203 203 201 197 194 200 198 196 196 197 200 195 189 188 195 189 193 174 152 162 160 155 156 154 160 163 153 153 162 168 165 162 169 171 175 180 183 179 175 170 168 170 167 164 162 163 158 154 137 120 116 119 113 115 166 196 171 139 137 153 154 138 118 108 81 80 83 82 77 82 83 79 76 65 70 77 85 94 99 123 125 131 148 156 168 174 186 192 197 198 196 203 202 203 201 198 194 200 202 198 196 198 201 195 186 188 185 180 169 144 141 148 145 137 128 130 136 138 143 143 145 153 151 153 146 147 152 161 168 167 166 170 168 170 167 164 162 159 157 157 138 127 120 118 117 113 148 184 184 150 147 151 152 139 133 110 72 76 74 78 79 77 83 83 77 87 81 76 80 96 107 104 117 119 131 141 155 166 172 186 189 192 192 196 199 196 197 199 195 198 198 196 198 198 198 195 185 183 177 167 158 142 135 125 114 119 108 111 117 126 128 126 125 128 132 134 130 126 126 138 142 145 152 157 160 167 164 161 160 159 158 159 145 135 132 121 114 113 134 172 184 156 143 150 141 135 145 109 74 72 76 90 102 106 113 116 118 124 129 122 95 99 101 95 104 110 121 130 132 162 168 172 181 184 187 190 192 192 191 191 191 194 196 194 197 197 192 191 184 174 168 161 155 137 126 110 109 107 114 119 112 125 131 131 139 139 150 155 153 145 139 142 140 140 140 139 147 160 166 161 159 159 162 160 153 139 149 161 146 125 127 155 175 162 147 150 146 135 107 94 74 75 83 100 113 124 129 132 136 138 143 143 133 122 113 111 110 113 118 124 123 149 167 169 176 178 182 185 183 185 187 185 187 191 199 193 191 192 190 188 181 168 157 164 158 145 133 137 139 139 144 145 152 159 164 163 164 165 167 166 164 164 164 162 159 153 152 148 147 145 156 165 164 159 160 161 155 143 141 157 166 173 174 155 163 163 152 150 147 125 102 99 85 80 84 105 115 119 124 129 133 132 134 139 136 136 136 127 124 125 127 128 133 140 153 161 169 176 178 178 178 182 182 184 185 189 191 187 186 184 181 180 173 163 156 167 164 153 156 159 156 158 162 166 170 171 174 171 167 168 167 166 165 165 166 166 167 162 163 161 156 156 157 161 164 160 160 161 155 149 147 135 118 134 177 164 151 159 158 151 143 120 86 92 92 90 86 97 112 116 121 125 127 131 135 140 138 135 141 138 127 125 126 129 135 137 145 154 161 169 169 172 175 177 180 183 184 187 184 184 181 179 177 174 170 164 163 161 162 160 157 157 160 166 168 175 179 178 175 173 174 173 168 165 165 159 159 160 161 165 165 158 161 162 161 157 159 160 160 161 159 152 149 144 125 107 123 154 150 149 156 159 145 133 46 69 80 80 88 92 110 111 117 124 125 133 141 145 149 151 151 154 149 142 133 125 122 126 132 139 148 159 165 167 173 174 178 180 179 183 185 184 180 178 172 170 165 160 158 156 153 154 156 162 168 172 175 179 178 180 177 178 176 174 169 165 164 159 162 155 156 159 157 162 162 164 163 162 163 162 158 159 158 157 151 146 132 104 119 140 158 155 158 161 162 155 46 67 84 79 89 89 99 109 112 118 126 133 136 145 149 150 151 158 157 158 152 143 133 125 119 122 126 136 150 160 166 168 171 177 178 184 188 182 178 175 169 164 160 157 155 155 154 155 158 165 168 164 161 159 159 161 167 173 166 162 166 158 159 162 160 154 154 151 153 160 161 163 164 164 166 165 158 159 161 160 154 147 130 106 131 144 160 145 136 146 147 151 58 77 96 83 87 88 94 103 109 117 116 120 127 129 142 149 151 148 149 145 148 147 150 144 135 127 124 121 126 138 153 161 168 177 183 192 191 185 178 168 163 161 155 154 154 156 159 159 158 154 143 138 150 158 162 165 175 179 180 176 174 163 159 149 148 155 154 153 157 160 161 163 165 161 164 167 163 160 161 161 155 148 132 112 140 155 167 146 115 136 134 138 83 78 92 86 85 86 96 104 108 100 119 141 147 145 159 168 166 172 182 178 165 148 136 145 153 149 140 133 121 118 134 153 168 178 189 201 194 188 181 169 162 156 155 155 157 157 155 159 154 136 140 163 169 170 174 170 169 164 165 171 177 185 182 168 148 144 159 161 157 158 163 163 163 161 164 164 163 162 161 158 157 147 127 115 152 169 156 132 135 145 135 140 96 98 89 89 85 88 102 107 108 113 131 128 107 96 86 89 91 103 118 135 161 172 155 142 145 150 144 146 140 127 116 137 160 177 190 200 196 187 178 168 160 156 157 156 157 157 156 154 145 145 165 164 146 137 112 95 89 94 81 85 99 128 154 172 172 153 151 163 163 163 164 160 164 162 164 167 165 164 163 162 156 148 127 121 166 168 144 129 143 139 148 142 69 105 105 94 88 89 107 108 96 102 80 81 90 106 73 92 93 81 68 78 92 131 148 154 150 145 139 146 149 141 125 121 151 177 189 193 189 184 173 163 159 161 160 160 159 155 148 144 152 158 144 127 115 116 83 109 92 104 90 101 77 102 101 116 144 163 168 164 163 165 164 162 162 163 167 165 167 166 168 163 156 151 126 125 173 162 138 137 147 132 151 152 58 94 133 115 89 87 105 97 67 68 74 110 155 134 79 98 80 99 95 107 93 145 147 134 147 158 160 154 151 140 129 117 147 175 188 192 189 184 172 162 164 167 166 171 164 153 151 155 146 130 135 156 179 183 106 111 82 92 87 111 83 136 145 89 92 126 150 161 163 160 160 161 161 166 170 166 165 166 165 161 156 151 123 132 175 156 137 155 149 128 151 168 63 85 141 143 96 86 98 97 71 82 96 123 159 144 79 105 101 72 100 114 108 193 205 167 124 125 168 177 168 155 129 120 150 174 186 189 190 185 171 159 165 176 180 193 190 181 167 150 140 140 164 185 203 204 140 119 113 90 115 101 85 154 161 127 114 115 137 153 155 148 151 158 165 162 167 165 166 166 163 160 153 151 126 138 171 138 147 160 134 129 164 182 57 83 110 138 99 90 101 105 100 103 113 128 158 170 107 89 113 117 119 94 139 189 180 162 129 124 149 183 187 159 127 127 154 176 182 185 189 186 173 162 166 175 183 196 203 192 162 147 141 140 140 149 167 188 169 98 116 118 105 88 122 157 145 150 148 153 164 164 167 164 160 161 165 164 168 167 169 167 164 161 153 155 129 146 167 128 159 143 129 145 177 189 61 98 79 115 103 94 107 114 104 104 117 128 143 165 164 110 86 98 114 119 149 153 146 147 158 168 174 185 177 145 125 133 154 176 182 181 186 183 175 165 164 169 177 189 192 189 182 169 157 150 145 148 147 155 160 143 141 144 124 132 146 147 152 160 167 168 165 168 172 172 170 169 170 171 173 173 170 170 167 162 157 158 135 160 159 142 153 133 136 161 182 180 63 108 93 88 100 98 113 118 108 110 124 123 124 128 140 141 126 135 162 183 169 170 170 177 181 177 172 176 155 133 128 137 158 176 178 177 182 177 175 169 164 166 169 178 188 187 180 177 164 156 152 158 161 162 161 164 178 175 148 158 156 166 168 168 164 162 167 175 178 172 171 175 174 173 172 172 169 165 168 165 160 157 139 164 152 129 131 137 147 171 174 166 31 110 122 82 97 107 118 120 113 109 121 127 137 143 145 139 153 157 162 182 178 170 172 165 164 167 174 167 141 131 130 138 164 177 177 181 188 183 176 170 168 164 165 169 183 192 186 180 176 170 158 156 167 173 173 174 186 181 167 176 171 173 170 163 163 166 172 180 184 174 172 177 177 174 173 170 167 166 167 166 162 156 143 160 150 121 120 142 152 162 166 146 8 101 142 88 97 109 122 123 122 116 113 123 139 154 154 154 162 158 154 155 157 171 172 170 176 181 178 154 137 135 128 139 163 178 177 182 188 182 178 171 169 167 168 168 174 184 189 191 186 183 180 170 162 162 165 167 170 174 172 173 169 163 161 164 172 179 178 180 179 180 177 177 178 178 176 173 172 170 170 165 164 155 145 161 148 122 118 134 150 156 151 139 4 88 149 85 99 117 130 132 127 129 123 126 134 143 149 150 153 154 158 157 164 171 173 179 182 175 160 144 141 136 126 138 167 175 181 184 187 183 178 175 171 169 170 176 177 181 187 196 195 187 187 186 183 180 179 172 169 163 164 167 164 166 173 181 186 184 181 181 179 182 180 177 179 178 176 174 173 169 168 167 166 157 149 153 141 127 120 140 153 145 152 155 2 72 136 85 104 127 133 134 134 136 137 140 140 146 149 152 154 157 161 162 166 172 181 184 181 170 154 144 142 134 127 144 174 182 186 187 184 180 179 174 172 171 172 176 179 179 183 191 200 200 196 188 188 185 184 187 185 182 183 180 179 183 182 181 187 186 185 182 182 182 182 176 177 176 174 173 170 168 170 170 167 160 155 151 131 136 124 133 157 160 160 177 3 56 121 83 105 129 137 139 140 136 141 149 153 154 155 157 159 164 163 169 175 179 182 183 176 164 149 143 143 131 128 151 175 183 189 190 186 180 176 172 171 173 173 178 184 186 182 189 193 203 204 200 195 190 189 189 187 186 186 185 182 183 182 183 189 185 182 184 186 185 185 180 178 179 176 175 169 167 168 169 168 161 158 154 129 116 115 131 149 161 160 173 26 50 103 85 103 131 139 144 147 151 148 150 158 160 161 163 166 169 168 172 176 184 183 175 171 158 142 144 139 128 134 157 175 183 187 190 187 179 174 175 172 173 174 176 180 185 184 191 193 195 203 204 203 202 198 192 194 191 190 192 190 185 185 189 189 191 185 185 189 189 186 183 182 179 174 176 172 170 168 167 166 164 159 151 138 120 107 124 152 165 167 176 21 34 92 85 106 133 144 152 152 153 151 156 161 165 163 165 165 166 166 171 175 178 181 171 164 154 142 143 136 129 139 163 179 184 189 189 189 182 176 172 173 173 177 179 176 180 187 193 196 197 197 202 202 200 196 195 194 192 190 187 187 188 187 187 188 189 191 188 188 187 185 184 181 176 170 174 173 169 166 167 164 161 158 150 138 125 121 126 151 166 184 197 19 29 79 85 109 131 147 158 156 158 159 157 159 162 164 165 163 165 168 173 175 175 175 170 162 148 143 138 131 133 149 173 183 183 187 188 184 178 175 171 175 175 174 180 182 180 183 190 194 198 199 198 201 197 194 193 191 189 190 188 185 189 189 190 191 193 192 190 192 189 186 182 183 178 172 170 170 167 164 163 163 162 154 151 140 119 127 139 149 175 201 210 17 21 69 87 107 128 145 158 160 163 165 164 163 160 161 164 170 172 171 171 175 174 172 170 158 146 139 134 129 139 156 172 180 182 181 181 181 178 172 172 172 173 172 175 179 180 180 188 190 194 199 198 202 198 195 193 193 194 194 187 186 191 192 195 195 195 194 191 194 190 187 181 180 176 175 170 170 168 162 158 160 157 146 147 131 117 129 151 159 187 206 199 9 16 54 88 106 128 139 155 166 168 168 165 165 167 170 171 173 176 171 171 173 175 174 167 158 144 137 131 130 148 167 172 173 178 179 181 181 177 172 170 169 171 173 171 172 180 181 187 190 193 203 207 207 202 200 199 198 194 193 193 191 190 195 195 194 194 194 194 193 190 185 184 177 171 171 170 168 168 161 158 162 156 144 140 132 121 140 164 171 177 175 176 8 11 40 83 107 126 137 151 165 166 167 169 170 169 173 173 177 178 175 171 174 176 167 164 159 149 136 127 139 157 166 175 178 180 183 186 185 183 177 169 166 168 173 173 172 177 183 188 189 194 199 204 201 203 202 200 200 197 196 200 199 192 194 194 195 194 194 193 193 191 185 181 176 169 169 170 169 165 163 158 160 155 142 132 135 133 152 172 173 157 153 182 7 8 36 86 104 124 133 146 164 166 168 172 176 170 170 173 178 180 175 171 175 175 169 165 158 147 132 128 146 160 172 180 186 185 183 187 188 186 184 173 166 163 167 169 171 171 180 187 192 195 204 206 204 203 202 199 196 202 200 200 199 197 198 197 195 195 195 194 192 191 188 180 177 175 169 169 167 160 159 158 161 157 136 136 148 150 177 177 137 137 172 193 9 5 28 80 97 119 128 143 159 164 167 169 174 177 177 173 175 175 175 175 176 176 174 166 155 144 132 132 149 163 177 182 184 182 185 188 189 187 186 178 166 166 167 167 168 165 173 185 190 200 205 208 205 202 202 200 199 204 204 204 204 203 200 200 199 195 194 194 193 189 186 179 176 175 170 168 167 163 157 158 162 158 149 146 156 166 182 180 153 170 198 208 8 5 18 64 89 118 128 140 149 157 164 168 173 176 174 170 173 175 176 175 175 178 174 165 157 144 131 135 150 169 178 185 186 192 196 190 187 187 181 174 165 169 170 171 171 168 165 179 189 203 208 207 204 206 202 203 205 205 210 211 210 208 203 200 197 192 191 192 189 186 184 179 175 173 170 169 169 163 158 160 162 156 150 144 158 175 176 178 188 197 203 202 8 7 13 49 78 110 125 139 150 157 162 168 174 177 175 173 175 178 178 177 171 172 172 168 150 138 131 141 157 172 181 188 195 206 222 201 181 178 174 169 170 173 173 174 177 170 165 171 185 191 209 214 203 205 206 207 207 205 211 211 213 208 206 206 196 195 191 191 187 183 187 181 176 171 169 169 166 158 156 159 162 153 146 139 157 174 171 176 186 196 201 198 7 7 12 37 61 106 120 137 150 161 162 168 174 175 175 180 180 178 180 177 173 172 169 162 135 130 124 127 146 165 173 173 180 197 204 188 174 165 163 165 167 170 172 173 178 173 168 163 175 185 201 209 199 200 202 201 204 210 212 214 215 207 204 200 200 194 192 185 184 183 181 181 176 168 172 172 165 157 156 161 155 149 151 146 159 172 168 178 187 197 198 198 8 6 14 31 44 95 115 123 144 156 162 167 172 173 175 180 180 178 179 173 169 174 171 152 125 126 119 113 120 142 158 162 163 175 177 166 163 158 157 155 157 164 167 167 174 177 170 158 169 185 193 204 203 194 194 199 206 210 212 211 209 208 199 196 197 193 188 184 185 183 179 179 177 171 170 170 164 159 158 161 155 148 143 143 160 170 172 183 193 199 199 197 9 7 17 26 24 68 107 119 140 152 159 164 168 174 174 176 177 177 178 172 171 175 172 146 122 124 117 111 111 123 137 143 154 159 159 155 156 149 137 132 133 149 164 168 171 173 166 154 167 186 189 198 201 192 191 197 200 207 207 209 209 205 196 194 189 189 187 183 183 181 181 179 174 169 169 168 164 160 159 161 158 154 145 148 162 172 182 190 192 197 199 199 7 8 15 18 14 61 98 113 136 151 157 160 165 170 170 175 179 179 176 176 173 174 171 142 118 129 119 104 98 96 118 128 138 145 143 146 132 103 90 75 74 106 130 151 164 165 159 150 174 190 191 189 195 190 185 191 197 203 207 206 204 199 197 191 188 185 182 179 180 177 178 177 169 165 170 167 163 157 160 160 157 151 149 152 159 174 189 189 191 196 198 197 7 8 14 19 20 62 91 108 131 145 153 159 166 169 173 174 179 180 176 176 176 171 169 149 115 128 128 132 151 124 85 99 119 126 132 134 108 93 120 108 110 157 141 126 144 150 146 165 188 189 189 187 189 190 180 183 186 196 206 202 199 194 193 186 184 184 180 179 179 178 173 171 168 163 165 166 164 159 160 160 156 148 145 153 159 177 196 192 193 196 197 193 9 8 13 15 12 51 87 97 122 142 150 154 165 170 172 172 176 178 177 176 172 170 164 157 124 121 148 152 160 176 131 93 102 113 120 123 129 132 143 156 167 170 154 135 131 137 154 180 186 184 185 186 190 193 184 175 178 184 197 201 198 196 191 184 180 177 178 180 177 173 171 168 166 166 164 167 161 161 161 162 159 155 141 150 160 178 197 194 189 192 190 184 9 8 13 16 12 35 82 92 116 135 141 156 164 168 171 172 169 172 178 175 173 167 162 158 148 124 132 144 144 145 152 146 129 115 113 124 137 144 151 162 166 158 157 159 160 166 177 185 184 185 186 188 189 193 190 176 171 177 187 196 204 196 190 186 182 176 175 173 174 173 169 169 166 166 164 165 163 162 161 159 158 154 145 143 161 173 189 185 181 183 179 166 7 9 14 16 13 18 65 92 109 128 138 154 163 166 173 170 168 171 176 175 172 163 159 158 160 152 134 124 128 134 149 159 153 146 134 136 148 160 168 173 175 168 169 178 178 180 185 184 183 185 185 183 186 189 190 184 176 164 169 188 191 188 180 183 182 184 177 174 173 171 170 167 162 163 162 161 164 163 165 159 157 154 149 142 161 169 163 151 145 138 118 106 8 9 14 16 15 12 47 89 99 121 144 150 162 163 169 163 167 171 170 174 167 160 159 160 160 157 155 146 141 143 145 155 164 170 166 157 163 175 179 187 183 178 180 179 181 181 182 180 180 183 185 182 183 188 190 189 189 176 158 157 160 160 165 180 185 182 177 174 170 165 165 165 163 163 162 163 162 163 165 160 150 154 150 145 160 162 130 96 93 105 92 88 8 11 15 16 16 13 36 86 93 116 140 146 155 160 167 167 169 169 171 166 162 159 159 161 161 158 158 158 153 149 155 161 167 177 190 183 180 186 188 186 182 178 176 177 176 176 177 177 180 182 180 184 185 187 188 186 187 188 180 158 137 136 155 178 179 178 177 170 165 160 162 162 162 163 161 162 161 162 163 163 151 144 141 145 160 158 146 115 89 114 105 100 8 11 16 15 15 11 28 84 89 106 134 147 153 159 166 166 167 166 164 159 159 159 159 159 160 157 157 158 155 152 161 165 164 172 187 189 191 186 192 190 187 186 176 178 174 174 179 173 172 177 175 176 184 178 177 178 178 180 174 178 168 149 147 160 158 172 174 169 164 157 159 160 159 159 163 165 159 159 165 164 154 143 141 147 156 155 152 129 85 104 103 142 8 11 15 15 15 14 20 77 94 92 125 143 146 158 165 165 163 164 157 156 158 157 158 159 157 152 158 157 152 155 160 165 169 169 181 179 190 186 188 186 183 183 178 176 165 167 171 166 168 176 178 167 174 170 168 167 167 174 165 171 170 143 135 146 162 171 176 167 162 155 162 163 162 161 165 162 162 163 168 161 151 143 140 145 152 156 154 140 90 110 164 211 7 11 17 15 15 15 17 66 95 84 113 137 142 156 163 165 161 161 155 155 154 154 154 159 158 150 154 156 147 153 158 169 173 175 184 179 188 185 177 179 184 182 178 176 170 173 174 170 170 173 172 173 169 169 169 168 165 166 163 169 173 159 151 145 154 166 168 164 163 157 163 166 166 162 166 161 162 168 166 152 148 144 142 146 151 153 157 144 113 130 186 220 8 13 17 15 14 14 12 55 93 83 98 128 142 150 157 161 155 154 154 152 147 155 155 154 153 148 153 153 151 153 160 170 177 184 188 184 188 185 182 180 185 186 178 173 175 176 171 173 172 174 169 170 168 170 169 164 161 162 160 162 168 172 170 160 148 159 169 169 162 158 161 166 168 165 166 160 162 167 164 155 150 142 148 149 152 152 157 146 127 161 200 218 9 13 15 15 15 15 11 48 89 86 84 114 138 148 150 152 144 145 160 152 146 152 155 155 149 146 155 150 154 155 158 169 173 181 188 182 189 190 182 180 183 186 187 179 175 176 175 177 178 177 175 172 172 175 166 160 156 154 153 153 163 172 170 164 155 160 170 170 162 156 161 168 168 167 166 160 161 164 163 158 150 144 143 147 153 153 158 146 136 187 209 217 9 12 15 15 15 15 12 32 86 97 79 99 128 143 144 142 137 143 149 142 150 157 156 158 154 151 148 147 154 159 159 173 173 178 189 185 190 184 185 186 186 188 182 170 170 169 166 168 164 160 158 161 162 165 157 158 165 155 148 146 155 165 168 167 160 164 171 167 160 158 162 170 168 168 166 162 160 166 166 158 145 141 133 145 151 157 159 148 138 189 211 216 8 13 16 13 14 14 13 28 79 98 85 87 119 138 140 136 136 137 153 149 147 150 153 150 152 153 153 147 153 161 165 169 172 177 183 182 183 183 183 180 172 161 153 147 150 149 144 144 139 139 130 129 128 126 135 148 150 143 141 142 146 161 170 171 162 165 173 165 159 156 164 173 173 169 164 162 163 164 163 153 146 141 135 145 145 157 159 155 163 187 207 212 9 14 15 14 15 13 14 16 66 102 96 79 107 129 132 133 133 135 154 152 148 143 144 141 140 146 147 150 152 150 155 151 152 156 156 159 160 159 151 141 140 137 138 140 142 146 138 132 133 137 130 126 118 114 119 108 93 100 122 148 149 160 170 176 165 168 176 166 161 159 169 175 175 168 163 162 163 161 163 154 147 136 138 144 145 159 156 156 183 198 207 212 10 14 15 16 14 14 15 14 56 102 103 83 93 119 123 133 135 140 147 150 141 138 133 134 131 131 125 126 132 134 136 133 134 132 129 124 128 134 131 131 135 134 144 143 139 138 127 123 124 123 122 121 111 102 95 96 113 138 159 171 166 162 174 176 169 171 174 164 159 161 173 179 174 169 164 160 161 163 155 150 150 143 143 142 150 160 156 163 198 207 211 216 10 14 15 14 14 15 14 12 45 93 105 94 84 104 118 131 129 138 151 156 140 132 125 116 112 109 113 113 121 129 132 133 138 130 124 115 116 124 122 124 126 128 129 125 124 120 115 111 107 103 104 102 96 100 107 129 157 175 180 182 176 168 180 181 173 172 173 166 156 165 172 178 176 169 164 159 156 159 154 153 151 147 146 140 153 162 156 168 207 211 212 215 11 14 15 15 15 15 14 13 30 87 107 104 90 92 109 123 131 139 154 154 144 127 105 83 87 98 103 105 102 107 117 121 118 108 106 103 103 102 102 110 120 120 118 117 116 115 121 121 119 121 122 123 125 140 152 161 174 180 178 181 182 176 182 182 168 170 171 163 159 177 181 175 174 168 161 161 160 160 158 155 148 147 137 137 148 164 157 171 212 213 213 215 13 14 14 15 14 15 15 12 19 77 117 113 104 90 99 116 131 146 155 152 145 127 101 80 72 82 85 83 80 81 90 105 107 112 113 119 125 121 120 128 132 131 133 133 130 128 136 139 135 131 132 134 142 152 169 173 179 180 176 176 183 181 182 180 166 168 171 161 159 181 183 179 170 160 159 158 160 162 159 148 141 138 127 133 156 165 156 172 214 215 214 214 12 14 15 14 13 14 14 13 13 66 111 115 110 96 91 111 127 142 154 160 159 158 145 125 100 81 76 83 91 100 101 111 122 130 133 133 137 138 141 144 144 145 148 149 147 141 142 137 133 140 144 156 166 170 175 177 178 179 180 178 182 184 180 173 169 172 167 155 163 183 183 176 169 160 158 155 158 162 154 141 136 138 133 135 162 164 156 173 216 215 216 215 12 15 14 13 14 15 14 14 14 60 102 112 108 104 89 100 123 141 156 166 169 172 161 144 129 108 95 93 95 99 106 118 123 132 131 140 141 151 153 154 156 155 157 153 151 148 151 154 158 170 172 173 171 173 177 177 175 178 180 178 181 186 179 174 169 170 162 163 179 182 179 172 166 162 159 160 161 158 147 148 141 143 133 139 166 164 157 175 215 215 215 214 13 15 14 13 14 14 14 14 12 46 95 117 112 110 95 93 121 145 160 162 165 164 156 147 139 124 113 110 105 104 104 117 121 127 128 138 142 147 148 149 157 163 163 166 169 172 174 177 174 176 177 178 176 173 177 175 171 173 181 180 182 183 178 169 170 169 162 174 180 179 175 172 165 162 160 160 157 152 149 143 140 131 129 147 166 163 155 180 217 215 214 215 13 14 13 16 13 13 13 14 12 31 78 109 115 121 109 91 114 137 158 166 160 157 150 147 143 139 131 127 125 129 128 130 135 138 142 144 148 154 162 169 175 177 177 182 180 181 180 178 178 174 175 176 173 175 174 172 175 176 181 181 184 181 174 166 170 166 162 175 182 177 172 171 161 160 160 156 155 155 139 133 138 134 135 153 164 163 155 178 218 216 216 216 14 14 14 15 14 14 14 14 15 13 51 98 108 119 117 96 103 130 153 165 159 150 147 148 143 142 144 143 145 149 151 154 155 157 161 163 166 171 173 177 179 179 178 178 181 178 181 180 179 176 171 172 168 167 173 175 176 177 180 180 181 176 173 175 174 168 167 176 181 173 171 167 160 159 158 155 156 150 138 135 133 135 138 163 163 164 155 179 220 215 216 216 14 15 14 14 14 15 14 13 15 14 25 86 109 113 116 106 93 123 146 159 155 151 148 149 143 140 145 148 149 151 154 158 157 159 165 167 172 172 173 176 179 178 178 177 178 176 181 181 179 176 170 169 168 169 173 177 177 174 178 181 179 173 174 172 171 167 168 175 175 172 171 163 161 158 158 154 153 141 145 143 137 124 144 166 164 164 155 180 220 217 217 216 14 14 14 14 14 13 15 14 15 15 14 55 103 112 116 111 95 107 134 148 152 149 148 146 142 140 141 147 147 151 152 158 162 162 167 168 171 174 174 173 176 180 179 176 177 181 182 181 177 173 169 169 170 171 174 177 177 175 181 179 174 174 176 175 172 168 170 174 171 170 170 155 154 155 154 154 148 140 143 139 133 128 159 165 164 162 153 180 221 217 217 216 14 14 14 14 14 13 14 14 14 15 12 30 83 110 115 115 102 97 126 136 142 144 145 141 142 140 141 144 147 152 157 158 161 165 168 165 167 175 170 171 175 178 179 178 179 180 178 177 174 173 174 172 171 171 172 173 176 175 178 177 173 178 178 174 171 167 170 174 169 167 165 157 141 152 155 154 146 140 136 128 116 144 166 163 163 160 152 180 220 217 218 218 13 14 14 15 13 14 14 14 14 15 14 15 58 100 106 115 107 93 110 128 133 141 140 139 143 144 142 144 147 151 154 158 160 164 168 170 170 174 169 170 175 169 166 178 178 177 177 173 171 169 170 172 173 175 177 175 175 175 173 176 179 181 176 172 167 164 169 169 165 165 162 156 145 148 150 147 140 134 125 119 129 159 164 162 163 157 151 181 220 218 218 219 15 14 13 13 14 12 14 14 14 15 16 12 30 87 102 116 112 97 103 117 132 139 140 141 142 140 142 143 146 151 156 158 163 166 167 167 170 172 168 173 176 168 164 171 175 179 177 177 174 174 173 176 175 176 178 177 173 175 177 178 180 181 178 170 165 164 166 164 159 161 161 152 143 148 139 137 135 125 120 127 148 162 160 164 161 157 150 180 221 217 217 217 16 14 14 14 14 14 14 15 14 15 15 14 12 52 95 108 110 101 99 111 121 138 141 140 139 137 141 146 146 150 156 159 162 166 164 168 170 171 170 172 177 171 176 173 178 178 178 176 177 181 177 173 178 179 179 174 171 172 174 178 177 179 173 166 161 159 165 166 158 158 156 150 145 145 130 131 127 118 125 143 161 166 162 164 160 157 151 177 220 217 217 218 16 14 14 13 12 13 14 14 15 15 14 14 13 21 69 99 104 101 95 106 119 129 135 135 137 139 144 146 148 145 152 157 163 165 167 167 167 168 169 170 169 170 169 171 179 179 180 165 175 183 178 176 178 182 180 174 173 174 177 179 175 173 167 161 162 159 162 164 160 155 148 145 142 134 129 127 120 128 143 156 165 167 165 164 159 156 153 162 209 218 217 218 17 13 13 14 14 12 13 14 14 15 16 15 15 13 34 83 102 103 91 102 119 127 129 134 137 136 145 148 149 151 156 154 160 166 174 170 167 168 162 155 168 176 178 182 184 182 178 179 182 181 180 180 178 179 180 177 174 169 174 177 171 174 171 164 166 161 157 159 159 147 145 136 133 129 126 118 126 147 158 167 165 168 168 163 156 153 153 153 192 213 217 218 20 15 14 13 14 14 13 14 15 15 15 15 14 14 16 50 88 101 100 98 112 124 132 136 137 139 142 147 150 154 154 157 158 166 173 172 172 174 174 170 184 186 186 183 182 177 174 181 182 179 183 182 179 178 177 175 174 174 172 170 171 171 168 166 160 159 157 152 150 146 141 128 124 122 121 131 148 159 167 170 170 168 167 163 159 154 154 151 175 208 215 219 23 14 14 14 14 13 12 14 14 15 15 15 16 15 15 21 62 89 95 93 102 120 132 132 138 143 138 145 151 152 155 160 160 162 165 170 171 176 176 185 191 188 186 180 181 180 179 177 176 179 181 182 178 178 177 173 176 167 161 172 169 167 165 158 151 155 148 145 143 142 129 118 114 121 136 154 162 165 170 170 171 167 165 163 158 155 153 148 165 212 210 217 24 16 14 13 14 12 14 15 14 14 14 15 15 17 15 14 31 70 86 87 94 111 130 131 139 143 148 156 154 159 162 165 162 161 161 167 172 177 179 185 187 187 187 183 182 181 180 178 177 178 178 178 180 177 174 174 174 165 168 171 163 156 159 157 149 145 143 140 141 136 125 120 118 138 153 164 168 169 172 172 171 167 165 161 156 154 153 148 162 210 217 201 26 18 14 13 13 12 13 14 13 14 15 15 15 16 14 13 15 47 76 84 94 107 123 129 135 142 154 156 157 162 167 166 164 161 164 171 175 178 181 180 182 187 187 184 182 182 181 181 179 180 178 176 176 176 174 175 165 158 169 169 157 148 161 151 144 144 139 134 132 119 114 113 135 159 165 168 169 171 176 173 169 167 162 159 157 154 154 150 161 214 222 202 26 18 14 14 12 13 12 14 14 15 14 14 15 15 15 15 13 21 47 71 85 96 120 142 134 144 153 155 151 162 167 159 160 163 167 177 179 183 178 180 185 184 188 187 186 186 184 182 182 179 174 172 169 173 171 168 161 161 165 163 152 144 160 158 141 144 133 129 122 111 115 143 162 167 174 174 172 171 174 172 169 167 164 162 158 157 154 151 171 217 220 217 24 19 16 14 13 13 15 14 15 15 13 13 16 15 15 15 15 9 30 56 73 88 103 122 131 135 150 149 152 157 158 158 161 165 173 180 180 185 181 182 182 185 186 186 189 185 187 186 180 177 175 168 164 162 161 156 158 162 153 154 146 140 145 142 135 135 125 115 111 128 157 166 168 172 177 175 174 174 172 172 172 167 165 162 157 155 154 151 174 223 223 218 24 19 17 16 14 12 13 13 16 16 13 13 15 15 15 15 15 12 14 29 57 85 96 105 117 129 143 147 157 150 155 164 166 165 173 179 180 185 179 180 178 172 180 182 186 186 184 181 176 171 170 164 160 159 150 143 154 155 141 144 143 127 128 131 121 124 111 114 136 163 166 169 172 174 174 174 175 176 173 171 171 167 164 162 155 154 154 152 184 226 224 219 23 20 18 17 14 12 15 15 13 14 15 13 14 14 14 14 16 13 12 10 40 73 87 109 124 123 130 146 152 150 149 161 167 170 172 176 181 184 182 180 174 170 176 179 175 176 174 166 167 166 156 158 157 151 149 144 142 141 146 135 129 128 127 127 109 113 127 151 161 164 172 176 171 169 177 178 180 177 171 172 168 166 165 161 157 153 154 161 209 229 222 221 23 20 20 18 15 13 13 14 13 15 15 14 14 13 15 13 15 12 15 13 35 83 79 102 122 109 131 154 146 141 145 150 160 168 166 168 171 177 179 179 171 169 168 169 169 169 167 160 161 159 152 153 155 137 144 145 147 143 131 129 119 117 124 112 121 142 156 167 165 171 174 175 174 174 181 182 182 177 175 172 170 168 165 160 157 156 156 173 223 227 223 221 23 20 21 18 16 15 14 13 15 14 14 14 13 14 14 15 15 13 14 14 41 96 99 85 101 120 123 141 139 132 139 147 156 159 163 165 168 171 173 172 170 164 165 163 164 164 159 156 153 154 152 146 146 136 134 143 141 137 109 118 126 111 124 138 153 162 166 169 172 177 176 174 176 181 182 180 181 175 174 172 169 165 167 160 158 157 159 196 232 227 226 223 22 20 20 19 18 16 15 14 13 14 15 13 14 15 14 15 14 12 12 14 49 101 113 100 93 100 117 128 123 124 129 144 144 148 162 158 164 168 167 168 165 159 159 159 158 158 151 149 148 148 145 133 138 128 123 124 124 123 109 113 113 123 149 157 161 166 173 176 177 178 177 178 178 180 176 179 178 174 175 171 170 167 165 161 158 159 167 221 232 226 224 222 21 20 20 19 20 18 16 13 13 13 13 14 15 14 14 15 14 13 13 15 53 102 113 115 85 78 96 111 118 119 121 134 138 141 153 150 150 153 159 164 157 155 154 157 152 147 148 145 133 135 125 125 130 122 126 124 113 120 104 105 121 148 162 163 167 173 174 173 177 179 183 185 186 179 176 180 177 176 177 172 170 168 166 162 159 157 192 235 230 226 224 225 21 20 20 17 19 19 17 15 14 14 13 14 15 15 14 14 13 14 12 16 59 104 112 119 90 60 84 103 115 113 112 122 131 139 146 146 147 145 151 151 144 144 155 155 147 136 141 131 129 127 120 127 117 113 113 117 104 103 108 136 156 160 161 169 176 176 174 175 179 182 182 188 182 179 179 177 176 177 175 169 170 168 167 162 159 167 223 236 229 226 226 223 19 20 20 19 19 20 19 18 15 14 13 13 14 14 14 15 13 12 12 20 65 104 113 121 103 55 54 80 92 92 104 123 131 127 135 136 132 142 141 132 135 134 141 149 138 126 121 127 128 120 118 126 104 94 91 104 120 141 154 165 167 167 168 173 173 175 178 180 180 176 182 183 176 180 180 178 174 172 173 169 170 169 165 165 164 201 234 230 227 226 226 224 20 20 20 20 20 21 19 19 16 15 13 14 14 13 14 15 12 12 13 23 71 106 113 120 114 67 52 56 62 74 85 109 121 111 109 127 129 136 119 117 128 118 117 121 108 96 102 115 100 89 95 96 104 118 136 155 165 167 166 165 168 170 173 175 175 177 180 183 183 181 184 181 178 180 182 178 171 172 172 174 174 170 168 167 181 227 233 231 227 227 227 224 18 20 20 20 20 20 20 20 19 17 15 14 15 13 14 14 12 12 12 25 77 107 113 117 120 86 63 62 58 53 55 65 73 85 85 92 103 106 87 89 80 86 79 77 78 79 85 93 96 106 127 134 153 168 175 169 168 169 170 171 169 171 174 180 182 178 180 184 183 183 183 181 180 183 182 180 176 175 177 175 173 170 170 175 214 236 233 227 226 226 227 223 20 20 19 17 19 20 20 20 21 18 16 14 13 13 13 15 11 12 13 30 84 109 112 117 120 102 89 91 92 75 66 57 54 57 59 56 65 68 74 78 79 102 108 116 125 138 145 155 158 160 165 165 166 167 171 169 168 170 170 168 170 171 173 179 183 181 183 185 185 184 181 180 181 185 182 180 180 177 174 173 174 172 166 203 237 235 229 226 227 227 226 224 19 20 20 19 20 20 19 21 21 19 18 16 14 13 13 14 11 12 12 35 91 113 114 118 121 108 94 109 117 120 118 116 111 104 95 88 95 104 118 133 139 150 155 157 166 171 172 169 166 165 166 168 168 170 170 169 170 175 172 166 171 173 174 179 181 183 184 181 182 183 181 182 185 184 181 179 180 175 164 175 174 171 196 234 237 231 227 228 228 227 226 222
