P2
# Generated by OpenCV 4.2.0
92 112
255
102 126 120 107 82 116 123 89 92 101 91 113 106 78 89 72 77 108 59 81 123 100 131 152 145 158 181 211 194 203 208 206 210 205 210 202 208 207 209 214 213 209 213 207 208 206 198 200 199 202 199 196 193 196 189 190 185 180 178 176 170 160 149 151 146 141 140 136 129 119 118 117 109 99 96 88 91 114 92 116 151 176 196 187 170 170 173 174 195 210 219 226 146 137 90 126 69 114 122 99 94 109 91 107 93 80 83 77 89 84 79 102 124 89 136 147 162 167 201 201 209 209 206 200 206 210 211 215 212 209 210 213 206 209 207 207 204 200 199 201 202 197 196 199 196 196 196 190 189 187 183 178 182 172 162 161 160 152 151 148 145 137 129 126 118 112 105 110 101 91 111 91 94 115 145 179 168 168 171 175 172 189 172 176 144 124 106 122 88 128 106 110 100 107 95 95 114 81 87 78 68 94 96 88 112 99 125 157 160 184 207 196 204 202 194 211 208 211 205 210 204 208 212 213 213 213 209 203 201 197 203 202 201 200 199 197 194 194 197 191 190 187 187 183 184 180 175 167 167 167 162 153 155 152 146 134 127 119 117 117 122 110 95 115 118 124 124 116 166 165 181 172 157 156 179 175 136 110 108 114 132 143 113 110 107 113 88 96 107 81 73 94 103 82 79 88 106 101 136 163 173 205 200 202 209 204 208 211 210 210 209 210 208 208 209 212 208 206 205 202 196 207 204 200 199 200 196 199 198 196 196 195 194 189 193 191 190 186 180 171 169 168 170 169 161 157 151 149 135 124 121 119 118 120 111 94 105 107 117 139 126 139 142 143 143 150 156 171 135 120 104 114 142 127 121 95 112 86 85 99 87 85 90 82 78 80 83 98 103 109 153 155 193 199 203 206 200 208 205 209 203 202 203 207 203 206 209 204 200 203 197 196 204 202 199 199 202 199 198 197 196 199 192 198 189 185 190 188 192 188 189 182 171 165 168 175 171 171 155 151 145 142 124 123 123 125 124 108 90 84 92 103 142 156 153 145 147 152 129 141 142 130 123 120 145 125 109 98 108 81 122 82 98 85 90 84 84 83 82 100 100 113 147 174 199 191 205 204 211 208 210 204 206 204 208 208 207 206 201 198 199 199 193 189 203 204 200 198 196 199 197 196 193 194 197 197 185 184 188 184 194 187 187 188 179 171 170 170 173 177 168 163 156 151 143 133 124 133 129 133 112 83 116 77 89 118 152 159 164 170 176 164 139 103 132 141 122 118 112 87 91 135 83 82 90 84 85 74 82 85 81 106 96 125 166 171 191 194 196 205 206 205 200 204 204 201 204 195 195 200 195 200 199 194 199 199 206 201 202 199 200 196 199 195 195 195 191 184 176 182 184 188 192 189 186 187 187 181 177 172 174 174 175 178 170 152 145 141 131 126 134 134 141 110 107 108 84 98 117 115 125 135 163 149 111 99 128 137 153 107 107 91 113 115 54 88 92 86 80 87 85 88 89 110 107 142 165 182 192 199 204 208 205 199 203 203 192 202 201 205 204 199 196 195 198 196 194 203 200 198 201 197 199 199 192 197 196 196 191 188 184 181 175 182 181 170 178 186 180 181 174 172 170 171 179 181 175 163 156 142 141 134 128 133 139 143 78 141 93 100 104 109 109 118 144 153 95 112 119 138 140 111 79 79 114 85 88 83 81 82 94 75 73 90 101 106 136 168 175 190 201 200 209 207 205 205 203 198 200 199 207 200 192 192 196 192 196 195 194 195 195 197 195 198 196 198 199 193 195 191 184 179 186 184 187 192 187 190 192 192 192 188 177 174 175 178 171 178 179 176 167 154 146 138 130 130 149 141 131 119 147 92 87 98 148 133 128 134 79 113 84 133 104 107 75 92 96 73 65 89 85 79 87 81 78 96 115 133 157 179 184 191 192 199 205 204 204 200 199 203 196 201 193 193 192 200 193 199 200 195 197 199 199 199 193 195 195 194 191 196 193 196 194 188 191 188 190 191 189 195 197 195 193 184 183 181 183 180 177 178 175 178 174 163 154 153 142 130 129 143 145 127 136 143 86 99 129 130 113 153 74 111 95 139 106 100 80 65 84 54 59 81 70 93 99 88 99 119 137 154 181 185 186 186 192 189 195 200 197 202 202 191 193 189 186 192 197 190 193 196 195 192 196 200 196 195 196 196 200 197 196 197 192 191 192 187 191 189 193 188 195 198 195 192 188 185 191 192 186 182 180 176 181 180 176 170 164 159 158 148 141 141 160 164 122 143 134 89 97 127 148 157 84 101 99 113 103 60 48 75 53 58 75 67 74 80 80 80 109 129 164 176 188 185 194 190 195 189 186 194 203 199 195 194 194 193 192 196 207 203 205 200 199 197 195 192 203 201 201 198 196 199 197 194 193 198 200 195 195 192 198 191 191 193 195 197 197 195 197 195 192 189 192 189 182 183 182 172 172 163 169 163 154 148 144 160 181 162 110 117 104 78 103 156 80 91 125 90 70 60 39 69 53 55 67 73 79 83 77 103 144 159 174 181 186 187 191 188 189 186 198 198 203 196 199 191 189 189 189 192 202 198 204 206 204 202 187 187 200 203 202 205 202 201 204 201 196 197 201 201 197 191 193 193 192 196 195 197 195 195 196 195 188 187 195 188 188 188 188 178 177 174 170 172 172 167 159 155 155 183 182 130 126 108 107 104 90 97 100 90 57 62 54 56 40 45 59 66 80 87 94 136 167 164 181 188 192 190 195 189 187 195 195 204 200 195 194 196 199 201 199 207 199 202 208 209 207 213 213 212 212 212 209 205 201 201 205 201 201 200 202 198 197 196 197 199 200 198 193 195 197 196 196 200 199 199 200 200 199 196 195 192 189 186 180 176 172 174 169 158 145 147 176 171 178 174 109 101 70 92 81 66 68 43 48 47 32 40 68 64 79 96 122 161 174 172 182 182 186 184 189 188 181 188 199 190 196 190 201 200 202 205 205 203 201 209 205 206 209 218 216 218 210 212 212 208 206 209 205 207 207 200 199 200 198 198 198 198 201 203 196 200 195 195 199 205 202 204 208 207 205 205 202 204 199 197 190 188 179 177 173 176 170 147 161 166 169 170 192 122 63 73 59 51 42 46 42 37 39 52 54 77 93 112 135 165 178 171 176 179 183 180 182 184 173 172 181 195 196 193 196 200 205 204 200 202 206 204 210 212 213 212 215 214 214 216 213 211 206 209 209 209 208 202 200 201 198 198 201 198 199 197 200 201 198 200 203 204 207 210 210 207 210 210 207 205 208 205 200 195 189 179 178 177 174 168 165 171 154 186 164 176 61 66 53 46 52 39 31 24 33 52 67 86 93 121 156 170 175 171 175 187 184 183 183 176 172 177 181 185 197 202 204 205 202 205 208 209 209 212 213 211 211 209 209 212 210 212 210 211 209 210 208 206 206 205 205 204 205 200 201 200 201 201 200 204 194 202 205 206 210 210 209 210 214 212 210 211 210 210 208 206 201 193 192 178 183 179 177 180 139 178 173 173 80 50 45 42 30 33 25 33 47 47 61 103 96 134 162 169 179 175 171 184 177 179 180 177 176 173 180 186 193 197 200 207 202 198 202 207 211 215 205 206 204 209 211 212 214 209 207 211 208 208 205 210 208 206 202 202 203 206 202 201 204 201 201 201 197 198 200 207 211 208 206 206 211 214 216 216 210 215 215 212 211 207 205 198 194 184 184 190 139 174 179 160 57 51 46 35 24 19 31 31 36 53 88 90 116 149 169 176 171 179 169 180 179 176 177 171 174 164 167 179 193 199 199 192 191 193 203 215 207 209 207 209 209 209 204 213 210 208 212 209 209 206 204 208 205 203 205 202 201 202 203 201 203 200 199 197 199 199 205 203 206 211 210 210 206 208 209 211 211 211 211 210 214 210 210 205 196 190 183 200 147 152 182 161 62 51 57 65 63 46 32 37 45 66 115 97 139 162 173 175 170 174 166 167 174 176 174 166 171 169 172 165 190 199 186 194 196 205 207 211 214 211 214 209 213 214 204 196 201 204 204 206 207 209 204 200 200 202 203 206 203 201 200 203 206 205 200 201 202 202 204 207 202 210 209 202 198 202 201 207 211 211 211 213 217 219 214 211 200 198 192 199 138 151 167 182 65 45 32 56 37 38 52 52 65 99 103 107 150 165 169 166 169 175 167 164 172 171 172 178 177 180 175 179 200 193 198 211 213 216 219 219 218 215 211 210 207 202 203 205 208 207 205 207 203 203 203 203 201 200 200 199 198 198 202 200 203 197 200 200 199 204 205 203 205 206 203 201 199 204 204 209 210 209 210 215 215 220 220 224 209 206 204 200 164 123 160 161 64 35 65 29 39 34 37 62 63 139 95 125 152 150 158 163 160 159 167 173 172 173 180 162 170 184 193 194 197 201 207 216 213 216 209 201 198 197 183 191 186 185 188 190 192 197 201 202 199 196 199 196 197 198 196 194 200 197 200 199 200 196 201 204 201 201 196 198 199 203 202 203 202 203 206 207 208 212 209 211 216 218 228 228 228 211 210 195 162 105 145 168 78 62 54 46 31 57 65 40 89 133 117 125 151 163 161 160 155 164 169 171 163 167 163 169 182 182 190 198 210 222 222 218 202 194 184 188 173 157 157 152 156 148 144 147 153 151 157 168 178 183 187 190 195 190 191 191 198 197 196 199 198 194 196 203 199 196 197 198 197 194 200 202 200 205 204 201 200 209 208 212 210 214 214 222 232 238 213 187 155 95 130 146 88 83 58 61 56 57 40 64 98 135 122 138 141 162 165 160 154 158 160 158 161 165 175 178 182 196 205 211 204 188 182 176 172 174 168 157 134 132 124 113 120 116 124 112 109 112 115 139 142 159 168 178 175 182 182 184 184 183 187 186 181 189 191 194 193 185 185 188 193 186 195 193 189 191 184 173 176 176 178 177 177 185 193 201 211 223 227 188 149 92 120 115 92 85 85 67 66 40 76 75 102 132 132 145 145 159 165 158 152 153 156 166 172 175 184 186 200 202 192 179 170 159 157 144 126 119 113 116 103 101 90 73 71 92 89 96 94 92 82 96 114 137 147 162 168 167 172 172 176 177 175 184 182 182 188 186 180 183 180 179 180 184 183 181 179 174 158 146 142 133 131 136 149 137 165 158 180 208 222 217 126 95 107 113 97 93 84 54 58 54 67 76 118 136 144 145 160 154 162 166 154 154 158 167 164 178 180 181 187 174 180 172 163 139 133 127 131 118 96 95 92 86 90 85 75 65 71 70 60 75 78 82 92 120 135 131 152 156 160 162 164 173 174 170 176 181 175 170 175 170 177 175 178 171 167 172 167 152 131 119 109 100 103 98 112 108 122 129 156 170 188 220 130 86 87 121 81 88 57 57 52 74 73 87 113 130 152 146 153 163 164 171 165 157 164 166 154 162 162 162 158 154 161 145 146 145 129 116 117 115 107 102 102 103 103 99 92 93 84 77 78 75 79 94 100 112 107 120 127 150 146 155 159 163 161 164 167 168 168 169 169 166 163 167 166 169 161 159 146 133 122 94 85 85 80 91 92 94 103 108 117 124 162 190 210 85 78 120 58 73 73 80 63 65 68 97 113 127 146 148 150 154 163 155 157 154 153 149 145 151 160 164 150 143 135 134 138 138 137 128 121 116 110 102 103 100 97 98 94 98 98 92 90 87 96 101 108 114 103 110 120 126 136 144 149 148 150 153 159 162 160 165 163 164 160 157 155 157 154 143 133 120 97 84 85 89 86 88 88 100 108 117 122 136 151 184 207 83 96 109 37 57 63 87 79 46 85 98 110 125 138 151 148 143 153 146 144 146 144 153 159 155 150 143 143 139 129 133 137 131 122 117 118 110 110 105 95 96 98 103 98 93 99 97 90 93 96 101 105 100 103 107 113 116 121 131 137 136 141 144 153 157 158 160 158 154 147 147 149 145 135 133 125 107 99 103 98 91 98 108 115 121 127 136 139 154 159 178 208 120 78 117 59 82 74 67 29 73 84 113 120 132 131 141 142 132 135 147 149 151 141 148 144 142 140 152 128 142 135 143 129 124 117 114 109 99 103 113 119 120 123 122 119 120 121 111 94 96 94 93 98 97 98 96 100 106 112 116 126 126 132 138 151 156 158 160 157 150 140 133 128 130 123 119 112 105 100 100 102 110 120 133 138 142 139 140 141 151 166 185 169 92 80 131 39 82 128 150 114 91 79 117 127 134 134 126 140 129 131 145 155 155 147 148 149 144 142 138 139 144 138 127 121 109 104 97 104 132 142 147 162 159 151 151 148 142 136 130 119 116 108 92 89 91 96 92 90 96 98 111 116 114 133 140 140 149 158 162 158 145 135 129 123 115 106 103 100 97 103 106 121 136 144 152 154 152 162 167 158 154 156 193 160 54 92 107 49 54 55 82 107 104 120 115 127 141 142 130 136 136 136 143 157 152 153 148 148 147 150 142 136 144 128 114 106 96 93 114 140 151 162 158 142 148 151 160 147 137 139 150 138 137 119 116 107 93 89 92 90 93 94 100 112 119 123 136 154 165 163 162 153 140 130 119 108 98 95 94 94 109 120 128 133 147 150 148 142 160 171 182 173 160 169 188 127 73 64 101 51 52 65 73 41 87 107 105 124 134 132 140 141 133 140 149 154 155 153 149 147 145 142 145 135 123 115 101 90 97 125 154 144 124 97 112 112 109 109 91 82 79 87 109 123 129 127 124 114 103 90 88 90 88 90 99 107 115 129 155 171 179 183 189 167 154 124 111 96 93 97 95 99 112 119 118 113 118 115 120 134 141 150 171 178 185 163 184 48 52 89 95 43 35 67 92 47 47 79 95 107 129 122 141 140 131 142 149 154 157 149 147 147 149 150 148 140 123 110 107 109 126 109 81 132 187 198 197 181 171 173 161 154 153 140 93 58 80 109 108 122 116 104 94 89 83 87 100 102 114 129 153 176 186 196 196 180 158 129 97 99 98 92 101 96 83 72 86 112 130 144 145 140 117 95 90 156 182 168 173 47 62 67 104 45 32 53 83 48 68 66 83 103 128 132 141 141 128 137 148 154 156 155 151 151 151 156 159 147 130 134 128 108 74 103 163 167 147 134 108 117 97 97 109 121 120 112 116 116 78 74 99 116 115 110 90 87 76 87 96 104 118 139 161 186 200 208 211 188 152 103 98 98 93 92 84 59 95 103 116 117 139 143 158 173 186 202 189 103 152 187 147 41 62 54 98 44 30 44 78 52 76 66 92 100 123 135 137 132 140 139 154 163 161 155 160 152 154 159 153 142 126 113 90 71 115 141 118 113 108 44 105 78 47 57 78 73 96 81 74 96 98 81 73 91 103 101 88 81 85 94 105 111 125 147 171 197 206 215 219 200 144 94 92 89 88 79 78 77 73 67 52 41 47 63 94 88 134 125 170 206 101 192 137 37 58 66 81 47 44 35 59 55 71 70 108 107 111 133 122 140 148 140 153 152 161 168 164 159 150 147 127 110 111 116 110 142 127 87 77 74 52 30 61 57 40 69 59 38 130 105 96 62 75 89 76 79 81 86 84 79 76 104 125 124 135 145 179 203 213 216 223 220 159 100 94 80 84 80 58 60 23 46 36 70 60 50 30 101 99 141 120 121 147 174 143 54 58 68 80 49 42 32 41 64 67 85 104 91 117 120 128 144 151 143 150 151 155 160 163 152 145 139 132 122 121 108 110 86 61 44 45 83 75 37 66 40 10 56 66 41 144 143 137 100 74 52 70 79 88 105 111 95 96 113 141 145 146 162 187 203 211 221 221 217 206 112 124 101 90 62 54 67 27 57 21 16 40 64 34 122 134 104 85 149 175 180 122 58 68 65 81 46 36 32 30 58 65 99 89 101 128 127 130 142 150 149 153 158 158 157 160 159 150 141 126 111 108 106 102 116 122 110 93 95 103 31 87 66 86 90 72 65 168 160 158 127 72 55 67 52 65 130 156 147 125 132 158 161 156 160 185 200 209 215 219 221 216 185 169 129 62 30 67 80 35 68 58 44 70 66 38 125 127 156 66 94 135 161 139 79 72 89 59 50 32 31 28 54 72 93 91 108 129 131 134 145 156 154 159 161 165 164 166 155 161 143 137 143 150 150 138 128 137 138 159 163 147 104 49 63 72 76 38 130 165 153 139 134 135 127 130 139 152 159 155 150 142 142 167 168 162 166 180 197 205 216 219 219 212 218 171 141 102 75 75 85 84 79 73 53 71 46 68 141 122 152 156 188 140 176 123 57 71 92 62 56 33 29 29 51 82 98 88 109 129 129 143 141 155 161 165 162 167 168 176 167 155 158 157 146 147 140 142 142 143 132 144 137 139 151 154 143 138 132 142 135 149 140 144 147 141 138 142 147 150 152 164 155 154 164 167 182 172 179 183 193 202 212 221 220 224 216 209 161 149 143 137 115 107 117 143 144 151 126 166 147 148 156 169 176 199 192 142 68 75 94 82 68 70 39 34 58 84 79 80 107 128 132 143 149 152 159 165 168 174 176 173 173 168 164 176 165 168 165 153 154 144 128 120 131 139 131 119 129 126 127 128 134 133 132 138 134 133 136 147 156 161 161 163 164 168 172 175 192 178 176 178 187 192 208 222 224 219 221 231 183 139 144 126 114 115 109 102 103 117 125 140 127 136 133 159 183 215 204 164 53 69 89 66 78 57 47 38 29 79 83 81 115 133 135 146 154 155 165 166 170 175 174 171 180 181 175 180 180 182 173 163 161 152 152 121 112 114 108 112 114 114 119 114 125 133 128 115 129 146 159 164 171 161 170 174 183 186 187 189 189 188 184 189 180 190 198 213 222 224 218 232 228 161 151 151 135 105 106 128 137 121 132 142 133 143 156 161 193 215 210 194 61 87 80 82 76 61 49 42 28 84 86 89 114 134 137 149 159 154 156 164 160 163 173 189 186 184 191 194 188 176 181 175 179 170 156 139 128 109 101 99 99 100 98 104 101 103 130 149 142 147 163 173 177 184 190 187 195 198 191 203 199 194 189 186 181 186 197 215 223 226 223 235 244 193 171 160 157 158 120 80 94 97 106 116 127 127 152 167 196 220 223 210 84 104 91 87 53 49 54 42 49 82 118 94 119 132 137 150 159 151 154 172 174 173 181 186 194 194 194 193 197 205 193 196 191 180 186 172 157 137 126 117 111 109 117 124 142 152 147 155 159 161 165 172 180 194 193 195 198 200 199 207 208 203 194 184 182 184 192 207 221 223 224 228 240 223 181 188 166 165 161 160 141 118 107 105 118 123 139 172 198 212 222 233 128 103 117 72 62 57 50 39 63 93 112 95 116 138 149 154 154 151 157 157 168 177 177 181 193 197 201 200 202 204 201 199 197 196 184 172 163 175 171 168 162 153 151 154 163 164 170 172 163 175 164 180 192 193 196 196 196 200 204 206 204 198 190 185 182 189 197 210 222 224 223 225 231 237 197 188 180 186 163 170 169 166 170 162 155 163 167 181 208 212 219 230 186 92 126 93 52 49 49 43 50 91 114 106 118 141 154 155 153 156 159 165 163 173 179 186 191 195 204 208 206 206 213 206 199 202 194 179 177 178 172 169 181 175 175 183 170 172 173 168 161 166 184 190 192 192 196 198 196 199 205 208 207 191 190 189 189 189 196 208 215 218 224 226 227 232 229 180 190 194 185 174 172 173 173 180 178 169 174 179 190 210 228 231 227 111 122 123 61 59 51 57 53 108 118 106 126 143 154 153 155 161 164 165 168 176 178 175 186 189 198 206 211 199 207 213 207 207 200 196 199 197 198 188 184 181 188 177 172 172 163 153 165 171 190 196 191 186 191 197 199 202 203 204 202 197 196 187 186 191 200 213 213 219 223 225 226 234 235 223 189 197 196 188 174 171 183 183 188 198 198 192 189 217 231 237 245 158 105 141 69 59 59 72 73 109 116 112 116 146 155 158 157 162 157 164 161 165 174 173 178 186 195 205 202 211 210 205 202 205 201 201 203 197 197 190 190 185 181 177 166 172 165 175 186 195 193 194 194 189 191 196 199 195 202 196 191 194 191 187 185 189 197 206 215 224 225 222 226 230 231 238 230 193 198 195 195 187 179 187 190 202 209 220 227 229 234 227 240 190 122 111 67 66 72 97 79 110 100 110 114 143 154 156 155 160 160 165 163 170 166 173 178 187 189 204 204 207 207 204 212 208 208 205 204 206 197 194 188 181 187 185 181 190 186 193 196 195 198 194 190 186 188 190 193 194 195 190 171 179 179 180 180 187 198 211 221 227 223 225 225 227 231 226 248 221 197 206 205 203 203 206 205 208 216 225 224 236 237 239 235 211 140 120 69 72 82 103 88 118 95 105 107 131 154 154 153 157 156 161 161 165 168 172 172 175 177 186 194 190 198 198 207 206 204 212 204 201 199 201 200 203 201 201 199 201 201 197 198 198 198 193 189 194 198 196 195 181 185 188 188 180 181 178 179 188 194 199 223 222 212 219 218 218 224 224 231 245 207 204 211 213 211 214 222 228 230 230 232 233 237 241 234 216 141 116 53 59 95 116 91 115 90 95 101 116 143 149 148 150 150 157 161 163 169 166 160 173 175 177 180 186 190 191 197 200 205 205 208 203 202 204 205 204 203 204 198 202 202 201 198 195 193 193 188 198 198 200 195 191 184 174 174 180 181 183 181 188 201 197 217 215 213 210 202 209 211 215 224 232 233 199 209 213 215 213 214 217 222 243 230 228 232 232 223 223 164 122 50 79 114 126 86 108 98 87 99 116 135 146 140 144 148 153 159 159 167 163 161 164 170 166 168 172 175 188 190 197 196 192 194 194 206 209 210 201 206 206 208 207 206 207 198 196 196 193 193 196 196 197 192 189 185 181 183 186 191 191 189 187 192 197 209 205 196 200 198 196 199 200 198 199 213 209 208 208 208 214 212 206 194 209 237 228 224 225 222 212 170 130 67 114 126 119 95 105 103 78 105 114 132 143 144 147 150 155 157 151 156 159 163 165 163 162 162 166 166 180 178 186 195 202 197 197 200 204 202 206 205 202 209 204 206 206 203 199 199 202 193 189 192 191 195 187 174 182 192 199 195 199 196 193 188 179 181 169 181 176 177 175 177 176 176 175 188 207 212 210 207 209 212 210 211 200 231 232 229 222 218 217 173 143 80 120 120 94 101 102 114 83 102 106 125 139 140 144 148 149 156 151 161 166 161 159 157 158 153 160 158 165 175 170 175 173 190 197 201 205 205 207 211 208 207 205 202 204 198 198 203 198 199 201 201 189 182 173 175 193 197 213 200 201 202 186 163 150 147 143 134 136 148 146 151 157 151 153 156 197 199 207 207 208 213 213 208 212 215 223 233 233 219 212 173 162 76 102 124 102 107 118 112 98 99 107 127 140 143 143 140 145 149 152 153 162 163 156 159 158 154 158 162 167 175 175 184 182 192 202 205 205 209 212 212 211 206 205 204 204 203 204 195 196 199 199 195 184 182 175 180 190 186 198 195 191 175 166 147 125 107 103 107 111 114 119 129 140 145 145 147 186 197 206 202 207 208 210 211 211 213 212 219 233 216 215 159 153 85 100 125 102 107 125 112 107 96 111 131 150 146 143 142 149 146 148 152 153 155 149 154 156 151 151 158 165 164 176 192 195 191 195 200 203 203 200 207 203 203 208 206 203 201 199 198 200 190 190 188 180 188 179 178 185 186 186 168 158 139 123 102 97 99 89 90 89 85 102 114 117 129 149 124 166 197 191 198 202 205 205 206 208 202 208 218 213 213 212 141 110 97 85 120 114 102 127 122 107 103 109 129 143 139 147 144 142 137 142 146 146 149 149 148 151 147 155 154 159 165 174 180 177 186 196 196 207 204 202 206 201 207 207 203 197 195 199 184 192 191 187 187 182 177 170 182 179 174 163 156 128 113 94 78 61 72 79 94 82 85 85 96 105 124 81 100 147 194 183 190 197 196 200 197 197 201 196 195 213 207 212 129 92 106 85 97 116 111 122 121 105 108 116 125 143 140 146 146 137 137 139 146 142 144 151 152 148 152 156 153 150 157 168 183 183 189 194 200 197 203 198 205 200 196 198 201 194 193 195 194 192 188 193 182 184 178 163 174 163 152 138 118 83 17 5 5 11 11 19 57 79 80 78 79 103 43 22 76 121 187 185 186 190 188 192 183 187 187 190 187 198 196 213 145 118 94 85 75 117 111 123 119 112 114 125 136 141 146 144 145 144 141 143 140 143 146 150 149 154 153 151 147 158 165 173 172 177 184 184 188 186 193 199 197 189 192 198 196 194 187 195 186 181 186 181 174 183 174 152 156 148 135 110 89 32 14 10 9 39 37 43 47 82 80 79 87 38 35 41 80 123 201 183 171 181 183 180 182 188 190 184 191 194 189 205 146 122 95 84 82 106 114 124 114 112 109 121 143 141 145 148 147 149 142 147 145 146 144 156 146 147 144 150 146 142 149 160 167 169 178 178 191 187 193 194 191 192 189 192 193 190 187 189 186 183 184 182 179 187 175 151 143 129 114 94 77 58 53 16 24 64 67 69 69 77 78 90 61 34 56 69 85 145 204 184 175 176 180 190 180 179 184 176 179 178 177 196 143 126 121 93 85 95 123 119 118 119 113 129 142 139 140 145 144 150 155 148 146 146 140 138 150 154 145 148 154 157 154 154 155 167 183 186 186 186 188 188 192 187 189 181 182 189 186 186 183 182 183 191 187 191 184 166 119 115 103 96 79 78 88 85 92 99 76 75 74 79 87 87 104 87 79 78 127 203 194 187 173 174 185 192 192 176 169 178 177 180 179 195 129 119 160 134 97 88 124 126 121 121 115 125 139 137 148 145 146 153 154 151 149 142 140 142 146 148 143 149 155 155 151 150 160 167 174 184 183 185 183 188 183 190 187 188 184 184 184 176 179 185 187 193 193 190 188 182 147 106 95 81 78 88 102 110 108 95 87 87 85 91 111 116 120 127 82 190 202 197 194 189 178 165 164 165 183 177 175 175 166 171 176 196 152 121 156 166 166 148 128 125 128 122 105 114 146 148 150 146 152 149 149 154 154 149 149 147 150 147 150 150 144 149 157 160 164 169 169 166 166 178 178 171 186 187 192 183 184 176 173 178 185 188 200 198 195 193 192 184 178 165 133 119 116 113 109 100 105 110 117 110 107 113 131 153 148 155 191 203 203 204 198 194 187 163 150 154 161 184 179 169 170 171 175 187 144 133 157 150 154 129 106 119 132 116 108 122 137 149 151 138 148 159 154 155 145 153 154 157 151 151 148 150 143 148 158 162 165 167 174 171 170 173 183 188 183 182 174 179 185 180 177 176 181 193 201 198 200 192 192 193 189 186 176 169 155 135 135 134 136 135 133 147 139 134 149 159 170 180 204 199 217 210 207 201 199 181 150 147 160 171 186 185 173 165 177 189 157 159 158 149 137 130 121 112 124 121 122 120 130 149 153 141 140 159 166 159 159 150 153 150 149 151 155 154 159 163 162 166 165 164 161 168 172 178 175 178 184 188 171 182 184 183 176 175 191 200 199 195 196 199 198 194 193 195 188 183 177 167 154 156 130 149 150 167 156 153 163 156 173 188 186 208 218 203 208 207 195 187 174 139 129 150 162 193 187 172 167 188 187 177 164 154 155 157 152 138 126 126 129 126 134 138 149 153 129 159 163 154 159 157 154 146 150 149 151 157 158 160 161 162 161 161 158 175 170 164 180 185 182 176 183 178 170 172 179 199 207 205 198 196 201 197 194 195 185 189 191 189 175 168 160 159 161 165 158 153 141 153 143 169 178 188 191 197 210 208 211 208 204 191 185 164 123 116 122 147 183 176 175 194 185 183 177 173 177 177 172 166 134 127 137 129 132 141 136 144 148 156 156 155 159 163 152 144 154 159 158 156 155 156 162 162 162 161 156 168 169 173 180 181 180 180 175 169 163 191 197 201 199 204 200 201 197 194 197 193 188 186 189 189 186 171 173 166 162 164 169 163 165 164 157 163 175 195 203 203 201 192 194 201 199 190 184 183 153 116 132 141 184 187 171 196 184 185 181 175 181 186 177 171 147 135 134 134 125 142 143 144 154 156 157 147 160 161 158 149 153 152 153 156 152 153 155 156 161 163 168 162 174 175 175 184 179 169 166 163 185 195 195 200 192 190 183 182 192 191 185 193 203 195 186 179 176 172 174 173 167 179 179 166 168 167 171 173 171 179 186 191 188 195 201 199 198 179 176 179 182 149 112 137 153 179 175 199 185 183 180 180 185 182 176 177 161 135 134 142 128 142 140 143 149 151 153 154 154 154 156 154 152 153 156 142 146 150 154 157 155 160 162 162 168 169 187 170 154 169 150 190 203 184 185 191 188 183 176 177 184 186 186 181 182 185 189 175 180 174 178 181 175 173 172 176 176 173 178 174 178 186 180 196 203 212 201 201 198 188 171 162 178 179 127 113 117 170 179 195 186 182 162 174 180 183 176 177 166 138 135 139 132 137 147 147 154 145 155 156 150 161 156 158 158 151 145 143 153 150 156 152 149 154 155 159 162 169 163 168 162 136 182 191 172 175 183 185 171 164 172 176 170 177 178 182 178 169 176 171 184 187 177 179 171 169 175 174 167 180 178 176 184 187 191 186 195 211 206 205 203 186 179 152 157 183 138 109 128 168 190 197 183 183 134 148 158 162 164 162 160 140 135 144 137 134 134 148 151 146 160 160 157 156 164 157 153 148 144 145 147 149 153 151 149 155 153 155 159 161 164 146 146 178 188 179 167 179 166 161 154 148 167 155 148 169 163 176 176 174 171 168 178 175 170 176 173 184 181 184 182 190 185 188 188 189 171 172 189 189 210 198 201 195 169 146 155 161 161 133 133 158 197 190 184 182 82 107 122 127 135 137 140 132 136 128 132 136 139 150 151 155 156 158 163 158 157 151 149 145 148 146 143 150 147 149 150 147 155 158 153 153 147 144 137 178 168 169 170 167 157 156 156 138 138 161 164 165 156 169 171 173 172 185 177 172 154 153 154 156 168 165 182 182 182 175 145 134 120 124 129 131 140 167 184 192 171 140 139 141 156 125 136 169 207 184 184 183 29 52 69 77 79 80 104 110 143 126 128 132 134 148 151 157 153 155 153 162 164 155 153 148 139 143 142 143 144 150 158 142 149 149 154 146 143 139 158 166 165 168 160 154 150 141 131 130 124 136 129 153 151 163 157 160 146 132 118 115 113 100 102 97 102 101 101 104 111 89 82 97 101 109 124 130 125 113 147 169 131 112 131 142 154 140 136 174 203 187 182 180 26 46 56 69 65 45 41 57 135 138 132 138 144 148 147 157 152 156 157 155 156 156 155 150 151 148 134 145 149 151 145 137 141 147 146 140 136 136 156 162 152 153 147 146 133 120 117 117 124 116 119 123 120 107 98 87 92 108 120 115 114 103 100 92 85 92 67 84 80 83 84 91 94 102 93 92 101 103 93 125 107 86 107 127 156 140 145 189 197 185 185 181 34 72 98 94 94 76 59 40 127 134 129 131 137 150 144 161 147 152 152 157 155 158 148 149 146 147 145 148 148 149 141 139 139 136 133 127 128 136 150 153 150 144 131 131 117 105 92 91 85 81 88 80 77 82 91 85 91 83 85 80 84 75 76 78 80 71 70 65 62 68 68 69 70 62 58 76 87 100 90 80 74 79 93 121 165 137 150 203 191 183 181 182 80 99 114 115 104 93 78 51 97 133 131 135 134 139 142 158 146 155 153 151 151 159 157 155 162 140 150 152 147 138 134 145 140 133 130 126 122 136 142 147 142 132 111 113 102 86 73 67 62 51 47 69 81 79 80 60 49 37 46 45 49 41 40 26 27 15 16 20 29 34 31 33 46 59 65 45 60 77 29 46 72 83 103 130 162 128 170 199 191 181 179 180 79 99 87 94 99 96 93 78 79 134 135 125 135 138 150 149 149 152 155 152 154 157 168 160 160 155 149 154 148 146 140 137 135 131 125 122 120 137 136 135 129 126 117 103 80 56 22 11 24 55 76 83 68 41 34 27 38 44 55 54 51 55 63 84 82 90 92 105 102 116 121 127 146 163 189 157 71 80 122 112 107 101 101 124 163 147 186 199 193 182 178 177 89 104 94 72 93 91 90 82 66 129 130 129 130 134 141 142 149 151 156 155 163 158 160 156 160 159 152 154 152 145 147 146 139 137 125 126 129 139 135 121 133 124 114 103 78 65 67 69 58 51 51 42 49 76 93 108 123 126 129 132 141 136 137 146 144 143 145 143 146 155 153 165 165 165 165 159 170 160 153 149 142 119 112 142 157 162 190 205 187 181 178 175 59 97 105 84 73 90 101 100 86 117 135 134 139 140 149 151 149 150 150 157 154 156 157 163 162 163 158 159 155 143 146 146 142 134 126 133 133 133 133 139 134 120 115 113 101 96 100 113 123 125 127 136 134 133 138 143 136 140 132 142 143 139 138 138 135 143 143 153 152 155 152 151 163 170 183 196 176 169 162 154 138 129 129 154 163 175 186 202 180 182 176 177 13 42 100 95 87 91 97 97 109 106 135 132 133 129 140 143 148 152 143 156 152 155 163 164 164 158 165 156 160 155 153 142 145 140 141 135 140 141 145 132 137 117 119 124 125 126 130 136 141 154 151 136 164 168 165 162 168 170 165 166 167 162 157 159 155 153 159 142 142 152 135 147 150 154 161 172 181 182 179 163 147 135 135 154 156 177 193 186 172 176 175 175 10 23 54 99 100 91 102 107 105 104 121 124 123 129 131 138 146 154 149 154 160 152 155 158 162 160 160 160 161 159 157 151 148 147 140 139 147 153 152 150 147 134 134 134 146 149 159 168 166 164 175 170 165 160 156 153 152 154 149 152 141 147 140 138 130 139 129 136 145 127 126 134 153 149 157 178 189 188 185 175 158 143 141 155 174 178 190 185 173 175 174 178 14 18 37 64 99 92 90 110 113 110 107 125 122 123 137 127 145 148 149 153 153 155 151 161 163 163 163 170 160 163 166 149 152 146 144 142 152 157 162 142 152 148 144 148 152 165 169 177 179 167 177 178 181 177 174 172 167 163 153 153 150 132 142 145 145 124 122 135 139 139 163 153 151 168 169 191 191 191 188 182 169 153 153 165 171 178 196 176 180 174 176 175 19 20 35 46 77 92 90 95 109 120 111 122 125 111 135 125 142 143 156 149 151 157 149 157 160 163 165 162 164 153 153 152 149 152 154 152 146 150 138 147 154 154 152 162 167 178 182 189 181 179 184 178 172 181 178 170 166 155 154 160 159 147 148 151 143 145 139 156 140 146 142 160 154 182 171 180 186 184 191 187 175 165 152 169 188 178 196 168 172 178 174 175 26 34 36 51 64 86 94 100 105 118 115 119 121 118 132 130 131 144 142 142 158 156 160 159 154 154 159 156 157 164 158 152 153 156 159 151 152 156 153 155 151 157 164 168 172 183 176 180 184 184 178 180 181 167 174 173 166 165 164 148 153 137 139 133 126 132 125 154 145 153 144 161 146 155 159 156 182 189 189 183 180 167 156 171 191 185 195 172 180 174 174 171 33 24 41 53 63 85 103 100 103 116 124 119 114 116 114 128 120 130 136 129 149 152 153 158 158 152 161 154 155 167 165 161 164 167 161 159 155 157 148 150 157 155 161 166 177 178 183 181 187 178 185 181 170 173 176 169 171 171 164 154 149 143 144 140 135 135 142 126 132 140 142 156 155 164 173 170 189 187 187 187 182 177 174 173 185 189 196 183 181 175 175 172 30 25 35 54 68 79 107 114 108 110 116 118 110 115 111 115 123 126 132 119 146 140 137 150 147 152 162 155 152 161 167 165 166 163 160 155 161 155 146 150 150 155 164 169 173 177 178 183 174 183 180 182 184 170 174 169 170 164 160 159 159 156 150 140 139 142 139 140 141 148 150 153 164 158 167 181 182 186 183 190 176 176 173 177 182 193 201 184 183 178 177 176 32 32 39 54 72 83 100 117 123 124 112 121 116 112 103 104 115 120 126 126 139 132 130 134 145 150 158 151 152 159 162 163 165 165 164 161 163 152 146 143 149 156 168 176 174 177 169 172 176 174 176 168 168 171 166 158 162 161 162 159 162 156 157 152 147 138 137 143 144 147 149 147 161 163 166 176 184 193 194 191 180 173 181 173 181 195 192 185 183 179 181 178 34 31 43 56 76 83 97 115 123 130 122 129 125 115 101 111 110 118 108 125 121 129 123 137 145 152 165 157 154 159 163 162 161 161 161 167 162 157 157 150 160 162 166 171 173 172 175 173 171 169 171 172 171 166 165 164 160 156 161 160 161 156 154 150 146 148 156 142 142 147 146 150 161 181 166 175 182 192 193 186 189 179 184 179 184 197 190 185 184 180 179 182 28 26 43 61 82 89 98 118 124 132 128 130 135 129 106 110 100 103 108 111 119 126 121 128 140 140 150 156 159 156 160 161 160 165 166 166 160 156 157 156 161 157 156 158 161 171 175 181 173 176 180 170 166 170 164 162 156 165 162 161 160 152 145 151 143 149 129 149 143 151 161 166 162 167 177 182 190 198 194 195 191 182 180 178 179 188 184 186 184 180 181 184 21 37 43 54 75 90 100 119 129 131 131 127 137 142 110 109 100 97 112 100 109 119 126 116 130 132 142 143 147 148 156 160 155 163 154 157 151 151 155 149 155 152 166 161 157 156 155 166 170 161 167 174 172 167 166 167 177 168 164 165 168 185 184 183 193 188 174 183 191 197 198 187 168 165 179 181 195 197 199 195 198 185 184 175 180 189 184 185 185 183 185 190 22 30 52 61 77 88 104 118 133 132 132 130 129 135 132 102 102 86 95 98 108 111 118 117 120 123 136 132 140 147 149 152 151 155 154 156 159 160 164 154 146 160 156 160 161 158 165 164 165 173 180 174 183 178 178 175 169 169 182 177 191 191 194 202 202 201 195 193 202 202 204 205 204 202 203 203 202 204 207 204 198 185 187 176 184 184 183 184 184 186 188 191 47 54 56 61 76 88 101 117 134 141 132 130 130 130 141 116 96 100 86 100 98 102 109 117 117 131 115 133 135 145 148 152 145 153 153 156 153 147 152 144 140 151 157 156 155 159 161 151 154 174 165 173 172 183 183 177 177 185 193 202 201 206 206 203 203 198 196 200 195 199 210 206 220 224 213 220 220 215 206 200 200 192 196 178 182 171 178 181 182 181 187 191 39 39 58 62 78 91 97 115 134 142 141 136 133 131 132 137 118 101 100 96 90 98 98 104 110 109 118 132 133 138 140 144 151 148 154 144 151 159 154 148 146 150 162 162 175 159 167 171 168 168 180 181 187 191 194 191 199 199 195 204 202 203 199 202 199 196 200 201 197 203 205 212 209 217 217 218 216 212 207 204 196 190 180 173 178 171 173 178 180 181 184 187 42 35 54 69 77 86 92 113 132 142 144 144 137 134 132 137 131 106 99 100 94 92 99 101 106 104 108 127 125 127 132 140 137 143 148 149 144 146 149 147 156 156 152 157 164 172 168 168 169 171 184 187 190 200 200 198 208 205 203 204 197 199 196 197 195 191 193 194 194 191 196 201 203 207 212 209 212 211 199 198 184 200 177 180 179 172 172 175 177 178 181 184 46 38 56 67 79 84 91 109 125 138 144 143 140 136 131 134 130 121 108 100 96 93 94 98 107 99 99 111 108 124 127 126 137 138 144 149 148 146 147 151 149 151 151 147 155 167 174 168 175 181 192 188 194 188 180 190 204 207 205 205 202 195 195 194 195 196 185 187 187 191 190 187 191 201 206 200 201 207 210 201 185 195 183 181 180 176 173 173 174 175 180 182 52 47 60 63 71 79 93 106 122 132 141 146 144 140 134 130 132 127 123 98 95 99 97 93 101 99 92 100 102 104 115 123 122 123 134 143 139 144 143 142 143 146 151 157 163 169 172 177 179 179 183 194 185 192 196 196 195 188 196 202 195 185 191 193 186 184 184 169 163 176 179 175 173 186 187 184 196 196 200 204 197 184 190 182 178 176 172 170 174 175 176 179 53 47 60 62 72 78 94 105 119 129 136 140 150 143 133 135 129 129 126 117 99 93 100 103 102 104 100 91 101 104 107 116 117 117 121 127 127 133 140 148 139 140 142 144 148 148 166 157 155 166 169 185 188 187 191 185 182 186 190 193 183 181 183 183 181 171 160 166 155 159 156 157 165 160 183 171 180 188 186 189 184 170 187 182 178 174 171 171 171 170 173 175 48 51 54 63 76 83 94 108 118 127 135 136 140 150 145 135 131 130 128 122 117 98 92 101 92 94 93 94 87 93 93 107 111 114 115 116 116 119 124 125 123 119 133 150 144 150 153 155 156 157 166 164 170 172 174 171 171 172 161 181 174 174 164 172 163 167 152 158 146 151 152 144 157 156 157 165 165 192 189 188 182 180 185 181 178 174 170 171 169 169 171 173 47 49 49 60 78 88 96 107 119 125 131 138 142 139 153 142 131 135 130 125 124 115 93 87 93 92 91 93 87 90 91 97 101 103 107 110 109 110 117 118 119 113 125 134 136 126 134 135 144 152 152 163 151 162 158 160 146 147 141 144 152 151 157 157 145 144 149 143 130 133 143 138 136 146 153 151 157 164 172 185 181 188 182 179 176 174 173 173 171 170 170 170 44 38 43 61 80 95 100 104 123 131 137 137 136 134 147 151 146 130 127 124 124 121 118 98 84 89 90 93 98 92 87 90 100 102 107 98 100 113 112 103 109 111 118 112 123 128 120 122 136 148 142 136 149 148 145 146 130 135 142 129 138 139 140 145 138 144 138 139 141 129 138 116 132 125 129 142 143 175 175 178 187 187 183 178 176 175 174 175 172 170 171 172 44 39 43 64 86 96 106 110 123 132 135 138 137 133 140 148 155 148 130 120 121 118 118 114 101 83 86 94 92 95 91 96 99 102 96 97 98 93 94 100 103 104 104 102 108 115 120 122 126 122 136 122 120 127 122 125 120 128 129 129 125 123 132 126 138 138 141 116 119 126 125 108 110 118 108 129 153 155 169 184 191 183 180 178 176 176 175 175 174 172 174 173 37 40 47 66 86 102 111 113 115 126 130 137 140 141 138 139 144 152 147 133 117 115 117 117 117 101 81 84 95 81 84 92 103 98 97 85 93 95 95 107 95 96 81 89 95 102 112 106 109 109 119 112 108 110 118 129 107 110 110 115 114 117 118 115 116 125 119 114 127 109 111 109 106 101 114 120 131 149 176 191 186 184 179 179 176 177 177 175 175 173 173 172 58 36 50 77 92 104 120 118 118 123 134 140 140 144 138 137 142 143 144 147 135 112 110 114 115 115 104 78 79 98 85 85 79 91 93 93 99 98 99 99 98 91 92 102 96 86 92 104 104 108 101 100 97 109 117 108 87 98 102 92 95 102 109 111 100 105 104 106 107 98 106 107 93 93 100 120 127 157 194 186 184 179 176 175 176 176 178 176 175 171 171 169 102 53 53 78 95 111 116 127 128 129 135 137 142 146 142 140 135 136 139 138 142 137 121 104 108 113 110 105 83 79 97 90 82 75 71 77 88 90 93 89 93 91 84 88 95 86 91 86 88 96 88 86 85 90 87 91 84 104 95 91 101 104 94 96 102 97 98 88 94 88 95 85 99 89 99 106 158 188 191 186 180 175 175 176 175 176 176 179 175 172 170 170 123 152 181 183 183 166 146 127 127 119 129 141 138 146 145 142 137 127 132 136 139 141 133 121 103 103 109 108 104 83 69 87 84 79 78 75 77 69 74 74 78 89 92 93 95 91 82 82 81 93 91 85 86 86 84 82 83 77 94 87 92 95 83 92 102 88 91 95 74 90 84 84 90 82 110 140 191 186 183 182 181 175 174 174 176 177 176 176 179 174 170 168 139 189 203 217 224 233 229 237 222 189 155 132 143 148 150 148 146 141 129 133 132 130 128 129 119 101 96 109 105 106 84 66 86 89 80 80 77 65 67 74 82 76 70 67 89 89 106 95 90 100 86 77 94 80 85 86 89 79 80 87 83 85 91 83 88 89 79 84 64 81 77 74 67 121 174 197 190 183 182 183 180 179 175 176 175 177 174 176 176 173 169 168 170 195 208 222 220 225 236 234 233 234 240 223 181 157 146 151 142 148 144 129 124 128 125 121 122 118 99 93 108 106 103 87 65 78 96 82 76 71 69 69 75 73 74 79 77 72 75 74 84 90 78 81 73 80 84 86 86 77 83 77 75 83 77 75 78 72 67 76 68 59 68 141 182 204 194 189 190 188 184 182 181 181 177 179 177 176 176 175 176 170 169 169 179 200 209 221 225 231 231 232 234 235 236 234 237 236 224 200 160 138 134 137 127 117 120 119 118 118 113 105 88 101 109 104 90 66 74 96 86 72 66 69 68 72 75 81 84 79 86 89 82 87 80 78 74 74 72 72 69 67 68 66 63 66 72 61 66 63 65 67 75 108 198 207 203 196 198 191 193 188 188 184 183 181 181 180 179 176 173 175 174 167 169 172 190 208 217 224 228 231 233 233 234 237 236 234 236 237 235 242 237 229 202 151 127 124 125 116 117 117 116 120 111 92 92 103 99 93 67 61 93 95 80 78 71 69 70 70 72 75 80 83 82 78 84 83 78 79 82 82 82 80 80 77 71 80 78 78 67 68 75 97 128 178 208 207 204 202 199 190 190 191 188 186 184 184 183 184 180 175 175 173 172 170 169 172 198 210 217 226 229 231 233 233 234 235 236 236 236 236 234 234 237 238 237 242 231 176 130 108 117 116 118 116 112 108 92 82 98 96 92 77 56 87 91 81 78 72 70 70 66 68 72 79 79 69 75 76 77 75 79 79 77 81 79 79 79 82 90 91 81 84 87 114 150 187 213 206 204 201 196 194 187 189 189 187 187 184 185 184 183 179 175 173 171 170 170 173 205 212 220 223 229 229 233 235 234 235 237 236 236 236 234 236 236 236 236 237 234 233 227 202 145 108 107 113 117 105 109 97 82 93 95 89 76 56 70 97 89 83 73 69 66 65 61 70 71 74 73 75 73 71 74 77 77 83 77 71 80 84 87 82 83 84 91 127 156 194 214 206 202 200 196 191 188 187 186 187 186 185 186 184 181 179 175 171 168 167 168 174