P2
# Generated by OpenCV 4.2.0
92 112
255
167 176 179 149 164 178 178 180 167 175 187 190 189 193 192 194 195 196 194 195 193 192 192 194 195 194 196 198 193 193 187 195 211 208 203 196 200 212 194 196 193 190 188 194 186 184 189 185 181 192 192 180 194 195 194 202 199 191 193 190 185 184 179 175 172 171 163 156 166 161 160 146 137 136 131 131 136 130 140 143 145 149 147 145 144 149 153 156 148 135 145 149 165 176 135 157 167 176 186 183 176 165 177 184 188 190 192 194 195 194 192 192 192 194 197 196 192 192 193 195 198 194 198 198 208 198 203 201 212 211 200 186 192 182 188 186 180 186 183 180 187 194 178 188 197 198 197 200 204 201 196 200 190 179 181 183 182 182 177 167 167 163 160 156 145 140 135 130 126 134 129 145 137 143 141 143 140 142 140 141 145 135 143 149 162 170 116 158 171 175 183 181 182 172 172 180 187 192 195 197 192 188 189 193 195 197 200 199 196 197 195 191 193 193 190 195 200 197 208 205 214 204 191 191 187 188 191 189 188 185 186 184 190 185 183 197 200 200 200 201 200 200 202 198 203 197 187 182 180 180 178 171 169 170 167 165 157 148 144 142 138 132 142 148 146 141 140 145 144 142 141 136 116 168 142 147 164 111 120 166 174 178 181 183 186 182 176 177 182 187 191 192 189 188 193 197 198 200 199 194 194 195 192 187 188 191 190 190 189 187 203 205 201 193 192 181 190 191 188 187 187 182 183 189 189 183 193 200 200 202 200 203 200 198 200 198 199 196 194 195 193 189 189 187 183 177 171 162 154 150 144 139 140 132 120 158 156 167 145 138 151 156 136 131 101 177 173 159 134 79 137 167 175 181 182 182 184 184 182 182 182 186 187 192 191 190 192 197 197 197 197 193 196 194 190 188 191 190 189 185 181 187 198 199 194 196 184 182 189 192 192 188 187 188 188 188 186 190 198 203 199 204 200 201 199 199 200 194 197 198 197 197 196 196 196 195 191 189 185 176 158 154 152 148 145 157 140 146 150 170 168 171 150 150 141 140 126 156 175 168 95 80 152 169 177 184 183 183 181 185 188 187 185 189 191 193 194 199 200 195 195 197 197 197 198 195 194 191 191 191 187 179 185 193 190 192 192 185 181 185 186 190 187 186 184 182 185 181 188 197 203 208 202 202 200 201 200 199 198 196 196 199 198 198 198 199 198 197 197 195 187 184 171 163 159 153 150 144 159 140 183 177 182 177 170 183 167 126 119 145 198 161 82 99 160 167 178 186 184 185 182 185 189 188 189 189 191 190 192 195 195 197 194 195 195 198 197 197 198 193 189 188 188 184 181 181 187 188 185 185 182 185 191 190 186 186 183 186 185 185 194 206 205 205 202 202 201 200 200 198 198 198 198 196 196 199 201 200 199 199 196 196 189 188 175 170 169 160 154 155 148 144 149 180 195 189 186 180 158 164 127 152 154 198 63 113 164 168 177 181 186 185 183 186 189 189 188 190 191 190 193 194 196 193 192 195 194 197 194 196 197 193 185 191 193 179 175 186 179 179 179 181 183 185 191 185 188 189 184 188 197 197 198 205 202 203 200 201 198 200 200 198 197 197 197 196 197 199 198 197 196 196 198 196 188 183 179 177 175 167 161 158 155 142 151 158 171 197 181 188 164 163 146 155 128 208 80 132 166 170 174 175 185 184 184 183 187 190 192 190 191 192 190 191 194 194 193 195 195 195 194 195 193 193 190 199 193 178 173 171 172 181 177 175 182 186 183 189 188 189 182 192 198 198 204 204 207 209 204 204 200 202 198 198 199 198 197 202 199 199 197 199 199 198 197 196 191 184 182 180 176 170 167 163 159 159 154 135 158 175 200 182 189 175 158 172 130 177 75 140 166 170 174 180 187 185 178 183 189 189 191 192 189 192 190 190 193 194 194 197 197 197 196 200 195 196 193 198 185 178 168 171 189 184 170 176 178 178 190 196 197 199 195 195 196 199 207 206 203 206 199 203 204 200 199 199 195 199 197 195 195 200 198 197 194 194 196 195 191 184 184 182 181 173 168 165 167 165 153 155 108 160 175 195 186 193 190 160 171 102 65 149 169 171 178 182 184 183 179 184 190 192 195 192 186 191 196 196 194 196 198 198 196 198 200 195 197 194 199 197 188 180 168 177 190 186 174 174 166 170 187 198 195 199 197 198 198 198 203 203 204 205 201 205 203 202 200 199 200 197 197 197 197 201 196 196 194 193 196 192 188 185 183 184 180 174 176 170 169 165 159 153 134 120 174 184 196 170 191 176 171 79 58 152 165 168 181 185 185 185 185 186 188 193 195 192 182 188 195 196 198 198 199 199 197 197 197 196 199 199 200 196 192 184 171 179 192 191 178 171 169 170 171 196 199 201 198 196 194 198 202 202 206 204 201 200 200 199 199 201 199 200 197 199 199 199 196 198 197 195 193 189 184 184 182 181 177 173 176 172 167 167 174 151 153 100 181 166 192 183 175 178 175 123 56 160 163 165 178 181 185 188 187 185 192 193 197 195 192 193 201 198 196 198 198 199 199 199 198 197 202 199 197 199 200 194 188 190 198 190 178 175 188 166 182 180 196 201 200 201 199 202 201 199 200 203 203 201 198 200 201 199 200 198 198 197 200 201 200 197 196 194 194 186 182 184 182 180 179 172 174 179 168 161 172 158 153 113 174 153 182 196 182 176 176 170 71 157 161 163 176 180 183 184 183 187 193 192 196 197 197 198 200 197 196 199 199 199 199 197 198 199 201 201 203 204 204 200 199 200 197 200 186 175 188 178 178 182 193 199 195 201 199 202 203 202 201 203 204 204 202 203 196 201 203 199 200 199 201 200 198 196 195 193 190 185 184 183 181 179 174 168 172 171 166 159 158 162 148 114 144 167 183 182 189 174 173 168 116 154 157 163 173 180 184 184 190 187 190 194 195 196 198 196 199 198 198 199 198 199 198 197 197 199 201 202 203 206 205 201 202 203 202 203 188 183 186 188 193 188 193 202 203 199 200 201 201 204 205 203 205 205 204 205 202 202 203 199 199 197 196 197 197 196 195 193 188 181 179 178 179 178 172 170 175 164 157 157 154 165 141 126 113 178 189 185 189 174 180 155 131 147 156 156 171 180 184 181 188 186 190 196 195 197 198 197 199 198 200 201 201 202 200 198 197 199 200 201 203 203 203 202 201 202 205 201 195 194 183 189 199 199 202 201 206 204 203 202 204 207 207 207 205 204 206 207 205 202 200 199 199 198 198 197 196 195 192 187 185 179 177 177 176 174 169 170 170 162 149 143 157 173 124 140 119 186 196 170 198 186 153 166 121 144 155 157 174 183 184 187 189 189 189 194 196 197 197 196 197 199 200 201 202 201 202 199 200 203 201 201 203 204 205 202 204 202 205 200 202 199 192 194 194 202 201 205 206 206 206 203 206 205 205 206 202 203 204 205 203 202 198 197 199 198 197 197 195 192 191 185 179 175 175 178 177 171 169 167 165 164 158 134 143 170 126 126 99 191 196 169 156 210 174 157 128 147 153 162 177 183 184 189 190 192 189 193 195 198 199 199 198 199 197 200 202 203 200 198 200 202 203 203 202 205 202 200 202 201 203 201 201 201 196 198 199 200 204 206 207 206 210 205 205 205 207 207 203 203 206 203 203 200 200 200 200 199 197 195 193 188 188 183 177 174 174 175 176 173 171 173 171 159 154 133 154 164 128 109 118 173 190 185 149 166 202 146 132 144 152 171 182 187 191 191 188 189 190 195 195 197 199 199 200 199 197 199 203 203 202 201 203 204 205 208 206 205 200 200 201 198 200 202 201 203 199 199 199 199 201 206 208 210 210 209 207 209 208 206 206 205 205 204 203 201 199 201 199 198 198 198 194 186 185 177 175 173 174 175 175 174 167 175 171 158 152 128 157 157 137 113 122 146 198 178 157 147 179 198 131 138 156 181 184 188 184 181 185 188 186 188 191 194 195 195 196 200 200 200 200 199 203 206 206 204 205 206 204 205 202 202 202 202 204 202 201 201 200 199 202 202 205 209 208 209 208 212 211 209 205 202 207 204 203 206 204 201 200 203 201 198 197 196 193 186 186 179 177 174 174 177 172 179 178 175 166 157 146 129 163 147 132 108 90 141 188 182 162 138 153 165 137 144 170 178 168 166 161 152 154 160 169 178 184 193 198 197 197 198 198 198 199 200 203 204 205 205 210 209 201 202 203 202 201 202 202 202 204 203 202 203 205 205 204 209 206 204 206 213 211 212 209 202 207 205 204 205 202 199 199 201 202 200 197 193 190 188 187 181 178 176 175 173 176 173 169 164 162 157 143 127 145 136 128 114 87 141 203 194 173 129 122 159 153 146 145 155 143 132 137 114 129 132 130 137 163 166 170 180 186 187 195 192 194 197 198 200 200 204 204 207 206 204 206 203 197 202 201 201 201 204 200 205 206 202 204 209 207 208 209 207 207 213 206 207 201 203 202 205 200 199 200 202 200 202 198 195 194 191 186 181 180 179 176 171 170 170 164 164 165 158 133 143 137 142 107 101 92 122 199 188 169 137 120 156 158 134 131 114 117 123 109 110 84 98 93 107 106 128 143 139 160 167 181 191 191 195 198 201 202 204 202 203 207 205 207 202 201 201 202 200 201 202 202 204 202 203 207 209 211 210 207 206 202 203 204 207 202 201 198 200 202 204 199 200 197 201 200 198 196 193 189 184 175 174 173 169 171 166 166 168 168 147 130 138 124 137 87 89 89 113 180 195 157 157 103 151 150 123 117 106 98 98 89 82 88 71 84 89 95 109 117 129 131 152 160 179 184 188 190 192 196 198 199 199 204 200 203 200 199 202 200 198 200 203 203 202 198 196 207 203 196 204 210 208 203 198 198 190 193 189 195 192 188 186 195 197 192 193 197 200 198 195 188 184 178 172 171 172 169 164 163 166 163 148 139 134 120 104 91 93 98 100 174 201 168 132 104 141 108 127 128 127 119 112 105 98 98 96 76 72 91 92 105 109 116 136 140 164 170 179 188 188 191 189 194 195 195 196 198 196 195 199 201 200 199 201 201 198 195 189 188 179 188 178 155 152 160 161 163 170 170 174 174 172 169 179 184 179 179 181 186 196 199 198 194 190 185 177 175 172 170 166 162 160 158 148 143 135 101 92 99 96 97 99 154 196 181 116 129 121 101 130 133 130 135 137 133 133 133 136 125 92 88 83 76 95 100 126 136 144 160 173 179 184 187 186 188 191 192 190 194 191 193 195 195 197 198 198 200 194 187 187 182 173 164 125 121 142 132 125 121 127 128 147 138 141 146 152 161 166 166 167 174 180 190 192 195 192 189 179 175 172 174 165 163 157 157 153 142 138 109 96 100 97 104 102 149 191 188 112 142 109 131 131 136 132 131 130 133 135 134 133 137 128 116 104 99 91 95 106 119 118 150 167 168 176 179 183 187 187 184 188 189 187 189 191 191 194 193 192 195 189 180 179 167 160 143 142 125 116 113 103 100 95 103 109 121 124 128 131 145 145 157 152 146 171 174 177 183 187 178 182 177 173 175 170 166 157 153 147 142 131 123 100 107 97 106 98 148 171 191 136 146 128 80 109 139 130 130 131 130 133 133 134 140 134 125 132 119 110 111 116 119 119 134 158 163 174 176 179 181 181 183 182 183 184 186 194 191 189 191 191 187 181 177 165 164 149 149 109 109 102 71 87 78 79 82 97 93 105 110 111 113 130 124 128 126 126 128 149 157 168 167 174 167 171 172 166 164 159 156 149 148 132 128 119 107 101 104 113 121 160 182 145 135 136 79 99 144 126 125 131 138 139 142 147 149 148 139 145 139 122 120 119 116 124 131 140 151 161 170 174 173 173 176 179 180 182 183 185 185 187 186 186 183 179 175 155 146 151 147 137 118 101 111 98 104 107 97 95 110 107 109 123 118 127 134 135 131 122 121 131 136 149 151 165 167 163 169 162 161 159 156 156 152 146 134 145 141 123 113 106 112 154 177 165 131 128 107 101 144 121 124 129 136 138 131 128 134 134 143 141 150 148 139 127 123 112 122 128 141 153 159 161 166 169 173 175 178 180 181 182 181 178 177 178 174 171 164 153 141 152 149 127 127 130 131 130 129 137 139 146 149 152 157 155 157 151 155 149 148 144 147 144 142 141 142 144 152 152 157 161 166 163 156 157 153 157 132 137 159 180 157 130 111 136 168 168 141 142 108 113 139 122 120 125 113 108 138 151 145 159 168 161 138 135 130 138 130 132 116 111 117 126 141 153 159 165 169 174 181 179 180 180 178 176 173 169 164 162 155 150 148 143 147 143 139 140 141 146 155 157 162 166 173 176 174 169 164 166 159 158 156 156 156 155 151 149 155 159 158 154 153 156 162 161 158 157 155 155 142 131 134 137 150 170 187 148 151 167 155 140 105 110 132 129 128 118 124 147 152 120 110 90 107 113 124 154 173 133 125 132 140 127 118 112 115 130 147 158 168 171 179 180 182 182 181 175 170 167 158 154 144 141 136 135 136 138 141 151 153 157 155 163 166 166 164 169 174 174 172 168 162 167 157 154 153 153 151 154 157 152 154 160 160 157 156 159 159 161 160 156 148 139 134 119 103 99 142 147 138 158 160 144 114 118 138 132 116 103 130 75 86 70 103 138 70 63 72 90 68 118 148 141 116 139 140 131 126 113 126 143 163 171 183 184 189 187 183 174 163 160 154 147 140 141 136 141 142 145 146 152 155 143 132 130 125 120 125 132 135 140 143 151 151 160 157 157 151 149 149 150 147 151 161 162 169 161 160 161 160 158 158 155 146 139 144 131 107 111 104 144 143 138 153 165 153 126 139 125 104 86 84 84 135 172 174 111 90 86 91 61 57 59 86 127 138 122 139 139 133 128 112 130 154 175 187 190 195 194 185 180 167 151 149 142 137 142 143 146 152 151 143 142 113 111 154 161 175 168 183 183 183 191 181 183 159 134 139 150 146 149 151 146 148 158 158 162 166 162 165 165 160 158 157 154 151 142 142 132 116 97 135 112 152 144 138 155 178 136 142 127 118 81 78 104 167 181 197 90 131 129 54 99 94 117 68 106 122 144 128 127 133 138 135 128 147 173 191 195 202 200 189 180 171 160 147 142 140 144 144 148 143 143 138 118 135 168 160 167 132 125 85 80 75 68 71 101 147 171 156 124 129 139 144 147 153 155 161 164 165 163 167 165 163 160 159 158 156 152 140 133 119 91 121 129 134 136 151 159 170 154 142 124 121 107 110 136 166 185 187 89 81 110 73 66 108 104 95 192 144 119 154 138 136 141 143 136 140 172 193 197 202 194 186 177 163 153 144 145 145 146 146 147 149 142 134 144 160 144 114 91 110 97 66 81 68 69 73 76 56 102 148 157 126 129 149 151 156 156 161 163 166 164 160 168 169 165 162 162 159 155 143 133 116 101 125 135 150 131 108 109 143 165 146 139 127 125 145 154 174 177 190 139 67 111 119 110 123 87 138 191 184 132 101 160 171 158 151 144 144 176 199 201 200 194 190 178 163 151 150 152 148 157 148 142 132 129 144 152 119 115 140 180 178 155 97 102 111 55 92 100 63 88 86 118 163 130 135 159 153 155 164 159 165 165 163 165 166 166 164 164 157 153 146 128 116 116 146 150 137 130 93 138 155 154 147 145 143 141 145 170 160 189 188 188 105 84 89 110 95 117 187 180 182 132 129 144 185 181 170 149 152 184 197 200 200 198 193 178 159 152 157 163 163 172 162 149 144 146 142 109 126 179 187 191 210 136 91 95 85 40 98 88 58 148 102 80 120 156 144 145 154 160 159 154 167 164 169 167 169 169 171 166 162 155 147 131 118 114 168 143 133 118 111 133 170 130 154 157 158 147 137 145 162 174 183 190 192 149 97 102 146 153 153 138 135 142 153 166 181 190 173 149 165 188 199 200 199 198 193 178 161 153 163 174 173 192 186 186 160 136 139 154 184 177 188 208 200 188 93 121 102 111 107 86 98 170 133 97 92 123 146 153 151 155 159 159 162 162 167 169 167 170 172 172 165 155 149 134 113 120 173 130 122 119 122 101 197 136 161 162 160 153 140 149 135 140 138 150 149 153 159 167 181 164 177 171 173 183 177 176 184 178 157 150 174 194 203 197 197 199 194 182 166 158 161 167 178 188 203 180 145 132 125 131 134 131 155 194 204 208 124 81 120 113 91 68 164 156 150 127 118 123 136 131 148 149 156 159 162 169 172 172 172 170 169 174 164 157 147 135 113 146 163 129 119 115 147 107 195 136 165 170 162 161 142 135 149 159 160 156 151 164 161 166 170 168 160 160 167 164 169 167 175 163 153 160 180 196 203 197 199 197 191 183 169 161 160 160 171 184 185 193 177 161 157 144 149 151 150 156 157 158 173 141 138 90 114 148 160 159 152 151 152 158 158 151 144 141 150 159 171 168 173 173 170 171 172 170 166 157 147 136 115 159 153 112 122 142 124 105 196 144 169 173 168 164 150 138 138 149 157 156 154 163 155 154 150 148 160 167 165 173 173 187 169 157 156 166 190 197 198 196 197 192 186 181 173 167 168 163 166 176 193 180 174 174 149 149 143 153 150 157 159 155 155 184 149 142 143 164 152 152 154 159 163 166 163 165 169 163 162 167 171 168 174 174 172 173 173 170 167 156 149 141 120 160 130 96 139 134 117 99 173 148 178 178 178 170 162 143 141 147 151 152 153 148 149 148 152 170 174 176 184 182 187 180 165 158 162 171 192 201 196 198 202 198 191 181 175 172 167 164 164 165 188 187 180 170 171 149 142 160 171 167 169 164 171 178 160 164 171 162 162 158 161 165 166 167 171 174 174 175 174 175 178 178 180 181 179 174 175 173 167 157 152 146 127 161 134 111 148 115 123 107 162 166 177 183 176 171 165 160 151 146 149 152 154 155 160 167 165 171 181 184 187 187 186 173 167 167 161 178 197 200 198 199 201 198 192 183 179 178 173 170 169 166 175 186 184 182 183 175 160 150 154 167 172 168 178 176 170 169 164 161 162 161 159 155 164 176 177 181 182 178 181 182 181 182 182 182 183 178 178 175 169 160 156 148 140 155 103 128 124 121 120 122 147 166 180 187 181 177 156 166 166 162 159 160 160 165 170 171 175 173 182 187 194 190 179 173 171 170 166 188 199 199 201 200 199 193 190 185 181 181 175 174 178 174 177 184 194 191 182 183 178 171 166 162 155 155 151 159 163 162 164 157 158 154 163 172 174 175 179 186 178 178 185 188 186 184 184 181 178 172 174 177 173 164 157 144 152 143 116 109 112 130 126 148 139 170 181 188 184 184 172 166 167 167 169 175 177 180 181 173 179 184 184 188 190 186 178 174 173 172 170 194 205 204 204 201 197 190 188 183 181 181 179 179 181 180 179 184 193 197 191 188 181 187 178 184 186 176 171 156 158 157 151 151 163 166 170 175 178 178 185 186 182 183 188 191 190 187 188 183 178 175 177 176 170 165 158 145 163 133 132 115 93 134 136 134 131 171 183 189 189 187 183 178 178 178 178 177 178 179 179 173 178 180 188 192 189 186 172 173 175 171 181 202 201 206 205 205 197 191 187 181 179 181 181 182 185 189 185 184 187 196 204 194 188 181 184 179 185 192 186 187 183 179 175 176 172 178 188 187 186 186 186 186 190 188 189 191 189 193 184 180 182 178 179 175 171 167 161 148 161 143 127 95 119 113 149 140 136 173 182 191 191 187 184 181 176 177 179 180 176 174 169 171 176 184 189 191 186 182 174 175 172 172 189 201 204 206 203 207 200 190 184 182 180 182 183 180 183 188 192 187 189 195 202 208 201 192 191 187 190 192 187 190 186 182 178 182 180 180 185 189 190 187 189 189 193 194 193 193 191 190 185 183 183 178 178 175 174 170 159 153 151 137 133 118 105 137 140 156 128 168 178 188 191 189 188 186 183 180 175 175 173 171 170 177 185 190 192 189 184 180 177 176 172 179 195 204 206 207 207 207 200 189 186 185 183 181 182 182 183 183 188 191 192 196 197 204 206 200 196 193 183 191 191 195 191 185 185 180 184 183 190 188 190 191 193 193 194 196 190 191 190 185 184 182 179 177 179 178 177 171 163 155 150 133 128 132 120 107 157 167 121 165 174 184 191 191 190 189 184 181 176 178 179 181 182 186 189 189 190 192 182 178 174 173 174 186 202 208 205 207 209 206 201 196 189 186 186 186 185 183 185 184 187 192 196 199 201 200 206 206 205 200 194 191 191 194 197 197 191 192 192 193 199 197 194 195 197 199 193 196 190 183 189 185 184 183 178 175 176 176 178 171 161 156 152 128 118 111 110 121 132 169 117 162 171 178 190 191 191 190 188 188 186 189 187 191 190 187 190 191 191 189 182 176 172 174 183 193 202 208 206 204 205 203 197 191 187 183 188 188 187 182 186 186 186 190 195 199 196 201 202 206 210 204 203 198 194 197 201 199 196 202 196 203 200 204 200 199 200 202 199 195 194 192 186 184 183 182 181 177 174 171 174 169 162 153 152 128 125 99 100 118 134 154 128 165 166 172 184 189 188 189 192 192 194 194 192 195 194 192 191 194 192 189 186 176 173 177 191 200 203 203 205 203 201 202 198 190 186 186 185 187 182 185 182 184 187 188 194 197 195 202 195 205 204 204 201 202 201 200 199 203 199 199 196 199 202 198 202 199 198 202 198 193 193 189 187 179 184 181 179 177 173 171 172 164 157 155 139 131 132 106 110 116 142 160 134 157 160 167 184 187 187 194 196 190 186 191 191 193 194 191 192 193 187 187 183 177 172 188 201 204 204 204 202 203 204 204 198 188 184 183 185 186 187 184 180 180 185 188 194 197 196 202 197 203 202 203 202 204 201 201 199 195 202 203 204 202 203 203 203 202 199 198 194 193 189 187 180 179 179 175 176 172 167 167 166 165 154 149 143 132 117 109 120 130 147 166 145 148 158 162 175 184 186 188 192 194 192 187 191 195 194 192 194 194 191 185 182 177 177 195 198 201 204 204 204 204 205 203 198 191 182 181 184 187 188 187 182 180 182 188 194 198 197 203 206 206 203 200 203 205 210 204 203 200 202 205 203 202 208 203 204 200 198 196 195 192 187 188 182 179 176 175 175 169 166 166 159 163 149 144 142 133 125 107 129 140 146 152 165 149 159 163 169 177 183 186 187 192 194 191 190 192 193 192 195 195 194 187 178 175 184 194 199 203 204 205 201 202 204 203 201 197 187 183 183 184 186 186 185 180 181 188 194 197 202 199 202 203 207 204 205 202 202 203 191 189 198 204 214 206 208 206 201 198 199 195 190 185 184 181 178 177 174 172 173 169 162 159 155 163 151 143 132 140 105 120 133 153 163 144 175 151 153 159 168 173 180 184 186 191 192 190 189 192 194 195 194 195 192 188 185 181 182 190 197 196 198 198 198 197 201 201 198 193 190 187 187 185 188 185 184 177 173 184 195 198 201 202 202 203 203 205 202 207 207 208 208 203 202 205 206 204 206 202 199 195 196 187 189 186 184 176 174 175 175 172 168 168 162 156 161 160 147 137 128 139 112 122 141 165 149 152 176 163 153 155 169 177 181 182 189 193 193 192 192 194 195 194 192 193 192 188 184 181 182 191 194 197 198 198 210 203 198 199 198 194 188 182 188 189 187 191 189 180 176 183 192 198 202 203 205 202 205 205 203 205 204 203 206 208 207 201 204 205 206 199 197 195 196 189 184 182 179 174 173 171 172 172 165 168 161 156 159 159 148 129 128 131 130 135 150 162 150 144 176 174 155 151 160 172 179 180 186 191 191 193 196 194 195 193 194 189 185 185 182 168 174 187 187 187 194 201 213 220 196 189 189 186 185 188 194 195 191 190 191 183 174 177 192 200 204 201 206 205 211 202 205 208 206 205 207 206 204 207 205 203 203 199 197 194 192 187 185 180 176 172 171 168 170 166 158 159 157 157 159 158 145 122 135 146 155 149 165 168 119 128 173 173 164 145 152 164 175 182 187 189 192 193 193 193 192 190 183 190 185 174 168 144 148 163 172 173 174 187 198 196 182 177 168 173 183 188 192 191 191 190 193 183 181 177 190 197 207 209 209 207 207 206 206 208 208 206 209 207 205 203 206 203 201 198 196 193 190 189 183 179 179 176 169 167 168 165 158 156 153 158 156 154 149 143 145 151 162 164 170 175 159 178 169 166 171 141 149 165 174 179 180 186 190 188 191 192 192 189 187 191 177 155 145 126 121 134 153 156 163 173 176 168 157 154 156 160 164 161 167 171 175 171 185 183 180 174 181 194 209 211 203 208 206 216 207 209 210 210 210 208 207 206 207 199 196 200 198 194 188 187 181 175 176 172 168 167 168 164 160 153 153 159 157 159 150 157 144 153 167 169 165 172 188 194 158 161 164 140 145 157 166 173 176 182 186 188 191 191 191 188 186 189 174 139 122 115 115 123 126 133 143 157 156 154 147 151 144 139 140 142 143 156 163 165 171 185 180 168 177 195 207 210 210 207 213 210 208 209 210 209 210 206 206 205 202 199 196 196 194 188 187 182 179 173 174 172 168 163 167 162 156 155 157 160 157 158 147 149 139 154 166 171 160 168 181 189 147 150 157 145 141 151 159 171 178 185 187 189 191 192 189 190 190 184 178 135 125 92 95 77 117 119 126 144 136 135 135 135 97 64 39 39 51 55 110 149 164 173 172 163 176 196 201 209 203 210 209 206 208 212 206 206 208 203 204 207 198 199 193 188 189 185 184 186 180 175 170 169 168 166 165 157 148 150 158 160 159 151 153 154 149 159 169 170 163 176 182 190 137 137 144 141 137 146 159 169 174 182 188 188 191 194 190 191 185 189 181 134 133 134 123 127 97 93 117 114 122 124 127 73 64 80 67 59 66 71 85 125 145 159 164 158 177 193 198 208 205 207 208 208 204 207 209 207 204 205 201 201 198 200 193 187 184 183 183 182 179 174 168 169 171 167 160 157 153 159 163 159 156 149 156 146 150 163 171 173 175 185 193 197 127 123 128 134 139 145 157 161 173 183 186 188 189 191 192 188 187 187 186 161 137 149 138 162 162 96 103 109 110 114 118 110 109 124 121 97 103 133 132 110 137 144 150 154 185 196 200 201 203 202 202 209 209 207 207 205 205 201 198 200 195 193 188 186 186 182 180 177 177 173 169 168 169 168 160 158 158 161 163 161 160 154 154 146 157 167 172 176 191 190 194 199 115 109 109 119 134 152 154 158 174 182 186 188 185 191 189 190 186 187 188 177 146 137 143 153 149 147 135 114 109 105 117 126 128 135 152 163 158 157 153 128 128 133 139 168 197 197 195 196 204 198 201 202 207 204 206 203 203 200 199 194 194 192 188 185 184 182 181 179 177 174 167 167 168 167 162 162 162 162 164 164 159 152 162 153 165 168 166 182 191 194 195 198 107 97 96 95 130 143 151 167 176 181 187 189 185 186 190 191 188 187 183 183 181 150 132 141 147 155 154 139 128 125 130 135 149 149 159 165 155 154 149 130 124 132 156 192 191 195 197 196 197 198 199 200 200 203 204 201 200 201 198 193 190 191 185 183 180 179 181 177 171 166 168 170 171 166 164 157 161 167 166 162 160 152 155 153 164 168 171 187 194 193 197 200 102 90 84 86 134 136 154 166 173 180 183 181 187 186 191 190 185 188 186 187 181 174 154 147 153 151 160 166 163 151 149 159 173 177 182 181 168 160 163 160 162 175 184 187 194 198 197 202 200 201 193 199 198 201 203 204 201 201 193 194 191 191 184 183 183 181 180 179 171 165 163 168 170 163 166 160 165 166 166 164 161 157 151 153 162 169 171 187 196 197 195 195 100 83 73 70 112 139 143 166 171 177 186 188 187 190 188 186 189 189 187 188 189 180 173 168 162 169 171 178 187 176 170 177 186 187 191 182 182 176 177 176 180 188 191 193 194 195 199 200 200 201 197 194 198 202 207 202 202 201 196 191 184 187 187 188 183 179 176 171 169 166 161 168 171 168 165 165 167 167 167 168 163 162 156 146 160 167 169 184 186 185 184 183 97 77 63 56 105 137 135 160 171 180 182 182 184 184 185 186 189 186 186 189 189 181 179 173 169 173 177 173 179 187 184 183 186 181 184 177 177 178 181 185 186 191 188 192 195 194 193 199 200 197 193 192 190 192 207 202 202 198 195 197 188 185 181 180 181 175 174 172 172 170 168 172 167 166 168 167 168 166 161 166 162 157 160 152 151 168 165 171 171 167 168 164 88 73 61 54 84 130 132 157 166 176 184 185 186 184 183 185 189 188 188 185 179 183 179 174 170 173 174 169 179 181 181 183 182 184 186 188 178 176 177 177 185 183 188 190 193 194 191 196 196 198 195 194 188 183 190 202 192 180 189 193 192 189 182 182 184 178 177 172 169 169 168 168 164 169 171 167 175 171 166 167 162 158 158 155 151 162 163 136 121 121 93 95 81 72 61 58 79 130 125 147 164 175 182 179 183 183 180 187 182 183 185 183 182 179 178 170 170 171 182 172 177 175 178 188 181 185 183 182 182 178 176 179 184 180 189 189 188 191 195 197 197 197 194 194 186 183 177 170 163 157 183 196 191 188 182 183 179 176 177 170 168 167 166 165 166 170 167 169 175 174 163 159 155 162 159 153 152 157 158 118 124 111 48 68 78 70 66 68 79 127 126 139 159 167 178 181 181 184 180 177 181 182 180 182 179 170 172 166 165 175 181 179 185 179 179 183 175 179 181 179 183 179 164 171 178 178 173 182 183 187 193 194 192 195 191 194 189 182 169 160 154 158 180 196 187 186 182 177 175 173 175 170 169 167 165 165 170 164 164 172 168 176 170 160 146 149 149 149 149 162 148 128 144 126 55 75 79 74 74 79 92 131 135 129 157 162 174 178 173 181 181 175 174 178 179 173 167 176 172 178 167 180 182 186 182 181 181 180 176 179 185 183 184 176 173 176 179 166 178 185 179 173 188 183 179 183 185 190 187 187 184 164 168 177 173 163 169 182 180 176 170 170 173 166 164 167 166 164 168 159 161 172 168 176 169 165 153 151 147 152 152 155 139 147 145 138 51 63 78 79 83 86 92 120 135 127 146 160 167 167 170 172 171 177 175 181 178 176 166 168 170 171 166 177 183 182 186 175 180 187 178 181 181 186 181 178 178 177 178 176 176 182 183 180 182 180 177 174 174 177 173 171 180 184 175 171 170 168 180 184 177 173 168 170 167 162 162 160 161 165 167 165 166 167 179 175 163 161 152 146 145 152 146 148 133 152 153 136 57 83 85 88 93 102 105 121 142 141 137 158 158 165 164 171 169 177 175 175 177 178 172 168 164 174 174 179 186 184 189 183 189 183 184 182 184 188 191 177 183 179 180 184 181 178 173 180 178 178 178 174 170 171 173 169 176 155 137 159 161 169 177 179 174 170 165 163 168 161 163 162 166 166 160 167 173 170 176 167 155 160 155 145 148 149 151 144 134 151 155 137 56 87 91 96 102 109 117 126 139 137 132 151 154 157 158 176 171 164 166 170 174 171 176 172 179 174 182 182 180 184 187 182 181 182 184 185 187 183 181 172 182 177 187 187 188 184 174 176 178 180 173 168 170 168 165 166 176 166 143 151 161 167 171 170 166 167 164 159 164 165 162 157 164 168 160 168 175 176 176 160 158 159 155 145 156 144 151 142 137 152 158 144 54 79 100 107 113 120 127 130 137 142 136 134 153 162 157 167 164 163 162 163 163 167 169 163 163 162 159 157 157 164 173 180 182 181 176 169 158 152 146 144 158 149 164 165 173 178 183 182 183 176 168 163 159 161 164 160 166 170 168 163 156 155 163 168 168 167 159 162 159 164 163 161 166 170 162 173 173 171 173 161 169 149 154 152 154 148 147 135 139 159 158 136 63 86 108 113 121 128 131 129 138 151 144 129 148 154 155 164 167 156 156 158 150 152 141 132 131 133 134 131 126 129 126 123 130 133 128 115 122 118 121 124 129 132 127 130 131 123 143 160 168 167 155 159 153 159 158 159 169 172 168 162 159 155 153 164 166 162 161 156 156 159 162 166 167 165 169 164 175 174 174 163 159 137 159 138 147 137 146 134 149 160 158 133 73 69 113 118 125 129 135 135 142 156 150 137 147 145 151 155 164 148 147 141 133 125 123 118 129 134 135 140 140 128 121 111 118 114 101 110 118 116 129 129 129 124 116 113 126 119 109 111 116 135 160 163 150 149 149 152 152 165 163 158 160 154 156 160 160 161 159 155 156 159 162 170 172 170 171 166 175 176 173 169 154 148 156 131 144 141 137 132 157 162 156 130 72 67 117 122 128 133 137 136 144 152 158 142 137 144 151 155 153 149 132 124 102 105 111 114 103 100 115 109 108 105 113 95 89 105 85 105 107 107 116 105 114 105 105 108 112 110 105 106 96 116 123 124 129 130 134 157 154 163 167 166 162 158 155 158 155 155 158 159 159 171 167 168 171 171 171 169 170 169 172 161 155 152 146 129 137 144 129 134 161 162 158 131 66 64 118 122 127 132 136 138 143 150 156 151 131 139 146 148 146 132 113 89 76 82 94 81 78 74 72 82 81 79 73 79 79 76 81 77 81 77 84 91 88 81 86 80 80 86 102 98 101 91 77 60 60 70 115 139 157 158 170 157 161 155 154 157 155 158 161 159 160 168 172 172 172 169 170 172 169 167 169 154 161 146 141 136 140 134 122 147 163 162 159 117 54 44 119 121 126 131 136 134 139 145 156 154 133 136 145 140 151 130 117 89 82 72 68 65 71 87 111 110 116 111 128 113 130 126 118 116 110 119 120 111 105 106 113 95 102 83 79 73 71 72 79 101 125 126 127 136 153 158 163 166 159 158 161 158 158 159 163 164 168 170 173 172 174 173 168 171 165 169 157 147 158 155 143 141 137 126 131 155 167 167 161 112 50 43 118 119 123 129 134 132 133 141 147 158 149 127 146 145 152 150 152 149 140 122 108 97 109 118 124 123 127 130 125 128 128 125 122 130 131 126 128 141 132 140 143 148 131 124 124 115 114 127 135 137 153 161 163 154 150 157 164 168 162 162 160 158 160 158 162 160 163 176 173 175 174 173 167 168 164 169 154 162 150 159 145 146 125 133 129 165 170 168 163 99 49 44 115 117 120 124 129 127 125 123 147 153 151 139 148 146 153 155 155 151 149 140 126 120 116 116 123 129 139 140 139 139 142 144 138 145 150 149 151 151 148 147 144 131 132 127 130 128 130 142 159 156 169 171 176 171 157 159 166 166 164 162 163 162 161 162 162 166 175 169 174 175 173 171 168 169 162 164 156 160 145 153 138 128 123 130 134 170 170 166 160 92 42 39 117 116 118 119 124 123 123 123 141 151 156 142 136 151 148 149 150 149 154 146 136 128 129 128 126 126 132 141 140 137 144 143 143 147 155 154 156 152 146 148 146 150 151 147 151 157 155 156 169 166 175 174 171 172 172 163 163 163 162 148 156 163 164 168 165 170 172 175 171 166 167 166 163 166 161 164 160 151 141 138 124 112 114 125 152 172 171 167 159 83 42 40 118 118 118 120 122 123 125 119 133 146 152 146 132 148 152 144 148 152 154 155 152 148 138 138 144 141 142 137 144 139 141 144 139 145 171 155 160 171 170 161 169 162 169 166 162 163 163 167 177 174 173 174 176 173 173 165 159 161 157 163 158 163 163 162 151 166 177 176 172 164 167 166 160 162 162 162 151 149 126 125 131 114 123 123 172 173 168 165 156 77 38 35 122 119 121 123 125 126 125 128 109 147 152 146 130 148 144 145 146 151 155 150 155 155 151 146 145 140 142 138 142 141 141 144 145 147 151 147 155 156 157 156 161 163 162 167 169 168 167 168 177 168 172 178 179 173 167 165 162 160 159 157 161 165 160 159 169 173 176 173 170 165 168 161 163 161 161 154 143 143 135 129 129 118 107 155 172 172 170 167 157 66 42 34 122 121 123 125 128 129 128 128 108 135 148 148 137 137 141 146 149 153 156 157 154 159 157 153 154 152 151 146 146 149 149 146 148 152 156 153 156 156 161 160 161 165 167 165 168 167 170 172 170 173 170 171 177 176 173 169 167 162 162 158 161 160 167 171 169 165 168 169 173 164 167 160 164 155 156 148 145 136 131 121 108 114 121 165 166 172 170 167 155 57 39 35 117 114 114 119 121 122 123 121 122 131 143 149 138 130 140 145 151 150 152 152 150 154 152 151 153 154 159 159 161 162 162 165 165 165 166 168 167 163 165 170 173 169 170 165 164 166 160 168 167 167 172 173 177 175 172 173 165 163 158 152 161 161 162 165 172 168 169 168 168 163 165 160 159 152 153 145 130 115 117 123 108 113 148 167 170 169 173 162 148 57 39 34 111 106 103 106 112 110 112 115 116 115 137 146 142 131 133 142 145 147 150 152 151 153 152 154 156 158 157 160 166 158 162 170 164 169 168 171 168 161 167 172 170 167 166 160 165 163 158 160 167 171 169 171 174 173 173 170 163 161 165 164 167 162 164 163 167 168 169 169 162 168 158 163 153 150 153 143 117 125 109 111 112 125 167 166 169 171 176 166 145 49 38 33 101 93 87 90 92 94 98 100 100 102 114 144 141 136 133 144 146 145 143 151 150 150 148 151 149 153 159 160 164 166 165 167 162 164 163 163 164 166 165 163 164 166 162 158 154 164 167 168 165 171 171 168 169 172 170 169 170 163 166 164 168 163 163 163 165 164 164 165 161 165 159 161 152 148 144 124 129 119 114 100 104 151 171 169 171 174 173 163 138 41 37 30 89 77 68 69 72 74 81 83 87 85 86 138 138 134 133 141 144 145 147 142 144 147 145 152 155 153 159 165 163 159 160 165 160 161 162 152 154 167 164 163 163 158 162 167 165 165 164 160 167 165 168 169 168 173 171 164 163 163 165 168 171 167 162 165 162 159 164 163 146 163 152 154 149 146 130 123 125 109 106 108 137 165 171 170 175 176 170 159 132 40 34 31 76 57 47 43 46 46 58 66 68 68 66 118 134 130 150 144 142 141 141 141 143 148 147 150 153 153 158 160 159 161 162 165 161 164 163 158 155 160 166 165 164 163 154 159 161 167 163 164 163 170 168 170 169 172 172 167 168 168 173 167 168 164 159 163 163 160 161 158 151 138 153 150 150 137 126 119 111 97 103 130 160 167 171 173 173 173 168 158 128 35 31 29 59 39 22 22 21 23 37 47 46 49 52 70 132 134 147 142 142 137 143 141 146 149 147 149 148 154 160 162 163 162 161 165 163 163 160 160 163 164 166 164 167 163 167 168 168 171 169 169 168 171 170 166 168 165 172 173 174 168 167 168 164 162 162 161 160 157 159 154 154 145 140 143 137 126 117 105 103 111 136 153 165 169 171 174 177 168 165 158 126 31 29 30 54 31 12 7 9 10 23 33 34 38 39 43 117 136 137 147 147 146 143 141 147 151 151 152 155 152 154 167 168 166 165 164 159 159 156 157 161 160 166 169 165 164 172 175 170 172 172 172 172 173 171 169 172 177 172 172 177 176 173 167 163 159 161 159 153 152 159 153 148 134 141 130 121 114 105 103 122 139 151 156 169 167 172 173 169 166 165 155 134 25 31 29 53 31 11 9 7 9 22 33 36 37 38 38 59 122 137 147 150 145 155 154 153 155 156 156 159 158 162 169 177 180 181 179 164 162 179 182 183 186 183 176 166 164 175 177 174 174 177 180 178 172 166 168 166 171 172 174 174 174 168 163 160 155 157 155 150 149 150 146 143 132 132 112 114 106 105 134 139 148 155 165 172 168 174 171 170 165 161 154 137 107 23 27 56 30 12 6 5 5 21 32 34 37 36 32 37 102 130 138 151 153 151 162 153 157 162 163 166 169 170 175 181 184 184 186 186 188 189 188 189 185 182 175 175 180 180 180 182 180 178 179 182 179 176 175 173 180 175 177 167 171 160 160 159 153 155 156 149 147 142 139 129 130 115 109 100 107 135 145 149 155 165 174 170 174 174 171 168 170 167 150 137 203 45 27 55 30 11 7 5 6 19 32 34 35 35 33 32 55 133 143 148 163 159 165 177 177 174 173 177 179 177 178 177 183 186 185 183 188 195 190 187 189 188 183 185 186 187 186 188 187 184 181 181 177 178 166 168 174 170 168 170 175 165 159 162 155 146 144 145 139 133 127 121 114 103 96 112 140 145 155 158 166 168 171 175 174 173 173 169 163 163 145 140 185 169 28 55 30 10 5 5 7 20 31 33 35 33 30 31 17 89 132 143 163 162 176 178 178 175 181 186 185 183 180 182 184 183 186 189 193 190 193 193 186 191 190 189 185 185 186 188 189 185 183 184 177 179 173 182 172 165 166 170 163 170 160 152 146 142 136 138 129 123 119 102 100 107 117 141 147 155 157 166 171 174 179 178 176 174 169 164 166 164 148 140 183 223 50 56 32 12 6 6 7 21 33 32 35 34 28 27 10 97 123 137 151 170 168 181 175 172 188 182 182 185 185 186 189 188 187 186 185 191 191 194 193 193 186 188 189 184 186 185 189 185 185 182 174 173 177 159 159 173 166 163 165 160 149 145 146 139 131 130 119 119 89 86 88 129 142 149 155 157 162 168 170 175 177 175 175 173 167 164 161 158 148 143 186 233 168 58 34 13 8 8 9 21 31 34 34 33 31 18 9 48 126 131 141 150 164 175 173 181 183 177 180 185 184 190 189 189 186 183 189 188 191 190 186 192 191 191 189 190 190 186 187 182 182 179 184 174 164 166 168 163 157 155 151 153 147 140 132 121 123 116 113 96 86 88 129 137 148 153 160 163 167 172 175 178 175 172 172 170 171 164 163 159 151 146 197 226 214 57 34 14 11 11 11 22 35 35 37 35 31 30 8 10 46 133 145 158 164 171 172 174 171 183 181 182 181 192 188 187 185 184 181 187 187 186 189 193 192 190 195 188 186 179 179 175 182 184 169 167 154 153 175 161 149 141 147 159 125 127 134 119 112 99 80 89 98 129 146 149 154 157 163 166 171 176 175 176 175 171 173 171 167 165 161 156 150 152 204 235 221 61 38 17 12 11 12 24 36 37 38 36 35 26 10 6 24 91 147 152 150 166 170 172 174 180 178 182 181 187 183 184 184 177 183 174 177 180 184 187 186 189 186 181 184 178 174 171 169 168 167 172 153 158 161 156 144 143 138 151 125 125 120 101 93 82 100 119 143 151 153 153 160 164 167 167 173 181 179 176 173 170 169 167 165 162 162 156 153 156 214 228 229 62 39 18 15 15 17 27 36 39 38 37 33 28 14 10 7 35 117 131 144 176 177 159 156 169 169 174 171 179 183 181 181 174 169 164 176 179 178 183 177 180 175 172 172 171 172 157 153 152 147 154 157 157 138 147 140 129 127 129 106 114 85 99 86 117 131 140 149 153 154 159 164 166 171 173 178 176 175 176 178 170 170 168 163 162 162 156 153 165 230 234 226 63 42 20 17 18 18 27 36 40 39 40 36 30 16 10 9 22 67 149 148 143 160 154 158 154 163 165 168 163 170 174 171 173 171 166 170 171 172 167 169 158 163 163 162 162 163 146 156 147 135 144 156 141 123 136 123 120 114 106 94 76 89 112 130 141 145 153 150 157 156 161 164 171 169 176 175 176 175 174 173 172 172 168 166 167 161 156 159 189 230 233 227 66 42 19 19 19 17 28 39 40 40 40 36 31 18 12 11 24 31 91 134 145 139 133 140 147 155 155 163 165 161 166 167 167 178 160 157 160 161 161 161 159 154 155 142 147 144 163 134 140 138 141 123 141 114 122 114 117 101 92 84 104 126 130 141 147 145 151 157 163 159 167 168 174 173 180 177 176 176 177 175 171 170 166 167 164 159 161 161 206 236 233 234 65 43 22 18 19 17 27 37 40 41 39 36 32 17 12 12 24 30 41 111 126 126 140 128 144 144 143 170 153 164 164 167 162 166 153 157 158 157 154 152 142 151 139 142 136 134 151 135 130 135 124 140 125 117 113 111 90 84 101 119 128 138 147 147 149 149 154 163 163 157 166 175 177 180 178 175 174 175 173 174 170 170 164 164 160 157 162 168 223 239 233 229 65 43 24 19 17 14 26 35 38 39 38 36 30 14 11 10 25 34 45 45 86 133 129 128 128 132 138 157 137 144 148 154 158 147 152 144 155 147 148 137 137 135 141 139 138 121 139 111 111 118 130 115 100 87 103 94 83 107 126 134 143 150 150 155 153 158 162 164 168 166 174 179 180 182 178 180 177 174 173 172 172 170 165 162 160 160 166 196 238 236 233 232 67 43 23 19 18 16 28 38 38 38 38 36 31 16 10 13 28 33 36 39 38 171 111 119 129 134 138 145 138 141 130 152 147 137 151 137 143 139 143 124 136 125 136 121 114 112 103 109 111 110 100 101 98 70 79 100 118 132 142 147 149 150 152 156 156 161 161 164 164 169 178 182 184 182 178 177 175 175 175 175 170 168 167 163 162 161 167 228 237 235 233 232 65 46 24 19 20 18 28 34 37 37 37 35 31 14 10 13 24 36 38 43 162 218 176 105 131 138 128 133 131 135 126 130 121 141 120 138 136 158 141 141 130 109 120 111 114 110 106 92 121 106 86 85 63 84 107 131 144 145 146 148 152 154 157 159 159 164 164 167 170 173 174 176 179 177 175 178 175 175 169 172 171 167 166 163 164 170 188 238 237 234 232 230 66 44 24 19 20 18 28 38 37 39 39 37 31 15 10 12 27 35 41 48 238 221 172 132 119 125 115 109 128 108 143 125 109 139 145 120 121 130 106 106 117 111 107 102 94 91 64 83 68 74 72 98 120 137 144 152 147 148 151 157 161 160 157 154 160 166 169 178 180 175 174 177 176 174 174 177 172 174 175 174 170 168 165 165 169 172 237 243 236 236 233 231 65 43 24 19 18 18 28 35 38 38 38 36 31 16 12 13 26 38 36 199 230 219 190 142 129 124 120 115 122 123 118 105 105 92 83 87 82 68 68 57 60 59 57 63 63 72 87 80 104 107 124 142 141 149 158 154 159 155 155 160 163 159 160 158 164 169 171 182 184 173 171 176 174 174 176 181 178 176 174 172 172 166 162 165 167 210 238 238 236 229 234 232
