P2
# Generated by OpenCV 4.2.0
92 112
255
114 113 128 104 113 92 68 58 47 46 83 94 134 149 164 174 175 182 180 188 189 190 191 188 189 186 185 180 173 168 160 159 138 113 79 78 85 92 74 81 77 70 69 80 82 76 65 56 47 49 51 49 57 65 67 60 63 68 60 52 50 42 39 37 44 51 47 58 44 49 63 67 53 82 76 59 50 42 37 38 49 50 46 46 25 31 29 33 33 82 77 87 127 111 127 105 88 83 54 48 37 52 78 127 149 161 173 170 180 185 183 190 192 192 193 191 192 190 188 185 182 178 167 161 146 131 115 79 70 78 78 77 72 69 66 64 62 66 59 67 69 63 64 64 64 54 60 56 51 52 50 58 57 45 39 37 44 51 45 44 51 50 45 50 62 51 69 71 58 50 38 40 38 51 47 42 40 29 32 34 43 53 74 84 123 95 111 106 74 82 54 50 69 94 130 154 161 171 180 180 182 185 187 187 188 189 189 193 193 188 187 186 183 181 175 170 161 146 131 118 89 64 69 65 64 69 66 58 51 51 47 57 51 55 49 38 42 46 51 41 50 53 50 46 48 54 54 49 37 57 45 43 49 42 34 38 43 63 53 56 64 61 50 39 41 40 60 41 33 35 35 33 43 34 68 76 113 91 109 101 64 78 70 83 125 143 157 167 173 180 185 184 186 187 192 189 191 189 190 190 193 192 187 185 182 178 173 170 159 155 142 125 115 94 74 60 65 71 65 58 56 52 50 48 40 36 43 34 35 31 37 41 50 49 51 51 41 41 42 60 54 54 52 46 44 47 44 39 40 33 43 49 57 56 45 42 43 43 44 53 28 27 32 40 27 39 49 67 90 91 109 99 81 80 88 129 156 164 170 178 183 182 184 186 190 191 192 192 194 191 193 190 193 193 187 188 185 182 177 176 168 158 151 137 123 104 99 92 71 55 63 66 62 58 44 42 42 51 40 40 37 41 36 32 40 46 44 39 46 51 43 39 42 54 49 49 42 48 50 45 34 35 33 44 42 43 41 37 42 41 37 47 40 21 28 29 35 48 37 62 70 82 86 94 88 93 132 162 168 170 178 178 185 186 189 188 190 191 193 191 190 194 193 193 193 190 188 191 192 191 187 189 175 172 165 148 130 121 105 99 88 82 71 66 71 69 66 63 61 56 55 47 44 43 42 42 40 30 42 37 35 38 40 42 50 43 44 52 55 52 40 48 53 39 32 28 31 40 41 40 31 31 35 42 47 28 25 29 39 42 42 48 72 75 77 90 88 113 161 175 175 179 181 181 185 186 190 190 190 192 191 192 193 195 190 190 192 192 192 192 188 187 192 189 186 177 176 168 153 139 118 108 96 81 72 67 63 66 67 64 67 62 58 54 47 45 44 43 50 46 51 54 48 48 49 48 44 43 36 42 38 40 45 39 45 46 44 34 28 27 29 39 43 39 33 31 40 27 20 24 30 32 54 35 77 77 71 97 85 121 158 175 178 182 180 183 183 187 187 189 188 189 193 195 195 195 192 195 190 191 194 195 191 192 194 195 188 190 182 176 168 154 136 124 112 96 83 77 71 64 61 58 55 56 57 56 54 56 55 52 53 53 48 42 41 38 35 29 30 29 29 36 39 40 42 41 38 38 42 46 39 34 27 23 31 29 24 23 36 28 19 23 25 29 46 40 80 80 73 92 76 128 157 172 179 179 180 181 184 183 185 189 192 190 195 192 189 186 186 189 184 184 186 186 190 188 185 184 186 190 189 181 180 175 167 155 139 123 108 95 80 76 70 61 59 58 55 54 52 48 50 53 47 44 42 38 39 37 34 36 28 23 28 29 26 31 34 33 36 37 34 36 43 37 32 32 28 34 25 22 23 28 19 17 31 31 35 41 77 72 71 91 71 128 161 170 179 175 179 181 186 184 185 189 191 190 189 192 193 191 196 193 195 194 195 193 190 189 190 186 180 176 171 176 169 174 174 174 175 171 157 145 130 109 94 90 85 80 78 75 67 58 57 55 49 49 47 42 43 41 37 37 38 37 32 25 19 22 21 23 25 31 34 34 31 39 32 28 34 28 21 22 20 26 21 9 16 34 27 41 83 77 77 88 69 126 161 174 173 172 177 182 185 185 189 190 189 187 187 194 193 192 190 191 192 193 191 195 195 190 188 188 187 184 183 177 184 182 182 175 173 168 173 169 164 164 158 145 135 131 127 124 114 103 100 88 76 66 63 57 56 53 47 43 37 36 33 37 40 34 31 26 17 17 24 29 33 35 35 32 27 30 21 20 21 20 24 17 15 31 32 34 86 77 59 68 70 118 152 168 171 173 181 185 184 186 190 192 189 185 191 188 190 194 189 191 188 192 193 192 191 191 190 190 183 189 188 180 181 183 184 183 181 176 175 176 177 176 163 148 157 158 155 149 143 138 135 129 119 111 104 95 90 85 81 77 69 55 46 39 33 29 34 41 42 39 39 37 30 32 33 36 31 27 23 21 18 19 22 17 16 22 30 30 84 77 64 62 73 135 159 174 174 176 179 182 181 184 184 191 187 183 188 195 191 192 187 190 184 185 188 189 188 189 187 189 188 190 188 186 183 185 184 183 183 185 181 177 176 170 164 167 163 157 162 158 152 147 143 141 137 139 135 129 125 124 122 117 109 100 80 65 54 45 38 34 32 36 41 36 35 34 32 26 27 26 22 22 22 24 23 24 15 17 22 25 82 77 63 66 118 152 168 175 176 177 179 183 179 179 177 186 180 186 188 187 191 194 191 190 193 189 194 189 186 190 193 193 189 190 185 186 183 182 182 177 180 183 186 184 177 181 176 169 164 162 163 159 154 147 149 148 149 150 148 144 142 141 140 136 134 124 113 98 88 76 65 53 49 40 44 31 36 33 34 28 35 27 29 24 19 25 25 23 20 15 21 24 77 76 76 101 149 157 175 177 177 178 178 179 177 174 175 171 178 187 191 194 191 193 194 190 190 186 186 190 184 189 191 192 190 181 185 179 179 183 180 177 189 184 184 183 177 180 178 172 166 164 163 159 156 152 154 153 153 155 152 152 149 147 143 141 145 135 123 116 112 105 91 83 80 65 63 58 59 44 39 33 43 43 34 41 33 29 34 28 18 15 12 21 83 79 82 118 145 168 177 177 173 166 178 177 180 180 177 184 187 190 189 187 191 190 192 194 190 181 175 180 190 191 192 193 191 187 192 187 185 188 191 186 191 182 185 184 181 184 176 169 168 166 162 161 156 153 157 158 158 161 161 155 153 155 151 146 145 142 130 124 125 118 109 107 103 90 79 85 61 70 60 49 49 50 45 55 52 35 35 40 27 12 8 18 79 68 71 134 151 173 179 178 173 174 181 180 176 179 182 183 188 190 192 189 191 189 190 193 189 193 184 178 180 180 179 175 173 184 175 175 167 169 180 181 177 180 187 186 184 181 178 173 171 167 165 163 160 157 159 158 156 161 157 149 146 147 148 147 148 140 131 132 134 124 112 111 118 106 96 97 75 89 75 71 65 42 45 56 60 53 35 39 35 17 10 13 75 71 78 140 156 169 174 177 176 171 177 181 180 181 182 188 189 186 189 189 198 190 182 185 180 180 181 187 188 191 194 197 191 195 190 184 186 186 188 189 188 185 184 182 185 184 179 173 166 165 167 162 158 164 161 156 155 160 158 147 140 143 148 151 146 133 128 133 133 127 119 111 120 114 104 106 83 82 76 73 74 49 52 43 58 45 46 42 45 27 11 13 76 75 93 150 158 161 171 179 172 172 179 181 182 185 188 189 188 188 191 193 193 190 188 187 192 194 191 189 191 196 193 197 192 195 186 189 195 187 192 189 192 189 188 189 182 181 180 176 169 173 165 163 161 167 163 160 162 165 158 150 151 149 154 145 138 132 127 132 129 121 121 114 114 119 107 105 88 84 79 69 74 47 51 51 47 50 53 45 39 39 19 12 76 73 104 155 159 163 171 179 171 175 182 180 185 185 191 193 191 191 196 201 196 198 192 191 193 192 191 193 189 190 193 195 194 192 187 197 192 186 190 190 189 182 186 190 187 184 184 172 172 172 166 166 165 166 163 161 159 162 154 153 156 155 152 141 133 127 128 127 132 116 114 114 102 114 102 101 88 80 70 70 61 44 40 45 50 44 49 43 44 30 35 26 84 63 113 154 161 164 170 173 169 173 183 184 190 186 179 190 194 194 198 199 197 192 190 192 196 195 195 195 192 193 190 191 193 192 191 190 188 185 185 189 193 186 188 190 186 178 178 175 169 166 165 167 167 165 162 156 158 156 159 156 154 150 149 141 131 128 130 126 121 115 108 112 108 105 96 90 83 70 62 68 59 49 36 39 54 39 45 43 43 30 36 24 65 50 120 158 162 169 174 174 176 180 181 185 191 193 183 192 194 193 194 197 198 196 197 194 197 198 195 192 192 197 187 191 192 189 193 187 191 188 187 187 187 183 184 184 184 180 179 174 178 173 172 162 164 161 156 156 157 157 157 154 152 150 146 137 128 126 126 123 120 116 114 105 109 99 97 80 75 65 62 58 57 45 37 38 48 42 40 36 42 42 23 34 46 49 128 155 155 167 172 175 178 180 182 184 195 199 196 195 198 195 195 197 194 195 202 198 201 198 193 192 192 195 192 192 187 192 189 191 194 192 189 194 193 187 188 189 186 187 184 177 179 172 176 166 164 163 160 159 154 156 157 154 152 144 143 132 124 122 121 124 118 114 112 106 103 96 88 81 71 57 62 53 55 38 38 31 39 43 36 36 32 39 38 24 58 51 136 149 156 169 174 175 177 179 181 184 189 192 190 195 197 194 197 200 199 199 195 197 199 195 198 197 195 189 196 197 195 195 194 195 191 195 191 192 190 193 196 193 192 186 183 174 167 172 173 168 164 162 157 157 154 156 154 149 148 143 129 121 118 117 118 121 117 116 115 110 101 87 75 75 65 62 52 53 49 45 40 33 31 30 39 32 27 36 43 28 42 55 133 147 154 165 174 175 175 174 181 187 184 191 192 190 193 194 193 197 198 196 198 200 200 191 191 192 195 192 195 197 191 193 194 191 194 197 192 194 199 197 192 189 191 190 179 172 167 169 165 165 163 163 159 161 161 157 155 150 147 146 127 119 113 114 113 120 114 114 120 114 103 91 76 69 57 61 51 45 57 43 39 43 38 39 35 39 25 26 43 37 41 48 134 147 153 162 172 174 174 177 180 179 184 189 188 187 190 192 193 192 198 199 197 199 199 192 185 192 194 196 197 194 187 192 190 192 193 196 193 193 194 189 192 193 186 180 176 173 168 166 165 163 162 160 162 164 162 155 156 146 144 132 123 116 112 116 115 118 119 121 124 115 102 83 70 61 57 55 48 39 35 47 39 43 45 38 29 27 33 26 39 40 52 56 126 145 154 166 172 173 174 178 176 178 181 188 186 181 185 189 189 191 194 191 189 188 191 189 187 190 189 198 191 189 183 189 190 190 189 189 185 186 183 184 179 183 183 178 169 171 170 168 166 163 163 165 163 160 158 159 155 151 145 133 125 118 115 120 121 123 118 121 111 101 90 79 68 55 52 53 46 40 25 36 44 38 40 40 38 33 40 30 42 39 49 53 126 153 159 167 175 182 185 183 181 182 182 186 183 181 184 186 184 183 183 181 187 191 189 185 185 187 186 181 189 187 184 188 193 188 192 189 177 176 179 176 179 181 180 178 167 168 172 167 169 166 162 160 164 163 160 156 149 152 144 138 130 124 120 120 113 105 104 102 98 106 91 71 70 58 47 44 47 40 36 29 28 32 38 40 45 43 38 38 38 49 57 49 121 153 172 177 193 191 190 185 182 185 185 179 180 177 175 177 182 180 175 178 178 179 182 178 183 182 186 181 182 190 187 187 187 183 183 185 175 172 168 176 182 182 181 181 172 174 167 166 170 168 164 162 164 167 168 158 152 155 149 143 134 124 122 118 117 109 104 103 107 106 82 76 74 60 45 42 39 40 31 34 26 28 32 29 36 40 47 59 62 72 67 62 117 162 180 185 183 181 175 176 173 175 176 179 180 174 173 172 177 174 172 176 176 179 173 177 187 187 186 183 185 178 179 177 177 172 174 176 170 171 172 184 186 185 178 177 176 173 165 169 172 170 167 169 168 166 170 172 165 159 155 146 140 131 122 117 115 110 107 112 109 99 85 83 77 66 44 36 31 40 40 25 27 25 22 21 23 32 32 47 50 53 73 82 139 173 170 162 156 155 151 152 148 148 159 151 148 149 150 159 161 166 164 170 169 170 168 166 174 177 178 182 182 172 172 175 177 171 171 172 169 167 168 172 182 175 168 165 162 157 157 159 155 151 152 159 159 155 161 171 170 162 163 149 147 143 137 123 118 113 112 103 98 93 91 94 88 75 59 44 32 27 35 42 36 25 19 16 17 20 29 30 39 42 82 105 143 156 151 155 143 135 134 127 124 120 122 117 108 107 117 134 148 160 160 164 164 160 161 161 166 166 173 173 168 171 166 161 162 162 163 163 160 155 149 142 129 136 128 136 136 142 141 136 132 132 133 132 134 140 145 145 149 157 154 152 154 147 138 132 129 123 110 97 96 87 88 93 89 85 73 54 38 28 25 35 25 23 25 17 20 23 24 26 25 31 82 88 125 133 123 120 120 110 100 94 102 104 96 87 81 90 88 114 126 135 144 151 151 147 152 158 162 168 166 164 160 165 168 164 157 156 156 150 146 143 130 106 102 100 98 107 100 86 100 102 100 105 102 118 125 117 124 128 134 132 137 142 146 147 141 128 133 128 119 107 96 86 87 89 93 91 82 72 54 39 27 41 32 22 20 20 9 18 25 24 28 28 89 80 131 118 107 101 105 87 79 68 70 74 67 64 62 77 85 95 107 120 134 138 137 143 140 152 154 153 152 159 160 154 150 153 150 149 147 137 132 123 111 95 94 86 70 65 67 79 66 70 84 92 91 101 104 106 105 104 99 107 116 121 123 130 133 130 124 120 115 112 105 96 90 92 94 93 83 81 67 49 38 34 46 25 23 22 26 15 23 30 27 27 80 70 123 120 108 99 97 87 80 66 56 56 46 47 55 59 68 77 90 103 123 127 124 130 133 145 142 144 143 144 145 150 143 140 144 136 134 129 125 104 95 94 79 56 48 52 50 47 49 58 67 66 59 63 66 69 78 88 98 97 94 99 109 112 124 131 121 113 103 106 104 105 102 97 89 91 87 82 74 58 50 44 49 29 20 16 21 27 24 30 31 31 88 74 90 123 102 87 90 92 99 95 90 81 67 61 57 52 58 65 73 86 93 106 111 118 124 124 122 132 134 138 139 136 130 131 121 126 123 112 100 93 77 74 63 55 50 49 49 49 48 49 48 58 58 63 70 71 78 82 75 75 77 83 85 94 104 104 107 110 103 101 101 101 101 90 94 93 93 88 79 67 54 57 45 30 24 23 17 24 32 36 32 30 85 75 71 138 101 99 111 119 118 129 135 138 129 127 113 81 65 64 57 64 75 88 90 96 103 111 112 119 126 130 134 130 124 117 109 105 106 95 83 73 64 56 55 50 47 50 52 66 79 99 110 117 115 116 112 111 105 95 92 93 90 88 93 96 96 98 100 101 96 98 97 99 101 105 97 97 89 91 93 78 62 65 54 31 22 23 16 21 24 27 35 28 92 60 81 137 106 105 126 138 137 149 147 143 134 131 134 121 114 101 79 62 56 58 68 78 85 93 106 116 124 140 142 133 114 105 101 94 81 75 64 57 50 51 53 61 76 95 106 123 132 145 146 144 145 140 139 129 123 116 103 86 81 86 84 84 89 93 98 98 100 100 99 99 104 103 103 91 94 94 91 80 70 56 61 29 21 31 25 20 22 25 21 19 92 63 76 133 120 109 128 125 106 85 93 95 99 110 108 112 123 118 105 97 79 60 52 56 66 82 93 108 137 155 154 138 115 100 84 78 67 58 53 51 55 62 68 86 103 114 117 131 138 136 139 150 147 142 139 130 130 125 119 108 95 88 83 76 76 83 92 100 103 100 101 99 95 100 97 94 100 100 91 82 71 59 65 28 25 27 27 30 29 26 20 23 86 66 70 133 129 128 94 83 129 141 144 139 135 127 103 80 63 82 94 96 93 89 76 62 59 66 95 129 162 167 166 157 141 121 99 75 64 59 54 59 66 75 85 92 101 101 93 75 81 83 89 90 94 83 104 115 112 119 110 112 102 92 86 85 88 90 97 102 103 104 107 103 101 99 95 102 103 97 92 86 67 63 62 31 27 22 36 34 40 33 23 34 76 70 64 129 141 129 80 115 106 102 66 47 62 62 68 88 86 77 62 72 97 93 93 82 76 65 85 127 159 174 175 168 146 128 107 85 70 61 56 69 71 78 87 90 70 45 70 98 98 120 115 127 123 117 95 85 65 57 71 92 104 104 101 96 92 94 103 110 109 104 104 108 112 105 103 110 109 101 93 87 67 77 60 30 25 28 34 47 52 45 26 43 92 60 65 134 131 91 105 95 70 62 61 63 56 48 57 57 67 79 71 65 60 83 87 80 85 80 96 128 170 182 187 172 152 128 102 75 65 63 60 71 76 79 92 77 58 77 81 70 45 41 88 78 69 69 59 75 86 87 76 58 55 86 109 114 110 112 106 106 109 108 109 111 112 108 111 114 107 104 90 87 73 78 65 34 20 27 37 44 45 47 27 48 113 75 76 134 130 114 78 55 58 102 46 67 50 27 70 66 84 98 71 60 79 75 81 83 93 106 109 133 171 188 190 175 156 130 101 85 86 81 75 80 86 92 75 71 78 66 53 79 41 55 40 19 54 57 38 70 57 51 52 73 75 60 80 107 107 102 98 100 107 109 115 118 114 113 120 119 112 104 88 85 79 77 66 36 26 28 38 46 47 50 30 52 148 78 85 131 138 116 116 115 113 112 51 73 79 81 95 69 112 134 130 97 79 62 73 125 152 135 122 149 180 189 186 172 160 130 103 94 98 99 104 117 128 102 91 70 50 44 104 143 54 85 60 51 66 57 33 81 72 55 42 32 53 81 92 81 82 96 103 105 107 113 119 112 115 115 120 115 113 105 94 84 80 86 57 40 23 26 41 54 46 46 43 55 193 104 90 140 139 136 142 136 138 143 118 66 61 84 93 112 137 130 119 110 112 116 128 153 162 147 138 164 186 182 180 175 160 130 106 102 110 110 126 152 149 123 97 97 99 105 108 135 91 63 89 81 81 55 63 89 90 93 78 79 76 71 73 75 85 90 97 104 108 113 117 117 118 116 118 114 110 99 90 91 72 91 59 33 29 30 45 49 43 51 53 63 201 150 98 143 152 151 154 142 138 133 139 143 144 143 147 136 142 140 135 136 148 160 165 168 162 145 145 174 185 187 176 172 155 134 117 113 119 116 120 143 158 171 160 141 134 130 121 142 139 133 128 119 107 112 134 121 120 114 103 100 109 116 118 119 116 114 113 117 118 118 123 119 122 117 119 111 108 97 96 90 79 96 51 32 37 39 49 48 44 51 66 80 193 180 108 150 157 156 149 138 137 131 136 130 115 123 131 123 125 118 114 127 153 163 160 163 153 148 156 177 182 174 171 161 148 139 121 116 122 121 125 153 166 169 159 152 132 129 125 130 126 122 127 148 119 113 117 114 112 109 109 108 109 118 124 129 127 123 128 123 128 127 126 125 125 116 118 115 109 105 102 90 83 90 45 27 34 40 50 46 45 59 56 81 196 186 134 164 167 160 156 146 120 109 114 111 119 109 109 99 108 118 136 144 156 165 162 163 159 157 166 187 184 172 178 161 150 136 125 123 120 126 129 146 170 163 163 155 138 125 129 134 131 135 129 129 117 119 114 113 107 99 92 93 115 136 138 150 145 130 135 136 140 133 134 132 129 119 121 111 112 101 103 85 83 81 36 33 33 46 53 46 48 64 30 49 191 191 154 165 168 172 167 159 146 119 108 97 91 92 106 116 127 131 153 164 166 164 172 170 163 154 177 191 184 172 174 160 151 136 130 131 126 128 133 140 156 167 161 161 158 139 129 103 106 100 103 107 106 101 97 94 90 96 107 120 124 131 136 140 129 143 146 141 136 139 139 131 123 120 118 114 110 101 104 80 85 69 34 38 37 50 50 47 55 58 21 24 193 195 170 173 175 176 172 158 152 151 147 129 118 117 132 136 146 150 157 164 174 178 177 167 160 159 184 190 183 178 171 160 148 138 130 128 129 127 137 142 162 165 176 166 165 162 157 151 138 107 90 74 74 75 77 74 89 104 117 132 139 134 131 133 141 137 146 143 146 149 143 138 129 122 117 113 107 104 100 81 86 51 37 40 40 45 48 50 63 43 29 27 195 195 178 172 181 178 169 161 153 151 150 146 155 156 163 163 163 161 164 173 184 182 174 163 163 167 191 191 186 178 170 155 147 133 128 127 128 132 140 149 147 162 166 173 172 161 156 153 156 148 145 142 136 129 128 127 130 134 147 147 140 134 145 148 151 156 149 151 147 143 137 137 128 119 118 113 107 106 93 82 85 42 43 41 40 46 57 63 62 47 49 36 195 196 184 175 184 183 176 169 166 169 171 168 167 154 154 155 162 169 178 178 183 176 166 161 163 174 194 192 185 180 166 153 145 134 128 133 133 137 145 150 154 147 172 174 187 176 166 161 161 159 158 154 155 148 136 137 139 138 144 150 150 155 159 154 156 163 161 159 148 144 141 134 126 116 115 114 110 105 95 79 73 41 45 38 50 45 79 98 64 59 70 54 191 192 180 176 182 187 188 184 184 176 170 167 158 162 157 166 167 176 183 181 180 172 168 167 166 183 194 192 183 181 166 151 144 140 134 133 138 142 142 148 152 147 162 172 180 189 184 172 163 161 162 161 163 166 162 161 162 158 159 159 153 157 158 167 163 163 161 155 150 142 137 130 119 117 115 113 110 101 91 83 61 42 47 45 58 55 91 113 101 62 87 73 194 193 175 177 183 188 189 191 188 181 184 180 181 177 177 182 183 184 179 178 175 170 166 167 173 191 197 192 180 176 162 155 146 142 139 137 139 145 146 143 146 150 153 174 175 185 184 187 180 178 172 178 181 175 173 171 173 174 175 171 173 173 173 170 169 164 161 157 148 139 131 126 121 116 109 106 111 99 93 86 53 41 51 56 69 75 105 117 104 83 92 94 195 193 169 170 181 188 190 189 190 192 192 189 190 185 187 188 191 184 178 172 172 168 165 169 180 196 196 186 184 171 167 155 146 139 136 140 140 141 147 147 147 152 154 169 179 184 190 192 196 187 183 180 180 179 180 179 178 175 176 175 175 174 177 172 170 160 154 149 143 138 131 127 120 110 113 106 104 98 91 79 51 42 58 70 73 86 101 110 97 98 117 119 195 193 163 167 182 183 189 193 189 187 194 190 194 194 188 182 187 183 178 174 174 168 167 184 192 191 191 186 179 173 166 154 144 139 134 132 134 137 142 143 138 147 157 162 175 185 194 193 188 184 183 184 181 182 177 179 178 180 180 179 178 176 172 168 165 157 148 144 135 132 126 116 115 114 111 106 105 97 87 73 56 45 55 78 82 89 102 107 89 92 117 131 193 191 157 165 176 186 185 186 191 193 189 191 193 190 190 188 183 177 173 179 175 170 175 188 194 191 186 183 184 174 166 151 139 134 133 136 134 137 135 136 142 145 158 166 188 180 191 192 195 192 189 191 186 177 172 177 180 179 180 179 178 171 170 164 159 152 137 136 125 125 115 119 113 107 108 101 98 95 83 67 62 51 62 82 91 95 100 105 90 100 118 125 194 195 156 156 170 179 186 187 191 194 190 193 193 191 191 192 188 186 177 175 168 171 187 196 188 186 186 186 182 178 169 161 141 134 129 134 136 137 133 129 134 146 155 163 177 184 187 199 195 192 194 189 192 191 186 182 177 182 179 175 172 167 168 162 154 146 136 132 118 118 115 110 102 107 102 93 99 97 91 66 58 56 72 83 95 105 110 94 93 112 133 131 193 192 160 165 172 181 186 188 191 189 188 189 192 194 189 187 188 183 175 176 173 177 186 192 190 188 189 184 179 166 161 159 144 132 130 134 140 138 139 135 132 145 159 164 174 187 191 195 189 191 195 196 191 189 193 186 181 182 177 175 175 172 164 157 150 147 137 123 118 114 107 104 101 100 105 99 103 93 85 67 64 66 84 91 96 106 109 95 93 104 128 142 195 195 168 169 178 183 184 186 189 192 194 191 192 193 190 185 190 182 182 169 167 176 182 188 191 196 193 191 180 164 156 155 151 134 132 141 150 149 147 136 127 144 154 156 180 185 184 185 191 191 187 196 193 190 190 184 181 181 177 176 171 169 165 159 152 143 133 130 124 109 99 107 104 100 98 94 98 94 90 74 69 74 86 96 96 105 106 86 85 103 137 157 197 195 174 167 173 178 180 180 181 186 187 190 189 189 192 190 189 175 165 173 162 170 171 171 177 177 185 183 168 150 144 141 140 133 139 146 151 156 149 141 136 139 151 165 177 171 183 179 186 186 185 191 187 188 189 185 179 178 177 169 165 164 165 158 147 135 130 129 114 113 104 105 98 100 101 93 95 92 89 80 78 78 92 94 96 108 98 76 97 130 149 151 198 196 175 164 166 174 175 181 174 182 182 183 186 189 179 166 165 161 155 172 145 150 149 145 149 149 154 150 143 135 125 116 115 126 144 152 154 156 147 142 139 130 150 155 167 176 174 174 180 183 182 185 193 194 189 181 177 177 165 166 157 160 156 151 146 141 133 121 118 115 103 103 100 95 90 95 99 94 90 82 84 83 92 94 97 104 117 120 134 147 148 133 199 199 180 157 163 163 168 173 170 171 174 177 174 178 174 165 163 156 163 153 118 109 118 125 127 136 137 127 115 104 87 94 103 112 124 136 142 150 150 144 137 127 131 153 163 165 164 167 173 174 180 180 176 178 181 176 174 167 164 161 157 152 150 145 143 134 128 120 115 111 103 103 98 95 100 95 93 98 92 84 88 85 92 92 96 90 98 131 140 140 134 132 203 199 184 142 158 158 165 166 167 163 165 162 170 165 165 159 152 146 156 129 94 87 87 90 100 116 111 105 94 86 78 76 79 82 92 108 119 128 136 138 129 115 120 149 154 155 155 161 163 162 166 173 169 170 169 165 167 164 161 157 144 139 137 134 129 124 124 117 117 111 104 100 90 82 88 92 98 91 91 85 88 86 97 96 93 80 87 113 125 124 129 138 204 201 187 136 147 152 156 157 157 157 159 161 157 156 157 148 148 147 146 101 73 51 65 68 84 96 86 82 76 71 60 53 50 49 64 82 95 105 115 119 120 105 109 147 151 151 153 145 150 155 157 160 163 164 166 165 153 160 146 144 139 133 131 125 127 124 122 109 108 107 99 95 95 90 90 97 95 93 95 86 90 91 97 100 97 96 113 123 127 128 132 140 203 204 198 140 138 143 151 150 149 154 148 145 157 147 144 138 140 154 161 87 53 21 18 39 63 66 62 63 66 45 24 17 14 8 6 15 42 74 94 101 100 88 109 144 152 152 151 145 143 153 165 166 163 153 141 139 146 144 140 134 130 128 123 118 119 116 113 108 103 102 102 97 95 99 104 98 98 95 87 89 88 96 99 108 103 111 119 136 141 146 146 146 203 202 202 138 135 136 141 144 142 144 141 143 140 131 128 133 140 159 162 130 49 39 25 18 31 55 58 59 57 45 38 32 30 21 23 26 18 34 61 70 75 78 123 138 145 149 143 137 136 143 154 157 147 143 142 148 145 130 126 124 124 123 118 112 113 109 104 102 97 96 99 101 94 93 98 102 101 97 91 95 92 98 102 106 112 129 138 138 146 149 153 154 203 202 200 155 125 129 133 137 143 135 132 129 119 112 115 123 148 159 160 159 134 82 49 54 61 52 48 48 55 50 43 40 44 46 47 40 36 39 46 55 63 98 125 139 142 146 145 147 127 119 127 117 128 134 140 142 133 131 127 123 119 114 107 104 101 96 96 97 95 93 92 97 97 98 103 103 102 92 98 94 92 99 102 107 118 132 135 139 149 149 152 142 202 205 202 183 118 118 122 123 128 127 119 110 105 112 116 142 156 159 164 163 148 135 107 95 82 76 62 54 48 43 41 44 54 54 66 71 70 70 65 77 101 120 128 141 145 150 149 152 146 121 105 118 127 136 136 138 130 125 117 112 110 104 102 96 94 85 88 88 88 91 88 94 98 103 107 103 103 95 97 94 93 92 103 104 120 134 131 136 143 134 130 119 203 204 204 197 118 119 111 119 120 110 104 95 102 124 149 155 160 163 172 174 167 160 144 136 131 114 111 90 63 53 59 71 93 99 112 108 117 124 126 133 140 143 144 146 153 156 153 153 148 140 123 92 107 124 131 139 127 122 126 116 110 103 94 90 81 79 82 79 87 92 89 89 99 102 101 105 102 105 101 98 95 95 104 108 115 123 118 120 120 114 110 86 202 205 206 207 136 113 113 113 113 105 84 88 131 152 156 170 163 166 164 164 168 163 141 128 141 135 133 114 96 90 95 97 105 113 117 118 129 132 132 135 140 146 151 144 156 155 151 151 149 148 141 126 90 73 78 90 104 117 116 115 107 102 93 82 79 76 75 79 82 85 89 91 97 100 108 108 104 100 95 90 93 96 102 104 104 101 94 95 92 84 75 74 200 203 204 203 179 103 113 117 110 101 92 139 156 153 147 151 153 160 169 154 153 148 151 153 149 141 132 137 137 142 129 122 120 134 125 123 131 130 133 135 140 151 153 143 146 149 151 148 142 147 135 136 126 118 75 78 105 122 129 118 109 98 94 84 79 74 72 75 80 82 87 92 98 105 108 99 102 97 94 89 89 96 102 100 91 72 71 58 58 54 63 132 199 202 203 204 195 113 110 117 100 86 115 148 145 157 146 143 157 158 159 150 152 147 138 153 145 138 145 132 129 145 147 139 136 146 142 136 131 117 126 130 133 133 146 142 140 143 140 141 139 137 131 136 133 126 133 110 77 87 95 90 99 103 89 81 75 75 73 75 86 88 90 91 91 102 107 100 97 98 92 92 88 94 103 103 69 61 68 25 38 36 92 184 197 201 201 203 201 134 106 114 99 95 139 141 150 149 142 142 152 147 144 142 148 137 144 149 145 146 125 135 136 143 149 136 138 147 141 144 136 126 123 129 138 122 138 136 130 128 129 123 115 116 119 120 117 128 117 91 82 63 59 85 88 91 88 80 72 71 73 81 81 89 96 95 93 99 105 99 94 93 92 90 88 90 99 98 67 64 72 25 34 41 124 194 199 198 201 203 203 155 115 105 103 107 134 145 149 133 139 154 158 154 147 151 152 148 145 151 152 145 149 141 144 147 152 142 141 148 141 135 145 141 133 138 144 129 131 136 134 131 125 132 132 113 101 99 110 118 117 112 102 79 64 76 78 79 83 86 79 80 81 90 90 98 95 91 96 100 108 100 99 97 100 91 87 88 97 89 66 71 79 24 36 38 151 195 199 199 201 202 200 162 121 109 107 118 138 133 129 130 125 146 156 157 159 159 151 144 161 147 143 140 146 140 156 158 154 150 146 141 133 138 140 141 135 134 131 133 141 125 133 132 126 121 114 105 111 97 103 92 107 115 99 102 81 72 96 95 91 90 83 83 81 86 92 94 97 92 95 96 103 101 101 94 91 84 90 88 93 88 75 79 80 28 32 92 184 195 197 199 202 202 202 181 131 110 109 118 134 129 120 112 105 141 147 142 151 151 153 151 155 151 164 151 154 152 161 161 156 162 154 144 142 139 124 134 137 133 129 131 134 134 124 129 127 128 121 102 98 82 80 95 90 113 109 108 93 88 107 102 93 88 86 86 87 94 96 95 95 96 99 96 96 95 97 96 88 90 90 90 90 87 80 85 82 37 50 170 195 201 196 198 200 201 204 195 130 120 117 119 128 123 103 97 109 114 131 143 134 133 126 129 128 132 134 140 145 151 156 165 162 155 145 125 120 109 112 112 112 114 108 104 99 102 108 108 109 112 83 79 76 59 69 77 74 88 97 98 104 90 112 108 91 88 87 90 96 97 100 94 92 94 96 94 94 100 95 101 82 93 86 89 91 89 85 88 87 19 93 186 195 196 196 197 199 200 204 199 140 124 115 121 122 118 104 83 87 106 102 93 101 107 115 118 121 110 103 98 99 98 105 112 106 91 89 97 90 96 101 109 105 104 98 92 88 79 74 64 55 54 81 73 65 68 46 62 59 80 97 98 104 93 113 111 92 92 92 89 98 105 99 93 91 92 97 97 97 90 93 97 83 92 86 89 89 87 90 90 88 20 143 190 193 196 197 199 199 201 205 204 154 130 123 125 132 123 102 97 96 78 45 63 72 80 73 74 77 87 101 96 83 77 72 74 66 81 87 80 83 88 91 86 76 70 64 68 68 66 70 61 56 63 51 39 25 37 68 84 77 91 99 106 109 109 118 109 93 93 89 92 109 101 104 97 97 96 94 90 93 92 97 86 80 87 83 89 86 92 90 96 90 39 179 194 193 197 197 198 200 201 203 207 167 136 126 129 135 131 103 100 111 122 113 75 50 56 45 37 37 38 38 49 53 45 48 46 45 49 51 47 52 48 48 45 36 39 37 39 38 44 47 46 44 30 27 58 92 107 117 112 101 104 113 118 108 112 129 108 95 87 92 104 109 97 99 100 96 93 95 96 86 92 94 72 77 82 82 86 82 94 94 98 92 80 187 193 194 195 195 197 199 200 202 202 178 138 133 134 132 139 126 123 128 141 140 144 117 91 84 93 105 96 84 77 67 61 60 56 46 50 62 72 70 81 80 94 95 96 84 76 78 72 65 68 77 91 115 127 130 127 124 122 121 121 128 123 111 118 115 105 93 87 107 109 105 100 94 90 97 90 89 90 82 86 92 70 82 81 80 79 81 92 95 97 91 140 188 192 193 194 194 197 198 201 201 201 182 144 133 127 135 138 138 138 139 144 152 154 144 133 124 136 137 133 132 140 136 138 130 130 134 143 136 136 135 137 127 123 116 116 119 110 111 109 111 115 128 132 128 128 137 136 123 125 123 131 136 119 109 116 114 102 85 99 110 110 107 100 94 88 97 89 93 90 89 83 82 71 81 81 82 80 80 92 96 100 94 142 188 191 192 195 192 194 195 198 198 197 193 145 133 136 135 136 144 147 150 148 154 157 151 141 137 131 137 141 148 152 156 158 150 147 157 161 150 145 138 138 133 134 135 123 118 113 122 120 125 130 125 135 131 135 139 134 140 135 142 138 133 116 106 116 112 101 95 104 107 111 108 99 94 89 93 85 85 87 85 81 83 81 82 74 78 80 80 92 98 102 95 160 190 191 193 194 191 192 193 195 196 194 195 155 135 130 133 136 142 149 149 155 158 162 162 146 147 148 133 135 133 140 144 151 151 148 151 156 154 152 145 140 133 127 132 129 135 140 132 125 127 130 128 129 131 133 133 139 138 141 145 138 129 114 112 113 104 93 88 103 113 111 104 89 96 89 89 84 84 90 86 81 80 78 78 68 75 76 85 95 102 104 126 193 190 190 191 192 189 188 189 194 192 194 187 167 128 127 132 137 139 147 153 162 164 159 154 160 149 129 143 145 140 140 140 138 138 139 138 145 146 144 137 134 146 142 135 134 134 128 124 115 128 125 129 129 130 132 135 137 137 149 143 135 119 115 117 111 98 94 104 116 111 110 100 93 95 83 88 88 83 87 88 76 82 71 70 66 67 71 88 96 101 109 128 194 190 190 191 193 187 184 185 189 188 191 192 178 130 129 135 134 133 143 156 160 161 162 161 157 158 146 129 129 127 131 138 136 126 129 125 122 126 121 123 124 127 120 123 125 128 128 127 131 130 131 128 132 136 140 140 142 144 141 138 134 117 108 114 107 111 109 111 112 104 105 100 93 89 87 89 87 86 88 87 74 70 70 61 70 66 71 90 96 100 103 127 191 187 188 189 190 188 183 182 185 185 188 190 176 135 128 136 134 131 136 141 156 164 161 155 152 153 149 153 141 135 123 126 125 118 113 113 114 121 118 131 124 131 131 127 137 136 130 128 122 125 120 129 133 140 142 140 141 141 144 143 138 123 122 115 106 105 108 111 113 98 97 99 93 87 91 90 93 81 81 77 68 66 64 62 60 66 75 90 97 106 104 130 185 183 185 187 189 190 183 178 178 180 185 188 188 159 127 138 140 131 139 146 156 163 161 158 159 153 148 146 144 154 147 148 145 134 130 130 130 125 141 132 139 134 131 137 134 129 125 129 115 122 122 135 136 140 142 142 144 139 140 134 125 121 122 117 108 103 106 110 111 102 98 96 95 91 89 85 88 81 74 71 65 66 57 58 54 65 78 92 97 101 105 128 178 181 180 183 184 191 183 175 173 180 183 186 190 174 128 131 132 127 138 152 163 161 160 156 153 154 148 149 146 150 144 139 142 136 141 139 126 123 133 119 140 115 118 126 113 118 122 107 136 123 130 140 141 141 141 144 147 137 129 125 130 127 124 113 107 108 109 112 112 98 98 90 94 94 90 88 85 85 64 73 68 67 58 58 54 65 81 90 100 108 104 122 175 178 180 182 181 195 184 176 172 173 178 184 193 179 143 129 141 136 142 148 155 159 162 157 155 150 148 147 138 151 135 126 132 114 156 137 123 124 133 128 103 130 114 124 120 128 120 122 127 132 134 137 137 140 144 142 134 126 124 123 126 123 117 108 100 101 104 102 99 90 96 88 94 88 85 84 79 93 64 65 56 61 56 57 58 71 82 95 98 104 99 124 173 175 175 178 180 201 192 181 173 172 178 179 186 183 156 125 138 134 136 144 146 157 160 159 156 155 150 146 147 142 154 138 134 141 130 138 120 132 122 113 122 127 117 125 126 118 121 128 132 133 138 143 145 147 138 136 142 135 128 130 129 123 118 107 100 100 107 108 101 99 96 85 90 91 86 82 73 77 67 61 59 53 53 58 68 78 87 95 105 103 100 124 169 171 173 174 176 205 195 185 177 173 173 177 183 188 180 131 134 136 134 138 147 158 155 161 161 154 150 149 145 148 143 141 140 132 132 124 126 131 123 118 126 124 131 134 133 133 133 132 138 142 146 151 152 146 147 142 129 128 124 131 126 114 109 103 99 104 102 104 95 90 89 84 84 85 80 80 71 63 65 56 61 47 48 62 69 80 92 102 107 104 101 129 165 168 173 173 175 210 200 192 182 174 169 175 180 181 175 139 125 137 137 134 141 147 156 160 156 155 150 150 157 155 149 147 142 136 134 136 136 117 123 118 125 132 134 142 152 142 145 143 146 149 148 151 149 139 142 135 130 132 136 125 117 104 107 104 102 101 101 92 92 86 79 83 78 80 81 66 61 62 59 55 50 51 59 67 75 82 93 103 105 101 107 127 163 167 172 172 172 213 205 198 187 179 172 173 175 179 184 150 126 126 130 138 145 151 146 152 167 163 165 162 161 157 155 161 157 152 148 135 124 122 130 129 145 151 150 152 130 135 145 151 151 155 157 156 146 144 140 134 142 125 132 122 111 99 109 99 101 103 95 91 95 81 75 75 81 72 70 63 60 60 48 51 47 56 67 70 81 87 98 106 103 101 107 127 166 165 166 169 170 219 212 203 194 185 176 173 172 176 182 179 145 122 127 133 139 141 145 150 162 163 167 167 159 164 167 169 172 172 170 165 156 158 158 159 164 160 160 153 149 153 151 158 159 158 158 151 139 136 128 132 139 133 116 111 108 107 97 102 96 99 92 93 89 79 77 63 63 63 61 59 59 54 49 48 54 62 72 78 84 87 103 101 104 101 105 124 168 165 166 170 168 220 216 207 200 189 181 172 169 171 178 181 152 116 123 123 136 145 150 153 158 162 171 167 174 180 178 172 175 176 170 171 176 181 175 167 169 166 165 162 167 167 167 171 167 167 163 157 147 137 137 135 123 117 112 110 104 99 90 95 95 91 91 85 81 67 64 60 55 53 58 60 49 47 45 49 60 70 74 84 93 94 106 103 104 103 104 119 171 163 163 163 166 222 219 212 204 194 183 175 169 169 173 180 160 160 117 120 131 146 155 165 166 170 177 178 182 176 177 173 177 175 172 177 173 174 172 170 170 171 164 165 161 163 160 165 165 157 151 151 142 127 116 116 126 117 105 106 105 89 89 96 90 86 88 83 74 56 59 53 53 54 58 56 49 47 52 61 65 75 82 89 98 102 104 106 106 106 102 118 188 175 161 160 160 224 218 213 207 199 191 182 172 169 170 171 178 165 123 115 128 142 142 152 157 160 166 174 170 169 172 174 179 172 171 170 161 169 172 170 177 168 160 162 154 152 160 157 149 150 142 138 134 123 122 107 101 102 96 92 87 91 93 92 83 89 72 76 63 52 53 52 54 58 57 52 47 53 57 65 70 80 83 93 100 104 104 109 106 106 106 110 175 200 171 158 160 222 220 216 211 204 196 188 177 170 166 169 171 172 149 123 120 128 148 158 150 161 167 169 165 164 168 168 169 166 173 161 167 163 165 165 169 167 160 158 154 149 155 143 141 136 137 127 125 113 117 110 105 101 86 85 96 88 93 79 81 75 66 78 55 50 51 52 54 54 53 50 53 58 65 71 78 83 89 97 103 106 107 110 108 106 107 109 158 201 195 163 159 219 222 220 214 208 200 194 180 172 166 167 172 176 176 130 118 122 138 150 151 157 164 158 153 162 150 166 163 158 158 156 153 163 157 154 156 166 153 150 153 151 139 130 123 126 123 108 108 111 98 101 90 90 83 78 81 73 73 72 73 66 61 65 50 50 54 51 50 51 51 49 54 60 70 75 83 88 98 100 102 106 108 108 109 109 107 116 144 199 212 178 156 218 222 221 215 213 207 197 187 177 170 167 168 171 173 168 128 124 115 141 144 155 156 142 151 157 156 152 158 147 141 147 149 151 150 145 148 150 145 145 141 128 116 121 117 108 113 102 96 94 103 89 78 89 76 68 69 65 69 65 57 66 57 54 48 51 52 53 48 53 53 56 59 68 75 80 88 92 98 102 106 108 111 112 112 112 109 111 134 198 219 194 161 215 218 221 220 214 210 203 194 186 175 171 167 169 173 176 157 122 130 137 148 151 153 131 139 138 140 138 149 148 147 147 140 131 136 145 138 137 142 124 129 113 114 114 99 107 97 84 85 100 98 81 72 72 67 74 63 57 55 66 57 57 56 47 47 52 49 50 50 48 56 64 67 72 78 86 93 98 97 105 108 107 110 109 114 116 109 116 122 206 219 208 164 209 214 219 220 218 214 207 200 190 181 171 167 165 169 173 164 130 122 121 125 130 137 133 127 133 139 143 125 148 139 137 136 126 142 128 124 134 139 120 110 98 103 92 92 100 80 91 86 91 71 75 69 66 61 46 65 53 51 56 56 46 44 43 41 44 48 51 54 61 61 69 74 81 82 91 97 102 104 107 109 106 112 115 120 117 113 122 130 214 223 212 175 205 210 216 219 220 218 213 206 197 189 176 169 165 164 163 172 155 118 110 119 118 130 109 113 124 125 123 126 122 123 116 128 145 126 118 117 125 120 112 106 111 106 79 86 77 75 81 87 85 73 61 58 62 63 48 49 50 55 46 41 41 36 43 44 45 52 57 59 61 66 73 77 83 90 95 98 102 106 110 112 112 116 120 121 117 119 121 157 220 226 212 187 198 209 214 219 222 221 216 210 204 196 186 173 163 160 162 168 166 127 105 116 117 129 111 99 107 103 112 114 126 119 129 132 115 123 115 111 117 105 105 96 85 90 70 81 70 70 69 78 69 61 56 49 59 49 52 55 44 50 39 47 42 45 46 44 49 56 60 64 66 68 79 83 87 96 98 105 109 111 113 114 117 120 117 118 116 121 122 198 222 226 208 201 194 202 209 216 220 223 221 215 207 201 189 177 167 163 158 164 164 161 112 110 110 113 109 99 97 103 106 109 113 106 122 115 110 124 108 91 111 87 109 76 84 83 71 74 82 68 68 71 51 45 56 53 53 48 50 51 37 41 39 42 47 48 46 53 55 59 61 69 69 75 81 89 98 94 104 105 108 113 114 115 122 119 117 119 120 126 143 224 227 218 204 198 188 196 204 212 218 220 222 219 214 207 197 186 174 163 155 161 163 169 160 120 103 104 102 85 86 109 115 109 85 105 97 89 102 96 81 96 98 91 75 73 72 73 57 82 56 55 60 54 59 44 50 46 49 40 40 36 35 43 42 47 45 50 52 55 58 61 64 72 75 82 86 90 104 100 110 110 111 111 118 122 125 123 120 125 123 118 208 224 224 212 200 197 181 191 200 210 216 221 223 221 217 211 203 194 183 169 161 157 161 167 171 166 116 98 89 84 90 105 82 96 64 80 89 75 99 82 68 88 83 71 74 74 69 65 58 57 57 44 50 53 49 43 43 34 36 32 31 32 43 47 47 53 52 56 61 63 65 68 72 76 79 83 90 101 103 106 113 113 115 119 123 123 122 122 126 125 123 180 228 226 217 206 197 200 171 184 197 205 213 222 223 224 220 214 209 201 190 176 163 157 157 166 177 189 197 148 102 87 74 69 74 74 56 79 94 67 72 64 61 74 75 47 55 50 49 58 46 41 51 46 40 39 45 34 35 31 41 33 40 42 45 48 55 57 57 66 67 71 74 76 75 80 84 88 96 98 102 111 113 113 118 121 122 122 122 130 129 127 171 232 230 221 209 199 194 205 162 174 190 200 209 217 220 223 225 219 213 204 197 185 173 164 160 170 181 195 202 213 188 129 78 65 59 64 51 54 65 63 61 57 47 38 43 38 45 36 36 50 36 39 48 37 31 34 28 27 32 33 41 40 44 51 56 57 63 64 70 74 75 78 81 82 82 83 88 95 101 103 109 112 116 119 124 123 124 128 126 130 124 166 235 231 226 211 201 198 198 207 154 166 182 195 205 214 220 222 225 222 220 210 202 192 182 171 166 174 188 199 205 209 217 213 128 113 85 69 60 43 41 48 45 42 35 37 33 36 37 29 32 38 34 37 35 29 28 32 29 35 39 43 47 44 50 56 63 66 68 71 74 80 82 84 82 83 87 89 97 99 103 107 112 114 118 122 125 125 122 124 125 120 168 231 232 228 214 204 196 201 204 207
