P2
# Generated by OpenCV 4.2.0
92 112
255
73 93 104 131 118 115 94 125 148 177 182 191 198 206 209 212 212 215 218 220 220 220 221 222 224 223 222 221 219 219 219 218 216 213 212 202 189 185 174 155 143 131 126 124 123 117 110 106 105 109 109 108 105 108 105 102 102 95 90 86 89 91 84 77 65 55 51 48 73 49 51 63 65 69 60 59 63 71 80 66 45 37 46 47 36 41 50 55 52 61 78 83 66 80 68 99 111 123 126 158 179 189 194 201 204 207 209 213 214 215 218 220 220 219 219 220 222 222 222 222 219 220 220 219 219 219 217 213 207 198 190 178 162 147 136 129 126 119 114 113 111 108 105 107 103 102 101 102 99 95 89 87 83 79 81 82 79 71 62 55 51 61 54 46 47 49 54 58 58 53 64 69 59 46 39 44 38 37 47 37 40 60 64 78 56 76 72 100 117 126 171 180 193 197 202 204 205 208 210 214 216 217 217 219 219 220 220 221 222 220 222 223 222 222 221 220 221 223 223 222 219 214 208 199 187 176 159 146 138 131 127 124 121 117 112 107 110 110 108 104 102 100 98 93 89 84 81 79 78 80 77 70 60 51 50 41 54 37 39 40 45 52 50 54 60 56 41 37 41 38 44 35 39 54 55 74 74 77 80 105 143 114 187 197 201 202 204 206 207 210 210 212 216 217 218 220 220 221 222 224 223 220 222 219 220 221 222 223 224 221 221 223 221 220 217 213 212 211 202 195 186 180 169 161 155 158 154 152 156 158 158 152 138 129 124 112 104 103 98 94 90 83 77 74 70 65 62 57 51 49 39 33 34 43 49 50 53 56 49 34 38 36 45 40 35 46 54 58 62 74 80 121 161 112 178 201 203 207 205 205 209 209 212 213 215 217 218 218 221 221 222 220 222 220 220 218 219 219 219 221 222 221 218 218 219 217 217 218 215 218 218 220 221 218 211 211 209 203 204 203 202 202 205 207 193 187 179 169 154 146 143 144 140 134 117 98 88 77 69 68 67 69 67 67 65 56 52 51 52 56 50 41 39 37 44 44 36 35 48 53 80 84 91 133 156 111 168 201 203 204 205 205 208 210 212 212 211 215 218 218 220 221 220 220 220 221 221 222 223 222 221 220 223 222 220 220 221 217 213 214 216 214 215 214 213 214 215 215 216 214 207 204 208 209 209 206 204 200 200 193 186 183 179 178 178 176 175 163 145 122 102 87 74 65 68 78 80 70 65 63 58 52 48 46 40 41 50 48 39 35 38 47 84 74 100 137 149 99 167 197 200 203 203 203 205 209 212 213 215 214 216 218 217 217 220 221 220 221 220 221 222 222 223 223 223 222 220 222 221 220 219 214 217 219 219 219 218 215 220 220 218 220 211 209 214 211 210 205 202 201 203 197 198 197 194 190 192 192 189 186 180 163 145 135 117 89 79 73 77 63 60 57 52 55 54 52 49 49 52 52 39 35 38 44 78 81 97 120 131 99 171 193 195 200 200 201 204 208 213 213 215 216 218 218 217 218 220 220 220 220 218 219 219 221 223 223 221 223 222 223 222 220 220 218 217 219 220 219 219 222 223 222 221 219 219 220 215 215 212 209 205 201 200 201 203 203 201 199 197 194 195 195 191 178 169 165 150 133 123 106 105 96 88 79 63 66 78 72 83 59 58 60 44 32 34 36 84 89 97 103 100 103 172 188 195 199 199 202 207 210 212 212 213 216 219 219 217 218 219 220 221 222 219 219 216 218 223 221 219 221 222 223 223 221 221 218 217 218 218 217 220 225 226 226 226 226 220 220 218 216 214 211 206 206 205 205 210 208 206 205 202 200 197 198 198 189 180 181 169 156 156 143 129 134 117 137 106 88 101 79 101 99 62 67 64 34 29 32 81 81 71 78 72 108 165 186 197 203 202 203 208 211 210 210 211 213 216 219 217 218 219 221 222 222 221 222 220 219 221 222 219 222 224 224 223 222 220 217 218 219 218 218 222 223 223 226 226 226 226 221 219 217 214 213 208 210 211 209 211 213 207 204 204 201 201 201 199 192 188 189 175 166 164 166 143 158 127 155 138 120 106 92 91 110 81 67 72 52 24 30 88 67 69 68 79 134 179 189 201 205 203 204 205 210 211 205 205 210 213 218 214 218 220 222 222 222 222 223 220 218 219 223 221 221 223 226 224 220 221 220 220 223 223 221 225 225 225 224 224 224 223 221 221 219 216 212 212 212 213 213 211 214 206 199 201 200 203 205 198 190 190 192 184 172 164 176 164 162 138 140 130 125 118 102 89 95 95 82 70 65 33 29 83 78 74 83 126 167 186 189 199 205 204 202 205 209 210 211 208 207 211 212 214 218 220 220 221 223 224 225 223 217 213 216 222 222 223 226 223 220 220 221 218 222 223 222 223 224 224 224 222 223 223 219 218 218 217 213 213 214 212 211 212 215 208 197 198 201 204 202 195 190 193 189 183 179 164 168 166 160 152 137 129 123 130 90 92 88 91 86 76 64 52 37 82 80 89 120 162 179 183 194 201 204 202 200 201 206 209 212 211 210 211 214 218 222 221 220 223 224 225 225 224 222 220 217 219 221 221 221 220 221 222 223 220 220 222 224 222 222 224 224 224 219 219 220 217 218 217 213 214 215 214 213 214 213 204 204 205 206 205 198 192 187 190 190 177 176 169 160 164 156 147 131 123 122 117 89 86 88 85 86 77 62 56 41 92 91 103 137 172 181 186 196 202 203 201 196 199 207 213 212 213 215 216 216 220 223 223 222 223 225 224 224 224 222 222 222 224 225 224 226 226 224 226 226 225 225 225 225 225 223 223 221 221 219 218 219 217 218 216 215 217 217 213 214 214 211 203 207 209 209 204 194 189 188 189 186 172 169 175 156 164 146 145 127 110 115 107 82 75 93 82 76 81 74 52 46 83 89 108 146 174 175 191 196 203 206 203 198 200 210 213 215 216 215 219 220 223 224 224 225 224 226 225 223 224 224 225 225 226 226 225 226 226 224 223 224 225 225 224 224 223 222 223 223 221 220 222 220 219 218 216 216 217 217 214 210 210 211 208 207 205 204 203 194 190 189 188 179 171 170 169 164 152 145 130 127 104 106 101 81 65 88 87 69 72 78 50 53 74 93 114 151 166 176 192 192 199 207 205 202 202 207 214 215 216 219 220 222 224 224 224 225 225 226 226 225 226 225 225 226 226 225 225 223 224 225 223 224 224 223 222 222 223 222 223 225 224 221 222 221 220 217 215 218 217 215 211 210 210 210 208 207 205 203 200 192 187 186 183 180 179 175 161 155 147 145 126 114 103 91 94 78 62 76 75 73 62 65 60 52 89 93 119 153 172 182 191 189 190 202 206 201 203 207 213 215 217 219 221 223 222 222 224 225 226 226 225 224 224 225 226 225 226 225 224 224 224 225 222 223 222 221 219 223 225 224 223 225 226 225 222 221 222 217 216 215 217 213 211 209 209 210 208 207 206 203 197 191 183 181 182 182 178 172 164 153 138 134 121 111 98 93 84 76 65 64 55 67 61 49 70 58 68 96 129 158 174 181 190 189 188 200 204 201 201 209 215 217 218 218 219 219 222 223 224 226 227 227 225 223 224 225 226 224 224 225 224 224 222 223 222 222 224 224 221 224 225 226 224 226 228 226 223 222 220 220 219 215 214 213 213 211 209 208 206 206 205 197 192 186 180 175 179 181 180 182 175 163 133 117 113 103 93 85 91 78 67 64 61 65 70 50 53 73 89 105 129 161 175 178 185 191 190 197 204 198 200 205 212 215 217 219 217 213 218 223 224 225 226 227 226 225 225 226 225 224 224 225 225 225 223 222 221 223 224 224 223 224 224 227 226 228 228 227 224 221 216 220 219 212 211 210 211 211 210 208 204 205 208 200 191 181 175 173 181 183 184 191 180 159 135 109 102 96 91 69 73 81 74 74 76 56 60 54 42 76 87 86 133 162 170 174 184 194 193 195 201 201 203 204 207 209 214 220 220 215 216 224 224 224 226 226 226 226 227 226 225 224 223 226 226 227 226 224 223 226 226 225 225 225 224 228 229 229 228 227 221 216 214 214 214 208 209 208 208 207 210 209 205 203 201 196 190 179 177 180 184 187 191 187 170 151 131 105 91 90 87 71 49 61 68 68 69 61 48 62 55 71 58 85 142 161 168 173 176 187 195 197 200 200 202 203 203 203 203 214 221 220 218 221 221 223 226 226 226 226 226 227 224 222 225 225 225 226 226 222 225 227 227 226 227 226 226 227 228 228 228 226 220 212 214 209 207 208 208 207 210 211 210 209 207 204 199 196 191 185 183 186 182 177 172 162 158 152 124 113 89 78 80 76 60 47 60 63 69 76 69 63 64 65 54 89 150 166 167 171 177 186 194 198 201 201 202 199 198 202 195 202 215 218 217 219 221 223 224 227 226 226 228 227 225 221 222 227 227 227 224 220 222 224 226 226 226 227 227 223 226 230 227 222 218 216 214 216 211 208 210 210 210 213 212 210 209 207 203 203 199 193 187 182 173 168 157 155 167 148 123 118 90 75 71 75 61 49 46 51 53 62 72 76 77 79 49 97 153 162 165 169 174 186 190 198 200 201 199 195 191 195 200 201 205 215 219 218 219 220 222 226 224 224 226 228 225 220 222 225 228 226 223 217 222 224 225 224 225 226 223 221 221 226 228 221 216 219 219 219 217 213 214 215 213 215 213 207 211 211 207 204 199 195 189 185 177 173 169 169 169 145 132 125 98 73 63 68 74 52 43 42 49 48 55 60 82 100 58 92 149 161 165 170 174 183 188 192 197 199 199 200 194 195 202 202 203 211 213 214 216 217 223 220 221 220 224 229 222 219 223 226 224 224 221 215 219 225 224 226 224 220 219 218 222 225 227 222 217 221 220 222 221 216 212 216 218 219 217 215 215 215 211 207 204 201 192 185 178 176 174 166 159 147 144 135 109 81 70 55 65 67 60 40 34 31 36 48 60 67 59 92 151 158 161 170 181 187 188 191 198 201 197 200 201 201 204 203 205 212 214 212 216 217 219 218 215 216 223 228 220 215 220 224 222 220 218 214 216 222 221 223 220 212 214 218 224 227 225 226 223 220 218 221 220 219 216 216 216 219 221 218 219 219 213 210 210 208 203 191 185 177 165 156 148 147 152 146 129 106 77 56 44 60 54 41 37 37 34 39 48 58 61 86 151 154 165 178 191 194 192 198 203 206 205 210 209 208 208 210 210 216 219 216 216 218 219 216 209 208 217 221 212 214 220 223 222 222 216 212 211 217 218 216 214 208 214 225 228 228 227 228 227 222 217 218 217 213 215 216 213 212 216 221 221 221 216 213 213 209 203 192 194 185 169 155 147 145 145 150 140 122 97 68 46 59 56 39 38 32 35 42 39 52 66 80 147 155 170 181 191 198 199 203 211 217 218 218 217 215 212 217 218 216 218 216 213 213 217 217 210 207 213 215 207 206 217 217 219 220 214 209 205 207 212 214 215 208 209 215 225 228 225 222 217 209 204 207 204 199 199 198 196 199 201 204 201 199 201 203 204 207 206 196 190 187 181 166 150 147 145 149 144 137 122 85 57 58 72 41 39 34 28 41 47 50 55 75 143 156 164 177 191 201 208 208 212 218 215 216 211 207 210 209 214 214 216 211 205 204 207 209 209 209 210 209 202 200 206 211 214 213 215 205 200 199 201 205 214 205 197 192 186 182 189 187 192 187 187 189 185 178 177 179 183 185 188 184 180 177 184 185 181 188 198 197 189 175 169 172 162 156 152 148 146 141 137 106 83 61 76 49 36 39 37 37 52 51 53 74 142 156 163 184 196 204 208 206 204 199 202 199 193 193 195 196 201 197 188 181 178 184 194 204 208 207 203 199 197 193 199 206 212 212 214 210 198 188 188 196 202 198 191 170 141 148 149 156 162 143 140 144 142 148 154 170 176 169 170 159 156 162 160 154 160 168 177 185 185 177 164 161 161 160 155 152 154 147 143 118 93 85 74 57 36 34 45 45 45 50 60 72 137 163 169 187 194 190 191 188 182 180 178 178 173 176 168 164 166 152 136 134 143 159 181 192 197 196 192 185 185 191 201 202 204 210 214 203 196 184 176 182 181 180 176 148 132 135 124 110 105 104 104 98 115 128 130 135 133 134 137 149 155 146 138 138 142 146 154 161 168 169 164 157 158 157 154 157 156 150 153 136 95 102 84 58 48 32 40 51 56 54 81 72 131 164 163 172 170 161 159 160 165 160 154 150 145 147 142 130 130 121 107 110 116 134 159 163 172 176 174 173 175 190 194 194 195 205 207 208 200 187 165 168 167 170 148 138 123 105 87 76 81 82 77 82 92 102 104 114 127 141 159 165 160 160 162 149 139 145 151 151 155 159 160 159 155 162 165 161 155 150 162 153 105 95 108 62 51 38 33 40 53 58 79 72 122 154 154 159 142 131 127 124 128 134 126 114 101 104 114 103 92 85 87 99 103 110 122 130 141 150 149 157 170 180 180 179 180 191 203 198 195 185 165 153 152 148 128 114 101 83 71 72 76 77 85 98 112 129 156 175 185 190 191 191 186 182 173 165 156 143 138 142 150 158 163 163 158 159 164 160 153 159 167 150 119 85 113 70 48 55 38 46 46 49 59 66 117 145 157 157 130 117 117 109 117 121 113 99 89 77 75 77 69 65 67 72 75 81 88 97 106 116 124 140 155 154 145 142 146 159 165 166 166 161 151 139 129 114 100 88 78 74 77 85 91 108 136 156 171 182 190 194 200 202 199 195 192 188 182 172 161 147 136 139 146 157 168 167 162 153 157 154 154 164 162 148 122 86 93 75 41 55 55 46 40 43 63 70 110 140 149 149 116 102 102 109 119 128 132 132 124 108 95 80 76 72 69 64 64 65 65 71 76 81 94 108 115 113 106 105 134 152 156 146 128 118 121 115 103 91 81 80 91 99 107 123 141 154 164 176 185 195 201 200 200 200 195 190 188 182 182 175 168 154 149 146 150 161 168 170 167 159 158 153 162 166 160 150 117 103 98 82 41 52 75 60 36 48 60 72 92 143 144 143 112 104 116 127 142 156 162 165 163 163 156 146 147 146 116 94 92 81 73 72 71 73 78 81 81 86 95 127 176 188 200 193 172 140 103 97 91 91 93 99 117 127 131 140 141 132 119 118 114 111 133 161 171 171 177 173 162 161 165 171 170 164 159 153 158 166 171 166 168 172 166 160 171 167 164 151 120 108 106 87 45 48 76 90 45 61 87 79 96 140 147 150 125 111 128 150 164 165 163 162 171 179 177 173 169 158 145 146 131 116 104 92 82 78 79 72 74 82 104 151 195 213 219 213 197 179 155 127 107 107 113 124 133 136 140 133 107 90 95 98 109 107 107 113 103 115 108 99 107 101 97 105 133 173 175 170 167 164 167 166 167 174 170 169 174 170 167 153 124 105 113 91 44 58 77 107 58 80 72 76 96 138 151 155 135 121 140 154 159 162 155 149 148 137 129 123 120 117 113 92 86 87 100 113 110 105 96 86 79 86 107 153 200 218 226 220 204 184 162 140 133 129 135 142 138 141 137 116 100 118 135 117 103 103 78 75 77 75 78 49 74 81 95 89 76 119 173 177 169 156 161 167 176 180 173 176 177 174 165 151 127 108 119 91 42 58 92 109 70 90 67 82 94 133 148 159 145 133 146 153 138 114 115 110 108 120 119 111 123 132 110 102 99 84 64 89 122 124 118 116 109 115 115 148 199 223 226 221 209 187 162 153 157 142 145 143 140 132 112 117 121 97 82 97 117 145 67 73 61 46 75 53 39 66 65 80 109 122 125 155 165 164 162 167 179 178 178 181 180 176 167 148 124 115 113 97 47 50 92 111 77 91 68 84 88 128 150 159 148 144 152 105 94 112 120 122 128 106 69 53 80 120 56 60 75 90 93 93 97 108 124 136 134 126 129 160 205 222 225 220 213 194 166 159 166 170 175 161 145 133 123 101 85 86 105 135 172 185 108 76 96 81 83 66 82 115 101 88 95 121 132 134 148 164 168 173 181 181 178 179 179 175 169 155 120 118 125 93 54 54 87 106 91 92 78 76 88 120 155 162 151 146 113 81 124 106 99 99 100 96 57 83 73 29 63 94 61 120 82 75 84 103 137 157 161 136 142 176 210 221 219 218 214 199 175 166 173 181 191 198 186 152 128 124 144 154 147 157 157 161 156 136 146 141 139 156 170 153 140 134 151 154 153 154 159 164 177 181 185 182 182 181 180 173 165 157 131 119 137 84 65 80 87 101 104 108 80 70 84 124 156 161 145 123 104 99 90 72 82 110 121 121 54 88 108 84 104 98 102 162 135 102 101 119 174 199 172 142 154 181 210 222 218 216 210 200 186 174 176 177 183 197 201 201 186 168 159 154 158 159 157 157 159 192 165 160 168 163 157 153 149 151 167 182 187 185 183 181 184 185 190 188 185 180 181 173 164 160 136 112 134 78 59 91 95 98 113 133 81 68 87 132 159 161 144 125 118 96 104 114 127 137 139 156 107 86 116 139 158 166 166 165 170 178 190 200 192 198 164 152 161 188 210 217 214 213 206 199 191 180 181 179 182 202 207 200 193 181 168 162 165 173 175 169 172 174 159 155 153 152 144 138 140 159 182 194 195 193 190 193 193 194 195 193 190 184 180 174 168 164 132 113 132 68 59 85 92 95 121 156 78 71 95 125 160 166 153 133 128 131 146 150 150 153 158 165 168 158 161 182 181 185 172 166 164 177 191 196 202 188 166 164 169 193 214 221 214 214 211 202 193 186 185 181 182 200 212 207 202 196 179 172 163 159 158 148 150 148 146 144 136 130 127 136 160 183 196 201 205 203 198 200 200 198 199 196 191 183 180 175 170 167 127 118 131 64 65 88 89 97 142 183 71 88 101 123 162 171 158 149 150 152 148 147 145 153 155 158 156 155 159 170 163 167 161 157 174 184 193 201 198 183 177 173 174 196 220 222 216 215 213 205 195 190 191 190 189 190 206 211 202 201 199 196 193 187 170 159 145 138 130 127 129 138 152 174 188 190 193 201 202 196 201 203 202 203 203 197 191 183 179 175 170 167 128 132 116 67 71 86 86 95 118 174 72 88 102 122 162 175 169 165 166 162 156 139 128 133 135 141 143 141 146 136 131 139 164 174 190 200 204 203 196 190 185 177 178 197 220 222 221 218 213 205 197 191 190 190 192 193 201 211 214 208 208 209 208 213 223 219 207 194 184 173 172 177 188 194 195 199 199 199 200 206 205 206 206 204 202 198 194 187 182 175 168 162 133 141 99 72 77 79 91 88 56 110 75 97 105 112 163 179 176 178 178 169 162 158 135 121 121 126 122 123 127 130 148 171 190 193 198 208 206 202 198 190 186 181 181 201 221 224 223 220 214 205 198 191 190 190 195 199 199 204 214 214 212 208 210 208 213 215 219 219 213 206 202 201 204 207 207 204 202 205 207 213 213 210 208 204 201 196 192 183 179 173 166 159 127 135 86 82 81 76 96 80 65 94 134 103 101 113 168 183 187 189 185 179 181 174 164 151 147 146 143 152 165 178 190 193 196 200 201 211 211 205 198 190 187 182 188 208 223 225 224 220 212 205 199 193 191 195 200 201 202 198 210 218 224 215 211 212 210 211 215 214 211 207 208 207 205 206 209 209 211 212 214 215 217 214 212 204 198 195 191 181 176 174 167 161 122 123 78 84 76 78 113 121 103 113 174 112 106 121 166 188 191 193 197 191 184 184 181 177 172 174 180 186 189 196 200 202 198 203 207 213 212 204 193 190 189 185 191 210 223 226 223 221 215 207 202 198 195 196 200 199 203 200 203 216 223 225 217 212 208 211 212 213 213 213 212 212 212 214 214 214 214 216 219 216 216 216 211 205 198 193 187 175 170 172 167 156 125 120 79 93 89 93 141 167 137 129 217 153 107 129 167 188 195 199 198 195 189 185 170 182 187 188 196 199 199 200 200 196 197 208 217 212 211 198 190 191 188 189 197 215 225 225 223 219 215 210 203 200 198 198 201 200 198 200 202 213 220 228 225 223 218 213 215 219 220 216 214 219 218 221 221 220 220 220 221 218 215 212 209 203 194 189 185 174 166 165 169 153 138 106 82 100 105 117 180 181 160 144 226 187 120 130 171 190 195 206 206 202 195 192 181 187 195 200 203 204 197 198 195 193 200 210 214 214 208 196 189 190 189 194 206 220 225 224 223 220 213 206 202 197 199 200 200 201 200 198 203 212 219 221 226 229 227 223 223 224 224 220 218 221 222 223 222 223 221 221 221 218 213 207 203 197 192 186 180 171 169 167 161 150 136 100 86 106 131 143 190 184 176 169 222 210 138 125 166 186 197 206 210 209 205 201 198 200 203 203 204 203 196 194 198 204 213 215 214 212 203 194 191 188 190 201 215 223 224 223 222 221 215 207 197 193 195 197 197 200 199 196 201 210 218 221 226 226 227 226 225 226 226 224 224 222 223 224 224 222 221 220 219 215 209 204 197 191 187 182 170 169 169 166 162 150 122 100 91 109 146 159 178 178 189 185 221 225 162 119 168 186 195 204 211 212 210 210 209 208 206 204 200 202 205 205 208 215 218 217 214 210 199 191 188 186 192 209 221 224 223 224 222 224 219 212 198 190 189 197 199 197 194 196 201 209 217 218 222 225 225 225 224 225 224 221 223 223 225 224 225 222 219 218 216 211 204 195 192 187 181 175 170 166 165 162 162 149 118 102 90 110 150 169 173 192 210 198 222 219 200 119 162 187 192 201 207 209 214 213 213 212 211 207 208 211 213 216 216 218 219 218 216 209 201 189 187 188 198 215 222 223 223 225 225 224 220 214 203 191 189 197 200 196 191 195 201 209 218 220 221 226 225 225 226 226 224 216 215 220 222 225 225 223 219 214 213 207 200 190 188 178 175 168 165 160 160 155 157 158 120 105 95 128 162 171 170 195 210 211 217 215 214 136 155 184 184 193 198 206 212 211 214 212 212 214 218 219 218 221 220 217 217 217 213 208 200 190 181 190 204 215 223 223 223 226 226 224 217 211 203 194 190 198 201 200 193 188 199 211 219 223 223 227 225 226 226 224 224 221 219 219 223 223 222 220 215 212 206 197 194 191 183 172 164 162 155 154 160 156 161 154 123 110 112 143 170 174 174 205 212 206 168 168 160 138 156 177 175 187 193 202 207 208 211 213 213 212 219 221 221 221 220 219 218 215 214 209 197 186 182 194 202 214 221 221 223 227 230 224 215 208 200 197 195 201 204 203 198 184 198 212 217 225 224 226 225 224 225 225 226 225 224 222 223 222 219 220 214 211 205 196 191 184 175 169 161 152 156 155 158 156 158 154 128 116 130 150 169 174 189 204 200 197 204 161 120 134 169 169 166 180 188 195 203 205 208 212 215 216 218 220 220 221 221 219 220 220 215 205 195 185 189 193 200 209 209 213 218 225 232 223 208 200 193 192 199 209 206 206 205 191 195 208 219 225 224 227 228 225 224 226 225 223 223 222 222 221 219 219 212 209 203 195 187 181 177 170 158 152 155 152 153 152 154 152 132 121 136 152 173 173 176 172 187 210 213 210 198 167 168 166 157 167 182 190 198 203 207 213 217 220 219 219 220 221 220 217 219 219 213 208 198 200 193 180 186 192 194 194 200 207 210 205 193 180 174 184 202 208 209 208 208 198 195 209 226 221 224 227 229 227 225 227 224 223 223 221 219 221 221 213 211 210 202 192 180 174 173 164 158 155 153 151 150 150 155 152 135 130 142 155 173 159 151 169 197 216 203 203 202 183 168 166 155 162 177 183 189 199 207 213 216 218 218 218 219 221 220 217 216 218 214 206 198 201 179 153 151 163 172 173 178 188 189 174 163 151 152 165 173 179 186 192 201 203 199 207 221 221 225 225 227 228 224 227 226 225 222 220 220 219 214 210 210 205 197 188 180 170 166 158 156 154 152 147 147 147 155 156 137 139 145 158 176 158 164 196 212 210 200 195 195 184 175 171 156 159 174 182 193 200 206 211 216 217 218 217 217 218 220 218 217 217 207 196 193 180 151 125 114 123 130 136 155 165 165 155 147 140 136 133 131 141 157 172 187 195 194 199 219 227 226 226 225 225 226 226 223 223 223 220 221 217 213 207 202 201 193 190 180 171 162 157 153 152 151 143 158 150 155 152 141 141 147 156 170 196 210 211 214 201 199 197 194 191 172 171 149 157 173 186 194 200 202 207 211 213 215 218 217 219 219 219 207 210 203 195 180 144 115 99 101 105 103 107 131 141 137 134 131 110 76 53 42 53 88 135 163 176 180 196 217 221 222 221 222 221 223 224 221 219 220 219 219 216 212 206 200 194 190 183 176 167 159 159 154 154 146 134 136 150 152 145 144 138 147 158 152 177 203 201 201 202 193 196 194 196 171 159 151 151 168 183 190 197 202 203 207 209 213 217 216 217 217 214 207 207 202 192 159 119 78 38 33 46 79 93 98 114 114 117 95 40 23 12 14 15 15 75 138 159 167 192 215 217 218 217 217 219 222 222 222 219 219 218 216 215 211 198 191 192 186 178 173 166 160 157 151 148 147 144 148 154 155 150 145 147 148 158 155 177 194 193 194 204 188 190 193 191 178 170 160 148 159 176 188 190 195 200 203 206 208 210 209 211 211 210 206 203 195 190 145 105 70 37 30 17 19 57 85 88 98 107 77 59 61 41 20 27 41 60 116 137 147 184 213 216 216 216 214 218 221 222 221 216 213 210 212 211 203 195 192 189 181 180 173 164 159 157 154 148 148 152 158 158 156 148 139 143 153 162 176 195 199 201 202 205 191 189 191 190 182 188 165 144 150 173 185 185 187 192 199 201 200 202 202 206 209 209 203 199 192 191 147 102 89 60 52 44 28 35 75 83 84 94 101 96 106 110 91 107 135 111 110 119 132 182 215 216 216 218 215 219 222 222 217 213 210 213 210 203 199 195 190 187 179 180 174 163 159 156 159 154 148 151 158 160 157 147 144 143 154 170 188 199 205 209 211 210 196 191 188 184 183 191 170 145 148 162 171 180 184 190 197 198 198 201 202 201 206 205 202 196 193 188 169 112 100 89 82 76 74 82 71 74 81 81 89 98 121 152 176 172 174 137 111 105 136 198 215 217 215 214 216 217 217 214 215 215 212 213 209 203 199 195 192 185 181 179 172 165 162 160 162 156 153 154 162 161 158 147 151 148 156 173 199 204 206 210 212 213 197 194 189 173 179 196 179 147 143 147 155 170 179 185 192 192 193 197 197 199 203 201 197 190 195 190 179 148 105 97 106 115 119 110 91 86 84 89 117 154 162 171 176 172 162 139 113 125 175 206 215 217 219 217 218 212 208 206 211 214 213 213 208 203 199 195 190 184 179 170 165 166 162 158 159 158 155 162 164 161 158 153 147 147 155 175 200 200 204 210 208 205 198 196 193 185 190 189 175 153 143 145 150 161 169 182 189 188 193 193 191 198 198 196 193 194 200 192 184 171 139 115 127 136 136 140 146 150 142 142 174 205 203 197 197 184 181 179 179 192 200 205 213 218 219 220 218 213 204 208 214 218 217 218 208 203 198 194 187 180 177 165 164 162 160 160 154 154 159 164 165 164 162 160 155 144 149 180 201 198 201 203 198 190 198 196 196 191 186 185 179 166 140 143 149 156 165 176 183 187 189 189 192 192 188 190 191 195 201 201 196 190 180 168 159 164 177 173 182 194 195 186 197 194 190 193 197 195 197 192 198 207 207 206 213 218 218 218 217 217 212 203 199 210 205 205 204 201 198 195 189 182 177 165 163 159 159 160 155 154 163 163 167 167 163 159 152 148 152 178 193 189 186 183 180 162 198 196 196 196 183 175 182 171 140 138 145 151 161 169 177 180 185 181 189 191 189 185 195 200 199 205 204 202 197 192 176 163 183 186 187 186 197 194 184 177 176 196 185 190 197 194 194 200 208 204 209 215 214 215 215 216 215 207 195 189 186 182 190 205 202 197 190 186 173 168 159 155 157 158 156 157 157 165 170 163 158 151 149 143 154 166 173 161 155 153 129 120 198 195 196 197 190 170 177 172 143 136 142 146 152 160 168 174 183 184 182 181 184 194 202 205 205 205 200 198 194 189 176 175 187 183 177 182 180 190 192 191 192 204 188 186 184 184 191 196 207 204 199 211 213 214 210 212 209 208 203 192 185 193 200 220 210 195 187 187 177 167 159 157 156 152 151 154 158 166 169 157 153 154 146 143 146 158 136 117 101 96 137 193 196 196 196 196 197 169 166 164 150 137 139 141 150 151 160 174 179 178 175 179 194 201 206 202 199 200 197 185 181 175 172 182 185 180 185 186 176 188 198 189 191 199 194 192 179 167 181 191 192 204 199 204 206 205 207 208 204 201 204 204 189 185 195 195 179 184 188 178 171 165 158 153 152 150 150 150 148 162 164 162 152 150 143 139 146 157 102 44 41 108 216 216 196 196 195 195 197 182 140 154 161 139 137 137 142 150 157 168 176 175 167 184 201 196 195 191 185 191 193 177 179 165 161 175 183 183 182 181 183 188 193 180 190 195 194 198 189 179 185 195 175 195 191 187 191 192 191 193 196 197 199 202 203 193 180 173 168 181 184 174 167 163 157 147 148 150 156 154 155 169 170 162 155 153 149 136 142 148 103 31 33 126 217 213 197 195 195 195 195 199 152 121 155 139 134 133 140 151 159 174 176 179 178 195 194 190 185 186 186 182 185 170 175 168 176 180 188 183 188 189 189 191 194 184 189 197 190 193 201 192 191 198 183 189 192 189 187 189 183 180 179 180 181 198 185 166 166 170 175 177 170 167 164 156 148 145 147 154 157 151 156 164 173 164 160 152 153 135 139 135 103 34 36 82 178 212 197 195 196 197 196 197 196 144 147 144 134 130 132 144 163 170 169 170 186 185 196 194 180 178 193 183 168 173 180 176 181 189 185 181 193 194 196 198 198 192 192 192 195 193 194 195 191 186 191 192 187 198 192 188 187 185 171 166 174 183 184 165 163 163 170 171 166 161 165 155 147 148 149 154 159 154 160 161 165 163 159 153 143 139 147 132 108 31 25 104 184 199 195 193 195 196 195 195 195 179 170 144 131 126 128 136 153 163 165 173 185 181 186 182 176 185 185 174 180 185 184 174 181 190 193 194 198 202 200 204 199 202 203 198 199 189 187 194 196 192 194 194 188 185 188 188 175 169 176 169 171 165 181 183 163 162 163 169 173 166 160 151 146 147 146 149 155 164 172 164 160 161 158 159 140 143 142 137 117 30 18 138 210 209 195 193 193 195 194 195 195 188 176 148 129 125 129 133 143 157 160 173 171 178 172 168 176 182 173 171 177 188 189 193 189 186 191 196 203 204 204 210 211 211 205 191 175 162 168 173 177 175 180 184 188 188 194 190 174 170 169 160 172 167 165 188 173 172 167 170 173 164 155 147 144 144 151 157 158 161 167 163 165 157 157 169 139 135 135 146 127 26 21 139 214 208 192 192 193 195 195 195 195 193 180 155 132 126 128 131 141 150 162 164 166 168 169 164 158 176 183 171 172 180 176 165 160 153 148 150 159 167 175 184 184 161 140 139 135 136 145 152 148 149 142 134 138 155 165 169 151 139 142 142 164 155 155 183 172 170 164 170 168 156 149 148 147 151 156 162 156 160 169 166 164 151 155 159 140 135 139 150 140 24 25 156 212 213 192 192 192 192 193 194 195 195 180 157 138 130 128 126 131 144 152 166 165 165 165 148 149 165 161 164 157 140 133 140 151 151 141 134 120 121 113 116 108 104 111 120 128 138 144 148 136 135 136 132 114 109 105 115 146 146 138 129 136 143 149 160 163 161 164 162 163 151 147 149 150 159 165 163 163 166 169 160 156 147 158 150 125 132 135 155 144 25 42 168 208 220 192 192 193 193 193 194 195 196 185 158 142 134 132 127 122 137 146 162 166 164 142 144 136 128 128 127 120 123 118 111 109 110 116 125 110 103 93 86 82 82 100 92 104 108 101 88 73 81 108 118 122 117 94 97 108 112 112 123 124 148 143 153 165 163 163 163 158 148 150 152 157 164 167 167 168 168 165 164 157 138 155 142 117 129 132 153 143 44 109 186 197 209 195 195 195 195 194 193 194 196 189 164 146 140 132 127 122 128 139 148 153 151 152 150 127 132 115 97 89 94 88 63 45 45 49 51 58 57 51 47 54 58 69 66 61 67 71 76 84 84 73 67 75 84 104 104 75 53 51 98 119 128 143 148 158 163 171 169 163 154 154 157 167 167 162 166 169 168 161 163 153 141 152 133 121 129 127 152 135 59 164 190 192 208 195 195 195 195 195 195 194 194 191 169 150 149 140 132 126 125 134 146 151 158 151 145 128 105 81 62 63 72 61 48 58 70 75 83 89 101 118 119 129 141 148 139 132 142 145 151 150 159 150 134 107 85 78 83 96 131 154 155 153 138 147 148 160 168 172 172 167 158 155 166 172 174 164 162 166 170 161 159 156 147 141 126 123 131 131 150 132 39 130 196 200 212 195 195 195 194 196 195 194 195 195 176 154 148 149 144 136 128 135 147 153 151 149 139 130 113 79 55 53 61 57 96 134 152 154 165 168 174 172 168 170 182 186 178 173 176 175 176 177 171 167 167 169 160 156 176 187 190 195 187 183 172 161 160 165 169 166 170 169 164 162 171 177 178 170 162 163 169 156 155 153 141 141 131 125 119 136 151 149 109 156 198 206 213 195 195 194 193 195 194 194 193 195 182 160 149 150 150 140 136 137 145 156 141 135 148 159 171 170 159 146 142 146 155 157 162 159 174 179 180 180 182 187 187 191 193 193 189 187 187 188 184 181 184 180 181 186 187 189 187 192 189 181 179 169 164 171 170 160 165 171 168 167 173 173 176 171 165 163 161 154 149 153 145 133 122 125 116 135 149 162 181 186 193 211 214 195 195 194 193 193 193 193 191 193 188 164 149 155 152 148 146 143 145 152 147 157 162 168 180 182 182 180 175 173 176 180 178 179 181 185 188 187 187 191 189 191 198 196 192 198 199 196 195 196 195 179 178 187 188 191 191 193 193 189 183 180 178 174 167 170 171 172 164 152 164 176 174 165 167 162 159 157 150 150 142 124 127 108 109 133 150 166 188 185 200 214 214 194 193 192 193 193 193 192 191 192 189 170 153 157 155 155 148 144 149 153 154 163 170 173 183 183 186 181 173 174 172 171 177 181 179 179 182 176 172 174 172 171 176 170 174 182 183 181 185 187 184 178 181 188 189 187 187 192 194 192 188 190 190 178 171 168 173 171 156 165 181 177 174 166 167 158 158 157 151 148 140 120 111 103 111 135 154 168 182 190 211 213 212 192 191 192 194 193 193 192 191 190 191 176 153 157 159 150 150 151 151 157 160 173 182 173 184 184 185 184 188 185 172 162 168 172 166 160 167 169 160 156 159 163 164 168 179 181 182 180 186 185 185 188 189 190 189 192 189 189 190 187 190 192 191 180 168 170 173 169 178 179 178 167 171 168 159 154 162 158 145 137 134 103 100 101 109 143 156 163 180 204 213 213 212 192 192 192 192 194 193 192 192 191 191 179 154 155 159 157 153 151 155 156 161 164 177 183 180 185 183 179 185 190 185 181 183 173 181 177 180 187 174 173 175 177 176 184 181 188 183 187 191 192 185 190 182 182 183 188 191 190 190 190 192 192 186 182 171 165 171 170 172 177 175 164 166 168 161 154 154 154 143 131 123 104 97 89 112 147 155 159 200 213 213 212 212 192 192 192 192 193 191 192 192 191 190 174 147 149 148 152 153 154 154 161 155 167 180 188 188 189 187 182 178 179 175 178 176 179 191 185 176 184 167 180 178 177 171 179 178 181 166 182 184 173 175 186 180 177 181 187 191 190 187 187 191 193 192 184 177 177 176 168 166 169 173 171 165 166 163 164 157 150 143 125 114 110 87 91 122 155 152 170 208 212 212 212 212 193 192 193 193 192 191 191 191 191 190 181 148 146 150 150 153 163 157 154 151 162 173 178 189 185 183 181 180 183 183 184 178 181 176 176 169 170 160 183 177 175 168 180 164 167 173 175 177 175 178 172 184 181 183 187 191 190 190 191 191 188 185 180 182 180 175 168 164 168 172 167 158 159 162 165 154 143 143 112 104 91 84 93 129 157 146 188 211 211 211 211 211 191 190 192 193 192 192 191 191 191 191 183 154 146 146 148 153 159 163 152 150 156 158 169 184 184 182 182 184 182 180 183 182 178 176 180 177 173 175 170 174 168 181 167 168 172 177 174 182 183 179 176 180 181 182 187 187 187 191 192 189 181 173 176 179 177 171 164 162 165 165 162 158 153 161 160 149 136 132 110 91 83 88 115 145 155 145 187 210 211 212 213 212 190 190 190 189 191 190 190 191 190 192 185 161 147 147 146 152 162 158 155 148 155 162 178 183 183 179 177 177 180 177 179 183 179 182 191 182 184 180 172 167 161 178 170 179 178 174 184 184 179 178 181 184 185 188 189 191 192 189 187 186 176 172 175 180 176 169 159 152 163 165 160 161 150 146 150 144 129 107 95 88 80 96 131 158 154 145 192 212 210 212 214 212 190 190 190 190 191 190 190 191 190 192 187 160 142 139 149 151 160 158 152 149 159 172 182 182 177 181 177 176 185 179 175 178 180 182 185 181 179 169 169 172 179 167 169 166 177 181 186 194 193 188 187 190 190 191 197 196 197 191 188 188 179 173 186 182 172 166 159 159 161 166 152 142 149 139 141 133 116 97 92 84 74 114 144 165 149 147 199 212 210 212 214 212 189 189 189 189 190 189 190 191 190 190 185 159 143 130 143 145 153 161 156 152 159 157 160 172 182 180 178 179 181 176 174 177 185 188 188 185 180 175 178 169 165 163 165 169 187 191 191 197 192 197 197 197 202 200 202 202 190 191 183 174 176 184 184 179 166 163 159 157 160 153 148 131 131 133 129 122 99 85 79 75 105 133 154 159 149 152 203 210 210 213 213 212 188 188 187 187 188 187 188 189 189 189 184 158 146 146 141 144 152 154 153 150 156 156 164 168 180 178 185 183 182 181 181 185 191 188 190 198 197 198 198 184 176 187 189 198 210 211 207 195 191 199 204 206 208 207 202 199 195 191 182 185 180 184 185 166 151 159 156 157 153 143 143 131 117 126 113 102 99 80 66 83 124 144 163 152 149 153 203 211 210 210 212 212 187 188 189 188 187 185 187 188 190 190 183 158 148 157 135 136 150 151 153 152 149 147 157 157 164 173 179 189 185 192 196 191 194 199 199 207 210 211 207 206 209 214 211 211 215 211 210 210 210 210 212 213 210 211 206 196 190 183 185 192 188 177 170 161 160 159 156 150 145 144 139 128 111 95 96 94 80 73 77 109 132 155 158 150 150 153 206 212 211 210 212 213 187 188 190 188 187 186 188 190 191 192 182 158 149 157 145 119 137 146 152 151 151 161 163 164 166 161 173 187 188 196 200 194 204 208 209 206 207 212 209 209 217 218 214 216 215 214 212 214 215 215 214 219 215 210 209 204 193 188 187 182 175 163 161 161 154 144 145 139 136 133 123 107 100 84 91 76 64 75 97 128 146 162 153 153 150 157 205 210 209 210 213 215 188 189 190 188 188 188 189 191 191 192 182 154 148 154 158 122 126 142 145 146 138 154 159 162 161 166 174 185 191 198 204 208 213 212 208 206 209 212 212 213 211 210 215 212 218 216 209 211 207 208 213 213 204 205 200 200 189 176 169 170 168 167 154 164 144 134 134 130 124 125 113 91 85 88 79 68 78 94 123 144 162 159 153 153 153 158 213 204 204 206 191 178 187 188 188 187 189 189 189 191 191 192 180 149 143 146 155 149 118 126 136 145 138 144 147 155 173 177 183 196 197 201 203 209 208 205 203 207 212 210 210 210 203 205 214 210 215 216 212 209 202 202 208 202 197 196 193 188 184 180 165 154 150 149 147 143 143 135 128 132 117 116 92 82 86 80 69 82 95 116 141 158 162 158 156 156 153 156 228 236 189 124 120 109 188 188 190 187 188 187 189 190 190 189 174 146 147 151 157 161 135 110 123 143 134 135 156 161 167 167 177 192 185 195 194 201 200 199 202 205 207 208 212 200 202 210 208 206 207 213 212 202 204 202 200 189 186 185 190 174 177 170 172 160 150 137 120 144 133 138 124 113 109 104 83 83 79 65 79 97 115 137 157 167 162 157 157 155 152 159 187 231 242 143 83 115 188 187 188 187 186 188 189 190 189 188 172 151 158 165 169 170 157 144 116 123 127 141 153 144 151 170 181 181 179 193 196 196 190 193 186 196 204 199 202 199 197 201 201 196 196 201 203 200 200 194 184 178 175 167 178 159 153 155 146 147 134 139 116 119 119 109 121 101 97 95 79 68 67 82 99 111 133 153 166 167 161 160 161 158 157 171 134 188 251 244 125 107 186 187 187 187 185 186 188 190 190 188 169 153 162 172 177 175 173 158 128 112 119 129 131 137 141 174 176 173 185 194 187 177 186 191 187 195 200 196 194 192 190 189 188 192 190 191 187 187 190 173 162 171 165 155 156 144 143 153 144 123 121 125 121 101 107 96 100 100 88 73 64 73 83 98 116 130 148 161 167 167 163 162 163 163 163 178 124 173 251 252 196 137 186 186 187 188 187 187 189 190 190 185 163 155 162 170 178 181 181 171 156 136 116 117 122 130 144 143 156 166 186 184 181 162 175 175 185 177 193 193 196 197 188 176 169 181 189 180 177 181 167 153 165 157 146 153 148 130 128 159 142 110 115 104 117 103 91 98 99 90 68 67 69 87 100 110 129 147 160 167 165 165 167 164 163 164 167 186 132 205 249 246 226 156 185 186 187 187 186 188 190 190 190 179 145 132 133 135 145 150 156 162 169 166 146 127 116 127 130 131 147 158 171 175 175 152 158 163 177 177 171 181 185 183 177 173 177 171 171 171 178 171 163 152 150 137 136 139 128 132 120 121 114 104 105 98 89 117 93 86 74 64 66 77 88 102 115 125 143 157 166 171 168 165 168 168 168 166 175 176 167 245 245 245 231 160 187 187 186 186 186 186 188 189 188 175 136 131 141 143 148 143 137 141 162 180 177 165 127 113 123 134 141 131 146 152 151 144 140 160 162 163 158 171 171 168 165 176 185 158 164 164 161 149 152 139 139 126 127 109 107 125 130 129 100 97 98 104 84 84 69 62 68 69 76 86 101 116 127 144 154 162 169 171 167 173 172 171 170 174 183 171 225 250 245 241 245 137 188 188 185 184 185 185 185 186 186 167 149 162 171 176 180 178 176 170 176 185 180 176 155 126 128 111 106 133 135 134 157 138 130 136 135 149 152 168 173 168 178 166 153 160 156 152 144 150 142 129 110 119 112 108 118 114 111 93 87 93 94 95 92 68 60 65 69 78 87 99 113 126 142 156 163 168 170 169 171 173 172 170 174 181 179 216 252 245 243 239 248 189 188 187 183 183 184 184 186 189 181 158 153 165 173 176 180 182 182 185 187 187 181 180 178 146 111 100 104 120 126 141 149 127 128 130 123 138 148 151 154 152 169 147 153 158 134 127 144 126 124 116 117 100 104 115 114 101 97 72 87 95 90 71 71 66 65 68 75 88 101 112 122 140 152 161 168 172 172 171 175 174 172 173 182 177 210 250 246 244 241 239 240 233 186 185 184 185 186 185 188 188 174 150 155 167 174 175 180 182 180 185 189 189 184 178 174 176 136 108 100 96 109 124 113 125 110 119 118 140 148 139 132 142 139 134 136 129 118 118 117 116 103 116 93 85 109 97 80 106 93 94 76 80 74 65 68 72 72 76 85 100 110 120 133 154 159 164 169 173 171 174 177 177 179 180 179 213 250 248 246 243 240 239 239 242 187 186 185 184 186 186 187 187 165 147 158 169 173 176 181 181 183 187 190 189 185 178 173 179 155 126 111 100 99 107 104 112 103 109 123 140 122 131 106 124 124 128 125 105 114 129 114 97 101 102 92 92 76 97 77 85 77 76 71 65 66 70 73 76 81 87 100 109 122 128 150 160 164 167 172 172 176 176 179 180 180 181 223 251 247 246 243 242 241 241 241 241 185 186 184 184 185 187 188 183 156 146 160 166 171 175 178 181 186 188 189 187 186 183 179 181 158 136 139 123 100 94 93 98 104 100 105 111 108 104 114 138 116 121 105 96 92 93 86 73 83 79 90 75 66 73 67 64 73 66 68 67 72 75 79 85 94 102 110 120 133 148 157 160 170 171 173 175 176 179 181 176 189 232 251 247 246 243 241 241 241 241 243 242 185 185 183 184 186 189 190 176 144 145 158 165 169 173 178 185 187 188 189 189 189 185 182 184 166 136 139 134 129 98 90 90 94 78 80 82 92 86 78 97 97 93 87 79 72 60 64 69 56 70 66 66 64 61 59 63 67 69 71 71 77 82 88 94 103 112 122 132 143 157 164 167 170 174 178 178 183 184 178 202 245 250 247 245 243 243 241 241 243 244 243 243 187 186 185 184 186 188 189 165 137 146 154 158 162 171 182 188 189 189 190 192 191 188 183 183 174 138 140 140 139 132 106 87 77 75 77 71 76 66 67 68 70 66 64 67 60 64 63 59 50 60 60 61 62 65 66 68 71 74 75 77 83 93 98 105 115 123 135 146 155 160 166 172 175 180 180 181 181 190 225 250 249 244 245 243 242 241 242 243 244 244 244 243 187 187 187 186 186 188 183 149 136 150 154 155 159 174 188 189 189 190 192 193 194 189 185 186 174 140 140 140 140 140 130 112 87 74 64 61 65 57 62 53 50 52 53 57 52 55 59 63 66 65 69 67 66 67 69 72 77 80 81 86 93 100 108 115 126 134 144 154 160 164 170 174 180 180 179 183 210 243 249 246 245 244 244 243 241 241 242 243 244 244 244 243 186 187 187 187 186 187 169 137 141 153 158 162 168 184 190 189 190 191 192 194 193 191 189 186 186 148 141 139 140 144 139 131 111 93 78 75 68 59 56 52 54 52 53 58 59 62 68 73 71 72 71 70 70 71 72 79 81 85 92 98 103 109 122 130 142 149 154 159 166 172 176 178 180 181 198 232 251 248 246 245 244 243 243 243 242 242 243 244 243 242 243 242
