P2
# Generated by OpenCV 4.2.0
92 112
255
97 96 85 92 101 84 80 88 99 111 126 138 152 145 132 139 143 146 151 159 171 180 185 189 193 199 200 201 204 209 209 211 214 213 213 215 214 213 212 210 208 207 202 195 186 186 173 154 139 127 116 107 91 94 103 105 104 103 98 106 115 100 88 89 84 63 60 66 67 64 63 68 75 81 80 79 71 64 65 69 73 67 60 64 57 58 72 82 81 77 60 58 89 96 91 89 104 89 89 91 96 118 143 155 159 168 158 149 168 172 176 181 184 189 193 196 200 201 204 204 206 209 209 210 214 213 212 215 216 216 213 211 214 213 213 207 198 193 181 166 150 136 122 112 100 86 90 90 94 96 91 89 95 100 98 92 82 75 68 64 64 66 63 67 78 82 72 73 72 68 67 65 72 78 65 60 56 56 55 64 73 70 56 53 83 101 94 89 111 91 101 100 108 131 158 170 173 179 183 157 177 190 191 193 194 196 199 201 204 205 207 209 209 212 213 214 214 214 215 213 214 217 216 214 212 212 212 210 205 197 187 178 164 149 133 119 110 95 81 85 94 91 86 80 76 74 79 81 83 81 76 72 66 71 74 72 75 80 69 67 65 71 71 70 68 82 72 63 64 57 45 48 58 65 64 53 83 103 96 91 107 96 95 103 109 138 163 171 175 190 195 162 168 198 197 199 200 201 203 204 205 206 207 209 210 214 215 216 215 216 216 216 216 218 219 215 212 210 210 207 203 198 190 183 171 162 146 132 117 108 92 80 83 84 82 78 74 70 66 70 75 71 70 79 81 74 62 66 62 62 67 71 66 63 59 66 77 79 66 69 73 62 49 44 44 52 69 62 92 106 105 98 96 102 94 103 111 138 161 173 178 195 201 161 157 205 201 201 203 202 202 203 204 207 209 208 211 214 216 216 215 216 217 217 219 218 218 218 214 212 214 211 206 204 197 185 180 171 156 141 127 115 103 92 77 75 78 76 74 74 71 67 60 57 68 63 58 54 48 47 49 54 57 68 71 65 67 60 65 74 70 69 69 67 61 53 45 40 52 54 109 105 109 103 92 104 98 102 110 128 158 176 179 185 191 153 155 206 203 203 204 203 202 203 205 205 209 209 212 211 214 216 216 215 218 220 218 218 218 218 216 216 216 215 214 206 206 196 186 180 165 150 135 124 110 103 98 87 80 77 74 75 74 70 69 66 61 58 57 58 55 54 53 55 52 54 63 65 62 67 74 71 64 59 65 67 61 59 54 39 39 51 117 109 108 99 96 108 104 100 107 117 145 165 170 171 183 140 156 206 200 204 204 201 203 204 204 205 209 211 211 210 214 214 216 215 221 221 223 222 221 221 219 218 218 219 218 211 209 205 190 184 174 162 148 131 119 112 107 102 95 86 78 78 77 77 77 72 68 72 72 70 64 60 60 58 60 61 63 75 73 65 65 54 56 59 61 59 59 57 57 50 33 41 108 113 109 92 90 102 105 96 98 114 131 139 151 162 174 128 173 198 197 201 200 200 203 204 204 206 205 208 208 211 211 214 215 217 221 221 221 221 224 222 222 218 221 222 217 210 215 204 198 192 185 174 161 147 130 120 113 104 100 95 92 87 88 87 88 89 91 87 81 74 65 64 65 65 71 70 67 68 69 52 46 41 41 45 48 52 55 56 59 64 45 39 99 109 105 98 92 97 100 100 96 95 98 109 135 153 141 128 190 190 196 198 197 197 199 200 203 204 202 201 208 211 207 210 212 215 217 217 217 214 214 209 212 215 215 216 213 212 214 205 201 201 194 185 177 162 145 134 123 113 109 103 101 96 91 91 94 95 93 90 85 82 80 77 73 68 67 68 70 69 68 67 51 48 44 45 46 44 44 49 57 60 56 45 99 113 105 105 107 108 111 111 101 88 88 97 110 115 114 156 181 187 193 193 193 196 199 200 204 203 202 203 207 210 213 212 216 218 213 213 212 212 211 208 209 209 207 206 206 206 202 200 198 200 193 188 184 177 166 155 140 128 119 112 106 103 95 92 96 96 96 95 92 90 87 85 84 83 77 76 76 75 73 70 66 69 73 76 72 64 53 51 53 53 48 41 94 117 106 105 112 109 114 112 106 102 105 105 104 110 131 159 174 186 191 192 193 195 199 199 202 202 203 204 206 209 211 210 210 215 215 217 218 216 214 217 216 215 213 209 206 206 206 201 200 194 190 189 188 186 182 176 171 158 145 131 120 117 115 110 108 109 112 109 105 105 101 98 96 97 96 93 93 89 83 81 77 74 76 79 75 72 70 65 63 59 59 47 101 110 109 103 110 111 113 111 113 123 134 144 147 147 155 175 182 187 192 194 195 194 198 201 201 202 203 205 208 210 211 212 208 208 209 215 213 211 212 214 214 214 212 211 209 208 208 204 203 199 198 196 195 194 193 189 191 187 183 174 167 158 148 140 139 136 139 134 135 134 130 124 121 122 121 122 123 121 111 103 96 90 86 87 88 87 87 77 66 62 68 59 111 100 111 111 103 105 114 114 122 137 155 166 171 166 174 181 183 190 194 194 195 194 195 200 200 200 202 203 207 211 212 208 205 205 211 213 212 210 209 211 211 212 211 210 209 206 205 203 200 198 200 195 194 198 197 197 197 193 190 190 192 185 169 168 171 168 164 160 158 158 155 154 154 151 151 155 151 148 139 130 121 111 108 105 111 105 104 94 75 64 70 64 117 95 103 110 104 95 107 117 132 142 157 170 175 176 179 181 189 192 194 194 194 193 192 196 198 197 194 202 201 203 210 204 202 211 213 212 212 209 209 208 204 207 208 208 204 204 203 206 202 203 204 197 196 197 197 197 197 194 191 189 187 184 179 179 179 181 177 173 170 167 168 171 171 170 172 170 169 165 153 145 143 131 127 126 126 118 108 102 83 64 69 65 119 100 97 91 99 105 110 116 129 143 158 172 178 179 177 185 191 193 196 193 194 192 193 195 197 197 196 195 197 199 201 200 207 208 206 209 209 209 210 210 207 210 215 207 200 203 208 209 202 207 202 197 198 197 197 197 196 195 196 193 186 186 185 182 180 183 180 175 173 169 173 177 178 177 178 174 172 171 161 156 156 145 140 139 132 123 108 100 89 63 67 69 114 109 102 87 104 102 104 113 133 151 166 175 179 176 177 188 191 193 195 193 193 188 190 190 193 195 196 194 193 194 194 199 208 209 209 211 210 211 213 209 207 207 213 204 201 203 210 206 204 203 199 199 196 195 196 195 195 197 194 193 190 189 188 185 183 183 178 175 174 176 178 182 184 182 179 177 173 170 165 162 164 152 142 142 138 127 109 98 88 61 64 69 102 99 102 102 95 102 97 114 136 154 165 173 176 175 181 186 188 192 194 194 192 186 187 193 197 196 196 198 195 195 197 205 211 209 208 210 211 212 213 211 208 197 192 195 200 202 206 204 203 199 201 198 194 196 195 195 195 197 198 196 192 190 187 186 183 181 180 178 177 178 180 183 184 181 177 176 174 172 165 164 168 157 143 142 139 128 112 95 90 61 58 65 107 78 105 85 70 88 104 119 138 156 165 172 177 176 183 186 186 188 191 194 191 189 188 195 198 198 198 198 199 201 202 207 211 211 209 210 210 210 213 210 207 202 194 192 194 200 200 198 198 200 199 195 192 192 194 196 196 197 198 196 194 192 188 184 185 184 183 180 182 181 180 181 182 176 169 172 175 170 162 165 163 154 146 136 133 125 115 92 89 66 53 66 84 70 97 75 67 82 105 115 137 159 167 174 179 179 180 185 183 184 185 193 193 190 191 192 196 200 200 200 202 205 207 209 213 212 211 211 212 210 208 207 203 199 198 199 201 202 203 207 208 208 204 201 196 198 198 199 200 198 199 199 196 193 190 188 186 186 182 181 183 184 180 180 181 173 169 173 174 166 161 163 161 151 146 135 124 118 112 92 85 74 53 58 41 75 79 77 79 81 94 117 141 162 164 173 180 179 179 181 185 185 185 191 192 189 191 194 198 201 201 206 208 210 211 213 214 216 217 215 215 211 208 207 207 205 204 203 206 206 208 211 210 208 204 200 202 203 201 203 203 203 201 200 199 194 193 191 187 187 183 184 186 183 181 183 179 172 175 176 173 162 160 161 158 150 145 137 120 113 102 90 84 73 58 50 23 78 68 64 80 84 102 123 144 160 162 170 176 176 176 182 188 186 184 190 191 188 189 198 201 200 203 206 209 210 214 213 217 220 222 217 214 214 211 207 209 208 207 206 206 206 210 210 210 207 201 199 204 205 203 205 206 206 204 203 201 200 199 194 190 189 187 187 187 184 180 181 178 174 177 175 171 162 163 164 154 152 144 132 120 109 95 83 79 69 65 50 29 76 67 64 70 87 114 129 142 158 163 169 174 177 175 174 185 186 185 190 190 191 193 194 199 200 203 205 206 206 211 215 218 218 223 222 218 217 211 212 213 212 209 207 206 205 209 209 208 205 202 203 205 202 199 204 210 210 206 205 203 200 198 194 190 188 188 188 188 184 179 179 179 177 176 173 166 161 160 160 155 152 144 129 114 105 89 81 76 80 74 67 38 75 72 58 70 94 120 134 140 154 159 163 170 175 174 173 181 186 189 190 190 193 194 194 196 199 203 207 209 199 199 212 216 219 221 222 222 220 214 215 216 217 210 207 209 210 207 207 206 204 205 204 205 204 200 204 210 207 204 203 202 198 194 195 192 190 188 187 186 180 180 179 179 177 176 172 166 158 156 157 156 153 147 130 106 97 83 73 67 76 75 77 55 72 74 59 77 92 124 140 140 146 154 160 170 172 172 173 179 185 189 190 191 193 195 196 195 195 198 206 214 209 203 210 217 218 218 221 222 219 218 220 220 218 210 207 208 211 210 211 207 206 206 207 209 210 208 211 211 210 207 203 202 200 197 195 195 191 188 185 184 180 179 178 180 177 175 169 160 155 153 156 156 156 151 128 101 88 80 74 58 53 68 76 85 73 80 81 69 90 129 143 141 142 150 154 166 170 171 173 177 180 186 189 190 192 192 191 193 194 194 201 212 215 213 212 217 217 218 219 222 219 221 222 222 219 213 209 210 212 211 212 211 210 207 210 213 213 213 215 215 211 208 206 202 200 200 196 192 191 190 186 182 181 181 179 177 174 174 167 156 153 152 154 156 159 149 120 94 81 74 71 58 48 59 68 90 74 90 89 71 97 136 145 145 145 150 155 163 168 172 175 177 177 183 188 188 189 186 186 186 191 193 196 201 207 207 207 212 215 220 222 222 221 220 221 220 215 206 205 209 210 210 212 209 208 212 212 213 215 216 216 215 209 208 204 200 201 198 191 185 188 187 183 181 180 180 179 178 175 173 166 154 150 154 155 156 153 136 112 89 75 62 64 60 50 52 57 88 84 78 80 89 96 135 147 147 147 152 159 163 170 176 181 180 178 183 187 189 187 186 187 183 186 193 195 195 200 205 207 208 211 215 218 218 218 217 218 216 211 199 197 206 206 208 209 202 203 207 207 211 212 214 214 214 208 204 201 199 200 195 187 182 184 182 180 180 180 181 181 180 175 171 164 154 153 158 155 145 134 132 110 86 67 52 53 64 54 48 47 89 88 74 73 86 98 135 148 148 149 150 156 162 169 175 186 186 183 187 191 193 189 188 189 190 189 192 191 194 200 202 202 204 206 210 213 210 210 211 210 212 205 194 195 207 208 206 202 198 197 197 202 206 204 210 213 211 204 199 198 196 194 190 186 184 183 181 181 180 181 182 182 182 176 172 169 161 156 156 148 138 134 133 117 91 61 43 39 60 69 55 47 84 87 77 69 73 97 132 151 149 147 148 156 166 173 178 188 192 192 193 196 199 198 197 196 195 195 192 192 197 201 202 200 202 207 207 209 204 207 205 204 200 195 193 197 204 205 203 196 194 193 199 202 199 199 202 203 201 197 194 192 193 191 187 186 186 187 184 183 184 184 184 183 179 179 175 172 164 158 156 148 141 139 130 124 102 62 39 34 47 59 53 47 92 88 77 71 66 93 137 148 146 146 147 156 170 178 183 190 198 202 199 204 206 208 204 205 203 200 195 201 199 203 205 200 202 207 204 204 201 200 197 198 200 194 190 197 201 202 196 194 194 195 200 200 196 200 199 192 192 192 190 192 194 194 187 188 189 190 192 186 186 187 188 187 183 183 180 174 165 159 154 146 141 134 125 128 111 70 40 37 45 57 50 50 100 87 74 72 69 95 135 146 142 138 142 161 171 181 190 195 200 207 204 204 206 207 204 207 201 199 197 205 203 198 201 201 200 198 200 202 198 193 189 195 195 189 188 200 200 198 195 197 196 196 198 197 195 198 196 188 188 190 193 200 198 197 194 194 190 194 193 189 190 191 194 194 189 187 184 177 174 167 158 153 142 132 127 127 119 84 45 44 49 64 43 54 111 81 69 70 83 99 136 149 145 141 144 158 169 176 185 188 191 193 192 192 189 191 196 194 191 192 192 193 195 195 200 199 196 190 191 196 195 191 189 194 193 187 188 202 199 198 198 198 192 193 193 193 190 193 190 185 187 192 202 206 201 199 200 197 192 194 193 193 192 192 193 196 194 192 189 182 180 174 166 162 152 139 134 130 122 93 51 52 61 66 41 53 97 77 71 72 86 100 134 149 147 145 147 153 157 162 164 167 168 174 175 172 174 173 177 173 173 178 178 176 184 185 181 180 177 175 181 185 186 187 190 190 190 185 185 192 196 194 195 195 190 189 189 188 187 190 189 185 183 186 193 201 198 195 197 191 187 188 186 183 184 183 180 183 189 192 191 183 181 176 166 162 155 146 140 132 127 105 66 55 69 66 48 54 85 73 66 67 85 98 131 149 149 145 144 145 149 152 149 145 145 150 153 154 160 154 155 154 155 158 155 150 154 154 146 143 142 148 158 169 180 183 184 184 181 181 183 185 188 190 191 188 190 185 183 182 181 185 186 177 172 168 164 167 173 175 176 176 175 173 170 166 163 162 167 167 166 170 173 172 173 174 165 154 146 144 139 132 129 115 79 63 72 67 58 62 84 71 64 68 87 96 127 151 147 150 146 140 138 144 134 125 125 123 120 123 135 131 129 126 124 128 132 126 119 116 108 109 113 121 138 157 164 170 174 175 170 172 178 183 183 183 186 186 184 181 178 174 175 178 174 167 161 148 133 129 133 140 149 148 148 145 141 142 142 148 151 151 147 147 148 151 151 159 163 153 143 138 138 134 132 117 86 79 75 70 70 65 80 68 64 75 81 91 123 152 149 152 150 143 135 132 119 111 110 111 105 105 112 108 97 92 91 93 103 99 88 86 81 90 104 111 121 136 145 155 160 161 161 164 173 178 174 175 177 180 175 169 169 168 169 167 160 155 144 126 117 115 109 112 113 109 110 113 116 120 129 135 133 132 127 124 128 128 132 141 151 147 142 136 139 136 133 119 92 87 84 76 73 72 79 65 61 79 73 93 126 151 152 152 153 147 140 134 119 111 108 109 108 110 110 108 105 100 87 78 75 72 65 63 66 73 83 93 103 113 126 140 146 146 152 156 163 163 164 164 169 173 169 162 161 159 157 153 152 143 124 115 105 92 82 80 82 84 84 92 104 103 101 101 104 110 114 112 112 112 117 128 136 141 139 137 135 135 138 125 98 92 89 80 74 77 84 68 59 74 75 98 131 153 154 154 155 150 146 144 127 116 112 122 132 136 137 139 140 137 130 121 104 87 82 72 65 65 68 75 81 91 104 115 123 131 140 144 147 146 150 155 161 165 161 154 149 146 145 139 134 120 106 96 86 73 68 69 67 71 77 85 94 97 97 107 114 123 126 125 120 114 117 120 129 135 137 138 134 139 143 126 102 98 97 81 73 78 94 75 58 71 85 107 134 154 154 154 156 155 150 150 138 124 130 140 148 153 154 150 148 154 156 153 144 131 120 102 89 81 77 72 70 76 82 87 99 109 117 124 126 130 138 151 159 159 153 143 135 128 123 119 109 96 85 78 72 69 71 72 80 93 108 117 128 139 145 151 152 149 144 138 132 129 119 113 124 135 139 142 141 142 145 125 106 105 104 83 80 110 103 90 59 75 94 112 137 151 155 156 156 155 154 154 147 142 153 144 132 131 127 123 121 125 123 123 115 110 102 90 93 95 94 89 82 77 75 77 81 91 95 102 110 119 136 153 163 161 148 131 120 109 102 95 86 82 79 76 81 88 92 94 102 119 141 155 163 165 165 164 160 156 153 150 141 135 122 120 129 141 138 141 143 147 147 125 104 114 111 90 96 143 130 103 62 85 94 112 134 151 156 158 156 155 152 150 145 152 134 100 107 116 112 115 111 106 92 92 97 101 93 90 76 75 74 82 92 89 83 78 75 75 77 87 106 128 152 170 176 174 157 139 111 95 89 82 80 82 85 90 93 92 82 77 76 87 99 112 124 132 137 141 139 140 142 143 145 140 134 131 136 144 141 145 147 151 149 130 106 118 116 91 93 133 154 112 72 88 96 111 127 153 157 159 158 157 151 142 134 126 102 105 112 107 104 110 105 84 69 70 88 65 68 72 91 95 82 72 89 101 97 84 76 68 70 84 114 143 167 183 191 185 170 151 122 95 82 81 83 87 91 97 89 74 73 86 89 82 72 66 71 73 73 85 82 91 97 104 114 136 151 145 139 141 147 148 148 150 146 130 114 121 123 89 85 110 156 124 87 97 94 113 127 152 157 159 161 161 155 145 131 126 120 110 102 98 100 123 121 69 81 86 66 69 91 78 101 101 91 84 91 97 101 99 96 87 92 105 124 150 175 191 202 195 183 157 121 99 89 87 90 97 101 96 91 95 93 97 101 71 65 61 43 61 70 65 78 80 78 83 82 103 139 148 141 142 149 150 149 149 143 127 121 126 121 86 87 105 155 136 104 98 99 115 127 154 158 160 164 166 159 150 145 142 142 141 149 139 139 143 139 81 79 111 93 107 100 97 151 139 100 95 103 101 112 138 145 139 127 130 137 153 177 198 214 211 189 161 126 119 115 114 118 116 108 105 96 95 95 135 145 96 93 88 59 82 78 53 101 96 75 77 92 107 114 130 143 149 151 150 150 149 144 124 119 128 118 86 92 108 154 147 122 100 105 114 131 155 153 162 164 168 169 164 160 158 158 152 155 157 159 162 163 140 99 98 107 117 104 132 155 144 133 136 134 124 141 181 185 164 145 141 149 163 183 205 221 214 195 170 135 135 142 160 167 147 120 115 119 132 130 159 167 125 90 110 101 99 74 81 125 123 112 102 104 115 119 130 142 151 155 155 152 149 144 123 118 129 116 89 101 113 160 163 141 117 105 114 134 152 154 162 167 174 177 174 172 168 162 157 152 154 153 156 165 170 162 149 155 164 163 158 154 148 145 153 154 168 181 185 171 158 148 153 159 173 191 208 218 211 199 177 145 143 151 172 179 168 162 152 148 152 150 146 158 159 136 139 125 111 111 143 152 147 140 134 139 144 145 150 153 158 162 162 155 151 144 129 119 127 111 111 129 126 170 174 155 131 112 117 129 149 156 162 170 179 183 184 180 174 170 163 155 147 140 147 153 154 160 164 155 158 158 151 156 149 143 146 157 175 182 180 175 164 155 160 162 175 194 211 215 205 200 185 157 150 150 163 181 183 181 168 152 149 146 148 151 154 161 165 173 154 149 151 149 146 140 139 148 161 163 160 165 166 168 165 156 150 143 129 123 121 109 125 155 147 172 176 162 139 116 115 121 151 157 164 173 179 187 188 188 184 179 175 167 148 133 130 130 134 142 139 141 144 142 138 140 140 144 156 170 179 183 183 177 166 165 165 167 177 195 210 216 205 201 189 168 156 153 165 187 191 184 178 163 148 144 152 155 153 152 154 166 149 141 146 143 135 131 138 157 170 174 168 170 169 172 168 158 153 144 129 123 113 121 133 154 155 174 175 169 142 122 114 118 147 159 166 176 181 190 194 191 190 186 182 177 162 148 135 126 122 122 121 123 123 127 136 145 148 162 176 176 178 186 187 178 172 173 172 171 181 197 209 213 204 198 187 172 162 160 162 182 190 187 180 176 161 148 141 143 145 140 139 140 137 135 132 127 125 136 152 163 170 170 170 173 174 176 173 163 154 146 130 114 109 126 147 141 143 182 176 181 152 132 125 115 142 160 168 173 179 189 198 196 193 187 182 179 173 165 154 146 140 136 136 136 140 147 155 163 168 174 180 181 189 193 187 183 181 179 171 172 181 196 206 209 201 198 187 177 167 166 166 171 186 193 186 180 175 167 157 144 128 118 113 112 111 114 115 122 135 151 161 166 168 172 174 177 177 176 170 163 154 146 124 105 113 133 149 132 133 181 168 181 178 157 141 120 138 156 166 171 178 189 200 202 199 190 183 182 169 166 170 164 161 157 155 157 162 169 174 173 176 176 181 194 202 194 191 188 182 181 176 176 180 196 213 213 202 199 193 181 168 169 169 173 184 196 196 187 183 179 175 170 161 153 143 136 133 133 134 144 162 171 172 170 172 177 181 181 181 175 171 164 155 147 116 107 123 141 140 140 161 170 163 164 183 185 164 127 131 157 165 170 180 189 201 201 200 196 191 184 175 173 177 174 174 173 175 176 179 181 178 177 180 185 190 200 201 196 192 188 185 184 180 179 180 196 215 213 204 200 196 182 171 168 168 175 180 187 198 199 195 184 180 175 172 169 168 166 160 159 159 161 167 172 176 177 180 181 185 187 184 174 171 160 154 146 116 107 128 135 148 169 176 183 176 161 168 196 171 136 133 161 164 168 179 187 198 201 203 202 197 191 186 182 184 183 182 184 185 178 179 176 176 178 186 197 200 201 199 193 190 187 188 185 181 179 180 194 215 212 207 203 194 182 171 167 169 176 181 180 192 200 205 197 186 183 178 176 175 174 174 173 172 173 174 177 175 178 183 189 188 189 183 176 170 162 156 147 111 106 126 129 159 179 167 189 182 180 180 194 178 146 142 161 162 166 172 183 192 198 201 201 202 199 195 192 186 182 179 179 178 175 176 177 181 185 192 203 202 200 198 191 187 189 190 187 183 181 185 199 214 215 212 206 195 182 172 168 171 175 182 180 185 195 201 200 195 190 185 185 181 183 184 186 186 189 189 193 191 189 193 193 191 187 185 175 166 159 157 147 112 116 126 134 160 182 158 189 186 188 194 187 181 157 146 156 158 160 166 176 185 192 196 199 202 201 200 197 191 184 181 180 182 184 186 188 195 201 200 202 201 200 196 193 188 186 187 184 183 183 188 202 216 216 214 207 196 181 173 170 174 175 178 181 183 192 197 201 201 201 198 194 192 195 196 195 196 197 198 199 200 198 198 197 193 185 179 173 163 156 156 148 116 127 133 148 168 176 163 190 185 191 197 183 177 167 145 148 161 158 164 167 177 187 190 198 200 201 202 200 198 197 197 200 198 200 201 202 207 209 207 205 201 197 195 192 189 187 184 186 185 185 193 204 214 216 213 207 199 184 177 173 174 178 178 180 185 192 195 199 202 205 204 203 205 205 205 201 201 201 200 200 200 201 199 198 191 182 175 169 159 154 155 148 121 138 161 165 173 167 172 191 189 192 196 188 173 164 139 142 159 154 158 159 169 179 186 193 198 199 200 200 202 201 203 209 209 209 212 209 207 209 210 206 202 201 195 191 185 187 185 187 187 188 199 206 214 218 214 207 199 189 180 176 176 177 180 179 184 190 195 197 200 204 206 208 209 212 208 206 203 203 202 203 201 200 198 197 192 178 170 162 155 151 153 148 124 135 163 163 166 168 175 192 190 189 192 188 173 158 134 141 157 152 152 155 162 171 180 186 194 197 197 201 205 202 204 209 210 212 213 212 211 211 209 203 202 200 197 192 187 189 188 186 187 194 202 207 217 218 213 208 202 191 182 176 175 177 178 177 183 190 195 196 197 205 208 208 210 212 211 208 200 201 203 202 200 200 197 192 186 176 169 156 149 145 151 147 123 124 145 149 158 171 175 192 190 183 189 190 181 169 156 147 157 149 150 155 159 168 176 178 186 194 197 199 202 206 209 208 212 214 212 212 213 214 212 207 200 198 197 193 187 186 187 183 189 198 202 211 217 217 214 210 204 194 184 176 173 175 174 177 183 190 193 197 199 207 208 209 212 210 209 206 198 200 203 202 200 198 195 190 182 174 163 151 144 145 152 146 127 137 147 150 159 172 176 192 191 178 185 189 185 182 167 148 154 147 145 151 156 168 175 178 184 191 197 202 204 208 209 208 210 214 211 210 210 215 211 204 200 199 194 192 185 185 185 184 193 200 209 216 214 213 213 210 204 198 185 175 173 175 175 176 179 192 196 198 200 205 208 206 211 209 206 204 201 201 202 201 199 197 195 190 180 172 163 152 142 144 151 144 134 150 157 162 170 175 174 193 193 179 179 189 186 185 171 149 151 152 144 147 155 167 177 184 192 193 197 201 205 209 209 208 206 209 209 208 204 210 208 208 204 195 188 183 186 190 188 188 197 205 214 216 214 213 211 209 208 201 190 175 171 178 180 175 177 189 190 198 196 198 204 204 206 209 206 200 200 199 201 200 199 199 195 190 181 169 161 153 144 142 148 138 144 160 163 171 178 179 170 193 194 185 170 186 188 188 181 158 148 153 144 145 151 162 175 185 190 193 196 199 202 205 206 206 205 205 207 207 202 205 205 198 192 182 177 180 193 195 192 190 199 207 212 216 214 211 210 208 207 201 194 181 173 181 185 180 176 180 186 191 189 195 200 201 200 202 202 199 196 198 197 198 197 193 190 189 179 166 157 150 143 139 145 135 149 162 165 174 176 175 162 192 192 192 165 166 181 188 186 164 147 152 145 143 149 154 167 180 187 190 194 195 197 200 201 203 203 203 204 205 199 198 195 183 176 173 175 190 203 200 191 190 199 205 208 216 218 213 213 209 205 197 190 182 175 184 189 186 177 177 179 181 186 191 193 196 195 197 199 197 196 193 193 194 191 185 185 182 176 168 158 149 141 136 144 134 149 156 163 169 165 155 155 193 193 194 182 149 153 173 178 163 147 153 147 142 147 149 163 180 184 184 187 191 194 195 196 199 200 200 199 198 188 182 181 174 169 170 175 195 208 200 192 188 194 199 202 210 222 223 217 213 204 193 186 179 175 183 190 189 179 170 170 173 175 178 184 189 190 191 193 191 194 190 189 187 187 183 178 178 173 165 156 148 140 137 141 136 146 152 155 156 149 129 167 191 192 192 194 175 140 137 150 150 146 152 150 142 141 148 160 171 175 181 182 184 189 190 190 193 192 190 188 188 182 175 169 163 163 170 177 192 200 196 187 180 187 190 194 197 202 206 206 203 194 186 177 171 168 182 190 188 179 167 167 169 168 174 179 181 183 185 184 183 185 184 185 183 182 178 173 170 165 158 153 147 138 139 137 133 136 135 133 128 124 156 190 192 193 194 191 193 182 157 138 137 142 152 155 143 140 147 152 152 165 175 180 179 185 186 185 185 184 182 183 181 177 169 161 160 165 168 176 184 186 182 174 164 167 174 180 179 178 182 183 183 182 171 164 153 158 175 179 179 176 164 166 169 164 166 167 172 176 179 181 180 181 180 181 180 177 170 164 166 161 155 150 143 139 138 138 131 119 122 131 144 169 188 187 193 193 192 191 191 191 190 180 150 141 153 159 143 136 143 147 148 160 169 175 177 180 182 182 182 183 180 180 179 174 165 159 162 168 167 164 169 163 155 149 139 133 143 154 158 159 162 167 168 163 152 136 133 144 151 155 160 163 154 157 166 157 155 159 168 174 177 176 176 176 174 174 172 167 162 161 157 153 153 146 142 141 140 141 137 156 171 181 187 188 184 184 192 192 192 192 191 189 189 184 164 149 151 157 141 133 138 147 151 157 162 168 174 178 179 180 181 178 177 178 176 170 163 163 172 172 167 153 138 128 108 95 98 103 109 119 125 133 143 151 151 139 124 113 113 110 115 129 136 140 141 152 158 157 152 157 168 179 177 173 170 166 168 168 162 159 157 155 152 150 148 143 140 140 143 139 141 183 186 185 184 184 185 184 193 193 192 192 192 191 189 187 174 151 147 156 143 135 136 144 150 156 161 168 172 176 176 178 176 175 176 177 170 166 164 170 179 174 172 154 119 90 60 46 45 53 75 92 98 107 125 129 126 117 105 81 63 55 59 82 106 122 136 151 159 165 160 152 158 163 166 166 164 166 167 163 157 156 154 150 146 143 138 139 138 142 144 132 145 181 183 184 183 184 184 184 192 192 192 193 192 190 189 188 174 148 152 152 144 139 137 145 149 151 159 165 168 173 174 175 174 174 178 171 167 167 168 181 185 180 177 163 137 100 70 54 47 49 50 61 81 93 105 108 103 98 72 50 48 50 53 70 96 120 145 162 171 176 173 160 144 145 153 160 164 167 165 160 155 152 149 145 140 133 133 135 137 142 140 127 143 180 183 183 183 183 183 183 191 192 191 191 191 190 190 189 178 157 164 151 145 137 136 141 148 151 156 159 161 167 168 173 171 171 172 171 173 172 183 191 189 188 188 179 162 134 107 87 74 70 64 55 58 76 85 90 89 70 65 70 73 74 80 100 120 137 156 175 182 181 180 173 155 141 147 162 169 172 166 160 154 150 145 138 135 129 128 132 137 142 141 133 148 179 183 182 182 184 182 183 190 191 190 190 191 190 189 188 178 164 165 154 142 133 133 138 144 149 152 157 156 162 167 172 170 170 167 170 179 187 194 198 197 197 191 187 180 168 154 133 123 112 96 82 69 64 64 69 69 70 79 91 98 110 119 128 141 154 163 178 182 183 182 179 174 154 134 145 155 163 162 155 157 153 147 139 130 127 125 132 135 142 144 138 155 181 182 182 182 184 182 183 189 190 191 190 191 189 189 189 176 158 159 149 143 131 130 140 143 146 152 156 159 160 166 168 166 163 165 179 191 196 200 199 198 197 192 188 179 180 172 155 148 146 134 118 102 84 74 75 79 86 99 111 118 134 138 143 155 168 170 175 183 185 182 180 176 172 154 130 125 135 149 163 166 157 147 142 131 126 128 132 134 145 148 137 157 180 183 181 182 183 182 183 190 189 190 190 190 189 189 187 178 158 153 146 145 135 130 138 140 142 149 156 162 163 170 168 166 162 175 192 194 191 195 192 190 186 193 187 174 176 169 160 153 158 153 145 130 110 98 96 96 102 120 129 129 141 145 149 159 171 174 174 178 183 180 179 176 175 170 158 134 133 150 172 168 154 148 140 131 130 130 134 134 145 150 140 164 181 181 182 183 183 182 181 188 188 189 189 189 190 189 188 183 161 150 147 141 135 131 133 138 140 146 151 160 169 166 163 166 173 188 191 189 185 186 182 187 180 185 183 172 171 165 159 164 169 160 157 150 138 131 135 130 132 143 153 149 147 141 146 157 160 171 170 170 174 170 168 168 174 169 169 163 142 133 139 140 149 148 137 133 132 134 138 132 139 151 149 170 183 181 182 183 183 183 182 187 190 192 191 191 191 191 190 187 164 145 147 140 135 135 138 141 142 145 148 156 162 159 158 165 182 182 181 188 185 185 175 181 182 175 176 168 171 162 156 162 171 165 168 156 152 153 163 162 154 160 166 164 162 152 153 168 159 168 173 173 172 170 164 161 161 159 168 156 142 129 124 134 144 141 139 139 140 140 138 134 138 148 150 170 185 184 183 183 184 184 183 184 177 180 181 182 183 183 183 184 170 147 149 145 143 139 141 144 143 142 148 152 156 157 156 176 179 172 176 184 179 177 173 181 179 173 169 163 169 163 161 163 170 169 168 160 159 159 168 173 164 168 173 166 169 171 168 171 169 174 173 177 174 173 169 162 154 150 162 156 143 139 131 138 141 142 146 146 143 138 137 130 136 143 142 160 185 184 184 184 184 185 184 176 125 119 116 121 124 126 128 130 136 142 152 148 147 144 145 148 146 140 147 149 152 155 160 174 167 171 180 173 169 171 178 175 167 172 174 172 175 166 166 169 174 167 165 170 167 170 172 175 172 174 172 168 169 175 173 171 171 175 175 177 178 179 168 165 160 152 150 157 154 144 135 140 150 152 152 148 143 141 135 125 128 141 138 163 187 184 184 184 184 184 184 168 99 80 70 78 83 82 80 80 88 132 149 147 150 150 147 147 143 141 144 147 152 154 165 169 160 167 172 171 164 164 173 174 170 169 174 180 184 175 173 176 175 171 171 176 175 176 182 179 184 183 176 173 168 168 173 173 171 171 172 174 179 177 164 158 154 154 152 152 163 153 147 150 160 156 152 148 145 144 135 120 121 135 131 172 187 184 185 185 185 184 183 163 103 85 84 87 84 83 81 74 76 123 142 149 155 154 152 149 144 142 137 142 148 148 163 167 163 163 164 161 153 155 166 169 171 170 175 181 183 183 178 172 171 174 173 179 182 182 188 187 188 182 170 160 153 158 160 160 157 154 144 148 154 157 152 148 138 147 147 147 160 157 156 157 166 159 151 148 142 144 135 120 120 126 131 177 185 183 184 184 185 184 184 159 105 88 98 90 85 85 87 83 69 99 137 148 156 158 155 154 147 140 137 136 145 148 158 163 163 164 155 144 146 151 149 143 156 161 156 154 158 159 161 156 152 148 143 148 153 159 167 167 148 138 141 139 140 149 148 144 144 141 131 123 113 128 148 148 141 138 141 142 151 157 159 163 170 157 149 148 143 140 131 118 121 116 143 180 184 182 184 184 183 183 183 158 104 91 98 89 92 88 88 87 73 84 129 146 155 157 159 158 150 144 141 138 146 152 156 159 159 158 152 146 145 135 130 124 118 120 134 140 142 141 146 147 142 141 133 123 127 120 122 115 119 123 117 118 111 107 94 91 100 111 119 120 117 105 98 116 138 137 143 145 153 162 166 170 170 157 148 146 144 135 123 116 117 112 151 182 183 182 183 183 183 183 183 157 101 92 100 91 100 93 89 88 78 72 109 138 150 155 161 160 151 146 147 141 146 156 162 160 156 159 151 147 140 122 104 78 65 86 112 111 98 84 75 80 85 93 102 102 107 102 98 92 97 86 84 92 88 89 94 104 105 108 112 114 111 103 103 114 129 142 137 147 156 165 170 174 171 152 143 147 144 134 122 119 110 115 169 184 183 184 183 184 184 184 183 156 102 93 102 91 99 98 93 90 86 74 87 119 136 152 158 159 151 151 151 146 146 151 162 173 165 152 146 143 131 118 103 107 111 110 104 81 78 97 106 111 110 104 105 109 102 101 108 118 115 123 137 142 143 145 151 153 151 150 145 146 160 170 171 173 165 159 149 153 161 171 171 172 165 148 142 146 142 139 127 124 100 130 180 184 184 184 183 183 183 183 183 155 103 94 104 90 99 100 98 94 90 82 81 102 128 145 150 157 151 148 149 149 146 150 158 176 165 150 149 151 151 158 168 177 177 171 159 149 146 150 148 151 163 167 171 171 164 162 165 176 172 167 165 164 161 161 165 164 168 172 172 180 179 175 174 180 175 168 164 163 166 171 167 166 157 145 143 140 139 139 127 114 100 155 187 183 183 182 182 183 183 182 182 149 113 100 115 103 110 111 107 102 94 88 81 91 124 138 147 154 151 146 146 149 146 149 158 163 165 156 160 164 171 177 183 182 181 177 175 175 173 174 166 159 161 166 165 168 168 165 167 170 171 175 173 167 172 177 178 180 184 175 167 171 170 172 176 180 177 169 164 168 172 164 157 155 151 137 140 136 138 135 118 108 136 184 182 181 181 181 182 182 182 182 182 146 129 116 129 135 135 144 140 133 126 117 110 109 119 128 139 149 150 146 146 146 148 149 156 161 163 163 170 171 180 184 187 188 186 184 181 170 160 160 170 172 171 172 171 172 166 166 168 168 168 174 168 168 175 174 171 175 173 167 169 173 175 179 179 181 181 172 168 174 171 159 151 148 136 135 139 134 142 131 110 117 173 185 181 181 180 180 182 182 182 182 183 145 140 140 127 150 158 170 172 171 169 165 164 161 147 119 121 149 147 143 147 152 151 146 151 159 161 164 172 177 180 189 195 196 191 189 191 186 168 155 157 158 155 154 156 159 152 151 152 152 153 156 154 159 163 164 164 167 168 172 172 174 179 182 185 181 176 168 170 173 162 149 146 140 134 134 127 131 142 125 105 132 184 181 181 181 181 182 182 182 182 183 183 143 141 152 131 135 167 171 178 183 183 182 181 180 180 151 111 135 146 142 143 149 153 147 147 153 154 162 171 180 186 192 194 197 196 194 195 193 183 173 164 156 151 151 147 152 150 142 145 145 151 152 160 170 168 165 166 174 171 175 168 170 176 183 183 178 176 170 170 168 150 139 141 133 131 127 123 133 139 115 109 151 188 183 182 183 184 183 183 182 183 183 183 142 143 156 156 130 146 173 177 183 185 184 182 181 183 179 119 115 140 138 143 149 149 149 146 140 143 156 167 175 186 189 190 191 194 196 197 193 190 182 172 161 165 168 157 162 159 153 158 153 155 158 164 165 158 158 164 161 158 168 169 172 177 180 176 174 172 171 174 165 144 140 133 124 125 127 123 133 128 107 119 159 187 184 184 185 184 184 184 183 183 184 185 142 145 155 166 155 128 153 182 184 183 184 183 183 182 186 150 115 128 136 143 146 144 144 144 137 137 144 152 164 178 185 188 187 189 190 191 190 186 185 179 174 169 159 155 154 154 155 169 156 144 149 164 154 153 149 155 149 154 158 168 170 172 172 172 172 170 169 161 157 148 139 126 118 122 124 123 130 116 115 126 162 186 183 184 186 184 183 183 183 183 184 184 140 145 155 164 172 159 140 153 178 187 188 188 184 182 187 179 129 111 129 139 142 144 144 138 137 140 144 155 166 173 178 183 184 181 182 181 181 178 178 177 171 165 159 155 151 146 150 164 154 143 149 157 140 152 149 155 154 155 158 164 167 167 170 172 168 164 156 148 146 143 131 116 120 123 118 125 126 117 123 129 170 184 182 184 184 184 183 183 184 182 183 185 140 145 157 164 174 177 172 148 146 166 181 188 191 192 191 208 142 113 109 127 135 139 143 138 132 139 147 157 165 169 168 171 177 177 178 178 174 172 171 169 165 164 164 158 156 155 146 151 144 147 154 141 148 144 152 158 153 156 161 165 167 168 172 173 160 160 155 149 147 137 127 121 124 123 112 116 117 121 127 129 198 190 179 183 184 184 182 181 183 183 182 184 139 147 158 166 174 177 183 180 166 151 146 153 167 171 179 236 158 131 109 107 124 132 140 143 144 145 144 143 153 159 170 168 168 169 174 174 170 165 163 164 164 163 160 155 153 147 143 162 151 141 144 141 149 151 158 168 162 161 165 170 170 174 171 158 156 158 155 147 144 134 130 128 120 115 109 100 114 123 130 131 215 212 177 183 182 182 183 183 181 181 181 185 138 152 159 165 173 177 182 186 188 183 167 156 157 150 173 254 172 134 126 104 115 120 131 140 144 147 146 141 144 159 158 164 163 163 169 169 169 166 166 169 171 166 164 168 166 163 167 158 150 143 149 157 168 169 170 164 162 169 173 176 177 176 170 159 155 152 152 145 134 133 127 121 113 111 100 105 123 126 132 133 216 238 181 179 181 182 182 181 179 181 182 185 136 152 160 167 173 177 182 185 189 191 190 189 188 181 207 255 188 133 140 115 97 104 115 130 136 138 141 152 150 152 159 156 155 163 169 170 176 178 173 174 176 177 184 196 197 197 191 182 176 180 180 184 191 188 177 168 172 177 179 183 180 174 170 164 160 165 154 144 133 131 125 112 105 92 97 115 125 128 131 136 212 249 196 174 179 180 180 179 178 179 181 184 136 150 159 167 172 178 182 185 187 189 191 192 192 187 220 255 203 134 141 127 109 97 101 119 135 130 135 145 147 145 153 157 157 163 171 175 180 184 179 184 194 197 201 199 199 203 197 198 203 203 194 195 194 191 191 191 191 188 194 191 186 181 174 164 165 164 149 139 132 123 118 107 93 86 112 122 125 130 132 140 206 249 214 171 177 177 177 178 178 179 180 183 136 149 158 166 173 178 182 184 187 188 189 191 191 189 227 255 222 139 141 135 125 102 95 109 117 122 127 135 143 146 157 163 167 172 179 182 185 189 195 203 202 202 202 199 201 202 200 200 200 198 197 195 197 197 194 194 192 194 197 190 184 179 174 160 153 149 141 137 135 121 117 100 92 106 118 123 129 133 137 142 201 246 227 173 174 174 174 175 176 177 179 182 136 147 158 165 173 179 182 185 186 188 190 190 196 184 228 255 241 151 139 137 130 116 108 102 103 113 120 136 141 140 143 153 163 173 181 177 184 184 194 200 197 198 198 199 202 197 198 197 191 191 197 192 197 194 188 189 185 190 191 183 179 172 168 161 150 137 127 132 131 126 105 96 111 121 123 127 133 134 139 147 199 245 234 175 173 174 174 175 175 175 178 182 135 146 157 166 172 178 182 185 187 189 189 196 177 149 239 254 254 174 138 141 133 130 122 106 104 113 118 123 120 127 131 150 165 167 176 172 183 183 190 191 189 190 192 196 196 192 195 186 186 188 191 188 192 191 188 185 182 187 182 175 171 167 156 157 154 134 127 119 116 110 100 110 118 123 129 132 134 138 144 151 200 247 236 177 174 176 175 175 175 175 177 182 137 147 157 166 172 178 181 184 188 190 193 190 82 151 249 252 255 204 140 143 137 136 128 120 110 102 110 119 122 130 125 147 158 163 169 172 178 180 185 181 181 184 181 186 190 183 184 180 176 184 187 179 182 187 184 179 183 181 171 163 160 156 144 142 135 128 127 113 102 101 105 118 122 128 130 133 137 143 149 150 207 248 234 147 172 175 176 174 175 174 175 183 143 157 163 165 172 178 182 184 187 189 198 110 40 204 244 249 255 236 156 143 139 139 133 124 114 113 107 114 120 131 129 132 146 153 159 166 167 172 168 165 172 176 172 181 181 172 169 169 170 173 174 172 172 175 174 174 174 165 161 155 145 142 140 141 120 129 116 109 97 103 112 122 128 132 133 136 141 146 152 148 221 251 238 98 137 182 176 174 175 178 177 163 130 149 170 176 173 177 181 185 187 198 151 42 83 243 239 245 255 254 189 144 142 139 135 128 121 115 104 100 107 123 126 124 129 142 153 158 159 167 157 150 165 163 166 163 174 170 169 168 166 157 160 167 170 161 163 160 159 152 149 141 138 128 120 139 119 123 99 102 102 110 118 125 132 136 135 139 143 150 143 149 239 252 240 93 68 176 177 177 180 168 139 103 105 103 145 180 179 175 181 186 189 193 87 32 132 255 237 240 254 255 229 157 146 143 139 135 126 119 110 100 99 116 126 108 114 137 137 142 145 149 149 143 150 154 157 156 160 158 159 165 159 154 156 158 156 158 160 148 139 141 134 128 133 129 126 116 109 105 101 99 107 117 122 128 135 136 138 144 148 154 120 172 251 250 238 114 29 129 184 171 151 113 83 80 82 75 112 134 173 178 177 184 195 149 50 40 178 255 239 237 250 255 253 195 150 146 142 137 129 120 115 107 100 105 106 108 104 125 127 134 133 138 135 131 128 142 152 150 143 150 146 151 147 165 153 147 155 156 146 143 136 139 126 120 117 125 113 102 104 100 103 107 114 119 125 132 135 136 144 146 149 142 116 218 253 243 232 129 25 75 149 118 89 74 76 85 67 68 92 116 135 180 174 182 193 91 44 57 218 254 242 236 245 255 255 235 165 143 140 140 136 124 117 112 105 97 101 104 104 103 112 118 126 143 129 124 114 127 129 135 141 153 145 147 152 144 141 140 140 137 140 135 129 122 123 116 114 106 92 96 106 104 108 113 117 120 125 131 135 139 144 146 148 113 154 249 250 234 228 139 29 51 77 74 74 73 78 87 67 66 76 116 96 160 177 188 162 53 47 79 241 252 244 237 240 252 255 254 212 153 147 143 139 134 124 114 110 104 93 91 106 93 104 119 121 124 125 120 113 116 121 136 135 138 137 140 139 135 140 123 125 133 125 122 120 106 105 103 101 91 98 102 112 112 114 116 119 125 128 133 138 140 144 143 130 117 221 253 246 224 225 153 29 46 55 59 63 75 85 94 72 78 73 75 73 130 183 174 95 50 44 101 251 251 246 239 237 245 253 255 249 190 151 150 142 136 133 121 116 109 101 92 90 91 98 97 107 101 110 102 106 102 117 128 133 114 139 129 127 121 112 110 110 117 103 96 92 86 83 88 85 95 106 114 116 119 121 122 124 128 134 138 141 140 143 137 110 182 252 248 238 218 223 176 34 43 50 56 50 57 81 103 68 83 90 61 60 111 162 99 61 55 39 118 255 250 249 243 238 240 249 254 255 240 176 150 150 142 136 128 120 114 108 102 96 91 85 83 96 84 94 86 89 94 111 115 110 118 114 105 113 92 87 97 89 74 80 77 78 69 78 88 99 111 117 119 119 123 124 128 129 133 137 140 142 141 138 114 149 239 251 244 229 213 219 199 43 37 46 59 56 47 52 88 63 74 83 61 80 88 77 62 64 55 36 129 255 249 250 246 239 239 242 251 255 255 231 167 150 148 141 131 125 120 113 108 105 103 95 89 82 75 75 72 72 74 79 83 74 86 83 78 78 65 66 64 61 55 61 63 78 90 97 102 113 118 121 122 122 126 130 132 132 135 138 138 140 139 120 131 225 250 247 238 221 214 216 215 59 33 42 52 58 50 46 54 63 62 59 65 86 62 59 65 60 56 38 134 255 248 250 249 241 239 239 245 252 255 255 225 163 148 148 140 133 128 119 116 109 105 104 100 94 81 75 66 65 59 55 51 51 48 54 57 54 51 49 53 53 58 64 83 105 109 107 109 117 119 122 126 127 131 133 135 138 137 139 140 136 123 117 207 250 248 243 230 217 214 213 227 82 26 40 46 59 54 48 48 67 65 59 61 58 58 62 64 58 55 37 132 255 247 250 250 246 240 238 240 246 253 255 253 222 167 152 150 140 132 130 122 115 110 109 105 102 96 90 82 76 67 60 57 55 51 52 50 49 48 46 48 55 65 75 98 113 111 109 112 118 121 124 129 132 133 135 141 142 140 139 137 127 117 191 249 249 245 236 222 215 215 212 233 107 22 41 43 56 59 50 49
