P2
# Generated by OpenCV 4.2.0
92 112
255
58 47 53 56 73 112 139 141 147 165 181 194 192 202 194 192 203 206 209 210 209 212 212 212 212 211 210 211 209 208 208 213 213 215 215 215 214 190 188 193 163 133 130 119 129 146 185 194 185 163 165 157 199 208 203 201 205 203 191 195 191 180 138 111 78 84 96 93 146 124 112 113 106 93 78 61 56 49 42 38 50 58 62 72 80 71 62 51 31 27 31 38 58 54 51 60 95 135 152 153 161 174 188 195 198 200 194 199 206 206 211 210 209 210 212 212 214 214 213 215 214 214 215 215 216 215 215 215 213 200 188 196 160 132 121 117 121 159 188 206 197 169 161 146 186 201 210 207 203 201 200 199 197 190 170 140 102 78 89 92 165 152 123 121 119 114 103 82 65 57 53 50 48 52 55 60 69 65 68 58 37 35 30 30 64 54 44 63 105 147 161 165 170 179 187 193 200 201 198 202 203 208 210 209 209 210 213 215 217 217 217 217 215 215 217 216 215 217 217 217 213 205 196 194 151 129 112 115 125 176 195 210 201 176 170 147 169 202 211 208 205 202 202 204 198 195 185 162 127 81 88 87 160 177 160 128 118 124 123 107 80 61 59 61 54 46 50 56 57 57 62 57 42 34 31 29 77 52 42 77 120 151 168 173 176 184 192 197 199 201 201 203 204 209 207 206 209 212 213 215 215 217 218 218 219 218 217 214 217 218 218 220 220 201 198 187 151 126 107 113 139 183 200 210 204 189 180 155 161 209 214 207 204 201 203 205 202 202 196 184 160 106 86 93 147 183 186 162 139 119 114 110 93 71 58 53 60 61 55 49 57 59 51 52 49 40 34 24 87 53 51 87 130 153 171 175 179 186 194 199 200 200 201 202 205 207 206 207 208 209 214 214 216 216 217 218 217 217 217 217 218 218 219 217 215 204 194 173 149 121 110 129 168 197 204 218 213 198 186 163 158 209 212 205 205 204 204 207 204 205 199 192 177 132 80 93 140 176 186 182 171 152 127 114 103 94 79 62 54 49 51 51 55 51 48 47 36 38 36 23 84 51 63 98 137 156 173 177 181 188 195 199 200 203 202 204 206 207 209 209 209 210 211 214 215 216 216 217 218 219 219 217 218 218 217 215 211 204 196 177 157 137 134 158 191 210 215 215 214 208 199 178 172 200 206 208 209 209 209 207 203 203 198 196 184 156 100 100 139 175 185 191 187 179 157 133 115 108 98 83 69 58 54 53 49 50 49 42 37 34 33 28 69 54 70 108 143 162 175 180 185 190 197 201 201 202 203 204 205 206 209 210 208 209 211 213 215 214 217 218 218 220 220 219 219 218 217 216 216 216 215 206 195 181 178 191 203 212 212 213 215 216 206 201 192 196 211 213 213 212 210 208 206 205 204 198 196 184 121 121 142 178 187 190 189 188 179 159 148 136 114 101 91 85 74 60 44 43 51 42 37 32 29 32 78 56 76 118 146 164 178 183 184 191 198 202 203 205 203 204 206 206 209 210 208 210 212 214 215 215 217 219 218 222 221 221 221 220 217 216 218 218 219 217 215 207 208 212 212 213 212 211 213 217 213 214 206 204 213 213 214 213 210 209 205 205 203 199 197 184 135 143 153 176 186 190 190 187 182 166 159 154 141 129 115 101 98 98 70 57 78 62 43 30 21 29 65 54 84 127 150 165 174 180 183 189 197 200 204 204 203 206 206 207 208 210 209 212 212 213 214 216 217 217 217 218 221 223 222 220 219 218 219 219 219 222 223 214 215 219 217 217 217 215 217 221 216 213 215 215 214 215 216 214 211 209 209 206 203 201 198 181 156 166 165 179 187 186 188 189 178 169 168 164 156 148 128 113 110 114 98 70 100 98 69 43 28 22 54 49 92 134 156 167 176 180 183 189 195 199 204 207 203 203 203 205 208 209 209 213 212 213 215 216 217 217 216 218 220 222 221 220 219 218 218 219 221 221 219 218 216 216 214 214 215 216 215 217 217 218 216 216 214 213 214 213 210 208 209 210 204 202 200 184 175 178 167 187 193 187 186 185 172 167 168 169 161 154 136 126 118 113 117 84 98 124 92 53 34 27 66 45 96 139 160 170 176 181 184 188 195 199 204 205 202 202 202 205 209 209 210 213 212 213 215 216 217 217 216 218 220 221 221 220 220 219 218 219 220 220 221 219 216 217 215 216 216 215 216 215 217 216 216 213 215 215 213 210 208 211 210 207 205 201 205 194 193 187 171 191 197 191 188 185 176 171 174 171 162 154 143 137 121 106 128 106 88 122 119 76 42 25 92 73 103 142 160 169 178 182 185 191 196 200 203 206 203 199 202 203 208 211 211 212 211 213 215 216 218 217 216 218 221 221 220 220 221 219 218 220 220 220 222 221 219 218 218 215 216 216 215 215 215 215 215 215 215 215 214 211 209 211 209 204 202 203 207 203 197 193 190 192 197 194 193 186 178 173 177 169 159 152 142 132 127 115 117 126 89 105 130 96 56 29 92 86 114 151 165 167 178 180 184 189 198 203 204 205 201 202 204 206 210 212 214 212 211 213 215 216 217 217 216 217 220 221 221 221 221 219 218 219 220 221 221 221 219 217 218 216 218 216 214 214 215 214 214 213 213 212 211 210 209 209 207 206 206 208 205 203 201 201 202 196 198 196 196 183 176 174 174 166 155 156 139 126 120 116 103 128 91 92 124 107 68 37 88 76 118 153 164 164 175 180 182 187 196 201 203 205 202 203 205 207 211 214 217 213 214 213 215 216 216 218 219 220 217 217 218 219 220 218 218 219 219 220 221 221 218 217 218 217 217 217 213 213 214 214 212 214 212 211 212 210 209 205 205 206 205 207 206 204 200 202 203 199 199 198 196 182 174 173 175 167 154 152 136 120 112 118 103 126 105 90 123 106 83 49 92 81 123 155 164 168 181 181 181 186 196 199 201 205 204 205 207 209 211 213 216 218 215 216 216 219 217 219 219 219 218 217 218 219 220 219 219 220 221 221 219 219 218 216 216 218 218 216 214 214 214 213 212 211 212 211 209 210 208 206 207 207 206 205 205 201 198 198 199 201 200 197 194 184 176 175 172 163 157 151 136 118 118 122 101 128 120 89 113 125 81 65 84 89 125 153 160 168 181 177 178 183 194 199 204 203 204 206 207 208 210 212 214 219 217 218 220 219 219 220 220 220 218 219 218 221 220 220 219 220 222 220 221 219 218 217 216 218 218 217 215 215 215 214 212 212 210 211 212 213 212 209 210 208 208 205 204 202 201 201 202 203 197 194 189 181 176 174 171 160 158 151 133 111 122 125 106 122 129 106 103 118 90 66 68 79 122 147 152 165 180 177 176 182 192 200 203 203 203 205 206 207 208 209 213 216 215 217 218 219 219 221 221 220 218 217 218 219 220 220 220 220 222 221 220 220 219 216 216 218 218 219 216 216 217 216 217 217 213 212 213 212 211 209 209 209 207 206 206 205 203 199 199 201 198 194 188 179 175 174 172 161 162 155 139 102 111 117 113 112 118 111 99 105 83 57 50 69 119 142 149 162 177 174 175 182 190 202 202 202 205 205 206 206 209 209 213 214 215 216 217 217 219 221 221 221 218 217 218 219 220 219 220 219 221 221 220 220 219 217 216 217 218 218 218 217 216 218 217 217 215 213 213 211 210 209 210 208 208 206 207 206 204 201 200 199 198 191 185 178 174 170 170 166 165 160 139 110 105 104 109 101 99 97 107 94 71 52 49 68 121 145 149 159 179 178 179 186 193 202 203 202 203 204 209 207 208 208 212 214 215 217 218 218 219 222 223 224 220 220 221 219 219 221 221 220 222 221 220 221 219 218 217 217 219 220 219 217 218 218 220 219 217 215 213 211 207 208 209 210 207 206 207 207 206 203 200 199 197 188 182 174 172 171 171 167 171 167 147 112 98 96 89 83 75 76 111 96 66 42 71 79 127 146 148 161 170 173 180 189 197 201 203 206 209 209 210 209 210 210 211 214 217 217 217 217 219 221 223 223 222 222 224 222 221 222 222 222 220 222 223 222 221 221 221 220 219 218 220 219 220 221 221 221 218 216 213 211 208 207 209 209 208 205 206 206 205 203 201 198 197 188 179 175 174 174 174 170 172 165 144 116 99 81 71 74 60 68 97 117 59 42 85 91 132 145 146 160 167 171 181 194 200 202 203 204 206 208 207 207 208 210 212 212 215 216 217 217 219 221 221 220 223 225 226 224 224 221 221 221 221 222 224 223 223 222 222 221 221 220 222 220 222 222 219 218 218 216 216 211 206 208 209 210 208 205 204 204 204 202 201 201 197 185 180 176 174 174 173 171 161 156 130 119 96 74 67 68 54 63 84 128 62 41 82 99 131 143 148 159 171 176 187 197 204 198 198 197 199 200 202 203 207 209 210 213 215 215 216 216 219 221 221 221 222 222 224 223 222 219 221 219 221 221 223 222 221 220 223 222 222 222 223 225 223 222 221 220 217 217 218 215 210 209 206 209 209 205 203 204 204 202 200 197 194 189 179 174 174 171 168 166 157 157 133 129 96 77 65 64 63 71 71 112 69 39 87 103 132 139 147 157 170 172 177 182 185 186 186 181 180 184 185 188 191 194 199 204 209 209 212 213 217 220 219 219 219 221 223 221 220 219 219 219 219 221 223 220 219 219 222 221 222 221 221 225 223 221 220 219 217 217 219 215 212 209 204 206 208 203 203 203 202 201 201 198 196 187 177 169 170 169 164 164 163 151 138 125 97 74 71 63 72 87 71 84 73 38 85 105 132 138 140 145 149 155 161 165 167 175 174 163 162 160 159 159 163 165 171 177 184 189 193 201 208 216 211 218 218 219 219 219 220 222 222 221 220 220 221 219 220 217 221 220 221 221 221 223 222 216 218 219 218 216 217 212 212 210 208 209 207 205 204 203 201 198 199 197 194 185 174 166 167 168 164 161 160 150 138 127 101 77 73 69 71 87 70 69 66 32 75 99 129 140 140 138 140 145 147 149 146 150 152 145 145 148 141 133 135 144 146 152 158 163 170 178 191 203 205 212 215 215 217 218 219 220 220 219 217 218 218 218 218 217 218 216 216 216 218 218 213 214 218 215 216 216 215 210 204 202 202 202 198 197 197 196 194 190 193 195 195 189 180 171 166 165 163 159 155 147 140 129 113 92 77 74 71 85 67 54 53 33 80 90 130 139 143 138 139 144 144 140 139 134 133 138 142 137 129 119 122 134 133 133 134 143 152 155 174 190 196 205 208 210 213 214 217 217 219 217 216 218 218 218 216 217 218 215 215 214 216 217 211 207 205 196 186 183 180 178 183 186 187 183 182 187 184 181 180 177 181 184 189 187 181 172 160 161 160 155 150 143 139 131 118 101 86 81 85 89 71 47 47 35 69 87 133 138 142 138 140 145 152 152 151 146 142 149 151 150 140 128 118 116 117 112 107 117 130 142 163 178 184 194 200 202 207 210 211 214 216 215 212 213 214 213 212 212 213 215 211 210 208 209 204 193 178 164 151 148 150 155 163 159 161 163 158 163 168 170 170 173 172 171 170 170 170 167 158 156 153 153 145 141 138 132 126 118 97 85 82 98 81 50 43 30 69 89 133 142 145 142 143 145 153 154 156 157 157 159 161 168 165 158 147 137 121 118 117 120 123 134 156 168 173 187 194 198 203 206 207 209 208 208 206 208 207 209 208 208 212 211 208 203 200 198 192 178 165 152 137 137 140 139 141 133 135 149 153 151 153 155 155 153 150 145 143 147 154 157 153 152 150 146 142 142 144 139 132 129 113 91 83 106 87 52 40 25 89 93 132 148 147 146 147 147 151 154 154 158 164 169 170 172 177 178 176 169 164 158 148 139 136 138 151 160 163 178 186 191 195 199 204 201 202 203 205 202 204 204 204 203 208 209 205 200 195 195 184 169 165 153 132 123 120 114 109 119 130 136 128 135 141 147 148 145 140 137 136 140 144 146 144 142 141 140 139 143 147 141 138 133 121 106 93 116 91 51 37 27 107 99 134 150 152 147 145 148 150 148 152 160 169 176 178 184 187 191 189 186 183 186 181 169 159 148 146 149 155 166 176 187 191 194 198 198 196 200 202 202 203 204 202 202 202 204 206 198 193 186 179 174 165 151 139 130 130 127 126 131 138 147 153 158 159 164 168 170 164 162 158 154 152 149 141 133 137 141 140 143 147 139 138 131 124 110 99 111 82 40 32 30 106 102 142 152 154 148 146 149 149 144 149 161 175 181 182 186 188 192 196 198 198 204 201 192 185 173 160 149 143 150 160 172 181 187 188 193 195 197 200 203 204 204 200 198 197 192 194 193 187 179 174 171 160 153 154 159 162 165 172 178 183 193 189 184 183 184 181 181 177 173 171 169 165 157 142 134 139 143 138 140 146 142 143 135 121 109 104 122 76 32 28 28 105 105 149 154 156 151 147 155 149 144 152 157 158 159 159 157 157 161 171 177 180 187 193 198 201 190 186 173 161 149 147 148 159 172 177 187 190 193 202 205 207 204 199 195 195 190 187 179 172 165 160 164 165 169 174 183 189 191 197 202 202 204 198 195 190 190 184 182 180 175 177 173 170 159 150 144 142 145 144 140 140 144 146 141 122 112 116 118 66 32 29 29 100 109 154 156 155 154 151 157 155 152 143 133 130 137 146 148 152 161 161 166 173 167 160 168 181 195 196 192 184 174 162 145 141 150 166 180 185 190 199 209 210 206 198 195 189 182 177 166 161 160 162 169 179 184 190 198 201 201 203 200 197 200 198 195 190 190 188 183 178 175 171 167 162 157 153 151 148 147 146 141 140 143 149 141 127 121 123 107 61 31 31 29 98 114 154 160 158 155 152 149 149 143 127 125 133 138 145 133 108 103 101 98 121 130 141 138 136 157 174 187 188 188 181 169 156 147 148 167 183 196 206 212 216 210 200 195 184 174 168 165 160 168 179 183 184 189 190 187 179 174 175 178 176 178 178 178 175 177 179 178 177 171 161 153 154 152 153 155 154 151 149 144 144 150 154 139 121 115 111 91 77 25 31 29 99 119 154 161 159 158 155 150 150 140 132 119 113 99 103 107 80 76 81 103 126 75 94 117 142 145 144 162 182 183 180 181 171 156 148 152 174 197 207 213 217 211 201 197 183 172 160 162 169 175 178 178 180 175 165 150 143 146 150 156 152 154 153 152 147 146 144 145 155 161 158 158 155 154 156 156 153 152 151 147 146 151 150 132 112 100 96 80 74 39 37 29 104 119 150 167 159 161 158 156 155 146 129 104 94 101 128 152 95 93 107 79 101 104 100 113 131 140 138 147 160 172 173 181 181 172 159 151 172 195 207 216 219 210 203 194 176 164 160 166 173 174 175 175 174 156 133 142 148 137 113 103 89 94 79 89 89 120 134 130 130 130 139 155 157 157 158 156 153 154 152 149 148 150 143 128 113 97 82 70 84 77 35 29 103 125 146 162 163 165 164 165 157 148 134 123 134 144 150 175 123 87 125 105 99 125 107 150 187 170 142 141 151 161 174 184 186 183 166 153 167 194 209 215 218 210 203 189 169 164 166 177 175 176 178 165 146 143 144 140 141 136 87 92 96 118 65 109 79 90 113 101 115 120 129 151 161 157 155 153 154 155 157 153 153 154 144 126 102 83 85 80 85 81 32 28 101 132 152 159 167 169 174 176 171 165 149 135 150 171 174 186 167 114 106 127 132 123 127 185 192 172 146 135 135 153 187 206 205 196 172 161 171 195 209 215 219 208 202 185 166 167 178 188 192 181 170 161 154 144 141 158 189 199 105 118 93 76 79 118 86 122 142 96 98 114 136 155 154 152 152 150 151 158 157 153 152 153 143 118 88 78 83 82 86 76 41 30 102 131 152 160 164 173 182 184 180 177 164 145 146 160 173 179 191 164 124 119 144 140 163 178 178 177 172 172 170 176 191 207 215 197 169 167 179 195 210 214 211 208 203 182 167 170 183 197 210 201 178 157 150 147 160 181 201 205 160 116 135 109 121 104 94 149 163 128 100 102 125 142 148 151 155 158 161 164 160 154 152 151 139 107 83 79 93 91 87 86 43 27 105 123 143 159 167 178 190 188 185 181 174 163 155 156 163 162 167 159 172 177 180 184 185 190 184 183 189 198 205 209 205 209 205 187 172 173 182 196 208 211 207 206 198 183 169 172 185 200 209 205 190 178 167 164 155 160 176 185 182 110 131 122 112 96 133 173 164 150 133 117 126 144 146 149 154 161 164 169 162 154 150 149 137 113 94 94 105 83 77 85 45 37 101 122 139 159 167 180 192 194 192 184 181 175 164 155 153 163 166 175 179 179 191 194 190 189 188 184 183 190 194 198 201 202 192 179 176 176 183 197 207 209 205 202 195 184 170 172 182 194 204 207 205 203 193 184 173 165 172 181 183 181 178 153 135 146 168 169 162 154 143 141 155 166 165 164 169 170 174 171 162 153 150 148 144 127 111 110 111 69 78 76 45 33 88 110 133 157 171 183 194 196 196 191 185 179 174 164 161 160 162 167 174 179 184 185 193 190 189 188 190 194 198 209 209 200 185 178 181 175 184 199 207 209 203 200 193 185 173 174 179 187 199 207 205 199 190 184 175 173 177 186 180 182 183 194 168 154 161 160 155 149 148 156 169 179 178 177 179 178 177 177 169 157 148 150 147 135 116 117 107 72 83 69 45 32 86 99 130 161 174 186 198 199 198 196 189 184 182 180 172 169 170 172 176 177 180 185 189 192 193 194 196 200 204 208 206 198 188 184 178 177 184 201 209 209 204 200 191 185 175 173 175 181 196 207 208 203 193 188 180 177 182 187 196 186 196 192 189 163 165 172 156 153 162 170 179 183 182 181 183 184 183 179 169 160 151 148 150 132 119 123 90 76 74 58 46 44 95 96 124 161 172 185 198 201 203 200 191 187 186 186 181 183 182 184 186 189 193 195 199 201 200 199 203 208 211 208 204 197 189 187 180 179 185 202 211 208 203 201 191 183 175 174 178 182 190 204 208 202 204 200 190 187 191 190 188 180 187 185 187 178 159 160 164 169 173 177 182 186 185 187 189 190 184 179 169 157 148 146 149 130 123 128 93 90 78 64 54 72 102 94 122 158 170 182 198 203 205 207 198 192 189 188 188 192 194 195 195 196 197 199 200 200 201 201 206 212 214 209 200 195 191 195 184 182 185 201 211 207 205 200 189 180 175 173 178 180 186 194 206 211 208 205 201 201 202 203 198 192 186 181 183 176 175 177 174 179 178 184 189 192 191 191 194 195 188 183 172 158 149 145 146 128 124 121 83 88 75 70 79 119 116 93 118 152 169 182 197 204 205 209 205 200 194 191 191 196 198 200 201 201 201 202 203 201 201 205 208 212 210 205 197 195 192 196 187 181 184 198 213 210 207 203 188 179 172 172 176 181 189 194 197 212 217 216 211 208 204 209 206 203 199 196 189 185 182 184 185 187 188 185 186 190 193 197 197 195 190 182 171 157 148 144 140 128 122 107 83 94 94 103 123 157 137 98 118 150 168 182 197 203 206 211 209 205 200 198 197 198 200 202 201 202 199 200 200 194 201 209 212 210 204 201 197 193 193 189 182 181 186 202 212 210 209 201 186 178 171 170 177 181 192 195 196 203 216 218 216 210 205 205 203 201 202 199 197 194 192 193 192 193 192 189 191 194 196 199 198 198 189 179 167 156 145 142 141 133 113 89 91 106 107 127 167 191 164 109 110 150 164 180 194 200 206 211 211 210 206 206 204 203 202 199 202 202 199 199 199 200 205 212 213 210 204 198 196 197 194 184 182 182 190 207 212 210 206 199 184 176 170 170 175 180 185 193 197 199 212 220 223 217 209 206 205 205 205 201 198 197 196 195 195 197 195 193 192 195 198 199 198 196 186 180 170 154 141 140 141 120 91 80 108 124 130 153 191 205 187 127 109 148 161 175 188 196 202 208 208 210 210 212 211 208 206 201 204 204 202 202 201 209 211 211 210 209 203 196 192 192 187 182 181 184 193 209 212 212 207 201 189 178 170 172 175 178 183 189 195 201 208 218 223 219 213 211 209 207 205 204 204 203 201 200 199 201 199 198 199 199 199 198 194 191 187 179 170 155 141 136 131 108 90 102 140 140 152 178 194 213 196 168 133 143 159 173 185 194 199 203 207 210 211 212 212 209 209 207 210 210 208 209 209 214 213 209 207 203 201 193 188 186 184 180 181 187 196 208 212 211 206 199 192 180 170 170 170 178 184 188 193 199 208 216 219 222 223 219 215 211 209 213 211 208 208 203 203 204 204 203 205 204 203 200 195 192 184 174 164 154 144 138 130 105 101 127 155 146 168 189 195 195 175 190 162 141 153 166 180 191 194 200 204 208 208 210 211 212 213 211 215 214 213 216 216 216 216 213 207 202 199 189 189 185 182 177 181 191 201 208 210 209 203 200 192 180 170 169 168 175 179 184 190 196 206 215 220 222 225 225 221 217 215 214 212 213 213 209 206 206 206 204 205 201 201 198 191 188 181 170 158 148 139 132 129 112 110 140 157 159 181 188 184 180 173 201 192 144 152 162 176 186 193 198 201 207 208 209 211 213 213 213 217 217 217 214 213 216 215 214 207 204 198 191 187 185 182 174 182 195 205 208 208 208 203 198 194 181 170 167 166 170 175 180 186 193 201 212 219 224 225 223 222 222 222 217 215 213 214 213 209 211 209 206 202 203 202 196 190 185 178 167 152 144 135 129 122 110 117 144 156 156 174 173 173 184 186 195 201 167 152 156 173 182 189 193 200 205 208 208 210 212 214 213 217 218 216 215 215 216 214 214 209 203 197 189 187 184 179 178 186 201 207 210 211 208 206 202 198 183 169 163 162 164 172 179 186 193 200 211 219 225 224 222 221 222 223 218 217 211 206 208 210 213 210 203 200 202 200 195 187 181 172 160 149 140 131 127 113 100 123 152 145 138 158 177 175 191 195 192 207 183 148 154 169 177 187 190 196 203 208 207 211 213 213 216 217 216 217 216 216 218 217 216 210 203 195 187 185 181 176 180 190 205 211 211 209 209 206 205 198 187 175 162 155 169 170 175 182 196 200 210 218 222 230 227 223 221 220 216 217 210 208 212 208 206 205 204 202 201 197 191 183 175 164 153 146 137 127 124 110 102 136 148 125 143 182 199 191 174 194 200 201 178 146 149 165 174 184 188 195 202 206 205 210 214 215 216 216 218 218 218 219 220 217 218 212 203 194 186 185 179 177 182 195 206 213 211 211 210 209 205 197 189 178 165 156 167 165 168 176 197 203 213 218 222 224 224 225 223 223 220 221 219 214 213 209 206 203 203 202 199 197 188 177 168 156 148 146 137 120 118 111 113 145 148 135 169 204 199 190 162 197 203 198 176 143 142 159 170 179 189 198 202 206 207 209 212 214 215 216 219 218 218 218 215 215 214 209 203 194 186 185 181 175 185 195 205 212 212 215 215 211 207 198 191 180 167 159 173 170 164 170 191 200 209 215 218 222 225 225 225 225 223 223 220 215 212 209 207 204 203 201 197 193 187 176 167 152 144 146 134 120 114 113 121 147 159 165 191 209 204 188 173 208 206 207 193 144 142 154 163 171 183 197 198 200 204 206 211 211 211 217 218 221 222 220 218 217 215 206 200 193 188 186 180 175 185 196 203 210 214 218 220 215 211 199 187 178 168 163 174 173 170 167 184 196 207 212 219 221 224 225 226 227 226 225 221 217 214 212 207 204 202 201 197 192 184 174 162 151 146 143 129 114 111 111 126 156 180 195 206 208 203 188 185 211 205 211 205 155 139 154 161 164 178 191 196 196 202 206 209 209 212 216 219 221 222 218 216 216 213 205 201 192 185 182 174 177 182 199 203 206 206 213 222 216 206 196 186 176 166 162 168 173 179 168 178 193 203 209 219 224 223 225 225 226 224 223 223 220 216 212 208 205 202 199 195 189 178 169 158 150 146 138 124 112 106 112 130 162 185 205 209 205 205 190 195 191 212 208 208 167 129 150 155 158 173 186 193 195 202 206 210 211 213 215 217 219 221 219 215 215 212 205 203 191 182 181 173 162 163 178 185 192 199 200 206 206 196 187 171 166 163 172 173 172 172 170 167 187 202 209 216 222 223 224 226 225 222 223 223 222 217 213 210 205 202 197 192 184 173 162 154 148 145 133 118 115 110 113 135 169 193 210 207 202 206 199 202 188 207 211 207 175 124 148 153 156 167 180 187 195 200 203 208 211 211 211 214 217 217 219 216 212 211 204 203 186 178 176 165 152 146 156 169 182 187 193 199 195 184 181 161 157 163 159 166 168 165 167 167 185 200 207 216 217 219 222 224 224 221 217 217 215 213 209 206 205 201 197 189 181 169 156 152 150 144 127 113 115 110 117 145 181 203 213 211 210 209 204 200 155 200 212 207 178 128 141 152 157 160 175 186 189 196 205 206 206 209 212 213 215 215 218 215 212 209 205 201 181 170 160 142 132 120 128 142 157 166 183 189 182 171 165 146 135 136 143 159 171 168 168 163 184 196 205 212 213 215 219 221 221 217 216 213 210 211 208 205 204 198 194 188 178 165 153 147 149 143 128 119 115 117 120 159 192 202 207 212 211 208 207 194 94 178 198 202 181 133 136 153 154 159 170 184 190 197 204 205 207 209 211 212 215 214 216 215 212 209 206 199 181 160 160 138 126 121 92 103 131 148 164 170 166 160 132 101 65 68 113 121 147 164 164 160 185 200 202 209 212 215 218 221 220 219 216 214 212 209 205 205 203 198 192 185 177 163 149 146 148 142 126 118 114 117 121 171 195 200 205 208 212 206 203 184 20 96 169 190 175 138 136 157 156 158 167 183 191 196 202 205 204 208 209 210 213 212 213 213 211 209 207 205 187 156 165 170 177 184 140 99 110 130 145 144 146 139 115 114 124 147 170 155 156 162 157 160 189 203 204 202 207 210 216 218 219 217 216 213 212 208 205 203 201 196 189 185 175 161 147 142 145 139 128 121 115 114 124 182 203 205 209 210 205 210 193 183 17 23 67 119 135 133 134 152 157 157 163 179 189 194 202 203 205 205 208 209 211 210 210 212 209 209 209 212 200 170 164 170 182 187 182 165 135 119 123 136 133 129 134 156 177 188 180 162 153 151 148 169 199 199 200 207 203 207 209 213 214 213 212 211 207 207 205 202 200 195 187 183 174 158 144 141 143 139 127 122 116 115 126 187 207 202 204 208 203 195 169 172 17 21 11 22 38 126 137 151 160 156 159 176 188 195 202 201 202 205 208 209 212 211 209 210 208 210 209 206 210 200 175 158 170 176 185 189 180 160 137 133 139 144 156 175 185 185 176 169 161 163 172 186 199 201 200 203 205 206 205 209 209 212 210 207 209 208 204 201 199 194 185 181 170 153 140 140 140 137 129 124 118 115 131 186 205 202 201 200 192 173 156 170 18 17 19 22 26 109 132 147 159 154 154 173 185 192 199 201 203 204 205 204 206 205 207 210 211 210 211 212 214 209 200 188 176 179 182 189 190 192 185 172 167 181 189 192 195 186 184 187 185 187 195 195 196 202 201 201 205 205 203 202 205 209 214 210 211 209 203 197 197 192 186 180 165 149 139 138 140 135 131 130 118 117 127 181 186 179 179 169 142 112 134 170 16 16 19 20 23 103 144 150 155 154 152 166 183 190 197 199 202 204 205 205 206 206 208 212 213 212 212 213 214 212 208 202 194 190 192 199 199 205 209 205 199 199 204 200 201 195 193 189 186 190 194 196 196 202 201 201 206 205 200 200 200 205 207 206 208 209 199 195 191 189 183 175 160 147 136 138 145 142 138 135 118 107 121 119 108 98 74 55 41 81 144 178 18 17 16 16 23 90 146 148 155 156 150 163 180 188 194 198 202 204 205 206 207 208 208 211 214 212 211 212 213 210 207 204 199 197 199 199 200 208 212 208 207 207 202 206 205 198 193 191 188 188 193 192 195 200 202 200 205 206 201 202 197 195 194 196 200 202 199 196 191 185 180 172 157 144 135 138 145 142 139 132 120 109 104 40 9 18 20 24 40 90 153 184 19 18 15 17 22 87 152 148 151 155 146 157 177 186 192 197 200 201 204 206 209 211 209 210 210 211 211 211 210 208 206 203 201 201 205 203 204 210 211 207 207 206 204 207 204 198 196 194 188 188 193 192 193 197 201 204 206 206 203 201 197 196 192 192 196 199 201 197 190 181 176 169 157 140 135 139 143 141 141 127 116 109 82 22 21 17 23 23 40 102 163 185 16 18 14 17 22 83 144 150 151 155 141 150 175 184 191 194 201 198 200 206 208 211 210 209 208 209 211 211 207 205 204 201 200 202 204 203 208 210 211 208 207 210 203 206 205 200 194 191 187 185 190 192 196 197 198 200 200 202 200 199 199 199 195 194 199 203 203 189 181 179 169 165 153 140 133 143 144 143 143 134 111 105 62 25 22 20 21 22 51 115 171 187 17 16 17 15 13 73 137 152 154 158 140 144 164 180 189 193 197 199 201 204 207 210 210 211 209 209 212 209 206 204 205 201 201 205 206 204 209 214 215 213 215 209 204 207 206 202 198 197 191 192 193 193 195 196 195 201 200 200 200 199 200 201 196 192 192 193 190 180 177 175 166 159 146 135 136 146 146 146 146 134 116 97 52 30 19 15 22 22 56 123 173 187 17 17 19 14 8 59 139 155 161 163 143 137 155 173 183 185 192 193 196 199 203 205 207 208 209 209 205 203 202 202 203 203 201 202 204 208 207 211 212 212 215 211 205 208 209 203 200 200 197 202 198 197 197 199 201 198 198 198 201 200 197 203 198 181 171 178 184 181 176 173 163 154 141 134 142 150 151 152 148 136 117 86 36 18 16 14 21 21 62 129 179 190 16 16 15 19 11 45 136 157 167 167 150 137 147 167 177 184 189 190 194 198 202 202 203 205 206 207 200 200 200 202 202 201 202 202 205 209 207 210 208 210 213 212 208 209 212 206 201 198 199 199 199 197 196 197 200 195 194 195 197 198 198 198 195 180 169 174 182 185 179 173 159 148 139 139 149 153 154 157 150 134 116 75 24 12 18 17 19 24 73 139 178 190 18 17 16 22 10 33 129 158 168 171 158 138 141 157 168 181 186 187 191 196 202 201 201 201 203 203 196 198 200 201 202 205 204 204 206 207 212 212 210 212 211 209 212 214 212 206 199 199 200 201 200 202 197 196 197 197 195 192 191 193 198 198 195 188 177 174 180 184 182 171 155 145 138 144 153 155 157 160 150 136 117 71 25 22 18 17 23 38 94 152 180 189 16 17 13 24 13 28 121 155 171 174 159 147 135 149 162 175 181 183 187 192 196 198 197 197 196 195 194 197 200 202 202 199 200 197 199 202 206 208 206 210 211 210 207 204 197 191 188 184 185 184 184 182 182 185 195 195 188 182 184 190 192 196 193 185 177 174 180 187 179 165 149 141 145 151 156 157 164 162 150 134 115 60 20 19 16 15 21 48 113 170 188 192 17 14 14 21 10 25 100 152 166 176 167 158 138 141 156 166 174 182 189 185 192 190 193 185 178 182 184 184 178 174 174 178 178 175 174 176 181 186 186 191 196 187 179 174 170 168 170 174 174 170 169 163 153 159 170 173 171 176 179 180 185 192 190 182 178 174 180 185 178 161 146 143 154 160 160 162 164 161 152 134 115 53 21 16 16 18 15 65 134 178 195 195 14 15 16 21 14 20 80 153 170 181 173 165 145 135 147 157 167 178 188 187 189 191 181 172 164 163 162 155 150 150 151 156 164 163 161 157 155 151 144 152 161 152 150 151 152 163 164 166 160 149 152 152 145 137 136 142 157 164 163 164 170 177 179 177 179 173 175 179 171 155 143 150 164 166 163 166 162 157 153 134 105 45 23 18 19 24 30 81 149 186 197 194 16 15 15 17 17 15 63 143 171 179 175 171 153 139 143 153 161 174 183 185 186 188 175 165 150 134 121 123 131 132 127 120 119 136 142 145 140 130 130 133 136 130 137 139 143 149 135 119 115 119 122 132 135 133 133 130 120 119 139 163 167 174 181 184 184 173 174 177 168 156 149 162 170 167 165 165 161 155 151 130 96 40 30 36 46 52 66 110 165 190 195 186 16 15 15 15 15 12 46 127 167 177 180 176 164 152 143 152 163 168 178 184 183 181 171 158 133 107 101 96 106 111 102 102 98 102 114 115 115 115 117 121 122 122 127 123 122 127 132 135 134 127 116 111 104 105 108 114 128 156 177 191 188 182 183 187 187 177 178 177 169 160 156 171 175 167 164 159 161 155 147 122 92 50 52 66 86 96 110 138 177 191 192 177 16 16 15 14 16 14 20 115 165 182 182 178 173 161 147 146 162 166 176 183 185 192 188 185 175 161 147 125 112 113 123 141 150 143 143 140 150 153 150 156 154 158 165 158 159 160 158 154 153 154 149 139 130 132 142 158 177 191 201 206 202 194 191 191 185 177 180 177 167 157 165 175 170 174 168 157 158 154 139 120 86 70 83 102 127 137 146 162 184 193 189 175 16 15 16 15 15 15 15 78 157 172 180 179 178 167 154 146 158 167 174 181 189 193 198 199 197 192 184 173 162 155 149 152 154 155 165 170 169 171 173 170 177 182 181 170 170 169 165 162 166 164 158 157 156 165 175 184 190 192 205 201 200 197 196 197 187 180 178 173 163 163 176 178 172 173 168 157 158 150 134 113 94 98 112 126 148 165 173 179 190 192 187 173 16 16 16 15 16 16 15 48 138 163 185 178 181 175 160 149 157 167 173 184 191 196 201 203 202 199 194 186 180 174 169 170 166 167 177 176 177 178 182 185 185 187 187 182 182 181 181 178 175 172 173 175 176 181 186 190 190 190 196 204 202 200 196 194 189 178 177 171 159 167 179 176 169 167 164 156 157 148 129 103 105 127 137 143 159 174 183 192 195 192 184 171 15 15 16 15 16 15 11 29 112 163 176 176 179 178 166 150 158 167 176 186 192 195 200 203 204 198 194 192 190 187 185 187 188 189 192 191 189 190 191 193 192 194 198 199 197 193 193 193 193 193 189 185 187 185 189 188 187 189 200 201 201 200 198 197 188 178 176 168 158 174 178 173 167 162 163 157 155 141 118 94 117 143 149 154 166 180 191 197 193 191 183 174 18 16 16 16 14 15 19 13 70 146 172 178 178 180 169 157 155 165 173 183 191 195 198 202 204 200 196 195 196 195 192 192 194 194 194 194 193 192 192 192 194 196 196 195 196 198 197 197 196 195 191 189 190 190 189 191 190 192 198 200 200 202 198 192 187 180 170 165 169 178 177 174 168 160 162 159 150 126 100 90 134 151 149 156 169 185 194 196 193 192 183 176 18 16 16 16 16 15 14 15 42 120 163 175 178 179 178 164 158 160 169 179 188 197 199 202 203 201 199 198 200 200 199 195 194 193 189 188 186 184 182 183 185 188 189 189 191 193 192 193 193 194 190 189 192 192 190 192 192 194 198 198 198 198 196 189 183 178 169 165 172 177 172 174 167 159 160 152 136 124 90 107 143 144 151 153 169 185 190 194 188 179 167 166 17 15 16 16 16 15 16 20 14 87 146 171 177 178 178 167 159 157 166 177 185 194 200 200 199 198 199 199 199 200 198 197 196 197 195 191 189 187 187 185 184 187 190 191 193 193 195 196 195 195 189 188 190 189 189 193 193 195 199 198 195 195 191 188 185 179 171 170 172 176 172 175 167 163 151 145 127 102 88 117 126 129 134 142 154 161 162 162 156 144 137 136 15 15 16 16 16 16 16 15 18 47 126 157 170 171 171 169 161 157 163 172 181 191 197 196 196 198 199 199 198 199 199 198 198 196 195 193 195 191 189 190 191 193 193 192 190 191 196 198 199 198 192 189 190 187 187 191 192 193 196 196 191 191 189 185 184 179 174 175 175 177 174 175 167 162 146 139 112 88 112 121 86 90 90 102 108 108 106 101 93 78 74 79 13 15 14 15 15 16 17 15 14 20 88 143 167 169 172 171 165 159 165 174 182 189 195 194 194 196 198 198 199 199 197 198 198 198 198 200 199 196 194 194 192 195 197 197 191 194 198 198 200 196 196 192 188 188 191 193 192 193 194 196 191 188 188 185 182 178 173 177 174 175 171 170 161 154 141 120 92 94 130 106 37 35 37 41 44 44 44 41 37 34 34 40 14 17 16 17 16 17 17 16 14 15 54 118 154 162 166 173 164 159 165 174 179 186 189 191 191 191 193 194 195 196 195 196 197 199 200 201 201 198 196 194 192 194 194 191 193 193 197 198 198 196 196 196 193 193 193 194 193 193 193 193 191 184 189 188 179 174 171 175 172 173 171 160 149 143 125 98 90 122 134 98 25 15 17 16 16 17 18 21 21 27 30 35 15 17 18 18 18 16 15 17 15 16 25 77 139 162 166 170 165 159 161 171 176 182 186 186 188 188 190 191 193 193 192 194 196 199 200 201 201 195 193 194 194 195 194 193 193 195 198 198 199 197 197 198 200 198 196 195 194 192 189 191 189 186 188 187 180 170 170 170 172 172 170 158 146 130 104 87 113 142 134 89 14 16 16 17 17 19 21 20 23 25 30 31 15 15 15 15 14 14 15 14 15 15 17 65 110 150 161 166 165 158 160 169 174 179 181 184 188 189 192 191 194 194 193 193 197 198 198 200 199 195 194 190 190 191 190 188 190 194 197 199 200 198 198 199 199 201 201 198 193 190 188 187 189 189 185 181 175 169 168 169 170 166 160 150 136 110 84 105 139 141 128 77 12 14 14 15 17 17 16 19 21 21 26 27 15 15 15 15 15 15 15 14 16 14 19 72 98 123 148 165 165 160 161 165 172 178 179 179 182 187 191 193 195 195 195 195 198 199 202 201 199 199 199 193 188 186 189 190 196 201 204 201 198 198 199 200 197 202 201 195 192 189 187 187 190 189 179 178 173 168 168 171 169 161 155 136 117 86 98 135 140 141 124 65 13 12 12 12 14 14 15 17 18 20 24 26 15 13 13 15 15 16 17 17 17 16 16 79 117 105 123 153 158 159 159 160 171 179 182 181 181 186 190 191 195 198 199 199 201 203 204 206 206 206 207 202 200 199 201 205 203 203 207 203 200 202 203 204 204 206 205 200 195 191 188 188 190 186 177 179 174 167 164 165 161 152 144 116 91 91 129 149 145 146 119 56 17 14 12 13 13 13 12 15 18 19 23 24 17 14 16 15 14 14 14 17 18 17 18 91 143 108 96 137 147 155 157 159 168 177 182 183 184 187 191 193 198 202 204 202 205 207 207 209 210 211 212 214 211 209 208 211 207 205 205 205 204 205 207 208 207 205 204 199 194 190 191 190 189 184 176 173 167 161 156 154 148 141 122 97 84 119 149 148 148 144 116 46 17 12 13 12 13 14 15 15 18 19 22 25 18 18 15 16 15 14 16 17 18 17 13 89 158 142 98 102 132 144 149 160 167 177 178 183 184 186 192 196 201 206 206 203 206 211 210 210 211 212 213 216 215 213 211 210 210 206 206 206 203 204 205 204 205 204 201 198 192 187 185 184 185 180 174 174 161 154 152 147 131 120 92 80 115 139 152 150 150 139 118 38 11 11 13 13 13 16 15 13 16 21 23 25 23 20 18 17 16 14 17 16 17 14 8 81 170 171 128 92 96 124 144 145 163 173 177 184 186 189 195 200 203 205 204 207 211 213 208 209 211 212 212 215 214 215 215 215 213 213 209 205 200 201 202 201 202 200 198 194 188 184 181 181 183 179 172 162 148 144 139 131 118 90 79 112 141 149 151 155 153 144 115 29 11 9 11 12 12 14 16 15 18 19 25 26 26 23 20 18 18 15 17 14 14 15 14 73 168 178 162 123 88 91 117 135 152 164 170 176 181 188 193 197 198 202 203 207 211 213 211 213 215 214 214 214 214 213 214 214 212 212 210 207 203 202 202 201 199 198 195 190 184 181 178 176 173 167 160 147 138 135 125 107 91 82 109 142 145 150 153 157 153 153 115 28 11 13 10 9 11 12 14 17 18 22 25 25 27 24 23 18 18 15 16 16 15 11 14 63 168 183 181 161 121 88 86 112 137 154 163 170 171 176 185 192 196 202 204 207 207 210 210 213 214 215 214 214 212 213 213 214 214 213 212 210 205 200 200 199 193 194 190 184 178 172 174 172 163 158 142 130 120 119 103 85 78 112 140 147 155 160 155 158 158 155 113 23 11 15 11 12 16 14 16 18 20 20 24 25 28 26 23 19 16 18 14 12 12 15 12 64 168 188 187 177 161 123 82 84 112 136 153 161 162 168 178 185 189 195 197 201 203 206 207 210 212 212 212 211 210 208 211 211 213 212 210 207 206 201 199 195 189 187 180 174 171 169 166 162 152 141 123 119 108 88 75 91 123 144 145 151 157 160 159 161 167 158 104 18 13 13 12 15 17 16 16 19 21 23 25 25 29 25 23 18 17 18 13 11 14 15 10 71 166 184 189 187 182 162 118 81 76 107 126 147 155 161 173 179 182 188 191 199 204 208 208 209 213 212 210 208 207 206 205 207 209 207 206 204 203 198 196 191 184 180 171 165 163 164 156 150 138 122 107 98 80 71 104 132 141 150 152 155 157 164 168 172 175 161 96 15 16 14 15 14 17 19 21 23 25 25 25 25 28 26 23 20 17 18 17 14 14 15 9 71 168 183 187 194 196 186 156 113 77 74 95 123 147 154 160 171 183 184 186 192 192 202 201 202 201 206 208 205 204 203 202 204 205 203 201 200 195 191 189 184 178 171 163 156 155 153 140 129 116 100 84 75 84 108 132 146 145 148 157 164 163 174 178 179 178 161 86 10 15 16 17 16 18 21 21 23 25 26 25 23 31 28 25 19 19 16 18 16 17 14 14 65 168 187 190 195 198 195 179 161 120 72 61 90 122 145 150 155 173 177 181 184 188 196 198 199 196 199 202 200 200 199 197 197 194 193 194 190 191 187 183 173 165 159 156 151 145 138 119 106 92 79 80 94 118 138 147 153 155 156 158 164 178 185 184 178 174 160 77 5 13 16 18 20 20 25 22 23 24 25 24 24 28 25 23 21 18 17 18 17 17 16 13 58 164 186 190 196 200 199 194 180 165 130 81 60 79 114 138 148 157 165 171 173 179 185 189 191 192 193 196 197 195 193 193 190 188 188 187 184 177 172 170 161 156 155 147 148 129 111 99 84 68 84 119 134 135 144 155 155 161 165 170 178 187 192 189 182 176 158 70 3 12 14 17 20 24 24 19 21 23 22 22 23 28 23 23 20 17 18 15 14 17 17 12 47 163 186 190 194 198 200 200 197 178 162 127 71 51 72 104 122 128 151 156 162 172 174 178 183 186 190 192 193 192 186 183 183 179 177 173 166 164 158 156 153 147 136 132 126 99 81 72 75 100 131 142 144 142 152 160 158 165 171 182 191 191 189 185 181 176 151 65 3 10 11 18 22 23 22 19 20 24 24 21 22 29 24 24 21 18 18 18 19 20 20 10 39 156 184 189 195 198 200 206 202 194 180 162 134 86 51 61 87 100 118 126 137 152 156 162 165 166 167 168 171 173 172 169 166 164 162 155 148 143 140 139 133 127 121 104 81 73 77 99 123 138 143 149 147 152 162 167 165 177 186 193 200 192 191 185 178 172 150 60 3 9 10 16 23 25 23 23 24 22 20 22 21 28 26 25 21 19 19 19 19 24 24 13 34 151 182 190 195 197 200 205 203 202 196 180 160 145 100 59 47 60 77 90 102 117 130 142 144 142 150 149 152 154 152 148 138 136 132 127 123 120 115 111 101 90 81 70 73 96 122 142 146 146 148 154 156 161 164 169 183 191 193 194 193 189 191 186 177 170 149 60 5 7 10 15 20 23 23 23 24 21 22 22 21 28 25 25 22 22 19 19 19 21 25 15 34 149 183 190 195 196 200 205 207 206 199 198 183 170 156 116 71 47 45 53 63 71 79 93 112 119 119 124 125 123 117 113 109 101 94 86 81 79 75 67 65 62 78 110 135 152 150 153 146 148 150 152 158 166 170 186 195 199 197 192 191 191 190 185 177 168 147 53 7 8 10 12 19 23 23 23 24 21 22 21 21 31 29 26 21 20 19 17 17 19 22 12 44 149 181 190 194 196 198 204 205 204 201 205 200 184 171 162 138 105 78 51 38 42 38 41 52 57 55 61 60 54 51 51 48 43 46 51 52 60 68 76 102 134 144 154 161 160 152 148 148 151 155 158 165 174 188 201 202 201 198 194 196 194 189 182 175 165 140 44 8 13 7 11 16 20 23 23 21 22 21 21 22 32 30 26 22 19 19 19 18 20 24 13 54 144 179 193 196 198 200 202 203 207 206 206 206 198 182 175 164 159 143 121 101 85 76 68 57 50 48 46 52 63 73 75 87 100 110 130 140 138 144 153 162 167 167 165 159 154 154 151 149 152 156 162 177 188 197 202 200 200 198 195 197 190 186 184 171 167 136 41 4 10 11 10 14 20 23 24 22 21 20 21 21 31 30 26 22 21 19 18 16 18 24 9 55 150 178 191 197 199 202 202 203 204 207 207 213 206 197 187 171 164 156 152 147 136 141 143 137 137 147 141 140 144 154 161 163 170 165 165 170 167 168 172 169 171 169 164 159 157 158 151 150 152 156 170 188 200 201 202 200 199 198 196 195 190 186 183 173 169 133 34 9 11 12 11 14 21 20 21 21 21 20 21 19 29 28 26 23 21 19 17 16 16 24 18 37 125 175 188 196 199 201 205 204 204 206 206 211 208 206 199 186 171 162 154 151 149 149 150 153 154 153 158 160 164 164 166 169 172 172 174 174 177 179 172 168 163 163 161 156 156 153 152 157 167 173 183 198 203 203 202 201 200 199 198 192 191 188 184 177 167 127 27 13 12 12 7 13 20 21 23 21 22 20 22 19 31 29 26 23 23 19 15 12 15 14 24 22 99 172 185 198 198 200 204 204 204 206 206 205 209 210 208 201 188 172 159 155 154 152 153 156 157 157 162 164 165 167 165 169 172 173 173 177 176 174 172 170 168 167 164 161 160 157 161 168 182 189 194 201 202 201 204 203 202 198 196 192 193 189 181 177 163 119 18 17 12 9 8 11 17 20 23 21 22 20 21 19
