P2
# Generated by OpenCV 4.2.0
92 112
255
107 99 108 118 109 111 108 125 80 87 92 66 90 73 117 105 95 131 153 189 178 194 205 202 226 230 232 235 232 226 228 229 231 231 225 226 224 222 222 222 218 210 208 208 208 205 200 197 192 184 176 174 165 146 137 150 144 130 119 103 95 108 112 116 102 98 106 85 115 152 146 144 150 137 133 160 139 158 177 175 174 170 182 171 157 166 174 173 166 165 171 161 93 115 136 125 112 115 106 125 97 79 86 66 94 61 109 117 100 133 155 174 178 213 212 214 218 223 230 229 229 226 228 231 232 230 226 223 224 224 223 221 218 214 209 207 207 206 205 206 201 190 185 181 175 159 150 150 149 138 127 119 116 122 107 107 114 110 109 101 95 114 162 153 145 152 146 152 166 169 150 138 157 162 174 183 154 162 168 171 182 165 170 166 86 133 140 122 108 111 105 109 99 86 77 69 94 81 102 110 104 140 163 172 192 217 216 221 218 219 229 224 226 228 231 229 225 227 227 225 224 224 224 218 215 214 211 209 206 204 206 203 201 197 190 188 181 173 165 160 163 158 146 139 133 121 128 118 110 121 123 128 118 107 122 159 162 157 160 155 156 179 182 131 125 131 150 170 163 143 152 153 153 150 155 145 116 143 132 119 102 112 96 104 105 83 80 88 100 84 93 106 106 143 167 179 208 216 222 224 218 221 223 224 227 227 227 224 226 228 227 226 223 222 221 215 214 214 216 214 212 210 211 207 203 201 192 190 189 182 174 160 159 166 163 156 149 137 134 140 126 115 114 116 122 120 118 135 149 176 173 167 170 154 170 195 183 157 134 136 149 154 139 125 127 139 132 129 136 144 125 112 102 103 98 97 98 81 98 86 71 75 96 103 112 154 174 195 222 217 221 219 216 223 227 227 225 228 223 223 224 225 223 223 222 221 216 215 214 216 215 211 214 213 211 211 208 199 198 195 193 190 189 180 168 169 168 164 163 150 142 143 144 135 122 113 112 123 112 122 110 119 156 180 182 183 177 166 170 200 182 172 171 180 157 131 131 145 144 144 151 138 125 106 97 96 114 88 89 96 78 80 75 77 96 100 125 162 187 207 216 219 224 222 221 225 227 225 226 226 222 221 223 224 223 224 224 218 215 213 215 214 213 212 210 210 212 212 208 203 198 198 197 193 190 183 179 178 179 173 170 162 156 147 151 153 139 126 116 114 124 118 118 89 94 132 147 157 178 186 184 184 180 176 187 180 172 162 156 155 140 138 135 138 114 96 87 123 89 81 73 76 76 75 68 76 94 110 134 166 198 207 212 222 223 225 222 219 221 225 224 221 219 219 223 224 225 224 221 215 215 216 216 213 214 215 213 212 207 208 207 205 201 200 200 197 194 185 183 176 179 176 173 172 167 156 146 151 154 142 121 115 119 125 129 119 82 106 117 113 136 153 168 173 167 159 160 163 165 158 161 148 132 139 153 129 108 84 105 99 68 80 69 61 78 73 68 82 97 113 154 189 201 207 209 219 224 223 222 223 216 218 218 217 215 214 218 220 217 218 217 214 217 219 214 213 215 214 212 214 211 207 209 208 198 200 202 200 202 196 190 181 177 174 177 177 174 168 158 149 149 154 136 121 117 121 131 132 115 103 127 122 108 124 139 138 147 160 148 141 153 161 162 152 154 165 135 113 82 84 101 72 70 82 66 72 83 69 73 95 98 132 169 195 205 207 207 219 219 220 219 217 218 218 219 217 217 217 213 211 214 214 213 215 220 217 215 215 214 213 213 211 208 211 217 208 199 202 199 202 202 198 196 189 181 181 180 175 176 173 171 161 150 150 152 141 125 118 130 132 134 103 112 131 132 110 135 153 146 147 163 149 152 163 157 151 168 157 99 96 74 78 83 70 61 74 53 74 73 59 79 93 117 160 186 199 214 216 216 221 219 215 217 217 215 216 216 212 213 212 211 209 210 211 210 217 220 217 214 212 213 213 212 210 209 208 205 193 196 200 200 204 202 197 198 200 191 189 184 180 179 179 179 176 162 149 149 151 147 133 123 133 143 134 95 120 132 132 111 143 150 151 173 165 143 142 148 132 118 132 103 91 61 57 60 42 59 70 55 72 71 69 86 112 153 179 197 207 218 218 218 221 219 217 216 211 211 215 217 217 220 218 214 216 215 214 218 220 220 220 215 216 213 213 210 213 212 209 204 197 195 194 194 195 188 193 198 196 194 188 186 184 183 183 187 186 177 165 154 148 154 154 141 132 135 145 128 104 113 123 138 102 118 148 173 173 145 150 168 144 104 88 81 61 43 55 34 39 58 56 70 82 77 88 112 149 176 190 200 208 211 215 218 216 218 218 212 212 213 215 223 224 220 218 218 218 219 217 218 220 218 221 217 216 214 211 213 212 210 205 200 197 196 195 198 196 196 200 203 202 198 195 193 192 192 189 188 189 186 184 173 161 154 158 158 149 142 144 150 124 119 122 127 141 108 138 164 164 159 158 152 168 143 96 41 38 37 44 26 44 60 61 68 62 73 101 144 175 185 198 202 205 209 208 211 215 217 217 213 216 214 216 217 218 221 224 222 223 223 223 224 223 223 222 220 218 219 217 213 212 210 206 201 203 203 204 201 201 204 209 207 203 198 198 200 199 199 199 194 191 192 193 185 176 162 163 165 158 154 152 152 157 121 134 140 126 141 136 144 160 153 168 156 169 178 129 42 36 40 39 32 42 58 66 67 68 94 145 172 183 196 197 200 204 212 210 203 205 210 215 215 213 210 212 214 218 224 225 224 230 228 227 229 231 227 224 223 222 220 216 214 215 216 213 209 208 204 203 201 205 209 208 206 200 199 203 205 206 204 201 200 198 197 195 194 188 182 175 170 164 164 161 154 157 164 132 143 160 136 134 136 145 151 163 171 177 174 171 43 34 37 27 9 37 57 61 67 91 135 174 180 185 194 198 198 203 207 209 209 208 208 211 211 212 214 214 218 227 227 224 225 228 227 225 228 228 226 226 223 224 221 220 217 215 216 215 211 208 205 202 198 206 208 207 208 207 206 206 209 205 207 208 208 205 205 204 199 196 191 187 180 170 169 167 164 163 164 166 151 147 156 143 133 128 137 137 153 178 175 175 27 32 34 21 20 33 43 64 81 112 157 186 182 188 193 199 199 200 203 210 214 218 211 209 211 210 214 217 220 222 231 225 227 226 225 222 219 222 228 226 225 224 222 221 220 216 218 220 217 209 202 205 204 207 209 211 210 206 204 207 210 207 208 213 211 208 209 209 205 199 200 198 189 185 181 172 170 168 166 160 164 172 167 162 168 166 162 168 162 164 173 169 32 24 21 11 12 34 57 80 88 129 167 185 183 186 189 193 195 198 199 204 212 209 207 207 213 214 218 221 221 220 215 219 224 224 227 223 211 213 220 222 223 223 223 222 223 221 221 222 219 211 202 205 211 215 215 213 210 209 207 210 214 213 215 215 216 215 211 213 212 207 207 209 206 200 192 187 178 175 172 167 158 156 162 182 196 192 184 168 166 178 187 168 25 18 14 16 25 37 66 85 88 143 175 184 181 187 191 193 194 196 191 194 203 201 206 206 212 216 219 218 219 220 213 215 217 221 222 226 223 221 222 223 221 217 218 222 221 222 222 224 220 213 206 207 217 220 221 218 213 211 211 214 216 218 218 220 218 216 215 215 216 218 215 214 215 212 206 204 194 186 184 180 176 173 172 182 187 189 189 158 164 171 188 180 18 14 15 18 18 36 83 77 113 158 179 186 183 187 191 191 193 195 193 195 203 205 207 208 215 213 216 215 213 209 208 211 211 203 213 222 224 221 218 220 220 220 221 221 219 221 221 222 221 212 207 209 217 218 220 218 213 213 216 217 218 222 222 222 220 220 217 214 217 217 217 214 215 213 210 208 207 205 202 196 193 192 191 196 199 200 192 166 157 171 165 183 36 21 15 15 22 65 91 80 139 170 180 185 184 184 188 190 192 192 192 199 205 208 211 214 216 218 213 210 207 201 200 200 202 202 206 208 214 216 217 220 218 219 219 221 219 219 221 221 222 215 205 210 220 219 218 215 209 214 214 215 217 221 222 223 226 220 216 214 216 217 213 208 209 211 208 211 211 210 211 209 206 209 202 202 213 213 205 180 139 165 163 181 30 35 38 28 38 101 87 93 150 175 178 182 182 181 185 188 191 189 193 198 204 209 208 215 213 214 214 210 211 207 202 200 205 207 206 204 208 213 217 215 217 217 217 217 217 215 215 222 222 215 204 208 222 219 212 208 205 205 209 213 215 215 220 221 227 222 216 216 215 215 211 210 211 209 212 213 216 214 213 217 214 212 204 204 215 222 218 181 127 154 130 178 32 27 27 41 59 127 90 110 150 163 173 178 184 178 182 189 193 194 198 203 204 206 209 212 212 213 210 203 209 211 209 207 210 210 206 204 207 211 213 212 215 217 218 213 209 213 213 216 216 211 205 212 221 217 211 206 202 202 214 216 211 216 218 220 218 217 216 213 212 214 214 216 216 213 214 217 219 216 218 222 219 223 216 213 209 227 219 171 104 158 116 144 30 36 46 32 85 122 104 116 156 165 168 171 180 184 189 194 197 202 208 214 215 211 215 221 212 212 214 213 215 220 218 220 215 209 207 210 213 220 218 216 218 218 209 208 209 208 208 215 220 210 199 209 222 222 210 205 202 205 211 216 209 215 216 205 208 212 212 212 212 214 216 218 222 223 222 222 225 228 225 226 230 230 225 217 208 207 210 167 83 147 128 104 48 50 32 30 105 111 113 128 154 175 171 171 183 186 188 193 199 197 208 218 221 223 225 222 225 232 229 228 225 230 232 228 224 219 226 225 221 225 223 224 222 218 216 209 201 197 205 215 215 203 196 213 217 214 208 210 205 206 209 212 211 210 209 202 203 213 217 218 216 221 225 222 224 229 228 230 231 236 237 233 235 238 229 222 207 197 210 162 79 123 127 120 49 49 38 56 97 104 114 139 151 175 171 167 173 175 182 186 196 201 209 217 222 227 233 231 234 231 232 235 232 230 232 229 228 226 231 226 223 225 228 223 218 218 214 207 202 197 209 212 207 195 196 214 213 207 208 210 206 207 202 204 208 210 208 200 204 214 223 228 226 224 226 227 225 228 228 234 235 240 246 246 246 243 235 220 208 206 210 150 89 113 93 140 43 41 55 63 94 122 124 144 158 173 175 167 170 177 186 190 196 200 212 222 225 227 231 238 234 226 220 216 213 214 216 211 211 218 213 217 224 226 224 216 213 207 203 208 200 205 212 210 203 194 192 207 206 203 204 210 207 198 195 201 201 202 207 204 200 206 215 225 228 227 226 225 225 225 222 224 226 233 243 248 251 250 248 228 214 207 206 146 95 102 64 118 61 64 62 67 97 127 135 152 158 167 178 174 172 178 185 194 199 208 221 223 218 212 203 200 205 206 199 196 197 192 178 183 187 185 183 184 191 190 188 191 195 192 191 200 205 207 207 199 196 187 186 195 190 192 203 206 203 190 186 192 194 197 204 198 193 192 192 196 210 214 212 209 213 213 212 206 208 210 218 228 241 252 253 243 225 203 200 143 90 95 82 75 80 60 46 52 84 125 135 147 158 163 171 171 167 175 179 192 195 204 198 192 186 176 170 163 164 162 166 178 166 155 151 147 147 148 141 143 139 147 144 147 167 179 177 189 197 197 197 186 181 176 177 186 185 185 195 199 195 184 181 181 187 193 194 188 183 168 155 159 170 179 181 180 177 178 168 185 191 195 201 208 216 234 247 244 229 206 196 144 79 87 107 78 52 39 38 43 82 121 142 145 151 160 157 152 159 167 170 186 188 181 171 178 168 157 144 136 133 122 114 122 127 111 114 104 99 103 110 110 99 101 110 116 132 156 171 172 177 175 178 173 169 169 179 180 182 184 185 191 186 178 174 172 179 176 178 174 171 140 125 128 128 129 144 139 136 137 141 147 142 161 175 170 182 195 211 234 235 212 188 140 62 94 110 86 70 53 39 51 98 119 141 141 142 144 151 150 160 166 174 180 177 164 154 143 135 142 137 119 112 117 109 91 95 93 89 84 72 76 77 81 77 72 76 83 103 127 141 144 145 152 155 151 151 163 168 171 172 172 181 186 184 178 168 160 164 163 168 160 146 130 104 91 92 95 94 92 103 105 107 108 117 122 124 133 145 168 194 216 230 219 189 127 49 73 108 108 109 100 58 65 98 122 137 136 140 141 153 160 163 160 163 161 157 146 125 107 106 118 122 118 115 115 120 115 110 110 101 97 86 77 65 63 60 57 69 76 91 101 104 109 115 125 129 135 146 154 154 152 153 162 170 175 177 169 156 153 154 153 148 138 121 108 82 76 75 81 75 82 85 86 98 106 119 128 136 148 156 167 181 197 212 221 187 125 59 41 93 124 124 95 80 76 85 124 146 141 140 148 149 164 164 164 162 154 149 136 120 107 105 108 114 129 144 157 158 155 150 138 129 121 109 93 91 83 75 73 74 76 79 75 76 81 89 97 110 126 132 128 128 126 137 155 164 163 161 156 146 140 139 133 119 110 97 85 77 78 79 80 89 97 103 115 133 150 163 171 174 186 184 182 175 185 210 215 185 109 56 54 60 107 89 98 87 78 81 122 143 147 139 145 150 163 167 169 168 165 156 140 129 121 122 134 149 170 183 186 183 180 175 168 163 158 148 135 135 127 105 93 92 87 83 82 79 80 79 82 91 100 102 101 110 117 141 160 165 163 155 139 132 125 116 106 96 88 89 91 99 102 108 123 129 140 154 167 173 180 190 199 197 201 204 205 190 190 212 210 183 101 41 59 85 81 82 47 84 82 79 115 141 144 143 137 159 166 169 168 171 166 162 145 135 136 146 158 174 183 190 191 179 172 175 170 161 152 140 130 125 116 117 118 113 106 101 91 82 82 78 76 80 90 95 104 112 138 167 172 172 165 149 125 116 111 97 90 94 102 106 116 130 138 141 146 155 162 167 178 181 183 192 198 208 212 218 218 202 185 210 210 180 102 42 55 61 83 93 46 54 68 80 108 141 145 142 139 156 170 175 171 173 172 163 150 139 144 157 172 167 144 122 112 116 110 103 110 108 96 84 66 58 65 74 96 110 109 112 106 96 89 82 79 79 86 93 107 125 155 182 195 194 183 165 139 116 103 99 103 109 114 118 120 119 103 92 87 97 106 114 128 139 156 171 186 193 204 214 222 210 198 212 211 176 106 42 51 63 71 88 59 54 65 88 105 137 146 140 150 160 174 176 174 171 169 167 157 146 166 162 116 90 101 106 105 109 96 84 68 79 82 95 99 96 81 64 56 70 98 114 118 112 97 90 85 87 94 101 114 128 163 195 212 213 200 177 147 115 105 107 110 111 110 110 88 68 75 83 89 92 101 98 98 95 108 99 112 118 141 189 216 215 201 210 206 169 102 47 44 67 71 64 62 57 69 95 95 132 133 145 159 163 176 181 182 171 168 162 154 159 141 76 73 118 119 117 85 65 47 62 63 55 69 61 51 61 73 94 93 72 73 102 112 111 108 101 98 106 111 109 122 133 166 204 224 227 220 197 146 113 113 109 108 114 114 97 92 90 88 79 51 59 57 70 72 72 93 106 108 116 107 94 164 222 210 210 207 173 101 53 48 73 78 34 58 58 82 81 94 129 137 151 160 165 173 181 182 168 159 144 133 114 87 85 99 79 73 93 97 46 31 48 23 0 38 46 53 116 91 53 71 79 85 88 94 99 107 116 106 108 121 123 131 150 181 211 227 230 226 214 161 123 121 113 108 104 105 96 76 64 66 38 31 56 30 18 45 58 63 110 108 111 133 132 93 190 217 209 213 182 102 51 55 77 98 30 49 67 86 75 105 134 140 153 165 168 178 180 180 169 155 145 128 113 114 112 88 68 51 79 128 79 44 75 63 48 77 51 81 170 160 111 58 35 51 68 89 124 141 142 131 116 131 137 148 172 197 217 228 230 230 227 184 134 137 137 133 119 91 58 51 85 125 50 52 49 4 20 63 39 62 144 119 122 117 149 140 137 205 207 214 184 100 45 61 79 97 34 40 79 80 77 107 136 147 159 172 175 181 183 179 173 164 145 131 123 123 125 136 138 141 138 140 123 35 52 83 89 73 42 134 160 135 122 101 80 79 81 88 144 174 173 136 128 148 150 157 181 202 218 230 232 229 230 215 152 147 171 162 105 94 73 75 109 119 79 38 73 68 77 72 47 124 157 149 96 107 125 154 163 196 208 217 191 101 51 65 73 98 50 66 89 78 76 110 135 150 160 175 179 182 187 187 177 173 161 155 153 159 143 138 143 161 171 162 168 131 92 83 84 85 116 153 134 131 127 127 129 139 152 164 165 172 163 137 139 160 156 165 184 203 219 232 233 229 227 228 185 143 161 165 147 136 117 107 112 111 119 110 99 98 85 52 88 170 160 160 173 197 176 156 172 190 211 217 201 111 56 59 81 113 61 59 73 74 81 117 138 154 165 176 184 188 193 194 186 181 179 171 170 167 166 159 144 147 151 154 156 163 167 155 154 143 141 141 132 141 138 133 124 135 155 161 167 171 152 146 160 170 171 177 191 205 222 232 233 231 227 227 214 165 151 165 167 167 163 148 132 120 129 136 150 158 153 154 155 153 157 163 180 188 208 209 196 200 217 219 210 107 57 75 91 112 66 54 71 79 91 119 144 159 170 177 184 192 194 191 193 190 192 189 187 185 179 174 158 132 133 140 138 140 142 143 138 140 145 149 146 138 136 134 138 143 158 169 174 167 161 165 171 187 180 184 193 202 216 235 237 234 228 231 229 198 164 168 160 159 152 142 132 133 143 141 140 142 146 159 144 148 156 168 179 197 216 218 211 213 220 224 221 105 54 84 99 119 56 57 71 95 97 118 145 162 173 176 183 186 195 201 201 201 201 201 200 191 188 184 178 158 130 123 118 113 115 125 119 127 123 119 132 148 154 147 160 166 171 175 180 173 176 185 191 191 191 192 194 200 209 233 241 233 231 237 233 213 189 174 174 163 160 160 142 129 128 146 146 145 155 157 149 160 167 172 184 203 224 231 225 225 230 229 225 123 57 90 112 122 50 56 75 107 111 120 147 167 172 173 187 190 199 207 208 209 209 207 205 206 197 197 189 174 158 139 126 122 118 112 118 125 134 152 165 170 172 167 168 175 176 185 189 187 189 194 205 205 197 196 196 201 209 232 242 237 235 240 241 219 207 193 185 180 169 167 169 161 151 133 118 111 124 133 137 148 160 171 193 212 226 236 237 236 240 234 232 133 55 110 112 102 49 53 77 115 117 121 156 172 170 173 184 193 198 204 210 215 212 216 217 214 211 203 200 194 186 170 156 153 149 149 157 165 172 180 180 178 177 171 168 180 192 200 197 197 202 205 212 212 202 199 198 202 211 233 243 239 238 242 246 226 212 209 199 198 189 178 176 177 179 181 171 158 144 145 144 149 162 185 202 216 224 233 226 240 243 239 236 141 58 128 104 86 69 57 89 124 121 128 159 172 174 176 182 190 196 205 210 219 220 220 222 221 214 212 206 197 176 185 190 185 184 186 187 188 187 185 188 183 175 178 177 187 202 207 205 202 205 212 218 212 207 200 200 202 212 233 243 240 239 239 246 235 217 215 211 205 200 192 186 176 181 185 188 194 196 191 189 192 193 201 212 220 223 226 234 240 244 245 242 163 72 142 91 88 67 57 96 128 124 126 164 171 174 179 183 192 199 204 210 217 223 224 224 228 223 218 211 206 191 196 200 197 198 200 193 193 192 190 184 179 173 181 191 200 207 208 207 206 209 215 216 209 201 204 202 207 217 232 239 240 240 238 242 240 225 216 219 216 208 208 202 186 181 187 187 188 196 199 194 206 211 206 210 216 219 227 239 244 247 244 242 183 87 147 98 97 49 59 108 125 118 127 166 173 175 176 182 188 193 195 206 215 223 222 218 227 226 224 219 214 213 214 213 209 201 200 199 198 188 187 179 173 174 186 204 206 206 209 209 207 211 213 213 208 205 202 203 211 225 229 236 241 238 238 241 243 234 223 222 222 218 217 213 206 191 185 187 192 195 197 199 203 212 212 212 221 234 236 239 244 249 247 239 197 100 139 112 116 35 53 110 116 105 134 158 173 174 174 181 184 190 195 203 214 221 220 226 225 222 223 222 220 218 218 211 206 201 199 197 192 181 179 177 177 191 200 209 210 211 210 205 205 208 212 208 206 207 202 207 218 225 230 239 238 237 240 241 241 239 229 225 226 225 225 220 212 204 195 192 194 195 199 204 209 214 224 228 227 231 236 236 241 249 244 237 210 131 115 80 101 33 61 104 108 97 124 149 167 171 175 180 185 189 195 201 207 214 217 222 221 223 228 225 224 222 221 214 208 202 194 190 191 189 189 188 198 206 210 212 209 209 204 202 207 205 206 199 198 201 202 208 217 223 234 244 239 235 239 239 239 245 237 229 228 230 231 226 222 220 214 204 198 199 200 207 211 212 220 230 235 240 239 235 236 246 241 235 218 150 96 46 64 50 79 97 103 100 102 144 163 167 171 177 183 186 190 192 197 207 207 210 218 222 223 223 221 221 217 211 211 204 201 205 200 204 208 205 210 212 216 216 211 213 213 203 201 199 204 201 196 196 199 208 216 224 237 242 240 239 240 239 239 247 248 236 229 232 231 227 224 227 223 218 215 218 218 215 217 217 216 224 229 233 237 240 247 242 236 229 223 154 88 37 57 64 93 93 108 108 90 132 159 162 168 175 182 185 180 189 193 196 200 205 208 212 218 220 221 220 217 213 214 215 217 214 213 212 217 216 214 214 217 216 212 214 216 210 201 196 197 199 196 199 203 210 215 229 238 238 239 237 235 238 239 242 251 248 235 226 234 234 227 228 230 227 223 225 230 232 229 227 225 223 230 230 231 236 237 238 230 226 222 153 75 48 55 71 93 98 117 111 86 115 156 160 168 173 174 179 181 184 189 187 191 197 202 205 210 214 212 215 213 217 218 213 213 215 215 216 218 222 218 215 217 214 213 218 213 211 205 199 193 192 199 204 205 211 213 225 233 234 229 226 227 229 233 239 250 252 241 228 235 234 233 230 232 230 229 222 224 227 238 235 224 226 224 229 229 231 230 225 226 226 225 135 48 55 67 76 91 109 123 113 94 102 141 158 168 171 172 176 180 181 180 181 186 188 195 198 202 208 209 209 210 215 219 219 214 218 218 221 221 223 222 220 221 220 219 213 206 204 202 194 195 204 210 212 210 211 214 221 222 221 220 222 220 225 227 227 235 250 243 228 228 238 237 235 230 231 230 226 218 211 214 238 232 223 221 219 225 228 228 221 219 225 216 119 69 68 68 82 91 112 124 119 110 100 140 159 158 167 169 175 179 177 175 175 180 183 185 192 191 199 206 208 210 214 214 215 222 220 221 223 221 223 224 221 223 223 217 213 214 202 197 185 201 219 218 216 213 203 204 205 205 207 209 206 208 215 213 213 214 224 232 242 231 228 233 236 232 230 229 228 224 217 209 229 237 231 222 223 221 226 222 219 219 224 200 81 94 120 113 83 87 114 129 116 113 102 143 157 156 164 167 171 174 175 177 174 176 181 185 190 188 188 189 202 210 213 213 219 222 222 225 219 222 222 222 222 223 220 222 223 217 204 187 188 212 223 218 220 208 188 177 174 173 171 180 180 182 191 192 187 187 192 213 247 251 227 227 224 227 229 231 227 229 226 227 227 232 231 227 226 225 224 219 213 213 223 188 66 80 107 109 86 88 100 129 118 117 105 132 159 156 159 165 165 167 167 169 172 169 170 183 184 187 198 200 200 210 215 218 222 223 223 223 220 222 224 226 223 219 216 217 217 210 198 188 197 211 214 211 203 191 168 150 135 130 136 151 155 159 165 172 171 169 173 189 212 231 236 218 224 227 227 229 227 227 228 227 230 231 228 231 225 223 217 218 215 211 221 176 69 87 120 117 94 93 83 117 124 122 115 134 155 154 154 156 161 163 163 166 165 167 174 175 180 191 197 200 199 203 207 217 217 219 220 221 223 224 224 222 219 218 218 214 207 205 199 194 202 207 196 181 162 148 134 124 115 112 109 111 122 142 146 153 163 174 178 167 177 199 225 223 220 222 224 226 228 227 230 227 228 229 227 227 225 221 219 217 212 210 223 155 84 113 142 141 133 106 83 101 128 122 121 142 156 158 156 156 160 161 166 166 161 165 170 169 173 182 193 191 196 206 209 213 215 216 219 223 224 222 222 217 218 210 212 215 209 203 197 187 199 190 171 143 119 91 76 75 84 104 104 94 102 122 129 131 160 145 90 81 125 167 205 222 213 217 223 225 226 225 224 228 228 227 228 224 226 228 219 214 209 209 221 141 100 136 161 151 163 135 91 75 120 132 117 141 157 162 160 160 163 162 165 164 166 166 162 164 171 180 187 193 197 202 209 213 215 217 217 220 219 221 218 217 219 215 215 212 212 204 203 192 189 163 136 108 34 0 0 0 1 25 74 96 92 97 102 126 113 16 1 10 65 132 181 219 211 215 221 222 224 222 221 223 224 226 217 227 220 222 223 219 212 214 215 137 110 121 142 167 185 171 129 97 123 138 125 142 150 156 162 166 164 160 163 165 161 162 161 161 166 177 184 187 193 194 197 201 213 218 212 212 216 218 218 219 219 215 212 212 203 200 205 187 173 142 118 82 19 5 0 2 16 35 40 89 94 91 104 119 24 4 12 27 61 117 167 219 217 214 215 218 222 219 220 224 224 229 227 224 224 215 216 217 211 214 205 147 134 131 139 153 175 178 169 154 144 133 120 133 156 158 165 167 165 160 153 159 165 157 156 159 157 166 171 179 185 194 201 204 213 212 211 212 216 217 217 216 217 217 214 209 207 206 201 178 159 126 110 90 58 44 15 8 53 77 78 86 92 91 115 118 68 36 58 69 86 117 162 222 219 211 211 215 218 224 219 224 227 222 227 222 219 215 212 212 215 216 202 162 161 154 150 147 174 167 162 153 129 126 120 132 164 166 167 166 168 163 158 156 157 155 161 168 167 159 164 176 192 198 202 203 209 210 211 212 214 216 216 217 217 216 212 210 212 213 209 189 159 123 111 101 91 93 77 85 100 86 76 83 86 96 107 115 139 127 121 114 108 121 192 227 225 215 211 214 222 228 227 221 227 225 223 224 218 217 216 216 216 216 196 171 196 179 172 162 178 162 151 138 117 120 132 138 161 156 167 172 166 164 165 162 158 158 159 159 162 164 168 180 186 196 199 204 205 210 211 217 214 212 220 218 215 214 211 213 217 214 212 199 166 124 104 103 107 119 131 137 121 101 94 94 101 122 137 145 151 149 137 105 120 176 221 220 225 222 210 209 213 218 227 225 224 227 223 220 219 219 220 220 216 219 191 176 207 185 130 133 171 164 158 152 148 144 142 141 159 154 164 177 167 167 168 166 158 160 157 150 156 170 173 184 184 183 192 201 202 206 213 218 215 216 213 212 215 217 217 219 220 213 214 209 191 165 124 115 125 133 128 126 135 141 148 142 133 152 167 185 182 174 174 171 197 219 225 227 225 227 220 205 205 201 212 227 231 225 224 221 221 221 220 220 219 220 186 175 205 183 66 52 182 181 175 174 171 162 150 137 154 156 158 179 173 172 170 163 160 161 162 161 165 171 175 181 189 190 192 200 206 209 213 212 213 217 214 212 213 216 219 224 221 219 215 211 208 207 190 166 156 148 155 164 169 172 174 177 159 164 181 190 198 206 213 229 231 228 227 229 228 230 229 214 198 203 212 221 235 234 227 223 222 223 219 219 221 221 196 182 200 184 90 93 187 186 184 186 179 168 156 141 148 156 166 172 175 176 167 159 162 161 163 169 174 176 180 182 182 191 194 200 205 206 212 206 211 218 218 214 211 217 224 225 224 222 219 218 219 214 210 201 192 182 186 187 175 176 177 184 166 172 181 184 200 208 216 221 230 237 231 231 230 232 229 227 209 192 194 207 221 241 239 229 220 217 222 221 221 220 201 196 209 185 135 136 183 189 191 189 176 166 160 145 149 158 169 168 167 177 171 161 165 169 167 165 168 174 178 180 182 193 196 194 207 211 213 211 211 211 206 211 216 223 229 224 224 225 225 222 220 217 217 217 200 192 189 185 182 177 171 166 162 168 170 188 202 207 212 223 231 228 224 224 224 227 228 226 225 205 180 181 188 195 231 233 227 220 222 221 221 221 201 200 217 149 49 49 164 175 185 184 176 168 162 148 145 158 166 165 169 175 171 165 165 165 169 164 164 172 178 184 184 192 197 199 208 210 208 209 207 201 210 218 225 226 226 223 226 227 222 221 214 208 210 207 200 188 186 183 180 181 181 171 174 176 173 185 201 212 212 214 222 225 227 223 226 229 223 223 224 223 198 176 188 198 221 245 226 220 219 218 221 222 196 190 198 83 26 39 131 153 163 165 164 159 156 150 147 162 165 169 170 169 171 170 167 169 161 155 163 165 175 182 190 191 199 203 205 208 207 205 199 201 216 223 223 221 222 219 218 216 217 214 216 215 208 201 200 188 188 186 186 192 188 179 183 182 181 187 198 205 219 216 213 216 213 218 217 219 219 217 215 219 221 196 179 200 210 227 225 218 221 218 219 222 193 187 135 31 25 38 32 84 125 131 132 134 140 146 139 156 164 171 175 172 174 173 169 165 156 156 164 168 176 177 185 188 194 199 208 199 201 204 199 220 220 214 219 216 209 206 206 214 208 208 210 212 210 196 191 191 193 193 192 196 193 189 183 184 190 184 191 199 199 212 212 215 216 213 215 211 208 200 205 210 218 224 199 176 176 181 218 217 217 218 215 220 188 138 43 26 42 55 0 3 30 52 55 59 91 134 146 164 170 173 176 174 174 171 164 160 158 158 164 164 169 174 180 184 193 197 194 192 192 190 211 213 209 209 215 210 203 204 202 205 208 206 200 187 197 196 197 197 195 195 190 192 195 190 187 190 191 192 196 205 202 211 218 226 221 214 219 215 207 200 195 198 210 217 211 181 167 189 213 215 217 214 215 226 125 30 26 28 42 63 14 4 1 6 7 1 14 112 153 160 170 171 172 176 177 169 165 162 157 157 158 166 167 173 182 184 187 192 189 189 184 202 208 196 199 207 203 200 194 197 195 191 197 200 202 197 191 189 201 201 194 195 192 199 198 190 189 196 190 194 204 209 212 209 218 224 225 220 213 214 208 201 188 180 192 211 196 180 178 187 200 208 213 214 216 229 117 10 26 32 42 62 16 17 34 52 59 33 6 89 147 158 168 170 172 176 177 173 171 163 158 156 158 159 166 172 180 182 182 184 183 172 187 201 196 198 199 200 195 191 184 190 192 191 190 193 201 200 197 202 207 200 195 192 196 205 209 208 208 201 204 208 208 199 182 194 205 214 230 229 211 213 209 194 184 173 182 191 195 195 184 184 196 209 212 212 216 223 136 57 54 69 85 97 30 41 72 76 60 45 20 74 148 154 166 168 170 175 176 175 169 165 163 157 151 159 169 173 170 179 180 176 179 183 190 192 192 193 194 188 193 190 179 182 188 188 192 190 198 202 204 198 181 166 153 142 142 151 163 175 186 188 189 161 148 138 128 139 145 153 167 195 212 207 207 198 173 166 171 174 177 201 188 177 195 205 211 212 216 222 136 85 78 77 91 103 60 47 49 59 49 38 30 63 136 151 167 165 170 175 171 176 172 168 165 159 159 164 169 163 164 171 171 170 171 177 187 189 189 186 185 187 181 174 174 176 173 165 177 179 175 161 148 130 122 116 111 100 91 94 102 100 101 113 107 86 89 95 103 114 123 132 128 121 160 188 196 177 149 146 154 171 180 192 192 178 194 204 209 214 217 221 141 82 62 52 53 46 74 92 44 40 58 49 29 58 126 150 162 167 171 174 173 178 182 178 175 160 168 171 163 162 164 162 161 162 161 175 184 182 175 177 178 171 165 163 161 158 152 148 147 136 118 98 92 98 104 105 107 102 104 93 85 81 74 78 73 78 86 97 105 103 96 98 114 109 102 125 165 145 121 121 135 156 174 194 187 172 191 203 212 213 218 220 138 76 53 49 47 40 50 105 115 33 10 27 27 43 125 152 157 162 173 176 180 179 182 180 177 173 171 173 163 155 163 161 154 156 156 168 177 178 174 164 168 160 154 140 132 119 115 112 94 82 82 88 74 67 59 67 69 69 68 63 55 41 33 27 41 50 48 59 60 54 51 66 86 96 89 100 115 88 91 109 122 146 170 198 181 170 191 205 211 214 217 221 150 86 64 61 63 76 55 55 132 111 31 5 18 33 110 154 161 162 170 175 177 176 176 179 179 179 176 174 169 165 165 160 154 149 155 165 166 168 164 150 150 139 135 116 104 90 83 67 56 66 71 56 38 22 19 27 30 28 30 30 33 33 32 41 48 54 66 66 73 80 85 64 39 49 68 73 29 29 72 107 125 147 173 193 184 178 199 209 215 217 220 216 153 125 116 112 115 116 72 43 60 128 96 32 4 9 83 141 147 165 167 167 174 176 182 183 183 183 183 180 165 167 170 161 154 153 159 166 163 157 154 153 140 122 105 85 60 29 22 34 51 54 35 27 38 60 76 82 82 87 93 105 104 98 104 112 117 129 131 139 149 161 173 159 110 63 78 87 111 115 117 120 133 140 167 197 190 187 206 214 216 217 219 208 120 117 131 133 124 90 60 58 27 58 110 72 29 15 71 136 142 160 167 169 181 178 181 180 184 185 182 178 175 170 169 164 158 158 157 158 159 163 160 147 138 128 110 86 54 50 53 54 53 51 66 90 111 122 131 138 141 142 139 145 145 142 151 152 156 161 164 171 177 183 188 187 188 182 182 175 162 155 154 145 138 145 174 196 196 197 207 214 218 218 215 193 90 77 95 87 67 48 44 55 40 25 56 86 44 24 57 121 136 153 168 174 176 176 179 183 184 188 186 185 185 181 171 169 166 161 161 163 160 161 155 143 136 135 133 134 135 145 146 144 145 148 149 149 153 154 159 161 162 159 156 158 158 160 162 166 167 170 169 172 186 193 204 212 209 203 200 193 185 173 162 155 154 156 179 189 193 201 204 215 220 219 221 172 51 35 41 44 42 64 36 45 44 37 26 46 59 37 48 105 140 151 166 173 173 176 177 179 184 188 189 187 187 180 177 173 164 162 167 174 167 158 147 138 142 147 144 152 162 167 170 173 165 168 177 178 176 178 183 177 178 174 169 169 162 164 163 151 154 160 157 165 180 179 182 192 202 200 205 205 201 192 177 164 160 161 178 186 194 205 206 215 215 219 218 149 41 52 59 86 109 135 36 34 42 39 35 15 24 50 52 95 132 145 158 162 171 181 183 183 181 188 187 186 182 177 177 171 169 168 171 176 171 163 162 152 145 148 156 163 176 177 179 181 179 175 172 163 163 166 163 159 159 153 153 147 141 144 139 137 146 137 139 150 171 172 178 189 202 210 211 208 206 203 195 181 169 167 182 191 200 203 209 215 215 216 211 144 104 126 141 161 172 166 40 32 36 34 31 20 5 10 29 79 120 132 141 151 160 175 178 183 178 181 181 180 186 179 174 176 174 168 169 163 155 163 162 159 156 157 165 174 181 185 181 183 186 190 186 177 171 167 161 157 155 147 143 146 142 130 127 145 148 147 168 170 176 180 185 201 202 209 209 212 209 207 202 191 184 177 185 192 206 215 217 215 217 218 209 139 126 153 162 169 173 171 40 34 32 31 30 17 10 5 0 50 114 118 135 146 156 165 165 175 176 178 182 174 187 184 181 185 180 174 176 163 159 162 162 163 162 168 176 183 188 189 185 187 181 184 184 179 178 171 163 166 169 163 159 157 154 147 147 162 153 154 172 174 170 195 184 190 199 203 202 209 210 209 208 201 189 184 176 189 208 216 217 216 217 222 189 105 114 153 166 171 172 167 50 34 33 30 27 8 6 8 3 40 116 124 124 137 154 153 151 162 168 180 178 177 188 188 188 185 179 174 172 166 163 163 163 169 173 174 183 184 188 189 189 181 178 179 177 178 173 170 171 167 166 159 157 146 139 145 147 155 148 160 160 171 166 175 181 172 186 202 201 208 212 207 207 202 195 192 195 194 203 212 215 216 219 215 166 102 113 161 170 172 171 166 64 44 33 31 20 6 2 4 5 24 110 140 117 121 137 144 143 164 172 185 182 176 181 185 186 184 178 175 174 162 159 166 160 163 171 180 183 185 185 187 189 185 183 182 182 178 176 176 170 165 162 153 155 152 150 148 146 141 143 149 160 172 171 176 183 188 184 199 205 205 205 205 207 203 198 195 198 202 202 209 214 215 220 203 145 112 127 165 169 171 170 165 44 52 49 29 7 2 2 5 7 14 95 145 123 108 121 140 141 156 164 177 181 183 181 183 184 181 176 181 173 162 159 158 159 168 177 178 180 183 181 183 184 183 181 177 174 176 175 172 169 165 165 165 163 155 151 151 148 152 154 158 163 167 174 174 178 184 193 196 198 203 206 209 204 199 187 194 198 204 203 206 212 215 218 175 124 130 153 166 168 169 167 163 30 38 44 34 11 6 9 15 12 9 76 144 147 108 103 126 139 141 152 164 176 177 175 180 181 178 178 179 171 168 162 163 166 176 179 181 174 172 175 176 173 177 173 175 173 169 169 168 167 168 170 166 164 158 155 152 154 158 156 160 161 163 172 176 178 183 192 196 200 210 211 208 204 197 192 195 205 207 202 203 205 209 210 146 128 159 171 169 169 169 167 164 38 46 31 22 18 15 15 14 11 7 55 134 156 132 95 116 129 137 136 155 159 165 172 177 178 177 177 175 169 169 170 170 168 167 172 175 174 178 176 170 172 173 175 168 169 169 168 167 170 172 170 163 158 159 157 156 159 153 151 154 162 166 173 195 193 189 192 198 207 210 213 210 202 205 205 200 203 203 203 201 198 204 187 148 164 173 170 171 169 168 167 165 57 48 29 17 9 9 15 12 10 5 35 120 152 163 127 101 107 127 140 147 148 162 170 171 170 171 171 170 168 171 165 166 160 163 161 165 173 174 173 174 177 177 174 169 172 170 167 175 174 167 167 161 158 169 165 156 154 167 167 174 183 184 178 183 198 197 202 206 212 215 211 211 208 209 208 203 204 206 202 201 204 196 169 171 184 177 171 172 169 168 167 165 49 36 18 18 16 16 14 6 11 6 24 108 145 160 158 105 92 111 124 134 153 158 164 167 163 166 170 172 171 177 164 159 167 168 162 161 156 160 177 174 168 176 180 179 179 181 183 181 176 173 187 197 200 210 212 201 195 207 212 214 216 215 197 182 195 204 207 211 215 221 213 213 210 212 213 205 210 209 198 197 195 185 180 186 182 175 171 170 168 168 166 164 34 32 27 24 25 19 6 5 9 9 23 97 141 153 165 141 95 99 112 120 141 151 154 159 166 165 165 165 166 165 156 150 163 166 158 161 163 164 165 172 179 180 187 189 188 183 179 188 194 202 213 214 218 217 217 215 211 213 218 218 222 218 225 223 216 218 222 225 225 225 228 217 217 212 204 211 210 205 197 196 183 180 182 184 181 174 169 167 166 166 164 163 28 28 26 27 29 13 8 8 8 10 21 86 140 148 159 161 133 102 105 107 123 133 148 153 153 159 163 163 166 163 160 158 162 169 171 167 161 166 165 172 182 184 182 198 200 194 196 207 210 216 218 218 218 219 216 212 213 214 213 220 221 221 227 237 231 229 234 236 232 226 222 217 214 209 204 209 206 199 190 187 171 177 181 180 177 172 168 166 163 163 161 161 26 23 19 25 22 10 10 9 10 15 20 70 137 145 153 162 158 135 107 96 103 115 127 138 147 154 160 160 158 160 162 168 164 163 170 176 174 173 173 182 185 196 202 209 211 216 222 215 217 218 215 216 218 215 210 212 215 214 217 216 221 227 226 230 231 230 232 229 229 225 221 215 213 202 200 209 203 193 187 173 174 175 177 178 174 169 166 162 162 160 157 159 27 22 14 16 15 10 7 7 13 23 20 57 129 148 152 155 157 149 128 105 93 104 114 128 136 139 152 154 153 155 157 160 157 163 163 174 180 182 185 190 200 203 207 206 205 217 222 222 221 219 215 211 212 211 209 206 208 211 209 211 215 216 218 226 227 225 224 226 225 226 215 213 202 194 198 200 193 189 178 171 171 174 176 177 174 166 164 160 160 157 154 157 28 26 17 13 14 7 8 9 16 26 24 51 121 147 152 153 155 152 143 126 89 88 99 114 126 132 134 138 146 151 156 150 157 164 165 174 185 187 186 194 202 205 205 202 203 213 215 214 218 217 211 212 210 210 212 201 200 201 200 206 207 203 211 217 223 223 218 224 219 221 222 212 210 194 195 194 178 173 176 173 171 175 175 178 176 169 165 161 159 157 153 157 28 30 27 21 16 10 9 9 12 22 28 44 111 145 151 153 154 155 150 140 120 93 86 98 109 118 121 123 126 137 144 140 147 155 159 161 179 182 180 186 195 202 203 207 209 207 204 210 213 208 202 203 207 202 198 193 188 184 188 191 191 194 196 207 207 209 211 216 208 205 211 206 206 195 189 174 164 196 200 169 170 176 179 181 178 172 169 166 163 160 157 158 26 26 26 26 24 21 18 12 10 23 32 44 104 142 151 154 153 156 152 143 137 125 102 87 95 107 112 114 116 124 128 128 128 147 154 156 163 169 174 175 183 188 199 197 195 190 199 198 203 199 193 193 195 197 188 177 177 174 175 176 176 181 185 185 196 192 194 205 204 198 195 200 203 192 180 168 185 218 201 169 170 177 183 185 179 174 171 171 168 167 165 160 25 24 24 24 25 25 24 16 13 27 33 44 101 139 150 154 154 153 155 149 142 134 123 92 90 106 109 104 106 117 112 117 125 132 142 139 146 151 159 169 173 175 180 187 185 176 175 177 181 185 181 178 182 179 177 174 171 165 163 168 164 167 177 173 178 183 183 185 205 194 185 190 194 176 157 184 207 219 201 173 174 177 183 184 179 174 173 173 174 174 171 166 24 24 24 25 25 24 24 19 22 27 28 42 98 137 150 152 152 151 155 154 146 135 133 119 98 98 103 102 100 96 99 107 114 120 119 127 133 138 152 161 159 164 167 166 164 155 160 156 156 164 164 170 169 164 160 163 163 155 148 156 161 159 157 165 176 165 170 171 182 181 179 182 179 156 173 205 213 219 204 179 180 181 183 180 175 172 173 176 179 178 177 170 24 24 24 24 24 25 24 25 26 26 26 39 98 135 148 152 151 150 153 153 148 141 135 128 116 105 93 84 94 99 108 109 100 93 99 114 129 128 134 144 148 144 151 150 145 145 150 146 149 150 155 153 150 155 158 158 154 153 148 156 146 142 142 147 149 148 156 170 175 181 181 182 166 165 199 206 215 221 207 185 183 184 184 178 170 169 171 177 180 178 175 171 23 24 24 24 24 24 24 26 26 25 22 43 101 134 143 152 152 151 152 151 147 142 137 132 125 119 106 82 80 89 104 109 98 90 99 99 109 116 119 121 131 121 130 129 141 133 131 137 141 138 141 144 140 148 154 151 141 139 148 141 138 124 130 134 137 143 148 170 156 170 170 163 163 192 203 208 217 224 210 186 182 184 183 179 172 170 171 176 180 179 175 171 23 24 23 24 24 25 25 27 24 22 43 68 106 133 140 150 152 151 149 151 146 141 141 137 131 124 115 106 93 80 74 79 87 97 99 94 84 100 111 113 111 101 112 127 131 115 111 119 117 119 123 132 130 126 137 137 135 133 130 121 131 125 123 113 123 137 136 147 162 145 145 168 186 195 206 213 218 223 210 184 182 183 183 180 177 176 175 178 181 181 176 171 23 22 24 23 23 24 24 27 19 69 114 83 111 135 139 145 154 153 149 148 147 145 142 140 135 129 120 113 108 103 90 67 71 81 83 97 102 84 90 101 95 88 98 105 109 90 116 112 101 103 113 113 120 113 118 121 113 119 116 120 130 120 124 111 119 125 128 135 156 131 153 176 191 199 209 214 217 223 208 180 179 184 185 183 182 181 179 181 183 181 178 171 22 23 24 23 23 23 23 20 32 160 169 72 112 140 141 144 150 151 151 147 146 146 141 142 137 132 126 118 119 114 99 84 70 65 66 82 89 91 89 97 100 90 91 89 88 87 95 99 99 111 117 102 101 117 113 110 118 111 100 108 112 109 114 112 109 123 123 117 144 168 176 187 198 202 208 212 218 224 211 181 180 185 187 187 186 182 181 183 182 179 178 173 23 23 23 23 24 23 23 15 65 208 219 132 112 142 143 147 148 150 150 147 145 143 140 140 139 136 129 126 120 116 107 99 86 75 73 72 68 78 73 92 95 85 94 90 88 86 93 88 95 100 100 105 104 106 103 112 107 102 92 88 94 97 99 95 105 105 122 154 179 192 195 197 201 203 213 217 219 222 210 183 181 185 188 190 189 186 183 183 182 178 178 172 22 23 23 23 23 23 23 14 110 226 236 210 148 140 147 147 147 149 146 144 145 143 142 141 138 137 134 129 121 115 112 103 98 84 80 78 75 71 67 71 74 78 69 70 70 76 90 80 85 85 81 89 92 81 89 97 82 80 75 74 81 76 76 98 112 142 176 198 204 206 205 205 200 205 213 218 219 221 210 184 183 184 186 189 189 187 184 182 180 178 174 171 22 22 22 24 23 24 22 22 157 233 236 238 210 158 143 147 147 146 145 143 144 146 143 139 139 135 133 131 124 117 114 109 106 100 91 86 80 76 75 71 68 69 67 66 61 66 66 62 64 67 64 66 65 64 71 68 69 70 71 70 72 73 93 119 137 169 196 208 213 214 211 207 206 210 215 217 218 222 214 186 181 183 184 187 187 188 186 182 180 179 175 170 23 23 23 23 23 23 16 59 203 235 236 240 243 217 168 150 151 149 145 144 145 145 146 138 134 134 132 133 128 122 116 110 106 104 97 91 86 84 79 73 68 69 70 69 69 67 68 66 64 65 67 69 70 67 61 65 70 77 72 68 77 92 118 142 165 177 201 209 215 219 215 210 210 213 213 217 219 218 227 214 180 178 178 182 184 188 188 186 184 182 177 173