P2
# Generated by OpenCV 4.2.0
92 112
255
128 99 104 65 85 148 154 156 157 160 169 165 170 149 183 183 182 182 190 193 194 201 200 200 194 196 199 202 200 201 202 201 206 207 209 211 210 209 212 211 213 208 209 207 206 209 210 208 207 208 207 211 207 204 201 201 198 198 198 196 193 189 189 193 187 180 178 182 179 184 185 176 166 162 158 151 148 137 103 93 112 101 139 144 159 77 81 94 67 59 57 66 68 50 54 72 72 156 160 160 163 162 165 168 151 169 182 184 187 189 191 190 198 198 199 200 195 196 197 200 201 200 207 206 207 208 210 212 212 215 212 212 215 212 217 213 212 209 209 207 208 206 206 207 204 202 201 206 204 202 199 195 195 193 193 191 188 186 183 185 184 187 185 178 165 157 158 152 143 133 111 91 98 101 96 145 138 142 73 73 75 49 63 81 36 45 34 64 104 154 160 161 162 163 166 169 146 185 184 181 184 191 191 194 196 197 204 204 200 206 207 206 210 206 209 208 210 210 209 213 212 213 216 218 215 215 213 213 211 207 212 214 213 208 210 210 209 203 202 205 201 205 202 198 196 195 194 189 191 190 191 189 187 188 186 175 163 155 158 158 147 126 112 99 115 127 76 119 114 144 133 95 48 50 38 58 17 27 26 69 137 158 159 162 163 162 166 149 171 177 180 183 188 190 192 194 193 195 200 201 201 207 206 208 205 203 205 206 209 216 214 217 216 219 218 213 217 215 217 218 219 216 215 213 214 217 212 208 208 207 204 203 202 201 204 201 199 197 194 189 190 188 189 187 188 187 185 178 160 157 155 154 147 133 118 96 109 149 120 109 101 104 134 101 66 32 34 38 19 24 24 86 138 160 164 161 162 162 168 177 182 182 183 185 190 193 197 199 197 198 201 203 202 204 204 207 201 213 210 210 209 213 218 217 216 218 215 212 208 211 213 213 211 215 217 218 220 220 216 210 211 209 207 203 205 204 200 199 201 196 196 190 193 189 190 186 187 186 184 174 163 160 157 157 151 144 128 106 130 126 125 116 88 70 81 137 74 44 28 26 10 23 30 119 139 159 161 164 165 167 170 177 177 184 184 187 187 193 196 200 197 200 201 203 206 204 207 203 204 207 207 210 210 211 217 217 220 218 218 215 214 218 218 219 220 219 222 221 219 220 221 214 212 211 206 207 205 203 199 199 203 193 198 194 193 190 191 191 187 189 187 180 161 161 163 164 168 159 153 128 133 129 83 115 116 59 55 79 61 54 43 23 35 21 52 123 140 157 162 165 165 164 169 176 184 184 184 187 189 195 199 207 207 207 197 200 204 211 209 210 209 209 207 210 213 222 221 219 225 224 224 222 217 217 217 224 221 221 223 220 225 225 218 214 216 210 207 208 201 203 201 200 200 194 195 197 197 197 196 196 195 191 185 179 161 160 161 157 162 145 130 126 128 164 90 99 123 79 40 43 45 51 33 20 27 31 101 129 139 155 163 166 168 170 173 175 179 183 188 190 193 197 198 203 199 198 199 208 211 209 212 207 203 197 203 205 207 212 221 219 226 226 226 217 216 218 220 217 221 219 219 225 223 227 221 217 214 213 211 207 205 206 202 201 199 197 198 197 198 199 198 197 198 192 188 180 165 161 163 166 158 169 141 135 134 144 127 80 73 85 58 34 42 38 32 21 12 70 114 127 144 157 163 166 169 173 174 178 184 189 189 194 196 201 205 200 195 197 209 212 210 214 211 203 207 210 208 208 213 224 220 224 219 222 226 220 219 220 227 215 216 217 222 221 227 225 225 222 219 212 209 212 204 202 202 204 202 196 196 194 198 201 200 200 197 194 193 181 167 163 167 159 154 153 154 133 125 126 135 79 44 51 62 32 30 31 21 21 31 99 119 132 140 157 165 168 169 173 174 178 184 187 189 194 195 202 205 193 194 197 210 209 212 213 210 207 209 210 215 218 223 225 219 227 230 223 226 229 224 221 223 225 220 215 225 224 221 226 223 218 218 210 211 210 206 205 204 204 201 201 196 197 202 202 200 199 198 196 194 181 168 163 164 152 142 147 143 135 109 98 109 91 54 44 55 47 35 29 27 23 52 100 125 131 145 157 165 172 172 173 176 183 181 185 187 197 196 199 201 201 205 207 206 204 211 211 212 212 216 215 209 215 221 225 226 218 222 223 226 218 227 223 215 222 219 222 222 222 224 226 226 216 214 211 213 212 211 205 204 203 201 201 199 199 202 203 201 198 196 194 191 179 172 160 161 153 147 145 137 117 114 92 69 72 73 34 38 44 30 18 22 23 71 106 120 132 143 157 169 171 173 175 177 182 183 191 188 194 193 199 197 199 204 208 209 209 210 210 212 210 216 208 220 217 218 223 223 224 220 217 216 226 219 218 218 216 219 219 220 216 217 220 219 218 216 214 213 211 208 205 204 202 202 202 200 200 203 202 199 199 195 193 188 177 170 162 162 152 154 150 130 126 111 116 80 48 69 46 27 26 29 19 25 37 83 109 120 134 143 156 165 172 177 178 175 182 183 185 184 190 194 199 196 200 203 205 206 209 215 210 211 210 211 207 216 219 221 213 222 223 228 222 218 225 226 224 229 226 218 228 228 226 219 220 218 218 219 217 210 210 205 207 206 204 202 201 200 197 202 202 196 198 197 194 187 178 169 163 158 153 147 143 128 125 126 121 136 45 48 42 36 32 42 34 35 20 91 109 121 138 144 154 161 172 180 180 176 178 182 188 187 195 195 200 198 200 204 207 204 209 212 207 210 207 205 213 213 216 222 220 218 221 221 225 225 229 225 227 222 227 222 225 222 223 220 219 220 213 216 217 211 210 205 207 207 204 202 206 203 199 201 201 199 196 196 196 184 172 166 166 154 152 151 129 128 116 122 109 118 83 33 39 27 24 21 22 13 18 94 109 121 140 143 156 164 173 178 177 173 181 189 189 190 197 196 195 199 202 201 199 209 212 209 210 215 215 212 216 220 219 226 223 225 225 223 213 221 233 228 219 224 224 218 222 222 217 217 215 214 214 215 216 210 212 209 209 206 207 207 204 202 201 202 201 199 198 198 191 180 170 164 163 159 153 152 141 118 109 94 119 116 115 25 26 28 20 24 22 21 19 94 110 121 137 144 158 167 172 176 178 178 177 184 187 189 196 200 193 197 202 205 204 207 211 213 214 213 214 216 216 221 225 221 222 226 220 223 219 230 227 228 230 226 225 223 219 220 221 218 217 219 217 216 211 206 211 209 206 205 207 207 209 206 205 203 202 202 200 197 193 182 166 160 160 156 158 155 145 138 108 97 87 101 132 43 39 24 19 17 19 20 17 94 112 123 136 141 155 171 176 178 179 179 182 182 187 192 199 202 193 192 200 203 206 207 210 213 216 213 211 212 217 217 223 220 227 229 222 227 227 226 231 225 219 222 227 223 215 217 220 215 212 209 211 212 216 211 213 210 211 212 211 207 207 205 201 199 202 200 200 195 190 178 165 163 163 160 164 162 150 134 124 103 83 92 125 49 44 24 17 16 20 20 22 94 118 126 135 138 152 165 173 176 181 181 180 184 190 191 197 198 191 191 206 209 205 204 210 209 208 211 214 214 215 228 227 225 229 228 228 231 223 227 224 224 224 220 225 222 221 216 217 221 216 213 217 219 214 210 213 210 208 212 209 206 206 203 202 203 201 197 194 192 183 172 164 164 164 160 163 161 149 140 132 108 92 72 124 53 45 28 18 15 20 24 24 93 116 127 137 136 148 166 173 177 177 182 180 183 189 188 196 196 198 201 205 206 208 209 210 209 214 212 212 219 215 226 220 223 230 226 223 227 224 225 222 227 221 222 222 215 216 215 222 216 218 223 215 218 219 215 215 209 208 211 209 206 208 203 201 204 199 199 194 190 178 169 165 165 164 165 162 153 149 137 127 113 89 70 122 51 42 30 23 18 19 27 22 98 113 127 134 136 145 162 170 174 176 181 182 183 186 190 194 196 202 204 205 206 209 210 211 211 211 217 214 214 219 221 225 226 229 229 228 225 224 221 220 224 228 228 226 226 221 217 222 219 222 222 227 218 219 217 214 211 210 210 210 209 206 201 203 203 201 200 194 189 179 169 163 166 165 162 154 153 142 131 127 129 84 76 103 40 37 34 20 16 16 26 29 100 113 122 128 133 141 155 168 176 177 182 184 182 186 192 193 197 202 205 204 207 210 211 212 212 217 217 216 220 220 222 220 230 230 230 226 223 223 224 225 224 216 226 224 227 228 225 226 228 224 221 226 220 222 217 213 214 211 210 211 210 206 207 205 202 198 199 192 187 177 170 169 162 162 159 156 159 143 131 123 122 81 79 63 45 40 36 18 17 17 22 29 96 110 121 128 135 141 160 169 173 172 180 183 185 186 191 192 200 200 202 204 207 208 213 212 215 218 223 224 225 221 228 232 235 231 226 220 225 225 220 226 229 228 233 228 228 233 236 237 237 228 231 218 223 220 211 211 211 211 208 210 211 204 202 203 201 198 196 194 186 172 166 165 165 162 153 155 158 137 131 121 117 58 83 51 48 48 33 21 21 21 19 23 95 107 121 121 132 140 159 164 172 172 177 180 185 189 186 192 192 203 203 206 210 208 212 212 216 219 222 227 232 228 234 232 236 234 230 222 220 226 228 227 227 237 232 232 231 235 234 233 221 229 221 223 226 217 216 208 210 208 207 209 210 205 200 198 199 201 192 194 185 175 162 156 166 158 151 153 149 131 132 117 93 71 62 46 61 38 37 21 19 19 17 24 98 101 118 122 136 147 160 159 161 165 171 179 181 181 184 195 195 201 203 204 207 210 213 213 212 214 217 225 235 234 238 236 229 234 227 226 227 230 231 232 232 233 230 230 232 235 238 231 230 225 222 225 220 219 214 209 210 206 202 206 207 204 203 198 196 195 193 191 186 172 160 153 156 156 150 143 142 133 130 108 69 65 56 62 54 42 34 26 23 19 17 21 95 101 116 117 130 146 154 148 141 149 162 167 165 179 180 190 192 195 199 201 205 212 212 212 213 214 218 223 228 230 233 236 230 229 225 226 219 223 232 232 237 231 236 236 235 233 236 230 232 228 224 221 223 219 211 209 209 209 206 199 198 194 192 188 187 182 185 183 183 176 164 156 148 151 151 142 141 132 125 98 79 81 86 72 66 46 33 31 22 22 21 24 90 98 108 110 113 114 118 133 122 130 136 135 135 138 140 159 177 187 188 193 190 203 208 214 208 215 217 220 221 226 219 227 224 233 227 231 221 229 233 225 230 236 231 230 227 229 227 226 228 222 217 218 218 220 210 204 197 194 183 179 190 188 179 169 170 166 156 155 171 171 164 154 139 147 146 137 136 133 137 131 110 122 122 77 85 43 30 29 22 23 28 27 91 99 88 87 88 97 92 96 101 110 127 120 143 140 111 143 132 139 169 164 157 198 189 205 205 213 210 215 215 218 222 220 221 223 222 221 222 225 223 223 223 228 231 227 226 227 224 221 228 216 206 206 202 195 169 180 178 176 173 167 164 158 154 143 160 147 135 133 131 130 127 141 140 140 139 132 129 137 143 124 129 133 126 86 65 42 32 29 26 25 29 29 89 96 76 69 74 83 112 107 111 90 84 91 95 118 122 93 110 135 118 162 150 159 164 181 197 207 205 212 212 211 210 212 217 220 221 220 214 218 222 223 223 222 220 215 216 217 210 208 203 190 188 168 148 150 143 135 145 134 134 131 126 130 146 146 125 123 138 131 104 95 99 101 93 100 129 134 129 134 141 134 132 135 124 97 73 43 33 29 28 31 36 36 90 100 91 88 100 95 87 95 98 89 84 82 83 71 84 97 105 119 120 140 137 135 152 166 179 192 199 200 206 211 208 209 214 214 214 219 218 209 211 213 220 214 211 213 216 210 192 207 181 183 151 142 138 122 132 122 117 128 133 127 110 100 118 118 116 118 107 104 122 114 107 98 92 87 98 116 128 136 138 138 138 142 129 99 70 42 41 35 29 34 39 40 89 99 100 101 111 117 128 128 139 127 138 154 149 129 107 90 121 102 99 106 101 122 136 150 167 190 194 201 201 208 207 207 211 214 211 213 213 214 213 213 213 212 212 212 211 204 188 202 170 167 164 130 122 114 111 99 98 103 113 130 130 141 156 166 180 174 169 149 129 125 123 132 127 119 116 125 125 132 138 141 144 152 139 107 85 42 42 41 35 33 45 58 85 100 104 112 119 128 127 136 146 156 161 162 163 165 165 159 141 125 116 113 130 128 121 134 156 161 186 194 199 201 204 204 206 208 209 211 210 208 209 208 209 208 210 209 203 195 194 194 173 160 147 153 145 123 131 124 134 161 172 188 188 193 190 194 195 191 190 180 172 172 161 147 133 123 122 130 135 132 138 144 151 153 136 110 90 42 48 42 40 44 56 96 87 98 107 111 109 121 125 131 138 142 155 160 159 170 168 162 168 170 155 144 138 139 130 138 146 155 174 189 187 198 198 200 201 203 205 206 204 204 207 206 202 203 204 203 203 198 196 184 169 168 161 152 154 154 159 173 175 189 196 200 201 199 193 194 187 185 180 174 168 165 160 147 140 135 137 137 140 130 140 146 143 150 144 116 87 40 58 45 56 63 71 154 94 104 113 115 108 115 118 125 134 140 151 157 163 166 174 177 175 182 182 169 157 150 147 137 140 158 160 174 176 187 194 193 193 195 201 203 204 201 202 203 197 202 201 199 196 184 179 170 174 173 168 165 171 177 184 193 192 200 199 202 191 192 189 190 182 180 174 172 166 159 156 145 145 141 143 139 141 132 139 142 148 156 140 116 89 46 68 49 57 78 123 195 98 106 113 112 108 108 110 121 132 138 139 143 151 153 163 169 171 170 177 176 185 178 155 150 145 141 153 159 164 169 179 181 186 188 193 199 201 202 202 198 197 194 196 188 185 179 169 164 168 161 168 177 184 186 187 176 181 176 168 172 166 160 150 157 155 161 161 162 165 156 148 145 145 147 147 139 143 141 141 146 146 147 137 134 89 47 68 56 82 111 181 211 107 106 120 115 113 116 115 121 119 113 120 137 152 148 162 177 169 184 173 157 154 155 170 176 166 155 146 143 142 150 165 172 179 186 189 197 199 200 200 196 192 190 192 182 175 164 158 161 169 168 177 182 176 160 150 156 177 191 191 200 184 174 180 185 168 169 142 128 139 152 152 147 147 146 145 141 143 143 144 149 153 145 138 149 101 65 72 69 111 168 201 207 112 107 117 113 116 114 115 116 106 118 142 146 144 111 83 87 74 100 120 153 166 148 134 147 166 175 171 164 154 145 143 151 167 178 186 197 201 206 207 204 197 189 179 171 162 160 161 169 172 176 174 160 149 156 174 170 152 110 94 113 81 77 83 91 119 164 171 148 132 148 161 150 155 143 145 143 145 146 147 143 145 158 144 155 97 83 66 82 127 179 193 201 116 112 124 114 107 110 116 109 101 128 102 88 114 121 92 93 102 69 63 83 90 135 151 146 136 157 167 170 169 166 155 143 150 171 188 199 213 218 214 205 198 190 176 158 156 159 166 172 171 169 163 158 161 161 150 147 113 98 94 63 54 112 107 98 128 106 106 132 136 144 157 153 147 148 146 151 152 148 149 148 138 156 148 147 106 87 86 97 150 186 199 202 115 109 116 117 117 118 121 121 88 85 86 145 170 157 87 105 81 105 54 116 110 139 162 152 145 137 148 155 162 170 164 163 153 157 181 199 209 220 218 208 199 185 167 150 165 174 175 170 166 164 158 153 150 143 173 210 152 127 109 47 56 114 117 108 176 148 100 96 116 142 144 151 144 147 155 156 157 148 147 144 142 154 155 139 119 93 107 132 183 197 205 209 114 114 118 122 122 123 120 130 117 119 125 137 166 167 87 123 108 45 76 134 128 194 206 174 146 145 152 163 168 176 174 167 164 143 170 196 209 218 214 207 195 182 162 158 175 183 183 180 171 180 165 143 167 199 211 218 179 141 136 109 121 142 106 121 172 159 151 149 123 143 150 146 147 158 165 159 161 152 150 147 139 149 158 141 121 97 114 162 199 208 209 210 124 119 121 126 130 131 123 136 124 140 151 147 164 181 114 114 129 126 127 133 132 206 217 207 181 150 142 168 200 213 200 176 166 150 165 196 205 212 211 203 193 181 159 162 185 198 215 219 204 172 166 181 165 191 209 220 213 130 140 141 144 120 112 177 176 170 165 149 136 156 165 156 159 165 171 166 166 158 152 149 141 141 149 147 125 111 119 188 217 223 220 215 122 121 124 130 138 141 136 139 131 135 164 169 171 186 194 128 101 108 129 128 197 201 189 179 170 164 171 188 198 221 210 179 161 153 165 192 203 207 206 201 193 182 166 169 186 201 223 219 204 193 176 169 172 172 180 187 198 195 140 141 111 132 180 189 166 169 162 159 159 155 172 174 177 176 173 172 169 162 151 149 139 140 150 142 141 114 153 184 221 229 230 222 116 122 123 133 141 149 152 140 132 130 152 171 172 175 180 197 173 150 179 191 185 193 205 207 206 210 213 207 215 215 198 171 164 156 166 188 198 203 200 197 190 177 167 167 178 196 215 218 222 209 199 189 180 176 195 200 199 190 184 186 185 166 160 164 179 174 171 167 169 168 176 178 178 180 180 175 168 162 154 149 141 147 153 143 157 153 183 186 218 230 230 220 116 131 126 138 148 155 150 144 130 131 148 174 171 172 174 173 174 191 191 205 216 217 205 189 197 207 207 206 210 210 187 169 158 154 162 183 198 195 191 194 192 175 167 167 174 186 208 222 213 215 211 199 190 188 191 193 193 192 183 198 204 190 186 185 187 177 170 166 164 173 183 181 177 185 184 178 170 161 155 149 147 153 159 147 159 158 178 181 224 228 223 214 128 137 128 141 157 158 159 152 144 134 134 154 168 185 176 185 180 192 189 176 194 188 180 189 199 200 202 212 216 203 173 171 163 154 159 177 191 197 191 186 182 171 163 163 168 178 195 219 219 211 209 210 197 186 186 193 194 192 194 205 203 198 189 184 181 174 172 173 174 179 188 186 183 188 189 185 171 163 157 153 148 147 158 153 153 151 176 195 227 221 199 187 136 132 132 139 154 158 165 153 154 147 140 143 152 168 168 181 176 187 183 183 184 184 194 190 201 207 216 214 211 183 171 169 154 152 158 179 189 186 183 179 177 171 163 161 163 177 184 201 213 217 214 214 209 206 200 191 186 187 185 185 187 189 187 180 178 176 173 175 181 185 191 193 195 191 191 184 173 161 159 153 151 146 156 154 156 154 166 197 217 206 193 197 146 136 135 141 156 161 167 159 161 159 156 153 154 159 168 176 174 175 186 180 183 191 204 203 210 213 210 211 194 173 175 166 153 147 158 177 189 192 182 187 181 174 167 163 162 170 178 190 206 222 218 206 209 207 207 213 207 199 185 186 184 184 184 179 179 184 184 188 189 190 194 198 198 193 189 182 169 162 156 154 152 148 157 158 155 147 156 183 193 183 181 203 145 139 136 138 158 164 171 168 164 159 160 160 164 168 170 178 177 182 184 186 194 192 192 208 208 214 210 197 180 172 169 164 152 147 152 172 179 190 181 184 179 173 166 163 166 168 177 185 197 211 222 217 216 212 207 209 207 209 203 202 198 196 195 192 191 186 189 191 191 190 197 199 203 197 190 184 172 165 157 156 154 150 161 160 140 145 145 172 189 188 177 176 156 136 130 135 152 160 172 174 173 171 164 171 175 177 182 183 183 185 188 190 190 194 200 205 207 212 203 186 176 168 164 163 152 142 150 173 186 187 186 186 180 167 163 159 164 169 173 181 183 194 213 225 220 216 210 208 205 203 199 196 199 199 195 193 195 192 194 197 197 196 201 202 195 200 192 186 173 163 158 155 162 148 150 135 120 140 154 184 207 211 172 162 142 136 137 137 154 161 173 177 179 180 179 176 174 178 186 184 184 185 183 193 189 194 205 203 207 200 192 179 171 167 164 159 147 141 149 168 184 191 192 189 184 164 161 157 162 166 171 179 183 187 197 210 219 221 216 212 205 200 199 198 203 201 203 198 199 198 204 206 202 201 203 204 198 198 190 187 168 160 157 153 160 145 144 120 135 149 175 204 213 207 170 179 140 138 147 136 153 161 175 177 181 180 180 183 180 181 186 184 188 186 190 189 186 188 199 203 205 191 184 172 161 163 163 153 145 140 153 170 187 192 195 190 177 166 159 155 158 167 170 171 177 183 199 205 215 223 218 212 210 208 208 203 204 207 204 203 203 205 209 208 206 205 207 207 203 196 191 184 168 161 157 154 155 144 136 113 149 167 197 214 221 200 178 180 149 146 142 124 146 161 170 179 186 185 187 187 184 184 185 187 186 185 187 185 191 192 200 198 200 190 181 169 162 160 161 152 139 141 152 169 184 191 192 190 177 165 157 157 157 162 169 170 170 184 192 200 211 205 208 223 213 213 210 213 213 214 210 212 207 206 208 212 208 206 206 208 199 193 191 182 163 159 153 157 152 141 130 124 157 179 209 219 215 193 189 174 145 147 147 124 141 156 168 177 189 191 192 190 189 188 180 187 186 193 191 192 198 197 197 195 190 188 179 168 164 159 156 146 135 143 156 171 187 191 189 188 180 170 161 155 155 157 166 171 172 177 190 198 205 210 217 214 217 215 217 219 216 213 208 210 212 212 210 210 209 207 205 207 198 191 186 179 165 155 152 151 147 133 119 129 157 188 209 213 208 200 195 186 158 154 143 124 136 154 166 175 188 190 191 193 193 192 191 190 197 197 197 200 193 196 196 194 192 188 181 171 159 160 145 138 133 145 161 175 187 187 188 187 178 170 159 151 157 158 161 168 169 175 189 195 202 206 215 215 213 216 219 216 214 215 208 213 210 210 210 213 209 208 206 205 199 190 187 173 162 151 150 148 143 128 121 127 167 202 213 213 209 204 201 186 172 171 148 119 134 150 166 177 187 191 192 190 191 194 198 195 204 197 199 199 194 193 194 196 191 189 179 170 159 155 142 132 133 146 164 173 183 186 184 181 178 169 157 146 150 156 158 160 170 179 189 193 206 210 211 213 215 216 216 217 219 213 201 206 209 214 212 212 209 205 205 202 197 192 180 169 157 154 146 144 139 132 130 130 172 202 212 213 214 202 201 180 171 178 155 121 133 143 158 172 182 190 189 192 197 198 196 195 203 201 203 199 194 193 193 195 185 186 178 169 160 155 141 128 132 149 163 172 181 185 184 180 174 166 154 148 147 151 157 156 165 179 190 193 204 210 210 215 213 214 211 207 211 219 208 205 209 214 211 213 206 204 203 200 195 188 179 167 155 146 145 141 128 124 124 130 178 199 208 212 213 203 198 171 166 180 164 126 125 140 152 166 175 186 189 190 194 197 201 199 203 199 200 200 199 194 196 197 188 185 181 175 167 149 133 127 138 153 167 173 179 182 181 182 178 169 156 143 138 151 155 155 160 176 194 200 204 208 207 213 212 213 213 215 215 216 212 212 212 211 210 206 207 205 204 200 193 185 177 161 148 148 146 134 128 125 124 135 186 195 204 210 208 207 191 135 160 183 177 141 119 135 148 163 173 182 184 188 195 197 198 201 206 199 200 198 195 195 196 198 193 194 186 176 163 144 131 128 141 157 169 179 185 189 185 186 186 176 162 142 134 145 150 151 146 168 194 199 201 209 207 213 212 210 215 213 213 213 216 213 212 210 209 205 206 204 203 197 191 181 176 157 149 146 145 132 135 127 116 135 195 200 203 202 204 198 171 78 171 179 185 156 122 128 142 159 172 180 188 184 190 193 199 199 196 199 197 199 197 195 197 199 198 192 185 178 166 130 129 132 145 157 171 180 191 193 191 188 189 182 166 151 136 141 155 151 144 154 189 204 208 209 209 212 215 214 215 216 211 212 216 209 215 212 211 205 203 206 200 194 185 175 168 155 147 147 139 131 131 125 123 138 199 195 197 196 193 185 130 36 202 162 180 163 130 121 138 154 170 178 186 186 193 191 199 200 198 198 198 200 195 198 195 194 197 196 183 181 155 130 132 130 146 164 182 191 198 198 200 201 189 180 169 158 143 138 152 153 146 138 175 201 211 207 209 209 209 211 217 216 215 216 219 214 213 215 213 204 204 201 201 191 183 173 162 155 146 140 132 129 126 119 115 134 191 190 185 183 171 137 56 27 228 188 163 162 142 121 131 143 159 174 186 185 190 190 197 199 197 199 201 201 196 196 198 194 192 191 189 184 153 137 131 136 154 164 185 197 206 212 209 207 193 184 176 161 146 145 152 157 151 138 163 194 207 210 213 213 214 215 219 215 214 214 217 211 213 210 207 203 201 198 194 185 181 170 156 151 141 140 135 128 129 118 112 132 168 166 145 116 77 39 29 33 236 219 173 149 136 126 122 134 149 166 178 184 188 188 191 193 196 201 201 194 200 194 185 191 194 192 186 175 140 134 131 135 156 176 193 204 216 220 234 215 200 188 184 163 150 148 156 155 147 142 147 190 203 212 219 216 221 218 217 218 215 216 216 209 210 213 212 207 202 191 191 184 177 164 157 147 140 127 130 133 131 121 119 124 86 63 65 51 40 34 28 27 231 223 195 158 127 127 117 128 143 161 178 183 182 179 191 198 201 197 197 197 198 198 189 190 195 193 182 162 136 141 136 140 158 179 194 199 208 209 224 218 202 190 178 156 155 160 162 155 150 150 143 188 202 211 216 219 218 220 215 215 215 210 213 210 207 209 208 204 198 191 187 180 175 163 151 144 137 136 129 133 133 119 115 122 60 57 77 35 32 37 28 30 235 228 202 159 119 137 120 120 135 147 167 177 175 180 191 197 197 195 197 195 197 196 192 193 197 190 181 158 133 140 148 134 153 166 185 192 193 198 202 198 188 180 158 154 152 157 160 161 153 149 144 190 197 205 213 218 220 219 217 215 214 214 214 210 206 206 207 203 197 192 185 177 169 157 148 143 138 131 140 137 128 118 121 122 54 65 71 35 32 34 27 30 236 229 210 168 124 144 123 117 130 140 161 176 179 182 191 192 195 193 196 198 196 197 196 197 196 187 182 157 136 141 143 139 131 140 159 169 180 184 187 187 174 167 153 152 133 142 153 166 159 152 141 194 200 202 207 218 218 215 219 218 216 216 213 210 207 208 206 201 193 189 181 176 166 154 148 144 141 143 145 138 125 114 121 123 69 66 55 43 31 30 28 30 235 231 217 181 129 138 120 115 124 136 156 171 175 179 189 192 195 191 194 197 199 198 198 198 192 185 187 160 136 140 125 108 108 121 142 152 159 171 175 167 159 148 113 62 85 120 125 144 161 151 146 204 205 204 208 212 216 219 218 216 216 213 211 211 209 206 206 197 191 187 179 174 167 153 145 142 144 143 147 136 127 123 120 117 71 65 43 41 30 27 29 29 234 232 217 188 142 139 123 117 119 129 151 161 167 180 188 192 192 192 191 194 196 195 198 198 191 187 187 170 134 152 158 165 180 159 85 127 137 152 156 150 138 94 134 150 191 186 170 153 161 138 162 203 203 203 205 209 216 220 221 206 209 215 212 210 209 201 201 198 195 188 178 173 167 152 141 139 146 147 154 140 126 122 121 116 69 35 38 28 31 28 30 30 236 233 223 196 157 144 125 119 121 127 141 155 168 173 181 188 191 189 190 192 195 195 198 194 187 183 180 186 146 149 171 176 180 188 176 138 110 120 130 127 120 144 162 186 182 168 157 154 146 155 195 204 200 203 206 207 212 215 218 209 210 213 210 211 210 202 197 195 191 183 179 164 160 146 141 148 142 148 149 139 129 117 120 118 46 33 26 30 27 28 30 29 235 234 224 200 164 140 129 120 116 120 134 150 170 173 180 185 192 189 191 196 197 198 198 192 185 174 182 183 185 156 149 155 164 169 188 186 175 146 139 141 147 170 176 182 177 165 174 178 195 197 198 200 203 202 203 205 209 212 217 218 212 210 204 199 197 204 195 193 186 181 177 164 155 144 144 149 148 154 152 143 131 118 119 111 40 26 30 29 29 31 30 31 238 238 227 205 172 136 125 122 117 115 133 146 165 171 174 177 183 182 185 191 192 194 197 192 186 182 184 187 192 191 182 174 165 164 171 190 184 179 164 160 179 190 198 197 188 182 187 186 192 201 199 201 202 202 200 206 203 206 210 215 213 215 211 184 167 191 193 197 183 186 174 163 152 139 146 151 153 154 155 144 131 125 125 107 39 30 28 29 30 31 31 31 236 234 228 208 179 127 128 121 117 115 123 140 159 172 176 177 181 189 188 192 193 195 193 191 188 188 189 186 191 188 187 188 173 177 181 189 196 203 194 188 195 197 207 191 192 191 198 183 191 194 198 195 199 193 197 205 204 201 203 206 208 211 205 170 152 172 193 190 182 183 172 161 150 138 150 151 157 155 152 146 134 122 124 106 39 31 31 28 29 31 31 30 237 235 231 211 183 125 135 124 119 115 119 135 155 164 169 178 186 186 189 189 193 191 185 187 186 187 188 184 192 187 185 192 179 188 192 194 199 205 202 202 206 205 209 203 198 195 191 183 187 186 192 193 198 196 200 201 204 195 201 202 208 202 192 177 164 179 176 192 183 178 166 159 146 142 150 153 160 158 153 144 132 127 133 102 30 28 27 29 29 31 29 30 237 237 231 215 190 130 129 116 123 115 112 125 148 164 170 180 187 187 190 192 188 188 186 188 188 189 187 180 184 184 186 191 178 191 193 197 201 201 203 204 205 206 202 203 196 186 191 180 197 190 184 190 195 201 204 203 204 196 200 200 204 201 195 195 190 182 168 187 183 177 164 157 144 142 150 156 159 159 152 141 128 122 133 99 40 28 30 30 28 30 31 32 235 237 232 217 192 134 122 112 134 124 114 118 143 160 168 175 182 183 185 191 191 190 185 186 186 187 189 185 190 184 188 192 173 182 187 197 198 199 202 202 210 207 205 199 198 188 188 179 189 187 185 194 189 193 199 203 196 198 202 194 202 200 197 197 198 188 186 191 179 174 160 151 147 141 155 155 160 158 150 137 130 116 129 91 37 29 30 29 29 30 30 32 237 237 233 219 195 142 112 122 124 124 118 116 136 146 161 170 175 184 181 184 188 189 183 185 186 189 185 191 190 188 187 187 175 186 188 196 198 199 205 201 205 205 199 204 193 188 184 186 179 178 185 193 191 188 187 191 196 188 200 190 191 191 179 167 185 189 188 185 179 168 161 143 143 148 154 161 162 162 149 134 128 121 126 88 30 30 28 30 30 26 30 32 237 236 232 221 204 160 110 128 121 136 129 115 128 144 157 165 171 182 179 176 181 190 189 186 186 194 186 186 180 179 180 184 178 187 187 198 205 206 204 201 204 205 204 203 202 194 187 190 191 185 188 193 196 195 191 189 192 199 190 194 188 190 165 150 173 184 188 180 175 170 151 142 145 155 157 163 165 154 145 133 121 121 117 87 31 29 29 29 30 30 32 33 237 237 233 224 207 171 121 139 124 139 134 115 117 133 153 163 166 175 175 172 177 186 183 178 185 186 185 190 183 177 184 189 187 187 185 195 205 208 208 208 210 206 205 201 203 197 187 194 197 194 190 187 190 189 191 193 196 196 198 190 195 186 183 174 176 185 187 182 175 164 145 140 140 151 161 163 162 150 144 138 124 119 110 85 32 29 30 29 30 30 34 45 237 234 233 227 213 187 138 143 126 132 142 120 112 124 147 159 161 164 172 171 166 180 183 173 181 179 179 187 184 185 181 179 184 190 189 198 202 204 200 205 207 199 203 208 207 200 189 192 193 190 191 184 187 189 190 192 190 197 188 193 191 186 186 178 178 181 182 176 168 153 145 145 142 150 165 163 162 158 144 134 127 124 100 84 34 26 30 29 36 37 53 75 237 235 233 232 219 200 166 151 122 132 145 138 117 110 133 144 158 162 163 161 163 181 172 177 180 178 180 178 181 180 184 180 184 188 189 195 204 202 199 199 195 202 207 202 192 176 176 177 177 179 176 179 178 185 185 172 178 179 185 187 179 178 189 175 174 175 176 174 160 147 145 139 147 160 162 160 161 155 135 132 115 128 106 87 33 29 31 30 37 46 74 114 237 237 234 233 226 213 190 169 128 126 145 146 131 114 123 132 146 158 161 166 163 168 176 182 183 178 176 174 172 178 177 178 177 179 178 175 183 186 195 196 199 187 166 157 157 158 160 162 153 157 158 147 145 159 164 161 173 175 183 179 180 185 188 176 176 172 169 170 158 156 145 154 150 164 164 160 159 154 136 124 119 104 113 92 35 28 29 31 45 66 110 154 237 236 237 233 229 223 207 188 155 128 146 150 141 121 112 122 140 154 156 161 167 169 178 180 182 177 165 173 165 165 154 153 151 157 158 154 153 157 150 155 156 148 146 149 153 153 154 146 135 139 147 140 131 120 130 145 139 149 152 173 179 182 183 177 171 171 169 165 153 148 153 143 154 163 159 157 160 152 139 126 121 95 113 81 33 31 30 40 56 92 142 181 237 237 234 233 230 228 219 206 174 121 140 150 151 136 111 116 130 144 160 159 169 175 179 175 170 159 157 151 150 138 134 142 138 137 146 153 145 140 137 136 145 131 138 101 106 90 75 83 110 111 113 129 118 122 109 108 134 142 156 167 180 186 187 176 172 169 167 164 154 154 155 155 156 157 152 156 156 142 130 120 112 108 121 77 32 30 33 45 77 121 171 203 237 237 236 236 234 230 224 218 200 132 125 148 153 143 120 112 126 137 149 161 170 172 179 175 157 137 123 112 116 124 117 103 89 78 78 93 110 113 86 74 83 91 106 118 116 121 112 128 135 135 130 121 126 124 132 155 175 196 201 196 184 185 190 184 178 166 162 162 154 152 160 149 159 160 154 157 149 136 121 125 95 113 128 70 34 30 33 52 99 152 191 216 237 237 236 233 234 234 230 226 221 165 125 146 151 148 131 115 117 134 141 158 168 170 167 152 133 134 127 111 100 99 100 123 131 133 122 122 124 108 105 100 105 124 123 117 119 121 135 145 153 149 150 142 145 152 168 174 187 202 208 203 194 190 191 187 183 166 160 159 154 158 161 153 156 159 151 155 140 134 115 116 91 129 129 68 39 36 39 66 119 172 208 227 237 237 236 236 234 238 234 230 228 191 122 139 152 151 147 125 111 132 140 160 170 173 175 180 183 179 177 158 143 134 143 143 137 144 141 137 142 144 148 149 140 141 139 145 154 145 146 150 158 151 154 148 150 157 171 178 189 199 205 199 197 195 188 183 180 171 163 154 160 164 156 158 157 159 157 149 142 131 125 92 121 143 126 69 35 31 39 77 138 187 218 231 237 237 235 238 236 236 233 235 230 211 146 139 147 157 151 132 109 121 137 149 163 171 176 188 189 182 179 171 156 149 140 135 142 146 147 150 158 167 159 169 161 162 161 162 165 160 159 161 157 149 148 150 165 166 169 182 188 192 203 198 199 195 189 182 176 170 161 158 166 161 157 157 156 159 156 143 131 126 108 96 145 146 126 59 36 32 43 87 150 195 222 237 234 237 236 236 237 237 237 236 232 220 183 118 132 151 158 144 123 114 140 152 167 171 178 186 187 180 175 169 158 152 148 140 144 144 156 157 171 169 173 169 168 165 171 171 167 167 165 158 157 162 169 168 178 174 180 188 188 193 200 198 194 193 190 183 175 167 163 154 160 163 156 156 158 151 145 143 128 112 90 132 155 145 127 62 34 29 47 91 160 205 231 238 235 237 235 236 237 236 236 236 233 221 197 142 124 141 153 149 129 110 128 151 163 173 176 179 182 184 181 177 170 164 156 151 153 145 152 156 159 164 169 176 178 173 180 178 171 163 167 171 176 177 181 173 175 180 184 185 185 187 191 193 190 188 185 180 172 171 170 156 161 157 159 161 155 145 133 133 132 84 129 158 160 142 119 56 32 33 49 100 170 211 234 242 235 237 235 235 237 236 237 237 232 229 197 165 121 130 144 148 142 116 119 142 156 170 173 178 181 181 181 174 172 168 165 156 164 168 165 165 168 165 162 164 164 169 173 175 169 173 182 179 170 174 171 171 179 180 185 184 186 191 192 190 189 186 182 176 175 172 163 157 159 154 157 161 145 142 127 136 113 99 160 177 166 142 117 54 34 35 52 106 173 211 235 243 235 237 236 237 237 237 237 236 233 224 205 167 124 122 135 150 149 125 104 134 149 161 171 178 181 180 179 173 170 174 171 167 165 160 164 158 166 172 169 168 167 165 165 169 167 166 169 170 175 175 181 177 179 177 178 183 184 188 189 188 187 180 176 173 172 167 160 157 161 160 159 157 149 133 122 113 74 153 176 174 161 137 112 44 33 35 53 113 180 216 236 244 235 237 237 237 237 234 236 236 232 227 208 175 133 114 116 142 142 126 109 122 141 155 164 170 174 176 177 177 171 175 179 175 177 171 167 168 164 162 162 162 168 171 177 175 179 176 180 184 187 184 179 174 179 181 180 184 186 187 185 185 188 178 175 171 173 168 156 156 157 154 159 157 141 130 132 79 126 181 181 169 160 138 115 48 31 34 59 115 179 217 235 242 235 236 237 237 237 234 235 236 233 230 216 185 135 105 103 127 144 135 115 116 136 148 161 163 169 167 172 174 174 178 176 172 172 182 177 183 180 177 181 193 192 186 192 197 198 191 186 185 184 184 175 175 182 186 184 182 183 189 184 183 183 181 179 175 172 168 158 154 154 153 154 146 141 127 92 91 172 184 179 170 155 140 123 79 31 38 60 122 187 219 237 243 235 236 235 237 237 235 237 238 236 232 217 190 146 100 104 114 135 138 121 116 138 146 157 158 164 169 172 173 172 171 172 171 177 182 184 182 184 186 185 188 194 193 188 178 183 186 184 185 187 187 181 185 187 186 184 183 183 186 183 181 181 181 176 176 173 166 159 154 150 152 152 136 118 128 73 142 184 187 181 168 155 136 123 143 45 41 61 128 188 221 239 243 235 235 237 237 237 237 237 237 237 233 220 197 156 93 83 102 116 136 129 115 135 147 158 156 161 162 165 163 159 166 171 170 179 182 180 188 187 186 188 186 181 187 187 181 186 187 188 186 185 183 181 188 189 188 186 187 187 186 185 184 183 179 176 174 170 162 152 152 149 145 147 121 105 76 114 176 183 184 178 169 156 142 120 177 88 35 65 127 192 223 239 243 235 235 237 237 237 237 237 235 235 237 222 205 168 107 64 87 111 120 126 114 122 142 159 161 157 159 162 163 165 167 167 169 175 185 182 187 190 185 188 186 184 184 181 188 188 188 188 192 193 192 190 190 191 189 192 190 187 185 184 184 181 181 176 170 162 155 148 150 138 140 126 113 63 121 178 188 189 184 178 168 155 134 124 178 128 38 63 136 193 224 238 246 237 234 236 237 237 237 237 237 234 235 224 210 178 118 78 63 86 106 116 120 124 144 159 160 162 156 165 167 169 174 173 171 172 179 183 187 185 187 190 184 183 182 181 184 186 186 190 195 194 188 190 198 193 194 193 193 189 189 186 183 183 182 179 169 158 154 145 149 141 122 110 80 99 182 191 191 190 184 180 167 155 132 120 178 149 50 77 131 200 224 238 245 237 235 236 238 237 237 237 236 234 234 227 215 187 135 121 84 70 95 114 119 121 139 156 163 163 159 164 165 167 170 175 178 181 182 186 188 192 191 190 196 195 180 183 193 195 201 201 200 201 190 190 192 193 197 195 198 193 190 188 181 179 168 170 163 151 139 127 128 128 118 84 84 172 195 193 198 187 181 177 168 159 134 121 184 163 49 69 142 200 226 240 242 235 235 234 237 237 237 237 236 235 234 230 216 199 156 159 114 91 62 93 102 118 133 150 158 165 163 166 172 168 171 180 180 180 186 188 190 198 200 203 204 207 190 197 211 213 211 206 203 197 197 201 200 206 199 196 198 195 190 183 173 170 169 168 158 148 125 137 130 121 75 82 163 193 200 194 193 188 184 178 171 158 136 121 183 173 75 38 128 200 225 243 244 236 235 234 237 237 237 238 237 237 236 229 226 206 169 171 116 116 85 56 97 100 130 150 155 163 169 185 173 175 179 182 184 186 194 196 193 194 198 201 205 207 203 208 206 213 204 200 204 197 202 207 206 208 205 199 195 190 184 178 173 167 167 158 150 137 116 120 121 66 76 148 195 203 199 197 193 188 190 178 171 154 137 130 189 168 115 33 72 200 225 240 242 235 235 234 237 237 237 237 237 236 236 235 224 211 186 174 106 117 113 88 66 104 110 135 155 161 166 171 170 173 181 187 190 193 196 199 199 194 198 203 208 207 209 209 212 210 213 205 205 202 203 203 207 202 198 196 189 182 179 171 174 168 160 156 135 130 124 101 66 81 157 190 199 203 198 195 192 191 188 180 170 156 133 151 199 166 132 36 34 162 230 236 244 233 235 235 236 236 236 237 236 232 239 237 227 193 156 181 116 117 131 133 104 73 122 120 127 144 164 164 174 177 181 178 190 194 195 195 195 191 198 200 206 210 210 208 213 212 211 209 209 208 204 198 200 199 198 193 186 184 175 176 164 158 156 135 124 132 100 65 94 159 202 203 207 200 195 194 194 192 183 179 172 159 139 182 197 155 135 42 29 90 222 241 242 234 235 234 234 234 234 236 234 236 239 233 185 80 137 186 120 117 137 146 143 94 87 112 133 149 155 160 160 171 177 177 185 192 188 187 193 194 193 203 204 209 208 207 212 212 212 214 210 210 200 198 198 195 191 181 180 184 168 173 155 152 151 126 119 88 53 99 175 200 207 205 204 199 194 195 194 189 180 182 172 163 158 203 189 156 126 38 26 34 190 244 244 234 235 233 234 235 235 233 233 241 231 176 56 62 147 182 129 121 137 151 159 132 73 96 111 131 139 164 153 163 172 176 176 182 181 184 194 191 203 211 205 213 202 202 206 207 202 204 205 211 208 199 193 190 185 175 173 159 159 149 154 137 149 124 94 46 92 173 198 203 206 206 201 199 197 195 190 187 188 181 178 171 190 211 176 154 114 37 21 24 107 233 244 235 236 235 236 232 233 228 235 229 193 55 35 83 137 186 140 120 136 153 160 154 121 67 92 118 131 134 147 161 169 185 175 175 179 194 194 190 207 207 200 199 197 191 197 191 197 196 205 205 200 193 186 180 189 172 164 153 157 156 139 149 132 108 53 82 172 202 208 209 205 202 202 205 199 196 192 188 187 183 180 181 212 202 171 154 94 32 27 26 48 184 237 235 234 234 234 234 235 237 228 208 63 32 35 106 137 177 158 122 138 148 161 167 153 122 65 98 109 133 145 155 163 169 165 159 170 186 192 192 196 199 201 199 190 190 192 192 190 197 197 196 186 183 179 175 167 154 155 151 149 141 136 131 95 45 69 167 206 203 213 208 204 203 205 205 199 196 194 189 185 184 182 200 210 185 172 146 67 30 24 21 33 87 215 235 233 234 232 236 237 231 207 73 32 32 42 117 142 173 191 135 143 146 158 164 169 162 100 62 101 111 143 151 156 161 156 155 167 169 184 183 189 192 196 189 191 195 187 183 184 186 187 190 183 174 168 163 162 157 139 145 144 132 129 70 34 78 163 202 211 210 212 206 205 201 203 202 198 201 197 185 186 181 199 215 203 182 170 139 48 28 21 24 25 35 110 237 234 235 231 234 234 216 85 26 26 30 45 125 142 165 200 168 144 155 154 163 170 173 162 88 57 93 130 134 138 161 160 147 165 167 179 178 180 184 189 189 184 189 193 184 179 183 182 181 175 160 154 144 160 147 148 125 155 118 61 28 61 159 202 209 210 209 209 206 207 204 199 201 197 201 187 181 188 204 219 208 195 184 172 120 37 29 20 23 19 32 47 235 234 231 239 231 228 113 27 29 34 20 54 134 145 164 185 201 146 159 162 165 168 178 175 150 80 45 103 127 134 142 149 158 153 167 172 176 175 182 188 183 182 185 187 183 183 177 172 172 157 153 158 159 141 140 132 146 111 53 29 60 150 203 207 211 207 205 208 209 207 204 202 200 200 202 190 185 205 223 218 201 194 187 166 97 32 25 20 22 21 30 39 236 234 227 233 228 146 39 27 31 28 14 65 138 151 163 170 200 177 153 166 163 167 178 171 171 144 74 40 70 110 123 133 134 138 162 163 173 179 183 177 171 174 177 174 170 182 170 168 172 156 146 151 149 152 134 95 51 31 38 82 151 199 206 213 203 208 208 210 207 204 205 203 204 202 199 191 204 225 224 213 205 197 183 151 70 27 23 21 26 21 23 28 234 235 229 240 165 44 25 31 29 23 16 77 139 157 158 170 188 203 159 167 167 170 176 181 177 180 155 95 45 42 91 132 139 145 150 149 167 160 171 171 171 168 168 164 163 182 169 161 155 146 145 150 110 101 34 27 31 41 100 175 193 204 208 209 210 210 208 208 206 203 205 205 202 200 197 207 226 225 217 212 206 197 180 135 56 27 21 16 18 21 26 26 238 232 238 186 55 28 27 32 28 20 18 96 141 161 159 173 181 207 185 160 174 171 178 177 178 184 180 155 97 51 36 59 108 143 149 151 152 157 157 154 160 152 172 152 159 152 117 90 72 50 36 24 30 30 29 41 74 124 184 200 200 205 207 210 211 206 209 210 210 205 203 203 200 199 214 235 226 221 218 214 206 200 170 116 42 26 22 19 21 19 20 23 228 229 202 57 24 24 28 32 22 14 44 111 150 158 166 174 178 191 203 171 165 177 177 179 179 181 181 177 154 112 76 47 44 51 51 67 87 93 97 86 81 73 71 45 45 36 31 29 26 26 31 36 40 60 91 132 163 190 192 204 207 205 208 206 208 206 210 212 210 208 205 201 200 222 236 229 219 220 221 214 206 196 157 92 29 27 16 20 22 17 17 21 238 205 78 35 24 26 32 24 18 35 132 127 146 161 170 179 181 186 207 203 169 176 179 178 183 183 184 183 177 168 142 113 65 50 47 42 42 36 42 43 38 45 50 46 48 57 67 65 78 84 109 132 152 161 169 191 190 194 200 207 206 207 207 211 208 209 210 212 208 206 202 207 228 232 230 223 226 223 221 216 207 188 140 68 26 26 19 18 22 19 18 22
