P2
# Generated by OpenCV 4.2.0
92 112
255
128 103 95 88 81 95 102 117 137 144 153 168 182 190 193 196 196 194 191 193 192 193 192 192 188 187 188 187 187 187 187 186 188 189 190 191 187 183 176 155 172 179 181 181 179 182 179 174 172 167 164 167 169 163 161 159 156 152 146 132 107 112 102 88 77 71 64 59 46 42 43 48 49 104 97 77 93 66 18 56 63 21 20 39 23 34 73 85 75 74 23 21 95 77 80 75 91 94 109 133 149 146 154 165 178 190 197 194 193 190 190 189 189 191 192 190 190 188 187 188 189 188 187 189 190 191 189 192 192 189 178 157 179 184 186 182 180 180 180 179 174 169 170 174 172 167 169 168 158 158 158 150 125 119 132 103 92 80 71 53 40 37 37 48 31 79 89 77 84 104 45 33 68 29 11 31 31 24 53 74 67 72 45 17 66 67 72 73 83 98 123 139 150 154 155 163 176 188 194 194 190 188 188 189 188 187 187 189 189 188 184 185 189 188 186 185 186 186 187 189 188 192 174 159 183 189 190 183 178 177 180 177 174 171 172 173 174 172 171 170 168 166 163 162 152 127 131 130 112 90 76 59 46 31 33 35 31 55 70 70 72 105 66 29 58 57 13 25 37 27 41 61 74 57 56 34 76 72 68 70 87 105 124 134 148 157 160 166 179 189 191 191 188 189 190 189 188 188 189 189 186 188 188 186 187 187 187 186 185 183 184 187 183 189 160 177 187 188 188 182 180 180 181 177 175 173 175 170 174 176 169 171 170 168 163 166 159 147 140 140 124 112 89 60 49 39 32 28 26 46 55 60 58 81 91 54 45 83 21 18 36 32 26 51 56 59 48 46 82 67 69 68 84 104 123 141 156 158 161 167 178 186 192 194 190 188 190 187 188 189 189 188 187 187 189 191 188 187 188 185 185 185 188 191 184 186 156 185 191 190 187 182 181 180 182 184 181 171 174 171 167 168 170 174 173 169 165 167 166 154 157 151 129 120 104 74 54 38 31 32 20 26 41 46 48 57 75 61 36 51 38 9 30 31 32 47 40 50 38 45 69 71 61 67 95 106 134 151 154 157 162 166 174 180 184 187 186 186 185 183 184 185 185 187 188 186 188 192 188 186 187 191 190 189 189 188 189 181 150 186 187 188 189 184 184 181 184 180 179 174 172 178 173 171 167 174 172 168 166 165 168 160 161 160 149 135 113 92 65 39 32 29 24 13 30 44 41 45 60 59 34 34 49 14 19 25 29 38 26 42 35 30 95 74 63 77 99 124 141 154 154 158 165 168 172 177 182 182 186 187 186 187 184 180 182 184 184 183 186 184 182 183 189 191 191 188 188 190 190 180 151 182 186 183 186 184 181 182 184 180 184 181 174 174 174 175 165 168 168 168 169 165 165 162 159 154 159 148 138 112 81 50 43 34 19 19 20 38 41 39 48 54 31 24 36 19 10 20 21 30 22 30 35 35 118 80 65 89 120 138 144 156 157 157 165 170 172 176 181 184 183 185 183 180 179 181 183 179 177 178 180 178 183 186 193 186 191 191 190 191 194 186 165 175 174 177 179 180 177 181 185 182 184 182 176 179 169 175 173 167 167 167 167 165 163 167 163 158 156 150 153 140 108 59 44 51 36 22 18 29 42 38 38 41 35 25 28 25 15 18 15 23 25 23 29 37 125 69 74 103 124 141 145 153 156 160 164 171 171 173 177 181 180 181 178 178 179 179 183 177 179 183 180 182 183 189 190 182 187 186 186 186 186 188 178 175 171 180 184 188 181 178 185 182 181 179 176 177 176 171 172 174 173 170 170 168 165 168 164 165 156 151 150 145 135 79 36 50 60 36 27 25 37 43 38 33 36 25 22 24 20 15 12 29 20 24 26 34 141 82 89 103 131 135 136 152 157 164 166 171 172 173 176 179 183 178 181 180 175 174 177 177 181 181 182 184 181 187 186 184 187 189 189 189 186 190 188 194 190 187 192 197 194 182 185 188 186 183 178 177 176 173 172 172 171 173 173 171 169 173 167 163 157 153 146 143 142 112 47 36 44 50 39 25 32 37 43 26 35 31 24 19 18 16 12 19 17 18 24 33 148 93 86 102 122 132 152 159 156 156 166 171 174 175 174 174 176 177 181 181 176 175 176 179 179 179 179 178 180 184 185 187 190 193 193 190 190 185 191 193 187 197 190 186 195 188 191 189 189 186 182 182 184 174 177 173 176 172 172 174 170 174 168 162 159 156 151 145 142 139 88 36 40 42 44 33 32 33 43 34 27 29 23 19 19 18 11 13 17 16 21 34 149 96 84 115 126 142 149 147 149 158 163 169 174 175 172 174 177 180 181 177 175 175 172 179 178 177 179 177 183 181 183 187 187 190 188 190 195 192 190 190 189 192 189 185 192 188 186 191 188 183 181 184 181 176 175 174 173 172 174 175 169 167 165 164 163 156 153 146 146 145 132 78 41 34 31 24 28 30 43 42 28 28 23 17 20 18 19 23 16 14 13 26 133 89 88 130 133 142 143 145 151 156 163 169 170 169 169 170 175 178 180 178 174 175 174 180 176 172 179 183 182 185 186 183 184 185 185 188 189 189 193 191 192 190 186 185 187 187 194 193 189 184 181 182 181 177 173 176 176 174 175 173 168 166 166 166 164 160 155 149 146 142 140 134 108 82 67 65 55 38 38 38 31 26 30 18 13 13 20 18 21 21 20 16 155 97 96 122 130 136 139 149 157 157 161 166 170 170 168 168 167 170 178 180 175 173 175 178 176 174 179 183 179 185 188 184 185 183 185 189 188 187 191 188 194 190 184 181 184 187 192 191 192 188 179 177 179 177 176 176 175 172 173 171 168 167 166 164 161 160 155 150 146 144 137 139 131 127 129 123 130 109 73 43 36 23 31 22 15 14 16 16 16 21 24 23 181 100 100 113 120 136 148 151 155 156 162 165 165 165 168 168 165 170 178 179 176 177 176 178 182 181 185 183 183 180 179 187 187 185 184 188 188 186 187 187 187 184 181 181 186 185 191 187 191 192 189 185 183 180 176 175 177 172 170 173 170 170 168 166 162 160 153 149 145 143 139 138 137 137 126 129 132 132 123 85 43 28 27 25 18 16 12 13 15 14 21 26 159 105 97 114 115 130 140 150 155 152 158 165 167 166 169 170 171 173 174 174 175 174 179 179 184 183 186 190 189 180 178 184 187 185 185 187 185 187 184 182 181 184 180 181 180 183 185 187 185 186 190 187 183 182 180 178 175 173 174 174 171 169 167 164 164 160 153 152 149 148 143 140 140 137 134 129 131 134 126 120 92 45 31 27 19 20 16 15 19 29 41 41 134 99 96 105 115 134 144 149 149 148 157 167 166 163 164 170 172 171 172 177 179 177 178 176 180 182 184 190 186 183 185 189 189 187 183 185 183 184 184 181 178 181 181 180 179 177 181 186 188 183 181 180 182 182 183 181 177 175 173 174 171 168 168 163 162 158 159 154 149 149 150 142 140 134 134 135 133 134 126 119 108 74 52 31 22 20 21 19 22 28 32 37 133 87 85 102 117 137 139 145 149 151 156 161 162 160 160 166 170 171 172 174 178 179 181 179 181 180 184 188 190 188 188 188 189 189 187 185 183 183 182 179 177 177 179 178 175 174 179 180 179 186 186 184 184 179 181 180 177 178 169 172 173 172 168 166 163 162 162 156 148 149 149 145 143 137 139 137 133 134 128 118 108 82 70 50 34 23 23 20 18 19 23 30 124 69 92 112 123 140 142 147 147 154 159 162 162 161 162 167 170 172 171 172 174 175 175 178 182 182 186 189 189 188 190 189 188 189 189 187 185 184 181 179 176 176 177 175 175 175 179 179 183 182 183 186 181 178 182 182 178 177 173 172 171 171 170 167 166 167 164 158 150 147 146 144 143 143 141 138 131 133 121 118 101 82 75 64 47 32 27 22 28 22 17 21 102 79 88 113 128 139 143 146 146 152 154 158 159 157 160 164 165 170 169 172 177 180 181 180 183 183 183 183 187 185 188 190 189 187 187 189 189 187 183 181 177 177 179 175 173 176 181 181 178 184 180 186 184 178 174 179 182 180 176 175 175 176 173 171 168 167 165 160 154 148 147 146 143 143 142 140 132 129 121 110 97 81 76 74 61 56 39 24 23 30 17 14 128 84 76 108 125 137 138 140 148 150 154 160 159 158 159 163 163 169 173 173 173 179 178 185 180 180 183 184 189 187 187 185 186 187 186 189 193 189 187 183 178 176 179 178 176 177 179 178 178 183 182 180 185 185 182 184 181 181 179 174 174 174 172 170 170 166 163 159 158 153 150 150 143 139 144 138 136 127 123 110 90 78 86 77 70 62 52 43 23 37 27 17 150 69 67 100 118 133 137 137 144 148 150 156 156 157 161 160 166 173 174 176 178 179 184 184 181 182 184 183 183 188 187 188 188 191 186 194 190 192 192 185 180 179 178 176 178 179 176 176 180 179 184 180 183 185 186 185 179 181 179 179 175 173 175 176 170 169 165 158 153 153 148 151 143 143 138 134 133 127 118 107 88 79 89 82 67 63 49 42 31 31 27 17 119 50 69 105 116 126 138 136 142 148 149 155 155 156 165 168 174 176 172 179 183 186 188 190 185 185 187 184 179 185 184 186 188 193 190 191 197 200 198 195 188 184 179 175 178 178 175 177 184 185 186 186 184 189 187 185 183 189 181 184 180 174 173 175 171 169 165 161 158 153 144 149 142 132 136 130 129 127 117 104 89 83 84 81 67 68 50 40 35 36 36 23 105 59 74 102 113 120 134 138 139 144 148 156 150 160 170 175 178 176 179 182 182 183 185 186 181 182 181 180 181 178 184 187 185 188 195 198 204 205 202 207 200 190 184 181 180 181 180 181 185 191 186 190 188 186 185 189 191 186 187 178 177 174 175 172 174 170 164 161 160 150 151 148 148 140 135 128 127 122 117 104 78 75 79 75 71 71 49 47 38 36 36 28 86 54 69 96 109 116 127 136 138 140 146 155 158 167 174 182 182 183 187 184 182 178 180 175 174 176 177 179 179 186 188 183 185 183 190 200 196 197 197 207 205 195 187 188 180 183 183 186 186 193 193 192 197 202 197 194 191 187 187 179 177 177 179 175 173 171 168 165 164 160 157 149 144 142 142 130 129 118 118 109 77 64 78 69 72 74 48 48 38 37 38 30 97 70 72 93 109 113 125 134 139 139 154 156 167 173 181 185 185 182 178 179 178 169 173 163 158 154 155 164 161 165 168 169 169 162 166 183 185 192 193 200 207 200 194 188 184 186 185 194 191 192 194 194 203 203 204 196 189 186 186 185 178 173 172 170 169 170 171 166 158 151 138 139 133 126 129 124 113 107 108 105 84 59 67 70 72 69 46 48 40 38 37 32 117 77 69 85 112 114 127 128 134 137 150 155 168 177 180 175 169 170 165 156 154 148 148 143 138 130 122 131 137 133 137 148 150 146 137 163 180 191 185 193 191 194 199 194 189 199 188 196 198 198 192 193 202 201 198 187 184 182 183 173 166 163 162 158 150 146 146 141 135 126 113 105 106 102 106 104 98 85 74 82 81 65 61 65 62 62 49 52 43 40 41 31 123 84 63 85 107 107 120 127 131 136 146 153 163 164 159 157 156 146 139 139 138 127 123 102 102 113 114 110 112 128 118 113 125 135 130 142 161 177 179 179 178 186 195 194 189 195 184 194 198 193 189 190 191 191 186 178 180 177 174 165 158 151 150 133 125 113 111 112 91 79 77 80 77 75 87 89 85 92 88 69 59 53 48 56 60 56 52 51 42 48 44 32 129 132 89 87 111 112 118 128 128 137 141 147 154 153 145 144 148 137 135 129 121 126 131 126 113 110 105 97 106 112 105 103 108 119 126 132 137 152 165 170 173 180 182 184 194 193 188 193 183 193 186 181 180 176 178 177 174 172 162 155 147 144 126 112 111 94 102 92 77 76 57 61 65 59 60 58 54 47 53 52 48 42 37 46 49 57 57 46 44 43 45 27 131 170 146 102 101 110 112 122 129 140 138 139 151 150 153 150 150 145 146 148 142 142 143 134 144 144 134 122 114 110 112 106 113 123 118 129 128 132 159 167 163 169 173 175 179 177 180 182 177 175 178 177 175 173 173 173 167 162 159 156 150 119 108 108 99 100 89 90 89 77 82 73 65 79 97 95 75 54 48 43 47 47 39 36 46 59 55 45 51 56 43 25 137 168 161 126 106 112 113 126 134 138 142 140 150 146 134 139 143 149 153 153 151 145 143 143 143 150 145 142 140 139 130 130 132 128 131 137 134 128 151 162 155 160 168 167 167 170 175 172 171 176 171 172 172 172 172 169 164 161 157 150 132 108 112 104 87 90 92 100 104 120 116 122 128 132 132 129 118 99 85 82 71 59 41 31 39 53 60 47 49 63 37 24 138 144 160 117 105 106 115 123 133 134 140 143 139 140 144 147 142 140 143 140 142 143 142 138 145 149 152 146 150 149 142 135 140 140 139 142 142 141 148 156 153 160 168 164 164 164 169 167 168 171 169 169 168 165 163 163 161 157 145 133 122 124 120 104 112 120 114 129 140 143 137 136 135 131 130 129 126 117 113 108 93 78 53 37 40 54 57 53 75 57 33 19 104 97 122 104 93 101 116 122 132 135 137 145 141 141 145 145 140 137 136 137 142 144 146 148 152 152 155 157 160 161 157 145 137 135 140 137 139 139 143 148 153 155 160 161 161 164 166 170 174 165 165 163 160 155 154 151 152 145 132 122 129 133 124 125 130 133 140 141 146 141 138 141 132 128 128 126 120 111 104 98 86 81 55 38 42 55 56 56 81 43 33 16 96 72 80 90 80 85 107 118 135 139 140 146 143 143 145 138 132 133 137 140 147 148 148 157 161 159 162 161 159 161 160 154 155 147 141 135 132 131 133 134 142 147 153 158 157 163 165 171 173 172 166 164 159 154 151 142 137 128 120 122 120 122 123 128 137 143 150 148 144 142 142 138 130 129 128 127 120 113 104 99 85 80 59 44 44 50 55 66 76 51 26 16 109 75 60 71 73 69 98 115 132 137 143 144 143 142 138 131 122 126 143 145 138 144 134 133 137 139 141 136 140 154 153 152 161 155 147 145 139 130 127 127 126 134 141 151 161 160 165 173 182 184 170 161 153 145 138 128 120 115 116 119 121 124 128 132 132 130 118 112 111 110 106 104 104 102 105 115 110 113 101 95 81 71 62 44 49 49 56 70 75 60 23 13 121 92 67 54 65 63 90 117 129 139 141 142 149 142 134 131 125 128 127 118 112 117 120 117 124 132 132 131 121 102 97 98 113 131 137 141 140 140 135 135 129 125 128 139 152 161 166 174 191 187 167 155 147 136 118 112 113 112 119 120 120 125 116 107 101 99 106 117 134 134 130 109 96 83 75 72 77 86 99 93 78 70 62 48 47 49 65 68 61 58 28 15 112 103 60 54 52 60 84 121 130 141 141 141 149 146 134 134 131 113 102 119 112 112 105 83 79 56 75 70 88 97 107 95 89 93 108 127 133 138 129 137 129 120 122 127 139 161 169 174 189 187 165 155 139 121 103 102 111 113 117 116 111 105 100 94 105 108 103 96 98 80 76 75 82 92 91 88 67 54 71 98 92 72 62 48 46 51 66 71 61 44 26 15 102 102 63 59 49 56 85 120 130 141 143 140 144 140 132 124 111 97 101 111 74 99 116 72 85 96 85 39 63 46 79 93 114 104 95 111 123 125 125 133 132 133 135 129 132 153 166 175 183 179 165 153 133 104 95 105 114 119 118 113 109 100 100 100 100 95 58 48 70 50 54 49 30 55 48 61 77 61 55 79 99 78 61 50 45 50 63 81 65 43 33 14 87 107 73 62 52 51 88 119 134 145 142 136 136 130 125 126 104 107 90 76 114 162 139 68 82 57 81 57 90 72 119 125 105 106 104 110 106 116 116 128 135 133 134 133 130 147 164 175 184 180 166 148 131 95 91 109 118 117 112 114 113 99 103 100 127 140 63 92 46 92 36 72 54 81 102 54 57 58 59 68 92 80 62 53 49 50 68 88 63 58 42 9 79 118 91 60 53 53 93 119 139 146 143 140 139 131 126 124 110 96 106 108 142 157 135 69 88 63 59 50 98 72 150 184 168 139 111 97 113 130 138 148 154 142 131 133 132 146 170 173 181 177 166 152 128 93 93 113 125 133 138 135 121 123 111 139 172 172 67 99 56 51 62 84 54 90 126 95 57 48 53 59 74 73 64 53 48 53 81 77 51 75 61 1 73 105 103 60 60 65 104 122 136 145 149 146 141 131 128 125 122 119 133 137 149 157 159 83 84 108 94 105 104 98 173 180 167 150 120 115 114 110 158 178 172 162 140 136 139 150 163 174 180 175 161 150 131 99 89 110 138 159 155 114 112 127 130 162 174 177 111 81 98 88 96 82 48 115 126 103 83 82 47 51 59 60 65 63 56 52 70 75 51 77 70 4 66 91 99 73 63 92 110 128 138 146 153 153 152 143 143 140 141 134 137 144 149 154 172 140 72 81 95 102 81 132 177 158 132 125 113 129 124 144 164 177 166 151 134 136 146 153 159 171 177 173 161 151 138 108 93 109 135 168 156 121 121 110 119 127 139 151 152 73 80 94 82 56 96 147 125 107 95 72 55 62 65 68 71 69 59 50 71 83 50 73 62 11 79 99 100 71 83 113 115 133 145 153 161 161 161 159 158 152 154 151 144 144 139 144 149 165 143 98 99 104 123 147 141 137 127 124 130 139 147 156 159 164 154 139 136 143 148 147 157 167 175 172 163 152 139 114 95 101 124 142 154 157 148 153 148 138 130 143 152 138 132 116 91 105 127 116 102 95 83 72 74 79 86 83 81 74 68 52 68 90 52 62 53 13 125 129 92 78 100 122 123 136 148 157 162 166 167 166 166 158 151 147 146 150 147 140 132 136 133 141 154 150 159 143 149 151 139 141 140 143 149 149 149 153 147 134 140 153 148 149 158 167 177 176 164 147 142 120 98 94 105 133 151 144 142 149 157 145 135 161 151 155 147 127 130 119 105 94 99 103 105 96 90 80 92 101 100 88 72 57 66 71 52 61 58 4 164 118 92 86 95 116 131 141 153 161 168 173 175 172 170 165 159 155 147 141 145 148 144 149 146 151 146 153 167 146 142 138 140 146 148 148 148 157 164 157 147 143 150 153 147 151 155 167 181 182 167 146 143 123 101 95 98 118 144 158 149 143 141 137 138 143 157 158 157 146 136 140 136 120 121 117 110 96 91 92 99 103 106 98 79 63 64 77 63 67 58 9 109 106 95 85 100 126 133 142 154 164 173 176 176 175 172 169 167 163 159 149 143 143 141 147 148 146 146 146 145 141 148 153 164 156 160 158 156 162 166 150 148 153 160 154 156 155 157 161 181 183 169 148 142 126 106 95 97 104 126 153 156 159 158 151 148 146 137 131 136 136 133 135 135 132 126 117 107 101 103 100 111 109 110 104 84 62 61 78 73 61 57 15 89 101 89 83 103 127 137 145 155 166 175 178 179 180 177 173 170 169 168 162 152 152 146 142 149 151 147 148 148 152 155 159 157 154 162 165 170 168 160 157 160 160 160 158 160 158 158 163 178 185 174 158 144 125 105 91 95 103 117 137 157 164 163 160 161 159 151 144 139 133 125 130 129 128 124 120 118 115 115 109 115 116 115 109 89 66 67 78 73 54 64 11 67 91 83 89 112 126 140 148 159 168 178 181 182 183 179 171 163 168 170 165 163 162 158 153 151 151 153 152 154 160 167 165 155 161 167 175 172 166 163 161 163 163 164 162 161 155 157 165 180 185 179 166 153 125 104 89 94 101 113 117 140 159 164 172 168 159 159 152 146 145 140 138 132 135 131 129 126 124 121 114 115 120 118 113 100 79 75 73 62 64 60 10 93 101 84 90 120 128 143 150 161 170 177 183 189 189 184 175 170 174 170 157 165 167 168 165 162 156 160 161 163 168 170 171 171 170 175 179 174 170 165 160 163 166 169 164 160 155 159 168 181 187 180 167 154 127 106 91 91 98 113 119 126 148 158 170 169 163 160 152 148 143 137 141 142 137 133 134 132 128 124 117 118 122 122 116 100 79 79 78 57 71 57 14 98 100 101 100 119 129 144 152 160 169 177 182 185 186 186 179 178 177 175 174 173 172 166 165 167 165 167 166 169 171 168 169 172 180 181 172 167 165 162 159 164 168 165 160 158 157 160 169 179 184 182 170 153 136 109 92 90 98 104 111 124 140 151 160 166 168 162 157 150 143 132 136 135 138 136 133 133 135 134 125 126 127 125 120 99 75 75 69 79 63 39 21 94 102 120 118 122 132 144 152 159 168 174 181 185 185 183 182 180 180 179 177 176 173 171 172 170 167 167 169 170 166 164 170 175 175 176 174 166 162 161 164 166 165 160 159 159 154 162 169 178 186 179 166 159 142 118 96 89 96 104 105 118 135 146 148 158 165 160 159 150 152 144 142 143 143 141 139 140 143 137 133 133 133 127 117 96 75 74 79 74 56 46 20 91 106 132 127 126 137 137 153 159 167 174 181 181 184 185 185 184 181 181 177 174 173 172 169 168 168 172 169 165 167 174 179 174 170 175 171 168 164 167 165 162 161 159 155 154 154 165 170 176 184 177 170 162 145 124 102 88 93 104 106 112 132 144 145 151 161 157 156 152 151 146 151 150 148 144 145 146 142 138 135 134 133 125 113 101 74 69 85 86 70 41 21 118 122 137 132 133 141 140 151 159 168 168 176 180 182 183 183 185 185 182 180 180 177 178 171 171 167 168 169 176 174 171 177 172 174 178 173 177 168 165 164 163 159 158 155 151 154 163 168 180 180 175 173 161 149 135 113 90 89 101 109 109 126 140 143 147 153 157 157 154 154 156 151 148 150 146 146 146 146 146 140 135 130 123 111 100 76 64 72 81 64 36 26 150 137 139 134 129 139 137 150 157 162 162 169 177 179 179 181 181 181 182 181 180 181 179 178 171 176 176 171 179 179 172 172 173 178 177 176 175 167 168 168 164 159 157 154 151 155 168 175 184 182 178 172 164 157 145 123 100 87 93 97 112 121 135 143 149 153 159 159 157 157 161 157 154 144 146 151 147 145 148 144 135 132 122 105 95 74 64 94 75 60 32 26 146 142 129 137 132 135 138 147 155 160 162 168 175 174 178 180 179 179 181 177 182 179 177 183 175 177 178 174 178 179 176 169 175 180 172 167 175 174 172 169 164 159 155 152 152 163 172 180 183 187 178 172 166 161 147 132 109 89 89 90 109 125 134 144 153 154 161 160 158 158 158 153 162 142 142 150 150 149 144 140 134 134 125 103 87 75 64 79 48 49 33 27 150 140 124 140 139 130 137 146 152 158 165 166 172 171 173 177 175 179 181 177 179 179 182 183 176 175 177 177 177 176 177 174 179 179 175 176 175 173 170 168 163 157 151 152 156 165 174 180 182 185 181 179 170 159 150 140 119 96 89 89 100 129 140 146 151 155 157 161 159 159 159 151 158 152 150 145 148 146 141 140 135 129 120 106 88 73 58 57 51 41 30 25 150 144 125 142 161 143 142 140 148 155 160 164 162 170 170 174 174 176 180 178 175 176 183 183 179 178 180 180 178 175 178 180 177 178 183 182 177 172 167 169 157 155 153 153 162 170 174 173 174 184 178 176 174 165 158 142 129 107 88 94 92 122 141 147 150 153 154 162 159 160 157 157 156 155 153 151 149 145 139 139 139 130 115 103 84 67 60 52 42 39 29 28 133 137 121 135 155 145 142 138 143 159 157 164 165 167 167 172 172 172 173 175 174 176 182 181 178 176 177 175 175 176 178 181 182 183 180 178 178 175 171 166 148 150 157 160 165 170 172 170 171 176 186 184 179 172 162 147 134 109 85 89 95 110 134 147 151 150 157 156 162 157 159 158 154 154 154 151 149 145 140 135 131 124 114 100 87 62 53 51 47 38 27 31 152 139 123 113 133 136 143 129 141 155 153 160 164 164 164 172 173 171 172 178 175 176 180 180 179 179 176 173 175 178 180 179 179 182 181 181 179 176 168 156 147 164 163 168 170 168 169 171 172 183 191 189 185 182 162 150 134 107 90 91 94 93 124 144 154 154 159 160 164 160 159 159 158 157 155 150 146 147 139 136 134 122 113 92 87 69 57 51 38 24 28 31 163 156 137 108 122 116 130 127 138 142 152 160 160 163 164 171 174 174 174 178 178 178 177 181 181 179 176 176 177 181 183 179 178 181 178 178 173 174 171 156 157 176 171 169 165 161 160 161 160 166 166 166 172 171 153 139 121 106 104 95 95 87 103 140 153 160 161 163 164 158 159 159 159 157 155 150 147 144 137 134 134 121 106 84 81 64 52 36 38 38 37 38 163 166 162 133 125 104 114 128 138 138 150 160 155 160 164 167 170 172 176 179 179 176 176 177 177 177 179 179 180 178 180 180 179 176 180 176 167 173 169 154 161 169 168 166 156 145 141 141 143 152 151 151 157 157 146 133 108 103 102 99 105 92 91 134 149 159 163 168 164 162 163 162 159 156 153 151 150 146 139 132 132 122 105 81 80 64 52 40 52 57 56 59 170 168 178 163 141 109 103 119 137 147 142 154 157 161 162 166 167 167 172 178 176 177 177 176 175 175 179 180 183 185 182 181 181 175 174 180 175 173 167 150 161 163 156 153 145 139 140 136 141 138 136 146 153 142 127 116 100 88 93 111 117 110 91 127 145 156 162 172 162 163 162 163 162 157 154 148 149 149 142 132 126 120 101 78 71 64 47 39 84 87 74 100 174 165 167 164 139 114 101 111 134 145 140 147 157 158 158 163 162 163 171 171 171 176 177 174 177 178 179 179 178 178 177 180 181 178 181 179 177 173 170 151 158 161 160 138 108 75 63 73 109 132 130 133 137 129 119 77 54 88 97 103 122 120 95 123 147 152 160 173 169 169 161 161 159 155 155 149 146 147 141 128 123 116 99 79 67 62 44 55 106 97 79 122 171 165 157 156 145 117 98 109 122 142 143 147 154 157 161 160 160 163 166 171 170 173 175 174 179 178 177 179 179 181 183 185 185 183 184 179 179 174 174 157 153 154 142 115 114 101 58 56 63 102 125 126 127 116 93 56 94 163 153 122 125 127 96 127 142 147 155 169 172 170 167 162 158 155 153 151 144 145 138 129 121 111 94 80 74 63 38 84 135 124 79 92 172 164 162 155 165 144 106 109 125 140 144 149 149 157 155 159 164 168 161 163 171 175 174 177 180 179 177 179 181 184 184 184 183 184 183 179 179 178 178 163 146 150 142 132 154 162 106 104 121 114 117 118 113 104 90 106 119 135 130 136 128 102 103 139 148 145 152 164 175 175 164 159 158 158 158 152 147 143 134 131 119 110 92 68 66 59 51 107 135 131 123 107 171 160 161 158 161 150 118 111 121 138 147 145 151 151 154 159 161 165 165 168 171 175 177 177 180 183 181 182 179 180 182 182 184 182 181 181 181 180 181 169 151 138 148 142 150 163 146 145 143 130 122 120 110 102 113 123 133 112 104 102 98 107 126 138 141 147 151 159 171 173 163 159 158 157 154 151 147 143 138 125 123 109 87 66 65 54 55 119 129 140 142 131 165 170 162 155 152 145 129 125 133 140 151 150 157 153 157 163 158 164 167 170 166 166 173 179 182 185 184 184 180 179 180 183 186 185 184 181 180 180 182 179 163 141 131 135 145 141 160 167 156 144 140 137 124 116 128 134 125 112 108 111 119 127 134 139 142 147 151 155 162 169 172 168 161 158 153 148 146 139 139 127 112 105 84 66 65 55 67 132 133 146 138 134 164 170 168 170 165 161 153 137 136 140 151 155 158 157 154 159 159 164 162 167 168 169 176 181 183 182 182 182 183 183 183 185 185 185 183 182 178 179 181 177 179 165 148 141 142 146 156 156 160 161 164 151 140 137 135 140 127 120 119 117 123 132 129 136 137 144 146 151 151 158 173 170 168 161 146 132 137 136 133 127 111 96 82 68 64 40 67 136 138 141 137 129 145 159 172 173 174 171 166 140 125 138 149 154 149 155 155 154 158 162 164 167 173 175 177 180 180 182 178 177 181 186 186 185 184 184 182 182 180 179 182 182 179 178 169 165 160 155 160 161 173 171 177 162 155 155 147 149 134 130 125 119 120 122 129 130 134 138 140 145 147 150 159 161 174 172 143 101 124 135 127 122 113 92 76 67 72 45 61 132 138 140 131 114 126 145 163 166 164 167 167 145 127 137 147 154 150 153 155 156 159 161 165 168 171 175 178 179 183 181 182 184 185 184 186 184 182 184 184 183 181 181 183 185 184 179 175 177 168 165 174 172 175 177 183 169 165 161 151 152 144 130 124 120 121 125 126 128 131 135 140 146 148 148 148 152 159 161 143 114 122 128 124 117 109 89 73 64 72 44 59 117 123 117 104 54 97 82 129 149 148 151 151 140 127 138 147 149 154 159 159 159 157 160 166 169 170 174 176 179 181 182 184 185 183 180 182 181 182 185 185 184 182 182 180 181 183 180 180 179 174 172 170 168 172 177 173 163 167 164 157 157 146 135 128 124 119 121 123 128 132 132 140 147 147 147 146 146 145 147 144 138 133 120 119 115 102 84 64 70 66 41 36 54 43 33 9 3 79 63 107 113 102 99 95 92 111 135 142 143 150 156 158 158 157 158 165 169 170 172 176 178 181 184 184 183 182 181 182 181 182 184 185 183 183 181 179 178 180 178 180 179 175 173 177 176 176 177 172 162 167 170 168 160 156 145 133 129 123 118 122 126 131 132 132 139 141 144 144 140 143 143 142 144 135 119 116 111 100 77 59 72 64 47 20 19 19 29 24 18 79 117 135 103 72 46 28 30 87 136 139 142 150 156 157 157 155 155 160 164 167 169 174 176 180 182 183 184 185 183 183 181 182 182 180 180 179 175 177 179 181 177 178 178 177 176 178 179 182 179 171 168 166 170 176 164 159 150 135 133 126 123 124 123 128 131 130 134 137 141 143 140 139 133 119 134 139 129 119 107 96 72 65 81 60 52 23 17 31 31 23 22 128 152 132 107 92 66 60 64 84 131 140 142 150 151 150 151 158 155 154 158 165 165 171 174 176 175 175 181 179 178 179 178 181 178 176 176 174 177 175 174 179 177 177 177 178 178 179 182 186 181 170 163 167 168 170 167 156 152 139 134 135 128 127 120 122 132 134 133 139 145 147 144 140 128 95 113 137 129 121 106 90 71 70 77 66 62 26 19 34 34 34 21 159 145 113 114 102 72 68 88 92 125 139 144 149 153 153 153 156 154 153 156 159 165 170 174 172 173 177 179 178 176 174 174 175 173 168 172 173 178 177 175 175 177 178 178 178 179 178 178 178 173 164 155 159 161 164 162 160 159 143 136 136 132 128 122 118 122 129 127 131 140 148 147 138 125 113 114 127 126 117 106 84 72 64 70 70 57 27 10 27 34 37 23 163 133 127 122 94 84 80 91 89 118 144 145 150 151 149 145 151 151 150 152 160 161 166 170 169 171 176 174 173 175 175 174 175 172 171 175 173 173 171 172 176 176 176 180 180 178 178 178 176 174 169 159 156 163 167 163 155 142 129 124 127 121 121 118 113 112 128 120 121 137 149 146 133 131 122 113 123 126 114 99 81 76 71 73 70 59 27 13 24 30 33 25 146 134 146 113 93 96 89 92 81 111 141 146 147 149 153 154 151 152 149 149 154 159 163 167 169 172 171 168 169 174 177 175 175 172 170 169 172 169 168 166 172 176 179 176 175 172 169 164 165 165 166 163 161 160 148 128 116 122 119 124 124 116 113 108 98 101 115 108 111 131 146 142 137 140 120 112 116 121 111 89 68 63 72 75 73 60 28 10 18 23 27 23 139 146 138 113 95 99 86 83 66 102 138 149 144 145 148 146 152 147 152 153 150 155 159 163 164 168 168 167 168 171 173 173 172 171 167 165 163 165 166 164 168 162 158 149 150 149 151 147 141 141 140 135 127 127 124 120 121 124 127 126 120 114 110 110 94 89 92 97 107 119 133 139 144 143 127 111 114 121 109 84 66 70 77 78 73 60 28 10 17 20 27 22 129 125 118 101 99 94 92 98 63 84 140 145 144 148 154 153 155 145 153 152 151 151 154 158 160 162 166 170 170 172 173 173 170 163 163 158 155 155 156 153 145 133 140 140 147 144 139 142 141 138 126 113 124 116 109 113 112 123 117 107 93 97 105 103 102 89 90 90 77 90 124 139 149 148 136 116 111 116 100 72 61 69 76 77 74 56 23 9 20 22 27 23 108 106 87 94 95 98 112 100 51 72 138 140 145 155 155 154 158 150 156 150 149 154 150 154 154 157 161 164 168 171 170 169 168 163 154 143 146 143 137 130 131 134 134 132 132 128 122 119 113 114 106 93 86 82 94 94 89 85 79 74 77 73 69 72 76 77 68 62 79 117 139 145 154 150 141 119 110 113 97 72 69 80 77 83 75 55 26 7 18 28 45 46 114 101 92 109 115 115 104 85 54 66 134 141 146 154 156 157 159 157 154 160 154 150 146 149 150 153 157 166 167 166 165 165 161 154 151 139 131 121 111 116 118 115 113 101 96 99 100 98 90 90 96 90 71 80 101 106 107 109 99 93 99 93 82 72 64 64 72 93 122 149 160 158 154 155 141 115 110 111 90 71 83 81 86 81 70 50 20 12 18 22 36 48 116 111 114 119 123 93 98 92 66 66 125 143 147 150 155 159 160 157 156 154 144 149 145 145 145 150 153 162 161 164 165 163 158 139 125 100 93 93 101 110 104 96 91 82 95 100 106 108 118 117 124 130 121 126 130 127 124 124 114 109 107 104 100 94 88 91 98 114 133 152 158 156 155 156 141 116 114 107 85 77 85 86 85 76 65 48 17 18 20 26 28 45 113 119 120 126 108 81 106 99 71 62 110 141 149 153 154 158 158 161 161 158 153 153 146 143 145 150 155 156 161 166 164 157 145 127 106 94 85 82 85 84 91 104 117 122 135 136 141 138 142 142 136 137 131 138 140 137 132 132 128 117 113 104 94 92 95 96 103 116 136 145 152 154 157 154 137 115 109 98 78 85 87 93 86 72 61 47 17 11 23 37 40 39 115 135 138 101 79 107 120 88 80 66 108 140 146 154 156 158 155 160 153 159 159 154 150 144 144 149 155 156 159 159 161 157 157 151 150 156 149 140 131 121 126 126 126 132 137 137 152 151 146 152 146 145 139 141 143 142 136 132 125 118 118 113 115 112 111 111 115 124 132 143 147 151 153 146 137 114 110 98 79 91 90 95 84 71 59 35 12 13 13 34 56 57 139 134 103 82 96 128 118 106 91 67 102 134 141 153 152 159 159 158 164 165 160 157 150 146 145 149 156 156 159 161 159 158 159 161 165 167 163 156 151 146 143 141 142 140 141 140 149 153 147 150 145 149 141 139 141 148 139 135 132 131 131 126 123 118 116 115 118 124 135 145 140 144 144 138 132 117 108 85 85 92 88 92 78 67 54 29 14 31 24 19 35 77 124 90 82 95 132 130 119 111 91 73 107 135 138 147 156 156 159 164 162 160 160 161 154 146 142 148 153 155 156 162 161 162 164 167 165 165 167 164 163 161 160 155 151 153 158 155 154 154 157 160 147 150 149 142 144 145 136 136 140 135 133 129 124 122 122 118 122 127 133 140 137 138 139 137 131 117 105 87 90 91 89 89 77 67 49 20 12 30 39 40 37 38 92 95 110 121 136 130 122 103 89 75 105 136 134 142 151 153 161 161 159 161 161 158 155 148 143 145 153 155 155 162 164 165 164 165 162 166 163 162 164 163 164 162 161 161 156 151 155 150 147 149 143 141 140 141 142 139 137 137 138 138 140 141 135 126 123 116 119 125 137 139 138 137 133 129 118 113 102 88 89 88 90 86 74 60 42 14 17 39 43 40 46 41 104 121 135 151 143 123 109 101 98 80 99 143 128 136 148 151 162 161 162 163 163 159 156 149 146 144 150 160 157 160 163 167 164 166 166 170 167 164 164 164 164 164 163 159 159 157 158 152 148 144 147 145 143 149 147 145 149 151 145 148 146 146 137 124 120 115 122 129 133 135 136 133 132 124 117 114 102 92 87 84 90 83 72 58 33 9 24 36 46 50 47 52 114 143 169 143 129 120 117 105 94 68 87 138 133 130 146 148 158 157 157 159 159 158 159 152 148 145 149 158 158 160 164 165 163 167 166 169 170 169 167 166 166 165 164 162 164 160 160 156 155 152 153 153 149 148 148 150 150 151 147 146 146 145 129 122 122 122 125 128 128 133 134 130 128 119 108 109 99 87 88 85 88 79 68 46 18 8 30 45 42 48 62 48 152 170 132 110 118 106 107 95 84 77 106 138 147 128 137 142 148 156 156 156 156 157 156 153 147 145 149 153 157 158 160 163 166 167 167 167 167 165 165 165 168 165 162 160 161 159 158 160 155 156 155 157 154 149 150 153 150 149 151 149 147 143 135 133 131 126 125 126 126 130 131 128 126 115 113 106 99 84 89 88 85 71 58 30 10 12 22 28 56 62 52 44 176 122 106 108 110 108 104 82 94 109 121 127 152 134 125 138 146 152 153 155 156 157 158 153 148 143 147 149 154 157 159 160 164 165 163 162 164 164 163 165 163 161 162 162 163 161 163 162 161 157 157 154 157 154 150 149 149 150 149 148 147 138 137 138 135 131 128 131 130 129 127 123 122 114 112 103 90 80 89 88 79 67 49 18 5 17 26 35 27 43 48 48 101 91 93 90 91 92 83 90 116 126 112 119 154 147 126 136 144 147 154 154 155 156 155 155 151 146 147 150 154 158 159 160 161 163 163 161 162 162 161 162 162 161 161 164 162 159 161 161 160 157 159 158 158 155 153 150 151 153 153 149 148 144 139 137 137 133 132 133 131 126 123 117 119 116 110 95 80 81 88 87 74 57 31 12 12 24 31 41 48 33 34 34 75 77 66 68 67 74 99 116 126 104 88 112 150 159 140 124 137 144 150 151 152 153 154 153 151 151 146 150 156 159 161 159 160 161 165 161 162 158 161 156 160 161 161 161 164 163 163 164 161 159 157 157 157 150 152 148 145 150 154 161 148 146 144 138 139 136 135 133 127 123 119 120 117 113 105 88 77 81 86 82 63 44 23 12 22 33 33 42 52 42 36 36 64 57 53 68 98 121 117 118 108 101 80 108 151 157 153 125 121 140 144 148 152 153 151 150 149 150 147 149 154 155 155 159 160 159 162 160 162 157 160 160 161 160 158 158 162 165 164 166 162 155 156 159 154 151 154 151 148 149 159 161 143 140 146 143 139 138 135 131 125 120 122 119 113 107 93 79 77 80 78 72 51 24 15 22 36 41 43 38 55 55 42 36 55 72 84 103 113 116 120 116 108 111 73 104 148 155 159 146 118 127 138 144 150 153 153 154 154 150 146 148 153 158 158 160 162 162 160 157 160 159 158 160 161 162 162 164 166 170 167 171 173 170 172 173 163 155 159 160 159 157 156 153 149 146 147 142 136 139 137 128 130 119 120 121 109 101 86 73 76 78 74 61 35 17 26 67 54 29 37 45 46 62 65 53 71 101 108 117 119 114 100 89 98 80 73 109 151 154 156 158 139 112 128 135 144 151 152 152 153 150 146 147 152 159 158 159 159 161 159 157 160 158 159 158 161 164 165 167 164 168 169 174 179 180 182 179 176 171 168 165 160 153 148 146 147 154 152 144 137 140 141 131 132 120 117 118 105 94 81 70 72 75 68 47 19 23 39 106 82 40 39 45 44 36 40 41 103 110 105 109 95 73 64 71 74 70 76 99 146 155 158 161 153 130 117 130 137 144 148 148 151 152 151 152 153 155 158 162 161 161 161 158 161 161 160 163 166 165 164 166 170 173 176 175 178 179 177 179 178 174 172 164 162 156 152 148 145 146 149 148 139 139 134 130 127 115 113 110 102 87 75 69 74 68 52 23 22 45 39 92 100 73 58 59 48 43 42 44 108 115 109 91 64 52 63 60 58 72 82 99 144 156 157 160 156 149 121 110 128 132 143 150 148 148 151 152 152 153 160 164 164 162 163 161 163 159 163 166 168 170 171 173 178 181 179 178 179 180 181 181 177 173 172 167 167 163 157 150 148 146 144 140 138 136 126 124 121 110 120 104 91 84 70 71 63 54 29 16 50 62 38 61 91 95 69 56 54 52 50 49 123 114 90 60 51 58 53 49 69 83 91 107 141 154 153 156 158 159 147 120 110 120 132 142 144 145 146 147 150 154 154 158 156 162 163 166 167 166 168 170 171 174 176 180 183 179 179 180 179 179 179 179 177 177 179 172 170 168 163 155 150 147 143 141 136 129 130 117 116 110 103 94 83 68 67 72 53 29 15 46 74 60 40 50 62 66 73 64 53 50 57 50 88 77 57 53 62 58 55 75 93 93 100 115 139 153 157 159 160 160 157 147 112 107 122 128 136 141 138 144 145 148 154 159 162 161 168 166 166 168 173 176 172 174 176 180 181 175 181 181 176 181 180 180 179 179 178 174 173 170 167 162 155 148 143 142 131 122 126 115 109 105 99 94 77 64 63 54 30 20 49 77 76 58 47 52 50 40 56 56 63 59 58 56 67 65 56 63 63 64 82 95 99 91 100 120 139 155 156 158 160 159 156 155 142 112 103 118 121 126 124 132 141 146 147 152 157 154 160 163 161 165 171 175 171 172 175 178 178 176 185 179 178 184 182 178 177 175 175 175 176 171 171 166 158 151 141 140 130 115 113 103 101 103 81 82 68 66 50 28 24 53 89 85 74 59 44 44 44 41 44 46 49 54 56 55 43 61 71 72 68 75 94 91 92 89 97 91 138 155 153 158 160 161 158 158 158 143 117 104 116 118 121 127 132 138 142 148 152 152 157 161 160 162 167 172 173 170 170 171 175 179 178 178 181 179 178 176 171 167 171 172 169 168 166 163 154 147 137 131 122 116 112 104 91 85 82 68 63 48 27 26 62 89 92 83 72 57 39 41 43 38 46 41 39 45 49 50 26 62 50 73 83 87 90 90 82 78 79 75 142 149 153 159 161 162 161 159 156 156 145 120 97 104 113 121 123 126 136 141 137 144 152 157 158 160 161 168 168 167 168 170 174 174 176 174 177 178 178 171 169 165 166 166 164 167 165 162 152 142 136 127 111 116 99 96 93 81 83 61 48 27 34 73 90 93 90 84 67 51 29 36 49 48 43 44 45 45 45 43 2 55 92 102 95 88 92 84 77 83 73 54 129 159 156 159 160 161 161 160 162 160 152 149 134 104 95 102 116 118 124 129 130 137 145 146 149 153 156 159 161 162 156 161 168 164 165 171 173 171 165 166 167 165 161 161 160 163 159 156 147 142 135 124 112 107 93 93 95 81 59 45 26 33 73 99 98 97 92 86 72 56 25 32 41 39 34 40 44 43 43 43 18 34 95 99 82 92 82 63 77 84 60 90 145 150 158 159 160 159 160 161 162 163 159 155 151 150 120 92 95 117 116 119 119 123 136 144 148 149 149 151 158 162 156 160 160 157 163 162 160 161 162 163 161 161 160 156 156 153 148 149 140 134 125 116 104 95 99 82 84 57 44 28 38 76 107 103 97 100 96 84 69 50 19 24 32 29 30 35 36 35 34 34 14 12 57 79 58 84 66 56 69 58 103 163 138 155 154 159 159 159 161 161 164 163 162 157 152 149 151 141 108 79 94 108 119 118 125 131 136 144 143 143 147 152 147 152 153 156 153 157 158 158 159 158 158 155 153 150 151 152 148 139 134 122 119 110 97 96 82 70 47 38 25 43 79 104 107 103 104 103 95 84 68 49 17 11 16 16 23 28 29 32 32 27 15 3 6 38 56 76 62 53 33 81 168 173 142 155 157 159 159 160 160 165 167 168 164 161 155 156 149 151 151 130 93 80 92 106 117 120 130 144 139 131 138 145 136 140 143 152 149 150 150 149 146 151 149 145 143 144 144 146 139 130 123 111 112 90 88 86 72 45 30 31 42 81 105 107 110 110 110 101 96 85 71 46 15 10 13 10 11 10 15 18 16 13 5 12 13 7 17 61 56 32 44 168 191 169 140 151 156 158 159 161 162 164 170 166 165 163 159 158 156 155 155 153 146 113 80 78 87 103 115 122 135 132 128 134 129 138 140 143 141 140 140 142 140 141 141 138 137 139 136 134 125 122 116 108 105 79 94 64 33 29 34 53 80 102 108 111 115 112 112 107 93 82 69 44 9 9 12 10 11 12 12 11 12 10 12 11 15 13 10 7 7 5 154 203 182 149 134 160 155 158 160 161 162 163 170 166 168 167 164 161 159 158 155 157 153 151 135 106 78 67 90 99 115 113 116 123 119 120 119 125 136 134 128 128 127 127 126 123 119 118 120 118 115 105 103 96 80 60 52 29 27 37 58 79 90 102 111 114 116 114 112 105 95 82 73 44 7 7 12 12 12 10 14 13 12 10 12 12 12 11 10 7 9 104 211 183 167 127 129 157 154 157 160 159 160 164 166 167 168 168 164 164 161 160 159 157 155 155 148 146 130 100 70 64 75 85 101 110 109 108 112 113 117 113 111 117 115 108 110 108 101 96 92 80 76 69 62 52 30 26 25 36 55 71 82 92 100 112 114 117 119 114 110 99 94 84 72 40 10 11 11 11 8 13 11 9 10 12 12 14 17 10 9 20 36 176 208 181 138 93 134 156 156 159 162 162 161 162 166 166 168 167 165 164 163 164 163 161 161 160 152 147 147 142 136 107 78 56 58 61 63 74 82 84 87 85 82 83 75 69 76 63 59 49 48 37 37 38 39 41 54 70 75 86 88 82 87 92 99 105 113 117 118 113 108 97 93 81 69 40 9 6 8 11 7 10 9 12 9 12 12 10 10 11 16 36 45 197 211 167 117 73 135 157 155 158 161 164 163 161 163 168 169 169 169 167 165 167 168 164 163 163 162 158 153 151 146 144 139 122 102 83 70 60 59 51 50 50 50 51 55 58 64 65 68 77 92 95 101 109 118 122 125 122 113 103 89 79 88 91 98 106 112 115 115 109 105 98 91 81 66 36 5 11 11 9 12 8 12 12 12 12