P2
# Generated by OpenCV 4.2.0
92 112
255
81 73 85 126 119 120 135 150 161 178 184 189 186 198 201 203 204 204 206 203 204 206 203 206 206 209 211 214 210 217 219 218 218 220 220 220 217 217 214 213 216 215 209 214 209 212 215 210 211 209 205 208 208 209 209 207 208 207 205 204 202 201 194 197 196 189 179 174 167 162 153 149 150 131 125 92 54 61 52 52 49 30 53 82 94 70 64 85 96 101 87 70 69 65 101 110 99 118 126 144 169 174 188 186 189 195 199 197 204 204 205 203 205 206 205 206 208 208 211 212 209 214 213 220 215 219 215 216 216 217 214 218 217 209 206 212 211 210 210 209 214 204 206 199 207 204 207 209 205 207 206 202 202 199 195 193 195 189 183 180 167 166 167 161 152 147 136 101 66 52 55 59 56 47 25 64 85 81 69 81 94 102 102 89 64 70 103 94 103 102 137 151 164 181 186 189 189 195 199 203 201 200 201 201 203 203 207 208 209 209 209 215 216 216 216 217 216 218 217 215 217 215 213 211 212 204 211 210 215 209 213 208 206 206 204 207 205 205 205 205 201 206 206 204 202 199 195 196 194 189 182 182 173 173 167 166 159 153 151 130 88 41 46 59 57 49 30 9 76 101 84 73 125 107 80 76 59 68 109 89 95 114 134 152 166 184 185 187 191 196 200 202 202 199 201 199 204 206 207 207 208 208 212 211 214 217 219 217 218 216 217 217 218 216 213 212 208 208 208 211 213 215 210 210 210 207 202 207 207 206 205 204 203 205 206 201 201 195 195 195 193 190 184 183 186 177 171 169 168 164 156 144 105 54 34 51 52 48 44 18 11 80 101 79 104 125 116 58 48 76 89 88 101 114 145 156 167 182 187 187 189 198 201 202 203 201 204 201 203 203 209 207 209 207 211 212 214 215 219 214 216 216 216 213 215 217 214 211 207 209 204 210 208 210 206 207 208 206 200 202 202 204 201 206 203 205 201 200 200 198 194 196 192 194 187 182 182 184 177 176 175 167 155 150 126 74 36 32 52 58 61 44 10 44 96 107 95 134 126 77 57 72 79 91 95 111 138 159 172 181 186 188 188 196 198 198 199 202 202 200 203 205 210 207 209 209 211 213 214 217 217 217 216 214 216 215 212 210 210 209 210 209 208 211 208 212 208 208 207 207 204 205 205 204 207 205 203 202 202 200 196 195 196 195 194 191 191 190 190 186 185 183 175 171 165 160 135 91 61 30 32 65 42 52 20 14 48 103 141 109 121 87 57 66 86 93 98 121 142 158 172 179 187 186 191 192 197 194 205 204 203 198 205 204 206 207 212 208 211 213 216 215 215 217 216 214 214 214 215 212 213 207 208 207 212 209 209 210 210 210 209 207 206 207 206 205 205 203 203 203 202 203 200 197 196 196 198 198 193 193 193 190 186 185 178 175 168 161 143 98 71 64 29 47 53 27 32 10 52 63 130 134 120 114 48 75 80 92 104 125 144 157 176 181 185 187 191 194 200 194 204 206 200 198 205 205 210 209 213 212 212 211 219 219 218 218 218 219 212 216 215 215 213 208 209 210 210 210 212 210 210 209 209 203 205 205 203 207 204 206 207 204 203 204 204 201 201 201 198 198 195 197 194 188 191 189 182 181 174 160 137 106 82 70 64 38 50 45 29 18 40 61 78 118 145 109 55 85 84 79 77 118 138 164 174 178 188 187 189 193 198 198 202 205 205 205 206 207 207 212 212 215 212 208 210 218 219 219 218 218 220 216 218 213 213 211 210 206 209 209 213 211 212 208 208 210 205 206 207 203 205 209 206 206 204 204 201 200 198 198 198 196 198 198 196 194 192 188 188 187 175 171 137 116 89 76 65 50 30 35 36 20 24 50 62 106 136 108 59 84 83 60 88 120 143 171 180 179 185 191 188 194 199 200 204 207 206 205 208 208 209 209 215 217 218 217 216 218 216 216 218 219 216 219 216 215 213 212 213 212 209 211 209 209 207 207 208 209 210 208 209 205 209 207 205 206 199 204 203 199 204 205 203 199 192 198 192 193 188 190 194 188 186 166 141 124 97 79 71 47 51 34 41 15 24 38 65 75 103 131 62 94 58 62 83 121 148 170 177 177 184 187 186 190 198 201 204 201 208 206 206 204 210 205 216 217 220 218 220 219 218 220 218 216 217 214 213 214 213 211 211 211 211 211 211 212 209 207 207 210 209 210 212 208 208 210 209 205 205 205 204 207 204 202 202 203 198 198 196 194 189 190 191 187 185 168 141 126 105 84 67 51 39 38 45 25 24 31 72 67 99 118 66 80 64 81 89 130 156 174 177 183 185 186 187 189 196 201 204 207 205 204 206 206 208 211 214 218 218 223 221 220 222 221 220 219 217 217 212 213 214 210 212 213 209 211 212 209 209 211 210 208 212 212 213 211 210 209 209 210 208 204 206 204 204 203 202 203 201 197 197 193 192 189 190 183 182 173 140 129 109 85 73 57 38 31 31 52 21 30 62 72 71 107 86 58 63 75 83 134 161 173 178 179 182 183 182 187 190 200 203 204 203 206 207 208 208 210 209 215 218 220 219 221 221 223 220 221 220 217 215 213 211 209 207 212 209 210 211 210 212 212 211 211 212 212 211 213 209 209 211 208 206 205 206 205 204 201 200 203 200 196 199 194 188 193 190 184 177 159 142 135 112 88 76 62 47 33 24 27 27 23 58 71 74 97 88 65 111 55 92 137 163 170 177 176 182 181 183 183 192 202 202 206 202 205 203 207 205 209 211 214 216 219 218 217 220 220 222 218 220 216 214 210 212 212 209 206 211 210 212 212 211 214 215 213 210 215 212 214 208 211 208 207 206 206 207 204 205 201 198 201 198 196 195 195 195 192 189 180 172 157 140 130 116 92 81 65 45 41 22 30 33 22 36 76 70 95 100 76 76 56 93 142 163 169 174 177 182 176 179 184 193 202 203 203 204 206 207 208 208 205 209 208 216 218 218 219 220 220 217 219 218 214 213 211 213 211 207 208 209 207 209 211 210 211 210 211 210 213 210 213 207 209 207 206 205 205 205 201 203 202 203 200 200 199 199 196 196 193 182 176 163 149 135 132 122 95 89 70 56 37 26 25 32 24 34 84 64 79 79 109 56 57 97 142 158 160 169 173 177 182 182 191 196 201 200 206 203 204 207 205 206 201 213 209 206 214 216 216 218 220 217 216 215 215 214 211 210 209 207 205 209 211 212 210 211 210 211 212 212 210 211 209 207 205 201 204 204 203 204 202 198 199 199 197 199 200 198 197 195 191 183 173 161 150 136 131 128 97 92 71 52 47 33 26 35 27 26 50 61 59 71 115 59 49 101 143 158 159 166 175 180 174 188 198 199 201 203 198 200 198 194 193 199 196 193 201 206 207 214 212 215 216 216 220 213 213 212 208 207 209 207 208 210 211 208 212 210 208 211 210 213 210 209 206 205 204 200 205 201 202 203 197 198 197 196 195 198 198 196 200 202 193 186 178 164 152 144 137 124 112 91 75 53 48 48 29 44 37 31 44 60 57 52 120 53 57 105 142 156 160 160 171 174 180 190 197 200 197 189 186 174 170 183 169 172 172 175 180 191 197 202 177 201 211 211 208 214 212 212 209 210 208 205 207 208 211 212 210 209 209 214 209 208 207 207 204 202 203 199 202 199 201 199 198 195 196 199 199 200 202 202 203 202 198 191 184 167 154 144 134 121 106 86 74 55 56 38 31 46 40 33 44 57 55 52 104 48 62 99 147 153 157 162 175 178 176 176 172 168 176 173 160 153 158 160 145 166 171 149 159 147 169 171 166 183 195 198 206 210 204 212 205 208 206 204 206 212 208 210 211 207 209 207 206 206 207 207 204 202 199 202 198 196 198 199 195 194 193 192 193 195 193 197 197 195 199 195 191 171 147 143 136 120 101 89 65 69 49 43 32 53 75 30 28 45 55 46 83 56 54 105 144 148 157 154 169 170 170 164 165 148 148 138 153 151 164 133 117 138 139 134 137 129 144 143 178 134 162 177 194 192 201 202 203 206 206 206 212 207 211 210 205 213 208 208 206 207 204 202 205 201 185 192 183 191 169 174 166 167 162 175 173 165 173 172 167 168 176 188 189 181 152 143 135 118 101 96 57 61 50 47 36 80 95 32 31 41 47 39 55 119 62 108 142 154 158 154 158 155 153 140 141 143 139 127 135 125 122 126 123 100 111 117 109 115 94 128 124 139 148 153 163 181 181 190 202 199 202 206 203 203 206 207 205 203 202 204 201 200 200 200 192 178 185 181 164 140 139 141 137 141 134 137 144 140 139 144 151 156 160 174 175 182 165 149 139 113 99 92 61 59 52 51 40 75 72 25 29 37 45 34 63 57 109 94 140 146 150 150 149 133 138 150 159 145 147 146 150 140 142 140 140 114 102 109 91 89 98 111 114 141 135 168 142 155 180 176 186 194 192 202 206 204 200 196 201 201 197 197 196 195 199 193 184 160 147 174 135 144 121 133 108 109 108 90 100 97 98 120 120 141 144 143 154 157 160 156 137 115 96 82 63 62 52 46 53 68 61 23 26 37 39 44 45 47 62 115 134 144 146 151 147 151 149 142 148 156 152 150 150 154 144 141 139 142 137 129 122 113 102 114 115 125 129 144 142 145 174 175 171 183 185 190 189 193 191 187 194 189 190 187 191 192 183 177 174 163 153 154 135 117 107 88 100 83 72 80 83 74 69 86 102 91 114 117 115 127 136 146 140 120 94 77 61 61 58 43 54 64 75 16 17 39 30 28 34 53 68 94 141 144 147 147 148 147 135 164 163 146 149 153 150 151 151 148 156 153 147 137 144 133 129 127 130 132 129 142 143 139 162 167 169 174 176 175 180 183 182 187 187 190 180 175 176 182 175 169 173 155 145 127 126 102 90 92 85 78 97 90 76 94 100 104 102 109 103 98 99 109 108 129 124 116 85 72 66 61 54 47 47 60 87 9 17 28 24 8 33 43 60 105 131 145 145 147 151 142 141 150 153 146 150 149 154 159 160 169 171 170 169 160 165 157 147 138 136 135 129 137 133 137 147 159 157 163 167 172 173 178 181 182 177 180 178 169 168 169 162 155 151 140 124 120 112 104 97 104 98 103 111 120 120 125 123 131 128 125 115 103 112 120 132 132 126 107 83 69 65 62 60 48 41 57 75 11 18 26 27 11 39 59 63 106 140 147 149 149 153 155 140 145 144 140 142 155 165 174 176 184 185 187 182 182 178 172 166 154 155 142 132 127 128 131 134 143 150 156 155 163 166 180 182 186 176 176 164 162 157 152 147 145 131 122 126 115 110 109 111 121 125 133 139 146 146 148 145 145 144 138 135 135 131 127 124 125 122 99 87 67 67 61 64 54 53 66 23 12 15 24 28 50 10 59 83 100 138 145 149 151 149 152 148 141 134 134 150 163 170 175 181 174 184 184 180 183 182 176 173 170 167 155 137 129 123 122 121 128 136 145 153 157 166 167 177 188 183 175 160 156 152 140 131 126 117 114 112 112 107 120 131 147 158 160 164 163 167 162 162 162 160 159 156 144 130 133 131 127 111 108 83 70 69 62 63 56 57 60 4 16 14 28 25 34 24 57 81 112 142 148 149 159 155 157 156 142 134 137 153 161 147 126 130 141 143 150 152 140 129 130 145 162 163 160 158 145 136 127 122 120 126 132 144 154 162 177 191 186 184 167 159 143 135 125 117 111 107 109 112 117 129 146 157 163 168 165 165 168 163 163 163 162 166 165 158 148 139 134 128 118 113 105 77 74 67 70 74 55 64 21 7 15 23 21 25 12 18 57 71 100 146 150 156 159 160 157 161 147 147 149 147 99 155 183 182 179 182 200 184 180 166 156 134 92 117 140 148 155 150 143 135 124 119 127 136 157 172 188 199 199 191 169 159 141 115 110 108 106 106 117 125 133 142 147 145 139 115 110 101 96 102 118 124 131 145 148 155 149 146 135 120 121 115 102 83 75 71 70 65 50 50 18 8 9 28 21 28 56 18 60 83 128 146 154 158 158 166 158 158 157 150 141 117 166 156 139 143 127 118 79 109 93 92 118 131 125 118 100 125 146 150 142 135 137 122 122 130 150 175 195 205 209 201 186 170 145 115 100 104 103 116 127 128 137 130 110 93 144 158 178 184 178 180 173 167 170 135 88 114 131 136 133 121 118 116 107 85 76 66 68 67 51 38 18 20 15 15 33 23 43 36 54 102 126 133 155 159 164 168 156 151 139 143 125 155 128 108 122 101 117 55 70 123 49 56 66 70 111 111 116 96 128 133 133 130 136 136 141 140 148 175 197 213 217 205 191 179 138 103 95 102 112 120 124 135 125 108 127 144 143 151 130 114 107 105 110 130 118 161 164 138 73 121 138 131 124 122 105 92 74 74 74 62 44 43 17 19 27 16 31 32 41 43 106 89 88 143 161 165 167 165 157 148 147 152 146 106 84 61 123 149 113 61 64 33 103 58 74 65 119 90 107 104 121 112 126 134 142 147 147 155 157 179 204 214 217 211 201 183 134 95 100 108 115 123 122 118 116 128 128 118 107 66 51 132 75 78 63 60 83 105 107 128 132 76 131 130 131 123 106 91 77 77 74 70 46 46 25 17 25 34 30 35 96 62 70 99 131 141 159 164 169 169 158 149 141 137 133 129 128 122 131 156 138 53 102 82 66 98 109 96 170 152 113 86 93 126 153 160 172 181 173 167 170 188 207 216 220 212 206 189 137 103 105 116 124 130 129 133 122 109 92 121 129 63 90 20 167 47 68 42 101 64 88 83 118 127 106 130 127 115 112 99 80 79 80 60 49 58 23 18 18 22 25 46 45 113 74 101 119 144 158 167 167 175 163 156 157 159 161 161 159 158 167 160 167 58 97 100 97 122 70 145 149 134 125 113 125 113 140 191 198 190 180 174 177 192 208 216 218 210 208 200 150 110 114 134 164 165 155 102 70 99 136 185 191 75 107 70 41 87 70 30 117 115 71 46 72 112 133 123 125 118 112 104 86 87 84 60 57 59 8 22 15 18 36 34 90 100 91 108 121 139 160 167 171 178 173 173 171 169 169 163 166 156 165 166 171 182 131 125 133 146 161 168 147 152 146 163 176 180 188 190 184 189 173 181 183 195 205 212 216 213 210 203 178 125 121 144 180 163 117 127 122 123 153 156 169 139 89 122 94 108 78 57 143 133 120 122 85 86 97 106 118 120 118 112 88 87 84 66 60 67 9 25 16 22 35 36 116 129 97 115 115 142 160 166 174 179 179 182 180 178 173 169 148 162 161 162 179 156 149 159 139 168 137 159 166 155 149 150 172 180 181 189 192 183 184 185 190 192 206 211 216 209 207 200 185 149 125 149 170 181 178 193 179 179 176 173 184 185 175 145 89 80 101 153 163 141 156 141 130 157 132 117 120 125 123 116 96 87 79 61 61 60 3 5 29 19 37 32 122 144 120 113 119 144 158 172 174 183 185 185 184 185 183 173 162 138 149 149 149 161 161 164 158 170 158 153 150 145 158 176 180 190 191 190 192 186 191 190 188 192 201 211 215 209 208 205 187 165 148 140 166 189 177 187 178 167 160 161 158 159 157 153 143 154 126 131 134 142 142 139 151 147 147 147 140 136 125 124 104 89 80 62 62 65 4 11 19 33 24 37 137 149 122 112 111 142 163 162 176 188 193 194 188 186 184 186 177 164 142 138 134 138 139 145 133 126 125 155 147 168 175 192 192 188 199 196 193 193 194 193 187 191 199 210 216 207 206 205 186 168 161 153 153 180 196 182 178 172 138 155 171 173 169 165 165 160 153 142 143 145 140 143 143 147 158 153 152 148 139 134 113 93 78 67 57 58 5 7 9 30 34 31 148 164 90 106 109 127 170 163 176 188 195 195 196 194 192 190 189 187 164 149 139 130 133 135 152 163 160 172 177 180 187 188 196 204 204 197 198 197 197 191 188 188 197 212 215 209 207 203 187 174 160 160 158 173 187 187 183 176 171 159 140 131 140 144 138 139 141 142 139 134 136 140 150 164 168 171 163 160 147 141 120 100 80 61 71 64 8 16 10 12 31 36 151 90 100 116 133 145 160 161 180 191 198 201 201 198 187 192 191 183 188 184 180 180 173 169 170 177 185 189 184 190 196 197 206 205 202 199 198 197 195 190 188 191 200 211 215 214 207 205 184 167 160 161 162 167 179 191 188 179 182 177 174 167 144 119 111 109 112 116 116 132 136 144 150 172 173 160 172 169 155 144 121 105 83 63 73 59 10 10 15 14 23 47 73 103 105 104 117 154 161 170 181 190 198 201 204 202 202 195 194 188 192 185 185 188 190 192 192 192 194 188 193 193 198 202 208 203 201 198 198 197 195 190 187 193 203 212 216 214 206 202 183 165 158 161 166 174 170 181 188 192 182 178 172 169 166 166 163 150 148 146 151 152 164 173 167 171 165 174 173 176 169 154 129 109 84 71 70 55 9 21 14 13 26 40 137 142 116 107 115 144 159 161 177 188 198 204 203 206 204 205 199 195 193 199 197 197 194 196 195 191 186 187 190 200 205 206 207 205 202 196 194 195 189 188 188 191 205 210 216 212 208 203 191 170 161 161 164 170 173 186 187 191 189 185 181 172 174 169 159 164 160 161 161 162 166 174 178 175 175 182 186 180 175 152 139 114 86 56 70 44 16 17 17 11 13 48 163 147 136 107 116 143 159 166 178 188 194 200 203 204 204 205 204 200 200 200 196 197 200 196 186 192 184 197 198 204 212 205 206 201 200 197 192 191 194 185 190 200 206 212 213 210 205 204 193 175 166 160 165 166 174 182 191 189 188 189 186 180 170 172 174 176 178 171 175 154 179 176 174 176 185 183 188 188 176 161 145 115 96 57 63 41 21 16 17 15 18 25 166 158 124 96 126 130 155 164 178 187 192 198 200 205 207 208 209 208 209 203 199 196 195 197 195 197 197 204 206 205 207 206 203 202 196 194 187 186 188 187 194 198 203 206 208 210 205 204 195 179 165 165 166 170 171 184 190 188 190 189 192 185 184 184 186 182 180 185 180 182 188 188 191 182 189 191 191 186 177 160 142 120 98 60 53 33 26 22 38 26 9 15 172 153 104 118 122 137 152 159 173 177 189 192 194 200 208 209 206 208 205 203 204 198 203 204 205 204 203 205 210 207 210 206 204 200 194 184 188 186 183 187 194 199 208 209 209 207 207 204 200 185 169 167 169 173 168 185 192 189 191 187 192 193 189 190 186 189 187 189 189 190 191 191 193 187 190 189 192 185 177 159 145 124 97 66 62 33 26 34 29 46 24 12 163 106 141 142 123 138 149 157 171 173 181 189 196 200 204 208 209 208 208 208 209 211 209 209 210 213 208 207 210 211 209 206 204 198 194 189 187 186 182 191 195 203 209 212 211 206 203 206 200 192 175 165 172 164 170 181 183 187 189 191 194 192 195 194 194 195 196 197 196 195 193 195 196 195 196 194 190 182 171 155 144 132 100 71 60 28 21 26 48 41 43 24 129 135 160 153 139 127 152 153 165 176 177 184 184 192 200 204 204 201 208 210 204 202 210 210 212 212 212 209 211 208 208 204 200 195 193 190 182 183 186 190 195 204 211 216 212 208 206 203 200 197 185 169 173 168 173 183 192 188 189 190 195 195 193 192 195 196 197 197 195 196 197 198 198 195 195 194 187 177 171 154 141 129 97 69 60 31 25 21 40 51 48 21 135 159 171 157 143 98 142 153 163 173 174 183 184 189 192 202 202 205 206 207 211 209 207 207 211 208 212 209 210 212 209 204 199 193 189 184 184 187 185 194 197 200 211 212 209 205 204 200 202 200 187 175 176 173 176 181 187 192 193 194 193 194 195 192 192 193 199 188 197 197 195 195 194 193 193 188 184 163 161 148 142 124 97 66 54 28 28 31 33 30 43 28 168 175 165 159 143 92 140 146 155 166 171 176 180 184 187 193 196 199 206 208 207 212 210 210 210 210 212 209 210 212 204 203 201 194 190 183 194 189 188 190 194 199 209 209 201 201 205 195 195 196 186 173 180 182 172 175 184 187 189 192 194 195 195 197 195 195 194 193 195 197 198 196 194 188 189 185 180 170 155 145 138 125 96 54 60 32 32 50 42 35 41 35 139 163 165 159 136 118 119 149 146 161 171 174 178 182 185 193 199 202 203 203 209 211 210 210 211 213 208 208 208 209 205 209 198 193 184 197 190 185 183 184 190 193 206 202 199 204 194 190 185 183 170 162 173 184 182 176 183 180 188 188 192 193 195 194 196 196 193 195 195 195 197 194 193 192 190 185 173 161 145 138 138 126 99 49 54 32 36 47 43 42 38 39 119 152 161 174 153 92 118 146 141 152 161 172 177 185 191 197 201 199 200 207 209 208 210 208 209 210 213 211 206 203 202 202 194 192 184 190 181 180 167 167 171 173 177 177 178 182 193 177 159 150 132 140 160 180 182 178 181 184 186 186 190 193 196 195 197 194 192 193 196 192 194 199 195 198 188 183 169 163 150 133 136 124 85 56 43 23 31 44 45 52 55 51 117 136 167 185 159 105 109 142 139 154 155 164 170 178 187 192 199 202 199 202 208 208 210 207 209 210 210 211 200 206 200 192 195 188 186 183 177 168 149 141 141 144 151 150 158 166 173 153 132 120 114 126 139 162 175 179 181 174 177 187 189 192 199 197 197 197 197 196 194 193 194 196 192 188 192 185 170 152 144 135 134 123 76 56 37 23 52 51 55 52 44 46 114 168 170 185 182 136 101 146 139 145 157 164 168 175 183 190 196 198 204 203 205 204 206 209 208 208 209 209 201 207 204 204 195 188 179 174 158 142 124 126 125 126 121 129 149 149 137 125 125 108 98 107 120 146 159 172 173 176 180 179 188 193 196 196 194 195 191 194 196 188 190 191 184 189 186 177 165 143 137 135 127 115 70 67 42 40 49 63 58 53 36 28 103 176 185 180 175 136 100 138 144 140 149 158 163 167 180 187 195 195 195 195 205 205 204 207 205 206 202 206 199 199 199 194 193 195 168 161 139 114 59 36 61 116 112 111 126 126 112 105 100 62 62 84 105 127 142 159 161 177 179 178 186 192 188 190 194 194 191 191 186 190 186 185 183 179 182 174 160 147 138 134 121 110 75 65 46 57 95 71 47 71 53 21 97 178 186 180 142 129 96 139 152 139 149 152 154 168 168 181 193 194 199 205 205 202 203 201 207 207 204 208 202 199 197 199 194 193 150 133 113 83 90 58 21 19 75 103 107 94 93 94 19 9 45 59 60 104 125 139 151 177 183 180 186 181 191 192 193 191 189 190 188 189 186 186 185 176 170 168 153 143 134 133 118 99 70 75 45 56 95 81 56 69 57 16 77 179 190 182 152 125 113 145 152 138 142 151 152 167 165 179 188 191 194 197 201 197 199 200 208 203 206 197 194 201 203 200 202 200 148 127 116 105 127 132 63 103 97 96 89 86 89 66 64 52 104 118 94 99 117 129 149 171 182 180 177 183 187 193 192 190 185 187 183 178 179 172 173 168 169 159 154 142 133 124 123 93 83 54 66 63 96 93 72 51 35 33 76 176 188 186 142 111 123 133 155 141 138 145 150 159 165 178 184 189 190 195 195 198 198 200 200 204 202 202 197 199 202 202 207 201 189 129 127 121 125 140 153 146 121 114 91 78 84 88 93 99 100 99 95 104 107 118 164 165 177 179 177 178 190 197 191 188 183 185 179 176 178 180 168 163 163 154 147 132 125 121 123 95 73 60 64 68 98 109 94 57 38 25 68 133 192 170 172 98 127 139 152 149 142 143 146 151 167 173 186 181 183 198 194 201 201 198 205 203 204 202 198 202 204 204 203 204 198 151 113 126 144 154 159 150 141 132 124 104 95 104 107 114 106 85 84 109 131 152 162 166 177 182 182 180 184 189 181 185 189 184 177 171 170 168 164 158 152 149 141 129 127 126 124 80 82 84 63 64 105 115 103 61 25 26 62 90 185 182 190 115 125 138 155 153 146 141 146 148 156 168 185 190 190 192 199 197 202 189 199 194 198 203 202 205 203 203 204 204 201 189 163 159 151 156 159 165 170 165 134 127 134 128 127 125 124 129 142 163 161 157 165 172 176 180 182 179 173 184 183 191 188 184 183 175 162 158 152 156 147 135 136 123 125 124 122 82 72 69 65 66 100 126 101 53 13 29 53 51 152 172 165 115 109 143 149 155 143 148 144 154 157 169 176 184 185 189 193 198 198 200 200 200 202 202 203 205 206 204 204 204 200 196 189 180 168 172 178 181 181 182 167 151 152 144 151 145 150 153 153 164 169 170 174 175 180 183 185 185 175 174 183 184 186 186 190 187 167 154 147 148 138 134 124 126 126 128 124 81 65 65 79 73 101 121 100 28 30 20 53 57 52 139 146 90 112 125 138 149 148 147 148 138 153 159 174 183 186 188 194 199 197 199 195 192 198 199 203 207 207 207 206 208 203 198 197 174 166 174 173 167 165 174 144 155 162 137 138 149 144 145 155 144 158 168 173 182 177 186 187 186 182 171 161 168 165 155 172 165 169 161 150 135 136 118 125 121 124 131 124 79 76 63 74 70 94 105 71 0 23 23 51 38 47 54 97 93 108 120 127 146 144 147 146 143 145 155 167 180 187 189 190 195 193 190 192 203 198 205 203 204 205 206 196 190 199 199 185 182 157 162 178 163 167 147 134 149 147 150 146 161 154 149 140 154 150 164 173 177 180 189 188 190 184 182 167 158 153 170 154 160 172 153 137 133 124 123 118 124 134 132 124 97 64 68 69 64 93 88 8 6 17 30 54 44 41 30 43 113 85 95 127 144 144 146 153 141 139 150 157 176 184 183 193 192 192 194 192 197 201 204 204 202 203 200 186 194 196 182 178 178 165 174 166 169 162 156 158 149 159 153 150 157 147 159 137 136 153 144 155 164 164 176 186 181 182 183 183 165 139 158 169 185 193 148 130 123 117 116 116 119 129 137 120 86 62 75 73 65 68 11 4 10 18 35 56 55 48 41 58 103 79 94 121 137 149 144 146 144 136 142 157 169 179 189 185 186 193 181 197 194 204 203 193 191 192 187 190 199 186 172 177 154 173 166 187 173 169 143 138 154 159 156 166 166 152 170 138 144 178 161 152 147 155 165 171 177 177 169 184 182 175 138 156 144 131 137 136 121 116 114 117 125 132 134 111 98 64 62 75 28 16 13 7 18 20 44 52 52 57 43 97 87 91 90 110 131 151 145 147 142 138 134 142 163 174 177 180 184 182 191 183 192 196 185 195 184 193 188 177 179 178 174 170 175 194 170 186 173 152 142 155 155 162 163 156 171 171 154 156 147 171 153 149 162 162 173 169 167 166 179 159 170 165 166 131 129 136 133 126 121 111 108 116 125 128 130 115 83 58 51 66 19 8 13 14 33 19 58 87 65 31 51 69 77 82 78 101 130 146 144 140 139 136 129 141 151 164 172 172 177 192 181 183 186 177 184 175 181 189 179 179 178 154 160 158 164 177 164 169 150 151 158 145 174 170 165 179 165 146 165 144 161 162 142 146 153 159 171 170 166 161 162 166 158 153 150 146 135 147 126 117 109 109 108 124 125 138 138 112 57 81 57 63 37 9 10 21 34 15 64 88 97 83 55 65 71 83 73 87 115 139 148 146 149 145 127 131 143 162 165 174 177 170 170 175 181 169 171 172 185 177 187 169 171 164 164 153 145 169 149 135 161 164 160 164 176 168 169 168 144 131 112 127 116 130 129 142 154 155 146 167 169 163 166 145 154 167 143 147 119 125 128 116 111 109 118 125 130 138 135 108 77 71 45 72 42 12 8 18 44 22 53 60 75 75 80 67 77 73 88 69 119 146 149 150 144 151 136 127 140 146 157 165 170 167 156 161 178 175 166 175 166 180 173 174 167 157 150 132 124 126 138 133 151 174 171 178 187 194 161 133 123 113 109 111 120 126 116 122 125 137 148 145 165 144 143 125 131 140 141 140 127 124 117 116 109 113 125 132 140 144 133 111 84 68 38 72 42 10 14 18 37 32 65 77 77 79 81 73 65 62 78 80 111 139 152 155 157 153 147 130 134 137 149 158 170 181 167 160 168 150 151 164 149 166 155 162 152 143 136 119 120 98 96 91 94 106 110 98 109 103 101 112 124 109 113 123 110 115 104 101 103 102 116 122 126 138 111 114 133 127 129 139 132 119 125 112 109 117 125 133 138 129 125 119 94 59 62 69 35 11 17 21 35 43 66 62 54 41 43 52 46 72 91 96 96 134 156 154 157 162 151 140 131 128 145 151 162 159 164 158 122 137 142 142 140 134 127 133 111 118 116 126 126 137 128 136 138 117 118 109 118 107 136 124 115 126 113 102 99 89 99 92 97 83 83 107 105 101 94 113 120 130 116 122 117 130 114 111 120 131 132 133 140 135 123 93 87 57 66 60 48 11 14 29 40 54 58 43 60 39 36 28 43 65 73 97 104 137 153 154 163 158 153 153 136 134 132 150 153 159 140 169 115 147 137 114 105 95 105 99 113 120 121 120 108 111 111 109 109 105 102 108 104 90 100 117 99 97 91 65 75 83 103 97 96 79 81 62 63 85 92 108 124 99 102 105 118 118 115 120 129 130 134 137 136 131 125 87 86 68 63 53 52 11 15 32 41 74 58 41 42 59 53 43 71 53 87 91 106 139 150 160 165 160 161 160 143 136 126 139 133 126 113 139 131 127 112 108 93 69 69 85 96 85 94 74 71 82 86 78 65 71 54 62 60 59 63 58 74 73 89 91 90 66 48 59 63 73 64 63 83 101 120 118 115 112 118 106 128 122 128 130 134 134 139 139 138 130 114 89 75 66 58 32 41 18 19 35 63 72 60 35 36 44 50 64 50 47 68 102 110 142 155 158 159 167 160 161 154 138 127 138 135 110 118 149 123 138 130 85 63 80 72 90 86 74 57 99 110 125 143 137 144 138 142 139 127 148 149 134 154 140 146 145 131 141 125 122 104 105 108 112 122 126 137 141 132 138 113 134 120 123 123 134 139 140 143 138 128 115 105 87 82 62 64 28 45 19 28 47 70 73 49 30 28 25 22 24 25 27 76 89 115 131 151 154 162 164 163 166 159 148 142 137 146 132 139 120 143 127 130 132 135 148 144 137 116 110 121 135 122 136 151 146 160 158 159 164 151 165 164 159 154 148 143 153 144 134 134 135 137 140 143 129 132 134 136 146 134 135 125 138 113 125 136 144 136 142 138 125 115 121 98 70 78 70 60 33 23 15 37 40 67 52 66 40 23 23 15 12 21 32 62 93 106 126 147 153 161 167 167 172 156 152 145 129 140 145 134 138 146 136 149 148 159 160 158 161 159 152 157 146 158 146 164 155 157 161 168 169 164 157 165 168 165 151 150 156 160 158 156 138 136 131 137 137 132 130 132 133 145 152 128 114 133 133 133 141 134 139 131 122 118 107 90 72 91 60 46 40 14 33 21 53 62 87 92 50 27 21 21 14 9 34 65 85 88 112 154 154 161 170 166 158 171 160 156 144 140 150 150 149 143 161 162 168 168 171 167 171 165 160 160 166 177 178 185 180 183 188 182 182 187 178 180 183 168 171 173 169 172 160 154 143 141 144 134 142 138 133 126 136 133 147 114 129 133 121 135 139 142 139 134 123 120 95 89 57 82 51 54 24 27 35 46 62 84 76 57 34 30 15 17 29 7 18 28 81 65 100 146 146 157 164 164 168 168 171 158 152 129 147 153 157 174 160 159 174 176 179 178 175 177 172 172 164 165 166 163 164 166 165 158 161 155 161 163 151 155 154 153 151 150 148 145 145 146 140 149 138 140 138 140 152 134 134 129 135 131 144 143 144 136 138 128 127 113 83 85 63 66 44 52 35 24 48 59 75 63 48 50 38 26 18 18 14 24 24 28 65 77 94 135 153 146 144 164 166 168 172 161 159 138 145 158 161 160 169 179 182 181 185 184 184 181 182 183 176 177 173 174 160 164 165 159 157 152 160 164 156 166 163 161 160 144 154 142 148 147 148 143 142 143 145 144 151 145 128 130 138 143 143 144 138 145 135 137 122 95 72 70 67 44 53 39 32 38 47 49 69 32 44 56 36 29 18 15 13 9 26 40 65 65 77 123 144 137 143 163 165 171 172 169 162 146 139 154 160 166 173 181 185 182 184 182 183 172 185 181 180 180 182 176 179 176 168 171 174 173 173 182 182 191 176 172 178 170 180 161 139 147 148 148 149 147 144 153 153 146 140 144 133 133 139 143 142 141 137 128 94 87 81 62 55 34 53 35 34 35 51 69 48 60 65 59 27 36 20 14 13 15 17 48 49 62 82 110 123 144 145 163 164 166 170 167 172 155 143 140 158 158 171 178 182 180 182 183 181 185 182 183 181 186 177 188 185 170 184 159 189 185 180 183 187 198 175 195 178 185 168 169 149 140 144 149 146 144 151 151 154 154 166 142 142 141 140 139 133 138 136 125 87 83 59 55 40 54 49 41 45 43 37 39 36 38 21 26 16 30 21 17 19 16 25 53 30 43 59 105 95 145 129 149 163 166 169 176 165 156 147 144 159 162 163 173 177 181 178 181 184 182 184 181 180 175 180 178 194 177 184 181 182 172 168 189 173 189 180 189 184 184 163 142 146 143 151 144 150 147 152 165 149 148 144 157 143 137 142 138 133 133 135 121 90 60 57 49 46 42 43 44 35 27 26 16 19 27 18 23 16 27 25 22 24 23 17 51 24 26 44 77 83 109 117 135 155 164 166 173 161 161 156 149 151 158 165 175 177 177 179 184 178 181 173 173 175 177 176 164 189 171 174 173 170 177 170 172 193 172 174 149 173 145 156 148 148 149 142 146 147 150 157 162 151 150 145 149 148 139 134 137 139 133 129 118 89 58 62 37 41 39 34 31 24 13 11 20 27 11 17 32 11 17 18 15 19 9 9 34 23 36 41 71 75 89 104 132 141 157 165 169 173 158 147 150 155 157 166 172 179 176 176 176 171 174 174 172 172 172 178 170 172 170 153 171 173 166 176 168 172 142 161 174 152 136 139 159 147 144 153 158 157 162 183 176 163 165 158 136 141 138 140 136 133 125 108 102 70 61 63 46 49 25 21 14 13 9 16 31 16 21 33 40 9 7 10 11 17 14 6 55 36 34 40 52 52 72 79 112 136 155 162 171 165 163 159 159 167 165 167 178 175 180 175 176 177 172 173 172 170 170 171 171 170 164 152 169 165 163 173 169 134 188 163 169 158 167 142 142 154 153 165 161 165 156 165 178 168 163 161 150 140 135 139 142 131 118 106 83 65 53 46 59 45 31 13 21 13 17 35 17 19 29 35 43 10 10 4 14 17 15 12 30 28 29 30 37 43 63 70 99 109 139 158 160 163 156 141 153 178 170 176 179 183 172 176 181 171 175 178 177 173 175 176 170 166 165 155 157 164 167 169 161 166 151 170 174 172 151 149 152 166 164 170 181 169 171 173 186 166 165 164 171 147 139 132 136 123 109 92 79 82 50 45 49 38 21 16 16 21 31 25 27 29 40 35 45 5 8 9 9 14 14 14 19 38 30 22 20 54 60 77 76 93 126 152 155 163 157 142 147 151 161 169 185 175 186 184 186 187 184 182 184 182 180 178 180 179 171 171 182 174 166 160 152 177 182 156 160 156 161 161 166 162 170 185 179 187 176 192 180 168 168 141 143 149 137 128 134 105 100 91 74 65 37 51 52 32 23 13 19 24 26 29 32 39 34 38 46 6 3 6 3 9 17 13 23 46 34 24 20 32 59 59 64 79 107 132 147 162 153 144 138 146 148 165 179 181 182 186 185 177 181 187 189 187 181 185 181 180 185 182 186 197 174 157 173 176 195 167 181 184 176 173 177 182 180 186 186 184 167 186 186 177 174 170 156 136 137 127 120 90 106 58 71 48 50 74 67 26 19 18 21 20 27 29 27 23 33 27 31 6 3 1 4 2 16 17 19 44 42 37 26 22 43 59 66 60 74 113 134 145 150 133 151 127 148 150 173 187 186 185 188 191 191 193 192 197 201 204 197 199 190 198 194 192 178 180 172 182 172 192 192 185 191 187 188 188 189 191 180 191 182 177 186 171 152 166 165 120 120 113 105 87 90 65 50 64 84 84 67 16 17 18 18 16 20 14 15 22 19 28 21 9 3 2 2 6 11 18 21 34 51 40 36 22 36 99 70 64 47 83 105 140 120 137 134 157 147 150 180 175 181 181 187 191 187 197 203 201 206 206 201 192 193 191 197 199 175 179 183 176 185 180 195 200 183 184 186 188 189 197 181 183 180 176 188 153 163 156 151 151 130 110 84 82 59 67 58 88 95 98 83 13 10 13 12 13 15 17 20 16 10 25 21 10 8 5 4 2 7 22 25 22 45 49 35 23 26 95 107 63 57 72 88 106 119 135 131 141 153 165 146 183 173 192 191 188 194 198 193 191 201 202 201 197 195 197 187 200 197 181 194 173 165 185 181 196 186 183 181 195 185 178 184 175 171 175 169 163 160 128 129 120 123 101 66 80 62 59 60 95 107 105 95 11 9 12 12 16 23 21 14 12 15 26 15 9 6 4 2 5 3 12 32 27 28 51 48 31 15 97 112 91 60 63 72 89 119 123 122 134 138 157 174 166 189 175 186 185 188 192 188 196 188 195 190 191 190 192 195 186 173 198 177 186 177 204 182 185 197 184 200 174 192 195 189 162 193 163 143 176 149 150 127 121 120 106 55 63 58 69 84 112 130 123 103 5 9 13 19 22 26 17 12 12 12 12 10 9 5 3 6 3 3 13 27 32 24 41 44 45 40 104 105 112 71 64 69 91 94 114 125 140 148 180 155 164 169 199 182 184 184 193 201 193 196 192 186 185 179 194 184 168 173 177 159 189 186 200 169 179 180 180 176 182 192 172 199 158 159 178 169 136 135 155 120 109 80 84 74 45 55 71 92 114 136 131 107 2 11 13 20 25 20 8 6 6 6 6 8 13 10 6 5 1 3 17 24 33 23 37 43 52 51 108 137 116 106 78 48 55 97 114 107 145 112 135 144 162 174 171 181 185 163 185 179 177 186 187 185 168 177 186 191 181 183 186 179 170 199 193 174 179 167 177 162 181 179 185 169 200 144 187 159 146 122 134 127 97 84 94 81 56 75 93 112 115 131 132 119 1 10 20 19 20 6 5 3 3 4 2 9 16 10 5 2 4 21 17 23 35 27 28 36 47 50 111 139 136 121 66 73 67 45 87 118 133 129 150 152 156 160 174 172 145 168 170 167 178 180 177 157 177 182 179 169 183 170 157 158 179 186 180 187 181 159 160 169 185 136 177 150 180 178 159 159 147 132 121 98 95 71 58 46 65 94 104 119 131 141 138 120 1 8 13 7 7 5 6 3 2 3 2 8 13 8 7 7 6 3 10 16 29 32 25 38 34 35 103 145 143 142 93 102 89 103 54 114 110 129 132 151 140 144 174 160 126 153 175 183 184 158 178 160 132 158 182 161 165 162 159 165 157 192 181 185 176 129 154 176 185 138 161 166 181 157 143 148 142 131 96 103 106 67 101 74 82 100 119 131 139 140 141 123 0 3 7 5 2 2 1 2 3 4 2 4 12 8 7 5 4 3 6 15 23 43 26 31 25 22 95 141 146 150 124 107 89 77 112 96 106 118 148 143 143 182 150 140 159 155 168 160 168 144 156 157 147 139 157 164 176 144 164 160 162 180 158 163 137 163 147 157 190 132 139 150 195 158 154 138 155 118 104 88 82 79 62 87 96 112 139 147 149 146 145 126 0 3 2 4 3 3 1 1 3 2 2 2 13 9 7 4 4 3 1 6 11 43 19 18 15 9 80 148 157 157 142 105 116 82 95 101 100 107 135 128 130 163 151 125 140 151 146 145 137 133 163 124 148 147 138 156 182 162 156 149 160 165 140 154 131 142 147 155 177 136 151 147 178 132 148 149 102 106 66 66 71 67 83 92 112 134 145 150 148 147 146 125 0 3 3 7 5 0 3 2 3 2 1 1 13 10 11 7 6 3 7 2 3 16 12 10 3 0 134 151 155 161 154 142 135 116 91 71 101 107 127 146 137 152 126 129 111 121 146 139 143 137 142 156 119 160 133 148 156 142 143 146 125 130 146 140 127 110 141 137 150 153 160 156 164 149 110 116 121 102 61 69 61 87 91 110 133 140 145 148 146 149 144 131 0 3 3 7 2 3 2 2 1 2 3 2 15 14 11 8 7 5 6 1 4 6 7 4 6 73 197 147 161 159 156 147 141 127 109 64 85 119 98 119 127 119 148 94 101 120 149 95 113 126 149 139 142 135 149 130 145 132 144 143 135 126 114 130 127 111 155 119 141 136 132 165 119 111 155 87 98 85 70 62 64 85 96 123 134 143 146 146 148 150 148 130 1 3 3 3 1 3 3 3 3 4 3 3 17 13 14 12 9 4 6 4 3 2 7 2 0 205 220 146 163 164 162 150 143 132 123 94 68 91 98 120 102 100 128 107 118 93 110 138 108 145 116 125 137 129 120 130 155 131 124 148 114 154 120 108 130 118 130 116 119 102 128 136 110 111 110 106 94 73 66 69 80 90 114 137 137 140 148 149 149 149 146 134 9 0 1 4 3 3 3 3 3 1 2 2 17 16 15 12 10 9 5 6 4 2 2 5 22 230 224 149 159 165 162 158 162 143 140 102 78 71 108 105 114 95 107 94 113 127 109 122 88 111 118 109 106 138 106 114 153 119 146 135 93 120 104 139 120 109 126 115 99 137 134 130 87 89 89 74 91 84 71 71 84 94 127 138 143 143 147 149 152 153 147 134 53 28 0 3 3 3 3 0 3 3 2 1 17 17 15 15 12 11 9 5 6 3 2 7 138 242 222 151 157 165 166 160 162 156 143 119 104 108 82 98 106 92 93 107 91 110 99 102 94 97 100 114 101 115 140 110 126 141 103 102 117 108 120 122 129 140 125 93 126 119 117 120 100 78 69 96 88 62 67 82 107 117 129 141 142 146 148 148 152 151 146 142 58 63 20 4 3 1 3 3 3 3 3 3 16 17 18 16 14 11 12 9 6 5 9 42 194 241 223 150 161 165 165 161 158 154 153 139 114 113 90 88 76 99 76 89 85 82 104 103 102 119 93 84 88 80 93 118 130 78 86 70 96 133 138 118 127 105 99 95 85 118 96 59 104 75 63 73 97 79 75 103 135 138 139 134 143 146 146 146 150 151 148 154 129 64 70 14 2 2 1 3 3 3 3 3 18 16 16 16 16 15 10 7 6 7 48 72 224 241 226 150 161 164 167 163 162 160 153 148 135 122 99 93 75 69 88 82 74 96 43 84 94 88 82 79 77 90 114 83 51 71 93 92 74 110 120 113 128 125 89 87 76 80 77 87 73 66 82 83 75 74 85 117 137 138 139 141 147 146 146 149 152 150 144 146 194 60 76 74 10 2 2 2 3 3 3 3 18 16 16 17 15 14 13 10 3 48 87 88 235 241 227 155 162 164 166 163 165 166 162 158 144 118 107 96 73 86 74 77 84 86 84 96 100 79 79 84 107 66 84 84 77 84 97 79 86 103 79 116 93 82 89 97 85 79 79 62 82 98 83 84 75 79 103 118 134 134 140 142 146 146 146 151 153 149 148 146 219 57 76 78 68 9 2 2 2 2 2 3 17 17 17 17 16 13 12 12 33 90 104 143 233 243 223 154 163 163 165 164 166 165 169 162 155 135 114 98 89 86 72 76 75 64 85 64 89 75 92 57 87 89 83 86 59 79 94 73 87 121 112 85 128 83 91 68 70 56 69 84 99 91 92 89 89 101 121 130 135 135 141 146 144 145 148 155 153 148 148 148 221 88 72 78 81 66 7 0 0 0 2 3 16 18 17 16 17 17 16 17 66 96 88 183 235 244 222 162 164 165 164 165 167 167 162 165 155 149 135 116 98 93 100 80 77 92 62 68 75 68 52 78 70 75 81 59 53 72 85 75 78 87 93 108 87 67 58 62 61 75 89 93 103 106 102 98 93 117 133 135 136 139 143 142 146 148 152 152 151 150 150 164 223 128 72 79 83 81 75 15 1 4 1 3 18 17 17 17 18 18 13 46 83 107 90 209 232 245 225 170 164 170 166 171 170 166 167 166 164 155 141 129 116 102 96 90 70 69 85 72 60 81 47 44 65 67 54 56 53 52 79 55 82 79 68 92 56 86 80 76 79 87 91 97 102 105 103 111 110 119 136 140 136 141 142 143 143 150 145 146 150 151 148 180 225 154 70 78 87 85 85 78 26 1 5 5 19 18 18 18 17 17 29 78 93 110 86 219 231 246 233 179 168 169 169 170 170 170 169 170 166 160 154 145 134 122 104 88 84 81 73 64 46 66 46 38 70 64 58 49 65 76 54 89 63 48 66 36 48 60 75 72 84 88 96 101 104 112 114 117 118 127 135 137 141 142 141 143 144 147 143 149 149 149 151 189 224 168 61 74 80 84 85 84 77 51 7 5 19 17 18 18 18 25 71 84 100 103 110 220 228 245 243 185 175 171 169 171 167 167 171 167 163 166 162 158 149 136 126 114 96 95 76 76 74 71 52 61 72 64 55 54 58 69 57 56 59 39 44 55 64 67 71 76 79 92 100 115 123 128 126 130 137 143 141 142 146 147 145 147 148 146 148 150 149 152 149 197 225 177 59 73 87 85 86 91 85 81 67 18 18 19 16 17 18 63 84 91 108 100 138 219 225 242 241 201 184 176 174 176 171 171 169 166 167 163 166 158 158 147 139 126 104 99 95 82 82 82 68 70 54 51 50 47 54 34 46 36 29 45 44 53 57 65 88 89 91 114 119 129 137 133 139 139 141 140 139 140 145 139 142 146 149 146 150 152 152 152 138 205 227 202 37 75 81 86 89 90 90 81 81 72 21 18 18 22 57 79 86 94 107 103 147 223 226 240 245 223 184 181 178 178 174 175 172 171 168 168 169 164 165 158 155 136 124 109 99 95 89 84 81 74 63 59 53 48 53 44 45 51 44 60 57 63 81 94 98 105 115 122 133 131 134 145 144 136 144 143 143 144 146 144 142 147 146 147 151 148 151 151 144 211 227 214 65 66 78 75 80 78 79 75 77 76