P2
# Generated by OpenCV 4.2.0
92 112
255
69 79 82 80 74 81 128 136 129 140 165 181 192 196 198 203 214 218 219 218 220 222 221 222 225 228 229 228 228 229 231 232 232 234 236 235 235 236 234 233 232 234 234 235 233 232 234 234 232 232 232 231 231 231 230 229 228 229 228 225 224 223 218 214 212 211 206 203 198 193 188 182 166 101 81 76 58 51 50 54 72 58 60 60 61 92 113 121 87 81 70 84 77 77 73 67 68 87 130 120 122 143 161 177 191 197 200 203 211 218 221 221 221 222 222 225 226 228 228 228 228 231 231 232 232 233 234 235 235 236 236 234 233 235 232 234 234 233 233 234 234 234 232 231 231 231 231 230 229 231 229 228 227 223 219 217 215 213 209 206 200 195 192 185 179 128 82 81 65 50 45 44 63 63 51 61 62 71 111 125 107 58 70 69 69 71 68 65 71 95 122 110 118 135 156 178 187 196 202 202 211 219 220 220 222 222 221 224 226 228 228 229 228 231 232 232 232 232 234 234 236 235 236 235 235 236 235 234 234 234 233 233 233 232 232 232 232 231 231 232 230 230 231 230 227 226 222 216 219 217 213 207 203 196 192 189 184 164 94 81 74 55 42 44 53 77 55 50 63 62 86 114 128 59 60 72 65 64 60 73 68 104 108 105 116 141 166 181 189 199 201 204 212 219 219 222 222 223 222 225 227 226 229 228 229 230 231 232 234 234 235 235 236 235 233 232 236 235 236 235 234 235 235 235 233 233 232 232 231 230 230 230 232 232 231 230 228 225 222 221 218 217 215 211 204 199 191 188 184 182 134 78 82 66 44 40 36 58 68 51 56 73 68 90 132 95 43 68 63 63 69 67 75 101 92 104 121 146 168 182 192 200 202 205 213 217 217 221 223 224 224 225 226 225 225 227 228 229 232 234 234 234 234 234 235 235 235 235 236 235 235 236 234 235 235 235 234 234 234 234 232 232 232 229 231 232 231 230 229 227 225 225 220 220 218 213 208 201 192 189 186 185 175 99 80 75 51 39 33 33 67 61 51 61 71 70 96 105 56 50 60 71 77 61 69 87 94 110 126 152 171 184 191 198 204 205 213 217 220 219 221 223 223 224 225 225 227 228 227 229 234 232 231 234 235 235 236 234 235 235 234 235 235 236 234 233 234 236 236 234 235 234 232 232 233 231 230 231 231 231 229 228 227 222 221 221 219 214 210 204 197 192 191 187 188 156 86 78 60 41 42 28 42 72 60 57 64 74 71 75 66 41 74 84 66 54 73 88 94 104 133 152 169 183 193 201 205 205 212 217 221 218 219 221 221 222 222 225 227 228 228 230 232 230 230 233 234 236 236 236 235 236 236 235 234 234 235 236 236 235 235 235 235 232 231 230 232 232 232 230 231 232 229 228 226 221 220 221 219 215 211 206 205 201 195 192 188 190 134 72 69 53 46 39 26 57 71 59 58 65 69 65 65 55 70 63 61 58 76 89 101 116 131 153 174 186 193 202 204 205 213 220 220 220 220 221 221 224 225 225 227 228 228 231 232 232 233 235 235 237 236 236 237 237 237 235 236 236 235 237 237 236 235 235 236 232 233 230 229 232 232 231 229 231 230 228 227 225 223 223 219 213 211 208 208 203 201 197 194 191 182 105 65 64 43 40 26 31 66 70 66 81 86 75 70 67 64 63 61 56 79 96 100 102 130 157 173 187 194 202 202 206 213 217 217 220 222 221 222 224 224 226 228 228 228 230 232 232 235 237 235 237 237 240 238 238 237 236 239 240 237 239 239 238 236 233 234 232 231 232 232 230 231 231 231 231 229 228 226 224 222 220 218 214 209 212 209 206 206 202 198 192 190 160 74 57 51 42 38 21 36 70 76 87 110 101 75 47 61 63 60 60 85 95 79 92 126 151 173 188 195 202 203 207 211 215 215 218 223 222 221 222 223 228 227 228 228 230 232 232 234 236 236 237 236 237 238 240 240 240 237 239 236 237 240 239 236 236 234 232 232 231 233 231 230 233 232 231 228 228 225 222 220 219 219 216 213 211 210 211 210 206 202 198 192 172 129 55 52 50 44 33 17 52 69 76 97 112 99 53 79 75 61 66 90 76 74 97 129 160 184 193 193 202 205 208 214 215 215 220 223 221 220 224 227 226 228 228 228 230 233 232 234 234 235 236 236 237 239 238 238 238 237 236 235 237 238 237 233 236 233 233 231 230 230 231 232 231 230 230 229 228 226 224 218 220 220 217 216 216 213 212 210 207 205 201 193 171 147 118 53 47 45 38 25 26 61 78 87 95 100 58 82 64 49 77 93 69 84 101 141 168 186 193 196 202 206 208 213 216 217 221 224 223 221 225 226 227 228 228 229 229 233 232 233 235 236 236 236 236 238 240 240 240 238 235 237 237 239 240 238 237 234 233 232 233 230 232 233 229 229 228 229 226 223 223 220 221 220 218 217 214 214 213 210 207 204 202 194 172 149 143 93 43 43 39 32 27 44 70 86 96 92 68 63 51 50 78 94 89 85 111 147 176 188 194 194 204 206 205 211 218 219 221 225 225 224 226 225 228 229 231 233 228 229 233 235 234 236 238 237 236 238 240 239 237 236 236 239 237 238 238 236 237 236 232 232 232 232 232 231 230 229 228 228 228 225 223 224 222 221 220 219 216 215 214 211 209 208 203 191 173 153 140 127 71 38 42 36 27 40 56 74 95 96 68 61 54 54 91 106 105 88 113 152 176 187 194 197 204 206 205 208 219 221 222 225 226 226 227 227 228 230 232 235 231 228 233 234 235 237 236 238 236 236 236 239 237 237 234 235 238 238 240 236 236 236 234 232 232 231 231 232 231 230 229 229 227 225 224 223 223 221 220 220 217 215 213 213 211 209 206 193 172 156 143 128 97 53 39 36 28 46 58 57 78 90 70 95 87 84 92 111 98 82 117 157 178 186 192 197 202 205 205 209 219 221 224 226 225 227 227 227 229 227 232 234 234 232 233 234 235 235 237 236 237 235 237 239 237 237 235 235 238 238 239 238 236 236 235 234 233 230 228 231 232 230 226 228 226 223 223 223 222 220 218 219 215 215 212 212 213 208 207 193 173 158 145 134 105 67 38 41 30 35 54 58 59 77 72 110 85 69 82 118 81 70 123 157 175 182 191 195 200 203 203 208 214 220 223 225 225 225 226 228 228 230 232 234 235 235 235 235 234 235 235 235 235 235 236 236 237 235 236 238 239 239 237 236 234 234 235 234 233 232 230 230 230 230 227 226 227 225 226 227 225 223 218 217 219 215 213 213 211 209 206 190 171 160 147 134 118 80 53 41 40 34 48 69 55 59 68 66 55 53 66 120 75 79 129 156 172 176 186 191 196 198 201 205 211 220 223 225 224 225 227 228 230 231 231 234 235 237 236 237 236 236 235 235 235 235 236 237 234 237 237 237 237 238 238 237 235 234 235 234 234 233 231 231 230 229 228 229 228 230 228 226 225 225 222 219 218 215 213 215 211 207 203 188 170 161 148 134 124 93 60 37 38 34 53 63 62 56 57 62 52 44 62 108 77 85 131 157 171 174 184 194 196 199 202 204 214 221 225 225 223 225 226 228 228 230 231 234 235 235 236 236 236 236 235 236 235 235 234 235 235 235 237 238 238 238 239 236 236 233 234 235 235 232 232 231 230 231 230 228 227 228 228 225 222 223 221 219 218 213 213 214 211 206 197 184 167 160 148 142 123 101 67 42 35 34 39 60 63 64 56 45 35 47 65 91 73 86 135 158 170 175 181 193 197 196 200 207 216 220 222 224 223 227 229 228 228 229 231 232 235 235 236 237 237 238 238 236 235 235 234 235 236 237 237 238 240 237 237 237 236 235 235 237 236 235 233 231 232 231 232 230 229 229 227 224 220 221 220 218 217 215 215 212 207 203 192 177 167 163 149 148 127 101 81 52 41 38 39 58 58 64 58 68 74 64 61 93 85 87 134 157 168 174 178 190 192 197 205 211 217 218 221 223 222 224 225 227 228 228 230 230 234 236 237 238 237 238 238 239 237 235 235 236 238 237 236 236 237 236 237 237 237 239 237 236 236 236 234 232 232 231 231 230 230 230 228 226 222 222 222 219 216 215 216 212 203 198 186 172 168 167 156 151 130 101 93 62 45 50 45 52 53 58 60 111 98 78 59 75 111 98 131 156 168 171 178 191 195 198 207 216 220 219 216 209 211 213 217 222 224 224 228 230 231 234 236 237 239 239 240 241 239 237 238 239 238 237 238 238 236 239 238 239 239 238 238 236 236 237 235 234 232 233 232 231 230 228 226 226 223 222 221 220 216 215 213 210 202 193 183 174 172 167 160 147 125 100 95 75 58 64 54 48 52 54 56 96 71 61 36 58 89 120 134 157 167 173 172 186 193 191 193 198 201 205 199 195 190 191 197 201 205 208 217 225 227 230 233 235 238 239 241 241 242 240 239 241 239 235 237 238 238 237 238 240 237 239 239 237 237 238 238 236 232 232 231 230 230 229 224 221 220 220 221 218 214 215 215 208 201 192 179 175 171 165 152 145 123 101 84 85 69 102 71 43 47 52 59 43 44 23 19 54 70 96 139 157 158 165 166 172 171 175 171 174 172 171 183 182 180 175 177 189 194 187 191 200 214 220 216 223 231 237 239 241 242 240 238 239 237 235 236 239 238 238 239 240 235 239 240 239 237 238 238 236 232 232 231 229 229 228 225 222 220 219 221 219 216 216 215 208 201 192 177 172 169 164 150 153 120 100 92 80 74 118 88 40 46 48 53 33 55 51 23 52 75 91 128 156 158 165 170 159 150 159 162 159 165 152 147 154 167 166 152 157 165 175 173 176 190 202 200 199 222 228 234 239 238 240 237 236 237 239 239 239 238 238 240 238 238 239 237 237 235 236 237 234 232 233 229 228 228 225 223 222 220 220 219 215 216 213 210 209 206 196 175 171 170 161 149 147 108 105 92 83 97 107 84 40 43 48 51 44 49 58 46 54 69 103 131 153 161 161 163 163 163 165 171 175 171 173 169 160 155 158 153 133 141 143 158 161 169 182 193 184 197 214 223 232 231 236 235 236 235 238 239 238 237 236 241 237 237 237 235 237 235 234 235 231 229 227 224 225 224 220 215 213 212 209 205 199 201 198 194 198 202 197 182 175 171 159 146 137 106 102 93 82 105 101 84 32 45 46 46 59 63 64 59 62 80 100 131 153 161 163 166 168 165 172 178 182 188 188 190 191 188 182 181 169 140 145 141 140 135 149 166 172 184 191 204 217 219 225 229 231 233 236 235 234 236 235 236 235 235 235 233 233 231 232 228 217 218 217 206 191 191 191 190 187 191 183 174 177 176 176 175 179 180 182 183 175 164 155 147 129 106 102 99 95 92 101 79 22 40 43 42 63 61 62 59 57 85 104 144 158 161 165 169 175 165 165 187 186 185 188 191 192 191 187 190 188 181 171 153 138 125 139 154 167 178 189 191 196 213 214 221 226 227 233 234 232 233 233 231 230 230 230 230 229 228 225 212 207 213 203 174 168 173 168 159 156 146 146 148 149 153 154 151 148 154 163 158 156 160 154 136 120 106 103 106 103 101 95 51 25 37 37 40 46 48 60 60 58 75 114 151 162 163 170 173 175 170 166 182 186 184 185 184 185 187 187 188 190 190 183 185 175 161 159 164 170 172 188 182 187 214 214 215 221 221 226 228 230 228 227 229 225 226 226 226 224 221 217 207 202 201 187 179 171 152 149 137 126 124 122 110 117 128 135 133 134 120 121 124 130 137 142 126 121 110 104 104 105 92 86 21 31 35 35 36 119 82 62 55 62 85 135 143 162 170 172 177 173 173 166 171 175 176 179 184 188 190 192 197 196 195 189 190 191 181 176 176 178 176 181 183 186 206 209 210 215 218 218 222 224 221 223 222 221 218 220 221 219 215 212 207 196 190 181 168 142 129 134 114 124 134 125 133 141 156 164 160 142 125 129 139 135 124 120 126 122 109 103 107 109 105 36 14 28 37 37 35 168 133 136 83 64 109 138 153 166 173 174 178 173 174 171 163 162 170 178 185 192 197 200 205 208 207 206 205 204 197 187 180 178 175 178 184 187 198 204 207 208 210 212 216 218 219 218 220 219 215 214 215 214 210 208 200 184 179 178 156 144 152 151 148 162 168 178 184 182 183 185 180 174 167 168 164 144 122 121 125 122 112 109 114 117 76 24 30 27 32 38 39 189 134 166 150 101 102 140 164 173 175 176 183 180 176 181 174 169 174 177 174 170 176 180 181 187 191 195 196 202 204 206 197 185 175 172 173 179 187 193 198 204 205 209 210 215 216 216 217 214 212 207 206 204 203 196 189 182 184 173 169 174 176 176 183 190 190 194 190 188 189 186 185 182 178 179 170 148 132 130 124 120 111 113 113 107 48 29 39 34 25 36 37 197 139 172 183 117 109 152 156 174 176 179 183 180 177 182 179 175 171 159 161 182 197 204 198 200 210 206 199 185 177 182 194 197 192 179 166 164 166 176 186 195 200 204 206 209 216 216 214 209 205 205 200 194 192 182 178 177 172 172 175 182 187 194 197 200 200 201 196 196 196 190 187 181 178 173 170 146 129 133 134 119 112 121 110 89 46 27 37 45 33 35 40 209 145 174 181 128 121 157 154 171 177 182 185 177 176 176 174 172 166 176 190 190 188 183 178 171 168 185 196 196 194 171 158 175 191 192 188 177 167 162 169 181 190 199 201 210 214 216 211 205 201 197 188 182 174 169 165 169 172 178 187 194 191 186 186 181 185 187 189 184 189 191 189 185 179 169 160 135 131 141 141 117 118 121 110 100 48 28 28 42 50 31 36 209 146 181 176 122 124 167 159 177 178 184 184 181 179 175 172 178 171 158 151 137 146 157 146 113 120 133 104 97 136 163 167 152 164 189 196 188 181 173 159 162 176 195 207 217 224 226 215 205 199 183 171 167 163 166 173 180 184 184 180 171 174 180 188 191 195 195 186 175 171 159 163 173 172 168 155 133 136 142 145 123 123 122 105 108 48 33 31 38 43 38 32 189 165 173 127 96 125 150 167 177 179 185 189 187 181 180 174 170 157 130 118 142 189 203 153 116 124 138 94 84 97 119 145 163 152 166 179 179 182 182 179 171 168 188 210 221 231 232 221 208 198 175 160 162 169 175 180 181 184 168 162 181 193 201 198 191 193 185 184 186 184 180 155 137 156 168 161 145 143 145 146 126 126 126 105 116 46 25 39 34 48 47 35 119 119 104 118 114 127 138 159 177 181 186 192 191 190 191 189 191 186 184 174 184 203 213 162 113 141 89 72 140 130 169 178 152 150 159 167 174 179 186 185 186 177 186 207 224 231 231 223 215 194 165 161 170 173 177 176 177 169 169 180 178 168 145 126 124 98 105 111 104 130 165 168 156 148 167 164 149 141 148 148 132 128 123 112 125 44 19 40 45 51 46 36 61 108 148 150 132 125 142 166 179 177 186 190 194 199 199 197 192 188 193 196 193 199 212 198 114 140 149 150 153 143 212 219 189 146 145 164 195 213 216 209 200 191 187 209 227 232 232 226 216 188 165 175 180 177 173 171 171 168 163 158 165 183 124 119 151 106 78 127 89 119 109 117 142 160 173 163 148 137 150 152 137 127 122 109 127 49 21 29 47 46 49 43 44 159 206 177 141 117 142 170 178 176 186 194 201 204 203 204 197 189 187 195 195 194 197 214 186 131 141 163 136 177 200 185 180 182 185 180 207 231 231 218 206 196 197 213 228 233 233 229 218 188 174 185 203 211 201 185 172 158 169 189 219 227 161 140 113 66 111 126 98 170 137 87 98 138 157 149 137 141 155 153 137 126 130 112 125 46 27 27 44 56 50 53 46 157 219 214 147 113 156 175 179 179 185 196 207 208 208 207 205 198 184 182 196 199 200 189 196 198 205 212 196 209 198 192 194 206 219 223 223 226 220 214 203 200 203 216 228 232 232 229 220 194 177 194 219 232 216 176 167 172 183 202 216 233 192 135 147 139 150 108 126 184 171 153 118 136 157 149 147 156 156 158 141 128 125 126 126 44 31 33 41 61 61 59 100 152 220 168 125 129 148 172 177 178 189 199 209 213 214 213 209 208 201 184 181 184 191 201 201 203 199 209 196 205 204 196 200 209 219 220 223 225 216 210 204 202 205 216 227 232 231 227 222 204 183 192 217 224 222 217 208 198 195 189 193 210 214 154 167 151 127 126 190 187 172 162 161 171 177 174 171 168 165 163 147 133 124 124 130 40 32 33 35 50 70 65 107 146 163 127 153 143 143 173 176 179 192 202 213 216 215 214 212 212 212 203 187 180 180 187 190 194 194 196 192 192 195 202 212 216 219 221 227 222 214 207 208 206 207 217 225 231 232 226 222 209 192 187 207 223 223 222 225 217 211 199 206 207 210 212 205 187 173 175 179 173 169 170 176 178 185 184 183 177 171 165 147 132 135 133 122 46 36 54 39 40 78 73 105 111 137 174 198 161 151 171 177 180 190 201 213 218 218 218 213 212 210 209 208 198 188 185 186 184 184 185 190 192 201 212 216 218 220 225 226 219 214 213 211 204 208 217 227 229 229 225 220 208 193 186 195 218 227 222 217 216 205 193 200 207 210 206 199 210 199 179 181 185 180 172 172 187 198 190 187 183 175 164 145 133 126 128 108 52 53 65 62 45 61 66 94 102 176 202 190 163 145 158 172 178 193 204 211 218 220 221 218 217 214 210 210 209 207 201 198 199 200 202 207 211 213 215 221 223 229 228 223 217 216 216 209 204 207 213 225 229 230 227 221 208 193 188 193 201 222 230 221 217 212 205 195 191 193 194 195 197 196 190 185 180 175 172 184 190 194 189 189 188 183 168 150 139 128 111 84 54 75 97 80 49 43 57 79 89 173 206 176 157 151 158 176 177 190 204 214 220 220 224 221 218 216 214 213 214 217 215 214 216 217 220 219 218 221 222 223 228 230 227 223 218 215 215 213 208 206 211 224 230 231 223 220 207 194 185 191 199 212 226 232 221 217 217 213 204 191 180 174 172 173 175 173 173 177 187 193 191 193 198 197 193 184 173 152 139 136 120 79 51 62 103 103 65 52 59 74 96 151 178 191 192 164 149 168 178 187 199 211 217 218 223 226 225 223 221 220 219 219 220 221 220 218 217 218 219 222 228 232 229 228 225 219 216 215 216 213 207 205 210 224 231 230 225 219 207 193 185 189 197 204 215 230 231 225 219 213 211 208 205 199 192 189 188 189 192 196 202 198 194 196 201 203 197 186 174 153 137 141 117 74 65 63 73 108 93 56 64 77 108 169 172 205 209 162 139 162 176 184 197 208 213 217 223 227 229 227 226 225 223 218 219 221 217 219 219 222 226 227 228 232 227 225 223 219 214 216 214 209 206 206 213 223 230 232 229 220 208 190 184 189 196 203 207 219 228 232 224 219 215 210 209 203 205 203 198 198 198 199 201 197 195 200 202 204 200 186 173 155 143 139 113 73 72 76 62 77 76 59 71 92 111 163 181 198 203 160 137 154 169 182 198 205 211 215 221 228 228 228 228 227 228 225 224 224 225 227 227 228 229 230 229 228 227 225 221 219 217 213 211 206 204 206 215 224 231 232 230 220 204 188 183 188 191 199 205 214 221 227 229 225 221 217 214 213 212 212 211 210 209 210 211 208 205 205 204 202 198 185 171 156 144 134 101 67 77 81 72 75 76 62 73 83 119 154 191 197 193 171 135 151 168 179 193 200 208 212 218 226 227 227 229 230 230 230 231 232 231 231 229 228 232 230 230 228 226 223 220 215 213 209 209 207 204 209 216 226 230 231 228 220 205 190 185 187 191 193 201 213 220 221 227 226 225 222 222 220 220 222 222 221 218 216 215 215 212 210 206 200 193 183 168 152 147 132 99 64 71 91 94 88 72 75 67 78 105 147 209 206 195 175 129 137 163 174 188 196 204 210 216 221 226 226 227 231 232 229 231 232 232 231 232 231 230 230 231 227 227 223 217 212 207 205 205 205 205 212 219 226 231 231 227 219 208 196 189 189 190 193 195 210 217 219 225 226 227 226 225 224 224 225 224 224 223 221 220 218 215 210 208 200 188 181 163 150 152 120 90 64 91 128 100 86 74 74 91 72 99 146 214 210 206 160 114 127 162 166 184 194 201 209 214 217 222 226 228 229 230 231 232 231 232 232 233 231 231 230 228 226 225 221 215 210 207 206 204 202 208 214 217 225 229 229 226 221 211 198 189 191 192 195 194 203 212 214 220 226 229 229 228 229 229 229 225 219 222 221 219 219 216 210 205 199 186 175 160 152 150 119 85 65 91 129 110 95 88 86 99 56 91 130 211 212 211 166 125 134 167 164 176 191 201 210 215 221 223 225 227 230 231 232 232 231 232 231 233 231 231 232 230 227 222 216 213 211 205 205 202 201 209 211 217 224 227 228 226 220 215 203 192 189 191 190 194 201 208 214 220 226 229 230 229 230 229 230 228 216 215 222 220 217 215 209 206 199 185 167 152 147 141 123 77 90 124 97 124 114 54 77 113 76 96 96 191 216 210 176 135 133 171 165 171 185 198 208 218 224 224 226 227 230 232 231 232 232 232 233 232 231 232 231 228 225 220 214 213 209 204 202 201 203 209 213 221 227 226 226 223 221 218 207 193 187 191 189 194 202 207 214 218 223 229 230 230 232 230 230 228 223 218 219 221 218 215 211 207 199 185 167 150 146 131 110 85 106 161 99 107 105 31 59 99 83 100 69 161 216 192 165 136 136 175 164 166 180 193 202 214 221 223 226 227 228 232 232 232 233 232 233 233 232 230 227 225 227 220 215 213 205 203 204 203 205 211 216 220 226 228 226 220 224 221 211 199 189 195 192 194 201 209 212 214 218 227 231 231 230 231 231 229 227 224 221 219 218 219 216 208 200 187 167 149 147 133 107 90 111 170 136 102 86 35 53 81 89 85 49 104 210 187 156 128 144 171 168 162 173 186 202 214 219 222 225 228 229 230 230 232 232 232 232 233 232 228 226 224 221 217 213 208 202 208 208 204 206 211 217 222 227 229 226 225 223 221 212 203 192 195 200 196 199 210 215 215 218 221 227 230 230 233 231 228 227 224 220 219 218 216 214 210 202 186 165 152 143 134 118 99 119 171 175 123 76 55 53 86 81 75 59 43 132 174 155 118 141 162 170 159 164 180 196 208 216 219 220 222 225 229 228 230 230 231 232 232 231 221 223 222 215 214 212 203 207 213 207 205 206 213 215 221 229 231 229 228 222 220 215 206 192 191 204 200 197 207 213 212 217 222 227 230 232 231 232 230 228 223 219 219 217 213 210 210 202 189 166 147 144 133 107 96 128 180 191 147 63 65 60 69 69 72 75 49 49 119 136 121 139 161 174 164 160 175 191 202 214 219 221 222 225 227 224 227 228 228 229 227 227 222 220 218 217 213 207 200 207 209 205 205 207 213 213 220 231 235 230 232 226 217 216 207 191 187 197 199 195 200 206 209 212 216 225 230 233 231 231 229 227 224 222 218 214 213 207 205 201 189 166 144 141 132 108 101 111 177 196 151 49 57 58 67 87 71 73 63 57 68 87 122 133 166 177 169 160 169 187 199 211 219 219 219 222 224 222 224 226 226 229 226 226 223 218 214 212 213 208 201 204 203 205 203 200 206 212 219 226 230 228 233 225 214 210 199 181 179 187 194 192 192 202 208 209 216 220 222 224 227 229 226 223 220 218 216 216 212 206 202 197 184 165 147 140 122 119 106 118 169 189 104 32 52 54 74 68 78 78 69 49 64 72 112 134 157 179 173 163 161 183 199 203 208 212 216 218 220 219 220 221 225 225 224 219 217 215 213 214 214 207 196 202 200 197 191 185 189 200 208 214 209 213 219 215 206 197 176 168 170 177 185 187 188 202 206 210 213 213 216 222 222 225 222 221 218 215 213 213 210 204 200 192 183 155 138 144 118 111 96 113 158 159 46 36 49 56 69 53 64 74 72 52 64 78 113 123 153 165 172 169 161 175 191 203 205 207 214 216 217 218 219 218 218 219 220 214 211 213 213 216 219 210 189 191 186 174 164 164 172 176 183 192 193 199 207 205 190 174 165 158 163 172 176 178 182 202 207 206 204 207 211 216 219 218 216 217 215 210 208 206 204 199 193 185 176 151 134 142 112 94 100 111 156 71 15 45 59 63 61 84 70 85 83 61 57 89 117 123 147 159 173 173 160 168 185 199 205 204 208 213 215 216 216 215 215 217 216 213 212 212 215 217 220 216 184 170 160 135 118 99 95 135 164 166 174 187 186 180 169 135 103 93 116 149 165 162 175 204 202 203 201 202 206 213 216 214 210 209 209 206 202 204 200 190 185 179 164 141 135 141 109 99 89 89 71 25 39 46 61 67 67 95 95 97 82 71 71 104 112 110 138 162 169 177 163 160 177 191 198 200 205 208 210 213 207 207 213 208 210 214 213 216 219 217 218 221 201 167 158 163 174 179 126 89 113 147 156 165 163 152 112 83 115 131 124 130 141 146 188 202 198 199 197 194 190 197 200 204 204 205 202 202 200 194 189 184 177 166 153 135 135 147 109 91 86 64 32 55 58 58 76 76 72 83 84 100 92 79 79 83 95 106 136 152 168 178 170 157 170 182 193 199 202 204 210 212 211 210 208 205 208 212 214 218 217 218 219 219 220 200 174 174 178 191 207 186 136 118 135 133 133 119 116 165 189 171 159 161 158 188 204 199 198 199 198 195 183 172 180 197 200 203 203 201 195 186 182 176 165 151 138 128 135 144 114 87 97 77 44 67 77 48 73 81 70 83 83 83 79 82 76 83 92 93 118 146 166 175 174 160 166 176 187 196 199 204 208 205 205 202 200 209 213 213 216 217 218 219 219 220 218 219 211 199 192 195 197 195 190 168 142 130 134 154 179 184 183 180 190 200 205 206 206 203 201 199 197 196 191 179 163 173 195 198 200 198 190 184 176 164 150 136 130 127 139 137 98 81 91 70 39 64 86 49 85 90 71 64 68 76 65 69 63 78 79 85 95 141 162 171 173 161 159 170 181 193 198 205 205 204 199 199 208 214 216 218 218 217 218 220 219 220 219 218 217 211 204 204 207 214 219 216 192 175 186 195 199 198 192 198 195 187 191 197 202 197 195 198 196 202 200 196 188 170 158 172 184 184 187 185 172 153 136 131 136 131 139 124 97 72 79 72 48 54 81 69 104 94 75 35 41 57 60 58 57 65 70 83 94 130 158 168 176 164 157 166 177 186 197 201 197 199 202 210 216 214 219 219 217 216 215 218 212 213 219 217 215 205 196 200 206 205 205 220 210 201 208 202 185 185 186 188 187 183 178 185 187 190 193 199 198 201 196 193 201 201 187 166 166 186 197 181 170 147 129 144 141 136 143 121 103 85 82 77 47 56 64 102 115 87 74 31 35 40 58 61 53 45 45 92 94 126 151 170 178 171 161 168 170 185 193 199 192 196 210 208 204 209 215 212 210 214 211 209 210 214 215 207 203 198 185 192 201 196 203 204 186 193 201 198 184 184 194 187 178 180 177 176 174 182 188 186 193 190 185 181 190 194 198 182 150 143 162 165 160 139 142 160 153 140 144 125 103 78 83 73 35 57 67 124 113 87 61 39 41 29 28 39 45 52 56 94 110 115 147 169 176 177 167 171 167 179 192 197 194 203 202 196 198 203 203 203 206 208 211 207 210 209 206 199 200 191 196 195 196 202 202 188 189 195 201 195 190 186 191 188 183 184 179 181 179 181 184 169 185 190 191 180 176 181 191 185 173 147 154 160 157 139 158 169 162 144 143 120 101 88 86 75 44 51 104 140 109 74 65 29 43 37 21 13 12 27 32 82 111 107 146 166 179 180 170 175 173 171 188 195 195 196 190 197 197 203 198 196 200 207 206 201 202 200 194 196 195 195 203 199 204 201 193 189 188 196 203 201 192 190 197 188 192 184 182 187 181 183 182 175 187 193 187 192 174 172 171 177 178 165 162 181 174 150 168 175 157 149 145 117 101 91 88 77 62 67 130 146 99 70 78 26 35 33 19 14 15 30 24 71 104 123 147 161 174 179 176 175 176 168 185 191 196 202 197 189 192 194 192 198 204 206 213 207 197 193 190 190 197 206 205 206 208 201 192 193 197 205 206 205 200 202 203 196 191 188 188 190 179 190 185 189 190 190 183 174 167 154 159 168 176 174 178 191 179 155 177 179 150 140 137 107 95 80 76 76 55 85 127 137 95 67 75 21 31 39 24 19 18 14 15 58 99 125 152 162 174 176 178 177 179 170 180 190 193 197 192 190 188 180 185 193 193 205 211 203 201 202 191 188 192 193 203 196 199 200 204 198 201 209 208 207 205 203 193 198 182 182 184 177 165 172 179 183 177 170 178 150 139 142 147 155 163 172 185 190 168 159 187 181 152 144 134 104 89 83 73 62 75 88 105 118 83 65 84 23 26 43 28 16 12 19 18 55 105 126 145 163 172 176 182 181 186 178 172 189 185 184 177 184 167 164 174 176 174 184 194 199 202 203 186 179 182 174 195 188 183 200 215 212 214 224 221 214 194 189 171 161 159 172 160 148 157 158 149 155 141 137 131 121 126 156 160 148 156 151 182 189 156 174 191 175 148 149 133 102 92 89 60 46 70 119 89 97 73 85 87 14 20 35 29 14 7 22 27 41 92 125 141 161 167 176 175 183 187 183 168 177 164 160 155 173 167 173 162 152 133 151 165 167 165 162 159 146 156 161 159 151 154 163 174 180 185 195 195 172 155 155 155 160 168 174 159 154 160 150 139 125 104 105 126 164 181 182 161 159 174 151 181 192 159 190 191 165 145 151 126 95 85 73 64 40 56 108 108 80 78 80 80 12 22 26 26 19 17 20 27 48 83 109 131 154 166 174 178 184 182 188 173 166 168 154 169 185 165 165 158 138 121 98 121 134 148 151 154 158 156 165 165 168 173 170 160 154 153 163 146 146 147 147 168 163 150 140 135 132 132 118 107 112 126 162 194 206 215 185 167 178 193 183 189 177 175 194 186 156 146 134 108 88 86 75 60 45 58 68 105 82 89 99 94 5 18 18 28 25 24 24 30 28 63 94 114 157 168 177 185 180 180 189 181 170 180 192 196 179 174 182 194 191 189 160 124 130 126 128 130 130 130 138 147 157 162 161 160 154 154 155 145 149 145 143 143 133 133 135 135 136 134 137 142 166 180 193 200 201 202 193 187 204 207 183 176 166 194 196 174 146 136 114 87 72 79 72 52 49 61 71 90 108 109 103 73 9 19 17 19 20 20 18 5 19 56 92 105 148 165 176 174 174 188 191 189 169 178 195 200 193 202 206 206 208 206 203 187 160 153 150 146 145 144 142 140 149 147 145 145 152 154 147 152 161 159 163 169 170 175 174 174 178 171 163 161 170 187 194 197 199 200 201 203 211 202 181 165 167 191 191 158 135 134 102 78 80 72 67 61 59 74 88 98 108 82 66 74 9 14 12 20 19 22 24 7 15 46 72 99 134 158 163 172 181 187 192 192 177 169 190 209 218 213 210 214 212 210 207 203 191 180 169 171 182 185 185 192 198 195 198 193 193 195 191 202 205 198 193 191 185 179 180 178 169 166 165 176 186 188 191 199 204 198 205 209 201 189 173 161 188 185 178 142 144 131 84 92 87 63 57 62 57 70 88 99 74 70 82 76 11 10 12 24 25 24 26 13 10 26 52 87 132 144 145 171 178 184 192 190 183 160 183 204 217 216 212 214 215 212 209 210 202 191 183 175 171 177 172 186 201 203 212 211 213 213 209 215 214 205 197 191 179 179 179 181 183 187 183 185 188 188 190 199 203 200 212 208 196 183 156 173 198 184 160 143 142 113 89 90 81 65 59 58 61 81 92 79 66 71 66 51 23 15 12 8 11 12 23 23 25 34 43 68 127 138 156 163 179 182 189 189 193 172 172 198 211 217 217 217 218 216 217 210 207 202 198 188 186 189 183 184 188 186 197 202 203 211 210 209 208 210 199 193 192 198 196 194 192 188 189 191 190 190 194 198 202 205 210 204 188 169 159 191 188 175 152 146 120 99 92 59 63 63 60 63 72 66 46 36 39 39 26 29 39 26 11 6 7 11 13 18 29 40 39 60 104 116 138 153 177 180 188 191 193 182 164 186 204 208 215 218 218 219 220 214 209 207 209 204 200 197 195 198 201 199 205 206 208 210 208 208 206 206 203 205 204 201 198 191 189 194 192 186 188 196 198 201 201 205 205 195 181 155 172 191 178 162 153 139 104 76 80 60 54 58 57 58 45 33 25 27 35 36 26 32 55 28 11 6 7 7 12 24 24 36 53 45 71 104 116 138 160 177 185 193 193 183 172 166 190 205 209 212 217 218 217 216 213 208 213 209 208 206 203 202 199 201 204 202 203 205 202 206 207 201 203 204 201 202 202 205 203 201 195 188 193 199 200 201 199 201 197 191 170 164 188 186 172 152 160 136 83 76 73 59 46 45 39 37 36 32 34 38 39 38 37 26 49 32 18 12 9 13 14 21 30 33 49 48 61 77 88 107 145 165 176 186 191 188 182 172 179 197 201 206 214 216 218 219 217 213 214 212 210 212 210 209 208 208 207 208 206 204 204 207 208 207 213 212 211 220 215 210 204 189 187 193 199 198 199 203 201 195 186 177 168 175 184 178 160 148 148 123 76 82 70 66 45 39 36 38 50 48 47 42 43 38 25 16 59 42 19 13 12 15 6 8 31 31 28 42 45 64 73 84 121 157 177 185 190 192 184 174 174 188 197 206 212 215 217 219 218 216 213 212 211 212 211 213 217 215 215 214 209 215 216 215 214 215 217 226 218 224 216 210 201 192 195 194 198 201 201 202 196 193 186 170 171 184 180 170 155 141 133 92 71 73 72 62 46 35 37 49 44 38 36 30 39 13 9 18 60 49 31 18 13 9 8 5 28 34 33 30 42 65 71 89 103 126 158 176 183 183 181 175 181 188 191 199 207 209 214 215 215 214 213 211 211 213 212 213 215 214 212 215 210 211 210 221 214 213 209 221 215 202 204 198 194 200 198 198 205 205 204 205 199 192 194 172 166 183 179 170 148 130 116 79 73 64 72 49 40 29 30 37 21 26 23 31 29 1 12 14 71 57 39 19 8 8 8 14 27 37 33 23 38 41 56 87 95 101 137 168 175 181 178 174 188 192 189 196 204 209 210 212 214 216 215 212 212 213 214 208 220 213 214 211 210 207 208 217 205 216 213 210 204 207 196 199 194 200 203 205 209 206 199 198 200 193 186 174 171 175 168 160 138 121 104 79 71 61 60 38 22 29 37 26 16 18 12 22 22 13 13 7 68 57 45 23 10 10 14 22 30 39 29 26 32 36 40 63 79 73 117 152 167 184 174 153 173 185 190 198 201 203 206 211 209 214 214 214 211 211 212 214 214 211 212 206 215 207 208 217 210 205 210 196 202 213 200 199 201 202 206 208 209 203 202 205 201 183 174 172 166 168 165 142 121 104 94 69 62 70 58 17 21 34 23 12 12 4 1 4 8 9 5 5 66 66 55 31 16 10 15 12 21 29 31 36 28 28 32 43 78 75 90 117 156 176 173 165 160 170 184 197 200 206 208 211 211 213 217 216 215 216 213 214 208 207 209 204 212 203 207 209 207 201 200 204 206 212 203 200 205 205 208 212 208 204 206 211 198 186 168 167 166 166 157 120 108 92 81 72 79 101 69 16 8 7 3 14 2 0 1 6 12 7 0 4 67 65 60 48 29 15 11 14 9 18 31 42 29 26 16 34 87 84 64 91 122 154 158 159 164 161 181 196 200 202 205 211 213 213 216 218 215 215 215 212 205 211 215 212 208 210 200 199 199 208 206 208 209 207 203 207 212 211 210 213 211 204 201 204 197 191 186 168 148 152 132 102 99 97 71 83 103 122 64 4 1 5 9 5 0 0 1 5 11 10 3 4 68 75 65 58 53 41 23 13 7 11 15 35 27 22 16 26 80 100 77 81 96 124 140 149 162 156 166 178 199 207 204 208 214 212 216 220 219 216 220 222 216 213 218 219 218 221 211 202 206 207 211 209 209 205 214 213 216 214 213 213 207 209 198 206 195 182 180 175 148 128 110 92 82 76 74 99 148 140 63 10 4 15 6 0 1 1 2 1 6 8 2 3 65 74 76 62 71 55 32 18 9 9 6 14 15 12 9 13 84 108 87 74 71 100 129 149 163 164 166 178 195 203 207 214 213 216 218 219 222 227 227 223 222 217 218 219 221 223 217 215 208 209 208 209 209 207 213 215 213 213 214 212 207 206 200 206 194 181 168 159 168 136 90 79 81 77 81 119 169 151 87 58 26 2 3 1 2 2 1 2 6 7 3 4 65 64 64 64 66 63 48 27 12 8 5 16 8 7 11 20 75 113 104 86 71 88 109 126 129 151 159 175 183 198 206 208 209 214 217 219 220 223 223 221 217 216 221 218 222 227 217 213 212 208 207 210 211 211 209 211 211 209 211 210 214 205 197 191 190 177 164 137 121 135 92 80 84 82 105 134 165 151 86 72 66 13 0 1 2 3 3 3 5 9 7 14 66 76 72 70 76 77 54 40 19 8 5 10 6 8 14 9 75 128 111 93 76 87 110 133 129 136 155 169 198 196 197 202 208 213 217 217 216 216 217 215 216 218 218 216 218 218 215 216 215 209 209 211 212 212 209 209 209 212 208 207 208 207 191 187 188 163 167 144 116 119 106 81 72 103 134 157 171 154 128 78 74 57 5 1 2 2 2 2 3 15 40 60 67 74 69 70 73 66 62 52 32 16 6 5 6 8 6 6 81 147 130 93 89 92 94 123 141 141 166 188 186 186 199 201 202 206 207 207 211 214 211 214 214 212 216 220 220 212 208 209 206 207 210 216 210 208 206 203 203 205 208 207 194 208 197 174 168 159 170 135 110 115 95 83 91 128 158 171 172 151 183 115 81 85 52 1 1 4 7 4 16 56 89 102 74 63 75 70 67 70 65 58 44 21 10 6 7 6 2 16 150 154 147 121 106 109 95 85 108 156 161 158 174 184 192 201 201 200 202 206 211 208 206 213 213 210 211 217 216 208 210 203 202 207 212 218 210 206 205 195 200 202 204 208 199 196 193 174 162 143 150 124 99 90 88 104 125 173 186 173 174 151 201 139 81 73 80 38 7 18 24 23 45 84 107 110 78 70 66 67 77 79 66 64 50 24 13 9 6 5 0 77 215 165 165 139 129 108 101 103 107 142 132 148 172 188 183 191 203 199 191 200 200 206 206 202 207 211 209 209 212 199 205 210 207 211 212 211 209 209 198 186 194 191 197 192 212 191 197 183 162 132 128 123 87 85 86 122 172 192 189 184 176 152 214 156 86 85 83 81 51 52 67 78 86 89 113 110 70 75 73 66 76 78 70 68 51 33 20 9 7 3 26 156 238 165 171 150 141 138 104 103 126 131 148 161 165 184 176 187 204 192 184 191 192 201 205 201 195 198 199 202 198 200 194 204 192 203 207 202 207 198 188 190 198 180 175 184 199 193 178 187 162 152 114 118 96 92 120 161 186 190 190 186 177 154 222 177 97 93 89 87 85 90 107 103 97 95 114 115 73 73 68 66 76 81 73 66 50 37 23 11 4 22 81 207 244 171 174 172 158 147 126 110 117 132 131 139 167 171 174 188 189 181 179 180 197 206 199 190 194 183 185 200 199 199 192 195 191 185 196 199 200 189 178 179 199 187 170 189 192 180 186 173 153 136 104 95 91 106 153 183 193 192 191 188 176 155 228 192 106 91 93 91 86 88 108 112 98 110 126 121 75 74 76 81 70 71 74 61 54 40 24 14 9 62 121 231 242 177 173 180 173 155 132 119 107 138 138 154 169 153 166 190 180 163 170 178 184 188 184 180 186 182 177 181 189 194 198 197 191 185 188 194 181 177 175 172 191 183 166 178 192 177 182 176 135 117 91 76 97 143 183 187 195 198 189 185 177 161 235 206 127 103 98 99 96 82 80 118 127 123 120 123 71 72 75 72 67 74 79 79 67 58 39 24 37 95 136 241 245 178 174 182 179 180 160 133 99 118 132 139 157 162 184 189 167 156 164 173 173 174 181 178 183 178 192 183 190 200 185 201 187 182 185 181 184 176 172 162 177 177 174 180 183 174 152 133 116 119 87 83 125 174 192 192 195 191 191 187 173 169 243 214 138 102 101 102 98 97 83 79 113 122 127 123 73 69 69 72 76 74 74 77 74 71 60 43 70 117 155 248 247 181 173 182 186 191 189 152 111 92 109 123 155 169 170 178 168 149 152 156 167 148 161 170 187 179 171 189 184 187 175 182 185 175 166 163 178 167 154 170 175 163 180 184 156 164 145 120 113 101 79 100 148 186 195 197 196 192 194 190 168 190 248 219 149 106 105 103 102 96 95 76 77 109 129 112 79 70 69 72 79 77 71 76 69 72 65 67 92 122 155 252 248 184 174 183 189 192 191 169 120 101 98 116 130 146 143 151 166 147 154 135 157 160 155 165 157 169 163 172 180 182 166 181 181 165 178 158 166 171 154 167 154 152 165 167 145 141 133 118 110 86 103 145 167 187 199 200 196 198 196 189 167 212 248 220 160 108 109 107 102 101 97 88 74 80 106 126 63 75 69 71 69 76 80 74 75 72 75 83 105 124 151 252 249 191 175 186 189 195 183 176 145 111 99 121 126 132 132 137 128 135 136 139 148 154 156 162 160 157 161 167 162 172 172 197 174 151 164 176 158 161 158 168 139 155 161 179 134 108 124 120 106 90 155 184 192 194 198 201 199 201 195 189 174 232 242 216 170 107 112 115 105 107 109 100 91 84 81 110 80 65 76 80 80 72 74 69 72 74 77 92 116 121 144 251 253 201 180 188 192 191 189 197 179 141 120 109 114 141 139 130 126 136 144 131 156 145 147 136 168 152 150 172 158 179 174 160 168 166 155 183 162 167 166 150 150 146 140 139 114 92 96 127 108 115 186 198 199 199 200 198 203 191 189 187 190 245 237 215 179 113 114 109 111 109 107 100 92 95 86 83 69 75 83 79 75 76 68 69 72 67 86 96 121 128 137 247 254 212 185 186 190 194 197 200 193 172 126 116 114 120 112 120 120 123 131 124 144 145 159 149 137 140 123 138 155 161 140 139 147 163 163 174 162 172 145 141 120 125 123 102 108 93 86 94 95 137 188 197 201 200 203 202 203 194 193 185 207 251 231 216 182 107 108 103 107 105 102 98 93 92 89 90 72 73 68 75 71 79 68 74 79 83 96 101 118 128 134 241 255 221 194 192 199 197 195 198 195 181 138 116 100 102 93 94 109 109 123 114 127 142 151 128 135 158 120 139 131 110 141 152 126 134 169 157 159 161 140 126 134 128 110 105 93 97 89 84 124 171 196 203 204 204 205 206 199 199 201 189 225 250 226 218 179 105 104 109 104 105 100 99 93 87 86 86 74 69 76 72 71 75 73 74 79 95 96 110 126 129 144 236 255 232 201 201 201 202 200 198 200 193 171 130 99 93 105 101 113 118 116 115 124 133 130 123 119 142 124 126 114 126 141 146 127 125 150 156 142 153 123 125 138 102 87 87 87 94 86 106 146 194 203 204 202 205 206 204 202 203 201 206 243 246 220 221 174 100 103 106 99 104 105 105 98 93 93 84 65 71 74 72 72 72 70 76 94 97 104 110 116 121 143 231 255 247 208 206 202 203 203 203 204 199 198 174 133 100 108 110 110 131 112 101 113 113 111 128 123 125 132 136 120 107 125 138 120 139 154 132 160 137 101 102 104 93 90 97 91 88 110 125 162 198 207 206 205 204 204 204 205 205 201 223 247 243 215 225 162 98 106 108 103 103 108 113 106 99 95 89 81 79 80 78 76 73 75 90 99 94 97 102 109 115 135 224 249 255 219 205 209 206 204 205 205 204 197 192 171 133 112 106 101 110 130 110 108 122 120 96 106 113 129 109 98 88 116 127 112 126 123 147 155 115 104 108 100 89 84 90 105 119 145 165 186 199 207 206 206 204 203 204 206 203 199 236 246 238 212 229 156 109 110 107 104 106 108 109 106 99 97 95 72 69 71 72 77 78 89 84 92 90 92 101 106 108 130 215 240 253 234 200 213 211 205 206 205 207 204 199 190 179 156 119 101 102 102 113 100 107 113 82 111 107 98 95 97 97 112 106 127 121 112 119 100 99 111 98 83 77 89 107 144 154 180 200 205 211 207 206 208 205 204 208 207 195 202 244 248 232 211 230 150 111 114 116 112 109 112 107 109 105 100 98 62 69 69 73 74 84 83 86 96 91 88 94 106 108 123 210 230 247 250 209 204 215 211 208 206 205 207 208 209 202 186 165 118 107 110 100 99 92 87 82 116 117 96 95 98 113 94 106 120 110 101 117 79 75 76 80 84 101 121 158 184 190 202 207 208 207 207 207 208 206 205 206 202 186 220 248 246 225 213 227 136 107 113 110 109 109 106 107 104 99 95 96 67 68 76 76 75 79 75 85 93 96 100 101 107 114 119 203 223 245 255 236 200 209 213 213 209 206 207 210 210 210 193 181 159 123 114 106 104 100 98 93 108 96 94 86 88 82 85 94 95 92 84 85 76 79 92 103 127 164 178 190 196 203 207 206 209 209 207 206 207 205 205 203 194 191 236 249 241 219 217 225 133 113 115 113 114 106 108 112 106 97 90 101 71 71 68 78 81 81 78 80 92 96 100 97 99 117 116 200 222 241 253 253 215 202 210 213 213 209 208 210 209 211 208 197 189 164 144 123 111 106 106 104 98 94 90 81 80 79 81 92 84 86 92 77 87 120 150 164 177 189 195 194 202 207 209 205 206 209 208 206 206 209 205 200 188 208 248 249 236 215 222 214 119 103 113 111 105 102 106 112 105 100 94 96 84 72 77 81 81 77 80 89 95 97 97 100 103 121 110 188 228 238 251 255 243 203 204 210 213 211 210 209 211 210 211 207 207 204 190 167 145 137 132 143 131 128 118 109 103 98 90 96 96 115 123 129 153 176 184 189 191 197 202 202 204 207 209 208 207 208 210 210 207 204 201 196 192 232 250 246 230 215 228 199 124 123 125 120 117 118 116 118 116 113 107 108