P2
# Generated by OpenCV 4.2.0
92 112
255
51 72 60 77 74 102 117 138 143 144 148 158 173 179 187 189 182 179 178 181 180 181 181 181 181 177 174 177 182 177 176 177 180 182 181 183 185 180 152 167 174 181 179 172 172 172 171 167 165 161 164 166 163 161 161 159 150 156 149 138 110 124 116 94 90 71 53 49 31 35 42 38 62 85 73 70 107 50 29 64 23 14 25 26 24 52 67 55 67 29 13 24 70 63 66 67 86 99 121 130 145 155 154 160 171 182 181 181 179 183 181 179 177 177 178 179 176 179 176 178 177 178 178 178 175 173 178 178 180 176 146 173 178 180 177 171 170 168 171 162 166 166 167 165 167 163 161 162 158 158 157 146 136 118 133 116 102 76 59 48 33 31 32 31 43 67 69 68 103 62 27 47 61 20 17 39 26 34 55 89 58 58 27 18 69 68 64 61 84 101 119 138 151 149 155 160 171 176 184 184 180 178 181 177 179 181 180 179 176 180 180 180 177 180 180 176 174 178 178 180 177 167 155 179 181 177 173 174 173 175 173 173 167 164 164 161 162 162 165 163 165 156 159 161 147 140 132 125 108 94 71 49 39 31 23 28 41 51 56 53 64 93 56 40 84 29 21 35 26 28 49 53 51 47 41 28 81 66 62 68 89 104 133 143 149 151 157 161 169 173 174 179 178 176 176 174 176 180 177 176 177 177 180 180 179 178 180 181 182 178 180 183 178 157 162 180 181 180 178 171 171 171 172 170 167 168 166 161 162 162 162 165 161 158 153 162 152 149 152 130 118 110 76 58 41 29 29 15 21 35 43 50 56 71 52 38 46 44 7 28 28 32 45 28 55 40 45 24 95 60 63 76 102 129 138 147 149 152 157 162 164 168 174 174 180 178 176 176 171 172 173 177 176 176 180 174 174 176 184 184 180 178 181 178 182 145 163 179 176 175 183 174 175 172 174 172 171 168 165 165 163 156 163 163 162 162 158 161 151 156 148 146 140 121 92 73 43 34 25 21 20 23 44 34 43 54 59 42 36 54 12 20 23 23 39 20 40 33 29 24 117 70 62 89 121 130 141 148 149 149 159 162 162 171 173 175 175 176 177 172 172 176 173 171 170 171 173 171 175 177 176 178 185 181 185 182 183 160 161 171 175 175 175 171 170 175 174 175 176 167 171 164 168 164 157 158 160 161 159 157 156 155 149 149 149 135 122 89 49 45 39 23 19 18 34 39 35 42 52 30 26 32 17 12 22 17 30 23 27 35 31 28 112 70 71 111 123 133 135 146 150 154 159 165 164 167 167 172 168 169 173 170 170 177 172 168 171 171 171 171 172 185 177 173 176 179 176 179 182 175 161 160 161 171 176 171 172 171 175 172 175 168 170 168 162 164 165 162 160 159 158 158 160 155 155 146 144 145 134 125 65 36 50 41 21 18 23 39 39 37 38 34 21 23 25 12 15 14 24 20 27 28 35 20 126 81 90 101 126 126 134 146 153 153 159 163 162 168 166 173 174 172 171 169 164 167 167 169 175 174 174 174 173 180 175 176 180 180 180 180 177 181 175 173 178 178 185 189 167 175 177 177 171 169 171 164 168 165 166 165 162 166 161 159 162 158 162 152 145 142 137 134 91 41 43 56 41 28 24 35 41 40 26 40 25 22 24 13 12 15 30 17 21 23 36 29 138 80 81 106 113 129 148 151 147 149 161 164 168 169 164 167 166 170 172 168 168 167 170 171 170 167 171 173 174 177 177 181 186 184 180 181 178 178 186 187 180 181 185 184 189 176 180 183 177 173 170 172 168 166 167 162 162 162 165 163 163 160 154 150 146 142 134 135 122 60 37 34 54 38 26 32 34 46 20 32 23 22 20 14 14 15 12 18 19 25 31 31 129 83 76 118 121 144 135 138 143 150 157 161 164 164 169 166 169 168 171 168 167 166 167 167 170 171 169 170 174 172 176 177 179 181 181 184 182 182 181 180 185 181 183 185 178 176 180 178 176 172 176 176 169 166 166 164 167 165 165 164 162 163 154 154 151 148 138 143 134 102 35 40 39 35 35 26 35 37 38 23 29 17 18 18 18 8 15 15 17 20 33 33 117 87 92 120 133 130 134 141 147 151 156 162 162 159 162 165 170 171 170 167 166 166 165 171 165 163 171 174 174 176 176 174 175 183 177 182 183 182 184 182 175 183 173 178 181 181 183 181 177 171 175 172 170 169 167 168 164 165 166 161 158 156 158 156 150 147 139 136 135 136 99 47 27 32 21 30 31 43 33 29 28 20 17 16 15 19 17 13 12 12 20 30 149 83 102 118 128 129 134 147 151 151 155 159 161 163 160 161 159 168 169 168 166 166 170 170 168 169 175 172 171 177 174 176 178 174 180 184 178 183 179 182 190 174 177 171 177 183 185 180 180 173 174 173 168 163 166 166 166 164 165 162 160 160 154 154 149 147 142 140 138 131 127 119 104 89 87 79 44 39 39 24 25 26 13 15 17 17 17 18 25 16 16 11 153 90 95 103 112 133 142 147 146 149 157 159 160 161 161 159 161 167 172 171 166 165 167 173 170 174 176 172 177 172 177 178 181 175 178 177 178 180 180 180 176 176 173 180 176 184 179 180 183 175 175 174 170 170 169 166 167 164 164 159 159 160 156 155 154 151 140 138 140 128 133 130 124 118 122 122 115 78 42 37 25 28 20 15 13 11 13 16 15 25 23 21 140 91 106 111 114 129 134 145 145 146 152 156 160 157 162 163 165 165 169 167 168 168 171 174 174 176 175 178 173 167 173 175 177 177 176 178 178 176 173 175 174 175 170 172 173 178 179 178 179 182 178 174 174 169 166 167 163 163 165 165 161 160 157 155 151 144 145 139 137 130 132 128 131 120 119 126 126 122 90 42 26 25 23 15 13 12 15 15 16 15 21 22 114 84 92 101 116 132 137 142 141 146 155 160 157 154 159 165 166 163 167 167 168 167 167 168 172 174 178 179 174 176 177 183 180 175 175 175 174 176 174 172 171 171 171 171 168 173 174 178 177 173 175 173 173 173 172 169 167 167 168 161 162 160 154 155 155 149 145 144 140 139 134 135 130 130 124 128 122 123 113 91 44 33 23 20 16 14 13 20 30 43 32 40 108 70 90 102 120 132 134 143 142 145 150 155 153 151 157 162 162 164 166 168 172 170 170 169 172 173 178 180 179 179 178 182 179 175 175 178 173 173 170 168 170 171 173 170 167 173 173 175 177 175 172 174 169 175 170 170 167 165 164 164 163 157 158 151 151 154 147 142 141 145 135 136 131 128 125 128 129 117 114 104 66 53 28 21 25 20 22 22 29 33 44 42 91 64 96 110 125 134 138 138 143 149 150 153 154 153 155 160 161 164 164 166 166 168 168 170 173 175 180 178 180 181 181 179 184 181 180 176 176 174 170 166 167 169 168 168 167 168 173 175 173 174 175 177 172 173 170 171 170 165 164 162 159 161 155 158 156 155 151 145 141 144 140 135 131 130 134 126 126 119 113 98 74 66 48 31 23 21 20 15 16 21 30 29 95 67 91 111 122 134 138 143 139 145 149 152 152 150 154 157 161 164 163 164 167 172 170 172 173 173 175 179 178 178 182 180 178 179 180 179 179 175 174 169 169 169 167 163 168 170 170 171 174 174 174 174 167 170 174 174 169 169 163 165 165 166 160 158 159 156 153 144 141 141 137 137 136 133 130 128 124 115 107 90 79 69 67 44 38 24 23 27 21 17 17 21 126 59 84 102 123 130 133 138 142 145 148 151 150 154 152 151 159 163 164 167 168 172 174 176 172 173 174 176 178 180 176 175 179 179 182 181 181 176 173 169 167 170 171 168 167 170 170 170 171 174 174 179 179 169 169 174 173 173 168 168 164 161 162 162 162 159 152 148 141 143 142 138 136 135 133 127 119 116 102 88 75 74 69 60 52 35 18 26 25 13 13 13 120 45 77 103 118 127 131 128 139 140 144 148 150 150 153 155 164 165 168 167 171 177 176 174 171 175 174 175 177 178 177 179 181 178 180 186 183 182 175 172 168 168 167 170 169 169 167 169 172 175 169 172 172 177 175 171 171 172 165 164 166 167 164 163 159 155 150 148 144 142 141 137 135 134 130 128 122 110 99 84 78 85 71 71 48 45 41 21 34 19 12 13 94 53 76 109 109 123 135 129 140 139 146 146 148 154 159 164 167 163 166 174 175 178 179 177 178 172 179 171 173 174 178 180 179 184 184 183 192 186 190 177 174 173 166 170 170 168 168 173 173 177 172 178 174 177 175 173 176 173 177 171 165 164 165 163 162 159 149 148 146 141 143 135 132 133 124 121 120 111 96 80 79 83 77 65 54 43 36 29 32 22 12 12 79 59 73 107 101 123 128 128 135 139 148 147 145 160 166 170 169 171 173 172 173 176 178 176 172 171 171 172 171 175 175 176 176 184 184 192 194 186 201 188 185 175 174 173 172 169 168 176 183 176 186 177 183 176 180 180 178 176 170 170 167 166 166 166 162 159 153 151 141 137 139 134 126 129 123 124 121 111 94 78 76 75 72 66 65 41 40 31 39 27 21 15 66 52 74 94 104 113 124 131 128 137 143 149 156 167 169 173 176 177 179 176 172 169 168 165 166 166 168 168 181 176 177 175 178 178 186 187 189 189 200 195 188 179 179 168 172 173 174 174 185 179 179 182 184 185 181 185 177 180 172 169 165 168 163 167 163 158 148 156 145 151 141 141 136 132 120 122 113 112 95 71 69 74 68 67 65 48 40 35 41 32 25 16 89 69 73 97 104 116 124 129 130 141 148 153 163 170 178 177 175 171 168 169 163 162 162 146 143 150 150 155 156 165 160 165 157 158 179 179 185 182 191 194 187 186 179 175 178 174 184 182 183 189 184 187 191 193 185 184 179 179 172 172 166 167 163 163 164 163 161 153 149 142 143 129 131 129 122 112 113 112 98 67 62 69 62 70 56 52 43 33 38 37 26 19 105 65 74 91 106 113 121 122 125 139 143 153 164 170 164 156 159 156 160 146 137 133 128 127 132 114 122 130 131 120 139 146 142 130 148 168 181 179 178 187 190 189 186 179 185 179 183 187 192 181 187 197 194 191 183 178 176 177 173 161 161 157 156 153 151 152 148 146 129 120 116 115 110 114 111 108 89 90 94 76 56 68 67 67 57 46 42 38 35 37 23 18 115 75 70 92 105 109 118 120 124 133 144 149 154 150 149 150 143 127 124 132 127 116 98 94 100 109 108 103 117 119 108 113 131 124 131 153 164 171 173 174 175 188 186 182 190 177 189 184 188 184 176 182 187 183 175 170 171 172 156 155 145 148 138 126 121 115 115 108 102 96 92 94 94 105 94 87 82 72 68 67 55 56 59 61 53 51 43 40 38 42 22 16 142 134 87 93 109 106 116 122 128 134 128 142 147 143 130 137 137 121 134 124 117 120 119 118 111 99 93 96 106 110 93 105 110 123 128 133 139 157 163 161 172 174 177 181 183 182 183 175 184 181 171 173 170 166 170 167 167 154 150 141 142 130 109 110 97 99 90 66 73 61 63 62 70 72 71 62 70 70 62 53 44 48 52 57 50 52 43 40 41 43 20 16 141 163 142 94 103 108 111 123 130 135 136 145 145 140 140 136 146 150 141 142 139 140 135 132 141 133 126 114 108 105 110 100 118 114 123 121 123 148 163 154 163 165 171 171 169 170 175 173 167 174 169 164 166 167 167 162 157 148 149 140 125 108 106 98 94 89 94 90 71 59 73 47 48 63 61 46 49 54 40 37 35 35 46 47 53 51 37 42 47 39 19 14 135 164 138 110 105 104 112 125 129 134 130 133 142 129 132 139 135 141 143 142 140 135 136 135 142 142 136 138 132 128 121 132 122 123 129 129 120 139 154 151 150 162 157 163 164 168 165 163 170 165 166 164 165 165 160 158 154 151 145 134 100 103 100 95 89 87 76 85 93 98 96 109 110 111 108 92 67 54 52 47 43 36 35 46 57 51 46 52 55 33 16 13 100 140 121 99 96 105 111 123 129 129 138 135 131 138 140 137 132 136 135 132 135 136 134 134 142 144 137 143 145 137 130 134 132 135 131 138 132 138 152 144 152 159 158 157 158 162 161 160 163 163 160 159 159 158 158 153 150 139 133 114 115 110 91 92 98 102 112 124 128 124 122 124 127 126 121 111 105 98 97 76 58 37 31 39 53 52 48 50 58 32 15 14 81 83 103 86 84 101 111 121 128 129 137 138 135 136 138 133 131 129 130 136 138 137 144 145 145 146 148 153 154 153 134 133 132 131 132 133 134 136 140 144 147 151 155 153 156 157 161 164 160 157 156 154 151 149 146 146 141 127 118 124 125 115 118 118 124 124 129 137 135 130 129 127 121 124 121 115 107 98 93 79 64 45 32 41 58 51 52 65 48 28 16 15 89 63 73 74 72 90 104 124 130 135 137 138 137 139 134 126 123 129 134 138 144 145 146 154 149 154 151 150 151 152 151 148 142 135 129 126 124 127 128 133 142 146 150 150 155 158 164 167 161 157 152 151 147 144 139 134 127 117 117 116 117 116 121 126 135 142 144 140 135 135 128 125 122 121 117 116 103 99 91 83 73 44 39 42 54 48 62 58 40 20 16 15 103 62 55 66 64 75 103 119 128 133 137 139 139 132 127 119 121 128 139 135 130 126 118 123 127 124 124 127 136 147 145 146 147 144 137 133 126 122 120 122 129 137 145 154 156 156 163 175 171 157 153 148 141 135 127 116 110 113 114 115 117 121 126 132 135 132 127 125 123 125 117 118 112 122 116 109 102 97 85 80 66 48 41 46 49 59 59 76 24 16 13 14 116 69 53 49 61 66 103 120 131 135 135 139 139 133 125 122 122 114 108 103 109 120 113 118 117 125 137 117 101 89 85 101 123 125 134 133 132 131 127 120 120 123 132 146 155 159 164 178 179 160 146 145 129 118 112 108 108 112 114 119 118 117 114 101 89 93 108 113 104 101 91 81 75 77 80 96 104 95 86 71 64 51 43 45 48 57 68 70 31 18 12 13 111 68 60 45 59 57 103 120 129 136 131 139 139 131 127 126 110 88 107 105 105 82 65 62 58 75 49 60 79 104 97 99 81 99 123 126 131 124 127 125 115 117 122 135 152 160 169 178 179 157 146 133 117 103 99 106 108 113 108 108 105 95 90 105 106 112 110 119 115 107 94 99 88 78 68 62 66 94 86 75 64 54 44 47 54 69 63 50 44 16 10 14 104 67 70 49 53 64 105 120 132 135 132 133 132 125 121 103 90 99 101 68 100 133 74 80 92 74 46 65 53 68 90 104 106 84 102 116 119 119 124 127 129 130 123 127 146 159 169 174 173 157 145 126 102 89 101 109 113 109 107 103 96 97 91 103 93 67 39 81 39 52 32 46 58 85 73 65 49 66 93 83 64 57 42 44 57 69 72 44 44 19 8 11 107 83 72 50 59 68 106 122 135 139 132 132 127 118 119 112 102 88 73 103 153 147 63 70 71 89 50 79 73 116 129 111 94 106 107 101 107 112 122 128 124 128 127 121 140 154 169 173 170 157 141 121 89 91 104 115 113 106 105 100 97 96 102 107 95 55 87 61 62 63 59 39 79 42 59 67 60 58 85 88 69 55 45 50 53 68 74 44 55 16 12 10 96 106 70 56 50 78 110 126 134 143 134 137 125 124 115 107 96 108 115 132 146 148 73 75 80 41 51 98 84 133 175 162 135 111 93 103 123 134 142 145 140 125 128 126 141 160 168 175 167 156 144 117 85 91 110 117 120 123 127 116 100 101 128 162 147 51 84 36 93 57 75 49 103 113 58 44 47 55 64 83 67 55 47 50 47 79 78 57 80 14 11 12 81 96 69 61 59 99 111 128 135 142 139 140 131 125 124 127 121 127 135 137 152 160 100 74 100 105 103 100 83 167 171 160 145 114 117 115 95 151 168 163 153 132 128 133 143 154 167 170 167 156 142 121 88 91 109 129 152 148 108 109 122 135 157 172 155 62 94 73 59 80 73 48 121 109 85 64 53 42 59 64 62 57 51 48 67 76 50 66 92 7 12 13 74 108 69 66 92 100 118 131 140 149 148 149 146 141 140 138 133 131 132 132 141 155 156 81 68 76 89 72 137 164 148 128 120 109 120 116 140 150 171 161 146 125 134 137 147 153 164 171 164 148 140 129 99 91 108 135 161 137 108 114 112 109 128 145 165 115 56 104 95 88 51 85 133 109 92 88 62 48 55 58 62 66 60 52 55 74 62 51 93 0 13 12 109 101 81 77 115 105 124 136 145 150 154 155 155 153 147 145 143 139 141 137 129 137 145 151 120 111 119 124 137 133 133 125 120 124 132 150 140 156 153 144 137 124 136 141 141 151 161 166 167 154 144 128 105 89 101 122 145 155 143 135 137 128 129 121 127 135 107 107 73 61 92 138 120 105 95 74 59 64 69 74 68 75 61 56 56 76 72 41 90 15 17 13 136 95 78 83 112 116 130 140 149 157 160 162 163 161 156 145 142 138 137 145 140 132 129 121 128 147 126 158 138 141 143 135 129 136 135 142 146 137 152 137 127 138 146 143 142 150 160 170 166 151 142 134 107 93 91 107 134 142 135 144 148 150 135 134 159 141 148 136 120 114 112 92 89 94 85 90 82 80 78 93 85 87 71 62 52 65 69 34 79 19 15 11 108 95 88 87 112 124 131 142 152 160 164 166 165 161 161 158 152 144 138 136 139 135 140 145 140 138 146 152 138 127 135 136 144 145 140 147 150 157 146 137 136 143 145 142 142 150 161 174 172 157 137 133 112 93 91 97 127 140 149 134 138 134 129 137 143 152 144 148 124 130 132 115 106 109 106 100 89 82 84 95 98 94 81 64 58 69 67 44 83 8 10 15 92 91 83 86 117 124 134 143 156 162 167 168 170 167 163 160 160 156 148 140 137 136 140 138 145 138 138 137 138 143 149 161 146 153 154 150 155 154 140 142 148 153 147 148 148 149 157 175 174 158 139 136 113 99 89 94 104 129 150 145 146 144 139 129 136 125 131 138 132 133 132 129 120 118 111 96 94 94 95 103 96 104 87 65 60 61 76 56 80 6 11 15 82 86 82 98 115 130 138 145 155 165 170 168 171 170 165 163 163 164 160 152 147 142 138 139 138 142 142 144 150 151 153 147 152 149 157 160 160 153 153 154 148 154 151 151 147 150 156 172 176 164 149 136 115 96 87 92 102 117 141 153 158 151 151 154 150 138 133 126 122 119 123 126 122 114 110 104 105 103 103 110 107 105 94 70 55 74 86 45 105 11 15 14 82 89 81 108 119 132 139 149 159 166 172 174 176 171 167 152 163 161 152 156 156 155 150 146 145 148 146 148 152 158 161 150 155 163 171 166 160 154 151 156 157 158 155 153 149 152 158 174 177 168 154 141 115 95 87 88 100 107 120 143 154 159 162 154 151 151 139 140 129 129 125 128 122 121 118 116 113 109 104 110 115 107 101 79 67 72 73 43 73 17 17 19 80 102 83 107 120 133 143 151 158 166 173 175 177 178 174 167 167 165 157 162 159 158 158 156 153 154 156 158 163 160 162 163 165 166 166 165 162 156 155 157 157 160 157 154 146 153 162 174 178 168 156 140 115 96 86 88 97 110 112 130 149 158 164 159 153 156 137 140 135 130 134 132 127 125 124 121 118 113 113 117 119 110 104 84 72 73 71 44 83 18 14 20 88 116 105 115 119 135 140 150 157 163 171 176 175 174 171 172 170 170 169 165 164 161 160 159 158 157 159 160 162 161 158 164 173 172 161 162 156 152 152 158 162 155 149 150 149 154 161 173 176 171 157 145 122 99 87 86 96 101 114 117 141 146 160 160 157 151 149 136 132 128 133 128 130 129 126 125 124 120 117 117 118 116 104 83 71 69 81 52 68 26 16 21 92 116 117 121 126 132 142 151 157 166 171 176 178 178 175 174 171 170 171 167 165 164 162 164 161 163 161 162 161 157 163 170 162 166 165 159 157 157 158 157 157 153 154 148 147 156 163 172 177 167 155 148 131 102 90 87 94 100 103 123 136 141 147 154 155 153 145 141 140 132 133 132 134 128 131 132 133 126 126 128 119 116 102 80 68 71 82 55 47 20 19 17 110 124 129 121 133 128 142 147 156 165 167 171 173 173 175 175 175 172 170 169 165 165 160 162 160 165 161 164 157 169 166 163 166 166 162 158 158 159 158 156 156 150 148 147 148 159 163 170 172 169 160 151 135 112 92 84 92 102 101 116 129 139 144 149 152 153 144 146 141 143 142 139 137 136 134 135 132 129 127 126 122 115 100 82 67 84 88 60 55 18 25 26 130 133 134 124 133 133 140 147 157 157 163 168 171 171 173 173 176 174 172 171 171 171 167 162 163 164 162 171 165 166 164 166 165 168 166 167 159 158 156 154 151 152 147 143 150 154 161 174 172 167 161 149 138 121 99 82 89 100 107 107 128 135 140 140 151 151 147 146 145 146 139 143 139 140 140 141 138 133 131 129 120 112 100 82 60 69 76 75 45 22 24 34 140 133 126 120 132 134 138 145 153 154 158 166 169 169 171 169 171 174 172 173 171 168 172 166 168 172 163 168 170 164 162 165 168 168 165 167 160 160 158 155 155 150 143 140 152 160 172 176 173 168 163 153 147 132 111 88 82 88 100 104 125 132 138 141 151 151 148 148 150 147 148 141 141 141 141 139 141 141 131 123 121 108 98 76 64 69 89 60 37 20 33 33 139 118 130 132 125 130 135 144 151 154 159 163 165 165 168 169 171 173 168 171 171 174 173 168 167 170 169 170 170 168 162 168 169 162 159 165 166 162 162 155 147 148 145 147 157 167 171 175 173 169 163 158 144 136 122 97 83 87 91 112 124 130 140 146 149 152 150 151 152 149 149 147 129 144 143 142 140 138 130 131 123 107 88 80 58 77 60 61 34 23 31 71 137 123 126 157 127 134 135 137 147 152 157 158 160 165 170 165 170 169 169 169 166 175 176 168 166 169 169 168 167 167 167 169 169 171 171 166 162 162 160 153 151 144 145 152 161 166 172 172 177 169 167 160 150 142 124 103 87 85 83 110 128 134 142 147 145 153 151 149 151 148 145 152 143 141 141 141 138 135 132 124 118 109 88 79 57 62 47 47 33 23 21 49 130 123 131 163 145 136 136 134 142 151 155 155 160 159 164 165 164 169 169 165 171 170 173 170 166 172 168 169 168 169 172 170 173 170 170 166 163 159 158 148 144 146 148 156 163 165 161 171 170 168 165 159 156 143 133 115 90 88 88 97 128 133 139 144 147 152 151 153 150 146 148 149 148 145 142 138 135 129 129 128 117 102 88 70 60 56 44 39 33 25 24 28 137 121 111 136 133 135 133 131 148 148 153 156 157 162 163 166 164 164 166 166 168 172 172 169 169 168 164 167 169 169 171 172 173 172 172 171 166 163 151 142 148 150 154 160 162 164 163 167 170 179 170 167 161 150 132 120 94 80 90 92 119 133 144 143 146 149 151 152 149 152 149 145 146 147 144 142 134 129 132 122 112 98 86 63 51 49 38 41 30 25 31 31 146 133 103 120 117 137 116 130 135 146 151 154 154 156 163 164 163 166 168 167 168 170 172 172 169 168 167 168 170 172 171 169 170 171 172 169 165 162 145 147 160 159 161 161 155 162 161 166 179 179 175 180 166 146 138 117 96 82 85 93 98 134 144 146 152 152 154 155 152 150 151 148 149 146 138 142 136 130 127 117 112 95 88 70 51 54 39 30 29 27 37 38 157 150 125 115 108 109 123 133 131 142 152 153 152 157 160 166 164 165 169 170 167 168 171 171 169 168 169 170 168 172 171 171 172 170 167 165 166 162 146 155 163 161 161 154 151 149 151 149 160 157 159 161 158 141 125 108 98 94 87 90 83 124 139 149 154 152 156 154 150 153 151 152 148 144 143 140 134 126 127 120 105 86 83 69 50 42 31 36 32 29 33 39 158 164 157 141 105 96 112 131 135 139 148 150 150 157 160 157 162 166 168 169 171 167 167 167 166 169 173 172 171 173 171 168 161 171 165 162 166 158 146 157 158 156 155 143 137 129 137 142 142 143 145 148 147 130 115 97 96 94 98 94 84 109 137 150 155 157 160 155 155 155 153 150 147 143 145 137 134 130 125 120 104 87 76 61 55 34 40 51 38 48 41 41 159 161 160 135 111 93 111 129 138 131 142 152 151 152 156 154 158 161 166 165 165 168 167 167 171 166 170 172 172 171 171 171 170 171 169 167 164 156 143 154 153 151 140 134 131 129 130 129 130 130 139 142 130 114 104 89 86 97 111 105 95 94 135 144 152 161 161 155 156 155 153 151 148 145 142 142 138 130 122 119 100 81 71 77 52 33 49 83 49 79 58 46 162 152 154 140 109 99 100 120 138 136 141 145 147 156 154 150 155 163 162 165 166 167 164 167 169 171 170 171 169 171 174 171 170 174 167 167 166 160 144 154 153 140 113 78 57 45 66 116 125 125 129 127 114 104 46 59 85 87 108 117 101 97 131 144 149 161 159 161 158 151 154 151 148 147 140 143 138 128 116 113 100 81 63 59 53 46 80 102 61 101 113 62 155 162 143 152 137 97 103 118 131 138 140 143 148 150 150 155 157 151 160 164 163 166 168 170 168 169 169 172 174 174 175 177 176 172 171 171 166 164 143 147 144 128 115 129 89 61 76 63 111 117 120 114 108 63 68 128 161 129 115 121 109 97 135 138 144 159 165 162 162 158 151 147 147 144 137 140 135 127 117 109 99 74 76 62 44 53 112 112 69 101 102 86 153 149 154 153 147 109 102 114 134 139 142 141 145 148 152 155 157 156 158 165 167 168 168 171 172 171 172 172 175 176 176 175 175 174 173 172 170 167 149 142 139 133 131 154 150 97 118 113 111 114 109 106 89 96 107 128 120 130 124 118 88 118 135 138 138 151 162 167 160 152 152 150 151 150 141 136 133 125 116 104 93 73 67 57 41 85 127 131 106 83 104 107 160 155 147 153 138 121 116 121 136 143 139 146 146 149 151 151 157 157 160 160 163 166 168 174 176 173 174 171 171 174 173 175 175 174 173 171 172 170 160 137 136 141 137 144 147 142 146 131 122 117 115 100 100 114 123 116 103 93 98 94 112 127 133 138 141 148 162 166 162 151 153 149 147 146 140 136 133 125 115 106 90 64 62 50 42 105 119 131 131 120 114 94 164 158 160 154 145 144 126 138 134 144 146 150 149 147 151 150 155 156 161 160 159 167 174 173 172 176 173 173 170 174 175 178 175 173 173 169 171 171 168 158 130 122 128 134 141 154 154 142 139 135 125 115 117 123 122 111 103 105 111 121 125 130 133 136 144 145 151 162 163 160 156 151 144 141 138 135 133 123 111 101 88 63 65 58 43 116 127 133 136 130 117 72 149 163 168 167 164 157 130 122 134 142 146 145 148 145 149 151 155 155 157 164 166 169 173 174 174 173 170 172 174 176 175 175 173 174 174 169 170 172 169 168 161 145 141 139 146 144 153 153 159 155 138 136 131 134 129 120 113 113 114 120 123 127 131 134 141 144 143 151 163 163 159 153 145 134 133 133 125 123 108 98 84 60 62 46 50 131 129 137 132 124 110 43 141 155 158 161 159 158 138 119 135 140 145 143 148 146 149 151 157 157 161 165 168 168 173 171 172 170 172 176 177 178 175 175 176 173 172 174 173 171 173 173 167 163 159 149 154 155 160 162 170 166 152 148 142 142 134 124 119 118 113 116 121 125 126 129 134 138 140 141 147 151 159 170 146 106 111 129 126 117 110 90 79 60 71 47 44 127 129 132 127 119 76 11 89 134 143 145 148 148 138 123 132 141 146 144 150 152 148 150 155 158 160 165 168 167 171 172 174 172 176 175 170 174 174 173 174 176 173 170 174 176 176 171 170 169 167 159 166 165 164 166 176 165 156 157 148 144 143 130 120 116 113 117 119 121 124 128 133 136 141 140 143 144 150 155 140 112 113 127 121 111 108 88 77 62 67 50 39 113 121 122 116 86 19 13 48 101 113 111 108 109 108 112 128 138 139 146 151 149 151 149 151 158 160 162 165 169 170 172 176 177 175 173 173 175 174 173 176 175 174 175 172 170 170 172 171 170 170 166 164 161 167 168 168 160 155 157 156 152 144 133 123 121 113 117 114 123 124 128 131 136 141 140 142 138 141 141 139 132 126 114 116 112 101 83 64 67 66 43 36 73 66 58 39 7 10 7 104 124 98 70 42 34 25 95 130 132 137 142 147 151 149 148 149 155 161 161 164 167 167 172 174 175 174 173 174 176 172 174 176 172 171 172 170 171 171 170 167 168 170 166 168 170 168 169 169 157 156 160 163 156 152 142 131 124 120 118 115 121 123 124 124 132 133 136 140 135 135 136 134 136 133 109 111 108 97 79 58 64 68 41 20 14 15 22 22 16 11 10 142 123 99 82 63 48 56 84 129 132 139 144 147 145 149 150 149 149 155 157 163 165 168 168 169 172 173 173 172 171 170 174 172 170 171 168 167 166 172 170 168 169 170 168 170 170 172 174 166 161 157 160 166 160 154 146 134 125 125 117 118 116 121 127 124 124 129 133 137 137 134 131 116 124 135 126 114 104 92 75 60 77 58 52 22 15 27 32 20 23 28 22 140 113 102 101 63 63 86 80 125 128 139 143 143 144 145 152 146 145 151 155 159 163 166 165 166 169 171 168 168 169 169 168 166 166 167 165 167 167 168 172 169 170 170 170 168 169 173 177 165 157 157 162 159 159 153 149 139 128 128 124 119 118 113 122 127 126 132 135 143 137 137 125 94 98 130 125 117 102 91 73 70 77 61 55 26 11 34 33 25 19 28 31 126 114 118 85 81 74 89 80 123 132 142 143 145 144 143 142 142 144 148 153 156 160 163 165 165 170 166 167 165 166 166 165 165 165 166 166 167 166 165 166 168 170 170 171 172 169 168 166 162 151 146 151 154 155 155 151 143 125 132 124 126 117 112 117 123 120 125 130 142 141 134 120 114 105 122 123 112 101 82 71 63 67 65 56 26 13 25 32 35 22 19 11 130 136 108 84 93 82 90 74 115 133 138 140 144 148 144 145 143 144 141 152 153 159 160 163 163 164 161 166 166 168 167 168 166 164 166 167 160 163 166 168 170 171 170 169 170 168 169 167 165 160 153 155 160 158 146 135 124 119 120 112 115 112 106 108 118 115 114 124 140 140 132 125 116 110 116 120 111 95 81 73 62 68 66 59 27 13 21 27 36 24 18 22 136 131 107 94 92 78 72 70 111 134 141 137 139 143 140 143 141 142 144 143 148 152 156 162 161 162 157 159 165 166 163 165 162 157 159 162 160 155 160 167 166 165 161 157 155 150 151 147 151 151 145 146 139 121 111 112 115 114 121 113 108 104 95 92 104 106 105 119 138 139 129 134 121 105 110 117 108 90 65 59 71 70 68 60 25 12 20 22 27 23 13 19 124 113 98 90 89 87 90 55 96 136 138 135 142 145 144 148 143 147 145 141 146 153 152 155 157 158 161 164 166 167 162 161 162 157 155 151 155 154 155 150 139 136 137 143 141 137 136 132 135 126 118 120 116 116 114 119 124 119 114 106 103 108 89 88 84 88 100 112 127 131 134 138 119 108 107 116 108 83 65 67 74 70 69 56 22 10 17 21 24 26 28 27 102 86 86 89 93 107 92 50 82 132 135 142 145 147 149 149 140 146 140 146 145 142 148 149 153 158 161 162 162 166 162 159 153 146 143 143 142 143 133 128 129 131 132 138 128 130 122 122 119 108 109 111 101 99 109 109 108 101 86 88 95 93 97 86 86 89 72 82 113 129 140 147 131 111 105 112 97 75 56 70 73 74 70 55 25 12 19 17 27 17 26 32 96 85 106 106 110 98 78 47 76 131 132 141 147 149 150 150 145 150 143 146 141 142 143 147 149 154 158 160 162 160 159 155 149 139 135 134 124 117 119 123 123 122 113 116 109 112 105 105 102 89 72 69 78 87 77 75 70 70 74 73 62 64 66 77 67 56 72 105 134 136 145 142 136 115 105 107 93 73 64 74 75 75 70 55 21 10 18 30 37 40 36 24 101 111 112 115 86 92 86 59 69 125 134 140 144 149 152 151 147 150 143 142 139 137 137 142 143 150 159 156 159 156 156 149 136 127 115 105 97 105 106 105 94 84 77 77 82 89 88 85 95 100 92 92 99 111 105 110 99 93 91 92 86 79 70 59 68 88 116 137 150 153 147 148 138 111 105 104 88 67 75 78 80 75 69 50 18 10 20 21 39 48 39 58 119 112 122 95 81 106 87 62 58 116 135 144 147 147 151 150 154 152 142 143 146 138 139 140 144 148 153 154 158 155 151 132 117 90 73 75 89 99 90 87 83 92 109 112 112 116 122 123 120 123 122 126 130 126 119 117 117 105 108 102 95 92 86 86 93 106 124 141 151 149 150 150 135 113 106 102 80 77 81 81 82 74 61 45 15 16 17 22 29 40 62 37 125 132 91 79 108 111 81 76 60 115 136 143 146 150 151 146 152 148 153 151 143 143 136 138 146 148 152 155 154 154 147 135 129 126 126 114 105 93 99 112 119 123 125 132 144 135 138 137 141 129 130 127 128 135 126 126 123 111 107 100 92 88 91 94 99 111 125 137 144 145 149 148 130 113 104 95 75 82 84 85 83 72 58 45 12 12 24 33 33 40 45 67 129 92 79 89 120 109 96 78 63 110 130 140 144 146 153 149 149 154 157 151 147 142 139 139 144 148 149 153 152 151 152 150 154 155 156 149 145 131 125 123 124 127 132 127 137 145 141 143 141 140 136 130 136 139 131 125 118 117 113 112 111 112 107 108 111 115 124 135 137 141 143 141 128 112 104 94 77 86 84 89 84 63 55 36 11 8 17 34 50 45 30 33 94 79 102 132 118 111 102 79 65 114 127 136 148 149 150 155 157 153 152 151 152 141 137 137 145 147 148 153 153 150 150 155 158 157 160 154 153 148 150 143 142 139 140 141 140 146 145 146 143 138 140 132 133 138 136 130 129 130 126 125 118 114 112 108 113 115 128 137 137 136 139 130 127 112 101 87 76 92 87 86 77 64 52 27 11 28 18 16 49 82 77 51 81 109 115 130 121 116 91 82 72 114 124 133 138 146 148 154 153 152 154 154 151 144 139 136 142 149 147 152 156 157 154 157 156 157 158 155 156 158 155 152 151 151 153 148 146 148 148 150 145 142 140 136 134 134 128 129 131 126 127 127 122 119 116 112 115 118 124 133 131 130 129 129 122 114 102 79 89 84 85 84 72 64 44 17 14 34 35 35 18 55 74 62 122 130 149 132 113 102 98 94 71 113 130 125 137 141 149 157 153 155 155 154 150 144 141 140 140 148 147 149 154 158 155 158 158 157 161 157 154 156 155 157 155 152 151 148 144 145 138 136 133 134 134 136 137 135 134 135 134 136 135 135 130 120 118 112 113 120 130 131 131 132 125 123 115 109 98 84 86 81 85 86 66 58 40 11 14 43 29 42 47 40 17 41 142 154 132 120 115 112 95 88 61 99 136 124 125 143 143 152 150 152 152 154 150 149 143 139 140 149 151 153 154 157 158 158 160 160 163 162 160 157 156 157 156 155 154 152 152 150 146 142 142 143 140 142 140 139 142 147 142 141 141 137 133 120 112 111 116 121 126 127 127 128 122 119 107 109 97 84 84 81 83 77 67 52 29 6 26 33 57 46 42 42 32 22 157 122 102 116 105 98 86 79 77 105 138 134 125 136 141 148 150 149 149 150 150 148 142 140 138 145 148 151 150 154 157 159 159 159 160 158 158 156 158 160 155 152 155 152 149 150 147 147 147 148 145 142 141 144 143 143 141 141 139 137 125 118 117 119 122 121 124 126 129 124 120 113 105 102 95 81 82 81 86 71 64 43 10 13 35 43 24 51 59 53 43 40 99 98 107 105 103 99 62 98 113 106 134 143 121 128 134 141 145 146 148 150 149 148 143 139 138 141 146 148 150 152 156 159 159 155 158 157 159 158 156 157 154 154 154 154 155 154 151 151 148 148 151 144 143 141 142 143 145 143 143 135 131 126 127 120 119 122 122 123 125 121 121 108 111 98 93 81 82 83 81 66 56 25 8 13 21 30 64 57 49 41 38 43 91 88 84 89 91 74 91 114 124 98 134 149 127 120 134 142 145 147 147 147 149 149 141 138 138 142 144 152 150 153 154 158 155 154 152 154 154 155 155 154 152 154 152 152 151 152 153 151 148 147 148 149 144 143 144 144 143 142 140 135 130 130 129 124 123 125 123 119 123 116 117 112 106 101 86 77 84 85 76 64 43 15 7 14 28 28 27 49 44 49 45 49 70 61 62 58 74 104 113 112 93 82 127 145 149 120 125 137 141 142 144 146 146 148 145 143 142 141 146 149 153 152 151 152 157 156 157 154 151 149 153 151 151 153 156 153 153 155 152 152 150 150 151 147 144 142 140 143 147 145 142 137 137 132 130 127 127 126 124 120 117 112 112 109 102 89 76 78 83 80 67 58 28 9 11 24 27 46 37 28 33 34 40 40 45 55 70 111 118 106 116 95 91 76 127 143 151 136 112 128 136 141 145 146 146 144 142 143 142 139 143 147 151 151 152 150 152 153 151 153 150 152 150 152 153 153 156 156 158 156 157 152 151 151 149 144 144 142 136 142 146 153 142 137 138 132 135 129 131 126 122 117 116 115 108 108 96 81 76 79 82 73 53 38 18 13 26 29 35 37 52 36 31 38 37 34 76 92 98 104 107 114 108 103 101 66 124 144 149 150 124 113 129 138 136 143 147 147 146 144 142 140 146 147 149 152 151 155 153 151 151 151 151 153 153 155 153 151 153 158 156 157 159 153 152 155 151 139 147 148 143 147 150 154 139 136 139 136 130 134 128 124 123 113 115 112 107 103 87 71 75 77 73 66 47 21 18 27 34 45 40 42 55 41 36 29 35 42 99 112 109 112 102 87 82 97 62 80 121 146 149 148 147 113 117 126 136 145 143 145 147 144 142 140 146 149 150 152 153 152 153 149 152 151 150 153 152 155 158 159 159 162 161 165 168 168 170 169 167 155 159 156 153 146 145 143 142 140 140 137 130 133 131 125 123 115 115 113 103 96 81 67 74 70 66 54 27 16 26 69 47 28 45 40 46 67 59 47 50 63 105 97 104 81 64 57 70 67 69 77 114 145 149 152 152 135 109 121 127 138 144 143 142 144 143 142 142 147 150 151 154 152 154 150 152 152 153 154 156 158 155 155 157 160 161 164 167 169 170 172 169 168 163 159 152 147 141 138 142 144 145 140 131 135 131 123 122 116 110 111 99 89 76 68 68 75 59 39 16 28 36 110 72 39 30 48 38 31 42 41 33 29 114 100 71 56 53 65 47 65 73 83 115 144 148 152 152 145 127 107 115 125 131 141 142 141 144 145 145 147 150 158 156 156 155 151 154 152 152 155 157 160 160 162 168 168 169 167 170 169 172 171 166 169 163 158 157 151 145 144 140 137 141 140 135 130 127 122 122 109 104 104 93 84 70 67 67 61 45 16 23 46 32 92 90 63 62 54 45 42 37 41 45 49 90 70 52 47 60 44 53 72 85 93 116 143 147 146 149 152 146 124 104 113 122 134 140 137 138 141 141 146 146 150 149 151 153 155 157 156 158 162 164 165 167 169 172 171 171 169 170 170 172 170 168 166 165 164 163 157 152 145 143 140 138 133 131 131 117 115 114 104 108 98 86 78 66 68 56 46 22 23 54 59 34 69 80 98 61 51 51 47 48 41 43 57 66 54 56 62 52 63 81 90 86 101 114 145 148 147 153 150 147 150 122 101 113 122 128 133 131 135 138 142 145 150 152 153 157 159 157 162 163 165 166 165 167 171 172 169 168 173 169 169 173 171 173 171 171 166 163 160 161 149 146 140 135 136 125 120 125 113 104 103 95 90 72 69 62 70 44 19 21 52 75 52 43 44 60 70 62 62 46 53 51 48 50 50 57 58 65 59 72 80 95 87 89 108 115 145 146 148 152 148 155 148 146 115 97 114 116 123 120 127 134 137 139 144 155 150 153 158 154 159 159 167 165 164 166 169 170 166 171 174 167 174 175 170 170 172 169 167 167 164 159 155 150 140 135 130 123 113 125 102 99 102 91 86 66 63 54 42 25 25 59 78 68 52 56 44 45 40 57 53 62 56 55 50 54 62 65 69 66 63 82 92 87 86 88 86 106 142 146 151 152 153 151 149 150 145 118 97 105 113 114 118 123 132 135 140 141 147 148 155 151 156 159 162 165 166 163 163 167 168 169 167 171 173 170 167 166 160 163 166 165 162 159 159 149 143 134 131 122 111 103 100 92 97 81 77 58 58 43 23 24 64 86 78 68 49 50 34 44 39 42 41 50 54 51 54 53 61 56 42 81 84 87 88 86 77 76 67 98 143 143 147 152 154 154 152 149 149 142 121 96 104 108 114 121 124 129 137 136 142 144 153 152 153 152 155 164 159 159 162 166 163 172 169 173 171 171 164 163 160 161 159 158 161 157 157 146 136 131 122 113 103 103 94 86 74 79 56 58 37 24 38 78 88 85 76 64 46 38 48 36 36 40 41 39 45 48 47 51 50 79 108 103 84 86 87 71 78 75 61 85 144 145 151 151 152 152 155 152 150 149 143 130 94 92 103 104 119 117 127 132 130 138 140 143 146 151 158 154 156 153 156 162 160 164 161 166 165 163 159 160 159 156 155 155 157 156 150 145 137 130 117 105 111 93 96 81 78 66 54 34 26 42 86 87 89 85 76 62 48 25 34 53 45 45 42 42 44 43 43 49 51 41 95 89 81 87 62 63 81 80 57 120 143 145 149 152 153 152 155 152 156 152 150 142 140 120 85 89 111 110 112 110 117 124 138 141 139 142 145 152 154 149 151 155 151 156 156 158 156 157 158 156 157 156 150 150 152 149 145 135 130 126 115 108 95 89 80 118 58 53 35 22 47 91 94 96 92 88 78 62 42 20 38 32 34 34 41 42 38 40 40 40 45 12 63 55 67 75 55 57 66 53 153 136 145 147 148 151 153 152 153 155 157 156 153 147 144 140 137 109 72 102 101 114 117 125 127 134 138 138 138 141 149 145 149 147 146 149 151 152 149 149 152 150 151 151 146 149 142 140 139 132 124 114 105 96 88 99 72 55 44 29 28 51 91 101 97 97 95 89 76 62 40 11 22 32 26 30 28 32 31 33 35 42 40 11 10 44 58 69 51 50 30 141 165 147 144 148 152 148 150 153 155 159 161 158 153 150 148 146 141 140 133 84 77 92 101 115 116 119 136 134 127 129 139 132 133 141 145 141 148 147 146 144 146 144 144 141 142 141 146 138 131 119 109 112 102 88 94 69 54 37 32 34 56 92 103 102 102 100 95 88 78 62 35 9 12 14 12 23 30 28 33 26 21 27 23 11 11 8 19 50 27 8 132 180 170 136 145 147 150 150 153 152 155 162 160 160 157 153 150 150 147 149 144 140 109 72 79 85 99 111 116 131 127 128 135 125 134 133 140 139 135 135 135 133 137 137 136 134 134 134 132 129 122 115 104 102 81 87 69 58 31 30 31 57 87 102 105 102 106 104 97 90 73 62 32 9 11 11 13 11 11 9 10 11 9 7 6 11 11 10 11 5 20 97 185 183 159 122 147 147 151 152 151 153 154 160 161 160 160 158 154 151 151 151 148 149 141 130 102 63 69 91 110 108 115 110 121 120 120 122 125 132 134 129 126 129 127 128 121 124 120 128 118 111 103 108 90 97 72 96 42 27 25 43 64 85 99 103 108 109 108 105 97 88 77 61 31 8 8 8 12 11 12 9 8 8 9 9 9 14 11 9 8 19 15 186 188 166 138 103 150 147 147 152 152 152 154 157 157 160 161 158 154 155 153 150 151 146 143 146 134 125 91 64 58 86 93 101 111 108 105 110 109 118 118 113 112 114 107 113 111 102 104 102 98 93 89 81 78 58 36 23 26 29 50 71 79 93 103 108 111 108 108 106 94 88 75 61 26 8 9 8 8 10 12 14 10 9 9 9 9 12 12 6 11 33 107 203 187 144 104 98 148 146 148 154 155 153 154 156 159 160 162 158 160 155 157 155 153 150 154 144 144 139 133 123 96 61 54 62 74 77 87 92 102 100 93 96 104 91 93 90 79 85 62 66 49 51 34 36 29 25 37 35 66 72 75 82 91 97 105 112 110 112 110 104 91 87 75 60 22 11 9 8 9 8 8 11 10 9 9 9 9 11 11 14 28 19 137 202 181 130 69 100 154 149 150 152 155 156 156 157 159 161 162 161 161 162 157 161 157 156 156 153 148 145 143 141 138 127 109 81 59 49 47 48 42 45 46 46 46 46 46 47 43 42 43 47 47 52 59 74 79 92 98 93 95 79 75 84 89 95 100 109 113 108 107 96 93 84 72 58 18 11 9 9 8 10 9 8 12 8 8 8 9 12 11 13 28 17 162 208 181 120 82 102 148 154 152 152 153 153 155 154 154 157 160 161 162 159 157 159 159 159 154 155 154 149 147 145 140 138 138 138 136 126 117 107 94 84 85 79 93 97 100 105 111 120 129 134 133 135 137 133 129 124 114 107 92 83 75 84 89 97 102 110 111 104 102 97 92 83 71 58 19 11 9 9 9 9 8 9 12 12 12 11 10 12 9 22 30 0 159 210 189 107 82 114 152 151 153 150 152 154 155 155 157 159 159 158 160 162 160 160 158 158 160 156 154 153 150 148 147 142 145 148 147 152 151 149 149 148 148 150 152 153 152 149 147 148 147 148 151 151 148 144 132 121 113 108 92 88 77 76 90 104 111 115 107 104 102 97 91 80 69 51 39 11 7 8 9 8 12 12 12 12 12 12 12 12 11 30 29 15 151 212 196 137 47 115 154 152 152 152 153 153 154 155 159 163 159 159 157 162 163 163 161 163 161 159 162 154 153 149 151 148 147 150 153 151 155 153 153 155 151 152 152 155 160 160 150 149 153 150 153 151 147 140 133 127 115 105 95 86 77 75 88 106 114 114 107 110 107 96 91 82 68 47 71 83 4 9 8 13 12 12 12 11 12 12 12