P2
# Generated by OpenCV 4.2.0
92 112
255
66 72 62 54 29 23 16 32 37 28 27 20 18 20 27 27 29 34 35 36 34 37 43 48 54 45 35 47 49 42 46 49 50 45 46 53 60 43 45 40 47 52 61 67 72 86 101 100 93 103 99 99 89 87 80 81 78 86 76 70 71 69 70 69 64 68 67 81 70 67 70 63 66 62 61 58 50 84 76 70 76 79 113 51 28 73 114 96 63 85 88 87 31 37 31 22 23 30 23 32 32 26 22 16 26 27 22 28 36 33 35 41 41 36 50 48 47 49 41 41 46 38 43 44 43 47 49 44 45 43 47 45 45 47 59 72 74 81 92 103 98 107 116 115 108 105 103 99 98 103 97 91 91 86 84 81 82 78 82 75 67 61 62 59 57 51 59 60 68 73 61 65 71 83 118 103 55 34 105 117 80 80 92 91 26 29 26 25 24 25 31 34 22 21 20 20 29 30 22 27 38 29 33 40 47 45 43 47 43 41 43 40 43 46 41 40 43 51 57 58 48 45 53 60 55 54 56 68 74 77 91 99 109 116 133 134 132 131 140 130 124 123 118 118 113 105 105 103 99 86 77 76 76 67 60 60 61 60 66 70 64 55 49 57 61 80 105 104 98 51 86 132 103 68 93 94 35 31 26 25 21 24 35 28 19 20 20 24 32 30 22 29 38 37 34 36 43 46 45 45 40 36 32 34 39 43 46 53 60 61 66 69 63 57 62 65 62 62 62 60 69 82 95 101 113 128 142 144 148 155 158 149 145 144 136 137 132 124 126 129 112 103 98 96 85 79 73 69 76 70 59 55 54 58 54 57 55 65 89 92 105 99 86 122 119 66 94 100 32 30 25 21 21 29 33 23 15 17 20 25 26 33 27 28 21 35 38 39 40 39 43 44 37 35 37 41 46 53 62 67 74 78 81 82 82 81 77 74 72 74 77 75 73 84 97 112 124 138 149 154 159 163 164 159 155 157 151 152 146 144 138 138 131 132 137 125 114 97 89 78 80 75 60 59 60 70 80 50 47 66 76 65 76 90 85 99 122 85 101 106 33 28 25 28 29 28 27 22 14 9 17 31 28 37 33 20 12 20 21 22 30 38 39 39 43 46 48 54 59 68 78 89 103 114 120 116 115 122 118 107 104 109 106 104 100 97 105 116 133 144 153 156 163 165 166 163 159 162 162 163 163 158 155 152 154 154 150 149 145 131 119 102 98 88 71 62 61 73 83 81 77 60 67 62 69 70 84 74 86 83 99 113 27 25 28 35 29 24 28 18 8 6 26 31 32 33 29 21 22 9 15 29 33 40 46 49 53 59 65 73 82 96 109 123 132 134 137 138 136 137 134 131 126 128 128 125 121 117 117 129 141 149 157 160 168 169 169 165 163 161 165 168 167 161 157 158 166 166 161 157 150 144 134 121 121 111 85 67 64 63 72 75 89 88 81 80 85 69 64 62 57 71 95 120 10 20 30 28 26 22 30 14 8 12 29 28 29 26 31 27 29 25 32 39 51 52 60 66 69 77 83 95 117 129 135 139 141 139 138 143 145 145 144 143 142 144 141 135 132 129 130 139 148 154 157 164 172 168 165 166 166 163 164 170 167 167 169 176 174 169 172 173 172 164 146 130 122 116 104 85 72 58 58 78 79 86 96 98 93 109 111 97 56 61 81 117 18 28 27 24 20 23 25 13 23 16 28 27 25 29 43 35 45 43 47 64 72 68 74 82 88 101 114 125 135 140 142 140 140 142 143 143 144 144 145 149 151 153 154 149 147 144 142 147 153 156 160 168 167 166 165 165 167 168 169 171 176 177 177 176 175 173 180 189 187 174 159 157 152 143 123 113 104 81 59 65 85 81 86 100 96 86 86 112 113 99 91 123 22 24 21 16 20 25 17 4 14 9 26 27 27 32 64 42 56 47 64 79 82 83 97 111 122 130 136 137 139 142 142 143 139 137 142 141 140 143 145 150 152 154 158 158 159 154 151 154 157 159 166 172 169 168 168 167 169 173 176 177 178 177 180 182 185 188 193 197 194 185 177 169 163 163 145 112 100 104 80 51 59 70 73 71 64 59 77 83 102 158 105 95 14 20 20 16 18 22 10 11 15 7 17 24 26 39 63 42 59 57 80 85 91 105 117 125 135 140 142 144 142 141 141 143 140 141 141 143 146 145 150 151 150 150 154 158 160 157 156 159 161 166 172 168 166 170 171 171 171 172 174 177 178 179 179 185 189 190 197 200 202 195 185 174 167 168 162 135 101 92 94 67 51 59 68 61 58 50 56 78 83 117 93 52 17 20 13 14 12 18 6 19 18 8 16 22 36 36 50 49 54 66 86 94 108 118 125 132 135 140 145 146 142 139 142 143 143 143 146 151 151 149 153 152 150 148 152 161 162 159 159 166 167 170 169 168 170 173 172 173 176 176 177 178 180 182 184 190 191 197 204 203 203 198 190 185 184 177 171 151 118 93 94 85 63 60 59 61 58 56 47 54 75 69 70 50 17 10 8 8 16 15 2 30 16 8 16 38 41 25 46 51 53 79 97 105 113 122 129 135 140 142 142 145 147 146 144 146 146 147 149 151 149 151 152 153 152 153 159 162 164 163 167 171 168 169 170 171 171 171 173 173 177 176 177 181 183 187 188 194 201 201 202 202 207 204 200 199 197 198 183 161 134 102 98 95 75 64 52 47 61 71 68 58 67 67 65 40 8 8 7 6 16 9 13 30 12 21 28 43 22 26 51 48 62 91 101 103 112 123 130 137 143 140 144 147 147 147 148 151 150 152 151 150 152 153 151 153 156 163 163 163 165 170 172 171 169 172 176 177 178 175 175 177 177 177 177 182 186 188 190 197 203 201 205 204 204 206 203 204 201 203 195 177 150 115 100 94 78 66 60 59 62 61 71 70 52 68 59 50 8 9 8 13 17 12 31 26 22 22 32 21 14 27 49 46 68 100 103 102 113 128 135 140 140 140 147 148 148 153 153 152 150 150 152 154 155 157 158 159 161 163 163 162 164 171 173 172 172 174 175 176 175 176 176 175 179 181 180 183 187 191 193 201 203 206 209 210 207 205 202 204 202 205 201 189 167 127 100 94 80 67 60 62 59 50 70 93 72 52 46 53 12 11 9 21 12 26 36 29 28 27 21 4 6 21 41 46 83 102 103 113 134 141 143 144 146 147 148 151 152 154 152 151 152 154 155 155 155 157 158 159 158 159 161 157 160 169 171 170 170 173 174 173 174 177 177 174 177 181 180 186 188 189 196 200 207 209 208 207 207 206 205 203 204 204 198 190 183 140 106 104 92 68 63 61 62 61 73 91 91 60 32 31 17 9 14 22 12 43 34 27 33 24 6 19 18 13 27 55 89 100 104 125 138 143 144 148 144 149 147 146 150 154 155 154 157 157 154 154 155 156 158 160 161 164 165 162 163 170 169 172 174 176 178 174 175 175 177 178 180 179 182 186 188 191 198 200 204 206 205 206 205 210 209 206 207 205 201 200 189 162 121 109 97 82 65 58 59 68 71 78 98 92 45 27 15 15 27 14 21 46 32 30 24 15 20 27 29 22 35 63 82 101 116 137 139 142 145 146 143 146 143 142 154 156 158 158 156 153 153 155 157 157 158 160 164 163 162 160 161 170 171 172 176 174 174 173 174 172 175 177 178 178 181 184 187 192 196 197 201 203 205 207 204 206 204 205 205 209 205 199 184 164 134 116 96 81 72 64 65 69 73 68 85 90 73 42 21 31 22 10 26 39 29 25 24 30 27 21 24 39 56 65 89 112 130 139 139 142 148 144 146 148 150 151 155 158 160 158 153 149 152 155 157 157 159 162 163 162 162 159 162 173 177 176 174 174 176 175 175 173 174 176 176 179 181 184 188 190 192 198 204 201 201 199 199 202 201 201 206 207 206 199 184 164 141 113 92 65 61 67 73 86 88 71 71 69 67 53 34 25 8 18 33 37 17 18 23 17 15 21 36 52 61 71 100 120 134 139 142 143 144 143 147 150 151 153 154 156 155 154 152 153 153 154 156 158 159 159 158 161 161 161 167 174 177 177 174 178 174 169 173 172 172 176 180 179 180 183 184 188 192 200 201 204 204 199 193 197 201 204 207 206 203 199 187 167 144 120 96 78 63 59 64 82 91 80 73 68 63 62 19 8 17 31 35 25 21 24 12 12 17 31 48 58 62 83 104 126 135 141 142 139 138 147 151 151 150 151 152 152 151 154 153 154 152 154 157 159 160 161 163 163 162 165 170 175 175 175 175 176 170 168 172 173 173 175 177 175 178 180 184 187 190 197 202 204 203 201 196 194 197 204 206 207 204 199 194 170 144 124 97 96 88 70 66 72 92 91 67 60 61 63 9 15 28 31 37 27 17 11 16 22 26 42 50 54 67 93 115 133 138 139 139 137 145 148 150 152 152 150 150 155 154 153 151 153 154 155 158 157 157 158 162 161 162 168 171 175 176 173 170 173 170 168 168 169 170 173 172 173 174 177 179 183 186 191 198 201 199 197 196 195 199 206 205 205 207 205 194 172 148 131 100 87 93 85 74 65 72 91 91 66 62 56 19 22 23 31 34 21 16 14 19 18 35 48 47 61 81 96 124 138 135 136 138 141 148 148 146 151 153 152 151 151 152 152 151 151 150 151 151 149 152 156 156 157 163 169 172 172 172 169 167 167 165 163 164 165 168 169 172 173 172 175 176 180 184 190 196 200 198 197 196 196 201 206 207 207 207 208 193 168 145 140 112 86 84 96 73 65 54 80 97 84 62 59 20 25 23 30 15 19 28 30 22 23 39 45 48 64 82 103 129 136 135 140 142 144 149 149 148 152 152 150 148 150 150 147 148 149 149 150 151 153 155 157 156 160 166 169 172 169 171 170 166 162 162 165 165 166 166 170 173 173 175 176 179 183 186 195 202 200 199 195 196 199 203 207 209 209 207 204 192 171 143 134 118 88 80 94 75 65 68 73 82 83 78 57 25 26 26 21 9 20 22 23 26 36 42 46 53 65 87 107 128 135 137 139 142 147 149 150 152 151 152 148 146 148 146 148 152 152 152 153 156 157 157 158 158 160 163 168 171 174 173 168 161 160 162 165 165 166 167 169 172 173 176 177 182 186 190 198 204 204 201 198 196 199 200 203 208 209 205 203 197 172 147 125 116 89 81 90 89 51 65 84 84 62 57 62 29 23 27 19 14 16 19 16 22 44 42 46 56 72 89 109 127 132 137 137 141 149 150 151 152 149 146 148 147 149 153 154 154 153 154 156 157 159 161 158 162 167 168 171 172 175 172 166 161 159 161 164 166 165 168 172 176 179 182 182 181 188 192 199 205 206 207 204 201 199 202 202 204 203 201 200 201 181 151 125 110 89 83 87 102 66 54 64 83 72 48 39 32 28 22 19 10 18 20 19 32 43 41 50 60 71 88 110 124 132 137 137 143 148 149 149 149 149 149 150 151 156 158 158 158 158 159 159 159 160 163 163 166 169 171 172 178 177 173 169 166 162 161 162 165 168 174 177 180 181 183 184 187 190 195 200 205 206 207 207 205 202 204 203 203 202 198 196 202 185 164 125 107 87 77 91 103 85 65 67 65 73 51 45 29 16 25 22 19 21 19 23 36 39 44 54 58 74 93 110 122 132 137 137 143 147 147 147 149 151 151 152 156 158 161 162 165 163 159 157 162 165 167 168 166 172 173 175 182 177 172 171 168 162 163 164 168 175 180 180 180 185 188 188 192 195 200 202 206 208 208 208 206 204 203 205 202 201 199 194 194 183 165 135 108 89 70 87 96 94 64 82 70 63 45 42 18 22 29 16 22 26 21 26 34 34 49 54 59 76 91 109 126 128 136 139 140 144 145 150 150 153 152 154 159 160 163 164 169 164 162 161 165 168 167 167 167 173 177 179 181 178 174 170 168 165 166 170 178 182 183 184 186 189 193 194 195 197 200 204 206 209 208 209 210 207 205 206 205 202 199 194 188 178 170 146 113 90 66 75 75 78 61 76 62 53 49 39 21 34 16 11 27 27 20 28 29 34 49 49 62 80 100 116 127 128 136 135 138 141 146 149 151 153 154 159 163 164 165 165 166 165 164 167 167 166 165 168 167 173 183 186 184 180 176 170 170 170 169 173 181 187 185 184 188 189 189 194 194 195 198 202 202 202 202 205 205 207 208 210 207 202 199 193 185 180 179 156 126 90 63 62 60 59 58 67 55 36 45 46 28 30 9 17 30 22 20 26 23 39 45 51 66 84 106 125 128 131 131 132 138 142 147 151 151 154 156 160 165 168 167 166 165 162 163 164 163 161 164 163 167 175 180 185 190 185 177 172 172 171 173 179 181 182 184 176 176 180 176 173 182 172 189 189 191 195 194 197 191 195 203 207 208 204 200 193 186 187 185 161 138 96 65 53 50 41 46 57 46 26 37 48 34 24 14 16 25 15 16 18 24 45 45 54 69 91 113 125 130 131 129 130 136 144 151 154 151 152 153 156 159 158 153 155 145 128 137 149 152 152 150 150 160 173 178 183 188 183 179 177 174 172 174 177 179 178 173 167 160 163 160 151 150 136 143 135 154 166 173 173 173 178 182 193 202 204 203 197 187 188 184 172 153 108 67 52 43 34 40 44 43 32 31 45 32 9 7 12 18 14 13 18 35 47 42 53 78 109 123 125 130 127 123 127 136 146 150 150 144 142 142 135 124 105 84 82 91 99 106 133 141 133 126 142 149 168 175 185 187 181 180 177 177 175 176 175 172 170 165 155 145 134 128 136 123 118 107 99 105 106 105 116 140 152 154 171 178 191 205 202 189 190 191 186 159 118 71 46 44 32 36 35 37 30 27 44 29 5 0 6 13 9 17 25 40 38 42 66 98 122 128 127 128 121 119 133 143 137 117 114 117 114 101 85 68 62 69 70 64 84 95 111 137 122 125 138 150 159 166 182 183 177 171 173 173 175 172 168 169 163 157 147 139 123 104 118 109 113 109 99 98 89 86 95 103 113 124 135 149 165 188 206 192 187 195 191 160 129 86 44 39 42 34 35 34 23 18 38 28 11 1 10 8 8 17 31 33 32 50 85 114 126 130 129 125 120 123 129 126 105 93 96 88 73 67 60 57 58 68 79 75 74 81 96 123 113 120 133 145 146 163 176 177 170 168 167 163 169 169 162 165 162 154 143 137 122 110 108 108 107 94 86 82 79 80 80 90 97 101 108 120 126 142 172 186 186 198 186 171 141 97 49 43 50 41 38 37 23 17 36 27 19 3 7 8 12 20 28 30 40 71 107 123 126 134 131 124 121 120 107 90 88 84 75 68 62 63 69 69 69 76 81 88 89 94 98 98 109 113 129 134 138 159 168 167 167 168 167 164 165 166 161 162 158 144 134 130 125 125 117 113 105 101 100 97 102 105 110 107 108 110 98 97 108 127 148 176 183 191 189 184 149 105 54 38 34 36 44 43 28 20 31 24 16 11 13 4 13 19 21 34 55 91 120 126 124 133 130 122 119 104 82 76 73 72 77 79 89 105 104 106 113 113 110 113 115 115 113 108 118 120 120 131 145 156 161 163 165 165 166 164 159 162 161 157 155 145 137 134 133 135 132 130 134 134 137 145 144 143 137 140 136 129 130 122 130 131 127 149 173 188 195 189 165 122 70 52 45 25 38 51 32 23 34 20 19 21 15 2 3 9 24 46 69 104 122 126 123 128 125 121 108 88 88 99 94 85 89 105 116 130 138 141 139 140 133 128 125 123 115 109 112 116 118 127 140 149 156 159 162 166 165 164 166 164 158 151 149 146 142 139 136 133 134 137 136 139 147 150 150 154 154 154 151 150 149 146 132 110 106 130 162 176 193 189 178 143 78 49 50 43 38 53 50 29 32 20 27 26 10 3 9 12 38 58 77 108 120 124 125 127 120 112 103 84 82 96 115 114 114 127 133 137 138 141 142 145 143 139 132 122 113 102 97 101 109 117 126 138 149 153 160 165 169 174 177 171 161 153 149 143 138 135 131 129 129 129 121 119 120 120 116 116 116 123 135 140 144 148 144 141 144 147 166 175 189 189 182 163 94 50 30 48 45 36 44 43 35 22 25 21 4 8 11 17 49 63 87 106 122 124 126 126 120 102 85 80 85 98 112 118 121 128 130 129 125 120 117 114 107 100 90 87 84 73 74 83 90 106 117 127 139 149 157 165 175 182 183 179 174 158 150 146 140 133 130 129 115 102 101 99 76 50 42 36 31 49 71 92 119 145 157 159 152 157 179 180 180 190 184 168 108 64 34 28 38 35 41 35 33 20 21 21 4 13 20 31 52 64 91 108 118 125 127 126 116 112 107 107 105 109 118 124 122 116 101 89 76 63 50 39 39 33 26 45 64 76 71 69 76 88 103 118 134 151 157 163 179 188 187 188 177 164 156 153 137 132 128 112 115 124 109 91 62 60 55 49 66 44 33 56 74 107 146 162 164 167 184 183 181 188 184 174 121 70 48 28 30 34 50 34 26 24 19 20 10 23 36 38 48 61 82 105 116 126 128 126 117 122 119 122 124 126 123 117 101 71 54 47 47 56 74 40 42 100 121 68 22 58 90 92 85 80 92 112 133 156 166 166 174 184 188 197 184 168 165 146 127 121 115 123 122 105 105 142 106 81 111 94 66 53 42 36 54 78 123 154 165 172 185 188 183 188 184 180 147 83 47 38 36 35 39 30 25 24 21 16 13 27 29 36 46 56 84 113 123 126 128 126 118 126 133 127 124 125 119 88 37 27 31 37 50 71 95 64 60 64 81 61 49 60 66 83 94 92 90 108 129 148 160 164 173 180 188 196 189 172 162 141 126 124 127 111 94 118 166 183 139 66 48 47 56 75 90 80 59 63 100 145 152 165 187 192 183 185 183 181 144 83 38 35 37 45 32 16 20 25 20 17 13 21 27 32 40 59 87 120 127 128 128 121 122 130 127 128 122 113 94 57 52 70 81 92 94 93 88 94 101 113 117 124 124 123 113 108 119 124 102 106 128 143 155 162 171 179 187 198 187 176 161 143 142 136 114 101 111 121 120 120 119 108 106 103 103 113 152 171 154 118 106 137 147 149 167 179 180 188 187 181 146 80 30 31 27 42 116 150 77 60 56 39 24 25 24 24 41 65 90 120 129 128 129 122 113 122 123 117 110 99 87 98 120 131 134 137 134 132 129 130 133 141 149 152 150 147 149 150 148 134 119 117 128 140 155 162 167 177 188 198 190 178 167 157 160 158 158 152 145 142 137 132 131 136 138 138 143 154 173 186 183 174 160 150 148 156 171 184 183 191 189 186 148 84 36 34 59 117 172 211 190 106 95 80 50 27 19 20 44 69 92 123 129 131 131 125 127 138 141 128 112 104 108 130 143 147 150 150 152 149 144 145 143 144 149 148 145 144 145 144 137 137 135 126 129 141 155 159 165 173 185 194 194 181 179 176 173 162 153 153 152 149 148 149 147 151 152 158 162 166 175 179 181 177 176 175 174 180 185 190 187 192 190 187 158 82 47 52 129 170 179 195 196 118 122 121 82 43 27 22 44 68 93 125 131 129 130 126 130 139 140 141 139 139 141 135 131 136 144 145 144 142 140 142 138 137 140 141 148 146 141 137 141 146 137 129 132 145 154 155 163 171 186 195 197 188 183 182 176 170 163 155 151 152 151 147 146 148 147 149 155 159 161 167 171 171 176 183 185 192 195 191 188 191 189 188 165 90 54 80 147 163 169 173 171 74 102 116 92 75 38 24 42 65 99 126 129 128 128 124 124 134 140 142 142 146 150 150 146 144 140 140 140 141 141 144 144 147 152 158 156 150 148 147 146 145 136 131 137 147 149 154 163 171 184 193 198 196 187 184 179 175 173 169 164 158 157 153 153 150 152 154 157 162 169 179 184 185 184 189 191 191 195 192 189 190 187 191 176 116 61 89 143 138 100 81 105 56 64 97 85 83 53 26 50 71 106 127 129 132 131 128 127 136 140 137 144 152 153 154 159 159 156 155 156 155 158 162 164 162 163 162 156 153 157 154 143 141 139 136 142 148 149 154 161 170 184 194 199 197 192 190 188 186 180 181 182 176 173 173 171 164 162 163 167 173 180 180 184 187 191 199 203 193 193 192 189 189 190 194 180 132 96 113 127 116 84 78 101 65 74 97 82 75 59 36 57 77 114 129 130 134 134 131 131 136 135 136 147 151 147 154 156 157 159 159 160 162 164 164 163 162 159 156 156 160 155 148 142 143 144 141 142 146 149 156 163 173 184 192 194 196 196 194 193 194 190 183 186 184 183 184 184 180 178 177 179 178 180 184 188 191 191 195 203 198 189 191 192 191 189 195 183 141 125 145 177 152 116 92 111 77 91 114 98 98 62 49 65 82 116 130 132 131 129 130 131 134 133 141 146 140 150 160 158 159 161 163 161 160 160 159 158 159 157 158 157 155 151 145 143 148 149 146 142 144 148 157 168 176 182 189 193 194 197 200 199 198 197 190 178 179 183 187 185 183 177 177 181 180 182 186 191 196 203 202 198 198 194 190 194 196 192 192 185 159 156 179 217 196 133 103 113 83 100 129 109 94 64 62 74 82 115 131 133 130 130 130 132 134 140 147 138 142 159 158 158 160 164 164 161 160 160 158 157 155 161 161 153 151 148 149 150 151 148 144 143 146 151 155 163 172 181 190 197 198 198 202 205 207 203 200 185 178 178 181 180 179 181 180 179 181 186 193 197 204 209 208 205 195 197 194 191 196 194 194 188 165 163 194 218 215 149 118 118 83 106 131 115 92 84 79 80 85 118 132 134 131 131 130 131 137 148 145 141 152 158 159 160 161 167 167 162 162 164 161 163 163 160 157 156 154 155 155 156 151 144 143 144 148 154 158 162 170 181 192 199 203 202 203 207 208 209 206 198 188 181 181 178 176 180 184 181 181 187 196 198 202 210 211 208 201 198 198 193 196 197 195 193 167 136 153 189 196 166 122 136 81 115 138 134 102 71 75 85 88 118 132 133 132 131 132 135 140 147 139 145 150 159 162 165 165 166 169 164 165 165 160 163 166 161 158 160 161 160 154 151 143 140 141 145 148 157 159 164 171 180 189 197 207 206 201 204 204 192 193 196 195 190 185 183 181 181 187 187 189 189 196 200 206 213 211 207 206 203 200 197 200 200 197 197 168 133 139 170 192 177 124 150 83 122 140 123 98 65 65 85 87 121 133 132 133 134 136 135 144 143 139 147 153 160 164 166 168 164 168 169 169 166 163 165 170 168 161 159 155 151 147 139 134 137 138 144 152 157 157 161 168 176 189 202 214 209 200 197 199 192 176 178 185 190 191 188 186 185 186 190 192 195 197 203 211 218 212 208 207 206 202 200 202 202 198 198 165 130 136 154 178 177 128 156 83 128 135 118 95 77 69 85 86 121 133 134 134 136 137 138 145 140 142 149 154 160 167 166 168 167 167 174 175 170 171 172 172 169 163 157 148 140 137 138 138 135 134 143 155 160 160 162 168 179 188 205 222 207 202 195 189 193 190 171 171 175 179 183 184 186 186 191 196 196 197 204 212 220 217 212 209 206 202 201 203 204 198 196 163 126 133 150 177 181 138 164 81 131 139 120 96 75 67 88 86 121 133 134 135 138 139 140 144 138 145 149 155 161 166 173 169 169 171 174 176 176 174 172 167 163 160 153 142 135 142 147 146 142 141 146 160 169 166 169 182 190 193 208 224 206 203 196 187 187 191 180 167 168 169 172 174 182 187 192 196 199 201 207 216 219 215 211 210 206 202 205 207 206 200 192 161 128 135 154 182 182 148 162 86 123 132 115 93 70 72 100 85 122 133 132 134 139 141 144 144 140 145 150 156 163 169 172 172 173 173 175 179 176 172 166 164 161 157 144 131 138 148 151 152 149 146 145 161 168 167 179 190 200 204 206 215 204 203 198 201 201 191 176 166 165 162 160 167 175 181 186 193 200 202 209 215 215 213 210 209 207 203 206 208 208 199 187 160 139 140 160 188 179 157 152 92 122 128 106 93 75 89 111 78 114 131 134 134 139 142 144 144 139 143 149 154 163 169 169 172 171 172 173 177 175 168 164 163 160 150 126 120 140 149 155 159 153 147 142 156 162 165 171 178 190 199 199 200 197 203 207 209 208 194 167 157 163 160 160 164 169 176 181 189 197 198 206 210 209 207 207 208 209 205 202 205 207 197 179 178 158 147 172 197 174 168 131 100 120 135 117 112 96 108 108 86 111 132 131 131 139 142 143 140 140 144 148 152 159 164 168 168 169 171 171 171 168 165 164 161 157 137 119 118 131 136 141 146 149 143 135 146 155 159 163 168 175 183 187 187 182 188 192 187 182 179 164 158 158 157 157 161 165 171 179 184 191 194 201 207 205 205 205 205 210 206 199 205 204 195 174 180 167 157 182 204 169 178 101 110 118 144 136 125 106 129 117 87 108 129 132 132 137 142 144 139 137 144 148 149 155 160 165 166 166 166 169 169 165 162 162 160 151 130 124 122 117 115 108 98 102 119 130 131 140 147 152 162 168 172 174 173 174 166 147 145 150 155 157 166 163 156 151 156 161 167 176 183 186 187 194 200 202 201 202 203 205 207 201 202 202 192 165 160 155 152 181 204 166 179 83 121 119 143 131 118 102 122 121 92 104 121 133 130 136 141 144 142 137 142 145 148 152 158 160 162 163 164 167 168 164 160 160 158 143 129 130 129 117 102 81 63 50 57 84 114 128 136 143 148 158 164 165 161 133 96 82 93 130 153 166 172 163 154 148 148 155 164 173 179 182 181 187 191 197 198 197 199 201 206 203 202 201 186 158 144 166 172 187 196 166 164 67 129 117 143 127 113 106 102 101 96 101 120 129 128 134 142 142 141 137 141 142 144 147 153 156 158 159 160 160 163 159 157 152 150 137 128 130 134 136 126 108 106 107 100 88 100 121 129 137 141 146 156 158 143 137 138 137 149 177 174 173 171 160 156 149 144 146 155 167 170 177 179 181 184 192 196 196 197 195 202 201 201 197 184 156 138 174 207 202 178 174 135 37 116 114 130 142 131 128 103 81 100 104 118 120 114 126 137 141 139 138 140 139 140 144 150 155 157 154 154 156 156 155 151 145 143 140 133 129 129 134 138 140 132 126 125 120 109 105 113 126 127 134 149 149 159 172 181 186 191 185 174 172 170 161 153 148 137 139 149 156 165 172 178 181 183 189 195 195 195 194 202 204 200 191 176 163 153 185 214 190 162 186 92 31 76 124 103 131 148 148 122 93 93 103 114 116 106 122 132 140 137 138 140 141 140 140 145 151 152 154 154 152 151 147 139 137 139 141 141 139 132 125 127 128 134 127 119 120 114 102 100 111 110 132 151 150 158 167 184 185 177 171 163 167 171 163 149 146 134 121 133 147 159 164 172 178 181 189 190 187 188 193 199 203 203 189 169 172 173 195 211 172 168 177 52 55 33 126 111 102 139 155 136 110 91 85 109 116 108 122 131 141 139 141 139 138 136 136 141 146 149 152 148 146 141 129 128 133 134 139 144 142 141 132 122 114 118 110 101 113 111 112 105 102 115 136 148 145 143 151 171 167 152 152 161 165 168 160 150 148 139 116 105 130 149 156 167 176 180 186 187 187 188 192 197 204 202 190 165 172 174 193 206 169 184 142 25 67 5 106 129 99 123 135 140 122 85 84 108 106 100 116 131 140 141 142 142 137 131 134 141 146 150 150 145 136 124 121 132 140 136 133 133 137 132 131 121 102 94 93 98 100 102 125 146 142 141 147 152 145 138 141 146 150 135 134 158 159 165 163 152 145 145 134 106 98 132 151 163 172 178 185 187 187 188 192 197 203 199 190 175 167 176 199 206 184 192 104 30 73 0 79 137 99 101 128 138 114 84 88 106 111 112 123 132 138 135 140 145 137 131 136 142 146 150 147 138 128 124 127 135 132 128 127 127 130 118 116 105 81 78 79 91 100 127 148 159 152 151 161 154 141 132 145 129 131 128 130 150 155 160 168 152 140 145 142 133 104 100 135 154 170 182 184 188 185 188 189 199 198 193 186 182 162 169 200 208 210 194 84 45 73 1 49 133 77 85 127 118 96 88 98 107 115 120 124 133 131 135 143 146 139 134 138 144 151 151 145 136 126 128 136 130 116 112 120 122 131 110 100 90 79 80 92 103 124 146 159 158 152 153 152 156 162 154 146 131 131 136 140 142 151 155 159 152 141 138 139 140 133 103 103 141 166 184 190 190 186 186 191 199 201 190 175 167 156 174 204 206 214 199 77 49 70 11 24 111 56 57 116 126 94 87 106 107 112 123 126 124 129 141 145 147 141 136 139 144 151 154 151 136 121 127 128 114 104 112 115 116 125 116 103 94 92 108 124 133 144 155 162 163 162 162 164 171 176 175 168 168 164 162 167 167 147 151 159 155 146 129 127 138 142 129 96 119 154 180 193 193 187 185 194 197 197 183 173 161 156 163 184 206 205 203 93 48 58 19 12 88 53 34 89 128 92 72 102 102 105 116 128 119 127 138 142 147 140 137 141 147 154 157 151 133 120 110 109 101 110 123 118 116 132 134 126 125 134 145 151 151 147 155 159 166 173 174 177 181 179 177 179 188 198 194 197 193 178 172 168 166 147 134 120 143 147 142 118 99 141 172 192 195 187 182 189 193 190 183 165 159 155 163 162 189 200 196 99 54 48 17 13 58 40 15 55 117 82 56 85 88 105 119 126 124 128 133 136 140 137 138 139 150 153 159 155 125 104 102 102 106 115 118 123 131 138 140 139 138 134 133 131 128 130 131 136 144 151 157 149 143 145 150 156 160 167 172 175 181 189 182 173 170 148 145 134 127 137 135 130 104 134 169 191 196 188 182 183 186 181 172 161 158 152 140 148 145 179 172 67 48 57 22 9 23 32 5 16 74 68 40 72 88 88 103 117 118 118 126 131 131 128 135 138 147 157 166 151 106 110 105 112 112 109 122 133 136 127 119 113 106 101 99 101 104 106 108 113 117 121 127 125 121 126 122 122 123 124 130 135 145 156 167 170 171 156 149 148 125 131 127 122 112 135 168 187 195 187 181 180 180 179 178 169 155 129 98 129 127 127 101 43 49 58 22 10 11 17 12 22 25 37 30 58 80 79 104 118 116 117 128 127 119 121 124 131 146 159 164 141 127 118 108 112 108 112 113 109 98 91 86 81 83 81 75 74 78 79 81 86 90 97 110 106 104 110 102 98 101 99 99 114 108 108 114 123 139 151 160 153 136 130 120 117 119 144 170 187 195 182 175 167 171 179 181 173 160 103 50 62 72 50 45 40 45 79 17 16 23 18 26 14 1 3 16 50 83 85 106 113 115 116 123 120 101 109 109 124 147 161 167 164 147 124 128 123 113 80 59 55 62 81 89 84 133 143 108 121 131 102 99 131 137 109 97 119 170 191 160 152 183 157 158 200 147 109 101 82 73 82 104 128 132 123 124 117 117 154 175 185 185 169 152 156 162 183 180 172 145 81 30 26 34 41 46 49 65 78 14 27 20 21 19 3 1 1 2 37 74 88 104 113 111 119 114 120 99 102 105 120 137 162 170 164 147 144 151 147 131 77 53 66 98 108 156 125 160 187 153 166 197 157 160 194 204 194 150 191 230 240 210 194 229 195 204 225 179 182 159 146 87 55 60 92 140 140 132 128 127 154 175 182 185 159 140 159 163 177 177 166 141 75 27 29 49 64 70 76 74 44 21 23 11 19 15 4 2 2 8 18 68 91 101 100 106 115 109 118 98 98 102 112 134 160 175 176 169 155 159 155 150 128 98 93 119 124 181 170 162 180 171 178 207 203 198 207 208 218 205 215 220 220 218 222 229 215 208 211 201 213 194 194 121 100 114 133 161 155 140 132 155 167 169 176 175 156 145 158 175 168 167 160 124 49 21 24 55 47 57 59 51 47 17 13 8 18 9 2 5 1 8 12 52 93 95 102 109 111 108 123 102 88 84 108 132 156 165 177 173 154 156 158 154 156 146 118 108 124 150 161 163 176 168 175 200 211 198 202 206 210 210 214 214 216 211 210 220 196 207 211 203 200 189 161 126 129 155 168 168 157 135 139 163 177 173 175 171 147 151 164 177 165 160 144 99 41 15 16 57 46 27 50 49 60 11 9 11 16 4 2 1 1 4 7 32 87 91 99 103 110 111 119 108 97 80 92 119 144 155 169 178 168 161 165 161 157 159 145 125 113 118 121 107 154 127 98 137 110 145 201 199 190 148 164 188 204 171 116 126 111 183 167 160 163 134 130 134 155 181 175 170 167 141 151 166 178 175 175 159 139 148 170 175 162 153 125 71 39 27 14 33 61 53 51 57 58 18 16 10 10 3 2 0 0 1 5 17 63 88 101 95 99 107 116 108 99 84 84 105 126 144 167 176 171 164 166 161 158 156 159 150 133 120 112 103 102 82 72 61 63 85 107 102 82 54 60 90 111 117 117 120 134 144 122 132 141 144 156 171 184 182 170 174 170 152 157 162 177 178 167 151 130 142 174 175 158 142 101 49 26 35 33 24 44 55 59 70 74 36 31 8 7 5 0 0 2 1 1 5 48 95 99 84 90 104 119 111 116 92 97 101 106 134 167 173 173 170 163 163 161 154 157 160 153 144 133 125 123 121 113 102 102 101 84 88 97 100 101 118 124 127 136 138 140 138 144 152 166 186 200 201 197 186 180 176 165 155 159 164 181 183 161 129 125 146 176 171 156 122 76 50 27 33 41 33 31 37 47 56 56 25 20 10 6 4 0 1 1 7 4 15 36 96 104 99 102 94 110 102 121 100 100 97 99 130 158 170 175 180 169 162 163 159 159 163 158 152 149 148 142 132 131 133 131 127 128 134 140 144 144 141 138 139 141 144 144 153 163 186 208 210 212 209 202 193 186 174 169 172 165 170 177 176 157 131 132 162 172 156 142 113 52 39 28 29 37 36 32 39 29 34 48 6 27 17 4 4 6 1 5 15 4 8 19 76 97 98 101 88 101 108 110 115 91 85 90 114 152 169 171 181 176 159 164 163 157 157 163 159 154 159 157 152 144 142 143 143 146 146 151 152 149 151 150 147 144 150 161 179 203 217 209 205 211 211 202 195 188 175 175 183 164 163 183 171 141 124 137 161 165 143 123 80 34 19 19 27 31 32 37 40 28 34 46 2 23 27 17 19 7 3 20 18 2 4 10 58 94 97 93 83 95 109 113 117 94 92 85 107 145 166 180 186 183 165 158 161 160 158 162 160 155 158 159 158 147 143 144 152 160 162 160 161 157 157 157 162 176 180 178 184 199 204 202 206 205 205 202 195 186 182 183 186 184 172 174 159 126 122 148 148 143 117 107 61 32 26 16 22 22 26 46 48 37 29 26 6 15 23 23 16 4 21 28 9 2 10 13 41 81 93 96 93 100 105 104 100 101 94 86 100 129 148 168 183 189 172 157 159 162 162 160 161 156 157 158 160 161 156 152 151 157 165 167 172 172 167 168 173 179 177 174 181 191 200 204 204 204 206 205 194 189 188 191 190 185 182 169 146 130 134 145 131 112 123 91 51 28 23 21 22 26 28 29 34 34 28 21 14 11 14 21 19 20 30 18 3 5 21 9 27 81 86 96 110 104 92 83 85 85 90 97 100 118 140 157 182 189 178 164 158 159 162 163 158 158 157 152 153 162 159 159 161 161 163 164 168 166 164 165 169 171 175 179 184 193 198 204 205 207 208 205 199 191 189 189 183 184 178 158 142 136 131 142 122 100 126 71 33 25 17 20 22 33 31 24 26 26 28 47 21 16 17 15 24 22 18 7 4 15 18 3 11 84 85 92 104 96 73 73 75 80 78 88 98 111 126 141 161 174 179 171 162 158 160 162 162 157 153 154 152 154 156 162 165 165 163 167 167 167 168 167 169 176 181 181 184 193 198 205 209 210 207 202 200 190 179 173 171 165 159 144 124 126 135 134 102 101 95 36 27 25 22 20 17 35 41 38 37 31 35 81 18 15 18 18 19 17 5 3 10 18 10 14 13 75 101 95 92 79 75 80 77 66 83 88 98 99 120 147 162 177 179 170 165 161 160 160 163 163 157 155 157 154 152 153 156 158 156 160 165 166 164 164 168 174 177 174 180 189 196 202 208 209 205 201 198 188 181 170 168 165 150 131 114 110 126 117 99 121 64 25 16 21 26 19 20 26 35 41 46 41 44 78 21 21 20 16 9 9 5 12 13 10 7 27 20 66 102 93 91 87 75 73 77 82 85 77 80 85 121 142 160 177 168 162 167 166 161 159 158 161 162 158 155 157 155 148 151 149 138 146 156 162 159 157 159 166 170 173 179 190 197 202 206 208 204 200 208 195 180 174 169 171 139 114 103 96 109 98 125 110 46 23 18 19 23 24 21 21 26 46 55 49 46 38 29 22 21 12 6 11 15 14 10 11 12 18 21 66 103 97 91 83 70 72 80 90 78 69 78 91 104 121 143 163 158 166 171 173 165 157 156 158 163 160 158 163 164 164 160 145 141 148 153 154 157 155 169 172 175 179 186 190 196 200 204 204 203 205 205 193 175 170 156 156 116 93 99 105 91 94 129 81 32 20 20 22 25 35 30 25 33 42 57 61 68 80 28 27 28 20 19 21 20 12 18 28 24 15 14 67 107 110 93 91 97 95 86 85 83 78 79 92 96 101 124 138 154 165 165 178 171 164 160 159 160 159 158 161 166 169 167 160 161 163 162 163 169 170 180 184 185 186 189 192 195 200 203 202 206 202 189 181 176 154 149 133 93 93 106 97 86 109 125 69 22 18 24 28 34 41 40 44 53 57 65 66 74 101 26 22 16 9 9 18 18 15 20 29 25 4 4 76 112 106 96 88 86 93 94 90 90 93 85 82 85 86 107 132 147 158 161 178 177 172 165 161 161 161 162 162 164 169 172 174 173 175 173 173 181 183 185 187 191 194 197 196 196 198 202 204 206 207 192 172 167 157 144 125 87 97 104 86 84 109 140 79 32 33 36 36 32 32 36 38 56 65 71 66 68 99 28 23 4 3 9 6 9 17 14 5 4 15 23 83 118 118 110 94 80 82 75 81 92 94 85 81 76 79 89 115 129 133 155 167 179 180 173 169 166 163 165 166 167 171 175 174 176 178 180 180 188 193 189 191 195 194 196 201 199 200 203 206 209 212 203 167 150 146 136 117 98 119 103 76 82 130 153 79 38 39 39 40 45 30 45 39 59 63 73 73 67 99 40 26 12 1 11 10 10 12 6 5 24 36 32 88 124 129 126 108 81 78 66 70 88 88 91 86 75 72 86 113 106 115 138 159 177 178 177 174 169 166 166 169 170 172 173 173 176 180 179 180 185 193 195 195 197 198 199 203 203 204 202 209 209 202 193 162 144 131 131 128 115 113 84 76 128 167 168 87 43 38 47 41 51 41 48 47 59 68 74 78 69 93 52 33 26 20 17 18 16 19 19 33 54 50 44 95 131 136 130 122 102 84 72 71 85 84 83 90 72 68 82 89 76 95 129 139 155 168 178 177 170 172 170 171 168 167 171 173 172 176 182 183 185 192 194 195 196 195 199 202 200 202 202 207 206 193 182 156 145 128 106 121 121 98 81 119 172 181 176 94 54 45 64 50 64 54 47 43 49 66 75 64 69 85 51 48 31 25 25 18 21 27 50 74 70 63 53 100 136 137 133 129 118 102 79 62 74 64 66 76 70 72 65 66 64 88 105 115 138 160 177 176 173 170 170 171 168 164 164 167 172 171 176 182 183 189 194 190 192 195 198 202 202 199 198 200 200 175 166 165 137 106 95 113 112 78 119 166 187 188 178 100 66 59 59 45 58 58 41 36 48 64 62 55 70 77 50 51 49 36 31 28 28 65 94 87 75 66 50 105 138 138 135 134 129 118 94 62 60 66 56 61 70 81 58 54 65 89 83 105 135 145 154 170 178 175 172 168 169 159 154 154 166 175 182 177 181 182 188 189 188 192 195 191 193 189 184 189 192 162 135 149 111 82 101 103 79 85 155 185 194 194 188 113 91 93 62 40 33 46 42 33 41 52 45 60 74 73 51 50 53 53 49 43 65 104 94 81 78 66 49 107 139 141 140 139 137 123 106 86 58 57 62 63 75 74 46 54 67 82 94 108 133 130 143 160 160 159 166 163 153 146 159 156 157 175 175 173 179 178 182 187 179 179 183 178 181 175 185 195 178 145 105 114 82 72 92 91 77 137 189 193 194 196 197 115 83 132 111 63 39 47 65 49 28 36 49 70 71 69 52 51 50 48 51 67 99 101 85 78 78 66 47 107 139 141 140 144 139 127 124 115 89 63 55 57 53 44 46 48 55 75 101 99 110 113 129 135 135 146 140 147 140 136 157 157 157 173 172 178 174 170 181 167 163 166 167 166 162 179 189 184 169 128 98 90 68 72 92 93 117 178 195 192 195 197 198 119 72 89 92 77 66 65 63 62 82 96 73 58 64 66 49 46 47 63 80 94 109 91 83 84 76 62 46 107 140 140 139 143 144 136 132 120 105 84 63 47 47 50 50 46 53 67 79 94 101 97 108 128 145 132 125 143 150 147 167 169 155 164 184 178 163 166 176 166 163 155 162 157 146 168 160 154 145 117 85 66 62 76 81 94 150 190 197 194 195 197 198 120 76 99 117 127 121 86 82 119 149 169 154 106 58 52 48 66 90 99 87 106 103 88 85 83 70 60 38 105 141 141 140 140 142 141 137 125 111 95 78 57 50 57 51 48 50 56 59 80 89 86 96 124 133 109 116 139 147 153 160 170 158 166 178 163 140 148 166 169 169 160 157 150 139 151 144 139 126 106 84 61 71 83 101 142 181 196 195 194 195 197 197 122 76 110 137 146 164 144 129 152 167 168 162 173 151 83 107 115 102 79 89 112 92 84 82 79 68 55 22 106 142 140 141 143 142 140 141 136 126 104 83 72 59 50 56 54 48 48 43 57 71 78 85 107 107 95 127 132 128 141 147 159 156 153 169 149 141 142 157 163 147 150 145 145 146 145 135 114 102 98 69 69 81 92 142 183 188 195 196 195 194 196 197 124 77 108 140 161 175 173 149 156 172 167 149 154 188 179 118 95 81 75 104 106 90 88 85 73 66 40 10 107 144 139 138 143 142 141 142 140 136 119 94 73 63 52 54 55 54 48 48 48 61 82 77 81 86 102 126 122 108 127 140 151 143 138 148 147 152 141 140 149 134 130 138 137 133 137 109 100 76 72 66 84 83 90 154 190 192 193 196 197 195 195 198 122 69 105 138 157 170 183 163 153 163 172 149 142 169 184 95 84 77 87 115 97 88 89 83 74 65 24 18 109 141 139 139 143 143 141 141 141 141 131 106 87 74 62 54 51 50 49 49 43 48 60 75 76 83 97 102 108 106 114 129 133 128 127 133 136 139 124 122 136 125 119 120 134 123 112 92 80 52 62 71 86 94 125 162 182 196 197 197 197 195 196 201 121 68 107 127 152 168 184 180 158 155 167 164 138 160 176 85 80 77 100 110 90 86 89 82 74 55 16 35 109 138 136 139 142 143 141 139 141 139 130 122 100 88 71 64 53 47 46 43 37 36 37 61 62 69 77 85 94 104 97 114 118 120 125 123 123 131 118 118 125 115 108 103 119 107 92 75 49 48 73 78 90 129 172 182 191 195 198 198 198 197 195 201 116 62 107 127 154 174 186 190 173 162 171 163 138 140 165 80 76 84 111 99 89 89 87 80 72 45 24 48 103 134 136 138 141 140 140 143 140 137 134 132 122 103 81 71 60 51 51 49 44 35 39 44 45 55 63 75 76 89 90 103 111 111 116 113 113 108 107 107 100 103 97 85 91 75 52 39 54 64 71 81 104 135 168 184 191 193 197 199 200 197 194 203 110 54 103 118 146 172 187 194 187 170 170 169 149 135 153 77 77 100 112 98 90 91 88 77 68 38 36 50 97 132 134 138 142 139 138 144 142 134 130 132 126 107 95 77 64 60 53 48 56 50 44 35 36 40 49 61 66 70 79 86 90 85 92 103 99 87 89 86 77 82 71 61 63 53 44 49 75 76 77 95 105 126 153 184 192 194 198 198 200 198 194 203 110 44 103 117 145 169 185 193 191 175 165 163 157 146 150 75 84 111 113 100 91 92 86 78 63 38 48 50 89 131 134 139 140 140 140 145 144 138 132 127 125 113 101 84 68 72 62 55 59 59 60 51 39 34 32 42 54 51 50 63 67 72 77 79 74 62 53 63 57 55 58 49 47 57 71 74 82 89 83 95 103 141 166 183 193 195 197 198 199 195 193 197 107 38 101 120 139 161 185 192 191 186 169 155 153 158 152 77 92 113 109 95 91 91 86 75 59 39 55 48 84 128 132 137 139 141 141 142 144 138 133 129 127 124 116 95 76 80 79 69 62 67 63 60 50 47 42 37 40 38 34 43 51 46 45 56 52 41 37 40 41 36 47 57 66 73 83 90 89 83 90 124 140 171 184 191 190 193 194 196 200 197 197 196 106 35 102 122 138 157 182 191 194 187 171 152 151 153 148 76 95 116 103 91 88 86 85 77 56 44 62 51 77 124 131 136 140 140 142 138 136 138 135 129 128 123 118 113 96 81 77 72 58 55 61 65 69 62 58 54 51 47 39 38 46 36 37 52 48 38 43 44 40 45 60 65 70 78 84 83 93 95 122 137 155 185 190 190 192 193 190 196 199 199 197 194 99 36 100 120 130 152 179 192 194 189 175 156 146 145 148 82 103 115 103 90 85 86 83 78 55 48 67 51 71 118 130 136 138 140 140 137 134 139 142 138 126 114 113 113 103 95 80 71 71 64 72 71 72 66 65 64 64 59 55 56 60 58 59 63 57 44 45 44 49 65 63 55 70 81 88 80 102 138 155 146 164 185 192 192 192 195 197 198 198 197 196 187 93 42 99 114 123 149 177 194 189 190 181 164 148 142 144 89 113 114 105 92 85 86 83 76 51 52 72 57 68 107 128 135 141 141 140 137 137 138 140 137 125 118 119 119 107 102 96 90 90 81 76 72 69 66 66 70 72 71 67 68 70 71 67 56 50 51 52 56 69 77 64 59 79 90 90 100 129 143 149 169 179 186 191 191 188 186 195 197 197 196 195 177 86 48 98 108 121 146 172 192 188 182 184 169 151 143 145