P2
# Generated by OpenCV 4.2.0
92 112
255
26 12 11 14 12 13 24 36 42 31 25 25 13 13 35 39 46 32 41 55 54 55 75 63 50 59 71 73 91 94 97 134 160 147 174 171 179 187 182 179 181 179 172 167 153 129 128 134 118 112 114 105 110 71 92 95 73 68 77 61 43 38 36 33 33 30 30 20 15 15 21 31 20 19 14 10 14 17 19 18 20 24 11 9 15 18 28 32 18 16 18 29 15 20 16 15 22 30 37 30 18 11 13 21 22 38 53 60 63 59 67 74 65 63 68 60 53 62 70 76 84 97 110 132 137 155 169 189 198 196 194 195 196 193 184 190 177 159 164 153 141 145 136 125 118 95 116 112 89 85 87 76 70 64 57 49 40 42 39 30 25 19 22 36 32 18 14 8 10 14 20 18 21 16 9 11 13 14 29 20 14 17 19 22 8 15 19 20 24 33 30 17 11 16 28 39 50 65 69 70 75 89 96 103 80 86 81 50 45 54 72 87 96 107 121 137 141 157 185 204 214 212 208 211 210 205 198 205 198 187 185 169 173 170 152 149 138 129 131 126 123 111 109 102 92 84 74 66 64 56 53 48 37 31 20 25 45 32 13 14 21 9 18 17 15 9 9 13 11 22 27 12 15 17 20 22 15 8 14 21 15 25 25 14 15 25 34 41 54 64 78 88 96 114 128 139 107 94 101 54 51 54 75 97 108 112 125 139 152 171 197 211 217 218 215 215 213 214 205 201 205 200 194 187 189 177 166 161 159 151 146 142 127 124 121 115 106 98 93 86 72 72 62 57 46 30 17 12 28 46 22 26 17 8 15 16 13 10 14 14 13 29 13 12 14 14 15 16 12 9 16 31 32 26 18 17 18 20 27 42 54 67 90 114 134 153 169 175 160 126 128 108 78 94 107 116 124 130 137 141 172 191 205 216 221 220 219 217 216 217 213 211 205 202 200 196 190 188 187 178 169 167 166 157 146 135 132 128 127 116 115 111 94 76 73 60 50 41 31 18 13 38 39 23 13 13 15 16 11 14 12 10 22 14 9 12 11 9 12 15 13 9 19 30 36 35 19 14 18 33 56 70 81 98 123 144 166 186 191 196 196 180 164 167 155 145 144 139 138 153 159 165 183 201 217 222 224 221 219 220 222 219 218 216 214 212 208 201 198 194 194 194 179 171 176 165 161 144 143 137 142 137 126 123 111 95 84 76 61 53 43 33 22 31 45 16 11 14 14 15 13 12 9 12 11 10 9 9 9 10 14 19 5 18 28 24 18 31 19 14 30 47 65 79 108 134 157 174 193 199 202 206 205 202 195 187 187 180 175 156 152 159 167 188 202 213 224 225 223 220 219 220 222 222 221 221 216 214 210 202 203 200 194 194 185 178 179 173 172 155 152 156 151 150 145 140 139 119 103 94 71 61 48 36 31 29 39 29 13 11 10 12 15 14 12 14 14 15 12 9 11 15 22 19 3 19 34 26 20 22 22 34 55 71 90 111 137 162 182 193 204 206 208 210 210 209 207 202 201 199 198 193 174 176 191 200 214 218 220 223 220 220 220 221 221 221 219 219 215 215 210 206 203 201 199 197 191 185 186 179 175 170 164 166 155 158 155 150 150 136 116 106 85 68 55 46 32 23 34 35 23 12 8 6 7 13 16 18 17 12 12 11 14 18 14 11 5 16 25 20 23 22 26 47 63 91 122 143 163 183 194 203 207 209 210 213 213 211 212 209 208 211 215 211 208 197 199 205 214 220 220 221 218 220 221 220 219 220 219 217 214 213 211 206 203 203 200 198 191 188 186 183 178 176 167 169 171 159 163 160 154 141 127 116 96 74 63 53 40 25 36 42 28 11 9 8 9 10 12 12 15 13 11 11 11 11 8 10 6 8 19 14 19 25 40 73 98 130 148 163 178 191 198 204 209 209 211 214 212 212 216 213 212 214 213 216 219 213 208 212 219 221 219 218 218 221 219 219 219 218 216 214 213 207 208 207 201 201 198 198 192 189 185 183 180 181 175 166 174 175 165 162 152 143 134 126 112 89 73 61 52 43 36 47 43 21 9 9 13 12 10 9 9 11 10 6 5 5 7 7 9 4 13 17 20 30 71 106 139 154 165 181 188 197 200 203 209 208 211 214 211 213 214 216 213 212 210 217 218 218 219 222 221 218 216 217 219 217 218 219 219 217 215 214 211 208 207 209 203 199 197 195 193 190 185 185 178 178 185 176 171 177 174 171 164 153 144 139 129 106 90 70 59 49 33 40 40 32 20 9 8 11 10 7 8 8 6 5 4 4 7 9 14 8 13 21 28 53 103 147 160 170 178 188 193 198 201 203 210 210 212 213 214 213 215 217 215 214 215 217 218 221 222 224 221 216 216 219 218 216 218 218 217 213 213 215 213 214 210 208 202 198 196 194 192 191 186 187 183 180 181 183 179 174 174 171 161 162 149 145 135 113 92 83 71 62 45 28 33 20 19 14 10 7 11 9 7 7 6 5 5 6 7 10 11 6 10 27 43 80 138 161 176 183 183 186 196 201 199 204 207 208 212 215 216 214 217 218 216 216 215 219 221 220 220 219 219 217 218 219 214 217 218 218 214 214 216 215 212 210 207 202 201 196 194 192 192 185 186 185 183 184 183 182 181 179 179 173 163 159 154 145 139 126 101 82 66 53 49 39 29 17 12 16 13 9 9 9 7 7 6 5 5 6 8 13 8 3 9 39 53 124 161 171 184 186 186 188 195 200 202 205 207 211 211 213 213 214 216 217 217 216 215 215 219 220 218 218 217 217 215 217 218 216 216 217 215 214 214 213 210 206 205 203 199 196 195 189 190 187 183 183 184 186 185 182 181 182 181 173 166 165 161 149 134 122 105 85 68 46 38 30 27 20 13 11 11 9 7 8 6 5 5 6 8 7 12 12 8 5 20 45 83 152 173 176 186 189 187 187 195 198 201 205 208 209 210 213 214 214 215 215 216 216 214 213 215 217 219 219 217 215 213 214 215 215 215 215 212 210 211 211 209 206 204 202 200 197 194 189 184 182 183 184 184 184 185 186 187 185 181 174 170 167 166 151 136 123 102 78 60 48 35 25 18 26 20 6 4 9 8 7 6 3 3 4 7 8 10 7 7 12 31 57 112 169 182 185 191 190 190 189 195 197 200 203 206 206 209 212 215 215 214 214 215 215 214 215 214 214 214 217 217 214 213 215 217 216 216 215 214 212 212 211 210 206 202 199 195 192 188 186 184 179 184 182 184 188 186 187 189 186 181 174 174 173 166 150 136 127 112 85 65 51 37 29 27 21 21 9 4 4 5 6 6 8 6 6 9 8 8 10 7 17 43 65 128 179 186 190 190 191 194 193 195 197 202 202 204 205 210 213 212 216 215 213 215 217 215 215 216 219 218 218 215 216 218 217 217 214 214 215 216 214 214 208 206 202 200 198 190 187 184 185 180 178 185 186 187 191 191 188 189 187 182 178 177 177 166 153 140 114 100 90 75 55 45 28 24 30 18 12 3 2 3 4 6 7 5 4 6 10 11 6 5 34 49 72 141 184 189 190 193 192 192 193 195 199 203 203 200 199 207 212 213 214 218 217 217 216 215 215 215 218 218 215 213 212 214 214 217 216 214 215 213 215 211 203 205 204 203 198 195 191 189 188 181 181 186 187 188 193 193 191 191 188 185 180 178 177 169 157 141 119 99 81 67 56 41 37 31 24 22 12 5 3 4 6 4 4 4 4 6 8 15 24 18 35 38 83 147 180 190 190 192 195 193 193 198 200 198 199 200 199 204 210 212 214 217 215 213 212 215 215 215 217 215 211 214 211 211 216 218 220 217 214 213 216 211 206 207 206 204 196 196 193 190 185 186 188 191 192 195 196 192 192 189 187 184 181 180 175 168 160 145 123 106 90 67 51 34 31 33 21 20 15 6 3 6 10 8 6 9 15 19 25 28 19 22 29 38 90 150 181 190 190 192 197 193 196 200 199 198 200 202 204 207 211 215 212 215 216 214 213 214 215 214 215 213 209 213 216 216 218 217 216 216 216 218 215 212 206 206 202 199 193 196 196 194 190 186 189 189 192 196 194 193 193 189 185 185 180 173 173 169 160 144 124 105 84 69 54 40 22 18 23 20 14 6 3 4 3 4 5 6 11 14 12 4 3 25 25 41 96 159 183 191 193 191 197 193 192 199 200 200 200 199 201 205 209 215 215 217 216 214 211 214 215 216 215 211 212 214 216 214 208 212 218 218 219 216 211 208 205 207 204 198 197 196 197 195 192 189 191 192 194 195 195 193 193 190 187 187 181 174 169 169 157 144 128 107 84 62 41 36 27 16 15 19 13 8 3 3 2 2 3 3 2 3 3 3 4 24 32 50 108 159 181 193 194 193 195 194 191 196 199 199 200 202 204 206 208 215 216 216 216 215 217 217 216 217 210 211 215 214 216 216 214 217 219 218 218 216 211 213 212 206 206 205 203 199 197 193 191 195 193 194 195 195 197 193 188 190 189 186 180 175 172 170 158 143 123 97 82 68 46 27 21 14 11 13 12 10 3 3 3 3 1 1 3 4 4 4 4 28 33 52 111 159 185 191 193 197 196 194 194 196 196 200 204 205 207 209 213 215 217 215 216 216 220 217 216 216 212 212 214 215 217 217 220 221 220 219 217 215 215 216 210 208 207 206 205 200 199 195 194 193 194 195 196 195 194 189 188 191 188 185 178 172 171 169 161 145 122 105 94 84 60 42 23 12 10 8 12 9 3 3 4 3 1 2 3 4 4 4 4 24 22 48 111 161 185 191 194 199 201 197 197 199 201 204 205 205 205 209 212 215 216 216 216 217 218 219 218 217 217 212 212 214 216 217 219 218 218 222 218 218 217 215 212 210 209 206 204 199 200 197 195 193 194 193 193 189 189 189 191 192 188 184 176 169 167 164 162 149 134 123 101 92 76 53 33 18 11 9 11 8 2 3 3 3 3 2 4 4 4 3 4 18 18 47 113 159 183 192 194 197 200 201 201 201 203 206 206 205 207 210 213 214 214 216 217 218 217 220 222 221 216 213 214 215 217 219 221 219 219 223 223 223 220 219 217 211 211 208 206 203 203 202 202 197 196 195 193 190 190 190 190 189 186 180 171 171 167 166 163 149 134 118 105 93 73 58 42 27 18 12 6 6 3 3 3 4 4 3 3 4 5 5 4 16 26 51 104 155 182 191 194 197 200 200 203 201 205 205 206 208 207 211 215 215 214 216 219 218 218 219 221 219 216 213 214 214 216 219 222 223 221 221 222 218 218 218 216 214 214 205 203 207 203 201 198 196 194 192 192 192 193 190 189 186 176 169 172 174 165 162 155 141 127 115 110 95 84 66 49 29 17 12 8 5 3 3 4 6 4 4 3 3 4 5 4 26 22 40 93 152 181 190 193 197 199 202 202 203 204 204 206 210 213 214 217 216 213 217 219 217 217 220 218 218 217 216 218 218 219 221 221 223 224 222 223 222 221 216 215 213 213 208 204 206 204 197 198 197 195 193 191 192 190 188 188 184 175 171 168 169 160 154 148 137 123 120 117 105 91 70 52 28 15 11 8 5 3 6 4 4 3 4 4 3 2 5 4 20 17 39 98 158 180 188 192 196 197 202 203 203 206 209 209 209 212 214 214 219 218 217 220 219 220 221 220 217 216 215 218 218 217 219 221 222 221 222 223 221 218 217 215 213 210 206 204 205 203 199 199 197 194 195 193 193 191 187 188 185 183 179 170 161 160 154 150 138 129 130 123 112 102 78 55 37 20 12 9 6 5 3 2 2 3 4 7 7 5 3 4 19 28 45 97 154 178 188 192 196 200 203 203 203 206 209 210 210 212 213 214 219 222 219 218 219 220 222 220 217 215 217 218 218 219 217 218 221 219 221 222 220 214 215 213 211 207 204 205 201 201 198 197 196 194 194 195 195 194 191 187 186 182 176 172 168 163 157 152 140 142 142 129 120 111 89 66 47 29 14 8 7 4 2 1 2 3 4 6 7 7 3 4 41 36 47 101 154 175 187 192 195 202 203 203 205 206 210 210 209 212 215 215 215 220 219 219 218 219 220 219 217 215 216 218 218 216 216 216 218 219 221 218 216 212 214 209 207 206 204 201 196 198 197 197 194 195 194 194 196 196 193 190 188 185 180 175 170 159 156 152 143 143 139 133 130 113 92 83 62 39 22 12 6 5 3 3 3 3 3 3 2 3 3 3 30 31 47 102 157 177 187 191 196 202 204 206 206 207 209 208 207 209 208 212 214 216 217 218 218 220 216 217 216 211 213 218 218 216 217 218 216 216 214 214 212 212 209 204 207 208 203 198 195 197 196 195 194 193 197 196 194 196 194 193 189 186 182 174 175 168 162 153 145 143 140 139 130 113 103 93 73 51 29 14 7 3 3 3 3 3 3 3 3 3 3 4 29 25 33 96 156 176 185 193 200 202 206 207 207 208 210 209 207 208 207 206 210 214 214 213 214 219 217 214 211 210 215 217 213 215 215 216 215 214 209 213 212 207 205 206 207 202 201 199 198 195 195 195 192 192 193 195 192 191 193 189 188 187 183 179 177 170 164 155 143 144 145 136 123 115 111 97 84 63 36 17 8 4 3 3 3 3 3 2 2 2 4 4 24 22 33 96 157 173 183 197 203 205 206 205 206 208 209 209 209 208 209 205 205 210 211 211 213 218 214 209 207 209 209 211 211 209 209 209 211 210 207 206 205 202 202 200 198 198 199 198 195 192 189 191 193 195 194 190 187 190 183 176 175 174 176 171 168 169 168 152 142 141 143 133 121 125 114 93 89 69 45 25 10 4 3 3 3 3 4 3 3 3 5 4 24 29 38 101 161 171 184 199 206 204 204 206 206 206 208 206 207 206 205 205 205 206 207 209 211 215 214 211 206 205 208 207 209 206 204 205 203 204 200 192 193 192 191 182 188 192 187 184 178 181 176 172 171 167 171 169 162 164 156 145 145 158 165 159 156 163 165 152 142 143 143 131 126 125 112 101 97 72 48 30 13 6 5 3 2 4 4 3 3 2 5 6 27 30 33 105 164 170 190 203 206 206 205 202 205 206 206 203 206 205 206 203 202 201 199 202 204 210 209 208 208 203 203 206 207 206 204 204 200 196 181 185 185 174 170 172 169 169 153 144 143 133 122 111 94 91 100 112 112 108 121 132 128 120 129 129 132 138 148 148 142 144 141 129 129 130 120 108 97 81 52 31 16 7 7 4 3 3 5 5 5 4 5 5 31 25 27 110 167 175 196 203 204 203 205 201 203 203 203 206 194 184 191 193 189 192 194 194 198 205 203 208 201 200 203 204 205 204 204 197 191 189 180 175 180 165 150 151 152 135 123 122 108 88 83 72 63 69 77 77 78 81 105 112 104 91 84 96 110 114 130 135 136 139 135 129 131 129 120 108 103 95 63 33 18 8 6 4 3 4 5 2 7 5 2 1 32 33 26 109 168 179 197 199 192 193 189 186 181 180 181 176 169 149 146 175 170 171 182 188 190 200 198 200 195 198 196 199 202 198 192 191 188 183 181 170 170 160 150 137 134 109 110 91 76 67 68 61 71 70 58 64 72 87 97 88 73 75 73 73 87 93 100 113 130 135 131 130 125 124 120 116 109 102 79 40 19 9 7 5 5 5 5 4 2 2 13 17 28 38 37 107 168 184 187 171 173 160 141 127 116 104 93 106 118 132 130 138 150 148 162 176 186 189 183 189 193 191 187 190 190 190 185 179 180 181 181 167 162 149 141 127 108 101 94 67 63 59 56 55 64 58 62 69 80 77 74 72 68 67 69 64 60 65 74 86 113 121 127 129 120 119 120 120 112 105 84 47 23 9 7 6 6 8 3 2 19 56 91 96 23 30 31 98 172 161 132 124 126 113 103 91 89 85 71 72 76 78 107 121 124 136 135 161 176 169 177 186 191 188 187 183 179 177 179 174 171 175 173 159 152 147 126 113 95 96 90 71 78 78 80 83 94 99 99 104 104 96 87 93 85 75 71 67 65 72 81 95 106 114 124 126 119 122 124 117 112 107 87 50 23 9 6 5 8 5 6 44 89 118 129 131 29 28 19 93 152 113 91 89 97 103 90 75 71 72 69 63 60 66 71 93 112 125 119 139 163 161 174 180 182 181 185 185 178 171 171 169 166 165 161 153 144 130 115 107 102 105 96 101 107 106 113 121 121 125 129 125 120 115 114 110 104 101 95 89 85 89 89 91 99 112 120 123 120 123 119 114 116 114 100 57 21 9 5 9 14 8 15 94 130 141 138 136 24 25 23 90 140 96 96 86 78 95 103 91 82 76 87 89 92 99 107 103 112 122 118 126 144 155 164 169 168 174 181 184 180 170 162 161 161 155 148 144 138 121 116 108 104 103 103 104 95 96 104 108 105 95 84 74 74 82 83 88 95 100 101 106 104 97 96 103 107 108 120 127 120 113 110 120 121 116 107 66 23 11 9 12 13 10 14 88 133 140 133 107 33 29 24 81 135 97 83 85 93 104 114 128 137 140 140 144 139 131 127 127 121 121 121 120 134 143 156 162 164 170 176 176 177 172 168 160 153 145 139 135 126 120 109 99 95 93 84 77 87 106 104 79 51 38 28 24 27 31 38 51 63 66 80 95 99 98 101 107 113 117 125 128 119 117 120 125 121 120 110 73 34 16 11 13 13 10 18 71 116 102 70 49 76 43 15 70 141 98 89 101 115 128 141 146 150 151 151 146 137 127 116 105 104 104 103 110 120 130 142 152 158 163 170 180 186 182 176 166 151 140 131 127 120 110 98 91 88 77 77 100 120 104 69 47 29 80 73 34 28 23 32 36 36 48 55 75 93 93 96 108 111 116 128 125 118 123 126 128 125 121 113 88 51 20 13 17 13 15 30 60 70 59 59 59 74 55 25 62 157 132 105 125 139 144 147 146 134 122 110 89 67 55 48 43 54 70 81 83 94 104 123 143 151 164 176 188 195 194 188 173 154 142 130 120 114 97 89 84 85 91 109 110 91 74 128 87 72 107 62 23 33 26 46 65 39 34 43 58 78 93 98 105 111 127 130 125 124 128 129 131 126 123 118 98 72 38 21 22 16 21 34 49 56 74 83 71 82 51 32 61 159 162 140 138 147 146 131 102 83 67 43 33 22 26 69 97 47 29 46 72 92 114 107 115 144 166 185 200 212 209 196 182 165 148 125 110 97 82 84 92 109 121 113 81 91 150 192 141 54 38 26 33 37 53 84 83 66 62 60 66 83 93 104 115 129 137 136 137 135 133 132 129 128 127 123 109 88 58 31 26 23 29 38 58 79 91 99 86 113 69 35 65 158 170 154 147 143 128 88 67 48 35 66 95 38 49 109 110 34 36 38 85 93 107 130 117 127 168 193 204 216 215 202 192 179 151 122 102 91 89 87 125 133 114 79 76 114 123 136 138 105 100 106 112 110 111 111 100 96 93 95 97 110 120 123 131 144 150 149 145 141 137 133 130 129 128 127 121 102 78 44 35 34 45 65 92 109 109 112 103 119 106 50 59 158 170 158 146 134 105 61 38 35 54 110 148 64 33 54 36 37 49 62 100 105 81 107 141 138 167 194 206 217 216 210 197 179 154 119 102 107 102 117 145 143 126 126 135 135 138 131 134 136 151 129 133 130 108 111 116 113 107 110 117 131 139 143 146 158 160 156 153 145 140 136 133 131 130 134 127 108 91 64 48 52 49 57 95 120 115 118 114 87 136 66 68 163 172 164 146 126 90 61 69 83 91 97 108 104 102 113 127 127 126 125 120 128 140 154 160 153 166 193 205 218 219 210 193 173 146 114 114 123 119 136 153 163 171 170 160 150 150 151 154 158 153 135 127 131 122 113 115 113 112 117 126 142 150 154 156 162 164 160 154 145 144 137 133 132 131 134 136 117 99 80 61 61 37 40 69 101 110 117 119 47 143 90 81 166 175 177 166 145 129 121 121 123 137 145 133 131 140 149 168 155 148 154 154 157 166 173 168 158 171 194 208 219 219 207 187 173 150 122 126 134 139 141 147 151 157 162 155 149 144 150 156 156 147 141 129 126 125 121 117 120 123 134 145 156 162 163 161 163 166 162 156 149 142 134 134 137 133 134 134 119 109 93 68 56 39 45 63 84 100 116 126 19 120 112 86 168 181 184 183 174 165 160 148 141 142 152 157 156 157 155 154 155 145 151 153 163 170 168 171 175 178 197 207 219 218 206 192 174 154 135 138 151 157 154 154 155 161 168 167 165 152 153 155 149 143 139 135 134 131 129 133 141 150 153 162 168 168 166 165 163 161 157 153 151 146 134 129 132 133 132 128 121 113 102 83 53 45 52 64 81 99 122 134 14 83 113 99 174 183 186 185 183 177 168 158 156 154 156 158 153 153 151 149 150 146 141 155 170 174 179 186 182 183 200 208 218 216 207 198 175 157 142 146 162 166 167 170 171 171 170 170 170 171 170 172 168 168 164 163 161 161 161 163 167 171 167 174 174 172 169 168 163 159 157 151 149 147 138 131 131 129 130 126 124 117 103 90 71 53 59 67 84 103 129 140 12 51 108 113 177 182 187 189 185 179 174 170 161 160 158 158 156 150 150 150 148 159 169 175 177 186 195 192 183 186 201 210 218 215 199 190 174 161 148 153 165 172 174 174 181 189 187 179 178 176 177 180 174 174 172 172 176 174 173 171 172 174 177 178 176 177 173 167 162 158 156 152 148 144 133 125 130 130 130 127 122 115 103 89 99 78 67 79 93 114 140 145 25 37 90 129 180 181 188 188 187 184 185 183 173 170 167 169 174 177 177 180 183 186 191 185 192 200 193 187 183 192 202 213 218 213 201 191 177 164 156 159 163 175 177 175 178 191 198 194 191 187 187 188 180 181 179 179 183 178 178 179 181 181 181 179 178 183 176 167 163 159 152 154 148 140 131 128 131 129 126 117 119 114 101 87 103 100 75 87 98 127 155 147 37 34 70 131 179 180 186 187 188 192 193 192 189 187 187 189 191 194 191 194 191 193 195 198 203 200 188 186 186 194 205 216 219 216 205 190 178 172 165 164 168 174 171 171 170 182 194 199 198 196 192 192 190 187 192 191 194 191 193 191 192 189 184 181 180 182 175 168 164 158 153 155 148 138 131 127 128 127 124 118 117 112 100 87 103 110 87 90 106 135 162 146 30 23 51 132 179 178 181 186 191 195 195 194 195 195 195 195 192 192 194 197 196 200 202 202 202 198 191 191 190 197 207 215 221 216 202 193 182 177 169 170 173 175 168 170 167 167 187 198 199 198 198 197 198 197 196 198 199 199 200 197 193 192 185 184 185 179 172 163 159 156 156 154 141 133 128 125 126 126 119 116 112 102 94 91 106 116 92 94 115 139 164 140 33 20 34 128 180 178 179 185 188 193 196 198 198 198 201 200 199 199 201 201 201 201 203 206 202 193 191 194 193 201 210 217 222 217 203 194 184 182 176 174 174 174 175 172 167 166 176 194 200 196 199 201 201 201 204 206 205 204 204 192 187 188 181 185 183 174 169 161 157 157 155 149 137 132 128 129 122 115 108 111 113 100 87 90 102 100 96 106 122 151 159 122 27 29 35 127 178 178 181 186 185 190 195 197 198 201 206 207 207 206 207 205 206 203 203 205 199 190 193 194 195 203 211 219 223 218 206 193 183 180 177 175 173 175 177 172 170 171 176 191 197 196 199 201 205 205 207 206 206 204 197 185 185 182 178 179 177 173 165 162 160 159 155 146 139 128 128 116 112 109 104 106 109 102 79 89 91 87 122 143 136 147 134 114 28 27 38 123 175 175 182 189 191 192 194 196 199 202 204 208 209 208 211 209 206 206 204 202 192 191 195 196 196 203 213 220 220 219 206 194 187 181 176 171 171 168 172 175 171 170 178 188 192 194 201 203 203 207 208 206 203 201 197 193 186 178 178 172 172 168 165 163 160 155 147 139 137 129 123 116 111 105 107 104 103 97 79 87 79 94 141 150 133 114 99 134 31 32 45 115 170 177 181 188 193 193 194 194 198 203 206 209 210 212 210 210 209 206 206 201 192 192 196 195 199 205 215 221 223 219 206 197 188 181 176 169 162 156 156 159 164 171 181 189 194 199 204 204 206 206 207 206 203 199 197 195 188 181 175 172 171 167 162 161 157 149 142 137 132 127 121 115 107 103 104 104 95 88 84 90 87 111 140 142 116 93 115 160 31 24 45 94 167 172 172 183 189 189 192 197 197 202 205 207 208 209 207 209 209 204 205 198 192 189 191 194 199 208 215 220 221 217 211 201 189 180 171 164 155 144 143 146 151 163 175 188 197 200 205 206 206 205 208 206 202 203 196 189 192 183 174 173 168 163 158 157 146 141 136 131 128 125 118 109 103 100 101 91 91 89 82 87 106 126 125 115 109 106 149 158 49 57 39 79 153 173 169 179 182 182 188 194 199 201 206 207 206 209 208 207 206 202 201 197 191 182 184 190 197 207 215 224 223 217 208 196 189 180 170 160 149 140 151 154 142 145 161 184 196 199 204 205 206 209 211 205 203 199 194 190 188 179 178 174 165 162 157 153 145 136 130 128 126 127 116 107 99 95 96 91 86 83 85 90 116 135 138 116 116 122 144 141 69 102 48 73 134 173 171 175 177 179 186 190 197 201 204 210 210 209 209 209 208 204 202 197 189 179 183 191 201 208 212 223 222 213 204 197 191 182 172 165 154 157 173 177 164 148 151 170 185 196 199 199 202 207 207 203 204 201 196 193 185 177 178 169 163 158 149 144 141 132 127 127 128 122 116 103 97 97 96 94 87 82 79 91 115 132 142 132 118 140 142 118 61 84 57 57 114 171 169 170 172 177 183 192 195 198 202 208 208 207 208 205 205 206 204 195 180 188 197 194 199 205 214 222 220 213 205 196 185 181 169 166 172 177 186 189 183 160 153 160 171 186 196 197 201 204 203 207 198 194 196 192 186 180 173 168 162 150 144 140 136 127 126 126 124 122 111 103 100 101 97 97 90 84 79 98 125 136 148 141 116 144 155 97 44 47 31 37 93 166 169 170 170 177 182 191 196 201 201 203 208 205 202 205 206 205 203 193 180 201 205 197 198 202 214 222 219 208 197 191 182 180 166 163 170 182 186 183 181 163 147 155 162 170 185 196 198 203 202 197 195 197 194 186 179 175 171 166 157 147 139 137 129 120 123 128 123 120 112 104 101 103 94 98 95 89 76 97 130 143 151 149 95 129 152 71 27 20 20 40 85 155 170 170 171 176 181 186 196 200 201 202 206 208 203 205 204 198 200 190 191 206 203 194 200 202 212 218 215 206 195 188 181 173 166 162 168 172 182 177 173 164 144 135 151 163 172 184 194 196 197 193 192 193 194 186 182 173 170 159 149 144 137 131 123 124 128 128 123 119 114 107 103 101 92 98 95 90 73 91 132 144 149 154 84 121 137 38 12 23 25 32 82 149 168 166 172 175 182 189 193 197 199 204 206 204 202 199 198 196 193 186 200 201 197 190 199 201 204 212 217 208 198 189 180 168 158 159 169 163 167 168 158 153 142 117 136 162 173 179 183 190 193 194 194 191 189 183 179 172 166 155 149 141 134 126 124 124 129 126 124 120 110 110 106 105 96 94 97 84 77 91 125 138 141 141 67 122 96 11 9 19 21 17 49 125 167 168 166 173 180 187 189 194 197 203 205 205 202 197 197 196 190 184 193 196 189 188 192 194 202 208 215 207 196 190 176 156 143 146 152 147 142 136 129 124 119 108 134 157 166 175 180 186 191 194 192 184 183 177 172 167 160 153 143 137 133 128 127 129 130 125 125 116 108 108 105 102 101 98 95 80 77 84 102 119 128 97 63 101 33 6 12 7 14 14 22 101 158 170 169 173 178 181 188 193 196 199 202 203 203 197 194 190 179 179 180 181 182 176 180 190 194 201 198 192 188 174 159 136 121 121 125 117 102 96 98 98 99 98 136 162 169 170 176 182 181 186 186 185 182 177 171 163 156 151 140 138 137 131 132 132 131 127 124 116 110 111 104 105 99 99 90 77 74 56 57 84 77 36 56 35 8 6 21 8 10 8 20 93 143 170 170 174 176 180 186 193 196 196 201 200 197 200 194 187 181 180 156 153 156 163 166 175 178 183 181 177 171 153 133 110 103 95 71 55 63 85 92 88 83 109 154 173 177 175 176 177 178 183 186 180 177 171 167 161 158 152 143 139 134 130 132 133 136 130 125 119 111 108 105 103 98 94 87 70 73 32 5 21 14 12 17 9 8 7 37 18 14 12 11 77 127 163 172 177 176 178 186 189 193 195 201 198 198 197 194 186 185 188 155 118 97 105 143 157 165 169 166 159 149 128 110 96 72 46 50 70 87 102 90 81 100 134 161 171 178 180 175 175 174 177 183 180 178 174 167 163 163 157 144 140 135 133 132 132 139 132 124 119 113 108 106 103 97 86 82 71 67 30 4 3 5 6 5 8 7 11 42 24 23 15 8 65 127 157 170 176 176 177 183 188 191 194 196 196 197 197 194 190 192 195 186 144 108 112 113 133 151 152 149 141 132 117 102 61 43 63 89 96 98 93 90 105 131 146 163 174 180 183 181 177 176 174 175 176 179 175 168 166 163 146 144 144 142 137 136 137 138 131 124 114 110 106 106 99 93 81 73 66 59 24 3 6 8 5 4 14 11 9 71 44 40 20 13 47 118 141 169 175 174 177 182 187 189 190 192 192 192 193 191 194 196 198 191 173 138 129 134 127 134 137 135 129 119 109 71 46 71 94 102 100 104 113 123 132 137 145 162 172 181 180 186 184 179 175 171 173 173 169 168 166 160 153 151 151 148 139 141 143 138 127 127 110 104 101 103 93 85 75 61 62 54 15 10 7 15 26 18 17 15 13 86 74 57 25 11 37 86 123 161 171 176 179 183 184 189 189 189 191 193 195 192 195 198 196 183 175 164 148 146 145 140 127 118 111 104 91 64 79 105 113 102 94 98 115 128 133 135 145 163 174 181 180 183 188 184 174 170 173 170 171 171 166 160 157 157 152 149 142 138 144 140 128 126 107 102 102 101 87 83 70 63 60 46 14 7 7 8 17 20 13 10 11 73 71 60 39 24 34 71 118 156 171 176 178 181 185 189 189 186 189 194 193 194 199 200 198 187 173 165 160 158 146 145 142 131 111 97 91 97 117 116 105 86 76 82 96 113 118 123 144 155 167 178 181 184 184 187 181 172 174 176 174 171 168 162 161 159 154 143 143 144 144 136 129 115 110 101 97 94 88 77 72 64 54 35 9 6 6 4 5 14 13 10 7 71 70 61 41 35 41 76 112 148 166 172 179 179 182 188 187 187 189 193 193 197 203 200 200 193 177 167 152 138 126 129 138 144 130 111 113 119 117 113 99 84 81 88 94 97 101 114 130 137 148 164 171 179 175 183 184 182 175 174 172 171 171 165 162 157 151 146 145 146 142 134 122 112 107 101 93 96 81 78 74 64 53 30 8 5 6 7 10 15 13 13 11 68 69 61 42 32 29 43 82 135 159 168 175 179 185 191 190 187 188 193 197 201 202 202 201 196 186 163 137 115 113 123 114 127 118 105 117 128 120 107 99 90 93 90 95 93 102 113 117 123 147 156 163 166 165 177 180 178 175 176 175 176 176 172 165 161 155 145 141 142 135 130 115 107 105 99 95 92 79 75 70 55 51 27 6 6 11 17 19 15 11 11 9 66 71 68 55 32 24 44 88 130 156 164 175 179 185 186 189 193 192 194 199 199 200 199 193 187 177 141 117 108 98 102 105 107 90 89 111 128 136 111 97 109 107 102 106 105 101 103 111 113 146 150 154 159 152 154 172 167 171 175 177 180 178 174 168 164 154 142 144 145 135 113 105 103 113 95 89 89 78 71 64 48 45 25 7 7 13 14 9 5 7 10 11 79 79 86 69 33 17 56 102 125 147 160 171 179 184 185 188 190 193 199 189 188 188 186 175 164 157 127 119 111 107 112 133 127 93 102 133 138 135 138 129 146 141 134 130 120 112 113 118 125 140 141 137 153 150 143 154 158 160 173 176 182 177 176 174 164 157 152 144 139 135 122 96 85 102 96 87 85 77 68 60 46 45 23 5 3 5 4 4 5 6 7 8 80 67 84 66 35 18 47 70 94 138 148 159 178 182 186 189 189 193 179 176 175 170 162 156 146 139 123 130 135 128 140 156 155 147 149 155 163 160 170 181 175 162 161 155 151 127 130 135 140 130 129 129 141 142 142 134 151 156 161 169 178 181 179 174 165 154 146 142 128 128 119 100 91 84 88 78 75 69 58 52 44 45 19 3 3 4 6 7 7 8 7 8 80 59 44 53 37 12 31 23 55 127 136 149 176 181 185 187 187 185 173 172 166 153 151 154 135 145 141 151 153 160 180 187 191 191 192 190 191 196 194 183 162 141 151 155 155 146 146 154 140 129 135 126 130 126 138 135 139 145 143 163 175 183 183 172 166 153 136 126 126 115 108 89 82 74 80 70 62 61 49 40 43 42 16 4 3 4 4 6 8 8 6 9 72 62 37 31 26 15 10 11 43 112 130 136 168 182 184 184 185 178 176 164 149 142 155 142 146 154 162 164 176 183 176 164 172 177 183 193 197 170 149 135 135 143 145 145 142 135 131 134 134 130 131 122 123 127 131 137 145 153 133 150 172 183 183 173 165 153 134 115 107 105 100 99 85 71 69 67 62 55 47 37 42 40 14 4 3 4 5 8 11 8 7 11 44 40 35 37 29 16 9 7 25 87 128 123 154 178 184 183 186 177 157 145 137 144 151 156 161 158 178 170 161 156 150 157 158 154 157 169 168 140 122 124 131 138 134 129 125 117 102 102 110 120 119 112 117 120 126 126 148 153 143 151 156 174 177 172 164 143 130 120 101 91 95 100 95 68 56 59 56 49 44 38 43 38 15 5 2 4 6 13 12 12 10 8 57 45 32 40 41 21 12 10 14 68 124 115 133 170 179 183 178 152 147 140 143 145 138 159 168 156 159 146 142 145 153 154 154 148 143 138 144 133 111 106 100 105 99 87 73 80 81 78 79 92 110 119 122 122 131 142 156 150 133 131 138 160 178 173 158 134 126 123 113 98 89 95 95 73 53 49 47 48 39 37 49 43 18 4 3 5 8 12 9 16 23 11 50 46 38 17 27 29 12 11 11 28 93 110 114 156 171 174 161 141 137 145 138 137 134 153 162 138 123 125 129 121 120 123 124 118 113 112 117 118 98 76 57 58 55 48 51 65 70 60 57 52 58 77 98 123 136 155 157 151 143 132 130 153 172 170 150 129 119 111 103 94 76 86 89 74 54 45 41 44 38 40 48 49 18 5 5 9 15 10 7 10 21 21 47 46 40 25 18 26 11 9 9 15 65 102 116 143 173 177 163 140 132 148 135 126 126 122 119 97 85 85 87 77 73 85 92 90 94 93 86 90 92 101 118 122 131 132 128 127 117 108 92 73 67 69 75 93 129 148 148 150 151 144 139 156 166 157 141 127 111 105 95 78 76 72 69 60 45 40 42 44 40 42 47 51 20 6 7 12 11 10 9 9 9 18 44 46 37 26 26 36 22 15 14 26 48 85 105 134 166 182 172 145 144 148 138 127 119 93 80 72 88 116 132 131 149 156 158 160 165 162 159 163 170 179 179 176 168 167 154 144 139 133 130 130 143 146 142 134 146 152 146 144 153 152 140 143 156 151 123 119 111 91 95 75 73 69 60 52 38 43 46 42 41 44 49 51 22 10 12 9 8 9 11 13 11 13 41 39 34 30 27 34 26 19 15 26 23 64 102 123 158 181 179 159 149 144 146 154 155 148 152 137 142 156 165 170 183 186 187 192 193 192 190 192 192 192 183 175 159 158 151 147 151 157 163 167 170 169 163 168 178 176 165 154 147 152 150 151 154 142 119 103 99 87 80 84 70 61 52 40 36 46 44 39 43 51 56 54 24 11 6 11 11 12 13 14 10 9 48 42 27 31 21 17 16 17 15 22 25 69 91 112 143 170 178 166 150 160 169 176 183 184 184 176 162 158 156 165 176 178 186 189 186 185 186 189 189 184 176 166 152 155 159 165 165 165 167 167 162 166 173 183 195 194 188 177 158 141 153 150 145 139 112 88 91 90 68 73 71 56 45 37 40 45 40 43 47 52 65 64 31 4 4 17 18 15 14 19 16 9 54 38 29 38 40 24 15 23 12 11 34 58 74 104 119 151 170 161 155 170 178 189 193 191 188 186 180 170 162 165 169 171 174 179 182 180 186 184 180 172 166 161 162 172 174 163 155 152 157 156 162 176 187 197 199 193 187 177 167 153 137 141 137 120 99 86 81 71 65 57 59 52 42 34 40 44 38 44 51 62 75 74 37 4 5 17 16 17 17 27 25 14 56 44 38 39 48 37 24 25 17 11 13 24 52 80 101 118 155 176 171 173 186 198 198 195 190 183 183 175 177 181 179 179 175 176 181 181 186 180 174 171 169 164 164 160 155 149 145 144 151 159 179 190 197 198 194 186 174 168 168 165 142 127 126 105 90 80 74 69 65 58 44 36 36 34 36 39 37 46 52 69 82 79 41 6 6 15 13 12 19 26 20 8 43 46 40 36 39 29 23 33 34 24 17 26 42 63 75 94 146 168 168 178 186 195 199 196 192 183 179 174 173 176 176 168 165 165 161 159 158 153 154 149 148 145 144 142 148 147 145 153 165 182 194 199 197 191 181 176 168 171 170 167 149 117 114 111 90 74 62 72 61 55 41 31 28 33 36 39 44 54 66 78 84 82 49 6 5 14 17 9 11 11 7 9 39 35 36 31 29 21 22 30 34 38 30 28 38 53 66 89 130 157 174 183 186 183 194 196 195 190 181 175 166 164 165 153 149 143 137 134 134 131 131 130 136 138 135 142 145 149 158 171 183 193 197 195 194 191 182 173 174 178 172 158 146 129 112 94 79 72 57 57 56 47 32 30 29 34 37 42 51 63 78 87 88 84 53 6 11 22 14 9 12 12 12 19 37 33 30 30 28 31 31 28 29 30 25 25 39 48 59 76 116 146 169 182 188 188 192 194 194 192 189 187 176 166 153 141 138 137 133 126 129 126 123 130 141 142 139 144 150 164 177 184 190 193 194 190 190 189 182 177 173 174 167 146 134 122 104 87 73 63 52 50 48 48 28 22 27 35 39 48 62 75 87 92 94 88 67 15 16 31 23 26 29 29 29 38 34 33 28 30 33 34 32 30 26 29 29 34 41 44 46 62 95 137 164 170 184 189 189 190 191 193 190 190 185 179 169 160 153 156 152 139 132 133 135 149 156 156 161 162 163 177 183 188 191 194 193 189 184 185 183 175 165 153 139 128 116 105 94 72 63 60 52 51 38 33 30 19 28 35 44 57 72 85 96 97 99 93 81 39 7 17 32 37 33 32 39 46 35 32 27 28 32 33 33 27 27 32 35 38 49 41 45 55 74 117 143 160 180 187 190 190 192 191 190 188 188 186 181 176 175 178 169 158 156 158 167 167 174 173 179 180 174 184 187 191 192 195 191 189 183 184 181 173 162 150 130 108 87 93 78 62 47 45 50 42 29 24 21 21 35 40 54 72 84 95 99 102 101 96 87 64 18 4 18 30 30 31 36 43 33 30 26 27 28 31 32 28 27 25 33 34 38 43 56 58 52 89 129 155 179 183 188 192 194 191 190 189 186 185 184 183 184 186 185 183 185 183 190 189 187 189 189 186 186 192 188 188 191 191 187 189 186 181 175 172 150 135 126 106 82 74 62 57 42 35 40 35 25 21 18 27 46 57 63 79 91 99 103 104 101 98 92 78 40 5 5 19 33 30 31 38 31 27 25 26 27 28 28 26 26 21 28 31 36 48 55 53 54 62 110 144 173 178 180 190 194 193 193 192 191 188 188 187 193 197 196 197 200 197 199 201 199 196 193 190 192 194 191 190 193 192 189 191 186 173 170 162 133 114 95 85 81 59 56 55 40 34 36 30 22 18 25 41 60 65 71 87 99 107 105 104 103 100 95 87 63 18 6 10 25 32 33 39 29 25 22 25 27 28 27 23 23 22 28 31 38 44 46 49 51 58 90 128 155 165 182 189 194 195 196 194 195 194 193 195 200 198 202 200 206 209 203 201 201 199 197 197 199 197 195 193 195 193 192 189 180 176 165 147 119 91 79 73 67 55 50 43 34 31 27 26 20 20 37 54 67 78 87 94 104 110 110 105 105 103 100 91 78 43 6 9 15 30 39 43 28 25 21 23 27 28 27 24 21 22 26 31 34 41 39 40 48 57 69 97 136 155 174 186 193 197 200 199 197 199 199 202 201 203 203 197 208 208 200 201 200 199 201 198 198 200 198 193 193 193 188 185 173 167 154 130 111 89 75 62 43 44 39 36 34 29 24 20 20 27 45 65 79 89 98 101 108 111 112 107 106 106 104 93 86 63 16 10 12 20 35 46 28 25 22 24 27 28 27 25 20 20 24 28 32 37 38 37 43 53 56 60 109 145 162 175 190 196 200 202 203 202 203 203 200 199 192 198 203 192 193 201 195 191 198 199 199 199 196 190 193 190 186 177 167 156 137 118 93 74 63 58 37 26 27 31 28 23 21 21 27 36 59 82 89 97 102 107 114 113 113 111 110 112 105 98 90 76 30 11 13 15 23 39 25 24 23 23 26 30 28 24 22 23 26 28 30 32 35 36 34 40 47 43 77 124 132 152 170 185 198 201 200 203 203 202 204 187 190 198 190 191 193 194 190 191 195 195 198 195 193 193 190 177 168 168 155 139 125 108 88 59 48 38 29 24 23 29 23 19 19 25 40 57 75 83 90 103 107 112 117 115 115 114 114 115 108 102 95 84 41 13 16 15 19 26 25 24 23 23 27 30 26 24 22 23 26 29 29 31 31 29 29 37 43 48 55 84 107 121 150 170 188 194 194 195 200 201 190 179 190 178 181 186 185 178 180 191 189 181 182 181 176 179 177 167 150 145 143 115 96 88 71 47 43 36 25 22 22 18 22 19 18 38 61 62 71 86 92 107 110 116 118 116 115 113 117 118 112 102 101 90 45 15 17 16 18 21 25 23 23 24 26 31 29 26 25 24 28 28 28 29 28 27 31 33 35 49 53 57 91 104 136 143 146 173 176 174 181 186 165 181 186 160 164 167 169 169 174 177 171 160 152 163 159 152 133 136 146 132 123 97 73 68 52 33 33 28 24 18 15 17 21 21 23 50 71 71 85 91 97 113 114 118 120 117 116 115 118 119 116 103 105 93 44 16 18 18 19 19 25 24 23 24 26 31 29 26 24 22 26 26 27 29 29 30 33 34 31 41 54 61 81 101 113 108 126 149 150 157 166 168 165 170 168 145 152 154 171 165 173 165 162 148 140 147 139 124 111 92 108 104 86 65 60 51 44 37 22 18 18 19 16 19 22 26 35 61 80 86 95 102 110 115 118 118 121 117 115 116 121 122 119 105 109 97 40 17 19 19 20 18 26 25 24 24 26 29 29 25 21 21 25 26 27 28 29 30 32 31 29 26 42 59 53 73 87 92 113 116 131 141 158 163 157 154 165 134 143 162 174 156 169 153 157 143 126 131 121 105 88 76 83 75 65 46 45 43 29 26 17 15 17 17 19 19 20 39 45 61 93 101 107 111 112 115 119 121 119 118 118 120 122 124 118 104 113 97 34 18 21 19 20 20 26 24 24 24 26 29 29 24 21 21 25 25 27 29 32 28 28 29 32 48 60 57 44 49 77 83 99 107 120 127 140 153 148 155 153 138 144 166 165 152 144 144 151 128 119 119 108 97 77 70 65 50 48 42 35 29 22 15 17 17 15 16 20 18 25 42 53 80 93 104 113 117 119 117 116 126 122 122 123 124 123 125 118 106 116 96 30 20 21 20 20 21 26 25 23 23 24 27 26 24 20 20 24 26 28 30 32 37 51 62 68 73 72 67 46 43 43 62 87 99 106 111 125 142 140 140 130 130 136 148 152 140 127 127 135 117 106 100 95 83 84 60 52 47 39 32 28 20 22 20 17 19 21 21 23 20 27 47 78 99 100 103 111 117 122 116 117 125 126 127 128 126 126 126 119 108 119 93 25 21 21 20 20 21 26 23 21 24 24 27 26 24 21 21 25 28 37 50 63 71 77 73 69 68 68 58 37 45 51 52 62 72 89 90 105 120 115 115 119 127 121 121 134 123 120 102 111 111 82 82 79 69 63 56 48 40 31 26 22 21 18 17 17 21 27 29 33 38 55 78 94 109 114 104 115 118 122 125 128 129 128 128 130 129 125 125 121 109 123 79 21 22 22 21 20 22 24 21 21 24 25 26 25 24 20 22 36 57 71 76 76 70 66 64 62 61 60 36 25 38 95 47 38 48 56 62 86 102 96 100 105 105 112 105 117 112 109 89 88 90 78 67 62 61 47 44 40 24 17 18 19 21 19 20 24 25 28 32 45 68 84 102 106 116 126 118 116 120 113 122 129 129 129 129 131 129 125 128 122 112 123 58 19 23 22 21 20 21 21 20 18 21 24 24 22 26 39 57 74 79 76 72 67 64 61 57 56 56 44 29 23 22 103 83 55 42 39 46 70 70 76 86 86 87 93 92 95 93 93 80 77 72 66 51 44 45 34 31 27 19 19 17 19 22 24 29 30 33 34 48 72 84 106 113 116 120 125 127 124 123 119 122 124 127 130 133 135 131 129 130 123 111 116 41 22 24 22 21 20 21 20 20 17 17 21 32 51 69 79 78 74 72 70 63 58 54 51 51 56 51 33 28 20 4 103 154 115 91 48 31 40 45 46 58 60 69 67 65 77 72 66 57 53 56 52 39 34 31 27 22 21 18 19 20 25 34 34 41 44 46 63 84 103 109 113 114 117 129 130 130 128 126 125 128 130 132 135 137 136 132 130 129 120 113 101 28 23 24 23 22 22 22 19 20 23 36 57 74 84 81 74 70 69 62 52 50 48 45 48 54 57 42 29 26 14 0 82 174 163 138 99 80 57 37 37 34 35 38 38 38 43 42 36 35 27 33 40 34 23 27 26 26 26 29 31 33 34 41 43 46 62 84 101 98 110 126 115 109 118 128 130 125 124 126 129 135 135 132 136 140 139 136 131 129 120 114 77 22 25 23 24 22 22 22
