P2
# Generated by OpenCV 4.2.0
92 112
255
29 33 52 45 36 27 29 32 25 22 34 48 50 27 41 31 29 38 19 26 25 35 25 16 31 35 38 39 53 42 40 36 30 27 25 25 28 61 67 57 58 69 74 69 74 63 68 48 62 70 47 58 53 60 80 63 46 54 47 46 48 55 68 82 67 73 77 52 41 44 44 32 37 55 105 94 87 92 52 60 69 74 54 45 26 47 115 165 126 133 167 198 49 52 50 31 30 25 26 33 30 21 35 43 54 28 28 21 18 32 25 19 19 25 25 17 19 30 39 39 46 46 37 30 33 33 30 29 35 42 64 67 61 65 81 85 88 75 79 73 67 82 51 61 64 75 94 68 45 57 58 56 60 58 84 89 70 71 73 54 49 60 57 47 49 48 83 99 88 76 60 52 65 69 46 43 32 27 108 161 186 151 164 171 41 33 23 22 28 28 24 33 28 21 32 45 42 32 24 17 16 21 29 12 17 18 21 22 18 20 31 44 36 33 44 44 37 36 37 39 40 43 48 66 74 75 83 95 110 86 94 99 90 88 73 96 87 99 106 73 63 83 74 81 75 74 101 95 68 68 96 76 68 66 67 72 74 74 61 80 104 63 61 62 67 65 55 56 56 25 80 179 207 200 159 167 24 23 24 24 28 26 23 28 23 19 18 48 29 28 20 12 14 19 25 13 13 16 20 21 21 21 27 35 46 44 38 50 48 41 38 42 46 51 56 60 70 89 90 109 116 99 109 110 117 111 104 124 121 114 121 100 99 107 99 113 93 102 109 82 68 88 128 118 98 69 54 66 77 97 89 72 76 65 50 68 67 59 67 63 62 44 32 136 191 212 194 193 21 25 29 26 26 24 27 27 20 20 14 40 28 21 20 15 15 12 24 17 12 13 16 19 22 26 30 37 36 39 37 36 35 43 47 47 51 59 72 83 85 97 104 122 125 125 120 124 128 140 137 135 143 130 136 127 130 125 128 128 119 115 112 101 88 116 123 119 89 66 68 76 68 73 101 92 61 58 51 53 62 57 60 71 59 51 34 83 151 206 221 199 20 22 26 30 22 20 31 25 17 17 15 22 28 17 20 17 19 14 14 22 19 19 17 20 20 23 29 27 28 36 44 41 36 31 38 46 51 58 75 92 99 106 112 124 124 125 147 155 149 160 162 162 158 154 152 144 153 149 142 152 147 136 116 114 112 132 120 114 96 85 78 80 101 105 97 89 82 52 46 55 52 59 63 59 73 63 39 46 93 153 215 206 20 20 25 31 20 14 26 23 16 18 20 19 25 16 21 21 18 15 15 21 28 30 33 33 34 33 30 24 23 22 31 38 40 39 38 41 46 51 64 80 90 95 107 125 137 142 160 181 180 176 184 190 182 173 176 169 165 163 156 167 163 152 141 144 153 155 151 138 129 108 90 80 81 95 116 107 77 65 53 50 44 47 66 61 63 71 42 45 85 112 166 201 15 18 23 29 20 15 19 20 15 24 27 20 20 17 21 20 16 19 21 20 30 37 42 44 35 32 35 35 38 37 36 37 31 29 34 41 48 56 67 81 89 97 110 126 139 157 175 188 195 196 200 202 195 188 193 189 183 178 181 182 179 175 174 173 171 162 153 143 135 126 110 98 82 76 80 117 109 65 49 42 43 45 43 55 58 60 67 46 62 88 142 197 16 18 22 24 20 18 16 19 18 31 34 20 20 20 18 17 20 19 30 34 32 35 33 32 33 33 42 51 60 74 83 77 54 41 40 35 30 45 53 76 101 106 119 127 146 162 181 201 204 207 205 205 202 199 200 199 198 199 198 194 189 189 191 188 179 174 164 152 142 131 118 111 95 88 93 94 126 104 48 36 40 47 49 45 48 55 66 68 50 78 104 148 18 19 20 22 16 17 15 15 20 33 32 17 17 18 21 20 18 26 29 33 33 33 30 30 35 46 62 78 95 115 127 132 117 90 77 58 50 53 65 88 104 115 123 130 151 176 192 205 212 210 210 211 209 207 204 205 205 206 204 203 203 201 196 195 193 189 185 170 160 155 150 132 119 89 89 104 104 125 87 43 38 44 48 54 46 49 57 71 77 62 95 112 21 22 18 16 14 10 13 12 21 34 25 16 14 18 22 22 19 29 38 44 46 50 54 57 65 79 102 120 138 151 157 163 164 148 127 100 89 96 116 128 133 131 138 149 164 186 203 209 214 212 212 213 212 210 208 209 207 210 212 210 211 209 202 199 195 191 187 181 176 162 159 155 131 110 83 92 110 107 112 63 34 35 40 49 52 51 40 61 93 70 63 106 19 17 17 17 15 10 10 11 21 31 22 16 11 20 32 26 18 33 48 61 69 72 79 90 100 116 134 145 158 163 170 175 175 168 159 149 139 136 143 145 149 150 158 167 179 196 209 213 213 211 211 211 209 209 208 211 213 215 214 214 213 211 207 204 201 198 193 191 188 181 169 162 140 122 110 69 104 117 96 70 43 36 37 41 49 56 53 37 74 87 52 57 14 14 17 14 14 9 11 11 22 26 16 16 10 24 38 21 25 52 75 87 93 89 98 112 125 142 155 162 168 173 174 176 175 173 173 171 166 162 161 164 165 166 173 181 191 203 210 212 213 210 210 212 209 210 210 213 214 216 215 214 215 214 211 211 206 202 200 195 191 187 183 173 151 134 125 84 56 112 97 68 50 42 39 40 50 48 60 43 39 88 104 59 14 19 22 15 18 8 11 10 29 19 17 13 13 33 40 25 42 75 93 102 110 113 120 135 140 149 161 167 170 178 177 175 176 176 177 178 179 180 183 184 183 183 183 191 199 208 211 212 216 212 212 213 212 212 213 212 213 214 214 214 213 215 211 210 205 205 203 198 197 190 188 183 161 140 135 104 59 65 101 71 47 42 40 44 40 45 44 45 41 62 120 90 19 24 20 24 19 7 12 13 23 17 20 15 12 40 47 36 59 91 108 116 121 126 133 141 149 155 159 164 173 177 181 181 182 181 183 184 187 187 190 191 191 194 195 197 205 208 209 212 213 213 215 213 213 213 213 212 210 212 213 214 213 214 213 210 207 208 207 203 200 193 189 189 175 149 137 118 76 57 81 74 41 43 51 40 43 51 42 43 41 50 76 118 33 27 22 25 11 11 11 16 18 18 15 12 8 31 51 42 68 104 123 125 132 133 139 147 153 156 160 165 174 177 181 185 185 186 187 190 192 193 193 194 196 199 203 202 207 208 210 213 213 212 215 215 214 214 212 212 212 211 213 212 212 214 213 211 208 209 208 205 202 198 190 184 182 163 146 123 87 55 57 77 53 41 40 38 42 44 50 54 51 41 46 113 29 27 25 18 13 15 14 17 18 15 9 11 8 15 35 57 85 114 123 134 136 136 140 149 154 159 160 168 173 176 181 186 188 188 188 192 194 195 195 196 199 201 202 203 205 206 210 215 214 213 214 213 213 214 214 212 213 213 212 211 207 211 211 209 207 207 206 204 202 201 195 185 179 176 159 132 108 77 47 68 67 48 48 37 33 29 34 45 45 55 49 83 26 21 19 19 18 22 25 14 14 12 13 10 7 9 25 63 98 119 129 136 138 136 142 145 151 159 161 166 172 177 183 186 188 188 188 191 193 195 193 196 200 200 200 201 204 206 210 212 213 213 214 209 213 212 212 213 213 212 213 211 209 209 209 207 205 205 205 206 206 203 198 190 187 182 167 143 120 87 59 48 83 53 50 47 32 33 25 28 40 36 44 65 25 27 31 29 26 28 21 15 18 19 16 10 7 7 14 53 97 119 133 139 137 136 142 146 151 156 161 166 172 175 183 184 184 186 189 191 195 194 194 195 196 197 198 200 200 205 208 206 207 209 210 209 209 208 208 209 210 211 211 212 210 209 206 205 203 205 205 206 206 205 201 194 192 190 176 146 118 95 66 53 72 86 42 54 40 29 36 25 31 33 25 34 36 32 31 34 34 26 15 15 19 25 26 18 9 7 10 44 101 125 137 139 140 140 142 144 153 155 157 163 166 171 176 181 185 187 189 189 191 190 192 192 193 193 193 196 196 200 205 206 207 209 211 210 211 211 210 209 211 210 208 208 208 206 205 203 203 206 209 208 207 207 203 200 195 190 181 160 125 101 83 68 60 91 61 46 48 32 37 40 23 29 30 24 25 17 17 22 21 9 9 15 19 26 27 22 14 10 15 57 114 129 137 141 143 145 144 144 152 154 157 161 164 172 178 183 184 185 187 186 188 192 194 196 195 195 196 200 200 203 206 209 207 208 209 209 211 211 213 211 210 208 209 208 206 203 205 202 204 208 212 210 209 205 205 203 200 193 178 164 134 107 91 83 65 63 75 37 48 44 33 48 33 28 28 39 16 17 15 16 9 9 15 14 9 13 19 21 25 33 54 95 123 132 137 142 145 147 144 145 147 153 155 163 169 174 178 181 182 185 186 189 191 196 199 199 198 197 197 202 201 206 206 206 208 208 210 212 211 211 211 212 211 211 211 210 208 206 205 205 207 207 210 209 209 210 208 205 202 194 185 163 135 115 93 87 81 65 57 36 40 54 41 32 43 34 41 26 14 12 17 14 7 13 23 13 7 13 23 25 42 74 102 120 129 134 139 147 147 144 143 146 146 150 154 160 165 173 176 177 182 185 187 189 192 195 198 197 197 199 200 204 204 206 208 206 207 208 209 210 210 211 211 213 213 212 211 210 211 208 207 211 211 215 215 213 213 209 205 204 203 196 188 170 144 119 86 72 74 81 57 41 27 44 49 33 41 44 46 29 13 13 17 14 6 20 36 23 15 21 24 36 62 86 113 125 133 138 140 148 151 145 146 153 154 153 154 159 164 165 164 171 179 184 188 191 194 197 195 198 197 196 201 205 205 205 209 211 202 201 208 209 210 210 211 213 212 211 211 211 212 211 210 209 211 213 213 211 213 210 208 206 199 197 188 168 152 127 88 62 52 52 64 44 32 23 44 53 40 41 39 41 15 17 17 20 12 27 50 35 26 18 27 47 72 98 115 126 134 140 141 143 145 149 148 150 152 151 152 157 161 163 166 174 179 184 189 193 196 196 197 197 196 198 202 203 206 209 210 210 207 203 207 207 208 210 211 212 212 210 213 212 211 211 211 211 212 214 214 213 208 209 210 208 200 196 188 171 153 133 96 67 51 39 44 52 37 26 25 43 47 42 34 40 24 25 22 19 19 31 51 44 37 26 31 53 76 100 114 128 136 137 143 143 144 150 148 147 147 145 150 158 164 167 169 176 183 186 189 192 194 195 197 199 197 197 199 204 208 210 208 210 209 209 208 205 206 209 210 212 210 212 212 213 213 210 211 213 214 213 213 212 208 208 208 205 200 198 193 183 166 140 106 70 47 43 36 46 35 28 28 20 39 50 34 35 22 36 35 16 20 31 39 50 38 31 31 55 78 95 116 130 131 134 144 148 150 148 149 151 150 153 156 160 165 168 168 171 179 183 186 188 192 192 194 195 199 199 197 204 210 210 209 210 207 206 205 206 208 208 211 211 211 214 216 214 214 212 208 211 214 212 210 208 209 211 208 205 201 197 194 187 175 149 120 82 57 34 31 39 37 33 31 20 20 42 42 30 18 49 51 19 16 25 26 31 34 33 35 49 72 98 121 129 136 138 142 147 150 151 153 157 155 155 158 159 164 165 163 166 175 184 187 188 194 195 195 195 201 201 197 198 205 209 208 208 207 205 206 207 209 210 212 212 214 215 216 217 217 215 217 214 215 214 208 208 208 208 206 201 198 195 194 187 179 156 124 87 57 41 31 28 40 29 31 29 20 21 46 36 23 46 56 21 16 20 22 17 37 29 35 44 74 103 114 125 137 138 142 143 150 154 154 159 156 155 157 157 160 163 166 174 181 187 193 193 197 198 199 198 197 198 199 202 205 209 209 207 205 207 206 208 206 209 211 211 213 215 217 217 217 217 216 217 216 216 213 211 210 209 206 202 202 196 194 188 176 169 136 95 67 44 38 28 34 32 24 31 31 17 32 39 30 45 40 17 15 20 23 15 28 33 27 43 75 94 112 120 131 137 139 146 148 154 157 158 154 154 157 159 162 165 171 176 183 188 194 195 198 198 200 200 199 200 201 204 207 206 205 206 205 204 205 205 205 207 210 212 215 214 215 219 218 216 215 217 216 214 212 211 211 209 205 202 199 195 191 188 181 173 154 107 59 45 32 33 32 29 18 16 26 26 23 28 37 39 26 17 15 21 16 12 20 34 23 43 61 88 110 121 131 134 138 145 149 150 156 155 151 158 160 163 166 165 170 176 182 188 192 197 198 198 198 196 200 198 200 202 204 204 203 204 202 202 202 203 205 207 208 209 210 213 213 218 218 217 218 218 217 216 214 214 212 209 208 204 198 196 193 188 184 181 167 125 73 45 29 32 36 27 19 18 16 25 29 27 25 32 21 19 17 19 12 16 17 27 23 42 65 90 109 120 131 133 140 144 148 150 156 159 158 160 162 164 167 167 168 176 182 185 188 193 197 195 196 195 196 198 201 199 198 202 199 196 197 200 201 201 204 204 207 206 210 210 213 214 216 217 217 215 218 217 216 216 214 211 209 205 201 196 193 190 188 183 175 148 90 54 37 32 35 26 19 19 19 24 28 30 25 26 17 16 17 16 20 19 15 20 27 39 64 90 110 117 131 135 139 145 149 154 158 159 162 162 162 167 168 167 169 173 178 180 185 192 194 190 187 191 194 194 198 199 195 197 197 193 197 201 200 199 200 203 205 209 207 209 212 212 215 218 217 217 219 219 217 218 218 214 211 206 203 195 192 190 189 187 179 160 117 53 37 29 34 27 22 21 17 20 24 31 23 24 18 17 18 19 20 17 14 18 27 38 66 92 107 115 125 135 140 145 152 157 157 159 161 163 164 168 170 172 173 170 179 183 182 186 189 190 188 189 189 191 193 196 198 195 194 194 194 196 198 196 194 198 199 200 204 204 206 210 213 216 215 217 216 217 215 212 213 213 209 206 203 201 195 190 189 189 180 166 143 68 38 31 30 27 24 25 22 20 24 31 23 22 19 18 18 19 13 13 12 21 33 51 66 91 102 116 124 130 136 146 154 157 157 158 162 165 166 169 171 174 174 169 173 179 181 181 186 191 192 191 190 189 193 196 196 192 191 190 189 190 193 195 191 190 196 196 196 198 200 203 208 211 209 209 214 212 208 205 206 206 206 206 205 201 196 188 189 187 182 174 159 95 34 37 27 24 22 21 22 22 28 28 18 19 19 16 15 11 16 16 14 23 40 60 76 92 103 116 120 129 138 147 156 159 160 159 162 162 166 168 171 174 175 172 171 173 177 178 181 184 186 190 193 187 187 193 193 194 190 189 185 186 185 186 185 183 188 190 180 186 192 186 199 202 201 202 206 205 198 195 196 190 189 197 201 199 200 191 190 185 184 177 165 115 37 42 34 24 17 14 14 18 31 28 25 15 12 15 21 19 21 22 17 27 45 69 80 91 102 112 116 129 138 150 157 161 162 158 158 158 165 168 169 171 173 161 160 152 164 172 169 174 177 186 187 187 187 189 191 191 188 188 184 179 184 184 181 181 178 174 153 169 166 159 172 160 162 170 165 166 165 162 173 175 179 172 178 189 195 192 189 186 185 181 171 129 49 44 39 24 21 24 20 18 21 30 17 6 14 21 28 22 24 21 18 32 57 79 83 93 101 106 112 127 142 153 158 157 157 157 157 157 158 160 153 145 135 121 122 135 141 155 156 164 168 175 180 185 190 190 188 188 188 185 183 180 179 176 174 175 165 154 126 154 140 127 125 99 95 115 119 120 122 127 143 157 159 149 151 162 174 186 187 186 185 185 179 145 76 45 35 23 23 25 30 33 24 27 9 10 17 22 25 28 21 21 19 39 68 82 90 95 104 106 113 127 145 151 148 139 144 140 141 136 123 103 95 81 82 90 81 104 130 129 131 149 161 172 174 181 185 184 182 185 182 181 179 174 174 171 168 157 141 143 125 131 107 96 79 60 66 73 76 76 85 99 117 125 112 101 120 148 166 177 188 188 188 186 182 158 90 64 33 22 25 26 24 42 40 27 10 11 16 21 27 20 16 16 21 48 77 83 98 102 108 104 110 127 138 134 119 123 115 96 89 80 63 50 47 48 49 66 75 71 106 122 121 136 148 161 167 170 175 176 177 177 170 175 177 168 167 166 164 148 134 135 120 104 92 85 66 63 62 67 68 71 66 81 95 101 97 100 121 141 142 159 175 181 183 183 182 170 92 80 50 30 24 22 24 40 45 33 14 16 20 23 19 12 18 12 26 56 83 93 100 103 105 102 111 121 111 95 97 98 86 64 46 43 40 42 43 43 38 48 74 77 85 105 115 123 140 142 153 163 166 170 176 176 170 168 169 164 158 156 152 140 133 128 118 107 101 91 86 90 101 109 104 101 99 105 106 110 113 126 119 115 128 149 170 177 181 182 181 174 110 85 71 18 12 13 19 36 41 37 13 14 16 20 19 21 14 12 29 60 87 96 99 104 102 105 104 92 82 71 59 54 60 50 44 41 43 43 50 60 61 70 81 89 93 101 104 98 126 138 142 150 157 163 171 174 173 165 162 162 148 143 140 132 124 118 111 108 96 83 76 74 78 79 82 85 95 102 111 121 126 122 118 129 139 148 166 177 183 184 182 174 114 88 59 20 13 17 42 39 30 32 9 9 16 21 21 22 13 13 31 63 90 94 100 108 104 101 83 58 69 63 48 48 53 54 63 73 79 82 86 91 87 83 83 83 85 87 91 90 103 118 128 136 147 154 164 166 168 171 164 157 142 133 128 121 111 104 91 65 49 49 41 21 12 15 20 22 28 46 58 71 93 122 138 141 140 150 171 179 181 185 185 178 100 56 47 17 18 80 84 75 118 53 11 11 17 20 20 15 15 15 32 67 93 101 106 108 105 94 77 60 61 56 51 58 67 77 88 97 100 95 84 67 57 52 49 50 61 70 77 80 87 99 111 124 136 148 159 166 175 181 177 166 149 136 127 118 104 85 52 43 58 42 18 42 81 75 52 70 74 47 38 59 71 83 128 142 143 153 173 178 179 183 186 182 120 39 35 26 33 54 82 161 211 156 11 15 19 19 14 16 15 14 31 70 94 102 108 107 105 87 70 58 55 55 64 71 75 88 86 71 56 37 21 13 16 28 44 55 50 43 52 69 74 85 95 112 133 149 163 175 183 190 188 179 163 145 132 113 92 69 74 85 60 31 27 52 73 58 45 75 150 121 51 32 58 74 96 141 145 147 166 177 182 186 187 186 152 74 33 49 85 123 176 187 187 186 15 15 10 9 13 19 18 11 31 71 93 103 109 108 108 90 85 77 79 77 80 84 78 62 48 24 14 11 35 82 65 40 66 56 70 77 65 53 63 70 84 108 131 154 175 193 201 205 203 193 177 158 133 110 91 97 111 72 95 71 41 34 22 33 27 84 163 133 101 104 91 89 87 121 149 155 168 180 185 189 189 189 159 94 61 69 130 152 148 140 123 156 12 8 6 8 13 18 21 13 28 73 97 105 113 108 114 107 94 93 94 90 85 74 53 44 29 26 21 25 57 132 108 66 121 136 80 69 90 92 83 81 86 104 131 156 176 194 206 211 211 200 181 163 147 133 136 141 98 92 122 114 90 93 93 102 112 137 136 146 156 159 152 145 139 136 155 172 176 184 189 190 190 188 175 101 56 49 78 107 101 70 63 136 11 12 11 8 12 16 23 16 24 75 105 111 115 112 114 107 103 97 89 84 75 57 43 25 29 54 29 43 29 12 16 38 152 184 145 113 80 108 117 120 102 107 130 153 171 189 202 211 211 200 184 170 165 167 176 166 148 140 134 133 141 152 151 156 141 135 151 150 163 163 167 174 175 172 175 184 187 189 190 190 190 188 181 119 56 50 101 127 90 64 84 145 21 28 24 16 11 12 18 17 27 79 110 117 119 115 117 114 102 93 82 75 69 49 31 31 60 93 79 65 61 73 77 111 143 136 131 129 128 143 136 147 125 113 134 146 169 187 200 208 206 198 184 178 174 180 181 178 170 160 145 141 136 134 143 139 139 146 153 154 157 163 174 182 188 187 192 198 197 195 192 190 190 187 187 140 71 66 157 165 139 82 88 146 58 54 43 27 15 11 14 15 35 92 117 120 124 121 120 122 113 95 83 83 75 60 56 78 90 110 120 118 124 140 146 137 146 142 149 153 159 152 151 147 127 128 135 147 172 186 197 206 207 198 187 183 181 178 181 166 159 152 143 136 139 139 139 137 139 147 155 160 167 175 183 190 195 197 200 202 201 197 194 193 191 187 189 160 93 98 174 184 165 109 101 154 40 57 61 45 28 15 14 19 45 99 118 123 127 127 127 126 128 123 111 106 101 98 91 95 106 107 104 110 114 111 131 141 151 153 149 146 142 149 154 141 142 139 136 145 168 184 194 204 211 204 190 187 191 187 185 180 177 171 165 157 155 152 149 148 156 161 168 171 179 189 195 199 199 201 204 204 203 200 196 194 191 189 188 176 120 133 179 188 183 122 119 169 23 29 48 46 37 24 16 26 56 108 122 125 129 132 133 135 140 143 135 128 130 122 114 111 111 107 108 111 121 127 134 139 140 143 145 147 156 159 154 152 156 145 137 141 163 183 193 202 208 206 195 189 195 195 192 188 187 185 178 179 183 184 185 184 186 189 191 194 198 202 200 201 202 204 203 201 203 199 194 193 190 189 188 180 135 118 165 182 189 132 135 169 24 28 46 53 39 34 23 29 65 115 121 126 128 133 136 144 146 146 145 143 144 137 128 123 123 125 126 127 131 131 133 139 147 155 161 166 166 160 160 166 158 146 138 142 159 180 193 200 209 208 198 191 194 200 197 197 198 194 187 182 184 188 188 190 197 201 203 204 205 206 207 208 208 206 204 203 201 198 194 193 192 187 187 182 145 108 143 172 190 148 148 155 24 29 59 62 48 36 26 33 81 122 125 129 132 136 136 142 147 147 149 148 148 144 144 142 132 132 138 141 147 154 159 164 175 176 172 171 165 163 166 162 152 146 139 143 157 179 193 203 211 212 201 196 194 199 200 199 202 205 203 194 187 186 184 186 191 194 198 200 203 205 208 208 209 210 206 203 200 197 194 193 190 187 186 184 158 111 125 166 187 159 165 139 33 36 69 70 46 42 27 41 93 123 128 129 133 136 137 141 151 151 153 151 152 154 157 156 154 154 157 161 165 172 174 174 173 173 175 174 171 172 168 154 147 146 144 145 157 176 188 201 212 215 205 198 196 200 198 199 201 208 210 206 202 199 192 189 195 198 194 198 203 206 207 208 209 212 206 201 198 194 193 190 187 188 185 183 156 108 122 166 190 164 174 114 38 42 82 80 69 60 34 47 98 128 130 131 132 135 138 144 148 150 153 154 157 160 165 164 165 166 166 167 170 173 172 173 177 177 178 176 174 172 161 152 151 149 142 147 158 175 188 202 214 217 208 202 200 200 201 201 200 208 209 211 210 205 201 198 198 203 206 207 207 210 213 210 209 211 207 201 196 193 191 188 188 188 185 182 160 99 130 171 192 163 176 105 47 47 87 95 91 60 27 47 101 128 128 130 131 135 138 143 147 149 151 154 158 160 165 166 168 168 172 171 175 178 176 175 182 181 178 178 177 166 156 151 151 146 140 145 158 178 189 200 211 218 210 203 201 201 205 203 199 204 207 206 208 209 207 204 204 205 207 211 213 214 215 212 210 207 203 197 194 190 190 187 184 187 186 183 163 118 144 174 191 167 171 115 58 53 93 94 84 57 31 55 106 130 131 130 131 133 137 140 143 147 149 153 156 162 164 168 172 173 179 181 179 176 177 180 181 180 178 180 177 162 150 149 151 146 138 142 159 176 191 200 209 218 212 204 199 201 203 201 201 207 210 206 205 209 212 209 208 211 209 211 213 211 211 211 208 203 198 195 196 190 188 185 181 186 184 180 160 141 171 187 194 173 163 104 70 60 98 94 83 66 38 60 108 128 131 130 131 133 138 139 143 146 145 153 155 158 162 168 172 176 179 184 182 177 178 182 180 180 181 178 172 156 151 150 148 141 137 141 159 171 187 199 209 219 220 206 201 199 199 201 200 207 210 207 205 205 209 212 210 214 213 211 210 207 204 206 205 199 194 195 195 190 188 184 185 184 180 176 161 141 172 197 190 179 151 91 84 68 98 98 81 61 40 63 109 127 130 130 129 131 136 138 142 147 148 152 155 157 161 165 167 171 173 180 183 180 181 182 176 180 183 179 167 155 151 148 141 134 135 139 155 170 185 198 210 218 220 208 201 194 190 194 200 206 207 205 205 204 205 211 214 214 212 210 211 207 203 202 200 196 194 193 193 188 185 185 184 182 180 176 162 135 174 210 190 190 123 69 104 76 101 98 78 59 45 67 107 127 129 131 131 131 131 137 142 143 149 148 151 156 161 164 166 168 174 179 182 181 184 179 179 184 182 177 165 155 146 141 133 128 130 139 156 169 181 198 207 214 220 215 204 192 187 189 192 200 205 206 207 206 206 208 215 214 211 212 210 207 203 197 194 194 189 187 187 184 185 185 182 181 179 172 161 142 189 210 182 197 99 51 108 87 104 108 88 79 66 74 103 126 130 131 130 131 131 132 134 136 143 147 149 155 158 164 166 165 170 178 180 177 182 182 182 183 180 174 164 157 141 129 129 125 128 143 157 167 185 197 205 213 219 213 205 197 196 192 182 189 201 205 205 210 209 209 213 212 211 209 208 208 202 198 193 192 189 185 183 186 185 184 183 183 181 168 146 135 194 185 185 187 62 61 78 93 103 122 114 111 85 69 87 119 132 131 128 130 130 128 129 133 139 142 145 148 156 160 165 168 170 178 183 180 182 184 182 183 178 169 163 151 136 125 135 130 132 142 155 166 184 198 205 213 214 211 204 201 203 201 188 181 190 197 201 205 207 208 210 211 209 203 203 199 197 198 190 188 187 186 184 185 184 184 181 181 178 167 138 138 188 174 201 149 22 103 35 98 106 138 135 119 88 55 82 117 128 129 128 129 129 128 127 130 134 136 138 144 151 161 161 168 170 173 184 183 182 184 183 184 182 175 162 140 126 133 144 140 136 142 159 169 185 198 206 210 215 213 202 200 205 206 203 188 182 190 196 195 203 206 206 208 204 203 202 199 197 195 192 188 184 184 184 185 184 185 182 180 176 159 133 137 191 191 213 110 16 92 9 60 75 110 125 108 77 58 73 112 129 128 128 130 128 127 129 127 128 132 139 142 148 152 159 163 168 170 178 182 185 181 183 183 182 175 164 140 125 145 150 145 137 142 156 166 183 193 202 207 210 210 198 196 204 204 205 197 182 181 189 193 199 201 202 200 204 204 201 202 199 196 191 189 185 185 181 183 185 184 183 181 173 150 129 151 209 206 211 79 35 150 3 51 88 82 89 91 82 55 56 95 122 123 125 126 127 127 130 128 127 130 137 141 147 143 156 161 169 169 174 179 182 182 180 176 176 170 163 137 135 151 151 144 135 137 147 160 173 182 188 195 199 197 189 189 196 194 195 196 186 180 179 184 193 195 198 198 202 203 202 201 196 191 186 186 184 183 182 185 186 182 182 182 173 141 111 155 204 214 195 62 57 111 9 30 75 70 86 69 79 59 56 89 113 123 123 126 127 127 131 130 127 130 133 139 142 149 155 158 166 168 173 179 177 180 180 175 178 173 159 136 136 145 144 137 129 123 133 146 159 166 174 179 184 180 176 183 180 168 166 180 181 182 178 181 187 192 197 199 199 200 203 200 195 190 188 187 183 181 186 187 186 183 183 178 169 151 120 154 181 208 176 84 60 53 19 18 41 48 42 54 59 71 58 84 105 116 126 126 128 129 131 129 129 131 132 136 140 147 154 156 163 168 170 175 176 182 177 175 178 172 153 134 128 125 114 109 104 107 112 122 140 151 160 165 166 166 162 115 77 96 132 158 183 185 181 177 183 189 193 196 198 198 198 197 194 190 188 185 186 183 184 182 184 184 183 179 167 153 138 158 184 196 155 79 89 82 17 12 45 91 66 36 48 58 64 78 94 110 123 124 130 127 130 131 130 129 131 133 138 142 147 155 159 164 170 172 172 178 179 177 174 160 148 130 111 99 71 34 18 38 82 113 123 135 144 152 158 161 92 29 37 74 108 148 190 193 191 179 182 187 190 195 195 195 196 192 191 190 187 185 186 184 184 182 185 179 177 177 166 152 138 165 176 194 117 53 53 86 15 11 33 76 71 65 53 52 51 64 95 109 114 117 123 126 128 132 133 128 131 133 136 138 144 150 156 161 170 173 172 174 177 175 168 157 156 137 101 82 72 61 46 38 43 79 108 118 128 135 142 125 124 145 151 129 124 175 200 201 199 190 183 185 188 195 194 194 192 191 191 192 191 189 186 187 185 184 183 182 179 174 165 144 126 141 141 149 59 52 121 125 15 17 21 58 81 71 61 48 53 58 88 101 104 112 120 125 129 132 131 130 131 134 134 137 144 149 156 160 165 172 173 172 173 176 169 163 159 148 116 86 87 108 112 104 95 63 74 96 98 113 129 137 168 177 174 163 182 202 204 203 203 195 188 186 188 194 196 197 196 191 193 192 192 188 186 186 184 184 180 183 183 169 151 128 122 109 76 60 25 48 147 145 14 19 13 37 73 100 65 44 57 66 78 88 106 104 118 122 129 130 133 134 134 136 136 137 144 148 152 158 162 168 170 172 173 175 174 167 162 151 134 117 103 110 121 116 117 96 71 75 75 107 142 165 166 163 174 190 200 204 206 208 207 204 197 189 191 191 194 195 196 191 194 194 189 189 188 187 185 184 175 174 178 167 144 129 106 86 31 23 26 37 57 80 10 13 12 17 76 87 67 53 47 59 64 74 90 101 117 118 124 130 134 136 133 133 137 138 140 145 153 157 158 166 168 168 173 172 173 166 162 149 140 134 127 125 124 105 102 108 105 86 94 124 146 145 147 126 130 170 181 187 197 208 210 207 205 198 189 190 193 192 196 196 195 195 193 193 189 187 185 180 175 167 165 163 152 124 93 50 20 28 19 28 39 68 10 10 11 7 75 101 95 65 48 57 54 68 88 95 116 113 122 127 133 135 134 133 138 141 142 147 150 156 160 161 163 168 172 174 172 168 163 151 141 132 118 110 83 74 76 108 135 146 136 133 140 126 116 121 115 133 148 162 192 208 211 209 208 206 197 192 194 196 195 194 191 191 195 193 188 186 184 178 176 166 155 158 151 119 94 29 17 18 16 24 32 48 12 11 10 1 49 118 120 76 47 50 51 69 77 90 103 109 120 127 131 132 136 137 136 140 142 146 151 154 159 158 164 169 171 174 173 169 164 159 143 134 106 76 64 79 76 102 126 139 135 130 122 121 108 115 106 101 116 132 164 194 199 203 203 208 205 199 195 194 193 196 194 191 193 190 185 185 182 176 173 164 154 148 127 103 83 41 14 14 17 20 22 34 9 11 10 7 12 83 117 88 43 40 51 65 71 85 100 114 120 124 128 131 134 136 136 137 142 147 151 153 156 157 160 165 170 174 172 170 167 155 146 117 80 63 62 66 83 99 116 121 130 143 115 107 111 125 108 96 109 113 132 155 176 175 187 199 202 204 198 195 194 196 197 192 191 190 187 186 179 165 163 161 158 148 116 96 66 57 21 15 13 15 20 41 9 9 9 8 6 15 50 57 34 32 42 62 79 84 105 115 117 119 129 130 131 135 134 136 140 149 154 153 158 159 159 164 170 169 170 162 155 137 123 96 52 52 64 79 98 89 122 132 136 150 132 106 108 119 126 113 116 109 120 130 158 173 164 178 182 189 195 196 196 196 195 194 191 187 184 183 177 167 148 162 157 138 112 90 61 31 24 20 16 19 21 42 9 7 6 6 6 4 1 3 16 32 37 54 81 83 107 112 115 112 120 128 133 130 132 136 141 150 152 153 154 154 162 166 162 162 151 131 129 111 100 72 52 50 68 83 88 92 157 166 164 164 162 154 153 135 107 113 106 108 120 121 144 158 164 160 174 170 178 189 193 194 194 194 191 189 185 180 168 167 149 147 151 138 112 71 54 22 23 30 18 26 32 27 9 8 6 6 6 6 5 8 16 25 24 51 67 73 100 111 108 111 119 125 130 129 134 134 136 142 147 154 155 156 165 160 148 141 116 117 104 88 82 67 60 60 67 61 76 127 182 190 194 198 187 184 170 131 83 90 98 109 122 133 140 146 148 144 161 155 162 176 189 190 190 193 189 184 178 177 156 163 149 133 160 150 97 69 48 19 18 26 18 26 50 52 11 10 9 6 7 7 7 6 15 20 19 42 55 72 92 102 109 112 105 108 119 128 126 131 135 140 144 151 153 158 159 138 138 118 108 101 91 83 85 83 68 69 73 71 92 127 140 151 169 185 165 144 133 127 108 92 92 99 126 134 137 134 144 144 159 155 146 155 176 189 189 190 189 176 175 178 156 139 149 134 156 143 88 79 36 15 14 16 28 41 51 73 11 10 9 7 7 7 7 6 13 17 21 29 51 75 77 79 109 108 93 104 108 117 117 132 136 138 145 149 152 152 138 122 117 97 95 77 86 90 92 86 92 74 61 90 111 132 131 127 136 145 137 125 131 133 131 124 115 100 106 118 135 123 119 121 145 153 147 136 150 181 191 187 189 182 164 161 160 134 132 147 146 127 88 66 26 17 18 19 23 39 58 60 9 7 8 8 7 9 6 6 9 13 19 21 44 58 69 82 99 99 98 91 104 106 111 130 130 142 142 145 153 144 128 111 95 89 80 71 86 82 88 82 82 78 78 96 115 116 120 116 111 127 131 117 113 113 117 110 103 95 77 94 117 106 87 95 122 136 133 134 128 169 182 189 183 169 168 145 152 137 122 138 137 103 59 40 23 19 17 22 22 25 36 61 11 8 10 8 9 9 8 6 8 10 19 23 28 43 70 85 88 78 95 89 94 101 108 121 126 141 139 145 150 131 118 94 85 83 70 74 77 63 90 81 64 68 74 69 68 73 74 73 77 85 93 89 67 71 76 72 80 85 69 49 66 79 86 98 116 129 118 120 118 141 172 182 176 158 158 143 141 135 120 117 105 67 44 30 22 22 23 21 22 29 27 75 12 9 9 8 10 10 7 8 7 6 16 26 25 42 61 74 77 80 92 80 80 93 106 105 115 131 136 140 138 112 93 73 76 72 56 63 67 69 79 54 44 51 57 60 66 73 77 83 84 84 92 113 127 141 148 157 160 160 150 114 68 57 68 93 123 132 106 107 100 132 147 164 167 157 154 140 141 140 129 109 96 63 48 21 22 24 24 22 26 25 34 76 11 12 11 10 7 9 6 10 8 6 7 28 30 31 47 66 82 80 82 65 69 83 83 91 109 128 134 131 117 105 86 60 71 73 72 68 60 47 37 45 75 101 111 120 137 147 152 161 174 175 172 178 179 178 181 184 180 178 177 171 161 154 138 132 132 128 123 95 94 133 150 142 149 164 145 129 125 129 130 116 89 57 36 14 15 16 17 20 24 22 35 124 13 14 12 11 7 7 7 8 9 9 12 18 35 38 45 70 80 79 80 74 67 71 74 93 101 114 128 120 104 110 83 66 75 70 83 94 77 85 91 97 112 122 130 136 150 156 168 177 180 182 178 180 180 182 180 179 180 186 189 192 190 188 184 176 165 147 127 106 123 129 140 133 140 151 135 122 117 111 121 106 78 48 33 17 17 19 20 25 28 26 39 143 14 13 12 11 9 7 6 9 11 15 13 11 24 46 50 57 66 71 72 66 61 64 71 83 89 103 119 123 118 88 72 74 74 80 114 137 138 142 141 132 129 130 127 134 147 150 160 170 175 178 178 179 177 178 179 184 193 196 192 191 189 184 190 191 189 175 153 132 127 136 136 126 157 142 130 117 122 110 91 88 62 42 29 19 21 22 25 26 33 28 34 110 15 13 11 7 8 8 7 12 14 11 11 17 18 30 38 44 48 52 60 62 63 58 68 86 80 92 111 124 110 91 76 73 74 108 147 157 155 149 144 148 144 143 146 151 158 162 160 167 177 180 182 177 181 181 181 187 190 187 184 186 185 182 192 198 196 188 175 159 136 119 128 146 156 134 122 100 113 97 72 74 53 40 19 19 29 32 35 34 31 26 41 75 23 13 9 8 7 6 15 18 12 13 11 18 18 23 34 35 34 48 46 59 55 54 67 71 69 80 106 113 90 84 71 81 101 138 161 166 158 152 144 151 147 143 148 150 154 151 146 149 149 149 146 146 150 155 163 167 176 184 184 182 182 190 199 199 198 192 184 178 159 133 139 147 132 115 105 96 87 71 61 61 40 22 15 19 24 25 24 34 55 66 53 84 18 14 9 9 7 11 12 9 14 18 16 26 26 20 39 49 40 42 37 46 52 49 70 65 72 76 89 105 89 81 87 94 131 154 165 169 163 156 146 148 148 143 142 142 148 140 131 121 114 114 118 118 122 140 155 163 171 177 183 184 190 198 201 196 194 190 186 179 166 153 141 129 112 103 92 86 64 56 45 42 31 13 15 21 23 28 31 73 120 128 65 126 17 10 9 8 6 11 11 8 17 15 25 27 13 21 38 45 36 31 41 42 56 48 59 60 60 73 74 89 88 90 107 128 142 155 161 166 166 158 150 147 143 138 131 131 132 125 127 114 105 110 108 117 126 137 142 155 164 176 186 191 195 196 195 196 191 184 188 184 174 164 152 112 106 96 78 66 49 53 41 33 28 24 20 27 33 43 59 91 140 84 50 178 23 11 7 7 6 8 10 11 17 9 11 12 10 17 42 41 35 33 30 42 44 37 46 52 53 58 60 68 80 95 122 136 150 155 159 161 163 158 153 149 152 147 135 128 127 127 132 120 120 126 113 124 141 144 145 152 167 182 191 195 194 196 192 194 194 190 186 182 178 157 139 105 92 79 58 48 45 36 40 25 24 32 42 42 50 61 53 113 83 34 107 191 9 9 7 7 8 8 9 13 9 16 40 13 6 13 51 60 32 29 31 34 28 36 42 47 53 45 53 67 82 101 116 131 144 154 155 157 157 157 156 155 154 150 145 139 138 143 138 137 141 146 135 136 155 158 160 174 179 187 191 197 198 198 195 193 193 185 174 166 153 135 121 96 79 59 47 41 30 34 100 76 30 47 106 80 55 39 40 50 79 150 141 172 11 8 7 9 9 9 10 8 16 59 51 7 4 12 59 77 42 35 42 24 25 34 38 42 42 43 48 56 80 94 101 123 134 150 155 155 157 159 155 155 154 146 143 148 152 150 144 151 166 169 153 166 180 183 181 185 190 193 196 199 202 199 198 196 194 190 171 152 144 121 107 73 54 46 43 36 23 32 116 166 76 47 55 50 84 57 57 142 201 147 99 180 16 15 12 8 9 10 11 15 53 48 11 9 7 11 60 77 65 43 32 25 26 28 33 35 28 37 42 44 61 83 93 122 132 133 147 159 164 161 157 158 157 156 157 158 162 159 166 174 184 173 168 192 195 196 195 198 201 202 203 203 202 200 203 198 190 180 165 144 135 111 79 62 55 43 33 26 23 29 52 135 109 95 97 52 44 49 46 120 133 135 188 218 17 14 11 10 11 10 22 28 33 7 7 12 9 12 63 75 80 57 30 28 23 22 30 26 23 28 42 50 56 70 84 96 123 128 138 147 159 162 164 162 163 166 166 168 173 178 178 181 184 170 188 201 203 208 208 207 208 207 208 209 202 203 203 199 191 170 153 131 112 95 67 52 39 32 23 39 41 15 43 155 181 145 132 133 77 47 78 143 168 211 222 222 35 22 9 10 10 11 15 12 8 7 11 12 12 11 63 89 98 77 30 19 17 18 23 22 25 31 32 44 51 56 65 87 116 122 132 141 155 164 169 169 166 169 172 173 178 179 180 185 176 169 186 187 199 200 204 207 208 212 212 205 203 201 199 189 188 170 144 124 83 67 44 41 28 32 14 123 149 14 9 101 171 151 131 165 153 120 185 213 215 217 218 222 39 29 11 10 11 11 13 12 7 8 13 13 13 10 54 104 105 93 68 25 22 20 17 20 22 25 32 40 42 41 54 73 93 122 133 138 151 160 168 171 171 172 174 173 178 177 169 174 170 165 178 176 191 192 197 205 202 207 206 206 198 194 196 180 166 156 133 116 77 47 34 28 36 25 85 186 209 76 0 76 182 142 110 125 146 173 210 213 217 216 218 223 16 13 12 14 15 16 15 6 5 11 15 14 16 10 31 93 104 102 90 44 27 21 18 18 18 25 27 33 33 41 42 62 82 102 111 121 132 150 153 167 166 168 171 171 173 175 155 140 157 164 173 174 176 183 194 189 189 190 189 195 189 171 176 170 156 137 110 88 51 35 31 25 24 73 184 198 202 136 1 57 201 196 164 178 202 216 216 217 217 218 222 225 23 20 16 17 17 17 16 6 6 13 15 15 17 17 12 68 108 102 86 68 44 19 20 14 14 20 22 24 25 29 34 49 55 78 83 88 107 129 133 149 157 159 157 164 159 156 145 138 139 147 162 151 153 170 172 162 165 173 166 174 170 165 149 141 137 129 99 58 42 38 36 21 34 136 184 204 192 155 11 76 214 207 192 213 217 214 212 216 218 221 225 226 105 96 55 22 17 19 16 6 8 14 15 16 17 17 12 28 104 112 102 96 64 33 19 12 14 12 23 20 16 19 27 27 46 56 59 86 98 106 105 114 127 139 145 130 136 145 139 129 129 142 154 129 149 156 142 138 148 152 150 143 136 140 136 120 108 101 70 47 36 37 44 17 88 110 129 152 163 118 7 136 218 196 197 218 217 212 211 216 217 223 224 222 172 162 133 27 16 19 16 7 9 14 16 17 16 17 18 7 68 113 109 110 96 54 28 17 12 13 16 16 11 18 20 25 41 42 54 76 70 73 76 84 89 118 126 110 129 132 124 121 120 120 132 129 134 150 127 120 130 127 123 119 110 110 114 94 79 57 41 29 36 38 28 54 131 58 29 42 42 9 23 176 206 195 211 218 217 216 216 217 218 222 221 218 173 183 93 12 21 23 22 7 9 14 17 17 18 19 19 16 21 97 113 109 101 84 53 31 19 14 12 14 13 19 17 27 30 34 44 55 49 48 56 60 59 87 87 102 111 113 93 97 120 115 113 116 105 125 123 107 102 109 105 100 83 86 101 68 57 33 30 27 25 33 32 123 130 46 53 4 0 2 95 198 202 205 214 216 215 215 216 218 219 218 215 213 188 147 23 19 20 22 27 10 8 14 16 17 18 20 20 20 8 54 123 116 110 103 82 50 39 15 11 12 13 21 20 20 20 19 28 35 37 34 45 46 59 70 60 70 79 88 69 86 105 101 88 103 87 94 109 99 81 97 90 74 65 64 75 48 39 27 22 31 28 24 89 147 118 10 76 134 98 118 183 204 205 208 212 213 210 210 212 214 216 215 212 210 172 57 14 22 20 22 24 12 8 14 16 17 19 19 19 19 17 12 92 126 117 110 93 75 64 33 13 9 11 16 14 15 17 16 18 30 28 26 38 40 45 51 48 50 55 62 55 68 79 77 69 77 78 79 79 78 65 77 71 67 57 56 54 30 28 24 21 26 25 56 134 164 112 3 13 115 210 209 209 207 209 213 215 212 210 209 208 208 210 209 209 211 53 21 22 20 21 22 22 12 8 13 16 18 17 18 19 19 20 12 33 123 122 116 112 88 64 65 36 15 13 12 13 12 12 15 10 21 19 23 24 25 28 34 51 46 41 54 49 54 57 56 60 57 61 58 51 57 54 60 49 37 42 43 29 22 21 25 28 29 37 79 139 168 95 6 11 6 135 228 213 209 216 221 220 215 212 212 213 211 209 206 205 208 20 24 22 21 23 23 23 18 10 12 15 17 19 18 19 20 20 19 8 66 129 120 121 102 85 67 61 38 16 13 11 12 15 14 10 12 16 21 14 28 29 22 36 39 40 36 45 40 47 48 42 38 47 40 41 40 38 38 31 25 35 33 18 18 22 22 32 31 49 99 153 175 82 5 14 10 33 172 222 214 222 226 223 218 215 217 219 218 213 207 205 207 25 24 22 21 22 23 25 23 12 10 16 18 17 18 19 19 20 20 17 13 95 130 124 103 95 92 61 55 33 15 12 12 13 10 11 11 16 10 12 21 21 17 23 19 28 25 29 25 36 37 33 23 29 31 39 28 24 22 19 23 33 26 15 17 29 24 32 27 72 137 153 170 66 3 13 16 7 53 200 225 225 227 224 217 215 217 222 224 220 213 210 212 22 23 22 21 22 22 25 24 14 9 15 16 18 18 18 19 21 20 21 13 34 118 126 111 95 100 90 59 61 36 16 15 12 12 16 12 12 10 8 17 15 12 15 17 16 19 22 24 27 21 19 18 22 20 31 29 19 18 17 17 26 20 20 26 24 28 35 45 99 151 154 154 41 3 10 13 15 8 90 218 230 225 221 217 212 214 221 224 222 217 216 218 17 22 24 23 21 24 25 24 16 9 12 16 17 18 18 20 20 21 22 22 10 59 122 111 108 92 82 72 59 56 33 23 17 14 13 14 13 12 11 13 15 15 11 12 14 13 14 15 17 13 14 17 19 19 20 18 18 15 13 16 21 22 28 32 29 39 57 77 133 159 154 144 25 4 9 11 14 15 16 114 224 224 218 213 209 212 219 223 222 219 217 218 23 20 22 24 24 23 25 21 21 16 11 16 17 18 19 19 20 20 21 21 20 11 80 119 105 114 97 79 69 63 53 33 25 22 19 19 15 12 14 14 12 10 9 10 10 10 11 12 13 12 13 14 15 16 14 15 15 13 14 17 24 30 32 40 51 65 92 94 146 165 155 134 17 6 9 10 12 15 17 28 149 228 215 208 207 211 217 220 218 217 215 216 24 25 23 21 24 25 26 26 26 23 10 15 18 20 19 19 20 20 21 20 21 15 22 95 111 111 116 95 88 81 70 51 33 25 28 23 18 15 15 15 13 10 10 13 13 10 13 12 12 10 11 15 15 14 18 15 12 14 18 16 27 38 43 69 79 81 101 124 154 157 156 117 7 7 9 9 11 13 15 22 62 193 213 204 206 212 216 217 216 215 213 214
