P2
# Generated by OpenCV 4.2.0
92 112
255
16 13 32 29 21 36 24 26 18 30 47 45 23 7 14 18 16 12 14 17 18 17 24 24 16 38 38 28 45 42 40 52 60 60 66 83 92 77 77 83 87 86 84 68 54 68 83 82 59 71 64 67 77 66 80 67 92 123 84 53 55 61 42 58 45 46 55 36 30 25 33 63 56 51 33 31 18 18 17 5 7 20 32 28 16 18 18 10 46 54 23 50 9 29 39 25 13 32 35 38 30 38 49 39 19 13 9 14 15 15 13 15 22 21 18 33 23 24 41 34 45 48 44 51 58 59 81 96 103 99 90 101 108 104 100 89 75 86 104 91 77 94 83 96 90 82 85 61 80 99 66 61 70 57 61 58 53 51 49 39 35 29 36 64 53 33 43 36 21 18 14 10 4 14 25 29 18 13 19 12 21 58 29 35 23 57 39 11 11 32 41 39 38 36 36 40 36 24 8 14 18 24 32 37 38 32 49 39 42 31 54 53 44 52 59 59 74 66 71 98 109 112 112 113 131 118 118 117 116 111 121 110 107 120 118 125 107 100 95 73 90 116 92 79 71 70 88 82 71 70 48 38 33 32 38 48 22 29 43 43 34 23 14 15 7 8 16 22 20 10 15 17 10 38 54 23 70 62 18 3 13 33 37 30 37 32 30 45 47 29 11 25 30 43 60 65 36 33 60 57 55 46 65 57 37 46 60 75 72 86 88 101 128 122 120 134 147 148 143 153 157 143 134 134 132 141 136 148 126 125 116 99 122 153 125 109 105 104 94 92 90 78 54 42 36 36 41 35 30 24 21 34 42 20 12 13 11 5 10 15 21 14 12 17 17 15 45 35 66 49 5 3 13 30 43 26 25 26 25 36 35 26 33 19 25 35 40 40 26 27 35 40 42 38 47 34 28 36 60 69 83 95 105 107 122 131 137 151 170 176 172 173 184 178 165 159 162 165 150 160 157 155 150 132 161 164 138 140 132 124 107 105 107 100 80 52 41 41 43 38 31 35 46 37 47 41 10 11 11 5 7 12 17 17 13 12 21 10 14 21 46 23 6 5 13 18 47 38 17 15 20 27 19 39 40 15 25 25 23 20 25 28 39 44 41 44 48 44 23 27 59 65 67 78 89 102 117 140 158 171 180 180 183 187 184 178 180 184 183 175 161 175 180 177 170 169 173 163 153 139 133 140 138 133 124 117 110 80 59 51 56 51 43 41 55 53 42 55 24 8 14 7 7 9 17 15 14 10 15 18 10 14 25 11 6 6 14 21 27 38 13 12 19 20 17 45 28 29 38 38 39 33 26 38 47 60 75 73 68 60 29 25 43 66 82 91 99 113 116 127 157 180 189 192 188 188 192 187 187 192 192 190 188 187 185 176 173 175 181 175 166 159 154 159 166 163 148 133 128 112 85 77 61 45 46 41 45 57 41 27 23 11 18 15 3 8 13 11 16 14 10 25 14 10 14 17 10 9 19 30 20 16 12 12 13 16 14 42 31 29 32 40 45 48 57 73 77 89 107 113 106 87 56 29 42 52 61 79 93 114 133 143 160 179 188 191 189 191 193 193 192 191 192 190 192 189 187 183 176 178 189 184 180 181 171 168 172 174 172 169 166 156 116 92 71 47 42 39 35 37 40 28 19 25 14 10 5 7 11 8 14 14 8 23 42 9 13 17 15 21 30 50 25 10 11 11 11 15 17 39 32 28 34 49 66 80 90 104 117 129 141 142 139 127 93 51 47 63 71 87 98 103 112 130 158 177 187 190 195 199 200 194 195 191 190 189 189 189 188 189 184 179 187 185 181 184 177 175 179 171 179 178 174 168 146 107 81 59 46 45 35 31 32 37 22 23 26 13 8 5 9 8 11 12 11 13 34 18 16 16 17 18 50 80 20 14 13 11 15 12 18 30 24 38 59 72 82 98 114 134 152 159 167 164 169 163 143 124 106 100 107 119 116 124 135 144 166 189 195 194 201 203 202 197 192 191 189 192 194 191 190 191 188 186 188 189 191 184 181 182 183 180 179 176 174 173 171 141 91 73 56 49 41 33 34 27 27 19 20 17 10 7 6 8 10 12 12 14 10 12 26 20 10 17 90 80 13 23 12 8 22 22 16 21 26 53 73 84 103 121 138 149 159 165 171 166 164 167 159 149 141 135 132 134 137 144 157 176 185 194 198 204 204 200 196 195 195 194 197 197 194 191 192 191 190 188 190 187 189 184 183 186 188 186 180 178 178 181 182 154 108 73 58 51 56 34 29 32 26 26 20 15 13 12 6 7 9 14 15 12 11 9 19 15 6 32 98 42 16 21 10 20 36 16 22 17 42 65 84 109 126 138 145 155 161 165 168 170 165 165 161 160 163 163 161 155 150 163 167 182 197 203 204 210 205 201 199 199 198 200 201 195 193 191 192 192 192 186 188 187 188 183 185 186 190 191 190 186 181 179 184 165 126 90 64 46 52 41 27 33 27 19 14 12 15 12 9 6 6 10 15 10 11 15 12 12 5 22 50 23 21 17 16 42 29 11 14 23 62 82 99 120 127 142 154 157 162 167 167 170 169 173 174 175 181 187 185 183 177 174 182 197 201 203 205 205 201 200 202 200 203 201 200 200 197 194 195 194 193 189 186 187 191 185 182 187 190 189 190 189 184 180 178 166 136 110 77 49 49 55 41 29 32 25 23 8 12 16 10 10 8 8 12 11 11 14 12 12 8 16 23 23 19 13 18 54 34 10 15 40 87 101 110 123 132 142 151 155 163 166 169 170 171 175 177 179 179 183 188 190 191 187 190 194 199 209 206 201 204 204 206 207 203 204 203 205 204 204 197 195 190 189 189 183 185 185 185 188 191 188 187 184 181 180 179 173 136 117 95 59 38 43 47 35 42 32 19 15 10 13 14 10 7 13 16 13 12 12 14 12 10 15 18 44 20 12 13 28 29 18 30 78 102 107 111 125 134 144 147 156 165 167 169 171 177 174 178 179 181 182 184 189 196 195 196 196 200 203 206 203 207 213 211 207 207 206 204 202 204 202 196 190 188 190 191 187 186 185 186 185 186 188 183 177 176 177 168 172 155 121 92 63 43 43 43 29 49 49 20 17 17 11 16 13 5 6 12 14 13 14 11 18 18 10 33 65 19 13 20 18 31 36 46 105 103 110 112 127 135 143 146 157 164 168 170 175 178 176 179 181 184 184 183 192 197 195 199 203 205 209 207 208 211 212 212 211 206 203 202 203 203 200 200 190 188 189 190 189 187 188 190 188 185 185 184 175 172 173 164 150 149 130 103 70 47 40 46 29 35 42 40 23 18 11 14 16 11 6 8 10 11 13 18 13 13 18 69 60 38 19 25 27 27 49 58 92 104 107 114 130 137 142 148 158 165 170 173 178 178 177 181 186 188 188 194 194 200 202 203 204 208 212 214 208 208 214 211 210 209 209 210 203 204 205 201 198 190 189 190 191 190 189 189 190 188 184 181 178 176 167 165 150 130 111 94 82 53 39 43 28 25 30 35 29 12 12 12 12 16 9 6 8 10 11 11 11 11 28 56 34 46 39 22 27 24 51 59 90 99 105 117 131 135 142 149 158 167 173 172 174 177 180 184 188 190 196 200 195 200 207 205 205 208 208 208 206 202 207 207 205 209 208 205 206 205 204 200 197 191 188 187 191 189 193 192 187 189 182 179 178 179 169 159 152 134 111 97 75 54 41 45 30 20 24 27 33 23 12 11 9 13 12 9 6 9 11 13 15 14 26 27 21 26 53 30 39 30 28 61 96 94 110 119 127 138 143 148 158 167 170 170 176 179 186 185 191 193 196 199 196 195 202 201 200 204 206 207 210 211 211 210 209 209 211 208 207 204 205 204 193 190 190 190 193 192 193 195 191 189 183 182 180 178 177 164 151 129 112 105 84 52 40 40 32 23 22 22 31 29 21 13 11 12 10 11 11 7 9 13 14 14 20 18 16 17 35 36 44 39 13 38 86 94 112 122 125 138 141 149 157 161 170 174 177 181 186 187 193 193 191 195 191 194 199 199 200 208 213 214 209 206 211 212 210 210 206 206 203 205 202 202 191 188 190 187 190 192 197 194 195 192 186 184 181 180 178 162 151 139 114 98 85 63 46 45 38 19 21 16 15 16 20 14 12 14 18 11 10 9 9 15 14 11 17 18 14 19 16 28 41 31 22 31 63 98 120 122 127 138 140 147 155 162 169 175 179 179 182 192 191 195 200 200 197 194 198 201 209 214 211 213 211 210 210 210 209 205 206 206 202 205 197 198 193 187 191 190 189 192 197 197 190 189 189 187 181 177 178 167 147 136 123 106 84 66 45 33 29 17 21 18 14 16 20 21 10 14 22 13 8 6 10 12 10 11 14 13 16 22 13 19 39 34 33 39 65 103 128 129 131 135 136 142 153 164 171 171 177 181 183 191 193 198 200 199 198 192 201 210 214 212 213 214 212 214 212 208 207 207 208 206 203 200 197 198 193 190 188 189 187 193 194 194 194 193 189 190 183 176 178 176 155 133 116 105 81 63 48 31 27 26 13 25 16 12 14 21 14 9 13 14 11 8 7 12 9 9 13 10 17 23 17 30 57 41 39 73 95 119 131 130 134 138 140 142 149 159 163 168 177 183 186 189 191 198 194 197 195 195 208 210 212 214 215 210 202 209 207 207 207 210 206 205 202 197 196 194 190 191 189 187 187 189 192 194 192 193 192 188 184 181 177 174 168 148 133 118 95 68 50 35 34 36 14 14 24 16 10 15 19 10 9 13 13 11 7 8 9 10 13 13 13 23 22 36 50 41 61 96 103 130 134 131 140 147 144 141 151 155 156 163 175 181 184 187 191 195 196 197 198 205 210 210 211 211 212 207 201 206 204 204 204 205 206 205 204 199 196 190 185 186 188 187 188 188 191 191 189 192 191 190 185 181 179 181 166 153 144 133 111 77 47 37 34 36 23 10 16 24 14 9 14 15 9 11 13 12 8 7 10 11 15 11 32 31 22 32 27 57 86 102 109 117 136 139 138 144 142 142 147 155 155 168 173 178 185 189 193 193 200 199 203 205 209 211 212 205 204 204 203 206 202 203 205 203 204 200 200 199 196 195 187 184 186 193 189 190 190 189 189 192 191 189 185 183 181 179 173 164 154 144 128 84 51 31 31 37 35 9 10 15 17 13 9 11 11 11 13 12 9 8 10 13 12 17 49 33 21 27 25 65 101 101 114 120 139 140 142 144 139 143 145 153 160 167 176 181 188 194 192 198 200 200 200 204 209 207 207 201 202 204 197 200 201 203 201 204 202 199 197 198 195 194 190 190 184 189 189 188 185 188 188 189 191 186 181 183 182 179 175 167 160 154 141 104 55 34 26 40 38 12 8 13 17 15 11 10 13 13 12 12 11 9 9 13 12 13 15 15 22 35 20 70 99 107 122 130 143 142 145 142 142 145 150 156 159 162 173 181 188 191 192 192 194 194 204 207 207 207 208 202 199 202 201 203 202 201 202 203 204 203 202 200 199 198 195 196 189 189 192 192 190 191 190 191 191 188 186 184 179 180 175 170 166 157 143 119 68 31 20 31 42 15 6 8 14 14 13 10 12 17 14 14 13 8 9 12 15 12 10 15 19 37 28 67 100 113 123 132 142 143 144 142 147 149 151 157 157 162 170 182 186 187 193 189 193 202 206 210 207 209 211 204 202 202 200 203 205 203 205 204 203 207 204 201 198 198 197 197 196 194 192 190 192 192 189 189 188 189 185 182 178 179 173 168 173 170 151 140 96 42 24 23 36 20 7 9 10 11 12 10 10 13 14 18 14 8 10 13 13 12 11 19 20 39 28 37 101 112 123 135 139 142 146 145 147 151 150 152 159 166 174 182 188 193 193 193 197 201 203 207 210 212 211 205 202 201 199 202 205 204 206 208 207 208 207 207 205 200 198 199 199 199 194 192 192 192 188 190 188 187 184 183 179 177 172 172 171 173 167 158 132 65 33 20 35 29 8 10 11 11 9 11 11 15 14 15 15 7 11 11 11 8 12 17 25 27 42 45 64 117 121 134 139 145 147 148 147 151 150 151 160 169 175 181 189 191 193 194 199 202 208 208 210 214 213 204 199 198 203 206 205 208 210 210 208 212 212 210 207 203 202 200 202 205 201 196 195 194 191 190 185 181 183 180 176 177 173 176 175 170 172 161 146 101 46 25 27 27 9 10 12 13 10 8 10 14 15 13 13 13 9 10 10 7 13 17 23 14 61 78 34 100 122 134 137 142 145 148 148 151 154 155 160 169 175 185 190 194 193 195 203 209 211 213 216 216 213 211 197 199 203 208 210 213 211 212 213 218 217 219 213 208 206 204 207 206 207 201 199 196 196 192 186 183 181 179 172 174 172 175 175 171 170 168 156 132 68 33 17 18 14 11 12 10 9 10 9 13 18 14 11 11 10 7 7 8 12 15 13 21 34 30 42 102 122 131 135 141 145 151 153 153 157 158 161 168 179 186 188 195 198 201 207 208 209 216 221 213 209 207 200 199 206 212 213 211 213 218 223 224 225 224 215 213 209 203 210 208 204 199 193 190 189 191 187 186 180 178 175 172 169 171 174 169 167 171 162 145 94 39 20 20 17 13 13 9 7 9 10 13 17 15 11 7 10 10 8 10 12 12 19 23 21 35 87 112 119 130 138 147 147 151 154 155 160 160 160 167 178 180 187 197 205 204 204 212 211 222 222 214 208 204 194 204 205 213 211 211 211 217 219 223 225 223 222 214 210 204 208 207 204 195 189 184 176 174 173 181 179 171 176 173 163 164 172 168 166 168 164 149 112 54 24 21 17 10 11 12 10 8 11 15 18 16 13 8 8 9 10 13 13 16 28 32 49 80 104 110 119 131 144 149 148 154 155 159 164 165 160 165 176 184 185 195 204 204 205 212 215 221 223 222 213 205 195 202 202 207 211 210 205 207 214 212 216 217 210 216 212 201 201 201 198 187 179 180 163 154 150 155 164 163 172 170 160 161 166 169 167 169 163 154 121 67 30 21 12 13 11 10 14 11 12 15 16 17 15 7 9 12 11 13 15 24 26 34 69 94 101 104 116 135 144 148 150 153 158 164 167 171 168 160 171 185 186 190 195 202 206 210 219 216 221 220 215 210 203 205 203 205 207 205 198 189 195 187 198 190 183 191 170 163 163 163 150 143 150 143 134 143 134 118 117 122 127 154 160 156 158 165 169 170 163 162 129 73 34 24 12 13 13 6 8 13 12 17 16 16 14 13 9 8 6 11 21 29 20 36 68 96 94 99 120 140 149 152 154 157 163 169 171 173 174 167 173 185 187 190 191 193 199 204 214 215 215 214 211 211 206 210 206 202 203 191 194 186 162 147 181 180 166 129 110 106 99 98 90 83 105 113 128 136 118 108 112 125 138 139 148 160 156 159 168 168 164 163 150 113 47 26 15 11 13 12 10 12 17 15 15 13 13 11 9 5 7 18 24 18 26 39 62 90 86 98 120 143 155 161 160 160 164 167 172 176 180 175 177 185 183 189 184 183 184 195 207 212 213 211 212 208 209 207 207 203 199 190 182 182 155 142 160 151 118 104 84 83 66 82 76 76 83 104 91 93 101 107 105 119 122 118 136 149 144 155 160 166 165 165 161 152 81 27 20 11 23 23 12 18 10 14 25 13 8 9 10 8 9 20 18 20 34 43 62 80 81 98 124 148 161 163 162 158 161 165 170 177 168 157 149 160 165 173 170 173 174 191 194 204 211 207 206 203 202 206 201 200 200 194 188 166 155 149 141 127 113 103 86 63 59 66 80 80 89 105 112 115 111 114 106 96 87 121 146 145 150 161 156 163 167 166 162 158 103 33 21 12 28 24 10 24 78 123 135 120 54 10 10 13 12 19 21 27 44 47 59 77 77 102 135 154 149 142 149 147 144 143 138 111 110 104 109 125 130 144 148 164 177 179 187 198 200 200 199 198 198 204 204 198 194 180 159 162 155 154 145 119 116 108 99 99 117 136 135 132 135 144 149 142 131 129 118 117 134 146 147 147 161 163 158 162 166 166 165 162 121 47 21 17 18 13 35 126 175 170 177 184 158 17 13 10 12 16 20 30 48 48 58 70 78 106 134 130 111 121 111 103 102 81 67 67 66 79 76 80 108 116 137 160 163 170 183 192 197 196 199 201 198 197 200 196 188 176 147 146 145 149 135 128 119 116 110 105 107 92 81 77 74 78 84 96 122 134 144 155 153 150 158 164 170 170 159 160 165 168 170 169 139 60 26 20 14 32 137 180 186 192 192 189 182 12 10 17 12 14 18 29 47 50 58 66 77 98 98 86 85 92 79 79 75 49 43 57 60 50 52 64 95 98 114 139 158 158 169 186 193 192 196 201 202 197 194 192 181 173 161 143 134 131 125 120 107 87 87 105 78 36 20 16 16 18 20 28 58 97 121 149 155 158 163 167 173 177 165 161 166 171 169 172 145 80 28 20 16 88 176 185 195 201 177 138 144 5 10 27 14 16 14 32 48 49 58 66 75 74 62 61 71 66 59 63 49 38 48 59 55 57 62 74 86 85 98 111 133 150 157 173 184 185 191 199 201 205 202 194 183 170 159 147 139 130 129 118 106 130 149 107 111 61 43 100 72 37 35 53 39 56 91 124 153 153 158 165 176 176 167 167 168 170 168 174 156 97 35 22 21 124 201 193 176 131 75 45 91 4 13 19 16 26 16 25 49 53 60 66 64 57 56 49 46 51 57 51 56 76 99 108 110 112 110 100 90 82 85 87 94 111 123 147 165 173 184 195 204 212 208 197 187 175 167 154 139 142 139 132 153 160 116 136 208 99 53 44 40 54 49 103 90 47 70 104 130 153 160 171 183 175 171 174 171 170 168 170 166 121 52 24 25 149 200 168 128 123 129 109 105 10 13 22 18 29 13 25 46 55 58 63 52 48 51 59 64 71 89 100 124 140 145 144 131 114 80 47 51 58 57 67 77 83 94 113 138 163 180 195 206 220 212 201 195 185 173 151 148 149 138 159 160 127 144 221 229 157 70 69 82 86 120 155 143 125 119 130 141 155 171 182 182 179 178 176 174 171 171 170 166 145 81 27 27 125 152 145 158 186 183 167 129 5 28 41 18 25 13 25 41 53 57 58 52 48 53 70 89 103 121 133 126 106 76 53 25 11 27 71 21 16 34 44 52 56 70 86 114 151 179 196 214 228 215 205 199 190 176 166 173 171 165 159 118 131 160 167 174 168 142 151 186 160 154 165 167 171 174 177 180 172 181 190 189 184 182 178 174 171 168 170 167 155 98 46 27 88 149 179 195 191 178 172 154 12 68 42 25 27 16 26 39 49 59 59 60 57 67 91 108 110 104 88 53 27 43 60 35 44 60 87 52 32 72 78 73 78 64 65 93 138 173 191 208 222 214 202 197 189 185 187 196 207 195 162 163 161 161 149 159 155 164 153 172 170 153 174 182 186 187 191 195 188 187 195 193 188 184 180 175 171 168 170 167 162 120 66 45 103 199 217 212 202 197 183 156 38 31 34 28 28 17 19 41 55 59 61 73 82 87 96 103 97 63 22 21 59 135 141 74 57 47 41 65 80 157 139 81 115 133 94 85 122 162 184 197 209 207 196 191 187 191 190 206 212 203 195 178 165 158 162 166 179 184 177 178 178 175 186 189 187 185 189 192 190 187 193 192 188 182 180 177 172 171 168 169 168 144 89 73 106 181 215 214 198 198 195 165 22 15 28 16 25 16 21 48 60 59 67 80 93 98 97 100 73 32 32 68 107 133 141 120 108 117 154 167 172 163 171 175 177 174 128 87 114 152 176 188 203 198 191 189 185 191 188 194 204 189 174 170 164 163 168 177 183 179 184 191 192 193 192 190 188 192 193 192 190 187 187 189 187 181 178 178 174 170 169 169 163 150 112 100 85 109 168 195 193 195 192 164 17 23 30 13 25 27 29 49 59 63 69 90 85 89 90 88 59 49 85 118 132 136 118 128 152 160 193 184 184 185 194 197 191 172 116 98 112 149 173 183 196 200 190 187 185 190 193 187 188 188 188 182 182 183 185 191 200 200 202 200 200 192 191 193 193 194 197 194 190 187 185 184 183 183 179 177 174 169 171 168 164 152 125 104 111 126 147 174 191 198 192 163 16 23 26 12 18 30 35 50 62 72 77 101 106 96 96 90 78 77 106 127 138 141 137 148 158 166 177 182 179 180 179 184 170 148 131 106 111 148 168 183 194 200 194 187 185 189 194 193 190 188 189 192 191 194 204 208 212 208 210 210 204 201 197 198 200 197 196 194 191 189 184 184 183 182 181 177 171 169 169 169 165 158 137 118 126 136 151 173 191 205 203 164 23 25 23 18 13 27 35 51 69 81 92 117 142 135 115 106 111 118 128 137 135 141 150 156 155 160 163 173 179 184 186 182 156 154 140 110 112 144 169 181 189 193 193 189 185 186 191 194 191 192 195 194 195 197 199 203 204 205 207 210 208 208 199 196 197 199 195 196 192 185 184 185 184 182 180 175 171 170 170 170 166 156 140 132 158 167 164 177 198 213 204 172 30 25 19 13 16 25 39 58 71 82 101 121 134 135 141 141 140 135 136 141 146 151 157 163 163 166 173 179 188 194 191 177 160 156 137 114 118 143 171 181 188 191 187 186 186 187 187 189 189 191 197 202 200 201 202 204 200 203 207 210 207 204 203 196 198 199 197 196 195 186 184 184 183 179 176 173 170 170 171 168 165 157 146 133 165 200 185 188 205 212 204 179 29 25 16 17 18 31 42 65 74 89 106 120 135 145 159 157 148 145 143 139 141 153 161 171 176 177 188 191 195 192 181 170 166 142 132 117 121 144 170 182 185 189 188 183 186 186 189 190 186 187 190 205 206 198 200 201 203 198 205 204 199 199 199 196 203 202 201 196 194 187 181 179 183 181 176 173 171 169 169 168 166 161 145 127 161 213 203 199 208 214 214 180 45 25 15 26 21 24 44 69 78 92 110 118 138 146 157 156 158 156 153 153 156 161 167 173 178 179 184 184 192 188 171 178 159 138 131 118 123 147 169 183 189 192 190 189 188 188 188 189 189 188 185 201 215 208 199 195 196 190 189 196 194 192 192 192 199 203 203 200 189 185 179 180 185 182 176 172 169 168 167 167 166 155 141 116 165 217 210 206 202 222 213 180 56 35 18 29 24 24 58 69 77 91 111 122 135 140 149 155 162 164 164 164 163 167 170 173 179 174 187 193 194 180 176 175 148 135 131 117 125 151 174 189 194 191 190 186 189 189 188 189 191 187 190 199 213 216 212 208 198 194 192 200 208 220 213 196 199 199 204 198 190 187 183 182 185 181 176 173 169 170 164 165 167 156 135 104 160 216 210 195 203 225 206 177 57 43 19 34 25 28 60 68 76 91 108 123 133 139 141 152 161 164 163 167 169 173 176 177 180 180 192 195 186 175 182 168 140 130 130 117 127 154 181 193 192 192 189 185 187 186 189 191 193 188 188 197 207 212 216 213 209 206 205 203 206 218 215 207 202 199 202 196 189 186 185 183 183 183 177 172 170 169 163 165 168 164 130 92 165 203 199 190 208 218 189 183 32 35 21 41 34 25 55 70 75 91 106 119 129 136 140 147 158 159 163 171 172 178 183 181 180 188 189 186 180 181 178 160 130 128 126 113 129 159 182 193 195 194 192 188 186 184 186 188 193 190 188 192 198 206 213 213 212 210 210 208 208 209 217 213 202 203 196 195 190 187 187 186 182 179 178 173 170 166 163 168 168 162 134 112 156 194 195 195 211 205 180 199 13 40 33 39 43 25 48 71 80 89 102 115 127 135 138 149 150 154 162 168 172 176 180 181 181 188 189 179 181 184 179 152 132 129 118 106 130 164 180 189 194 198 197 190 184 184 184 185 187 193 193 196 202 204 211 210 211 214 216 216 218 212 217 217 204 200 197 194 189 183 183 182 174 174 176 176 174 167 162 165 168 146 118 109 171 208 210 196 194 186 190 205 8 30 33 38 51 26 42 67 81 91 100 112 123 134 140 148 146 156 162 166 170 174 177 183 186 186 182 178 183 186 172 148 136 124 107 103 129 165 180 190 198 202 197 191 187 183 178 176 182 189 195 198 204 207 202 208 210 214 223 228 224 221 216 214 207 199 199 191 187 182 182 175 174 176 174 174 171 168 159 167 153 131 120 103 181 223 223 194 174 194 207 200 10 14 29 48 51 32 35 67 82 89 98 110 120 130 137 141 147 154 163 167 173 176 178 183 185 184 181 189 184 184 169 149 135 118 102 100 138 168 177 189 202 205 199 195 192 187 175 173 185 183 182 197 207 208 207 213 213 221 232 231 225 220 216 211 202 199 197 188 184 178 177 176 175 176 177 174 169 165 162 167 159 131 112 111 175 227 223 204 185 197 202 178 10 16 26 40 51 35 35 64 82 88 95 108 119 123 131 135 146 151 162 169 170 175 184 181 185 188 186 184 186 176 167 157 132 110 100 97 144 164 178 187 201 213 206 195 191 187 182 179 182 184 176 186 201 206 208 206 210 214 222 230 224 217 218 211 203 201 194 188 182 180 180 176 174 178 178 175 169 163 166 170 155 127 116 107 176 214 187 181 189 193 200 167 12 17 21 29 47 39 38 56 82 87 93 104 113 120 127 131 136 147 158 167 172 175 183 183 180 187 187 192 187 174 171 154 124 111 104 103 147 166 179 188 205 227 211 197 190 185 184 186 180 176 178 178 194 202 204 205 208 216 219 221 221 217 219 214 203 199 191 183 179 181 181 174 171 177 177 174 169 164 165 166 149 133 108 117 110 95 122 115 153 191 187 152 13 9 15 33 45 42 40 53 82 89 94 102 113 121 124 127 131 140 156 161 172 174 177 182 184 183 187 189 188 191 182 152 113 118 121 111 143 170 179 193 215 240 227 199 191 186 187 185 179 178 177 174 185 199 198 198 203 210 215 214 221 217 213 211 202 196 185 180 178 179 172 174 174 176 177 176 170 166 163 148 140 122 103 66 17 57 114 104 86 157 169 101 11 10 25 51 46 45 35 48 74 88 94 100 111 115 118 121 129 133 142 153 168 173 175 181 186 185 187 189 191 190 193 151 116 134 128 113 140 164 179 192 208 230 229 203 191 187 192 189 180 182 179 175 178 200 195 188 199 206 210 212 214 214 210 209 201 193 186 183 181 176 172 177 174 176 176 173 169 164 160 140 135 123 79 21 63 87 72 100 90 82 103 54 9 12 9 41 48 46 32 39 66 86 91 100 110 114 115 124 131 132 133 147 163 173 176 182 189 190 186 190 196 196 189 138 120 140 128 113 133 157 175 189 200 207 211 197 188 181 188 194 185 174 175 174 174 202 201 188 194 201 209 213 214 213 211 207 199 196 190 180 180 176 176 178 179 178 177 170 165 163 156 151 136 113 52 31 81 97 36 44 82 50 35 31 18 15 17 38 52 42 33 38 63 82 90 95 108 117 114 123 125 130 132 144 158 169 175 182 189 190 185 184 195 203 181 122 120 132 126 122 124 144 164 181 190 196 198 187 179 178 169 124 92 122 157 164 171 206 208 196 190 199 202 208 211 213 208 206 198 195 189 185 184 178 179 180 181 175 176 171 166 162 157 147 126 112 56 42 54 73 26 27 45 28 12 19 12 13 18 27 51 40 30 40 60 78 89 95 107 117 115 122 122 124 131 141 152 164 174 179 184 190 192 185 192 191 159 103 123 107 83 69 81 114 139 161 177 181 182 177 175 132 70 49 70 115 141 144 168 206 214 209 194 198 199 207 207 208 205 202 198 193 189 183 187 181 182 180 179 172 173 171 160 160 149 136 120 106 70 55 42 28 18 27 18 12 15 17 11 10 11 14 46 48 36 38 50 73 88 96 103 113 114 123 120 116 124 135 147 157 171 181 185 190 195 197 199 185 146 84 98 98 55 17 12 54 110 135 158 169 173 171 132 106 154 192 206 186 145 147 187 201 211 215 205 198 200 204 208 205 205 202 199 194 190 185 185 182 183 179 179 173 166 165 165 160 150 126 108 103 92 62 21 15 16 20 21 12 12 12 8 8 14 7 29 59 43 45 51 64 81 94 103 112 119 120 112 109 119 130 142 157 169 182 187 189 192 192 194 182 146 86 60 92 87 65 41 37 63 102 134 150 155 136 117 172 196 193 197 175 165 188 196 193 202 211 211 204 199 202 206 206 209 205 199 198 194 189 186 185 184 180 178 168 163 156 156 154 149 131 104 97 81 56 25 17 12 10 20 13 11 11 25 20 15 12 19 56 49 45 54 59 72 90 98 107 120 125 109 103 116 129 140 154 167 180 185 188 195 191 192 189 156 130 97 84 86 87 80 64 48 55 93 109 110 125 175 208 180 172 187 188 184 182 188 193 200 208 211 208 202 200 199 203 203 207 203 196 196 195 191 185 183 183 177 167 160 157 156 136 120 116 104 89 63 42 22 17 9 13 14 11 9 10 24 23 21 17 17 46 50 45 55 53 67 79 94 102 116 123 118 112 111 125 139 156 164 174 181 183 191 194 199 188 159 145 139 134 114 103 89 73 62 47 45 73 106 163 195 154 138 141 125 160 185 181 184 189 196 201 204 210 211 202 198 201 206 206 202 198 197 198 193 187 181 183 176 176 162 145 159 131 107 114 99 78 57 38 22 22 6 7 13 10 9 11 6 11 19 14 13 30 48 52 47 41 61 73 88 105 114 118 119 117 112 121 135 155 161 171 179 182 189 195 198 185 173 155 137 124 114 104 82 90 106 122 154 153 164 170 162 117 108 90 76 123 146 159 171 186 191 195 198 204 213 209 204 204 200 203 207 199 198 201 194 189 184 184 169 161 157 137 151 139 119 118 97 83 52 28 28 40 13 6 11 11 10 10 11 17 17 10 5 20 40 41 42 40 52 66 86 97 111 115 120 117 109 121 133 150 161 172 176 183 190 193 191 182 175 169 139 111 92 73 69 89 104 155 191 170 167 143 114 104 88 75 81 96 99 118 142 167 170 178 187 196 204 211 209 201 200 204 208 205 203 202 194 191 186 180 174 157 140 133 135 144 121 113 91 73 51 22 48 49 7 5 9 10 9 11 18 16 14 7 6 16 49 42 34 40 47 61 78 93 105 114 118 117 111 121 133 148 158 168 174 180 186 191 185 176 168 159 137 98 62 55 61 73 92 120 113 141 166 144 107 85 79 83 81 66 89 94 118 130 144 158 170 190 194 200 205 204 204 206 209 209 205 202 195 192 186 182 167 162 143 133 132 135 108 107 87 68 54 20 52 38 5 8 13 11 8 11 7 11 12 8 7 4 36 53 37 31 40 56 76 90 101 115 112 112 113 121 132 147 161 168 172 179 185 181 174 167 157 132 101 66 47 52 70 75 97 117 136 149 167 148 133 133 113 91 93 69 81 95 102 100 119 126 155 163 166 166 179 201 206 205 207 209 208 203 199 191 182 174 161 146 134 125 135 128 118 95 70 69 45 20 46 47 11 10 15 13 9 11 7 8 17 8 5 3 10 42 41 29 38 51 75 86 97 108 105 110 114 119 129 151 160 165 169 178 174 168 165 143 120 101 75 58 57 64 75 89 97 173 191 158 170 168 162 188 198 152 108 100 108 115 100 97 114 110 147 131 147 147 144 144 185 206 209 208 207 205 193 185 184 172 153 135 128 121 120 116 113 87 81 65 35 23 43 39 9 10 13 17 13 15 11 10 16 12 5 5 2 7 26 27 42 51 72 85 96 102 109 112 113 123 129 149 162 163 165 172 157 156 129 111 96 80 70 67 65 73 81 100 160 197 199 193 198 199 202 203 192 163 143 146 158 154 117 103 136 105 145 133 119 138 141 119 138 198 210 207 206 201 192 177 176 173 152 136 126 122 115 120 89 74 81 52 29 32 30 27 12 7 10 14 21 20 9 14 13 17 14 8 7 5 11 19 35 36 61 79 91 101 109 100 111 120 128 139 157 164 162 155 136 122 103 95 83 80 78 94 99 83 107 139 164 163 171 181 198 192 164 163 165 168 174 176 169 164 143 143 141 119 139 157 116 126 122 120 109 157 212 212 206 195 191 181 160 159 134 119 127 113 112 115 88 77 76 43 32 42 20 15 10 12 12 12 16 20 10 13 11 9 10 12 12 9 9 11 29 41 56 74 83 90 89 88 108 115 126 138 151 162 147 116 120 91 92 81 83 92 84 125 134 111 133 149 151 158 157 159 164 169 147 154 160 159 162 169 160 149 149 162 156 128 150 179 131 114 113 116 115 116 191 216 213 204 177 167 161 145 124 109 123 106 111 95 76 69 66 44 40 30 19 16 10 7 9 14 28 22 13 14 9 9 5 4 5 4 7 14 26 37 46 68 72 73 71 93 109 114 126 142 146 155 115 99 75 86 84 79 93 95 96 118 132 123 126 144 145 141 145 138 148 162 146 129 114 121 125 114 116 121 115 120 137 139 142 167 137 118 119 106 94 94 153 207 208 189 176 165 163 146 125 105 114 95 102 86 76 67 61 53 47 15 17 19 16 19 27 42 32 18 16 16 15 12 8 4 5 4 5 10 16 35 39 55 62 63 69 86 98 109 126 138 142 124 97 87 75 101 76 79 87 105 125 118 110 105 99 82 84 96 99 102 103 113 119 119 122 127 129 130 131 132 128 110 92 106 133 152 155 146 138 131 106 75 111 180 192 182 167 168 146 136 106 87 97 85 92 74 78 77 63 60 32 16 24 17 23 25 34 28 17 19 16 15 13 12 23 20 6 9 9 9 11 29 30 48 60 68 72 79 83 95 113 128 129 105 79 61 84 97 87 92 101 122 119 83 67 70 83 99 102 113 126 142 159 154 158 170 174 177 172 179 182 182 181 172 161 147 144 134 149 162 150 158 145 92 85 166 194 181 164 164 153 134 101 78 86 89 82 61 67 69 68 59 16 16 18 26 20 18 32 19 13 14 10 7 10 7 15 34 10 9 8 12 11 22 32 38 56 65 67 64 74 92 99 120 124 98 70 64 82 107 101 120 122 93 71 76 103 129 135 146 157 160 174 182 181 177 175 179 198 203 190 185 184 182 189 191 195 199 206 205 190 182 172 170 155 118 98 153 183 168 141 140 123 109 93 91 75 79 72 61 61 60 77 44 21 14 29 30 16 24 28 14 7 13 5 4 11 9 2 11 14 11 16 12 10 18 28 25 44 58 65 59 67 78 104 118 114 92 71 64 105 120 129 155 153 142 135 135 136 137 138 148 161 160 175 183 184 178 179 190 201 193 192 197 200 204 199 198 197 195 199 208 214 215 200 174 161 125 98 158 192 173 122 109 90 87 76 90 78 71 61 63 52 65 68 31 19 13 21 19 14 18 13 22 16 16 4 5 5 6 4 7 10 20 13 15 11 11 23 31 43 52 56 59 63 74 94 101 112 86 64 88 132 143 166 180 179 164 153 151 152 154 157 164 176 175 177 186 195 194 193 197 204 203 205 207 203 201 195 197 199 200 204 210 214 214 211 204 182 150 112 141 191 176 130 93 79 91 68 81 71 64 60 55 57 83 75 25 17 19 19 19 23 16 15 21 23 14 4 6 12 15 10 13 15 19 16 12 14 10 17 34 42 42 47 56 57 75 74 81 107 84 73 116 134 162 183 184 170 159 154 159 163 155 157 166 179 177 177 180 181 185 178 179 186 193 192 195 199 199 199 202 204 210 211 213 210 206 205 207 208 188 123 112 162 165 117 76 76 94 77 75 63 59 58 56 63 82 76 17 16 24 27 24 28 26 25 22 20 14 8 8 10 16 20 22 27 28 24 12 21 16 13 29 47 39 44 49 50 61 61 71 91 81 95 127 138 174 183 176 167 160 152 157 165 154 149 155 171 171 166 160 161 159 160 159 165 179 182 187 197 196 203 207 212 216 215 210 205 203 198 203 209 203 155 116 124 136 93 70 68 78 65 71 75 56 47 49 68 92 69 11 18 26 28 28 26 24 23 25 20 22 10 8 7 18 20 33 44 19 18 11 13 21 10 19 34 35 34 45 52 55 56 69 72 77 109 131 153 171 177 176 170 163 161 161 163 154 143 136 149 150 152 149 142 146 142 145 154 163 165 173 194 201 211 214 213 215 210 210 203 202 203 204 204 197 177 148 118 115 86 72 64 49 55 60 55 48 50 49 80 124 62 10 21 31 27 33 25 23 24 25 20 26 9 7 12 14 19 34 21 12 15 9 4 17 13 13 26 30 29 44 44 47 51 57 57 76 110 131 150 166 166 168 172 175 170 168 173 167 152 133 140 146 153 145 135 137 127 142 161 177 181 184 199 212 213 213 213 211 208 207 201 199 199 195 187 168 155 124 116 113 75 63 59 48 43 57 48 41 53 69 107 139 50 14 24 52 42 34 36 23 21 25 25 39 9 13 12 8 21 21 13 10 10 8 6 8 12 9 28 31 24 34 41 41 42 43 55 68 100 124 143 164 162 166 173 176 176 174 177 178 174 170 161 157 155 146 154 144 136 170 167 180 193 206 211 215 214 212 211 210 208 202 208 201 188 192 170 141 137 129 118 94 66 56 62 47 51 51 41 42 52 86 136 134 26 18 29 60 83 27 37 29 24 24 18 28 14 17 13 8 22 11 10 16 9 8 9 7 7 6 18 27 23 31 40 35 40 33 47 66 93 110 134 153 161 166 173 176 177 175 178 179 180 184 183 170 159 172 183 182 162 178 203 193 202 215 216 218 212 212 212 212 213 201 201 208 183 163 157 141 110 131 110 74 65 54 49 39 49 44 45 35 67 88 156 119 110 38 35 30 78 53 28 33 24 23 17 13 17 16 12 15 23 9 12 20 10 11 8 5 5 6 8 23 27 27 30 34 34 35 41 51 62 86 116 128 144 163 170 177 175 175 182 181 183 189 193 184 188 198 201 196 195 180 205 208 212 218 218 220 218 217 216 215 214 207 206 198 170 138 131 120 97 92 78 59 56 46 41 31 34 35 38 46 89 136 147 152 252 86 34 37 46 75 61 37 36 25 22 15 16 17 11 18 24 12 13 12 10 8 7 6 7 6 6 14 30 30 29 29 29 33 43 45 38 63 83 105 128 147 165 177 179 179 183 185 186 189 194 196 196 199 193 188 200 182 202 219 216 219 223 225 225 220 218 216 214 207 196 186 165 114 106 106 90 75 72 55 50 33 37 36 29 38 40 76 132 164 162 233 255 161 40 42 39 39 62 46 34 39 30 18 18 15 14 20 22 16 17 13 11 9 7 6 5 5 5 7 21 32 28 24 30 30 38 32 43 54 77 111 119 137 166 173 182 188 186 184 189 190 192 191 188 194 184 184 200 196 204 208 219 219 219 227 223 220 219 206 202 207 191 179 134 118 98 94 64 55 55 55 40 28 31 33 35 45 68 113 141 181 241 244 244 247 117 45 43 36 32 37 29 21 18 15 14 14 15 24 25 13 15 16 9 7 7 9 6 5 5 5 13 32 27 25 31 23 44 33 41 51 59 82 107 134 149 162 176 186 183 181 187 189 184 180 176 181 174 182 182 198 204 194 210 219 210 216 214 219 206 187 192 201 170 170 126 96 90 78 52 40 42 37 28 28 32 38 52 42 105 149 166 234 255 246 248 255 226 113 52 45 44 46 39 21 17 15 6 10 13 20 26 13 12 13 10 8 10 8 7 5 4 3 7 12 24 27 29 18 36 33 37 42 49 69 82 102 115 143 154 165 182 170 176 183 176 176 162 159 135 181 175 165 185 196 198 195 187 189 186 204 202 153 156 172 138 130 116 88 67 61 45 34 34 30 28 30 33 48 36 81 137 166 220 255 255 255 251 248 254 218 129 69 48 45 44 33 24 22 9 5 12 13 23 19 10 9 9 9 9 9 7 4 5 10 9 5 21 23 34 23 26 27 40 36 39 48 66 72 100 110 123 139 153 149 156 155 161 152 151 116 120 202 159 139 163 177 150 161 157 161 162 167 171 147 135 140 114 105 89 63 49 37 39 39 28 34 27 31 37 35 60 133 162 226 255 255 255 255 255 251 251 245 222 164 122 77 39 27 22 22 8 6 6 9 23 26 14 7 5 8 8 9 7 6 8 11 8 6 9 24 23 34 24 28 36 23 30 39 52 76 72 90 104 104 106 127 120 134 127 130 139 104 136 162 165 123 132 147 120 138 143 128 138 125 129 128 115 120 103 91 72 44 50 32 25 33 26 47 32 35 38 52 111 139 218 255 255 255 255 255 255 255 255 249 244 244 234 184 53 25 27 30 3 10 6 5 13 28 19 15 11 8 7 10 9 8 8 7 7 7 7 9 16 26 21 26 38 22 27 30 32 57 62 76 83 63 78 95 114 102 106 112 104 107 117 135 175 129 95 118 117 106 103 101 107 97 84 102 86 81 77 85 58 36 31 38 27 30 37 30 32 31 42 99 140 189 255 255 255 255 255 255 255 255 255 255 255 255 255 160 28 32 31 32 4 4 5 6 7 20 30 21 19 16 14 12 11 9 7 6 6 4 5 6 11 14 18 22 35 33 19 20 24 32 46 54 59 61 70 79 75 78 101 90 82 95 118 134 120 104 91 96 122 90 79 87 86 87 65 72 67 65 54 64 46 45 30 24 37 24 29 33 31 38 72 122 192 255 255 255 255 255 255 255 255 255 255 255 255 255 237 59 24 31 31 32 3 3 5 6 8 6 20 29 26 21 18 14 11 9 5 4 5 3 8 7 8 11 24 21 20 30 32 21 29 37 38 37 51 71 66 55 55 64 70 74 72 92 115 116 76 90 78 82 85 78 77 58 69 89 60 59 55 48 61 52 32 27 32 21 35 34 36 44 40 70 124 195 255 255 255 255 254 255 255 255 255 255 255 255 255 255 126 18 33 33 32 33 3 2 3 6 8 5 5 12 17 16 13 11 9 8 5 6 5 3 18 5 5 9 21 19 21 22 28 35 32 34 29 37 46 55 48 40 50 50 68 65 67 87 86 89 80 83 86 57 53 67 62 54 77 59 49 46 48 39 55 46 48 28 25 25 36 37 44 57 71 130 200 255 255 255 255 255 255 255 255 255 255 255 255 255 255 203 30 30 33 33 33 33 4 4 4 7 9 7 5 4 5 8 9 8 7 7 7 6 5 5 10 5 4 6 8 16 22 19 19 26 37 45 16 27 29 36 36 42 36 54 53 56 65 68 58 67 88 78 86 51 37 60 57 57 50 40 30 33 38 32 49 43 46 42 29 29 38 48 60 71 105 198 255 255 255 255 255 255 255 254 255 255 255 255 255 255 251 83 21 34 33 32 32 33 4 5 5 7 8 7 5 3 4 4 5 5 6 4 5 4 4 4 4 5 4 3 5 16 13 15 20 25 47 40 14 29 32 33 36 39 32 61 61 43 40 49 53 57 67 64 59 43 30 45 58 39 37 40 28 24 33 34 34 42 38 33 31 31 43 49 81 109 193 255 255 255 255 255 255 255 255 255 255 255 255 255 255 255 160 20 33 34 35 34 34 34 4 3 4 7 7 6 4 3 4 3 4 4 4 4 5 4 5 3 4 4 4 3 6 7 5 9 15 19 37 42 18 32 34 21 34 31 29 40 51 36 47 41 39 45 49 42 45 38 33 31 31 28 33 45 31 32 25 40 42 50 41 35 38 50 45 54 96 198 255 254 255 255 255 255 255 255 255 255 255 255 255 255 255 236 54 27 34 34 35 34 34 33 3 3 4 8 8 6 4 3 3 3 5 5 4 4 6 9 9 5 4 3 3 4 4 2 3 5 13 23 34 47 14 36 32 18 24 29 30 31 47 54 54 45 35 48 47 49 44 47 37 37 40 36 39 23 26 34 50 47 58 42 55 42 40 52 56 90 201 255 255 255 255 255 255 255 255 255 255 255 255 255 255 255 255 130 20 35 34 34 35 35 34 34 3 3 4 7 8 6 4 3 3 3 4 3 4 4 4 8 11 9 5 4 3 3 3 3 3 3 8 29 30 35 30 35 14 18 19 27 30 38 30 36 45 42 36 37 50 62 47 58 56 35 36 34 33 20 20 39 48 50 39 43 59 51 47 66 101 198 255 255 254 255 255 255 255 255 255 255 255 255 255 255 255 255 213 37 33 35 35 34 34 35 34 33 3 3 5 6 7 6 3 4 4 3 3 3 3 5 3 3 5 5 5 5 4 2 2 2 2 2 3 30 42 35 39 24 19 15 18 24 25 31 39 37 40 34 37 32 27 46 49 28 30 37 28 23 29 25 23 42 46 41 36 43 54 63 74 105 215 255 255 255 255 255 255 255 255 255 254 255 255 255 255 255 255 255 96 22 35 35 37 35 35 34 33 34 2 3 5 7 7 5 5 3 4 2 3 3 3 3 3 3 2 2 3 3 2 3 2 2 3 1 9 37 45 41 39 24 21 24 24 23 16 24 32 34 35 37 32 34 23 22 32 29 23 24 21 23 41 42 47 46 41 42 49 46 42 74 119 228 255 255 255 255 255 255 255 255 255 255 255 255 255 255 255 255 255 185 24 34 35 35 35 35 35 33 33 34 2 3 5 7 6 4 3 3 3 3 4 3 4 4 5 4 2 1 2 2 2 2 3 3 3 0 19 41 43 43 37 35 26 27 29 26 17 22 23 31 38 40 29 34 40 36 30 37 41 27 44 47 47 49 52 50 45 45 45 55 72 143 239 255 255 255 255 255 255 255 255 255 255 255 255 255 255 255 255 255 249 73 27 35 34 35 35 34 34 35 34 34 3 3 4 9 5 4 3 2 2 2 2 3 2 4 4 3 3 2 2 4 3 2 2 1 2 0 26 40 35 46 46 45 39 34 37 30 30 30 29 29 38 39 37 35 39 45 42 43 45 49 54 52 51 49 45 42 41 59 62 79 164 251 255 255 255 255 255 255 255 255 255 255 255 255 255 255 255 255 255 255 157 23 37 36 35 35 34 34 34 34 34 34 3 2 3 9 10 6 5 3 3 2 3 3 3 3 4 3 3 2 2 2 3 3 2 2 2 0 33 42 33 45 49 47 47 43 40 38 37 38 36 28 32 38 39 38 35 45 55 45 42 48 47 50 47 44 46 58 75 98 119 189 255 254 255 255 255 255 255 255 255 255 254 255 255 255 255 255 255 255 255 227 51 31 36 36 34 34 36 35 35 34 35 35
