P2
# Generated by OpenCV 4.2.0
92 112
255
15 10 8 13 18 16 13 11 9 10 9 9 9 13 12 11 37 23 23 18 26 33 11 6 12 16 21 30 19 31 41 54 30 17 19 24 33 26 34 29 27 30 30 25 15 35 37 32 23 33 42 40 58 65 76 72 99 119 85 74 86 84 78 66 75 80 76 62 62 69 74 57 56 58 63 61 53 55 43 39 35 38 41 47 37 41 98 112 122 135 133 139 23 20 14 12 10 12 13 10 8 9 9 7 9 15 13 12 48 25 31 20 28 20 10 11 13 15 19 26 24 23 25 29 27 13 26 28 28 19 33 41 38 33 33 29 16 27 43 42 31 37 56 66 64 70 73 86 95 114 108 101 110 100 96 89 94 93 91 89 78 89 88 71 68 61 56 56 58 58 47 40 41 44 46 42 33 50 68 103 117 128 134 138 16 18 14 11 8 11 16 14 9 9 8 6 15 15 15 17 45 25 29 23 26 15 13 13 16 28 30 30 29 27 27 26 25 23 19 17 16 18 22 35 40 32 30 32 34 21 38 55 50 46 55 73 81 82 74 79 100 109 122 128 149 137 129 117 125 122 119 113 107 109 97 94 77 70 65 64 66 65 55 49 51 48 54 54 35 42 69 90 94 114 140 140 16 12 9 10 9 9 9 10 8 8 9 13 15 18 15 24 43 23 27 31 22 17 20 18 25 29 32 39 41 37 39 40 37 29 29 19 20 20 22 29 36 36 33 36 44 44 47 64 68 68 64 71 74 84 86 82 88 102 121 143 165 169 154 149 160 147 145 138 138 134 115 115 100 91 85 73 68 59 57 56 47 46 51 62 56 40 55 69 79 94 107 134 35 30 19 12 10 11 8 8 17 16 13 18 10 20 14 37 49 24 28 22 16 17 17 18 30 23 23 35 36 40 42 34 32 33 39 44 38 33 31 40 48 57 64 59 63 66 61 60 68 77 69 68 76 84 96 92 88 97 105 134 163 168 168 178 180 172 170 159 155 155 150 145 131 113 109 99 86 75 66 61 41 39 47 52 55 47 41 60 89 93 79 95 24 24 26 24 17 16 34 39 26 11 22 15 11 21 17 32 40 20 18 7 8 16 17 19 23 14 24 29 35 40 37 40 45 47 55 65 70 59 56 61 76 82 85 96 91 86 73 59 54 67 76 74 79 78 81 92 99 102 110 132 168 180 183 185 181 172 174 176 173 172 171 168 149 138 128 115 105 101 92 72 50 32 29 40 47 42 34 48 107 115 98 113 13 13 11 10 16 33 38 20 9 13 20 7 11 21 26 12 19 28 15 14 13 10 29 31 17 18 24 27 38 39 47 46 53 64 71 75 81 85 85 87 94 103 107 118 117 113 99 89 70 52 56 64 74 79 85 95 100 111 134 153 171 184 185 188 187 181 178 178 182 181 177 170 163 162 149 139 137 124 118 102 68 45 31 36 53 46 29 19 53 88 105 135 26 20 14 14 19 15 9 11 12 18 14 12 12 22 35 6 22 29 18 16 12 9 26 25 11 13 21 27 31 49 58 65 74 84 87 92 96 103 109 114 119 130 134 135 142 150 151 141 128 108 93 88 86 93 103 110 118 123 134 156 173 186 187 187 190 185 180 181 184 182 180 177 172 170 166 154 148 140 128 124 105 67 40 32 40 49 33 15 28 66 88 124 14 12 13 17 15 15 12 10 12 21 10 15 11 19 39 13 23 19 14 12 11 8 30 47 17 24 26 17 37 53 65 86 95 96 105 114 126 131 132 141 148 157 159 167 166 167 172 169 164 158 143 134 125 123 119 119 118 136 157 169 182 187 186 186 186 184 180 184 183 183 183 180 173 170 164 159 153 151 144 133 130 102 56 36 26 33 44 28 15 37 85 114 12 11 13 16 14 13 9 13 26 18 10 12 10 12 20 14 13 12 15 14 10 10 22 30 22 25 17 23 46 75 103 110 110 111 119 126 139 145 151 163 166 169 170 171 171 169 171 169 165 166 164 162 159 150 143 141 140 146 165 182 188 186 186 186 183 181 183 182 183 182 180 179 175 171 169 165 163 156 156 145 129 128 84 48 33 19 31 43 16 13 52 128 8 6 19 20 11 10 7 25 27 14 10 12 9 6 10 10 8 19 15 16 15 16 20 27 11 14 14 30 63 105 119 121 123 124 133 142 151 151 161 170 170 169 174 174 172 171 170 171 176 179 180 182 182 176 172 168 166 162 169 187 190 186 189 187 185 185 182 181 181 181 180 178 177 174 170 166 164 161 155 154 137 130 110 66 43 29 17 42 37 15 27 79 8 13 51 30 13 6 9 26 17 13 10 14 14 10 11 12 13 17 10 16 25 19 17 28 14 17 13 34 79 104 122 124 126 133 142 150 153 157 162 166 171 172 175 175 175 175 174 179 182 183 183 181 181 184 187 185 180 183 187 192 189 189 189 187 184 184 183 180 178 180 180 177 172 174 168 165 164 165 161 155 152 129 121 89 49 39 25 26 51 23 14 18 15 22 54 22 8 7 16 17 13 12 11 10 11 13 11 18 17 14 16 16 14 14 27 29 15 13 12 39 82 118 124 127 142 143 151 153 159 158 160 164 166 172 175 175 177 177 178 179 179 180 180 180 185 188 191 191 188 191 195 191 193 195 192 187 186 184 184 182 182 181 179 177 174 171 169 166 161 161 165 157 155 141 120 92 62 51 37 24 33 33 18 17 19 24 17 11 8 12 16 12 12 12 22 25 19 11 8 11 11 20 26 14 20 25 31 28 12 11 15 35 95 130 133 139 149 146 149 154 158 154 162 162 164 170 174 174 177 179 181 180 181 181 185 184 185 187 189 192 194 196 196 198 196 193 192 186 189 188 185 186 185 184 180 178 174 171 170 167 164 161 165 161 157 147 125 98 71 52 48 32 21 30 19 16 24 22 14 26 17 16 16 11 9 20 43 30 12 7 6 8 16 21 25 19 22 25 25 14 11 13 11 40 105 133 130 142 149 147 150 154 150 148 162 163 166 172 175 175 177 180 184 182 180 186 188 188 190 192 194 197 199 196 197 198 197 195 194 191 192 191 186 187 185 184 181 180 174 170 168 167 165 166 162 160 162 151 134 112 77 56 59 55 25 16 22 19 21 16 15 22 17 14 12 8 9 29 42 24 10 7 8 13 15 20 29 28 27 31 23 13 17 19 20 45 112 139 134 139 139 142 147 148 146 156 160 164 167 170 174 175 181 185 184 184 182 188 190 193 195 195 199 200 201 200 200 199 200 199 198 197 195 196 193 189 187 184 179 179 178 173 169 170 166 166 165 163 162 155 141 119 90 53 45 59 50 15 14 37 14 10 9 8 8 9 9 9 18 40 39 22 9 9 9 8 14 27 32 34 32 26 20 17 27 27 36 74 120 129 134 134 140 144 146 150 156 160 161 162 166 168 174 179 183 183 184 182 185 191 191 194 196 200 201 204 203 201 202 202 201 199 198 198 196 194 192 190 191 188 180 177 177 173 169 166 166 167 167 167 162 154 147 129 91 59 37 39 58 31 17 42 11 8 9 10 9 10 11 12 23 37 34 21 7 6 12 12 21 20 23 31 27 25 20 17 29 49 73 111 135 127 128 135 151 155 155 154 156 157 162 163 166 169 171 177 179 178 182 183 188 192 195 198 196 197 200 200 199 200 201 199 196 193 193 193 193 194 191 189 188 187 184 177 174 170 169 166 166 168 169 166 164 156 148 130 102 70 42 32 38 33 19 22 7 8 12 15 10 8 11 14 29 31 21 10 5 5 12 13 15 13 21 29 34 44 52 55 68 95 117 136 136 127 131 145 155 157 155 155 155 155 157 160 165 168 171 172 176 183 186 183 185 186 189 193 193 194 195 194 195 198 197 196 195 196 195 195 195 195 193 192 188 185 182 176 174 170 167 165 165 167 170 169 164 158 149 138 105 69 43 31 26 27 15 14 8 8 14 15 12 10 12 16 23 22 14 6 7 9 7 11 14 14 22 33 52 68 83 113 122 127 129 131 129 131 141 153 156 156 154 154 153 152 154 161 161 168 170 174 178 182 183 184 184 187 191 193 195 195 197 198 199 201 198 197 198 196 195 196 196 195 193 194 189 182 181 178 173 171 165 167 165 165 169 168 166 161 155 147 116 76 46 27 23 25 19 15 6 13 15 22 14 11 12 17 37 33 16 7 10 16 14 14 14 14 22 46 55 64 92 104 118 130 133 138 139 147 145 153 163 157 152 154 155 153 160 163 159 162 164 171 175 177 181 185 186 189 191 193 196 196 196 199 200 202 201 200 200 196 193 196 198 197 191 191 190 186 183 179 173 171 167 166 168 169 172 168 164 161 157 148 123 88 52 27 25 21 16 16 12 14 16 20 14 12 12 17 45 46 20 7 14 19 17 13 12 16 22 39 51 67 93 106 119 134 138 134 147 149 145 150 158 156 156 155 158 165 167 166 159 161 163 170 171 174 179 187 187 189 190 191 196 195 196 197 198 201 201 203 201 199 192 194 200 198 195 193 192 190 183 176 172 172 169 167 168 169 172 169 167 164 153 153 132 94 62 34 25 20 13 16 9 11 17 13 19 22 21 22 46 45 19 6 15 17 11 10 12 15 21 36 48 65 96 112 128 136 141 143 150 146 147 146 149 157 162 158 158 164 167 161 163 162 164 168 168 171 179 182 185 187 188 191 191 191 194 193 199 202 200 202 201 200 194 191 198 194 194 191 189 187 182 173 169 168 168 168 167 167 170 168 167 167 159 154 140 101 61 35 25 24 20 18 10 19 17 11 34 23 31 30 46 27 15 8 12 14 9 9 18 17 20 32 49 76 97 113 125 134 143 144 146 145 151 145 151 164 164 161 162 164 164 162 162 162 165 166 166 174 179 181 185 189 191 192 191 194 194 195 200 202 198 200 199 198 197 194 196 193 192 190 188 184 178 177 172 167 163 167 169 169 170 168 165 165 161 154 145 111 69 40 28 25 19 17 13 15 9 10 27 15 28 40 56 19 10 9 9 15 10 8 19 20 16 32 54 75 92 106 124 133 141 144 142 148 152 150 158 165 164 163 165 166 164 164 164 164 166 168 169 171 178 183 184 190 193 193 193 196 199 197 199 200 198 198 198 196 195 193 191 188 187 188 186 180 176 174 169 168 164 161 165 168 168 166 165 166 161 154 150 123 83 42 31 30 20 16 10 9 7 10 16 11 16 30 37 16 11 12 13 16 12 18 23 23 21 32 49 73 92 109 122 129 137 144 145 149 152 152 157 163 161 164 164 165 167 165 165 165 166 167 169 170 175 183 185 188 188 190 186 189 187 190 192 190 193 194 195 197 194 193 191 187 188 186 185 185 180 175 171 168 166 165 163 163 164 162 163 164 158 154 152 138 98 44 27 31 24 16 10 10 7 7 10 10 12 15 17 12 19 17 15 25 22 23 30 30 25 35 53 73 96 106 115 128 137 141 143 147 150 153 157 160 161 160 165 163 165 162 165 165 166 166 166 167 171 174 180 181 181 185 187 187 187 193 194 191 192 194 194 195 193 194 193 192 189 188 187 187 185 177 174 171 171 171 168 166 167 165 163 164 159 154 152 140 110 53 28 28 24 14 10 10 8 7 11 10 10 9 13 17 17 15 20 35 23 18 43 41 26 35 55 65 81 99 114 126 135 137 144 148 147 153 156 157 161 161 166 165 165 161 160 163 164 162 164 168 172 176 180 183 188 188 190 189 190 192 192 192 191 194 195 194 195 194 190 189 187 188 189 187 184 182 177 173 175 172 172 169 167 165 163 162 159 154 150 136 121 65 25 30 25 15 11 9 8 8 15 13 6 10 15 13 10 12 30 41 19 20 47 41 25 33 44 62 84 99 113 123 129 138 142 143 146 154 157 157 155 161 165 163 160 160 162 164 164 165 168 171 175 178 182 186 187 186 189 190 188 190 191 191 192 193 194 193 192 192 192 191 191 191 191 188 188 185 180 177 177 176 175 172 168 166 165 162 160 154 148 138 131 76 22 29 27 18 9 9 9 8 10 12 8 16 15 12 12 20 40 39 18 22 26 28 21 31 48 67 79 98 111 117 122 133 138 140 144 148 152 155 153 156 162 162 161 163 166 165 166 167 168 170 174 177 185 189 189 190 190 192 195 195 194 191 191 194 194 195 192 191 192 194 194 195 195 192 192 187 184 181 178 177 177 175 170 169 168 164 158 154 146 139 137 90 24 28 27 19 10 7 8 10 11 12 14 11 11 11 16 22 29 19 14 14 11 18 19 34 50 63 84 95 107 121 118 131 140 142 143 147 149 149 155 159 161 162 162 164 164 167 169 168 169 170 174 182 187 189 191 194 197 197 197 196 194 193 194 197 201 199 196 193 194 196 197 199 197 194 195 191 190 186 183 182 180 178 177 173 171 166 155 152 144 141 140 97 18 29 27 18 13 12 10 13 14 18 14 7 9 15 12 11 12 7 8 9 13 13 21 41 63 77 82 95 108 120 125 131 140 142 142 146 150 148 156 159 162 166 163 164 165 168 173 173 174 176 178 184 185 186 192 199 202 201 200 203 200 198 195 196 202 199 197 196 198 200 201 202 202 200 201 193 192 189 185 184 182 179 177 174 169 167 160 154 146 142 142 103 13 25 31 16 12 14 14 14 16 14 9 8 15 11 9 11 10 11 18 13 12 13 28 47 68 81 93 97 109 118 124 131 129 136 138 141 146 153 159 161 164 165 164 164 168 173 176 178 179 184 183 182 186 189 195 203 204 202 202 207 204 201 196 196 200 198 197 198 199 201 201 204 202 198 197 187 187 188 185 182 180 177 172 168 160 155 158 153 147 140 139 115 22 20 28 14 8 10 10 11 11 6 10 15 7 6 9 11 15 12 11 10 12 15 36 53 77 97 103 96 102 120 124 125 125 131 134 137 150 159 162 164 167 163 165 165 168 175 178 177 176 183 182 181 189 191 192 196 202 204 206 208 207 204 198 195 199 198 195 195 194 194 194 197 190 190 190 184 183 186 180 177 170 173 169 165 152 142 132 140 146 140 139 118 26 15 23 13 9 8 9 13 10 8 12 9 7 7 10 13 10 8 7 8 12 17 45 70 87 105 106 102 105 118 122 120 121 128 137 142 153 160 167 170 169 168 168 168 171 177 179 178 180 183 183 182 188 191 188 192 196 199 201 204 205 203 197 194 197 198 193 191 192 190 187 185 183 176 177 166 172 172 151 135 130 138 132 118 117 126 109 105 117 137 143 116 24 15 22 14 9 7 10 11 10 11 7 8 8 8 10 8 6 8 8 13 14 22 59 80 91 104 109 102 105 112 116 113 113 123 136 140 154 161 168 172 171 171 168 168 171 172 176 182 184 183 181 183 182 187 185 191 189 185 189 199 197 199 191 193 196 195 191 189 187 187 184 177 174 170 157 127 144 153 113 86 89 79 79 61 65 74 91 90 76 95 128 122 29 13 17 13 8 8 12 10 13 11 5 6 10 6 8 7 8 6 8 14 19 33 68 89 95 100 111 105 108 112 110 110 113 120 129 143 155 163 163 160 162 166 161 164 165 170 171 171 171 167 158 139 152 168 166 177 172 179 182 184 188 192 190 191 191 192 188 185 185 181 177 169 160 166 144 100 121 137 91 81 71 71 68 59 61 68 71 67 57 66 112 125 30 13 16 15 5 8 13 17 18 10 6 8 10 9 9 7 8 6 9 18 23 42 78 100 102 96 112 110 113 115 106 104 110 117 129 142 153 146 131 128 137 133 132 136 138 130 122 117 109 98 108 112 116 133 141 143 145 177 166 165 182 187 189 185 187 184 180 180 176 179 175 171 163 152 126 115 110 98 64 53 50 58 59 63 69 85 89 73 70 80 100 118 41 18 14 11 12 10 12 14 11 9 7 8 8 9 10 8 8 8 9 13 28 46 86 103 108 99 107 111 109 107 101 101 106 114 122 128 118 101 99 104 98 87 78 82 75 65 57 56 63 71 72 87 95 114 139 133 132 168 160 170 175 184 186 179 179 171 172 174 173 176 173 169 162 129 117 107 84 67 58 60 75 81 86 93 99 102 97 89 90 90 91 112 49 18 22 53 14 12 10 10 14 10 6 7 9 8 7 6 5 6 7 19 29 49 89 99 106 105 107 111 105 98 100 101 110 106 105 84 59 63 67 74 86 84 61 50 50 47 47 43 51 66 63 61 71 89 126 130 131 154 147 158 172 180 178 179 175 172 169 170 169 167 165 150 137 129 112 100 91 86 86 99 116 119 123 124 120 112 110 107 101 99 109 122 57 27 69 102 18 19 11 14 25 14 9 6 10 9 7 6 4 4 14 25 34 64 94 104 104 105 107 109 109 98 100 101 96 80 67 61 59 61 65 62 64 74 66 59 59 60 62 63 64 72 73 80 85 74 94 116 118 128 147 154 167 169 170 177 177 174 170 168 166 158 151 141 127 113 102 90 75 73 83 91 82 74 74 82 86 100 115 119 119 113 116 127 60 42 107 101 22 21 12 30 32 10 11 8 7 7 7 7 4 6 17 32 48 68 99 108 109 106 106 106 104 102 100 95 79 65 66 73 73 74 76 86 85 88 102 110 114 115 113 114 106 100 97 93 92 89 89 93 98 112 135 148 159 165 170 176 179 173 171 169 159 149 140 127 110 94 77 71 99 111 74 40 28 22 23 35 55 68 94 114 120 126 133 130 65 34 72 100 14 15 13 18 15 13 7 7 7 6 8 11 8 7 23 37 56 74 96 106 109 108 107 103 97 99 96 92 79 62 62 74 78 90 103 102 113 118 128 133 130 126 114 98 80 63 53 54 59 66 78 80 86 102 116 133 149 159 168 178 187 187 180 173 159 146 133 111 90 90 112 129 112 84 58 83 69 29 29 32 28 48 77 110 118 130 137 134 71 43 75 100 10 10 11 11 15 9 7 7 7 7 6 9 7 10 21 36 65 85 97 101 109 111 107 101 98 97 87 87 78 65 60 73 87 96 106 107 111 117 102 87 69 50 27 16 12 14 25 35 38 39 52 68 78 87 103 121 140 158 175 187 196 192 186 173 160 142 115 97 114 137 127 108 134 109 65 57 36 41 40 49 37 30 59 101 124 134 142 139 80 34 82 92 20 14 11 13 14 7 4 6 6 7 6 5 5 8 21 39 71 88 100 101 110 114 109 98 101 100 95 84 82 84 85 84 90 96 100 97 82 64 45 37 39 23 38 85 88 33 25 46 61 85 77 61 69 78 89 113 138 156 180 194 201 187 178 174 161 132 114 136 155 128 115 169 208 171 49 29 32 46 43 97 87 57 66 96 129 148 145 143 96 31 66 66 36 23 10 14 12 10 5 5 6 8 8 6 5 11 23 49 75 91 102 105 112 114 109 99 103 104 98 96 102 99 93 92 92 84 69 53 42 36 54 77 83 39 47 39 28 47 44 102 83 79 118 121 97 89 91 110 134 154 175 187 194 192 183 175 156 135 165 175 132 127 145 176 186 170 110 69 66 64 95 135 111 91 111 125 141 154 149 146 104 40 61 53 34 28 15 22 10 13 19 13 9 10 7 6 5 12 24 61 84 97 104 107 113 115 111 104 106 115 109 97 102 105 92 88 84 66 49 30 31 51 83 138 134 63 39 37 34 43 64 149 127 86 105 149 154 119 95 114 128 146 163 176 188 192 187 175 155 151 185 174 150 143 143 142 147 146 146 148 137 127 124 111 118 120 136 148 153 162 159 149 120 62 57 60 29 18 19 34 18 15 32 28 12 7 6 6 7 11 28 62 87 102 106 109 114 117 116 111 111 126 126 111 99 101 99 98 94 80 53 46 64 91 117 125 131 109 93 107 113 117 124 125 126 148 167 168 169 133 109 121 126 138 151 168 182 186 183 169 153 153 175 186 181 171 159 158 161 150 143 140 136 121 129 124 130 141 156 159 162 166 161 150 135 104 62 91 9 14 25 30 35 32 33 41 21 9 8 6 7 14 38 65 92 103 106 111 116 117 120 119 122 135 149 143 122 115 119 111 104 93 82 82 96 120 132 125 128 121 131 150 145 142 139 144 156 163 166 168 149 125 128 125 124 131 146 167 176 180 178 168 152 152 160 163 162 157 149 148 151 154 155 146 139 132 136 132 132 151 163 164 164 166 160 152 142 104 46 117 18 33 35 35 34 41 36 36 29 16 10 9 10 19 49 73 96 102 107 111 116 118 121 128 135 141 155 165 156 143 138 132 127 123 114 108 111 114 119 128 137 138 134 139 150 146 146 149 146 149 154 142 136 145 142 134 125 127 142 161 170 176 179 174 158 157 163 159 162 164 165 157 156 153 146 138 135 139 139 142 153 164 168 166 163 163 161 152 146 91 66 124 33 40 43 39 34 30 30 23 16 15 14 14 13 26 49 78 99 103 107 112 115 120 125 132 139 149 158 161 159 158 153 150 150 142 132 128 127 126 129 135 136 140 138 141 142 145 154 156 160 164 148 139 155 157 146 138 128 126 136 153 169 175 174 168 161 155 168 166 165 169 174 175 174 171 167 162 160 163 163 167 168 170 174 169 162 159 157 151 151 88 80 133 40 45 51 53 41 38 31 26 22 18 15 15 15 33 55 83 105 106 108 111 115 122 127 132 140 148 153 157 159 163 160 159 157 152 151 144 139 140 145 144 145 146 147 152 159 165 172 177 171 163 147 157 161 154 149 139 129 126 138 150 163 173 173 171 163 149 161 168 171 173 171 180 182 178 174 176 179 181 179 175 174 173 173 171 163 158 157 152 148 94 94 130 50 45 50 54 48 50 49 34 19 15 16 16 17 33 58 83 104 110 109 111 111 118 126 130 137 142 152 156 158 158 157 162 165 165 166 162 156 152 154 160 166 173 175 178 184 185 185 184 169 153 156 164 156 146 145 136 128 127 139 148 158 173 176 175 168 151 149 164 166 178 180 174 180 179 173 176 179 180 176 174 175 175 174 171 166 156 154 153 145 112 108 123 25 31 45 51 50 62 53 31 26 22 22 19 16 35 68 88 103 113 111 114 114 116 126 131 135 142 150 156 157 156 158 163 165 171 173 171 171 171 173 177 177 181 184 185 189 188 188 180 165 162 167 162 151 146 145 140 133 133 139 147 158 169 176 175 173 159 149 155 158 171 186 180 175 181 179 177 177 180 175 176 175 177 174 171 168 160 153 149 142 112 110 132 42 32 45 48 39 53 50 39 33 28 22 20 16 44 72 85 100 111 111 113 114 114 118 126 131 140 146 154 155 152 155 159 164 171 172 171 171 175 178 179 179 183 182 183 188 184 177 166 163 172 172 159 150 144 148 144 133 131 136 146 159 165 173 179 176 164 152 150 158 162 179 192 181 175 172 174 174 177 175 174 174 176 174 170 167 159 150 149 144 109 112 120 64 54 51 45 61 65 51 40 36 35 29 19 22 52 76 83 101 112 112 111 114 117 120 123 128 137 142 147 152 150 150 156 166 170 167 168 172 175 180 180 183 185 180 180 179 175 169 163 173 181 172 155 144 145 147 146 136 131 137 146 156 165 172 175 174 168 154 152 159 161 170 189 183 180 175 176 175 176 175 175 174 172 175 170 165 158 153 147 146 107 98 120 79 61 50 68 73 69 57 46 43 45 43 27 32 56 71 86 99 112 116 115 116 118 120 123 133 137 139 144 145 145 152 157 161 162 164 168 173 176 177 180 179 177 173 179 176 174 171 172 186 183 168 150 141 142 145 143 136 132 134 141 153 162 176 177 173 171 162 154 157 160 167 183 187 183 181 178 175 177 179 179 174 171 173 173 165 159 153 149 143 109 95 124 98 58 71 82 74 66 54 49 50 52 53 49 38 51 69 87 98 108 112 113 113 114 117 119 128 134 134 143 144 145 151 157 152 157 163 168 170 176 177 180 182 179 176 181 179 173 178 181 189 181 163 152 146 143 143 137 131 132 132 139 157 161 173 175 175 174 169 156 154 158 165 175 185 186 183 183 180 181 177 178 175 170 169 169 166 160 155 148 142 103 94 121 110 58 83 95 82 76 70 74 76 70 65 59 37 50 75 90 99 104 109 109 113 114 117 117 121 126 130 139 141 144 145 151 151 157 161 164 169 175 180 183 188 183 181 181 172 172 183 185 191 178 164 157 147 143 137 129 129 126 129 134 152 165 172 178 180 178 171 162 151 158 167 173 179 186 183 187 183 182 179 176 179 172 170 166 165 159 152 147 144 96 73 115 128 72 83 107 94 99 101 98 93 77 79 56 36 50 69 87 96 104 107 107 114 115 114 116 121 124 126 128 136 141 143 145 152 157 160 166 170 172 178 182 185 183 182 185 181 188 193 196 193 176 166 158 143 136 130 124 124 120 123 134 148 167 174 182 186 181 172 166 156 157 167 173 181 184 184 186 188 186 182 181 179 175 170 166 163 155 151 148 144 89 88 121 134 96 74 119 115 116 117 113 93 68 78 51 37 45 58 77 95 106 109 109 110 113 112 114 120 122 123 126 133 139 142 143 147 152 159 166 168 170 174 183 187 183 186 188 187 194 194 194 188 178 171 160 139 124 127 124 122 117 119 131 150 162 171 182 188 185 176 170 162 150 166 180 183 185 187 189 190 188 185 181 175 172 168 164 160 153 148 148 138 88 89 118 108 111 88 91 116 125 117 107 101 81 61 53 38 41 53 72 94 101 102 106 113 115 113 112 117 124 124 128 132 132 139 139 142 148 159 165 165 169 176 180 188 185 187 187 193 194 198 195 192 182 169 153 131 122 129 130 125 122 122 128 146 159 172 185 189 187 177 168 161 155 164 181 182 183 184 187 186 187 184 181 177 169 167 160 155 149 149 147 135 88 79 100 46 112 102 123 99 98 96 85 89 86 71 57 37 42 56 66 85 98 103 102 103 117 112 111 116 122 125 126 124 127 132 134 140 142 150 158 160 168 173 175 185 188 193 191 194 197 197 198 197 185 167 135 118 125 135 135 132 131 126 125 146 166 178 193 201 198 184 174 161 154 162 174 182 186 185 186 186 186 180 179 178 171 168 162 153 150 148 147 131 84 76 96 9 104 111 110 132 116 92 85 80 78 68 58 40 40 57 64 76 95 103 100 99 109 111 110 112 121 126 128 122 122 130 136 140 141 145 145 158 163 171 172 180 188 195 194 196 198 201 192 189 184 164 125 109 130 142 143 139 134 128 129 146 165 182 199 206 204 191 180 167 153 154 165 180 183 187 184 184 185 182 179 176 171 167 161 153 151 147 147 127 71 65 87 13 65 130 91 112 123 103 117 127 96 52 46 44 38 48 59 76 85 95 98 102 104 108 109 114 120 124 127 127 125 128 133 136 140 144 144 155 160 169 173 177 186 194 200 200 196 194 190 184 176 152 112 109 131 144 149 146 137 128 128 141 157 176 189 192 194 189 179 164 151 151 156 177 176 182 183 180 182 180 181 176 169 165 156 150 149 150 144 118 82 68 89 20 28 110 118 90 87 91 120 137 127 87 61 49 42 45 57 74 79 90 96 102 105 109 109 113 119 123 125 126 126 129 131 131 137 140 146 152 155 165 169 174 184 191 195 194 190 189 191 182 167 146 102 108 128 141 146 138 131 121 116 132 150 166 178 182 184 186 172 153 146 142 147 176 177 179 181 182 183 182 178 172 167 162 155 149 147 150 145 108 75 75 88 30 16 76 132 108 88 76 102 138 142 110 71 54 38 41 52 62 78 88 95 101 101 105 107 111 120 126 123 125 126 130 125 127 135 140 145 149 154 159 167 175 180 184 192 194 184 183 184 172 159 133 96 105 119 126 124 114 108 105 103 112 128 147 162 170 175 172 155 135 109 114 142 172 177 177 181 183 184 181 178 172 165 163 152 150 151 149 140 104 78 74 81 23 19 36 111 123 97 70 91 119 119 107 85 58 36 36 50 58 73 83 90 98 92 95 109 110 116 124 125 124 125 129 122 125 134 135 139 142 152 155 164 172 180 181 187 189 192 186 185 171 158 132 93 93 102 98 72 36 28 37 60 88 110 127 145 155 158 152 136 88 70 109 157 176 179 177 180 180 182 181 176 171 167 163 155 154 154 148 136 98 73 68 73 12 21 19 81 103 90 95 104 110 107 99 89 56 47 35 49 64 72 75 88 91 90 97 102 114 120 121 126 126 124 124 123 125 130 131 137 142 149 156 163 170 180 183 186 189 185 185 180 172 166 147 110 80 86 95 85 73 66 55 44 49 81 113 128 144 146 133 128 119 108 139 167 179 182 180 177 179 179 178 176 172 169 163 157 154 152 147 128 87 71 71 65 14 19 19 32 62 94 110 111 108 106 102 84 53 52 35 48 63 69 74 82 91 80 89 99 110 120 123 126 129 130 128 127 126 127 134 141 139 149 157 163 170 176 179 182 189 185 187 187 180 174 166 145 113 90 101 121 129 118 107 92 70 46 82 109 116 114 120 138 136 141 161 170 177 181 181 179 179 178 178 180 171 167 162 155 155 153 145 120 78 61 66 58 15 19 23 10 41 92 112 111 107 108 106 83 53 43 31 42 54 61 65 76 87 83 77 96 104 118 121 126 130 130 130 129 131 126 130 138 140 149 157 162 166 173 174 173 177 180 183 188 186 178 165 155 152 137 121 121 130 122 121 116 92 63 68 77 87 118 134 127 136 155 159 166 178 180 179 180 180 176 177 175 171 166 164 159 157 152 137 100 71 56 59 63 13 15 22 14 6 63 109 110 115 113 106 90 55 38 24 32 45 60 54 70 83 81 87 93 100 115 123 123 126 130 127 124 127 129 131 138 142 148 159 165 166 172 177 179 181 185 186 186 185 180 167 156 147 139 131 135 127 110 124 129 125 102 88 94 126 140 119 86 100 117 129 140 174 175 178 180 180 178 173 172 173 166 165 164 156 151 134 99 68 57 52 50 12 12 18 20 7 19 90 118 123 119 114 98 47 26 25 27 40 46 46 69 86 80 86 90 91 106 120 124 127 128 130 128 127 128 135 140 145 150 158 162 169 173 176 181 186 189 189 185 184 179 170 154 145 130 113 108 88 83 102 107 135 152 148 156 148 126 102 70 66 71 80 100 143 173 176 180 179 177 177 178 175 167 167 164 153 149 129 88 65 58 58 47 9 10 16 22 12 2 45 109 121 112 110 96 52 25 21 27 45 50 44 66 81 83 73 89 86 94 113 122 124 126 129 130 127 129 133 139 144 150 158 162 170 171 175 180 182 188 191 186 178 173 170 163 153 125 90 72 67 85 85 88 103 107 144 168 126 106 93 66 62 63 60 76 97 144 162 163 172 179 178 177 177 171 169 165 159 143 115 89 58 60 60 47 10 10 12 19 13 6 2 44 96 106 101 77 41 20 18 21 39 53 45 65 76 82 75 87 83 95 106 118 123 122 124 127 128 129 134 140 145 153 160 166 171 171 173 179 185 190 186 181 173 164 154 151 146 106 67 54 54 70 78 80 82 77 119 152 139 91 79 74 74 67 50 59 87 117 134 155 166 173 177 177 181 174 169 165 158 138 104 83 60 53 55 50 11 10 12 14 13 7 5 2 19 40 40 25 15 14 13 21 29 45 49 65 72 81 74 89 88 101 96 112 118 121 119 122 124 129 135 140 141 155 161 164 171 173 176 181 184 181 180 172 156 137 134 126 117 82 53 46 55 57 74 83 92 83 111 123 135 115 91 84 69 62 60 54 60 95 119 125 142 162 177 179 178 176 172 163 150 122 99 69 48 44 44 47 11 10 15 14 11 6 4 4 0 0 1 6 13 15 14 21 28 38 42 54 65 74 67 84 97 93 95 107 111 119 118 125 121 128 133 137 140 150 162 166 167 167 175 180 176 166 165 142 127 110 108 95 82 65 49 45 52 61 77 93 105 137 134 130 149 142 140 109 65 56 59 57 48 80 114 112 126 133 162 181 179 179 175 165 148 106 89 67 46 40 39 41 19 14 10 13 9 9 9 7 5 6 5 7 15 14 13 19 21 29 44 55 60 67 61 88 93 83 96 102 106 109 114 123 123 125 129 136 141 150 156 165 167 163 173 170 156 148 122 116 98 95 85 74 66 58 46 45 58 71 75 76 112 186 184 181 180 181 171 137 88 61 66 55 60 82 105 98 98 114 132 172 183 179 174 162 141 94 81 72 59 39 35 36 15 17 14 6 5 9 9 9 7 8 8 11 16 21 14 15 23 28 33 53 56 54 55 83 86 73 87 92 95 103 100 117 121 122 130 137 143 152 156 160 166 163 165 146 126 118 103 95 85 88 73 66 67 63 52 54 66 65 68 74 114 155 171 187 173 152 137 127 106 83 71 70 71 92 114 93 88 101 108 138 179 181 175 159 126 90 76 61 56 47 33 37 20 21 18 15 9 5 8 7 7 9 7 12 15 18 15 13 20 21 29 41 45 48 55 74 72 71 76 81 92 84 97 113 113 122 128 133 145 151 149 156 162 161 149 123 113 87 78 82 81 94 77 74 69 78 58 64 74 81 101 118 134 135 140 151 149 129 134 136 133 121 98 92 96 106 103 88 87 95 87 105 158 182 172 147 115 87 70 58 49 49 34 40 28 21 15 19 19 12 6 9 11 11 11 12 16 16 7 13 19 22 31 33 42 48 56 73 78 68 70 76 87 78 98 107 105 119 118 130 144 146 140 149 160 156 128 100 88 74 66 73 74 76 73 85 85 73 70 76 97 111 128 125 125 123 122 135 141 123 122 125 119 113 110 99 105 108 78 76 83 89 82 85 128 175 166 132 110 79 63 56 54 49 39 36 18 15 7 8 13 13 11 7 12 10 10 18 19 18 10 13 18 22 28 24 44 51 47 71 73 65 62 64 80 80 89 102 105 110 112 122 136 132 141 145 155 142 101 81 83 85 67 65 69 80 79 92 89 78 75 78 83 77 82 87 88 92 97 110 115 98 81 88 84 85 86 71 78 95 84 69 83 84 69 70 103 172 151 120 98 69 57 50 54 57 40 29 28 27 16 10 9 8 7 5 10 9 10 20 16 22 20 13 17 16 20 26 43 41 41 68 70 54 61 67 73 75 76 85 96 105 105 112 128 135 145 149 143 110 81 75 87 69 56 68 81 78 79 71 59 72 84 88 97 98 93 88 89 96 91 89 97 111 120 135 147 139 130 105 72 69 80 98 94 87 71 61 93 162 155 115 82 56 59 48 51 54 32 26 17 17 15 12 9 6 6 5 5 6 16 20 12 17 16 15 19 24 24 27 33 33 42 57 55 54 63 69 63 72 67 71 92 93 102 118 123 137 146 151 126 83 80 73 73 58 52 76 81 67 66 75 91 117 133 139 143 157 155 159 157 158 165 157 160 162 165 164 158 147 145 137 134 137 125 123 112 95 72 63 79 153 143 102 77 53 50 40 48 46 27 22 17 15 11 12 10 5 6 5 5 13 26 14 14 16 12 16 18 24 22 19 27 40 45 44 42 50 61 63 55 73 68 69 77 87 103 105 114 126 133 136 110 83 72 75 70 59 82 122 134 142 137 128 125 129 129 135 136 146 158 165 171 169 174 169 172 173 172 165 156 149 152 153 151 156 167 166 149 107 73 59 79 139 122 86 67 46 46 45 40 32 26 21 18 14 12 12 9 6 5 7 8 22 14 9 20 10 6 13 13 12 16 21 23 32 37 41 35 45 55 53 48 61 67 71 71 87 89 98 113 121 136 124 102 82 82 74 62 86 140 167 168 163 151 149 146 144 142 138 139 148 153 155 168 167 167 169 172 170 165 160 153 160 163 160 162 160 170 185 176 134 87 65 70 133 113 85 64 46 49 52 36 21 21 22 21 21 22 12 11 9 4 6 11 22 9 10 22 10 8 8 11 12 16 21 19 25 34 35 36 36 46 47 53 54 64 69 64 74 82 89 97 117 120 111 94 87 86 64 72 132 172 179 166 163 154 156 158 151 149 154 157 162 168 166 170 173 173 176 172 167 166 164 167 169 162 159 165 166 178 188 181 163 110 82 69 103 94 69 52 40 39 37 33 24 22 22 20 25 24 14 11 5 4 7 16 16 6 14 22 9 7 5 12 17 16 23 22 22 32 28 39 29 35 43 49 41 48 57 59 68 74 73 85 96 97 104 96 85 87 68 110 160 185 185 174 165 156 155 166 155 150 152 154 162 162 160 160 164 163 165 158 160 162 162 160 160 158 159 166 174 182 183 178 170 130 82 78 102 76 56 45 34 33 30 29 28 25 21 19 21 15 11 10 7 8 11 16 11 6 15 11 9 6 6 10 18 15 21 19 18 27 21 27 24 28 41 38 29 36 47 54 57 56 63 81 65 81 106 95 87 72 89 146 172 183 187 180 172 163 160 160 159 152 148 146 156 155 151 142 138 138 134 133 135 145 154 155 156 158 166 176 183 184 179 175 172 146 115 89 91 83 51 44 39 30 23 29 30 25 16 15 15 13 9 7 7 10 14 13 6 7 10 6 10 4 10 9 10 18 17 14 19 27 18 20 24 25 33 31 27 31 39 44 49 41 58 62 59 73 87 96 85 86 146 172 172 175 177 179 176 171 163 166 161 155 146 139 133 131 137 138 124 125 129 130 126 134 142 149 155 163 174 182 184 182 179 178 182 170 140 108 76 65 48 35 35 25 24 28 34 24 14 7 9 12 7 5 10 10 7 8 8 9 5 6 7 4 7 9 11 24 20 16 18 25 17 15 20 23 26 26 23 24 30 32 36 39 53 54 60 72 84 107 99 116 156 173 169 171 173 174 173 172 166 167 169 158 141 136 130 132 143 134 117 126 121 128 132 141 150 151 158 173 181 183 183 182 180 173 164 155 135 100 63 44 38 27 30 26 24 29 30 18 14 13 12 8 7 11 8 6 7 9 12 8 7 7 4 6 7 7 11 24 18 16 18 19 14 15 17 17 19 22 22 23 24 26 33 35 42 51 56 69 89 98 118 130 153 165 172 172 173 173 172 171 169 168 165 153 149 149 151 160 159 142 133 145 137 134 142 150 168 159 164 177 182 184 185 179 180 173 154 134 108 75 45 35 30 22 24 24 26 25 20 11 16 15 13 10 8 8 5 7 11 12 10 7 7 6 2 8 10 6 17 23 15 15 18 19 15 13 14 14 18 28 23 21 22 20 26 34 39 44 55 56 68 87 103 131 140 150 165 170 171 171 176 172 170 168 162 163 166 169 169 166 165 154 157 173 158 151 147 163 171 174 175 176 180 186 186 181 174 173 151 124 87 52 35 34 20 18 22 21 19 18 18 12 18 11 12 10 10 11 11 11 11 10 8 7 5 4 10 14 10 42 31 29 19 15 17 22 21 21 12 15 16 28 21 21 24 23 20 28 34 44 44 51 67 76 94 104 133 142 142 158 170 177 176 177 175 173 170 175 174 176 173 165 155 163 191 192 182 166 150 157 180 184 183 179 185 189 186 181 173 154 128 100 74 46 30 29 18 19 25 20 10 11 20 20 14 10 10 8 16 20 13 11 8 6 5 4 5 7 15 10 37 65 26 37 24 14 15 18 21 19 16 12 14 18 17 22 23 21 21 25 30 47 40 49 55 82 90 101 129 118 131 158 169 174 177 183 182 179 181 180 177 179 174 168 167 186 192 192 189 180 176 153 173 191 192 191 189 188 187 180 174 156 110 79 58 48 34 27 22 20 27 11 7 14 16 23 18 12 10 8 5 10 8 6 5 5 5 6 6 6 14 43 79 70 17 32 17 16 17 16 17 15 15 18 17 12 16 21 20 22 22 23 28 30 41 39 48 67 84 89 98 104 125 142 166 168 180 189 188 185 186 187 182 185 181 177 178 180 173 177 185 180 177 168 166 185 189 190 191 187 182 177 161 134 104 74 48 32 36 30 25 23 23 12 7 13 14 24 24 15 11 12 12 9 8 6 6 5 8 8 5 38 46 47 67 50 19 44 17 16 19 20 18 18 19 20 17 12 13 16 19 21 26 24 25 21 31 37 42 46 62 68 78 100 113 120 139 157 171 181 188 188 191 190 183 180 184 161 164 171 159 170 175 162 173 175 171 173 177 186 187 179 174 168 141 116 83 59 45 29 29 29 29 24 17 17 6 12 22 24 36 9 8 12 17 13 8 7 7 5 14 10 15 61 75 66 86 57 22 72 32 12 23 25 20 17 18 17 19 26 14 14 14 17 24 22 22 23 26 29 32 38 45 60 71 86 86 91 128 146 140 157 185 182 181 186 180 173 179 167 151 150 147 175 181 160 140 164 169 155 159 174 177 161 151 146 109 89 74 45 34 34 27 24 26 14 12 13 10 7 15 12 24 8 5 11 17 17 11 7 6 6 6 4 31 64 78 83 87 65 31 83 43 7 26 25 23 17 12 15 17 21 12 17 14 11 14 15 18 17 18 24 29 42 39 48 61 72 70 85 102 98 109 137 161 154 162 162 162 164 160 166 138 131 133 146 162 148 149 141 150 148 135 144 154 146 120 118 96 63 52 44 38 36 29 26 21 17 13 6 15 13 8 10 11 6 4 9 18 16 11 6 5 6 6 6 23 61 91 73 82 48 39 67 51 7 25 33 25 19 14 15 11 12 15 17 12 11 13 18 15 16 16 18 26 34 26 32 45 50 58 70 73 75 104 108 110 116 156 131 139 135 139 152 137 118 122 114 155 154 139 125 124 127 130 117 105 120 113 100 87 54 32 40 31 33 25 21 18 16 13 7 5 17 11 8 7 10 8 8 11 14 12 8 10 9 16 52 58 36 48 52 79 36 57 41 39 5 27 38 31 27 19 15 11 11 15 12 10 12 15 17 12 14 14 13 15 31 29 25 39 36 52 51 60 69 80 83 80 89 113 110 122 117 118 128 122 123 97 90 125 154 125 113 103 106 106 93 78 87 95 81 67 46 30 29 26 28 37 24 19 15 13 11 7 12 16 9 7 18 9 8 10 12 9 9 10 10 18 44 76 64 25 26 38 28 57 36 55 13 18 39 38 32 20 20 16 13 13 14 13 16 15 13 13 13 13 10 14 28 33 27 37 40 39 42 50 70 57 60 57 69 75 82 107 94 97 97 97 98 84 80 97 117 98 88 95 66 81 83 76 73 71 69 52 27 31 30 22 26 31 25 20 17 13 11 9 15 16 15 9 25 25 16 11 16 16 12 9 12 15 7 2 9 28 46 50 47 83 62 42 17 9 40 45 38 32 22 21 17 12 14 11 13 9 12 16 12 11 13 19 15 14 27 37 32 29 40 44 52 49 53 49 55 53 68 92 85 81 79 88 86 78 80 76 89 76 71 87 56 73 79 60 73 70 50 40 30 29 27 24 33 26 18 22 18 14 11 6 13 19 18 17 8 16 23 17 17 23 14 5 29 23 9 34 38 34 33 41 38 92 86 38 6 6 35 50 50 41 29 25 22 13 13 11 12 12 15 14 13 13 11 15 14 8 22 26 24 27 32 30 34 44 43 47 49 54 52 60 71 71 63 71 86 79 69 78 75 54 66 75 53 62 64 54 59 47 30 39 43 26 19 19 19 23 23 20 19 15 12 5 12 21 22 23 23 15 7 10 11 10 11 21 13 9 28 70 77 70 47 25 44 82 82 27 1 6 35 52 53 46 37 31 27 17 13 18 14 13 15 15 15 13 11 13 13 9 16 16 21 29 22 24 28 31 38 37 45 48 47 52 55 50 56 61 69 63 56 63 64 56 61 52 48 46 47 50 48 35 20 29 41 26 20 17 19 22 22 22 19 17 14 6 13 25 24 24 54 33 12 10 8 7 15 29 3 17 58 39 79 75 43 25 59 89 53 2 4 5 31 53 56 56 48 34 30 20 10 11 12 12 14 13 13 13 16 14 13 12 12 21 15 23 24 21 21 18 40 34 40 35 41 42 37 37 37 48 57 43 46 48 44 46 52 44 42 31 38 40 37 32 17 23 33 20 18 21 26 21 23 22 20 18 15 6 13 26 25 25 72 53 5 8 10 11 8 7 16 10 32 38 109 94 51 8 68 75 4 3 6 3 25 51 54 57 53 44 40 38 21 12 11 13 13 10 9 14 14 12 8 8 17 24 11 18 15 22 17 13 27 23 27 31 39 33 30 28 30 31 42 43 46 48 33 33 47 37 23 31 29 32 24 25 24 36 25 16 20 24 23 24 24 23 20 18 14 6 14 24 26 27 82 71 7 9 9 11 7 5 38 38 2 42 103 90 84 12 48 28 0 7 7 2 20 47 52 56 54 56 47 44 40 26 14 13 13 9 12 10 12 9 5 8 24 15 15 22 13 14 14 13 20 17 20 21 34 29 22 28 29 25 30 46 30 30 29 36 37 31 19 21 27 24 17 18 27 31 23 21 25 23 22 24 24 23 21 19 15 7 16 26 25 27 88 61 10 8 8 8 5 5 12 29 6 47 97 110 94 18 21 6 4 7 8 4 13 43 54 59 60 61 62 62 44 41 23 13 14 11 11 10 10 7 8 11 12 11 14 21 17 10 12 13 16 16 16 16 24 24 16 19 21 20 25 26 20 24 24 28 24 24 19 14 22 18 13 13 17 21 18 21 25 25 24 25 24 23 21 21 16 6 17 27 26 27 100 51 5 8 10 6 9 6 5 4 9 53 94 117 91 11 6 4 6 7 7 4 8 38 54 60 62 63 71 74 63 47 40 16 21 17 10 10 8 6 9 6 5 7 7 12 16 10 9 10 14 17 15 16 13 21 17 16 19 19 23 20 19 19 18 17 15 13 14 13 16 16 12 17 21 18 21 23 25 25 25 24 24 22 22 21 14 5 16 26 28 28 92 77 30 4 7 7 14 7 4 10 13 16 46 66 32 4 7 6 7 7 8 5 7 31 54 62 65 67 71 70 72 55 51 40 29 26 13 10 9 11 8 8 7 9 11 11 8 7 8 8 10 12 20 11 8 17 17 13 12 12 17 16 11 11 13 17 14 14 12 7 14 18 20 23 18 19 20 22 23 24 24 24 23 22 21 20 13 5 16 27 28 27 20 64 80 29 5 6 7 7 4 48 62 16 8 13 9 6 6 6 8 8 10 7 8 26 48 61 72 74 75 71 81 65 60 64 55 41 28 17 13 14 10 8 7 11 10 12 8 8 8 6 8 9 15 20 10 15 20 16 14 11 14 15 15 11 10 15 11 9 9 14 14 18 25 25 17 17 22 23 25 22 24 24 24 22 23 20 13 6 18 27 27 29
