P2
# Generated by OpenCV 4.2.0
92 112
255
20 3 29 11 0 1 2 0 4 2 12 5 5 35 62 33 9 58 57 13 11 16 32 58 52 51 62 51 58 46 88 50 67 51 80 42 132 96 57 117 74 154 133 73 143 121 75 115 144 151 106 141 104 107 145 124 126 52 113 32 90 35 45 117 92 58 57 46 65 49 49 47 26 19 57 32 8 24 7 16 9 12 26 8 11 10 15 1 3 0 2 16 11 1 13 6 9 1 3 6 2 2 11 22 23 21 24 50 30 39 65 43 24 28 44 44 88 49 64 64 59 72 59 65 65 71 52 40 73 94 81 96 129 165 140 158 146 193 159 139 162 162 131 158 144 141 139 169 125 59 122 64 109 65 88 84 81 109 92 89 46 78 45 42 45 32 30 28 28 36 29 26 27 18 18 21 13 16 5 3 1 0 2 0 35 16 7 18 3 1 4 13 12 19 9 21 35 32 8 14 52 26 16 22 13 42 49 48 79 90 87 69 98 139 82 84 78 58 31 55 40 76 101 106 150 126 170 178 185 183 175 188 193 197 188 176 178 174 151 152 118 125 127 119 120 118 120 133 113 106 116 88 70 69 64 47 61 44 35 57 37 33 33 20 18 28 18 24 16 17 0 9 5 0 0 16 17 5 0 0 1 6 5 9 26 8 17 33 25 35 29 43 13 26 6 24 15 16 85 91 119 132 125 131 128 140 116 77 118 49 44 74 90 71 116 139 97 132 150 188 196 212 201 200 197 187 198 182 203 171 188 167 174 174 161 137 157 149 122 149 125 117 101 107 99 65 74 63 60 56 51 21 33 27 10 22 18 19 21 17 23 11 35 19 10 5 8 5 21 6 22 1 2 36 8 22 20 16 31 38 40 23 27 46 18 19 11 29 65 91 80 101 119 137 167 167 181 148 141 107 123 138 93 99 75 102 130 110 110 151 167 187 204 209 210 209 208 205 197 193 197 203 198 202 181 171 159 160 146 146 151 149 135 131 111 114 115 110 86 48 85 42 46 34 29 30 27 31 15 18 20 9 15 19 1 25 8 3 5 0 10 14 11 2 5 4 9 7 42 20 52 49 35 37 11 14 12 30 75 97 102 116 120 136 168 197 215 202 215 215 177 184 144 149 148 126 113 131 102 114 129 152 180 196 209 212 212 213 209 203 208 207 204 204 198 187 190 202 187 184 186 179 157 156 141 142 128 135 101 121 105 70 82 71 40 28 17 15 21 16 22 19 10 14 10 4 27 12 10 3 6 12 11 75 0 9 10 24 11 23 26 27 20 46 60 43 16 13 48 79 99 122 150 152 173 197 200 208 216 217 225 224 221 199 216 180 205 165 148 123 174 167 170 167 197 193 208 212 214 214 214 211 207 207 203 204 195 201 205 192 200 182 161 165 180 174 160 147 150 132 139 126 154 102 87 58 51 46 35 23 11 9 22 18 21 12 12 6 32 0 4 3 0 4 10 69 0 1 33 11 33 26 33 36 39 45 34 46 22 66 119 112 131 149 158 180 200 203 214 220 220 223 226 224 224 220 214 190 217 213 154 172 134 164 199 198 204 207 215 214 215 213 213 209 209 210 201 205 204 203 199 197 191 192 184 169 175 170 165 156 165 154 133 130 127 140 100 85 67 34 20 22 27 28 13 9 17 20 25 27 2 8 0 2 7 8 3 43 1 25 23 7 4 24 39 44 45 71 84 43 68 126 143 148 158 183 182 204 215 220 222 222 223 220 222 224 222 222 221 214 214 212 187 208 152 199 207 209 194 213 215 215 214 211 213 212 211 207 205 204 204 200 198 194 194 192 190 175 186 164 168 170 162 149 161 141 142 153 115 97 64 52 52 39 21 26 13 15 17 44 15 18 21 11 1 8 8 7 20 18 20 20 8 18 32 29 28 45 75 89 139 125 140 156 163 179 185 196 206 213 212 218 221 219 220 222 223 221 225 225 230 222 221 223 211 225 213 182 204 210 224 216 212 212 210 213 212 210 212 209 207 204 207 200 199 198 192 194 182 179 179 174 170 162 166 167 172 161 169 140 113 125 100 58 42 38 22 24 11 25 24 1 3 2 3 6 5 7 1 1 0 14 11 0 15 37 21 36 46 70 72 163 169 183 178 185 198 199 203 207 208 217 216 216 220 223 220 222 222 221 223 224 226 221 224 226 224 222 216 215 211 209 222 216 220 208 215 212 211 211 210 210 207 208 201 203 192 198 194 192 185 182 177 180 168 178 172 160 162 156 167 148 145 126 115 106 64 54 44 16 14 12 2 3 7 0 1 1 9 2 1 11 11 9 16 1 13 22 30 28 45 53 109 162 184 196 187 195 202 201 208 210 214 217 216 216 220 224 222 222 223 222 221 226 225 222 224 221 220 220 220 215 222 222 212 219 212 219 214 213 210 212 207 205 203 205 200 201 200 197 199 188 185 189 179 177 170 177 178 166 169 153 178 155 142 135 128 94 103 46 44 25 4 7 16 4 2 0 16 19 13 17 14 2 25 4 25 0 19 37 38 40 60 84 134 184 198 200 199 210 210 205 206 207 213 218 215 218 221 220 224 222 223 220 223 225 223 223 224 222 222 220 224 220 224 223 216 216 213 218 210 215 211 215 211 205 205 205 206 197 199 193 193 189 186 179 173 179 174 180 169 177 170 159 160 157 167 140 134 111 78 74 48 28 22 31 1 3 5 12 1 12 4 8 7 7 26 9 0 28 16 20 35 45 65 102 162 194 202 206 207 209 211 210 208 206 213 214 217 215 220 221 221 222 221 222 223 225 223 223 222 220 221 222 219 222 220 221 220 219 217 213 216 215 212 206 208 211 207 208 207 199 198 194 192 191 188 181 177 178 167 175 173 170 172 162 167 159 156 141 135 123 107 76 62 23 16 12 3 3 0 5 10 14 23 13 18 12 7 2 5 43 25 11 30 61 68 128 173 207 204 207 208 209 210 205 206 204 214 215 216 217 219 221 224 225 223 223 222 226 220 220 222 224 222 222 222 221 219 222 220 220 216 218 213 213 215 212 213 209 209 203 203 195 198 196 185 188 184 176 175 177 181 179 170 170 170 175 153 159 161 142 135 111 115 81 49 34 5 3 18 5 1 8 7 7 6 6 13 7 6 10 14 20 24 37 40 67 98 141 181 201 205 207 209 210 207 206 206 202 212 210 208 214 217 219 219 217 220 223 220 223 222 222 221 220 219 220 222 220 221 220 218 218 221 213 216 216 219 213 204 210 203 207 197 202 198 194 196 178 174 175 175 182 175 178 184 183 179 173 169 151 164 153 138 108 109 78 55 28 25 1 1 4 22 0 1 5 1 0 0 0 31 13 8 13 35 54 61 80 106 143 184 203 207 208 209 208 209 208 211 204 212 211 213 212 212 217 219 222 223 218 223 223 224 219 222 221 221 220 217 217 218 218 215 213 216 213 215 213 210 214 203 203 200 206 202 202 198 187 190 184 182 163 181 172 177 177 172 178 176 171 168 160 162 143 136 106 102 81 44 38 18 10 6 3 6 2 8 1 4 1 1 0 34 14 3 18 31 31 47 69 114 148 182 201 206 209 208 210 212 208 210 212 209 205 212 215 214 220 219 220 220 217 217 221 216 219 215 214 216 219 221 221 221 219 219 219 214 218 215 214 214 212 214 210 210 204 200 195 192 179 181 174 180 160 178 178 175 187 181 177 176 173 166 165 159 155 141 111 67 83 63 44 13 12 3 5 5 2 0 2 2 5 0 4 26 20 29 25 21 32 42 82 116 141 186 199 201 208 213 205 209 207 201 211 207 209 212 211 213 216 214 220 222 220 219 221 220 218 220 218 219 217 219 216 215 220 219 219 213 217 209 213 219 209 213 209 199 204 192 200 191 195 176 187 172 160 166 177 179 183 182 177 178 169 171 165 154 143 148 108 99 73 62 49 23 9 11 15 2 1 1 2 0 6 0 3 28 10 27 10 38 52 63 79 129 158 196 198 206 209 209 209 212 208 211 211 210 210 208 209 216 215 220 220 221 219 219 221 220 220 220 220 218 217 220 221 219 219 217 214 217 218 220 215 213 213 212 214 207 206 203 201 189 188 184 180 183 177 187 183 192 183 187 174 178 174 170 170 160 155 143 115 92 90 62 42 26 11 12 2 1 0 0 0 3 1 3 0 1 26 13 26 25 39 58 84 124 160 185 202 207 210 209 210 210 210 213 213 213 211 212 214 214 215 212 215 221 221 220 219 219 220 220 217 217 220 217 216 217 218 219 217 218 217 213 217 217 216 217 213 206 202 201 199 195 191 190 185 179 194 177 186 190 190 180 180 173 179 164 156 163 157 139 124 108 69 55 59 28 18 20 5 5 2 0 0 0 0 2 2 6 21 32 22 20 42 69 94 151 169 180 193 208 209 205 210 205 211 217 206 212 211 212 211 211 209 214 215 217 224 221 221 218 220 219 217 215 216 219 217 219 217 215 218 208 203 217 215 219 211 215 210 209 205 198 195 199 191 192 192 184 186 181 187 192 185 183 186 187 175 176 172 154 155 141 124 92 92 53 42 55 32 19 5 0 1 0 0 0 0 1 0 11 10 7 18 41 45 84 109 128 163 184 205 209 208 212 210 210 210 210 211 211 209 213 215 216 218 219 219 221 219 221 219 221 219 222 219 220 220 217 217 217 217 216 217 209 219 217 217 214 213 210 213 208 199 201 199 197 192 193 185 185 190 190 179 182 187 180 181 183 179 166 176 156 165 138 129 115 80 56 46 24 37 36 6 0 4 0 10 0 0 0 1 17 7 23 27 31 38 70 107 119 171 183 197 206 207 209 210 212 211 211 212 212 213 214 216 214 218 216 220 219 221 220 219 219 219 221 220 221 218 220 219 218 218 220 219 218 216 217 216 215 216 210 213 202 204 200 200 195 195 191 188 189 189 191 186 185 181 180 180 177 175 175 164 158 160 147 140 108 96 84 33 21 27 11 23 0 2 15 4 0 0 0 0 15 11 32 28 20 43 61 110 122 154 174 198 206 205 209 209 208 209 212 214 217 214 214 217 215 217 212 219 220 222 218 221 214 220 214 217 214 211 210 214 217 211 217 220 220 219 219 220 216 213 214 214 209 206 196 196 196 190 194 184 181 178 184 185 174 180 177 184 181 171 167 158 161 162 142 140 122 98 73 54 31 8 6 20 9 2 1 2 0 0 0 0 12 10 18 12 19 33 70 78 119 139 181 196 207 206 207 210 212 213 213 215 215 213 215 216 217 215 213 220 220 221 218 220 220 218 219 221 219 218 220 215 218 217 220 217 221 219 219 217 220 215 218 215 213 208 206 198 200 193 190 197 189 186 187 187 181 182 183 178 176 177 156 164 157 158 159 140 126 109 96 73 33 22 13 1 0 2 1 0 0 0 0 0 14 15 36 11 21 33 58 73 131 158 182 195 201 205 206 211 212 213 214 213 214 210 213 212 215 218 218 219 217 220 220 218 222 220 220 221 221 218 212 218 219 219 221 219 221 220 221 216 216 217 215 214 215 209 208 196 199 197 198 193 195 188 185 186 181 177 180 178 175 164 167 162 154 156 147 141 129 118 98 81 46 44 19 14 1 6 3 2 0 0 0 0 24 15 37 4 29 32 71 82 121 157 182 201 207 206 204 208 209 211 216 209 214 213 216 217 219 219 217 222 219 222 223 219 222 223 220 221 221 220 221 218 218 219 221 221 219 222 219 220 220 217 219 215 212 209 206 200 203 195 198 194 189 190 186 183 181 180 176 184 167 172 158 157 153 149 142 136 132 129 115 86 74 48 23 19 0 0 3 3 0 0 1 0 28 20 18 16 25 35 39 77 127 168 187 196 199 206 204 210 208 210 216 216 213 217 215 217 218 218 219 219 220 221 224 224 220 217 220 219 221 218 220 219 220 217 221 220 219 219 220 222 220 217 214 217 215 211 207 202 201 200 194 198 196 187 187 184 187 180 184 177 178 173 164 157 155 151 146 141 150 130 111 121 80 41 31 21 11 5 3 1 0 0 0 2 43 14 21 13 35 47 50 90 114 155 179 204 200 206 211 210 212 213 214 214 215 215 217 215 219 217 220 220 222 219 221 222 218 222 222 222 223 220 217 217 221 217 220 219 219 218 221 218 220 220 213 216 215 207 206 200 199 197 200 192 191 187 189 190 186 183 182 176 174 166 162 160 153 150 144 141 139 126 131 108 101 45 44 30 13 7 0 4 0 2 1 0 2 17 17 19 47 44 41 70 122 160 189 196 199 209 206 211 212 214 213 214 215 214 217 216 218 218 217 215 215 219 218 219 220 218 219 215 217 219 215 212 220 222 221 218 223 220 221 222 216 215 213 216 210 206 208 209 200 196 196 194 187 191 192 180 190 190 188 187 173 178 163 164 152 150 147 141 131 142 136 105 115 59 57 22 21 13 1 1 0 2 0 0 6 6 14 22 29 19 35 72 124 177 170 194 202 203 206 210 213 215 214 213 216 217 217 216 217 218 213 218 216 215 216 215 215 213 213 218 216 214 212 220 217 217 222 218 216 219 217 213 217 217 208 214 209 210 204 204 192 199 193 193 194 189 184 196 192 189 185 191 178 172 171 167 153 145 143 138 142 131 122 113 96 97 59 35 10 9 8 0 0 0 9 0 7 6 17 33 20 30 36 75 132 173 186 194 205 204 210 214 216 215 215 213 215 216 216 214 214 216 212 216 213 212 212 214 215 215 214 214 215 216 216 216 216 218 216 219 216 219 219 216 219 211 220 210 211 211 200 200 196 195 197 195 185 188 189 187 176 182 182 167 180 168 176 168 149 151 131 141 131 138 117 118 80 89 70 33 21 13 12 5 0 0 8 0 1 17 5 23 24 22 33 102 149 194 191 205 198 209 208 217 216 214 211 216 213 216 215 215 212 214 216 205 207 209 214 215 213 215 216 220 219 215 207 222 215 217 213 216 211 208 212 213 201 206 201 208 191 185 200 193 196 194 188 181 185 183 182 170 167 176 159 148 162 164 160 147 165 149 128 126 143 122 123 124 91 98 67 35 11 21 0 2 1 7 2 15 0 14 21 22 13 11 31 100 156 190 188 196 197 207 214 216 216 212 216 211 212 216 217 214 210 207 198 199 200 204 202 191 207 214 212 217 212 214 211 213 214 217 213 213 212 211 208 210 200 204 212 198 194 173 184 186 158 154 161 183 157 149 146 148 147 134 150 126 129 140 132 130 145 140 131 134 130 132 115 111 97 100 76 31 21 16 0 3 1 1 3 35 0 7 23 23 18 9 34 118 172 185 194 205 201 211 213 217 212 215 210 215 209 214 203 189 213 177 216 142 201 213 200 181 207 203 208 212 213 213 202 211 212 212 210 214 211 203 203 183 171 202 146 151 137 165 190 142 120 164 99 153 145 112 120 73 102 92 100 127 129 131 132 116 106 110 111 119 128 129 117 117 91 105 92 37 19 11 1 6 4 0 23 9 0 6 15 11 25 12 29 129 173 178 192 192 199 208 210 186 201 199 193 176 174 136 137 134 120 152 117 131 128 135 187 177 188 186 210 209 202 209 209 206 208 206 209 201 203 201 202 195 189 177 126 161 117 123 94 114 120 105 97 73 80 49 80 94 94 76 97 97 75 54 47 55 113 114 115 123 111 123 117 126 98 103 92 43 6 14 2 7 4 7 3 13 3 10 19 17 11 18 41 132 170 189 200 194 203 197 171 169 186 166 157 114 124 116 107 82 88 39 102 177 138 92 196 162 167 188 200 196 204 202 204 204 201 205 198 203 198 194 192 177 186 185 120 166 89 164 60 121 68 79 43 60 47 43 34 33 52 64 48 67 46 40 47 79 49 70 97 121 104 119 124 111 111 102 103 59 17 12 9 12 18 8 2 35 10 13 4 24 8 29 42 141 181 189 200 188 173 171 102 126 123 121 137 88 74 117 58 89 53 67 60 118 77 190 133 152 119 166 179 190 199 195 201 200 199 193 193 195 192 192 187 191 178 139 162 97 159 134 66 118 67 39 64 49 31 66 53 50 47 70 49 74 65 54 66 57 55 58 80 96 118 119 114 122 125 119 112 53 20 13 10 10 20 22 40 81 16 4 1 18 1 40 30 135 182 197 189 172 127 105 145 119 97 137 116 112 70 72 53 103 55 116 106 96 89 90 141 135 139 137 181 179 187 199 182 198 199 197 188 195 190 178 182 169 164 151 131 130 88 93 102 89 91 90 101 127 108 129 110 124 96 102 78 94 93 68 58 79 78 96 74 117 112 123 124 125 120 122 113 69 21 16 18 2 34 74 90 124 19 2 1 5 1 34 29 160 179 196 197 168 123 109 84 91 86 108 130 132 128 116 136 139 156 140 138 145 143 145 126 129 102 152 151 179 187 180 193 191 194 190 188 174 175 176 169 168 153 140 131 111 109 108 112 102 105 129 123 120 137 121 106 104 104 105 108 113 112 93 106 104 91 100 100 112 120 115 118 117 128 127 124 85 32 20 14 1 99 146 130 143 7 53 10 4 10 36 41 150 184 197 195 161 138 90 114 117 129 135 115 130 152 152 157 158 158 156 146 137 137 142 137 132 124 161 144 157 172 175 190 193 181 190 176 174 169 164 161 150 150 133 120 115 101 99 87 49 46 45 62 43 24 10 19 10 22 37 50 51 63 90 97 98 108 97 115 112 133 131 117 130 133 123 125 86 33 18 12 2 139 144 138 138 26 10 7 18 4 27 51 127 182 191 198 184 137 124 145 129 142 135 161 146 153 164 166 169 131 93 79 64 84 52 70 129 136 134 144 146 170 177 182 187 193 200 184 179 166 160 143 140 137 124 103 88 74 46 72 80 90 53 16 24 2 110 4 25 18 28 20 51 80 51 98 96 108 104 111 134 134 126 126 134 135 127 124 91 43 31 12 4 114 146 129 34 80 62 88 25 24 24 50 133 186 192 196 193 172 152 157 145 164 139 154 137 99 84 37 17 15 20 56 8 12 61 106 101 81 86 108 140 154 168 187 192 193 200 199 189 175 153 142 123 113 99 88 70 74 83 92 93 53 115 22 22 4 33 4 35 22 105 70 26 42 57 79 102 116 113 121 143 138 125 136 126 141 127 128 110 65 26 28 10 92 121 50 101 24 71 78 88 63 34 56 117 189 195 193 192 178 160 157 148 140 129 90 93 56 27 75 15 35 6 165 8 36 26 79 100 110 129 93 98 133 163 179 204 207 212 213 197 174 157 146 120 101 81 85 83 93 111 95 57 151 156 77 43 16 8 25 30 27 117 89 66 46 32 76 99 119 127 148 138 138 140 142 133 135 135 127 118 81 42 40 26 98 82 127 125 74 56 69 121 98 34 69 143 191 196 197 196 181 165 155 142 131 90 88 21 31 105 148 15 1 5 12 16 47 51 183 129 78 114 181 137 129 153 191 204 214 216 215 199 195 177 140 123 106 106 85 157 134 101 79 138 145 161 152 33 43 15 28 33 126 107 114 83 92 88 114 131 139 143 152 145 151 142 142 136 128 129 133 127 98 58 43 69 73 151 140 133 126 80 76 106 111 16 67 173 191 197 196 190 189 179 157 141 120 85 33 49 95 100 139 82 209 48 43 25 35 113 156 111 109 76 130 171 153 157 194 209 217 214 215 209 198 173 148 123 123 133 142 168 133 118 96 115 127 96 124 168 157 170 190 158 96 124 131 121 110 113 134 139 148 154 157 157 152 146 143 137 139 133 128 123 107 81 63 73 83 144 146 155 156 119 101 121 112 9 90 163 198 194 200 198 203 200 176 156 142 114 131 134 132 141 125 144 160 148 176 194 174 140 151 161 162 179 192 179 180 171 195 205 215 222 218 206 198 178 150 133 160 147 186 155 194 179 174 157 133 160 128 139 151 102 110 128 138 123 136 125 119 132 144 155 160 159 169 164 157 152 148 146 133 137 140 139 124 92 64 51 69 110 146 148 165 131 117 139 138 47 83 193 196 198 202 201 204 207 200 191 187 190 184 154 158 166 161 179 140 153 136 159 169 175 159 177 165 181 188 189 171 191 199 209 218 221 215 203 190 184 151 140 151 144 172 165 164 160 165 161 165 149 152 153 163 146 135 115 134 131 130 140 135 140 159 160 167 154 164 164 156 147 152 142 135 142 131 135 124 98 62 67 100 122 132 144 164 154 101 171 96 42 115 190 202 200 202 201 206 208 208 206 206 199 188 178 167 167 177 177 170 176 173 168 172 160 181 162 186 196 203 187 201 197 205 212 221 218 215 204 193 175 157 162 173 170 160 163 179 179 184 176 155 144 157 152 154 135 132 129 142 142 141 142 142 153 159 166 168 164 160 160 160 143 148 149 140 128 135 130 119 115 85 89 102 119 143 151 85 163 99 160 159 72 130 197 201 200 202 204 207 205 208 208 207 204 196 191 184 186 193 188 167 156 169 167 170 160 172 192 190 194 201 208 206 202 206 212 219 217 213 204 204 183 157 157 165 170 176 185 174 173 182 195 177 175 168 160 162 157 152 146 148 144 156 172 165 172 168 164 165 168 164 160 150 156 143 148 134 134 134 134 133 106 102 109 124 135 147 166 19 180 128 165 155 93 137 201 197 195 201 203 207 205 209 208 209 207 207 199 189 189 187 188 182 172 170 167 175 200 203 202 192 205 210 214 204 203 204 212 219 217 208 201 196 184 162 157 168 179 183 181 193 191 177 188 182 200 199 189 180 183 179 176 183 175 169 170 180 168 177 178 171 172 166 156 157 146 152 133 124 137 129 129 126 117 87 126 139 151 171 173 5 187 135 176 92 108 146 198 199 197 204 201 206 209 210 208 211 212 210 208 208 202 204 205 204 206 206 210 207 193 205 207 214 215 213 205 206 202 211 209 216 215 206 200 197 186 155 147 168 183 187 179 195 191 199 192 189 191 192 182 191 175 178 193 186 174 180 174 172 181 176 180 180 164 158 162 155 157 149 151 134 130 141 124 120 109 83 135 171 167 178 179 12 195 141 168 137 91 146 203 197 196 202 206 205 208 205 212 213 215 211 210 210 203 206 205 211 212 211 208 198 206 211 211 217 218 216 206 203 205 211 212 223 211 207 202 198 175 168 164 161 181 179 183 179 202 200 193 191 209 208 203 175 182 197 181 174 180 179 182 186 186 181 182 172 168 166 159 154 150 145 133 127 135 136 126 130 110 72 145 160 173 189 201 37 117 159 144 137 99 142 195 202 193 196 200 201 205 205 208 213 212 215 214 215 213 209 207 206 209 202 209 218 217 217 215 215 215 212 204 213 206 212 213 221 218 207 203 195 175 166 160 163 173 166 176 183 196 200 199 199 196 200 193 185 192 196 199 197 196 193 189 188 185 186 179 180 172 162 152 153 143 150 141 127 131 136 123 125 110 75 140 163 177 188 201 30 37 172 105 146 107 132 201 201 196 202 204 204 205 204 204 208 211 214 216 214 214 212 210 213 214 214 209 211 213 217 216 215 217 212 210 212 208 210 218 221 218 211 201 194 185 168 165 175 166 178 178 171 182 200 202 204 201 195 197 209 198 198 200 199 199 194 190 181 188 179 182 174 160 159 162 155 147 143 132 135 126 120 122 128 111 89 130 161 177 175 187 22 6 194 118 167 109 139 193 197 199 205 205 204 207 204 204 206 207 213 212 212 217 217 217 217 213 222 214 215 219 215 216 215 216 206 215 212 213 217 214 216 214 210 202 195 176 176 163 167 172 179 177 178 182 192 203 198 198 197 207 197 205 202 202 203 197 189 192 180 188 193 174 170 163 161 157 158 148 136 136 128 126 124 125 120 108 91 118 155 142 179 175 27 12 177 144 180 156 124 182 195 195 196 199 205 205 207 206 207 208 211 209 213 207 216 218 217 217 219 215 216 213 215 216 211 211 212 214 211 212 211 219 219 214 210 205 196 187 171 168 161 170 178 171 171 174 192 194 193 196 205 205 205 204 205 202 199 195 188 181 178 177 174 173 159 163 161 159 152 147 139 140 129 122 130 125 107 108 80 144 171 153 141 135 10 35 125 149 106 179 111 194 190 195 196 199 203 204 208 207 208 209 210 207 209 211 214 216 217 217 219 216 218 220 212 215 217 212 209 213 206 211 214 220 220 217 207 200 196 188 176 166 159 167 169 174 175 182 192 192 202 205 205 208 207 203 200 199 200 195 192 180 181 180 172 167 165 157 157 157 146 147 138 140 124 114 115 112 102 77 97 174 179 149 132 137 35 41 41 119 169 167 119 165 198 195 194 198 197 201 206 206 205 206 211 211 211 215 212 214 216 217 216 215 217 212 215 214 213 211 208 208 205 208 214 219 220 217 210 204 200 190 178 163 156 152 148 159 171 170 190 189 202 208 195 208 205 206 196 201 192 186 196 172 172 176 168 162 162 165 156 152 145 141 144 128 125 122 126 97 96 81 79 175 179 116 123 174 32 25 21 180 120 167 168 146 192 195 195 193 195 198 198 199 203 205 206 208 209 211 213 213 208 214 211 217 213 207 213 209 204 203 197 202 206 209 215 223 225 221 215 201 194 191 180 161 155 146 155 162 165 172 183 201 195 204 202 204 206 206 198 200 200 187 191 187 169 174 168 166 159 158 152 147 145 143 138 131 122 108 122 91 88 82 81 159 155 127 145 175 21 14 15 163 177 130 145 134 197 192 191 199 199 198 203 199 198 204 206 210 208 211 214 215 219 218 217 216 217 215 214 206 208 202 202 204 205 210 215 222 218 221 215 203 189 195 183 168 150 149 165 156 148 166 185 195 198 204 206 209 209 209 203 204 194 185 190 175 173 171 161 162 152 158 151 146 143 138 135 132 120 114 117 103 74 79 92 155 162 148 156 156 1 15 4 90 171 159 208 92 186 191 191 189 195 203 196 198 199 200 205 207 207 213 211 218 215 217 213 215 214 214 214 210 200 201 210 215 206 213 215 219 225 220 214 206 194 188 184 164 166 163 173 170 146 155 181 186 197 196 199 203 212 195 203 196 192 194 178 174 178 161 165 159 153 153 145 137 146 145 131 123 121 115 115 108 79 73 104 155 163 149 172 148 8 9 0 24 190 184 172 97 178 186 193 190 194 199 194 199 203 206 206 206 210 213 211 214 213 215 211 212 214 213 210 209 203 198 217 218 212 207 213 220 226 221 216 202 187 187 184 158 160 166 178 171 164 138 166 192 196 199 207 202 197 204 199 196 195 188 180 176 165 165 153 163 151 151 146 132 141 134 133 124 115 126 107 96 95 81 110 163 166 161 173 144 2 3 7 5 196 193 166 79 157 177 189 193 193 200 192 197 200 198 206 207 209 215 214 214 214 217 217 215 214 212 201 207 198 215 210 216 213 209 212 215 218 220 222 205 191 188 176 161 161 156 170 169 160 144 171 176 186 193 200 203 202 195 201 197 197 183 194 175 171 159 148 151 153 141 138 138 141 133 124 125 118 115 80 90 77 69 131 152 153 162 160 152 6 0 2 2 179 193 175 113 149 176 186 188 198 194 197 199 187 200 207 207 208 213 213 212 213 216 210 211 212 210 208 201 201 211 212 214 210 205 210 208 210 214 221 206 198 176 176 158 159 145 153 167 161 153 147 177 185 186 192 200 197 197 196 195 194 189 179 173 175 163 161 148 140 141 135 140 141 130 132 126 128 122 99 99 78 80 128 155 166 155 155 146 3 3 1 1 81 189 194 189 117 170 167 186 193 199 198 193 199 201 204 206 206 210 210 212 213 215 213 209 207 210 207 205 206 205 205 210 204 195 203 205 202 209 213 201 195 181 163 156 148 156 142 145 145 132 129 176 196 194 191 189 198 194 200 187 189 182 172 169 161 158 150 149 146 144 143 140 133 135 119 118 115 87 104 97 63 82 101 147 151 148 145 39 0 1 0 0 5 208 202 139 109 153 154 190 192 195 196 194 199 203 199 205 208 212 213 211 210 212 210 211 211 202 199 201 204 198 194 200 194 198 196 204 200 200 197 198 178 163 147 135 128 132 112 117 125 128 140 172 188 171 196 201 195 194 196 193 191 180 176 168 165 155 144 155 140 143 140 132 137 128 125 119 110 109 97 96 74 77 86 104 129 136 68 8 1 1 10 0 2 221 135 182 90 168 144 172 193 196 194 199 194 200 201 205 207 208 210 211 212 211 209 211 208 205 199 206 204 177 154 158 149 190 169 178 201 193 186 173 155 138 112 118 81 42 64 116 122 114 148 186 189 196 187 192 195 197 196 193 181 185 173 172 162 157 149 158 139 151 140 142 131 133 120 112 109 116 95 89 66 49 12 5 46 10 6 13 1 0 8 7 16 135 209 198 117 136 140 167 187 196 201 203 199 201 200 207 206 209 211 212 214 212 209 206 206 200 204 207 210 175 132 121 127 22 184 162 168 175 162 163 144 111 106 20 73 98 126 102 107 98 162 185 191 191 193 190 188 187 195 198 183 182 168 168 171 155 156 142 143 146 136 144 135 126 123 111 125 94 108 86 54 28 1 14 31 11 26 15 6 2 0 37 42 32 202 200 122 123 163 167 171 200 193 199 199 199 204 202 209 207 207 212 209 212 211 208 208 206 212 217 211 207 153 146 156 136 110 156 168 158 154 150 132 88 36 102 113 112 112 103 113 149 170 174 187 197 192 188 188 186 196 185 196 183 178 166 155 156 155 148 147 149 139 146 133 111 115 114 113 94 92 72 68 26 20 0 6 8 6 2 10 4 33 6 4 18 101 178 113 105 139 177 165 188 195 199 199 200 200 208 203 208 210 211 210 214 204 206 207 211 215 217 212 206 205 165 167 175 159 149 142 136 130 130 99 49 104 109 121 131 124 150 150 165 168 182 190 193 188 192 195 200 186 195 184 179 176 161 166 159 161 160 140 153 147 121 133 105 102 96 120 84 58 69 42 22 6 1 1 2 10 11 9 21 7 14 5 8 38 11 71 92 139 156 166 191 195 195 196 205 205 204 205 205 208 210 210 206 207 211 209 212 216 213 211 213 210 205 195 196 184 177 141 131 112 110 80 117 134 138 118 125 132 164 159 149 164 187 186 194 188 193 193 187 187 193 173 183 178 168 163 161 165 155 149 137 144 134 120 116 121 121 107 67 77 45 36 21 3 15 7 10 8 33 18 28 44 32 30 15 21 47 7 85 118 172 173 174 191 200 197 199 202 206 205 209 207 211 210 209 213 210 214 216 218 216 214 208 208 198 203 172 159 151 174 146 109 119 125 152 142 92 90 72 130 139 146 147 170 181 183 183 195 193 195 192 187 183 186 173 176 176 162 171 154 154 141 156 130 135 105 117 106 107 95 55 79 45 23 17 12 5 11 4 9 12 73 29 9 7 18 29 38 33 28 85 113 173 172 179 191 203 194 202 199 206 203 211 205 209 211 212 212 209 216 217 217 216 219 207 203 192 158 165 149 150 153 141 114 117 134 144 87 115 79 60 106 122 120 120 148 175 188 189 178 194 191 193 188 175 191 178 177 164 171 160 164 156 152 147 131 127 106 104 114 103 94 92 71 55 17 0 11 0 17 6 17 14 203 166 28 25 39 0 1 12 53 46 60 148 158 170 178 191 194 200 201 207 205 209 211 211 212 213 213 214 214 217 217 214 210 212 180 123 134 126 138 131 151 133 123 120 150 121 142 107 101 129 65 111 89 159 155 150 173 172 179 203 192 194 186 198 174 173 183 178 170 165 156 152 139 128 143 110 108 103 89 112 68 68 52 49 26 1 6 1 6 10 8 9 135 179 31 14 53 0 8 0 4 13 82 145 169 170 188 185 193 201 203 204 210 207 208 212 214 212 215 213 216 209 205 217 209 177 178 147 133 120 113 142 135 77 106 143 160 142 123 128 98 65 111 70 79 117 107 135 170 153 170 150 155 182 179 177 173 183 176 171 168 169 151 150 149 135 108 116 85 108 86 86 84 69 67 37 12 11 0 5 0 16 6 7 135 96 49 9 33 20 11 0 16 35 58 118 170 152 171 178 192 189 207 203 205 205 208 210 212 214 215 196 199 205 192 183 181 166 151 122 133 141 155 150 126 138 164 192 164 155 164 167 135 88 114 100 60 89 90 149 114 133 170 155 157 164 153 192 180 189 169 171 171 157 149 151 140 136 82 105 100 112 128 95 95 67 54 40 11 1 0 0 0 16 4 19 65 78 21 5 22 15 20 26 18 16 36 59 150 191 185 180 164 197 195 210 205 207 206 213 212 203 183 202 176 201 178 191 153 144 158 164 158 164 176 193 186 166 178 183 182 197 186 179 158 131 130 96 129 121 100 129 132 162 151 152 95 159 172 141 160 166 175 173 173 163 135 152 139 125 116 75 81 57 81 73 70 60 38 39 0 0 0 0 4 8 1 10 106 125 2 14 28 17 31 18 19 7 20 45 147 167 186 176 165 185 199 202 199 204 209 211 201 207 196 185 182 156 151 154 149 156 177 159 191 200 199 193 199 196 208 205 202 203 194 172 134 165 164 132 135 138 127 129 120 122 111 154 145 135 146 123 153 175 161 179 163 162 147 131 148 116 84 89 70 77 67 76 58 45 42 29 0 3 0 14 1 0 9 0 17 20 19 13 40 41 11 26 19 50 18 25 104 139 148 160 172 148 203 187 208 202 205 203 200 191 179 165 174 142 186 135 180 166 182 195 190 173 152 153 165 177 194 210 185 147 127 127 145 145 136 135 146 133 135 143 111 146 151 95 98 118 144 121 127 186 175 168 170 155 154 109 101 111 106 88 94 79 39 97 50 34 46 27 6 6 10 0 0 5 11 31 70 98 14 54 10 56 23 6 21 14 38 42 38 164 164 169 161 165 182 201 210 207 206 205 207 208 160 127 135 179 157 172 170 183 192 165 142 168 171 180 170 155 174 162 155 131 127 132 146 135 129 127 106 119 124 129 98 104 131 96 110 148 108 146 137 136 172 156 171 152 127 121 111 96 76 108 67 64 57 71 40 35 34 21 10 15 6 12 2 0 26 16 128 138 47 75 9 32 19 1 13 20 23 23 51 112 163 163 63 136 148 190 185 202 202 186 179 160 149 165 178 153 128 175 189 174 139 123 140 145 148 163 149 142 141 152 127 102 111 125 119 137 118 114 106 95 95 112 106 107 119 128 115 132 151 111 113 111 163 165 164 148 118 141 101 96 94 74 70 59 65 43 48 39 46 21 1 13 6 2 0 2 0 7 106 107 64 10 26 6 10 19 1 17 18 8 35 64 127 148 170 108 188 183 200 190 193 180 177 134 148 163 147 147 152 151 153 129 113 114 128 99 92 118 124 115 148 136 137 116 69 64 56 53 62 62 60 51 54 48 77 98 111 107 143 126 141 133 114 130 119 151 156 132 145 101 113 82 37 87 73 66 46 39 38 33 47 9 9 15 5 3 23 25 11 6 177 174 89 18 24 28 20 22 11 11 20 57 46 50 120 134 166 137 99 179 176 215 202 189 193 133 151 179 140 129 142 121 120 80 51 88 115 139 146 158 161 148 142 126 117 124 161 162 164 160 159 132 143 142 129 120 108 99 93 97 128 151 139 158 114 135 133 167 145 148 128 80 91 69 60 61 65 53 34 19 44 50 36 0 12 6 8 14 23 31 4 33 73 156 147 37 27 16 25 9 28 8 24 86 9 28 80 137 136 148 124 171 169 191 202 196 159 164 176 158 150 146 116 114 109 130 162 187 196 197 202 197 203 206 198 199 189 180 197 198 192 169 161 165 157 160 141 134 143 158 169 170 160 150 135 127 133 157 94 163 142 123 126 91 76 51 53 65 39 53 40 32 37 41 42 10 14 9 12 35 10 10 3 11 170 175 179 46 26 50 28 41 13 27 15 12 1 25 22 89 120 156 98 137 156 195 199 189 157 171 175 160 171 175 187 176 189 191 183 182 183 180 188 195 196 204 194 199 187 201 204 199 187 185 173 164 149 147 152 148 157 164 176 181 184 185 169 166 130 162 138 146 141 119 106 118 78 80 55 44 38 35 46 34 29 48 61 2 19 21 12 0 4 5 10 16 173 205 158 41 59 29 35 50 13 31 20 2 5 19 35 60 111 71 158 148 118 175 194 194 163 147 177 176 180 191 199 200 201 200 198 192 183 188 189 188 191 188 190 186 194 195 196 189 184 161 142 170 153 148 143 147 157 156 171 186 191 178 175 171 179 145 129 141 149 55 99 82 47 59 51 47 45 39 43 34 49 45 74 1 21 11 18 4 13 21 18 0 212 177 145 21 28 48 37 30 5 36 25 7 9 28 49 37 77 119 136 123 127 173 183 179 182 187 194 185 202 203 200 203 202 203 202 190 188 194 192 193 189 190 187 181 186 185 184 174 164 166 163 171 141 134 147 150 145 169 179 193 189 183 182 174 152 136 151 130 86 105 75 54 50 54 40 52 27 38 31 34 49 65 82 8 7 20 10 19 15 16 14 5 199 172 160 48 53 42 50 26 32 26 27 58 25 63 57 64 37 100 122 108 141 117 137 190 181 189 187 200 210 202 205 200 200 194 197 203 195 193 187 157 163 160 162 158 160 163 172 153 151 141 132 135 141 134 142 143 163 172 184 187 190 177 164 168 165 155 101 135 111 71 64 57 57 54 40 25 19 21 40 45 59 81 98 11 0 1 25 11 24 10 64 118 189 195 124 14 26 29 23 33 18 39 9 94 19 31 91 172 26 63 83 127 81 132 144 162 186 192 198 205 185 205 207 204 203 199 192 186 188 175 185 153 155 138 127 121 127 111 118 127 130 139 139 142 141 148 155 160 180 186 182 175 166 175 177 175 166 162 119 97 107 79 79 71 58 32 24 30 18 40 40 45 70 99 91 12 17 0 14 15 9 15 2 7 202 188 209 115 14 24 30 18 17 9 47 20 30 33 21 38 54 62 85 102 83 80 146 162 179 189 201 201 200 205 207 204 199 201 202 198 194 169 156 150 132 149 130 121 122 111 125 132 132 132 132 142 155 162 166 177 184 176 190 178 172 179 174 183 165 148 139 116 78 81 35 42 40 24 18 23 30 36 36 79 100 110 105 14 0 11 1 9 20 11 19 28 205 188 201 175 17 24 12 15 39 28 26 2 10 83 40 135 66 12 51 90 74 144 114 158 164 187 201 208 203 203 202 204 200 205 197 202 195 198 174 175 165 163 156 148 134 151 131 155 167 143 146 154 168 170 176 175 182 174 178 182 173 164 180 165 141 132 108 125 78 36 57 28 29 34 9 26 18 37 73 98 112 108 105 41 3 0 1 5 1 13 27 22 195 197 191 189 102 67 14 3 31 35 17 15 18 7 23 49 98 85 46 54 69 106 133 134 161 182 194 190 196 204 197 204 206 201 203 201 200 196 195 185 188 186 161 181 171 180 178 183 167 184 173 181 175 188 181 188 184 179 169 185 178 170 146 142 131 97 121 83 55 69 33 34 20 26 11 19 42 82 81 98 119 115 107 56 1 2 1 14 6 5 0 3 148 194 193 186 196 22 32 74 23 16 18 3 8 14 17 66 79 142 48 45 47 77 134 107 157 193 178 192 201 205 202 204 201 205 206 208 202 205 196 199 202 202 193 197 196 192 193 202 195 193 196 187 190 183 190 187 184 178 181 180 178 164 168 149 106 85 116 66 66 54 34 28 17 14 24 41 56 82 103 115 120 116 106 72 3 6 5 7 11 11 3 12 199 154 203 190 192 199 0 31 60 16 28 22 18 9 15 15 8 71 131 69 37 87 97 111 146 144 172 203 200 193 203 214 209 209 209 209 209 207 208 209 209 202 209 201 208 203 205 199 199 196 193 197 198 183 193 195 184 185 177 164 170 160 128 102 105 95 47 65 59 17 40 19 16 17 21 50 85 89 122 124 120 120 108 81 51 0 12 16 15 11 4 7 197 199 167 160 174 165 149 36 33 69 73 35 60 49 101 87 124 84 79 125 101 34 55 112 145 110 169 159 190 195 208 209 211 210 212 212 214 211 211 214 210 210 207 204 211 203 208 204 203 201 203 203 198 192 193 188 184 184 184 177 153 162 107 99 60 42 60 47 24 22 31 20 26 24 65 91 96 95 115 129 129 119 118 90 56 66 8 9 17 16 9 3 198 202 190 192 202 194 186 177 94 116 178 123 93 125 129 131 148 167 158 92 44 97 43 89 109 107 112 152 174 203 207 206 214 214 213 216 215 213 211 211 208 206 203 212 203 203 205 204 207 208 199 201 199 196 190 190 183 192 172 158 156 151 92 86 88 59 45 46 21 25 4 18 15 44 70 109 117 104 127 131 130 115 117 101 56 67 18 16 11 15 8 13 200 197 198 197 201 188 183 175 183 136 145 163 190 186 164 150 167 158 162 169 177 109 62 52 80 112 100 147 194 157 191 200 196 217 215 217 209 215 210 211 216 190 202 192 195 183 186 191 193 192 195 205 196 179 180 186 179 175 176 152 114 116 102 85 68 25 33 20 28 8 20 26 34 71 111 110 121 128 130 134 134 113 118 116 74 65 13 14 18 18 13 9 200 199 193 198 191 193 171 192 170 189 173 166 163 178 177 162 167 174 174 173 160 130 61 43 61 79 97 109 151 169 161 180 187 210 216 212 209 210 206 207 185 201 204 187 207 195 173 184 209 175 182 202 183 176 186 174 158 176 173 126 132 96 65 56 18 32 22 26 12 13 20 15 65 114 108 131 125 138 141 139 127 126 111 124 89 93 5 15 15 15 16 14 200 198 196 194 192 194 193 185 179 181 182 186 183 167 177 174 164 172 168 173 175 163 92 80 49 36 45 101 82 132 153 162 186 180 192 198 185 202 199 195 170 168 206 134 181 181 188 177 183 183 160 174 155 165 155 160 140 153 140 96 105 59 68 43 48 26 21 9 18 13 14 55 65 117 126 109 134 142 143 135 133 119 119 122 98 91 10 14 18 17 12 13 203 198 196 196 196 194 192 191 177 189 183 178 175 181 173 176 173 176 179 169 188 39 171 109 51 47 37 56 70 126 101 123 124 167 171 160 156 150 178 213 155 184 192 176 147 187 142 127 177 154 133 118 176 164 135 118 157 124 143 72 47 74 20 32 19 28 22 10 20 12 38 107 94 76 146 138 136 137 145 142 134 125 117 123 111 74 15 19 16 18 17 14 200 201 200 197 198 194 193 193 184 194 182 179 174 176 180 179 175 179 176 194 19 9 175 175 73 47 48 42 63 107 99 124 76 161 129 165 158 151 168 153 135 206 147 142 140 182 136 168 159 155 121 114 152 96 108 82 79 117 89 92 59 18 34 19 14 16 8 11 23 9 35 91 90 116 150 132 141 146 141 145 132 131 126 120 118 53 18 15 20 16 16 17 203 198 196 197 196 194 190 190 192 182 187 169 185 176 179 175 169 175 188 55 17 1 185 171 128 76 42 31 38 60 84 71 122 97 114 113 117 135 147 123 170 147 167 137 169 148 116 120 143 159 115 109 113 92 96 50 68 55 74 28 29 27 22 28 6 6 9 24 19 59 55 111 132 105 134 147 150 144 134 144 123 125 132 128 117 40 18 21 18 15 17 17 204 203 202 198 198 195 190 193 188 182 176 186 179 179 173 179 172 174 79 11 16 1 188 179 149 152 51 33 32 39 60 61 93 84 110 111 135 110 149 144 143 137 101 133 145 156 107 113 151 129 108 135 97 81 76 66 47 46 49 28 7 13 17 7 14 7 11 10 64 57 100 115 128 146 116 152 145 144 148 140 140 128 122 125 106 30 20 15 18 23 16 17 204 202 202 200 199 197 192 192 189 189 186 183 181 180 177 181 175 119 23 10 20 0 143 172 179 174 159 69 11 38 46 30 92 86 97 85 103 74 122 129 117 122 122 103 127 138 141 106 84 113 84 74 70 73 66 47 55 36 31 24 18 23 13 11 14 7 17 20 61 108 88 113 105 133 156 142 156 140 147 137 141 142 128 129 118 19 20 19 15 20 17 15 204 203 202 197 199 195 194 192 192 187 183 186 181 180 177 179 124 30 19 13 9 1 58 172 193 167 159 120 64 28 32 48 25 34 68 38 71 80 128 88 84 90 86 102 127 136 99 75 92 92 66 47 53 74 46 32 35 44 25 18 17 10 17 8 9 28 21 38 64 75 120 146 122 150 150 143 152 146 142 150 142 138 139 125 122 10 16 15 17 14 20 20 204 200 200 200 200 196 195 194 186 188 184 183 182 173 170 151 21 37 20 12 1 7 4 184 176 158 155 140 75 79 44 51 36 50 27 58 53 58 62 64 65 71 104 95 97 69 77 74 66 55 44 36 59 44 35 25 24 10 11 9 20 10 12 14 19 43 48 42 111 100 137 152 135 159 156 155 147 150 152 140 142 144 135 136 128 14 19 20 18 22 19 17 205 203 199 199 198 193 194 191 190 183 183 180 179 177 191 16 35 19 18 1 2 0 1 200 173 190 138 173 142 81 87 30 38 19 51 17 40 41 57 53 64 53 48 52 39 86 67 49 68 88 47 24 25 27 31 7 17 19 25 19 9 13 22 29 16 44 44 119 98 127 161 166 140 137 147 146 143 151 149 141 149 144 135 140 132 18 17 20 23 19 22 18 204 203 203 197 199 198 196 189 184 188 186 185 183 187 33 38 26 21 6 2 0 0 2 177 179 183 152 173 132 154 91 69 47 27 47 39 30 36 18 41 32 27 21 39 41 24 36 36 19 42 41 27 22 29 19 13 14 11 18 16 24 15 36 39 41 40 90 141 126 156 150 143 157 147 156 146 143 151 150 151 152 153 139 131 120 21 19 19 20 18 17 22 203 204 200 199 200 198 195 189 191 186 184 183 202 53 40 37 32 15 1 4 2 10 2 141 180 183 176 182 173 162 152 128 94 55 43 20 51 31 39 14 25 20 29 32 34 16 37 23 21 50 25 21 26 14 18 18 18 19 22 40 29 29 66 40 39 86 138 138 111 149 144 152 153 153 150 134 153 154 147 156 152 158 149 135 84 21 25 23 24 18 21 20 205 203 202 201 200 199 194 190 189 185 188 185 101 52 39 31 26 3 3 0 2 14 6 93 174 185 196 172 180 164 150 157 138 119 74 70 45 37 38 43 42 38 23 30 20 28 18 40 27 19 17 19 20 18 26 27 24 30 49 54 50 34 38 97 111 120 128 138 136 154 148 137 164 126 151 158 151 155 161 154 158 150 138 138 47 22 21 21 18 22 17 15
