P2
# Generated by OpenCV 4.2.0
92 112
255
47 45 56 96 82 76 54 46 48 43 47 78 75 81 52 40 43 71 70 49 56 56 40 39 56 60 55 59 73 89 104 133 138 134 138 148 146 162 163 157 153 151 126 126 122 148 189 193 188 195 223 213 211 214 207 205 195 199 185 186 182 189 174 170 159 136 146 130 136 139 125 120 115 119 100 103 104 78 94 99 98 113 100 118 84 89 76 72 59 80 70 112 61 74 91 79 76 79 46 37 31 54 78 80 56 74 33 41 28 55 76 44 48 73 27 31 42 56 62 72 88 114 143 155 147 146 156 159 151 148 150 160 151 144 140 136 137 144 168 181 201 214 229 229 222 223 226 221 208 214 208 198 204 201 191 187 166 177 154 152 169 162 152 134 132 118 111 108 86 97 93 103 96 90 95 84 87 53 55 50 63 76 73 89 75 75 43 35 93 67 55 35 25 62 58 48 55 56 41 44 40 51 73 40 52 66 52 51 73 107 123 132 140 143 159 178 183 178 180 179 170 164 154 157 159 154 161 149 139 159 174 179 196 219 234 238 232 232 230 232 222 226 226 212 221 212 206 193 181 188 165 175 179 165 156 147 141 130 126 117 118 108 107 119 102 105 77 68 100 59 54 59 55 63 65 76 58 36 19 76 72 35 101 49 25 49 27 29 56 50 55 57 55 57 52 54 42 51 70 95 126 143 150 155 152 168 182 195 209 206 208 213 203 193 174 165 165 154 166 163 170 158 173 201 213 228 236 237 236 238 234 234 230 232 232 230 230 220 219 206 203 187 186 188 170 166 160 155 157 147 132 135 138 113 125 108 124 103 67 86 79 82 76 68 66 33 77 62 33 26 50 70 30 28 75 60 33 31 32 26 35 37 44 49 70 70 60 39 59 71 92 114 139 153 163 172 175 188 203 212 217 221 222 223 227 223 214 207 205 198 180 171 181 188 191 203 220 236 238 237 238 239 238 237 236 238 233 233 231 228 224 220 210 202 195 195 185 171 167 168 162 155 150 148 139 126 118 111 107 101 95 83 76 88 76 68 60 62 64 43 16 34 70 39 21 58 41 39 31 35 37 21 30 44 44 64 76 73 74 39 85 111 130 150 175 184 190 201 207 213 223 224 225 230 232 231 228 226 223 216 216 217 205 189 185 192 216 218 226 235 239 236 237 239 238 238 238 238 236 234 233 231 227 225 220 212 203 199 193 187 185 177 171 166 153 145 140 128 108 94 103 85 95 68 81 74 70 67 74 74 69 65 24 33 37 33 42 100 44 34 32 29 29 20 38 50 74 73 81 81 89 48 115 146 157 172 185 190 206 218 219 225 230 231 231 234 237 235 234 234 234 232 224 224 221 208 200 206 211 224 235 233 233 237 235 237 237 237 237 237 237 235 233 232 227 226 223 216 208 202 194 191 190 184 180 179 167 161 163 139 115 119 118 90 77 75 68 72 74 75 60 64 71 62 27 30 31 24 76 80 41 31 24 23 24 23 39 66 80 84 92 107 109 56 133 162 171 181 190 201 212 220 227 228 232 233 233 233 236 236 236 234 232 232 232 228 227 224 219 217 222 228 232 233 232 232 236 236 236 235 235 236 235 233 233 231 227 224 223 220 216 211 206 200 195 191 189 189 179 172 165 157 136 108 120 115 88 78 59 60 63 66 53 61 65 68 36 32 15 48 82 79 29 25 31 23 27 28 43 72 75 90 110 114 129 72 164 177 178 191 208 212 220 227 225 228 232 236 236 237 237 236 236 235 235 235 236 234 231 229 228 226 215 225 232 233 233 235 235 235 235 233 233 234 231 229 230 231 226 224 224 220 218 213 209 205 203 199 194 191 184 172 176 159 140 132 99 116 101 81 69 60 61 76 68 60 72 86 53 28 22 70 70 52 22 24 22 26 21 24 45 52 72 93 131 113 140 87 181 184 187 199 204 216 221 223 226 227 231 234 232 233 234 237 236 235 235 235 232 234 234 233 232 230 232 232 232 233 233 232 233 233 233 232 232 232 230 227 228 228 226 223 223 219 217 215 211 210 208 204 200 198 191 179 169 161 149 120 120 97 85 85 73 64 64 67 63 66 65 77 32 19 50 66 56 31 22 21 19 18 20 35 41 60 76 111 119 118 132 131 190 187 193 201 209 218 222 224 225 228 231 233 230 227 232 236 236 236 236 234 235 235 234 232 233 233 233 233 231 230 231 233 233 232 231 231 231 231 231 229 227 228 226 223 221 218 219 213 208 208 209 208 203 200 196 186 179 167 160 130 117 108 96 83 74 66 62 54 51 66 67 54 26 25 104 67 52 25 19 18 19 19 24 28 49 70 77 109 98 147 117 176 194 197 195 202 208 217 221 221 223 224 228 231 233 233 234 236 235 235 235 236 235 234 231 231 232 233 232 232 231 232 231 232 230 231 230 229 229 229 228 228 226 227 225 221 220 218 217 214 208 207 208 210 207 203 198 192 179 174 162 131 120 115 95 74 61 65 61 62 58 68 59 40 20 52 84 68 37 20 20 15 15 15 19 41 52 69 79 112 141 126 126 195 194 197 197 200 207 215 219 221 222 225 228 230 231 232 234 233 233 233 234 234 233 232 231 231 231 230 233 232 231 231 230 231 229 230 230 230 230 231 228 228 225 225 223 219 217 216 215 212 209 208 207 206 205 204 195 190 179 180 169 145 124 116 105 87 58 59 56 50 67 55 55 78 24 72 60 50 28 28 31 19 20 24 34 53 62 74 112 144 118 113 163 192 197 199 202 205 209 212 214 216 219 222 225 226 227 229 231 232 232 232 232 233 232 232 232 232 231 229 232 232 230 229 229 229 227 228 228 229 229 229 228 227 223 222 220 217 213 212 210 209 206 209 210 206 207 207 196 190 184 183 175 163 134 108 96 96 74 54 59 63 60 71 69 50 33 54 53 25 22 41 52 41 41 36 38 50 58 102 134 118 115 156 187 192 200 202 199 207 210 211 210 211 214 216 221 224 228 231 231 231 231 231 231 229 230 230 230 230 230 231 229 229 228 226 227 227 228 228 226 225 223 223 224 224 222 220 220 216 211 208 205 204 205 209 210 209 209 208 201 195 192 184 168 156 140 121 95 93 92 60 47 54 48 38 42 40 44 54 49 23 23 21 34 36 40 44 46 60 84 101 117 137 158 175 191 202 199 199 197 205 208 207 209 212 217 219 222 224 227 230 231 231 230 231 231 230 229 228 228 228 231 231 230 229 228 228 228 226 228 228 228 227 225 224 226 225 221 218 215 213 211 205 202 202 206 209 210 211 211 208 204 198 192 182 170 150 130 114 95 80 87 69 47 52 42 47 47 48 61 51 21 35 30 21 26 24 19 29 33 49 74 103 135 151 166 185 196 200 199 199 200 204 208 207 207 209 212 216 220 224 226 228 230 231 230 232 232 232 230 230 230 229 229 229 229 228 226 227 229 227 227 227 227 228 227 227 224 221 220 218 214 210 208 203 201 205 209 210 210 211 212 208 205 202 194 180 169 151 129 111 94 77 75 64 48 52 44 33 33 39 46 32 16 25 23 18 18 18 17 22 32 61 79 103 137 162 184 191 199 199 194 199 206 209 210 212 209 206 208 215 219 223 225 227 229 231 229 230 230 230 232 232 231 230 229 229 226 226 224 223 225 226 228 227 226 227 228 227 222 220 222 221 217 212 210 205 202 204 207 209 211 213 213 211 208 202 199 189 171 149 132 113 86 71 65 62 44 44 50 31 29 30 24 22 19 23 20 22 16 17 23 30 42 59 79 113 155 172 184 191 197 195 193 201 209 212 210 209 209 209 210 214 216 217 220 224 227 229 230 232 232 232 231 230 231 229 229 228 225 226 225 224 226 228 228 228 228 228 227 227 223 223 222 219 217 213 211 210 210 211 213 215 216 216 214 212 209 201 198 189 173 150 130 101 85 76 65 70 49 37 47 36 34 31 22 42 28 23 19 19 16 20 29 32 42 66 95 125 159 176 190 193 197 196 197 205 211 209 209 209 210 209 209 212 217 221 223 224 227 230 232 233 233 233 234 233 231 229 226 225 226 225 225 223 221 221 226 228 229 228 227 224 224 224 221 216 213 214 211 212 213 215 216 217 218 218 214 212 207 201 197 189 176 154 132 122 102 78 62 67 57 45 32 28 35 41 70 79 31 28 16 15 21 23 30 36 48 64 99 129 162 182 195 197 196 195 201 210 213 209 211 212 213 215 216 219 222 224 227 228 229 230 233 234 233 233 235 234 233 230 228 227 227 224 224 224 222 223 228 229 227 227 227 227 226 224 222 219 216 216 215 212 212 213 216 217 218 216 214 211 208 202 200 194 180 159 140 109 82 58 59 60 68 60 37 24 29 33 53 93 34 22 17 16 27 24 26 34 46 71 104 139 166 181 197 196 195 196 203 209 212 214 215 217 218 220 221 221 223 224 226 228 229 230 233 233 233 234 232 233 231 231 229 228 226 225 226 227 227 229 229 227 225 226 228 228 224 224 222 221 220 217 215 213 214 216 217 218 218 214 213 211 205 202 199 192 179 161 136 106 83 69 60 52 54 60 50 28 22 26 27 67 21 24 20 25 18 21 24 34 47 71 107 142 169 182 191 191 196 200 205 211 214 214 217 219 219 221 220 223 224 224 226 227 229 229 230 231 232 232 231 231 230 229 230 227 225 226 227 228 229 230 230 228 225 226 227 228 225 225 223 221 220 219 217 216 218 218 219 218 216 212 211 210 207 203 199 191 180 170 149 130 113 90 60 52 51 44 44 41 24 27 56 46 25 24 26 26 21 28 21 39 50 76 108 141 170 182 188 187 195 202 207 211 215 217 218 219 220 220 221 221 222 224 225 227 230 231 230 232 233 232 232 232 230 230 231 229 226 227 228 230 231 231 232 232 230 230 229 229 229 228 225 224 224 220 217 216 216 216 216 214 213 213 212 210 205 201 197 191 180 169 149 126 100 73 58 61 58 52 43 46 29 29 59 42 38 41 30 21 28 31 36 42 58 81 113 145 169 180 187 186 193 203 208 209 211 218 218 217 218 220 221 223 224 227 228 230 231 230 231 231 232 232 231 231 231 229 230 229 229 230 230 231 231 232 232 233 232 233 230 229 229 228 226 224 223 221 220 219 219 218 215 212 212 214 213 208 200 195 191 190 180 165 143 123 96 68 52 47 50 55 44 33 32 29 54 39 34 24 21 23 19 33 66 47 53 71 109 144 169 176 182 187 193 203 210 211 211 220 221 220 222 223 225 226 226 226 225 228 230 232 233 232 231 232 231 232 232 230 231 230 231 232 231 231 231 231 233 234 233 232 230 230 229 228 227 225 223 222 222 220 220 218 215 214 215 213 210 206 204 199 192 188 177 164 148 126 96 67 59 48 48 54 53 33 34 28 36 26 21 37 24 41 28 39 42 61 55 81 116 148 168 173 177 191 198 206 211 215 217 219 222 222 224 225 226 226 224 222 223 227 231 231 231 231 232 231 230 231 231 229 229 229 230 230 231 231 232 233 233 233 233 233 232 231 229 229 227 226 224 222 218 219 218 219 218 216 215 215 209 205 203 198 191 186 175 162 148 120 105 75 56 46 48 51 42 29 28 25 25 23 37 39 25 51 36 35 35 49 64 86 114 146 160 173 178 192 202 207 213 216 219 219 222 222 225 226 223 221 224 224 224 227 229 230 230 230 230 230 228 230 229 229 226 226 229 231 229 229 229 233 231 233 232 232 231 229 229 227 227 226 223 221 220 219 219 219 220 218 217 214 210 210 203 196 188 183 177 165 150 128 107 77 64 55 50 52 42 26 24 26 21 30 37 27 17 47 49 31 42 37 56 87 123 148 158 169 178 191 203 210 216 218 221 222 222 224 227 226 224 224 220 218 221 222 225 227 229 228 228 227 226 228 228 226 225 224 225 228 229 228 229 231 231 231 230 228 227 228 226 226 226 222 217 217 218 218 220 221 221 221 218 215 211 207 202 194 189 184 179 174 159 135 111 84 59 54 54 50 40 23 21 24 32 43 31 22 21 53 46 35 50 49 53 85 133 149 154 163 177 192 205 213 219 220 225 223 224 226 228 227 224 223 217 215 218 221 223 224 226 226 223 221 221 224 224 222 222 222 225 227 228 227 226 228 228 227 226 226 226 226 224 224 223 219 215 216 215 215 219 221 221 221 220 218 216 207 203 197 192 184 177 177 162 139 114 87 53 48 54 46 34 18 19 23 63 41 30 19 23 53 36 42 49 68 58 77 137 148 153 163 176 196 209 217 223 223 225 225 225 227 228 228 222 220 219 215 215 217 217 217 221 223 222 222 220 220 221 220 221 222 224 225 225 225 226 226 223 221 222 225 224 221 223 219 219 215 214 214 215 216 220 222 221 219 219 219 216 214 207 204 195 186 178 174 165 144 117 94 57 48 52 49 30 15 20 21 46 30 20 23 40 41 45 46 52 80 69 59 134 144 155 163 177 202 213 219 224 223 226 224 226 224 226 228 225 225 225 220 213 213 215 217 218 219 219 218 219 219 218 218 218 219 219 220 221 220 221 222 220 219 219 220 219 219 218 215 215 215 214 214 216 219 221 219 217 215 214 211 210 214 211 206 195 187 177 172 167 146 122 98 62 43 49 54 35 19 23 21 18 29 34 41 45 41 36 44 64 92 77 48 136 148 160 169 185 203 213 219 222 220 222 224 226 223 224 226 226 224 224 218 211 207 205 205 207 209 211 213 216 217 216 214 214 215 217 218 217 216 214 211 210 213 211 210 213 216 201 204 207 207 208 210 212 217 216 212 210 209 201 194 197 201 206 200 198 191 178 174 167 149 130 103 66 40 49 55 38 24 24 23 56 41 27 23 32 30 28 36 67 87 77 47 139 154 164 175 185 206 213 217 206 203 211 204 212 215 219 219 217 214 217 209 196 181 185 192 198 194 205 208 214 211 212 213 210 209 216 214 215 217 209 205 204 204 202 193 193 184 177 182 194 184 187 187 190 192 191 183 173 176 169 161 167 166 177 187 191 193 189 177 167 154 129 109 64 40 45 52 41 33 32 33 32 27 26 31 30 34 33 36 69 90 62 64 140 151 160 176 189 195 196 191 176 163 156 151 163 169 181 178 183 170 169 162 149 146 153 155 179 183 195 201 208 206 207 209 210 209 208 210 204 205 203 199 195 196 190 172 157 149 147 149 145 131 129 133 133 124 125 127 126 125 126 139 143 135 141 156 170 181 185 181 170 159 136 113 63 41 44 51 31 27 26 27 28 34 25 29 36 34 30 35 67 83 47 90 137 151 162 175 171 151 142 134 125 122 128 122 119 116 117 120 112 109 103 106 111 112 128 118 147 166 176 184 193 194 197 203 204 203 201 202 195 195 195 193 185 184 177 162 132 116 104 106 109 97 84 89 85 86 90 88 86 99 111 113 107 114 128 138 148 166 181 181 174 163 145 117 66 44 40 33 24 20 24 29 34 30 29 37 29 24 24 35 62 67 55 100 140 163 167 165 153 134 119 112 98 95 109 109 98 84 82 75 75 77 79 72 78 81 94 98 121 130 150 175 176 178 186 194 196 195 197 193 188 187 179 179 178 175 162 148 114 104 80 78 77 78 70 65 60 63 69 69 71 79 90 98 95 99 100 112 121 147 175 176 168 165 152 125 69 45 34 33 23 21 30 32 29 31 20 19 18 24 29 34 44 47 65 121 139 162 162 149 125 116 107 104 95 86 89 94 96 87 73 77 69 70 71 68 80 79 84 84 100 124 128 151 160 169 178 184 189 191 188 182 178 180 172 170 170 165 145 126 102 106 81 82 73 71 68 57 62 68 76 82 79 83 93 97 92 92 92 91 102 133 164 174 171 168 156 132 76 48 37 40 24 26 30 28 24 22 19 23 22 21 30 28 34 45 83 126 137 157 152 139 123 106 99 94 101 100 90 101 103 104 108 107 103 105 108 102 104 104 113 108 102 114 105 136 149 159 167 171 179 184 185 182 169 168 164 156 157 152 135 126 108 115 104 94 89 75 83 92 105 114 112 113 112 111 110 108 105 100 95 98 119 141 156 172 172 169 158 135 80 53 45 33 22 20 29 31 26 23 19 20 20 24 30 29 47 67 108 125 136 155 151 132 123 116 112 108 107 106 107 117 112 117 120 116 120 112 110 104 106 107 108 112 122 116 122 132 145 154 162 170 174 179 178 176 164 157 157 151 147 144 129 123 112 105 103 87 87 82 90 89 90 87 87 88 90 98 103 106 114 115 114 120 125 135 155 166 172 170 163 142 82 56 46 40 15 23 25 46 32 22 25 15 19 23 29 39 42 85 115 127 138 154 151 137 130 124 120 114 116 117 111 106 97 92 86 70 65 61 63 73 79 80 77 82 92 104 111 123 132 144 155 162 169 174 177 174 167 160 152 144 140 131 120 112 98 92 77 77 86 95 73 62 48 40 46 60 74 87 87 82 95 110 116 118 122 135 153 161 169 170 164 147 95 66 47 30 77 85 101 122 49 35 23 22 28 23 36 45 47 95 115 136 146 152 148 137 129 124 116 117 117 102 84 80 79 66 50 48 26 29 30 26 63 93 107 103 80 79 90 109 125 137 145 155 167 172 181 178 174 164 148 142 134 123 113 96 84 86 100 114 107 66 28 22 28 26 20 30 56 49 75 90 75 85 107 114 119 134 151 155 168 171 169 151 103 68 49 22 101 151 145 160 29 41 29 24 22 17 34 41 64 99 123 144 152 152 147 139 126 117 108 105 94 83 85 78 51 52 42 33 28 46 53 36 51 101 91 106 121 118 89 89 101 117 137 151 169 182 195 191 186 169 150 143 132 117 100 95 103 117 115 93 88 46 44 40 55 44 65 49 108 91 50 56 85 89 97 105 113 127 144 152 168 176 174 158 105 66 51 30 75 120 138 112 63 40 27 20 24 24 31 44 74 100 129 154 160 158 157 149 130 114 105 101 95 83 71 46 74 110 58 42 36 34 33 43 56 165 145 96 99 129 141 114 94 104 130 155 178 199 213 208 201 183 158 138 126 111 101 121 130 125 102 107 150 89 49 34 27 39 50 53 134 131 76 47 61 82 98 106 119 131 144 156 170 178 177 166 120 67 49 50 78 85 69 65 94 31 24 28 32 29 25 51 78 106 138 162 168 166 165 158 137 119 121 107 87 66 46 57 93 120 71 43 41 35 37 42 91 170 176 129 95 92 139 139 116 105 123 164 194 213 224 222 215 198 167 133 125 118 125 157 145 104 95 146 171 111 59 45 43 51 40 82 139 114 95 91 79 78 99 113 131 140 149 161 170 183 180 177 140 76 50 69 97 93 81 104 99 33 32 24 38 27 30 57 91 115 146 164 171 173 174 171 161 142 130 113 97 95 104 105 99 107 106 90 79 84 91 89 109 120 109 109 117 114 126 148 133 112 131 172 202 221 228 229 225 208 177 135 129 131 144 154 136 114 113 104 110 107 103 100 103 91 99 105 113 117 117 118 119 115 119 127 142 156 163 169 175 182 183 179 155 81 64 77 102 121 111 124 77 45 33 31 33 29 36 65 96 120 147 169 173 179 182 181 177 161 148 141 139 135 134 121 127 124 107 113 134 137 139 129 122 122 124 128 143 148 150 144 128 119 145 185 211 226 233 232 226 215 188 140 135 137 147 156 153 153 139 125 129 125 115 123 117 115 101 117 104 123 128 135 142 141 145 147 158 170 175 178 178 185 188 183 164 98 82 96 125 138 124 127 66 60 41 53 39 33 45 77 103 125 153 174 174 182 187 187 188 178 167 164 162 157 151 143 130 131 130 121 118 128 132 131 139 127 132 131 135 137 142 130 128 136 164 198 219 229 233 233 226 219 197 150 135 136 138 151 152 141 142 135 123 125 116 128 125 127 116 126 126 126 131 136 145 153 159 164 172 182 183 180 180 186 189 187 175 114 90 109 139 154 135 134 63 58 47 65 40 33 53 86 108 134 161 177 180 186 190 191 191 185 182 179 172 164 157 149 143 136 135 133 131 133 138 139 139 139 139 134 142 140 136 139 151 164 184 207 221 229 231 233 228 220 205 167 146 145 142 142 144 147 142 137 126 134 129 135 132 126 127 130 136 131 137 146 156 166 173 178 183 189 186 182 184 186 189 187 186 133 95 103 148 155 142 143 52 52 75 76 40 41 61 87 112 138 162 178 182 186 190 193 190 189 187 184 180 175 167 155 148 146 145 141 136 132 140 142 150 154 147 153 155 146 153 164 171 185 192 206 222 230 233 234 230 222 208 179 165 156 149 145 142 150 148 156 148 140 145 145 141 139 135 137 136 143 149 161 167 175 181 184 185 187 188 185 184 186 190 187 191 147 107 120 142 156 149 151 50 45 80 78 41 44 66 92 119 146 167 177 184 188 191 193 191 192 192 193 193 186 179 173 165 163 159 157 159 162 168 170 166 164 163 154 158 167 173 179 188 198 200 208 221 230 234 232 229 223 207 182 175 177 167 156 151 150 156 158 158 160 167 159 156 159 153 159 155 160 167 173 176 181 186 188 186 186 189 188 185 186 188 186 190 152 117 122 152 172 148 159 52 40 63 84 56 48 73 98 122 144 161 175 183 190 192 192 195 196 198 202 200 197 191 190 187 183 181 184 183 179 179 175 171 170 170 169 176 184 185 187 197 201 206 213 222 232 236 234 231 225 211 191 184 187 184 174 167 166 162 165 165 164 162 161 161 163 170 172 174 176 178 180 185 190 190 191 189 189 188 185 184 188 185 184 189 155 121 142 164 174 154 161 42 39 59 85 40 47 73 95 129 148 164 172 180 187 189 192 195 200 205 202 206 206 198 196 189 184 183 179 177 178 176 171 176 184 185 185 190 193 194 195 206 206 210 217 224 232 236 236 233 226 213 198 190 192 193 185 180 179 181 175 172 169 164 161 163 166 172 176 177 180 184 185 192 196 194 198 194 191 191 189 186 186 185 184 192 164 129 156 167 186 149 162 32 37 52 98 45 51 68 87 130 148 166 173 179 186 189 192 194 198 200 202 206 207 206 201 197 193 188 182 177 176 182 186 191 194 196 195 195 197 198 204 213 211 213 220 227 233 236 237 233 224 213 202 197 192 191 188 184 186 192 188 183 183 182 177 172 174 177 177 177 181 187 191 195 197 199 199 193 190 189 187 186 185 185 183 188 160 124 164 183 180 158 158 31 27 43 96 51 56 64 90 129 146 159 174 179 185 190 193 197 197 193 202 205 206 209 202 202 198 196 192 191 190 192 198 198 199 202 201 202 203 201 207 215 214 215 221 228 234 239 239 235 226 215 206 199 193 195 192 185 185 192 196 193 191 190 186 180 183 187 188 189 192 194 197 195 197 202 199 194 191 185 182 182 182 184 183 185 151 119 186 209 169 163 147 22 28 61 87 60 69 65 96 125 148 164 172 176 182 189 194 197 197 196 200 202 203 205 205 203 204 206 203 200 202 202 202 202 203 203 200 202 204 202 208 217 216 218 222 228 235 240 240 236 229 218 209 199 195 198 193 185 186 193 198 196 196 195 195 196 195 197 198 203 204 203 202 201 200 200 200 193 188 185 180 180 180 182 183 177 139 117 175 195 169 169 140 36 26 53 35 60 74 69 94 121 146 163 171 176 182 187 192 198 198 199 200 202 200 199 200 199 202 205 206 203 203 204 204 207 207 204 203 202 202 205 209 214 216 220 224 229 235 242 242 237 231 220 212 204 195 197 192 186 191 193 198 196 197 202 203 204 206 207 204 202 203 204 204 202 204 197 193 189 186 181 178 177 179 180 180 170 137 114 167 181 156 172 88 40 24 40 35 64 54 79 92 121 141 163 170 174 179 181 186 193 197 198 198 197 197 197 199 200 205 206 206 206 207 207 208 208 206 205 209 208 204 204 208 207 213 220 224 231 236 240 240 235 230 226 218 205 198 193 185 184 193 199 199 201 201 203 204 203 205 205 204 204 202 200 199 201 202 196 190 187 187 182 176 175 177 175 176 166 135 130 177 176 153 166 71 32 22 32 37 74 56 73 87 117 137 156 166 172 175 177 183 191 196 197 197 194 197 199 197 200 203 206 206 207 207 207 209 205 203 208 209 208 201 196 199 204 209 218 223 228 234 240 238 234 230 223 216 207 197 182 178 185 192 195 191 197 202 201 204 207 208 208 206 203 203 197 194 197 194 191 188 186 183 178 173 174 173 175 169 155 127 148 171 153 181 143 57 43 34 33 45 102 80 56 81 115 133 147 162 170 173 174 181 187 190 189 189 193 196 199 201 204 206 207 207 208 212 209 207 207 209 211 207 199 192 189 192 197 204 214 221 226 232 237 235 232 227 222 217 208 194 177 175 175 186 192 196 200 206 208 208 208 208 209 208 204 204 201 193 190 190 184 184 182 178 173 169 171 169 175 165 137 118 149 159 156 181 89 83 63 39 28 50 110 74 64 81 113 129 148 159 169 172 173 176 177 183 183 184 190 195 199 203 205 205 210 213 213 215 214 211 214 213 207 203 192 182 186 199 203 205 214 222 226 232 234 232 230 225 219 217 206 197 187 178 163 178 189 200 201 203 208 208 209 207 208 206 202 202 202 194 187 189 183 177 174 173 172 169 167 171 169 164 134 109 146 151 166 161 82 142 70 42 41 46 110 86 65 78 101 125 141 155 166 173 177 178 174 179 181 184 187 193 197 200 204 203 210 217 216 213 209 211 214 212 205 194 177 179 206 218 218 213 215 224 225 228 233 229 227 222 215 211 203 200 202 200 171 169 188 201 207 205 207 211 212 209 206 204 202 199 196 192 188 183 180 176 170 166 167 168 167 166 166 150 129 104 137 174 183 144 70 85 62 39 33 53 115 99 65 70 84 115 134 152 165 171 175 178 180 178 182 183 184 189 193 200 209 209 210 212 215 211 208 212 211 207 205 189 170 192 222 224 222 211 213 224 225 225 226 224 223 220 212 207 201 201 203 213 199 169 180 196 203 203 205 208 208 211 207 206 204 197 190 185 182 178 172 171 167 165 166 165 166 162 155 138 120 99 131 183 180 114 116 63 49 45 26 54 127 101 80 60 81 114 132 148 164 171 177 177 177 178 179 181 183 189 193 203 207 211 210 210 212 209 211 212 208 200 199 185 178 211 222 221 217 216 218 217 216 220 226 227 222 218 213 201 197 199 206 209 206 186 178 192 198 202 207 207 209 208 203 202 202 197 192 188 179 173 168 167 166 163 165 165 167 162 154 123 116 92 142 191 175 119 163 126 51 39 43 48 91 114 70 64 88 100 131 148 162 167 175 178 176 178 179 181 186 192 196 199 203 208 211 212 211 208 207 206 207 205 196 184 187 214 215 214 212 206 209 210 207 207 219 222 218 215 209 195 187 195 197 198 201 187 176 186 193 199 205 204 203 201 200 200 198 194 191 186 178 172 168 166 164 163 162 163 165 163 153 127 105 97 158 195 160 71 101 118 41 28 78 106 48 108 80 64 75 104 119 142 158 165 173 178 180 174 175 181 187 190 194 199 204 207 207 206 207 211 206 199 199 198 190 190 190 203 202 203 200 193 194 195 191 193 199 199 201 199 188 175 171 172 179 179 177 184 176 188 191 196 200 200 201 201 205 202 197 194 191 185 176 170 165 163 163 162 161 160 161 159 133 121 104 124 165 189 151 52 51 65 36 30 39 105 83 57 78 64 66 110 121 133 155 164 173 178 178 171 175 182 186 188 193 197 203 205 203 203 207 209 207 202 198 193 190 189 181 182 165 163 163 167 171 168 164 172 178 174 177 172 156 146 147 146 138 139 146 161 181 193 195 195 197 199 202 202 201 197 191 190 187 182 175 171 167 163 163 163 158 157 157 155 133 108 100 125 160 179 123 36 61 50 35 34 45 46 93 47 56 63 67 97 115 131 149 159 171 176 177 175 177 184 186 189 196 197 201 202 203 205 207 204 205 205 200 198 197 202 178 150 131 116 91 84 120 154 142 148 150 152 150 144 136 129 102 82 93 115 122 149 190 199 199 198 201 202 202 205 198 196 191 184 182 179 172 167 167 164 165 163 156 155 155 144 125 104 88 119 156 157 88 65 48 51 30 38 47 105 54 74 43 55 59 86 105 126 142 154 170 174 177 180 183 187 189 191 194 199 200 200 201 202 203 204 204 203 203 203 202 209 196 147 117 116 118 83 54 103 144 131 137 135 132 131 127 75 61 85 104 108 111 170 202 207 207 202 198 199 199 197 194 193 188 181 180 175 174 173 171 167 169 160 159 152 149 142 114 93 79 111 130 84 43 44 53 76 39 39 27 55 85 42 49 48 65 76 104 117 140 148 168 173 181 186 185 184 185 190 194 198 199 198 198 202 203 201 203 202 203 209 216 213 207 177 124 120 128 129 117 83 104 127 128 127 126 116 84 95 132 137 115 113 142 191 203 205 207 203 198 195 194 195 192 191 187 183 181 179 177 173 172 170 167 162 160 154 144 123 112 90 69 76 49 34 30 37 35 40 37 31 24 22 48 44 28 49 47 74 107 122 138 149 163 171 179 181 182 188 191 196 199 197 198 197 197 203 203 201 203 202 205 213 216 219 210 199 169 132 128 137 134 136 101 108 112 110 102 88 112 133 131 122 118 144 178 193 203 206 209 207 202 199 196 193 193 194 189 184 183 180 177 174 172 169 163 161 155 152 135 122 108 85 60 49 22 20 20 22 29 28 39 22 22 32 21 27 22 48 51 86 108 124 124 148 153 168 175 180 184 192 195 195 197 198 196 197 200 201 202 204 205 208 212 213 215 216 205 199 183 164 152 142 138 139 133 107 88 85 99 135 146 129 116 131 139 162 182 196 204 209 211 210 206 202 197 191 190 190 187 185 185 180 177 177 172 170 161 162 150 146 128 106 105 76 41 31 14 21 20 19 26 30 22 27 31 20 27 23 33 38 35 76 91 110 117 142 149 168 176 180 183 187 191 195 198 198 196 198 200 198 199 205 208 213 218 218 219 216 205 195 182 166 150 122 132 135 149 140 123 123 141 145 122 108 99 124 127 156 177 194 204 209 211 212 208 202 196 196 192 187 187 187 184 181 181 181 174 171 163 158 144 141 127 106 96 76 47 22 20 20 29 27 26 39 25 27 33 20 29 30 34 29 35 59 77 95 122 133 146 159 168 178 182 185 189 194 197 199 199 198 199 198 199 204 209 214 219 221 222 217 208 187 164 149 125 120 125 121 141 146 130 137 126 145 103 89 94 99 106 140 155 176 201 212 214 213 214 207 200 193 196 193 187 181 180 182 184 181 172 167 161 149 136 130 123 106 91 75 58 26 16 21 32 30 39 49 27 29 26 28 32 39 41 25 38 52 67 82 125 130 136 153 165 175 182 186 190 195 197 198 198 198 204 206 203 211 215 217 221 221 221 217 200 169 148 131 130 115 113 119 130 109 128 119 106 117 114 81 96 104 99 116 134 154 186 202 209 211 211 208 204 194 194 188 187 182 177 184 182 174 173 164 155 150 128 126 116 98 84 67 57 31 15 40 42 19 38 63 36 31 34 35 34 36 26 27 30 53 69 82 119 117 122 150 155 170 180 190 192 194 197 196 196 197 200 203 205 212 215 217 213 204 206 200 179 154 126 125 129 117 123 125 112 100 110 119 106 95 105 83 98 108 104 113 118 137 175 185 193 206 206 204 208 197 194 186 188 188 181 179 177 174 173 163 140 134 124 116 110 92 76 66 49 20 21 46 58 32 49 76 39 34 38 37 40 34 21 35 42 43 53 67 110 112 119 122 151 166 172 181 185 189 194 195 196 198 197 201 208 216 206 201 204 195 187 166 156 125 134 124 109 124 133 125 125 114 119 133 119 115 114 103 88 110 118 111 104 120 147 171 185 194 187 190 199 195 196 190 189 185 180 179 172 168 169 161 144 124 105 110 105 87 72 63 36 20 38 46 52 43 67 76 35 35 46 43 31 49 29 36 28 43 52 65 92 115 110 122 154 155 162 170 180 187 192 192 194 199 196 198 204 201 187 189 190 175 169 172 149 118 115 124 99 100 125 150 160 155 151 147 140 144 133 135 83 83 128 98 102 119 137 154 170 179 178 182 185 183 192 190 186 182 180 180 176 170 156 141 138 124 101 106 96 98 77 54 27 24 37 49 38 36 61 58 38 43 42 31 21 28 34 50 45 46 44 59 87 97 107 128 145 139 157 168 178 191 191 194 193 195 197 199 196 182 173 183 175 157 154 160 143 114 114 113 98 104 129 157 175 187 192 181 179 183 165 144 89 88 89 97 99 123 139 141 160 163 167 169 173 170 182 185 183 182 183 178 174 171 149 132 124 109 100 103 93 82 67 51 36 34 30 49 39 36 53 61 34 31 25 21 18 19 26 53 55 43 46 55 80 101 98 119 115 127 152 158 168 183 185 199 197 194 200 203 189 165 161 156 158 146 125 154 131 104 101 109 112 113 115 124 136 148 173 191 172 152 130 119 115 110 98 105 108 123 129 126 145 141 157 162 157 157 173 178 177 177 180 176 168 163 150 129 114 96 96 102 79 65 58 44 27 37 50 42 38 43 48 61 37 29 26 24 20 20 21 38 40 40 49 52 69 92 85 89 96 121 134 123 166 180 187 184 191 192 197 200 160 153 140 140 137 133 108 137 113 108 90 99 107 106 113 122 124 128 144 147 127 108 110 119 122 120 111 106 115 121 115 108 110 125 141 132 141 140 151 174 177 181 176 173 163 150 139 120 106 96 97 88 79 63 53 32 33 42 40 34 52 38 43 50 35 30 22 22 26 21 17 26 29 43 50 46 60 82 74 79 99 101 109 124 161 173 184 182 189 191 188 171 143 136 120 122 115 109 96 116 108 97 84 94 99 97 105 113 113 114 117 121 112 101 106 112 110 104 104 95 94 97 110 100 87 102 131 123 121 124 131 161 165 179 179 170 162 152 125 106 100 94 101 80 65 53 40 34 20 48 51 45 43 33 37 45 31 29 28 30 27 17 18 29 27 45 60 45 55 70 76 80 80 82 116 130 143 165 185 184 196 190 176 148 130 118 96 116 106 74 75 96 104 74 67 75 73 69 72 79 82 84 92 101 97 87 81 85 80 74 75 73 75 75 91 92 92 82 119 110 122 109 120 147 170 172 191 161 155 149 117 97 88 85 78 70 62 40 42 22 30 47 41 45 44 32 27 36 37 39 36 31 28 25 20 32 34 39 52 54 47 55 67 65 75 87 106 119 140 163 176 180 190 179 161 146 127 101 96 98 98 78 68 69 68 69 80 83 85 86 88 89 88 88 83 82 83 91 91 91 98 96 97 96 96 88 75 75 74 81 100 102 110 103 111 129 146 160 174 165 149 135 112 98 73 83 72 73 56 38 26 40 49 41 33 35 33 36 42 46 43 39 35 28 30 24 19 34 40 39 40 46 59 58 63 60 64 87 99 120 137 144 160 179 186 169 147 150 113 90 100 106 97 74 95 95 88 95 106 120 124 133 145 150 148 145 133 122 116 127 138 152 147 136 132 129 128 125 109 95 81 100 99 96 95 114 112 118 133 150 149 159 142 116 103 92 70 73 60 64 56 33 63 48 39 40 31 39 38 39 36 42 46 32 35 37 38 29 29 31 22 29 37 34 45 52 59 53 64 86 99 111 125 135 159 170 154 150 154 158 101 98 103 123 135 104 119 137 128 125 134 144 140 153 168 175 177 175 175 160 155 170 172 170 167 155 158 149 142 142 134 135 141 132 116 89 104 127 116 102 132 145 145 151 131 98 93 93 85 69 61 70 48 39 48 36 45 41 18 56 45 40 53 57 41 34 35 33 40 33 22 24 20 20 25 34 40 44 43 62 62 75 86 100 117 123 133 152 137 139 159 142 109 108 123 153 150 148 151 149 152 152 146 144 149 160 164 167 177 184 180 183 179 180 182 178 171 165 165 163 158 161 160 157 154 146 138 140 137 128 122 97 118 143 131 132 115 90 92 90 88 68 61 56 38 37 46 36 40 37 23 35 56 51 45 74 34 30 29 31 37 56 36 19 21 22 26 38 34 38 47 59 62 75 81 85 97 109 125 136 130 152 154 122 119 134 155 164 162 159 157 156 166 167 161 160 159 163 166 162 162 169 175 185 185 175 172 166 165 165 168 165 159 159 165 160 158 159 160 167 159 139 120 97 115 130 123 118 106 83 81 91 91 62 64 59 31 39 35 52 48 39 27 25 81 75 61 76 39 34 27 59 47 34 42 28 27 28 22 31 33 39 52 61 65 67 66 83 86 92 117 126 121 143 136 136 143 160 160 158 165 159 159 156 161 167 170 167 165 159 148 141 146 154 151 159 156 149 152 148 148 151 153 148 148 152 161 161 160 160 163 168 160 150 125 100 109 114 118 107 89 74 77 82 81 58 77 61 29 34 26 48 33 34 40 26 46 54 70 45 37 31 24 37 37 25 25 27 32 25 24 20 29 37 41 56 64 67 70 73 82 88 105 109 113 127 141 148 153 158 154 156 163 166 165 160 164 164 160 158 152 156 144 126 121 114 109 113 111 112 121 123 126 131 137 143 148 150 153 163 166 166 164 165 155 155 139 124 125 115 113 98 80 72 67 71 85 73 72 36 25 36 26 38 35 38 46 37 43 70 94 97 32 22 31 47 38 24 22 20 19 22 15 22 29 45 39 51 57 55 55 62 71 80 85 101 118 119 145 154 153 157 161 161 164 167 163 160 163 159 150 144 141 140 130 118 115 108 95 101 102 99 104 117 120 134 141 141 147 157 165 171 171 168 160 160 162 165 150 141 135 117 92 78 69 62 58 62 74 53 45 31 34 35 16 37 57 40 42 33 61 102 73 129 38 36 44 50 30 27 25 22 20 24 22 24 29 49 45 43 43 47 45 51 67 65 71 105 112 129 131 148 160 157 163 163 163 164 165 161 161 160 157 152 140 128 123 126 122 109 109 98 99 109 119 121 118 126 139 148 160 165 166 168 169 170 166 164 164 159 152 148 126 103 75 72 67 56 66 70 51 36 53 39 37 28 26 27 39 48 44 43 63 64 64 122 40 41 34 27 23 23 27 23 24 22 20 22 31 41 58 46 40 42 47 55 58 59 67 85 96 107 115 134 153 156 161 164 164 162 167 165 164 164 162 161 155 145 135 130 123 114 113 114 119 113 122 138 134 136 155 161 167 172 171 170 166 168 169 161 158 153 148 141 118 91 66 63 60 48 69 58 38 32 26 24 47 35 26 20 20 40 35 49 54 44 106 142 41 44 33 26 24 27 25 26 25 25 25 20 21 38 69 54 42 49 48 52 49 57 65 74 87 97 110 124 132 143 157 162 169 170 168 168 167 171 173 170 159 150 140 131 123 117 137 137 137 135 124 147 152 149 168 170 170 177 177 175 171 172 169 155 155 145 138 114 106 76 46 54 61 51 45 56 43 34 26 21 29 26 18 35 23 29 38 43 46 52 156 130 32 33 29 31 30 33 26 31 44 28 26 24 23 39 77 64 53 56 50 51 43 48 55 69 76 88 108 116 134 156 156 160 170 174 175 173 175 179 184 180 178 174 167 160 154 151 164 156 149 169 156 161 163 165 176 177 177 183 183 180 178 174 171 160 141 133 123 102 89 70 48 47 54 48 37 37 39 39 31 33 29 20 26 40 33 21 26 33 49 71 108 137 28 27 27 33 31 38 42 48 56 22 20 23 34 54 80 76 66 50 44 42 41 41 46 55 57 80 102 111 135 143 144 161 176 181 185 186 188 190 193 191 194 192 186 178 174 174 190 192 177 186 179 179 180 189 188 189 189 189 187 183 182 174 169 162 130 123 106 97 79 62 48 44 49 40 31 28 29 33 24 29 59 30 24 27 37 35 30 34 65 68 62 98 33 40 34 34 27 43 49 39 34 19 23 22 53 81 77 86 69 53 44 37 41 46 44 48 59 80 93 95 122 134 149 162 173 182 188 194 197 195 200 201 202 199 195 193 192 192 203 198 190 196 200 196 197 201 198 200 194 191 189 188 183 177 164 140 119 119 97 78 70 55 54 37 39 33 42 35 25 40 43 29 34 48 35 31 37 32 38 44 59 63 60 91 31 35 31 26 26 28 35 36 21 26 27 26 77 108 81 94 70 61 55 46 44 39 36 39 56 72 69 75 108 126 126 141 164 175 180 189 197 195 199 203 203 202 200 195 195 193 202 197 191 197 196 196 203 203 202 203 197 194 191 188 177 174 157 128 108 95 85 70 59 41 41 33 34 33 39 41 22 26 36 46 44 39 39 33 26 32 39 41 55 63 65 110 49 41 26 21 20 22 25 52 26 28 25 31 105 126 95 109 100 58 53 40 38 33 31 56 65 54 53 75 89 96 110 131 136 156 169 180 196 192 193 202 203 199 201 189 187 184 190 188 187 203 193 191 196 198 199 197 191 186 183 186 183 165 144 119 102 92 72 56 49 45 36 34 34 44 38 51 24 21 34 81 58 60 38 40 79 77 42 48 56 64 84 150 68 76 65 56 34 70 57 20 26 27 25 69 141 150 101 104 102 65 49 49 43 35 30 44 49 50 48 55 71 92 104 117 139 135 148 171 179 180 185 189 195 193 196 179 172 176 166 169 178 186 181 195 186 186 187 192 190 183 171 162 167 147 124 97 83 79 58 57 47 49 41 56 47 42 47 61 35 20 24 35 52 87 72 91 119 94 48 39 46 66 81 163 79 59 51 44 34 58 79 62 22 24 26 98 144 170 119 117 115 93 57 56 45 39 45 40 45 55 45 41 55 83 95 116 107 109 135 149 148 155 169 171 175 184 178 168 156 161 154 144 163 176 169 164 165 165 162 171 177 164 157 150 143 128 106 94 73 62 54 58 42 52 26 42 54 50 55 67 34 20 28 34 66 99 85 60 57 43 49 39 62 85 98 143 170 127 150 73 84 102 200 63 25 30 38 127 148 177 144 122 129 101 74 63 52 44 40 38 44 44 39 39 58 79 84 114 84 101 111 119 118 123 142 161 152 167 158 156 141 132 132 131 155 153 152 147 146 149 147 147 148 132 131 139 117 112 87 78 63 51 49 45 34 50 38 60 65 37 79 70 41 35 26 25 57 97 104 53 9 50 45 45 54 125 106 142 157 218 155 88 184 155 100 37 38 33 44 139 155 178 168 120 131 111 100 88 75 53 44 42 37 36 41 49 50 50 77 79 74 86 90 94 102 105 121 136 129 139 136 132 129 110 115 116 131 123 135 123 133 131 143 130 130 123 116 120 94 89 77 64 65 52 49 48 39 44 54 68 71 43 109 75 47 31 24 32 39 59 79 77 94 43 33 39 57 90 83 125 177 144 118 166 191 121 58 38 32 32 55 152 166 183 186 127 134 127 116 99 88 63 46 37 43 55 52 51 35 45 70 64 70 69 79 102 95 90 102 102 117 121 111 108 112 97 89 112 126 105 114 106 110 114 119 106 117 105 101 104 90 78 89 74 67 55 50 38 40 43 66 71 66 66 146 91 41 30 26 28 30 30 42 79 154 89 34 37 38 63 90 145 60 130 155 175 161 60 54 42 34 31 69 156 171 188 195 156 128 142 144 105 97 77 48 35 46 54 52 51 31 41 65 43 59 55 70 107 78 66 85 93 102 95 91 96 96 85 86 94 110 101 98 100 96 99 91 86 109 85 90 74 78 86 81 70 62 51 39 45 50 65 80 80 69 116 171 127 83 39 19 27 31 30 28 61 140 111 35 58 99 128 137 143 182 174 182 157 71 61 52 35 41 34 74 166 182 189 201 187 124 145 146 122 122 89 66 42 43 47 45 47 45 47 63 43 60 56 57 76 63 69 69 75 83 85 87 87 79 71 78 82 85 81 79 89 81 91 73 75 84 72 76 74 71 63 75 57 56 42 41 43 66 75 79 85 79 158 173 151 123 57 20 28 35 35 42 47 44 43 44 138 194 224 220 221 231 237 163 56 63 57 52 41 47 34 80 172 186 195 206 209 167 125 149 139 136 115 89 50 39 40 38 41 57 45 54 46 52 46 48 56 53 67 62 59 57 71 74 71 72 67 69 74 63 69 72 71 82 78 54 56 64 66 57 46 59 51 34 43 51 44 39 57 74 84 87 94 102 178 175 157 142 76 30 25 34 39 33 36 30 22 47 140 227 236 243 241 237 156 71 69 59 50 47 42 41 31 84 179 189 202 203 215 215 149 148 150 145 141 108 64 46 38 34 40 49 40 56 54 57 48 46 47 37 42 52 52 52 58 57 52 63 58 50 64 67 66 62 76 75 57 50 54 66 46 44 41 54 44 43 54 35 32 45 73 85 89 103 102 136 190 182 163 148 81 29 21 35 47 29 21 22 35 44 66 148 225 242 246 144 81 63 60 60 52 46 45 40 31 76 180 194 200 211 214 220 199 146 149 150 144 128 92 62 56 43 34 38 39 43 36 34 33 37 33 41 38 39 43 44 50 51 43 50 57 45 52 56 55 54 65 46 42 43 54 51 35 37 34 33 39 42 31 28 47 65 83 86 100 114 98 171 190 181 167 150 81 30 27 32 39 45 45 50 49 52 60 61 84 122 168 68 63 60 61 58 55 47 46 47 38 69 177 199 201 211 215 219 219 183 139 154 148 152 115 81 70 55 45 46 53 52 49 43 32 37 34 32 29 32 38 38 36 39 38 46 44 39 43 37 45 38 40 32 39 37 43 66 53 46 53 65 34 17 32 37 72 70 84 93 120 104 124 193 192 181 166 154 87 34 31 31 37 46 48 49 52 53 54 64 65 70 75 69 65 65 60 57 58 51 48 51 42 67 176 202 206 214 216 219 225 221 172 144 152 150 139 100 72 56 36 47 45 34 36 40 32 31 33 29 37 34 21 29 34 44 43 33 35 35 44 37 37 35 35 41 35 35 36 44 36 52 59 44 34 37 41 57 68 84 89 111 121 100 175 200 194 180 167 155 89 29 27 33 38 43 47 49 56 60 57 63 63 64 63 62 61 63 60 61 57 55 52 51 43 65 169 201 209 215 217 219 222 224 221 173 144 154 151 135 98 69 57 42 40 35 31 30 31 38 26 29 28 30 35 34 33 37 43 26 30 33 34 33 35 46 47 36 34 34 42 41 30 38 28 32 40 44 52 70 73 92 106 127 111 148 207 203 199 181 170 152 86 31 30 32 40 44 49 52 54 54 57 58 63 64 60
