P2
# Generated by OpenCV 4.2.0
92 112
255
53 51 56 60 62 33 30 38 31 39 37 34 29 27 27 28 33 25 26 34 24 25 25 26 28 32 34 37 41 44 48 46 44 55 54 60 64 78 93 89 96 82 78 82 80 79 87 63 72 70 85 71 67 66 71 67 55 51 67 63 47 58 55 78 50 66 43 58 58 34 40 48 48 44 39 35 35 29 33 36 39 27 24 28 39 135 182 149 74 172 181 147 85 63 44 69 39 32 29 37 39 43 36 30 26 24 24 28 30 29 31 31 27 26 26 28 37 42 43 44 50 51 42 79 59 55 67 84 75 87 110 112 120 104 96 94 87 89 103 79 90 95 100 75 77 79 80 78 67 71 69 64 45 56 69 58 62 42 53 54 43 48 58 66 61 46 41 34 33 33 32 35 40 27 26 18 40 22 101 113 35 72 176 78 42 49 41 42 37 33 33 38 40 36 28 23 33 24 32 30 32 30 34 24 25 24 24 28 29 28 29 35 46 50 60 54 69 61 74 97 78 97 117 124 133 121 114 115 103 103 118 107 109 115 125 100 85 91 95 100 86 83 70 71 53 70 66 64 55 50 52 49 52 57 51 57 57 53 48 43 40 35 33 26 35 33 19 19 26 31 29 43 56 63 149 68 90 42 32 36 36 31 33 35 33 26 22 27 28 37 31 46 35 34 37 29 28 23 26 27 28 36 44 40 44 47 55 67 65 71 85 95 89 93 100 125 136 138 143 149 140 124 139 135 134 128 136 134 103 111 119 118 106 99 82 80 59 77 70 67 58 55 47 51 54 38 32 42 49 40 47 48 42 37 37 29 22 32 22 19 21 28 21 24 49 19 37 32 42 38 36 39 32 29 26 29 28 20 18 31 28 43 46 48 35 34 36 28 28 27 28 30 35 38 40 52 58 50 48 56 58 53 73 87 98 106 124 117 126 138 156 171 175 162 151 164 159 153 155 157 135 143 138 130 121 103 100 83 76 69 76 70 61 56 53 51 43 38 28 33 40 44 43 42 40 37 29 33 28 25 23 21 22 26 30 25 21 18 34 45 44 39 43 39 32 28 29 28 29 22 25 40 50 46 57 32 36 32 30 25 26 25 26 34 44 55 61 67 75 65 51 68 77 54 77 91 98 97 107 117 131 147 167 182 186 186 185 184 178 175 177 173 167 170 155 149 135 114 106 85 90 79 78 70 61 52 57 55 47 40 32 39 47 55 45 37 38 43 30 32 27 19 18 19 21 20 21 28 27 31 30 34 39 40 37 33 30 26 34 35 27 16 47 57 58 56 58 31 43 33 27 27 22 29 40 60 84 91 95 100 113 111 93 88 107 87 87 101 113 107 103 115 140 165 186 192 197 198 196 192 189 186 190 190 186 184 177 175 158 138 122 112 103 99 89 82 76 66 61 55 50 58 58 50 40 44 67 33 30 37 38 29 33 20 19 17 17 20 26 33 31 32 32 103 48 40 36 43 49 48 32 17 23 18 56 57 29 49 41 40 50 31 17 16 30 38 55 82 96 112 129 142 151 150 137 127 128 120 117 99 106 116 137 137 158 176 193 200 203 203 201 200 197 197 198 196 192 190 194 191 178 165 152 141 123 110 100 91 90 82 76 67 62 49 54 58 63 53 63 45 41 31 40 21 36 21 20 19 18 20 29 36 39 26 30 69 41 40 39 39 38 38 27 21 23 29 39 40 39 43 43 66 40 28 27 38 46 57 85 118 143 165 182 183 189 184 176 171 161 162 149 136 134 129 137 167 179 189 202 204 206 204 202 203 202 201 200 200 195 192 193 188 183 177 168 155 143 139 124 110 107 99 92 89 74 67 54 68 68 83 83 51 32 34 35 27 28 23 22 20 20 20 26 31 38 36 39 37 33 38 35 26 34 31 18 17 24 32 35 29 31 33 35 39 30 27 63 54 55 90 135 165 184 190 196 195 194 193 191 190 187 184 181 175 171 162 171 182 199 201 209 206 205 207 204 207 206 203 205 204 199 196 193 191 187 185 178 167 160 157 145 133 125 119 118 117 103 92 63 71 82 65 82 77 42 33 28 32 23 25 23 23 25 26 26 27 30 31 32 40 26 28 32 29 35 27 21 18 21 27 32 27 23 27 28 31 46 76 57 69 111 167 180 191 192 195 200 200 199 198 199 199 200 201 202 201 196 185 192 195 205 205 207 205 206 206 205 207 207 204 204 203 199 198 193 191 188 186 183 174 165 161 162 151 144 142 136 129 120 108 90 75 77 73 62 69 50 36 30 33 25 25 22 24 25 26 26 25 26 26 26 31 41 36 33 33 28 21 21 20 17 25 30 27 28 33 36 52 86 79 85 123 150 185 182 198 192 194 196 196 196 198 202 201 204 208 210 214 213 203 206 209 208 211 207 208 207 209 206 207 207 204 200 199 199 197 195 195 191 187 188 179 174 169 170 163 159 158 152 145 138 129 118 91 75 76 53 55 59 41 31 31 27 28 24 27 29 26 26 25 26 30 31 32 50 26 26 31 24 23 22 17 19 26 34 33 28 37 46 76 99 92 136 141 182 187 190 197 196 197 199 200 200 203 207 203 205 207 208 208 215 209 213 209 205 214 206 210 210 210 207 207 207 203 197 196 197 199 197 195 192 190 187 179 176 174 172 167 167 167 165 162 151 143 124 113 86 68 73 47 57 46 30 29 29 29 25 27 30 30 30 30 29 33 35 31 31 15 31 33 27 19 19 18 17 18 39 41 36 44 48 100 88 140 132 169 186 189 191 193 197 200 201 203 204 205 206 210 210 209 208 212 211 212 212 213 214 214 212 208 209 209 207 204 203 204 202 203 202 199 199 196 191 187 185 181 175 172 172 171 170 170 171 168 165 155 140 126 108 83 60 58 48 46 32 27 32 29 30 31 31 31 27 31 35 34 28 27 25 30 25 42 49 25 15 19 29 26 36 46 58 45 68 108 117 146 144 186 183 190 194 199 201 203 205 204 204 205 208 208 208 208 207 213 213 213 212 216 216 215 215 210 210 209 209 207 207 207 202 203 201 199 198 194 190 186 182 181 177 173 177 176 175 174 172 169 167 164 145 130 121 99 74 60 44 49 33 26 28 26 27 27 28 31 28 30 32 30 27 24 34 21 21 21 25 29 24 32 35 37 36 45 57 55 90 103 129 135 177 183 184 191 197 199 198 199 201 203 204 205 208 206 207 207 206 209 210 210 210 207 208 207 207 203 203 203 202 204 204 204 202 203 202 199 194 193 187 185 182 180 178 176 175 173 172 172 174 172 172 168 150 140 135 115 85 62 41 44 35 29 28 25 26 27 28 31 28 30 31 29 29 28 29 18 18 21 21 17 25 33 29 42 40 39 60 53 75 108 140 163 177 179 190 193 196 197 200 202 204 203 203 204 207 204 205 205 205 203 204 203 202 208 209 209 208 208 208 208 208 207 207 207 200 203 202 199 194 192 188 184 180 180 179 178 180 178 176 175 174 175 177 164 152 148 136 133 99 76 55 36 35 34 32 28 30 30 31 30 28 29 33 33 34 34 31 26 25 20 18 24 30 39 53 41 28 35 52 48 48 133 141 167 179 185 186 188 194 199 203 205 208 208 210 213 208 210 209 210 210 209 210 212 213 213 211 209 209 208 212 209 205 204 204 201 200 200 199 199 195 190 183 179 177 177 176 176 179 182 180 176 176 175 169 167 154 150 149 141 115 86 58 41 30 33 30 32 24 26 32 30 29 30 30 32 34 32 17 30 26 24 24 27 28 33 42 35 32 43 51 43 42 123 149 166 173 179 187 188 195 198 201 204 207 207 210 213 209 209 210 210 209 208 209 211 211 210 209 207 207 209 211 210 206 206 206 202 201 201 198 195 195 190 185 180 179 179 179 178 180 182 180 178 177 176 170 168 157 155 150 142 125 102 68 53 36 32 25 28 32 32 32 33 39 33 32 34 34 34 24 31 22 22 28 31 33 41 44 39 34 38 46 42 42 126 150 163 169 178 186 189 195 199 200 202 205 207 211 213 209 210 210 209 210 209 209 208 206 207 206 205 204 209 212 210 206 207 207 205 203 202 198 194 194 191 184 180 180 180 179 179 182 184 182 180 179 178 172 169 162 160 152 138 123 102 73 60 42 35 25 35 35 33 32 32 25 31 37 39 36 31 20 27 16 17 23 26 31 40 40 36 38 40 43 40 47 135 145 160 169 182 188 188 195 199 197 200 203 206 210 212 209 210 210 209 208 210 208 204 205 204 203 202 202 209 211 210 208 210 209 206 207 205 198 193 195 191 184 178 181 181 181 181 182 185 183 181 180 178 174 167 164 164 153 145 124 102 83 69 53 47 40 46 33 29 36 44 50 45 40 40 37 31 52 31 27 20 21 21 25 37 47 39 80 46 36 49 78 140 145 157 172 182 184 189 194 195 200 203 207 208 208 206 205 204 208 213 214 209 209 206 205 208 207 207 207 207 207 207 207 206 207 203 203 201 195 192 191 189 186 185 181 179 182 185 187 187 185 183 182 181 176 173 166 166 156 151 131 110 89 72 62 53 44 29 30 34 28 31 32 33 29 29 36 43 56 41 32 24 14 20 26 36 36 94 63 53 54 54 103 130 145 156 173 183 187 191 194 196 198 203 208 208 208 207 207 207 211 214 213 210 210 209 207 210 210 210 209 210 210 210 209 211 211 208 205 203 197 194 192 189 186 184 183 181 183 186 186 185 183 183 183 181 176 173 166 167 158 152 131 113 95 76 59 52 43 26 33 47 47 40 43 48 50 50 44 40 34 36 28 31 14 21 38 50 59 49 33 68 49 65 125 139 142 156 173 186 191 193 194 194 199 203 207 207 207 209 210 211 214 214 212 214 212 210 208 211 212 211 211 211 211 211 210 210 210 207 206 204 199 195 192 188 185 184 184 182 185 188 185 183 182 181 183 181 176 172 167 169 162 149 131 114 96 75 56 52 49 30 17 29 38 42 42 44 43 40 37 33 36 25 26 28 22 28 38 43 28 39 40 35 57 111 154 136 140 157 177 187 191 192 195 194 198 203 208 209 208 210 212 213 215 216 213 214 211 210 210 212 212 212 212 210 210 211 210 208 209 206 207 204 199 194 190 188 186 183 185 183 185 187 184 184 183 182 181 179 176 172 169 170 165 154 139 122 99 82 60 48 40 40 27 24 22 44 46 44 46 45 43 42 26 23 28 16 30 34 30 28 38 33 37 54 107 143 153 135 142 167 181 191 190 191 194 195 200 205 211 213 213 214 212 211 213 214 216 215 210 208 210 211 212 212 210 209 208 210 210 211 211 208 208 203 197 193 191 188 185 186 188 187 185 184 186 186 184 184 178 177 174 173 171 168 165 157 147 128 100 83 62 52 41 40 29 23 22 28 36 39 39 38 38 38 23 25 31 15 27 29 25 27 34 56 84 116 154 156 142 135 152 175 185 194 194 195 197 198 200 204 211 214 213 211 209 207 208 210 211 213 208 207 208 212 212 212 212 211 209 211 213 212 213 209 207 204 196 193 191 188 188 191 191 189 188 187 186 185 184 182 178 175 172 171 171 167 163 163 152 139 118 97 67 52 44 43 37 28 26 19 29 40 32 23 17 23 22 18 33 20 32 31 26 29 48 107 142 150 152 144 133 138 163 182 190 195 197 198 199 199 200 205 210 214 213 209 207 207 209 211 213 211 207 205 207 211 212 212 212 213 212 213 214 214 215 210 208 204 197 192 190 189 190 194 192 193 191 191 188 186 182 180 176 173 171 170 167 165 162 164 152 145 131 111 84 62 45 40 38 28 21 22 22 26 35 34 31 29 20 20 24 27 44 33 32 22 34 89 141 159 150 137 126 153 176 185 194 198 196 203 204 203 206 200 210 211 213 207 210 211 213 211 209 210 208 208 213 210 211 213 212 213 213 216 210 220 211 216 213 207 194 194 188 191 192 192 194 195 194 194 188 184 179 175 174 175 172 166 164 162 159 160 150 146 135 123 100 69 51 41 34 27 21 24 16 18 30 34 30 26 20 28 31 33 43 35 46 29 24 61 128 125 129 124 143 170 184 189 197 202 204 207 203 201 200 196 209 194 203 198 207 210 213 213 210 212 209 211 215 210 210 211 211 207 208 207 205 202 202 199 199 197 209 196 200 191 190 197 199 196 193 191 182 179 178 177 176 170 160 162 163 162 159 159 148 146 138 125 109 77 51 44 35 27 23 27 27 24 24 30 34 29 22 25 32 33 38 42 56 49 31 39 95 100 112 127 171 185 189 193 199 204 203 204 201 200 191 164 180 172 191 188 203 201 207 211 213 211 209 211 214 213 211 211 210 210 209 202 187 174 192 176 192 202 179 185 187 193 195 192 195 189 182 178 173 171 171 169 168 170 167 164 164 162 158 160 151 148 140 129 121 88 56 49 40 28 21 22 29 23 16 24 34 33 19 24 38 42 46 50 50 71 44 28 36 97 120 158 183 183 189 192 197 198 200 187 169 159 164 143 152 149 171 171 192 189 197 203 207 211 208 211 214 216 213 209 207 209 207 193 175 157 155 181 174 151 136 143 141 137 143 160 169 164 159 156 150 147 142 145 156 158 157 162 162 161 158 163 152 150 141 140 127 94 66 55 43 30 25 21 28 26 22 21 25 34 21 19 29 48 51 46 49 72 70 24 34 86 133 173 174 169 178 173 184 165 154 129 111 125 114 142 139 150 143 164 178 194 191 193 202 207 209 209 211 209 207 202 200 205 206 189 175 154 144 163 161 134 136 121 101 90 89 99 118 110 128 132 117 118 123 134 126 131 143 152 158 155 153 157 154 155 140 138 125 106 79 54 45 38 24 29 26 24 24 26 28 26 18 22 26 39 40 34 33 67 92 30 36 108 168 170 148 140 138 142 144 124 85 100 106 93 92 121 131 143 128 162 179 181 184 191 200 203 207 210 208 205 204 200 200 203 200 181 163 163 139 144 155 127 122 103 98 92 81 74 80 80 79 67 85 94 93 100 103 106 117 139 152 153 158 160 154 152 136 137 127 110 86 57 43 33 20 22 22 20 20 22 27 31 20 28 32 40 36 40 31 23 25 24 66 121 142 120 98 99 105 97 79 55 70 90 86 110 104 122 135 149 138 164 173 174 181 189 195 199 205 207 201 201 199 198 198 198 193 178 167 144 148 139 129 147 107 102 84 92 91 85 70 63 62 73 79 78 68 69 75 90 115 116 123 131 149 156 152 150 136 135 129 118 99 69 46 32 20 26 26 28 23 21 27 30 19 22 30 37 32 40 47 56 66 114 121 119 116 88 76 84 83 76 68 70 75 97 99 115 129 140 155 153 156 163 166 179 185 191 190 194 205 207 196 196 198 198 198 195 192 183 173 135 158 141 128 133 121 115 99 100 91 87 73 78 69 77 93 89 87 100 101 84 74 88 104 117 144 149 148 152 142 134 131 124 105 82 53 36 24 20 23 26 25 26 28 28 27 20 27 35 30 43 45 96 123 141 119 112 95 79 69 75 83 78 85 97 103 119 136 143 146 154 160 165 166 166 169 166 182 186 187 198 199 200 200 193 193 194 191 189 183 177 166 155 148 148 141 142 137 131 120 122 124 126 118 115 111 107 98 103 107 105 98 90 94 105 104 115 133 137 143 146 142 131 128 125 123 100 58 51 14 20 20 23 22 24 27 25 28 25 27 34 34 48 45 95 135 144 110 105 106 101 102 109 111 117 120 119 132 140 142 143 144 149 153 158 161 162 163 164 178 182 186 196 199 201 201 197 194 190 189 185 177 170 162 154 147 144 141 139 130 120 121 124 122 112 111 114 118 120 122 122 126 128 126 123 126 135 131 129 135 137 143 145 142 132 131 125 122 103 64 50 19 20 20 21 21 25 27 28 22 29 27 35 32 37 48 101 136 137 99 107 111 120 134 143 144 148 145 139 138 139 133 130 130 130 138 149 153 158 162 162 174 180 189 193 199 203 203 200 195 189 186 178 169 160 155 149 141 136 130 127 118 108 88 69 59 63 65 72 84 89 110 128 140 141 147 151 154 150 144 138 133 136 141 143 140 135 131 128 124 112 70 51 27 21 17 17 19 25 27 25 36 32 26 33 35 26 62 117 133 131 97 119 136 150 163 164 161 155 148 141 124 116 97 83 76 79 93 111 120 130 139 154 161 168 182 193 197 203 204 203 195 187 183 175 164 152 148 142 133 129 118 108 87 64 54 71 98 121 132 130 123 118 108 98 117 135 142 149 153 152 150 148 143 132 141 143 139 137 133 129 124 116 76 52 29 21 16 16 19 24 26 26 38 40 26 35 36 38 68 117 138 136 118 135 159 165 167 165 159 155 132 103 88 105 125 135 122 98 71 60 69 97 121 129 142 153 169 189 202 204 206 209 201 188 178 169 161 154 140 132 119 109 101 86 66 76 91 110 92 71 65 57 60 87 94 118 118 104 125 135 149 150 151 151 144 140 139 138 137 134 130 129 131 120 80 55 31 24 18 20 16 28 28 17 26 37 30 31 35 21 80 103 145 140 131 157 162 166 165 160 150 118 97 121 157 121 106 111 104 104 123 117 82 71 90 100 117 136 158 181 204 213 216 214 207 194 184 173 164 146 126 115 102 94 89 78 97 114 110 59 42 36 40 32 47 29 61 69 104 119 106 109 137 140 145 147 147 143 141 140 140 136 133 132 134 128 87 60 39 36 25 18 15 26 25 20 27 37 31 27 34 37 77 111 147 143 142 154 158 159 152 142 124 103 141 114 78 55 46 43 40 48 72 103 122 111 105 101 105 112 136 177 203 213 215 213 207 193 182 171 159 140 121 109 99 103 107 118 127 115 85 117 47 141 197 83 45 46 93 109 51 86 110 96 121 135 139 144 147 144 143 142 141 137 134 133 134 132 89 59 37 33 25 18 18 24 22 22 40 36 33 26 37 60 78 131 143 146 158 160 151 148 139 129 115 147 74 96 98 48 59 113 137 60 62 108 111 132 145 140 128 117 143 174 201 209 208 211 203 192 181 171 152 140 127 119 116 127 144 145 113 98 177 120 81 45 33 62 79 73 95 138 98 50 79 96 113 131 136 143 148 145 146 143 142 138 136 133 136 130 89 56 33 24 21 24 20 22 21 22 36 37 29 32 41 28 74 135 146 153 156 156 158 143 127 115 112 73 66 119 112 46 62 75 63 51 64 143 151 128 136 166 188 156 156 176 198 205 209 206 202 196 181 168 155 147 138 124 147 173 158 120 77 147 191 158 75 84 86 64 58 78 130 141 112 66 68 88 113 129 134 141 149 148 151 151 149 146 138 136 140 132 97 56 34 26 23 26 26 24 22 20 32 34 29 22 28 32 73 144 152 157 160 161 150 147 138 126 82 55 99 168 115 51 85 63 57 75 74 167 192 158 137 118 185 175 177 183 197 201 207 204 199 192 177 166 157 154 150 152 181 179 134 99 152 178 180 193 129 86 84 87 84 104 151 138 122 114 104 103 124 130 136 144 153 152 155 156 155 148 142 139 141 134 102 60 35 26 22 26 31 32 25 21 32 30 31 21 29 40 69 147 156 162 166 166 155 154 137 108 83 83 104 163 156 81 68 98 106 79 109 181 189 180 195 166 194 186 183 188 197 198 204 200 196 190 174 164 160 161 151 172 193 191 203 175 173 156 154 151 170 170 169 162 154 134 140 149 138 140 120 112 125 135 141 152 162 160 163 160 155 152 145 142 146 136 108 64 36 27 24 26 29 28 25 22 34 25 32 20 29 40 64 146 161 167 170 172 159 157 155 140 125 108 118 142 177 143 95 93 112 133 154 161 160 188 191 198 192 178 184 189 195 197 202 198 194 184 170 163 161 167 169 167 173 184 185 189 179 174 169 174 172 162 155 141 148 150 138 157 152 145 133 131 137 146 149 156 167 172 170 164 155 157 151 146 145 140 115 64 39 28 26 27 21 25 16 17 37 24 31 20 28 40 65 148 163 170 175 177 173 169 168 161 142 136 137 145 141 144 151 176 169 181 171 181 177 186 194 190 186 185 187 188 195 199 200 198 195 182 169 162 161 167 173 172 168 174 188 189 183 170 165 167 167 163 167 158 157 161 151 154 148 144 146 147 152 160 160 162 171 177 175 169 163 158 154 148 144 140 121 72 45 31 25 24 22 19 48 75 34 28 25 27 24 41 71 152 165 173 181 185 181 177 178 169 155 156 155 153 164 161 161 172 168 171 164 173 176 192 195 188 183 195 184 190 194 199 199 197 193 182 170 163 161 168 176 176 172 170 181 192 198 190 181 182 179 175 168 162 159 158 152 154 154 155 158 158 164 172 173 175 176 180 178 172 167 160 156 149 146 141 128 90 55 34 21 23 33 83 115 125 28 31 23 29 22 43 75 157 168 176 185 190 188 182 183 174 173 166 163 164 165 163 163 158 158 180 187 201 201 203 195 187 191 186 183 189 194 199 199 197 193 182 170 162 161 168 174 176 180 182 179 186 197 201 192 195 196 195 186 182 175 170 166 166 169 170 172 171 178 179 180 181 175 179 177 171 165 161 157 150 148 141 134 103 62 37 25 32 68 134 152 148 29 25 28 26 27 53 95 153 168 178 188 191 187 187 187 187 184 179 176 176 175 178 181 183 190 198 204 205 202 198 192 191 194 194 188 189 195 198 198 197 190 179 170 164 161 167 171 173 178 183 180 185 193 197 191 198 201 198 198 193 193 193 186 183 180 180 183 186 187 186 186 185 181 176 173 166 163 162 158 152 148 147 136 117 67 39 33 25 86 159 146 164 28 34 31 23 33 55 100 159 171 179 188 190 188 189 190 190 191 186 185 183 185 193 199 203 203 199 193 199 200 197 193 193 192 191 189 194 197 200 199 197 191 181 171 166 162 165 170 173 176 181 182 187 193 191 200 199 196 190 195 193 191 193 195 193 190 188 186 187 189 186 188 185 180 177 173 167 163 160 157 153 152 146 136 122 73 52 38 31 106 149 134 114 28 42 39 35 45 48 107 158 173 180 187 187 190 191 193 194 197 193 192 193 198 199 199 197 194 199 204 202 199 197 195 194 191 189 190 198 201 202 200 199 193 182 172 167 162 164 171 173 174 176 184 187 192 191 193 192 195 199 192 191 193 195 195 192 190 189 191 191 191 191 190 187 179 177 173 167 163 157 155 154 153 147 137 130 89 69 52 48 122 122 111 101 29 24 26 36 51 50 124 160 175 181 187 185 189 193 196 200 195 193 194 198 196 198 199 200 201 200 202 199 199 198 196 195 192 187 191 202 205 203 200 200 194 182 174 168 162 162 169 172 174 173 179 185 193 194 196 191 190 194 191 190 192 198 196 194 191 191 195 193 191 192 193 188 179 177 174 166 162 155 156 155 155 146 138 137 100 75 68 66 101 102 108 107 27 61 36 46 60 52 137 167 175 178 185 190 193 194 197 199 197 199 200 201 204 201 200 200 203 200 198 198 200 199 194 193 189 189 193 199 205 206 201 195 190 189 176 164 157 159 161 168 172 173 179 189 189 193 196 197 193 185 193 195 196 197 196 195 194 195 197 196 194 189 186 182 177 172 169 166 162 158 152 150 150 150 142 131 112 77 88 101 91 82 110 118 26 67 46 52 62 60 141 166 175 179 186 189 192 194 197 200 199 199 201 202 203 201 200 200 201 198 198 199 198 197 193 189 186 188 195 197 205 206 202 198 193 189 175 164 157 152 149 160 173 175 179 189 190 194 196 197 194 190 194 195 196 197 197 195 195 194 196 194 192 188 187 181 176 171 169 164 161 156 152 149 148 147 143 134 117 87 95 101 94 116 130 136 24 59 43 49 60 71 149 164 174 179 185 190 192 192 197 199 201 201 202 204 203 202 200 198 197 197 200 201 200 195 188 182 181 187 197 201 209 212 210 202 196 189 174 164 158 153 144 150 164 175 179 188 190 193 195 198 197 194 192 194 195 198 197 195 194 194 193 192 191 186 184 180 176 170 165 164 159 155 151 147 148 146 142 139 124 96 96 89 98 143 161 158 23 54 44 54 64 78 154 164 174 179 186 190 191 194 196 198 201 201 204 206 203 200 199 197 195 196 199 200 199 193 185 179 180 187 201 207 213 220 220 204 197 189 174 163 164 160 150 146 154 173 179 187 189 193 195 197 198 196 192 194 195 197 197 195 194 193 192 192 190 186 183 178 173 168 166 161 158 153 148 145 148 144 144 142 128 99 91 71 67 113 158 164 28 37 58 55 65 87 153 172 176 179 187 194 194 195 199 200 201 202 201 200 205 203 202 201 200 197 199 202 196 197 189 177 181 190 197 207 218 223 218 207 197 184 178 164 164 164 159 161 150 160 175 194 193 198 196 199 200 200 199 198 196 195 195 192 191 191 192 190 186 185 182 179 176 171 162 164 156 157 153 148 146 146 145 138 129 97 80 64 73 105 134 156 18 42 71 52 64 88 153 172 174 177 185 192 194 196 200 201 202 202 202 201 205 202 202 202 202 201 201 201 195 191 183 185 183 188 196 205 206 210 212 203 193 182 174 163 165 166 159 164 158 152 168 194 198 204 199 201 204 202 199 199 198 196 196 193 192 192 192 188 185 182 181 178 174 170 163 164 158 155 152 147 145 143 143 135 127 95 83 70 75 98 122 153 33 34 84 59 73 89 153 170 172 176 183 192 194 196 199 201 202 202 202 201 206 202 201 203 205 203 205 205 200 189 182 186 180 180 191 194 198 201 198 195 185 172 165 158 160 164 156 163 161 148 157 189 200 207 202 205 206 206 201 200 199 197 196 193 192 191 189 186 184 181 179 176 172 171 162 164 157 155 151 146 143 140 139 133 124 92 93 88 81 97 121 153 30 23 91 68 83 90 153 168 171 176 182 189 193 195 198 200 201 201 200 201 206 204 202 203 207 207 205 207 206 188 185 185 175 172 182 186 197 197 188 185 177 163 155 150 156 159 151 159 157 150 147 184 198 205 205 206 209 207 203 201 200 199 196 193 193 191 188 185 182 180 178 176 172 170 163 162 157 152 148 144 141 137 138 129 120 90 101 104 85 100 126 154 29 32 78 72 73 83 157 172 173 176 180 185 189 191 194 195 197 199 200 201 201 206 205 202 205 208 206 204 200 183 179 168 175 158 168 167 184 188 180 178 163 158 153 139 130 139 148 157 149 149 142 168 200 204 205 206 205 205 204 203 200 195 198 196 193 191 190 185 184 180 179 176 172 167 165 160 152 152 148 142 138 134 133 122 108 94 86 121 91 105 124 151 21 39 64 70 78 89 160 173 173 175 179 185 189 188 192 194 197 199 200 201 203 206 206 206 205 206 205 201 196 173 163 159 119 59 107 172 172 173 176 165 162 127 69 34 27 56 99 144 143 143 127 161 194 206 206 207 206 204 202 203 201 196 199 196 192 192 190 184 181 178 176 173 170 165 164 161 155 152 146 139 133 134 120 112 108 88 90 125 103 112 133 162 29 27 55 77 83 88 157 169 173 177 180 185 186 188 191 192 198 198 200 201 206 203 208 210 206 202 205 203 197 169 147 123 83 40 30 91 161 169 154 168 114 52 60 44 27 35 62 120 131 134 118 160 189 204 209 207 202 201 200 203 203 200 198 196 193 190 190 183 178 174 173 169 166 162 164 162 157 153 146 136 130 132 117 107 103 81 95 119 103 116 142 175 21 30 51 92 92 83 153 165 173 177 180 185 185 187 190 192 196 197 199 200 206 204 207 208 206 205 208 206 201 172 142 132 110 75 91 108 119 152 151 143 105 78 84 90 71 82 87 117 125 118 110 155 182 196 208 207 204 199 199 203 203 201 199 196 193 192 188 181 174 172 170 167 165 164 164 162 158 150 144 135 128 124 114 102 89 80 95 105 99 118 138 168 16 35 37 99 87 74 140 161 175 178 184 186 186 188 191 193 195 195 198 202 203 206 207 207 208 210 210 207 194 177 146 138 146 156 156 152 142 143 141 138 108 95 97 111 110 128 123 113 102 103 124 163 184 195 203 205 203 200 203 203 203 202 199 197 194 192 187 179 176 173 169 165 165 165 166 163 158 150 146 136 128 123 113 100 81 72 69 88 118 136 142 165 30 32 25 93 83 74 127 163 175 178 184 186 186 188 191 194 195 195 198 202 204 207 207 207 208 210 209 212 192 187 168 137 140 163 159 159 156 129 132 119 112 115 122 125 121 125 122 117 129 148 160 178 188 192 199 202 203 199 202 202 202 202 198 195 192 191 187 180 175 173 169 166 165 163 164 160 158 153 147 136 127 117 108 94 77 72 60 95 140 149 148 166 39 35 21 77 90 77 111 157 171 178 184 186 185 188 191 192 195 195 198 201 203 205 207 208 210 210 208 205 199 193 183 180 171 156 157 167 174 158 143 143 143 143 140 113 120 125 144 150 160 168 182 182 189 193 196 200 202 201 199 200 200 199 196 194 191 190 186 180 176 173 169 166 165 161 162 159 155 150 143 130 120 113 103 91 70 61 88 133 157 156 131 126 15 46 30 78 82 79 96 146 156 179 178 187 187 188 190 192 194 195 198 200 205 206 205 206 211 210 204 200 199 200 168 128 133 125 131 141 180 167 161 173 164 163 133 113 109 98 119 142 149 161 181 186 184 186 193 194 199 202 200 200 200 198 195 192 188 187 186 180 176 173 169 163 161 165 162 160 157 148 146 133 117 109 88 90 71 78 114 124 146 133 107 110 27 47 15 65 89 78 92 136 148 174 181 184 186 189 190 191 194 196 199 200 205 205 205 205 205 206 202 199 193 165 137 117 121 119 126 140 147 144 174 175 164 157 147 110 87 83 106 118 121 141 176 187 188 191 197 197 199 198 200 200 197 196 193 191 188 186 186 181 177 173 169 164 161 164 162 160 157 147 146 131 113 105 98 88 64 48 78 87 88 84 108 135 44 15 16 59 95 79 89 117 140 163 181 181 188 189 190 191 194 196 199 200 203 202 203 204 208 208 205 197 191 149 113 100 102 113 122 134 142 145 168 172 176 153 131 125 100 88 92 100 102 129 155 173 184 190 195 193 193 193 196 195 193 192 189 188 189 188 186 181 177 173 169 163 161 159 156 154 152 147 142 125 109 101 83 66 67 74 108 123 141 131 105 115 46 26 30 46 90 78 85 103 139 153 173 184 187 188 189 191 193 195 198 201 200 201 201 202 204 200 192 192 151 104 88 97 101 129 142 155 162 161 164 177 173 179 159 145 107 97 81 74 83 107 124 148 166 175 184 184 187 188 193 192 190 190 186 185 188 188 185 180 176 173 169 162 162 156 155 152 150 145 141 122 104 102 91 61 68 67 94 109 127 137 155 107 24 16 23 37 86 82 80 91 145 137 167 180 190 191 192 191 196 199 201 203 202 202 206 201 197 194 176 141 132 77 88 109 116 139 187 192 188 183 179 186 189 192 183 181 140 95 87 95 94 97 114 128 150 154 167 179 172 178 179 185 196 178 182 189 191 188 184 183 176 167 163 159 158 163 152 150 140 144 129 129 101 94 83 62 80 73 112 114 142 132 151 129 22 17 21 33 87 79 72 90 113 138 164 178 186 190 191 190 195 197 199 201 199 195 195 189 174 160 139 127 117 89 98 128 167 190 183 201 203 206 208 210 202 202 192 182 160 131 111 100 87 99 125 122 149 137 151 145 160 151 161 161 184 178 185 188 185 183 183 182 176 171 165 159 157 150 141 138 129 135 121 123 117 84 74 80 73 71 114 121 134 143 138 117 19 15 26 39 94 78 68 84 112 146 163 170 179 183 188 188 192 195 198 200 195 199 181 151 148 127 111 119 130 99 129 178 179 172 176 175 179 185 189 187 168 163 160 158 163 160 137 126 128 125 123 110 138 132 119 136 131 140 145 133 145 181 181 184 181 180 183 179 174 171 164 156 152 143 135 131 121 122 129 120 100 90 77 61 67 68 107 119 124 126 130 82 19 18 17 25 82 75 73 79 112 132 156 167 176 181 187 188 191 193 197 199 192 171 149 131 115 114 131 114 134 143 166 165 173 168 168 176 174 175 175 177 155 159 162 163 163 157 152 138 152 153 142 130 128 134 115 121 133 131 126 146 115 158 176 180 183 182 182 179 173 165 159 150 145 130 121 120 111 114 122 115 111 86 69 70 53 64 88 108 108 112 75 32 13 13 31 17 63 77 56 80 98 125 148 155 169 180 184 187 194 194 195 198 172 152 120 100 94 127 140 141 156 166 158 158 156 164 153 158 160 152 157 164 148 144 149 148 148 147 147 140 135 141 152 146 141 148 134 112 123 125 121 124 126 121 166 179 182 177 179 176 175 171 159 151 137 124 119 107 113 106 115 104 110 91 63 57 41 31 53 61 61 48 29 18 20 14 27 21 50 76 59 71 77 118 148 156 164 177 180 189 192 193 196 196 171 132 97 109 111 138 139 151 160 156 145 151 149 135 148 156 144 152 148 152 146 132 119 123 125 117 111 116 124 125 132 145 152 140 144 127 126 116 107 108 111 114 138 166 174 176 179 175 172 168 157 150 132 117 117 107 112 102 116 105 102 86 60 55 40 20 13 10 16 17 15 17 22 17 21 26 29 87 81 64 61 121 154 141 153 164 170 186 191 192 193 194 170 108 121 111 127 127 149 162 161 140 128 120 98 68 70 67 77 83 63 80 74 81 92 107 113 112 108 107 101 87 71 88 119 140 137 142 137 123 105 101 102 106 115 156 168 174 173 168 162 157 150 142 119 107 112 110 116 97 116 104 92 74 51 46 33 15 7 9 9 14 18 19 16 18 19 30 22 45 59 75 64 113 126 127 143 153 161 181 189 192 192 195 152 90 114 107 130 130 160 145 137 112 100 67 99 157 171 162 173 165 174 173 169 168 172 169 163 159 161 156 151 144 143 107 69 71 93 123 135 132 111 102 101 104 98 145 153 165 167 161 154 149 144 135 109 105 108 97 94 95 117 101 84 73 48 47 33 18 14 10 13 19 18 13 24 22 24 25 26 38 42 49 55 103 134 143 144 135 151 170 177 182 186 185 132 94 99 125 126 145 139 119 101 75 101 154 170 171 184 181 187 189 187 186 184 185 188 187 180 170 165 163 154 153 148 140 127 117 109 116 136 147 120 119 96 107 100 112 168 150 162 154 149 152 136 115 99 88 96 91 99 92 117 103 86 67 52 49 33 23 15 6 6 13 24 18 19 19 22 28 30 34 40 44 46 89 121 132 137 128 136 160 172 184 197 187 124 89 102 126 133 142 118 100 126 150 170 176 160 168 173 181 185 189 189 192 194 193 188 183 176 166 162 159 158 158 168 169 172 174 182 169 168 163 147 131 108 110 108 92 144 153 157 152 140 147 136 109 91 87 81 86 84 85 99 93 78 64 46 41 24 19 17 18 14 13 23 20 22 21 22 26 26 26 35 43 59 65 112 129 115 112 113 145 169 179 192 163 126 96 115 137 147 163 174 187 192 192 190 186 178 186 189 184 181 182 186 189 192 187 180 174 172 168 169 173 169 170 175 176 180 181 168 176 189 182 166 149 122 107 119 102 124 165 150 141 130 124 139 99 92 76 80 75 78 84 87 92 81 64 44 39 22 21 16 11 13 14 22 22 28 26 26 23 23 20 35 45 53 49 109 102 98 89 97 126 162 174 181 147 141 104 118 142 159 181 188 191 192 196 193 195 198 194 191 192 187 183 184 182 184 180 177 177 180 178 180 179 177 175 178 179 178 179 181 177 186 192 182 176 160 136 132 110 129 155 145 132 126 121 117 103 92 72 83 70 78 82 76 88 76 53 34 26 12 12 12 14 19 18 26 26 32 33 24 24 24 25 37 47 49 48 81 86 92 66 86 109 136 161 173 155 137 123 132 163 171 186 193 190 191 194 196 194 195 193 192 180 180 172 163 160 159 156 162 165 169 168 175 176 176 176 177 177 175 181 182 185 187 187 184 173 175 157 145 121 139 157 136 134 128 108 108 95 75 70 72 67 74 68 66 88 79 46 28 21 14 15 12 14 17 24 29 31 36 24 30 25 22 28 33 42 46 46 63 63 74 79 96 107 123 145 165 159 138 156 150 174 187 194 195 193 192 193 195 196 192 186 183 182 177 164 155 150 154 149 151 160 167 168 173 174 174 177 178 177 178 181 184 186 186 184 181 174 177 175 161 144 151 136 121 112 107 100 95 83 71 66 66 56 59 67 62 76 59 33 18 17 11 13 17 17 18 20 24 27 22 37 38 32 29 29 28 38 37 48 61 50 60 78 84 92 107 128 156 162 149 168 171 181 190 199 200 195 193 194 193 194 190 181 175 170 165 154 144 147 147 143 152 160 165 162 167 171 174 177 183 184 184 187 186 188 185 183 180 183 180 177 172 156 149 138 127 105 95 91 82 73 66 61 61 53 57 53 54 73 52 25 13 15 9 13 22 20 17 16 19 26 58 47 40 40 31 20 26 35 34 46 46 48 75 68 73 93 98 113 135 152 165 178 184 192 196 200 197 195 195 194 192 193 188 182 175 182 174 166 159 162 158 150 161 170 176 178 176 176 181 184 188 188 187 186 189 189 187 182 179 183 185 179 172 161 157 129 118 98 73 81 65 59 69 61 56 51 54 62 62 57 27 21 11 11 11 15 16 26 15 14 17 26 43 33 36 33 19 19 30 31 31 42 44 46 63 64 69 75 95 92 130 156 169 182 187 195 199 201 199 196 195 193 192 193 190 185 182 179 181 181 182 182 176 170 178 179 185 187 184 184 189 189 189 189 189 189 188 190 187 182 186 180 175 164 165 151 144 114 109 93 77 87 63 51 67 55 50 48 52 52 63 41 19 19 11 9 12 17 15 28 15 17 18 25 32 33 39 31 20 23 28 24 27 32 41 44 56 66 70 61 72 83 126 143 169 182 187 196 197 202 201 197 196 195 193 193 193 192 191 196 194 194 193 192 186 188 190 191 194 195 195 195 197 193 191 192 193 192 190 190 188 183 176 172 168 156 143 138 135 117 95 86 78 83 61 49 61 48 44 45 53 53 59 31 19 16 12 14 13 18 11 25 17 19 20 22 24 31 33 24 26 27 17 18 24 23 39 41 52 60 61 50 59 82 103 143 164 177 181 189 190 196 197 199 199 196 195 193 197 197 200 202 200 200 199 197 189 199 195 197 198 198 199 202 199 192 196 195 195 197 188 189 188 183 182 168 153 137 121 117 113 109 88 84 63 62 59 57 58 48 45 49 58 61 35 26 14 13 12 14 18 22 8 23 19 20 23 17 25 31 25 33 24 17 17 23 23 39 36 35 36 46 55 52 55 70 92 123 143 158 182 184 185 188 197 195 195 200 199 200 200 201 202 211 202 193 200 196 195 202 195 199 193 200 203 201 201 198 196 195 192 189 192 191 183 172 176 149 135 128 114 104 106 80 84 71 49 49 62 53 46 44 38 60 52 43 24 14 18 16 10 14 13 13 15 17 25 22 26 26 37 27 33 34 22 21 25 16 16 26 30 33 40 45 50 46 47 63 77 95 125 137 170 184 182 193 198 196 199 201 201 203 204 205 206 201 206 203 193 186 182 196 199 201 195 194 197 200 200 198 192 195 196 190 190 190 183 172 165 136 124 117 106 96 83 78 74 65 51 51 55 49 42 43 35 48 45 36 32 22 17 16 9 13 13 12 15 18 23 22 28 30 23 28 38 29 24 20 12 16 19 17 23 28 37 39 42 43 41 52 60 71 121 130 151 173 183 195 197 197 197 200 200 203 204 206 206 209 188 186 178 188 180 192 194 187 196 198 195 196 197 193 189 191 188 186 189 188 181 171 152 120 109 106 102 85 59 62 60 57 50 52 46 44 39 33 53 62 43 36 40 21 16 15 10 15 13 13 16 18 20 20 31 30 20 36 37 22 25 29 32 31 30 16 21 23 31 31 38 46 43 46 54 78 85 110 127 154 176 177 179 192 193 196 195 200 200 202 204 190 175 176 155 164 167 177 172 187 200 193 188 190 190 186 189 181 178 184 173 175 167 157 133 99 87 88 82 75 65 63 49 50 53 52 38 39 37 41 46 39 31 45 42 14 15 16 10 14 11 13 15 17 18 18 27 19 34 32 21 25 19 27 38 36 25 23 19 16 18 29 40 39 46 41 69 57 63 80 116 140 151 152 155 171 187 196 188 193 191 200 198 177 170 160 138 176 151 170 161 183 185 188 168 169 171 159 172 176 159 166 166 147 137 130 127 91 89 78 69 69 64 56 51 49 49 42 38 35 40 46 37 45 45 55 44 12 11 11 7 11 16 17 17 18 15 13 16 18 43 30 20 24 23 30 32 30 24 24 19 17 8 22 36 41 37 42 44 55 60 73 100 120 126 120 129 161 166 167 171 182 172 179 185 172 164 139 99 129 159 125 160 170 164 163 167 146 150 147 146 150 143 144 152 140 124 100 105 83 72 59 64 55 57 57 44 43 40 42 37 33 34 44 42 54 53 55 38 12 8 10 10 13 13 11 17 21 21 12 9 13 43 25 18 23 24 27 26 25 24 24 19 17 8 24 36 41 44 44 39 57 53 63 79 89 101 106 125 138 133 139 158 158 154 167 178 151 161 162 144 93 114 142 159 154 159 139 161 140 128 115 120 107 109 132 122 114 100 74 74 72 63 47 54 44 49 54 46 42 37 36 31 29 33 44 51 63 53 55 29 11 5 8 13 13 10 11 14 19 28 29 24 18 34 24 17 23 23 23 23 26 25 24 19 17 19 29 40 41 48 36 39 48 49 57 66 70 81 92 104 108 103 107 121 130 137 159 168 139 141 145 136 120 119 106 113 126 161 127 140 131 116 99 100 85 85 94 98 89 81 67 53 70 61 51 46 42 46 49 40 34 30 28 25 27 37 60 69 78 62 54 23 11 2 7 15 12 10 13 14 14 12 23 36 33 30 27 25 23 19 18 16 24 23 20 17 17 16 35 33 28 57 50 39 34 40 46 46 57 68 75 79 90 81 100 114 123 108 150 140 132 136 142 130 135 115 117 106 108 134 114 117 125 110 90 74 83 83 69 79 73 65 60 52 48 43 40 41 38 41 41 32 30 33 29 35 37 56 71 75 73 58 49 18 9 10 13 11 14 17 12 13 17 17 16 15 19 24 25 24 18 14 16 20 17 19 18 14 18 17 25 27 22 62 88 55 40 34 37 41 47 55 63 67 67 69 83 93 102 96 127 121 106 105 117 122 118 106 110 97 99 103 101 97 96 96 91 73 73 67 58 67 61 54 50 44 42 39 37 36 38 35 34 28 28 30 43 48 50 70 79 77 69 56 44 18 14 15 13 12 13 17 14 13 14 11 14 19 15 18 26 27 24 22 21 19 18 17 15 16 21 28 25 30 25 59 106 79 49 41 31 38 38 45 53 58 46 61 74 88 82 88 105 107 104 99 111 112 111 104 111 96 97 83 81 96 88 83 72 61 57 53 54 51 47 42 39 39 38 35 34 32 37 34 27 30 30 36 42 55 62 71 75 72 62 54 33 13 12 11 13 12 13 18 14 13 13 12 16 18 18 17 24 29 30 30 23 18 20 18 17 16 22 25 18 26 18 43 106 113 87 50 32 36 31 37 46 50 39 58 62 69 64 75 85 88 93 90 90 85 91 85 92 80 81 67 78 72 74 69 60 64 53 41 40 40 40 36 33 34 35 34 31 31 36 33 27 34 37 42 46 64 75 76 80 67 54 41 22 8 7 8 11 10 13 17 14 13 11 11 9 8 14 20 17 19 18 16 22 20 17 19 22 16 24 20 20 26 18 29 114 108 100 81 47 36 26 30 45 45 46 47 57 63 49 54 61 65 76 85 72 80 86 74 73 78 73 64 64 58 67 59 51 51 46 40 39 37 37 35 33 30 29 32 28 33 33 28 34 36 42 56 64 68 76 82 87 70 70 54 17 9 9 11 8 11 15 14 17 19 17 11 9 8 12 16 23 25 23 19 19 21 21 21 18 14 26 22 17 23 19 21 114 118 112 113 77 34 29 23 35 38 39 41 48 53 46 43 45 56 61 66 65 71 74 64 59 59 60 52 45 50 49 47 42 44 41 35 36 36 30 29 36 31 33 25 42 32 27 34 40 42 51 62 69 73 80 80 80 76 72 38 14 9 8 10 13 12 15 14 14 22 15 9 9 8 12 16 17 19 17 17 21 21 18 14 10 22 24 23 13 18 20 19 107 124 132 118 97 61 49 33 36 36 36 34 41 43 41 44 45 47 48 47 47 48 60 54 49 47 43 52 38 44 36 41 40 36 34 31 32 26 28 30 31 29 33 36 37 33 37 49 48 56 66 71 74 81 86 78 82 74 66 26 14 9 9 15 18 15 15 11 13 15 13 10 9 8 12 18 17 17 15 16 20 17 14 9 8 20 24 19 15 17 18 19 94 127 141 134 120 88 62 46 38 42 32 27 30 34 31 36 41 42 41 42 38 37 40 43 44 42 45 49 36 43 33 38 42 32 28 31 30 29 30 31 31 34 36 48 33 40 52 55 52 70 80 78 77 82 84 76 74 70 47 17 13 7 10 18 20 14 13 14 16 18 18 15 9 6 8 17 16 16 18 18 17 13 14 15 13 17 36 17 17 17 17 13 87 135 143 142 126 109 100 73 35 35 35 30 37 35 29 32 36 37 36 42 35 35 40 39 39 41 42 39 32 36 38 44 36 25 27 36 27 22 37 43 35 37 43 32 40 65 61 44 55 72 83 81 80 82 83 77 69 55 24 10 13 4 9 21 21 14 11 13 15 17 21 20 9 5 11 19 25 21 16 15 16 11 11 14 16 11 46 16 17 16 17 12 78 139 148 143 139 121 104 90 61 39 31 30 38 29 35 30 29 31 30 37 32 34 39 39 42 43 34 35 33 35 35 27 26 41 30 29 32 47 45 40 33 42 45 57 57 61 52 44 67 77 82 82 81 84 84 77 67 39 14 11 9 10 14 23 19 15 15 15 14 17 22 20 13 5 10 31 25 24 23 20 11 10 11 11 15 10 65 15 15 17 15 18 59 127 149 144 144 126 109 108 97 66 47 37 39 35 44 35 29 34 30 38 34 38 35 47 48 43 42 40 39 31 37 36 38 39 35 46 46 38 45 52 54 42 54 61 48 59 49 56 63 80 82 82 84 85 76 65 54 26 16 17 7 12 18 25 16 14 16 18 17 19 17 19 13 8 14
