P2
# Generated by OpenCV 4.2.0
92 112
255
9 17 26 29 12 1 35 28 35 57 36 58 30 5 1 53 83 55 29 30 22 12 17 28 41 40 58 99 85 95 100 106 101 111 147 145 152 150 170 170 176 157 163 154 141 164 170 140 167 177 185 172 143 122 167 165 165 172 200 148 157 136 122 112 87 81 77 91 118 89 99 90 78 64 55 43 47 47 71 63 81 64 82 90 68 76 68 85 79 83 54 72 24 12 25 22 32 23 4 34 52 45 61 47 31 22 8 15 22 37 32 25 9 12 19 29 22 25 36 51 70 79 90 107 124 134 152 164 181 186 180 195 193 190 179 178 181 169 180 162 169 175 185 175 168 160 192 195 192 166 158 180 160 137 130 114 105 98 90 89 88 134 114 101 89 78 58 52 38 60 76 68 60 89 40 49 81 61 90 56 84 76 98 43 18 26 31 40 24 41 40 24 34 51 43 15 15 11 23 10 24 14 36 39 19 18 43 10 37 48 52 48 62 89 97 102 105 131 161 173 192 198 203 201 201 199 190 198 192 191 196 193 193 192 194 188 194 190 207 192 174 181 168 155 165 142 132 117 114 113 93 91 88 100 159 100 92 68 72 36 51 51 64 83 68 71 95 35 74 65 82 62 79 65 69 64 30 12 14 40 77 12 4 68 58 11 15 9 16 20 17 27 46 45 76 78 51 60 49 13 37 35 50 72 81 83 100 102 114 138 167 192 201 203 202 204 203 204 198 193 200 199 198 201 192 196 203 203 196 201 201 205 206 178 194 188 170 178 168 171 128 130 121 96 108 88 111 143 86 58 66 74 51 44 52 53 81 72 72 73 50 50 51 70 54 56 88 117 12 13 16 42 19 38 49 8 11 21 14 16 15 24 31 44 56 80 100 112 98 92 48 47 18 28 43 52 93 94 107 108 137 169 177 196 206 207 204 205 207 206 205 202 203 206 205 207 209 210 208 212 209 206 206 202 202 205 195 199 184 174 184 184 170 154 132 114 123 106 107 105 115 52 68 70 43 52 45 42 67 68 75 58 61 95 17 41 80 36 54 59 11 19 11 55 39 40 25 29 30 32 33 36 35 39 56 74 109 136 142 148 154 121 112 84 61 65 79 111 113 123 126 133 150 169 199 204 209 210 206 208 211 210 207 206 209 209 209 211 213 215 214 213 208 205 208 215 213 208 208 211 199 184 186 184 191 168 152 141 118 125 104 127 103 75 67 45 65 69 38 77 39 60 70 55 87 65 77 26 47 62 65 68 19 8 2 23 52 38 44 33 33 46 57 62 63 77 97 116 129 147 159 157 153 151 120 103 96 111 131 132 132 132 139 155 165 186 201 207 209 211 206 210 205 205 207 208 210 211 214 214 215 215 215 217 215 219 217 215 213 214 212 207 205 198 198 194 192 151 161 161 119 131 120 108 101 105 51 56 65 54 81 59 68 80 44 46 74 43 66 65 19 46 59 49 22 7 6 24 44 58 7 27 52 44 61 67 74 92 116 139 139 152 147 161 167 154 155 152 143 139 143 147 153 153 151 165 179 194 209 207 209 206 208 208 206 208 209 210 213 214 215 216 217 216 218 221 215 220 221 221 219 217 212 215 214 203 206 211 198 161 153 177 134 117 113 109 96 65 62 55 70 58 38 65 30 62 63 71 41 55 48 91 44 25 57 50 27 10 13 54 46 47 26 46 49 79 70 77 96 114 128 146 149 158 165 158 157 166 161 164 161 165 167 163 155 164 173 177 192 206 209 210 213 211 213 215 210 212 214 212 215 215 215 217 217 216 218 222 218 223 219 219 219 221 216 214 221 203 207 204 203 183 146 170 143 127 124 79 93 86 69 29 46 55 89 80 68 67 22 71 63 86 66 55 29 53 35 44 8 6 2 53 32 48 38 53 71 79 82 90 102 117 132 138 151 155 164 165 167 164 168 171 178 177 176 182 180 178 179 184 200 202 205 209 212 208 213 205 215 216 216 215 214 213 216 216 216 212 220 221 222 221 222 221 221 219 219 217 215 209 209 209 209 191 169 176 150 126 121 102 70 71 66 47 34 80 57 58 31 47 37 78 57 60 41 78 75 80 61 41 8 0 14 58 64 38 47 68 80 84 95 103 117 126 139 142 156 161 167 168 170 170 175 177 180 181 181 188 186 189 190 196 199 205 206 210 208 211 216 215 215 216 216 214 216 216 216 216 216 215 220 222 222 222 222 222 220 220 217 218 220 214 214 204 197 197 186 165 158 140 109 100 90 69 72 59 53 46 65 75 50 37 38 31 25 64 9 50 55 79 77 50 0 2 0 2 42 39 41 62 82 99 101 109 124 128 139 140 156 159 169 171 174 176 179 183 184 184 184 188 185 195 194 200 203 206 210 212 214 219 212 219 215 215 216 215 214 215 216 216 216 214 219 222 222 221 222 222 221 221 217 215 221 217 217 210 205 201 198 171 172 149 119 100 91 75 95 70 32 51 60 37 44 37 36 48 23 31 44 26 23 15 43 52 10 1 8 0 47 67 71 65 88 102 105 105 121 133 139 149 153 161 172 173 176 176 180 184 186 185 182 190 193 193 193 201 201 203 213 210 213 216 217 212 218 213 215 215 217 214 217 217 213 214 216 219 219 219 218 221 221 220 221 219 219 219 217 210 204 207 201 184 164 147 137 125 92 76 61 156 38 41 37 60 61 44 35 33 53 19 50 13 54 19 0 19 2 27 7 2 10 44 49 65 94 104 104 111 122 132 139 149 154 163 172 173 175 176 180 183 188 187 185 192 195 193 193 200 199 207 209 218 218 218 217 211 221 215 216 215 217 213 217 217 216 216 217 217 217 217 216 218 219 219 221 219 219 219 218 215 212 205 203 192 172 154 125 117 108 84 81 46 96 41 59 41 72 50 50 37 27 73 31 45 0 32 8 8 74 25 17 0 0 25 58 75 98 105 104 114 123 133 140 149 155 165 171 173 174 175 180 183 189 189 186 193 194 193 193 200 199 210 209 209 212 212 209 204 210 212 219 215 216 214 216 216 216 217 219 216 216 215 216 219 219 221 221 219 219 219 219 217 218 211 198 192 177 156 128 116 107 119 92 71 98 55 34 66 31 62 47 47 46 46 58 28 46 12 9 23 33 73 18 6 1 12 53 86 101 107 110 117 120 134 138 152 151 160 168 174 174 181 182 180 185 186 188 192 192 186 189 189 191 199 201 208 210 214 216 213 215 215 217 215 215 217 216 216 216 216 215 213 218 223 217 218 220 221 221 220 220 220 220 217 216 216 209 192 177 157 156 128 103 95 102 84 89 76 37 36 43 54 68 43 36 36 39 39 58 23 32 7 3 60 13 15 7 9 65 89 103 111 114 118 121 134 136 148 151 160 169 174 174 181 182 180 186 188 189 193 192 187 194 195 202 204 211 209 211 213 216 216 214 215 218 215 216 215 214 216 216 216 216 217 212 209 218 217 216 219 221 220 220 220 220 218 217 211 205 203 186 160 136 130 117 104 101 92 68 86 27 5 15 29 62 58 43 45 22 59 56 86 38 64 6 57 11 17 17 42 89 89 108 114 121 121 125 127 134 146 152 168 169 171 174 178 182 186 188 194 195 194 194 185 191 195 205 205 208 214 214 215 214 214 222 220 218 216 217 215 216 216 216 217 217 216 220 223 222 221 221 221 221 221 221 221 218 222 217 215 210 206 183 160 145 122 102 110 69 77 88 87 55 50 35 10 28 18 75 45 32 100 16 63 40 6 12 9 24 15 31 68 89 97 106 124 123 120 119 129 135 145 153 166 164 168 173 178 183 186 189 195 192 192 193 189 195 196 205 208 211 210 206 211 212 212 209 212 211 217 217 217 217 217 219 219 218 219 219 221 222 222 222 222 222 221 223 222 220 223 218 212 213 198 191 168 151 134 116 95 86 65 70 76 62 25 46 23 20 4 17 66 38 21 32 41 18 14 22 16 11 23 48 76 94 99 108 127 119 123 131 133 137 144 156 153 160 166 175 179 182 185 191 192 190 191 191 193 199 201 204 210 215 212 203 211 210 210 210 213 218 217 216 217 217 217 221 221 221 221 220 216 222 222 222 221 222 222 223 223 223 220 214 213 213 197 188 167 153 129 104 92 83 79 47 59 78 38 1 38 10 19 1 23 42 57 57 5 61 15 26 42 8 30 58 79 101 104 111 121 121 128 136 136 138 145 150 152 157 164 174 183 184 189 193 189 188 190 191 196 196 200 208 213 218 213 199 205 209 209 206 212 209 213 215 216 216 217 219 218 218 221 222 223 222 222 222 221 222 219 221 220 222 218 217 216 214 206 201 188 172 140 121 108 86 61 71 63 64 48 18 7 41 17 16 4 15 34 36 58 35 9 0 1 14 33 58 85 98 111 114 116 130 129 129 133 136 143 146 149 162 167 171 180 184 190 190 190 191 190 191 195 197 205 210 213 214 212 206 209 207 207 210 212 214 216 218 219 217 217 219 219 219 222 222 222 222 222 222 221 222 219 221 220 223 221 218 214 211 209 199 185 165 159 134 106 91 83 41 44 51 55 28 13 9 40 32 28 13 3 50 35 9 26 38 7 4 33 64 82 105 99 120 124 127 131 135 132 134 141 147 156 159 167 177 181 185 189 189 192 193 189 191 195 200 208 213 211 211 213 203 207 206 206 208 203 211 213 215 215 216 215 216 219 219 221 222 221 223 222 222 222 222 217 219 219 217 215 213 212 210 208 199 198 186 168 142 121 95 77 67 40 19 45 26 12 3 15 19 28 34 30 22 32 35 11 18 9 7 25 63 83 103 107 118 129 130 133 137 137 140 144 149 153 161 168 179 179 183 187 187 184 189 191 191 185 213 214 212 212 213 208 206 205 205 205 207 209 210 210 215 218 220 220 222 223 223 224 224 223 221 222 221 221 221 220 217 216 213 213 211 213 210 209 197 189 189 183 159 128 114 89 69 48 43 17 40 12 4 23 6 5 8 26 19 2 28 35 22 13 8 26 63 84 102 111 118 129 133 137 140 138 142 145 150 152 156 163 174 179 182 186 188 185 190 192 193 194 196 211 210 210 211 206 205 202 202 202 207 209 211 211 215 218 220 221 221 223 223 225 224 223 224 225 224 219 219 221 218 216 220 218 216 210 208 207 199 193 187 187 169 147 115 86 69 52 36 22 33 9 37 8 17 9 11 0 33 33 14 22 23 6 7 26 59 80 97 110 120 127 131 137 140 136 139 141 144 150 163 171 180 181 185 190 193 192 194 194 195 192 204 207 211 209 209 205 202 200 199 201 205 206 210 211 215 217 220 220 222 222 222 224 224 225 224 224 224 225 224 220 219 218 214 212 207 208 207 205 201 196 191 192 184 165 136 108 76 56 48 38 17 19 29 31 5 7 6 23 12 41 21 17 14 4 1 23 49 82 97 108 119 128 139 140 136 136 143 137 145 154 162 173 179 183 187 192 193 197 194 195 197 200 206 209 210 208 207 203 199 202 199 199 204 206 212 213 215 217 221 222 223 223 223 226 226 226 226 225 225 224 224 220 219 216 218 215 212 209 211 207 200 199 202 192 183 181 161 137 103 70 52 28 25 22 23 16 17 14 12 10 4 19 12 30 22 5 5 25 53 82 97 109 121 128 133 134 129 138 141 150 150 158 166 175 182 188 188 190 193 197 195 199 201 202 208 210 206 204 203 198 199 198 197 202 206 209 213 215 217 219 221 222 226 226 225 225 227 226 227 226 225 227 227 223 220 219 219 219 220 208 210 204 202 202 198 197 196 182 167 157 131 85 48 21 30 20 16 23 21 18 18 14 13 26 11 20 9 0 7 20 53 90 100 110 123 126 132 135 139 140 146 150 152 158 169 176 179 182 190 191 196 196 197 199 199 208 209 212 209 199 191 197 198 197 198 202 201 209 216 215 217 219 223 223 223 223 223 225 225 225 224 226 226 226 229 226 227 228 222 222 223 219 212 204 203 200 200 196 190 185 180 173 146 126 79 55 11 20 12 15 25 30 33 13 22 35 1 18 2 0 5 23 61 82 97 109 121 129 135 138 139 142 148 153 156 160 165 173 177 182 189 188 192 195 197 200 200 212 204 199 202 198 192 193 199 197 199 208 208 214 216 219 222 222 224 223 226 227 226 228 228 227 228 226 223 226 228 224 225 224 222 223 223 223 217 208 205 203 205 200 194 189 181 175 158 145 105 58 23 19 16 9 7 13 1 1 7 7 31 4 3 0 7 22 54 76 94 110 120 130 137 139 140 144 149 155 160 160 165 173 177 180 186 187 187 195 199 200 199 210 205 201 196 193 190 193 201 202 200 201 207 211 212 215 217 220 223 222 223 224 224 221 222 221 222 218 215 217 220 224 224 223 221 223 222 222 216 207 205 203 201 196 191 193 185 179 168 152 115 62 53 14 15 47 7 5 7 0 9 2 9 20 11 7 8 19 59 75 93 108 126 133 138 137 143 147 153 158 162 162 166 171 177 180 184 187 191 191 200 196 200 203 204 199 195 190 196 191 195 203 202 199 201 213 211 220 219 214 216 220 218 216 215 214 211 226 218 213 211 208 206 206 209 209 223 220 217 219 224 210 208 207 201 195 196 193 193 178 182 163 126 85 55 15 12 39 18 18 12 27 44 37 0 17 15 2 8 25 59 74 90 109 128 136 139 139 147 151 157 162 164 165 166 171 177 177 181 184 193 192 201 195 198 209 206 197 201 193 191 190 191 194 193 190 191 203 205 193 206 217 188 205 203 203 199 197 206 197 199 189 186 202 203 182 187 191 201 204 205 216 215 209 207 201 202 195 197 199 196 191 189 174 152 127 79 35 15 21 16 12 17 30 49 31 57 9 13 5 7 29 56 73 90 107 129 136 148 141 139 149 155 160 166 165 167 171 177 174 178 180 187 186 197 195 195 196 199 197 196 197 195 194 192 195 194 192 185 198 176 188 159 193 154 184 169 150 159 160 130 135 146 151 136 162 172 156 167 171 183 180 177 178 196 202 204 205 202 195 197 202 199 201 190 175 164 121 109 39 18 16 11 6 12 38 10 39 39 39 0 7 1 37 54 69 85 113 135 144 139 135 135 142 155 164 162 147 167 142 164 168 172 164 165 183 192 189 195 201 199 198 197 194 186 199 188 194 183 185 185 185 164 143 168 180 112 133 130 99 96 117 110 119 110 113 114 125 131 142 133 131 135 144 158 188 182 206 203 203 202 202 196 196 194 195 191 185 173 127 119 72 28 18 38 22 0 0 17 25 23 41 12 12 1 42 53 73 91 119 138 137 136 134 139 140 140 123 122 122 92 120 128 138 152 165 155 171 174 186 195 197 195 194 189 196 196 187 189 182 186 175 167 127 169 149 170 134 113 117 65 101 76 78 81 84 91 85 82 114 91 109 100 108 103 146 128 153 158 196 192 194 193 196 191 195 194 194 192 190 182 151 121 110 33 31 33 2 11 0 18 38 19 26 2 9 3 32 54 72 97 112 128 101 87 118 106 91 63 78 75 82 93 81 114 135 122 141 143 170 173 184 183 193 189 186 188 183 191 191 186 181 180 177 154 148 126 153 137 91 122 108 106 64 91 76 93 93 105 103 97 111 113 108 105 130 153 123 137 127 123 141 184 185 192 198 197 192 199 198 189 189 177 128 100 97 30 42 36 9 4 14 19 44 46 114 16 14 11 31 58 67 92 95 79 101 47 62 68 43 41 36 51 51 77 63 86 118 111 122 132 167 167 175 176 184 184 184 179 181 182 191 182 177 176 173 151 156 139 160 128 119 137 103 109 123 123 133 139 137 132 139 133 128 140 147 141 138 133 115 124 149 162 166 163 183 189 198 200 200 200 197 190 191 178 121 75 49 30 36 45 7 4 7 62 22 126 222 11 15 37 31 53 74 66 63 70 67 55 54 38 44 40 44 36 55 41 76 80 81 99 136 131 153 143 165 171 167 173 178 186 187 180 182 181 174 168 162 160 142 139 154 135 127 126 125 120 117 121 113 104 110 115 107 108 119 117 120 122 134 126 153 164 139 154 162 182 183 196 198 193 195 199 198 196 196 174 147 68 40 36 41 66 15 20 47 47 161 214 195 23 10 16 24 66 66 50 51 39 35 38 36 41 48 52 56 73 76 80 77 92 92 101 108 104 148 149 150 158 167 173 179 184 184 188 177 177 170 157 157 156 144 133 135 124 127 114 101 93 87 97 117 102 80 52 29 38 51 87 97 86 86 124 138 152 155 158 170 179 188 193 200 197 200 197 202 200 198 204 179 99 54 28 25 34 31 74 129 166 178 158 193 11 20 18 21 69 68 42 60 49 61 54 64 84 95 107 114 120 123 110 110 99 87 85 81 93 103 129 139 146 152 159 168 176 183 190 192 183 177 164 162 149 144 137 127 122 118 101 111 110 122 113 53 25 27 30 80 43 34 17 40 81 108 98 98 136 151 151 159 169 181 190 193 197 203 201 205 202 199 205 178 134 93 75 51 65 28 115 97 147 168 142 82 15 10 20 20 73 55 60 41 34 77 78 87 99 113 120 126 128 100 94 83 90 95 75 60 68 87 89 109 129 144 152 165 176 189 200 198 192 187 173 167 159 148 138 128 126 115 123 121 127 107 65 150 37 48 24 14 46 41 38 93 29 45 87 113 103 150 165 156 164 182 194 193 205 207 205 209 204 202 200 185 146 103 71 63 70 66 79 142 148 101 155 140 30 32 17 17 78 66 63 61 61 97 79 99 116 106 94 66 66 43 10 23 14 42 56 99 107 107 47 73 100 123 149 162 177 188 208 205 204 198 188 179 166 145 138 138 128 120 135 131 96 102 185 177 61 53 43 55 61 48 81 115 107 101 108 81 96 131 148 164 177 184 191 202 205 207 205 208 201 200 201 195 150 131 77 37 21 40 126 153 152 188 184 179 20 27 22 21 84 82 91 100 105 98 108 99 77 74 83 35 33 14 26 46 143 167 28 33 87 113 139 97 69 103 138 164 185 204 219 218 217 208 194 184 167 164 152 167 145 151 123 84 151 118 155 162 123 66 51 106 118 154 153 149 161 173 165 172 156 170 172 182 190 197 195 203 203 206 207 205 201 199 205 187 171 129 102 52 38 89 140 156 208 216 211 192 46 25 32 12 97 98 115 107 113 97 99 76 69 54 16 80 108 36 40 38 13 41 55 62 179 123 84 136 97 84 126 161 174 197 208 214 217 210 197 187 184 168 177 184 184 155 163 128 136 123 128 118 125 142 153 133 157 105 155 171 176 177 186 189 200 195 194 201 203 210 203 209 209 206 209 203 200 198 199 199 183 135 113 83 106 110 137 221 216 230 208 201 60 50 25 21 101 97 110 103 104 97 84 61 37 25 56 120 137 53 36 44 58 36 55 94 106 107 97 106 137 80 115 153 175 190 204 214 213 209 195 186 192 182 183 194 192 190 179 159 150 151 145 133 153 158 138 150 166 159 163 173 179 185 192 198 203 200 205 206 209 212 213 211 210 210 207 206 199 201 204 198 191 180 119 122 117 149 132 165 201 214 206 204 73 46 24 30 111 103 113 107 100 89 77 36 43 54 80 116 106 104 140 134 125 113 149 167 143 138 135 148 148 88 113 152 173 187 203 208 211 205 194 192 188 185 176 191 180 169 162 158 148 147 153 157 167 170 170 155 172 172 174 179 185 193 197 204 210 208 210 213 213 211 213 211 209 208 206 205 202 203 198 195 192 177 183 129 128 138 121 130 164 196 194 201 57 25 38 36 118 115 120 124 116 99 88 63 80 102 99 107 105 101 101 92 130 151 158 163 156 162 153 148 120 110 117 157 176 183 200 209 205 203 197 196 198 197 190 185 177 181 175 167 166 157 163 163 162 154 164 165 167 174 179 189 196 203 208 208 206 209 210 208 210 214 210 208 208 207 207 202 200 196 198 196 193 184 161 161 137 126 143 135 153 172 185 198 37 63 43 56 113 116 122 128 135 122 104 112 98 109 108 114 116 117 125 134 149 155 169 163 154 152 143 147 129 110 118 157 170 185 207 212 210 206 199 197 198 199 193 197 186 185 187 182 181 176 179 169 180 184 184 187 191 195 198 203 207 212 213 213 212 211 211 209 212 212 211 209 208 209 209 203 200 197 194 193 189 186 181 188 142 147 159 148 152 165 180 193 10 39 43 63 125 118 128 134 137 136 131 125 118 119 118 123 130 127 132 134 135 147 144 145 161 166 158 142 137 112 121 160 173 184 202 206 209 209 201 197 200 203 200 197 193 197 191 189 188 189 188 191 194 190 191 197 203 205 203 208 209 210 213 213 213 212 212 212 214 210 211 210 208 205 204 199 199 198 198 195 191 188 187 167 144 181 169 161 158 167 185 203 22 56 51 72 126 124 124 135 137 140 134 130 133 128 121 135 134 137 131 141 150 159 169 171 164 173 149 154 135 113 126 157 176 182 197 206 209 208 206 202 201 202 205 201 202 200 203 207 199 197 194 195 193 194 201 206 205 203 205 211 208 208 212 213 212 215 215 211 210 210 208 209 209 202 203 197 197 197 197 194 190 185 179 173 168 201 187 176 173 174 189 200 17 41 49 96 127 127 126 139 141 135 138 137 142 142 133 138 144 150 162 165 162 161 173 177 183 162 153 145 125 115 128 159 178 187 205 211 213 211 208 203 204 206 208 207 210 205 203 212 208 205 201 191 200 202 198 200 207 206 208 210 211 213 214 214 213 217 216 214 211 210 206 207 207 202 203 198 198 198 194 192 188 187 181 157 133 212 191 196 188 189 190 211 9 19 38 96 135 129 126 137 137 141 141 141 149 147 149 153 156 158 164 169 163 172 176 177 163 162 156 139 117 118 131 161 175 185 205 216 218 213 210 205 210 210 211 207 208 205 210 214 213 211 207 196 206 197 194 193 205 205 207 207 212 216 215 216 215 219 219 217 213 207 204 207 206 201 202 196 198 198 197 194 191 189 185 131 169 213 192 210 192 190 208 218 3 6 61 107 129 125 130 134 134 140 143 146 153 149 153 156 159 163 169 176 169 179 181 178 164 160 148 132 125 119 130 162 175 191 208 216 219 215 216 211 206 209 213 210 215 206 209 211 214 214 212 211 207 204 200 203 205 203 207 213 215 219 221 220 218 217 215 210 210 212 206 202 198 199 189 197 197 194 191 189 184 187 180 160 160 190 204 200 182 190 201 222 1 3 38 98 126 129 127 133 136 139 139 144 149 152 157 160 164 169 173 179 171 177 174 174 169 158 146 127 123 122 134 166 178 194 211 215 218 214 214 208 208 211 215 215 213 210 212 212 212 212 211 213 208 212 207 209 211 210 213 217 218 218 218 218 220 215 212 211 212 212 206 203 199 197 195 197 195 193 185 185 186 178 162 156 137 195 185 188 182 192 202 219 3 6 6 88 131 125 133 130 132 140 144 147 155 157 162 165 171 170 168 170 174 171 171 167 169 154 138 129 121 123 141 169 179 191 204 216 219 216 216 211 210 212 217 219 214 212 214 214 210 214 212 209 211 210 210 214 214 214 216 220 217 213 216 216 216 211 212 213 211 211 205 203 199 195 197 198 190 190 190 186 185 183 170 166 164 183 189 206 215 213 220 215 3 5 6 88 128 128 130 132 132 138 142 144 152 158 162 164 169 170 171 167 166 172 172 172 164 149 134 131 117 122 145 168 180 193 204 217 220 216 215 210 213 214 215 211 214 215 215 211 205 208 208 208 205 209 214 215 217 218 218 222 218 215 213 211 210 210 206 207 207 204 202 201 199 201 194 190 191 190 189 182 179 167 175 150 132 159 201 216 226 217 204 188 3 6 14 78 131 127 128 133 135 136 144 145 153 155 160 162 165 170 164 169 169 162 173 168 161 142 135 129 117 125 146 165 178 192 209 217 224 221 217 213 210 208 207 205 205 205 212 215 216 209 211 210 207 210 218 219 222 222 222 217 218 218 212 211 208 210 205 203 202 200 201 198 195 199 195 191 190 189 192 184 178 157 154 116 152 165 212 221 218 214 192 190 0 6 15 71 124 129 128 129 130 139 136 146 151 155 159 169 167 168 170 175 168 169 176 164 159 140 134 121 116 122 149 169 181 194 216 215 222 225 217 216 208 198 205 206 203 194 199 209 215 220 209 213 219 216 222 218 220 219 217 219 217 215 213 216 206 207 208 203 199 197 197 198 197 195 196 190 189 189 189 183 172 166 154 133 121 164 221 223 214 216 201 202 6 8 30 70 111 132 127 122 128 134 139 147 154 160 156 162 164 167 161 169 169 173 166 170 156 144 134 121 119 132 151 164 182 195 205 217 223 227 220 215 208 201 201 213 208 198 191 202 213 205 214 217 218 212 220 222 222 217 216 211 208 206 210 213 204 203 202 200 200 196 197 198 197 196 196 191 189 188 186 180 176 173 129 131 170 181 225 218 217 222 214 214 15 14 31 55 105 127 129 120 124 130 134 143 150 155 159 166 168 172 168 174 167 169 173 165 154 147 134 121 119 132 154 167 175 198 205 216 222 229 222 215 214 211 204 203 201 195 190 188 188 198 202 202 212 214 217 221 224 219 216 214 213 211 208 211 202 208 202 200 200 197 197 198 197 195 196 190 185 186 191 182 166 171 127 117 157 213 214 222 223 222 225 221 0 8 35 41 64 125 130 124 122 127 131 140 150 153 155 162 161 172 173 173 173 176 175 166 160 150 129 117 119 134 149 170 181 199 212 213 220 225 225 215 214 215 210 207 207 202 199 197 191 183 191 195 212 210 220 214 213 219 215 214 212 211 213 207 206 203 201 201 196 196 192 195 197 194 193 191 190 188 184 177 148 161 136 143 148 199 218 230 221 221 214 218 11 18 17 23 60 121 129 125 121 121 132 136 143 147 151 162 159 170 171 172 172 171 174 170 167 150 121 121 124 140 153 169 183 202 219 218 221 224 222 212 217 218 218 218 215 208 197 190 195 178 179 181 194 201 210 217 221 217 213 212 210 209 209 204 200 198 198 196 193 197 198 199 201 192 191 189 187 186 196 204 179 132 161 152 151 211 204 218 223 220 222 210 19 14 38 33 48 113 125 121 119 122 129 133 138 143 149 162 158 168 171 173 171 165 170 167 170 153 127 124 127 143 156 169 188 212 229 221 220 219 216 207 221 216 210 220 214 206 199 181 187 186 168 167 178 189 200 209 216 216 213 213 208 207 204 201 197 202 200 195 191 196 196 197 199 196 195 193 184 185 175 174 171 163 171 121 137 202 208 197 212 138 161 179 3 5 8 8 68 92 119 125 123 120 126 131 137 141 149 160 159 165 170 168 172 169 172 173 167 151 129 134 128 138 151 169 183 204 219 218 214 211 203 200 204 206 201 193 190 190 197 177 192 187 174 174 179 190 200 205 203 204 204 206 207 204 206 204 201 198 197 199 196 196 198 194 198 199 190 190 189 184 187 186 169 176 139 122 152 213 190 163 150 155 74 179 5 8 1 8 30 61 113 123 122 119 123 130 134 142 147 154 159 165 167 170 170 167 172 180 175 139 133 135 122 134 147 165 174 185 193 203 202 195 195 189 189 185 175 166 171 175 176 176 199 198 187 174 167 178 184 200 204 202 202 201 201 200 203 201 199 197 196 196 197 195 198 195 197 198 189 189 184 189 161 173 204 178 135 118 139 170 157 98 106 117 179 28 5 0 12 0 50 70 104 119 121 121 118 126 133 134 142 148 156 162 165 171 170 167 165 176 184 130 125 124 115 124 126 153 162 175 178 187 182 183 180 177 173 85 53 87 137 144 147 191 201 204 200 194 177 178 184 190 200 197 194 197 197 195 201 200 201 199 198 199 199 198 193 198 197 190 199 190 199 178 174 183 190 170 146 141 116 144 65 82 9 47 95 26 8 11 2 13 25 57 103 112 121 125 120 125 129 133 141 147 154 162 165 168 170 170 179 179 169 118 124 109 80 93 94 146 149 164 168 175 171 182 167 104 82 149 161 169 145 133 177 202 205 205 202 195 182 177 183 190 199 198 197 196 196 196 202 199 201 203 196 197 200 200 197 200 195 192 196 193 189 160 154 146 197 152 137 99 138 19 51 17 18 9 28 43 9 9 2 0 37 70 85 108 117 123 122 123 125 131 139 145 150 160 166 163 168 171 170 174 166 126 85 111 119 106 47 114 130 147 155 163 163 185 100 153 169 186 182 182 164 190 208 207 210 204 204 203 196 187 183 186 192 191 195 196 196 196 201 199 200 197 198 200 201 200 199 199 193 184 185 185 187 195 173 148 145 156 132 113 74 27 22 1 16 19 20 60 9 9 6 18 29 48 59 97 114 125 119 126 130 128 139 138 153 155 167 164 168 164 178 179 165 147 122 92 112 128 100 68 101 134 136 144 152 138 148 177 185 188 189 188 196 216 204 204 209 208 205 203 200 196 187 183 184 190 186 191 196 194 198 204 200 201 201 203 199 200 199 198 192 197 167 180 163 188 177 164 170 120 145 65 52 48 38 6 3 17 10 34 9 10 10 7 21 46 56 90 104 125 122 126 126 130 133 137 151 151 164 162 166 168 176 168 156 151 135 132 116 114 112 112 63 89 117 119 137 149 177 186 177 168 162 167 186 174 197 193 202 207 212 201 204 206 198 191 187 190 189 190 196 196 195 196 198 203 201 200 197 199 204 196 194 185 182 177 169 178 175 168 183 122 109 77 29 19 13 5 7 1 11 13 9 8 15 7 7 33 43 86 101 118 126 127 124 131 128 135 147 148 162 160 164 166 171 163 156 150 138 132 120 117 119 111 113 109 95 97 129 163 168 156 154 122 114 169 173 161 177 193 206 211 211 214 208 204 206 197 189 190 193 192 198 197 198 195 203 205 199 198 195 197 189 203 181 189 185 166 182 171 184 167 127 122 109 74 39 34 15 1 6 6 4 6 4 2 9 8 8 19 38 56 99 113 123 125 129 128 135 138 142 149 151 159 162 165 168 164 156 147 133 125 110 95 87 75 87 134 169 167 158 143 147 123 106 127 117 105 113 144 126 165 179 197 195 194 217 198 206 206 203 190 188 191 194 197 199 199 198 202 199 200 199 199 191 184 187 181 161 154 157 148 141 149 112 126 102 100 58 60 22 34 6 4 9 11 4 2 1 7 15 30 38 62 104 118 118 121 126 128 134 138 141 147 149 157 160 164 168 165 154 154 140 117 83 67 61 66 82 101 164 150 153 155 124 134 99 101 85 101 87 113 95 148 138 159 165 187 174 191 196 202 208 195 190 193 195 200 201 201 200 202 200 195 192 192 197 193 176 139 182 161 161 133 158 140 132 112 106 57 46 15 25 17 15 3 14 17 3 0 4 4 5 20 46 44 96 116 113 119 122 128 133 137 140 146 146 152 160 163 166 163 152 134 133 112 62 48 72 66 71 105 129 121 152 158 114 94 94 120 99 87 112 143 109 136 127 146 155 165 141 192 174 175 187 190 204 196 197 200 200 202 202 203 200 201 197 196 182 178 172 165 163 160 122 145 160 135 127 118 84 23 45 10 0 16 35 13 17 17 2 8 7 0 6 9 46 40 73 116 110 112 126 123 131 142 144 144 149 152 157 165 152 156 148 126 101 75 62 45 63 64 97 94 103 115 145 144 115 93 101 112 111 96 123 123 110 108 113 135 156 146 177 161 179 162 171 177 164 185 192 199 198 202 200 197 200 189 191 187 175 173 176 185 157 167 172 163 169 163 141 135 78 35 28 7 17 14 8 18 1 9 26 12 9 3 5 26 45 29 76 90 92 117 113 124 130 140 140 142 136 148 154 144 155 123 134 91 92 50 44 39 58 99 61 111 166 145 158 156 154 129 120 164 110 127 112 87 115 110 121 137 145 132 164 131 144 160 147 162 168 169 186 192 201 201 196 201 190 193 193 190 182 139 174 177 157 143 170 194 157 95 128 95 50 45 11 6 5 25 17 9 23 2 30 26 19 6 2 11 19 44 47 73 101 93 113 120 126 129 136 141 140 154 134 130 95 106 94 78 69 59 40 81 81 83 86 144 187 180 186 189 171 186 205 156 110 74 110 98 95 100 172 130 142 147 153 129 141 176 171 146 132 166 185 192 184 200 202 199 198 158 185 178 179 147 120 151 186 115 175 127 149 82 118 109 31 26 19 14 3 17 0 32 9 11 24 18 13 8 10 2 34 42 30 66 81 84 99 105 129 127 135 140 151 125 129 108 93 94 86 67 64 56 66 73 73 109 123 151 168 176 192 206 192 156 142 138 148 89 128 89 98 123 152 119 139 152 116 121 145 146 167 153 140 147 154 190 203 197 196 191 191 187 170 172 166 156 147 135 127 94 183 117 159 120 112 83 50 22 37 10 2 5 6 10 15 12 39 26 21 10 4 11 21 35 32 40 67 83 81 97 116 126 134 138 129 115 122 82 99 84 92 70 72 54 66 76 82 100 127 142 138 141 152 169 153 141 142 141 146 148 143 141 114 114 102 136 118 120 115 110 119 144 140 128 134 121 149 169 207 200 199 179 162 166 175 137 138 153 162 106 128 94 161 91 85 54 82 45 33 15 12 22 2 7 34 7 24 18 27 38 29 12 9 8 8 6 29 44 64 77 87 91 116 135 127 140 114 105 78 78 74 59 75 86 78 89 115 68 98 131 122 136 140 137 139 137 140 125 130 127 132 137 129 134 123 119 104 109 129 118 100 97 84 147 129 117 109 123 120 118 173 178 158 170 160 169 162 143 139 154 157 142 143 93 160 113 96 87 81 50 41 8 2 4 15 16 6 2 6 13 39 39 28 15 4 8 15 11 21 54 55 83 85 72 86 105 131 126 102 115 110 71 74 89 90 80 107 90 97 99 114 103 119 124 119 120 114 126 141 134 116 76 65 66 76 89 118 141 140 116 98 72 53 70 103 132 150 120 116 94 118 161 156 170 163 183 181 156 172 156 152 155 157 157 141 129 123 118 76 84 90 33 59 6 3 2 0 11 21 24 17 18 40 43 27 18 3 3 25 29 37 28 57 60 57 70 86 116 124 102 106 63 78 80 55 89 81 61 118 94 82 97 85 84 45 47 73 65 77 61 83 102 130 139 148 149 156 155 174 173 162 142 130 126 141 149 127 114 129 136 117 77 99 152 146 148 157 183 164 171 146 145 122 117 139 170 136 115 72 146 96 64 56 1 14 6 2 12 5 0 9 28 26 17 44 41 38 4 3 11 19 4 35 32 60 78 57 54 77 101 107 84 97 58 86 54 70 87 71 92 90 77 62 78 84 100 100 120 129 131 140 152 157 158 170 165 165 180 186 188 174 173 173 172 175 180 184 184 179 173 165 141 107 137 132 130 140 180 128 164 169 149 132 139 182 100 127 151 121 126 108 114 88 91 94 39 25 2 2 11 8 3 13 41 54 55 45 50 38 14 12 15 20 13 21 32 36 41 63 51 74 82 81 111 94 53 83 83 93 92 113 91 92 74 85 97 109 117 125 137 150 160 170 181 176 174 180 176 179 186 183 180 181 191 200 205 198 193 190 192 191 198 195 177 161 140 131 174 112 81 167 135 151 152 124 137 139 139 113 129 113 100 94 105 67 77 63 34 2 13 11 16 17 4 14 23 40 31 30 46 47 10 13 45 12 12 8 16 32 47 65 55 64 62 60 112 62 59 59 102 95 127 149 138 122 111 107 117 115 122 138 146 155 173 179 177 178 172 175 181 182 177 179 190 203 203 200 200 200 194 199 206 206 210 204 196 181 147 138 122 120 131 152 144 122 127 137 125 107 155 106 111 75 99 63 87 75 53 43 8 4 3 12 18 4 3 3 19 6 14 44 49 45 6 10 5 3 10 12 9 8 26 49 46 56 67 85 111 83 85 82 90 121 152 152 140 140 128 134 124 122 127 136 146 151 162 170 176 179 177 173 179 178 189 196 204 194 195 199 200 201 200 205 210 212 212 207 194 192 202 173 113 128 152 163 144 116 111 121 132 108 128 79 75 75 56 37 48 49 73 70 5 2 5 9 19 17 6 36 18 32 48 49 49 43 26 18 27 31 0 5 5 13 34 15 44 52 71 75 58 81 53 87 114 152 159 153 145 137 135 142 136 138 140 152 157 150 164 171 170 179 170 170 177 176 178 177 181 191 195 196 198 204 209 211 213 213 210 203 198 200 192 184 152 130 140 127 128 130 121 101 122 71 83 69 61 72 74 48 45 60 78 52 2 1 7 10 18 22 16 17 13 37 49 45 49 50 37 28 12 10 0 0 4 0 36 30 29 38 74 61 87 76 95 69 131 151 160 160 147 136 137 144 140 143 146 151 154 145 146 153 151 150 142 143 146 157 172 176 180 193 197 196 201 208 209 213 216 212 213 200 207 205 194 177 178 150 152 115 129 84 82 99 94 83 81 53 33 51 38 60 19 119 120 54 6 3 5 8 80 171 138 11 17 20 39 45 47 50 42 26 28 11 3 1 3 10 27 37 10 38 85 60 59 98 104 131 133 150 154 161 154 145 140 144 142 140 138 145 147 147 141 138 127 136 137 135 143 159 158 167 181 188 193 206 208 213 212 212 212 210 206 203 195 204 205 185 161 142 111 116 92 95 91 96 112 51 79 49 48 54 37 43 81 102 129 72 1 8 129 181 143 196 119 92 20 25 26 45 44 46 39 36 32 36 14 2 3 13 10 39 26 35 37 36 50 67 91 114 137 150 149 156 154 150 143 145 142 135 129 128 127 133 134 116 122 131 113 144 145 155 162 160 178 193 202 208 209 211 215 212 209 216 206 194 195 171 154 168 137 133 96 91 100 68 70 62 86 38 54 34 56 43 83 74 125 136 131 72 11 13 57 176 209 197 197 160 28 22 27 46 45 40 41 32 37 30 34 3 8 15 18 27 36 22 49 36 52 72 88 122 118 144 148 150 151 150 148 146 145 138 124 126 139 134 139 117 137 143 132 138 165 147 165 174 180 203 201 207 216 213 214 215 211 216 208 203 183 158 157 134 140 124 81 111 88 68 56 51 50 38 51 29 33 29 51 129 152 154 148 60 6 7 5 16 72 226 215 218 128 7 18 45 44 45 39 38 29 53 28 18 12 14 4 9 59 55 47 35 48 58 67 94 108 133 147 150 154 154 151 148 152 139 141 141 144 164 129 156 139 167 143 142 173 179 184 191 200 198 208 208 216 213 214 215 211 212 212 199 184 154 164 136 120 92 102 57 73 42 51 51 45 24 7 27 35 54 106 155 161 176 156 64 14 11 2 17 3 5 230 205 185 13 21 44 44 46 39 41 32 22 42 43 22 7 6 14 52 36 20 37 40 31 77 87 109 127 150 149 155 157 152 149 135 136 140 155 164 141 137 162 169 162 137 184 187 199 199 197 205 210 220 208 216 213 214 216 211 207 196 176 172 127 157 123 120 62 84 28 64 37 43 35 30 25 12 26 30 94 157 150 179 173 156 95 13 12 5 12 11 2 1 203 191 117 17 44 43 44 44 45 38 42 19 11 33 28 13 117 105 29 19 26 17 44 46 72 80 128 135 144 158 159 155 153 157 155 154 160 160 162 160 176 178 158 194 195 206 201 209 210 214 216 213 220 216 210 210 214 212 211 202 167 148 157 98 87 79 59 53 52 38 40 29 8 53 1 26 51 31 102 161 180 173 175 162 75 15 17 5 4 6 25 13 3 184 129 34 44 43 45 45 44 42 42 42 50 73 173 213 128 14 21 35 15 46 29 46 57 73 119 109 132 155 163 162 159 158 159 162 162 167 169 154 187 171 162 194 209 215 206 210 210 215 218 215 218 214 209 212 208 199 201 195 174 143 122 104 64 81 52 32 68 37 37 6 29 21 12 13 50 93 110 174 174 192 179 165 57 16 20 11 15 2 13 25 7 9 15 3 44 44 44 44 46 46 46 53 56 94 171 122 10 0 37 8 26 26 17 46 50 75 81 122 123 136 152 168 163 161 164 171 166 172 163 171 179 168 196 202 198 194 209 205 208 205 217 224 215 219 218 199 213 176 182 173 170 124 110 66 53 50 51 38 50 39 14 7 20 10 19 63 83 126 183 189 189 187 188 168 51 22 31 26 11 20 7 26 12 23 8 5 44 43 45 44 46 45 45 45 46 90 127 15 1 1 11 9 20 35 8 36 31 56 88 99 122 134 142 154 164 160 161 159 159 162 153 161 136 164 198 159 189 173 212 205 206 213 219 200 216 200 197 183 198 179 168 153 147 110 110 78 58 49 17 33 66 11 31 22 8 22 46 124 85 164 180 191 189 187 183 166 44 27 28 16 13 9 12 10 0 0 0 6 44 44 44 45 45 45 45 41 49 116 15 12 1 7 4 9 9 30 25 31 14 44 46 62 82 94 134 129 156 147 157 155 159 157 145 106 144 181 177 181 177 178 200 204 192 199 196 189 181 197 189 169 164 150 131 161 117 125 73 68 35 32 25 20 26 21 15 11 34 27 69 159 160 176 190 181 189 187 179 164 34 28 33 25 16 4 2 1 0 2 8 11 42 41 45 45 44 44 44 48 52 21 5 8 1 0 6 6 18 29 14 20 17 18 55 69 65 105 104 122 113 156 138 144 154 128 136 119 128 150 164 142 155 175 192 188 174 157 183 148 187 169 160 142 131 137 105 126 117 71 48 62 51 20 13 17 8 19 20 22 29 89 144 151 179 176 191 193 187 185 178 162 20 31 38 34 19 4 5 0 9 6 9 30 42 42 45 45 45 46 47 46 29 21 8 10 5 1 6 4 0 51 26 11 24 34 28 43 85 68 86 77 116 93 132 110 102 126 125 96 156 132 162 119 174 171 151 138 138 150 157 139 142 105 110 125 135 83 106 83 83 62 45 39 73 32 6 16 16 19 32 44 57 109 135 151 185 184 183 188 190 188 182 176 15 34 44 38 29 15 6 3 3 7 14 59 40 42 45 45 46 46 49 33 17 8 7 10 5 2 10 8 1 49 52 14 23 37 27 44 41 72 54 55 74 87 101 101 127 122 104 94 113 110 120 151 140 170 163 128 136 138 135 119 112 108 93 87 130 91 69 70 56 40 25 30 2 55 6 25 36 26 32 37 75 109 121 116 188 196 182 190 183 182 181 184 9 38 46 40 41 26 7 8 0 9 51 46 40 42 40 43 44 41 27 16 23 14 13 18 2 2 12 9 7 53 62 46 22 28 22 10 68 35 42 52 36 54 70 104 107 127 73 112 129 122 103 152 108 126 156 107 106 109 108 114 103 72 61 118 101 76 51 51 51 11 20 23 11 29 11 26 23 19 33 50 79 117 177 156 186 191 187 193 187 182 179 176 19 40 47 43 43 37 20 6 7 17 33 55 42 42 45 42 40 28 20 12 15 20 19 20 0 10 11 8 2 21 58 65 24 25 0 19 43 39 16 41 56 54 52 59 80 100 67 88 104 132 96 128 88 95 146 109 86 108 105 108 99 83 63 79 80 41 59 35 24 16 13 10 15 19 25 18 5 25 42 110 121 151 162 177 183 191 198 187 188 184 183 160 26 42 50 46 47 46 33 1 6 23 19 46 39 43 35 25 21 28 18 16 15 13 26 11 0 13 10 7 3 5 69 42 31 18 13 30 20 15 30 35 55 38 40 48 55 73 34 101 131 109 85 119 64 112 92 84 98 73 95 72 72 94 42 65 39 39 31 25 8 18 7 14 24 13 4 36 24 31 57 100 126 153 184 189 188 176 182 192 181 181 177 90 20 45 51 50 48 47 45 14 8 33 48 38 42 24 13 24 17 24 16 18 12 17 30 5 3 11 10 9 6 7 80 62 31 25 17 6 9 33 33 48 17 65 58 34 44 51 52 76 90 64 65 58 63 109 75 65 78 49 67 58 53 47 53 25 42 12 20 2 21 10 23 34 34 15 9 14 44 53 87 115 132 170 189 193 185 192 187 184 179 183 171 58 24 49 53 53 51 51 45 18 8 38 51 50 20 18 18 31 24 16 22 13 16 23 27 1 7 10 10 7 3 13 64 79 56 31 18 5 1 31 22 28 51 20 60 36 44 55 49 68 72 56 69 48 69 47 63 49 43 38 50 64 24 28 24 10 34 27 13 9 39 26 11 33 2 13 30 22 21 79 89 139 177 161 190 187 194 178 188 187 185 179 143 58 27 50 55 55 54 52 50 22 8 40 53 57 9 19 21 31 27 17 26 9 12 22 17 2 10 13 10 10 5 17 54 81 53 46 33 21 18 22 11 13 21 34 36 46 26 45 35 46 48 76 40 55 62 53 44 67 25 18 26 30 16 19 28 36 9 15 14 36 34 14 40 26 29 24 25 34 75 49 139 171 194 164 182 189 165 177 181 195 185 165 135 48 34 52 56 55 58 55 54 25 9 36 46 57 11 25 27 25 16 13 25 29 18 17 12 3 9 13 9 10 4 24 59 70 80 53 37 25 15 16 11 10 18 14 14 16 20 7 25 42 25 33 34 28 30 29 24 45 19 15 22 14 16 19 28 2 43 20 13 42 4 13 22 28 29 41 43 91 73 113 170 182 177 180 188 194 176 191 183 178 181 155 105 55 36 54 58 56 57 54 53 27 7 41 49 55 15 38 36 28 20 24 16 15 22 15 6 4 8 13 10 9 1 32 59 76 91 82 59 45 24 22 11 8 6 31 0 0 6 16 13 12 22 16 7 11 26 22 25 20 24 18 10 11 8 13 18 13 29 13 33 9 26 35 25 41 32 50 60 58 44 143 184 170 168 171 188 176 181 185 189 185 165 138 100 54 38 55 61 60 58 54 52 27 5 26 42 56 19 24 42 25 12 28 28 18 19 15 1 3 11 13 12 8 8 44 56 72 93 89 67 52 40 28 16 16 4 5 5 5 5 10 7 7 11 3 18 8 16 12 16 9 7 16 5 11 4 18 14 31 38 23 23 21 30 66 48 47 53 118 58 95 133 159 156 166 171 170 179 196 187 180 182 174 155 133 98 37 44 58 58 58 55 54 55 27 6 41 45 49 19 23 43 44 38 12 12 21 10 19 1 3 12 13 12 9 21 47 57 70 88 91 104 95 68 38 15 18 11 16 9 6 11 13 0 5 15 4 21 3 13 1 12 5 11 12 14 10 15 17 11 15 78 10 17 19 35 54 59 44 104 125 146 148 164 175 170 133 185 166 190 185 192 187 179 162 136 121 100 30 58 58 58 58 55 55 54 30 6 34 61 56
