P2
# Generated by OpenCV 4.2.0
92 112
255
35 34 32 30 30 32 29 26 39 41 48 39 31 42 40 36 33 27 29 30 34 51 62 59 58 54 58 75 84 88 95 92 88 100 109 109 103 111 119 142 154 152 139 131 130 132 132 123 112 107 106 102 93 88 83 75 72 68 66 63 57 52 53 58 50 54 58 57 54 52 48 40 33 33 27 28 30 34 40 47 46 43 41 38 38 38 33 41 40 39 53 66 25 32 34 33 32 30 28 27 37 42 46 33 27 37 34 31 30 28 28 25 34 54 77 76 71 65 70 85 86 98 111 99 84 86 99 100 95 100 107 126 147 148 148 152 155 152 151 145 144 140 130 126 118 110 101 93 88 86 78 70 68 66 63 62 57 61 58 54 50 47 43 40 38 34 31 31 35 38 41 42 40 40 40 38 34 33 31 39 39 41 54 59 26 32 37 37 35 32 28 32 37 40 36 27 24 35 30 28 30 34 33 35 52 74 94 97 100 93 91 97 92 91 109 101 80 87 94 92 105 104 106 117 133 150 158 166 173 166 169 170 167 160 150 148 145 139 130 119 112 107 95 88 82 76 73 70 69 65 60 56 49 46 42 42 42 36 34 34 37 38 38 37 34 35 38 40 39 36 33 32 37 42 44 67 24 30 39 36 29 28 28 38 39 37 30 27 28 33 32 35 38 47 57 69 89 103 117 135 153 151 147 144 128 103 102 116 108 99 97 96 91 98 101 114 130 148 165 174 178 180 184 185 179 175 167 164 163 161 155 145 136 127 116 108 100 92 86 81 79 73 67 64 59 51 46 45 42 40 36 34 35 35 37 34 34 35 40 42 42 38 35 34 36 37 40 57 26 30 40 39 28 24 27 36 39 36 28 28 31 31 32 43 54 68 88 107 122 126 138 171 187 194 196 196 188 166 145 137 137 126 123 132 113 101 104 113 130 153 169 183 185 188 189 188 184 184 179 175 174 173 170 161 154 147 139 126 114 107 102 93 87 83 75 71 68 56 51 49 45 42 37 32 32 35 38 33 34 36 40 44 43 39 36 33 33 34 38 45 30 38 40 40 28 24 33 34 39 32 28 30 32 35 41 55 70 89 117 142 153 154 162 195 208 213 212 214 210 200 195 186 171 165 148 150 150 134 127 128 137 159 176 185 189 191 189 186 184 185 183 181 177 176 174 169 164 159 154 140 127 121 118 110 101 92 83 79 74 65 58 53 48 44 41 37 34 36 39 38 38 36 35 37 39 38 33 32 31 34 38 43 33 41 38 38 25 24 37 33 33 29 28 32 40 48 58 75 88 110 142 168 183 182 186 207 213 216 218 217 216 210 207 204 199 196 190 175 168 170 161 157 160 166 176 185 191 190 190 188 184 184 185 182 178 173 170 167 163 155 154 143 134 131 125 116 109 105 99 90 79 70 63 55 48 44 42 39 35 31 37 41 46 41 32 27 29 33 35 34 33 36 42 47 37 38 36 38 27 24 28 33 35 35 41 48 34 56 78 96 115 143 168 179 192 188 193 210 213 214 218 219 218 216 217 214 211 209 211 210 195 184 183 176 176 182 183 188 190 190 191 192 188 187 187 183 178 176 172 168 164 158 153 147 143 143 133 121 114 114 110 101 90 83 77 63 53 46 42 39 35 32 35 37 34 35 32 30 30 31 34 37 35 37 40 44 36 33 36 38 30 28 29 39 40 42 60 64 34 57 103 120 146 178 198 194 199 185 187 212 215 216 220 219 217 217 219 220 219 220 224 225 221 206 197 193 184 185 191 195 193 191 195 195 192 190 189 186 183 176 172 170 166 162 157 153 148 143 136 128 120 117 117 109 99 97 94 81 69 56 47 41 37 32 34 39 32 29 34 35 33 31 36 39 38 37 38 40 29 28 34 33 28 30 29 38 50 54 80 104 61 52 111 137 166 190 209 203 208 184 187 216 216 217 218 218 217 218 222 221 221 224 226 229 226 217 209 203 194 194 197 199 195 193 197 196 193 191 190 187 182 175 171 168 166 161 157 154 150 142 135 132 125 121 122 118 109 104 101 95 83 70 55 45 38 33 34 38 29 29 38 35 31 33 37 39 37 37 40 43 21 25 32 29 29 27 36 43 61 70 91 139 89 56 116 144 165 192 209 206 210 187 192 218 220 221 220 216 216 219 223 222 223 225 224 225 226 222 218 212 205 202 199 198 197 196 197 194 191 191 191 188 182 175 170 168 164 159 155 152 150 144 139 136 130 125 125 124 119 112 103 96 89 77 62 48 40 36 32 31 32 33 40 33 31 32 33 34 33 37 43 47 22 27 32 33 37 34 30 46 65 87 104 143 137 67 112 143 166 197 205 205 206 189 207 226 219 221 227 220 219 221 223 221 223 225 223 223 224 221 218 214 209 205 202 200 200 198 197 195 192 191 191 189 184 178 173 171 166 160 154 150 148 146 142 138 134 130 129 128 125 117 104 92 87 80 65 52 44 38 31 33 37 33 33 32 32 31 29 30 33 39 47 51 26 28 31 31 32 36 36 54 80 95 124 138 132 73 100 121 156 198 202 214 201 193 216 225 224 221 227 227 226 226 225 222 224 227 225 223 222 221 215 211 210 209 204 202 201 199 197 196 196 192 191 190 186 182 175 169 167 162 154 149 146 144 140 138 136 135 134 131 127 121 110 99 95 89 80 63 45 40 36 32 33 30 29 31 32 31 31 31 35 41 47 52 25 26 31 32 26 36 44 53 91 103 159 183 144 60 81 110 156 202 205 201 184 197 211 220 227 224 226 225 226 227 229 227 227 228 224 223 223 220 216 216 215 211 206 201 201 198 196 197 197 195 193 191 186 183 177 170 166 160 153 148 144 140 138 139 136 134 133 131 127 120 115 111 103 95 83 65 49 37 31 28 28 31 29 29 30 33 33 34 37 39 43 40 28 25 32 33 29 32 41 74 120 128 134 185 192 81 78 100 125 176 177 175 195 213 221 224 226 227 223 224 225 227 227 226 227 228 224 222 220 216 217 219 214 210 205 202 201 198 196 193 193 194 193 190 183 178 175 173 167 157 152 146 143 140 140 140 138 136 134 132 128 118 115 114 106 97 86 68 56 40 31 29 27 27 27 25 28 32 32 32 34 37 43 35 20 26 36 34 26 27 51 77 115 143 147 160 191 101 83 103 118 168 185 194 210 215 213 215 220 222 222 223 225 225 224 223 224 224 221 220 218 216 217 219 213 208 204 201 200 198 196 194 193 193 193 191 186 180 176 173 165 156 151 145 138 139 141 143 141 139 137 135 132 122 119 116 105 97 86 73 60 44 35 31 25 23 28 29 31 32 29 28 32 39 49 45 24 24 40 36 25 28 45 76 112 155 184 163 150 72 120 128 134 182 198 201 201 203 207 211 219 221 222 223 224 224 223 222 221 219 220 219 216 214 217 217 212 206 204 201 199 198 197 195 195 193 193 192 188 182 178 173 164 156 150 144 139 141 141 144 145 143 140 139 133 123 122 116 106 96 84 73 61 47 38 31 25 22 25 30 34 34 31 31 35 40 47 46 62 37 42 34 23 31 40 74 115 156 197 189 110 77 171 148 129 175 190 193 196 202 208 213 220 222 223 224 225 225 222 221 220 218 219 219 216 215 216 215 208 205 205 202 199 196 196 195 193 192 191 189 185 180 177 171 163 156 151 143 140 142 144 145 147 147 144 139 132 124 122 118 111 100 84 67 58 47 42 37 29 26 23 27 31 34 34 35 38 42 43 50 83 62 50 40 32 34 54 80 125 172 197 158 101 86 176 169 139 176 195 197 200 205 208 215 221 221 223 225 226 224 221 221 219 217 219 219 216 216 216 212 207 206 205 201 198 197 197 196 194 192 190 188 182 179 176 170 162 158 152 144 141 144 146 149 151 150 146 142 134 130 123 116 112 104 86 69 59 49 43 40 34 32 28 26 27 29 31 35 37 48 71 65 40 43 50 47 27 27 53 77 111 142 117 90 181 169 129 164 152 179 199 204 207 209 210 216 218 219 223 225 226 223 220 222 215 216 218 217 216 218 217 213 209 208 207 200 199 196 193 194 194 192 189 186 182 177 175 168 162 157 152 147 145 146 149 152 154 154 150 146 138 131 122 115 110 98 86 76 64 55 46 42 35 34 33 28 26 26 30 35 38 34 43 66 31 34 42 51 35 34 39 49 67 91 139 182 209 195 147 134 160 179 197 200 207 210 211 213 213 215 219 222 222 220 218 218 215 214 215 214 215 219 216 213 211 209 205 200 199 199 197 196 195 193 189 184 181 177 171 166 162 159 154 148 147 147 150 154 155 155 150 146 139 134 124 117 113 100 91 83 68 56 50 45 37 36 32 27 23 25 32 39 40 35 36 55 28 26 42 50 35 36 57 85 124 168 193 197 188 196 168 113 153 189 201 198 206 212 214 216 215 216 219 222 222 219 218 217 215 216 214 212 215 218 214 213 213 210 204 200 201 206 201 199 197 193 187 181 181 176 169 167 165 159 153 150 148 148 150 153 155 154 149 143 140 136 126 121 117 105 95 83 69 58 54 53 45 40 36 27 24 25 31 36 42 38 43 40 27 24 35 42 36 37 64 102 142 172 185 184 193 196 185 143 150 193 200 200 209 212 215 216 217 217 220 223 223 221 220 216 214 216 213 212 213 217 214 212 213 209 204 202 204 207 202 198 195 192 186 183 182 176 171 169 165 159 153 151 150 150 151 152 152 151 146 143 143 136 126 124 116 107 94 82 73 64 57 54 50 42 39 30 26 28 29 32 40 37 43 47 19 24 19 27 35 40 64 99 138 163 186 187 187 190 188 153 146 199 202 203 211 213 214 214 215 217 219 222 222 222 221 217 214 213 211 211 212 214 212 210 210 208 204 204 205 205 202 198 194 191 188 185 182 178 174 171 167 159 154 150 151 151 153 151 148 148 147 145 144 134 128 124 116 110 101 92 81 64 52 49 52 47 41 32 28 27 30 32 36 37 38 58 25 23 21 27 30 34 52 88 143 159 184 193 186 184 186 165 154 200 205 207 213 212 213 214 213 216 219 220 220 220 218 214 213 212 210 209 210 208 208 208 208 208 206 204 208 205 204 202 199 194 190 187 183 179 175 172 167 160 153 149 149 150 151 149 146 145 146 145 140 130 128 125 116 111 109 104 90 68 53 50 51 49 43 35 29 27 28 32 33 37 35 53 27 20 20 24 27 38 52 77 133 169 183 184 189 188 189 173 153 201 199 206 213 213 212 212 214 216 219 220 219 218 215 213 213 209 207 208 208 206 205 207 210 211 209 209 211 208 205 204 203 199 194 188 185 182 176 173 167 163 157 153 150 149 147 147 145 146 147 146 140 130 126 124 118 115 111 107 100 79 64 56 48 46 43 38 33 28 25 30 34 42 34 34 20 21 22 21 26 44 58 73 96 142 178 187 184 187 193 172 153 201 189 208 214 211 213 214 216 218 219 220 220 216 213 214 212 209 207 208 209 207 206 208 212 215 215 212 211 208 205 204 203 198 195 189 187 183 179 173 170 165 160 155 151 148 147 144 143 145 146 143 138 131 124 118 115 115 114 112 110 94 73 56 49 45 42 39 35 29 30 29 35 45 38 37 22 25 28 28 30 42 61 104 110 109 147 192 191 184 191 171 161 194 195 213 212 212 214 215 216 218 218 220 219 218 214 214 212 208 206 207 205 205 206 210 213 216 217 212 211 209 208 205 203 200 192 189 187 185 180 174 172 166 160 157 152 149 146 144 142 143 143 139 135 129 124 122 118 116 117 115 114 103 79 60 52 45 44 40 35 30 34 30 33 44 38 36 30 27 27 26 31 39 68 110 145 152 134 172 192 189 193 164 165 188 208 212 214 214 215 216 218 219 219 218 218 217 214 211 211 210 208 204 203 202 205 209 213 216 215 212 211 209 209 206 203 200 193 189 186 182 179 175 170 165 159 155 153 151 148 146 145 144 141 137 131 127 122 121 118 117 117 113 115 109 92 70 58 47 42 38 31 28 36 32 31 42 39 33 33 30 24 22 29 39 73 113 147 173 160 164 188 192 182 155 164 194 216 210 214 215 218 218 219 219 219 220 220 221 217 212 208 208 208 205 200 198 203 208 211 214 212 211 212 210 210 206 203 197 193 189 184 180 177 172 169 167 161 156 155 153 151 150 148 145 141 138 131 125 121 117 115 116 116 115 119 114 105 80 68 48 39 38 28 28 40 35 32 39 34 28 31 32 29 25 31 44 74 122 151 176 156 172 190 181 142 136 180 206 213 213 216 217 217 218 219 219 218 219 220 222 220 213 208 207 208 207 201 197 203 209 210 211 211 210 211 211 209 204 201 196 193 189 186 182 178 174 170 169 165 159 157 158 154 150 148 145 141 137 132 124 118 113 112 118 117 118 123 122 112 82 70 54 48 43 28 26 37 36 33 36 30 30 27 32 30 27 30 40 72 125 163 161 142 185 182 165 107 150 201 209 213 215 216 217 218 218 219 219 219 220 222 222 217 211 206 207 211 209 198 195 201 208 209 210 215 212 210 210 208 204 200 192 191 189 187 185 182 178 173 167 165 164 161 161 161 155 149 146 139 134 129 122 118 112 113 118 117 119 125 124 115 91 73 58 49 41 30 24 32 34 35 31 26 33 25 25 24 23 28 35 90 146 154 148 167 187 177 142 128 191 210 217 212 213 214 214 216 220 221 219 219 221 222 220 217 210 205 205 207 205 200 197 199 206 209 209 208 208 208 207 204 200 195 190 188 186 185 183 182 180 177 166 160 158 159 157 155 148 146 142 136 131 126 119 114 112 114 118 115 120 125 124 121 103 79 59 51 41 33 26 29 36 39 32 27 35 25 25 24 25 27 45 99 139 133 163 185 172 143 114 182 211 210 217 213 214 217 219 217 217 219 216 215 217 217 216 214 210 206 204 203 203 200 197 198 203 206 203 202 202 202 202 199 195 187 186 187 185 181 178 176 175 174 168 158 154 152 150 149 143 137 126 119 118 119 115 108 108 112 114 115 121 127 127 127 110 85 64 60 47 39 38 31 33 38 31 28 31 31 28 20 24 31 57 98 140 163 186 169 133 111 150 210 212 211 216 214 215 214 215 217 216 213 213 213 211 212 210 208 205 203 201 202 202 199 195 196 199 200 198 196 197 197 196 193 191 185 180 180 178 170 164 163 164 159 151 142 134 125 122 118 116 116 105 96 94 95 96 101 104 108 111 117 123 127 131 127 115 87 64 61 49 44 43 33 32 33 29 29 35 31 31 27 35 49 67 109 161 181 171 132 110 145 194 202 203 204 209 204 212 211 207 211 217 210 197 190 190 196 202 202 201 200 198 200 200 196 191 192 195 197 195 193 195 195 193 190 185 176 163 160 159 151 139 134 135 128 108 87 82 80 76 76 81 81 75 73 72 72 71 73 82 97 108 118 123 124 131 132 123 96 62 57 47 42 37 30 30 26 25 29 31 26 33 36 44 42 61 124 162 171 122 120 143 182 190 172 179 184 181 162 164 175 171 167 174 168 159 150 155 172 190 192 187 188 193 194 196 194 192 191 195 196 193 192 190 191 189 186 181 162 138 127 129 127 116 108 102 94 79 65 60 65 68 61 65 65 64 64 61 58 63 61 66 84 102 117 123 127 132 132 125 105 65 51 45 41 31 23 25 22 21 28 28 28 36 35 30 29 53 130 155 130 117 156 150 145 127 121 135 144 142 124 110 110 106 98 96 102 117 121 124 146 169 171 162 166 176 180 185 191 193 191 191 192 190 188 188 187 184 181 177 161 131 111 105 101 95 84 84 82 78 73 64 54 50 54 60 61 63 69 70 67 66 63 69 87 102 115 124 129 131 131 127 105 66 49 44 42 31 23 29 34 43 51 21 31 29 25 22 29 39 139 110 135 169 146 116 108 95 103 125 130 136 142 103 82 77 67 74 95 107 111 108 118 135 142 138 146 159 168 175 183 186 186 186 184 184 186 183 182 178 172 158 143 125 109 98 93 85 65 73 80 75 61 58 57 58 65 67 69 80 77 72 77 73 72 81 93 105 116 125 130 130 131 131 106 68 48 43 39 27 29 44 62 76 86 88 28 24 24 23 25 43 98 117 175 160 129 117 122 121 104 100 105 105 97 88 79 81 77 79 94 100 113 111 107 115 125 128 134 150 163 170 176 181 182 184 180 176 177 173 173 170 163 150 122 99 91 89 87 88 81 78 80 80 72 75 82 80 87 82 87 95 87 91 88 87 86 93 98 108 122 129 130 130 132 129 107 66 45 42 38 34 48 66 83 99 104 118 27 23 23 25 25 44 93 155 170 156 139 130 131 128 115 108 97 95 106 112 106 109 113 108 108 114 120 120 114 118 127 129 132 146 161 165 170 177 182 184 178 172 164 160 161 158 149 139 118 94 90 92 92 96 94 85 74 74 74 68 71 71 75 81 88 90 92 93 97 102 105 104 104 111 125 128 129 132 129 128 107 67 45 41 38 49 73 93 107 116 117 133 25 24 23 25 27 59 97 164 160 165 156 144 137 128 134 139 126 118 122 132 128 124 119 109 104 99 103 109 112 120 126 129 132 140 151 161 169 178 183 178 174 168 156 150 146 138 134 126 112 101 100 97 90 75 63 51 46 43 39 30 35 33 34 51 59 68 84 86 92 101 107 108 111 116 123 129 130 132 128 130 111 70 48 40 39 65 96 112 122 116 99 110 24 26 24 25 31 50 99 162 153 175 174 157 146 139 140 143 137 124 108 100 89 76 61 53 46 50 54 63 68 77 96 107 122 134 145 159 171 179 187 182 177 169 161 153 139 127 122 115 105 103 98 83 64 47 47 48 39 40 42 31 23 39 39 37 51 53 59 69 78 88 98 105 111 116 121 125 130 131 129 127 112 72 50 41 48 81 110 118 119 90 57 73 23 25 20 25 32 37 107 141 160 184 183 171 163 158 147 137 115 93 75 53 54 37 37 79 60 17 26 31 56 61 61 72 89 117 141 156 172 181 190 190 188 179 169 157 137 123 116 109 104 98 86 64 55 54 57 64 46 44 51 28 34 103 73 48 81 68 49 55 66 79 90 101 106 109 113 119 125 129 127 124 119 85 59 47 64 100 118 117 113 81 52 75 19 23 21 22 33 43 107 134 166 185 185 175 164 157 139 118 92 75 53 52 83 64 55 91 50 24 70 74 70 80 70 72 82 101 128 155 178 194 202 206 199 188 179 159 133 123 114 109 100 91 74 60 68 65 66 102 105 57 33 27 40 79 58 57 103 85 61 52 61 72 84 95 102 107 111 115 121 125 127 124 122 103 78 69 88 111 121 118 118 96 59 74 20 27 25 25 30 56 108 138 166 189 187 178 162 147 128 105 81 63 63 92 139 103 50 43 31 24 64 82 101 119 92 95 110 126 139 160 185 201 215 223 219 200 186 165 135 121 112 107 98 87 81 77 73 65 87 127 136 95 52 46 43 42 57 82 105 94 85 85 84 83 87 96 104 110 112 115 119 124 126 126 125 112 83 77 102 110 105 116 117 99 49 87 20 24 24 28 31 61 119 143 179 195 193 187 174 161 142 120 95 89 104 119 148 133 86 68 61 60 72 95 119 124 108 119 139 161 175 181 190 209 217 224 219 201 189 166 136 119 110 105 98 93 99 97 83 80 100 118 129 124 108 89 87 96 99 105 111 100 96 104 105 97 96 101 107 114 114 116 118 121 125 127 123 108 87 79 95 108 112 121 124 107 63 106 20 22 23 28 32 59 121 137 182 193 196 193 186 177 168 160 149 141 133 141 157 151 134 137 137 125 125 135 133 139 139 155 171 184 194 193 194 207 210 222 219 198 185 162 132 115 108 100 95 102 114 124 123 129 135 131 134 132 124 118 112 108 110 106 112 113 111 111 107 101 102 107 110 115 115 116 118 119 123 125 124 108 93 75 69 82 103 124 130 110 83 107 24 22 23 30 32 64 105 141 187 195 200 199 197 188 183 189 180 174 153 150 158 152 150 154 156 136 133 135 130 142 143 147 167 183 192 196 200 202 204 220 213 192 179 157 125 112 105 98 94 106 117 125 134 135 141 140 140 141 136 123 118 110 112 112 108 114 115 110 105 105 110 111 112 114 116 116 117 120 122 126 124 113 103 79 60 71 96 116 124 116 95 113 24 20 25 29 30 69 102 173 196 200 205 205 204 198 192 196 191 187 178 164 163 160 155 148 151 148 142 143 140 133 127 143 172 192 201 200 205 200 204 219 207 189 177 153 122 109 105 101 101 107 113 121 130 136 136 137 139 146 142 129 120 117 112 114 111 110 112 110 107 113 117 116 115 116 117 115 115 119 122 126 120 123 114 88 71 78 92 99 117 121 101 113 19 21 28 29 34 71 134 193 195 195 203 206 202 201 204 204 200 188 188 182 176 177 176 167 161 149 134 128 128 141 157 173 190 196 199 203 205 202 208 217 202 190 175 157 125 108 107 108 113 112 115 124 139 153 156 149 148 144 135 129 123 124 118 120 123 116 118 117 117 123 124 122 119 118 116 115 115 119 123 129 128 131 120 85 77 79 84 95 120 123 110 101 19 25 25 29 26 93 168 195 194 192 197 200 196 200 200 204 203 199 194 192 186 180 169 168 164 158 161 167 172 176 184 190 196 202 207 210 202 195 207 211 199 186 175 157 124 108 105 111 121 122 123 129 141 157 163 166 166 164 160 157 152 148 146 140 137 134 133 132 131 133 136 131 124 119 118 116 116 120 124 127 128 132 122 94 81 79 81 95 117 120 112 85 20 23 22 28 19 102 176 191 193 195 201 199 196 199 200 205 208 205 199 196 202 197 199 201 203 201 199 201 201 195 191 195 206 210 207 204 199 195 203 210 200 182 174 154 124 109 103 109 119 123 127 136 146 152 159 165 171 168 166 163 161 159 159 157 151 147 145 145 142 142 143 138 128 123 120 118 117 121 123 129 129 138 124 98 86 77 84 92 116 116 106 77 21 21 23 25 23 96 181 192 191 194 202 199 197 198 202 208 210 208 208 207 207 206 211 212 211 205 203 204 202 201 201 205 209 207 201 200 199 195 203 210 199 182 171 151 124 109 105 110 116 122 124 136 151 155 157 162 169 167 162 160 161 162 163 162 157 154 152 152 150 148 145 139 129 125 123 120 119 123 125 130 133 143 129 97 83 72 79 88 116 111 96 65 20 24 25 26 15 98 178 191 189 190 195 196 196 197 200 206 208 207 210 211 208 208 208 206 207 209 206 207 207 207 210 208 206 202 201 204 202 195 203 212 203 186 169 149 125 110 107 111 116 123 119 128 148 158 158 161 168 167 164 162 163 166 166 162 159 158 156 156 154 150 146 139 130 127 127 120 120 125 128 131 137 143 127 95 81 67 71 83 109 103 90 43 22 26 23 29 26 93 166 189 192 193 195 197 198 199 201 205 207 210 210 211 208 208 208 207 206 205 206 206 207 207 207 210 206 203 204 206 202 194 204 212 204 187 169 148 126 113 110 111 112 117 118 124 143 159 161 158 158 162 165 166 166 166 166 162 162 162 158 157 156 153 148 141 133 128 124 120 123 127 125 135 136 138 121 92 74 62 64 83 96 84 67 25 26 25 24 30 33 72 168 193 192 195 194 195 200 199 201 203 205 206 208 212 209 209 207 206 206 203 205 205 204 209 211 210 207 202 205 203 200 197 202 208 202 188 171 148 126 115 110 109 112 116 117 119 130 151 160 158 157 158 162 165 167 166 163 166 166 164 159 154 155 156 149 140 132 127 122 122 125 126 126 141 134 130 115 85 59 66 76 77 68 46 32 27 24 26 27 31 27 63 154 192 187 186 193 196 199 197 198 200 203 204 206 208 209 209 208 206 206 204 203 203 206 210 209 202 201 202 204 203 200 199 201 204 200 188 171 147 125 113 109 108 111 114 114 118 132 150 162 162 161 161 162 163 167 171 171 170 168 164 160 155 155 154 147 138 131 126 122 124 127 128 131 135 135 129 106 73 62 75 82 53 44 41 33 34 26 29 29 33 31 50 140 182 186 190 193 199 202 201 199 198 199 199 201 205 207 208 208 208 206 204 203 206 208 209 206 202 202 203 205 204 201 197 200 204 199 188 172 149 128 113 109 107 108 112 114 116 129 144 156 163 165 165 164 165 169 173 173 169 165 163 159 155 155 151 143 134 128 125 123 126 128 128 132 136 136 120 90 72 74 78 69 41 54 59 37 32 30 32 30 33 35 47 114 173 185 186 191 198 200 200 200 200 198 198 199 203 203 205 206 206 206 205 204 207 207 208 205 202 203 203 204 204 200 199 205 208 198 186 174 152 131 115 108 106 105 110 114 117 126 138 149 158 162 166 168 168 170 171 171 167 163 160 156 152 150 147 138 131 127 125 124 126 129 131 134 135 130 110 81 77 88 89 63 43 68 60 34 32 35 30 25 31 34 35 96 167 184 186 191 196 198 199 198 198 198 199 198 200 202 204 205 204 205 205 205 205 205 207 207 204 202 198 202 203 203 201 207 212 203 187 176 153 129 116 107 105 104 106 110 115 123 134 145 151 158 163 167 169 172 171 170 168 164 160 155 151 145 144 137 131 130 127 125 126 130 132 134 132 123 98 75 86 102 100 65 49 66 48 32 33 39 25 22 31 37 37 74 153 182 187 188 194 197 197 196 196 196 197 195 197 201 204 207 208 207 207 203 200 200 206 207 202 197 195 198 200 200 202 209 218 208 185 175 154 131 120 111 105 101 101 103 110 122 135 147 151 157 162 167 169 171 169 170 169 167 162 155 150 140 136 134 132 131 129 126 126 130 132 132 127 114 88 72 91 114 103 65 58 62 37 26 32 38 22 22 30 39 39 54 138 182 182 187 195 196 195 195 195 195 198 199 199 202 205 209 212 212 209 202 201 202 207 203 196 191 191 195 199 198 201 212 221 204 183 175 158 135 120 111 106 99 94 95 107 127 142 149 153 158 163 168 172 173 170 169 167 165 160 152 146 137 136 132 130 129 128 128 129 131 132 130 122 105 81 69 90 115 98 64 63 52 30 27 23 31 22 24 31 33 32 49 121 172 182 191 195 197 196 194 195 197 198 200 201 203 206 210 214 211 209 208 209 208 205 196 189 189 189 196 199 197 203 215 223 203 185 175 159 139 120 109 105 102 96 91 99 119 138 145 150 156 161 167 174 174 171 169 166 161 155 148 142 134 134 131 129 128 129 129 130 130 130 126 116 97 75 68 92 108 93 72 64 42 27 30 24 25 20 23 29 34 34 46 98 160 188 189 194 196 195 195 196 198 197 198 201 204 208 208 209 210 209 208 207 206 199 190 184 191 192 196 199 197 206 221 226 205 186 173 159 139 121 109 105 105 104 97 95 107 127 138 145 152 157 164 170 169 169 169 166 161 154 147 139 136 132 128 128 128 129 130 131 130 129 124 110 90 72 68 94 99 91 82 62 34 22 26 30 22 19 20 25 31 34 42 88 146 180 188 192 196 196 195 196 197 198 198 202 205 208 210 211 214 210 206 202 197 191 190 184 197 196 197 198 199 208 224 224 205 186 176 165 141 119 111 106 105 107 106 101 103 117 133 146 150 157 161 165 166 167 168 166 161 154 147 139 134 130 128 127 128 130 130 129 129 126 118 102 84 69 73 94 93 89 84 52 27 24 24 31 23 17 18 21 29 36 40 77 130 167 184 191 197 199 195 196 198 200 201 203 206 208 212 215 213 209 205 201 196 189 187 189 198 196 195 200 201 207 219 218 198 185 187 179 145 119 116 110 107 108 110 106 102 108 127 142 149 154 159 163 167 169 166 163 158 151 145 138 135 129 127 126 128 130 132 131 127 121 111 94 78 66 76 88 85 80 65 35 17 24 22 24 26 20 20 19 27 35 44 74 115 148 178 195 197 200 197 195 195 197 200 203 206 208 210 212 212 208 204 200 194 187 189 191 191 192 195 199 195 196 206 207 193 183 189 177 142 120 122 118 115 116 116 112 103 103 115 133 145 152 158 163 168 168 163 159 154 148 141 136 133 128 125 125 127 129 131 130 126 118 105 89 76 64 61 62 62 50 31 22 21 24 23 25 26 20 20 19 22 29 44 69 100 133 171 192 192 192 195 198 199 198 200 202 207 209 210 211 214 213 205 195 188 184 189 183 179 186 191 192 199 192 189 192 188 181 174 153 129 121 128 122 117 116 114 112 102 98 104 123 140 149 155 162 166 165 160 156 152 145 139 132 127 127 125 125 127 126 129 130 125 114 100 85 74 57 36 30 32 20 14 27 25 24 22 23 27 19 24 24 19 24 40 58 89 121 154 181 193 196 199 203 203 202 202 203 206 208 211 213 210 207 201 194 189 188 192 185 165 147 132 141 173 185 182 183 179 168 151 129 120 114 105 97 89 93 97 97 97 96 100 116 136 147 153 160 164 162 159 153 149 144 140 132 128 129 128 126 127 126 129 128 122 108 93 82 70 52 33 20 21 21 21 26 23 22 23 25 34 24 23 25 23 21 30 48 79 115 144 170 193 200 198 200 201 202 203 205 206 207 211 214 213 208 202 196 195 199 199 196 164 118 86 86 127 171 175 178 170 151 135 123 118 104 81 61 66 79 87 90 92 97 101 113 131 145 152 156 160 160 158 156 150 146 141 133 130 131 128 127 126 130 133 126 117 103 88 77 70 48 39 26 24 28 22 23 24 24 26 29 32 26 23 21 21 22 22 32 67 114 147 160 185 197 197 198 199 200 203 206 208 208 210 212 211 208 204 202 202 209 200 200 182 148 127 140 161 171 167 164 155 137 125 117 103 91 92 92 87 85 81 88 89 96 104 112 129 144 151 155 157 157 156 155 151 146 140 133 132 131 128 127 125 127 128 118 109 102 91 78 66 37 34 27 22 28 24 21 24 28 31 32 23 26 26 25 24 23 20 22 63 109 142 155 175 191 199 202 202 202 204 207 210 208 208 210 209 206 203 205 208 210 203 204 198 187 174 179 191 185 168 152 137 124 118 104 98 91 95 99 87 82 83 87 86 92 103 111 128 141 148 153 154 153 153 151 148 144 138 134 133 131 128 128 127 127 122 109 103 96 88 73 57 35 28 25 23 24 25 25 28 30 32 32 20 24 27 27 25 23 21 23 55 89 140 156 175 187 195 200 203 206 206 207 208 208 210 211 210 206 205 206 211 207 202 198 196 192 188 185 187 190 183 166 135 117 111 98 94 86 79 81 79 82 83 88 89 94 104 116 128 139 145 151 152 152 153 148 145 142 136 134 134 131 128 128 130 125 114 103 98 93 81 68 52 37 25 21 22 22 27 30 30 29 28 27 24 22 23 23 22 21 20 27 46 74 131 146 175 178 190 197 201 203 206 206 206 208 210 211 209 208 208 210 212 207 205 192 186 179 175 171 172 182 190 177 151 134 117 108 87 72 67 66 70 74 79 92 100 103 109 119 127 137 144 150 152 153 152 148 143 138 134 133 133 131 129 129 126 117 102 96 96 93 79 60 46 32 25 22 22 23 29 27 29 25 20 22 28 19 20 22 23 20 20 30 36 60 109 139 165 168 188 197 200 201 206 209 208 207 208 209 206 207 210 212 209 208 204 193 184 163 146 140 145 160 171 176 160 153 151 131 111 86 68 57 55 59 75 88 101 107 114 124 130 137 145 151 153 153 150 146 146 141 137 135 133 131 129 126 119 109 95 92 96 93 75 55 41 29 25 24 23 23 25 26 30 27 22 25 27 20 24 26 25 22 22 26 34 52 94 139 164 167 184 197 200 201 206 210 210 212 211 210 207 205 209 211 207 207 197 188 176 150 127 117 124 130 144 158 147 153 167 151 115 92 80 68 58 61 68 79 90 101 112 123 129 134 142 148 152 153 148 145 146 143 139 136 134 131 129 122 114 107 95 95 96 89 70 54 38 27 26 24 23 23 23 24 27 27 26 27 24 22 28 26 24 23 21 19 32 41 79 134 173 157 174 187 194 201 205 207 209 211 212 214 210 205 207 208 203 198 185 172 157 129 116 117 123 126 131 133 127 148 169 172 148 114 95 83 69 62 67 72 80 94 108 115 121 127 132 138 145 149 146 142 140 139 136 135 132 129 126 113 106 102 98 99 93 83 66 49 32 25 25 23 23 23 25 24 26 26 26 28 22 24 30 26 26 26 28 17 25 28 59 126 157 146 160 170 185 201 208 205 209 210 209 210 207 200 198 194 192 180 165 149 132 114 116 120 123 141 140 127 130 158 171 178 171 137 99 81 72 63 63 65 71 82 100 108 112 119 121 126 135 141 141 142 140 138 135 133 130 128 122 108 104 98 97 99 86 76 61 43 30 22 23 23 22 25 26 26 28 25 23 28 22 24 27 24 26 31 48 27 20 28 40 102 137 146 146 154 177 199 206 205 209 209 210 210 206 195 183 172 169 159 153 139 124 114 122 138 148 173 179 168 159 170 178 185 189 170 130 97 84 70 62 61 67 76 91 99 98 108 117 120 127 135 136 139 140 139 137 132 129 127 114 105 100 92 98 97 84 74 59 37 33 26 22 24 21 25 21 32 43 31 25 30 23 26 24 25 26 48 71 41 14 22 33 76 127 143 139 152 170 195 200 203 206 206 210 212 205 189 167 152 143 141 150 143 140 138 154 189 186 193 198 196 190 192 196 201 195 179 149 120 114 102 85 75 72 77 86 98 93 93 103 111 114 122 127 131 136 138 137 132 126 120 107 99 90 85 96 91 78 67 54 32 21 27 24 25 25 26 21 50 68 45 33 32 27 27 26 33 33 58 69 31 19 22 37 62 100 124 139 146 155 177 187 204 207 208 209 206 189 169 137 134 127 132 149 153 170 181 185 185 172 162 166 178 196 194 192 183 160 141 129 123 129 127 119 110 100 92 87 99 95 87 94 104 107 104 118 125 133 137 135 129 123 117 103 95 87 79 83 75 68 54 50 30 30 51 31 19 23 28 19 53 82 53 33 34 31 29 29 42 47 58 59 23 29 35 43 45 74 109 136 131 139 168 186 198 201 206 207 199 170 142 118 115 113 122 159 175 181 178 168 160 153 168 171 158 162 167 161 133 123 115 121 120 115 112 115 121 121 115 102 96 95 84 87 100 98 90 106 114 126 133 132 124 119 111 94 92 86 80 72 67 63 50 46 32 48 63 34 22 25 25 24 45 78 70 43 33 25 27 34 64 72 54 46 28 22 27 30 36 64 101 128 126 129 155 173 192 205 208 202 189 158 133 118 104 111 128 169 186 164 146 138 145 156 153 156 153 157 160 142 115 111 119 118 114 106 102 99 98 104 110 114 113 104 88 86 92 88 82 94 105 118 128 127 118 114 106 91 88 84 75 65 65 59 46 37 29 43 43 29 24 29 26 26 30 40 45 32 36 21 24 38 85 77 45 40 24 21 23 25 32 52 83 111 125 117 128 160 184 203 206 197 172 134 128 116 116 118 133 158 164 134 113 112 118 118 113 125 132 129 125 127 111 99 95 90 86 76 76 84 78 78 87 95 97 103 102 99 95 88 79 88 99 112 123 125 116 109 98 85 83 81 69 62 59 52 40 30 27 32 32 33 26 25 25 22 29 44 38 29 41 26 21 54 78 80 72 85 14 27 23 24 26 41 62 89 118 109 120 152 176 198 204 196 159 117 126 118 125 119 115 115 112 91 104 124 139 134 133 132 117 110 103 100 92 87 76 79 86 90 91 95 93 89 79 74 79 89 104 109 106 96 89 93 100 106 115 119 114 106 90 79 78 75 65 59 53 44 36 30 25 29 40 36 21 23 29 22 27 39 26 26 28 20 44 80 80 77 92 87 4 21 22 24 24 34 49 70 100 108 122 140 170 194 206 196 152 124 129 129 129 124 107 106 110 128 159 177 178 181 184 181 175 168 155 147 145 133 143 152 142 140 133 131 127 114 95 90 100 113 124 124 113 100 96 97 99 105 110 111 107 99 84 75 75 70 59 53 47 38 31 29 23 25 34 34 29 27 28 25 18 25 26 29 31 58 89 52 50 49 37 39 22 18 27 26 26 24 33 52 79 104 115 126 157 184 198 186 144 122 130 145 137 143 155 183 199 187 182 180 176 188 196 195 189 186 184 174 181 178 174 180 165 144 138 138 132 117 111 117 123 134 143 144 133 109 96 91 94 109 115 107 96 90 81 75 74 67 56 49 44 37 29 25 21 22 28 31 33 25 21 35 22 29 33 29 31 108 102 35 32 24 23 30 20 22 25 26 28 27 35 48 66 81 97 117 141 165 182 180 157 137 142 163 166 179 191 209 207 196 185 181 181 184 183 190 190 189 183 174 172 186 179 174 162 150 142 138 133 125 124 131 134 138 144 149 143 127 116 101 100 111 114 103 85 82 76 71 67 61 51 46 46 38 29 25 22 22 27 27 25 26 21 31 25 22 25 28 24 86 73 37 25 30 29 22 23 25 23 26 24 26 31 42 56 73 93 109 125 140 171 183 184 173 180 184 191 199 204 200 205 204 197 189 181 180 178 183 177 177 173 173 173 173 167 163 153 143 137 135 134 130 133 136 134 133 140 149 149 145 144 129 112 108 110 100 80 75 72 66 59 51 43 44 47 39 28 25 24 22 27 25 28 39 30 21 27 24 28 34 30 50 34 28 28 30 22 28 26 31 25 25 23 25 28 36 48 69 84 88 112 122 151 175 188 195 203 200 204 201 210 210 204 205 202 195 187 186 186 174 168 168 166 174 167 162 158 151 143 139 140 134 132 131 131 132 131 132 139 147 150 148 146 134 115 105 108 98 78 67 64 60 54 42 40 50 54 41 25 22 25 21 27 27 36 65 58 24 24 26 28 32 34 37 27 29 31 29 27 30 37 34 25 25 25 25 30 37 46 64 71 81 103 108 130 166 186 199 203 203 209 205 204 205 198 197 194 194 193 188 184 170 166 157 148 151 148 145 145 142 137 136 136 131 125 128 127 127 130 135 140 145 145 144 138 131 120 111 110 98 76 64 62 56 48 40 51 58 57 40 23 22 25 20 22 25 27 54 53 22 25 27 27 34 41 27 21 29 27 28 36 28 32 30 26 28 28 27 30 36 41 53 69 73 86 104 119 154 183 198 201 207 209 203 199 199 198 195 193 188 187 185 174 154 148 135 123 118 121 118 120 123 123 125 130 131 129 128 130 131 135 141 140 140 140 142 135 126 120 117 112 98 76 65 61 49 43 46 69 67 56 37 25 25 26 24 22 27 24 24 26 24 28 27 27 34 42 32 34 28 28 20 30 23 31 27 28 29 29 28 29 32 33 44 69 62 64 96 114 152 180 192 198 206 208 202 199 198 197 193 191 184 180 178 162 143 137 130 125 112 104 109 112 118 121 124 129 131 130 130 133 137 142 144 143 141 140 136 127 115 108 109 107 93 75 68 55 43 43 60 81 74 58 37 25 25 25 29 19 24 28 21 20 32 29 28 32 41 45 39 43 38 37 37 34 34 33 27 25 27 27 27 29 31 28 32 87 85 59 79 113 147 171 182 188 199 202 200 201 201 200 196 192 191 191 185 167 159 150 144 144 136 128 133 131 133 137 137 135 133 136 138 140 141 141 140 141 141 136 128 121 113 103 99 93 84 71 61 48 40 54 76 83 74 56 36 27 24 26 27 26 25 27 24 24 27 29 31 32 41 44 31 51 52 61 62 43 30 27 28 27 30 28 26 27 32 29 32 102 122 67 68 93 126 156 171 185 194 196 199 204 205 204 202 197 195 194 190 178 173 166 158 158 159 155 155 155 154 152 152 150 148 149 147 148 147 144 138 135 137 132 124 117 107 98 92 82 74 64 50 42 51 73 90 89 74 52 34 27 26 26 25 25 24 23 23 22 23 26 32 34 36 41 29 42 45 73 104 61 33 30 30 29 31 30 28 28 30 27 21 89 151 104 69 69 102 134 156 179 192 197 201 204 207 206 205 203 202 201 197 194 193 187 182 185 179 175 169 172 171 168 166 165 163 159 154 154 154 151 144 135 129 124 117 108 97 88 83 79 66 54 39 45 69 91 100 93 73 48 31 26 25 23 24 25 23 23 24 22 27 27 32 31 37 36 35 34 49 90 107 45 23 27 26 30 33 32 30 31 29 33 20 74 154 128 79 63 89 119 145 166 181 191 200 205 209 211 209 209 209 205 205 209 207 204 206 206 194 191 184 178 179 179 177 175 173 168 162 159 159 157 153 142 131 119 105 95 86 80 73 68 52 47 42 61 84 100 99 91 69 44 29 24 23 24 23 24 23 24 23 25 28 27 33 30 40 32 41 34 47 56 37 32 28 26 24 31 34 32 30 32 29 29 24 58 160 149 112 72 75 100 129 145 163 180 192 201 208 211 212 214 214 211 214 213 212 213 215 210 198 193 193 186 179 179 180 179 179 176 170 166 162 159 156 148 136 116 100 90 82 74 62 56 44 42 61 80 93 100 103 86 60 39 28 23 24 24 25 26 25 25 24 27 28 28 32 30 34 46 42 27 52 58 50 36 24 28 30 35 35 33 31 32 29 34 23 61 153 172 157 114 71 75 93 125 152 167 180 192 201 207 209 214 215 216 218 216 213 211 207 201 188 182 180 181 177 176 181 180 180 174 167 166 162 158 153 143 125 103 91 86 80 69 54 53 44 43 73 87 92 99 93 76 51 34 25 25 26 25 26 27 27 27 27 25 27 29 27 27 24 52 80 85 96 75 47 33 25 31 37 41 40 35 34 39 38 44 35 36 147 182 182 165 118 79 67 91 118 144 160 169 183 199 208 209 212 216 214 217 215 201 191 185 175 169 167 174 179 177 177 176 177 172 164 162 158 146 146 132 108 88 80 78 70 60 50 47 46 57 82 98 102 99 84 77 52 32 27 24 25 27 27 27 29 30 29 25 33 35 30 32 27 37 73 112 86 62 40 40 38 36 35 36 36 35 37 37 33 28 32 33 128 188 191 188 159 86 59 87 103 120 132 140 156 181 195 200 203 209 208 212 208 184 174 168 163 166 163 165 169 168 163 161 162 164 157 147 136 126 129 112 89 77 76 73 61 52 42 41 56 76 93 102 98 90 88 84 45 28 31 26 25 27 26 27 27 30 30 26 25 33 29 28 33 34 41 101 83 42 41 42 44 41 40 36 34 30 40 33 35 33 32 28 114 187 198 200 187 114 51 67 80 93 109 123 138 156 168 178 189 191 190 194 186 173 165 154 148 150 151 149 149 152 146 142 141 141 134 122 114 108 106 97 81 72 71 67 58 42 41 46 70 82 90 86 90 91 92 76 37 32 31 23 24 25 25 25 26 29 29 25 20 31 29 27 34 34 60 61 66 45 41 38 41 40 40 38 36 34 37 35 38 33 31 25 104 178 199 205 203 165 82 58 61 70 88 102 114 127 133 145 171 173 172 175 170 163 152 144 130 130 141 142 135 132 131 129 122 116 107 98 94 89 88 81 68 61 56 50 48 43 44 50 77 89 99 97 99 97 94 66 30 35 28 22 22 23 24 23 25 28 29 27 26 28 29 31 31 37 140 50 48 44 41 38 37 38 35 34 33 32 30 35 36 35 28 26 91 171 195 203 204 194 146 77 45 58 69 76 87 103 111 115 133 145 151 151 149 146 133 129 126 130 140 137 126 117 117 115 104 97 91 82 78 73 68 61 54 51 48 40 42 46 46 61 85 99 104 108 102 96 96 67 25 26 22 22 21 21 20 22 24 27 30 27 25 26 29 31 31 33 139 75 31 34 40 40 36 34 34 31 29 28 33 39 35 34 29 28 87 159 192 200 205 207 195 137 51 48 58 57 67 87 101 98 99 105 117 120 128 132 121 115 118 129 130 121 114 108 100 93 84 83 82 71 66 59 54 52 49 46 42 39 40 43 55 78 97 102 107 105 98 97 97 69 24 25 24 23 23 21 19 21 24 29 31 28 25 25 27 30 30 32 106 63 33 40 36 34 33 33 30 31 31 29 31 35 34 30 28 31 78 152 188 201 207 211 208 183 122 67 58 54 57 73 83 81 79 80 98 108 117 116 112 101 97 105 111 108 104 95 86 74 69 70 71 63 58 44 43 52 48 43 41 44 45 57 77 95 103 104 108 100 98 97 96 74 39 22 24 23 22 19 19 21 23 29 31 27 23 22 26 30 31 31 58 46 32 32 38 39 37 35 34 31 34 36 32 34 33 29 27 36 79 144 178 200 204 203 209 201 170 123 67 48 47 57 64 60 63 71 87 97 100 98 107 102 88 86 93 94 90 80 72 64 60 60 60 58 44 37 37 44 41 42 52 52 60 81 99 106 109 109 109 106 102 99 98 80 47 26 24 21 21 20 19 21 25 31 32 29 25 22 26 30 31 31 53 36 33 30 35 38 37 33 31 29 28 33 39 39 34 30 28 38 86 141 176 197 201 200 207 207 200 185 139 97 55 52 54 49 52 59 70 82 83 80 94 99 88 74 73 75 74 69 62 57 53 52 49 45 38 36 40 43 41 46 64 62 77 98 103 104 108 109 108 108 104 100 99 86 59 35 25 21 22 21 20 21 26 31 32 28 22 20 25 28 29 31 59 49 42 36 34 33 33 29 29 30 28 34 46 42 31 29 26 32 83 143 180 193 199 205 209 207 209 207 184 154 94 55 55 49 48 48 57 64 64 65 70 71 69 62 60 59 62 59 53 50 47 46 43 38 36 38 44 51 54 56 71 79 91 104 100 102 108 105 106 106 102 98 96 81 55 33 24 20 21 19 19 21 26 29 33 28 21 20 24 27 29 31 59 54 52 43 38 35 36 34 34 31 27 38 50 45 33 30 24 32 87 150 183 191 201 207 210 204 208 211 201 190 165 128 102 73 49 44 55 57 49 54 53 53 54 55 49 45 54 52 46 42 41 40 38 38 40 45 54 66 74 80 92 98 101 107 107 109 113 109 107 104 101 98 89 70 45 28 23 19 20 17 19 22 27 31 32 27 21 20 22 26 28 31 65 54 51 49 46 43 43 41 37 32 29 43 58 45 33 29 28 23 85 154 182 191 199 204 207 206 207 209 203 203 200 187 166 132 89 64 63 62 48 47 52 52 50 51 45 43 49 44 41 41 44 46 44 45 50 59 70 82 92 99 103 105 107 106 104 105 109 109 107 104 103 97 80 58 36 25 21 20 20 18 21 24 28 31 31 27 21 19 21 26 29 31
