P2
# Generated by OpenCV 4.2.0
92 112
255
43 25 21 15 16 14 13 14 14 16 22 39 43 35 32 35 36 30 34 33 29 33 38 37 52 77 70 70 71 74 77 102 126 127 103 100 110 126 128 119 115 127 121 110 120 110 133 104 91 86 66 81 92 69 78 97 98 87 49 37 27 35 32 24 25 24 20 21 26 37 22 17 25 20 24 43 25 18 18 42 46 27 10 25 51 30 31 28 16 17 19 15 29 17 14 13 18 19 16 15 17 21 30 43 36 24 25 30 41 45 38 45 39 30 36 42 48 60 65 69 81 81 86 103 126 134 128 126 139 137 136 145 137 133 131 131 125 124 136 119 106 97 84 91 83 66 80 73 63 62 50 39 37 41 39 38 32 27 24 19 24 35 26 24 23 19 17 19 28 19 13 36 49 40 17 13 43 50 31 27 13 17 25 18 10 15 15 13 12 14 15 18 24 34 49 60 40 22 24 38 54 64 61 36 33 25 31 42 41 48 66 73 73 83 106 122 134 145 150 154 151 146 137 140 142 143 146 138 136 143 134 117 118 108 112 99 92 96 81 74 66 48 57 66 65 38 52 47 32 26 20 20 19 25 31 26 14 13 15 13 19 31 15 31 56 42 37 9 22 45 31 27 21 14 18 17 13 21 19 12 15 19 16 15 22 21 37 45 38 37 36 40 52 71 76 38 25 39 33 40 48 59 79 82 83 96 117 137 149 153 154 152 153 151 149 146 149 154 152 147 143 140 130 120 125 115 116 108 114 115 103 95 93 82 85 88 72 57 53 52 33 28 20 25 27 26 38 26 15 11 14 18 17 26 35 27 59 44 45 25 19 38 30 25 25 10 12 15 29 29 18 17 18 22 20 13 13 26 32 42 45 48 53 57 66 60 72 68 53 49 57 70 82 87 97 97 89 113 131 141 155 157 156 155 155 155 157 156 154 154 152 152 140 143 140 131 121 122 127 124 116 126 129 112 104 108 91 88 76 83 70 58 46 33 30 30 30 26 31 26 21 20 19 10 10 16 33 33 55 45 42 31 19 35 34 19 21 21 12 13 34 20 14 25 26 26 21 10 19 37 47 60 74 70 73 70 69 90 118 126 113 100 86 80 91 102 98 109 118 121 135 150 156 158 156 157 160 157 157 156 153 154 155 151 143 148 147 140 119 113 141 134 122 129 136 137 120 119 110 84 103 98 99 86 62 47 37 30 25 22 28 34 26 21 13 13 12 16 21 33 37 46 32 29 17 29 40 25 12 24 21 7 16 8 15 29 26 27 21 17 32 50 66 84 104 112 106 113 116 132 137 135 131 129 124 119 113 114 115 116 129 140 151 156 157 158 158 158 159 157 156 154 154 153 153 151 153 152 147 138 124 131 142 143 142 130 131 142 131 110 110 104 116 113 98 100 84 63 47 26 22 25 28 22 24 24 15 21 17 17 23 37 34 59 33 29 20 31 48 39 14 14 19 17 7 7 24 34 27 36 40 35 52 67 86 101 113 124 123 127 125 127 129 135 143 145 146 142 138 134 133 132 138 147 156 157 157 158 161 161 159 159 156 157 156 156 158 158 157 158 151 138 150 147 151 152 150 145 132 132 131 124 125 123 121 120 112 100 96 83 62 39 21 27 21 21 31 27 21 26 25 20 29 40 32 44 43 27 21 23 31 29 17 13 19 23 9 13 31 29 38 54 66 68 69 82 93 106 119 126 133 133 139 142 141 147 153 153 152 154 149 146 146 144 149 158 160 158 161 160 160 161 162 162 161 160 161 162 160 155 156 153 148 146 150 144 151 153 149 149 147 144 150 148 130 125 124 122 118 116 95 66 47 42 32 23 17 26 27 30 16 17 23 20 29 35 34 27 44 28 16 20 27 22 16 16 14 17 14 26 31 31 50 62 67 73 75 92 103 113 120 129 136 139 143 145 149 151 153 155 154 155 157 157 150 152 159 158 159 164 165 163 161 161 162 162 166 164 162 160 160 158 157 157 156 149 143 149 150 152 151 152 151 152 148 154 141 128 117 120 122 112 100 74 52 42 40 23 16 21 21 26 13 9 30 32 29 33 30 24 35 26 18 15 32 38 19 13 16 18 19 24 30 37 54 66 66 73 83 93 105 118 126 134 136 141 147 149 153 155 156 156 156 155 155 158 160 160 162 160 164 168 167 164 167 165 163 169 169 167 169 166 160 158 158 156 153 155 151 148 147 153 154 154 154 155 151 153 147 135 121 108 113 107 109 102 66 45 43 37 19 17 15 17 15 12 32 29 28 40 35 22 33 25 18 13 19 37 25 12 11 17 27 24 25 40 53 60 67 78 85 96 107 122 131 135 137 144 152 154 153 155 156 157 156 155 155 160 162 162 164 164 166 168 169 168 171 173 170 171 170 170 168 166 163 160 160 159 159 154 152 150 150 154 155 153 154 152 152 152 149 135 130 128 121 116 108 110 90 57 51 54 33 21 14 13 14 16 31 33 26 42 33 21 39 20 13 13 12 22 33 24 11 12 32 29 25 40 56 58 74 84 92 101 111 124 131 138 143 145 149 153 152 154 154 157 157 155 157 159 162 162 163 165 166 168 171 169 173 175 171 174 172 167 166 167 167 163 160 158 158 154 153 152 150 154 155 155 154 151 152 151 147 142 132 126 130 128 117 109 103 78 63 66 53 25 23 15 13 21 30 37 28 42 25 25 28 18 12 12 14 13 19 28 19 13 33 31 27 41 59 66 78 88 93 102 113 124 133 139 143 146 148 149 153 155 156 159 160 162 158 159 162 162 163 165 167 173 174 173 176 171 176 176 169 171 171 166 167 165 161 160 159 157 152 153 150 153 155 155 154 153 152 151 150 145 135 127 133 131 124 109 104 92 69 68 49 31 19 20 14 27 28 37 32 39 18 19 14 17 16 9 12 16 13 18 25 15 36 28 27 48 57 69 82 91 98 104 113 124 130 136 143 147 152 153 154 156 157 159 160 162 159 159 163 160 161 165 169 170 175 177 174 171 175 176 176 179 176 169 169 167 160 160 158 157 151 152 153 149 155 155 154 153 152 148 144 142 141 138 134 128 119 115 108 90 67 64 51 32 16 20 20 32 33 34 35 33 18 18 6 14 15 7 9 13 26 17 12 19 36 25 29 52 56 67 86 97 103 109 114 122 130 134 144 150 154 153 154 155 158 158 156 159 158 157 160 160 161 167 168 167 172 171 173 175 177 174 176 177 178 174 169 168 160 158 155 154 152 152 155 152 152 153 151 149 147 147 145 142 142 140 136 129 121 114 104 93 76 56 55 32 19 16 24 36 34 36 33 27 16 10 6 10 17 10 9 8 16 34 28 13 35 25 30 52 62 72 91 103 105 113 119 122 130 138 145 150 152 153 155 156 156 157 157 157 157 157 161 159 161 166 171 173 171 171 177 178 180 179 179 180 177 169 169 166 159 157 155 154 152 152 154 154 156 154 153 151 151 151 149 147 143 139 133 129 127 121 103 89 81 69 50 30 25 16 24 39 34 28 38 21 16 12 7 8 14 11 8 8 10 13 38 34 47 25 30 55 66 82 97 105 108 118 123 123 129 138 145 147 150 153 154 156 156 158 161 159 157 159 162 160 164 166 172 174 170 176 172 179 181 178 178 177 177 173 170 161 160 158 154 155 155 152 153 153 154 156 154 154 153 150 148 147 144 138 134 128 125 120 115 101 74 64 60 36 28 21 27 37 28 29 43 21 16 21 6 9 10 13 7 7 8 8 11 24 64 35 31 53 70 86 100 105 113 120 124 125 129 137 140 147 151 153 153 157 158 158 160 160 159 158 160 162 165 170 171 170 171 172 168 174 177 174 176 172 171 169 166 160 160 156 154 153 156 155 154 154 155 156 155 154 151 150 149 146 141 139 137 133 127 114 103 95 87 66 51 40 32 26 27 31 29 35 42 14 8 17 6 9 8 13 11 7 8 11 9 22 50 38 30 59 75 90 102 111 117 121 124 126 127 134 136 144 149 150 152 157 156 157 157 160 161 160 162 162 166 170 173 170 174 172 175 172 170 169 173 176 174 172 164 159 161 158 156 155 154 155 155 154 155 156 156 154 153 151 149 146 141 139 137 131 125 118 102 88 74 68 49 38 33 21 22 24 23 27 25 5 4 15 11 9 7 11 14 9 7 10 9 12 36 33 33 60 80 93 104 113 121 122 125 126 130 133 141 147 148 150 153 155 156 156 159 159 158 162 163 164 164 167 174 171 168 172 171 169 169 174 174 172 172 167 163 161 159 158 157 155 155 153 154 155 156 157 155 153 155 151 150 146 144 141 138 130 122 116 105 94 80 67 55 41 35 17 19 25 18 26 13 6 4 10 13 9 11 8 13 10 8 8 10 13 28 28 36 61 83 99 108 113 118 124 126 128 136 137 142 147 151 152 154 155 157 159 160 160 161 164 164 164 167 168 169 167 161 166 166 167 166 171 169 172 170 165 162 160 158 157 156 155 155 153 155 153 154 154 154 152 154 152 149 147 142 141 140 134 124 119 112 101 88 72 57 45 35 18 18 18 19 19 10 9 8 4 13 12 12 7 9 12 7 8 7 10 17 20 33 62 85 98 107 117 124 126 127 131 136 137 140 145 150 151 153 156 156 158 160 162 162 165 163 164 167 167 164 166 165 167 166 165 165 162 166 172 170 167 162 157 157 154 153 154 155 153 154 152 155 154 154 152 155 151 150 147 146 141 137 135 127 120 117 112 97 76 59 50 37 19 14 15 16 13 12 12 10 4 7 13 9 13 11 14 12 7 8 10 15 12 32 64 85 99 110 118 125 123 126 131 136 136 139 145 150 151 152 154 155 156 158 158 161 162 162 164 166 164 166 165 165 165 163 162 162 163 164 166 165 159 160 158 156 155 154 153 153 152 150 151 152 152 154 153 152 148 147 142 143 139 140 135 130 124 117 112 99 82 67 54 44 26 12 13 15 11 12 16 14 9 6 10 10 14 17 11 13 12 14 12 13 10 23 66 86 103 114 119 122 122 125 129 130 132 140 144 150 153 155 157 157 157 158 161 162 162 162 165 166 163 165 163 164 164 156 161 161 165 165 165 165 162 161 158 157 158 159 157 153 153 153 154 154 153 152 154 152 151 146 142 141 138 137 133 128 124 121 119 110 100 88 62 46 35 15 10 11 11 10 16 13 16 10 5 8 13 20 20 10 13 12 14 12 10 17 64 90 104 115 118 121 123 126 132 129 138 146 148 149 154 157 157 158 157 162 163 164 163 163 166 165 162 162 164 162 162 163 165 162 163 166 170 168 166 165 163 161 161 160 159 157 157 155 156 154 153 155 153 152 151 149 146 142 137 135 133 128 121 121 121 114 111 97 84 62 38 15 8 11 14 12 15 15 15 15 14 9 14 19 25 24 10 15 14 8 6 12 57 91 105 114 119 124 128 131 131 134 146 148 149 150 153 155 157 157 159 161 163 164 161 164 164 163 164 164 163 162 162 161 160 165 166 166 170 168 166 164 164 164 163 161 161 159 159 157 156 155 155 152 154 153 151 151 146 142 138 133 132 127 118 122 122 119 119 107 87 75 47 16 7 9 15 11 14 18 16 14 21 19 14 18 23 35 28 9 16 11 7 7 51 89 103 116 125 127 128 129 133 142 148 151 150 152 153 156 157 157 158 159 163 158 161 165 165 162 163 163 162 160 160 160 162 161 166 170 167 170 166 167 166 165 164 164 163 159 161 158 157 157 156 154 154 153 153 150 146 142 138 134 129 129 126 123 123 119 120 109 99 88 62 19 7 10 10 13 10 16 19 14 15 25 22 12 13 18 33 34 15 18 12 7 51 91 105 118 126 130 127 131 142 145 149 152 154 157 156 157 158 158 160 162 163 163 164 165 163 161 161 161 161 159 159 161 162 167 176 177 175 176 171 170 167 170 167 165 162 159 162 160 159 158 157 156 156 152 150 147 146 141 137 134 129 128 127 125 123 120 119 109 105 101 76 20 8 10 9 13 11 13 20 16 18 29 32 18 11 12 18 33 36 32 11 3 47 88 108 121 125 126 129 139 146 149 153 154 154 156 157 158 157 161 161 162 162 164 168 164 163 161 158 159 159 160 160 163 162 174 176 180 180 179 183 174 168 170 168 165 164 163 163 163 161 158 158 157 155 153 152 147 144 142 136 132 130 128 127 126 125 119 118 113 107 97 83 27 8 13 8 9 11 10 15 16 23 31 27 15 13 10 11 15 24 35 11 6 50 89 111 121 123 128 133 142 148 154 155 155 156 156 156 157 159 158 162 164 161 167 169 162 163 162 161 159 159 162 164 167 170 178 183 190 186 188 185 181 177 171 168 164 164 162 162 161 159 157 155 157 156 153 153 150 146 143 138 134 128 125 125 126 124 120 118 114 105 97 84 44 7 16 11 8 13 14 8 13 17 31 30 22 16 11 9 9 14 55 26 16 54 91 111 124 130 131 134 144 152 153 155 155 155 156 160 157 158 159 163 164 162 170 170 166 163 161 161 161 161 163 168 170 169 181 181 190 182 185 188 184 177 173 166 165 163 160 159 155 149 152 153 150 152 153 153 152 149 144 138 134 126 124 123 124 122 120 119 111 106 99 85 65 10 15 17 6 10 18 14 13 16 24 25 24 24 14 10 10 9 45 35 21 55 96 121 129 129 132 133 144 149 147 151 152 154 156 157 158 158 161 161 163 166 170 168 164 161 160 160 161 161 163 164 167 170 174 176 176 182 182 182 182 172 169 166 162 166 162 161 157 146 146 146 142 134 137 142 148 147 142 140 135 124 123 121 123 122 121 121 115 105 92 91 86 29 9 20 11 6 7 13 14 13 23 23 15 14 17 14 17 11 26 29 20 61 108 124 123 127 131 136 142 150 148 146 150 150 152 155 154 157 156 159 161 163 166 168 163 159 159 161 160 161 163 163 164 160 166 172 169 167 170 177 164 155 166 159 143 145 147 139 134 130 121 122 120 120 111 116 123 125 134 138 137 129 120 118 121 121 122 120 117 107 99 91 98 71 9 20 17 14 7 8 11 11 11 19 17 14 19 21 14 12 7 13 21 79 108 105 109 119 124 127 134 139 145 126 121 142 141 154 155 150 153 156 159 162 164 161 161 160 158 163 163 160 160 162 159 149 138 140 150 152 159 147 120 123 119 101 94 89 92 85 89 103 106 88 94 108 114 102 96 99 116 125 122 115 119 118 117 120 120 119 117 113 108 93 99 91 39 12 25 16 14 12 11 9 6 12 21 11 17 24 19 15 10 5 13 70 81 82 85 73 79 91 87 76 81 91 81 104 126 142 137 136 146 155 159 161 161 160 161 161 160 161 166 160 161 162 156 146 137 105 114 142 145 127 102 89 84 71 71 66 63 60 54 66 74 69 79 85 85 86 80 76 90 91 89 105 116 112 116 119 116 117 116 112 111 96 96 95 68 18 24 17 19 16 13 16 16 15 23 18 15 28 32 19 14 10 25 48 56 75 75 59 48 41 43 39 46 62 73 86 107 117 112 125 139 142 151 158 162 164 161 157 159 157 161 161 163 161 148 141 130 131 100 125 132 98 78 75 61 63 59 53 57 54 45 51 62 65 64 65 57 55 57 67 60 70 82 100 112 116 124 116 114 115 116 114 111 104 90 94 80 41 32 34 16 21 18 21 33 34 28 27 22 24 27 18 26 14 35 43 46 51 50 40 37 39 42 46 49 43 51 63 79 98 101 119 137 134 139 150 158 160 156 158 153 155 158 156 156 156 146 131 125 110 124 120 104 80 78 62 60 56 63 67 76 84 86 82 85 85 94 85 81 82 80 85 88 100 107 116 115 112 118 120 114 115 116 116 110 110 103 87 75 54 40 63 30 16 18 19 28 41 45 33 32 23 19 23 21 16 27 38 37 33 35 44 52 59 64 65 57 54 54 51 58 75 94 117 130 138 145 149 152 152 152 153 146 147 156 153 150 151 153 133 128 104 109 118 95 104 94 97 101 102 112 120 123 121 126 125 119 116 117 108 110 108 112 117 116 117 116 112 113 121 124 119 112 114 115 117 112 108 109 106 86 51 31 63 57 22 19 18 21 25 45 37 32 35 18 23 14 10 21 44 48 56 63 76 92 98 104 113 115 111 103 97 89 78 79 102 113 126 130 142 144 146 151 153 154 149 150 151 147 148 148 139 117 111 112 114 112 117 117 116 109 109 108 103 96 91 85 89 97 101 98 104 109 113 123 124 122 121 124 123 126 124 128 121 114 115 118 118 114 110 111 106 100 70 28 29 43 39 23 22 19 14 25 33 29 30 31 19 17 11 11 53 69 81 95 98 107 112 111 112 110 102 93 88 87 90 96 90 94 110 126 137 138 141 145 146 151 152 146 146 148 143 137 136 126 119 119 115 118 112 104 99 106 107 79 48 35 33 35 35 38 58 74 88 89 87 101 117 120 123 126 128 126 126 128 125 119 119 119 116 115 110 110 106 97 73 43 19 26 34 31 25 22 15 21 27 20 33 32 26 11 11 8 52 90 90 100 103 101 87 79 59 36 26 22 24 22 34 50 75 91 103 110 123 134 139 142 144 149 154 155 151 148 144 139 133 129 122 118 118 111 108 107 120 115 66 77 40 35 30 58 41 36 29 31 44 69 80 86 101 114 117 121 123 123 126 130 127 125 123 119 116 114 111 109 111 104 82 61 24 17 31 25 26 24 23 23 25 20 25 29 27 12 11 8 40 95 99 97 99 77 57 38 30 52 35 39 36 34 75 27 35 89 95 106 106 119 131 141 148 154 163 169 159 150 146 138 134 131 125 119 117 116 122 126 113 78 106 144 49 44 34 52 44 41 51 99 52 25 40 68 86 103 112 118 121 124 130 132 130 126 127 121 119 114 111 111 111 109 94 72 38 13 17 28 23 24 23 32 30 18 25 25 27 16 11 8 33 87 97 94 82 56 25 16 71 120 44 36 43 38 51 40 70 161 123 98 111 104 119 139 151 158 168 178 160 152 149 145 142 132 126 127 129 135 132 113 84 118 171 164 81 42 52 46 40 34 78 124 85 67 66 67 85 99 107 118 123 131 133 132 132 129 127 125 121 117 113 112 113 109 97 83 66 27 13 22 26 18 21 23 26 19 26 19 18 17 11 9 31 89 94 86 57 28 34 57 78 109 72 32 35 43 48 40 96 147 136 86 95 117 110 134 153 159 173 180 165 156 150 146 142 137 137 136 148 148 132 95 90 109 126 142 120 62 44 58 66 78 105 103 102 113 110 107 122 126 123 124 129 138 140 138 136 133 129 126 121 118 112 114 116 109 98 79 81 54 27 29 40 34 16 19 19 20 32 33 32 17 12 8 27 95 108 89 65 65 71 80 81 80 86 75 73 74 92 106 105 107 105 106 112 130 120 133 152 158 166 168 161 155 149 143 143 144 142 152 160 156 144 128 114 106 100 96 113 107 110 117 131 120 123 126 129 128 126 127 133 136 135 132 137 142 145 142 137 132 133 128 124 119 116 114 116 112 103 82 81 69 43 61 69 45 24 22 23 34 34 31 27 18 11 7 27 97 111 110 105 102 90 94 106 97 84 97 105 129 130 138 140 141 142 140 144 137 120 130 151 155 158 160 157 151 145 140 144 145 142 156 161 159 152 141 140 139 126 125 119 117 128 106 131 128 140 143 140 133 133 133 136 139 142 141 144 148 146 143 138 134 134 131 123 122 118 114 117 115 106 89 77 76 50 59 67 30 26 58 49 32 28 30 29 17 14 5 34 93 107 119 116 113 105 102 112 114 107 117 114 125 138 138 140 138 145 146 141 124 116 129 148 153 156 155 151 148 139 139 145 142 144 146 153 154 143 137 132 131 127 131 132 142 147 138 142 135 140 142 135 131 131 138 141 143 146 146 144 145 145 142 137 135 135 132 126 122 121 117 117 114 105 97 79 74 51 46 74 49 28 33 31 45 30 9 22 20 10 5 44 89 104 117 121 120 115 109 111 112 114 116 119 118 126 131 132 130 134 136 129 123 120 135 149 152 156 154 148 142 136 138 145 146 148 145 146 146 152 150 144 137 131 130 129 130 128 127 130 132 131 129 132 135 142 147 146 146 149 149 145 146 145 142 139 139 137 133 130 124 119 118 121 114 106 100 88 81 58 58 88 75 38 18 31 37 22 12 10 16 9 9 55 87 106 117 125 127 126 121 116 113 115 115 114 117 119 125 134 138 143 135 129 128 122 138 149 150 157 159 148 141 137 138 143 151 150 151 150 144 145 151 153 149 150 148 148 145 144 141 143 144 143 142 146 151 151 153 154 156 151 152 148 146 144 143 141 138 138 134 130 125 120 120 122 116 109 105 97 84 55 61 99 79 19 17 20 34 35 25 10 10 7 24 69 89 110 123 128 132 134 131 124 123 126 128 129 129 136 136 143 144 142 136 137 127 122 143 150 151 158 158 151 143 137 139 145 149 150 152 150 153 150 145 151 150 155 155 163 164 163 166 165 161 159 156 154 156 156 155 157 158 152 151 152 149 147 146 143 139 137 132 126 125 123 121 120 115 109 102 96 89 59 61 102 113 56 9 8 11 34 40 19 8 5 39 76 90 111 124 132 136 138 139 134 133 135 137 139 138 139 139 146 146 142 140 136 124 126 143 148 149 155 155 150 144 138 138 144 149 149 151 152 157 159 154 151 156 156 155 161 160 163 166 169 168 165 163 156 156 161 162 159 156 156 152 150 148 147 144 141 142 136 129 124 127 124 120 118 114 112 107 93 78 63 60 101 136 79 19 7 10 23 35 31 10 9 41 78 94 112 123 135 138 139 139 137 137 138 138 138 137 144 147 148 143 145 141 128 122 129 149 151 150 155 154 151 146 142 140 140 144 150 153 152 154 160 162 156 154 154 161 161 158 162 164 169 170 164 161 159 158 159 159 156 157 158 154 151 153 150 142 138 137 137 130 124 125 123 119 118 115 111 102 102 76 63 52 95 134 67 22 17 21 61 90 60 10 10 37 81 98 111 121 132 136 136 140 139 140 140 142 141 140 147 149 148 149 147 136 128 125 133 151 151 153 155 154 149 147 143 143 146 147 149 148 151 154 157 167 162 157 158 157 161 154 157 159 166 164 164 166 166 162 161 161 158 160 159 154 154 151 148 142 137 129 133 132 128 123 120 118 116 114 111 99 100 79 63 63 98 105 80 33 20 36 106 116 79 15 13 33 82 100 116 124 128 133 137 141 141 143 143 141 141 141 145 152 149 152 145 134 129 125 139 153 151 154 156 157 152 146 144 145 148 148 148 149 154 153 156 168 173 166 160 161 160 157 153 155 160 159 162 161 163 166 164 161 161 159 156 152 150 149 149 145 134 124 133 132 129 123 122 114 112 111 109 103 97 75 62 72 91 113 116 29 12 53 89 84 91 17 17 34 80 103 116 122 125 131 137 139 141 143 146 142 143 145 146 148 148 148 141 130 129 127 144 154 153 153 154 155 149 148 146 144 147 151 151 150 150 150 152 167 180 183 176 171 162 161 161 160 159 165 163 165 165 167 162 162 162 159 155 153 149 150 147 143 139 133 131 132 127 121 119 113 112 112 108 100 96 70 60 77 101 135 162 64 10 59 53 60 87 23 17 30 79 103 115 122 125 131 135 136 137 138 144 141 142 144 146 148 147 146 138 131 129 127 147 152 150 151 153 152 147 144 145 144 145 152 153 148 147 151 155 165 184 183 179 178 175 167 164 165 167 168 172 173 172 166 156 160 160 155 152 149 149 149 146 145 144 139 131 131 125 123 118 115 113 110 103 100 86 63 60 87 115 139 162 102 0 34 64 43 61 26 16 18 60 101 113 122 126 131 135 134 138 142 142 142 145 145 143 147 149 145 139 130 127 131 152 153 148 150 153 150 146 145 144 142 143 148 153 153 149 151 153 161 171 183 180 178 178 174 175 169 168 168 173 172 169 160 158 158 158 154 152 152 151 148 145 143 142 138 135 131 126 122 116 116 114 105 98 89 71 60 61 95 124 143 157 123 35 0 35 45 33 24 14 12 43 98 113 121 125 130 136 138 137 141 144 144 146 147 146 148 146 142 135 130 127 139 155 151 150 150 150 149 146 144 141 140 141 146 148 148 152 152 155 159 165 177 177 177 177 173 175 172 176 172 176 172 166 161 160 156 154 153 152 151 149 149 143 141 140 138 135 132 125 119 112 114 116 107 100 90 77 58 66 104 136 151 142 120 129 41 9 12 16 22 12 7 25 86 109 116 123 130 135 139 141 144 147 143 146 148 144 145 145 140 131 127 128 143 155 150 150 152 152 149 148 144 140 137 138 138 142 143 149 153 155 162 170 176 174 178 171 168 175 185 182 181 179 175 167 163 160 153 151 151 149 147 145 146 141 141 140 137 135 129 122 119 110 113 110 109 102 100 93 64 74 108 139 144 127 103 150 132 80 39 25 19 13 7 11 68 107 113 121 129 134 136 142 145 147 149 149 147 149 149 143 140 134 126 128 146 155 153 152 153 153 149 149 143 141 135 131 130 135 141 137 146 156 165 175 180 180 178 176 178 184 184 179 184 174 172 167 159 158 152 151 150 148 146 144 143 143 141 141 135 135 131 121 115 115 116 111 101 96 103 91 58 75 116 141 137 128 75 124 137 110 82 53 20 12 5 5 44 100 111 120 127 130 135 139 143 148 151 149 149 150 151 147 143 132 128 131 147 149 153 157 156 153 154 151 142 139 139 132 132 132 133 128 135 150 163 172 176 173 176 183 186 182 182 183 176 176 170 160 157 157 153 149 150 146 144 144 142 141 141 139 136 133 128 123 114 114 110 104 100 100 104 80 60 69 127 146 133 135 107 61 62 42 27 25 11 6 7 5 25 88 109 116 122 127 133 138 141 148 150 149 147 148 149 148 145 131 132 135 147 152 154 159 163 159 155 149 145 139 141 138 136 131 129 127 127 142 157 163 172 178 180 185 181 183 183 174 175 178 168 163 162 158 153 151 149 146 147 147 142 141 140 140 135 130 127 122 116 112 113 107 108 110 90 68 65 69 139 157 141 140 133 111 60 44 45 12 9 11 10 5 21 74 112 116 121 127 131 136 142 145 149 151 148 148 148 146 147 136 133 137 149 152 157 167 169 158 155 150 143 140 143 140 143 138 132 130 122 135 157 161 164 173 176 178 178 180 177 176 174 171 168 164 158 157 155 150 149 145 146 142 138 141 141 139 134 130 126 117 115 109 103 94 101 108 85 62 59 76 132 143 129 115 79 63 47 57 28 13 17 16 12 8 11 58 107 114 118 125 130 135 141 146 150 149 149 149 150 151 146 134 132 139 153 153 159 176 179 162 157 150 141 138 146 140 140 145 139 133 124 124 151 161 157 158 168 174 176 175 176 174 172 169 165 162 156 155 152 152 147 144 144 139 141 140 139 138 133 128 123 121 113 109 103 97 105 111 89 68 54 79 77 55 44 28 24 20 34 31 19 15 20 20 13 10 10 42 99 114 119 124 126 133 140 143 147 150 150 148 150 152 142 133 133 135 147 152 156 181 198 170 158 148 140 140 145 138 134 138 137 134 130 120 144 172 164 157 163 170 172 173 172 174 170 171 163 160 157 154 151 151 149 146 143 142 140 142 136 137 134 124 123 122 114 114 110 98 96 92 82 63 56 67 24 0 4 8 11 17 26 34 27 16 30 22 13 14 13 32 86 115 119 124 127 130 138 144 146 148 148 149 149 151 140 127 132 131 140 148 157 169 184 166 154 144 139 136 137 135 131 130 131 131 128 119 140 171 169 160 162 166 170 169 171 170 169 165 160 158 155 153 149 147 150 146 143 142 140 141 136 135 131 122 125 114 110 117 102 99 105 87 68 63 57 59 18 5 8 6 9 14 21 34 29 17 31 18 15 10 13 23 67 111 119 123 127 131 134 142 148 147 149 150 150 155 140 114 117 128 133 145 155 159 160 153 145 136 132 130 127 118 114 122 127 128 123 116 156 176 172 167 158 164 166 167 168 168 166 164 158 156 153 152 150 150 152 145 143 141 141 141 136 133 130 127 124 111 110 111 108 101 105 85 65 59 55 52 14 7 7 7 11 19 34 28 21 20 22 15 11 16 18 19 47 95 117 124 126 132 135 142 148 147 149 150 149 152 144 119 102 109 124 137 147 150 146 140 134 131 122 103 87 80 100 113 117 117 109 131 161 172 173 172 163 159 163 164 167 164 163 160 158 156 153 154 152 149 150 144 144 142 140 139 136 129 126 127 122 119 106 115 107 91 96 78 62 61 63 44 11 6 7 10 16 25 31 26 21 18 23 16 18 26 24 23 36 81 116 123 127 131 136 140 145 148 148 149 150 149 146 140 121 104 112 125 132 137 139 134 132 115 92 101 125 136 142 139 117 109 128 152 159 162 166 173 171 161 163 163 165 164 163 161 157 154 154 153 151 149 149 147 143 145 141 139 133 131 125 116 119 118 104 119 96 94 86 75 58 62 66 46 17 10 11 16 20 29 31 23 24 18 23 19 20 26 25 24 35 63 113 124 126 129 135 139 144 147 147 147 149 147 148 143 137 121 108 115 118 127 130 127 120 93 103 125 146 148 140 130 125 135 151 156 158 160 162 168 170 168 163 164 161 159 161 160 156 155 154 153 149 152 152 149 145 146 144 141 135 134 124 112 117 107 110 115 104 100 87 74 56 62 70 44 19 12 13 17 20 28 16 28 32 28 19 19 26 31 28 24 25 50 105 123 126 129 134 139 142 145 147 148 147 145 146 141 138 135 122 117 115 111 110 115 107 109 131 149 146 140 141 143 151 150 148 152 155 158 162 163 167 168 165 163 160 160 158 157 159 155 153 152 151 150 151 149 147 143 142 138 136 131 119 108 117 113 120 107 108 84 84 74 68 66 67 36 22 9 16 21 16 13 18 31 26 26 23 25 25 22 38 42 19 38 92 122 125 130 134 138 138 144 146 147 146 145 145 139 134 129 129 124 128 125 115 107 111 131 148 149 138 136 132 142 147 148 147 151 153 158 161 159 164 166 167 163 158 161 160 159 156 154 151 151 152 150 149 148 143 146 143 135 132 128 123 105 111 116 112 94 99 79 77 65 63 65 65 36 23 7 24 29 11 14 19 18 19 11 22 17 17 26 28 40 25 31 76 119 125 130 135 138 138 141 145 147 147 145 144 140 131 122 115 117 118 124 143 138 130 130 133 134 115 112 104 114 129 140 145 152 154 156 160 157 159 163 164 164 161 159 159 156 156 155 154 152 152 152 148 147 145 149 142 135 124 117 116 105 115 121 102 101 90 78 68 59 55 61 58 34 26 10 32 32 8 12 16 14 12 16 14 15 19 23 20 22 24 24 54 110 124 130 134 136 139 141 145 147 145 145 145 141 128 110 94 100 99 114 144 141 135 128 124 128 128 102 85 98 110 122 130 146 147 147 157 157 158 157 162 162 162 161 157 156 157 158 157 154 154 152 148 147 148 144 136 129 122 104 112 104 116 116 110 95 85 85 75 55 64 76 60 37 31 21 29 22 10 12 12 9 13 13 18 14 14 18 28 32 24 22 41 85 119 131 133 134 135 140 145 146 142 138 140 141 110 84 85 92 97 112 117 138 136 131 126 123 123 114 97 84 93 90 110 129 135 144 150 155 153 156 158 161 159 158 157 160 160 160 157 157 155 152 150 149 145 141 133 131 116 111 113 104 113 118 95 87 102 75 60 59 81 78 55 42 32 28 28 15 12 12 8 9 15 10 28 21 19 23 29 39 34 22 32 65 105 128 132 134 135 140 144 142 131 128 130 114 87 77 84 86 97 120 135 147 129 129 127 135 132 108 94 87 86 89 100 108 126 134 140 147 148 151 149 149 153 156 157 159 161 160 161 159 155 153 151 150 144 138 133 120 117 113 114 101 106 114 90 99 81 50 59 71 77 70 52 42 30 35 35 13 12 9 7 9 17 13 30 28 27 29 34 34 29 21 25 52 97 126 129 131 136 137 136 127 114 119 107 90 87 81 80 83 117 148 153 138 126 128 126 142 155 143 112 106 108 101 94 96 118 120 139 135 135 139 142 143 146 154 155 155 161 161 161 159 155 154 149 143 141 142 127 111 123 112 102 112 103 107 84 91 68 59 72 59 68 72 56 43 35 45 64 22 12 8 6 13 20 19 30 37 37 31 28 23 20 19 19 45 88 124 129 130 133 135 133 103 102 107 93 97 86 91 108 128 147 160 153 146 149 145 146 157 157 153 152 152 146 129 122 96 106 117 130 125 122 131 131 145 136 144 155 152 160 162 160 157 155 153 150 138 128 124 119 112 113 110 99 108 98 76 85 90 84 68 61 62 74 76 56 53 44 60 97 27 11 12 7 17 20 24 63 45 38 28 21 17 17 18 24 42 64 108 127 130 131 131 112 92 99 106 93 114 115 126 141 136 125 132 143 154 161 155 153 147 132 121 132 138 144 152 153 140 134 137 130 119 119 120 125 142 136 134 140 150 155 161 162 158 157 151 149 141 136 119 120 120 103 108 97 98 91 78 81 77 65 70 62 68 79 71 60 67 43 53 95 27 20 17 12 12 14 18 108 85 52 28 24 24 18 17 24 30 49 91 122 128 126 122 89 80 93 103 106 126 133 129 118 113 115 117 117 126 142 133 117 117 121 127 127 127 125 125 127 139 149 150 140 121 119 116 121 122 133 129 130 135 139 154 162 159 153 146 145 141 136 123 124 111 104 98 89 90 96 82 61 83 92 75 71 71 73 74 69 79 47 102 82 54 47 19 17 12 14 17 99 98 81 48 24 25 20 17 20 26 39 75 122 122 116 100 77 79 87 113 125 126 117 106 104 111 114 117 118 116 120 126 111 115 119 124 123 124 123 116 108 109 119 128 135 135 135 132 122 108 124 146 138 126 129 156 163 157 151 146 139 132 135 118 116 100 90 86 75 80 84 65 67 95 92 72 71 78 71 74 82 80 88 162 77 95 60 24 18 21 19 20 97 94 99 91 37 22 21 18 24 33 36 66 112 111 110 90 77 88 107 116 115 114 99 92 97 98 100 105 107 104 107 119 113 103 94 98 97 91 84 89 93 87 83 83 93 108 113 118 136 121 120 141 150 136 114 130 145 147 148 143 141 122 119 111 107 99 83 84 68 70 63 60 83 91 71 73 76 84 80 79 94 86 139 166 91 93 66 27 21 20 22 21 97 93 96 92 66 42 18 19 34 38 30 53 94 114 115 90 85 106 122 115 102 86 70 67 72 74 69 73 76 77 78 78 81 79 71 74 74 79 85 89 89 93 96 91 84 81 85 95 108 130 138 139 143 147 134 125 123 142 147 135 138 122 104 113 114 88 67 76 64 68 56 60 92 83 73 85 77 76 86 94 98 108 184 185 117 97 69 32 18 17 14 19 106 100 94 80 51 34 18 21 25 26 26 42 67 113 110 93 97 119 127 121 103 87 72 81 101 103 101 102 99 96 97 98 96 101 105 115 115 118 118 116 118 119 119 114 108 117 131 141 136 141 146 142 139 148 154 151 136 138 132 126 127 122 106 108 112 90 61 61 63 59 61 69 86 82 79 79 83 82 96 108 104 168 200 190 145 102 104 41 25 16 20 13 120 113 107 84 35 19 14 23 35 41 44 44 46 94 114 103 109 128 135 133 124 119 102 100 115 116 121 127 126 129 133 129 127 126 127 128 127 127 130 126 126 127 125 125 134 141 150 153 153 156 161 159 155 156 154 155 156 148 137 118 105 107 106 108 90 82 72 69 47 51 77 74 89 71 64 83 97 95 109 106 143 207 204 189 179 118 117 58 22 28 32 22 130 122 111 71 26 23 29 54 71 65 51 42 48 81 112 117 127 134 141 137 133 131 120 109 113 118 127 133 135 139 141 138 136 135 137 139 137 133 135 131 130 132 138 147 153 149 152 153 158 162 163 158 159 160 156 148 148 147 130 122 104 78 83 90 74 67 70 62 38 52 64 73 68 75 81 95 92 103 117 126 194 212 203 191 192 165 98 74 19 13 31 31 129 126 113 53 20 32 58 82 80 65 44 33 40 57 104 130 133 136 145 143 137 135 134 122 111 111 120 125 133 138 137 135 134 136 139 143 138 134 133 136 140 138 148 156 154 154 153 156 162 165 160 149 155 160 157 148 130 134 138 122 98 73 73 72 74 65 53 56 42 47 60 64 75 90 99 110 105 114 121 181 214 209 200 196 195 188 148 94 36 11 19 28 144 134 119 59 21 32 61 74 71 67 52 37 39 46 85 121 131 135 144 148 140 133 135 134 124 122 123 121 125 129 134 137 137 137 136 136 132 135 144 148 146 145 147 151 153 155 156 160 165 162 157 153 158 160 158 148 137 124 131 122 104 77 79 85 74 67 57 43 39 59 60 69 95 98 104 114 117 117 159 216 218 211 206 203 197 189 185 154 89 33 16 19 170 159 144 90 25 26 31 40 60 61 47 35 34 40 58 108 128 134 139 146 143 135 134 133 123 131 132 126 124 126 129 134 134 132 138 138 135 141 144 144 147 150 151 149 154 158 161 163 162 161 156 157 162 160 156 151 138 127 119 107 111 89 63 60 57 52 68 41 37 63 66 83 85 100 116 127 119 145 212 223 217 211 209 207 203 193 192 188 155 92 56 26 178 179 171 149 78 27 27 30 35 43 40 26 19 31 52 93 123 132 138 141 143 138 134 131 125 130 137 137 126 123 122 125 124 124 126 129 134 139 141 147 148 149 153 154 159 161 163 163 161 158 157 160 162 160 155 149 142 130 125 111 102 87 77 63 52 48 56 38 35 74 75 85 100 114 124 127 133 202 225 221 215 213 213 212 207 198 196 191 190 152 114 67 159 170 179 178 155 93 34 26 32 33 27 18 17 53 56 64 113 131 135 138 140 139 136 135 132 122 118 125 124 120 117 112 119 121 120 126 133 132 138 143 148 153 158 161 162 162 162 164 162 158 160 160 160 157 150 142 137 123 124 103 91 77 64 59 51 39 41 31 44 77 81 101 120 123 129 131 190 230 225 219 216 216 216 217 211 204 201 198 192 177 145 115 170 159 146 140 123 87 63 54 44 31 30 52 79 92 61 46 97 127 134 136 138 140 138 136 137 131 123 122 122 127 121 114 114 117 121 129 132 134 140 148 153 158 161 162 162 163 161 159 163 161 159 156 150 150 145 129 129 103 104 98 66 62 54 47 43 45 39 37 66 82 108 123 127 130 131 186 232 230 224 219 219 219 219 219 212 210 205 203 194 191 164 135 209 194 169 151 135 138 170 174 156 131 106 114 128 127 80 38 75 118 129 135 137 140 137 136 136 138 138 134 138 141 135 124 119 132 130 136 144 144 153 158 158 160 161 162 162 163 163 162 161 162 159 155 146 133 134 129 116 88 84 75 53 46 63 49 46 39 39 45 81 109 127 132 128 132 190 235 233 227 223 222 223 223 222 219 215 214 210 202 193 197 179 162 211 210 207 206 205 202 198 193 187 180 166 146 135 142 112 47 51 106 130 134 138 140 141 138 136 138 138 143 141 142 144 134 141 152 147 143 156 156 160 161 162 161 161 164 163 164 164 161 159 157 155 137 132 127 118 118 107 88 74 46 52 40 54 49 43 31 37 70 109 137 146 137 132 194 239 236 230 227 225 224 225 226 224 221 220 217 213 207 203 198 186 179 209 210 209 207 207 203 199 195 190 183 175 169 163 159 142 78 34 82 127 135 137 143 145 142 140 139 141 144 149 149 149 154 149 156 160 165 159 162 163 163 163 165 164 164 166 166 164 163 161 157 144 140 128 113 94 93 85 91 76 52 38 42 50 40 43 43 66 121 140 149 141 135 198 243 237 233 231 229 229 226 226 226 227 227 223 219 216 214 209 202 193 188 210 210 210 208 207 205 204 200 194 184 177 169 169 168 160 125 46 65 119 132 136 143 150 148 145 143 145 146 150 151 158 154 151 164 161 166 167 166 168 167 166 167 165 165 167 167 164 163 160 155 133 136 125 102 96 81 62 63 60 66 38 48 42 39 52 72 110 145 152 137 144 204 243 238 234 234 232 232 229 228 229 229 229 227 225 223 219 216 212 205 198 189 210 211 210 209 207 206 205 203 197 188 178 170 168 169 164 157 92 40 88 122 132 143 149 150 149 148 147 151 149 150 153 155 161 162 161 166 167 168 168 169 169 167 164 166 168 168 164 159 159 159 136 122 105 104 84 64 63 42 56 59 41 37 36 45 82 116 130 141 132 156 216 242 239 236 235 234 234 233 231 229 229 231 230 228 227 226 221 217 213 207 209 175 211 211 211 209 208 207 206 204 197 189 180 173 170 172 168 164 144 56 56 99 113 133 147 149 150 149 148 149 149 149 149 154 152 158 165 160 163 168 168 166 167 168 165 164 167 164 160 152 149 139 132 104 102 97 71 43 41 37 41 44 37 31 39 60 118 143 144 135 166 228 241 239 238 238 237 236 235 234 233 231 230 231 230 229 227 225 223 220 215 209 223 135 212 212 211 210 208 208 206 204 198 189 181 174 171 173 171 160 165 99 38 60 97 121 143 148 147 149 148 150 145 140 147 151 149 152 156 153 159 166 165 166 166 166 167 161 161 148 149 140 138 114 98 87 82 79 71 41 34 38 35 36 34 33 54 93 136 140 136 173 230 239 240 239 237 238 237 236 235 234 234 233 233 232 231 230 228 227 224 220 217 213 222 73 212 212 211 210 208 207 206 204 198 191 182 176 174 175 175 163 165 138 55 38 74 109 133 136 144 146 144 136 136 142 137 139 148 146 146 148 152 164 156 162 164 163 165 158 152 148 137 145 136 99 84 74 70 53 49 40 37 37 37 41 38 65 105 117 138 136 176 230 240 239 238 238 238 239 238 237 236 235 234 234 234 233 231 230 229 228 224 221 218 227 180 21 212 212 211 210 209 207 206 204 199 193 185 179 176 179 178 171 157 150 68 34 54 83 102 109 130 140 131 117 125 132 129 133 146 134 130 137 152 147 140 150 158 146 145 132 128 132 118 129 109 95 87 57 44 37 29 32 34 40 43 46 53 93 121 129 134 184 232 240 239 239 239 240 239 239 238 238 236 236 234 234 233 234 233 232 229 227 225 220 221 234 105 7 212 212 211 211 209 208 206 204 200 194 188 183 179 180 180 180 174 163 107 54 39 51 75 89 109 121 117 118 113 125 127 127 134 112 113 144 146 131 126 144 143 142 125 117 104 105 105 91 76 86 71 46 30 30 33 42 34 44 48 70 91 108 121 134 194 234 240 239 238 239 240 240 239 239 239 238 237 236 236 235 235 234 233 232 229 228 227 223 230 205 36 17 213 213 212 211 209 208 206 205 203 197 192 187 183 183 183 182 177 177 164 91 31 34 55 81 91 97 107 107 110 122 121 111 122 111 130 138 127 131 120 130 135 141 113 87 80 107 91 75 66 59 40 36 28 41 48 49 34 41 51 90 97 107 135 202 235 240 239 239 239 239 240 240 239 239 240 239 237 237 236 235 236 235 234 232 230 230 229 224 240 127 8 23 214 213 213 212 211 208 207 206 204 202 197 192 189 187 188 188 187 188 185 148 71 28 47 54 71 88 89 93 94 101 107 116 138 109 127 117 114 123 107 107 118 119 97 68 74 82 61 53 49 37 26 33 29 40 39 37 43 49 81 121 117 151 212 237 239 238 238 239 239 240 240 239 240 239 239 239 239 238 236 236 236 235 235 232 231 231 230 233 211 42 17 23 214 213 213 212 211 210 209 206 205 204 201 198 195 193 192 192 193 193 189 179 154 60 36 47 50 59 74 78 92 86 117 122 116 114 121 97 108 99 95 99 106 106 73 80 62 45 42 39 33 28 27 40 33 32 40 59 65 97 123 124 166 220 237 238 238 238 238 239 239 240 240 240 241 240 239 239 239 238 236 236 236 235 234 235 233 232 231 246 130 10 26 22 214 213 214 213 212 211 209 208 206 206 204 202 201 200 198 198 198 199 195 188 189 154 60 36 38 37 48 66 83 81 97 111 110 100 100 83 86 76 96 88 88 77 63 59 45 32 31 27 24 27 38 41 37 43 64 103 114 111 132 180 227 237 237 238 237 238 238 239 239 239 240 241 240 240 239 239 239 237 236 236 236 236 235 235 235 233 239 216 42 19 26 25 213 214 214 213 213 212 211 209 208 208 206 206 206 205 205 204 204 203 204 201 195 191 143 65 38 25 31 49 54 73 80 85 85 94 82 79 75 74 73 65 69 51 53 34 26 22 22 26 31 31 37 37 53 94 104 123 121 143 198 233 237 236 236 238 238 238 239 239 239 239 240 241 240 240 239 239 239 238 237 236 236 235 236 236 236 234 249 122 8 25 25 25 213 214 214 214 214 212 212 211 211 210 209 208 208 209 209 209 209 209 208 204 198 191 185 161 99 53 20 28 39 51 48 43 69 79 70 72 61 57 53 45 57 43 34 27 29 28 25 26 36 46 51 79 110 130 128 127 162 214 233 235 235 235 236 237 238 238 239 239 239 239 240 241 239 240 239 239 238 239 238 236 236 236 237 236 236 245 206 34 20 25 25 25 213 213 214 214 214 214 213 214 212 212 211 211 212 211 211 211 211 211 210 207 203 196 188 183 181 160 94 41 26 33 29 25 36 39 38 44 40 40 35 32 34 37 30 26 24 29 32 36 55 84 108 125 139 128 142 187 224 234 234 236 235 236 236 238 238 238 239 239 239 240 241 240 241 239 239 239 239 238 239 239 236 236 236 237 238 249 103 9 25 25 26 24 212 213 214 214 214 213 214 214 214 213 214 213 214 214 213 214 214 212 212 209 206 201 191 188 187 188 189 148 59 31 35 31 29 26 27 27 32 33 30 32 33 34 33 36 32 44 68 91 111 132 134 136 129 155 207 228 233 234 234 234 235 236 237 238 238 238 240 239 240 240 241 240 242 239 239 239 239 238 238 238 237 236 237 238 251 187 21 22 25 26 25 24 212 213 213 213 215 214 214 214 214 214 214 214 214 214 214 214 214 213 213 213 208 202 189 191 192 194 201 205 158 58 47 59 58 60 58 47 40 49 47 46 49 55 58 67 78 95 121 140 144 146 137 135 173 219 230 232 233 233 234 234 234 235 237 238 238 238 239 240 240 239 239 240 240 239 239 239 239 239 238 238 238 236 237 241 235 77 13 26 25 25 24 24
