P2
# Generated by OpenCV 4.2.0
92 112
255
22 8 17 22 14 39 1 6 20 4 10 5 38 39 26 20 18 12 8 9 8 9 3 8 7 13 18 24 44 47 43 33 59 71 91 70 113 97 117 111 120 141 126 124 116 133 124 111 114 117 109 110 101 103 102 100 84 71 57 59 81 63 41 58 49 32 20 14 9 15 11 20 33 32 20 13 7 9 18 16 18 15 12 5 10 11 13 21 21 25 34 34 7 19 11 12 9 6 23 41 21 39 22 36 11 25 16 15 11 18 22 30 33 20 29 24 12 25 37 54 46 39 57 53 41 41 69 73 90 116 104 107 128 138 137 138 142 142 140 138 143 138 81 134 113 127 123 99 92 73 75 81 67 50 73 60 37 29 15 21 17 11 16 18 29 30 18 21 16 9 10 15 17 19 12 12 7 10 7 10 10 14 13 12 8 15 9 6 10 6 13 30 55 27 22 22 11 15 16 14 19 19 27 34 45 42 38 54 28 24 57 59 33 26 27 41 49 61 54 61 81 87 102 131 141 159 158 160 158 159 148 150 153 137 142 134 130 148 119 121 106 115 104 84 69 73 62 53 46 41 28 21 22 14 14 15 18 29 33 10 22 12 8 8 11 10 15 10 11 5 6 8 7 8 11 12 6 7 10 28 50 19 16 6 3 24 31 10 53 22 25 17 19 39 48 45 41 44 40 46 40 57 59 39 22 21 20 26 42 45 74 67 83 76 93 119 148 162 169 166 164 162 155 159 159 144 140 142 150 137 126 127 115 134 130 120 83 96 93 75 68 63 45 29 21 18 18 24 31 28 19 17 13 13 22 5 4 8 9 11 6 8 7 7 9 10 10 12 6 4 23 31 26 21 17 11 7 10 12 35 30 27 21 17 21 28 24 31 41 40 56 48 60 60 76 68 57 68 34 45 27 47 69 82 94 86 112 125 161 171 168 171 168 169 167 166 167 162 157 157 153 141 154 126 149 113 148 130 137 106 98 76 75 65 43 69 26 20 25 22 34 36 15 12 16 7 7 18 7 9 6 17 5 7 5 10 8 6 11 15 7 6 13 13 14 18 13 12 8 10 10 23 34 22 20 12 19 24 28 40 41 48 68 78 94 102 95 109 101 82 81 57 64 75 84 101 87 90 108 156 164 172 169 174 172 175 174 171 173 169 162 163 155 163 155 164 130 136 139 143 134 129 107 107 122 93 91 60 94 16 30 26 39 29 22 19 8 15 4 11 18 5 7 6 13 8 5 11 7 8 11 10 5 10 6 8 7 9 12 7 18 8 32 38 26 25 29 21 20 23 39 45 69 112 114 128 132 144 146 153 154 125 116 122 126 126 99 102 106 141 139 158 167 177 174 171 173 177 175 174 171 171 162 163 162 160 157 160 153 137 147 138 143 142 129 132 121 128 114 86 98 41 35 30 43 32 15 12 15 11 11 15 8 18 13 11 5 7 9 10 8 9 10 13 7 4 9 7 8 18 13 7 8 14 21 34 22 19 20 27 24 39 70 101 126 132 147 145 153 155 156 147 147 155 147 143 126 123 137 133 123 149 151 167 170 175 176 177 171 171 172 173 174 172 168 169 169 163 163 161 161 147 153 141 147 142 135 134 144 132 114 106 101 70 59 41 39 28 20 17 22 13 9 7 10 11 17 13 14 13 13 10 9 11 14 9 7 6 9 6 8 21 12 6 13 20 32 74 45 30 47 50 51 67 96 119 133 143 147 150 148 153 151 161 159 160 162 169 166 161 150 149 159 143 166 178 180 178 181 177 179 178 177 174 174 170 174 168 169 164 164 157 163 153 138 135 142 144 145 139 147 132 118 115 113 97 68 51 47 24 15 16 18 21 5 7 9 13 9 15 19 19 19 18 19 12 7 6 4 6 7 7 5 36 14 5 16 20 47 53 54 72 57 58 82 112 121 140 149 156 157 158 157 158 159 156 162 160 163 163 162 171 171 164 160 170 175 179 180 186 185 183 180 178 180 177 175 173 175 171 170 169 162 161 158 160 156 142 128 150 146 148 141 129 133 122 116 107 72 55 45 20 11 9 16 9 12 10 11 11 17 16 16 15 17 11 9 10 11 12 14 5 2 5 8 42 9 7 13 35 64 62 52 73 107 111 119 133 140 145 153 158 158 161 165 161 162 163 163 166 160 157 165 173 177 179 175 182 178 180 187 185 183 183 186 185 181 184 180 180 175 177 172 167 164 166 160 155 155 147 139 146 149 136 134 140 129 120 107 110 50 56 40 18 18 13 9 14 10 8 8 11 13 11 12 10 9 7 7 13 6 8 4 4 3 2 13 32 4 12 24 53 54 63 85 107 103 118 130 140 143 142 150 155 161 162 161 165 167 169 166 168 167 167 165 177 173 181 182 184 185 191 187 188 186 186 185 187 182 182 185 181 181 176 173 172 165 164 162 160 160 159 158 149 149 133 143 148 136 107 102 117 64 47 58 24 16 17 10 10 7 6 7 6 9 11 12 13 8 10 11 13 8 11 1 5 4 2 5 7 13 11 17 50 70 59 99 114 123 120 138 143 142 143 147 153 161 158 164 168 170 169 172 171 173 169 170 177 180 182 183 188 188 192 188 187 187 187 187 186 179 184 185 183 177 171 172 170 169 165 161 158 160 159 159 157 150 148 148 149 143 129 108 87 109 35 56 45 31 15 12 7 6 7 6 7 7 10 10 11 11 10 9 10 10 9 1 4 4 3 7 17 17 10 33 59 52 67 102 110 124 115 135 140 145 148 145 155 161 160 165 167 180 170 175 172 174 172 169 182 182 185 189 198 190 195 187 191 191 190 188 193 187 184 187 182 180 175 172 172 167 167 163 158 159 161 164 157 161 164 158 151 146 138 129 109 81 57 36 57 27 17 11 7 4 4 6 4 7 10 10 12 11 7 11 14 9 12 6 2 3 5 5 17 11 17 33 45 58 37 115 126 121 123 135 143 145 147 149 156 160 164 172 172 176 173 176 176 175 179 183 183 184 189 196 190 187 190 193 193 191 192 187 186 188 186 190 181 187 174 178 175 163 167 159 158 156 161 162 167 157 155 157 155 147 140 138 128 105 104 29 21 44 24 11 6 6 6 5 4 8 14 11 9 7 8 8 12 18 22 6 6 5 4 7 9 29 35 27 29 67 83 102 124 120 128 137 143 144 148 153 156 163 163 167 172 174 180 176 179 176 182 189 185 185 188 204 199 196 189 189 190 195 190 189 189 192 189 186 192 183 182 176 174 167 164 161 158 159 164 163 164 165 161 158 156 149 146 139 140 122 114 87 27 15 13 17 4 5 5 5 9 10 10 10 10 8 11 13 20 22 33 10 8 8 8 5 15 23 55 19 50 63 81 121 126 118 131 136 143 145 150 153 159 160 162 168 169 177 177 177 183 189 180 175 180 179 177 189 194 195 202 196 196 193 189 193 195 194 189 192 181 187 175 179 172 170 164 164 156 153 159 163 163 161 161 167 158 155 149 143 135 126 111 97 58 19 12 13 10 6 5 5 4 9 11 10 11 10 7 5 12 31 26 5 9 10 8 8 10 22 41 27 51 73 65 102 117 128 135 142 142 150 146 155 157 162 166 173 172 178 174 177 180 185 183 193 190 188 187 191 186 192 197 199 196 197 195 186 191 190 196 189 185 181 182 179 169 169 168 163 160 160 164 168 168 170 164 156 157 154 154 145 142 129 113 104 87 54 16 13 7 8 7 5 5 13 13 9 6 5 5 4 19 28 21 23 9 8 22 17 22 33 53 31 31 72 75 95 119 131 137 142 143 145 147 149 158 163 169 169 173 175 175 182 184 185 188 184 185 184 184 192 201 196 196 199 194 196 192 194 194 189 188 190 182 180 178 172 168 170 171 163 164 163 162 167 169 168 164 167 161 158 153 138 139 133 124 108 78 65 37 14 11 9 6 8 21 58 13 6 7 5 6 8 15 39 47 25 11 21 18 27 26 27 53 26 16 51 56 81 120 144 140 137 142 146 152 149 156 161 165 168 172 177 173 181 190 186 195 191 175 181 180 200 194 200 198 200 196 196 196 196 194 195 194 193 184 184 175 173 172 173 167 167 161 164 163 168 168 171 168 161 162 160 157 149 139 137 128 108 98 66 38 21 10 8 9 9 20 32 17 7 7 6 10 15 15 24 37 40 14 47 35 42 32 57 41 39 7 26 63 100 126 147 142 140 149 150 152 154 156 162 162 164 168 177 181 181 187 185 190 173 189 187 187 197 201 198 195 201 193 182 191 195 192 192 191 185 188 181 177 173 170 167 168 161 158 164 162 167 169 167 164 160 167 159 157 151 141 141 130 115 98 72 56 26 16 11 4 9 18 38 25 14 9 7 10 16 21 31 36 22 9 3 57 29 41 11 30 35 13 18 54 103 120 139 143 145 150 153 153 151 155 158 157 155 168 170 181 181 182 185 185 188 187 183 188 197 192 202 203 186 182 185 188 191 191 190 189 185 181 177 177 173 171 168 164 159 159 163 162 167 164 168 165 166 164 163 159 154 144 143 140 115 112 93 69 42 22 13 9 8 13 38 36 18 11 6 13 20 19 25 46 6 29 8 26 32 29 22 19 16 11 14 61 102 127 136 147 148 149 151 150 148 151 158 162 166 168 175 178 184 184 184 184 182 187 188 188 196 193 200 198 194 194 190 186 184 190 188 188 186 179 178 175 170 172 166 164 163 160 157 156 157 158 158 161 157 163 158 156 152 146 144 147 130 117 102 79 54 35 18 14 10 7 31 31 12 13 14 15 25 53 27 44 12 6 5 7 13 34 6 8 12 7 4 68 109 131 140 147 149 150 147 150 151 153 162 164 161 168 171 181 182 183 183 185 184 185 190 194 191 189 191 190 192 189 187 187 183 191 187 188 189 187 183 178 176 172 173 167 167 169 164 162 161 162 164 160 161 159 163 155 151 144 144 143 131 111 109 97 59 36 21 13 13 16 16 29 21 32 26 29 48 46 24 18 3 7 14 6 10 11 4 6 6 9 8 63 108 131 139 146 145 147 149 152 158 157 159 161 163 167 175 179 182 179 181 183 186 187 188 198 194 191 191 192 191 187 189 187 189 189 189 187 191 186 189 183 177 173 177 173 170 170 167 165 162 160 159 163 161 162 162 157 153 147 142 142 125 118 110 96 84 50 25 17 10 7 15 23 36 21 20 36 28 38 27 13 28 15 9 11 14 9 6 6 8 4 5 66 109 137 141 146 146 153 154 152 159 161 160 158 162 159 168 173 175 178 183 183 182 187 187 193 188 190 191 192 187 188 188 189 186 185 189 189 185 186 182 183 182 179 176 174 172 168 169 167 166 162 164 166 159 158 161 159 154 147 140 143 125 123 114 115 113 59 41 16 9 8 13 16 32 33 18 35 28 30 22 16 16 27 9 11 18 9 7 6 6 9 2 63 105 132 142 146 150 154 157 151 154 156 158 162 168 169 172 173 178 179 186 183 182 190 189 190 188 188 191 190 186 190 187 186 186 186 186 188 187 191 186 186 180 177 179 175 174 174 168 166 165 163 163 167 162 161 159 155 156 148 142 135 129 125 117 113 116 89 62 32 15 16 13 15 51 15 10 14 37 22 18 9 20 34 15 27 21 2 2 7 4 8 0 84 102 134 141 143 151 147 151 143 158 160 161 165 170 173 167 175 179 182 182 181 188 187 186 190 190 189 191 187 189 190 186 191 187 191 188 193 193 191 189 181 190 180 178 174 179 174 171 169 168 165 172 165 166 164 158 150 150 145 139 138 131 133 123 118 109 96 89 59 38 25 22 15 22 22 17 14 18 18 16 7 24 14 19 28 37 9 9 4 3 6 12 88 112 138 142 145 145 150 147 153 156 160 163 168 171 173 173 179 182 186 184 185 188 189 201 198 192 193 197 191 190 187 181 187 187 194 194 196 196 196 188 193 189 188 182 183 180 179 175 171 173 173 168 170 169 162 155 154 147 147 137 134 130 128 125 121 110 99 86 72 45 27 24 18 36 15 11 10 15 13 10 6 7 19 37 44 13 8 4 5 4 5 53 88 117 134 143 140 147 150 151 151 158 164 170 169 168 175 179 177 180 186 185 188 190 191 195 196 194 191 195 193 191 188 188 190 196 196 210 200 197 198 195 197 189 190 184 184 181 179 175 169 166 164 161 157 161 155 156 149 147 142 137 128 121 126 124 117 110 107 99 90 51 47 47 25 13 11 7 11 4 16 13 10 13 28 23 43 6 14 24 12 16 38 80 93 127 129 136 151 152 155 154 158 158 166 169 171 174 173 175 176 180 189 188 189 191 199 193 202 200 196 200 192 193 188 190 194 201 210 208 212 196 198 191 191 194 183 186 182 176 169 170 166 162 152 156 154 137 136 134 135 143 142 139 132 110 122 124 113 115 100 99 89 68 55 42 31 11 7 9 6 6 17 10 7 15 20 31 8 12 57 30 18 50 56 68 92 119 130 144 153 154 157 154 158 162 165 173 174 176 176 178 176 182 189 189 189 194 202 203 207 196 206 198 196 199 193 195 199 210 205 204 199 199 191 180 181 176 180 170 157 154 159 150 147 127 127 125 125 122 111 106 97 111 127 134 131 112 121 121 118 123 101 102 96 70 42 38 24 4 8 6 4 8 8 11 6 26 28 1 6 8 39 34 30 29 51 53 81 108 133 148 156 158 157 155 159 163 169 173 176 175 173 176 178 183 183 184 190 189 202 216 220 210 195 201 204 194 191 190 196 197 193 183 193 186 169 163 183 153 156 125 109 114 91 80 96 87 77 84 85 104 101 115 82 89 87 111 132 115 109 120 120 124 103 104 102 71 52 35 30 4 5 5 3 4 7 7 5 4 1 5 4 21 18 17 24 46 55 66 103 110 136 148 157 161 157 158 162 166 168 172 177 177 170 178 180 177 182 181 186 185 201 207 211 212 199 199 203 190 187 196 186 190 192 183 185 171 158 160 170 124 106 132 106 94 80 51 45 53 96 62 97 113 86 76 71 87 77 90 98 127 111 103 115 121 106 107 101 91 63 35 21 6 6 5 2 4 7 9 7 11 5 8 20 20 18 35 28 48 59 61 107 113 132 155 163 161 155 159 164 162 168 170 178 172 162 174 185 167 171 174 181 186 202 206 212 201 207 202 197 197 202 198 191 187 176 177 179 146 160 106 156 100 138 98 66 69 74 55 66 51 45 60 63 75 60 85 70 51 55 69 80 92 103 93 107 114 111 105 109 100 72 25 18 5 3 5 6 2 18 22 15 10 9 6 13 14 18 42 37 36 57 29 94 112 142 158 164 156 158 148 146 160 154 156 154 138 133 135 155 146 183 155 155 174 174 194 208 198 203 200 191 193 193 185 175 180 180 171 155 134 139 128 98 141 70 74 62 55 71 80 76 86 79 75 98 88 66 60 64 82 58 86 87 105 111 111 96 116 113 114 113 94 80 35 15 5 4 6 12 21 21 32 7 40 15 15 9 16 14 31 38 56 39 70 93 120 146 150 140 138 133 127 122 111 90 96 95 87 94 131 131 144 145 118 118 172 174 182 193 196 192 183 196 189 183 182 174 173 177 173 163 144 138 143 127 87 75 70 92 99 112 126 137 129 135 132 122 121 120 104 109 95 69 92 124 100 114 117 103 111 116 113 116 107 63 33 4 1 6 8 17 13 9 14 21 43 19 24 2 11 9 21 35 54 67 67 107 121 121 111 110 106 83 80 50 58 37 48 83 81 86 87 108 101 138 85 97 149 159 180 188 192 187 186 186 174 178 178 175 171 167 168 155 119 123 129 123 110 117 123 115 129 136 138 146 145 132 117 126 121 118 124 118 121 123 114 119 123 127 123 123 101 126 117 118 113 85 35 10 6 6 1 2 30 46 38 41 19 21 17 13 9 8 19 36 57 75 69 94 99 102 76 74 61 65 45 61 37 56 50 58 81 65 94 87 108 117 111 136 151 151 171 180 178 176 175 178 179 170 165 164 168 164 159 151 140 128 109 124 114 111 117 113 93 98 91 76 70 65 75 79 82 73 87 111 121 120 121 132 148 137 150 135 105 125 122 115 110 79 48 12 4 6 3 3 58 82 55 33 9 11 16 8 6 14 30 30 59 87 81 76 46 46 68 53 64 49 61 61 43 59 60 75 71 86 82 74 90 104 106 120 155 149 159 166 169 180 178 179 179 171 170 167 165 154 152 150 137 129 115 108 108 96 90 109 94 58 7 18 10 26 15 33 30 75 82 76 103 121 110 133 156 151 150 132 110 125 123 116 120 101 67 16 2 6 6 11 77 97 64 37 5 15 29 4 19 13 28 37 70 76 83 45 49 35 47 29 70 98 115 97 112 126 137 143 126 130 129 112 108 106 106 110 131 128 159 159 166 174 178 182 185 179 185 172 165 155 156 141 136 123 114 118 93 131 114 103 46 40 77 199 23 45 41 104 82 14 34 41 89 101 123 154 137 150 139 137 119 123 124 114 124 109 74 31 10 13 15 26 103 101 48 52 8 8 28 2 14 19 38 39 76 75 78 66 54 66 55 79 73 91 96 119 137 140 147 143 148 136 127 106 103 98 89 93 97 116 130 144 156 166 175 184 186 193 182 177 163 154 149 145 137 106 128 108 135 118 102 63 154 50 48 15 41 40 39 97 87 84 66 72 97 114 116 132 150 156 158 148 129 125 123 119 122 106 78 37 23 29 33 88 111 75 61 58 13 9 13 21 17 11 36 61 82 69 64 36 38 73 87 104 104 135 126 142 145 139 122 94 62 51 53 76 122 109 109 98 76 94 103 122 142 160 172 182 191 193 185 176 160 153 150 153 105 129 136 131 132 99 110 187 176 52 49 83 62 88 93 93 127 124 123 131 142 137 133 138 156 162 160 156 138 123 127 121 124 118 97 53 34 25 48 97 80 102 77 39 16 14 15 29 6 15 34 48 75 74 80 86 83 87 103 112 126 121 123 95 73 51 15 16 8 23 16 35 18 66 110 129 117 99 98 103 125 149 167 180 192 195 179 173 162 148 141 143 139 144 156 139 75 63 93 94 86 108 140 141 108 129 132 131 125 140 142 144 136 147 144 151 159 163 160 148 139 126 132 129 123 121 102 70 34 45 109 94 120 82 91 39 32 11 19 13 7 27 43 45 74 84 111 97 113 93 114 115 110 101 73 65 26 43 30 36 37 47 40 42 39 180 103 90 119 158 141 111 112 137 164 173 186 186 180 173 158 146 131 142 142 171 165 156 150 135 140 144 143 139 113 170 169 139 149 149 140 151 145 139 139 160 154 158 154 156 161 147 144 125 129 135 130 127 103 79 47 65 58 101 128 115 54 29 8 27 17 9 10 12 38 38 68 76 106 135 130 124 119 119 100 60 38 19 45 127 58 41 53 34 28 43 55 187 137 87 68 102 127 145 123 125 153 166 179 185 175 164 149 138 132 145 143 169 171 162 163 163 147 139 152 157 151 177 158 157 155 149 149 141 138 156 162 173 160 158 155 153 156 151 140 127 129 128 128 121 100 85 45 39 79 102 78 121 27 23 7 30 12 22 9 17 34 57 83 77 134 132 138 137 121 100 71 18 27 41 84 68 84 63 72 55 151 109 132 121 131 142 151 162 163 137 128 124 145 161 175 180 172 155 145 137 135 146 154 157 156 159 163 171 168 167 147 145 148 155 147 150 149 151 149 158 171 173 177 170 166 157 150 150 157 150 149 129 123 130 130 128 119 92 58 45 83 143 91 20 17 15 16 41 10 13 11 37 48 58 86 84 105 125 132 130 129 93 97 92 99 104 104 118 98 110 126 130 142 167 138 165 158 155 152 177 133 138 129 123 148 163 170 175 169 166 150 138 136 150 162 158 156 163 155 147 156 165 175 165 178 167 166 167 164 166 175 178 168 164 171 167 163 161 155 149 156 150 146 134 123 131 132 127 100 93 74 56 94 95 38 15 7 9 10 47 7 15 11 21 25 62 88 87 130 149 155 141 129 115 124 133 134 127 137 134 139 123 151 143 167 167 171 155 140 160 157 139 147 150 134 122 143 163 171 172 167 164 149 136 135 146 151 154 156 161 162 168 158 163 161 174 180 177 184 171 175 178 172 173 170 180 167 161 166 157 160 158 152 153 148 138 127 130 131 123 109 96 74 54 117 119 4 21 23 37 7 37 10 12 18 19 38 72 83 88 132 147 150 149 146 143 136 130 143 137 146 144 154 138 145 144 144 139 139 161 153 167 141 149 151 144 130 122 144 162 168 164 163 158 149 141 136 141 148 150 152 154 172 172 179 168 163 166 161 161 159 158 163 163 167 171 174 170 168 167 162 159 154 159 159 153 149 139 125 126 131 126 116 86 58 67 85 10 53 16 40 38 12 21 10 12 22 17 51 77 93 89 116 141 149 146 148 146 153 142 132 128 128 123 130 130 143 138 142 158 162 184 173 147 152 151 146 136 130 128 148 159 171 169 166 164 151 145 138 143 150 148 149 148 152 176 184 187 188 176 173 171 167 162 171 182 174 182 186 175 166 161 162 158 160 157 159 158 147 142 134 131 129 122 114 95 59 64 61 7 36 90 61 22 16 28 7 7 16 28 55 90 94 95 123 139 144 142 145 151 158 157 158 147 146 150 146 154 160 170 169 174 172 166 154 158 162 151 139 130 130 131 147 152 174 171 173 164 152 149 144 147 151 148 151 149 147 152 173 178 178 180 180 181 177 179 178 183 183 181 180 181 164 166 160 163 161 159 156 157 150 143 139 128 133 119 107 93 64 45 45 19 8 74 78 25 14 24 7 16 5 36 62 84 95 97 125 132 141 139 146 154 148 158 160 159 164 160 165 165 173 175 171 169 160 149 158 163 157 143 140 139 139 136 143 156 169 170 171 163 160 150 151 148 151 155 152 150 149 152 160 169 176 180 179 184 181 179 184 184 186 187 189 182 172 169 163 162 162 157 159 150 155 146 143 131 130 121 112 90 75 46 22 80 3 63 92 31 19 19 11 7 4 29 45 94 97 101 120 129 140 145 142 153 156 161 162 167 174 171 169 170 173 171 173 160 155 161 166 161 153 140 138 145 141 134 143 159 170 172 173 167 160 147 149 150 152 158 155 162 158 163 163 163 166 175 175 181 184 178 192 190 196 195 189 182 178 171 166 164 162 159 158 150 149 146 149 139 133 118 98 82 73 52 35 124 47 7 68 58 24 17 9 15 11 23 72 80 102 97 117 131 144 151 144 144 154 161 163 162 170 175 175 170 176 170 166 162 164 163 163 153 149 144 145 149 147 133 147 158 169 173 171 169 162 151 150 146 147 152 149 146 160 166 163 168 179 176 186 183 187 182 193 190 199 199 192 184 173 167 165 167 161 159 158 147 147 151 149 136 134 118 106 73 56 55 41 126 111 22 16 97 25 14 10 15 11 19 61 88 104 101 116 138 146 159 140 146 154 160 168 168 175 174 170 175 170 165 162 168 171 163 154 150 149 146 150 146 141 133 144 156 170 171 174 171 162 158 149 146 143 139 135 143 147 161 169 180 182 181 188 182 197 195 197 204 211 196 195 181 175 172 169 164 163 161 154 148 147 152 153 140 129 113 111 79 53 60 63 142 146 6 35 31 6 13 4 5 6 35 51 90 106 102 116 136 146 154 140 148 158 162 165 169 174 175 175 179 185 174 177 178 171 161 159 155 150 145 146 137 133 133 147 162 169 171 174 172 168 161 150 144 139 128 129 139 136 138 159 170 180 182 183 190 196 197 201 220 209 194 193 184 174 170 168 169 164 158 151 148 143 150 155 145 130 111 88 80 55 52 82 86 132 79 7 43 2 7 6 2 9 29 45 92 95 106 115 134 150 139 142 148 162 161 172 168 180 183 186 184 185 183 178 178 172 163 168 165 157 139 130 126 126 131 138 157 168 174 178 177 169 156 152 144 141 133 127 142 138 129 146 158 176 183 185 186 185 200 205 204 207 198 185 180 176 171 164 164 160 158 155 147 143 147 150 147 130 116 99 70 64 34 101 150 114 101 64 27 11 7 8 3 3 39 26 84 99 103 122 134 141 135 140 153 159 162 167 172 181 186 185 179 184 174 185 177 176 175 172 154 153 124 124 124 122 134 141 160 167 172 178 174 168 162 153 148 140 144 139 142 147 138 124 141 158 177 171 167 181 180 196 196 197 185 184 179 174 171 168 168 159 159 154 146 142 145 149 148 131 112 81 63 52 59 97 157 115 115 83 59 7 4 23 3 8 24 39 77 97 103 117 133 137 131 139 147 155 160 170 171 172 178 188 180 174 182 182 186 182 179 171 155 134 130 136 132 126 127 145 155 164 175 177 180 175 166 151 148 139 148 144 145 141 136 126 113 144 160 175 172 167 167 184 205 193 183 179 172 173 166 165 161 156 156 147 145 141 140 146 142 132 98 100 74 106 56 106 144 115 133 141 98 6 8 15 7 2 32 33 62 96 104 116 133 130 134 135 142 151 161 166 173 175 179 190 188 182 180 183 181 173 182 169 146 120 131 143 139 132 127 139 145 167 179 185 187 179 157 152 144 139 149 139 144 148 141 128 104 146 153 155 159 167 173 184 179 185 185 180 170 176 167 164 165 153 155 155 144 142 141 149 140 131 110 91 76 68 46 88 125 116 125 105 108 5 10 22 7 8 29 46 40 94 97 117 138 132 126 136 148 155 158 168 170 178 181 182 179 186 183 184 185 183 162 165 150 111 136 142 142 139 128 140 153 167 194 188 215 190 167 160 146 139 149 140 140 138 131 120 113 137 159 166 165 149 163 166 171 182 182 179 172 169 165 163 164 159 150 151 146 140 138 151 145 133 117 89 78 61 38 86 143 128 128 96 67 28 6 18 11 3 27 29 38 82 97 115 130 125 126 135 146 154 159 165 169 175 178 185 189 183 184 180 177 175 167 149 138 113 133 143 145 140 125 134 158 160 187 204 228 192 173 160 148 140 137 142 133 122 124 103 118 149 141 157 162 158 147 157 162 177 175 176 177 171 168 161 162 156 154 146 145 141 142 144 144 129 100 105 68 52 63 58 135 85 102 72 18 20 8 14 13 4 12 36 43 69 96 110 128 126 124 136 144 151 158 162 171 172 180 177 184 189 183 188 173 164 167 150 141 111 129 141 148 135 128 135 153 158 168 177 188 185 176 158 144 134 130 127 116 106 90 112 139 139 147 157 161 162 147 144 154 169 176 178 180 169 165 163 163 152 150 148 144 145 145 140 139 127 102 73 83 59 44 54 108 78 89 31 7 13 16 25 1 5 15 25 38 56 84 101 123 122 116 133 143 152 156 163 165 175 177 179 184 183 192 178 168 162 167 158 146 116 122 132 135 129 131 131 147 164 167 181 172 180 169 152 135 125 121 91 99 107 121 126 135 138 145 161 158 155 158 143 137 153 164 168 176 169 164 155 159 154 146 149 145 151 147 129 137 123 101 82 71 67 36 35 12 11 0 5 5 12 20 24 15 10 7 22 29 57 79 96 115 122 114 128 139 149 159 162 166 172 179 179 179 184 181 189 177 169 166 161 147 131 101 113 123 120 124 121 134 140 158 159 166 164 151 137 121 112 94 124 122 124 134 131 123 140 156 150 157 153 152 156 137 123 146 158 159 167 166 161 154 154 150 148 151 150 151 139 123 119 101 83 78 48 43 14 17 6 7 2 3 28 6 18 9 8 5 21 37 61 63 78 107 119 113 129 136 148 159 161 167 167 170 173 173 172 182 176 172 166 162 158 143 125 124 116 97 104 95 96 108 124 139 149 149 148 142 130 96 103 121 120 124 125 129 117 105 135 149 143 149 140 150 143 145 140 118 133 152 162 161 162 158 152 149 143 145 157 150 143 124 106 108 93 62 42 37 6 7 10 7 4 4 11 10 12 15 14 6 11 15 40 82 64 105 115 109 130 135 147 154 163 166 162 165 173 170 176 173 180 165 165 165 158 147 121 126 119 116 115 108 117 80 102 121 132 138 134 125 109 110 143 109 97 93 91 103 100 71 109 106 113 127 151 137 129 148 145 133 138 126 151 162 166 163 154 152 142 154 152 151 125 125 99 104 80 58 43 51 5 1 7 7 3 5 15 12 10 22 17 8 8 27 61 66 60 100 113 109 121 132 142 146 155 163 163 168 169 164 166 168 157 164 163 159 159 148 144 134 121 125 127 120 112 128 109 75 116 126 119 112 126 142 128 115 67 78 75 73 70 69 95 94 120 119 136 126 136 133 131 143 145 151 130 153 171 167 160 153 134 152 162 155 129 106 101 93 79 49 54 38 12 5 4 10 4 9 6 12 27 28 5 4 7 38 35 52 67 84 112 111 128 127 134 141 143 159 164 167 164 159 156 142 157 159 154 150 152 155 145 141 108 97 96 102 87 92 120 136 138 111 109 144 153 128 126 86 83 74 76 67 80 72 51 77 93 106 122 107 115 128 155 103 126 157 136 141 161 172 162 153 134 160 157 141 121 83 76 87 81 62 44 18 13 18 6 4 11 5 11 16 35 39 36 2 4 39 28 46 56 72 97 117 123 125 135 144 151 160 162 164 162 152 143 149 159 165 152 145 146 121 138 114 86 77 69 89 82 88 83 131 146 116 147 151 152 131 135 100 85 88 62 94 71 67 79 85 102 86 85 105 117 111 128 116 135 110 124 123 164 170 165 154 130 145 149 144 100 99 96 82 75 56 29 26 15 21 8 5 4 7 14 16 46 17 12 4 4 34 11 36 55 70 97 101 122 124 128 136 149 157 165 166 162 147 137 150 151 134 131 112 119 111 92 117 71 64 65 59 60 70 101 105 79 143 141 129 156 141 155 129 112 97 72 65 76 61 65 84 95 120 95 118 102 102 121 87 110 124 94 120 154 176 164 148 121 132 152 130 112 88 106 95 68 51 55 25 19 26 6 6 6 5 6 15 34 10 7 6 8 28 14 34 54 62 90 108 122 122 130 135 146 158 162 164 148 138 150 161 140 116 124 100 95 82 96 57 68 55 64 76 69 92 84 86 142 117 114 175 134 147 151 164 169 112 93 73 103 87 87 105 107 104 83 99 64 89 94 88 92 130 54 108 140 176 166 149 120 111 126 133 125 80 88 100 64 64 48 21 26 18 7 5 4 7 5 10 15 11 15 4 16 2 13 35 51 47 66 91 117 122 129 133 142 154 158 166 154 144 101 140 130 86 72 75 99 67 104 82 67 77 100 100 96 70 101 166 149 180 175 176 169 183 180 177 138 125 123 120 111 109 89 112 98 104 98 111 101 79 86 108 103 99 79 106 131 187 171 148 111 128 85 132 117 69 102 72 60 48 43 19 19 3 10 6 7 4 7 38 11 11 7 6 21 3 11 15 46 54 52 101 111 121 105 131 134 152 160 154 157 155 137 118 123 83 79 112 87 76 86 99 87 90 98 96 59 93 164 164 180 185 187 204 180 144 126 126 124 123 117 109 99 90 94 89 77 74 76 113 120 124 114 96 117 145 101 91 130 167 169 143 104 104 92 120 108 79 64 55 55 60 16 15 25 4 1 21 12 15 50 26 14 10 9 10 9 6 6 10 30 49 63 73 103 100 126 127 134 146 158 159 165 135 87 80 79 57 71 82 91 86 86 107 83 132 129 135 116 138 132 138 134 127 127 129 143 110 108 105 94 86 86 97 107 171 100 87 137 101 165 45 62 71 119 95 99 113 112 113 135 161 167 130 99 122 116 78 123 93 45 61 55 47 15 8 15 7 9 8 9 8 52 23 19 8 7 12 5 5 7 6 32 31 73 63 69 93 101 136 123 141 161 172 154 123 69 79 101 70 76 90 105 92 78 101 109 105 94 105 107 104 108 114 111 102 102 106 108 89 117 117 128 139 174 135 184 196 136 144 187 110 181 120 63 87 144 154 132 105 147 106 133 185 153 118 91 82 125 100 116 97 58 33 34 38 28 15 12 3 3 10 14 3 44 28 7 5 14 8 7 5 4 14 19 41 48 72 68 82 99 112 125 136 157 173 123 84 71 91 86 72 100 108 103 89 75 76 53 100 118 88 108 95 96 98 156 150 137 150 134 211 213 189 145 205 195 147 203 200 147 189 171 188 114 88 114 153 176 176 180 164 117 105 104 170 139 110 81 80 123 108 116 102 33 28 42 27 20 10 26 20 19 4 9 4 27 15 5 27 17 26 10 7 6 4 14 21 39 41 55 80 84 90 94 120 127 163 130 106 91 103 86 107 119 87 57 84 105 110 110 130 202 138 157 203 133 164 208 217 203 152 205 222 216 214 166 223 198 181 198 183 151 170 118 90 98 122 156 170 177 186 175 176 164 176 165 107 86 99 82 87 97 99 95 81 27 33 26 18 11 10 11 26 15 9 7 6 21 21 8 17 6 19 13 5 5 10 3 26 30 48 58 73 65 67 82 118 125 161 125 92 155 116 125 162 165 139 95 80 101 124 191 142 188 198 172 203 210 194 220 220 224 200 216 219 225 219 201 211 189 117 205 172 95 97 100 103 125 155 160 170 183 185 195 193 185 185 175 164 122 97 59 101 103 104 80 78 30 31 17 27 11 6 7 26 18 6 8 5 18 23 9 23 8 12 14 3 8 6 11 18 31 38 40 54 49 59 82 104 104 101 123 154 146 104 180 176 178 164 148 112 113 83 155 151 165 174 166 193 229 203 220 216 220 218 210 219 213 207 139 228 139 106 95 117 106 114 119 119 145 146 158 177 186 184 187 195 192 173 143 139 91 63 54 58 112 65 86 45 40 27 32 14 6 21 8 7 8 4 4 16 28 23 10 1 8 19 16 1 13 9 10 13 13 26 41 49 50 76 43 90 103 135 165 182 141 127 159 177 188 169 161 149 112 103 83 86 92 152 128 179 207 150 207 210 225 214 197 211 208 200 91 92 102 125 117 118 130 123 122 142 156 152 171 182 183 182 186 200 197 161 131 138 91 81 59 98 83 72 45 42 43 30 13 14 6 5 7 3 14 7 5 7 17 14 21 22 22 35 11 11 8 15 17 11 13 22 27 46 71 55 65 65 77 126 135 168 120 174 177 195 184 179 168 159 137 112 99 95 98 106 101 107 107 63 174 176 93 48 60 78 107 124 146 135 127 131 145 130 125 125 140 146 141 158 178 184 182 178 189 196 192 179 124 84 65 85 120 70 81 45 31 21 21 22 23 9 13 6 4 31 13 13 6 6 24 32 18 11 14 39 9 23 1 21 29 12 12 21 16 39 37 50 56 77 54 106 109 152 152 171 185 190 189 179 176 163 152 132 107 101 109 113 112 117 128 125 133 145 125 133 132 131 127 135 129 141 135 139 147 134 132 140 148 138 144 174 185 181 187 180 186 184 189 174 127 98 46 92 66 118 75 44 25 24 27 18 20 11 14 7 22 18 8 17 6 10 22 7 14 33 28 33 18 23 17 19 18 7 8 18 21 21 32 60 81 60 70 59 107 153 161 168 180 176 185 184 182 168 152 148 133 116 104 116 124 132 139 141 138 133 137 144 140 145 158 148 145 159 159 148 134 141 147 147 146 137 160 182 185 179 182 184 183 187 182 158 111 89 66 39 100 59 85 47 28 14 20 25 20 9 9 35 27 18 5 7 14 8 11 15 63 25 31 19 10 18 26 23 8 9 6 24 11 28 32 40 74 52 44 42 92 126 118 180 193 189 183 182 182 175 155 143 147 134 123 106 115 130 148 154 156 169 169 172 157 157 162 184 206 164 148 139 145 168 151 146 147 146 168 185 184 184 181 168 179 176 164 138 116 60 68 52 109 54 86 29 23 26 20 23 31 5 7 39 1 10 12 10 12 5 17 16 19 7 43 35 15 18 24 19 10 12 6 12 14 28 22 42 71 54 52 30 48 108 137 172 180 189 184 186 181 177 168 149 151 142 139 140 136 130 133 132 149 154 173 184 187 178 194 177 161 163 146 159 157 158 160 160 150 156 175 190 189 191 174 180 152 123 128 136 87 98 82 94 53 41 41 30 27 17 17 19 39 7 40 2 5 17 17 11 7 13 12 4 15 4 46 29 14 19 11 14 10 10 7 13 13 19 17 32 44 44 53 49 66 81 112 159 179 165 186 189 178 178 176 162 156 148 145 138 147 149 152 148 140 145 150 155 165 168 167 168 174 164 168 167 161 163 158 160 161 168 179 183 184 190 183 173 156 152 115 104 78 60 71 78 30 49 33 19 14 26 19 49 52 4 22 7 12 15 7 5 9 13 4 4 5 9 45 42 17 16 14 8 22 7 8 7 6 13 19 23 18 31 58 28 59 63 101 141 168 178 175 186 182 180 177 172 158 151 144 143 142 150 158 149 156 152 157 157 158 146 160 158 148 165 162 156 159 158 159 164 170 176 183 186 184 188 185 176 119 154 118 80 51 43 48 90 61 60 30 26 5 32 36 73 66 20 26 9 5 7 11 4 15 15 9 6 7 6 32 44 21 27 8 7 9 8 5 10 6 11 13 17 18 28 25 47 40 46 86 115 156 173 170 182 189 183 180 177 171 160 150 147 144 140 145 151 155 155 151 155 159 165 161 165 159 159 156 165 153 162 162 166 170 184 184 192 189 187 173 143 126 119 100 72 30 29 23 64 28 28 16 15 19 47 39 83 73 43 21 20 14 4 8 13 8 12 11 9 7 11 15 33 25 10 10 4 6 15 8 9 9 14 17 14 16 28 20 25 30 51 42 84 126 143 158 181 188 183 182 172 173 163 156 150 136 132 141 155 134 149 150 135 149 166 152 152 156 149 172 189 159 154 172 168 180 181 185 192 192 194 159 162 132 84 71 60 48 26 37 68 41 24 27 22 35 30 93 79 80 35 11 23 11 20 8 6 24 16 4 12 16 9 7 27 25 2 16 13 6 15 11 7 7 10 36 10 13 15 22 20 31 59 46 66 113 130 161 154 179 182 186 180 168 171 155 168 155 155 166 142 158 138 160 141 136 153 156 146 174 181 161 154 185 172 172 184 180 185 192 197 192 184 178 135 94 85 66 41 18 13 40 73 35 25 18 22 51 55 97 91 74 42 9 18 22 8 14 26 14 6 4 19 14 10 10 29 30 15 9 7 11 14 12 12 8 6 34 11 5 22 15 27 28 33 42 58 59 115 146 148 177 184 187 182 177 164 165 158 157 160 172 170 170 165 125 143 149 149 169 181 148 172 191 174 184 179 183 179 179 188 193 197 192 186 164 142 133 76 38 54 42 27 34 27 25 13 10 65 93 67 108 94 73 35 9 20 9 8 18 20 16 12 23 10 20 17 11 20 18 22 13 7 7 7 12 15 5 9 41 7 4 23 12 15 29 30 30 29 67 83 121 143 163 178 185 188 184 172 164 155 159 172 175 145 173 161 174 206 175 175 173 193 190 171 193 187 186 182 182 184 185 189 195 195 186 174 159 108 101 63 29 42 31 37 26 30 12 14 63 53 72 100 117 98 83 39 22 15 21 13 15 13 25 10 16 27 35 13 15 29 52 11 11 7 5 5 21 16 5 7 1 5 15 4 15 18 18 32 16 26 51 65 113 138 163 163 180 190 188 178 173 166 160 167 173 177 179 158 176 178 162 175 194 179 204 190 183 191 181 179 185 185 188 192 192 187 170 151 135 119 81 58 15 27 38 37 18 15 30 32 55 78 125 120 119 107 96 53 24 20 15 6 14 35 32 12 17 24 25 18 16 27 24 15 7 11 7 6 21 14 7 11 7 47 28 3 20 15 17 17 33 27 28 49 70 120 138 165 165 182 184 191 182 173 165 172 174 179 177 175 181 158 180 194 185 183 183 192 184 187 181 180 182 177 188 187 179 177 164 121 92 96 70 63 38 19 18 25 29 25 14 51 96 120 125 129 114 103 97 56 33 17 15 14 11 20 13 12 12 22 29 11 12 22 9 5 6 4 6 5 2 4 4 3 10 25 18 20 14 9 44 22 32 18 24 24 66 74 102 120 160 184 175 188 183 172 167 167 171 168 173 173 182 180 188 156 194 184 200 186 187 173 179 182 173 184 186 178 134 138 117 131 78 75 40 26 40 19 19 28 24 8 49 72 101 141 129 130 123 95 96 69 31 17 7 8 5 26 22 25 16 18 18 34 54 54 48 27 15 6 7 1 18 1 3 2 6 9 1 17 7 7 39 36 19 27 29 53 28 57 93 94 115 160 163 188 186 181 167 162 167 172 166 173 167 188 171 168 168 179 177 185 164 180 169 169 174 177 179 184 158 156 128 108 67 54 42 29 12 12 22 13 20 37 105 103 128 141 136 126 120 116 99 65 23 31 9 25 8 7 11 26 30 17 32 35 32 44 31 11 7 5 4 2 4 7 3 1 4 3 5 2 5 3 17 33 18 39 10 32 31 40 47 68 96 120 147 184 177 173 174 168 162 174 141 160 167 162 166 178 155 174 148 181 174 168 162 147 174 155 163 148 105 134 135 66 59 37 28 16 20 16 23 16 23 30 66 90 142 136 123 132 124 119 100 85 29 23 28 2 9 6 15 18 5 11 9 14 16 16 8 9 7 5 3 6 3 5 4 3 2 2 2 6 5 8 10 53 41 25 15 29 20 21 33 100 77 106 155 159 160 160 166 154 164 163 128 167 137 154 138 127 169 154 161 147 189 170 122 149 134 111 130 143 129 100 91 80 58 28 20 23 21 9 26 21 51 55 94 145 132 138 134 129 119 111 102 90 46 14 27 24 16 23 10 17 14 7 9 17 21 7 7 6 6 8 8 7 10 7 3 3 2 3 2 6 3 4 6 48 68 29 15 26 14 11 37 36 72 100 119 102 133 153 143 138 161 134 125 148 113 170 148 161 143 143 124 173 170 168 113 146 86 129 57 88 84 111 64 67 38 11 19 13 10 19 31 16 72 95 102 121 119 125 145 126 116 120 106 98 45 14 14 16 11 5 21 33 6 7 5 9 5 14 7 13 7 7 14 8 4 6 4 2 3 3 4 5 2 6 4 41 63 82 23 19 11 20 24 14 77 80 82 113 87 132 157 130 127 112 108 165 127 160 90 152 151 171 109 149 177 157 121 121 70 99 103 73 34 76 78 29 38 30 22 17 15 12 53 17 75 92 125 128 146 148 134 129 118 118 106 94 69 7 9 12 10 15 13 20 6 3 7 8 16 10 11 7 8 10 7 7 6 10 4 4 4 9 1 4 4 3 9 27 80 104 54 28 10 24 16 36 24 54 67 75 85 62 100 99 122 119 131 114 100 163 138 130 137 140 106 141 185 158 97 112 57 93 89 103 59 69 55 46 15 7 4 9 24 32 22 52 100 110 133 160 142 134 137 134 128 114 109 102 53 8 10 14 16 14 7 7 8 6 8 15 23 16 9 7 8 8 17 35 17 5 5 3 10 9 6 7 4 4 24 16 76 96 65 59 18 16 27 20 28 49 57 70 60 71 91 107 113 121 123 83 118 143 138 108 143 112 81 113 137 138 75 121 64 97 91 71 45 33 29 17 17 14 30 13 12 13 28 125 114 118 129 135 143 147 144 141 130 113 110 93 78 15 26 20 23 31 27 7 9 10 15 27 11 10 9 18 47 13 23 12 12 3 0 5 1 8 3 3 6 4 13 5 75 89 93 64 53 28 19 23 12 29 44 46 47 71 56 63 102 112 115 110 129 157 122 127 100 85 120 119 126 81 46 58 54 80 52 66 31 54 9 19 21 12 22 14 33 20 74 125 157 130 143 144 130 138 142 140 135 123 127 100 70 40 8 32 11 11 16 8 10 32 3 20 12 7 12 4 10 12 8 37 5 6 3 3 2 2 9 9 5 6 12 7 59 93 101 76 48 25 26 8 16 18 58 29 61 21 66 97 94 59 94 76 85 93 114 108 117 86 88 106 76 87 62 52 63 73 41 57 15 31 16 12 32 17 12 26 15 45 85 157 158 139 129 142 147 140 137 134 137 134 126 116 74 57 11 28 16 17 7 10 15 29 17 11 6 11 21 7 6 28 18 13 13 1 3 2 2 5 0 16 11 9 19 11 36 97 105 95 90 36 18 28 18 13 15 24 61 26 41 69 78 73 100 76 72 83 115 72 91 81 75 90 71 68 60 46 67 47 34 30 26 7 26 9 16 18 27 18 19 59 117 111 154 151 132 145 129 142 150 137 136 136 131 115 106 67 21 10 12 11 5 7 13 8 14 14 2 8 7 12 11 22 17 23 1 4 6 2 7 5 5 6 20 26 24 13 24 94 104 112 116 85 59 12 14 17 27 13 41 22 37 22 63 71 87 65 58 64 66 66 113 60 33 82 63 35 35 30 55 53 30 36 4 15 35 11 16 26 29 29 18 61 102 159 166 140 102 161 161 125 148 146 142 144 138 124 115 97 29 27 12 13 6 6 27 19 10 6 5 10 9 12 11 7 8 4 2 6 3 10 10 11 7 19 14 22 17 11 7 90 109 119 124 99 92 73 38 22 13 27 34 6 24 27 33 33 37 40 61 68 66 48 76 58 33 54 30 28 25 35 28 19 30 72 7 16 13 11 24 26 34 40 54 120 159 156 165 158 156 136 142 148 145 151 147 145 141 132 119 110 49 42 36 19 5 9 18 11 7 3 3 10 8 7 6 4 3 8 5 4 2 9 6 12 19 30 18 26 7 6 9 79 109 121 128 123 91 113 101 51 29 17 14 21 16 14 11 22 27 33 25 25 32 48 31 39 32 36 25 27 36 56 5 19 16 7 21 17 23 32 20 20 53 33 104 131 135 152 145 159 163 138 151 153 155 149 152 146 145 137 122 116 78 36 42 43 21 22 10 7 5 9 10 12 12 4 6 7 8 7 4 6 4 7 14 21 46 32 20 14 9 5 9 65 100 116 131 125 116 118 111 101 57 38 27 13 20 21 21 13 24 28 18 10 22 39 13 26 35 22 27 36 28 19 18 24 17 20 16 16 30 31 46 62 80 150 153 136 134 163 165 151 157 146 144 153 157 157 154 149 144 138 128 123 90 9 17 63 30 43 13 15 11 8 18 20 11 10 12 12 11 7 3 5 10 20 12 21 30 13 10 10 4 3 5 57 95 115 122 140 127 124 109 95 98 91 68 43 38 21 24 34 15 17 22 32 14 13 21 25 9 20 24 7 23 11 19 26 5 32 22 51 63 82 111 136 140 161 164 150 136 159 154 164 156 151 163 157 154 156 151 153 147 140 132 125 113 13 29 52 36 41