P2
# Generated by OpenCV 4.2.0
92 112
255
1 4 15 20 12 24 17 23 51 18 15 15 9 7 16 45 30 9 22 31 76 41 37 51 36 34 27 25 54 71 69 72 72 105 119 131 108 111 110 110 115 117 108 143 101 131 102 95 126 107 80 101 74 63 64 61 49 69 55 58 61 55 51 48 44 44 52 54 43 24 10 22 8 11 29 43 20 24 9 8 3 0 3 2 0 2 6 0 24 44 32 59 1 4 3 2 3 3 14 32 28 22 14 14 8 7 5 29 40 25 18 32 41 49 40 52 33 21 28 32 32 61 75 78 87 89 101 122 145 130 127 133 143 135 136 135 129 128 133 115 133 148 97 106 114 104 89 77 75 82 82 76 71 67 81 91 81 72 70 58 44 14 12 26 46 29 16 20 29 25 21 13 12 1 0 1 0 4 6 0 38 14 43 59 1 5 8 6 13 8 4 21 28 26 11 11 4 4 5 12 21 12 34 37 38 39 30 37 34 20 35 25 39 44 58 85 86 107 114 99 128 154 150 168 162 163 164 159 158 169 147 151 154 162 112 143 137 121 115 103 94 98 94 98 95 86 98 105 105 99 91 80 45 23 18 32 41 36 27 21 26 43 20 47 36 3 3 0 1 4 0 4 18 30 31 78 1 0 3 3 2 5 8 11 21 17 11 4 3 5 6 14 17 39 35 33 38 49 53 42 38 44 40 58 42 49 58 59 73 101 113 119 134 162 187 174 172 179 176 173 174 158 178 161 168 161 167 158 162 153 124 114 114 142 124 114 112 124 98 103 100 92 75 70 52 34 28 53 49 17 19 5 10 20 26 24 21 21 10 6 1 0 4 6 5 25 42 74 1 1 0 1 3 3 5 4 15 6 9 6 9 5 12 19 39 31 46 69 69 58 73 60 52 56 51 55 76 59 65 91 92 92 94 115 142 161 185 188 190 191 186 186 173 183 185 179 179 181 188 165 164 158 133 145 149 150 134 144 130 115 120 121 115 111 104 87 59 41 41 51 40 42 6 7 5 3 4 2 2 3 6 2 0 0 0 0 3 18 39 63 1 1 1 1 1 2 6 9 11 22 29 19 19 18 23 37 44 59 70 71 93 77 69 66 57 60 88 53 61 68 59 79 94 83 113 133 149 175 192 195 193 191 197 190 182 191 188 188 191 186 184 181 163 167 165 146 160 157 164 148 147 136 102 112 134 141 113 94 80 74 63 53 49 31 26 6 4 5 4 4 1 3 3 1 1 0 0 0 5 17 69 63 1 1 1 2 5 16 22 20 15 27 30 38 38 32 39 63 81 88 104 82 98 104 119 96 106 80 60 76 81 89 98 92 94 94 108 140 161 181 192 192 195 198 196 186 185 188 189 193 189 188 183 185 190 180 170 163 165 167 168 169 169 148 136 128 114 137 134 111 107 87 61 57 54 42 28 23 18 23 6 3 9 2 1 1 2 0 0 2 6 32 45 60 1 0 1 0 18 21 37 15 26 33 50 52 73 86 89 107 113 138 131 160 157 164 150 137 118 136 127 108 91 105 118 114 122 125 117 144 177 186 197 196 195 194 198 191 195 189 193 193 185 184 193 177 185 181 178 172 180 162 170 167 176 167 135 141 154 143 145 141 120 92 64 59 46 38 42 37 21 9 2 6 5 2 1 2 0 2 1 5 13 18 30 65 1 0 2 0 51 35 36 16 30 53 67 82 111 98 99 115 147 152 169 173 167 147 164 162 149 159 145 143 139 151 135 127 120 131 145 165 186 196 195 195 195 195 191 192 194 194 193 195 187 185 187 180 178 184 184 181 172 173 172 170 172 174 142 150 158 155 157 144 147 90 89 59 36 30 34 23 17 7 3 2 1 1 1 1 0 1 2 3 8 24 43 77 3 1 1 0 57 24 21 36 61 92 101 113 105 115 131 139 157 170 171 178 181 162 167 181 192 176 184 184 176 154 156 155 160 166 173 180 196 199 201 201 198 193 191 192 195 196 197 192 196 189 182 182 186 186 182 175 177 179 177 171 172 170 160 154 163 164 154 146 160 98 75 68 70 44 29 23 14 3 19 18 4 1 0 1 2 1 0 5 3 20 35 41 0 0 1 3 60 38 17 56 93 110 127 123 130 141 141 158 161 178 177 171 172 170 185 191 169 196 197 192 179 188 180 189 167 178 174 192 205 197 198 197 199 198 194 192 193 196 198 192 199 194 188 192 186 179 182 178 177 177 172 183 176 168 167 160 159 170 154 148 158 124 95 76 73 45 34 36 43 8 8 3 3 8 1 1 0 1 0 4 5 1 1 44 2 1 3 0 67 22 31 78 107 108 125 147 148 143 154 158 168 172 174 172 185 183 175 172 178 191 182 178 186 192 196 196 182 182 196 211 203 204 204 201 199 194 191 194 197 198 196 198 195 192 189 186 185 184 186 186 179 181 176 175 179 177 178 160 159 167 166 151 147 135 100 88 69 54 25 22 19 22 6 8 9 14 3 2 1 1 4 10 13 8 30 52 4 1 6 0 63 14 53 90 124 134 146 138 139 145 149 158 160 168 170 181 174 186 190 172 179 177 184 201 203 201 199 201 201 202 207 201 206 206 207 205 204 199 207 203 201 201 202 193 195 190 188 187 184 186 184 183 173 185 174 177 179 177 176 163 160 161 157 155 150 147 107 91 78 78 52 20 20 13 19 10 3 3 2 4 5 5 3 13 23 39 21 3 1 1 1 1 44 4 53 111 127 141 145 146 143 132 150 155 165 167 179 182 191 191 192 193 194 195 195 203 203 202 202 202 211 202 216 212 207 209 212 204 206 207 204 206 208 204 200 197 196 195 196 186 187 185 184 182 181 180 174 177 178 179 174 160 171 155 158 154 146 138 129 112 82 59 61 30 27 14 34 19 1 1 1 5 1 6 1 11 8 24 65 59 0 0 2 2 17 3 51 112 122 142 147 148 143 149 163 170 172 179 189 189 191 193 198 197 199 198 199 203 203 204 206 207 206 212 208 213 210 211 211 210 210 205 205 201 206 207 202 201 198 198 194 191 187 187 184 184 182 182 178 178 178 180 175 171 161 160 157 157 149 129 116 111 91 69 45 48 25 31 14 18 4 4 1 7 3 0 6 21 6 3 14 18 0 1 1 0 9 5 56 112 130 146 148 151 146 150 161 165 177 178 182 189 195 192 195 196 199 201 204 208 208 207 206 207 213 208 211 213 210 214 212 212 216 216 210 210 205 206 206 198 196 196 193 194 190 187 183 182 184 182 180 183 179 180 177 176 162 166 161 156 141 137 121 100 86 66 55 22 36 16 20 25 11 13 3 2 3 0 0 2 5 6 13 25 1 1 1 2 6 4 39 114 139 151 154 144 156 153 156 172 172 183 185 191 195 193 193 195 200 203 207 208 209 209 211 213 212 216 210 212 216 218 217 220 215 214 217 210 213 211 207 201 200 195 191 192 188 185 180 181 183 185 185 186 180 180 176 175 172 164 161 156 146 138 129 104 84 70 38 20 20 6 8 8 33 34 18 0 2 0 3 0 0 1 14 23 1 1 1 1 5 8 51 90 137 149 156 156 157 156 161 167 170 179 183 190 193 195 196 200 202 204 207 211 211 212 212 214 215 215 210 213 216 214 213 215 210 208 206 205 201 206 206 210 209 196 190 189 188 183 179 178 182 185 186 188 180 179 181 177 169 170 163 163 143 136 110 99 94 61 44 32 12 12 2 2 2 34 15 6 2 9 5 13 5 7 8 12 1 1 1 5 12 16 79 106 142 149 153 152 159 163 161 169 173 181 184 186 190 195 198 203 203 204 207 203 204 204 206 209 207 210 206 214 212 212 221 213 221 213 216 212 208 204 214 203 207 193 196 194 183 185 182 177 183 183 184 187 185 184 180 175 171 166 168 158 145 140 114 80 80 65 54 47 19 3 2 1 2 15 11 5 5 3 0 4 7 8 12 13 1 1 1 6 9 35 88 132 145 152 156 159 161 162 165 168 172 176 179 187 192 194 196 199 201 208 208 208 210 213 212 212 208 217 209 218 225 218 221 221 214 216 221 215 214 207 205 198 203 199 197 192 186 186 182 180 183 183 187 186 186 184 184 181 175 170 169 160 152 127 111 113 82 56 37 24 36 17 3 3 4 2 15 1 0 3 1 2 2 7 10 23 1 1 2 4 20 25 103 136 141 149 156 168 159 164 165 169 170 174 178 187 192 193 198 200 201 209 205 210 211 212 213 210 213 213 205 217 219 205 216 215 214 210 208 222 212 213 209 206 203 199 194 188 189 182 181 184 181 187 190 186 186 182 182 179 175 168 164 165 155 128 123 95 62 62 48 38 17 68 23 2 3 2 5 3 0 1 8 0 4 1 6 23 1 1 1 11 20 77 115 130 139 152 156 164 166 165 173 171 172 174 182 184 185 193 192 201 201 208 208 216 212 209 211 214 215 213 217 216 223 221 222 214 214 223 212 209 211 206 203 204 200 196 195 192 190 183 181 184 182 184 186 188 188 186 184 182 177 169 165 156 151 137 111 94 93 72 39 38 38 17 49 15 3 6 5 4 1 0 1 1 3 4 5 6 0 0 12 13 60 90 130 138 140 150 154 163 163 167 169 173 168 175 183 182 181 193 195 204 198 204 207 209 212 213 210 203 218 216 217 219 219 220 223 216 218 217 217 211 216 218 210 202 199 197 195 189 185 186 183 181 185 188 186 190 184 182 186 183 180 171 165 164 160 140 122 111 88 52 50 32 23 34 9 25 3 0 2 10 1 5 0 1 0 4 2 10 0 2 16 33 74 103 129 139 142 151 151 163 168 170 164 171 171 175 176 182 184 193 195 200 199 200 206 204 207 208 209 209 211 216 215 216 226 218 208 206 218 214 211 210 209 203 204 200 195 192 190 185 182 179 179 182 186 183 184 182 182 181 186 180 176 173 168 164 164 145 134 121 102 80 50 40 25 10 13 4 5 4 1 0 1 0 1 3 3 2 4 6 1 4 17 32 67 109 136 133 144 151 153 167 170 171 170 172 173 175 177 181 183 192 192 198 201 201 210 203 206 208 211 212 215 211 212 215 217 213 213 206 217 208 209 205 206 208 198 197 192 191 188 184 178 183 178 182 179 184 184 183 183 183 184 179 175 173 167 166 162 156 150 133 112 98 73 48 29 14 11 5 4 1 1 1 1 1 0 3 3 2 4 7 0 6 15 39 75 105 128 129 150 152 155 167 172 169 175 173 174 175 176 180 182 188 194 197 201 208 206 203 208 209 207 203 212 205 213 218 213 211 208 210 203 209 207 204 194 198 198 194 190 189 187 183 183 183 175 180 179 180 179 181 181 182 183 179 175 172 167 167 163 155 149 131 136 99 89 55 50 11 6 4 1 1 0 1 1 1 1 3 1 0 5 7 2 6 12 46 70 97 123 143 144 152 156 167 168 167 174 173 171 178 177 179 180 188 194 198 205 204 199 206 203 206 209 207 209 211 213 212 212 214 211 209 202 208 207 209 209 210 208 197 192 193 191 188 189 185 178 177 178 179 179 181 182 184 183 178 174 171 165 159 163 155 151 144 144 124 99 79 58 29 10 2 1 0 0 1 1 1 1 3 1 0 0 7 3 8 16 42 68 95 118 140 150 154 159 163 168 171 172 171 170 177 176 179 179 185 197 198 201 190 203 204 201 198 200 210 208 215 214 210 210 209 215 209 209 204 205 199 205 206 201 200 197 194 195 193 191 185 185 180 176 175 177 179 180 182 183 178 174 171 165 165 156 154 143 149 140 131 114 86 82 47 16 7 1 1 1 0 0 0 0 3 0 2 2 8 4 4 12 32 69 94 118 132 141 153 159 167 169 171 173 171 170 176 173 174 182 187 196 195 198 200 204 206 205 209 214 211 206 209 210 209 210 207 206 208 205 208 207 207 206 207 205 203 201 197 194 194 190 184 188 186 179 178 178 180 180 181 183 180 172 168 165 158 158 155 148 149 141 133 117 106 94 66 40 14 15 0 1 1 0 5 2 0 3 4 0 15 4 4 15 32 57 94 121 132 139 150 156 167 163 171 173 169 174 171 174 177 184 192 199 194 202 201 206 205 203 210 207 207 209 208 209 211 206 207 204 204 208 204 203 203 204 205 205 202 199 197 200 198 193 189 186 179 177 181 176 180 182 180 176 173 170 166 162 161 155 154 151 150 144 132 124 108 113 94 61 26 13 11 2 0 0 7 10 4 8 11 10 13 4 4 18 31 63 98 116 127 141 148 157 163 158 169 171 171 177 172 178 180 185 193 195 198 203 205 204 208 208 204 206 208 208 210 210 208 206 204 208 202 207 204 205 208 207 210 211 199 202 198 199 197 202 189 182 172 178 182 181 181 179 181 178 173 166 165 158 156 156 149 151 152 146 125 131 117 104 100 64 46 12 7 1 0 5 10 23 1 12 11 21 23 4 5 22 33 66 93 116 131 140 149 152 156 169 173 174 172 172 177 183 184 184 192 196 202 202 208 207 202 216 212 216 213 211 214 214 209 208 207 209 207 207 207 212 209 213 208 211 209 203 205 205 196 199 191 185 187 189 182 185 181 180 181 173 172 168 163 161 153 150 146 147 150 137 130 132 117 110 107 86 44 20 7 10 6 2 3 31 2 9 7 18 21 4 4 31 47 78 93 111 125 135 144 155 164 170 172 175 176 175 175 183 186 186 192 201 201 199 207 210 208 212 205 212 220 215 213 214 214 208 210 206 211 208 207 215 216 215 213 215 215 211 212 207 200 199 188 192 189 183 187 182 181 182 178 172 167 160 158 151 152 145 139 149 148 125 134 122 117 107 103 89 59 20 6 14 14 4 0 27 11 4 5 3 24 6 4 27 45 84 102 112 126 129 142 157 166 170 171 172 177 175 180 186 189 193 192 191 197 201 211 210 212 210 216 212 219 220 210 213 210 210 206 214 209 219 213 222 223 219 215 214 217 215 208 201 199 194 197 188 184 184 176 170 180 162 173 165 162 158 155 149 154 139 141 136 145 134 122 124 117 116 102 85 58 28 10 0 16 15 2 11 25 1 4 9 13 3 4 36 53 88 108 115 126 127 140 154 165 172 172 173 176 177 182 187 191 191 194 198 198 206 210 212 213 212 218 216 220 222 217 214 213 208 209 214 213 211 218 213 219 214 215 213 209 200 207 193 197 195 182 191 181 179 176 168 162 156 137 133 137 152 142 141 150 135 132 131 137 134 126 123 124 117 107 88 53 25 7 0 5 27 3 3 1 2 10 3 13 4 2 36 56 92 106 113 114 120 136 153 168 173 171 172 176 179 182 187 193 191 192 196 193 202 208 209 216 212 219 223 213 228 219 218 214 213 214 207 213 216 214 216 203 208 208 208 189 189 197 173 186 179 168 154 159 158 153 130 107 126 119 122 103 84 107 113 106 146 125 123 136 138 130 128 128 120 116 91 51 19 7 3 24 11 4 10 71 123 119 93 23 2 5 26 58 89 105 113 114 116 138 159 160 173 170 171 175 178 182 187 189 186 189 198 199 198 196 199 210 202 212 214 216 213 223 216 217 214 214 219 206 211 199 202 191 187 167 173 178 159 168 157 127 123 108 87 95 96 104 125 119 109 100 79 78 85 88 82 108 125 116 126 123 130 128 134 127 119 117 93 51 22 1 10 19 8 21 53 79 103 128 136 106 4 6 23 52 89 103 117 109 120 144 161 167 165 163 162 167 170 180 184 188 183 186 191 195 191 189 192 189 194 203 209 211 210 208 214 218 210 214 210 202 206 209 201 176 170 142 145 153 112 134 109 117 87 80 86 82 69 76 72 73 94 63 70 75 82 76 89 103 87 97 107 111 129 122 134 134 116 118 98 45 21 1 27 27 8 54 125 121 127 125 126 131 3 10 19 41 79 99 111 101 120 140 153 142 135 154 157 163 169 175 176 176 153 133 158 166 162 187 181 192 187 195 199 205 211 205 205 212 210 203 205 201 199 197 197 179 149 129 129 92 122 125 136 91 54 60 73 68 63 78 73 72 71 107 88 96 119 87 82 80 97 102 109 107 124 128 138 130 123 124 104 42 11 8 35 5 17 29 156 176 153 150 116 115 5 6 12 37 77 110 112 103 121 123 118 113 131 132 132 124 125 110 107 118 122 112 103 142 126 164 172 187 175 184 187 198 200 204 203 200 206 203 200 198 199 196 186 172 160 124 122 109 105 119 97 75 76 74 89 79 100 97 106 108 127 119 101 113 97 98 94 116 112 110 109 132 129 129 131 128 127 125 111 51 20 5 28 19 18 10 123 153 132 94 122 134 8 7 20 39 80 96 106 99 88 91 100 84 110 92 75 65 53 75 66 79 79 86 91 118 98 145 138 168 171 182 172 196 200 194 196 197 190 199 194 193 192 195 174 160 151 152 107 141 104 100 108 98 110 126 137 137 145 136 129 133 134 126 123 121 113 119 130 128 128 135 133 139 132 127 132 132 130 127 119 65 20 9 7 21 10 11 95 104 105 124 162 153 16 15 22 18 80 85 100 86 69 54 53 64 64 59 55 60 57 56 44 61 60 62 85 89 90 145 114 140 169 161 179 196 189 194 196 195 197 188 194 189 188 188 173 171 126 150 135 120 118 126 122 113 114 115 99 81 73 58 67 71 96 104 109 113 126 134 135 134 138 143 144 145 140 133 135 136 129 125 122 92 37 16 8 27 7 27 75 139 134 128 181 164 29 21 18 27 78 73 100 72 61 56 40 48 51 62 59 43 56 59 62 80 72 83 77 73 83 107 92 139 156 164 162 165 187 188 191 193 191 189 180 185 182 174 166 161 141 136 126 123 124 108 104 116 117 62 25 27 25 31 38 24 29 59 99 97 101 127 134 132 144 142 146 143 142 140 135 139 136 123 123 100 56 28 11 19 27 41 98 153 148 126 169 168 57 31 17 21 71 87 102 73 52 50 66 79 70 69 82 106 106 121 138 136 134 135 125 124 113 103 96 106 144 141 163 169 176 179 185 187 186 189 185 180 177 166 159 143 132 122 128 121 106 122 125 111 100 63 62 16 113 31 59 61 118 71 32 57 77 111 123 136 138 148 155 155 154 142 141 134 134 129 126 107 79 48 25 35 32 54 120 151 156 131 160 175 65 63 34 24 76 92 107 99 98 77 85 87 105 111 114 118 136 132 130 116 93 86 76 73 93 114 111 109 105 118 139 148 157 173 187 191 197 200 192 178 174 166 155 147 137 130 125 121 139 142 125 113 190 100 56 41 11 46 57 62 128 110 75 41 54 77 105 127 140 152 158 161 156 145 145 138 135 128 124 119 82 71 30 39 47 85 151 165 156 139 151 178 60 93 63 41 80 97 102 113 122 120 100 107 116 116 109 94 69 54 21 30 29 19 82 50 40 52 106 128 116 110 120 133 147 168 183 191 201 214 201 183 181 164 157 147 133 140 142 144 150 114 114 176 197 144 59 42 82 65 90 122 124 101 100 94 111 128 145 148 157 170 173 168 163 152 149 139 133 126 134 118 90 78 64 46 59 112 156 147 156 156 142 180 93 88 55 48 75 101 111 115 118 127 120 114 113 95 85 57 23 57 74 47 52 24 79 33 63 131 155 118 131 143 126 124 143 165 183 196 212 215 201 188 179 164 153 147 144 146 174 175 127 107 124 119 131 142 129 144 147 131 138 102 130 124 126 127 138 150 160 159 166 176 176 171 162 155 154 145 137 134 132 123 101 89 84 60 87 117 150 162 176 171 136 189 142 100 56 50 77 110 109 117 131 124 124 107 106 92 39 25 54 114 124 50 56 47 46 50 65 129 154 117 129 135 176 146 142 159 176 193 207 208 201 187 173 162 156 154 154 179 189 170 171 184 154 154 151 137 117 136 114 96 144 128 124 132 142 152 153 163 171 169 173 178 174 169 160 155 155 149 141 133 133 128 93 107 75 80 131 142 159 181 190 179 137 186 154 123 54 48 85 113 115 126 137 134 126 111 80 38 42 64 102 110 106 99 99 110 119 146 155 142 151 155 153 178 180 165 148 154 174 191 199 204 197 183 171 159 152 156 151 191 186 191 170 165 159 157 150 147 169 164 140 129 142 146 137 153 151 153 161 171 174 173 173 176 174 171 162 157 158 148 143 138 135 126 96 107 91 91 130 158 180 197 203 187 143 181 156 127 62 55 83 111 115 133 147 157 153 131 89 95 91 98 104 107 108 121 120 130 147 154 149 155 162 175 184 191 184 157 149 151 172 188 196 202 189 175 166 153 156 159 150 164 168 169 170 164 165 166 168 173 169 158 162 158 163 163 157 154 162 164 171 177 176 175 172 171 171 170 164 159 156 152 142 132 134 128 101 101 91 89 146 182 194 206 210 184 156 180 138 112 66 69 92 107 116 136 150 166 166 152 150 137 133 118 123 116 124 130 111 145 150 158 168 154 164 168 183 180 164 146 148 146 171 188 188 200 184 169 162 149 152 159 162 155 158 170 176 178 180 185 187 181 184 181 180 170 173 167 166 169 172 175 181 184 180 178 173 170 168 170 162 157 153 149 138 135 131 130 112 87 81 87 147 179 194 216 219 184 164 165 126 130 67 68 105 107 125 135 154 161 167 163 160 150 140 136 135 140 147 147 144 151 147 161 167 172 167 177 181 169 151 156 146 144 169 181 185 194 189 173 158 151 146 164 165 166 171 171 175 187 188 190 204 203 205 206 190 184 186 183 185 182 184 184 186 187 184 182 176 174 170 169 164 156 154 145 135 138 134 126 120 101 83 98 117 179 203 217 219 171 178 148 121 143 80 69 108 107 126 139 149 162 166 163 165 164 147 145 141 156 154 160 161 162 164 164 175 179 179 191 186 167 172 156 143 146 167 172 185 193 190 175 160 150 151 158 164 167 170 181 171 179 190 199 197 202 204 196 201 202 195 194 188 186 191 188 188 187 186 182 178 175 173 170 164 158 157 144 137 140 133 120 117 102 80 108 117 166 192 200 214 160 188 117 134 145 91 67 113 120 128 135 147 160 162 166 162 164 166 162 154 153 158 164 165 172 174 195 193 193 194 189 178 169 164 154 137 148 166 174 176 181 183 174 156 150 150 156 163 169 172 170 188 188 186 195 204 202 205 199 204 201 202 189 186 190 190 187 190 187 185 180 179 178 174 169 160 159 153 145 139 133 136 118 104 99 86 106 108 139 163 194 192 147 191 89 139 138 94 66 107 116 122 133 145 156 160 164 162 167 171 169 169 168 169 173 176 185 181 187 186 196 196 184 177 170 154 147 144 151 163 179 181 184 184 177 161 154 154 154 160 167 165 174 182 194 192 187 197 200 198 212 205 211 197 199 190 194 192 193 187 186 184 181 177 177 173 170 168 158 150 141 143 132 126 121 107 97 73 78 122 152 143 181 169 173 175 61 150 118 123 74 103 115 122 133 143 152 158 162 167 172 174 173 176 172 177 176 181 183 184 190 190 193 188 184 187 166 152 148 143 152 170 186 188 186 182 174 161 153 152 155 159 162 166 167 180 197 196 191 194 199 204 191 193 196 200 198 195 192 189 190 188 189 186 181 180 174 175 171 164 158 155 144 136 131 120 119 98 90 87 63 137 175 151 155 165 196 137 38 178 106 130 71 93 110 126 131 141 148 155 161 166 173 173 171 176 177 177 182 181 191 185 195 196 195 194 195 177 163 154 150 143 150 168 181 184 186 182 175 166 162 150 155 157 162 170 170 170 188 202 202 198 194 197 196 194 199 196 198 196 192 190 190 189 187 188 186 176 176 173 172 168 157 151 145 135 132 122 116 105 93 60 81 167 183 146 145 185 188 99 30 189 112 142 65 93 108 123 130 139 148 155 159 168 175 176 175 182 180 189 189 189 187 185 195 201 197 199 194 174 157 151 152 138 153 167 186 190 190 182 172 163 158 151 150 158 169 172 172 168 182 204 203 213 212 196 202 198 201 209 204 208 193 193 189 192 187 184 183 180 174 175 172 169 158 149 144 134 129 123 111 81 77 61 79 173 182 130 159 186 172 55 27 195 119 128 68 89 107 122 120 138 151 154 160 167 172 177 179 181 183 190 190 190 190 188 192 197 199 194 183 170 155 154 148 141 156 164 180 186 187 179 174 160 154 153 150 157 168 166 169 174 187 197 205 207 206 206 204 204 207 197 204 203 195 189 186 186 188 181 179 179 178 174 170 164 160 151 141 134 123 119 106 93 71 59 90 162 168 138 163 172 156 48 26 194 158 85 91 83 122 117 119 134 148 156 163 169 170 178 184 182 184 184 188 185 184 190 192 197 202 193 180 167 157 157 144 142 159 171 186 185 187 182 173 162 157 149 146 152 165 169 170 174 187 187 198 214 209 209 201 205 202 202 198 195 200 184 185 182 180 182 177 177 175 172 168 164 157 149 138 132 123 120 99 82 73 71 99 161 174 161 167 161 120 34 40 187 175 109 104 84 110 115 117 130 141 154 163 168 174 179 181 183 186 186 192 191 190 189 189 190 193 188 183 166 161 151 136 141 161 177 189 186 179 182 176 165 154 149 147 145 151 161 178 178 187 194 195 206 201 206 201 204 200 207 196 195 195 186 184 183 178 178 175 175 171 169 166 162 156 148 136 130 116 125 110 90 68 45 94 178 175 173 178 151 86 37 51 189 177 132 80 75 103 118 119 125 136 148 156 161 169 177 181 187 184 187 190 189 188 190 191 200 196 189 181 168 159 147 137 138 164 177 185 186 189 188 179 168 155 147 140 135 141 155 173 183 186 197 204 203 208 205 205 208 209 209 204 188 197 187 184 180 178 171 175 171 167 164 166 159 155 145 133 128 121 117 97 92 71 52 90 177 180 179 177 150 46 28 48 180 185 146 89 82 88 116 121 122 133 143 152 165 167 175 181 181 184 191 188 187 189 187 190 191 185 187 185 179 154 143 129 142 172 181 189 194 188 184 171 167 162 153 137 129 138 146 146 178 195 199 206 211 218 207 217 213 210 202 194 196 200 184 188 183 173 179 174 170 166 162 164 158 152 144 134 127 139 101 86 83 58 56 91 172 177 173 167 135 7 44 44 189 184 177 89 89 80 104 119 122 136 135 147 155 158 173 177 182 187 185 193 192 188 193 192 200 195 189 188 182 148 139 127 145 168 178 195 192 197 188 179 174 162 146 146 134 131 136 133 159 189 199 202 201 198 213 205 212 207 200 202 196 193 189 186 184 179 174 173 171 172 163 160 158 148 145 136 129 125 104 92 75 66 61 99 160 179 168 156 78 8 39 51 194 197 184 111 74 70 96 116 119 131 131 142 151 156 166 175 177 183 181 188 190 191 193 193 189 192 198 198 170 138 139 131 145 164 181 196 196 204 191 185 173 161 151 148 141 140 139 131 136 181 198 198 197 198 202 208 210 199 204 200 202 193 189 186 182 177 171 173 170 164 163 162 159 150 141 131 121 112 106 78 82 62 57 103 162 164 168 128 13 25 23 52 190 194 187 154 70 53 88 113 118 128 130 140 149 153 162 167 177 184 179 185 182 192 187 194 197 200 204 196 172 135 139 140 141 172 184 199 209 213 193 182 179 164 150 152 149 147 143 140 125 165 194 200 201 205 211 210 211 203 196 203 199 198 185 183 181 177 173 169 168 162 165 161 155 148 141 133 125 126 111 73 81 70 44 115 148 157 121 23 0 34 7 40 192 195 194 173 96 58 69 103 113 127 132 138 147 148 157 161 175 180 182 184 184 191 196 193 198 197 200 199 167 138 140 136 146 181 191 203 217 222 203 190 178 167 152 157 148 145 148 142 127 141 181 203 199 207 207 204 204 203 205 203 200 195 184 182 180 176 172 170 164 163 164 162 153 153 136 133 122 112 108 81 80 69 48 51 62 40 21 43 9 34 27 14 192 191 191 187 133 64 71 93 108 124 130 135 142 149 154 161 171 175 185 183 192 195 196 200 190 202 207 199 151 141 141 135 147 172 188 199 216 249 205 192 179 167 150 156 149 146 150 140 135 132 184 206 198 205 202 204 207 210 202 204 197 195 185 184 179 174 169 167 159 168 163 159 153 149 134 129 117 101 74 80 77 68 47 8 0 0 14 84 26 24 50 20 192 194 190 192 163 75 53 73 101 118 128 134 141 143 152 159 164 172 180 186 193 193 198 195 197 201 204 198 141 143 141 129 141 169 182 194 204 224 205 195 176 158 145 148 150 136 141 140 134 130 190 197 209 208 212 207 210 205 205 203 198 194 182 184 179 174 173 170 161 164 160 156 147 144 134 121 113 106 72 79 64 65 27 12 0 0 8 44 30 23 65 21 191 194 192 195 187 93 49 68 95 118 121 138 138 140 147 154 161 170 178 185 192 195 191 199 197 200 202 192 134 135 133 130 130 162 178 190 190 198 195 180 172 149 142 132 119 120 134 141 126 134 191 196 209 209 212 206 204 203 201 202 200 189 187 183 183 174 173 168 166 161 155 157 143 148 137 114 108 107 72 79 68 59 19 8 3 1 0 23 15 18 66 36 192 194 193 196 190 125 58 74 79 105 125 137 140 141 146 153 161 168 175 180 191 194 196 200 200 200 205 196 155 125 125 109 119 134 162 176 185 190 180 164 152 140 107 82 131 152 136 134 116 161 191 199 197 210 204 201 201 203 201 203 194 190 190 187 181 176 170 168 165 163 155 154 143 133 131 117 115 87 70 74 78 43 24 8 2 0 0 2 18 9 59 42 191 194 191 193 194 173 72 60 66 97 124 129 142 140 145 148 159 168 170 174 187 197 196 199 199 202 204 186 176 134 135 155 165 122 132 157 163 169 164 161 142 95 122 162 165 173 142 123 149 174 181 188 189 202 209 206 199 204 202 202 196 193 190 187 181 180 173 168 165 162 158 152 127 133 107 108 106 95 74 60 49 50 25 10 3 0 0 3 17 6 53 39 191 194 192 191 196 179 114 56 77 84 112 120 139 137 141 144 156 162 171 178 188 193 193 201 197 208 198 185 177 173 126 136 152 147 121 133 140 155 157 142 82 128 155 157 160 142 140 147 170 173 183 186 192 204 205 211 204 199 198 199 194 185 187 181 184 182 179 172 166 157 157 151 140 123 103 97 98 109 79 58 66 40 11 11 0 0 4 0 1 1 27 55 191 193 194 195 191 193 166 45 63 72 92 117 133 138 140 151 154 163 174 180 185 190 194 199 200 205 197 190 184 168 166 142 136 147 153 126 118 122 128 116 132 170 166 147 148 155 154 164 167 177 182 188 184 196 203 204 204 198 195 195 193 189 187 178 184 184 177 172 160 162 143 141 136 109 96 96 108 92 65 67 61 40 25 5 3 0 0 3 0 3 28 72 194 194 188 195 195 192 168 50 59 80 91 110 129 136 138 143 153 163 171 178 187 188 190 200 198 200 195 191 172 171 158 146 145 132 149 165 160 125 123 146 188 182 165 116 116 123 147 158 150 161 179 187 181 192 200 202 204 196 199 197 193 192 190 182 185 183 177 165 164 163 151 132 114 102 63 100 97 82 57 74 49 19 21 3 0 1 0 0 1 5 37 69 194 193 195 195 190 193 145 40 64 73 92 106 120 134 136 137 151 160 169 179 186 186 192 194 198 196 190 189 182 152 140 126 119 107 109 149 189 186 179 172 172 164 143 80 65 101 129 135 133 162 182 186 181 190 190 196 198 205 198 192 191 190 194 189 187 184 176 166 161 155 138 139 115 105 70 86 92 70 62 66 45 20 15 0 6 0 1 0 4 14 46 67 194 194 192 192 197 189 72 39 60 65 88 100 110 131 133 135 148 155 169 179 183 184 187 195 192 191 187 182 179 153 112 84 81 86 103 138 153 159 171 157 138 164 124 88 76 62 100 124 98 149 158 171 178 185 181 192 190 196 194 190 189 190 191 190 183 181 169 164 163 153 150 129 114 86 81 102 99 66 50 55 49 21 10 0 2 1 2 2 12 23 58 72 194 193 196 197 192 178 25 39 37 50 83 87 106 129 130 135 147 154 170 179 181 183 189 191 195 187 184 180 163 136 93 62 85 77 78 108 105 128 156 143 127 127 86 105 88 72 70 76 95 86 138 142 161 153 170 176 188 182 189 193 193 192 179 192 181 165 166 170 163 156 137 110 91 74 96 110 83 62 47 45 39 15 1 2 0 2 4 8 20 44 55 70 195 194 192 194 188 141 27 35 44 43 83 98 98 98 119 130 144 159 173 171 176 179 186 186 180 181 165 147 138 94 67 74 67 83 109 103 99 125 160 162 151 102 110 118 92 67 72 78 80 96 101 132 134 156 149 145 155 163 186 182 195 191 185 187 185 166 169 167 159 147 119 106 88 86 94 100 79 47 46 51 39 15 1 2 2 3 9 19 44 50 56 67 195 193 193 193 183 92 15 21 31 41 74 87 83 89 114 126 142 154 166 171 173 179 180 166 154 136 129 117 106 68 72 74 80 100 104 118 135 143 144 159 139 154 150 125 105 73 81 59 100 75 87 110 106 145 143 150 136 166 141 168 179 184 192 187 188 176 165 153 146 133 116 93 92 97 85 93 61 60 54 38 25 15 1 2 1 15 15 35 49 50 53 65 195 193 198 189 180 30 10 28 25 54 42 73 74 88 98 119 138 144 160 165 174 179 155 129 118 119 103 103 83 65 68 94 87 99 117 167 177 166 162 179 172 180 194 164 112 83 101 93 89 67 115 99 113 117 142 112 155 125 126 135 166 183 188 187 183 175 167 151 134 86 91 103 76 78 89 72 71 45 51 42 21 8 0 6 8 14 24 50 54 53 53 61 195 195 190 187 145 14 39 113 35 46 39 53 81 69 93 127 127 148 159 163 161 153 128 124 110 99 90 103 90 86 98 87 113 114 154 179 195 199 202 196 201 201 182 153 140 113 102 136 96 109 137 99 116 114 113 115 118 134 132 112 144 157 187 182 179 165 150 140 133 109 90 111 82 79 68 63 62 49 42 33 31 31 33 20 17 44 34 56 55 56 53 58 195 195 192 202 70 87 113 143 41 33 33 56 66 60 84 106 118 145 155 154 160 130 138 110 85 78 84 78 83 97 95 121 148 138 145 154 153 162 184 200 152 147 150 157 151 148 142 133 126 144 139 108 127 110 99 105 105 119 117 125 106 141 155 187 182 159 148 138 138 95 93 90 96 78 60 69 44 48 35 37 17 15 21 20 34 44 50 56 53 57 56 56 196 193 194 144 23 133 181 133 36 26 36 48 63 65 56 77 116 133 139 159 163 121 128 88 85 75 98 107 108 119 123 116 138 143 141 151 155 150 152 157 139 140 141 142 142 144 137 125 125 127 115 133 133 111 94 112 96 124 134 125 129 133 154 149 162 154 145 139 109 107 78 82 93 75 55 51 40 36 41 40 31 21 28 40 46 43 59 52 55 56 56 56 197 195 193 114 174 195 175 130 37 6 32 55 44 61 62 54 90 128 135 155 158 117 94 98 77 93 101 128 120 135 133 120 120 119 129 133 132 131 133 148 140 133 120 124 122 113 105 111 106 103 104 110 111 112 110 106 88 114 117 154 117 103 113 133 151 157 124 125 105 93 59 82 75 68 56 31 52 40 41 43 36 42 52 53 55 51 56 55 54 57 56 61 189 189 173 181 189 193 188 143 20 14 33 60 43 47 60 50 92 101 140 135 135 87 94 102 87 99 105 122 137 116 113 106 93 97 93 86 90 93 91 102 95 91 97 111 111 121 122 131 129 128 123 124 118 111 145 138 124 134 134 152 123 108 131 124 160 150 123 83 100 105 66 73 64 56 50 43 43 41 49 42 77 51 57 54 55 55 54 56 56 57 60 72 183 179 173 188 191 186 192 142 31 8 46 58 47 40 57 54 80 96 117 141 97 79 92 89 109 131 122 117 113 99 91 106 132 137 124 143 142 143 147 147 146 148 151 152 151 146 146 139 143 145 149 137 147 168 180 190 189 173 148 126 146 129 133 121 150 134 105 92 76 79 63 69 62 58 51 41 36 46 50 60 113 73 55 55 57 57 58 56 58 62 68 88 188 185 190 189 190 177 189 177 46 2 77 67 53 38 52 57 71 73 111 115 99 70 97 100 106 158 160 171 161 147 130 136 151 143 153 148 160 166 180 176 171 162 168 166 159 161 154 158 155 154 152 156 176 174 189 198 206 209 164 171 120 150 172 136 153 135 104 77 66 56 83 55 62 50 42 32 37 43 62 78 136 118 50 53 52 53 54 62 68 74 82 106 178 177 180 187 190 186 183 170 110 9 117 88 51 32 50 55 52 65 87 101 90 92 88 138 140 186 195 187 170 164 151 144 145 146 157 163 166 180 177 184 173 174 181 181 177 171 165 154 158 155 161 173 179 178 189 196 204 207 200 161 163 135 122 152 132 111 93 65 61 48 54 57 34 41 33 50 46 49 76 129 162 156 49 51 60 57 62 68 77 86 96 117 175 171 169 180 189 192 181 180 143 11 109 102 72 41 47 40 55 51 77 85 125 139 151 151 172 198 195 187 178 174 168 159 155 153 151 158 162 181 180 183 179 176 189 178 177 162 156 163 162 164 170 176 179 183 191 208 202 199 200 192 186 167 151 125 123 107 82 69 47 47 62 53 28 35 34 50 47 74 76 169 181 168 81 19 59 76 80 99 117 126 129 141 192 196 180 174 188 189 186 181 155 31 59 124 99 61 33 52 44 41 54 84 137 157 142 166 192 193 199 184 178 169 173 167 164 162 166 169 163 175 172 176 184 181 174 173 166 158 168 174 160 162 174 175 177 190 195 200 197 188 196 194 190 182 165 159 102 80 63 65 35 45 52 43 33 29 45 48 76 79 92 188 204 185 160 35 22 42 84 106 134 155 168 178 191 198 182 177 191 188 188 180 162 48 81 93 99 68 54 42 32 57 56 68 120 129 149 168 181 190 196 184 177 170 174 171 165 158 168 171 166 161 169 164 165 158 161 160 160 159 157 163 166 170 175 179 194 198 194 195 189 189 194 195 183 176 153 153 109 90 55 59 43 35 39 69 36 36 55 82 89 104 104 212 207 192 174 77 34 14 38 120 148 169 182 191 193 195 180 177 185 187 190 178 168 84 41 119 147 79 54 39 33 42 43 54 75 132 156 169 178 179 187 186 181 179 179 172 168 154 158 167 163 149 145 137 140 140 137 138 151 154 162 165 171 175 183 194 198 198 193 199 197 189 191 192 179 174 145 136 131 75 63 39 29 28 40 30 30 44 62 96 124 111 129 228 206 196 182 149 38 36 11 82 164 178 185 197 198 196 178 177 189 190 189 181 166 120 76 88 129 100 68 62 45 32 39 52 81 119 133 167 181 175 187 180 178 180 176 178 176 162 142 147 148 148 144 128 145 135 148 159 153 160 152 172 179 182 179 192 191 197 194 199 198 185 184 156 168 152 130 115 98 89 47 38 30 35 42 20 35 55 76 125 120 125 166 222 206 196 191 168 124 32 32 4 104 180 183 199 197 192 179 177 189 189 190 180 171 145 106 128 92 99 70 73 59 37 38 45 60 104 138 140 170 177 181 175 170 179 177 181 174 163 163 154 147 170 165 135 149 144 148 185 163 176 183 165 149 162 194 201 205 195 195 192 200 182 175 151 144 149 132 100 82 60 53 36 46 34 26 41 49 70 103 138 138 123 199 225 206 202 196 183 170 71 35 21 9 142 183 199 195 192 179 177 189 188 190 180 171 161 130 102 180 122 82 98 86 53 30 33 59 93 117 137 157 176 181 177 176 177 178 178 183 169 163 165 169 178 150 151 190 169 167 186 193 204 196 201 199 187 191 196 203 200 200 196 188 187 171 147 130 96 109 90 65 58 39 45 29 40 32 45 81 105 137 153 145 132 221 219 210 206 198 188 180 155 44 27 15 21 166 189 195 194 179 177 189 188 190 182 168 171 177 153 139 159 95 112 104 90 49 41 52 60 84 134 161 156 173 185 184 181 180 178 180 182 185 189 191 194 167 186 198 177 206 180 214 207 205 208 209 199 185 194 202 200 201 194 179 187 154 145 132 85 56 71 50 45 28 27 34 40 35 60 105 129 152 157 143 174 233 217 206 205 199 194 191 170 88 31 13 10 37 172 194 197 177 177 189 188 190 180 173 189 199 179 193 176 125 115 117 119 63 44 32 45 65 123 146 147 173 181 180 187 188 191 195 191 192 197 199 201 201 197 203 206 185 200 204 211 211 211 213 206 194 192 202 200 196 193 176 165 161 108 115 89 65 51 49 26 25 25 43 45 62 89 146 153 162 160 150 231 229 217 212 205 197 200 193 177 106 35 17 8 15 55 196 198 180 178 190 187 190 183 169 192 199 191 194 184 167 134 123 141 87 66 28 36 52 80 112 147 158 179 185 193 200 195 194 195 196 197 196 193 208 186 196 212 199 211 197 214 215 210 212 211 205 204 203 198 195 182 165 162 135 118 75 85 60 45 29 25 24 24 28 60 78 135 147 161 167 164 181 240 224 219 213 207 201 204 198 182 117 35 20 7 7 15 190 194 179 178 188 188 191 183 170 193 199 192 187 185 175 148 133 140 143 72 44 33 38 65 103 108 151 165 173 187 191 197 198 198 192 195 192 193 204 184 196 213 209 209 197 211 213 212 209 207 203 201 198 190 185 184 150 145 113 99 73 64 37 31 26 28 34 28 38 64 119 139 163 163 175 154 225 238 225 223 216 210 203 205 199 187 124 32 17 10 9 10 194 193 180 178 188 189 190 183 170 191 198 194 200 196 184 156 139 139 143 164 87 41 33 42 70 111 120 118 158 165 186 196 190 193 187 190 186 186 196 175 199 217 181 204 185 212 204 202 208 200 199 195 174 164 151 159 142 103 93 64 67 59 35 29 32 27 30 45 59 110 137 157 174 170 182 210 249 231 224 224 215 211 206 208 197 188 116 31 16 11 8 10 198 193 179 178 188 188 189 181 171 191 198 198 202 196 187 167 151 143 143 213 154 55 33 31 38 75 79 114 111 152 179 179 185 189 182 183 186 169 184 149 172 207 174 174 186 208 196 190 196 174 193 183 182 154 164 147 103 108 77 48 53 51 26 31 29 30 27 48 79 115 158 162 167 184 178 244 238 227 223 224 216 214 208 205 197 195 109 34 13 12 9 10 197 193 178 177 189 188 189 182 172 191 198 201 198 199 192 177 159 128 136 222 174 88 46 34 23 37 63 72 101 128 144 135 183 144 163 163 145 162 148 140 148 176 148 143 174 181 169 164 169 172 143 146 131 146 117 120 101 63 77 47 41 28 37 37 32 38 53 93 114 148 167 178 176 166 217 239 235 227 226 227 220 219 208 204 194 189 92 37 13 12 8 11 194 194 175 174 190 192 189 183 170 193 197 199 201 197 194 188 145 22 147 224 179 121 60 27 30 30 50 62 96 92 89 113 138 151 152 171 121 152 150 123 159 153 132 154 163 140 145 122 152 154 105 109 97 108 104 81 76 81 46 34 29 33 34 34 29 47 90 105 126 161 175 180 177 207 248 236 232 230 229 225 224 222 212 205 195 197 71 25 12 13 13 11 190 193 183 178 191 190 188 182 166 189 198 195 193 196 197 172 38 9 155 225 177 116 73 37 27 28 46 45 57 68 85 87 82 128 122 148 116 130 154 105 144 151 122 151 164 107 141 116 119 132 105 70 95 77 95 77 53 46 38 26 19 28 27 26 24 54 114 109 133 175 183 177 178 246 238 243 232 233 231 229 227 226 220 206 189 193 40 24 13 12 11 11 193 198 179 175 189 189 188 182 168 192 202 196 189 203 182 26 14 18 159 226 160 137 96 70 38 25 41 37 55 63 57 81 87 73 109 123 80 121 132 112 156 122 122 139 128 128 108 92 123 80 118 70 59 70 67 46 31 28 18 41 39 27 28 35 45 102 107 147 162 181 178 191 251 247 239 234 236 232 234 232 232 231 226 203 194 171 22 25 12 14 10 11 195 198 182 175 187 188 190 179 172 193 202 195 198 177 44 17 15 39 159 225 184 137 117 125 66 53 39 23 35 65 67 70 68 79 99 116 89 100 126 117 130 115 144 155 108 101 101 108 94 83 93 72 57 56 41 32 40 17 20 46 37 22 32 44 83 80 152 172 185 185 190 247 252 239 239 237 235 237 237 236 237 236 230 203 192 101 30 20 14 16 9 10 194 195 175 169 178 176 176 176 172 190 197 194 170 26 17 18 18 56 150 215 227 126 120 148 133 68 34 33 35 42 65 50 60 67 74 89 80 66 92 126 96 99 136 137 112 72 104 111 72 72 61 49 58 36 24 21 24 16 34 34 28 33 43 46 89 133 168 176 184 174 247 250 247 244 242 238 240 238 238 239 239 239 232 200 199 45 37 18 15 17 10 12 194 192 188 178 179 180 180 180 182 196 199 128 24 15 14 13 26 65 146 197 230 130 104 142 159 133 99 46 37 36 34 44 40 46 53 87 70 62 93 97 85 98 119 111 93 69 64 86 57 46 46 34 20 23 26 25 26 27 27 18 31 41 73 106 146 181 186 181 195 249 254 247 245 245 244 242 244 241 241 238 239 235 233 218 186 45 32 18 13 13 11 14 196 192 193 198 201 198 198 196 197 189 91 14 19 12 10 16 32 83 143 183 230 201 86 143 167 159 159 72 29 25 41 42 36 26 40 63 55 59 63 72 82 89 80 67 69 59 59 51 28 46 35 30 40 28 25 40 31 45 29 27 59 90 133 136 171 178 170 198 252 250 247 248 246 247 245 246 243 242 240 240 238 237 232 226 159 36 22 15 15 11 13 14 197 193 190 193 197 199 202 195 191 61 13 12 11 13 10 21 25 100 146 162 213 238 156 135 164 174 169 148 108 28 32 33 33 31 33 35 35 30 40 41 47 39 49 56 31 54 44 33 29 33 35 29 64 36 29 33 31 31 37 60 120 151 155 160 162 164 219 249 251 251 249 247 247 248 245 245 245 242 242 240 238 237 235 240 80 34 19 21 13 12 9 13 195 195 198 199 194 199 196 183 55 4 10 10 14 8 10 23 20 113 145 165 195 235 219 133 162 173 181 164 121 97 68 52 39 29 29 38 36 31 34 37 32 33 35 36 48 42 30 33 26 33 25 37 41 32 25 36 63 77 92 124 149 166 185 170 169 227 251 250 251 251 251 249 251 250 247 247 246 243 243 241 239 239 232 207 19 31 16 18 10 15 10 13