P2
# Generated by OpenCV 4.2.0
92 112
255
197 201 80 202 129 58 56 73 85 66 58 55 52 51 56 59 61 66 66 67 70 71 81 96 100 102 112 109 138 83 35 60 82 77 79 72 65 67 60 44 41 46 49 62 59 51 53 47 43 35 28 28 32 26 29 31 31 34 40 46 65 77 72 45 62 57 51 44 108 125 99 117 152 122 76 84 130 82 51 26 33 64 100 137 159 73 54 29 7 18 56 81 191 187 128 152 54 58 61 82 76 75 71 66 61 61 62 68 74 84 85 88 90 89 103 124 130 125 119 106 80 49 86 100 111 99 101 82 67 63 57 57 57 59 58 61 55 54 51 50 48 42 38 39 43 33 36 42 45 39 33 27 22 50 70 76 54 49 48 41 73 92 66 76 105 128 134 87 85 109 98 90 88 90 104 119 129 90 108 49 37 41 76 97 203 189 80 33 33 54 75 81 81 81 75 72 70 72 77 89 100 107 112 114 112 120 124 141 148 138 104 79 83 90 116 95 94 71 61 58 65 78 71 67 72 70 72 76 73 68 66 62 61 51 43 39 38 26 29 32 33 40 35 31 29 30 47 43 77 47 56 37 50 69 53 50 72 86 102 104 96 68 89 85 72 79 102 109 61 62 69 80 79 91 112 74 227 148 5 34 52 43 54 65 76 82 76 77 79 89 99 113 121 129 132 135 131 149 148 161 160 144 94 114 119 76 67 54 65 71 89 90 84 73 68 81 86 93 98 96 94 88 93 79 69 59 54 54 50 42 45 45 43 40 36 31 23 12 43 52 48 54 49 49 44 55 59 44 41 52 63 83 99 78 53 59 58 60 101 72 11 43 64 61 68 109 65 59 123 27 22 35 36 39 40 64 74 83 83 88 92 103 119 135 144 150 153 154 154 155 160 170 170 132 134 86 59 108 111 111 109 82 62 67 76 83 96 119 125 136 136 123 109 94 99 89 89 84 73 64 60 69 66 60 54 51 47 41 38 20 32 69 46 47 42 47 42 48 53 51 46 48 55 51 58 67 43 47 46 50 91 35 46 52 61 64 66 61 50 20 96 49 60 34 4 37 45 61 76 93 101 109 114 125 137 151 160 165 168 169 167 163 172 176 166 149 116 89 110 90 73 69 84 96 110 117 128 137 148 152 160 165 171 166 160 149 130 114 110 104 102 96 99 103 98 87 79 76 67 56 46 28 38 61 61 46 43 46 40 40 45 46 43 42 43 54 49 28 30 35 40 53 90 86 46 73 74 57 36 35 63 59 56 33 15 55 39 29 41 55 73 95 116 126 132 141 151 163 167 173 176 178 177 169 171 177 171 148 108 110 96 99 116 127 135 139 142 154 166 170 175 182 188 186 183 181 185 177 179 157 154 152 141 133 122 112 114 112 108 110 94 81 70 30 49 55 75 59 52 45 37 34 40 52 50 48 48 43 42 32 21 19 29 65 92 103 91 85 82 72 79 73 88 78 89 102 170 151 19 31 38 55 73 110 124 134 141 145 156 165 171 174 182 181 184 175 173 177 172 153 135 130 122 133 139 149 152 164 175 178 184 193 194 198 197 193 195 196 193 191 187 185 180 166 158 150 148 136 135 131 126 125 115 102 87 59 51 47 47 53 61 53 42 37 35 43 48 42 40 43 48 29 25 7 21 46 70 68 76 84 77 86 93 95 110 108 194 42 115 76 12 41 34 53 84 118 131 140 150 153 158 167 171 173 183 182 186 176 173 176 176 169 156 150 148 159 167 178 178 187 192 198 200 203 201 203 203 202 205 206 205 201 202 200 196 183 177 170 166 156 157 153 148 135 121 103 87 74 51 47 36 43 53 54 50 44 39 30 44 53 64 78 63 38 34 35 34 21 50 59 71 83 97 120 127 129 109 110 106 206 140 36 14 31 36 62 101 127 134 142 152 155 161 169 171 167 176 179 182 184 177 180 176 170 162 158 170 180 184 193 191 192 193 197 201 199 196 203 203 205 207 207 206 202 203 203 202 190 190 183 178 175 175 171 167 151 134 110 89 70 38 35 38 39 37 46 48 51 51 42 41 35 39 33 45 59 50 40 25 24 42 36 30 38 39 42 22 8 55 89 99 216 65 9 23 28 44 71 112 130 138 146 156 159 162 168 172 173 181 184 189 189 184 185 180 177 173 171 177 184 187 195 201 200 199 202 204 205 203 206 207 210 210 212 208 204 205 204 204 194 189 182 180 181 179 174 168 160 143 117 97 62 34 34 28 34 38 51 46 48 40 38 41 43 50 53 62 45 23 28 28 45 65 69 76 12 2 9 32 51 78 87 102 85 25 22 15 24 48 84 121 135 137 147 156 158 165 173 178 177 183 188 187 195 197 195 193 193 192 190 187 193 202 207 210 208 209 208 211 211 207 214 213 211 212 215 214 214 210 200 201 195 192 186 186 186 178 173 161 157 144 119 110 53 36 45 42 36 32 34 44 43 42 40 36 31 27 29 25 19 17 19 18 30 60 36 59 107 58 49 65 63 54 51 64 15 52 26 16 25 61 95 127 136 140 146 156 161 174 180 176 168 164 166 176 179 186 195 200 199 197 196 193 197 201 204 206 206 206 208 210 210 206 201 208 213 214 215 217 218 216 207 205 200 195 188 186 188 180 174 161 157 149 128 117 61 44 42 37 34 33 33 36 37 34 25 25 23 23 16 15 16 11 14 11 18 30 47 17 35 60 42 31 28 54 63 125 75 103 17 19 30 75 114 138 139 143 146 156 164 165 160 155 147 142 129 119 132 145 164 181 186 185 184 175 177 179 181 182 186 190 193 198 203 204 200 190 192 198 200 204 206 207 199 204 199 198 192 183 181 176 174 164 164 157 139 123 92 40 60 43 38 34 33 34 34 31 30 27 23 21 12 13 12 14 19 13 12 25 26 38 28 35 35 19 10 4 65 93 86 45 11 27 13 110 141 148 141 141 147 154 159 151 154 165 176 187 198 200 183 159 134 135 149 157 162 166 159 147 141 140 147 155 168 178 193 203 217 210 195 190 187 188 184 189 193 201 197 199 193 182 169 174 181 171 167 159 148 141 114 79 40 40 38 36 29 36 43 42 38 32 27 25 19 9 11 10 12 12 9 9 16 24 29 31 31 34 9 15 2 183 165 70 19 15 36 130 144 147 138 136 140 147 153 157 176 188 186 191 198 196 212 217 215 218 209 198 198 191 197 203 207 213 214 216 214 214 217 219 212 217 221 218 206 200 194 179 179 190 192 187 182 174 157 167 179 174 171 166 157 149 129 112 92 62 59 63 59 56 56 50 40 34 27 27 21 23 19 13 14 13 10 5 5 11 15 24 29 32 21 21 10 198 183 85 19 13 65 143 151 154 142 137 137 149 161 180 188 186 185 182 180 178 181 193 196 201 208 213 215 208 207 205 203 206 206 204 204 207 211 213 217 215 216 216 213 219 219 212 202 194 182 185 180 177 173 180 191 184 180 176 171 163 147 141 135 124 110 97 83 71 63 56 44 38 31 31 30 32 28 21 15 11 10 11 10 10 8 9 15 20 17 9 13 185 194 96 25 34 91 146 156 158 149 140 141 158 177 179 180 178 169 164 157 153 149 157 165 179 178 183 196 192 195 198 201 211 211 210 213 212 208 207 190 188 191 202 203 207 206 212 217 216 200 192 186 185 191 192 195 182 183 182 179 177 162 156 154 140 134 116 93 80 70 64 56 51 44 42 33 34 35 23 16 9 10 13 13 13 10 6 9 10 7 17 15 195 200 79 29 24 124 159 155 149 158 145 146 163 173 178 174 167 160 155 151 151 134 132 138 143 156 164 170 173 171 173 186 187 193 203 205 219 223 225 220 204 179 168 172 184 193 195 200 202 201 200 193 191 201 197 190 183 188 188 184 177 174 165 158 144 133 121 107 88 75 70 66 64 56 50 40 34 28 26 18 16 12 18 18 15 13 13 10 7 7 8 9 199 205 86 26 41 144 151 147 143 161 153 152 165 169 160 156 154 165 164 167 170 170 156 147 130 122 123 128 134 143 144 146 149 149 157 184 201 211 220 221 224 223 202 187 173 169 179 179 181 183 188 190 191 197 191 186 188 191 188 183 180 179 172 166 156 144 132 118 105 92 81 72 71 65 58 46 37 28 25 17 20 19 21 17 16 17 23 22 21 21 20 25 198 200 78 27 66 151 149 151 149 161 155 156 163 161 158 173 189 196 196 198 202 207 206 204 193 189 191 199 207 218 217 218 217 206 189 168 171 177 195 204 207 210 215 218 214 208 189 185 182 184 190 194 197 183 188 194 199 193 190 184 180 181 175 169 170 157 141 124 113 104 93 81 76 66 57 52 44 35 29 23 28 30 26 18 15 17 17 19 20 24 25 27 192 200 58 17 90 148 156 156 160 174 159 154 165 173 197 199 197 191 193 195 198 201 206 207 206 199 201 205 204 207 202 207 214 216 217 221 220 204 186 175 192 195 198 202 203 203 207 202 199 197 197 194 194 196 198 199 200 194 189 184 185 183 183 177 168 159 148 135 118 99 91 90 83 68 49 47 46 41 33 29 26 24 21 19 12 17 23 24 26 25 27 24 196 206 70 19 107 147 156 166 174 174 152 160 182 191 195 195 193 190 189 192 195 196 198 196 193 185 188 195 194 198 196 202 210 213 215 220 223 226 225 215 187 179 187 191 198 205 199 204 207 210 204 201 200 198 198 197 200 195 191 188 190 186 186 179 168 159 149 133 118 110 89 72 72 68 59 42 33 32 26 23 18 13 15 20 20 23 24 21 26 32 25 28 194 201 75 30 130 143 157 159 161 169 165 173 189 189 196 194 190 190 186 185 191 193 190 182 179 174 180 189 188 188 186 195 200 205 211 218 217 219 225 218 220 207 190 190 198 204 212 208 207 205 208 205 203 201 199 200 199 199 194 191 195 191 188 182 172 158 150 137 111 96 86 77 68 60 49 44 34 33 28 24 22 20 27 26 16 19 25 24 31 35 33 16 198 198 73 41 142 140 159 162 169 176 166 170 187 192 198 196 189 190 183 181 188 192 185 174 167 162 173 184 178 173 168 174 192 196 201 207 211 214 215 207 209 208 205 205 202 201 212 209 205 204 204 202 200 202 200 199 198 199 198 197 201 195 192 183 176 158 150 142 113 96 82 74 64 60 53 49 42 35 24 25 27 31 26 27 21 25 30 28 38 30 38 28 195 203 112 24 155 145 155 167 171 166 160 170 188 196 204 205 202 195 181 174 184 187 186 175 166 165 170 175 168 164 158 167 178 195 202 204 208 204 203 207 208 211 214 209 212 213 209 208 206 202 203 203 203 202 203 201 199 200 194 197 194 195 190 181 165 143 128 119 102 91 90 77 66 62 55 49 42 39 28 30 32 29 24 29 34 37 36 37 37 39 40 41 196 196 146 5 157 153 162 166 169 167 165 167 187 200 207 206 203 192 179 172 179 177 172 171 169 163 169 174 175 176 172 179 178 187 200 214 209 196 198 206 209 214 217 210 211 208 212 211 209 208 205 205 205 201 200 198 199 196 195 198 191 191 187 176 174 159 150 140 117 96 88 77 65 58 51 52 45 39 29 25 26 25 30 32 37 36 34 34 36 46 42 45 198 187 160 15 157 149 161 167 168 170 166 169 184 190 196 200 199 192 183 174 177 177 175 174 173 165 171 175 178 181 176 180 177 181 196 208 210 203 205 206 211 215 217 211 211 210 208 209 208 207 208 208 208 204 202 202 201 198 199 199 192 194 189 178 172 156 139 124 113 112 105 80 68 60 52 49 43 39 32 25 19 24 26 26 27 28 27 28 29 31 35 32 197 188 196 52 175 165 169 167 165 170 175 181 184 178 180 186 193 191 183 179 179 180 184 181 177 170 173 176 179 178 171 175 173 173 189 201 210 218 216 209 211 215 217 212 214 212 207 207 208 207 208 209 210 207 206 205 203 199 199 196 198 198 192 182 175 165 151 136 119 108 98 86 73 65 57 52 48 42 35 29 24 24 21 23 25 24 22 23 23 29 37 35 197 191 198 88 187 175 167 174 173 172 184 175 159 143 159 166 182 186 181 184 181 182 187 188 184 176 175 174 176 173 166 173 176 165 155 171 196 225 220 223 215 214 215 217 212 210 211 212 212 211 210 209 210 207 206 202 201 197 198 198 196 192 188 184 179 172 158 149 139 128 112 91 74 68 63 60 52 38 32 28 26 21 23 24 27 27 27 25 26 22 26 21 196 191 197 151 182 170 174 185 182 170 134 123 115 99 128 134 164 180 180 184 179 178 186 187 186 180 178 170 169 167 160 162 155 151 129 138 165 206 233 222 218 217 215 215 212 209 214 214 214 214 216 214 212 208 208 204 202 196 194 195 187 183 183 183 176 172 164 158 148 139 124 116 84 64 56 51 48 41 32 31 26 23 21 22 21 20 21 21 25 25 24 16 196 193 200 169 155 145 153 155 130 101 100 96 106 85 101 108 146 170 173 178 172 167 177 181 181 178 174 163 159 157 149 149 128 129 113 135 107 107 164 196 218 224 220 219 216 214 216 216 216 217 221 217 213 215 213 209 208 201 197 193 188 188 188 187 179 179 175 173 163 151 133 122 97 76 62 57 50 38 33 31 27 24 22 23 20 20 24 27 31 24 23 13 197 196 174 137 119 118 112 87 76 78 79 78 85 94 92 111 130 153 170 173 170 170 169 172 179 178 168 161 149 143 133 136 119 120 109 85 58 101 130 140 179 204 217 220 216 218 214 218 220 218 226 219 221 218 217 214 212 202 200 196 192 192 192 198 194 194 190 187 173 162 149 129 116 98 79 64 52 46 41 34 26 23 23 21 19 23 31 34 27 16 15 18 195 196 167 116 90 72 59 48 52 65 68 73 77 75 96 116 124 137 154 159 155 162 165 170 176 174 164 155 138 132 120 123 106 108 100 95 82 64 56 67 105 143 174 198 213 215 212 215 209 208 215 220 222 219 218 216 215 211 207 204 196 192 188 188 189 188 188 188 181 173 165 152 137 122 106 73 57 46 37 31 26 23 24 24 23 20 23 30 29 24 23 22 197 191 142 68 53 48 39 42 42 49 48 55 61 64 88 113 125 129 143 150 149 148 153 161 170 166 157 149 135 126 113 115 107 109 103 95 93 74 61 63 67 85 120 151 168 169 182 192 186 195 200 211 218 216 215 215 214 215 211 206 203 200 196 189 182 179 185 190 183 181 178 172 158 145 128 98 73 50 36 33 29 24 24 20 20 23 30 32 25 22 20 16 197 191 135 61 52 49 39 37 41 49 54 57 69 80 86 100 107 112 129 137 134 138 145 156 164 163 153 145 138 128 114 116 115 120 113 114 102 96 84 53 45 57 79 102 125 138 147 166 168 187 202 197 200 211 212 212 213 212 209 204 204 206 203 197 189 189 196 199 188 189 188 187 175 160 143 120 87 57 37 38 34 29 19 19 18 13 15 21 21 25 22 16 191 184 152 36 37 45 47 49 55 62 65 72 73 80 85 89 90 104 119 126 129 129 139 151 158 155 149 141 133 123 117 119 120 117 112 112 106 105 97 95 72 56 55 61 68 85 112 117 126 131 141 156 173 187 197 199 206 208 210 205 198 198 192 195 196 198 194 193 194 200 197 192 181 169 152 127 102 79 52 37 33 32 22 22 16 12 13 13 17 13 18 27 199 191 173 53 51 60 53 50 46 40 24 30 31 40 60 72 80 88 103 114 120 123 135 146 151 149 143 134 131 125 118 116 121 117 110 106 97 97 97 101 97 92 77 67 66 73 70 83 98 107 118 134 151 147 159 172 189 199 205 206 199 195 187 195 200 198 191 188 194 196 196 190 186 181 165 145 114 89 73 46 28 27 21 22 21 18 15 11 8 23 23 20 195 188 184 72 71 71 39 16 17 11 8 11 16 29 35 41 56 72 87 96 102 110 131 146 150 148 141 133 125 122 115 111 109 105 97 92 81 72 59 56 65 77 85 84 81 70 63 66 70 75 84 100 117 134 150 163 172 185 194 198 199 201 197 199 196 195 191 188 190 189 190 189 192 193 179 167 133 101 84 56 32 25 22 24 23 21 19 14 12 4 9 19 197 194 202 127 68 57 16 12 35 10 8 10 9 1 30 46 35 37 60 79 92 99 127 147 157 150 144 128 119 110 107 101 96 87 76 63 52 36 21 34 31 32 37 44 73 84 88 74 70 70 80 75 92 123 125 139 150 163 175 184 192 197 193 196 195 195 188 186 191 191 192 191 189 194 190 176 152 111 94 66 37 35 32 33 27 25 27 29 21 8 8 14 197 193 200 156 46 38 18 17 25 9 20 12 58 55 34 43 46 37 45 53 71 87 130 157 170 160 150 129 112 101 95 87 78 68 58 50 49 40 32 36 22 13 7 7 6 26 47 67 84 85 85 87 92 103 106 121 134 151 165 175 187 197 196 197 196 197 192 191 193 194 194 187 188 194 192 180 154 115 92 71 40 27 31 36 39 34 24 30 26 25 15 20 198 193 197 183 56 47 16 19 24 24 21 19 19 41 94 94 55 56 60 53 53 72 141 167 179 172 160 134 112 96 84 73 72 62 57 64 62 47 29 31 16 13 11 52 43 10 9 25 39 58 85 96 96 103 105 118 130 140 155 166 181 194 196 196 193 197 198 196 196 195 195 192 191 196 189 182 159 126 82 65 43 33 38 38 36 32 25 29 30 25 23 34 199 193 197 193 66 68 35 43 37 28 18 18 44 119 125 142 110 44 73 78 59 65 155 170 177 176 168 142 118 99 83 70 74 65 68 71 73 60 38 55 30 18 10 42 47 24 38 46 28 19 31 72 97 113 110 121 131 137 153 167 179 194 198 196 189 194 199 198 198 197 198 200 197 196 188 180 161 134 91 68 37 25 26 32 37 40 38 39 41 25 28 29 195 196 195 202 79 84 63 58 60 54 61 56 67 94 85 89 70 44 48 84 95 88 168 181 192 183 170 147 124 116 96 85 82 98 101 90 64 38 45 79 44 21 16 28 17 50 99 93 41 30 12 12 40 83 102 112 125 127 145 156 163 179 190 192 192 196 198 197 199 198 198 203 203 199 197 173 163 142 112 74 49 30 25 31 36 35 40 33 32 42 21 48 194 195 195 206 95 102 87 81 78 77 70 76 83 97 96 87 83 72 73 83 89 126 190 196 199 191 179 157 145 133 120 104 119 136 119 115 85 61 69 62 64 75 72 74 88 83 68 66 64 62 58 37 22 24 71 103 107 127 135 138 144 163 180 193 194 197 199 199 203 202 202 200 199 196 193 178 161 148 108 74 57 39 31 28 32 34 31 30 42 42 108 182 196 196 195 204 105 115 107 95 93 92 102 104 99 103 98 97 101 102 114 110 113 162 197 199 203 196 186 166 152 142 141 125 110 135 140 135 121 114 102 110 100 98 108 96 111 117 123 126 129 131 124 116 100 80 50 71 98 103 128 149 159 168 176 183 193 197 199 199 204 204 204 200 201 198 195 192 170 142 144 107 73 46 49 35 39 46 60 38 59 147 190 195 196 194 194 202 125 128 113 99 91 96 99 112 113 113 105 100 102 97 107 93 134 181 199 200 207 202 189 176 161 157 158 149 130 119 127 113 111 104 112 113 121 123 135 133 141 147 142 146 144 144 145 148 148 134 118 103 92 111 127 145 160 175 178 190 198 200 205 205 202 204 204 202 206 204 201 196 174 142 130 102 95 78 55 44 39 51 62 88 154 173 186 188 195 195 195 201 137 137 125 112 96 95 87 99 102 108 103 106 110 111 107 104 167 186 201 202 208 203 189 178 169 167 169 161 150 133 126 128 114 108 103 116 123 127 136 137 138 140 146 149 150 149 159 167 172 175 167 163 153 142 154 164 173 175 185 190 197 200 206 206 205 205 205 204 207 207 204 196 178 151 125 110 103 71 63 64 53 67 90 125 166 189 170 172 196 196 195 198 141 146 132 120 104 101 102 110 115 123 130 126 123 124 108 128 188 197 207 208 215 208 194 183 180 179 181 174 171 159 143 140 127 130 130 113 115 113 119 123 133 141 146 150 152 153 166 171 172 172 173 182 180 181 182 187 188 180 192 192 198 200 205 207 208 207 207 205 208 207 206 201 186 166 149 105 110 78 71 77 60 67 99 139 158 169 159 128 194 195 194 188 139 146 133 127 121 123 120 124 126 137 128 126 123 126 119 157 188 205 212 214 220 210 196 186 184 184 188 181 176 174 171 153 145 131 134 134 134 131 132 131 131 135 136 141 145 145 149 163 171 179 180 191 188 195 194 192 189 192 190 194 197 200 207 208 210 210 210 205 207 208 206 202 188 174 165 131 97 68 68 82 86 108 141 166 166 160 126 58 196 195 194 187 143 146 142 131 130 133 131 125 117 124 125 122 128 133 130 173 207 211 211 220 223 208 198 193 189 191 189 185 182 181 180 175 169 150 129 133 141 152 161 158 167 171 173 169 167 170 171 173 181 179 184 190 195 198 201 199 201 200 197 193 202 203 206 206 204 207 210 207 207 208 212 208 202 189 168 145 115 68 55 93 137 160 160 161 158 149 105 102 194 195 195 179 141 147 142 130 126 126 121 113 106 115 120 130 142 130 142 183 205 211 214 221 224 209 201 197 195 196 195 192 193 191 191 188 188 179 167 163 154 143 152 156 168 176 180 186 189 187 195 201 198 193 194 195 196 199 199 199 203 206 207 208 205 207 208 206 204 206 209 205 204 205 209 206 202 191 175 151 128 89 36 114 179 169 168 152 154 146 182 212 195 196 196 171 143 154 149 136 126 121 123 115 112 127 139 147 141 127 159 197 207 213 219 225 224 211 205 205 203 203 204 199 192 191 191 188 192 191 184 185 178 170 170 161 161 162 172 185 196 202 200 202 202 204 204 205 206 201 199 200 201 201 205 207 208 206 205 203 203 205 208 205 204 205 208 203 204 196 180 161 147 101 19 145 179 166 159 143 142 62 101 152 194 197 196 166 147 159 154 147 135 128 132 125 128 142 136 147 134 139 179 212 216 215 222 226 223 210 206 206 208 208 207 202 192 191 190 193 197 198 194 196 189 182 186 185 188 191 188 189 196 203 204 204 208 206 207 210 212 202 197 199 203 202 204 203 206 205 201 200 202 205 207 208 206 207 208 203 203 197 183 167 158 98 53 189 185 181 159 144 107 57 58 73 197 196 198 153 153 159 156 154 147 141 137 139 137 137 134 146 129 164 194 212 219 217 227 226 216 204 206 211 212 212 207 203 194 193 192 195 196 197 195 196 194 189 188 191 193 196 194 195 201 204 206 206 206 202 201 203 207 203 199 201 200 200 200 196 204 202 204 203 201 202 202 205 206 206 202 203 200 195 195 185 162 120 122 199 199 193 192 157 68 78 86 89 197 196 199 145 151 157 153 158 155 152 147 146 145 145 139 136 146 186 208 217 220 222 228 224 212 204 207 208 210 210 207 202 198 195 193 194 195 195 195 201 196 194 195 195 197 197 199 199 200 201 202 205 206 202 200 200 201 206 204 203 203 204 201 199 203 203 203 202 198 199 201 200 202 200 198 199 198 194 195 197 157 145 172 207 203 202 221 165 58 83 93 98 198 196 199 143 144 153 153 156 154 155 152 151 148 146 142 137 171 193 210 216 221 225 226 221 212 205 204 197 198 199 200 197 197 199 201 199 198 199 198 199 196 197 197 198 197 195 201 199 197 196 198 202 205 208 206 203 204 204 206 203 201 198 196 198 197 199 198 198 197 198 199 194 198 196 194 194 196 193 191 192 157 153 189 207 209 213 213 223 93 95 103 108 197 194 204 143 142 146 148 151 154 155 154 154 148 143 140 150 175 192 206 216 222 225 226 217 208 197 193 193 189 189 195 189 191 195 202 202 201 200 196 197 201 197 200 200 201 201 199 197 198 200 198 196 196 201 202 205 207 202 199 197 199 194 194 193 189 194 197 196 196 195 194 196 188 188 192 194 193 187 191 185 174 160 191 207 208 212 221 229 161 113 115 119 197 195 204 136 139 143 145 147 149 152 157 156 151 148 144 154 179 192 206 213 220 223 222 214 206 196 194 188 182 175 178 176 181 191 196 197 198 195 191 193 198 199 203 203 203 203 201 197 197 197 195 195 193 189 192 199 204 198 195 193 188 182 186 187 190 192 191 191 194 192 192 196 190 189 193 188 185 185 192 185 173 160 192 206 209 207 209 222 175 128 133 136 197 195 203 145 133 134 143 149 152 154 159 157 153 149 146 157 179 191 205 213 219 224 223 217 205 196 197 194 191 186 185 178 169 178 188 194 197 198 197 193 198 199 205 205 205 205 203 199 195 195 193 190 187 179 181 188 190 195 192 190 186 181 184 185 187 188 187 187 187 188 186 191 184 184 189 186 185 180 180 174 161 146 195 207 206 195 201 214 193 139 148 152 195 195 202 160 130 128 143 146 148 149 157 157 151 147 142 156 178 189 204 212 218 222 221 213 205 206 215 214 210 213 208 190 180 164 165 183 189 195 198 199 195 196 204 207 207 208 205 199 196 194 191 187 184 176 178 180 181 185 182 180 184 178 180 178 181 185 188 188 187 186 184 186 180 179 184 177 180 167 173 169 157 141 202 208 204 187 200 213 194 149 160 163 196 196 196 169 121 122 138 145 149 153 156 154 150 147 146 157 170 186 200 208 215 220 214 211 207 215 220 217 216 216 212 210 196 172 154 174 187 193 199 196 197 197 202 206 213 204 200 197 196 187 186 180 179 173 175 175 174 179 178 177 179 181 178 175 181 183 184 183 181 180 180 178 178 181 180 178 180 166 165 160 157 151 198 200 188 184 191 195 159 147 167 174 195 196 196 184 112 121 132 141 146 149 155 152 147 145 145 153 168 179 193 199 204 209 207 206 205 214 219 220 218 218 217 215 211 188 163 157 167 174 185 192 195 196 201 197 200 200 203 199 199 189 181 175 174 174 174 173 173 174 175 175 178 179 180 177 178 178 181 180 180 180 180 180 182 186 188 166 150 151 160 159 152 157 190 197 180 173 169 165 166 174 195 201 197 197 196 203 106 126 132 142 147 150 153 150 145 143 141 147 158 166 178 185 188 190 192 194 195 203 207 212 216 216 215 215 206 184 162 155 164 171 186 189 192 196 200 199 202 200 200 197 196 188 185 180 178 171 172 173 173 174 175 178 177 178 180 179 173 174 176 177 179 179 178 179 179 181 182 165 163 155 170 150 156 164 187 191 177 173 180 183 163 203 222 232 197 197 197 204 111 125 129 141 148 151 150 147 145 144 131 134 151 154 165 165 164 171 170 172 177 179 189 183 178 182 192 201 196 177 149 141 148 157 173 173 184 196 195 195 199 202 200 197 191 187 187 184 185 175 175 175 174 175 177 178 177 177 178 176 175 173 174 176 179 176 172 176 176 165 158 158 165 153 173 133 165 174 190 187 183 188 176 178 200 221 223 230 197 197 196 209 125 127 131 137 145 148 150 149 144 141 127 115 128 135 144 140 140 136 141 147 152 142 134 131 133 145 158 164 178 163 139 142 140 141 155 167 179 190 190 189 193 194 196 193 189 187 183 182 181 177 175 174 173 174 170 167 173 176 176 176 175 174 179 180 182 179 174 168 169 164 154 155 166 165 147 145 146 181 192 190 186 205 222 222 219 217 210 216 196 196 196 202 139 121 128 136 143 148 149 146 142 140 113 90 104 118 125 122 126 125 120 107 82 44 26 23 30 63 106 127 138 131 134 142 142 143 156 165 178 187 190 190 190 191 191 190 188 185 182 180 180 177 176 171 171 166 171 176 175 173 174 174 171 172 173 173 180 175 169 161 166 171 156 142 159 165 147 157 141 167 187 186 183 197 216 225 216 208 195 201 197 196 198 201 147 118 129 138 145 149 148 146 143 138 128 94 89 96 103 105 116 121 95 34 28 33 45 46 44 52 72 86 99 108 137 155 157 145 140 155 167 178 184 187 184 185 188 187 186 185 184 182 182 177 175 170 168 166 171 175 173 173 173 174 177 178 172 166 176 167 159 148 154 168 153 122 147 149 133 166 141 179 187 187 185 196 204 212 214 211 207 214 197 197 197 189 185 112 133 137 139 144 148 144 139 137 133 120 90 87 86 90 98 82 27 48 72 78 96 95 98 95 91 89 113 151 167 175 174 167 145 149 158 173 183 187 187 185 185 186 187 187 184 183 182 178 178 177 179 175 170 167 168 175 173 172 171 173 167 175 153 159 161 160 161 164 137 116 134 158 126 167 150 194 194 191 205 208 209 209 211 218 216 224 196 196 196 196 190 125 125 128 138 146 144 143 141 140 133 122 89 69 70 76 85 94 76 86 91 99 115 115 118 123 128 133 166 180 184 179 182 178 161 147 151 167 179 183 185 183 189 189 191 191 186 183 184 179 181 181 183 183 178 177 171 177 174 177 172 172 166 164 145 153 164 164 158 161 139 126 146 170 138 149 159 186 177 181 211 223 223 222 223 223 224 227 197 198 197 193 180 134 128 124 136 144 142 142 142 141 137 121 95 53 51 58 68 70 68 76 90 107 125 127 146 154 169 176 174 173 175 181 185 188 175 157 156 166 176 179 183 182 188 187 188 190 188 185 185 184 183 181 178 183 177 176 176 178 170 173 171 169 163 154 140 149 164 160 157 158 132 132 138 148 141 146 172 192 172 178 211 224 222 221 220 224 224 226 197 197 196 192 169 137 133 127 134 139 143 141 141 143 123 88 64 40 41 44 53 61 64 75 97 99 107 100 115 131 143 157 172 171 177 189 195 197 187 173 163 164 172 176 181 183 184 185 188 189 188 188 187 194 190 185 181 179 174 174 175 174 170 165 167 154 157 144 133 144 152 164 162 163 140 121 131 148 154 155 155 189 167 152 190 212 219 221 219 222 221 224 197 196 196 191 174 136 133 135 136 140 142 144 148 151 108 58 48 45 47 50 64 72 79 71 78 88 74 102 91 94 143 148 156 175 191 196 200 199 192 187 172 166 170 173 180 183 186 188 191 192 191 191 190 190 189 185 183 179 175 176 179 174 174 168 168 151 148 138 120 161 167 174 155 147 139 157 136 156 152 162 152 165 139 101 154 194 205 210 212 214 213 206 197 197 197 187 184 124 134 136 138 142 139 145 145 132 80 41 39 40 46 52 68 85 83 62 65 81 74 93 69 94 109 115 150 169 181 198 200 203 202 195 185 174 172 175 180 184 189 190 192 195 191 191 192 192 191 189 188 178 174 177 176 166 165 164 168 160 144 128 138 167 168 164 151 135 110 157 153 144 135 145 169 169 127 93 123 159 181 191 196 193 195 201 196 196 197 195 189 101 146 132 135 138 136 140 123 91 43 48 51 54 61 71 88 94 77 47 61 74 92 94 77 108 69 114 159 167 180 182 183 189 193 197 189 181 176 176 181 185 187 189 191 193 194 194 194 188 187 187 186 176 175 179 176 170 172 163 173 169 162 122 153 160 159 168 157 147 125 163 152 146 135 114 147 149 109 119 122 121 136 152 160 164 147 80 197 197 196 193 185 125 135 135 135 132 134 124 106 59 42 52 55 65 83 97 117 92 57 59 61 85 95 83 90 97 107 96 115 155 163 173 172 171 188 180 200 184 180 179 182 191 188 188 191 194 191 192 187 180 181 183 182 183 165 178 175 172 173 170 157 161 165 149 142 158 176 173 159 150 152 147 144 123 126 135 148 133 111 129 146 160 151 130 130 61 28 16 197 197 196 194 181 112 133 136 131 120 115 109 89 53 50 58 74 91 128 144 138 131 119 121 116 129 126 123 132 118 116 118 107 126 139 156 142 148 163 156 182 179 185 188 181 187 192 193 193 192 192 195 193 189 187 184 182 183 172 179 176 173 171 161 150 155 160 150 141 135 176 158 154 154 160 164 142 127 122 131 131 132 117 138 152 158 170 195 166 4 36 48 197 196 197 198 187 124 123 128 124 109 91 89 74 56 58 72 90 106 144 169 171 173 163 161 154 121 128 144 155 144 140 134 124 144 140 135 120 117 144 139 163 165 167 181 182 182 189 193 192 189 190 195 194 189 188 186 184 182 167 174 158 157 162 154 149 155 165 158 151 137 160 145 144 145 148 140 121 99 113 130 130 112 127 150 160 172 180 195 198 12 60 49 196 196 197 195 190 142 116 131 114 85 79 83 71 66 80 82 78 86 100 111 132 149 130 119 121 117 108 106 111 135 150 138 136 141 129 140 125 91 120 120 153 166 155 168 184 178 181 189 191 187 186 191 192 184 184 185 185 180 160 169 167 166 164 149 146 154 165 160 154 139 160 131 128 124 121 128 119 118 124 120 134 124 134 156 167 173 188 199 223 46 54 75 195 197 196 192 201 141 93 123 89 73 77 73 67 73 76 77 82 88 95 89 111 120 118 117 117 116 113 109 101 107 105 107 136 144 139 133 116 100 101 112 134 149 156 169 186 186 186 185 186 186 189 187 188 192 185 178 176 171 150 159 168 166 155 141 145 173 159 159 151 151 156 137 118 124 143 112 105 105 120 134 138 133 153 165 166 171 190 198 222 18 58 89 196 196 196 203 181 77 94 136 74 66 69 68 65 73 72 72 78 81 80 75 91 96 94 95 96 100 98 93 92 95 88 84 108 130 140 132 111 103 90 98 127 140 151 160 177 189 181 181 183 182 186 190 186 185 180 171 169 165 151 154 159 158 156 155 129 169 131 150 162 156 154 139 139 120 106 106 106 116 134 129 131 153 164 168 171 175 193 200 218 10 85 88 196 197 196 185 121 62 60 116 73 76 60 60 56 63 59 57 58 68 63 65 79 80 75 71 67 66 64 65 59 66 66 67 74 88 111 123 111 90 86 96 125 131 142 146 162 183 178 179 179 178 180 188 178 169 165 162 164 161 164 157 157 153 150 149 143 163 143 144 174 167 148 138 138 136 105 112 121 132 127 129 140 165 174 174 184 184 199 204 212 5 71 73 204 195 195 126 78 61 63 100 84 66 59 56 58 49 46 42 38 28 13 17 44 57 50 54 48 65 59 73 59 57 58 47 43 60 80 80 97 89 79 86 109 116 122 139 147 170 166 177 178 170 179 176 168 170 147 168 157 136 142 149 146 150 161 139 123 122 147 117 147 147 142 134 143 126 114 112 115 109 129 140 140 173 178 181 189 193 204 194 197 18 79 81 203 193 136 86 50 41 53 96 87 67 63 59 58 49 38 25 19 10 7 6 7 42 43 42 45 73 76 73 46 29 37 20 15 24 36 53 65 75 91 97 97 101 115 120 107 102 170 178 184 180 175 170 171 164 125 150 154 142 127 159 130 136 142 135 132 139 134 127 144 145 144 115 115 111 123 112 125 108 99 126 161 168 184 187 192 193 200 201 176 21 85 93 197 141 79 49 31 30 46 71 77 51 65 62 61 54 25 24 33 31 30 17 18 10 12 11 15 14 15 18 18 16 27 21 24 22 20 16 15 19 38 104 87 94 100 105 131 138 157 170 178 176 174 163 156 175 130 134 135 142 110 149 132 134 125 119 115 126 131 131 121 148 135 121 130 123 124 135 139 118 128 142 168 179 186 189 193 195 197 206 149 44 92 97 207 89 36 30 21 23 44 77 98 57 74 71 75 68 64 70 77 74 70 50 59 58 51 53 69 69 79 78 112 127 118 118 102 92 79 78 67 65 82 100 88 101 95 94 138 144 154 168 174 169 156 165 140 167 150 142 140 139 119 96 116 130 129 127 117 110 135 109 107 116 117 123 139 143 155 144 125 109 134 154 160 185 181 183 186 199 197 204 138 32 78 94 188 95 35 22 15 26 41 64 95 61 68 79 90 94 87 90 85 109 116 119 104 111 112 120 116 124 141 137 162 161 160 161 144 131 123 127 121 133 124 120 111 94 101 104 131 144 166 177 175 173 167 158 144 148 144 136 138 136 117 116 128 142 128 149 98 108 137 125 112 104 100 108 131 132 141 106 103 106 134 147 164 178 181 184 186 191 210 227 84 43 62 94 84 59 29 22 21 33 46 60 74 68 77 93 107 109 99 103 98 101 130 135 132 149 143 143 147 148 154 171 170 167 157 154 151 153 160 166 160 159 151 144 124 106 111 111 124 136 156 165 161 161 167 158 144 144 125 128 124 130 117 120 107 131 143 126 113 85 136 133 119 105 92 100 114 123 116 111 108 103 131 142 159 176 184 189 192 196 205 221 49 61 66 57 52 46 16 22 22 32 41 56 63 76 87 106 118 115 102 106 100 125 132 136 141 142 139 143 144 150 155 149 145 147 148 150 152 160 171 166 167 164 161 158 148 133 121 124 130 133 151 159 152 147 152 149 140 128 123 117 115 135 139 129 113 91 123 147 135 79 96 94 100 104 102 104 106 109 97 94 99 106 128 143 167 178 182 189 193 200 199 207 12 50 70 79 22 42 31 18 35 29 40 41 51 75 102 111 118 112 102 102 102 113 120 136 140 135 137 139 144 145 146 140 155 152 151 151 149 157 168 169 169 165 158 163 158 145 129 139 143 136 153 158 148 136 137 130 141 127 115 93 110 135 141 132 134 138 97 100 104 93 80 82 101 90 81 96 90 78 90 101 102 121 141 146 159 180 181 191 197 203 199 173 1 52 68 82 21 46 67 20 35 23 28 24 38 73 106 120 116 118 100 90 94 98 107 121 128 129 131 131 134 136 143 150 148 146 145 148 150 156 164 162 167 167 163 168 157 150 143 151 150 143 147 145 143 135 132 122 111 122 115 81 112 112 112 148 118 127 120 90 109 117 98 89 88 77 78 91 88 107 112 96 118 117 153 151 166 169 186 194 200 200 205 115 1 30 63 84 27 35 47 40 28 23 19 20 28 69 100 122 114 117 103 86 84 88 97 105 109 116 118 118 122 121 121 129 141 139 142 145 153 155 160 166 168 173 175 173 164 163 161 161 152 149 142 130 126 129 121 108 104 103 119 91 106 100 84 130 104 102 77 83 75 96 91 100 88 76 78 86 92 111 107 90 109 110 144 151 178 188 188 196 200 196 208 71 3 54 64 77 29 31 52 47 18 24 17 19 16 52 109 120 123 111 113 94 83 71 75 76 74 79 82 82 88 87 93 104 134 131 135 139 150 154 160 165 165 168 171 170 171 169 166 160 144 145 137 126 120 126 127 114 114 92 94 93 105 97 95 79 69 89 86 74 87 63 61 70 70 75 80 80 102 94 96 98 99 108 140 151 141 154 189 194 195 198 193 34 16 42 73 67 18 26 54 62 29 14 23 7 22 35 102 124 124 114 116 108 86 73 71 65 57 61 62 64 67 73 82 87 104 120 133 145 149 155 162 166 166 165 165 162 169 175 170 155 157 150 137 130 127 117 117 97 115 106 103 93 95 88 78 69 50 63 77 80 73 60 61 57 57 73 79 84 89 83 79 80 109 130 142 154 164 174 187 194 201 199 180 10 25 51 75 72 21 32 51 76 36 14 7 5 19 30 73 104 121 121 119 113 97 82 75 67 58 56 58 58 58 65 79 88 100 116 132 150 155 159 163 162 162 164 165 167 173 176 174 154 160 145 117 117 103 77 88 126 104 102 98 75 65 75 68 50 46 41 45 63 64 60 56 72 71 73 69 61 79 84 83 111 133 147 160 169 172 180 187 194 199 206 137 4 35 31 71 72 53 51 60 79 31 12 3 7 20 25 46 89 120 129 127 126 114 98 93 80 68 66 65 62 61 68 88 101 110 123 141 161 162 163 163 164 167 171 175 183 172 157 140 131 138 126 130 118 109 97 87 75 99 96 93 75 68 59 65 66 80 60 56 54 65 59 61 70 52 61 62 71 66 76 102 124 143 155 164 171 171 177 185 192 198 201 80 21 36 46 82 79 106 75 46 73 23 13 5 6 16 17 31 76 114 123 133 135 125 113 105 94 77 80 77 76 79 91 115 131 126 136 150 168 167 167 165 168 172 180 185 179 169 151 142 148 138 116 126 111 98 86 101 58 57 71 72 65 67 68 58 54 70 62 67 52 55 44 54 56 58 63 64 63 95 114 119 127 147 159 165 172 174 180 184 190 196 190 41 55 51 26 63 72 143 77 55 47 24 13 4 7 15 21 15 60 111 123 139 144 132 131 121 114 97 117 107 103 101 111 141 158 169 172 175 177 175 179 180 181 181 190 190 179 177 158 130 118 138 132 116 100 85 83 71 63 74 68 70 67 78 69 71 66 62 60 58 50 41 44 45 42 50 49 65 85 108 116 108 141 152 159 170 173 176 179 184 180 182 141 31 87 59 43 62 72 137 91 28 24 26 12 4 7 14 17 17 50 105 127 144 152 145 139 128 124 116 135 129 135 135 143 167 180 175 180 187 191 189 188 191 194 192 195 190 180 163 134 127 94 131 125 114 109 102 97 97 82 74 87 78 59 57 68 75 72 58 52 50 44 29 37 36 30 51 65 87 102 111 110 116 152 159 162 171 173 177 179 186 173 169 63 64 80 57 35 59 68 108 100 46 18 23 9 6 11 17 17 13 26 84 127 143 152 147 141 137 139 130 141 141 155 154 156 173 184 186 189 193 196 193 190 195 197 191 189 181 170 136 105 99 64 83 122 92 73 69 82 89 96 81 56 63 58 59 50 54 58 47 36 35 33 23 29 35 41 65 57 71 100 113 119 146 155 162 163 171 173 176 181 173 168 108 25 68 64 65 30 59 59 80 62 39 15 16 25 7 12 29 29 11 28 77 114 127 141 150 139 136 138 134 131 143 130 146 153 162 178 181 192 184 197 193 191 176 204 203 166 179 157 123 95 136 102 95 93 97 80 66 71 77 73 74 63 57 47 40 43 38 35 26 26 29 31 32 37 43 51 58 63 94 104 130 139 147 155 165 170 167 171 175 172 156 154 35 41 81 60 62 29 66 72 42 61 45 19 21 32 6 13 12 15 20 23 52 85 110 135 136 129 126 144 129 135 136 129 140 129 141 161 178 187 188 202 195 191 179 185 176 159 144 127 119 86 96 84 76 55 65 47 43 52 51 55 52 50 46 39 35 27 24 24 22 23 23 23 27 38 49 65 80 72 103 119 132 139 151 157 163 164 162 173 165 165 155 87 44 52 71 72 47 17 54 68 12 38 49 16 20 41 9 15 11 18 29 24 32 65 89 115 126 114 109 133 120 123 122 113 122 111 134 151 154 173 186 190 177 164 148 163 146 118 134 111 97 89 86 76 61 40 44 39 35 46 53 49 38 35 35 32 32 24 21 21 23 22 26 27 38 51 65 80 75 79 117 124 137 142 153 159 164 164 166 168 159 149 117 30 63 63 63 72 38 20 50 59 19 33 36 14 16 42 10 9 13 23 22 18 21 60 80 78 88 91 93 101 102 108 112 98 101 94 126 135 147 161 156 134 126 154 125 117 110 110 86 78 65 77 77 67 40 40 30 39 31 30 32 31 34 28 28 31 32 25 23 24 22 25 32 38 55 66 80 89 75 84 114 118 138 147 150 161 168 169 175 159 159 141 46 50 52 57 61 60 41 36 57 55 20 21 48 38 20 48 16 13 19 19 23 19 24 43 56 66 78 71 75 83 87 97 123 86 77 82 121 123 117 132 132 120 118 129 118 86 88 74 49 65 58 61 69 58 37 32 26 31 25 25 27 27 25 23 24 23 23 23 26 26 27 27 39 59 58 72 86 77 70 104 123 128 135 143 147 158 164 166 165 154 149 69 38 56 59 52 58 52 35 38 57 61 24 19 41 67 29 32 12 13 19 20 20 20 22 33 41 48 59 50 58 68 72 86 109 107 78 83 109 106 92 107 110 100 78 92 95 62 75 74 34 44 46 46 41 40 20 19 17 20 16 20 25 27 24 18 20 20 19 23 23 24 29 36 46 57 60 78 88 80 93 122 132 119 140 150 148 153 158 161 156 155 107 34 59 62 46 51 60 56 33 44 63 65 22 17 29 87 46 22 9 13 19 20 15 23 18 20 23 31 42 47 53 60 63 78 92 99 71 75 81 81 81 84 90 92 68 63 67 62 62 68 42 41 36 35 29 26 22 16 15 17 14 24 23 24 22 22 22 22 22 26 27 28 31 44 56 53 65 84 84 76 102 119 129 113 142 142 146 149 145 155 158 106 28 37 62 57 57 58 58 48 27 46 66 64 18 35 64 82 69 23 13 12 19 21 19 21 19 17 14 21 31 35 41 50 58 63 76 75 66 68 68 68 59 69 74 73 59 52 47 46 49 46 32 38 31 27 24 16 13 18 21 21 22 23 23 22 23 12 20 19 23 27 22 27 38 47 62 42 65 76 75 89 118 117 119 128 130 140 145 150 141 160 111 41 33 68 50 58 58 59 59 47 33 58 63 59 30 46 59 69 78 15 5 12 18 21 19 20 19 17 9 11 22 26 29 40 47 47 61 64 61 58 55 52 53 59 65 58 47 38 33 36 40 36 25 29 24 21 19 13 9 9 11 15 20 21 20 20 21 16 22 24 33 30 36 42 40 46 51 48 66 79 80 100 111 116 126 118 137 136 153 148 148 129 44 29 47 44 47 59 62 63 60 45 38 45 55 54 56 78 63 56 69 14 4 11 17 20 20 21 20 19 7 6 12 19 23 31 36 35 45 51 54 51 42 40 46 48 57 45 36 29 24 25 26 22 17 19 14 14 14 16 10 9 18 21 26 26 20 19 21 25 34 37 46 40 38 36 41 46 45 60 77 88 94 117 99 106 143 116 142 141 160 160 130 51 32 38 57 47 47 60 62 63 54 42 41 52 56 48 77 72 59 53 45 20 9 11 16 20 20 21 19 17 11 9 14 11 14 19 23 25 31 36 40 38 29 31 29 30 49 32 23 20 20 17 20 18 14 14 10 11 16 17 21 19 24 25 27 27 21 22 22 27 33 33 40 33 31 41 51 41 56 67 76 88 97 116 92 119 148 129 143 153 155 120 57 36 55 49 50 44 51 60 58 60 50 34 41 55 59 54 97 85 71 44 34 20 6 4 18 10 17 19 20 21 14 11 6 8 9 10 11 13 14 15 18 23 24 27 21 23 26 29 19 19 15 17 14 12 11 13 12 9 6 17 20 22 20 19 17 19 25 24 25 29 26 24 22 30 43 45 44 48 53 74 91 100 109 113 116 128 145 143 147 152 138 57 58 69 43 41 42 48 44 49 56 60 53 23 34 59 58 59