P2
# Generated by OpenCV 4.2.0
92 112
255
52 63 41 18 16 24 27 32 34 20 14 19 22 30 33 27 25 25 26 26 38 53 61 67 71 72 68 70 67 79 73 59 46 43 51 71 78 84 83 93 98 106 111 109 118 135 149 149 145 148 135 132 135 137 124 129 119 114 115 116 106 84 84 89 91 85 85 76 54 51 49 54 58 74 80 48 29 28 22 18 19 14 16 17 17 20 22 23 22 23 33 34 54 37 32 23 17 21 24 34 29 20 15 18 24 32 31 26 24 23 29 38 55 67 71 77 78 82 86 98 90 89 92 80 61 48 52 63 69 82 88 87 103 117 118 122 142 151 155 159 166 164 151 144 152 155 142 139 126 133 130 123 110 107 106 97 92 84 81 75 70 68 61 59 53 64 83 64 34 25 23 20 16 15 15 15 15 17 18 20 17 24 30 36 44 28 22 20 18 17 29 39 20 21 16 17 32 34 29 26 24 30 45 60 71 77 86 96 107 105 110 122 120 113 108 100 75 56 59 60 69 78 82 89 98 110 130 148 162 172 174 175 180 179 169 161 167 165 159 151 141 148 144 131 129 120 115 114 108 92 88 90 89 80 75 68 59 61 78 68 44 32 28 21 18 17 15 15 16 16 16 19 22 25 31 37 32 21 17 15 15 19 32 29 18 18 16 24 46 44 32 31 37 49 70 86 85 89 103 118 136 145 154 159 161 157 143 127 105 78 69 71 81 89 94 94 90 104 134 161 178 184 186 185 186 184 181 177 179 177 174 169 159 156 146 141 140 136 133 132 123 114 115 106 101 100 101 94 77 67 65 69 54 38 30 22 18 15 15 16 16 18 20 26 29 28 33 31 37 28 18 15 18 22 29 20 15 16 18 32 58 52 43 52 64 74 90 101 106 114 123 134 149 166 176 181 181 182 182 170 154 126 99 94 98 107 106 107 104 115 138 161 177 188 190 191 190 190 188 187 185 186 185 180 176 167 163 159 151 146 143 142 134 128 125 116 109 111 114 110 97 88 67 60 48 40 34 29 22 17 17 19 21 23 25 33 32 32 30 30 20 28 43 23 18 26 32 17 16 16 26 50 59 54 60 76 83 92 102 111 122 136 147 157 169 177 180 186 191 189 190 186 177 162 140 125 122 119 114 114 128 142 152 171 181 187 190 190 190 190 191 192 190 190 186 183 181 178 173 168 158 149 147 141 139 136 131 129 121 114 114 117 110 103 85 61 45 39 38 32 23 18 19 22 26 27 27 31 34 28 25 28 15 11 20 24 18 20 25 16 14 21 37 51 60 64 76 86 100 112 109 124 138 150 167 174 184 189 187 186 193 194 194 191 183 175 166 157 146 130 128 130 138 150 171 183 188 188 189 188 189 190 193 193 190 189 186 185 182 179 172 167 161 156 150 146 143 140 137 133 128 125 118 115 112 105 97 72 52 41 39 32 26 21 21 22 23 23 24 25 27 25 21 22 13 14 18 15 14 16 16 14 16 26 36 49 64 77 91 98 120 127 131 145 154 160 175 183 189 192 194 193 192 194 195 192 191 187 181 173 165 153 145 145 149 165 176 182 187 186 188 188 190 193 193 190 190 188 184 185 183 178 173 167 163 159 155 149 144 142 141 136 132 135 130 121 114 106 104 84 59 45 39 35 31 24 21 19 20 21 23 24 24 24 26 29 12 18 18 11 19 29 19 16 17 24 38 55 69 85 96 113 130 131 143 159 166 171 175 183 190 193 195 197 195 194 195 193 193 190 186 184 178 171 161 159 162 173 186 189 190 189 187 186 193 192 190 188 186 185 183 181 177 175 170 166 162 158 156 150 147 144 144 141 140 138 136 126 118 112 111 96 68 51 41 43 38 27 22 21 20 20 25 28 30 32 31 31 11 20 21 14 18 23 21 21 19 28 40 65 77 93 102 121 132 139 149 162 168 175 178 185 192 194 195 196 195 194 195 194 195 192 188 187 187 186 180 172 176 184 191 190 188 188 190 191 189 190 189 186 183 180 180 177 176 172 169 166 162 157 153 149 149 149 148 145 144 143 136 133 123 114 110 98 74 57 45 47 44 34 25 21 20 23 27 29 31 30 29 30 9 27 20 14 14 19 24 23 24 31 51 81 90 103 113 137 139 144 150 162 170 176 180 187 193 194 195 196 194 194 194 195 194 193 194 190 191 190 188 188 189 189 188 188 189 188 188 188 186 187 186 183 183 182 179 179 178 172 169 166 161 158 154 152 151 154 153 151 149 145 140 131 125 116 114 107 82 66 52 53 48 33 28 26 25 27 31 33 30 28 30 32 14 29 16 12 14 18 24 29 31 43 66 88 93 110 132 140 144 149 152 161 168 175 182 189 193 195 195 194 193 196 195 194 193 193 194 191 190 190 189 192 193 190 194 192 189 189 189 184 185 185 182 183 183 182 182 181 177 171 166 165 160 157 154 152 151 152 151 152 151 146 141 131 123 122 120 112 89 72 60 51 64 47 33 27 26 24 25 29 29 31 29 26 11 28 18 13 13 19 27 39 49 67 78 98 99 123 139 145 148 150 153 164 168 175 181 187 193 195 195 192 193 194 193 194 193 191 193 189 189 192 189 190 192 192 192 191 189 189 188 186 187 185 181 183 182 181 181 178 172 170 163 160 159 156 152 151 151 151 149 150 149 146 140 130 129 128 122 112 102 79 64 55 57 61 43 26 21 20 21 21 20 21 22 23 14 20 14 11 13 23 34 44 62 76 90 104 106 133 143 148 151 153 159 166 170 174 178 185 189 192 191 189 190 190 190 192 191 191 189 181 188 190 191 190 194 196 193 196 196 189 188 192 190 185 181 181 180 178 177 174 169 165 162 157 155 153 151 149 149 150 150 147 147 146 139 131 131 131 119 106 95 81 68 63 53 56 56 34 24 21 18 17 14 15 16 17 15 15 12 10 16 33 39 52 63 77 100 107 122 138 144 152 157 160 162 166 169 170 176 179 180 186 188 190 190 189 191 191 190 189 187 188 188 189 192 195 195 195 195 197 195 195 196 193 187 180 182 182 180 178 175 171 167 162 161 157 153 149 148 148 148 149 151 151 148 145 140 135 132 129 120 106 90 77 69 64 58 50 48 39 25 18 15 16 14 12 14 15 13 14 14 10 18 34 42 54 64 86 113 124 135 143 151 157 160 163 165 166 167 168 174 181 182 189 189 193 192 190 192 189 190 188 189 189 190 188 190 197 199 196 195 193 195 195 193 190 190 183 183 184 181 181 177 169 166 161 157 154 151 148 147 151 149 151 152 150 148 143 141 138 135 131 120 110 93 72 67 62 56 48 43 36 29 19 16 16 16 12 15 16 15 14 11 11 21 35 41 54 79 103 122 134 141 146 154 162 162 165 166 165 165 169 173 180 184 187 191 192 191 190 191 193 189 191 191 192 188 188 190 193 193 192 193 195 194 194 191 189 189 187 186 185 180 177 174 167 163 161 156 150 148 146 145 147 151 153 152 150 148 143 144 141 138 135 125 112 98 82 68 60 51 43 41 29 26 21 17 15 16 15 15 16 20 12 12 12 24 33 41 59 82 107 126 140 144 151 157 164 167 165 167 167 166 165 166 173 180 187 190 191 190 191 187 190 191 189 187 192 190 190 188 190 189 189 194 196 197 192 191 187 188 187 184 186 177 176 171 169 166 162 157 151 149 145 148 150 152 152 153 153 151 147 147 142 138 134 126 113 100 84 68 57 49 43 37 29 23 21 17 17 16 15 17 16 22 13 11 14 29 35 46 63 87 111 131 140 145 152 158 161 166 165 168 169 169 168 167 172 178 182 186 190 189 190 187 188 189 189 191 189 191 188 186 192 190 193 198 193 195 191 190 190 187 185 186 181 176 175 174 173 162 161 157 153 150 150 154 156 157 159 156 156 152 151 147 144 140 135 126 112 101 88 72 55 44 40 34 26 24 21 19 17 18 17 18 16 29 14 12 17 31 32 45 69 91 116 133 141 146 150 154 158 164 166 165 166 169 169 172 174 175 175 179 186 190 190 187 188 188 187 192 191 190 188 186 193 191 189 191 192 193 194 188 191 189 186 186 183 179 174 171 166 162 161 160 156 152 151 153 155 158 158 157 157 154 150 148 143 140 135 124 110 98 87 73 60 49 35 32 27 23 18 21 17 18 17 17 16 29 15 11 21 27 29 45 68 97 116 134 143 146 152 159 159 163 166 164 163 166 167 170 173 176 179 183 186 187 189 189 188 189 187 191 194 190 187 190 195 192 190 192 197 191 187 188 192 190 188 187 185 180 176 168 160 161 162 161 157 154 152 151 153 156 155 157 156 155 153 150 146 141 134 122 112 97 84 71 64 55 40 30 27 24 20 19 17 16 17 17 18 20 15 15 24 24 34 47 69 97 120 137 145 149 155 161 164 165 164 167 167 168 171 175 178 181 184 186 190 190 189 189 186 190 188 192 193 189 191 192 195 195 194 195 194 185 184 189 194 192 188 184 184 183 176 166 162 163 163 160 156 157 154 152 153 155 156 155 153 151 150 151 146 141 137 126 115 105 86 68 61 53 44 35 28 25 20 15 15 16 18 18 19 22 17 24 24 24 35 45 71 99 120 135 146 152 156 162 166 168 168 169 170 172 175 179 180 181 182 185 188 189 189 189 188 191 191 191 197 195 194 193 193 192 193 194 194 191 195 196 196 191 188 188 186 182 174 173 171 168 166 160 158 157 157 156 157 157 155 151 150 152 152 152 147 142 136 133 121 111 99 81 60 45 44 39 31 27 19 15 15 16 18 17 17 24 18 27 23 21 33 47 68 95 117 135 143 150 158 163 166 169 170 172 174 174 176 179 180 182 181 182 187 189 190 190 190 190 193 193 200 195 196 197 194 185 193 194 195 194 195 193 192 191 190 194 188 185 184 181 179 173 170 166 161 157 156 157 156 153 152 152 153 154 153 149 143 140 137 133 124 114 105 89 68 42 32 31 35 28 22 17 18 14 16 16 16 36 31 29 19 23 32 42 64 91 118 137 141 149 156 162 167 168 169 173 176 175 176 180 179 182 182 186 188 191 192 190 191 194 193 192 192 194 192 191 194 189 189 192 193 191 189 187 189 194 193 193 193 189 186 183 183 178 175 169 166 162 158 160 157 154 152 155 154 153 154 146 140 137 136 135 126 112 104 94 75 55 39 27 26 30 26 19 16 14 14 14 15 33 28 28 20 24 32 46 69 97 120 133 142 149 154 160 166 168 171 173 175 177 176 179 182 186 188 191 194 193 195 194 193 193 191 192 189 192 190 190 188 189 188 191 188 189 191 190 191 192 191 194 192 191 188 185 181 177 175 171 168 165 161 159 159 157 153 155 153 153 152 146 142 139 137 134 124 115 110 100 83 60 44 29 22 26 26 19 14 13 13 15 14 31 27 25 20 24 33 47 65 91 112 130 142 149 153 159 165 168 171 175 176 179 180 182 186 189 191 193 194 194 197 198 196 195 194 192 191 191 191 189 187 187 187 190 188 189 191 192 191 191 192 192 192 191 188 187 182 177 174 171 167 167 167 161 157 155 156 155 154 152 150 144 141 141 136 131 121 115 115 106 96 78 54 34 22 24 23 20 13 13 14 15 13 25 27 28 20 23 35 50 67 91 116 129 141 153 154 158 165 168 172 176 180 180 183 186 187 187 190 192 193 193 197 199 197 195 192 191 192 190 188 182 186 185 184 190 190 191 190 190 190 190 190 191 188 188 190 185 180 178 174 173 169 168 168 163 161 158 158 158 157 154 149 145 140 139 135 130 123 117 115 108 103 87 66 44 28 25 22 20 14 16 16 15 15 22 30 26 21 24 35 50 72 100 118 132 142 150 158 161 165 170 174 176 180 179 184 188 188 188 186 189 191 194 196 194 198 193 188 190 192 193 191 185 186 188 187 186 184 184 189 188 186 188 188 187 186 189 186 180 177 175 171 171 171 170 168 166 163 161 162 162 159 156 150 143 140 135 136 131 126 122 117 111 106 91 81 57 33 24 21 21 17 17 17 14 14 19 29 24 22 22 35 58 89 112 123 135 142 148 156 164 169 172 175 180 182 182 185 187 189 186 185 186 188 190 192 191 191 189 189 193 190 191 190 188 191 191 189 186 182 182 185 185 187 191 187 183 182 183 177 174 175 169 166 169 170 170 167 165 163 162 166 162 160 159 153 146 143 135 134 130 125 121 119 118 108 93 89 73 38 25 21 22 16 14 17 16 15 16 28 24 21 23 42 73 99 114 122 137 141 145 154 167 176 178 179 180 182 183 185 186 186 185 184 183 184 181 184 186 185 183 185 191 193 192 191 190 187 187 190 185 182 183 188 189 190 202 201 195 184 180 176 173 172 166 166 168 165 166 164 160 162 162 160 163 161 157 153 147 145 140 133 129 125 123 121 119 111 100 93 80 48 27 22 19 16 13 14 18 20 15 30 23 20 26 53 80 102 116 124 135 141 146 159 172 182 183 181 178 181 182 181 183 185 184 184 182 181 178 177 181 182 183 181 187 196 192 193 190 191 193 189 185 184 183 189 199 207 206 214 196 183 184 173 170 167 163 162 163 162 162 158 155 158 153 153 156 153 149 148 146 144 140 134 127 124 124 123 117 113 105 97 86 56 31 21 18 18 14 15 17 18 14 26 26 19 29 60 86 103 118 128 135 139 149 163 177 185 185 180 177 179 178 180 183 182 181 183 179 175 173 173 173 178 180 184 185 191 196 199 192 191 192 188 186 186 186 189 198 209 203 191 181 179 176 166 165 164 163 162 158 154 157 153 151 153 145 142 141 136 134 134 140 139 137 136 128 124 123 122 118 116 106 98 88 58 36 21 17 19 18 16 17 16 15 28 29 19 32 63 87 103 118 131 136 138 149 165 182 185 186 179 176 176 174 179 180 180 179 179 176 172 172 171 169 168 172 179 180 185 190 202 199 192 196 192 186 186 182 185 181 185 182 171 165 174 164 155 159 154 153 151 147 143 139 145 146 135 132 130 127 123 122 115 123 126 130 132 126 124 124 123 122 119 110 100 90 62 37 23 15 16 19 18 20 19 20 25 34 20 30 63 88 100 122 135 135 137 151 171 180 176 174 177 174 172 169 172 173 177 178 179 168 166 171 165 163 165 162 164 171 181 183 186 186 191 188 186 183 180 177 176 176 170 158 152 149 152 148 138 135 135 120 105 101 104 107 112 116 110 112 109 102 102 112 113 109 107 111 121 124 121 121 121 124 121 113 104 95 68 37 23 15 16 19 27 25 12 17 20 34 22 29 62 89 104 123 135 134 137 152 167 163 158 157 156 156 154 153 159 159 152 156 142 134 131 143 146 148 146 159 158 161 168 175 177 176 179 186 183 180 175 172 165 161 161 151 143 139 134 116 120 104 112 88 79 77 72 69 69 66 66 75 75 83 89 95 91 100 97 97 111 121 123 120 121 123 122 117 108 99 74 42 27 17 19 25 30 17 26 14 16 33 24 29 62 89 108 122 133 133 137 146 145 143 138 138 135 121 123 128 122 106 92 97 94 95 104 102 127 130 117 150 146 151 156 159 166 172 169 170 171 171 169 166 159 158 152 147 139 136 122 97 99 94 96 66 68 73 69 61 49 49 49 60 72 81 78 74 83 74 73 79 88 98 111 115 117 119 120 117 111 103 79 42 27 17 21 25 24 46 88 21 16 25 27 26 67 96 110 121 136 133 128 119 116 115 118 124 115 103 97 88 79 68 63 64 67 71 82 91 94 125 107 132 128 145 143 150 161 164 157 157 162 157 161 159 154 153 155 148 128 127 108 99 90 95 79 64 59 60 56 62 64 64 61 59 59 64 67 56 67 69 59 54 66 87 110 111 116 117 119 119 110 106 87 42 25 18 21 17 29 94 118 19 19 20 26 28 70 97 113 123 131 129 102 93 101 90 89 89 79 79 70 54 50 58 59 59 57 59 71 82 82 109 111 126 126 135 136 147 157 155 154 158 154 152 154 153 149 150 150 140 121 118 114 109 94 86 83 77 82 85 98 111 109 100 100 97 92 93 86 78 68 71 70 73 87 101 111 116 120 117 119 119 115 113 94 47 26 20 19 13 24 94 124 17 18 17 24 33 73 97 111 130 126 112 94 88 76 57 59 68 71 69 61 61 65 74 79 83 81 83 87 85 84 91 100 114 130 127 138 142 149 151 153 157 157 153 144 145 143 142 142 133 121 116 108 107 103 100 104 102 103 107 111 111 106 100 98 95 98 99 102 104 102 100 100 105 105 106 115 120 120 118 120 121 119 119 99 54 27 22 20 15 33 101 127 20 16 17 24 32 77 103 114 130 126 108 87 79 64 58 56 64 78 85 96 105 114 118 116 125 122 119 116 112 104 98 95 99 121 127 136 142 145 148 150 156 152 146 144 140 136 133 132 130 121 118 109 102 99 96 88 80 81 70 52 42 36 34 36 47 58 68 75 83 100 111 111 109 112 120 120 127 126 117 118 123 121 120 106 63 31 20 20 17 36 108 115 31 18 15 25 36 85 107 119 130 129 118 98 81 79 87 95 93 98 109 114 118 121 116 112 100 94 89 83 90 98 98 96 100 105 114 124 135 141 141 147 152 156 151 148 141 136 128 125 121 116 109 100 96 84 72 71 70 55 30 23 27 25 18 19 24 29 36 54 65 74 93 103 103 113 122 123 127 124 118 120 122 121 121 108 70 35 23 21 19 43 103 117 54 19 12 26 51 96 113 124 127 132 131 114 106 104 105 109 112 107 101 89 77 59 43 33 23 22 24 23 33 54 74 84 89 93 102 112 122 132 139 149 154 161 163 154 143 132 124 120 117 110 98 93 82 76 82 75 68 70 34 26 47 41 27 30 43 75 34 22 37 58 73 91 95 105 110 120 124 118 121 123 123 121 119 111 87 49 28 23 23 54 107 124 61 18 15 27 59 100 117 126 128 130 138 137 128 118 113 114 105 88 67 47 27 28 28 22 24 33 59 25 29 58 73 75 90 93 90 99 112 128 141 155 165 174 179 164 147 135 125 117 113 98 92 87 84 91 81 67 116 135 49 33 28 28 34 30 55 83 56 42 38 47 60 76 93 100 109 117 121 122 124 125 124 123 120 115 95 60 37 34 35 52 108 129 56 19 22 34 66 107 122 131 131 129 135 131 126 118 109 101 84 56 27 20 32 73 60 31 38 32 31 28 35 109 126 81 80 91 104 96 103 122 144 164 178 185 186 168 153 137 122 113 101 89 96 109 102 73 66 76 102 111 72 44 54 52 49 58 69 73 76 81 83 83 80 86 92 106 120 124 126 128 126 125 121 123 120 119 101 68 52 52 57 94 132 136 72 25 25 43 73 115 125 132 132 133 134 131 123 113 104 94 73 44 38 54 70 74 72 53 48 47 58 56 60 86 82 77 75 76 102 119 105 118 143 167 182 188 185 174 155 137 120 110 96 88 103 114 97 80 74 76 74 74 88 96 111 106 91 90 81 87 103 106 110 105 102 106 107 117 131 133 131 131 127 124 124 122 119 119 107 80 60 60 81 132 146 142 86 40 28 43 80 122 127 131 132 138 141 143 137 123 110 94 79 84 99 102 97 90 88 88 90 102 108 114 100 93 96 103 106 114 117 127 109 120 143 165 185 193 192 179 158 137 119 110 100 91 113 123 120 117 108 105 100 101 102 116 126 114 103 103 108 111 117 114 113 109 114 120 122 130 136 136 134 133 132 129 126 124 121 121 111 96 73 65 106 130 141 143 99 71 41 47 95 125 127 131 133 142 149 151 152 145 129 118 117 120 123 124 119 121 113 114 111 121 120 121 115 109 113 110 111 114 123 115 109 129 144 167 189 193 194 177 151 136 117 114 108 96 102 106 107 108 105 103 105 115 121 125 134 125 119 118 118 117 116 112 109 116 129 132 133 132 135 138 137 133 132 130 127 125 121 121 115 99 80 71 107 127 144 153 48 85 58 58 106 128 130 134 136 142 152 155 155 153 148 141 135 129 130 129 129 131 128 127 122 128 127 122 118 117 118 120 117 112 110 118 128 138 147 173 188 192 192 181 155 136 121 118 121 114 104 96 100 109 112 114 111 115 123 123 119 120 117 116 117 114 115 117 123 132 139 137 134 127 131 138 136 133 132 129 127 126 122 120 114 104 85 72 113 133 146 156 28 56 73 63 107 131 131 135 137 142 150 157 156 155 151 147 143 138 134 130 129 128 125 124 119 116 117 118 118 124 127 127 126 120 127 139 143 143 151 176 186 190 189 184 170 137 121 120 129 128 123 118 116 112 116 124 129 125 126 127 124 122 120 121 124 124 128 134 138 141 142 139 137 132 132 135 135 136 133 130 127 125 123 120 114 104 84 66 114 137 144 159 35 30 60 68 112 130 132 137 139 146 151 155 156 155 154 151 151 150 146 140 135 132 130 129 127 126 128 134 137 144 146 137 132 135 147 150 148 145 153 177 188 190 187 182 170 143 122 120 130 135 134 133 137 133 124 127 133 139 137 134 131 131 133 134 133 134 137 140 142 144 144 144 141 136 135 137 136 136 134 130 124 124 122 122 114 97 88 79 122 142 150 165 31 23 39 66 114 134 135 140 140 147 151 154 156 157 159 159 160 158 154 151 147 144 143 142 142 142 144 148 150 153 156 149 146 153 155 149 152 150 161 177 190 191 185 180 166 145 127 123 129 137 137 134 139 145 142 137 134 141 147 142 142 139 145 142 139 143 145 147 145 146 147 147 143 138 138 138 136 137 134 126 124 125 124 119 113 95 80 94 128 148 163 180 25 21 31 55 109 136 138 139 142 147 151 154 157 160 163 163 163 160 157 157 152 144 141 143 146 146 148 154 159 158 157 157 159 160 155 149 153 156 166 181 195 197 191 186 172 146 134 128 133 140 136 134 137 147 152 146 142 141 145 144 143 141 148 154 153 153 153 155 154 150 149 150 145 143 140 137 136 139 134 126 123 126 124 120 117 95 82 105 130 152 171 182 41 14 29 41 99 134 137 140 144 147 151 153 157 162 163 162 166 165 162 162 159 155 151 152 152 153 158 159 161 160 163 164 162 159 155 156 161 164 172 184 195 197 194 187 172 151 139 133 137 137 134 135 132 145 158 156 153 153 153 157 152 148 156 161 161 162 161 157 157 151 151 151 146 142 140 139 138 139 135 123 121 127 125 120 113 91 78 106 126 148 165 170 85 13 25 37 94 132 138 140 145 147 149 155 157 161 163 162 167 170 169 167 167 170 167 163 157 161 161 164 164 166 169 168 166 160 156 160 166 168 177 187 196 197 194 189 172 153 146 140 138 138 140 135 134 142 152 163 160 160 161 162 159 159 166 171 167 167 162 159 156 153 153 148 146 143 144 142 137 135 132 126 124 124 123 119 112 91 71 103 127 143 162 154 102 30 16 32 87 131 138 141 142 145 150 157 160 163 163 166 167 171 171 173 169 171 173 168 164 168 166 167 169 169 168 166 163 159 158 165 170 171 177 189 197 197 198 192 175 155 147 144 144 143 143 137 135 145 155 160 165 165 164 167 168 170 172 175 170 167 162 157 151 150 150 148 144 144 142 142 139 136 130 128 125 122 120 118 114 92 74 111 147 145 155 140 103 57 15 22 75 129 143 142 142 146 153 154 158 163 163 166 167 171 173 176 176 175 175 172 175 172 165 164 168 169 168 164 163 163 164 168 170 170 177 189 199 200 198 193 180 161 149 144 143 141 141 139 139 146 158 155 161 168 168 170 170 175 175 171 169 167 163 155 150 150 147 147 144 144 141 140 138 136 132 127 123 123 121 117 111 90 78 126 152 152 137 128 47 71 29 21 71 129 142 143 142 145 148 150 156 162 162 162 167 172 173 175 176 176 179 174 177 174 169 171 169 170 171 167 166 164 164 167 169 171 178 193 201 202 198 195 183 163 150 146 140 136 132 135 142 147 156 157 161 167 170 173 173 180 179 176 171 168 163 157 153 150 146 146 143 140 141 138 133 134 133 130 126 122 121 113 101 82 88 155 162 146 127 142 34 83 36 15 72 125 138 141 144 145 146 150 154 160 157 157 165 170 174 179 178 183 180 176 177 177 172 170 169 170 170 168 165 155 156 161 165 168 182 197 198 198 197 195 189 173 153 145 137 125 122 125 131 141 154 164 168 168 172 177 179 184 181 180 177 164 160 159 153 149 146 142 142 139 138 136 135 134 131 128 127 121 121 108 97 80 95 159 165 142 137 156 40 82 42 13 62 115 135 140 144 144 147 151 152 154 154 158 163 170 175 179 180 183 185 182 179 178 173 174 169 168 167 166 160 147 143 152 156 163 177 194 197 196 193 193 186 167 153 146 135 118 121 117 112 130 151 163 170 172 173 178 180 184 181 174 171 164 160 152 148 147 143 141 142 138 138 136 135 131 129 128 125 120 116 103 94 74 91 151 157 143 148 159 78 93 28 14 56 104 130 138 142 143 149 151 150 153 155 160 159 164 170 176 178 182 188 183 182 175 174 176 173 172 168 158 145 140 143 154 155 161 177 192 190 192 185 182 176 164 157 147 136 124 130 129 112 118 132 145 159 168 168 180 182 179 186 177 168 164 160 156 148 147 143 143 141 138 136 136 133 130 130 129 123 119 117 104 93 74 87 142 157 149 154 151 119 104 14 18 63 96 124 136 139 143 149 151 151 153 157 158 157 160 170 176 179 184 184 183 184 174 176 175 174 173 165 152 135 139 153 164 160 163 179 185 187 184 181 174 170 164 156 146 140 139 142 144 128 116 125 131 142 157 166 177 181 181 178 171 167 163 160 158 150 147 145 140 137 136 136 132 131 132 130 129 124 121 119 102 89 81 89 142 163 158 167 144 74 47 10 61 88 95 123 132 138 142 147 151 151 151 155 156 159 163 169 177 179 182 181 180 182 177 179 174 171 170 163 148 136 148 169 173 169 167 175 179 187 180 180 173 161 159 153 143 139 143 148 145 139 116 114 126 137 137 145 167 173 175 168 170 167 163 158 155 148 144 139 138 134 135 133 130 130 132 130 130 126 122 113 100 91 87 91 142 155 151 167 144 35 29 67 101 85 90 119 132 135 142 146 150 151 153 155 155 158 166 168 173 176 180 178 179 181 179 176 176 175 161 152 142 139 164 178 179 173 165 179 183 185 178 183 172 161 154 150 138 139 139 143 147 140 124 107 124 136 132 134 148 161 171 168 173 164 161 155 153 146 143 140 137 136 132 130 131 131 131 132 131 125 120 112 101 89 87 104 139 151 142 137 124 36 79 121 111 93 79 117 130 132 141 146 149 150 150 152 156 159 162 167 169 176 177 177 173 179 178 169 170 168 160 147 139 144 171 182 179 169 164 175 181 180 183 198 185 171 157 150 139 138 142 135 142 138 127 112 129 135 135 135 142 154 163 164 167 159 155 153 150 146 142 138 134 132 130 130 130 129 132 130 127 122 119 113 105 98 82 111 136 144 145 133 84 26 85 128 132 123 76 107 125 126 138 143 147 152 149 149 151 154 159 164 169 173 174 176 171 176 176 172 169 161 150 147 138 144 163 172 171 164 160 164 165 168 173 191 191 170 160 152 138 134 139 135 132 129 118 114 138 147 144 135 136 148 153 161 161 157 153 152 147 142 140 136 133 130 129 133 134 132 136 128 120 122 119 111 111 96 75 98 140 143 140 130 63 12 66 134 155 145 85 89 115 117 133 143 147 150 151 148 150 153 158 164 167 168 169 173 169 170 173 172 162 155 151 150 145 137 144 147 153 155 151 156 160 164 165 172 174 163 152 145 132 129 130 121 114 113 103 128 147 152 152 144 139 144 152 155 152 151 151 147 146 142 140 138 136 134 131 132 132 133 134 132 126 122 114 106 107 95 82 89 124 132 131 91 25 8 57 145 166 159 93 81 112 117 126 141 145 149 152 151 151 151 156 163 164 165 168 172 169 170 168 167 167 156 158 160 157 141 122 116 115 123 133 143 149 155 156 156 157 151 140 136 125 108 96 96 92 92 113 140 147 152 156 150 144 142 144 149 150 149 151 148 146 143 140 138 137 134 132 131 132 135 133 132 125 122 114 102 95 95 73 65 86 81 60 24 13 14 36 130 169 173 107 73 108 118 118 137 146 147 152 150 153 151 156 161 164 164 165 168 168 168 167 165 161 158 164 170 166 155 129 105 106 102 99 116 132 141 146 144 144 138 133 124 97 90 96 99 92 102 129 141 148 154 158 157 151 143 142 143 145 147 149 148 143 141 141 137 136 134 134 132 134 135 130 130 123 121 118 103 85 83 56 21 14 14 13 13 13 18 20 90 161 163 118 69 101 123 125 134 145 148 151 149 151 154 157 159 163 165 164 166 166 162 166 162 156 157 168 170 160 156 150 127 112 116 112 108 115 128 134 134 134 135 130 95 86 97 96 97 107 123 126 133 142 151 157 156 155 151 145 140 141 143 139 144 142 138 139 137 138 136 135 136 135 131 129 129 120 115 114 105 94 79 50 16 10 11 13 17 14 14 21 31 100 136 116 70 89 119 129 136 142 150 150 151 151 153 155 158 162 164 165 165 161 160 162 165 164 169 174 173 156 149 145 140 133 127 122 125 117 112 125 130 130 130 102 95 103 91 86 91 107 111 117 127 139 146 151 153 154 156 148 142 141 145 142 143 141 139 136 137 138 139 136 135 137 133 132 129 115 106 113 106 89 77 42 16 16 12 15 18 14 19 18 17 22 40 41 45 82 119 130 134 141 147 148 150 151 150 154 157 161 162 164 159 158 161 161 164 171 175 178 175 162 145 142 135 133 131 112 121 124 112 112 114 112 113 110 115 94 74 67 68 77 90 100 104 126 137 143 145 151 152 150 145 140 142 142 142 144 141 136 138 138 138 136 135 135 133 129 125 118 103 105 103 92 71 42 17 17 11 16 21 14 24 15 20 22 17 14 34 76 119 130 130 137 143 147 148 149 148 153 157 158 160 162 160 158 159 162 169 175 177 177 174 165 155 142 117 101 99 87 113 105 111 120 107 107 113 116 107 85 68 60 53 52 73 84 89 104 123 136 136 143 144 139 142 140 137 138 141 144 145 140 138 138 138 136 137 133 129 126 120 120 102 103 101 89 62 36 25 17 13 17 19 18 22 25 32 26 27 25 32 61 110 131 131 128 134 145 147 145 152 153 157 155 158 161 160 159 162 167 170 170 164 160 156 154 145 123 97 81 72 77 98 83 95 104 98 113 115 97 84 82 68 58 54 55 68 73 81 86 100 122 132 127 130 118 121 132 132 136 141 144 147 143 140 137 135 135 132 130 125 119 120 117 105 103 97 84 52 21 27 20 14 20 20 22 26 25 31 26 29 28 22 41 96 134 135 131 126 140 146 148 150 152 156 157 157 158 157 161 166 165 164 152 143 134 137 131 113 98 79 71 66 74 73 76 75 62 68 95 104 104 76 75 83 68 64 62 73 70 65 79 87 108 122 120 110 118 109 100 114 133 140 141 143 145 142 138 134 131 126 120 126 113 108 117 118 99 88 73 42 15 19 22 16 25 22 22 23 20 23 29 32 24 21 36 81 131 141 135 123 126 137 147 148 152 154 157 159 158 157 163 164 157 140 129 129 118 121 116 104 96 79 71 70 76 70 81 67 59 65 87 99 104 98 91 101 99 79 71 81 75 75 88 81 94 109 111 98 109 115 100 107 127 137 141 141 146 143 139 134 130 126 108 116 120 103 102 119 103 86 67 31 18 20 24 25 30 18 16 19 18 19 24 36 27 34 34 59 114 143 134 111 112 127 139 146 154 154 154 156 156 156 154 149 151 122 122 116 98 110 113 103 89 87 90 86 89 93 107 99 86 108 118 122 119 128 132 130 126 102 91 97 85 89 94 90 89 104 104 95 100 119 110 96 106 127 140 144 145 143 136 133 130 129 120 107 103 111 102 113 96 82 61 23 18 26 28 25 22 19 24 30 21 24 29 45 42 33 20 44 98 137 127 109 128 123 123 141 151 154 152 151 155 158 146 145 142 117 111 104 87 110 114 105 92 108 104 113 118 123 134 135 134 151 154 155 152 155 141 130 122 116 113 118 106 114 108 100 97 95 99 93 89 117 120 95 100 116 139 148 144 142 135 125 120 127 126 112 106 104 107 104 88 78 46 17 17 23 23 21 15 17 23 33 27 31 29 39 37 25 18 34 89 130 122 121 134 109 117 135 147 153 149 145 146 152 139 136 119 100 106 95 98 121 124 117 108 123 120 127 125 124 126 131 133 140 148 156 132 121 118 118 119 118 119 113 108 116 115 106 108 87 96 88 90 110 109 92 98 105 131 141 145 137 131 122 110 110 126 119 114 112 113 93 81 72 36 15 18 19 20 17 16 16 20 24 29 30 22 26 37 23 24 20 60 113 119 124 130 115 110 129 140 142 143 146 146 141 124 124 105 92 97 98 116 118 129 132 123 120 122 121 119 121 124 128 128 127 131 136 116 113 121 120 122 120 115 109 101 97 94 100 96 90 94 84 90 100 116 100 80 82 115 136 144 129 120 123 109 101 122 117 108 107 111 86 81 67 28 15 19 18 20 20 16 14 16 30 29 18 19 33 33 17 16 18 43 105 125 114 117 119 105 112 126 139 146 147 144 123 106 110 100 100 92 96 98 106 120 113 106 107 115 115 120 124 123 122 124 122 123 132 117 103 102 100 101 96 87 84 80 68 65 62 57 66 77 86 97 104 120 118 104 99 102 120 139 124 109 118 115 113 117 113 98 102 97 78 91 63 23 17 20 19 18 20 15 16 16 28 19 17 22 27 28 22 21 14 30 103 123 108 116 119 99 96 126 145 149 152 136 101 111 104 98 98 96 88 75 76 69 64 73 84 93 96 96 100 102 98 97 99 98 103 100 90 89 98 98 94 98 92 90 86 77 67 68 80 84 85 103 110 110 114 109 118 140 138 130 126 106 103 110 110 120 110 99 93 81 75 85 52 20 17 19 16 16 18 19 17 18 17 17 18 20 25 24 19 18 20 28 65 108 102 118 121 104 109 124 136 141 149 135 118 113 108 103 111 112 107 110 106 89 82 87 99 110 116 123 125 125 122 119 125 119 116 120 129 137 136 132 123 121 114 108 106 104 105 109 112 110 108 115 118 114 104 115 129 139 138 120 119 113 108 104 106 115 101 94 80 69 71 72 36 18 15 20 18 16 20 20 18 19 16 14 15 23 25 16 15 20 25 33 42 88 102 111 113 104 103 118 128 134 149 148 138 124 116 113 126 132 132 133 132 131 127 121 123 125 129 138 145 147 153 152 151 149 147 148 146 144 140 133 123 122 123 126 129 135 139 131 125 123 128 136 140 136 121 128 142 137 133 111 101 115 107 103 97 113 96 85 65 61 72 53 35 28 20 18 18 14 19 23 20 20 12 18 37 35 23 18 26 35 23 20 33 55 90 94 103 107 112 113 121 126 140 146 151 140 134 129 142 145 144 143 144 146 152 151 149 143 141 141 142 142 148 150 149 146 147 145 140 138 136 133 131 139 145 144 146 145 146 141 138 144 151 151 147 143 141 136 131 132 133 113 89 116 108 91 94 100 93 78 58 62 65 49 43 33 24 20 17 20 17 18 22 23 20 35 60 40 30 28 39 37 22 17 22 36 68 80 98 100 123 113 110 114 125 132 143 149 136 142 158 157 156 154 152 151 158 163 163 166 164 161 156 152 152 155 158 158 159 155 148 149 143 140 147 150 153 148 147 146 144 146 151 159 161 152 146 145 149 140 117 121 121 110 92 99 100 85 98 102 86 66 65 74 56 66 42 27 26 29 23 24 24 23 23 25 35 36 39 37 31 37 46 36 20 17 24 22 49 85 93 101 125 109 102 99 106 122 144 149 142 146 161 165 167 165 161 157 157 160 161 165 165 164 161 156 154 157 158 162 160 154 154 151 147 148 148 145 149 147 145 143 146 154 159 160 158 153 145 147 150 142 108 104 114 97 77 89 89 88 95 96 69 62 70 66 59 80 53 33 34 34 28 25 27 27 26 27 36 35 38 36 33 38 38 31 27 23 22 23 33 80 97 103 106 102 97 72 89 113 136 143 145 151 163 168 170 170 167 163 159 156 155 152 152 152 150 149 149 145 143 143 142 140 140 139 142 142 139 140 142 140 144 145 153 160 161 160 155 149 149 147 141 136 111 88 100 86 75 85 79 97 90 83 54 64 64 55 75 90 64 36 35 30 28 26 23 23 22 22 26 31 36 32 28 36 39 42 44 27 22 26 30 47 87 86 102 95 75 63 96 117 131 140 145 151 161 167 169 171 167 162 160 158 153 146 140 132 131 136 135 132 126 123 130 125 125 122 129 130 126 131 138 139 149 155 158 160 159 160 154 145 142 144 140 130 120 100 84 78 69 84 82 92 86 65 54 62 55 70 88 98 67 34 29 26 26 25 20 17 18 14 27 31 35 30 33 31 38 49 56 38 26 19 26 36 54 81 98 83 65 70 96 112 122 139 147 148 157 165 167 169 167 163 161 159 156 153 147 140 133 125 124 121 112 108 111 113 118 125 115 129 130 132 143 149 154 157 158 159 157 157 151 142 134 122 124 119 111 98 90 83 70 87 84 77 81 55 53 67 68 77 98 102 79 87 79 38 21 25 20 17 16 12 27 32 37 34 34 38 38 42 53 40 29 25 29 34 35 78 92 72 75 94 93 98 118 127 137 145 149 166 167 165 167 164 162 161 158 158 154 145 138 133 132 126 117 117 109 120 126 137 134 135 149 143 148 155 154 155 159 158 156 155 153 138 133 122 97 100 94 95 88 87 89 83 73 68 61 47 48 69 97 99 108 107 85 101 107 107 47 13 17 14 12 13 25 31 36 44 39 40 43 44 47 45 47 33 19 21 33 44 64 64 76 96 85 98 103 115 126 139 146 150 160 166 168 166 164 162 158 160 159 154 153 151 146 135 128 131 134 134 149 145 152 153 155 154 158 155 153 157 158 160 158 153 149 137 119 118 98 74 84 86 81 73 89 79 57 55 45 48 60 80 105 114 113 107 86 107 98 114 114 36 5 12 12 13 27 34 40 48 52 50 48 48 56 71 74 59 38 28 30 34 43 60 80 91 109 100 85 109 115 125 140 144 152 163 171 169 166 165 163 163 163 164 162 164 164 151 144 147 150 148 157 160 161 161 159 160 163 157 155 157 158 161 158 152 139 117 107 111 95 63 69 69 68 65 80 72 50 42 42 59 73 87 109 117 117 112 96 123 131 116 126 111 28 5 13 13 28 33 40 48 55 64 69 66 65 66 69 70 65 58 58 54 54 60 67 82 97 83 77 94 107 122 136 133 147 166 172 174 171 169 167 167 166 167 169 170 167 163 158 155 160 162 156 162 166 163 163 163 164 161 157 157 158 161 157 155 138 113 89 82 83 60 61 54 60 61 70 58 45 38 45 78 101 108 121 122 118 115 102 145 155 125 118 142 110 21 9 15 28 34 42 50 56 63 69 75 74 75 74 74 72 80 133 110 79 67 49 76 76 79 79 92 107 119 122 125 141 155 170 175 178 175 171 170 169 171 174 171 169 170 154 154 163 159 164 161 163 164 161 161 162 161 156 155 157 158 151 145 135 113 74 62 69 63 63 53 56 56 70 53 35 41 60 99 116 121 123 124 120 117 100 156 175 136 116 144 162 109 13 14 32 36 43 51 57 62 68 76 79 81 83 84 81 135 166 114 110 96 66 52 88 91 88 89 91 105 104 114 130 144 155 164 175 178 174 171 168 172 174 168 169 159 156 153 162 156 156 151 152 160 157 157 158 156 153 150 151 146 139 134 119 95 71 66 54 57 62 57 60 59 62 37 36 68 91 109 121 123 125 125 121 119 101 100 178 156 130 157 177 177 88 8 32 37 44 51 57 62 68 72 78 82 83 78 109 185 145 140 154 130 118 73 51 86 91 79 77 79 93 104 110 128 134 148 153 173 175 165 171 173 172 169 150 146 158 152 168 155 151 148 147 148 143 144 146 150 151 135 132 137 116 113 109 95 59 51 47 47 53 54 65 55 44 40 63 80 93 108 123 128 127 124 121 121 112 60 79 152 156 170 189 188 181 61 32 37 44 50 57 61 66 71 76 80 80 78 169 180 135 173 166 131 131 121 60 52 80 72 71 54 79 100 99 100 109 120 129 151 161 163 164 160 164 156 127 141 139 147 147 145 144 139 143 133 125 121 132 144 142 127 111 118 102 89 85 86 60 44 42 42 52 61 54 40 39 55 76 92 91 109 123 129 130 126 122 121 116 77 49 63 128 187 197 193 202 162 32 37 43 48 55 60 65 68 73 77 72 109 208 156 145 166 148 141 130 142 103 45 46 61 57 43 65 84 85 84 96 108 98 113 129 142 137 138 142 131 123 135 133 147 141 139 130 131 131 108 107 113 109 129 118 113 112 90 83 75 79 60 50 45 44 44 50 58 42 38 44 67 86 108 115 125 127 131 131 130 125 121 116 85 63 47 100 203 205 203 202 204 32 36 42 48 54 59 63 68 71 72 66 167 212 138 141 143 133 120 134 143 134 98 43 45 51 40 51 73 75 74 88 93 79 89 101 123 122 130 120 125 121 134 131 132 141 143 122 121 117 100 96 110 93 96 84 83 101 79 60 58 64 51 38 41 41 44 49 45 39 42 69 87 92 122 129 134 131 130 133 132 126 123 119 96 67 55 130 214 214 212 209 212 32 35 40 46 52 57 61 63 59 64 112 220 191 121 121 98 72 75 133 142 143 135 81 41 44 49 51 61 61 67 77 86 69 78 90 91 105 113 113 123 119 136 129 116 144 137 122 114 113 97 91 91 87 81 65 63 80 70 50 56 57 42 36 36 36 45 44 37 41 51 86 102 114 124 129 134 134 132 132 133 129 125 120 103 72 59 157 222 217 216 216 219 30 34 40 45 49 50 48 64 115 184 233 235 164 74 69 70 71 75 124 145 140 133 121 76 40 42 45 48 54 66 70 73 51 74 88 79 84 97 118 116 115 123 120 109 133 129 104 111 118 97 81 88 93 83 77 55 69 66 62 60 47 38 37 35 36 41 36 40 47 61 89 111 122 121 130 136 136 137 134 133 130 126 122 108 79 69 184 227 221 218 220 223 30 35 35 33 37 66 124 196 247 255 247 233 133 56 72 75 78 74 114 145 141 137 127 106 73 40 41 40 51 62 68 68 59 65 70 71 72 96 105 110 106 112 109 108 126 125 100 101 99 97 74 89 93 82 85 59 61 64 51 58 43 36 33 35 36 35 35 47 70 69 80 109 115 120 134 136 137 138 136 133 129 124 126 112 79 99 213 228 222 221 223 227 22 21 38 87 154 219 255 255 251 246 244 231 115 66 79 81 83 78 108 144 145 143 127 122 101 54 44 45 38 44 50 66 60 61 68 67 72 78 81 99 91 100 108 107 116 113 106 87 80 86 71 78 84 83 69 54 51 55 45 45 36 34 35 34 36 35 35 52 93 94 80 102 118 130 133 139 137 137 135 134 130 126 126 114 76 137 230 230 223 221 224 232 48 116 192 242 255 255 250 249 248 246 245 224 106 72 83 86 85 81 101 141 145 147 129 130 124 86 51 40 34 32 40 52 57 62 64 59 67 62 64 79 81 89 106 98 97 100 98 71 81 73 74 76 72 80 48 54 59 48 44 36 29 33 37 33 34 43 46 50 83 113 116 119 125 129 136 135 134 136 135 133 130 127 127 116 80 174 237 232 227 224 227 234 226 254 255 253 249 248 248 249 248 246 247 217 100 80 88 88 89 85 96 136 147 148 136 128 131 129 76 42 42 37 37 50 49 49 55 66 68 55 64 64 66 79 98 95 87 74 75 75 75 65 71 71 65 62 43 47 51 42 40 34 42 40 35 38 44 54 56 58 86 115 113 127 128 133 139 134 127 135 137 132 132 131 130 111 95 208 236 232 227 225 229 236 255 251 249 249 249 249 249 248 249 247 249 202 91 90 94 92 93 89 95 133 145 146 142 134 133 133 111 64 48 42 35 38 38 38 50 52 46 46 63 61 49 71 86 82 83 62 72 75 62 59 63 63 51 52 44 38 35 34 31 34 44 39 39 44 55 50 41 76 96 112 110 128 132 135 137 136 134 138 138 134 133 131 130 103 126 231 236 230 227 227 231 237 249 249 249 248 249 249 248 248 249 247 250 190 89 96 97 97 94 88 102 135 143 143 146 134 135 130 117 104 70 51 37 35 35 35 41 36 39 52 60 50 45 50 59 70 74 61 59 57 51 52 53 46 40 41 35 33 29 32 32 42 45 41 43 55 50 41 60 92 108 124 122 125 135 132 132 131 137 139 137 136 136 130 128 101 168 239 235 229 227 228 233 239 249 249 249 249 250 248 247 249 249 248 250 181 91 100 100 101 95 88 103 133 146 145 147 149 131 134 129 116 84 68 57 44 41 36 36 29 30 37 52 47 40 35 43 55 56 49 51 47 45 46 35 33 33 35 35 30 31 35 39 48 60 55 58 68 55 69 93 108 116 128 132 125 136 131 129 132 138 137 136 138 136 131 124 116 210 239 235 229 227 229 236 240 250 249 249 249 249 249 248 249 249 248 252 173 93 103 102 100 97 91 106 129 144 147 147 150 140 135 139 136 115 87 68 77 55 42 38 27 28 30 35 41 38 39 38 43 42 37 36 37 41 40 40 39 37 39 37 35 36 47 54 70 75 79 84 83 78 101 115 122 121 136 135 130 135 137 137 137 138 139 136 135 133 129 113 145 234 237 235 230 226 231 239 242 249 249 249 249 249 249 247 248 248 249 251 166 96 107 105 102 97 95 106 128 142 150 150 149 147 144 141 144 140 123 91 100 93 67 49 46 38 32 33 34 34 36 41 39 35 35 38 37 37 36 43 48 41 39 44 46 60 69 73 100 94 87 76 67 88 114 117 125 122 127 133 127 128 132 136 138 138 137 135 134 133 127 112 187 240 236 234 230 227 234 241 243 249 248 249 249 249 248 247 249 249 250 253 166 97 110 107 104 98 97 108 126 140 149 151 148 149 146 143 143 139 127 120 103 111 109 87 75 65 58 54 45 45 50 57 58 44 42 44 49 47 50 57 57 55 63 72 91 93 74 80 91 98 91 78 91 103 116 122 125 125 133 136 127 130 135 133 138 135 134 136 135 134 123 133 225 239 235 233 229 229 238 243 244