P2
# Generated by OpenCV 4.2.0
92 112
255
35 35 38 34 34 30 31 31 20 88 89 31 31 30 13 23 22 23 37 62 65 33 16 27 12 8 13 21 26 21 9 7 9 19 14 15 22 25 34 42 40 39 49 43 32 43 79 52 83 41 46 91 105 89 67 70 79 47 45 67 53 38 63 75 46 30 42 30 46 68 26 21 19 46 48 22 19 40 29 22 23 30 28 47 46 25 44 43 41 42 41 42 40 41 41 38 30 34 30 29 23 56 103 48 34 37 17 23 17 12 18 22 37 29 17 12 9 9 10 20 23 20 15 11 11 17 20 24 28 27 32 52 54 40 67 45 34 42 48 45 56 37 48 55 74 74 54 48 65 35 43 52 48 42 65 88 50 42 44 36 56 43 15 17 24 47 48 35 25 64 40 30 37 28 26 36 47 21 32 41 43 42 41 42 41 41 44 34 23 25 26 25 24 28 49 36 22 23 16 19 15 5 30 34 41 46 34 12 3 19 20 18 28 32 27 23 19 23 30 37 42 44 39 65 81 58 78 42 52 51 37 41 55 45 30 35 59 45 31 36 47 27 33 35 48 56 62 88 51 62 59 49 51 31 17 16 20 29 45 39 27 61 50 32 25 30 29 19 32 23 18 29 43 43 41 41 41 44 41 24 14 20 19 18 20 21 24 21 13 12 35 39 32 14 24 56 40 50 44 35 16 19 38 29 20 29 37 48 42 39 44 50 60 46 62 71 81 76 91 53 70 55 48 51 77 43 29 40 46 38 33 39 42 35 35 37 52 62 67 91 66 76 77 55 41 31 19 17 14 18 55 40 27 48 48 40 31 28 26 17 20 26 22 17 29 42 42 42 45 43 36 21 18 20 17 11 10 14 14 14 17 25 25 40 49 26 17 55 58 53 40 43 47 56 42 44 31 39 53 58 64 54 50 59 66 49 58 83 87 90 106 73 72 66 65 66 82 47 49 54 60 43 39 46 61 56 59 48 62 70 82 82 87 77 76 45 38 35 35 30 16 41 113 56 29 43 56 37 24 25 24 23 18 21 23 19 19 36 43 42 45 46 35 18 21 22 16 12 11 9 8 8 23 40 36 23 40 30 35 54 69 65 48 22 46 92 28 21 62 99 68 37 37 49 54 60 92 68 57 85 102 94 118 116 84 84 89 72 93 68 73 74 76 56 57 72 98 87 81 66 73 85 72 72 91 78 76 54 48 38 35 33 33 62 120 65 64 45 40 35 27 27 22 17 13 15 20 21 26 38 44 41 43 39 27 23 13 20 17 14 9 6 3 9 18 51 54 18 17 25 28 68 69 29 33 26 28 39 23 22 38 65 40 24 26 38 44 54 60 62 74 76 97 108 114 117 103 106 107 85 114 97 93 102 86 74 87 95 129 107 91 80 67 61 63 76 72 67 65 68 62 47 31 32 58 56 57 69 76 45 29 17 23 28 20 14 15 11 18 22 21 35 47 42 48 31 15 39 18 18 22 15 6 3 5 15 37 43 31 44 40 41 36 36 42 27 24 27 29 25 26 31 30 27 30 24 25 34 36 39 36 54 71 86 87 94 113 115 114 118 120 109 118 127 122 109 97 98 118 114 127 115 95 77 70 69 77 73 70 66 67 80 72 68 62 58 62 41 37 62 61 33 41 33 12 11 11 19 21 22 16 15 16 17 27 43 38 22 23 30 29 16 18 7 3 4 8 28 39 26 33 41 39 29 29 26 24 27 28 27 28 26 25 29 29 23 32 37 27 28 27 29 39 73 81 80 76 83 97 101 125 143 152 151 143 151 145 138 121 122 139 136 141 130 102 87 77 81 86 81 76 74 71 60 75 81 64 55 54 22 45 60 66 50 33 44 46 32 22 21 21 28 25 21 14 19 20 36 31 40 29 17 22 19 10 12 8 13 25 27 16 21 22 21 28 21 31 32 24 25 28 27 27 32 31 39 40 37 37 45 45 49 49 38 47 66 55 54 51 77 102 113 129 161 167 167 174 181 168 162 157 148 151 146 152 142 122 111 103 102 107 119 105 97 83 63 53 70 71 60 29 27 63 44 51 64 55 51 58 50 37 25 31 38 29 30 24 22 21 27 38 55 49 43 31 22 17 21 19 17 11 10 11 22 26 23 32 43 40 36 35 32 33 35 48 57 62 60 64 68 66 69 70 80 73 48 51 64 69 73 76 76 89 120 156 168 170 174 180 176 169 164 173 169 168 163 171 164 148 140 135 127 138 136 126 114 102 76 68 61 69 54 34 42 53 43 32 50 47 43 39 38 33 34 47 48 29 31 29 24 22 22 34 30 30 40 37 22 14 20 27 36 32 14 16 19 24 27 40 43 42 49 52 52 67 81 77 71 78 79 89 99 97 94 91 91 94 73 63 82 90 96 109 100 91 114 149 172 175 175 174 172 171 165 174 176 176 176 177 172 161 161 152 149 153 145 135 127 128 95 74 82 81 62 44 33 37 44 37 39 40 26 28 30 33 39 61 39 29 43 24 21 22 21 24 32 36 19 10 14 20 28 51 42 49 19 18 24 21 25 49 50 43 51 60 62 64 77 89 96 110 127 143 141 146 137 134 130 138 117 95 83 96 112 112 121 117 123 150 170 177 178 174 175 176 175 175 176 176 175 175 174 171 172 170 164 162 161 157 135 140 143 109 88 86 72 49 32 34 47 44 38 40 41 41 31 29 49 55 25 29 43 20 11 21 25 19 37 61 30 17 14 16 23 31 44 42 28 14 24 24 48 57 58 63 71 81 91 96 104 115 130 143 153 163 165 163 163 164 160 169 160 141 110 95 102 109 129 144 151 164 177 177 177 175 176 179 178 175 172 176 179 175 169 167 167 166 167 165 161 160 152 140 149 155 120 102 90 61 59 45 51 43 34 39 42 37 33 35 51 28 19 26 40 21 19 28 22 43 38 48 32 25 22 16 9 17 39 37 24 21 20 33 51 50 88 103 105 105 103 113 130 142 147 157 164 168 171 174 174 172 170 170 165 163 152 126 119 120 127 139 160 170 174 176 180 178 176 177 177 177 175 177 177 173 171 166 168 170 167 168 167 162 167 157 151 152 148 130 115 96 82 65 45 49 26 28 34 33 34 33 29 22 23 39 41 23 29 23 23 20 24 30 32 37 31 31 20 24 37 14 10 14 20 40 52 81 120 125 117 120 124 127 138 145 158 164 165 169 170 167 172 174 177 178 175 177 177 168 152 144 145 161 173 180 178 177 180 182 184 180 178 177 179 176 175 174 174 170 169 167 166 163 167 164 164 165 167 168 160 144 134 122 99 76 52 59 54 26 27 32 28 25 27 28 32 43 31 31 26 21 25 37 23 22 20 51 42 35 58 38 63 31 13 17 25 54 76 118 125 128 129 134 134 137 146 146 154 157 163 165 168 166 166 169 174 172 173 178 179 175 172 165 169 182 182 181 183 182 180 179 183 184 184 181 177 175 177 176 173 171 169 168 167 164 165 169 168 166 170 171 166 153 141 130 110 90 66 65 63 52 31 26 26 26 28 39 45 36 25 26 23 24 25 23 26 22 10 31 64 36 48 52 44 23 15 18 31 70 103 120 124 136 131 136 134 139 146 150 152 153 162 166 164 166 166 167 167 171 175 180 180 179 176 182 182 185 185 187 188 183 183 186 185 185 187 184 181 182 176 177 172 170 169 172 168 167 171 170 168 167 163 173 169 159 155 133 111 88 73 63 60 44 39 31 29 34 36 41 38 25 27 29 25 22 26 38 42 17 14 10 50 38 52 57 39 25 19 17 35 82 116 122 133 134 135 140 133 138 148 147 150 155 164 163 164 168 168 169 169 175 177 180 181 176 178 185 188 193 193 190 190 189 188 189 189 184 185 186 183 182 179 174 174 170 168 166 164 168 170 169 169 173 167 166 162 163 160 159 120 93 76 58 56 48 37 39 34 32 31 29 23 26 31 31 27 29 27 38 25 6 11 19 15 25 42 46 31 21 17 20 54 104 125 129 136 137 140 133 132 137 143 147 151 159 165 165 167 169 171 171 171 175 178 179 179 184 188 191 193 193 189 196 194 192 190 191 191 185 183 185 184 182 177 173 171 171 170 167 164 164 167 169 166 171 170 160 155 163 155 154 138 97 78 66 51 52 41 31 34 25 20 23 25 22 20 22 25 26 28 13 18 13 12 20 11 16 33 35 17 12 22 41 83 121 129 130 133 136 139 134 135 139 144 145 148 156 165 168 170 170 171 174 175 178 185 185 185 188 191 194 192 187 188 194 195 191 191 191 184 183 186 192 186 175 175 176 172 172 169 168 166 166 168 171 170 170 171 161 154 161 157 142 129 114 97 71 53 54 47 24 21 26 24 23 20 18 20 31 31 30 25 23 20 17 13 33 11 32 40 25 25 32 41 72 107 124 125 132 131 139 138 136 136 140 144 146 147 154 160 167 166 170 174 175 177 182 185 187 187 191 193 191 197 188 192 187 186 189 186 185 183 186 185 181 182 181 176 174 170 170 166 163 166 169 172 171 167 170 167 162 163 159 150 144 135 115 95 80 57 39 41 30 23 22 24 24 27 30 23 33 34 33 23 16 17 15 19 34 16 32 30 31 48 50 66 83 106 128 128 128 132 138 136 133 140 141 141 143 145 153 155 161 164 172 175 173 175 178 180 186 180 185 184 188 188 184 189 192 191 190 187 187 190 188 190 180 179 180 174 173 173 166 163 163 165 169 173 175 168 167 165 163 163 163 149 136 122 113 98 78 67 42 28 26 23 21 21 25 27 25 24 25 33 46 23 18 18 19 19 15 15 31 28 32 35 44 67 82 112 128 134 129 139 138 138 139 139 140 141 141 143 150 155 159 166 170 170 171 171 179 179 185 187 188 185 188 184 185 196 195 194 191 187 186 186 189 186 182 180 178 180 173 171 166 165 160 162 163 169 172 172 171 169 168 164 161 155 143 125 106 103 87 69 52 31 20 20 22 19 21 24 24 27 22 69 50 27 14 44 45 18 15 20 29 23 27 31 38 64 83 102 122 138 137 139 139 142 142 137 136 140 142 145 146 152 162 169 167 171 173 170 175 182 190 187 188 192 188 189 195 196 192 192 194 191 191 187 183 187 184 182 179 176 174 170 164 163 165 168 168 169 169 170 170 169 168 165 162 153 144 125 106 91 89 74 48 44 27 18 20 23 23 23 25 20 37 58 29 32 15 23 26 19 19 22 29 30 33 28 43 61 75 102 125 137 138 138 139 142 150 139 139 148 152 147 146 155 157 157 164 172 166 165 178 182 186 184 189 185 188 193 194 199 197 192 183 190 192 190 188 186 185 181 176 169 171 172 166 165 163 168 168 169 168 171 170 165 167 163 163 155 137 122 108 94 78 67 54 43 27 16 17 21 25 27 26 30 33 23 27 31 34 18 24 24 18 34 50 28 27 34 44 57 77 101 119 133 138 139 140 140 144 145 144 151 154 149 147 150 153 151 161 168 169 170 179 181 183 187 188 188 195 189 187 191 194 183 180 186 186 188 184 179 180 176 172 169 167 168 163 164 161 164 167 171 172 166 170 168 166 164 163 157 145 122 105 89 76 64 57 41 29 19 20 20 27 32 28 22 33 30 25 29 12 14 14 10 23 50 37 24 36 36 45 64 80 106 125 131 134 139 141 138 145 149 144 147 151 145 145 149 153 155 165 172 173 177 185 182 184 189 187 188 195 188 185 185 185 184 187 186 184 179 181 175 174 172 170 168 167 167 163 161 161 164 169 172 172 167 170 168 166 164 163 162 151 133 114 99 82 70 60 43 29 23 23 25 42 27 25 28 31 30 28 28 12 19 14 9 31 59 38 39 45 44 52 74 98 109 120 130 131 133 143 141 150 153 148 147 149 148 149 152 155 156 160 165 171 174 177 178 178 177 182 185 186 184 179 177 177 182 179 179 178 179 180 180 178 176 172 170 169 168 167 162 161 165 160 162 164 167 172 171 172 167 164 164 160 145 129 105 89 78 68 50 36 20 19 33 31 18 25 27 27 29 30 30 14 11 13 13 31 67 52 43 44 45 53 76 84 97 118 132 132 134 144 143 151 158 155 151 148 153 153 152 152 151 155 161 169 167 170 175 175 177 184 187 186 181 178 178 179 175 178 180 179 179 178 182 183 181 178 176 174 174 169 169 167 164 161 162 160 164 169 173 171 167 160 158 161 151 141 115 94 76 63 50 51 31 22 30 18 17 21 27 30 23 20 26 9 8 10 15 21 61 51 44 48 38 53 63 72 99 120 128 133 135 142 145 153 156 155 155 147 149 150 146 149 151 158 165 173 176 175 175 177 182 185 186 180 179 179 178 179 178 180 181 181 180 183 184 183 181 181 177 175 176 172 171 172 167 166 167 165 165 165 170 168 165 160 163 162 146 142 130 98 86 70 45 35 35 27 19 15 22 34 30 21 20 18 20 6 6 13 19 26 54 54 45 37 37 46 57 77 97 118 125 129 137 138 146 153 155 155 153 147 147 150 147 149 159 163 168 174 178 176 177 182 179 179 181 178 181 179 177 180 178 180 178 181 182 186 183 184 182 179 179 175 177 174 174 176 171 168 168 169 165 165 164 163 162 161 161 155 145 149 144 125 86 70 60 40 29 20 17 16 30 28 21 20 24 26 28 4 10 13 23 46 44 51 47 32 31 40 56 72 89 109 123 127 136 138 146 149 149 154 148 147 150 151 153 150 158 161 167 173 176 179 180 179 184 185 188 186 184 190 186 181 178 177 181 184 186 184 180 182 180 179 180 176 176 177 177 177 175 172 172 173 170 167 165 160 159 158 155 155 149 152 148 144 107 70 60 52 36 23 16 22 17 19 27 24 25 29 30 11 16 17 26 45 30 45 37 29 29 38 55 76 92 105 119 128 134 136 146 147 145 148 147 148 153 155 157 155 154 159 166 170 172 182 185 188 186 183 187 195 187 179 187 182 176 178 186 187 189 186 183 184 181 186 187 182 178 179 178 180 180 179 175 177 173 172 167 159 154 153 156 158 158 155 151 149 125 90 55 54 44 29 16 19 23 27 26 28 26 26 23 8 38 25 28 24 22 33 28 23 25 33 50 68 92 111 122 121 133 133 140 143 148 151 152 154 156 156 158 155 153 155 162 166 172 192 192 182 183 182 185 194 187 183 187 181 177 183 188 190 186 185 188 187 189 192 188 181 180 177 174 179 176 179 174 172 174 174 169 162 156 153 153 154 156 154 151 148 131 119 71 43 45 29 16 19 20 28 44 29 25 23 20 18 38 27 34 16 16 20 25 19 23 31 54 72 92 109 120 122 130 135 138 141 151 152 155 155 158 157 159 160 154 153 165 168 168 190 195 195 192 190 190 188 185 190 193 189 185 182 187 188 183 180 192 193 190 180 179 180 180 176 172 173 170 174 172 166 164 160 164 163 160 154 155 151 155 154 150 146 140 127 99 53 37 31 17 11 16 48 38 32 28 25 23 22 23 26 30 13 12 15 22 19 24 32 55 77 94 105 113 121 123 129 141 148 151 153 155 155 158 162 161 163 159 153 161 166 169 181 185 194 192 194 190 194 189 186 192 188 184 181 182 177 176 174 172 181 171 166 172 150 157 163 165 164 170 162 154 154 150 144 139 150 158 151 154 146 152 154 147 145 136 128 112 57 36 28 22 26 37 34 51 70 38 28 28 16 26 23 18 11 12 10 14 20 26 39 66 90 101 96 116 117 117 132 145 155 160 159 155 159 158 161 163 163 162 161 162 167 168 175 177 179 189 190 186 186 183 186 192 181 177 179 175 181 170 163 156 145 144 160 132 122 121 107 116 124 137 128 129 132 130 122 108 105 119 130 149 148 144 151 144 140 130 133 111 64 35 25 24 27 30 45 36 32 25 26 23 15 28 16 15 9 8 11 11 20 31 45 76 95 109 105 110 111 116 136 152 164 168 164 159 156 160 159 165 171 156 145 136 142 154 157 158 166 181 177 179 186 185 185 185 186 179 175 176 171 164 158 151 131 110 130 121 108 86 82 74 73 70 84 94 91 101 121 117 107 103 108 132 139 136 142 141 143 139 141 116 77 42 23 20 22 31 38 31 23 25 26 23 24 21 17 14 12 8 7 11 24 30 48 87 92 106 109 109 104 119 140 158 170 167 166 167 159 160 157 132 115 113 101 112 106 126 130 143 154 162 161 166 178 175 176 174 171 177 171 167 165 156 150 140 116 97 123 117 80 83 72 60 71 62 64 63 70 81 91 87 73 77 92 105 117 130 132 141 143 144 140 123 78 52 25 19 27 24 27 31 36 35 28 30 30 24 17 20 15 8 6 9 25 27 68 99 93 106 112 110 103 123 144 153 146 142 141 127 126 120 101 82 67 68 70 76 97 102 122 134 150 149 148 160 172 172 172 170 161 170 169 165 168 159 135 138 115 113 105 95 87 69 55 52 58 58 58 59 67 77 71 66 72 67 66 78 90 122 129 130 139 143 140 129 82 53 26 20 23 48 48 42 44 39 40 47 35 30 21 21 13 8 5 8 19 31 77 98 102 104 119 106 101 125 129 126 118 115 108 86 85 67 57 56 51 45 47 59 71 95 110 124 146 138 148 159 168 163 166 171 166 160 161 154 155 149 135 132 120 112 96 97 91 81 78 90 97 98 96 94 95 91 83 77 81 79 69 88 106 118 123 126 136 142 141 134 85 54 30 20 28 45 45 38 34 29 35 35 22 16 11 12 12 7 3 9 19 31 69 96 105 104 115 99 106 111 97 94 93 84 89 86 69 58 57 53 50 59 68 82 77 75 105 113 130 137 138 152 153 157 164 170 166 154 152 153 143 143 130 116 108 103 97 84 69 61 68 67 59 56 55 58 67 75 80 95 98 97 104 109 104 117 128 130 135 141 142 136 91 53 37 22 27 41 37 46 32 15 14 24 26 20 14 8 8 5 4 11 25 35 65 93 103 104 116 105 91 72 65 66 75 76 68 61 53 61 70 79 88 92 94 94 91 81 87 91 102 122 129 138 141 147 159 169 165 161 157 149 136 129 119 107 95 84 67 54 62 85 68 34 29 23 20 26 36 54 76 70 89 113 116 115 119 126 138 131 133 140 143 143 98 62 34 21 26 38 55 77 98 86 25 22 31 23 15 12 7 7 11 12 29 39 58 89 108 103 109 95 71 61 58 52 50 49 64 74 89 99 112 118 110 92 78 69 66 65 65 70 77 91 106 118 127 138 152 166 172 175 166 150 136 126 117 100 83 71 79 102 112 86 54 34 54 59 45 46 60 50 53 84 75 90 106 111 124 134 144 135 131 142 141 145 105 62 32 25 36 63 101 114 147 160 121 40 44 29 7 8 6 8 10 12 36 45 48 87 107 105 97 85 68 61 60 56 66 76 88 99 103 100 82 62 41 30 30 26 40 46 41 40 53 64 81 95 116 137 155 174 187 187 176 163 146 129 111 90 83 97 129 116 82 120 89 46 50 48 55 59 90 102 37 44 78 86 106 117 120 131 144 136 138 143 138 144 113 65 39 31 44 101 135 141 173 175 173 91 39 28 13 17 7 6 11 17 38 44 46 84 100 103 91 81 75 66 64 72 84 89 92 81 62 37 30 22 24 38 53 39 43 71 85 87 63 47 54 75 104 136 165 188 208 196 184 172 154 132 109 104 114 126 126 85 127 199 129 52 43 42 48 49 110 112 79 75 70 91 106 117 126 142 143 138 143 143 139 146 125 73 41 37 57 98 122 130 157 119 130 118 46 35 25 19 9 11 17 15 33 38 45 90 103 103 94 94 85 79 78 80 88 87 66 50 36 60 64 40 50 49 64 56 59 134 99 103 136 114 67 65 92 135 168 184 197 192 182 171 152 135 128 141 168 144 93 90 121 131 125 98 92 96 102 106 100 118 126 114 113 114 125 137 148 152 150 146 142 145 141 145 133 88 44 37 49 70 72 84 49 38 126 140 48 43 41 51 34 30 22 11 24 36 46 96 113 107 96 99 92 96 90 83 83 66 46 32 44 107 106 52 51 42 38 43 81 169 151 85 83 142 133 83 88 126 162 180 193 188 177 165 147 150 150 171 182 165 147 141 122 116 122 121 124 124 109 129 111 125 138 134 140 150 156 160 168 165 164 151 144 150 146 145 137 99 50 41 53 65 92 109 73 97 155 145 47 47 87 126 111 78 26 12 17 29 55 101 115 108 97 109 106 89 91 86 84 69 44 52 77 101 104 86 76 87 104 113 112 113 116 127 137 147 155 103 96 119 159 180 193 185 168 158 145 162 158 175 178 183 172 156 132 125 126 121 136 134 113 129 132 133 137 142 147 160 166 164 167 167 165 154 146 150 147 143 141 111 61 41 57 110 154 168 142 147 153 143 45 53 107 134 146 115 39 16 15 23 61 103 116 110 106 113 129 107 98 102 107 83 53 79 102 101 97 101 110 128 131 149 128 133 143 150 151 149 128 111 103 123 162 177 188 190 176 160 146 161 163 161 167 167 164 160 143 134 138 142 143 135 132 140 143 142 144 147 152 162 166 163 162 164 161 155 148 147 151 147 141 121 75 52 50 126 166 180 152 149 165 131 41 57 91 59 105 105 48 31 16 25 65 103 117 112 114 121 143 144 129 128 132 100 95 98 100 101 107 107 113 126 128 140 140 136 135 132 141 127 133 132 109 126 160 176 188 186 179 160 142 157 171 163 167 164 173 171 164 162 169 169 165 158 154 157 154 155 160 162 165 166 166 164 158 159 160 153 150 148 147 148 141 128 85 58 55 127 173 185 155 150 183 114 42 51 124 60 33 57 56 53 23 38 69 107 116 113 120 132 147 157 159 153 144 135 122 118 117 118 121 125 121 125 130 139 152 150 150 155 140 141 153 132 112 125 154 175 184 178 174 161 139 143 167 171 167 170 171 172 177 178 181 182 178 176 179 177 171 171 171 172 170 173 166 163 156 155 157 151 150 145 143 143 140 129 99 65 58 111 159 179 153 153 185 80 44 41 126 125 30 34 57 62 39 53 74 112 114 117 124 136 151 157 159 160 152 146 135 128 124 128 132 134 135 138 145 160 168 171 166 160 148 155 148 125 113 127 148 175 182 179 174 162 144 137 154 165 161 168 177 178 182 181 181 174 174 176 178 180 173 167 169 174 175 169 171 167 158 156 161 152 150 144 141 140 138 133 105 66 56 123 164 178 159 158 169 50 45 37 101 175 74 44 53 50 51 52 80 114 117 119 129 133 145 153 154 156 157 156 155 150 141 140 148 152 162 165 168 173 179 176 175 162 156 155 138 120 114 127 149 173 180 176 171 161 149 139 144 159 160 159 174 183 179 180 187 185 183 183 187 182 171 170 171 174 173 171 173 165 157 157 158 156 152 142 138 138 138 132 108 73 70 115 173 187 163 167 153 29 47 36 65 167 125 78 96 69 49 45 85 111 116 118 128 135 145 152 153 155 161 164 167 161 161 159 161 162 167 169 175 178 181 180 172 162 158 149 143 122 117 130 149 167 179 179 170 164 154 144 143 154 165 158 164 182 181 177 175 179 179 182 180 181 179 175 174 178 175 171 171 167 162 156 152 153 150 140 139 139 133 126 115 88 70 126 187 195 165 172 129 29 49 40 45 152 156 119 142 106 54 43 85 106 109 115 122 133 144 150 151 150 157 165 169 163 164 164 168 169 171 173 172 188 184 171 167 166 154 141 139 124 120 130 147 164 178 178 171 163 154 148 145 155 165 161 162 177 187 178 178 175 179 175 177 180 181 177 174 176 174 171 170 166 163 157 155 153 149 144 139 138 135 131 115 104 76 149 198 198 159 177 110 28 46 39 24 131 178 139 144 119 57 41 76 110 110 113 116 126 137 143 146 147 155 166 165 167 172 171 177 176 175 172 178 178 179 169 170 169 146 134 129 124 118 127 144 170 178 177 176 165 154 152 148 154 162 160 166 171 182 180 182 180 177 176 174 182 182 181 178 177 175 174 172 170 163 163 158 155 147 141 139 136 136 125 102 110 95 161 205 203 158 181 87 34 46 46 23 101 182 134 138 136 65 37 80 105 116 117 116 126 137 141 141 147 154 158 163 167 171 175 180 180 175 174 181 177 177 172 171 159 139 131 126 121 116 125 152 173 180 181 179 172 159 152 149 149 159 163 164 170 175 179 176 177 178 178 180 179 179 183 179 172 173 175 172 170 165 164 163 155 147 139 138 133 132 122 98 83 100 189 219 208 159 173 65 40 47 51 37 70 184 146 141 136 64 39 76 100 114 114 110 124 134 136 148 152 153 154 163 164 166 170 171 178 180 181 182 174 174 175 172 150 140 134 121 115 114 128 154 174 182 183 180 173 164 155 147 144 150 166 170 173 176 174 172 176 179 176 181 180 178 182 176 173 174 171 167 170 166 161 158 153 143 139 135 130 129 120 86 65 115 190 212 199 165 157 47 41 47 48 41 42 167 157 145 132 56 45 76 99 110 121 111 117 130 136 147 150 150 157 161 161 166 170 173 177 179 184 176 168 173 176 171 148 137 128 114 102 105 126 156 173 189 187 181 172 169 159 147 136 145 158 170 173 179 180 169 181 181 183 186 182 176 178 182 178 175 168 164 162 162 157 152 152 145 141 134 127 128 113 91 70 121 176 194 173 172 134 41 43 45 45 46 34 134 168 152 138 62 49 70 93 104 118 118 114 122 128 140 148 149 155 159 167 167 167 171 178 177 177 177 173 173 171 166 150 138 118 108 98 99 127 152 174 184 190 184 177 170 161 148 143 143 142 155 170 182 179 176 187 190 191 187 187 177 175 182 174 172 168 163 160 157 153 151 150 148 138 130 128 124 102 81 78 134 166 181 153 181 96 34 44 45 46 45 34 86 172 160 158 75 57 70 94 97 112 120 113 112 121 133 142 144 144 154 163 165 169 170 184 179 179 182 177 180 173 164 154 138 115 108 107 102 126 150 172 184 192 191 177 171 162 153 151 153 144 141 160 171 175 182 186 194 190 185 185 181 180 177 171 170 164 164 156 153 155 153 151 145 134 127 130 125 94 66 98 168 159 145 170 182 64 40 43 46 46 47 41 43 152 164 164 100 66 59 85 97 105 113 110 113 119 125 130 133 138 146 158 161 167 170 175 184 180 178 178 179 175 172 159 128 106 123 123 106 129 160 172 192 211 201 185 179 163 155 155 158 158 143 158 165 172 187 188 190 188 186 184 181 180 177 176 170 165 158 155 154 155 152 151 144 134 129 134 127 88 69 113 187 149 157 197 144 35 44 45 47 48 51 46 28 120 168 154 101 66 54 82 102 100 106 110 116 121 118 120 127 135 142 145 154 161 170 171 180 180 177 175 179 176 178 171 128 115 137 130 107 129 157 170 198 223 213 192 187 167 155 165 162 169 153 154 167 168 167 181 185 183 182 183 183 178 177 172 169 160 155 156 157 151 147 151 143 133 135 137 123 92 70 108 177 149 175 195 110 22 43 46 46 48 45 50 29 86 160 147 98 66 57 80 102 101 104 106 113 125 122 119 127 134 135 137 149 160 170 171 177 184 182 177 178 176 176 173 135 127 140 128 104 120 147 163 179 194 193 187 179 161 148 156 155 159 154 147 166 172 161 173 178 180 181 183 182 180 179 171 162 155 154 153 151 153 152 153 144 134 135 136 119 93 73 108 173 164 171 181 80 24 41 44 46 47 45 52 32 50 160 128 110 71 48 78 100 106 109 102 108 125 127 121 124 125 128 140 149 153 164 170 175 184 182 175 177 182 182 172 133 119 125 118 96 96 126 146 159 168 172 176 161 139 133 130 126 134 138 141 172 176 170 173 176 180 180 182 178 178 172 168 160 157 154 152 151 156 153 150 146 138 137 131 109 90 73 121 174 178 176 151 56 38 44 46 45 45 48 48 33 26 157 143 93 79 56 71 94 101 105 105 110 126 127 124 122 125 128 134 144 148 155 167 173 175 178 173 173 174 180 167 120 102 102 91 77 76 92 117 137 147 159 157 138 118 72 44 71 105 112 134 175 179 173 168 175 177 174 175 177 171 166 164 162 154 152 154 158 160 155 153 143 131 135 131 109 90 76 122 177 181 186 132 38 43 46 47 46 46 47 43 35 13 112 184 95 60 63 79 84 101 102 104 105 119 129 130 126 119 124 127 133 140 147 163 172 172 175 177 181 179 179 171 107 80 85 58 24 30 64 94 114 128 140 142 120 72 66 96 98 90 101 153 173 177 177 174 172 171 173 170 171 169 168 162 159 154 157 156 161 162 156 154 143 133 134 133 107 93 82 110 171 182 185 111 32 47 48 45 47 47 49 41 35 22 77 183 118 63 66 59 76 99 104 104 107 118 127 133 133 120 118 125 131 138 145 158 163 171 174 178 173 178 180 170 136 62 74 99 80 39 25 60 96 108 116 117 73 93 153 169 145 127 152 169 170 173 179 177 169 168 170 171 171 169 165 162 158 159 159 159 156 158 158 151 144 138 128 128 107 80 74 118 165 181 168 64 38 50 47 45 46 47 48 41 39 32 43 163 143 74 69 59 78 92 93 98 110 113 124 134 139 136 123 125 133 138 142 151 161 167 171 173 172 177 177 174 167 136 92 99 125 108 68 28 54 79 84 79 104 160 134 125 143 154 154 156 165 175 181 180 173 168 171 167 170 170 163 160 158 158 159 158 152 158 153 145 142 136 126 116 100 77 69 104 150 171 105 31 49 49 45 44 47 48 46 46 46 42 29 111 137 80 65 55 71 84 84 95 108 112 123 132 134 136 128 124 132 135 144 149 157 164 165 169 173 178 173 174 165 162 150 122 124 118 117 89 51 48 57 96 154 140 100 77 88 105 129 133 150 171 175 174 175 171 169 169 167 166 164 163 162 163 167 162 162 160 152 145 137 133 131 122 94 79 65 82 102 73 24 32 46 47 45 45 47 48 48 48 50 44 17 66 135 83 53 58 68 71 74 92 106 109 121 127 130 131 126 122 129 136 145 149 156 162 162 168 172 175 172 171 152 143 126 110 104 92 95 127 140 122 124 136 122 97 78 61 54 62 94 110 143 164 166 173 179 176 171 172 174 170 167 162 163 168 167 160 162 158 150 145 127 129 132 125 99 82 63 41 14 7 21 40 47 47 46 45 47 48 51 52 57 43 19 46 128 91 58 58 70 68 71 92 99 112 118 126 128 137 125 120 122 135 144 148 156 159 168 170 173 172 170 169 148 123 107 85 71 67 72 94 137 134 141 120 82 86 76 60 53 48 63 81 111 143 152 164 174 176 177 175 171 169 171 165 166 169 165 158 160 159 147 136 121 128 123 121 101 74 51 31 17 16 29 46 50 45 44 45 49 48 48 50 51 40 24 21 89 94 54 45 59 73 73 97 97 105 114 118 122 128 129 122 130 138 145 150 152 157 166 169 172 171 168 163 151 103 81 61 51 61 65 89 104 94 117 117 75 67 71 68 51 47 61 56 73 106 128 138 152 164 169 169 172 169 178 174 168 167 163 163 163 152 137 125 117 124 118 124 104 70 49 29 21 18 33 47 45 45 44 44 47 47 46 49 53 44 26 13 41 82 51 41 39 64 71 88 95 98 115 121 118 115 128 125 129 137 151 156 156 158 165 169 167 166 157 147 128 85 56 42 49 65 74 107 67 78 109 136 105 86 69 84 67 52 58 52 60 82 104 120 112 124 148 166 175 174 178 173 170 169 164 161 161 148 137 111 113 132 124 112 103 72 52 29 21 28 41 46 45 45 45 45 48 47 48 51 48 50 38 23 17 32 35 29 38 59 68 78 88 107 106 117 125 121 121 127 133 139 151 156 158 159 161 157 159 141 123 121 96 63 48 49 63 93 95 93 105 141 141 151 148 153 108 83 92 67 61 67 63 78 85 118 108 90 110 131 159 179 174 172 175 174 168 163 156 140 136 135 98 138 125 104 88 67 48 38 39 46 46 48 45 45 45 44 48 47 47 48 46 47 47 40 20 7 15 21 26 39 61 75 87 106 106 113 122 111 120 129 133 136 149 156 155 159 164 149 128 102 98 90 67 58 47 67 73 81 84 117 159 179 180 188 179 164 136 87 79 60 80 73 71 93 85 93 98 83 89 103 129 162 176 178 178 172 165 163 151 127 121 132 103 115 123 105 88 58 46 39 41 47 46 46 46 45 45 45 48 47 46 46 46 46 47 45 22 8 10 22 26 33 52 69 89 88 102 99 101 100 121 122 132 136 146 153 155 155 146 125 99 80 78 79 73 60 54 70 65 79 102 130 127 137 157 178 140 117 130 132 119 93 92 80 97 114 91 93 92 93 86 89 100 140 178 180 180 171 157 165 142 124 118 114 105 109 120 103 77 44 47 41 41 47 46 46 46 46 45 45 49 47 47 46 47 46 46 47 31 11 7 16 26 34 46 68 102 88 97 92 97 96 107 121 133 138 148 151 153 142 112 97 82 68 80 74 83 62 57 69 91 109 119 122 125 116 115 130 123 111 119 127 135 123 106 94 100 109 91 91 98 79 78 77 89 111 158 175 176 166 153 142 132 125 106 103 107 125 110 94 75 53 46 40 45 46 46 47 46 46 46 45 48 48 47 46 46 45 45 45 43 31 17 15 24 33 36 60 92 98 89 100 100 100 104 120 129 140 143 144 150 122 96 63 69 79 82 69 97 88 73 91 100 103 109 110 107 101 98 116 121 106 86 89 81 74 94 93 90 96 95 106 102 91 90 72 90 88 127 167 177 154 142 136 113 113 96 100 114 115 106 87 64 54 43 44 47 47 46 46 45 45 46 46 48 48 48 47 47 45 45 45 47 46 34 22 22 24 29 50 82 88 76 94 87 96 104 107 114 136 139 151 132 107 81 72 78 82 72 77 116 110 89 87 82 75 58 62 67 68 62 59 69 73 69 30 20 15 25 51 67 71 84 94 115 113 109 91 85 80 113 164 170 158 132 128 117 88 85 90 107 105 105 74 56 42 43 45 47 47 47 46 46 46 46 45 47 48 48 48 47 46 46 47 47 48 46 38 37 25 28 40 65 71 75 86 82 85 82 90 109 121 142 152 116 84 66 67 63 63 60 79 103 89 74 67 47 26 21 34 46 56 46 42 55 81 102 64 67 74 75 91 92 82 73 69 90 125 111 112 96 85 96 129 149 150 129 112 104 78 85 96 92 88 85 63 49 40 43 46 47 46 46 47 46 46 46 46 47 48 48 46 48 46 47 48 48 49 49 45 43 31 24 31 49 66 73 82 68 71 65 86 102 123 139 135 92 76 54 61 58 65 87 77 58 51 52 75 87 86 90 97 98 96 104 103 102 105 113 127 136 136 133 129 129 123 126 140 123 141 132 115 125 99 113 144 141 138 123 129 109 77 83 86 87 82 69 47 51 53 46 45 46 46 46 46 45 45 45 45 47 49 47 47 48 48 48 47 48 48 48 47 44 31 25 25 50 58 63 71 64 62 67 76 106 112 111 115 100 88 53 91 85 109 124 93 89 79 87 110 117 122 132 131 128 129 141 138 138 145 148 148 142 145 144 141 138 138 149 159 171 165 167 137 122 112 139 161 148 128 115 122 113 94 75 68 75 86 65 44 56 57 48 45 46 45 45 44 46 46 46 47 47 48 48 50 49 49 49 48 48 49 49 48 46 37 28 29 41 44 55 60 73 73 62 67 92 85 91 119 99 78 62 98 124 141 145 145 144 127 107 109 119 127 140 139 148 154 163 157 152 161 160 161 154 154 151 146 145 155 159 161 170 178 177 174 135 107 117 145 153 123 117 94 89 87 63 75 72 70 57 57 62 54 48 46 46 45 46 46 46 46 46 46 46 47 49 48 49 48 49 48 46 47 48 49 47 42 33 29 26 29 42 53 62 67 63 65 77 74 84 94 93 96 89 107 136 157 163 155 146 140 130 118 112 123 140 145 161 178 177 167 159 168 169 165 156 160 159 153 144 158 165 165 169 178 174 179 178 147 106 100 130 119 96 86 98 68 57 74 69 51 51 66 66 53 47 46 46 45 47 46 47 46 46 46 47 48 48 47 47 49 48 48 48 47 47 49 48 48 38 31 28 27 32 39 49 50 48 73 67 69 78 85 117 120 106 141 155 168 162 141 139 144 142 123 121 129 138 146 148 160 172 177 171 162 157 153 149 149 150 151 154 158 166 171 171 173 174 177 182 173 133 96 112 116 81 80 83 60 62 73 58 48 49 77 69 55 48 45 45 45 46 46 46 46 46 46 49 48 48 47 47 48 47 47 47 47 48 49 48 47 40 33 30 25 23 34 36 41 44 56 57 65 77 88 129 116 116 142 161 166 161 145 139 137 146 139 126 126 138 132 126 128 128 126 124 119 124 128 129 138 151 153 158 163 171 171 166 166 173 183 180 174 166 118 87 92 72 78 81 60 61 70 50 55 72 90 72 57 48 46 47 46 45 47 46 47 47 45 47 48 47 47 47 46 49 48 47 48 48 49 49 47 46 44 33 25 21 26 30 37 43 38 46 51 66 86 105 120 134 148 163 159 158 153 143 138 138 140 128 116 128 123 109 100 93 92 93 89 95 112 124 136 150 152 161 167 169 166 165 168 174 178 173 157 163 139 104 83 73 63 54 47 54 57 48 61 97 91 76 60 49 48 47 47 46 46 46 45 48 47 46 46 47 47 47 48 49 49 48 49 49 50 50 48 49 40 28 29 22 24 27 32 33 33 44 49 75 69 94 134 148 153 163 158 152 149 143 137 141 141 132 114 100 105 107 109 90 92 88 93 102 117 121 145 157 163 168 168 167 165 168 177 171 159 134 140 140 137 105 90 72 48 37 43 34 40 61 66 98 89 78 61 51 47 47 46 47 46 46 45 46 45 47 46 48 47 48 49 49 50 50 50 48 49 50 50 49 23 25 44 26 22 18 26 32 35 29 44 54 64 95 123 132 138 159 164 157 151 146 142 140 145 142 113 107 114 117 115 97 108 96 113 111 135 147 165 168 169 169 170 169 165 169 180 175 156 141 122 118 106 85 84 63 38 35 33 32 44 64 85 101 93 77 63 52 47 47 46 44 46 45 46 45 45 46 47 46 47 48 49 50 50 49 49 48 49 50 52 41 8 27 61 32 20 24 25 28 31 23 32 41 66 82 90 108 130 141 159 160 158 156 147 143 147 141 126 138 126 107 102 124 129 134 151 123 136 164 159 169 167 169 175 174 173 168 168 164 139 133 111 83 89 68 65 52 38 39 25 35 60 75 98 100 89 77 66 55 48 46 46 45 46 46 46 46 47 44 46 47 46 49 49 50 49 50 49 48 49 50 51 28 3 19 65 37 18 22 23 20 18 24 27 37 55 65 77 99 108 128 135 151 163 159 154 149 149 151 144 154 155 139 114 149 142 158 178 166 153 165 168 173 179 177 180 177 173 174 172 159 136 124 100 76 70 57 46 41 38 23 23 46 63 88 104 102 94 82 70 57 49 47 46 45 44 46 46 46 46 46 47 48 47 48 49 49 49 48 46 47 48 48 48 29 14 19 63 56 24 22 18 19 17 20 24 37 36 57 74 83 109 131 121 147 162 162 165 163 161 159 156 167 178 154 148 153 156 180 177 188 180 179 182 187 189 188 184 171 168 168 170 157 125 100 85 64 66 51 43 29 30 28 35 52 78 100 104 102 95 83 74 61 51 47 45 45 46 45 46 47 47 47 47 47 47 48 48 49 49 49 49 47 47 48 48 28 17 16 59 75 37 18 15 19 16 17 20 28 32 45 51 63 87 103 125 145 158 164 173 171 169 167 165 172 173 156 171 158 172 174 177 179 173 185 185 187 195 192 185 167 151 161 159 148 125 83 84 57 50 51 37 24 23 28 43 69 97 104 100 98 92 85 76 64 52 47 46 46 46 46 46 44 47 47 48 48 47 48 48 48 49 50 50 48 48 48 47 26 21 21 52 72 48 21 16 15 12 13 16 20 27 34 42 58 75 93 131 123 139 154 165 176 170 168 171 170 163 159 151 163 161 164 176 176 159 176 173 177 186 186 177 159 155 150 137 132 117 101 72 58 36 46 34 23 21 27 36 91 79 94 96 95 94 89 79 66 54 47 47 47 46 46 45 46 47 47 48 49 48 48 48 48 49 49 48 48 48 48 49 31 24 20 40 83 63 32 12 9 10 15 15 17 25 23 41 41 74 95 95 90 121 118 135 169 159 156 164 161 152 147 131 136 145 168 156 164 163 175 146 158 161 165 161 134 122 123 108 95 98 90 74 43 33 31 28 20 24 30 60 110 38 61 99 95 96 89 80 71 58 48 46 46 46 46 45 46 46 47 48 48 48 48 47 48 48 49 49 48 48 49 50 33 21 25 21 56 78 49 23 14 11 14 12 14 18 15 21 28 72 78 76 85 95 90 111 128 138 120 115 144 138 145 109 99 154 160 123 141 137 163 116 114 125 129 112 122 131 110 97 91 69 66 57 46 29 29 28 23 25 48 107 116 32 30 95 97 96 89 84 78 63 50 47 46 46 46 46 45 45 47 48 48 48 48 49 48 48 49 48 48 48 48 50 28 17 23 20 20 51 68 47 26 15 13 14 18 20 16 21 23 47 58 62 82 70 77 99 104 104 93 101 116 120 139 95 99 149 147 110 131 102 136 128 92 91 107 86 91 97 83 82 76 58 55 36 31 28 29 25 30 58 76 110 116 30 19 79 101 99 102 98 90 72 55 46 46 46 45 46 46 46 46 47 47 47 48 47 46 47 48 48 48 47 49 36 13 15 19 23 22 17 36 54 45 24 19 12 14 18 12 13 17 23 35 76 68 54 68 71 76 71 106 93 100 100 131 110 106 122 145 101 107 87 117 122 95 91 79 70 75 79 76 67 61 50 48 36 23 26 26 22 42 81 93 124 109 26 19 71 116 112 120 114 103 93 68 49 46 47 46 46 46 45 45 46 47 46 47 47 48 47 48 49 48 49 42 25 15 17 18 19 22 23 17 24 48 38 21 14 14 15 10 10 17 27 36 61 43 57 60 55 66 81 90 76 76 76 110 96 98 115 132 91 95 76 121 105 86 92 71 61 67 61 63 60 52 40 34 36 34 32 26 20 47 73 105 140 102 23 18 73 136 129 129 130 125 118 98 64 46 45 46 45 45 46 46 46 48 46 46 46 47 47 48 47 50 43 27 26 21 19 19 17 17 24 24 18 17 29 25 19 19 16 9 17 18 21 29 23 42 55 61 64 60 72 65 80 62 64 78 94 85 103 102 80 96 73 107 90 74 87 71 61 59 60 53 45 45 37 25 27 29 31 22 32 70 98 133 145 79 20 19 76 139 132 137 143 138 133 113 86 57 46 46 44 45 45 46 46 46 47 46 46 46 47 48 50 43 29 25 27 24 19 22 20 17 16 22 23 21 13 10 17 18 25 14 17 12 18 18 19 33 45 46 53 50 51 60 73 62 59 66 77 79 93 79 77 82 72 78 73 70 73 71 60 60 62 56 31 26 27 20 25 28 27 26 58 98 127 150 131 44 21 20 100 143 136 144 148 146 138 117 96 71 50 45 45 45 46 46 46 46 46 47 47 46 47 49 45 29 26 26 29 24 18 21 21 19 17 16 19 22 20 7 7 11 11 9 13 14 19 13 19 20 24 27 43 47 37 51 57 70 62 54 66 85 86 57 64 80 65 67 65 61 60 52 46 46 41 38 24 25 24 22 26 24 31 47 81 121 142 148 84 21 24 35 124 140 133 136 148 149 134 118 97 75 58 48 45 45 46 46 47 46 46 47 46 47 49 44 31 27 26 26 31 28 19 22 22 22 22 19 16 17 19 16 12 6 2 6 11 12 11 17 10 12 16 20 21 33 32 34 47 54 58 60 69 71 72 63 56 61 67 51 58 39 38 39 36 25 26 25 25 21 15 21 16 13 25 64 101 128 152 87 23 23 20 57 115 117 119 121 129 138 132 116 95 78 64 56 50 47 47 48 48 47 48 46 44 42 38 30 25 28 27 28 32 29 18 22 22 26 24 22 19 16 16 19 12 7 3 1 7 10 13 17 10 5 9 18 16 31 36 31 33 34 44 45 63 72 58 47 38 39 47 47 50 30 31 32 35 23 24 21 18 9 18 19 12 29 33 56 116 131 76 25 21 25 17 51 99 104 108 109 112 112 110 106 98 87 77 69 62 57 56 48 46 44 39 35 32 29 25 24 27 28 29 30 32 31 19 23 23 24 23 23 21 20 19 17 14 10 7 2 8 9 12 13 6 5 7 13 17 28 41 40 30 28 37 36 38 57 58 30 25 33 45 63 39 29 43 34 17 17 13 11 12 21 17 16 24 33 54 96 108 52 17 21 26 21 17 35 85 99 100 103 103 99 95 97 98 92 87 80 73 72 70 39 34 27 25 27 28 25 25 29 30 28 28 31 35 35 21 21 24 24 23 23 22 21 21 17 13 10 9 3 2 4 2 3 2 4 4 13 22 25 30 32 28 21 22 27 27 27 26 20 24 30 34 48 36 43 40 25 21 19 9 8 12 15 16 33 44 55 69 55 22 17 24 21 19 19 22 28 48 74 88 93 93 90 90 95 95 95 92 87 83 80 79 24 23 23 26 30 26 25 30 33 30 29 30 32 35 34 23 22 26 24 23 23 24 23 22 22 19 15 10 6 2 0 1 1 2 2 4 9 22 19 19 29 25 21 14 16 15 23 21 19 25 20 21 31 29 28 22 26 39 13 10 11 11 13 31 38 33 32 27 16 21 22 22 18 19 23 23 28 38 41 50 63 74 84 87 92 93 92 93 87 85 85 83 22 24 30 33 28 26 30 34 34 31 31 32 31 32 34 26 21 24 23 23 22 22 23 23 24 24 20 16 13 6 0 0 0 1 2 4 5 14 11 13 20 18 26 22 16 15 12 14 17 17 11 13 13 15 22 31 22 18 9 12 14 18 17 20 13 15 17 22 23 21 20 17 20 23 23 23 26 40 37 30 27 34 48 63 74 83 85 85 81 83 84 82 25 31 35 31 27 26 30 33 33 34 34 33 34 33 35 27 20 24 23 23 22 22 23 24 25 24 23 22 19 9 3 1 0 0 0 2 2 3 1 0 7 9 15 9 17 27 10 16 19 24 27 11 8 11 12 11 6 6 12 11 10 6 3 9 17 19 22 22 19 18 20 22 24 24 24 23 26 40 41 36 30 27 24 27 36 47 55 61 65 67 69 71