P2
# Generated by OpenCV 4.2.0
92 112
255
13 15 8 8 8 7 10 19 20 13 15 11 11 11 18 23 21 17 18 21 29 37 46 45 48 54 57 64 66 77 102 99 106 91 95 89 98 89 104 111 119 111 106 116 122 107 105 114 110 117 92 99 102 93 104 109 121 117 110 95 77 79 80 77 63 50 46 42 34 33 31 19 33 28 17 25 33 33 32 28 23 10 8 10 12 10 12 20 17 21 22 28 17 13 8 7 8 8 10 19 27 17 14 15 15 16 17 19 26 27 25 34 30 34 46 47 61 80 81 83 83 85 96 120 105 117 100 112 118 119 117 119 123 131 128 129 132 125 127 118 127 123 114 120 127 115 114 122 131 128 126 107 89 83 87 81 65 62 56 49 43 40 36 35 33 32 31 33 38 34 29 24 19 18 14 10 10 13 12 6 11 16 18 21 22 10 3 6 5 15 17 41 24 27 19 15 18 31 27 15 24 33 31 31 37 44 46 60 68 67 77 81 92 104 113 107 119 132 140 135 134 138 143 137 133 148 145 141 139 141 140 139 148 133 134 136 129 126 135 126 128 143 134 118 101 99 96 97 85 64 75 65 53 40 32 31 42 34 33 48 51 42 30 29 22 15 18 21 22 27 23 19 15 18 21 32 15 16 5 14 28 19 14 29 27 29 28 23 21 28 41 40 40 45 32 31 41 56 49 63 73 84 92 94 97 116 117 131 133 146 152 145 145 150 154 155 156 162 159 156 156 148 154 153 145 146 147 140 144 141 134 138 146 146 134 138 134 121 116 101 96 81 71 65 59 51 44 42 41 35 40 34 48 57 36 27 18 17 16 21 15 5 8 20 22 13 19 27 6 21 4 5 14 10 31 27 30 22 26 29 31 31 37 39 49 41 36 45 46 54 50 49 53 68 75 90 93 111 124 134 139 152 158 161 160 164 161 160 157 164 160 156 158 160 159 165 157 156 150 153 155 156 152 157 158 146 142 133 136 132 124 123 111 91 75 58 53 54 50 42 54 47 45 36 34 44 43 39 24 15 13 14 16 18 13 9 11 14 16 21 18 21 8 8 45 36 23 27 31 28 25 33 36 51 57 61 74 52 50 69 56 59 34 52 58 56 71 90 90 102 110 125 140 151 158 166 167 168 168 164 166 161 161 159 159 160 159 159 163 161 154 153 153 158 158 158 160 161 151 150 145 141 140 126 115 103 88 71 60 63 55 46 38 35 29 46 39 51 40 37 43 18 10 12 10 14 16 15 16 15 25 20 23 10 26 9 16 20 20 26 32 40 43 53 58 69 75 79 93 83 62 52 99 68 42 43 60 76 72 75 81 94 109 131 146 157 165 166 167 170 169 163 166 164 162 160 164 164 163 161 164 162 158 159 159 164 164 164 162 161 153 153 153 147 143 137 132 120 101 77 71 66 54 55 48 40 24 39 40 37 51 48 33 35 32 8 12 18 13 17 15 15 12 10 28 12 42 15 20 25 32 34 41 50 53 64 73 81 86 86 99 109 93 68 56 87 85 61 59 66 88 98 92 108 124 146 156 167 176 168 170 171 171 167 168 166 164 163 165 165 165 163 167 164 164 164 164 166 166 166 164 159 157 152 158 149 146 139 134 132 116 95 79 68 56 49 42 41 33 25 35 39 45 56 64 43 30 24 20 14 16 17 17 15 23 19 24 16 36 9 13 25 42 45 52 51 61 69 84 93 100 112 126 128 138 138 93 117 95 85 79 86 96 99 102 127 144 149 155 169 165 170 171 170 170 169 166 167 166 165 164 165 164 166 164 163 164 164 164 163 162 167 164 157 160 160 160 152 146 143 137 141 122 105 95 90 54 37 39 40 38 38 37 24 25 32 37 46 32 36 33 23 22 16 19 20 23 19 36 15 36 22 36 45 51 59 68 64 70 79 99 112 122 129 126 137 137 136 132 118 120 123 113 114 120 114 114 134 149 157 162 169 167 170 171 170 171 168 166 168 166 165 164 164 165 164 165 165 164 165 164 163 163 167 164 160 160 156 160 151 145 144 141 140 134 112 104 86 71 61 45 41 39 35 36 20 30 42 45 39 30 29 31 32 23 24 31 35 24 16 16 19 38 26 34 39 64 82 88 87 94 101 120 131 134 144 149 145 143 147 141 137 142 141 140 140 132 133 139 138 154 172 175 173 172 170 170 171 171 169 167 167 166 164 164 165 165 168 168 168 164 165 165 163 163 167 162 165 162 158 168 156 140 148 146 135 135 121 95 85 77 50 55 48 40 37 37 25 26 31 35 49 45 38 29 19 17 16 21 24 30 25 40 9 33 26 47 41 72 88 98 100 107 127 131 142 142 147 146 151 151 151 150 152 154 148 150 151 158 156 156 151 162 172 172 172 171 172 171 169 171 170 170 167 166 165 163 164 166 167 168 168 164 161 160 166 165 166 160 161 161 163 168 154 141 149 147 142 128 119 116 97 81 60 66 64 52 44 40 31 22 28 39 24 52 24 33 41 32 21 21 13 24 44 28 30 19 33 48 52 76 93 98 100 118 126 132 141 143 149 149 150 150 150 154 155 156 161 163 165 160 162 161 165 168 171 172 173 172 174 171 169 171 171 170 170 168 165 165 166 168 167 167 167 166 164 162 162 162 162 161 160 160 165 165 155 145 152 148 142 129 118 111 99 86 70 60 59 55 48 44 35 24 20 30 44 35 25 22 24 36 36 30 27 28 14 19 29 9 32 50 62 72 89 101 111 127 130 132 140 143 152 154 156 156 155 158 159 161 161 163 166 164 168 170 173 172 171 173 173 173 173 172 169 171 169 170 173 170 168 170 168 167 163 164 164 165 162 162 158 159 159 161 161 161 168 162 156 153 158 151 141 129 119 105 101 92 75 61 53 52 46 44 36 32 22 18 28 31 31 20 20 28 51 52 19 22 29 27 20 11 25 42 67 67 90 109 115 129 132 135 137 146 154 159 163 159 163 158 161 166 165 165 166 168 171 172 171 172 173 171 173 172 173 173 173 170 171 168 169 169 169 170 168 167 162 163 164 161 160 159 160 157 156 158 155 161 168 160 157 160 155 154 142 129 118 102 98 92 80 59 53 48 40 37 26 23 19 15 15 21 20 15 28 20 21 20 22 33 18 15 22 15 20 35 64 69 90 111 119 134 138 138 140 145 153 158 162 159 163 158 161 167 166 166 165 169 171 172 172 173 172 176 176 175 172 172 172 168 167 165 168 169 170 168 166 163 163 163 162 160 159 156 161 159 159 157 156 162 167 162 159 167 156 152 144 128 115 105 107 94 76 61 58 49 37 34 21 14 11 9 11 15 17 19 12 21 24 24 23 34 24 13 15 17 19 32 55 74 87 109 119 136 139 140 141 143 150 156 166 162 166 159 161 167 166 166 165 169 171 172 172 171 172 174 171 168 170 170 170 169 168 166 170 169 167 166 164 162 163 161 157 158 157 155 155 157 157 160 158 164 166 162 164 164 156 153 147 140 123 100 106 103 86 70 59 47 34 28 18 18 14 11 5 12 21 16 10 12 10 11 10 12 15 14 11 15 22 33 46 76 85 99 122 131 140 139 141 144 150 154 156 161 160 161 163 165 167 167 166 169 170 170 167 172 174 174 167 170 170 170 169 171 172 170 170 169 167 165 163 161 164 161 160 156 158 159 156 158 159 161 163 166 164 162 165 156 157 156 151 132 120 112 103 94 93 81 61 38 40 23 17 16 11 7 10 16 18 18 15 11 8 7 7 17 15 10 6 11 21 31 55 55 86 99 122 131 141 139 141 142 146 149 157 163 162 162 164 165 164 164 164 166 165 165 168 170 172 172 169 171 171 171 171 170 172 171 171 169 166 167 163 162 161 159 157 158 160 161 162 164 164 163 164 165 167 166 166 156 158 155 145 139 130 114 104 92 87 76 66 49 30 30 12 10 8 7 9 15 15 16 13 12 10 13 16 18 10 11 9 9 16 26 65 53 79 112 122 132 141 139 141 146 147 146 156 162 161 162 164 164 166 166 165 167 167 166 169 171 170 169 173 172 171 171 171 170 171 171 170 169 167 168 166 165 164 162 161 163 161 161 158 160 162 168 165 162 164 164 164 156 158 155 148 140 135 124 111 98 84 70 64 62 41 34 21 11 7 11 11 13 12 16 16 17 17 15 16 10 15 5 10 8 8 26 69 83 74 119 121 131 137 141 141 148 150 148 156 160 162 160 162 166 166 168 168 168 170 168 170 171 171 171 174 171 170 168 170 169 170 170 171 170 167 166 166 165 163 165 166 163 162 159 164 165 163 164 163 163 159 158 156 161 160 158 151 142 132 132 122 105 88 71 57 50 47 29 18 20 9 18 22 22 23 26 22 20 15 10 12 6 12 4 9 8 10 26 73 87 80 120 121 130 137 142 141 145 149 147 151 158 160 161 162 166 166 170 168 169 170 167 170 172 171 172 172 171 171 170 174 172 174 173 173 169 168 166 167 167 164 165 166 163 162 160 158 162 165 169 164 163 167 166 163 159 159 155 154 149 137 130 126 109 88 73 60 50 46 35 22 20 17 24 19 15 16 19 19 24 21 13 13 8 10 5 10 11 10 29 85 89 91 123 123 130 137 142 141 145 147 146 148 153 157 162 162 167 165 170 168 168 170 166 170 172 172 172 172 172 165 165 170 172 172 173 172 170 168 167 168 168 167 166 166 166 163 162 164 166 169 163 161 162 162 161 159 156 156 153 155 152 139 128 125 115 99 83 66 56 47 38 29 18 24 25 16 10 13 7 9 13 23 22 16 16 13 5 11 10 12 39 89 83 99 122 125 131 136 141 142 140 145 143 145 150 153 161 163 167 167 171 171 169 168 168 170 171 170 173 171 170 169 170 173 170 169 168 170 168 168 169 170 169 167 166 165 161 163 165 160 162 160 160 163 164 165 162 160 156 154 152 152 148 136 126 129 120 107 95 67 60 49 40 31 21 24 20 15 14 19 17 13 13 17 23 24 21 20 14 7 22 13 63 93 67 106 123 129 132 135 135 136 140 144 147 149 154 155 159 163 165 168 170 171 175 175 175 173 173 173 170 172 170 168 169 169 168 167 167 165 166 165 169 169 169 170 171 171 172 174 177 177 177 172 166 170 164 162 160 156 157 155 153 148 145 135 129 131 123 116 117 81 66 57 50 34 27 23 23 21 16 13 11 11 11 13 21 23 13 10 37 19 13 33 80 66 97 110 128 130 133 133 133 134 141 145 148 151 155 158 159 162 163 167 170 169 171 172 171 173 173 173 171 172 172 168 169 169 168 169 171 174 174 174 176 176 176 174 175 175 174 175 175 174 174 169 166 170 166 162 160 156 155 153 151 146 146 140 135 133 126 118 121 92 74 62 51 39 33 24 14 13 7 5 8 7 8 13 17 22 22 15 17 26 24 48 72 104 98 121 129 132 133 134 138 139 143 147 149 151 154 154 158 162 166 164 167 168 167 169 169 171 171 172 171 171 173 173 173 172 171 173 175 174 173 173 171 172 171 174 173 173 176 176 174 172 175 175 169 172 168 164 162 159 153 152 149 147 147 140 137 133 128 123 119 105 92 69 60 44 33 24 13 14 11 11 8 8 9 9 17 24 21 12 12 16 17 75 99 107 109 119 129 133 134 137 137 138 143 148 152 152 155 156 154 158 160 167 169 169 172 176 179 176 174 177 175 171 173 175 175 174 175 174 173 177 174 172 175 175 175 175 175 175 175 174 175 175 175 174 172 171 169 174 168 160 157 156 150 148 147 136 137 135 130 126 121 113 102 71 60 46 31 28 17 17 11 10 9 9 11 14 35 19 22 15 36 23 22 73 89 104 111 123 129 133 133 138 137 137 144 148 151 156 160 163 165 165 165 167 169 171 173 177 180 178 174 180 176 172 175 175 175 175 176 176 177 179 176 174 175 175 173 175 175 175 175 175 174 174 175 176 173 171 170 176 170 161 164 160 156 154 149 135 136 135 130 124 122 117 110 81 65 53 35 28 17 13 13 16 11 11 16 17 27 34 41 21 30 12 38 74 99 101 111 127 129 132 133 137 136 140 145 149 151 162 169 170 169 168 167 169 171 172 174 178 181 178 175 178 176 174 178 176 175 176 177 178 179 179 177 175 175 175 174 171 172 172 173 172 173 170 173 173 175 172 172 167 167 165 168 164 160 155 150 136 135 133 131 122 120 117 114 90 75 61 37 27 16 8 22 19 15 18 14 39 114 150 166 154 28 16 47 80 102 112 116 128 127 131 133 137 137 146 150 155 154 160 166 167 171 171 171 171 172 175 179 182 186 181 177 180 179 176 173 173 176 177 179 179 181 178 176 173 173 173 173 174 174 174 171 172 172 170 176 174 172 168 168 165 166 166 167 164 160 162 153 139 132 133 129 123 121 120 115 105 83 65 40 25 17 10 26 15 16 21 36 96 152 156 151 150 26 25 50 83 105 119 121 126 129 132 135 140 138 147 152 158 156 158 162 168 172 171 170 173 172 177 175 179 181 181 176 177 182 179 167 175 176 178 176 176 175 177 176 174 171 172 171 172 172 172 167 168 168 167 169 166 161 162 156 160 160 160 160 160 159 160 156 142 132 131 127 123 121 119 117 112 96 77 48 28 19 21 20 15 10 37 90 144 134 138 147 139 21 28 55 85 106 119 120 123 129 132 135 140 139 149 156 161 159 156 160 168 170 170 170 173 173 178 179 183 185 180 175 174 178 180 171 174 176 178 177 176 174 178 175 172 171 171 168 167 166 168 163 162 163 161 162 157 149 153 145 135 137 136 141 140 141 151 151 144 132 129 125 122 121 118 117 118 104 86 57 34 23 25 17 20 19 81 121 135 133 136 114 79 21 28 57 83 106 115 122 124 130 136 137 140 138 150 160 163 160 156 158 162 165 167 168 168 168 172 176 178 180 178 178 177 179 177 174 172 174 175 176 174 171 169 168 167 165 165 162 165 159 164 162 158 156 153 146 130 118 121 120 119 121 112 101 118 117 124 129 137 136 123 128 120 118 118 118 117 105 93 67 43 28 24 48 23 24 97 119 112 113 75 38 51 19 33 59 83 107 111 117 125 132 138 139 142 141 151 160 162 161 159 156 159 161 163 164 170 170 175 173 172 171 174 173 173 173 172 171 169 167 167 171 167 162 162 164 165 158 157 159 145 155 135 133 126 120 112 97 84 77 84 86 99 102 102 106 105 101 102 110 124 130 120 120 117 116 117 118 117 111 107 89 59 29 34 25 32 17 99 117 82 86 75 57 48 21 32 58 81 104 108 115 126 134 140 141 143 143 152 160 163 161 161 155 157 159 161 160 164 164 170 176 172 170 171 170 170 171 170 167 165 163 161 157 158 160 148 147 152 146 142 141 132 107 99 80 72 68 70 62 60 68 74 77 63 58 69 60 88 88 92 95 102 119 111 115 114 114 118 118 116 114 114 103 70 37 28 43 24 38 91 80 72 88 114 94 53 19 27 61 86 98 109 114 127 139 142 147 146 146 151 156 162 159 158 152 150 148 157 158 161 163 169 170 171 168 168 169 167 170 168 166 165 165 162 161 157 152 153 127 118 121 134 133 122 95 87 64 62 61 54 54 55 52 61 66 68 67 67 68 70 75 81 90 98 103 105 112 117 117 118 118 119 119 119 117 81 45 35 40 35 53 77 79 112 115 118 130 91 11 33 63 87 97 104 112 132 150 151 155 147 146 148 157 162 161 158 159 140 143 146 146 151 153 159 162 167 167 164 165 164 165 164 162 163 161 160 159 151 143 126 135 109 92 113 128 86 71 58 46 47 46 53 54 53 56 66 73 73 71 73 71 74 78 84 91 90 100 106 115 118 117 117 122 124 126 130 119 100 60 37 38 41 66 76 95 118 135 138 136 111 6 39 68 83 93 105 116 132 143 142 144 140 137 139 146 152 151 141 148 119 115 126 139 144 148 152 153 161 161 164 165 163 161 161 160 156 155 153 152 147 143 127 99 113 103 98 98 70 65 59 54 59 65 78 78 77 76 81 82 81 83 83 84 87 91 92 88 92 104 111 122 123 122 123 124 128 131 132 117 113 82 46 42 60 76 89 117 127 135 133 120 109 6 34 70 87 94 104 114 130 132 118 123 122 123 124 135 119 107 92 98 108 109 114 122 129 131 142 146 149 154 160 163 160 157 155 153 154 151 148 146 145 137 126 117 92 100 85 77 70 69 67 60 58 58 59 62 63 58 54 49 53 55 50 64 76 81 83 90 99 105 114 124 129 129 131 132 134 136 134 131 116 101 69 57 71 67 47 47 82 111 126 129 107 6 28 77 84 93 96 109 108 96 90 87 87 86 87 81 75 64 58 58 67 100 102 103 113 112 138 142 142 145 154 155 152 152 150 149 149 146 143 137 133 123 115 113 93 89 87 77 70 57 39 26 49 64 65 49 41 48 47 59 74 71 72 58 50 65 83 92 105 109 121 128 132 136 141 143 143 142 139 146 125 115 87 76 78 71 47 59 70 102 116 133 126 6 23 81 80 96 90 98 81 77 94 79 73 58 48 36 47 43 61 53 64 70 82 84 96 102 122 124 129 136 149 151 147 153 149 150 145 142 140 133 127 114 106 92 90 78 73 59 46 30 42 64 38 26 36 76 38 37 38 60 46 40 40 51 74 80 87 97 111 125 123 131 144 143 143 148 149 146 143 138 141 124 110 92 85 67 55 54 62 94 109 132 131 11 22 83 79 89 84 70 60 60 62 68 59 44 41 40 45 48 50 55 58 72 81 84 80 89 96 113 123 136 137 139 143 148 150 147 148 144 136 130 120 105 97 89 81 73 56 44 41 56 71 43 34 33 10 15 18 31 32 94 99 67 45 69 73 94 109 115 125 130 142 142 144 143 144 145 146 146 144 144 142 137 122 110 97 72 60 43 65 84 122 130 139 8 16 73 81 86 80 68 60 54 51 57 63 67 70 70 78 83 82 81 80 71 73 76 77 82 84 93 102 112 125 131 141 141 149 150 149 149 143 134 125 110 97 86 75 64 48 55 81 80 60 113 51 45 17 49 34 43 45 94 107 81 92 84 99 114 124 128 131 139 148 147 150 150 149 149 149 148 143 145 147 143 137 124 106 95 77 64 69 86 121 127 140 6 12 71 88 83 71 52 48 48 49 54 63 78 84 90 90 91 76 60 51 45 36 34 35 43 48 61 80 100 104 115 127 141 152 156 161 162 158 147 137 121 107 87 67 66 78 99 93 64 113 127 98 43 52 44 67 49 61 121 114 86 112 104 103 121 134 140 147 150 159 154 153 152 154 154 152 147 142 146 149 144 138 134 116 122 95 82 85 93 121 135 150 13 23 69 78 85 82 61 57 61 70 73 74 84 83 69 48 50 41 33 31 36 27 54 58 65 58 46 48 48 82 106 125 146 159 167 176 174 169 158 148 131 117 100 99 125 144 121 103 101 93 114 118 75 63 65 68 105 121 111 99 120 120 118 117 129 140 145 152 157 158 158 158 157 155 154 146 151 143 142 141 140 142 135 128 131 120 90 88 98 129 131 144 15 22 66 79 87 95 84 80 78 82 83 81 68 55 49 35 30 22 23 18 50 37 41 78 69 74 79 86 92 57 71 124 151 167 177 180 180 174 163 151 135 125 126 126 161 156 150 143 124 121 116 113 122 151 142 121 103 101 107 128 127 121 116 124 139 150 154 159 160 160 160 160 159 156 157 150 151 143 141 141 138 142 140 131 122 135 86 90 124 142 125 145 17 22 65 81 85 101 95 94 90 81 75 64 46 51 20 52 44 34 21 4 50 33 35 112 119 116 99 72 106 117 101 119 145 162 176 183 181 176 160 150 133 136 139 138 155 148 160 142 144 132 136 139 123 121 99 115 112 120 123 128 118 119 131 141 152 153 154 158 160 161 162 158 155 153 155 148 147 142 142 139 139 140 135 124 125 125 103 85 122 142 123 145 20 24 68 82 95 104 116 102 93 88 75 60 57 20 38 57 57 49 43 30 23 40 54 119 121 95 92 100 118 125 119 120 140 157 169 176 178 168 158 148 136 140 145 143 149 154 160 150 138 125 124 118 121 126 122 129 116 122 119 112 115 135 148 155 160 160 160 161 161 160 157 158 156 152 147 146 145 146 139 142 136 139 130 121 134 117 99 131 154 162 135 113 19 30 63 89 94 108 116 117 103 99 89 72 42 53 59 67 96 53 40 46 39 47 86 108 111 113 137 137 139 126 123 130 136 150 160 173 171 160 155 147 141 144 151 152 155 152 150 156 155 154 148 137 126 123 120 114 114 115 130 146 152 152 159 165 167 165 165 164 162 160 158 158 156 151 147 145 143 144 138 139 133 135 126 112 128 99 106 155 170 154 106 103 17 35 58 94 97 116 122 136 120 116 106 102 96 75 76 95 102 112 109 126 121 129 112 133 139 146 125 121 137 130 141 133 138 151 160 163 167 161 153 148 142 146 155 157 157 159 160 157 157 158 149 151 157 152 141 150 153 154 153 156 154 159 160 166 164 167 168 167 161 160 158 154 152 147 145 144 142 142 137 138 131 133 125 111 101 96 114 149 165 151 102 119 22 37 58 87 99 119 128 132 132 126 122 122 116 102 102 98 91 87 84 98 90 123 137 129 132 112 121 133 136 140 145 136 138 149 158 166 169 166 157 145 141 142 153 156 161 163 164 171 164 162 160 159 157 162 152 155 153 160 162 157 161 160 158 161 164 165 168 166 161 159 155 154 150 147 143 142 143 141 137 135 136 131 120 110 110 92 125 146 146 149 113 109 24 29 60 91 98 119 128 132 134 133 130 131 123 115 110 114 118 119 109 111 124 119 129 123 118 137 143 142 144 149 146 142 138 150 157 165 168 164 155 146 141 143 149 156 162 163 164 169 173 171 168 166 165 168 164 164 166 166 168 162 165 163 164 164 166 166 171 166 161 158 153 152 149 145 143 142 140 137 135 134 133 131 121 110 102 102 128 143 145 158 160 129 29 37 54 88 103 119 127 131 134 138 139 134 128 127 118 111 113 124 119 120 109 108 100 128 150 147 154 152 161 152 143 141 138 150 157 164 166 162 156 145 140 141 143 155 156 158 159 162 175 173 169 169 167 165 165 162 168 162 163 170 173 171 170 170 169 166 166 160 158 155 151 150 147 144 142 142 137 132 136 136 129 127 116 105 92 106 128 136 141 159 184 172 30 32 55 93 103 111 133 134 137 138 138 138 139 136 134 126 120 114 111 111 128 141 148 153 160 159 158 159 156 148 142 137 139 148 160 165 166 163 158 148 142 140 147 152 154 155 158 159 168 173 174 171 170 168 169 168 164 166 168 170 170 170 170 166 165 169 164 157 154 153 150 147 146 143 141 139 138 136 134 130 127 116 109 100 100 95 117 136 159 174 177 181 30 40 45 89 101 110 131 133 137 137 139 142 143 144 146 145 146 149 150 156 158 156 154 156 161 157 163 161 156 145 143 141 139 148 160 165 168 164 158 148 142 142 144 147 154 155 155 155 164 169 168 167 165 170 170 170 167 168 169 168 169 169 168 163 163 164 161 155 155 156 153 146 144 141 142 138 133 130 130 129 126 111 114 103 111 105 122 156 169 177 182 172 25 50 40 90 105 112 129 131 137 138 139 145 151 151 155 153 153 153 153 157 152 157 161 163 165 161 161 158 150 144 144 143 139 147 160 166 169 166 157 148 141 143 144 144 151 152 154 156 167 171 174 172 171 172 172 173 167 169 171 166 166 166 165 159 160 154 151 148 149 149 146 144 143 140 140 136 127 126 127 128 126 130 99 102 107 116 143 177 165 182 178 158 29 35 40 87 100 116 122 128 134 135 143 147 152 150 156 156 156 159 158 155 157 162 164 164 159 158 163 159 147 146 145 139 140 149 158 164 168 165 155 147 146 142 141 145 149 154 153 158 162 167 172 171 172 171 171 171 175 175 171 168 167 167 164 162 157 152 152 151 146 147 146 148 145 141 139 135 129 122 126 128 124 117 94 96 77 106 137 146 155 170 167 132 23 30 41 77 97 112 121 127 134 135 143 146 151 150 156 159 161 161 158 156 158 160 162 164 156 159 161 155 148 145 144 137 139 150 161 165 166 165 158 148 145 142 139 141 143 146 150 156 161 166 170 171 172 174 175 174 175 174 172 170 167 163 164 160 157 153 151 149 144 145 145 146 144 140 136 133 129 128 130 131 123 110 83 88 79 92 120 115 66 108 92 106 26 30 41 68 94 110 117 126 134 136 142 144 149 148 152 156 160 161 160 158 160 160 159 161 158 162 160 151 149 143 142 135 137 153 165 169 172 169 162 150 144 143 137 139 139 138 149 154 159 164 166 171 176 172 172 173 175 174 173 162 163 164 162 159 154 154 150 145 143 145 143 144 143 138 131 129 129 129 126 123 124 90 97 84 88 70 81 64 71 37 50 24 22 22 39 60 94 109 117 122 129 136 136 140 146 149 151 151 154 158 159 155 160 160 161 161 165 163 161 153 147 145 137 135 140 156 168 172 173 168 165 154 145 141 137 133 134 140 141 146 152 159 166 168 167 171 170 173 171 170 168 165 164 161 157 153 156 150 148 143 141 140 139 137 138 138 134 131 129 132 124 121 108 82 98 74 73 62 28 54 45 37 12 18 23 21 40 59 91 108 116 121 125 132 133 138 145 148 149 151 153 158 159 154 159 159 157 161 162 164 159 151 146 141 135 135 144 162 169 173 176 173 167 157 147 142 137 133 131 137 139 142 147 154 160 163 167 165 169 174 170 170 167 165 164 162 160 154 154 146 143 139 140 139 134 136 138 138 136 129 128 133 126 118 105 80 104 80 72 55 6 28 14 20 19 27 26 23 41 49 77 102 110 116 123 129 130 137 143 146 147 149 151 157 158 155 157 157 156 158 157 164 157 149 145 137 134 137 147 167 167 175 180 179 170 159 151 139 137 132 135 141 142 137 142 150 155 160 166 168 167 168 169 167 164 164 164 162 162 154 152 146 143 139 137 137 138 137 137 137 137 127 126 131 121 118 106 90 79 80 62 51 12 50 21 12 16 24 25 21 42 38 74 102 113 114 120 127 129 131 140 143 148 153 151 156 165 160 161 161 159 163 165 162 158 147 136 136 136 135 151 161 168 170 179 176 184 174 153 145 133 140 139 140 141 144 137 151 152 154 161 163 167 168 163 163 163 166 163 159 156 153 149 148 146 144 138 139 143 140 138 136 134 129 124 125 128 114 109 91 74 80 65 36 12 31 33 21 15 21 15 27 35 43 72 99 113 114 122 125 123 127 135 141 146 151 149 154 161 161 161 161 160 164 164 163 154 147 139 139 138 137 152 161 168 173 181 177 182 177 162 149 135 139 139 141 142 141 135 140 154 158 155 160 164 163 164 165 165 164 161 157 151 151 149 145 143 142 142 143 143 140 138 137 133 127 125 125 121 121 91 98 85 90 63 51 13 9 19 29 20 22 26 33 33 47 70 96 112 116 121 121 120 124 133 137 144 149 148 152 156 162 160 160 159 163 164 164 153 149 141 139 141 139 150 161 167 173 183 180 174 174 162 152 137 138 139 141 142 139 134 130 145 156 156 156 162 160 165 165 165 161 159 155 148 148 150 149 146 144 146 145 142 140 137 136 130 126 127 125 104 117 103 77 78 89 56 54 14 6 18 23 20 19 20 29 26 52 61 75 107 114 121 122 120 121 127 133 137 145 150 152 156 157 162 162 161 163 161 155 149 149 144 143 143 142 152 161 166 173 180 179 174 166 159 152 141 145 141 140 141 134 136 119 149 161 159 155 156 162 161 161 160 158 157 156 150 148 146 145 145 145 143 141 145 140 140 134 131 127 129 132 103 101 98 85 72 82 57 53 13 11 17 8 21 24 28 26 33 49 53 67 105 112 118 122 120 122 126 129 136 143 149 152 155 158 162 162 161 165 162 157 148 147 141 142 140 142 149 158 161 165 171 171 169 162 155 152 141 135 131 124 117 117 118 114 145 172 167 161 158 160 160 162 162 159 158 155 150 149 147 146 146 146 145 144 145 144 141 132 129 122 126 134 106 90 90 93 77 65 60 34 21 22 4 9 11 25 26 31 35 43 64 55 89 111 114 120 122 122 122 125 134 142 147 152 155 157 161 162 162 160 158 151 146 145 141 136 135 137 139 147 153 156 162 162 158 151 144 135 124 110 95 70 81 90 101 116 158 170 169 163 160 162 161 160 162 158 158 156 148 149 147 145 144 145 146 146 146 147 141 131 121 123 118 118 106 99 94 90 80 56 51 37 19 14 6 4 4 27 34 21 24 35 57 50 71 104 117 120 122 125 124 125 129 135 142 149 154 159 158 161 162 161 159 149 145 145 141 123 122 119 125 126 144 149 152 150 146 142 126 109 96 50 29 37 57 70 99 136 165 168 166 167 163 160 164 163 161 159 157 155 155 147 144 147 147 147 147 146 143 146 143 135 128 110 99 112 104 103 98 88 69 56 40 45 16 7 9 6 10 32 46 16 23 35 47 54 71 83 108 116 121 124 124 124 127 133 140 145 151 154 156 158 159 158 153 150 149 151 148 116 86 67 64 107 118 132 138 138 132 123 115 91 45 59 77 87 102 123 147 158 159 167 168 168 166 165 163 163 161 160 160 158 149 148 146 147 147 148 146 144 142 140 136 133 132 123 99 87 104 100 76 86 54 57 44 38 10 14 15 5 20 51 38 17 15 24 42 48 60 73 101 115 122 125 125 125 127 132 140 143 149 152 155 157 158 158 149 150 152 157 155 140 102 83 77 63 101 110 117 119 119 118 90 52 70 97 113 129 141 145 146 150 155 164 168 163 163 165 163 163 161 160 158 155 144 150 149 146 147 147 145 143 142 144 133 127 124 105 104 79 100 103 73 65 60 55 56 37 9 8 10 7 30 33 19 24 19 23 34 43 59 73 88 110 118 124 126 127 128 132 134 142 147 151 155 156 159 153 151 149 154 156 153 150 148 128 112 113 93 89 101 106 104 89 68 73 84 108 114 120 130 130 139 145 153 161 157 162 161 161 165 165 160 158 154 148 146 155 151 145 147 148 141 137 139 134 128 117 111 103 104 75 82 82 64 64 53 56 48 42 20 9 8 9 28 13 58 20 22 25 23 33 69 60 76 99 118 120 125 127 128 132 134 139 146 149 153 156 156 151 152 151 156 155 151 152 143 136 130 125 116 105 71 75 74 71 70 76 92 103 87 91 101 110 106 118 149 139 150 154 154 156 163 159 162 158 157 152 148 153 150 149 148 144 143 139 136 138 129 104 101 90 86 88 74 69 64 60 50 53 50 37 24 20 19 24 11 12 60 29 25 27 27 31 45 56 73 98 111 117 124 128 128 131 135 137 144 147 152 154 156 150 153 153 157 155 150 141 135 119 107 97 101 102 104 63 56 56 69 91 100 83 77 77 87 92 100 99 114 114 142 143 142 143 149 142 149 155 153 152 150 150 150 151 148 144 142 141 134 128 122 104 89 83 75 79 75 70 59 57 47 49 49 24 27 14 14 12 11 20 21 29 21 27 29 28 33 55 57 82 100 114 118 123 125 130 134 140 141 148 151 152 150 152 156 154 156 157 152 147 124 95 82 71 75 89 97 111 100 101 88 94 110 77 67 74 71 85 83 87 83 97 118 127 121 139 133 132 132 138 147 155 152 151 154 156 151 148 138 140 138 124 123 105 80 94 74 65 69 62 52 46 45 44 47 23 14 3 12 10 11 26 17 26 20 12 13 22 32 39 47 70 95 111 116 122 123 130 132 140 142 147 147 147 146 151 156 152 155 151 143 135 104 68 65 56 66 77 95 99 105 101 104 85 82 75 75 74 65 77 80 89 90 86 111 116 109 127 127 113 125 127 122 144 155 155 153 153 149 146 138 137 130 116 100 114 78 73 63 64 64 55 54 40 36 39 37 35 4 23 3 9 5 10 19 16 16 10 12 7 23 32 39 62 91 102 105 113 122 128 131 140 142 147 150 150 149 149 152 151 140 133 124 106 86 59 68 63 77 76 79 85 115 111 133 103 87 80 73 75 65 77 77 81 90 88 98 105 110 120 122 125 117 118 113 129 141 152 154 151 148 145 138 134 122 105 96 101 89 67 65 65 63 53 48 34 35 45 37 21 14 17 10 13 6 20 20 4 17 8 13 12 19 28 38 48 70 94 106 107 119 130 124 136 142 146 150 144 148 138 148 130 117 119 116 73 78 59 63 75 79 74 95 129 130 132 138 126 110 86 76 69 72 84 88 83 84 96 103 102 103 108 109 114 107 118 97 118 118 135 152 154 149 134 139 129 117 103 96 92 89 63 55 51 53 46 39 40 43 41 29 27 8 19 13 11 11 12 21 14 12 23 11 14 18 26 35 47 69 78 97 106 117 123 130 133 139 142 141 147 143 139 106 120 114 96 94 70 77 72 75 79 74 86 146 145 159 160 156 159 144 103 69 59 70 83 95 100 101 100 102 98 105 106 103 117 105 97 99 106 103 124 140 146 153 134 130 122 119 103 83 81 81 54 54 49 45 41 40 39 40 36 26 14 8 22 15 13 13 13 21 15 19 13 10 6 9 16 26 38 60 76 87 88 112 116 134 130 137 139 138 146 126 125 112 100 86 92 89 79 81 81 78 85 78 108 138 153 165 176 169 153 128 94 94 84 83 93 95 90 89 84 92 87 98 96 94 104 103 94 94 81 95 112 118 138 143 134 123 110 108 97 82 65 77 58 55 49 43 40 42 41 37 31 28 8 15 27 18 13 15 14 15 17 22 23 18 12 4 9 21 36 44 71 73 95 96 118 129 132 136 134 139 128 119 105 97 87 93 103 87 75 77 91 92 83 89 106 115 120 124 137 132 111 114 110 109 103 101 102 96 82 77 68 69 73 85 90 88 98 91 87 95 92 78 107 94 117 135 120 107 103 83 95 68 65 60 51 55 47 37 35 37 33 30 35 19 19 9 41 29 22 25 25 44 46 36 22 20 13 9 13 26 35 37 59 75 84 88 109 125 130 136 136 134 125 113 96 89 95 93 94 78 80 78 86 91 94 103 106 112 114 115 112 119 106 91 93 89 95 89 59 68 69 63 54 47 38 42 58 77 81 100 99 87 93 82 84 90 85 112 118 99 96 92 89 68 63 51 43 47 43 35 35 37 34 34 36 27 19 12 36 31 18 18 15 28 24 23 25 23 17 13 9 18 30 36 42 61 74 78 90 100 121 130 133 131 119 106 80 89 78 72 79 86 99 81 75 83 89 92 99 101 96 93 89 93 99 84 63 72 84 103 118 122 121 120 120 112 115 120 124 118 113 120 109 94 104 92 86 86 87 93 109 101 90 81 61 58 64 45 39 43 40 34 32 36 36 37 38 34 23 20 34 20 15 8 11 28 29 19 13 14 6 6 18 13 18 37 45 59 66 57 66 98 106 126 121 127 106 102 82 68 68 69 61 76 94 76 52 52 51 52 54 61 60 66 68 69 75 99 121 135 139 138 137 133 127 125 129 134 141 142 144 140 146 145 139 119 98 90 98 92 105 86 87 91 81 64 55 45 44 47 39 35 44 28 33 32 30 45 40 36 22 26 39 7 9 20 36 18 21 15 13 12 13 11 8 10 23 31 34 48 62 56 65 85 109 125 131 119 96 94 83 74 60 66 66 64 52 46 72 96 100 106 121 131 134 140 146 151 137 139 139 144 142 135 138 127 133 140 142 145 147 149 150 153 156 157 151 146 130 118 95 117 109 101 84 75 75 61 43 48 46 39 35 31 32 29 28 23 51 51 45 36 20 27 31 11 12 27 39 21 19 15 21 23 16 13 16 10 15 30 37 43 44 51 60 69 107 110 120 117 88 89 75 72 71 65 81 90 112 112 113 109 117 128 128 136 138 141 144 147 147 144 142 143 140 132 134 141 143 140 141 140 141 143 145 149 154 154 156 146 147 136 127 102 116 104 86 88 76 57 53 48 39 34 34 29 23 34 25 36 48 58 63 37 18 27 19 18 14 17 14 20 24 20 28 24 14 12 15 14 18 23 31 37 41 49 50 68 87 100 106 113 88 82 62 71 71 90 116 127 128 128 127 132 124 117 128 130 134 142 146 142 142 147 140 143 130 135 140 145 140 134 135 136 138 146 148 148 149 148 137 153 147 147 134 134 102 105 85 78 60 56 53 37 37 33 43 21 28 22 34 47 39 73 59 42 12 21 21 15 21 21 14 19 23 32 40 28 20 11 12 13 14 17 24 32 33 34 56 58 70 89 104 104 90 93 71 83 88 117 134 137 141 141 141 135 135 135 135 133 136 129 135 135 140 139 135 134 137 135 136 128 130 129 133 135 142 147 146 146 147 147 145 153 149 141 133 128 118 82 81 64 47 43 37 35 36 27 32 17 22 26 40 56 64 92 75 52 16 24 25 17 16 21 22 27 18 10 22 22 19 13 7 7 12 16 21 34 31 36 45 50 53 62 78 91 82 89 77 97 104 132 141 139 137 138 138 132 133 134 140 134 129 135 136 131 133 123 122 117 114 114 114 121 130 130 137 141 148 150 147 148 148 148 153 152 147 134 135 122 121 82 70 61 45 41 32 27 36 36 26 20 24 28 49 61 86 106 84 64 20 22 26 20 22 21 23 23 25 14 3 10 15 13 12 10 10 8 12 30 29 33 37 46 48 54 67 69 100 89 97 120 126 144 153 155 142 139 135 134 132 129 130 127 115 109 96 91 85 86 82 88 101 109 105 119 126 137 147 151 150 150 151 149 158 150 149 140 130 121 112 105 102 78 58 50 41 35 22 27 27 22 23 15 26 42 63 56 93 104 94 100 23 21 28 27 28 29 26 23 29 19 10 10 8 9 7 11 12 8 5 22 33 37 35 37 45 45 56 67 95 81 100 123 137 146 153 153 151 142 136 136 129 122 122 114 101 99 89 83 84 84 86 92 102 105 113 127 134 144 149 152 153 153 153 148 154 153 145 136 126 106 93 86 78 64 48 41 34 30 26 27 29 24 23 18 26 41 47 84 105 118 114 108 33 30 36 35 35 32 29 32 31 16 8 8 5 6 6 12 11 8 5 21 24 34 37 33 36 43 57 69 85 90 114 127 143 147 151 149 149 144 137 140 135 131 122 112 110 112 104 103 96 93 103 113 119 115 124 139 146 154 151 156 158 159 159 157 155 151 145 133 121 105 98 64 81 63 50 41 35 35 28 22 25 23 23 21 30 47 58 102 116 131 131 104 41 38 33 33 32 30 27 35 41 26 17 9 9 6 9 12 11 8 10 17 22 27 39 42 38 55 52 48 71 88 111 119 126 151 147 146 141 142 140 140 134 128 123 122 123 118 117 115 112 117 110 129 138 116 132 148 148 159 156 163 160 163 163 163 155 145 140 121 113 84 72 63 52 55 57 43 28 38 28 24 25 24 21 19 39 37 89 101 133 136 150 78 37 42 35 29 30 33 34 22 27 26 22 15 15 18 17 13 10 8 9 14 21 29 36 35 39 45 43 40 58 73 88 109 129 146 143 147 143 143 143 145 141 137 140 139 141 138 113 129 136 159 137 134 130 153 134 141 157 163 162 164 167 164 164 163 159 151 132 113 102 85 59 50 53 37 36 40 28 28 20 21 28 22 21 21 36 50 106 134 147 144 162 56 43 42 40 35 36 33 34 33 46 56 24 28 37 28 16 12 9 8 7 8 13 26 34 35 33 34 38 33 43 63 75 95 127 131 130 145 148 146 147 150 151 152 150 148 152 136 131 152 161 156 167 158 145 154 164 161 164 170 171 168 168 165 162 157 147 136 126 105 88 81 66 53 48 36 31 25 26 20 21 21 25 19 27 28 35 85 120 143 147 158 164 42 40 39 39 37 41 29 30 61 47 58 16 32 52 28 5 22 8 11 5 6 6 10 26 35 32 27 33 27 35 51 63 80 102 113 121 141 149 154 155 155 155 158 159 162 161 157 163 159 166 164 175 170 170 159 167 174 169 175 175 162 171 153 160 161 152 128 119 90 73 69 60 45 29 35 25 22 24 23 17 25 20 20 27 45 54 108 131 161 161 168 149 39 36 43 43 40 42 34 34 63 42 52 21 26 40 19 9 23 16 21 14 10 7 10 17 21 34 24 21 26 34 46 54 70 92 100 119 130 146 155 157 159 160 161 163 166 166 164 165 169 156 157 155 164 167 152 167 173 164 174 174 166 157 146 140 156 130 108 85 74 76 48 42 36 39 28 31 22 22 22 23 29 24 30 35 32 86 125 147 173 165 169 132 34 41 37 34 32 34 29 30 68 62 46 22 27 38 34 31 22 20 21 19 9 4 8 7 10 30 33 33 27 35 38 40 53 74 93 111 114 129 143 150 157 159 161 161 164 164 166 145 157 150 139 152 159 164 149 158 165 149 164 160 167 161 133 116 140 118 95 73 60 52 46 34 32 32 19 24 22 16 19 16 19 22 38 43 50 125 148 164 172 169 170 101 39 41 36 38 34 36 35 35 75 66 56 44 9 31 48 53 36 16 16 42 21 16 28 25 27 44 31 24 30 36 35 34 41 64 83 90 94 112 126 139 149 156 160 156 167 159 155 130 126 129 141 138 137 150 147 137 159 133 130 128 150 126 115 117 99 101 84 64 54 36 35 29 30 18 20 21 23 21 20 16 17 37 51 40 90 143 169 160 171 174 171 68 43 40 39 38 33 36 29 31 75 66 60 51 15 18 45 65 48 23 21 22 45 45 46 33 63 55 32 28 32 30 25 33 29 44 57 66 73 85 111 106 124 139 138 141 156 147 135 116 107 103 141 124 110 135 138 110 129 119 123 127 104 92 101 88 79 74 71 46 39 33 40 21 27 16 17 19 16 20 23 27 26 47 47 52 133 165 177 164 168 165 169 45 44 42 40 43 39 42 34 37 81 69 65 55 49 17 4 11 6 39 74 60 65 25 48 70 67 43 24 40 39 33 34 24 26 47 43 49 55 77 89 87 91 117 130 124 115 122 112 103 94 90 126 112 107 131 121 115 120 105 108 89 93 74 70 72 80 71 59 55 34 26 18 24 15 17 18 20 18 20 22 25 30 41 43 109 165 170 173 168 163 169 154 40 44 42 39 42 37 41 30 35 84 71 65 58 60 62 67 70 79 86 83 85 60 85 71 55 60 60 39 76 25 26 35 20 16 26 31 46 38 63 71 67 79 85 101 111 90 103 98 98 100 82 105 107 113 125 100 83 110 90 75 83 68 71 66 71 66 52 40 43 26 22 23 25 16 21 19 21 22 21 22 26 32 38 75 166 178 170 176 174 167 170 123 44 44 41 40 42 38 42 33 36 82 70 64 62 62 67 74 79 82 87 88 93 78 56 77 89 73 60 87 60 33 26 18 22 18 24 29 44 37 51 55 57 64 66 77 99 73 75 93 84 79 71 93 98 107 111 84 73 99 73 75 78 55 67 65 51 49 46 30 27 28 22 23 28 15 23 20 22 27 23 24 22 39 43 142 188 181 172 176 174 171 162 91 47 44 41 40 43 40 43 38 41 81 69 66 64 68 71 76 78 83 87 92 90 94 90 70 65 63 94 82 16 48 89 44 29 21 26 32 36 38 37 49 48 51 62 66 85 63 69 86 74 68 67 74 88 99 95 76 71 77 69 56 67 69 56 58 36 38 42 23 25 26 22 19 24 19 16 12 14 22 19 22 39 32 96 182 179 180 178 177 174 169 171 71 42 44 42 39 37 33 38 34 42 78 68 65 65 71 76 77 79 82 84 85 90 91 91 101 102 106 99 30 32 119 90 57 31 20 25 29 34 39 25 34 37 36 53 60 59 54 72 66 61 65 49 60 67 78 77 71 64 61 65 49 57 47 53 60 49 35 31 27 28 21 19 13 20 22 19 16 19 31 26 42 39 69 166 182 180 176 174 176 172 169 167 43 45 44 43 43 41 40 41 42 48 71 67 64 65 73 78 81 79 83 85 86 90 92 94 95 95 97 40 16 87 138 106 90 57 35 23 29 32 36 25 28 40 31 40 43 50 46 61 58 60 57 49 55 55 65 66 71 69 53 49 53 44 41 28 35 35 23 29 24 24 21 17 20 21 17 13 14 20 24 45 43 21 161 189 188 180 178 176 173 170 166 163 40 45 43 41 42 35 35 35 43 47 64 65 66 70 76 80 80 80 84 85 87 90 93 93 91 102 77 19 35 165 137 112 85 67 63 51 37 28 32 26 15 22 28 34 35 41 37 48 43 47 43 47 42 48 48 55 54 54 42 34 30 22 29 26 23 28 19 23 21 25 22 17 13 10 11 22 27 38 43 53 49 98 179 199 185 180 177 175 172 169 165 150 37 45 44 40 40 41 41 41 51 53 60 64 67 73 78 81 82 83 84 86 88 91 92 94 92 83 31 36 113 134 132 89 89 85 88 68 48 29 31 39 20 19 35 35 39 39 35 40 35 31 38 41 36 40 36 47 33 30 39 32 22 28 26 25 24 21 32 18 20 20 19 19 14 13 23 29 33 45 48 45 30 175 201 193 184 179 177 173 172 168 166 137 40 45 45 41 41 41 40 43 48 50 58 62 67 76 81 82 87 88 89 90 93 94 96 95 103 39 37 49 162 139 102 96 84 89 106 109 77 41 27 30 24 22 29 35 32 31 26 38 31 37 35 30 33 29 34 37 28 31 35 29 24 24 24 24 18 20 24 23 21 15 16 19 20 24 36 39 44 56 52 48 113 181 204 197 186 177 177 173 176 168 167 108 37 41 45 44 45 39 44 53 53 52 55 62 68 76 81 85 88 91 92 94 95 97 99 101 64 40 32 127 149 151 90 94 90 104 105 107 86 55 37 30 29 23 24 32 28 18 12 26 29 31 26 26 29 25 29 31 27 36 31 27 23 24 23 17 37 23 15 24 21 17 21 27 28 37 43 46 55 63 55 30 178 200 209 196 187 177 177 172 175 167 172 86 42 47 40 39 43 45 50 56 51 51 54 61 67 76 83 86 91 93 96 98 99 99 102 96 33 35 50 167 141 98 99 85 98 107 116 114 108 68 36 39 32 19 35 32 26 28 31 25 36 31 30 28 27 22 27 27 28 34 28 25 25 24 20 22 21 16 24 19 20 26 31 38 45 51 50 55 61 59 43 135 178 200 204 196 188 177 177 172 176 169 171 68 44 46 42 43 47 50 51 54 51 51
