P2
# Generated by OpenCV 4.2.0
92 112
255
25 69 59 40 40 25 23 30 38 39 27 22 28 36 45 41 38 43 36 39 36 23 25 45 48 40 33 34 41 35 38 33 30 33 33 31 34 35 32 31 31 32 28 38 46 54 59 60 60 51 37 33 34 39 31 29 57 66 80 55 92 89 89 102 94 96 89 115 114 109 110 109 118 104 101 95 124 105 86 81 76 85 96 105 140 148 143 119 119 119 120 119 93 39 22 24 29 30 40 24 24 30 24 22 23 31 56 51 33 31 37 36 37 26 20 35 50 43 36 33 38 36 34 37 34 32 33 29 32 33 32 31 32 38 39 39 42 51 59 57 67 73 63 52 50 47 38 23 44 58 83 75 77 101 89 101 97 99 103 125 127 129 133 131 136 129 123 116 133 114 91 91 91 99 103 105 131 146 141 117 119 121 120 118 139 109 47 38 37 39 35 25 25 22 21 23 17 15 40 65 49 37 27 24 26 27 23 26 39 35 36 37 37 41 34 33 38 34 30 27 31 33 32 34 38 42 45 45 48 50 52 49 60 73 73 67 60 52 48 35 29 58 77 93 74 91 108 107 114 104 119 132 156 154 159 160 160 150 139 136 152 131 112 117 114 108 108 111 118 140 147 116 117 119 119 119 68 66 65 46 39 53 41 18 29 29 25 26 26 24 16 51 62 46 31 30 26 27 25 21 32 32 33 35 42 36 37 36 33 37 32 27 32 32 29 35 38 38 38 43 48 50 48 50 54 64 79 73 71 66 56 51 38 49 78 88 96 78 87 112 123 104 112 140 177 173 177 178 177 168 159 155 162 153 147 145 131 124 123 121 119 120 148 118 116 119 119 119 100 53 38 44 39 35 43 32 25 27 26 29 35 34 28 20 41 36 25 18 16 20 14 14 33 34 31 28 30 28 30 40 30 27 32 30 31 34 33 37 39 45 45 49 50 56 61 60 60 69 75 79 88 89 86 66 54 57 60 76 89 85 70 90 123 120 114 149 180 184 186 190 187 184 184 177 178 179 175 163 154 154 150 136 132 120 142 137 129 119 119 118 62 53 32 27 39 40 38 40 36 30 27 24 37 34 29 27 24 26 19 14 12 18 15 18 32 33 34 31 29 27 29 35 37 35 33 32 29 32 37 43 46 49 54 57 61 68 72 68 72 81 76 86 100 108 105 100 79 62 57 57 78 100 101 88 94 111 133 161 184 193 196 199 196 191 193 195 195 194 189 185 187 180 174 164 133 114 125 154 125 119 119 119 28 26 26 28 25 25 28 38 42 39 30 27 31 40 31 22 22 22 20 19 18 19 23 27 34 31 34 30 33 34 36 36 38 41 36 39 39 38 39 46 51 56 62 65 74 78 82 84 93 103 106 112 113 114 116 109 104 85 71 68 71 79 99 110 110 104 131 171 187 195 200 203 201 199 202 201 201 202 200 203 203 194 187 180 152 124 101 118 117 117 119 118 35 28 28 32 19 15 14 20 27 30 31 27 26 29 37 19 13 20 18 20 22 22 26 28 37 36 38 37 41 45 49 49 48 44 43 44 50 55 55 56 62 69 76 85 87 88 98 113 129 130 128 136 140 136 138 135 128 113 97 86 86 83 84 103 124 131 133 160 186 196 200 204 206 205 205 204 204 206 207 204 202 198 194 192 178 140 105 92 120 117 118 118 54 46 41 38 24 15 9 12 29 30 24 26 30 30 29 23 21 19 17 19 22 22 26 33 43 51 55 55 52 56 62 54 53 59 65 62 68 74 74 70 78 88 92 100 104 113 126 133 142 149 145 148 156 156 156 155 149 139 126 119 108 106 110 108 114 131 141 160 185 197 201 204 206 206 207 205 206 207 208 206 203 203 200 197 194 162 125 96 113 117 121 120 50 48 38 33 30 18 25 35 39 41 33 33 26 24 24 25 27 23 20 18 23 27 30 38 48 61 63 64 60 62 64 61 58 58 68 74 74 76 74 74 88 103 108 113 122 133 138 141 147 157 157 156 158 159 160 164 158 148 139 133 133 127 118 119 120 124 147 173 190 196 198 203 206 205 206 207 208 208 207 208 207 204 201 201 197 178 133 104 99 120 117 117 73 76 62 47 45 27 30 45 47 34 32 37 28 21 22 24 25 25 25 25 26 32 40 47 52 63 70 74 84 83 77 77 77 77 70 69 72 76 82 98 105 104 112 129 136 148 148 151 158 164 163 163 163 161 163 164 166 160 156 149 143 144 142 138 135 141 150 173 189 195 195 201 204 203 204 205 208 210 210 208 205 199 201 205 199 186 139 105 90 128 126 116 62 71 70 49 35 30 28 28 37 42 37 34 31 26 25 25 24 24 28 33 36 41 47 53 61 75 80 82 93 95 98 94 91 90 90 89 92 100 100 104 112 118 130 137 137 146 154 155 161 159 160 163 164 164 162 163 166 163 164 165 160 153 146 147 145 152 157 163 180 189 192 195 203 203 202 205 206 207 207 209 207 200 198 203 200 190 157 100 81 127 129 117 47 42 31 26 22 21 31 28 38 34 30 30 28 25 26 25 25 26 30 35 40 46 52 58 71 79 87 89 94 106 113 105 106 107 110 112 115 112 113 110 116 125 131 135 142 152 152 151 162 160 162 165 165 163 162 165 163 163 166 166 165 167 162 159 160 154 157 173 180 184 191 196 199 198 200 202 204 204 205 209 209 202 198 203 196 188 173 115 73 102 117 118 33 27 29 19 23 24 30 29 36 34 22 23 23 22 23 18 20 27 30 31 37 48 56 64 70 78 87 98 108 113 113 111 117 117 120 121 118 118 121 120 122 128 131 135 139 147 147 151 158 161 163 165 163 167 167 166 168 171 170 167 164 163 163 164 164 164 169 173 177 181 188 192 194 194 196 197 202 204 204 205 201 198 197 194 195 195 183 136 75 83 115 117 52 43 33 36 46 38 31 29 27 23 19 20 20 22 24 18 18 25 31 33 37 47 56 68 81 88 95 109 117 117 115 116 120 120 123 122 124 125 119 123 124 127 130 133 136 139 149 150 154 162 166 165 165 166 166 166 167 171 171 168 164 165 167 163 161 163 164 169 173 180 182 187 191 192 192 196 200 203 205 204 201 196 190 184 191 199 190 153 92 81 115 116 53 52 49 59 49 32 25 23 25 22 18 19 22 24 26 24 20 29 36 37 41 51 60 75 84 89 101 110 110 112 118 121 121 119 121 125 128 126 125 122 119 118 126 128 135 138 145 148 150 156 161 163 166 164 165 167 165 167 168 166 165 167 166 164 163 159 162 172 174 179 186 188 190 192 193 195 200 200 202 203 198 193 186 182 189 194 190 162 106 80 115 119 26 29 32 27 26 26 26 26 24 20 18 21 25 24 24 23 26 33 40 41 50 55 60 74 83 91 103 109 113 115 118 120 122 122 122 125 126 125 124 121 122 122 124 128 134 137 141 145 149 152 158 163 167 168 166 167 163 161 166 167 167 162 160 162 161 159 160 168 176 180 185 185 189 194 194 189 195 197 200 199 196 193 184 182 189 192 195 178 119 79 120 128 34 27 26 27 23 25 26 26 24 20 19 23 27 26 23 23 28 34 35 41 48 56 63 77 86 95 103 116 123 123 123 121 120 123 124 124 124 123 124 125 125 126 126 125 132 136 136 138 143 146 153 154 153 153 154 159 157 158 163 161 154 154 149 155 159 161 166 169 175 179 178 182 187 189 191 188 190 195 197 196 192 185 181 183 190 196 198 187 131 66 99 123 29 23 24 22 21 24 26 25 22 20 19 21 25 26 22 24 25 30 31 34 42 57 71 79 86 97 103 113 121 128 129 127 123 124 122 121 123 125 126 126 124 125 122 123 125 128 126 128 128 134 139 145 152 151 158 159 156 162 161 160 163 161 154 157 160 160 165 168 172 178 181 185 188 190 194 191 194 195 195 194 190 185 183 183 188 198 196 189 143 73 82 121 27 19 18 17 15 17 24 22 20 17 16 18 19 20 20 22 20 23 28 31 41 59 70 76 87 97 104 109 120 129 129 125 123 124 121 122 127 129 127 126 126 126 127 126 125 128 124 127 130 137 144 149 159 161 160 159 157 158 157 159 160 162 158 160 162 164 167 171 177 184 190 189 185 184 188 192 194 196 195 191 190 190 190 195 196 199 197 194 157 84 85 126 34 22 15 18 19 15 19 22 21 17 18 18 18 22 23 21 16 22 28 35 47 52 65 76 83 93 105 113 120 126 125 120 123 120 121 125 126 127 129 128 124 124 126 126 124 121 121 132 135 141 147 147 149 154 158 159 161 161 167 167 168 174 170 165 166 168 169 169 170 175 179 179 180 184 187 190 192 196 197 197 194 189 187 195 199 199 197 193 172 102 89 126 36 26 18 18 20 19 19 17 18 20 21 21 20 22 23 20 16 23 27 37 46 48 54 72 78 78 95 115 117 119 121 122 125 121 122 121 121 123 130 132 127 126 125 130 133 127 125 127 122 122 130 139 144 146 152 158 161 161 159 161 163 167 162 159 160 160 165 167 170 176 177 181 182 182 187 188 189 195 197 199 195 190 188 191 194 198 198 196 180 109 74 120 26 27 21 16 15 18 18 15 15 19 24 24 24 24 22 20 20 23 30 33 39 44 55 69 74 76 87 106 118 121 121 124 127 125 123 122 123 120 122 127 131 132 128 129 129 122 124 122 120 122 125 134 136 140 150 153 157 161 161 161 163 166 169 160 160 160 162 166 169 174 181 180 177 181 184 188 190 189 194 196 194 193 193 190 192 195 194 189 185 130 88 128 24 23 20 15 14 15 13 15 15 18 20 24 23 19 15 16 20 23 28 31 38 46 53 62 73 86 88 102 116 122 123 125 124 121 119 121 126 125 125 128 130 131 127 119 111 112 113 115 119 124 125 124 125 129 139 147 154 161 163 166 168 170 166 168 164 162 164 166 171 173 179 178 168 178 186 190 193 191 196 197 198 199 196 192 196 196 191 187 183 136 92 131 21 18 16 17 16 14 13 17 20 19 15 17 17 15 15 17 22 26 27 28 32 41 51 54 65 80 90 104 111 117 124 122 121 117 114 120 128 133 131 129 128 126 124 120 114 113 112 111 115 118 121 127 136 137 142 148 151 161 166 167 169 173 173 177 173 169 167 167 170 175 176 180 177 179 185 189 194 195 197 200 202 203 203 202 201 199 192 184 180 146 93 121 18 16 14 14 14 14 14 16 20 22 23 23 22 20 21 22 25 26 27 27 34 45 56 61 68 83 93 103 111 116 119 117 127 126 123 124 124 129 129 129 128 124 123 120 118 118 120 120 125 121 131 137 136 138 145 152 154 157 163 162 167 168 173 180 178 180 178 172 171 177 178 182 183 182 183 186 191 194 196 199 202 205 205 198 195 195 193 186 183 153 91 121 25 19 13 14 15 14 12 11 14 17 22 23 25 23 23 21 24 23 23 24 28 46 58 60 65 83 93 98 107 115 116 117 123 128 126 123 122 125 127 125 127 130 129 127 126 127 124 125 125 121 129 132 130 133 138 143 152 153 154 159 160 168 173 174 176 178 178 178 179 176 180 182 182 184 189 189 190 194 201 205 208 210 213 215 211 208 200 193 189 147 100 128 33 24 18 14 13 14 14 12 12 12 15 18 23 24 22 19 21 21 21 23 27 38 47 63 70 81 86 90 101 112 117 119 117 120 123 122 122 124 124 123 128 130 128 127 129 129 126 126 131 133 130 130 134 136 134 135 141 148 154 154 160 171 175 177 182 186 185 184 188 183 181 186 185 181 185 193 196 194 197 202 206 211 216 220 212 206 200 197 190 157 109 131 24 27 25 15 14 17 16 15 16 16 16 20 24 26 21 16 18 19 22 27 28 34 47 61 67 78 83 88 99 106 113 117 115 113 116 116 119 120 124 126 127 126 129 127 126 129 129 129 130 133 130 131 134 139 144 148 153 161 166 166 166 177 176 177 183 187 188 186 184 184 183 182 185 183 184 189 192 194 198 200 204 210 213 215 212 207 203 201 192 171 126 133 25 24 21 15 15 15 16 16 18 18 18 20 24 26 24 20 20 24 26 29 33 42 50 60 70 76 81 89 98 102 111 115 115 114 115 119 122 124 127 125 124 122 124 131 132 129 133 133 133 133 135 141 149 153 157 157 161 162 168 169 167 175 176 180 183 185 188 188 189 188 184 183 183 186 188 191 193 198 199 202 207 212 216 215 214 212 206 201 192 176 131 136 18 14 12 18 16 12 14 13 14 14 13 16 20 23 27 24 23 24 29 30 36 44 51 59 64 71 80 89 96 100 111 114 115 118 121 120 122 123 124 125 126 124 124 135 132 127 141 146 144 142 149 151 148 152 157 156 163 165 169 175 175 174 181 185 185 189 191 191 192 190 185 186 187 186 188 190 191 197 198 198 204 209 214 214 211 209 209 202 197 183 138 142 17 13 11 19 16 12 12 13 15 15 15 17 18 24 26 25 25 23 28 29 33 39 50 54 63 73 82 91 94 101 108 111 114 118 122 122 119 118 122 129 129 130 135 127 127 137 139 135 140 149 152 157 152 155 157 160 160 162 165 173 179 180 178 178 182 185 186 187 190 189 184 182 186 184 184 186 186 188 191 196 199 204 206 207 207 207 208 203 203 196 138 144 18 18 15 11 11 12 12 13 13 13 19 21 19 22 22 23 26 25 24 25 32 42 54 58 69 79 87 92 96 101 106 112 117 117 119 124 122 123 123 123 129 135 126 123 137 147 142 144 146 148 150 154 157 156 155 156 158 163 169 169 172 174 174 176 180 179 181 183 183 186 183 175 176 178 182 184 184 185 188 196 197 199 198 196 204 204 207 203 202 203 148 149 20 19 16 12 10 11 12 12 12 13 15 16 17 20 19 19 23 23 22 30 42 47 61 71 78 85 90 93 97 102 109 113 116 115 115 119 120 122 122 129 126 121 131 141 142 147 146 150 155 154 155 155 155 152 152 149 150 154 154 158 166 169 169 171 174 174 178 183 181 179 179 177 173 171 175 179 179 183 191 194 194 197 197 197 199 202 203 204 199 204 172 154 25 24 19 13 10 12 12 13 16 16 13 12 15 21 20 19 23 24 26 36 50 66 73 78 82 87 91 96 98 101 106 106 109 110 111 116 119 119 123 121 113 129 144 143 145 144 149 152 152 151 151 151 151 148 145 146 147 152 152 155 160 164 168 165 165 166 170 174 181 179 174 172 169 166 168 175 174 175 184 187 189 192 194 194 194 196 195 194 188 200 188 156 27 33 26 13 11 12 12 11 15 17 17 17 21 26 24 21 24 32 41 57 69 78 80 87 90 92 97 100 102 102 103 104 107 109 113 118 120 122 116 112 134 146 148 149 149 148 150 148 147 148 147 146 147 145 144 144 138 141 144 146 150 160 164 164 164 165 168 170 171 172 169 164 163 160 163 171 171 173 179 177 176 180 183 188 187 190 185 172 175 181 182 161 19 35 29 25 16 15 14 13 13 17 20 22 23 26 23 25 34 45 57 71 79 79 83 89 92 96 102 100 101 101 104 104 105 108 111 116 121 119 114 131 147 151 152 153 154 153 150 144 139 140 140 141 143 141 139 132 129 132 136 140 141 147 155 164 166 166 167 171 173 169 165 164 162 158 157 161 162 165 166 172 170 170 169 170 166 170 158 148 154 160 163 162 20 30 20 22 19 17 19 19 20 19 20 22 24 25 26 34 48 57 71 83 84 86 91 91 95 99 106 104 104 104 106 104 105 110 113 117 116 115 127 133 138 149 154 153 153 152 142 133 133 133 133 133 136 136 136 134 128 128 129 131 138 142 145 155 159 164 166 168 171 173 166 162 160 159 155 157 157 153 153 158 151 144 131 128 120 115 111 116 126 123 137 162 23 22 18 22 22 17 20 22 22 21 22 24 25 27 32 48 59 74 84 90 92 90 93 95 99 98 106 109 109 108 109 106 107 112 119 116 118 123 126 128 131 130 135 141 144 142 139 131 132 128 130 127 127 133 135 133 129 117 115 121 127 130 135 142 153 158 160 166 168 168 164 158 159 159 154 152 146 143 134 129 124 119 103 96 82 78 81 83 90 95 106 145 26 24 25 28 21 17 20 21 21 20 21 23 28 32 38 53 69 82 88 93 97 93 94 96 100 101 104 107 106 105 112 110 109 116 116 118 127 128 120 119 121 123 120 114 113 112 111 114 114 116 112 112 113 112 116 106 102 101 95 105 115 121 126 130 135 147 155 161 163 161 156 152 152 155 150 142 137 130 117 106 103 93 87 74 61 63 62 70 78 82 104 154 20 23 27 21 19 18 19 21 20 20 21 23 30 31 42 58 73 85 92 96 98 96 95 97 100 102 102 100 103 100 107 109 114 118 116 124 124 119 114 111 115 109 102 99 95 88 83 92 84 77 74 67 64 65 69 71 74 78 87 91 101 108 107 112 124 140 148 155 155 150 145 144 151 142 139 130 125 113 103 96 91 75 72 69 71 82 89 101 98 107 143 160 22 20 22 19 20 19 16 17 19 20 20 25 30 32 46 60 72 88 95 97 99 99 99 101 103 103 103 102 108 108 109 112 113 115 123 119 110 109 105 98 93 79 77 79 72 68 64 59 52 41 41 43 44 40 39 48 59 68 67 77 88 84 92 112 117 124 133 145 145 146 137 135 145 136 130 124 114 105 98 98 93 82 82 88 94 98 99 110 120 152 159 156 69 40 19 18 17 15 15 18 19 18 21 28 33 34 40 59 71 86 95 93 92 92 97 99 100 103 104 100 102 108 111 107 106 114 116 105 100 92 88 76 63 55 53 55 50 47 43 36 36 35 34 37 38 46 50 52 54 58 58 69 71 77 88 97 101 114 127 134 138 145 141 133 136 129 125 118 108 106 105 91 69 60 64 61 73 88 90 104 144 173 159 158 108 85 43 16 11 12 18 20 20 17 21 28 29 30 34 51 73 86 98 97 93 91 96 97 101 103 101 98 96 99 102 99 98 98 91 83 80 67 52 58 53 46 42 47 49 50 48 47 49 55 66 68 68 70 71 73 67 66 71 69 66 72 81 92 100 112 122 127 129 136 139 134 128 124 124 122 114 94 59 29 23 33 51 50 41 46 70 104 169 174 156 158 120 111 87 42 10 11 14 18 20 20 24 26 25 23 25 43 72 85 95 100 100 99 98 99 102 103 100 95 90 90 91 90 89 83 75 69 55 48 46 51 53 54 52 54 58 69 71 72 76 77 73 68 69 67 67 72 76 76 73 73 71 73 81 88 96 102 108 115 121 129 139 138 124 121 126 103 65 31 12 4 32 121 112 124 102 72 54 68 133 158 155 157 105 108 105 87 38 15 16 12 19 25 24 24 26 26 27 44 71 85 96 101 102 102 102 102 102 103 101 93 87 87 85 83 84 79 70 64 61 59 59 56 57 60 58 61 63 64 60 58 54 47 49 48 40 38 36 37 43 56 61 68 70 72 79 81 83 88 96 107 118 130 147 145 132 123 89 52 28 17 16 14 23 67 135 148 139 124 107 97 138 161 155 157 75 91 100 93 76 34 21 18 23 28 26 24 26 26 29 49 75 90 98 100 103 104 106 105 104 103 101 93 87 85 84 83 82 78 74 72 66 66 65 60 59 54 48 45 41 32 25 18 13 16 18 28 27 33 37 31 32 37 41 46 49 58 71 75 75 83 92 106 123 141 163 164 137 87 57 47 41 33 30 27 28 80 156 157 139 132 128 152 193 179 154 157 50 61 83 90 86 53 28 24 24 25 22 26 27 29 36 58 81 95 100 102 103 104 107 105 104 104 102 98 94 88 86 86 83 76 70 65 57 57 55 47 40 38 32 19 15 11 13 12 9 24 124 111 58 37 31 36 44 38 35 39 45 48 53 65 73 85 96 116 137 160 183 179 127 79 42 40 44 38 37 39 71 139 155 148 131 127 147 171 194 182 153 156 63 53 56 81 82 64 35 21 20 21 20 21 28 41 49 67 82 96 105 105 103 106 108 106 105 106 106 103 98 94 89 86 81 69 65 57 51 48 42 39 30 22 24 23 17 16 12 13 14 27 105 115 111 63 39 37 41 42 35 37 41 42 49 62 76 92 114 133 153 174 196 192 137 108 74 58 59 66 72 89 123 133 132 124 125 132 170 187 200 187 152 157 93 79 63 68 81 77 52 31 30 25 24 23 36 53 62 76 88 99 107 109 106 109 109 108 107 108 109 106 104 102 98 90 81 68 62 61 57 50 43 40 32 21 31 42 25 21 13 16 18 45 86 98 92 62 42 33 29 37 43 46 44 49 56 67 76 96 120 141 163 182 196 200 159 118 114 101 85 86 95 104 108 100 103 111 127 150 182 193 202 192 153 154 105 97 85 70 73 78 62 48 47 38 31 38 51 61 74 86 98 106 108 107 106 105 109 109 107 108 110 110 112 109 105 99 91 84 76 70 63 60 58 53 45 42 46 55 47 32 20 20 39 81 99 96 83 52 31 35 42 45 46 51 52 59 69 79 88 105 122 146 170 186 197 207 178 121 103 100 97 91 91 97 97 109 128 136 143 162 191 203 204 195 155 154 83 69 55 41 48 71 72 67 54 49 48 49 61 75 81 94 101 102 105 106 102 99 107 110 106 108 109 111 116 119 115 108 102 99 88 78 75 78 81 77 68 66 70 68 68 66 60 62 76 89 85 80 70 64 59 56 64 58 52 62 64 75 86 91 95 107 122 145 171 183 194 206 194 144 104 99 111 107 106 115 117 133 145 142 148 177 196 206 203 198 162 155 57 39 26 24 30 55 70 73 72 73 68 70 82 85 79 90 99 99 102 104 101 101 108 111 109 109 110 112 116 123 122 119 118 108 98 95 95 91 87 86 80 75 71 71 71 77 79 80 81 80 82 78 73 75 70 69 65 61 67 76 86 100 103 105 108 114 125 145 170 180 189 203 207 171 134 112 113 121 137 139 140 144 145 150 165 187 196 208 202 195 165 154 39 30 27 32 29 40 67 74 75 77 78 85 82 80 83 93 102 104 105 101 104 105 108 112 112 113 114 115 119 125 128 129 126 115 110 110 104 96 89 88 89 87 76 73 74 76 74 71 70 69 74 78 79 79 76 74 69 72 82 94 109 114 114 115 115 115 120 136 162 178 185 199 212 192 162 148 124 117 137 155 169 180 178 176 183 193 202 210 202 195 168 155 33 32 28 27 31 48 76 87 87 91 91 97 93 71 87 98 100 100 103 101 104 107 107 112 116 117 117 116 119 123 131 134 131 127 124 119 113 108 98 92 93 92 86 84 81 80 84 85 84 86 84 84 85 83 82 82 80 91 106 113 125 128 127 124 118 116 117 130 151 180 186 196 210 205 179 175 161 125 119 133 151 173 176 175 180 194 205 209 202 192 168 156 34 31 30 35 47 61 98 102 98 104 100 96 101 80 79 94 92 101 106 99 100 105 108 113 116 116 119 118 121 125 131 132 132 131 128 121 122 120 112 108 102 98 91 88 87 88 88 88 91 94 94 96 99 98 92 86 95 117 117 124 132 132 132 130 126 123 118 130 142 164 182 191 202 210 193 183 188 169 140 130 133 146 156 171 181 194 203 204 200 191 168 157 34 34 46 53 56 85 120 107 103 104 104 92 94 88 75 90 97 100 105 103 100 103 110 110 114 117 118 118 121 122 125 130 129 129 131 133 132 131 129 126 121 118 111 109 108 104 105 110 116 120 116 113 114 109 94 100 120 129 132 137 140 134 130 130 129 125 120 128 136 157 179 190 200 212 202 183 191 189 172 149 140 143 158 180 184 192 199 200 196 190 169 157 46 51 60 63 60 101 124 109 106 103 96 87 87 92 75 83 100 99 97 106 110 111 111 109 113 116 116 117 120 120 120 127 127 128 133 136 137 141 143 140 136 135 136 134 130 130 127 126 126 127 116 109 105 99 100 123 138 142 149 141 135 137 134 133 132 130 122 125 135 152 172 186 199 211 211 185 184 188 192 187 171 155 162 174 183 192 198 196 187 187 170 157 59 66 72 67 57 87 117 110 107 100 95 78 75 96 86 86 91 103 99 100 110 112 111 111 113 115 114 114 115 116 115 118 123 126 131 136 149 151 146 144 141 139 137 134 130 130 127 120 114 113 108 101 104 109 125 142 147 145 144 141 134 133 136 135 134 131 123 126 141 155 175 187 196 206 218 195 178 182 192 191 191 187 186 185 189 196 196 193 183 188 172 158 70 80 79 68 58 95 114 103 101 95 98 79 70 89 91 89 87 95 101 102 106 108 108 111 115 117 116 116 116 113 112 112 119 125 129 136 140 141 145 149 148 143 140 137 128 122 119 118 107 98 101 110 125 142 147 154 152 145 143 135 130 130 133 135 133 128 126 128 140 155 172 186 197 206 218 212 183 185 188 185 192 197 195 193 185 187 192 187 181 189 170 160 83 88 85 76 73 93 106 93 86 92 87 66 71 89 89 92 93 87 101 105 103 107 110 110 112 116 115 110 107 107 109 113 119 121 121 128 130 131 139 142 147 148 146 140 131 121 114 110 103 104 119 129 140 151 149 147 142 142 137 132 128 129 129 131 131 129 128 125 134 150 167 184 196 204 213 220 195 186 188 186 192 197 193 191 183 180 183 179 180 189 168 159 94 94 96 89 87 89 83 76 76 90 83 67 75 84 86 92 94 85 103 109 107 105 110 112 110 109 112 107 97 96 106 113 118 121 121 123 128 131 133 135 140 144 147 144 136 133 128 127 129 133 142 144 145 146 141 135 131 133 131 129 128 127 126 127 127 123 122 122 127 137 162 182 193 201 211 223 213 185 183 187 190 193 192 190 187 182 180 175 177 186 166 160 100 110 116 105 82 77 71 63 68 80 85 76 73 73 82 88 87 87 98 103 106 104 103 107 108 106 107 107 99 101 105 108 111 112 116 118 124 127 128 131 133 132 137 138 135 136 140 142 140 145 142 142 141 135 135 139 137 136 135 132 126 121 121 120 121 118 118 120 125 131 154 178 187 194 203 216 226 196 180 188 190 193 195 189 185 178 179 172 178 187 163 163 57 97 135 130 105 82 65 57 63 75 79 75 68 65 76 81 75 86 97 98 100 101 100 103 101 99 102 103 99 98 98 101 103 105 114 117 121 125 125 124 126 126 124 123 126 127 135 139 136 138 136 133 132 133 138 139 138 133 128 124 120 118 115 112 114 115 117 119 125 124 138 170 182 191 199 209 221 208 180 186 190 191 193 190 186 178 178 172 184 189 164 163 32 37 88 133 131 111 92 76 65 72 79 77 69 64 67 72 65 81 98 98 100 100 97 98 98 96 98 101 100 95 96 99 100 101 111 118 116 117 118 122 126 127 123 122 127 128 130 137 136 142 139 133 136 134 133 131 129 127 122 115 103 105 110 109 107 110 111 115 120 123 132 156 176 178 188 201 213 217 184 180 188 193 192 191 185 180 175 172 184 184 164 163 32 30 27 57 100 118 108 97 74 69 77 76 70 67 66 59 62 75 95 96 96 96 96 96 95 92 92 97 100 96 95 99 97 97 105 110 105 104 106 115 123 123 122 121 123 125 134 133 134 137 140 142 134 134 136 128 123 118 114 103 97 101 113 118 111 114 110 112 115 121 133 153 169 176 180 188 204 216 190 175 184 189 190 190 187 183 177 174 190 181 162 165 23 32 42 23 28 86 106 100 87 72 79 74 67 68 64 53 56 70 89 95 92 92 93 94 91 90 94 95 96 96 97 98 92 94 100 98 95 95 99 107 116 120 119 124 125 126 131 135 142 142 141 137 137 141 141 136 125 110 96 96 99 109 126 133 125 127 124 116 115 118 129 149 160 167 171 181 198 206 192 170 183 186 185 188 187 184 180 178 191 174 160 165 41 33 49 69 43 33 95 105 102 83 72 75 65 62 57 50 59 69 79 90 86 89 91 94 96 94 94 96 96 96 97 95 92 91 95 92 94 97 97 105 108 108 114 122 123 124 129 141 147 145 142 136 141 142 135 128 122 109 92 97 106 123 138 139 135 134 131 129 120 116 125 143 156 160 162 171 190 200 195 173 172 185 187 189 190 186 182 184 191 170 162 164 38 35 31 54 81 37 45 114 113 95 69 72 62 55 51 50 57 73 81 87 85 87 85 93 96 95 94 95 96 97 101 97 99 95 92 89 91 94 95 101 103 100 110 118 123 134 137 140 142 144 144 139 139 138 133 119 115 106 97 102 110 127 137 136 140 141 130 127 121 117 124 135 148 147 155 162 182 201 193 180 168 185 190 192 192 188 183 188 189 164 163 165 33 35 33 26 60 90 33 68 119 101 74 67 55 49 48 45 51 69 80 86 87 86 81 93 92 94 94 95 96 98 101 97 95 95 94 91 91 92 97 97 99 104 113 118 124 137 139 142 145 146 147 141 139 135 134 125 115 99 95 96 107 121 132 136 136 135 121 116 112 110 115 122 131 134 143 153 174 197 186 177 169 181 188 192 193 187 185 195 187 160 164 168 27 24 30 27 29 69 76 28 83 99 76 64 50 49 51 45 47 61 74 82 84 87 81 88 90 92 94 95 96 97 101 96 95 95 94 94 92 93 97 96 102 107 114 119 127 131 136 143 148 145 144 144 134 128 132 129 116 105 93 87 98 108 116 116 115 113 103 98 96 95 101 107 113 123 135 146 158 174 172 168 164 176 186 192 192 188 182 194 181 159 163 167 46 34 20 23 21 28 56 36 31 69 73 58 48 55 57 50 50 56 66 76 75 85 85 80 87 89 92 94 98 97 97 96 98 96 91 93 92 95 95 95 103 107 116 122 126 129 137 140 142 137 140 148 140 132 129 124 115 104 89 81 90 93 92 92 92 89 87 84 83 83 85 90 96 104 118 131 145 152 168 176 164 176 188 190 188 187 188 197 174 160 164 165 36 40 30 21 25 26 33 36 14 23 65 56 43 51 53 49 52 53 62 70 75 77 83 77 81 84 92 90 96 97 94 94 97 95 93 94 95 97 98 96 100 107 115 119 126 132 134 137 142 143 144 143 144 139 128 125 116 109 95 78 77 79 78 70 52 34 31 33 46 64 72 77 80 87 102 119 132 146 183 185 171 174 187 193 188 185 191 193 164 159 165 165 92 72 39 21 13 20 32 26 16 13 47 52 41 44 51 54 54 49 52 63 76 80 75 76 77 80 91 88 92 95 91 93 96 97 95 96 97 99 98 97 105 114 117 120 125 129 131 136 145 148 144 143 143 139 132 128 127 125 116 89 64 60 61 48 26 20 23 24 27 33 46 64 75 78 90 109 124 171 198 191 180 179 186 190 189 186 191 187 159 161 158 161 100 92 70 40 23 11 13 18 16 15 33 48 42 41 54 59 53 47 45 56 66 83 82 78 73 75 82 83 90 90 90 92 94 95 95 98 100 103 108 109 111 117 121 124 123 125 130 137 145 147 149 150 146 144 142 135 144 146 136 108 76 60 51 44 46 56 56 56 56 51 41 42 67 75 85 106 157 195 198 198 194 187 185 189 190 187 191 185 158 165 165 163 87 76 62 55 48 24 14 22 18 8 23 37 32 33 48 58 52 47 52 60 65 79 92 87 76 69 79 83 85 84 89 93 96 98 98 100 98 107 109 113 115 116 119 124 123 124 127 130 135 145 148 146 144 142 140 146 156 156 146 130 107 84 70 61 62 69 75 69 63 63 60 58 72 90 107 126 143 168 185 203 202 198 188 185 188 187 192 176 147 157 170 166 104 94 75 56 41 27 20 30 29 20 23 32 28 27 40 48 43 45 56 62 72 81 93 87 79 70 78 83 83 82 87 95 98 100 101 103 104 111 110 114 120 121 120 122 122 124 125 129 133 144 147 147 147 143 142 152 158 157 147 138 126 112 100 91 88 82 80 76 71 72 76 82 98 114 110 96 102 128 150 192 204 201 196 188 187 185 191 174 169 182 187 182 98 100 91 67 47 36 26 16 21 28 32 32 26 24 30 36 38 45 57 63 76 86 93 90 78 72 81 87 87 83 85 90 93 97 98 105 106 111 118 122 123 123 122 120 120 123 123 130 137 141 142 151 149 147 153 157 160 159 152 138 128 123 107 94 89 83 77 68 67 77 103 98 81 79 80 78 95 108 115 149 179 195 197 192 190 188 189 177 207 205 194 189 108 112 106 86 61 42 40 29 26 33 35 34 38 34 26 31 43 51 60 47 60 79 88 85 74 69 78 87 87 86 88 88 90 96 96 103 105 108 116 119 120 122 122 117 117 122 124 130 135 138 143 146 149 149 154 160 164 165 160 146 136 125 105 87 73 68 63 56 55 76 102 90 70 62 68 70 82 94 103 130 145 174 184 191 190 185 188 174 207 197 187 182 106 105 108 107 86 68 56 47 45 35 26 27 33 32 26 28 41 50 51 44 58 69 76 74 75 78 81 81 81 85 81 83 90 98 98 99 102 105 107 110 114 120 119 120 121 121 128 132 137 138 145 150 151 156 160 164 165 164 158 145 137 126 95 77 64 60 57 59 65 78 91 83 71 63 73 80 87 91 91 115 142 160 170 172 183 184 187 179 201 197 188 179 100 102 109 108 102 88 87 72 40 31 30 25 28 27 25 26 34 36 33 37 52 53 66 75 71 77 79 75 69 71 72 79 83 92 95 98 102 104 107 113 115 116 119 119 118 121 127 133 137 139 145 149 155 155 160 160 150 146 142 131 122 111 86 68 54 54 56 61 89 91 93 88 85 72 75 93 94 84 82 105 134 151 152 150 159 180 193 193 201 204 191 174 111 113 108 100 91 78 72 61 54 54 40 28 26 25 25 25 25 31 33 40 46 44 62 74 68 70 81 83 73 68 67 74 72 74 85 92 99 109 110 111 114 116 118 115 117 124 129 133 132 132 140 147 150 138 145 133 134 135 125 109 98 88 74 58 56 49 57 76 93 103 124 121 122 116 106 109 97 75 78 109 125 138 149 143 143 166 186 187 209 209 196 175 93 92 104 111 100 89 73 55 40 32 33 32 30 23 22 25 24 27 31 36 41 48 61 70 68 71 80 80 84 68 59 66 68 76 84 90 98 106 102 105 109 113 115 114 119 126 129 130 133 136 144 146 139 134 121 111 118 114 101 97 82 73 66 61 68 64 68 84 84 114 148 161 167 161 157 145 105 86 86 115 120 121 129 129 134 154 175 191 219 216 204 184 73 72 86 100 93 78 56 41 38 29 28 35 26 15 21 23 22 21 22 34 39 45 47 59 72 74 74 79 81 70 60 66 71 76 80 83 91 93 98 108 110 111 112 114 116 123 126 123 128 135 135 127 121 113 98 102 99 87 89 86 74 73 72 74 76 75 81 83 88 104 121 145 166 169 155 136 107 103 107 122 116 107 106 112 116 138 166 187 208 205 196 189 72 77 88 87 72 59 57 42 31 26 26 22 14 19 24 24 24 24 23 27 36 48 47 50 62 73 75 70 62 63 67 73 70 69 74 79 82 85 96 107 108 111 115 117 114 115 119 117 122 126 119 111 112 95 90 93 90 81 81 76 75 76 73 72 70 75 81 77 82 86 87 103 126 137 121 117 120 123 111 117 101 89 96 103 108 123 162 199 218 209 199 195 78 84 98 89 70 46 52 40 25 23 22 17 15 19 23 24 26 24 26 29 36 44 49 52 61 68 67 61 57 59 65 65 58 61 76 80 76 82 94 94 96 106 114 114 112 108 112 117 120 122 110 100 90 85 80 84 78 70 71 80 79 74 72 75 73 65 69 73 78 91 93 97 103 116 119 118 117 97 58 61 71 79 92 104 107 120 144 198 219 218 214 208 84 79 84 92 78 53 35 35 29 23 18 18 17 19 21 21 20 20 20 27 34 33 35 52 62 57 61 66 66 63 61 67 58 53 68 70 71 85 89 84 93 102 105 106 110 111 111 121 116 107 90 86 83 78 74 69 61 64 71 80 86 80 72 65 61 57 62 70 74 86 86 83 92 107 95 95 110 112 74 54 61 76 95 107 119 140 148 192 223 219 220 213 76 77 73 73 77 67 44 37 42 26 18 20 19 18 20 20 21 20 19 24 28 22 30 45 48 47 56 63 60 58 66 65 59 60 62 60 61 76 82 86 94 96 99 105 109 111 111 107 90 79 76 72 73 64 69 65 59 64 67 68 61 45 33 32 33 35 34 36 47 52 56 62 75 87 102 130 150 151 140 120 105 98 99 112 132 144 151 198 227 228 224 217 58 59 72 66 53 43 40 32 30 24 18 16 20 21 21 20 22 22 20 19 19 20 25 29 34 37 45 52 51 52 62 57 64 64 55 55 55 65 76 86 91 86 95 106 108 111 107 97 89 79 73 65 66 63 69 66 51 47 33 21 21 21 28 38 45 49 56 60 65 69 83 103 113 128 147 157 154 155 161 156 140 128 114 116 127 128 166 217 226 228 224 222 56 59 77 71 47 34 26 23 21 20 19 19 26 28 24 20 19 19 16 13 13 18 17 18 23 30 33 38 37 44 52 53 63 52 48 53 52 59 77 90 83 70 91 106 106 110 108 95 87 72 62 60 67 71 72 56 29 26 24 25 37 47 56 65 69 76 89 95 107 128 142 149 146 148 152 158 160 166 168 165 157 144 132 124 117 136 182 212 222 228 226 223 51 56 64 65 49 33 32 21 25 21 20 23 26 25 23 22 19 14 14 13 11 14 12 14 18 24 26 28 31 39 43 46 57 50 53 65 63 62 78 87 77 76 85 99 106 111 104 92 86 67 60 63 73 75 61 45 45 48 53 65 73 80 79 84 82 90 101 108 110 121 138 149 149 153 158 163 169 178 171 168 164 153 143 125 116 116 169 205 213 222 228 228 39 41 49 50 43 28 30 24 15 18 19 20 19 22 25 25 24 22 18 13 12 12 15 18 18 19 25 29 29 34 32 35 45 44 56 69 64 62 81 82 76 85 87 85 93 100 101 95 74 67 66 65 77 72 57 55 64 71 79 89 99 101 101 104 107 114 121 128 125 120 132 146 147 150 151 158 162 168 168 166 165 159 151 137 116 133 184 202 213 220 221 224 48 42 53 55 42 32 27 30 19 16 18 22 23 24 24 24 28 30 23 17 19 18 18 20 18 19 22 25 25 29 29 33 33 36 48 60 60 61 71 72 75 76 76 71 86 95 94 85 76 71 70 71 82 73 70 75 82 87 94 99 108 108 109 109 113 115 119 118 114 116 121 121 120 120 119 132 148 163 164 161 163 161 158 140 107 179 214 208 213 221 224 221 54 45 33 42 41 32 34 28 27 27 25 28 32 28 24 29 34 30 26 24 24 22 18 19 20 21 21 21 20 23 26 24 26 35 39 49 58 53 54 57 59 62 57 63 78 85 88 82 79 76 80 78 83 85 87 91 94 98 98 100 106 108 111 110 110 115 128 115 102 92 86 90 87 87 103 120 140 156 161 161 163 164 162 132 127 203 214 210 211 211 222 224 32 35 33 37 30 33 42 30 27 35 31 32 32 35 36 37 35 30 28 25 25 22 18 18 19 19 19 17 18 21 22 27 34 35 34 47 50 42 44 48 40 47 56 66 68 70 79 79 78 81 88 85 89 95 101 104 106 103 98 97 95 96 95 93 96 107 119 105 102 84 76 74 80 83 100 115 132 152 162 163 162 162 150 114 138 203 207 205 207 207 208 220 32 31 33 44 36 25 31 31 36 40 32 34 36 40 44 42 41 36 35 29 24 22 17 14 16 19 19 14 18 23 27 30 30 29 31 42 40 33 34 32 39 51 57 62 70 69 72 83 85 85 90 91 95 102 108 108 108 101 100 97 97 93 87 85 85 92 94 86 93 89 83 75 87 103 107 124 136 151 165 163 164 159 136 98 144 199 203 200 199 201 209 218 36 36 29 32 35 24 25 35 36 33 31 37 40 36 42 42 45 47 44 36 25 21 15 11 14 19 19 15 20 22 22 21 19 22 26 37 40 35 27 25 40 50 54 60 67 64 64 80 85 86 92 98 99 105 108 105 102 101 104 102 96 96 95 92 86 82 88 93 88 81 92 96 111 122 129 141 148 160 172 167 168 156 118 101 147 195 203 200 201 202 205 216 31 41 30 22 29 19 21 29 29 26 28 37 47 49 48 51 53 50 46 42 33 28 22 11 11 18 17 14 18 18 16 14 15 18 22 33 39 28 20 25 29 32 43 42 50 65 64 72 82 86 94 102 104 106 104 103 105 105 105 104 101 101 102 101 99 98 100 100 91 97 111 130 150 151 152 160 163 169 173 169 166 148 93 88 147 186 197 200 196 199 203 212 23 44 48 28 28 23 20 24 25 25 34 40 36 42 47 53 54 48 40 42 42 39 35 26 23 24 22 19 17 15 13 13 15 15 17 25 29 28 30 27 25 28 37 36 52 67 71 74 76 86 94 97 102 103 104 110 110 113 110 109 111 114 114 113 113 115 120 114 116 128 142 162 172 174 172 178 182 182 181 173 166 128 69 111 170 178 182 197 194 195 204 212 24 39 52 52 41 29 34 26 22 24 33 39 45 43 41 43 48 53 50 46 41 40 37 33 29 27 29 27 22 16 11 11 12 12 15 19 25 31 32 29 23 26 32 38 44 54 71 68 67 87 100 97 99 100 111 119 119 120 120 118 119 124 123 124 129 128 128 130 141 146 160 172 174 180 185 188 191 190 186 175 161 107 71 145 179 182 183 186 199 204 205 209 24 22 32 55 56 34 37 34 22 29 42 43 40 36 35 38 38 41 45 50 44 42 38 36 34 33 33 35 34 21 12 12 12 14 16 17 21 25 25 24 28 32 32 35 40 56 52 53 66 83 92 94 98 99 116 127 129 129 133 130 128 135 136 136 140 139 134 144 153 153 157 162 168 175 180 192 196 191 182 172 152 88 100 162 186 196 192 184 192 198 197 201 23 23 29 33 46 37 24 34 35 25 42 41 30 32 33 40 41 39 40 43 49 49 42 38 38 42 43 43 39 25 17 15 13 13 15 15 13 14 16 17 27 33 35 37 40 47 43 51 69 79 82 85 97 101 109 119 127 134 139 140 140 143 144 144 147 148 142 137 137 141 146 150 164 169 174 182 187 184 171 158 132 74 118 166 182 187 183 193 195 196 197 201 26 28 22 24 31 35 26 22 33 31 29 32 31 35 35 39 46 39 38 36 39 41 39 39 40 47 48 38 33 25 20 16 12 11 11 11 12 12 16 19 22 25 26 31 38 41 38 45 58 75 73 73 81 85 97 109 114 124 134 138 137 138 138 140 137 140 137 126 119 116 133 140 153 168 167 161 168 166 158 142 109 86 123 154 173 175 172 183 194 204 210 210 14 26 22 17 18 37 36 31 32 41 39 30 31 38 41 43 50 49 46 41 38 40 40 42 43 45 48 36 28 20 16 9 7 9 9 9 11 12 13 14 17 19 20 24 24 25 27 28 38 57 58 58 64 71 86 93 91 98 116 123 123 122 114 120 123 124 122 124 119 108 120 128 144 145 144 143 146 147 136 115 100 95 114 157 165 157 161 180 180 188 201 209 11 16 21 24 22 29 44 38 34 43 43 31 31 40 42 46 50 49 46 41 36 39 47 47 47 44 43 36 26 18 15 11 8 8 8 9 12 13 11 10 11 13 16 17 17 20 24 23 33 47 49 54 58 62 71 71 70 79 86 97 101 107 109 108 115 112 106 113 117 106 114 118 118 132 134 134 129 117 106 98 83 98 128 164 164 149 151 170 178 177 187 205 17 18 22 30 33 31 40 44 40 38 33 34 51 40 38 47 49 49 54 46 34 35 37 35 36 40 38 29 22 19 15 11 9 9 9 10 11 12 10 8 10 11 12 14 17 20 22 21 32 39 37 45 46 53 64 59 57 60 66 73 84 91 101 101 101 94 93 92 108 101 103 101 104 118 120 114 103 104 92 82 83 109 156 161 151 134 143 166 182 197 201 199 19 18 23 27 29 33 28 32 37 36 42 48 52 58 48 48 48 49 52 49 43 43 41 33 33 40 37 31 29 25 20 13 10 8 8 10 11 10 9 9 8 9 11 15 15 17 18 18 22 22 27 33 33 36 50 53 52 43 52 59 66 65 73 83 86 88 80 80 95 96 93 83 85 92 106 97 87 83 81 68 75 123 156 150 136 133 143 161 169 185 192 187 18 16 21 23 22 25 31 36 36 40 39 51 48 55 57 47 50 49 45 47 48 43 42 44 45 39 33 33 33 27 24 18 15 13 13 12 11 12 11 10 8 9 12 13 12 13 17 17 16 16 21 23 24 27 39 49 50 45 40 54 67 56 53 64 76 75 70 74 76 79 80 84 82 83 94 85 85 68 51 64 82 139 156 148 128 124 135 137 143 169 180 179 14 16 18 17 13 15 23 32 41 43 45 42 37 41 51 49 46 43 41 43 41 38 40 44 47 46 45 43 40 35 30 23 19 18 17 13 11 12 9 10 9 9 10 11 11 11 14 14 14 15 18 16 18 26 41 31 36 36 28 41 54 40 42 50 62 60 66 76 68 73 78 82 73 72 72 56 79 47 38 68 111 142 139 131 122 119 131 123 129 147 167 177 15 18 17 15 12 15 19 25 38 47 48 50 45 34 32 43 42 42 39 38 38 44 48 39 40 43 46 44 39 34 27 19 16 15 14 9 10 11 9 9 9 11 11 11 11 12 12 14 16 16 18 14 16 20 27 20 23 25 28 36 38 34 35 42 51 52 61 66 61 61 71 66 63 61 52 44 64 37 54 98 139 136 128 132 123 119 127 127 142 157 169 175 18 19 17 20 22 18 23 26 28 31 38 42 43 40 33 42 43 44 41 45 44 42 47 47 44 40 41 42 37 32 28 22 16 13 13 12 11 11 10 10 10 13 16 14 13 15 14 14 14 15 16 14 14 12 16 19 18 22 24 36 38 32 31 32 37 37 54 69 58 56 54 43 38 41 45 44 51 71 102 113 137 136 134 144 117 125 133 140 141 147 160 173 20 23 24 22 21 22 29 29 31 27 29 37 40 42 44 51 57 57 52 57 59 54 50 48 48 40 40 38 34 32 31 25 18 12 11 13 15 12 12 14 13 14 16 15 14 15 14 12 14 16 12 13 13 13 15 17 18 18 20 25 28 24 24 23 27 29 41 45 40 47 31 29 28 37 39 47 66 109 127 134 141 153 151 135 128 127 119 123 126 123 137 145
