P2
# Generated by OpenCV 4.2.0
92 112
255
73 77 74 77 64 30 44 14 28 37 22 16 15 12 8 2 5 19 15 21 30 28 25 27 29 32 46 46 44 48 57 55 50 49 52 75 80 82 85 88 67 75 81 72 68 59 52 49 54 54 38 62 54 32 36 47 39 47 39 25 33 31 24 34 39 35 23 16 30 21 19 10 14 22 23 36 23 12 12 14 8 10 11 11 8 1 40 73 76 76 75 75 72 75 68 43 20 24 27 21 46 37 14 11 5 6 7 4 4 12 27 33 35 37 37 48 65 52 45 60 58 48 47 63 57 49 64 89 108 96 100 96 88 97 93 88 84 65 62 62 56 56 45 64 62 37 37 57 51 51 40 38 43 31 29 36 35 34 21 24 30 15 20 9 16 21 27 36 24 22 23 16 11 7 10 11 10 5 23 75 74 76 76 75 73 71 50 17 10 21 18 28 31 25 26 10 7 5 6 12 20 26 33 39 38 49 67 86 92 79 64 91 87 83 81 70 83 87 112 124 101 115 118 114 109 117 117 116 108 81 74 91 81 60 60 63 59 54 46 66 64 58 64 59 46 34 38 39 34 30 21 31 24 18 23 18 19 21 35 38 27 28 27 21 15 10 7 10 10 9 8 54 77 73 76 76 77 66 31 10 19 20 17 16 8 43 40 4 9 7 11 38 38 41 49 45 58 89 106 114 101 111 121 122 122 120 136 93 88 121 146 139 126 142 125 130 143 149 142 138 126 109 97 101 96 73 77 73 76 74 63 72 65 69 89 60 42 43 47 42 35 31 36 34 21 23 18 15 15 30 37 27 26 28 26 25 13 11 10 8 10 9 5 19 64 75 74 75 80 59 8 23 24 16 12 10 11 27 10 6 10 8 29 58 37 38 38 41 82 99 117 98 101 118 130 143 136 127 72 74 83 98 117 127 143 150 144 155 169 170 169 161 151 146 133 115 113 98 101 96 99 84 87 80 72 79 86 62 61 59 58 46 38 49 51 39 31 29 17 18 31 34 24 21 29 25 28 31 23 16 11 10 9 9 7 10 43 55 75 75 70 27 13 28 17 11 18 8 8 7 7 8 10 7 59 62 49 41 43 63 92 112 124 122 136 148 168 150 140 135 72 78 91 110 131 127 137 141 156 177 180 186 184 183 179 167 158 152 143 134 133 119 114 103 107 94 88 102 107 89 73 70 64 61 70 57 46 41 34 23 21 30 34 30 17 25 19 19 30 30 31 25 15 10 8 10 9 6 25 48 58 78 21 16 31 26 18 15 17 11 6 8 8 7 7 27 72 50 46 56 62 78 133 154 153 163 174 176 189 191 171 154 107 120 115 104 106 120 151 153 162 187 195 199 194 194 191 182 173 178 174 165 152 142 143 133 128 120 114 132 126 106 101 91 79 80 81 74 56 42 33 25 26 33 33 19 12 15 12 19 21 21 31 29 17 13 10 11 10 10 5 36 43 72 26 38 37 34 18 6 59 34 6 10 7 8 30 43 57 62 63 60 64 112 166 186 199 204 210 212 207 210 207 190 160 146 129 119 129 122 127 163 176 192 198 201 202 201 196 192 189 188 186 183 175 169 167 158 149 146 154 148 134 124 116 107 100 93 84 75 59 47 37 31 33 35 23 9 10 16 16 13 14 26 33 24 17 14 12 10 11 11 9 15 27 53 47 49 51 34 8 7 76 41 11 7 5 14 37 43 65 70 63 56 92 148 179 202 218 221 223 223 222 220 223 215 206 181 162 152 145 159 158 156 179 195 197 199 202 201 200 197 198 195 195 191 186 180 179 170 166 163 162 159 145 140 126 115 115 106 95 87 79 68 53 41 35 29 20 19 22 17 12 11 20 35 27 14 13 15 12 10 9 9 9 7 18 35 60 75 51 25 12 14 60 31 5 2 10 12 34 35 35 25 61 93 154 182 203 219 222 221 224 228 227 221 218 216 211 205 190 176 175 165 180 187 193 199 200 200 201 201 203 201 199 196 196 195 191 186 184 182 179 167 172 171 165 152 147 139 134 131 119 105 100 94 81 55 40 28 24 24 16 11 12 22 28 26 26 14 9 12 12 11 11 8 8 7 11 22 57 73 33 22 10 17 42 15 4 17 10 13 12 23 18 18 72 151 185 203 220 220 223 222 222 223 225 224 222 222 217 212 207 198 191 192 190 197 200 199 199 203 203 202 204 202 198 197 194 193 189 188 184 182 177 169 173 173 166 162 161 148 146 140 142 130 119 112 94 68 50 36 27 21 19 20 23 26 24 25 25 22 11 9 9 11 10 8 8 10 9 16 71 48 24 16 11 14 16 10 15 17 11 16 20 16 21 73 149 191 206 214 221 222 222 222 220 220 222 225 223 224 222 218 215 213 205 200 202 200 204 201 202 203 204 203 201 200 197 196 195 193 189 186 184 180 178 179 176 175 173 168 165 160 163 154 144 142 136 125 114 86 61 46 34 27 21 21 19 17 19 30 34 23 18 9 12 11 9 8 8 8 6 14 73 36 18 12 13 13 14 15 12 17 22 20 11 18 57 112 180 205 215 217 219 222 222 222 223 219 222 223 220 222 223 219 216 215 213 211 205 204 206 203 203 202 200 199 197 196 194 193 195 189 187 182 182 179 182 178 179 176 175 172 166 165 166 163 156 149 151 145 136 111 76 54 40 29 22 14 13 14 16 25 39 35 24 14 12 10 9 9 8 7 7 8 75 24 17 19 15 18 11 10 10 11 16 13 6 44 109 148 174 212 217 221 223 225 225 223 224 223 223 222 217 220 222 218 216 216 213 211 210 205 203 204 201 201 200 198 196 193 194 194 190 185 183 180 180 181 178 177 176 175 175 170 168 169 169 166 163 159 155 152 144 129 92 56 39 34 25 17 11 13 21 22 27 36 34 27 17 12 8 9 9 7 5 6 26 12 21 22 22 16 8 8 7 12 13 10 16 73 130 179 191 216 220 224 225 229 229 227 224 228 228 226 221 221 222 217 216 213 211 208 207 207 202 203 203 199 199 197 196 193 193 194 191 189 186 182 180 179 177 179 176 175 174 170 169 170 174 172 171 165 158 154 155 137 104 68 46 38 29 25 20 14 20 32 28 32 33 29 19 14 10 7 8 8 5 5 17 17 31 26 17 17 11 8 13 20 17 28 58 76 159 198 205 217 221 225 229 232 234 232 229 226 225 226 222 224 222 217 215 212 209 211 210 209 205 205 206 199 200 198 194 194 191 192 191 187 185 181 178 177 177 178 175 174 174 172 168 170 174 175 173 169 162 156 157 150 112 74 50 43 38 33 29 21 22 29 29 21 12 16 16 13 8 10 7 7 6 5 23 29 28 19 18 16 7 5 12 17 20 46 76 107 186 202 214 220 222 228 235 240 239 237 230 229 225 227 220 223 220 217 218 215 212 214 213 206 205 203 202 196 201 198 193 193 192 190 187 185 180 179 176 177 177 175 175 176 172 170 170 171 174 175 172 166 162 161 155 149 121 81 55 43 36 32 29 27 20 18 25 22 10 9 14 14 11 8 9 7 7 6 20 39 24 17 25 16 8 9 11 22 39 78 111 129 178 209 217 220 228 232 237 235 232 233 229 229 228 222 217 217 212 213 213 214 210 212 211 205 204 205 201 201 200 200 197 195 193 188 182 182 180 178 178 175 176 176 175 173 174 174 172 171 173 173 166 159 159 159 157 151 118 93 67 44 38 30 34 35 31 23 18 26 17 9 9 11 11 11 8 6 8 6 19 39 24 18 15 13 13 15 25 47 77 106 114 134 198 219 220 223 227 232 230 231 233 233 229 226 223 219 219 217 213 212 214 217 214 215 210 209 206 206 203 202 201 200 197 195 193 191 183 180 178 177 177 174 173 173 174 175 173 175 176 174 171 171 164 156 157 157 150 153 125 93 83 59 43 34 28 27 30 32 24 17 17 12 8 8 11 9 10 6 4 7 20 36 15 15 21 14 16 20 30 79 108 109 117 181 220 218 222 224 226 226 233 238 236 234 230 226 218 220 219 215 214 215 218 220 214 212 210 205 207 208 203 204 202 200 197 192 191 185 182 180 179 177 173 174 172 172 171 174 176 175 176 176 172 168 165 158 153 152 141 132 128 98 72 63 51 35 28 21 20 25 31 24 14 13 10 6 7 7 8 7 4 5 26 19 17 30 24 16 21 21 56 105 113 117 142 215 219 221 222 222 225 228 232 231 233 233 229 225 218 217 217 213 214 215 221 218 211 209 211 206 208 210 206 206 201 201 198 190 191 188 185 179 178 172 173 173 173 175 173 174 179 174 173 175 172 167 165 163 152 148 143 125 109 96 76 58 48 36 26 20 21 22 19 22 21 15 12 6 5 6 5 4 6 4 32 15 15 22 20 28 24 30 76 107 122 131 170 217 221 223 223 226 230 228 232 233 231 230 226 221 218 218 212 213 215 216 215 213 212 211 210 207 204 210 210 207 204 204 200 192 190 188 183 177 176 173 174 173 173 174 175 178 177 177 175 172 171 170 164 165 159 145 142 127 107 88 75 61 47 37 23 14 12 17 18 13 15 14 12 8 4 3 5 4 4 8 27 12 10 14 19 39 23 52 79 106 127 141 197 219 225 223 224 231 233 229 233 232 227 227 224 221 217 217 212 215 216 214 214 211 211 209 209 210 201 216 212 209 207 203 201 199 193 186 181 180 178 175 174 176 177 175 177 179 177 176 177 176 174 172 166 164 161 147 135 119 102 84 76 59 46 36 26 12 8 13 15 18 12 10 7 7 7 7 3 5 3 6 12 10 11 16 17 27 32 63 77 101 131 161 213 218 219 227 226 228 229 227 226 228 227 225 222 222 217 216 216 215 215 212 210 207 207 206 209 211 213 215 211 211 206 204 204 200 193 187 181 178 179 177 176 178 177 176 176 176 179 176 174 175 174 171 166 164 153 141 129 114 92 80 72 59 43 32 25 11 10 12 7 14 14 10 9 7 5 6 5 4 5 5 9 8 11 11 17 18 34 58 78 104 140 184 218 215 222 228 228 228 225 226 226 227 226 226 224 221 218 216 216 213 215 210 205 203 203 205 214 212 215 212 211 210 209 205 200 196 193 189 183 178 177 177 176 176 176 174 175 175 176 177 176 175 176 170 163 163 158 145 127 111 101 84 64 53 45 33 22 14 10 9 9 7 9 12 9 7 6 5 5 3 3 4 17 12 8 9 23 22 40 57 82 116 152 202 215 217 224 228 227 225 225 226 226 224 227 227 223 218 216 214 216 215 216 214 209 204 207 210 217 214 217 212 211 210 211 207 200 198 192 185 183 181 176 176 177 178 177 177 175 174 173 173 175 173 174 171 167 159 156 144 125 106 91 82 66 54 44 30 20 12 6 7 13 13 11 9 10 7 4 4 5 6 5 5 23 14 9 11 13 26 44 66 82 132 172 214 214 221 221 222 220 223 224 224 227 229 224 224 221 217 215 218 218 214 214 215 210 205 207 211 220 218 219 215 212 211 209 207 204 197 191 186 182 180 178 177 177 177 176 178 176 172 171 173 173 173 171 169 168 164 157 146 131 113 97 77 63 51 46 32 18 12 6 10 14 13 10 8 10 15 6 4 4 5 4 4 20 13 9 9 11 23 45 62 89 139 195 214 216 220 221 220 222 224 225 225 226 225 226 226 221 218 216 218 218 212 216 214 206 202 204 211 219 220 221 216 214 211 209 206 201 196 189 182 181 179 179 176 177 178 177 174 172 172 171 172 172 172 172 169 164 162 161 147 129 120 107 91 71 52 43 35 17 9 8 9 7 9 12 14 12 12 15 9 7 5 4 6 16 12 9 8 12 26 44 65 93 161 212 212 217 218 220 222 224 224 224 226 227 231 235 229 224 221 217 215 211 213 217 212 204 196 206 216 219 218 219 216 214 211 207 204 197 194 186 179 178 177 176 174 175 179 179 173 173 173 169 170 171 167 166 167 163 159 157 155 141 127 109 92 73 57 44 31 21 10 9 8 5 5 7 10 14 18 17 15 13 12 11 12 24 13 9 6 12 20 44 76 120 191 215 212 214 218 219 221 224 228 230 232 229 227 235 236 228 225 219 215 208 213 217 213 196 189 209 221 224 216 216 215 214 209 202 202 197 190 183 176 175 172 172 173 174 175 174 174 175 174 172 171 170 169 167 166 160 161 156 154 146 130 117 102 80 60 46 35 24 13 11 9 6 8 9 8 8 13 15 13 14 16 16 14 29 18 9 6 10 20 44 73 147 202 210 212 214 215 218 221 228 231 234 231 228 220 219 231 231 228 217 210 202 210 214 208 193 191 209 225 224 218 214 213 212 207 201 199 191 186 182 174 172 169 173 175 175 173 173 176 175 173 171 170 170 167 166 164 158 159 153 148 145 138 131 110 91 73 48 40 24 13 9 7 7 8 9 9 7 6 12 16 10 11 11 9 14 22 11 8 10 19 47 77 150 211 211 211 215 216 220 226 228 228 233 229 228 218 213 225 228 220 214 211 203 210 210 205 191 192 207 220 216 217 210 208 211 209 202 198 189 184 179 170 171 168 173 176 176 174 174 174 173 173 172 170 170 167 165 162 157 155 152 146 144 146 140 119 101 82 58 44 30 14 8 7 10 8 7 8 6 7 8 13 18 12 12 12 7 18 15 11 10 19 47 72 162 213 210 211 214 217 222 226 227 228 229 230 225 219 214 217 219 213 211 209 202 206 203 197 188 195 208 214 207 208 201 201 208 206 200 196 188 181 176 172 168 167 175 178 176 174 174 175 176 175 174 171 171 170 165 160 161 156 151 152 148 149 142 131 116 92 72 49 32 18 7 8 7 6 7 9 8 7 8 7 20 22 12 9 7 15 17 8 10 17 44 78 169 210 210 210 214 218 223 225 226 225 225 224 218 219 224 219 213 204 203 202 199 199 192 186 183 200 212 208 196 195 193 196 197 197 200 195 186 184 183 181 173 171 176 178 175 175 175 174 178 177 176 177 173 172 171 162 159 154 147 148 150 146 142 135 128 109 82 58 39 21 7 5 5 5 5 5 5 8 8 9 7 18 20 16 11 16 16 10 10 18 48 90 177 206 207 211 217 220 224 227 223 218 220 223 230 237 230 219 202 190 197 199 192 189 182 177 186 208 210 200 178 182 191 182 183 182 188 184 187 187 187 186 179 178 179 179 176 173 172 168 170 171 172 173 174 171 169 166 160 152 146 145 148 146 143 137 133 116 104 76 44 26 11 5 3 4 5 7 6 6 7 7 7 9 15 18 8 14 16 12 11 21 50 104 189 204 205 214 217 221 230 228 223 223 223 234 237 227 210 189 187 172 187 192 177 176 173 170 192 211 202 188 167 164 189 174 176 159 172 153 169 162 173 170 169 169 170 171 171 165 164 157 153 152 152 164 167 163 163 165 163 151 141 140 145 144 138 136 135 124 116 95 56 30 16 5 4 5 6 7 10 8 7 8 7 7 9 13 10 13 15 11 14 22 51 115 196 205 208 215 219 225 223 223 229 230 224 204 184 167 155 160 153 149 167 178 167 165 163 159 191 203 182 172 162 146 179 176 158 152 135 120 145 144 126 127 124 120 136 137 128 138 145 140 132 135 133 129 128 138 151 159 158 151 142 136 140 140 138 136 135 131 122 105 76 39 20 7 4 3 4 7 7 7 6 7 8 6 6 7 19 20 12 11 13 21 53 126 199 203 209 215 219 214 207 203 201 189 176 160 132 123 122 116 131 130 150 159 153 154 153 153 185 191 170 162 161 143 156 172 151 137 119 114 132 116 112 115 96 85 88 78 77 84 96 101 117 120 109 110 104 105 114 134 145 146 140 134 134 138 138 138 137 133 125 114 91 49 23 10 4 4 9 7 7 6 7 6 8 7 7 5 3 16 19 13 15 16 47 142 203 203 212 206 187 180 184 186 173 152 117 100 94 89 102 102 103 114 123 143 146 142 145 146 181 181 171 158 152 144 139 144 138 122 119 103 106 97 99 87 75 72 55 60 57 58 68 82 91 96 95 93 97 116 117 114 121 133 139 131 129 133 137 140 140 133 125 117 100 57 29 10 4 6 10 8 7 6 5 6 7 9 6 5 16 21 14 11 12 12 53 157 204 207 200 180 163 160 153 149 130 120 90 63 64 69 80 100 99 98 117 123 139 141 139 145 172 172 163 159 150 141 129 126 118 117 112 102 95 88 78 74 61 55 50 52 54 54 61 69 77 78 81 90 90 91 92 93 100 121 132 126 128 131 134 140 138 134 129 120 104 63 32 11 3 7 7 5 6 6 5 5 6 9 7 5 21 22 12 14 11 10 64 175 203 202 175 165 163 151 125 120 113 86 73 73 80 94 106 113 115 110 114 114 122 129 134 147 161 164 162 157 154 141 129 119 113 102 95 94 92 88 81 79 74 79 84 88 85 85 90 100 108 103 94 92 91 84 79 90 106 124 120 124 132 129 130 135 135 136 132 124 108 72 36 12 2 4 5 8 6 5 5 3 3 6 8 6 26 19 11 17 14 9 86 191 203 187 173 151 153 152 134 134 124 126 126 126 125 120 100 81 75 86 99 109 115 121 130 144 159 163 160 162 158 147 131 121 112 104 98 93 88 81 73 58 38 40 62 81 95 108 118 127 123 119 116 116 109 100 105 112 113 118 111 127 130 131 126 129 134 136 134 127 120 89 44 14 4 4 6 9 4 4 4 3 2 5 8 9 25 14 12 22 18 11 112 201 198 184 167 158 160 160 160 164 148 141 140 129 105 77 62 57 46 41 50 74 96 107 117 137 160 179 181 176 169 154 140 129 124 117 103 93 89 83 64 47 52 63 62 47 38 42 47 62 81 96 112 118 123 129 131 123 122 123 129 131 131 131 126 130 133 134 135 130 128 107 58 24 7 4 6 5 7 6 3 4 4 4 7 9 34 13 18 27 18 19 133 203 201 189 174 165 174 181 167 161 141 114 86 53 38 43 49 74 88 93 87 78 79 88 102 131 189 218 209 195 180 163 147 134 127 114 96 95 89 76 76 88 86 59 27 26 50 38 30 21 24 38 60 75 95 116 129 127 125 127 132 132 137 134 127 130 133 131 132 128 131 115 71 38 12 4 5 6 10 7 3 3 3 3 7 7 15 17 18 22 23 23 147 204 205 197 185 189 182 170 142 109 69 35 19 19 46 48 51 32 59 71 95 110 104 93 99 153 227 233 214 202 184 162 147 133 125 113 102 100 91 94 108 87 45 52 43 18 19 10 22 23 24 32 23 35 47 63 95 122 119 118 129 136 139 136 128 127 133 133 133 133 132 115 74 46 21 3 2 8 7 5 7 5 2 2 5 4 18 19 11 22 22 26 161 205 205 200 188 190 180 141 80 39 22 21 11 13 11 14 40 53 94 73 49 67 96 119 112 184 230 221 210 199 181 163 145 129 128 120 111 110 121 113 77 50 50 78 75 59 54 59 62 60 60 74 49 28 30 43 59 91 114 112 119 134 142 136 131 133 132 134 136 134 137 123 78 45 28 8 2 4 2 3 6 6 2 4 5 2 23 12 12 27 27 39 172 207 203 202 187 176 159 94 38 30 55 75 71 83 88 88 105 109 102 97 101 108 123 129 141 211 225 216 205 195 181 164 145 130 132 126 118 133 141 130 113 109 111 105 115 117 114 113 113 125 104 111 109 98 95 92 86 91 102 118 127 139 141 136 136 139 133 136 136 135 138 123 84 40 23 15 9 4 4 1 1 4 2 6 6 2 15 10 11 23 24 55 182 208 205 200 187 173 130 66 83 126 153 156 148 157 151 142 139 138 128 129 130 130 130 137 196 217 221 213 204 193 187 164 146 136 135 136 127 131 138 139 136 127 124 124 124 133 133 127 124 131 126 127 130 133 134 136 132 132 128 130 143 148 144 146 142 141 137 137 136 135 140 124 83 41 20 16 17 11 4 4 2 3 2 1 0 1 11 17 12 14 25 69 190 208 208 210 204 188 158 158 190 185 169 160 161 153 151 150 143 146 140 135 132 131 139 199 217 212 221 212 204 194 182 163 150 140 139 146 140 131 126 128 129 127 124 123 131 134 133 132 132 135 139 140 140 140 141 143 148 152 153 146 150 156 157 150 147 141 140 139 137 135 137 133 97 41 16 14 15 11 8 6 5 13 22 32 23 3 24 13 11 24 33 82 200 208 207 209 210 207 209 212 209 204 191 178 170 158 145 142 139 141 146 151 156 170 205 217 210 216 221 214 204 194 178 160 153 146 142 149 149 144 138 136 133 139 137 140 143 141 135 134 136 140 143 143 145 146 150 152 154 157 157 157 159 161 157 153 147 144 142 138 138 136 136 135 110 54 16 9 13 11 6 8 29 43 84 104 111 75 16 30 102 71 50 101 208 208 209 212 214 219 221 214 207 207 204 200 190 181 166 167 171 172 174 174 183 206 217 211 211 216 219 212 203 191 177 161 153 151 148 150 153 152 151 153 145 144 150 156 157 158 157 156 158 159 155 150 153 156 158 160 158 159 160 159 158 161 158 154 147 146 141 140 136 135 138 135 114 74 20 5 9 9 6 21 55 112 156 149 144 128 0 91 172 112 54 120 211 207 209 212 219 222 220 216 214 211 210 212 211 210 206 194 196 188 188 196 212 222 215 214 211 215 215 213 204 189 174 161 156 153 153 156 161 159 156 157 163 157 153 156 160 158 158 161 166 166 167 166 164 166 167 165 165 163 161 161 157 159 159 155 147 148 144 140 137 136 136 136 124 90 34 8 7 6 31 51 71 89 123 142 132 132 6 110 161 147 57 131 213 208 209 215 218 220 219 223 220 221 219 221 215 207 206 201 200 201 206 217 227 222 217 215 212 218 218 211 202 186 173 161 159 156 156 157 158 163 162 160 171 171 160 156 160 160 160 166 167 166 167 166 166 166 169 170 167 166 164 161 159 158 158 154 150 145 143 141 139 136 136 137 134 102 49 18 9 25 68 90 111 106 68 51 56 79 20 108 104 91 75 164 212 209 210 213 214 220 226 225 223 221 219 217 210 209 209 211 206 213 220 227 228 220 219 216 214 221 218 211 201 188 176 163 159 157 158 162 162 162 164 163 173 175 174 166 158 160 157 162 166 168 167 168 168 169 170 169 169 172 166 161 158 156 158 153 150 147 146 141 139 136 135 137 137 120 67 31 21 55 92 104 109 107 104 74 51 63 4 125 117 51 98 183 210 210 211 213 215 218 223 226 227 224 222 212 214 216 216 216 215 219 228 231 225 218 221 217 219 222 216 210 199 191 177 164 158 156 157 160 169 165 163 169 173 178 179 176 171 162 163 161 164 169 169 169 171 173 175 174 173 173 168 163 157 157 157 156 150 148 142 138 138 138 137 137 133 125 88 53 55 76 88 104 123 138 137 116 71 75 0 120 152 47 89 193 209 209 210 212 215 215 216 225 230 229 228 221 220 219 220 218 220 225 230 227 225 221 222 218 224 226 215 208 196 187 177 166 160 158 155 155 165 169 168 170 172 175 179 179 176 174 172 170 171 171 173 176 175 175 176 174 174 172 167 160 158 155 154 154 149 143 139 138 138 137 138 135 133 127 101 67 88 93 107 115 134 155 156 132 82 87 0 88 174 47 95 202 207 210 210 214 214 213 216 223 225 227 230 227 225 227 224 218 225 223 228 227 223 220 222 220 227 222 213 206 196 186 180 168 159 157 151 146 153 163 171 174 175 171 178 181 179 178 177 174 174 174 175 181 179 178 175 177 177 170 165 160 152 150 154 153 147 143 137 137 138 137 138 134 135 129 108 66 87 122 141 153 153 160 162 127 102 97 3 56 191 74 108 206 207 207 209 213 213 214 216 218 222 226 232 229 227 225 220 220 222 224 229 226 217 214 222 221 237 226 212 202 191 184 180 168 157 155 150 143 149 152 160 172 176 177 179 177 178 179 179 179 178 178 176 178 179 176 175 178 177 170 163 159 152 153 155 151 146 143 138 138 139 138 137 135 136 128 112 83 88 97 87 136 168 164 139 139 123 97 11 29 198 117 109 206 205 206 208 210 212 214 214 217 222 226 228 227 226 226 223 220 217 223 227 220 209 214 222 228 245 224 211 203 192 184 179 165 153 155 155 151 150 148 148 160 173 182 178 181 180 181 180 182 182 178 176 180 182 177 177 173 170 166 162 161 155 154 153 148 145 140 137 136 137 137 134 135 134 126 122 98 95 76 53 82 130 138 143 157 120 102 12 16 116 103 112 209 206 206 206 208 211 209 211 214 220 231 233 230 229 229 221 220 221 218 215 211 204 220 222 226 234 217 211 206 194 188 180 166 153 157 156 158 156 151 144 147 161 176 178 182 185 185 184 187 184 182 181 180 181 178 174 169 167 160 160 161 158 155 151 148 144 141 136 135 135 136 137 136 132 127 117 98 94 73 66 80 111 141 157 160 130 103 10 5 119 108 134 207 204 204 206 208 210 207 207 212 220 227 228 233 234 228 222 222 221 214 209 192 207 225 219 218 217 211 207 200 194 185 175 161 155 160 156 155 156 157 147 148 147 159 173 176 178 182 183 186 185 185 180 179 179 174 172 171 165 161 158 159 157 152 148 148 144 140 138 136 136 131 135 134 131 121 113 97 99 98 82 89 109 131 154 161 140 110 17 1 102 156 147 202 204 204 204 206 208 206 205 210 215 225 227 232 232 229 222 220 212 207 197 192 224 223 213 210 204 198 190 180 178 170 163 152 150 154 154 152 158 155 148 146 147 148 160 170 178 182 185 185 183 180 182 181 177 173 172 169 160 159 157 157 151 148 148 148 144 140 136 135 129 131 133 131 130 117 106 88 112 120 90 87 103 125 149 167 141 119 17 11 73 164 152 200 205 204 204 204 206 207 207 209 214 221 230 233 233 230 222 215 207 197 187 203 217 210 206 198 193 183 174 165 163 158 153 143 144 148 148 145 147 148 148 140 146 143 149 160 171 175 182 180 182 180 181 181 178 173 171 163 160 155 150 152 151 150 149 148 143 142 138 135 129 132 133 130 129 114 90 78 131 137 96 87 102 122 149 166 133 126 9 17 48 118 134 196 205 206 204 206 206 206 208 211 213 220 228 232 229 223 217 206 201 196 181 200 199 191 193 201 186 173 162 153 153 153 148 137 121 114 122 133 136 140 139 131 132 145 143 153 166 169 174 177 179 181 177 178 175 171 166 159 157 154 150 151 151 150 148 149 144 140 136 133 130 130 131 131 125 110 74 85 131 146 119 100 103 121 148 166 133 136 14 10 29 105 144 194 202 205 206 207 206 205 209 212 214 218 225 224 220 223 212 198 194 186 179 199 176 141 78 86 178 170 155 149 149 151 120 68 24 4 16 71 117 129 129 128 139 154 146 150 161 164 174 178 179 180 177 176 173 167 161 153 154 150 151 152 148 145 149 149 143 139 133 134 127 132 133 129 113 104 86 91 135 147 135 112 118 135 161 174 129 146 18 11 17 89 152 201 207 204 206 206 205 204 207 210 213 218 220 221 222 220 210 204 193 181 187 204 160 117 69 20 80 167 145 137 144 122 64 73 71 56 48 59 93 108 113 129 159 165 157 147 156 163 170 172 177 178 175 173 170 162 159 156 154 150 147 144 147 145 150 149 146 142 134 132 130 134 131 117 109 93 88 105 133 145 135 110 124 140 164 164 129 152 8 8 16 80 170 202 204 208 208 207 202 200 207 209 212 217 219 222 221 213 207 199 189 185 208 227 193 130 114 136 178 186 157 126 129 112 93 102 120 132 133 121 100 98 114 152 165 170 173 157 152 160 165 173 175 177 173 172 166 167 162 155 152 150 145 142 148 150 152 149 144 141 135 133 132 132 128 109 99 89 83 107 127 128 131 120 127 144 171 153 131 145 9 15 13 69 170 188 201 207 205 210 204 197 207 211 214 217 219 224 219 214 206 198 184 206 230 229 226 180 174 217 218 191 166 123 110 107 109 124 129 128 134 131 116 127 152 163 166 172 173 168 157 159 162 170 169 171 170 168 164 161 157 153 154 150 146 146 150 149 151 149 146 141 137 135 133 136 124 110 94 85 87 97 100 114 130 133 123 145 163 133 149 105 17 20 7 61 188 173 197 207 207 208 207 208 211 210 214 217 217 219 218 208 201 195 200 229 236 230 227 227 217 199 200 195 166 129 109 114 129 115 101 95 114 119 132 149 155 163 167 172 176 174 164 159 163 170 171 171 170 166 164 161 158 154 156 153 147 148 151 153 150 149 143 141 138 135 132 125 116 103 97 88 80 96 124 141 133 118 71 42 73 116 149 48 15 16 8 77 187 169 193 206 206 205 210 213 212 211 216 217 214 218 214 206 207 204 220 234 230 222 216 190 152 153 173 169 169 148 136 136 130 92 70 71 63 79 115 138 154 159 165 172 172 175 170 162 165 165 168 170 171 167 163 163 158 153 156 151 148 150 152 153 148 149 142 139 136 132 127 111 107 102 95 83 72 117 153 149 142 94 55 41 9 36 61 27 23 21 12 73 148 191 178 193 206 208 210 211 212 212 214 214 216 218 212 211 210 213 226 236 228 213 177 128 106 120 128 138 143 125 125 148 144 116 81 63 48 63 80 99 120 137 157 168 172 172 176 173 164 165 168 167 167 168 166 163 161 156 154 150 151 150 148 151 147 147 145 140 133 131 125 114 110 103 84 75 77 113 149 141 115 76 52 101 82 34 17 22 27 26 10 65 137 153 167 192 203 208 207 212 212 211 214 215 216 216 213 212 214 226 230 224 218 193 119 102 109 113 114 100 89 94 117 137 144 126 100 78 64 50 61 76 94 112 133 147 157 168 172 177 173 167 169 169 170 168 164 160 160 160 160 153 151 150 148 151 146 144 145 138 134 130 124 120 105 93 77 67 67 116 140 126 112 89 65 92 83 73 20 19 31 22 14 45 113 124 174 188 198 207 210 212 210 212 216 219 217 217 215 216 222 234 224 206 192 155 120 92 120 114 105 110 98 91 120 128 150 156 119 96 92 69 66 66 73 86 110 122 141 150 166 175 177 174 169 166 165 168 164 162 162 163 159 154 150 151 151 148 145 139 139 137 127 123 119 118 99 93 74 60 74 127 137 123 118 80 69 75 72 81 13 14 23 17 19 41 81 125 161 190 197 207 206 207 211 213 217 216 218 218 223 223 222 202 179 181 144 129 124 125 119 114 124 138 134 127 146 163 181 184 175 125 97 89 77 75 71 76 96 97 122 130 141 144 160 173 172 166 166 168 166 159 164 162 156 154 148 152 152 145 136 137 126 131 127 124 117 109 94 90 75 58 89 133 132 124 90 73 79 89 72 36 9 15 21 16 23 31 81 116 144 196 200 203 202 207 211 214 215 219 218 215 211 210 195 172 170 147 122 144 134 132 125 135 158 166 166 179 192 191 187 175 156 129 111 117 109 95 79 81 88 92 114 115 113 124 124 148 172 169 165 169 169 166 164 162 156 155 149 152 148 147 140 127 125 122 112 111 116 91 83 90 74 57 107 142 128 120 58 74 78 69 38 10 12 13 29 19 24 25 71 123 138 181 197 204 208 210 211 213 214 219 221 209 198 179 151 153 145 139 142 162 160 135 141 136 143 150 159 181 193 163 132 130 129 128 126 130 125 118 101 89 95 88 106 105 102 113 120 108 134 162 168 167 168 167 164 160 155 154 151 151 144 138 140 129 119 123 111 107 102 95 78 85 72 59 97 129 135 103 76 98 63 40 9 12 12 8 24 18 15 32 67 116 136 183 189 201 205 203 207 213 215 220 203 184 175 133 143 136 130 156 152 162 165 135 140 147 145 149 155 165 154 133 113 120 125 125 127 126 121 118 122 109 97 94 98 98 102 103 109 105 104 140 167 168 167 168 165 160 156 153 151 148 142 127 122 117 117 120 113 105 91 86 76 78 59 49 72 103 113 85 102 89 50 17 12 15 10 6 25 16 17 25 71 109 128 182 191 191 186 198 210 215 217 198 190 182 143 141 138 128 138 153 156 157 131 128 139 156 144 136 136 135 143 130 112 111 112 120 126 121 115 110 115 120 112 104 102 99 97 103 100 94 95 108 160 162 162 165 163 158 156 150 149 147 135 132 116 107 109 112 114 109 88 83 73 73 56 32 23 59 62 80 90 66 22 9 10 7 7 5 22 23 19 16 45 81 124 176 197 183 178 197 213 213 202 199 200 165 148 160 127 122 130 142 148 133 112 120 121 99 110 109 97 111 106 116 100 71 67 83 77 63 83 95 94 103 119 120 109 103 89 85 97 94 93 90 129 163 162 160 156 148 145 147 141 132 124 123 117 117 113 105 115 96 91 81 74 60 52 26 8 2 14 29 23 6 1 9 7 5 5 4 20 18 15 21 45 72 126 158 179 161 180 191 207 207 213 204 181 153 150 152 130 121 118 136 132 100 79 72 81 77 80 85 85 84 61 66 64 66 80 79 82 75 72 68 60 64 88 116 123 114 97 88 96 91 84 90 101 157 159 155 151 154 146 138 142 134 116 110 119 119 110 99 112 89 86 79 78 52 40 22 7 4 4 2 1 1 1 4 6 7 8 5 17 22 17 17 28 55 98 125 153 171 176 184 197 207 209 191 173 149 138 136 121 112 109 99 80 54 77 138 187 187 189 179 175 173 158 157 156 150 146 141 138 138 130 121 105 80 51 60 77 102 122 109 102 102 83 78 105 126 160 158 146 136 140 128 131 122 119 106 105 105 105 103 99 83 84 82 56 53 37 14 7 12 9 4 5 4 5 4 12 9 7 5 21 20 11 7 21 45 75 110 158 175 170 160 191 207 203 189 171 152 136 121 120 111 85 61 65 121 188 203 208 205 207 198 187 181 179 188 186 185 167 152 147 146 141 139 130 116 99 76 68 73 110 128 122 113 98 66 87 115 147 156 138 137 130 127 117 107 98 103 98 98 103 101 95 87 80 68 50 48 23 11 18 10 4 4 5 6 5 6 13 14 6 5 11 6 10 9 20 28 76 110 135 168 168 157 175 194 205 183 187 147 130 130 133 131 119 147 196 212 220 217 216 214 202 195 188 179 182 181 175 169 160 149 149 150 152 152 151 148 144 141 140 129 129 137 132 119 105 94 95 134 139 141 135 133 130 129 111 102 90 90 94 97 98 98 93 82 73 61 51 36 15 18 14 6 5 4 2 5 4 4 14 14 5 5 8 8 10 8 14 34 72 82 117 155 163 153 173 198 200 193 190 146 143 139 154 163 165 205 223 216 206 209 215 209 198 195 193 187 187 176 173 167 164 163 166 168 164 162 157 159 157 151 151 153 155 155 142 120 108 99 101 127 137 136 135 126 129 115 106 93 92 93 83 88 91 91 90 70 77 59 45 24 16 15 7 13 7 4 4 4 2 3 13 8 6 9 8 10 7 7 13 33 57 61 102 127 154 164 157 177 188 193 168 145 158 163 175 177 195 217 214 212 208 205 201 189 179 174 163 161 158 148 152 152 154 153 156 157 157 154 155 157 157 154 157 161 166 168 161 146 117 111 102 125 139 126 113 117 118 109 100 80 78 87 89 79 85 83 79 83 69 50 36 15 19 11 15 16 10 4 2 3 3 7 11 3 4 11 11 9 8 7 10 18 49 65 82 111 135 144 150 165 183 177 153 163 183 189 193 195 211 215 210 209 206 196 194 176 162 154 139 133 132 128 129 135 143 145 147 154 158 156 158 157 159 162 163 168 169 167 168 163 144 120 110 119 145 134 99 106 101 97 95 73 74 78 87 70 72 74 74 71 55 44 28 14 17 8 19 19 9 3 3 4 4 9 11 5 4 10 12 11 9 10 10 15 41 71 101 110 114 136 157 152 167 175 159 160 183 191 193 209 218 214 211 205 199 190 178 148 134 137 126 120 118 115 113 126 131 131 141 148 150 157 158 162 167 169 169 168 168 168 164 163 156 133 111 108 133 127 99 91 87 85 86 68 76 65 73 66 65 65 61 62 50 38 16 13 14 9 24 16 6 3 4 4 5 7 10 9 7 12 16 11 12 12 8 13 30 69 84 92 93 114 128 136 162 174 168 180 192 197 198 213 213 211 210 206 200 194 180 153 151 137 127 116 106 117 112 129 144 138 139 148 154 162 167 170 170 171 171 168 166 165 162 166 162 145 115 101 125 117 96 77 71 78 66 63 74 68 62 66 61 58 55 56 44 35 13 13 12 10 22 17 5 5 5 5 4 7 9 12 11 16 21 16 16 10 4 13 26 65 60 62 84 105 120 123 130 154 179 188 196 200 206 214 211 211 209 203 203 201 189 170 169 155 143 139 117 137 131 129 146 155 153 157 166 168 172 170 171 170 170 168 165 170 170 169 162 153 137 107 109 108 85 60 62 74 59 53 72 61 59 58 49 45 53 45 37 32 11 8 9 9 20 12 6 5 5 7 6 6 7 10 13 16 22 22 12 9 8 13 18 53 68 56 87 100 98 92 121 145 160 194 202 210 214 212 212 212 208 206 204 205 197 188 187 185 186 170 141 156 159 153 149 154 168 169 170 170 171 171 172 170 165 166 167 162 161 157 152 149 133 107 100 83 64 61 56 66 56 47 61 57 46 43 42 43 46 35 35 33 3 6 4 9 14 10 9 6 4 7 8 7 6 8 8 12 27 25 9 13 17 10 8 31 62 75 83 98 71 94 125 132 147 170 197 196 206 212 216 212 211 211 213 213 207 211 217 213 212 187 181 185 182 176 175 166 174 176 176 171 172 174 172 172 165 166 171 160 152 155 129 115 110 105 98 79 53 52 51 58 47 46 49 55 38 38 44 44 35 30 48 30 1 4 5 11 10 9 7 6 4 6 6 6 6 4 7 11 21 24 13 19 26 11 14 22 40 50 72 80 52 88 97 101 122 165 178 193 198 211 220 219 216 218 221 221 223 227 222 216 202 194 192 189 180 181 182 184 185 185 183 179 178 177 176 178 167 158 166 156 136 137 121 101 91 100 92 74 55 54 45 47 38 42 50 48 40 40 41 31 28 36 51 20 1 2 5 10 9 8 6 3 6 8 6 6 6 10 15 17 24 17 16 21 20 13 13 11 34 50 67 51 52 65 80 86 114 152 171 176 197 216 223 229 226 227 224 228 231 228 224 213 196 197 185 175 185 186 183 187 187 189 188 185 181 180 178 177 174 170 160 137 118 114 114 98 78 81 80 56 51 43 49 41 39 47 48 43 31 39 31 29 36 48 53 14 2 3 5 7 11 7 7 4 8 9 8 5 8 11 10 9 22 13 10 16 12 10 7 12 30 56 57 52 49 50 76 86 111 124 140 172 188 199 219 226 231 232 231 233 230 222 213 196 189 186 182 177 183 187 186 184 180 186 188 185 184 180 173 177 167 161 151 129 97 90 93 80 66 56 48 50 47 35 40 33 36 38 34 33 33 33 29 33 59 66 48 8 5 4 3 5 10 8 7 9 10 10 9 8 8 6 5 5 14 12 7 8 9 12 12 14 29 39 43 40 35 57 67 89 111 106 125 155 149 181 191 210 233 223 224 234 225 210 186 180 156 175 161 167 172 181 179 173 163 165 172 181 178 165 161 170 168 152 134 107 92 77 70 65 59 47 46 42 40 38 33 29 34 32 28 21 33 37 35 42 75 75 41 3 1 3 4 5 8 8 9 9 12 9 8 11 9 6 5 4 30 21 15 11 11 15 12 13 35 29 44 37 50 60 50 75 108 94 110 127 140 139 162 189 199 197 197 208 208 190 181 159 151 162 149 153 153 165 142 145 136 143 156 164 165 152 135 158 149 124 125 95 78 80 64 54 41 43 42 36 30 29 28 28 27 24 24 24 31 31 34 70 87 76 35 1 0 3 4 4 8 7 6 8 10 9 7 9 9 7 7 7 76 37 18 10 13 16 11 20 16 13 37 55 38 36 46 65 81 73 92 104 126 116 148 145 161 173 179 178 186 181 175 143 140 150 141 128 131 133 121 121 134 125 130 130 130 132 139 136 119 103 96 79 64 60 51 50 32 30 35 32 25 22 21 24 19 16 23 24 26 36 69 96 84 74 28 0 2 5 5 5 8 6 4 9 10 11 12 12 8 7 8 11 63 32 17 15 19 35 20 18 14 2 46 63 36 41 40 43 55 73 67 91 108 119 118 117 130 148 157 163 164 146 150 134 125 137 137 116 115 108 102 103 109 106 110 89 97 104 117 117 107 83 68 54 47 41 44 33 31 21 28 26 28 19 18 19 16 18 18 17 25 63 90 100 87 74 23 1 5 8 6 7 8 7 8 12 10 9 11 8 10 11 13 11 13 20 34 34 21 35 26 8 13 11 47 33 37 40 38 35 45 53 44 64 97 89 86 97 101 123 135 157 134 125 133 116 110 121 117 112 92 95 98 100 80 95 83 78 74 72 86 82 82 72 54 37 42 30 26 30 26 21 23 19 20 19 16 15 15 18 16 30 54 78 101 101 90 71 17 0 6 8 6 5 8 8 8 12 13 9 8 7 8 12 9 12 18 10 18 27 23 31 29 29 18 16 42 15 44 49 31 39 65 51 35 68 61 66 67 86 98 109 98 112 121 112 120 105 89 94 96 99 86 85 85 90 75 83 67 63 65 47 59 61 58 57 43 26 31 27 25 28 24 20 18 21 17 16 14 14 14 12 30 58 75 99 107 102 91 65 11 4 6 7 4 6 7 10 10 9 9 7 7 9 9 9 10 21 13 16 12 13 30 35 31 24 16 22 21 12 46 86 39 58 60 34 50 75 44 54 83 84 81 83 72 87 102 89 94 100 89 74 76 83 66 76 79 73 55 65 56 54 54 42 45 46 42 44 37 27 20 26 24 20 24 20 17 18 15 14 14 14 11 18 63 85 97 106 107 103 92 55 6 7 7 8 7 6 9 9 8 9 11 11 12 12 11 9 19 22 20 16 19 23 27 19 31 26 14 18 16 13 37 146 109 53 25 14 47 60 31 40 56 66 76 77 85 72 88 90 91 74 75 73 59 65 54 64 72 61 51 54 44 46 54 35 33 37 32 29 31 23 19 20 26 19 23 22 17 18 17 15 16 16 23 50 98 99 111 111 107 105 86 41 6 11 8 6 10 7 12 9 5 7 9 11 11 10 10 13 20 14 13 16 21 28 20 15 19 11 8 9 13 6 67 213 164 93 38 26 44 43 32 61 48 41 56 67 66 51 66 77 72 72 68 64 55 44 46 43 54 52 40 40 33 30 38 29 23 21 29 24 23 18 19 14 17 16 17 15 18 20 17 18 17 20 58 79 92 102 115 117 113 102 82 33 8 10 6 5 7 9 12 6 5 3 4 6 7 9 11 15 17 13 28 13 14 16 8 2 2 6 7 7 12 2 157 232 209 147 74 22 42 44 33 42 27 27 41 56 49 38 47 66 63 62 54 47 50 36 40 34 36 41 32 36 25 23 29 25 17 16 25 22 18 21 21 13 16 18 21 15 15 16 17 17 20 52 81 91 96 112 117 117 113 101 77 26 8 8 4 8 6 9 11 7 6 4 4 2 2 6 9 14 13 10 18 18 32 31 18 9 7 8 10 12 16 49 236 240 215 202 148 46 51 47 30 23 28 26 30 41 41 37 36 53 40 38 46 33 37 31 30 39 30 27 34 31 32 17 20 18 15 19 23 16 14 18 17 18 13 17 22 23 15 14 12 18 50 79 98 100 109 115 120 116 112 100 72 22 7 7 7 7 8 9 10 7 7 6 6 4 3 5 10 11 11 13 7 12 34 38 19 9 7 22 35 30 14 150 255 244 217 213 196 126 49 40 33 21 20 33 24 28 31 40 47 48 38 30 38 27 26 23 22 27 23 19 23 19 26 18 17 16 21 21 19 13 15 15 17 13 13 17 16 19 19 13 17 57 77 94 105 118 123 122 121 119 111 99 70 16 8 8 7 6 6 8 10 9 8 6 5 6 6 3 9 9 13 15 50 24 21 21 20 21 19 22 43 28 57 244 251 245 226 200 205 197 150 59 38 33 19 34 23 36 42 50 38 32 41 26 27 27 23 21 19 24 21 19 19 16 14 19 18 13 17 18 20 18 18 16 16 13 15 13 15 16 14 14 50 85 86 93 116 121 120 127 121 119 111 97 67 17 7 8 8 7 5 5 10 12 14 8 4 6 6 6 7 8 12 15 69 42 50 55 61 45 28 34 43 16 149 255 239 254 243 212 202 207 206 144 70 42 26 23 38 33 31 36 33 13 24 21 22 33 22 20 17 18 21 18 22 16 12 20 16 13 21 21 18 21 18 15 13 15 17 14 14 16 14 41 83 97 96 104 121 125 126 128 122 117 111 95 64 24 8 9 8 6 7 12 10 17 21 14 10 8 6 9 7 8 10 10 49 28 53 69 65 62 44 51 38 35 221 255 248 254 254 222 208 209 204 195 155 94 58 31 37 37 27 27 37 20 27 26 18 32 25 24 20 22 24 18 19 18 15 19 18 20 23 15 15 17 20 15 17 19 19 15 17 25 41 76 91 101 106 115 124 127 129 126 126 119 111 93 67 37 4 12 11 10 9 12 16 18 21 18 13 12 8 8 8 7 5 7 53 26 41 66 64 69 60 50 31 72 254 255 255 255 255 240 208 209 204 201 199 159 102 66 46 36 26 28 37 41 33 30 32 26 20 24 30 28 27 23 26 28 23 23 19 21 19 17 18 16 17 18 21 18 15 17 30 53 70 73 95 113 118 120 123 133 128 126 126 121 111 92 69 67 6 13 13 13 14 10 12 12 16 12 9 9 9 10 10 7 8 12 60 32 18 59 72 67 60 46 24 118 254 255 255 255 255 254 218 202 202 196 194 197 157 127 108 68 44 36 36 37 37 37 46 37 30 27 25 30 30 25 28 28 25 25 19 19 23 19 20 17 18 19 20 21 17 23 45 63 70 90 112 115 119 126 126 132 130 129 126 121 111 87 79 97 11 14 15 14 13 13 8 5 8 7 5 6 7 10 9 6 12 23 69 45 13 30 54 58 58 44 22 159 255 255 255 255 255 255 245 200 203 203 194 189 183 153 145 137 105 67 50 35 26 31 39 31 31 30 30 31 30 28 26 27 24 16 19 21 21 20 21 21 23 19 21 25 31 48 53 68 77 114 124 123 125 134 136 133 127 128 128 120 108 81 100 127 23 11 21 16 18 12 9 7 5 5 4 7 8 10 10 11 16 23
