P2
# Generated by OpenCV 4.2.0
92 112
255
17 25 70 87 56 12 16 16 4 6 16 20 35 50 53 43 49 46 73 92 86 107 101 91 126 108 90 106 75 73 87 139 102 92 84 141 134 134 159 153 180 155 148 148 145 170 154 147 138 125 112 118 122 114 116 99 75 65 59 47 49 42 40 31 34 51 45 44 52 38 27 33 40 49 76 72 40 8 11 13 8 1 4 4 2 4 1 1 1 3 1 4 34 37 55 99 51 8 15 26 12 7 9 23 53 74 68 96 79 75 83 83 95 104 110 109 119 124 122 84 104 80 70 98 119 99 104 153 95 163 161 160 167 170 167 167 177 164 171 172 165 151 136 129 125 128 116 113 94 84 82 92 64 57 59 61 50 57 60 36 32 46 49 46 39 38 43 61 15 15 9 1 6 10 3 4 1 1 0 1 1 1 2 8 36 30 48 67 33 9 13 11 19 8 7 32 85 77 83 76 89 95 96 102 132 137 151 154 150 157 157 119 86 82 85 87 114 120 104 111 112 135 142 173 169 184 175 181 179 176 158 172 170 152 147 147 143 144 127 120 110 100 98 83 79 70 68 58 62 57 57 52 58 41 33 43 43 47 53 35 26 15 12 9 3 1 3 3 0 1 3 1 1 3 3 2 68 31 53 62 20 9 19 15 16 16 17 42 54 103 104 104 115 110 119 130 143 166 193 187 179 173 168 168 146 109 106 116 95 88 85 127 136 145 168 174 188 180 180 184 178 170 165 161 164 162 168 160 153 150 143 139 108 107 112 98 91 76 74 67 67 69 58 58 53 39 47 45 42 23 47 25 17 8 8 7 1 3 3 3 2 5 4 1 1 2 1 2 34 12 78 44 24 37 21 11 7 6 12 36 67 97 113 114 143 148 156 154 174 188 195 187 188 209 183 183 191 163 151 125 104 133 117 150 130 140 173 172 184 181 188 186 182 172 177 174 164 170 167 157 155 152 150 145 120 128 119 114 107 91 92 82 79 77 76 64 53 50 47 47 39 34 44 18 13 11 4 4 3 6 4 1 0 0 1 1 1 1 0 1 56 53 67 40 35 1 12 13 13 9 28 45 60 121 130 152 165 179 181 191 189 195 191 192 186 197 203 178 167 166 170 170 139 130 131 139 166 177 179 186 180 183 183 181 184 185 178 177 174 169 161 157 159 156 155 150 136 110 132 127 108 120 107 92 94 85 82 83 54 55 47 46 47 31 46 25 17 14 15 12 4 8 1 2 1 1 1 2 1 2 4 3 49 55 78 33 36 9 18 33 6 12 27 50 80 101 151 159 173 183 180 183 192 192 198 197 196 194 194 189 187 179 177 170 169 172 151 164 182 182 194 191 180 181 179 185 181 184 180 181 175 167 160 161 154 151 151 147 138 130 131 123 125 123 123 117 112 112 93 85 58 50 55 53 41 29 34 54 21 12 10 6 5 2 4 1 5 1 1 1 0 1 1 1 34 56 65 12 18 13 80 23 8 15 37 55 94 115 145 164 171 180 179 184 183 193 193 195 194 200 205 193 207 201 195 200 188 186 184 194 186 195 186 182 189 181 184 184 182 180 178 183 175 166 167 157 160 157 150 145 147 132 125 124 127 126 125 123 125 114 112 100 67 63 53 56 55 44 28 42 21 13 8 9 11 6 9 6 1 2 2 2 3 2 1 1 18 11 45 20 9 16 39 11 24 25 46 77 111 147 150 168 177 174 179 177 181 194 190 195 194 199 200 198 201 202 199 210 206 191 181 187 196 199 197 193 178 183 180 186 186 178 180 171 183 166 171 157 153 147 151 145 139 143 130 124 133 132 124 124 121 121 114 114 82 62 66 46 52 40 44 32 24 10 15 9 7 5 22 6 8 4 0 2 1 1 1 1 38 44 41 17 14 14 14 14 19 34 56 100 133 147 158 170 176 177 181 174 187 194 198 197 202 202 198 202 205 205 205 207 212 209 204 207 197 199 192 191 193 184 184 176 178 176 171 170 170 166 168 164 153 150 147 145 131 134 122 124 125 120 127 126 117 122 126 116 93 61 67 57 47 46 43 25 25 22 6 4 1 4 7 8 24 1 2 3 2 1 1 2 30 18 29 16 10 10 13 17 29 39 67 113 137 148 163 168 170 176 185 184 191 195 196 205 206 198 204 203 206 205 209 209 199 218 204 207 206 196 192 193 194 188 187 189 188 174 178 173 172 168 163 164 158 148 142 137 137 124 125 127 127 125 127 121 122 122 126 118 102 86 60 60 52 46 45 24 14 10 6 6 4 14 13 18 1 4 2 1 1 0 1 1 33 64 24 24 8 11 12 21 33 44 88 106 140 149 167 171 172 179 189 185 189 199 201 202 203 203 208 201 207 203 206 208 212 199 211 206 198 207 205 199 195 192 185 189 185 182 176 174 171 173 169 156 153 145 144 134 126 128 119 126 118 130 117 124 120 120 120 111 100 96 77 70 66 55 58 37 24 9 5 1 27 17 13 6 4 3 7 7 6 4 4 5 23 73 21 25 8 12 10 41 52 68 93 125 146 153 166 173 176 179 186 190 188 194 196 198 197 206 202 204 205 204 200 199 206 209 204 202 202 201 194 199 196 189 184 188 182 183 177 177 175 169 165 161 157 147 132 129 126 121 120 120 123 122 122 120 120 121 114 109 103 98 96 82 77 52 38 25 27 31 28 41 38 26 19 9 0 9 3 1 1 3 4 3 68 23 49 24 10 13 6 52 78 79 91 140 145 158 178 174 176 176 177 183 187 187 192 200 203 202 204 198 199 204 203 203 198 203 200 200 206 198 186 197 194 194 188 185 186 181 178 179 176 174 170 165 153 147 132 128 122 114 117 118 124 127 118 127 122 125 118 113 103 101 97 79 67 61 29 27 24 9 16 25 22 16 21 43 22 3 7 3 4 1 0 0 73 34 26 16 19 15 4 81 87 79 109 132 160 161 178 177 177 176 180 186 185 192 199 202 198 204 206 204 204 209 206 211 210 206 201 203 202 194 191 199 194 193 191 189 180 179 177 175 174 168 165 164 152 148 128 122 116 113 118 125 131 128 130 129 128 123 116 110 98 88 77 74 66 58 37 20 19 9 10 19 3 18 12 6 19 13 11 3 3 4 4 1 44 38 19 38 14 7 23 73 72 81 103 141 164 169 176 175 176 179 179 186 189 198 198 208 205 206 205 206 207 201 208 204 203 203 207 203 206 196 194 192 192 191 189 190 182 181 182 174 168 168 165 164 151 141 120 119 112 117 122 129 135 132 133 135 129 121 113 112 108 98 75 74 63 49 41 29 19 12 14 2 24 5 9 5 7 2 1 2 1 2 5 3 46 20 9 22 11 6 36 72 71 76 119 150 164 173 176 181 181 186 180 186 189 194 196 200 205 201 207 204 203 203 205 205 202 213 210 201 201 197 196 191 194 192 191 189 183 182 178 173 173 164 165 162 151 140 123 119 113 124 131 132 136 137 138 133 133 124 113 107 110 110 85 65 61 53 33 29 13 11 9 1 4 2 3 6 10 4 1 4 1 1 1 4 68 47 17 42 16 29 13 81 75 72 133 156 161 170 181 180 180 186 183 184 186 187 189 200 203 198 205 203 199 205 196 204 203 200 201 206 198 196 193 191 194 190 194 184 188 191 174 175 172 172 165 157 151 146 130 121 126 129 131 130 132 133 136 138 129 121 115 104 108 96 91 72 58 49 37 27 16 9 8 2 1 3 10 12 12 11 13 2 1 4 1 1 51 19 33 18 16 12 36 70 46 93 139 160 170 178 182 181 182 185 184 180 184 189 196 204 202 210 205 206 196 205 202 204 200 201 197 194 190 186 189 193 192 195 184 189 185 185 182 180 178 172 163 158 152 142 129 125 129 130 136 136 137 137 134 133 124 116 113 106 102 99 93 72 56 48 38 27 20 13 4 1 2 9 6 3 5 3 3 10 1 1 6 3 33 31 19 6 31 25 37 55 49 107 145 166 174 179 176 177 181 182 181 187 191 191 198 205 208 209 205 202 198 201 203 199 191 196 192 193 187 189 194 201 198 190 193 189 187 183 185 180 175 169 164 159 151 146 140 124 137 138 139 142 140 139 133 130 130 123 120 103 103 96 82 69 56 46 39 31 17 9 6 9 8 8 8 10 15 10 12 1 5 9 3 0 26 14 24 17 41 41 53 46 85 125 156 168 173 177 175 174 178 183 188 189 189 194 196 204 201 204 202 203 207 207 208 209 198 199 195 188 196 195 205 201 206 193 194 196 195 186 177 180 172 166 161 162 151 144 134 133 139 144 144 144 141 133 134 130 124 122 111 107 100 97 72 73 65 47 37 25 26 9 9 4 4 1 4 4 9 2 37 1 1 0 0 1 6 16 46 35 26 21 50 39 99 135 159 170 171 176 179 180 179 182 187 187 191 189 199 199 202 209 205 209 204 207 207 208 203 200 197 195 201 205 203 210 195 198 199 198 194 192 184 180 175 171 167 158 152 133 143 130 146 143 142 143 138 131 133 130 124 118 113 110 93 91 82 71 67 47 39 38 26 20 4 1 2 1 2 4 10 10 25 74 29 39 13 1 22 45 55 50 21 18 37 66 128 147 162 170 177 176 178 180 184 190 188 184 187 193 199 202 202 205 205 207 206 208 211 210 201 199 202 206 205 207 201 199 210 201 199 196 200 192 187 183 179 172 165 154 148 140 133 134 143 148 145 144 138 133 131 129 118 116 104 106 93 85 77 75 68 46 36 30 28 18 10 4 2 3 2 1 8 13 9 5 24 1 6 6 3 55 57 55 21 33 44 90 149 160 166 175 177 179 179 180 182 186 188 188 189 196 204 203 210 204 209 207 210 210 208 206 211 204 197 199 203 204 204 205 204 204 197 199 196 194 198 189 182 169 159 163 144 143 142 132 143 143 139 141 140 138 133 130 124 113 117 100 86 86 75 72 55 43 34 33 24 17 14 6 1 0 3 5 6 7 6 10 9 4 10 2 4 37 57 31 5 50 56 101 143 159 171 175 176 180 182 183 183 183 182 191 194 195 201 205 213 207 213 206 205 209 207 204 202 203 197 202 209 203 211 203 206 201 199 195 196 201 193 184 180 172 160 155 146 140 141 144 145 149 144 144 139 133 126 123 119 117 111 102 86 79 66 64 51 45 42 37 27 19 16 8 3 4 3 4 4 9 13 12 12 12 5 3 8 45 64 11 19 42 66 116 153 156 171 175 175 185 184 185 189 189 189 197 190 195 202 209 209 205 213 207 205 204 207 206 205 195 193 202 204 208 202 207 209 201 199 196 199 199 191 189 184 169 161 150 142 143 148 149 155 152 149 147 139 136 129 124 120 113 103 94 80 69 67 56 49 58 43 37 33 23 16 6 1 3 4 10 13 11 13 8 5 18 6 3 19 39 40 8 44 54 72 107 147 153 173 175 180 187 189 189 193 193 191 200 193 191 198 206 202 215 209 209 192 199 200 206 198 185 188 197 209 207 210 209 208 203 200 196 207 198 193 182 180 169 152 153 151 156 151 159 160 156 154 144 141 135 128 119 112 105 101 89 82 77 63 60 62 58 46 39 40 33 18 8 1 2 3 6 9 5 12 21 18 0 2 1 26 19 19 20 64 49 84 109 140 153 165 175 185 186 193 192 194 198 199 203 200 195 194 210 208 209 209 204 193 190 200 198 194 193 196 201 204 210 203 211 200 197 204 209 209 206 196 182 181 175 157 161 155 160 156 165 164 160 155 148 144 133 123 118 116 105 97 87 85 66 62 61 60 56 45 42 37 24 22 13 5 2 1 2 6 7 6 3 1 9 3 1 15 29 18 16 23 45 89 111 137 150 164 173 180 190 196 200 204 207 205 205 206 200 189 203 207 202 202 206 201 197 199 203 196 184 192 198 203 202 198 196 194 201 207 207 207 211 198 177 173 169 161 163 155 167 169 164 166 163 157 146 144 134 124 121 117 111 102 93 80 67 63 56 58 52 40 40 34 29 22 17 5 2 3 4 5 9 19 5 1 0 4 1 22 14 14 36 41 61 96 107 137 149 169 175 179 188 190 196 201 206 210 207 208 192 194 202 203 205 199 191 186 198 200 201 199 187 192 199 199 197 190 190 181 198 195 196 202 193 178 178 170 171 166 164 164 162 162 163 159 149 139 137 128 121 121 119 116 108 101 88 80 65 59 55 54 47 40 39 34 31 23 17 10 2 0 0 0 13 0 6 1 0 0 0 16 11 21 24 26 61 98 106 146 157 170 154 147 160 177 182 191 194 203 202 207 211 189 201 189 181 197 193 188 204 198 194 193 191 188 197 199 199 194 194 193 187 187 172 180 163 169 154 150 157 157 153 143 148 150 151 146 138 121 117 123 93 87 97 97 101 90 87 82 62 59 52 53 49 35 39 33 29 26 17 10 2 1 1 1 0 1 0 0 0 0 0 9 18 16 9 27 65 100 107 130 154 154 132 131 143 135 149 162 181 190 182 181 177 160 133 180 151 172 192 179 186 188 195 192 190 192 200 197 197 191 185 190 195 187 181 172 146 152 149 109 117 126 115 119 113 118 114 110 114 98 75 60 76 79 72 62 73 79 82 78 60 56 48 50 47 38 34 32 28 28 20 13 4 1 1 1 1 1 2 0 0 0 0 17 18 11 11 13 66 107 108 132 105 121 67 89 106 105 113 109 113 96 125 123 98 121 127 159 127 148 167 165 178 184 191 193 192 188 191 195 190 187 189 189 186 183 172 162 123 125 129 101 112 92 81 80 49 53 54 48 51 63 55 59 63 58 51 52 43 53 64 70 59 53 53 52 41 35 40 33 31 28 21 16 9 2 0 1 15 8 6 0 0 0 1 6 17 11 18 6 73 104 106 108 79 92 64 65 69 74 65 82 66 80 79 93 88 88 93 131 160 140 133 129 174 164 174 178 185 181 184 183 185 186 183 185 181 162 142 148 130 100 99 83 75 84 61 47 56 46 41 37 36 31 47 41 39 36 38 30 39 40 42 47 57 53 46 43 42 35 37 33 33 28 26 17 13 3 0 0 1 1 0 0 0 0 0 10 20 8 16 20 78 110 102 110 80 87 59 66 58 74 68 58 70 72 63 61 61 74 85 93 137 139 115 134 146 171 164 181 179 185 183 171 176 179 175 177 172 168 133 124 92 76 74 79 51 51 52 45 42 33 32 22 27 34 39 36 34 40 41 38 41 32 34 33 42 42 38 39 37 31 36 35 33 31 30 19 19 9 1 1 0 2 0 0 0 0 0 13 18 9 11 24 73 110 112 104 98 83 84 76 70 81 67 65 45 55 55 53 70 78 82 90 112 110 124 138 140 146 158 167 174 183 182 175 169 168 168 166 156 153 124 105 95 77 67 67 52 49 43 42 42 41 36 37 35 38 43 48 48 42 33 40 36 36 39 35 40 34 36 34 32 31 33 35 35 33 29 22 20 14 1 0 1 4 2 0 0 0 0 14 15 10 14 20 65 104 102 107 119 102 122 126 112 93 89 65 74 73 73 71 82 91 109 109 96 102 105 111 128 139 154 159 176 180 169 169 156 158 160 154 146 130 112 77 83 86 75 72 67 63 53 48 49 46 38 41 41 45 45 45 46 50 50 46 45 47 50 43 39 34 32 30 29 32 34 34 33 33 28 24 16 16 3 2 1 1 4 0 0 1 1 2 13 13 14 17 58 109 99 130 117 118 117 116 109 104 92 84 68 64 53 57 57 64 86 91 88 99 110 113 114 134 137 155 167 174 169 160 150 148 141 134 120 117 99 87 79 68 67 63 54 37 27 20 15 27 31 35 31 31 28 31 35 47 52 56 59 55 51 43 42 34 31 30 29 30 35 38 34 36 37 27 19 15 2 0 0 1 1 1 0 2 7 3 13 15 16 16 49 111 111 119 120 116 107 98 90 83 56 68 96 104 84 97 66 54 41 28 46 76 100 102 105 109 127 149 161 177 177 174 157 145 129 119 110 94 81 74 67 65 57 41 21 17 23 36 40 27 36 33 42 58 67 68 60 39 34 43 44 55 50 47 43 37 34 30 33 34 35 37 34 33 35 28 21 11 0 0 0 1 1 4 7 12 12 3 10 14 19 23 49 115 115 114 118 108 98 82 73 68 132 88 31 29 33 24 29 36 66 79 52 46 37 63 95 111 118 147 169 177 182 183 162 151 123 103 92 76 69 65 64 50 37 23 24 32 43 27 18 8 27 6 23 31 30 39 52 62 48 24 40 48 47 47 45 42 37 35 34 35 36 35 37 39 34 26 14 10 1 0 0 1 2 4 13 11 15 5 7 11 18 21 61 115 121 119 122 102 91 87 72 101 45 49 48 32 20 172 94 25 103 72 78 80 66 59 56 79 108 150 174 190 198 190 175 150 125 103 81 68 64 58 45 36 30 30 43 44 27 14 22 93 66 20 15 49 63 62 19 31 36 32 31 37 42 44 45 43 42 40 42 39 35 40 38 34 33 27 14 6 0 0 1 2 5 7 12 32 38 5 5 10 21 25 57 122 127 124 132 116 113 111 84 56 47 81 41 40 17 10 19 41 108 154 96 87 99 94 81 76 78 144 185 204 215 207 190 163 132 113 79 66 58 48 38 37 51 52 56 38 84 18 18 7 3 33 37 53 92 74 57 39 42 35 35 43 52 49 50 55 53 49 45 43 40 41 41 27 32 28 15 8 0 0 2 4 3 9 28 36 30 4 1 3 17 30 58 121 129 130 141 131 127 118 83 58 75 95 56 47 58 42 50 60 144 175 158 126 102 96 125 137 100 141 195 212 220 213 194 171 148 112 73 65 61 54 46 67 73 73 39 69 116 44 45 64 57 41 41 97 112 96 68 56 48 26 45 54 63 64 66 66 61 59 54 49 44 44 37 38 34 31 20 8 1 1 2 0 6 13 21 17 15 18 3 1 35 27 77 125 137 141 151 156 141 130 133 102 88 141 147 59 77 69 75 87 180 188 181 146 104 162 140 175 179 159 193 213 220 221 203 179 143 101 73 73 75 76 73 107 118 43 79 89 126 145 56 61 67 61 74 137 125 122 119 82 52 30 35 55 64 79 83 85 79 77 61 55 52 49 43 35 35 34 23 11 2 5 2 3 6 21 17 16 19 11 5 1 15 40 97 127 135 144 164 166 160 161 150 119 100 133 149 161 94 103 158 183 171 175 155 143 172 186 223 177 187 180 194 208 219 217 202 182 149 102 81 95 99 105 145 153 147 146 137 129 134 121 138 162 157 145 158 145 123 119 90 80 58 39 42 50 64 87 95 103 98 92 78 66 61 52 46 40 41 38 27 14 9 6 7 9 6 10 14 18 24 0 14 1 11 25 117 132 139 150 170 176 168 170 162 138 113 124 127 124 138 155 163 161 125 152 157 150 160 161 178 175 183 186 195 207 214 215 196 178 154 105 84 113 119 130 140 140 181 171 155 154 140 157 130 121 122 100 97 101 97 96 100 72 50 45 57 62 75 87 104 110 110 104 89 75 65 58 48 44 47 40 29 20 15 14 12 15 20 19 23 27 28 4 6 4 7 38 110 137 140 153 173 172 175 182 173 157 132 117 122 134 129 140 140 143 153 142 145 158 173 185 198 196 198 193 196 204 209 208 191 174 144 110 80 118 136 140 142 145 167 171 174 156 151 138 146 131 118 108 111 102 90 77 66 54 56 62 74 82 89 97 106 118 117 107 94 80 74 68 55 44 43 38 34 24 15 16 11 11 10 18 26 30 35 9 2 4 13 28 125 132 140 158 172 174 179 180 180 173 168 143 131 132 127 111 136 141 142 158 161 172 194 207 203 204 201 190 194 203 214 202 183 178 148 118 81 119 151 158 146 149 165 182 181 175 160 153 139 129 113 101 95 89 82 75 70 77 86 94 96 102 111 114 114 122 118 110 98 89 74 68 61 46 47 44 35 25 20 18 14 6 10 15 25 28 34 5 6 4 11 30 128 133 142 157 172 175 179 187 191 193 183 173 165 156 152 160 159 167 177 183 187 191 196 203 204 207 200 188 191 201 210 194 177 167 146 108 88 115 146 165 155 151 158 181 187 183 175 175 168 154 138 126 120 112 107 105 104 106 112 112 113 120 129 130 126 122 115 109 95 84 75 68 55 53 47 42 29 24 16 14 9 8 15 12 22 26 35 7 7 4 7 32 127 126 145 159 170 173 178 192 199 200 191 189 190 185 186 185 193 198 196 199 191 190 204 206 207 201 194 190 186 203 203 190 178 161 139 107 99 112 141 160 156 158 160 172 180 179 179 175 179 174 167 155 152 143 142 127 130 129 130 134 132 141 143 142 133 122 111 102 93 86 70 69 59 43 43 40 30 27 20 12 12 11 10 12 17 28 35 1 6 9 5 29 123 131 144 160 169 175 188 193 197 194 200 198 198 199 200 198 198 199 195 186 184 202 209 208 204 195 193 183 194 207 201 188 177 156 130 110 107 120 136 154 151 150 163 170 175 179 178 181 177 177 173 168 164 159 160 148 146 144 148 143 152 152 155 146 134 132 118 102 88 80 78 68 65 48 45 36 28 29 23 18 14 12 9 9 17 28 44 8 7 8 10 35 121 132 144 160 171 181 187 190 198 199 199 199 194 198 199 195 190 186 190 196 204 210 206 206 197 202 192 186 194 202 201 189 173 159 131 110 105 120 136 147 143 151 156 168 174 172 177 178 176 173 168 163 162 161 160 154 152 155 154 162 160 161 157 147 139 125 117 100 86 76 67 56 55 41 40 34 34 27 18 11 15 12 9 11 22 32 42 4 5 8 19 35 115 133 146 157 168 177 185 189 191 193 192 198 196 191 194 189 187 196 197 205 210 210 205 201 200 194 189 189 190 204 204 194 175 158 128 116 105 113 124 138 137 142 148 163 172 170 174 177 177 168 163 164 161 164 159 158 156 161 164 153 168 153 157 146 131 126 110 92 80 75 64 58 53 48 38 30 28 25 20 14 18 12 11 15 23 35 46 2 3 8 15 47 112 132 144 154 171 176 182 190 196 195 192 195 189 193 194 190 200 204 205 209 207 209 203 195 192 196 182 189 197 195 199 186 173 156 125 117 107 104 122 125 139 132 132 149 171 170 168 174 172 178 164 164 159 167 163 153 161 163 161 163 155 149 155 140 139 120 101 90 75 68 58 58 52 39 40 33 29 23 17 11 17 11 14 15 30 43 46 8 8 10 30 45 115 135 140 152 170 177 183 185 190 192 195 194 199 202 199 202 195 200 208 206 202 201 196 191 195 188 183 194 195 205 193 181 170 152 130 117 106 94 105 114 131 130 134 143 155 168 171 167 171 170 175 180 159 168 166 166 159 161 161 159 156 151 150 147 129 108 102 91 70 62 53 51 43 39 36 30 27 23 14 12 16 10 15 18 31 45 47 16 12 10 25 46 114 134 141 148 164 173 181 184 190 192 192 195 198 204 200 199 199 200 201 201 201 198 197 193 190 183 184 197 200 205 196 184 169 154 134 117 102 93 103 115 117 124 128 140 155 168 161 169 169 158 178 169 171 180 165 176 177 163 160 159 150 153 138 136 114 97 102 84 67 63 56 43 47 31 34 28 28 20 15 10 11 10 14 22 31 48 44 10 7 7 27 47 90 131 137 142 158 178 181 183 185 185 183 189 190 196 199 196 196 192 193 203 198 198 194 192 182 181 177 190 199 204 195 181 172 160 139 119 103 90 89 95 108 117 122 142 163 166 165 169 173 165 171 171 165 171 175 177 171 161 161 156 151 144 128 130 105 98 91 79 65 55 57 47 37 35 28 24 22 18 12 8 9 15 20 25 32 42 33 5 9 10 22 45 87 127 132 139 157 173 176 176 182 185 191 186 191 198 195 195 196 195 200 198 195 195 190 182 177 178 181 198 203 208 202 180 162 152 137 121 102 85 88 80 92 111 129 141 150 157 164 171 163 166 163 168 168 169 168 167 162 158 150 149 144 139 128 117 109 92 85 72 61 52 48 44 39 34 31 27 23 20 13 11 11 22 26 25 28 25 25 1 5 7 26 46 59 127 128 135 151 167 168 174 179 185 184 188 187 194 189 193 197 193 195 195 198 191 185 172 175 174 186 196 202 211 189 182 172 161 141 117 96 84 88 70 81 104 125 140 147 159 167 161 169 162 173 169 164 168 166 170 163 147 153 143 142 129 125 115 105 91 69 64 55 50 45 40 31 32 28 20 15 23 11 10 14 22 33 17 9 23 42 4 9 13 22 30 58 114 132 132 143 153 161 165 176 181 183 190 188 190 197 193 192 195 195 196 195 189 180 173 180 180 188 191 210 214 204 189 163 156 134 114 92 95 94 79 90 93 118 142 162 166 164 164 162 172 159 168 159 170 160 161 160 150 143 145 136 123 115 104 99 78 67 61 60 48 47 38 33 31 27 27 30 21 11 10 16 25 25 18 17 27 45 10 13 19 26 40 44 118 136 135 145 149 159 164 170 176 182 186 187 187 197 201 193 192 196 198 201 187 168 174 187 181 187 195 207 219 205 181 167 155 133 109 88 100 106 107 101 87 98 141 162 161 161 165 165 178 162 167 164 164 159 161 157 147 142 142 127 121 105 103 85 71 61 57 53 49 41 35 32 28 23 25 16 13 20 8 19 23 22 23 26 34 36 10 13 25 16 36 62 92 131 138 148 145 151 166 164 169 177 180 187 186 190 199 194 193 197 200 195 190 178 176 183 176 189 197 211 218 199 184 162 150 133 104 93 108 109 113 115 98 100 136 157 167 174 160 170 170 171 160 162 159 161 163 155 142 147 130 127 108 98 94 78 67 61 58 52 48 40 32 31 28 25 24 21 17 12 13 19 20 24 24 33 25 33 8 6 20 16 14 53 68 131 139 150 147 150 158 161 170 174 180 190 185 193 197 199 198 197 195 189 192 181 180 180 173 185 189 203 201 196 178 168 148 125 99 94 113 101 105 110 95 73 119 160 166 162 165 172 169 162 167 161 162 164 154 143 143 127 118 120 112 95 93 75 69 60 60 54 48 37 32 29 27 23 21 13 14 13 13 17 22 27 27 27 22 19 4 1 8 27 18 44 73 116 138 148 145 144 152 159 167 175 177 186 190 199 198 195 194 197 196 202 188 175 179 170 166 183 191 186 188 178 176 157 136 113 91 89 102 88 92 97 86 75 98 151 172 171 174 165 165 159 170 160 157 157 147 144 140 133 130 108 101 90 88 67 68 64 56 51 43 35 33 29 27 21 21 17 16 8 11 18 21 24 33 33 17 15 13 11 4 32 42 61 62 113 125 141 150 148 147 154 162 170 175 183 192 196 199 201 195 188 192 195 192 172 162 159 152 166 167 178 174 170 162 140 114 88 77 65 74 68 71 77 67 71 73 135 163 172 175 169 162 166 168 158 160 156 149 143 132 128 123 102 101 92 76 72 62 64 53 49 43 34 31 28 23 22 17 16 9 11 11 17 19 26 31 29 7 9 15 13 2 20 10 54 58 106 127 146 149 153 147 154 161 169 170 186 193 196 198 201 200 195 193 189 190 160 136 113 115 140 150 163 168 151 140 112 88 62 59 53 57 49 59 56 57 63 56 129 164 170 175 168 167 165 172 161 158 153 150 135 133 119 112 111 97 86 73 74 66 66 56 48 40 35 33 24 28 24 16 21 9 11 15 21 23 29 29 18 1 3 22 9 9 31 29 59 56 110 126 134 145 154 151 157 157 170 171 180 190 193 196 198 198 197 193 194 192 184 104 75 45 73 132 138 149 127 112 87 68 55 38 8 5 22 42 54 54 48 52 115 153 168 176 172 175 165 167 157 154 150 145 133 129 123 114 104 95 77 75 69 67 56 53 47 35 35 35 27 23 21 13 17 12 10 14 19 19 24 12 1 1 4 11 13 7 30 27 52 57 78 111 124 145 154 155 156 162 165 173 184 184 190 197 201 195 197 194 194 189 190 157 83 80 67 99 125 111 107 95 78 44 21 17 12 13 23 34 44 43 29 59 109 138 167 178 171 169 164 162 155 157 149 139 133 123 113 101 99 90 74 74 71 62 56 54 45 34 34 29 26 22 26 9 11 7 11 14 19 17 8 2 1 0 0 14 28 1 22 28 47 55 73 122 110 136 148 149 152 155 163 168 178 183 188 193 190 199 197 203 203 201 195 191 125 109 148 146 87 86 77 67 58 28 23 18 24 29 34 39 32 30 45 82 111 143 161 172 181 165 159 160 154 145 145 141 120 121 106 103 100 95 82 74 72 58 51 48 45 42 31 28 22 20 25 12 10 7 1 1 1 4 1 2 0 0 0 6 10 24 7 22 39 35 80 105 101 123 138 145 154 159 164 169 177 176 187 188 189 196 198 201 198 204 192 186 180 162 158 160 142 86 66 66 52 33 28 30 31 35 41 41 55 70 79 101 116 140 156 166 166 164 163 159 157 153 141 131 129 119 115 98 100 80 72 71 61 55 51 46 40 35 32 30 27 24 17 13 14 8 1 0 3 4 1 1 0 0 0 11 26 21 15 13 30 52 73 108 112 122 140 146 151 155 160 167 176 177 186 190 192 196 197 203 198 196 181 182 169 181 171 163 159 145 89 59 53 42 40 42 44 45 62 81 84 96 104 115 135 153 157 170 170 171 164 153 152 144 141 129 128 113 117 102 93 77 72 64 61 58 43 49 37 34 28 26 17 18 20 12 8 8 0 0 9 0 6 0 1 2 0 1 29 2 3 27 16 57 69 88 114 117 124 143 147 150 159 168 170 178 186 188 192 194 193 195 202 190 173 159 161 112 124 134 159 158 128 97 80 68 61 59 48 47 49 83 94 87 106 125 148 149 159 160 170 171 158 159 150 130 130 138 120 117 104 96 86 76 77 62 62 52 51 42 35 38 27 24 22 18 17 11 3 9 0 1 12 0 8 0 0 1 2 21 1 9 19 26 26 50 56 69 131 127 102 131 146 152 154 164 176 181 179 180 187 194 196 201 197 179 188 105 119 85 109 81 131 154 121 120 116 97 89 75 74 52 44 67 83 99 116 132 143 148 159 157 165 166 160 155 139 140 134 123 117 102 104 89 96 73 69 61 57 43 36 47 36 37 25 21 24 24 11 12 4 3 0 0 6 1 0 3 6 4 2 6 5 14 17 13 49 83 52 71 97 110 122 135 152 148 157 158 176 179 183 186 190 194 194 189 184 187 166 90 86 80 98 92 120 127 91 117 155 114 94 100 79 64 65 51 80 81 109 124 143 149 150 155 157 158 148 150 137 135 126 122 114 108 100 97 83 62 61 47 48 44 42 46 32 39 28 21 20 16 10 9 2 0 0 0 4 0 3 1 0 0 2 8 4 15 14 37 38 57 47 65 84 114 114 121 125 146 154 163 168 179 179 183 188 191 187 175 158 116 113 89 69 77 91 97 102 104 95 145 148 122 112 92 95 98 90 48 65 66 86 119 126 146 155 143 151 148 148 146 135 129 119 119 108 102 97 87 71 58 54 48 41 39 44 34 35 36 20 24 37 15 8 9 0 0 0 0 4 0 2 0 0 1 1 11 11 9 17 6 36 48 34 58 55 115 75 109 126 136 145 153 167 175 178 177 185 178 162 157 126 107 72 52 71 105 93 82 111 115 136 136 176 159 147 96 77 71 59 46 53 56 85 99 108 125 120 137 139 136 148 141 136 122 121 121 110 99 93 80 69 49 55 44 47 47 33 38 26 33 17 28 21 14 12 8 1 0 0 0 5 2 2 0 0 0 6 10 11 7 35 47 31 41 30 44 72 73 102 104 121 113 134 153 165 167 177 175 148 133 110 92 100 103 81 56 91 86 96 118 174 178 159 174 187 164 184 154 84 73 53 51 58 48 62 65 87 104 101 113 106 122 126 130 132 118 125 115 101 93 87 73 58 45 49 41 44 41 35 34 21 36 18 20 16 11 11 6 0 0 0 1 1 1 0 0 0 0 10 25 35 15 7 10 27 34 20 40 46 83 86 102 116 112 136 150 167 158 154 135 128 122 100 93 112 83 70 68 61 91 87 143 173 189 209 208 201 204 172 162 106 68 33 44 49 47 81 58 95 89 100 107 95 103 85 129 122 121 114 99 100 87 78 76 58 45 46 43 39 36 39 25 20 27 23 20 13 7 8 4 0 1 0 0 2 4 3 3 3 8 1 16 26 19 17 14 9 34 28 37 33 62 78 97 116 108 124 137 166 167 140 131 87 105 87 107 92 99 75 70 70 97 112 133 137 148 160 179 168 146 126 108 96 70 59 52 50 44 79 56 89 87 94 105 97 93 100 97 91 103 107 105 92 90 80 66 45 48 37 38 28 28 32 29 25 25 16 15 15 8 6 2 0 0 0 0 0 1 2 2 21 37 43 14 2 18 2 1 13 18 24 34 23 49 66 97 107 88 99 116 145 155 160 70 63 88 72 98 100 94 96 99 86 96 119 133 146 135 150 142 125 98 95 103 109 91 68 61 74 78 60 70 67 74 97 71 70 86 74 75 83 84 102 100 89 89 69 51 43 43 44 38 40 29 28 24 30 17 16 17 15 9 3 1 0 0 0 0 0 0 3 12 4 15 6 17 27 37 10 6 6 17 24 40 29 38 44 78 90 75 103 104 151 138 126 92 72 79 78 64 96 90 120 108 80 103 109 125 132 128 124 115 102 87 87 97 95 85 67 59 58 66 66 67 57 60 71 71 67 58 59 65 80 71 91 99 85 83 53 51 42 39 39 28 27 21 27 22 34 16 20 13 15 8 3 2 0 1 0 0 0 0 0 13 14 13 11 26 29 8 21 18 16 20 28 22 32 31 45 66 63 77 96 101 146 127 113 57 46 70 80 78 94 108 98 73 58 70 79 82 98 93 103 89 89 78 64 75 74 65 64 55 48 46 56 68 58 50 59 55 54 64 44 61 59 48 70 87 85 72 50 49 43 37 28 83 40 26 21 16 23 17 17 11 9 9 4 0 0 0 0 0 0 0 4 2 5 3 2 1 38 22 41 7 14 22 33 20 40 24 42 24 51 83 94 88 128 143 75 67 58 63 70 83 82 81 70 60 38 46 70 63 51 40 47 39 36 45 40 20 16 21 27 28 28 32 27 50 52 53 48 60 52 58 39 36 46 55 54 63 74 63 50 35 45 36 27 19 18 29 23 20 12 17 20 7 17 3 1 0 0 0 0 0 0 0 2 6 8 1 2 30 23 14 27 41 54 20 24 17 30 36 37 33 62 57 92 96 116 140 77 61 63 64 67 82 86 63 52 53 110 135 130 139 160 159 140 116 81 66 74 100 122 122 112 102 89 88 62 35 24 32 45 67 65 58 48 27 35 44 54 55 60 59 54 41 33 30 40 40 35 24 22 26 15 20 16 9 5 1 3 0 0 0 0 0 0 0 0 2 6 2 8 19 12 8 26 16 23 17 20 32 22 28 20 40 50 57 71 73 113 117 103 66 75 72 91 100 119 133 159 156 146 156 155 167 181 171 183 158 165 159 157 174 149 145 133 120 119 102 94 60 66 76 70 70 73 67 53 41 28 29 45 49 50 54 46 34 36 41 29 31 42 22 4 31 14 15 9 3 5 1 0 0 0 0 1 1 0 0 0 1 1 1 2 10 30 15 18 26 16 10 12 2 18 20 29 35 43 51 53 71 98 101 93 81 69 61 91 138 154 160 174 169 157 160 152 150 153 160 167 176 163 171 166 171 153 138 124 119 116 106 98 79 112 112 109 108 101 75 66 47 30 31 43 50 48 45 40 31 32 22 28 47 38 15 25 19 9 11 6 4 1 5 0 0 1 0 0 1 0 0 0 3 1 1 2 35 18 48 36 18 13 10 13 8 23 18 27 24 32 60 65 61 84 81 126 68 63 86 119 152 163 184 179 175 166 155 142 165 179 166 175 158 181 172 178 161 147 133 130 122 121 110 104 119 117 119 126 126 122 92 74 53 38 34 32 38 40 40 37 33 24 35 31 42 20 20 19 9 6 11 7 1 2 1 1 0 2 0 0 1 0 0 0 4 5 3 2 9 22 11 14 15 6 9 10 10 13 15 27 15 45 50 47 60 80 80 74 66 91 107 139 140 172 177 178 184 167 169 165 166 172 159 156 160 166 174 160 149 137 136 129 129 126 106 110 114 111 104 113 123 126 103 91 72 45 40 37 45 45 29 32 17 15 40 27 22 25 16 16 1 6 6 3 1 1 1 3 0 1 2 0 4 3 2 4 3 10 1 3 11 4 10 9 7 7 7 19 26 20 19 34 22 32 54 42 58 82 83 107 119 130 128 154 162 166 169 160 168 173 166 173 167 161 160 163 151 155 154 147 142 137 133 135 131 111 95 93 99 96 106 108 116 121 101 92 76 58 38 34 40 33 32 39 24 31 31 22 28 19 17 9 4 3 3 2 2 1 1 1 0 4 2 2 8 4 1 0 2 6 5 2 6 13 11 14 11 9 10 6 12 18 20 27 18 49 55 48 53 64 86 107 143 140 154 163 164 173 162 160 158 158 162 156 165 144 119 100 91 91 87 95 95 100 97 91 100 90 87 88 86 89 95 105 118 111 105 94 83 69 57 37 39 36 27 21 29 30 41 22 18 9 11 8 11 3 5 3 2 1 1 2 3 0 0 5 4 0 1 5 8 2 13 9 2 14 17 6 9 8 16 6 8 4 13 20 26 38 33 33 45 55 73 124 140 153 167 168 171 165 160 154 150 152 148 151 123 110 110 88 73 75 69 63 74 80 100 89 98 87 85 90 86 91 94 109 106 102 90 95 91 79 61 48 37 35 26 27 19 25 22 32 27 17 5 5 7 2 6 3 2 0 4 2 8 0 2 4 5 2 1 3 38 18 10 9 11 28 19 10 10 15 19 8 17 11 18 34 31 44 23 30 36 40 64 97 134 151 140 169 166 158 155 152 149 149 144 139 117 88 107 83 78 81 71 73 80 80 81 88 89 84 84 89 95 97 99 98 100 104 101 95 93 80 69 57 40 25 25 20 20 17 22 12 10 5 15 4 10 6 8 5 3 0 3 4 1 0 2 4 3 4 5 9 19 26 6 10 17 40 24 15 16 15 9 10 12 23 13 23 52 43 37 38 34 37 55 88 120 154 147 166 166 159 157 150 155 148 150 144 130 115 105 108 93 87 87 98 98 97 98 94 98 93 99 97 92 91 92 102 110 108 113 105 95 84 61 48 34 30 22 18 13 22 14 12 3 6 6 10 4 6 7 4 2 2 4 10 11 5 3 3 6 5 13 24 10 22 8 24 12 33 30 16 11 10 9 8 5 13 16 25 37 53 33 33 44 37 50 80 115 123 157 150 164 166 165 153 154 151 151 151 141 117 123 117 118 115 93 118 117 108 114 119 105 111 106 105 98 100 102 106 112 107 101 102 91 86 62 42 34 26 25 18 5 16 11 7 6 10 1 1 6 8 8 4 1 1 1 1 5 7 3 3 7 5 13 29 15 32 13 38 15 13 27 28 20 6 11 8 10 5 8 16 16 28 22 27 29 32 27 73 99 124 143 140 169 166 167 164 160 162 163 158 149 146 154 148 128 150 128 140 147 139 135 114 119 127 114 113 112 115 116 119 126 122 116 96 83 65 59 30 30 17 19 16 10 13 5 6 2 3 0 4 11 6 8 5 1 1 1 4 6 13 7 7 12 4 53 27 36 14 10 24 19 18 24 7 6 4 10 4 8 8 7 11 14 36 24 42 34 33 31 50 68 118 134 148 154 170 175 178 167 170 175 172 166 172 162 159 162 161 152 159 162 157 139 133 134 137 131 126 129 125 130 124 121 109 117 100 69 60 42 40 22 19 23 11 5 2 5 4 3 4 3 8 7 8 8 5 1 2 2 0 6 10 4 9 15 14 14 5 27 8 22 5 22 33 34 23 18 25 11 12 8 4 8 10 10 30 24 21 28 47 50 42 71 107 125 124 154 164 178 180 184 178 183 183 194 176 162 169 148 173 157 161 170 158 159 147 150 149 140 141 139 134 132 134 132 114 100 90 63 50 47 46 27 13 14 15 10 6 4 0 7 2 5 10 7 7 3 4 2 3 4 2 0 4 8 23 10 12 13 22 15 13 17 11 45 35 22 38 35 37 24 18 10 10 6 5 4 21 25 42 27 37 26 32 43 95 101 111 138 149 171 175 180 188 190 187 193 178 174 167 166 174 160 157 176 160 159 159 153 155 155 143 139 144 137 123 120 125 88 85 68 42 37 34 39 38 13 7 19 1 5 5 4 5 10 10 8 8 6 1 2 1 1 1 3 2 3 11 9 21 38 20 19 29 43 10 51 56 34 36 39 25 37 17 30 21 7 8 8 17 37 48 44 51 33 28 50 53 75 97 78 140 149 166 177 179 187 188 191 169 175 164 164 155 158 145 161 153 157 155 156 160 147 145 152 142 130 130 123 97 97 78 49 43 31 30 16 8 20 14 9 4 3 2 2 11 14 12 7 3 5 2 1 1 1 2 2 1 3 6 10 18 44 14 16 55 28 19 64 48 37 38 27 22 28 24 27 14 2 14 9 22 37 50 41 50 35 48 36 46 58 78 117 121 108 156 176 160 185 169 181 163 132 143 146 149 159 118 142 154 162 151 153 151 145 143 145 129 130 111 103 70 73 64 45 48 26 22 27 18 12 9 4 7 1 1 6 17 16 14 11 8 5 3 3 1 0 1 1 1 2 2 26 69 42 15 27 81 27 18 84 85 64 53 45 22 17 15 14 10 17 8 9 10 48 62 58 35 32 36 38 48 57 68 71 71 93 116 136 148 161 152 153 145 136 119 115 133 125 125 141 134 140 125 136 127 134 135 114 85 104 104 95 79 48 25 34 36 29 13 6 9 11 5 2 4 4 3 12 18 17 14 11 9 7 7 6 2 0 1 1 1 0 3 6 27 41 54 23 82 1 45 90 91 89 68 58 25 4 11 12 14 11 8 2 17 54 69 50 40 37 24 49 75 52 54 61 81 68 101 77 130 140 146 128 117 118 91 117 130 125 133 116 133 122 93 113 97 108 114 106 89 78 86 65 59 36 29 28 15 25 16 12 16 9 6 1 9 5 8 19 18 17 14 11 10 8 6 3 5 5 1 1 1 0 2 1 1 15 76 10 53 53 78 75 64 104 110 86 26 8 8 4 1 4 5 4 11 57 70 54 29 46 37 43 46 38 48 51 63 51 61 78 91 125 114 117 113 123 112 110 100 114 120 92 69 106 89 83 88 85 76 109 74 59 62 56 49 28 45 30 20 33 13 15 14 4 4 1 5 8 17 17 18 17 15 11 11 7 6 3 0 3 1 0 4 1 2 1 2 7 29 41 71 123 114 79 83 95 112 110 54 8 7 11 12 10 12 16 53 82 99 91 29 42 44 34 48 41 49 37 58 46 59 76 93 89 87 124 95 96 99 92 76 106 104 122 87 72 83 69 72 64 69 65 74 53 58 58 42 29 35 39 36 45 23 4 3 7 6 3 10 16 19 21 19 17 15 14 11 7 6 2 0 0 1 1 1 2 2 2 0 2 12 91 117 125 119 61 79 107 95 121 67 14 6 4 7 4 4 7 52 111 105 74 67 37 27 12 41 53 56 67 39 59 42 64 71 68 95 78 66 62 75 66 79 74 95 82 72 77 69 54 53 46 58 47 42 28 62 42 47 31 30 33 19 19 10 7 5 5 1 10 16 16 18 18 17 18 15 14 10 6 6 6 0 0 0 3 1 2 1 1 2 3 5 120 113 120 126 105 48 92 105 108 55 12 12 2 4 5 6 14 68 120 144 112 57 54 28 36 26 40 20 36 47 41 35 60 51 66 51 66 86 43 56 72 63 67 59 55 63 53 54 51 44 42 32 41 49 39 37 40 32 34 33 35 21 3 5 30 10 3 11 9 20 22 18 22 18 16 15 13 12 10 7 4 0 0 0 1 0 2 3 2 6 6 8 67 117 116 119 98 51 74 104 107 35 27 20 3 2 5 10 24 90 127 138 136 70 82 29 34 22 44 22 44 42 35 24 42 54 46 53 48 37 52 46 54 40 59 56 48 43 47 38 34 54 43 35 61 22 33 20 43 27 40 27 27 16 5 6 21 0 11 9 19 23 24 19 22 18 17 15 14 11 10 7 4 0 0 0 1 1 6 7 9 10 8 8 9 117 121 121 100 70 71 85 77 45 47 17 0 9 11 22 46 108 139 153 133 127 62 42 31 24 33 34 44 52 18 56 46 67 40 46 32 49 32 36 37 38 29 62 24 41 34 39 42 48 37 20 41 18 26 39 43 39 25 9 16 7 3 7 9 11 13 23 23 21 22 20 21 18 18 14 14 11 10 7 3 0 1 1 2 4 5 10 9 10 8 6 14 115 124 119 93 84 60 83 57 58 54 26 8 6 27 47 82 127 145 154 155 152 164 62 25 36 30 28 28 36 33 9 55 45 58 11 31 35 33 28 45 31 38 38 24 27 33 17 35 49 38 23 28 18 10 26 26 17 19 16 11 7 11 4 5 14 26 20 23 21 21 21 20 18 17 17 14 15 10 7 4 0 0 1 1 6 6 8 10 15 12 8 14 2 29 93 87 66 46 73 23 31 58 34 16 27 49 83 112 140 150 161 152 156 152 161 75 63 39 19 12 46 45 25 46 51 41 51 50 43 32 21 27 25 23 19 35 21 37 33 23 45 44 27 19 10 21 16 16 12 5 17 2 1 7 10 14 19 19 25 23 22 19 20 19 18 18 17 14 14 9 7 4 0 0 1 4 3 10 12 18 17 21 15 10 9 6 6 100 84 34 75 104 30 39 36 21 43 84 114 131 147 154 156 151 146 158 146 151 107 48 28 19 26 41 19 39 46 30 24 36 30 44 40 28 36 21 20 37 58 34 10 37 11 14 33 30 32 14 16 15 24 26 14 4 5 12 13 17 25 24 23 22 22 22 18 19 17 17 17 13 14 11 7 3 0 0 2 7 6 11 13 23 17 19 12 7 17 1 0 86 64 29 28 70 63 22 24 35 60 107 135 146 152 159 154 160 164 157 128 159 145 93 37 25 30 15 19 11 36 30 13 36 41 53 33 19 22 12 2 17 7 30 35 40 31 19 9 25 10 10 12 11 7 14 15 7 9 13 20 23 26 24 24 23 23 22 20 20 16 16 17 14 13 11 6 3 0 1 2 5 6 16 17 18 24 22 15 12 13 2 3
