P2
# Generated by OpenCV 4.2.0
92 112
255
48 45 50 34 4 5 2 4 9 38 30 24 19 20 28 20 14 12 14 14 20 19 16 13 16 18 31 28 20 33 54 56 77 73 92 113 123 120 119 111 93 123 106 89 100 96 80 74 79 80 106 92 74 89 95 70 80 91 69 81 80 73 87 88 66 73 52 70 147 76 41 25 20 37 20 45 76 80 49 15 36 42 38 78 38 22 14 35 65 68 73 156 46 44 51 30 3 3 5 9 18 39 27 30 26 20 18 17 16 11 11 12 16 13 12 15 17 12 29 27 24 35 48 55 75 83 103 135 139 120 131 130 119 123 132 122 119 118 105 102 108 104 137 117 94 87 87 76 90 84 71 78 107 131 79 118 100 68 57 86 128 74 63 40 29 59 15 16 20 31 50 57 29 22 20 45 31 18 14 17 42 69 57 70 45 50 45 17 2 4 7 15 21 17 18 23 13 13 12 14 14 13 10 12 15 14 14 18 25 15 23 37 42 43 63 74 86 94 116 130 142 147 163 167 164 159 158 156 152 139 137 141 140 139 162 132 107 109 92 98 108 109 83 107 141 124 90 116 135 101 83 59 58 51 64 62 63 81 15 18 19 32 26 38 54 29 15 27 34 11 16 14 9 32 24 19 60 52 21 9 8 6 10 16 11 7 11 16 16 15 14 10 14 15 26 30 34 34 32 33 45 50 52 58 68 59 67 74 72 94 116 144 149 168 190 199 200 195 198 193 182 171 164 172 174 171 180 150 139 132 110 124 132 158 98 130 136 119 71 92 111 85 69 35 36 36 59 59 84 45 14 17 25 31 25 30 60 33 24 20 20 11 11 12 15 26 75 47 56 28 29 30 15 4 4 3 6 14 20 26 27 24 25 30 31 34 46 42 43 61 67 65 71 84 88 80 77 80 92 97 96 107 117 143 174 190 202 207 212 214 216 214 206 205 197 190 191 188 192 175 168 157 150 147 177 173 135 125 148 140 61 71 94 85 45 29 53 44 70 74 64 25 18 21 17 18 14 26 29 33 26 11 9 5 9 10 19 12 76 76 27 35 22 29 35 20 9 6 16 16 18 25 34 34 33 41 66 68 66 81 91 105 117 123 126 121 122 112 92 91 108 120 129 134 127 150 176 203 212 214 214 212 211 207 204 214 212 209 206 209 206 198 187 187 176 192 199 196 167 146 152 129 87 43 81 72 28 50 61 70 79 65 49 36 26 16 12 10 13 6 2 13 15 24 15 4 5 10 24 18 18 26 11 19 18 39 64 34 34 12 19 16 24 37 37 36 45 59 68 95 108 124 141 157 157 161 164 160 165 159 132 112 113 133 146 156 152 162 187 205 214 217 214 214 214 213 212 215 216 216 217 218 216 208 205 204 205 204 208 201 189 153 166 151 121 74 62 62 67 64 70 82 74 58 39 62 50 30 17 9 14 18 25 23 13 19 21 15 9 12 18 30 32 26 15 10 9 16 45 31 15 16 15 26 43 33 32 53 74 94 105 117 131 153 162 175 179 178 180 178 181 178 165 145 133 135 153 165 182 188 201 211 216 216 213 213 215 216 216 215 216 214 217 216 216 215 215 217 215 212 212 206 200 169 160 169 147 125 103 105 111 89 80 70 48 88 32 58 77 45 43 39 30 37 69 46 16 15 22 21 19 25 39 27 26 25 28 16 10 9 30 37 17 14 15 32 35 22 43 76 97 100 120 136 151 165 175 181 186 189 190 191 192 186 183 173 164 154 163 172 184 201 210 214 215 214 214 215 216 216 215 214 215 216 217 216 216 217 217 216 215 214 213 213 210 199 187 192 192 174 143 133 140 124 66 69 45 68 70 35 65 38 34 40 41 46 30 29 41 39 22 26 20 13 16 25 22 19 25 19 12 11 15 20 12 13 19 33 29 32 79 105 114 120 131 144 162 171 177 184 185 187 192 196 197 195 201 197 188 183 182 184 197 208 213 211 213 215 217 214 212 215 215 215 215 217 216 217 218 217 214 215 215 216 217 213 211 207 202 204 201 195 184 168 159 156 102 75 71 45 63 64 48 31 26 31 30 49 48 38 53 60 40 32 34 39 38 28 22 17 19 30 50 21 9 22 21 15 23 40 35 70 109 121 129 132 142 151 162 171 180 186 187 189 191 195 195 198 202 202 201 199 196 202 208 211 213 212 214 214 215 217 216 215 215 215 215 215 216 218 219 217 215 215 218 215 217 217 212 216 216 205 202 203 204 192 184 171 144 99 88 61 51 62 56 41 34 37 38 38 46 33 71 64 49 46 37 27 25 19 18 12 22 19 29 36 38 45 22 13 30 36 35 97 117 125 134 138 147 154 161 173 181 184 188 190 191 194 198 201 202 204 203 205 208 209 212 212 213 214 211 215 215 216 216 217 216 214 216 217 218 217 217 218 217 215 216 213 214 217 215 215 216 215 216 212 214 203 194 183 168 136 93 74 58 41 47 54 50 39 37 47 40 48 52 39 36 57 24 19 14 7 9 12 40 41 8 17 47 22 11 14 30 21 70 110 125 133 136 141 150 155 163 176 182 187 191 193 194 198 200 202 203 203 202 206 211 212 213 214 214 216 215 218 220 218 217 219 217 218 218 216 218 217 216 218 217 218 216 212 215 215 218 216 217 221 222 221 218 208 202 188 179 158 111 76 65 55 21 39 54 51 63 70 44 45 31 31 40 47 35 38 13 15 19 17 57 30 33 19 30 25 11 13 13 47 105 121 131 136 137 143 151 158 169 182 185 188 194 195 196 200 202 201 202 206 207 206 210 212 211 213 215 217 219 221 222 217 215 217 216 217 217 216 217 217 215 214 218 219 215 216 219 218 218 218 216 218 221 223 220 214 202 199 191 166 131 81 59 69 60 32 40 59 70 50 33 29 50 59 63 37 25 27 22 29 22 13 22 22 29 35 20 12 9 10 32 92 117 125 135 139 140 146 150 158 171 183 188 192 194 196 198 201 206 205 206 211 211 211 210 209 210 215 218 218 221 220 219 217 215 215 216 216 217 218 217 216 215 215 215 214 215 217 217 218 218 218 219 214 220 222 219 217 211 202 189 168 150 103 60 63 68 80 43 42 45 38 53 43 44 59 55 37 33 40 36 24 15 16 7 20 15 32 23 7 16 20 58 110 119 131 139 139 141 148 153 158 172 185 187 187 194 197 201 202 207 209 211 214 213 215 213 210 214 217 220 221 222 220 218 219 218 219 216 212 214 216 217 217 218 217 216 215 215 217 216 218 216 217 220 217 220 217 216 218 213 213 190 164 141 117 80 66 69 66 64 60 58 50 51 56 71 77 64 62 48 40 27 15 20 17 6 14 25 24 13 19 19 29 80 117 124 135 137 138 148 150 152 160 172 177 183 190 196 198 200 204 206 209 210 211 212 215 214 212 214 218 216 217 217 216 215 219 217 216 218 219 217 216 215 217 218 220 220 218 218 218 218 220 217 218 218 216 216 213 213 218 211 211 207 166 133 118 86 77 79 66 58 59 58 62 68 60 63 62 60 50 41 30 33 26 16 16 11 8 16 18 23 24 22 42 94 122 126 138 140 143 148 150 152 158 169 176 184 191 195 194 198 202 204 209 211 210 210 210 207 211 216 218 218 216 218 217 217 217 215 215 218 222 220 219 219 216 220 219 218 219 221 221 219 218 218 219 217 217 213 210 211 214 210 198 194 188 155 126 103 74 69 77 50 49 61 47 39 49 55 51 40 35 35 36 34 32 25 21 8 11 15 14 15 14 22 53 102 127 132 140 143 146 149 149 153 158 165 178 186 190 196 196 197 202 207 211 211 212 210 210 207 212 217 217 218 214 213 214 216 216 215 215 216 216 218 219 220 218 220 217 216 219 221 220 220 218 216 216 215 213 214 215 211 208 205 202 193 185 168 145 122 91 72 95 68 32 42 56 42 37 38 48 45 31 34 30 34 40 33 24 8 12 12 18 16 14 24 59 104 130 133 139 145 148 146 150 157 157 165 176 181 188 194 193 197 202 208 210 208 210 212 212 215 215 215 216 215 214 214 214 214 214 213 213 214 215 217 216 215 214 215 216 215 218 219 219 219 218 215 215 215 215 215 216 213 204 198 195 189 183 167 146 119 103 70 76 70 46 31 41 48 49 37 34 23 21 26 31 28 25 33 19 10 17 24 24 15 15 27 65 109 129 135 140 145 148 149 157 161 159 166 173 173 185 192 191 197 203 205 209 209 210 211 215 215 215 216 217 216 213 216 214 213 214 215 214 212 212 215 214 212 213 213 215 214 216 217 217 217 217 216 216 216 217 216 213 213 210 201 194 180 170 163 147 116 101 81 57 51 41 41 30 29 35 33 35 54 59 45 46 42 41 29 9 14 23 19 13 13 16 33 73 113 129 136 138 142 150 151 154 159 160 165 166 174 188 188 193 201 205 203 208 209 209 211 212 210 213 213 213 210 207 215 213 210 212 212 210 211 210 212 213 213 212 212 211 213 215 216 214 214 214 217 218 217 216 217 213 213 207 204 197 185 175 167 150 124 97 93 66 35 30 38 33 26 29 38 42 49 44 43 60 54 49 28 14 24 21 15 18 17 20 42 89 118 128 135 141 144 154 154 153 156 156 161 165 174 186 192 195 202 205 206 209 208 209 214 212 209 211 210 211 209 211 210 208 207 207 209 207 208 209 210 211 209 210 211 209 212 212 213 212 213 214 216 215 218 216 214 214 212 206 198 194 177 168 155 153 140 101 90 79 34 24 27 31 31 30 29 37 36 43 57 61 31 47 29 13 24 18 23 25 17 24 58 91 116 128 134 144 149 157 154 152 155 159 162 168 172 185 195 198 199 201 204 204 205 210 212 210 207 203 204 207 204 205 205 206 207 204 208 208 209 209 208 208 206 207 208 206 207 211 212 214 212 214 216 217 216 215 213 214 211 206 196 186 180 166 157 136 124 111 94 70 36 18 17 24 27 27 25 32 33 45 42 22 35 69 38 25 30 26 24 22 19 24 51 88 118 128 137 146 151 155 152 152 156 161 162 165 173 184 194 193 194 201 199 200 204 207 207 204 202 200 200 200 200 202 201 203 204 206 206 205 206 207 208 208 208 205 205 206 206 208 212 212 212 214 216 216 216 214 214 214 212 210 203 187 168 157 144 137 118 95 96 80 41 18 13 19 19 22 31 32 28 32 26 25 62 49 32 33 31 26 28 23 15 21 51 92 119 131 139 145 150 152 153 152 153 159 157 161 173 184 194 197 198 199 200 202 203 206 204 203 201 199 198 197 200 201 201 201 204 205 206 207 207 208 210 211 210 208 206 208 207 208 208 209 210 214 215 215 217 216 214 213 215 211 201 192 180 163 141 115 107 99 89 81 40 29 24 16 19 27 30 26 29 42 51 54 45 37 42 38 31 31 27 19 15 26 52 90 117 130 139 144 149 149 152 150 152 155 155 165 178 186 193 198 199 201 203 200 201 203 203 204 200 197 198 198 198 202 201 204 205 205 207 208 208 210 212 211 211 213 211 207 203 206 204 207 211 213 215 217 220 219 215 213 213 213 209 203 192 175 157 131 107 96 88 66 45 27 28 27 22 20 27 37 60 66 41 27 44 51 59 48 42 35 24 16 15 24 50 90 117 129 137 144 146 145 147 147 152 156 158 168 178 186 193 198 200 201 204 201 202 205 207 207 203 197 195 196 198 201 201 203 204 205 207 209 209 212 213 215 214 216 212 210 213 210 207 209 210 211 214 216 217 217 214 209 213 213 209 208 202 187 169 141 120 105 87 67 43 26 25 24 16 33 40 43 49 52 47 22 34 46 44 49 43 29 18 12 11 24 55 93 116 129 136 142 143 142 147 153 157 159 161 163 172 188 191 197 202 202 202 201 203 209 212 209 207 195 191 194 200 202 201 203 206 206 207 208 210 212 215 215 218 218 215 213 213 212 212 211 210 208 211 213 213 214 213 212 216 213 210 206 205 197 175 154 133 114 93 77 53 27 32 29 31 51 25 24 24 40 61 57 54 55 54 55 32 25 15 8 11 21 55 99 117 127 135 136 139 145 150 158 160 161 161 160 168 183 191 202 208 209 204 203 204 213 209 205 205 192 189 196 200 204 204 203 206 205 207 211 212 212 218 218 218 219 217 215 214 216 216 212 211 210 211 210 212 213 211 211 212 210 209 209 209 207 193 168 143 114 92 88 57 27 22 20 33 29 19 24 25 29 33 45 51 52 63 68 24 21 12 10 12 23 61 98 118 126 132 136 141 148 152 158 160 162 165 159 161 186 194 210 218 216 209 209 210 212 211 209 207 195 191 199 207 207 204 206 208 207 213 219 218 218 218 219 221 221 222 220 218 217 218 215 213 212 209 207 208 210 211 209 210 210 209 209 210 208 206 198 164 130 95 84 68 28 18 20 22 22 18 24 31 43 51 34 35 41 43 41 17 16 11 11 10 23 67 99 115 123 130 137 147 150 154 158 161 166 166 162 157 188 197 213 219 221 216 216 215 219 215 211 211 199 195 202 210 207 200 209 213 213 216 219 218 216 216 219 222 220 223 223 221 219 217 217 215 213 209 204 205 205 205 208 209 210 211 210 210 207 205 209 181 148 110 86 68 37 15 22 24 19 17 37 45 45 60 56 45 49 32 11 13 13 13 11 11 30 77 98 113 119 133 143 151 155 157 161 166 169 167 163 162 187 198 206 209 212 216 218 215 217 214 214 211 202 202 203 207 202 200 208 214 214 216 220 218 215 214 213 214 216 215 216 216 214 216 217 216 213 210 206 205 206 204 205 206 208 208 209 209 207 207 205 194 169 136 97 79 45 18 21 22 18 27 31 18 30 45 52 59 67 57 49 11 11 12 15 13 33 83 101 110 120 137 148 158 160 160 162 166 171 168 166 171 189 192 200 202 207 214 215 215 213 211 212 208 206 203 195 204 203 194 193 203 208 214 219 209 211 213 209 210 208 210 209 208 207 205 201 204 212 212 210 205 203 207 206 202 205 207 207 207 205 204 204 200 190 153 116 89 57 20 13 11 16 19 18 27 42 47 50 53 67 66 58 9 10 19 18 5 37 86 104 108 127 145 159 159 161 166 164 164 159 158 151 152 167 183 183 187 197 201 205 210 211 205 207 206 212 206 196 193 197 189 178 180 194 202 190 189 191 187 204 202 203 202 191 191 196 191 189 184 174 188 198 200 203 207 205 200 200 205 205 204 201 203 206 205 195 173 145 94 62 27 14 11 11 18 29 42 45 54 55 58 60 43 36 7 10 20 8 5 44 90 101 112 131 138 135 135 132 129 132 120 99 108 114 126 137 157 162 177 188 194 197 203 205 196 201 203 208 208 192 183 184 185 170 160 162 176 172 163 161 147 137 145 166 175 180 191 184 184 174 171 164 166 175 181 191 204 203 197 196 199 203 203 201 202 203 201 200 187 164 123 69 35 29 22 18 12 9 13 34 31 24 28 27 17 15 6 11 15 6 8 54 93 102 117 115 111 102 102 94 79 74 67 69 83 80 91 124 132 153 168 184 186 191 199 200 190 199 200 203 210 190 183 176 176 158 144 149 171 158 132 142 134 112 113 112 115 128 143 142 162 175 185 166 157 156 170 184 193 199 194 194 193 197 197 199 202 201 196 200 201 171 136 82 32 24 31 29 19 32 48 39 28 23 23 24 20 28 8 9 13 6 10 58 96 104 93 75 72 77 76 78 65 53 49 49 49 53 65 87 120 138 156 178 179 189 194 187 185 197 205 201 204 193 176 169 164 167 155 154 153 148 137 130 112 97 97 110 107 102 107 118 135 138 140 132 135 134 139 156 167 180 191 194 186 189 196 200 202 202 201 204 204 186 144 99 40 20 20 20 44 63 67 46 52 36 32 23 23 32 8 8 9 8 10 57 97 92 65 57 60 66 67 62 52 51 52 53 54 65 83 87 87 116 134 161 173 177 180 171 180 193 204 203 201 199 177 167 163 159 154 147 141 142 134 121 108 108 105 96 99 100 99 112 124 133 131 129 136 133 132 139 151 165 186 192 183 186 191 197 200 203 203 205 200 197 160 116 51 27 27 25 22 24 48 51 36 35 27 33 35 36 7 8 7 15 13 57 92 75 64 57 51 45 50 57 62 79 87 95 99 98 97 96 91 94 102 124 151 160 161 157 172 191 200 209 209 207 188 166 158 152 150 147 141 132 118 105 85 80 98 124 138 148 150 150 145 142 141 144 149 149 135 144 166 172 177 182 186 189 186 192 197 201 203 203 199 202 170 122 62 28 27 21 16 37 42 44 42 27 34 31 27 29 9 5 9 23 24 57 99 79 68 64 69 82 92 109 126 139 149 146 115 73 54 51 48 51 69 87 107 128 136 140 163 185 199 213 218 212 202 183 170 163 160 156 148 138 124 92 65 75 85 58 51 68 85 102 125 138 155 171 170 163 166 175 167 163 169 182 189 191 188 188 194 199 203 201 201 203 175 126 84 32 22 19 28 33 14 25 42 37 29 42 40 36 5 7 13 20 25 54 101 89 79 81 91 101 113 124 127 120 99 59 24 17 28 49 74 74 54 55 69 92 110 129 159 185 201 216 222 219 213 204 192 183 174 163 156 147 137 132 132 109 60 32 22 14 9 17 42 72 111 135 146 170 181 177 178 180 184 183 190 194 189 187 194 198 201 203 200 199 181 131 96 49 28 23 26 15 43 58 42 50 39 31 47 56 18 8 16 25 20 50 101 101 99 100 101 107 108 96 63 34 14 11 20 41 49 44 85 103 123 120 87 72 90 125 163 193 212 223 225 221 217 211 204 192 177 166 156 147 145 139 109 90 58 40 38 85 69 72 65 91 66 101 130 131 149 173 175 177 182 186 193 196 191 188 193 197 199 201 201 198 174 131 93 54 31 27 17 32 61 58 35 34 31 48 56 54 70 21 12 29 17 56 102 106 109 103 103 104 79 48 29 43 34 47 39 69 84 106 169 132 102 126 147 118 89 121 167 195 211 219 222 221 215 211 205 197 188 183 168 152 159 136 112 150 88 61 39 46 67 63 104 181 121 51 67 117 132 148 172 176 180 187 192 196 192 191 192 197 198 201 203 200 174 133 91 50 27 19 20 44 39 56 32 28 32 40 44 31 83 32 11 23 16 66 108 109 109 104 102 91 53 23 41 82 50 60 46 30 39 101 196 186 140 90 106 144 113 120 165 194 210 215 218 215 211 207 206 202 199 200 200 184 159 123 144 163 108 72 59 52 51 63 142 169 133 118 114 100 129 142 159 170 178 187 194 196 192 192 196 195 196 198 203 203 170 133 86 41 28 21 34 40 43 69 46 18 16 11 7 17 57 47 18 21 17 79 112 118 115 111 108 88 49 52 94 106 97 87 88 104 126 147 155 122 119 116 129 149 125 126 171 197 209 212 213 209 204 203 211 206 204 207 210 202 177 153 137 127 135 130 126 138 148 164 150 172 182 175 176 168 158 167 167 177 183 192 196 196 195 194 196 196 194 198 201 202 175 140 92 44 28 31 39 41 48 52 46 49 88 103 79 21 55 55 44 23 21 84 113 123 130 119 118 101 73 88 101 103 114 125 146 162 187 177 161 142 143 151 155 140 120 140 177 198 210 214 212 206 202 204 210 206 202 210 211 203 194 180 163 153 144 143 156 161 160 185 180 193 195 192 189 190 189 188 191 195 197 202 199 200 197 194 194 197 196 197 201 201 186 139 99 55 51 44 50 39 41 51 128 183 200 208 209 159 40 68 93 29 26 94 117 128 141 136 135 120 106 108 107 116 123 138 154 164 178 177 151 140 138 142 134 130 127 147 183 199 206 209 208 202 199 200 209 208 202 206 203 197 192 182 167 159 160 167 177 175 169 182 190 192 194 198 198 198 200 204 206 205 209 210 209 207 202 195 198 201 198 199 199 201 193 148 92 54 53 48 66 76 78 159 207 216 217 215 212 211 39 96 112 47 30 102 121 135 146 148 145 140 132 125 121 125 132 141 150 159 162 156 149 147 147 141 139 142 127 150 188 198 202 207 207 199 196 198 207 212 205 205 201 200 199 194 187 182 185 186 183 187 189 192 197 200 202 202 201 198 202 204 207 208 208 209 211 209 205 196 198 203 200 198 199 200 192 173 114 54 54 44 67 127 131 159 204 219 225 226 221 211 45 83 100 65 40 110 125 140 148 151 149 146 139 136 135 142 145 152 157 157 150 154 162 162 162 145 150 137 127 158 190 200 203 207 205 201 194 195 200 211 210 204 203 203 202 201 201 202 202 201 204 202 202 203 204 204 205 206 206 205 205 203 205 205 205 206 208 208 203 199 197 200 200 196 197 198 194 188 140 71 46 49 56 75 103 145 172 196 187 134 105 140 38 80 92 49 55 120 125 141 148 152 155 155 153 149 148 156 164 173 170 160 165 167 173 171 157 153 146 131 132 163 190 197 201 204 204 201 198 194 196 203 205 202 204 207 206 206 208 207 208 208 209 208 213 215 213 212 210 212 211 211 209 208 205 204 202 204 207 206 199 198 197 199 201 200 197 196 196 194 169 96 56 41 106 137 149 153 171 202 201 168 99 109 40 61 119 53 68 125 128 142 149 155 163 166 164 161 164 168 175 180 168 165 168 172 178 166 156 155 143 128 136 164 190 200 202 204 205 202 198 195 194 201 203 203 204 209 210 208 208 206 209 211 207 211 213 217 216 211 209 212 213 210 210 208 204 204 201 202 205 202 198 201 196 200 199 200 200 196 194 193 182 127 89 54 107 195 185 195 216 227 233 226 172 155 46 47 130 68 79 126 130 142 148 154 163 172 168 166 171 179 180 174 163 170 176 174 166 157 157 150 138 127 140 172 192 201 202 201 200 201 198 196 195 199 206 205 200 206 211 210 208 207 207 211 209 212 216 216 211 209 211 211 214 213 210 210 210 208 203 202 207 201 199 200 197 193 195 199 199 197 193 190 186 146 108 82 78 160 183 206 228 235 233 227 186 162 47 44 117 62 89 123 128 140 146 148 162 169 171 174 180 185 178 166 164 172 174 165 159 161 154 142 132 127 149 184 198 201 204 202 198 198 199 196 196 202 207 207 204 204 210 211 208 206 205 207 206 207 209 213 211 211 210 211 212 211 209 210 210 208 204 203 206 206 203 199 197 188 195 197 196 196 193 190 187 152 124 97 74 103 201 231 229 228 228 227 197 170 46 41 95 65 95 124 126 137 142 150 160 167 174 181 187 183 167 162 167 170 167 163 161 161 149 139 129 131 162 188 201 204 206 204 199 198 198 197 200 202 207 205 205 209 210 212 212 211 209 204 204 201 201 208 210 206 205 208 211 210 208 210 210 209 206 203 200 203 202 200 196 188 197 196 193 195 193 192 189 160 141 118 116 127 163 217 231 231 228 227 201 170 47 44 65 72 101 123 126 137 144 152 158 166 173 179 180 171 166 165 172 169 166 165 164 157 146 138 127 138 172 196 205 207 207 206 202 198 196 198 200 202 207 208 206 209 208 209 209 210 210 207 204 201 204 207 208 209 208 209 211 211 210 212 212 210 207 202 201 201 200 199 195 192 198 196 193 195 193 192 187 165 152 151 115 108 116 188 221 228 230 229 198 177 47 46 55 85 95 120 125 135 146 150 157 166 171 173 168 167 169 171 167 159 163 169 165 152 145 135 127 146 180 201 205 207 206 208 207 201 197 195 195 199 203 212 211 210 210 208 207 207 207 208 207 205 207 207 209 213 214 214 213 215 214 216 215 209 208 207 203 202 201 199 195 195 196 197 192 194 194 190 185 173 155 159 110 144 146 179 211 223 227 230 199 181 47 46 47 87 103 122 125 135 146 149 159 165 168 167 166 170 170 170 165 161 167 168 163 151 141 128 129 152 187 200 206 208 209 208 208 202 198 190 189 194 202 210 216 213 213 211 204 204 207 208 206 208 211 210 211 214 215 214 216 218 219 217 214 211 208 210 207 205 204 199 196 196 195 197 195 197 196 193 182 166 157 157 115 179 168 179 205 221 228 232 202 190 48 47 43 90 111 124 121 129 141 149 154 161 166 164 165 171 168 167 170 167 167 165 160 155 143 125 133 163 190 201 208 211 209 210 207 203 199 194 190 189 194 196 209 213 215 210 204 211 210 210 209 213 212 211 213 218 217 217 218 217 219 215 215 212 209 210 209 206 202 196 196 197 196 194 194 197 196 187 179 159 152 132 140 204 181 178 201 218 229 235 205 202 47 47 50 64 110 123 120 126 137 144 146 158 163 164 165 171 172 171 169 168 171 165 161 155 137 128 142 173 195 207 216 218 217 215 208 202 203 199 196 193 190 186 195 202 210 211 209 213 212 214 216 216 216 213 214 221 221 222 218 216 214 210 212 212 210 207 205 204 199 196 195 195 194 191 193 192 193 179 171 155 147 129 172 208 203 193 205 220 231 235 202 207 47 47 47 62 109 121 120 125 131 137 142 153 160 163 164 167 171 170 168 169 169 168 167 154 138 133 142 174 197 210 222 229 228 223 211 205 206 205 200 203 197 190 189 202 201 205 207 209 213 216 216 215 218 216 215 219 220 219 218 215 212 210 207 210 209 205 203 203 200 196 193 193 191 191 193 191 189 179 155 139 134 131 200 208 217 210 211 220 233 234 197 215 47 47 47 45 95 119 120 126 126 133 143 147 154 162 165 167 171 171 169 169 168 169 173 158 140 127 138 174 193 208 216 226 228 223 210 207 211 212 206 208 208 197 187 200 204 198 207 210 213 215 217 218 219 217 217 220 217 216 217 212 211 208 206 207 205 205 203 202 202 199 194 191 192 191 194 192 186 172 154 134 114 157 211 224 226 214 219 223 235 229 196 218 50 48 51 45 80 116 119 128 127 133 139 141 148 159 166 166 171 176 172 169 171 172 173 149 132 121 123 157 185 199 206 214 216 211 203 200 205 211 208 207 210 202 191 195 204 196 196 200 210 213 216 217 220 218 216 217 219 215 215 212 212 206 205 204 207 207 204 202 200 197 193 192 192 191 193 187 178 158 157 135 133 184 209 222 219 214 215 221 236 220 203 204 49 48 51 52 75 115 118 126 132 131 136 143 149 154 162 166 170 174 171 168 170 178 172 137 121 111 109 130 165 185 195 205 204 198 193 193 192 193 193 194 199 201 194 190 201 201 190 194 206 210 212 213 216 219 218 218 217 215 213 211 209 207 206 205 206 207 206 204 199 197 193 192 192 194 197 184 169 141 144 133 142 190 193 197 212 206 210 219 234 208 218 159 48 48 48 43 72 111 118 125 132 132 133 139 148 150 158 165 167 172 169 168 167 175 171 130 110 84 54 97 141 169 183 196 195 193 179 143 73 49 86 150 182 190 186 190 202 205 197 197 203 207 212 214 216 221 220 217 214 214 209 208 207 205 208 205 203 200 203 204 199 195 193 193 195 195 195 180 154 148 139 135 158 150 163 205 216 212 214 224 220 199 229 97 46 47 48 43 61 101 115 122 132 134 132 136 141 145 153 165 170 171 172 173 173 178 169 132 101 110 83 55 111 152 172 185 190 159 152 158 143 128 123 137 160 170 173 195 207 208 203 196 202 209 210 212 216 216 216 216 215 210 208 209 205 204 203 203 206 204 206 202 196 195 192 195 197 196 190 177 153 150 137 136 174 171 205 225 225 216 217 221 204 215 203 34 48 48 48 45 61 93 108 118 133 136 130 132 138 143 152 160 167 170 171 170 172 175 166 149 106 112 137 103 73 112 146 164 172 142 165 192 210 221 219 195 169 168 190 205 207 210 209 200 202 206 208 211 214 214 212 213 212 211 210 207 207 206 202 204 206 206 206 204 202 194 192 195 197 193 185 169 155 159 132 127 185 212 225 234 227 208 208 206 210 232 142 25 48 48 46 44 54 84 106 118 130 137 135 134 140 143 149 160 166 169 169 170 173 171 166 162 145 113 125 130 109 80 99 129 155 171 193 201 193 196 202 195 189 194 204 206 208 210 212 206 200 202 205 209 209 211 214 213 209 210 209 206 208 205 207 209 210 208 205 204 200 199 193 197 197 186 170 170 153 146 124 136 188 217 226 228 220 209 208 214 224 218 79 37 48 51 43 42 57 71 95 114 127 140 139 134 138 144 149 157 164 166 167 168 171 168 164 156 149 130 122 111 124 137 122 126 155 185 192 181 161 152 169 185 187 198 198 205 211 213 215 211 204 201 204 208 210 213 212 211 211 210 206 209 210 207 209 209 210 208 208 205 197 192 191 196 194 183 170 173 149 137 126 148 196 221 226 227 223 211 212 220 232 162 44 56 48 47 50 59 49 68 88 110 125 134 135 130 133 142 150 154 163 162 166 169 169 167 155 142 128 104 92 86 119 159 189 181 177 170 151 144 123 113 108 134 172 183 183 196 205 212 212 212 206 202 205 205 209 212 213 209 210 208 207 209 207 209 208 208 210 208 205 204 199 196 189 197 193 183 168 174 152 145 139 148 196 219 226 228 223 219 215 220 225 81 50 56 48 47 46 49 46 56 79 104 121 130 133 129 129 144 151 158 166 174 177 176 168 166 151 125 104 74 71 78 87 141 171 172 166 128 120 126 92 81 80 94 146 158 176 193 204 208 209 212 210 207 205 208 207 209 213 206 208 208 208 209 208 207 202 204 209 207 204 203 198 193 190 189 189 180 171 166 159 139 138 147 193 210 221 224 222 223 218 221 167 19 70 73 48 48 45 43 54 49 72 102 115 129 136 131 131 143 151 158 167 177 175 170 164 161 140 94 66 51 68 82 101 116 128 152 138 108 83 105 101 77 65 74 105 128 154 179 194 197 207 211 214 211 207 209 210 211 210 208 207 208 209 214 213 209 207 210 209 205 203 196 196 193 192 180 180 181 168 158 149 131 137 158 208 218 216 220 220 222 224 209 76 25 47 56 49 48 48 45 46 50 71 88 109 122 129 130 135 143 154 155 159 165 164 163 159 146 107 62 38 54 77 96 106 98 114 129 148 122 94 89 97 75 68 74 87 92 116 157 174 191 199 206 209 211 212 211 210 208 209 209 205 207 210 212 213 207 210 210 205 202 204 191 194 189 192 188 180 166 153 156 141 141 129 149 203 220 219 221 221 221 227 124 27 49 27 52 49 49 50 50 38 50 69 83 108 119 122 128 131 141 153 155 155 156 157 153 130 107 71 41 52 88 103 106 112 149 162 162 171 154 137 113 112 117 89 79 75 82 91 130 151 163 176 186 201 204 206 210 213 210 212 212 210 211 212 213 210 205 209 208 203 200 202 189 189 186 186 195 182 168 156 142 134 139 136 136 164 207 218 221 224 227 171 36 20 45 39 48 49 48 48 54 44 35 50 84 97 114 121 123 132 140 152 152 154 154 141 115 101 77 47 49 81 89 98 117 165 190 193 196 193 193 197 162 126 124 100 94 92 79 100 122 127 144 158 159 172 188 202 211 215 213 215 218 212 214 214 211 209 208 209 207 204 198 197 182 183 187 180 181 169 167 161 145 142 126 139 102 80 184 217 223 216 159 41 19 24 31 33 19 49 48 48 47 43 31 42 83 95 112 109 121 129 138 148 152 154 143 117 78 76 68 52 71 75 97 120 147 160 165 181 197 206 197 188 181 149 132 115 112 112 136 135 130 114 136 160 150 143 166 183 199 212 217 216 215 214 213 212 211 208 209 208 206 197 192 190 179 176 177 175 184 167 179 164 143 134 122 149 89 0 43 89 100 67 14 12 15 18 22 18 19 47 49 47 47 40 22 42 68 88 96 103 119 126 136 146 148 137 113 81 66 73 73 71 74 102 130 139 144 152 156 158 167 185 174 172 181 186 179 162 148 151 166 161 152 135 138 144 144 122 139 165 178 199 215 217 213 215 215 215 212 210 207 206 202 199 191 170 180 177 179 178 186 182 188 150 131 132 136 146 68 3 0 0 0 3 20 16 9 21 21 23 29 48 49 48 49 48 31 35 63 80 81 89 109 124 136 141 141 113 87 73 78 83 87 95 111 128 126 128 139 140 148 144 147 173 174 163 167 172 181 184 171 164 154 152 157 145 140 137 133 120 131 151 158 181 206 215 216 217 216 214 211 209 208 202 194 197 196 176 169 186 190 189 178 170 177 143 134 139 137 134 46 23 12 8 6 13 25 26 14 15 18 25 25 48 48 49 49 47 37 34 58 79 77 84 108 123 132 136 127 100 76 79 91 101 97 120 126 118 110 119 119 118 131 126 131 144 154 153 134 134 138 135 143 164 157 142 154 158 139 145 119 125 132 153 142 165 200 217 218 217 217 209 207 211 205 197 186 183 185 181 166 176 180 193 176 159 163 142 137 128 124 111 33 26 22 19 8 7 13 22 26 19 17 24 29 62 59 58 54 54 46 28 54 71 68 88 102 108 125 134 125 84 77 77 85 90 95 132 121 108 97 93 73 55 70 91 90 100 115 133 139 142 128 70 74 101 130 143 148 162 165 160 133 128 144 140 146 161 176 210 217 215 214 210 205 207 201 187 186 172 177 164 169 174 182 189 176 166 148 140 122 123 133 97 27 15 20 20 18 7 12 18 25 28 21 34 63 76 74 74 79 84 64 29 36 54 64 82 83 93 117 132 100 65 68 72 91 85 105 112 108 104 99 63 22 17 46 134 151 153 115 141 178 193 180 54 40 25 38 76 108 137 159 155 153 150 156 133 138 133 158 196 213 218 206 200 198 188 194 176 188 172 173 168 163 183 185 180 179 167 142 152 119 119 135 80 24 18 18 26 49 21 15 27 37 35 39 37 61 81 81 84 99 120 115 38 36 47 55 61 60 86 117 113 89 69 71 88 99 140 141 98 78 81 102 69 49 71 83 97 96 77 60 73 92 102 97 98 108 95 77 55 81 107 107 107 144 155 156 142 137 127 140 201 213 217 206 196 189 195 178 162 169 176 152 171 159 184 186 178 167 152 138 134 103 104 116 62 21 21 19 18 44 48 31 33 47 55 65 72 136 82 83 93 120 142 157 68 40 39 45 52 59 85 98 94 91 74 84 116 142 168 169 128 72 77 110 123 133 143 144 136 140 147 141 140 148 157 161 167 160 158 162 159 151 142 120 100 126 167 160 154 151 139 147 177 199 208 201 195 176 186 174 152 150 162 145 156 160 173 173 166 166 137 131 127 99 113 134 47 17 25 42 26 20 48 53 66 61 61 80 132 169 81 84 107 141 163 176 108 41 38 42 45 47 72 80 90 91 86 97 136 164 178 180 147 124 108 115 127 141 153 156 160 171 170 166 171 171 177 177 180 180 178 177 177 173 170 176 186 174 184 179 161 165 156 163 186 188 194 198 191 174 179 167 153 135 152 153 155 148 162 161 150 156 129 125 106 104 125 135 32 25 28 54 44 17 37 49 65 96 77 91 156 181 72 83 116 158 179 194 132 36 29 38 51 39 56 66 74 95 107 101 139 170 191 180 153 137 122 118 127 148 158 166 174 181 183 176 179 177 184 188 194 193 193 193 189 188 196 203 207 212 207 202 171 169 174 182 201 206 197 190 188 176 185 179 127 138 152 152 148 125 151 139 137 134 122 116 90 103 127 117 32 22 26 39 47 32 30 42 62 110 144 157 170 185 52 77 119 164 188 201 163 59 28 33 50 45 45 60 80 108 113 118 156 176 185 166 150 144 135 125 129 150 161 173 184 186 182 178 180 187 199 201 199 199 200 196 203 205 209 207 208 211 214 212 200 177 169 185 197 209 200 188 181 170 179 174 130 139 144 139 133 128 140 122 118 116 117 119 91 99 126 106 40 27 18 26 50 72 68 45 99 116 151 164 178 190 47 88 134 167 189 196 183 120 33 25 36 33 51 60 82 117 117 137 165 179 174 155 146 149 146 134 137 155 166 173 184 191 192 190 192 200 204 204 205 208 208 201 202 207 211 210 208 212 215 213 214 208 179 165 162 195 200 182 185 166 167 158 132 132 136 131 115 129 138 131 119 116 131 93 86 118 145 99 41 38 21 36 31 80 104 41 73 132 140 173 184 193 52 108 156 182 191 196 181 123 38 25 26 24 37 45 70 106 119 139 157 171 167 158 149 147 150 145 143 158 157 159 170 174 184 184 185 193 194 194 198 204 204 205 204 206 211 212 210 213 214 217 218 216 207 179 158 173 196 179 163 151 143 139 138 126 119 93 108 134 127 123 118 106 117 73 94 160 159 95 45 53 17 34 36 49 70 103 79 129 150 175 187 195 61 118 172 198 201 200 187 134 60 17 26 24 30 33 59 95 127 148 163 166 161 159 153 149 150 147 141 159 163 153 153 151 152 154 155 166 179 187 193 203 207 207 208 208 214 214 211 210 213 216 219 220 213 203 176 152 182 179 146 140 136 130 133 114 110 97 112 126 103 100 115 113 93 87 133 157 156 86 47 62 24 68 79 79 88 94 112 136 167 177 188 195 67 127 182 203 207 206 195 163 91 25 22 26 21 34 55 80 128 146 158 166 161 159 154 150 153 150 139 139 152 152 146 138 140 146 142 147 164 177 187 200 202 206 210 213 215 213 211 211 213 219 223 221 216 216 203 168 151 167 135 137 129 134 127 105 95 105 109 112 89 99 120 104 74 109 137 149 162 96 65 83 91 149 138 107 165 151 153 164 169 176 186 194 78 134 185 208 213 208 195 161 106 41 18 22 19 28 41 76 114 129 153 166 166 162 158 155 159 154 134 140 150 154 146 131 141 134 142 152 170 175 189 203 207 211 213 213 214 212 211 215 218 219 217 213 206 210 212 201 169 162 136 121 114 116 106 89 97 100 113 105 105 104 113 78 102 128 140 151 168 107 97 118 140 159 146 132 162 161 160 164 168 172 181 190 86 140 188 209 213 208 193 153 105 60 17 19 22 16 31 65 87 115 139 158 168 168 168 161 161 155 147 160 149 141 142 149 153 145 160 163 180 196 205 212 213 215 215 216 215 212 213 216 219 215 205 192 200 199 198 195 183 162 135 125 101 72 92 86 82 103 97 98 89 93 86 92 124 144 135 150 168 122 126 141 152 157 151 155 164 159 159 161 166 169 176 186 93 149 192 208 211 208 188 148 96 62 28 23 18 12 22 50 71 98 126 143 163 172 170 166 163 165 164 170 168 141 148 169 159 175 184 168 180 201 205 215 216 215 215 217 215 215 214 218 220 213 204 200 176 186 180 174 164 142 125 96 73 53 75 79 62 80 61 92 91 92 103 98 132 151 155 174 164 134 141 144 157 161 160 163 165 162 159 161 163 167 174 184 104 154 194 207 210 204 180 140 91 69 40 18 12 11 22 37 59 92 128 130 157 174 176 176 174 171 171 184 182 170 168 178 179 198 205 205 199 206 208 210 217 217 218 220 218 218 217 215 213 209 195 188 168 149 162 161 136 119 119 88 61 57 69 70 69 60 53 84 87 90 100 108 144 167 174 183 167 137 140 147 155 160 163 163 162 158 156 157 159 165 173 182 113 160 195 205 208 200 176 130 84 68 47 22 14 11 16 27 40 68 100 124 154 170 179 184 182 178 178 186 183 176 183 176 200 207 209 217 211 217 219 222 224 224 223 224 220 218 220 220 217 205 191 178 166 137 128 145 116 110 98 77 63 67 58 77 62 38 58 68 83 83 113 135 165 182 187 190 164 129 144 147 151 157 160 160 156 152 153 154 156 164 173 183 123 165 196 203 205 198 169 122 80 66 46 23 11 9 13 26 23 48 81 131 142 157 176 188 183 181 182 186 180 185 184 190 202 206 211 213 213 222 222 225 227 227 227 226 218 217 217 217 214 200 170 168 139 125 123 123 113 88 67 61 52 60 57 55 34 36 65 92 82 102 129 153 193 192 192 198 166 73 139 146 152 156 158 157 153 153 152 153 158 167 176 186 131 167 194 201 203 193 160 115 79 63 47 28 12 9 15 22 13 39 83 110 114 140 151 181 180 181 181 178 173 169 174 191 195 204 211 207 209 216 219 221 227 229 227 223 215 211 212 215 206 196 169 142 135 107 112 103 94 79 67 51 47 61 54 43 29 42 68 89 85 134 147 182 201 201 198 200 172 21 98 152 149 153 156 156 154 153 150 153 159 168 179 186 136 169 194 200 201 188 151 106 77 62 47 39 19 9 11 16 13 30 68 83 98 115 123 152 163 159 164 169 169 152 164 174 202 193 205 203 213 211 211 221 224 225 227 218 209 209 206 201 199 183 170 139 132 116 93 82 82 71 67 36 40 44 39 35 36 58 75 77 112 136 175 203 212 204 196 198 169 17 42 147 150 154 156 155 154 150 148 149 158 167 176 183 141 171 194 199 198 183 144 101 75 62 49 46 30 10 12 18 10 34 51 57 86 88 99 120 129 113 136 147 150 136 135 164 199 177 188 196 204 202 184 204 206 214 212 198 186 184 190 178 167 159 157 142 138 101 80 80 71 58 52 43 50 45 28 34 45 68 71 94 131 148 200 214 219 206 198 203 154 18 17 123 156 156 157 155 153 148 147 149 157 164 173 181 144 172 193 198 197 179 138 100 75 60 48 48 30 7 18 12 10 18 25 62 63 62 84 91 97 104 117 125 138 131 129 168 193 166 170 169 179 190 163 172 180 186 178 168 186 183 173 161 151 122 139 113 113 111 72 59 53 53 49 44 44 39 37 39 39 52 76 129 154 192 205 216 217 206 199 206 140 10 9 87 159 153 153 154 151 147 145 148 155 163 172 181 146 176 193 197 195 175 137 98 74 59 48 48 19 4 16 11 10 15 27 48 36 47 58 68 78 98 100 103 123 145 143 161 176 151 156 148 165 173 165 136 139 154 131 131 143 143 136 139 120 104 97 100 79 84 68 56 51 43 40 54 46 33 39 47 50 68 117 144 169 201 214 218 219 207 195 207 136 9 11 60 156 152 152 152 150 147 145 147 154 162 172 182 151 179 194 198 194 172 134 97 75 56 49 46 14 5 18 15 9 26 22 20 34 43 42 56 77 74 74 78 105 123 126 153 156 125 135 127 156 166 147 135 132 104 117 110 130 108 101 95 96 91 74 74 62 51 40 44 39 25 31 48 48 29 33 48 57 104 148 163 176 203 216 219 221 211 195 205 125 8 13 44 152 150 151 153 150 146 144 148 154 164 171 177 156 181 195 197 193 168 129 91 72 55 48 40 11 7 21 30 18 21 14 16 31 42 42 49 72 80 61 63 89 105 112 139 131 121 133 118 150 149 119 129 142 104 86 83 111 83 100 77 73 77 64 70 55 31 28 41 39 23 30 35 32 39 34 69 107 157 176 208 213 213 218 222 222 213 194 205 100 5 18 26 126 154 150 150 147 142 141 145 153 164 172 178 162 184 195 196 191 163 123 88 71 53 49 41 14 8 19 36 21 11 15 11 22 22 38 47 52 65 60 56 83 87 104 127 109 109 125 104 110 128 114 97 123 110 82 81 74 73 76 72 72 57 58 55 44 28 37 39 33 26 32 27 33 33 59 130 146 190 197 211 216 216 220 221 221 215 197 196 61 11 21 12 34 142 150 144 143 140 141 144 152 164 172 178 167 186 195 197 190 159 117 86 70 54 50 42 14 9 19 53 32 12 11 12 15 16 30 30 33 44 60 62 61 71 100 98 91 104 113 89 93 94 100 82 95 100 78 84 68 63 59 57 49 46 46 30 32 21 33 33 21 19 23 26 27 42 61 112 164 194 205 210 213 220 218 219 222 216 202 139 16 20 24 18 3 53 146 145 141 140 140 143 150 162 170 176 171 188 196 197 188 155 112 82 67 52 50 45 16 10 9 45 48 23 10 7 12 11 14 21 29 33 43 59 55 67 90 82 65 90 87 86 86 74 81 70 65 67 65 61 57 60 46 39 33 45 27 19 27 21 27 18 25 23 16 20 30 66 84 161 181 188 204 213 215 221 219 219 219 223 187 45 12 21 23 17 17 8 63 150 147 139 139 140 147 159 167 172 174 189 197 197 185 148 106 81 64 49 48 49 24 8 8 16 59 44 19 4 6 12 9 27 36 29 32 46 54 76 65 66 64 63 62 69 66 58 55 54 47 44 46 31 33 46 28 32 35 25 23 21 24 26 22 15 36 24 14 21 61 77 156 201 199 200 207 219 220 219 219 218 225 220 84 7 22 21 17 16 21 20 8 59 134 146 142 138 145 156 162 168 180 192 197 197 181 143 101 77 62 48 46 50 31 10 12 6 16 58 42 10 6 10 12 24 29 26 34 43 37 54 56 52 56 35 41 50 47 51 49 41 27 28 39 22 22 32 21 24 19 11 21 22 17 22 22 11 31 16 22 55 83 122 177 207 209 206 213 222 220 220 221 229 198 71 6 20 20 17 16 18 22 21 22 11 23 73 125 149 154 157 163 167 186 195 200 198 180 142 97 73 58 49 49 50 35 10 12 12 4 20 46 31 6 12 16 28 37 19 26 31 30 37 59 49 46 20 29 47 40 62 44 35 37 32 32 32 18 14 15 17 19 9 18 16 16 21 16 19 26 19 36 85 119 122 185 215 210 213 220 221 220 229 227 147 36 6 20 21 18 17 18 24 24 22 22 22 17 9 22 70 119 155 172 176 189 197 201 199 178 137 93 71 57 49 49 50 31 11 12 13 12 3 11 34 22 10 16 20 29 15 14 11 21 27 36 37 35 28 32 44 45 40 45 42 50 41 22 23 15 12 9 12 15 20 21 23 18 24 18 26 37 39 73 100 89 116 188 205 209 217 220 230 233 171 68 9 11 21 19 17 17 16 20 28 25 23 24 25 23 20 18 12 14 39 81 121 194 200 203 200 177 132 88 70 57 49 46 36 21 12 10 11 12 12 5 4 22 22 13 10 19 17 19 16 12 18 20 27 22 23 28 16 38 47 38 32 30 30 22 19 15 8 8 16 21 18 32 25 15 21 16 39 53 86 69 93 79 138 187 205 215 213 226 195 97 15 7 19 18 17 16 16 18 17 25 28 26 26 29 27 27 22 21 21 19 13 9 13 197 203 205 202 176 127 86 65 41 26 23 23 18 11 12 9 10 12 10 4 3 13 17 11 15 15 18 24 15 17 16 21 20 11 10 9 10 24 23 31 24 24 32 12 8 9 13 19 16 15 25 13 17 26 38 73 85 102 91 126 149 176 199 219 222 193 117 27 3 17 21 18 17 17 16 18 21 17 27 30 26 25 30 27 27 23 22 22 27 24 20 21