P2
# Generated by OpenCV 4.2.0
92 112
255
1 4 4 3 2 1 3 4 5 4 6 4 0 0 1 1 6 12 12 11 11 14 15 15 14 22 27 26 31 34 38 39 44 58 53 35 27 24 22 33 43 51 61 65 75 79 103 124 148 161 156 153 154 156 146 134 145 134 110 117 105 109 108 94 73 62 62 57 46 46 37 23 16 13 10 4 5 5 5 12 14 18 19 12 7 7 10 11 11 10 8 10 3 4 7 4 1 1 1 2 4 3 7 3 0 0 1 2 8 13 13 13 16 14 12 14 18 26 31 36 42 53 57 57 55 61 58 51 41 37 27 29 37 50 57 66 72 78 97 127 154 166 164 163 163 160 153 145 149 143 129 129 127 129 111 97 92 80 67 64 55 45 43 41 24 15 12 7 5 5 7 12 16 18 16 8 2 6 8 9 13 11 10 8 9 8 6 2 1 1 2 2 3 5 8 3 0 1 2 4 11 15 14 14 15 15 15 18 28 35 43 64 72 82 95 99 100 98 97 92 72 67 53 52 51 55 67 81 83 94 118 140 162 171 172 170 168 167 163 157 156 152 145 144 145 138 126 115 108 99 97 75 64 63 51 44 34 24 14 10 6 6 7 12 14 11 11 5 3 3 4 6 8 9 8 6 12 7 1 1 1 0 0 1 2 6 9 2 1 3 3 7 25 25 16 15 15 20 25 38 53 68 88 104 119 127 135 140 142 145 144 144 128 107 101 98 97 88 83 91 99 95 119 154 167 176 173 174 173 171 170 171 168 162 158 154 150 143 139 128 127 112 113 102 83 72 66 56 43 33 23 15 11 9 10 11 9 4 4 4 2 0 5 5 4 7 8 6 7 2 1 3 0 0 0 0 1 8 11 1 2 4 6 20 43 41 34 28 33 43 46 65 88 108 122 132 141 142 146 152 155 153 151 150 147 139 132 126 126 125 118 104 117 135 143 161 173 177 175 174 174 175 171 174 174 169 167 162 156 154 149 146 132 120 122 119 107 91 74 66 54 45 35 25 14 10 12 15 14 4 5 4 2 2 1 2 3 4 6 4 9 2 9 9 1 0 0 0 3 7 10 2 2 8 18 37 43 51 57 55 56 68 87 98 112 128 137 145 147 151 154 152 155 157 162 161 158 157 160 154 143 135 139 139 134 146 162 171 174 176 177 176 175 174 176 175 175 172 168 165 162 159 154 149 139 130 128 125 116 107 95 78 69 55 42 31 20 14 14 21 18 7 7 4 2 1 0 0 1 2 2 2 10 6 6 5 0 0 0 0 3 4 4 4 8 17 25 45 47 52 77 86 93 103 114 121 128 138 143 150 153 156 156 156 160 160 163 166 164 166 166 164 165 162 156 156 153 156 170 176 177 178 178 176 178 177 176 175 175 171 168 169 166 161 159 153 145 142 136 130 127 118 114 100 88 72 54 38 33 19 18 18 15 10 4 2 3 1 0 0 0 0 2 2 4 1 9 5 0 0 0 0 1 7 4 6 12 20 28 42 51 85 96 107 109 118 124 135 141 139 148 152 156 158 160 162 162 164 168 166 168 166 161 164 170 173 173 166 164 170 175 179 180 182 179 179 179 178 178 177 173 170 172 169 166 161 159 157 151 145 139 131 134 125 116 113 105 89 74 50 39 28 21 16 13 9 4 2 2 1 2 1 1 0 4 3 0 0 6 5 0 1 0 0 0 7 7 7 13 17 29 44 59 101 105 113 117 126 135 138 141 141 148 152 160 161 164 166 167 168 169 169 173 169 166 168 174 175 178 175 178 180 176 178 181 180 181 182 179 180 180 177 174 173 172 167 166 163 161 158 154 147 138 135 133 133 124 123 113 102 91 70 48 36 26 21 10 8 4 4 2 3 3 1 3 2 1 3 1 1 3 1 0 2 0 0 1 6 9 9 15 21 30 40 66 109 114 114 119 126 136 140 143 146 149 157 163 162 166 171 170 172 171 175 175 175 174 172 177 177 180 182 181 181 181 181 182 182 182 181 182 182 180 178 178 176 173 172 168 165 161 159 155 151 142 139 132 133 133 128 123 106 105 89 59 45 29 24 10 4 4 3 3 2 1 0 3 4 5 6 2 1 2 0 1 4 1 0 1 9 17 16 16 25 26 52 92 109 115 114 119 126 135 141 145 150 152 158 162 165 168 170 174 175 174 177 176 177 176 176 178 181 181 181 180 181 183 183 183 184 183 182 181 180 178 180 177 178 177 173 168 165 161 159 155 152 146 142 133 136 136 135 126 111 107 93 66 46 29 23 13 4 3 3 3 1 1 1 2 3 8 9 4 4 2 0 2 6 3 2 2 9 19 19 23 23 42 73 92 112 118 116 120 130 139 142 147 150 153 159 163 167 170 172 174 175 174 177 177 178 177 176 179 177 181 181 183 182 183 184 183 184 183 182 183 181 177 179 180 177 174 170 167 165 160 158 153 152 149 146 141 139 133 131 127 117 101 95 71 46 28 18 12 5 3 4 2 0 1 2 3 4 5 6 12 5 3 0 1 9 7 6 4 10 20 15 19 31 44 62 90 112 117 119 125 133 139 143 147 149 155 159 164 167 168 172 175 176 178 177 179 179 180 181 180 182 182 183 184 182 184 184 183 185 185 184 183 183 178 177 179 179 170 167 170 167 161 159 153 150 150 149 145 145 137 133 137 129 106 90 75 50 26 22 12 7 4 3 2 1 1 1 2 5 7 7 7 3 2 2 0 11 14 10 6 11 19 25 13 27 40 57 81 109 118 125 135 136 138 144 147 151 156 156 160 165 169 173 176 179 178 177 180 179 181 181 182 183 181 184 184 183 184 183 182 182 182 182 182 180 179 175 179 177 175 170 170 165 161 159 153 149 149 149 147 146 144 143 140 134 119 97 77 64 29 22 13 6 3 1 1 0 1 1 0 3 3 3 3 0 0 3 0 12 21 17 7 15 18 23 13 14 39 50 78 110 118 129 135 140 140 145 145 150 153 157 160 163 172 176 178 177 180 180 181 180 178 178 181 179 181 184 187 185 184 183 183 185 183 183 183 182 181 177 178 177 176 172 170 164 159 154 149 147 148 150 150 150 146 147 144 135 126 115 89 66 32 18 16 7 2 1 1 0 0 0 0 2 4 5 3 0 0 0 2 5 24 19 16 10 23 19 12 5 29 49 78 110 125 136 137 138 140 143 146 148 151 158 161 166 171 175 176 174 175 181 181 181 179 183 181 180 182 184 183 183 185 185 185 185 184 183 182 183 182 180 176 178 172 168 169 163 158 153 152 145 149 153 152 153 148 146 148 138 132 125 107 80 47 18 17 8 3 3 0 1 0 0 1 1 3 5 0 0 0 0 0 0 13 18 15 8 16 14 7 1 15 48 81 115 136 140 139 134 143 147 147 147 150 156 162 167 167 173 176 175 173 180 181 182 181 182 180 182 182 185 182 183 185 186 185 186 186 183 182 182 182 182 178 175 173 172 167 163 161 157 153 147 148 152 152 154 152 152 148 143 137 127 120 100 68 27 14 10 4 2 0 0 0 0 1 1 3 4 0 0 0 0 0 0 3 13 8 5 6 5 4 2 10 51 96 117 135 138 141 142 146 150 148 149 152 156 160 161 165 170 176 176 172 181 179 183 184 181 176 178 180 184 184 184 184 185 185 187 185 182 184 183 182 181 181 177 176 176 166 163 162 160 155 152 152 155 158 157 151 152 150 144 139 132 121 112 85 40 9 4 4 1 1 1 0 1 3 3 3 3 0 0 0 0 0 0 0 3 4 2 1 4 3 2 10 49 96 121 135 139 145 144 146 150 150 148 154 155 157 158 161 167 172 176 179 180 181 182 178 176 180 179 180 185 185 185 185 187 187 184 184 186 185 186 185 183 180 177 176 170 164 163 164 159 155 156 156 156 160 158 156 153 149 144 142 132 125 115 95 62 25 4 1 1 0 1 0 0 2 2 3 3 2 4 2 0 0 1 0 0 2 1 0 1 2 1 8 54 98 127 136 143 146 147 147 150 150 147 150 153 158 161 166 172 172 176 180 180 182 180 181 181 183 183 184 185 185 186 184 187 187 179 182 186 186 186 182 182 181 179 174 171 167 165 164 162 158 155 155 158 159 158 156 154 152 147 142 131 129 119 96 74 44 11 2 1 0 0 0 0 2 3 3 3 2 6 1 0 3 1 0 0 1 1 0 1 1 0 8 58 101 131 137 145 144 147 149 147 150 150 153 157 160 164 165 169 175 177 181 182 183 181 184 185 185 183 184 186 183 184 185 186 182 182 186 187 186 186 184 182 181 180 174 172 169 166 164 162 154 157 155 161 159 159 156 153 152 149 146 137 129 117 100 78 54 23 5 1 1 0 1 3 4 3 2 0 2 3 4 6 5 3 2 3 2 1 0 1 1 0 13 61 108 133 139 145 145 147 151 152 152 156 156 159 158 163 164 169 175 179 181 183 182 182 183 185 187 183 185 185 184 185 185 185 182 183 184 183 186 186 183 183 180 178 176 172 171 167 164 157 155 157 157 159 160 159 156 154 153 149 145 137 129 124 105 83 60 36 12 2 0 0 2 11 6 3 1 0 4 4 5 9 7 4 7 3 1 0 0 0 1 0 18 75 112 132 139 145 147 151 154 153 154 157 160 161 162 161 165 169 174 179 181 180 184 180 183 185 185 188 187 184 183 185 184 186 187 185 184 182 186 186 185 186 183 180 177 174 170 169 164 159 156 156 155 156 156 156 155 153 154 149 146 140 132 126 110 92 64 41 20 3 0 1 3 11 8 6 1 1 4 6 9 7 6 11 10 5 1 0 0 0 0 0 30 93 112 133 140 144 150 153 154 155 154 156 158 158 160 162 166 167 172 177 180 179 184 184 183 183 186 187 187 185 180 185 185 185 184 185 186 185 185 187 186 187 187 183 178 177 174 172 167 165 162 156 156 157 154 152 153 153 151 148 143 140 133 127 113 98 77 46 27 11 1 1 2 9 10 5 3 1 7 8 5 5 10 14 9 6 0 0 0 0 0 4 66 91 113 135 142 146 150 153 152 153 152 155 158 159 163 167 171 174 175 176 181 180 185 186 185 184 186 186 187 183 185 185 187 185 185 185 186 185 185 187 187 188 187 184 181 178 174 173 171 167 166 162 160 159 156 156 156 154 154 149 142 137 132 129 118 100 84 59 31 15 4 1 1 6 8 4 3 3 12 10 7 12 18 20 11 1 1 1 0 0 0 35 88 89 121 136 143 145 149 152 153 152 153 157 162 162 165 169 172 176 173 177 183 182 183 184 184 186 186 187 186 184 186 185 186 186 187 186 186 184 185 187 188 187 187 182 181 178 176 173 173 168 165 164 162 159 155 155 156 155 153 150 144 139 132 127 115 99 85 66 33 16 6 2 1 5 8 4 3 4 13 13 13 9 19 19 2 5 6 3 3 5 21 72 88 100 123 135 142 144 150 152 154 154 154 160 163 165 167 169 171 174 175 180 183 185 185 183 185 186 187 187 183 185 185 185 185 187 186 186 185 185 185 187 189 187 186 185 182 179 176 174 173 169 166 165 163 161 157 158 157 153 150 150 146 139 131 126 112 101 95 75 41 20 8 3 1 6 5 1 1 5 10 10 11 13 12 2 2 8 10 10 12 23 47 80 84 105 125 134 143 149 154 154 153 156 157 159 165 167 171 169 172 176 180 180 184 185 186 184 187 187 188 188 187 185 187 186 185 185 183 182 185 184 186 188 188 189 185 185 180 181 179 174 170 169 167 164 162 161 160 160 158 153 152 149 145 139 131 123 113 107 101 92 58 25 10 2 1 1 1 2 3 3 11 11 9 4 0 1 3 12 13 15 22 38 62 81 82 111 124 138 146 153 155 157 157 157 159 162 166 168 169 170 172 174 176 178 182 187 184 184 186 187 187 189 189 185 183 186 185 183 184 182 184 185 188 188 189 185 184 181 181 181 181 175 172 171 167 164 162 162 160 160 158 155 152 147 142 138 131 125 116 111 100 95 75 37 14 3 1 1 4 4 3 2 1 0 0 0 0 1 9 12 11 16 29 42 72 77 82 108 126 140 150 155 156 157 157 159 161 163 165 168 169 174 173 175 176 176 182 186 186 183 183 190 189 187 190 186 183 186 185 185 183 186 186 187 188 191 189 186 184 183 184 182 179 174 174 172 167 165 162 163 162 161 159 158 154 148 143 138 132 124 115 112 108 96 77 55 27 7 2 1 4 6 1 1 0 0 2 6 1 6 9 8 11 22 41 38 72 66 84 112 132 142 150 155 158 158 159 159 160 162 165 169 171 172 170 173 176 176 179 181 182 182 183 189 190 189 189 186 187 185 186 186 185 186 187 187 188 187 187 182 178 179 183 180 176 175 171 169 165 163 160 159 159 156 156 155 152 146 141 139 132 123 115 113 111 97 80 71 42 13 4 3 4 2 0 1 1 3 12 10 4 4 5 7 12 32 44 49 65 54 89 117 133 147 154 160 162 158 160 158 160 162 165 168 171 167 167 171 176 177 177 176 177 180 179 187 187 188 190 186 188 186 187 184 184 181 183 182 180 179 174 171 172 171 170 170 171 170 168 165 161 159 158 157 150 150 147 141 140 140 143 139 132 120 113 114 108 96 86 74 51 20 6 4 1 0 0 0 4 8 22 14 11 4 5 10 13 32 42 46 47 63 101 120 135 148 158 160 159 157 156 154 158 160 164 166 169 168 164 167 173 172 169 171 173 176 178 181 185 185 181 181 182 185 185 184 180 179 176 173 171 166 162 159 160 153 154 155 159 143 146 146 142 142 144 134 128 123 120 119 115 114 127 135 134 125 110 112 103 99 90 79 57 19 9 4 0 0 0 0 3 12 14 10 9 6 6 11 15 29 38 41 54 79 103 126 142 151 153 150 150 152 146 145 153 159 154 158 162 156 149 139 153 161 152 157 162 168 177 182 178 179 175 173 176 184 183 179 178 176 166 167 166 159 154 146 140 129 135 133 119 113 102 88 84 84 94 85 89 96 88 84 90 85 86 99 119 122 111 111 106 104 92 78 58 23 13 9 0 0 0 0 7 8 3 4 5 6 7 10 18 40 53 57 70 85 111 128 139 132 117 124 131 121 120 119 114 103 102 113 113 103 99 112 132 137 130 148 147 158 157 157 166 175 172 174 177 178 178 173 171 168 166 163 158 156 150 137 121 95 116 92 103 92 71 62 49 40 41 49 63 60 68 78 87 83 71 66 83 108 111 107 106 106 94 83 58 17 8 6 0 0 0 0 8 4 3 5 4 5 7 9 22 36 58 65 74 89 111 118 111 94 88 96 87 76 72 63 51 45 43 51 64 66 73 81 104 119 113 116 117 134 145 154 162 166 171 171 170 170 169 167 166 159 160 161 153 151 133 125 110 92 88 94 81 64 51 46 48 40 38 37 39 39 56 57 53 54 54 58 77 90 105 102 101 104 92 83 59 14 6 4 0 0 0 0 4 4 3 8 10 5 9 9 24 44 65 65 76 97 93 67 51 57 64 62 62 55 41 42 37 34 34 38 44 52 57 77 65 97 101 96 88 112 142 145 153 161 167 164 161 165 156 160 162 154 155 159 155 150 123 118 104 94 85 80 49 48 38 36 35 33 37 31 34 42 46 43 48 46 37 43 53 64 83 94 97 98 93 87 62 20 8 3 0 0 0 0 5 4 2 5 16 9 8 15 26 52 67 69 81 83 57 44 35 41 40 44 51 53 47 43 36 34 32 32 40 44 44 56 65 78 89 95 87 115 129 142 156 160 159 157 159 160 154 154 155 153 150 149 147 141 116 105 114 98 74 58 51 57 54 58 69 78 78 75 76 69 61 58 48 53 53 48 43 59 84 93 95 97 94 87 63 22 9 2 0 0 0 0 4 7 4 4 8 10 13 21 37 48 67 74 69 64 58 56 47 40 44 41 47 66 74 74 74 71 77 79 73 76 82 75 76 80 86 94 95 121 130 133 145 149 148 152 156 156 157 149 146 147 145 143 141 135 111 100 105 92 81 80 82 85 91 101 108 112 112 111 101 95 91 85 81 78 65 53 65 77 82 94 94 95 96 89 65 20 4 2 0 0 0 0 2 8 10 6 4 9 12 22 41 55 68 76 68 40 36 39 54 56 63 67 67 77 93 108 113 116 119 124 119 112 105 98 94 89 92 95 94 112 118 122 136 143 148 151 152 152 151 148 146 142 140 133 131 124 114 108 91 86 85 80 72 66 75 84 84 76 76 75 73 74 77 88 96 89 82 84 86 80 81 96 96 97 96 92 68 23 2 1 0 0 0 0 4 8 10 8 5 8 10 24 47 59 64 75 75 62 49 55 66 73 82 86 94 107 116 122 123 120 118 107 96 87 76 65 60 62 71 82 87 95 105 119 132 139 144 149 155 157 154 153 153 144 137 129 123 112 104 91 80 71 61 51 57 73 65 40 30 17 21 31 40 53 61 57 69 87 90 89 89 95 98 107 104 96 99 93 71 24 1 0 0 0 2 1 0 9 11 10 5 8 16 31 47 61 66 77 83 76 75 71 71 82 90 101 100 102 91 80 68 52 33 19 12 11 19 34 51 40 37 48 65 77 93 107 119 133 140 152 160 162 165 165 156 143 134 125 117 109 91 79 71 58 66 81 83 53 20 50 31 67 9 6 16 22 38 63 52 65 86 85 92 103 108 115 109 100 102 94 71 26 2 0 0 1 4 4 2 8 18 6 1 7 18 34 46 65 72 80 93 96 93 93 89 93 94 94 81 65 55 35 20 14 3 27 33 57 34 10 38 52 67 63 59 57 70 89 105 123 141 155 165 171 174 173 161 145 133 121 114 93 79 75 76 93 97 78 66 67 25 75 32 70 16 15 35 62 16 20 45 65 84 90 106 106 110 117 108 102 104 96 72 26 3 0 0 5 12 6 2 7 18 5 2 9 23 37 48 66 69 92 97 98 108 99 94 94 90 63 48 44 21 22 57 28 12 49 40 59 42 13 71 89 55 79 93 80 71 76 97 116 137 155 171 181 183 176 164 150 131 116 100 85 91 96 113 106 64 85 156 128 29 20 11 9 34 24 57 85 46 27 20 49 76 95 108 108 117 115 107 110 104 98 81 33 5 0 0 6 9 4 2 6 15 4 5 11 29 46 57 71 75 94 111 99 105 102 95 91 75 45 23 7 21 74 107 45 24 25 16 7 22 28 106 170 106 68 71 112 108 89 91 110 134 155 169 180 180 176 167 151 131 111 101 106 122 132 104 59 84 128 154 137 62 38 33 40 32 38 90 93 71 64 61 66 75 89 106 114 120 117 117 113 107 99 89 40 8 0 0 4 5 3 0 7 11 5 8 14 32 49 62 76 85 99 114 108 102 102 97 92 69 37 30 47 58 73 92 79 37 37 34 45 46 54 103 105 102 84 80 109 129 116 93 111 126 150 166 178 181 178 169 150 129 114 113 127 145 136 96 93 94 92 99 103 105 96 86 94 96 95 89 97 98 92 97 103 106 104 108 119 123 122 121 117 109 103 95 49 8 1 3 9 9 5 1 6 7 5 7 18 38 57 65 78 94 110 123 130 120 108 99 87 79 73 80 81 85 94 83 91 92 104 95 95 113 107 108 107 116 128 141 140 135 113 102 113 125 148 165 177 183 177 161 147 125 119 121 132 145 149 150 133 126 124 118 123 124 114 114 108 91 106 91 98 113 106 107 114 122 122 123 131 133 129 126 120 111 104 100 57 13 10 14 19 10 4 4 5 7 5 9 19 51 64 68 82 101 116 127 135 132 121 109 105 107 104 100 109 109 107 111 112 105 109 113 109 122 119 121 134 132 131 137 138 118 115 117 116 127 152 167 176 182 178 159 149 133 122 129 131 136 140 141 136 128 121 125 127 126 123 128 117 111 119 117 108 107 106 112 123 131 132 132 142 140 134 128 124 112 105 104 72 21 28 46 32 12 5 2 4 3 6 13 33 64 65 71 89 105 120 128 133 135 138 133 127 124 116 112 112 113 124 125 128 124 127 126 124 129 127 125 119 123 130 132 125 127 132 127 121 129 150 165 174 179 176 171 154 135 128 136 136 135 132 134 140 137 130 118 120 127 132 129 119 119 117 112 110 109 114 124 134 139 138 138 141 139 134 129 124 114 108 106 85 30 25 56 42 22 7 2 3 1 4 17 44 64 64 74 94 108 117 129 138 137 141 138 133 133 128 120 114 113 117 122 126 122 121 119 118 120 119 124 134 137 135 128 135 140 137 131 125 128 148 167 175 180 175 169 156 138 130 137 141 141 141 139 137 145 146 142 140 135 128 125 119 115 119 117 119 127 137 142 145 144 141 140 138 138 134 131 125 116 110 107 89 39 22 39 41 28 7 2 1 0 2 21 53 65 74 81 96 109 118 127 135 137 141 141 143 144 141 136 127 119 115 117 117 117 117 122 125 132 139 151 152 143 138 140 144 140 138 135 130 135 150 164 176 178 173 164 154 139 133 138 143 143 145 152 147 142 147 157 156 158 150 148 147 147 145 147 148 148 152 150 150 147 141 141 136 137 134 130 124 117 110 106 91 43 24 35 37 19 6 1 1 0 3 25 55 67 74 86 96 112 121 126 132 136 137 143 148 152 152 147 147 143 140 143 145 149 151 152 156 160 159 165 157 146 147 151 144 136 135 135 132 137 150 162 180 181 178 170 158 142 137 139 144 144 145 148 159 155 151 155 161 159 154 157 157 160 158 157 157 152 151 153 149 149 147 141 136 134 134 131 125 115 111 108 94 48 27 33 23 7 6 0 0 0 3 25 59 71 74 88 95 107 123 126 134 136 138 144 148 153 156 153 152 152 152 156 155 155 160 158 164 162 162 160 153 151 155 153 141 134 137 139 138 139 149 166 181 184 181 170 158 145 140 140 144 142 141 146 159 165 155 153 159 161 157 160 158 163 160 156 156 153 152 154 153 153 150 141 135 135 133 132 126 115 111 107 92 55 33 28 6 0 8 0 0 0 4 27 62 75 82 92 100 106 120 126 133 136 140 138 148 152 154 158 159 159 163 162 163 162 160 160 162 164 158 151 152 159 159 149 138 137 143 145 140 144 153 170 180 187 183 170 158 148 144 143 143 141 142 141 152 165 164 158 156 158 155 156 155 160 159 161 159 157 158 157 153 154 150 144 142 137 133 133 125 116 114 107 88 55 32 17 1 12 22 0 0 0 7 33 63 78 86 95 99 107 121 126 134 136 135 131 143 150 154 160 161 164 167 167 166 161 161 164 164 164 159 157 159 162 159 145 136 137 144 146 139 143 154 167 179 187 188 173 162 150 146 143 145 144 142 139 146 162 170 167 164 161 161 157 156 160 163 162 163 159 158 157 154 154 149 145 140 136 139 133 123 114 112 107 89 60 28 9 8 36 34 0 0 0 10 32 62 82 90 94 98 107 121 127 136 138 137 136 143 149 154 159 161 162 165 169 167 160 163 167 164 162 161 161 166 161 153 143 138 141 146 145 139 142 152 166 183 187 184 178 165 151 146 142 145 147 142 141 147 161 167 168 169 169 166 161 164 168 167 167 164 158 157 154 156 153 147 144 141 141 138 128 123 115 112 107 86 48 25 4 50 53 10 0 0 0 4 30 62 81 89 96 97 105 119 130 134 140 142 143 147 149 153 157 162 165 168 170 169 167 172 169 163 163 167 167 171 162 149 143 139 142 144 137 137 140 155 167 181 186 187 179 166 155 147 141 142 142 144 142 147 158 161 167 168 171 171 167 167 170 167 167 164 159 155 152 156 153 145 145 144 143 138 129 121 117 111 100 88 49 15 6 51 73 22 0 0 0 3 23 62 80 88 92 101 106 116 125 131 139 142 144 148 150 153 159 158 166 171 170 169 169 173 169 170 173 175 173 170 158 149 145 141 141 134 131 137 141 160 167 176 184 186 180 171 159 148 142 136 135 136 142 150 156 159 163 169 172 174 170 171 171 169 166 166 162 152 152 150 151 146 146 144 142 137 131 120 115 107 97 82 49 21 4 29 48 40 0 0 0 5 21 60 79 87 88 97 105 114 121 130 135 138 142 145 150 155 158 161 165 169 173 172 172 175 172 174 176 172 171 168 159 152 143 133 130 123 127 133 139 155 167 180 184 184 181 171 157 147 139 129 124 129 140 149 156 160 165 168 173 174 175 179 171 170 168 167 163 156 152 148 149 145 144 144 140 133 130 122 115 106 98 79 44 28 8 10 30 39 2 0 3 11 22 53 77 85 91 97 104 111 120 127 130 135 138 141 149 155 155 162 167 168 177 178 178 173 177 175 174 171 169 164 161 154 142 120 117 118 120 128 141 155 164 172 179 182 175 167 159 153 142 127 122 121 128 145 160 167 166 172 177 179 182 184 174 174 169 162 165 159 153 148 148 145 143 140 136 132 127 122 114 104 93 70 44 32 21 6 19 36 3 0 1 12 22 47 74 84 89 95 102 109 121 125 127 131 132 138 143 153 153 158 163 166 175 180 177 177 177 173 175 176 172 163 160 146 132 117 122 124 122 127 144 154 160 173 178 178 177 170 161 152 143 136 131 129 116 136 158 167 168 170 177 182 187 184 177 173 166 163 160 154 151 151 145 146 142 136 132 128 124 120 109 103 90 57 41 45 51 11 32 18 3 0 2 13 18 39 72 85 89 94 100 109 121 121 122 128 132 136 142 145 152 157 163 165 168 170 178 177 172 172 174 173 172 165 159 137 119 127 141 139 131 128 142 149 161 174 180 180 177 164 155 148 143 141 142 142 130 126 144 158 164 167 171 175 179 177 176 171 169 166 156 151 151 147 146 141 138 135 131 129 125 117 105 100 86 55 33 45 66 17 22 24 0 0 1 7 17 33 63 85 89 92 98 107 118 123 122 126 132 134 140 143 150 156 160 164 165 170 178 178 175 174 174 168 165 168 155 130 122 142 146 143 139 133 140 156 163 173 179 184 182 166 156 149 140 143 145 146 142 127 136 151 161 168 168 173 175 174 173 166 168 165 160 155 151 148 144 137 135 131 130 130 125 118 105 96 79 52 37 53 57 52 11 8 0 0 0 2 12 25 57 81 88 91 97 106 115 121 123 129 130 133 138 145 149 151 156 160 166 172 175 176 176 174 172 170 163 159 144 116 128 144 144 144 141 132 142 155 158 188 184 190 196 170 158 146 138 143 143 145 143 132 124 142 157 161 168 169 167 169 165 168 166 162 157 154 152 146 139 134 135 129 125 128 122 115 106 95 67 49 41 56 62 54 43 4 0 0 0 2 9 27 47 75 87 91 96 106 116 120 123 128 129 131 135 142 146 150 154 160 165 170 175 173 172 171 166 166 164 151 132 114 131 140 146 145 136 132 139 148 154 169 170 175 184 169 157 142 133 139 141 136 138 130 118 132 150 156 161 160 161 167 166 165 164 160 156 151 148 141 136 132 130 128 130 128 120 112 108 95 69 47 40 61 75 61 40 6 0 0 1 0 7 21 44 66 86 91 95 102 113 121 118 122 124 128 133 137 143 145 150 159 161 165 167 173 171 165 162 159 156 142 120 107 125 131 133 131 129 120 127 142 150 154 161 163 164 161 147 132 119 122 125 118 115 114 118 129 140 152 158 157 164 167 167 165 162 158 154 149 145 140 138 131 130 131 131 128 120 115 103 86 61 43 44 76 65 74 37 0 6 2 0 0 8 20 43 63 80 84 96 102 109 120 124 120 122 126 131 134 142 146 150 156 162 165 168 169 166 168 164 158 150 138 117 102 107 108 106 100 102 107 108 122 132 146 153 156 156 149 130 113 106 102 87 86 95 97 116 127 136 146 154 162 164 162 163 164 158 157 151 146 144 137 136 130 128 131 131 126 119 111 103 82 62 46 47 79 60 68 32 0 14 2 0 1 5 17 30 58 74 73 87 101 109 118 122 120 122 125 128 136 140 148 152 154 160 166 168 166 167 165 161 155 152 141 125 105 93 86 67 40 29 50 84 102 115 132 143 142 141 127 113 97 70 42 44 62 77 92 123 135 145 148 151 159 157 159 165 163 156 154 148 146 143 135 136 130 129 132 131 126 118 108 104 82 58 46 50 95 63 52 18 0 20 2 0 0 3 17 27 52 74 71 84 94 109 117 120 120 125 128 127 135 139 149 152 155 157 162 165 165 164 164 164 158 157 155 142 120 94 80 77 76 73 60 55 77 106 115 127 128 128 117 99 75 77 91 95 78 75 107 133 141 149 152 154 153 155 159 163 157 157 152 148 147 145 138 137 133 130 131 128 126 116 109 97 79 56 43 53 82 66 47 9 0 12 3 1 1 4 13 28 48 62 59 80 95 108 116 120 124 123 125 127 133 139 148 153 155 153 160 165 163 161 161 158 162 164 164 152 135 118 98 91 99 99 90 83 69 79 104 117 116 110 96 75 92 104 101 90 85 101 125 138 145 149 155 155 154 155 157 161 160 162 155 149 148 145 141 136 131 131 129 131 125 115 106 91 73 51 41 48 63 47 14 2 1 0 2 0 0 2 5 20 41 50 56 71 88 109 114 118 123 124 122 127 134 139 143 151 153 155 159 164 162 164 163 161 166 166 164 150 139 131 117 103 101 105 100 96 88 68 75 94 90 83 82 101 104 90 92 98 105 118 130 139 148 154 160 159 157 155 155 156 158 158 152 149 149 144 139 137 134 132 131 132 122 113 101 89 72 57 29 25 30 8 1 0 0 1 2 2 0 1 3 17 34 49 61 75 88 102 113 116 121 123 126 127 134 140 135 146 154 156 158 159 162 166 166 168 168 169 164 154 138 128 119 110 111 102 93 98 96 87 71 69 69 87 109 111 92 71 74 93 108 116 119 139 150 154 158 162 159 156 152 155 156 152 156 153 148 145 140 142 137 137 133 122 119 106 94 87 67 54 24 3 0 0 0 0 0 3 1 3 0 0 1 8 30 46 65 72 85 93 108 114 120 125 125 127 134 138 142 148 156 156 155 159 163 163 165 170 170 167 164 158 148 136 120 99 89 82 78 89 99 112 110 106 112 118 120 108 99 68 60 71 86 87 101 144 151 157 157 163 163 157 154 156 158 157 157 153 148 144 144 143 138 135 135 122 113 102 90 82 63 41 19 2 1 0 0 0 0 2 0 3 0 0 0 5 27 47 68 66 74 91 109 114 117 122 125 127 133 137 147 156 159 159 161 160 164 167 170 169 166 164 164 156 150 142 111 79 61 59 64 77 88 117 111 117 128 120 109 102 86 63 58 55 59 63 81 120 133 150 155 159 160 163 159 156 159 157 156 155 149 147 147 142 139 134 133 124 108 94 92 79 57 34 19 0 0 0 0 0 0 2 0 4 2 0 0 8 23 54 63 58 71 83 97 108 117 121 123 125 134 139 145 152 157 162 161 162 167 170 167 167 164 150 147 140 128 115 85 56 59 53 50 60 78 80 66 99 116 126 105 90 79 68 60 52 57 55 65 83 113 126 144 143 153 160 162 158 158 158 157 159 153 150 148 144 140 137 127 113 103 91 88 75 48 31 15 0 0 1 1 1 1 1 0 4 3 0 0 4 15 41 53 62 74 83 89 97 113 122 121 128 134 141 147 154 156 156 156 164 169 159 158 157 141 128 129 112 91 89 64 54 56 55 62 66 66 52 71 100 110 119 111 105 90 82 64 53 62 58 50 67 87 103 133 129 138 152 153 158 158 160 160 162 156 154 152 142 138 135 132 109 90 86 86 71 46 28 10 1 1 0 0 0 0 0 0 3 2 0 0 0 8 26 46 71 72 79 92 92 108 115 120 125 133 138 145 152 154 155 157 163 153 139 147 120 114 110 102 82 77 73 61 52 59 60 64 58 70 96 112 105 115 124 113 129 142 117 79 58 57 53 50 60 82 85 107 120 121 132 141 151 157 158 161 160 157 154 149 140 136 137 125 104 76 72 84 63 48 23 9 5 0 0 0 0 0 0 0 2 2 0 0 0 7 23 45 64 77 75 84 85 97 99 107 119 133 139 145 148 152 154 156 150 123 134 121 101 83 79 83 68 67 68 69 57 62 67 50 75 131 158 153 150 148 146 151 161 163 139 103 84 70 55 55 68 81 79 87 100 111 115 121 142 154 157 162 159 158 153 147 143 137 124 106 84 71 64 78 64 39 19 13 9 0 0 0 0 0 0 1 6 4 1 0 0 6 25 37 52 81 75 70 83 75 88 104 123 131 138 145 146 151 154 150 136 120 115 100 73 68 70 88 79 70 72 82 77 93 106 98 121 132 136 143 155 166 159 145 135 126 115 118 118 100 82 84 86 91 89 90 87 97 108 108 115 139 158 162 162 160 154 145 135 131 121 104 77 76 73 69 50 33 20 8 4 0 0 0 0 0 0 1 13 3 0 0 0 1 11 27 50 75 73 73 80 63 78 98 115 122 136 144 144 147 148 141 129 104 90 78 63 63 76 86 86 73 78 102 111 116 119 121 123 130 125 120 130 138 134 109 110 115 126 124 123 117 108 100 105 106 88 80 75 79 91 97 107 111 148 164 165 161 154 145 129 116 114 109 70 62 76 67 48 28 13 2 0 0 0 0 0 0 0 9 15 1 0 0 0 0 5 20 45 63 69 71 61 56 69 89 111 114 128 133 143 145 146 135 101 61 73 65 60 64 77 94 99 88 93 102 102 107 110 119 113 119 123 117 115 117 124 101 103 107 113 112 112 108 99 93 97 104 96 81 81 69 73 91 109 90 112 149 160 160 152 145 131 113 85 95 67 56 67 56 38 20 6 0 1 0 0 1 1 0 0 17 17 1 0 0 0 2 7 12 38 56 61 69 57 53 55 75 102 110 115 131 137 141 133 106 72 58 66 68 69 71 93 107 106 94 85 80 84 90 84 90 96 101 100 100 101 112 117 104 87 75 77 71 63 64 74 76 78 88 107 104 93 70 69 90 90 79 86 118 161 160 151 136 121 114 87 86 59 48 53 52 31 11 0 1 0 0 3 1 0 0 4 25 12 1 0 0 0 1 4 5 35 48 52 57 57 52 51 56 73 90 120 134 127 132 116 95 72 62 64 75 80 87 87 80 74 56 52 57 55 55 46 47 60 61 63 71 72 72 71 70 66 62 65 65 60 61 65 55 49 54 79 97 105 96 70 82 99 83 76 102 147 153 146 131 115 102 83 75 56 41 41 41 29 9 2 1 0 0 1 0 0 0 15 30 9 3 1 0 0 0 1 5 20 32 44 51 50 50 44 55 67 92 112 124 131 124 108 92 72 68 70 87 93 96 64 55 52 59 69 81 91 94 100 113 119 112 111 113 113 109 107 115 122 134 132 128 124 113 108 97 74 56 49 59 88 112 93 81 107 103 80 85 121 134 130 119 107 99 66 65 59 26 34 27 18 10 5 2 0 0 0 0 0 0 24 21 5 2 3 0 0 0 0 3 12 25 31 38 44 42 46 49 56 96 97 115 121 124 105 91 90 87 99 113 132 135 120 123 107 94 96 104 113 119 126 136 141 142 143 148 151 144 145 149 149 148 143 135 135 121 116 116 110 106 113 115 104 112 106 94 105 111 91 77 105 139 124 107 96 78 64 72 49 23 21 19 10 7 5 5 4 1 1 0 0 0 26 16 4 3 3 0 0 0 0 1 8 18 25 30 45 42 39 47 53 78 83 100 122 136 107 107 97 93 130 148 162 159 151 144 134 123 115 113 116 120 130 142 148 153 157 155 156 151 153 154 154 154 150 137 132 124 123 127 134 140 146 145 148 150 136 117 102 95 99 88 80 124 119 101 85 72 64 61 43 22 21 13 7 3 0 4 4 1 0 0 0 0 19 10 7 1 0 0 0 0 0 1 4 10 24 31 37 44 35 48 61 58 71 91 113 121 111 101 83 107 141 159 168 165 159 152 145 144 136 126 124 121 131 138 138 147 151 155 154 157 154 154 154 149 138 130 133 135 137 137 146 152 149 148 151 163 162 146 136 117 109 114 106 87 98 90 74 61 54 49 45 24 18 9 5 3 1 1 1 1 0 0 0 0 13 8 8 1 0 0 0 0 0 2 4 8 24 23 26 41 41 61 60 52 64 81 89 100 112 113 122 141 156 166 172 172 165 153 144 145 145 135 133 135 138 144 145 142 143 147 151 155 153 149 147 144 138 138 144 140 134 139 146 148 150 155 161 168 171 161 152 141 121 115 113 109 88 67 65 52 44 41 28 25 12 6 1 2 0 0 0 3 1 0 0 0 7 7 13 3 0 0 0 0 2 13 14 5 17 21 25 33 49 62 52 43 57 61 72 100 124 125 141 146 154 163 173 174 168 155 148 145 147 142 137 137 138 141 136 137 139 140 137 139 138 138 138 138 135 133 134 137 136 140 140 146 157 162 170 173 169 165 155 155 143 124 114 107 87 60 56 40 43 32 19 15 10 4 0 0 0 0 7 11 3 0 0 0 6 5 8 2 0 0 0 0 0 18 23 1 6 9 19 29 39 49 50 37 46 48 63 100 107 121 147 153 157 160 166 170 168 163 156 152 148 143 133 128 130 135 129 124 123 120 120 121 119 118 118 124 128 130 134 140 140 144 148 160 167 171 171 171 164 159 156 156 149 117 102 90 65 53 57 35 32 20 13 10 5 2 1 0 0 2 9 7 5 0 0 0 4 3 4 1 0 0 0 0 0 0 1 1 4 8 15 20 27 39 35 38 39 38 52 78 106 130 144 148 157 162 162 163 166 164 159 155 155 151 139 129 122 117 117 115 117 110 106 115 110 112 115 121 126 128 136 139 147 156 164 170 172 170 169 165 159 159 158 150 148 122 94 80 45 47 45 31 23 10 7 9 5 1 1 0 1 7 9 5 2 0 1 0 2 2 3 0 0 0 1 3 6 0 0 0 3 7 12 18 29 36 29 33 34 39 54 73 103 130 141 142 152 161 161 162 162 163 163 159 157 158 148 135 128 127 126 131 122 111 106 111 109 122 131 129 137 137 142 150 159 166 169 170 171 168 169 164 159 159 158 146 138 129 96 66 46 41 32 24 16 9 6 10 5 0 0 0 6 16 7 0 0 0 0 0 5 1 2 2 0 0 3 8 11 0 0 0 1 5 9 14 20 23 31 32 35 34 44 66 95 115 131 139 141 159 161 164 161 164 163 159 160 159 153 151 149 146 144 138 126 111 126 113 125 129 136 144 145 152 151 159 167 170 170 170 169 169 167 162 156 148 144 138 131 118 91 53 46 28 27 19 11 8 5 11 3 0 0 2 8 5 1 0 0 0 0 2 5 3 3 4 1 0 0 0 0 0 0 0 0 6 10 5 13 20 20 24 34 28 40 56 73 91 114 135 142 151 157 163 163 166 164 162 158 158 159 157 160 160 147 144 136 141 144 136 144 153 139 150 163 166 164 167 170 171 172 172 171 168 168 165 152 146 126 111 98 91 79 57 41 32 22 18 9 12 18 19 1 0 0 3 2 1 0 0 0 0 0 1 2 2 1 1 2 0 0 0 9 31 0 0 0 3 23 11 4 9 18 22 26 31 40 43 65 93 102 113 141 146 148 154 164 167 167 165 163 162 165 163 164 168 166 164 157 164 154 163 159 168 169 160 172 171 174 178 172 169 173 174 173 169 164 159 156 125 113 109 80 67 56 46 34 24 13 14 7 18 37 33 3 0 0 3 1 1 0 0 0 0 0 1 1 0 0 0 0 0 0 0 38 59 0 0 0 0 33 36 7 4 13 16 24 28 34 38 54 69 76 104 138 133 146 157 164 166 170 169 168 169 170 169 172 173 175 172 173 165 161 179 173 167 170 171 179 179 181 183 178 173 175 176 173 169 163 152 146 110 99 92 64 47 36 27 25 14 7 8 14 32 48 47 7 0 1 5 1 1 0 0 0 1 5 1 14 8 2 0 0 0 0 1 10 9 0 0 0 0 24 51 40 4 3 15 22 23 26 31 37 51 74 101 113 129 148 153 159 166 170 173 172 171 174 173 174 175 172 174 175 166 171 175 172 177 180 177 179 180 183 183 181 178 176 175 173 167 163 155 133 106 80 70 61 36 21 20 16 7 6 12 32 59 68 53 9 0 4 9 3 0 0 1 1 5 4 2 18 19 12 4 0 0 0 0 0 0 0 1 0 0 18 53 56 24 4 9 14 16 25 24 33 46 65 79 103 126 135 142 150 158 163 170 172 177 176 175 172 175 174 171 172 169 174 155 166 175 180 172 176 181 181 181 177 177 175 171 166 162 155 142 115 83 51 49 46 31 16 10 8 7 11 33 49 71 75 57 14 0 8 15 4 6 2 4 3 4 1 1 5 6 4 1 0 0 0 0 0 0 0 0 0 0 11 52 63 65 42 16 8 17 23 21 25 39 45 54 83 96 108 120 131 152 146 161 175 173 174 177 176 177 176 154 156 159 161 161 165 158 170 171 173 174 179 180 173 171 163 158 160 152 142 129 94 76 54 32 31 17 13 8 6 6 21 56 74 79 71 58 20 0 9 13 2 21 12 2 4 2 1 0 1 1 0 0 0 1 0 2 0 0 0 0 0 0 4 45 59 69 59 40 13 11 14 14 14 24 32 36 50 72 91 90 99 120 134 159 164 166 166 168 166 173 171 139 149 136 140 152 154 151 150 161 172 166 158 166 170 169 159 133 134 141 119 103 87 61 44 28 16 12 7 7 8 25 46 71 86 91 76 66 25 0 8 14 3 12 12 5 9 1 0 0 0 0 0 0 0 0 0 2 0 2 2 0 0 0 0 33 47 60 63 36 21 10 11 10 14 17 21 22 31 49 47 62 78 95 130 135 129 145 143 145 146 161 147 131 140 124 120 128 147 143 137 144 156 139 132 139 146 146 148 131 113 105 96 78 64 56 36 20 13 12 7 6 19 58 75 81 95 98 78 70 28 0 6 15 1 4 18 11 3 2 1 0 0 0 0 0 0 0 0 0 0 4 3 0 0 0 0 18 41 68 76 57 41 21 6 8 7 11 16 15 18 31 35 41 57 72 96 89 92 113 117 117 121 133 120 135 116 117 99 125 130 131 106 130 143 113 122 114 114 116 110 110 113 95 73 58 37 25 22 13 9 9 6 12 62 85 95 96 96 94 75 67 26 0 2 9 5 4 17 7 11 6 1 1 1 0 0 0 1 1 0 1 0 0 0 0 0 0 0 5 44 69 82 77 51 29 10 10 4 7 10 10 13 22 30 36 46 48 58 71 72 69 89 94 100 110 109 116 115 103 81 115 125 115 107 123 132 106 96 94 84 76 78 72 88 79 55 40 23 17 9 5 4 2 20 52 77 91 111 99 94 93 77 65 28 0 1 7 10 3 1 0 7 5 2 0 0 1 1 3 6 3 3 2 0 0 0 0 1 0 12 45 41 60 74 77 72 46 26 11 10 9 6 6 10 17 23 31 28 39 49 59 57 51 70 68 82 88 89 88 83 106 109 107 111 90 82 120 130 90 77 66 67 56 45 54 63 52 29 18 13 12 4 3 5 8 43 70 87 105 113 102 96 92 81 72 39 1 0 5 11 9 0 0 1 3 6 3 0 7 6 5 7 2 0 0 0 0 0 1 17 10 29 66 36 64 75 79 81 69 49 24 12 7 4 5 6 9 16 22 23 35 41 44 36 36 52 61 74 72 66 78 78 99 105 92 86 71 57 102 105 68 60 51 46 51 36 40 39 34 24 13 4 7 7 3 13 30 50 83 105 109 106 102 97 94 80 73 49 3 1 2 6 11 6 0 1 4 10 11 2 2 2 4 3 0 0 0 0 0 0 3 10 5 3 0 41 69 79 85 72 74 74 38 15 9 5 6 7 6 7 16 11 22 32 29 31 21 34 55 64 57 61 66 69 87 83 75 74 62 69 76 80 58 45 42 42 40 21 24 24 24 14 10 6 6 7 5 29 54 63 102 105 105 111 106 98 95 82 72 49 5 0 1 7 8 7 3 4 4 5 27 2 2 4 5 3 3 0 0 0 0 0 1 1 0 0 0 46 69 73 83 80 75 75 53 30 17 5 4 7 7 6 6 5 15 29 27 28 28 33 36 52 45 55 50 52 61 64 68 67 65 75 63 53 39 27 29 42 29 20 15 12 11 8 4 6 5 6 15 43 60 84 95 102 107 110 106 99 96 82 72 45 4 0 1 4 3 3 7 10 9 7 6 1 3 13 13 6 1 0 0 0 0 0 0 0 0 0 0 40 71 75 85 90 69 60 66 51 30 9 3 11 12 10 5 5 6 15 19 22 23 15 20 32 32 42 40 40 42 49 56 49 50 47 48 35 24 24 28 23 18 17 10 7 5 9 9 6 5 12 34 63 81 86 109 116 115 110 109 102 94 84 75 51 7 0 0 1 2 4 4 6 6 5 3 1 4 5 2 2 0 0 1 1 0 0 0 1 0 0 0 32 69 75 83 88 78 68 58 56 39 19 7 4 8 8 6 7 6 7 6 11 11 13 13 17 18 29 27 28 33 42 40 30 35 27 27 14 20 21 20 15 10 8 6 5 7 7 8 9 5 18 59 82 91 101 119 118 112 113 113 100 93 91 81 55 11 0 0 3 4 5 5 4 4 1 2 0 0 0 1 0 0 0 3 6 0 0 0 0 1 0 0 23 66 79 82 90 91 80 69 67 53 33 22 10 6 7 4 5 5 7 6 8 12 10 7 10 13 16 16 17 23 20 25 19 18 16 11 9 12 12 11 12 9 4 4 10 6 6 4 6 12 35 89 103 91 104 113 111 112 111 116 109 97 95 85 55 12 0 1 3 5 6 8 5 1 0 0 0 0 1 0 0 0 0 0 2 0 0 0 0 0 0 0 16 62 83 86 92 94 93 81 78 67 54 48 32 18 9 4 6 6 9 9 9 4 7 9 7 11 10 9 10 14 10 11 15 12 10 10 12 9 9 11 8 8 2 13 22 4 6 5 12 27 65 109 115 110 93 109 117 108 111 117 113 102 99 90 59 18 0 2 3 5 3 4 2 0 0 0 0 2 3 0 0 0 0 0 2 1 0 0 1 0 0 0 12 56 81 89 92 98 99 89 78 86 66 57 56 41 22 12 6 6 7 6 6 5 7 8 6 6 5 6 7 9 8 9 11 9 10 12 13 11 12 7 7 6 6 16 9 8 13 17 16 34 75 101 122 126 102 102 113 109 118 116 111 107 100 91 62 20 0 0 0 1 1 1 0 0 0 0
