P2
# Generated by OpenCV 4.2.0
92 112
255
18 24 28 30 52 61 54 55 69 62 64 46 30 34 36 14 17 17 22 121 1 51 47 26 19 17 18 16 12 47 38 80 97 23 42 40 47 53 58 62 66 77 84 94 77 65 69 76 74 80 95 118 138 131 140 151 187 162 155 172 186 158 174 160 172 159 159 154 149 141 128 110 96 98 82 81 79 67 52 52 51 29 45 43 28 36 37 36 26 23 32 28 19 28 38 36 44 47 52 51 50 59 68 67 66 52 37 15 15 10 15 84 17 31 27 23 16 18 16 17 34 37 28 58 77 35 38 53 60 69 76 79 85 89 103 100 100 99 97 98 101 99 99 112 134 141 135 151 179 166 168 180 208 188 191 187 193 177 190 177 171 166 151 141 124 111 102 92 91 87 75 67 61 49 42 51 31 27 30 30 31 27 25 23 17 27 39 46 42 42 48 41 40 58 49 49 55 43 34 14 12 9 20 50 24 17 21 14 12 11 21 37 38 31 19 49 50 41 39 48 54 79 106 131 122 121 123 126 123 135 130 121 125 114 116 113 98 126 150 166 151 159 184 196 207 208 201 205 205 202 201 205 191 188 173 164 146 141 133 122 116 110 98 83 67 72 42 57 56 32 18 16 16 18 19 19 20 20 21 34 35 32 29 27 34 41 45 49 54 47 32 26 15 13 23 39 17 15 16 13 16 24 31 42 31 27 30 44 39 44 56 74 76 94 116 124 133 158 180 170 163 159 164 153 126 133 128 112 129 128 131 143 151 151 183 203 214 219 217 218 217 216 216 215 210 203 192 190 174 163 153 141 133 129 120 97 85 67 73 58 54 43 18 17 13 13 22 19 20 25 21 26 26 22 17 18 20 28 37 45 55 70 64 40 19 13 11 19 18 14 15 14 20 25 31 28 22 29 36 39 40 55 80 98 110 120 137 160 173 197 215 214 209 205 197 194 168 148 148 141 144 144 138 151 136 174 188 197 217 223 223 223 222 223 222 221 219 217 209 203 194 178 174 163 151 140 139 121 101 78 78 66 55 43 18 14 18 18 19 22 22 16 23 17 13 9 12 13 28 43 51 66 77 61 42 43 31 27 17 21 12 13 13 16 20 22 33 24 26 39 60 37 57 101 117 130 147 142 180 192 205 213 221 227 227 228 227 220 209 201 194 182 173 144 143 161 182 193 171 213 219 226 223 226 225 223 225 222 224 220 217 213 210 197 181 175 167 159 153 144 118 97 71 64 31 36 31 22 15 17 19 28 24 17 18 15 10 7 18 29 37 47 61 58 46 40 33 43 38 28 18 20 11 15 14 15 16 22 21 17 36 53 69 19 94 133 147 160 178 191 203 215 224 226 232 235 235 235 236 232 225 221 213 211 201 192 181 180 173 196 207 220 224 227 227 226 228 226 227 226 226 224 222 220 212 205 188 181 173 163 159 158 144 108 84 58 39 17 19 22 20 20 25 32 22 17 15 11 8 9 16 18 27 40 34 30 29 27 41 53 35 24 18 20 17 13 14 13 15 17 21 33 51 59 70 32 140 159 168 184 199 211 219 229 232 235 236 236 238 238 238 236 234 230 225 224 216 209 203 201 190 201 219 224 228 225 228 229 229 227 227 227 226 225 221 218 215 209 197 190 183 174 166 166 164 127 90 60 50 30 15 13 22 26 23 27 21 16 15 12 7 10 17 19 27 23 18 22 30 41 47 42 20 19 22 17 21 16 16 17 17 22 29 51 64 96 40 110 166 180 191 198 207 216 224 233 233 235 238 233 237 239 237 238 236 233 233 232 226 222 215 214 208 212 220 230 226 230 227 227 230 227 227 227 227 227 222 221 217 210 202 194 190 183 178 174 173 148 104 66 54 37 17 11 13 18 18 22 31 25 27 15 8 10 15 16 18 20 17 26 28 33 33 21 17 15 28 18 20 21 18 18 25 40 56 72 97 69 81 166 183 192 198 209 213 218 223 231 235 236 237 238 239 238 237 239 235 235 237 235 233 234 230 225 222 220 224 228 230 228 227 227 228 226 225 226 224 223 223 220 218 214 202 194 193 189 184 180 177 163 128 84 56 45 24 10 10 14 21 21 28 38 25 19 12 11 17 16 16 17 24 25 32 32 21 14 15 17 31 20 20 23 37 35 49 65 74 82 53 80 155 183 193 202 201 208 214 221 225 230 235 236 236 239 237 237 237 238 237 237 237 236 234 232 232 233 231 228 230 230 229 227 227 227 226 225 226 224 224 223 221 223 218 212 205 197 195 190 186 182 177 168 147 102 66 49 34 15 9 11 14 18 19 18 19 16 14 15 16 15 14 18 21 24 23 20 16 11 11 16 29 32 17 17 22 56 69 75 74 75 128 167 184 188 193 197 204 211 215 219 226 228 233 235 237 238 237 237 237 236 238 236 235 235 237 236 235 235 232 234 234 230 232 229 227 228 226 226 225 226 224 223 223 222 215 211 207 201 198 193 189 188 182 171 153 127 67 51 62 15 9 12 20 26 22 18 20 13 13 9 11 13 13 17 23 19 16 13 15 13 14 15 24 29 18 24 25 55 80 107 125 140 160 175 187 192 197 198 204 210 215 219 224 228 232 235 235 237 237 237 237 237 236 236 236 236 236 235 234 235 234 232 231 232 230 231 228 227 226 226 225 225 223 224 221 216 215 210 205 201 196 191 189 189 179 172 159 129 84 45 47 23 10 16 19 17 23 19 19 11 10 11 11 15 18 21 18 14 16 17 18 10 16 17 28 30 11 45 49 61 97 128 136 158 170 183 191 195 195 196 204 211 215 218 223 228 229 232 234 234 234 234 234 235 235 235 235 234 234 234 233 232 232 231 231 232 233 231 228 227 226 223 223 223 225 224 220 217 215 208 203 199 195 190 189 187 184 174 166 147 98 54 34 44 14 12 9 12 20 16 13 11 10 12 13 16 15 24 41 44 38 34 16 15 20 20 29 27 14 48 44 72 105 134 145 163 178 186 191 196 198 203 204 211 215 217 221 226 227 230 232 232 232 233 233 234 234 234 233 234 233 236 232 230 232 231 232 231 231 227 225 223 222 221 219 219 221 221 218 215 213 207 200 196 193 191 190 187 190 176 170 153 114 64 33 31 21 10 12 14 17 13 9 10 11 10 13 13 18 23 32 24 23 30 25 20 16 23 27 25 16 62 29 93 123 149 162 173 181 188 194 193 205 209 208 209 215 218 218 222 225 226 229 228 231 233 231 234 233 230 233 233 232 232 230 229 229 228 227 230 227 224 222 224 223 221 220 219 218 219 215 211 209 203 193 189 190 189 190 190 188 183 171 158 127 79 45 22 18 7 10 12 12 10 10 8 10 7 11 11 14 17 20 20 14 13 17 19 13 19 29 31 16 40 51 105 134 158 166 176 187 195 198 196 202 208 209 210 215 214 218 222 222 226 227 226 228 232 231 231 230 230 230 227 227 228 228 226 227 230 230 230 226 227 223 223 221 222 221 221 219 219 213 209 205 198 193 189 189 190 188 188 189 185 175 165 135 91 54 30 11 14 12 11 13 11 12 13 12 9 11 12 15 16 17 15 16 13 17 16 16 20 31 40 17 41 75 114 142 164 167 181 187 200 200 204 205 207 208 210 212 212 215 219 222 224 226 225 226 228 231 230 230 230 230 231 231 231 231 230 232 230 230 229 225 222 220 219 220 220 220 221 217 215 210 207 203 197 191 186 186 189 192 193 193 187 177 168 137 92 55 36 15 14 13 15 25 19 14 17 19 26 10 16 18 20 20 20 17 15 17 15 20 22 37 39 21 60 83 117 151 171 179 187 194 194 207 209 208 210 209 211 211 214 216 214 215 221 226 228 227 229 230 230 229 229 229 230 229 227 229 228 226 229 226 223 221 218 219 219 219 220 218 218 218 219 215 212 201 199 194 190 192 195 194 195 193 186 179 175 147 100 51 41 19 14 12 13 35 24 15 17 16 22 34 35 30 27 27 24 28 22 23 21 23 25 32 37 36 68 90 122 154 175 186 191 197 198 203 211 212 213 214 215 217 213 211 214 216 220 222 225 225 227 227 230 227 229 230 230 230 228 227 227 227 225 223 219 220 221 217 218 221 219 220 221 218 216 214 210 206 201 195 191 194 197 197 199 196 187 180 172 151 105 62 43 25 14 16 15 26 21 13 21 19 18 21 29 42 40 38 35 34 34 33 25 23 25 23 38 49 75 102 133 163 178 189 193 199 204 203 209 213 212 213 212 213 213 215 217 217 217 217 220 219 225 226 228 230 229 230 229 229 227 226 226 226 222 221 216 217 216 211 212 219 221 222 221 217 216 214 210 205 201 198 194 196 195 196 196 192 189 184 176 157 112 75 52 31 17 9 11 15 26 18 6 19 29 30 30 22 23 22 27 26 22 19 19 22 27 38 39 62 86 111 143 170 182 187 195 200 205 208 210 214 214 216 213 211 212 215 217 216 214 215 219 222 224 223 228 230 230 230 230 228 229 227 228 225 222 218 217 214 213 217 220 222 221 221 221 220 219 215 210 206 201 199 197 197 196 197 196 194 188 182 176 161 117 77 44 44 19 15 14 45 13 22 18 6 9 27 32 24 19 15 18 20 16 15 15 23 31 40 48 72 90 115 149 174 185 189 196 201 207 209 213 217 218 216 216 214 214 214 213 217 220 221 224 222 227 229 231 229 229 230 229 228 230 230 230 228 224 221 218 217 222 220 224 222 223 222 220 219 219 215 213 210 205 199 200 200 199 198 196 193 187 185 175 161 133 79 46 38 25 19 14 42 11 11 20 19 13 17 21 29 25 21 19 18 14 14 15 24 35 40 58 74 91 119 152 178 191 193 197 201 207 210 212 216 216 220 220 220 218 219 221 218 222 222 223 219 224 226 229 229 230 229 228 228 229 229 230 228 225 223 220 221 226 225 227 225 225 223 223 222 219 215 218 213 208 205 202 200 200 199 196 193 188 185 174 161 138 84 41 30 30 17 11 31 8 9 12 17 19 22 24 27 24 18 15 14 13 13 21 28 36 46 63 75 93 125 156 178 189 189 195 201 207 211 213 216 218 221 222 223 222 220 220 222 220 222 223 223 224 226 227 227 227 229 229 230 231 231 229 230 227 226 224 227 228 227 229 229 228 229 229 228 224 222 219 214 211 202 203 202 200 195 194 192 189 182 176 158 134 97 39 28 26 23 10 17 13 11 16 13 14 15 23 28 18 14 13 10 17 17 22 25 39 58 65 79 100 135 162 179 188 194 200 204 204 209 214 218 220 223 223 222 226 224 222 226 223 223 225 225 225 225 227 231 233 233 233 232 234 232 232 231 228 227 226 227 229 229 228 230 231 231 231 227 229 224 223 217 215 211 209 205 203 199 198 194 191 183 175 160 133 98 35 30 27 19 10 23 13 12 12 14 17 16 16 13 12 10 11 9 10 10 16 27 38 56 68 82 112 141 161 178 186 192 199 202 206 209 213 218 222 223 224 223 226 225 225 225 225 224 225 226 226 230 230 231 232 233 232 232 234 232 232 232 229 227 228 228 230 231 231 229 231 232 231 229 227 225 221 215 212 211 208 203 201 197 199 193 188 182 173 156 143 105 30 29 28 14 9 42 26 13 12 14 15 17 17 12 14 11 7 6 4 8 21 25 43 55 67 87 116 141 161 181 188 193 200 203 207 206 212 215 220 223 224 226 226 225 226 224 228 230 226 227 227 229 230 230 232 235 235 232 233 231 233 230 228 226 226 229 231 232 231 229 229 231 231 230 228 225 223 216 214 204 205 205 200 198 198 194 187 181 171 152 149 121 24 22 24 11 9 11 16 22 19 19 20 18 12 12 13 12 8 5 5 11 17 29 43 57 76 98 122 145 165 182 185 188 199 203 208 209 216 218 222 223 223 224 226 226 226 228 229 228 228 227 224 226 230 233 232 233 236 234 231 229 229 228 226 225 224 227 229 230 231 229 228 230 230 229 227 226 223 217 210 202 202 203 201 197 197 191 186 181 170 155 141 127 11 23 23 10 7 20 37 19 16 13 10 10 9 13 18 17 8 5 6 14 21 34 49 64 92 111 137 151 165 180 188 193 196 202 207 213 216 217 222 224 225 227 226 226 226 230 227 226 227 226 222 223 225 229 232 232 234 231 227 225 225 226 224 223 220 225 227 229 230 229 227 226 226 228 228 225 220 214 206 200 200 203 202 202 200 196 188 183 173 160 142 134 6 22 17 11 7 9 129 16 24 15 7 7 6 13 21 22 12 6 6 15 27 43 62 83 101 120 137 153 167 174 186 193 194 205 208 210 214 214 219 224 222 225 225 226 225 228 225 225 225 225 222 220 222 228 230 229 231 228 224 219 219 219 219 218 221 224 228 227 227 224 223 225 226 227 227 225 218 211 202 198 199 202 199 198 199 196 191 186 177 165 144 135 6 17 15 7 8 28 100 20 20 14 9 6 6 12 21 25 16 7 7 13 35 56 78 96 114 126 141 160 167 169 181 187 191 198 205 211 216 217 222 224 225 226 229 228 229 229 228 227 226 224 219 215 217 223 225 226 225 223 222 217 216 216 214 214 217 220 220 223 222 221 220 220 222 222 222 221 216 210 200 200 200 204 208 204 202 199 192 186 179 173 152 155 5 13 13 8 6 32 39 29 26 13 11 8 7 14 14 36 17 11 12 17 44 66 86 109 126 133 143 159 167 166 176 185 189 198 204 211 215 220 226 225 227 227 228 227 228 229 230 228 226 222 219 214 212 219 225 222 219 218 218 217 216 216 214 212 213 216 218 215 214 213 213 215 214 215 216 216 212 211 208 209 208 211 212 208 201 197 183 177 180 170 153 147 12 21 8 7 8 30 36 34 31 13 11 10 8 16 12 42 17 12 16 26 54 72 97 110 133 141 147 162 169 173 178 187 190 199 208 212 219 223 225 227 228 229 229 227 229 228 228 226 227 224 223 225 217 215 219 221 217 213 212 210 212 212 211 207 209 213 214 210 207 209 206 209 208 203 206 207 200 204 208 208 210 209 207 199 187 176 157 138 143 147 151 162 11 19 16 11 12 22 44 37 38 16 8 14 11 14 19 50 16 12 20 34 64 85 105 122 137 155 159 163 173 176 181 187 196 206 212 211 219 223 223 226 227 228 229 228 230 230 228 229 231 233 233 229 229 220 213 213 203 205 206 205 211 208 209 205 208 208 211 208 203 201 206 203 198 200 194 184 192 193 186 198 183 183 190 166 152 138 119 123 125 117 138 164 35 20 16 14 17 26 45 39 45 21 8 11 14 19 13 62 5 20 27 47 73 94 109 124 139 153 162 165 169 175 184 190 195 200 208 210 215 220 216 221 222 220 224 225 226 225 229 230 229 229 229 224 231 207 209 192 190 196 196 193 195 202 205 205 207 208 207 203 198 198 199 196 190 186 166 151 176 155 153 132 130 129 134 122 110 101 99 98 92 93 112 148 36 62 6 10 19 37 39 26 38 18 9 10 23 21 23 44 16 32 42 61 82 108 122 131 147 150 165 166 165 173 180 188 195 193 202 203 202 203 203 201 202 204 205 207 208 210 205 209 208 203 200 196 177 189 177 176 172 179 178 178 186 193 195 202 203 200 198 194 190 187 189 188 177 162 141 116 145 127 111 93 92 87 82 69 67 74 79 73 65 67 109 139 42 115 0 10 32 42 39 24 23 19 16 13 25 21 29 35 24 31 51 70 90 119 132 140 150 154 159 172 169 173 181 187 187 179 179 174 175 165 171 175 177 178 173 162 162 168 163 146 142 147 141 148 119 142 159 144 160 161 152 170 171 181 185 195 196 196 187 185 179 180 177 175 159 140 111 104 108 88 73 73 64 68 60 52 48 54 64 61 63 82 102 149 47 99 13 12 38 42 36 34 16 21 28 25 25 31 39 24 23 31 52 73 96 124 140 143 152 158 161 168 171 172 173 180 180 169 158 150 141 133 114 111 117 124 114 105 100 98 102 99 92 75 99 98 112 102 119 148 137 138 126 150 165 169 176 188 192 191 179 173 171 164 161 152 140 129 109 85 89 71 63 57 52 58 56 52 59 71 73 75 82 99 106 145 45 54 16 28 26 34 39 30 17 18 19 29 39 34 37 30 23 33 53 79 98 124 138 143 153 159 168 167 170 173 168 165 160 157 147 130 116 101 93 85 80 80 87 90 83 75 61 63 65 67 72 95 85 109 111 122 107 121 128 138 141 154 165 177 186 179 170 151 151 144 141 127 123 105 98 88 85 75 69 68 72 71 69 70 70 74 84 89 92 95 117 161 54 39 14 35 61 33 36 26 18 23 20 21 30 32 27 28 31 29 53 87 106 129 142 147 154 161 165 163 169 171 157 152 144 139 128 113 105 95 93 87 97 85 78 78 83 83 83 81 95 95 97 100 108 108 110 111 109 109 112 120 131 142 155 169 173 172 160 144 133 124 124 115 104 90 86 71 58 50 38 36 28 36 26 35 45 52 66 81 89 101 117 146 60 22 17 42 70 31 31 22 21 22 29 34 34 23 25 33 37 33 54 96 117 131 141 151 156 161 163 163 166 162 150 149 135 132 122 117 113 111 115 114 108 107 106 102 104 105 106 106 104 104 98 95 102 104 108 108 112 108 112 121 126 134 148 162 168 167 160 139 121 112 106 102 88 68 53 46 48 44 21 18 40 11 15 31 23 43 54 66 92 108 123 157 58 26 31 33 60 32 27 22 20 24 47 41 27 20 22 38 33 34 56 95 120 134 147 150 157 163 163 164 166 154 146 140 135 132 125 125 121 120 118 117 107 108 100 91 92 68 58 45 35 33 46 41 45 64 79 94 103 111 112 117 119 132 150 162 169 169 165 140 110 98 91 73 58 47 50 53 56 39 26 26 36 25 21 48 32 29 46 70 88 112 126 152 31 27 55 21 21 31 20 18 33 46 44 31 25 32 32 31 24 36 65 95 124 135 144 157 158 165 164 164 165 156 146 137 130 120 117 118 113 106 100 86 71 56 44 30 18 11 22 20 19 20 37 39 53 52 63 58 69 88 96 105 119 134 152 171 176 179 175 149 109 82 68 63 58 60 54 77 82 60 38 33 23 25 27 58 59 54 51 64 109 122 140 151 14 34 18 27 26 25 16 40 52 48 36 31 35 36 38 25 21 39 56 94 125 138 148 160 164 171 173 167 164 156 144 130 119 107 108 98 85 67 59 50 41 37 60 53 32 72 27 29 43 22 59 46 43 62 67 70 73 80 88 100 116 143 168 185 198 200 189 173 117 79 72 69 65 68 70 108 108 89 38 40 34 34 32 75 66 68 85 98 119 138 142 155 51 51 68 14 66 26 34 43 41 38 44 43 32 33 38 16 24 53 48 106 127 140 153 164 167 175 177 175 172 164 148 136 120 112 101 88 71 66 43 43 57 83 101 110 41 49 36 28 31 38 60 80 49 50 71 76 85 86 90 104 126 157 185 202 208 212 204 191 124 81 82 82 59 69 67 98 108 111 52 45 34 34 79 104 90 84 105 116 131 144 149 151 88 56 23 36 70 38 31 30 35 40 47 34 27 26 20 16 26 56 76 107 127 142 155 160 167 178 182 182 179 174 165 147 132 121 114 109 105 82 80 76 86 104 128 131 33 48 43 43 44 45 80 75 61 59 80 102 115 113 106 122 143 171 191 210 221 223 216 199 154 94 100 93 110 106 105 99 110 109 128 136 154 140 104 100 113 107 116 130 143 156 151 149 100 26 45 63 69 36 32 31 34 32 32 30 27 18 13 20 30 62 90 101 129 143 153 165 171 179 183 185 186 183 179 172 161 145 137 139 141 132 129 125 127 127 127 148 111 47 38 48 63 80 98 89 99 112 121 124 127 123 125 141 161 185 204 219 229 229 225 207 180 112 106 112 124 120 122 118 121 115 112 116 103 101 108 122 106 112 130 143 152 158 157 149 136 48 56 64 71 29 30 28 25 28 33 27 29 18 16 23 37 74 99 100 125 144 154 167 175 183 186 190 193 192 190 187 176 168 170 168 164 160 149 146 147 139 139 137 142 169 179 164 156 119 116 123 123 128 133 139 138 145 155 162 173 191 211 227 232 232 227 214 193 147 124 124 121 124 123 119 120 127 128 130 119 114 109 115 108 130 143 155 158 158 161 149 154 40 57 63 67 31 31 26 25 24 24 30 33 28 27 25 43 89 101 109 128 146 159 171 180 187 191 193 195 196 196 194 190 188 185 178 173 172 166 157 155 152 152 151 144 136 136 134 131 136 139 135 141 142 151 158 160 172 175 182 188 195 213 225 232 234 229 219 210 167 149 143 152 147 147 146 133 134 124 127 124 122 121 127 136 148 155 166 166 157 158 151 165 52 54 62 58 27 29 33 28 28 23 30 36 43 33 24 70 106 89 122 132 146 162 169 179 185 190 190 194 201 201 200 199 197 192 187 181 178 175 172 170 167 161 158 155 147 144 144 147 146 150 153 152 157 165 173 179 188 190 195 197 204 214 222 232 235 231 221 217 183 168 164 160 161 158 162 164 157 154 145 144 143 146 152 153 159 168 175 174 165 162 156 155 54 51 60 55 31 32 31 24 26 27 31 57 47 26 21 90 104 112 129 135 146 161 168 180 187 189 192 196 201 201 203 203 201 199 198 192 184 182 178 176 170 172 170 166 169 164 163 162 164 162 157 160 175 184 190 193 199 200 203 206 206 213 222 229 234 232 222 217 191 177 175 176 175 169 160 159 164 166 168 167 163 169 171 168 172 173 180 175 167 163 158 158 47 64 64 73 31 32 27 25 31 42 59 54 33 17 27 89 94 127 138 135 145 158 167 175 180 187 192 195 199 201 203 204 206 206 207 204 195 193 191 192 188 189 185 182 182 178 170 167 158 158 167 183 196 199 202 200 200 204 207 212 211 215 224 228 235 234 226 220 201 178 181 179 180 185 177 168 161 160 159 158 165 170 172 171 177 178 184 181 169 162 156 162 51 50 67 67 39 31 32 31 49 56 60 50 47 17 43 78 113 127 138 140 143 157 169 176 176 187 190 193 197 202 203 204 207 212 215 211 204 201 198 195 195 193 191 187 174 170 162 161 175 187 194 203 207 212 207 205 210 208 211 213 213 215 225 228 235 236 230 220 204 184 179 180 181 185 191 185 179 173 161 164 168 171 173 179 182 181 184 184 172 164 152 149 36 69 66 59 41 36 32 48 50 49 60 60 50 40 50 90 115 129 133 146 143 157 167 174 176 184 189 190 195 199 200 205 207 212 214 216 213 210 205 198 195 189 179 183 175 179 188 199 204 204 211 214 212 212 211 210 210 213 216 215 216 218 223 228 237 238 232 222 209 191 182 180 181 182 190 188 185 186 179 180 182 181 182 187 188 185 185 181 172 162 150 146 45 66 70 63 35 38 46 41 40 61 72 64 61 37 44 90 117 128 134 142 143 152 164 173 180 184 189 190 196 198 199 205 204 207 210 216 218 217 217 215 209 210 204 206 207 208 208 211 216 218 219 220 217 211 208 209 214 215 216 215 215 218 221 228 237 239 232 222 213 198 182 178 176 180 187 191 189 191 192 190 189 191 193 192 191 189 184 179 168 161 149 137 63 54 68 68 43 43 40 45 41 70 71 75 36 29 47 81 110 121 135 141 145 153 162 170 176 179 182 185 189 195 198 201 201 202 206 209 212 216 218 219 217 218 219 220 214 215 217 220 221 219 218 217 214 213 208 209 215 216 220 215 215 219 225 225 234 238 235 226 218 202 187 177 176 182 187 190 190 192 190 191 192 194 192 192 188 185 181 172 162 156 142 130 58 43 65 68 28 32 51 46 33 48 63 61 41 34 46 81 106 124 135 140 146 151 162 166 172 173 178 185 189 195 198 199 199 202 203 207 208 210 210 212 213 219 217 214 217 215 215 219 221 218 219 216 214 213 211 212 214 211 214 211 212 216 223 225 233 239 237 227 221 210 189 173 172 181 189 191 191 193 192 193 192 191 191 189 184 180 177 169 159 152 141 122 52 49 66 65 28 43 48 39 33 27 24 81 57 39 52 69 105 122 133 139 149 147 160 163 169 174 178 180 184 190 192 195 197 201 201 203 205 207 211 210 207 208 214 213 214 213 215 217 219 219 218 217 215 213 212 209 209 207 210 207 211 215 218 226 235 237 236 227 221 218 195 165 173 181 188 192 191 192 195 192 192 193 191 187 183 177 174 164 155 149 136 106 27 64 61 60 36 43 51 47 44 21 26 75 63 40 55 73 92 119 135 135 142 146 158 162 166 169 171 173 176 182 186 193 197 197 198 200 203 203 208 210 212 211 214 214 216 217 217 216 219 216 215 215 210 210 204 202 198 197 196 199 203 212 217 226 231 235 234 229 222 217 202 162 161 174 185 189 192 195 194 196 194 194 188 187 177 174 166 159 147 141 136 84 16 67 63 60 34 24 89 86 111 26 71 67 59 50 54 75 83 116 131 138 144 148 157 162 165 168 169 169 174 178 182 188 193 191 193 198 201 205 204 209 210 213 213 212 215 219 216 217 218 212 211 211 207 199 193 182 188 189 186 191 197 207 215 223 228 234 233 230 221 214 204 179 148 166 181 188 192 195 193 195 193 193 188 186 176 166 161 154 146 132 133 76 25 53 59 62 51 39 27 69 61 62 66 84 58 49 52 78 74 100 133 138 142 149 153 160 162 162 166 166 172 173 177 178 180 182 187 193 196 200 204 209 210 211 214 217 218 217 220 213 217 215 211 204 201 188 180 179 190 199 195 198 197 207 217 223 227 232 231 229 223 212 201 195 151 161 177 187 190 195 196 196 192 192 184 180 172 168 157 149 140 133 127 64 31 44 56 48 65 63 41 56 48 73 53 90 52 60 50 66 72 103 130 138 144 151 153 156 160 162 166 168 170 171 169 173 176 180 179 185 190 197 202 207 208 207 216 220 219 217 216 213 216 215 211 201 190 168 180 200 213 220 215 213 209 208 215 222 225 232 228 227 221 214 199 192 194 147 170 181 186 188 193 192 193 189 186 178 171 163 151 147 134 131 125 49 36 45 31 21 55 57 62 74 75 71 72 88 34 69 51 63 64 114 118 128 142 148 156 157 162 163 165 168 171 171 168 170 171 176 177 183 185 189 198 202 209 209 213 217 218 219 215 213 216 210 205 195 178 173 192 211 221 223 222 218 217 210 211 217 222 225 225 224 219 209 198 187 190 178 161 179 184 188 188 190 190 189 187 177 168 160 149 142 133 129 110 57 29 25 32 20 46 68 77 61 92 83 70 87 42 71 58 57 72 101 117 130 139 145 153 157 161 163 164 167 170 172 169 171 170 172 174 180 185 188 194 201 210 212 211 215 214 216 213 214 211 204 198 189 171 179 198 214 219 218 221 220 216 208 207 216 221 221 218 219 218 210 196 181 175 190 166 173 179 186 186 189 189 187 184 174 168 158 147 138 132 123 95 53 26 19 32 39 31 86 76 59 82 84 62 44 67 79 59 64 76 89 119 128 135 135 144 153 161 162 162 168 168 170 171 170 170 170 172 175 185 188 193 197 203 207 209 213 217 212 211 210 204 198 193 181 175 175 194 202 211 209 214 208 206 202 201 206 207 209 207 207 208 203 194 170 167 171 171 171 179 183 187 187 187 187 180 175 169 154 145 135 129 116 87 44 21 19 19 41 18 75 65 46 47 43 26 44 83 78 62 57 79 84 108 125 133 134 136 147 161 161 163 165 170 172 171 166 169 171 174 175 181 187 190 195 201 203 207 212 210 210 211 204 198 196 193 179 175 169 185 192 193 190 190 192 191 187 186 187 192 194 194 196 195 194 178 153 137 142 154 172 177 182 187 190 191 185 181 175 163 149 140 136 129 114 80 45 21 16 22 22 11 57 50 32 33 68 54 68 81 79 68 56 67 85 108 120 131 130 130 141 158 159 166 165 169 171 169 168 167 168 172 177 179 181 187 192 197 203 205 206 207 208 206 203 198 190 184 175 177 156 167 167 157 145 136 143 146 154 160 160 165 174 180 181 176 170 149 123 105 99 157 175 178 186 188 190 189 182 174 169 160 147 135 134 124 107 68 55 30 26 37 49 18 23 41 43 55 85 52 80 73 104 63 63 57 74 107 116 130 126 125 141 151 156 163 162 168 168 168 169 166 170 171 175 178 181 187 192 196 198 203 206 206 205 205 203 197 189 183 179 185 170 141 138 113 84 18 15 33 84 125 132 142 150 160 156 154 137 119 76 68 111 175 180 181 182 183 190 184 180 174 164 157 145 134 128 122 95 61 44 33 43 43 43 17 22 42 46 65 94 68 74 42 57 85 52 54 74 102 108 124 115 121 131 149 151 161 163 167 170 173 173 173 173 175 173 181 186 188 191 195 198 202 204 206 206 204 195 195 190 188 195 191 184 141 117 105 78 72 73 72 69 59 109 132 135 133 132 124 112 94 67 84 154 177 185 183 178 180 187 187 182 174 167 159 145 132 124 112 85 58 38 35 50 63 49 16 22 34 7 32 38 39 24 10 11 113 53 49 74 97 94 127 118 121 131 134 147 163 165 163 168 172 170 174 175 178 176 179 180 187 192 194 196 197 200 203 201 201 200 197 195 199 207 203 194 170 129 109 107 114 121 120 115 108 87 104 122 115 109 104 92 83 87 106 153 174 185 186 185 187 185 186 182 173 168 155 146 134 123 109 68 50 30 24 38 35 30 9 18 22 6 11 11 5 4 4 5 102 54 54 80 91 96 120 121 118 126 129 145 155 163 159 165 169 169 172 174 177 177 184 187 190 191 197 197 195 196 201 198 198 198 195 202 207 212 206 199 193 172 149 137 138 134 138 128 117 100 99 108 98 92 86 87 94 105 123 153 172 185 191 189 189 184 184 178 171 161 153 145 132 124 105 71 43 25 24 31 48 48 12 16 13 7 14 12 5 6 6 12 86 61 52 69 94 96 118 124 128 123 134 145 147 156 162 163 167 168 172 174 174 179 185 187 189 190 189 192 193 198 200 199 199 201 200 207 211 213 207 203 196 183 170 168 153 143 141 132 123 111 89 94 85 85 87 82 82 99 109 146 177 186 190 191 187 182 182 178 173 162 155 148 131 112 92 59 42 18 28 23 42 42 8 14 10 8 17 9 7 10 6 12 41 63 57 55 73 96 106 117 153 108 140 139 142 156 160 161 167 167 167 172 174 177 180 183 185 188 189 192 195 200 197 199 202 201 205 212 217 219 214 201 200 191 165 157 141 115 124 126 126 118 102 101 100 90 84 66 71 65 96 138 168 183 188 191 190 185 182 175 170 161 154 141 128 99 89 46 37 30 18 22 39 47 14 15 9 11 16 6 7 10 4 5 26 101 50 51 72 88 93 118 158 105 140 152 136 151 157 155 164 164 167 170 174 175 178 182 186 186 192 194 193 194 196 198 202 202 209 215 216 220 216 206 197 184 162 144 125 113 113 117 117 115 98 115 112 90 80 77 64 82 83 97 143 175 190 191 191 186 181 173 168 161 152 138 126 85 66 42 24 24 13 34 31 47 13 6 10 11 10 7 8 15 5 5 26 85 63 53 58 75 86 109 128 138 148 136 141 144 150 152 158 159 169 171 171 176 178 182 185 188 193 193 196 196 197 201 204 206 212 215 218 217 212 207 196 172 172 132 132 102 108 105 109 95 92 120 125 99 93 91 84 85 84 92 110 154 175 181 186 181 179 169 165 162 149 134 120 91 63 45 28 20 24 30 48 36 7 8 8 12 10 9 8 22 7 4 31 77 64 57 49 79 87 116 125 138 152 131 138 152 148 143 153 166 170 172 171 176 180 185 184 186 188 190 195 197 198 202 206 211 212 213 214 205 204 195 183 155 131 128 125 113 108 112 124 95 104 126 136 117 107 104 95 82 81 92 89 119 158 169 169 174 178 167 162 158 148 130 106 79 75 30 26 20 24 15 43 42 8 6 8 9 9 7 8 21 10 7 27 75 68 55 55 82 92 111 125 135 140 131 138 139 144 133 152 161 164 166 168 173 177 182 184 187 188 190 194 193 198 203 206 206 206 200 197 186 183 171 167 138 126 123 124 120 98 119 138 151 162 146 163 155 137 117 105 81 86 89 91 106 143 146 160 148 157 168 158 155 148 123 95 52 56 28 18 18 19 22 34 54 8 8 8 11 16 10 10 17 21 12 28 66 83 55 59 75 86 114 120 124 142 138 137 144 144 134 149 150 147 157 162 169 175 178 182 184 188 191 194 194 199 200 203 197 190 187 189 168 164 151 152 130 137 128 128 130 92 132 188 196 200 192 191 191 181 133 106 77 75 86 78 97 121 134 140 120 138 152 154 150 137 115 78 57 44 35 25 18 19 21 25 56 8 8 8 30 8 12 14 12 15 19 28 60 83 74 57 79 85 102 114 130 131 127 127 150 144 137 146 147 140 150 160 173 179 180 181 183 186 189 192 193 198 190 189 180 174 170 160 141 136 138 141 123 132 128 115 129 116 123 157 168 186 196 197 181 173 135 103 79 84 87 72 99 105 122 105 121 130 140 153 150 135 96 61 39 42 30 15 21 23 21 13 45 8 7 7 24 20 8 12 12 16 15 28 58 88 84 61 84 84 94 96 108 120 120 117 148 125 142 143 133 128 146 159 172 175 174 179 185 185 186 189 191 187 179 176 162 159 143 130 130 121 132 139 125 119 129 117 107 116 133 148 148 156 168 166 140 127 113 110 96 87 82 88 97 104 92 114 105 113 134 149 145 132 97 53 41 34 19 13 24 28 14 16 9 5 4 5 8 16 26 30 21 16 13 25 62 85 91 63 85 75 96 107 108 109 73 128 124 121 138 130 125 127 140 156 169 172 172 180 184 179 180 186 187 184 168 149 151 117 104 109 112 109 124 142 102 106 104 103 112 120 135 141 139 143 142 146 114 106 110 111 97 84 79 93 89 99 80 84 96 109 98 148 144 117 87 48 34 25 17 12 16 25 20 17 25 5 5 5 8 7 15 23 45 31 15 17 57 78 91 76 72 72 85 96 98 101 93 105 116 112 110 118 132 103 128 144 156 166 170 171 182 182 181 182 171 154 139 131 123 107 94 95 96 111 124 127 108 83 88 95 100 102 113 109 104 106 113 115 100 83 90 87 81 72 70 83 90 81 80 84 90 99 97 138 135 101 69 46 40 20 11 25 16 10 12 24 48 4 4 5 4 8 14 19 18 20 31 18 56 73 97 96 79 70 70 77 84 87 99 94 111 105 113 116 108 102 126 133 142 162 165 170 178 180 173 158 147 133 121 114 103 111 100 94 97 112 110 92 79 73 68 57 51 56 68 71 65 61 67 71 56 24 21 27 51 53 52 62 78 76 87 88 98 100 85 105 128 88 63 34 35 20 17 48 27 21 13 12 25 15 9 5 7 4 11 17 22 17 18 19 58 69 90 86 65 58 51 57 72 78 87 92 96 114 117 107 100 109 113 119 138 157 157 171 177 173 156 142 127 119 117 102 96 107 95 92 86 89 80 61 53 33 19 15 15 18 15 16 10 10 11 14 16 18 24 31 46 42 37 22 38 67 89 82 96 89 81 82 121 80 46 40 31 35 24 31 23 20 11 22 39 20 20 20 12 7 11 9 23 24 18 16 46 72 87 88 73 64 49 60 67 75 92 90 97 108 112 97 101 105 103 102 132 147 149 165 175 169 160 135 126 124 115 97 109 103 91 74 42 37 43 52 60 60 67 62 55 61 60 54 47 41 45 49 60 65 81 96 101 101 86 81 82 86 94 100 92 98 94 83 92 59 43 46 29 22 18 15 6 13 22 57 14 18 24 41 41 26 11 5 14 24 21 14 50 70 83 89 76 70 55 47 63 61 65 78 98 103 112 97 102 111 99 110 127 142 143 156 169 165 154 132 140 121 111 107 110 105 108 88 89 86 98 107 130 136 144 151 148 136 122 116 113 108 110 115 131 148 145 147 130 125 110 112 113 113 115 109 108 95 85 92 78 47 44 46 14 16 29 34 37 33 35 47 18 17 24 20 40 42 31 17 10 20 20 28 44 73 81 95 88 75 67 57 53 64 66 83 81 101 103 95 91 95 112 105 133 110 134 152 153 160 160 150 131 131 122 121 120 122 126 128 141 147 142 136 142 153 163 167 182 180 178 180 178 170 166 168 175 180 166 158 142 131 127 135 139 136 136 130 116 109 87 99 71 36 34 29 34 30 49 53 70 23 59 31 60 14 32 21 10 23 21 20 13 8 24 17 42 75 82 92 90 82 73 71 58 56 65 83 86 95 93 93 90 104 101 110 120 109 117 129 135 137 143 146 136 130 137 133 136 143 154 159 166 164 165 156 149 152 162 172 179 182 181 185 183 177 171 170 179 174 165 149 141 129 136 141 140 145 147 143 131 118 93 92 56 33 31 41 93 35 78 95 63 44 49 25 131 15 23 22 16 15 16 8 10 10 14 18 22 71 91 100 89 93 76 76 65 51 62 60 62 69 80 86 105 108 107 106 93 98 111 120 128 141 145 148 144 144 148 150 155 162 168 170 171 171 178 169 160 156 146 153 164 165 173 177 179 170 169 178 172 165 157 142 138 140 133 141 151 156 155 147 137 122 97 91 35 32 46 67 19 48 60 70 41 62 25 115 129 9 16 15 14 16 15 8 7 10 11 8 18 41 74 56 120 79 89 80 67 56 51 64 71 78 84 85 91 94 104 102 88 81 92 107 129 137 141 144 150 148 153 158 170 176 175 176 173 172 175 175 161 157 158 165 166 165 161 162 163 165 169 167 162 154 148 138 141 132 129 135 154 154 152 148 141 126 99 59 29 29 22 17 22 38 50 72 22 48 112 123 120 9 11 15 15 12 7 8 7 3 3 10 25 67 55 58 39 113 90 83 83 72 60 64 71 77 88 82 80 80 88 89 68 85 105 107 125 132 140 141 154 162 164 162 145 172 179 180 175 173 170 168 170 156 156 160 156 156 156 155 158 155 153 150 145 138 135 127 127 124 128 139 157 154 153 152 141 122 100 47 28 29 74 52 37 58 39 42 97 110 118 118 117 10 17 17 16 10 8 8 7 4 5 11 27 64 101 83 73 97 54 104 86 79 61 60 66 68 69 68 73 66 64 65 72 82 98 104 122 122 140 152 155 164 169 171 174 176 177 180 177 171 165 159 161 155 156 152 152 128 118 114 115 109 112 109 107 108 102 105 116 124 136 148 155 157 154 147 140 111 85 34 28 21 39 92 39 50 93 109 117 113 116 117 115 18 21 18 15 11 6 9 9 4 10 11 39 46 32 57 84 115 131 43 92 82 64 56 43 51 69 66 59 65 69 75 80 89 99 104 112 121 142 146 145 161 167 175 179 180 176 174 176 172 166 164 156 144 141 139 133 117 105 88 81 84 77 75 79 89 96 101 119 131 140 150 155 157 153 145 126 99 74 28 29 21 9 45 109 106 111 110 109 111 111 110 113 15 14 11 10 10 8 9 9 8 12 16 45 74 80 89 102 121 125 126 113 102 89 76 51 57 62 60 50 56 58 72 69 90 101 96 100 111 120 133 144 152 156 173 174 177 180 178 176 172 168 165 158 147 139 129 118 107 101 83 81 79 79 81 88 96 102 115 130 139 146 155 158 156 150 134 116 96 52 33 34 17 7 6 129 108 113 107 113 109 109 110 111 16 12 11 11 8 8 6 6 11 14 20 52 91 98 103 123 125 132 133 135 128 119 83 51 41 48 53 46 48 64 59 74 89 88 85 90 118 141 131 141 143 162 172 179 181 180 183 179 173 170 168 166 158 152 138 128 119 115 107 106 103 101 107 99 116 127 129 141 147 155 162 162 156 152 117 106 83 43 25 33 6 7 2 0 126 112 108 109 109 109 109 112 11 9 9 7 8 8 6 4 16 26 26 64 93 107 112 120 131 136 137 135 134 124 118 98 50 40 39 32 42 52 67 77 76 77 75 75 106 121 117 115 153 166 170 173 177 186 187 183 179 176 173 172 170 164 158 144 143 136 130 142 143 143 145 139 132 143 153 156 153 163 166 163 156 149 111 84 62 39 26 21 6 8 8 11 36 107 110 108 105 109 111 108 10 5 8 7 8 9 6 13 24 32 30 74 94 114 119 128 134 140 141 141 137 136 124 101 72 36 32 29 35 44 56 47 49 59 77 80 106 98 106 119 147 155 161 175 183 190 193 192 188 186 187 185 182 177 173 176 173 164 167 171 173 172 172 167 161 161 168 171 174 173 172 169 152 129 86 72 49 37 32 13 7 7 8 10 10 74 106 109 108 107 107 107 7 6 8 7 6 7 10 25 33 37 33 82 107 114 125 131 139 142 146 145 142 138 134 120 92 66 41 27 28 36 35 44 50 72 75 74 63 84 95 127 145 137 167 168 179 189 197 201 201 197 198 198 199 198 193 198 197 193 191 190 190 189 186 185 180 183 182 179 179 174 171 157 148 120 76 57 46 32 29 8 9 8 8 8 2 7 50 97 118 110 106 108 8 6 6 5 5 5 23 37 42 34 40 90 109 122 129 135 140 145 146 147 143 138 140 132 125 93 59 36 25 30 33 44 40 56 61 63 75 73 81 102 135 127 159 160 173 179 197 194 205 203 206 204 209 206 207 208 203 201 197 186 186 186 182 187 181 185 185 185 180 176 169 162 139 100 66 49 51 28 20 9 7 7 8 8 11 12 12 40 53 71 93 111 8 6 6 5 7 19 40 47 48 41 52 96 114 127 131 140 143 148 151 151 146 145 145 136 136 120 93 73 37 23 28 39 37 42 50 47 53 52 64 90 120 119 143 153 157 166 191 183 199 206 207 207 208 211 212 208 196 197 187 177 185 172 180 181 179 181 179 186 177 167 155 154 127 91 47 43 38 30 16 6 5 9 8 10 10 9 11 13 53 44 53 53 7 6 5 5 11 34 51 56 56 47 60 100 119 131 135 140 144 147 153 153 149 151 146 141 143 136 108 85 50 35 28 32 27 36 41 47 51 49 55 70 81 98 123 132 137 144 166 171 192 201 200 204 208 209 208 210 187 178 165 164 171 169 171 171 173 173 166 168 172 165 146 134 97 70 30 32 26 30 13 9 8 8 10 10 9 8 10 13 28 50 56 53 7 6 6 12 26 50 69 69 61 58 78 103 122 134 138 144 148 150 151 153 151 155 150 147 147 137 128 113 101 58 28 27 28 32 35 34 30 34 46 59 78 67 111 112 122 120 133 153 163 171 184 188 190 194 201 194 179 165 161 137 155 154 160 149 162 161 145 145 140 121 139 106 76 44 25 26 26 24 7 6 7 8 10 10 8 9 11 11 14 40 45 53 8 7 8 18 41 71 77 80 73 77 90 108 128 136 138 143 146 151 155 155 154 156 154 151 147 143 135 123 105 77 55 35 24 29 29 36 24 30 38 56 58 58 98 105 91 106 103 124 125 133 159 167 179 162 170 167 154 148 144 135 129 143 134 142 146 136 139 118 104 106 92 87 62 39 33 20 22 18 7 5 8 10 11 10 10 8 11 11 16 20 47 46 8 7 13 32 62 88 93 89 86 88 99 111 130 139 143 143 148 153 155 158 158 156 156 156 152 147 145 131 126 108 52 43 23 22 22 29 22 26 32 33 42 43 64 69 80 65 78 118 97 99 139 136 157 157 144 152 140 131 124 118 95 126 125 135 130 125 112 96 87 65 69 75 49 41 12 27 29 12 8 7 10 8 10 10 9 9 10 10 17 17 33 48 11 10 18 42 76 104 101 100 97 106 110 113 136 143 144 150 152 156 158 161 159 155 155 159 157 148 146 131 127 116 105 76 34 22 21 25 21 20 17 27 30 37 51 47 50 51 60 81 79 75 103 98 122 140 133 127 118 107 109 112 95 107 101 107 122 107 106 77 62 61 58 53 66 26 22 41 36 12 5 6 6 10 9 13 11 11 5 14 19 17 18 49 10 13 25 54 90 111 112 109 107 114 120 123 137 146 148 149 151 158 160 160 163 159 157 157 152 154 146 144 135 124 108 101 71 48 28 20 21 24 20 18 24 27 42 39 42 36 54 63 66 74 79 87 88 119 121 120 103 87 93 90 89 87 80 90 92 75 75 58 52 56 34 48 49 37 30 88 73 19 11 7 5 9 12 13 10 11 10 11 10 21 15 31 9 21 38 68 99 124 120 117 119 126 128 124 137 144 149 149 154 158 158 167 161 163 162 160 156 158 147 148 142 131 129 110 96 77 54 28 23 24 20 20 21 20 29 32 40 25 47 55 54 49 60 72 65 113 83 92 82 70 67 68 74 68 61 79 81 63 58 53 46 42 44 36 36 30 62 115 104 37 11 9 3 10 10 12 13 9 12 8 17 16 24 16 8 23 48 79 109 130 133 125 129 134 132 129 138 147 148 152 150 158 155 164 162 163 163 161 153 155 156 148 143 141 133 121 100 109 79 52 34 22 19 18 19 18 20 26 27 28 41 45 45 39 52 44 55 74 61 58 66 56 60 67 58 57 52 72 50 42 44 36 31 21 43 39 34 44 99 113 133 62 18 14 4 7 14 12 14 10 10 11 10 20 21 17 12 32 53 91 119 139 138 138 132 139 141 127 140 145 150 153 157 156 157 159 163 165 162 162 158 161 154 151 148 147 138 132 123 102 101 85 59 38 22 20 19 20 19 20 25 25 27 40 38 30 34 40 50 47 55 47 52 42 52 57 39 37 46 52 46 38 29 29 27 29 26 32 35 89 118 120 133 96 33 15 5 7 10 11 12 14 11 11 12 17 22 23 15 34 64 98 127 144 151 147 139 146 145 132 144 148 151 150 159 158 159 162 161 166 162 162 162 159 152 151 154 153 142 140 131 118 119 100 100 86 49 27 20 21 18 20 20 21 20 37 30 25 25 53 30 36 44 45 43 33 38 38 39 30 32 29 31 24 19 23 24 26 16 37 79 113 118 111 136 127 59 20 8 4 11 14 12 13 11 10 14 15 19 17 22 43 74 108 132 152 153 152 151 152 149 140 147 151 154 155 164 159 157 163 162 169 160 162 165 158 157 158 158 155 145 145 140 133 124 115 113 107 88 56 32 39 29 20 20 19 22 22 25 23 21 73 31 29 32 32 26 27 28 27 29 29 26 20 19 17 20 20 24 20 38 84 104 112 115 110 133 142 95 35 10 5 6 12 12 14 11 13 13 15 14 22
