P2
# Generated by OpenCV 4.2.0
92 112
255
7 2 4 0 7 1 7 3 2 4 5 9 12 10 1 0 3 10 31 15 15 15 26 26 29 21 13 12 20 12 17 30 44 49 59 62 63 62 71 79 93 116 108 103 109 105 101 129 117 118 114 120 116 105 102 104 134 114 82 58 77 59 58 52 32 35 44 27 14 25 8 8 13 26 3 3 11 11 25 40 42 19 5 3 6 0 1 0 0 0 1 2 2 0 1 3 4 0 3 2 2 1 7 7 12 12 3 3 3 1 21 22 11 11 10 18 29 21 15 9 12 20 18 52 49 54 59 64 74 79 82 92 103 110 115 117 128 127 125 132 136 139 138 130 136 132 121 126 145 116 97 91 82 75 67 43 44 57 49 32 28 31 12 15 14 16 4 3 14 10 34 41 27 11 4 5 1 0 0 0 0 0 1 1 11 2 1 5 4 0 0 1 4 6 11 15 17 9 1 0 0 0 3 11 12 13 15 12 20 20 21 15 8 11 16 40 59 49 61 73 87 97 101 109 122 121 119 138 155 156 158 159 163 163 161 154 156 149 139 159 151 126 127 113 103 97 78 70 77 83 60 46 50 41 37 28 27 16 8 3 5 6 9 11 13 16 8 2 1 0 0 0 0 0 1 1 32 20 4 0 0 0 0 0 0 12 18 12 5 1 0 0 1 2 7 15 17 23 31 30 42 40 34 33 26 13 16 13 29 37 34 49 71 94 106 117 128 138 139 150 169 177 172 167 179 180 176 173 176 171 162 169 164 151 133 122 121 112 110 104 106 98 85 77 80 78 65 54 50 32 17 5 4 3 3 13 33 40 28 12 4 1 0 0 0 0 0 0 18 5 4 2 0 0 0 1 10 17 6 0 0 0 1 2 5 15 23 29 43 49 54 59 65 76 76 58 61 47 24 14 24 28 28 44 59 72 87 104 125 133 142 160 180 187 183 189 193 193 187 187 188 184 187 182 174 175 163 151 138 142 136 130 124 111 106 106 105 99 83 78 70 55 32 16 11 12 18 16 17 26 28 20 10 6 3 1 0 0 0 0 25 3 0 0 0 0 2 13 12 3 2 0 0 0 1 5 15 34 53 52 71 85 82 86 105 114 111 102 97 92 52 22 32 43 33 30 47 65 85 104 111 132 149 174 194 199 200 198 194 195 193 193 197 197 197 196 193 188 180 170 160 159 156 147 128 125 136 125 109 100 114 94 76 87 64 40 21 17 17 23 24 21 14 10 7 4 4 2 0 0 0 0 39 19 2 0 0 0 1 17 15 5 2 3 2 0 8 21 30 44 65 81 90 104 110 116 128 140 137 139 134 126 96 82 62 57 69 79 71 79 100 121 122 139 161 185 203 210 209 201 203 201 200 200 198 200 198 199 196 189 184 179 173 168 168 164 151 135 139 134 124 122 127 119 97 97 93 64 46 29 14 11 13 19 19 16 10 3 2 5 3 0 0 0 16 9 2 1 1 1 11 18 5 0 0 3 10 11 26 41 56 72 89 104 112 123 132 144 153 155 150 151 147 144 132 129 130 113 110 121 117 115 127 133 134 146 167 190 204 213 211 211 212 210 203 206 203 200 199 198 199 196 194 194 184 174 175 174 163 160 159 147 139 144 139 140 125 106 103 75 61 47 30 16 13 13 12 10 6 0 1 3 4 0 0 1 8 3 0 0 0 2 16 5 0 0 1 1 8 26 52 67 75 86 107 123 129 139 145 154 155 155 155 151 152 150 136 136 142 140 137 134 130 127 130 141 150 165 180 197 211 212 213 214 211 212 207 205 205 203 200 202 199 202 198 194 190 182 186 181 175 165 166 163 157 152 146 135 129 113 112 72 61 55 44 38 21 15 13 20 19 20 17 14 7 2 1 0 14 4 1 0 0 3 15 7 4 1 1 3 15 45 73 83 84 96 115 130 134 144 149 154 154 156 158 157 160 160 157 156 153 152 150 151 149 146 144 152 159 172 190 204 208 211 216 210 205 207 201 196 199 205 206 207 206 204 201 196 191 184 184 183 176 170 166 173 169 164 161 145 122 112 109 96 54 49 42 40 28 24 20 17 15 32 37 32 19 13 4 2 33 8 1 0 0 5 12 7 8 7 6 10 31 71 83 89 95 107 120 131 138 146 149 154 159 160 161 165 166 163 173 175 173 172 171 170 166 163 160 160 164 185 200 205 207 211 211 207 208 210 207 202 205 212 213 208 208 205 201 199 193 189 189 185 180 175 169 168 173 170 165 159 125 99 106 108 62 41 43 37 31 24 24 25 25 24 22 27 30 24 23 24 33 9 1 0 0 8 14 19 11 4 12 21 52 83 92 99 100 110 119 133 143 147 151 158 162 166 167 168 168 167 171 176 180 180 178 180 176 176 172 172 177 192 199 201 207 212 206 209 211 211 211 215 215 213 212 211 208 205 202 198 193 190 186 183 186 184 181 177 171 170 164 164 140 96 104 99 71 42 40 43 34 27 23 27 20 17 27 36 29 36 51 17 27 14 2 0 0 13 18 26 16 15 30 39 73 94 100 104 104 108 120 132 142 149 155 161 165 168 174 169 172 174 174 179 181 181 182 181 182 185 186 185 191 193 196 199 206 211 211 214 210 212 217 214 213 213 211 212 207 207 203 198 194 195 190 186 189 191 187 184 180 177 169 164 156 119 96 90 71 57 44 44 37 36 23 19 15 17 23 18 11 17 13 0 9 6 2 0 0 17 24 21 16 36 55 65 86 92 102 103 106 114 121 133 140 150 155 160 166 170 173 172 175 174 177 181 184 185 184 186 185 188 190 191 195 196 199 204 208 209 210 214 215 215 216 214 214 213 212 212 210 206 203 200 192 192 192 188 186 189 190 184 183 177 174 163 165 150 106 80 58 39 45 50 39 30 24 18 16 16 10 8 11 5 0 0 40 18 3 1 0 15 16 7 20 48 71 81 86 96 102 108 111 115 127 135 142 150 155 162 167 170 171 173 175 175 179 181 187 188 187 187 188 188 191 190 194 197 199 203 208 209 211 213 211 212 214 213 214 212 213 211 209 208 201 196 194 192 191 190 187 186 188 187 183 179 177 168 164 166 156 131 97 59 44 36 36 30 17 16 13 10 14 21 23 11 8 2 26 15 3 2 4 16 8 9 23 50 80 85 89 100 107 112 114 119 129 136 144 150 154 160 166 168 171 173 176 179 180 183 185 185 188 190 189 190 192 190 192 195 198 202 205 211 213 214 211 213 214 214 215 213 213 211 210 206 200 194 195 190 189 189 187 186 185 184 185 184 180 171 168 173 166 162 142 112 71 40 16 15 17 10 8 11 9 18 35 36 27 3 29 21 13 7 4 6 6 14 28 61 84 90 96 105 114 116 117 127 131 138 143 149 153 158 164 169 172 175 177 179 180 182 183 184 186 189 189 190 191 191 190 195 197 201 203 207 209 209 207 208 208 212 215 214 212 213 210 203 197 195 193 188 189 188 187 189 189 188 187 185 181 177 175 170 166 163 149 135 93 61 33 20 23 19 15 10 7 8 16 19 4 0 7 6 4 2 0 0 8 15 33 59 83 99 103 110 117 120 123 129 134 140 140 147 155 159 162 168 172 176 175 175 180 183 185 184 184 186 185 185 187 190 190 192 197 202 202 206 205 208 209 210 209 208 212 212 213 212 208 203 197 192 190 188 188 189 190 193 190 189 188 186 181 180 181 174 167 160 148 133 98 76 57 31 20 20 21 15 9 6 4 1 0 0 15 20 15 7 0 2 10 14 33 64 89 106 111 119 123 126 127 130 137 141 145 147 151 156 162 166 170 174 177 180 185 184 186 186 187 186 186 185 187 191 190 192 198 205 204 205 207 207 209 209 211 214 212 212 210 210 205 202 199 192 192 189 188 189 188 192 193 189 188 184 183 178 178 178 169 161 149 131 100 70 60 39 28 26 20 17 9 5 4 1 0 0 2 10 14 6 2 6 7 17 42 74 97 109 119 123 125 125 129 135 142 142 143 148 153 155 160 163 167 173 177 180 184 184 185 188 187 189 186 184 188 189 191 197 199 201 206 206 209 206 210 208 209 211 213 212 208 211 205 204 200 192 192 191 189 190 191 195 193 190 188 188 184 179 177 172 168 163 146 129 106 68 45 35 30 31 26 21 16 8 5 2 1 0 8 11 1 1 4 5 7 19 50 78 101 112 119 126 126 129 136 140 142 144 146 146 149 153 153 157 166 172 178 179 182 185 184 188 189 189 189 183 189 190 194 199 201 201 204 205 205 208 206 207 207 209 212 211 209 208 203 203 199 193 194 194 191 193 195 199 196 192 189 187 181 180 178 171 166 162 148 131 106 76 51 37 27 27 26 23 23 26 21 7 1 0 14 14 4 1 1 3 9 23 51 86 108 116 122 130 131 134 138 141 141 143 143 144 147 152 157 159 165 169 176 179 184 188 187 186 188 188 190 186 188 195 196 199 201 202 202 203 205 207 206 205 206 211 212 212 209 204 203 202 200 197 194 192 193 193 194 195 196 195 189 186 186 180 175 173 168 155 149 136 116 66 45 35 33 21 22 18 16 11 14 10 6 4 20 10 5 2 0 3 10 27 60 90 111 121 126 133 135 138 137 140 142 144 148 152 153 157 160 163 168 174 177 182 184 187 187 190 189 190 189 189 186 191 195 195 197 204 197 193 201 203 204 203 209 209 209 209 207 202 201 201 199 198 193 192 193 195 196 195 196 193 190 189 189 184 177 173 167 157 145 137 119 87 44 27 26 34 26 21 20 19 21 21 22 22 18 9 1 6 3 4 11 32 61 89 110 121 125 133 138 140 140 143 146 150 152 157 154 156 159 161 167 174 177 183 185 186 188 189 190 194 194 194 194 193 195 196 196 200 201 195 199 199 201 206 209 210 210 208 207 205 203 200 196 193 193 194 191 195 196 194 192 189 189 188 187 183 178 175 170 159 147 137 113 83 45 31 20 23 25 23 15 9 10 11 22 27 9 5 1 5 6 7 15 36 60 94 113 121 129 133 140 143 145 148 148 151 151 154 154 156 158 161 167 173 177 180 183 185 185 187 189 191 191 190 196 197 198 195 193 199 197 196 200 199 199 206 204 207 210 210 207 205 203 202 195 191 191 192 193 195 196 195 188 189 191 188 189 183 176 174 173 160 147 132 120 81 39 27 19 11 18 25 19 8 4 4 8 5 16 3 0 3 3 9 19 35 67 95 110 120 127 136 145 146 147 148 150 150 149 149 152 154 155 159 165 174 178 178 181 188 189 190 192 196 196 195 193 196 199 194 191 199 196 194 198 200 200 200 203 208 208 208 206 206 205 200 195 191 191 191 193 192 191 189 189 188 189 187 184 180 177 174 170 164 152 132 113 100 51 21 18 11 10 14 15 6 3 0 0 0 19 6 0 1 3 15 18 38 65 90 109 124 130 137 145 146 148 147 148 147 147 148 156 160 165 169 175 176 178 178 180 189 191 194 198 200 201 202 201 201 206 196 196 194 196 197 200 197 204 202 208 212 213 210 209 208 205 200 197 198 194 192 192 190 191 191 190 188 185 189 185 178 177 176 172 164 154 145 119 99 64 19 12 9 10 4 7 6 4 1 0 0 25 16 0 0 4 13 19 36 61 91 110 125 133 140 145 147 149 153 154 152 153 158 159 163 166 168 172 174 174 174 184 192 194 196 199 200 204 203 205 205 203 202 198 199 196 199 200 201 201 210 209 211 210 211 210 209 207 204 200 196 194 195 193 190 190 189 190 187 183 184 181 180 178 176 173 164 157 150 133 105 77 31 10 5 7 9 7 4 2 5 1 0 20 16 1 0 5 11 15 34 62 91 110 128 136 141 143 148 153 155 153 156 160 162 161 164 166 168 170 170 173 182 186 190 192 195 197 202 207 206 205 208 205 204 197 201 200 201 201 202 204 208 211 211 211 213 211 209 208 207 203 199 197 196 194 191 190 189 189 187 185 181 181 179 177 172 171 164 159 153 147 126 99 51 8 4 7 11 4 2 1 4 3 0 10 5 1 1 5 10 12 30 61 92 113 127 136 143 146 152 153 154 155 161 164 163 164 167 167 167 170 175 179 182 187 190 193 195 198 203 205 203 204 205 206 201 200 200 201 198 201 206 206 208 213 215 213 213 211 210 210 208 205 201 200 197 194 189 189 190 189 185 185 182 180 179 176 170 169 163 159 158 154 144 118 77 20 2 2 4 6 3 2 1 1 0 4 4 1 2 5 11 14 33 65 94 113 126 138 147 152 153 156 158 161 164 164 166 167 168 167 167 168 173 176 182 186 190 193 195 198 200 199 203 205 202 203 200 197 198 197 199 197 205 208 208 213 210 213 213 214 211 208 208 207 203 199 197 195 192 191 191 189 187 184 181 174 179 172 171 170 164 161 160 160 155 136 96 39 6 1 1 3 6 4 2 1 0 3 2 1 3 4 9 17 37 67 97 116 128 141 151 153 155 157 161 164 165 167 166 166 168 170 168 171 171 176 183 188 190 186 191 194 198 201 208 203 196 200 199 191 194 195 197 199 202 209 212 211 212 217 216 217 218 213 209 210 204 202 199 196 194 194 193 191 186 183 183 176 173 169 167 165 165 163 160 160 155 145 122 63 11 1 2 5 2 2 3 1 0 1 1 4 6 3 7 18 43 75 99 116 131 144 154 157 157 157 161 167 169 168 168 167 168 168 167 172 172 176 182 185 187 187 190 192 194 200 203 201 196 196 193 191 193 199 199 200 198 202 209 213 217 216 219 216 213 213 212 208 200 199 197 195 196 195 192 191 190 183 181 177 173 169 163 162 165 164 162 157 154 151 136 86 28 3 1 0 2 1 0 1 0 2 3 2 4 7 8 22 43 80 101 115 132 152 160 159 161 159 159 161 163 164 163 162 164 163 162 167 172 175 179 182 182 186 188 191 194 202 200 199 198 193 189 188 190 194 199 200 203 195 203 202 207 212 212 209 207 210 205 201 199 196 195 190 190 188 184 182 186 183 178 174 174 169 163 158 158 159 159 153 154 154 140 98 41 4 0 0 2 2 1 2 2 8 4 4 3 6 11 23 49 86 104 121 141 161 160 153 157 156 153 156 160 159 158 162 164 160 161 163 165 169 173 177 179 180 187 195 193 195 202 200 194 190 187 182 186 186 192 192 195 194 191 196 196 197 199 197 194 199 200 200 193 195 197 195 191 185 184 177 167 165 170 176 173 167 164 158 157 159 159 156 156 156 146 114 57 7 0 0 0 1 0 0 1 6 3 4 3 8 16 32 66 91 109 128 150 163 145 131 135 142 146 144 144 145 138 144 147 147 136 143 151 158 167 168 171 173 184 190 193 191 195 194 191 186 186 183 182 185 184 185 185 181 172 179 179 176 180 174 165 178 181 175 168 169 172 163 149 143 151 145 145 149 139 161 171 163 160 154 156 158 157 157 158 154 151 133 76 12 0 2 4 4 2 1 1 2 1 3 7 7 19 44 74 94 113 132 150 138 125 116 108 102 100 86 86 74 65 64 67 91 100 103 118 147 154 154 169 166 168 178 186 191 191 189 187 185 181 184 184 179 181 182 177 169 163 161 151 150 155 135 142 142 120 111 115 115 114 101 93 97 102 113 117 114 120 123 128 146 160 153 153 154 154 157 158 157 151 146 104 22 1 0 0 2 2 4 1 3 2 6 12 6 18 48 80 99 114 135 120 109 100 70 64 51 49 43 34 27 35 44 44 54 68 73 94 137 131 147 142 136 168 176 182 188 190 187 185 183 180 176 181 180 176 173 168 157 156 142 126 139 134 112 121 95 81 73 87 82 78 100 93 83 112 123 105 101 109 106 106 106 132 152 152 152 155 158 157 155 152 149 124 39 2 0 0 8 8 1 27 9 2 6 14 6 15 51 82 107 115 122 106 81 60 53 45 39 28 31 34 36 34 37 39 42 46 55 78 105 102 105 98 143 162 166 174 181 184 181 180 178 174 174 175 178 176 173 163 154 146 134 125 131 127 106 84 85 76 62 67 62 66 62 60 80 102 99 92 106 111 99 91 91 92 115 145 150 149 154 155 154 150 149 136 62 3 0 2 12 9 42 130 15 8 5 8 6 17 51 86 111 118 110 96 75 55 55 43 42 34 33 37 39 35 28 34 42 42 49 65 80 83 87 105 133 132 148 163 174 175 171 173 169 167 171 172 171 169 168 160 147 124 123 123 120 118 85 79 80 79 67 69 73 71 78 85 103 105 92 94 101 105 110 106 91 84 95 132 145 146 149 151 153 147 149 131 70 12 1 4 7 49 153 191 16 12 5 8 7 12 47 90 112 108 92 70 61 49 55 61 59 64 63 67 74 72 60 57 64 67 68 68 70 75 91 115 118 123 140 165 172 170 171 172 170 167 170 171 166 163 158 153 133 114 113 108 108 103 95 92 92 84 93 105 113 126 135 135 131 120 114 127 122 112 102 92 98 105 117 132 139 149 149 151 153 148 152 133 72 17 5 7 3 105 201 200 13 9 6 11 8 11 43 91 118 113 98 77 70 71 81 79 83 90 96 96 105 105 96 87 77 71 70 71 73 75 87 95 107 124 132 147 160 163 164 169 171 165 162 165 165 160 153 144 131 121 111 116 114 112 110 108 108 110 121 132 139 137 135 133 132 131 133 139 135 122 118 124 127 127 135 134 147 155 150 150 153 151 154 143 77 16 8 5 14 143 199 183 10 8 6 5 7 15 49 96 123 129 111 99 91 83 86 88 90 93 91 90 84 79 72 59 49 41 39 43 49 63 75 82 95 105 120 132 144 153 157 159 163 167 163 161 161 150 140 137 128 121 116 114 108 103 97 86 75 73 68 60 54 41 42 53 59 72 75 86 108 125 135 141 136 140 142 151 161 159 150 151 156 152 155 149 100 28 10 3 35 161 177 154 7 5 4 3 6 17 61 104 122 134 123 108 107 101 94 93 82 61 46 31 21 10 4 2 1 6 4 9 17 23 38 58 74 90 103 119 133 145 156 160 164 169 172 168 161 150 140 131 120 115 108 100 89 69 50 51 61 40 15 10 3 38 48 21 19 39 62 70 63 73 114 129 135 143 146 155 165 163 152 151 156 155 154 152 125 62 20 6 54 158 157 146 6 8 4 5 9 19 72 109 126 131 121 107 103 108 92 64 46 48 27 17 40 27 9 21 25 49 37 6 10 18 18 22 35 60 84 98 116 136 151 164 170 181 183 178 169 156 143 135 126 113 99 87 73 75 91 93 62 48 18 35 28 39 38 23 33 72 42 51 82 73 79 122 130 138 142 153 164 161 156 154 156 158 156 154 136 92 35 22 75 144 170 188 15 20 13 6 13 26 84 116 130 127 113 101 91 94 69 35 29 20 34 84 116 64 17 22 27 12 20 21 28 36 28 31 31 28 48 82 107 131 155 173 184 195 196 190 181 171 155 143 126 110 101 103 114 123 100 75 97 112 50 31 9 1 8 26 53 133 85 41 53 75 74 98 131 143 148 163 166 162 160 161 160 159 157 154 141 111 61 48 102 165 202 204 11 20 24 15 18 39 94 122 133 130 110 98 87 82 62 42 34 25 43 84 119 71 23 22 8 1 5 33 107 89 41 24 33 43 38 62 102 137 161 180 196 207 213 203 190 180 168 153 143 143 140 133 129 99 88 117 163 150 90 37 18 16 28 39 104 136 97 99 99 98 106 117 130 148 162 167 165 166 164 162 161 158 157 156 144 118 93 86 103 143 185 195 15 26 27 22 24 61 110 127 139 139 124 110 105 92 82 79 132 123 89 91 107 106 63 43 41 42 76 97 128 109 79 58 55 65 61 57 93 141 165 182 196 207 211 204 193 183 176 172 171 187 184 157 124 120 118 126 144 146 131 97 73 87 117 127 140 147 133 135 138 141 150 150 147 157 168 172 172 169 167 163 163 160 158 160 146 119 108 107 85 73 122 165 11 30 25 16 33 78 124 136 145 147 141 135 131 113 107 124 156 156 128 106 102 100 108 111 116 134 137 138 129 134 140 141 137 120 95 62 89 136 164 180 192 205 209 200 190 183 182 179 180 196 188 179 172 159 147 139 131 124 134 139 139 138 141 137 137 149 157 155 152 151 160 165 163 168 180 181 178 174 169 165 164 163 162 164 151 125 113 120 97 82 104 140 5 20 30 15 38 92 131 141 146 152 148 144 135 114 120 138 148 147 130 119 116 108 106 114 112 138 137 142 156 149 141 137 136 131 104 79 99 136 162 175 188 202 205 195 188 179 182 184 181 185 183 165 154 148 141 138 140 136 135 132 141 138 141 154 160 158 159 154 154 155 165 171 172 177 185 183 180 177 173 168 167 164 161 163 157 131 109 128 127 103 106 130 11 12 17 20 46 105 139 146 151 152 149 141 127 125 130 138 138 138 128 117 117 119 118 122 127 144 151 151 144 129 130 134 131 120 110 105 109 141 166 176 185 199 200 189 186 180 181 185 184 180 181 167 147 138 130 125 123 131 138 147 155 152 157 157 158 157 154 157 161 166 173 175 177 180 181 181 180 176 173 170 166 165 162 162 159 139 117 140 153 132 123 136 22 27 9 21 56 113 143 149 156 155 150 144 141 140 138 135 132 129 120 108 104 105 101 97 106 112 119 130 133 136 140 140 138 129 127 116 116 150 165 172 184 197 202 186 179 179 180 188 188 185 182 177 170 156 151 145 134 127 131 135 135 135 143 148 151 153 157 167 175 177 180 182 181 182 181 180 180 177 174 173 169 164 163 163 158 146 113 140 165 159 148 152 36 41 17 24 62 121 148 150 157 159 156 153 153 149 148 144 138 132 125 117 112 109 105 110 121 129 136 145 152 149 144 143 142 145 133 122 126 157 167 173 184 196 201 189 179 178 181 189 188 189 184 186 184 177 167 160 164 163 159 158 153 157 162 167 171 174 169 174 187 187 187 185 183 182 179 180 180 176 173 174 169 166 164 164 159 149 115 147 178 171 163 165 49 49 30 34 73 125 153 152 157 161 161 159 155 156 154 153 150 150 148 145 147 150 150 156 160 162 162 161 161 150 149 150 151 142 134 128 141 163 166 172 182 195 197 189 182 177 177 185 188 188 188 191 195 192 186 181 178 175 172 178 174 178 186 187 186 186 182 182 191 191 190 187 185 183 182 181 179 176 173 172 169 164 166 163 159 148 119 148 178 182 175 177 57 55 38 37 70 126 156 156 160 162 162 160 159 162 160 159 159 161 159 157 158 157 159 161 161 162 163 162 160 155 157 156 153 140 136 135 155 167 165 173 180 195 197 186 183 182 180 181 185 186 188 191 198 202 195 194 187 186 187 181 180 181 184 184 185 185 188 189 192 190 189 191 189 184 180 181 175 176 174 168 169 167 164 158 154 146 118 150 181 185 179 184 62 63 50 41 68 128 155 155 161 162 160 161 164 165 160 161 163 164 166 162 159 159 158 159 160 166 167 165 163 163 161 156 151 144 141 148 166 170 167 176 185 194 197 188 183 184 181 182 180 181 184 189 199 200 198 197 197 194 195 191 184 186 188 188 186 187 190 193 195 193 193 193 188 184 181 180 176 174 171 163 166 167 161 157 155 139 114 155 187 183 179 187 57 71 64 43 69 127 155 156 159 159 160 163 165 161 159 162 165 166 165 163 162 161 161 162 162 169 168 166 163 165 163 156 152 153 153 159 169 171 168 175 188 198 198 190 185 186 183 181 182 183 182 185 192 193 191 197 194 196 195 190 188 187 189 190 196 193 193 196 197 195 195 194 188 182 180 179 177 172 168 164 166 162 157 155 152 133 112 147 176 185 185 193 51 67 62 40 65 120 157 156 157 163 165 165 163 160 162 159 160 164 166 165 166 168 168 165 167 166 165 164 163 163 160 156 153 158 160 163 171 172 168 178 188 196 199 191 188 189 186 183 186 186 181 183 189 191 189 187 190 194 195 195 189 193 195 193 195 197 199 200 199 197 196 191 185 181 180 179 175 171 166 166 166 158 151 149 145 127 104 134 179 197 195 186 40 50 43 54 69 113 152 155 156 161 163 164 164 164 164 160 161 160 160 159 164 166 166 164 167 168 165 162 159 159 152 150 156 165 167 166 176 171 170 177 188 194 196 187 182 186 184 185 189 186 181 182 189 193 193 190 191 191 196 194 192 194 197 195 196 195 195 197 195 194 194 188 184 182 179 178 175 171 164 165 164 156 149 146 141 116 83 142 197 204 190 172 24 54 47 62 76 107 149 152 153 156 154 160 164 167 163 159 160 157 159 158 164 165 164 167 168 163 160 161 161 157 150 153 163 170 168 173 178 173 172 182 186 191 192 185 181 184 183 185 185 184 184 184 187 193 191 189 190 189 191 193 195 195 197 195 196 197 197 191 190 191 191 187 183 184 181 179 175 172 165 163 162 156 150 146 136 106 88 167 213 207 180 170 10 53 53 57 75 98 147 152 152 153 153 158 162 163 159 156 162 161 159 163 162 165 167 170 169 163 162 160 158 154 153 156 164 169 171 177 177 175 175 185 191 192 191 185 180 185 182 182 183 179 181 189 191 191 189 188 189 188 192 193 195 197 194 197 197 199 199 194 193 189 188 185 183 181 181 178 173 171 164 161 159 152 150 143 130 105 111 177 207 198 177 177 8 38 51 51 62 86 142 154 153 151 151 153 157 156 154 158 159 158 159 162 165 166 164 164 164 161 158 156 155 153 151 149 158 165 173 182 181 173 173 181 190 195 194 189 185 184 182 180 173 175 178 183 187 191 194 192 191 191 191 187 195 199 200 201 200 199 201 197 192 190 188 186 180 181 178 175 174 170 162 160 156 150 147 136 121 104 113 187 199 191 184 184 6 24 54 64 67 79 129 151 153 151 150 149 152 152 154 154 156 160 164 163 165 168 169 163 163 160 159 157 152 149 145 139 150 159 167 186 185 172 175 183 193 199 200 189 183 186 183 175 168 173 173 169 178 188 192 193 192 194 197 195 200 202 200 202 200 197 198 197 193 189 184 183 180 181 176 175 176 172 167 159 152 146 144 131 115 93 119 190 198 194 191 189 0 17 62 74 71 68 118 147 152 151 150 148 149 151 152 156 156 162 161 159 163 167 169 165 162 160 161 159 157 152 138 132 147 159 163 187 189 170 170 183 192 198 200 194 188 185 182 176 171 175 176 168 172 177 185 188 190 191 194 196 200 204 203 202 198 198 196 194 192 190 181 180 177 177 176 176 175 172 167 161 150 148 138 121 113 98 123 185 200 195 194 193 0 3 49 81 71 56 100 141 151 152 149 149 147 147 151 154 157 161 162 164 165 166 166 162 158 158 160 161 156 148 131 123 143 151 163 187 187 166 169 178 190 201 205 201 190 185 180 177 175 176 177 174 175 174 173 181 188 189 185 194 195 203 200 200 201 200 195 193 188 183 182 178 174 175 173 175 174 172 166 160 153 148 136 117 112 112 138 189 199 196 192 189 0 0 30 79 85 63 83 130 147 151 151 147 149 150 151 155 157 160 161 166 164 165 164 165 161 159 159 160 154 152 132 125 153 158 171 187 184 164 168 177 190 206 207 202 189 184 179 178 176 177 174 177 175 176 169 170 178 186 186 189 197 196 196 199 201 199 196 192 189 185 181 176 173 173 174 173 173 168 162 160 155 147 127 119 116 110 146 191 195 195 191 183 0 0 21 74 84 67 67 114 143 152 151 150 148 147 154 157 159 160 161 166 164 164 165 163 160 159 158 158 156 155 126 146 172 170 178 188 182 167 169 179 195 214 214 201 189 180 175 179 176 177 178 177 175 175 171 166 167 174 179 186 192 194 196 198 199 196 195 189 186 180 177 174 173 171 171 173 173 166 161 160 159 147 127 117 110 104 146 185 193 192 184 171 0 1 9 63 80 70 58 101 136 143 152 150 146 146 149 156 159 162 164 164 166 163 162 160 160 158 156 158 160 144 114 173 177 171 180 189 179 163 170 181 194 213 214 203 187 178 175 182 177 173 178 176 175 174 172 171 165 171 171 179 190 196 196 197 197 195 193 188 185 178 178 173 170 173 175 172 171 165 163 157 152 146 127 115 100 100 134 168 183 181 173 125 0 0 0 28 72 75 61 92 129 132 149 153 145 148 151 157 156 163 163 162 163 159 158 160 159 156 155 156 158 120 108 184 172 167 174 185 170 154 166 175 183 199 205 202 187 178 173 175 174 161 167 172 170 175 175 174 165 165 172 179 185 193 195 195 193 193 188 185 182 179 174 174 172 174 176 174 170 166 159 155 147 138 123 103 93 84 94 136 147 133 96 26 0 0 0 2 34 55 51 76 113 128 147 150 146 150 156 159 161 163 163 162 158 156 156 159 158 159 158 157 152 96 99 161 146 146 155 166 157 145 155 167 176 185 190 188 180 170 162 164 162 151 155 160 163 178 181 181 174 161 167 174 180 189 192 194 192 190 185 183 182 177 177 179 174 175 176 174 170 168 159 156 145 132 118 97 95 71 27 32 38 25 3 0 0 0 1 0 0 12 30 67 109 127 136 152 153 153 155 158 162 163 166 161 156 158 159 157 158 157 159 160 143 85 79 120 103 94 102 133 137 127 141 156 167 174 178 172 165 156 144 116 89 89 115 136 164 188 190 190 184 170 162 168 175 185 187 188 188 187 184 184 185 180 179 178 171 173 176 175 169 166 162 157 137 127 112 110 90 56 8 0 5 4 4 4 0 0 0 0 0 1 18 52 106 132 133 151 152 153 153 157 160 159 165 157 154 154 157 155 155 156 161 161 137 87 72 84 79 41 21 42 95 114 118 139 152 159 161 155 155 124 81 68 79 84 107 153 186 190 192 192 191 182 167 166 171 179 185 187 188 186 183 184 183 181 179 175 173 173 174 177 169 162 158 151 132 119 112 104 78 25 9 21 12 7 10 11 0 1 0 1 1 1 13 47 94 122 127 148 151 152 153 159 165 165 165 160 153 153 157 154 152 155 160 161 142 101 82 74 76 60 51 56 79 111 106 109 129 140 147 150 120 91 129 159 163 162 174 186 191 189 192 195 197 194 179 170 170 173 178 185 188 186 184 185 182 179 179 175 175 174 172 171 169 159 155 144 132 114 106 88 63 31 21 22 10 18 22 18 1 0 0 0 0 0 20 44 82 112 122 144 146 150 154 160 168 165 165 159 154 154 156 153 157 157 159 159 149 128 100 82 78 79 92 101 94 82 87 97 106 118 127 122 119 158 171 168 174 180 187 185 184 187 191 198 196 195 191 178 171 171 177 180 182 186 184 183 182 178 181 178 174 176 174 168 166 156 144 140 133 109 99 79 53 24 19 34 35 22 13 8 0 0 1 0 0 0 7 23 58 105 135 132 137 145 150 161 164 164 163 161 154 153 152 151 156 157 158 156 154 147 123 99 83 83 94 96 86 64 55 74 90 88 94 127 162 174 164 151 151 161 170 173 183 187 192 196 196 194 195 188 176 171 177 178 180 185 184 181 182 182 182 180 173 172 175 170 162 147 135 135 132 106 108 80 34 15 26 25 12 2 2 6 1 1 0 0 0 1 0 5 46 99 127 121 126 146 153 157 159 167 166 162 153 151 152 155 155 157 159 157 155 152 137 108 94 85 78 76 71 57 48 45 55 69 102 138 151 152 159 126 116 125 142 146 159 177 183 193 194 195 195 193 189 178 175 181 181 182 184 180 181 182 180 175 172 175 171 167 151 137 121 126 124 107 109 70 28 33 28 4 0 0 1 3 1 0 0 0 0 0 0 5 45 98 122 114 129 143 149 156 163 166 167 159 154 155 154 155 155 159 159 157 153 151 146 131 115 94 76 69 58 54 48 65 103 125 138 128 118 123 136 114 97 100 118 126 133 151 165 178 188 190 189 189 190 184 178 178 180 182 183 183 182 182 179 174 172 173 166 156 141 132 119 127 128 112 100 60 34 25 1 1 1 2 1 4 0 0 0 0 0 0 0 9 39 81 121 124 126 134 140 154 161 167 163 156 156 157 156 154 157 158 154 155 152 149 149 143 114 94 76 74 79 84 91 120 145 152 145 133 99 106 115 99 104 83 101 107 123 134 149 162 175 174 180 183 183 186 182 178 181 183 184 185 182 181 177 171 167 159 166 152 126 130 130 124 124 109 89 46 24 6 0 0 2 5 1 2 1 1 0 1 1 0 0 2 13 50 102 129 120 124 129 144 156 163 160 159 157 155 153 155 157 152 153 145 137 142 132 120 98 85 72 77 80 103 121 116 122 149 149 150 111 103 120 105 96 84 97 106 117 128 135 148 161 162 167 175 171 186 187 181 180 181 182 185 182 180 175 173 169 156 148 143 125 128 116 123 130 104 77 44 17 5 0 0 0 2 1 0 23 6 0 3 2 0 0 0 1 27 88 113 112 119 126 133 146 161 160 160 157 157 157 157 147 148 134 121 126 119 104 89 73 79 85 85 95 91 104 131 143 161 154 157 145 130 134 109 83 100 98 97 112 125 134 136 139 145 154 162 153 168 187 184 179 182 183 184 185 180 178 174 168 166 150 132 115 123 114 121 122 101 60 28 11 3 0 0 0 0 1 0 21 4 1 3 0 0 0 1 1 19 64 100 113 126 117 121 143 156 157 160 159 158 156 146 129 115 115 117 98 95 83 75 76 64 73 83 97 91 128 172 172 171 165 165 164 172 179 168 147 145 145 127 121 148 136 126 131 136 135 142 140 147 167 180 179 181 183 183 181 178 171 168 166 161 147 125 114 126 118 120 107 83 50 21 8 2 0 0 0 0 0 3 13 4 1 0 1 0 1 2 2 7 40 88 108 113 103 115 139 150 159 156 151 147 140 122 108 103 109 95 84 87 79 80 66 55 56 94 128 144 157 170 175 184 185 181 178 173 160 147 150 154 159 156 163 162 127 127 132 122 123 121 131 138 145 162 176 185 185 183 179 177 169 156 157 150 143 122 123 120 120 114 95 69 41 16 3 2 3 2 0 2 10 10 16 7 0 1 0 1 6 7 1 2 19 65 90 93 93 107 127 145 152 145 144 140 134 118 100 101 89 73 86 94 79 87 74 83 104 125 134 129 128 131 138 149 161 163 141 134 136 144 149 148 143 140 139 146 145 131 121 123 108 108 131 138 131 145 164 175 182 184 182 173 168 158 149 129 123 125 100 109 120 99 94 66 28 13 2 3 4 1 7 14 25 15 4 4 0 0 2 10 11 6 1 4 15 43 76 87 99 89 109 132 141 146 146 139 117 101 94 98 77 82 85 82 81 86 100 104 103 102 112 117 129 135 129 130 133 141 126 126 131 135 135 136 132 126 115 112 125 129 131 125 96 100 112 129 122 126 155 165 170 175 173 168 161 154 141 126 110 115 95 98 88 79 79 46 20 8 2 1 1 3 17 19 21 9 5 5 0 2 10 16 7 0 1 4 10 26 57 83 83 80 91 132 145 148 135 126 101 83 81 81 77 75 65 65 85 91 83 75 80 88 102 103 110 119 117 107 117 132 125 109 92 89 89 82 73 83 88 79 72 80 96 95 95 91 95 121 112 121 132 154 177 177 174 163 152 143 137 129 105 106 97 84 67 65 61 28 16 3 0 2 0 7 12 11 11 6 5 3 2 14 14 5 0 0 0 5 6 16 40 71 84 87 87 120 142 143 134 123 96 79 71 70 66 60 57 62 71 52 37 36 43 47 46 50 62 68 70 77 80 87 98 103 106 118 123 122 118 120 127 130 120 93 65 51 65 82 107 115 131 124 125 130 165 177 167 160 147 132 121 129 102 91 87 70 59 62 47 24 21 4 0 1 2 7 6 7 11 6 2 0 3 8 2 0 0 1 1 3 3 11 29 61 90 91 94 110 131 139 127 119 91 74 73 70 74 68 47 27 20 17 33 53 65 72 88 94 94 106 111 119 120 124 143 165 167 168 168 162 156 152 157 153 148 152 159 141 90 89 106 115 137 132 130 121 148 170 164 152 137 128 114 120 105 85 75 66 57 54 39 32 23 8 3 4 0 3 3 7 13 5 1 2 2 1 1 0 0 1 1 2 6 6 16 44 61 78 95 102 121 141 127 107 84 71 81 88 108 110 92 76 79 75 87 107 120 124 137 151 154 158 167 173 177 173 170 172 171 170 169 165 161 157 158 162 162 175 184 181 167 145 134 131 140 138 132 124 132 146 159 147 134 122 114 105 92 77 62 64 58 44 38 24 14 8 7 8 1 1 1 5 8 4 1 2 1 2 2 3 2 1 1 4 5 4 6 28 54 76 87 94 106 118 122 106 90 80 89 121 138 142 139 128 123 117 109 111 117 122 130 140 147 155 162 160 167 167 167 167 166 170 169 165 164 163 164 171 179 184 183 184 187 184 177 162 147 140 132 135 141 150 152 132 119 106 98 93 73 74 53 55 52 43 46 19 1 8 5 3 1 3 3 2 2 8 4 1 0 1 5 9 4 0 6 11 2 1 2 16 45 65 73 81 86 100 106 102 100 95 113 140 149 151 143 131 128 130 122 120 116 118 125 130 135 145 149 152 158 161 163 163 161 159 160 164 171 173 172 174 181 183 184 191 194 199 195 180 163 148 139 137 148 150 135 117 106 92 90 87 72 53 41 43 43 59 65 18 0 1 4 0 1 5 6 3 11 12 3 2 1 1 5 6 3 7 24 14 1 0 0 8 38 58 57 71 72 78 101 106 110 116 135 143 154 156 148 134 128 128 125 119 122 126 132 134 135 138 145 151 155 161 157 155 159 159 160 166 169 169 172 174 177 185 191 193 197 201 195 181 174 173 163 145 145 139 116 104 95 80 86 80 69 37 39 38 54 83 79 18 1 0 3 4 0 4 12 9 16 9 3 4 2 2 2 1 1 25 49 17 0 0 0 7 24 38 49 64 57 67 87 102 113 122 129 139 150 157 151 141 132 126 126 123 123 127 129 128 122 125 134 138 139 142 140 140 144 150 151 155 162 172 174 177 183 192 194 194 194 196 190 183 185 184 177 154 132 126 106 96 82 77 75 63 52 36 35 42 76 101 83 16 3 2 2 4 0 2 8 7 9 2 3 5 4 2 1 0 8 44 49 11 0 1 0 0 10 36 50 57 55 72 82 94 111 124 133 137 145 149 148 145 137 132 125 117 110 115 128 129 116 109 103 105 107 111 116 118 125 138 148 156 164 171 176 185 192 195 197 197 195 192 185 188 190 183 174 162 142 118 107 76 65 84 68 55 43 36 47 70 91 113 86 13 3 4 4 3 0 0 1 7 5 1 3 4 3 1 1 0 19 44 25 4 1 0 3 2 2 33 54 55 61 83 81 93 107 122 135 139 142 144 141 141 139 136 134 128 114 109 119 111 109 107 106 104 100 108 119 124 131 137 143 155 166 176 187 190 194 196 196 196 196 190 187 188 186 176 173 164 146 121 100 69 57 77 63 39 26 36 68 113 127 121 81 12 5 6 5 0 0 1 0 2 2 5 2 2 0 1 0 4 29 36 16 5 2 3 6 3 0 34 63 54 50 69 87 95 111 118 124 131 137 139 138 141 140 138 136 135 128 116 117 117 118 120 124 117 115 114 124 139 148 154 155 153 168 183 189 193 192 193 193 192 193 185 183 184 181 164 153 146 143 126 93 76 59 46 48 26 28 63 92 137 138 120 78 9 6 9 8 4 1 4 5 5 4 2 1 0 0 1 4 13 34 32 17 4 1 4 5 3 0 27 71 46 32 54 77 89 95 111 117 123 134 134 135 139 138 136 137 135 130 125 130 131 132 136 134 131 134 129 138 150 164 166 173 172 170 182 188 191 193 193 191 189 191 187 179 170 161 158 133 119 117 116 88 74 59 37 30 24 55 94 121 146 137 123 73 9 12 12 8 8 3 2 7 16 34 28 0 0 3 10 19 27 38 33 19 6 1 2 3 2 0 24 81 61 38 48 52 70 86 96 114 121 126 133 138 139 138 140 140 139 139 140 143 143 141 143 144 154 156 155 157 164 172 174 178 184 183 185 185 190 194 191 193 193 186 183 178 162 145 140 120 98 87 79 67 56 47 27 24 34 92 124 139 150 139 126 67 17 31 27 12 8 9 3 5 23 44 41 1 5 12 20 26 34 43 37 21 8 2 2 2 1 0 21 83 79 58 50 50 68 72 90 114 120 121 130 138 140 144 143 146 148 147 148 153 155 160 164 167 171 171 173 173 181 180 185 184 188 187 190 188 191 194 193 193 190 183 175 164 150 134 119 118 88 69 42 47 36 19 16 33 85 127 149 152 150 141 129 67 18 44 45 26 12 11 12 5 17 27 16 12 11 21 29 32 40 44 34 20 8 3 2 1 0 0 18 80 87 66 58 54 65 66 86 105 104 118 125 137 145 149 151 149 153 154 154 158 159 161 164 168 172 179 183 180 186 188 188 190 192 193 192 193 193 191 190 191 190 187 175 152 130 115 105 85 67 53 33 35 37 20 29 82 122 143 154 153 151 142 129 65 12 31 41 32 25 21 23 19 10 10 12 25 26 41 46 41 46 44 32 21 8 2 1 0 0 0 15 76 98 84 62 42 50 62 80 91 106 118 128 135 144 149 154 151 156 159 156 158 159 157 162 164 168 176 177 179 186 189 190 191 192 195 195 193 189 190 190 189 186 184 175 144 101 87 94 57 37 35 30 29 28 44 86 123 134 154 155 154 151 139 128 63 12 29 37 28 32 38 43 47 35 14 6 40 47 60 55 50 55 47 34 25 9 2 1 0 1 1 13 74 101 92 70 47 30 47 67 70 99 107 120 126 135 144 151 154 159 162 159 159 159 157 159 159 163 163 159 181 179 179 186 190 192 193 193 191 190 188 185 181 179 177 166 133 81 84 88 36 29 25 20 23 26 62 116 134 147 154 153 152 150 140 130 59 14 49 60 43 30 40 51 71 74 48 22 59 63 65 60 66 70 59 45 32 9 2 1 1 1 1 11 69 99 95 90 81 54 37 40 52 67 94 98 105 117 136 148 152 156 157 159 157 162 150 147 149 155 164 154 164 167 178 184 184 189 189 188 190 180 174 168 169 160 157 132 106 75 72 58 22 15 20 19 30 56 95 129 142 151 152 147 150 148 142 133 59 5 75 107 80 38 26 37 70 95 80 43 54 53 64 80 89 88 69 53 37 11 2 1 1 2 1 11 69 99 98 92 83 64 41 35 46 50 73 74 86 99 124 131 134 145 146 149 153 148 138 141 132 137 152 147 141 156 174 173 174 179 178 172 178 170 167 153 143 142 137 112 75 53 44 24 15 13 19 27 44 87 112 133 148 153 148 147 150 148 140 130 61 1 75 130 109 62 26 25 51 96 94 65 38 52 82 99 99 91 68 54 35 12 2 1 2 2 2 12 66 97 96 91 82 62 47 20 30 41 56 59 67 87 106 95 110 131 124 130 138 131 140 135 122 133 143 134 130 157 162 153 153 147 152 148 153 145 140 147 127 117 101 81 44 44 25 13 13 15 28 65 93 114 132 145 153 152 148 151 151 148 141 130 61 23 92 125 127 88 37 26 43 89 93 69 43 75 99 106 109 102 81 75 52 23 5 1 2 2 2 10 61 93 95 92 88 72 45 22 17 34 41 55 63 65 75 72 91 102 112 115 116 122 128 122 111 112 139 123 114 147 148 137 139 129 128 130 128 129 110 110 106 95 81 58 32 24 26 14 12 18 45 95 115 133 147 150 154 151 152 153 150 146 141 129 62 55 125 136 126 113 63 31 42 85 90 66 64 95 121 135 135 121 96 88 65 39 7 2 3 3 2 9 56 92 96 93 92 81 65 51 25 21 29 45 49 46 54 63 65 74 82 75 98 107 109 107 99 98 134 112 99 124 134 117 138 121 99 101 99 93 80 67 83 72 49 34 26 13 14 19 14 31 68 109 125 142 146 149 153 152 150 154 150 146 143 127 65 85 142 154 134 116 95 62 47 69 74 73 98 124 144 147 129 102 77 67 45 30 7 2 3 3 2 9 50 86 96 94 91 86 70 56 44 26 30 38 39 30 37 44 36 48 55 64 85 90 100 92 90 103 133 102 85 97 109 108 116 99 75 81 81 70 62 41 59 38 27 20 14 8 13 19 33 44 77 125 134 140 145 149 150 149 149 153 148 146 144 124 77 113 149 165 147 111 101 93 87 86 77 82 129 133 132 121 106 85 67 55 35 24 6 2 3 3 2 7 44 79 94 94 90 83 72 65 54 50 30 28 34 23 25 26 21 28 44 65 74 76 84 90 83 95 108 95 87 89 86 90 97 82 65 72 64 54 42 35 29 20 15 10 13 16 21 29 33 59 102 137 140 148 153 154 153 147 152 152 149 148 144 114 88 132 150 166 158 121 107 100 109 107 81 86 129 118 119 113 103 83 71 50 31 22 7 4 4 3 2 7 40 73 89 93 88 82 75 70 64 62 45 25 29 15 20 23 16 19 28 37 48 66 60 68 78 70 81 83 83 79 63 79 75 46 52 61 36 38 36 26 13 11 14 10 17 20 29 42 69 99 136 149 151 154 157 154 151 151 153 152 151 149 145 106 99 140 150 165 156 134 127 121 122 117 94 93 117 118 126 122 110 84 75 52 35 23 6 2 3 3 2 7 34 66 83 90 89 83 74 72 65 66 65 52 36 16 17 19 13 15 26 21 33 44 48 58 70 55 64 54 58 55 43 48 42 39 38 28 21 32 21 10 5 11 19 15 20 30 46 71 107 129 140 150 155 154 158 152 148 153 153 152 149 147 139 93 110 145 157 173 154 132 133 138 133 126 118 118 120 129 138 131 113 88 81 58 41 24 6 3 3 3 2 6 28 58 78 86 88 85 78 71 68 67 64 57 50 34 22 19 11 11 15 19 19 27 29 32 48 45 42 30 38 37 28 24 18 30 28 14 21 13 3 9 8 12 23 20 28 55 70 102 126 139 142 148 154 156 159 152 151 155 153 151 147 148 129 82 120 150 157 171 155 135 133 136 135 127 127 133 125 138 145 138 118 93 86 66 53 28 8 3 2 2 1 7 25 51 70 80 84 84 79 72 67 66 65 64 54 50 45 20 9 11 10 16 12 18 18 13 27 22 23 20 22 21 20 12 15 16 20 13 11 5 12 16 14 22 30 43 63 87 102 115 129 143 150 158 158 156 154 153 153 154 152 151 148 144 107 84 134 153 155 169 152 131 137 139 134 118 128 130
