P2
# Generated by OpenCV 4.2.0
92 112
255
133 139 114 98 96 112 52 68 49 36 48 82 63 48 42 35 37 43 50 49 50 33 35 40 40 54 42 47 47 55 51 60 66 75 67 72 81 54 63 72 89 107 81 98 144 143 103 98 91 98 76 80 59 88 78 66 63 89 51 40 82 52 46 58 50 50 61 28 72 101 25 43 72 74 42 60 53 52 40 73 74 44 51 49 60 53 61 70 147 241 165 208 94 81 5 94 108 77 41 43 52 62 53 64 55 35 28 43 49 36 41 41 46 42 49 41 45 41 51 50 62 76 85 73 89 104 82 114 91 60 103 110 82 93 85 123 148 155 126 119 129 115 109 89 99 93 89 66 71 93 50 61 57 75 48 94 58 61 39 64 91 66 23 38 83 52 28 49 39 42 50 53 65 55 65 44 52 50 61 65 117 187 138 197 69 4 18 55 85 93 76 64 43 47 49 60 42 43 33 33 21 39 33 46 50 39 43 45 52 46 55 56 72 73 75 88 104 91 131 112 135 82 95 103 110 110 107 142 158 144 128 144 135 136 133 114 129 110 112 91 90 98 83 73 60 76 69 70 62 64 45 85 114 30 45 54 53 36 18 22 18 27 40 62 57 74 68 55 56 57 79 81 90 200 228 212 29 18 33 86 34 71 52 56 58 58 55 58 35 28 24 23 31 29 37 41 33 41 42 49 55 59 60 64 70 77 88 99 115 144 139 141 151 94 111 122 95 140 131 105 161 141 163 160 159 153 160 140 138 125 148 123 101 107 98 94 79 77 97 76 76 49 82 102 56 47 41 78 76 35 37 43 43 25 30 41 75 58 61 56 47 55 78 68 92 163 189 220 20 24 81 66 53 50 56 53 45 40 29 34 40 27 27 30 28 27 31 31 37 49 41 69 70 72 75 86 89 90 112 132 116 130 168 147 149 132 147 92 103 142 124 136 136 148 161 174 173 174 168 176 159 145 145 151 135 156 122 118 104 92 89 72 65 72 94 98 40 56 74 55 65 31 54 46 43 49 51 31 29 51 52 64 75 64 65 77 63 218 196 188 54 34 95 35 76 26 38 28 26 13 18 21 40 35 33 27 28 38 27 33 26 43 48 43 55 82 88 103 107 116 114 144 161 155 156 162 156 181 145 116 130 139 158 139 129 150 170 181 181 177 177 176 176 172 170 161 154 157 151 133 130 117 104 77 84 98 88 82 72 47 51 53 60 62 56 58 57 43 53 53 63 48 60 71 71 94 65 49 83 178 171 198 55 37 103 39 56 40 44 43 19 10 13 16 29 41 27 27 32 48 46 40 35 42 54 59 95 91 102 117 137 145 147 170 156 179 184 175 171 167 167 160 137 143 147 151 154 155 182 187 187 181 182 181 178 176 176 171 168 161 159 158 150 139 121 131 117 109 101 74 66 74 49 51 60 67 53 52 24 52 51 58 57 40 42 59 41 37 50 79 132 169 193 170 37 52 65 39 38 58 33 33 19 19 15 15 15 34 31 24 23 24 55 41 32 54 52 91 128 111 133 148 152 164 181 188 197 203 189 194 189 176 189 145 159 146 164 160 158 173 183 187 188 186 184 186 184 183 182 182 183 174 175 166 161 160 148 151 136 123 120 107 94 67 69 78 59 57 65 67 53 33 43 44 69 66 43 42 47 35 73 68 50 159 180 126 35 39 39 54 42 18 43 24 12 9 12 20 24 29 26 37 35 41 34 35 38 44 80 106 112 120 140 145 170 190 192 197 207 213 220 213 197 198 193 180 173 164 172 172 175 177 185 189 188 189 187 188 189 186 183 183 185 182 174 173 170 165 158 156 151 141 132 129 113 88 69 70 73 40 40 43 47 40 53 47 55 63 67 36 57 52 47 50 61 239 78 108 66 48 43 51 38 24 20 18 17 9 20 27 36 40 20 22 35 46 52 43 44 71 69 88 129 143 161 174 183 191 198 197 209 205 218 204 203 199 191 197 182 176 164 176 179 189 191 188 188 188 190 188 185 186 189 187 184 183 181 176 174 174 160 168 163 158 142 132 124 132 92 79 65 55 28 34 39 45 49 42 44 48 71 83 72 67 40 49 38 49 100 87 40 49 40 30 22 59 18 27 4 7 36 55 35 15 21 37 33 46 49 63 57 60 99 135 156 168 180 186 192 198 214 209 209 213 210 213 217 209 205 196 194 188 181 183 186 190 188 189 190 189 191 189 186 189 187 185 185 183 185 180 176 174 168 169 168 165 157 158 141 127 116 105 89 63 51 34 20 32 38 41 57 48 43 42 37 36 42 49 50 63 62 98 45 17 11 16 10 14 64 48 11 22 22 49 53 56 39 38 47 50 74 77 79 113 137 150 163 177 184 193 198 204 214 212 211 217 215 211 213 207 208 201 197 194 186 188 190 190 189 190 189 187 192 191 189 187 187 186 184 183 184 181 179 178 174 175 173 173 167 163 159 157 133 131 108 88 56 49 32 24 45 41 39 68 46 56 38 42 37 41 36 37 76 85 25 26 29 35 46 27 13 32 9 36 41 48 56 37 37 48 65 90 92 106 115 132 152 167 181 187 197 199 205 209 212 214 211 215 208 211 212 203 201 198 204 197 192 193 193 190 188 188 190 191 186 189 190 188 186 186 185 185 181 179 180 178 178 176 172 172 167 170 162 155 159 139 125 111 74 51 45 44 43 52 60 72 41 48 54 58 43 40 41 40 74 62 30 17 6 5 7 9 25 22 13 22 40 55 55 29 66 70 83 90 121 133 149 161 170 178 192 195 195 200 208 213 210 207 204 215 211 208 202 207 203 202 199 202 199 192 191 187 187 188 189 185 187 186 186 186 187 186 180 184 181 180 180 178 178 178 173 175 173 172 173 159 153 144 146 121 102 58 61 56 38 31 74 56 48 43 37 41 45 42 43 61 67 81 38 23 12 12 17 25 24 14 19 28 24 65 72 43 66 85 109 123 143 158 163 167 171 183 188 195 196 200 201 203 205 208 207 209 207 205 206 203 203 197 196 194 193 195 192 192 192 191 187 186 187 185 185 187 187 187 184 182 186 181 181 178 178 179 176 175 176 175 172 168 167 163 155 141 117 77 45 54 39 35 53 51 52 46 40 38 48 50 45 54 43 70 22 30 56 50 43 32 30 35 21 25 59 74 30 45 76 107 134 145 159 169 172 173 174 187 189 192 194 197 201 202 203 206 203 202 200 202 200 199 197 196 195 194 195 191 192 193 194 192 188 186 186 185 184 191 186 187 184 184 185 182 181 179 176 178 180 178 179 179 173 171 169 170 155 147 129 83 74 48 58 53 36 56 54 47 47 36 35 36 50 42 62 56 39 37 18 17 27 22 17 17 28 35 51 61 40 67 109 133 148 153 162 172 171 175 180 184 190 191 194 195 197 197 195 198 202 201 199 199 196 196 192 191 192 191 192 194 193 190 187 188 187 187 186 186 187 185 183 186 183 182 180 181 180 178 178 176 179 176 177 177 177 178 173 169 162 158 148 100 77 59 52 48 45 48 55 49 47 53 48 48 43 45 50 68 41 42 35 40 21 42 44 14 32 15 76 44 72 87 128 148 154 162 174 175 172 174 174 182 188 187 189 188 190 192 192 198 196 195 197 197 193 194 189 188 188 189 187 188 189 187 184 190 188 188 185 184 183 186 186 184 182 183 182 180 179 179 180 178 180 179 184 179 177 179 176 168 161 156 153 114 84 71 58 51 57 40 48 50 43 35 37 42 53 56 72 66 41 41 40 36 32 14 13 19 39 41 67 58 75 115 143 154 161 166 173 171 176 174 176 176 182 184 183 187 187 193 192 193 194 191 191 193 194 196 191 193 190 195 193 194 191 187 188 189 188 189 185 184 185 186 185 183 183 181 181 180 179 178 177 178 178 176 181 180 179 178 178 172 170 158 145 146 96 85 65 61 53 52 48 53 52 57 42 40 41 63 45 55 51 55 34 33 29 39 41 14 27 47 67 57 79 119 151 160 163 172 173 174 177 176 176 180 181 182 189 190 190 189 192 195 194 196 199 191 191 190 188 188 187 189 189 190 188 189 190 186 183 183 182 184 183 183 181 182 180 178 178 178 176 176 177 178 180 180 182 179 180 178 176 176 166 164 156 130 112 78 71 58 63 46 54 53 43 50 53 64 51 45 46 52 41 36 44 39 33 47 19 29 36 81 72 72 100 126 156 164 166 174 175 178 172 172 171 173 181 183 178 180 186 189 193 194 195 194 189 194 191 189 186 190 193 193 189 186 188 187 183 187 186 185 188 186 187 184 184 183 181 180 180 176 174 175 178 179 178 178 175 177 179 178 177 178 171 166 155 136 111 102 75 60 61 61 36 56 57 58 41 25 38 44 67 76 23 27 31 23 27 24 21 15 34 77 66 83 102 140 165 170 170 174 176 178 174 175 175 180 179 177 184 179 182 185 185 189 191 193 192 188 189 191 188 190 190 188 188 187 185 186 183 184 186 186 189 186 189 185 184 184 183 180 177 179 179 175 171 177 172 176 180 178 177 178 179 172 178 168 158 139 118 102 86 66 59 68 47 46 41 48 54 54 56 52 51 57 18 24 22 21 33 34 14 16 51 68 70 83 107 145 165 173 173 180 178 171 173 172 172 173 178 179 182 183 185 185 186 189 192 194 195 193 190 189 192 189 187 188 186 184 184 182 183 178 187 187 188 187 186 185 185 184 182 181 181 179 178 176 179 180 179 178 177 179 181 179 181 177 174 171 160 147 125 98 81 80 60 54 54 41 38 29 46 29 33 31 50 52 13 13 21 20 24 27 26 31 39 70 72 89 106 148 167 173 174 175 173 172 173 174 174 169 175 180 179 182 186 190 191 195 196 196 195 192 188 196 193 192 190 191 185 185 185 184 188 190 195 191 187 186 186 186 185 185 182 181 182 179 179 178 179 180 180 179 178 178 179 180 177 179 176 173 161 143 131 102 84 74 71 58 70 37 38 44 22 41 37 39 43 51 24 14 11 15 10 20 28 30 52 63 62 88 127 147 160 172 171 174 174 170 171 173 171 173 179 180 185 191 191 190 190 195 197 192 193 194 192 191 194 190 188 188 187 183 182 189 184 190 187 186 188 186 184 187 184 186 187 185 184 183 179 182 177 179 180 179 178 178 178 179 179 178 176 174 165 151 136 108 83 59 70 62 50 39 36 32 48 27 39 32 31 23 26 27 8 10 12 12 24 29 48 62 65 88 119 156 159 171 166 176 177 172 170 174 170 173 181 185 191 188 191 193 193 194 197 196 194 190 191 191 194 192 194 188 188 188 188 190 189 191 188 189 192 189 188 190 187 186 183 184 186 182 181 184 179 180 180 180 179 176 178 178 185 179 178 176 167 152 139 117 83 73 62 50 39 45 29 44 22 36 24 40 41 44 22 19 10 22 14 11 22 35 35 55 74 103 135 150 165 172 172 174 173 173 169 172 176 179 182 186 186 189 194 193 193 192 197 198 198 194 193 192 192 193 193 186 183 182 185 189 191 193 190 189 188 190 189 188 188 186 185 185 185 183 179 179 182 182 184 181 179 178 180 179 179 177 180 176 170 150 140 121 88 67 60 49 43 42 55 32 42 31 38 39 38 41 27 19 28 23 8 8 15 27 30 65 84 106 133 151 166 166 171 172 174 172 172 176 175 182 185 184 187 187 191 193 195 196 196 197 194 194 193 192 192 189 188 192 191 192 191 191 187 190 190 191 191 188 190 188 186 185 185 185 184 184 184 181 179 181 180 178 181 179 180 180 179 178 180 177 172 160 147 122 106 80 55 70 25 73 54 48 50 42 27 30 44 40 46 40 23 7 12 11 21 25 50 74 71 90 133 155 167 165 169 173 171 174 173 177 180 180 183 182 185 187 189 190 193 193 195 196 193 194 195 192 188 192 188 186 184 186 187 188 196 191 192 192 191 187 188 186 186 185 183 183 186 182 183 184 180 183 182 180 180 180 181 181 177 179 178 177 176 169 161 139 91 81 58 49 41 61 51 37 22 37 42 44 35 46 14 15 24 12 9 12 16 46 54 56 69 96 124 143 168 164 166 163 168 171 176 173 179 177 179 186 183 186 185 185 188 187 190 191 198 196 190 188 189 191 191 186 187 185 187 192 189 190 191 190 188 189 186 185 186 184 184 183 182 182 181 183 181 180 182 181 181 180 180 178 175 176 179 179 179 169 165 148 121 84 66 44 40 75 54 40 32 29 31 36 40 32 25 35 40 6 13 6 41 52 52 51 71 96 120 143 152 161 161 164 168 172 175 173 178 178 177 175 184 180 180 181 185 190 188 188 186 188 188 187 186 188 188 185 181 184 187 187 185 186 187 185 186 185 184 183 182 183 183 183 184 183 182 181 180 184 184 181 184 181 180 177 176 178 179 179 174 175 167 155 133 84 85 50 56 62 37 31 27 23 42 37 28 37 45 24 32 44 24 33 47 48 38 48 69 93 117 137 154 155 165 163 166 170 175 174 177 175 176 177 173 176 177 175 176 178 180 182 184 184 182 180 185 181 183 185 181 184 185 185 185 184 183 179 180 180 182 181 179 181 182 179 183 182 180 180 181 178 181 181 182 184 182 181 180 178 177 178 173 177 173 166 150 93 79 87 50 40 47 14 26 21 26 38 42 30 43 26 37 17 33 44 43 31 34 44 70 85 108 140 153 159 159 166 175 174 174 177 174 175 174 175 173 176 173 168 168 174 177 177 176 177 177 175 179 180 178 178 179 179 181 180 178 179 180 177 176 177 179 180 179 182 183 182 185 183 179 180 181 181 182 180 182 183 184 182 180 182 181 178 180 176 175 169 163 118 73 89 54 53 49 35 23 20 24 35 34 38 7 8 7 7 11 37 45 34 38 48 68 87 115 136 149 159 160 170 168 174 180 178 177 177 176 175 175 172 169 164 165 171 170 168 172 173 176 176 178 176 180 175 179 176 174 174 175 172 175 173 172 174 177 179 181 183 183 186 185 182 183 182 180 180 184 182 182 183 184 183 182 180 178 181 177 179 179 169 174 137 99 77 61 38 28 30 32 33 17 37 38 45 13 7 10 9 24 25 28 25 35 51 71 90 108 136 148 151 161 167 174 176 181 181 181 176 175 177 173 174 169 171 175 166 165 168 168 170 168 170 171 174 174 172 168 172 173 173 169 169 173 166 170 167 170 170 176 176 182 181 181 180 185 179 176 179 181 178 182 182 184 183 181 183 180 182 176 181 183 173 177 146 111 73 96 32 30 23 40 31 31 27 37 40 5 13 14 29 26 26 19 37 43 48 65 97 111 137 152 158 163 171 178 178 182 180 177 175 175 171 172 177 183 176 171 161 156 157 153 156 159 162 163 169 169 166 166 170 171 171 166 157 168 172 152 155 159 165 158 172 166 177 180 177 179 180 183 179 176 180 182 180 175 178 182 180 181 184 180 177 180 174 178 159 133 82 102 29 19 20 17 43 27 31 33 40 20 11 15 22 22 20 35 40 39 49 78 96 130 150 151 159 172 175 175 181 182 177 174 178 177 177 182 177 177 176 162 129 121 137 148 131 159 151 157 167 170 165 168 172 172 168 163 158 159 155 156 139 142 118 135 161 134 150 155 161 169 167 173 170 162 169 168 162 170 175 177 178 180 182 181 178 180 179 178 176 141 88 93 51 23 20 22 22 55 23 40 41 10 17 17 25 29 25 36 27 37 49 75 101 134 145 160 168 172 169 178 180 174 173 177 180 177 176 173 158 140 142 121 104 88 116 104 83 135 146 149 159 159 165 164 168 167 164 160 150 153 149 145 135 156 111 92 131 142 121 114 102 110 122 130 149 140 138 144 153 158 156 163 172 174 178 181 180 181 180 177 173 153 87 85 67 27 15 20 31 50 41 40 40 13 21 14 15 30 29 29 32 28 49 79 108 140 144 162 168 170 171 175 174 161 156 172 160 152 157 142 128 90 71 94 105 70 97 91 112 122 138 144 152 152 152 157 161 153 161 158 150 147 149 135 120 111 118 133 116 113 82 94 76 81 77 72 83 137 110 124 116 126 133 143 154 170 176 182 176 179 179 180 170 158 86 70 38 23 14 25 24 49 37 30 22 8 21 9 17 25 36 17 21 32 60 90 116 149 154 166 166 168 164 155 165 158 128 132 118 117 95 90 69 69 46 63 74 78 84 79 106 107 116 138 141 149 147 159 161 158 152 164 150 140 139 125 132 120 101 96 95 67 80 60 65 56 54 70 60 87 117 101 82 91 119 135 155 157 175 181 181 179 180 180 173 160 92 70 46 25 15 16 22 31 57 33 37 14 20 12 13 24 35 34 15 35 71 101 130 152 155 160 166 149 137 123 125 120 93 99 74 54 65 62 65 59 52 49 51 72 72 77 82 103 118 120 136 133 143 154 154 156 154 153 151 138 138 122 124 114 124 111 110 85 88 89 84 86 80 73 79 98 92 94 99 94 105 131 135 137 153 176 177 178 182 176 177 161 89 64 54 25 19 17 14 18 67 33 31 14 20 34 12 25 41 42 11 33 75 114 136 153 159 169 166 145 127 108 69 74 88 76 74 60 41 46 53 64 67 82 83 78 71 78 77 95 105 121 114 129 135 149 149 158 155 162 154 138 132 133 123 126 131 133 120 118 108 110 115 115 116 119 117 118 118 126 126 136 130 120 126 142 149 177 182 183 178 182 178 164 95 57 62 33 27 16 21 39 41 43 39 11 34 29 14 20 15 40 15 35 82 116 139 149 162 163 140 112 112 94 72 60 73 67 78 94 96 107 102 111 108 92 96 89 86 83 79 81 93 99 108 115 132 145 152 162 164 165 160 148 136 133 133 130 123 112 103 92 71 56 66 83 89 115 119 128 140 144 139 141 150 131 150 144 156 174 179 180 179 177 179 174 104 63 47 36 30 21 11 35 23 38 33 8 19 44 18 16 24 40 23 37 91 126 145 150 163 159 143 102 82 76 83 74 83 107 96 100 106 107 122 115 105 93 79 69 72 72 76 74 81 88 94 110 130 142 156 165 174 172 170 159 148 142 134 121 111 97 65 57 56 81 82 69 55 54 71 89 92 100 126 146 159 159 157 156 155 175 180 182 182 182 177 184 127 79 47 36 32 41 22 27 33 46 32 6 14 18 8 23 26 46 26 36 105 134 147 152 165 156 137 122 88 95 88 91 92 94 104 103 98 87 71 50 46 62 73 72 60 49 56 64 68 77 87 103 133 155 173 179 179 174 173 163 157 143 123 111 96 64 68 75 69 44 17 24 35 50 32 24 39 85 113 108 140 161 166 156 155 174 178 178 180 183 185 178 140 94 35 47 41 27 46 36 19 36 44 18 3 9 11 24 20 37 33 44 116 130 152 157 164 156 134 104 99 105 103 102 99 93 79 50 32 13 20 18 45 30 23 43 64 75 57 52 58 63 79 108 145 170 183 188 183 181 180 165 160 135 121 101 75 77 92 60 50 52 34 31 92 36 101 44 91 33 46 111 107 143 161 149 150 168 172 177 182 184 179 185 147 111 51 55 74 75 75 24 30 33 40 17 14 12 16 61 41 52 39 51 121 145 153 155 164 150 137 110 106 108 103 93 74 44 31 20 17 18 33 74 12 113 28 119 38 39 59 81 59 62 90 114 156 175 191 192 186 183 180 168 160 135 125 93 108 92 51 44 84 68 41 21 30 30 50 61 81 68 35 29 74 112 147 162 151 154 168 177 180 181 179 179 157 106 62 45 65 30 36 97 116 21 31 4 15 19 26 40 26 43 37 59 118 148 157 157 161 142 122 111 104 98 88 57 29 18 16 32 26 26 24 24 24 45 44 56 52 54 61 63 96 67 100 130 160 175 187 189 183 177 174 166 160 140 124 137 116 86 92 96 84 102 106 109 105 123 142 113 130 135 150 152 116 104 128 142 152 160 164 177 179 179 181 178 159 114 52 61 18 91 133 153 168 174 84 4 27 36 18 9 24 23 47 63 128 153 157 158 153 135 112 103 78 82 62 32 28 30 57 64 76 71 107 121 96 120 112 104 106 105 100 114 104 99 122 141 162 176 189 185 184 183 177 171 163 147 143 148 145 115 119 110 110 100 104 119 119 115 133 149 143 156 165 166 148 135 146 150 155 165 169 176 179 184 182 188 171 114 73 48 45 133 155 175 169 178 194 67 165 146 100 50 20 31 48 64 137 161 161 165 153 139 123 99 85 71 60 53 75 81 87 87 98 104 98 118 121 126 117 107 113 98 99 111 102 133 137 146 167 183 189 186 187 184 178 174 169 159 148 147 131 123 107 115 112 117 121 132 127 132 138 149 151 153 155 161 160 160 160 158 163 166 169 177 179 180 179 178 170 135 83 67 84 155 170 180 177 185 174 156 151 136 141 89 29 18 57 72 143 160 163 162 158 151 151 144 122 112 104 107 108 99 95 94 97 100 103 108 116 118 117 110 104 113 107 117 140 145 147 149 172 180 192 184 184 183 183 175 170 168 161 153 144 138 137 134 124 123 119 117 120 130 134 141 147 155 157 157 157 160 160 165 167 173 175 176 182 183 181 186 185 141 83 80 142 167 181 148 63 88 152 132 125 157 141 109 35 43 48 79 151 160 164 162 157 159 157 159 153 149 137 123 119 110 106 103 102 101 98 99 99 99 107 115 120 125 124 147 153 148 150 162 176 187 192 188 187 185 182 175 171 173 167 163 162 156 151 147 144 140 141 143 141 140 145 148 148 153 159 159 162 164 165 170 167 170 176 177 183 184 185 183 179 157 112 100 154 168 152 104 88 94 151 91 57 85 141 110 44 61 52 99 157 164 164 162 158 163 164 165 162 159 150 141 134 121 109 106 106 107 113 116 124 133 136 137 137 138 149 158 148 159 156 171 177 190 193 188 188 187 184 178 171 177 172 169 170 168 164 162 155 154 154 148 152 157 159 161 160 163 164 164 165 169 168 172 170 172 177 176 177 187 186 186 182 176 143 133 170 172 169 127 86 102 150 99 68 66 71 119 56 40 62 112 167 163 165 161 159 161 167 168 166 163 161 153 155 148 145 138 139 140 143 145 143 143 147 148 152 155 162 153 155 161 165 176 186 187 197 190 189 188 185 183 173 179 177 173 169 169 167 177 164 160 162 161 163 162 163 163 161 162 165 172 172 170 172 175 174 174 179 178 181 184 188 186 184 180 137 159 155 175 179 152 98 110 149 107 71 67 66 92 84 50 82 136 160 164 165 165 164 164 166 166 165 170 172 169 164 161 156 151 151 147 149 149 152 156 158 160 167 165 161 159 164 168 169 179 187 192 192 193 186 186 184 182 178 176 176 176 172 172 178 173 171 166 169 160 163 164 166 164 164 168 169 170 173 175 175 175 174 174 179 180 179 182 184 183 189 180 145 165 159 171 176 174 111 121 153 141 73 77 93 108 85 66 101 148 164 168 164 164 166 163 163 166 172 177 172 171 173 169 167 163 163 161 164 161 164 164 167 167 167 164 162 162 168 166 172 179 187 189 195 192 191 187 184 181 177 182 180 179 174 171 172 175 176 172 170 170 166 164 166 170 169 168 170 172 174 176 176 178 179 179 179 180 181 182 185 183 187 181 159 152 182 184 180 178 108 109 157 143 92 80 118 124 145 75 106 159 164 160 163 164 162 158 162 163 174 170 172 176 173 172 173 177 173 171 167 169 170 167 169 169 167 165 163 164 171 169 174 178 192 196 194 193 193 186 187 183 180 180 182 179 175 176 173 174 174 176 175 171 170 174 173 173 176 175 173 177 177 174 176 179 180 179 180 179 181 180 185 186 189 183 160 123 134 178 185 186 126 121 164 153 109 95 156 146 143 69 113 166 169 166 165 168 164 164 167 163 162 154 168 170 173 175 172 172 174 176 170 176 174 175 170 170 166 165 167 168 168 168 173 176 188 186 198 194 190 189 184 183 188 181 180 182 178 176 173 174 173 177 180 176 175 172 179 176 176 174 177 177 177 177 177 180 181 182 182 180 182 179 186 184 189 188 146 121 121 162 170 182 149 126 181 147 127 87 154 149 131 76 116 167 167 162 166 163 163 162 166 169 163 171 166 170 166 173 173 174 175 177 178 176 177 174 170 174 166 169 169 166 166 161 173 175 191 186 191 189 186 185 183 184 187 180 175 174 179 178 177 173 174 175 175 176 178 176 177 175 177 179 177 176 178 179 182 182 181 181 182 180 181 179 185 184 189 189 164 107 131 148 162 178 181 145 205 134 133 100 147 133 100 71 113 167 165 158 161 165 162 162 164 162 169 167 166 168 174 169 171 174 174 176 177 177 175 174 167 168 171 165 161 154 158 154 169 178 185 183 191 190 186 184 183 183 190 180 171 170 175 179 177 176 176 177 177 176 177 182 179 179 179 179 180 180 180 176 177 180 185 182 182 181 177 181 184 184 190 190 165 111 125 146 154 171 194 152 187 112 138 115 145 128 102 72 117 166 162 159 161 158 159 156 160 164 168 161 164 171 166 170 171 173 180 179 180 180 174 174 168 168 167 160 149 147 158 162 175 180 185 180 188 190 184 184 182 179 188 184 172 168 163 168 175 178 175 174 179 177 178 183 179 181 181 181 182 184 179 181 181 180 184 183 181 181 179 182 184 185 190 185 155 131 127 139 156 172 184 156 165 85 148 114 146 123 98 87 109 162 166 164 166 154 153 158 156 161 157 156 158 165 167 171 176 175 177 182 179 180 175 177 174 172 167 148 142 161 175 178 173 176 186 179 185 183 187 186 182 183 187 185 179 179 165 161 165 175 176 180 178 177 183 183 183 182 180 178 183 182 184 181 183 180 178 181 179 180 181 182 184 187 191 185 135 172 135 153 167 171 165 171 132 56 153 115 136 112 90 79 113 164 169 159 160 154 152 152 154 156 152 157 158 162 173 165 170 173 178 175 178 172 174 173 171 165 157 141 150 178 181 179 171 176 175 170 179 179 181 189 185 186 189 190 177 177 178 168 160 164 174 176 172 177 179 182 183 181 181 181 182 182 181 182 181 180 180 178 181 180 181 180 184 189 191 181 139 177 140 156 167 179 132 175 89 18 160 105 141 123 101 82 106 157 163 162 157 152 151 152 145 152 152 152 156 152 166 173 175 176 178 174 175 172 173 173 166 161 156 139 177 182 184 174 162 158 158 167 170 178 180 183 183 182 180 185 184 184 182 174 160 157 167 173 173 177 180 184 180 181 182 183 184 184 182 182 183 179 180 179 180 180 182 181 189 182 183 171 132 189 143 153 171 180 124 188 41 7 155 112 148 132 123 122 87 155 161 158 158 152 149 148 146 144 145 150 154 161 166 164 171 172 173 175 172 173 170 168 164 163 151 143 177 173 168 158 151 145 150 153 162 167 171 179 175 178 182 182 180 182 184 181 164 156 161 163 173 175 175 175 177 182 183 180 184 183 183 182 182 180 181 180 181 181 185 186 189 187 180 162 146 162 140 152 177 191 144 186 22 9 144 123 156 150 148 131 88 147 159 149 156 153 151 148 155 147 147 151 152 156 163 170 167 173 174 174 173 171 167 165 162 158 140 156 151 141 136 128 126 116 122 131 147 156 158 163 165 171 166 169 165 165 172 177 161 157 162 160 163 167 173 180 177 181 183 182 182 182 184 183 179 180 181 179 179 180 185 187 183 186 182 153 127 166 173 168 173 181 156 176 62 18 102 143 161 161 154 134 88 120 156 157 155 155 147 146 147 148 145 152 154 158 159 162 167 171 170 170 175 173 167 162 155 152 145 147 121 109 98 77 87 104 99 109 129 139 145 151 165 178 158 68 79 116 149 164 158 155 162 158 164 167 173 177 173 176 179 181 182 183 183 183 182 179 176 182 180 182 184 188 190 185 182 155 132 167 183 187 188 155 170 84 44 36 57 164 158 173 154 146 94 102 144 148 149 152 150 149 149 144 143 148 154 151 159 166 167 170 170 168 169 170 169 161 159 151 148 143 103 94 64 38 20 24 76 106 111 128 140 156 171 110 40 53 73 94 134 156 152 160 164 163 160 165 164 171 175 177 178 177 181 183 183 182 180 182 179 178 179 181 183 186 191 180 166 141 146 182 185 190 166 161 190 37 45 33 27 173 142 177 178 182 140 95 132 150 149 153 147 146 145 142 145 151 154 157 159 164 165 166 169 169 168 164 162 160 157 156 158 152 108 86 84 73 54 57 53 61 96 119 128 151 138 151 144 157 145 136 142 143 159 167 169 166 160 161 160 168 174 173 174 175 178 182 182 181 184 180 179 181 179 182 184 186 186 179 157 155 158 181 189 177 154 171 210 46 55 19 28 173 138 125 171 175 158 71 102 134 146 148 151 148 138 143 148 154 150 159 158 165 162 166 170 167 166 169 161 161 162 167 170 164 139 95 77 85 87 92 77 67 89 112 129 151 145 148 149 156 154 143 149 157 161 167 171 168 160 161 163 165 170 175 178 176 176 181 183 182 186 182 181 179 181 187 188 189 186 165 147 146 171 187 188 178 162 149 126 41 52 24 25 144 168 117 160 164 175 70 94 140 138 152 150 148 139 147 153 157 153 154 160 166 165 164 166 170 164 165 161 162 169 172 173 166 160 142 120 107 102 102 92 74 80 98 119 137 137 145 145 147 148 155 157 166 168 173 178 178 171 161 163 168 165 172 175 182 174 179 180 185 180 183 180 183 180 186 184 186 179 168 153 150 176 183 183 179 164 181 70 46 60 22 12 65 169 158 158 160 173 95 55 131 133 144 139 142 150 150 151 148 155 157 163 165 164 166 168 165 165 168 164 168 171 172 169 160 161 149 145 131 117 106 100 108 103 95 107 124 132 116 105 119 129 153 156 162 169 172 178 174 176 169 161 162 170 166 167 172 175 180 181 183 183 183 179 175 180 182 184 181 172 173 159 127 177 184 184 175 159 201 33 52 83 17 11 24 175 181 174 175 174 103 48 103 133 115 131 148 151 148 158 157 160 164 161 162 164 166 166 163 167 166 166 170 176 176 174 169 155 158 137 120 108 95 104 113 129 119 110 101 102 95 87 106 103 108 128 148 166 174 177 174 175 176 168 161 165 169 172 174 174 175 185 181 185 183 182 178 181 180 184 178 171 154 153 115 180 175 179 176 169 170 30 67 73 17 14 12 172 181 177 180 180 148 91 109 130 142 140 147 148 148 153 161 157 160 164 162 165 165 162 164 166 164 172 175 177 176 178 177 166 147 125 89 102 97 91 108 107 120 104 94 75 93 84 89 100 85 109 128 151 156 172 170 174 175 174 168 161 170 170 175 177 174 181 180 184 182 183 179 180 177 180 178 175 164 141 138 172 178 175 178 174 101 32 55 57 13 20 9 109 184 183 182 181 156 87 102 128 129 138 147 148 155 156 160 158 160 162 166 167 170 166 167 169 172 167 173 174 176 170 164 153 123 96 93 92 105 100 94 92 114 97 102 90 79 90 91 104 100 111 108 137 149 166 167 168 171 169 168 166 167 170 171 175 176 180 184 182 182 181 183 183 175 175 174 162 153 156 128 174 178 182 175 200 16 15 41 94 22 5 24 42 183 181 181 164 129 72 110 117 142 130 149 153 155 155 155 157 160 161 165 162 165 164 166 172 169 173 166 156 147 155 155 145 130 77 108 107 102 101 122 118 121 110 109 106 102 107 119 122 107 100 123 116 131 148 154 161 163 165 166 169 166 168 177 175 178 180 182 183 183 184 177 185 170 170 169 167 142 114 126 162 173 173 183 115 21 48 34 81 11 14 25 4 156 174 171 152 120 77 91 114 137 144 140 145 150 154 155 158 162 164 159 166 163 160 159 156 166 160 151 144 150 139 118 124 107 103 109 134 110 132 165 154 149 142 147 145 153 146 149 150 126 119 113 110 118 138 149 158 160 146 155 153 168 166 174 176 179 179 182 179 182 181 174 178 169 170 175 181 175 139 102 131 160 150 99 13 32 30 121 117 22 18 13 9 70 152 151 141 98 86 96 124 124 144 142 140 148 152 156 158 158 159 165 166 163 163 163 165 155 141 132 152 101 138 128 127 117 106 140 121 126 120 137 152 155 167 161 155 153 156 136 144 144 155 124 140 129 144 139 133 151 146 155 150 155 150 171 175 179 181 183 181 181 181 181 174 160 166 167 168 155 101 22 20 13 11 22 46 28 32 47 118 21 12 18 22 11 67 133 107 97 55 95 134 127 129 129 141 139 134 150 156 160 162 164 160 160 162 159 156 157 124 113 121 125 124 134 125 125 125 133 116 103 105 117 111 121 140 146 132 134 137 144 145 140 146 156 148 139 142 135 141 144 146 150 141 151 154 156 171 178 183 184 183 185 181 167 179 165 172 174 161 168 101 31 33 27 19 16 39 34 43 38 60 14 25 11 20 34 19 14 18 6 46 63 126 105 141 140 126 122 133 145 155 158 163 159 161 162 159 156 131 135 117 106 127 126 124 115 120 114 99 94 103 106 101 113 114 116 108 140 119 131 137 140 140 149 151 145 137 153 145 150 133 136 138 169 157 144 159 174 173 181 179 175 180 176 173 176 169 164 181 181 163 135 70 15 26 21 29 20 21 34 31 60 47 33 25 28 31 19 35 20 8 14 33 57 76 101 137 140 128 133 117 132 154 153 161 156 161 159 144 124 126 124 100 117 103 93 107 120 86 81 85 98 87 94 90 93 91 87 100 119 117 125 119 121 126 134 141 137 127 130 143 126 119 134 126 151 156 161 157 153 170 180 182 180 173 174 168 177 158 181 171 175 158 114 33 20 26 21 36 22 24 36 33 51 50 43 31 67 23 33 39 36 22 20 31 63 78 88 129 136 137 141 130 123 142 149 158 153 158 151 131 125 122 129 113 78 81 92 96 78 72 67 60 61 49 49 56 59 56 63 51 74 78 88 67 86 80 74 87 99 99 96 121 131 103 104 142 136 160 161 142 166 176 180 178 176 171 169 161 162 179 159 176 160 155 97 21 21 25 29 45 27 19 29 38 33 45 54 14 54 43 33 26 40 55 20 48 38 37 102 134 126 125 125 144 121 129 151 157 152 152 143 141 127 114 126 102 81 84 68 59 41 34 53 69 80 101 106 120 134 130 136 114 116 135 135 140 139 144 143 141 137 127 82 42 31 56 102 118 133 144 151 151 134 167 168 179 172 176 168 159 157 163 157 170 162 167 74 17 40 30 24 48 28 28 14 36 46 47 28 19 6 45 42 26 28 37 31 7 33 46 85 110 113 123 97 112 96 124 131 148 154 156 152 148 126 105 114 107 87 64 49 49 54 79 100 114 118 125 136 136 137 145 152 143 154 149 145 149 152 153 154 149 150 147 140 139 138 96 69 106 127 141 158 155 159 170 176 177 175 161 164 163 158 171 150 176 146 129 70 31 25 30 25 36 37 20 27 29 42 51 26 22 7 39 7 49 23 23 33 31 17 24 59 105 104 105 105 102 109 121 137 142 149 154 154 139 126 128 119 126 120 107 109 115 121 124 124 127 119 137 140 145 152 151 151 147 148 151 153 156 155 155 157 163 166 170 172 170 162 149 131 135 130 135 152 161 159 164 174 172 169 168 164 172 149 157 160 154 147 122 26 35 18 36 27 29 35 32 30 25 43 52 27 25 7 17 45 27 60 13 24 51 10 32 34 93 81 97 100 93 107 96 126 133 152 153 150 136 124 117 136 138 136 127 138 144 147 146 147 149 155 162 158 156 156 161 156 161 155 157 162 166 165 168 177 175 181 175 178 174 169 162 156 167 162 155 158 159 164 173 174 163 171 168 161 161 161 159 169 160 149 72 16 32 22 36 23 32 40 41 36 29 36 48 34 19 16 17 55 23 13 41 20 13 19 31 44 89 83 101 85 75 102 111 92 136 143 148 145 131 135 142 144 150 148 145 143 145 151 148 146 147 151 152 145 146 149 153 151 155 157 156 160 163 163 166 171 176 173 169 172 173 175 175 176 175 172 172 163 165 161 175 169 156 164 148 147 173 153 168 160 140 106 44 20 21 16 37 21 35 18 32 32 52 26 44 13 51 7 15 15 51 13 21 17 19 44 14 28 56 78 109 65 105 85 102 94 107 144 135 143 141 139 145 152 159 164 152 149 147 150 150 152 148 147 156 144 135 128 136 131 133 138 138 144 154 164 168 174 179 174 170 173 175 177 179 181 182 175 173 172 157 163 153 167 153 154 146 161 158 155 150 133 149 101 43 24 21 39 32 20 24 27 29 32 30 46 55 40 29 5 13 27 61 10 19 29 14 27 14 29 51 54 93 76 74 93 95 92 94 122 123 149 140 146 145 155 157 164 163 157 152 154 149 146 140 146 139 128 133 128 129 126 135 136 132 137 154 149 160 170 171 177 174 177 181 181 181 181 181 176 178 176 162 162 166 145 149 121 125 153 163 167 136 111 132 69 19 24 29 34 32 22 23 25 30 18 42 29 53 43 13 13 20 27 36 35 16 15 25 14 21 12 26 55 73 58 81 77 90 95 79 101 111 131 139 147 150 153 159 156 162 163 156 153 156 149 143 133 130 124 121 115 120 112 118 130 129 140 147 150 154 169 175 174 182 179 181 179 183 181 179 180 179 171 168 157 153 142 147 130 104 157 147 141 138 153 71 25 20 18 26 33 24 14 30 29 19 30 38 32 59 24 28 11 9 31 29 41 23 17 16 11 21 16 24 37 65 93 87 83 80 62 112 83 103 118 142 147 153 158 162 162 161 161 160 158 155 152 148 144 143 134 131 127 121 130 115 133 133 143 154 156 160 162 174 175 178 180 181 180 183 181 177 176 182 180 176 169 158 162 151 143 115 141 128 136 130 109 65 80 14 18 33 14 16 31 45 34 25 40 38 56 40 38 48 29 18 39 42 21 29 16 16 19 15 13 26 23 62 60 74 64 96 99 75 74 91 119 131 144 146 157 157 162 160 161 158 156 154 155 152 151 138 135 143 146 129 138 127 146 147 150 158 166 169 169 174 178 180 180 180 181 182 183 178 175 161 171 166 167 157 124 128 136 138 153 126 98 152 102 50 8 42 20 25 14 18 43 51 18 32 43 42 57 66 17 60 15 24 45 88 34 23 23 15 13 16 16 25 21 44 48 46 65 64 71 81 68 87 95 129 130 144 148 154 162 165 164 159 160 152 156 154 151 152 146 154 151 149 152 145 151 168 166 163 165 169 172 173 176 180 179 179 182 181 182 183 170 161 156 154 168 162 146 141 139 122 116 126 108 113 80 46 13 22 35 28 14 29 29 32 42 50 33 40 34 122 21 42 16 42 47 126 31 22 19 14 12 13 13 10 32 38 55 49 42 59 59 62 79 84 83 114 123 141 148 149 156 163 167 163 162 162 160 161 160 160 167 163 167 170 159 164 171 174 172 169 174 173 177 176 177 178 182 182 180 180 180 175 170 160 139 152 146 150 144 161 135 102 129 106 112 105 41 21 24 19 16 29 17 41 23 31 51 38 34 47 48 84 34 39 40 27 31 67 37 23 17 13 10 11 7 26 18 44 45 35 44 36 41 63 71 79 77 109 106 132 146 152 155 163 168 170 168 165 167 167 167 170 173 168 175 172 174 173 169 172 176 175 174 176 177 179 178 181 179 179 181 184 180 172 161 155 168 157 105 148 103 119 102 123 122 104 128 109 14 14 10 15 26 25 23 22 23 50 37 34 31 28 54 104 42 43 41 22 38 77 32 30 24 20 8 13 8 24 6 54 55 63 41 39 43 50 61 56 72 88 104 125 133 151 157 166 165 173 176 179 174 173 173 173 172 173 165 176 158 164 167 172 169 173 183 178 178 180 179 178 178 181 177 176 173 166 131 118 131 161 118 111 122 151 106 89 88 95 112 143 13 22 20 24 24 26 26 25 30 33 29 37 53 50 110 62 62 33 54 36 45 40 40 35 15 21 10 13 7 16 9 54 65 44 37 47 48 57 62 59 68 72 79 117 127 140 157 155 168 173 172 175 170 174 180 175 169 161 161 163 158 172 166 169 168 171 177 178 177 179 178 175 172 174 169 172 175 142 151 115 107 129 132 95 116 122 93 70 70 126 136 143 18 9 20 27 26 27 19 32 32 31 19 37 44 34 142 25 44 47 56 51 41 35 18 39 15 19 11 14 9 17 9 42 95 59 48 48 41 45 48 41 78 73 71 100 108 129 131 143 156 164 172 169 175 172 166 172 172 148 155 141 152 158 168 161 159 172 173 168 163 170 177 174 163 170 167 167 139 145 116 149 125 97 123 90 118 92 57 43 135 134 149 135 24 4 16 27 24 23 31 18 30 39 161 58 40 36 161 80 28 29 35 38 41 44 16 39 27 14 12 15 13 16 12 40 74 72 79 38 34 39 42 49 55 54 64 77 94 90 112 135 134 152 152 162 159 159 153 162 145 156 154 142 146 153 163 148 151 153 158 157 155 153 156 155 166 144 147 142 139 118 101 100 80 79 102 111 97 85 64 90 149 170 167 142 9 11 21 9 15 27 38 40 28 63 210 79 34 33 151 109 87 27 43 22 39 32 40 27 14 21 24 8 10 12 16 31 76 105 82 76 35 41 42 52 40 52 56 56 84 86 94 93 109 121 130 144 145 160 145 147 121 146 149 140 139 148 142 138 142 130 148 150 137 135 131 118 129 144 126 118 125 87 106 78 78 83 125 88 77 87 105 120 153 167 163 145 16 12 15 19 19 32 34 29 93 89 192 36 42 24 70 154 68 25 46 38 25 51 34 35 45 13 20 11 13 10 16 26 100 102 108 83 53 32 25 19 57 41 29 40 55 65 76 56 86 86 95 104 124 131 140 142 126 133 138 141 139 150 121 117 122 121 136 134 127 140 119 95 97 112 85 112 85 69 61 82 60 84 78 72 65 109 134 170 172 170 165 139 14 18 21 17 33 15 26 114 128 141 148 35 56 24 38 151 95 19 23 19 26 10 44 47 46 31 27 17 9 20 19 41 100 105 118 104 74 62 24 28 24 32 47 26 33 47 69 59 69 81 64 82 99 89 105 106 114 126 121 149 135 140 119 117 117 121 102 120 127 132 91 85 77 87 97 75 67 45 56 61 63 91 76 74 136 128 135 158 171 175 163 138 12 20 23 18 30 34 34 35 102 53 28 42 35 11 31 155 65 67 29 24 27 35 96 116 83 24 31 12 13 11 13 23 94 106 117 116 88 79 47 21 29 29 23 31 23 37 76 57 55 51 68 75 77 77 97 101 94 115 124 136 128 124 123 116 103 125 109 115 114 102 105 83 72 85 76 56 91 38 49 56 52 73 102 81 108 146 133 173 173 166 161 127 29 32 32 34 22 37 27 36 22 35 49 52 44 188 136 197 29 66 47 45 59 64 55 64 59 47 17 16 18 22 15 18 99 107 118 118 110 79 70 32 28 26 24 26 32 32 47 38 43 47 51 66 44 63 75 75 76 94 124 111 110 118 113 94 94 99 90 96 85 78 95 59 81 56 56 56 74 52 61 75 71 70 111 139 136 154 154 178 168 168 160 127 36 35 32 23 28 17 30 28 52 40 39 58 62 46 186 129 10 55 81 107 63 28 96 69 100 23 24 30 12 18 18 16 99 108 114 121 122 94 84 52 45 29 33 21 31 21 25 47 49 35 45 61 37 48 50 71 66 77 96 108 97 115 85 94 93 76 98 68 82 44 60 56 54 86 63 69 62 62 55 57 85 87 94 141 163 180 182 170 174 170 159 131 38 29 37 22 23 19 27 28 41 36 52 44 57 196 92 33 28 156 144 91 71 51 49 57 22 36 32 22 27 27 27 13 102 106 117 124 122 101 98 77 41 39 25 16 25 30 24 22 32 28 31 55 41 46 39 46 57 68 85 91 82 97 81 80 75 76 58 70 68 49 64 47 50 68 42 55 118 66 70 93 73 120 137 154 178 168 173 170 173 175 164 127 16 42 39 30 15 27 33 29 36 46 55 66 136 29 31 53 70 35 148 52 134 81 49 25 28 28 29 22 20 39 18 8 101 117 122 122 117 118 102 93 62 39 25 26 23 18 22 20 26 21 23 37 35 48 24 39 56 63 54 66 69 77 75 73 78 62 52 47 42 50 55 47 55 54 31 63 86 83 89 91 70 146 136 154 171 172 171 175 176 174 168 140 167 38 20 38 27 31 18 20 46 48 44 39 55 62 104 198 50 13 48 176 213 13 26 41 41 19 33 16 22 12 7 15 103 120 123 125 123 118 110 106 52 53 23 28 20 27 25 34 32 25 20 25 27 39 30 36 37 40 58 47 48 53 59 56 67 32 48 42 30 42 39 32 63 42 51 88 95 87 81 83 90 135 164 148 136 178 180 172 174 173 168 152 20 180 43 19 37 41 38 33 54 127 145 183 107 216 197 207 42 19 222 201 59 99 198 179 77 217 34 19 12 11 15 15 110 120 125 118 123 114 112 111 92 62 33 36 20 19 29 27 22 23 24 24 25 19 20 37 24 18 35 34 41 36 57 33 41 29 28 57 38 33 41 68 65 54 68 108 50 61 95 115 92 143 166 165 174 170 175 174 178 177 170 173 14 162 235 224 171 107 151 142 160 135 206 238 224 238 227 196 166 22 15 140 89 242 208 119 144 157 50 170 8 8 9 28 107 126 124 122 124 119 114 111 104 82 86 49 38 25 22 38 31 18 20 25 29 19 35 24 20 20 29 33 43 27 43 34 41 37 21 42 35 47 67 70 76 112 103 75 68 91 130 110 154 139 169 172 176 175 175 176 175 175 173 163 19 17 237 226 215 183 226 197 199 217 227 220 225 204 242 234 106 26 23 38 61 136 55 188 118 17 224 9 11 18 7 34 110 122 125 122 119 117 122 90 93 78 86 60 47 31 25 29 22 31 27 29 35 28 31 24 33 27 44 42 44 38 46 23 48 42 64 52 63 54 76 90 75 97 101 67 61 116 95 101 108 158 161 171 172 173 177 176 176 174 176 187 10 33 72 244 234 225 226 207 233 226 211 208 222 243 234 238 131 128 37 38 86 184 139 91 67 148 10 20 12 7 14 47 109 122 123 134 139 115 124 122 111 73 73 78 50 46 37 28 24 28 32 36 27 39 50 58 52 50 52 59 57 37 64 60 69 54 70 76 55 79 65 68 81 108 88 92 116 143 107 125 139 171 162 172 175 173 172 170 177 176 176 186 22 19 52 92 239 228 215 230 232 229 237 240 238 234 233 236
