P2
# Generated by OpenCV 4.2.0
92 112
255
1 0 0 0 1 4 1 0 1 6 1 2 1 1 3 5 0 1 8 3 3 15 25 12 4 8 2 12 3 4 5 4 4 4 5 9 19 13 13 13 18 19 8 8 17 65 77 70 60 70 76 55 111 160 118 131 168 159 165 165 154 164 155 156 145 140 149 132 130 122 117 85 72 57 50 38 41 21 11 13 12 4 5 10 14 10 11 16 29 31 32 8 1 2 0 1 1 1 0 0 1 2 0 1 0 1 5 2 20 11 6 2 2 2 11 8 9 4 4 4 10 7 6 4 5 9 6 7 13 20 15 14 22 25 18 14 23 46 94 80 71 84 74 107 96 102 155 147 162 173 169 167 175 173 169 179 167 164 151 152 148 153 133 121 123 91 75 56 35 36 18 17 9 6 4 7 12 21 18 12 28 8 31 9 1 2 0 1 1 1 3 1 2 4 1 0 0 0 2 6 31 22 10 4 3 3 8 6 7 7 3 2 8 7 10 10 13 17 32 22 36 26 29 24 34 40 47 84 46 38 64 89 93 107 103 110 104 99 118 139 166 178 180 180 182 183 177 170 175 171 165 169 169 161 152 151 141 138 120 88 54 43 28 19 15 10 4 13 15 10 12 8 3 13 22 16 2 0 3 2 2 1 5 2 3 1 1 0 0 1 1 45 23 2 1 1 3 1 1 7 4 3 5 12 16 10 8 13 15 23 37 44 36 58 63 64 63 66 87 55 68 46 42 73 78 94 107 101 91 127 122 139 170 178 186 188 182 189 185 182 181 179 179 177 178 178 162 161 168 145 127 100 86 72 45 32 19 12 14 11 10 6 11 4 7 11 5 15 1 0 1 4 1 1 3 3 2 1 0 0 0 1 12 15 56 2 8 8 3 2 4 11 10 3 8 8 5 14 16 23 30 54 49 58 68 80 86 93 80 84 79 64 68 63 24 78 65 62 101 105 133 115 153 152 176 185 187 188 190 189 190 190 189 185 183 181 185 172 171 156 164 155 151 124 125 98 66 55 26 18 8 11 17 21 8 12 4 3 3 10 0 0 0 6 1 3 7 3 4 2 0 0 2 3 0 73 11 9 1 4 2 7 16 15 17 19 4 7 9 10 28 42 39 63 74 90 110 99 104 127 124 130 122 109 102 87 77 52 57 91 112 127 139 114 130 163 183 188 188 188 189 192 190 190 189 187 184 183 183 177 175 172 156 166 144 156 126 116 97 64 38 23 12 17 21 18 12 10 5 4 2 5 1 1 2 16 4 2 2 3 2 3 0 0 1 0 6 7 17 6 3 5 5 7 12 18 8 5 5 5 11 30 49 58 83 113 115 119 126 145 134 144 144 140 137 142 113 120 107 113 124 110 118 112 134 145 155 171 175 188 192 191 188 191 191 191 187 188 188 188 184 185 180 177 169 170 167 157 144 138 124 101 64 34 16 32 22 23 17 12 7 4 3 1 2 2 4 38 8 3 9 26 3 1 0 1 0 15 19 9 2 2 6 4 3 9 35 23 9 2 4 8 31 55 70 101 119 126 140 143 143 135 153 154 155 142 148 149 144 142 125 131 130 141 139 144 159 148 169 173 191 187 192 191 190 190 189 189 187 186 186 190 185 183 180 182 178 175 166 166 172 147 141 138 92 50 32 31 31 16 19 9 4 2 4 1 2 5 4 29 9 5 43 16 0 1 0 1 3 3 3 1 4 2 5 2 2 7 17 3 7 9 14 41 68 92 115 122 139 139 142 147 153 153 153 147 158 153 147 154 154 167 166 158 156 153 161 169 165 177 175 194 197 192 194 194 189 190 192 191 185 190 190 188 186 184 185 186 182 178 175 171 170 161 157 149 110 76 46 26 25 16 23 5 4 3 2 0 13 4 2 14 36 16 59 14 1 1 1 1 1 1 1 2 3 7 7 8 11 13 9 8 13 11 40 86 109 119 123 130 144 140 149 149 148 153 154 157 159 163 162 168 169 171 171 166 168 175 180 177 174 179 190 190 194 194 196 195 194 191 193 191 190 192 190 188 189 187 184 187 186 178 179 175 164 171 163 156 133 95 77 39 58 18 13 7 5 1 1 1 11 3 7 6 75 36 51 10 4 4 3 0 1 1 1 2 7 10 14 12 8 4 7 10 23 46 97 107 119 128 135 140 142 138 150 148 154 157 156 159 168 172 170 175 173 178 178 173 177 180 181 188 182 187 199 184 193 193 192 193 196 197 195 193 195 192 191 190 190 190 186 186 185 182 180 179 182 169 172 170 154 109 75 44 37 21 14 12 6 3 2 1 4 4 13 2 78 52 17 3 14 11 3 1 3 2 4 4 6 7 23 14 12 15 19 39 59 105 113 119 125 132 137 139 142 145 148 152 161 162 169 167 171 166 173 172 174 178 179 183 181 179 186 187 186 191 192 191 194 195 197 196 197 200 199 199 196 194 192 191 189 192 188 189 188 181 178 183 179 185 177 178 157 120 83 48 25 10 17 5 8 6 4 4 16 8 4 5 31 21 6 1 45 17 9 1 1 3 5 7 13 31 27 43 40 39 57 66 98 114 118 124 119 130 136 137 141 146 144 159 160 163 159 168 172 173 174 173 180 177 183 184 183 184 187 189 195 195 191 197 195 196 197 198 199 198 197 196 199 199 196 195 191 194 190 187 186 187 179 183 182 178 180 178 163 134 95 51 31 9 9 6 6 4 2 4 6 6 3 3 21 18 4 4 44 11 9 15 6 18 22 4 11 7 56 68 83 79 87 105 107 119 119 128 121 132 135 137 140 143 146 155 160 160 167 168 170 173 175 172 178 179 180 183 183 185 190 192 194 194 194 197 193 195 197 196 201 200 202 199 202 198 193 189 197 190 191 189 186 187 186 184 184 184 178 177 167 146 109 71 40 14 6 11 6 7 4 9 2 3 1 2 5 4 2 1 78 19 4 26 19 9 34 20 41 43 45 86 86 91 97 105 111 119 121 118 122 127 133 134 138 139 144 150 156 162 167 167 171 176 175 175 179 179 185 188 185 187 188 195 195 193 195 190 194 195 197 198 201 201 202 201 195 198 198 193 192 197 192 191 189 188 187 188 188 182 186 178 177 164 124 99 34 14 5 4 4 6 8 5 1 0 0 2 2 3 2 8 22 13 1 43 14 6 21 42 46 48 79 68 87 89 99 114 115 124 124 123 124 125 127 133 139 135 142 151 155 163 164 167 170 173 173 177 179 182 183 187 187 193 186 189 188 193 189 193 193 193 194 193 194 193 192 194 190 200 195 201 196 193 192 191 189 187 187 188 187 187 186 179 177 173 142 125 54 24 11 7 8 5 5 8 1 2 2 3 2 4 1 2 14 6 5 16 17 11 11 32 50 42 46 70 89 99 112 110 118 122 124 125 127 126 124 129 133 136 143 146 149 152 165 167 170 176 177 177 178 182 188 183 185 187 185 184 185 189 186 189 189 194 196 195 193 197 198 199 197 196 198 198 196 194 191 189 187 184 186 186 188 185 184 182 176 175 161 131 76 47 22 6 11 12 17 15 3 9 1 1 1 12 1 2 5 3 27 20 9 11 9 11 36 44 43 66 77 103 102 113 121 125 126 124 127 133 128 133 128 133 143 142 151 155 157 171 171 174 181 180 179 185 185 183 190 190 188 182 186 192 189 191 193 195 195 197 196 194 197 196 194 196 195 197 191 192 189 187 183 184 186 186 189 187 186 183 179 178 175 151 119 47 33 21 18 6 15 16 2 2 0 1 1 6 5 6 5 6 6 18 45 10 12 20 25 40 32 65 78 110 112 116 121 127 128 127 125 123 128 130 133 139 131 143 147 156 164 161 167 173 173 173 182 186 184 188 192 188 190 188 181 187 186 194 198 198 199 198 198 196 198 195 199 197 192 195 191 193 189 186 184 185 181 184 187 185 187 186 181 180 176 164 136 74 39 28 23 13 17 12 1 0 1 0 3 9 2 2 4 7 4 6 4 10 14 17 21 35 43 53 78 108 113 115 120 132 135 130 126 115 134 134 136 132 135 140 144 152 159 163 166 172 176 170 181 189 186 187 189 187 179 186 184 191 193 194 194 198 198 197 195 197 197 194 196 197 197 195 193 191 189 188 186 185 186 187 191 188 187 185 184 181 180 166 146 112 45 37 47 11 7 11 1 1 1 1 1 2 4 7 9 3 4 4 3 6 8 13 12 31 50 71 100 111 114 122 125 120 133 130 131 126 136 138 138 141 137 140 144 146 155 155 160 168 176 174 179 180 184 187 185 180 178 183 186 187 194 197 198 197 197 194 197 199 200 199 195 197 197 197 194 191 190 190 188 187 186 187 189 186 188 186 182 179 175 173 153 130 80 38 29 30 6 7 1 1 1 1 2 1 0 5 23 17 6 4 1 5 3 12 9 39 67 86 101 111 113 116 123 122 129 131 133 131 135 133 140 134 138 140 143 148 147 151 157 165 164 176 178 183 190 188 183 187 192 185 188 189 191 193 193 197 197 185 187 197 195 197 196 198 196 199 194 189 192 189 187 185 183 187 188 185 187 187 184 183 179 172 159 124 91 56 45 12 11 4 1 1 2 2 4 2 1 7 3 75 20 2 1 12 3 14 10 52 70 90 111 104 109 118 120 117 129 134 134 136 136 142 136 137 132 146 142 145 151 154 158 165 171 175 182 182 185 185 187 192 189 186 191 190 189 193 196 190 189 194 192 194 196 194 195 196 194 193 197 190 190 186 186 181 183 184 188 188 185 185 182 180 177 174 159 144 99 53 30 22 6 11 0 2 4 1 2 0 0 4 8 24 62 5 4 18 10 12 16 74 76 92 101 108 113 118 123 128 127 135 137 136 140 135 136 139 138 140 144 143 150 152 154 164 169 175 179 184 185 186 188 190 196 188 193 193 192 193 195 191 189 189 189 188 191 193 198 192 195 191 194 190 191 187 185 184 186 185 186 184 183 187 183 185 179 174 170 156 106 53 24 22 9 10 0 1 1 3 1 0 1 1 4 14 30 7 3 3 14 13 42 66 73 87 96 109 114 115 120 125 131 137 135 139 143 138 139 141 141 139 143 143 145 147 153 159 170 176 182 181 181 182 184 181 188 192 192 190 190 191 190 193 193 192 190 190 191 190 189 194 197 194 188 190 190 189 186 185 184 183 185 184 185 186 183 182 178 176 172 161 136 56 25 17 15 6 1 1 2 1 1 0 1 3 4 8 15 27 3 4 14 15 45 64 83 84 100 101 111 120 116 125 132 136 135 137 140 143 135 141 138 144 143 146 147 149 152 156 167 174 178 174 181 184 187 189 190 193 194 196 189 191 189 189 186 190 190 193 191 196 195 198 197 197 195 191 192 191 189 187 182 184 182 179 182 183 183 180 179 175 173 154 139 68 23 20 15 3 2 1 2 1 1 1 1 4 1 2 19 7 3 6 14 7 25 39 69 90 98 102 113 116 119 129 130 130 135 136 138 139 143 138 139 139 145 142 141 151 155 158 167 170 175 178 182 187 184 188 190 192 194 191 191 191 190 189 190 191 192 192 194 190 192 197 195 197 195 191 193 192 189 188 186 186 187 183 183 184 186 180 179 174 169 161 148 97 33 26 19 4 5 5 1 2 3 1 2 5 0 2 4 4 11 11 16 32 19 42 83 84 92 101 111 109 120 123 135 132 133 138 138 138 139 137 140 141 140 145 146 151 156 160 168 166 180 183 185 187 186 187 191 194 195 192 194 194 190 191 191 192 191 189 189 193 195 193 196 197 199 195 195 190 191 188 190 187 187 185 188 183 183 183 176 176 171 164 156 114 43 40 22 13 4 1 6 3 2 1 7 3 1 1 1 4 16 24 23 23 15 65 69 81 92 97 107 102 119 124 125 134 131 133 133 138 133 137 142 140 143 136 144 152 157 161 164 171 177 183 187 189 187 193 193 196 196 197 195 193 190 192 191 189 190 190 191 193 195 200 202 203 197 198 195 194 192 194 189 187 188 185 184 186 184 185 180 175 172 171 163 124 40 27 28 9 5 5 6 2 2 10 2 3 2 2 3 2 11 49 27 26 15 57 74 78 88 98 110 110 115 123 126 131 126 132 132 134 136 139 135 139 143 146 145 150 155 164 170 172 179 181 187 187 196 198 194 197 196 198 197 197 197 193 191 191 188 192 195 196 202 201 209 207 202 199 198 196 194 194 190 190 187 188 189 186 185 184 181 178 172 170 165 139 33 28 19 15 1 2 5 9 17 19 4 1 2 2 3 5 9 33 14 26 14 51 73 74 88 98 104 104 113 124 124 126 129 132 129 134 134 140 133 140 142 146 149 153 155 164 167 174 178 184 192 189 193 195 198 196 197 199 197 194 195 197 192 193 188 197 195 200 203 206 204 202 202 198 200 197 193 193 192 189 191 189 187 188 185 179 178 173 173 174 167 147 28 22 13 8 2 1 2 3 10 13 27 31 7 5 4 4 16 20 19 31 29 54 69 73 88 91 99 106 114 119 126 130 135 138 131 136 138 139 136 141 148 145 149 152 157 158 170 171 175 180 189 195 192 189 193 196 192 196 198 195 196 192 193 192 194 197 199 200 203 204 202 202 201 202 198 194 197 191 191 192 191 188 189 185 187 179 181 177 172 172 166 157 34 21 6 7 1 1 5 2 3 2 3 1 0 2 4 4 19 44 38 24 43 51 65 72 76 85 89 100 110 117 121 138 136 139 138 135 138 139 141 146 149 149 155 152 156 158 165 177 175 181 185 191 193 192 190 193 194 198 197 196 192 194 192 194 195 198 199 199 198 203 201 203 200 203 198 197 191 191 192 188 190 186 184 182 180 183 174 175 167 169 167 156 19 15 8 5 1 6 5 5 4 3 2 3 4 1 4 5 14 23 34 40 40 43 65 73 69 79 92 97 106 117 128 135 138 141 140 140 135 139 145 145 149 153 158 161 154 158 166 170 177 180 181 183 192 190 191 193 190 190 197 196 195 194 193 195 193 192 192 189 193 190 191 192 194 193 193 192 191 190 189 187 183 183 179 176 166 168 176 173 170 170 166 153 11 15 3 3 2 19 26 11 11 20 36 7 1 6 3 10 13 27 29 37 48 52 72 67 66 75 84 96 106 121 130 137 146 145 146 141 142 141 143 145 150 154 158 157 157 159 166 174 173 175 177 181 185 182 189 192 189 188 187 189 192 195 193 188 189 187 188 188 187 185 182 187 187 184 189 182 192 192 180 186 184 178 175 164 153 151 145 160 167 163 166 154 11 9 8 4 5 10 4 5 5 18 14 17 8 5 11 7 16 17 24 47 39 48 64 65 59 68 83 98 109 117 134 141 145 150 146 144 142 139 142 145 151 154 155 160 163 156 163 162 161 160 162 173 177 184 190 190 188 187 186 189 192 191 186 188 183 180 184 182 177 172 162 158 181 181 166 150 156 140 143 134 152 146 155 148 129 134 120 108 132 157 160 153 11 11 3 3 4 7 5 2 9 13 11 9 3 17 18 12 14 9 38 48 45 50 54 53 59 61 81 95 107 121 135 143 148 148 143 143 138 135 134 145 148 140 149 139 129 135 104 129 145 147 157 166 174 160 171 176 186 189 189 189 191 190 184 184 183 179 180 177 176 163 136 123 151 158 155 129 125 101 82 87 101 84 108 117 95 124 131 110 118 151 163 153 24 11 4 2 4 3 4 4 5 5 8 8 6 16 19 15 11 24 33 46 49 51 49 47 47 65 83 93 107 127 128 127 124 128 134 127 112 92 103 75 63 83 75 68 75 106 84 126 134 135 130 158 143 168 160 172 184 186 186 184 184 184 181 180 176 181 177 168 179 159 134 105 113 143 113 111 81 72 78 74 64 65 77 93 98 77 75 76 103 122 139 154 20 5 6 6 5 7 4 4 13 9 5 14 5 13 13 17 30 31 22 52 48 46 43 42 44 61 85 94 86 111 95 88 91 101 88 52 54 58 39 29 39 32 43 80 77 49 91 81 116 117 127 96 131 144 161 163 180 182 180 181 182 176 179 180 176 176 176 174 159 142 126 88 111 121 112 62 57 53 58 47 53 63 55 77 85 102 73 99 86 110 137 154 50 11 1 6 3 4 10 9 11 9 7 10 9 8 16 28 28 28 36 49 46 49 36 36 45 58 66 61 47 39 42 57 56 59 65 67 36 29 18 41 27 29 56 35 53 60 56 72 101 91 98 127 129 154 164 171 177 180 176 180 180 177 178 180 175 172 171 161 147 142 122 125 121 103 68 71 52 57 80 88 82 94 80 100 112 103 108 96 108 138 150 153 73 12 6 3 3 1 5 0 2 8 27 11 8 6 22 19 33 29 40 47 46 50 35 39 42 53 46 32 31 26 28 44 44 51 53 30 37 32 29 34 41 28 32 30 38 44 69 68 60 80 88 112 130 148 151 164 165 162 169 173 178 178 172 171 174 170 168 153 134 128 131 111 110 95 97 108 114 129 124 133 136 136 125 124 132 127 120 124 154 131 152 160 74 26 7 5 0 1 3 4 9 11 2 11 5 7 13 30 28 29 37 40 44 42 40 33 35 33 33 36 36 30 23 33 29 45 59 76 67 73 70 59 58 74 79 76 82 82 69 74 81 76 82 93 129 130 142 148 163 163 166 172 174 176 176 173 169 160 157 143 125 130 113 108 114 110 103 73 66 52 40 47 53 63 83 100 141 138 150 154 148 160 161 158 63 37 25 14 1 4 6 11 37 44 22 3 5 3 8 24 22 34 43 46 42 37 43 31 27 27 19 22 21 23 25 21 34 38 44 62 80 88 104 114 121 119 105 101 84 73 72 71 69 70 72 76 94 107 125 138 153 155 165 170 174 175 181 179 171 157 149 137 126 116 135 97 73 64 17 6 7 7 14 11 19 26 62 92 88 138 156 158 156 165 165 158 74 26 12 8 6 2 4 15 18 8 6 6 5 7 11 24 32 38 42 45 40 38 44 37 36 36 30 25 34 35 46 52 66 77 81 99 105 116 118 112 95 48 24 24 21 23 27 38 54 62 63 69 75 86 93 122 137 148 161 172 178 186 187 183 179 164 153 141 135 116 102 108 77 27 20 51 4 49 31 37 125 114 21 50 109 90 156 157 159 167 161 160 90 31 14 5 3 7 4 7 3 5 3 2 4 8 23 31 42 40 43 42 42 39 43 45 38 36 43 45 47 51 55 70 73 80 79 86 55 29 6 4 25 52 15 18 34 31 36 34 27 38 55 60 67 72 82 93 121 145 161 177 182 189 193 191 183 169 155 142 132 122 135 84 101 63 49 28 9 43 41 39 141 108 79 47 27 67 132 158 162 169 162 160 100 22 14 4 3 7 5 6 3 2 3 8 9 11 23 36 39 40 45 44 36 39 47 50 50 56 51 60 57 62 68 66 70 52 24 13 7 4 12 3 99 31 32 27 144 101 50 70 68 48 48 55 59 59 75 85 109 140 160 178 189 198 196 196 182 175 161 157 142 153 120 142 137 84 63 59 36 54 69 86 139 133 106 108 126 127 134 159 168 170 166 161 112 31 10 2 4 7 10 7 5 1 5 9 13 16 24 34 33 42 44 44 37 41 55 52 55 70 70 65 61 62 74 65 33 9 14 26 39 32 35 32 7 23 41 51 172 183 131 62 69 102 129 80 64 63 75 83 104 136 156 176 188 198 195 195 187 178 181 173 176 148 113 121 121 117 118 140 155 148 119 126 136 105 145 147 148 161 164 173 177 173 171 165 135 33 6 2 1 1 4 4 10 6 1 6 14 19 29 37 42 42 45 51 45 44 63 68 66 65 67 66 58 64 62 45 14 22 56 98 103 82 64 32 63 41 71 116 149 126 125 114 103 124 115 140 126 63 76 87 99 129 153 170 183 195 198 195 189 184 181 185 182 173 167 155 138 140 148 131 122 127 145 119 144 158 138 167 162 175 175 177 182 178 173 164 158 43 11 2 2 2 5 3 2 2 5 2 15 18 30 40 45 45 51 57 57 63 78 93 85 77 82 100 90 81 55 33 31 56 60 80 96 109 95 131 137 149 154 142 143 151 140 165 166 160 151 155 148 79 92 96 102 120 147 160 178 191 195 193 187 185 181 188 175 170 163 151 154 143 141 150 165 162 155 148 153 162 161 167 165 178 180 179 182 179 175 170 158 58 20 8 1 3 5 0 1 1 1 3 17 21 38 43 46 50 60 64 72 75 96 111 125 123 115 112 106 75 69 80 64 56 75 84 92 97 111 133 138 130 149 150 154 157 163 154 162 145 134 140 119 112 110 97 96 114 143 162 174 187 194 188 183 186 180 180 175 162 160 147 143 140 153 149 147 146 145 157 164 165 172 172 176 179 178 177 179 180 175 170 160 72 15 18 2 1 5 3 0 1 1 4 15 29 38 46 53 53 63 70 76 86 98 115 126 126 114 107 93 101 110 96 90 95 85 84 91 102 110 118 131 139 149 152 159 155 165 147 152 149 131 118 118 122 118 100 89 112 132 158 169 181 190 190 184 185 184 179 176 173 172 166 166 173 160 163 158 159 159 162 167 169 175 176 177 177 179 177 177 177 175 172 169 91 6 20 1 1 6 9 4 2 1 7 20 42 46 51 56 58 68 79 81 91 95 113 119 123 123 134 130 129 123 116 115 115 101 103 118 123 136 134 136 139 146 150 155 155 159 157 160 133 132 131 136 129 117 110 93 100 129 158 168 176 188 191 186 181 188 186 183 178 178 179 175 179 183 184 185 183 182 181 177 178 182 180 182 181 178 179 179 178 174 174 166 101 5 7 1 2 5 16 5 2 3 10 32 42 45 52 57 62 69 77 87 95 99 110 120 123 134 136 136 138 137 139 127 117 115 120 128 132 135 140 144 147 154 160 165 169 171 162 163 142 132 142 136 127 119 110 97 102 120 145 163 172 180 185 186 182 183 187 185 188 184 185 181 188 183 184 181 182 187 184 185 184 182 183 184 182 178 179 179 177 177 174 168 111 7 7 2 11 5 10 11 2 5 22 35 54 51 54 58 66 66 81 84 91 98 107 119 126 124 135 138 143 145 149 146 139 136 129 131 143 146 157 163 164 164 171 173 168 174 164 152 143 142 140 126 121 120 113 102 106 125 140 156 172 179 182 181 179 182 185 187 187 193 190 192 191 192 180 181 186 186 183 188 181 184 186 184 183 182 177 178 178 176 172 169 130 9 6 16 5 2 12 1 4 6 23 33 48 51 53 54 65 69 78 87 96 101 105 112 117 123 128 139 145 146 154 154 155 158 156 156 158 154 167 163 167 169 171 171 169 180 164 154 155 149 129 127 118 126 111 105 107 121 134 158 172 177 184 183 182 182 182 185 187 190 198 193 191 190 189 188 187 188 182 181 183 181 183 184 185 183 179 179 176 175 174 167 116 10 9 20 5 8 10 6 4 6 20 40 51 52 53 53 59 69 74 82 91 103 107 107 119 123 123 130 142 147 155 156 156 157 160 159 161 165 160 165 166 165 174 176 173 166 158 161 155 149 130 119 122 126 115 109 109 120 134 155 165 179 185 185 184 181 185 185 185 188 197 194 195 189 188 184 186 189 190 188 184 185 184 186 182 184 184 180 177 176 171 165 121 24 17 16 7 13 11 6 5 5 23 38 52 53 55 61 63 69 77 81 90 99 103 105 112 121 121 119 133 144 145 149 156 162 165 164 167 168 168 171 169 172 177 174 167 167 163 169 163 143 126 121 118 120 111 107 108 120 135 152 169 179 187 187 187 182 185 183 185 185 194 195 194 194 193 191 187 188 190 189 188 188 188 186 185 186 185 178 179 177 169 161 120 21 5 8 5 7 17 8 5 6 18 34 47 55 58 59 64 69 76 80 84 101 103 105 110 109 122 115 118 136 143 147 158 161 167 166 173 172 172 167 172 175 169 173 168 172 164 167 145 129 118 117 119 122 112 103 105 117 130 144 161 173 183 184 184 180 181 185 186 186 191 198 196 197 196 195 190 191 191 190 190 186 187 186 185 185 182 181 180 177 168 172 109 28 10 8 9 13 13 6 3 5 18 38 44 53 59 61 64 63 75 73 86 101 102 106 110 112 119 122 122 131 137 145 155 156 160 162 170 171 173 169 172 178 171 170 171 172 174 165 139 116 118 115 119 117 106 102 104 114 126 140 162 174 178 184 185 180 182 185 186 185 191 196 196 198 198 197 194 191 196 194 190 188 185 186 188 184 182 182 181 177 168 159 107 26 26 5 12 22 4 8 3 6 21 36 50 47 52 66 67 60 65 70 81 94 104 108 116 117 126 121 126 127 138 147 146 152 159 160 164 169 175 172 174 176 177 173 180 173 179 165 135 124 117 113 119 109 96 97 101 105 124 145 163 171 179 182 186 182 182 183 187 185 188 194 195 199 198 198 198 196 195 192 193 187 183 183 186 186 185 182 179 176 169 160 102 26 8 4 6 22 6 12 2 7 24 32 45 48 51 61 56 64 62 67 77 91 99 96 109 111 121 121 131 128 136 141 148 153 159 161 166 168 172 169 179 184 174 172 178 182 178 153 135 127 121 115 113 97 93 91 95 108 130 147 160 171 178 183 186 184 183 180 180 185 190 193 196 199 196 203 202 200 195 192 192 188 184 184 186 182 181 181 179 175 169 154 101 28 7 6 15 8 17 5 4 9 18 25 40 45 52 59 52 58 60 63 74 83 94 96 103 112 116 119 124 129 135 138 147 152 154 159 162 169 167 172 178 183 176 185 186 180 172 148 133 133 117 109 105 83 77 78 83 102 117 146 159 172 181 186 191 185 182 182 178 186 188 193 196 200 200 203 201 202 192 194 191 189 185 185 183 185 181 180 179 172 168 157 92 32 5 10 12 4 28 6 3 5 9 25 39 46 47 51 55 60 63 65 76 81 87 96 100 103 114 112 114 125 130 141 143 149 154 160 164 172 174 174 177 178 183 178 177 174 161 151 141 137 118 94 91 79 76 70 77 93 115 144 157 166 179 193 190 188 186 183 178 179 188 194 193 195 203 203 204 200 192 191 187 188 188 187 186 183 182 180 178 175 169 156 97 25 4 24 11 14 22 6 5 9 14 22 28 41 44 52 49 58 56 57 73 81 84 96 97 104 106 108 117 121 126 136 144 143 152 155 162 168 174 174 180 176 189 190 181 170 155 151 142 141 104 89 90 81 71 69 69 92 115 139 154 172 176 188 193 192 186 182 182 174 188 191 198 193 203 207 197 195 195 191 188 189 185 183 181 179 178 176 176 172 167 145 82 38 4 12 12 16 11 9 1 8 17 14 27 39 47 46 49 55 58 62 69 80 88 94 95 97 101 108 115 117 123 135 135 145 149 156 159 164 170 170 180 179 182 183 184 179 166 154 149 126 96 89 102 102 92 76 73 86 112 132 155 172 184 193 197 191 187 181 181 176 178 186 187 186 191 194 194 193 192 190 192 187 187 184 182 179 177 176 176 174 165 137 59 41 4 14 7 3 11 11 3 8 13 6 24 32 47 49 51 50 57 58 67 78 88 96 89 94 99 104 113 114 117 129 131 139 145 154 158 161 166 171 177 173 180 181 182 163 167 161 145 119 74 95 111 109 106 89 86 85 110 137 158 175 188 214 211 200 191 182 179 175 179 184 184 190 193 193 194 193 190 191 192 190 186 186 182 178 180 178 173 173 163 122 61 33 4 7 0 2 5 15 4 3 8 9 22 35 40 49 49 50 55 62 65 68 84 91 88 93 100 102 110 106 114 119 126 135 142 147 159 159 168 170 175 182 183 180 173 170 161 161 146 90 79 101 107 111 107 102 89 85 112 141 154 172 192 210 218 201 196 183 180 174 178 182 185 183 191 197 189 189 189 192 190 188 184 184 180 176 176 176 176 171 164 135 73 11 4 9 6 1 4 6 25 5 8 11 17 32 35 44 48 51 56 60 68 74 84 82 99 95 101 101 103 105 106 116 124 131 139 149 150 159 167 174 173 177 185 182 178 175 164 156 118 65 79 99 111 116 114 101 94 88 107 136 148 167 184 188 198 197 195 187 177 176 175 180 190 182 182 187 188 192 191 192 190 189 187 184 179 178 177 178 177 169 163 122 69 11 7 6 1 1 4 2 9 4 6 11 20 31 36 42 49 50 57 65 61 71 87 89 85 89 106 103 97 103 103 112 121 125 131 142 149 157 162 171 176 181 183 173 166 168 163 150 86 64 81 89 102 114 108 99 85 81 100 126 145 160 179 184 187 190 185 179 173 170 171 178 185 187 185 184 193 190 188 190 190 188 184 184 181 179 175 176 174 169 161 104 54 9 7 0 1 7 4 1 1 6 7 8 19 27 31 44 45 50 53 58 64 64 76 91 89 97 92 97 98 96 108 102 115 124 133 138 150 158 162 166 173 177 183 170 169 162 158 127 83 63 76 76 90 93 86 77 68 65 79 105 130 152 166 175 176 183 183 165 163 154 158 175 187 179 181 187 189 189 192 191 189 187 184 184 178 178 175 178 176 170 159 103 51 12 4 1 5 7 14 4 1 1 8 6 11 20 38 43 41 47 54 60 65 70 69 87 92 93 99 91 95 90 99 105 112 117 131 138 146 153 166 167 169 174 173 170 165 167 162 109 81 65 73 67 68 61 36 27 36 58 64 79 117 134 154 167 174 173 165 146 85 119 153 184 190 187 184 186 185 188 190 188 186 185 186 183 180 180 177 178 174 171 152 106 87 10 4 3 3 5 9 7 1 3 5 5 15 23 32 37 46 46 59 59 66 68 73 84 86 88 90 99 92 97 98 99 112 115 130 137 146 155 161 168 171 173 168 168 169 166 164 107 91 75 56 66 57 42 35 21 13 17 33 62 90 115 139 152 159 160 164 164 131 143 189 192 193 193 187 183 186 188 188 188 186 186 184 184 182 180 176 178 174 163 145 111 56 7 5 16 3 1 1 0 1 1 1 6 14 22 26 35 31 47 55 49 65 70 74 76 85 90 92 90 94 94 89 101 111 109 125 138 143 150 161 167 169 165 165 166 169 166 162 147 97 81 65 51 61 62 63 51 45 42 25 26 68 103 130 137 149 161 183 179 164 178 187 187 192 191 189 185 186 186 191 193 191 188 187 185 182 178 176 175 174 169 136 101 40 17 5 12 2 0 1 1 1 1 4 6 19 20 22 37 31 48 47 49 57 76 67 75 84 89 98 93 95 89 90 96 112 110 127 139 151 147 157 164 171 164 162 161 167 165 162 158 150 127 103 80 60 64 63 60 63 61 54 37 36 72 98 113 142 176 175 182 177 185 184 193 191 196 191 187 183 187 185 187 187 185 186 183 183 181 179 176 177 158 129 103 42 3 4 9 3 2 3 3 3 3 1 4 10 15 20 28 34 38 44 47 58 67 76 73 81 88 92 96 95 86 94 103 106 116 120 142 144 152 157 165 166 156 164 163 165 161 159 156 149 147 131 109 85 74 71 61 61 63 70 59 59 80 100 159 183 173 159 158 159 185 180 187 194 190 193 190 187 187 188 186 186 190 186 185 184 183 180 174 166 156 117 83 41 2 2 12 1 4 3 5 2 1 3 2 4 11 20 30 34 41 45 45 58 73 66 75 87 81 92 92 91 92 91 101 107 116 105 145 147 153 161 165 163 163 162 165 163 159 155 152 147 137 133 130 131 112 85 71 72 66 73 90 93 119 161 172 175 163 127 113 129 151 164 183 192 192 194 192 191 185 190 187 191 187 184 185 184 181 176 176 160 155 110 74 31 5 2 2 7 1 2 3 1 0 1 5 4 9 16 32 41 44 40 45 56 59 72 77 83 80 79 98 84 88 91 101 109 113 123 138 146 153 156 162 164 162 160 164 161 155 151 148 147 141 132 115 98 80 74 85 97 105 142 166 169 162 158 162 160 149 96 117 121 126 119 162 182 189 192 193 192 191 188 191 188 191 189 186 185 181 180 169 158 143 95 83 27 8 1 9 6 0 1 0 0 0 1 2 4 12 14 31 36 41 39 53 56 55 70 77 79 85 81 85 82 90 90 96 106 112 123 142 151 155 157 160 167 169 164 158 158 151 151 150 142 138 132 95 87 70 55 68 80 103 136 159 148 160 154 146 136 118 108 119 98 82 117 128 167 174 182 186 191 193 190 190 188 192 191 188 187 185 178 164 145 137 84 65 24 7 11 15 5 1 3 2 0 0 1 1 3 6 15 31 28 42 38 52 51 53 58 71 74 73 82 84 84 85 89 104 107 113 129 139 144 151 158 161 168 169 171 163 154 155 143 136 125 115 88 63 52 45 59 53 66 96 124 127 157 150 167 123 134 120 109 111 97 94 102 91 125 152 178 182 188 186 195 193 191 192 189 189 187 181 173 162 132 128 78 32 24 3 4 52 9 1 3 3 0 0 1 1 4 6 10 26 28 36 41 61 53 39 63 71 69 78 83 83 81 76 95 99 107 117 129 140 143 150 152 159 166 164 154 163 154 137 126 116 103 79 70 49 41 43 65 77 98 94 109 120 174 167 166 159 128 119 118 112 114 103 90 86 110 139 153 172 174 168 179 191 192 192 193 190 186 182 174 156 126 119 93 25 13 11 7 11 1 1 4 3 1 0 2 2 2 5 6 12 26 38 33 54 43 53 58 66 53 77 73 70 77 77 92 96 103 117 125 137 144 146 152 157 160 158 148 143 117 113 114 104 89 73 52 47 56 48 55 95 78 99 139 169 174 158 178 158 161 168 111 123 109 107 96 106 110 146 110 142 151 159 192 186 189 190 190 188 186 182 170 142 124 112 93 33 9 4 20 5 2 2 2 2 0 0 1 1 3 5 4 11 19 30 28 52 54 54 37 48 59 68 56 65 75 73 93 99 108 116 123 130 139 143 148 154 150 126 131 102 96 85 67 80 66 39 55 48 60 68 80 82 62 120 175 188 179 187 184 174 182 188 186 160 146 132 110 128 123 143 147 124 147 142 146 185 188 193 191 191 184 183 161 138 109 126 75 11 2 1 12 11 2 1 3 0 0 0 1 2 3 3 3 8 16 22 31 41 51 50 43 51 65 60 41 67 69 81 88 98 107 121 124 130 140 140 140 131 123 114 104 83 87 62 83 89 67 66 86 74 93 100 105 116 103 112 139 144 166 174 192 185 167 154 154 158 160 154 146 133 145 145 136 130 131 141 150 142 182 191 192 190 185 167 135 144 102 85 61 12 10 2 3 11 4 2 2 1 0 0 1 2 1 2 6 13 15 25 32 33 45 47 34 60 79 60 38 56 59 78 86 93 109 116 126 125 135 135 125 120 126 108 81 77 70 68 78 82 85 67 88 117 121 106 112 109 120 136 146 135 136 149 156 156 152 156 160 161 160 159 147 151 172 150 130 124 101 142 137 136 127 194 193 189 183 171 102 120 96 97 55 4 2 4 5 10 4 1 2 0 0 1 1 2 1 3 3 7 12 26 24 37 35 42 40 45 47 49 37 48 50 80 86 94 108 111 122 127 126 127 111 104 90 54 73 85 74 65 69 96 89 101 105 106 99 101 105 126 128 129 137 140 136 139 149 146 140 149 146 149 150 155 146 142 149 148 146 119 115 124 134 113 140 166 188 191 176 167 134 101 93 75 30 4 4 3 4 11 1 1 0 0 1 1 2 2 3 3 4 7 8 20 23 33 29 35 40 30 37 39 44 36 41 74 71 93 89 112 113 123 124 122 107 101 80 64 69 69 79 77 79 80 112 96 88 74 74 87 95 103 115 112 117 124 126 127 143 146 135 132 136 138 134 137 141 131 127 152 142 124 122 123 140 114 110 161 176 188 169 154 119 83 81 43 15 6 10 2 1 28 13 2 1 1 0 0 1 2 3 3 3 7 7 14 26 21 22 42 36 32 34 37 38 36 33 60 67 75 86 113 122 111 108 101 80 52 58 75 69 60 81 100 88 82 78 58 46 46 41 45 44 29 46 57 68 83 95 82 100 103 118 89 100 139 135 120 113 90 84 112 118 130 117 130 136 148 115 147 175 181 160 150 119 88 68 36 3 3 3 3 3 8 1 0 0 3 1 0 1 3 3 4 4 7 6 17 21 15 13 21 33 26 27 36 28 33 35 41 60 70 87 103 119 113 99 92 68 76 67 86 89 72 105 106 54 36 39 54 79 94 103 114 125 139 146 151 149 155 156 151 156 156 153 167 165 160 164 169 172 162 158 142 98 107 144 137 150 151 145 116 157 175 156 143 104 67 76 21 4 8 7 5 3 0 2 1 3 0 1 0 1 4 2 3 3 4 8 15 15 23 16 17 24 17 24 33 21 23 36 33 65 50 69 93 107 110 94 86 65 79 120 90 106 135 151 147 137 130 113 103 104 108 116 119 120 143 149 155 160 162 171 173 175 171 169 170 174 171 175 175 174 179 172 183 184 167 150 141 148 167 142 131 110 156 159 131 95 71 47 7 33 19 21 16 11 1 2 1 2 1 0 0 0 3 5 6 2 4 5 4 13 14 16 23 19 20 21 24 21 15 31 35 57 45 65 82 99 109 91 106 95 114 106 124 138 172 181 177 153 146 134 119 110 108 109 126 136 142 146 159 163 168 177 190 186 179 181 177 193 173 177 175 174 177 191 193 192 190 182 166 147 142 142 138 171 157 151 115 86 61 44 3 11 11 20 15 5 9 1 2 4 1 0 0 0 4 5 5 5 5 4 6 9 6 20 18 16 15 23 26 22 14 28 25 47 43 62 75 95 101 118 126 113 100 121 141 164 183 187 176 161 148 141 140 124 118 115 110 126 131 144 148 162 175 175 175 182 180 184 178 179 172 175 176 182 185 190 193 194 196 189 182 178 172 160 151 161 131 133 96 68 42 40 5 6 9 19 10 7 36 35 6 2 2 0 0 0 6 6 3 6 3 4 6 4 10 14 18 12 11 17 19 16 32 33 39 35 36 45 75 71 95 114 122 103 118 126 143 172 185 186 176 158 145 141 148 139 122 120 125 123 140 147 152 151 152 161 169 182 181 175 172 163 171 180 182 184 185 191 194 196 198 199 192 186 172 170 154 146 154 118 59 59 52 17 5 4 5 21 5 5 5 23 29 7 0 1 1 0 5 4 7 3 6 6 5 6 9 16 9 10 10 18 16 22 27 33 20 29 37 45 50 59 90 108 116 132 126 131 162 180 183 179 174 160 145 140 145 147 137 132 124 130 130 142 145 157 156 158 164 160 165 160 167 172 172 173 179 183 185 188 195 194 196 198 194 191 187 180 160 159 121 89 54 49 23 10 1 8 13 9 16 10 3 3 6 10 3 3 0 3 3 10 14 8 6 5 3 5 9 6 7 10 13 11 14 15 31 31 22 24 23 39 42 57 85 103 113 116 132 157 152 166 171 177 174 165 150 143 141 141 134 129 125 123 143 144 125 118 127 133 130 129 126 133 143 157 167 173 184 182 187 189 194 196 198 197 193 193 191 185 155 157 103 80 33 45 7 6 3 6 4 6 2 17 2 4 24 7 2 3 0 0 4 14 21 18 13 5 6 5 7 7 7 10 7 11 14 15 18 21 23 18 19 25 37 55 73 88 102 121 140 149 160 166 168 170 168 167 156 147 142 140 134 125 121 118 137 141 136 137 129 125 131 127 136 132 147 154 163 175 178 186 187 192 193 196 195 191 192 192 187 184 169 150 103 55 27 35 5 3 1 4 3 2 1 3 4 7 15 1 7 2 2 0 10 13 26 22 14 10 14 10 5 9 6 6 8 13 14 27 18 17 20 14 16 25 40 52 58 100 110 120 139 146 160 163 163 166 169 161 159 154 146 147 140 132 111 116 129 144 141 145 143 134 145 133 153 155 157 158 164 165 172 185 188 194 194 192 194 192 193 192 191 183 171 133 90 34 22 17 4 1 3 3 5 6 4 13 7 6 4 1 0 9 17 8 17 10 28 35 29 20 9 13 9 6 11 9 9 12 13 12 11 14 12 15 22 26 32 41 56 72 97 120 129 138 145 159 161 163 161 163 163 155 154 148 148 140 133 137 144 145 149 144 143 150 147 157 157 170 157 173 176 175 188 189 194 190 194 193 194 190 191 178 181 175 156 127 49 54 38 11 4 3 4 4 7 8 18 12 4 3 7 7 9 5 1 9 29 11 29 39 36 26 11 11 15 8 5 10 10 13 12 12 15 12 14 16 16 19 33 39 44 54 83 119 124 141 144 156 157 165 161 160 161 157 156 157 154 150 154 158 158 151 153 151 150 172 175 169 170 159 170 181 182 189 191 196 195 195 193 193 193 195 181 179 149 145 120 81 31 35 12 8 1 7 8 3 4 10 20 19 3 4 2 2 2 1 3 18 44 16 28 47 46 38 31 24 18 14 8 8 6 5 10 6 9 9 13 17 27 27 26 21 26 62 67 95 118 135 145 144 148 157 165 165 165 161 166 158 161 163 165 168 175 168 168 169 169 176 182 189 190 190 187 195 191 196 195 193 193 197 196 194 195 186 185 171 151 126 109 57 29 14 8 14 20 7 11 5 1 3 13 14 2 2 2 1 2 2 1 7 58 25 28 40 49 46 42 28 22 18 13 6 5 6 9 6 9 7 14 26 27 24 15 24 30 49 68 71 93 119 134 135 148 149 158 165 164 167 168 166 167 168 166 175 177 180 181 178 179 186 197 198 193 198 204 203 195 198 200 197 196 197 196 195 195 184 175 161 147 95 60 36 29 31 7 10 9 11 3 9 10 1 16 7 5 3 4 1 1 2 1 7 16 60 25 34 50 52 51 45 35 34 28 8 9 7 9 7 8 10 19 26 17 16 19 22 29 45 52 68 99 111 127 124 148 151 155 162 167 172 170 166 168 170 169 175 179 175 183 183 178 174 195 203 208 200 209 205 202 203 200 198 199 198 196 196 193 187 163 143 125 94 52 29 24 12 6 13 4 11 7 11 4 10 13 4 4 4 1 3 4 2 7 13 35 61 20 36 47 54 55 52 44 36 32 25 10 7 6 5 4 12 11 12 20 18 18 15 18 22 33 55 73 91 111 139 141 147 152 161 164 169 167 171 170 172 177 172 176 179 175 187 182 185 191 191 197 201 197 202 203 202 201 200 199 196 196 195 192 184 169 134 105 80 42 42 18 9 6 6 9 14 18 5 2 5 7 9 2 3 2 2 2 2 14 19 55 54 41 38 44 56 59 60 55 43 41 33 13 10 6 7 3 6 6 8 11 11 15 13 17 25 27 59 59 66 100 116 116 124 138 144 162 155 168 170 172 170 174 168 176 180 172 173 179 184 178 187 195 185 193 192 198 199 199 202 197 193 191 191 182 169 134 123 98 45 53 15 10 10 13 18 18 31 30 11 3 2 5 7 2 2 1 2 3 8 15 26 41 66 72 31 46 55 63 61 62 52 46 36 17 9 6 9 6 6 5 7 11 11 14 13 12 16 24 29 60 50 90 84 101 113 101 122 149 135 163 166 161 170 170 172 173 173 162 153 174 157 169 172 183 186 192 194 197 188 193 194 196 187 165 181 162 154 134 102 87 28 38 16 5 7 20 16 3 9 16 10 7 3 4 6 3 11 5 5 5 11 14 20 28 63 111 44 52 55 51 55 58 64 51 47 46 26 20 10 6 9 4 5 6 8 17 5 9 15 18 18 40 36 38 46 74 82 87 80 121 147 147 140 153 157 144 159 158 164 149 169 154 135 157 184 189 174 156 177 174 160 154 172 186 182 168 160 131 138 84 69 36 55 22 14 4 6 6 3 7 4 4 6 1 4 10 13 7 25 8 4 6 11 18 21 31 40 113 97 48 52 56 62 65 65 62 51 48 38 32 18 15 4 4 5 7 9 14 10 7 12 9 15 19 30 16 35 47 52 58 95 104 125 107 122 132 139 143 130 145 140 144 146 129 142 140 161 166 152 154 154 146 156 141 159 158 151 162 155 129 111 68 36 34 31 13 5 5 1 2 5 3 3 3 2 3 4 4 4 4 12 2 2 9 13 20 22 42 32 105 125 82 53 57 63 67 68 64 57 52 45 34 25 24 12 7 4 5 9 9 8 12 8 5 11 13 16 7 27 37 33 56 56 77 69 96 83 105 107 128 115 125 137 132 152 122 134 114 167 147 140 161 151 164 137 118 134 146 135 106 133 118 100 37 23 22 19 8 3 4 1 2 3 7 6 6 1 1 7 13 6 10 2 2 4 14 16 27 29 27 35 87 116 107 60 61 61 66 70 60 63 58 57 38 31 15 16 4 7 4 8 10 12 14 6 7 6 5 16 18 25 19 36 37 25 43 50 60 76 92 82 95 102 99 110 104 136 115 121 120 152 147 119 116 137 126 116 110 106 107 112 107 140 72 57 32 19 18 4 9 8 5 4 3 3 7 4 8 9 5 15 13 8 9 3 2 13 24 10 32 19 14 67 95 118 121 98 67 61 67 67 67 68 70 54 50 46 45 19 10 9 6 3 4 6 5 7 6 4 7 6 14 10 15 17 22 24 37 39 42 50 46 74 61 72 97 96 85 102 93 117 117 131 124 119 122 131 131 89 74 87 95 85 79 77 76 59 19 28 29 4 7 8 11 6 9 9 7 9 13 12 7 7 12 9 12 4 2 22 33 24 22 10 14 84 85 93 141 141 74 67 69 69 68 69 70 64 58 51 56 30 19 14 4 4 4 7 5 13 10 7 5 6 4 11 13 7 16 20 30 39 25 64 32 52 95 69 58 73 77 95 102 103 106 116 74 107 119 96 109 83 60 86 83 50 55 47 38 34 34 68 70 8 10 9 8 10 5 7 5 2 5 6 5 3 12 10 26 5 5 30 21 34 34 13 24 73 89 114 136 152 138 64 72 71 70 75 77 68 70 52 67 37 32 17 11 10 8 6 6 6 5 7 9 7 8 8 10 8 49 14 16 26 36 25 19 34 40 54 47 64 61 86 89 120 77 97 93 90 83 104 77 78 67 60 55 28 40 20 39 14 30 88 112 37 15 12 11 13 11 1 7 4 4 3 4 4 8 16 15 4 5 34 15 40 25 10 47 107 113 114 128 147 156 123 64 70 69 73 82 74 65 67 69 48 38 28 19 17 10 14 10 8 7 7 7 8 7 8 7 6 28 15 16 19 17 24 22 19 21 30 40 46 45 58 68 59 74 81 76 61 70 69 59 54 38 60 53 24 25 17 29 35 35 111 127 52 14 6 11 15 19 9 3 4 4 3 2 6 8 12
