P2
# Generated by OpenCV 4.2.0
92 112
255
27 31 37 31 16 5 25 44 27 19 7 1 2 4 6 7 3 4 6 3 5 11 11 11 11 10 4 3 3 5 9 25 31 24 25 32 33 26 28 34 34 28 19 30 42 46 54 63 73 78 91 107 103 93 95 101 98 101 96 101 89 71 82 67 49 48 45 43 33 33 29 30 30 46 40 20 12 9 7 18 40 22 4 14 10 2 8 15 3 7 32 6 21 19 23 14 8 4 28 40 30 19 6 3 2 4 4 2 3 2 2 4 7 10 13 13 5 2 3 5 4 10 15 23 30 35 35 35 45 51 39 33 43 42 17 19 41 46 50 60 76 89 96 111 124 106 100 122 124 120 119 117 109 89 94 86 70 64 67 61 48 38 34 35 38 45 40 23 12 10 11 15 34 14 7 7 8 13 13 6 3 4 17 18 13 7 10 4 4 5 8 16 23 24 16 7 1 1 3 1 1 1 2 5 4 4 5 3 1 0 3 7 17 30 35 39 47 53 57 58 67 86 89 67 64 68 49 21 31 41 37 49 69 81 95 109 124 125 125 147 159 154 147 139 135 125 115 108 101 89 96 79 62 55 49 43 44 37 46 28 14 13 13 14 16 6 7 8 16 26 16 5 2 1 8 44 5 4 3 2 2 3 3 7 9 12 20 21 5 1 3 1 1 0 8 6 1 1 1 1 2 4 10 25 39 56 67 68 80 85 86 94 107 115 123 120 110 100 82 57 33 36 34 41 63 78 87 104 119 131 144 161 172 164 159 164 158 152 147 133 123 125 120 99 85 79 62 51 48 44 46 20 16 14 13 13 10 6 7 16 19 26 33 28 12 4 3 17 3 3 4 4 2 3 8 11 18 19 17 19 10 3 2 2 2 4 8 6 4 2 3 3 5 14 36 55 67 76 89 102 111 113 116 123 130 135 145 149 143 135 121 110 87 64 72 68 67 80 94 102 109 128 155 177 182 178 180 184 180 168 172 161 151 152 142 131 114 99 80 72 64 58 43 28 27 27 21 15 8 5 5 10 17 21 31 33 28 13 5 3 5 5 7 5 4 6 12 17 25 38 32 13 6 6 4 2 2 3 5 6 5 3 10 10 17 45 68 82 98 105 112 122 131 139 145 150 159 164 166 170 167 159 154 150 136 126 120 115 108 103 111 108 113 146 169 185 193 194 192 190 189 182 183 178 178 173 166 163 143 117 104 102 90 71 53 54 54 40 28 15 9 5 7 8 14 16 17 26 30 17 10 6 6 4 3 3 3 3 5 10 13 23 24 11 5 5 2 3 4 3 7 7 6 11 15 22 52 76 95 112 121 127 134 139 147 160 167 173 175 174 173 173 172 168 162 159 153 146 144 136 127 124 122 125 133 156 176 191 195 197 196 194 192 192 187 186 187 188 181 173 161 144 130 124 108 91 82 76 67 55 37 20 11 5 7 7 4 10 9 12 15 10 8 5 6 4 2 1 1 2 5 10 11 13 12 12 8 4 2 5 8 11 13 14 20 29 32 54 86 109 123 126 129 139 150 153 154 164 170 174 173 175 175 175 177 179 175 174 176 172 169 165 153 145 145 147 159 171 184 194 198 198 197 196 194 192 189 186 183 184 176 169 166 159 150 139 128 114 110 101 83 64 52 37 16 7 5 9 7 5 10 13 7 2 2 3 4 2 1 1 0 1 2 3 7 6 4 10 9 6 4 9 15 17 17 25 46 50 61 86 111 134 135 132 136 142 153 158 160 163 169 173 176 177 181 182 181 183 188 188 189 189 188 188 186 174 169 167 177 190 196 197 201 204 199 197 194 190 190 187 182 182 180 181 182 171 156 155 152 132 126 124 115 86 58 50 33 15 9 5 9 14 15 21 22 9 1 1 3 2 1 1 0 0 0 1 3 3 2 4 5 6 11 16 20 22 24 42 77 87 93 114 129 139 139 138 141 144 152 159 164 166 169 174 179 179 182 183 182 184 187 193 193 192 195 197 198 194 184 185 194 201 202 201 203 203 198 196 195 184 184 186 184 183 185 186 184 178 170 167 163 149 138 129 122 115 80 60 47 30 18 11 6 10 18 22 18 15 9 2 2 3 3 1 0 0 0 0 2 3 2 1 5 10 12 14 17 20 38 77 105 119 124 125 134 142 143 139 141 143 150 159 165 165 170 176 181 184 187 185 189 188 188 194 194 195 198 199 201 202 198 199 202 204 208 212 209 201 198 199 199 191 185 194 195 187 185 186 184 178 176 171 167 164 158 140 129 126 98 72 54 35 25 21 11 6 8 11 8 8 7 2 2 3 2 1 0 0 0 0 1 1 3 5 13 11 8 10 17 26 58 93 113 124 127 128 138 143 144 141 142 144 150 156 163 168 172 177 183 188 190 192 196 192 194 197 198 198 197 199 200 202 204 207 213 217 221 224 216 209 205 202 202 207 205 201 198 192 187 186 185 181 178 175 169 164 162 150 141 137 115 85 63 38 28 25 24 17 11 11 9 7 6 2 1 2 2 1 0 0 0 1 1 5 14 16 10 6 6 14 24 45 73 96 109 118 124 127 133 141 142 142 145 145 152 154 162 168 171 183 188 191 193 194 197 197 203 200 199 198 201 207 208 205 208 215 222 223 220 219 216 215 213 209 208 208 208 207 205 198 189 186 186 181 177 179 173 164 160 158 147 144 125 89 65 41 33 26 21 20 20 19 18 19 10 3 1 1 1 0 0 0 1 1 3 6 9 13 7 6 6 12 31 59 76 100 123 126 125 128 135 144 144 144 144 148 152 155 161 166 175 187 192 195 197 198 200 201 202 204 204 205 213 218 218 215 214 223 225 220 222 221 221 222 223 220 215 210 209 209 207 203 193 187 183 183 180 178 176 170 163 160 156 147 121 81 67 44 26 26 26 16 13 15 21 24 16 11 2 1 1 0 0 0 0 1 1 2 5 13 12 8 12 21 36 57 81 112 126 128 128 132 137 143 143 144 146 149 153 158 161 171 178 181 189 195 199 203 204 206 207 207 207 213 219 220 218 218 223 223 224 224 226 225 225 228 229 223 222 219 214 211 211 206 201 188 182 183 182 176 179 179 172 163 161 156 122 79 73 49 31 30 29 20 19 15 17 15 17 15 2 1 1 1 2 2 2 1 0 1 8 16 13 11 14 25 42 59 92 120 127 126 127 133 139 146 144 145 151 151 155 158 160 166 181 182 185 197 201 205 204 206 210 211 212 211 215 216 212 217 226 222 221 224 227 225 226 229 227 222 222 225 223 218 216 211 204 192 186 183 179 177 177 178 175 165 166 163 130 84 62 49 35 30 28 23 18 17 14 13 19 23 4 2 3 4 2 3 1 1 1 4 15 16 9 10 16 31 48 68 98 112 130 133 131 139 144 147 150 147 150 154 154 156 160 162 174 183 192 197 198 202 204 206 210 211 212 213 216 214 209 212 221 220 218 221 227 227 227 228 228 226 223 222 226 223 215 212 201 189 188 187 183 177 177 178 176 167 165 161 138 102 65 37 32 37 30 21 18 17 20 20 27 36 1 2 3 3 1 1 3 2 0 2 15 13 6 8 23 41 57 77 98 118 133 134 136 144 149 150 148 149 150 156 159 158 161 165 168 180 189 194 198 204 206 208 213 214 216 216 216 216 213 216 222 223 222 224 229 230 230 231 230 230 227 224 224 221 215 210 198 189 185 186 183 177 177 174 177 173 164 160 150 138 103 52 33 39 37 25 19 17 13 18 20 20 6 6 4 2 0 0 2 1 0 3 15 10 4 12 28 46 61 82 104 124 133 135 138 143 146 146 144 150 154 158 159 162 160 163 167 175 179 186 197 205 208 211 212 214 215 214 214 215 213 218 223 223 224 226 225 227 229 229 230 229 229 226 220 217 211 205 196 191 184 183 181 177 175 179 178 177 170 163 155 155 143 110 58 36 33 24 17 10 7 9 7 10 16 13 5 2 0 0 0 0 1 6 13 8 4 21 32 44 60 83 105 120 136 136 134 142 145 146 152 154 157 157 160 160 160 162 167 174 177 184 198 203 207 209 212 215 214 213 213 213 212 216 222 223 223 226 226 225 224 227 227 227 228 226 219 214 209 203 194 191 184 182 179 179 177 180 178 176 171 163 160 153 153 142 100 47 25 19 14 12 9 7 3 3 11 20 7 3 1 0 0 0 2 7 6 10 12 22 31 40 60 83 107 124 136 138 138 143 148 152 157 159 157 159 158 159 160 164 169 176 182 189 197 201 204 210 212 214 211 212 212 213 214 218 220 222 223 224 224 223 224 225 225 225 224 222 220 213 207 199 195 190 181 181 178 178 177 179 178 175 169 166 162 153 149 137 113 58 23 18 17 13 11 9 5 2 11 17 4 1 1 0 0 0 3 6 3 14 17 21 30 45 66 91 105 119 135 137 139 141 150 155 160 158 160 162 162 162 165 169 174 179 185 188 195 203 206 211 212 212 212 212 211 213 215 220 223 222 221 224 222 216 221 224 221 221 221 220 218 211 202 199 196 189 186 184 182 179 184 184 180 177 173 165 160 156 146 134 106 61 30 19 21 18 15 14 8 4 12 8 3 1 1 3 2 0 3 3 3 11 18 22 34 49 69 84 100 121 130 132 137 142 148 156 160 160 164 165 164 164 166 169 174 178 182 186 198 204 207 210 211 212 211 212 213 214 216 221 222 223 223 223 222 218 219 219 217 215 217 217 217 211 202 199 195 190 189 185 182 183 183 184 184 178 175 165 161 153 145 130 108 69 35 19 20 22 18 13 8 4 14 8 4 1 2 1 3 1 3 3 4 14 20 24 34 52 70 83 110 123 128 133 134 139 153 156 160 162 163 165 165 161 165 166 168 175 181 187 194 203 203 203 208 207 208 209 210 214 219 220 220 222 221 219 220 218 217 216 215 214 214 213 214 209 203 197 193 190 188 186 183 183 182 183 184 181 175 168 159 153 149 128 107 79 39 18 19 20 19 13 5 4 9 5 4 2 2 1 3 1 1 5 8 14 21 26 35 53 70 93 111 117 124 132 135 141 152 157 156 163 166 164 162 160 164 168 170 177 185 191 195 200 200 199 204 207 208 211 214 219 223 221 221 221 220 220 218 216 214 213 212 214 215 210 207 205 201 197 190 184 185 185 183 185 185 184 182 182 180 173 161 152 145 126 106 73 42 22 16 15 18 21 16 9 7 9 5 3 3 1 1 0 0 3 5 10 17 23 35 51 73 94 103 116 121 130 136 143 151 152 152 161 169 165 163 166 167 170 173 180 188 193 199 198 200 201 207 211 211 214 217 221 224 224 225 224 221 219 217 217 217 215 214 214 217 215 209 203 200 195 189 184 181 182 182 185 184 180 182 183 181 175 165 155 145 125 104 72 37 27 18 15 16 16 16 17 9 8 4 4 4 5 2 1 1 2 4 11 16 19 33 55 76 93 106 112 121 133 141 144 146 150 157 163 166 167 166 169 170 175 180 183 190 193 197 196 197 202 211 214 213 216 218 222 226 226 227 225 222 218 218 216 215 215 214 214 216 215 213 208 202 194 190 187 185 182 180 179 179 177 182 182 179 174 164 159 146 127 107 74 36 21 18 17 16 15 17 17 6 6 2 2 0 2 1 2 1 1 3 8 13 19 37 59 78 95 108 111 120 130 138 141 144 153 160 162 164 165 166 169 174 180 185 188 192 196 199 201 205 208 210 212 215 218 223 228 229 227 226 224 221 219 217 216 215 214 215 217 214 213 213 210 206 198 195 191 188 184 179 176 177 176 180 182 177 171 166 159 148 126 102 79 40 24 18 16 22 23 19 18 2 1 1 0 1 0 2 3 3 2 4 7 15 26 44 73 85 100 107 113 120 125 133 143 150 159 160 163 166 165 167 170 177 182 186 193 196 199 200 206 210 211 213 215 217 219 227 229 228 229 228 225 223 219 219 217 215 215 217 217 218 216 216 211 205 202 200 196 189 189 184 180 180 180 179 182 179 171 165 159 149 132 103 79 49 21 16 14 20 21 18 13 3 2 1 0 1 1 0 3 4 1 6 8 20 36 60 81 91 102 106 113 119 124 133 143 156 164 166 166 164 165 167 174 179 185 191 196 198 198 200 202 209 215 217 217 221 223 228 230 230 229 228 228 223 221 220 218 220 223 224 223 222 221 219 215 210 202 200 198 191 190 185 179 179 179 178 180 176 169 164 161 149 134 109 76 52 21 14 13 21 26 22 14 7 4 1 2 2 1 1 3 3 2 5 8 24 48 76 86 95 100 104 110 113 123 134 148 164 176 176 166 163 166 171 178 185 190 191 196 195 198 204 204 210 213 215 214 220 226 230 233 231 228 227 227 222 216 218 223 227 228 229 229 226 226 225 221 217 208 202 200 195 192 187 180 178 177 178 179 175 168 165 159 149 139 116 82 54 26 14 11 19 24 18 11 9 10 7 6 4 1 2 1 0 2 6 14 36 67 88 94 92 100 104 104 109 124 139 157 173 180 178 168 165 168 174 176 186 193 190 192 193 198 203 206 208 209 210 211 216 225 232 232 228 226 225 223 221 215 218 228 230 230 229 229 227 227 228 225 220 215 208 204 199 194 190 185 180 179 177 175 173 168 162 155 145 138 125 97 61 31 13 7 15 21 16 10 6 15 11 3 3 1 2 1 1 5 9 24 57 79 91 96 90 96 102 98 109 130 150 161 166 166 166 165 162 163 171 173 173 182 190 184 186 194 200 201 205 204 205 205 212 221 224 225 226 225 220 217 215 212 216 221 221 221 220 219 218 222 225 222 220 215 210 206 198 192 190 188 185 181 176 171 166 164 159 153 143 139 132 106 66 30 12 8 10 13 14 11 4 10 10 1 2 3 3 3 3 11 14 37 72 87 93 89 82 95 92 92 114 127 133 131 129 125 124 123 125 114 117 123 117 125 151 149 146 162 176 182 197 192 192 197 207 216 218 217 218 220 218 216 212 207 208 208 207 208 207 203 207 210 210 214 216 211 208 204 197 191 185 181 180 178 177 171 163 160 154 147 141 139 132 120 81 39 13 7 7 12 11 9 7 7 8 2 0 3 4 2 8 16 24 49 76 91 95 83 88 95 90 100 100 84 75 81 83 78 79 69 72 58 51 59 64 69 83 96 102 127 139 150 171 172 183 187 199 206 213 212 210 212 214 213 210 209 206 206 204 202 198 192 191 179 180 195 196 188 187 184 177 183 184 174 168 162 165 166 157 154 150 139 140 139 136 124 88 49 14 5 8 11 9 8 6 8 8 5 2 4 5 4 14 19 29 56 77 91 89 91 101 92 88 85 66 51 48 63 66 64 66 66 68 67 63 60 61 63 69 70 86 113 122 125 139 160 167 170 192 203 210 210 208 209 211 210 208 207 205 206 203 195 188 185 170 146 149 161 153 141 118 110 133 150 151 136 131 134 133 137 144 153 148 137 138 139 135 125 90 50 16 5 4 6 5 5 2 5 7 13 10 2 4 6 12 16 32 65 81 88 90 91 97 85 75 65 53 52 54 76 85 75 68 66 75 74 70 71 72 67 79 80 82 84 106 114 127 140 139 160 179 193 208 211 206 205 207 205 204 203 206 208 204 193 179 172 146 132 140 133 116 98 75 77 89 80 76 74 87 112 114 119 121 135 142 137 133 136 130 124 100 51 16 4 0 1 1 1 5 5 6 15 12 3 8 10 15 15 35 73 87 92 98 98 88 82 67 51 53 65 71 78 86 89 94 96 99 105 111 107 104 92 95 108 101 92 95 109 119 123 135 155 172 198 208 208 203 202 200 197 201 202 202 202 202 192 169 153 141 134 136 123 88 79 81 81 70 65 65 66 83 99 101 95 96 86 99 128 131 137 130 123 106 50 14 6 2 2 1 0 6 6 10 15 7 3 8 14 15 17 37 74 86 85 104 101 86 83 80 66 67 76 89 103 110 115 122 135 140 136 144 141 137 132 125 127 121 117 111 113 112 123 144 158 175 195 203 202 203 203 200 195 196 197 195 195 194 182 155 138 126 119 118 98 85 82 79 75 68 68 72 78 84 83 76 74 67 62 72 107 120 130 130 124 100 44 10 4 1 1 1 0 10 17 14 7 4 1 6 11 12 20 42 71 79 86 103 99 85 94 94 93 93 90 96 110 119 121 125 131 135 133 131 126 114 108 110 104 107 118 116 119 117 120 132 150 168 182 192 197 199 198 201 195 190 191 191 188 182 171 153 130 120 117 114 105 105 101 98 108 111 110 110 105 109 94 89 92 84 84 80 75 98 124 130 126 101 43 9 3 0 1 0 0 17 19 18 9 3 2 8 11 14 25 49 72 82 88 97 96 94 105 111 114 114 105 107 110 112 104 94 79 62 56 54 41 25 24 29 30 47 71 82 97 112 116 124 135 157 175 185 192 198 197 196 194 190 187 182 172 169 163 152 134 130 129 126 127 127 125 134 144 146 149 150 144 134 125 124 109 102 98 85 84 96 115 129 123 110 46 12 3 0 0 0 0 20 22 15 9 4 1 5 10 16 28 50 77 88 92 95 88 106 118 117 123 118 110 108 98 75 47 26 19 27 52 57 9 50 69 38 7 10 24 44 57 79 98 112 129 143 160 175 188 198 203 202 201 198 190 176 168 162 150 138 130 126 123 119 113 108 108 110 108 109 118 122 130 137 141 141 127 115 99 98 107 107 111 122 125 117 48 13 1 1 0 0 0 18 17 13 8 2 1 2 8 20 35 57 85 89 96 101 89 98 122 120 116 114 108 94 64 31 17 15 21 60 115 100 29 33 19 0 5 13 24 47 60 67 76 91 110 130 144 165 185 202 211 214 213 203 189 176 166 157 144 128 119 110 95 79 69 59 42 28 21 20 28 38 56 82 106 126 126 123 116 112 114 115 116 122 126 118 51 12 2 1 1 2 2 26 25 23 13 3 1 1 4 16 33 61 88 93 100 104 99 113 128 131 118 103 96 86 67 58 66 65 77 91 114 117 82 54 67 49 29 20 44 56 58 79 85 85 95 113 137 159 185 205 218 224 220 205 191 175 165 155 130 116 106 92 84 84 70 63 40 44 83 98 21 10 19 24 44 81 115 128 127 124 131 135 127 122 130 121 52 13 2 2 5 32 54 29 25 19 19 10 2 0 2 14 33 70 93 99 102 97 105 128 145 151 144 125 106 98 100 109 127 131 139 138 137 129 120 123 144 145 98 73 83 86 71 69 95 106 100 105 132 158 182 203 217 220 216 205 188 172 159 134 116 110 114 117 110 102 121 144 75 28 23 34 21 16 33 23 18 44 90 122 130 144 153 152 139 126 132 120 52 14 3 5 30 53 91 25 22 22 36 34 5 2 6 24 48 84 103 105 106 98 103 127 148 157 159 150 134 121 119 134 150 156 166 169 167 154 151 161 156 161 162 156 150 142 137 132 137 142 120 112 128 148 173 196 209 215 210 200 183 172 157 144 143 143 135 110 101 141 189 191 119 42 24 30 33 27 59 45 23 29 67 112 130 147 156 159 143 128 134 117 58 17 1 7 73 104 100 51 56 58 50 43 11 5 12 32 62 98 107 110 112 104 107 128 150 159 158 158 155 149 135 128 136 144 157 173 176 174 176 174 171 173 177 176 174 169 166 165 158 148 129 125 128 139 165 187 199 206 202 187 174 171 164 175 182 171 148 137 136 158 180 167 148 95 95 103 79 88 112 98 83 71 80 112 133 140 151 156 137 130 137 124 64 15 3 20 88 123 127 75 76 74 62 39 19 14 17 35 72 104 110 114 113 105 114 135 151 158 161 165 173 176 167 146 136 133 134 142 147 151 157 157 158 159 160 162 166 165 164 162 150 149 143 133 126 141 166 181 191 199 195 176 167 171 170 178 192 183 182 180 170 162 162 159 157 154 146 140 135 133 138 145 142 137 123 114 125 148 163 157 138 135 140 126 68 17 4 41 95 97 94 77 82 82 66 52 38 30 27 51 83 110 112 112 115 110 118 138 148 154 158 166 175 178 179 183 179 167 162 158 154 154 155 154 154 162 168 178 177 179 177 169 171 167 149 132 123 143 165 180 189 195 193 178 165 169 174 176 179 170 167 175 169 172 175 175 175 176 185 174 163 166 167 167 169 160 142 137 142 168 174 163 146 136 140 127 78 33 12 62 87 75 67 99 94 88 78 59 51 38 33 56 92 114 115 116 119 114 120 136 143 147 155 166 169 170 177 186 188 188 189 186 183 183 185 188 190 196 198 199 194 190 188 184 178 165 147 128 126 146 166 179 188 192 191 181 166 167 179 182 180 178 172 166 160 162 158 158 167 177 184 182 180 178 175 169 162 152 151 156 166 181 180 170 147 138 139 130 89 49 41 103 130 106 69 101 91 82 78 66 59 47 37 59 97 116 115 119 120 116 122 137 145 149 156 161 163 169 181 189 192 193 196 195 197 197 200 202 202 200 198 198 197 195 199 182 163 148 137 127 135 154 169 176 185 188 188 178 170 167 178 185 187 190 191 185 173 167 163 154 160 164 167 167 170 168 162 152 151 157 171 175 177 182 181 172 151 141 142 134 96 68 86 138 156 132 81 78 85 85 81 81 80 50 45 64 103 115 115 119 120 118 124 137 148 158 157 156 162 174 184 188 192 195 202 200 202 201 203 202 201 200 200 205 204 206 193 167 151 142 138 136 142 156 169 181 188 192 189 176 174 170 173 179 184 193 203 203 197 192 187 179 169 162 158 158 160 161 165 162 174 187 189 184 178 177 178 171 152 143 144 141 111 100 123 157 164 140 95 88 92 87 84 87 82 46 44 71 108 116 118 118 122 121 127 134 147 153 150 156 164 177 186 190 196 202 204 206 205 206 205 202 202 203 207 208 205 195 174 157 150 149 147 143 145 158 169 181 187 194 190 179 177 176 176 175 178 187 205 211 208 203 202 203 199 190 185 182 183 184 185 187 191 195 192 187 176 172 178 170 152 146 144 143 111 99 144 169 169 146 93 93 99 92 86 75 83 50 39 71 101 116 114 118 122 123 128 137 145 145 146 152 167 178 183 191 196 203 207 208 210 211 207 206 208 207 205 202 188 173 164 155 153 157 156 145 147 156 169 180 188 194 192 181 178 180 178 179 180 180 193 204 208 209 206 206 203 197 196 198 197 195 197 196 196 194 192 187 176 173 173 168 153 148 145 142 110 94 143 170 178 151 103 95 99 87 79 79 98 52 43 66 100 117 113 117 121 122 132 139 142 140 144 151 167 177 185 193 198 206 211 211 211 211 210 210 210 205 201 194 182 171 167 162 158 159 153 144 144 155 169 181 190 192 191 184 177 178 180 185 182 178 184 196 204 205 208 209 207 203 199 201 201 200 200 198 200 197 192 189 180 176 171 163 151 148 148 141 109 95 140 168 183 154 131 99 90 74 69 75 94 63 47 59 95 112 111 113 122 124 134 139 134 139 143 151 164 179 188 193 199 210 215 215 213 214 211 211 209 205 200 194 186 177 166 157 155 146 142 143 144 158 172 186 194 192 189 184 177 177 179 183 185 183 186 193 201 203 205 207 210 206 205 206 209 207 207 204 202 198 194 187 181 173 169 161 145 144 146 137 116 107 142 175 186 159 161 84 87 75 86 82 74 74 53 55 86 106 108 112 122 130 137 138 134 141 144 152 162 179 187 197 201 210 216 221 217 214 214 215 211 208 203 196 184 177 157 140 139 138 137 138 143 159 175 190 197 198 194 185 178 176 175 175 177 185 192 192 196 201 202 205 208 207 209 211 210 210 211 209 202 194 192 185 178 174 169 160 144 144 144 134 115 124 158 185 195 161 171 42 62 95 130 117 74 65 51 52 79 100 107 111 120 130 139 136 133 139 146 155 165 173 185 198 202 208 215 219 218 214 213 213 210 205 201 190 168 152 142 134 132 134 130 133 141 161 179 194 203 203 202 192 181 176 170 165 166 174 188 198 202 207 207 208 209 208 210 216 214 215 215 212 207 200 192 185 180 174 170 159 145 142 139 131 112 139 180 196 198 159 170 42 44 94 147 149 94 47 47 53 81 98 98 108 121 128 137 130 132 136 145 156 166 176 187 196 203 210 213 216 216 214 210 209 205 198 194 178 156 136 138 144 144 135 126 129 142 164 182 197 208 211 207 197 182 177 168 158 163 160 168 189 205 209 212 213 215 213 215 220 219 221 218 213 211 205 196 187 179 174 169 162 150 142 134 120 109 151 197 208 190 167 157 30 37 66 125 151 119 49 41 52 77 98 95 106 118 127 134 128 126 133 144 157 164 175 186 194 200 207 212 212 212 210 208 206 203 197 185 165 143 130 146 157 152 146 132 129 142 164 175 200 212 219 217 204 187 178 171 163 167 167 166 180 194 202 206 209 213 216 218 222 222 222 218 211 210 206 199 186 177 174 166 159 150 144 133 118 111 154 203 213 174 182 120 6 9 32 99 140 129 55 47 46 64 91 93 101 115 125 129 125 124 135 144 156 164 173 180 188 198 207 209 213 209 207 205 202 198 186 171 152 125 130 150 159 155 150 142 132 142 162 179 206 218 227 225 208 190 175 171 169 169 173 169 174 185 192 201 204 205 212 215 221 223 220 217 213 209 204 199 185 179 171 165 159 155 146 128 114 103 148 206 211 167 189 67 3 4 11 70 128 137 70 45 39 56 84 85 89 109 122 124 123 127 137 143 155 164 173 184 189 198 206 208 210 208 206 203 198 191 178 165 148 119 131 150 162 162 156 145 131 144 170 191 213 219 224 225 208 189 175 169 169 171 171 167 162 173 187 195 199 203 206 212 215 214 216 217 213 208 203 197 187 177 168 165 164 159 145 119 95 98 181 215 193 176 171 18 8 6 9 37 104 122 89 40 34 54 75 77 86 105 121 121 121 124 135 139 148 160 171 182 188 198 206 208 207 205 204 202 193 185 181 171 152 122 128 144 161 168 158 144 133 148 172 193 208 210 214 216 206 190 172 170 170 169 173 170 158 167 179 184 191 193 197 206 209 211 214 214 210 206 201 197 187 176 168 163 165 159 141 117 94 122 190 203 167 194 117 1 12 8 20 27 85 105 90 55 32 48 73 74 87 105 121 121 118 123 130 136 143 154 171 181 185 194 203 205 204 200 198 194 182 177 180 176 154 125 114 128 144 153 152 142 130 146 171 187 198 201 206 208 205 192 173 169 173 161 167 164 162 171 171 174 185 189 194 204 211 213 212 212 209 205 198 192 183 174 165 162 166 158 136 112 94 122 181 169 175 191 51 1 8 20 45 32 78 103 101 67 33 45 69 70 87 97 118 120 119 125 129 136 145 155 169 179 188 192 198 203 199 196 186 171 167 172 173 161 141 123 105 99 102 105 115 125 125 138 164 186 199 202 204 207 202 187 166 162 162 150 147 149 172 182 179 166 166 183 194 200 207 211 211 209 207 201 195 191 182 172 162 162 162 156 132 105 105 139 173 171 199 144 9 44 6 31 41 43 75 118 121 69 35 46 67 72 80 99 116 116 120 124 126 134 141 151 164 174 183 192 195 193 192 180 161 161 173 176 172 155 131 117 106 94 79 68 67 77 100 118 137 164 187 197 202 201 188 169 150 138 123 113 125 153 173 179 185 175 157 166 183 195 206 209 209 208 205 197 190 185 177 169 160 160 161 149 123 101 115 142 166 186 202 87 1 36 14 27 30 54 81 130 124 57 31 41 59 70 76 100 110 111 119 124 128 131 139 147 161 173 182 186 187 182 165 147 154 170 173 171 169 157 136 118 104 103 102 97 89 85 71 88 112 134 160 174 180 176 161 137 110 91 88 105 136 162 165 178 186 185 160 150 169 189 201 204 205 205 203 195 191 183 176 169 158 160 159 148 121 94 118 143 169 190 182 51 11 14 19 9 29 55 97 123 99 31 22 40 63 67 80 96 104 111 121 125 128 133 134 144 161 173 186 184 174 152 137 152 169 164 159 161 163 155 145 124 103 93 103 102 104 114 99 77 86 114 134 149 155 150 134 110 103 114 131 148 157 159 168 182 188 185 166 141 152 174 193 200 205 203 199 192 191 183 176 168 156 163 159 142 118 90 107 147 180 188 144 18 14 14 14 8 9 28 59 63 35 12 18 37 56 71 82 87 100 112 124 122 128 133 132 139 158 174 184 183 157 141 155 165 162 149 137 140 144 138 134 107 88 88 92 82 88 100 115 106 84 94 125 133 133 131 131 129 121 129 139 152 155 163 178 186 189 181 171 144 131 151 178 195 203 202 197 190 184 179 170 162 156 161 159 137 110 91 97 131 188 191 96 6 8 13 8 6 2 1 2 3 2 3 9 28 47 72 81 87 99 107 120 122 128 129 130 140 157 174 181 167 143 163 153 139 133 123 115 123 124 113 102 85 80 78 76 68 74 79 90 105 109 101 112 118 120 128 129 131 107 97 113 123 126 142 167 180 184 181 180 154 122 126 161 184 196 197 192 186 180 172 164 158 157 163 156 136 100 87 105 151 184 187 78 3 9 7 2 2 2 1 0 0 0 0 5 24 53 75 82 87 90 97 107 113 123 132 132 144 161 177 184 158 142 145 122 110 104 92 103 114 100 86 81 78 73 69 66 61 67 75 75 74 85 101 109 117 116 110 117 111 92 75 76 89 91 112 148 167 175 178 182 163 129 107 131 164 183 193 189 185 176 168 164 159 159 159 152 127 88 83 107 173 188 176 60 1 7 6 1 1 1 1 1 1 0 0 8 25 53 74 83 76 82 85 91 103 122 130 129 144 165 182 176 149 139 118 91 80 77 87 110 109 81 79 80 67 70 70 76 73 78 86 86 85 87 115 125 132 130 114 117 102 89 74 68 73 76 101 131 149 161 171 174 175 143 114 109 139 173 187 191 183 176 166 161 161 163 156 144 117 89 83 109 172 192 143 19 1 6 5 4 3 0 1 1 0 1 1 7 17 43 60 79 80 83 82 84 100 116 121 123 142 166 184 168 132 126 97 72 61 73 97 111 116 105 87 79 70 74 78 101 115 120 136 161 172 163 167 165 174 172 153 139 120 94 94 96 76 82 101 124 135 147 149 161 175 160 132 111 112 154 181 189 183 176 162 156 166 164 152 128 110 86 60 107 161 159 56 1 2 2 6 6 4 2 1 0 0 0 1 5 10 30 55 64 76 92 88 83 88 104 108 118 135 162 180 157 131 113 75 58 67 84 102 103 118 129 117 113 112 115 122 151 166 167 184 201 207 209 213 212 209 206 200 192 176 149 134 132 119 112 114 132 127 139 128 142 156 157 136 119 101 129 176 191 188 174 155 159 170 160 144 119 101 63 37 56 64 36 4 2 1 0 2 2 1 3 1 0 0 0 1 4 8 28 52 59 70 71 80 79 68 86 99 111 131 157 169 157 139 119 81 76 91 104 113 110 111 113 112 112 110 118 132 142 152 157 166 176 183 193 201 207 205 202 200 199 187 175 176 173 164 151 147 143 119 134 122 125 135 147 148 131 107 108 168 191 188 172 153 158 159 152 131 108 91 61 30 10 2 11 15 4 2 0 1 1 2 3 1 0 1 1 2 3 5 27 52 59 59 66 76 63 62 78 97 109 130 158 163 154 142 117 92 106 112 90 76 69 74 85 81 77 85 89 90 99 111 123 139 149 153 158 165 173 174 160 158 159 155 155 159 161 158 155 158 152 133 129 119 113 113 135 148 138 116 106 164 192 192 170 155 166 161 142 118 104 87 51 24 12 3 6 26 11 1 1 1 4 5 3 1 0 0 1 1 1 4 15 40 49 49 63 75 61 64 66 93 101 121 153 163 154 136 117 126 155 159 80 19 17 49 92 89 78 122 121 86 88 88 85 95 112 122 121 127 136 138 124 122 115 112 110 108 110 116 122 125 132 140 137 133 109 91 108 122 122 124 110 153 195 193 167 154 169 166 138 118 108 82 36 18 10 7 1 14 19 3 1 3 5 3 2 0 0 0 0 4 5 1 9 32 47 47 59 64 58 68 70 82 93 111 146 163 157 146 141 170 192 189 156 84 45 40 99 141 116 166 184 134 146 160 122 116 159 167 131 114 117 140 159 135 94 97 107 84 105 115 82 89 93 100 130 146 120 96 106 123 116 128 115 147 193 191 162 146 158 152 130 118 107 75 36 21 10 8 5 7 23 14 2 4 13 2 1 1 0 0 0 3 5 2 7 25 43 46 60 72 78 81 73 76 82 100 137 166 175 166 171 191 201 198 195 176 126 85 104 145 138 169 195 174 183 216 196 182 222 227 207 175 179 212 229 208 168 192 189 160 206 173 112 108 80 48 62 100 124 116 122 139 135 124 123 164 196 188 150 136 136 131 120 114 102 62 35 30 10 2 3 5 18 17 7 4 7 3 3 2 1 0 0 1 0 2 6 21 32 50 55 63 74 73 75 76 72 87 114 147 172 187 192 195 208 209 201 191 172 140 122 121 125 152 180 177 193 225 232 222 234 237 236 216 226 241 242 232 222 239 217 210 230 193 189 161 83 32 18 27 91 141 144 147 154 134 119 171 201 180 143 133 120 127 112 103 86 54 27 16 3 1 1 4 13 15 9 5 3 4 4 1 0 0 1 1 8 6 4 13 33 46 47 60 62 74 77 65 62 67 93 129 165 191 193 195 208 212 206 195 187 170 145 132 132 140 151 149 181 218 230 230 236 238 239 231 238 242 244 239 238 238 221 219 218 198 199 164 105 79 80 113 155 177 168 159 158 132 115 167 196 164 135 133 117 121 104 88 59 40 23 7 1 1 0 5 15 13 13 17 1 2 2 0 1 1 2 1 14 13 5 13 29 34 38 52 65 70 67 65 61 52 70 121 157 181 195 198 204 213 211 200 187 181 164 145 139 141 145 144 159 187 194 206 225 233 235 223 233 240 242 235 227 222 198 205 193 172 159 141 134 142 176 205 209 203 196 185 164 143 135 176 183 145 125 123 111 110 91 77 47 27 21 6 0 1 2 5 21 17 7 16 32 5 3 1 1 2 2 0 7 16 5 11 22 35 43 53 53 65 64 58 44 43 60 98 147 182 200 203 200 209 214 206 189 177 176 161 141 135 145 152 154 168 176 185 198 203 203 185 197 211 217 199 168 174 163 167 157 150 150 149 155 181 205 212 213 215 211 202 181 160 162 186 170 133 116 111 107 98 77 57 39 19 13 7 7 2 1 3 13 16 9 7 65 29 2 2 1 1 2 1 3 15 2 8 25 38 42 42 36 49 56 50 38 44 64 93 134 180 199 205 202 206 212 207 194 173 175 174 161 146 140 148 161 175 187 189 188 190 187 185 186 190 193 188 178 176 169 160 162 164 163 163 181 199 204 210 220 219 214 208 194 179 178 175 147 120 116 109 108 78 68 46 30 15 13 8 10 20 12 2 13 8 5 8 9 20 8 2 1 1 2 3 1 0 1 4 23 36 36 26 34 43 40 47 43 41 58 87 124 169 192 200 205 206 204 203 200 180 173 174 168 165 158 150 155 170 185 194 200 206 209 211 207 205 204 200 196 189 184 184 175 169 168 179 194 196 205 216 221 218 214 213 197 189 177 152 113 106 101 99 95 81 60 36 18 14 17 6 3 14 25 19 14 7 5 4 4 10 14 2 1 2 3 3 4 3 1 9 24 27 31 38 51 44 41 54 55 46 57 86 113 152 178 186 198 202 202 203 202 188 173 172 171 168 171 174 172 171 172 181 190 195 198 204 206 207 206 204 202 202 197 189 176 169 179 194 195 197 213 221 221 216 215 214 193 181 160 120 92 87 95 91 83 72 51 33 11 16 13 4 18 27 10 21 13 4 5 9 5 5 8 4 1 1 2 1 2 0 26 39 21 33 31 45 39 42 48 50 52 53 66 71 86 130 158 174 187 201 204 202 199 192 180 173 170 170 171 177 187 190 187 183 182 183 185 189 194 194 195 195 194 191 185 183 185 188 191 192 196 207 216 220 219 214 216 212 186 162 137 109 90 79 92 90 73 55 46 32 9 12 7 17 34 23 13 4 6 6 2 5 12 13 7 4 1 1 1 0 2 2 64 28 28 41 28 36 36 42 43 53 44 49 56 58 70 102 132 160 179 197 205 202 199 193 187 177 172 170 169 171 182 191 193 194 195 195 194 196 196 193 191 193 192 190 191 197 201 197 192 190 201 216 219 216 214 214 215 209 190 152 111 99 82 81 81 70 50 33 31 27 12 8 16 20 15 14 10 5 5 7 5 3 18 12 5 6 3 1 1 0 0 15 22 1 29 41 34 30 39 36 33 43 46 40 45 51 59 93 126 155 169 182 204 207 201 191 186 183 179 177 174 168 168 176 186 191 190 191 194 197 198 195 197 199 200 202 202 200 201 198 193 197 209 219 220 215 212 212 211 205 179 135 103 85 80 83 75 60 48 24 19 11 5 8 18 10 10 6 2 6 6 7 10 7 11 7 6 4 4 3 1 0 4 6 1 2 24 54 49 33 30 31 40 44 44 44 49 47 53 85 119 150 159 180 202 210 206 193 187 184 180 183 176 173 175 177 172 175 180 183 185 190 192 192 192 194 197 200 199 199 200 197 197 208 216 220 221 215 209 207 197 191 155 116 97 71 69 78 65 48 33 20 12 2 3 9 8 9 4 1 3 4 5 13 9 11 3 4 3 5 5 7 3 2 5 2 2 2 24 64 58 45 26 28 38 42 48 50 55 54 57 70 104 131 145 180 198 210 210 201 189 183 181 183 182 187 194 196 187 180 175 174 171 182 187 186 187 189 194 193 190 194 196 197 205 211 218 218 219 214 204 193 176 154 129 110 91 78 60 60 57 36 23 18 10 3 4 11 10 4 7 5 1 4 5 6 7 7 4 3 5 7 14 20 13 3 2 2 3 4 21 68 76 58 26 22 33 42 58 57 51 54 57 52 84 114 144 176 187 205 214 211 200 189 182 185 191 198 202 203 202 197 183 180 175 173 171 178 182 194 201 200 192 189 197 203 210 214 218 219 219 217 203 181 148 104 102 102 96 79 52 44 46 29 18 19 7 4 7 14 11 5 6 6 5 12 4 4 6 5 2 2 10 13 8 7 6 6 5 4 4 3 20 65 72 72 48 20 22 38 45 45 42 47 47 46 66 103 145 167 185 198 214 215 209 199 189 190 195 203 202 201 203 200 198 197 193 190 186 188 191 201 206 206 206 197 199 206 212 215 220 222 217 208 187 166 127 82 79 89 82 61 47 33 28 27 14 11 4 4 7 17 14 6 6 9 6 9 2 3 3 3 2 16 19 14 11 4 2 4 4 6 7 3 15 59 77 86 71 41 21 26 32 29 32 34 49 45 48 81 125 144 163 184 208 217 217 207 196 192 200 206 209 208 210 211 214 217 208 201 205 204 202 208 211 211 214 211 210 211 215 218 222 223 218 203 169 134 100 64 58 63 74 59 38 28 34 33 23 16 3 4 8 13 9 7 5 5 6 5 5 8 5 3 58 46 9 2 5 5 4 2 4 4 13 5 13 56 79 87 76 53 35 16 17 19 36 34 40 31 29 61 92 113 127 164 199 214 215 211 204 195 202 208 213 217 219 219 221 221 213 211 216 217 217 214 218 218 217 216 214 214 219 222 226 224 216 197 162 110 67 59 41 47 67 38 25 39 54 35 31 37 6 5 7 8 8 11 5 4 8 10 16 11 5 6 21 7 3 1 2 5 4 3 3 5 11 7 13 54 80 91 86 65 37 19 13 15 24 35 31 24 29 54 73 85 109 148 173 203 214 210 205 197 198 207 214 215 214 217 215 220 220 217 220 223 226 224 223 223 221 219 217 218 221 226 228 224 213 185 139 97 54 49 39 49 43 26 32 69 79 36 43 57 15 8 9 10 6 8 9 10 11 18 18 9 4 12 4 10 11 13 5 3 3 2 2 3 9 15 13 54 81 90 93 84 58 36 18 13 19 25 19 18 23 43 58 71 99 112 146 195 211 205 203 199 196 205 211 209 211 214 212 215 217 214 221 223 226 227 226 221 222 219 219 219 224 228 224 219 207 170 113 80 49 47 48 37 22 28 70 96 90 35 38 66 32 9 9 11 12 5 8 14 13 13 8 5 6 24 1 1 4 7 4 4 3 2 2 5 20 17 16 51 78 93 98 94 84 72 51 22 16 14 21 21 18 26 38 64 78 97 133 168 179 191 200 198 199 206 211 203 201 202 199 203 204 202 216 220 220 223 224 221 219 218 219 222 224 225 214 200 179 148 93 51 36 40 41 23 31 74 126 117 95 34 34 59 43 14 12 14 16 12 7 6 8 10 4 4 10 23 3 3 3 8 10 5 4 1 1 11 22 22 25 47 75 89 96 99 91 87 72 39 17 16 20 19 16 19 34 51 53 86 112 114 133 181 185 179 192 201 201 192 196 188 182 185 204 205 204 206 216 219 219 217 217 218 219 221 217 204 199 180 140 106 65 28 29 33 23 28 84 124 134 133 100 39 42 68 58 22 12 16 24 19 14 8 6 7 7 13 14 18 3 3 4 9 9 4 1 1 10 9 19 29 13 42 76 82 91 100 98 99 84 53 30 16 17 16 14 20 24 34 38 71 86 72 102 157 164 165 177 187 184 189 198 184 173 187 189 191 193 197 209 216 216 213 215 213 216 214 214 194 177 153 107 57 39 23 28 27 47 92 133 148 147 134 99 45 54 85 66 34 16 11 16 18 17 12 11 8 10 12 43 53 0 2 7 5 4 3 7 24 17 9 18 15 5 37 73 76 85 98 102 99 92 76 50 23 15 15 13 12 15 21 32 47 59 62 75 113 139 139 152 166 164 185 184 169 156 184 185 167 177 199 209 200 196 191 197 192 192 189 182 178 158 121 67 33 30 19 26 48 99 138 153 158 156 140 103 71 125 131 83 36 27 15 9 14 28 16 14 20 13 18 76 88 1 6 10 3 4 9 31 36 18 9 12 9 7 36 67 78 84 100 102 98 90 85 56 39 17 8 10 8 12 16 27 32 47 60 70 79 96 115 135 149 143 159 161 161 138 174 193 168 169 189 193 183 177 164 168 171 164 172 142 124 119 90 43 24 25 19 52 107 131 160 167 169 170 145 102 101 171 169 119 54 28 21 17 14 12 11 10 24 18 35 40 37 5 4 3 8 13 24 44 24 21 11 9 10 13 37 68 79 92 104 95 94 97 86 72 54 33 12 10 12 11 16 18 24 32 41 54 57 70 97 122 132 127 140 137 142 147 195 191 154 156 170 171 168 178 158 147 136 133 148 124 96 84 49 30 22 26 62 97 126 150 168 169 173 174 150 93 100 139 135 134 98 50 25 30 24 11 10 9 5 38 37 14 28 5 11 17 32 28 31 40 25 21 11 10 14 18 35 65 86 100 97 99 98 99 91 82 59 50 28 18 17 15 16 18 22 27 34 37 45 63 81 98 111 127 130 128 143 159 181 178 150 143 152 155 160 159 143 131 122 119 105 89 67 50 29 24 26 53 99 120 143 164 168 170 176 177 156 85 107 151 111 111 112 97 66 64 49 31 20 12 7 7 3 9 81 18 24 29 33 22 26 36 35 14 9 12 17 18 33 65 94 97 99 109 106 107 100 91 72 58 47 37 25 20 16 17 23 23 30 37 33 43 71 82 106 121 117 127 148 143 155 157 150 135 127 129 139 132 129 113 107 107 84 60 41 28 18 28 64 115 132 147 162 166 164 173 178 179 151 78 158 180 136 87 98 116 113 128 99 54 33 20 36 64 49 113 195 39 38 22 23 20 29 39 35 10 9 15 18 20 36 69 95 104 103 114 112 115 104 98 91 71 59 54 47 26 21 19 15 14 22 27 28 34 52 61 81 101 109 114 128 131 133 128 122 104 90 105 117 105 102 90 84 80 60 37 25 23 25 54 99 146 152 157 170 167 169 177 180 180 124 94 210 220 176 99 77 104 139 184 157 103 36 21 34 168 190 198 197 81 48 22 16 22 37 39 23 8 13 15 17 27 38 72 93 105 110 113 115 111 103 104 108 89 70 60 65 49 31 23 19 17 14 17 21 23 37 41 51 63 80 90 105 106 101 97 85 71 78 80 85 77 71 67 56 46 35 23 23 31 37 83 126 147 157 168 172 169 179 183 181 173 101 139 207 211 207 131 111 105 127 193 207 162 65 37 24 100 200 201 198 110 74 79 65 54 31 35 14 10 14 15 20 27 36 73 90 106 112 115 114 108 111 109 115 105 88 73 65 67 53 35 25 23 18 16 13 16 21 33 38 36 48 67 81 71 58 68 70 58 61 54 52 48 46 38 34 28 24 17 35 42 59 116 135 149 160 172 176 176 182 184 182 141 111 171 190 202 198 153 130 153 155 173 191 166 113 110 71 63 119 173 198 133 90 90 96 92 22 25 9 14 13 19 24 21 42 76 91 107 114 117 114 105 112 113 108 104 102 87 75 73 70 65 45 44 45 31 20 18 15 18 23 23 27 39 44 42 42 56 53 41 35 34 30 26 22 20 21 22 24 39 53 70 101 135 146 159 167 178 181 180 182 185 166 107 137 188 191 194 180 170 142 138 187 205 191 144 129 145 132 107 96 130 157 95 85 77 79 72 17 7 12 15 18 23 20 19 48 75 91 104 114 120 124 111 113 114 110 107 104 96 89 89 86 78 70 56 50 46 42 34 22 12 15 19 16 16 22 23 30 32 25 18 18 23 19 17 21 23 25 36 45 59 86 114 136 153 159 174 178 180 178 177 187 184 134 115 164 193 190 184 160 174 165 157 171 203 171 145 156 164 152 138 162 179 170 94 96 79 88 60 12 6 9 13 21 21 15 27 54 74 89 104 116 123 120 118 114 119 119 111 101 97 96 96 99 93 83 85 72 59 45 47 43 31 27 25 24 25 25 25 25 18 18 16 17 20 22 23 32 46 52 55 53 79 120 140 153 166 172 173 178 176 174 183 186 156 120 148 173 188 186 174 164 152 164 187 205 177 155 137 160 172 162 142 140 162 196 96 106 94 110 60 7 7 9 12 17 16 20 41 58 73 88 100 110 119 120 122 117 121 118 118 113 102 93 100 106 101 99 103 91 76 61 57 68 67 68 66 56 50 53 51 50 37 40 39 36 46 47 52 64 71 70 67 90 116 135 146 151 171 176 178 179 182 186 185 169 123 138 161 185 187 178 163 167 141 158 185 212 161 140 154 154 144 147 168 175 174 176