P2
# Generated by OpenCV 4.2.0
92 112
255
0 5 7 0 0 2 8 42 52 70 11 6 3 1 1 0 1 2 10 19 42 35 48 56 54 48 39 73 63 30 35 69 36 44 54 58 47 40 49 48 56 56 62 120 99 66 98 86 74 72 62 71 63 72 61 47 46 35 52 49 49 52 49 55 19 6 23 54 58 23 14 11 31 25 24 31 11 13 28 35 26 5 6 7 13 7 13 22 4 7 19 18 0 3 4 2 4 7 11 67 58 26 12 2 0 1 2 1 3 6 16 36 37 35 44 42 39 45 34 26 43 23 25 55 51 45 47 56 73 52 38 56 65 73 83 101 112 93 104 100 87 84 82 102 84 78 98 78 63 56 65 49 55 51 63 41 21 44 45 43 50 26 17 16 20 17 34 28 20 19 23 17 41 22 7 4 11 9 7 15 10 14 25 21 0 2 8 2 8 9 9 41 54 13 12 6 0 1 1 5 13 40 18 35 32 15 11 15 24 33 40 38 16 35 32 33 63 49 48 57 63 66 55 51 68 82 93 104 112 118 128 126 119 101 116 124 119 97 120 106 89 91 81 67 70 47 44 30 51 55 38 57 40 34 22 13 11 19 43 49 23 19 28 20 28 32 13 4 7 4 10 7 4 18 42 36 0 6 21 15 21 21 12 8 10 16 3 3 1 1 8 12 25 16 8 6 13 6 4 6 12 22 49 59 52 36 32 31 46 50 49 60 62 66 67 47 58 80 85 91 101 112 133 139 137 129 135 145 140 128 132 131 111 116 106 97 85 61 50 44 51 40 48 48 38 33 22 19 29 21 42 37 13 25 36 21 31 19 9 3 6 13 7 15 5 5 31 46 0 11 17 17 23 14 8 14 27 29 16 2 2 11 14 15 27 41 36 11 2 1 2 5 10 13 29 66 95 69 34 25 46 30 37 39 61 83 80 70 52 63 94 94 101 114 121 132 136 141 149 150 149 142 142 141 130 131 123 124 111 98 84 80 79 70 72 64 49 36 34 38 33 26 25 12 11 24 24 18 27 25 7 1 3 23 17 7 17 19 23 40 1 15 35 16 8 5 10 22 34 30 17 2 8 17 8 23 42 56 37 6 3 3 3 4 12 27 56 74 90 104 84 37 35 29 36 46 51 64 80 92 81 56 81 95 96 120 143 149 150 150 150 150 145 146 149 149 147 141 138 145 134 130 129 114 99 85 64 57 52 51 48 36 34 34 19 15 11 15 15 12 27 24 12 1 1 29 17 7 20 13 10 27 7 27 55 12 11 13 14 14 14 13 12 1 8 9 8 27 54 39 12 3 5 8 16 33 56 82 107 118 126 136 125 95 75 51 29 37 49 57 66 75 96 93 78 99 114 136 151 152 154 152 152 149 148 151 148 149 150 153 149 138 130 137 136 132 118 109 97 82 63 57 46 43 39 27 22 19 15 7 6 12 26 36 12 1 0 42 26 11 10 9 3 7 20 25 38 16 22 17 26 18 14 12 4 0 9 7 29 40 31 22 15 22 21 27 47 77 97 115 124 138 146 151 150 139 129 111 85 52 56 81 87 84 105 110 96 96 122 137 149 155 156 159 156 156 155 153 150 149 148 149 143 140 142 137 132 130 133 130 120 102 91 84 79 79 82 59 32 25 21 12 6 5 14 30 25 3 0 18 25 8 6 9 11 4 76 24 17 24 31 16 39 25 3 5 0 1 7 20 47 49 44 29 29 38 49 69 96 118 126 130 133 145 144 147 146 145 136 134 122 101 91 88 86 95 112 107 110 129 140 145 153 157 155 153 159 159 157 154 155 153 151 150 148 147 146 146 131 125 125 133 140 131 116 114 97 100 97 92 56 33 38 23 8 3 11 36 33 2 0 6 7 7 2 0 6 15 67 28 13 30 55 21 24 22 14 7 1 1 3 24 39 47 70 66 57 55 62 86 109 127 136 140 142 142 142 141 146 150 146 137 134 136 132 130 131 127 116 115 120 134 150 156 158 158 158 147 156 156 155 154 157 155 155 156 153 152 150 150 143 141 139 131 128 139 137 122 124 109 117 102 84 39 33 35 24 3 9 36 49 1 1 3 3 9 9 0 1 16 37 47 21 16 57 39 17 7 15 21 4 5 2 24 41 60 80 86 88 92 93 111 121 128 137 144 144 143 146 145 147 150 150 154 153 148 147 155 155 149 146 143 142 148 158 160 160 163 164 160 157 155 157 157 158 159 157 156 155 153 154 152 148 144 147 145 138 133 138 128 122 111 116 102 91 63 29 32 49 30 18 29 34 5 0 1 3 4 14 9 0 1 13 65 51 18 28 38 3 4 58 40 4 8 4 18 68 70 80 90 102 103 112 123 124 132 135 139 144 143 146 148 145 144 149 153 152 146 153 156 159 160 158 149 156 161 166 165 166 168 168 164 160 161 160 160 160 160 160 158 157 154 154 153 148 145 146 146 143 136 137 138 134 130 119 118 108 87 43 32 63 58 43 39 21 3 0 0 6 8 20 23 14 2 13 56 43 46 24 7 1 11 21 9 16 16 15 13 68 75 98 108 115 116 121 126 133 135 136 140 143 143 147 147 149 148 150 151 150 153 157 159 164 165 164 161 161 166 161 164 171 171 169 163 162 163 165 164 162 162 162 161 159 155 154 153 147 148 149 147 145 142 141 146 141 136 125 132 119 102 65 37 39 51 45 20 11 2 0 0 4 26 13 39 40 16 21 47 43 49 19 2 3 2 0 3 21 16 26 44 56 95 107 112 109 115 118 124 134 134 135 137 143 144 144 150 149 151 153 152 153 158 160 160 162 164 165 165 167 169 172 175 176 174 169 168 169 167 165 166 164 165 164 161 160 159 158 156 152 151 149 147 147 146 147 145 142 136 130 134 129 123 84 49 32 31 26 6 2 1 0 0 0 10 10 12 66 71 9 8 24 53 6 2 3 1 1 1 15 27 41 78 58 103 109 105 107 114 119 130 132 137 137 142 147 146 144 152 153 157 156 156 153 160 160 161 162 167 167 168 169 177 179 179 176 175 173 173 171 169 167 170 168 166 165 164 163 159 159 156 155 151 150 148 147 145 146 146 145 135 124 126 130 132 95 52 41 53 20 2 2 0 0 0 0 2 11 8 15 65 10 32 15 28 11 0 1 1 1 14 30 18 31 43 68 110 111 102 106 120 123 132 134 139 143 145 146 150 151 153 157 158 154 154 157 161 163 163 170 172 171 170 175 180 181 178 178 176 174 174 175 172 173 171 169 167 165 166 163 161 160 159 157 153 154 151 148 147 145 144 146 139 125 120 122 120 110 67 45 62 41 7 0 0 0 0 1 1 7 14 9 3 17 51 17 16 5 0 0 2 2 12 45 15 33 72 94 100 107 103 109 120 127 134 138 141 143 146 151 154 156 154 154 154 156 158 163 164 166 171 175 172 175 177 180 181 179 180 179 182 184 181 180 179 174 174 173 171 167 163 164 161 161 159 157 155 153 153 151 149 149 146 145 144 131 120 127 124 107 86 61 46 50 16 0 0 0 3 0 1 4 12 10 10 0 43 34 27 22 4 0 3 9 20 25 21 73 95 84 99 109 110 117 126 130 134 141 145 145 151 154 156 156 157 160 161 164 164 164 166 171 175 176 177 175 182 185 183 181 182 183 181 178 178 177 176 172 172 174 174 171 166 165 164 160 159 157 154 153 155 153 152 149 148 146 140 137 129 121 122 106 87 70 37 40 25 0 0 1 2 2 6 5 10 15 10 23 14 19 12 20 24 23 7 9 15 7 40 77 86 88 105 113 116 125 129 133 139 143 146 148 149 151 156 159 161 162 164 165 165 167 171 170 169 171 170 170 178 185 181 180 179 181 180 179 178 177 179 180 174 172 172 169 168 167 163 159 156 157 155 155 156 155 153 150 146 146 139 137 135 123 113 102 77 57 43 29 23 2 0 0 0 1 3 4 5 10 18 63 39 5 13 6 8 33 22 4 16 36 57 77 85 101 110 116 120 127 131 137 139 144 142 144 151 155 158 162 161 161 163 164 166 168 168 170 172 176 172 170 177 182 181 182 185 187 182 181 180 178 182 179 179 171 170 169 166 165 162 159 156 156 153 152 153 154 153 151 149 146 141 136 135 132 120 102 69 52 44 26 20 10 2 1 2 0 1 2 1 10 31 11 14 8 10 3 1 39 33 4 20 34 59 81 89 106 112 117 124 131 132 134 140 145 145 147 151 155 160 160 160 163 166 166 167 167 167 172 173 175 174 170 172 179 179 183 183 181 181 179 180 180 176 183 176 173 171 168 167 163 161 161 159 156 153 152 155 155 154 151 149 148 145 141 134 130 124 115 83 47 31 25 12 8 2 3 2 3 3 1 1 1 14 0 5 8 11 1 2 35 27 10 22 42 67 83 98 105 118 121 131 132 130 140 146 148 148 150 151 155 160 158 160 164 166 167 168 168 171 174 174 172 168 166 177 190 188 182 178 180 187 181 183 182 178 177 175 171 170 169 166 164 163 162 160 156 155 155 156 158 156 154 150 148 148 142 135 132 124 103 92 60 28 18 8 3 1 0 1 3 5 2 1 0 0 8 10 5 5 2 2 10 38 17 21 39 71 80 93 106 122 126 126 127 138 143 147 149 148 148 151 154 156 155 158 162 162 165 167 169 172 172 173 171 172 170 184 191 188 185 185 188 189 185 183 178 176 177 177 174 169 168 165 163 162 160 159 157 155 154 155 156 157 156 154 151 149 144 133 131 128 106 80 69 37 12 3 2 1 0 0 3 10 9 0 0 1 40 24 4 8 14 1 5 36 8 17 42 75 84 94 112 121 122 121 134 143 145 146 148 146 146 147 151 153 155 161 162 162 164 168 167 167 171 173 171 172 177 184 186 187 184 186 183 171 169 175 173 171 171 169 168 168 166 165 164 160 158 157 155 155 155 155 157 158 156 153 153 149 145 139 131 125 117 88 58 38 16 5 2 0 0 3 8 4 14 35 8 0 29 22 10 7 14 0 1 3 6 20 53 75 85 98 110 119 124 129 139 142 144 147 144 144 144 147 153 156 156 157 162 163 167 167 167 172 174 172 173 174 175 182 183 185 182 180 183 179 176 177 178 179 175 170 167 163 164 163 161 158 156 154 154 154 155 156 157 155 154 153 153 149 148 140 135 131 114 96 67 41 19 6 1 0 0 2 5 3 7 45 71 18 18 41 12 1 3 1 1 2 4 21 49 72 88 98 107 118 127 133 140 139 140 144 144 145 148 150 152 155 156 157 161 163 165 165 168 169 171 169 170 172 179 184 186 185 181 177 178 174 171 169 172 171 172 170 168 163 161 160 159 157 157 153 153 150 151 152 154 153 153 154 154 152 148 141 135 134 121 107 79 48 25 8 2 1 0 1 4 9 12 9 45 45 59 21 1 2 0 0 3 3 5 21 50 74 84 102 109 116 128 136 139 137 142 145 144 144 146 148 150 151 154 156 158 160 162 159 164 165 165 165 169 172 175 179 181 179 174 179 176 169 168 167 166 173 172 174 171 169 165 163 162 159 159 157 156 154 152 153 154 153 153 153 152 151 146 142 137 135 125 112 101 63 27 9 3 0 0 1 2 6 11 7 27 38 25 12 1 2 1 1 2 4 7 26 49 67 87 100 109 114 128 135 137 142 147 146 144 141 144 146 145 147 151 155 157 157 160 161 164 165 164 166 172 173 179 178 177 179 176 171 168 170 169 169 169 171 172 172 173 170 166 165 163 163 163 160 159 160 157 154 156 154 156 154 153 151 143 139 133 135 128 111 105 88 44 14 4 0 0 0 1 6 6 6 1 29 1 2 0 0 0 1 2 3 15 35 41 64 85 96 106 110 128 136 140 146 146 142 138 137 143 144 146 149 154 157 156 155 158 163 162 164 163 167 168 170 173 175 173 177 174 170 170 170 168 165 168 167 167 169 170 167 169 167 164 165 165 165 164 163 160 158 155 156 155 154 152 150 147 140 136 133 126 121 108 98 69 23 5 2 0 2 3 1 2 3 1 1 8 3 0 1 0 2 6 4 9 25 33 66 83 96 104 112 130 136 139 143 144 140 139 144 143 146 147 152 156 157 155 158 160 163 161 161 167 169 170 173 171 172 174 174 177 171 170 170 168 170 172 172 171 171 171 171 168 168 167 169 168 168 166 163 161 159 156 156 155 154 152 152 149 144 138 132 121 122 120 99 82 38 9 3 0 1 0 0 1 2 0 0 27 10 0 1 1 0 3 5 11 27 40 65 80 88 107 115 129 134 137 145 145 142 140 142 145 149 153 154 156 158 161 164 163 164 164 164 169 172 177 177 180 180 180 178 173 170 168 171 171 171 172 173 175 174 176 176 170 171 173 171 171 172 170 168 164 162 159 157 156 153 151 150 147 142 138 131 123 119 119 111 88 55 15 4 0 0 0 0 0 0 1 0 26 9 1 0 0 6 4 4 14 31 48 69 75 85 108 113 123 130 141 146 143 139 139 142 149 153 155 159 161 160 162 162 164 167 170 167 169 173 175 178 182 188 187 181 176 172 171 170 167 172 180 185 183 181 177 177 176 178 181 177 177 176 173 171 165 164 163 158 154 154 152 147 145 141 135 130 125 120 119 112 96 74 24 4 0 0 0 0 0 0 0 0 7 9 3 0 0 1 5 7 20 30 47 66 71 86 102 106 119 133 142 141 141 139 139 145 152 158 159 164 165 164 164 163 166 170 171 169 169 175 181 184 191 189 185 181 179 175 171 171 173 183 189 204 200 188 185 179 178 183 183 179 177 175 173 171 166 162 158 156 149 148 148 143 136 136 133 124 124 122 122 110 103 100 39 6 1 0 0 0 0 0 0 0 5 14 2 0 0 1 4 9 21 39 55 65 72 88 95 99 116 132 140 143 140 137 143 149 155 162 165 167 165 164 167 166 171 173 173 172 170 176 183 189 190 193 199 189 178 175 172 177 178 190 208 208 207 197 189 180 182 181 181 175 173 174 173 170 166 160 158 150 142 135 126 128 133 133 130 121 115 122 123 107 108 107 57 9 2 0 0 0 0 1 0 0 8 11 2 0 1 2 3 9 19 54 71 65 68 83 84 93 114 129 141 146 142 143 148 154 158 163 165 167 167 166 170 172 172 173 173 175 173 175 192 209 202 186 198 194 186 178 178 179 183 202 211 208 195 195 191 188 178 178 177 170 169 168 141 147 139 124 116 118 115 116 114 106 104 121 123 122 111 120 122 112 102 106 69 9 1 0 1 0 0 0 1 1 23 12 0 1 7 4 7 13 29 62 81 62 62 77 67 84 113 138 149 148 145 144 149 156 162 166 167 165 166 170 174 172 172 168 174 172 168 176 195 209 211 199 196 194 188 182 177 184 201 203 189 188 188 182 172 180 167 166 159 145 138 103 102 97 79 80 90 94 83 93 113 100 88 71 90 103 100 114 121 118 104 96 69 20 1 0 0 0 0 0 0 0 27 11 0 0 1 3 5 19 46 67 74 64 57 56 53 86 125 145 144 143 144 140 143 152 157 159 162 161 151 144 158 163 166 162 169 168 160 177 193 211 214 202 198 193 194 183 184 198 199 193 191 184 168 173 162 159 156 150 137 120 102 94 106 84 87 97 78 77 97 103 92 77 71 54 71 100 101 100 116 118 112 102 63 20 4 0 0 0 1 0 0 2 5 6 4 1 1 1 6 29 59 66 66 75 52 41 56 101 124 120 119 117 120 119 112 113 106 106 109 99 117 123 118 153 158 142 153 164 161 177 182 206 211 199 206 202 190 193 193 195 187 183 179 177 164 144 166 143 140 145 128 89 94 91 84 79 77 83 81 96 99 97 92 90 72 75 86 94 93 105 111 119 111 102 69 18 5 0 1 3 1 1 1 8 0 16 9 0 1 5 15 30 58 71 66 78 40 29 65 95 104 93 97 91 87 88 65 59 65 46 55 88 85 103 109 136 151 136 146 150 163 169 180 190 186 195 194 191 189 193 184 182 177 180 178 175 156 138 138 141 139 140 97 81 74 68 67 77 87 99 107 120 125 109 103 97 96 86 78 66 82 101 96 118 113 103 79 24 3 0 0 5 1 8 11 1 43 25 6 1 1 11 24 27 50 66 63 70 31 30 54 63 71 72 77 81 80 52 47 56 67 69 68 72 85 81 78 98 137 135 130 150 165 161 173 183 188 191 186 187 181 176 178 178 179 179 176 177 149 146 133 139 125 125 106 98 112 116 135 150 148 145 148 144 140 138 129 120 105 90 74 76 87 87 98 113 116 108 84 26 7 1 0 1 57 110 123 60 79 19 0 0 3 16 14 25 42 61 67 64 29 26 36 58 79 76 78 69 69 58 56 77 87 82 88 84 64 76 75 69 108 118 124 143 162 158 173 177 185 182 182 182 181 174 178 178 177 176 174 171 150 147 145 146 130 135 134 142 153 159 166 168 164 162 157 153 152 147 144 135 127 116 116 121 109 106 115 108 115 107 84 21 4 1 10 83 149 158 165 147 20 1 0 1 9 18 22 26 34 58 61 55 28 22 32 58 67 59 71 63 100 123 118 130 134 136 134 136 133 121 122 107 101 112 113 129 159 167 171 176 176 178 180 180 181 179 172 172 174 174 173 167 155 150 140 143 144 148 153 155 156 161 160 156 148 144 140 134 131 133 144 142 138 138 130 127 128 132 121 106 117 112 93 29 6 1 7 114 167 155 155 154 1 0 0 3 14 27 24 22 34 54 54 38 22 27 34 45 67 71 101 129 127 140 153 152 156 164 168 167 165 161 153 145 129 120 114 124 148 157 161 166 174 177 178 181 183 181 174 174 173 170 164 163 159 152 150 146 148 147 140 134 131 106 76 60 54 56 74 91 113 117 115 132 139 139 138 144 144 140 129 104 118 115 100 37 5 2 0 56 153 155 139 130 16 1 2 6 14 23 23 27 33 46 54 30 20 26 29 61 90 103 121 142 146 149 157 161 162 165 168 168 165 160 156 150 145 133 124 119 123 136 151 160 168 172 177 183 190 185 181 176 172 170 165 162 157 150 144 145 137 129 128 118 71 30 19 20 19 20 43 61 43 95 110 116 135 134 138 152 148 146 128 102 119 116 100 47 3 3 0 31 117 142 144 133 4 0 2 6 12 13 19 22 33 41 56 39 33 54 65 71 86 116 128 138 147 148 138 135 121 99 81 72 65 68 97 137 146 141 128 118 114 118 137 153 162 170 174 180 190 195 185 176 170 167 163 160 155 147 145 135 131 136 120 88 42 29 33 63 24 39 79 172 57 14 52 89 120 127 138 145 147 145 126 105 117 114 101 73 13 3 1 47 118 143 154 143 0 0 0 0 8 15 10 33 35 39 56 47 45 95 115 115 109 126 134 142 138 118 103 68 39 22 20 15 19 36 33 62 115 144 161 145 129 118 115 133 152 163 170 174 183 195 182 173 167 163 161 158 146 150 142 144 148 120 130 173 86 37 21 31 30 32 90 145 96 53 38 56 92 113 129 142 150 144 131 110 115 116 107 87 28 9 22 77 124 141 168 147 1 0 0 0 0 7 5 31 39 43 59 43 73 111 133 140 133 133 141 136 101 72 36 56 107 45 40 12 53 68 37 97 167 123 124 158 164 148 123 110 135 155 165 168 176 189 178 173 169 162 159 152 149 155 162 145 104 93 128 135 99 73 69 74 74 87 95 89 111 123 108 115 124 120 130 147 154 148 138 120 118 116 109 87 54 53 82 116 133 142 163 149 7 5 2 0 2 0 7 28 41 45 62 41 82 131 130 143 140 130 132 96 38 15 25 101 127 56 39 24 30 45 53 109 170 138 97 90 120 158 153 108 126 147 159 164 169 178 176 171 166 160 157 150 153 165 160 133 124 126 125 117 120 138 139 136 128 118 132 104 128 138 142 142 139 137 135 150 154 149 144 126 121 115 109 94 62 93 146 152 153 147 147 157 7 14 7 0 0 0 6 35 49 52 60 47 81 131 138 138 133 125 104 55 39 57 80 88 87 86 82 89 101 114 129 128 126 133 144 141 152 162 163 110 124 139 150 158 162 167 167 166 162 158 157 153 153 168 170 168 158 150 144 141 137 144 155 159 154 137 144 142 141 148 143 139 143 145 143 150 152 150 146 131 122 119 110 107 85 99 154 155 158 140 140 165 19 16 6 2 0 0 12 48 55 58 56 52 100 139 152 149 139 129 102 102 99 109 126 123 121 122 120 139 147 157 169 157 153 159 167 171 179 174 136 117 121 128 139 151 159 164 164 161 157 154 156 158 153 156 154 157 154 148 146 144 150 155 159 160 156 150 153 151 147 145 143 145 148 148 145 150 150 148 143 133 122 121 110 107 108 93 139 150 157 145 139 163 31 21 8 4 1 2 19 46 60 61 57 55 110 143 152 155 150 141 131 122 121 133 139 139 140 142 142 151 155 160 168 164 160 161 163 166 163 140 134 136 121 118 136 148 158 162 163 162 155 150 154 159 159 153 149 152 158 162 163 160 162 165 161 160 159 156 156 153 151 150 152 154 156 152 148 149 147 145 141 131 124 122 113 106 109 102 142 165 176 158 147 154 69 45 8 6 8 6 25 49 68 65 64 65 106 135 147 145 148 144 139 132 133 138 138 145 148 152 153 151 156 162 167 170 166 168 169 159 142 143 148 138 120 115 134 150 157 164 163 161 156 149 149 155 159 157 159 158 158 165 170 172 171 172 170 169 166 162 160 158 155 155 157 157 159 155 153 149 147 147 141 133 127 124 118 105 107 109 139 171 180 160 155 140 112 63 11 14 6 12 34 60 65 68 66 73 103 129 143 141 144 142 145 147 148 145 142 146 149 151 152 153 159 165 167 170 175 174 167 148 147 155 149 133 115 115 136 151 155 160 159 158 156 151 144 149 154 157 160 165 166 163 167 173 177 176 173 172 170 169 167 162 159 159 161 161 159 158 156 150 146 146 144 137 125 120 117 106 116 134 136 172 186 157 166 121 115 82 24 25 11 19 35 61 68 76 70 74 104 128 139 142 138 141 148 153 153 153 151 151 155 159 162 167 169 172 174 175 180 171 154 151 158 152 139 126 110 117 137 148 155 155 157 159 156 152 145 143 148 155 158 164 172 172 165 164 166 174 175 173 173 173 171 167 164 164 164 163 159 159 157 153 149 147 143 139 125 122 119 103 108 147 145 179 193 151 176 100 81 90 38 33 19 18 30 52 70 76 73 72 106 127 135 138 140 144 149 150 150 154 155 157 160 164 165 169 173 181 179 178 171 158 155 165 159 144 129 117 111 120 135 150 159 158 159 160 156 154 149 145 148 152 157 159 173 181 175 170 165 164 167 165 166 167 166 165 163 160 160 159 158 156 155 154 153 150 145 140 126 119 117 104 93 139 164 190 193 148 182 70 50 130 59 35 23 13 24 55 74 78 78 76 104 123 131 135 140 147 149 148 152 156 158 161 164 165 167 175 177 178 176 168 158 163 166 165 152 135 125 121 117 124 137 149 156 158 161 161 157 156 152 148 149 151 154 154 160 180 186 185 177 173 168 169 165 169 169 166 166 163 158 158 158 157 154 152 154 153 149 141 129 118 114 108 87 120 164 179 181 156 173 38 14 122 85 52 25 13 23 46 68 80 85 74 103 126 133 134 137 145 145 151 156 158 160 161 168 168 169 176 177 172 168 162 163 167 167 158 142 128 126 126 120 125 136 149 156 160 162 161 158 153 152 149 151 153 152 154 156 167 183 186 183 178 175 167 166 171 171 169 168 164 161 158 159 160 155 156 154 153 151 143 132 123 110 104 79 96 147 171 163 168 148 15 0 88 101 61 24 8 18 36 65 75 76 76 107 127 135 139 141 142 146 152 155 156 158 160 167 174 174 177 173 166 164 165 167 167 162 150 139 128 131 130 121 123 134 147 154 159 161 161 157 151 150 150 153 155 153 155 158 162 169 179 180 176 175 173 171 170 172 170 172 170 163 159 159 160 158 157 157 154 152 144 133 125 112 100 72 82 127 169 153 185 109 16 15 49 100 74 30 10 12 33 62 70 73 83 107 125 132 140 141 144 149 153 154 155 161 164 171 174 173 173 168 165 168 170 172 168 156 149 141 133 135 129 119 121 136 150 158 160 161 161 158 154 151 149 151 156 157 159 162 163 164 167 170 170 174 172 170 178 180 177 175 171 166 164 163 161 161 157 157 155 152 147 135 122 112 97 72 106 145 151 160 182 77 26 47 16 98 82 30 7 13 30 60 71 70 85 106 118 129 136 135 144 148 152 154 155 158 164 170 170 172 175 173 173 175 171 171 164 155 151 146 144 136 126 118 124 140 151 160 163 162 162 161 155 151 149 150 153 156 164 167 167 171 173 174 179 175 177 184 184 184 183 178 170 170 167 164 162 160 158 157 152 150 148 141 124 108 97 69 117 147 149 172 151 43 45 52 4 85 60 18 8 13 22 45 67 68 86 106 117 129 134 133 140 147 152 153 158 161 169 172 173 174 176 177 181 180 174 167 163 160 158 151 148 137 125 117 125 144 154 161 165 164 165 164 157 152 148 146 146 154 159 166 175 182 183 183 183 181 179 183 187 184 185 179 172 169 164 164 160 158 156 156 151 150 146 140 125 109 100 57 90 144 151 173 114 15 46 56 10 56 55 15 13 12 20 46 68 66 82 107 119 124 127 132 138 145 149 155 161 164 170 174 175 176 177 178 180 180 175 170 171 166 164 152 140 140 123 111 127 146 159 165 168 168 167 165 160 155 151 144 136 144 141 153 175 183 185 189 190 193 190 192 191 189 186 181 175 170 167 166 160 159 155 154 150 150 145 139 120 111 97 60 83 127 146 164 87 12 29 48 13 36 70 17 11 8 10 41 64 66 77 103 122 120 119 130 133 138 145 157 161 164 170 172 176 177 172 177 180 180 182 180 177 172 160 133 128 134 119 107 131 149 159 163 169 173 169 166 165 159 153 149 139 137 136 140 162 181 182 183 190 195 200 199 197 195 181 177 175 171 167 165 163 157 153 152 150 150 148 140 117 106 95 69 103 136 137 146 56 8 14 56 22 11 59 28 9 11 11 34 60 63 67 101 123 123 117 123 128 138 147 156 164 166 168 171 177 178 174 180 185 187 186 187 183 175 139 115 127 127 118 111 132 148 157 165 170 174 171 167 165 160 153 150 146 140 137 137 146 170 176 179 177 186 195 194 200 189 181 177 172 170 166 165 162 154 149 149 148 149 148 140 119 105 85 72 107 133 151 119 24 10 10 33 30 1 46 33 8 10 10 38 55 63 70 98 118 119 115 116 127 142 151 157 165 167 168 172 174 175 183 180 188 193 188 184 183 160 114 123 129 130 124 116 132 150 159 167 170 176 178 168 163 159 154 153 149 146 143 142 141 159 173 175 172 176 185 187 188 184 183 177 172 170 167 165 162 155 149 146 146 150 147 141 121 104 76 78 114 129 158 119 9 6 18 21 38 7 30 32 6 11 18 26 55 68 66 94 116 114 112 112 124 139 151 158 165 167 169 172 174 178 181 180 187 186 187 178 175 132 107 128 133 136 134 124 132 155 163 167 174 199 193 170 164 160 154 154 153 148 151 150 142 154 172 171 172 172 173 185 189 187 183 174 172 170 167 164 160 155 149 145 147 150 148 140 117 102 73 67 117 131 154 121 5 0 9 26 42 24 11 21 9 9 15 23 49 62 65 86 112 113 108 104 118 138 150 157 163 168 168 171 175 180 184 186 187 180 177 178 173 104 109 134 141 145 139 131 136 158 164 167 188 220 214 176 169 163 155 155 159 152 152 150 142 151 172 174 169 170 173 178 181 179 179 176 172 170 167 164 158 153 148 144 147 149 149 139 116 90 74 55 105 138 160 95 0 6 1 31 31 40 2 17 19 7 9 26 43 58 60 79 105 112 108 102 120 137 148 157 163 168 171 172 173 176 180 189 192 185 179 180 173 94 114 137 145 147 144 134 137 156 163 168 181 192 197 182 172 164 153 151 153 146 144 143 138 156 169 178 176 166 170 173 173 180 177 175 173 170 167 164 159 153 148 143 148 149 148 140 118 91 70 58 126 168 154 40 15 68 31 11 30 45 12 21 31 12 9 20 43 47 54 73 101 107 102 102 117 132 146 156 164 167 171 175 175 176 179 188 190 185 182 180 178 121 95 135 131 124 130 129 129 153 165 168 174 176 182 178 168 162 149 142 145 150 133 128 145 160 163 171 178 172 166 169 173 180 177 175 173 168 165 163 159 152 146 140 145 149 147 136 115 84 57 76 134 154 77 36 54 60 23 0 20 30 13 26 43 15 17 9 19 40 46 64 91 107 101 99 113 129 146 157 163 167 172 174 175 177 182 190 188 185 182 177 174 163 119 117 135 145 110 85 102 132 154 164 169 172 173 170 160 148 138 148 156 154 140 143 158 157 163 169 174 176 167 166 171 173 173 175 175 172 167 163 159 152 146 141 145 148 148 131 107 72 53 52 53 26 0 11 12 1 4 0 29 25 3 13 76 34 11 10 15 42 43 61 88 105 103 99 113 127 144 155 164 168 170 172 175 175 178 184 180 182 176 173 168 163 161 143 137 150 150 120 76 79 128 152 160 163 164 161 150 133 148 156 150 148 150 152 153 156 160 167 167 173 174 167 165 168 172 173 173 172 166 163 160 152 145 144 145 149 143 129 102 70 46 27 2 0 0 0 0 0 6 7 28 28 8 0 63 56 13 9 22 42 51 47 81 100 100 100 111 125 141 153 163 166 171 171 175 175 176 180 182 179 173 170 165 158 153 154 149 142 140 147 144 85 72 127 149 157 159 153 139 148 157 151 143 147 153 147 144 154 160 168 166 167 174 170 163 163 168 169 168 169 165 161 157 152 148 143 146 146 137 118 101 68 47 26 4 1 4 2 0 0 2 18 21 17 11 3 9 36 18 6 14 30 44 61 76 95 97 105 108 122 139 150 161 167 171 172 173 174 176 177 180 179 174 166 165 158 144 146 142 141 137 133 147 151 98 77 125 141 140 140 155 171 156 129 121 121 125 121 129 141 152 162 165 167 170 171 171 162 167 170 170 168 166 161 158 153 149 143 147 145 128 101 85 70 38 8 0 0 0 0 0 0 4 11 25 25 17 13 1 0 7 3 8 19 45 62 71 85 94 107 112 121 137 150 160 165 170 170 170 171 175 178 176 176 170 163 164 153 135 128 116 111 96 106 132 143 158 144 130 142 147 156 166 151 140 92 95 92 103 98 104 123 140 139 153 157 159 166 170 168 164 166 168 170 168 164 160 155 148 147 143 141 126 96 85 64 40 6 0 0 0 0 0 0 3 7 8 4 2 4 4 4 0 0 6 21 42 53 69 77 93 108 116 122 134 144 158 165 170 173 168 169 175 173 170 171 161 149 152 143 120 92 78 76 82 104 112 117 147 171 158 165 166 156 140 121 121 90 78 80 81 67 85 109 127 138 144 148 149 155 164 168 166 163 167 171 169 166 162 155 151 149 144 125 119 86 95 52 32 15 5 0 0 0 2 0 0 12 9 25 13 1 0 0 0 0 10 16 24 49 57 68 87 109 115 124 133 145 155 163 168 169 168 173 168 160 161 149 127 130 134 118 101 72 38 54 87 86 88 111 128 114 135 160 157 161 119 105 101 87 70 88 66 50 98 101 103 117 124 138 140 138 143 153 155 164 166 169 171 167 162 153 151 146 146 133 101 79 84 59 31 5 1 0 0 1 4 13 1 29 21 41 17 5 7 0 0 0 7 8 15 40 52 60 81 105 120 127 131 143 154 162 169 169 171 166 154 151 130 119 109 119 107 89 78 58 37 58 76 85 100 104 109 128 148 147 147 150 130 117 109 100 99 87 63 63 94 78 103 110 112 132 122 135 128 139 142 153 161 167 171 169 163 155 152 150 135 123 108 78 88 62 18 3 1 0 0 1 0 22 24 27 31 27 15 13 11 1 0 1 1 3 6 30 48 48 76 94 117 127 135 141 154 161 170 171 166 154 149 134 110 97 93 102 85 97 74 55 48 60 86 92 103 117 153 154 150 150 155 143 142 158 151 146 147 119 91 92 95 84 106 116 120 112 114 111 121 126 141 137 164 173 175 171 162 153 152 147 134 105 107 81 81 43 18 1 0 0 0 0 0 3 22 2 4 10 9 4 7 3 0 0 0 1 2 22 41 40 57 68 104 123 132 143 154 157 160 162 160 152 136 112 81 82 99 113 75 105 85 53 64 87 99 115 113 148 179 172 170 174 171 171 179 177 163 152 160 157 150 145 139 129 111 122 126 123 124 117 122 121 122 125 153 180 174 170 162 148 146 147 134 110 97 76 62 26 13 4 1 1 0 0 4 2 9 4 5 14 6 1 5 2 0 0 0 1 2 17 38 37 47 63 100 122 128 140 148 154 164 168 153 132 119 95 64 86 106 102 91 112 83 72 100 129 138 142 145 146 149 152 161 171 182 168 159 153 150 152 157 155 150 147 141 141 143 136 126 131 134 120 115 149 119 114 138 167 177 173 161 149 140 136 120 113 91 68 55 19 12 16 5 2 1 1 14 17 25 16 11 4 0 8 6 1 0 0 0 0 4 5 17 36 39 58 99 105 112 131 144 156 162 149 122 115 120 97 86 92 109 102 121 138 122 125 133 138 137 139 139 146 150 147 146 149 158 151 147 153 155 155 150 145 141 138 127 127 132 139 146 135 116 122 108 140 142 102 109 145 185 174 159 142 138 123 98 102 87 60 41 14 4 25 7 2 3 3 11 23 47 15 10 2 2 8 4 4 2 0 0 0 1 0 11 27 40 60 92 89 101 116 141 149 145 128 124 132 110 109 104 127 124 133 138 134 130 125 123 122 127 136 130 136 146 145 139 143 155 149 138 137 128 126 117 105 96 100 109 110 113 116 129 141 124 127 123 135 151 128 101 120 162 169 146 129 137 124 109 91 72 60 34 16 0 8 17 4 2 7 4 7 35 34 7 0 2 2 6 4 4 1 0 0 0 0 5 20 39 62 79 70 89 124 130 134 146 153 143 143 124 134 135 151 135 116 102 92 92 97 97 98 94 99 108 114 119 124 123 129 133 135 119 105 98 92 90 87 88 91 100 97 96 93 92 115 127 131 144 149 150 143 137 134 140 152 142 135 130 110 114 91 60 51 19 8 5 27 36 6 1 4 19 17 8 59 8 1 4 4 7 12 6 6 0 0 0 0 2 19 34 45 59 57 88 118 115 136 161 160 142 130 150 147 165 167 144 121 103 84 83 96 96 95 89 84 94 97 98 107 110 107 108 111 113 121 130 130 127 121 115 115 118 117 109 113 131 149 148 153 147 136 158 149 150 152 148 147 144 137 119 111 102 84 75 38 8 3 20 24 24 12 2 6 37 40 10 17 9 5 9 8 2 10 1 1 0 0 1 0 1 13 20 21 41 60 89 105 98 124 144 130 136 126 157 171 181 176 161 152 131 109 99 107 110 103 100 110 124 129 132 134 139 141 145 144 146 146 138 137 135 133 126 122 126 125 130 145 155 161 167 171 173 153 152 149 158 163 166 152 130 131 123 109 92 80 66 25 5 8 6 6 4 14 13 15 35 42 14 3 3 4 3 1 3 0 0 0 0 0 0 0 1 6 15 19 40 76 85 85 91 120 143 152 149 160 171 179 183 178 167 154 137 132 116 110 107 108 110 122 131 136 139 146 157 164 158 161 163 163 162 151 140 139 136 132 133 146 155 159 158 161 164 172 178 177 172 155 167 170 168 148 105 107 121 95 74 63 39 12 3 1 2 4 5 1 33 24 10 49 31 2 5 3 2 1 2 0 2 1 0 0 0 0 0 6 17 19 36 61 72 81 74 94 127 152 150 171 179 184 185 179 171 157 144 141 139 128 120 112 115 126 134 138 148 161 171 182 175 178 181 186 179 159 147 143 142 146 156 162 162 161 162 166 169 173 173 174 177 177 165 154 147 147 112 98 87 70 69 52 23 12 0 0 0 5 4 1 14 40 0 41 37 0 7 9 2 2 0 2 7 1 2 0 0 0 0 1 3 9 26 51 62 66 72 72 109 144 165 168 179 182 181 179 174 163 150 147 150 145 141 138 133 132 137 139 145 156 169 171 171 174 178 176 163 157 154 155 162 164 167 163 158 163 166 169 172 171 169 172 176 177 157 138 123 131 101 93 65 54 56 26 24 12 0 0 1 3 3 3 2 39 8 22 36 5 5 6 0 3 5 8 7 4 3 0 0 0 1 2 2 5 25 38 49 52 52 59 95 134 153 159 177 174 180 177 174 168 156 148 150 148 147 150 153 155 157 155 154 159 165 166 172 175 174 178 171 169 167 168 170 169 165 162 161 168 172 173 170 168 168 171 173 174 155 128 110 114 87 90 60 48 35 13 19 10 1 3 1 1 2 3 18 37 25 17 37 6 4 2 0 5 14 6 4 10 2 2 0 0 0 0 0 2 15 21 28 34 27 46 73 109 142 157 166 176 178 174 170 168 161 156 153 148 148 145 151 162 167 163 163 165 166 169 169 170 171 173 172 174 175 170 172 170 165 166 170 173 174 173 171 166 165 172 169 162 157 141 95 99 68 77 53 38 23 31 14 7 1 1 3 4 4 6 29 17 14 20 13 3 2 1 2 12 11 4 16 17 8 4 0 0 0 0 1 1 5 8 19 28 23 36 46 82 128 152 162 174 175 172 169 169 166 160 156 156 152 141 139 147 159 162 165 166 164 165 167 165 164 164 168 169 163 166 169 168 172 176 176 177 176 173 173 166 159 156 163 159 146 145 103 80 50 51 41 30 28 35 11 11 4 2 5 14 13 2 33 19 4 12 12 3 1 4 11 22 8 7 22 15 24 13 6 1 0 0 0 0 2 4 17 24 23 28 49 86 103 132 145 161 171 171 172 169 167 164 160 160 157 154 144 145 155 156 155 155 155 153 160 158 155 149 160 168 159 163 169 176 176 178 178 178 177 173 174 164 156 146 135 139 137 137 112 76 48 41 25 31 29 60 10 10 5 5 13 20 32 19 14 16 3 8 9 10 7 3 11 14 5 7 14 9 10 29 17 3 0 0 1 0 1 12 33 12 19 33 61 75 81 104 130 155 163 170 171 169 169 164 162 163 161 163 159 160 164 156 157 153 149 147 149 148 151 161 160 175 174 171 174 180 179 179 180 179 176 173 172 171 156 142 130 92 108 124 99 56 47 25 17 61 23 96 30 2 2 7 12 14 23 23 9 5 6 1 5 15 8 4 9 3 3 11 17 6 7 15 3 2 6 0 0 1 0 11 11 7 17 28 41 45 58 81 111 141 162 158 166 169 169 166 163 163 162 161 161 167 163 160 164 162 144 169 151 162 163 174 171 179 187 182 183 183 180 181 181 179 177 175 168 161 158 135 119 85 78 88 57 54 40 11 54 83 39 94 39 8 24 11 3 10 14 9 4 3 2 0 3 11 11 15 18 3 1 27 30 3 1 1 2 4 2 1 8 1 0 7 7 7 13 19 26 30 38 51 76 123 151 150 164 169 170 167 168 163 163 162 162 167 168 168 173 167 169 183 156 167 179 177 184 186 184 180 186 185 179 182 183 181 178 174 172 155 142 127 98 85 67 44 37 53 23 28 84 100 137 162 54 14 11 8 4 3 10 14 2 1 1 0 1 9 12 8 10 8 10 3 4 1 1 2 20 5 1 3 12 1 0 5 9 9 9 12 20 29 25 35 58 105 132 138 164 166 169 171 172 168 164 165 165 168 174 173 177 176 174 180 172 177 185 187 182 188 188 188 189 187 183 181 183 181 179 174 172 156 133 104 67 65 60 27 29 21 28 93 100 96 215 212 60 28 12 5 4 0 16 21 0 0 0 1 1 1 2 4 8 10 5 2 2 15 12 1 17 22 5 9 10 1 0 2 10 9 8 8 16 19 23 26 39 83 94 137 154 165 168 172 174 172 169 168 167 170 170 169 174 172 173 178 177 182 184 187 191 191 190 189 189 188 185 182 182 179 175 172 167 150 126 107 53 26 35 25 12 32 111 142 112 102 215 202 61 33 16 3 8 14 14 4 8 7 0 1 1 2 2 2 4 8 3 1 4 12 18 9 21 19 6 11 10 2 0 2 11 9 8 6 9 15 19 23 29 41 83 130 141 154 156 168 172 172 170 168 168 169 169 170 168 168 172 171 178 177 183 189 186 189 189 188 190 189 183 183 182 175 170 159 158 143 101 91 50 28 23 22 30 104 153 150 113 104 215 204 57 33 22 6 3 14 21 9 8 5 3 2 2 0 3 3 3 3 3 6 9 9 11 7 8 6 11 8 10 9 4 0 12 13 13 13 7 9 13 16 16 27 67 99 111 120 144 162 169 169 169 168 167 165 169 168 166 168 170 176 170 161 180 188 177 184 188 188 188 184 180 179 173 163 169 158 130 121 86 62 42 18 14 23 100 141 151 148 119 114 229 197 51 31 25 18 8 11 8 9 8 11 8 7 9 0 3 7 3 3 5 5 9 15 17 11 12 15 19 14 15 20 26 33 18 19 18 22 16 7 9 14 14 20 27 58 81 115 124 143 157 171 166 165 167 165 163 165 159 160 155 160 164 172 174 176 175 181 180 179 183 179 180 172 168 150 153 153 118 87 72 34 21 13 11 72 137 147 149 148 119 120 226 196 54 35 27 27 24 19 11 7 8 18 11 4 5 0 0 3 2 3 4 2 5 7 13 24 16 17 18 16 19 21 30 102 49 27 31 22 20 15 9 16 18 13 18 37 66 100 104 123 142 160 159 162 157 156 164 160 149 158 142 133 163 173 166 155 164 176 171 162 162 154 163 152 152 150 131 124 89 76 35 22 7 10 35 110 148 148 146 145 122 127 233 192 47 34 29 26 28 26 20 17 14 17 14 9 12 0 0 0 0 1 1 2 4 9 26 22 11 13 13 16 19 23 31 127 88 42 69 32 21 20 13 9 10 7 11 18 55 66 74 94 118 127 134 155 137 150 149 140 133 163 149 134 161 170 155 153 143 166 163 153 145 140 142 129 125 120 116 78 77 55 19 15 11 24 84 140 142 149 147 140 118 131 233 189 48 36 30 27 29 28 26 25 25 20 15 16 18 0 1 6 7 4 3 2 8 23 26 15 16 17 18 19 19 22 32 134 132 51 96 53 23 21 18 13 7 7 11 8 22 35 47 74 95 79 108 136 142 133 132 137 137 160 154 120 141 172 143 142 123 152 147 147 144 125 124 110 108 84 92 75 45 33 14 20 20 73 125 147 149 148 145 136 120 136 232 180 43 38 30 27 28 28 25 25 26 23 22 24 21 1 1 12 25 10 6 8 16 17 19 20 19 19 20 20 19 25 36 123 174 65 99 83 44 27 29 19 12 8 10 12 11 22 31 54 63 60 86 103 117 110 134 134 112 154 148 119 145 180 147 121 113 129 151 136 113 126 118 96 63 68 64 68 23 22 28 17 49 108 147 151 150 147 143 138 122 145 239 167 35 36 30 26 28 29 27 26 25 25 26 26 25 11 11 10 9 14 17 16 16 18 21 20 19 20 20 19 19 26 35 110 200 93 98 115 82 40 29 23 19 16 13 16 12 14 20 31 38 54 70 77 72 89 116 114 98 119 142 137 155 173 164 103 86 143 149 113 97 118 97 102 61 74 42 29 18 15 25 34 82 139 146 153 146 144 142 138 118 152 238 162 36 37 31 28 25 29 28 26 27 26 25 27 28 22 26 23 21 22 27 20 17 18 17 17 18 19 17 21 24 25 32 96 209 153 89 122 111 66 34 24 20 19 14 11 9 11 17 28 29 35 50 56 59 92 101 106 95 114 144 149 141 161 140 116 112 125 143 120 84 106 83 79 48 53 38 14 20 16 32 63 111 143 149 151 150 145 141 133 112 171 244 146 32 37 33 29 28 28 29 26 27 29 26 29 28 29 33 34 33 28 26 22 21 20 17 15 19 19 17 21 23 25 32 89 193 213 106 113 126 112 64 37 27 22 20 16 10 15 12 21 32 30 36 42 59 87 101 94 86 106 130 125 139 145 124 129 134 107 132 116 74 83 61 60 40 27 22 12 28 35 64 118 135 145 150 150 148 144 137 129 124 197 238 135 30 34 33 29 29 29 30 27 27 28 27 27 27 34 32 35 35 32 29 24 22 21 20 18 20 20 17 21 22 26 35 82 181 223 157 103 132 140 118 82 58 33 30 31 26 15 13 19 14 20 24 33 57 61 74 85 80 95 111 111 120 140 118 115 110 106 122 118 55 50 44 34 34 14 27 30 48 68 104 133 143 150 151 152 147 146 140 128 139 212 235 117 30 36 32 29 28 31 30 27 27 29 27 30 28 43 40 38 35 32 29 26 27 21 21 19 18 19 20 22 22 28 37 76 173 219 201 111 128 145 148 138 115 60 40 37 35 25 15 13 11 13 14 17 31 38 35 58 51 61 113 124 116 129 105 86 74 104 95 83 35 31 23 15 12 26 40 47 62 102 130 142 151 152 153 151 150 147 139 131 155 223 230 96 35 37 34 32 29 31 32 28 28 26 27 29 29 44 42 41 38 35 29 26 24 24 22 20 18 21 23 24 23 28 41 67 161 206 226 145 121 145 151 150 138 109 61 43 43 42 24 19 16 19 14 18 15 19 23 39 42 45 78 87 95 98 74 63 72 70 47 28 24 18 12 21 18 39 53 73 83 117 138 146 153 153 152 152 147 142 137 136 178 226 220 82 35 35 32 30 29 30 30 27 27 27 26 28 29 47 43 40 39 36 30 27 24 26 24 22 23 23 23 24 26 31 43 60 147 198 225 186 125 142 151 155 151 144 111 78 70 52 38 33 28 22 16 15 17 15 24 28 30 31 37 40 37 36 31 31 46 33 24 10 18 11 35 62 46 58 74 98 118 133 139 148 155 152 149 151 144 142 138 144 190 231 205 60 39 34 32 30 29 29 30 29 28 29 28 29 30 48 49 43 38 34 29 28 26 25 23 23 22 23 23 26 27 31 42 50 128 190 224 221 156 141 149 155 159 159 149 127 112 101 83 56 50 44 33 37 30 21 22 19 18 21 21 21 20 17 19 30 25 28 27 21 46 75 88 84 89 91 113 132 126 132 140 148 152 152 150 147 147 144 140 157 208 232 186 47 39 35 32 31 28 29 31 29 27 27 28 30 33
