P2
# Generated by OpenCV 4.2.0
92 112
255
109 63 113 118 67 26 19 25 17 11 1 4 7 8 25 40 36 32 28 26 35 52 50 32 35 41 46 37 40 33 28 42 44 23 33 39 47 59 56 74 76 67 84 95 112 92 110 145 133 117 97 87 77 62 52 54 45 42 43 34 35 56 17 25 18 26 30 44 63 53 33 28 37 25 33 21 12 1 5 16 22 28 28 17 25 22 21 16 11 9 29 61 129 73 77 70 32 22 17 16 16 3 7 7 22 37 42 11 11 40 42 44 35 36 44 33 28 28 31 29 38 37 39 47 50 35 33 29 24 45 59 62 47 61 72 72 75 115 155 152 138 132 125 117 97 96 75 63 63 73 49 45 49 53 43 33 27 43 55 63 66 59 48 42 55 37 16 19 4 3 3 3 19 30 27 15 28 24 21 17 14 18 10 18 74 50 62 59 47 38 22 16 8 13 10 15 13 37 1 4 14 20 27 44 50 45 43 33 30 36 40 41 41 39 41 49 54 40 40 65 51 35 49 38 43 81 84 76 66 78 107 156 158 156 144 133 125 118 108 117 110 105 73 76 72 75 70 52 51 64 83 79 59 59 56 55 56 27 23 12 15 6 4 4 51 52 24 29 26 29 29 13 4 3 4 4 33 32 31 28 30 26 31 7 12 6 10 18 27 2 2 14 27 34 46 48 50 50 48 57 44 45 51 55 80 76 78 87 81 89 73 82 84 89 88 48 43 49 51 56 63 86 129 126 141 163 177 166 170 162 155 159 140 129 109 104 104 111 96 83 74 75 68 70 71 57 55 51 47 37 31 14 11 11 30 33 94 85 47 56 43 18 15 12 5 7 3 5 33 84 54 27 38 6 6 4 2 19 24 35 35 55 34 17 35 37 46 43 32 48 61 65 81 98 99 87 77 94 97 121 136 130 118 119 112 94 88 56 63 62 65 78 66 83 99 144 147 170 202 197 199 200 200 196 175 158 142 155 145 141 131 101 79 75 83 86 75 57 53 47 47 48 33 21 16 10 27 61 82 77 59 72 23 24 26 12 1 1 4 1 101 44 23 32 66 30 5 6 1 13 16 30 21 49 3 33 27 36 45 49 43 61 86 96 107 115 122 124 136 162 182 196 207 201 184 173 169 152 147 122 105 100 117 128 152 114 106 128 183 200 209 212 214 218 220 205 200 200 186 178 173 172 144 130 109 96 96 96 88 69 74 52 43 54 44 40 47 46 44 54 46 63 61 49 34 11 14 19 10 0 1 1 115 75 23 21 42 27 20 20 18 14 8 33 66 66 44 15 32 47 52 46 55 93 138 177 180 171 176 186 188 193 214 223 224 229 224 212 205 204 197 188 154 129 136 147 150 170 141 163 184 209 216 219 221 216 214 206 210 212 202 197 190 190 177 158 131 125 120 120 109 92 71 62 59 48 52 42 35 40 40 27 62 58 37 34 21 9 5 3 1 1 0 3 46 49 33 16 26 35 31 48 50 24 32 43 27 29 28 26 47 55 51 47 93 160 194 180 186 198 207 206 216 220 227 228 231 235 236 232 227 227 227 221 210 169 156 157 179 153 185 185 196 212 220 221 223 221 218 215 216 215 213 213 208 204 196 182 169 162 155 153 138 123 111 86 70 65 48 42 49 41 7 32 57 46 33 33 28 35 23 6 4 1 1 1 64 28 26 32 19 16 76 35 80 56 17 42 72 19 14 26 50 45 51 99 175 197 208 218 201 206 210 223 230 230 233 233 234 234 233 234 233 232 232 227 224 201 176 171 157 184 194 205 213 220 222 223 223 221 220 217 215 215 215 216 211 208 203 193 190 182 177 167 156 138 120 114 95 69 60 50 41 32 34 35 40 32 22 32 26 23 17 13 13 5 5 4 34 30 29 29 25 16 70 37 41 22 23 25 50 23 18 32 47 58 75 160 200 207 222 218 222 223 221 222 231 231 232 234 234 232 232 235 236 234 233 233 231 232 215 192 195 195 204 209 218 222 223 226 223 221 222 220 218 216 216 214 211 209 205 200 200 192 189 184 177 162 147 132 116 98 82 76 56 34 25 25 39 24 15 23 24 14 15 16 9 13 8 6 54 40 46 31 34 13 28 42 29 31 23 27 21 18 15 29 70 59 140 198 206 217 216 220 222 225 230 227 229 233 232 233 234 233 233 235 235 234 233 234 238 235 228 226 215 215 216 222 223 224 225 226 225 223 225 222 216 215 215 214 212 209 204 203 196 193 188 190 182 180 167 160 151 134 108 88 80 59 23 11 21 22 12 7 18 15 11 12 12 17 13 12 61 51 36 6 37 33 6 18 14 32 22 27 26 15 16 51 67 119 189 209 217 212 221 222 226 228 228 232 227 232 231 231 235 233 233 233 233 232 235 236 235 236 236 228 230 234 230 227 227 226 226 225 225 225 223 222 220 220 218 214 213 209 205 203 196 196 192 195 185 182 177 173 164 147 138 118 98 80 46 20 22 32 13 14 14 11 10 12 11 13 14 13 23 15 14 27 50 20 23 9 16 52 35 21 14 14 42 84 124 184 208 217 220 220 223 222 223 227 229 231 230 231 233 233 234 235 233 233 232 234 235 236 235 235 233 233 232 232 230 230 229 228 226 224 225 226 223 222 221 219 217 215 212 209 208 205 200 197 195 191 191 186 184 178 174 162 148 135 122 106 67 45 25 43 25 14 17 13 16 12 10 12 17 14 17 15 11 28 20 29 22 10 27 50 47 11 28 45 95 134 178 211 214 217 220 221 221 223 227 229 229 230 232 233 234 235 236 237 235 235 236 234 233 236 235 236 234 235 234 236 234 229 229 228 227 225 227 227 224 225 224 220 217 215 211 208 207 202 201 199 196 193 191 191 188 186 185 184 166 152 139 124 86 59 46 47 29 9 9 7 8 9 11 16 19 9 42 6 13 20 18 36 8 38 32 29 35 53 68 89 131 179 206 210 217 219 224 224 224 224 227 227 227 229 233 234 235 236 237 239 238 236 237 237 237 238 238 237 235 235 237 236 234 234 232 231 229 228 227 225 223 222 223 222 219 216 212 207 203 202 201 198 196 194 192 191 191 188 188 188 174 157 144 141 118 79 61 57 58 17 4 4 7 13 15 13 11 3 17 17 10 6 22 12 19 69 50 43 61 59 83 114 162 187 204 218 217 221 224 223 223 222 226 228 228 231 232 235 235 236 236 238 238 238 237 237 239 239 240 239 238 237 237 236 234 233 231 231 229 229 228 225 223 222 224 222 220 216 211 207 201 199 198 197 196 197 192 190 193 189 186 187 179 169 154 145 121 93 74 62 66 45 16 11 9 12 11 10 10 12 11 18 20 24 21 18 17 51 53 31 25 43 89 139 165 192 218 213 220 223 225 223 224 224 227 227 227 229 232 234 236 234 236 238 237 238 238 236 237 237 240 240 241 239 238 236 233 229 229 229 228 226 226 226 226 223 223 223 220 217 212 206 200 197 196 195 194 196 193 191 194 190 188 187 173 172 161 150 125 95 65 64 63 43 29 14 9 13 13 12 14 20 5 5 19 27 18 20 17 34 17 19 36 61 98 134 161 197 210 219 222 225 226 226 226 224 223 228 227 229 232 233 234 234 236 236 236 233 235 233 235 233 236 238 237 237 236 234 233 229 228 229 228 227 227 224 227 224 223 223 215 215 212 203 199 196 196 192 192 195 194 193 190 191 191 181 168 173 168 166 138 104 75 56 51 42 24 19 14 12 11 14 16 16 7 15 9 22 26 20 28 22 20 22 41 73 113 135 171 200 216 223 223 224 225 227 228 226 227 229 230 231 232 233 236 236 236 237 237 235 234 235 235 236 239 239 236 236 234 234 234 230 228 228 226 226 226 226 225 221 221 220 215 215 210 204 197 193 196 195 193 196 196 193 194 193 188 177 165 171 162 162 148 112 82 63 42 37 25 15 13 12 9 14 12 8 3 10 26 19 23 27 18 21 13 34 66 87 98 139 180 202 215 222 223 225 225 228 229 229 228 230 231 232 234 234 235 234 232 233 234 233 234 232 233 235 237 238 239 237 238 236 234 230 230 229 228 226 226 226 225 221 219 217 214 212 208 203 195 193 195 197 197 199 199 196 193 191 187 178 171 174 158 145 122 114 88 66 51 39 32 11 8 9 5 5 8 3 1 1 5 17 14 30 35 16 32 55 68 88 111 150 182 200 211 222 224 225 225 227 228 229 229 231 231 232 233 234 234 232 231 233 233 232 232 231 230 231 234 235 238 239 237 235 234 231 229 230 228 228 225 226 225 221 219 216 213 211 208 198 191 193 194 195 198 200 198 196 194 190 185 178 174 166 151 145 136 107 84 65 46 31 35 9 4 8 5 4 3 3 18 18 8 6 15 42 17 20 59 69 77 99 126 165 187 209 213 217 224 225 226 226 228 229 230 230 231 231 231 232 231 231 231 233 232 232 231 230 231 231 233 234 236 233 235 234 234 231 230 228 229 229 228 227 224 222 219 215 213 211 206 194 189 192 192 193 198 200 196 197 195 190 185 176 178 170 149 133 118 106 85 69 40 32 23 10 4 3 2 3 2 2 8 6 2 2 27 47 32 63 62 60 70 97 141 162 178 202 216 222 221 225 225 226 230 230 231 229 231 231 232 232 231 233 231 233 232 231 229 229 229 228 230 230 229 230 231 233 230 229 228 228 230 228 228 225 223 221 218 214 211 206 203 192 190 191 191 193 197 198 198 198 195 192 186 181 177 168 151 139 115 97 76 65 51 24 17 5 3 3 2 2 3 3 0 1 4 2 23 57 51 69 62 52 70 98 129 153 178 205 214 215 219 223 227 227 231 230 231 230 229 231 230 230 230 229 230 231 230 230 229 225 225 225 227 226 226 225 226 228 230 228 229 229 227 226 226 225 221 220 217 212 210 203 202 194 191 189 191 195 193 195 196 196 194 192 188 180 180 166 150 136 112 97 91 68 45 37 16 5 3 2 1 3 2 2 1 1 1 11 35 66 65 55 54 51 68 101 131 154 182 206 215 215 222 224 227 228 229 231 231 229 230 229 231 231 229 229 228 230 227 228 226 226 222 223 225 225 224 223 224 227 230 229 229 228 226 225 224 223 220 218 216 213 208 203 202 193 192 192 190 191 194 195 194 196 194 193 187 180 181 167 147 132 110 90 73 62 51 24 22 4 2 1 1 3 2 2 1 4 2 14 64 64 65 62 44 39 61 94 117 143 172 198 210 216 221 224 228 228 227 230 230 230 229 229 230 229 229 228 229 230 229 229 228 226 226 227 227 223 221 221 222 227 230 229 229 228 228 226 225 224 223 221 218 214 208 205 202 195 192 192 192 189 191 192 192 193 191 190 188 180 180 167 146 125 101 92 71 50 41 36 19 5 2 2 2 3 3 4 4 4 15 25 68 35 61 42 39 47 63 91 121 151 178 199 209 215 221 222 226 228 228 227 228 228 228 230 229 229 228 230 232 233 232 229 229 226 226 226 227 224 221 220 222 226 228 227 228 230 228 226 226 225 224 223 221 214 209 205 201 194 191 188 191 191 188 188 190 188 189 189 189 182 177 167 154 136 112 82 66 50 36 26 17 7 2 1 1 3 2 5 4 34 8 51 38 37 31 29 30 32 56 82 118 158 183 200 208 216 222 221 226 227 228 228 227 228 228 230 231 230 231 232 231 234 234 231 231 226 225 229 229 227 224 221 224 227 228 228 227 229 229 227 227 225 223 223 221 215 210 206 200 197 193 191 187 184 182 184 187 189 189 190 187 180 178 174 160 143 120 99 76 52 42 25 14 8 3 1 1 3 9 10 24 44 11 55 10 13 19 20 16 33 55 79 127 159 187 206 208 213 219 219 223 225 227 228 230 230 230 234 233 232 231 233 234 236 236 235 235 230 224 228 231 229 226 222 224 229 231 229 228 229 230 228 226 225 224 223 219 213 210 203 200 199 197 195 190 184 182 181 183 186 186 185 184 181 175 173 167 154 134 105 82 62 48 40 19 7 2 1 1 7 9 4 37 17 19 29 6 10 7 14 20 31 59 96 133 177 191 206 207 213 215 218 222 225 224 230 230 232 231 235 235 233 233 230 233 238 240 240 240 233 227 230 234 233 227 223 227 231 232 231 231 230 229 231 227 225 224 221 217 212 206 203 199 201 199 196 194 190 187 182 178 182 184 182 180 177 173 172 162 149 134 120 90 62 47 43 29 14 6 2 1 10 2 4 22 6 12 15 5 4 3 11 20 36 54 99 151 192 195 205 207 212 213 217 222 227 227 229 230 232 233 237 238 238 236 229 227 241 240 240 241 238 235 236 237 235 230 227 229 234 235 234 234 231 230 231 231 228 226 221 219 211 204 202 200 203 204 199 195 192 190 186 182 180 181 179 177 173 172 169 160 148 142 121 99 73 55 30 25 15 7 2 1 1 2 3 15 9 6 12 2 8 3 7 22 39 58 111 181 199 196 205 206 207 213 218 224 229 229 230 232 233 236 238 239 237 237 230 230 237 237 236 241 239 238 237 234 234 231 231 233 236 237 237 233 228 230 232 233 232 227 224 222 212 202 201 199 206 206 203 200 193 190 190 185 180 178 177 177 171 166 161 155 151 149 132 119 73 55 41 22 19 9 1 1 1 2 1 7 3 10 3 2 3 1 8 36 49 66 138 183 195 201 203 204 208 207 223 223 233 233 233 233 236 236 233 239 238 236 236 229 233 235 236 236 235 240 236 232 231 230 232 234 236 236 234 233 232 227 234 234 235 231 220 215 207 204 198 203 209 210 208 203 199 196 192 189 183 177 172 174 171 164 161 159 154 147 133 137 90 53 41 29 14 7 1 0 1 3 17 11 9 9 8 2 1 2 10 43 25 75 167 187 198 202 204 202 209 215 224 225 234 236 240 235 233 237 241 236 235 237 224 221 215 219 217 227 229 231 231 228 226 228 233 236 235 231 230 230 232 229 227 224 228 222 217 215 209 205 201 197 205 209 207 204 197 194 193 188 188 181 173 167 165 163 158 156 152 144 132 139 100 64 40 32 22 6 1 0 2 1 1 45 34 19 8 2 1 1 10 27 18 112 189 193 201 201 201 199 208 214 219 225 229 220 225 231 232 235 230 217 185 171 176 169 188 184 205 205 215 224 220 219 223 227 233 232 234 229 225 225 228 222 219 207 209 212 210 195 196 193 195 194 194 200 203 195 194 191 177 187 185 184 177 174 166 160 152 151 149 142 132 137 109 80 40 29 23 9 2 0 1 1 1 17 22 13 16 4 1 1 12 15 38 149 190 195 202 203 200 206 209 213 211 199 192 195 206 191 186 190 174 152 129 104 108 130 157 166 185 198 205 215 208 211 221 225 229 227 226 222 220 222 222 215 216 199 182 182 183 167 169 163 162 162 179 187 173 179 180 171 168 157 166 173 164 161 167 159 146 146 145 141 135 138 116 95 51 27 20 9 2 1 0 0 2 20 8 1 5 1 1 1 10 14 56 158 192 198 200 201 193 206 205 183 171 168 163 149 159 150 139 134 121 90 76 80 93 113 125 149 185 181 206 203 201 211 217 222 227 224 219 214 215 221 219 202 201 179 159 159 169 155 151 126 112 97 112 141 151 155 151 146 137 123 113 123 146 151 169 157 141 140 142 137 132 131 119 109 65 29 18 10 0 0 0 1 7 27 17 10 1 1 0 3 18 28 76 171 195 200 200 198 199 196 177 148 137 136 140 161 155 160 132 129 110 93 98 100 119 145 155 138 161 186 191 200 200 209 215 218 224 223 213 207 207 213 210 199 194 179 163 165 166 136 123 113 108 97 78 66 79 98 108 117 137 127 121 116 114 126 138 148 135 131 133 131 131 124 118 111 76 32 15 6 2 1 1 6 15 44 15 2 5 2 1 4 27 49 100 181 200 200 199 198 182 168 156 142 134 110 113 107 95 96 84 98 112 92 125 140 150 156 151 157 167 169 171 189 197 201 214 221 224 222 207 196 197 203 206 196 188 173 157 141 128 123 107 89 81 77 76 69 67 77 99 111 101 106 97 81 95 121 129 133 136 126 128 128 128 123 119 114 87 33 13 9 1 1 9 7 20 25 8 4 4 3 5 13 40 61 105 181 196 204 194 191 190 179 153 140 142 127 143 134 133 142 157 165 170 175 160 152 138 128 140 151 157 161 165 173 184 191 208 218 224 222 207 195 192 191 192 179 169 149 131 127 112 102 90 86 78 76 66 60 56 68 80 83 92 85 74 77 71 83 96 109 127 123 122 121 127 126 121 114 90 42 25 9 1 1 2 9 17 45 11 13 12 2 9 17 35 57 109 187 195 198 197 192 190 178 164 155 142 162 164 172 175 180 172 178 161 147 107 77 61 69 66 92 124 154 166 172 182 190 210 221 224 223 210 197 186 179 173 160 145 124 109 97 90 78 52 37 45 69 83 91 97 102 103 99 83 80 92 79 77 90 94 114 123 120 121 118 121 125 123 116 92 46 29 5 1 1 3 7 7 74 22 20 6 6 8 12 42 49 119 191 201 197 198 199 199 189 178 174 177 169 177 172 175 155 127 76 35 21 9 28 53 77 121 127 115 138 156 163 176 198 217 223 230 227 219 206 184 171 164 151 131 113 106 87 83 74 93 115 143 133 84 54 61 61 93 114 114 125 122 107 99 108 116 117 119 124 123 114 119 122 123 117 94 46 29 9 0 3 4 3 9 71 48 24 18 19 19 6 35 51 125 196 205 202 198 198 201 195 186 180 184 182 163 130 82 39 41 42 73 25 89 54 72 32 74 120 169 159 156 164 184 206 221 231 237 237 229 213 192 175 158 143 125 117 110 123 158 179 198 176 135 75 39 44 7 26 20 34 81 107 115 127 126 121 123 126 127 129 122 114 117 121 121 118 102 43 22 7 3 2 4 14 16 99 97 148 122 53 14 10 36 58 141 203 205 201 199 201 201 193 186 176 171 153 74 43 31 64 137 121 45 43 28 21 54 69 142 130 136 194 199 197 198 210 222 232 240 240 232 218 191 168 150 137 131 131 159 175 192 187 138 114 164 185 75 138 144 57 28 24 33 67 98 110 127 126 121 138 138 134 129 120 121 120 119 116 98 49 18 8 5 1 6 19 12 129 207 214 195 127 37 10 13 57 146 208 205 201 203 201 205 198 183 182 158 108 69 62 86 121 127 133 106 95 98 97 107 115 130 148 144 162 205 220 211 215 222 230 237 235 230 216 187 162 149 146 151 166 201 207 177 128 134 208 243 136 46 22 32 64 60 43 70 28 60 101 117 120 127 139 143 139 135 125 122 121 122 121 100 55 24 8 2 6 10 24 31 168 208 217 214 151 68 43 16 58 154 205 205 203 207 206 208 205 190 176 170 151 141 146 148 175 180 176 175 170 174 173 190 172 178 183 197 210 223 221 214 215 220 225 232 232 226 211 182 152 146 154 167 193 214 188 133 148 163 176 204 168 89 63 64 58 69 100 120 97 53 67 103 130 134 145 154 152 140 131 130 129 124 121 97 61 24 6 3 5 19 22 35 193 142 149 213 169 141 88 35 67 175 201 206 207 206 212 214 217 214 207 212 197 194 187 186 184 189 188 192 194 189 187 189 187 185 187 191 209 214 213 215 214 220 228 230 231 223 205 177 154 149 162 185 211 216 218 205 195 185 187 204 184 172 169 160 165 140 135 132 117 99 90 90 119 145 153 162 162 143 140 138 134 121 118 97 62 33 6 5 12 19 36 63 187 132 100 160 145 154 151 47 89 190 205 207 207 213 215 218 220 223 220 222 216 208 206 208 205 207 206 202 199 198 199 192 191 197 198 207 206 211 219 219 217 219 228 233 226 221 208 179 148 143 172 175 202 209 216 214 205 198 195 197 197 187 171 151 150 149 151 143 141 131 128 134 136 148 171 177 165 154 147 142 136 123 118 103 60 32 12 8 18 70 96 102 179 179 119 170 177 172 169 61 124 198 202 209 211 212 216 219 222 223 223 223 220 216 212 207 207 212 209 203 204 202 204 211 219 218 224 221 214 222 223 220 218 220 227 231 225 214 204 180 147 142 178 183 189 196 206 214 209 198 195 198 196 190 180 167 157 151 152 149 152 142 155 180 181 170 181 187 179 163 149 148 139 125 119 107 72 27 10 11 30 94 108 115 168 218 147 183 192 202 153 93 141 196 201 207 207 212 214 220 222 222 224 225 225 224 224 223 219 221 223 226 226 226 228 230 230 233 227 221 226 224 222 220 218 220 229 229 224 211 201 176 144 137 174 187 191 196 199 210 213 209 212 212 206 197 188 179 178 172 169 160 159 168 180 186 188 184 188 186 179 169 158 149 140 127 121 110 74 30 12 13 45 61 79 124 148 230 178 180 217 223 147 63 162 196 200 205 208 213 218 220 222 221 226 229 229 227 230 229 227 229 229 229 233 233 234 236 234 233 232 226 224 223 221 220 221 224 230 229 224 213 198 174 147 137 168 189 190 195 201 207 214 221 222 219 218 213 208 205 199 188 185 187 187 182 190 196 193 186 187 186 183 167 157 151 143 132 124 114 83 34 21 22 40 68 90 65 102 229 196 179 228 216 153 90 164 194 202 204 209 210 219 220 221 224 226 227 228 230 231 232 232 234 233 235 235 235 234 236 233 233 230 228 225 223 221 220 221 225 228 227 220 210 193 172 152 140 157 183 187 194 203 207 213 221 221 220 217 217 216 217 214 214 205 205 199 201 199 198 191 187 182 182 181 167 161 154 144 132 124 114 81 37 20 37 79 97 128 109 81 228 200 186 226 222 105 93 169 206 203 206 205 210 217 218 221 225 228 228 231 233 232 233 235 236 236 234 236 235 233 231 233 233 229 225 227 223 223 220 222 225 225 227 222 210 189 171 152 142 155 174 186 184 203 205 208 213 217 223 220 221 220 220 219 210 207 208 206 205 203 201 195 190 179 177 174 164 160 149 138 133 125 114 93 56 31 25 103 149 147 123 55 207 213 196 226 229 93 95 177 204 204 207 209 211 217 219 221 228 228 230 233 235 233 235 236 236 235 233 231 232 234 233 230 232 230 225 222 222 223 221 221 225 228 225 219 209 189 168 150 138 149 175 188 185 196 206 213 210 212 215 220 221 223 222 218 213 210 210 208 207 203 201 194 188 181 179 175 165 159 148 136 130 124 118 95 50 42 38 110 149 149 132 81 194 210 201 223 231 100 133 181 200 205 202 207 211 214 219 223 227 227 227 231 234 231 236 236 236 234 232 234 233 233 233 230 232 227 224 223 223 221 219 219 225 230 228 222 212 192 170 148 138 147 172 189 188 197 208 214 209 212 213 214 216 217 217 219 215 213 214 212 207 205 203 195 186 180 178 174 168 165 147 133 125 121 117 97 64 54 50 119 161 154 133 99 165 226 211 227 221 104 132 182 198 206 206 207 211 214 220 226 228 226 227 231 235 234 236 237 238 237 237 234 231 229 231 232 230 222 224 224 222 220 218 220 229 232 229 223 217 200 170 148 139 143 164 185 188 196 205 212 211 212 210 210 212 214 216 218 214 212 212 211 207 204 202 196 185 179 176 169 166 160 143 130 123 120 118 103 81 58 52 118 142 148 135 78 132 228 212 224 220 104 130 181 197 205 208 211 207 211 218 224 223 227 228 232 235 235 237 237 238 238 235 234 231 229 232 231 228 224 224 219 218 217 217 223 231 233 232 225 218 203 177 150 134 135 159 185 188 198 205 209 210 213 212 211 211 212 214 217 217 213 212 210 208 206 201 194 183 180 177 169 162 156 140 129 123 119 118 104 81 68 57 123 139 154 138 120 129 234 217 227 204 116 121 179 198 203 213 208 205 208 217 222 223 223 226 230 234 234 237 238 238 238 236 239 235 233 233 231 230 226 223 212 210 209 215 224 232 233 232 228 217 201 185 160 132 124 146 180 194 203 205 209 209 211 213 212 214 214 214 217 218 215 210 205 209 205 199 192 183 182 176 168 162 149 140 130 123 118 114 102 87 85 54 113 139 146 141 134 133 222 217 232 218 158 124 172 197 203 208 205 206 210 216 221 221 222 223 229 232 233 237 238 240 241 237 238 235 234 229 230 228 223 218 207 209 213 218 227 231 233 232 227 220 206 190 166 134 122 132 173 202 205 206 210 207 211 211 213 214 214 213 212 213 212 208 206 205 203 197 191 184 182 179 171 162 146 137 127 122 119 119 99 88 79 61 123 143 160 135 128 116 189 218 239 234 177 110 165 194 200 205 205 206 210 213 216 216 219 223 223 228 233 237 237 241 241 240 237 235 234 234 231 230 219 210 206 212 213 222 229 232 234 236 227 217 205 194 175 138 123 119 144 189 207 212 212 208 211 213 216 215 215 213 213 214 212 208 206 203 199 195 191 188 180 175 169 158 142 135 127 121 117 113 97 85 75 79 134 151 160 140 122 106 152 228 238 234 186 139 154 192 197 202 207 207 211 213 214 216 218 222 222 223 231 235 236 239 240 241 238 236 235 234 232 232 216 208 214 217 216 222 232 237 240 240 234 226 212 194 178 148 142 142 144 167 202 215 214 209 212 216 218 218 217 216 211 212 212 208 208 201 197 193 188 187 177 170 166 157 143 132 124 119 117 109 88 75 72 108 142 155 161 129 132 121 133 223 227 227 175 123 153 191 198 203 204 206 214 213 212 216 217 218 222 227 230 234 237 239 240 238 240 237 236 234 230 228 219 213 218 218 217 222 229 237 241 242 236 231 218 196 174 151 154 167 161 148 188 214 216 217 216 217 220 219 219 216 211 212 210 203 204 199 192 188 183 183 174 166 164 156 143 130 119 117 118 105 80 64 71 136 150 164 168 128 137 135 99 218 220 234 180 99 150 194 198 201 205 209 213 213 214 213 216 218 222 227 229 234 237 238 238 242 238 238 234 232 229 225 220 214 208 208 202 212 223 228 231 234 229 223 212 189 162 163 164 170 165 153 153 206 217 215 220 219 221 219 217 215 215 214 209 202 201 197 191 187 181 178 172 166 161 152 139 132 120 116 112 97 77 70 97 136 149 166 147 127 139 139 91 216 216 229 186 138 137 174 193 200 209 209 214 215 216 216 220 221 222 223 224 228 234 238 237 239 237 237 232 228 226 221 215 203 191 198 202 202 203 215 221 223 220 218 196 169 149 157 158 158 162 158 137 169 219 219 218 219 219 219 217 217 215 213 209 203 198 193 186 183 178 175 172 166 161 151 132 124 119 118 107 86 79 77 108 120 144 157 146 135 147 145 86 200 223 208 172 161 139 159 181 194 199 209 216 215 218 216 220 219 220 221 220 225 231 236 237 237 237 236 230 227 224 222 204 188 150 95 98 161 197 194 213 210 211 201 173 148 133 125 116 123 144 149 138 148 209 213 220 218 220 219 218 217 216 214 206 201 196 190 184 182 176 174 168 164 160 148 130 123 119 114 103 84 59 76 120 123 144 148 127 134 158 135 80 179 229 213 168 172 114 157 186 192 200 209 216 217 218 219 219 220 220 221 222 226 228 233 236 237 236 236 231 229 228 223 203 179 154 121 103 113 166 195 202 197 193 180 151 101 45 23 30 75 135 146 133 130 201 221 219 219 219 218 217 217 216 211 206 198 191 183 180 177 171 169 166 163 156 146 131 119 121 114 100 78 71 100 144 145 144 133 132 134 151 122 113 146 236 230 166 114 129 140 169 173 198 209 214 217 220 222 220 220 221 222 223 225 227 231 234 235 233 233 230 230 231 226 215 185 178 205 201 201 174 176 182 183 174 159 113 81 80 82 76 86 139 130 127 143 205 220 222 220 219 218 217 216 212 208 202 196 188 184 182 178 170 168 166 163 152 139 129 123 122 115 98 79 69 123 168 151 133 127 143 106 150 133 125 129 232 229 177 105 98 131 158 175 192 205 213 218 219 220 221 219 222 223 224 224 227 231 233 234 232 233 232 232 232 228 222 207 191 212 215 207 205 179 162 150 141 112 88 104 106 125 129 130 133 120 148 189 219 221 220 219 220 218 213 213 208 203 199 194 188 181 182 176 168 174 165 164 152 137 130 123 119 106 97 76 74 108 162 133 134 141 154 59 158 133 108 98 217 230 186 121 90 120 144 163 192 203 213 218 219 219 221 221 220 222 224 224 226 228 230 232 232 231 233 235 233 232 224 213 212 206 206 211 213 194 164 128 111 110 114 115 112 119 146 159 156 179 199 202 211 218 222 219 216 212 212 213 209 203 198 191 186 181 179 170 172 171 165 164 151 135 126 120 113 105 94 76 77 111 148 137 140 149 126 18 149 139 133 114 182 234 193 138 88 120 134 169 184 197 210 216 218 221 218 219 218 221 223 224 225 226 228 229 231 233 236 236 232 217 210 197 188 175 172 179 198 206 201 181 180 190 176 147 122 109 136 161 166 179 193 203 212 214 217 219 216 211 211 210 207 201 195 190 185 182 177 174 171 171 163 160 150 134 123 126 117 102 93 71 86 136 143 139 142 148 74 42 155 149 142 133 175 226 222 157 87 98 128 171 175 191 206 212 215 220 219 219 220 221 224 225 225 227 228 229 232 234 230 231 232 223 200 179 151 138 128 137 146 175 189 198 212 191 170 135 96 81 82 111 140 152 175 193 205 211 214 216 215 212 209 205 203 198 194 191 187 181 176 175 164 168 161 154 146 134 126 118 114 95 93 74 79 125 142 145 136 132 20 25 150 149 138 116 109 220 224 167 77 102 147 167 173 186 201 206 210 217 220 221 221 223 224 226 227 226 228 229 231 233 230 231 223 210 171 133 103 96 95 109 128 159 142 172 187 148 147 137 84 65 64 79 100 126 168 191 198 201 206 213 212 210 209 203 200 195 193 191 188 184 180 175 165 164 157 149 144 136 129 120 110 95 79 68 89 114 141 143 142 96 8 32 159 134 119 80 63 154 220 157 75 93 126 140 155 181 198 208 209 211 218 220 220 224 226 224 230 221 229 226 226 231 214 207 203 186 140 89 84 84 98 98 126 94 93 133 167 144 120 119 98 70 57 53 66 100 141 173 186 191 206 212 210 208 211 204 201 196 193 191 189 187 182 177 172 163 154 144 135 135 124 112 104 88 70 70 87 120 135 130 144 62 11 10 158 127 105 127 85 68 124 136 54 87 117 155 166 182 195 204 206 210 216 221 222 222 226 228 225 228 231 223 215 191 177 185 165 127 98 74 81 83 96 112 112 97 112 149 178 172 148 114 96 75 56 53 59 65 94 138 164 176 192 198 204 210 206 201 202 200 196 194 193 189 179 173 168 160 149 147 135 129 119 118 102 76 70 65 85 110 130 140 120 11 3 8 151 143 134 126 94 45 32 40 32 53 109 153 167 180 188 200 200 208 214 217 222 222 225 227 216 224 222 192 176 157 149 147 128 135 81 89 105 104 135 129 146 180 189 187 199 199 184 136 138 100 65 54 49 61 63 94 128 143 165 177 187 198 202 203 204 202 196 192 192 188 176 170 164 154 147 134 128 123 114 113 97 74 67 56 72 111 131 121 55 7 1 10 151 146 131 136 133 97 36 17 34 51 105 140 149 178 178 185 193 206 215 214 221 224 223 221 225 199 189 175 146 127 125 127 128 117 104 105 105 119 129 156 193 215 222 219 224 221 213 161 146 122 84 65 59 59 65 79 110 132 119 136 160 184 200 203 205 203 196 193 192 185 177 171 161 147 136 130 119 114 116 102 91 83 61 38 29 61 65 36 8 6 1 15 147 149 143 149 133 143 116 37 29 38 96 139 175 168 174 176 190 197 207 219 219 222 219 222 196 187 151 135 119 119 123 125 133 158 145 140 131 144 144 180 196 193 207 223 212 185 175 163 124 117 100 82 75 76 76 82 87 119 115 96 117 149 175 202 202 200 198 194 190 180 175 167 154 139 122 123 115 111 110 106 89 71 53 25 11 3 6 5 9 11 22 15 150 146 147 143 152 141 139 77 35 42 79 139 165 157 172 175 183 194 208 210 217 217 222 205 209 167 133 113 121 138 127 128 154 186 163 162 156 172 187 179 185 189 194 192 181 160 170 170 172 168 150 121 116 114 101 95 89 90 119 97 97 133 134 170 198 199 201 196 185 180 174 166 145 135 123 114 116 120 109 101 85 67 45 18 4 7 11 4 7 9 11 43 153 148 147 145 145 147 143 124 37 26 57 116 149 149 149 172 183 185 187 196 206 219 220 195 170 139 129 128 123 127 138 158 179 188 164 157 167 168 161 168 169 160 167 174 184 143 144 160 164 161 151 140 141 145 132 110 101 89 103 113 93 104 116 135 185 198 207 190 184 176 170 158 136 122 122 111 109 111 101 87 79 60 40 13 9 4 3 20 11 19 52 131 155 150 150 150 146 149 138 141 80 36 34 106 113 135 146 154 158 155 179 193 210 218 200 177 141 126 109 121 115 113 133 149 170 151 136 133 111 103 81 95 111 125 138 139 161 148 105 118 119 113 120 131 136 135 139 139 110 104 104 104 96 85 100 119 172 194 194 190 178 169 170 147 123 112 113 104 105 112 100 77 74 50 38 17 4 11 12 8 21 43 75 99 153 149 150 143 150 146 147 137 127 71 28 90 108 153 117 147 142 148 172 194 201 190 195 172 147 124 131 133 134 135 138 124 114 107 126 151 166 175 176 170 154 149 143 127 121 126 123 124 131 124 116 110 103 105 116 145 140 133 126 121 115 101 91 94 134 169 193 180 165 151 151 137 122 103 101 91 98 103 88 71 68 47 32 15 16 14 21 61 65 84 108 169 151 147 149 145 148 147 149 139 138 106 43 66 119 129 132 137 124 148 153 205 175 191 174 175 155 126 162 172 174 175 152 145 159 163 187 181 193 199 198 196 187 183 190 181 185 187 191 182 173 174 170 163 144 115 94 108 139 156 150 156 142 112 97 86 116 161 171 168 157 137 131 118 112 94 97 87 94 88 76 71 53 29 17 18 13 25 22 44 87 141 173 183 148 147 146 143 143 147 145 142 135 125 53 58 99 117 128 146 125 127 153 166 169 164 179 183 167 141 170 190 204 211 214 220 212 201 202 200 203 207 218 218 209 200 193 194 191 193 198 191 183 175 173 171 159 147 145 144 142 152 162 166 149 139 129 103 111 126 170 156 147 134 124 103 94 84 85 80 86 78 71 59 43 33 15 13 32 34 35 72 111 167 182 196 143 144 144 144 143 148 145 142 144 144 85 56 53 93 123 136 136 126 144 149 142 166 182 186 173 176 199 210 222 223 222 221 221 224 219 219 216 218 224 226 222 214 203 199 199 200 205 197 190 183 183 180 170 172 170 173 181 182 178 180 162 144 142 123 118 132 116 159 128 123 107 91 79 74 79 70 74 77 61 48 40 28 9 9 45 42 84 67 151 171 190 191 145 147 146 144 145 147 144 146 150 142 118 70 38 89 101 118 101 116 124 140 151 169 190 199 182 203 216 227 228 225 220 220 223 226 222 218 217 223 226 226 224 226 221 220 215 209 205 200 197 196 198 191 181 182 182 177 175 187 196 196 184 157 144 138 158 141 143 128 126 126 112 80 71 67 74 72 57 62 51 41 39 23 19 16 18 26 110 157 142 177 191 188 145 145 144 142 146 146 146 148 147 145 128 69 43 51 90 100 98 84 97 130 138 167 188 190 190 206 219 232 230 228 223 222 223 224 224 219 214 217 213 207 198 196 193 193 189 195 196 191 190 190 191 185 179 181 184 182 182 191 199 200 199 180 150 132 155 165 136 125 114 114 109 79 78 66 60 58 50 48 43 36 40 47 57 43 70 112 117 131 171 190 193 196 146 144 144 143 144 146 147 149 153 144 147 111 36 42 69 82 87 94 106 102 123 150 178 193 211 224 229 227 229 227 225 223 222 224 223 221 208 197 195 191 182 174 171 180 169 173 181 186 186 189 186 184 186 189 187 188 197 198 196 194 196 195 178 140 118 135 142 124 109 102 87 82 68 50 48 46 44 42 36 35 40 81 87 103 149 188 184 190 193 194 194 197 145 146 145 145 146 145 147 147 146 149 147 144 83 42 50 66 76 81 74 97 113 142 164 203 213 219 229 229 229 228 224 224 223 224 222 218 208 193 180 176 173 157 153 163 157 167 176 176 178 188 189 188 191 194 198 199 197 195 195 198 192 198 192 150 118 118 118 114 90 86 69 78 54 38 49 51 42 36 31 38 35 13 104 161 160 185 185 198 192 197 197 196 146 143 143 146 149 147 151 149 150 152 153 157 111 45 50 55 66 72 82 97 98 139 172 191 197 210 225 230 230 230 226 225 224 224 225 223 211 199 190 182 176 144 160 149 162 170 180 188 188 199 198 198 201 201 203 199 199 196 189 193 203 200 189 164 121 106 113 87 77 70 68 54 42 38 47 37 41 26 30 54 23 0 44 172 173 186 189 193 194 197 197 196 145 146 145 145 148 151 151 148 152 156 150 163 163 75 39 55 63 53 53 55 104 130 143 157 179 200 210 224 228 230 228 228 226 225 228 228 222 215 206 189 175 168 183 165 189 178 178 205 207 212 210 209 207 204 202 199 198 195 195 194 196 193 184 175 136 97 91 71 62 72 73 37 41 38 33 24 30 27 35 55 10 1 0 125 187 191 190 192 195 198 198 197 142 144 143 147 150 151 155 151 151 151 159 161 143 116 37 40 61 45 41 48 92 112 122 140 158 181 195 210 225 229 231 230 229 229 229 231 231 232 223 215 196 198 191 198 215 200 189 204 212 213 214 212 209 207 203 199 198 198 195 188 178 159 158 159 131 111 88 66 56 63 56 33 40 31 31 26 24 28 51 56 3 3 0 88 192 191 195 193 196 197 197 197 144 147 148 148 150 151 155 154 151 157 156 161 158 143 39 47 38 34 32 41 75 81 110 125 149 184 196 203 223 230 233 236 236 237 236 234 236 237 236 222 213 217 208 217 223 225 215 210 213 214 215 212 208 209 204 202 201 199 199 188 166 152 142 123 116 102 79 74 46 31 40 30 29 28 26 27 34 42 77 53 9 0 4 141 190 190 195 192 195 195 195 197 146 146 147 147 151 152 152 156 154 157 163 168 160 156 92 42 33 18 25 37 50 70 73 92 122 150 170 208 219 230 235 239 242 242 239 238 241 238 235 228 227 209 225 225 222 226 223 224 222 223 223 219 214 212 205 203 198 196 190 173 157 131 106 96 90 70 64 51 37 14 41 23 17 23 22 30 32 52 73 61 1 0 6 153 192 190 191 192 195 193 194 196 141 144 146 149 151 151 153 156 155 156 162 167 162 156 131 57 31 15 19 25 54 56 66 70 100 127 164 201 197 219 231 237 242 239 243 242 235 240 237 232 223 227 218 221 223 226 222 226 224 223 225 224 220 218 204 207 203 199 189 168 146 120 90 64 61 48 47 37 27 16 40 12 9 13 21 36 41 61 90 41 2 1 2 162 194 185 195 193 194 192 194 196 141 144 147 149 151 154 156 155 155 159 163 166 167 157 140 89 34 22 17 18 31 60 55 57 90 118 149 166 178 193 204 219 240 236 237 239 240 232 226 215 213 219 219 218 225 216 213 215 218 220 223 221 217 210 189 194 197 190 179 150 124 93 71 63 47 36 29 25 21 12 22 8 9 17 25 35 58 92 88 14 0 0 1 57 191 193 189 186 190 192 192 194 142 142 143 148 150 156 160 153 155 159 161 161 165 157 152 121 67 25 22 7 16 31 33 44 68 110 122 126 156 157 170 190 211 222 206 213 227 223 220 211 196 189 223 213 211 209 210 210 206 214 218 215 210 205 183 184 189 182 168 135 95 71 50 58 42 24 14 11 15 5 8 6 16 28 35 51 83 96 41 1 0 0 0 0 113 192 188 186 198 193 193 194 143 143 142 148 149 152 157 154 159 161 162 164 163 155 158 163 127 35 28 22 5 11 20 29 51 79 107 107 126 118 138 169 190 186 179 188 196 207 207 185 162 195 217 197 185 196 199 205 177 185 193 198 200 180 163 177 160 154 148 124 88 56 36 39 32 18 16 10 13 3 6 11 20 25 48 64 100 66 5 1 0 0 0 0 20 185 191 196 192 193 193 195 142 142 145 147 150 150 155 153 160 161 162 161 159 158 162 159 155 128 68 34 17 5 12 13 35 41 69 103 87 93 119 139 136 153 179 175 181 175 187 196 180 168 198 188 175 177 160 180 155 151 159 158 160 154 133 133 134 114 104 102 76 54 26 17 24 24 2 4 1 2 3 13 24 28 64 94 73 7 3 0 0 0 0 0 0 57 199 192 192 192 193 195 139 142 146 146 148 150 152 156 157 159 158 156 155 158 159 159 159 139 122 64 43 11 4 13 33 38 106 75 76 84 81 92 111 141 139 145 140 144 170 183 172 161 196 168 148 127 148 158 155 131 113 134 106 121 142 123 109 95 78 59 55 43 22 15 6 19 5 4 2 5 6 13 41 60 92 60 9 2 0 0 0 0 0 0 2 0 100 206 196 193 187 193 139 143 146 149 148 147 149 152 155 157 156 156 157 156 160 159 163 159 166 101 86 63 10 11 17 33 53 41 64 73 78 85 99 116 109 126 121 112 141 149 143 156 166 153 145 103 129 133 130 134 99 93 75 89 97 73 78 67 57 41 32 27 12 5 4 4 5 2 3 5 7 26 66 88 46 4 1 0 0 0 0 0 0 0 1 6 0 146 196 193 195 191 138 141 143 147 148 145 148 149 151 154 155 154 154 159 163 163 164 159 168 152 119 90 29 13 11 19 13 34 43 59 81 71 79 79 93 108 98 89 117 126 130 142 141 127 126 101 129 116 116 99 110 74 60 64 69 63 67 45 37 31 18 9 12 4 8 4 2 2 4 10 28 70 71 10 1 2 0 0 0 0 0 0 0 0 1 0 3 7 175 187 194 189 140 141 142 145 146 147 149 149 151 155 156 155 155 155 160 164 168 164 164 143 151 86 47 13 14 13 14 21 50 37 54 69 57 86 81 103 80 89 101 105 127 111 128 116 118 89 94 93 88 85 87 77 55 53 36 41 44 30 21 24 13 3 6 6 4 2 3 11 28 50 73 40 5 3 0 0 1 0 0 0 0 0 0 0 4 0 4 2 50 197 185 194 140 142 143 145 147 146 148 148 148 151 152 153 154 157 157 159 163 160 153 62 188 147 129 25 8 5 3 15 16 22 33 63 41 52 64 85 78 68 66 94 106 100 90 106 110 82 75 75 79 59 66 70 51 48 35 48 30 19 16 8 6 4 5 12 0 1 16 36 55 38 10 1 2 0 0 0 0 0 0 0 1 0 0 0 1 1 3 0 0 85 189 191 140 141 144 144 144 146 148 148 148 154 151 150 152 155 156 158 160 156 128 8 179 176 161 83 20 6 3 3 9 14 10 36 42 33 50 54 72 63 73 79 84 81 77 89 89 70 62 67 67 57 49 40 30 41 35 24 12 16 4 2 4 3 4 8 2 9 20 20 12 1 0 0 0 0 0 0 0 0 0 0 0 0 0 0 2 0 3 2 3 9 125 195 141 142 144 146 144 144 146 150 151 153 151 150 152 154 156 155 155 159 87 6 150 180 173 135 60 39 21 7 2 10 13 26 45 28 34 30 44 47 63 79 58 61 63 51 66 58 46 49 35 37 29 21 28 31 26 13 11 7 3 1 1 0 1 2 5 10 5 0 0 0 0 0 0 0 0 0 0 0 0 0 0 0 0 2 2 0 2 5 7 5 4 149 140 141 143 146 146 145 146 149 149 151 151 151 152 154 157 152 152 159 49 16 133 180 185 176 85 53 19 7 3 15 9 32 39 23 30 28 32 37 34 57 51 40 20 27 35 41 53 50 22 24 26 22 9 5 7 1 5 3 1 1 1 1 1 2 1 0 0 0 0 0 1 0 0 0 0 0 0 0 0 0 0 0 0 2 1 1 6 7 9 9 2 42 138 142 145 146 148 148 147 149 149 149 149 151 154 153 155 152 154 151 25 14 106 192 188 190 113 77 47 11 4 15 17 19 29 23 18 18 20 22 26 21 35 14 15 15 22 35 39 30 18 18 18 21 10 4 3 0 3 2 1 0 0 0 0 0 0 0 0 0 0 1 0 0 0 0 0 0 0 0 0 0 0 0 2 2 2 4 9 11 12 8 16 3 141 143 143 145 148 147 149 153 154 153 154 156 157 152 155 150 154 142 19 9 73 182 191 198 189 113 61 43 15 14 14 16 16 21 14 15 15 16 13 11 10 10 6 13 18 33 32 16 13 19 7 3 4 1 1 1 0 0 0 0 0 0 0 0 0 0 0 0 0 0 0 0 0 0 0 0 0 0 1 0 3 3 3 6 3 6 9 13 13 16 2 10 140 140 140 143 148 148 151 153 152 153 153 157 154 151 149 150 153 146 20 13 32 182 187 200 186 172 122 69 48 47 23 10 18 18 12 14 12 14 5 6 4 3 4 5 6 15 15 8 9 5 5 4 2 2 0 0 0 0 0 0 0 0 0 0 0 0 0 1 1 0 0 0 0 0 0 0 0 0 0 1 2 6 6 7 9 11 13 12 12 12 14 9 137 138 140 142 146 147 149 152 150 147 149 154 150 150 150 148 148 155 32 18 8 105 196 209 178 194 166 134 111 88 61 25 32 26 16 12 6 10 26 6 4 5 4 4 3 4 3 7 7 5 5 7 1 0 0 0 0 0 0 0 0 0 0 0 0 0 0 0 1 1 0 0 0 0 0 0 0 0 0 3 6 4 6 10 10 12 13 12 12 14 12 12 138 139 139 142 145 146 148 148 152 148 150 152 150 150 149 148 148 154 53 14 11 23 119 202 195 196 188 174 148 129 106 95 75 46 36 20 12 10 11 6 11 2 1 4 1 1 2 5 10 6 2 0 0 0 0 0 0 0 0 0 0 0 0 0 1 0 0 0 0 0 0 0 0 0 0 0 0 0 1 6 8 7 9 11 12 12 13 13 16 15 13 16 139 138 140 143 145 146 149 149 149 149 149 149 147 150 152 150 150 145 111 17 12 8 9 74 169 194 196 180 166 158 157 149 140 107 77 47 44 31 14 5 6 8 6 2 1 0 4 1 0 0 1 0 0 0 0 0 1 0 0 0 0 0 0 0 0 0 0 0 0 0 0 0 0 1 0 0 0 1 6 9 10 11 11 11 13 13 13 15 16 17 17 14