P2
# Generated by OpenCV 4.2.0
92 112
255
42 29 27 25 21 21 10 7 9 18 10 8 11 6 10 13 10 10 12 26 20 15 18 19 24 29 19 21 22 26 27 33 28 35 26 23 24 25 24 30 38 36 50 51 49 58 55 73 93 65 86 79 63 78 59 52 49 67 50 45 43 33 31 52 31 40 24 68 53 42 19 34 31 41 42 20 27 31 22 39 45 39 30 35 57 38 30 43 29 33 42 34 27 25 21 13 16 16 11 12 9 7 5 15 4 4 9 24 27 17 13 15 17 25 17 20 18 19 14 19 16 34 32 42 34 37 32 31 23 32 24 30 33 44 61 67 55 80 75 97 84 90 88 92 80 76 80 69 74 78 74 58 48 46 40 62 44 52 31 51 53 50 58 28 46 32 45 17 35 15 15 22 30 34 34 16 20 38 26 37 26 23 42 22 18 17 22 19 27 18 17 21 8 9 12 17 11 15 16 14 12 18 19 15 17 19 16 15 14 18 20 31 55 61 58 51 49 35 43 41 33 42 27 28 34 41 49 64 78 92 92 114 104 113 116 119 105 119 112 107 98 87 97 82 78 63 57 70 65 47 41 50 77 59 61 42 46 57 46 37 36 18 28 25 15 26 17 17 27 24 23 18 16 27 26 22 10 16 22 18 19 13 21 9 8 14 25 8 7 7 21 19 15 15 19 18 18 9 12 24 45 59 42 29 50 45 57 65 59 57 71 66 47 33 30 35 32 36 48 62 61 79 92 106 108 129 137 164 154 141 130 126 133 112 124 106 99 81 75 87 69 68 59 53 64 74 62 46 52 60 49 40 29 19 20 24 17 20 16 23 25 27 24 15 9 35 29 15 27 14 13 18 12 12 25 18 21 13 12 8 6 12 19 10 19 22 14 11 13 48 54 47 36 42 48 59 72 84 85 97 100 98 92 79 73 51 51 59 62 61 58 65 67 75 76 96 117 137 162 160 164 163 172 172 154 156 151 142 109 142 71 92 98 77 69 76 78 90 68 63 62 65 39 39 33 27 17 23 29 19 13 22 20 15 5 14 32 21 29 31 11 15 10 31 16 34 16 4 13 20 7 7 4 15 38 21 18 16 16 36 54 53 46 42 52 68 72 91 101 101 120 142 147 141 149 137 120 106 85 75 74 61 68 73 73 70 82 93 127 152 177 183 181 185 187 177 172 175 173 159 166 135 143 115 120 115 99 112 96 95 77 72 74 67 67 54 47 30 27 23 21 20 22 21 16 10 8 19 28 28 38 16 15 16 25 30 13 22 10 24 15 7 9 6 6 6 12 14 15 21 32 42 43 44 48 56 77 84 101 114 141 155 160 168 169 173 168 157 148 145 129 109 105 98 97 77 81 92 92 136 136 168 186 192 195 194 190 189 188 188 187 178 171 165 168 145 134 125 121 122 141 136 109 90 91 89 71 77 62 42 30 28 19 19 27 20 19 21 14 12 19 40 33 31 14 17 13 21 28 26 9 31 11 10 12 6 8 5 9 16 20 30 40 46 53 61 74 93 103 123 137 161 175 180 186 189 187 182 183 169 141 155 152 142 143 139 121 125 96 120 135 136 183 184 193 196 198 198 195 196 193 192 193 191 195 186 180 164 171 160 161 156 163 154 134 130 122 112 107 64 57 40 34 29 30 28 22 19 24 18 12 22 36 28 31 27 7 30 41 36 17 14 13 35 8 13 18 18 12 8 11 25 29 34 60 65 75 96 119 133 140 159 167 174 185 189 196 194 193 191 190 188 188 184 173 169 168 157 161 144 142 126 146 160 180 193 196 198 200 199 204 198 199 200 195 194 194 192 191 183 186 175 170 171 167 166 138 149 125 136 107 94 88 78 53 44 25 37 25 28 30 27 15 19 27 37 35 27 13 42 42 23 11 13 22 23 15 8 6 15 12 11 18 30 36 58 78 98 117 138 145 156 163 171 182 190 187 192 196 196 195 196 194 192 192 191 188 186 184 181 171 175 150 167 165 188 188 194 197 200 197 198 200 198 200 201 202 200 199 197 195 195 194 188 177 186 178 168 173 165 147 145 130 96 103 88 67 49 36 30 37 22 31 23 35 31 13 19 45 35 20 38 32 17 10 10 14 13 11 2 11 7 17 21 31 34 59 82 110 127 142 160 162 166 170 179 185 190 189 196 198 197 195 197 198 195 196 194 191 193 190 193 191 189 181 171 182 192 199 196 198 202 198 202 197 200 201 202 202 204 198 201 196 196 198 190 192 184 192 187 179 166 166 162 147 127 103 79 83 64 40 37 40 37 36 37 28 22 15 13 18 43 13 11 28 12 9 12 10 19 5 14 7 11 14 35 35 47 81 118 135 146 161 169 165 169 172 178 188 194 192 198 199 199 199 197 196 197 194 196 198 197 196 198 201 195 189 194 189 195 198 199 204 201 200 199 197 201 199 201 201 202 200 198 199 198 194 198 196 187 193 190 193 191 185 163 153 139 131 109 78 63 57 48 48 41 38 28 23 15 14 17 20 35 15 18 13 11 12 6 11 15 7 3 4 5 25 34 41 66 111 131 155 161 167 175 175 172 173 179 185 190 195 196 196 199 200 200 200 198 199 198 195 197 198 195 198 200 197 197 199 196 202 202 202 201 201 198 203 202 201 198 201 200 201 197 198 195 197 195 193 197 197 196 192 195 190 187 179 177 149 135 106 71 51 41 35 33 46 19 21 27 24 11 26 38 12 10 8 9 8 9 11 7 21 3 4 13 37 40 51 90 125 156 163 169 178 179 177 174 177 183 187 189 190 194 196 199 198 197 198 196 198 198 198 197 197 198 198 198 198 199 200 200 198 199 198 202 203 205 203 201 200 199 199 200 199 199 198 197 197 194 194 198 197 200 198 196 197 197 190 183 172 156 119 86 60 50 36 30 43 25 20 18 22 21 18 20 15 13 8 9 5 5 15 14 25 2 12 33 25 42 68 105 145 161 171 175 178 183 181 182 182 184 186 187 188 193 195 193 191 195 197 195 197 195 197 197 199 197 196 200 200 197 200 199 200 202 201 201 199 199 199 202 200 200 199 198 197 198 196 195 194 200 197 194 199 202 198 199 201 199 199 188 179 171 131 88 71 46 43 41 21 35 20 19 23 24 21 13 13 12 9 8 5 5 13 20 18 6 26 29 35 48 75 116 155 171 171 176 179 182 180 186 183 183 187 186 186 187 189 193 194 198 195 198 196 196 196 200 198 195 196 197 198 199 197 199 203 203 201 197 201 201 201 203 200 198 200 198 197 196 196 197 196 197 196 197 191 199 203 197 203 201 201 196 189 176 143 108 71 53 44 41 49 25 17 22 26 19 22 25 21 9 8 8 5 11 10 7 11 14 27 34 43 59 86 132 165 173 178 179 184 186 179 182 178 179 179 186 192 189 191 195 196 194 195 196 192 194 190 191 192 193 188 192 194 193 196 195 193 195 198 201 201 200 200 199 197 198 197 197 195 193 195 193 194 195 196 195 196 194 197 201 202 203 203 196 190 179 155 108 92 64 46 36 46 38 22 25 18 31 24 22 10 7 8 6 6 11 9 22 10 19 20 32 42 73 93 135 162 173 177 179 183 188 182 184 185 182 183 178 182 188 197 195 194 196 194 193 196 197 199 196 196 191 194 197 197 197 195 198 199 198 200 201 199 201 195 199 198 200 197 197 197 193 194 193 191 193 192 195 194 199 199 200 201 201 201 195 189 182 159 119 96 69 56 47 29 36 37 19 28 20 19 18 13 7 6 6 4 8 5 14 9 19 32 34 48 68 102 141 168 177 180 181 182 183 187 183 188 184 183 181 186 190 187 193 196 194 195 194 196 197 197 195 196 194 193 197 196 192 192 195 198 196 198 196 197 198 199 201 202 198 197 198 195 193 193 191 189 186 192 191 194 197 197 199 202 200 195 192 188 170 171 132 90 88 59 55 35 22 22 25 22 22 23 27 12 5 5 4 5 5 15 9 10 23 33 50 62 80 113 150 169 175 176 178 181 185 185 186 181 182 183 182 185 183 186 187 193 194 194 193 197 195 199 196 194 194 193 198 195 197 199 195 199 198 201 197 201 203 199 199 196 196 193 195 193 190 187 185 186 187 192 191 193 199 198 201 201 198 193 194 191 169 141 144 108 71 56 48 52 24 16 22 24 23 28 35 8 5 4 3 10 18 9 9 16 25 27 37 55 81 116 149 175 177 175 182 181 183 188 184 182 180 182 185 185 190 188 194 195 196 197 195 200 198 194 195 195 193 196 196 199 199 198 199 195 196 197 199 198 195 198 198 198 201 201 197 195 191 188 191 184 190 191 192 197 196 196 196 198 200 199 191 183 166 142 114 97 71 56 36 32 47 19 15 16 23 25 25 8 5 7 11 7 5 8 9 16 23 24 37 59 91 133 155 171 180 181 181 185 183 186 185 187 186 187 186 190 191 193 194 197 196 198 197 199 197 202 200 201 197 196 196 197 196 195 201 193 188 198 201 199 198 200 196 199 197 199 194 191 191 193 191 193 194 193 192 194 196 197 197 198 202 201 194 183 172 141 114 83 74 58 35 27 18 29 24 27 21 15 17 4 6 7 6 5 3 10 12 16 18 28 45 63 86 126 157 171 176 181 181 181 186 189 190 190 189 189 186 189 189 188 191 194 194 193 196 194 197 200 204 200 199 198 198 198 197 197 199 197 193 199 199 200 198 201 195 198 199 194 197 194 194 192 194 192 196 199 200 198 198 198 200 200 198 196 196 186 168 138 116 93 70 49 41 30 22 16 15 23 11 15 19 8 5 5 4 3 6 8 5 16 28 31 36 66 93 121 158 171 174 178 179 182 186 186 190 191 187 188 189 190 190 186 187 194 192 186 191 198 200 196 199 200 195 195 199 198 198 197 196 196 200 199 197 196 199 199 199 197 197 199 196 193 195 195 193 193 193 196 197 195 198 198 196 198 198 199 195 181 170 140 128 98 82 55 40 30 24 14 12 19 25 27 16 8 4 6 6 6 7 7 16 18 17 26 35 63 94 128 157 168 172 174 180 185 182 189 188 189 184 184 187 194 196 197 200 192 198 197 198 198 197 199 196 201 202 202 196 202 198 197 202 196 198 194 195 195 197 198 197 197 197 197 197 198 195 189 195 194 196 199 197 198 196 199 197 196 196 194 195 184 170 137 134 99 76 61 43 32 23 13 11 13 16 14 12 5 4 4 9 10 9 12 17 15 17 22 41 70 100 126 154 161 172 177 178 183 185 188 189 189 188 190 193 196 194 191 198 200 200 197 194 201 199 197 199 200 203 198 197 201 197 199 193 199 197 200 201 204 203 203 199 195 198 198 199 199 200 196 197 198 198 200 201 197 194 196 197 196 197 195 192 183 161 147 129 106 91 62 47 34 26 17 17 20 24 12 28 6 6 12 9 7 8 12 16 13 16 29 47 68 111 130 156 158 174 178 180 180 184 189 189 187 187 192 194 196 194 196 197 198 199 199 199 195 197 196 200 202 199 202 199 200 199 199 199 198 200 199 200 198 200 203 202 200 200 202 203 201 202 199 199 198 195 198 197 197 192 196 196 195 196 194 190 188 168 134 103 107 85 69 47 36 15 23 23 21 20 20 20 7 12 8 9 6 7 8 12 12 26 38 53 77 106 132 151 158 174 180 180 184 187 189 191 191 192 193 196 195 198 195 200 196 194 193 198 197 199 198 200 199 196 200 199 197 199 197 195 197 199 200 201 201 204 205 204 204 202 202 201 203 202 204 202 201 197 199 193 194 195 194 193 199 194 197 194 185 165 139 118 91 86 65 48 38 24 19 28 27 13 9 20 12 5 5 10 13 11 14 10 20 25 46 58 86 124 142 150 161 171 176 185 187 191 193 193 194 195 197 195 195 194 190 187 189 195 191 192 190 195 199 201 200 202 198 200 198 199 198 198 199 199 199 201 201 203 202 202 203 201 203 203 198 202 201 201 202 201 200 198 200 197 192 192 193 191 191 190 187 166 158 132 106 76 65 56 43 32 26 29 11 24 24 18 9 6 10 11 11 8 15 21 17 35 41 59 102 126 139 156 156 171 185 191 193 194 191 193 193 196 194 193 194 186 191 191 185 189 189 188 183 183 195 197 196 206 195 192 197 196 191 193 199 200 198 200 198 203 200 201 200 199 201 201 201 200 202 203 203 200 198 198 198 198 198 192 194 189 192 186 189 173 151 126 102 78 64 56 38 34 32 30 32 18 9 18 16 13 12 10 9 9 14 16 25 32 42 78 115 136 142 157 161 178 189 193 196 196 192 191 190 191 193 193 193 186 186 184 179 178 182 183 187 183 192 195 196 196 196 192 193 193 191 192 194 197 196 199 199 198 194 197 197 195 196 196 199 201 199 201 201 202 197 195 200 199 198 193 192 193 192 185 176 170 160 144 116 79 61 52 45 29 32 20 23 16 12 11 7 7 9 11 8 7 9 21 23 28 56 98 125 145 151 153 168 184 193 198 197 194 190 189 188 188 191 188 187 181 178 182 180 176 174 178 181 184 193 194 197 194 193 190 193 188 189 192 193 192 193 191 198 192 193 193 196 199 196 197 198 198 199 199 200 199 203 203 199 201 200 200 196 190 192 185 180 167 161 153 124 93 64 50 38 37 26 18 16 14 16 13 10 15 7 8 7 8 8 12 30 32 62 113 132 152 156 160 174 187 193 193 193 195 191 188 181 181 175 176 174 159 154 167 159 166 171 171 173 174 187 196 192 190 195 192 187 183 186 183 192 189 191 193 192 183 191 198 201 195 192 196 198 195 198 197 200 199 201 203 204 202 203 197 197 197 188 187 183 175 171 161 134 97 62 51 37 26 27 29 8 10 9 17 6 8 6 6 11 9 13 16 27 37 86 128 139 156 161 166 171 185 172 163 172 174 168 157 140 137 120 96 89 106 96 137 107 148 153 166 157 176 183 186 187 189 181 184 183 182 178 181 175 178 183 179 171 185 181 180 185 189 191 187 191 193 194 193 194 197 198 200 205 206 204 204 198 200 189 191 183 182 175 161 150 110 71 48 42 26 24 25 18 14 11 10 8 6 5 11 9 11 10 21 28 40 102 134 148 156 155 162 162 152 145 124 136 106 94 84 65 63 57 54 51 66 56 95 94 128 111 147 147 154 175 177 181 186 181 179 183 178 179 170 176 172 170 167 153 155 148 170 182 172 172 183 184 180 186 186 187 192 191 191 198 203 205 202 202 200 197 191 183 180 179 169 154 124 88 52 42 38 15 16 7 11 13 12 6 9 7 11 12 8 6 23 25 42 111 141 153 162 153 143 118 85 71 74 76 75 58 46 45 41 41 40 41 38 50 52 71 123 89 125 147 146 152 167 170 168 175 173 179 171 176 169 167 164 162 150 147 127 128 145 171 114 139 124 152 167 176 183 189 177 175 185 186 193 196 199 202 203 199 194 186 182 181 171 158 140 98 64 41 44 13 11 6 8 7 14 13 7 7 12 11 9 11 20 24 53 116 142 157 163 158 108 78 73 72 62 64 52 52 52 38 31 35 42 45 44 55 54 70 87 93 111 122 137 153 167 169 166 168 172 166 171 164 160 160 154 150 136 121 127 97 111 94 104 60 78 73 67 79 106 95 130 129 142 162 158 163 189 199 192 200 193 186 183 176 170 156 140 106 66 53 37 14 8 7 5 11 7 8 11 13 12 9 6 16 19 34 60 123 147 154 146 117 84 63 47 44 42 49 62 54 67 63 70 80 78 74 75 73 74 67 83 90 107 115 117 142 160 158 160 164 161 155 158 158 151 153 156 141 135 116 85 75 84 59 58 56 44 48 50 50 50 56 63 74 97 97 115 120 117 147 183 192 192 190 184 175 171 161 132 107 59 37 36 11 9 7 4 12 4 5 73 107 45 6 11 14 20 34 68 127 143 154 154 102 75 68 65 72 67 67 76 94 91 101 106 104 100 96 88 83 80 77 82 84 90 107 121 131 143 150 152 156 158 152 151 152 147 146 141 131 97 90 91 79 73 81 57 51 43 32 39 40 35 39 46 60 72 81 89 97 101 98 113 159 192 189 182 171 171 155 131 105 61 26 34 13 11 6 9 7 9 45 144 116 93 47 17 13 28 25 74 131 151 162 152 113 83 70 84 77 82 88 102 96 101 105 102 100 92 90 84 74 74 72 73 74 84 103 111 129 134 144 147 152 150 151 143 141 140 135 133 118 90 85 100 77 80 64 65 64 56 49 46 53 48 49 49 45 62 59 72 70 96 122 131 147 175 186 182 176 178 162 146 99 55 29 28 12 9 10 11 8 8 126 116 116 95 41 23 18 25 25 80 146 150 154 153 129 98 97 92 99 96 88 76 60 45 26 19 16 16 11 12 13 21 31 45 65 72 85 99 113 123 137 145 148 151 148 150 139 136 123 118 114 102 99 98 90 87 87 88 87 83 92 98 98 91 83 77 84 81 89 70 69 81 91 101 112 152 179 185 179 178 168 143 108 51 28 26 15 8 8 12 8 9 113 46 50 109 64 36 11 20 29 105 145 154 149 150 119 118 106 98 90 80 51 33 26 22 26 26 9 26 33 34 11 11 30 34 26 48 69 86 97 112 130 143 158 162 166 163 149 136 120 114 102 103 93 87 90 80 83 83 81 81 87 95 92 92 100 104 98 97 101 96 76 69 72 78 86 126 152 173 180 177 166 154 125 65 36 29 15 9 5 7 10 7 109 46 43 44 87 64 22 18 49 127 152 154 147 122 127 101 105 95 77 47 23 16 23 24 66 65 21 26 30 13 41 18 21 39 52 36 47 66 89 113 141 160 173 178 181 179 163 148 130 116 109 98 93 81 74 60 36 35 45 46 27 19 15 19 22 41 60 85 95 107 105 87 93 101 113 132 154 176 174 174 166 160 135 68 40 32 14 17 10 7 7 10 113 60 37 41 88 71 25 22 58 139 153 150 162 154 127 99 86 77 60 37 40 46 54 56 59 76 35 30 29 28 30 33 52 73 37 70 67 64 86 115 152 175 187 196 199 189 174 161 141 127 115 92 84 79 54 62 73 75 43 36 20 25 36 25 16 20 17 32 46 84 105 116 122 109 110 127 166 173 179 172 172 162 150 89 54 36 6 9 9 6 9 16 133 96 46 63 92 81 19 37 88 150 154 157 164 164 156 146 129 99 89 84 94 100 100 102 92 96 95 100 94 118 87 85 69 64 52 48 91 98 89 121 157 182 189 195 197 193 182 164 147 135 107 100 78 69 80 83 64 47 66 102 27 27 2 14 59 29 29 19 41 40 76 106 122 123 133 145 156 179 182 159 168 175 155 90 47 27 9 8 10 5 19 36 130 107 53 79 131 93 33 55 114 154 156 154 162 172 168 168 156 142 129 125 126 128 126 121 119 124 104 106 106 127 124 127 108 114 116 121 135 125 97 129 155 182 192 197 196 192 179 166 148 136 125 117 117 109 70 44 69 95 131 125 39 34 28 33 39 20 53 35 21 53 51 103 111 111 122 148 164 175 179 167 181 174 164 96 25 18 14 13 11 18 33 135 113 112 58 121 145 103 54 66 143 156 157 156 167 169 177 171 163 153 148 137 127 131 137 133 137 131 119 129 130 131 125 123 127 118 112 125 120 112 123 137 160 188 193 196 192 184 173 162 154 146 129 145 126 120 114 100 99 88 82 85 96 93 90 80 89 96 94 77 76 51 48 68 116 129 113 126 161 162 179 169 184 179 170 97 23 16 20 18 14 66 105 144 115 117 64 136 154 118 83 99 159 153 156 158 170 174 175 173 171 169 165 155 136 121 120 123 120 119 113 112 113 108 118 110 120 116 122 126 131 141 137 143 173 187 193 196 193 184 174 161 157 150 142 149 125 129 133 116 116 121 102 111 87 105 78 109 110 95 133 136 132 127 95 100 105 124 124 130 150 170 184 179 177 180 170 106 32 18 35 25 28 112 145 146 86 128 67 135 117 85 77 94 159 150 151 155 173 169 172 176 179 181 177 173 173 168 160 148 145 131 129 120 122 126 131 135 130 133 143 151 158 153 149 151 180 191 195 199 194 191 173 161 161 160 155 152 144 127 124 118 118 122 131 123 134 136 120 133 128 123 139 149 155 154 158 151 134 140 147 157 164 177 181 185 178 179 174 135 50 28 22 42 41 123 123 108 59 140 85 136 130 89 87 120 154 155 155 156 164 159 169 176 177 174 176 180 177 175 174 168 162 158 159 158 164 153 152 166 157 162 162 170 160 157 148 163 184 190 195 194 192 187 177 165 163 167 159 168 155 148 143 126 128 122 122 121 122 125 130 132 145 144 146 150 151 149 150 162 166 172 169 171 171 178 181 185 185 181 179 153 77 44 34 34 72 93 100 77 40 143 97 147 100 78 76 117 151 154 157 160 163 168 170 172 171 181 184 184 185 181 182 180 174 172 173 177 175 172 172 171 171 175 174 163 155 156 155 172 187 197 198 196 191 188 181 166 166 170 166 168 172 169 161 155 140 127 123 120 130 123 119 123 130 127 129 137 142 153 165 172 177 175 176 178 177 175 184 183 182 181 183 171 109 69 63 72 124 129 147 124 29 150 94 135 85 69 73 117 153 153 155 153 160 168 174 171 177 182 186 188 188 184 181 187 182 181 179 183 178 180 183 182 182 177 170 161 158 162 167 180 193 198 199 195 193 187 184 177 169 169 172 174 176 179 182 171 170 177 164 143 131 133 145 148 156 167 164 172 176 177 177 176 177 180 178 178 179 182 181 184 184 186 185 180 134 78 94 114 134 165 165 143 6 152 97 135 76 65 90 128 147 144 159 155 159 164 169 173 179 181 186 189 190 195 189 190 185 187 185 182 184 184 185 181 179 177 160 161 169 168 174 185 197 201 200 196 193 191 190 183 173 173 177 176 178 182 187 181 180 178 168 181 172 177 167 170 169 177 182 179 177 187 188 186 178 174 173 181 179 184 183 187 187 185 181 178 147 113 128 155 186 182 178 157 14 156 111 129 84 71 74 121 147 150 155 154 150 158 168 173 174 180 190 192 193 193 192 193 195 194 183 180 183 187 181 179 171 168 165 168 175 175 176 189 200 201 203 199 197 192 191 188 183 179 183 176 175 176 186 187 192 185 182 182 178 174 182 183 183 184 183 185 187 189 182 189 188 179 178 181 180 179 188 185 184 183 184 179 153 125 64 93 155 184 179 174 20 143 120 149 96 93 78 117 145 149 151 151 149 157 164 164 171 181 186 190 195 197 197 194 190 191 190 191 189 178 181 179 175 173 170 174 174 178 181 193 203 205 203 201 199 194 189 190 185 187 183 180 177 176 183 186 185 189 188 188 186 180 185 185 184 186 190 193 193 191 188 190 185 188 185 176 182 187 185 181 182 186 180 178 157 110 71 82 123 155 170 180 15 122 129 160 118 95 64 116 142 145 152 150 153 151 158 164 173 184 188 195 196 194 199 197 192 192 191 189 179 175 184 179 176 172 170 172 174 178 185 199 201 204 202 203 201 198 192 190 190 189 189 183 180 181 181 179 184 189 182 193 184 190 190 190 190 191 189 196 195 197 193 191 187 189 185 184 182 186 183 183 186 184 179 179 159 98 82 89 109 137 153 175 14 85 139 163 122 83 57 117 144 141 149 151 151 148 157 168 176 176 188 195 193 194 197 198 195 191 188 191 184 180 174 174 174 159 154 160 169 176 182 199 199 199 199 201 205 204 201 194 193 190 187 184 183 184 185 180 182 185 185 184 192 189 191 196 193 195 193 195 188 193 195 191 190 185 188 185 181 186 183 182 186 185 178 178 163 104 95 92 110 140 164 177 14 51 140 140 161 112 73 108 132 139 147 148 150 150 155 168 175 181 189 195 199 197 192 193 191 187 185 185 184 179 175 165 152 149 148 154 164 175 183 197 197 197 198 198 198 199 202 198 194 184 178 169 176 181 180 188 185 184 180 181 185 198 195 197 197 196 199 195 192 193 193 192 190 192 191 190 184 179 180 178 183 181 178 174 160 141 101 101 114 141 166 181 14 24 158 102 134 115 73 102 132 143 144 146 149 158 158 164 174 184 185 192 192 199 194 194 192 185 186 181 170 171 161 146 135 155 167 169 169 176 186 191 191 190 193 195 194 196 204 200 190 175 174 170 151 163 180 185 186 187 188 186 191 198 198 199 201 199 197 201 198 195 193 192 188 193 188 188 187 181 180 184 181 175 175 170 150 192 119 124 132 151 169 175 13 27 157 126 112 97 53 85 133 135 141 147 145 151 152 166 171 174 181 184 197 196 192 185 180 182 174 171 162 154 154 133 152 174 179 181 177 171 187 186 190 190 193 193 193 193 201 201 197 187 178 176 156 146 155 170 178 185 185 190 194 199 204 204 201 197 198 201 198 198 194 194 191 192 191 182 184 185 181 174 177 171 173 170 139 189 137 128 153 160 183 169 64 49 142 144 107 105 78 77 121 141 137 144 147 144 149 161 163 172 173 186 186 182 182 180 178 182 171 172 163 149 138 134 163 187 185 184 178 170 186 189 187 192 202 197 188 191 198 199 200 196 185 182 173 159 153 151 162 172 176 182 192 195 205 203 201 200 196 191 195 198 193 189 194 187 181 182 179 177 180 179 176 173 172 162 130 201 135 136 163 177 185 141 110 35 110 165 143 125 66 65 121 117 141 142 144 137 151 157 164 170 176 173 177 180 179 180 171 172 174 167 153 129 129 120 168 181 185 178 171 171 184 194 183 189 211 200 189 188 193 198 198 193 196 192 183 164 152 141 144 150 161 170 184 190 191 194 198 198 196 194 191 193 194 195 191 186 182 179 176 176 174 179 173 171 169 141 120 181 138 151 162 190 181 124 57 20 69 168 178 152 42 70 113 124 133 144 144 144 154 157 163 170 169 169 173 175 173 169 165 167 162 154 140 141 129 122 150 158 170 164 162 159 162 172 168 175 192 192 188 186 189 195 199 190 194 198 189 163 136 140 136 137 148 160 171 178 186 193 193 195 192 192 194 196 195 190 187 185 177 176 173 178 174 173 173 167 146 130 114 155 186 171 182 190 161 164 19 11 30 163 182 143 50 51 109 122 129 144 146 149 151 151 161 166 166 166 168 170 167 163 168 161 164 148 146 144 132 113 123 126 134 139 141 144 152 156 162 166 172 179 176 173 175 182 182 181 176 177 173 155 134 135 134 140 141 146 163 180 179 185 193 191 192 189 187 191 188 191 188 185 177 176 173 174 176 170 167 167 134 101 122 168 194 204 189 176 138 184 14 3 6 172 180 183 45 57 94 116 126 141 144 144 145 154 161 162 162 161 162 165 163 158 154 152 144 147 150 154 148 121 96 70 60 72 116 109 122 141 143 156 159 165 155 161 152 152 154 150 147 145 142 135 145 144 140 127 132 151 156 166 173 175 177 184 184 186 188 190 193 187 184 178 178 171 170 173 175 172 165 158 129 106 169 180 197 198 163 146 172 166 8 6 4 171 175 179 58 49 82 89 117 135 145 149 148 153 151 155 156 157 155 160 150 145 148 146 142 146 151 150 150 130 116 86 50 44 39 82 97 120 130 134 140 138 134 138 123 118 78 68 87 106 113 145 163 165 160 140 122 130 142 160 171 173 172 173 176 179 185 185 187 185 180 182 178 177 173 171 175 176 166 153 130 99 187 197 195 186 146 168 183 90 12 6 6 137 164 153 56 45 65 101 114 136 149 145 144 146 151 153 150 155 156 148 141 144 140 134 141 151 160 164 149 137 136 124 103 85 85 71 83 101 111 116 120 126 131 115 79 70 79 81 66 97 140 157 168 163 163 149 131 127 133 150 164 165 169 169 167 171 180 183 183 183 182 177 178 174 172 175 175 171 167 143 133 101 197 203 200 178 171 183 185 15 24 8 3 51 142 127 67 46 59 114 109 130 145 147 141 141 143 152 152 154 153 144 130 131 134 142 155 163 167 166 159 139 134 117 134 114 95 86 67 73 97 101 106 110 98 74 100 120 126 125 141 145 156 168 157 169 168 158 142 126 131 141 159 165 168 169 169 169 176 186 182 182 181 179 182 172 179 172 177 166 157 155 119 91 196 205 199 194 187 190 128 23 22 16 4 3 52 84 57 58 85 93 120 124 145 144 135 145 144 148 150 148 148 143 134 128 145 154 159 161 173 160 162 146 137 113 114 90 105 84 68 60 79 80 85 93 81 113 119 113 125 140 137 156 149 152 160 172 168 163 150 127 122 134 146 154 163 169 172 171 173 176 180 180 178 180 179 177 176 175 174 170 152 142 113 106 192 201 205 207 203 190 29 19 21 14 11 8 12 6 27 55 87 102 115 121 139 140 137 142 145 143 150 148 142 139 139 152 151 150 127 143 130 153 137 131 109 101 88 82 75 72 76 56 49 49 53 73 99 88 96 66 80 89 115 109 141 141 166 171 164 161 156 140 114 113 129 145 147 162 162 166 171 170 176 172 176 179 180 180 178 175 174 156 137 135 107 155 190 203 203 203 207 145 29 14 15 23 16 16 14 4 27 41 71 110 96 129 139 130 143 140 141 145 144 151 145 147 150 132 131 118 107 118 119 117 116 94 77 70 64 61 72 71 72 83 67 66 78 86 82 78 73 55 76 72 91 94 104 132 149 135 167 161 153 149 135 109 117 136 145 159 164 168 173 175 174 179 179 180 182 182 175 178 170 145 125 117 115 174 191 198 201 205 187 44 23 11 19 22 64 25 6 13 40 46 59 90 118 112 119 134 132 140 141 143 148 150 146 148 127 135 101 102 90 94 99 94 86 83 58 64 66 72 71 74 70 56 89 108 96 102 72 65 67 60 76 78 83 88 92 110 126 144 162 165 144 154 144 122 107 119 136 148 161 166 169 175 175 177 174 182 181 180 178 170 150 141 125 116 119 130 193 201 194 200 168 26 22 38 23 24 19 23 10 12 32 36 36 80 116 114 95 114 120 128 140 146 144 148 146 135 107 94 78 77 75 79 89 84 87 87 74 71 59 72 77 72 91 102 106 121 109 115 91 79 61 64 63 86 66 65 71 82 118 132 139 139 143 132 140 142 116 95 122 141 153 167 170 174 175 171 171 178 182 177 167 171 156 147 131 121 89 120 175 181 184 185 49 16 22 29 24 22 19 13 12 11 18 28 30 70 87 106 91 107 117 126 136 143 148 147 141 106 100 59 70 81 74 87 85 87 96 93 77 84 73 71 78 121 156 152 149 141 146 139 138 146 128 89 80 81 74 76 77 83 106 122 119 122 120 124 134 133 130 98 104 134 150 165 174 174 173 166 178 174 181 163 152 158 144 139 112 103 70 95 134 148 125 36 28 15 31 23 21 22 15 12 7 14 5 22 27 75 88 106 105 98 103 110 124 138 144 144 124 89 82 54 94 70 56 67 68 85 99 112 106 92 81 85 99 112 129 146 158 167 175 166 169 168 146 128 118 106 88 74 82 94 110 114 107 109 104 109 113 120 120 122 90 122 144 164 170 173 163 162 166 168 172 157 153 159 150 135 126 98 51 21 31 27 14 31 20 27 28 38 27 18 13 14 7 10 8 13 26 61 72 92 89 96 74 95 111 137 140 125 118 62 87 63 56 61 48 64 84 94 87 83 88 94 98 102 107 121 124 122 134 138 142 113 115 112 126 125 126 119 106 112 141 103 108 108 117 114 93 105 123 131 86 112 97 117 149 159 174 174 169 164 165 160 166 132 112 140 114 111 118 73 29 6 12 18 13 25 12 30 35 47 42 18 11 20 8 7 6 10 25 44 51 83 81 68 71 88 107 125 135 124 112 77 60 74 83 51 44 33 52 62 61 59 62 66 67 79 86 92 99 101 105 105 121 99 100 101 104 112 113 113 114 109 103 108 120 103 90 93 94 92 106 111 95 97 100 118 144 160 168 173 168 161 163 140 151 132 110 143 127 103 104 62 27 13 11 16 17 20 16 31 30 56 28 14 11 12 7 8 9 15 28 30 64 84 73 67 68 76 88 111 127 136 130 121 94 89 105 124 95 84 51 30 34 48 53 60 56 52 46 49 56 63 74 86 93 90 78 61 62 71 69 65 73 88 94 86 84 90 71 72 74 82 83 108 102 94 100 120 153 165 167 167 162 156 158 134 139 132 101 143 145 102 82 47 30 10 20 21 20 22 19 18 32 49 13 8 9 8 9 9 8 8 20 33 71 55 72 57 82 68 93 86 129 147 145 128 134 132 146 146 138 128 127 112 99 104 108 124 132 138 138 135 133 133 137 130 124 117 119 124 123 122 111 103 79 60 50 43 52 57 67 53 66 85 86 106 108 91 93 128 152 164 156 160 147 150 148 134 141 124 130 132 122 99 70 46 22 18 18 16 27 25 14 21 32 23 21 9 8 8 7 8 11 13 16 35 40 63 72 61 74 74 63 83 110 135 150 155 143 160 164 164 156 148 152 146 146 137 134 134 141 151 163 157 166 165 164 163 162 164 163 163 154 156 151 155 147 141 123 111 83 60 44 39 39 74 94 102 117 97 95 145 158 162 148 150 135 131 130 122 139 113 126 146 114 81 57 44 18 20 20 14 19 20 21 13 29 31 6 8 6 7 6 8 9 10 22 32 33 56 63 61 71 68 57 73 98 128 145 156 161 167 172 172 166 160 156 151 157 155 154 158 158 156 157 156 157 159 169 166 168 168 168 169 170 171 164 163 151 146 147 140 136 134 136 127 103 95 113 108 114 108 119 149 152 159 142 139 122 108 117 123 105 123 138 121 98 71 49 25 13 15 19 19 14 10 20 28 45 59 11 8 10 9 6 10 7 14 13 22 28 49 55 74 58 48 66 67 82 111 124 149 150 162 168 170 177 170 158 148 154 150 153 156 159 161 158 156 154 158 158 162 169 166 163 161 159 154 155 157 161 166 165 173 173 165 162 157 150 156 152 136 136 133 127 135 146 134 142 119 121 90 110 118 119 99 140 111 80 77 39 11 14 11 14 21 17 14 21 35 42 87 9 7 7 12 8 7 9 8 16 18 24 43 42 55 67 53 62 57 61 98 113 119 144 161 172 173 177 177 169 159 157 150 148 152 147 157 150 150 149 149 151 158 155 159 163 162 164 161 168 171 171 169 170 174 175 173 173 169 176 179 170 156 153 142 136 140 137 125 126 124 101 102 104 112 92 119 106 97 64 60 24 15 13 10 11 13 13 16 29 31 69 113 15 8 6 31 18 13 6 24 15 24 35 38 40 47 71 57 61 44 63 82 83 128 149 162 166 174 176 174 169 164 166 159 147 138 136 136 135 146 143 140 139 140 142 140 142 142 147 152 147 158 168 173 171 168 174 183 181 182 185 178 172 169 163 138 135 148 127 116 120 108 99 90 92 123 102 107 84 69 53 42 25 18 14 13 10 10 12 28 28 37 74 120 10 15 102 106 85 20 6 25 14 15 28 36 47 40 38 42 52 48 45 69 85 118 143 155 171 174 176 172 168 166 166 164 155 142 131 126 125 131 126 126 124 137 133 138 133 137 146 151 150 161 171 171 176 178 187 186 187 184 178 179 176 176 166 142 143 136 118 105 88 120 105 94 108 126 122 88 74 46 43 50 21 23 23 24 18 27 23 54 42 43 46 56 74 106 103 134 63 17 17 16 12 32 27 40 41 32 36 34 44 47 48 69 65 113 137 158 167 170 174 171 174 169 167 167 163 156 145 142 136 122 132 118 112 121 112 132 113 132 135 133 146 158 168 176 183 188 190 189 190 188 176 181 179 171 165 123 120 116 99 78 103 100 124 66 128 111 87 71 72 37 44 24 18 17 21 22 23 22 23 38 25 33 64 114 46 49 101 90 130 16 10 8 12 24 30 44 38 33 26 43 35 44 36 51 71 85 110 136 156 160 175 175 173 172 170 166 164 162 151 138 137 142 140 117 136 124 119 135 136 142 148 150 153 163 175 182 188 192 193 187 192 186 182 181 180 171 153 104 116 95 90 70 73 80 78 83 101 90 79 73 61 35 24 21 20 53 18 11 18 13 12 19 18 28 98 91 97 36 17 28 30 12 15 8 21 40 20 64 52 34 38 27 37 34 49 66 62 94 111 130 163 163 164 178 177 172 173 167 166 166 157 160 153 150 156 131 135 140 144 147 148 152 166 172 165 159 169 179 187 191 190 188 190 178 190 165 151 155 141 123 95 87 76 93 73 80 79 74 91 51 58 63 43 41 39 24 21 32 32 16 14 16 11 10 12 22 55 51 37 63 21 15 36 36 11 55 34 20 32 96 46 39 25 34 32 37 44 37 52 74 91 122 132 148 170 177 180 177 173 172 173 171 170 169 169 172 155 153 171 157 151 166 170 171 175 175 177 174 173 180 189 189 191 187 189 187 179 169 159 152 139 121 106 83 63 87 72 79 81 76 70 54 62 35 37 60 49 18 23 19 39 30 8 13 14 8 13 8 23 26 53 89 94 29 27 18 25 71 80 58 57 105 81 25 25 24 31 35 34 49 54 78 84 121 133 150 152 176 180 181 181 176 175 174 175 179 180 174 163 176 174 171 166 176 185 183 185 183 185 186 181 184 187 189 191 190 185 187 172 161 151 130 130 110 98 75 52 82 61 80 76 51 59 43 59 39 38 35 81 40 20 27 22 26 10 17 18 10 35 53 102 83 74 95 145 145 81 56 81 21 25 23 170 123 88 61 26 26 24 37 38 52 41 60 71 97 107 142 159 154 175 186 181 175 179 179 179 182 179 183 178 174 183 175 185 179 183 189 192 192 189 191 186 186 187 184 188 193 177 180 174 162 100 113 103 94 94 74 71 88 51 75 69 43 40 45 37 38 37 19 45 71 43 25 24 17 14 8 10 25 25 57 48 100 187 135 136 140 170 180 148 175 94 66 178 112 124 81 57 20 24 25 31 42 46 59 48 75 100 113 124 153 171 168 181 181 181 183 180 183 179 177 179 171 186 172 179 185 190 187 191 191 192 195 191 187 187 189 182 187 181 157 146 120 110 91 89 82 79 58 79 64 48 46 51 37 44 39 46 33 26 64 50 48 47 29 15 33 28 20 12 34 34 100 27 103 190 187 172 185 179 180 170 144 5 180 181 122 125 108 71 37 23 23 31 37 34 41 38 49 81 106 115 119 156 158 176 180 176 178 180 174 182 164 168 164 172 184 169 167 185 177 188 188 191 192 189 190 190 187 185 176 172 162 117 93 78 88 74 65 57 35 64 44 46 44 32 32 44 57 29 30 23 55 95 61 64 36 27 20 64 26 34 10 30 77 22 134 192 178 187 190 192 199 120 13 4 220 203 137 130 128 85 70 33 23 28 32 30 28 42 35 58 75 89 105 114 138 149 157 163 160 160 172 162 152 163 135 141 169 165 165 164 171 185 187 189 184 185 184 183 181 162 174 154 127 101 76 84 58 54 53 34 57 64 32 31 33 30 47 55 77 28 39 23 54 99 110 91 137 101 78 38 20 22 28 19 22 127 140 192 191 190 192 201 89 8 9 78 214 213 137 131 139 122 61 40 22 28 27 26 30 24 29 40 55 63 94 97 97 92 101 142 143 136 148 127 137 141 115 168 145 124 148 146 146 162 171 157 182 183 168 150 156 141 132 138 130 90 58 50 46 48 42 48 45 46 42 29 22 38 47 102 93 51 16 20 34 120 136 121 120 85 119 107 106 105 96 122 134 143 148 192 198 195 201 70 18 11 14 178 223 222 137 145 138 124 79 66 45 24 24 22 22 29 28 37 46 52 58 70 80 86 83 99 115 123 115 109 111 107 119 129 131 130 151 150 126 132 155 149 135 131 147 151 153 158 111 95 112 85 59 36 42 47 56 49 41 36 26 21 35 42 102 125 121 113 22 16 23 109 136 133 78 65 111 134 132 135 135 130 133 144 152 194 190 195 65 33 20 13 10 204 224 227 179 151 138 133 127 74 46 24 23 24 23 31 30 29 42 41 51 72 68 76 72 71 75 112 105 98 94 102 116 139 133 133 129 131 121 124 141 137 106 94 138 127 128 122 106 60 86 49 50 37 40 36 51 47 47 38 22 43 50 109 156 137 154 97 37 20 27 61 44 62 109 142 148 148 148 146 141 143 148 151 153 191 193 53 27 24 16 12 150 213 226 239 221 150 149 130 120 98 63 44 25 26 23 28 24 31 27 32 44 53 54 61 62 64 73 93 91 84 86 117 118 121 136 109 114 97 120 107 91 111 86 66 100 108 78 75 70 82 61 50 38 25 41 31 54 44 29 16 31 71 75 138 155 149 165 83 42 39 54 150 154 156 156 157 153 151 148 148 147 151 153 160 166 137 27 33 25 22 17 12 221 221 228 235 230 138 153 144 115 121 75 54 35 27 32 24 24 27 25 30 53 42 45 35 49 60 78 75 69 84 90 104 114 116 131 104 106 121 104 78 102 76 81 64 70 66 80 67 64 69 42 37 34 29 29 43 51 35 18 25 63 117 149 163 168 147 118 64 38 34 104 160 157 155 157 155 153 151 150 150 155 157 159 165 171 37 26 28 22 20 18 91 226 226 232 236 241 214 149 145 129 114 91 82 41 36 32 24 27 20 27 32 21 42 34 30 40 55 58 62 60 76 87 99 90 116 104 89 93 82 96 77 72 65 77 59 47 47 62 56 46 50 32 34 29 38 32 40 32 26 38 56 77 130 154 153 167 137 94 72 40 63 158 159 161 158 160 158 157 155 155 156 159 162 165 171 176 33 29 25 22 15 2 224 231 229 230 234 246 242 126 142 132 128 97 96 48 35 28 20 22 25 27 23 25 38 31 35 32 55 45 39 46 69 80 80 90 102 85 89 70 71 65 73 55 54 66 47 43 45 38 50 38 39 30 22 26 23 17 24 23 27 68 94 124 146 163 167 163 196 132 98 80 149 164 164 162 162 161 162 162 159 160 163 165 170 172 177 181 31 28 26 19 21 59 222 232 231 229 228 235 241 221 142 143 119 110 121 80 41 30 25 27 24 19 21 31 33 31 28 32 42 33 31 48 40 61 76 76 85 85 66 56 57 62 57 45 43 53 37 36 38 39 36 34 39 26 21 25 20 18 23 42 56 87 145 149 158 167 164 166 205 160 142 155 167 167 166 164 164 163 165 165 164 165 170 172 176 177 181 185 32 28 25 21 18 163 228 234 236 233 231 235 240 239 143 129 125 119 106 112 63 42 35 25 22 20 24 26 22 27 31 37 34 35 33 38 36 62 55 60 59 67 65 50 56 48 39 36 45 39 34 41 30 27 37 30 27 17 30 28 23 27 45 55 84 145 127 162 166 166 159 159 182 212 172 174 170 170 169 168 166 168 168 169 170 171 175 179 182 183 186 189 32 28 26 20 17 204 228 233 234 236 234 234 236 238 238 90 130 100 110 93 81 54 45 36 21 28 24 28 20 26 34 22 25 25 27 29 48 51 38 39 47 45 50 42 54 43 44 34 48 32 38 31 23 24 33 30 21 22 34 22 22 30 57 97 103 141 151 163 168 163 171 125 138 231 174 177 174 172 172 170 170 172 171 173 175 176 180 183 186 188 191 195 28 25 25 19 42 211 232 232 236 238 235 233 233 241 247 208 107 105 113 100 85 62 48 44 35 20 29 21 22 22 18 22 17 23 33 33 25 32 28 28 37 34 32 34 34 46 28 38 24 38 35 31 22 18 30 25 22 26 13 26 40 57 98 106 121 131 162 167 166 170 167 102 132 229 184 176 175 175 174 174 176 175 176 176 178 181 185 188 191 193 195 198 29 28 24 20 62 217 233 233 236 238 238 238 233 235 240 237 146 112 96 96 94 85 61 56 40 43 20 24 19 20 18 25 15 20 17 26 18 26 24 23 28 36 23 30 19 35 23 24 30 29 17 18 28 22 21 28 29 23 39 32 52 73 68 114 131 157 163 169 172 168 169 53 150 234 135 181 178 175 177 178 178 178 180 181 183 184 188 192 196 196 198 199 29 26 23 27 97 222 232 236 237 240 239 240 237 234 237 237 227 85 71 114 109 84 79 75 51 44 43 27 26 22 25 20 21 17 23 22 17 24 18 19 17 21 27 20 21 25 21 15 25 23 24 18 26 23 20 26 30 32 43 37 39 78 111 96 143 156 166 169 171 171 172 22 185 240 113 136 174 181 179 180 181 181 183 184 186 187 191 194 197 197 199 201 27 26 23 34 127 223 235 237 237 240 239 240 240 235 234 237 238 228 62 110 112 97 96 82 78 60 52 45 33 25 20 22 19 19 18 14 17 22 18 17 20 20 21 16 19 20 19 16 18 17 19 20 25 28 23 28 45 47 31 53 66 85 101 131 151 159 165 173 172 171 149 12 219 246 86 35 191 187 181 184 184 184 187 186 189 191 194 195 198 199 201 202 27 22 23 44 135 217 231 234 235 237 240 239 236 236 233 232 232 235 203 91 109 98 98 97 87 85 64 70 51 54 26 16 21 27 18 18 19 14 17 16 14 14 19 19 21 22 17 20 21 19 26 34 32 29 29 44 60 50 68 54 96 89 120 146 159 166 173 170 173 173 107 59 232 250 59 33 99 185 186 188 187 187 188 190 190 191 195 198 199 201 201 201 26 23 24 54 131 208 229 233 235 236 240 237 238 236 235 233 231 238 231 175 91 96 99 87 101 83 79 76 72 55 55 56 22 29 28 28 23 23 19 21 19 17 16 27 17 22 20 26 19 29 30 33 35 41 42 48 51 48 72 90 103 128 133 163 172 173 168 176 173 152 63 202 244 246 85 29 36 183 188 190 185 189 188 189 190 193 195 199 200 201 201 201 25 19 38 68 134 200 227 233 235 236 238 238 237 237 235 235 232 234 235 236 152 84 100 102 98 82 78 84 70 76 70 62 62 47 37 31 21 23 25 23 22 22 26 26 28 28 31 33 33 54 42 31 46 49 52 57 56 106 102 111 139 150 151 170 171 172 173 175 158 111 60 238 248 239 140 27 40 100 194 190 194 191 191 192 191 193 195 199 199 200 201 202 25 14 61 83 151 203 231 236 237 240 239 239 239 235 232 229 233 230 233 237 234 134 84 103 98 87 67 88 87 80 78 77 77 58 52 45 46 28 28 33 27 28 27 22 25 30 43 38 58 77 61 44 61 60 62 89 93 94 109 117 146 163 141 174 172 168 176 164 137 69 236 248 246 239 173 24 32 41 187 191 191 191 191 191 192 193 196 196 198 199 200 199