P2
# Generated by OpenCV 4.2.0
92 112
255
51 55 62 61 62 55 51 60 68 61 57 56 63 75 89 90 77 73 63 69 81 94 106 117 125 136 139 136 136 144 154 157 161 165 162 152 140 129 119 109 98 90 83 80 82 74 64 56 52 42 40 39 28 16 25 22 17 17 9 13 17 19 11 9 10 13 13 12 10 15 16 19 12 7 4 3 4 10 8 6 3 3 3 2 2 2 0 2 1 0 0 0 52 53 58 65 64 53 48 52 59 62 72 89 98 97 86 85 94 113 126 131 137 144 145 151 159 163 165 166 165 169 171 166 160 161 163 160 151 144 136 127 119 111 107 103 101 96 90 79 70 62 59 55 44 34 28 21 23 21 12 12 15 17 16 17 13 15 14 9 10 15 11 12 14 17 12 5 3 7 10 10 8 5 4 2 3 2 1 1 0 0 0 0 54 50 57 69 69 60 55 62 67 62 77 103 113 115 121 142 154 157 163 167 171 174 171 174 178 177 178 180 180 181 182 180 168 160 159 158 156 156 152 148 143 140 135 129 124 120 111 105 94 80 68 64 58 53 43 40 32 23 20 24 21 17 18 18 16 17 16 11 13 17 13 9 8 16 16 13 7 3 7 10 10 6 6 5 2 2 1 1 0 0 0 0 56 50 56 67 63 50 54 63 61 63 91 117 132 155 177 188 191 192 191 188 189 191 192 190 183 184 186 189 189 187 186 190 184 176 171 164 159 161 159 158 157 156 158 154 152 149 145 140 130 116 100 87 73 62 54 51 42 36 31 30 26 26 23 20 16 15 16 14 13 14 14 13 7 9 10 14 10 4 4 7 10 8 7 7 3 3 2 1 0 0 0 0 53 51 57 64 59 55 64 59 71 111 144 164 183 199 210 217 217 211 210 206 203 202 202 199 195 194 194 196 194 192 188 192 191 189 186 183 174 172 171 171 170 169 165 165 166 164 161 161 155 146 133 120 106 89 73 58 51 46 32 30 28 27 27 25 21 15 18 17 12 10 11 14 13 11 7 9 7 6 4 5 5 5 7 7 4 4 2 1 0 0 0 0 53 54 59 64 69 79 72 76 117 159 186 202 214 222 226 226 220 215 211 209 210 210 208 204 202 199 199 201 200 197 193 192 193 193 192 188 185 186 184 182 182 180 178 178 177 175 174 173 171 164 149 141 133 117 98 82 72 57 48 39 32 30 29 27 26 20 18 17 14 11 10 8 14 15 16 14 5 4 5 4 4 2 5 5 4 6 3 1 0 0 0 0 53 56 61 72 83 86 79 118 165 192 204 218 227 225 225 225 224 219 216 212 215 214 207 203 203 201 201 202 200 198 195 194 196 196 195 192 193 195 191 188 187 185 183 183 182 182 177 171 169 166 156 148 143 132 116 105 100 84 68 50 43 35 32 30 30 29 25 15 14 14 10 8 14 12 15 15 9 5 5 4 4 3 3 4 5 5 3 2 0 0 0 0 50 55 61 84 79 72 112 150 188 210 216 226 232 231 230 226 226 224 221 220 218 214 211 207 204 201 202 200 198 196 197 198 198 198 197 195 194 197 193 190 190 188 186 184 183 181 179 175 170 167 162 154 149 143 129 115 109 108 94 64 56 46 40 34 38 36 34 22 17 17 15 15 10 8 10 15 15 7 3 5 4 3 3 4 4 3 3 1 1 0 0 0 50 53 64 81 79 90 127 168 198 216 225 233 231 233 231 228 227 225 221 219 217 215 212 208 206 205 203 201 199 197 199 199 199 197 196 194 194 195 192 189 191 190 186 184 183 182 181 177 174 169 166 160 154 150 141 133 120 118 110 90 73 58 48 42 40 39 33 32 30 21 18 22 13 8 6 10 15 11 4 3 4 3 3 3 2 1 0 0 0 0 0 0 54 56 79 81 66 77 124 185 211 221 226 231 232 233 232 228 224 221 218 217 213 210 207 206 206 207 206 203 200 199 199 199 198 197 195 193 195 194 193 192 192 190 186 185 183 181 181 178 175 171 171 167 161 156 151 146 138 125 114 105 89 76 64 52 49 48 38 34 35 29 22 24 23 18 9 9 15 15 7 3 4 2 1 1 1 0 0 0 1 0 0 0 59 65 86 78 71 81 144 198 216 224 228 231 232 231 228 226 223 219 216 214 209 205 203 202 205 206 206 203 201 199 197 196 195 194 193 194 194 193 194 191 190 191 189 187 184 182 180 179 175 172 173 171 163 159 156 152 147 138 127 116 103 92 84 67 59 56 47 40 35 38 32 29 25 24 17 8 11 16 15 6 3 1 1 1 0 0 0 0 0 0 0 0 64 72 77 59 69 104 179 209 218 222 226 228 226 224 226 223 220 215 213 209 203 202 201 202 205 203 200 199 199 199 196 195 193 193 193 193 193 193 193 191 191 193 191 189 183 179 175 175 175 173 167 168 165 159 158 158 152 144 135 126 116 104 94 85 73 62 50 44 39 38 34 36 26 20 19 15 9 12 15 8 4 1 1 1 0 0 0 0 0 0 0 0 66 75 78 62 74 126 192 216 220 221 224 225 224 223 223 221 217 212 208 205 200 200 201 203 203 199 197 197 197 194 194 193 193 193 194 194 195 195 194 193 191 191 191 188 183 180 176 174 172 169 169 167 164 162 160 160 156 145 138 133 126 117 105 100 88 72 59 48 45 36 31 30 30 22 18 18 13 11 11 12 8 2 1 1 0 0 0 0 0 0 1 1 66 77 79 68 75 142 201 219 220 220 222 223 224 222 222 219 214 209 207 203 200 199 199 198 197 194 193 198 195 195 195 195 196 195 195 195 194 193 192 190 188 188 189 185 182 180 176 172 170 167 166 163 162 161 161 159 155 150 144 141 136 127 117 111 96 84 72 54 46 39 36 29 26 21 17 16 17 13 11 13 13 4 1 0 0 0 0 0 0 0 1 1 63 73 78 69 73 155 210 215 219 217 220 221 222 220 217 216 213 209 203 200 201 198 194 192 193 194 194 196 194 194 194 194 194 192 192 191 190 189 189 188 188 189 188 184 182 176 174 170 167 166 165 164 163 162 159 157 155 154 148 144 139 130 122 113 106 100 85 62 50 39 39 31 25 22 17 12 13 13 13 12 14 7 3 1 1 0 0 0 0 0 0 1 56 68 78 65 77 166 211 211 215 217 219 219 218 216 214 212 211 207 201 200 199 201 198 195 195 195 193 190 188 189 190 191 191 189 189 188 188 190 191 191 190 191 189 184 180 176 173 169 166 165 163 165 165 163 159 156 155 154 149 147 145 136 130 117 109 103 93 75 56 39 38 32 25 23 19 11 10 14 18 12 12 10 6 3 2 0 0 0 0 0 1 1 57 68 74 63 93 177 215 215 220 215 218 219 217 214 212 210 208 204 201 203 201 202 200 194 193 192 190 187 187 189 190 191 190 188 188 188 190 191 192 190 190 188 185 180 176 172 171 169 165 165 165 166 164 162 160 159 156 153 152 149 146 140 135 127 115 106 100 89 65 45 37 32 24 22 15 11 10 12 14 16 14 12 9 4 2 0 0 0 0 0 0 1 56 65 64 56 102 189 219 217 218 214 217 215 214 211 209 208 205 200 198 200 199 196 197 194 196 197 193 190 192 191 191 191 191 189 187 189 190 190 191 189 184 183 183 179 177 173 171 168 166 165 165 165 163 161 159 159 158 156 154 149 146 143 138 133 124 111 102 94 78 57 45 36 24 23 17 14 11 9 12 13 13 13 13 6 3 1 0 0 0 1 0 0 61 71 71 64 106 195 219 217 214 212 213 213 213 209 204 202 199 194 192 193 192 190 195 193 197 197 193 188 189 189 190 190 189 188 190 190 190 190 190 188 182 182 181 178 174 171 171 170 167 166 168 168 167 163 162 161 159 158 155 150 146 144 140 134 128 119 106 97 83 64 52 42 33 24 16 15 11 8 10 11 11 12 14 10 4 2 0 0 0 0 0 0 58 69 78 70 108 190 222 216 216 217 216 216 212 210 204 200 195 195 195 192 189 190 190 191 197 196 191 187 187 189 189 187 188 186 190 191 190 187 186 184 181 180 179 175 173 172 171 170 170 168 166 166 165 163 160 159 159 157 154 149 146 146 141 134 129 123 112 101 90 71 57 45 33 24 17 18 10 8 7 8 8 8 12 11 7 3 1 0 0 0 0 1 78 83 81 70 112 193 221 218 218 216 218 218 215 209 205 202 201 201 198 192 189 189 189 192 193 192 188 186 187 188 187 186 186 186 188 188 187 183 181 179 177 177 177 174 173 171 171 170 167 164 161 161 160 159 156 156 156 154 150 148 147 145 140 136 133 126 117 106 101 85 69 53 40 30 20 16 11 10 8 5 4 5 8 9 9 5 2 1 1 0 0 0 86 83 74 57 108 203 221 216 219 212 215 214 213 209 206 205 202 200 193 188 187 188 189 194 192 188 185 184 185 184 183 185 185 187 188 184 183 181 178 176 175 174 174 174 174 174 173 166 165 162 161 161 160 157 156 155 153 151 148 147 145 142 139 136 133 126 118 111 107 96 81 64 49 35 21 11 9 10 10 6 3 3 4 9 10 8 5 2 1 1 1 0 84 76 77 62 121 213 220 216 221 216 215 214 211 208 205 202 197 188 186 187 190 192 191 195 191 186 182 183 183 181 182 184 184 183 185 179 178 176 174 174 175 173 175 176 176 174 173 167 167 164 161 161 160 160 158 155 155 153 151 147 144 143 140 136 134 128 125 116 108 100 87 71 56 42 26 12 7 10 9 6 4 3 3 4 11 15 9 4 1 2 1 0 79 77 85 57 119 209 217 213 216 216 212 215 212 207 204 199 191 186 188 190 192 191 190 191 189 184 182 182 181 178 181 182 180 179 183 181 177 174 173 173 173 174 175 175 174 172 169 168 167 164 161 160 158 158 157 157 156 153 151 148 145 143 140 136 134 132 130 121 109 101 90 79 68 50 32 19 10 6 6 4 4 3 3 2 5 10 13 11 3 2 1 0 82 78 92 70 126 212 216 213 213 215 214 213 212 208 205 200 193 190 191 191 188 187 189 190 188 185 186 185 180 177 180 183 182 180 179 178 176 175 176 175 172 172 175 175 175 173 170 168 167 164 161 162 160 158 156 158 155 153 150 148 144 142 139 137 134 132 131 123 110 101 92 89 76 57 38 23 12 4 4 3 3 3 3 3 3 3 6 9 8 5 2 1 61 64 81 72 122 212 215 213 212 215 215 213 214 209 205 202 197 194 191 190 187 185 186 187 184 183 182 182 179 180 182 181 180 178 177 174 171 175 177 177 174 174 179 178 176 172 170 169 171 168 167 165 164 161 158 157 155 151 150 147 145 144 140 137 135 134 130 125 115 103 92 81 71 59 45 31 17 8 3 1 1 1 1 3 2 2 2 3 7 8 6 3 65 66 72 73 137 209 214 213 212 215 215 214 213 208 204 202 200 197 193 190 185 183 184 186 178 178 179 175 175 179 181 180 178 177 177 174 173 174 176 176 177 179 180 179 176 174 174 174 174 171 170 170 168 163 161 158 155 151 148 146 144 144 140 137 136 133 129 125 119 112 99 84 73 62 48 33 21 14 4 1 1 0 0 1 1 1 1 2 3 5 5 4 65 67 75 81 153 209 213 212 212 213 216 215 212 207 202 200 196 196 191 188 186 186 185 184 179 179 178 175 175 181 181 177 176 177 179 177 175 176 177 178 179 179 179 178 178 177 176 175 173 173 171 171 169 164 163 160 156 151 148 146 150 148 145 139 134 129 126 123 119 116 108 98 85 70 52 35 23 15 7 3 1 0 0 1 0 0 0 2 1 2 3 4 57 61 77 87 157 208 214 213 212 213 214 212 209 209 203 199 193 190 186 186 185 187 186 183 178 177 175 175 177 179 179 178 176 177 177 174 174 176 176 177 180 181 182 180 179 178 175 173 170 171 170 171 169 165 163 161 157 153 151 153 154 149 145 140 134 131 130 124 118 115 112 106 97 80 62 42 26 16 8 3 2 2 2 2 1 0 0 0 1 1 1 1 55 69 80 88 162 207 214 214 216 209 206 207 205 205 199 195 189 184 181 182 184 186 183 179 176 173 172 173 177 175 174 175 175 174 174 174 174 177 179 180 180 179 178 181 179 177 173 171 170 170 168 167 164 162 161 159 159 158 157 155 155 149 147 141 132 129 129 127 121 117 111 102 99 86 70 51 35 20 13 5 3 3 3 2 2 0 1 0 1 1 0 0 54 68 77 90 164 208 212 212 210 204 200 202 200 195 194 192 189 185 182 180 181 183 179 176 173 172 170 171 171 173 174 171 172 172 173 174 174 176 175 175 176 176 174 176 176 173 172 170 169 162 159 157 154 152 154 152 152 152 153 153 158 154 150 143 134 125 127 127 126 120 113 107 99 90 79 59 44 27 16 6 3 2 3 3 2 2 3 2 0 0 0 0 59 68 75 83 164 211 207 206 205 201 199 196 191 191 192 190 187 183 180 180 180 179 178 174 169 168 168 170 172 172 171 168 168 170 172 172 172 171 172 171 171 169 168 167 169 164 162 160 157 151 145 139 133 131 130 128 126 124 124 131 138 141 143 143 138 131 128 127 126 119 114 114 102 95 88 72 54 37 21 8 4 3 4 3 2 1 0 1 1 0 0 0 58 62 73 89 160 193 181 180 178 177 184 186 184 187 184 182 179 176 175 174 176 177 176 172 167 165 166 167 167 168 169 167 165 167 169 169 167 167 166 163 162 161 157 152 149 145 139 134 126 119 110 99 90 84 82 78 70 69 72 83 97 108 125 130 134 130 127 132 127 124 116 114 107 99 97 82 66 46 27 15 5 4 4 5 3 2 1 0 0 0 0 0 59 63 79 113 161 176 157 151 140 139 143 147 153 163 169 169 163 162 163 162 169 169 171 169 165 164 163 162 165 167 167 166 163 163 165 164 161 155 145 140 137 127 117 113 108 98 90 82 75 66 63 57 53 49 48 48 41 47 52 58 72 85 98 113 124 123 131 134 128 126 121 116 112 104 101 89 73 54 33 17 10 6 4 6 4 2 1 0 0 0 0 0 72 75 82 126 159 147 126 119 113 104 97 102 104 103 113 119 126 130 134 139 152 158 164 165 162 161 160 161 162 162 162 160 159 160 162 159 147 129 112 105 94 75 62 56 54 45 43 43 42 40 41 39 38 36 39 45 53 59 55 52 56 59 56 72 83 101 124 123 125 127 125 120 117 111 103 92 79 61 42 21 13 6 4 6 5 4 2 1 0 0 0 0 77 80 87 133 155 135 118 115 100 72 60 61 55 53 55 60 78 86 92 106 123 134 149 157 157 156 155 156 156 155 154 156 154 151 153 146 126 101 83 70 57 43 38 34 30 31 36 38 35 33 30 31 34 45 60 72 78 80 74 69 67 63 58 64 66 76 93 111 122 124 126 122 119 115 107 94 82 66 48 27 17 7 4 5 4 5 6 2 1 0 0 0 59 65 77 130 161 148 143 116 102 73 54 44 40 41 42 44 52 54 59 73 88 106 126 147 151 151 150 153 152 150 150 152 152 145 145 135 113 88 71 62 48 39 39 37 37 44 44 42 40 40 50 58 72 88 99 107 114 114 111 106 96 85 82 80 74 70 74 89 108 121 124 123 123 119 112 102 88 71 54 36 23 10 5 4 4 4 9 9 4 1 1 1 51 54 75 131 171 162 164 146 128 113 95 78 65 52 41 41 42 44 48 57 70 82 105 130 147 149 146 151 150 149 150 151 151 143 140 128 107 84 76 67 61 57 54 51 53 54 56 62 67 75 90 101 110 120 123 126 131 132 133 130 119 107 99 87 73 70 76 85 101 116 122 124 124 122 116 111 98 80 61 44 29 11 4 4 4 5 10 14 8 3 3 5 63 64 68 146 188 179 177 169 152 149 137 122 112 99 88 76 69 58 55 59 66 72 91 117 137 145 149 150 151 149 149 147 145 140 135 123 106 94 89 87 86 84 81 75 73 74 76 85 96 103 108 110 112 115 116 119 125 130 130 131 133 130 119 108 95 86 85 97 107 112 118 124 125 125 117 115 107 87 69 51 31 15 6 4 5 4 9 15 10 4 4 10 62 67 64 141 201 184 172 164 154 144 135 132 129 122 113 109 108 102 89 84 80 76 89 109 128 143 149 149 147 146 145 143 142 140 136 124 112 104 99 97 91 88 86 86 89 92 93 95 103 103 99 99 101 105 107 108 113 119 124 128 135 134 129 124 120 112 105 105 108 112 117 125 127 124 116 114 112 94 77 57 35 17 6 5 6 4 7 15 18 14 15 15 54 60 65 139 203 185 176 169 155 136 129 124 111 95 91 90 104 107 113 113 106 96 98 107 121 136 143 144 142 144 145 144 143 140 135 122 114 106 97 91 86 87 92 97 99 98 97 90 87 80 76 82 86 93 98 98 104 113 117 119 122 126 126 124 127 121 116 116 119 123 125 132 128 123 120 118 115 101 82 60 39 17 6 4 4 4 4 14 18 32 35 27 53 55 67 154 202 182 177 167 143 111 95 94 82 61 44 39 42 54 69 87 102 108 103 103 110 127 141 147 146 148 150 145 141 138 133 120 110 100 88 84 90 97 102 100 91 79 67 62 63 62 62 77 81 76 74 83 92 102 115 115 117 120 120 121 123 123 124 124 126 126 129 133 129 126 127 122 120 109 87 65 44 19 7 5 4 4 5 16 27 38 37 41 65 67 73 157 206 190 177 150 100 78 95 94 69 37 13 11 12 11 12 20 43 67 87 98 103 116 142 153 153 155 153 147 141 136 131 120 104 90 83 88 100 103 98 83 63 48 37 34 30 21 24 36 44 46 56 72 84 88 99 110 122 128 125 125 126 125 124 124 124 124 128 132 131 133 133 128 124 117 91 69 50 25 8 5 4 6 9 18 31 35 37 61 76 70 65 175 206 189 175 116 62 73 68 45 22 11 22 32 20 9 26 26 7 12 39 80 97 102 135 158 159 160 157 152 146 136 129 115 95 85 85 94 100 97 80 56 33 15 16 15 25 27 1 2 9 8 14 35 58 73 84 83 109 126 129 129 129 129 129 125 126 126 130 133 136 135 136 133 126 121 98 71 52 28 10 5 4 7 10 17 31 47 72 62 76 67 83 178 195 178 162 105 61 41 16 9 34 59 91 100 59 47 78 58 18 12 13 36 71 102 122 160 172 167 165 159 152 140 128 107 92 87 91 91 92 81 55 32 23 39 66 84 107 93 25 15 25 8 1 3 13 31 60 61 82 105 123 128 129 130 130 129 126 129 133 135 138 137 138 135 127 122 105 78 51 27 12 6 5 7 12 24 32 56 66 44 70 63 84 191 189 135 111 70 39 11 21 44 94 117 135 129 67 34 47 28 27 39 20 17 43 95 121 164 179 179 173 166 157 143 127 108 96 95 95 92 84 65 39 22 44 88 113 132 150 127 52 23 31 17 14 12 3 5 14 41 62 85 109 123 127 129 130 131 131 132 135 137 140 140 139 138 130 123 114 91 54 26 10 9 5 11 11 36 45 64 61 47 68 65 86 198 211 175 130 80 61 82 80 77 106 128 137 136 92 49 50 43 44 38 25 42 55 94 132 175 191 185 179 169 159 147 128 112 106 105 107 105 85 55 44 51 70 100 128 146 162 148 82 39 43 38 35 33 24 21 20 25 44 69 93 108 116 124 131 133 132 134 137 140 145 145 143 141 135 126 114 90 61 29 10 11 6 9 15 44 50 64 69 64 64 60 95 194 218 212 188 162 135 131 120 106 95 98 100 101 91 66 54 66 64 55 47 46 62 100 140 180 198 193 183 171 162 151 131 116 113 117 126 118 82 51 65 74 69 78 106 126 137 141 94 57 55 51 56 62 60 62 57 47 53 72 90 104 116 126 130 136 141 143 147 151 148 149 145 142 137 131 115 91 61 28 11 9 8 14 16 42 49 61 80 83 57 60 95 202 226 219 211 205 193 177 157 130 106 104 97 90 98 93 87 99 99 96 83 89 84 130 153 190 206 198 187 176 164 151 134 121 117 123 128 120 99 86 88 87 84 86 84 88 87 95 89 89 83 78 85 84 75 72 76 86 95 104 112 121 131 140 142 149 155 157 156 158 154 150 146 142 138 133 120 98 60 28 15 12 4 19 16 38 52 64 87 105 53 61 96 201 224 223 227 223 213 198 175 146 134 132 133 132 133 118 111 110 107 105 112 128 146 152 168 200 213 202 191 179 166 153 140 131 130 131 128 127 122 112 98 95 108 115 115 115 113 112 108 111 115 105 99 94 82 81 97 116 129 136 141 147 148 148 154 158 159 157 155 157 156 152 147 142 137 131 121 99 59 28 19 11 2 25 23 31 53 63 95 111 55 61 104 206 223 222 225 220 217 206 190 163 149 138 135 136 127 124 120 113 112 117 124 139 154 160 187 214 219 203 194 183 169 157 145 139 138 137 136 133 123 109 97 96 107 117 121 124 127 125 119 123 122 112 107 105 107 111 123 136 143 151 156 157 158 159 161 160 161 159 157 156 156 153 146 141 136 128 118 95 58 28 23 13 3 24 24 25 56 60 88 102 57 61 106 219 226 226 221 221 216 206 193 172 153 141 133 130 123 122 122 118 121 125 136 149 164 178 206 223 219 206 196 182 169 157 146 143 143 142 138 135 130 121 112 104 106 108 114 117 119 116 118 119 113 114 115 113 123 128 140 148 151 157 157 159 160 161 161 160 161 159 157 156 155 152 145 139 133 127 118 91 57 26 21 15 7 22 27 17 53 59 83 104 55 56 120 217 223 227 220 218 215 208 199 184 169 153 149 143 139 138 137 137 137 141 150 162 179 194 214 224 216 201 192 179 168 154 148 147 147 149 144 140 138 133 128 123 123 121 123 125 126 126 128 126 127 128 125 128 134 142 151 156 159 160 159 160 161 161 161 159 159 160 157 155 155 150 144 137 132 126 118 94 53 21 20 16 6 22 25 12 44 62 81 105 55 60 123 220 217 221 217 216 213 210 204 190 178 172 168 162 157 153 152 151 150 154 167 179 196 210 220 226 214 200 190 178 169 157 151 151 152 153 151 147 144 141 137 138 138 136 138 141 142 139 136 138 137 137 142 143 147 154 158 161 165 163 162 161 162 160 159 157 158 161 159 157 156 151 144 135 130 123 115 91 49 19 19 21 12 17 20 11 41 62 79 93 60 62 117 218 219 215 217 214 212 213 212 207 198 193 187 181 175 168 163 160 161 171 188 198 207 219 226 219 211 202 190 177 165 157 153 154 156 156 158 155 151 147 146 146 143 145 151 155 155 155 157 154 152 154 157 159 163 163 162 162 164 165 163 162 161 158 156 156 159 161 160 158 154 148 141 133 130 123 112 90 44 21 20 26 18 16 19 14 40 57 69 95 61 64 129 207 216 212 214 217 221 222 220 216 210 205 195 189 181 177 172 172 183 193 205 210 215 222 226 217 209 199 188 176 165 160 155 156 156 156 161 159 158 156 154 155 152 152 155 160 163 164 165 166 169 169 168 167 170 169 167 166 165 165 163 162 160 158 156 158 159 160 158 157 152 146 138 132 127 122 109 84 45 25 21 30 28 25 19 14 39 58 70 101 69 69 125 206 216 215 215 221 219 216 214 215 213 211 200 194 191 190 192 199 209 213 213 215 218 224 225 217 207 199 188 177 169 163 158 158 159 159 159 162 164 163 166 166 159 156 159 166 170 171 166 169 170 171 172 174 174 175 174 171 168 165 163 162 160 157 157 158 160 159 156 154 149 141 136 132 126 121 107 75 45 26 23 36 41 38 23 16 44 73 84 100 80 71 119 202 215 220 217 217 214 213 214 216 214 212 209 207 202 204 212 216 218 219 218 218 222 226 225 218 207 197 188 178 171 164 160 160 161 160 160 162 163 165 167 167 165 163 166 170 172 172 169 169 170 172 174 175 176 177 174 172 168 165 164 163 160 159 157 160 159 155 153 150 146 140 134 130 124 116 106 73 44 30 27 38 49 45 22 18 51 79 92 99 83 75 118 195 215 217 218 212 216 215 213 214 214 217 218 215 214 217 224 228 230 226 222 221 226 228 228 217 205 194 187 178 170 164 161 162 163 162 162 164 166 168 169 169 168 171 174 177 174 173 174 175 175 177 176 173 173 173 172 170 168 165 164 160 159 156 156 156 156 152 148 146 143 139 133 127 124 114 98 65 45 27 30 44 58 46 19 13 50 75 93 105 88 81 117 194 215 210 216 211 212 209 212 216 220 221 222 221 222 226 230 232 231 230 224 223 228 230 226 215 203 193 186 176 168 163 161 161 163 164 165 167 168 170 171 172 173 177 180 182 179 178 180 175 177 176 173 171 172 171 171 169 167 165 163 159 156 153 152 152 152 147 144 144 142 139 134 126 119 113 94 62 41 22 39 50 66 54 29 17 46 72 94 109 83 92 114 187 211 207 209 209 212 214 217 220 220 220 220 220 223 230 231 230 229 228 223 223 229 231 227 213 204 195 187 178 171 166 163 159 161 165 166 166 167 169 172 174 176 177 181 185 182 180 180 177 177 177 175 173 172 169 167 166 165 163 161 156 155 152 150 150 150 146 142 142 138 135 131 124 115 107 88 60 36 22 49 55 66 54 34 23 39 71 106 119 77 94 115 179 208 207 210 212 214 215 217 217 217 216 217 219 224 228 229 225 222 223 221 227 231 231 224 213 204 196 188 180 172 168 164 160 160 162 162 160 165 167 171 174 176 177 182 184 183 181 181 179 177 177 176 175 172 168 164 164 163 162 158 158 157 154 150 148 145 142 140 139 137 130 125 120 111 101 83 58 38 32 53 65 67 50 34 22 34 70 105 109 89 103 115 175 205 209 212 215 213 213 215 213 213 213 212 216 223 225 224 215 209 206 216 227 230 227 221 210 203 197 190 182 175 169 160 156 156 157 156 155 162 164 167 172 174 173 181 183 184 182 181 181 177 177 176 176 172 168 164 164 163 160 157 154 153 149 146 144 141 138 136 134 131 127 122 116 106 98 78 55 43 40 57 63 74 47 32 23 29 59 86 105 100 115 114 153 198 207 210 212 211 209 208 205 205 204 207 212 217 216 212 202 188 184 216 229 229 226 220 211 203 197 189 183 175 168 152 150 151 153 149 149 152 155 160 167 170 172 177 181 183 182 181 179 178 174 172 175 172 167 164 162 160 158 155 152 149 147 145 140 138 135 133 131 128 125 118 114 102 96 74 51 44 44 60 65 62 43 31 26 30 61 90 111 108 121 119 120 185 205 205 206 207 206 201 198 198 199 205 211 209 200 197 185 167 178 218 232 231 225 219 211 201 195 188 181 173 167 150 150 154 154 151 148 145 145 151 159 166 169 173 175 179 178 176 176 177 174 171 173 170 163 159 159 158 155 151 149 145 145 141 138 134 131 129 128 125 121 114 109 99 93 74 60 41 44 59 67 66 43 27 23 27 62 76 72 119 122 114 92 174 203 201 200 202 195 189 192 195 197 199 202 200 189 179 167 154 185 223 231 229 221 215 208 198 192 183 177 171 163 155 156 160 160 155 146 139 137 144 151 158 163 165 168 173 176 174 173 174 171 170 167 164 160 157 153 153 151 148 145 142 142 139 134 130 125 123 123 121 117 111 106 99 90 73 62 44 47 58 63 63 44 30 26 29 45 33 14 114 116 108 76 152 199 197 190 195 187 186 187 188 190 191 191 187 177 164 151 154 195 224 226 225 215 205 199 192 184 176 170 164 158 157 157 160 163 159 148 138 134 137 143 151 155 157 162 167 168 168 168 170 167 166 160 156 153 150 149 148 146 144 142 140 136 133 129 124 120 119 120 115 112 109 104 99 86 74 64 41 54 63 65 55 42 32 26 32 32 9 15 107 118 96 81 125 193 195 188 190 180 184 179 181 184 186 184 177 163 153 143 162 206 219 216 211 198 191 187 179 171 167 163 155 150 150 154 158 160 158 148 136 130 132 138 143 146 150 156 158 160 162 163 165 161 157 150 148 148 148 145 143 145 142 139 139 133 130 126 123 120 119 116 112 109 107 102 98 85 72 65 46 57 67 69 56 44 33 24 32 30 10 5 106 117 91 73 98 176 194 188 187 181 180 182 179 180 182 178 168 155 147 142 169 206 204 198 192 187 181 174 162 154 150 148 142 139 141 145 146 148 149 143 129 127 133 141 140 137 143 147 149 153 155 155 155 154 152 150 148 146 146 143 141 142 141 138 135 130 126 124 120 116 114 110 108 107 108 104 98 87 77 67 53 63 68 69 62 49 33 30 32 21 12 6 122 118 90 70 76 144 192 189 184 182 178 176 175 173 174 168 159 151 144 148 171 192 190 179 177 169 167 159 148 142 136 133 128 129 132 132 133 135 137 130 116 118 142 147 143 136 137 140 144 149 151 150 149 150 150 148 148 144 141 138 137 137 135 132 123 120 125 120 116 113 109 107 108 109 109 105 98 87 84 72 55 67 70 68 66 53 34 32 29 20 14 8 125 111 86 75 67 93 172 187 176 176 176 170 170 171 168 158 149 143 151 169 185 190 179 167 167 155 151 145 136 133 127 116 105 96 89 93 108 114 118 110 108 130 154 156 149 140 137 138 142 144 146 145 146 147 144 144 143 140 138 135 139 138 133 124 119 117 119 115 110 107 107 106 110 109 109 105 95 87 85 75 57 62 73 71 65 48 33 34 28 16 18 7 129 101 81 70 68 54 138 181 179 174 171 170 166 167 162 151 144 146 165 185 199 201 195 183 174 155 142 136 125 125 112 85 55 42 41 55 76 92 94 98 122 150 159 161 155 146 138 136 136 138 141 141 142 143 141 141 140 138 136 134 136 134 129 124 121 120 114 109 107 105 106 106 109 110 111 104 93 87 84 73 58 61 72 71 66 45 31 35 29 18 18 6 123 99 79 64 61 54 91 167 183 175 167 169 166 165 157 146 146 159 180 196 206 210 211 208 198 178 151 133 125 116 94 74 74 87 88 96 106 113 121 137 155 159 160 162 159 151 143 135 131 134 135 138 139 139 137 136 136 134 134 134 133 131 128 123 118 115 110 104 105 104 105 109 109 110 112 105 95 90 86 77 64 64 72 71 64 43 30 37 28 22 23 9 116 101 82 77 56 58 79 136 175 176 166 166 165 162 151 144 151 172 192 205 214 213 212 214 211 195 167 135 121 108 98 96 109 127 129 129 137 141 149 159 165 164 163 162 161 157 150 138 130 132 134 135 136 136 134 133 134 135 135 135 132 129 125 118 113 111 108 102 103 103 106 108 109 108 108 102 93 89 89 82 67 69 79 74 64 39 29 39 29 21 21 14 124 98 83 73 58 56 73 103 153 177 167 165 163 157 151 151 159 180 199 211 210 209 211 212 208 198 173 145 129 120 114 119 130 138 139 143 150 157 159 165 166 164 164 162 161 158 154 144 137 129 129 132 133 133 133 134 134 135 134 132 131 123 120 116 111 106 103 103 105 105 106 108 110 110 108 98 92 88 88 78 65 69 81 73 59 38 32 43 27 23 20 13 121 96 89 67 52 54 60 80 119 171 167 167 164 159 156 157 172 187 198 209 210 207 210 209 203 193 176 153 139 131 126 134 138 137 139 146 148 150 158 161 164 164 164 163 161 157 153 147 143 131 126 128 128 131 134 134 134 134 133 130 126 122 120 116 110 105 104 107 108 109 109 111 111 112 109 97 90 91 91 80 65 68 80 75 55 38 34 42 27 18 23 11 125 103 90 58 40 48 58 74 92 156 170 168 164 160 155 159 174 183 193 203 207 208 212 209 202 196 180 158 145 137 138 142 146 149 150 153 152 153 158 159 161 162 161 161 159 155 149 143 141 134 126 125 124 128 135 136 134 131 129 128 124 120 116 113 108 107 106 109 108 112 112 113 115 112 104 95 90 92 93 83 67 73 78 69 48 32 33 42 30 17 18 12 114 107 83 48 40 44 64 81 83 113 160 172 164 160 161 164 173 178 188 199 205 210 214 216 212 207 188 162 149 146 150 154 154 152 152 153 155 157 156 157 160 159 159 156 153 150 143 137 134 133 130 125 123 126 130 130 132 128 126 126 123 120 114 111 109 109 110 110 111 113 115 116 112 110 102 96 88 90 91 81 68 74 74 62 39 25 30 42 30 17 13 14 108 109 77 40 49 47 70 89 67 73 131 178 168 165 162 166 169 172 185 199 210 217 222 224 221 215 197 173 155 151 154 167 169 163 156 155 156 156 157 157 157 155 153 150 147 144 141 133 130 129 128 124 123 126 127 127 130 129 126 124 122 120 116 114 112 110 111 114 115 118 118 116 113 107 104 97 90 93 91 76 67 73 74 58 34 24 29 43 23 12 9 13 113 108 64 37 51 44 71 79 59 57 107 172 170 162 164 164 161 162 182 202 215 218 213 200 185 184 181 176 178 173 171 179 170 162 157 154 152 152 154 152 152 150 147 143 140 140 137 128 124 123 122 121 122 124 127 126 127 128 126 122 119 120 120 119 115 112 114 119 121 119 117 115 113 109 104 97 93 94 92 74 65 72 74 52 25 19 28 45 25 10 11 13 116 102 58 43 47 41 74 75 58 63 84 151 175 164 170 165 155 153 177 204 204 182 160 137 129 136 130 137 151 160 159 141 128 133 130 132 136 142 147 149 146 146 152 143 136 134 132 129 126 120 117 119 124 126 125 124 125 126 127 125 121 124 126 121 118 118 120 122 123 121 117 115 112 109 105 98 96 94 89 75 66 72 73 50 18 15 29 45 31 10 7 12 105 97 48 41 43 46 74 70 58 67 74 123 177 175 168 166 154 145 165 179 154 130 115 122 116 110 100 104 106 106 99 94 97 96 100 103 104 108 110 116 116 122 128 131 135 132 128 125 120 112 115 112 120 127 128 126 129 129 130 131 128 125 121 120 119 120 123 123 123 123 117 112 110 107 103 99 99 94 86 75 69 74 68 41 16 21 34 44 28 10 11 18 95 93 50 42 42 61 71 62 58 69 77 96 163 188 171 171 157 138 139 132 110 103 98 106 98 93 88 90 92 89 82 83 87 90 92 92 87 85 83 87 89 89 89 92 96 103 100 101 97 92 99 106 119 132 135 133 134 132 132 133 130 126 122 121 122 125 127 126 123 122 116 111 108 105 99 98 102 95 81 70 70 70 56 32 20 29 43 47 31 11 13 21 85 91 58 44 50 81 74 53 70 80 77 84 140 194 176 170 159 142 116 92 72 75 71 80 91 87 82 76 80 85 81 79 83 83 84 79 79 82 78 75 72 68 70 70 60 57 52 52 43 32 59 98 121 132 136 134 134 134 134 133 132 127 123 121 124 128 129 128 124 121 116 112 108 104 97 99 99 89 77 70 71 69 53 36 30 35 39 43 28 7 9 16 75 95 64 45 54 81 63 58 70 72 72 70 114 184 184 168 158 151 128 103 67 41 42 46 61 73 88 82 92 108 100 89 81 85 86 82 79 70 69 77 58 47 57 60 42 27 20 20 24 36 69 103 123 133 137 137 137 137 136 135 132 128 124 122 125 127 129 127 125 121 115 113 107 99 98 98 94 84 73 70 74 71 56 38 32 33 33 40 19 4 6 14 69 104 72 47 57 68 54 49 54 63 70 67 90 161 189 175 166 151 139 132 111 101 95 80 57 57 85 82 102 127 130 114 105 110 107 109 90 60 54 64 41 26 32 39 29 30 38 45 63 83 105 126 130 135 137 137 136 136 137 133 131 126 123 123 126 126 127 125 121 118 117 114 108 100 98 95 86 77 69 69 75 65 45 34 34 33 31 45 17 2 5 14 76 96 89 48 56 58 51 49 48 63 71 76 77 127 185 180 174 160 152 149 148 148 143 133 102 66 66 63 73 86 89 72 68 80 81 72 54 29 25 27 31 29 36 48 61 71 72 81 104 122 128 131 134 136 135 136 137 135 136 133 129 126 124 124 127 128 126 124 121 119 115 111 106 99 94 90 80 73 67 70 76 62 46 38 35 32 33 37 19 1 4 13 93 83 99 66 59 53 50 49 49 62 68 79 77 98 169 186 176 164 157 159 163 167 160 160 146 105 69 57 56 54 46 41 38 35 40 35 31 32 38 46 56 63 72 83 90 91 93 107 125 136 138 136 136 135 135 137 139 137 134 131 128 126 124 127 127 127 125 124 121 118 112 107 103 98 94 88 77 73 70 71 77 61 45 42 36 32 38 35 18 2 2 8 107 84 96 82 56 47 48 45 55 65 62 73 81 73 142 190 173 164 160 167 174 180 170 159 163 165 131 90 82 74 74 69 57 58 64 65 64 64 73 84 94 92 91 91 89 94 106 127 137 142 144 142 136 136 136 139 140 135 134 134 130 127 126 127 127 124 123 122 118 116 112 107 102 97 92 82 71 73 73 71 67 55 47 43 40 38 37 29 15 2 0 2 107 91 87 87 56 47 45 46 57 66 73 77 81 68 105 182 182 168 166 174 178 184 179 154 144 164 163 147 128 117 104 94 91 95 97 88 91 97 101 101 97 91 90 89 95 108 123 136 142 142 142 141 134 134 134 136 136 134 132 130 128 126 124 127 127 123 122 121 117 114 110 105 98 91 86 76 74 74 74 72 66 58 49 47 42 38 36 26 9 6 2 1 94 93 83 87 63 54 41 46 57 62 73 79 77 72 77 152 193 173 166 175 180 185 188 166 135 132 149 151 146 134 125 115 107 116 121 114 116 113 107 98 88 85 87 96 107 122 138 139 143 145 142 138 139 134 132 133 134 132 129 127 126 125 125 125 125 123 121 120 116 112 108 99 92 86 77 74 77 80 79 73 66 60 51 50 44 38 36 24 7 3 4 3 75 87 75 71 75 53 44 47 54 63 77 76 72 75 74 110 179 179 165 173 180 184 191 182 154 126 124 121 119 113 111 111 100 108 111 98 101 95 94 86 79 80 92 110 126 135 138 138 141 141 138 137 137 136 133 133 133 131 129 127 124 125 125 123 124 123 122 119 114 108 101 92 84 77 72 77 84 83 76 74 69 62 56 54 46 35 34 24 8 1 2 4 68 87 88 65 80 66 45 50 56 63 79 74 69 70 73 78 137 180 173 175 179 182 188 183 173 147 117 98 98 97 93 98 90 96 97 89 87 86 82 81 85 97 119 127 132 134 137 138 139 136 135 137 137 133 135 136 133 130 126 125 124 125 124 124 124 121 117 114 107 101 93 84 81 76 77 85 87 80 71 74 71 65 60 61 49 38 31 14 3 1 1 3 75 77 93 63 75 84 55 50 57 65 72 69 69 72 70 69 93 165 185 176 179 184 182 179 182 170 142 116 95 95 94 90 88 92 89 87 85 84 85 94 109 121 129 131 133 136 137 139 141 139 139 140 137 131 136 135 132 128 123 122 123 123 123 126 125 120 113 109 100 93 86 81 79 78 84 90 86 76 73 76 74 66 63 60 46 42 27 8 1 0 3 1 79 61 83 76 68 84 77 54 57 69 69 65 68 70 75 72 68 126 180 180 180 189 185 182 183 175 166 146 122 110 102 96 98 98 88 92 97 102 110 122 130 133 131 133 136 139 141 140 144 143 143 141 136 136 138 136 132 127 124 121 122 122 120 121 120 115 110 102 94 87 84 81 78 80 90 92 84 75 79 81 71 70 66 60 52 42 19 3 1 1 3 1 89 63 70 84 72 68 93 68 52 62 68 67 76 78 82 71 67 93 159 188 185 188 190 181 185 177 169 155 151 140 124 119 116 112 108 110 113 118 125 132 132 130 131 137 139 140 142 144 144 143 143 140 138 139 138 135 131 127 124 122 121 122 119 119 115 109 103 96 89 84 81 78 78 86 97 90 77 78 86 81 74 72 70 65 57 40 12 2 2 1 2 0 82 71 63 78 82 63 86 89 60 56 64 73 84 82 86 71 71 73 111 181 196 186 194 185 183 180 173 158 152 144 137 133 130 124 120 120 124 124 129 130 130 133 137 140 141 142 143 145 143 143 143 142 139 138 135 130 129 127 124 122 122 121 117 113 109 102 95 92 87 81 77 76 82 97 95 81 78 86 89 79 79 79 76 67 57 34 9 2 1 0 3 1 67 70 57 59 74 81 77 90 73 67 67 71 76 77 77 71 66 62 59 133 185 189 194 190 184 178 170 164 157 149 143 141 137 130 126 125 126 132 133 133 133 137 138 141 141 143 144 144 143 143 142 140 137 136 135 131 129 127 123 120 118 118 114 108 103 95 89 91 84 74 74 82 90 97 86 78 87 91 83 81 81 81 76 63 51 36 11 1 1 0 0 3 52 67 63 58 66 91 77 82 86 76 64 63 74 74 73 73 71 64 55 74 154 188 197 193 191 181 176 170 162 157 150 147 144 139 136 137 138 140 140 142 142 141 141 143 146 146 148 147 144 142 142 139 138 136 133 131 129 125 122 117 113 112 109 99 92 88 88 85 79 77 81 88 95 89 77 82 90 87 83 83 82 82 76 63 49 40 14 2 1 0 2 1 51 65 69 60 61 81 73 85 97 78 58 67 78 68 77 74 72 68 57 46 94 177 192 194 196 185 181 175 170 165 158 155 153 152 151 149 148 149 150 149 147 146 146 148 151 152 152 150 145 143 142 141 138 134 131 129 126 124 120 115 111 107 102 95 89 85 82 79 79 80 85 93 91 80 78 86 88 83 85 88 86 86 77 66 57 41 15 2 1 0 1 1 50 66 69 59 58 70 74 73 92 81 66 75 76 70 82 79 69 64 56 43 47 123 185 198 195 191 185 180 176 171 167 163 157 157 156 155 155 155 154 152 152 152 152 151 150 150 152 151 147 145 140 140 135 131 127 125 123 120 117 111 105 100 94 90 87 83 81 82 84 83 86 91 87 81 89 90 90 89 89 91 89 83 74 68 60 45 22 1 1 1 1 1 52 65 68 61 52 61 86 68 81 89 71 80 78 69 77 78 71 63 55 46 50 52 141 190 202 193 187 182 178 175 170 163 162 160 155 154 156 156 155 156 158 158 156 151 148 150 150 150 148 145 139 135 132 128 124 122 118 113 111 103 96 91 86 84 81 81 84 90 89 88 90 88 82 87 94 95 98 94 91 93 88 84 79 75 66 50 31 6 1 1 1 2 54 61 65 66 57 47 75 85 72 89 86 82 80 68 77 77 73 67 56 49 51 43 71 158 201 195 185 184 182 177 169 164 161 159 156 155 158 159 159 160 161 158 153 150 151 152 153 151 147 144 136 132 126 121 118 115 113 108 102 96 88 84 82 80 82 83 86 88 85 86 94 87 81 88 95 97 98 95 95 94 89 85 84 78 73 56 37 10 2 3 2 7 58 57 58 65 65 47 63 89 75 77 94 86 77 72 81 78 73 70 60 49 49 52 50 100 179 193 191 184 182 175 170 165 162 160 158 159 161 162 161 161 159 154 152 151 152 157 154 150 145 137 133 126 123 120 115 113 108 99 93 86 80 79 80 81 84 86 87 85 84 90 87 81 86 95 101 96 95 98 101 96 87 87 89 85 79 63 43 15 2 5 7 9 61 57 57 61 65 51 52 83 80 67 89 88 73 75 82 77 70 70 62 52 50 42 52 54 133 189 192 182 179 175 170 166 164 161 159 159 162 162 161 158 154 151 148 148 151 154 150 142 139 136 134 125 121 116 109 106 101 88 83 78 76 79 84 80 84 85 85 89 93 81 77 81 96 106 104 96 98 103 105 96 87 92 94 89 80 70 53 22 3 7 6 4 63 57 53 58 64 54 48 73 81 67 85 95 77 71 81 76 74 73 59 54 53 53 51 52 75 152 186 183 179 175 169 164 160 158 156 156 159 160 156 152 150 148 147 148 150 151 145 141 138 135 126 118 114 111 104 96 87 80 78 77 78 78 83 85 86 86 92 94 87 79 84 92 103 106 102 103 108 108 102 94 95 96 97 97 89 71 55 38 15 8 9 5 64 56 47 52 61 56 50 72 87 71 84 99 83 66 78 80 78 75 62 54 54 57 59 64 56 87 170 185 179 174 167 160 156 154 151 152 156 157 154 152 150 149 147 149 150 147 137 137 137 131 119 109 103 94 86 77 73 71 74 80 82 83 83 84 93 96 97 85 76 85 99 102 105 104 104 109 112 109 102 98 98 97 97 101 95 79 60 46 21 5 9 4 64 53 48 45 60 54 52 72 87 80 81 90 79 69 83 78 77 74 63 58 57 57 64 61 56 39 109 163 177 173 163 158 155 153 152 152 153 151 150 152 150 149 147 149 147 143 136 134 128 116 104 90 82 75 68 72 77 82 84 81 82 88 87 91 96 99 88 75 82 100 106 107 106 104 109 112 106 105 104 104 104 104 107 106 100 84 61 46 24 5 8 4 61 51 52 49 58 59 57 66 83 80 76 88 75 68 84 77 79 72 65 64 63 62 64 60 59 46 58 106 154 169 165 157 160 154 152 153 152 149 147 148 150 149 146 147 143 136 134 126 108 88 77 74 75 71 75 82 85 84 84 82 86 91 94 100 96 89 83 87 103 109 108 111 111 110 109 108 105 106 105 104 104 106 110 115 111 88 61 56 37 11 7 7 57 44 53 54 62 66 61 78 98 87 84 91 83 87 88 80 81 71 65 70 69 64 63 59 63 57 50 54 86 135 163 155 155 154 149 149 154 153 149 147 149 146 141 141 140 133 126 109 90 78 78 78 79 79 80 85 87 87 84 90 97 96 93 95 89 82 88 107 112 107 110 112 109 106 107 107 108 104 102 101 107 113 115 112 95 68 61 58 40 14 7 17 57 44 55 53 68 72 68 80 95 95 99 94 81 85 84 80 80 71 64 71 69 68 61 61 65 64 52 40 35 61 106 156 168 152 152 151 154 151 149 150 147 145 139 139 141 142 136 121 101 87 82 79 83 84 86 88 90 87 88 95 94 95 95 92 89 96 111 116 110 106 108 109 104 107 114 111 104 101 104 109 112 113 114 108 81 70 65 49 47 22 5 13 45 45 57 56 71 71 76 82 88 95 99 93 83 73 75 79 75 71 71 75 66 68 68 68 68 62 54 48 44 37 58 164 200 178 170 164 160 153 151 150 151 154 156 162 162 153 142 133 118 99 86 85 94 88 85 86 89 93 96 99 99 99 95 91 98 110 114 108 100 101 108 107 105 108 110 108 105 107 105 104 104 101 96 84 70 61 58 61 59 38 10 10