P2
# Generated by OpenCV 4.2.0
92 112
255
59 58 60 69 93 70 34 33 35 37 44 44 36 41 46 59 92 53 17 34 52 41 35 32 31 38 50 58 57 71 71 64 66 63 83 102 109 134 136 129 111 108 116 94 101 103 96 103 102 108 99 84 65 74 87 84 82 65 70 76 86 83 102 79 76 99 88 82 112 141 128 106 96 96 89 70 50 48 46 37 32 27 64 84 89 89 89 90 90 87 83 78 60 58 62 87 89 45 24 21 44 45 45 48 41 54 76 67 50 60 65 46 27 20 34 33 31 32 42 53 49 47 58 83 73 68 72 85 96 113 129 129 107 136 129 122 113 101 112 108 119 103 103 86 85 86 97 94 83 80 74 79 82 81 97 81 89 89 81 94 127 146 131 107 103 93 82 67 48 30 37 33 35 25 42 77 89 89 88 87 92 86 82 77 58 63 79 92 54 21 29 45 46 37 30 61 39 63 54 70 78 44 24 12 10 5 4 6 13 24 35 35 49 73 80 68 78 93 91 115 128 142 158 171 146 133 124 143 138 128 132 114 123 127 118 114 120 110 114 104 91 99 87 90 90 96 104 90 95 85 94 104 118 117 94 92 86 93 83 69 54 35 25 23 26 29 33 55 84 87 87 91 90 85 81 79 62 65 80 60 26 32 53 47 29 34 37 62 51 50 72 77 29 18 7 11 14 22 26 31 37 44 55 62 70 70 111 116 89 104 128 132 151 173 182 197 184 178 153 152 159 160 156 142 146 140 150 143 147 139 131 132 120 128 119 118 113 118 112 106 106 98 106 112 123 132 130 106 87 73 78 55 47 37 27 20 17 20 28 34 74 88 88 90 89 83 81 80 64 70 68 38 39 55 39 23 31 39 34 52 43 89 83 32 25 6 7 13 21 22 30 53 73 76 89 93 103 110 109 123 133 138 144 170 183 195 208 216 207 200 197 184 190 187 171 157 161 169 161 163 166 158 157 163 159 158 159 152 141 137 132 123 120 115 118 117 114 118 108 111 94 80 63 48 39 33 26 18 17 16 22 29 54 80 89 88 87 83 81 77 69 69 45 38 49 40 26 37 43 35 42 38 74 93 37 31 4 12 14 20 25 48 66 83 100 111 120 133 125 143 138 154 160 167 180 186 197 207 222 224 219 215 210 205 201 195 181 172 177 172 180 185 187 185 193 187 193 191 197 182 169 159 155 141 141 128 126 120 108 110 111 96 81 61 60 44 41 35 28 19 14 11 18 25 31 60 82 85 88 84 79 77 71 58 43 44 36 42 47 33 31 38 36 36 95 50 22 12 17 29 34 35 47 65 82 108 118 130 141 152 154 161 172 177 180 185 195 206 213 218 223 225 224 224 219 219 218 205 199 197 197 199 202 201 200 207 213 212 215 212 212 203 189 181 175 170 165 151 138 126 114 111 107 89 65 52 42 42 36 34 28 21 15 16 15 20 21 42 76 89 86 83 77 73 68 45 40 36 43 54 44 31 48 39 29 75 48 30 13 24 36 43 57 78 85 107 134 145 147 157 163 168 170 176 187 202 204 203 210 217 220 223 225 227 226 226 224 225 222 217 211 208 211 214 216 215 218 222 223 225 224 225 224 217 204 197 195 188 179 170 153 133 115 102 99 92 82 63 43 39 32 28 26 24 18 17 12 13 16 18 52 82 91 88 76 73 57 39 39 47 56 47 31 43 24 23 47 75 22 21 18 41 58 65 67 75 107 140 157 160 166 176 182 186 191 198 201 205 216 219 222 226 225 225 226 225 227 226 226 226 226 224 224 220 217 218 220 223 225 225 225 228 226 226 226 223 220 217 210 204 196 189 171 149 141 127 120 108 88 67 50 37 31 30 25 21 16 17 13 14 17 16 36 68 80 78 73 66 44 44 40 47 37 35 34 26 16 23 67 41 28 24 44 66 70 63 64 93 126 151 169 179 183 187 198 202 203 206 214 216 222 226 225 227 224 224 226 226 227 227 228 227 225 225 226 225 225 226 226 226 226 228 228 229 228 226 227 225 222 221 217 217 213 197 182 169 155 136 123 109 96 78 58 40 28 23 24 23 15 17 15 13 13 15 19 49 72 75 70 65 54 45 48 33 28 45 29 17 12 41 50 34 33 53 75 85 72 61 75 114 153 179 187 191 192 198 207 213 218 218 221 223 225 222 226 227 227 226 227 227 228 227 229 229 226 227 227 227 228 229 229 229 229 227 225 226 228 225 225 226 224 223 223 216 217 210 191 183 172 158 144 129 106 86 73 52 36 27 23 22 17 19 19 15 11 10 12 33 58 75 66 59 51 48 30 37 42 28 5 10 17 52 43 42 49 79 78 60 59 83 113 148 171 186 190 196 201 205 209 215 222 222 222 224 226 226 226 227 227 227 227 227 227 228 229 229 229 229 229 229 229 229 229 229 229 227 226 226 228 228 227 226 226 224 222 218 218 213 202 195 183 172 160 139 120 99 76 63 43 28 25 28 17 16 20 19 11 10 12 19 43 63 63 55 52 45 30 54 29 6 11 7 31 53 39 57 88 72 47 66 79 104 143 173 182 190 192 194 200 210 217 218 220 222 223 225 224 225 227 227 228 227 228 228 228 228 227 228 228 228 228 228 228 228 228 228 228 228 226 225 228 226 226 227 225 224 221 219 218 214 209 204 192 182 173 155 135 112 91 80 63 35 25 28 22 14 16 22 20 12 8 16 31 54 64 57 49 36 64 22 5 10 6 19 36 47 44 49 81 47 54 84 117 143 168 180 184 193 195 200 208 213 217 218 220 222 224 224 226 226 227 228 228 227 228 229 228 228 227 228 228 228 228 226 227 228 228 228 228 227 228 228 226 226 224 226 225 223 221 219 216 215 215 212 200 193 178 165 150 129 111 92 81 60 25 25 20 13 10 11 20 13 13 23 29 43 66 68 46 50 18 8 10 7 13 22 30 52 44 65 67 50 69 109 131 157 174 181 186 198 199 204 208 213 218 221 223 225 228 227 226 228 228 227 227 228 228 229 229 229 227 228 228 227 228 228 228 228 227 227 228 227 229 228 226 228 227 226 227 225 222 221 219 218 215 214 206 198 185 172 163 146 124 105 86 85 43 28 21 20 12 16 27 20 13 21 24 27 58 74 41 11 12 13 7 10 22 28 27 51 43 60 51 51 87 115 144 163 173 186 195 202 202 208 211 215 218 221 223 224 228 227 228 228 227 228 228 228 229 230 230 229 229 228 230 230 229 230 228 228 228 228 227 227 227 229 228 228 227 227 225 223 222 220 218 217 216 212 210 200 192 179 168 154 134 117 98 89 69 37 23 16 10 11 19 20 11 13 16 21 43 72 7 10 14 4 10 14 32 25 19 48 47 47 43 64 86 129 148 168 180 194 200 201 202 208 212 215 219 220 223 224 226 227 229 227 229 229 229 229 229 230 230 230 228 228 228 227 228 229 230 229 228 230 229 228 229 229 228 228 228 226 225 223 222 219 219 217 212 211 208 204 196 189 173 165 146 126 113 75 70 50 28 15 16 10 7 12 14 9 11 22 27 65 12 10 6 8 8 23 31 17 17 42 41 37 40 58 105 133 156 175 189 196 197 202 204 211 214 217 219 221 221 224 226 227 229 228 228 230 230 230 230 229 231 230 229 229 226 227 229 229 229 231 229 230 229 231 231 230 228 227 228 227 225 225 223 221 219 217 214 210 209 206 201 196 182 168 149 138 121 84 59 63 39 20 11 9 10 9 11 11 10 15 22 54 11 9 6 9 19 30 22 13 14 32 36 35 44 70 112 140 167 179 193 197 196 202 204 210 215 217 217 219 222 222 225 227 229 227 231 229 229 230 230 230 230 230 230 229 229 229 229 230 229 227 229 230 230 228 229 228 228 228 228 226 224 223 222 222 220 217 213 209 207 206 201 199 194 172 156 148 127 100 60 56 46 30 11 14 15 11 7 10 13 8 11 32 8 5 7 11 24 31 15 7 21 28 31 31 46 82 120 152 176 184 193 196 195 202 205 210 213 216 219 220 222 223 226 228 228 229 230 231 230 230 230 228 229 229 228 227 230 230 230 229 227 228 227 228 228 230 228 229 228 228 226 226 225 225 222 220 219 214 213 209 206 205 202 201 192 188 161 138 118 101 73 55 41 39 20 15 19 18 9 4 7 13 10 15 5 8 14 21 33 24 11 17 27 23 27 41 50 87 122 153 177 188 192 195 197 203 204 208 211 215 218 219 221 223 225 226 228 229 229 229 230 230 229 229 228 229 228 228 228 228 228 226 227 227 228 226 227 227 228 229 229 228 227 226 224 225 222 219 217 213 212 208 206 203 203 200 197 195 173 148 118 98 79 60 41 36 27 19 14 22 25 15 7 12 16 9 6 11 22 31 30 19 13 20 19 11 31 46 48 93 130 161 180 193 194 196 199 202 206 205 210 215 218 218 221 221 224 226 227 229 229 229 229 228 228 228 229 228 227 227 228 229 230 228 227 229 229 229 230 227 229 229 228 229 228 226 226 224 220 218 216 212 209 207 206 205 203 198 194 192 181 162 132 105 79 67 46 33 32 23 13 14 23 22 12 11 13 10 19 25 28 26 15 10 9 17 25 14 32 43 54 99 134 167 179 188 193 195 197 200 204 205 211 216 218 218 219 222 223 223 225 227 228 229 228 229 229 228 228 227 227 227 227 228 229 228 227 227 228 227 229 229 229 228 227 227 226 225 224 223 221 218 217 212 208 207 207 205 205 199 195 193 186 173 146 114 87 67 52 30 26 18 11 15 24 22 11 12 12 9 26 31 23 12 4 4 4 5 9 31 30 38 56 99 144 174 181 191 193 195 198 200 200 205 210 216 215 218 219 221 223 222 224 226 228 227 227 229 229 229 230 229 227 228 227 229 229 228 228 227 228 228 227 229 228 228 227 225 225 224 223 222 222 219 217 212 210 208 208 206 200 197 193 188 183 180 158 124 90 73 63 40 25 13 10 8 11 15 13 8 11 8 36 16 9 4 3 3 2 1 4 50 32 33 57 110 161 174 182 187 190 195 198 199 201 202 203 210 212 215 218 221 223 222 224 226 226 227 228 227 228 227 227 227 228 226 226 227 226 226 227 228 227 229 228 227 228 225 225 226 223 222 221 221 217 215 214 213 210 208 208 204 202 197 191 189 184 181 165 139 99 73 65 51 29 14 10 12 3 9 14 15 11 13 20 7 8 3 3 2 3 3 3 31 30 37 65 120 158 176 183 189 191 195 193 197 197 198 201 209 213 217 219 221 221 223 224 226 227 227 227 226 226 227 226 226 227 228 226 227 225 225 227 227 228 228 228 225 226 226 225 225 224 221 221 219 217 214 213 212 209 207 206 202 200 196 193 189 186 182 167 143 111 87 62 50 27 24 20 7 16 5 7 9 10 10 8 7 7 4 3 4 3 3 12 30 34 43 78 123 149 175 184 191 191 191 192 196 198 200 206 210 213 215 219 222 224 224 225 226 227 224 225 225 227 226 227 226 226 228 226 225 224 223 225 225 226 227 226 225 226 225 225 225 224 222 221 221 218 216 216 213 210 207 206 201 197 195 192 189 184 179 172 153 121 91 68 53 32 24 27 11 15 11 8 12 9 10 11 15 18 19 13 10 5 4 12 24 22 38 83 122 156 176 188 190 192 194 197 201 204 203 205 206 212 216 218 220 219 223 224 226 226 224 224 224 225 226 225 225 223 224 224 223 221 223 224 224 225 226 227 224 225 225 223 224 224 222 221 219 218 216 215 212 212 206 207 201 196 194 189 187 185 180 166 157 133 100 75 57 40 31 18 20 19 13 9 5 7 15 9 17 18 20 14 14 12 5 14 20 26 56 89 133 158 172 189 194 194 194 195 200 201 203 203 207 212 216 218 219 221 221 221 221 222 225 225 225 225 225 223 222 222 224 224 222 223 225 225 224 226 225 224 224 225 224 224 224 224 223 222 221 218 216 217 215 214 209 207 202 198 195 190 187 183 181 174 160 139 109 78 55 46 28 30 20 9 12 13 9 11 19 4 9 8 5 9 11 13 7 12 18 28 59 97 138 159 175 185 190 192 194 195 200 202 201 204 206 209 214 217 219 223 222 223 223 222 224 225 225 225 224 224 223 224 223 223 223 222 224 224 224 225 224 222 223 224 223 222 222 223 223 222 221 220 217 216 215 212 210 209 202 198 195 190 186 182 180 176 163 144 114 82 56 47 31 24 20 11 7 9 14 19 21 7 7 5 4 6 9 14 12 16 19 31 56 98 138 158 175 184 190 193 195 197 198 201 202 202 205 208 212 215 217 221 222 222 225 225 224 224 223 223 223 225 224 224 223 223 222 223 222 223 223 222 222 224 221 222 223 221 223 224 224 223 222 220 219 218 215 213 209 209 201 198 194 191 186 180 181 176 166 153 119 85 57 46 34 25 20 16 12 7 10 23 22 8 10 9 5 7 10 11 13 15 24 37 69 109 142 158 172 181 188 190 192 193 195 198 200 201 204 207 210 215 217 219 222 223 223 223 224 223 223 223 223 223 223 223 222 221 222 221 220 223 222 223 222 224 221 222 222 222 224 224 223 223 221 219 218 219 216 214 208 205 203 198 195 195 189 179 177 174 169 159 130 84 52 44 35 25 17 19 18 12 11 22 22 9 9 13 10 16 22 11 9 18 25 40 79 122 150 159 170 173 184 191 193 197 195 199 202 205 205 206 210 216 218 220 220 222 223 223 223 222 223 223 223 223 224 220 220 221 222 223 222 222 222 222 223 222 224 222 222 224 223 222 224 221 220 222 216 217 214 213 209 207 204 203 198 197 193 184 175 172 168 160 137 92 56 43 37 21 14 16 17 17 18 14 16 13 9 10 9 6 9 10 15 23 30 55 97 140 155 158 165 171 182 191 195 200 198 198 201 203 206 208 207 211 215 217 217 220 221 222 223 222 222 222 223 221 221 219 220 220 222 222 222 221 219 220 222 221 220 220 220 222 224 223 223 221 220 219 217 219 214 213 209 208 209 206 202 198 194 184 175 171 166 163 145 105 62 45 34 23 16 16 23 25 22 13 9 14 17 13 12 13 10 12 17 26 42 68 121 158 160 159 162 170 183 191 196 201 198 199 200 202 204 206 205 209 213 215 215 216 222 223 222 222 220 219 219 220 222 220 220 220 220 219 221 220 219 218 220 220 222 219 218 220 222 223 223 222 219 215 216 217 215 214 211 208 207 205 203 199 195 184 174 171 164 164 149 128 79 46 30 24 13 14 24 17 13 8 5 23 25 18 18 17 9 13 20 34 49 85 143 169 166 159 157 166 178 190 197 200 196 201 201 203 201 201 203 206 207 210 211 215 219 219 217 218 219 216 216 216 219 218 216 218 217 219 219 217 216 214 215 215 216 216 215 216 218 220 218 216 216 215 215 211 213 216 214 212 210 207 207 201 195 186 171 170 166 164 159 143 97 55 31 23 13 16 17 14 17 14 7 23 17 18 18 16 8 15 34 41 56 112 166 170 170 162 158 164 178 187 193 199 197 198 201 202 201 202 203 205 204 205 209 214 215 213 215 214 216 213 214 215 214 213 212 214 214 213 214 215 214 211 211 211 210 211 211 213 213 217 212 212 212 214 213 209 208 210 212 209 208 208 210 199 199 186 171 169 169 164 163 156 120 77 39 20 14 20 23 27 20 16 8 30 20 16 10 9 10 14 35 45 83 142 173 170 172 165 161 164 175 185 193 200 203 202 201 204 202 200 203 201 199 203 203 204 211 212 213 210 209 212 213 208 207 208 212 210 211 211 211 210 208 208 210 208 208 209 205 204 209 210 211 209 201 200 199 193 195 192 190 191 199 202 200 198 201 189 176 167 171 173 167 165 140 99 50 26 12 10 16 22 14 14 17 22 18 15 9 8 14 24 39 64 117 165 177 177 172 168 161 163 175 188 201 198 200 197 194 193 191 190 185 180 184 187 184 187 195 195 198 199 203 206 204 206 205 207 208 208 210 209 208 209 206 205 206 203 200 198 190 187 186 175 172 170 165 162 151 139 137 127 123 127 136 143 146 157 172 191 177 170 174 171 170 170 161 122 57 23 17 13 13 9 9 29 55 21 20 18 12 14 18 25 41 83 146 168 173 178 172 174 163 166 178 181 176 168 164 163 152 140 135 134 128 127 136 135 131 129 132 136 156 173 185 194 196 201 201 200 205 206 205 204 204 202 200 201 198 191 180 159 136 121 116 107 99 91 85 72 68 68 64 71 70 74 84 93 102 106 119 143 172 173 171 173 176 173 172 146 81 26 21 13 9 11 24 110 176 13 12 12 10 19 18 25 53 124 161 173 175 177 176 173 165 167 166 141 122 114 107 98 90 73 68 75 76 75 71 64 61 67 83 85 102 127 144 160 169 190 200 197 200 203 201 201 200 199 195 194 186 173 153 126 101 82 81 63 57 59 60 59 63 64 65 69 68 76 99 112 113 111 114 106 107 140 169 178 177 173 175 168 114 30 17 8 7 15 22 134 183 12 10 9 17 19 15 27 66 140 167 175 173 176 178 173 160 140 137 122 117 103 93 89 79 68 62 58 54 52 44 38 42 42 57 63 84 96 103 129 155 168 193 194 198 198 198 197 198 195 193 188 182 157 131 108 85 68 60 45 47 41 44 44 52 53 58 59 70 87 104 118 116 119 123 119 98 100 133 174 173 177 179 172 144 50 17 7 5 11 29 135 173 20 12 13 17 12 15 30 88 154 171 175 175 178 181 154 119 97 103 101 98 93 102 101 86 70 57 49 40 40 40 45 44 44 48 58 75 87 93 114 141 150 181 192 197 197 199 195 194 192 187 180 170 143 115 95 78 65 61 53 54 43 46 48 53 65 76 97 109 119 130 135 140 131 123 124 117 103 109 159 176 177 178 177 159 72 28 16 18 15 30 130 144 22 18 13 10 9 17 32 107 161 170 174 173 174 172 124 109 114 116 117 112 105 115 114 104 95 83 72 66 62 48 49 55 60 61 72 76 87 97 109 123 141 173 185 195 199 199 197 194 187 182 171 155 136 120 102 89 78 67 64 64 64 78 98 121 137 151 158 162 168 174 176 169 150 141 139 135 121 112 146 177 180 180 179 169 89 32 19 21 22 46 80 40 26 20 12 6 7 16 34 118 163 172 177 175 173 159 124 116 112 122 140 150 150 151 146 146 144 141 139 130 124 97 81 72 70 65 76 77 86 100 111 123 141 168 182 193 191 191 192 190 183 175 164 146 128 112 92 80 70 66 78 98 122 145 156 166 166 167 174 177 178 181 176 176 173 166 157 151 153 146 139 173 182 182 180 170 101 43 24 26 27 62 63 38 32 33 19 11 10 17 38 125 165 177 179 177 174 153 137 128 131 143 153 157 160 169 170 168 168 167 165 166 154 159 147 134 115 94 78 78 75 81 95 112 138 159 180 187 188 191 190 191 182 173 156 144 119 88 68 65 72 85 102 109 120 118 127 128 139 140 144 154 157 154 167 173 167 165 164 159 157 155 156 173 180 180 174 170 113 53 43 39 49 109 118 55 37 40 31 15 10 21 42 130 166 176 177 178 172 151 148 146 150 163 165 164 170 169 169 168 172 169 160 155 147 143 134 126 129 128 117 107 96 83 90 96 126 156 179 187 202 205 199 191 180 167 151 137 104 81 71 74 73 55 36 32 45 88 93 68 52 49 62 66 81 119 140 155 161 162 156 146 147 153 165 173 176 178 179 175 124 57 46 45 110 160 167 97 39 41 39 25 19 25 47 133 167 176 177 177 171 157 153 154 153 156 160 163 160 161 156 144 135 110 82 62 56 52 48 37 39 53 83 111 119 102 95 96 112 148 181 192 199 205 203 197 183 171 158 134 100 88 89 63 29 20 21 28 38 30 27 34 42 53 55 61 57 41 58 109 137 162 162 162 159 165 170 177 174 177 178 174 132 69 52 108 171 183 180 144 39 59 57 41 27 35 53 134 168 177 179 179 175 160 155 155 153 150 156 156 151 121 91 50 38 41 41 49 48 52 53 72 97 84 61 56 106 125 120 126 134 146 177 197 205 212 212 206 191 177 157 130 104 98 79 41 19 18 6 7 15 21 25 15 29 24 15 28 30 42 33 26 71 132 157 162 163 172 177 178 179 180 177 174 135 79 84 171 187 193 187 167 64 87 74 57 36 41 57 138 168 180 181 183 177 165 161 159 153 152 147 146 110 55 16 17 24 18 6 53 11 52 57 63 54 57 87 109 92 101 128 137 152 163 181 198 211 219 219 213 203 180 154 139 122 116 64 26 33 25 41 7 5 5 36 37 78 55 33 16 13 14 30 57 49 97 135 156 175 178 178 175 179 181 176 175 143 88 109 154 181 191 192 167 96 113 95 69 44 47 64 143 170 179 182 184 180 171 164 174 168 157 150 99 38 19 15 7 4 3 3 6 12 38 130 152 137 112 75 81 110 140 136 147 167 181 181 204 214 223 221 219 211 191 168 150 141 114 43 25 55 64 67 40 20 36 81 90 114 91 66 44 33 49 67 73 77 110 131 159 176 181 186 187 188 184 177 173 145 98 108 141 166 181 189 172 134 146 134 93 60 61 74 144 171 178 183 187 184 176 169 179 178 149 117 57 29 13 8 8 5 5 5 7 20 45 149 176 175 157 132 103 73 109 165 170 181 190 188 203 216 223 222 222 215 195 177 171 165 117 69 74 118 148 161 157 162 159 162 148 151 154 149 131 95 93 123 141 133 161 174 190 199 200 199 193 190 183 177 172 146 107 115 137 157 169 187 171 136 154 155 132 89 73 79 139 168 178 185 187 184 185 184 174 181 153 109 55 26 12 16 43 77 79 66 64 81 111 167 174 161 157 152 145 157 124 158 204 197 194 195 202 218 224 225 223 220 205 189 190 189 186 178 166 173 180 181 185 185 193 191 180 181 181 178 165 151 139 150 174 194 207 213 212 214 209 205 196 190 180 176 172 144 112 122 132 149 166 187 164 144 167 155 137 96 81 81 135 166 176 184 188 190 188 187 188 179 176 154 132 110 80 63 92 132 153 164 172 168 164 179 182 177 180 179 185 193 198 201 207 206 196 197 208 216 224 226 223 220 211 197 201 204 205 205 189 182 176 170 169 168 174 168 169 165 170 168 172 173 179 181 187 190 203 212 213 213 209 203 196 191 182 174 166 146 123 130 140 149 163 186 155 154 176 159 130 102 87 84 138 159 174 181 189 192 194 192 190 189 192 183 181 168 133 120 153 167 178 178 180 167 185 192 190 191 184 181 189 193 202 206 214 205 200 199 206 218 225 226 225 223 213 201 206 209 208 205 194 187 175 158 155 151 151 161 169 172 177 185 191 187 194 200 205 209 209 211 211 210 207 204 199 194 179 173 162 147 145 147 151 153 173 183 144 166 181 163 133 115 101 90 132 157 170 177 186 194 197 198 200 199 202 199 201 195 178 169 170 167 175 173 174 175 172 170 169 172 167 171 185 187 203 214 213 204 205 204 208 216 224 225 225 221 216 205 208 215 213 210 213 208 197 185 184 179 177 178 179 179 183 184 186 191 202 210 214 215 214 214 212 208 204 201 198 194 182 173 161 149 174 174 159 169 186 187 151 167 182 178 151 138 127 112 122 155 165 176 186 193 197 198 202 199 203 205 207 205 201 193 182 172 172 165 160 161 157 162 170 171 176 185 195 203 211 215 213 206 204 205 209 216 224 226 226 223 218 212 208 215 217 216 218 216 217 214 212 209 207 204 200 204 203 212 212 215 221 221 222 220 218 215 213 208 204 197 197 192 181 172 158 153 187 177 167 182 195 183 150 152 190 188 171 168 166 149 119 149 162 173 182 189 192 195 200 201 204 207 207 210 209 209 202 191 183 174 171 170 171 180 188 196 204 208 208 215 213 212 210 208 206 206 209 216 223 225 227 223 218 212 208 213 215 219 220 223 222 223 225 225 226 224 224 224 223 224 223 225 225 223 221 222 220 218 214 207 205 198 194 189 180 171 155 159 182 174 186 201 195 184 126 127 194 203 185 179 187 175 123 143 154 164 177 187 193 197 199 199 202 205 208 208 212 208 206 202 201 206 206 208 211 213 217 217 218 218 217 221 217 213 212 210 209 209 206 215 224 226 227 224 218 214 211 214 215 218 219 222 222 224 226 226 227 229 228 227 226 224 225 223 223 224 223 221 219 215 214 210 206 199 193 189 180 165 153 165 181 190 199 197 169 182 100 98 184 209 194 193 204 192 145 137 150 161 174 182 189 193 195 196 199 202 209 210 214 220 220 221 224 222 220 222 224 225 222 223 225 223 224 221 214 210 211 209 206 205 208 216 226 227 226 225 220 215 214 213 216 219 221 223 222 225 227 227 227 228 227 227 224 225 223 224 224 222 223 221 218 216 211 204 199 194 190 185 177 164 156 161 189 192 195 166 168 181 66 70 179 202 201 188 206 198 182 151 141 156 173 179 184 189 194 195 197 201 209 212 218 219 222 224 223 223 224 224 226 225 225 225 226 225 223 219 211 212 213 210 208 204 211 218 225 225 225 224 221 215 213 213 214 218 219 222 223 225 227 227 229 229 230 228 227 223 223 223 224 223 224 221 217 214 210 203 198 194 190 184 174 161 152 159 178 201 197 173 190 159 44 63 180 185 209 203 190 202 190 172 147 153 170 176 182 189 194 197 200 202 207 211 218 219 221 224 225 226 225 225 226 225 227 225 226 226 226 218 214 212 212 210 208 207 215 221 224 224 226 225 222 215 210 210 213 216 218 220 221 223 225 227 228 227 228 227 226 225 225 224 224 224 223 219 216 213 208 204 200 191 187 179 172 161 148 119 115 206 199 191 200 114 25 48 173 179 193 206 203 191 193 177 154 150 168 174 181 187 197 198 201 202 206 213 217 218 221 224 222 224 224 227 228 226 225 226 225 224 223 222 217 213 208 208 208 208 216 221 225 226 228 227 223 217 211 209 208 212 214 216 221 222 225 225 227 227 228 227 226 228 225 224 223 223 223 219 216 213 209 204 198 191 184 176 167 158 146 131 102 140 199 202 184 82 23 61 156 196 182 195 202 194 169 181 166 147 161 170 179 189 195 196 202 204 207 211 218 220 222 223 223 223 224 227 229 227 228 225 224 224 222 217 216 211 204 208 207 213 218 221 224 228 228 229 225 219 211 205 203 203 202 208 213 218 220 223 224 225 226 226 225 225 223 222 221 222 222 221 216 211 210 203 197 191 185 174 161 154 150 118 159 159 191 191 162 43 25 75 121 202 197 193 202 190 146 177 175 150 157 166 178 188 193 195 201 205 208 212 217 219 221 223 223 224 226 228 228 227 228 226 226 224 221 214 208 200 197 200 206 215 219 220 225 228 228 227 223 219 213 203 198 196 193 191 196 206 214 218 221 220 222 222 223 223 221 221 219 220 218 217 215 212 209 201 196 189 179 171 163 153 158 139 87 79 189 189 124 17 28 72 103 188 199 196 197 143 184 146 169 151 152 165 177 188 192 196 203 206 208 213 217 219 221 223 224 226 228 228 228 227 228 227 225 219 209 193 187 186 189 194 202 215 219 221 225 227 226 226 224 219 215 203 200 204 200 186 178 191 200 211 215 217 219 219 221 221 221 221 219 217 216 213 210 207 204 199 196 188 178 170 163 153 177 123 154 157 186 183 90 12 24 70 90 150 191 197 209 47 129 105 157 161 153 159 171 183 191 195 203 203 208 213 216 218 220 222 222 224 223 226 226 223 224 221 217 206 189 170 171 187 197 197 200 212 220 223 224 226 226 226 225 221 214 206 208 213 209 188 169 179 184 195 203 208 211 215 215 217 216 218 215 212 212 212 208 204 199 195 192 183 172 163 159 148 178 145 161 234 182 154 38 11 25 75 91 93 178 190 195 161 151 136 184 179 147 161 168 180 188 197 199 201 206 211 214 217 218 218 219 219 218 220 218 217 216 209 204 188 168 152 168 195 203 203 196 209 221 222 226 227 227 225 222 218 213 204 206 216 210 200 173 173 172 179 193 198 206 210 211 212 212 211 212 208 209 207 201 199 196 191 184 176 163 162 153 150 172 112 62 172 167 85 10 9 18 91 85 61 157 186 196 74 116 154 199 195 142 154 165 177 189 195 197 198 204 208 211 212 213 214 214 215 215 214 212 208 206 203 187 167 153 154 177 199 202 200 194 206 218 221 223 224 222 223 220 217 209 202 200 209 208 199 173 185 180 170 172 183 196 201 202 206 207 205 205 203 204 200 199 197 196 189 175 167 167 152 152 149 157 128 74 89 114 29 9 7 16 94 74 57 110 177 181 97 161 168 207 207 147 148 160 172 181 189 193 195 199 203 206 207 207 208 210 210 207 207 207 201 197 185 168 157 162 166 181 196 195 196 191 199 209 220 219 217 215 215 210 207 195 190 193 191 193 186 172 199 201 184 171 169 181 191 200 198 202 200 200 197 196 193 191 191 189 182 168 163 160 149 151 147 132 86 44 61 46 14 10 6 9 71 72 60 60 146 173 55 56 158 201 199 153 140 153 165 175 185 190 192 194 196 200 200 201 204 204 205 202 199 198 190 182 166 152 166 190 185 181 189 187 188 181 188 194 207 205 205 206 201 193 191 177 175 174 169 170 162 177 201 206 199 182 167 164 176 183 189 192 195 195 193 194 192 187 185 182 175 168 163 154 151 148 134 90 94 104 59 35 21 6 6 5 67 64 61 48 79 155 110 104 143 190 189 154 135 145 159 170 180 184 187 191 192 194 197 196 198 199 200 197 192 191 181 167 149 170 198 213 199 180 172 165 167 163 173 183 197 195 194 196 188 175 165 149 137 127 110 138 172 192 206 210 209 197 179 161 168 170 178 182 187 186 182 181 178 173 171 173 167 163 158 155 154 146 95 49 43 42 20 7 22 5 6 5 61 62 58 55 56 102 105 26 89 165 164 145 132 139 152 164 173 177 181 188 189 191 191 190 191 191 191 191 183 177 164 151 161 195 211 209 214 197 164 115 97 111 137 157 169 169 177 172 158 135 125 91 49 55 114 168 196 210 213 214 211 203 192 169 158 160 167 171 176 176 174 171 168 162 160 162 156 156 152 148 151 154 72 39 99 78 73 4 10 11 6 11 61 59 60 57 58 59 56 67 127 95 105 95 150 134 145 155 163 168 171 176 179 179 182 184 181 178 179 175 170 162 150 152 181 204 211 215 217 203 198 160 101 63 62 119 140 141 140 138 130 117 70 86 130 169 192 201 214 214 216 216 213 208 204 186 155 144 149 156 164 166 166 163 156 150 144 141 140 145 147 147 145 152 64 41 81 27 14 5 3 7 14 9 54 54 57 54 55 74 44 14 51 78 35 34 131 136 138 147 155 161 165 166 168 170 169 172 176 174 175 166 158 148 147 174 194 199 212 215 219 217 212 202 200 178 151 110 108 128 120 113 110 93 144 171 188 192 201 208 212 214 217 217 215 210 203 195 182 151 140 142 150 156 158 158 146 140 133 128 131 135 142 154 154 155 46 53 67 12 36 6 9 4 7 18 53 45 51 57 65 53 47 71 50 90 24 15 134 140 137 141 143 148 149 154 155 162 164 161 164 164 158 155 148 138 167 188 197 198 206 212 213 212 215 211 204 207 201 178 126 95 87 84 111 144 169 178 192 199 202 203 208 205 211 212 212 205 202 191 195 175 149 129 127 141 148 150 140 134 123 118 118 131 145 153 155 148 22 45 88 123 103 13 8 3 4 10 53 45 45 47 66 44 30 51 106 91 24 10 111 143 143 138 133 134 134 137 142 144 147 152 152 153 148 140 143 162 189 195 197 196 200 202 203 204 205 204 205 201 196 188 176 121 86 112 134 146 168 184 192 199 201 202 208 208 209 207 204 203 197 190 184 184 176 147 117 126 136 141 142 139 132 125 126 139 149 153 159 126 14 12 20 31 10 3 6 6 4 6 53 47 40 38 55 45 19 22 62 65 62 17 73 146 147 144 138 128 124 124 126 130 142 147 139 135 134 139 159 185 189 193 193 194 197 200 201 202 201 202 203 199 195 193 179 176 159 149 145 157 178 189 196 201 201 201 202 204 205 203 197 193 188 181 173 173 181 174 141 124 126 141 145 145 151 153 151 153 153 157 153 110 5 5 4 4 2 6 2 6 6 6 51 46 37 35 53 31 9 79 48 80 43 8 24 143 152 155 147 133 130 125 127 138 137 141 136 137 144 165 182 190 191 187 188 191 196 197 200 200 201 202 205 204 205 199 198 201 199 193 187 188 193 196 201 204 198 198 202 204 201 199 192 185 180 171 159 164 167 179 168 146 144 147 148 156 165 170 165 159 158 155 149 79 2 2 2 1 0 2 1 4 6 11 48 44 40 34 48 33 6 63 55 57 31 6 8 123 149 160 160 154 144 145 151 149 143 135 127 138 161 175 187 183 176 180 180 185 188 192 196 197 198 204 207 206 212 216 217 215 214 219 219 214 211 207 204 204 202 203 202 193 192 188 182 175 171 163 148 149 159 172 174 168 164 161 161 172 173 175 170 165 160 156 151 47 1 0 0 1 1 0 1 2 4 15 46 46 38 31 42 15 14 42 40 34 27 14 7 103 151 158 167 169 162 158 165 163 149 132 134 157 172 180 188 180 172 173 174 177 181 185 195 191 191 198 198 192 203 205 209 213 213 214 212 202 192 179 167 163 170 173 173 174 180 175 167 167 163 149 136 141 150 173 178 182 184 174 171 174 175 176 173 167 159 151 146 18 2 1 1 1 1 2 1 1 2 10 50 52 33 30 32 18 22 40 47 44 24 5 13 57 148 156 169 171 176 168 172 176 168 158 163 180 184 183 180 173 161 161 162 166 174 180 182 182 164 145 138 123 117 125 142 165 174 181 163 140 118 101 94 95 96 101 106 110 114 118 122 131 136 129 121 124 144 172 178 189 191 179 175 176 175 174 171 167 158 155 130 9 1 1 0 1 1 1 1 1 3 5 54 69 35 31 26 13 42 53 65 40 15 8 11 15 135 151 170 181 185 179 179 184 188 188 185 187 185 185 177 155 139 140 150 156 149 137 122 102 87 94 87 87 96 96 101 97 102 96 95 102 112 109 109 112 118 114 98 86 72 67 66 66 73 78 86 96 139 179 182 197 194 183 179 174 171 170 168 164 158 151 107 6 0 0 1 1 1 0 0 1 3 3 54 75 41 31 25 16 49 60 65 27 12 9 6 6 101 154 167 182 192 189 179 182 196 200 195 195 189 183 167 144 128 119 114 106 85 69 74 88 91 91 101 121 125 103 89 94 111 90 94 102 95 98 107 101 100 96 85 75 65 66 59 50 41 47 78 129 163 174 187 199 188 180 178 173 172 171 165 157 155 153 68 4 0 0 0 1 0 0 0 0 1 4 63 74 44 30 22 31 59 56 54 18 11 6 15 8 64 149 158 181 194 194 182 184 200 205 198 197 195 184 166 138 102 66 35 36 57 80 85 83 87 84 82 82 81 84 93 93 103 84 85 91 71 80 78 70 63 57 50 54 57 68 86 102 114 159 154 164 174 183 189 193 185 177 172 169 168 168 162 157 159 143 29 4 1 0 0 1 0 0 1 2 1 4 74 62 44 39 21 55 63 47 43 19 14 9 22 12 30 127 151 170 191 192 185 182 192 202 193 196 198 187 177 160 127 106 121 103 75 74 68 68 69 58 53 49 49 56 52 55 51 52 49 49 56 65 68 77 96 117 120 111 107 96 96 133 167 188 188 184 190 194 192 187 177 173 166 163 159 159 158 157 159 119 8 2 0 0 0 0 0 0 1 1 0 1 57 54 42 43 40 64 46 54 33 19 17 16 26 10 16 98 146 158 181 189 188 180 185 193 192 194 199 193 186 175 184 195 194 177 134 94 74 70 73 94 113 112 127 143 149 145 135 130 130 133 137 145 149 152 149 129 105 95 78 109 133 171 186 201 204 202 200 190 188 183 170 167 163 162 160 160 157 155 158 68 4 1 0 0 0 1 0 1 1 1 2 1 43 68 29 48 67 42 48 46 27 15 17 30 33 6 17 66 139 151 169 186 188 181 181 188 190 191 196 191 191 194 210 209 204 187 183 141 114 91 78 84 91 96 118 134 122 115 120 121 117 116 114 108 106 112 109 99 94 84 115 137 162 187 196 206 203 204 201 187 186 180 165 160 158 156 155 155 155 155 138 30 3 0 0 0 0 1 0 0 0 0 1 3 62 65 46 69 57 27 62 31 30 15 18 35 33 9 18 55 110 146 162 176 185 182 178 182 184 185 192 189 189 199 204 212 209 199 192 184 168 141 138 122 106 101 102 106 113 111 114 115 120 124 122 112 108 101 99 104 120 139 161 171 184 193 200 203 205 207 197 189 186 171 161 157 156 155 152 150 158 155 100 9 0 0 0 0 0 0 0 0 0 1 1 4 72 39 69 52 30 35 41 28 22 15 17 36 10 8 12 56 62 143 155 167 178 183 178 179 179 182 187 189 189 203 200 202 204 205 196 188 188 182 170 163 163 157 141 132 134 131 126 128 124 123 126 120 122 127 136 150 161 174 184 185 190 197 204 203 206 202 192 187 182 161 155 156 157 154 154 149 156 147 45 4 0 0 0 0 0 0 0 0 0 1 2 6 43 62 53 28 35 44 32 34 22 14 26 36 4 8 18 42 34 116 152 158 169 178 176 174 174 179 181 190 191 199 202 201 203 206 203 191 186 187 192 189 182 173 159 152 152 141 135 135 139 136 135 140 150 165 171 180 183 182 181 181 194 197 204 204 207 199 186 183 168 152 151 154 156 156 154 155 151 106 13 3 0 0 0 0 0 0 0 0 0 1 3 7 53 71 40 28 38 43 34 27 11 13 37 29 5 15 14 31 28 73 145 152 162 172 174 172 172 173 173 185 190 189 199 201 200 202 201 192 187 185 186 187 188 191 186 177 175 164 160 156 160 157 152 154 162 173 172 177 174 172 178 186 196 200 204 207 203 189 182 180 163 152 153 157 156 157 152 152 137 48 5 1 0 0 0 0 0 0 0 0 0 1 3 9 76 52 35 40 45 43 38 18 10 25 42 12 7 11 16 27 22 39 122 148 158 165 168 169 167 165 167 181 189 185 189 198 199 200 200 194 191 188 183 181 177 179 178 177 172 171 169 165 162 161 162 161 165 167 162 164 167 172 184 191 198 200 202 201 191 182 180 169 154 150 155 159 156 158 151 146 92 9 7 1 0 0 0 0 0 0 0 0 0 1 4 18 44 36 48 45 40 40 27 12 12 31 35 3 11 14 11 24 31 22 90 143 154 163 167 168 162 163 165 176 190 190 179 187 195 199 199 200 193 190 186 180 175 172 167 164 163 165 163 164 160 163 165 159 161 155 155 160 171 180 186 190 197 199 197 192 183 179 176 158 149 154 156 160 157 152 149 118 29 7 2 0 0 0 0 0 0 0 0 0 0 2 5 24 44 39 50 40 35 29 21 11 19 32 17 4 8 14 11 21 35 22 47 119 151 160 159 165 162 162 163 168 180 193 183 177 189 196 199 198 197 193 188 185 183 178 173 168 165 166 164 158 154 158 161 160 160 161 165 171 180 184 191 194 197 196 191 187 183 176 165 154 155 157 157 153 153 142 132 57 6 4 3 0 0 0 0 0 0 0 0 0 2 2 5 27 51 41 51 33 29 25 16 16 32 34 10 13 11 15 15 28 41 22 23 77 136 150 159 162 164 165 163 162 167 188 194 184 183 190 197 195 195 194 192 190 188 184 179 173 172 168 168 160 154 159 163 168 168 173 179 184 188 194 196 194 193 187 180 178 176 166 152 151 157 156 162 153 147 137 88 13 7 1 0 0 0 0 0 0 0 0 0 0 0 2 9 27 73 54 34 20 24 18 17 22 34 20 7 5 11 11 13 26 35 17 15 51 129 142 154 161 163 165 165 162 161 176 193 195 183 187 191 193 195 197 197 195 193 191 188 185 183 178 176 174 173 175 181 185 188 193 195 197 201 199 198 192 188 182 178 178 171 160 153 155 156 157 155 150 141 102 26 4 5 0 1 0 0 0 0 0 0 0 0 0 0 1 12 32 100 64 29 25 14 14 17 23 26 6 6 2 14 9 10 27 35 19 12 38 131 138 145 156 157 161 165 164 162 163 179 191 188 181 186 191 194 198 198 197 200 199 201 201 200 198 196 197 204 203 205 208 209 206 204 203 199 200 197 191 189 184 181 173 161 154 152 155 154 151 152 140 124 34 7 3 1 1 0 0 0 0 0 0 0 0 0 0 0 2 15 39 97 96 53 23 20 20 15 21 5 4 2 6 12 8 9 20 29 15 7 34 126 156 137 144 156 160 165 162 163 158 162 176 190 185 184 187 194 198 200 204 203 204 204 205 207 206 209 211 212 212 214 211 210 211 209 205 204 202 198 190 191 182 175 166 159 155 156 155 149 150 142 123 61 8 4 1 0 0 0 0 0 0 0 0 0 0 0 0 0 4 19 41 94 89 71 45 19 18 24 14 5 3 2 10 16 13 11 22 28 17 7 26 129 161 151 134 147 152 159 161 164 160 156 163 175 184 184 187 193 196 200 203 204 207 209 208 210 211 213 214 213 212 211 212 214 213 211 208 204 199 197 194 188 178 168 161 156 155 152 144 141 134 126 107 23 6 2 2 1 0 0 0 0 0 1 1 0 0 0 0 1 5 27 40 67 88 71 65 45 18 22 10 3 1 1 8 16 13 12 23 25 17 8 20 131 163 163 149 134 145 154 157 160 163 160 161 163 175 186 186 191 196 201 205 206 209 212 210 213 214 213 214 215 214 213 211 211 210 208 205 200 197 197 192 184 173 165 158 153 151 140 136 130 121 124 97 21 5 1 2 1 1 0 1 0 0 0 1 1 1 1 1 3 9 34 39 45 65 80 60 52 41 14 14 3 2 2 10 16 12 11 21 23 17 7 19 131 168 173 169 145 136 142 152 156 158 161 159 166 174 181 185 189 191 193 198 204 207 210 211 214 215 213 214 215 215 214 212 210 211 206 200 195 193 190 186 174 165 159 153 145 139 131 123 123 128 123 88 20 5 2 2 1 0 0 0 0 0 3 5 3 2 2 2 6 14 36 37 59 51 64 57 57 48 24 14 6 2 3 13 16 10 11 19 22 16 5 26 127 169 171 173 160 144 135 143 150 151 153 155 161 169 175 181 187 188 189 193 198 203 206 208 211 211 211 211 209 209 207 206 204 206 201 197 194 188 183 176 165 159 150 144 138 130 125 118 126 136 126 87 19 5 2 2 2 3 2 2 1 2 5 4 6 5 6 8 14 21 32 25 51 43 71 49 51 48 38 17 9 4 5 11 15 12 16 22 21 16 7 44 142 176 174 175 167 155 138 133 142 141 144 148 155 161 167 172 181 187 188 189 194 197 198 201 201 202 203 204 205 204 205 203 200 197 192 190 189 185 176 167 160 153 142 129 122 121 120 126 138 139 117 80 18 7 5 5 3 4 5 6 11 15 15 9 6 9 19 18 23 25 28 23 65 42 66 48 46 48 46 33 16 7 10 12 14 13 14 23 21 12 9 88 151 174 176 171 170 166 149 129 133 136 138 142 148 154 161 164 173 179 182 184 188 191 193 195 196 197 199 202 205 203 198 194 191 188 184 182 179 173 167 160 150 138 128 117 116 127 135 138 143 140 109 75 19 8 7 7 6 9 17 24 29 30 20 15 12 23 40 33 38 33 26 21 57 53 56 62 33 43 45 46 22 13 14 12 13 15 17 29 18 7 39 128 154 174 186 180 174 173 164 141 124 122 132 137 143 148 155 160 167 172 177 181 183 187 189 190 193 196 195 195 196 193 188 184 183 181 175 172 168 162 159 149 134 121 117 120 126 137 139 146 145 135 107 77 22 10 11 16 13 14 27 35 39 30 20 19 25 43 55 60 45 32 19 19 44 56 50 62 29 47 43 46 40 20 15 12 14 12 17 20 12 16 99 145 158 173 185 185 176 175 170 162 136 110 106 116 130 139 147 152 157 163 169 169 170 173 176 179 180 184 187 188 185 183 183 178 176 171 162 160 157 149 144 129 119 116 117 128 134 136 144 148 144 138 111 87 33 20 22 13 10 10 27 32 34 23 21 37 49 49 44 52 39 23 14 13 51 44 60 73 29 38 39 42 53 28 15 12 14 18 24 28 14 48 130 151 164 178 183 185 180 177 173 165 155 131 105 87 89 104 124 141 147 151 155 157 159 163 167 168 165 169 170 172 171 172 167 162 158 149 144 144 138 133 125 112 107 118 127 134 138 144 151 151 146 139 115 79 40 21 13 7 10 17 25 24 25 32 47 50 45 43 44 38 28 15 14 11 48 41 52 72 34 29 42 36 47 42 12 12 17 20 22 9 32 112 147 160 168 176 184 192 189 182 172 170 165 155 122 97 86 79 81 99 123 140 144 147 150 148 151 153 154 153 153 153 153 153 146 142 139 131 127 127 121 112 99 102 116 127 133 141 146 152 154 150 147 143 111 70 45 27 16 13 15 14 14 20 30 42 51 48 37 45 33 21 14 7 12 12 43 47 48 77 37 25 37 35 43 45 13 13 19 24 19 16 83 134 154 171 172 179 182 190 193 188 177 173 165 161 145 117 93 86 76 70 77 92 113 130 134 137 133 135 132 132 132 130 129 128 125 126 125 122 121 112 88 81 94 115 124 128 137 148 154 154 154 150 150 141 103 67 55 32 24 21 14 11 15 25 31 35 36 32 40 31 14 15 10 5 9 13 47 42 54 80 45 31 36 34 38 46 13 10 20 20 10 71 116 150 159 177 175 180 183 186 191 194 187 177 170 166 159 143 111 87 77 78 70 64 71 80 93 111 124 132 127 127 126 124 124 124 124 124 115 101 85 73 78 92 115 125 128 135 146 158 158 157 157 149 151 140 110 65 60 33 21 18 10 13 23 27 30 30 34 31 27 14 12 12 6 4 5 12 36 44 50 79 53 30 39 38 38 46 10 18 13 12 58 122 133 161 168 178 182 180 186 187 191 193 193 181 171 168 163 159 134 104 86 74 64 63 60 63 66 71 71 80 85 87 95 98 95 94 94 83 75 72 68 74 92 113 124 126 134 146 155 158 158 159 159 150 155 149 116 65 56 36 25 13 12 17 26 25 29 23 34 25 12 13 10 2 1 4 10 12
