P2
# Generated by OpenCV 4.2.0
92 112
255
239 239 238 238 239 239 239 238 255 124 62 66 54 43 49 54 77 86 89 106 138 162 187 188 200 220 225 229 232 233 236 236 236 236 236 216 201 196 186 155 156 161 152 159 155 145 131 131 125 102 87 81 82 83 82 81 75 59 48 54 75 61 64 69 59 64 43 43 58 80 56 38 63 70 85 67 58 77 54 67 81 78 78 93 121 93 69 90 92 86 98 101 239 238 238 238 240 239 238 250 202 73 69 54 51 57 56 74 69 87 121 160 190 202 217 226 232 234 236 235 235 236 237 238 237 237 237 230 210 197 199 195 181 172 169 169 168 160 154 151 146 138 127 110 91 75 73 78 82 63 53 47 53 64 62 57 67 59 53 43 42 63 73 51 40 61 73 85 59 65 66 53 75 82 76 85 113 111 80 78 94 91 92 99 239 239 238 238 238 239 242 238 104 73 61 55 76 56 67 60 81 149 200 219 230 234 237 239 239 239 238 237 238 238 238 238 239 238 236 234 227 216 213 211 209 203 193 185 185 185 184 176 168 165 158 134 119 106 85 74 79 75 56 47 44 47 64 61 55 65 57 52 43 46 65 71 48 39 63 75 79 59 70 59 51 81 83 76 96 117 102 73 87 95 90 97 239 239 238 238 239 239 254 159 61 74 59 75 66 52 68 105 182 222 234 236 238 240 239 239 239 239 240 239 239 239 240 239 239 238 236 234 232 230 225 223 222 218 219 218 213 210 206 202 197 194 191 176 156 136 118 95 82 79 68 62 54 41 40 60 56 50 60 58 52 41 44 65 65 47 42 64 74 82 58 71 51 55 84 72 81 101 109 85 76 87 87 91 237 238 238 239 239 246 224 75 66 63 67 61 42 55 127 201 230 234 237 238 240 240 239 239 240 240 240 240 240 239 239 239 239 238 235 237 236 234 233 230 227 228 228 226 223 221 216 214 212 206 201 200 189 173 154 130 112 94 78 67 64 55 42 39 54 58 49 63 54 51 40 40 62 64 48 42 70 76 73 60 67 49 64 82 74 85 103 102 76 79 83 87 239 238 239 239 239 252 137 54 63 65 64 35 47 122 206 231 234 236 237 239 239 240 239 240 240 241 239 241 238 239 239 239 239 238 236 237 238 237 236 234 232 232 230 228 226 224 222 221 221 217 210 204 199 198 186 163 133 114 97 78 64 61 58 47 39 53 61 50 59 52 52 39 43 62 63 46 43 72 76 72 60 60 58 78 87 74 94 111 90 80 83 82 238 238 239 239 245 215 76 62 62 64 32 35 111 207 231 234 235 237 238 238 239 239 239 239 239 240 240 241 239 238 239 239 239 237 237 238 238 237 237 236 235 234 233 230 230 227 226 225 225 221 218 215 213 205 199 187 167 137 117 104 84 68 62 62 52 44 57 62 50 56 49 52 46 52 65 59 43 49 73 78 67 59 51 61 83 79 81 106 106 77 82 79 238 238 239 240 246 139 56 55 63 33 32 89 198 232 232 235 236 237 239 240 239 239 240 239 239 239 239 241 239 239 239 239 239 238 237 238 238 237 236 236 237 236 234 235 233 231 230 227 227 224 221 218 217 213 206 201 190 167 135 120 105 86 72 62 64 57 46 54 62 48 50 44 55 49 59 62 62 44 61 72 78 58 57 50 70 90 76 86 106 88 75 81 237 239 239 244 220 78 48 63 36 23 64 175 234 232 234 234 235 237 238 239 239 239 239 240 239 239 239 239 239 239 239 239 239 238 238 238 237 237 236 237 236 235 236 236 234 232 230 229 228 226 222 221 218 214 210 207 203 193 167 135 116 108 94 74 64 58 61 47 48 60 45 43 40 51 55 60 63 57 46 61 74 70 61 56 54 88 92 74 100 102 76 79 239 239 239 253 162 46 60 44 23 36 141 231 232 234 234 234 236 238 238 239 240 240 239 239 239 238 239 239 239 239 239 239 238 238 237 237 237 237 237 237 236 236 236 236 234 233 230 231 228 225 222 221 218 216 214 212 207 201 193 166 136 114 108 98 79 64 56 59 42 49 59 45 43 37 54 56 64 67 54 45 64 79 60 62 58 65 92 80 85 106 87 75 239 239 240 243 96 50 54 25 25 85 219 233 234 232 232 233 234 238 237 238 240 239 239 239 238 238 239 238 237 238 238 237 237 237 238 237 236 237 237 237 237 236 235 235 234 233 232 230 226 224 222 218 217 216 215 213 211 209 203 187 165 137 113 102 81 69 61 56 64 46 54 59 49 39 34 55 56 66 60 47 50 75 75 51 62 54 77 91 76 96 92 73 239 239 250 193 55 56 30 22 29 164 233 231 232 232 233 234 236 237 236 236 237 238 238 236 237 237 238 237 237 237 238 237 237 237 238 237 237 237 236 236 236 236 236 235 234 232 232 229 225 223 221 219 217 217 214 211 211 208 207 200 183 168 138 105 93 77 66 52 47 62 47 45 51 50 40 40 56 58 64 56 44 52 76 63 58 50 57 89 80 80 95 75 239 239 253 132 50 43 28 20 76 213 231 231 231 233 234 236 236 237 237 237 237 238 238 237 237 237 236 235 236 238 238 237 237 237 237 237 237 236 236 236 237 236 235 234 232 230 229 228 224 222 219 218 217 214 212 210 210 208 206 202 195 181 167 140 105 90 74 63 47 47 60 49 43 54 54 31 49 58 54 56 54 40 60 79 57 59 45 69 85 74 88 82 239 243 228 79 50 35 22 25 154 232 230 228 228 231 232 233 233 234 236 236 236 237 237 237 237 236 237 236 236 236 235 236 236 235 236 236 235 234 234 235 235 234 233 233 231 230 228 227 224 223 219 214 213 211 209 209 209 207 207 205 200 190 175 170 136 109 87 66 59 50 47 60 42 41 57 39 29 55 59 54 50 43 43 66 73 62 50 50 81 76 76 82 239 253 184 46 46 29 18 67 214 232 227 227 229 230 232 234 235 235 234 235 236 237 236 236 236 235 235 235 235 235 235 235 235 235 236 236 235 235 234 234 234 235 233 233 231 229 228 226 224 223 219 218 214 211 208 206 208 209 209 207 204 199 188 177 162 137 108 76 60 56 40 45 50 41 47 49 31 35 62 56 43 50 39 48 71 62 57 40 65 83 71 82 239 255 137 41 39 27 31 140 234 229 226 228 229 230 232 235 235 235 233 233 233 234 235 235 236 234 233 235 236 233 234 232 232 234 235 236 235 235 234 234 232 235 232 232 232 230 227 224 223 221 219 217 215 212 209 207 206 206 206 207 205 199 196 184 174 161 133 102 65 53 46 40 43 47 42 44 43 29 40 52 40 44 47 41 53 63 55 52 45 81 75 75 243 244 95 40 33 28 76 193 231 227 227 228 229 227 230 228 230 230 228 229 228 230 232 234 233 231 231 232 233 232 232 232 233 233 233 234 235 234 233 234 233 232 229 230 232 228 225 223 223 220 218 217 213 210 209 209 207 202 204 203 204 203 200 196 179 171 151 125 87 49 49 45 40 42 43 38 46 43 29 45 44 38 45 45 44 59 55 55 44 60 81 67 249 220 67 44 37 43 87 211 228 225 227 225 225 226 229 230 230 229 230 233 232 232 234 233 232 232 233 232 231 230 230 231 232 232 232 234 235 234 234 234 233 230 229 228 230 226 223 222 220 217 216 215 211 208 207 207 207 198 200 202 199 201 199 196 188 173 167 140 112 66 41 47 38 42 39 47 40 44 38 30 50 44 34 45 45 48 57 47 50 41 72 70 254 202 55 48 47 43 113 225 225 225 225 225 228 231 231 231 232 231 231 231 230 232 232 232 231 231 232 232 233 231 230 231 232 233 232 234 235 234 232 232 231 232 230 228 227 224 223 221 222 218 215 214 210 209 207 204 205 208 205 204 203 201 199 192 187 174 170 142 124 87 49 41 44 38 32 37 38 35 46 31 37 52 38 34 45 40 53 52 47 39 56 69 255 174 52 56 51 47 148 232 222 223 227 228 228 227 229 231 231 229 230 230 231 232 232 232 232 232 231 229 228 230 231 230 230 232 233 233 232 230 230 229 229 227 227 225 226 223 223 220 220 218 216 213 213 212 208 204 205 206 204 203 204 202 201 197 188 180 176 153 133 103 65 42 37 38 33 26 37 42 37 35 33 41 49 30 39 44 41 57 44 41 37 61 255 150 52 54 41 59 179 231 223 224 225 226 227 229 228 231 230 230 230 228 229 230 230 229 231 231 232 230 230 228 229 229 229 230 230 231 229 229 228 226 223 224 225 222 222 219 218 215 214 212 210 210 209 208 205 205 207 206 201 202 203 198 199 198 193 184 180 170 145 106 74 51 36 38 33 25 27 37 31 36 29 34 49 38 26 45 40 48 48 43 38 48 255 136 47 56 38 81 196 230 224 226 225 225 228 229 230 228 228 228 227 227 227 228 228 229 228 228 230 230 230 229 228 229 230 229 226 230 228 228 228 226 227 226 225 225 223 223 222 219 217 215 210 208 207 205 202 196 201 206 205 202 201 200 194 196 192 185 184 170 159 121 78 56 39 31 35 23 24 25 32 32 30 29 39 49 27 35 43 39 50 45 43 41 255 131 52 50 46 102 208 228 224 226 223 225 226 227 230 230 229 230 232 232 230 230 230 229 227 229 230 230 231 229 230 229 229 231 232 230 229 230 228 229 230 229 226 225 224 222 222 219 217 213 211 214 212 209 208 204 202 202 197 200 199 200 193 193 192 187 183 174 158 139 96 65 51 32 27 26 22 19 28 31 30 27 33 46 40 23 44 43 41 49 43 38 255 137 50 45 53 98 218 226 224 223 223 223 225 227 229 231 232 233 232 233 230 230 231 231 230 228 229 229 229 228 228 229 229 231 232 231 230 228 229 228 229 228 226 224 222 222 222 220 217 212 209 212 210 207 208 208 207 206 202 197 198 198 192 194 197 190 183 182 167 144 122 79 61 43 27 24 23 17 19 26 26 29 23 35 49 29 30 44 36 45 49 40 255 133 41 54 56 109 227 224 223 222 223 224 226 227 229 232 233 233 234 235 234 230 230 230 231 231 231 229 228 227 227 228 229 228 228 229 228 227 228 228 228 227 226 224 223 222 222 221 216 213 214 211 208 207 206 206 207 207 205 199 200 200 197 194 196 194 188 181 170 160 143 106 63 52 35 24 24 17 14 20 25 26 23 24 43 40 24 39 42 37 50 42 255 126 37 59 57 135 228 224 223 223 224 225 226 228 230 233 234 235 234 232 234 231 231 233 229 230 231 229 230 229 227 229 230 230 228 228 228 228 228 226 226 224 224 226 224 223 222 220 217 214 215 211 208 208 207 207 204 203 200 199 200 201 202 198 192 192 185 186 176 161 152 129 85 55 40 27 26 23 15 17 22 28 28 19 32 41 25 30 45 38 40 47 255 136 45 52 52 154 230 222 224 224 226 227 227 229 231 234 234 233 233 232 231 228 228 232 230 229 228 226 227 229 228 228 228 229 230 231 230 229 228 228 228 226 228 226 224 223 221 222 218 216 214 210 208 209 208 207 203 201 193 199 201 201 199 199 194 192 189 185 184 170 152 135 109 68 40 27 24 26 18 16 18 25 29 21 19 39 34 22 35 46 35 45 255 176 52 48 56 167 231 222 223 226 227 229 230 230 231 231 231 232 231 230 229 229 229 228 229 228 228 228 224 226 231 229 228 228 228 229 228 227 229 229 226 227 227 225 224 224 223 222 220 220 218 217 212 210 207 206 204 201 198 198 201 201 198 195 191 193 192 185 185 181 162 141 123 99 53 26 22 23 21 13 16 17 26 23 18 25 42 26 26 37 42 34 248 200 58 47 61 177 227 225 225 225 229 231 230 230 229 228 229 231 230 226 227 226 227 225 225 225 226 225 225 226 226 226 228 226 225 226 227 227 229 228 227 224 223 226 225 224 224 221 222 220 218 217 215 212 209 208 205 203 204 201 199 199 199 195 190 191 192 188 182 180 169 149 127 109 80 37 23 18 19 13 13 16 19 23 24 20 27 32 25 28 41 36 248 208 62 47 65 179 225 225 228 228 230 231 231 230 227 226 227 227 227 224 225 227 227 225 223 225 225 224 225 225 224 225 226 223 222 225 225 226 227 229 225 225 225 225 225 224 224 222 220 220 219 217 215 214 212 208 206 208 206 202 198 197 199 198 194 190 190 187 181 178 173 156 138 110 89 60 27 17 17 19 10 16 19 23 22 22 21 31 30 27 34 48 246 211 72 35 74 200 223 229 231 229 229 231 231 228 226 226 226 224 224 224 223 224 224 223 224 223 222 223 224 223 222 222 223 223 221 222 223 224 225 223 221 223 223 224 225 225 223 222 217 222 219 217 216 215 212 211 209 209 208 206 204 204 199 196 193 190 185 184 181 174 173 161 138 122 87 63 41 19 15 18 14 12 17 19 20 20 21 25 30 28 26 42 248 211 64 31 104 217 224 225 226 223 220 221 216 217 227 224 224 221 220 221 223 222 221 221 223 224 221 221 220 221 219 218 223 219 216 220 219 220 219 218 221 222 222 223 222 221 221 221 224 223 220 217 218 215 214 214 214 211 210 211 209 205 200 197 191 187 184 184 181 177 173 169 143 122 100 70 51 24 15 14 17 15 12 16 18 19 24 21 29 33 31 32 254 202 54 35 124 226 204 187 180 170 156 160 163 173 186 186 198 206 201 198 208 214 213 217 217 217 218 218 217 218 216 217 218 216 215 217 214 215 215 218 220 224 223 220 220 217 218 216 215 217 215 211 210 215 214 214 215 214 212 212 209 204 202 196 190 183 180 179 180 177 172 169 156 127 107 83 53 33 16 15 19 20 9 14 19 22 24 24 23 34 35 36 255 196 42 41 163 217 165 135 106 108 108 110 109 115 108 114 116 134 137 148 171 184 193 207 212 211 215 216 216 214 213 215 217 215 213 213 211 212 203 201 195 194 194 198 203 205 202 193 188 182 185 191 191 195 200 198 203 212 212 212 214 208 205 198 187 182 178 174 180 176 171 167 164 154 121 88 59 42 26 15 19 17 13 11 18 21 25 25 25 31 37 36 254 166 33 67 185 185 114 86 95 101 95 91 91 89 84 78 82 89 87 96 128 148 156 181 207 212 212 212 214 210 208 211 214 209 207 210 206 197 190 168 154 141 146 149 140 137 137 124 130 126 117 125 145 156 156 156 161 172 184 186 195 209 208 200 190 180 174 173 175 178 172 170 165 160 146 105 71 48 37 18 15 16 16 14 15 20 22 27 30 30 36 33 255 158 43 65 157 138 107 97 101 103 92 82 77 71 66 62 57 67 74 72 83 120 137 154 192 206 205 209 210 208 206 207 206 204 203 204 198 177 165 131 112 96 86 77 74 72 66 84 94 87 79 86 87 92 94 101 108 113 129 137 149 181 205 203 191 180 177 176 176 177 174 171 170 162 162 133 92 60 38 27 14 16 14 15 15 18 23 23 29 32 40 31 255 173 54 65 128 114 108 130 133 116 103 90 70 61 62 63 54 54 61 67 75 98 128 146 176 199 203 204 207 206 206 206 204 201 197 198 193 163 129 107 83 72 55 50 44 40 44 56 62 71 72 67 61 64 74 81 78 83 97 110 119 141 167 194 199 185 183 185 178 176 179 176 173 169 166 154 128 83 41 31 21 14 15 13 15 15 22 23 27 29 38 36 255 209 84 69 127 116 146 176 174 164 156 139 123 115 95 83 79 76 74 73 75 95 110 132 173 193 201 203 206 207 206 202 199 194 188 185 182 149 118 100 80 63 63 50 42 45 50 44 41 42 44 51 65 68 66 77 83 86 80 83 99 109 124 143 152 182 192 184 181 178 179 179 179 177 169 162 148 113 62 30 25 15 13 15 14 15 12 16 21 22 32 40 255 215 99 94 143 146 186 198 191 174 166 157 156 144 133 115 109 109 106 104 104 105 113 128 161 185 194 202 202 205 201 197 191 188 185 175 165 136 119 100 80 76 71 62 57 58 58 54 51 51 56 68 77 83 87 88 96 99 102 97 94 99 103 117 114 129 170 182 181 182 183 182 182 175 176 171 161 133 91 42 23 19 12 13 16 18 17 19 18 24 30 41 249 229 120 120 179 181 194 189 174 166 159 156 159 157 148 138 128 119 111 110 118 123 125 135 153 173 185 197 192 197 202 194 186 184 178 168 156 132 121 106 102 97 88 82 79 79 78 82 89 96 104 112 119 124 139 147 142 143 141 136 127 116 113 109 115 113 117 160 186 185 184 185 182 180 177 172 165 145 118 69 31 17 20 16 14 19 22 22 19 21 27 27 242 244 173 133 192 202 195 185 171 166 164 175 179 180 173 168 164 148 132 120 111 112 120 130 142 163 182 191 187 197 203 197 189 179 166 159 147 127 115 110 101 92 88 89 97 111 124 136 152 156 154 151 148 154 159 159 164 166 166 163 153 131 119 118 115 117 117 132 170 187 183 180 181 182 177 170 168 158 135 99 51 23 23 21 17 18 15 15 20 19 19 29 241 246 218 177 203 197 187 177 174 179 199 205 196 187 177 173 176 175 174 156 136 122 115 117 126 150 176 196 209 216 207 202 193 177 163 150 131 119 104 95 90 92 105 123 141 162 175 180 188 183 179 176 167 168 169 166 166 165 165 166 163 156 152 139 126 128 131 134 164 185 185 180 182 182 177 173 175 167 146 117 74 35 22 16 16 18 17 18 20 24 25 27 240 241 246 226 209 193 186 183 179 196 191 154 138 140 138 135 131 128 146 160 162 148 132 121 118 132 171 201 214 213 210 203 193 177 158 141 123 106 94 92 99 118 142 161 174 171 161 165 170 172 177 182 172 168 167 163 159 152 158 161 161 163 162 156 151 146 144 146 153 178 187 184 183 184 178 178 179 172 161 135 99 47 24 22 19 15 18 21 22 26 28 30 241 241 241 229 216 192 182 168 182 177 118 146 187 211 221 209 194 179 141 114 135 160 161 143 129 123 154 204 214 214 216 211 198 182 159 137 115 102 98 108 126 145 159 158 133 122 136 156 154 144 135 138 147 177 180 172 166 159 152 150 149 145 146 153 158 162 153 151 155 166 183 185 184 183 181 181 183 178 171 149 116 66 29 17 18 16 17 21 23 28 32 30 243 240 237 231 218 197 170 172 154 102 121 170 131 89 86 74 95 120 159 173 137 129 164 166 149 140 148 204 223 224 225 218 205 185 160 132 110 108 116 131 147 158 142 95 111 99 101 114 140 149 195 164 144 126 129 148 172 175 161 155 149 149 145 150 151 156 161 157 162 170 178 185 185 181 183 185 182 179 174 158 127 79 40 19 14 15 16 18 23 27 29 31 243 243 242 231 216 196 191 147 73 84 51 17 13 12 13 21 12 15 28 78 148 156 129 155 166 161 160 207 229 228 229 221 211 194 163 130 120 125 130 145 154 148 109 93 59 18 15 18 20 27 71 116 143 174 166 144 121 132 165 177 163 158 157 156 157 162 167 168 169 174 181 184 183 187 189 186 182 181 175 165 134 85 48 30 17 16 16 16 18 24 29 27 242 243 241 229 218 188 151 89 61 27 12 21 19 29 31 49 44 31 54 53 41 97 146 148 157 169 177 213 232 234 232 224 215 195 159 137 139 136 139 152 150 116 106 56 17 20 25 42 46 25 14 15 25 79 149 175 168 129 108 132 159 168 166 163 166 170 171 174 175 180 187 184 185 189 189 188 183 180 173 163 141 92 53 36 26 18 18 21 22 23 24 23 243 243 240 231 220 175 106 68 28 10 12 21 20 37 28 10 38 30 88 155 128 72 76 146 171 177 200 221 234 236 236 228 216 200 167 150 154 145 155 162 157 116 62 28 67 43 53 47 22 30 31 18 19 13 24 52 100 141 147 122 119 145 169 179 180 176 172 175 181 187 191 188 190 189 188 186 186 184 172 163 142 98 57 37 27 24 25 26 28 26 25 32 243 244 238 228 226 208 153 89 48 29 36 55 60 60 64 70 86 80 116 161 156 126 92 92 144 206 217 227 236 239 233 226 217 204 174 167 172 172 185 179 129 73 42 52 113 73 55 52 27 37 46 29 45 36 18 10 13 21 69 124 141 139 145 156 172 182 181 181 184 187 188 188 188 190 191 189 186 182 178 166 137 103 65 39 27 29 33 33 32 29 30 45 243 243 236 227 228 225 210 168 132 108 99 131 154 159 141 161 179 171 154 163 156 161 171 160 161 218 223 232 238 237 233 226 217 203 184 179 191 191 198 177 119 107 135 139 144 139 140 135 124 129 123 110 79 69 46 27 29 39 48 80 125 144 145 150 156 167 173 176 185 186 188 190 189 190 192 189 185 183 179 169 138 102 65 41 31 31 35 37 35 33 38 68 243 242 233 229 229 227 221 208 191 158 145 153 157 180 156 164 180 185 179 184 185 194 213 223 226 224 226 235 238 237 233 225 216 200 189 190 202 200 204 208 202 184 175 182 184 170 182 178 158 163 160 157 134 127 117 89 82 93 107 116 125 137 144 156 166 173 176 182 188 193 194 191 190 193 192 189 186 183 178 170 141 105 70 42 39 37 33 32 31 34 54 74 243 241 230 230 232 233 234 232 222 193 163 156 161 172 173 168 172 172 174 178 190 198 204 222 225 226 229 238 239 237 230 223 214 201 194 198 204 203 202 205 197 186 179 180 183 185 181 175 166 162 165 161 161 154 141 135 128 134 161 180 181 179 176 184 191 196 199 204 205 203 201 196 195 194 192 190 185 180 175 169 142 103 79 51 45 45 38 38 39 52 78 62 244 241 231 232 233 233 233 229 226 216 193 167 155 154 158 152 152 160 166 175 190 205 215 226 229 227 232 239 240 236 230 223 214 207 200 202 208 209 204 208 207 201 185 174 161 155 157 156 151 146 147 145 149 154 155 160 170 178 187 198 204 209 208 208 208 211 211 208 207 205 202 199 195 196 193 188 188 182 176 166 142 109 78 66 58 56 56 62 59 77 101 85 242 239 231 230 232 231 229 227 224 222 211 196 185 175 169 170 177 187 197 207 216 219 225 228 228 228 235 239 238 237 231 220 214 206 199 203 210 214 211 213 218 214 217 211 196 184 174 163 167 166 165 163 164 167 172 173 180 189 196 205 208 209 211 212 213 213 210 209 207 206 203 200 195 193 192 189 185 184 178 165 143 115 83 69 72 74 76 71 77 113 111 110 232 232 230 229 229 230 227 228 228 227 223 214 205 202 202 210 213 216 218 219 221 226 229 229 229 228 237 240 238 234 229 219 211 204 203 206 210 215 216 216 220 221 222 224 223 221 210 195 188 184 186 189 193 193 194 194 198 202 205 208 209 211 209 207 209 209 207 207 206 204 203 200 195 193 190 186 183 186 180 165 143 114 90 83 91 92 90 87 110 89 111 124 204 216 230 228 227 226 228 227 224 222 221 222 221 222 221 224 223 221 220 222 227 231 229 228 226 230 238 239 238 234 227 216 209 206 205 205 208 214 215 215 219 222 224 225 224 226 226 223 219 213 208 203 200 201 203 205 208 210 211 212 211 210 209 208 208 207 206 204 204 202 199 195 194 189 187 186 184 182 176 162 146 119 107 110 118 114 102 109 90 49 96 120 153 188 232 226 225 224 223 223 226 229 228 228 226 225 224 224 223 223 225 230 232 229 227 227 228 233 239 239 237 233 226 215 209 204 203 204 208 213 213 215 218 220 223 224 224 225 226 225 224 224 224 224 222 222 220 219 218 215 211 208 209 209 208 207 206 204 202 200 200 200 197 193 190 182 185 184 182 177 172 162 146 120 122 133 131 128 103 107 56 49 78 102 125 178 232 223 222 221 226 229 228 230 229 228 227 228 227 229 227 228 231 233 231 228 227 227 229 236 240 239 236 231 224 215 211 204 202 202 206 209 212 216 216 221 224 225 224 224 223 225 225 224 224 223 222 223 221 222 223 221 218 215 212 208 206 204 203 202 199 197 198 198 195 190 188 184 182 182 179 173 169 162 147 129 126 138 141 124 103 91 49 57 75 97 135 195 229 221 223 225 227 227 227 229 229 231 232 232 231 232 233 234 234 232 231 228 228 230 234 238 239 239 236 230 224 215 211 209 203 202 206 211 214 216 218 223 224 226 228 227 225 226 225 225 225 224 224 226 225 223 221 222 220 217 215 210 207 204 204 199 198 196 196 196 192 188 186 182 182 177 173 170 168 160 146 137 129 136 155 130 102 89 73 66 78 101 145 200 228 221 224 225 225 228 228 231 232 232 235 234 236 236 235 236 234 233 231 228 229 234 237 240 239 239 235 230 226 218 212 209 207 205 206 211 215 217 218 223 226 227 228 228 229 228 227 227 226 225 225 225 226 223 222 221 217 216 211 207 206 204 202 197 195 194 193 191 189 186 183 181 177 174 170 167 166 156 143 135 135 150 163 146 100 93 94 81 81 100 152 203 226 221 223 224 225 227 231 234 235 234 236 237 237 237 237 235 235 233 230 226 229 234 238 239 239 238 236 230 225 218 212 207 201 201 204 207 214 215 217 222 226 228 229 230 231 230 229 228 227 225 225 225 224 223 221 219 216 213 209 207 203 202 199 196 192 191 190 186 184 183 182 176 175 173 166 163 162 153 144 137 142 158 169 163 112 102 109 102 89 104 160 207 225 220 221 222 226 230 233 234 232 236 236 237 235 237 236 236 236 231 225 225 231 235 238 238 239 237 234 229 224 217 212 203 193 198 199 200 206 214 220 223 228 229 229 230 231 231 229 230 227 226 227 224 224 223 220 216 213 211 206 203 202 199 196 192 192 192 188 182 179 176 173 173 174 170 163 160 156 148 140 139 147 164 170 175 131 111 121 125 111 119 174 211 223 219 221 223 227 229 231 231 231 233 233 234 236 236 235 235 231 221 215 227 232 237 237 237 239 235 231 227 221 214 210 200 199 206 200 198 200 208 217 223 228 229 229 229 230 230 229 227 227 226 226 224 221 223 219 214 209 208 204 201 198 196 193 192 191 189 185 180 177 174 170 171 169 167 161 158 152 144 138 139 153 171 172 177 144 116 131 142 146 141 191 215 222 220 222 225 226 228 228 229 229 229 230 233 234 235 231 227 218 206 211 233 233 237 237 236 235 232 228 222 215 210 206 204 210 213 213 210 203 197 208 214 220 227 228 228 229 229 228 226 226 225 225 222 217 220 216 213 209 206 204 200 198 194 194 192 189 184 180 176 171 170 168 166 166 165 160 155 148 138 138 139 155 172 172 165 126 119 133 154 156 150 207 217 221 219 222 224 225 225 225 226 227 228 229 229 230 227 224 216 208 195 218 233 230 232 231 231 228 228 223 216 211 204 203 206 210 214 215 213 211 191 198 207 216 222 223 226 226 226 227 226 226 225 224 222 221 218 215 210 206 203 201 199 195 194 191 188 185 182 177 173 168 162 165 164 163 163 158 153 144 138 140 143 158 167 169 139 124 139 153 154 145 163 216 221 219 217 219 220 222 223 224 225 224 225 226 226 224 220 213 207 196 194 229 226 222 225 224 224 222 217 210 204 198 186 189 203 211 212 212 211 209 190 187 198 209 213 220 222 225 223 224 223 223 223 221 218 216 213 210 206 205 201 201 198 195 191 188 185 181 176 170 167 163 155 161 162 160 161 157 148 141 139 141 147 158 167 158 120 128 158 181 168 170 190 222 223 217 217 217 216 217 217 219 220 221 221 223 223 218 213 206 196 188 204 227 210 208 212 213 214 209 199 186 178 171 163 168 182 191 195 198 204 207 190 177 194 202 207 211 217 218 220 218 219 219 218 217 214 212 209 206 204 203 201 198 194 194 192 184 180 177 171 166 162 162 160 160 160 160 161 156 147 142 138 143 148 153 163 150 124 146 176 188 189 187 172 226 225 216 213 214 214 213 213 216 216 218 218 220 217 209 204 194 190 194 211 208 184 188 194 193 196 186 167 151 143 135 133 139 149 153 161 173 181 187 170 156 195 199 201 204 209 211 214 213 212 213 213 210 208 208 205 204 203 200 197 196 192 190 189 184 177 170 167 163 160 159 158 156 159 159 159 152 146 142 140 146 149 145 150 169 186 191 189 188 190 164 129 227 227 214 211 210 209 209 211 213 214 215 214 215 211 205 195 189 197 211 223 186 152 161 185 174 169 157 140 130 119 121 113 103 108 121 132 142 150 156 133 145 206 211 202 196 200 206 209 208 208 210 208 206 205 202 202 202 199 195 191 194 191 186 182 178 171 166 164 157 153 154 154 154 157 157 152 149 145 140 141 150 147 142 153 162 183 192 191 192 198 168 154 228 229 213 207 207 206 208 209 210 207 210 210 207 204 196 186 189 210 225 231 212 142 80 130 170 146 136 127 121 116 87 47 28 21 41 85 113 122 113 104 177 217 219 213 198 192 196 203 208 207 206 204 206 201 199 197 197 192 191 188 186 184 180 178 172 166 160 156 156 150 149 150 151 156 154 151 148 144 142 144 152 144 159 171 167 179 192 195 193 191 188 192 229 231 218 202 201 200 201 199 201 203 204 203 202 193 186 189 206 225 227 229 233 189 114 95 149 150 129 122 119 87 48 44 50 43 40 49 69 80 89 151 209 217 215 214 206 191 189 193 198 203 200 200 198 193 193 192 188 184 183 180 177 175 173 164 163 161 155 149 149 147 145 145 148 154 151 149 150 143 141 146 151 145 177 185 180 174 172 180 192 185 192 193 230 233 223 200 195 194 193 195 196 197 195 198 194 187 183 200 222 226 228 229 231 225 191 172 171 156 130 118 108 87 83 101 120 120 110 110 121 136 172 204 213 213 214 213 211 200 186 187 191 193 195 193 191 190 187 184 180 176 175 175 174 167 164 152 150 154 152 146 144 142 143 144 148 153 151 148 150 146 142 148 145 144 184 190 169 178 201 191 184 190 190 184 233 233 230 201 190 188 187 188 189 191 191 190 185 180 190 214 223 226 227 229 229 231 226 210 193 164 129 102 89 90 118 153 167 174 178 183 191 197 205 208 213 215 213 213 211 209 194 180 182 184 187 187 184 182 179 172 169 170 164 163 163 159 157 153 149 147 145 141 138 138 141 144 146 150 147 148 148 147 144 148 133 138 177 176 167 180 134 167 168 181 181 159 232 233 236 211 185 184 181 180 182 186 186 184 176 180 205 221 223 225 227 227 227 228 228 221 200 177 148 123 111 125 156 170 177 187 193 198 203 204 209 210 214 212 213 213 209 209 204 185 175 176 180 181 177 176 172 163 161 156 153 153 150 152 150 146 147 143 140 138 137 134 139 144 147 151 148 149 148 145 147 148 111 129 163 163 156 183 139 171 150 163 169 82 232 233 236 226 186 179 174 173 177 179 178 173 172 192 216 222 223 225 226 227 226 225 226 223 213 194 166 148 153 166 175 183 186 193 200 205 208 210 212 214 212 213 210 209 208 207 208 199 179 166 166 169 172 163 161 160 155 150 145 143 144 143 141 141 141 139 135 136 135 136 138 141 146 151 150 152 149 147 147 137 67 115 157 158 131 197 234 211 149 153 99 9 233 233 234 236 198 174 169 171 178 173 170 167 179 207 216 217 223 225 228 227 228 226 226 225 223 215 201 194 192 190 195 198 201 203 208 210 211 213 212 215 214 211 208 207 205 204 198 198 191 165 156 159 160 162 160 158 153 145 139 135 133 130 134 136 135 136 134 135 131 135 140 142 147 150 150 152 150 146 144 111 28 75 146 134 177 208 144 115 182 122 5 9 234 235 235 239 217 177 168 170 173 171 164 167 191 209 205 211 219 225 228 228 229 230 231 231 229 223 215 212 209 208 210 209 209 210 214 214 213 216 215 215 213 207 204 205 203 194 187 185 190 182 160 149 150 155 155 153 146 141 135 129 127 127 130 132 131 132 132 132 130 134 139 144 146 149 150 148 149 146 138 78 17 23 91 133 213 133 93 83 58 45 4 17 235 235 235 237 233 188 170 169 171 167 163 174 194 202 190 203 217 226 229 231 234 239 238 239 236 232 224 217 217 218 221 222 222 217 218 219 216 216 218 218 212 208 204 199 190 185 183 176 170 176 169 154 143 148 149 147 142 137 133 127 122 121 122 127 129 131 132 131 132 136 140 144 147 151 151 148 149 145 122 54 19 4 9 110 229 99 55 25 1 3 12 20 236 236 235 236 239 205 173 172 172 162 168 178 196 190 179 195 216 228 234 235 226 209 196 190 200 209 219 224 230 227 212 204 197 197 201 208 214 220 219 215 208 206 201 191 183 181 175 165 158 160 167 168 154 143 146 144 145 139 137 130 121 117 117 124 129 132 131 132 133 139 141 142 147 152 151 148 146 139 100 40 15 6 0 53 210 60 0 3 10 14 23 37 237 237 237 237 241 221 181 178 173 161 172 180 191 176 157 178 211 229 219 196 178 160 150 151 156 151 158 175 192 173 150 139 135 139 142 150 155 168 181 191 203 205 197 186 179 173 155 148 144 147 155 169 164 153 147 146 145 144 134 129 130 123 118 123 130 131 132 132 133 140 138 142 145 149 150 149 146 132 73 28 8 6 0 2 184 79 0 9 16 24 24 32 239 239 239 239 240 234 191 182 177 166 181 184 186 157 137 152 206 197 163 144 140 141 147 138 130 130 133 136 123 123 125 125 127 125 128 129 126 125 125 129 142 161 175 177 172 159 139 129 118 130 147 167 174 169 161 154 146 145 138 138 141 135 128 130 134 133 133 133 137 141 140 142 145 149 150 148 144 116 57 20 8 4 11 90 162 57 3 13 14 13 20 27 241 240 240 241 240 243 207 186 185 171 184 190 185 158 122 105 152 155 127 114 116 117 116 111 98 104 113 116 106 100 107 111 113 113 108 105 107 102 102 100 98 100 106 116 129 131 127 117 108 99 118 162 183 181 168 160 150 147 149 150 146 143 139 136 137 134 136 138 139 139 141 144 146 148 147 145 138 94 46 15 4 4 131 225 162 94 2 9 12 16 22 29 241 240 240 240 240 244 223 189 190 179 187 193 187 167 137 100 71 87 118 113 109 100 94 87 78 89 93 86 82 81 92 85 87 93 86 88 86 81 85 80 83 81 79 75 72 77 81 75 71 75 108 173 183 172 170 165 155 152 152 149 148 145 141 138 137 136 139 141 140 141 142 145 146 146 145 145 128 73 37 10 0 55 220 196 169 140 7 11 16 19 25 36 242 240 240 240 240 241 235 194 190 186 193 195 186 176 166 167 106 65 95 103 85 79 68 51 34 30 45 46 50 46 54 56 51 54 55 59 57 55 53 53 54 58 58 53 40 34 26 24 29 98 171 183 183 169 172 162 154 152 154 149 146 147 143 141 143 139 139 140 140 141 142 145 148 145 144 142 109 59 26 9 5 10 85 134 140 79 6 9 15 23 28 41 240 241 240 239 238 240 242 206 190 191 195 195 185 180 183 195 184 171 145 136 147 155 154 156 150 127 113 98 80 63 75 80 86 92 96 103 117 114 110 103 102 95 92 84 82 82 88 111 132 169 196 189 180 172 170 160 156 154 154 149 147 148 146 146 145 145 143 141 140 140 142 145 145 142 142 131 88 49 18 8 7 0 3 122 36 0 8 16 21 24 33 45 240 239 238 239 240 241 245 220 191 195 194 192 188 186 189 202 212 211 179 160 171 178 192 203 202 202 201 185 171 169 171 174 184 180 169 164 165 148 152 139 136 116 112 107 116 132 157 176 190 198 198 190 178 174 163 153 154 154 149 150 147 146 148 148 145 145 145 144 141 142 144 144 143 139 137 118 74 40 15 8 4 14 165 250 154 0 17 23 23 32 41 48 240 240 240 241 240 241 242 228 194 194 189 192 190 184 189 208 222 220 206 171 155 155 171 179 177 178 183 182 187 184 182 185 184 178 172 164 155 139 130 115 109 106 116 123 143 161 174 186 197 201 194 185 178 172 159 153 152 149 149 147 146 147 148 148 146 144 144 143 142 141 142 141 142 139 132 94 63 35 16 7 0 114 243 195 204 39 13 20 23 28 42 51 241 240 240 239 240 241 239 235 204 193 189 190 192 184 190 213 224 220 217 202 171 157 149 138 140 145 147 154 148 143 146 144 141 136 132 121 112 106 102 107 117 133 138 150 165 167 179 193 201 200 191 179 177 168 158 153 150 150 146 144 145 146 147 149 147 146 144 142 141 140 141 140 141 138 119 76 53 31 15 6 4 62 163 137 186 53 7 16 18 35 49 58 240 240 239 240 240 238 240 234 221 193 192 189 189 183 190 210 219 222 215 211 200 176 154 136 130 128 132 130 122 126 124 117 116 109 105 106 103 108 119 133 142 145 155 164 170 177 188 194 195 195 184 172 172 164 155 151 151 148 143 142 145 145 146 148 147 146 143 142 143 140 139 139 139 131 99 70 46 31 13 7 10 0 48 88 25 14 12 17 32 46 54 62 239 239 239 240 240 240 240 217 212 200 194 189 187 184 191 206 212 219 215 206 201 192 174 154 140 134 125 113 113 112 110 114 114 112 114 119 121 132 140 146 156 152 157 166 175 183 190 192 191 188 179 169 167 161 152 148 146 145 142 144 145 145 145 147 146 145 142 144 144 142 142 140 138 119 84 69 38 28 13 10 2 36 179 200 32 5 15 29 49 50 63 55 239 239 239 239 240 240 237 221 229 209 194 192 187 184 186 200 211 215 215 207 197 191 183 170 153 142 131 118 116 118 114 111 114 116 124 131 140 145 152 154 149 152 161 171 182 187 189 190 185 178 174 168 167 158 151 148 145 143 144 145 148 148 145 145 147 145 143 143 144 142 140 141 134 102 79 65 35 23 8 6 25 195 197 193 77 15 37 45 41 58 58 48 238 237 238 239 240 239 235 241 195 196 200 192 186 182 185 196 208 210 213 210 201 189 178 169 159 146 132 123 125 129 121 115 116 127 136 142 148 149 148 148 149 158 167 175 183 188 187 184 179 174 168 163 164 154 150 146 143 143 145 147 147 147 148 147 146 144 145 144 142 142 141 138 119 89 76 63 38 23 13 7 37 177 181 127 81 39 41 34 43 64 49 51 238 238 238 239 238 237 237 245 220 209 211 191 188 183 186 193 202 207 210 212 210 197 184 174 161 151 146 147 147 146 144 144 144 145 142 143 143 145 150 158 161 167 175 179 184 187 182 178 176 169 165 163 160 151 148 144 144 143 145 147 148 150 149 147 146 145 145 144 142 140 141 130 103 83 76 61 38 34 38 40 35 41 86 74 40 33 26 35 63 58 48 44 238 238 238 239 238 238 240 236 238 167 214 193 188 184 188 193 198 206 208 210 209 202 193 183 172 160 159 158 156 148 143 148 150 153 151 150 153 155 161 165 170 177 179 183 185 182 180 177 169 164 157 162 159 150 146 142 141 143 144 146 149 149 146 144 143 146 145 143 141 140 136 115 94 82 77 60 39 42 45 41 42 79 88 42 26 28 40 62 68 42 37 51 238 238 238 238 237 238 240 235 230 188 227 206 186 183 186 194 198 201 206 208 206 205 199 192 187 179 171 166 160 153 148 150 157 158 161 162 163 167 169 172 178 182 183 184 183 180 175 169 165 163 162 163 155 147 143 142 141 144 146 148 148 145 144 142 144 145 143 144 143 140 123 104 90 82 80 62 40 30 33 43 72 89 63 44 41 55 73 63 37 31 48 57 238 238 238 239 238 239 238 240 210 234 245 223 189 186 187 193 201 201 204 206 207 210 205 202 197 192 188 182 178 172 169 165 166 168 170 171 173 174 172 176 182 184 183 183 180 176 172 166 165 164 166 158 154 150 144 143 144 145 148 149 147 146 145 145 147 145 145 144 142 129 108 102 91 86 85 63 46 41 42 47 73 88 65 67 68 66 52 32 29 43 57 32 239 237 238 238 238 238 239 239 228 200 242 240 205 185 187 192 204 205 204 206 209 210 213 210 209 209 207 204 201 200 195 195 194 194 191 189 189 187 183 185 188 183 184 181 181 176 170 165 165 165 163 159 154 149 146 145 145 147 148 145 146 146 142 144 144 144 145 144 135 114 106 104 94 91 87 67 43 37 42 48 49 81 94 59 51 41 35 34 37 50 35 29 238 238 238 238 238 238 239 237 223 192 240 243 229 190 187 191 201 206 204 207 211 213 214 216 217 215 214 214 212 209 210 208 209 208 204 199 196 193 196 192 188 187 186 179 174 169 169 168 165 165 160 155 149 148 144 144 147 148 147 144 145 145 143 144 143 143 144 135 117 109 109 105 98 95 87 67 44 34 32 27 108 167 180 77 21 30 37 32 44 38 23 44 238 238 238 238 238 238 239 239 209 240 239 239 243 212 183 187 194 205 207 208 212 215 214 215 217 218 217 215 216 213 211 209 210 206 204 206 203 202 198 193 192 188 184 179 172 174 175 168 165 161 156 152 149 147 142 143 145 146 144 142 142 140 140 143 143 142 132 117 109 110 112 108 102 100 91 68 46 33 27 13 125 166 160 100 6 26 28 34 35 23 28 84 238 238 238 237 238 238 238 241 218 211 243 239 241 237 195 182 193 200 205 207 211 215 217 218 216 215 217 217 215 214 211 209 211 211 212 211 210 205 199 195 190 184 184 180 176 175 171 167 161 158 152 149 150 148 144 145 144 145 141 139 137 137 140 141 141 132 116 111 110 113 112 109 104 102 95 73 48 29 18 17 21 123 101 14 25 28 29 28 23 30 44 156 238 237 238 238 238 239 239 235 219 199 244 239 239 242 230 187 186 197 203 206 211 218 217 216 216 216 216 216 214 212 213 214 213 210 210 207 204 201 198 195 190 186 181 179 177 173 168 163 157 152 149 147 148 145 143 142 140 141 139 135 135 136 136 138 129 114 111 108 111 114 114 112 108 101 93 79 54 33 20 24 132 186 195 48 17 20 27 27 36 43 102 219 238 237 238 238 238 238 240 229 213 239 239 240 239 238 243 223 183 190 201 205 205 207 215 215 214 215 215 212 212 212 211 210 211 209 207 205 200 195 192 191 188 187 181 176 173 167 161 157 153 147 143 145 144 139 138 138 137 138 135 134 133 135 135 128 114 111 108 110 115 117 115 112 112 107 99 89 67 39 17 32 205 163 191 97 15 28 45 50 44 87 209 235 238 237 238 238 238 238 238 232 204 235 239 238 239 239 239 243 221 186 195 203 202 205 209 210 210 210 211 209 208 207 207 207 207 203 199 193 189 187 188 185 181 180 176 170 168 161 155 154 148 141 138 140 140 136 135 133 134 132 130 132 133 131 125 115 112 108 109 114 117 119 118 113 112 114 111 98 79 51 27 24 37 133 100 54 50 47 41 34 82 207 243 234 237 237 237 238 238 238 239 238 210 229 240 238 238 239 239 239 244 223 192 196 201 204 206 206 207 206 205 202 202 198 199 200 202 193 191 186 180 180 185 186 178 171 165 163 161 158 152 144 142 140 137 135 134 131 131 129 128 127 128 129 128 125 115 111 109 109 111 114 117 119 122 120 115 115 114 105 93 68 44 20 121 206 139 27 26 19 69 122 207 244 238 236 237 238 237 238 238 238 238 238 240 239 238 238 238 238 239 239 239 243 230 202 191 197 199 203 203 201 198 197 196 195 197 196 192 188 184 176 172 178 185 180 169 165 159 153 152 150 145 139 138 135 134 130 126 126 126 124 123 124 125 124 122 116 110 108 109 112 113 114 116 123 126 124 118 116 116 116 109 87 136 132 171 184 159 82 96 124 204 236 239 238 237 238 237 238 238 237 238 238 238 238 238 238 238 238 238 238 239 240 239 239 242 237 204 189 191 192 191 192 190 191 186 185 187 184 180 181 175 174 180 180 177 171 166 157 153 148 146 145 140 136 130 128 126 122 122 124 124 121 122 122 122 122 118 112 107 110 111 112 114 115 119 127 129 124 125 127 127 123 115 102 192 245 208 199 212 224 234 243 244 237 238 237 237 238 237 237 237 237 237 239 238 238 238 238 238 238 238 238 239 239 238 239 238 241 237 199 183 181 182 182 182 178 177 173 174 173 174 175 173 177 178 173 167 160 154 149 145 141 139 139 130 126 123 121 118 120 121 121 120 120 120 120 123 118 114 110 109 113 113 112 115 118 126 134 133 134 139 138 134 126 124 116 166 244 236 239 245 244 241 238 237 237 238 238 238 238 237 237 237 237 237 238 238 238 238 238 238 238 238 238 238 238 238 239 238 238 242 236 194 174 173 167 167 166 165 166 167 167 169 170 170 168 164 158 155 147 142 141 138 130 130 126 121 119 119 118 118 120 120 120 120 119 120 122 124 115 110 110 112 116 116 116 119 125 134 138 140 147 148 141 134 131 135 132 156 238 240 239 239 239 238 238 239 238 238 238 238 238 237 237 237 237 237 237 237 238 238 238 238 238 238 238 238 238 238 238 239 239 239 242 237 199 168 163 160 153 154 153 152 155 156 156 154 152 147 145 141 138 135 133 129 127 125 121 117 116 114 116 119 119 118 119 119 119 123 122 119 113 110 113 116 118 119 120 126 135 141 144 147 150 149 147 135 133 148 151 147 224 244 239 239 239 239 239 239 238 238 238 238 238 236 236 236 237 237 237 238 238 238 238 238 238 238 238 238 238 238 238 238 238 239 239 242 242 210 170 159 152 149 145 144 146 146 142 141 140 137 136 136 133 133 134 133 128 120 118 117 115 114 117 118 117 119 122 120 120 121 118 114 111 115 118 120 122 120 123 134 140 145 149 149 149 149 149 146 147 161 162 146 208 245 239 239 238 239 239 238 238 238 238 238 238 237 236 236 237 237 237 237 237 237 237 237 237 238 238 238 238 238 238 238 238 238 239 239 241 242 199 178 169 158 150 148 145 143 142 138 136 137 137 140 140 138 137 133 128 125 122 120 121 119 119 119 118 121 122 123 122 121 116 114 117 118 120 125 124 127 132 139 145 147 152 148 149 151 158 157 158 163 164 154 188 245 239 239 239 239 237 238 238 238 238 238 238 236 236 237 237 237 237 237 237 238 238 238 238 238 238 238 239 238 238 238 238 238 238 239 239 238 201 190 184 179 172 168 161 158 155 151 150 149 143 135 124 118 115 117 120 122 127 128 127 125 123 123 122 121 121 121 119 117 117 118 122 123 126 132 134 137 141 147 149 149 151 153 154 158 163 161 159 164 165 159 172 237 242 239 238 238 238 238 238 238 238 238 238
