P2
# Generated by OpenCV 4.2.0
92 112
255
45 125 172 175 144 202 145 135 73 81 54 34 53 53 36 27 9 7 22 26 34 40 51 69 77 93 110 128 141 146 154 160 165 171 179 182 181 182 186 191 191 182 172 169 167 169 178 182 186 188 192 194 193 187 188 181 150 137 139 139 129 110 104 85 73 64 51 64 68 44 60 54 40 44 51 49 47 50 58 67 66 65 64 63 44 55 91 161 231 208 148 161 122 156 176 154 195 182 143 103 74 57 38 57 55 38 26 18 8 16 29 35 46 57 73 88 106 120 137 145 151 160 165 173 177 182 187 189 191 195 196 198 200 198 195 192 192 191 187 188 192 195 199 201 203 204 203 193 177 181 176 168 152 135 114 99 88 74 75 69 51 55 60 40 45 54 45 46 57 59 56 65 70 61 57 59 52 41 59 105 193 207 162 181 151 180 168 184 202 146 132 88 67 37 58 61 40 25 22 13 15 30 37 48 65 86 106 121 135 145 149 157 163 172 179 183 187 191 195 197 201 201 201 200 201 201 201 201 201 201 202 200 200 202 205 205 207 207 208 207 205 205 197 178 165 152 142 121 104 103 85 67 66 63 51 48 45 36 34 47 57 63 69 66 72 68 58 53 59 44 43 63 138 186 171 192 173 182 180 211 163 128 108 87 47 62 67 38 23 26 19 14 26 41 50 71 93 110 127 140 150 159 166 170 180 186 188 195 197 199 199 199 202 204 204 203 201 202 202 203 202 203 204 205 205 206 205 205 207 206 205 208 209 207 202 195 183 171 159 140 119 102 100 90 80 69 62 55 43 34 42 48 53 54 65 76 68 69 69 60 60 59 42 44 96 155 164 186 186 176 208 186 151 112 97 65 63 76 41 31 23 25 16 21 36 52 73 97 112 124 141 156 165 173 177 185 192 193 195 198 202 201 199 201 204 206 206 204 203 204 206 205 205 205 205 206 206 207 207 207 205 205 208 206 208 209 207 203 197 184 168 150 129 116 111 102 91 84 77 69 66 58 41 34 48 52 55 68 72 67 66 60 51 60 50 37 48 94 158 179 170 203 199 167 126 108 88 64 78 42 38 23 32 18 23 33 48 68 93 114 126 140 159 171 177 185 191 193 195 200 203 203 204 204 203 205 206 205 207 205 206 207 205 204 205 205 206 206 206 206 207 205 205 205 207 204 205 206 204 202 201 194 178 165 155 144 133 124 113 98 85 79 67 63 56 53 52 55 55 59 65 72 65 61 59 57 58 42 41 50 135 194 197 209 168 147 118 102 74 81 57 36 26 27 26 19 27 45 63 85 108 126 145 160 172 183 191 193 197 199 199 203 205 205 207 209 208 209 209 209 207 205 207 209 207 207 208 207 207 206 205 208 206 206 203 200 204 204 203 202 202 201 201 201 190 183 177 166 152 141 127 110 93 81 71 65 64 71 66 60 59 58 60 63 67 59 57 57 56 50 37 43 77 166 209 193 148 130 111 89 82 82 44 33 19 31 25 25 41 62 76 101 122 144 159 170 182 190 197 201 205 206 208 205 207 210 211 212 210 209 213 210 208 209 211 211 210 210 209 206 205 207 205 207 208 208 206 204 204 202 202 202 202 202 201 201 197 192 184 173 162 151 140 129 108 88 70 57 54 65 76 72 58 58 50 54 58 60 53 55 55 56 39 31 44 108 204 175 132 108 96 78 102 65 42 18 23 32 28 31 56 70 92 116 141 156 169 182 191 198 200 205 209 210 212 209 211 214 215 214 212 208 210 210 210 209 211 211 210 211 211 208 209 205 204 205 207 207 206 205 204 202 202 201 201 201 201 199 200 197 191 182 166 158 144 139 127 107 84 60 50 48 66 77 66 56 51 46 60 58 55 50 54 53 49 39 35 69 191 151 115 97 93 100 85 55 30 17 28 33 28 44 61 87 116 142 157 166 181 193 197 201 209 213 215 216 216 215 216 214 216 214 209 210 211 211 211 209 210 211 208 208 210 211 210 209 206 207 209 206 206 204 203 203 201 200 201 201 199 197 198 197 193 189 181 169 155 144 134 117 101 71 51 49 54 71 78 59 51 45 49 57 56 52 49 49 51 43 32 43 169 128 96 102 107 107 75 50 17 17 34 28 32 51 74 112 136 156 158 179 195 199 204 210 215 218 217 218 216 215 217 218 218 216 214 215 214 213 212 210 211 212 210 211 210 211 211 210 209 207 208 207 205 206 202 201 200 201 200 201 199 196 195 195 193 190 188 178 164 151 141 123 107 89 60 50 56 60 83 60 44 43 39 49 53 53 50 46 53 54 39 36 146 123 85 107 117 100 85 35 9 21 37 29 42 62 97 125 152 162 182 195 199 204 216 220 215 217 218 219 218 215 217 218 217 217 217 214 213 215 215 211 211 210 211 211 211 211 211 208 207 207 207 208 205 205 202 202 201 200 199 200 198 196 196 195 193 187 186 183 171 157 145 132 113 95 80 50 61 54 77 61 43 35 33 37 48 51 43 48 52 57 47 32 143 109 82 114 120 105 54 12 16 29 37 31 48 81 115 141 161 175 198 202 206 218 226 222 222 221 220 221 220 221 220 218 216 215 216 213 211 215 214 211 212 213 211 211 211 211 209 207 207 208 208 208 205 203 204 203 201 200 199 197 195 194 194 195 192 188 189 187 177 163 148 131 118 94 84 63 62 58 70 57 41 33 34 33 39 51 43 43 51 60 53 37 145 98 87 117 130 90 15 19 17 34 35 31 60 99 127 156 164 191 203 204 218 226 224 221 222 222 222 222 223 222 221 222 219 216 215 214 212 214 213 213 213 214 214 214 214 212 210 209 208 205 206 209 206 203 203 202 201 201 199 198 195 193 192 192 194 192 188 190 186 173 156 132 118 99 80 72 66 59 58 58 40 32 29 30 33 40 51 40 44 50 59 41 120 94 97 120 140 52 14 18 21 34 29 41 73 109 139 161 176 199 205 218 227 226 225 224 225 222 222 223 222 223 222 222 219 218 221 216 213 214 213 215 215 215 215 214 214 213 210 210 211 209 208 209 205 204 203 203 202 201 198 198 196 194 191 189 192 190 188 190 187 179 167 147 125 102 83 69 71 58 49 53 41 28 22 26 27 35 44 46 34 41 50 52 111 100 106 140 117 21 18 22 26 34 31 54 87 115 144 163 191 205 213 229 228 227 227 227 226 224 225 225 223 222 221 220 220 220 221 216 214 215 215 216 214 214 216 214 214 215 214 212 212 206 208 208 205 206 205 203 200 198 200 198 194 193 190 184 188 189 189 187 186 178 171 155 130 109 94 72 71 53 46 42 40 24 20 21 21 33 34 49 36 34 45 53 100 106 114 136 65 14 21 25 28 32 35 61 98 124 150 173 197 210 230 234 229 229 227 221 224 226 224 225 223 222 221 219 223 222 221 219 218 214 216 217 216 214 214 216 215 213 215 214 211 207 206 208 208 206 203 203 200 200 200 197 192 189 191 188 188 188 187 184 183 178 175 160 131 111 96 75 67 50 41 34 33 25 19 20 20 25 32 36 48 32 38 51 79 105 121 113 28 19 25 24 32 29 35 68 110 134 157 182 198 217 236 236 232 233 230 228 228 228 224 225 223 222 221 222 222 223 222 219 218 215 216 217 214 213 217 216 215 214 213 213 211 210 207 207 208 205 203 202 200 201 200 199 197 193 192 194 188 188 187 185 184 178 174 167 144 117 94 82 64 48 37 28 30 27 19 17 19 20 25 31 42 39 32 42 97 103 130 84 19 25 28 24 32 26 39 82 116 139 164 189 209 234 240 237 235 237 233 231 231 230 226 225 223 222 223 223 222 221 219 218 218 216 216 217 215 214 216 217 215 215 212 212 211 209 208 206 203 204 203 201 201 200 198 198 199 196 192 190 191 190 186 185 181 180 176 168 158 129 98 75 67 46 32 24 28 27 21 16 17 19 22 27 39 40 33 38 119 95 136 60 18 27 26 22 30 26 50 91 122 147 175 196 219 240 242 238 240 238 235 232 231 230 227 225 224 224 223 223 222 220 219 218 218 216 216 217 216 213 216 215 213 213 212 211 208 207 206 208 205 204 200 200 201 197 197 195 197 194 189 190 189 188 188 184 183 178 176 171 160 139 112 78 59 47 34 23 25 26 20 15 15 18 21 22 33 39 33 30 105 98 124 48 18 31 26 21 29 28 62 103 130 155 181 199 225 238 241 245 242 239 235 230 227 230 227 225 226 226 224 222 221 222 220 219 218 215 216 217 217 216 217 215 214 212 211 212 208 208 207 208 208 205 204 202 201 198 199 197 197 192 186 188 187 187 187 186 182 177 173 172 163 137 114 97 65 47 40 28 21 24 19 18 13 15 17 21 22 34 38 35 90 103 122 38 20 33 26 25 30 33 76 109 132 161 185 206 228 243 248 247 243 238 232 230 229 227 225 223 224 225 227 223 224 224 219 220 219 216 216 217 217 218 217 216 215 213 213 213 211 209 208 206 207 207 206 202 199 198 199 199 198 195 191 191 187 185 184 185 182 178 175 172 166 147 119 99 77 50 38 34 22 21 22 17 15 12 14 17 20 25 35 34 89 107 128 48 20 35 26 29 31 40 88 112 134 165 190 213 232 242 247 249 246 242 237 234 233 229 225 225 225 224 225 224 222 222 221 220 217 216 217 219 219 216 216 217 215 211 212 213 213 209 208 207 207 207 206 203 200 199 198 199 198 195 193 191 188 185 184 183 181 179 175 175 163 150 136 100 80 61 38 34 24 20 21 16 12 12 15 16 18 23 31 35 96 109 111 52 23 34 24 29 27 49 95 113 141 170 196 216 236 246 251 250 249 244 238 235 234 229 225 224 223 224 222 222 222 219 219 220 216 215 220 217 219 216 214 215 213 213 212 213 213 210 207 208 211 207 204 202 200 202 201 197 197 196 193 191 186 183 186 185 184 179 175 172 168 151 143 115 73 64 45 33 27 20 21 20 16 13 14 14 12 20 29 31 98 109 114 44 30 32 26 30 27 58 100 123 147 172 196 225 239 249 253 252 252 247 239 235 232 230 229 224 222 224 224 223 222 219 218 217 216 215 220 219 218 216 214 215 214 213 213 213 211 209 208 208 208 205 205 202 202 203 201 198 198 196 194 191 190 187 187 184 184 182 175 169 169 157 137 125 95 62 49 32 31 23 17 18 16 14 14 13 14 15 23 30 103 117 111 34 38 38 26 30 28 69 107 129 158 176 198 233 240 249 251 252 253 246 240 237 231 229 228 226 225 224 225 221 220 219 216 215 215 217 218 219 218 212 215 216 214 212 213 212 211 212 211 210 209 206 208 204 203 202 201 199 198 195 194 192 190 189 188 184 182 181 176 174 169 166 144 121 109 72 46 37 26 21 22 19 17 21 18 12 17 21 16 24 114 120 96 32 37 41 29 32 32 78 112 137 166 185 211 237 244 249 250 252 252 247 239 233 229 229 225 224 225 225 224 223 220 218 219 217 216 218 218 219 217 211 213 215 215 213 214 214 212 211 211 210 208 210 207 204 205 201 201 201 198 194 193 190 188 188 188 187 183 178 177 176 169 161 151 125 104 77 53 39 27 20 21 23 24 23 22 15 19 21 14 17 128 118 91 36 38 40 27 27 39 86 118 146 174 188 219 239 244 253 251 251 252 247 236 231 229 228 223 225 225 224 224 221 219 218 218 216 218 218 218 218 215 211 212 213 213 213 215 212 210 212 212 211 208 208 204 203 204 200 200 201 199 194 192 194 192 192 189 189 185 178 176 178 172 163 150 137 112 83 58 42 29 20 14 18 17 15 13 19 22 13 11 16 142 121 93 35 39 39 28 26 44 92 127 158 175 180 223 242 249 249 249 249 249 248 237 233 228 228 227 227 227 227 223 220 220 217 213 215 215 214 214 215 214 210 210 210 210 213 211 211 211 211 210 210 209 207 205 198 199 203 202 198 201 197 193 196 193 195 193 190 189 184 178 174 171 165 156 148 125 93 61 45 31 19 18 18 16 12 14 18 17 16 15 14 147 113 97 36 33 45 35 29 46 92 131 164 181 191 227 240 252 249 250 248 242 247 239 233 227 224 223 224 226 224 221 218 216 211 210 210 210 211 212 211 211 206 206 206 208 207 205 208 211 211 210 208 205 205 207 201 201 203 200 201 201 198 196 198 194 194 196 193 188 184 181 174 168 163 159 149 137 103 63 47 36 20 14 16 16 16 19 15 13 12 15 15 149 101 99 42 34 45 37 29 48 95 140 170 188 200 230 245 251 251 249 244 245 246 237 232 223 219 216 214 217 218 219 214 212 208 208 208 209 210 208 209 205 201 202 203 202 201 204 206 208 209 209 206 204 204 204 201 200 198 196 199 200 201 199 200 200 199 198 196 190 183 179 175 171 163 157 151 134 119 75 46 33 26 19 14 13 17 10 8 9 11 9 10 149 114 104 45 32 45 37 39 50 102 149 172 182 205 228 229 221 223 220 229 238 235 225 214 214 214 200 200 207 209 209 210 207 205 206 206 206 204 205 206 200 196 199 198 199 200 199 203 206 205 204 202 199 194 194 190 185 180 186 188 189 194 196 200 206 205 200 195 192 185 177 174 169 161 158 158 149 129 95 55 37 26 22 15 11 11 10 12 10 9 11 10 158 116 104 45 32 46 34 47 55 111 130 132 144 155 157 152 145 155 152 151 149 149 143 144 152 172 183 172 189 193 199 202 202 201 201 200 198 200 200 199 197 192 195 192 189 187 186 183 162 157 150 149 140 130 132 139 133 113 117 131 146 153 159 173 186 192 200 203 199 189 177 171 165 165 162 159 153 139 114 76 43 28 20 21 13 11 11 14 13 8 8 13 174 121 110 53 28 49 37 53 65 85 89 100 95 120 132 125 99 93 99 97 77 71 76 94 120 127 147 153 159 168 180 196 200 198 199 198 197 196 194 191 190 185 185 177 173 172 162 135 120 112 90 78 70 71 66 62 59 66 68 75 78 82 105 118 117 125 148 177 197 195 181 169 163 169 166 161 155 145 134 103 60 33 20 17 20 16 12 10 11 11 11 10 162 119 105 58 26 47 45 56 52 62 87 94 93 95 105 101 100 94 72 74 79 75 82 85 107 119 114 129 134 145 160 185 196 197 197 196 193 190 188 187 181 180 179 169 160 145 117 108 104 76 65 54 53 52 49 53 56 64 57 54 56 70 88 92 93 100 101 119 153 185 186 170 164 169 167 163 161 156 148 125 84 42 26 17 15 14 14 13 9 9 8 7 154 123 104 60 26 43 47 38 41 64 83 101 117 126 96 77 75 76 69 68 83 81 81 81 93 111 113 118 118 142 157 178 194 197 193 194 190 190 185 183 177 174 171 165 145 125 109 103 79 65 64 55 57 50 55 63 59 52 51 50 66 76 75 83 99 92 91 106 110 139 179 177 170 168 167 165 162 161 158 146 111 64 34 22 11 10 13 11 8 8 8 8 166 127 102 66 27 38 32 23 50 74 82 98 118 133 141 133 128 130 136 122 117 109 102 99 103 114 123 124 129 143 154 178 195 197 200 198 192 186 180 173 167 166 163 155 142 124 106 90 76 80 69 61 55 70 74 60 60 67 73 85 98 99 98 99 107 103 102 109 107 97 118 165 181 170 164 162 165 165 165 157 133 91 47 27 13 12 15 12 10 8 8 8 168 136 105 74 34 34 30 34 72 99 114 126 137 148 153 163 167 179 184 182 165 159 146 143 145 143 144 138 137 143 159 177 195 201 206 197 190 187 178 170 163 162 153 144 137 127 121 106 103 93 83 81 91 93 93 97 111 121 125 127 128 133 134 140 142 137 136 125 120 106 90 97 143 175 172 168 170 168 168 160 145 118 60 33 25 20 17 10 9 6 5 6 180 149 114 85 42 36 29 43 89 120 144 155 161 163 169 172 177 183 185 190 177 174 168 162 158 154 160 164 159 158 176 187 198 207 209 189 187 187 179 170 160 154 145 138 128 132 125 114 106 98 99 105 116 123 136 152 157 156 158 160 156 155 166 169 170 166 150 130 121 113 110 116 107 145 178 175 171 173 170 163 154 131 79 32 24 18 11 9 6 6 6 5 185 153 115 99 49 39 36 55 92 118 138 152 152 163 173 178 186 191 188 188 189 184 182 175 164 156 152 158 158 164 181 193 202 214 207 193 204 193 181 168 156 146 140 135 127 119 108 97 93 105 120 132 150 158 169 179 182 181 177 179 179 173 166 168 168 167 164 153 140 134 124 112 105 126 175 176 177 176 169 167 161 141 102 41 19 17 12 12 10 7 6 7 180 159 126 109 60 42 40 65 101 111 126 152 155 172 186 187 193 187 179 179 180 183 186 183 180 166 152 153 156 151 171 195 205 216 219 214 210 191 177 163 146 137 134 126 124 109 98 101 115 130 142 150 166 172 177 183 181 182 179 175 176 175 169 164 165 170 168 173 166 157 141 131 127 118 161 175 175 173 171 172 166 156 122 55 22 16 14 18 15 11 8 7 176 173 132 111 73 42 46 71 97 104 120 146 156 169 185 184 173 159 151 138 132 132 137 141 152 157 157 152 150 142 146 180 206 217 229 219 200 193 181 164 146 136 133 131 121 108 113 124 137 140 142 139 127 140 149 152 147 149 164 170 177 168 163 164 162 163 161 158 161 163 160 155 142 136 143 173 176 173 174 176 170 162 130 69 28 18 16 12 7 7 7 5 180 174 142 114 87 46 50 74 89 93 110 134 143 147 119 118 97 91 88 88 69 86 105 100 106 114 141 154 148 137 130 154 194 220 235 221 202 196 183 167 150 139 134 128 116 117 136 139 139 135 121 115 128 132 126 113 111 102 118 125 125 137 153 158 167 162 149 146 150 159 163 167 169 164 161 178 180 175 178 177 173 165 134 74 34 19 13 10 10 11 13 23 188 183 148 114 103 51 58 82 85 87 105 128 94 61 49 60 38 37 24 13 15 14 18 40 84 98 108 132 152 139 128 149 192 218 240 233 215 203 186 168 157 143 132 129 118 128 145 150 138 126 126 88 67 27 5 12 15 25 43 50 47 61 79 106 133 153 155 149 152 144 149 162 167 166 168 180 180 181 180 177 173 170 139 71 37 18 12 11 9 16 84 131 176 192 158 105 117 60 52 80 78 74 90 61 25 15 16 10 10 9 14 19 24 40 37 19 13 31 78 90 114 128 127 145 192 215 244 239 219 208 191 174 161 146 142 135 126 144 152 132 122 119 47 8 19 24 29 28 41 24 16 11 16 19 22 34 43 83 118 154 153 158 161 164 168 170 178 181 179 182 181 179 174 164 140 78 38 25 11 7 10 61 163 178 169 193 169 116 111 74 51 93 77 53 39 18 13 13 9 10 27 33 68 61 53 96 84 54 28 52 26 43 85 112 121 142 176 213 242 241 223 212 199 180 159 151 150 137 141 151 142 120 77 15 14 83 104 47 59 45 84 56 41 12 12 11 11 13 21 24 54 102 136 155 156 160 172 179 180 182 180 178 178 177 175 170 141 79 39 29 19 14 33 117 175 180 175 198 178 123 106 93 47 89 91 43 23 9 10 15 28 56 79 101 87 74 72 59 67 73 67 103 85 25 26 82 134 164 192 220 241 239 224 210 196 183 167 155 154 144 154 155 103 36 9 27 63 99 95 75 79 75 61 81 93 81 65 47 27 19 14 18 25 46 86 132 159 167 169 166 163 166 170 171 176 178 177 174 147 81 43 25 24 18 75 150 161 154 181 199 172 122 104 112 71 91 99 79 62 46 58 90 110 141 170 189 174 168 168 166 156 145 143 131 114 86 60 68 168 201 215 224 241 236 224 210 201 185 168 158 158 155 161 152 102 75 88 120 142 135 143 166 172 169 168 165 168 151 125 118 100 71 73 74 90 98 117 154 163 160 160 158 159 164 172 178 181 181 179 176 150 79 48 32 21 28 113 128 113 96 184 207 177 137 104 104 86 105 112 112 114 117 116 137 157 173 198 200 198 197 186 184 172 169 173 172 170 175 189 194 203 214 221 226 239 232 224 215 202 185 169 156 162 166 163 168 176 169 161 155 157 162 175 183 182 184 184 179 178 168 156 158 148 139 154 159 168 180 178 183 187 190 192 190 188 187 184 182 183 182 176 171 152 88 48 37 26 58 123 115 127 136 184 206 173 140 104 111 99 119 126 136 144 146 150 155 168 174 177 177 181 178 174 169 167 174 169 167 177 184 190 200 213 223 223 230 238 231 221 213 200 183 172 160 161 168 167 160 161 158 146 140 141 146 155 163 167 166 158 158 156 157 164 160 159 162 167 177 187 195 196 197 200 198 193 191 187 182 178 175 176 176 176 171 156 102 53 46 50 98 141 150 160 163 168 208 179 141 111 120 98 114 128 143 153 157 167 169 174 177 177 174 175 169 165 162 159 154 153 160 171 178 193 208 222 226 225 234 238 230 220 211 201 188 176 164 162 170 169 165 165 167 160 149 143 141 141 142 150 161 162 159 167 170 167 162 167 173 181 190 197 200 201 201 201 198 193 193 189 183 182 177 175 178 178 173 156 106 71 80 94 123 154 183 183 173 165 207 175 143 130 124 94 106 131 145 158 163 167 167 162 157 153 156 161 163 162 163 167 172 179 186 187 196 209 217 223 225 228 237 238 229 219 211 200 188 176 168 165 167 170 176 173 170 173 172 167 162 158 150 145 142 145 149 151 154 159 168 177 185 191 194 193 191 195 198 199 199 192 193 193 188 184 176 174 177 178 170 151 112 91 107 125 140 162 185 192 175 172 201 174 133 136 115 101 101 131 144 163 173 182 185 186 185 186 187 185 191 194 195 199 203 203 205 208 214 218 225 226 225 231 238 238 228 217 209 201 189 178 173 169 167 171 178 184 184 182 181 180 182 185 187 182 183 187 189 193 194 197 201 200 203 203 203 204 201 198 196 193 194 192 193 193 189 186 179 176 177 174 166 150 120 117 123 123 145 178 187 198 182 161 197 171 126 136 112 113 100 134 155 169 180 192 196 199 200 202 202 203 204 204 203 203 204 209 211 215 217 221 227 227 227 234 240 237 227 217 208 202 192 181 179 177 174 179 181 185 187 191 192 192 192 194 197 199 202 204 204 203 202 202 200 199 200 201 203 206 204 204 201 197 192 189 188 186 187 184 181 179 176 173 163 147 125 125 122 89 128 176 190 200 188 154 195 160 124 146 118 118 114 137 155 175 187 195 197 199 199 201 203 206 208 208 208 211 210 213 214 218 219 222 227 229 231 237 241 236 229 216 209 203 192 182 180 181 182 182 188 189 193 197 200 200 201 202 203 206 209 207 205 203 203 203 202 201 202 204 204 204 205 201 198 194 188 185 183 182 184 183 181 178 176 171 163 147 125 123 109 87 122 163 187 197 189 165 194 148 125 153 123 119 128 140 163 180 189 197 199 200 203 207 211 212 212 213 215 217 216 219 220 222 224 224 227 231 235 240 241 236 227 217 208 202 191 184 181 183 185 187 191 195 198 199 199 203 204 204 205 210 212 210 209 208 208 206 206 207 208 206 205 204 202 199 196 192 185 181 181 182 178 178 181 177 173 166 160 146 124 130 122 105 132 165 183 189 188 171 191 149 126 143 127 121 138 147 168 183 193 198 202 209 211 213 215 215 216 218 218 218 221 224 228 232 234 230 231 237 238 242 242 237 229 219 208 202 194 184 180 181 182 182 186 191 196 198 200 202 203 204 206 208 209 212 212 211 213 211 209 209 210 208 206 202 201 199 194 188 186 182 178 178 176 175 178 176 170 161 160 141 133 156 147 126 138 161 175 187 192 171 177 145 124 137 135 120 145 153 173 187 196 203 207 211 216 215 216 216 218 219 221 224 228 230 231 233 236 241 240 239 240 243 241 236 228 218 209 202 196 188 182 177 175 174 176 176 181 189 197 199 202 205 207 206 205 209 211 213 215 213 212 209 209 208 206 203 198 198 197 189 185 183 181 179 175 175 176 175 171 159 154 135 149 176 166 148 146 160 174 186 196 156 165 143 125 143 149 118 149 163 178 192 200 206 210 215 218 215 217 217 219 219 223 226 223 216 210 206 226 243 243 239 240 240 239 233 224 217 210 203 199 192 183 171 172 174 173 175 169 170 178 191 199 204 206 205 203 207 210 212 212 213 213 211 211 209 206 202 199 198 195 190 186 182 181 178 174 172 176 175 170 157 149 132 163 182 182 180 165 169 178 186 198 154 155 148 129 145 157 125 154 171 183 198 202 205 210 215 215 218 217 218 220 218 217 212 204 191 181 202 232 236 237 239 239 239 235 229 223 216 209 204 201 195 185 170 173 180 182 182 171 160 156 167 184 195 202 204 205 207 208 210 212 213 212 212 213 209 203 200 199 196 192 188 186 182 182 179 175 173 172 171 169 154 141 144 181 182 185 201 192 178 181 190 199 155 163 154 133 143 153 139 159 177 187 197 201 203 208 213 214 217 216 217 213 206 199 191 179 159 166 218 233 230 231 240 242 240 234 231 224 215 207 204 201 196 186 175 180 189 192 185 172 160 149 141 150 170 185 196 203 205 205 205 209 210 213 210 207 208 205 201 195 189 188 187 185 184 183 178 176 175 171 168 170 156 139 153 182 175 186 206 195 175 179 193 196 168 171 157 145 145 151 140 164 180 185 198 201 200 202 208 210 211 210 209 200 190 177 162 143 132 169 223 231 232 234 242 249 242 234 227 221 215 208 203 200 195 187 178 184 193 193 191 181 159 145 139 128 133 154 176 187 194 195 195 202 206 205 203 203 202 202 199 191 185 186 184 185 185 182 177 175 174 173 171 168 157 148 167 180 183 198 193 174 170 183 198 184 181 175 152 157 148 151 142 167 179 183 193 198 194 198 201 204 203 198 190 182 172 154 134 121 127 178 226 230 233 237 245 254 248 234 222 216 213 208 201 195 188 178 176 183 189 190 187 181 155 133 148 143 122 122 145 167 178 184 186 191 194 194 194 194 196 195 190 187 185 183 182 182 181 180 175 175 171 172 168 164 159 156 172 177 172 173 181 173 189 204 196 172 182 176 146 165 149 152 140 166 174 178 186 193 188 190 194 192 191 187 178 163 148 130 118 130 148 176 227 236 241 245 251 255 254 234 217 214 212 204 193 184 174 165 166 173 174 173 171 165 139 138 161 157 145 122 116 139 160 172 179 183 186 187 187 188 188 187 183 182 181 179 178 178 177 177 174 173 171 169 165 164 160 159 177 167 137 163 192 196 201 191 165 179 176 175 145 165 149 140 131 159 169 173 180 186 184 183 185 185 180 173 157 145 129 115 131 159 185 186 213 227 236 239 240 243 242 222 208 208 200 187 174 164 155 149 150 153 152 151 149 136 132 163 169 165 163 153 124 112 133 153 168 175 176 182 182 181 183 180 174 177 177 177 176 171 156 171 171 168 170 167 161 163 163 162 170 178 187 196 203 202 182 148 170 182 179 174 149 157 158 129 124 146 161 168 172 177 180 178 178 176 166 154 141 128 117 132 164 189 202 204 196 200 201 206 210 212 213 206 195 189 181 164 148 139 134 131 128 122 111 115 116 119 155 177 177 175 172 167 158 130 110 133 153 164 171 173 175 176 176 176 176 173 175 176 174 169 160 165 168 163 161 162 157 160 165 165 167 178 198 204 202 204 183 173 196 146 185 175 157 158 157 117 121 137 151 161 164 165 171 170 163 161 156 142 126 117 131 159 188 196 207 213 202 195 190 192 185 196 202 199 186 177 159 140 128 122 112 91 73 67 71 92 122 148 173 176 178 177 174 170 165 158 129 110 134 151 160 166 171 170 170 170 171 167 166 170 168 168 166 165 162 156 156 157 155 161 168 171 180 183 196 204 205 202 195 198 200 87 176 169 163 169 160 112 118 130 143 152 158 162 161 160 151 149 142 127 117 133 154 179 194 199 203 211 211 219 225 221 211 217 212 198 179 161 142 129 121 103 77 82 104 120 137 151 163 168 172 171 173 174 172 171 167 159 156 127 108 133 149 154 161 165 162 163 161 158 158 161 161 164 162 160 157 155 150 150 156 163 167 178 192 193 200 207 210 204 195 198 159 22 180 171 163 163 154 118 122 125 136 143 148 158 156 153 150 142 128 115 133 149 163 186 196 201 203 211 210 224 239 246 250 242 218 200 178 149 129 121 110 97 114 137 147 156 162 165 166 168 168 168 172 174 176 175 170 162 154 147 119 106 135 146 152 157 158 159 157 155 152 153 153 155 155 153 152 152 147 147 153 164 165 177 197 196 203 207 207 207 196 198 92 1 191 176 165 155 141 120 129 121 129 137 138 146 152 147 141 132 118 129 144 153 165 187 199 205 207 215 212 221 234 236 235 225 209 197 190 163 132 113 107 119 139 145 146 155 162 167 167 171 174 173 178 177 175 174 174 169 156 147 141 114 109 135 147 151 157 156 153 149 147 146 145 148 148 148 147 149 148 149 153 166 158 166 192 194 194 145 167 207 195 188 55 5 197 179 166 159 133 104 130 124 123 128 132 139 142 139 131 123 127 144 142 158 171 192 203 206 208 214 212 218 224 222 219 211 201 190 180 171 148 126 129 133 136 140 151 157 165 171 173 174 178 179 182 179 175 175 176 173 163 156 144 132 112 116 137 149 153 153 150 145 143 143 142 145 144 142 144 145 143 148 154 167 148 153 184 190 166 109 83 174 196 143 22 18 206 174 160 165 132 90 118 132 125 125 133 135 136 134 129 124 141 140 142 163 175 194 200 203 207 207 211 218 216 210 206 201 191 177 168 156 148 141 138 142 147 157 165 169 172 174 173 174 177 180 178 177 178 176 174 171 165 160 150 136 124 110 123 141 148 150 146 140 140 139 138 140 142 144 142 142 143 148 156 166 127 145 183 165 122 90 72 129 179 58 8 24 209 179 152 160 118 79 104 126 132 130 131 133 133 134 128 135 146 139 144 160 174 190 200 202 203 207 220 225 221 216 210 207 204 196 185 178 176 177 177 178 183 183 179 177 174 172 168 165 166 169 166 168 172 170 169 167 161 156 149 140 129 120 119 133 145 146 145 143 143 137 132 135 139 144 142 142 146 153 158 160 82 129 174 163 143 113 93 102 78 18 19 18 210 175 142 156 108 72 93 124 129 136 135 131 133 136 131 139 142 134 147 157 166 183 188 194 196 213 235 228 213 210 205 198 193 191 190 191 192 187 179 173 168 171 167 161 163 169 166 156 149 145 145 145 148 151 154 158 156 149 141 134 128 119 126 130 140 146 146 143 143 139 136 136 141 145 144 144 148 151 162 155 27 91 149 163 159 95 86 54 19 23 18 16 211 161 144 160 101 68 89 118 126 130 132 138 141 137 133 139 135 125 140 149 158 162 159 164 168 177 189 189 188 185 183 178 170 168 166 164 159 150 139 138 138 136 135 136 142 141 141 130 123 120 118 118 117 117 123 134 140 140 135 130 125 117 128 142 141 146 145 142 125 142 146 144 148 148 145 148 151 153 163 142 8 28 90 128 164 94 82 32 19 24 16 20 204 148 152 154 99 61 86 109 123 131 131 141 151 146 139 145 131 122 131 135 130 121 113 107 108 116 125 135 143 144 144 138 142 143 140 141 129 128 122 120 123 116 113 112 111 109 110 102 96 93 86 80 76 76 80 87 105 122 123 124 121 101 128 151 149 150 143 141 139 150 153 154 153 149 147 153 156 155 166 112 2 86 41 70 119 101 96 20 27 27 17 19 196 140 156 136 94 57 83 99 116 135 140 140 153 154 143 152 128 108 107 105 80 53 32 31 44 68 98 105 94 98 104 101 111 110 107 110 103 97 95 99 97 86 82 87 84 80 76 82 86 68 56 51 48 43 35 34 40 58 86 105 114 94 131 160 158 154 148 146 150 155 159 162 158 152 152 155 156 156 169 90 0 36 46 66 62 164 181 37 24 26 20 19 187 142 152 123 91 53 84 98 108 136 148 145 156 164 153 156 133 93 82 58 32 10 8 51 77 108 142 172 158 155 149 136 129 148 137 120 106 97 94 101 101 92 89 91 91 112 115 125 124 111 106 96 94 84 73 52 20 11 44 63 93 105 146 167 168 159 154 154 155 160 163 163 158 153 155 157 156 157 166 61 3 5 20 17 49 210 166 59 19 24 19 17 157 146 142 113 87 45 86 94 100 130 156 154 160 172 166 162 151 122 83 33 36 26 17 68 105 128 165 194 194 191 189 190 204 211 195 189 173 166 168 172 168 161 161 155 143 151 154 150 149 123 120 118 92 104 82 99 43 28 51 50 95 131 161 171 171 163 158 160 163 164 165 163 158 156 158 157 156 158 156 34 9 6 7 1 74 202 206 97 12 19 18 21 146 145 135 106 76 41 84 91 94 124 154 164 157 171 176 171 167 157 121 51 50 45 26 87 170 157 177 230 186 162 215 204 206 217 235 221 195 186 196 219 218 179 158 166 188 154 134 185 195 118 141 147 112 165 127 126 58 64 68 78 134 152 171 175 176 167 165 169 167 166 166 164 158 159 160 156 157 161 134 18 8 8 10 5 43 190 172 52 20 20 16 24 159 138 123 101 66 41 77 83 94 111 147 162 162 170 181 176 174 172 162 104 69 62 41 74 198 202 201 245 221 179 236 229 192 238 254 247 210 181 221 248 240 202 144 183 224 170 152 217 204 134 180 176 166 172 141 105 68 82 96 140 170 168 176 178 177 171 172 172 169 165 162 162 161 161 161 157 158 164 106 4 10 7 16 12 27 105 143 22 23 21 20 23 165 137 122 99 54 57 70 74 94 103 138 157 162 171 180 181 175 177 174 160 116 85 70 49 152 201 210 229 234 221 247 243 212 248 253 249 226 203 246 247 237 215 169 212 228 187 192 221 201 175 187 175 168 138 90 84 87 111 146 175 178 178 176 181 176 173 174 172 169 165 163 164 162 162 160 157 158 163 76 3 11 5 17 17 25 85 161 81 8 21 23 20 156 132 111 100 48 75 50 66 90 102 122 148 158 170 181 182 176 174 177 175 166 127 106 86 106 161 194 218 221 233 243 235 227 252 248 239 222 214 242 231 226 215 194 218 216 199 194 203 197 165 171 130 108 109 89 106 129 160 181 182 184 179 176 182 178 174 174 171 163 164 163 165 164 163 159 156 158 155 37 6 8 8 14 21 46 159 224 150 16 31 18 21 131 131 102 90 60 69 33 59 88 102 113 137 151 163 179 181 177 179 178 176 175 161 131 120 109 121 147 194 209 173 224 223 224 246 240 228 214 211 225 222 215 207 196 216 210 170 165 200 186 102 129 113 108 122 123 136 169 184 185 189 186 177 182 184 179 175 175 167 162 164 163 164 163 161 159 158 161 127 9 13 5 8 15 15 72 210 146 118 102 71 8 24 120 123 99 83 71 39 31 51 83 99 112 127 146 154 175 183 177 180 180 182 176 171 153 130 135 141 129 144 152 93 132 136 108 212 223 207 194 174 197 197 192 174 106 127 133 90 90 147 133 112 128 133 136 133 145 162 177 186 186 188 182 178 185 183 175 173 171 165 164 163 163 161 161 158 158 157 165 84 1 14 4 10 18 13 86 188 126 42 53 11 18 22 124 110 99 81 67 23 31 40 75 93 112 123 138 147 165 181 181 182 179 178 177 175 166 149 151 155 163 156 152 159 145 140 129 153 163 147 133 105 124 131 131 116 95 98 110 126 141 137 138 148 148 141 137 142 164 169 183 186 185 183 176 179 187 182 173 171 168 162 163 163 162 160 158 156 157 156 151 38 5 16 5 8 16 18 104 128 70 37 40 15 18 19 127 95 99 85 42 27 35 32 66 90 107 121 130 141 155 178 184 183 179 174 179 177 169 164 159 162 165 171 179 180 187 189 189 183 179 181 176 174 167 171 168 165 167 162 164 164 164 155 154 148 141 138 147 161 167 177 185 186 181 176 177 183 187 179 173 168 163 163 161 162 160 159 156 156 155 158 114 7 9 18 10 5 17 22 90 129 69 57 62 13 19 12 107 98 98 88 32 32 41 30 54 84 100 118 127 135 146 166 185 183 179 174 177 181 172 168 176 168 171 181 200 206 202 194 192 190 188 188 187 189 185 185 181 181 181 177 171 163 150 142 139 129 136 152 162 165 171 182 184 182 178 179 181 187 181 172 169 164 160 162 163 161 158 157 156 154 152 152 57 2 14 9 12 13 19 15 79 173 131 129 64 36 15 9 93 103 88 75 54 41 43 28 45 74 91 110 124 131 139 155 180 183 176 179 181 182 179 173 186 184 170 173 198 202 193 191 182 184 179 181 188 193 185 184 180 173 164 161 154 142 133 128 125 141 155 158 162 168 177 184 182 179 179 183 185 188 175 169 164 160 159 161 162 159 157 156 155 153 152 113 12 8 12 7 4 11 30 17 144 198 135 83 20 24 16 12 99 97 80 51 44 50 36 24 38 62 82 103 119 127 130 146 174 190 176 178 182 183 179 174 187 189 184 177 179 179 176 174 172 174 169 168 170 169 171 168 158 147 137 131 127 123 124 134 148 160 163 161 166 174 180 181 181 182 185 185 188 183 171 164 158 158 161 161 159 154 153 155 152 150 152 52 1 15 12 7 5 7 16 47 138 197 170 38 6 15 19 17 91 89 66 43 43 39 36 19 38 52 61 93 111 126 127 134 164 189 181 176 183 185 185 174 185 190 190 188 187 187 176 166 160 157 153 151 141 137 135 132 127 122 121 122 126 137 148 158 162 163 161 163 169 175 181 182 182 185 184 184 187 176 168 159 155 159 162 161 158 154 152 151 149 150 110 8 8 18 9 7 5 10 15 28 131 198 156 31 18 29 22 18 94 82 60 39 42 39 38 21 29 52 33 81 101 117 129 128 144 181 186 178 190 186 189 180 185 193 190 183 186 195 192 185 174 158 145 144 145 141 132 127 125 131 139 145 150 158 162 163 163 160 159 165 173 179 183 185 186 184 183 185 181 171 163 156 157 160 161 158 157 155 153 149 145 137 44 3 8 21 7 8 6 11 18 12 70 135 127 6 17 21 15 12 90 70 60 48 33 29 42 19 22 53 8 58 91 106 122 128 131 162 187 176 185 187 190 189 190 193 195 186 179 185 192 191 183 173 171 165 164 161 154 152 151 154 156 157 156 158 158 155 154 159 164 169 179 184 186 188 186 182 184 183 175 166 160 155 156 160 158 155 153 151 146 141 140 107 21 5 8 21 7 7 9 14 18 21 25 30 14 9 21 17 12 14 67 78 55 52 29 26 46 12 19 47 2 21 76 99 114 127 126 143 178 185 183 186 188 196 198 193 197 196 186 178 182 184 182 179 178 175 172 165 158 162 159 156 157 157 158 152 154 154 157 162 169 176 183 187 189 188 183 182 181 178 168 161 156 155 158 157 154 152 147 145 139 134 132 92 22 6 8 17 12 6 8 18 19 23 29 23 13 17 24 17 12 17 57 72 51 52 26 24 54 15 18 44 8 1 41 88 104 119 125 129 162 186 187 186 187 196 204 197 198 197 191 186 183 184 187 183 180 176 169 161 161 162 160 158 159 157 156 156 159 161 163 167 174 181 189 189 189 183 181 180 175 170 161 155 153 156 156 154 151 148 145 138 133 130 123 85 20 6 7 11 14 11 13 24 17 22 34 28 15 18 21 24 16 25 75 67 50 52 27 26 45 15 25 43 10 1 6 61 94 106 123 122 138 176 189 185 180 196 208 204 202 200 197 195 191 189 191 191 190 185 179 170 170 169 170 170 167 164 164 164 168 167 169 174 181 191 194 192 186 180 179 176 171 164 157 152 152 152 152 150 144 142 138 128 128 122 121 83 18 6 9 12 11 18 17 15 16 24 38 29 14 12 14 26 13 18 64 70 63 48 13 39 35 12 32 40 14 4 1 18 72 97 115 123 123 157 188 191 182 194 210 211 207 204 204 201 197 198 199 198 200 199 195 189 186 187 188 187 184 184 179 178 177 173 177 183 193 200 194 188 182 179 176 172 163 157 153 148 149 150 147 142 142 138 130 127 123 123 127 74 14 7 10 10 9 11 17 17 21 31 38 29 14 11 15 20 22 20 56 70 66 35 15 52 25 15 33 36 17 6 3 2 23 81 104 120 119 135 178 191 186 192 209 214 212 209 210 210 208 207 208 209 209 208 207 205 204 204 202 200 198 195 191 190 187 186 192 197 200 198 191 183 181 178 171 165 155 152 150 147 143 146 143 139 136 128 126 125 123 131 128 74 12 6 10 12 10 11 16 12 19 31 36 29 14 10 16 12 20 22 58 72 67 20 38 48 24 21 25 34 21 7 4 6 1 32 87 107 118 118 162 186 184 189 207 211 216 214 213 215 216 215 218 217 217 216 214 213 212 211 210 207 204 200 200 197 196 198 199 198 196 193 186 179 176 173 165 156 148 146 146 142 143 143 138 134 127 125 125 125 133 135 127 71 10 4 10 16 13 10 15 14 17 28 40 34 16 8 16 12 17 14 69 78 40 23 50 39 23 27 23 32 15 11 3 8 2 2 39 94 111 113 137 176 178 182 203 210 217 216 217 217 224 225 222 222 221 219 218 214 213 212 211 208 207 206 203 202 200 199 196 193 190 187 182 176 172 166 155 145 144 144 143 139 139 135 131 125 125 124 126 135 138 135 128 68 8 4 9 19 17 9 15 16 16 27 38 38 17 6 17 18 10 20 76 64 21 37 50 28 23 31 23 29 13 12 3 7 4 1 2 45 97 109 114 157 175 180 198 210 216 217 217 222 229 226 222 222 221 216 215 214 214 213 209 209 207 205 203 198 195 195 193 192 188 183 176 171 161 153 144 139 140 141 139 136 132 128 125 124 124 128 137 142 143 140 132 59 5 3 7 14 20 13 13 12 16 29 32 38 20 5 14 20 13 16 65 62 26 53 28 17 35 29 24 28 10 12 5 6 4 4 1 10 54 94 102 128 164 175 197 206 211 211 218 228 229 225 223 220 217 214 212 210 212 212 211 209 202 199 199 191 189 188 190 188 182 175 169 163 151 143 138 138 135 136 133 131 128 125 124 123 129 137 145 150 149 142 130 57 5 4 6 14 19 17 12 15 15 33 31 31 28 9 10 22 14 16 65 59 41 40 22 23 37 28 29 28 15 13 9 7 4 6 4 10 25 55 88 103 142 168 191 201 207 208 218 224 224 220 217 215 212 211 211 210 210 210 208 203 198 196 194 188 185 186 184 180 171 166 159 153 143 137 133 133 132 131 127 127 125 123 121 129 140 146 154 156 146 144 129 55 4 6 3 10 15 17 16 15 17 33 29 29 26 15 8 21 18 17 69 63 50 24 25 34 30 34 37 23 19 18 12 9 5 5 6 7 25 35 54 81 108 147 174 195 198 204 210 217 219 214 212 210 206 205 203 203 203 202 200 194 194 191 186 184 183 183 178 170 161 154 151 142 134 131 131 129 128 126 126 125 121 122 131 145 152 156 160 152 149 149 126 50 4 5 5 5 9 15 16 16 19 34 30 32 26 19 11 16 26 22 75 68 40 15 32 36 30 30 38 25 10 12 12 11 8 4 4 8 23 39 43 54 74 109 156 183 190 195 199 207 212 209 205 199 197 198 195 196 196 193 187 185 184 181 179 178 178 174 169 161 152 146 141 133 129 129 128 126 124 121 121 120 122 134 151 160 162 163 157 152 159 148 127 51 7 3 5 7 5 11 17 15 22 39 34 34 32 19 13 10 25 30 79 61 28 20 35 41 31 25 29 29 15 8 15 9 8 9 5 7 24 40 48 54 57 66 105 164 184 186 190 197 204 203 197 195 192 189 190 189 188 185 183 180 175 174 175 170 168 162 156 150 145 138 132 128 126 126 122 120 118 119 120 126 139 154 162 166 168 162 158 161 159 148 126 59 6 5 5 7 8 11 18 18 18 38 41 31 42 20 19 13 16 34 76 46 27 26 42 43 26 25 27 26 23 9 15 12 7 8 12 7 20 39 52 58 61 60 60 101 161 180 182 188 196 196 193 191 185 183 184 181 180 175 176 172 167 168 165 158 153 151 147 146 137 131 124 121 120 117 114 114 119 123 133 145 157 163 167 171 166 161 168 165 158 146 125 64 8 2 4 3 9 15 18 20 14 28 47 27 47 26 23 16 12 23 58 41 30 40 32 39 25 26 29 22 25 19 11 13 6 8 8 11 26 40 54 62 66 68 67 59 85 145 171 177 183 186 185 182 180 180 179 179 174 170 172 168 161 159 153 149 148 145 141 132 122 116 111 112 113 112 118 121 128 137 150 159 166 170 173 169 166 170 169 167 158 146 119 64 15 1 3 2 8 16 15 23 16 23 42 29 42 37 14 19 13 13 54 33 50 43 31 37 27 29 27 23 25 27 12 11 10 8 11 9 27 45 58 67 72 75 76 71 64 75 121 152 166 174 178 180 176 174 174 170 168 164 162 155 151 146 143 143 140 133 120 109 107 110 113 114 118 122 129 135 140 148 158 165 171 175 172 168 175 173 171 168 158 145 117 68 27 0 4 2 8 15 12 23 24 31 43 29 25 55 20 14 18 15 60 30 47 37 36 35 28 33 29 24 26 28 20 10 12 9 13 11 23 39 60 71 76 79 80 79 76 71 72 91 119 136 150 161 162 159 160 157 155 151 146 140 138 134 133 127 117 108 104 107 113 116 116 119 124 133 138 143 151 160 167 171 179 177 170 177 178 175 175 168 159 145 117 73 46 5 2 5 7 16 15 20 29 32 49 36 16 40 48 18 16 18 53 46 48 32 45 31 31 40 31 26 28 25 23 11 10 11 16 16 26 37 57 70 80 83 84 86 82 78 75 75 77 87 100 112 119 126 127 128 131 130 127 124 118 114 111 107 104 107 112 117 119 118 122 129 136 143 149 155 161 169 174 177 179 176 179 180 177 176 175 168 157 145 115 75 63 17 1 8 7 19 18 22 29 26 42 54 36 27 51 33 31 26 44 40 37 35 49 31 33 42 30 31 36 25 28 19 9 14 14 24 34 35 57 71 82 93 93 95 92 87 84 83 79 82 88 92 96 94 94 97 102 103 104 106 105 108 109 112 114 118 120 124 128 132 140 147 151 155 159 165 170 175 177 179 174 179 182 178 175 179 176 168 156 141 113 80 71 36 2 7 7 16 21 19 25 24 34 50 55 38 44 46 29 31
