P2
# Generated by OpenCV 4.2.0
92 112
255
60 65 69 79 71 72 44 47 66 59 58 56 64 68 54 55 59 54 52 48 41 50 57 50 48 41 43 58 40 43 42 61 58 26 45 53 67 81 84 91 93 99 110 119 125 142 152 162 179 177 168 152 130 102 86 84 85 88 75 66 62 56 51 49 49 54 45 32 28 41 59 66 45 57 48 70 87 95 108 112 107 111 107 97 103 105 134 193 201 199 202 204 62 70 77 74 76 63 39 58 62 59 54 55 63 65 58 54 54 57 54 44 43 57 55 50 42 38 46 59 39 43 44 59 51 42 66 78 87 97 102 114 123 120 123 140 152 161 167 172 181 182 178 174 157 134 112 97 86 77 75 81 77 65 63 57 54 51 41 28 27 30 36 56 60 59 50 53 79 93 99 105 104 108 109 103 100 106 109 159 204 203 204 204 69 72 76 72 77 52 45 63 60 60 56 52 66 58 56 52 53 58 54 45 48 62 51 49 45 39 49 55 41 46 50 57 52 65 89 101 113 118 129 134 142 161 158 157 168 178 180 186 186 181 179 183 177 166 153 137 117 106 97 95 90 83 83 82 76 62 50 38 28 24 25 35 57 56 56 53 58 83 95 99 103 103 106 111 100 102 106 119 178 203 203 204 73 77 72 75 69 46 57 62 61 57 49 60 62 56 53 48 57 59 51 44 50 62 54 50 50 41 53 50 48 49 52 60 65 91 113 123 133 139 147 156 160 168 181 184 185 186 189 192 189 186 183 182 181 176 171 167 152 138 127 120 113 107 98 98 95 90 84 68 48 34 24 26 40 51 46 57 62 67 86 96 101 99 101 106 111 104 108 104 135 192 202 203 81 81 75 82 53 48 64 58 58 51 52 65 56 60 49 57 58 60 50 49 59 60 54 54 50 42 64 49 51 46 55 70 95 131 144 150 163 176 175 173 178 182 188 192 192 194 193 192 191 191 189 184 183 184 178 174 171 163 157 150 143 142 141 138 133 133 122 108 93 65 48 33 29 48 56 35 56 66 75 84 96 95 100 104 107 108 107 107 118 162 199 202 86 85 79 68 46 64 61 58 56 46 50 66 62 54 52 61 57 61 51 60 61 50 59 60 49 46 60 49 57 49 59 75 113 145 158 168 177 187 189 188 191 191 191 193 194 194 193 193 192 191 190 187 186 188 184 181 177 173 173 171 168 165 162 158 153 149 146 137 125 113 90 59 36 31 55 51 36 56 68 81 87 90 97 103 98 105 103 105 105 132 178 202 84 80 73 54 60 70 59 65 55 46 59 68 65 50 64 59 56 61 53 55 56 49 66 63 54 48 59 53 55 51 63 82 127 156 166 173 179 185 191 195 193 193 192 193 194 193 194 193 192 191 192 190 189 189 186 180 180 179 179 177 176 176 172 170 167 164 159 154 140 124 114 108 75 40 35 57 45 46 60 71 78 86 91 97 95 100 104 101 100 111 154 192 80 86 66 50 69 62 63 63 49 50 60 63 56 52 65 56 61 61 55 55 59 57 70 68 56 49 55 57 53 51 63 92 143 163 172 175 183 182 189 193 192 192 192 192 192 192 191 191 191 192 192 190 189 188 186 182 182 185 183 180 179 178 177 176 172 171 169 163 157 146 122 116 114 80 38 43 56 45 55 64 67 77 90 93 93 94 100 100 100 101 131 172 84 88 60 59 67 64 67 55 46 56 55 62 50 56 67 59 64 57 51 59 62 64 67 68 52 47 53 64 53 57 69 105 151 164 172 181 189 190 192 194 192 192 193 193 194 193 192 192 190 192 191 189 188 187 187 184 185 186 186 185 184 182 181 179 176 174 173 171 168 159 150 131 116 103 71 36 49 47 51 57 68 71 85 96 93 93 94 101 99 101 106 156 91 70 54 61 66 67 66 49 45 52 60 60 52 59 65 58 62 52 49 65 67 63 66 66 50 50 63 64 56 64 74 114 157 169 176 185 189 194 192 194 194 194 194 193 193 190 191 192 191 191 192 191 189 187 186 185 186 187 186 185 185 186 185 183 181 179 176 174 170 165 160 150 133 119 94 54 41 50 41 56 53 65 76 92 91 96 89 94 100 101 98 133 90 60 55 65 71 66 63 44 48 53 61 57 56 58 61 59 62 53 54 66 67 65 67 58 49 48 63 63 58 62 76 126 164 172 180 186 190 193 193 194 194 195 195 194 194 192 191 191 191 193 194 192 192 191 189 186 188 190 188 188 187 188 186 186 185 186 182 178 172 171 164 154 144 133 112 85 46 47 42 51 56 54 72 85 96 94 96 85 94 95 98 114 77 57 61 64 73 68 54 42 51 52 63 58 59 59 63 58 60 56 60 64 63 62 68 63 47 51 61 63 58 64 78 138 171 176 182 187 191 192 193 195 196 194 194 196 197 195 193 191 190 192 193 194 191 191 191 187 191 191 189 190 189 189 188 188 187 186 185 184 180 175 170 162 153 140 125 107 74 43 47 41 56 48 63 76 85 91 97 83 82 96 96 103 58 54 59 69 75 66 43 50 55 60 62 64 62 57 65 54 59 53 60 64 65 62 72 62 47 58 63 61 58 66 85 146 173 179 183 187 190 192 192 194 196 195 196 196 196 193 193 191 192 192 192 193 190 189 188 187 190 190 190 191 190 192 191 189 188 188 188 185 182 179 174 168 160 146 134 116 96 57 49 41 52 57 51 72 77 87 94 91 79 88 95 101 54 60 57 72 67 57 46 59 58 65 63 69 59 62 62 48 63 58 60 61 64 69 74 59 55 62 64 59 57 65 92 151 175 180 186 188 190 193 193 195 196 198 200 198 196 196 193 193 193 193 193 191 189 189 190 189 191 191 191 190 190 191 192 191 188 188 189 187 186 182 177 171 163 152 138 126 106 76 48 49 48 60 50 58 70 84 98 93 80 80 92 96 60 61 64 77 67 51 48 63 59 64 67 68 57 63 56 45 64 64 68 61 68 74 75 56 55 62 65 60 58 66 91 153 175 183 188 192 191 192 194 196 197 197 196 198 196 196 193 192 192 192 192 193 191 192 191 190 192 192 192 191 191 191 190 190 190 189 189 189 187 184 178 173 166 158 142 129 115 90 57 55 46 54 53 53 63 76 102 101 84 73 89 93 65 62 69 74 64 48 52 59 60 67 70 63 57 59 51 50 65 67 72 67 68 75 73 59 56 62 62 60 59 72 91 154 174 182 188 192 193 194 194 196 197 197 196 198 197 197 195 193 192 191 192 192 191 188 189 188 191 190 191 192 191 191 191 190 188 188 189 188 186 184 182 176 166 159 146 135 122 101 74 56 51 46 52 53 63 67 93 108 93 74 80 90 66 61 71 74 59 51 57 61 61 70 73 63 60 58 49 51 68 72 73 72 71 78 70 58 55 68 60 58 60 71 94 154 175 181 187 192 192 194 195 195 194 194 195 196 195 195 194 194 192 191 192 192 189 185 185 186 187 188 190 190 189 189 189 189 188 186 189 189 187 185 183 177 168 163 151 138 126 108 84 61 53 50 51 49 54 67 75 103 96 83 71 81 69 64 78 66 54 56 60 58 63 72 72 63 60 52 46 50 72 81 78 74 75 80 70 54 55 68 62 61 60 66 97 156 177 182 189 192 192 193 195 196 197 194 193 194 194 195 194 192 192 192 195 193 189 188 187 186 188 187 191 191 192 192 191 190 189 189 187 187 186 182 182 177 171 165 156 142 129 114 94 71 55 56 52 48 55 68 62 90 96 89 77 67 68 70 79 64 51 58 65 63 61 68 66 62 58 48 46 52 69 81 79 80 73 76 66 59 58 66 64 62 59 64 98 154 176 184 190 193 194 192 194 197 198 196 195 195 196 196 194 193 194 194 195 192 192 189 189 187 188 189 191 192 191 190 190 189 190 188 186 186 186 184 181 177 172 165 158 148 130 116 97 79 57 55 52 52 56 68 68 74 93 93 92 70 67 75 76 60 54 58 66 64 66 69 65 58 54 45 46 56 74 75 77 78 72 74 65 59 67 68 62 62 58 68 105 153 173 181 188 190 192 194 193 195 195 192 193 195 195 194 195 192 193 192 193 192 193 190 188 187 188 190 188 190 191 191 190 190 190 187 185 186 185 183 182 178 173 168 159 149 138 121 104 80 56 55 55 53 54 66 69 63 85 91 98 79 69 84 77 60 56 60 67 64 71 69 66 48 57 40 48 58 77 77 78 75 73 79 63 58 75 64 57 62 56 67 106 152 172 183 189 190 192 195 195 196 197 194 195 195 195 195 194 193 192 192 194 195 192 189 188 185 188 189 188 189 190 191 189 190 187 188 187 186 185 184 182 180 175 169 163 152 140 125 109 84 57 56 54 53 50 62 68 64 73 82 91 89 78 82 71 59 55 64 69 61 69 67 56 49 60 39 51 64 86 79 82 74 73 79 61 63 77 70 61 63 57 72 109 154 174 182 189 191 194 196 196 196 196 196 196 196 194 196 196 195 191 192 192 194 191 188 187 186 187 187 189 190 191 190 188 187 188 186 186 186 183 182 181 178 175 169 164 153 142 128 113 90 63 56 56 58 54 63 65 67 66 73 79 89 76 80 73 61 59 71 69 55 71 69 51 49 58 39 51 71 89 80 83 75 75 72 58 71 78 67 64 69 60 73 115 156 173 180 187 191 194 193 195 197 196 195 197 196 196 195 194 193 193 192 190 189 187 186 188 187 186 188 190 192 191 189 188 187 187 185 184 184 182 181 179 177 175 168 163 155 143 130 117 96 67 54 59 58 55 53 63 64 65 64 76 86 77 76 71 63 65 73 66 52 67 63 48 42 55 46 50 65 85 85 79 78 79 69 64 73 77 67 65 71 62 75 120 158 175 180 187 191 193 193 195 196 196 196 195 195 194 193 191 193 193 192 190 189 187 187 187 185 186 189 190 190 189 186 186 185 185 184 182 184 183 182 181 178 175 169 163 155 141 129 120 102 69 55 56 59 58 50 59 63 65 63 74 82 81 76 70 62 78 72 63 56 70 56 43 44 58 55 51 70 89 81 75 82 80 66 72 71 77 65 69 70 67 78 127 160 173 181 186 190 193 196 194 196 196 195 193 194 192 191 193 193 192 190 190 189 188 187 186 186 187 190 189 188 187 188 187 184 185 184 183 184 183 183 181 177 174 172 165 156 145 132 119 103 72 57 57 59 54 53 58 64 64 64 69 84 77 72 69 67 78 72 62 55 68 56 39 44 56 60 62 77 90 75 83 90 75 75 69 64 78 60 69 64 65 84 132 163 172 179 185 188 192 194 194 195 196 195 196 196 193 193 193 191 190 192 191 190 190 189 189 187 189 189 189 188 187 187 186 187 185 185 185 184 184 183 182 176 174 170 165 156 147 135 120 106 78 56 54 60 54 55 56 63 60 63 71 81 64 76 70 69 77 68 60 55 63 52 30 52 59 63 66 79 82 75 87 86 79 76 65 70 72 61 67 58 65 92 132 164 171 178 185 189 191 193 194 196 197 195 195 196 195 194 193 191 192 193 190 192 187 189 188 186 188 190 189 187 186 187 185 184 185 186 185 184 185 184 182 179 177 172 164 157 146 136 124 109 84 57 51 54 58 58 58 61 57 52 64 69 68 78 75 74 79 67 60 64 63 43 29 53 64 66 65 77 80 83 89 81 76 72 66 74 68 66 66 62 67 95 131 164 172 181 184 187 192 195 199 197 197 196 194 195 195 193 192 191 193 191 190 189 187 190 189 187 189 189 188 186 186 186 187 185 186 185 184 184 186 185 183 180 178 173 166 157 147 138 124 108 85 62 50 51 58 57 60 58 59 48 53 60 75 77 77 80 68 61 63 67 63 46 35 54 61 64 73 86 83 85 90 77 76 73 68 79 68 71 64 61 69 96 137 166 173 181 184 187 190 194 197 197 197 197 195 192 194 193 191 191 194 191 190 190 188 189 190 188 188 187 187 186 186 186 186 187 187 187 187 186 186 184 183 180 180 175 168 158 148 136 126 111 88 66 48 49 58 55 57 56 56 50 45 54 81 81 73 83 63 70 65 61 64 45 34 52 56 63 83 90 78 87 89 74 80 74 80 80 69 76 62 65 74 98 141 168 172 180 183 187 190 193 193 196 195 197 196 193 193 191 192 193 192 191 190 189 188 189 188 187 188 188 187 184 186 187 186 188 186 188 187 187 187 185 185 183 182 177 171 160 147 137 127 113 91 67 50 47 56 56 52 58 55 50 43 47 86 80 82 79 60 74 65 58 61 35 32 50 67 64 89 89 81 92 86 79 78 66 84 73 67 71 61 70 75 94 143 170 173 179 182 186 188 188 192 193 193 194 195 194 192 191 190 192 190 190 191 190 191 189 189 189 188 188 189 186 187 187 185 183 185 185 185 186 184 185 184 183 180 177 172 161 149 142 129 115 93 66 51 51 57 53 49 54 56 46 41 40 84 79 85 72 66 68 63 62 63 35 28 54 72 69 87 87 84 89 77 83 72 67 80 74 69 71 61 68 73 105 150 163 171 180 181 181 182 185 189 189 187 189 190 193 190 189 189 189 189 190 189 190 188 188 189 190 188 187 187 185 185 185 185 185 186 184 184 185 183 185 182 180 179 174 171 164 153 143 134 121 95 66 50 53 53 51 48 53 55 50 44 41 82 81 81 69 69 66 59 55 53 28 30 60 76 75 91 86 84 85 78 82 74 80 77 69 74 70 63 67 76 115 153 164 171 180 180 181 185 185 184 186 182 185 188 189 189 188 188 189 190 188 187 187 185 187 188 189 187 187 186 181 181 182 182 183 184 185 183 184 182 182 182 176 176 174 173 167 155 146 137 125 98 70 48 52 53 49 44 56 51 48 43 42 79 84 84 66 70 66 58 62 50 30 37 59 76 82 90 85 91 86 77 84 78 83 71 68 73 64 66 67 76 115 150 159 168 171 176 180 182 179 183 185 185 183 187 185 187 184 183 182 186 186 183 186 184 185 188 187 186 186 183 179 179 179 177 179 181 181 182 180 179 177 178 177 176 172 171 167 158 149 141 127 101 67 49 53 57 50 41 54 52 40 45 41 77 85 77 73 73 62 61 58 53 35 36 57 82 83 86 83 87 84 79 84 78 77 73 70 68 59 61 67 66 88 108 112 126 134 149 155 148 152 163 168 169 166 162 169 168 168 172 175 179 180 180 182 183 186 188 187 184 181 179 175 176 177 177 176 175 177 179 178 176 175 175 172 169 163 158 153 141 137 129 127 105 69 46 52 60 54 44 50 54 43 39 45 83 81 67 75 72 60 61 52 49 38 42 65 88 84 93 82 84 88 83 77 75 78 71 70 64 58 60 67 65 74 79 83 92 95 105 109 106 105 99 96 111 120 117 122 136 146 148 157 167 174 174 178 182 183 186 183 180 179 177 173 175 173 173 167 163 169 158 146 144 149 145 136 125 118 112 104 97 91 81 91 92 68 45 48 58 55 47 49 52 44 35 41 81 76 69 78 66 59 62 58 46 33 41 68 87 84 95 83 85 84 80 74 79 73 71 71 62 61 64 68 65 64 81 84 71 62 64 70 77 72 64 63 70 71 82 99 110 124 134 136 152 164 163 177 176 178 181 180 178 177 175 167 172 167 157 145 149 129 110 97 90 90 87 77 67 72 73 70 73 60 51 53 56 56 51 43 60 59 52 47 49 45 35 31 85 71 73 77 57 58 63 62 44 37 48 74 87 86 89 79 84 79 73 71 77 66 63 70 65 63 67 63 71 74 76 75 68 54 56 56 53 54 61 55 56 53 69 87 83 99 122 127 140 153 162 176 176 179 179 177 176 173 166 162 164 150 137 128 110 86 74 70 65 62 64 63 61 62 63 64 62 58 62 61 50 47 46 41 53 64 55 48 48 43 38 28 87 67 78 75 53 56 65 65 44 42 51 81 84 88 84 74 79 75 68 70 73 62 70 74 62 68 67 69 77 93 101 98 96 91 83 76 68 57 66 70 60 69 72 76 79 82 110 109 126 148 163 172 173 177 177 174 171 167 164 159 154 136 121 104 91 76 67 61 51 51 53 55 58 58 53 54 67 75 81 75 59 45 36 42 52 61 48 49 47 48 40 28 68 71 82 68 52 56 62 59 46 46 55 85 89 90 78 73 75 72 68 70 70 63 77 76 63 71 73 78 104 134 148 147 147 142 137 132 120 103 94 91 83 84 89 90 81 88 101 107 121 148 164 170 173 178 176 173 168 163 158 153 142 123 109 99 82 72 67 54 48 53 53 53 59 69 79 93 103 108 111 102 76 50 35 40 51 59 49 52 45 48 43 29 63 78 82 61 57 59 54 51 45 44 64 88 96 95 70 69 73 70 69 71 67 74 78 66 64 78 76 86 113 134 142 147 143 143 140 140 139 132 124 115 111 96 92 100 105 107 108 118 138 154 162 166 172 176 172 170 167 159 149 144 132 119 114 101 85 74 68 68 69 69 80 93 105 116 125 132 141 141 137 131 110 80 49 36 52 61 54 53 52 49 43 31 71 82 77 56 60 56 54 46 50 50 67 91 100 88 64 66 70 66 68 66 72 77 75 63 71 78 75 88 110 125 131 134 131 133 135 137 133 132 127 125 120 111 100 96 105 117 122 132 143 152 159 165 171 166 168 167 161 153 141 131 118 110 101 89 87 89 93 97 102 112 124 131 131 130 132 132 132 134 133 133 125 115 69 37 53 61 51 51 55 48 45 31 74 78 65 52 62 54 57 46 49 51 70 94 102 82 62 67 67 64 63 64 73 73 67 61 76 70 70 82 101 116 122 119 112 105 104 102 102 105 105 112 119 113 107 102 100 105 115 129 138 150 162 167 167 170 172 164 158 146 131 114 96 85 85 98 110 118 124 128 131 133 132 129 127 122 120 121 118 117 121 123 121 113 84 43 51 59 53 54 53 50 50 35 71 78 61 47 57 58 57 43 44 50 77 98 103 76 61 66 65 63 64 66 74 73 66 66 79 67 66 79 91 89 87 95 100 114 120 107 78 64 62 67 78 91 98 99 97 99 103 117 136 153 163 169 175 183 176 162 152 135 118 93 79 90 107 116 120 119 114 109 107 107 110 107 107 109 109 110 101 100 106 101 104 105 89 53 47 54 57 54 52 59 56 43 79 71 53 48 60 56 55 39 39 54 81 101 103 66 58 68 65 61 68 71 76 70 67 72 78 70 72 62 68 80 95 97 90 86 91 66 49 42 47 46 45 56 77 93 95 100 107 113 129 151 166 171 177 183 175 165 153 130 101 79 91 110 111 108 95 84 89 98 112 118 109 81 80 77 76 81 83 91 93 88 96 95 82 57 47 53 65 55 58 58 58 57 81 62 50 55 63 51 53 38 40 63 82 103 95 55 58 69 62 61 70 74 76 69 65 73 70 68 66 59 78 73 54 39 30 21 35 43 22 34 29 27 46 64 63 82 97 107 117 122 130 148 168 174 181 187 177 166 153 123 84 85 103 103 102 89 88 101 94 81 71 62 59 53 52 48 50 50 53 72 87 85 94 97 92 64 46 43 64 55 64 49 57 59 66 54 54 56 64 56 50 35 44 66 90 107 77 50 54 61 65 69 69 69 72 61 67 74 66 69 60 55 45 32 23 37 42 35 54 73 16 46 55 54 63 48 75 91 101 119 122 124 135 149 168 179 186 192 179 169 155 112 81 100 108 104 95 92 88 81 57 41 67 37 14 23 20 21 26 32 52 60 67 70 81 96 99 74 48 34 57 49 59 46 54 66 53 46 56 59 61 58 43 33 46 68 90 105 63 51 53 55 60 66 63 74 66 66 83 76 70 71 39 24 26 26 27 56 76 60 71 61 46 65 59 78 107 56 65 106 131 131 126 125 147 154 170 180 189 193 184 175 156 106 92 119 120 98 82 71 88 148 126 53 82 47 17 41 31 22 23 24 31 36 37 60 79 97 104 80 50 32 54 46 53 52 48 66 46 42 51 61 63 50 41 34 47 68 87 96 58 49 49 52 60 58 66 72 69 69 79 78 78 70 52 60 58 63 61 85 83 106 119 86 98 94 70 69 84 79 90 101 129 140 137 139 157 160 173 182 192 195 187 178 159 117 111 118 88 69 76 86 101 129 119 73 78 61 59 57 48 38 31 21 18 27 61 83 84 100 104 87 59 34 52 41 49 55 50 56 49 44 52 60 58 44 41 34 50 68 87 90 55 48 50 55 63 57 70 70 71 71 76 82 79 83 94 101 95 111 120 132 119 130 119 86 108 106 102 103 111 121 125 132 141 151 150 150 164 165 174 184 193 195 191 180 164 133 125 113 98 108 120 121 111 111 103 118 93 80 103 79 64 70 59 51 43 58 88 107 115 117 116 99 63 35 41 46 46 48 48 50 44 43 48 55 56 41 34 37 49 66 85 80 49 48 48 52 55 58 68 66 71 70 79 80 81 99 117 125 134 143 145 141 140 142 135 128 133 136 136 134 135 140 150 162 162 159 154 161 169 169 175 185 193 194 191 188 173 143 130 141 152 143 137 135 136 138 142 145 135 121 115 104 90 99 97 97 97 96 104 120 127 124 119 104 63 37 34 47 37 48 44 46 32 46 45 54 49 39 27 36 49 67 75 67 47 56 45 48 49 59 61 64 71 72 80 77 87 114 131 142 152 150 157 156 153 149 146 142 142 140 138 136 142 146 153 159 160 161 165 173 173 170 177 188 192 192 193 191 179 152 140 144 151 151 147 144 145 142 145 145 147 141 132 125 119 119 123 133 137 135 142 139 136 133 123 111 68 39 35 46 37 44 45 47 32 46 46 52 52 38 25 39 53 66 71 61 52 55 46 48 48 60 61 67 69 70 82 81 96 124 140 156 163 156 159 161 161 158 157 158 155 154 154 155 160 163 162 161 167 171 172 178 173 172 181 189 190 193 193 190 184 163 147 150 152 158 158 154 149 149 150 149 148 146 144 142 141 139 141 142 148 157 160 155 146 138 131 119 80 40 36 48 37 35 42 47 38 40 45 52 56 34 28 40 50 61 66 63 49 47 42 47 51 60 63 68 68 69 75 82 105 132 144 161 168 165 165 170 171 170 171 169 166 167 169 171 168 167 165 169 174 174 175 174 172 180 186 189 192 193 193 191 185 174 155 155 155 158 163 162 157 156 152 149 148 149 148 148 149 148 148 155 162 164 162 157 153 146 134 125 94 40 33 45 44 30 36 42 38 33 45 53 52 34 31 38 50 56 63 54 46 48 45 41 54 51 59 64 72 70 73 82 111 140 150 167 172 173 171 177 176 175 176 174 172 173 173 171 170 171 175 176 173 177 175 175 175 183 186 190 193 192 191 191 189 179 164 155 160 159 163 167 166 166 165 164 161 160 160 159 159 161 164 167 169 168 163 160 157 151 140 127 104 50 39 40 45 35 39 38 35 29 46 52 47 32 30 40 51 52 57 45 44 46 39 39 54 51 60 63 69 66 76 89 123 147 158 170 170 172 169 174 172 172 175 172 172 172 170 171 173 176 179 178 176 175 176 176 178 183 185 188 193 193 191 191 193 184 168 158 159 163 166 170 172 171 172 175 173 176 178 176 176 177 177 176 177 176 171 166 159 152 142 130 112 64 42 40 41 42 42 38 35 31 45 50 48 30 30 39 54 49 53 44 45 37 34 39 49 50 55 64 66 63 75 99 133 153 165 170 171 172 171 175 173 173 173 173 173 172 173 174 175 176 179 179 176 172 174 178 180 180 184 190 195 195 191 191 195 188 173 165 159 166 171 172 175 175 176 177 179 177 180 180 179 179 179 178 178 177 173 168 161 154 141 132 115 74 43 44 37 42 43 39 35 37 43 51 45 26 32 39 49 47 56 42 41 37 34 41 45 48 53 65 59 60 78 110 137 158 170 173 176 175 172 174 176 177 177 177 177 178 179 179 182 180 183 181 174 175 178 181 182 182 186 192 196 195 195 189 194 192 176 168 166 167 175 176 179 180 180 182 183 183 182 182 182 182 181 179 178 179 175 172 165 154 142 130 117 79 44 49 39 42 44 39 32 36 43 48 39 26 33 38 46 49 53 39 41 36 35 44 43 47 55 59 51 63 82 115 145 163 174 175 177 175 178 176 177 181 183 182 181 184 184 184 187 186 185 183 179 180 181 183 182 181 187 195 198 195 195 192 196 195 178 169 169 172 176 178 180 183 183 183 186 187 187 186 185 183 182 180 182 182 177 174 168 157 144 129 118 86 47 49 37 46 41 41 34 37 48 46 43 29 34 40 43 53 50 36 43 31 37 44 41 42 52 53 48 66 90 122 150 165 174 178 178 178 181 183 182 184 185 187 187 189 189 190 187 187 187 186 186 184 180 185 182 181 189 195 197 198 196 197 196 194 180 169 170 176 179 179 180 184 186 186 186 187 187 186 185 185 183 182 182 183 178 174 170 159 145 132 121 88 43 50 38 43 34 38 37 37 50 47 47 31 35 39 45 53 51 35 41 30 40 42 38 45 54 48 52 67 95 131 153 167 176 178 181 188 186 190 192 191 191 193 192 194 191 187 185 184 182 185 186 181 178 183 183 185 190 194 197 198 198 197 198 196 184 169 166 171 175 174 175 181 184 184 184 184 185 185 183 184 182 181 180 181 179 175 171 162 148 132 119 89 45 52 43 42 39 34 41 30 45 50 45 34 36 37 45 51 48 34 36 30 40 36 35 47 58 46 50 69 106 138 156 168 176 178 185 192 193 195 195 194 193 194 193 188 181 180 175 174 171 171 174 176 179 181 181 184 190 194 197 197 197 197 199 197 191 172 162 159 160 164 170 176 179 180 181 183 182 181 180 180 181 177 175 179 179 177 172 163 149 132 118 89 46 54 48 46 42 44 30 29 45 48 43 37 35 36 42 49 50 34 34 33 36 32 33 51 57 46 47 69 117 144 154 169 173 180 185 188 192 191 193 193 190 188 185 179 172 169 166 162 159 163 169 172 178 181 179 185 191 194 195 197 198 197 196 197 196 182 162 150 147 156 164 168 173 174 176 176 176 179 178 176 177 176 177 176 176 175 171 164 151 134 119 90 43 42 49 41 40 46 28 32 48 46 46 35 32 40 40 47 54 33 33 33 33 33 32 52 51 41 47 76 123 147 156 167 168 176 178 182 187 187 186 186 183 178 173 167 161 158 155 152 157 165 171 177 180 183 179 185 192 191 196 198 196 196 194 193 195 190 174 157 147 154 157 161 166 170 173 171 174 176 175 174 175 174 173 175 173 171 170 163 152 135 121 87 39 44 46 41 38 45 27 31 44 49 47 34 35 41 46 52 58 35 29 33 31 31 27 51 48 42 54 80 127 149 155 164 168 169 169 173 177 176 177 175 172 170 163 160 154 150 151 159 164 169 176 182 183 184 183 185 189 192 196 199 197 194 192 191 192 192 182 179 158 151 153 155 159 162 167 168 168 170 170 169 172 171 170 169 168 169 166 159 152 135 119 79 36 47 47 42 39 45 26 32 45 48 46 32 39 37 45 51 58 39 31 33 32 25 26 53 44 40 55 83 131 148 149 161 166 167 168 172 172 174 170 168 167 161 157 153 145 147 161 169 168 174 179 181 184 184 185 184 189 193 195 197 195 193 190 189 189 188 180 185 179 156 152 151 146 152 161 164 164 164 167 167 168 167 165 165 164 164 161 156 149 134 115 68 32 43 51 42 40 44 28 33 47 53 48 33 38 35 44 45 63 46 32 31 28 22 28 56 41 38 55 88 125 145 152 159 165 165 165 168 169 169 167 164 159 156 149 135 144 165 174 167 162 177 182 185 188 188 184 182 188 189 193 199 194 188 183 184 183 179 175 184 184 168 155 156 145 136 146 157 162 162 161 162 163 162 158 161 160 158 155 150 142 126 109 53 32 49 49 42 49 46 29 36 43 54 49 36 38 35 48 41 63 55 34 29 27 21 33 53 39 45 58 88 124 149 150 155 161 161 162 162 163 162 160 159 153 143 129 151 175 181 183 179 157 165 177 181 185 185 183 178 180 181 186 191 187 182 178 175 171 166 162 169 170 161 157 159 157 146 131 142 156 158 158 157 158 155 155 158 157 151 149 143 135 119 97 39 34 53 45 46 50 46 29 40 48 55 51 39 38 34 43 43 59 59 33 29 23 22 31 45 40 47 55 83 127 146 148 151 155 156 157 158 158 156 153 150 135 124 150 174 178 182 186 190 175 148 151 161 165 165 167 167 167 173 180 180 178 175 171 166 159 148 145 143 143 138 158 164 160 157 146 128 140 152 153 154 155 153 151 151 149 147 144 138 130 116 81 26 33 51 44 44 49 47 28 44 51 58 53 40 40 34 42 45 55 71 35 28 22 21 32 42 38 47 46 83 125 138 141 146 149 150 151 153 151 148 145 129 123 153 169 172 177 183 188 188 189 174 145 126 112 105 113 132 146 156 166 168 166 165 160 148 136 121 106 110 122 140 164 162 157 156 154 139 127 140 147 149 151 149 148 145 140 140 135 131 121 106 62 20 39 46 37 40 44 49 31 41 52 59 50 42 40 34 42 48 51 76 40 27 23 24 33 38 34 43 43 87 116 134 133 140 145 145 147 148 147 140 122 124 156 168 168 173 178 181 183 185 185 188 184 170 153 140 129 115 121 140 151 157 156 152 140 123 108 95 103 126 147 165 166 157 151 151 149 149 133 121 138 145 145 145 143 141 136 131 127 121 109 91 44 23 42 45 35 47 46 48 31 43 53 61 49 40 39 39 43 44 53 65 42 27 23 25 32 39 35 42 40 87 110 124 127 135 141 144 144 142 134 119 126 155 162 165 169 173 177 181 183 184 185 185 188 189 190 189 185 167 138 127 139 141 140 130 117 113 120 139 148 161 173 170 161 149 148 148 148 145 141 125 120 136 142 139 138 136 131 124 116 107 97 74 27 26 43 44 41 49 45 52 28 43 61 61 50 42 39 38 40 39 53 54 42 29 23 26 32 41 36 40 43 77 104 112 122 129 137 137 135 127 116 134 159 158 160 168 171 176 179 179 182 185 184 183 184 184 183 184 182 180 171 142 127 125 119 114 117 125 136 142 155 169 167 165 161 152 147 144 144 139 135 134 118 124 135 137 136 133 127 116 105 94 86 54 24 32 45 42 47 39 49 56 40 41 58 70 50 40 39 36 37 36 55 55 44 34 26 30 33 40 34 37 38 64 104 109 125 130 130 130 124 121 141 162 155 153 163 168 171 175 178 179 182 185 186 184 184 184 183 183 180 173 163 154 131 118 116 119 124 127 133 151 163 168 168 167 166 158 147 143 139 136 130 129 130 120 125 133 131 125 115 104 89 82 77 38 20 38 49 43 46 37 45 59 36 50 63 73 53 41 39 39 38 33 51 53 46 40 27 34 34 37 33 37 42 62 106 115 120 125 122 122 128 142 162 158 152 157 162 166 169 172 177 182 184 186 184 187 188 187 187 188 185 174 166 158 151 139 128 127 135 145 162 174 181 180 175 174 170 159 146 136 133 130 125 123 129 133 122 127 126 119 111 96 84 83 66 26 25 45 48 43 45 39 42 59 37 51 71 70 50 40 41 43 38 27 50 49 46 48 34 31 36 42 36 41 46 58 102 126 118 123 127 138 145 154 159 150 148 155 161 165 166 171 178 182 185 184 181 184 183 183 185 187 190 190 183 175 174 172 167 165 172 178 178 174 174 175 174 173 168 158 145 131 125 122 116 120 130 147 133 126 122 114 101 94 91 89 50 20 33 48 46 44 46 41 39 65 45 48 73 75 61 34 44 43 37 24 46 57 46 51 44 31 35 47 43 45 48 54 91 132 131 135 146 149 149 156 151 137 142 149 153 153 159 158 159 159 160 158 156 153 152 154 160 159 171 175 166 166 170 169 169 159 152 144 136 132 131 135 137 136 137 135 129 121 120 111 100 111 138 152 144 138 122 111 103 102 100 84 36 19 37 47 48 43 41 45 34 60 47 48 74 75 66 34 43 47 38 24 37 63 45 49 54 40 34 50 49 45 52 56 85 123 139 146 156 155 153 156 142 121 123 122 129 125 120 116 117 119 126 129 132 130 132 136 143 143 147 141 139 143 144 134 126 119 117 116 115 116 118 118 120 117 107 96 91 92 97 94 90 113 153 155 150 143 126 117 114 110 106 68 18 22 40 45 49 44 40 47 32 49 46 51 70 71 62 35 41 46 36 21 28 54 51 51 62 56 38 49 51 49 58 63 84 115 136 146 159 161 162 157 136 100 67 53 66 80 90 91 84 90 100 107 114 117 120 120 121 125 119 119 127 128 130 117 115 113 115 116 111 112 111 107 106 99 84 74 58 53 57 80 106 142 162 157 157 144 130 127 118 114 103 47 13 26 40 45 44 47 42 45 37 47 48 49 75 74 58 37 42 44 35 18 23 38 50 53 57 69 48 50 55 58 61 65 76 107 130 149 154 164 165 159 140 118 79 72 68 76 124 127 95 121 88 99 101 99 99 99 101 105 105 105 109 111 109 106 99 101 102 98 93 94 88 81 75 79 73 45 40 44 48 96 145 162 166 162 158 141 136 132 118 115 90 27 15 30 44 45 47 46 41 37 42 48 54 56 73 70 57 34 43 44 31 16 15 30 47 52 53 68 55 57 56 55 65 72 71 93 117 147 157 160 163 164 153 148 145 121 96 83 125 147 146 176 135 153 174 143 100 132 147 110 102 135 141 119 92 88 106 121 99 75 92 96 77 111 98 109 80 49 57 61 77 139 163 169 169 165 155 143 142 130 116 111 67 13 23 33 42 50 51 48 45 34 38 53 57 57 66 67 60 32 51 42 26 17 16 24 43 54 59 68 63 66 62 58 59 73 77 88 103 125 158 163 162 164 161 158 171 163 123 106 118 138 150 184 181 181 198 194 162 192 199 161 158 201 210 184 143 153 190 184 156 112 157 148 128 163 138 118 62 51 65 83 128 171 171 171 169 166 153 146 142 122 117 103 42 11 28 36 49 52 45 49 49 35 34 55 61 58 65 65 54 32 46 40 25 26 17 23 34 51 55 69 71 70 63 58 69 79 79 90 109 104 137 164 163 159 162 170 176 176 156 128 118 114 127 172 160 175 195 194 194 204 204 186 193 211 213 201 176 190 205 197 179 168 192 176 171 178 143 86 56 69 89 132 166 174 174 168 170 164 151 146 131 117 117 81 19 14 24 33 46 47 46 53 50 35 38 58 56 59 66 62 54 35 36 33 29 26 14 25 32 48 58 63 81 73 68 64 76 85 86 85 108 113 111 148 163 159 168 178 178 176 171 152 128 124 126 137 104 136 195 181 165 201 199 187 196 207 202 199 180 192 198 196 185 187 196 183 177 176 116 75 87 98 132 164 174 174 171 170 169 161 151 140 120 117 106 50 12 20 24 35 41 45 45 61 50 41 38 60 53 59 66 59 54 40 30 22 29 31 19 21 28 41 59 64 86 91 78 69 81 89 89 85 100 125 115 119 149 160 171 179 182 178 171 168 150 132 133 128 126 123 149 128 110 152 168 154 185 202 198 189 177 189 192 190 179 179 185 138 139 150 98 123 124 128 155 164 172 171 167 171 167 154 143 128 119 114 86 26 16 16 19 31 42 50 43 58 50 41 40 57 66 55 64 64 50 37 28 16 23 23 27 22 28 35 54 67 80 92 94 77 87 86 85 88 91 116 124 114 132 158 168 175 179 180 176 170 171 153 135 136 142 143 136 131 124 114 112 109 134 158 159 152 143 156 157 150 122 100 100 85 103 117 133 139 126 143 158 169 173 165 167 171 161 144 132 118 118 107 53 15 18 13 18 27 39 48 39 52 50 42 45 57 73 53 57 63 48 36 23 20 28 24 33 24 21 34 51 62 80 94 99 88 84 85 76 84 88 102 127 114 123 147 164 173 178 179 178 171 166 170 151 137 139 144 149 153 150 139 134 129 120 116 114 108 108 109 104 99 99 109 116 137 156 156 129 123 126 152 161 171 166 162 169 169 152 137 124 119 115 86 24 14 14 14 17 31 40 47 35 54 55 46 53 63 66 50 56 59 47 36 23 21 26 24 31 27 17 33 56 59 75 90 98 92 90 89 76 84 84 91 117 126 118 136 155 174 177 178 178 175 167 167 169 153 138 137 137 143 157 164 183 176 160 156 140 138 136 137 137 140 140 140 147 145 151 130 113 118 144 153 163 167 160 164 173 162 138 123 118 119 101 52 12 18 14 14 18 26 36 52 30 49 57 52 49 64 61 54 59 52 40 32 25 19 23 22 30 28 18 28 58 67 62 78 100 100 97 88 75 80 78 85 99 136 128 125 143 167 177 175 178 177 170 165 168 169 160 142 128 126 130 144 168 185 184 180 160 145 138 148 146 141 136 135 134 125 114 104 110 137 149 153 164 162 161 169 172 150 124 116 120 108 78 19 15 17 15 14 13 22 33 52 29 46 57 60 52 70 62 56 61 47 36 32 27 14 26 19 31 27 23 28 56 73 68 71 93 104 101 93 81 81 75 77 87 122 129 123 130 155 172 174 177 174 171 165 163 168 169 161 146 131 125 125 128 136 135 141 142 128 130 137 126 120 117 117 111 105 100 109 138 149 146 161 164 163 163 170 165 133 114 116 115 97 44 8 19 14 12 11 14 21 29 49 33 39 50 61 56 79 60 58 60 39 31 38 25 13 25 27 33 30 24 36 57 76 76 71 86 97 109 100 86 75 79 75 78 109 135 127 120 139 159 173 175 173 172 167 161 163 167 169 167 160 148 132 127 124 121 125 120 118 121 121 116 113 110 105 102 104 117 140 151 144 149 164 162 162 162 165 145 118 111 114 102 66 11 14 15 15 12 12 15 18 28 41 35 35 48 60 62 85 60 59 54 33 30 41 22 19 22 23 30 29 20 25 55 81 77 70 79 89 100 106 87 71 76 70 74 90 131 138 126 130 154 168 174 172 172 170 164 162 161 164 166 170 166 156 140 130 123 117 116 115 114 112 108 106 105 108 118 135 150 153 143 142 157 164 164 160 160 153 125 107 110 105 81 24 5 12 12 15 14 13 14 19 28 39 32 31 43 60 65 89 56 57 51 29 35 38 27 24 20 22 24 30 25 26 56 91 86 74 79 82 88 105 91 71 72 71 71 83 120 141 130 130 153 159 171 173 172 171 168 165 162 161 159 163 164 164 161 154 144 134 131 130 128 124 121 121 129 137 146 154 152 144 142 151 162 166 163 158 155 137 111 105 105 87 42 15 9 13 11 11 18 14 14 18 26 37 35 26 33 50 67 90 59 51 45 31 35 33 33 33 26 26 21 25 27 21 57 91 100 76 79 79 80 101 91 72 69 73 71 81 108 139 131 124 153 160 161 170 175 173 170 168 165 163 162 160 158 158 156 156 154 155 152 149 144 145 145 144 147 148 145 143 139 141 148 158 167 164 160 153 143 114 104 106 93 48 18 25 11 13 12 9 15 18 17 18 25 32 33 25 33 40 65 87 59 50 36 28 34 29 32 35 36 30 20 20 22 26 53 91 102 82 80 81 77 91 95 71 66 73 68 73 95 132 133 123 148 164 165 166 171 174 172 169 169 166 164 162 160 157 155 155 153 153 151 148 146 147 147 145 146 145 141 141 144 149 155 166 171 163 153 146 125 104 100 94 51 12 18 32 16 12 10 8 10 21 19 17 22 32 32 24 34 34 55 87 54 42 33 30 32 25 33 34 39 23 20 24 15 25 63 91 95 84 78 76 73 84 95 72 64 71 63 71 90 123 133 125 141 163 166 165 168 174 175 173 173 172 170 168 167 165 162 160 159 155 151 144 148 150 149 150 149 148 149 152 154 157 166 173 168 156 148 130 104 96 93 56 10 11 23 35 21 12 10 10 13 18 19 20 17 26 37 21 33 36 48 88 46 39 34 24 33 20 32 39 48 29 24 28 23 23 67 90 87 86 80 76 74 82 88 73 63 60 65 70 90 117 129 125 137 158 170 168 168 172 177 178 175 176 177 176 174 174 172 171 167 165 162 159 160 161 159 159 160 160 159 159 158 165 174 173 162 151 138 108 92 90 60 13 8 17 31 35 19 12 15 18 17 18 18 18 22 24 38 21 24 37 51 84 40 41 27 30 36 29 39 49 47 36 25 25 17 27 70 86 90 90 84 80 75 75 87 75 60 58 62 74 90 112 126 121 134 154 169 171 169 169 177 177 178 179 178 181 181 179 179 178 177 177 175 173 173 173 172 171 169 169 169 166 169 176 177 171 158 145 122 91 86 59 14 9 16 16 35 46 25 15 20 19 18 16 21 14 16 25 40 32 25 35 53 72 43 40 25 38 30 30 35 45 33 31 23 26 15 35 77 85 96 94 85 82 76 71 84 73 64 58 59 72 88 108 125 118 131 146 162 169 167 169 175 177 179 181 182 182 183 184 184 184 183 181 181 181 180 179 178 178 178 176 173 174 177 176 173 166 150 128 95 81 51 11 9 17 18 16 30 42 34 19 19 20 16 13 17 22 16 18 33 35 24 35 49 79 45 28 24 33 32 36 37 42 40 35 27 28 25 56 79 85 97 97 86 82 81 75 85 69 63 60 58 72 87 100 118 119 127 140 154 164 164 170 176 180 182 185 185 184 185 185 186 186 183 181 182 181 179 180 179 178 180 179 179 176 177 173 170 156 136 103 73 44 10 8 18 21 16 16 19 27 23 17 20 16 12 13 14 23 19 12 24 37 25 27 36 75 36 19 32 32 37 36 23 37 43 36 30 27 32 72 82 84 97 99 88 85 81 79 83 70 60 65 62 70 86 96 109 119 126 133 146 157 164 168 172 178 180 183 186 187 188 185 185 185 183 182 181 180 180 181 182 181 179 180 178 174 172 172 165 143 116 73 37 15 10 14 19 23 23 19 15 29 25 21 18 13 13 15 13 16 25 15 16 33 36 27 34 69 23 22 36 37 44 24 21 34 40 37 30 26 46 81 83 87 96 100 94 90 77 75 81 68 63 60 68 73 83 89 100 112 122 124 134 148 158 163 167 175 175 177 182 184 183 182 185 183 179 179 179 180 179 180 183 182 179 176 172 171 170 170 151 126 76 30 31 31 13 19 19 21 24 18 16 28 24 16 14 14 14 13 14 16 18 26 18 21 42 30 36 64 23 32 39 45 30 22 26 36 40 44 25 30 49 76 86 87 97 97 99 88 73 77 78 67 69 59 68 78 85 88 87 94 114 115 122 138 149 157 163 168 173 175 179 179 181 181 181 180 177 177 177 177 177 177 179 176 174 172 168 167 168 159 130 82 29 40 59 32 14 22 22 24 18 17 20 19 20 18 15 15 14 15 17 20 17 20 24 15 34 46 35 55 39 43 44 33 26 24 29 38 45 41 37 34 51 78 84 86 95 97 101 84 75 77 78 70 69 59 68 77 89 93 87 81 94 105 114 123 138 150 157 162 168 173 175 176 177 177 177 176 174 173 172 173 175 174 170 168 167 162 163 162 163 139 93 39 48 69 58 28 14 19 26 23 24 21 17 17 19 19 17 18 16 15 18 21 17 18 17 18 24 46 48 44 34 39 33 31 27 27 36 40 38 44 39 38 66 84 87 84 92 99 107 82 74 76 78 70 67 57 70 80 88 91 88 95 100 97 96 106 120 135 148 153 159 165 167 169 170 171 172 170 169 169 167 168 168 165 165 163 161 161 162 161 145 99 46 51 73 68 53 28 17 21 23 24 24 18 15 18 19 19 20 18 17 14 19 21 20 20 17 14 17 31 53 46 39 37 29 33 30 38 32 36 41 45 25 42 76 87 90 91 92 101 102 78 77 76 79 70 66 61 75 84 88 92 90 103 110 109 108 98 93 107 130 144 147 154 158 162 164 165 165 165 164 164 165 164 163 160 160 158 157 158 155 144 106 49 51 78 75 63 48 26 19 24 22 21 21 19 19 19 20 22 19 18 15 16 22 23 23 22 19 16 17 19 42 49 41 37 32 40 38 33 28 46 54 39 28 41 79 93 90 93 92 100 93 80 80 82 80 78 71 68 81 89 88 86 96 110 117 115 117 116 108 96 97 121 137 140 146 152 155 156 157 158 159 159 159 158 158 157 153 153 153 146 135 101 52 55 87 85 71 64 47 28 19 23 21 21 21 19 19 18 24 20 18 19 17 19 22 25 25 26 17 17 22 23 37 38 32 36 44 47 32 34 45 52 43 31 28 51 77 95 94 93 91 100 86 85 82 88 78 77 69 70 88 91 86 88 102 117 119 117 117 118 118 118 102 89 102 123 133 140 143 144 146 148 149 151 151 153 153 151 149 146 134 117 85 48 59 92 94 80 73 64 46 34 21 20 23 22 22 22 19 20 21 20 18 19 19 21 24 28 28 32 20 16 19 23 39 31 47 42 39 39 40 47 47 42 43 39 43 62 75 96 98 93 93 98 90 91 84 86 74 75 69 84 93 95 90 97 110 119 120 120 117 120 119 119 119 112 91 85 95 111 123 133 135 136 136 137 141 141 138 133 125 110 91 65 48 68 96 96 90 82 75 63 49 44 26 18 22 22 22 22 26 22 15 18 22 21 18 23 28 32 32 37 22 18 21 19 37 30 50 43 40 49 48 38 33 35 39 37 51 64 76 98 101 93 95 89 93 92 89 83 73 79 78 93 100 97 98 103 116 121 123 122 121 121 120 119 119 118 116 107 86 76 78 85 95 103 108 110 112 109 99 88 75 65 58 67 93 109 100 91 90 84 75 64 49 45 33 20 22 23 22 22 24 19 18 26 25 23 23 23 29 33 36 41 25 20 24 19 37 34 51 55 51 44 36 26 36 35 34 36 54 67 73 98 103 95 93 90 98 89 94 76 73 86 90 99 102 101 107 113 122 124 127 125 123 124 122 120 119 118 117 118 117 113 100 83 73 67 66 63 62 60 59 65 71 85 100 112 116 110 98 94 89 82 73 62 47 45 38 25 22 24 21 22 21 18 22 22 21 24 20 23 30 35 42 39 27 22 27 26 32 38 58 49 51 40 27 28 34 38 34 43 61 73 77 97 106 99 95 100 97 95 94 76 81 95 96 103 102 111 120 120 122 125 133 134 131 128 125 122 121 120 119 119 120 119 119 119 114 109 103 97 96 97 105 112 116 121 122 117 112 106 100 97 91 79 72 57 51 50 48 34 21 22 22 21 23 22 21 17 22 28 21 27 30 36 49 41 28 25 36 31 31 41
