P2
# Generated by OpenCV 4.2.0
92 112
255
42 40 48 50 43 22 38 35 35 34 32 32 38 35 32 42 44 36 46 39 42 50 49 51 56 60 69 72 80 93 115 128 146 156 166 178 185 193 200 207 213 215 217 219 219 216 220 222 221 219 223 221 220 220 215 213 214 213 205 197 189 186 181 175 170 160 151 147 146 137 126 114 100 86 68 49 40 20 13 26 35 41 20 12 25 38 55 67 73 77 66 75 39 42 44 52 34 26 37 38 33 33 30 32 39 30 34 42 39 36 45 38 46 52 47 52 57 66 76 80 89 104 121 137 155 164 175 187 194 201 206 211 217 218 219 221 223 221 222 225 223 221 222 219 219 220 217 216 216 214 210 207 201 197 193 187 182 178 174 169 161 154 149 133 116 99 86 66 47 33 15 18 31 37 38 15 15 32 48 61 65 78 71 70 44 40 44 47 27 37 39 38 32 31 28 36 39 28 38 43 37 39 46 41 49 47 44 56 61 74 85 89 97 120 132 149 161 172 182 190 199 205 211 216 219 219 220 221 225 225 224 225 226 224 223 222 221 220 218 218 217 215 212 209 208 208 205 201 197 192 189 184 177 176 170 155 139 123 103 83 62 47 27 11 24 32 37 35 16 23 38 56 63 73 73 64 41 41 49 41 25 37 39 37 32 29 32 40 31 29 40 41 32 41 42 40 50 42 49 54 61 79 89 94 102 124 140 157 166 176 183 194 203 209 213 218 219 221 224 223 224 225 226 224 226 224 224 224 223 223 219 219 217 215 213 212 213 212 210 207 206 204 198 195 186 185 179 168 160 142 122 98 78 58 41 20 13 26 35 42 30 17 30 49 63 70 78 59 34 43 49 34 26 37 38 36 30 32 35 38 28 31 36 39 31 45 35 43 45 44 51 55 68 85 91 97 112 134 148 158 170 180 188 198 205 212 215 218 219 221 224 224 223 222 224 222 223 222 221 223 222 219 218 218 216 214 214 212 211 210 211 207 209 208 205 203 199 194 187 181 171 159 143 118 94 71 49 29 12 17 33 42 36 23 24 42 60 66 74 70 36 43 45 25 35 38 37 32 26 30 35 35 27 33 36 36 35 46 34 44 44 46 52 59 77 94 96 106 121 144 156 164 176 184 192 199 207 214 216 218 219 222 223 224 224 222 222 222 220 222 218 218 219 217 218 217 216 214 214 212 213 212 213 212 210 209 206 204 202 199 194 187 181 170 157 136 113 86 58 38 18 10 30 40 39 28 22 38 59 65 67 71 37 44 41 21 39 38 35 31 27 33 37 29 28 37 38 32 37 41 36 50 43 48 52 61 82 93 102 119 126 146 160 168 178 182 192 198 208 212 215 218 219 222 224 224 223 222 221 223 221 219 215 215 216 217 216 214 215 216 212 212 213 215 215 215 211 211 209 206 204 202 197 192 188 181 168 148 129 105 74 50 29 10 20 36 37 35 24 30 49 66 63 64 38 43 35 23 43 36 33 30 28 34 35 28 34 34 36 32 45 33 42 47 42 50 55 69 86 97 113 126 133 150 165 175 182 189 198 203 209 213 215 218 219 220 222 222 220 219 218 220 219 218 213 212 216 216 215 214 215 215 213 214 214 214 214 213 213 212 210 206 205 204 198 194 190 184 177 159 142 120 90 62 39 17 15 34 35 39 30 25 41 63 62 63 40 44 28 21 41 34 30 27 31 34 31 32 37 37 37 33 46 32 48 42 45 53 54 72 90 106 118 132 139 154 169 180 187 192 198 203 209 214 215 216 219 221 222 222 220 218 216 215 215 214 214 213 214 213 215 213 213 214 214 213 211 212 213 213 210 209 209 207 204 203 199 197 192 184 178 165 150 131 106 74 48 24 13 29 35 37 35 27 37 61 66 63 43 42 24 27 41 32 30 26 34 36 31 34 37 39 36 37 42 38 48 41 47 53 57 80 100 111 121 138 141 158 172 182 189 196 200 201 207 211 213 216 218 219 221 222 220 219 217 216 215 215 215 210 212 213 212 211 211 211 210 211 211 212 214 213 210 207 210 212 207 204 203 197 192 187 181 169 153 138 119 86 59 33 15 25 35 36 38 31 29 52 64 65 43 37 22 36 40 31 30 28 34 33 28 36 37 39 31 40 37 44 46 44 51 52 66 90 103 115 126 141 147 161 173 183 190 195 199 202 206 209 213 215 217 218 219 219 219 218 216 214 214 213 210 208 210 211 210 207 208 210 210 210 212 214 212 211 210 208 206 208 207 204 201 199 195 190 183 175 160 142 126 101 72 43 22 20 35 36 38 33 29 47 60 62 40 34 24 38 37 33 33 32 35 32 32 38 40 35 29 43 37 44 43 45 52 54 76 96 107 119 132 145 151 164 177 186 192 197 202 207 210 211 212 213 215 216 217 218 217 216 215 214 214 210 209 209 211 210 208 208 208 209 210 209 211 211 209 209 209 210 204 200 205 203 198 197 193 190 185 176 164 148 130 113 85 53 26 12 31 37 38 34 30 45 59 61 36 33 28 39 37 36 32 33 33 31 32 40 39 32 33 41 40 44 42 46 54 56 82 98 111 123 133 147 155 168 182 187 193 196 200 204 209 212 213 213 213 214 216 216 214 214 214 213 211 207 209 209 207 206 207 207 208 209 208 209 207 208 208 207 209 208 202 201 200 201 198 195 192 188 186 178 165 154 140 119 96 64 31 8 26 38 38 32 29 40 57 62 35 28 28 37 37 33 29 31 32 29 35 38 36 33 37 40 40 42 41 49 50 65 90 102 113 128 138 150 159 171 183 186 192 196 200 201 207 211 209 211 215 215 215 215 213 212 211 211 210 207 209 208 205 207 206 207 207 206 206 208 207 208 210 208 208 207 203 205 200 198 198 196 191 188 185 179 167 159 148 127 103 74 41 10 22 36 38 34 31 39 55 62 32 29 30 37 35 32 28 33 30 26 37 38 38 33 40 38 37 41 43 48 51 74 94 106 119 131 142 152 157 167 180 186 192 197 202 202 205 210 207 208 216 215 212 213 214 214 211 210 209 211 209 208 206 208 207 206 207 206 203 205 207 207 206 209 207 206 206 203 201 199 197 195 190 188 186 180 171 161 149 134 110 79 48 13 17 38 38 36 30 38 52 61 33 26 35 35 33 32 28 32 29 28 35 34 38 35 43 36 40 40 43 48 54 80 95 108 120 129 142 153 161 173 184 189 193 198 203 206 206 206 210 211 211 211 210 213 212 212 209 210 210 211 210 209 206 204 206 206 206 204 204 206 208 206 205 206 207 205 202 202 201 197 194 192 191 189 186 180 172 161 151 138 117 89 53 19 18 40 34 33 33 37 50 62 35 26 40 33 35 28 29 34 29 32 32 36 35 37 43 34 38 38 46 50 60 84 95 111 121 131 147 155 165 173 181 189 193 198 200 206 207 207 209 212 213 212 212 213 213 213 210 210 208 206 207 206 202 204 203 204 205 205 207 207 206 204 205 203 204 202 200 199 199 196 194 191 189 186 182 178 173 161 150 140 123 97 61 25 20 35 32 36 37 40 47 60 36 30 41 37 34 27 31 34 28 32 31 36 30 43 37 34 39 42 49 46 68 88 99 115 124 135 147 154 168 175 180 188 193 197 198 203 206 207 208 210 213 210 209 211 211 210 211 211 206 205 206 202 202 202 202 203 205 204 205 205 203 203 204 203 203 203 200 198 199 198 196 195 192 188 184 181 174 165 155 140 126 100 66 31 13 29 31 37 37 42 45 59 36 32 40 37 32 29 32 30 25 31 30 34 35 43 32 37 37 42 43 49 73 91 101 116 124 136 147 155 167 175 181 188 194 198 200 203 206 207 209 208 209 210 210 210 211 210 210 209 204 205 204 204 204 202 201 203 206 206 203 204 203 203 204 201 203 201 198 197 198 197 197 197 191 187 184 182 175 167 158 144 125 104 72 36 14 29 31 36 34 45 44 58 31 34 38 34 25 29 34 30 23 29 30 34 37 37 33 37 39 43 45 52 75 94 104 117 127 139 146 159 168 176 181 187 193 198 201 203 206 209 210 209 211 211 210 209 211 210 209 207 207 206 203 203 201 201 200 202 205 206 204 202 203 204 201 201 203 203 199 197 198 198 196 197 192 189 185 181 175 167 157 146 128 110 78 41 18 29 31 38 37 46 44 57 31 37 38 33 22 26 38 31 23 28 34 33 35 33 35 36 42 44 46 52 79 96 107 121 132 141 148 161 167 175 178 187 193 197 201 203 205 208 209 210 213 213 211 210 210 209 208 207 209 206 205 204 203 203 202 203 205 205 203 202 203 203 199 201 201 202 200 201 201 199 198 196 193 190 189 182 174 167 158 149 137 113 81 45 19 26 36 38 38 44 43 52 27 38 38 31 24 27 36 28 23 33 36 31 37 34 33 37 41 43 49 53 85 98 112 126 134 140 151 163 169 177 182 187 192 196 200 204 206 208 211 210 213 214 211 210 211 209 207 206 206 204 202 201 202 201 202 202 203 204 204 200 200 201 201 202 202 202 202 200 201 204 200 197 196 192 189 183 177 170 161 149 137 116 81 47 25 26 37 36 39 45 42 51 29 37 38 30 27 30 36 26 27 39 33 32 37 35 33 39 43 44 49 55 87 100 116 128 136 144 157 165 172 179 184 188 194 199 201 206 207 209 212 214 213 215 213 212 207 204 209 205 205 204 204 200 203 203 201 203 204 205 203 201 202 200 201 202 203 202 203 203 205 202 197 198 197 193 191 188 183 177 166 148 137 119 86 51 27 25 37 38 43 43 41 52 28 39 37 29 30 33 36 29 33 38 30 35 39 34 37 42 43 47 48 63 92 100 119 130 135 149 163 170 176 183 187 191 195 196 201 206 209 210 212 213 213 213 213 210 209 208 209 205 205 204 204 203 203 203 203 202 202 204 202 200 203 202 200 203 204 204 205 206 204 200 201 201 199 196 194 192 187 179 167 154 140 121 91 55 26 26 38 41 44 40 39 48 29 38 33 28 30 34 43 29 31 36 29 37 35 33 40 40 44 44 47 67 91 103 121 129 143 155 162 173 181 185 189 193 198 200 201 205 208 210 211 213 214 213 210 206 206 208 206 207 205 202 201 201 201 200 200 202 202 204 203 201 204 204 202 203 205 204 206 205 205 204 202 201 197 196 193 190 189 180 169 159 146 131 99 55 26 26 39 43 47 39 39 47 33 37 31 30 37 41 41 22 34 38 26 36 34 34 42 41 43 42 46 67 88 104 120 132 150 156 163 178 185 188 190 193 197 200 199 203 208 210 210 213 213 214 211 206 205 207 206 205 204 202 201 202 201 199 200 202 202 204 205 201 202 203 201 203 203 202 205 205 204 203 202 200 197 195 191 190 187 181 169 165 149 135 104 53 26 28 39 45 48 37 42 46 37 36 28 36 45 33 31 29 36 36 27 37 33 38 43 48 44 39 47 69 91 108 121 137 150 160 169 178 181 186 189 191 194 197 197 202 206 205 203 210 215 215 210 206 205 207 206 201 202 203 201 201 201 202 200 201 200 201 202 200 201 201 199 200 202 203 202 202 204 202 203 202 199 190 189 184 183 177 166 158 147 133 105 56 27 30 38 43 43 35 41 42 37 33 30 42 36 31 30 31 36 30 29 37 34 43 51 47 43 36 45 70 93 102 125 142 149 159 169 174 177 185 188 188 191 193 192 197 198 200 200 204 212 210 207 207 207 206 205 202 200 199 199 196 198 200 199 198 199 199 198 195 197 195 194 196 196 201 198 198 197 195 195 193 191 189 186 178 171 164 157 150 143 128 108 63 26 33 38 44 41 33 40 42 39 36 40 34 33 36 31 34 34 29 35 35 38 48 51 41 42 34 44 75 91 100 118 126 129 135 146 152 158 168 171 175 183 186 184 188 191 195 197 200 206 199 199 205 199 200 199 198 197 194 194 195 196 196 197 196 194 197 198 197 195 195 194 194 191 192 191 191 189 186 184 184 181 175 171 164 153 148 139 125 110 94 84 63 33 32 37 44 38 31 41 42 38 43 31 32 30 37 35 35 30 31 39 35 45 47 41 42 42 34 48 76 81 87 97 98 94 90 97 105 109 116 117 127 140 144 159 170 176 183 186 188 196 194 190 190 188 190 193 194 192 195 193 192 196 193 196 193 192 195 197 193 194 193 189 188 184 181 177 177 181 181 168 167 165 155 143 128 110 97 85 74 62 53 52 48 32 26 37 40 35 31 39 41 45 35 29 29 32 40 36 35 25 32 39 37 45 43 39 45 43 36 48 62 59 62 67 64 56 57 65 64 65 68 70 71 77 82 95 112 120 125 131 142 151 155 160 156 161 180 183 181 188 190 193 194 192 191 193 191 190 193 194 191 191 187 182 176 165 155 156 151 147 137 125 120 111 100 83 69 62 51 47 47 38 39 43 39 25 27 35 38 34 33 36 41 37 30 32 27 33 39 36 32 23 37 38 40 41 40 43 47 42 36 40 39 39 41 49 44 42 41 44 48 50 50 55 59 59 57 59 61 63 73 76 76 80 90 114 133 129 152 174 165 174 184 190 192 189 190 191 189 189 189 191 188 188 182 169 152 133 121 119 101 90 76 71 64 55 49 48 44 47 46 35 33 40 36 31 28 22 30 35 40 34 32 32 40 34 29 31 27 31 37 34 31 26 41 41 42 43 43 43 47 37 36 36 35 38 39 38 42 50 60 63 60 55 57 56 56 58 53 52 56 49 51 58 61 60 72 86 91 111 116 143 154 159 176 184 187 186 188 187 185 183 184 183 180 182 172 148 126 106 93 84 66 56 54 48 45 43 41 43 45 43 40 43 53 56 51 34 25 24 31 35 38 34 27 30 38 32 27 32 30 32 36 32 26 28 43 43 40 42 42 43 45 32 39 41 40 43 47 59 76 81 84 97 93 85 82 72 69 70 68 55 54 58 54 57 63 62 69 74 69 84 101 122 144 149 168 180 180 182 185 182 179 178 181 176 175 172 157 128 104 92 78 68 59 50 49 46 45 44 44 50 58 73 84 91 92 93 85 57 34 23 32 38 41 36 25 29 37 30 27 31 32 37 36 30 26 38 40 43 41 43 40 46 40 33 46 43 48 62 79 108 128 132 134 133 131 126 123 125 120 115 112 103 79 79 79 68 65 68 70 77 70 75 90 113 136 143 166 178 178 180 179 177 177 176 176 172 168 162 147 120 94 84 69 61 64 62 61 61 67 75 83 96 109 123 132 134 132 135 122 89 46 28 35 40 41 32 24 26 37 28 29 32 31 38 37 27 30 40 34 42 44 41 41 45 33 37 50 57 73 95 116 136 154 160 163 167 163 161 158 154 149 145 146 140 131 123 116 108 98 91 80 77 79 82 92 113 124 138 168 177 179 181 182 178 177 173 168 165 164 155 136 109 94 85 80 80 85 91 99 103 111 119 127 131 133 138 139 137 137 140 130 101 56 36 38 39 33 31 24 28 36 26 28 31 31 35 36 25 29 38 35 40 41 41 44 43 32 41 55 74 96 119 133 142 155 160 161 163 159 155 151 156 155 153 150 143 136 137 132 129 128 125 126 118 116 111 108 119 130 147 165 175 176 179 180 178 174 169 163 160 159 146 128 111 108 106 109 109 111 114 113 117 125 135 137 134 134 129 126 131 133 130 127 102 56 39 39 39 31 30 21 31 34 28 27 31 34 37 33 26 34 39 37 42 41 42 47 38 35 49 68 93 110 123 134 144 148 153 152 146 131 123 130 138 147 143 138 136 134 133 133 127 129 134 137 140 142 143 138 139 148 155 162 171 174 177 172 174 169 167 162 157 149 139 122 116 114 110 106 117 120 113 111 99 107 114 113 109 107 97 103 102 114 112 111 89 51 38 37 39 32 31 22 29 33 27 28 30 32 38 32 24 37 39 40 45 46 43 49 36 38 61 80 99 110 121 129 139 131 127 125 115 98 76 88 95 102 97 81 80 88 103 105 117 132 141 139 138 137 142 145 149 152 153 160 167 176 172 170 172 169 167 159 150 140 129 113 102 103 113 90 106 95 61 49 32 39 38 38 43 45 49 62 79 87 96 100 80 47 38 36 39 32 34 25 28 32 28 28 30 31 40 31 26 40 36 38 45 43 46 44 35 48 79 90 97 104 111 120 113 109 95 94 67 45 25 20 25 23 22 20 16 16 27 31 67 120 141 142 141 139 137 140 143 149 154 157 168 173 174 182 181 175 169 156 143 129 107 92 101 112 108 63 37 29 23 18 19 12 13 7 13 13 18 24 32 56 84 88 71 42 35 35 39 30 32 25 25 31 28 27 29 33 39 27 28 40 36 41 47 39 47 40 37 61 90 94 97 99 103 108 104 89 73 46 22 14 9 11 24 22 32 38 50 47 26 23 34 47 81 124 141 142 139 136 137 141 149 154 165 176 182 186 181 177 166 152 137 112 86 96 108 93 53 23 23 30 36 43 42 32 58 48 16 11 13 17 18 29 54 71 59 40 33 35 37 26 29 25 25 29 25 28 28 36 36 25 31 40 37 45 43 39 47 39 44 74 95 98 101 96 103 100 90 69 32 17 16 18 21 29 34 47 72 57 50 100 114 95 66 33 34 74 126 140 136 132 131 131 136 152 165 178 183 186 184 179 168 152 127 89 85 98 84 47 33 32 37 35 38 66 52 43 66 110 99 64 24 7 14 20 29 45 52 39 32 31 36 30 27 26 24 27 25 31 30 40 36 23 37 37 41 49 39 42 44 40 59 88 93 105 106 102 106 105 76 44 26 13 21 46 41 46 32 28 65 71 43 96 151 137 120 81 55 52 85 123 133 131 133 129 128 143 165 181 190 193 193 183 170 151 111 77 89 82 52 43 60 38 44 27 21 42 40 58 63 111 128 103 62 21 8 8 20 33 41 39 34 31 33 33 29 27 25 28 25 29 31 41 37 30 38 39 48 46 35 44 38 44 81 98 94 102 108 108 103 94 77 50 27 17 43 60 36 50 32 16 34 59 43 92 163 158 143 131 90 56 70 105 125 128 130 131 129 139 164 181 196 202 199 191 176 150 97 75 87 66 43 72 88 41 53 52 34 47 72 57 65 123 127 90 53 30 21 19 20 26 43 39 34 34 34 34 31 24 23 26 24 30 32 43 38 31 37 40 45 40 33 43 37 56 94 100 99 100 106 107 105 98 72 49 28 23 40 56 39 50 61 49 59 86 69 115 176 164 141 131 107 70 64 103 131 139 138 130 135 143 164 185 197 205 204 195 185 154 92 82 88 58 47 70 87 47 39 61 73 74 69 49 78 102 89 64 52 46 43 39 46 51 50 39 35 35 35 35 31 28 21 25 29 31 33 43 37 32 39 43 45 37 35 37 42 76 102 101 107 115 117 116 110 102 88 63 54 51 51 57 63 68 71 80 89 79 82 129 147 131 111 94 87 84 72 69 127 147 151 139 150 151 166 189 201 209 210 205 191 155 100 96 84 49 52 67 80 86 92 95 89 101 89 96 101 105 96 92 88 82 63 58 66 66 55 45 37 35 37 37 30 27 24 23 25 32 37 45 35 35 39 45 43 35 35 34 53 93 105 106 112 122 127 127 125 122 108 88 78 84 82 82 89 95 92 108 123 106 114 133 125 113 128 114 109 114 101 78 108 147 157 144 156 160 172 191 204 211 215 208 192 167 116 109 102 83 91 118 115 116 134 143 148 150 140 131 133 135 125 119 104 92 80 83 88 79 67 55 42 38 37 37 32 23 23 24 23 31 37 44 36 31 36 45 42 35 38 40 73 102 108 113 122 131 140 141 141 140 133 123 113 112 107 107 117 126 123 132 143 136 137 134 139 132 133 128 119 128 142 141 148 161 152 151 163 169 176 189 206 216 218 208 198 176 138 122 126 128 128 128 119 113 118 126 133 136 136 135 131 123 118 111 102 101 106 108 104 93 78 59 46 37 39 35 36 25 23 24 28 29 37 43 39 31 38 44 40 35 38 52 86 103 108 119 130 139 146 151 155 156 150 144 139 136 133 129 126 128 129 131 135 137 135 130 128 125 120 123 131 137 147 156 162 164 162 166 174 176 180 191 209 218 220 214 204 184 154 138 138 142 143 141 132 123 120 114 114 119 120 118 117 117 117 115 116 119 121 116 112 99 84 65 45 37 40 38 37 29 20 24 34 33 39 40 37 30 41 43 39 36 39 65 93 102 110 124 135 144 151 155 159 159 158 155 151 150 150 148 144 140 138 137 134 135 133 132 131 131 130 137 147 154 157 163 167 173 173 180 182 180 186 198 209 217 222 220 208 192 169 151 151 152 155 154 149 144 138 132 129 130 128 130 131 132 132 134 135 134 131 129 122 111 91 70 50 40 40 38 39 29 21 24 39 37 42 39 37 30 41 42 41 34 46 76 98 105 116 129 139 149 156 159 162 163 164 164 164 162 160 160 159 158 156 155 152 150 149 148 148 150 154 159 164 167 171 178 183 184 184 188 186 184 192 204 211 218 223 221 212 196 176 161 161 162 165 167 167 163 157 151 149 148 149 149 149 148 149 149 147 145 145 143 135 122 101 78 54 43 41 43 39 30 21 26 30 36 44 38 38 31 42 38 42 33 52 83 97 108 119 128 140 150 154 158 165 168 171 173 176 176 174 173 173 170 169 168 168 167 165 166 165 166 171 173 176 182 186 189 191 189 190 190 185 190 198 205 209 218 222 222 213 196 182 169 169 171 170 175 178 175 174 169 164 162 163 164 163 162 163 162 160 162 162 158 145 129 110 82 55 44 43 46 39 31 20 27 19 39 45 34 38 35 45 42 42 37 63 87 97 111 119 130 141 148 154 159 166 170 176 179 183 184 185 184 183 183 182 182 180 180 180 179 179 179 183 185 189 194 198 196 192 197 195 191 190 194 203 204 207 217 222 221 215 201 188 173 168 174 176 180 187 188 188 184 184 183 181 181 182 179 179 179 175 176 175 172 158 138 115 87 58 47 42 46 43 34 24 26 27 43 46 34 34 39 48 42 38 44 73 88 100 111 120 132 143 148 157 162 167 174 180 185 189 193 195 195 195 194 191 192 190 192 191 189 187 191 194 195 198 202 203 200 196 195 198 191 194 197 203 203 203 215 222 223 216 203 190 177 169 173 181 187 191 195 195 192 194 193 193 193 194 190 190 188 183 182 182 177 164 146 120 95 64 49 45 46 45 41 26 24 31 45 46 33 33 43 48 41 38 50 75 87 98 112 121 133 143 151 156 162 170 177 181 187 191 190 198 199 200 199 199 199 196 199 200 198 198 199 199 201 204 206 207 203 199 194 194 194 196 197 197 199 204 217 223 222 217 209 194 179 172 171 181 192 197 201 203 201 200 198 198 200 199 198 199 197 193 190 186 181 167 150 122 100 70 53 47 46 47 41 31 27 32 52 47 35 32 41 48 42 39 53 74 87 98 111 119 132 142 151 157 164 172 177 182 189 193 193 202 202 204 206 208 207 205 206 205 202 203 202 204 209 208 211 209 204 202 199 197 195 202 196 197 200 205 214 223 226 221 213 199 180 172 173 180 193 200 204 206 207 206 206 205 205 202 202 201 199 197 193 188 183 169 154 127 102 75 55 49 44 49 43 35 27 37 55 44 37 34 41 46 44 39 56 75 87 95 106 120 132 142 151 158 165 174 178 188 191 197 202 206 207 208 211 210 210 211 211 209 207 208 209 211 212 214 212 209 204 200 201 199 196 199 198 200 199 205 215 225 229 220 209 201 184 172 170 180 192 194 198 204 207 207 206 208 207 206 205 201 197 198 195 190 184 170 156 134 106 79 54 50 42 49 47 35 30 42 56 48 39 37 40 45 41 46 57 71 82 94 104 119 132 142 149 158 166 173 181 186 191 198 202 208 210 212 213 211 208 212 214 213 211 212 212 215 214 214 209 207 206 203 200 194 195 193 195 199 201 210 216 224 227 221 212 202 186 172 167 176 183 187 188 194 201 204 206 207 206 204 203 199 198 195 191 188 184 171 157 134 109 84 56 52 46 46 51 37 31 60 58 52 40 39 41 46 44 47 56 68 80 92 103 117 128 140 149 156 164 171 180 183 190 199 203 207 211 211 211 213 212 212 214 215 215 213 214 214 213 207 205 205 203 201 197 190 193 194 195 198 205 212 217 222 227 225 215 205 191 172 163 166 172 178 179 186 192 196 202 202 199 203 199 200 199 194 191 186 182 171 158 136 111 92 62 54 51 43 51 45 37 64 58 53 43 41 42 46 45 48 55 66 78 89 100 113 127 139 148 157 164 173 180 186 190 198 203 206 209 210 212 214 215 215 212 212 214 210 211 210 208 200 200 197 193 194 190 186 188 191 195 204 209 211 218 222 227 226 218 207 198 179 160 153 155 161 170 179 186 191 193 196 196 197 196 197 197 194 186 180 180 172 159 141 111 93 68 56 55 45 46 50 41 67 57 55 47 45 40 46 45 48 50 64 76 85 95 108 124 137 146 156 164 175 181 185 191 196 199 204 205 209 212 213 214 214 209 207 206 207 209 204 198 197 192 189 182 181 181 183 186 189 194 203 207 213 219 223 226 224 220 211 203 187 162 145 138 143 159 169 177 184 188 191 190 192 194 194 193 191 186 182 178 169 160 145 113 94 71 55 52 51 47 54 46 72 54 57 51 47 43 48 48 47 48 59 72 82 93 105 120 134 146 156 164 173 181 185 190 194 197 203 206 205 207 206 210 210 207 203 204 206 203 200 191 187 178 173 170 168 171 176 179 183 190 203 209 214 218 222 225 225 220 214 208 197 173 145 134 135 145 159 171 178 184 186 186 189 190 192 190 186 185 181 175 165 157 145 119 97 75 57 51 54 53 52 52 72 57 54 55 50 42 48 48 46 46 55 69 78 88 101 115 127 143 154 163 170 175 183 188 192 198 202 203 204 203 203 200 204 206 207 201 200 201 193 185 176 168 159 157 162 166 177 181 182 190 202 211 218 223 224 226 225 220 211 207 200 186 173 143 132 144 155 168 176 181 185 185 185 187 186 185 184 181 174 171 161 156 143 118 99 79 56 52 48 53 56 56 67 57 52 54 54 43 49 49 47 45 52 65 76 84 97 110 123 137 147 157 164 172 178 185 190 192 199 201 200 201 199 201 202 200 200 199 197 194 185 175 169 160 153 152 158 179 195 199 195 189 198 206 216 221 222 223 223 214 203 200 199 186 193 176 150 162 167 170 175 180 184 185 185 184 183 182 180 177 170 164 158 152 138 118 98 82 61 46 49 46 57 55 68 60 53 52 58 46 46 51 51 48 50 61 72 80 93 105 117 129 139 147 162 169 175 183 189 191 191 193 194 196 198 197 196 195 195 196 193 187 180 171 167 164 159 155 171 188 196 201 200 190 193 202 213 218 216 214 215 210 203 200 198 183 185 192 178 178 183 180 176 178 179 181 179 175 176 175 174 172 166 161 154 149 138 115 96 78 58 37 47 46 49 59 59 62 53 52 60 49 47 50 50 47 49 58 68 77 87 98 109 124 138 147 158 167 172 179 183 188 191 191 193 194 194 194 194 192 192 189 189 184 181 178 180 181 172 164 179 186 191 195 196 190 193 201 210 213 216 212 212 206 200 199 190 176 175 182 181 186 193 185 174 170 172 177 176 171 172 170 169 161 159 155 148 142 132 110 93 76 43 29 49 50 45 56 55 61 55 51 59 54 50 53 48 46 48 55 65 73 80 95 107 120 133 144 154 164 168 173 178 181 186 188 189 190 191 191 191 190 188 186 187 188 183 186 192 190 177 169 180 181 184 191 188 183 190 195 199 206 210 207 204 199 196 190 184 166 159 163 169 192 192 185 173 161 162 165 168 168 165 163 160 153 149 150 140 132 122 107 86 73 32 10 46 54 46 55 61 60 54 53 57 54 51 51 46 45 48 55 62 70 77 89 104 114 125 139 146 156 163 170 173 175 181 184 186 186 186 188 188 186 181 181 183 183 180 191 201 199 186 158 167 173 172 173 174 172 178 185 189 199 202 199 196 193 187 176 168 146 136 139 161 196 194 185 175 161 154 158 160 158 157 157 155 149 144 141 134 125 114 107 84 67 27 8 31 58 45 48 58 57 55 49 60 53 50 52 47 42 49 56 63 69 76 85 96 108 120 132 140 149 156 163 168 171 175 179 177 179 180 182 182 180 176 177 176 176 185 198 207 206 202 167 143 155 158 158 157 158 159 168 177 187 190 190 188 183 173 159 141 122 121 128 172 200 198 187 176 165 151 151 152 151 150 150 146 143 139 134 125 119 108 98 79 49 21 22 15 45 59 41 51 53 61 53 57 57 51 53 53 42 48 52 60 69 77 80 88 103 115 127 134 141 150 156 162 167 168 172 174 173 175 173 174 174 171 170 170 175 188 197 202 210 212 197 148 115 117 115 102 112 135 145 152 165 173 173 172 165 149 131 111 96 98 132 186 200 194 189 180 169 150 142 148 147 146 145 140 136 130 126 117 110 100 89 71 32 23 26 13 24 61 50 52 51 56 55 58 59 54 53 55 44 47 50 59 69 76 81 83 95 105 119 128 134 141 149 155 158 160 162 165 167 170 171 169 168 166 165 170 179 188 193 201 210 219 215 193 148 105 85 78 74 87 121 141 143 151 154 153 140 121 105 85 88 117 165 187 191 186 185 179 170 158 141 141 138 137 139 133 128 125 119 111 101 90 77 52 27 33 24 17 17 42 63 45 56 49 50 60 63 52 52 57 43 44 51 56 65 74 82 85 90 97 107 120 126 134 139 146 150 153 156 158 162 165 165 168 165 164 166 169 182 189 193 200 205 211 213 209 198 171 140 121 113 106 94 117 138 136 137 132 119 105 97 104 123 156 176 182 182 179 179 175 168 163 150 136 134 132 129 128 125 119 113 103 93 84 65 29 20 33 28 24 24 28 60 55 61 48 44 59 66 53 53 60 50 38 51 60 65 73 82 88 87 95 103 111 116 124 130 133 139 145 149 153 157 160 161 162 163 165 168 179 190 193 193 196 199 201 201 203 202 194 183 165 150 141 125 105 119 127 126 122 113 107 111 127 147 166 173 175 172 173 176 173 166 156 153 140 132 125 121 122 118 110 100 89 84 73 50 18 28 31 26 31 27 28 46 45 67 53 48 62 66 55 53 63 57 38 44 57 66 73 82 91 94 96 101 109 113 119 124 126 131 140 145 149 149 154 154 155 163 171 176 189 193 192 193 193 192 192 192 195 196 192 184 177 170 161 153 140 118 114 118 120 122 125 131 145 155 160 166 169 170 171 172 167 159 147 147 144 132 118 117 117 112 101 87 78 77 67 39 18 29 29 23 36 24 29 39 31 55 61 52 60 63 56 54 63 64 39 40 50 64 72 81 91 101 102 104 108 112 117 121 125 130 135 140 145 147 149 152 161 170 178 187 188 188 189 188 188 191 191 190 190 191 186 182 180 174 168 164 157 145 131 123 126 134 138 144 150 156 160 163 167 171 168 166 157 147 138 134 139 134 119 112 114 107 95 77 75 78 59 28 14 31 34 25 29 30 35 37 35 53 52 57 63 64 58 57 63 66 47 38 47 57 70 79 89 99 107 113 115 113 117 120 123 128 132 136 139 142 146 156 163 170 183 186 182 183 185 186 186 191 191 189 187 187 183 180 177 174 172 167 157 146 133 129 131 139 147 148 150 159 163 161 162 166 162 156 147 138 126 127 133 136 123 111 112 103 89 80 78 74 48 21 13 38 37 28 27 37 37 34 36 52 49 55 63 68 61 59 62 65 53 37 43 56 67 77 89 100 111 119 123 121 123 128 130 130 131 133 132 136 145 156 161 173 181 177 171 177 182 183 183 186 188 186 184 184 182 178 174 170 172 169 160 145 130 133 136 141 149 156 160 166 158 155 157 159 155 149 136 124 117 122 127 129 119 113 113 103 93 86 78 66 42 14 23 41 37 28 28 34 33 37 33 49 44 44 50 65 61 60 62 63 53 42 43 52 64 75 84 97 112 122 130 129 129 136 139 138 135 134 133 137 148 156 162 172 176 172 170 172 173 176 178 180 183 182 179 178 175 177 177 169 169 171 170 157 142 137 144 150 163 168 163 164 154 156 153 143 143 139 126 116 109 115 122 128 119 115 111 104 100 90 76 57 38 12 29 36 42 27 33 31 32 42 40 52 49 41 50 60 59 61 66 67 62 44 41 49 63 73 81 95 112 127 135 137 135 140 147 148 148 144 141 140 152 158 163 167 168 165 162 163 165 169 173 173 178 180 177 178 177 178 179 172 167 169 170 164 160 161 167 165 165 162 153 146 142 142 140 134 132 132 122 111 104 111 122 132 116 117 112 110 102 88 71 48 34 28 31 34 41 29 35 34 37 40 39 53 50 39 50 61 53 52 63 66 66 49 43 46 59 72 78 90 111 128 137 139 140 143 150 156 158 154 150 148 152 156 162 162 159 152 148 153 161 166 172 170 171 178 179 176 173 169 165 159 155 148 148 150 157 165 164 151 139 129 119 117 116 113 112 109 107 114 109 98 97 102 129 131 119 121 115 113 101 84 62 41 29 34 29 32 45 31 35 36 37 40 51 54 43 43 49 59 57 50 52 62 67 57 41 46 57 72 78 82 106 127 138 138 141 144 151 159 166 162 159 159 159 157 159 160 149 145 146 150 156 162 165 164 160 160 161 155 145 143 138 130 127 118 114 114 117 123 130 114 103 105 98 96 99 97 90 85 77 71 68 75 91 118 139 134 132 124 115 112 96 76 55 28 29 32 25 34 52 38 32 37 39 39 49 60 44 46 46 53 55 52 51 52 62 66 52 46 54 69 79 83 97 120 133 137 140 147 153 160 167 168 165 163 164 160 157 153 139 135 138 138 141 146 142 141 129 122 122 124 123 124 119 113 112 111 106 105 101 107 103 96 98 106 101 108 113 100 92 80 65 51 52 75 107 137 144 138 138 122 113 107 87 70 48 23 31 31 32 37 51 30 31 39 39 42 53 56 50 45 45 52 58 50 52 54 59 63 56 44 45 59 78 82 87 113 129 137 144 146 153 161 167 169 165 162 167 161 157 153 135 124 107 76 74 88 90 89 95 103 109 117 123 130 126 122 124 127 115 96 99 114 109 110 105 105 103 103 104 89 85 70 59 54 81 105 127 142 145 142 137 117 109 97 82 62 41 29 34 41 30 33 44 33 38 39 35 42 56 57 45 45 47 53 61 52 50 52 56 59 52 59 52 55 71 78 76 98 120 132 144 145 149 157 163 167 165 164 168 166 162 156 146 127 100 83 57 58 78 92 100 114 112 108 118 120 116 112 112 109 107 104 110 110 106 102 90 87 85 78 68 58 54 59 64 78 113 125 140 147 146 141 132 111 101 90 76 53 33 33 36 35 33 38 46 40 38 31 34 39 61 60 42 41 53 52 60 52 50 50 49 62 53 53 62 60 64 76 81 94 112 122 133 143 144 151 160 161 163 167 169 167 164 160 155 148 142 142 123 93 80 82 83 84 86 82 80 77 79 78 67 67 75 91 85 75 69 66 65 54 48 46 50 58 69 72 73 102 125 133 147 149 141 137 122 102 96 85 67 45 33 35 25 34 43 33 49 35 32 26 41 34 63 57 45 37 50 50 60 56 52 50 49 58 59 50 51 57 65 75 80 87 107 122 127 134 141 146 156 156 156 161 168 165 164 165 169 169 167 164 157 143 111 89 83 79 73 81 75 74 69 72 61 57 54 50 46 48 49 51 62 64 65 72 79 89 86 70 88 122 128 141 147 145 136 133 112 96 90 78 62 41 34 24 25 35 27 30 47 32 27 36 36 28 60 54 44 41 48 52 56 53 54 54 49 54 60 44 48 52 62 73 79 86 99 116 125 127 137 142 149 153 151 154 164 162 165 173 178 180 178 170 163 165 158 132 107 95 88 96 103 110 103 119 119 110 103 94 88 85 93 96 95 99 103 93 85 78 69 91 118 122 131 142 142 139 132 129 102 92 85 72 55 33 27 22 26 27 28 37 43 31 33 41 31 26 59 56 50 44 45 48 55 51 47 47 48 50 55 55 38 46 56 68 79 84 91 107 118 124 131 136 141 148 149 151 159 160 166 176 181 182 181 176 168 166 167 169 152 123 103 90 90 96 113 118 115 107 110 111 115 98 104 104 100 101 101 87 76 75 95 122 123 126 136 137 138 133 129 117 91 90 80 62 43 29 28 22 24 21 37 38 40 32 38 36 24 28 54 46 49 49 46 47 53 54 47 48 48 45 52 59 38 27 53 63 71 82 90 101 114 120 127 132 135 138 146 146 156 161 164 175 175 177 178 182 180 169 162 166 176 168 144 126 113 100 93 96 96 95 103 103 97 91 98 92 89 86 86 82 90 104 126 127 122 132 136 133 139 125 124 102 88 86 73 55 32 28 23 23 20 25 35 38 41 34 37 28 20 31 52 43 46 49 48 46 48 51 50 48 47 42 48 55 48 24 39 61 66 77 88 99 108 116 122 124 133 136 140 142 151 158 158 168 172 174 177 179 181 179 171 162 167 178 180 171 154 137 117 106 103 102 103 98 94 97 95 89 84 88 95 105 117 127 129 120 123 132 134 136 134 118 116 92 87 81 67 39 22 24 22 23 21 31 29 44 43 33 31 19 23 32 54 48 46 48 46 45 48 49 55 46 47 41 46 51 51 34 30 51 63 71 82 95 103 111 118 120 123 130 134 140 146 158 157 162 169 176 175 176 174 175 174 166 160 161 172 176 177 168 155 137 122 117 110 107 105 102 100 103 107 116 124 131 134 130 118 113 124 131 135 136 124 118 104 84 84 74 57 18 21 21 20 21 27 30 28 46 40 33 23 18 28 28 51 48 45 47 48 45 47 49 51 47 47 44 49 49 49 40 34 42 55 65 75 89 100 108 116 119 121 126 130 134 144 159 158 155 165 173 172 174 173 171 170 166 160 156 157 163 164 166 167 156 140 131 121 115 117 115 114 116 125 134 136 134 129 122 115 116 124 133 137 132 116 113 88 82 80 66 32 6 25 18 19 27 30 26 26 41 36 27 18 23 32 24 53 48 45 47 45 46 46 50 48 46 47 45 47 50 48 44 35 39 44 56 69 82 94 104 112 118 122 125 127 127 136 153 161 151 155 165 169 171 173 169 166 164 161 157 152 149 148 150 152 151 145 138 132 127 127 127 124 124 128 130 129 124 119 116 116 121 127 135 136 123 113 97 80 82 71 47 4 10 24 17 22 27 30 33 24 45 34 20 15 26 28 22 58 51 42 46 44 43 49 52 48 46 45 43 45 50 47 40 38 47 44 44 61 75 87 99 109 116 121 125 124 122 127 144 161 158 148 156 168 169 172 170 166 163 160 155 153 150 148 143 141 138 137 136 132 130 128 126 125 126 127 127 124 122 118 118 121 125 132 136 130 117 105 82 78 77 57 10 0 20 22 20 25 29 35 28 31 42 38 18 19 27 23 19 53 48 42 47 44 43 49 54 48 47 44 40 44 49 47 37 35 47 49 42 50 64 81 93 103 111 117 124 125 123 123 132 151 162 156 147 160 167 170 169 169 165 160 156 154 150 149 145 142 140 137 135 136 131 126 125 126 128 128 127 125 123 122 123 127 134 140 135 122 111 89 75 77 66 23 0 7 25 22 19 26 35 32 24 42 31 36 18 24 26 23 20 47 47 43 45 45 41 44 53 48 45 43 41 44 49 45 34 30 48 52 49 47 52 70 85 96 106 113 120 125 126 122 123 138 156 165 156 153 162 167 169 168 166 164 160 156 152 150 147 145 142 138 135 135 134 128 128 131 132 132 135 132 129 129 133 138 140 138 128 115 98 77 75 70 33 3 1 13 27 22 23 29 32 20 34 41 28 31 26 21 27 20 20 46 44 44 44 46 42 41 52 46 43 41 42 44 50 43 35 22 47 54 54 53 53 58 75 89 100 109 115 122 125 124 119 128 145 160 163 153 155 163 168 168 167 168 167 164 160 159 155 150 148 146 142 140 139 136 136 138 141 144 142 141 142 142 143 146 146 135 122 108 83 73 72 39 6 7 5 20 24 23 27 33 24 21 35 31 33 24 23 21 27 18 22 48 44 42 46 44 41 39 51 46 43 40 43 48 46 39 34 18 41 58 59 61 59 54 63 79 95 104 111 118 121 121 120 122 134 149 157 158 158 163 165 171 172 170 170 171 169 167 164 161 156 154 153 151 150 150 152 154 155 155 150 147 145 149 153 150 144 131 116 94 73 71 44 2 4 5 5 20 23 20 33 33 21 30 34 26 31 26 22 26 29 21 23 53 49 37 45 41 39 40 49 45 44 41 43 48 44 37 33 14 28 54 60 68 71 61 62 69 85 97 106 114 118 120 120 118 125 140 150 157 159 164 167 172 175 174 174 174 175 176 175 173 170 166 165 165 164 163 163 163 162 158 158 156 157 157 157 150 143 126 104 77 71 47 5 1 6 2 12 25 22 21 39 29 24 34 30 27 30 27 31 26 26 25 28 52 51 37 41 43 40 39 44 43 41 39 36 45 44 41 35 15 23 47 57 67 74 73 65 65 73 89 102 110 115 116 118 118 119 133 143 153 159 164 167 174 178 180 180 180 181 182 182 180 181 180 177 173 171 172 171 169 167 168 169 169 165 161 156 152 140 115 88 69 47 20 6 8 8 10 24 25 22 32 30 34 33 32 29 23 25 18 28 33 33 25 30 40 48 42 38 41 39 34 40 41 38 36 39 42 41 41 34 18 18 34 60 64 74 80 75 71 69 75 90 102 109 113 116 117 117 125 137 146 156 163 168 176 179 184 186 186 185 187 186 186 185 185 183 179 176 176 178 179 176 177 174 170 164 160 158 154 129 102 76 47 20 19 16 12 15 19 19 23 27 27 31 38 30 35 33 22 25 15 24 27 32 31 31 39 46 43 36 36 40 36 39 40 34 32 38 37 38 44 32 15 21 21 50 66 72 80 83 81 79 75 77 89 101 108 113 115 116 120 130 137 150 159 165 173 180 184 185 187 187 188 187 187 185 185 185 182 180 181 182 183 183 180 174 169 163 159 159 146 113 85 43 27 22 21 17 18 16 10 15 30 29 28 36 31 31 35 30 28 28 17 26 29 26 24 32 39 44 44 35 37 40 37 37 37 32 31 36 38 37 43 34 19 23 18 32 58 69 76 86 87 89 88 80 78 86 100 108 113 114 116 124 133 140 153 161 166 174 182 179 181 188 187 188 189 189 188 185 182 181 182 183 182 181 176 172 165 162 162 155 128 98 50 10 28 25 24 21 15 10 10 18 40 29 31 30 33 37 34 31 31 26 18 29 32 30 31 39 39 40 43 37 38 38 37 36 34 30 29 36 40 36 35 30 30 32 27 33 45 64 73 81 89 90 95 93 83 79 87 98 107 110 113 119 128 136 143 153 160 170 178 181 185 188 187 186 185 186 185 183 181 178 176 179 178 174 172 168 162 161 158 139 108 71 26 8 27 27 24 26 18 13 9 24 38 26 38 34 33 36 38 34 31 25 25 32 30 32 37 42 41 36 39 35 38 37 37 36 30 26 29 37 38 33 34 31 28 21 22 31 45 52 68 76 78 86 97 99 92 88 86 86 95 104 109 112 120 130 137 146 154 161 169 176 182 186 186 184 184 184 178 176 175 172 172 175 174 172 166 161 158 154 144 117 86 43 25 10 23 29 30 29 18 12 5 24 37 25 36 43 33 36 38 30 36 21 26 30 28 32 40 42 39 33 35 32 36 35 38 34 28 25 28 34 34 33 33 33 30 26 23 28 50 57 65 75 78 79 92 94 92 94 93 90 89 93 99 107 115 121 130 140 148 152 158 166 173 176 179 180 178 175 171 171 168 168 168 167 164 160 156 154 150 140 124 96 57 35 28 12 22 34 35 29 15 8 9 27 38 28 35 41 43 40 35 26 36 28 28 25 33 30 35 39 43 36 37 31 38 34 38 31 25 24 32 32 31 31 30 32 29 27 23 27 50 68 65 74 83 87 88 90 99 98 97 95 94 93 93 99 106 112 121 132 140 147 149 155 161 165 169 170 170 168 164 162 159 159 158 157 154 150 149 146 135 122 101 68 45 36 31 15 19 35 33 26 14 7 15 23 40 35 37 38 43 41 39 31 36 29 27 30 30 26 33 38 50 39 36 33 36 38 36 30 23 26 30 28 29 34 33 29 25 24 22 29 46 67 68 79 81 86 92 94 95 100 101 100 100 100 96 95 97 101 107 117 129 140 144 146 150 155 158 159 158 157 156 153 152 150 151 149 147 146 141 132 117 101 75 55 46 36 33 20 17 36 40 29 13 9 15 22 35 41 39 41 43 42 44 41 38 36 25 21 25 35 34 37 43 35 33 32 32 36 34 26 21 27 31 29 30 37 23 24 26 26 21 32 43 64 69 75 84 86 97 100 97 96 100 102 102 106 108 102 100 97 98 102 110 121 134 140 143 146 147 148 148 146 147 144 145 144 143 142 140 135 127 115 99 81 65 56 45 38 38 27 20 42 49 37 15 11 16 22 38 40 41 47 49 43 47 44 41 39 21 16 30 37 31 39 38 40 32 25 34 36 32 27 24 28 32 31 36 35 14 24 25 27 21 36 47 63 70 74 87 91 96 97 101 96 98 99 104 105 107 109 106 104 101 97 99 100 107 121 131 136 139 139 143 141 139 137 138 138 136 132 127 118 108 99 85 75 67 59 45 39 40 32 26 44 50 41 16 11 18 24 36 43 49 53 51 46 47 47 44 37 22 19 29 35 31 41 35 44 33 27 33 35 30 25 24 28 33 39 38 26 9 25 27 25 22 35 50 63 73 76 83 93 98 96 101 102 96 97 99 104 107 109 109 107 109 105 102 99 98 101 105 113 120 125 131 133 132 131 130 127 121 116 109 100 97 91 82 76 67 59 46 41 44 37 29 42 52 49 20 11 20 22 30 41 50 56 58 47 47 46 50 36 20 20 30 38 29 40 38 38 38 26 32 35 30 24 24 33 40 37 33 22 9 24 26 24 27 37 47 61 70 78 82 87 95 97 98 102 99 98 100 99 104 107 108 107 109 111 110 107 105 103 98 97 98 99 101 105 106 107 106 104 102 103 101 98 98 91 82 74 65 58 49 45 48 40 29 45 51 56 27 10 13 19 24 34 59 56 62 52 50 48 49 32 21 20 32 34 30 41
