P2
# Generated by OpenCV 4.2.0
92 112
255
41 33 32 39 38 47 36 30 25 32 36 32 29 34 35 35 41 37 38 50 35 35 51 48 47 65 57 47 53 52 52 57 55 50 51 56 57 75 79 79 92 110 123 123 136 147 165 159 163 158 144 135 115 93 95 95 86 78 75 73 70 67 68 64 50 44 53 39 31 29 28 32 31 33 32 33 29 30 29 27 40 54 56 61 53 54 55 56 54 65 129 241 36 32 34 37 45 41 33 21 31 33 36 26 29 34 36 35 40 35 40 46 30 38 50 48 62 56 47 52 56 58 53 62 56 57 65 75 81 87 99 106 117 129 140 147 158 167 173 170 167 168 159 141 134 118 108 97 88 85 78 75 74 76 76 76 68 62 52 45 44 44 47 37 30 29 29 30 28 30 32 36 31 39 52 56 52 48 56 58 52 54 84 198 31 31 34 37 43 37 23 21 32 31 33 28 30 39 35 38 34 33 50 40 29 46 45 53 62 49 45 60 55 56 59 65 64 74 85 92 103 111 124 138 149 155 158 166 173 178 178 180 178 176 172 161 149 133 116 109 105 95 87 80 79 78 77 70 64 60 56 55 48 44 42 35 31 31 26 27 28 29 29 27 30 36 43 49 53 49 51 56 58 46 60 125 34 33 34 38 38 35 17 32 30 31 26 26 33 37 32 36 30 34 48 34 39 50 42 58 51 43 53 56 57 55 63 62 77 93 105 114 126 137 148 156 163 168 173 179 183 187 185 180 184 185 184 176 165 155 131 115 110 106 100 90 81 80 78 72 69 65 53 46 45 43 43 38 35 36 34 29 22 20 24 28 26 33 46 52 62 54 53 59 53 49 50 81 36 35 37 39 40 27 23 36 28 30 25 25 34 33 34 32 33 39 41 35 43 40 45 58 44 42 57 57 60 67 67 74 91 110 124 136 146 154 162 168 173 179 183 188 191 193 194 192 192 191 194 191 178 170 161 137 126 119 107 102 100 89 79 78 77 77 79 72 65 51 42 37 33 28 28 30 25 23 21 24 27 27 30 36 50 63 56 61 54 51 52 61 30 37 35 38 39 18 31 31 31 27 32 32 31 31 30 32 41 39 39 33 41 35 52 53 43 52 57 57 63 72 75 86 102 119 132 143 152 157 165 173 175 180 187 190 194 195 194 196 195 195 198 196 186 177 175 166 153 140 129 121 117 113 109 97 87 77 71 68 68 64 53 45 37 32 32 27 24 23 18 20 25 29 27 30 34 53 59 59 57 50 53 50 33 34 35 40 31 20 40 29 29 24 32 30 30 31 25 35 34 42 33 38 34 40 55 46 44 59 59 57 65 73 83 98 117 127 141 152 162 170 176 182 184 185 188 188 189 188 191 196 197 193 195 196 190 184 180 178 176 169 157 148 137 126 119 123 121 110 96 89 81 73 62 58 50 45 35 33 34 31 26 15 17 22 33 30 32 43 56 57 60 57 48 55 34 30 39 43 25 30 34 31 25 26 32 30 33 27 25 35 37 35 32 40 32 42 47 43 52 56 59 66 71 81 95 113 127 141 151 164 170 180 186 190 195 196 193 194 191 188 191 191 190 192 194 190 188 186 184 188 190 187 177 164 154 147 137 124 125 128 125 123 121 108 97 86 75 62 47 36 33 36 38 30 19 16 25 31 31 38 53 56 61 67 49 57 29 31 40 37 24 34 30 31 27 27 32 30 33 24 29 35 40 31 38 36 37 45 43 46 51 54 63 70 74 91 106 124 136 148 156 168 177 184 189 191 193 196 192 198 199 198 199 197 194 190 188 187 189 189 189 192 194 190 185 177 168 162 160 152 142 135 136 133 127 121 115 99 88 76 63 47 34 27 30 33 29 23 23 26 30 35 43 56 56 64 50 47 26 34 40 32 27 34 30 32 23 30 33 30 26 23 32 36 38 30 41 37 40 45 43 48 52 58 68 72 83 99 115 130 142 153 164 173 181 186 191 197 197 197 197 197 199 198 199 201 202 200 193 190 189 189 191 191 191 188 185 184 180 178 174 171 166 158 153 148 143 140 128 118 107 93 77 59 43 28 26 28 29 25 19 21 27 32 39 49 56 59 51 46 31 36 38 28 31 34 29 31 22 30 28 28 25 26 27 34 33 33 41 34 40 44 42 49 52 62 75 81 96 113 125 138 151 159 170 177 186 193 196 199 198 199 198 196 195 194 195 196 198 198 196 195 194 193 194 194 193 191 188 187 189 187 182 182 181 174 172 164 160 156 149 144 133 115 95 74 53 34 25 25 29 32 19 20 24 29 35 46 54 59 54 45 33 36 35 20 33 33 31 26 24 29 29 27 25 28 29 37 29 37 36 32 43 39 42 49 54 65 80 90 100 115 129 141 153 161 169 176 185 190 195 201 202 204 204 201 198 197 194 195 194 193 189 191 191 191 192 192 190 190 188 185 187 187 185 187 186 184 182 179 174 167 163 156 151 138 115 91 67 45 26 19 24 34 27 23 28 27 32 42 48 58 57 48 33 37 30 19 38 28 28 23 26 29 31 27 25 27 31 36 28 40 30 37 42 38 47 49 58 73 87 96 105 122 139 150 160 168 176 179 185 188 192 192 193 195 197 196 197 196 200 199 197 195 188 189 189 191 192 190 189 190 189 189 189 191 191 191 191 189 187 183 180 176 171 165 160 150 130 111 87 58 33 20 20 29 32 17 19 23 31 42 48 54 56 49 33 37 27 19 34 29 27 27 28 30 28 24 26 29 32 29 32 36 28 45 42 40 46 50 64 80 92 103 110 131 145 159 168 173 180 185 191 193 195 198 200 198 198 192 189 188 190 193 194 194 191 191 193 193 192 192 192 191 189 191 191 193 192 191 192 190 187 185 182 178 174 167 163 157 142 126 102 73 45 25 18 23 33 24 15 21 31 43 47 50 54 52 37 32 21 24 32 29 28 28 28 30 25 26 28 31 35 28 39 32 33 46 36 43 47 53 70 83 95 109 115 133 148 159 167 175 177 180 185 190 193 197 201 203 202 200 196 192 187 186 183 185 185 186 186 188 188 188 188 189 189 189 189 188 188 188 185 183 182 179 178 175 173 166 160 156 146 134 114 87 56 33 19 19 31 32 17 17 27 40 47 48 51 56 37 27 20 29 32 30 28 27 28 29 24 26 31 32 35 31 39 27 41 42 38 44 49 58 75 89 101 114 120 135 151 162 170 178 182 187 189 190 192 194 197 198 197 198 197 197 195 191 189 184 177 176 180 182 181 182 182 183 183 182 183 184 186 186 184 184 188 184 180 179 177 169 163 159 146 134 120 100 69 42 22 18 28 36 25 14 23 35 46 47 45 55 35 26 22 33 32 29 29 28 29 26 24 26 31 30 31 35 36 30 45 37 43 45 49 62 83 93 107 119 125 144 158 164 173 179 184 189 190 191 193 194 195 197 199 197 194 194 196 194 193 191 184 182 183 183 180 182 183 182 185 188 189 192 193 193 192 190 189 188 186 182 179 174 170 165 157 142 123 106 83 52 26 17 23 33 32 19 20 33 44 47 47 53 33 26 24 33 32 30 28 30 30 27 25 30 30 29 31 38 30 37 42 36 44 46 52 72 87 97 111 125 131 150 159 164 169 176 176 180 184 184 184 187 188 186 185 184 185 187 189 190 189 191 192 192 192 191 193 192 195 194 194 195 194 193 192 193 191 186 179 181 182 176 173 171 169 166 158 144 128 111 95 65 33 19 16 32 35 25 18 28 37 48 48 52 27 24 26 33 32 30 30 32 29 28 27 32 29 30 32 38 31 42 39 38 42 48 60 80 91 105 117 127 130 147 158 164 170 177 179 181 183 184 184 191 193 190 190 186 184 181 182 181 184 188 189 188 189 192 193 194 193 193 192 191 190 190 191 190 188 183 180 177 175 172 170 170 168 165 158 143 135 120 104 75 42 20 11 26 36 29 18 26 34 46 48 51 29 24 30 34 31 33 28 31 30 24 30 31 31 33 35 34 38 40 36 40 46 49 66 86 94 106 118 129 135 152 164 170 175 180 185 187 186 189 190 191 191 193 194 195 193 185 181 180 183 185 183 183 185 188 190 189 190 187 187 190 189 188 191 190 187 187 183 179 175 173 172 169 168 165 157 146 140 130 110 85 51 21 9 22 33 31 20 25 32 41 48 48 34 23 36 30 28 28 27 30 27 25 30 31 31 33 38 35 40 38 38 42 46 52 72 85 94 111 123 135 143 153 164 169 175 178 183 186 186 187 190 191 188 188 192 194 193 192 189 186 181 180 180 180 180 184 186 188 187 184 186 189 188 185 186 185 182 181 177 179 176 173 173 171 172 166 156 147 138 133 116 90 57 25 10 20 31 30 20 25 32 40 48 45 32 24 36 28 29 26 28 31 25 26 26 30 33 33 38 33 36 38 39 45 45 61 78 88 98 113 127 136 144 154 163 169 176 177 180 183 186 186 185 184 181 181 186 186 187 189 192 190 189 185 179 177 178 181 181 180 181 184 184 183 179 181 179 179 175 171 172 173 173 172 170 168 167 160 152 143 136 133 119 97 63 29 10 17 31 31 21 25 33 39 48 49 30 28 37 31 30 26 29 29 24 28 27 31 30 36 37 33 36 37 41 46 49 69 81 90 101 116 129 137 144 155 163 169 176 178 182 185 187 188 187 187 186 183 183 185 184 185 184 185 189 187 188 186 184 181 181 183 182 183 183 180 181 183 183 186 184 181 180 182 181 180 177 175 169 161 154 146 137 131 119 104 70 34 10 17 28 30 22 26 31 36 46 48 24 29 35 30 27 25 29 28 24 30 29 33 29 40 34 35 38 38 45 45 55 76 82 91 104 118 131 138 146 156 163 170 177 180 180 184 188 188 188 191 191 189 188 186 183 182 181 184 183 182 184 186 185 185 187 189 189 187 185 186 188 186 184 185 181 178 177 180 179 178 178 172 165 161 157 149 144 134 119 102 75 39 12 18 25 28 22 25 33 35 43 46 21 32 33 31 25 25 29 26 25 29 30 31 35 41 31 37 37 42 49 43 65 81 85 96 110 122 133 138 148 154 163 170 174 180 182 184 188 190 192 191 191 188 189 189 188 187 186 184 180 181 181 182 183 184 186 186 187 184 182 185 183 181 181 183 184 181 179 178 178 177 175 170 165 158 153 148 143 134 119 107 79 42 21 15 22 29 23 28 33 36 40 45 22 35 33 30 22 27 31 25 25 28 33 33 39 35 32 37 35 42 44 47 71 82 89 103 113 126 135 143 150 159 165 169 176 180 184 186 190 191 193 193 193 192 190 184 185 189 187 187 182 183 180 182 183 181 184 185 183 182 179 180 181 184 181 182 183 179 178 179 182 178 175 171 167 160 152 149 142 135 122 111 83 45 26 10 22 30 25 27 31 36 39 42 26 35 34 27 22 27 29 25 27 30 37 35 39 31 39 35 38 43 47 54 75 83 94 108 119 130 137 148 155 163 169 173 176 179 184 186 188 190 193 192 190 190 184 185 187 187 187 186 184 183 183 185 185 183 184 184 185 183 181 182 182 183 186 184 183 182 183 185 181 177 178 173 168 161 153 148 144 136 127 113 87 49 21 7 20 29 25 28 31 34 38 41 30 36 35 26 24 29 29 29 27 38 36 34 38 33 37 36 44 43 46 55 80 84 97 113 124 134 144 153 161 167 171 176 178 180 182 185 188 191 193 195 195 190 186 183 187 185 187 185 181 182 183 184 183 183 183 183 183 182 184 187 187 188 190 188 187 187 187 186 182 181 181 175 168 164 159 153 145 136 129 116 88 50 19 8 21 29 27 31 32 33 38 39 32 36 33 27 24 32 28 25 34 39 30 36 37 35 34 41 42 45 47 58 84 87 103 117 129 138 151 158 166 170 172 176 180 178 182 187 187 187 193 198 200 194 189 186 188 185 183 183 185 182 184 183 183 185 185 184 185 185 184 189 191 189 190 186 186 187 188 187 184 181 176 172 166 162 160 157 148 137 131 120 92 52 19 7 19 31 31 33 30 33 38 37 34 36 31 28 30 32 27 34 37 35 29 40 37 34 37 43 42 49 48 64 83 89 110 125 136 140 150 163 169 173 175 176 180 179 183 185 186 185 188 192 194 190 190 188 188 186 182 182 182 184 183 184 183 183 184 183 185 185 184 189 189 188 185 186 188 184 185 185 183 183 176 167 162 162 161 157 150 144 135 124 98 54 18 6 18 29 33 33 30 33 36 35 37 35 27 30 34 34 34 30 36 34 32 39 36 36 41 42 44 47 45 68 83 98 118 125 140 148 157 161 167 172 173 175 177 176 180 177 183 184 185 188 183 185 185 181 178 180 181 180 178 180 181 183 184 181 181 182 181 181 184 186 185 185 182 183 180 177 179 177 177 180 177 168 163 162 162 157 154 150 141 131 103 55 17 5 16 31 35 32 29 30 33 36 39 35 27 35 38 38 27 29 39 35 35 39 35 36 43 43 45 44 47 72 85 103 119 132 142 153 160 161 165 170 170 170 175 172 170 172 175 176 172 178 176 173 167 165 168 168 175 177 178 176 178 181 180 180 181 180 180 184 185 185 184 183 176 171 167 166 168 166 164 167 167 169 165 159 160 158 154 150 144 137 107 55 16 6 15 35 35 33 30 29 34 37 37 32 35 39 36 28 27 34 39 34 36 41 34 40 44 47 46 41 49 73 85 101 115 127 129 136 145 142 145 146 139 143 140 137 144 144 139 130 130 132 128 130 134 133 151 157 157 170 177 178 179 178 178 180 178 180 182 182 183 183 179 170 163 150 145 150 159 161 155 155 158 157 157 154 152 153 147 146 143 132 112 60 20 7 14 37 34 31 32 29 35 37 34 39 36 34 33 27 28 35 35 32 38 36 36 42 48 49 42 38 48 74 80 85 96 101 95 91 95 96 93 92 83 80 77 77 84 84 83 79 73 68 72 84 100 102 116 138 139 154 168 176 177 176 176 177 175 177 181 182 182 178 167 152 134 119 121 121 123 116 113 113 128 132 129 129 132 137 134 133 131 126 120 69 19 6 16 36 31 33 33 30 35 37 47 42 28 31 31 30 30 36 32 34 38 34 39 52 51 48 37 38 52 63 61 70 72 67 62 62 65 62 59 59 59 59 54 52 60 60 49 55 54 53 56 66 68 78 91 113 129 138 160 171 174 172 174 175 174 174 177 176 177 171 149 123 100 90 89 82 75 69 63 61 64 69 69 75 77 82 83 92 87 88 103 78 22 6 19 36 33 32 29 28 36 38 42 30 32 29 32 30 33 36 28 40 37 39 45 53 46 47 37 40 44 41 42 49 51 49 49 46 50 52 53 54 55 57 58 51 51 57 52 55 57 62 59 73 70 69 77 102 123 132 155 164 167 169 173 168 166 171 170 170 168 156 120 96 86 75 70 61 48 51 50 46 44 48 49 48 50 48 51 54 54 59 74 73 32 7 16 37 35 31 28 29 34 37 30 28 36 30 33 29 37 31 29 40 38 42 47 45 46 46 37 43 34 36 39 40 42 44 54 65 68 69 68 67 62 62 68 69 58 57 68 69 67 69 68 77 76 77 81 105 115 127 157 160 163 165 164 162 161 169 166 163 157 137 110 87 80 69 63 61 58 54 51 47 48 48 51 49 49 39 37 42 47 50 51 58 37 8 15 37 35 30 32 32 32 35 27 27 36 33 32 31 38 32 35 41 39 43 43 47 45 45 41 45 38 41 43 45 53 65 70 78 92 93 86 88 92 94 98 103 103 92 94 97 92 87 86 81 82 87 94 110 115 132 156 163 164 166 163 162 163 162 160 156 146 127 101 88 83 76 76 74 70 65 65 65 57 55 53 52 46 48 52 57 54 45 43 43 35 15 20 35 36 30 32 32 33 34 25 30 31 34 33 33 33 28 38 40 41 41 45 48 45 43 43 46 40 47 53 69 95 112 115 118 120 122 122 125 129 128 126 131 124 120 118 115 116 115 115 117 116 118 112 121 133 141 154 162 164 166 164 162 160 156 152 150 138 119 103 108 109 108 100 98 101 99 94 92 91 89 84 88 87 80 75 71 72 61 48 47 34 20 24 33 33 33 31 30 31 32 27 31 29 33 35 35 30 29 43 44 39 42 48 45 44 40 42 52 56 69 86 105 127 144 150 153 152 150 154 152 147 142 139 136 133 126 125 121 117 117 122 128 134 135 134 137 143 144 151 159 163 162 160 158 154 153 148 144 132 114 118 125 121 114 112 113 109 111 114 118 119 119 119 123 126 125 121 117 108 88 66 51 33 19 26 35 35 32 32 29 32 32 29 29 29 33 34 36 27 41 44 44 39 47 46 48 44 36 48 61 73 93 111 120 133 146 149 148 144 138 142 144 150 140 130 125 124 127 128 126 127 125 121 123 127 131 134 138 141 142 148 158 163 153 151 153 155 151 144 137 127 120 118 116 109 108 112 112 116 113 118 125 132 133 133 133 134 136 140 143 136 118 94 64 36 18 27 36 35 32 32 27 33 31 27 30 31 31 36 33 28 40 37 41 42 47 44 51 39 38 61 75 89 101 113 126 127 130 134 131 111 95 114 124 123 101 72 66 77 88 91 110 126 130 125 122 119 122 127 132 137 140 151 157 159 159 162 158 156 148 138 130 118 112 104 102 105 103 113 106 96 87 86 102 110 115 122 121 121 125 128 139 139 129 112 78 44 21 31 36 32 32 29 28 34 32 28 29 28 33 37 29 31 40 37 40 42 44 50 48 36 47 75 84 92 102 114 111 112 100 105 86 73 51 47 45 38 35 30 22 17 20 30 58 101 121 126 125 123 120 122 126 131 136 143 157 161 168 169 161 155 144 133 121 105 93 98 103 102 70 63 45 30 24 24 30 38 50 61 74 82 90 105 109 120 125 111 85 57 30 33 36 32 34 26 27 35 33 27 28 27 36 38 27 36 42 40 44 45 47 54 40 35 66 86 83 89 95 102 95 85 78 70 45 24 15 17 27 27 44 50 45 46 29 29 32 42 77 110 122 125 120 118 117 119 128 140 156 163 167 166 163 156 142 130 107 86 93 99 88 57 28 20 28 35 35 34 21 18 11 15 22 31 51 66 84 98 99 95 80 55 33 33 36 32 33 27 27 32 34 24 28 26 38 35 27 40 40 40 43 53 51 51 37 49 83 88 81 85 91 91 88 75 45 23 19 23 27 37 36 52 64 51 37 71 99 78 43 33 48 87 116 121 119 117 109 110 117 139 157 169 170 170 168 158 142 115 84 84 92 83 50 33 30 31 38 48 49 43 38 38 46 25 20 19 19 27 54 71 74 86 71 48 33 32 34 31 32 26 29 32 33 26 28 27 40 29 26 42 37 39 47 50 54 45 40 64 89 97 90 89 100 102 72 41 22 16 27 51 36 44 33 24 24 48 41 61 128 116 89 56 49 65 96 114 114 113 111 110 114 135 157 173 179 178 172 158 135 96 76 87 81 55 39 56 43 39 39 24 15 34 45 40 84 89 50 20 16 17 25 46 59 77 67 48 37 35 36 31 31 26 28 30 29 29 27 31 37 26 30 41 36 45 51 42 52 42 47 80 89 91 96 98 98 83 57 35 20 18 29 48 29 39 54 42 45 79 71 85 149 139 118 102 54 62 92 108 115 115 115 115 115 132 160 176 182 182 175 163 129 78 79 83 60 38 54 90 54 45 63 46 40 71 67 44 86 88 50 21 17 18 22 30 58 86 78 59 37 36 36 32 32 22 27 30 30 28 28 36 38 25 38 40 39 51 45 42 47 38 64 95 98 92 89 89 90 84 63 40 34 34 40 49 51 58 80 92 88 90 80 119 160 132 99 91 63 53 81 120 130 134 127 133 130 136 162 180 186 186 181 168 119 76 86 77 42 32 51 78 63 38 64 77 76 75 56 58 72 55 41 38 37 35 35 46 68 78 63 49 40 39 37 32 32 20 27 32 33 27 30 38 37 30 41 38 47 51 38 49 38 45 85 95 97 101 101 98 95 91 77 63 68 75 81 79 88 90 98 112 116 91 108 126 111 115 96 85 90 77 53 105 142 153 136 151 147 146 166 185 190 190 189 172 121 86 96 65 39 53 75 92 98 109 107 107 108 100 103 111 100 92 90 84 73 62 66 74 82 74 69 69 52 40 37 31 32 21 25 35 32 29 31 39 35 32 37 41 49 45 35 46 36 68 100 102 103 110 118 120 118 116 108 102 103 110 106 108 129 126 127 137 144 131 134 136 128 135 134 121 126 124 106 125 154 157 143 160 161 157 170 186 193 196 189 174 136 108 108 100 95 120 135 126 130 144 153 163 152 143 137 143 132 126 118 104 96 91 100 104 108 104 99 83 58 42 38 34 33 24 25 30 34 31 32 39 36 33 39 42 49 39 37 38 47 85 103 107 109 120 130 137 141 144 141 135 136 134 128 123 124 128 125 130 137 136 132 132 133 128 128 124 127 140 150 155 163 159 160 175 171 167 170 191 197 198 192 180 149 131 121 131 142 138 132 121 120 122 127 132 133 136 135 131 125 122 114 113 118 128 124 124 131 133 119 96 66 44 40 39 35 23 25 25 33 33 34 42 35 34 43 46 46 36 39 33 63 95 101 106 117 128 134 143 150 153 150 148 147 147 147 144 136 128 125 124 125 124 123 121 120 113 119 131 138 141 147 159 166 170 178 185 178 175 178 194 201 199 199 185 160 145 142 134 136 137 139 128 123 120 113 110 116 118 117 117 122 120 124 130 133 127 127 135 138 135 125 102 73 46 39 41 35 23 25 22 30 35 33 38 33 31 40 49 41 38 35 48 82 98 101 109 122 134 143 151 159 164 165 166 165 157 151 149 149 145 141 136 129 129 128 126 127 133 140 146 147 149 162 173 179 178 187 185 180 181 190 199 200 204 202 192 173 152 156 149 149 152 150 147 138 132 124 121 122 119 124 128 132 141 146 145 142 146 153 154 153 146 132 107 76 48 41 44 34 23 27 20 30 31 39 36 35 30 42 46 41 33 38 61 91 96 100 113 126 132 142 152 159 165 170 167 168 161 153 146 143 142 141 141 141 142 144 144 148 154 155 159 162 172 181 189 185 185 187 182 182 185 195 201 204 205 203 195 176 159 161 167 162 163 163 158 151 142 133 131 129 130 130 132 132 131 127 126 133 147 152 154 154 149 137 111 78 50 43 44 34 20 25 20 30 34 39 34 36 32 44 44 41 35 46 70 90 93 103 120 130 136 145 153 158 165 170 174 175 171 167 162 155 153 149 146 148 148 150 154 160 163 166 180 186 189 190 189 190 188 186 180 183 189 194 199 204 206 203 195 178 169 161 171 170 169 176 177 172 169 163 155 148 139 139 139 141 146 152 162 171 177 176 170 165 154 139 111 77 52 45 44 36 21 22 24 28 39 43 35 33 31 44 45 40 35 51 77 89 96 110 122 133 140 147 156 164 172 179 185 188 194 192 191 184 178 174 169 171 169 168 174 181 185 191 194 195 197 194 188 193 193 185 183 187 193 194 199 205 205 203 197 181 173 161 168 173 172 178 182 186 187 187 187 187 184 184 185 184 184 186 185 184 184 180 177 171 158 144 115 78 49 44 45 36 25 20 23 25 40 41 35 34 32 45 42 39 35 61 80 86 97 112 122 132 141 150 159 166 172 180 183 184 193 193 194 195 195 194 193 194 192 192 195 195 194 196 197 199 199 195 190 188 188 185 185 186 189 193 197 205 205 203 198 186 174 165 164 172 177 180 182 188 190 194 194 195 197 197 196 195 194 193 190 189 186 183 175 170 157 145 117 79 48 44 46 35 28 20 25 25 42 41 30 37 40 51 43 37 42 68 76 84 100 115 124 135 146 154 160 169 177 183 190 195 198 198 200 202 200 201 201 199 197 197 196 197 199 201 202 203 201 196 194 190 187 187 188 183 187 192 197 203 206 203 200 190 177 167 163 170 176 182 187 187 191 194 196 196 198 199 197 196 195 195 193 190 186 184 177 170 160 144 118 81 50 43 48 37 27 19 28 24 43 42 30 34 47 52 41 37 52 67 75 87 104 115 126 136 145 155 162 168 176 183 189 195 200 201 202 201 199 202 202 203 201 200 200 201 204 206 205 203 201 198 195 194 191 188 190 188 190 192 194 201 208 206 201 193 181 168 164 169 179 182 185 188 193 194 196 196 199 199 198 196 193 192 193 188 185 183 177 168 159 143 122 85 54 42 48 39 30 20 26 25 55 43 31 34 47 48 39 38 56 68 77 88 103 117 129 137 146 156 163 168 175 184 191 197 200 201 203 203 203 203 203 205 204 203 203 205 207 206 206 205 203 201 199 197 192 190 188 189 189 190 196 202 209 207 200 193 183 169 163 169 178 182 184 186 191 193 191 194 195 195 194 192 189 188 187 184 184 181 174 166 160 148 126 89 58 44 47 38 32 26 25 27 53 42 35 36 48 50 42 41 58 68 76 86 102 120 132 141 149 160 166 172 178 185 191 195 199 201 204 205 206 203 203 203 205 204 206 205 208 203 202 203 204 204 202 198 190 192 187 188 190 192 199 205 210 208 200 195 184 171 162 162 170 177 182 184 186 188 188 190 191 190 190 188 187 187 183 183 180 178 173 167 161 150 129 92 62 51 45 40 34 33 25 27 54 44 38 37 46 47 41 45 59 67 75 87 103 121 135 144 152 162 171 174 179 185 189 192 196 199 201 203 202 201 201 200 199 200 203 203 203 197 196 197 196 196 194 193 185 188 186 189 193 196 199 204 209 210 204 194 188 176 163 156 154 159 168 179 181 183 184 185 185 185 186 185 183 185 183 177 173 177 173 167 160 149 128 98 66 53 45 41 36 39 27 27 48 50 40 36 44 45 43 49 58 64 73 88 104 119 137 147 152 161 170 174 179 183 188 191 194 196 197 197 198 195 195 191 192 195 196 194 188 189 186 184 179 172 173 179 179 184 185 187 195 198 199 206 209 211 207 197 191 183 166 154 145 136 143 161 172 178 180 179 180 180 181 182 181 181 181 177 173 173 173 165 159 149 131 103 67 53 48 44 40 42 32 27 48 53 45 40 43 44 44 50 57 61 71 86 102 119 134 145 153 159 165 172 178 180 184 190 191 191 191 189 188 192 192 191 189 189 188 187 181 173 165 155 146 147 156 167 174 179 180 186 198 199 200 204 209 209 206 200 193 188 172 154 148 138 127 139 153 167 172 175 177 176 177 178 180 178 177 178 174 172 168 161 159 150 132 104 70 53 49 45 39 39 40 30 55 55 49 42 42 42 45 50 56 60 70 85 103 118 129 137 148 157 162 170 175 177 180 185 187 186 187 187 185 189 189 189 184 182 183 174 165 154 141 130 130 150 170 180 181 177 177 187 198 204 206 206 209 210 209 203 198 193 182 167 173 166 133 125 133 148 161 169 172 171 173 174 175 174 173 173 170 168 164 159 154 146 130 106 73 52 46 46 44 38 42 37 59 52 56 41 40 41 43 50 56 60 69 83 98 112 127 139 146 156 161 167 173 176 178 177 179 180 182 183 184 184 181 180 180 174 166 155 145 132 122 121 139 173 187 193 197 191 182 183 195 203 209 214 215 213 210 203 195 192 186 176 186 183 160 130 125 128 141 151 161 166 170 171 172 172 172 170 164 159 159 158 149 141 127 100 70 44 42 48 50 42 42 41 62 49 57 48 41 43 43 51 55 59 65 77 94 112 126 137 144 154 157 163 167 171 176 175 177 178 179 180 179 179 175 174 168 160 149 138 126 122 125 129 154 179 184 190 194 195 187 181 190 197 211 213 208 210 208 199 192 191 186 170 179 183 172 141 135 123 123 136 146 155 161 161 164 165 166 166 159 157 155 152 147 135 122 99 69 36 34 48 50 44 39 43 56 54 58 55 41 45 43 44 55 59 63 76 93 109 120 132 141 148 153 158 161 165 168 171 172 174 175 175 174 173 167 161 153 144 133 122 123 139 148 133 144 173 179 183 186 187 184 181 185 192 205 211 211 206 205 199 194 190 183 169 170 176 167 152 148 137 122 121 133 142 151 150 155 157 158 154 152 151 147 143 136 126 113 90 62 24 29 47 49 49 43 42 60 53 62 60 44 46 46 44 55 58 64 75 88 103 115 127 135 142 146 151 156 157 163 167 168 167 168 168 167 164 154 145 138 130 121 129 147 163 173 165 131 153 169 176 182 183 179 176 183 189 195 205 210 204 201 195 191 184 177 159 155 160 151 155 158 150 135 119 118 130 139 146 148 147 147 144 140 144 139 133 127 122 107 85 58 8 29 42 47 55 51 45 64 54 61 60 46 45 46 45 53 59 66 72 80 95 111 122 124 133 139 146 149 154 156 158 156 157 158 159 155 150 141 133 124 120 130 150 165 177 187 195 150 120 150 159 166 167 166 164 176 181 185 195 196 193 191 190 186 179 168 141 135 134 139 162 167 161 151 137 113 114 128 135 137 140 141 140 135 132 131 126 118 112 100 78 45 11 20 47 41 53 53 48 63 52 59 60 52 47 48 46 53 60 67 71 79 90 101 113 119 124 130 136 139 144 145 147 149 149 149 143 141 138 128 120 119 135 152 165 176 183 192 199 191 128 106 131 145 147 144 144 157 169 178 187 189 188 186 185 176 163 145 119 116 118 141 170 168 165 157 145 129 110 111 125 128 133 133 131 129 125 123 115 111 102 90 64 24 21 10 41 41 51 52 51 68 52 59 59 56 46 50 44 53 62 67 72 77 85 92 102 110 115 121 127 131 132 135 137 139 140 141 137 134 126 116 120 137 152 163 171 179 183 186 190 197 178 121 86 93 108 119 125 130 142 156 172 180 181 179 174 159 135 114 101 98 113 145 163 162 161 154 143 135 121 100 107 122 126 126 125 122 119 113 108 101 90 84 45 12 20 9 30 42 45 53 52 67 56 60 59 56 46 50 41 51 64 69 74 76 82 90 94 98 104 110 114 120 122 127 129 132 134 132 131 124 114 122 136 147 157 168 174 178 181 181 185 187 186 171 134 98 81 85 97 110 118 128 145 156 158 159 148 124 105 94 90 104 127 145 154 154 156 151 144 132 117 110 98 108 121 123 120 118 116 109 101 93 85 73 21 8 19 10 26 42 46 48 56 67 52 60 58 54 49 54 45 48 61 72 79 82 83 89 93 93 99 104 106 110 117 122 124 128 128 125 122 114 126 132 137 150 160 168 177 183 186 186 187 186 181 176 162 143 124 112 103 101 108 117 124 135 139 136 116 102 99 98 103 119 133 145 155 160 157 151 142 127 116 105 103 98 112 118 118 115 109 104 94 86 81 52 8 6 20 18 20 41 48 52 53 72 55 55 59 55 48 56 49 44 57 72 82 88 86 90 91 94 97 102 107 111 116 120 122 121 122 120 112 127 130 127 144 155 163 171 177 184 189 193 195 192 185 179 171 159 145 135 128 125 114 115 118 119 121 117 110 109 108 110 116 126 140 151 162 161 153 147 138 127 114 102 105 104 108 116 118 111 102 95 85 81 76 33 3 3 17 16 26 39 47 56 47 65 56 59 60 61 49 55 56 42 54 70 80 89 90 97 96 95 99 103 106 112 117 118 118 122 122 112 125 130 128 138 148 157 168 173 179 184 187 192 195 197 194 190 183 169 156 142 135 130 124 120 116 112 112 114 115 115 111 111 125 137 150 155 160 162 154 147 137 123 109 103 103 104 116 116 116 107 98 86 82 83 67 18 3 10 18 26 40 39 37 53 53 62 47 60 67 63 48 53 62 47 51 66 83 91 95 104 99 99 108 114 111 112 114 114 120 127 116 122 131 120 126 140 152 161 169 171 179 184 187 191 193 192 197 199 197 187 177 154 130 115 100 93 90 93 88 90 93 94 103 116 139 151 156 164 164 154 154 150 132 116 104 100 92 107 125 120 118 105 94 86 83 81 52 8 4 15 19 31 33 36 27 50 57 57 44 54 76 67 52 50 66 50 46 62 78 92 98 106 106 102 113 119 122 118 116 118 128 128 120 131 121 114 125 133 144 156 165 171 177 186 191 193 195 193 196 196 196 194 188 183 164 142 111 86 72 69 68 71 84 107 125 136 146 151 151 151 147 143 139 133 122 106 96 88 83 122 133 127 117 105 98 90 83 75 34 1 8 15 17 30 31 33 31 38 59 74 49 55 69 69 55 49 67 59 44 58 75 87 102 113 113 107 113 124 130 130 124 126 135 133 130 132 104 108 106 112 127 138 146 150 154 158 164 164 160 163 159 157 154 156 151 150 149 143 132 121 107 100 103 99 108 117 116 115 115 116 113 107 103 98 88 79 70 62 77 84 101 137 138 134 120 108 104 91 81 68 18 0 11 16 23 25 32 27 33 31 56 65 62 52 58 65 61 49 61 70 51 51 72 86 99 115 117 110 114 123 135 138 133 135 145 143 140 133 103 88 52 52 68 85 95 89 86 87 99 109 116 123 127 130 130 127 128 125 119 110 108 103 99 100 96 88 88 93 95 94 98 96 91 81 76 65 51 43 35 31 76 97 127 147 143 135 118 114 105 91 81 53 6 3 12 14 24 29 30 32 36 29 45 61 57 64 60 61 63 58 57 67 52 52 66 83 97 112 121 111 115 121 134 144 142 143 153 153 147 141 126 81 26 29 32 57 103 96 71 90 74 73 78 80 89 95 99 99 105 99 95 97 93 93 92 88 83 79 82 82 81 84 84 75 70 76 52 24 33 43 34 53 100 119 147 151 145 133 120 117 101 88 77 32 1 6 11 20 24 31 28 35 40 30 40 64 54 55 61 69 59 62 57 68 46 52 63 79 96 107 115 118 115 120 132 146 148 147 154 159 151 150 150 126 65 39 27 29 101 114 91 132 97 91 117 103 87 88 87 85 85 82 81 79 77 82 83 78 76 80 79 73 75 77 70 81 84 101 24 15 31 35 50 93 127 141 153 150 145 132 124 115 97 88 64 15 1 8 17 24 27 34 32 31 35 36 34 62 43 47 52 68 62 57 59 69 60 45 62 73 90 107 110 122 121 119 130 143 148 147 154 159 155 154 158 157 137 87 45 21 62 102 103 141 122 107 148 146 109 91 128 128 102 99 119 120 106 88 87 94 113 112 85 80 108 84 89 126 116 78 3 27 37 49 85 122 140 153 149 151 145 132 124 107 92 86 42 4 4 10 23 21 33 32 29 27 31 37 37 68 43 44 50 60 59 61 57 63 69 49 57 70 87 105 112 121 125 121 125 140 143 145 153 162 156 154 158 162 163 153 106 65 51 48 68 138 135 131 156 162 137 109 155 158 121 118 155 165 155 116 103 140 157 151 100 98 148 111 125 139 113 36 13 38 48 77 116 134 147 150 149 155 143 130 117 99 92 75 20 2 6 12 24 24 35 27 28 32 31 33 36 75 37 40 55 57 53 53 59 60 72 50 47 64 77 97 104 116 126 123 124 139 142 141 152 165 158 157 160 166 167 165 159 121 94 63 44 110 112 121 166 173 163 151 176 178 145 149 180 182 178 145 134 172 175 167 127 140 161 137 145 141 76 21 44 54 64 102 131 141 148 146 153 156 140 124 109 98 89 52 2 3 7 19 23 28 32 28 32 30 33 33 39 76 38 42 57 52 56 52 50 56 70 62 42 56 73 90 102 107 121 127 127 136 147 140 142 158 159 157 164 168 170 169 163 149 125 109 96 87 50 68 164 169 164 164 189 187 166 172 194 193 191 166 162 187 181 172 151 164 164 146 143 122 36 52 68 71 82 119 135 144 145 144 158 154 131 116 106 97 79 22 0 5 8 21 27 33 27 33 31 33 36 35 37 69 53 37 55 52 57 51 53 49 59 74 46 45 68 82 101 109 113 121 127 128 145 144 138 154 163 160 169 171 172 172 164 153 141 119 126 111 90 70 124 148 74 103 189 183 155 176 193 188 183 166 171 184 177 169 161 177 160 96 117 96 56 72 78 75 98 130 140 142 140 149 163 146 119 110 103 93 55 5 2 7 8 26 30 32 29 36 30 35 40 36 38 71 55 40 48 54 61 54 54 51 57 71 69 48 54 80 93 103 118 123 121 126 135 145 142 150 164 163 169 170 172 172 168 157 152 133 126 118 113 114 102 108 81 76 106 108 72 152 178 177 171 153 164 170 163 152 105 104 92 57 79 86 88 82 81 83 114 136 139 138 142 161 159 132 112 106 99 81 22 2 5 9 14 29 35 33 32 31 31 37 38 38 40 69 52 46 45 53 56 51 52 48 51 60 76 74 51 60 83 97 112 121 125 123 129 140 145 144 164 162 165 168 170 172 172 163 152 147 133 116 112 112 116 140 149 141 115 91 86 114 140 134 130 115 119 133 127 116 95 87 94 95 92 93 93 82 80 96 124 137 137 136 147 169 143 117 110 103 92 48 0 1 2 8 19 35 36 33 29 31 34 41 34 38 39 50 56 48 42 52 59 49 49 47 49 55 66 62 57 52 70 92 106 113 122 123 130 138 144 146 156 167 163 165 168 174 174 169 154 149 150 126 113 103 107 117 146 170 172 173 158 144 143 134 130 127 125 131 133 129 121 119 122 113 101 95 87 75 83 115 130 138 136 134 158 160 124 112 106 97 71 13 1 4 3 7 19 35 35 32 31 31 40 39 30 35 34 43 54 50 43 48 54 56 55 49 52 56 60 57 55 59 62 79 92 108 117 118 120 132 141 147 155 168 162 164 166 173 175 171 163 152 148 149 129 111 110 109 111 122 139 149 158 153 156 152 147 129 121 132 131 132 122 118 117 118 100 88 76 74 102 121 135 137 137 138 163 138 112 107 100 86 36 3 3 3 7 7 26 34 31 32 30 34 42 34 30 36 31 48 53 47 49 47 49 49 48 49 52 54 54 57 59 46 57 72 82 98 110 116 120 128 137 142 153 164 163 159 164 166 173 175 167 158 149 149 147 135 124 111 112 111 116 122 122 126 126 124 127 122 112 114 121 120 114 110 102 99 83 75 73 99 116 123 137 138 133 145 150 117 106 101 90 49 6 3 4 7 11 14 34 30 25 27 24 37 34 31 33 33 29 53 51 45 47 50 52 49 45 46 51 49 52 53 55 39 42 68 74 86 100 111 117 125 132 138 147 159 165 156 161 162 167 176 172 165 153 143 143 145 138 126 110 100 102 106 109 117 116 116 112 113 114 116 113 110 105 95 85 77 73 80 100 113 112 129 140 138 129 144 123 105 101 94 61 11 3 4 3 5 10 15 34 27 24 24 31 39 28 29 35 29 27 46 51 48 43 46 52 48 47 48 49 48 50 53 52 42 26 59 64 77 92 102 113 119 126 133 140 151 163 159 155 164 165 171 175 169 161 146 143 144 148 143 131 121 108 98 98 100 101 107 102 105 104 105 101 100 94 88 87 92 101 114 115 104 119 139 144 133 127 128 107 99 97 69 23 4 8 7 5 11 14 14 33 26 25 24 40 31 27 39 33 27 29 47 44 51 50 48 50 49 48 44 45 44 47 53 50 48 10 43 61 69 80 92 104 114 118 125 133 143 154 158 153 157 163 167 174 173 166 158 150 141 141 137 140 137 133 122 112 108 106 104 104 106 103 105 103 102 105 112 117 121 125 117 110 113 130 145 142 125 121 108 96 94 75 17 7 6 2 5 8 13 10 23 32 24 27 34 33 29 35 38 29 27 32 47 42 48 50 47 53 52 49 47 45 47 48 52 48 50 24 15 43 59 72 84 94 104 113 119 129 138 147 154 153 152 160 165 171 175 172 163 157 150 145 139 138 135 135 136 133 130 125 120 117 117 121 120 118 119 121 124 125 121 115 110 112 125 143 149 134 119 111 98 92 80 28 1 9 7 9 10 8 12 10 28 27 20 29 36 33 29 32 30 29 29 32 53 45 47 46 43 53 52 54 50 47 48 47 53 51 49 39 16 27 35 54 77 86 96 107 115 121 130 139 148 152 151 154 161 165 173 177 169 160 157 151 148 144 139 136 135 132 132 131 129 126 124 122 122 121 121 122 121 117 116 116 116 121 139 154 143 124 112 98 94 77 70 27 10 25 9 13 13 12 16 10 31 23 28 36 36 24 27 33 30 25 25 28 49 41 42 46 41 48 55 57 53 49 46 50 57 54 48 41 22 21 29 32 61 78 88 99 106 113 123 132 141 150 150 151 155 162 170 176 177 169 165 161 156 153 148 146 142 138 135 135 132 128 124 123 122 125 125 125 123 123 122 123 124 138 154 151 132 115 101 93 76 60 80 38 10 23 11 13 13 13 16 19 34 28 32 32 26 23 34 28 30 20 22 28 44 42 38 44 40 43 56 53 56 49 43 48 53 51 48 44 19 20 25 24 39 62 79 90 99 104 112 122 132 143 149 151 154 160 167 174 179 179 176 171 169 166 161 158 153 151 150 144 141 137 131 131 131 134 136 138 139 139 139 136 144 157 159 142 123 105 93 75 52 59 80 36 10 18 19 14 16 16 19 28 31 35 27 31 25 30 29 30 28 21 27 26 41 41 39 43 41 42 50 49 48 51 45 46 53 53 47 42 24 22 23 26 32 45 63 81 89 97 105 111 122 135 143 147 150 156 164 170 177 181 184 184 182 180 179 176 173 169 168 164 162 158 155 155 156 159 161 161 157 154 153 158 165 161 151 132 111 95 70 25 36 61 65 36 13 24 23 21 24 19 20 30 39 29 28 30 28 30 27 32 24 24 26 25 42 42 37 44 44 39 45 49 44 46 47 44 54 51 49 43 29 29 18 23 31 42 50 61 79 88 96 103 111 121 134 141 148 153 160 167 174 181 184 187 189 189 189 190 190 187 184 182 181 179 178 178 178 178 177 174 169 166 165 168 167 155 142 122 101 69 37 20 18 52 83 53 16 28 25 25 20 16 18 43 40 28 32 27 29 28 29 31 26 27 26 27 45 42 31 42 43 37 43 44 42 41 48 48 52 45 45 43 30 28 27 30 33 38 50 55 61 76 89 96 100 110 120 131 141 148 154 163 171 178 184 189 194 193 193 193 193 194 193 190 189 187 187 185 182 181 180 178 176 176 171 168 159 150 129 109 68 39 42 33 17 26 69 60 22 24 22 18 16 12 27 49 28 28 30 26 31 30 32 31 25 27 28 28 44 41 35 40 42 40 41 41 39 39 46 47 49 42 43 42 34 22 25 34 41 35 46 58 63 63 74 87 95 99 107 119 128 139 147 154 165 173 179 188 191 190 192 193 193 193 192 191 188 186 185 186 185 182 181 180 177 174 169 163 155 140 118 80 26 41 47 41 24 16 24 30 22 20 21 15 17 18 42 39 30 25 29 27 32 34 31 28 24 29 27 27 39 41 34 35 39 39 39 37 37 36 41 44 46 40 39 39 39 21 22 30 40 27 31 53 66 69 69 74 85 93 98 106 114 128 137 146 155 164 168 171 182 186 189 189 189 187 187 188 186 185 186 186 185 184 183 178 172 168 162 155 146 124 92 37 29 43 47 49 36 20 18 22 18 21 19 14 22 28 36 38 29 28 31 29 32 35 31 29 26 29 23 28 42 42 32 34 38 39 33 35 37 32 34 41 44 38 41 38 37 25 23 28 39 33 23 38 59 70 72 76 76 84 92 96 101 115 124 134 145 155 162 165 173 179 180 184 185 186 184 184 184 181 180 181 180 180 177 172 165 159 154 150 132 105 53 23 32 45 52 55 47 25 20 21 18 23 18 20 25 31 37 38 28 30 35 33 34 31 34 30 26 33 25 26 43 42 36 35 38 38 33 34 35 30 33 35 41 37 43 43 38 25 29 26 37 37 28 30 36 64 72 76 79 80 85 90 98 106 114 123 132 141 152 159 166 173 175 175 176 179 177 176 176 172 171 172 172 169 165 164 157 150 145 133 113 71 36 24 32 43 51 56 52 35 20 16 19 22 25 21 30 29 31 40 33 32 34 35 34 29 30 32 26 32 28 27 42 40 37 30 36 37 36 34 32 29 31 34 41 38 38 35 43 32 29 31 33 45 29 41 34 47 64 75 83 82 84 87 89 93 103 115 122 127 139 149 154 160 164 168 170 168 165 163 163 163 162 164 165 162 157 151 145 137 131 116 84 53 41 25 32 43 53 63 62 47 19 17 20 18 21 27 26 18 33 42 40 36 36 37 37 31 33 36 31 32 31 29 36 41 39 27 31 38 35 35 31 27 30 34 37 37 39 33 34 25 22 29 31 49 37 44 45 50 52 66 80 84 85 91 91 91 94 101 113 121 126 135 141 145 150 154 153 153 154 154 152 153 153 153 151 146 143 138 136 127 119 92 64 55 43 29 31 43 61 70 66 57 27 19 20 13 18 32 20 17 37 44 32 39 37 39 40 30 33 38 36 39 33 33 28 38 39 32 29 36 35 31 31 26 31 33 32 37 42 43 31 25 21 28 31 43 38 45 52 58 61 61 73 84 85 90 91 93 96 93 96 110 123 126 130 135 138 141 143 143 142 142 142 140 141 139 137 135 131 127 125 116 95 73 65 57 46 33 27 46 72 68 62 66 46 20 21 12 18 30 19 21 37 51 31 39 36 39 42 34 32 41 36 34 37 39 32 33 38 35 27 34 36 33 29 23 29 34 32 33 45 46 32 29 22 26 30 43 37 45 54 59 72 67 68 78 88 88 92 92 93 97 93 94 105 116 126 134 136 135 136 137 134 133 134 134 134 131 128 127 126 121 108 88 76 74 67 57 46 34 24 44 75 66 65 71 57 30 21 11 21 29 19 22 33 54 46 41 41 43 39 35 38 36 39 29 32 39 50 34 33 32 28 31 37 33 26 24 30 34 33 38 45 47 38 39 24 28 30 48 39 44 57 59 72 75 74 70 87 90 92 94 96 97 97 94 96 98 104 117 122 127 131 131 129 128 129 129 128 127 122 116 108 97 86 80 77 76 68 59 46 36 24 36 74 65 67 72 67 49 21 8 21 24 20 20 30 44 52 50 45 43 39 40 41 44 40 32 36 35 46 35 30 31 27 32 34 31 26 25 31 34 36 42 41 49 42 44 29 27 29 40 36 40 58 61 73 76 81 70 80 88 92 93 94 96 97 96 98 99 99 102 101 104 108 110 113 112 110 109 106 101 95 90 88 88 89 85 82 79 71 61 49 38 29 25 67 65 68 77 73 63 32 13 20 20 19 23 30 50 54 48 52 49 47 47 44 49 43 39 31 31
