P2
# Generated by OpenCV 4.2.0
92 112
255
62 51 51 47 41 44 46 46 52 45 41 39 34 40 43 42 42 39 35 42 34 32 41 46 39 41 50 40 43 49 53 53 47 47 49 51 57 63 65 73 81 86 106 120 129 153 175 181 182 177 163 159 143 122 107 99 98 91 84 83 79 78 73 75 76 62 63 41 29 30 36 45 44 31 30 33 30 46 49 45 59 62 71 80 83 100 192 231 247 223 213 216 50 50 52 40 43 47 46 52 46 40 38 38 40 39 38 42 41 38 40 39 31 38 47 44 36 47 44 39 49 49 51 48 49 49 53 60 65 73 86 88 95 109 129 145 152 164 179 190 186 192 187 168 152 135 123 108 101 94 86 83 84 81 76 74 67 61 56 52 51 52 49 44 34 32 33 27 28 27 33 48 54 71 69 73 79 85 128 198 211 230 240 233 50 52 48 38 49 47 53 49 39 32 39 40 44 39 38 40 39 40 43 35 33 45 46 38 43 47 37 43 50 47 45 54 57 60 66 73 83 90 106 121 124 136 153 172 178 188 193 199 195 195 197 188 180 165 144 132 121 110 98 88 86 89 82 75 66 60 50 43 37 38 40 34 30 24 17 21 27 28 28 32 45 56 68 74 84 81 85 157 208 236 248 255
48 52 44 43 48 47 55 44 31 36 39 42 40 39 42 39 41 43 39 33 40 49 46 46 48 43 39 48 46 47 50 60 71 83 92 103 118 123 129 142 159 166 177 186 194 200 204 202 205 207 206 202 193 186 168 145 134 126 118 111 101 99 93 81 77 78 75 69 54 43 36 35 36 37 30 19 15 22 22 24 31 33 49 63 74 79 83 91 183 242 241 245 51 51 44 46 44 50 48 38 30 40 40 38 38 41 40 40 44 44 35 32 46 42 43 52 46 39 47 51 51 52 62 71 83 100 114 128 136 144 155 167 181 187 196 199 205 207 210 210 207 211 214 214 210 200 195 179 164 153 135 123 118 117 103 98 88 80 81 77 75 66 52 41 30 26 32 31 21 10 11 20 25 32 35 54 60 79 85 81 116 232 245 247 52 48 49 43 46 51 46 31 36 43 42 37 41 39 40 43 45 40 34 42 43 37 47 45 41 49 51 46 53 59 79 87 98 118 137 153 160 167 177 184 193 197 201 205 209 211 214 215 215 216 218 221 219 207 203 203 196 186 177 167 156 147 142 146 132 121 116 101 91 73 65 60 49 40 31 24 29 30 20 8 16 25 34 38 53 68 85 84 80 161 242 238 48 47 46 41 52 51 37 29 39 40 38 39 42 40 47 49 43 33 41 50 42 46 44 41 44 54 51 51 60 79 91 102 121 134 150 165 175 183 189 194 198 204 206 210 213 214 217 217 219 219 219 223 222 216 212 209 208 206 201 193 186 179 170 163 169 172 161 156 149 131 119 107 89 67 52 35 21 20 25 22 16 23 32 35 49 59 72 85 77 90 189 214 46 48 43 41 50 44 28 34 39 36 39 42 37 49 49 44 37 35 48 43 45 52 47 40 50 53 57 60 72 85 106 125 137 147 160 171 180 188 194 197 203 205 207 212 216 216 216 218 219 220 219 221 220 218 216 214 216 216 211 206 201 197 194 186 174 173 178 180 175 174 170 155 135 103 71 58 42 28 17 13 17 20 32 37 45 53 61 80 90 75 120 197 49 46 42 47 48 36 31 40 37 37 46 41 45 51 45 43 33 44 43 38 47 51 43 48 56 52 66 72 82 98 117 133 146 157 173 178 186 192 198 203 209 212 215 215 218 219 217 219 220 219 218 220 218 220 220 219 219 221 217 214 210 207 206 205 201 196 195 197 199 198 194 182 168 150 113 82 57 35 27 16 10 14 17 31 43 44 54 66 87 83 89 160 47 43 42 48 46 31 37 42 36 39 41 40 53 45 42 35 37 49 37 44 50 45 45 55 56 61 73 81 97 112 131 144 155 168 178 186 191 199 204 208 212 215 218 220 218 221 220 221 221 220 221 221 219 219 220 219 220 220 216 215 215 215 215 215 214 212 209 206 204 207 205 196 186 173 153 119 86 55 33 24 15 9 10 24 32 41 49 63 73 83 76 122 45 40 45 46 41 33 40 40 35 40 40 41 42 45 38 29 43 42 38 48 48 44 50 52 57 68 79 96 114 125 140 153 164 177 182 190 194 201 206 210 214 216 218 219 217 221 222 223 222 222 222 220 220 221 221 221 221 218 217 217 219 218 218 216 218 218 215 212 206 207 202 199 193 185 170 148 117 77 47 32 20 15 14 10 24 40 42 56 70 77 78 93 42 41 44 46 34 33 39 40 37 39 39 38 39 43 31 34 46 38 42 47 45 48 55 54 61 74 92 109 118 134 146 157 169 181 186 191 196 204 208 213 215 217 220 220 222 221 221 220 221 222 219 218 221 220 219 220 219 218 218 218 217 218 217 218 218 219 216 215 212 209 205 203 198 192 178 164 141 102 62 41 32 20 11 7 17 32 40 49 67 76 76 81 39 44 46 43 29 38 40 38 36 36 38 42 43 37 29 44 37 37 49 48 46 49 54 61 68 79 104 122 131 141 154 168 176 184 190 195 199 206 209 213 215 216 217 220 222 221 219 219 219 219 220 217 217 219 218 218 218 217 219 217 216 217 218 218 219 217 216 215 213 211 207 205 204 200 185 173 153 121 81 54 37 23 12 12 12 27 39 47 63 73 72 76 42 42 42 33 33 41 35 36 34 36 35 40 40 32 34 43 35 44 48 44 50 52 53 64 75 92 112 126 141 150 162 174 181 186 192 196 199 203 209 212 215 217 217 219 222 221 218 219 221 219 216 215 215 217 218 217 218 218 217 214 217 218 219 220 217 217 217 216 212 212 209 207 205 203 193 185 170 139 106 72 49 31 11 10 11 21 35 40 55 67 72 74 41 43 41 27 37 38 34 33 36 38 37 39 37 29 40 32 37 49 42 45 56 55 58 73 89 105 120 135 146 160 169 177 183 187 193 198 202 204 209 212 215 216 216 218 220 220 218 218 220 219 216 214 213 216 218 217 218 218 217 217 218 218 218 219 217 216 216 215 214 212 209 208 207 206 199 189 176 154 124 95 58 33 16 5 10 17 32 38 48 66 73 77 43 43 36 26 38 37 35 33 31 36 37 38 33 34 39 32 43 45 40 51 54 54 66 82 102 114 128 142 153 166 175 180 187 193 198 200 203 206 210 214 214 212 215 218 219 218 217 216 216 215 214 215 214 215 217 216 215 215 214 216 216 215 216 217 216 215 214 213 212 211 211 209 207 206 198 189 180 164 135 109 71 38 17 5 7 15 30 39 40 59 68 77 45 40 31 31 38 37 34 33 30 36 37 38 27 40 37 40 45 38 45 53 51 58 76 93 108 121 135 146 158 169 176 181 190 196 200 201 203 203 208 211 212 214 217 218 219 218 217 217 215 216 214 214 211 212 213 214 213 214 212 213 213 213 216 216 215 214 214 215 212 212 212 208 206 204 197 189 182 172 148 124 85 45 22 10 5 10 26 35 36 57 64 72 39 40 30 37 38 34 33 30 34 33 38 33 35 39 35 44 41 38 51 51 50 66 88 101 114 126 138 151 161 171 179 185 191 196 199 203 204 203 206 209 212 214 216 217 218 217 216 216 215 215 212 211 210 213 212 213 213 213 213 213 214 214 215 214 212 211 211 212 211 212 210 208 206 204 199 191 183 174 158 133 96 55 23 12 6 7 21 31 34 55 64 65 38 40 31 39 36 33 31 31 34 35 39 31 36 35 36 40 40 43 51 49 56 79 99 108 123 134 143 156 168 174 180 185 191 197 200 202 205 207 208 210 212 214 215 216 216 215 215 215 215 215 211 211 211 213 213 212 212 212 213 213 213 213 212 211 214 213 208 209 213 210 208 208 206 204 199 192 184 175 166 147 109 68 29 13 7 5 21 29 31 49 60 62 35 36 35 37 34 31 27 35 34 36 34 32 35 36 39 39 38 49 48 52 69 93 106 117 127 139 150 161 168 175 181 187 195 198 199 202 203 206 210 213 212 212 214 216 217 215 214 214 213 213 209 210 212 210 211 211 211 212 211 211 211 211 212 211 213 211 208 209 209 209 208 207 205 203 199 191 187 180 168 154 123 80 37 14 8 7 15 28 31 47 58 61 43 34 38 38 32 31 31 32 33 38 33 37 33 34 39 38 40 51 48 60 85 97 107 119 131 144 155 165 172 177 183 189 195 197 197 200 202 202 206 209 207 210 215 215 214 214 212 212 211 211 210 211 212 209 212 211 212 211 210 210 212 212 212 214 213 211 212 212 209 209 209 205 203 202 199 190 189 182 170 157 134 92 45 17 11 3 15 27 28 46 57 60 44 34 41 34 33 32 32 29 39 33 35 37 31 37 38 37 44 46 52 69 87 100 110 123 139 151 159 170 176 179 185 187 193 196 196 198 202 202 204 208 205 205 214 213 212 213 214 213 211 211 214 212 212 210 211 211 211 210 210 209 213 210 209 213 212 214 213 211 212 209 209 203 203 203 198 192 190 183 175 161 139 101 55 25 8 5 16 28 25 40 50 56 32 36 38 34 31 31 29 35 36 31 39 30 33 37 35 41 44 49 61 76 91 110 121 131 146 154 163 170 176 180 185 187 193 197 199 200 201 204 206 206 210 211 212 212 213 214 213 211 210 210 211 213 212 210 209 210 210 210 210 210 211 208 210 212 213 213 211 212 211 207 206 203 204 202 197 193 188 183 177 167 145 108 61 29 6 5 17 27 26 39 50 55 33 41 33 30 27 30 28 36 33 40 33 30 34 36 36 42 43 54 66 79 99 116 127 137 149 156 165 169 175 182 186 189 191 197 197 199 200 204 207 209 209 211 213 211 212 214 212 212 213 211 207 209 205 206 208 208 208 209 211 211 209 208 210 210 210 210 208 209 210 207 205 204 203 199 198 194 188 184 177 168 149 115 64 32 10 5 14 25 28 41 50 52 39 36 33 30 31 29 33 33 37 37 27 34 35 33 41 44 47 55 67 83 104 119 130 141 151 158 167 173 175 182 185 189 190 194 197 197 198 202 206 206 208 210 211 208 209 211 211 210 212 210 207 207 208 209 208 206 207 210 209 208 208 207 212 210 211 210 208 209 209 208 207 205 203 202 200 196 192 188 179 169 153 125 77 37 11 6 16 27 25 39 45 49 39 35 33 28 33 29 37 34 37 29 32 33 33 39 44 45 51 60 72 90 104 120 133 145 155 163 169 173 177 184 185 189 190 193 196 199 200 202 205 207 209 209 209 208 210 211 211 210 211 208 210 207 207 206 205 205 208 211 209 208 207 208 210 210 211 210 208 207 208 207 208 205 202 202 199 196 193 189 178 168 159 132 88 45 10 6 18 26 25 39 45 45 38 35 31 26 35 38 35 33 33 31 33 33 36 42 42 49 60 64 80 99 111 127 139 150 159 165 169 174 179 182 186 189 191 193 196 200 203 204 205 208 212 210 212 213 208 211 211 209 210 210 210 207 207 206 207 207 208 209 208 207 208 208 208 209 210 211 209 209 207 206 207 205 203 201 199 195 192 187 182 172 158 135 93 48 15 7 19 25 25 37 43 44 35 32 25 31 41 36 28 37 32 34 33 38 42 41 46 56 69 75 92 108 114 127 143 152 161 164 170 177 180 182 186 189 189 192 195 198 202 203 204 209 210 210 212 214 211 212 211 209 208 209 209 206 206 206 206 206 208 208 208 205 206 208 208 210 210 210 209 207 209 206 205 205 204 203 199 197 193 191 185 175 161 138 101 54 18 6 18 24 26 38 43 46 30 31 32 39 38 30 35 37 34 30 33 40 39 41 53 66 74 81 95 108 121 133 143 153 163 169 174 178 180 183 186 187 187 190 194 196 200 203 205 208 210 212 215 214 212 211 207 209 210 208 207 207 204 206 205 205 207 207 208 205 205 208 210 210 211 211 209 208 210 207 206 206 204 204 200 199 196 190 182 177 166 146 108 57 18 6 19 20 23 36 43 48 37 34 31 36 37 33 41 34 30 34 40 38 42 46 55 68 80 88 102 113 126 136 144 154 164 171 176 179 182 185 187 189 188 190 194 196 199 204 207 208 210 212 212 213 212 212 211 210 210 208 206 207 205 206 207 204 205 207 207 205 208 208 208 211 212 212 212 211 207 202 206 208 206 205 205 202 200 191 184 178 169 152 112 55 17 7 21 21 23 34 41 50 35 28 32 40 34 38 36 34 32 40 39 38 42 47 63 78 88 99 107 115 129 139 150 159 165 170 175 177 182 188 193 192 194 193 194 196 199 202 206 207 208 211 213 211 210 207 209 208 209 207 204 204 204 205 204 202 205 207 208 205 208 208 208 211 211 214 214 210 206 206 211 209 210 207 205 203 199 195 191 186 178 154 109 57 16 8 24 22 21 32 39 51 28 32 37 33 32 37 31 34 41 38 38 43 42 55 74 85 90 99 107 115 127 142 153 162 167 174 177 181 184 188 190 194 196 196 197 199 198 198 203 207 207 209 212 211 211 205 207 212 208 207 205 204 204 205 203 204 206 205 208 208 207 210 210 211 211 211 212 211 206 207 210 207 206 202 200 202 202 202 198 193 184 159 115 60 16 10 25 20 21 34 39 50 30 36 36 29 37 33 30 39 39 41 46 41 43 64 81 85 91 101 110 117 130 143 151 158 166 176 180 184 185 184 192 197 199 197 197 199 198 197 199 203 204 207 212 213 209 207 207 210 207 205 205 204 205 203 204 206 205 204 206 205 205 208 208 208 210 212 209 209 207 210 208 203 200 198 198 202 199 199 195 188 176 163 123 64 14 14 24 20 22 35 38 45 33 37 29 35 39 31 38 39 40 45 40 36 52 72 83 84 95 105 115 122 130 139 148 158 169 177 181 186 186 189 191 192 195 194 195 195 195 194 199 199 199 200 207 211 209 209 208 209 207 203 201 201 202 199 202 202 201 202 202 200 205 204 202 204 205 208 204 205 206 207 207 203 197 195 194 198 196 188 187 181 170 166 130 67 17 17 21 19 21 33 37 46 36 32 28 39 31 37 38 38 50 42 32 44 63 79 86 91 97 104 119 127 132 138 146 158 166 177 182 183 184 189 189 187 191 192 191 190 194 192 194 193 196 198 204 200 200 206 203 202 202 200 197 195 196 198 198 199 199 198 201 201 202 201 200 203 200 200 200 200 197 198 197 196 197 195 190 188 185 172 162 144 127 122 120 74 21 18 20 17 24 34 36 47 34 27 33 38 35 39 37 45 45 34 36 51 70 80 87 96 99 105 120 127 131 138 147 159 161 161 160 159 155 161 165 168 172 175 176 182 185 182 183 189 193 194 199 197 194 193 191 191 194 194 194 195 194 197 194 196 196 196 199 198 197 199 195 193 187 185 184 188 191 188 188 185 182 182 172 161 149 120 102 81 81 85 95 76 20 15 19 15 26 33 34 48 25 28 38 39 38 39 38 45 38 32 46 59 73 79 92 99 102 107 120 126 129 137 141 136 126 127 124 116 106 105 111 116 114 116 119 131 132 144 157 158 158 158 165 167 168 162 160 178 183 180 188 192 195 193 192 193 192 195 196 194 195 195 188 178 165 157 156 158 157 150 147 149 142 130 114 98 79 68 65 57 61 67 68 58 26 16 17 16 26 30 31 46 27 40 37 38 38 39 43 39 35 40 53 65 75 83 93 103 108 109 115 113 111 99 88 83 83 89 84 73 71 75 73 69 72 72 68 68 71 78 85 86 88 91 91 90 113 134 124 141 165 161 173 188 189 187 191 191 188 189 190 190 191 189 173 150 128 118 113 97 92 86 88 79 68 61 59 59 58 49 50 60 51 54 61 56 34 15 20 18 26 31 30 42 42 39 32 37 35 43 39 36 38 48 59 69 78 88 95 99 106 111 105 80 68 61 63 67 66 71 64 61 61 59 63 57 60 64 65 64 57 59 56 53 62 65 61 61 84 87 105 107 136 148 160 180 184 183 186 185 182 183 184 183 184 176 147 122 103 90 83 65 62 60 53 54 51 54 53 50 48 60 74 85 83 74 70 56 28 13 21 16 27 27 31 44 38 31 34 35 41 38 35 38 43 52 60 71 85 91 102 100 106 107 93 64 58 69 76 73 67 64 67 72 78 88 85 74 69 64 58 63 62 55 59 55 56 64 64 69 78 70 83 95 120 144 156 175 180 182 183 180 178 181 182 179 174 164 137 107 92 78 71 62 58 52 49 50 48 56 65 85 104 120 130 140 133 113 95 71 30 15 21 16 28 27 31 42 33 34 34 38 40 35 38 37 47 51 64 75 88 92 106 108 110 101 83 63 71 78 81 83 89 104 119 119 112 114 113 108 104 97 95 94 92 82 67 76 74 66 73 72 81 77 80 94 120 132 151 177 181 181 183 180 179 176 176 174 170 154 129 105 89 80 77 75 71 71 73 85 95 107 126 145 149 153 159 165 158 148 128 95 39 14 17 20 25 27 32 40 29 33 37 40 36 36 33 41 48 56 71 77 92 95 108 111 111 103 70 65 82 101 113 125 137 153 164 163 161 156 151 146 142 144 143 139 140 132 121 117 116 111 108 103 97 99 100 107 125 136 159 175 177 181 182 181 178 173 170 171 164 146 122 117 111 111 111 109 113 117 122 132 139 142 145 146 150 151 153 158 162 155 136 112 47 14 18 23 24 23 25 39 30 36 38 40 36 34 34 41 48 62 71 81 95 102 110 114 107 101 81 76 96 121 141 155 159 162 170 170 168 167 157 161 158 155 151 144 141 137 134 136 131 133 137 140 139 143 140 137 147 158 163 172 176 180 177 177 175 173 169 167 158 140 123 119 120 122 125 134 123 120 110 116 122 125 131 130 126 124 128 136 143 146 130 110 46 13 20 21 25 25 21 35 37 40 40 36 33 33 38 38 53 68 75 89 98 105 114 118 118 106 95 101 120 141 153 159 163 167 165 164 157 142 129 137 147 154 143 128 120 117 123 120 126 134 140 141 142 142 145 149 157 159 161 169 179 177 174 176 175 174 167 160 150 126 110 112 122 114 90 89 56 48 37 45 46 49 57 64 62 73 102 112 130 139 125 106 48 15 19 24 22 23 25 33 41 40 36 38 31 30 32 39 57 71 81 92 100 109 120 124 120 113 117 123 130 143 150 156 158 155 141 141 127 107 79 86 97 90 72 51 38 40 52 53 76 115 139 143 143 141 140 143 150 159 162 172 178 180 186 188 181 176 167 157 132 101 109 117 103 64 30 29 30 29 28 23 23 16 24 27 27 36 42 80 110 114 106 103 53 18 18 24 27 18 25 33 40 32 36 31 29 32 30 39 60 73 83 95 105 113 124 127 125 118 122 133 138 140 142 145 137 131 112 104 78 51 26 21 24 18 29 38 39 27 16 20 36 49 82 128 141 142 138 139 142 150 163 171 181 186 191 188 183 177 168 152 108 99 110 89 55 36 33 43 51 55 63 43 73 71 31 20 24 27 30 39 67 84 89 96 63 21 17 26 28 19 24 35 35 33 29 28 35 31 29 40 61 74 85 98 108 116 125 132 131 129 130 135 138 135 130 126 120 101 81 49 29 16 16 22 34 41 60 64 60 103 97 84 64 40 43 84 131 141 138 138 136 139 157 172 185 191 192 193 189 181 171 136 95 100 86 58 49 57 45 52 28 42 54 55 73 140 130 88 40 20 24 25 41 59 73 97 74 25 19 22 27 22 23 36 30 30 24 33 33 25 26 41 60 77 87 100 110 121 127 133 136 139 136 138 142 136 131 121 94 68 36 23 20 32 38 47 43 25 39 70 53 98 162 150 113 68 57 63 97 131 134 136 138 134 148 173 186 196 202 201 193 184 170 121 90 96 72 57 101 75 52 50 25 56 33 65 58 137 157 127 86 55 29 25 34 66 99 116 84 28 19 22 27 28 20 35 33 28 31 35 22 20 29 41 61 79 89 102 114 122 129 137 141 146 143 141 142 139 131 115 88 55 35 23 37 88 67 61 46 14 45 55 56 85 168 164 146 138 93 70 90 123 135 140 137 139 146 170 188 200 207 208 201 192 173 111 96 103 62 89 146 89 55 78 57 47 73 67 73 147 158 132 96 83 57 51 78 114 119 125 103 35 21 22 24 33 16 29 30 28 35 24 19 24 27 44 63 81 91 104 116 124 138 144 148 152 150 148 142 138 129 116 89 62 45 47 91 137 82 71 88 53 50 76 59 95 181 172 155 151 124 98 89 128 149 156 140 143 149 168 188 200 209 212 207 200 176 115 113 92 80 90 141 137 62 66 84 80 76 57 116 162 161 124 100 91 61 79 112 125 129 139 121 45 24 24 18 35 24 30 27 32 30 17 27 14 26 47 65 81 94 106 118 128 142 146 150 155 154 154 149 142 132 121 104 84 59 66 88 122 127 67 78 86 82 75 69 151 190 175 157 142 125 138 93 107 154 162 152 151 156 170 190 204 214 218 213 202 182 126 125 97 79 81 95 117 101 60 55 60 66 110 161 158 138 108 99 73 60 98 128 139 144 145 132 60 23 25 17 26 34 28 36 32 26 29 17 15 29 47 65 83 96 108 120 133 143 147 156 158 157 160 157 155 152 143 126 100 72 50 70 99 132 114 70 64 64 76 138 189 186 171 137 108 99 121 105 119 148 164 159 154 165 175 189 202 214 222 217 207 191 144 125 122 132 139 138 130 132 126 113 99 112 125 132 124 103 87 78 71 88 123 144 155 150 148 142 76 22 28 23 24 35 29 40 35 27 23 19 21 31 49 67 82 95 112 124 134 143 152 159 162 162 163 165 160 162 155 141 114 87 82 68 75 89 103 103 102 111 145 166 164 151 140 122 126 137 142 146 162 157 155 155 161 172 178 186 201 216 223 220 212 198 164 134 129 150 164 160 142 139 154 147 149 131 119 120 114 102 94 92 96 120 148 159 169 164 152 146 94 26 27 29 20 32 34 43 45 30 46 52 33 31 46 68 82 94 113 127 133 145 154 162 167 168 169 170 172 170 164 157 133 118 111 96 81 79 82 86 108 124 113 140 150 127 144 150 137 140 150 151 165 164 161 163 173 179 180 188 202 213 223 225 216 203 180 154 144 150 156 156 148 140 133 127 129 124 122 118 117 113 110 111 125 148 159 169 175 170 158 148 109 29 27 30 24 27 34 57 58 36 68 79 49 35 46 70 81 96 116 129 136 146 153 161 168 170 174 176 177 177 173 165 158 151 143 129 109 111 112 105 111 122 121 127 132 132 131 136 131 140 151 162 170 165 170 176 181 183 183 196 203 212 223 225 216 207 188 168 162 156 164 167 162 158 151 139 130 128 127 126 123 125 127 135 148 159 166 173 179 176 164 151 122 40 26 34 30 29 34 58 56 45 76 83 65 39 47 70 84 94 112 125 136 145 154 163 169 172 176 179 182 179 177 173 169 165 164 158 148 136 130 124 127 131 133 131 134 132 133 141 151 158 163 171 171 175 183 186 185 186 188 196 201 211 222 224 219 209 195 177 175 168 169 171 172 166 163 161 153 149 147 145 143 146 150 157 163 167 173 177 177 178 168 155 128 49 25 34 34 29 32 77 61 45 82 84 71 44 51 68 81 92 111 125 136 146 158 163 169 173 179 182 187 186 182 181 176 171 170 167 166 160 152 149 145 144 141 142 145 145 152 162 165 168 173 177 181 184 187 189 186 187 192 197 200 208 221 224 219 211 201 185 179 181 178 177 178 176 173 170 168 165 163 162 165 167 168 171 174 178 182 183 183 181 172 156 135 55 29 34 34 29 30 51 52 32 65 85 75 54 52 66 80 90 108 122 134 146 158 164 169 174 180 184 188 191 189 185 182 180 176 173 172 171 166 164 160 157 158 157 162 166 170 174 176 177 182 183 184 190 190 190 190 190 194 197 198 203 219 223 220 214 203 187 180 183 183 183 183 183 181 176 173 173 172 172 173 174 177 179 181 182 183 186 187 184 172 156 137 59 30 36 34 31 30 58 49 30 27 82 84 61 52 65 78 89 106 121 133 144 155 164 165 171 179 181 187 191 192 191 191 189 185 184 180 178 176 175 173 173 174 175 176 178 178 180 184 188 190 190 191 190 195 190 190 192 192 195 196 204 218 224 223 217 209 192 184 182 186 190 192 192 188 184 178 177 176 175 178 180 181 183 185 189 189 189 189 186 174 155 137 63 27 37 31 35 28 91 74 52 30 61 94 66 54 64 76 89 102 114 129 142 152 162 164 171 177 181 185 190 195 193 192 191 189 187 187 185 184 182 182 181 181 182 182 185 186 188 192 194 195 194 193 190 190 190 192 192 189 193 196 203 215 224 225 217 210 195 185 182 185 193 197 198 194 190 188 183 181 181 182 185 189 191 193 196 197 195 192 184 169 154 138 63 18 40 32 32 33 96 96 89 72 74 100 75 60 64 75 87 100 110 126 138 152 160 162 169 178 181 184 190 193 196 196 196 195 194 193 191 189 187 185 185 185 186 188 190 192 192 195 198 199 196 193 191 189 189 192 193 192 192 195 203 213 224 223 217 211 200 186 181 182 190 197 199 199 197 196 193 191 192 192 191 192 194 193 196 199 196 191 181 167 152 133 48 6 39 38 30 37 86 98 101 96 92 98 80 62 63 75 85 93 106 120 134 147 156 161 168 174 179 182 187 192 198 199 202 203 200 200 197 196 194 192 191 189 187 189 195 198 196 198 199 200 197 192 190 194 190 190 190 191 191 198 207 215 223 224 220 214 203 187 180 182 187 193 199 202 202 201 199 199 199 197 195 196 196 196 196 196 191 183 176 164 146 129 46 0 37 39 38 32 92 101 102 96 93 94 80 64 64 73 81 90 102 116 132 143 153 158 165 170 174 180 186 190 192 196 194 197 205 203 200 200 199 194 192 193 192 197 199 198 203 201 198 200 198 194 192 191 187 190 188 191 194 201 209 216 222 227 224 216 210 193 179 180 185 189 195 202 201 201 203 203 201 200 200 198 195 196 196 192 184 178 169 156 142 123 43 0 24 41 39 37 88 83 83 84 89 92 92 71 69 70 77 88 101 111 127 139 147 156 163 169 172 177 183 185 188 192 195 196 202 201 203 203 201 199 200 201 200 200 200 200 203 202 202 199 200 197 194 191 183 187 188 193 197 204 211 218 224 227 226 221 216 203 181 175 184 188 192 199 199 199 203 203 200 200 197 198 198 196 195 189 182 174 160 151 140 115 26 0 13 40 38 42 102 94 93 121 91 96 107 78 67 70 75 85 98 105 121 137 144 152 161 165 169 175 179 181 189 192 194 199 201 200 201 205 201 201 204 204 201 201 201 203 205 203 203 203 200 199 195 188 182 187 187 190 196 204 213 219 225 228 227 225 220 213 189 171 179 186 190 194 196 198 201 199 198 197 194 194 194 194 190 184 178 166 156 147 138 99 16 1 6 34 38 37 88 94 124 112 81 104 121 86 67 69 71 83 95 103 116 131 140 149 156 161 164 171 175 180 184 187 191 196 197 201 203 204 202 201 205 207 207 204 204 201 205 205 200 203 200 197 192 186 182 182 182 185 196 206 216 221 226 229 229 225 220 218 202 170 169 183 188 192 195 195 196 196 197 196 194 191 190 191 186 181 174 166 158 143 132 83 14 9 6 25 39 38 62 94 108 92 81 109 124 93 69 69 72 80 89 99 113 127 135 142 150 158 161 167 169 174 179 181 188 193 197 201 201 202 202 203 203 205 202 206 202 201 201 203 201 202 202 194 184 177 176 177 179 186 196 203 214 222 224 226 228 224 218 217 210 178 159 176 189 191 193 193 195 194 194 193 195 191 184 186 184 178 172 163 152 140 129 63 2 6 4 16 35 47 132 128 84 117 110 105 116 69 54 69 73 78 84 95 110 123 131 137 146 154 161 163 167 173 177 181 185 192 196 198 197 199 202 203 201 203 201 200 198 200 200 197 203 200 193 188 177 171 178 188 189 186 192 200 212 222 224 222 226 224 218 215 209 195 166 168 185 193 192 193 192 193 194 193 192 189 183 182 180 174 167 157 146 139 120 38 4 9 4 13 30 44 91 80 77 84 94 102 80 15 35 67 69 77 84 90 104 117 128 135 142 151 157 159 165 172 178 180 183 187 190 193 196 198 200 201 202 201 198 198 199 200 201 201 201 198 190 180 169 171 186 192 191 187 190 200 209 217 224 223 222 219 212 208 202 198 186 165 179 193 194 192 191 191 191 191 190 189 187 180 176 170 163 155 145 134 97 17 13 8 8 11 26 38 1 27 54 59 58 49 8 0 20 59 66 76 85 87 99 116 125 132 138 145 151 158 161 168 174 178 181 183 185 193 195 196 195 195 194 198 202 199 197 200 203 199 199 194 188 179 165 175 185 187 189 185 189 199 201 210 215 216 217 209 207 204 198 183 191 180 180 190 193 191 191 192 191 191 189 185 181 179 174 168 161 152 143 126 71 7 13 13 9 15 26 32 3 0 2 6 9 0 0 2 9 48 63 73 83 86 95 110 119 127 136 139 145 152 156 165 168 170 175 181 183 188 192 193 193 194 194 198 197 198 199 199 199 198 196 193 189 179 168 176 182 186 181 177 179 191 194 202 207 213 209 201 195 189 179 164 176 190 190 191 192 192 191 191 188 189 189 186 179 175 172 164 158 149 135 116 41 7 17 17 9 18 29 29 7 4 0 6 5 0 0 3 1 33 64 69 80 87 93 105 116 123 132 138 141 148 151 154 162 167 172 178 180 182 185 188 191 192 194 196 195 196 198 198 198 199 196 196 195 180 168 176 177 176 171 166 164 172 180 188 194 198 196 190 180 166 152 145 157 186 201 198 194 192 190 191 186 186 186 182 179 175 170 162 153 146 128 99 22 19 26 17 10 21 31 29 8 10 7 5 1 1 0 2 0 17 56 67 78 88 91 101 111 121 127 135 137 145 150 154 160 167 170 175 178 183 184 187 190 193 193 195 196 196 197 200 201 201 200 202 201 184 164 169 168 166 162 154 154 158 158 167 176 179 177 173 155 141 136 143 152 188 208 203 198 193 192 194 187 187 183 176 173 171 166 159 149 134 121 75 16 31 28 12 12 24 29 27 6 7 12 6 0 0 1 3 0 7 44 62 75 86 92 99 109 118 124 131 137 145 149 155 159 163 166 170 174 179 183 184 188 193 194 196 196 196 198 201 202 202 205 204 205 189 156 161 161 153 131 97 81 119 152 155 161 164 161 149 138 121 118 137 160 199 207 205 201 193 192 193 188 183 180 176 171 169 162 156 148 130 114 51 23 33 22 7 18 28 29 27 6 2 3 12 7 0 0 2 1 1 30 57 69 82 91 98 108 115 122 130 139 143 146 151 155 160 164 169 171 173 182 186 187 190 196 196 194 194 198 201 201 201 204 209 207 197 162 142 149 142 135 115 96 99 125 149 148 146 145 136 118 112 119 134 176 201 207 206 203 196 193 191 186 181 180 175 171 165 157 153 143 127 99 34 30 28 17 6 14 27 31 31 5 0 0 3 12 10 5 5 1 3 17 52 66 81 88 95 108 117 123 128 135 141 144 153 156 158 162 167 171 176 181 185 186 188 191 191 193 195 199 201 201 200 206 210 206 204 190 156 133 138 146 136 137 143 139 141 145 143 142 131 121 128 144 170 197 205 210 209 204 199 192 188 185 181 177 173 169 161 156 150 138 118 72 24 32 28 13 9 20 31 28 30 11 8 4 5 12 13 15 10 4 6 9 45 63 77 89 97 105 116 123 127 131 136 142 149 158 157 162 167 171 175 176 181 184 187 190 189 193 195 197 200 201 204 207 207 209 205 202 196 173 155 148 149 152 160 159 144 144 147 150 149 150 160 178 196 204 207 209 209 206 201 193 189 183 179 176 170 164 160 154 142 125 112 54 23 33 20 11 10 24 30 29 30 23 21 19 13 6 8 12 9 1 0 1 30 58 71 87 96 102 114 123 128 131 134 142 141 153 158 160 166 171 172 175 179 181 183 188 190 192 196 197 200 203 204 206 207 210 208 206 202 198 185 176 170 167 171 170 155 146 151 163 167 167 176 189 198 202 205 207 208 204 202 195 188 183 178 173 168 165 161 149 135 120 100 36 28 26 16 8 14 27 30 31 32 17 10 7 2 2 2 7 16 15 1 0 16 51 67 84 95 103 113 121 129 132 134 138 139 148 154 156 163 167 172 174 177 179 184 188 191 194 194 197 198 202 206 206 208 208 208 204 202 202 197 189 183 179 177 171 157 149 154 166 175 177 182 190 199 203 202 204 204 202 199 197 187 182 177 169 164 159 155 143 129 114 79 28 33 16 18 6 17 28 28 30 33 12 15 13 8 9 8 9 4 18 21 1 6 39 61 79 93 103 111 118 128 133 134 138 142 148 152 156 161 163 169 175 176 177 180 185 189 192 191 193 198 202 203 206 207 206 205 202 202 203 199 193 189 186 185 175 158 155 162 172 179 182 185 192 195 199 201 203 202 201 195 192 188 180 175 166 159 154 145 135 121 109 58 24 22 13 17 9 24 24 27 27 33 13 17 16 10 6 2 3 1 1 27 25 0 28 56 73 92 100 110 118 126 133 136 140 141 146 153 157 160 163 165 174 176 178 179 181 183 188 191 191 198 197 199 201 203 203 204 202 203 202 198 194 189 187 187 179 165 165 169 174 182 188 192 195 195 197 198 198 197 196 190 186 184 177 170 164 155 147 138 126 117 100 42 23 10 19 14 11 27 20 25 31 40 18 20 15 8 13 12 14 9 1 2 42 23 19 48 68 90 101 112 119 123 131 136 141 143 146 151 157 159 165 169 171 173 177 179 180 182 186 189 193 196 192 196 198 199 199 199 201 201 199 199 193 188 186 189 185 169 164 168 167 182 198 200 197 193 190 194 192 188 189 186 181 179 174 166 159 148 143 131 121 115 84 29 16 10 22 14 17 26 21 24 31 39 22 20 17 17 13 9 10 10 11 16 20 36 17 38 63 85 100 110 117 126 133 137 141 144 146 146 152 158 159 163 168 171 174 176 179 182 184 185 191 190 191 197 198 198 197 198 198 198 197 195 199 194 192 196 198 189 177 174 178 192 202 196 194 195 196 187 186 182 181 180 177 174 170 164 155 146 135 122 122 112 63 20 10 12 20 13 23 26 29 26 32 38 21 20 21 18 17 15 19 14 8 9 12 32 36 28 49 75 97 108 115 126 133 139 141 143 148 148 151 156 159 162 167 169 171 174 176 180 181 184 186 186 190 193 192 195 194 194 195 195 199 198 193 188 176 170 172 176 184 195 191 172 160 154 160 170 178 184 188 181 177 173 170 167 164 160 150 142 134 127 120 106 43 15 12 15 19 16 27 21 30 25 33 39 28 27 28 25 28 22 25 16 5 9 9 12 50 34 38 65 90 107 114 123 131 139 143 145 149 153 153 155 159 161 163 166 167 173 174 176 178 181 184 184 186 188 189 193 192 190 195 200 189 179 168 154 147 143 138 129 137 145 134 122 123 129 133 132 137 161 175 183 177 166 165 160 157 153 147 143 134 126 119 89 26 18 14 17 16 15 22 21 26 24 35 40 32 30 30 25 19 25 27 25 18 9 2 1 28 48 36 55 79 102 115 123 130 138 145 148 151 154 153 155 160 162 164 163 167 169 172 174 176 178 181 181 180 181 186 188 191 189 189 177 156 140 131 128 127 119 112 107 110 109 103 106 112 116 111 111 110 112 124 148 162 153 153 154 152 147 146 142 130 125 113 61 15 18 16 17 14 18 20 22 20 27 28 36 40 32 38 24 15 9 13 21 20 32 25 2 4 49 44 45 68 92 109 121 131 137 142 148 153 154 155 156 160 162 164 165 167 164 169 171 174 174 177 177 178 177 180 185 184 168 142 122 115 107 107 109 108 103 98 96 101 99 99 102 105 101 106 97 94 88 88 98 118 127 137 148 149 144 142 139 131 121 102 31 15 20 17 18 14 21 21 19 22 24 24 33 50 36 44 34 18 16 10 15 3 9 26 38 19 41 52 41 56 83 103 116 128 134 139 147 152 150 154 157 159 161 165 165 167 167 170 169 173 177 175 170 168 165 160 155 140 119 102 97 97 97 99 93 90 81 83 80 75 73 84 85 85 83 84 76 74 79 75 76 79 105 134 146 144 141 140 135 128 120 76 11 18 22 20 19 17 25 23 16 22 22 27 29 58 43 51 44 18 14 12 13 9 0 0 7 26 47 53 48 46 70 95 110 121 133 138 144 149 151 155 158 159 160 166 168 169 168 169 168 172 173 170 157 149 124 104 100 94 89 85 78 76 79 75 71 67 64 64 61 61 66 65 64 61 63 68 78 80 81 72 66 78 114 141 145 140 139 136 130 120 109 40 11 22 24 19 21 15 24 22 23 22 19 26 26 57 52 50 54 24 17 15 18 17 0 1 1 0 21 54 56 45 58 82 103 116 129 136 142 148 153 156 157 160 161 166 169 170 167 168 165 165 168 167 153 124 85 79 86 91 97 96 94 108 113 117 110 122 116 105 103 102 96 104 108 106 109 109 113 112 105 99 105 125 139 146 143 141 138 132 127 119 86 14 19 22 24 22 20 14 22 23 23 17 23 24 24 57 51 48 56 26 20 17 16 26 13 7 7 8 9 39 56 52 45 66 94 110 123 135 143 148 150 152 156 156 159 164 166 167 169 167 165 162 166 168 160 143 143 139 127 118 118 122 122 121 121 137 137 151 150 131 131 135 122 130 133 131 133 125 119 109 109 109 130 150 149 144 139 140 136 130 122 113 56 8 23 23 23 21 18 18 20 20 19 17 26 23 25 47 50 43 55 30 22 19 8 14 15 6 6 8 4 19 45 56 46 49 79 102 116 129 139 146 149 150 155 157 158 161 162 165 167 168 164 161 159 164 167 170 174 168 157 148 140 137 134 128 128 130 136 137 135 135 134 135 131 134 130 130 127 121 115 112 115 119 142 150 149 145 138 135 130 124 115 93 25 12 23 23 27 22 18 18 14 19 19 21 25 21 24 39 50 40 53 34 25 25 12 9 14 5 9 5 6 13 34 58 53 44 58 89 106 119 132 140 146 149 152 155 156 160 160 159 161 165 163 160 158 159 167 175 174 169 165 162 159 149 144 142 144 137 133 131 134 134 135 135 138 133 128 120 118 117 116 110 118 137 146 149 147 142 136 130 123 119 109 57 10 17 26 27 29 24 17 17 13 20 20 22 24 23 22 36 47 42 48 39 27 29 14 10 20 3 3 10 9 14 15 56 61 50 47 66 95 114 127 135 144 149 151 153 155 157 159 159 158 159 159 158 160 163 169 174 174 169 164 163 164 161 158 152 147 142 140 133 130 129 129 125 125 122 120 116 113 111 110 120 133 139 144 147 142 135 132 125 120 112 87 24 13 23 30 23 30 28 18 20 17 20 20 21 24 23 21 33 46 42 45 39 31 30 25 7 15 12 1 7 9 16 7 39 70 64 51 49 75 102 117 130 137 145 148 152 155 153 155 159 158 158 158 158 161 163 168 169 171 171 168 163 159 157 157 158 157 153 146 137 128 123 123 124 121 124 129 128 128 126 123 128 133 139 143 142 134 129 127 122 113 99 54 14 19 30 29 25 30 28 19 18 18 23 25 23 22 22 22 35 43 43 44 37 36 32 28 13 10 16 8 4 6 13 10 19 63 74 70 52 53 83 108 122 132 139 144 145 148 152 156 157 158 156 157 156 159 160 159 163 164 165 165 164 158 157 156 155 153 149 146 143 139 137 139 135 133 136 143 141 136 132 126 127 135 140 141 136 127 126 123 119 106 70 28 15 20 26 29 26 28 27 21 19 19 21 25 24 23 23 23 38 40 43 42 34 33 38 25 24 13 15 9 7 11 7 12 19 38 72 77 73 56 59 87 112 123 131 141 142 144 148 153 155 158 158 158 157 156 157 158 160 159 162 163 163 162 161 160 158 153 151 148 143 141 141 136 131 134 135 137 135 131 128 132 137 141 143 136 131 127 126 119 110 80 34 24 13 20 26 30 28 29 30 25 19 20 27 25 25 25 26 26 41 37 41 42 39 26 38 28 20 17 22 8 10 12 4 14 15 21 63 79 81 76 63 64 92 115 124 135 139 143 147 152 154 154 159 160 160 158 157 158 157 156 160 161 161 163 162 163 160 158 156 152 148 146 141 135 134 137 137 139 137 136 138 143 146 146 143 135 130 128 121 111 88 39 25 23 12 24 26 29 25 28 33 28 21 25 28 27 27 26 26 27 41 36 39 41 41 28 38 32 24 12 14 15 11 9 5 13 11 16 46 76 83 86 82 67 70 93 114 126 133 139 144 148 151 154 154 159 163 162 161 161 161 160 160 161 162 165 165 163 162 162 163 159 156 154 148 143 144 146 148 148 147 146 146 151 152 149 142 135 129 122 111 91 43 20 26 19 13 28 29 32 26 31 34 27 21 25 27 29 30 26 28 25 39 37 36 39 42 30 34 32 24 16 13 17 4 6 8 9 17 11 30 67 80 88 93 90 73 72 93 115 125 131 138 144 148 152 155 157 161 164 166 165 165 165 166 166 168 168 171 173 171 170 171 168 167 163 162 161 164 163 162 160 160 160 161 161 156 151 142 133 124 111 91 46 18 25 27 16 7 27 26 27 23 33 35 28 21 25 31 34 38 27 29 28 31 38 35 37 39 30 35 33 22 23 14 13 6 8 7 5 15 21 21 59 77 85 90 94 90 82 75 91 115 124 130 139 145 149 153 154 161 163 166 167 167 167 170 169 172 173 174 178 179 178 179 178 177 174 173 173 173 175 174 174 170 169 170 166 160 150 138 127 115 89 45 17 23 29 23 12 9 26 26 29 23 30 32 30 26 27 36 37 41 36 25 28 28 34 35 36 35 29 34 33 22 26 11 15 10 6 8 8 9 20 23 42 77 82 87 93 99 98 90 77 88 109 124 131 136 144 150 150 154 160 164 165 167 168 172 171 173 177 178 180 182 183 184 184 183 180 179 179 179 179 177 176 176 174 173 167 157 147 132 118 88 36 17 20 27 25 21 11 10 26 28 28 23 28 31 36 31 26 37 40 40 35 26 29 27 29 31 36 34 32 33 36 26 27 18 16 9 5 8 11 9 23 29 32 73 88 94 97 97 99 106 95 83 84 102 120 128 134 140 145 150 154 159 163 165 168 172 171 174 178 183 185 187 186 185 185 186 184 180 181 182 182 181 178 178 175 173 163 154 140 123 88 28 15 20 25 24 26 20 10 10 24 25 27 24 25 25 40 35 22 36 41 42 36 27 26 24 31 30 33 33 29 33 34 27 19 21 16 15 10 8 10 9 30 39 28 57 89 96 100 96 103 110 112 104 92 85 96 112 123 132 138 142 147 154 158 161 166 168 172 175 179 184 187 188 187 185 183 183 183 181 181 182 183 180 177 176 174 169 161 147 131 96 28 14 20 19 26 24 25 12 11 10 25 27 25 23 27 22 38 43 21 33 39 42 39 32 23 31 29 28 30 33 27 31 34 20 17 22 17 17 11 13 20 15 31 43 25 45 84 90 94 100 107 109 111 110 109 103 95 91 102 117 126 132 139 145 149 155 160 164 167 171 175 173 181 182 185 183 181 178 177 178 177 177 179 176 173 171 169 162 151 132 110 38 13 21 22 21 24 22 16 12 12 8 27 28 26 23 24 26 28 47 36 28 36 40 42 41 23 32 30 30 32 32 24 28 33 18 16 21 24 19 14 20 21 21 21 43 34 34 73 87 95 103 106 110 112 110 110 111 110 104 95 96 107 120 129 137 143 150 155 158 162 165 168 166 173 176 178 177 176 174 171 168 167 169 169 169 167 165 159 150 136 118 55 16 20 22 21 21 25 24 13 13 12 7 28 25 30 19 18 27 20 35 50 36 43 42 45 43 26 22 29 31 31 28 26 28 28 20 20 20 21 17 19 24 20 25 29 43 43 31 67 88 95 101 104 111 113 112 111 111 111 113 115 110 104 103 110 120 132 142 145 148 155 160 163 167 169 172 172 171 169 167 163 160 162 162 164 162 158 152 144 135 120 65 19 23 22 25 21 23 24 23 14 13 13 8 27 26 34 22 16 25 18 20 45 39 38 45 47 48 32 21 26 29 30 29 26 30 26 15 19 22 20 15 21 26 24 24 36 39 43 32 55 89 96 98 104 110 113 113 112 114 111 112 117 120 122 115 108 103 110 123 137 144 149 152 155 160 162 163 165 163 162 158 156 157 157 155 152 150 146 141 131 121 70 18 21 25 22 24 23 23 24 21 15 14 10 9 25 24 35 27 13 24 14 17 29 49 34 47 50 54 38 21 25 30 30 30 26 28 28 12 17 17 23 22 21 24 29 26 33 41 45 35 46 85 98 99 107 107 112 112 112 113 114 113 116 118 123 124 124 116 107 104 112 126 139 145 149 151 155 155 155 153 153 150 148 148 149 146 142 138 137 127 112 69 24 22 25 24 20 22 22 27 25 20 13 16 9 14 26 22 34 25 15 23 6 17 25 39 41 43 49 55 46 20 20 29 28 20 27 32 30 17 17 15 20 28 24 25 31 34 26 44 49 41 39 80 98 105 111 111 110 112 113 113 114 115 118 119 122 125 124 125 123 113 102 101 109 123 136 143 148 149 148 147 146 144 141 140 141 138 135 129 119 99 69 39 29 26 27 24 23 19 22 25 24 19 16 19 8 18 27 25 35 21 20 27 6 10 26 21 47 40 42 47 57 18 20 27 24 17 29 32 27 19 20 15 17 27 29 29 30 44 25 34 48 43 36 68 93 105 109 117 116 113 114 113 112 113 119 121 123 126 125 125 126 125 119 112 106 100 104 114 124 131 136 137 136 133 131 130 127 122 115 107 89 68 60 47 31 28 29 27 25 22 23 26 20 22 19 19 11 18 27 26 37 20 23 30 7 8 19 24 25 48 35 43 49 20 25 28 21 17 27 27 29 24 24 24 20 22 27 29 39 44 31 31 46 44 40 62 91 100 109 117 116 111 115 115 114 112 116 120 122 124 126 124 124 127 129 126 123 116 110 104 98 98 101 106 109 107 109 109 106 104 101 92 82 68 64 48 32 29 32 29 27 24 25 23 21 21 21 17 10 22 27 31 31 23 22 32 11 12 12 25 20 30 46 35 46
