P2
# Generated by OpenCV 4.2.0
92 112
255
84 92 102 83 86 106 83 104 79 94 106 80 149 121 148 100 122 118 114 102 81 66 52 31 29 76 52 65 7 12 29 45 77 52 89 75 73 80 123 136 155 126 112 106 70 135 152 79 80 63 123 118 66 69 83 41 67 77 63 68 60 66 60 76 66 39 57 71 44 49 49 20 17 34 33 35 26 58 78 75 44 70 29 53 90 58 90 31 48 79 118 75 106 78 117 106 76 111 77 102 105 101 83 128 150 163 77 126 102 139 54 65 80 57 27 20 108 68 11 8 22 39 47 62 87 80 108 109 128 149 123 168 159 168 165 172 151 152 137 158 116 101 92 96 97 93 85 110 109 83 85 85 79 78 69 67 68 67 57 64 61 60 29 34 33 29 28 19 46 47 56 72 86 41 84 68 39 78 52 94 80 54 52 138 94 103 62 108 106 46 125 92 74 124 142 96 186 58 104 141 117 84 32 91 74 43 19 95 19 20 29 18 43 55 91 106 117 122 143 154 163 163 175 185 182 166 182 176 161 159 142 152 134 147 141 113 110 112 112 110 102 105 102 115 105 103 108 72 72 76 59 65 48 53 45 44 49 51 64 42 19 24 37 59 68 71 45 48 80 45 65 70 73 65 63 90 79 87 87 117 67 84 102 113 121 82 68 172 75 134 148 98 113 54 71 75 22 40 119 6 35 21 34 50 80 116 133 137 153 152 170 188 196 193 205 197 197 190 207 191 201 184 191 170 166 164 163 133 129 142 142 136 118 134 129 127 123 127 125 110 93 95 82 73 78 71 50 51 47 40 38 38 37 53 75 50 77 97 102 41 56 65 69 60 74 81 80 66 101 100 102 87 92 115 103 128 84 107 163 125 130 171 77 100 56 68 82 42 41 98 26 21 27 38 67 96 115 151 165 174 177 185 205 215 208 212 211 215 201 215 211 216 200 213 190 194 174 175 168 158 172 143 144 152 161 142 144 141 155 138 138 129 122 90 112 71 64 59 56 45 44 54 48 30 24 35 46 42 60 63 92 104 33 55 82 65 60 42 79 92 87 93 78 84 119 106 106 95 113 148 148 91 152 84 89 85 67 60 42 65 79 26 7 25 41 52 107 139 172 178 191 198 213 211 213 217 220 215 220 218 222 219 211 209 220 210 203 206 199 194 186 178 176 178 183 155 151 148 141 152 152 159 152 149 154 136 128 123 95 77 55 49 41 26 35 34 33 34 30 69 39 62 53 109 90 68 67 73 77 54 33 97 85 84 113 106 115 103 102 53 136 132 78 147 77 90 87 69 68 48 72 49 28 26 28 43 77 105 140 165 192 202 204 207 216 217 218 216 221 221 223 220 228 220 213 217 221 216 211 202 210 202 191 197 192 190 190 167 182 181 174 177 183 173 168 154 163 162 139 144 111 83 70 62 36 44 31 31 42 38 58 48 30 100 30 97 97 117 64 61 75 60 83 64 120 78 116 109 116 105 69 150 134 140 117 98 87 76 80 56 55 64 53 56 36 21 59 52 94 145 167 185 202 214 215 218 219 214 224 222 224 227 231 230 230 226 223 220 222 221 220 216 204 213 206 201 200 196 192 183 189 179 196 174 187 182 178 174 168 162 161 155 122 123 96 74 61 33 31 32 35 19 23 32 55 42 85 65 81 110 109 37 61 104 49 58 58 134 97 117 76 110 108 115 101 83 152 70 60 73 21 101 51 77 52 29 20 40 53 95 157 178 189 194 208 210 208 216 220 221 222 222 230 227 223 229 225 234 227 231 218 220 213 215 210 214 205 205 204 203 198 201 193 188 189 190 183 182 182 175 175 165 161 155 140 128 101 92 73 59 47 33 34 32 35 33 47 49 50 70 122 130 124 138 51 51 89 59 143 130 124 92 82 91 141 105 130 173 85 42 88 18 93 47 69 52 47 25 29 46 80 132 164 185 202 207 207 217 220 221 223 226 227 225 221 230 223 227 224 225 226 221 226 224 213 215 207 204 203 204 203 205 200 196 199 195 192 192 183 183 180 174 174 165 163 159 147 139 120 94 86 70 63 44 36 24 34 42 32 35 29 65 51 86 70 120 173 93 78 66 87 90 58 67 81 100 106 125 126 98 41 75 31 108 44 69 59 49 19 25 43 74 123 159 182 194 204 212 213 215 221 217 222 225 227 234 222 224 219 227 225 222 225 223 220 223 213 215 206 212 207 208 207 202 202 195 197 197 194 195 187 180 178 172 175 169 163 157 154 147 133 124 103 81 70 58 49 41 29 44 45 36 50 3 29 94 81 68 100 126 127 76 91 62 67 67 98 85 101 123 121 56 82 53 51 55 63 65 49 35 20 35 61 101 161 173 192 207 206 217 216 216 220 225 228 227 227 234 229 228 228 223 229 222 222 227 229 228 221 215 213 215 212 210 217 204 206 200 198 197 194 190 188 186 181 175 171 170 166 160 157 150 140 130 113 87 83 71 48 63 20 32 53 51 47 61 31 41 80 94 72 99 78 121 86 71 60 96 61 104 125 119 81 56 64 20 86 71 62 53 45 26 29 53 90 144 172 192 205 210 209 213 215 221 226 225 228 228 227 222 230 222 227 225 226 228 226 217 222 222 217 215 216 217 212 214 214 208 207 201 200 198 194 194 189 180 181 175 172 171 169 160 158 155 149 138 126 97 83 81 74 47 45 41 37 57 52 31 80 28 32 79 61 94 93 121 79 58 92 78 110 93 119 66 54 69 50 68 40 56 46 49 18 20 45 67 130 164 172 195 208 205 209 211 218 216 225 224 230 230 230 232 233 231 229 223 234 227 217 219 224 224 220 219 217 214 222 207 214 210 212 208 202 203 198 189 197 186 181 174 172 172 175 161 159 155 146 147 126 116 98 87 59 56 50 44 50 50 62 41 49 17 29 64 56 38 76 69 69 112 95 66 97 112 97 60 63 42 48 51 68 58 54 48 12 31 53 101 156 175 189 201 202 205 215 216 218 220 224 224 225 231 230 230 231 229 227 221 228 227 224 225 228 218 225 221 214 215 227 215 215 205 203 202 192 198 201 193 190 184 181 177 170 173 167 165 162 158 150 146 135 122 106 96 58 66 53 40 51 61 49 50 32 62 8 41 29 63 57 64 86 81 69 104 89 105 84 45 59 61 63 75 43 49 49 17 25 47 84 137 171 189 195 197 203 210 214 217 214 217 222 224 230 233 232 230 231 229 232 226 231 223 222 224 228 224 224 218 215 204 217 219 209 212 212 205 198 192 195 192 186 182 180 177 173 172 168 163 161 159 152 144 136 130 117 99 80 70 61 61 35 47 42 82 27 47 60 28 44 46 56 46 45 76 106 106 101 87 49 75 52 37 71 38 67 60 28 14 33 62 110 160 176 194 195 199 203 210 212 218 212 220 222 223 225 232 231 233 234 232 231 223 224 220 221 222 221 225 217 223 208 224 207 208 209 208 210 202 199 197 195 197 188 185 184 181 178 173 171 163 161 161 154 146 136 134 122 111 84 63 65 47 48 46 50 32 54 38 51 22 36 26 39 62 130 70 76 105 111 80 61 45 44 80 36 66 76 34 28 23 46 96 140 167 183 194 197 199 205 214 214 216 210 221 224 220 222 231 230 237 229 225 224 230 227 222 221 219 222 226 218 216 214 215 216 215 217 210 206 204 205 202 197 198 188 186 182 181 176 176 168 165 160 159 152 147 141 136 126 120 103 72 68 60 47 53 57 39 76 30 47 71 16 25 23 36 80 73 123 90 82 51 70 50 65 35 53 58 10 47 14 33 64 116 153 174 193 190 196 201 208 212 215 216 212 219 223 224 225 233 233 237 228 225 222 229 227 223 227 221 217 218 214 216 213 212 211 212 210 210 215 214 204 197 199 200 189 190 184 180 176 174 169 164 161 160 154 149 144 139 134 124 104 81 54 68 49 45 58 55 62 34 45 29 48 36 31 13 76 80 67 91 74 64 37 57 47 35 60 39 49 19 31 41 83 127 161 178 194 182 201 204 211 208 214 216 217 214 225 227 226 229 222 225 222 226 223 234 223 218 224 227 218 220 217 213 212 214 216 215 212 211 211 206 209 207 200 196 183 187 184 179 174 172 172 163 161 161 154 153 147 142 135 122 113 96 73 51 52 48 43 45 55 58 6 32 24 32 23 27 86 100 115 82 59 58 56 43 45 52 65 23 31 24 30 60 98 146 172 185 199 197 200 203 208 208 210 215 220 216 218 215 227 222 223 221 225 225 227 221 221 232 227 217 214 217 220 217 208 220 218 213 212 210 216 209 209 207 193 195 190 183 183 179 172 172 169 168 164 160 154 154 148 144 137 133 119 104 76 52 53 48 44 52 42 51 30 12 58 23 29 29 80 108 91 70 49 62 47 46 21 83 33 29 7 30 44 78 120 158 174 181 190 195 196 203 207 206 210 214 217 216 219 222 224 225 222 220 221 220 220 224 226 220 222 229 219 217 213 213 214 212 210 213 215 212 214 205 211 206 196 194 187 186 181 179 174 170 167 166 164 159 156 151 148 145 139 134 122 111 85 65 43 46 52 46 37 40 43 20 19 33 27 39 85 96 80 31 70 41 37 22 61 43 28 28 28 26 51 94 139 168 182 190 198 201 197 201 202 208 210 215 213 217 220 215 222 225 224 225 226 223 219 219 223 221 224 213 212 219 216 212 217 215 218 214 211 213 214 211 210 199 193 191 186 184 181 179 174 174 170 169 164 160 156 153 147 141 139 135 128 109 89 69 51 40 52 62 51 25 42 43 20 25 21 31 106 96 49 56 41 38 31 41 64 48 26 20 20 36 68 112 150 169 176 189 196 198 199 201 203 203 211 213 218 219 219 220 225 219 225 221 223 221 224 223 223 218 217 217 215 217 216 214 214 213 213 216 218 206 206 206 207 200 204 196 190 193 183 183 178 177 169 169 169 163 158 155 150 144 138 133 126 110 94 74 67 39 13 48 51 46 33 35 22 38 22 47 97 52 62 37 40 35 36 84 52 21 18 13 24 43 76 122 164 178 180 188 195 197 198 197 204 207 209 211 215 213 216 218 224 217 220 216 219 221 220 219 217 222 216 217 214 217 211 217 218 217 215 218 219 209 208 208 202 197 196 191 189 190 184 184 177 170 176 169 168 163 158 156 150 145 139 132 127 119 92 87 70 53 44 17 52 44 41 46 51 26 17 28 57 60 29 49 42 18 76 77 16 23 17 23 28 49 87 128 163 182 182 187 195 193 198 206 208 201 209 216 221 221 218 218 226 219 218 220 215 218 221 224 225 214 213 221 219 220 218 215 219 218 218 211 207 208 203 202 201 200 200 195 190 186 193 180 183 184 171 167 166 161 156 153 152 150 143 133 132 111 106 79 82 42 45 46 25 49 51 34 37 31 36 25 81 45 47 30 33 64 70 47 37 18 18 20 31 55 104 151 165 174 186 192 195 202 198 202 205 209 211 214 217 219 222 222 222 223 224 221 221 223 216 221 217 217 223 223 219 214 211 214 210 210 213 215 215 207 206 199 206 208 200 200 199 194 192 186 183 179 173 170 168 162 158 158 154 148 146 137 133 123 110 89 77 58 38 39 41 46 54 38 37 33 34 32 42 37 40 37 37 119 36 25 19 21 20 25 43 71 112 152 165 173 186 195 197 200 207 205 205 210 213 218 221 218 221 222 222 223 223 220 220 222 220 222 224 216 219 220 219 214 213 213 217 211 214 209 206 212 207 207 210 201 204 201 198 193 190 187 184 180 175 171 170 165 162 160 154 151 144 139 136 126 118 99 81 60 45 35 41 43 53 47 15 45 21 26 50 41 17 42 99 49 46 22 18 13 25 29 46 78 123 156 167 180 188 193 198 193 201 212 204 210 212 216 216 216 220 220 220 222 222 221 219 219 222 217 220 219 213 215 212 213 212 206 210 212 212 211 215 213 214 208 207 198 208 206 205 190 192 190 188 186 179 176 173 167 165 162 157 152 151 142 137 127 121 104 87 55 44 40 33 49 59 49 39 23 48 16 42 19 45 47 92 41 22 15 23 15 29 42 59 92 131 157 165 181 191 195 196 200 202 209 208 209 215 210 217 218 216 221 217 216 215 216 219 219 224 225 214 212 213 209 209 213 219 215 207 210 212 204 204 207 210 213 209 208 207 209 207 199 198 194 189 184 180 172 176 172 165 161 158 154 154 145 140 131 122 106 88 60 42 29 44 40 53 54 37 24 34 31 24 38 36 151 35 32 25 20 22 26 35 47 65 97 127 151 165 182 191 191 195 197 202 205 204 207 213 208 216 217 218 219 220 220 220 217 221 218 217 216 219 211 208 214 215 209 208 211 212 206 208 209 207 208 205 206 202 209 213 204 199 198 199 194 192 184 179 172 177 173 168 163 160 156 153 146 139 134 121 107 93 63 43 33 27 46 46 56 33 50 55 25 30 38 132 59 40 31 24 27 24 35 45 64 81 102 126 152 167 178 190 193 201 195 202 206 206 206 208 204 211 210 216 213 220 221 221 220 210 220 219 217 213 216 217 212 209 204 204 201 204 203 197 203 201 197 207 203 211 207 209 206 202 204 197 191 192 185 178 175 177 176 172 167 162 159 154 149 139 131 129 107 94 77 48 42 27 35 55 48 41 43 36 43 25 109 79 43 42 25 18 25 28 35 52 73 94 112 135 150 170 178 183 193 195 197 197 208 202 208 211 211 209 209 212 215 209 218 211 214 209 220 216 215 210 212 208 202 207 204 199 196 199 203 201 198 199 199 200 204 210 206 211 199 205 199 198 195 187 187 180 177 176 175 170 174 172 160 162 153 145 133 120 112 94 77 53 38 29 37 47 57 38 21 36 40 110 104 54 57 37 19 19 25 30 41 60 85 112 130 146 155 168 183 192 196 197 197 200 190 192 198 204 206 207 211 204 208 211 205 208 211 215 207 204 207 208 205 204 208 201 197 202 195 194 196 196 199 197 195 198 202 201 202 198 200 198 196 192 186 183 178 177 172 169 167 174 164 157 165 162 162 144 141 121 115 101 90 64 45 27 32 41 49 40 25 28 36 122 55 43 56 34 14 21 20 32 50 73 97 124 141 156 159 166 184 179 157 173 175 174 174 166 178 179 184 182 185 186 189 188 189 212 191 189 204 196 202 208 200 208 200 199 198 200 197 190 190 197 191 193 191 194 199 197 195 194 197 190 192 177 173 177 166 155 151 154 159 132 140 135 119 129 158 160 146 130 115 108 92 78 54 28 30 41 53 27 45 22 36 45 44 56 37 24 21 26 26 37 57 85 114 142 157 158 155 188 109 111 122 85 116 105 131 133 126 102 113 123 158 155 148 138 135 131 165 165 176 182 191 199 194 206 203 193 192 192 193 191 189 188 189 188 186 186 186 186 177 153 148 161 157 164 158 164 134 111 108 94 93 91 94 84 73 82 113 138 143 130 116 110 98 80 58 31 28 35 47 31 43 21 33 56 62 66 22 19 21 24 29 42 64 90 126 152 164 158 138 70 100 101 93 108 88 87 78 62 69 96 69 62 69 57 89 86 94 95 100 106 154 167 180 194 193 195 193 190 192 190 193 192 189 184 184 182 176 168 155 140 129 120 105 94 93 73 69 70 54 62 65 54 36 70 59 69 82 86 83 97 127 129 128 119 103 84 59 38 26 33 42 32 31 11 35 70 67 44 23 21 22 23 36 49 76 108 146 148 160 60 84 108 77 80 107 85 75 51 88 70 70 55 58 55 48 56 51 47 59 86 82 109 123 156 156 166 183 187 193 191 190 185 185 183 180 180 174 169 162 159 122 120 108 78 76 58 53 65 45 35 60 45 52 50 54 55 66 88 73 71 61 68 75 89 115 122 106 91 58 42 21 34 42 35 7 36 21 61 91 9 26 19 25 25 44 57 86 120 152 152 75 98 110 96 82 107 104 112 64 85 59 50 53 48 46 39 45 32 40 51 62 65 81 78 105 136 149 160 179 176 185 189 186 184 183 178 178 171 167 160 140 112 115 83 69 54 51 41 46 45 46 50 38 40 44 41 42 53 65 69 65 87 86 65 60 80 79 118 106 84 68 43 14 36 40 46 17 42 24 129 38 15 24 24 20 29 51 69 99 125 160 119 108 86 109 114 134 125 144 125 116 105 97 85 80 68 62 55 38 43 43 49 62 64 72 92 90 135 136 148 168 173 183 187 187 186 185 176 170 165 155 140 124 105 83 75 62 57 55 47 40 38 40 45 40 45 41 54 65 76 88 89 80 89 75 64 70 88 93 95 101 97 77 47 13 24 44 33 32 43 18 45 42 21 26 25 15 32 57 83 114 144 146 118 100 111 109 154 173 197 171 175 177 163 158 141 119 109 86 81 70 64 60 67 66 57 67 80 81 121 127 142 158 171 181 187 188 188 179 170 166 154 141 119 101 81 66 51 60 61 60 63 61 55 60 62 68 79 91 87 108 114 127 121 121 124 108 98 84 84 105 111 117 100 86 46 18 20 41 21 38 49 30 27 18 25 23 20 25 36 66 94 126 144 139 112 133 140 155 168 178 181 182 176 180 178 182 170 152 139 125 105 93 87 81 62 61 69 69 78 77 96 109 128 150 163 182 190 195 191 179 171 162 145 130 104 85 71 66 65 66 59 50 65 58 70 81 82 104 110 106 122 128 137 135 137 137 134 131 121 96 91 106 93 106 101 105 42 28 22 34 36 24 32 20 34 14 28 17 24 30 42 75 107 136 142 142 138 142 159 178 178 181 181 180 183 179 181 184 177 159 155 161 142 145 137 119 100 90 80 71 71 73 76 95 115 144 166 180 185 191 189 185 171 156 136 114 82 71 64 65 61 63 70 82 87 87 116 140 135 127 128 107 115 127 131 130 127 124 126 124 115 117 122 105 107 116 115 104 48 32 19 30 44 20 34 20 22 22 23 20 21 30 49 88 121 147 152 154 155 152 168 171 173 171 173 172 162 166 162 172 168 145 96 81 63 53 76 108 122 119 107 97 86 73 80 71 94 136 170 185 195 204 203 192 175 159 133 90 59 55 61 64 73 73 93 107 80 63 57 62 57 67 54 74 126 127 123 117 115 118 118 120 114 105 106 103 103 113 118 107 57 28 17 27 45 16 27 33 30 21 24 22 20 34 55 95 135 156 160 156 154 159 164 160 168 161 173 159 148 167 106 17 110 130 196 229 182 113 95 79 27 32 113 102 106 101 87 87 80 136 165 189 201 207 203 199 177 149 124 80 54 62 67 73 81 101 56 36 92 83 96 160 87 70 119 104 105 46 10 65 96 96 103 98 101 102 110 110 108 111 122 110 63 25 12 22 42 42 19 27 30 26 25 22 20 37 65 107 138 164 160 159 160 161 158 163 164 163 163 163 69 22 122 169 74 118 99 21 53 78 72 102 48 64 29 70 109 112 110 110 109 113 175 192 208 216 213 206 182 156 116 53 52 65 83 74 106 46 88 86 26 42 18 23 23 52 35 59 70 68 95 67 15 53 89 106 87 94 91 101 110 123 124 114 72 29 10 22 36 43 29 18 27 24 25 25 20 43 72 113 151 164 170 162 156 158 157 147 152 139 102 11 73 111 46 76 52 31 17 33 93 24 26 43 27 63 73 57 61 107 113 121 126 133 188 204 216 229 229 206 187 167 115 51 63 85 83 101 39 71 42 36 33 42 60 190 23 27 29 31 27 51 51 58 80 31 47 62 81 88 92 103 109 123 127 116 73 23 5 15 47 42 34 25 18 26 22 27 21 43 86 116 156 173 172 174 161 160 153 139 118 65 42 84 59 22 10 23 42 48 24 25 71 37 70 43 125 25 48 55 121 97 118 143 142 155 190 205 223 231 226 218 201 167 123 56 78 72 118 89 80 26 101 181 42 64 28 87 10 51 64 55 76 25 31 32 34 51 57 57 65 79 91 99 117 132 131 112 74 31 26 15 31 36 29 22 20 24 25 31 19 48 93 125 159 177 181 183 166 164 147 103 61 57 83 45 33 35 48 118 59 82 72 0 1 54 84 68 161 150 84 45 72 155 144 181 158 173 187 201 222 239 237 227 210 173 115 71 99 109 111 48 36 103 151 174 60 117 82 10 22 107 94 83 107 94 38 25 31 36 50 52 62 84 104 125 132 141 136 118 74 29 14 21 22 33 41 23 30 29 27 34 15 49 98 131 164 182 187 190 175 164 142 110 88 57 43 51 35 29 119 127 113 74 129 69 72 111 111 101 192 168 136 77 88 64 185 205 199 190 195 205 217 242 240 223 207 183 134 108 171 151 40 133 107 140 165 199 142 87 114 116 127 108 49 127 118 101 86 50 47 37 53 75 101 116 123 142 144 148 138 118 70 28 20 18 21 40 27 39 30 24 32 28 24 50 100 137 172 189 195 199 191 184 167 149 109 91 85 100 36 98 160 142 194 57 107 116 94 124 71 164 168 133 96 134 133 167 179 222 203 189 195 213 222 237 243 225 216 188 148 131 178 150 139 95 133 162 157 151 172 139 106 74 87 62 108 149 136 124 65 52 55 79 85 107 132 140 155 164 160 159 140 116 65 29 20 22 10 42 23 29 32 33 29 26 25 51 103 139 170 191 201 199 207 196 180 175 165 164 139 84 71 93 92 120 119 177 143 172 211 216 167 138 159 163 166 184 195 193 214 210 189 191 198 214 230 241 237 226 218 193 165 148 169 177 182 198 187 144 159 154 187 163 166 127 110 116 103 124 90 90 65 69 76 99 126 146 165 159 163 167 164 160 141 109 61 32 19 20 14 17 35 23 23 38 34 25 26 51 105 142 172 187 202 214 209 203 203 204 193 184 164 129 90 84 152 85 144 120 113 106 129 150 178 144 171 174 171 182 198 221 209 210 203 198 202 212 228 233 241 223 215 193 167 157 179 178 189 184 188 178 173 174 170 153 164 133 138 125 87 110 103 66 73 96 111 110 139 164 166 166 170 171 166 161 141 112 46 25 29 32 36 14 29 24 39 35 27 28 25 48 100 143 168 190 204 214 216 213 211 215 205 205 193 166 153 132 124 120 145 140 152 138 149 161 163 152 169 171 191 201 215 220 214 209 205 201 207 210 223 239 239 230 217 199 174 160 173 175 195 202 199 186 182 185 172 134 124 137 136 105 99 102 98 97 126 141 137 139 158 165 176 175 177 172 169 164 137 98 39 20 30 27 29 14 22 33 32 32 25 30 25 44 93 137 168 186 197 206 215 217 218 223 214 215 203 186 184 178 167 155 147 134 150 143 136 145 151 159 179 203 210 213 221 221 212 212 207 206 207 207 222 238 241 231 215 200 178 167 173 180 194 205 213 204 198 194 192 189 174 158 140 135 131 133 139 149 157 159 159 171 174 183 183 178 176 176 171 165 132 95 28 21 32 29 36 18 21 27 37 34 25 34 31 43 83 128 165 179 195 203 213 218 209 219 223 225 215 213 209 200 193 195 195 192 176 171 174 188 209 208 206 210 218 206 219 215 212 211 202 203 206 205 222 233 239 230 215 202 176 167 167 178 195 198 209 210 209 201 197 203 191 184 172 179 173 170 175 185 179 187 184 187 189 189 188 185 175 172 169 160 122 94 22 23 31 38 39 20 19 25 36 46 37 36 29 32 77 121 163 178 190 199 207 214 218 220 219 225 225 223 225 222 212 210 209 213 211 204 218 218 218 221 217 214 219 225 218 213 211 207 206 205 206 209 222 236 237 233 217 201 176 169 170 174 183 192 209 214 213 215 205 201 206 193 197 193 189 188 191 191 190 195 197 199 195 195 190 189 181 175 168 157 122 93 19 33 36 44 37 16 18 27 46 29 28 42 36 37 62 117 153 177 186 195 200 212 212 221 228 223 226 227 229 229 225 221 221 226 216 224 228 220 224 220 221 222 229 222 210 208 209 206 204 203 205 212 223 238 243 229 220 207 184 175 178 176 183 193 197 211 209 212 205 213 204 205 201 208 207 206 206 204 210 199 201 199 196 197 194 184 176 170 163 148 118 73 20 27 38 45 37 14 18 34 35 26 38 43 45 46 57 102 147 168 183 195 201 211 214 216 220 221 224 227 225 227 231 235 231 232 227 225 226 218 226 227 224 220 222 217 212 206 204 204 206 204 204 216 226 234 237 236 212 215 186 172 168 172 178 185 192 200 210 215 209 209 215 204 207 211 207 206 208 202 208 212 211 201 199 196 189 181 173 166 159 144 114 60 24 27 37 47 40 16 22 44 41 25 34 42 46 49 56 94 135 161 181 190 200 205 212 218 219 223 223 228 232 233 237 237 232 223 221 228 232 225 223 221 222 225 221 220 210 206 203 199 198 198 210 214 226 236 242 232 221 215 190 178 168 171 175 182 192 199 208 212 208 211 210 211 210 212 212 212 212 211 209 208 208 201 197 194 189 182 171 161 156 140 108 37 29 36 48 35 43 9 30 41 37 34 28 46 53 50 41 86 115 154 174 184 198 204 209 215 217 222 221 227 230 233 239 237 233 231 233 232 233 227 226 226 229 225 217 219 210 207 203 203 202 203 208 214 223 234 238 233 225 215 194 183 166 170 174 182 191 197 204 208 210 213 211 211 210 213 216 217 216 211 211 209 208 204 197 190 180 175 166 156 149 129 105 21 34 37 32 49 33 51 33 54 37 36 31 72 73 63 32 76 107 140 176 179 190 197 205 211 212 215 215 223 224 230 240 237 235 237 236 229 227 231 230 229 226 224 224 219 210 208 204 208 203 206 211 224 231 242 242 234 229 218 200 188 170 163 169 179 190 195 201 208 211 209 211 212 212 216 216 216 211 215 207 200 196 196 189 183 176 168 160 152 138 116 100 12 31 35 40 55 22 42 24 72 32 29 55 79 92 90 76 71 96 135 159 173 183 190 198 207 208 212 217 225 230 225 235 237 233 232 235 231 234 231 235 234 228 225 223 215 210 201 200 198 202 206 212 222 226 235 239 236 224 214 207 189 171 160 168 175 188 198 201 211 207 209 214 212 213 218 209 213 215 209 206 203 200 192 183 175 167 164 152 144 128 106 96 38 53 42 56 60 29 39 76 57 24 36 65 92 96 99 86 74 78 128 148 165 178 188 193 199 203 211 210 216 222 226 235 239 238 235 235 234 235 234 235 229 222 220 221 217 211 200 197 197 196 203 214 226 234 235 241 239 228 220 210 193 176 158 159 163 180 195 198 210 208 208 211 211 212 218 212 207 207 204 200 199 195 185 178 169 162 159 146 135 116 95 74 37 48 66 47 52 23 61 64 63 24 43 59 97 103 91 110 79 70 114 137 155 171 185 188 194 202 206 209 217 222 229 228 225 234 234 231 235 229 235 236 229 227 228 222 220 211 193 191 200 196 204 213 224 235 239 241 239 223 212 208 195 178 159 154 154 174 195 199 205 205 202 210 212 214 213 210 211 205 203 201 198 192 182 174 164 159 150 139 133 112 94 59 48 51 73 48 26 41 58 79 68 30 50 82 98 97 129 98 88 59 108 127 154 164 173 188 193 197 201 207 215 215 219 223 227 227 223 234 233 234 236 231 224 221 231 226 214 202 187 197 204 201 203 215 226 234 241 241 237 227 212 205 198 174 154 166 155 163 193 203 207 210 205 207 211 209 211 208 207 207 202 201 190 188 172 172 163 152 144 133 122 108 85 44 54 46 74 69 37 35 75 85 63 31 41 79 100 112 135 115 151 52 93 114 138 153 166 181 189 195 203 203 207 211 212 213 220 227 228 231 228 230 227 230 229 228 222 217 204 186 187 199 199 197 202 214 223 234 237 241 239 230 206 197 187 170 155 168 171 159 182 199 202 200 206 203 204 208 212 208 205 204 198 197 191 187 171 164 157 149 140 125 111 92 90 48 52 37 128 76 37 36 84 80 65 33 28 68 93 98 122 109 176 82 94 112 131 147 160 175 186 188 196 199 204 206 210 211 214 219 225 227 223 228 227 222 220 225 215 216 206 181 196 195 194 194 194 203 212 231 230 236 226 215 200 182 175 150 144 158 158 152 173 199 204 205 204 206 214 205 203 204 204 199 194 192 187 176 169 161 151 141 131 119 105 89 88 34 71 85 96 47 28 46 78 92 58 32 28 41 107 87 146 204 123 148 130 103 117 133 153 165 175 181 189 191 198 199 205 211 215 212 224 226 224 221 222 219 215 217 212 204 201 178 192 192 191 176 173 187 198 205 215 216 206 193 178 162 137 113 119 138 155 150 173 192 197 199 208 207 205 207 207 210 204 197 195 189 183 171 160 154 144 132 121 110 98 87 72 17 51 127 32 53 32 67 91 75 35 22 30 25 52 128 68 151 139 171 90 109 116 126 144 157 169 177 186 188 195 200 203 202 212 211 213 216 219 227 222 221 218 215 211 207 209 195 183 177 168 155 132 148 162 177 188 190 186 165 138 112 82 70 80 106 122 122 165 188 193 191 200 198 202 203 203 203 194 189 189 185 181 169 155 156 139 131 112 99 86 68 43 68 76 49 79 32 43 57 68 76 35 30 40 37 13 62 125 149 97 89 76 91 112 122 136 151 160 173 185 185 192 194 201 205 206 205 209 212 211 212 213 215 214 212 208 211 216 198 156 155 141 115 114 116 132 154 165 163 148 118 81 81 81 85 81 78 75 82 174 190 201 197 203 199 201 197 193 189 194 189 185 179 173 164 155 146 131 114 96 88 80 79 24 48 38 53 26 34 45 63 65 53 62 40 39 33 38 23 30 77 104 87 38 53 106 115 121 144 159 167 177 185 190 192 195 200 204 206 210 210 212 210 215 217 216 205 216 220 209 213 127 118 101 88 14 11 125 121 127 121 115 87 82 53 10 20 58 78 85 31 180 192 195 199 197 194 199 198 197 191 192 182 183 177 165 156 147 141 127 110 90 82 80 81 21 28 27 62 26 41 46 57 53 37 76 34 35 39 39 22 26 27 7 15 15 13 104 106 110 126 145 160 169 179 184 190 192 197 200 200 205 206 208 210 211 210 210 214 220 224 222 236 186 91 107 63 52 38 19 99 98 100 85 87 44 20 32 46 48 40 26 78 186 193 199 200 200 194 196 189 191 186 186 181 174 165 164 154 144 132 119 92 82 76 73 68 8 20 17 17 29 42 38 51 74 53 76 24 35 46 33 40 27 16 44 15 15 12 125 100 113 118 137 154 161 172 179 185 191 194 196 194 201 211 209 215 215 214 218 216 222 219 228 224 223 168 85 80 72 84 83 32 81 90 78 44 40 50 51 48 62 76 114 154 187 201 196 195 195 194 192 195 186 180 181 175 166 161 154 144 134 121 106 85 76 76 69 58 12 19 10 26 37 32 43 40 66 68 86 37 35 36 48 38 33 31 21 24 20 18 83 96 105 115 125 143 155 164 175 183 184 189 195 198 201 198 204 201 207 209 214 218 222 223 223 225 229 222 201 179 162 147 140 116 58 49 59 60 67 73 84 90 111 137 156 191 196 196 204 197 194 196 190 190 184 181 175 169 166 158 150 142 127 111 93 82 74 75 77 47 18 19 24 30 33 40 45 72 30 56 69 83 40 32 54 34 31 30 26 29 22 23 55 112 105 110 115 130 145 160 171 179 184 189 190 194 198 198 202 204 206 211 215 216 219 222 224 227 224 224 222 217 210 192 180 164 134 87 79 83 96 109 122 141 150 172 187 205 205 203 204 198 195 190 186 182 173 174 169 163 158 150 143 129 117 99 84 75 76 74 75 28 17 19 21 32 27 33 45 67 53 50 53 51 28 51 41 36 31 29 33 23 33 14 12 123 106 107 106 118 133 149 160 169 173 180 187 191 194 198 200 205 201 207 213 216 220 221 227 227 222 222 222 223 212 204 196 192 160 128 114 127 148 153 159 169 181 194 199 203 206 204 201 196 193 185 183 173 172 170 163 158 152 144 135 118 106 91 77 71 76 71 74 18 17 27 27 27 29 36 87 28 66 72 78 32 37 39 35 43 22 34 29 30 22 34 13 113 110 111 112 113 122 139 151 164 172 180 184 188 192 193 199 200 200 208 214 216 219 220 224 226 224 223 225 222 221 212 206 210 182 162 158 161 172 181 182 184 192 197 193 206 200 198 199 194 186 183 178 175 167 164 159 153 146 134 127 108 92 81 75 71 71 73 68 15 26 27 25 30 31 50 53 59 43 80 100 38 43 38 39 39 33 24 27 30 17 28 32 77 102 116 121 116 116 130 144 157 163 173 181 186 189 188 190 192 199 206 210 212 214 215 220 223 223 223 220 221 215 214 209 208 195 189 189 188 195 202 201 199 198 199 203 199 204 196 192 189 180 177 173 169 163 158 152 146 138 123 113 101 84 75 73 73 73 74 61 15 18 27 25 30 42 77 43 48 21 50 75 44 54 36 47 34 41 30 31 27 34 23 21 19 124 113 120 126 119 124 140 150 158 167 174 180 183 188 193 195 197 202 204 207 209 209 216 220 220 221 223 219 216 215 214 218 210 209 210 211 212 214 208 200 197 188 192 198 186 189 182 181 168 165 166 167 156 153 147 144 135 113 102 89 72 72 72 73 76 73 55 17 22 24 32 36 62 41 59 46 83 87 67 36 41 24 39 37 40 32 29 31 27 25 26 4 125 119 124 126 132 125 128 145 152 162 172 175 179 180 186 189 191 194 194 199 207 208 208 212 217 220 214 214 199 204 209 230 206 182 186 196 210 214 203 192 188 191 200 192 188 190 178 169 159 151 160 159 158 152 145 137 131 114 105 85 73 75 75 77 77 70 47 16 20 27 36 44 54 51 37 34 65 112 107 30 42 34 36 46 33 40 29 31 36 24 23 10 96 114 116 128 130 133 123 139 152 161 170 174 179 180 183 185 186 188 188 193 199 205 207 211 198 210 197 194 188 176 179 163 168 200 224 199 155 150 139 143 158 170 163 174 189 183 174 164 149 137 145 142 155 152 146 136 126 114 99 84 78 79 79 82 79 67 35 20 20 29 41 61 48 43 49 33 54 55 67 34 36 53 43 32 40 48 30 28 27 31 20 24 44 111 124 128 141 141 134 142 154 160 163 168 175 175 177 179 179 179 180 181 188 195 197 198 202 181 174 158 150 152 146 143 143 111 142 118 127 127 131 147 143 134 135 153 154 153 167 156 138 114 119 150 152 151 149 137 125 115 102 86 84 81 79 84 75 60 19 18 21 35 49 42 61 56 6 93 97 102 44 26 58 39 74 34 41 40 34 30 28 29 27 25 19 113 128 140 135 148 146 142 152 157 165 168 172 174 178 179 177 169 165 172 175 185 174 179 177 155 133 137 138 141 124 119 106 148 111 113 107 113 131 117 93 94 88 86 90 97 111 129 114 86 99 142 153 154 141 136 129 112 99 92 86 85 85 80 70 68 14 18 33 40 60 52 54 19 48 53 84 81 44 31 70 22 67 44 42 23 38 34 24 28 32 20 26 92 108 120 139 147 146 145 154 160 167 168 174 175 178 180 178 164 156 159 158 159 148 126 110 96 98 91 121 103 106 59 86 97 82 63 71 69 81 89 89 77 58 51 47 49 47 50 62 73 77 158 157 152 142 137 131 116 99 91 89 89 86 82 71 56 11 26 34 53 39 70 30 48 75 73 74 63 40 54 64 32 50 38 41 34 39 28 31 26 29 20 33 58 101 125 136 142 153 143 151 158 166 167 173 176 180 181 178 157 136 117 111 107 83 68 56 59 61 56 37 50 51 46 56 26 32 29 40 42 40 29 48 34 23 35 36 43 34 40 38 45 97 166 162 153 143 133 129 115 98 89 92 90 87 79 71 38 21 28 39 46 71 35 35 55 53 91 80 54 32 65 57 37 40 40 40 35 37 26 30 28 30 17 33 25 97 116 130 134 149 148 151 157 164 175 173 175 177 178 172 159 101 79 64 69 48 42 21 9 11 13 20 17 58 60 54 56 42 56 62 49 33 22 12 9 5 6 8 14 13 20 25 58 162 165 163 152 142 135 128 113 97 97 92 89 85 78 70 21 24 33 52 59 43 40 42 56 30 110 79 20 44 45 59 25 36 45 37 38 31 30 35 26 27 25 20 25 64 113 129 131 146 148 150 154 168 171 178 177 176 175 182 174 144 36 25 13 14 16 13 13 9 10 14 8 11 12 6 13 7 13 8 15 18 24 24 33 36 51 52 49 33 45 59 130 174 171 159 147 136 131 124 107 101 92 94 91 84 75 70 12 27 45 49 54 34 43 55 20 63 76 54 42 47 48 61 50 29 40 38 45 37 29 31 27 34 19 23 28 32 102 111 124 145 150 149 150 157 168 170 172 173 174 179 181 185 170 160 124 109 113 154 159 150 155 140 134 131 141 137 132 125 117 127 119 125 107 112 136 117 114 105 90 89 94 123 159 164 163 151 143 136 128 123 107 105 87 96 84 82 78 45 22 37 49 47 39 46 66 32 44 91 42 28 33 51 37 65 72 31 45 35 47 38 32 29 34 27 25 31 31 29 76 99 125 139 147 149 139 147 165 163 171 175 185 184 193 200 210 181 161 148 135 137 127 173 171 158 175 167 170 159 153 163 200 175 188 174 180 141 151 131 105 124 121 109 112 139 157 164 155 149 140 132 128 115 104 96 93 89 85 79 71 17 27 44 34 56 43 67 36 33 54 93 36 34 37 50 36 95 47 34 49 48 38 34 43 32 31 26 32 25 38 34 29 97 115 123 140 150 142 147 151 164 165 173 171 177 188 194 211 191 170 154 159 143 130 120 138 136 155 149 205 150 159 165 163 142 145 182 138 139 126 123 111 141 111 100 136 154 156 159 150 145 132 122 119 107 98 93 92 90 85 79 56 18 39 37 46 50 61 44 42 31 88 57 37 22 32 52 42 104 30 28 31 61 64 40 47 21 28 34 30 35 41 30 19 81 100 122 138 146 140 145 154 151 163 166 173 174 184 192 206 189 180 162 144 142 138 133 108 138 125 125 134 120 146 140 141 144 126 146 126 107 112 100 127 84 86 114 135 155 153 149 142 135 127 120 109 102 95 91 91 91 82 78 19 32 37 37 51 59 62 52 22 57 89 41 31 32 37 48 37 78 36 37 39 90 54 29 39 39 49 42 26 35 44 38 37 38 93 112 132 139 143 147 152 152 156 162 168 173 183 195 192 187 172 159 157 131 128 150 158 114 115 117 115 113 130 125 135 119 114 110 105 105 111 110 63 80 100 116 137 152 151 146 137 130 124 115 104 94 94 90 89 84 79 60 20 29 35 45 43 82 43 32 36 77 58 35 38 31 44 57 54 55 37 38 54 39 30 36 35 31 28 33 37 36 45 44 32 33 66 102 126 136 138 144 151 152 158 163 170 172 178 181 186 189 180 160 148 140 118 97 106 121 123 118 113 123 117 122 125 117 116 118 105 90 64 66 70 89 110 124 138 146 144 139 130 125 118 109 97 93 90 89 86 77 88 12 25 30 39 41 74 37 45 17 56 89 21 38 36 38 58 72 72 53 33 41 39 36 43 37 39 46 23 41 30 42 42 42 30 32 20 89 110 127 129 137 146 147 154 160 161 166 170 177 177 185 178 176 160 143 137 116 102 99 98 93 98 98 95 88 87 80 75 77 77 79 78 74 77 94 121 133 138 138 134 128 120 118 112 104 90 90 85 86 87 81 48 19 27 35 37 54 47 57 15 34 63 78 21 29 32 28 43 59 41 51 35 41 43 48 42 46 39 46 30 37 29 39 36 35 33 34 9 56 97 115 130 134 141 144 150 156 160 165 171 167 179 179 182 183 175 167 154 129 110 94 85 77 71 67 63 60 59 61 68 72 75 75 72 73 87 107 127 139 136 131 126 122 115 111 104 97 88 87 86 80 87 75 24 26 31 30 39 48 54 33 27 34 64 40 42 41 23 55 43 47 41 76 37 47 35 53 34 49 42 45 47 40 37 42 38 39 29 40 11 41 84 102 116 127 134 141 149 154 161 164 161 171 171 176 179 185 183 180 176 161 147 118 98 82 73 73 70 67 66 70 66 70 75 79 84 92 106 125 134 137 133 131 123 116 106 103 100 94 88 85 85 82 76 25 23 31 29 30 45 39 41 22 45 51 66 23 43 41 33 41 47 51 47 47 54 46 36 55 37 51 44 41 54 31 39 46 29 39 30 40 13 41 74 86 103 115 127 136 145 150 161 162 169 169 170 172 178 184 184 182 177 171 162 151 134 122 107 99 92 85 80 81 91 94 97 102 104 110 127 131 135 137 133 130 122 119 112 104 96 88 88 84 85 86 43 29 26 31 34 41 33 49 23 34 35 54 58 32 41 34 42 34 50 48 61 45 57 57 35 52 42 47 42 29 79 38 47 38 24 26 37 31 12 31 78 69 95 104 119 128 140 147 155 166 172 165 170 172 173 181 180 183 185 180 175 178 169 163 158 152 149 140 143 141 139 136 137 134 138 136 142 144 140 142 132 122 118 113 107 101 86 90 85 87 83 55 20 29 30 33 34 44 42 29 29 33 43 59 31 35 42 30 50 32 55 40 57 39 70 38 52 45 48 40 43 50 39 66 43 38 34 35 35 37 14 18 91 66 75 99 107 116 130 141 152 165 165 174 170 171 171 179 183 190 195 200 199 200 194 195 194 189 189 197 187 187 186 176 167 161 163 162 156 152 143 141 129 123 118 108 97 95 86 87 85 88 60 17 32 33 31 33 35 25 48 24 30 31 44 59 25 31 47 36 56 37 38 74 48 43 82 47 43 52 54 40 38 55 43 77 36 35 40 46 34 37 17 13 94 82 61 78 94 113 124 133 143 149 161 168 166 173 177 182 187 194 199 208 210 215 213 217 214 217 212 204 207 204 192 193 191 177 171 165 166 159 149 140 126 125 110 99 88 89 84 83 88 57 17 31 28 29 31 35 37 33 33 28 31 36 40 53 33 29 51 37 44 65 54 40 56 48 75 63 51 49 48 42 48 62 35 87 33 40 44 38 26 43 17 12 101 92 75 62 85 94 110 124 139 144 155 165 168 175 175 183 187 196 205 209 214 208 214 209 216 211 213 207 205 205 208 202 201 188 185 175 167 150 146 139 127 111 96 89 88 85 84 94 51 23 27 31 31 31 37 33 29 40 33 28 34 42 50 33 38 37 54 36 43 56 49 64 73 62 70 64 56 66 42 58 35 56 52 92 64 48 34 55 29 37 14 12 101 99 87 68 58 82 106 98 118 127 138 150 160 170 174 179 190 198 209 208 217 211 212 217 206 214 206 211 210 209 205 204 187 188 184 174 164 152 133 128 116 104 89 82 84 87 93 29 22 31 33 32 32 33 29 40 34 36 31 24 37 35 54 26 36 37 54 44 46 51 60 46 50 95 76 82 60 83 49 64 48 64 50 57 73 39 23 50 35 41 20 8 102 105 95 84 69 59 82 111 107 114 124 135 144 159 166 171 183 187 194 202 199 207 209 211 206 204 200 198 197 197 199 202 188 181 175 169 161 143 126 115 99 82 86 80 89 66 28 38 33 32 35 31 32 32 31 35 36 41 28 34 35 38 48 40 47 43 48 48 71 58 48 60 44 98 81 72 58 68 46 67 53 52 53 36 84 35 34 56 45 30 19 12 109 103 103 92 78 68 62 64 109 121 108 122 135 150 159 166 173 179 175 190 194 198 203 209 195 194 192 191 194 198 190 187 181 172 166 158 146 131 116 98 94 80 89 81 50 40 38 37 35 35 35 34 28 31 37 33 29 36 24 31 38 39 38 35 38 38 47 68 47 59 47 59 29 115 61 66 84 87 43 73 78 62 58 43 72 32 50 50 44 27 17 31 103 103 107 97 85 76 74 59 54 89 129 113 112 135 146 157 162 168 175 178 188 189 192 189 188 184 184 180 183 182 178 174 169 164 157 149 132 113 101 89 84 95 70 40 45 44 42 40 39 39 40 34 29 34 38 36 35 31 24 29 40 49 32 36 44 41 46 64 43 53 46 55 78 107 50 71 102 100 40 74 99 55 58 69 45 40 46 57 46 19 18 62 103 112 118 105 94 86 75 70 66 52 50 93 127 118 127 133 146 155 162 172 181 175 178 182 175 172 175 175 178 173 167 161 157 150 142 133 112 101 86 94 81 33 42 48 44 47 46 45 45 44 44 34 29 37 41 36 43 32 21 30 36 51 35 41 43 50 56 63 43 52 49 56 87 139 58 90 132 85 53 99 125 44 47 76 20 51 32 67 44 25 15 104 114 117 121 115 101 93 81 73 66 64 63 54 58 100 137 124 125 140 150 157 166 164 162 167 165 159 156 164 159 155 156 150 146 137 123 117 103 94 96 56 47 44 47 48 49 52 51 47 48 46 45 35 35 32 29 39 36 33 23 29 48 49 34 42 45 66 43 54 50 51 55 53 102 109 66 93 149 120 62 130 126 31 59 78 11 62 43 46 37 39 19 125 123 126 128 128 115 104 92 80 72 70 67 61 68 53 55 107 132 118 126 137 136 149 147 152 153 147 143 152 152 144 141 130 122 112 110 94 99 86 39 49 50 46 49 51 51 56 56 55 53 50 48 33 34 29 29 34 38 35 22 29 49 43 37 48 50 56 46 51 56 54 55 54 73 89 50 110 126 137 76 129 134 34 66 76 26 50 39 46 44 40 47 136 131 131 129 131 126 114 100 91 82 76 69 66 63 62 61 52 62 106 129 125 126 131 129 134 135 132 133 134 129 129 123 118 116 115 111 98 54 42 60 49 48 52 56 59 59 60 63 62 59 56 54 36 36 35 33 41 37 36 25 32 47 46 36 46 75 45 45 46 60 49 62 55 82 85 32 111 91 136 86 128 137 32 76 84 19 49 47 36 47 15 99 144 131 136 136 136 133 121 111 95 88 86 76 73 69 64 62 62 63 64 60 94 128 142 135 127 126 123 122 122 126 131 125 127 123 100 60 45 50 51 50 52 56 57 60 66 67 64 67 65 65 53 53 35 36 35 33 39 40 39 26 32 46 46 39 70 53 57 44 51 53 42 65 59 47 92 48 89 91 87 92 115 118 17 91 80 23 40 47 47 41 25 140 143 135 137 143 137 137 129 120 107 100 92 86 82 73 68 65 62 64 65 66 67 55 58 76 101 105 107 110 108 100 90 84 70 47 51 56 56 51 48 53 57 59 62 64 68 70 73 75 70 69 55 54 36 36 35 33 42 33 47 21 38 43 40 37 64 58 51 61 56 52 54 59 75
