P2
# Generated by OpenCV 4.2.0
92 112
255
146 112 80 65 64 61 57 50 54 45 50 56 47 46 46 48 49 48 46 50 52 50 61 78 72 68 60 63 72 78 89 66 75 84 79 78 74 79 75 83 78 88 80 105 114 112 95 66 79 104 72 69 60 54 56 61 68 68 97 69 55 61 60 84 65 71 115 115 120 104 112 88 111 103 104 116 119 117 92 87 70 76 87 107 115 118 119 89 83 109 117 108 117 92 68 57 53 49 45 39 37 33 50 40 46 52 63 63 67 69 68 81 75 76 82 82 82 76 73 67 56 81 78 73 72 83 84 79 69 73 71 82 86 97 79 80 90 113 109 75 66 97 96 71 67 62 60 56 59 62 81 82 50 65 64 64 85 78 70 104 123 107 107 94 94 107 99 108 117 119 94 99 93 82 82 98 119 123 133 127 118 112 130 125 103 69 47 43 48 36 39 40 37 28 54 41 52 62 69 82 91 94 96 105 114 100 110 108 100 97 89 79 66 50 58 66 64 67 72 78 69 68 72 78 75 87 103 92 86 82 114 104 60 71 99 75 63 75 62 48 53 64 69 91 47 52 53 56 75 105 89 77 111 115 105 112 92 111 105 104 112 123 106 94 101 85 83 91 95 123 124 141 135 144 144 166 80 51 34 47 50 34 39 32 30 39 48 50 76 92 97 105 113 118 123 128 137 130 127 122 115 111 101 93 87 71 51 61 70 70 64 67 78 81 64 51 61 66 80 94 112 81 83 111 90 62 83 88 66 71 70 52 52 60 60 81 72 52 36 51 60 87 82 69 64 118 119 111 107 89 117 102 116 113 129 89 95 71 80 88 92 108 107 144 127 110 70 94 64 44 39 33 29 36 21 15 12 37 47 71 97 108 120 132 141 137 140 144 149 147 140 136 134 129 119 113 100 88 75 63 62 66 66 67 67 77 80 77 66 74 85 80 90 95 87 81 100 85 61 95 81 66 72 59 46 47 66 69 93 64 29 46 60 70 78 85 73 99 119 101 106 104 94 110 92 133 123 123 78 86 60 81 94 98 108 127 126 128 111 109 49 42 34 26 24 24 26 26 34 56 65 85 107 121 128 138 152 151 157 154 154 155 152 148 143 143 139 132 120 107 101 87 76 70 74 77 73 77 80 82 90 65 52 71 79 96 97 85 86 96 80 74 92 77 68 65 52 49 59 67 79 75 38 41 52 76 80 78 102 79 95 118 107 112 98 119 97 127 131 134 111 93 69 70 100 94 96 107 93 107 115 97 49 28 29 20 17 17 21 34 41 59 75 98 110 132 143 154 156 156 163 164 165 164 164 160 157 159 157 149 147 137 123 120 110 98 82 78 82 79 81 84 73 81 73 59 62 76 79 98 64 76 92 68 95 79 57 74 60 63 52 61 50 79 45 50 36 60 80 92 73 102 87 98 116 105 110 95 118 113 126 124 137 104 90 78 97 90 94 102 94 103 101 97 34 27 31 16 20 21 15 21 37 65 85 111 125 142 148 156 163 166 167 169 170 169 171 167 167 168 166 158 161 162 146 142 137 129 111 93 73 69 69 54 60 58 62 62 61 71 65 66 100 72 67 82 84 80 64 71 68 62 55 51 41 78 46 35 49 46 74 89 73 87 97 92 117 116 108 98 105 114 108 127 135 132 124 94 87 90 100 92 97 102 94 103 26 31 17 22 20 16 15 33 48 72 105 121 137 146 153 157 168 168 171 172 172 172 174 172 172 176 174 168 170 171 171 164 155 156 147 130 119 101 81 64 58 56 55 58 57 63 65 54 49 79 62 74 80 79 69 66 80 65 52 50 47 62 80 29 34 64 67 72 86 80 91 93 88 113 117 108 117 119 113 116 125 129 112 101 72 92 95 81 91 103 100 87 26 32 20 16 14 9 24 38 56 81 119 132 149 152 159 163 167 167 171 176 176 177 179 179 181 184 179 178 180 184 183 184 182 186 183 180 170 164 153 135 113 88 73 61 51 47 59 49 55 52 59 49 69 79 76 68 71 76 59 50 57 53 82 48 29 62 46 62 78 83 85 100 95 106 124 109 110 98 116 122 123 134 122 110 73 87 84 84 98 100 108 91 29 27 19 7 12 19 31 39 72 104 131 140 152 157 161 167 172 174 176 180 180 180 182 182 185 189 185 181 184 186 190 193 194 192 194 194 191 194 190 178 175 159 137 107 73 49 45 55 59 51 44 51 58 79 72 76 66 70 77 58 58 53 77 65 42 52 45 57 67 88 85 100 100 88 118 116 96 96 89 120 125 130 134 110 104 86 77 82 97 83 109 99 34 19 12 15 14 22 27 38 92 116 142 148 156 163 163 168 174 178 177 180 182 180 184 186 188 190 187 182 190 191 196 195 197 198 198 204 202 200 203 199 199 194 188 177 143 104 77 57 54 48 45 43 51 65 59 71 75 68 75 68 50 51 59 87 51 53 58 60 60 78 94 97 93 77 88 113 108 113 97 89 115 121 137 130 117 95 66 92 90 101 88 106 28 29 15 17 10 16 23 60 106 134 142 150 159 160 168 174 176 178 179 184 186 186 186 187 186 188 188 188 193 197 201 202 200 204 205 209 208 208 208 205 209 209 203 203 199 186 156 113 71 45 32 40 40 64 64 68 82 70 76 70 51 61 52 84 52 17 43 59 55 55 84 94 91 83 77 111 110 114 128 101 117 128 145 139 118 97 68 91 84 96 89 102 23 18 5 8 10 17 28 81 124 136 144 156 162 165 171 178 180 183 184 188 189 188 188 190 190 187 189 191 195 203 204 207 205 208 208 214 215 212 212 213 212 208 210 212 213 210 204 189 162 100 48 27 36 55 52 67 81 75 69 71 56 61 62 69 69 23 35 53 45 54 73 94 90 89 83 86 126 107 110 129 117 125 133 119 125 109 85 83 99 84 97 103 21 14 5 11 16 15 38 94 123 141 151 159 166 172 176 181 185 185 190 192 193 190 192 194 192 190 186 189 194 206 207 205 210 206 205 212 211 217 219 215 217 216 217 215 215 215 215 211 207 192 141 70 28 53 51 60 61 79 70 72 72 65 69 65 80 32 33 43 44 53 80 69 91 93 92 73 103 123 101 123 111 110 116 112 117 122 103 71 86 88 89 98 16 12 2 19 16 14 50 106 138 147 150 163 169 176 180 182 185 184 192 194 196 195 193 191 193 196 200 197 197 204 207 208 209 207 211 215 216 218 218 216 219 219 218 219 222 221 221 218 219 213 203 168 106 49 53 56 58 62 74 64 68 60 71 61 74 49 31 34 44 54 70 64 77 94 97 75 83 125 115 109 122 110 119 120 116 120 114 95 83 102 84 93 17 9 7 17 17 19 73 115 132 142 152 164 167 175 181 180 185 188 195 197 195 197 195 195 196 197 197 196 201 208 211 211 211 211 212 216 218 220 218 218 220 222 223 222 222 225 223 219 217 214 205 194 176 114 71 42 75 57 72 62 66 52 63 65 67 67 32 43 35 54 68 52 76 83 87 81 63 117 125 106 115 124 109 106 113 111 114 90 75 104 96 101 17 7 12 12 9 32 88 123 134 142 160 164 172 178 183 187 186 187 194 198 198 198 197 195 194 199 196 198 205 211 213 210 212 212 211 215 219 217 217 218 219 224 226 221 222 221 224 222 222 218 209 196 185 157 99 54 58 63 53 71 66 49 62 67 56 72 37 41 37 54 70 65 68 75 67 92 77 89 116 112 99 124 116 94 110 115 113 110 75 87 86 83 10 11 12 9 10 41 93 128 139 145 162 165 169 176 182 186 186 186 194 198 196 197 199 198 198 197 193 198 207 209 207 210 209 209 212 218 218 217 219 222 220 223 228 225 224 227 226 224 224 221 217 204 190 180 139 88 52 66 55 70 52 47 56 67 46 65 43 36 38 56 65 66 64 59 73 90 81 92 110 113 103 104 125 105 104 110 106 103 99 71 83 87 10 12 11 10 22 59 102 130 140 146 158 164 171 177 184 187 189 193 194 194 195 194 197 198 198 196 194 201 206 207 205 213 211 210 211 219 218 216 221 223 223 225 227 226 227 227 225 222 223 218 214 211 197 192 164 123 72 70 72 52 55 47 60 74 55 62 55 43 38 51 64 53 63 70 62 83 79 92 97 122 121 102 127 120 103 105 105 107 107 91 76 85 4 4 6 15 28 62 108 126 133 142 152 161 171 177 182 186 187 196 194 192 194 197 198 196 196 196 199 203 208 209 210 213 215 214 211 213 215 216 218 221 225 224 225 227 225 227 226 224 224 222 218 214 198 195 182 145 113 66 84 49 61 50 56 73 57 54 61 48 41 53 59 57 57 67 86 69 72 72 94 121 127 126 111 128 107 104 105 118 109 101 75 95 3 10 10 12 26 70 111 128 136 147 157 166 173 181 187 183 192 190 187 194 203 200 200 198 199 199 196 201 205 210 210 211 211 212 211 214 214 216 218 222 223 221 221 223 226 226 226 224 225 223 221 215 202 197 194 157 150 84 73 66 56 55 56 77 65 49 75 54 38 66 56 50 63 42 83 75 85 65 75 103 105 125 121 117 124 111 100 95 112 98 79 88 4 12 14 14 31 82 118 126 136 145 154 164 170 178 187 187 196 191 189 194 199 200 200 199 200 200 195 199 204 209 211 213 215 214 212 214 214 218 221 222 221 222 223 223 226 225 225 226 223 222 219 219 211 199 197 164 149 111 67 78 50 57 52 72 68 39 77 55 34 73 53 68 61 46 73 74 86 87 69 83 108 117 102 104 122 121 100 99 108 99 81 72 6 9 11 11 38 95 120 126 137 146 153 164 172 176 183 190 193 194 191 196 200 199 199 199 199 199 198 199 203 207 210 213 215 214 212 214 216 219 220 221 224 224 225 225 224 226 223 222 223 221 218 217 211 205 196 183 144 134 74 75 59 50 47 66 72 41 58 54 31 68 49 62 60 58 60 72 70 88 65 88 98 117 107 100 110 122 116 107 98 105 89 65 3 10 16 10 51 100 119 128 135 145 152 163 173 177 181 188 190 196 194 197 200 199 197 197 196 197 202 200 203 207 209 211 211 211 210 213 217 215 218 217 218 218 220 222 223 224 222 224 221 220 218 214 215 207 194 188 167 146 100 65 81 53 52 68 68 48 54 62 32 71 59 62 62 61 56 69 71 87 65 84 87 99 116 103 102 111 122 114 98 111 103 84 5 11 12 6 70 110 122 130 135 144 155 164 170 179 184 190 193 197 195 197 200 199 197 201 198 199 199 196 198 204 208 210 211 211 209 211 216 217 219 219 216 219 221 224 223 224 225 224 221 222 221 219 215 209 203 198 186 145 125 68 73 52 48 68 71 48 52 65 33 57 68 62 63 58 57 61 68 82 76 80 87 85 113 112 98 104 117 123 110 96 99 78 9 12 12 15 75 114 128 135 137 146 157 164 167 176 183 190 195 197 201 199 196 199 201 201 199 200 199 204 203 204 209 209 207 208 209 212 217 218 219 220 220 220 222 225 225 224 224 223 224 219 218 215 212 212 207 195 195 156 132 87 68 57 41 61 67 48 44 62 42 50 70 61 64 56 58 59 68 71 81 72 94 82 104 112 95 94 103 107 115 113 111 81 12 12 9 12 79 119 128 136 139 149 157 164 171 180 186 187 189 192 198 200 200 202 200 198 199 198 198 201 201 205 208 212 209 209 206 209 213 215 218 219 223 219 221 223 223 222 222 224 225 222 219 215 215 214 205 200 196 181 133 105 73 66 40 58 71 59 49 60 46 38 76 54 57 61 67 54 75 61 71 73 87 76 82 107 109 93 106 100 108 114 113 98 6 13 12 2 73 118 136 141 147 154 159 166 173 181 185 187 189 193 195 201 202 202 198 198 198 199 199 202 204 204 205 208 210 209 206 208 212 216 218 218 222 218 220 222 224 224 223 223 220 225 223 218 218 214 207 205 194 190 154 117 76 68 49 56 69 52 47 58 47 38 79 58 59 63 61 51 70 50 69 69 73 83 83 101 103 98 105 104 112 117 113 94 10 10 7 5 73 114 139 144 152 157 162 168 174 183 187 188 188 191 195 198 200 199 201 196 200 199 200 203 206 205 206 208 209 209 207 209 215 218 218 218 219 224 224 224 226 226 221 222 222 226 225 224 221 216 208 208 199 192 168 111 83 73 49 54 55 52 49 58 46 38 68 65 62 67 62 49 69 56 65 66 52 97 76 93 107 96 93 103 110 109 122 107 16 14 9 4 75 117 136 148 153 157 162 169 175 179 185 188 192 195 196 196 199 199 198 198 197 198 196 202 203 203 202 203 204 204 206 210 211 212 215 216 220 222 224 226 227 226 225 227 227 224 222 222 221 216 213 210 200 191 182 131 80 76 47 50 47 51 50 60 46 36 63 88 59 58 59 45 58 64 70 54 63 80 82 70 112 99 98 81 112 105 111 118 19 9 11 1 73 122 138 145 150 157 162 165 175 180 179 188 198 199 197 198 198 194 195 199 200 202 202 198 199 201 201 204 206 205 207 211 209 213 214 215 218 219 221 225 224 225 225 223 224 225 225 218 215 213 212 207 207 196 186 160 100 75 60 45 55 47 47 59 51 34 58 86 51 61 57 56 45 51 67 65 61 70 93 80 87 108 97 88 92 110 112 115 11 9 8 0 79 120 130 135 144 153 156 160 167 176 180 187 192 194 197 197 198 195 196 198 197 196 198 198 200 200 200 202 209 205 202 207 212 211 212 215 218 220 218 221 223 224 228 224 221 224 218 217 214 208 208 205 198 199 195 177 119 75 63 53 47 51 45 59 52 30 57 70 59 56 52 58 34 47 66 64 62 55 83 93 77 104 97 99 82 105 101 107 11 4 5 0 77 105 104 109 129 138 146 151 162 169 176 181 192 195 196 198 198 196 196 196 195 198 201 200 198 198 198 203 202 201 199 201 208 210 211 213 212 212 214 216 215 216 220 219 215 218 214 210 198 192 193 189 190 178 168 162 117 75 53 52 40 40 47 61 55 30 43 50 76 52 47 61 35 43 54 61 61 46 67 98 83 96 107 101 89 98 104 108 15 8 5 11 74 79 71 79 83 88 108 124 145 161 174 176 184 184 190 193 191 189 190 191 195 197 194 194 195 194 194 200 206 203 199 198 204 204 205 202 210 212 211 213 210 211 209 206 204 196 193 189 180 175 167 154 142 133 122 109 91 60 38 50 41 33 45 51 60 46 41 42 67 64 51 54 37 32 47 61 55 48 60 90 91 84 113 99 109 86 107 105 8 9 11 41 70 71 59 50 43 46 57 61 73 104 127 144 157 169 171 179 185 186 190 190 192 194 195 195 194 194 191 197 202 201 201 203 200 200 201 199 204 202 206 206 203 202 199 193 182 167 158 144 150 135 112 102 86 75 74 66 58 44 41 51 42 34 47 53 61 40 46 38 50 75 65 42 45 37 44 52 51 47 49 66 97 70 96 99 101 94 98 101 8 11 13 47 54 46 47 45 36 41 39 41 48 49 51 85 105 118 139 158 171 175 182 184 184 189 191 191 189 192 191 195 200 201 196 200 195 191 184 180 187 189 182 171 160 147 129 121 110 96 91 76 69 73 72 60 64 72 55 47 41 48 45 43 35 31 36 57 70 35 42 35 44 65 53 47 50 35 38 42 52 51 51 53 87 85 74 103 100 105 83 97 6 13 14 39 57 56 57 65 53 36 29 32 35 42 46 61 82 89 100 123 147 166 174 182 179 183 188 191 192 191 190 192 195 198 197 194 183 179 170 158 144 120 101 89 82 77 67 71 87 77 69 66 56 51 52 83 111 145 133 107 56 37 39 45 29 28 28 55 70 31 43 38 39 61 56 53 54 43 32 39 49 50 51 47 66 91 70 86 99 98 89 91 7 11 7 41 76 98 99 97 100 98 85 62 49 39 37 46 55 68 81 94 121 145 161 172 178 180 183 188 190 187 188 189 189 191 193 188 178 171 149 129 116 96 96 85 71 81 71 71 72 62 71 73 93 118 150 175 194 190 182 162 120 65 40 50 32 24 18 46 66 22 43 43 41 47 61 51 49 50 36 40 36 53 46 45 48 79 80 69 98 95 90 89 6 8 4 47 93 103 111 126 129 130 133 128 112 92 66 57 51 53 71 89 113 120 145 149 168 178 179 183 181 182 182 185 184 185 189 182 169 151 129 135 127 107 111 92 81 84 82 77 73 92 115 149 175 188 190 186 189 186 183 175 161 110 58 54 34 29 31 32 63 23 40 38 43 45 62 46 49 51 43 38 32 46 50 49 38 62 81 81 89 99 94 92 5 3 4 52 91 100 113 123 131 135 140 136 130 127 114 102 89 76 73 78 114 121 131 143 158 174 175 181 181 180 183 186 186 185 180 173 165 145 142 148 143 129 122 112 105 109 119 118 137 159 164 171 176 182 186 186 181 183 181 169 160 128 77 56 36 30 41 27 57 35 37 41 41 38 50 60 49 45 52 39 35 31 53 50 41 44 81 81 84 91 91 89 5 3 1 47 78 91 109 115 125 128 132 135 135 134 133 130 119 108 98 93 98 106 116 133 152 163 171 178 183 185 185 182 178 184 181 169 164 155 156 149 145 135 132 128 127 131 134 155 164 162 164 170 169 172 171 171 177 178 176 171 155 131 83 53 37 27 37 35 51 37 34 38 45 35 47 60 53 48 43 46 39 37 32 45 48 35 63 74 78 80 90 95 0 1 0 47 77 94 104 106 110 106 104 99 100 101 105 111 114 117 120 112 95 97 105 121 137 148 164 170 173 177 181 180 180 180 182 173 165 159 149 144 136 132 138 133 144 152 157 162 163 159 159 155 157 164 169 168 171 170 171 169 152 129 93 49 40 28 28 37 41 41 28 35 46 39 42 52 51 58 37 41 34 45 34 39 40 38 40 62 70 85 92 94 1 2 1 54 79 80 94 97 76 57 53 51 52 54 57 65 61 69 84 114 123 108 93 95 113 139 159 168 169 176 182 183 183 184 175 177 165 158 144 137 135 142 147 151 149 151 146 140 141 128 131 137 142 141 148 153 157 166 171 168 153 135 95 55 35 31 25 37 36 54 28 32 38 41 48 51 45 54 48 35 37 45 46 31 38 38 38 52 73 74 87 88 1 3 3 64 82 85 87 61 40 45 45 38 27 16 21 32 26 26 43 57 91 115 114 96 93 123 151 170 182 184 186 186 186 180 179 172 162 146 134 141 145 146 144 137 129 107 105 97 114 127 129 125 126 120 116 122 139 152 160 165 152 135 97 57 33 31 31 29 35 55 28 24 37 38 37 50 50 49 52 41 36 33 43 32 28 38 36 35 60 69 66 93 1 1 8 83 83 73 67 43 34 21 14 22 44 40 28 44 35 52 21 31 51 76 106 113 92 100 142 168 180 185 191 194 194 189 180 169 153 137 140 147 152 145 137 108 82 83 87 94 81 117 113 148 163 157 150 138 125 131 145 159 150 133 101 59 36 30 38 24 41 54 39 19 33 48 35 43 51 42 51 50 39 40 37 43 26 30 35 34 46 69 62 78 4 1 11 100 96 59 35 20 14 2 27 84 117 68 65 62 45 83 55 38 42 50 79 95 109 92 128 163 181 187 197 198 196 187 184 164 141 143 143 145 145 127 102 78 47 30 20 31 15 30 21 47 66 90 114 125 125 138 142 142 140 133 105 61 36 36 38 25 38 53 35 24 25 39 40 35 44 42 53 54 36 41 33 32 31 22 28 38 41 53 64 63 4 1 25 109 106 71 40 18 17 44 56 119 141 82 69 94 38 48 76 42 89 115 77 90 108 93 120 159 186 195 204 205 199 192 175 155 152 149 147 138 129 107 76 43 33 65 103 47 39 40 61 45 10 17 49 80 93 108 127 137 140 130 100 63 35 29 41 27 33 45 45 23 26 28 35 38 39 43 44 47 43 40 43 34 35 29 21 30 41 38 63 69 2 0 47 121 117 100 79 55 52 54 62 89 127 105 62 79 77 62 82 67 131 163 107 71 113 103 118 167 188 202 211 213 204 195 174 159 159 156 157 144 126 118 49 65 115 163 153 52 57 58 99 78 47 23 16 26 46 82 103 122 132 120 95 65 40 29 37 30 29 37 51 29 30 34 28 37 40 40 44 45 54 48 30 39 38 36 27 25 34 33 41 62 1 0 74 129 133 122 109 90 77 102 112 96 98 112 118 125 115 127 137 127 130 123 99 74 114 120 122 168 191 208 221 221 207 193 179 175 176 186 182 151 125 89 88 124 146 178 162 66 94 76 36 64 81 37 64 37 9 31 63 80 92 106 99 64 45 34 36 33 26 32 49 36 26 33 32 30 35 43 34 42 34 56 44 32 36 35 37 34 29 27 31 43 6 3 99 134 143 142 130 117 96 109 131 143 138 139 145 154 171 183 183 188 180 164 141 129 145 127 138 177 195 209 221 220 208 196 188 188 187 204 194 153 103 114 118 112 127 155 165 89 61 77 77 89 80 81 91 64 68 54 75 101 105 107 98 74 52 31 31 37 24 32 45 39 30 30 36 35 33 44 38 35 49 40 60 49 32 29 24 36 31 19 24 37 9 29 114 138 146 146 142 134 120 106 120 138 151 159 163 169 175 180 175 176 180 183 191 172 151 131 151 177 198 214 223 218 209 198 193 199 193 205 194 189 182 173 165 163 158 134 128 119 126 116 135 150 154 163 139 120 116 125 151 150 140 132 125 102 71 30 30 38 26 25 46 31 33 34 34 38 32 39 37 29 40 50 44 67 44 30 29 37 28 22 19 25 6 39 123 143 153 155 152 146 137 124 125 127 133 138 140 145 148 153 158 167 169 176 188 165 151 144 160 191 204 215 220 215 209 201 201 205 203 207 205 193 181 172 165 158 165 163 165 172 179 150 164 188 190 175 166 146 142 163 172 172 162 153 144 116 78 36 31 36 30 29 47 35 31 39 33 36 32 41 32 28 34 40 38 43 48 37 31 33 35 27 16 19 4 55 131 145 156 162 163 160 156 150 147 141 143 145 150 154 161 163 165 171 182 179 172 157 150 150 166 193 204 215 218 212 209 205 205 206 207 203 200 194 183 168 155 151 152 153 162 174 182 170 183 183 177 168 156 163 178 185 184 186 178 169 156 139 92 45 34 33 26 27 42 40 28 39 39 35 33 33 45 21 23 32 51 37 36 46 47 31 32 34 24 22 7 75 131 143 157 161 166 165 165 160 161 159 162 163 168 171 171 174 184 183 181 174 168 155 147 153 178 197 210 209 214 214 208 205 205 208 209 204 203 206 193 189 175 161 154 155 153 150 156 155 160 161 163 166 174 184 192 193 191 193 189 179 164 143 103 47 40 36 24 25 39 43 29 36 49 39 34 33 39 34 25 25 30 46 39 37 47 52 29 33 29 19 9 87 134 145 157 165 172 174 177 176 178 177 176 175 180 180 182 184 184 184 182 174 164 153 149 161 184 199 210 217 219 215 209 207 208 211 211 211 208 204 201 199 193 190 178 172 165 165 174 171 175 182 182 187 185 189 201 201 204 202 199 192 175 150 118 55 44 37 30 26 40 46 29 38 48 43 36 35 37 39 23 32 26 29 29 35 38 53 47 28 30 27 4 97 137 151 157 168 175 177 187 189 185 182 181 184 189 188 191 192 188 185 180 167 161 154 151 168 192 203 213 220 221 216 212 211 209 212 213 214 213 207 208 203 201 201 196 189 185 179 178 180 187 191 193 200 200 204 208 208 209 207 204 199 186 162 131 73 42 46 34 22 38 49 30 34 46 45 37 33 28 36 21 22 33 37 31 28 29 30 51 49 34 37 0 97 137 148 162 168 175 182 189 189 192 191 190 191 195 194 193 191 186 184 176 163 157 154 152 173 197 208 218 220 219 215 209 211 209 210 212 213 213 210 210 208 206 200 199 200 199 196 197 200 201 204 204 205 210 210 205 206 207 208 205 205 195 172 142 94 48 52 37 25 33 49 31 30 42 49 35 37 28 31 32 16 27 35 28 21 22 21 21 47 44 36 0 101 136 148 163 174 181 185 191 191 193 195 193 191 192 191 188 185 182 181 170 163 155 154 156 178 198 209 217 220 220 214 210 211 210 209 210 213 212 216 216 213 209 208 204 204 202 202 203 207 208 211 213 214 215 217 218 216 215 211 209 204 194 181 156 117 56 50 39 35 24 47 35 29 39 49 38 34 32 26 39 30 34 37 11 7 20 17 14 16 34 38 1 104 135 150 161 174 183 190 193 193 186 191 193 192 190 186 184 183 183 178 169 162 154 152 163 183 203 211 221 222 219 212 209 208 210 210 212 215 215 213 217 219 216 213 208 207 207 209 209 210 208 208 210 213 213 215 220 222 219 213 210 206 196 187 163 136 73 47 40 38 23 38 51 32 35 44 41 33 35 26 33 36 39 25 10 8 15 23 20 14 11 22 2 105 132 149 158 173 183 188 187 188 188 193 192 187 188 188 187 185 187 181 171 164 153 154 172 188 201 210 220 223 221 214 210 211 212 211 214 218 218 215 216 217 217 217 210 211 208 210 211 209 212 213 216 216 214 216 217 218 218 213 213 207 195 188 166 147 90 48 44 35 28 24 57 36 35 38 41 35 31 28 31 39 39 26 22 30 37 42 27 15 10 11 6 98 133 148 159 171 180 186 185 185 188 189 190 189 187 184 189 188 187 180 171 156 153 164 181 195 205 214 223 224 220 215 212 212 213 212 214 219 222 222 218 218 218 218 215 215 211 212 213 212 213 215 215 213 215 218 223 220 224 217 212 207 193 185 168 149 105 56 43 33 28 17 50 47 33 38 40 37 35 32 30 34 41 40 39 41 38 36 34 19 9 12 8 94 135 151 161 173 181 187 188 187 190 190 184 187 184 181 190 191 186 174 160 146 157 176 186 197 210 220 227 225 223 217 212 211 213 214 214 222 223 225 223 219 219 220 218 217 218 216 215 213 212 214 217 217 220 221 222 220 224 218 212 208 195 184 172 154 117 65 56 42 36 22 48 50 32 43 42 42 37 33 30 36 43 47 48 46 40 34 36 29 16 11 3 88 132 149 161 170 178 184 189 190 191 188 182 181 183 185 189 188 177 156 139 141 161 178 191 200 210 220 229 226 227 219 212 211 211 210 210 214 219 222 223 222 221 222 222 221 217 216 217 217 215 217 216 223 226 225 223 220 220 216 212 203 196 190 179 157 124 79 49 38 32 19 37 56 38 35 43 47 42 34 34 40 41 41 40 40 41 43 32 30 28 11 6 74 126 145 158 170 177 180 184 186 187 185 181 181 184 186 186 180 167 136 142 146 168 186 194 201 210 219 223 226 224 216 211 209 208 208 205 207 209 210 214 219 216 218 221 220 219 216 216 215 218 224 220 223 227 227 225 221 216 216 211 202 196 192 182 159 133 90 46 46 32 17 35 54 51 37 43 41 46 37 38 48 46 34 32 35 41 37 38 38 29 18 8 60 121 140 155 164 171 178 182 183 181 175 176 178 176 179 180 172 150 129 157 153 175 191 198 205 213 221 227 228 226 217 211 208 207 210 209 207 204 199 199 206 212 216 216 216 217 216 215 216 216 222 216 218 227 228 220 221 216 213 209 201 199 192 181 164 139 99 52 46 41 24 36 45 63 42 40 40 44 41 43 54 53 41 35 49 37 28 30 38 25 8 8 40 117 133 151 161 167 174 178 179 182 179 176 174 175 172 168 156 138 143 165 152 175 193 196 203 211 222 226 225 224 218 211 210 211 214 213 211 204 197 190 191 200 208 210 212 211 213 215 217 215 221 220 222 225 225 221 220 219 214 207 203 195 193 184 167 140 106 61 42 44 25 41 38 46 49 45 43 41 45 42 56 64 59 45 37 30 35 36 27 22 13 14 22 99 126 143 158 164 171 177 176 172 171 167 169 171 171 159 156 143 147 151 155 181 196 199 205 212 227 229 226 219 214 210 209 213 217 213 211 203 198 186 176 179 197 201 205 209 205 211 213 210 213 219 221 222 221 219 217 214 214 210 204 199 192 184 167 140 108 68 39 47 34 44 35 37 55 50 44 42 42 31 38 56 58 62 39 39 34 28 10 2 9 15 8 71 120 134 148 159 165 172 173 168 170 169 169 167 161 153 155 151 146 139 151 178 191 199 203 216 227 229 223 213 208 208 208 208 215 211 212 204 191 184 180 168 177 190 194 203 204 207 209 208 208 216 216 215 217 217 215 210 206 204 200 198 190 180 166 140 112 71 44 46 41 48 27 38 51 59 48 50 40 23 13 35 45 52 45 40 28 21 5 4 4 9 8 36 110 126 139 155 157 162 168 169 162 164 166 162 158 158 159 152 127 124 135 165 184 194 198 207 212 216 213 204 200 200 202 204 204 205 203 201 176 178 189 177 165 172 184 195 198 198 203 208 208 209 210 212 214 215 210 207 205 207 200 198 187 177 165 144 116 71 55 46 45 53 35 37 33 59 61 50 43 16 11 10 26 38 35 26 7 15 2 9 2 13 7 11 90 109 135 145 149 158 160 161 163 164 162 158 156 161 164 155 126 100 110 145 175 187 190 193 202 201 192 184 182 184 188 192 189 187 194 179 163 191 201 201 180 161 170 182 187 194 196 199 203 201 204 210 210 208 205 205 200 204 196 191 186 175 162 144 115 75 51 45 43 53 43 33 38 49 60 54 39 23 19 7 5 11 7 4 10 15 0 8 11 16 8 3 56 105 123 134 141 153 158 155 161 162 157 153 156 159 163 157 138 101 83 110 146 168 177 179 177 170 161 158 155 150 147 153 159 163 156 158 192 209 212 206 200 178 157 166 176 185 193 196 200 198 201 205 205 201 200 201 200 196 191 174 169 171 159 141 110 78 55 52 38 53 42 37 38 45 55 54 45 32 26 11 6 12 4 8 13 11 5 0 7 18 9 7 11 85 109 125 131 141 149 153 156 154 147 152 158 160 162 155 143 116 82 81 113 140 153 153 149 141 135 117 98 80 74 87 106 126 155 194 218 214 213 213 207 197 172 159 166 176 182 187 193 195 198 199 199 197 196 195 199 194 188 181 170 167 151 135 103 83 63 58 43 56 43 33 41 47 48 57 53 40 28 17 9 7 4 12 12 10 12 10 10 19 7 7 0 51 97 113 120 131 137 146 149 147 147 154 153 155 158 155 143 129 106 78 84 108 126 136 139 131 114 124 141 154 159 165 174 191 205 214 218 220 215 213 211 203 193 167 151 166 172 179 184 191 192 192 190 191 191 189 189 182 182 177 170 160 144 130 105 91 70 59 52 59 49 39 29 47 42 51 53 42 23 13 11 6 7 7 12 29 26 12 9 17 6 4 8 17 76 99 111 123 131 138 144 143 149 148 147 150 155 155 151 138 121 99 87 92 105 110 118 121 130 163 180 189 193 198 205 211 217 219 221 221 219 215 212 206 196 188 160 149 161 170 176 182 184 182 184 182 181 181 181 177 177 168 163 152 141 127 111 98 82 67 54 55 48 51 34 38 47 47 48 43 32 18 12 13 8 16 18 17 17 17 18 15 9 8 10 1 47 86 100 115 127 136 142 139 143 137 139 145 152 152 152 148 134 120 108 102 112 113 114 130 150 166 175 187 196 202 209 210 213 216 219 216 218 214 211 204 196 195 184 152 146 157 166 172 175 177 180 177 175 174 174 168 166 158 153 144 140 123 114 96 81 78 60 49 42 54 48 33 40 60 38 43 44 16 25 15 6 7 10 12 23 27 27 17 6 7 10 2 22 76 91 111 119 132 138 135 138 125 127 138 148 151 150 154 147 140 134 131 145 154 153 153 149 160 175 187 198 203 205 209 210 215 214 210 218 210 207 204 198 183 188 176 149 142 159 163 170 170 177 175 169 165 164 158 155 151 145 138 136 127 119 107 94 71 79 53 39 51 54 40 36 52 50 34 40 29 13 14 10 12 20 23 26 20 22 12 8 5 8 3 7 68 92 104 113 129 132 133 134 116 119 136 148 152 156 161 161 159 159 157 163 164 166 172 168 166 176 190 198 203 203 205 209 214 214 212 209 207 205 198 196 188 180 173 171 145 146 151 166 165 162 170 163 161 156 150 147 145 143 142 144 139 127 112 96 66 79 65 50 40 45 46 42 35 50 42 34 26 18 10 15 17 22 20 27 26 16 15 5 7 7 5 4 45 90 103 110 127 134 133 129 103 111 131 143 149 155 159 159 158 163 165 172 175 173 171 172 185 188 201 206 208 205 211 210 212 212 213 209 205 203 198 192 190 179 167 159 153 149 147 157 162 164 165 163 161 151 143 140 143 145 146 144 141 128 112 98 76 83 64 58 40 47 41 50 38 43 39 38 31 18 22 20 14 16 16 15 15 14 27 12 7 9 3 6 20 79 103 110 127 136 137 136 103 102 101 107 122 129 137 140 139 147 152 154 169 179 192 190 190 194 202 208 215 223 214 215 213 207 205 204 200 197 193 187 187 172 171 154 147 158 157 151 158 161 159 160 155 157 152 151 155 157 156 154 147 129 111 98 86 82 63 63 50 46 45 35 41 48 38 31 31 28 9 10 7 11 14 15 11 10 28 18 8 6 9 7 0 67 96 112 123 141 142 149 122 87 76 84 93 98 113 129 131 134 130 136 141 151 156 157 158 165 175 180 187 198 201 199 201 203 207 206 203 200 194 188 184 169 158 151 133 150 167 161 164 164 160 163 155 164 165 166 169 166 161 154 149 130 119 100 88 73 65 65 52 49 42 30 35 48 38 39 31 28 14 10 6 5 4 8 9 12 14 27 16 7 7 9 8 44 90 111 119 138 149 159 144 105 51 45 59 67 82 93 101 106 98 106 117 127 132 135 143 147 156 162 170 182 176 171 171 175 179 179 180 183 179 174 170 160 148 142 119 143 171 170 170 170 163 169 167 170 174 173 173 170 166 163 149 131 116 99 89 71 71 68 58 48 45 39 27 40 46 25 25 26 21 11 4 4 3 10 19 11 7 19 23 13 18 16 9 19 75 108 120 131 142 157 159 143 81 33 22 30 81 98 84 105 92 80 99 106 98 93 105 107 118 127 133 135 136 136 136 131 128 128 121 114 119 113 107 92 79 90 119 142 174 173 175 176 176 180 177 176 180 177 175 174 169 166 147 129 113 100 92 71 75 68 61 43 42 41 31 27 43 30 25 18 22 13 4 9 14 18 8 5 11 11 14 27 15 2 6 8 50 96 113 126 148 157 163 156 123 75 40 26 80 128 128 150 148 128 159 163 145 106 145 153 151 131 92 117 127 110 105 126 125 119 112 139 122 87 99 35 32 48 120 152 178 176 185 180 180 183 180 175 175 173 175 175 170 167 151 136 115 105 89 71 71 62 58 38 47 38 36 23 37 30 18 23 17 8 6 11 8 6 6 8 8 12 8 11 20 12 4 5 25 87 104 126 139 154 157 164 147 113 74 45 56 134 146 165 167 163 174 183 190 155 192 193 193 188 151 177 187 167 158 179 180 162 147 156 132 6 72 87 107 114 150 161 179 179 183 180 184 184 181 177 173 174 177 176 170 162 150 135 113 103 87 72 68 55 46 36 37 34 38 27 41 30 18 23 8 13 7 8 6 3 12 12 15 10 14 2 16 24 10 8 8 60 98 114 134 149 153 164 156 123 90 80 65 101 91 156 167 172 176 192 200 176 199 207 208 203 188 200 194 190 176 191 192 170 74 142 95 98 124 135 160 170 161 172 184 186 184 182 183 183 184 178 174 174 176 178 171 159 153 129 113 106 83 73 65 57 33 28 32 34 42 28 43 32 21 19 8 7 8 9 5 11 9 7 11 7 14 7 3 19 20 8 2 35 88 102 130 145 149 158 156 129 101 98 105 106 81 86 78 125 183 192 197 180 195 203 206 207 183 211 200 159 112 184 179 132 83 132 143 150 158 183 194 187 176 178 181 185 187 185 185 183 179 173 172 177 176 175 169 159 151 128 111 104 84 73 64 49 28 20 32 25 34 35 42 31 27 19 4 1 14 8 9 11 3 6 11 9 10 12 10 5 11 19 10 8 72 98 109 133 141 153 156 131 109 96 111 127 129 111 76 52 99 114 137 124 158 174 174 173 123 122 136 137 89 96 111 150 161 174 170 169 187 200 199 195 188 183 180 183 185 181 183 180 174 173 171 175 175 172 167 157 147 126 107 97 82 69 66 35 16 15 27 24 22 34 44 31 27 17 2 8 17 7 9 2 3 4 10 10 9 10 12 7 5 9 18 10 38 90 100 125 137 147 152 135 108 92 99 127 123 126 135 132 123 127 118 95 99 97 106 126 144 131 124 143 145 162 177 176 170 168 165 183 193 199 198 198 190 181 181 188 186 180 184 179 171 171 170 172 172 169 162 153 140 118 105 96 75 69 59 17 16 17 16 25 17 26 46 28 27 12 2 15 10 9 13 15 14 10 12 13 10 7 8 9 8 7 9 11 18 60 91 107 125 135 145 142 117 96 94 93 116 143 151 150 156 158 163 166 156 153 153 147 145 147 156 174 199 193 169 172 166 165 174 195 197 202 201 198 191 184 181 183 186 183 183 176 172 172 172 174 170 166 159 147 134 118 102 87 75 69 38 18 27 9 6 25 21 20 45 24 15 4 16 13 6 6 5 9 6 11 17 12 10 10 5 6 6 11 10 8 3 27 69 79 107 114 132 135 117 96 80 89 108 126 148 150 154 168 181 195 163 167 171 176 177 198 204 196 185 176 158 166 157 172 185 194 199 205 201 195 191 181 183 185 186 181 177 173 169 170 171 171 165 164 155 142 133 115 95 80 71 54 25 29 23 2 4 16 23 24 53 25 20 11 14 2 4 12 10 12 18 23 18 15 12 11 7 4 8 9 8 7 6 11 59 86 94 97 111 127 113 97 95 87 98 114 124 131 141 155 155 156 148 160 167 161 170 188 171 167 161 162 155 154 170 185 190 198 205 205 201 196 190 185 183 184 183 179 175 173 171 171 172 166 166 161 149 139 126 100 87 77 65 41 35 35 10 2 3 17 15 33 48 24 23 13 2 3 1 3 11 19 26 25 19 16 13 12 6 5 9 10 15 12 5 1 21 75 96 103 111 133 135 108 107 106 96 108 106 128 132 140 148 156 145 147 142 148 148 148 153 154 153 144 154 172 177 187 194 197 200 200 199 194 189 188 184 180 178 175 170 169 169 170 171 164 161 154 143 135 117 93 84 68 52 42 40 21 0 3 1 16 10 38 36 26 15 3 1 5 10 15 26 28 23 21 20 16 15 11 6 6 9 9 15 8 7 6 5 41 83 101 106 126 135 122 110 114 116 101 104 115 126 136 141 149 142 149 142 144 143 137 139 135 145 159 172 182 181 187 196 199 197 197 198 194 189 190 186 179 174 169 167 166 167 166 166 162 155 149 136 122 104 91 72 59 59 54 29 5 7 5 1 12 19 36 29 27 4 3 8 12 13 17 19 18 21 20 23 16 17 11 7 5 8 14 12 9 6 9 6 8 65 92 98 118 133 137 123 116 115 119 115 109 101 103 103 111 112 114 116 114 117 126 137 156 170 177 176 175 183 189 197 199 197 199 196 190 186 186 181 177 171 163 162 165 166 164 163 160 150 145 126 106 91 71 60 71 75 41 6 3 2 2 4 25 39 38 35 15 6 3 2 10 10 14 25 21 19 29 24 16 16 14 10 11 12 10 8 5 6 9 9 2 23 76 92 106 130 142 130 124 126 127 126 131 134 127 127 129 130 127 129 133 139 153 161 168 168 169 177 183 188 198 204 200 197 197 192 187 183 181 176 172 167 160 161 163 162 159 158 150 140 129 108 97 77 63 76 82 49 7 2 4 3 12 21 33 41 40 27 8 5 3 14 11 10 19 12 19 37 21 24 18 16 9 9 9 8 5 8 5 6 5 5 6 1 42 83 93 118 142 143 139 137 136 141 143 141 145 146 143 146 150 153 154 155 158 160 161 168 174 181 188 193 194 193 196 196 193 189 186 182 178 176 170 166 162 160 160 158 153 148 139 128 106 92 78 60 80 82 39 7 10 8 8 8 13 19 37 41 32 17 12 8 20 22 9 16 12 13 30 11 3 22 20 18 10 7 4 7 7 10 7 7 6 5 7 6 5 56 88 108 139 147 151 154 154 153 155 154 154 153 151 149 154 160 164 163 165 170 173 181 187 191 194 197 198 196 197 194 192 187 185 178 174 169 165 162 157 156 157 152 144 133 120 104 94 77 65 71 60 31 13 14 9 5 6 6 9 20 38 29 15 16 18 3 7 10 19 14 18 29 13 7 6 23 20 19 8 6 4 10 9 8 7 6 7 6 3 7 1 18 72 98 132 151 159 163 164 167 171 174 174 177 175 172 171 174 178 177 182 185 187 190 192 195 198 200 205 202 198 190 189 183 180 174 169 165 160 158 154 149 145 136 127 110 99 86 62 58 53 33 20 27 23 12 2 1 6 11 19 42 35 18 16 10 6 4 7 20 4 12 24 10 7 7 13 26 23 23 10 6 8 12 10 7 7 6 6 3 5 4 3 2 37 86 124 147 164 166 172 176 183 187 188 192 193 192 197 199 196 196 197 196 200 201 200 203 207 206 208 201 194 187 184 178 174 168 161 158 153 149 144 138 133 124 112 93 74 58 39 35 32 22 29 23 18 9 10 6 8 21 41 31 16 12 13 3 9 8 15 7 7 24 15 3 11 8 14 29 21 23 12 7 8 11 8 7 7 9 2 1 3 3 1 1 6 62 110 143 163 168 173 180 188 191 193 198 197 197 202 208 207 206 207 207 208 209 213 209 211 209 204 193 188 184 178 172 167 161 154 150 142 141 135 127 118 101 80 61 41 19 10 24 31 29 20 12 13 16 19 24 27 34 28 12 5 10 11 3 12 12 5 4 26 14 6 10 11 10 9 34 24 19 11 7 12 8 8 9 6 6 2 1 1 6 1 2 0 23 85 129 155 164 173 180 191 196 197 198 199 199 200 205 207 210 213 215 212 213 211 210 207 201 198 188 184 180 171 164 156 149 142 136 132 124 114 104 85 66 42 17 2 4 11 38 39 26 15 27 36 29 33 32 24 25 17 6 11 13 6 8 11 9 17 20 6 9 8 9 10 10 7 35 25 16 11 9 11 10 8 7 9 5 2 1 6 2 2 2 2 0 58 118 143 163 168 175 185 191 196 199 198 196 198 204 208 210 216 215 213 212 210 208 204 198 195 185 178 167 158 152 139 131 124 119 109 98 84 62 41 19 1 2 8 17 29 40 34 28 23 22 27 30 32 24 20 15 6 9 10 9 5 10 11 16 15 9 11 9 8 8 8 8 8 34 21 15 15 11 10 9 6 8 8 5 1 2 3 1 1 0 1 1 18 93 125 148 166 177 183 189 188 194 195 194 197 200 206 208 212 211 207 210 206 205 201 190 183 175 167 156 142 132 119 111 99 89 67 54 37 13 0 2 13 18 25 26 17 12 25 39 38 38 35 33 28 22 16 9 8 10 8 4 6 11 16 16 8 11 7 10 11 10 11 9 16 32 19 17 14 10 11 10 7 7 7 4 1 2 3 3 1 1 1 4 1 47 116 138 154 161 176 182 187 188 186 187 192 196 197 200 203 203 200 199 200 197 192 179 172 165 157 138 117 103 86 75 57 38 33 20 9 9 10 27 39 35 29 20 21 32 38 40 42 39 32 26 21 16 13 12 12 13 9 9 10 10 10 13 12 13 12 12 5 8 16 20 28 34 20 15 15 8 6 5 9 6 5 1 1 0 2 3 1 0 1 1 3 5 78 121 140 143 160 167 174 178 175 177 184 187 188 193 193 194 195 193 193 188 180 167 160 146 128 100 73 59 44 31 18 16 13 13 26 26 36 36 25 23 18 27 31 35 29 31 36 33 29 24 17 11 7 13 14 10 8 9 8 8 4 6 14 13 12 10 18 28 32 30 23 37 20 12 14 5 6 6 7 4 3 2 2 2 3 3 2 1 1 2 8 2 27 84 119 134 146 157 167 166 165 168 175 180 183 183 187 190 184 189 181 174 164 153 141 117 78 43 23 23 24 17 6 1 7 12 37 41 42 32 9 8 15 14 21 25 25 33 29 22 19 14 11 12 7 10 11 8 13 11 14 11 12 14 22 18 14 21 21 21 18 23 19 38 20 11 15 7 6 7 4 3 2 2 3 3 4 4 2 1 1 5 1 3 2 32 85 113 134 143 154 156 160 160 159 164 170 170 174 175 172 170 167 155 147 126 84 39 16 16 25 22 10 1 1 6 14 18 24 20 23 29 33 36 30 20 21 25 19 17 16 15 13 13 13 11 11 8 8 8 11 13 15 17 20 15 14 14 11 11 15 19 19 14 12 37 20 11 17 8 7 7 4 2 4 4 4 3 1 1 3 1 2 6 1 3 2 2 19 63 103 119 132 139 142 145 145 148 153 155 159 159 155 152 142 125 104 50 17 10 18 16 12 4 2 3 9 18 18 15 9 5 16 16 14 23 21 20 15 18 17 14 16 16 11 7 14 10 9 10 15 17 12 12 10 9 12 14 12 11 22 23 12 10 18 11 13 34 16 8 15 7 5 3 3 4 4 3 4 2 1 1 2 1 3 7 4 5 8 7 2 4 32 66 93 107 118 118 126 126 135 136 136 131 124 115 98 58 18 6 8 12 4 1 3 4 9 8 19 24 16 3 8 5 3 1 6 18 14 8 14 11 12 16 9 4 4 8 11 8 2 5 7 8 7 4 5 7 5 3 6 9 11 10 10 16 20 13 17 37 19 9 10 8 7 4 2 0 2 4 2 1 1 1 2 3 4 7 3 8 2 3 4 1 0 5 18 31 57 64 78 79 83 79 76 71 54 32 15 5 4 7 2 3 1 5 5 15 15 14 9 5 7 13 4 1 1 10 17 7 5 7 10 9 6 6 12 4 8 9 4 1 3 7 5 1 1 1 1 2 2 2 5 4 5 13 15 14 12 19 18 38 15 7 12 10 7 4 2 1 2 2 2 1 1 1 1 4 6 2 5 9 8 3 2 4 4 2 0 1 27 42 42 42 41 33 21 12 5 1 3 3 1 1 4 9 10 14 15 19 8 6 7 12 14 5 1 3 17 22 11 5 9 8 10 11 8 7 3 6 9 5 1 7 6 4 2 2 1 2 1 2 1 3 5 7 11 13 13 8 7 10 17
