P2
# Generated by OpenCV 4.2.0
92 112
255
104 106 122 132 110 118 109 93 92 69 80 110 89 119 129 134 98 92 101 102 104 124 110 108 95 95 75 60 51 46 39 51 54 56 64 71 76 87 98 110 102 97 112 98 100 98 106 87 84 92 94 91 93 77 68 69 66 70 63 58 62 67 64 67 64 67 55 63 68 56 48 45 44 47 44 44 51 53 56 53 50 48 49 50 52 56 56 56 61 60 53 55 94 123 133 113 114 121 81 105 73 66 101 95 89 118 122 101 79 106 106 88 115 102 108 92 106 109 87 61 58 52 60 64 65 64 79 104 99 98 120 134 133 127 137 119 113 122 107 94 94 100 107 102 97 89 82 84 86 84 79 78 73 75 75 72 63 68 66 70 64 56 56 54 54 42 40 49 43 44 46 59 50 52 51 51 56 54 61 60 65 68 63 52 105 139 135 113 128 97 113 86 68 107 106 93 130 131 113 97 110 114 91 115 132 109 96 125 111 66 41 33 39 49 68 72 79 106 108 114 134 143 139 141 147 154 151 153 145 129 132 122 118 112 113 105 100 98 98 97 99 104 99 97 90 86 82 74 67 74 71 64 59 53 52 52 49 60 52 42 44 48 40 47 57 49 54 50 48 52 55 59 57 63 64 60 116 138 107 131 108 108 103 75 91 102 108 103 132 109 104 109 107 101 96 139 123 114 134 127 64 39 43 50 64 67 84 101 108 118 138 151 145 158 174 163 166 165 169 167 161 152 138 125 130 123 127 119 112 114 115 114 121 127 122 113 110 99 97 94 91 88 82 76 68 68 64 59 55 52 55 52 47 43 52 46 51 52 52 50 49 47 53 56 54 59 61 64 125 142 124 123 112 106 90 81 86 113 100 112 117 106 109 101 105 84 132 134 110 128 136 73 38 43 55 59 75 98 106 120 139 148 160 172 175 177 179 179 178 178 175 175 173 169 163 151 143 139 132 127 128 133 136 141 141 144 144 139 133 117 118 107 94 89 78 69 66 62 61 58 52 45 49 52 53 49 48 55 43 57 56 51 52 46 45 46 51 54 61 61 146 113 127 121 118 96 81 85 107 107 121 121 114 114 95 101 95 120 143 110 122 140 84 40 44 54 64 84 98 116 139 156 162 172 177 183 186 185 185 186 185 185 186 182 181 175 169 165 160 154 152 149 149 148 153 152 151 153 154 152 148 144 133 120 116 110 98 93 82 74 68 65 61 59 50 42 49 56 49 52 61 34 52 57 51 49 49 46 53 51 58 57 148 120 116 119 100 87 86 105 122 142 111 130 107 118 89 97 93 125 122 112 125 115 51 50 55 64 88 115 131 147 158 168 172 178 185 190 192 192 194 191 187 185 188 183 183 180 175 174 168 161 163 163 161 158 160 160 160 159 157 157 157 152 141 131 127 117 109 99 92 83 74 65 58 61 57 49 48 48 56 53 57 61 48 51 54 52 55 47 46 48 50 53 128 128 126 105 97 78 101 113 144 92 134 101 112 86 100 93 141 124 124 105 126 63 41 50 60 80 109 133 151 167 176 182 183 185 195 194 197 195 194 197 192 191 189 190 188 182 182 177 175 171 172 174 174 171 168 169 163 166 165 157 157 154 149 146 134 129 117 106 100 91 82 71 59 59 60 57 54 47 54 59 39 59 58 53 49 63 54 53 48 48 46 51 129 127 124 102 88 96 119 146 112 126 111 109 109 106 98 115 132 117 113 118 102 45 43 61 76 96 130 156 171 180 187 193 196 196 194 199 198 195 194 196 194 192 191 191 185 184 183 181 180 177 177 174 177 177 177 172 170 169 165 164 158 155 151 146 139 135 125 116 104 95 89 79 69 56 58 53 59 58 51 55 63 52 45 53 66 69 56 54 50 53 48 50 127 136 97 91 98 125 118 131 97 136 110 97 115 105 82 133 124 135 97 109 47 47 53 67 99 118 148 166 180 190 191 193 198 199 199 199 199 198 197 196 196 195 194 191 189 188 188 185 184 182 180 180 180 179 176 175 175 168 166 164 159 156 156 150 141 135 129 120 109 103 96 89 80 62 57 63 52 59 63 62 59 63 40 43 50 49 55 59 56 56 46 53 123 114 100 93 123 107 157 86 119 129 97 130 106 104 106 121 119 123 100 68 39 51 66 78 109 144 165 179 188 196 197 199 202 201 201 203 202 199 196 197 195 195 195 192 187 189 189 188 186 185 184 182 181 179 176 177 175 167 166 164 155 152 152 144 140 137 131 126 119 111 101 94 88 81 62 71 52 47 69 60 61 74 46 54 49 48 56 54 55 56 61 56 128 97 101 117 95 135 130 102 131 116 106 125 113 116 89 140 118 113 92 41 50 59 74 97 135 158 177 188 197 200 202 202 203 201 204 206 204 202 200 201 200 199 197 196 194 192 191 190 189 188 186 185 183 181 179 176 177 171 168 163 160 154 150 148 144 140 131 129 124 119 109 95 89 90 74 66 65 52 51 78 62 75 60 53 51 51 48 57 55 61 56 54 104 113 110 95 125 138 101 115 141 101 119 116 116 74 126 134 137 104 60 40 55 66 97 123 150 173 187 195 203 204 203 204 204 203 206 206 203 202 202 203 204 201 199 199 197 193 191 190 189 189 187 186 185 182 178 180 180 174 170 162 162 154 146 146 144 140 132 128 126 124 117 106 93 88 82 61 55 57 58 60 71 69 75 56 43 50 48 47 57 62 57 52 115 124 95 99 132 117 121 135 126 110 102 121 71 94 130 124 130 72 44 49 56 79 113 143 167 180 194 205 207 208 207 207 206 204 206 205 203 203 202 201 203 201 197 199 195 191 190 191 191 190 188 190 187 185 183 181 177 173 170 166 161 155 151 147 143 140 134 130 126 121 118 114 101 88 89 72 64 52 59 47 73 67 72 70 39 53 46 53 52 55 61 56 117 112 83 117 109 135 139 124 103 122 112 105 54 119 134 129 109 57 45 55 63 94 128 160 177 192 203 211 212 213 215 211 210 206 205 203 205 203 204 203 204 201 199 198 196 192 191 191 191 189 189 187 187 184 183 178 175 172 170 166 158 151 151 149 146 142 136 133 129 123 120 115 107 95 89 77 62 57 54 59 62 82 65 69 45 51 46 57 50 49 52 57 110 93 99 112 121 135 112 122 113 108 107 89 71 126 143 118 93 43 47 59 75 112 139 167 184 200 206 211 211 213 214 210 208 207 203 203 204 203 205 204 202 203 201 200 198 192 189 191 190 190 191 189 190 186 182 179 176 171 169 166 161 153 148 144 143 140 134 131 127 127 125 121 117 108 94 81 68 58 52 60 59 82 61 68 61 48 51 53 45 48 46 51 95 92 123 112 118 129 114 126 109 103 123 67 111 130 128 110 72 44 55 64 87 128 154 178 193 205 211 214 215 216 213 210 210 209 205 204 204 204 203 203 203 201 201 198 196 190 190 190 190 191 191 194 191 189 184 181 175 172 167 161 161 157 152 147 145 141 136 131 130 128 125 122 117 113 101 86 73 60 55 52 63 78 63 63 62 51 53 41 42 45 45 49 101 114 123 111 125 119 117 115 122 129 75 62 122 142 119 106 49 47 60 75 102 140 166 190 200 207 211 216 216 214 212 211 210 209 206 205 203 204 203 205 203 200 199 196 193 191 193 190 189 191 192 193 189 187 184 183 177 176 169 163 161 156 151 148 142 139 135 130 129 126 122 118 117 114 108 86 70 66 58 52 55 71 69 60 71 55 49 44 43 43 49 48 100 121 107 122 119 126 110 102 114 112 35 118 119 150 111 75 39 57 66 86 119 153 173 190 202 212 215 215 214 213 215 213 208 207 207 205 205 204 204 206 205 200 199 197 196 191 191 190 193 195 192 191 191 191 185 183 181 176 171 166 162 157 152 150 144 138 134 128 127 128 126 122 119 117 114 97 81 67 61 55 60 58 78 64 78 72 41 47 47 38 45 48 114 109 121 133 130 121 105 115 104 100 60 127 134 117 98 47 48 59 74 94 129 160 182 196 203 213 216 217 218 218 215 213 210 210 208 206 204 204 203 205 205 200 198 198 196 192 191 191 192 196 193 191 193 190 188 182 181 177 172 166 161 156 151 147 144 141 136 128 127 129 126 125 120 115 116 105 89 65 62 53 54 65 71 64 52 71 56 45 48 49 45 41 128 103 125 130 128 118 105 115 115 59 98 107 156 91 78 37 48 63 84 107 140 165 185 200 206 213 217 218 216 215 213 211 209 209 207 204 202 201 201 202 204 202 198 196 193 194 194 192 194 194 194 193 196 191 188 179 180 179 172 164 161 158 156 149 145 139 134 129 129 128 124 125 124 119 116 110 97 75 53 60 53 60 58 67 55 61 65 45 51 43 45 45 125 140 122 139 130 101 121 114 91 44 127 122 126 83 59 44 49 65 89 117 154 178 188 200 210 217 218 217 217 215 215 212 211 206 206 204 203 203 205 203 203 204 200 198 194 196 193 192 194 193 195 192 195 190 190 185 183 181 174 165 159 155 154 147 143 138 135 129 132 125 125 125 124 122 117 114 106 85 64 52 55 56 71 62 61 50 65 48 53 47 40 45 116 147 126 128 115 98 131 109 57 90 106 152 84 82 52 50 54 68 99 127 165 184 195 207 212 218 219 220 219 216 214 212 211 209 207 206 204 205 204 203 206 204 200 199 198 194 196 195 196 196 191 194 194 191 190 186 183 180 173 163 159 155 155 148 141 135 135 133 129 128 130 127 123 121 120 114 110 96 82 60 49 57 63 66 61 58 58 62 42 49 51 49 143 124 142 118 109 109 124 85 32 128 111 140 84 57 44 49 59 77 109 137 172 189 199 208 214 218 219 220 221 218 216 213 212 212 210 208 207 206 208 207 205 202 198 200 198 192 195 194 194 194 194 193 195 192 188 185 181 177 171 165 163 159 159 152 144 140 138 134 129 130 128 126 124 119 123 116 110 102 87 71 51 48 50 61 60 57 57 59 52 43 49 52 157 141 120 121 117 124 112 67 56 147 136 98 76 48 47 51 64 86 113 149 176 194 201 209 215 221 220 221 219 217 218 214 213 212 207 206 206 206 205 206 205 203 202 198 197 196 194 194 195 193 195 194 192 190 189 184 182 176 172 166 166 161 159 152 145 142 138 133 128 130 127 128 122 119 122 117 110 104 90 77 59 50 46 60 66 61 62 55 59 45 42 42 119 127 123 126 107 126 95 36 93 143 146 83 72 48 52 49 67 94 128 157 180 197 205 212 217 222 221 221 221 219 219 215 212 210 208 208 206 206 204 207 207 202 200 198 198 198 198 197 197 193 194 195 194 193 189 186 184 178 172 168 168 163 158 151 148 144 136 132 130 127 126 127 123 121 119 116 116 107 98 76 60 56 49 54 62 63 56 56 52 53 48 36 127 113 135 119 110 112 83 28 113 144 112 75 66 50 49 57 75 104 141 167 182 204 210 217 220 221 225 224 221 220 218 217 214 210 207 207 206 206 208 208 206 202 201 199 198 195 193 198 197 196 196 197 196 196 192 185 185 182 178 172 170 169 164 158 153 145 143 136 132 130 128 125 123 122 118 115 113 112 103 87 68 56 53 52 59 62 60 61 61 59 44 42 135 129 140 100 124 85 49 69 127 136 102 61 62 47 46 53 79 116 148 171 184 200 209 216 221 224 223 223 224 222 218 217 216 208 207 210 208 207 207 207 204 201 201 199 197 198 198 197 200 199 200 198 195 196 194 190 188 183 179 175 173 168 163 157 154 151 147 141 132 131 129 125 123 121 118 115 113 113 109 96 76 60 54 52 56 64 61 59 59 58 57 43 130 138 125 113 107 95 44 78 143 95 84 62 55 50 52 58 89 130 160 179 193 205 212 218 221 224 223 222 225 224 221 218 216 213 209 210 209 206 206 205 203 202 201 198 198 198 197 198 200 197 198 199 198 197 193 190 188 184 180 178 174 167 160 158 154 150 146 143 136 131 127 127 123 123 120 118 114 112 110 99 79 58 52 53 57 57 62 56 55 56 61 51 126 146 110 117 92 68 49 118 134 83 77 58 57 50 46 66 95 135 166 183 198 207 216 220 220 222 224 225 225 225 222 218 217 213 208 209 207 205 206 203 202 201 198 200 200 198 198 197 198 195 195 198 199 198 195 188 190 187 183 179 177 171 165 163 155 151 145 143 138 133 131 132 128 123 120 119 116 114 113 106 87 65 49 49 54 54 58 57 62 63 58 49 129 119 125 123 92 53 66 135 84 88 69 55 54 48 53 63 104 147 173 183 198 208 217 219 223 224 224 225 225 227 221 218 216 209 208 208 205 207 206 203 201 201 199 199 198 197 197 198 199 197 197 198 197 196 195 189 190 188 185 182 179 172 166 165 158 153 150 145 141 141 134 132 129 126 123 118 113 112 113 109 96 74 53 49 48 62 60 54 55 60 64 64 146 110 120 89 78 44 97 112 87 58 69 54 50 48 50 67 111 148 175 190 203 206 214 220 225 225 225 225 226 228 222 218 216 210 212 213 211 209 210 206 203 200 197 197 197 199 200 200 199 197 198 200 198 197 197 194 190 185 183 182 181 177 169 165 158 152 148 145 144 140 138 138 134 130 127 120 115 115 116 114 102 76 51 51 40 55 61 51 48 52 60 64 121 118 116 85 70 62 115 99 72 47 70 56 46 47 49 72 121 153 178 190 204 213 218 221 223 223 226 225 224 224 221 215 212 211 211 213 213 214 208 206 200 198 196 196 197 199 200 201 197 196 196 198 199 199 198 192 190 185 183 178 180 177 171 161 155 153 147 144 140 136 140 137 129 130 130 122 114 114 115 115 107 88 60 54 41 49 58 57 50 48 50 58 101 136 97 89 51 85 101 91 52 57 58 52 53 47 48 78 130 168 187 202 210 210 216 217 221 224 226 227 223 219 223 214 209 209 208 210 213 212 212 207 203 199 195 193 195 196 197 197 195 194 196 198 200 199 196 191 191 189 188 178 181 175 169 158 153 147 143 136 131 123 119 114 108 109 114 121 120 117 115 114 108 101 69 54 43 45 53 61 54 47 41 47 122 122 97 65 65 105 96 70 37 73 60 51 40 53 47 89 131 145 153 177 195 195 201 201 206 211 216 220 222 221 216 212 203 208 202 200 204 205 209 203 202 200 196 194 194 197 198 196 194 195 197 196 196 194 189 188 189 185 182 175 174 170 167 156 143 127 119 108 96 91 85 80 79 70 80 102 113 115 113 116 113 103 74 56 46 43 52 56 51 47 48 42 117 110 86 57 95 121 82 55 49 77 53 49 49 47 62 104 104 112 137 135 133 136 149 163 172 180 177 178 191 198 206 206 190 179 188 190 196 199 202 200 199 200 197 196 195 193 194 195 194 193 191 191 191 186 183 180 181 172 158 154 138 128 121 110 92 83 75 68 70 67 61 65 71 73 77 78 90 116 122 120 115 109 83 59 45 44 51 58 54 43 45 42 122 115 58 69 97 111 59 46 77 61 51 45 51 49 46 75 105 117 135 138 129 127 134 131 123 128 138 137 119 123 137 133 152 137 153 155 168 184 190 199 196 197 195 196 195 190 190 192 192 191 189 185 180 173 169 159 143 133 110 96 87 84 77 76 65 67 63 61 60 67 65 64 64 67 68 68 65 74 99 122 119 113 89 58 43 45 48 54 52 52 48 45 127 92 43 99 103 70 65 56 92 56 57 47 46 42 61 87 120 132 133 153 147 116 119 118 111 108 104 115 118 108 101 101 102 136 123 131 151 169 176 184 191 194 196 195 191 190 191 188 186 187 185 173 160 156 144 133 114 114 100 82 77 80 67 72 65 65 53 54 65 73 84 82 82 83 84 83 81 81 87 104 118 115 97 63 48 45 48 59 53 58 50 48 123 58 78 93 89 60 54 87 71 61 48 46 47 47 73 118 142 158 177 153 158 147 119 105 99 89 91 92 108 91 99 118 128 125 141 139 138 162 172 169 189 192 195 195 192 187 187 185 183 186 177 163 145 138 122 114 102 95 89 85 77 84 72 70 65 66 74 99 117 120 132 128 113 107 98 91 84 82 89 102 108 111 104 69 47 42 48 57 47 52 52 52 92 50 69 96 65 64 67 99 63 56 48 48 42 58 97 131 163 188 201 197 195 196 201 191 180 173 164 148 121 115 115 118 131 135 134 144 141 155 170 175 188 197 198 196 191 186 185 180 176 172 166 155 143 130 124 109 100 99 91 86 90 88 86 106 116 126 133 139 141 143 142 142 142 136 132 124 114 98 102 108 114 113 109 80 46 42 44 53 53 51 52 53 67 59 77 93 67 61 83 70 67 50 49 42 50 75 122 150 175 191 207 212 214 216 214 206 205 202 197 199 190 175 170 166 158 156 144 145 155 162 173 179 192 200 203 202 196 189 183 177 169 164 154 144 131 118 113 99 96 96 100 109 114 121 143 140 139 137 145 142 141 144 136 135 131 132 132 132 121 110 108 112 116 115 112 86 48 43 44 50 55 50 49 48 49 76 92 69 72 81 83 64 53 53 47 44 53 91 139 179 198 206 211 208 208 209 206 201 201 199 197 192 183 184 179 180 177 176 176 174 171 169 178 186 197 205 207 206 201 191 183 172 163 153 136 126 119 108 103 101 106 109 118 131 148 151 156 145 141 131 126 124 125 115 114 112 114 118 120 122 118 119 118 114 115 120 117 95 49 40 43 49 54 50 53 47 57 79 79 86 77 90 54 67 56 60 51 52 61 100 149 177 187 196 201 201 202 204 205 206 208 200 191 188 189 185 185 180 177 175 173 179 178 181 188 195 204 209 211 211 205 194 184 171 160 146 124 107 98 91 97 101 115 129 151 157 155 150 146 122 116 115 109 118 109 106 108 97 104 112 112 114 117 121 118 117 122 122 119 101 50 40 41 43 50 55 51 48 69 87 88 96 93 66 64 61 55 59 52 51 71 108 150 165 179 187 196 195 199 203 192 184 169 165 143 146 134 144 141 169 173 167 177 173 178 179 189 202 209 213 213 215 213 201 183 163 150 128 112 93 87 82 91 110 124 139 122 123 131 135 130 106 92 89 93 75 76 90 92 96 102 105 104 113 113 117 117 120 121 120 123 108 52 42 47 39 47 56 56 55 78 100 78 94 81 67 55 57 61 62 53 57 80 115 144 152 173 185 187 193 184 150 147 162 176 158 142 135 96 96 83 84 114 159 163 163 172 174 184 197 207 214 216 217 212 199 182 158 139 117 103 79 72 86 101 116 111 95 137 146 133 102 105 78 74 80 83 89 89 75 64 69 88 101 103 107 111 115 120 122 123 121 123 116 56 42 44 42 45 55 59 55 97 93 90 82 70 61 57 68 68 61 59 65 85 117 137 149 167 186 183 141 124 176 202 163 128 91 74 82 77 85 83 89 77 72 125 160 161 172 184 201 208 215 220 221 217 201 186 156 135 112 91 69 71 87 104 90 98 127 112 63 43 96 64 67 74 81 69 63 65 83 92 70 66 81 98 102 106 113 118 121 123 120 121 118 60 44 44 39 42 58 65 58 113 87 104 73 61 67 71 60 64 60 65 73 89 116 134 141 154 161 117 128 161 142 91 78 54 106 107 61 79 109 94 98 82 92 84 112 152 167 182 203 211 215 223 226 222 205 185 155 132 104 79 63 68 75 89 96 86 58 123 100 138 186 41 40 86 101 72 107 80 57 67 78 71 69 85 99 106 112 117 120 125 125 122 119 69 45 44 44 40 43 61 66 96 109 81 62 76 65 61 69 72 63 67 73 94 115 133 133 123 117 128 155 89 45 82 150 98 204 184 26 51 122 103 130 146 100 96 114 141 166 188 210 215 216 225 229 225 207 182 159 136 108 80 60 66 78 75 73 59 150 203 109 125 162 57 44 108 119 92 126 118 90 67 58 75 76 79 93 108 113 115 120 125 129 125 120 74 43 46 42 44 39 48 70 91 97 65 50 91 53 74 73 63 64 72 85 100 120 130 121 119 134 127 80 65 98 186 192 132 183 138 59 70 129 106 138 173 144 117 121 152 177 205 206 212 220 223 230 223 208 190 165 137 103 78 56 68 66 52 73 115 157 203 168 65 105 106 112 131 91 108 127 109 92 84 74 63 74 87 102 109 114 119 124 128 126 122 120 72 44 46 41 45 42 45 55 97 57 52 80 72 61 70 67 70 69 79 88 108 125 131 125 122 103 88 93 120 134 191 226 150 100 131 121 131 134 112 153 154 115 93 144 153 186 203 216 213 216 225 229 222 208 193 167 140 104 85 66 71 55 49 65 92 97 124 156 121 96 104 107 100 87 111 106 101 88 83 89 81 89 96 106 113 115 120 126 130 127 122 121 73 42 42 40 44 40 43 50 64 51 58 93 58 65 65 68 70 74 87 95 113 124 135 142 150 143 132 114 124 130 135 164 188 130 127 120 117 107 124 136 117 114 113 121 133 187 215 212 212 220 223 227 224 210 190 169 145 111 89 78 78 69 74 101 118 137 131 131 138 125 106 118 107 111 105 88 84 82 92 94 101 103 106 112 117 122 125 127 129 126 124 117 70 46 43 42 41 39 39 43 46 48 116 76 55 58 63 64 73 78 90 101 120 131 150 163 173 177 170 157 145 174 149 115 150 156 152 142 138 134 136 136 148 153 171 193 198 200 209 208 212 217 224 229 224 211 192 172 149 119 99 82 80 87 111 125 128 143 157 155 164 150 133 126 111 101 96 90 93 98 97 105 111 112 116 120 123 129 135 131 131 127 120 113 66 40 41 44 42 40 41 42 55 90 115 70 54 56 65 69 77 85 101 117 132 147 161 171 176 185 186 190 184 179 174 176 177 171 173 150 156 157 160 166 175 176 185 191 197 205 211 210 218 219 222 226 224 213 193 175 150 125 102 100 90 87 96 115 128 139 144 148 163 160 152 140 122 117 110 101 103 104 111 113 117 118 123 127 129 131 136 131 134 129 121 115 67 42 44 48 39 40 42 42 62 142 77 68 48 51 63 70 74 92 106 127 139 155 169 179 186 196 201 196 203 209 198 190 181 183 183 181 186 176 172 170 174 182 193 194 198 209 213 215 220 221 221 225 222 215 194 177 155 134 114 107 99 96 104 117 122 140 146 146 150 139 138 133 123 120 114 115 117 118 126 129 130 133 138 139 139 136 137 135 133 128 121 112 61 44 47 46 42 41 43 42 116 115 64 52 47 50 62 70 83 97 115 134 156 167 176 185 193 201 200 206 210 211 215 210 205 194 196 194 187 186 184 190 192 195 197 205 204 210 216 218 217 221 222 227 225 213 198 177 157 137 122 116 107 102 107 118 130 140 151 158 153 148 151 150 145 138 133 136 135 137 140 144 145 148 151 148 146 142 141 136 133 130 125 109 51 44 45 41 45 40 42 42 142 65 57 50 41 46 60 74 89 100 125 137 160 174 176 189 198 205 208 211 212 216 215 218 214 215 209 209 205 203 201 200 199 201 206 208 208 214 217 219 219 223 223 229 227 213 202 181 157 134 122 120 114 111 109 119 127 141 149 152 156 159 161 159 156 154 152 155 154 148 148 152 154 155 155 150 145 144 140 135 131 129 123 104 43 43 44 41 39 41 41 42 84 50 43 43 42 45 60 74 94 112 129 145 163 176 186 192 201 208 211 213 215 218 222 224 223 223 219 210 211 207 205 206 205 207 211 214 214 217 219 218 220 223 224 228 229 212 204 183 162 136 123 121 119 120 119 123 128 140 150 155 159 162 161 157 159 159 158 160 159 160 159 161 159 159 157 151 146 143 140 133 130 130 120 103 44 43 45 41 40 43 44 42 61 54 37 42 42 47 60 77 98 116 136 153 170 184 195 198 204 206 211 214 217 217 218 217 222 222 217 210 209 206 207 209 210 209 212 216 217 218 218 220 219 221 226 228 228 215 203 182 161 137 124 124 119 120 122 124 128 139 148 153 160 163 164 162 164 165 164 162 164 166 165 164 162 160 157 152 150 143 140 132 129 126 118 92 37 43 43 40 39 41 44 41 60 38 41 43 38 45 55 78 95 119 140 161 177 187 199 202 207 210 213 214 217 220 216 218 222 217 215 213 212 210 209 212 215 214 216 221 219 218 220 220 220 220 223 226 224 214 202 184 167 145 130 125 120 121 125 128 132 138 146 152 156 160 165 167 168 169 168 168 168 171 169 165 163 158 155 150 146 139 138 132 130 125 118 81 39 40 42 41 38 45 45 40 33 37 40 43 41 39 43 75 97 126 151 172 183 194 201 206 209 211 215 217 217 218 219 218 217 217 213 213 213 216 214 214 218 220 219 221 219 218 221 217 219 222 222 229 229 217 203 184 169 145 134 123 120 123 124 128 133 141 146 153 157 160 165 166 168 170 171 171 170 170 169 165 161 157 154 147 143 136 138 134 129 120 116 74 46 44 42 40 42 45 41 41 38 39 43 50 47 41 41 68 100 128 160 174 184 198 205 207 211 213 217 218 219 217 218 219 216 218 215 216 216 215 215 217 219 221 222 222 223 223 219 220 219 217 222 230 225 217 202 186 170 148 135 126 123 121 123 128 131 142 146 155 157 161 163 165 167 170 173 173 175 170 170 165 162 156 153 147 142 137 134 133 125 118 116 61 53 52 39 42 42 40 42 40 37 36 51 57 50 48 48 63 100 129 164 175 191 199 207 210 214 217 219 222 221 220 219 217 217 217 215 214 215 216 215 217 218 220 223 223 221 222 220 222 222 220 225 230 223 216 205 191 179 159 145 131 121 117 120 128 132 140 147 153 158 161 163 163 169 170 172 172 171 169 168 164 158 152 149 143 139 134 129 128 123 118 112 58 52 54 43 43 42 44 42 41 40 45 52 56 56 55 52 55 98 133 155 176 194 198 206 212 215 218 220 221 221 219 219 218 216 216 214 216 217 219 217 219 218 220 220 222 222 222 219 220 220 218 226 229 225 220 209 198 188 171 154 134 122 117 118 123 130 137 146 153 160 160 165 166 169 170 167 170 170 166 167 163 156 149 146 139 135 129 125 126 122 115 107 52 48 52 49 42 39 44 41 41 38 43 49 50 58 61 60 51 89 131 155 176 190 200 207 214 220 219 221 222 223 222 219 221 220 217 216 220 220 216 218 220 220 222 222 223 221 221 218 219 217 216 226 227 226 222 213 199 191 173 158 140 126 116 111 110 123 132 144 151 159 159 165 165 169 169 167 171 169 165 162 159 154 147 141 138 132 128 123 122 119 113 101 51 54 53 51 45 38 40 40 41 40 47 51 55 51 65 63 50 74 124 160 173 187 202 207 211 216 221 221 224 224 221 223 222 221 219 219 221 220 218 221 224 222 223 222 223 218 215 217 219 216 224 230 231 228 222 218 201 194 179 161 145 127 120 104 104 114 123 139 142 155 161 163 166 168 165 165 168 164 160 159 154 149 142 137 132 128 124 122 118 115 111 88 53 57 52 52 44 40 41 41 42 35 43 53 56 61 65 54 57 62 113 160 174 186 200 206 211 216 219 221 224 222 223 222 221 221 221 222 221 221 223 223 223 224 220 219 216 213 214 218 217 217 221 225 228 230 224 217 203 190 175 158 139 129 127 114 98 100 117 136 142 149 156 162 163 166 165 164 163 164 157 155 150 143 139 133 127 124 120 118 116 111 110 81 45 50 50 47 39 38 47 42 45 37 42 53 55 63 53 60 60 77 102 153 171 184 195 204 210 217 220 221 224 225 225 223 221 220 222 221 222 222 224 224 221 224 217 214 209 209 216 218 218 220 225 230 230 229 223 218 203 191 168 144 135 132 131 130 107 85 101 131 143 149 153 163 163 167 167 165 164 159 157 154 149 142 141 134 128 123 120 118 115 112 113 71 50 55 53 46 40 41 45 40 45 37 39 45 51 54 71 66 79 77 91 142 171 182 193 200 206 212 218 221 223 222 223 223 221 222 223 223 222 222 225 222 219 220 216 211 205 208 219 219 218 222 228 233 234 229 220 213 196 180 156 145 138 129 130 129 119 84 96 122 138 148 156 162 165 165 164 165 161 157 155 149 141 136 136 131 123 121 120 118 113 108 111 59 51 64 54 40 40 41 45 44 40 36 40 37 39 60 71 80 85 86 72 128 171 182 193 199 205 210 217 222 223 221 220 219 222 222 223 222 222 222 223 221 219 217 212 207 204 208 221 224 220 221 223 230 231 224 217 213 194 168 140 132 123 121 128 127 132 89 88 110 134 147 157 163 164 163 163 163 159 157 153 145 140 136 132 128 123 119 117 116 111 111 99 42 56 48 62 41 43 44 44 45 41 37 41 37 29 94 60 78 85 72 43 115 161 177 188 196 204 211 214 219 219 220 220 220 221 221 221 222 221 221 224 218 216 213 209 206 201 210 220 222 217 215 205 212 216 214 206 203 178 153 124 120 115 116 120 115 130 94 88 110 136 148 156 161 165 164 164 161 159 157 148 145 141 133 128 127 123 119 115 112 107 106 81 32 45 39 65 45 38 42 44 43 47 38 39 44 32 94 36 43 38 38 26 101 151 171 183 193 202 207 211 217 218 218 220 220 220 220 218 220 220 220 220 217 215 212 209 203 201 213 220 213 205 201 210 206 206 204 195 194 164 127 115 121 113 116 111 119 111 87 100 116 138 148 156 159 162 163 162 156 158 155 143 141 134 130 124 125 121 114 110 105 107 109 62 32 42 43 59 42 40 43 42 44 44 42 38 40 40 73 35 37 31 40 37 74 140 169 182 191 200 204 207 212 214 214 215 217 215 217 217 218 219 219 218 215 212 211 208 204 204 208 213 206 190 157 120 177 205 199 190 179 143 125 120 79 61 89 117 108 91 97 119 126 137 148 156 162 163 161 159 158 157 151 143 137 134 127 125 122 116 113 110 103 106 105 50 38 41 42 53 39 38 41 43 48 47 40 41 36 55 76 32 40 40 35 43 53 130 160 181 189 199 204 209 210 210 212 213 214 215 215 217 217 218 218 216 215 213 213 211 214 210 200 198 194 168 143 133 152 191 194 182 167 140 122 85 67 79 88 89 90 92 120 125 134 135 144 150 158 164 161 158 156 154 147 139 134 130 126 125 120 115 112 110 104 105 101 38 41 44 44 53 43 40 48 47 45 46 40 43 40 45 59 36 41 37 39 38 33 112 158 181 191 197 201 206 211 211 215 214 216 217 216 216 214 216 217 216 217 215 213 212 216 213 213 200 188 185 197 213 211 216 202 189 164 136 99 95 102 88 84 99 109 122 127 129 131 135 140 146 153 160 159 157 154 150 143 139 136 133 126 120 119 113 108 106 106 103 90 30 40 47 47 46 41 41 47 40 39 45 43 43 42 39 40 40 39 36 45 33 30 102 147 174 188 193 201 204 210 211 212 214 214 212 213 213 216 218 219 220 218 216 213 216 218 217 217 215 214 209 207 209 213 220 204 184 168 147 143 129 110 103 106 111 119 131 135 137 140 140 138 140 148 154 156 154 153 146 144 138 133 128 126 119 114 109 104 104 105 103 79 35 41 47 47 39 46 50 39 42 43 43 45 41 39 42 43 42 37 36 41 36 36 77 145 171 186 190 198 203 209 210 208 212 212 213 213 213 215 218 217 219 217 217 215 219 219 218 217 219 219 213 209 214 217 209 201 181 166 184 185 158 129 116 123 132 135 137 138 137 139 141 139 139 144 149 155 154 151 146 141 135 130 125 121 120 112 107 106 105 105 104 73 39 42 46 46 42 47 42 43 46 46 47 43 42 44 43 42 41 39 38 36 44 48 41 133 169 182 189 198 200 206 210 209 212 212 212 213 214 215 216 215 217 217 217 218 222 222 223 218 222 217 214 215 214 213 211 196 164 168 188 198 186 150 136 138 141 142 141 142 142 144 144 140 137 140 142 149 150 145 143 143 132 128 123 116 113 112 107 109 102 103 101 56 37 48 37 40 46 47 45 48 46 46 45 45 42 42 43 40 43 41 41 40 40 44 30 115 169 183 190 201 198 204 206 208 209 210 213 212 213 215 217 217 218 216 217 218 221 222 222 223 221 216 219 217 220 217 208 193 160 169 191 201 202 168 149 148 146 146 145 146 143 141 141 138 139 136 138 143 141 138 137 135 132 128 121 113 114 110 104 104 108 102 96 49 40 43 41 46 42 46 43 45 46 45 50 47 44 39 43 40 43 40 39 38 41 42 27 80 164 180 188 198 201 203 205 205 206 208 211 212 213 216 219 218 216 216 218 221 223 224 221 224 223 221 219 219 221 216 206 189 153 160 189 203 207 182 151 145 146 146 144 144 143 139 137 134 132 129 130 133 135 135 136 132 128 124 117 111 111 111 104 106 105 105 86 40 40 44 42 45 44 46 46 44 47 47 49 49 48 40 43 40 43 40 38 38 42 43 40 59 153 181 187 195 198 202 204 206 207 208 210 214 215 215 216 216 217 219 220 223 223 224 226 220 220 219 221 220 222 219 207 189 151 145 177 195 200 191 162 146 144 145 140 141 140 134 130 125 126 124 127 131 133 132 134 129 124 119 113 108 107 108 108 103 109 101 80 35 36 39 43 41 47 48 47 47 50 51 47 51 49 38 45 39 45 43 41 39 38 42 46 36 139 179 186 192 198 202 203 205 206 207 208 212 214 215 215 217 218 221 219 223 223 225 227 226 224 223 224 224 221 214 204 198 177 171 173 181 181 168 150 134 137 139 138 140 135 130 127 122 119 118 118 127 130 130 129 127 121 118 113 109 108 109 107 105 105 97 66 35 37 44 42 45 47 47 42 47 48 47 46 52 53 39 44 43 42 43 43 42 41 44 45 31 107 179 185 191 199 201 203 203 206 208 207 212 212 212 214 214 216 220 220 219 223 228 225 225 227 223 220 226 222 205 199 191 183 192 184 157 142 129 119 119 124 119 127 127 128 128 127 119 117 110 114 126 128 129 126 123 119 116 113 112 110 110 107 105 103 100 54 32 42 45 45 46 45 42 43 48 48 48 41 48 54 42 45 43 42 44 45 42 40 46 40 41 70 173 181 196 201 201 201 207 206 208 207 210 210 211 213 213 215 216 219 219 225 230 223 223 224 220 224 211 188 182 183 162 151 165 149 121 105 112 113 115 110 101 103 113 119 122 125 122 115 104 114 125 128 127 126 121 120 115 114 110 108 108 107 103 102 92 47 39 48 45 42 44 42 45 47 48 45 48 45 44 50 46 44 44 43 43 44 44 38 41 43 47 47 143 184 197 196 205 204 206 210 210 208 210 211 209 211 212 210 213 217 220 224 227 221 220 221 212 186 167 167 168 146 135 132 146 126 115 107 108 107 99 94 93 88 93 92 100 108 114 111 104 114 125 129 129 123 121 121 115 112 111 106 108 107 100 102 76 39 50 48 46 45 45 47 47 48 47 43 51 45 43 50 46 47 44 45 43 42 45 40 42 42 45 46 107 181 190 200 201 207 205 209 210 209 213 212 211 213 215 212 211 215 218 219 221 218 205 185 164 148 151 150 144 132 120 119 114 107 101 106 111 103 93 97 86 82 88 83 84 83 86 92 103 115 128 131 127 122 119 120 115 113 112 107 110 109 99 99 62 40 44 44 49 49 46 46 47 47 44 46 52 44 43 49 48 44 44 42 42 38 44 44 42 42 44 45 59 168 192 204 200 205 206 210 210 213 214 210 211 212 212 213 210 211 209 210 209 193 166 143 140 135 137 132 113 97 100 118 105 117 119 107 99 85 87 88 69 71 73 72 58 60 61 77 107 122 133 132 126 121 117 118 115 112 108 105 113 108 101 95 49 43 38 43 48 47 44 43 50 48 40 46 52 45 49 44 48 42 41 40 36 36 41 45 44 41 46 45 38 129 193 197 202 204 209 211 210 210 214 214 212 212 212 213 205 197 190 186 181 153 134 117 106 94 85 86 107 149 149 128 117 140 137 124 105 56 57 66 55 57 63 61 62 57 58 72 106 129 134 132 125 120 117 117 113 109 107 107 108 101 103 78 41 42 42 45 43 44 45 47 50 47 45 47 47 48 53 46 53 42 40 44 36 41 44 43 44 43 49 46 38 74 184 191 205 202 209 208 212 213 213 215 215 213 213 212 197 184 154 108 111 110 95 67 43 65 73 63 82 107 94 79 75 85 77 74 67 75 79 83 86 80 79 89 80 74 87 91 109 132 134 130 122 118 118 117 113 109 107 112 104 101 99 53 43 42 45 41 42 42 41 52 46 43 47 46 47 49 42 47 50 47 43 41 40 42 44 43 44 43 49 52 46 36 135 194 202 203 206 209 212 213 213 213 215 214 212 209 197 186 131 124 152 166 168 155 145 135 125 117 116 118 118 124 115 111 113 117 111 103 99 89 113 99 92 91 87 92 106 110 118 128 135 129 123 122 117 115 113 108 106 107 105 101 81 43 43 41 42 43 43 43 46 49 44 48 46 41 51 53 46 53 46 45 43 40 43 42 45 45 42 43 47 50 50 35 77 192 198 206 207 210 209 210 212 213 214 213 212 206 198 191 180 201 205 194 187 183 175 185 176 165 159 142 131 122 128 129 127 133 136 109 143 113 99 103 106 94 100 106 105 113 121 123 128 124 120 118 115 112 111 108 107 104 99 103 58 36 41 42 45 43 45 46 47 41 45 51 44 45 56 50 51 49 42 43 41 43 44 39 41 44 45 48 46 53 46 45 42 161 197 202 207 208 209 213 213 212 212 213 210 207 203 203 205 217 213 199 194 193 184 177 195 176 187 158 149 116 156 140 142 150 155 116 134 124 92 98 95 96 104 106 109 114 117 122 125 123 117 116 113 110 109 105 107 103 99 88 41 40 41 39 47 48 50 46 44 47 47 44 40 47 60 47 48 48 48 46 40 45 47 38 39 45 44 49 44 51 51 41 34 83 188 201 204 209 211 212 210 210 210 210 209 205 204 205 210 221 216 203 201 196 200 174 160 156 188 146 158 111 151 102 133 140 125 124 116 106 92 95 97 100 104 110 116 122 121 119 121 120 117 113 112 110 107 110 103 101 103 55 38 42 41 44 51 49 47 43 47 48 44 40 44 50 63 48 42 50 48 46 41 42 49 37 38 44 42 48 43 54 42 49 46 45 134 197 202 207 210 210 211 210 209 208 207 204 208 215 218 217 216 213 208 197 189 194 184 169 149 135 137 116 135 106 128 122 115 107 110 100 96 97 101 104 108 114 116 119 120 115 117 118 115 111 106 105 107 109 107 104 82 36 41 41 42 51 52 48 44 42 50 50 37 43 50 50 57 49 53 48 45 47 41 40 49 38 37 43 42 50 46 56 48 41 46 47 57 177 197 205 208 211 209 210 210 208 207 204 210 212 213 212 216 213 206 205 197 189 183 170 152 145 127 126 138 123 119 120 117 109 109 107 111 111 106 113 116 116 120 120 116 118 114 115 114 110 109 106 107 104 100 101 51 37 39 43 46 51 47 44 48 49 53 48 40 44 49 56 55 56 59 45 40 43 40 39 38 41 39 43 41 49 45 53 48 41 47 44 40 101 195 202 207 210 210 209 208 207 207 208 210 209 210 212 213 214 208 205 204 195 189 184 172 159 145 139 133 133 132 126 124 129 127 126 127 121 119 119 116 121 123 121 119 119 115 114 112 110 108 107 104 106 100 70 39 37 43 43 47 51 46 49 51 57 54 42 39 42 47 58 61 59 47 42 46 43 41 42 39 41 40 41 43 47 46 53 49 42 44 44 46 72 159 200 201 208 206 207 208 204 205 206 208 210 213 212 209 212 210 210 202 198 191 181 175 162 155 146 150 151 143 136 141 146 146 142 134 125 124 121 119 121 122 120 118 115 113 112 109 109 109 111 101 108 83 39 39 45 41 44 48 48 46 48 52 59 47 38 40 44 51 63 58 60 50 41 46 42 40 43 41 41 39 39 44 45 42 53 48 40 45 47 43 72 127 181 199 202 205 208 207 208 206 203 208 210 211 209 211 208 207 206 205 203 194 184 178 168 165 160 161 158 149 151 151 154 153 148 139 133 132 130 129 122 121 119 117 114 114 112 108 110 108 106 108 93 45 38 41 44 44 48 47 47 51 53 53 56 46 37 41 44 55 62 55 59 53 39 43 41 39 42 39 41 43 39 45 44 39 54 50 41 45 47 40 70 129 148 194 199 202 204 207 207 208 209 209 208 209 211 210 211 210 207 202 202 199 192 187 181 177 174 163 166 165 162 162 159 158 151 144 135 136 133 132 124 120 119 117 114 114 110 112 109 104 110 95 57 35 44 41 45 47 50 48 50 55 55 55 53 42 40 40 46 54 62 59 66 46 38 45 43 42 45 38 41 41 37 44 42 38 52 49 40 38 46 43 63 130 146 163 191 199 201 205 207 208 211 210 211 212 209 212 215 216 213 207 205 202 197 200 192 193 186 184 182 181 182 175 171 164 158 149 141 139 137 130 128 122 118 116 113 114 113 110 105 108 101 59 42 45 42 48 52 49 46 51 50 52 54 52 47 39 44 45 49 57 65 65 65 43 40 45 41 42 47 40 39 41 37 40 44 45 44 58 42 42 48 47 63 127 149 155 171 192 202 203 204 206 208 210 209 211 212 211 214 216 217 217 216 213 209 209 205 202 195 198 194 190 188 180 174 166 159 151 145 137 136 132 126 120 114 115 114 111 112 102 111 100 64 50 47 47 50 51 53 54 53 52 52 50 55 49 46 40 45 43 47 54 65 63 67 46 44 42 42 42 42 41 43 40 39 41 44 47 40 52 42 44 44 48 63 127 152 163 167 177 192 202 203 206 210 208 208 211 212 213 217 218 223 224 222 216 216 218 208 208 202 196 194 194 194 188 177 170 160 149 141 137 130 127 125 118 114 114 113 112 105 112 94 62 44 50 48 48 51 51 53 56 54 55 58 53 56 44 43 44 47 39 43 52 68 73 73 48 45 43 41 40 42 42 42 42 36 39 42 51 46 48 53 42 46 54 62 121 147 164 172 174 178 189 197 204 208 208 211 213 212 211 217 216 219 221 223 219 219 217 208 206 199 195 191 195 194 186 178 168 157 149 142 134 125 123 119 115 112 110 104 112 109 92 64 51 55 51 48 53 53 53 52 55 56 54 59 58 52 39 42 43 44 42 47 52 67 76 69 39 43 43 42 40 42 45 45 39 37 37 44 48 45 46 50 42 44 48 67 114 145 162 170 178 180 183 189 193 201 206 208 209 214 214 217 220 222 225 224 221 220 220 215 204 199 197 194 194 197 190 182 166 157 150 144 133 126 122 117 115 109 111 111 101 89 66 66 56 52 51 49 51 58 55 60 54 62 57 53 59 54 42 48 47 40 45 46 53 68 74 69 44 46 46 45 40 41 43 43 40 39 39 42 44 44 46 52 45 42 46 64 109 144 162 169 178 180 183 186 187 185 195 205 207 212 213 214 218 221 224 221 220 218 216 209 204 198 196 194 193 194 188 181 166 153 144 139 132 125 120 115 112 111 112 101 79 72 75 64 55 52 51 50 49 58 63 63 62 61 61 51 65 52 43 44 48 41 46 42 51 71 73 75 48 44 42 45 44 41 42 43 42 40 39 44 42 41 45 51 49 44 45 70 106 143 161 169 178 177 183 189 188 186 190 194 204 210 206 213 216 217 218 217 215 213 210 203 196 194 193 191 195 195 187 179 164 150 141 134 127 121 113 112 111 105 96 90 84 86 72 64 59 52 48 47 54 63 71 54 64 70 55 57 65 43 40 37 49 44 42 41 55 72 77 74 46 43 42 42 48 43 42 42 41 41 39 47 43 42 42 50 54 47 45 74 101 138 159 169 177 178 187 184 189 193 190 184 188 201 204 209 212 215 216 214 213 209 206 201 193 186 183 186 189 188 183 171 159 148 139 133 122 123 113 110 102 98 92 94 86 81 74 68 58 51 53 50 52 68 62 66 70 73 45 62 61 37 44 39 46 43 39 44 57 66 75 71 43 43 44 41 43 48 44 41 40 43 41 44 42 41 46 46 57 50 47 77 98 132 156 167 175 183 185 188 190 185 191 192 187 186 194 203 205 208 212 211 208 205 202 196 194 183 180 181 185 181 177 168 157 145 134 127 120 120 114 108 102 101 100 97 88 83 72 65 59 51 56 51 56 73 58 72 69 70 44 65 55 34 48 37 40 48 39 45 54 68 73 78 43 45 40 38 39 44 46 39 40 44 41 42 38 42 43 43 54 49 49 75 95 129 153 165 173 181 182 186 189 190 190 193 190 190 188 192 198 202 202 202 202 200 199 196 191 178 177 179 177 175 170 164 157 142 128 124 117 117 113 115 112 107 101 96 94 85 77 66 61 55 59 49 59 76 67 77 69 59 47 69 46 35 45 41 39 48 44 47 47 71 76 82 46 44 45 43 42 39 52 44 41 43 43 45 40 42 39 42 48 52 48 76 91 126 151 163 171 180 185 188 187 191 193 191 189 188 189 186 190 193 196 197 199 198 195 190 185 176 174 173 173 171 165 155 145 136 125 125 119 115 117 121 116 111 106 101 93 89 80 68 62 56 57 48 62 80 78 81 80 53 51 67 41 36 45 40 42 40 42 54 44 72 69 79 43 38 46 46 46 41 47 49 36 42 46 44 43 42 38 43 41 51 51 77 88 121 147 160 170 179 183 187 188 194 192 190 190 190 188 188 184 183 187 186 186 186 184 180 175 171 169 170 165 162 155 145 137 138 131 130 125 119 123 124 120 116 109 103 96 87 80 70 63 54 55 50 74 81 78 70 80 48 61 62 42 40 44 40 44 39 38 58 48 69 63 82 45 41 43 45 44 41 40 50 40 44 45 39 43 40 40 43 42 50 50 77 86 118 144 158 169 178 182 184 188 191 194 192 193 189 187 190 188 186 186 182 181 182 177 173 167 165 164 159 158 153 153 148 148 144 131 132 131 131 133 127 124 122 116 107 98 88 80 70 63 58 54 50 73 78 85 82 74 41 65 60 41 38 44 42 45 46 42 54 51 77 64 84 46 42 45 45 41 39 43 51 47 47 49 41 42 45 45 44 47 47 52 72 88 110 141 157 168 176 183 190 190 192 193 193 194 194 189 187 188 187 182 182 184 184 183 180 180 182 183 180 173 171 171 161 153 146 140 142 141 139 140 137 130 129 121 111 99 92 83 72 63 59 54 52 70 84 90 79 73 45 74 49 43 39 47 42 45 42 41 51 51 73 73 79
