P2
# Generated by OpenCV 4.2.0
92 112
255
166 181 194 203 187 47 46 46 27 37 39 39 38 52 27 47 31 31 34 39 44 50 44 59 67 73 82 78 82 96 112 129 143 155 163 178 189 193 195 187 179 163 146 135 130 111 107 105 105 97 90 87 83 82 81 77 77 66 58 47 51 39 40 32 20 14 19 28 35 23 24 34 20 25 17 6 33 32 24 13 13 29 31 37 23 24 19 24 39 48 43 54 165 182 190 198 110 35 52 28 43 39 39 47 47 40 36 30 35 33 35 40 33 46 66 80 94 100 115 128 129 136 150 173 182 189 194 202 203 205 201 202 197 181 158 146 140 128 122 116 109 105 100 96 90 87 87 84 86 77 71 60 54 53 50 50 42 29 25 29 20 33 31 19 30 26 21 19 5 19 27 21 15 8 26 28 36 17 26 18 27 49 45 48 168 174 189 182 55 63 37 39 29 34 37 42 44 32 26 35 48 39 31 38 54 83 95 112 129 148 154 171 185 186 196 205 207 208 207 208 211 215 212 210 207 198 178 157 148 144 131 124 125 125 123 124 124 121 122 119 117 103 79 65 55 48 44 42 41 34 19 20 21 21 30 27 16 28 22 14 24 8 17 26 20 16 8 27 27 39 18 23 19 34 54 44 163 170 186 134 44 52 32 38 41 36 41 52 45 23 30 60 38 29 43 58 89 120 152 172 182 196 198 202 211 215 216 216 217 216 212 214 216 217 219 215 211 206 191 172 164 165 159 153 144 139 139 140 140 137 123 120 121 121 109 108 90 73 55 50 48 49 40 31 16 8 13 21 29 15 22 22 10 18 13 19 22 13 18 8 30 30 30 17 26 17 38 51 164 169 183 62 44 34 41 35 28 31 51 32 17 38 54 34 27 34 69 115 158 183 198 206 211 213 215 218 219 219 219 221 222 220 220 219 219 219 218 219 213 208 203 194 186 179 176 171 166 164 157 150 149 150 152 150 147 143 138 125 112 106 89 73 59 46 34 26 27 23 19 12 17 29 15 18 19 12 17 16 18 17 18 10 12 31 34 22 22 20 26 42 159 170 148 41 38 40 47 31 26 49 35 14 41 55 34 17 44 87 136 181 198 206 209 216 220 223 225 225 225 222 224 222 222 221 221 221 221 220 219 220 216 213 210 205 200 194 193 188 185 186 186 182 180 173 170 169 163 155 150 144 134 128 110 91 75 67 54 36 25 27 26 22 20 17 32 17 11 13 11 16 18 18 22 15 9 17 35 36 22 21 13 35 155 174 106 28 27 45 35 29 44 28 15 53 53 26 18 39 103 158 188 203 207 217 218 223 225 226 226 226 225 222 222 221 222 221 221 222 221 221 221 220 213 211 212 211 209 203 202 197 195 196 195 191 188 181 184 183 180 172 165 163 156 149 131 114 95 82 71 56 41 27 25 31 24 17 11 27 13 12 8 7 12 15 23 20 13 12 16 34 36 24 19 15 154 167 68 35 39 31 25 46 23 21 54 37 14 20 44 98 165 192 205 213 216 222 220 224 224 225 225 225 226 223 224 221 223 221 221 220 218 219 217 218 215 214 216 216 216 209 209 205 205 205 201 196 195 194 192 193 193 188 180 174 169 161 148 134 114 93 78 66 54 42 31 20 25 28 23 6 25 16 12 6 7 9 18 21 20 16 16 23 36 27 26 15 155 151 36 31 41 21 41 40 16 52 22 9 15 44 107 173 202 211 217 218 222 221 223 224 224 224 224 224 225 223 225 223 223 221 220 219 216 217 216 215 218 215 215 216 215 212 209 208 208 209 206 205 203 201 199 198 196 191 189 185 177 170 161 156 147 120 93 82 74 57 39 28 12 13 16 22 6 24 13 11 8 7 15 20 18 16 13 16 22 41 19 23 162 114 18 40 27 25 35 13 51 20 8 15 31 105 170 197 211 218 222 223 223 222 221 223 224 224 223 223 222 222 221 221 222 220 220 220 217 218 215 216 214 214 214 214 214 213 214 213 212 210 210 209 206 206 202 200 198 195 193 189 185 177 171 164 157 144 120 99 81 61 55 48 43 31 20 19 22 12 13 12 11 6 7 18 24 18 15 17 19 26 25 20 162 68 20 34 14 40 19 34 23 5 9 24 73 168 201 211 216 222 224 223 219 219 219 221 222 222 222 223 222 221 221 220 219 221 219 219 219 218 218 217 214 215 215 215 215 212 213 212 212 213 211 210 206 207 205 202 199 196 194 190 187 183 179 174 168 157 141 122 101 79 58 46 36 26 17 18 21 22 15 7 14 9 5 8 19 28 17 17 19 20 30 22 143 34 30 22 30 36 25 37 7 7 16 60 147 188 204 213 219 225 226 222 218 220 219 221 222 223 222 221 221 221 221 218 219 218 217 216 216 216 214 215 216 214 214 214 214 212 213 211 211 212 211 210 209 208 205 202 199 195 191 189 188 185 181 177 172 164 152 140 120 108 89 55 48 34 17 9 10 14 18 12 8 10 7 6 11 23 17 13 15 19 20 34 120 27 31 13 37 15 31 9 4 7 33 126 178 197 208 218 219 220 219 218 216 218 218 220 220 221 222 221 222 221 221 217 218 217 216 215 215 212 213 213 212 211 213 213 213 213 213 211 211 212 210 209 206 206 204 201 196 192 191 188 186 185 182 177 173 164 157 149 136 118 109 84 60 49 27 12 15 10 13 12 8 7 9 8 7 13 18 13 11 18 17 34 92 31 24 23 13 26 20 8 5 9 80 160 184 204 212 215 213 216 217 215 216 218 216 217 218 219 220 220 220 218 217 214 216 216 215 215 211 212 210 212 210 210 211 210 212 208 210 210 211 209 210 208 206 206 203 201 196 192 189 189 187 184 182 176 174 168 160 154 147 133 121 106 81 63 37 15 9 10 9 8 9 6 8 12 11 8 17 20 10 13 23 18 80 34 23 30 11 26 10 7 6 29 112 171 194 206 212 214 213 213 213 215 216 217 217 218 218 218 218 217 216 216 215 212 213 213 212 211 211 210 211 210 208 208 209 208 208 210 209 208 207 209 208 205 201 199 196 194 191 187 185 184 183 180 178 171 172 170 165 162 152 140 128 115 98 80 53 29 14 9 10 8 10 12 9 8 8 11 10 17 23 10 19 19 74 37 23 30 23 12 11 5 14 58 137 182 202 210 213 211 209 210 211 215 215 218 216 217 216 217 216 216 216 214 214 210 210 211 211 210 210 209 208 207 207 207 206 207 207 205 205 203 204 205 204 201 198 197 193 192 189 186 184 181 179 176 174 167 167 166 164 163 157 148 138 125 113 95 70 43 21 7 7 10 10 9 9 9 11 8 7 12 26 17 11 22 74 35 24 26 29 19 8 11 27 76 153 186 202 210 210 207 205 207 208 208 211 211 215 216 216 215 216 217 218 215 213 213 213 212 210 210 210 208 207 205 203 203 201 202 201 201 200 202 202 201 201 199 199 200 195 195 192 188 184 181 180 177 175 173 170 164 161 160 156 150 144 131 118 102 83 54 25 14 7 8 9 7 6 10 10 5 10 10 13 25 11 22 66 21 22 25 23 17 13 22 36 89 169 192 198 203 205 205 208 210 210 212 211 213 211 213 213 215 214 214 213 213 211 211 212 211 208 208 208 207 205 204 204 204 202 202 202 204 203 202 200 200 199 197 194 194 192 191 186 180 178 180 178 175 173 170 166 161 158 156 154 151 145 134 125 112 95 66 33 19 6 4 9 7 5 4 5 3 8 9 11 20 20 13 80 19 28 27 26 16 13 26 34 112 174 192 195 198 201 203 203 205 205 206 208 208 212 212 213 211 211 210 211 209 211 208 207 206 206 206 209 204 199 198 197 198 200 202 203 199 200 198 198 200 197 192 192 191 191 187 186 181 179 178 176 170 167 166 164 158 156 159 157 150 149 142 131 124 108 79 45 21 13 5 6 9 4 3 2 8 6 10 9 13 23 16 85 19 29 27 16 11 21 16 44 116 174 193 196 201 200 201 203 205 205 205 206 209 205 207 208 210 207 206 205 202 204 207 206 204 202 201 205 201 197 196 195 195 197 198 199 196 197 197 197 196 192 190 191 191 188 184 182 178 173 173 171 168 166 164 167 164 163 162 158 153 152 146 137 130 118 94 65 32 14 6 2 6 8 3 2 5 6 9 8 10 19 16 95 23 35 23 12 18 12 15 61 128 180 196 200 200 198 200 202 198 197 196 197 199 201 201 201 199 200 205 205 203 203 203 203 201 199 199 202 200 194 195 194 193 195 196 195 197 199 198 198 195 192 192 192 191 185 182 182 178 173 173 174 170 168 161 162 164 159 154 157 152 149 146 142 135 122 104 78 48 22 16 8 6 7 3 3 2 5 7 6 6 14 20 107 29 37 18 7 16 13 34 74 137 181 196 203 193 196 198 199 203 204 205 204 207 210 209 209 207 206 208 207 205 206 201 202 202 201 201 200 197 194 195 194 193 194 194 195 199 198 196 194 193 192 190 190 186 184 180 179 177 172 171 170 167 165 163 161 163 161 154 155 150 146 147 145 137 128 114 93 69 34 19 10 3 4 4 3 3 3 5 7 5 8 19 113 32 25 13 16 17 28 38 83 140 180 196 200 196 198 201 201 200 197 200 201 203 203 205 205 203 203 202 203 201 201 198 199 198 200 198 196 195 194 192 193 195 194 196 195 197 195 193 191 189 188 185 184 181 177 175 175 172 169 166 164 161 160 157 155 159 160 154 154 150 148 150 147 142 134 122 108 86 52 26 13 4 1 3 3 2 3 3 7 6 5 9 123 52 32 24 21 25 33 29 82 143 183 196 198 195 199 200 200 199 200 201 202 205 203 203 204 204 203 204 202 201 202 200 199 199 197 196 194 194 193 193 191 190 192 193 193 192 189 188 187 183 181 182 181 182 177 175 174 171 168 166 164 163 163 157 155 160 159 154 151 149 147 149 148 144 137 127 115 96 71 43 18 6 3 3 6 2 2 3 3 7 6 10 129 63 48 39 24 21 23 47 96 156 188 194 195 197 200 199 198 199 198 201 202 206 202 203 203 202 200 198 198 196 195 199 195 196 197 195 197 195 193 191 189 189 190 191 192 191 188 188 187 184 184 182 181 181 180 179 177 172 168 167 167 168 166 163 162 163 160 156 153 151 150 150 150 143 140 135 122 105 84 65 31 10 3 2 4 3 1 2 6 8 9 10 127 70 55 36 26 26 32 63 133 170 185 191 195 195 197 197 196 195 197 198 199 201 203 203 201 200 199 199 198 196 194 193 193 193 194 192 194 192 190 189 189 189 191 192 191 192 191 191 191 189 188 184 181 181 179 179 177 171 166 166 165 164 160 162 163 161 158 156 153 154 152 150 150 142 141 138 129 110 89 73 46 20 7 2 2 2 2 3 3 6 8 12 140 102 75 33 31 21 40 95 152 176 183 192 193 193 195 195 194 194 195 196 199 202 200 203 204 206 205 203 202 199 198 194 194 195 196 196 192 192 192 193 190 190 192 193 194 191 189 190 189 187 185 184 182 181 177 180 180 175 169 168 167 162 159 156 158 159 154 154 152 154 153 151 149 146 142 137 133 120 101 80 54 32 15 4 2 2 6 2 1 3 10 13 145 122 80 30 25 17 49 127 175 176 185 189 190 196 197 195 193 195 195 196 198 198 201 201 203 202 204 203 201 198 195 195 197 197 192 190 193 191 189 186 191 190 190 189 188 191 188 185 187 189 186 184 181 179 182 180 178 175 173 171 169 167 162 164 160 156 152 148 154 154 153 149 146 148 144 137 132 126 107 90 66 31 21 14 2 4 5 6 4 6 7 10 145 126 82 34 25 31 83 156 183 183 183 190 194 194 197 196 196 195 196 198 199 202 204 204 205 205 206 204 203 200 197 195 196 194 196 196 194 192 190 188 191 190 189 190 190 185 187 188 188 187 186 184 182 180 181 180 179 177 174 170 169 165 162 163 160 157 154 152 154 155 155 152 147 147 144 139 134 128 113 92 71 44 26 12 4 2 5 5 4 5 10 10 158 142 65 26 12 42 118 176 190 185 182 186 194 195 196 196 195 196 195 198 200 201 204 203 205 204 203 203 203 198 197 197 197 196 192 188 191 192 189 187 190 189 189 189 188 188 189 188 186 187 187 185 184 182 179 180 180 178 176 175 173 169 167 163 158 157 156 154 153 154 155 154 148 146 144 139 135 130 123 103 78 55 30 17 11 5 5 5 4 4 6 10 209 190 60 27 9 67 151 184 190 188 182 184 193 198 199 195 195 197 198 197 197 200 198 199 199 201 200 199 197 196 194 190 194 196 194 190 190 189 188 188 187 187 187 186 187 189 188 185 186 187 186 183 183 183 181 180 181 177 176 176 175 171 167 166 160 158 157 157 155 157 155 153 148 147 143 139 137 131 127 118 98 70 43 22 13 9 5 5 4 4 5 7 212 208 54 19 11 97 175 191 192 191 183 187 194 200 198 195 195 198 198 198 198 196 196 195 195 195 196 195 194 192 191 195 193 191 189 189 188 187 187 186 187 189 187 186 185 186 183 184 186 185 183 181 180 181 181 181 179 176 174 173 172 168 166 167 163 159 160 159 160 160 159 155 149 144 143 139 139 133 126 127 118 92 63 36 21 17 5 4 3 5 7 12 187 204 81 26 10 132 189 198 198 193 186 191 196 202 202 201 200 199 197 196 197 194 197 194 195 194 198 193 189 186 187 188 188 186 186 187 187 185 184 186 187 184 186 182 182 183 182 184 184 183 180 178 178 180 178 179 179 172 170 172 171 168 169 167 166 165 164 165 166 163 162 157 153 144 138 140 142 136 134 130 126 116 92 56 27 15 12 5 6 5 9 9 170 189 139 56 23 154 201 202 202 198 188 192 193 202 207 207 201 200 198 197 197 194 189 186 188 189 190 190 184 184 187 185 185 183 183 183 184 182 181 183 182 179 179 176 177 177 177 176 177 176 174 174 176 176 177 178 176 168 166 170 171 169 166 168 169 174 173 170 168 163 162 156 153 143 138 137 140 139 137 134 132 131 117 86 47 16 12 10 11 6 6 5 139 151 159 75 39 171 205 202 206 201 196 198 194 195 193 194 195 194 191 191 190 188 184 186 184 185 181 181 182 180 178 183 181 180 180 180 179 178 178 178 178 175 176 172 170 173 172 172 172 170 170 171 170 170 167 164 164 167 167 164 160 160 162 166 169 171 173 173 173 171 169 165 155 147 139 141 141 143 141 141 140 135 127 109 74 37 16 10 10 7 6 8 137 117 141 93 55 183 206 207 202 205 202 193 174 153 146 143 147 143 142 147 153 155 162 174 170 172 174 173 172 171 173 175 175 175 178 177 174 175 173 173 173 170 170 164 164 166 164 163 165 165 166 167 165 163 159 157 157 153 151 151 149 147 147 155 151 149 155 159 156 162 167 168 162 152 145 145 147 144 145 146 145 140 136 127 101 67 26 8 11 8 5 7 136 137 153 106 64 191 208 208 205 210 185 157 132 112 90 83 71 87 87 88 89 96 111 121 128 143 156 148 143 153 161 159 160 167 168 168 169 169 171 168 164 166 167 164 157 160 156 160 159 156 156 154 151 145 146 145 140 126 118 109 107 106 109 116 112 110 114 120 123 112 136 160 163 161 152 159 152 151 152 150 148 143 146 135 128 85 40 11 4 4 7 6 138 153 159 124 75 198 208 208 210 180 133 119 108 80 60 60 65 67 62 58 56 58 63 60 63 68 71 82 88 102 117 132 143 157 159 159 166 166 167 163 162 161 161 157 149 153 149 144 136 126 116 108 105 103 95 89 76 69 69 58 53 56 65 62 63 62 64 69 83 94 105 124 151 156 163 152 157 156 152 153 151 147 149 142 137 99 45 16 8 8 11 12 126 164 166 134 89 200 208 207 208 149 110 108 86 80 71 70 66 63 55 51 43 42 42 37 34 38 40 39 42 55 84 92 110 135 151 159 156 159 160 156 155 152 151 145 140 144 139 129 114 93 75 59 58 55 44 39 30 35 42 41 44 42 33 38 40 47 50 52 58 71 78 92 98 99 120 148 161 159 154 155 155 151 151 149 143 115 56 22 13 12 15 21 119 172 171 132 107 201 209 207 189 125 101 85 76 77 90 93 78 69 61 50 35 30 22 31 28 21 24 30 35 38 50 77 90 112 133 150 149 153 155 152 152 148 144 138 130 134 128 105 78 61 44 31 30 23 15 17 17 23 29 30 26 30 28 31 35 42 49 52 46 52 66 77 83 94 85 106 139 157 157 156 158 155 153 152 144 121 68 27 18 17 19 24 117 163 176 153 128 206 213 207 174 134 127 92 104 118 132 134 127 117 110 101 89 80 69 52 42 37 35 35 32 37 47 62 78 103 126 143 144 150 154 153 151 147 141 134 129 123 118 91 63 52 39 31 30 19 17 19 21 16 14 22 22 37 44 47 47 52 58 61 62 64 67 72 77 80 89 97 126 154 160 156 157 160 156 152 145 123 74 34 22 22 21 21 118 150 183 167 135 210 209 207 175 168 148 132 140 143 145 141 138 136 129 121 126 116 111 97 84 77 73 66 62 62 63 69 73 95 117 133 142 153 154 152 146 137 131 126 122 111 102 80 67 53 46 42 43 37 38 39 40 46 49 56 61 71 75 85 95 97 101 99 99 87 81 81 80 90 103 111 121 148 158 159 159 160 157 157 150 126 78 41 31 32 26 26 116 144 188 163 144 212 209 209 199 187 166 151 157 159 154 145 138 132 129 140 140 130 109 98 89 89 88 83 80 79 80 83 86 100 112 125 136 148 144 145 142 133 126 117 111 102 87 76 71 61 62 56 51 52 55 63 71 88 99 102 102 102 99 104 111 113 117 120 120 113 106 102 99 101 112 125 141 144 157 160 160 162 159 160 155 135 86 51 45 45 42 39 114 136 188 162 159 213 212 211 207 189 167 153 159 157 140 132 129 129 122 96 83 56 42 37 35 41 50 67 82 85 84 84 89 97 109 125 134 141 142 148 142 133 123 111 101 91 80 72 60 52 50 56 61 63 65 64 65 77 83 83 88 94 94 99 107 108 109 113 119 121 116 112 108 111 124 129 132 151 162 163 160 162 158 159 156 138 89 59 57 55 46 47 115 132 181 165 170 211 216 210 203 186 168 162 172 164 150 128 95 62 48 33 27 13 2 1 1 4 6 23 54 73 86 90 90 90 100 119 141 150 160 160 146 135 121 104 91 79 70 58 47 54 62 62 48 35 14 5 3 2 2 5 8 19 25 42 55 72 87 102 108 115 116 113 115 103 108 124 135 159 165 162 159 163 159 160 156 138 100 76 73 62 49 50 114 130 171 172 187 210 210 210 204 185 176 166 184 156 118 61 56 27 8 4 1 0 10 5 0 1 2 5 15 59 79 104 96 89 95 116 141 160 165 161 150 135 120 104 89 71 63 46 51 56 70 39 41 13 4 1 3 24 3 1 1 1 4 17 37 47 49 61 98 119 119 125 127 142 136 129 148 161 161 153 155 161 159 160 158 142 104 90 82 69 57 46 114 128 170 179 192 213 211 210 209 192 188 195 166 88 50 44 21 4 3 6 0 14 19 13 3 8 8 19 17 19 52 86 103 106 109 116 143 163 168 165 157 141 125 107 89 68 60 49 57 66 48 32 30 6 30 3 21 39 10 1 6 1 0 1 4 13 24 38 43 87 124 141 149 135 131 143 156 145 145 152 159 161 162 160 158 143 112 101 93 72 69 54 114 130 169 190 193 209 208 205 205 201 183 178 149 87 58 21 4 7 8 19 13 20 44 10 17 21 18 63 70 31 30 70 101 108 119 135 154 173 182 180 168 153 136 116 95 83 66 50 58 64 43 29 10 42 94 31 46 45 11 13 20 12 15 13 4 3 2 6 24 45 60 97 113 131 138 125 114 134 151 164 166 163 163 164 162 146 118 109 110 84 89 76 119 137 168 198 202 210 212 210 193 190 197 188 170 143 83 71 72 57 54 76 86 89 85 72 76 65 60 72 63 41 26 52 90 134 147 152 163 182 191 190 178 164 147 124 100 97 81 74 79 60 26 22 36 50 75 68 59 68 64 70 72 58 42 41 28 24 26 32 44 78 85 86 96 103 121 147 165 170 171 161 160 164 163 165 164 149 119 112 121 95 101 91 124 142 168 203 203 207 210 212 210 212 210 198 182 161 151 144 144 126 123 126 119 140 126 104 115 112 99 101 99 94 93 77 58 130 161 160 172 188 199 195 189 178 162 137 113 112 94 107 89 39 57 97 100 119 119 114 114 126 98 105 108 107 97 96 90 86 86 93 91 91 89 98 112 136 159 164 164 160 156 158 160 162 163 164 164 147 125 112 123 96 93 89 135 147 171 199 200 210 208 210 210 211 211 213 215 210 202 183 168 161 150 144 146 152 142 127 127 128 118 117 117 123 142 153 151 163 169 164 178 195 204 204 199 185 170 148 126 126 120 131 133 137 128 117 121 127 134 139 147 144 138 134 131 126 123 124 120 120 126 135 145 151 161 169 178 177 174 173 173 169 165 162 162 164 165 162 160 149 119 126 128 114 100 84 143 155 175 199 189 203 205 211 210 210 210 210 212 203 198 195 183 169 156 146 138 136 137 128 125 122 124 127 132 140 146 157 163 171 177 178 186 201 209 209 202 191 179 159 137 138 136 142 141 141 134 125 123 127 119 126 126 124 122 116 114 118 122 130 135 141 140 137 143 155 162 167 169 170 170 171 172 167 163 160 160 164 165 163 161 149 120 123 125 115 98 87 155 163 181 199 188 205 203 208 209 210 210 209 210 206 202 196 190 180 169 160 151 146 134 132 127 125 123 120 129 136 138 144 173 190 186 184 195 207 213 213 208 200 186 164 146 149 151 146 140 140 136 130 123 119 124 127 125 126 129 131 132 134 133 137 131 135 149 162 169 171 172 176 176 174 170 168 166 168 162 161 162 164 166 164 160 145 122 131 121 98 118 132 166 172 184 204 202 212 201 203 203 205 204 203 202 204 201 198 189 176 164 155 146 144 142 139 139 140 139 142 148 150 155 179 187 189 192 199 199 209 215 215 209 202 185 166 154 149 156 157 153 150 150 150 144 138 132 128 128 128 127 126 125 126 127 124 126 132 137 142 156 163 171 172 172 170 166 164 162 162 160 161 162 163 165 161 154 136 126 128 92 85 111 145 175 179 189 207 214 211 200 198 200 200 196 192 188 187 184 187 181 176 169 166 162 160 156 154 156 156 154 157 163 171 184 188 192 195 197 200 204 213 216 215 210 200 185 172 161 158 160 164 163 162 164 166 166 163 162 155 150 144 140 136 135 136 141 146 153 167 180 185 179 172 166 164 164 163 161 159 160 159 156 158 160 163 164 160 149 132 131 127 103 112 122 147 182 187 193 210 210 206 200 195 196 193 188 196 202 207 208 203 198 196 193 187 182 174 171 170 168 168 171 180 184 193 196 195 194 198 200 202 207 214 217 216 212 200 187 175 166 162 164 166 167 168 170 171 176 177 176 178 177 176 180 180 178 174 176 180 181 184 188 189 193 186 181 177 166 164 158 155 158 155 154 156 157 160 164 158 144 134 130 130 142 144 137 142 190 196 200 209 207 207 198 192 194 196 200 204 206 206 205 201 201 203 203 203 203 200 195 193 193 193 191 197 200 202 199 200 201 203 205 207 212 218 217 215 210 200 190 179 172 167 168 170 173 176 180 181 183 185 188 190 190 192 193 191 193 193 196 194 195 195 196 194 193 184 178 176 170 165 158 152 152 150 149 151 155 158 163 158 144 137 129 128 143 152 146 145 197 202 203 207 206 205 196 192 196 199 202 203 202 205 211 211 210 212 211 211 210 206 206 204 203 203 203 205 203 203 203 203 204 207 210 210 214 219 219 214 208 201 189 178 174 171 170 172 177 180 182 185 189 191 196 197 196 196 198 197 197 194 194 199 198 197 195 193 190 184 177 172 168 164 154 149 147 148 147 148 152 155 161 156 142 137 135 134 134 150 151 143 202 210 208 209 208 204 195 196 199 198 201 203 203 204 209 213 215 217 216 215 215 210 212 211 209 208 210 213 211 212 210 206 209 211 215 214 215 221 217 212 210 205 191 180 178 174 172 174 181 183 186 190 193 196 197 201 200 202 203 201 204 200 199 201 201 198 196 195 188 186 177 169 166 163 154 150 150 149 145 147 150 151 160 154 140 139 142 149 145 151 145 149 208 210 213 209 204 224 194 202 198 200 204 206 207 209 212 215 216 217 218 216 214 218 214 214 215 217 213 217 217 215 215 213 214 215 217 217 219 220 220 214 211 207 194 182 179 172 175 177 183 187 187 189 193 201 201 201 202 204 203 201 200 200 199 198 198 198 195 191 185 179 176 172 163 162 161 153 150 148 147 145 146 149 160 155 133 137 142 159 149 127 129 163 212 213 216 211 193 198 198 197 199 201 204 207 206 213 216 217 218 219 217 215 216 215 214 215 217 221 221 219 216 215 214 213 214 216 218 219 221 222 221 217 212 207 196 184 179 174 174 176 180 182 184 188 194 200 201 201 202 204 203 201 200 201 200 197 195 196 196 193 187 181 176 173 167 164 158 154 153 150 146 143 144 151 159 152 137 123 138 154 128 137 137 140 213 216 217 214 185 172 195 195 200 203 205 209 208 210 210 212 212 213 212 213 212 214 213 215 218 220 216 209 208 203 198 196 202 210 218 222 220 221 219 216 212 206 198 187 178 174 169 166 166 166 172 182 189 193 194 197 198 199 198 197 197 196 196 190 188 188 188 186 182 177 174 170 166 160 156 152 153 146 146 144 144 148 152 146 139 102 118 137 101 148 115 114 214 218 220 219 213 214 199 196 200 200 203 206 207 209 209 209 208 207 207 207 208 209 216 215 214 206 202 191 178 161 164 185 191 204 218 223 220 219 218 216 214 208 202 193 181 169 160 157 153 149 148 152 165 179 184 189 191 193 192 191 190 189 189 189 185 183 182 181 176 174 173 171 164 161 158 152 151 144 144 144 144 149 152 147 141 83 109 127 92 137 167 174 216 219 220 221 200 199 191 194 194 196 200 203 203 202 202 203 202 203 202 204 205 205 207 205 198 187 177 158 139 125 148 188 194 205 218 223 222 220 220 217 217 208 203 195 182 163 156 156 156 157 141 124 132 151 168 174 181 182 184 185 186 184 184 184 180 177 174 172 168 166 168 166 163 161 159 154 150 145 143 141 140 145 151 144 133 56 93 117 98 149 138 114 220 220 222 222 221 197 192 196 191 194 196 197 196 193 193 196 196 194 194 196 198 195 194 186 172 161 146 123 106 115 171 208 213 212 220 224 222 220 220 217 218 208 204 196 186 164 164 170 175 183 159 122 105 115 143 160 168 172 176 179 179 178 177 178 174 171 169 166 164 165 163 160 160 158 156 153 148 144 140 139 140 138 151 144 122 21 61 97 107 151 99 57 219 221 222 221 222 216 191 187 187 188 188 187 187 184 184 185 186 186 183 183 183 178 173 159 149 130 110 87 81 120 198 218 222 215 218 221 221 219 220 218 214 205 201 194 185 166 172 187 191 187 171 139 97 95 97 125 147 157 162 168 168 168 167 166 166 162 159 157 157 156 155 152 154 154 151 149 147 140 137 135 136 142 147 144 103 8 15 33 106 152 17 5 222 222 224 224 223 217 189 190 186 183 181 178 176 177 175 177 178 179 177 173 170 165 155 139 125 97 78 80 100 141 201 219 222 215 215 218 219 216 217 214 211 203 198 192 183 166 178 193 196 185 173 146 94 95 98 97 114 135 147 154 157 160 160 156 156 154 150 151 152 149 148 147 147 148 143 139 141 138 133 132 134 139 146 148 85 4 1 1 76 164 1 1 222 224 224 226 223 220 199 188 181 177 170 167 167 169 167 169 169 168 166 159 153 147 132 114 95 80 87 117 140 160 200 213 219 213 217 219 217 215 212 209 205 196 190 183 173 165 178 185 187 175 164 137 87 104 116 108 98 110 127 139 140 147 151 148 149 147 144 143 142 139 138 139 139 140 134 131 135 135 131 129 131 137 147 143 59 2 0 0 16 146 36 1 223 224 224 225 224 227 202 189 180 171 164 163 156 161 159 160 159 150 152 150 138 130 111 98 78 87 127 146 158 170 188 207 206 209 212 215 217 213 208 200 195 190 177 170 163 161 171 171 162 148 151 111 95 114 126 126 113 102 106 122 133 135 139 142 142 139 138 139 136 131 130 133 133 133 132 133 132 133 129 128 131 140 145 143 23 1 2 2 14 116 39 0 225 223 225 225 223 228 194 173 179 164 156 155 153 149 146 147 145 144 139 132 124 115 99 77 88 120 148 161 172 176 178 183 190 197 200 201 203 200 194 186 182 171 162 157 146 150 148 142 136 132 106 91 112 123 129 134 131 117 102 103 118 127 129 133 133 130 128 129 127 123 122 125 124 125 127 128 128 130 128 126 129 140 148 135 17 0 0 49 189 123 40 0 223 225 226 225 225 229 195 169 183 166 150 146 142 142 140 140 138 135 127 119 110 97 79 88 116 143 158 168 177 182 182 167 166 167 178 186 188 185 181 173 163 155 142 133 127 128 130 115 93 84 74 102 128 137 135 136 139 129 114 99 99 112 122 125 126 123 122 121 119 115 113 115 115 117 120 124 126 127 124 123 130 138 150 118 7 0 9 152 167 137 59 1 226 226 225 227 229 226 199 164 189 170 151 140 136 134 132 131 130 124 118 112 98 85 84 116 141 156 166 174 179 179 181 179 166 154 155 160 169 165 162 155 144 132 116 115 115 92 61 43 51 70 95 128 133 137 141 139 134 133 129 114 97 95 108 115 116 119 116 116 115 110 109 109 110 112 116 120 121 122 123 124 129 137 150 96 2 0 8 114 143 149 23 3 226 225 227 226 232 226 196 146 185 169 153 143 136 132 129 128 126 120 112 99 85 80 124 135 141 158 168 179 187 184 186 178 176 167 155 144 147 144 141 134 119 108 106 93 56 48 68 82 89 98 114 132 142 150 144 145 136 132 129 120 108 91 90 106 110 113 113 113 111 110 107 106 107 109 113 116 117 125 123 125 131 138 149 82 2 0 1 4 88 8 1 3 226 226 226 227 229 226 201 163 184 185 151 144 138 134 132 130 121 110 100 89 88 121 126 132 149 167 177 184 188 193 189 186 180 169 160 148 145 135 122 112 105 100 85 57 61 75 87 96 108 125 138 146 151 156 152 147 143 136 130 120 110 100 90 89 103 105 109 112 110 108 106 107 104 105 106 110 120 122 126 127 132 140 145 56 0 0 0 38 170 110 0 0 226 226 228 228 228 225 208 181 217 186 155 139 145 140 136 129 117 106 96 89 115 136 123 137 157 172 180 189 194 200 199 195 190 178 163 147 140 131 115 105 100 83 62 65 77 75 92 108 126 139 150 157 162 164 157 152 146 138 131 122 111 102 94 89 95 99 107 107 107 106 107 108 108 104 98 105 120 125 128 129 135 142 131 34 1 0 16 126 194 150 5 4 225 228 228 230 228 226 212 193 209 203 168 140 146 145 138 124 115 110 103 104 133 125 124 142 161 173 181 192 197 204 204 204 202 193 178 160 137 109 95 81 69 55 56 69 62 91 114 132 147 153 160 163 166 164 160 153 146 136 130 123 111 101 92 95 102 102 102 103 106 107 109 112 114 109 101 109 124 126 131 132 138 147 116 14 2 1 26 129 162 128 24 3 227 228 230 230 229 229 221 206 197 179 176 147 150 154 141 127 121 123 111 116 136 111 114 135 152 168 180 191 196 202 200 202 203 201 194 181 157 130 117 106 99 90 87 91 106 123 141 150 162 161 163 163 163 158 155 149 142 133 126 116 103 93 87 85 106 111 107 110 108 108 109 112 118 115 111 117 129 127 132 134 140 145 92 4 2 1 1 15 91 24 0 3 230 228 230 231 229 228 226 212 225 164 167 158 151 158 149 126 129 138 124 122 128 95 99 121 140 162 165 169 170 168 162 163 154 157 158 171 174 162 146 130 127 123 126 132 141 149 145 139 141 136 136 141 137 136 143 142 134 123 117 107 94 80 69 76 114 126 121 120 114 110 113 116 120 118 114 125 127 125 133 133 139 147 68 2 1 0 1 9 137 71 1 7 229 229 231 229 230 228 227 214 208 213 179 162 151 161 158 138 138 146 133 129 131 100 59 74 86 113 117 111 109 103 108 102 98 100 94 105 109 114 125 137 142 135 117 100 89 79 76 76 77 82 78 80 78 81 84 91 95 95 90 79 67 57 61 66 120 132 130 129 121 115 118 121 123 120 118 128 130 130 134 132 139 134 51 0 0 1 6 104 154 84 7 21 229 230 231 232 233 229 228 216 197 193 183 170 157 158 161 151 148 154 147 138 134 113 75 50 17 19 47 59 85 82 80 82 83 86 85 85 80 76 75 78 81 77 69 63 59 61 62 63 63 60 64 66 62 62 60 54 38 32 16 9 10 10 42 82 138 133 134 133 125 118 117 122 125 121 122 130 130 134 134 136 141 113 37 0 1 2 38 137 117 54 28 26 231 231 232 233 233 230 230 220 226 217 192 178 160 158 164 161 158 157 155 145 141 127 112 99 65 37 28 21 68 91 79 83 75 69 68 56 59 68 70 67 63 56 54 54 55 57 56 55 54 56 55 51 53 50 45 41 19 22 9 7 10 22 79 114 143 137 140 140 127 122 122 125 123 119 127 130 131 134 134 140 142 92 27 2 2 5 10 75 118 43 24 15 230 231 233 231 231 228 230 223 226 184 223 200 161 157 162 162 161 156 156 147 143 134 135 140 126 102 69 58 64 114 115 163 101 70 82 77 67 62 58 61 50 53 53 51 52 50 46 45 46 41 40 62 89 56 57 63 26 22 10 20 39 77 120 133 144 144 138 132 125 124 126 125 124 119 128 129 132 135 135 141 137 77 20 7 19 30 26 36 59 21 10 25 230 232 231 232 233 233 230 229 231 215 196 227 168 160 164 164 158 158 158 156 143 139 146 157 157 160 114 86 69 96 147 181 165 102 148 146 94 108 135 113 72 54 68 108 99 69 43 60 89 72 63 113 131 62 76 64 23 23 42 65 104 122 135 142 141 144 139 129 126 124 127 125 116 121 128 132 132 137 140 143 128 67 29 17 23 25 21 50 41 17 27 56 232 231 232 233 232 233 232 232 217 232 174 222 196 164 162 163 159 158 157 159 147 140 154 171 170 172 155 114 102 103 119 178 180 142 177 174 128 154 185 169 133 102 134 164 155 129 79 109 141 112 101 140 145 80 59 56 55 64 86 119 136 138 141 139 139 144 139 130 127 127 124 119 119 123 129 133 133 135 142 144 118 61 34 25 20 18 39 70 48 44 54 53 232 232 233 233 232 233 233 232 226 219 216 225 216 176 157 163 162 156 156 159 151 141 161 173 181 173 170 136 122 117 110 155 176 169 193 186 157 185 196 184 170 130 170 180 172 157 117 144 159 139 123 139 135 86 70 81 87 88 115 138 135 142 145 138 140 144 139 129 126 125 120 115 120 123 128 132 134 137 146 142 108 55 30 18 14 22 33 56 61 47 52 46 231 233 232 232 232 234 235 232 235 208 221 237 219 201 164 160 162 158 155 158 153 146 163 173 183 181 179 166 131 136 151 157 146 143 177 179 165 188 193 185 172 145 180 178 177 167 142 161 159 134 110 121 125 102 99 94 89 114 133 140 146 148 143 135 137 142 136 128 125 120 116 117 122 124 128 132 135 138 149 134 103 64 35 21 17 24 35 69 109 76 49 59 231 232 234 233 232 233 233 233 219 230 188 231 231 221 182 154 160 161 157 157 155 150 164 175 178 182 184 184 150 126 138 149 158 151 152 147 136 166 183 173 165 143 172 163 164 155 138 140 128 120 113 118 116 101 86 90 106 129 135 142 146 141 139 133 138 139 133 125 122 116 114 120 124 125 129 134 136 143 147 126 104 76 52 32 28 25 36 115 152 134 83 107 235 234 233 235 235 233 235 235 227 217 209 231 230 234 211 166 155 158 157 156 154 153 159 173 179 184 183 184 177 132 125 131 144 156 164 165 149 140 137 136 130 126 146 136 130 123 114 120 127 126 120 112 99 77 88 100 125 137 140 145 144 139 135 135 142 139 131 122 120 113 116 122 123 124 129 134 138 147 139 121 111 96 74 50 53 58 59 100 128 155 161 171 234 233 234 234 236 236 236 235 241 214 225 237 237 232 233 197 157 160 158 156 156 157 159 174 180 184 184 179 180 171 123 115 121 134 147 160 161 165 149 133 126 137 130 143 146 141 128 127 123 109 99 86 81 82 109 127 134 134 143 146 144 140 138 139 143 136 126 118 115 115 118 123 120 125 132 138 141 145 130 122 118 124 119 120 119 127 146 153 138 184 194 195 233 234 234 235 235 235 235 236 233 225 198 234 235 232 234 223 174 158 158 156 156 160 162 172 178 184 180 186 177 184 162 125 109 110 113 120 115 127 118 113 117 127 110 112 103 100 98 97 89 78 78 72 78 107 121 131 132 137 144 143 142 142 141 141 142 130 121 114 111 116 119 121 122 127 133 139 142 130 122 120 123 153 174 181 173 190 194 148 156 188 203 200 235 233 235 236 235 236 236 237 225 225 206 233 234 234 231 235 207 162 157 155 158 163 164 169 178 184 182 180 180 175 177 165 124 109 95 89 94 95 93 102 96 87 89 92 89 83 83 75 70 70 73 85 108 127 128 129 137 142 142 145 146 143 137 143 141 127 117 110 111 117 121 119 122 127 134 138 139 118 121 124 129 166 197 201 195 206 201 197 145 197 206 205 234 236 236 236 236 236 235 236 233 207 235 238 233 233 234 234 232 187 160 155 158 159 167 172 172 178 183 180 181 176 171 171 161 129 104 98 87 87 87 80 73 79 80 72 69 70 68 66 72 77 94 115 124 126 128 128 131 140 144 148 146 139 139 140 131 119 115 113 117 120 121 122 124 127 133 137 112 118 123 125 133 175 206 209 215 211 213 208 161 205 212 213 236 236 236 236 236 236 236 236 227 203 215 237 233 234 233 234 232 228 176 155 162 158 167 173 175 179 183 183 183 177 172 165 162 163 143 119 105 96 85 75 74 72 70 72 76 76 79 87 94 107 117 125 126 128 128 130 134 145 148 147 144 138 140 137 128 120 114 115 117 119 120 123 129 132 135 113 111 122 125 131 139 179 215 216 218 217 217 182 169 181 219 216 236 236 234 236 236 236 235 236 229 224 223 238 239 234 233 236 233 237 214 166 154 157 163 173 177 178 180 184 183 178 171 165 156 151 148 142 131 119 106 98 101 100 97 95 98 95 101 108 116 120 121 121 121 123 127 131 138 146 149 146 139 136 137 130 124 116 114 114 118 118 119 122 122 130 114 105 115 123 126 134 142 175 217 216 218 218 218 209 206 208 218 218 236 235 237 236 236 236 235 236 232 237 234 235 238 235 233 236 236 233 237 201 160 159 162 168 174 178 180 183 186 182 175 162 159 149 144 141 131 123 117 113 112 113 109 103 102 107 110 114 117 119 118 119 122 128 130 139 147 150 149 143 138 136 132 125 121 114 115 116 116 116 118 124 124 115 100 109 112 126 128 136 142 165 217 221 223 221 220 222 217 225 218 221 237 235 235 235 235 234 235 234 240 232 237 235 234 235 234 235 237 237 237 232 181 157 160 164 173 178 178 181 186 183 178 174 164 151 142 136 128 125 121 119 119 115 110 108 109 111 112 114 115 115 117 120 123 129 136 148 155 154 147 140 137 134 128 124 119 115 114 115 119 116 118 120 112 95 102 115 122 128 130 138 144 154 209 220 221 221 222 222 225 219 221 221 236 236 236 236 238 238 236 238 238 235 236 235 235 236 236 236 236 235 235 237 221 179 157 164 170 176 181 181 185 188 187 182 174 162 153 145 139 132 129 123 121 117 112 113 116 117 118 120 120 122 124 127 127 136 149 157 157 150 144 140 136 131 125 121 115 113 115 115 114 116 122 108 97 102 108 117 124 127 134 141 147 151 195 228 223 223 224 223 224 224 224 224 234 237 237 237 237 237 237 236 237 236 234 236 235 237 236 235 237 238 234 237 241 226 167 157 169 172 178 182 186 190 192 189 186 182 173 164 158 151 145 140 132 127 125 125 127 127 130 130 132 135 134 135 142 153 165 164 155 148 142 139 134 128 122 115 112 112 115 114 115 118 100 90 96 104 116 121 126 130 135 143 148 151 174 227 224 226 225 226 225 226 226 227 239 237 238 238 239 239 239 239 237 238 237 235 237 234 236 235 235 238 236 232 235 234 218 165 162 173 175 181 185 191 195 195 194 192 187 183 180 174 169 166 160 158 155 155 156 156 154 151 151 149 151 154 162 169 166 163 153 146 141 136 131 122 115 112 111 112 114 114 110 94 84 93 98 108 119 124 127 134 138 145 149 151 160 210 230 229 228 229 229 228 230 230 238 238 239 240 238 239 239 239 238 238 238 237 236 235 237 235 236 233 235 234 235 235 240 213 168 168 174 177 182 190 195 197 196 196 197 194 194 187 186 182 180 178 176 176 176 171 168 165 163 162 165 170 171 165 161 159 149 142 136 131 125 118 110 109 107 108 110 106 87 81 92 97 107 114 121 125 129 136 140 145 148 150 156 184 232 230 231 232 232 232 231 232 237 238 238 238 239 239 239 239 236 235 236 236 236 236 236 236 236 235 236 237 236 236 238 233 217 169 169 179 181 185 194 195 196 197 195 195 194 193 192 189 185 181 179 178 177 173 175 177 177 178 172 167 167 163 162 153 147 137 130 127 123 112 105 107 108 114 98 74 79 92 98 104 116 119 122 130 135 135 140 149 150 149 158 161 218 233 233 232 233 233 235 235 236 237 236 236 236 236 236 236 236 235 236 235 236 236 236 236 236 236 236 235 234 235 234 237 242 197 166 171 178 180 184 194 194 196 194 194 193 192 191 187 186 181 181 180 179 180 178 177 175 174 166 163 163 161 157 147 141 132 126 126 113 102 104 105 108 90 73 75 86 97 103 109 113 119 129 134 138 138 141 148 150 152 157 158 188 237 234 234 238 236 232 235 236 236 235 236 236 235 236 236 237 236 236 236 236 236 236 235 236 236 236 235 236 236 237 232 235 220 177 172 175 180 180 189 190 191 191 189 189 188 188 184 183 180 179 182 179 180 177 174 171 165 160 158 160 156 147 139 134 131 125 112 103 104 104 98 80 65 75 86 92 102 106 114 113 122 133 138 140 142 145 149 151 155 154 160 162 215 239 236 232 235 235 236 235 235 235 235 235 235 235 235 234 234 234 234 234 234 234 234 234 234 234 234 234 234 234 240 235 225 188 181 179 180 181 182 184 185 186 184 184 184 182 179 178 176 177 178 179 173 169 165 159 155 155 156 154 144 135 132 131 126 117 105 99 101 90 66 61 74 86 87 94 103 108 117 120 129 136 140 142 145 148 147 151 154 155 159 157 179 229 240 234 238 236 236 234 234 234 233 233 233 232 232 234 234 234 234 234 234 234 234 234 233 234 234 233 234 235 234 230 228 193 184 183 182 174 178 180 182 182 181 180 178 178 175 170 168 170 172 172 166 161 159 152 151 152 158 152 137 131 129 126 116 103 101 96 73 55 62 78 82 86 96 99 106 111 118 131 135 140 141 144 146 148 148 151 153 161 157 158 162 205 237 235 235 234 236 233 233 233 233 233 233 233 232 233 233 233 233 233 233 233 233 233 233 233 233 232 232 234 234 232 229 193 185 184 182 177 171 171 171 173 174 172 169 166 163 161 163 161 162 162 157 151 151 151 154 150 142 136 130 125 126 117 100 88 77 61 56 64 73 80 87 92 96 103 111 120 127 134 140 141 142 143 145 145 148 153 157 160 161 161 162 172 220 238 237 236 235 232 232 232 232 232 232 232 232 232 232 232 232 232 232 232 232 232 232 232 232 231 231 232 232 232 223 193 187 184 181 178 175 169 164 162 160 162 162 160 156 155 154 154 152 152 147 145 145 145 139 137 132 127 126 125 105 89 74 62 58 59 66 75 81 87 91 96 100 109 121 130 135 137 138 142 144 144 142 144 148 153 157 161 163 162 164 165 186 229 236 235 235 232 232 232 232 232 232 232 232 232 232 232 232 232 232 232 232 232 232 232 232 231 232 232 230 231 215 194 188 185 184 180 181 172 162 156 152 154 152 149 148 143 143 143 141 138 141 138 137 136 131 125 121 123 120 91 67 58 59 62 67 71 77 82 84 88 94 100 105 117 129 136 137 138 141 143 143 143 143 145 150 154 159 164 164 164 166 171 175 194 230 237 236 232 232 232 232 232 232 232 232 232 232 232 232 232 232 232 232 232 233 233 232 231 231 232 230 233 211 196 191 189 186 183 179 175 168 159 153 147 141 137 138 138 138 139 138 137 137 133 132 129 118 122 124 103 71 59 60 63 71 73 77 80 82 83 86 92 101 109 118 126 134 137 139 138 141 143 143 142 146 149 154 157 162 165 168 166 168 172 174 176 204 230 236 232 232 232 232 232 232 232 232 232 232 232 232 232 232 232 232 232 232 232 231 231 231 231 231 228 206 198 191 188 188 184 181 178 172 167 163 154 143 135 132 130 127 128 130 129 126 126 126 121 124 112 85 70 66 70 70 70 72 77 80 82 82 83 90 96 106 117 126 132 135 137 139 139 143 144 141 142 146 150 157 159 161 165 165 166 168 172 174 175 179 203 233 232 232 232 232 232 232 232 232 232 232 232 232 232 232 232 232 233 232 232 231 232 232 231 231 225 206 199 193 190 188 185 183 180 175 170 168 163 155 149 142 139 135 133 131 127 126 121 115 106 85 77 73 75 79 75 75 76 77 79 82 84 84 87 93 101 113 121 129 135 137 138 140 142 144 145 144 142 147 150 156 160 164 164 165 166 169 173 174 175 179 180 207 232 232 232 232 232 232 232 232 232 232 232 232 232 232 232 232 232 232 232 232 232 232 231 230 219 206 201 196 191 188 186 184 182 177 172 170 166 163 159 150 144 135 129 124 117 109 103 95 86 90 87 83 82 77 81 81 81 82 84 87 86 88 92 101 111 123 130 134 138 138 140 142 144 146 146 144 144 148 152 158 162 165 165 167 169 169 173 175 174 177 179 179
