P2
# Generated by OpenCV 4.2.0
92 112
255
232 231 238 195 90 61 65 77 80 86 95 107 121 117 122 125 130 125 119 127 137 125 121 120 133 131 137 135 141 142 130 119 101 83 73 70 67 72 75 58 68 54 59 81 69 62 52 52 54 61 57 45 53 62 60 69 87 68 59 52 51 57 57 62 45 39 47 46 44 45 38 40 48 52 51 53 48 40 36 30 33 33 30 36 35 32 36 40 39 43 50 44 230 227 223 131 68 69 79 81 82 89 94 96 106 117 132 133 142 138 138 137 149 149 142 148 151 161 154 160 167 156 146 135 117 104 91 84 83 80 80 74 69 69 51 67 76 61 65 53 52 62 61 54 51 59 68 62 66 75 65 62 52 48 53 57 57 44 36 40 44 41 40 38 39 45 50 51 50 46 38 31 30 34 33 32 31 31 32 37 38 40 43 41 229 234 183 72 66 69 61 68 86 99 96 101 110 125 143 152 148 159 162 162 163 177 170 171 180 182 182 181 183 169 162 157 140 129 113 102 90 78 79 84 82 80 69 51 70 75 66 66 53 50 56 56 54 50 56 63 59 59 70 70 67 52 43 50 53 55 45 34 38 40 39 38 35 34 44 50 50 56 48 38 31 28 35 37 26 32 34 31 35 34 37 43 239 223 113 63 62 53 64 87 100 95 87 92 116 136 151 164 172 169 175 180 179 189 191 185 189 190 189 191 188 179 175 167 161 151 136 120 106 95 86 77 77 84 86 60 49 73 76 65 58 49 45 55 52 50 54 53 58 58 60 71 66 63 50 40 41 49 57 51 37 35 39 39 40 36 34 43 49 52 55 44 38 27 36 36 27 28 33 33 28 34 35 38 243 176 64 61 58 69 85 91 90 89 94 111 130 143 161 175 185 189 189 194 192 196 197 195 196 193 193 190 188 188 185 180 175 167 159 147 133 125 115 101 85 78 87 85 58 51 74 69 62 60 51 44 51 50 51 53 51 54 58 63 69 65 62 51 41 36 40 53 53 43 35 37 42 41 37 34 42 50 52 52 50 40 30 31 25 28 26 32 30 30 32 35 234 116 59 65 75 79 79 80 86 86 97 114 143 165 176 182 190 200 202 199 198 195 198 198 198 196 193 192 192 191 189 189 186 183 176 172 164 155 144 137 128 112 94 94 88 61 55 72 62 65 59 47 45 51 53 55 52 51 51 56 60 63 63 59 52 45 38 39 48 55 52 40 36 39 37 42 39 42 50 47 51 50 27 28 27 29 29 28 32 29 32 33 179 79 68 74 70 65 75 80 85 86 104 133 162 181 187 190 193 203 206 203 201 196 196 198 196 194 193 194 195 192 190 192 191 187 185 183 180 177 171 165 157 147 131 110 101 83 59 61 68 54 63 62 52 46 51 51 56 57 51 48 53 63 66 62 60 53 43 37 35 44 57 55 40 33 40 39 38 34 38 45 45 48 46 28 22 28 28 31 30 31 29 33 90 75 71 60 59 63 72 84 83 95 126 155 177 185 192 196 200 203 203 201 201 199 197 198 198 195 193 195 195 192 190 193 191 191 190 193 190 187 183 177 170 161 151 135 108 95 79 63 66 59 51 64 61 51 45 49 50 57 59 54 51 52 62 64 63 62 58 43 33 32 42 58 59 41 29 36 38 35 37 39 45 46 51 46 27 19 22 25 31 30 27 30 77 69 59 54 57 53 78 85 86 114 141 171 186 188 196 198 201 202 200 200 200 199 200 201 199 197 195 199 197 193 193 192 193 194 192 193 194 192 188 184 178 170 162 150 134 108 92 73 66 68 61 51 59 57 52 49 50 51 54 59 57 49 52 63 62 62 65 57 40 30 33 38 51 53 38 28 38 41 33 35 43 46 54 54 40 23 21 24 24 27 28 29 71 59 56 56 50 53 86 86 98 123 151 175 190 196 197 197 200 198 200 200 201 200 199 197 197 197 195 196 195 196 194 195 196 196 196 198 196 192 192 190 186 181 173 163 151 131 114 90 64 71 70 55 52 62 55 53 47 48 44 49 60 59 51 49 57 61 64 65 56 35 29 29 31 43 54 38 31 35 34 31 34 39 50 52 50 38 23 21 25 24 28 30 61 58 57 51 38 67 89 90 107 138 165 186 194 197 198 197 198 198 200 200 199 198 198 195 195 195 194 198 197 194 194 196 197 198 199 197 196 193 193 192 191 189 180 174 163 147 132 106 82 61 73 71 51 50 61 54 54 49 50 45 46 53 61 52 46 56 60 65 65 50 39 34 30 33 43 49 44 33 31 37 35 32 39 47 52 47 32 22 24 25 24 25 59 57 53 41 40 78 93 98 119 151 177 193 195 197 197 198 200 201 202 201 199 199 199 200 199 196 194 197 198 195 197 197 196 198 199 199 197 196 194 192 192 192 185 183 175 165 148 129 106 77 63 73 69 49 50 58 49 51 55 54 47 45 51 62 49 43 55 61 62 63 50 38 30 27 30 38 46 43 31 35 44 35 28 37 44 53 47 29 23 25 25 22 62 56 45 40 56 84 90 102 139 167 187 197 197 198 198 199 199 201 200 200 199 200 200 200 199 196 195 196 197 195 199 199 199 199 199 198 196 197 195 195 195 192 192 192 185 176 164 149 130 98 75 63 77 69 49 50 60 50 51 51 48 46 44 55 62 52 47 51 60 61 67 49 37 28 29 28 37 49 45 34 39 42 35 32 35 42 54 46 28 24 26 24 69 59 46 48 70 86 90 110 147 176 194 199 198 196 198 201 199 200 201 200 199 200 201 199 196 198 197 196 194 194 199 200 201 199 200 200 197 194 197 197 197 194 191 195 190 181 174 158 148 121 94 67 63 75 69 46 55 64 48 51 48 49 50 49 51 57 51 40 48 55 56 60 48 36 25 29 31 40 50 42 35 35 42 36 33 34 40 55 46 28 26 26 55 52 49 52 73 88 92 122 163 187 197 198 199 198 200 201 202 203 203 202 201 201 204 202 200 200 198 196 195 198 199 200 199 198 198 198 196 196 197 196 197 197 196 196 192 187 182 169 157 143 111 82 61 62 70 62 48 55 58 50 48 40 41 42 44 52 56 50 40 48 57 58 56 50 37 29 27 25 45 53 40 33 37 45 34 33 33 40 50 44 25 26 53 48 47 57 82 93 94 129 173 193 197 198 199 200 201 201 202 204 203 200 202 204 205 202 202 200 201 201 203 200 199 198 198 198 198 198 196 197 198 197 199 197 198 197 195 194 189 178 167 150 134 103 78 63 62 70 63 47 53 56 50 43 38 37 39 49 48 53 55 45 48 57 57 58 50 41 33 27 28 42 45 39 35 40 45 35 32 35 40 49 37 24 56 48 46 69 95 86 92 144 187 197 197 197 199 201 202 203 201 204 204 204 204 205 204 202 202 198 197 203 201 199 200 200 199 198 198 196 197 199 197 198 199 197 196 195 197 195 186 181 178 163 146 125 96 73 62 60 72 61 48 55 55 49 44 36 33 37 41 48 50 52 44 46 55 55 56 44 41 36 35 36 43 45 39 34 43 44 33 30 36 41 44 31 49 41 50 71 93 82 99 160 196 198 199 199 198 201 202 203 204 205 204 203 206 207 205 205 202 199 198 201 198 199 200 202 200 199 200 199 198 200 201 199 199 199 197 196 196 195 189 183 180 171 152 138 120 90 73 62 65 76 61 47 50 52 46 44 32 35 33 43 49 44 54 43 41 51 55 51 41 36 38 40 45 46 41 37 36 45 42 33 32 37 39 42 52 54 67 69 82 83 110 174 197 198 198 201 200 202 202 203 206 206 204 203 205 206 206 203 203 203 201 198 200 196 198 202 200 198 199 199 197 197 199 199 198 200 200 198 194 193 191 185 179 173 161 141 134 115 87 69 60 67 72 55 49 53 52 47 42 35 31 31 42 49 45 50 46 42 47 54 55 41 39 35 35 45 46 39 33 38 48 39 36 34 37 43 37 51 66 70 86 77 128 186 198 198 199 200 201 202 202 202 205 208 207 205 206 204 204 203 203 200 198 198 197 194 197 198 197 197 198 199 197 197 198 201 199 200 199 194 194 192 189 188 180 173 166 154 134 134 111 85 71 63 69 67 59 52 52 48 45 44 31 32 27 40 52 41 51 45 41 46 54 51 48 41 34 31 39 49 43 34 42 47 44 36 34 41 38 56 61 82 86 84 147 193 197 198 200 200 200 200 202 203 202 207 203 206 207 202 203 204 202 199 198 200 195 192 198 199 197 194 197 197 195 198 200 201 200 200 197 194 192 193 189 187 181 176 169 161 147 130 124 105 86 70 57 66 64 50 46 48 49 46 41 32 34 26 44 54 45 48 49 47 52 52 45 50 46 39 33 38 46 42 28 40 44 38 30 36 55 61 67 89 76 97 164 192 197 199 199 198 198 199 199 202 204 205 205 207 203 203 204 203 201 200 201 202 197 197 197 197 197 196 197 196 196 196 199 200 201 200 199 196 192 193 191 186 181 179 169 164 156 144 128 119 98 81 67 57 63 63 51 48 45 48 46 36 35 38 30 46 57 50 43 50 51 47 41 43 48 45 42 43 41 41 39 30 36 40 36 32 59 56 74 88 75 121 171 193 198 197 198 196 198 200 200 200 206 204 205 206 205 202 204 202 200 201 200 198 197 197 195 195 196 197 198 197 197 197 198 200 199 200 199 197 195 194 190 187 182 177 170 167 158 151 142 128 111 92 78 63 53 61 66 50 48 47 49 44 35 32 32 31 50 59 46 46 53 51 38 37 40 44 48 44 38 42 47 41 27 36 44 34 48 49 80 84 93 133 177 195 196 197 196 198 197 199 201 201 206 206 206 205 204 202 201 201 201 200 201 198 193 193 191 191 194 194 193 194 194 196 197 201 199 199 198 195 193 194 190 186 181 176 173 169 160 151 146 138 122 107 88 74 65 55 65 63 52 49 48 47 42 33 32 33 27 50 56 46 48 51 50 37 37 38 42 47 45 43 45 47 38 28 45 42 47 61 83 81 88 137 182 195 195 197 197 198 196 198 199 200 204 204 205 203 204 202 202 202 202 200 196 192 190 191 191 191 196 199 197 193 193 195 194 198 199 199 194 192 194 194 192 186 180 177 173 166 163 156 150 142 126 120 112 85 73 71 63 69 63 49 45 46 44 39 36 32 34 32 51 55 44 49 55 46 41 38 38 43 48 47 42 44 50 34 33 49 53 75 88 70 91 153 188 195 195 195 197 197 197 198 200 201 203 204 203 203 204 201 202 202 199 197 197 197 194 190 191 193 195 197 198 197 196 198 197 197 196 197 196 196 196 193 192 188 185 179 172 167 168 161 155 147 138 129 120 107 78 67 66 64 69 59 49 48 46 40 38 33 33 36 36 52 53 35 46 52 44 39 39 44 45 45 50 47 42 49 32 46 45 79 81 68 108 168 189 195 196 195 195 196 198 199 199 199 203 205 205 206 204 201 201 199 197 200 201 197 193 191 194 195 196 195 198 197 195 198 197 198 196 195 196 197 194 192 192 189 186 179 175 173 165 162 159 152 142 134 126 116 105 77 64 64 62 69 61 49 46 42 38 40 33 36 40 40 51 50 37 50 48 39 36 43 49 44 44 52 49 44 44 40 62 85 74 59 119 175 190 195 196 195 195 195 195 199 200 199 204 204 204 205 203 200 198 198 200 200 198 194 192 192 194 195 196 197 195 195 195 197 197 195 197 198 195 195 194 194 193 190 185 179 176 173 169 162 161 153 145 138 129 118 111 105 74 66 65 70 75 58 47 45 39 40 39 34 35 38 39 53 47 42 52 42 39 33 37 53 52 41 51 53 46 46 81 82 56 57 124 183 193 195 197 195 194 196 197 200 200 202 204 204 204 204 204 200 196 198 201 196 195 196 192 194 196 196 196 195 195 196 196 197 197 195 198 199 198 194 192 194 195 190 185 178 176 174 170 164 160 155 147 140 131 122 115 110 96 64 62 67 74 72 55 44 47 43 43 38 36 35 38 41 53 42 44 47 39 40 32 28 46 51 48 52 57 53 87 77 49 54 128 189 193 195 196 196 196 196 199 199 199 202 203 203 205 203 201 201 200 201 201 197 195 196 192 193 194 195 195 194 195 196 197 198 198 198 198 199 197 198 198 193 192 191 187 179 177 174 171 166 161 155 150 144 136 126 118 113 110 86 61 63 67 74 70 48 46 45 44 40 35 37 37 39 43 53 38 49 41 32 40 33 25 35 50 52 54 61 85 70 46 49 140 193 194 195 197 197 198 196 197 198 198 199 201 202 204 202 200 200 200 203 202 197 194 195 194 192 192 193 192 193 196 196 197 197 198 198 198 198 197 198 199 196 192 189 188 184 180 176 174 170 165 159 153 148 140 133 125 119 112 105 75 59 63 69 76 68 49 47 46 44 37 35 36 33 39 45 49 47 52 34 30 35 38 35 36 48 58 56 81 68 44 51 150 195 194 195 199 198 198 199 198 198 197 199 201 201 202 204 202 200 200 202 198 197 196 194 194 193 193 190 190 192 196 196 197 197 198 195 197 195 195 196 199 195 192 190 183 182 180 176 173 171 167 162 156 152 149 141 133 123 115 110 97 71 62 64 68 74 62 49 48 46 42 36 37 35 39 37 47 49 51 47 32 27 31 38 42 35 47 58 76 68 43 52 157 197 194 194 199 196 196 199 198 197 197 197 198 198 202 203 201 200 200 200 197 196 196 194 191 190 195 191 191 193 194 195 196 194 194 195 196 195 194 196 196 193 192 190 184 176 176 176 172 170 168 164 158 153 151 143 140 129 122 110 105 93 68 59 67 67 71 60 51 45 41 40 39 40 37 39 38 49 49 52 38 30 26 24 29 39 40 45 76 71 47 51 160 198 198 198 198 196 195 196 196 196 196 195 197 198 201 200 199 199 198 198 199 195 193 190 189 188 189 190 189 191 194 195 194 191 190 193 192 193 193 194 195 194 192 188 185 179 172 175 173 170 171 168 162 158 155 150 142 136 127 114 105 100 79 59 61 71 66 70 59 49 44 44 39 42 39 44 36 46 47 55 45 37 30 23 25 28 36 32 76 67 45 60 164 196 196 198 195 190 189 191 193 192 189 191 196 200 200 200 198 194 192 193 194 193 189 188 188 189 188 187 185 190 193 193 192 190 188 189 189 189 189 193 194 192 186 182 182 181 177 170 164 168 167 169 164 158 156 154 149 144 131 120 110 100 92 69 60 67 68 62 65 61 47 45 41 39 38 36 39 41 50 48 53 44 32 23 21 25 32 32 76 66 47 62 169 199 197 188 174 169 173 174 173 170 169 178 186 190 193 192 188 187 186 186 188 188 183 185 187 187 187 186 183 190 190 189 186 186 186 185 187 187 188 189 192 192 185 178 179 177 174 169 163 161 162 162 160 156 153 156 153 146 137 127 114 103 96 81 66 64 69 63 58 69 53 43 44 42 38 35 44 36 45 43 54 46 32 30 21 22 26 32 77 66 45 65 177 199 185 165 150 139 137 140 130 123 123 117 121 128 133 138 144 155 167 178 176 180 180 181 183 182 183 187 184 185 188 185 183 181 180 176 177 174 179 180 175 170 165 158 156 158 154 142 141 137 145 147 140 144 144 139 144 142 145 136 119 108 95 88 79 66 64 66 60 60 63 49 45 40 38 36 39 41 38 45 47 50 37 29 30 21 24 26 80 67 42 65 184 171 146 124 108 101 102 100 90 84 84 85 87 79 82 96 112 127 138 155 161 169 179 179 177 183 186 186 182 181 185 180 176 175 170 166 159 159 149 130 126 112 102 96 86 87 90 88 92 90 97 105 101 107 101 103 113 118 122 134 128 114 100 89 88 73 64 65 67 56 64 61 47 45 39 38 34 42 41 42 45 51 47 30 30 29 21 25 71 65 40 75 160 116 113 103 103 100 90 84 75 74 69 68 73 71 73 86 92 103 116 137 144 154 168 174 176 181 184 180 176 178 177 174 171 170 161 149 136 133 105 95 90 82 71 63 65 64 69 71 71 68 67 66 74 82 79 71 73 78 87 98 117 116 106 93 86 85 68 62 64 66 57 63 53 50 43 37 34 39 42 39 42 47 50 40 26 31 26 24 55 57 41 87 148 116 126 111 115 117 108 99 86 75 74 72 67 63 62 72 79 95 99 120 137 146 159 171 174 180 183 180 177 174 175 170 166 163 155 130 121 107 95 90 88 74 55 62 68 73 69 70 64 60 56 60 62 66 72 78 73 67 66 67 65 71 81 84 85 87 82 63 63 64 60 55 62 56 44 41 32 41 39 39 46 45 52 47 37 25 30 27 55 59 45 100 163 142 143 148 158 161 161 160 155 147 147 138 125 118 108 95 93 96 109 122 140 143 156 167 176 182 182 179 177 174 172 165 163 159 149 133 118 109 98 94 94 74 71 75 78 84 91 87 86 85 89 99 100 94 91 88 83 81 84 81 67 61 59 62 69 87 90 76 66 65 66 60 54 61 55 45 36 35 40 33 43 47 54 47 45 35 29 33 47 54 49 118 182 172 180 183 176 173 177 179 173 171 169 164 156 149 148 140 134 130 130 134 141 144 156 167 172 179 179 175 174 170 167 165 159 152 142 130 119 119 113 111 103 100 110 114 119 127 130 136 137 139 143 141 141 137 137 133 121 104 94 91 81 76 73 65 60 77 86 90 74 65 66 70 56 51 62 50 40 29 38 35 36 47 52 48 41 42 31 33 45 52 49 134 202 190 186 179 173 170 173 173 169 173 170 166 160 155 156 151 145 139 135 136 139 149 155 163 169 178 172 170 173 170 166 162 153 147 139 131 131 129 122 112 113 122 132 140 146 152 156 158 157 155 159 156 154 152 150 147 146 139 127 113 104 89 78 76 72 76 84 98 90 65 66 69 62 54 59 59 46 33 35 36 35 41 49 56 43 45 31 28 41 52 51 151 203 184 179 175 169 168 168 165 166 172 169 161 163 160 159 158 156 152 145 140 138 141 147 157 171 178 175 182 180 172 168 161 147 141 135 126 122 114 108 114 129 142 152 160 162 168 169 168 164 160 161 162 158 151 150 146 143 144 140 135 132 120 111 99 91 77 75 91 97 76 63 68 65 58 57 61 54 37 35 33 35 36 47 56 49 40 43 26 38 51 57 163 192 172 171 169 166 160 161 155 151 142 131 130 133 137 143 148 156 155 151 149 144 139 139 150 168 180 187 193 184 177 167 153 142 136 125 117 109 104 116 134 146 153 161 165 167 166 167 164 159 155 151 152 149 144 142 138 134 131 131 129 129 131 126 118 104 92 81 91 100 93 75 61 68 64 56 58 58 42 35 35 37 36 40 53 59 38 41 39 45 44 61 174 185 163 163 159 154 151 124 96 93 95 102 96 93 95 91 99 113 125 139 146 148 144 139 143 161 177 188 188 185 183 168 153 141 134 125 111 101 111 129 139 145 141 128 120 120 124 125 122 119 120 120 128 130 131 132 126 122 119 116 120 119 120 116 113 108 100 94 97 102 98 88 65 59 64 60 51 62 52 38 36 35 38 34 44 58 49 39 35 50 40 64 182 186 166 166 158 140 101 80 88 82 71 62 49 43 47 44 50 57 72 110 133 145 147 146 146 156 177 192 194 191 187 171 158 145 134 120 103 105 119 129 131 120 102 79 83 72 71 80 80 81 83 83 81 77 84 101 114 122 119 110 109 114 113 113 112 109 105 99 101 102 95 91 75 62 61 64 56 56 60 44 36 38 34 36 33 51 55 38 36 43 37 71 190 186 174 159 134 93 70 81 64 49 40 32 54 45 38 63 44 52 60 68 99 132 148 152 154 158 179 194 199 196 188 171 159 150 131 111 106 110 118 124 117 94 77 49 44 46 67 43 45 49 57 55 57 60 61 61 65 87 109 115 112 110 118 113 108 110 108 104 99 98 93 92 82 68 59 55 60 58 61 53 43 38 34 37 31 42 56 45 29 39 39 76 194 188 177 160 108 89 52 32 30 35 38 36 101 77 23 75 54 90 124 103 75 88 136 155 160 165 180 196 201 198 192 176 161 147 127 116 115 119 126 126 106 72 44 75 58 60 133 41 24 48 39 34 42 40 44 49 47 44 60 88 107 104 96 103 114 111 106 102 95 93 93 93 85 73 59 58 58 58 60 65 52 40 34 35 35 35 48 53 33 39 40 88 197 190 182 174 141 78 51 58 63 66 76 70 72 58 58 76 66 98 122 107 85 72 89 136 173 176 183 199 204 201 197 181 162 145 130 136 128 136 137 101 69 54 59 97 79 66 75 47 54 67 58 60 61 49 34 30 38 48 58 64 80 87 94 99 101 105 107 106 103 98 97 91 85 78 67 53 57 55 55 51 60 51 42 34 36 34 39 49 46 42 39 100 205 195 190 185 178 162 149 132 136 139 138 124 122 119 135 138 123 122 127 122 122 111 96 132 183 180 186 202 205 203 194 183 166 146 136 147 138 153 141 109 102 110 124 132 138 143 138 138 141 128 122 126 126 114 86 78 87 94 104 99 99 107 117 124 125 126 121 117 110 99 90 90 88 78 74 56 54 54 54 45 48 58 49 43 37 35 38 40 49 47 35 110 209 199 198 198 195 193 179 171 171 174 174 169 167 163 161 159 156 155 154 153 161 169 173 183 182 184 193 204 204 201 195 183 167 150 142 153 149 158 169 171 160 155 151 159 167 175 177 179 173 163 158 148 143 137 133 126 128 132 133 136 141 143 144 143 141 138 125 114 108 103 93 90 85 83 75 66 55 56 55 55 42 50 53 47 51 42 37 39 43 45 31 127 211 200 198 196 194 191 184 177 175 172 166 165 164 160 155 150 147 151 153 159 164 173 178 184 187 190 197 202 200 200 197 181 168 155 145 157 158 150 161 152 146 148 148 151 152 157 158 155 151 148 144 142 142 142 140 136 135 138 145 152 157 154 152 146 143 139 133 119 111 108 95 88 91 80 78 78 58 50 53 58 46 45 51 46 49 54 43 40 41 42 37 158 210 199 196 196 197 196 190 184 180 175 169 162 155 149 146 145 145 146 154 164 170 173 185 191 192 193 200 204 200 198 194 181 170 160 150 155 166 157 152 155 159 159 152 147 148 150 146 150 151 151 151 154 154 152 147 147 152 160 165 166 163 157 155 149 144 141 134 119 112 106 94 90 91 80 85 79 69 51 46 54 52 46 48 49 51 53 54 46 40 35 50 184 205 196 193 193 193 190 188 183 180 178 171 166 162 161 162 162 164 172 179 181 178 183 191 190 191 195 202 204 199 198 191 182 174 163 155 158 164 170 163 158 167 171 166 165 161 154 150 152 150 149 148 146 145 144 149 157 161 164 167 166 166 162 158 153 147 139 136 121 115 106 95 94 86 83 88 81 72 54 48 46 57 46 45 48 52 52 54 50 40 27 70 196 199 195 190 192 194 194 191 191 190 189 189 186 184 184 182 182 183 187 183 186 192 193 194 192 192 198 203 204 200 198 191 181 176 166 158 158 165 172 174 164 166 172 173 173 174 175 168 164 166 166 166 165 169 170 175 177 179 177 170 168 165 161 156 152 148 140 134 121 116 104 100 95 81 89 87 81 68 59 60 47 52 56 43 50 50 53 55 50 47 32 97 201 196 193 193 194 195 193 193 196 195 193 193 190 191 190 188 185 185 187 188 192 193 192 196 194 195 200 205 204 200 198 191 182 177 168 161 160 164 169 171 166 166 168 174 175 175 180 182 183 187 184 181 179 182 180 179 181 182 180 175 167 163 154 154 147 143 138 132 120 112 105 103 95 85 90 86 81 66 62 62 58 45 53 53 48 52 48 54 53 45 31 111 202 194 192 192 193 194 197 198 196 196 197 194 189 193 192 191 187 188 189 189 191 191 193 193 194 197 199 205 204 200 199 192 182 175 171 167 164 170 173 175 174 171 173 175 176 177 180 181 186 185 183 183 184 181 180 175 178 181 174 173 166 159 153 148 142 137 132 129 122 109 101 99 97 87 86 91 78 65 65 64 65 55 48 52 50 49 53 47 52 49 31 125 203 192 190 190 193 198 200 200 201 198 197 195 194 194 194 194 192 192 194 193 196 197 196 197 198 199 201 204 204 199 197 191 182 176 172 170 173 174 178 181 182 182 183 181 182 183 185 186 186 187 188 187 184 184 181 179 178 177 174 170 168 156 149 142 135 128 129 128 122 107 98 101 92 87 90 88 73 67 71 66 73 78 51 46 54 52 51 47 48 56 27 129 203 189 189 189 193 200 201 201 200 198 196 194 196 196 197 197 196 197 200 202 202 202 200 200 199 200 203 204 202 199 198 191 180 177 173 172 175 179 184 186 188 190 188 193 192 190 192 195 194 190 190 189 189 188 186 184 183 177 171 168 165 157 144 139 136 129 126 122 119 109 105 104 94 88 94 80 74 70 76 72 81 85 47 40 48 56 52 54 55 55 28 138 202 190 191 191 195 199 201 202 200 198 196 197 199 200 200 200 201 204 205 205 206 206 202 201 201 201 202 202 203 201 197 190 182 175 172 171 171 174 178 183 189 193 195 197 196 195 194 196 195 194 192 191 192 191 187 187 182 179 172 166 160 157 148 143 136 131 130 124 118 107 105 102 93 89 87 77 75 74 80 76 92 82 50 45 47 48 55 56 57 52 49 147 200 193 192 193 196 199 200 201 199 199 201 201 201 201 200 202 204 206 207 203 202 203 201 200 203 203 203 204 203 203 198 191 186 178 172 167 165 165 166 170 179 188 195 196 198 197 194 195 195 194 189 189 191 188 182 179 183 179 173 167 163 156 150 145 137 131 127 123 118 103 104 100 88 92 84 82 79 80 83 80 92 91 80 80 53 51 51 57 56 61 63 150 202 193 191 193 194 198 200 200 200 200 201 202 202 202 202 203 204 200 193 186 183 190 197 199 203 203 203 203 202 201 200 193 186 178 168 161 160 162 161 166 168 170 176 187 192 195 193 193 192 191 190 190 188 188 186 182 180 179 172 167 163 158 151 143 135 131 126 121 116 104 105 98 95 92 84 85 84 81 83 82 94 94 97 108 78 50 51 52 55 61 55 136 202 192 191 192 192 197 197 198 200 200 202 202 202 203 201 197 192 185 174 162 171 192 201 199 202 203 201 201 201 200 198 193 185 177 169 160 165 173 172 173 167 153 151 164 178 185 190 189 188 190 192 192 189 188 185 184 179 176 170 165 160 157 153 147 139 132 125 121 114 104 102 95 102 87 85 91 87 85 85 87 101 90 89 102 90 63 56 52 52 58 76 126 199 190 190 192 189 191 193 196 197 196 197 197 196 195 189 180 172 161 145 143 176 203 204 200 200 202 201 200 201 199 195 192 187 176 167 163 170 177 179 177 170 154 141 138 149 167 177 181 184 185 190 189 188 185 184 182 177 174 169 162 157 151 150 146 140 134 125 121 107 97 99 101 97 86 92 95 91 87 88 94 114 103 75 126 84 80 68 59 51 53 144 146 193 190 188 190 188 186 189 190 192 191 189 191 189 184 175 166 150 133 126 138 187 202 203 200 198 202 203 201 200 199 193 190 184 175 166 166 173 176 180 176 170 159 137 126 127 139 157 169 173 180 180 181 181 181 177 175 169 168 165 159 151 147 148 143 139 134 124 116 101 100 101 98 89 91 102 97 93 86 92 98 128 124 95 120 115 83 79 71 58 52 187 168 188 189 186 186 184 181 182 183 185 187 184 183 179 171 159 147 132 123 133 155 196 202 200 198 198 202 201 200 198 197 192 186 177 167 163 168 174 176 176 172 167 157 130 127 131 125 131 149 162 169 170 172 176 174 171 167 163 164 163 156 151 150 146 138 131 128 124 114 96 100 99 91 91 99 99 102 94 88 93 96 124 135 128 99 95 100 98 72 73 109 205 183 186 189 184 182 181 179 177 179 177 179 176 172 169 158 147 132 122 139 164 179 195 199 199 196 195 202 200 199 195 194 188 180 172 161 156 164 167 165 161 160 155 143 128 146 144 141 132 130 142 157 163 166 168 165 164 163 161 159 156 153 149 145 140 134 126 116 121 105 94 99 91 88 101 103 100 102 93 92 95 81 109 132 139 129 117 113 99 74 126 178 210 177 171 188 180 181 176 173 173 172 172 171 170 165 157 148 136 121 137 167 181 183 185 190 192 191 193 196 196 195 192 188 178 166 158 150 149 152 153 149 143 140 136 123 137 156 151 155 152 143 134 142 154 160 158 160 163 160 157 153 149 149 145 143 140 133 129 124 117 95 95 96 85 95 106 101 108 103 96 96 98 73 75 106 118 121 119 98 110 165 202 170 208 188 169 186 177 176 172 168 167 165 165 163 160 155 145 135 121 133 163 181 186 187 183 175 172 175 183 184 185 183 183 174 162 151 141 140 137 124 114 104 101 108 112 124 148 158 157 159 160 159 149 138 142 151 152 155 156 155 152 149 146 144 141 139 137 133 129 125 110 92 97 88 89 102 104 107 108 104 96 98 95 79 53 75 138 134 132 159 213 225 202 167 213 217 195 183 174 171 167 164 163 159 160 157 152 145 134 120 132 162 176 182 188 188 185 183 174 168 168 172 169 167 166 154 142 136 131 119 100 89 88 95 102 116 130 142 151 159 160 161 160 157 154 148 141 140 147 150 150 149 149 144 142 140 136 135 134 133 128 121 102 96 91 83 98 104 108 113 103 100 98 102 92 74 55 125 210 219 206 215 216 210 204 143 208 217 208 186 176 167 164 159 159 158 156 152 146 137 120 127 159 169 176 183 190 189 187 184 185 181 174 172 165 155 152 145 136 129 117 101 103 117 126 128 130 136 141 148 155 159 157 160 159 154 153 151 145 139 137 145 147 143 143 143 142 138 135 132 130 126 122 112 99 96 80 92 103 106 111 109 106 105 101 103 89 67 69 155 223 219 211 211 199 190 173 86 223 219 217 195 178 166 164 160 158 157 153 147 139 127 123 155 157 165 177 186 192 190 190 185 182 183 179 176 172 157 146 139 133 122 112 122 131 132 134 138 140 142 147 154 161 166 164 162 158 158 154 150 144 142 139 136 143 146 144 144 142 136 135 130 124 121 116 107 100 87 81 101 106 110 108 108 113 109 103 102 85 67 85 167 213 208 206 212 204 170 98 80 210 223 224 211 184 167 164 162 161 157 149 142 131 122 147 154 144 168 178 184 189 190 191 190 186 183 181 175 172 168 156 145 135 128 130 135 136 137 139 146 151 157 164 169 170 169 166 161 158 156 152 149 144 141 138 137 136 141 143 142 141 136 131 126 124 117 112 104 96 78 96 106 110 113 109 110 114 110 103 100 84 68 95 176 203 195 188 174 154 98 63 65 213 213 222 224 199 170 166 165 163 156 148 138 129 134 157 140 150 174 179 182 188 193 192 191 190 183 178 169 160 152 145 139 135 129 128 134 138 141 146 157 167 171 175 175 172 167 164 159 156 153 151 147 144 140 134 134 133 132 139 140 138 134 129 125 120 111 109 101 83 82 105 107 109 114 110 110 112 111 108 99 82 72 101 179 173 176 163 131 90 64 57 63 231 216 211 219 220 176 165 170 165 157 148 142 133 147 155 138 161 178 183 189 193 197 197 198 196 196 191 184 177 166 153 145 144 144 145 153 159 169 179 181 184 182 180 178 174 168 162 164 157 152 151 146 143 140 135 134 130 132 139 139 136 133 129 125 116 112 110 99 80 97 109 113 113 110 109 110 112 114 112 97 77 73 87 131 114 118 104 92 98 88 93 79 228 232 225 209 215 190 167 175 167 156 153 149 139 152 149 130 156 174 183 190 195 191 186 181 189 200 202 202 196 188 183 178 173 170 167 164 172 195 187 171 168 162 161 159 161 160 158 157 154 151 150 145 143 139 134 129 124 129 144 141 140 135 131 118 112 118 112 86 84 108 116 120 116 113 111 113 113 115 112 94 75 64 85 134 153 151 140 104 110 115 99 87 229 230 234 227 215 200 169 175 171 156 159 159 144 149 147 118 130 153 170 172 177 173 165 163 174 183 184 177 167 165 165 162 159 152 150 154 156 158 155 151 152 151 148 141 138 137 128 132 134 134 136 134 131 130 126 118 109 111 148 148 146 138 128 127 121 122 105 76 103 119 120 120 115 116 114 114 114 115 111 89 75 74 98 156 160 141 126 124 159 107 91 119 231 233 231 231 231 216 175 175 178 165 163 164 154 153 151 122 101 102 98 93 91 119 144 146 147 145 145 139 139 140 145 145 143 138 138 145 144 139 139 140 141 134 132 126 120 115 107 102 99 97 91 86 84 84 81 85 91 109 152 156 151 142 136 132 124 121 90 88 123 122 123 121 117 116 115 116 115 116 107 87 70 69 103 172 170 165 187 192 131 111 137 68 232 234 233 231 231 232 191 174 181 171 169 172 166 160 157 139 119 88 47 50 48 67 128 145 147 135 130 129 125 126 127 125 124 117 115 120 115 106 106 112 104 105 104 106 102 94 88 95 91 84 84 71 89 60 42 46 76 129 158 161 157 145 140 134 126 110 83 105 128 122 126 120 119 119 118 118 116 118 103 86 68 51 67 123 147 149 137 110 112 112 59 48 232 234 233 233 231 235 206 174 181 176 172 177 174 167 162 155 146 120 69 69 77 89 178 173 190 165 152 171 157 152 159 141 123 125 125 134 130 117 120 118 99 111 114 127 136 112 108 129 94 107 117 101 111 64 53 48 85 144 165 166 158 148 142 141 128 104 84 116 131 124 124 123 121 120 119 119 121 123 97 86 68 54 55 50 48 53 50 48 45 37 77 120 232 234 234 234 232 233 222 179 180 181 177 174 175 171 165 162 163 155 125 91 76 83 196 204 214 177 170 208 175 176 206 196 168 160 172 196 189 156 141 150 161 127 125 168 174 118 130 160 116 144 137 116 91 55 68 95 137 159 166 167 159 147 143 141 126 106 88 122 129 121 125 123 120 122 122 121 127 121 94 85 69 56 80 132 109 81 93 103 105 135 171 129 234 234 234 234 234 232 232 190 175 182 178 176 177 174 168 164 172 177 179 142 106 82 164 217 221 204 196 224 182 194 229 218 184 166 200 221 212 180 137 181 201 146 147 198 189 141 157 168 146 148 103 71 76 84 120 151 162 167 164 167 155 147 146 143 125 105 93 124 127 124 128 124 120 122 122 123 129 113 93 86 79 67 70 130 188 198 211 200 176 165 150 149 235 234 234 234 234 232 234 214 177 183 180 177 178 176 168 167 179 187 193 181 146 121 134 202 216 213 217 224 201 212 231 222 202 182 219 221 215 195 166 203 207 174 183 201 191 165 162 161 98 108 86 79 104 137 161 167 167 165 162 167 157 151 149 140 121 104 93 126 129 126 127 124 122 122 122 125 129 104 95 88 94 99 108 132 146 161 162 164 163 165 172 190 235 234 232 234 233 232 232 232 192 180 182 178 176 178 169 167 184 193 193 195 173 153 134 165 208 211 219 217 208 218 222 218 206 192 219 215 212 201 190 209 207 188 188 196 193 147 124 138 80 98 116 125 141 156 163 166 168 162 166 166 157 150 144 134 121 108 91 129 127 124 127 124 123 124 122 127 122 101 98 93 103 120 150 170 185 195 193 193 193 183 183 161 235 235 233 234 233 232 232 235 215 179 179 175 174 176 170 172 188 194 196 194 184 170 162 146 171 187 192 210 205 217 216 213 205 193 212 210 207 200 196 216 206 172 157 195 184 99 83 125 133 132 133 144 151 161 176 174 166 160 166 163 155 148 141 136 125 116 86 124 123 125 127 124 123 125 125 127 117 99 101 93 118 143 166 175 195 207 206 186 175 178 169 169 235 235 234 233 232 232 232 232 232 192 177 178 174 175 173 174 186 194 198 194 189 179 173 171 151 141 144 153 144 182 209 203 199 183 200 202 197 185 142 156 152 107 82 131 133 118 137 139 135 133 135 148 156 172 178 174 164 162 169 163 155 148 138 135 128 122 91 117 122 126 129 124 123 124 123 125 109 103 103 93 106 156 183 191 198 212 209 195 188 197 207 220 235 235 235 233 233 233 232 232 235 217 179 179 174 172 174 175 184 193 197 196 191 187 180 179 175 174 158 140 117 115 141 138 130 109 128 134 132 108 96 95 106 120 135 139 150 146 136 141 135 137 146 150 162 174 173 166 161 166 168 161 151 146 136 134 130 123 102 108 123 125 129 124 124 125 125 120 105 105 106 97 105 166 201 198 208 214 203 198 200 203 210 219 236 235 234 235 233 232 232 232 234 233 195 176 177 172 174 177 181 192 197 197 193 191 184 180 181 185 189 185 176 173 167 162 158 157 150 151 157 154 162 168 173 169 160 151 141 135 131 134 141 146 149 158 169 170 167 162 164 167 165 155 147 142 135 133 132 126 114 93 119 123 129 125 125 122 126 112 106 108 106 100 97 164 210 197 208 216 205 217 220 217 222 228 235 235 235 235 234 232 232 233 232 234 223 180 175 171 173 177 180 189 196 197 194 194 192 183 180 173 180 196 198 195 194 186 181 182 180 182 183 181 181 180 168 152 145 140 129 125 135 142 147 149 155 166 169 165 163 165 166 168 161 152 144 140 137 133 131 129 118 95 103 119 129 124 120 123 120 109 107 107 103 102 97 168 221 210 213 202 203 224 228 227 225 226 235 235 235 235 234 233 232 233 232 231 236 205 174 171 171 176 180 187 194 196 193 194 197 190 180 167 158 167 173 170 168 161 161 162 160 163 155 151 150 152 145 133 129 128 132 140 149 152 150 150 160 167 164 165 165 163 164 166 155 146 139 137 135 135 131 128 124 107 93 111 126 122 120 121 110 110 112 108 106 108 101 152 216 211 216 200 211 224 227 227 227 227 236 235 235 235 234 234 233 232 233 232 234 231 189 171 172 176 181 185 190 196 196 191 194 197 185 167 157 152 150 153 152 149 150 151 155 148 148 141 141 135 132 130 129 139 147 152 153 153 152 157 165 167 165 166 163 158 163 158 148 142 139 137 135 135 135 131 124 114 98 94 115 121 117 110 107 111 114 109 110 114 106 126 210 215 219 211 217 225 227 227 227 228 236 235 235 235 235 234 234 233 232 233 233 235 219 176 172 176 178 185 190 193 195 193 190 192 191 182 168 155 150 153 149 147 147 145 148 144 139 135 133 134 137 140 147 155 158 157 153 151 156 162 166 166 167 166 160 160 159 150 144 141 137 134 135 135 133 131 128 124 104 86 94 110 108 108 109 111 112 110 112 112 108 107 199 222 213 217 223 225 225 226 227 228 236 235 236 235 235 235 234 234 234 232 232 232 235 206 171 174 177 183 188 194 197 195 192 188 186 184 180 172 163 155 149 145 144 143 142 138 136 137 139 145 150 154 158 159 157 153 152 154 160 166 167 168 168 163 158 157 151 143 141 139 135 135 135 134 131 130 130 128 122 99 82 92 108 111 110 111 109 112 110 110 109 100 161 219 207 218 224 226 227 226 227 227 236 236 236 236 235 235 234 234 234 234 233 231 234 232 191 170 175 180 188 192 197 196 193 188 184 181 177 173 170 165 160 157 154 152 150 150 148 149 153 157 157 157 155 153 152 151 155 160 163 168 171 169 165 159 155 152 146 139 141 137 135 136 134 131 129 129 125 123 124 119 99 80 91 109 111 112 110 110 107 112 109 105 126 207 217 220 223 224 226 224 227 228 236 235 236 236 235 236 235 234 234 233 233 234 232 235 225 181 172 179 185 190 196 199 194 188 185 181 174 170 166 166 164 163 160 159 155 156 156 157 157 159 159 156 155 155 154 157 161 160 169 177 173 167 162 157 152 151 143 138 138 134 134 133 132 130 129 126 123 123 119 115 110 99 84 82 96 103 111 105 106 113 111 110 109 180 220 218 221 222 225 225 225 228 236 237 236 236 236 235 235 235 234 234 233 233 233 232 236 217 176 176 183 190 194 198 197 193 189 184 181 177 175 172 167 168 164 159 156 159 161 161 162 161 162 161 160 163 162 162 164 168 180 179 171 162 157 153 150 147 141 135 135 133 133 133 131 128 126 123 121 119 112 111 110 110 108 95 85 79 89 100 110 113 110 111 107 142 216 224 226 223 223 222 226 224 236 236 236 236 236 235 235 235 234 234 234 233 232 232 232 235 210 174 179 188 192 195 198 198 193 192 190 186 185 182 180 177 174 172 169 170 171 172 173 172 175 175 173 170 162 167 172 181 182 174 166 161 156 151 149 144 140 134 134 131 130 131 129 125 123 121 117 110 110 112 112 117 117 115 109 106 105 110 112 112 109 112 109 117 193 224 227 226 224 226 227 225 236 236 236 235 235 236 235 235 235 233 233 233 233 232 232 232 235 205 173 182 189 194 197 199 198 196 196 196 194 193 192 190 188 187 187 185 186 188 189 188 187 184 181 177 173 178 184 185 177 166 162 159 152 147 144 141 137 131 131 130 130 128 125 122 120 116 108 106 112 112 116 122 121 114 115 119 118 116 111 110 109 108 107 111 146 218 228 228 224 226 229 227 236 235 236 236 235 235 235 235 235 235 234 234 233 233 232 231 230 230 200 179 187 193 195 201 202 199 199 201 200 199 199 197 195 197 196 195 198 199 196 196 192 188 183 182 184 185 183 177 169 162 159 153 149 145 142 138 135 129 127 128 126 123 121 118 113 107 107 112 113 115 118 121 118 119 121 117 117 116 114 107 111 107 105 114 118 176 230 230 225 224 227 228 235 235 235 236 235 236 235 235 235 235 234 233 232 232 231 229 226 226 225 199 184 191 195 201 203 203 201 201 202 203 201 198 198 199 196 194 195 195 194 193 192 190 187 186 184 179 177 171 164 159 155 149 145 141 136 132 130 127 125 123 122 119 114 107 107 112 114 114 118 117 119 120 119 123 124 122 121 121 112 108 112 104 102 111 117 131 198 229 223 225 227 229 235 235 236 235 235 234 234 233 232 231 230 230 230 229 229 227 226 225 222 218 200 188 193 197 200 202 202 201 201 201 200 200 198 197 195 195 195 192 194 192 191 188 182 181 177 176 173 166 159 155 151 145 141 136 133 130 127 124 122 120 117 107 102 105 112 116 117 117 116 120 121 123 123 123 124 121 122 123 109 116 112 103 103 108 117 122 150 212 225 225 225 224 236 235 235 235 234 232 231 230 228 227 227 227 227 227 225 224 224 224 221 218 214 203 190 194 193 196 200 201 200 197 197 196 194 195 195 195 194 196 196 191 186 184 177 174 173 174 168 162 154 150 147 141 137 129 126 123 124 123 116 106 99 101 106 111 116 118 118 118 120 124 127 124 123 126 124 123 124 118 113 122 108 103 104 107 116 124 127 169 216 211 206 192 235 235 235 235 232 230 229 227 227 226 225 226 227 226 225 225 225 225 221 216 213 214 199 190 192 193 195 197 197 196 195 195 193 192 192 191 191 191 188 187 182 177 173 171 170 168 163 155 147 145 142 136 128 123 124 121 114 102 98 100 103 105 110 113 119 121 117 118 122 125 126 125 127 127 124 122 125 113 121 122 105 107 110 110 115 121 125 140 177 197 189 189 235 235 234 232 230 228 227 225 226 224 223 224 224 224 224 224 225 225 220 216 212 212 213 195 187 190 190 191 192 193 188 188 188 185 185 182 183 181 180 180 175 172 171 168 166 162 155 145 139 139 133 127 122 118 108 98 99 103 108 108 110 112 112 115 118 121 120 119 123 128 129 131 132 129 125 123 121 114 129 115 107 114 112 123 155 147 144 152 172 182 204 198 234 233 233 231 229 227 225 222 220 218 217 219 220 222 222 223 224 226 222 215 214 214 217 213 189 183 182 184 184 184 180 181 179 180 179 181 180 179 175 170 169 169 166 164 159 152 146 139 136 132 122 112 104 98 99 106 112 111 110 111 117 118 116 117 117 120 119 118 124 129 130 134 135 132 130 129 113 121 124 108 114 121 122 148 190 159 166 168 184 185 196 200 232 233 233 230 228 224 222 217 212 209 210 213 216 218 221 222 224 225 226 220 219 219 219 222 210 182 175 177 175 172 175 173 172 174 172 172 171 169 166 165 164 163 157 155 150 145 139 135 124 111 106 106 109 113 114 112 113 113 113 115 122 121 121 122 121 119 121 117 121 126 131 136 136 134 133 121 114 128 116 110 125 127 149 141 133 178 156 149 162 179 170 182 229 231 230 229 227 224 219 215 209 205 208 211 213 216 220 223 225 228 229 225 222 221 221 222 227 210 177 167 168 167 167 166 166 167 165 163 162 161 160 159 157 152 148 145 142 138 131 116 106 115 123 126 125 121 122 118 117 120 121 122 122 123 123 121 121 121 121 121 125 127 132 138 136 135 131 115 124 128 109 119 123 129 159 168 141 155 179 152 144 144 127 135 226 229 230 229 227 223 220 216 211 210 212 212 212 216 220 223 226 229 229 227 223 223 223 223 224 227 216 181 162 158 160 160 159 158 158 159 159 157 155 152 147 143 140 138 135 125 116 119 131 133 133 131 127 124 126 123 125 126 124 125 125 124 123 122 123 122 123 127 131 135 138 138 137 135 122 118 134 120 115 125 125 153 184 162 162 173 162 172 172 160 143 160 223 226 228 228 227 224 221 216 214 214 214 212 212 216 219 223 226 228 229 229 225 225 225 224 225 226 229 227 206 175 159 150 147 149 151 151 150 148 145 141 139 139 134 128 118 116 128 138 136 135 137 134 132 132 133 128 131 130 127 126 126 126 127 126 124 126 127 132 134 135 140 138 138 132 120 130 134 118 124 135 153 157 163 183 182 171 168 179 179 182 170 192 216 222 227 228 228 224 220 218 214 211 211 207 208 214 218 222 226 228 229 230 227 225 226 226 227 227 228 231 236 230 214 198 174 151 150 147 145 145 141 141 136 129 125 120 128 139 143 140 136 137 138 139 138 139 135 136 135 133 130 130 130 129 132 133 128 126 131 136 139 139 140 141 137 127 128 138 127 124 133 141 161 151 151 159 192 189 170 183 175 190 195 190 210 218 226 228 227 225 221 217 214 210 208 208 209 215 219 223 227 228 230 232 229 227 227 227 227 228 229 230 231 232 234 237 230 178 165 163 155 156 153 151 143 136 135 140 146 147 148 145 141 143 143 139 139 140 140 144 137 131 130 133 133 131 134 132 132 126 131 138 138 140 141 140 133 128 137 137 126 130 145 168 162 160 170 173 165 191 187 177 188 198 182 176
