P2
# Generated by OpenCV 4.2.0
92 112
255
117 115 118 120 128 124 100 19 23 31 49 57 75 82 99 121 131 176 148 128 163 165 189 193 155 114 136 104 81 93 83 74 74 60 57 34 41 29 36 25 39 60 71 60 48 48 35 48 35 36 22 17 13 24 26 25 23 23 24 17 12 14 16 14 13 11 10 6 10 11 12 11 8 9 11 14 14 14 10 10 11 11 9 10 12 12 10 7 9 8 9 11 118 120 126 128 132 141 20 32 39 58 65 85 85 128 146 134 152 174 168 175 185 204 192 175 157 152 139 117 127 117 96 97 92 109 85 88 87 85 89 61 59 54 45 54 50 85 60 56 69 37 54 39 35 25 25 26 18 20 15 15 16 15 15 11 11 11 12 12 10 8 8 11 10 10 9 9 8 13 14 11 5 10 8 9 7 8 11 11 9 9 8 9 126 127 130 135 132 92 30 46 58 79 106 126 154 173 180 189 189 197 194 201 200 202 186 176 154 132 155 152 129 131 143 125 138 147 154 170 164 156 150 108 113 84 76 56 65 43 27 68 57 66 59 55 46 39 37 28 24 20 21 19 13 14 11 11 11 10 11 12 11 9 8 10 9 10 9 9 8 9 12 13 15 6 10 9 8 9 10 11 9 9 8 8 135 134 137 142 151 33 33 69 74 114 158 172 169 186 199 199 207 208 207 200 204 201 195 178 167 165 172 171 170 165 184 167 174 182 186 175 170 157 166 147 117 117 122 110 85 73 68 51 56 31 57 69 59 68 42 31 43 22 21 19 16 13 13 11 11 11 10 7 9 10 10 8 8 8 9 10 9 6 7 10 14 16 11 8 8 7 8 9 9 8 8 9 140 139 142 141 138 40 60 106 108 160 168 184 199 195 203 206 205 206 206 204 203 201 204 198 185 176 173 163 159 170 175 182 185 189 192 184 187 183 168 162 167 154 150 133 131 133 104 87 66 64 36 42 72 66 56 64 38 38 28 25 18 15 16 15 10 11 11 11 9 7 9 9 10 9 9 9 9 9 8 8 11 14 20 9 7 9 9 8 9 11 7 7 146 146 141 144 88 55 118 147 181 175 185 196 201 203 199 203 203 201 203 204 206 204 204 200 196 195 189 194 194 196 198 200 201 198 195 195 191 192 182 180 174 163 163 154 144 130 114 92 86 61 70 63 39 41 52 55 52 50 37 27 28 20 10 14 15 9 9 9 8 10 8 10 9 9 9 9 9 9 9 8 7 9 11 14 11 9 9 9 6 9 9 8 148 147 149 113 76 75 158 179 194 193 193 199 198 201 198 199 203 203 202 207 204 204 202 201 200 197 203 201 195 198 200 201 197 195 195 192 191 189 189 174 177 173 166 173 157 145 127 124 97 91 85 66 61 36 39 28 34 35 46 43 30 25 28 16 14 12 14 11 9 8 8 10 8 6 8 8 8 7 6 8 9 7 7 11 13 8 8 8 7 6 10 10 153 151 143 139 69 115 160 188 196 197 200 196 199 199 201 199 202 202 201 205 206 203 208 201 202 201 198 196 196 195 194 195 188 191 190 190 190 185 184 179 180 171 169 159 156 151 143 124 123 115 106 108 84 67 62 62 34 22 19 29 33 33 22 26 23 21 10 12 11 11 11 8 10 10 9 10 10 9 8 9 9 9 9 9 10 11 11 8 8 9 8 11 151 151 111 115 85 154 181 188 196 199 199 200 202 201 199 206 208 208 206 209 213 211 206 204 201 202 199 197 193 193 193 198 198 196 194 190 188 183 179 179 174 172 164 161 161 158 149 143 129 115 110 116 86 97 96 107 49 46 23 20 21 30 37 32 26 20 21 10 11 8 11 12 10 7 10 11 10 8 9 8 8 8 8 5 8 10 15 10 10 9 6 7 143 150 132 90 120 179 187 194 196 198 201 199 198 200 206 212 210 205 211 211 213 214 211 202 203 204 199 199 197 202 194 197 189 192 189 188 190 191 176 174 174 161 161 166 167 158 153 151 149 135 158 135 100 103 77 98 93 68 40 25 19 17 21 24 33 25 24 29 15 11 11 12 10 12 10 9 9 9 9 8 10 9 10 6 8 10 9 12 8 8 10 8 153 148 119 99 140 183 189 193 201 198 198 198 199 204 205 209 208 208 214 216 221 223 219 212 212 206 201 197 202 195 198 200 193 193 189 192 189 182 175 178 170 170 164 161 167 158 160 153 146 141 134 129 121 115 108 123 94 94 58 34 28 16 20 24 23 25 27 22 18 22 15 10 10 7 9 9 8 9 9 9 8 9 8 10 9 8 9 10 10 8 10 9 158 142 124 80 170 184 195 198 198 200 202 202 204 209 209 214 212 214 215 212 208 210 209 210 207 210 204 202 205 198 198 198 192 193 192 189 186 185 182 176 171 172 170 166 159 165 161 153 153 157 124 143 131 116 118 120 94 94 57 92 27 16 16 16 21 19 21 24 27 18 21 21 10 9 11 10 8 9 9 10 8 9 4 6 9 11 8 9 13 10 11 8 155 126 96 88 174 188 194 196 200 203 204 204 205 213 214 216 216 222 221 223 217 215 220 217 219 217 201 200 205 205 203 202 200 195 192 194 186 184 182 179 174 175 165 162 162 161 156 156 146 143 132 141 134 128 126 140 115 100 79 54 35 22 17 16 18 15 21 18 19 23 17 16 22 19 12 8 8 8 8 7 7 8 8 7 8 7 10 8 10 12 10 8 159 150 90 118 184 194 196 197 201 202 208 208 210 216 220 221 226 221 225 231 230 228 223 223 219 223 215 213 207 205 204 202 200 203 198 192 190 182 176 173 178 174 167 165 170 162 160 147 144 141 141 133 134 126 126 125 123 119 88 63 50 30 16 16 11 15 15 16 21 10 19 20 16 21 19 19 10 11 10 10 8 7 7 6 7 8 7 11 10 8 11 11 161 155 102 161 188 195 197 200 204 206 208 213 216 217 224 224 223 226 223 234 231 228 231 228 226 213 224 218 215 203 206 205 200 204 198 196 186 182 182 177 177 173 172 173 169 160 162 153 140 137 143 146 138 132 129 136 129 110 104 83 68 32 25 21 14 11 17 15 10 21 13 13 18 16 18 14 25 14 10 9 8 7 7 8 8 8 4 8 8 8 9 11 162 160 84 178 192 194 196 197 205 210 214 215 218 223 226 225 232 226 235 239 238 232 235 235 233 218 224 219 220 224 207 208 208 206 202 196 187 183 179 178 176 177 175 170 165 173 165 167 155 150 142 134 133 134 125 121 135 124 89 103 73 44 45 23 25 19 9 14 13 15 13 19 11 11 14 23 19 18 20 9 7 8 9 7 6 8 5 6 6 10 9 6 161 153 86 192 193 196 197 202 207 210 210 215 218 223 228 228 229 231 231 235 240 243 238 234 232 232 227 227 224 218 210 216 209 199 204 192 188 184 183 178 172 171 168 169 175 175 165 166 160 151 145 142 132 124 126 123 117 120 113 103 83 80 62 44 28 18 15 13 10 11 12 15 12 14 13 11 20 18 14 23 12 7 6 11 10 8 9 5 7 6 10 8 154 154 122 185 194 198 199 207 208 209 213 221 225 223 222 217 218 230 229 239 240 243 235 237 231 230 224 229 221 210 209 207 210 193 195 193 190 181 182 178 176 174 175 174 168 162 161 160 161 148 149 142 134 128 124 125 126 123 113 102 85 91 64 66 49 37 31 16 14 11 10 9 13 9 12 14 12 11 18 17 19 20 9 10 10 8 9 9 8 9 5 7 150 141 150 186 194 197 199 204 210 212 217 220 222 224 223 221 226 228 228 232 231 229 230 222 214 220 224 228 224 213 211 213 210 208 194 190 189 187 184 178 174 175 176 171 163 159 152 160 156 158 148 142 136 132 120 132 122 119 119 104 89 79 73 63 59 52 37 30 19 17 12 10 11 11 10 11 11 12 11 11 15 17 14 17 11 10 10 7 7 7 8 9 135 126 157 186 194 197 200 205 208 211 214 219 220 217 222 221 222 223 234 236 229 230 233 233 230 228 224 226 216 218 217 210 209 207 196 194 190 187 183 182 178 172 172 169 165 168 146 156 161 151 155 145 135 131 128 125 132 119 103 116 96 91 77 75 66 64 44 37 19 17 18 15 9 10 8 9 9 9 11 9 10 13 22 16 13 11 11 9 8 8 5 5 124 116 160 183 192 199 200 206 206 210 213 217 218 216 218 218 221 221 222 227 223 226 232 227 224 222 217 225 225 216 205 208 205 203 195 194 188 185 181 180 177 173 171 167 168 167 164 157 155 149 147 149 138 128 132 123 122 121 121 99 96 98 85 74 65 59 53 59 25 21 20 22 13 13 9 9 7 11 8 8 9 7 7 15 20 13 13 12 13 11 8 4 109 102 154 186 195 199 203 207 209 207 213 216 215 217 216 215 216 217 223 220 224 224 222 223 222 221 213 220 221 212 203 213 205 197 196 191 192 187 182 177 177 176 175 167 167 169 165 162 157 150 148 143 138 133 128 121 119 118 113 114 101 100 96 85 75 63 51 43 45 34 18 20 19 15 11 8 8 8 9 9 8 7 12 9 9 19 23 18 12 10 8 8 98 86 160 185 190 197 200 202 199 205 208 210 212 213 212 214 213 213 215 218 218 221 218 212 218 219 221 220 215 214 210 206 200 196 191 190 187 182 185 179 177 177 176 170 170 161 163 158 159 153 153 145 132 131 129 125 120 118 113 108 108 110 105 107 85 66 51 37 33 31 30 19 13 15 14 11 12 8 9 7 7 7 8 6 12 13 11 21 18 14 11 11 88 84 159 189 192 200 203 206 208 209 211 211 213 207 209 211 216 217 212 217 213 214 216 214 215 218 217 213 212 206 208 202 202 190 191 192 187 183 181 175 172 174 174 172 164 157 161 154 157 150 147 143 135 130 131 124 123 126 114 119 116 99 106 106 96 86 67 54 38 34 24 27 15 13 9 9 7 10 10 8 7 8 5 10 11 7 12 6 15 19 15 12 81 80 166 189 191 199 202 205 206 207 210 212 212 212 212 211 214 206 211 211 213 219 218 218 217 218 215 210 209 208 204 197 193 186 187 185 184 183 178 176 174 172 172 170 163 163 158 154 155 151 145 144 136 129 125 132 116 126 116 113 113 101 97 93 99 92 85 64 57 26 31 20 22 15 9 7 10 9 9 11 11 7 3 8 9 8 8 6 7 11 14 16 81 79 165 187 192 199 203 206 208 208 208 208 206 208 209 216 211 206 206 209 208 216 213 216 208 209 216 207 206 204 202 199 198 195 193 190 186 185 178 178 178 177 175 173 168 167 163 162 153 153 146 142 142 132 127 124 132 121 120 117 111 103 103 103 100 94 90 75 48 45 28 27 17 12 16 11 7 7 9 8 6 10 11 6 8 6 7 10 9 8 10 14 78 77 167 187 193 200 203 203 207 209 208 206 206 207 213 206 207 208 207 207 208 206 214 205 205 210 210 210 212 208 200 198 192 194 193 189 188 184 179 173 177 174 171 167 168 165 161 160 148 150 149 147 141 137 127 131 129 125 123 116 115 109 107 94 87 99 80 75 78 49 38 31 20 19 12 13 12 8 9 5 9 8 6 8 8 9 7 5 8 7 9 12 81 83 162 189 192 199 203 200 205 206 209 208 207 206 207 203 206 207 206 208 205 203 210 216 214 206 210 205 205 204 201 197 198 194 191 193 186 185 184 182 178 172 172 170 164 162 160 161 157 152 150 146 143 135 126 126 126 127 122 112 112 112 109 100 96 83 91 82 64 55 43 47 28 16 15 16 16 13 10 6 8 8 8 8 8 6 7 8 8 9 7 8 95 97 158 187 194 198 202 208 209 207 208 209 208 209 205 211 210 209 208 208 206 205 208 211 209 213 204 204 201 205 199 200 196 200 197 192 188 184 183 183 176 173 174 170 171 165 164 162 154 153 151 148 145 138 130 124 126 123 117 113 111 107 106 106 104 99 82 78 76 71 41 50 34 35 15 13 20 9 9 8 8 7 8 7 8 5 7 6 8 8 8 8 110 111 151 186 194 200 202 205 207 209 207 208 208 208 209 207 205 207 207 206 204 203 205 206 206 206 210 202 205 204 202 199 199 201 196 194 189 184 187 182 178 175 174 169 169 163 160 157 154 153 157 149 149 144 135 126 126 121 114 112 107 105 102 100 101 101 98 93 83 76 67 55 26 34 33 18 13 9 7 11 10 7 7 7 7 6 7 7 7 7 6 9 123 125 155 187 194 200 203 206 207 209 208 211 209 206 206 206 208 205 207 206 207 210 211 208 207 205 202 202 205 202 201 203 201 198 193 193 191 190 187 184 183 176 175 174 168 166 162 160 164 156 153 152 148 145 138 129 123 115 113 111 104 101 97 103 102 103 99 98 99 89 83 72 67 38 23 34 25 15 11 10 10 9 7 8 8 8 8 8 8 8 8 3 130 134 153 191 191 200 203 208 207 206 210 209 210 209 207 205 208 207 206 206 207 205 208 210 206 208 203 203 205 204 202 204 202 199 198 196 193 191 191 186 182 176 178 174 170 169 166 165 160 162 160 155 148 143 134 126 116 118 109 108 108 106 101 101 99 105 99 100 107 100 104 101 98 89 75 72 53 37 35 23 15 10 7 7 8 8 8 8 7 8 8 9 130 132 150 186 192 197 200 205 207 206 208 207 209 205 205 206 207 203 203 205 205 205 206 205 202 204 204 202 203 201 200 204 205 201 200 200 192 193 189 182 180 180 179 174 171 166 165 162 161 160 159 155 151 144 136 121 120 110 108 106 109 110 106 102 102 103 103 104 104 108 105 108 98 99 101 99 90 90 63 42 32 25 19 12 12 7 8 8 8 8 9 10 123 126 143 186 190 196 198 204 203 205 206 204 204 205 202 205 203 204 205 203 206 207 206 202 203 201 202 203 205 201 205 206 202 202 199 197 196 184 186 182 182 180 177 176 172 169 172 165 164 164 162 156 148 145 133 126 115 111 100 104 106 107 108 106 107 105 105 107 110 112 108 109 107 103 104 105 105 100 87 73 53 28 24 16 14 11 8 9 9 8 8 14 108 112 139 189 193 194 195 204 201 204 208 206 203 204 202 201 201 203 198 204 205 203 204 204 197 202 199 198 203 202 199 199 202 201 198 196 192 182 186 178 171 174 173 171 173 168 166 168 170 160 163 155 147 142 132 120 117 105 107 105 107 108 111 110 105 107 106 108 109 111 109 106 106 109 107 104 107 102 93 67 59 39 28 18 15 13 9 10 8 7 8 73 91 95 133 180 189 196 196 195 196 201 202 204 204 203 200 198 200 199 200 199 202 202 202 200 195 197 195 198 194 193 199 199 200 195 190 184 184 180 178 173 167 167 166 157 161 156 158 158 152 158 153 145 145 133 123 116 113 107 105 108 109 109 106 110 107 108 104 107 112 115 107 107 110 111 111 110 110 108 90 65 50 40 33 22 17 14 12 9 3 10 44 90 74 75 103 153 168 184 194 195 197 200 200 201 200 198 197 196 197 196 197 194 197 199 200 197 192 196 196 193 189 193 193 194 190 187 177 171 167 158 153 139 134 125 123 126 125 125 118 115 116 123 92 76 89 104 108 103 104 106 104 104 106 111 113 110 110 109 108 106 110 111 104 109 111 111 111 109 107 107 90 70 56 42 29 18 13 11 9 11 10 25 86 90 59 59 64 114 105 106 148 185 190 196 196 194 191 193 187 196 193 195 194 193 196 196 197 193 188 196 193 184 189 189 174 176 176 174 146 139 152 119 104 87 78 77 72 65 63 64 69 54 47 50 57 56 67 65 68 66 67 72 90 93 96 100 108 110 106 109 111 107 107 111 109 112 111 109 112 109 110 105 90 66 45 33 23 17 15 14 11 9 14 85 86 86 48 52 74 74 75 53 96 117 151 152 154 169 170 182 183 184 186 187 193 192 192 196 197 192 185 194 185 184 163 152 165 141 110 106 100 70 73 48 57 50 45 53 55 53 55 59 63 58 66 59 45 53 59 55 38 34 38 46 54 51 58 77 95 105 106 107 107 108 106 108 110 112 110 109 108 105 109 102 88 79 58 39 25 16 18 15 16 17 65 87 86 88 47 50 80 65 86 74 46 57 53 80 90 86 110 150 167 164 182 187 185 188 191 193 193 189 183 181 183 170 145 129 128 93 74 67 51 45 37 50 44 43 52 47 43 53 55 55 54 73 67 67 81 61 77 91 68 64 50 57 47 49 64 64 79 94 101 112 108 107 106 110 111 110 109 109 107 99 99 103 93 64 53 43 34 27 23 20 26 45 84 86 87 89 46 51 106 103 95 59 57 52 45 50 62 78 97 115 134 151 167 180 182 185 184 189 187 186 178 177 173 152 128 123 117 73 58 62 45 45 42 40 36 41 39 41 50 60 71 71 80 85 95 99 95 88 80 85 65 49 54 67 50 59 49 50 73 73 84 96 106 110 105 109 113 110 110 109 108 106 103 102 93 79 61 45 35 25 28 33 46 76 87 82 83 88 44 53 129 160 138 119 95 54 41 35 48 62 72 111 114 137 161 175 185 186 183 186 187 182 176 170 164 145 118 99 84 94 73 71 54 48 42 54 48 42 50 54 76 98 113 137 162 158 163 156 145 140 115 108 94 84 70 67 54 63 76 78 89 92 101 106 107 108 110 111 108 107 107 110 106 108 106 102 93 75 66 57 46 41 42 43 74 87 88 82 84 87 46 46 105 178 181 174 166 161 150 116 85 59 59 81 115 117 145 155 175 180 185 181 179 177 172 169 164 143 110 113 95 96 92 78 72 69 71 57 57 76 90 129 136 156 147 160 144 154 157 147 149 151 143 137 127 111 92 98 78 84 82 90 89 99 104 109 108 110 109 109 106 110 107 108 107 106 103 101 92 88 82 72 68 54 57 73 86 86 85 76 80 87 45 44 43 183 182 178 165 153 159 142 152 132 139 118 106 120 136 145 170 178 184 179 179 178 172 164 155 136 129 113 114 97 89 79 74 69 67 87 102 126 132 106 128 130 136 124 121 143 120 126 131 135 138 124 113 114 113 107 97 110 102 98 110 108 108 107 108 108 107 109 109 108 108 106 107 106 103 100 94 81 78 75 69 69 75 83 88 88 77 69 81 92 45 45 50 129 165 161 147 93 100 90 46 51 30 86 121 133 124 141 158 176 181 174 179 168 161 156 141 128 117 104 89 87 80 68 77 98 123 105 24 93 82 124 121 111 137 68 51 71 61 92 92 126 124 114 108 107 109 99 98 103 109 110 110 111 113 112 110 108 104 108 109 109 108 106 101 102 104 99 95 83 70 72 80 78 82 84 91 92 80 60 75 92 44 45 51 49 165 144 73 61 47 99 44 51 28 17 18 47 113 133 130 169 180 184 183 182 173 160 137 123 103 92 88 73 70 75 117 113 64 63 146 20 12 25 12 11 7 28 12 86 82 48 56 99 106 103 115 109 107 119 123 101 116 146 129 116 112 107 106 106 108 110 109 111 109 105 104 104 104 99 99 88 74 72 75 75 84 85 101 108 97 67 71 83 46 46 42 40 160 104 36 46 17 12 13 46 25 25 18 3 12 31 111 127 185 193 191 183 171 159 134 114 104 96 86 73 78 102 122 105 73 77 31 107 158 147 43 18 20 11 12 17 13 11 58 92 56 110 103 91 94 86 98 149 148 128 124 119 99 107 114 115 113 112 110 109 108 106 105 104 104 99 95 91 84 77 76 77 87 93 100 121 116 84 81 88 46 43 35 31 134 70 39 5 17 47 77 72 35 58 53 49 6 45 24 101 144 196 193 187 176 162 142 116 105 96 88 78 78 91 141 66 125 54 120 173 202 200 59 63 81 26 21 49 19 10 16 26 51 61 62 87 77 97 96 109 109 99 136 152 149 136 130 116 113 112 110 107 108 106 105 101 99 97 92 90 84 76 75 82 93 97 103 118 133 105 90 92 46 45 40 36 56 8 8 16 38 72 138 153 49 70 95 56 64 84 48 62 171 187 201 200 185 167 149 128 109 100 95 86 84 89 124 143 93 63 156 188 218 221 191 41 82 101 107 129 112 89 53 35 54 53 69 80 85 96 111 134 151 145 152 146 142 130 123 114 111 109 107 106 105 103 101 99 98 96 93 86 82 75 74 83 93 96 108 125 127 123 108 111 46 47 46 43 180 151 111 101 84 93 118 170 139 68 89 84 68 77 48 92 144 198 203 216 193 174 159 129 117 103 100 96 92 90 173 97 85 145 144 130 139 160 116 158 172 162 135 140 127 102 105 84 131 102 119 108 112 113 124 137 145 147 148 146 142 134 123 116 110 108 105 105 104 103 99 97 93 94 94 86 83 78 74 84 95 98 107 123 130 119 138 122 46 47 44 66 208 196 190 177 176 134 151 127 142 147 131 165 152 123 117 114 105 179 215 222 203 187 165 132 118 113 109 101 104 148 137 123 182 183 171 188 162 189 188 184 194 151 162 154 133 132 114 134 152 172 178 183 186 191 184 177 169 164 160 151 144 135 124 115 109 106 104 103 102 101 102 99 96 95 93 88 84 79 73 87 91 100 106 122 124 109 100 87 47 48 47 77 203 204 204 191 194 204 198 188 196 179 168 152 158 143 166 163 172 202 218 225 208 186 164 141 114 116 120 136 153 179 202 190 177 175 179 187 193 197 184 184 176 159 158 155 137 153 173 161 170 182 194 188 182 182 178 174 170 158 159 152 151 132 125 118 110 105 106 100 101 100 98 95 93 93 90 90 84 76 74 87 94 100 107 119 107 90 68 93 49 47 50 109 205 209 209 205 191 193 195 194 190 169 170 168 158 167 186 203 203 205 214 222 205 188 162 137 121 118 133 172 162 188 188 177 178 176 173 176 178 173 170 169 164 164 167 165 164 147 154 186 199 199 196 191 185 184 177 170 163 161 159 151 142 139 124 114 109 104 101 98 99 98 95 96 96 92 89 89 86 81 76 91 97 100 108 121 98 83 108 138 48 50 50 148 202 208 209 207 201 195 192 190 179 176 170 165 165 164 167 189 211 201 216 219 204 185 162 136 121 122 153 177 160 159 191 195 183 186 179 182 186 186 194 192 194 188 184 180 186 199 201 199 204 202 191 189 183 179 176 166 157 157 156 146 139 132 122 117 107 101 98 96 95 93 92 93 93 90 90 87 86 85 86 96 100 103 109 120 124 137 146 156 50 50 45 174 201 206 210 210 205 200 196 189 188 191 188 185 183 182 187 200 210 204 216 215 202 180 157 133 125 131 148 171 178 168 174 202 203 203 195 193 183 186 186 181 175 165 160 163 175 198 210 207 202 191 191 186 178 172 173 172 163 158 150 143 130 131 122 115 105 102 97 95 89 90 91 91 91 88 89 88 87 89 90 96 100 104 110 121 130 145 153 155 50 50 51 187 199 200 201 202 201 199 199 198 200 198 198 194 194 202 216 211 205 207 215 212 194 174 154 137 126 128 154 169 181 181 174 185 209 215 212 212 206 205 202 205 207 210 213 212 208 211 208 208 202 196 189 181 180 171 170 166 167 153 147 139 131 124 119 112 104 100 96 93 88 86 87 87 87 86 87 85 87 90 90 98 100 102 114 129 130 140 147 156 50 50 54 197 199 203 207 210 215 213 210 209 204 206 206 205 213 218 216 211 199 210 214 209 187 169 150 140 131 135 149 171 183 188 189 188 194 207 212 209 209 210 203 209 209 208 206 204 202 203 208 203 195 190 181 177 173 169 168 162 154 154 150 138 124 115 115 113 101 98 95 87 84 88 86 88 89 85 86 87 88 88 90 97 101 103 121 140 135 143 151 158 49 49 60 195 199 204 204 209 210 212 214 215 217 217 216 213 212 215 212 211 202 212 216 206 185 166 155 142 139 139 150 169 179 186 189 197 198 201 206 208 207 208 208 206 204 203 205 201 196 198 203 203 192 193 183 175 169 163 158 150 152 145 143 135 126 123 113 107 103 97 92 86 85 84 84 86 86 87 87 88 89 91 93 98 100 109 128 144 139 137 149 158 49 50 69 197 198 203 205 209 211 210 210 212 213 210 205 209 211 212 208 205 205 214 216 208 185 167 148 146 145 146 156 178 182 189 194 199 199 201 206 208 209 207 207 205 204 205 201 201 200 202 196 189 189 186 178 174 168 164 156 151 146 141 137 134 122 115 110 104 100 94 92 86 85 84 83 84 86 86 86 87 90 92 94 99 102 107 123 148 146 136 138 160 50 49 76 198 200 204 204 209 209 207 206 206 207 209 210 207 210 208 205 200 207 219 216 205 188 166 156 149 145 155 169 184 187 194 200 199 199 202 204 204 209 214 214 211 210 208 205 209 209 203 199 194 184 184 182 174 166 163 154 150 146 143 128 127 120 116 107 101 96 96 92 89 84 80 82 83 85 86 86 86 87 90 92 97 101 102 104 142 152 145 126 144 51 50 87 201 201 204 205 207 208 210 208 211 209 210 210 209 209 208 205 200 212 217 214 203 186 168 157 150 149 158 182 185 194 201 204 205 205 209 206 207 212 216 216 218 220 218 218 213 206 204 203 192 190 174 176 173 167 158 155 146 139 133 127 116 113 110 104 101 100 95 90 89 84 80 84 82 84 87 86 87 88 92 92 96 98 98 61 135 148 156 139 117 49 50 109 201 204 205 205 211 212 214 214 212 211 209 211 208 209 208 204 199 214 216 212 202 186 167 158 147 154 164 182 188 195 203 206 211 211 218 216 214 215 223 223 220 217 217 219 219 211 206 200 197 188 179 176 173 166 158 151 145 138 134 126 113 114 108 104 103 100 96 88 89 84 81 84 82 85 85 86 90 90 92 92 95 97 89 42 88 141 147 150 91 49 51 136 202 205 206 209 215 218 220 219 217 213 217 218 213 211 210 205 200 216 210 216 199 185 168 152 146 154 169 173 179 188 187 196 208 213 220 222 222 230 227 224 225 223 222 221 216 209 206 206 192 189 183 181 174 165 159 151 143 138 128 118 111 105 106 100 100 98 95 92 87 83 82 83 83 85 84 85 87 89 88 90 92 93 91 36 35 93 130 122 115 49 51 148 200 206 208 211 215 219 220 218 218 216 219 215 213 207 209 206 206 218 223 210 196 181 164 147 143 144 155 162 166 165 172 170 175 193 200 209 213 219 223 220 217 217 216 213 211 206 201 198 190 187 181 177 175 167 154 148 141 129 127 115 113 103 101 99 100 97 94 92 91 87 87 80 81 83 85 85 87 90 88 89 91 90 79 36 32 37 69 66 110 50 51 151 199 207 210 211 214 215 215 216 216 215 210 204 193 183 193 201 210 217 222 215 197 180 164 147 136 129 141 150 162 165 171 167 159 164 181 195 199 207 207 212 219 211 213 209 206 201 200 194 189 186 178 173 170 164 156 150 142 133 116 108 106 104 101 97 98 96 94 92 91 87 85 84 84 85 85 85 86 89 87 89 89 87 75 45 39 62 67 68 85 51 49 153 200 205 206 209 214 213 213 209 208 204 195 185 173 155 179 206 211 216 219 211 197 178 162 144 130 117 124 145 163 173 171 160 139 148 163 167 187 193 198 204 200 202 202 199 201 198 192 187 183 180 175 170 165 161 151 149 134 127 111 106 105 100 97 98 94 96 90 93 90 91 88 86 88 86 85 86 87 87 88 90 90 86 74 58 54 68 68 88 57 50 50 125 198 201 202 204 203 205 203 205 200 189 177 161 133 135 180 206 211 216 217 213 195 180 166 145 122 112 118 161 179 174 168 154 143 133 118 149 154 173 191 192 193 194 196 197 191 189 186 184 180 177 168 166 161 157 152 140 131 108 108 106 103 99 95 95 90 93 91 94 91 93 90 87 88 87 82 85 86 87 89 89 91 87 72 62 60 71 72 138 48 50 49 88 194 201 202 202 201 201 200 198 191 176 156 130 113 129 189 208 211 215 220 213 204 183 167 141 119 116 133 160 173 170 160 148 136 118 96 113 169 164 168 183 188 187 190 186 186 181 179 178 179 170 163 163 158 152 148 134 123 107 104 103 101 97 93 95 91 93 90 94 94 94 91 88 88 85 86 85 86 88 88 89 90 87 71 64 65 80 61 124 60 49 49 50 192 196 198 201 199 197 193 190 175 162 136 112 98 167 197 214 218 224 226 212 201 186 170 145 124 121 141 160 166 161 151 139 124 108 72 113 160 177 172 172 178 182 185 183 183 181 177 175 173 166 162 159 151 153 143 129 120 116 109 108 101 98 96 96 95 92 91 93 95 95 93 90 89 88 87 86 88 87 87 88 89 82 70 54 64 81 32 47 100 49 48 53 158 190 197 197 195 194 188 179 165 145 121 105 139 193 198 210 214 223 231 216 205 183 168 142 124 128 142 157 152 142 135 123 119 78 100 127 140 189 186 181 175 177 179 180 179 177 173 171 173 167 160 155 145 145 137 130 121 113 109 105 102 98 96 93 94 91 93 96 95 97 97 91 92 89 87 87 89 89 90 89 87 79 59 44 54 85 150 126 181 49 49 42 67 186 190 188 187 187 177 168 153 128 110 92 181 199 199 210 221 224 224 213 192 175 159 134 118 127 133 131 122 124 117 110 66 68 131 130 134 185 188 183 175 171 172 174 176 176 169 167 165 162 154 153 135 140 128 130 119 112 110 104 99 97 96 95 92 90 94 95 100 99 97 93 94 90 88 86 89 89 89 92 87 76 55 41 42 71 246 116 134 50 50 50 47 140 184 186 183 177 168 160 141 118 97 155 192 198 196 206 209 209 209 193 177 162 145 123 113 112 112 119 107 75 63 54 83 126 130 125 148 183 181 180 177 173 167 164 167 168 167 165 164 155 148 145 138 131 129 118 110 110 108 105 101 97 96 95 92 92 95 97 97 102 97 94 91 91 90 89 90 89 90 89 86 76 47 42 42 49 110 87 106 49 49 46 49 49 156 169 173 170 163 150 128 109 103 176 187 200 199 194 197 199 199 180 164 145 124 109 108 109 84 52 64 69 80 111 121 119 126 132 166 177 179 178 176 176 170 162 148 156 162 162 158 155 148 144 133 125 119 115 113 109 109 108 104 103 97 95 94 93 97 98 98 100 100 97 93 93 91 90 90 89 90 88 85 73 43 40 36 83 56 49 92 49 49 50 46 47 51 154 156 167 155 144 122 96 167 173 191 198 204 190 182 186 182 162 146 122 108 106 86 67 61 66 85 112 113 123 117 121 128 163 183 181 180 178 179 177 171 166 162 144 138 152 154 153 149 141 131 122 113 111 106 105 103 105 105 105 101 96 93 98 98 101 100 101 99 98 97 96 91 91 90 88 89 87 84 70 44 40 38 72 52 43 75 47 49 48 47 48 51 47 138 162 154 143 119 113 180 156 191 200 201 207 189 164 163 144 125 109 104 89 83 64 74 93 106 107 115 117 119 121 160 185 184 182 178 177 172 172 170 167 164 153 138 127 128 159 149 138 132 123 117 113 106 105 104 105 109 107 105 100 96 100 101 103 103 104 104 99 98 95 94 92 90 90 90 86 82 68 43 41 39 56 81 39 63 49 49 47 47 45 49 49 52 145 151 150 146 133 177 156 193 198 201 202 201 198 142 133 116 106 100 90 66 71 96 95 96 107 113 118 132 171 180 182 186 179 178 176 172 170 164 162 153 145 136 127 113 131 158 149 137 129 121 113 99 111 110 113 111 110 108 105 101 105 104 105 105 106 105 102 101 97 95 92 93 92 93 90 82 67 43 40 41 58 86 72 44 51 50 49 48 47 48 46 47 54 172 158 152 145 178 145 180 193 196 203 201 206 205 200 160 151 122 81 76 71 77 79 93 105 129 178 178 175 176 172 166 167 169 164 158 160 153 157 145 133 127 120 119 102 167 163 152 134 126 123 119 114 116 111 116 114 112 105 105 108 106 105 105 107 106 104 103 97 95 96 93 91 94 91 86 65 42 40 51 62 58 84 100 51 51 48 49 48 48 48 46 51 77 175 172 161 171 144 119 193 192 197 203 201 203 200 193 182 173 176 120 101 97 121 190 190 167 169 148 139 129 118 115 113 112 106 102 104 113 113 108 101 98 106 105 91 94 172 166 149 140 131 132 129 124 117 115 114 114 108 110 110 108 108 106 106 107 102 99 98 96 96 93 93 94 93 80 69 49 42 55 59 56 75 84 49 51 49 49 48 48 48 51 47 51 152 183 179 167 161 116 123 164 149 146 152 154 174 192 216 216 216 213 216 185 129 124 116 101 111 98 96 88 81 76 70 67 64 65 58 55 48 37 28 17 12 10 16 62 187 181 161 149 146 144 135 127 121 120 117 116 110 111 111 110 109 106 104 106 104 100 101 98 95 93 94 94 92 81 69 57 45 60 58 68 70 66 51 51 49 49 49 49 49 49 48 48 68 195 188 182 181 156 127 122 100 114 121 126 121 116 124 122 127 112 110 105 105 100 100 102 91 87 77 71 67 61 55 52 51 67 71 68 56 74 66 25 16 20 31 128 192 184 169 156 153 150 143 133 124 121 121 118 111 110 114 112 108 107 105 109 107 103 105 98 97 94 94 94 90 79 70 64 53 59 64 79 78 98 51 51 50 50 50 50 49 47 49 48 50 144 191 191 186 182 168 166 177 96 107 108 107 106 113 119 111 106 104 99 92 90 91 82 76 77 69 64 59 62 82 77 70 87 96 61 65 98 88 26 42 53 92 202 195 189 177 160 155 155 150 134 123 121 122 118 115 116 116 113 109 108 109 108 106 103 103 99 97 97 96 94 90 79 71 63 59 62 68 86 103 40 51 51 49 50 50 50 51 48 48 49 47 59 193 191 194 186 184 183 199 167 102 86 79 82 93 92 92 87 85 90 78 78 78 65 57 53 57 73 88 124 123 98 89 126 137 60 106 110 84 51 51 112 206 203 194 187 180 166 160 162 151 137 125 125 125 122 120 120 118 115 111 110 111 107 106 104 101 99 98 98 97 92 89 79 70 55 62 64 78 57 121 132 52 51 50 50 49 49 48 48 49 49 44 48 127 190 197 192 186 189 203 206 142 106 213 142 155 116 109 104 84 88 100 126 108 104 104 123 127 107 131 167 164 115 89 134 140 106 101 77 55 84 155 196 200 201 189 191 181 164 162 160 149 134 126 126 126 124 122 120 117 115 113 113 111 109 107 104 104 99 100 100 99 93 85 76 69 47 58 72 68 100 55 174 51 51 50 50 49 49 48 49 49 48 55 48 49 186 192 196 186 188 203 213 171 129 226 190 228 181 220 222 188 182 213 217 199 157 150 194 190 143 173 201 189 156 102 131 134 95 68 94 119 146 183 190 197 191 183 192 184 174 161 167 146 133 128 129 128 124 123 119 118 116 113 113 111 108 107 105 103 102 101 102 98 91 85 78 56 45 56 77 78 88 86 155 51 49 50 50 49 49 48 49 49 48 46 45 52 99 190 191 190 188 203 215 189 143 211 223 230 200 230 231 205 189 228 224 218 183 168 210 207 170 208 204 186 154 77 92 99 110 101 114 134 165 183 190 185 181 177 192 186 170 159 161 141 133 132 131 128 124 123 119 118 116 114 113 110 109 108 105 103 102 103 103 97 91 82 75 46 44 47 71 165 80 118 103 51 49 50 50 50 50 49 50 50 49 47 48 48 51 161 195 194 188 201 210 203 138 147 213 234 221 233 229 221 203 231 229 219 204 174 214 212 186 197 202 192 134 47 107 100 106 111 131 157 175 186 182 170 170 171 193 186 168 158 152 138 132 134 132 128 125 122 119 118 116 115 113 111 110 107 104 104 105 103 102 97 90 81 58 46 41 43 109 86 196 101 96 50 48 50 50 50 50 49 50 50 49 47 48 46 45 54 188 194 190 197 208 208 131 128 201 228 217 228 229 222 204 226 224 214 199 175 220 199 194 96 183 171 104 108 104 100 101 105 147 160 174 178 175 171 155 183 195 182 169 157 146 134 130 132 134 131 126 123 120 118 117 114 111 109 109 107 107 108 104 102 102 96 89 80 48 47 39 57 185 106 223 84 62 51 49 50 50 50 50 50 49 50 49 47 48 47 45 46 110 197 196 192 205 208 160 135 130 150 210 226 224 218 191 215 215 204 180 130 194 168 111 103 107 120 117 94 100 95 106 139 150 166 175 172 170 161 166 183 197 179 164 151 138 131 130 132 133 129 125 122 118 117 114 114 112 109 110 110 108 108 103 105 104 95 87 60 45 44 33 70 178 92 237 103 54 51 51 50 50 50 49 50 49 50 50 48 49 49 49 49 45 155 188 199 202 208 192 132 140 138 140 149 189 187 176 184 179 178 145 121 118 119 126 121 121 114 92 96 95 103 135 144 152 163 169 168 165 160 180 187 195 174 154 144 129 129 131 133 130 127 126 121 117 117 116 115 111 110 111 110 108 106 103 106 103 91 88 55 46 46 47 79 107 157 229 219 48 51 51 51 50 50 50 50 49 50 50 48 49 47 46 46 50 55 173 197 200 207 207 111 138 146 136 147 139 153 154 151 154 153 132 146 137 119 130 116 107 96 90 80 106 133 136 141 154 166 165 163 161 171 178 185 187 165 149 133 128 126 132 130 128 126 125 122 120 118 114 111 113 112 112 108 109 105 108 108 100 91 77 50 47 45 52 107 50 237 237 192 135 51 50 51 51 50 50 50 49 49 50 50 49 49 49 48 47 49 80 191 200 205 205 148 127 137 152 161 182 184 167 191 192 161 171 153 160 128 102 92 87 82 77 111 136 139 140 143 156 164 164 167 166 169 171 189 174 158 143 130 125 123 131 127 127 125 125 121 119 115 115 113 112 113 112 109 105 106 110 105 99 90 59 49 47 46 72 160 73 213 90 74 38 51 50 51 51 50 49 50 49 50 50 50 49 49 48 48 48 49 38 118 199 206 206 199 112 121 124 126 129 141 130 129 139 123 119 121 113 94 88 82 83 93 120 141 140 135 140 143 156 166 167 170 169 171 172 180 169 151 136 127 124 126 129 126 124 123 123 120 119 116 116 112 114 113 110 108 108 110 107 102 96 82 55 48 46 46 68 104 91 150 68 58 66 51 50 51 49 50 50 50 49 50 50 50 50 49 47 49 47 48 47 44 141 197 205 204 177 110 121 114 116 112 121 120 133 111 117 105 96 91 93 100 122 140 148 144 135 136 139 150 163 174 170 174 170 172 166 171 160 144 131 127 126 127 125 127 123 121 122 118 118 117 115 115 112 112 109 109 110 109 103 101 95 77 52 47 46 45 46 77 126 68 81 57 62 51 50 51 49 50 50 49 48 48 49 50 49 48 46 47 47 48 47 42 50 174 204 205 198 186 144 120 108 106 108 101 101 98 98 99 104 130 132 147 157 156 147 140 135 141 145 158 171 178 175 171 167 162 163 163 148 134 129 126 127 127 127 125 123 122 121 121 119 120 116 114 114 107 108 111 110 105 103 100 95 72 52 47 45 46 46 78 59 100 62 44 60 51 50 51 50 50 50 49 48 49 49 49 49 48 47 47 47 46 47 52 54 70 196 201 206 197 186 176 166 152 156 154 147 139 135 135 138 157 162 162 158 154 141 139 143 149 154 170 181 180 177 166 161 158 156 149 136 131 129 126 127 126 127 125 122 121 121 120 118 116 117 113 106 107 111 110 107 106 100 99 94 73 52 46 44 45 57 75 171 183 171 147 47 50 52 51 50 50 50 49 48 48 49 49 48 48 47 47 46 46 46 50 45 49 114 202 205 202 191 180 179 174 180 175 172 163 165 164 166 165 162 162 150 151 145 145 148 157 167 178 187 179 174 161 157 152 148 141 132 128 129 125 126 124 124 123 122 120 121 119 118 116 114 104 106 108 110 109 106 107 102 99 94 73 53 47 49 51 55 68 135 172 189 189 51 50 51 51 50 50 50 50 49 48 49 49 47 49 47 47 47 48 47 47 47 46 47 168 202 206 202 193 186 185 181 181 174 164 167 167 166 170 170 163 162 160 161 159 161 165 180 190 187 176 167 157 151 143 137 132 129 127 127 127 125 125 125 125 124 123 121 116 118 109 103 102 106 107 108 108 105 103 100 97 96 78 55 54 61 72 84 80 126 106 72 169 98 51 51 51 50 50 50 50 48 48 49 49 48 48 48 48 48 48 47 47 46 47 46 64 206 208 207 202 197 198 195 190 184 173 172 174 178 177 176 176 176 176 174 166 171 188 196 193 186 169 160 151 142 136 131 128 125 126 127 127 124 125 124 125 125 124 120 115 113 99 97 102 105 105 105 107 104 104 102 97 95 90 65 74 82 84 86 81 76 115 93 203 65 51 51 51 50 50 50 50 48 48 49 49 48 48 48 48 48 48 47 45 46 46 47 46 146 207 212 208 206 206 204 202 201 200 196 195 195 196 200 198 194 189 183 184 192 200 186 191 182 170 155 144 135 131 127 126 127 128 128 127 128 122 123 122 124 122 117 104 90 96 99 101 105 104 108 108 111 111 104 98 102 103 85 88 93 92 85 83 81 79 124 55 62 51 51 51 50 49 50 50 49 49 50 48 49 49 48 48 48 48 48 46 46 46 46 47 59 206 212 206 210 212 214 214 217 217 217 219 218 215 214 209 202 194 193 199 204 199 189 186 171 158 150 135 130 127 126 125 127 127 127 127 126 123 120 123 123 112 93 89 91 98 100 103 105 104 113 117 119 116 108 106 114 119 116 102 92 92 89 86 88 107 117 132 122 51 52 51 51 50 50 50 49 50 50 48 49 49 48 48 48 48 47 48 46 45 47 46 45 170 215 211 211 214 217 221 221 222 222 219 220 216 208 208 205 203 200 200 196 188 186 184 166 152 141 130 126 124 125 126 127 126 125 127 125 127 124 117 99 85 86 90 95 97 97 100 104 114 125 125 121 115 109 110 119 127 135 125 104 96 92 90 106 109 111 109 100 50 50 49 50 50 51 51 50 50 50 49 50 50 50 49 49 49 47 47 48 45 46 46 45 70 218 215 211 212 216 219 219 219 215 215 218 215 212 214 209 204 193 193 189 189 185 176 155 142 132 125 124 123 126 128 131 127 127 124 126 122 111 83 81 83 86 89 89 93 103 110 122 134 130 127 119 115 107 112 123 136 138 138 130 108 100 110 121 120 116 110 106 51 51 50 50 50 50 51 50 50 49 50 50 50 50 49 49 49 47 48 48 45 46 45 44 42 205 208 211 211 213 216 218 216 214 214 215 217 214 211 205 193 191 184 185 188 179 164 144 133 130 126 117 122 129 129 128 126 128 124 116 86 74 74 79 81 84 90 94 100 115 132 138 136 130 126 117 111 109 120 133 140 141 139 139 133 130 127 123 121 118 113 109 50 50 52 52 52 51 52 50 50 49 50 51 50 49 48 49 49 47 48 48 45 46 45 45 49 115 207 207 208 212 214 211 208 208 209 212 217 211 200 193 186 173 178 177 182 167 149 132 130 129 124 122 129 127 128 130 126 120 93 64 65 65 72 80 84 89 95 104 122 136 138 137 131 128 121 114 109 114 129 139 142 140 143 139 136 134 133 125 124 120 114 111 52 52 51 51 51 50 49 50 50 50 50 50 49 50 50 49 49 47 48 48 48 45 45 45 40 43 204 206 208 209 208 207 208 208 206 207 208 199 195 187 179 177 178 176 176 157 139 130 129 129 130 131 131 128 132 124 89 64 58 62 66 69 76 81 84 91 109 126 134 137 138 135 131 123 119 110 109 120 135 142 142 141 141 139 136 136 130 125 123 121 118 112 52 52 51 51 52 51 51 50 50 49 49 50 49 50 49 49 49 47 48 48 48 45 45 45 47 51 105 210 202 206 204 202 202 202 201 200 198 193 190 183 181 178 178 176 160 146 133 132 129 132 135 133 133 122 97 82 67 61 62 63 68 75 77 83 90 112 131 134 138 138 134 133 129 122 117 111 113 129 141 145 144 143 142 139 135 135 131 128 127 123 118 115 50 51 51 51 52 51 50 50 50 49 49 49 49 50 50 49 49 47 45 46 48 45 45 45 42 47 47 168 197 199 196 196 196 196 197 196 193 192 185 180 180 176 171 161 152 140 135 129 135 145 140 129 115 110 89 83 71 65 64 65 70 73 79 93 119 134 137 137 138 138 133 128 127 121 115 114 117 136 143 143 143 140 139 139 138 133 133 132 129 126 121 118 51 51 51 51 53 51 50 51 50 47 51 51 51 50 50 49 49 47 48 49 48 45 46 46 45 47 45 57 176 190 198 192 193 192 191 192 188 186 181 179 176 166 161 150 139 136 138 139 169 144 115 112 111 113 106 86 78 68 64 67 73 78 92 120 132 135 136 136 138 135 134 129 125 118 117 113 123 139 143 144 144 141 139 137 135 135 132 131 130 126 121 118 51 51 51 51 53 51 51 51 50 51 51 51 51 50 50 49 49 47 48 49 48 45 46 46 45 46 46 48 58 163 191 184 187 186 186 187 185 184 177 175 170 162 147 143 139 137 151 188 193 190 156 112 113 113 117 104 77 73 68 70 74 89 125 130 135 136 136 137 136 133 133 128 123 117 116 117 132 141 142 145 143 139 138 134 135 136 134 133 130 127 124 119 51 51 51 51 51 51 51 51 51 51 50 51 51 50 50 49 50 47 48 48 48 45 46 46 45 46 46 46 46 50 110 177 178 176 180 178 177 178 172 168 159 146 145 141 146 162 176 189 199 201 194 170 129 121 117 113 79 73 73 73 83 117 127 133 135 135 137 135 136 133 131 128 122 117 114 122 133 140 140 141 141 140 138 134 134 133 130 132 130 128 126 124 54 53 52 50 52 52 51 51 51 51 50 51 51 50 50 49 49 49 48 48 48 45 46 46 44 47 46 44 45 45 40 55 107 156 166 163 164 162 155 151 143 143 154 159 162 167 175 188 199 204 207 203 173 128 120 121 91 77 76 80 107 127 134 134 134 134 138 140 135 133 128 125 122 118 114 125 135 136 141 142 141 139 137 136 136 132 133 134 128 131 138 157 57 55 52 52 53 52 51 51 51 51 51 52 50 50 49 49 49 49 48 48 48 45 46 46 46 47 47 44 44 45 41 41 46 37 56 168 209 211 210 203 194 179 169 163 162 167 177 189 203 207 207 207 206 170 128 122 106 89 83 98 123 129 131 138 138 140 139 136 134 132 128 123 119 116 116 131 136 139 142 141 139 133 131 132 133 134 131 132 146 158 174 182