P2
# Generated by OpenCV 4.2.0
92 112
255
81 87 99 104 100 111 105 100 100 96 100 99 99 100 94 93 98 93 93 97 115 118 109 115 110 100 108 111 110 115 116 114 115 118 118 120 121 121 125 126 124 133 136 136 137 139 138 136 137 143 150 167 155 159 173 173 176 179 183 188 183 185 187 199 202 200 201 204 213 217 223 223 221 218 216 217 227 228 226 225 231 236 240 240 239 235 236 237 236 225 214 230 93 93 107 99 106 111 102 99 98 94 95 96 97 95 93 96 100 104 101 109 116 113 110 104 105 107 109 108 110 111 114 115 116 115 115 117 122 126 128 125 126 131 139 144 146 146 149 145 143 147 152 166 165 159 169 180 176 175 184 184 184 189 188 201 196 191 190 198 208 208 209 209 209 215 215 218 222 224 227 230 232 234 233 235 237 238 236 236 236 229 225 222 94 103 108 101 111 106 100 99 93 92 95 95 92 93 96 93 92 94 103 115 110 104 106 113 112 108 104 105 107 109 113 112 113 117 119 119 121 126 129 126 129 132 139 144 150 154 155 158 158 157 161 165 171 168 165 177 173 175 185 182 186 181 192 194 189 188 199 210 205 200 205 209 209 205 206 208 212 215 220 222 223 231 234 234 235 235 236 236 233 231 226 225 104 110 104 106 111 105 101 96 92 93 95 96 95 97 99 99 96 98 109 113 113 115 118 113 105 104 107 111 110 110 112 113 114 115 119 120 121 125 127 128 127 133 140 143 147 152 153 155 157 160 165 169 168 171 173 173 169 179 182 188 187 189 196 193 197 201 203 206 201 205 209 209 196 198 205 206 216 221 225 228 229 230 233 235 235 234 233 235 231 230 221 228 113 109 100 109 108 104 98 93 91 96 94 94 94 95 93 98 103 113 121 126 123 117 105 100 103 108 111 109 109 111 112 116 120 120 123 125 129 130 130 128 130 136 141 143 145 150 148 149 151 156 163 162 167 168 173 169 172 182 183 185 189 197 195 193 196 201 202 209 202 209 213 202 194 204 206 210 216 216 220 228 228 229 230 237 238 236 234 231 234 232 228 232 113 106 99 112 109 105 98 93 92 97 88 90 95 96 96 98 109 119 125 120 110 103 102 101 106 109 107 108 110 112 117 121 124 127 127 127 130 130 131 131 132 140 145 150 152 152 152 154 154 155 154 155 163 161 167 166 170 175 176 186 189 192 195 198 201 199 203 206 207 207 206 202 198 202 208 212 205 209 212 210 213 221 225 229 232 234 234 231 231 231 227 232 106 100 102 112 107 107 102 100 100 99 94 96 94 95 97 107 116 125 124 110 102 103 101 102 110 107 106 112 115 117 120 123 125 130 128 130 132 132 132 133 134 141 146 151 153 152 155 157 157 158 159 159 161 160 164 167 170 172 175 181 185 193 200 203 204 194 199 207 208 203 209 203 205 214 217 214 215 222 215 208 210 211 216 224 227 230 233 232 233 227 226 229 103 101 107 110 103 98 95 99 90 94 97 95 92 95 105 117 125 126 109 93 100 104 100 102 107 105 109 113 114 119 121 125 129 130 130 133 135 136 133 135 137 140 145 151 151 153 155 153 156 157 160 163 162 164 168 170 174 175 176 179 182 189 203 206 205 200 197 203 206 206 211 211 213 213 213 218 220 221 222 225 232 230 229 225 226 230 230 231 231 229 226 229 101 99 103 105 102 100 98 99 96 96 97 92 96 99 114 119 120 105 94 99 106 101 99 103 107 108 112 115 117 117 122 125 131 130 131 133 136 136 136 138 141 145 148 152 153 153 157 155 159 160 162 161 164 165 166 169 172 176 178 181 188 195 200 210 214 209 203 198 204 209 216 216 208 212 208 214 223 226 222 223 227 228 231 235 234 235 235 232 227 227 227 231 98 98 103 106 103 102 96 92 95 97 95 97 101 111 119 119 108 101 102 103 100 98 103 108 106 107 111 116 117 119 125 128 134 134 135 136 138 136 135 138 139 144 150 152 153 154 156 158 159 161 162 161 161 166 167 170 172 176 178 183 190 201 204 211 214 211 214 210 207 212 212 218 219 226 227 216 221 223 222 222 219 221 223 233 237 237 234 233 231 230 231 231 98 95 97 105 104 101 89 93 87 89 93 98 105 118 122 108 106 107 97 95 98 103 110 110 107 107 111 118 120 124 126 130 135 137 139 138 137 136 137 136 135 144 151 152 154 154 156 160 159 160 162 160 159 164 172 174 174 173 179 185 192 200 205 208 209 213 216 220 216 211 202 206 221 224 236 227 216 214 218 223 212 213 223 229 232 234 233 232 236 234 234 232 94 92 95 100 102 98 94 91 93 86 89 102 108 122 117 107 107 98 96 99 101 106 111 110 108 111 114 117 119 120 125 132 135 138 138 139 140 140 137 136 140 144 149 153 152 155 158 157 162 160 161 164 165 169 174 179 177 175 181 189 196 199 204 208 209 216 221 224 224 216 211 207 218 226 229 234 227 219 213 225 225 217 213 218 222 224 223 228 231 233 233 231 93 89 97 99 99 99 95 89 90 92 96 99 114 122 113 106 102 95 97 101 102 107 110 109 110 111 116 120 120 124 129 134 135 136 140 141 142 142 142 142 144 149 153 152 154 156 156 158 161 162 160 164 167 171 175 179 180 180 184 190 194 199 203 208 214 219 222 226 227 229 221 213 210 224 229 234 233 225 221 224 230 228 227 225 218 221 225 231 234 237 235 228 95 91 94 98 99 100 97 89 84 91 95 104 122 112 104 106 101 95 102 103 104 108 112 111 111 112 116 122 122 126 129 135 138 137 140 143 141 141 143 144 146 149 155 155 156 154 156 159 160 162 162 162 166 173 177 180 184 185 188 192 196 198 204 207 215 220 223 228 229 231 231 222 207 205 227 236 234 228 229 223 227 228 229 234 236 237 239 237 236 234 228 232 94 94 93 96 101 98 96 92 91 95 99 118 117 104 105 109 99 101 104 106 104 106 111 115 116 115 119 121 120 128 132 132 134 138 140 141 142 145 146 146 148 151 152 155 155 153 156 161 161 162 162 163 168 175 179 180 187 189 192 197 199 197 206 211 215 222 227 227 229 231 232 230 216 198 213 236 238 230 228 222 224 232 233 235 239 239 238 236 230 228 230 237 94 98 98 98 101 96 94 94 99 98 106 124 110 100 102 106 98 103 105 108 107 112 114 114 120 121 125 125 126 130 132 133 136 141 142 141 143 147 148 146 150 151 152 156 156 155 158 160 163 162 162 165 171 173 176 181 189 191 196 199 201 201 205 212 217 221 226 228 228 234 232 229 227 213 207 228 240 231 223 222 216 226 232 230 230 236 237 235 234 233 238 240 92 97 97 95 99 99 97 99 100 100 119 120 105 96 105 100 99 101 106 110 113 116 118 117 119 124 128 127 129 133 137 140 141 143 142 141 144 146 146 147 150 150 150 154 156 157 158 159 162 160 163 167 169 169 170 181 189 193 192 197 202 205 209 214 220 222 226 228 231 232 235 231 228 222 208 219 234 236 227 226 219 224 229 233 232 233 236 238 236 240 245 239 97 93 95 92 92 95 100 103 97 105 121 110 98 103 101 95 101 104 108 112 113 114 117 118 121 126 130 129 130 137 139 140 141 143 143 145 146 147 145 146 147 150 151 155 157 160 161 157 159 159 161 166 168 169 175 183 187 190 191 195 200 206 209 213 217 222 224 229 232 231 231 232 233 224 210 215 232 236 231 230 224 220 225 229 229 231 234 239 243 242 238 236 103 95 93 93 87 95 101 105 96 111 114 102 100 100 94 100 99 102 108 110 112 113 117 120 126 128 130 132 133 135 139 142 143 146 146 147 147 144 147 150 148 151 153 156 157 158 158 159 158 157 161 165 169 173 178 185 189 192 195 196 202 205 208 210 215 219 224 228 233 235 234 236 235 231 216 210 230 234 233 231 234 220 214 225 226 227 233 235 239 238 236 237 99 98 94 97 94 94 105 105 102 115 104 103 101 92 97 101 100 103 107 110 113 115 117 121 125 128 130 133 134 137 138 138 142 146 148 149 147 147 147 150 152 152 153 156 158 160 158 160 158 158 158 165 168 172 179 183 187 191 196 197 200 205 210 212 214 218 221 225 229 234 238 239 238 233 225 210 222 231 235 233 236 229 214 214 229 222 228 232 237 239 239 235 97 99 96 92 97 104 111 103 108 108 102 103 92 89 97 99 100 103 106 110 111 114 117 122 126 128 131 133 136 141 140 140 144 146 148 149 148 148 148 150 153 153 155 156 158 159 159 160 159 160 162 166 169 173 180 182 187 191 198 200 200 206 210 214 215 217 221 223 229 232 236 238 238 234 229 214 212 227 235 230 236 230 229 217 228 228 226 226 227 233 234 237 94 98 99 97 99 110 109 105 109 106 107 93 81 93 97 101 101 102 103 108 113 116 120 121 125 129 132 134 137 140 143 142 144 148 147 146 146 146 149 151 151 152 153 156 159 159 160 159 160 161 163 166 172 175 179 181 188 192 199 200 200 207 207 214 216 218 222 224 228 234 235 236 237 234 233 224 207 218 232 229 232 233 232 231 226 237 236 235 227 229 235 237 95 95 99 96 104 115 108 108 110 109 102 82 86 94 98 103 104 104 105 109 115 117 119 121 125 130 133 134 135 139 141 143 143 145 147 143 146 149 147 148 152 151 153 159 160 159 158 160 161 163 164 167 171 174 178 183 186 190 196 199 202 206 210 212 216 217 222 223 226 231 234 238 239 237 233 228 208 206 227 229 228 235 233 237 231 232 235 237 237 235 239 238 93 97 98 96 110 117 112 110 110 107 88 83 90 97 100 102 105 106 109 111 114 118 119 118 126 131 132 134 136 138 141 144 145 144 146 147 146 150 148 151 152 152 150 155 161 160 160 160 161 163 165 168 169 174 177 182 187 190 194 198 204 209 211 214 216 217 220 220 224 229 231 234 237 238 233 230 218 202 216 230 225 230 230 236 238 233 234 237 236 235 237 238 93 95 96 100 117 116 113 111 112 100 83 83 90 98 99 102 105 100 108 111 110 113 119 118 123 128 133 134 138 137 142 145 145 146 146 149 151 151 150 151 150 152 154 159 158 158 161 162 161 162 165 168 170 176 179 182 188 189 192 196 203 209 210 213 213 216 218 221 224 227 229 230 234 235 231 232 226 205 205 228 223 223 229 234 240 236 235 237 238 231 234 236 101 98 95 109 120 116 113 108 110 90 79 83 93 95 95 97 100 98 104 107 109 111 116 117 121 128 131 135 138 141 145 147 147 147 144 148 152 152 151 154 153 155 156 158 160 161 160 162 161 166 168 167 172 174 173 185 189 190 193 196 203 206 210 213 213 218 217 221 224 227 227 230 232 234 231 229 231 213 203 217 231 221 229 230 239 238 230 233 237 239 239 236 98 99 96 117 118 115 111 107 104 86 84 85 94 91 91 93 97 99 104 106 105 108 114 118 119 125 130 134 139 145 147 148 151 148 146 146 150 152 152 153 154 154 158 157 159 160 162 163 164 167 167 164 169 171 174 185 187 188 191 198 204 204 206 214 215 219 220 222 225 225 228 230 230 233 234 232 231 221 200 209 228 226 225 227 233 240 234 233 230 232 236 232 99 101 99 119 116 114 109 109 97 82 84 89 94 90 89 91 92 89 93 103 105 108 114 117 120 124 130 135 142 145 147 148 152 151 150 150 151 151 152 151 154 155 158 159 158 158 160 162 164 168 167 166 166 170 178 183 186 187 190 197 203 205 210 215 216 214 220 224 223 225 227 230 231 233 234 233 231 227 199 200 222 229 225 231 233 240 238 238 233 232 238 237 104 102 108 121 113 115 106 107 91 82 87 90 89 87 75 72 70 67 71 81 88 89 95 105 116 122 131 136 142 144 147 148 147 149 149 152 151 150 149 152 153 154 157 159 159 161 162 161 162 167 167 167 170 170 175 180 184 189 194 195 197 205 211 213 214 213 219 224 224 226 229 231 234 236 234 231 228 228 209 195 215 231 227 232 236 239 240 240 239 235 227 233 101 106 119 119 112 113 106 102 88 86 89 89 88 76 59 59 55 51 58 61 58 60 68 84 97 101 109 125 126 131 137 141 143 148 150 152 150 150 150 151 151 157 156 156 160 163 163 161 161 164 165 165 168 172 175 176 182 187 192 200 201 205 206 208 212 214 218 220 223 227 232 235 235 237 234 232 226 223 215 198 206 222 233 227 234 240 240 238 238 243 234 226 109 111 122 114 112 111 108 97 88 89 91 91 78 55 51 46 48 45 43 49 52 57 53 57 58 54 59 75 89 96 109 119 137 138 144 152 150 150 152 154 152 156 157 156 158 161 164 162 163 163 162 162 165 167 171 175 183 187 190 194 196 202 203 205 206 212 214 216 216 224 233 238 241 239 238 233 227 225 217 198 203 212 233 231 231 238 238 236 233 236 242 238 108 117 121 111 111 111 103 91 86 91 94 84 50 44 48 45 50 58 54 49 51 57 60 59 64 58 58 66 76 90 93 96 118 132 135 146 154 153 152 154 154 156 158 158 158 162 163 162 162 159 157 154 157 156 159 162 167 173 178 180 180 186 189 189 182 192 188 182 192 204 210 220 237 240 236 231 226 227 218 196 204 210 229 234 228 234 238 233 236 231 238 238 107 118 119 112 113 111 100 90 88 94 94 68 47 52 63 76 71 76 80 75 67 63 64 62 68 72 68 74 79 91 96 91 103 125 130 141 152 154 152 153 155 155 155 157 160 162 159 162 158 153 148 141 143 140 124 117 112 116 125 128 132 133 141 142 140 142 142 142 148 150 159 173 191 214 233 231 226 227 221 197 204 207 222 233 229 234 236 230 235 231 230 236 111 122 116 111 115 110 92 91 90 94 85 55 51 68 89 103 98 101 103 109 113 103 86 76 74 76 69 76 81 84 97 96 102 124 129 138 148 153 152 156 155 157 155 155 160 161 157 156 150 144 138 128 129 111 88 84 96 95 89 89 101 108 110 114 130 125 121 135 143 144 146 158 163 170 193 222 228 226 220 199 206 208 216 230 228 232 237 232 234 234 225 231 120 121 112 112 116 101 87 90 92 95 82 58 70 92 105 109 107 112 118 121 121 121 121 117 103 91 90 80 82 92 99 101 109 125 130 133 141 152 157 157 155 154 154 156 162 163 160 153 151 135 129 127 126 109 104 110 112 110 97 93 106 114 119 120 125 129 139 150 156 160 157 160 165 166 165 180 200 218 224 202 201 206 212 230 230 230 237 235 233 236 233 236 124 117 109 116 114 94 88 93 93 96 75 66 84 100 108 112 114 116 117 119 120 121 120 123 118 108 112 113 104 103 107 111 118 128 131 133 145 151 157 157 157 156 157 158 161 165 164 152 148 143 140 132 130 128 138 125 114 110 114 115 117 125 132 136 148 166 174 178 188 192 188 187 192 192 191 179 172 186 216 209 202 202 210 228 232 229 232 236 234 234 229 230 123 115 112 118 105 90 93 94 95 90 78 82 96 104 108 114 114 116 115 116 118 121 119 121 123 121 118 117 118 118 118 121 123 128 132 141 144 148 153 154 155 157 159 162 162 165 168 160 151 153 153 147 147 149 147 132 130 136 138 137 148 154 162 176 191 190 189 202 209 215 215 213 217 221 205 190 192 192 199 203 201 206 209 227 232 226 230 236 233 232 233 230 116 110 116 118 98 88 92 95 97 89 82 93 100 103 106 111 112 114 112 111 111 109 111 116 121 121 120 116 112 115 121 126 128 132 134 142 142 148 151 153 154 158 161 164 165 169 171 166 160 162 164 160 167 165 158 160 159 158 161 164 169 169 170 178 184 185 189 195 203 209 213 220 228 232 226 213 206 207 209 200 193 203 205 225 230 226 229 236 235 235 236 228 113 109 122 112 89 90 95 98 97 89 90 96 101 101 102 107 106 103 100 96 94 92 94 98 103 110 113 115 115 115 113 117 122 127 131 135 140 147 152 153 156 155 165 170 169 172 177 175 172 170 175 171 171 171 170 168 164 163 161 161 164 164 166 166 169 177 181 189 196 200 210 217 227 233 228 225 218 210 211 202 196 203 202 225 230 223 230 236 239 237 237 227 111 116 123 97 83 94 98 100 96 92 96 100 103 104 99 98 94 94 93 87 81 75 73 74 80 87 92 98 105 110 110 110 113 117 121 128 136 142 148 157 158 155 169 174 175 177 182 185 184 178 175 173 167 163 161 159 156 155 150 154 156 155 154 153 159 166 169 175 186 193 201 209 220 226 227 221 216 214 218 211 199 202 201 222 232 223 228 235 239 236 238 234 109 124 115 87 87 97 98 99 95 94 97 101 100 98 93 96 91 87 77 69 67 72 73 73 77 81 82 81 84 95 106 110 109 108 108 115 127 134 143 150 152 158 168 174 179 184 188 190 187 181 170 163 159 154 151 146 143 139 135 133 135 137 142 149 152 157 161 165 174 185 195 202 212 221 225 225 223 220 219 209 197 199 204 221 233 225 229 235 238 236 238 238 110 123 102 83 91 98 101 100 98 98 99 99 100 97 91 88 85 71 64 67 73 70 65 73 77 78 82 84 79 78 93 106 112 106 98 98 110 126 136 144 150 159 169 178 187 194 198 195 183 168 155 149 146 141 134 123 107 97 97 98 100 110 119 126 133 140 148 159 169 179 191 203 210 216 221 226 225 221 219 205 197 199 202 220 234 227 229 234 238 236 238 239 122 117 92 86 93 98 102 100 99 101 101 98 96 93 86 82 72 65 64 65 68 63 53 53 74 83 79 78 79 79 76 90 109 106 98 94 93 111 129 140 149 159 172 185 196 204 206 196 171 152 148 146 138 125 104 84 84 91 96 104 119 130 137 141 147 145 140 140 145 160 180 199 209 214 218 224 226 225 221 205 200 200 201 218 235 230 227 232 237 237 235 239 132 110 91 89 95 100 101 102 101 102 101 99 92 86 82 73 59 47 49 46 43 35 41 37 40 54 62 64 81 86 83 74 86 97 96 92 93 98 120 134 147 158 173 189 203 211 210 186 158 151 150 140 127 95 79 91 100 102 94 98 112 116 124 141 140 156 180 171 154 144 157 181 199 212 217 222 225 223 221 204 201 203 203 215 231 233 229 230 237 237 233 240 128 109 94 85 93 102 103 104 104 102 102 101 93 85 70 61 48 36 30 39 31 32 31 43 42 36 71 68 65 86 92 81 74 82 87 90 92 94 109 129 145 157 174 194 211 217 211 176 160 157 143 133 108 83 86 70 61 66 68 73 75 79 79 83 90 144 156 172 203 192 160 164 188 205 214 220 221 223 222 204 202 207 206 213 228 235 232 229 235 238 234 238 121 109 92 87 95 104 104 104 104 101 102 101 98 87 57 41 31 28 54 48 38 48 16 52 68 34 110 141 100 82 81 85 88 82 79 90 92 91 104 124 140 154 175 200 218 221 199 165 160 154 136 117 97 88 62 41 48 45 60 70 52 88 149 136 103 76 102 151 206 219 210 189 191 202 209 217 220 221 221 210 201 209 208 212 226 238 235 231 236 239 237 237 116 108 91 88 95 105 102 102 105 104 102 98 97 91 72 52 42 51 63 61 45 55 38 57 72 57 131 155 140 134 114 78 83 93 93 95 99 90 103 124 138 155 175 198 216 214 183 161 158 144 126 114 94 69 64 47 69 30 60 97 49 83 171 184 190 159 113 96 117 151 187 197 195 201 209 217 221 222 223 216 203 213 209 212 221 238 240 234 237 241 239 237 113 107 94 89 96 107 106 103 104 104 100 99 103 98 90 78 65 59 60 73 42 46 54 59 61 92 157 161 149 126 118 95 75 81 93 103 104 92 103 121 136 152 169 194 214 207 176 159 156 139 126 107 61 62 85 48 73 63 65 97 83 135 192 203 206 209 210 167 103 121 148 171 186 203 212 220 226 229 229 228 211 216 209 210 219 234 241 236 235 240 237 238 112 105 96 87 96 108 106 105 106 105 100 103 107 106 96 89 79 68 66 68 49 34 36 35 55 112 135 131 116 86 74 73 75 65 77 111 102 93 108 121 134 148 170 191 208 207 183 157 155 147 114 72 62 56 87 50 46 70 69 69 88 170 196 207 211 203 189 177 161 189 203 195 194 200 207 222 234 235 232 237 223 215 213 212 218 229 240 239 236 241 239 239 105 103 96 87 96 106 107 105 108 106 105 107 110 111 106 102 95 82 75 71 76 74 73 65 88 96 91 85 90 90 93 96 97 92 105 110 97 101 110 120 133 148 173 194 208 214 199 167 152 152 129 93 83 82 86 79 65 62 58 61 108 148 153 160 157 155 148 160 191 213 221 224 222 215 221 227 233 236 238 243 238 217 214 212 214 222 237 244 239 238 241 239 104 102 94 84 93 107 107 105 107 107 107 108 111 111 111 108 105 101 96 99 100 90 90 85 100 104 111 106 108 107 105 113 120 120 110 102 100 106 112 120 131 151 176 198 215 217 209 189 159 151 144 139 130 119 116 117 118 117 117 126 122 124 134 138 152 170 179 198 215 216 219 227 232 226 232 232 228 233 235 242 246 223 215 211 211 217 231 243 241 236 239 240 103 101 92 81 91 107 106 105 106 106 105 106 113 113 114 112 112 109 106 104 107 107 108 109 112 115 113 112 109 105 105 106 109 108 99 102 106 109 116 122 133 153 177 199 215 219 215 206 180 154 140 131 128 124 120 126 132 135 144 152 152 158 164 173 184 195 203 211 217 219 222 228 228 223 225 225 222 226 232 240 242 231 214 212 208 214 226 235 244 237 236 242 101 97 90 83 91 105 108 106 106 105 105 107 111 113 111 112 114 113 114 111 108 106 112 111 109 110 109 109 106 112 113 105 104 101 105 107 107 114 119 126 138 154 176 198 215 223 221 214 196 166 148 136 129 128 126 129 135 139 146 154 163 168 173 184 190 198 207 209 210 213 220 223 222 217 215 214 218 224 231 237 237 234 219 212 209 212 224 230 241 241 235 240 98 94 89 86 92 105 108 106 105 104 106 107 108 109 109 110 116 114 114 115 115 112 109 109 111 114 117 115 115 123 120 112 103 104 107 110 110 116 121 128 140 155 178 198 214 223 224 219 209 190 165 146 134 132 131 134 136 141 145 148 153 160 166 175 184 192 200 205 205 210 214 215 211 209 210 207 217 226 233 237 237 237 223 212 209 211 223 225 234 242 236 238 99 93 91 91 92 104 108 106 103 105 103 105 114 112 111 114 120 119 120 120 118 118 116 118 121 122 124 120 123 126 116 108 105 111 114 110 113 116 120 129 140 157 181 201 214 222 225 221 216 208 192 168 146 139 143 143 146 148 151 152 155 167 171 181 190 196 200 203 205 209 211 208 205 202 201 208 218 230 235 237 236 236 227 212 208 213 222 225 229 239 242 238 103 92 91 92 91 101 108 109 105 107 109 110 114 112 112 117 120 120 119 122 124 125 122 122 124 123 122 124 129 121 114 111 113 113 110 111 114 116 120 130 141 154 179 201 216 222 225 224 218 209 208 203 189 171 154 148 154 154 156 161 169 171 177 184 190 195 197 199 200 202 205 203 202 199 203 213 221 230 235 237 236 233 228 214 207 215 218 220 228 233 242 240 116 95 94 93 89 96 107 111 107 109 113 112 113 116 114 115 118 121 122 124 126 126 124 126 126 123 123 126 125 117 116 116 113 111 111 113 115 115 121 129 140 155 182 205 216 223 226 228 222 216 212 212 210 206 189 163 156 157 159 161 164 171 177 185 189 190 190 195 198 196 194 196 197 202 207 215 223 231 235 234 235 233 228 216 209 216 213 216 229 230 236 241 126 103 92 95 84 89 110 111 107 110 111 110 114 118 117 116 121 126 127 127 125 125 126 130 126 123 125 119 116 118 120 118 113 112 114 114 114 116 123 130 141 160 186 206 216 224 228 229 226 224 219 216 213 207 205 194 174 164 162 162 164 170 175 183 187 189 192 193 193 197 198 193 195 204 209 217 224 231 234 233 233 233 230 216 210 217 211 216 228 227 231 240 125 115 93 94 83 81 108 110 106 109 112 115 116 115 119 119 122 124 129 129 128 127 124 128 125 125 122 116 118 120 120 117 113 113 115 113 113 118 125 131 143 164 185 204 214 222 230 230 230 229 224 218 213 207 204 203 194 182 171 168 172 174 177 182 187 186 190 191 193 197 197 195 201 207 213 220 228 232 234 232 233 231 229 216 209 217 210 216 227 229 229 236 113 122 101 93 84 72 101 106 106 106 111 117 116 117 120 120 122 122 121 128 131 128 124 124 125 123 119 119 121 122 121 118 116 112 112 113 115 119 127 135 145 165 186 201 213 221 229 230 232 233 230 223 213 208 203 202 199 195 188 178 177 179 179 181 184 184 187 186 191 195 196 198 206 214 218 225 230 230 233 234 231 231 228 216 211 216 207 217 218 228 228 232 98 119 116 93 86 79 98 105 104 105 110 114 114 117 121 123 122 121 123 126 123 122 120 120 120 120 120 123 121 122 122 120 117 115 113 113 115 120 127 134 146 164 183 199 208 218 230 232 235 235 232 224 214 204 199 200 196 197 195 191 185 180 179 180 181 186 185 184 187 191 192 199 208 217 220 226 226 227 231 231 230 230 227 214 213 214 211 208 201 226 231 231 108 106 126 105 85 86 98 102 102 103 106 110 116 114 117 125 122 124 125 122 118 116 118 123 123 124 124 122 123 123 120 121 119 115 113 111 115 123 129 135 149 166 181 198 210 220 229 231 235 234 230 222 214 204 195 194 197 198 197 195 193 186 182 179 186 186 179 179 184 190 193 198 208 216 221 225 225 227 230 228 228 229 226 215 216 211 214 199 204 227 230 230 124 112 109 121 93 87 95 103 102 101 105 109 114 117 118 122 121 119 119 116 120 122 123 125 126 127 125 122 126 128 125 122 116 110 112 113 115 123 129 137 150 167 184 198 210 220 229 228 232 236 232 216 209 203 196 194 193 196 197 196 192 186 183 184 184 180 178 178 187 192 197 204 210 217 220 224 225 227 229 230 227 227 223 214 214 209 216 210 215 228 230 229 120 123 110 112 112 86 88 103 103 102 104 107 111 115 117 118 117 116 118 117 120 124 126 127 126 127 126 126 131 131 129 122 111 108 111 113 118 128 132 139 155 170 186 200 209 222 230 227 221 225 233 222 202 198 193 193 189 190 194 191 193 191 185 185 183 179 185 186 190 192 197 209 214 217 217 225 226 227 227 225 226 227 222 215 213 211 216 215 219 233 234 227 94 115 124 110 115 104 80 100 103 102 104 107 112 113 112 115 114 117 118 120 123 126 128 129 128 129 131 131 134 133 129 117 109 110 112 115 122 131 137 147 156 170 189 202 212 225 231 228 221 218 222 230 203 187 187 188 189 188 189 190 191 187 187 188 182 179 185 190 193 194 201 210 214 217 221 222 223 221 223 225 229 229 220 216 213 206 207 214 222 236 235 231 102 95 116 127 112 116 88 94 102 100 103 104 107 110 110 112 113 118 120 123 126 128 130 131 131 130 133 133 134 135 129 114 109 114 115 119 126 135 143 152 159 171 190 204 214 225 231 231 226 221 220 226 209 184 182 185 183 187 186 185 188 186 183 187 187 179 188 192 194 201 206 205 212 216 220 220 222 221 223 226 228 226 217 215 213 195 204 215 229 237 236 234 141 117 102 122 125 112 109 96 101 98 101 104 105 105 108 113 115 118 119 123 125 130 132 131 132 135 133 133 135 136 126 113 115 119 120 124 128 135 146 157 166 176 191 204 211 220 224 226 227 227 226 224 210 179 177 181 182 181 184 186 186 189 184 187 189 185 192 194 200 204 208 207 212 216 218 218 220 218 221 225 227 224 217 216 205 183 200 219 232 234 233 230 115 133 124 112 120 121 115 108 99 98 98 103 103 104 107 112 113 113 115 120 123 128 130 131 130 134 133 137 140 137 124 117 123 129 131 128 131 137 146 157 166 179 195 202 208 215 217 217 216 219 227 227 211 179 176 176 177 180 183 183 184 184 180 184 189 189 193 200 200 201 206 212 212 214 217 217 218 217 219 222 225 221 218 216 194 173 205 224 233 233 236 226 69 91 126 126 113 117 117 113 100 96 99 100 103 104 106 110 111 114 119 122 126 128 129 129 132 133 137 143 142 137 123 119 130 138 137 128 130 137 145 155 167 185 197 199 206 211 202 201 202 207 219 229 210 178 175 174 174 178 178 181 181 184 183 185 188 192 196 200 201 203 205 210 212 213 216 216 217 216 220 222 223 217 215 212 186 172 209 226 232 232 236 226 80 64 83 123 119 112 116 111 103 94 100 103 104 105 104 106 113 115 118 122 128 130 132 131 132 135 140 144 142 138 127 117 134 145 119 75 85 130 149 158 172 190 199 204 199 139 84 104 160 188 205 223 198 173 173 173 174 175 176 180 179 183 184 184 186 191 196 201 203 205 206 209 214 214 217 217 218 217 221 224 222 214 216 204 164 175 211 229 231 233 236 224 79 67 64 89 120 119 116 114 101 95 100 101 103 103 104 107 111 114 117 122 128 133 134 131 132 135 142 141 139 139 128 115 122 137 121 102 77 85 134 157 172 189 204 192 146 102 92 113 143 175 197 208 182 175 173 171 172 173 175 180 184 184 186 188 191 193 197 202 205 206 207 211 213 213 211 216 215 218 220 224 219 214 218 191 166 207 214 230 231 235 232 212 82 74 62 72 92 121 119 115 103 94 100 101 103 102 104 107 111 115 120 124 128 129 130 130 133 137 142 137 134 131 123 117 108 110 117 120 104 93 113 152 174 194 207 185 167 161 156 161 159 175 189 189 181 183 177 173 173 175 175 180 184 186 189 191 194 195 199 201 204 208 210 211 210 208 205 215 217 218 219 222 215 213 214 191 209 222 215 232 232 236 220 198 88 73 61 73 79 107 120 111 104 94 99 102 104 102 105 109 111 116 120 125 129 128 127 131 137 138 138 134 129 126 121 119 114 105 105 111 108 114 121 134 154 176 183 186 203 213 204 180 175 185 184 188 191 193 187 180 175 174 175 180 186 190 192 193 196 198 199 202 205 207 210 212 213 212 214 216 217 218 221 220 213 214 212 209 223 215 216 236 232 237 212 196 91 78 62 69 80 96 118 110 104 96 98 100 101 101 104 112 114 116 119 126 129 130 129 131 136 136 133 130 126 124 123 119 118 118 115 110 109 115 129 142 151 159 162 175 199 215 214 197 190 189 191 193 195 195 195 193 184 178 178 182 186 191 193 193 199 201 201 205 206 208 209 213 214 215 216 217 217 219 221 218 210 215 213 213 220 211 218 236 234 236 205 206 94 83 69 65 80 90 113 111 107 97 98 99 100 102 103 109 112 116 120 125 128 129 130 131 132 131 130 127 123 124 123 121 122 121 119 116 115 117 133 153 163 156 151 163 187 206 202 194 193 194 195 196 196 199 201 202 195 185 183 183 186 193 195 195 199 203 203 206 206 210 209 211 214 214 216 218 217 219 221 214 209 216 211 215 197 200 221 237 235 238 213 210 100 90 75 63 73 88 106 112 110 98 96 99 101 102 105 107 112 116 118 123 127 126 128 131 129 129 126 123 123 125 124 123 124 123 122 120 118 122 140 161 163 151 144 153 176 196 195 190 193 198 197 196 199 202 206 207 205 198 191 189 191 192 196 197 201 202 206 206 206 209 209 209 212 212 214 215 217 219 217 210 211 219 214 198 154 201 225 235 236 236 211 206 102 99 84 69 71 86 105 114 111 94 97 99 102 103 104 106 112 116 119 122 124 124 127 130 128 125 122 123 126 126 127 126 124 124 122 119 120 127 141 160 158 144 139 143 165 188 188 188 191 196 195 198 202 205 208 208 207 204 198 194 196 194 198 201 205 205 206 207 207 209 210 210 212 212 212 214 217 217 213 205 214 221 210 162 151 202 226 235 233 233 209 211 104 104 96 77 77 86 110 117 109 86 99 101 103 103 106 108 111 115 119 120 122 125 127 128 125 124 124 125 126 126 126 124 121 122 118 119 120 125 142 153 148 138 130 132 150 179 184 185 192 196 198 202 203 207 209 208 207 207 204 201 199 196 202 204 206 206 205 205 209 208 211 212 213 214 214 214 214 216 210 207 219 218 175 150 152 200 227 235 231 220 207 219 105 109 109 96 82 88 117 122 104 78 96 102 103 102 106 106 111 114 117 120 121 125 126 126 123 123 121 124 125 125 122 119 118 115 112 113 115 122 141 149 137 124 115 123 143 170 186 190 190 193 201 205 206 208 210 209 206 205 204 204 204 204 204 206 208 208 207 206 209 209 209 210 211 213 215 215 217 216 205 213 223 202 153 151 152 197 226 237 223 205 213 222 104 109 111 114 105 111 123 122 95 75 93 103 104 104 104 106 109 114 117 120 122 124 125 122 122 123 123 125 123 123 120 116 115 110 110 118 120 128 139 145 141 129 125 139 157 174 186 194 196 201 206 211 211 212 210 208 206 204 202 205 206 208 208 209 210 209 209 207 208 211 209 209 210 213 213 215 216 212 207 219 222 190 153 151 152 190 225 228 207 209 223 222 107 107 109 113 116 127 129 115 80 73 88 104 105 104 106 108 111 112 115 120 119 122 122 122 120 123 125 123 120 120 117 113 111 112 118 121 122 123 123 126 130 143 143 144 155 163 169 182 191 202 211 220 220 216 211 206 205 204 202 204 206 208 213 210 211 209 210 209 207 209 210 209 212 214 213 215 215 208 216 218 219 180 158 155 146 186 219 208 206 225 234 221 115 114 113 109 127 132 128 108 75 70 81 100 104 106 108 108 110 111 114 116 121 123 121 123 123 126 128 123 122 120 114 110 109 108 111 109 107 107 109 106 110 127 136 133 138 145 152 162 169 185 199 214 227 227 216 208 204 201 199 202 204 210 215 213 214 211 208 210 201 203 212 212 213 214 215 216 212 209 220 216 214 163 158 155 150 191 210 207 224 236 241 229 115 122 119 125 134 131 123 96 85 72 74 97 105 108 109 109 111 111 114 116 120 122 122 125 128 130 132 129 125 122 114 105 104 107 104 104 110 110 111 108 117 129 132 129 132 141 145 148 162 170 174 184 203 219 221 216 204 196 196 197 201 209 213 214 216 214 208 207 206 208 211 211 214 215 216 217 208 213 217 221 205 156 147 147 159 199 207 220 235 241 239 232 106 110 120 135 132 134 111 92 92 78 70 90 107 110 108 108 113 114 116 117 118 121 122 127 132 133 138 136 128 120 108 105 107 114 117 117 124 129 119 119 126 134 132 134 141 150 148 152 167 165 161 162 170 182 201 211 201 187 188 195 200 206 213 215 216 215 212 210 209 211 210 211 211 215 217 216 207 216 215 226 181 149 143 143 161 206 219 228 235 240 234 232 102 98 126 129 133 135 104 101 99 87 68 78 107 109 108 109 110 113 116 116 117 122 126 132 136 140 144 136 113 100 92 91 87 80 83 88 90 89 79 90 87 83 84 111 114 124 127 137 137 134 137 145 145 143 159 163 160 169 178 187 196 202 210 214 215 215 211 211 210 211 211 210 211 214 217 209 206 212 219 216 161 145 141 133 175 216 214 222 231 229 231 237 100 108 125 124 133 112 117 114 104 96 75 61 100 112 109 109 110 114 116 117 120 123 125 132 138 145 141 109 59 52 58 62 62 64 62 64 62 60 64 66 63 66 62 66 73 84 96 102 109 118 139 142 154 152 109 78 72 109 158 177 191 202 209 213 212 213 212 210 212 211 211 211 212 216 215 205 205 213 226 190 150 143 129 139 204 199 180 214 227 225 234 236 99 121 116 133 109 86 112 122 111 101 81 53 86 113 111 110 112 115 117 120 122 124 124 132 142 144 137 94 70 72 70 73 79 82 84 90 86 97 101 102 99 116 101 100 112 120 138 154 170 173 187 193 192 190 167 136 122 111 144 169 187 201 208 210 213 213 211 211 213 211 212 211 212 216 213 204 208 220 226 163 143 141 116 165 212 181 166 210 223 221 228 235 110 117 121 126 79 76 95 114 121 108 93 56 69 114 114 111 113 115 117 121 121 124 127 133 142 142 135 119 110 102 93 87 82 84 89 90 93 110 116 120 121 130 116 117 127 128 146 164 181 181 179 186 195 199 212 215 193 164 160 173 188 198 205 208 212 213 210 210 211 213 213 212 212 215 209 203 215 224 215 140 131 138 117 196 198 170 198 206 210 217 217 228 121 115 128 104 73 70 89 91 118 120 104 71 57 103 119 113 114 113 117 120 124 126 127 132 138 137 132 125 117 112 115 114 103 93 92 90 96 105 114 119 123 130 123 122 127 134 143 154 173 178 179 191 212 219 223 224 217 195 181 181 188 196 202 207 211 211 211 208 210 210 212 211 211 213 205 205 220 225 199 139 119 125 141 215 192 195 201 170 207 214 211 215 117 120 122 87 78 62 87 82 95 125 115 86 54 76 119 116 114 115 115 120 122 125 129 132 134 133 129 126 118 116 122 127 128 124 114 104 104 106 112 117 124 127 126 127 130 136 142 154 168 182 195 205 213 219 220 223 219 208 201 194 193 199 202 205 210 210 209 206 210 209 209 211 212 211 204 209 220 226 184 130 106 101 150 224 211 200 159 183 218 212 205 206 113 124 113 78 77 60 74 91 85 122 124 94 52 54 110 120 114 114 117 120 118 125 129 132 133 130 129 125 122 123 123 128 135 136 139 141 139 131 128 129 132 135 135 136 139 143 154 171 185 199 208 211 212 217 218 218 218 210 208 205 201 199 204 206 208 209 209 209 209 210 211 213 214 209 205 213 221 231 184 112 91 99 168 226 210 156 164 199 220 211 205 200 112 125 115 76 77 62 66 93 80 119 130 103 52 50 88 123 119 116 118 120 121 125 128 132 131 131 130 125 125 128 130 130 132 137 146 156 164 165 164 164 160 158 162 160 156 162 174 185 194 201 206 210 211 214 214 213 216 212 211 212 208 203 204 207 208 208 208 207 209 211 212 213 211 208 207 217 226 232 179 102 92 124 164 227 191 150 181 212 209 208 210 199 113 120 118 81 79 68 67 95 86 123 134 114 58 61 67 109 123 117 116 118 120 123 128 131 131 130 127 126 128 131 131 131 133 140 145 153 159 164 168 168 165 164 166 171 166 166 174 181 191 199 203 204 205 208 208 208 210 213 213 213 210 207 205 207 208 208 208 207 208 210 212 214 210 208 212 223 232 233 159 86 115 108 157 226 210 173 199 216 204 209 209 203 121 115 122 97 77 72 59 93 93 129 137 120 65 67 58 80 118 116 113 115 120 123 127 129 131 131 130 130 129 132 133 132 137 141 146 150 155 159 162 161 163 164 164 170 170 168 171 175 185 193 198 200 202 205 206 207 210 213 214 213 210 207 206 206 207 208 208 208 209 210 213 211 210 207 216 228 234 232 150 92 105 111 184 221 222 207 212 211 204 207 205 212 110 116 119 119 86 61 51 85 107 137 140 122 69 63 55 59 96 118 113 113 116 122 126 129 131 130 129 128 129 132 134 134 137 142 148 152 154 159 159 161 162 161 161 165 166 165 168 173 182 189 196 200 200 204 206 209 211 211 215 214 212 207 207 208 207 207 209 208 210 212 213 208 207 210 224 233 234 228 147 89 99 144 194 217 219 222 214 206 204 202 211 218 89 119 124 120 113 74 45 85 129 143 145 118 65 58 55 57 63 106 118 115 117 121 124 128 131 130 127 128 130 131 133 134 138 142 147 152 155 156 157 159 162 162 161 160 161 164 167 172 178 187 191 196 200 203 206 209 211 212 214 215 212 207 207 208 208 206 208 210 211 213 211 206 208 220 231 233 234 224 137 80 122 163 195 209 216 219 211 205 200 203 213 219 88 98 129 127 120 108 72 82 139 146 149 103 59 55 56 60 46 69 116 120 120 122 124 124 130 131 128 128 131 132 134 134 136 142 144 147 152 154 155 158 160 161 161 163 164 168 172 174 180 188 190 195 202 206 207 209 214 213 215 216 212 209 208 210 210 208 209 212 214 213 208 206 218 230 232 231 234 219 135 93 158 171 193 207 211 216 213 199 203 208 217 220 93 83 105 133 134 122 118 123 143 150 147 89 58 55 56 55 50 44 78 123 123 123 124 126 128 130 126 126 130 131 132 132 134 137 141 143 146 149 153 156 159 163 163 163 168 176 184 183 186 193 196 201 205 207 210 213 214 214 214 215 212 211 210 209 210 210 211 214 213 207 204 216 229 234 233 231 235 210 147 146 170 170 186 215 214 208 214 203 202 212 220 215 91 87 79 99 135 145 140 144 150 151 136 72 61 53 54 51 49 48 50 87 122 123 123 127 126 127 127 127 127 128 129 130 131 134 138 140 143 147 151 157 162 165 164 166 171 179 185 190 193 198 204 208 211 213 214 215 215 215 215 215 213 211 211 210 210 210 212 214 208 204 214 227 232 233 233 232 234 203 163 156 168 168 192 218 213 207 200 206 207 214 217 205 89 89 84 72 77 119 152 150 146 151 135 77 58 54 52 46 47 47 48 49 88 122 123 125 127 127 126 126 127 128 128 127 130 134 138 139 141 150 156 162 164 166 166 167 171 174 183 191 198 204 207 211 214 216 218 217 217 217 217 215 214 213 211 211 209 209 210 206 204 215 225 231 232 232 232 231 235 200 154 167 167 179 204 213 206 211 195 200 213 215 212 200 90 89 85 74 59 95 142 153 157 153 148 136 93 58 47 44 46 48 48 48 62 102 120 124 125 127 126 127 127 128 126 126 130 135 138 138 143 150 158 162 164 167 166 168 169 175 184 190 199 207 212 213 215 219 220 219 217 218 215 215 213 211 209 208 207 208 205 204 213 221 229 233 232 232 232 231 235 198 159 172 175 198 203 201 209 203 205 196 211 219 208 194 92 89 87 70 78 124 134 144 149 147 157 157 152 123 69 43 44 48 46 48 58 89 100 116 122 124 127 128 129 128 127 128 130 128 135 139 144 151 157 161 164 166 163 166 169 177 185 191 199 205 211 214 217 220 220 219 216 214 215 213 209 208 208 207 206 202 204 213 218 224 231 232 233 232 233 233 235 191 161 171 195 200 199 191 210 207 202 197 208 215 196 191 92 89 84 78 109 131 134 150 134 97 103 140 165 162 142 72 43 43 45 49 52 87 94 97 110 122 123 126 128 128 128 130 131 127 135 141 146 151 158 161 163 163 160 165 169 174 183 193 199 204 209 213 217 220 220 218 216 214 214 209 207 207 206 204 200 203 210 217 223 227 230 232 235 233 232 233 235 189 167 184 199 199 195 195 194 213 211 206 203 199 189 199 89 88 82 95 121 127 142 145 117 85 63 77 124 156 167 145 80 50 45 48 50 86 96 94 95 105 116 122 125 130 131 130 133 136 139 142 149 155 158 159 165 162 161 165 168 173 182 194 196 204 209 213 215 218 217 216 216 213 210 206 206 201 196 197 205 210 214 220 226 226 230 232 234 233 233 233 234 190 180 196 195 192 195 190 190 209 223 221 197 187 198 204 89 87 86 111 116 130 142 126 92 88 74 74 80 107 151 171 147 69 49 45 51 86 96 95 97 98 101 110 121 126 127 132 135 137 142 145 151 156 161 165 165 163 166 167 168 175 181 191 195 202 207 211 215 217 216 216 214 208 203 198 192 188 195 203 209 215 220 223 226 229 231 231 233 233 233 233 233 197 192 195 189 183 187 182 190 207 225 213 187 194 202 204 90 85 95 119 121 132 138 99 82 94 76 78 84 80 101 149 173 116 51 43 59 87 95 96 98 99 103 103 109 119 126 130 135 140 144 149 153 158 164 168 165 164 168 168 171 174 179 187 194 199 204 210 213 214 214 209 199 192 186 182 187 195 204 209 213 218 221 223 226 230 231 233 233 234 234 236 233 201 189 190 179 178 183 177 192 208 210 194 190 195 201 211 90 82 99 119 122 129 125 77 81 94 79 77 80 83 72 108 162 159 73 44 68 85 93 96 96 98 104 108 108 109 118 125 134 139 144 150 155 160 166 169 170 169 171 170 172 177 179 185 192 196 201 209 210 206 196 185 181 180 183 189 197 201 206 212 215 218 221 222 227 229 232 233 233 232 236 236 232 194 183 187 173 177 187 179 192 207 194 190 191 195 213 205 85 76 103 118 118 128 103 70 80 93 77 76 79 83 73 79 141 169 103 48 75 85 93 98 97 98 104 109 110 112 113 116 125 133 139 148 154 158 165 168 170 169 170 171 171 176 181 184 190 196 202 201 190 178 174 173 177 184 189 194 199 203 209 214 216 218 221 223 226 229 232 233 233 233 235 236 232 191 182 181 170 170 188 183 196 197 190 190 190 201 220 202 80 71 108 120 116 118 84 70 77 90 78 80 78 81 72 72 127 168 115 55 80 85 92 98 98 99 102 107 111 114 114 118 118 121 129 139 149 155 163 168 170 171 171 171 173 177 185 187 189 188 179 168 164 168 170 173 178 183 188 193 198 205 209 212 213 218 223 227 228 230 230 231 232 233 235 238 233 191 176 176 171 162 185 187 195 191 189 185 200 214 223 202 75 68 107 123 115 106 72 65 76 86 84 76 76 78 70 73 120 164 125 75 80 84 92 97 99 99 102 104 108 115 117 120 122 121 124 125 129 133 143 150 156 160 163 163 167 168 167 162 154 146 145 149 155 161 163 168 172 176 182 191 197 203 206 209 213 217 222 225 228 230 230 231 232 232 234 237 237 197 175 172 170 160 183 191 192 191 184 192 216 218 228 203 69 68 101 124 122 117 97 75 77 84 82 73 78 76 68 75 120 162 128 82 81 85 91 95 98 99 101 106 107 112 118 120 120 122 124 125 128 129 126 125 129 131 137 139 140 140 134 135 136 138 142 144 146 150 156 163 167 171 180 187 193 201 205 211 214 217 223 226 228 231 230 230 231 232 234 236 236 199 176 169 170 166 182 189 193 191 197 212 211 220 230 199 72 69 84 118 127 124 126 118 105 96 83 73 77 72 72 85 122 165 126 81 82 86 90 93 99 99 99 104 107 111 115 120 121 124 125 127 130 131 132 130 131 133 135 138 139 142 142 140 143 145 147 148 148 150 154 162 164 167 176 184 192 199 205 211 215 218 223 226 228 230 230 230 230 231 235 236 237 202 171 167 170 171 180 190 198 201 217 210 208 229 230 194
