P2
# Generated by OpenCV 4.2.0
92 112
255
72 51 38 61 64 64 47 41 53 66 52 59 64 54 63 74 74 60 55 63 77 73 79 96 81 47 51 69 65 48 62 88 78 67 59 65 70 70 70 71 70 74 82 87 77 82 95 95 99 105 110 135 147 143 124 121 138 144 139 150 140 126 121 126 110 107 97 93 93 78 75 82 80 90 91 96 111 98 93 93 81 96 111 111 89 97 84 83 86 94 84 73 66 44 45 62 73 59 42 50 54 56 51 55 51 57 63 67 61 44 48 72 75 79 84 74 49 40 48 56 56 82 90 86 72 67 60 60 68 69 71 78 82 87 93 88 100 105 109 110 113 127 125 137 148 141 131 124 125 131 130 137 137 131 130 120 121 112 105 108 101 94 88 82 65 63 71 74 72 91 83 86 93 93 94 81 79 91 95 73 71 83 87 73 39 48 49 67 70 43 44 54 48 50 52 49 51 60 68 74 53 45 69 74 71 87 82 49 43 56 77 59 78 101 100 74 69 71 71 78 87 88 95 92 94 96 106 113 99 101 122 122 137 148 145 146 164 158 143 143 147 137 128 132 134 135 124 114 122 121 117 115 107 105 106 101 99 95 81 77 68 59 76 61 46 53 66 69 82 80 93 82 76 79 89 81 46 60 57 77 52 37 50 50 50 56 57 52 52 60 67 56 50 57 73 78 79 76 58 33 57 83 60 83 111 105 83 71 70 88 91 95 99 109 125 124 125 120 124 134 145 124 118 140 159 162 167 171 173 169 159 165 171 165 153 140 136 138 127 123 120 110 112 111 108 110 121 117 102 85 70 60 48 39 55 35 27 32 26 27 34 63 77 92 91 91 93 81 47 53 69 63 37 38 50 53 58 55 53 57 58 67 66 49 58 72 77 73 76 64 44 39 78 77 107 107 99 81 76 80 88 97 100 105 113 120 139 147 141 146 147 147 156 161 162 162 165 174 172 173 172 174 172 178 176 176 175 159 146 138 144 144 135 134 137 141 135 131 135 132 130 107 94 87 67 60 44 44 40 33 30 30 38 53 72 76 79 83 88 82 44 59 66 44 37 41 46 55 60 56 52 61 61 66 62 50 61 74 71 71 79 61 39 67 82 97 114 87 73 89 89 91 102 112 117 122 136 151 164 175 180 179 168 171 172 178 185 183 180 185 183 184 175 182 179 181 178 179 178 176 163 156 153 147 143 140 146 151 150 147 146 146 142 129 124 110 91 82 65 58 48 37 33 37 38 35 54 81 84 76 76 87 63 70 53 42 42 45 51 57 56 54 54 64 63 59 52 54 65 64 61 70 68 47 52 75 88 109 77 61 82 93 94 108 115 119 130 147 157 181 185 189 207 202 191 195 195 195 190 194 193 189 190 187 185 185 183 184 187 185 182 180 176 171 167 164 158 150 149 150 154 155 153 156 157 154 143 132 120 102 78 65 42 36 29 33 25 32 31 51 101 100 76 81 69 59 37 38 44 47 54 55 52 50 59 63 46 58 48 56 58 52 66 72 55 50 64 82 98 101 61 74 88 97 109 119 123 136 151 171 182 196 196 199 209 208 203 202 199 200 195 193 194 192 193 192 190 187 186 187 189 188 181 176 173 173 173 169 160 159 160 158 156 156 158 156 160 159 153 147 134 125 100 83 66 56 48 37 36 35 36 32 55 102 101 79 58 46 36 40 47 49 51 51 48 49 56 47 49 56 49 58 56 61 76 70 42 53 68 76 105 81 69 80 91 98 113 126 137 151 164 180 193 200 205 209 203 204 203 206 201 200 200 197 196 193 195 193 188 188 187 188 188 185 180 177 177 176 177 175 168 166 167 166 161 159 162 164 162 161 162 151 143 138 121 105 90 62 45 33 38 32 48 41 29 57 103 97 48 39 34 42 46 52 49 48 48 49 55 39 51 54 57 66 62 66 74 56 50 55 71 75 111 80 73 85 101 118 129 141 160 168 177 187 197 202 206 207 205 212 204 205 202 201 199 198 197 194 191 186 186 188 185 183 183 181 179 179 176 176 178 177 173 172 169 172 168 165 167 168 168 163 160 153 149 144 129 113 95 64 50 32 29 29 32 44 50 38 71 108 43 37 42 50 50 54 49 45 49 50 47 43 54 58 57 65 60 66 69 57 59 59 78 86 110 79 83 103 122 135 145 156 173 176 181 190 198 203 204 205 206 209 204 203 202 199 198 197 196 194 190 186 185 186 185 183 180 178 178 178 174 177 176 173 174 176 175 176 173 171 169 168 169 169 168 160 153 147 136 120 107 86 69 55 38 34 27 31 53 66 57 89 36 38 43 48 53 52 51 50 48 50 47 50 58 54 56 57 58 71 65 56 60 68 79 88 103 89 90 111 133 139 145 169 180 180 189 196 203 204 205 205 205 204 202 201 201 200 198 197 195 189 188 189 188 185 187 186 182 181 177 174 174 176 175 173 174 177 175 174 173 174 170 167 163 167 168 164 156 150 144 131 119 96 71 61 46 29 31 32 29 48 71 69 37 40 43 48 52 52 48 53 53 46 38 54 55 55 57 56 57 61 61 54 49 64 74 111 99 97 106 127 135 147 157 173 183 186 194 201 200 201 204 203 201 199 200 201 202 200 199 196 193 188 186 188 186 185 185 185 183 180 177 175 176 176 175 172 172 173 171 169 168 169 171 167 162 163 163 160 159 156 148 137 126 104 84 71 46 40 31 31 35 34 62 69 42 47 48 50 53 50 50 48 47 48 53 55 59 54 57 52 58 68 55 57 59 66 79 111 99 102 125 137 144 157 166 180 188 193 198 202 200 200 201 200 198 199 199 200 198 199 196 194 192 188 186 186 184 186 183 180 180 179 177 176 174 173 173 172 171 170 167 168 166 169 171 168 164 164 160 155 157 155 151 142 129 111 97 78 47 33 31 31 35 35 48 73 49 48 44 51 56 45 46 52 49 56 58 52 52 59 62 45 53 68 52 55 57 78 89 113 104 125 143 139 152 163 171 182 188 193 196 195 196 198 197 197 197 197 197 198 198 198 195 192 188 186 186 187 187 183 181 178 179 177 176 173 171 170 174 171 170 168 167 170 168 168 169 167 162 161 157 151 155 156 149 141 136 122 103 84 54 38 35 33 34 40 43 62 52 47 44 50 51 47 49 52 53 59 46 46 57 61 50 42 66 71 50 58 68 81 102 106 114 135 144 151 162 169 175 179 184 191 195 194 195 195 196 196 195 193 192 196 194 194 192 190 187 187 183 182 182 181 182 179 178 176 174 172 170 170 171 169 169 171 171 172 169 168 165 162 161 157 156 152 154 157 155 145 132 123 109 91 67 43 35 31 31 41 54 59 49 45 49 51 50 49 47 49 51 49 47 56 67 58 42 38 66 66 49 58 77 81 101 104 124 141 144 154 162 171 178 183 184 190 190 189 192 192 195 198 199 196 193 194 192 190 189 188 186 183 178 179 180 180 181 176 175 175 174 173 171 171 172 168 168 170 169 169 167 165 162 159 159 159 157 150 151 156 151 143 133 124 110 96 79 50 37 34 30 36 55 60 48 39 45 50 54 48 43 49 48 51 46 49 67 57 39 44 68 63 46 61 74 89 101 109 120 138 152 161 168 175 178 184 183 185 185 185 189 189 190 191 192 193 193 191 190 187 187 186 183 181 179 177 177 175 173 173 174 174 174 170 169 170 171 169 167 165 164 167 167 163 162 161 157 158 156 152 153 157 150 141 134 128 111 96 82 55 35 28 27 35 54 59 50 43 54 54 54 52 51 52 47 50 44 45 66 57 35 44 64 59 48 63 67 84 103 110 131 145 151 159 169 175 177 181 182 184 186 189 189 189 190 189 190 190 187 186 186 186 187 184 181 179 179 176 176 174 172 174 175 173 173 171 169 168 167 163 161 162 166 167 163 159 159 161 160 155 153 153 152 152 150 144 133 122 115 103 83 58 42 30 30 44 52 60 50 49 54 50 52 54 52 52 48 42 42 57 66 50 37 45 64 58 54 70 70 97 102 118 141 145 148 156 160 173 178 182 184 185 186 186 188 190 190 190 189 187 185 184 183 183 184 180 177 179 178 177 175 173 171 172 168 167 168 166 164 164 168 166 166 167 165 164 163 160 156 157 157 151 151 150 150 148 146 142 132 124 120 111 98 62 41 30 34 38 50 67 44 44 51 52 51 51 42 43 45 44 43 62 57 41 41 50 66 55 57 73 91 104 105 121 136 145 153 160 158 169 176 178 180 182 185 188 188 190 191 189 185 185 187 187 180 182 181 176 175 176 174 176 176 172 171 173 169 166 167 167 164 164 165 164 165 161 161 162 164 159 157 156 157 151 152 153 149 152 147 140 135 127 118 111 100 60 43 37 37 31 43 66 43 43 50 55 51 49 47 47 45 42 47 59 49 42 52 63 61 61 66 75 94 93 110 124 140 152 154 166 167 169 177 182 182 184 185 185 187 190 191 187 184 184 184 183 180 178 176 175 175 174 171 171 172 171 170 171 171 168 167 164 161 162 163 163 159 157 159 161 160 159 157 156 155 152 149 146 143 147 143 137 134 127 121 115 100 70 46 34 34 34 41 64 49 45 45 52 50 51 47 44 47 41 48 56 44 42 53 65 56 60 63 77 93 98 114 123 146 157 160 169 170 168 176 183 183 181 181 180 183 185 184 184 183 181 180 179 179 177 173 172 170 169 168 167 168 167 167 169 169 165 162 162 160 161 162 161 160 161 161 162 160 157 156 154 151 148 147 143 143 144 139 138 133 126 120 107 91 75 53 29 28 29 41 59 54 45 42 51 51 47 43 46 42 43 50 54 45 37 45 67 55 59 67 85 93 104 114 129 152 162 166 167 168 168 174 178 184 183 185 187 188 186 188 189 187 184 184 182 178 175 176 173 169 169 168 166 166 167 169 169 169 162 161 161 160 160 161 159 162 163 162 160 159 157 155 153 149 143 143 146 143 144 135 135 131 127 119 106 88 73 49 32 27 27 45 58 53 46 53 46 49 49 42 43 37 46 56 50 43 41 54 65 57 63 78 96 106 108 112 136 150 157 164 167 169 174 174 174 184 185 184 184 185 187 188 186 185 185 182 179 177 176 175 172 169 168 168 166 165 165 167 169 168 161 159 159 162 160 161 162 162 162 162 159 157 155 154 153 149 144 143 143 139 137 133 133 129 123 117 107 90 74 57 37 34 33 52 53 47 41 45 47 48 47 40 47 44 48 56 45 41 43 58 62 58 73 90 100 102 100 118 147 153 162 161 172 165 176 176 174 181 184 183 183 183 184 186 183 184 184 181 178 176 176 174 171 169 169 166 164 163 163 164 165 162 158 159 156 159 160 161 167 162 160 161 158 156 154 152 151 148 143 143 142 140 135 136 136 132 125 116 102 89 72 59 34 31 39 46 47 44 42 44 48 43 47 48 48 44 51 58 46 46 44 60 65 60 76 101 106 113 106 123 149 156 168 169 175 168 170 175 177 178 179 180 182 184 185 185 183 183 184 182 179 177 176 171 167 167 164 163 161 162 161 161 162 161 159 159 155 157 159 159 162 156 155 156 158 156 154 150 148 146 143 146 146 141 138 139 133 133 127 112 99 87 69 59 35 27 34 37 52 45 37 47 45 45 44 46 48 49 54 61 41 50 46 67 58 67 107 110 111 115 107 122 147 154 166 165 170 165 165 174 180 179 177 178 181 182 183 183 184 186 185 181 179 175 168 168 169 165 162 164 161 160 160 160 162 163 160 160 156 156 158 158 159 155 154 156 155 155 156 152 150 147 146 146 145 135 135 138 135 133 124 112 105 88 73 54 37 39 33 32 54 43 36 51 49 48 45 48 56 54 56 59 52 56 66 77 59 75 118 122 118 120 113 126 154 154 166 161 169 172 170 172 178 179 178 180 179 180 185 185 186 186 183 183 185 182 176 174 169 165 163 162 161 162 163 161 164 163 161 160 158 156 158 157 159 157 156 156 154 153 155 150 150 148 146 146 145 141 135 136 136 133 123 111 106 89 72 50 34 32 27 39 48 40 42 51 44 47 56 58 54 53 58 57 51 67 98 97 61 88 126 127 127 127 111 120 155 155 167 162 170 176 175 172 177 179 179 178 177 179 185 185 183 183 184 183 180 177 174 174 169 167 166 161 160 161 164 162 164 163 160 159 159 157 160 157 157 157 158 159 157 156 156 153 151 148 148 146 144 143 139 137 130 124 118 111 105 91 73 55 30 32 28 38 44 35 44 48 45 55 60 61 51 58 61 65 67 93 114 100 58 104 133 132 136 132 112 123 149 154 165 168 175 177 176 172 181 179 178 180 179 178 177 182 183 182 187 187 183 181 176 171 170 167 163 161 161 161 162 161 161 161 159 157 157 156 158 157 155 155 156 158 159 156 154 152 151 149 148 145 139 140 139 136 130 123 119 114 108 94 73 58 35 35 36 46 43 41 50 49 43 51 58 54 58 73 65 70 88 113 134 107 45 110 133 135 141 138 116 127 146 154 166 174 178 178 178 172 180 181 182 178 181 182 180 181 181 183 184 183 182 181 176 172 171 168 164 162 163 162 162 164 163 160 157 157 159 159 159 157 156 156 157 156 158 158 155 156 153 150 149 148 144 140 134 131 132 122 117 118 111 100 74 56 33 32 34 39 43 44 50 47 46 47 56 52 64 75 66 87 114 129 145 124 32 124 140 142 144 147 128 134 149 159 159 163 172 174 177 177 175 175 176 176 181 182 181 182 182 178 179 180 180 179 174 168 166 166 164 163 164 163 163 161 161 161 159 160 160 159 158 156 155 157 158 157 155 157 158 156 152 149 151 151 146 142 135 131 126 124 118 119 110 87 77 67 33 31 41 32 37 41 48 46 52 61 65 53 63 69 71 115 126 141 151 124 35 129 139 151 154 154 129 131 150 164 163 163 165 165 170 174 172 172 179 180 181 178 176 178 177 176 177 177 174 170 169 167 165 163 160 159 161 162 162 163 162 161 159 159 158 159 159 155 154 155 157 156 156 155 154 154 153 146 148 145 143 135 133 132 126 130 125 123 115 94 75 65 31 29 33 34 41 45 48 48 55 61 68 52 71 70 73 130 132 141 156 112 45 135 142 156 165 157 133 136 155 166 171 171 167 167 169 173 173 174 182 178 178 178 175 173 174 170 172 173 169 171 170 162 163 160 157 157 160 160 162 161 159 157 157 157 160 161 159 154 152 155 154 155 155 153 151 149 149 144 151 142 133 133 134 132 128 130 129 123 115 97 76 65 28 25 22 30 44 51 44 49 49 52 68 55 71 69 85 140 142 148 163 118 34 140 153 158 166 157 140 142 164 166 164 159 161 168 172 172 179 178 179 174 175 175 168 165 164 170 168 167 164 162 163 164 160 159 157 158 158 158 159 159 156 155 157 158 158 156 153 148 148 150 149 150 153 151 149 146 143 144 146 143 135 132 133 134 135 135 135 129 121 98 83 73 33 29 34 34 35 56 47 55 53 57 66 62 77 61 109 147 150 153 164 129 33 137 156 163 167 155 142 149 166 170 171 167 163 162 157 161 167 166 166 170 166 162 164 165 162 158 151 160 158 155 160 162 160 160 159 158 157 158 157 155 153 154 155 155 151 151 150 148 148 147 143 145 147 145 147 145 142 141 137 138 134 130 131 133 136 135 130 125 112 99 87 80 28 26 29 32 35 55 54 61 49 54 68 67 77 73 118 152 156 160 167 117 35 137 155 167 169 155 141 164 172 170 165 140 123 126 133 136 135 136 142 148 150 148 147 149 148 147 151 157 159 156 152 151 153 155 151 146 148 154 154 155 155 154 153 153 152 148 146 144 144 143 136 137 141 139 140 141 139 138 137 136 125 122 119 115 104 96 95 94 92 85 78 82 36 27 24 28 33 50 54 56 51 50 62 75 80 72 145 159 163 159 163 103 36 140 165 170 161 137 110 111 120 125 131 122 112 111 104 109 114 103 98 97 105 114 120 122 116 117 125 129 139 149 150 150 150 141 128 133 146 151 148 150 149 149 148 150 149 144 144 140 139 140 138 138 139 136 138 132 127 123 118 117 99 92 83 84 76 85 81 72 85 80 75 78 44 34 25 26 37 62 64 55 47 50 69 75 83 72 155 162 165 163 160 117 39 146 163 162 137 106 102 113 109 109 114 109 108 101 91 93 94 93 92 83 86 82 81 91 88 84 84 79 82 88 101 101 113 130 120 122 132 134 139 143 143 144 145 145 146 144 142 137 132 131 126 126 118 118 116 103 96 87 83 78 73 67 68 72 73 82 82 76 76 77 75 73 52 33 27 26 29 64 63 58 47 54 72 81 85 88 153 159 164 162 164 119 54 139 158 160 134 97 102 112 114 109 107 108 111 112 112 108 89 86 90 89 89 76 76 72 64 63 66 62 61 55 55 58 73 90 99 105 119 121 129 137 139 140 140 140 140 139 133 125 124 126 115 102 89 83 75 72 71 62 63 61 64 59 63 61 62 73 77 78 79 78 69 71 57 30 29 29 26 64 59 61 55 62 66 87 87 107 164 157 166 162 161 108 52 145 163 156 136 98 112 118 109 108 113 108 106 109 115 111 108 100 93 88 76 73 71 65 65 64 68 58 57 66 67 71 71 74 89 90 104 110 116 126 132 135 137 136 135 134 125 119 120 113 98 84 71 64 56 57 59 58 57 51 49 60 67 67 71 74 73 80 79 73 70 75 58 29 30 28 31 64 53 60 61 64 73 94 87 110 165 155 161 166 161 128 53 144 169 162 134 102 123 127 119 113 114 112 121 124 132 135 135 134 123 116 110 107 104 87 81 70 76 75 74 84 76 82 84 81 82 77 89 103 113 125 130 136 136 132 133 131 120 113 111 103 85 73 71 75 70 64 63 69 69 64 70 76 78 84 88 90 90 87 82 79 75 85 66 31 29 29 36 67 67 61 62 66 74 94 88 122 168 158 166 165 159 139 57 148 168 159 135 113 122 126 129 124 126 130 119 134 130 132 136 135 138 132 138 127 123 116 109 94 92 90 87 88 83 93 91 85 87 82 87 104 109 127 132 137 139 133 131 123 113 103 97 94 90 95 78 75 78 73 71 70 76 79 82 90 98 96 95 99 100 98 90 82 77 91 71 29 28 28 35 58 72 71 73 70 72 103 92 126 166 156 166 163 159 137 55 140 172 166 145 127 138 126 133 128 132 133 129 126 126 130 134 122 125 126 126 124 124 123 117 111 104 94 92 84 89 93 88 92 94 94 94 107 109 120 131 134 135 129 127 119 111 106 97 87 85 82 76 73 70 69 73 73 81 89 87 92 87 86 89 92 92 89 83 81 78 89 70 26 31 27 37 59 75 76 84 73 87 104 84 123 159 158 164 162 157 135 65 130 170 163 143 129 137 131 133 134 138 131 128 123 116 109 96 90 83 72 68 68 68 60 65 66 75 72 90 90 88 88 89 92 94 96 100 104 113 125 130 127 131 127 118 110 102 90 78 73 74 70 62 56 50 48 47 54 54 48 50 55 57 63 68 74 76 73 71 83 85 96 77 32 33 32 40 72 87 95 94 79 85 98 85 126 155 162 160 161 157 148 90 129 171 160 149 127 130 126 135 149 142 139 118 100 73 55 43 30 39 43 36 35 40 34 38 31 35 41 54 62 82 87 85 83 91 92 102 112 124 135 138 139 145 133 115 104 91 79 67 65 62 47 36 32 26 39 51 30 32 41 36 40 43 39 38 41 58 70 79 93 92 98 75 30 31 33 34 85 90 103 101 95 91 103 91 137 159 159 159 154 153 147 93 126 177 166 154 114 135 155 153 140 136 111 70 53 60 61 54 49 46 42 40 60 48 40 43 41 49 48 46 47 62 79 84 85 91 97 105 114 131 133 145 145 141 129 113 97 74 65 64 59 50 44 43 41 32 40 63 30 42 36 39 41 41 43 45 40 38 57 76 88 94 97 78 26 28 33 36 91 99 105 103 106 89 97 91 133 150 155 163 158 154 158 86 109 169 164 161 152 128 137 146 138 106 87 77 72 60 47 47 43 40 45 47 36 45 55 46 64 97 63 47 60 62 62 76 91 95 112 119 120 136 146 153 150 142 131 113 92 66 60 59 48 43 50 69 50 33 40 41 36 43 41 46 45 35 31 33 34 45 61 72 89 101 105 82 28 32 35 43 106 105 107 108 113 91 93 93 139 146 150 163 154 148 166 94 109 178 170 152 139 148 147 147 136 115 102 64 50 41 48 55 55 66 63 60 54 46 53 51 85 101 73 53 56 65 85 81 101 116 127 131 134 141 162 167 166 160 140 120 92 64 63 46 40 48 45 67 66 49 60 69 57 77 59 53 48 48 46 43 36 68 78 83 98 108 111 82 34 31 33 43 93 96 109 121 114 96 89 91 138 145 149 161 153 151 163 105 99 182 177 178 159 146 153 153 141 125 113 93 102 92 111 97 101 83 104 97 90 91 88 86 88 70 67 63 72 64 70 88 120 125 135 143 138 151 169 175 171 164 149 124 86 67 58 42 52 74 90 89 97 80 107 83 67 80 74 63 66 66 64 70 71 82 98 109 119 117 112 89 29 32 42 46 92 73 94 128 119 98 89 86 137 149 143 158 150 149 151 113 103 171 174 175 155 164 172 183 193 191 182 170 151 117 123 130 126 112 116 106 100 94 82 80 82 74 78 86 94 105 100 102 136 144 141 148 149 166 172 179 180 170 155 132 98 92 97 97 99 100 96 100 114 109 119 105 96 101 105 84 91 103 100 99 97 103 115 123 124 120 119 99 29 33 44 46 114 95 90 129 129 106 89 85 133 150 142 161 153 151 156 111 105 167 178 174 167 164 166 176 183 181 190 182 171 151 140 132 122 126 127 122 125 118 118 116 107 106 103 98 104 113 121 125 134 136 148 155 157 171 180 184 186 176 163 140 110 102 111 106 108 108 103 104 107 107 112 122 116 108 112 105 105 101 100 107 99 108 118 126 127 126 125 108 41 39 44 46 130 131 118 134 129 109 83 86 132 143 139 152 149 153 158 115 98 159 178 175 157 158 168 176 181 179 175 170 161 151 147 136 136 126 121 116 119 116 108 102 102 101 97 100 105 112 121 130 152 160 166 169 171 177 186 189 186 182 167 148 123 107 109 110 115 106 104 102 101 101 98 101 104 103 106 102 108 108 106 110 117 128 133 135 133 125 120 111 45 41 49 47 127 130 127 126 126 115 86 89 128 143 146 145 147 150 151 123 90 155 173 170 160 161 165 174 184 185 183 186 190 177 160 147 133 125 117 111 110 107 99 103 95 98 108 109 109 125 149 153 168 171 174 174 173 179 187 194 190 186 173 159 130 104 119 119 122 120 113 100 98 98 96 103 107 100 95 99 96 90 95 105 114 120 119 126 127 124 121 120 56 44 52 48 125 130 120 125 122 113 91 89 120 139 147 145 143 149 151 135 77 148 170 166 159 155 160 173 174 170 164 155 147 143 130 114 112 112 111 112 109 103 108 106 108 116 119 123 147 163 173 174 180 179 177 178 169 177 187 195 190 187 180 162 137 109 124 129 127 131 126 128 126 114 110 102 97 97 101 107 114 132 149 148 140 146 140 133 128 129 119 119 71 47 46 51 120 131 134 140 132 108 89 83 115 140 148 148 134 148 161 132 71 131 168 169 156 154 162 169 173 179 184 187 194 185 179 178 161 148 141 130 126 123 123 133 138 141 150 159 167 173 175 180 178 180 181 178 175 180 191 196 195 187 178 163 142 115 118 135 134 139 139 139 142 145 147 144 145 144 144 145 149 151 150 150 149 149 144 140 132 126 117 117 74 40 52 55 125 129 135 156 148 113 97 82 108 139 148 152 137 146 163 136 74 111 167 172 163 161 171 180 188 192 191 193 192 181 180 179 175 175 173 173 172 165 163 163 160 165 167 165 176 181 181 185 183 185 183 177 178 184 192 197 194 189 179 168 146 123 113 131 141 146 150 144 142 150 147 150 153 154 152 154 158 158 156 152 150 145 142 136 133 126 118 121 78 43 56 59 159 163 105 151 158 118 99 87 105 140 145 149 140 145 163 140 90 108 171 173 166 164 170 185 188 190 194 200 195 190 192 189 183 185 183 178 174 175 176 172 173 172 177 184 185 183 187 188 186 186 183 177 186 190 195 195 194 189 179 172 154 125 114 121 140 154 158 160 159 156 157 158 158 157 160 164 164 162 160 159 155 149 143 137 132 127 120 119 78 44 59 63 154 216 124 100 152 112 97 87 101 133 145 146 141 141 158 146 92 92 162 173 162 159 175 189 192 193 198 203 202 199 199 197 197 194 189 189 185 181 182 182 182 183 188 191 189 190 191 186 188 187 182 182 188 192 194 196 198 191 183 172 159 130 121 120 140 159 164 163 163 166 166 167 167 167 170 170 166 164 164 162 156 148 146 142 133 131 123 117 78 45 59 58 74 191 178 85 141 107 96 83 100 131 143 143 145 143 155 151 96 84 149 172 161 162 174 186 191 191 195 200 205 207 206 202 198 195 192 193 189 187 187 188 194 193 192 193 192 191 188 188 190 187 184 188 189 191 193 197 200 193 184 174 160 134 125 123 136 158 166 161 164 167 165 168 166 169 171 168 163 164 167 164 156 150 146 145 135 135 131 120 76 46 72 64 104 163 151 99 126 97 75 84 103 127 138 146 145 143 153 154 102 88 146 168 162 163 174 184 191 195 197 201 204 205 204 201 199 198 195 194 195 197 192 191 197 197 197 196 190 188 187 190 192 186 187 190 192 194 196 197 199 198 189 177 165 139 122 122 136 153 152 156 162 163 168 166 165 167 170 169 166 165 163 163 161 154 147 143 140 133 132 127 74 61 73 65 93 134 102 103 94 62 56 82 100 126 134 147 146 141 149 153 106 80 138 164 160 161 177 186 193 197 199 201 202 200 199 199 198 197 195 194 194 196 191 193 198 194 190 180 176 181 186 190 193 190 189 188 189 194 196 198 201 201 191 176 166 144 123 119 131 139 137 148 155 156 163 165 164 164 166 166 164 162 159 157 158 155 148 146 144 143 128 123 76 83 66 69 89 57 63 50 46 45 54 78 91 127 135 145 142 139 145 148 120 72 142 163 157 159 175 189 193 198 198 201 199 195 195 195 194 193 191 192 188 185 185 191 191 180 174 170 165 170 177 178 184 188 190 190 188 192 195 200 200 198 190 179 164 146 125 116 115 120 116 129 148 158 157 159 158 159 162 161 160 161 157 153 152 151 145 149 141 142 134 118 84 80 63 80 98 105 66 61 85 61 54 87 96 120 136 144 137 136 147 148 123 71 130 154 158 158 173 184 188 192 194 193 191 191 190 188 186 183 182 178 181 180 180 179 173 163 157 156 144 141 142 152 169 172 183 188 190 194 196 201 199 199 193 181 164 149 127 116 106 103 105 120 133 144 150 149 154 157 160 157 156 159 158 153 151 147 144 142 139 133 126 120 94 65 74 78 28 79 78 62 71 70 58 79 92 119 131 143 140 132 142 150 129 71 118 150 158 147 166 178 181 187 188 187 182 184 183 180 177 177 177 172 177 174 169 167 161 150 140 125 121 116 124 151 163 173 184 185 188 198 198 199 199 198 194 183 170 158 133 118 101 98 101 111 124 135 141 144 148 152 152 151 149 154 155 149 146 141 138 137 133 135 129 111 80 69 83 84 54 45 53 54 38 43 55 77 93 116 134 137 144 132 138 153 137 79 109 142 151 146 165 175 178 182 185 183 178 178 175 173 173 174 172 166 165 157 156 152 137 122 120 107 103 106 136 164 173 178 171 180 192 195 197 201 202 199 194 182 170 167 151 127 107 102 109 109 109 127 131 137 140 146 145 145 144 148 147 141 140 138 134 135 128 126 117 111 68 91 93 89 41 49 39 45 23 35 56 76 88 112 137 135 141 133 135 144 138 91 95 135 142 145 158 170 172 175 177 178 172 168 165 165 165 161 160 156 156 154 147 135 123 115 108 110 104 118 170 188 196 199 190 188 188 199 204 205 204 200 191 183 170 162 156 142 138 120 110 116 107 110 118 130 133 139 140 144 142 143 141 136 137 135 129 129 124 117 119 97 74 104 99 91 57 37 41 45 28 37 54 72 87 110 135 136 139 136 136 142 140 112 81 128 143 138 145 162 165 167 170 170 166 163 162 160 159 157 154 149 148 143 131 120 109 103 102 107 110 149 192 191 198 200 195 190 186 199 206 205 204 201 193 181 170 161 156 144 149 139 119 121 121 108 105 115 124 130 132 139 139 137 136 131 128 123 119 122 117 114 117 89 98 104 105 83 54 47 44 43 35 27 44 62 78 99 132 139 138 141 133 136 135 126 76 128 143 129 134 151 158 164 164 160 160 161 156 153 152 147 142 137 135 126 118 110 101 102 117 121 114 162 194 189 192 198 198 188 191 194 198 202 197 191 188 177 168 160 153 141 144 144 131 127 127 120 106 98 112 121 125 128 132 132 129 123 121 120 116 117 116 112 105 96 119 92 93 80 54 41 41 43 50 42 45 64 76 88 124 140 142 145 135 139 131 122 72 107 134 129 123 132 147 154 153 151 152 150 150 148 146 142 137 131 122 112 104 96 101 124 138 145 137 143 186 185 187 187 189 185 184 189 194 196 192 184 181 173 165 160 154 140 137 132 130 140 133 125 117 101 101 109 117 123 123 124 121 118 114 114 112 110 103 106 92 93 99 106 88 82 76 58 48 46 49 48 61 65 80 86 119 138 137 142 136 134 131 121 79 90 123 125 114 119 133 140 145 144 144 140 139 136 134 129 123 118 113 102 94 103 123 144 160 164 178 145 140 170 176 177 182 182 186 185 189 187 189 184 175 168 164 152 149 133 128 117 124 147 139 124 122 110 94 101 107 116 115 116 112 114 106 105 105 105 107 107 89 87 98 100 86 88 130 121 108 122 125 117 110 77 84 93 116 137 138 144 137 128 134 121 85 82 108 117 111 109 114 125 131 131 127 128 128 124 124 117 112 109 96 89 105 123 140 157 174 196 196 189 154 116 152 167 165 171 176 181 174 175 177 177 166 161 160 151 130 118 115 97 123 144 130 121 120 116 106 95 98 103 111 112 108 108 108 107 106 106 109 95 86 97 97 93 78 78 136 138 143 137 126 130 138 101 89 95 103 136 141 144 139 132 134 121 93 74 99 111 107 103 102 110 114 116 118 122 116 117 111 106 102 96 92 104 119 135 151 163 176 189 194 199 200 157 110 113 124 145 149 162 163 166 164 156 153 156 144 124 122 116 89 86 125 134 125 123 116 114 112 99 94 97 102 110 107 107 108 103 110 115 101 76 74 56 52 52 60 76 151 148 144 134 131 124 147 126 92 95 95 130 134 144 138 132 132 127 107 70 90 103 104 106 103 101 102 105 110 112 109 104 104 98 87 94 110 126 132 142 152 161 172 178 183 190 196 197 178 131 95 78 113 137 144 151 153 146 145 141 128 116 110 72 79 106 121 121 120 118 114 113 107 102 99 91 96 99 108 106 111 110 106 108 85 68 67 50 65 49 51 71 140 152 152 153 154 138 146 145 88 92 94 127 137 140 137 135 136 135 118 62 83 100 103 104 98 99 103 100 103 106 98 92 89 88 103 122 124 127 136 149 156 161 164 165 176 178 185 185 190 187 158 118 83 97 127 122 135 134 129 120 115 100 76 81 87 108 121 118 121 116 109 106 97 102 102 92 89 92 106 106 106 99 100 97 76 59 86 86 84 95 100 89 138 151 163 163 167 151 139 150 103 85 91 110 135 135 139 132 133 137 131 72 71 106 115 117 113 106 105 98 92 93 89 94 97 112 129 127 122 131 139 149 160 163 164 166 169 171 176 174 173 172 166 150 128 98 101 113 120 114 115 105 88 74 79 88 98 110 119 117 120 118 106 100 96 97 101 100 89 94 101 106 103 98 100 193 167 64 102 106 96 115 114 84 141 157 163 156 163 158 145 152 116 85 99 102 128 136 134 129 134 136 138 88 57 112 130 132 131 112 98 89 88 97 99 107 118 132 130 117 124 138 146 153 162 164 166 164 167 170 168 169 170 165 163 147 145 123 95 97 102 97 89 72 73 80 79 89 104 107 117 122 115 110 101 93 93 100 104 105 92 102 104 101 106 94 123 216 205 121 108 122 116 94 98 85 154 147 159 161 158 155 153 155 133 79 104 101 123 134 131 130 132 138 142 111 44 111 140 135 137 119 92 91 106 118 112 116 133 136 118 119 125 130 144 154 157 161 169 169 171 173 171 171 171 167 166 150 129 103 94 83 79 74 73 81 78 79 87 101 105 109 118 117 113 108 98 93 95 97 108 100 104 111 105 106 108 88 174 223 235 145 98 114 115 110 106 91 157 145 152 161 157 167 167 153 150 100 101 95 114 128 132 128 126 138 140 131 59 87 141 139 140 133 106 114 128 132 121 128 133 125 114 113 123 132 144 153 157 162 167 172 173 175 178 181 180 176 178 174 153 126 113 93 92 85 87 89 85 93 99 104 107 112 114 107 105 101 94 93 89 100 113 103 117 116 105 108 98 111 219 214 206 147 105 124 119 111 104 86 159 153 147 156 151 159 167 151 150 125 95 95 101 124 129 124 120 133 138 141 87 59 144 141 141 136 128 138 142 139 130 132 132 108 100 108 121 144 151 151 160 163 161 167 173 170 169 169 163 160 159 161 171 163 152 140 137 116 114 108 96 97 96 98 100 102 101 96 95 94 88 79 77 100 112 107 121 108 110 112 89 160 232 205 194 198 129 110 111 116 97 104 156 164 154 157 151 152 157 154 157 136 92 98 99 116 126 123 119 125 135 138 120 60 123 149 146 142 141 144 145 143 136 129 123 102 93 96 101 118 136 143 141 136 137 148 149 142 140 134 125 124 117 116 113 114 123 125 131 122 99 94 95 96 90 88 88 91 91 91 83 64 61 80 113 119 109 120 118 108 110 103 95 232 227 227 219 225 206 115 108 122 130 111 145 165 161 161 158 157 155 151 150 143 107 98 102 108 124 123 122 118 127 135 135 79 84 152 148 143 140 147 147 146 140 131 118 106 87 71 72 61 65 86 105 114 125 136 142 146 148 146 140 137 128 122 115 116 118 122 108 97 94 98 95 94 98 97 98 98 100 89 65 56 72 102 120 115 116 130 114 110 109 95 173 242 228 225 223 218 223 154 108 118 112 90 145 172 173 167 159 155 158 156 159 150 123 97 112 105 117 124 120 116 116 125 136 106 57 156 141 147 135 146 149 149 138 133 119 117 117 118 134 138 100 80 81 109 129 142 133 137 156 153 151 151 148 119 105 126 127 129 108 97 104 102 96 99 97 90 95 97 100 81 59 84 98 110 114 116 123 123 112 111 106 120 223 232 238 234 230 218 213 166 97 109 104 115 149 163 171 173 164 156 163 157 164 162 138 107 105 106 113 121 118 118 113 120 126 124 47 139 144 146 137 140 149 150 134 128 124 134 145 154 159 168 164 146 115 88 87 97 85 87 77 87 90 95 100 94 121 124 114 112 93 93 99 93 91 92 90 79 73 71 73 63 84 101 111 117 113 113 117 109 105 114 99 177 238 233 236 239 236 233 225 172 97 101 104 109 155 165 169 171 170 153 156 162 156 159 141 132 104 102 110 119 119 120 116 114 117 128 83 97 143 139 138 136 143 133 124 120 134 153 161 169 171 164 162 166 157 135 115 118 115 92 75 70 41 36 47 66 72 74 67 66 72 72 69 57 47 49 49 52 68 76 78 72 104 108 114 119 113 115 116 107 107 98 123 234 229 239 233 232 233 240 233 132 94 109 110 108 155 160 163 159 171 163 148 159 159 157 142 136 115 99 103 116 120 115 119 112 116 125 113 45 130 136 136 136 139 131 122 118 144 156 162 170 172 168 167 170 165 156 132 126 149 173 172 171 168 119 93 73 51 57 53 45 71 75 57 49 55 72 85 96 92 93 73 90 109 113 118 116 107 112 114 109 102 88 217 243 230 231 237 238 244 215 100 76 99 111 107 107 161 160 162 169 176 173 155 152 153 163 163 140 127 98 105 113 125 114 121 116 114 120 128 49 95 139 125 133 137 134 127 119 144 153 159 168 167 172 168 163 163 161 150 123 119 125 144 163 174 186 186 175 155 128 113 102 91 90 100 107 109 107 105 98 89 88 83 106 108 113 119 114 108 111 109 109 99 166 249 230 229 232 241 192 112 99 81 92 104 112 99 86 163 158 156 160 170 170 160 153 151 158 166 158 134 101 101 112 120 114 118 118 115 114 125 93 65 128 131 129 131 131 128 124 137 151 158 158 160 168 171 165 160 159 156 141 122 114 107 117 132 146 155 153 155 146 139 138 123 137 134 117 104 101 97 90 86 84 93 109 108 112 115 111 103 112 105 109 128 212 239 220 227 241 218 84 63 102 97 86 100 82 66 70 167 163 174 166 169 170 168 162 153 148 163 167 151 115 94 109 117 118 113 116 110 112 120 116 77 105 136 122 125 131 130 130 131 148 157 163 156 154 163 166 153 154 157 159 143 125 114 105 114 116 112 109 117 116 116 118 109 104 104 96 94 89 88 85 82 95 111 108 110 113 108 108 108 104 104 108 149 236 224 226 241 201 54 62 84 115 108 80 58 57 67 69 166 163 175 163 171 174 168 164 162 158 160 161 167 140 97 107 117 125 119 116 114 114 118 124 88 70 136 121 121 134 134 134 131 141 152 156 153 154 155 156 152 150 148 153 154 144 135 119 110 94 91 93 91 93 93 93 87 87 88 85 80 80 80 81 89 108 113 108 110 112 110 104 102 102 115 124 100 198 229 235 205 81 127 87 56 75 88 83 72 73 73 74 163 165 170 159 169 175 171 166 168 170 172 155 163 144 109 106 114 128 129 116 118 112 116 118 112 55 121 129 123 129 131 134 136 133 138 150 152 152 149 147 149 148 143 139 144 145 145 134 119 108 95 93 87 89 87 82 82 82 82 80 80 82 90 103 108 105 100 105 112 109 109 110 107 109 120 91 136 175 159 75 51 33 149 117 34 57 77 93 83 71 74 74 173 167 172 159 162 170 172 168 169 172 169 160 174 155 120 110 107 124 132 120 121 113 116 118 120 82 80 128 123 123 128 133 141 140 132 139 148 150 145 144 148 144 144 135 134 132 134 130 124 122 108 98 95 85 84 87 89 89 87 92 99 103 107 110 104 101 96 104 111 107 108 108 95 125 90 99 188 175 182 74 37 34 36 88 49 47 82 79 76 77 73 80 176 165 161 168 166 173 174 167 167 170 168 166 176 150 126 126 107 118 136 130 126 117 111 116 121 119 40 109 128 129 128 130 141 148 144 138 144 146 144 143 145 139 139 130 127 123 122 122 118 117 114 108 103 100 100 101 101 99 94 93 98 102 102 104 102 101 102 109 111 112 111 101 118 129 85 170 176 167 179 104 31 26 136 160 94 66 70 60 81 86 99 117 174 174 159 166 168 170 174 170 170 175 173 170 171 151 139 140 128 105 129 139 136 121 110 117 119 129 70 75 127 127 126 129 135 140 140 141 142 142 144 142 141 141 140 134 126 122 118 114 113 112 108 106 103 100 98 98 98 97 96 97 101 100 98 97 98 100 110 117 110 112 107 113 142 127 123 179 174 166 175 138 17 57 197 171 159 144 82 56 57 79 106 130 176 180 166 158 164 171 174 172 171 175 173 177 179 149 140 144 142 112 105 133 147 133 119 114 119 127 116 71 116 132 127 132 134 134 141 147 144 142 144 146 144 144 144 139 134 126 119 114 109 104 101 102 103 102 101 97 96 96 99 100 95 95 100 97 97 108 117 116 114 118 111 134 148 140 134 165 175 166 175 165 25 43 146 150 170 106 49 73 54 33 66 69 171 177 167 162 162 165 170 170 174 173 177 173 174 149 142 142 146 142 115 112 140 142 137 117 118 124 124 80 79 130 127 130 135 136 136 139 145 144 149 149 146 148 148 146 143 137 129 123 116 108 106 106 106 103 101 100 103 103 103 105 104 105 105 104 113 116 113 110 112 108 128 147 145 141 128 147 175 172 172 131 70 93 202 169 133 69 76 83 57 51 67 77 162 165 170 165 165 170 170 167 173 174 175 170 166 156 153 141 153 148 139 113 118 143 144 136 123 119 126 105 53 106 127 126 135 139 134 132 143 146 151 150 153 154 152 152 152 149 143 138 132 124 118 117 115 107 102 107 113 113 110 112 111 107 110 116 119 117 109 109 121 107 159 149 144 142 134 145 170 178 118 70 86 55 114 143 110 76 95 93 57 69 65 78 175 178 172 159 165 168 173 173 173 174 174 166 161 156 161 142 152 152 151 132 89 136 146 146 134 127 126 121 72 76 127 127 136 136 133 136 140 149 152 151 160 162 163 162 160 159 157 155 151 143 133 132 129 127 124 120 123 127 122 119 123 119 122 120 120 117 111 117 116 112 176 179 138 135 132 130 170 155 68 83 95 5 46 86 64 96 96 101 67 75 78 113 179 182 173 156 161 163 168 179 175 170 181 176 153 157 162 149 150 157 160 154 127 116 142 157 140 132 128 126 111 58 101 123 128 133 135 137 137 151 156 155 164 167 168 167 165 165 164 163 163 159 150 147 143 138 137 133 131 128 128 130 130 128 125 124 121 117 123 120 110 113 174 194 188 145 135 131 167 114 68 88 153 35 58 97 93 103 106 96 81 98 88 105 179 175 175 167 169 170 163 174 174 178 178 174 152 161 164 155 148 155 161 163 157 125 113 159 148 136 142 126 123 94 65 114 120 127 130 132 137 147 155 161 162 164 170 169 169 167 166 169 165 158 156 155 148 143 144 144 140 137 140 140 134 128 119 127 118 117 123 106 102 123 175 187 195 196 153 111 153 95 71 109 185 74 46 91 111 103 108 102 92 101 86 92 177 172 175 173 169 170 174 177 180 182 183 173 157 163 165 158 151 154 160 163 167 155 108 122 157 139 138 137 117 119 63 101 125 124 129 128 132 139 144 153 153 159 167 166 167 168 169 170 166 162 160 158 148 144 152 148 150 148 145 138 129 123 126 124 121 125 103 100 118 125 176 183 186 203 203 161 128 71 63 144 190 101 22 77 87 101 104 114 112 108 92 95 172 173 174 173 165 169 182 185 183 181 181 165 168 168 164 158 152 153 162 163 166 174 155 109 126 147 145 144 132 129 81 75 117 119 124 126 131 134 137 146 152 156 164 168 166 169 170 171 167 164 159 153 149 149 152 153 154 148 139 133 125 126 129 124 120 104 88 102 114 130 171 179 180 191 203 211 199 135 93 156 164 111 82 107 64 82 119 134 128 116 91 82 166 171 172 179 166 167 180 182 177 181 179 163 173 170 168 161 153 152 161 167 168 162 172 160 119 113 148 143 138 127 111 59 80 117 118 121 127 131 131 140 147 150 154 163 163 169 169 168 167 158 158 153 147 152 152 153 151 137 135 133 126 128 124 126 112 86 98 107 116 139 169 175 180 190 196 194 209 222 213 185 126 96 90 66 60 83 146 145 126 100 84 83 172 173 177 181 171 170 178 181 180 184 173 166 173 171 171 168 158 154 160 166 169 169 169 166 167 122 93 145 144 140 127 89 54 95 107 121 121 124 124 129 135 139 143 153 157 163 162 160 160 156 155 150 143 146 146 147 149 141 133 127 131 129 118 120 88 87 90 112 121 143 164 168 174 183 190 200 198 201 212 220 233 206 169 97 77 103 150 132 117 92 73 100 169 172 170 168 169 175 178 179 179 184 172 174 180 177 174 167 160 156 158 164 168 169 168 168 171 165 136 109 127 139 132 116 71 78 102 105 108 111 117 121 126 130 134 140 145 151 153 152 155 150 146 143 141 137 137 137 134 130 127 122 121 114 119 94 80 93 100 109 123 148 166 173 175 182 191 198 199 205 208 211 213 220 226 222 198 173 151 118 105 66 93 210 171 172 172 170 170 171 171 177 179 176 171 180 178 181 175 170 166 157 155 163 169 170 169 168 169 168 168 144 120 100 127 131 107 63 96 110 102 102 108 113 116 120 121 119 126 138 134 144 145 137 138 132 132 131 129 132 121 121 122 110 112 116 96 70 90 96 100 111 126 145 164 176 171 180 191 194 200 203 207 209 211 213 219 217 221 229 231 196 151 76 44 158 174 172 176 176 176 175 173 174 179 169 170 178 183 182 179 174 168 159 157 162 166 170 171 170 170 169 165 161 151 142 109 102 108 81 60 109 108 104 100 95 102 111 117 113 116 120 122 127 127 129 129 125 126 129 122 124 125 121 116 113 107 89 73 83 94 97 103 109 124 147 166 175 179 183 186 190 198 204 207 208 213 213 214 221 219 218 221 229 233 210 194 229 172 172 175 172 175 181 174 175 176 172 176 182 186 184 178 172 168 163 161 164 167 172 174 173 170 169 165 159 153 153 139 123 110 96 63 74 106 105 101 100 91 87 96 104 111 110 111 115 109 110 115 112 114 116 115 114 113 112 109 99 80 71 83 89 94 96 96 111 130 150 165 171 177 184 187 191 197 201 205 208 211 215 218 219 220 222 219 221 221 226 226 221 167 172 171 166 172 181 177 181 179 178 182 184 186 185 181 175 170 164 162 165 167 170 171 169 168 169 166 161 157 149 144 139 134 127 102 54 85 106 108 105 100 95 83 84 92 98 106 108 107 113 108 105 107 110 110 111 105 98 82 70 72 81 87 92 99 97 95 115 136 148 161 178 175 180 186 194 197 199 202 207 212 211 218 215 221 220 225 223 223 224 222 223 169 169 172 169 176 176 176 185 184 183 185 183 184 186 184 180 173 168 167 167 167 170 170 170 169 168 165 164 160 154 150 144 134 131 123 95 64 107 104 103 102 94 93 90 80 78 82 89 102 104 102 102 102 98 96 90 76 72 75 80 84 85 86 92 94 96 103 117 132 151 163 175 175 183 187 195 195 196 201 205 210 210 214 217 221 223 225 222 223 225 225 225 173 171 177 170 171 179 187 187 185 186 185 185 187 188 182 179 176 173 171 168 171 171 171 173 172 171 166 163 160 156 153 146 138 135 127 121 86 80 110 106 104 98 96 93 90 88 87 83 79 75 74 72 77 75 73 75 76 77 82 86 87 88 89 93 93 96 102 112 127 143 162 170 179 182 187 191 192 194 197 201 206 211 215 218 221 223 224 224 225 224 224 224