P2
# Generated by OpenCV 4.2.0
92 112
255
45 30 30 40 36 24 18 22 23 31 37 37 47 43 43 55 64 71 88 77 59 49 47 61 51 43 54 75 67 65 54 53 62 68 69 74 79 77 83 87 103 136 164 169 150 145 134 114 89 88 78 75 71 61 51 41 36 33 26 22 17 18 22 24 21 15 11 8 17 22 16 12 13 14 14 7 13 13 10 11 6 2 4 8 11 8 7 4 5 3 1 4 29 34 39 25 22 23 20 25 32 34 34 32 36 58 69 68 59 69 72 54 51 52 49 49 47 57 72 80 88 89 94 91 82 97 100 102 99 91 94 110 139 153 160 166 151 139 125 115 106 105 94 87 84 79 69 61 56 52 42 36 33 25 19 17 19 20 17 15 11 11 18 18 15 14 15 12 13 10 6 9 15 10 3 4 8 11 6 4 4 2 2 2 17 23 30 33 31 32 28 30 38 35 35 43 47 58 57 62 63 65 58 48 49 56 57 59 79 95 93 82 81 96 84 82 106 114 123 132 135 140 131 141 163 169 161 163 161 165 150 132 120 115 108 101 96 91 91 88 83 80 69 63 55 47 43 35 27 23 22 21 16 12 13 16 14 12 14 16 14 13 9 4 8 12 10 3 3 5 8 7 5 4 5 1 27 31 32 34 37 48 53 48 41 33 34 40 39 46 58 74 71 66 63 70 82 90 94 93 87 87 97 117 117 122 133 141 139 150 157 163 169 173 177 170 172 172 162 158 159 159 153 151 150 143 137 134 129 122 115 112 107 100 87 79 69 58 54 48 45 41 28 20 20 24 19 19 17 13 14 12 14 13 11 9 5 4 4 7 4 2 5 6 8 5 4 2 32 35 30 33 57 58 40 38 41 44 43 37 49 53 56 68 77 78 89 97 101 108 107 106 128 144 146 149 156 161 165 168 170 175 175 178 180 182 181 178 181 187 183 171 161 157 154 148 147 151 153 152 150 151 148 146 144 143 133 128 119 101 81 63 52 42 35 33 28 20 23 22 22 18 14 12 12 10 9 10 10 6 4 7 5 2 3 6 5 5 4 4 33 26 35 52 51 46 48 47 39 36 44 57 58 75 86 87 88 96 98 113 137 142 147 158 164 165 170 178 177 179 181 181 182 186 184 183 185 186 187 189 190 190 191 187 184 176 169 161 156 160 166 162 162 164 168 165 168 169 166 159 148 133 123 105 85 63 48 44 38 29 23 22 23 22 17 17 10 9 11 8 11 13 10 6 4 4 4 4 5 5 6 5 18 28 38 45 50 49 46 44 46 45 45 50 68 74 82 96 117 128 147 163 166 178 187 194 203 197 193 191 190 189 190 190 190 189 187 187 189 191 194 197 195 192 190 194 194 189 186 180 178 171 171 176 179 176 180 177 178 178 179 174 168 154 146 136 114 97 75 53 42 40 33 22 21 25 21 20 13 12 12 10 7 8 11 7 6 7 4 4 4 6 7 5 29 42 49 57 46 46 54 46 39 42 59 77 77 94 120 140 152 170 173 187 207 210 206 212 212 206 205 200 194 190 192 197 195 195 195 197 198 198 198 198 198 199 197 198 197 195 195 193 194 196 191 189 188 183 182 182 183 182 182 177 177 162 155 149 133 122 111 93 74 62 47 33 28 28 22 22 19 13 10 10 8 8 8 10 9 5 6 5 4 4 4 5 38 58 52 47 58 54 40 41 46 63 84 95 120 126 149 168 184 191 201 209 211 210 209 212 213 211 209 196 197 193 196 200 198 195 197 198 197 194 201 200 200 200 197 196 198 197 195 194 193 188 194 192 187 190 187 188 188 181 178 177 178 166 159 158 147 134 121 114 96 78 61 43 37 34 26 23 22 17 9 13 12 8 7 13 10 5 6 6 5 2 3 3 47 45 52 51 49 56 46 50 56 67 92 120 147 168 179 194 210 213 215 221 221 217 214 214 213 210 208 204 206 203 203 203 201 199 199 200 199 196 199 200 200 200 200 199 201 198 197 197 198 197 195 193 191 191 189 189 187 185 185 179 173 168 164 160 155 143 136 130 115 102 82 56 46 40 39 28 25 22 19 13 13 14 7 7 12 7 3 4 5 2 6 3 40 38 38 48 55 49 52 48 47 79 109 145 169 181 194 209 217 220 222 221 221 219 221 221 218 215 212 208 208 203 203 204 204 202 203 202 201 199 199 199 202 201 202 201 201 201 198 197 196 195 195 195 193 194 191 188 185 184 184 181 180 177 173 167 163 157 149 143 130 116 99 80 69 56 44 41 29 24 27 21 13 16 19 7 7 15 8 3 4 2 3 7 56 47 57 52 45 57 60 44 49 89 121 150 175 192 205 209 214 216 219 224 225 223 222 219 216 214 211 209 207 203 201 203 203 204 204 203 202 202 201 202 201 202 202 201 201 200 199 197 197 195 195 196 196 197 193 190 185 183 186 180 178 179 178 173 167 162 156 150 140 131 119 99 91 78 52 44 37 31 30 27 24 18 20 14 4 12 10 4 4 4 1 6 41 37 34 41 56 49 39 48 81 105 130 172 197 201 205 206 216 221 224 226 225 223 220 219 214 212 212 208 208 204 205 204 203 203 202 201 203 205 203 204 204 203 201 201 203 199 199 199 198 197 196 196 197 197 193 192 187 185 183 183 180 180 177 171 167 168 161 153 142 135 126 112 107 100 73 45 40 31 24 24 25 18 17 16 11 6 12 8 4 5 1 1 37 30 38 47 48 47 36 40 73 114 162 185 204 200 213 218 219 222 222 220 220 220 222 219 212 208 205 204 204 202 203 202 198 200 199 199 201 206 202 202 202 205 205 204 203 202 200 198 198 198 197 196 196 196 192 192 190 186 184 179 178 177 178 174 171 167 164 157 148 144 137 130 114 99 84 57 46 36 30 19 14 18 13 16 18 9 13 11 3 5 2 1 53 50 44 42 49 41 33 51 95 137 166 197 201 207 215 217 216 212 213 216 216 215 215 211 211 210 207 205 204 201 200 200 201 197 201 200 198 198 198 202 205 205 201 201 203 200 199 198 198 198 199 198 198 199 192 190 188 183 179 179 178 179 176 175 174 171 164 160 152 147 144 134 126 116 95 75 46 35 28 25 16 17 14 9 13 19 10 14 12 1 7 3 54 61 42 48 53 33 42 50 84 134 175 200 211 211 216 216 215 217 218 219 218 217 213 213 208 205 202 198 200 199 199 197 195 203 202 200 197 198 199 201 204 204 203 202 203 202 201 200 201 201 199 196 194 194 191 190 187 184 181 175 175 174 173 171 171 170 168 165 160 153 148 139 126 119 111 83 56 41 28 20 20 19 14 10 12 14 12 9 12 8 3 4 39 49 48 51 41 32 40 47 90 146 181 199 210 210 213 214 214 210 211 214 215 214 213 211 209 205 202 198 197 199 199 197 196 193 194 192 193 197 199 198 203 204 205 204 202 203 203 203 202 197 194 192 190 191 190 188 185 182 180 177 175 175 174 174 170 166 165 165 159 154 154 147 133 124 117 96 69 44 30 20 23 18 12 14 13 11 17 12 12 15 3 5 38 40 53 48 30 32 32 61 100 152 187 210 203 208 211 213 214 215 214 214 212 211 207 207 203 203 200 197 200 200 200 201 199 197 197 194 190 192 196 195 196 203 202 198 197 199 200 196 194 193 192 193 191 191 191 187 185 180 178 176 176 175 174 172 171 169 166 164 160 156 155 150 140 131 117 107 83 55 37 28 22 16 10 14 14 11 15 16 12 16 11 6 40 31 35 37 30 31 46 65 105 162 195 201 203 208 212 212 211 211 212 214 212 209 207 205 202 202 199 196 199 197 197 198 199 200 201 199 195 194 191 188 189 195 194 193 196 198 197 193 192 194 198 198 195 192 193 189 183 179 176 176 176 174 173 172 172 169 165 164 162 163 158 150 144 140 124 106 93 71 48 33 22 19 13 12 11 11 8 13 16 15 15 10 46 47 46 35 26 41 54 63 104 164 197 204 210 212 214 216 215 214 213 213 214 212 209 207 203 199 198 198 199 197 197 199 200 199 198 197 196 197 201 201 201 201 199 200 200 200 199 195 193 197 197 196 194 189 191 186 183 180 181 177 176 176 174 171 170 169 169 170 166 162 157 152 146 140 133 118 98 77 55 36 26 20 16 14 13 13 12 6 9 16 16 9 69 49 47 35 30 42 52 68 117 173 197 205 210 210 212 213 214 212 209 208 208 204 202 203 199 197 197 197 195 194 195 196 198 196 195 196 197 198 196 197 198 200 201 200 201 198 198 196 196 198 196 196 192 187 191 186 183 180 178 177 176 176 175 173 172 169 167 167 165 162 158 153 147 141 134 120 105 93 71 45 29 21 15 13 14 13 9 5 6 13 21 10 94 75 62 47 32 32 40 77 130 174 197 206 214 212 210 214 215 215 212 210 210 206 200 194 190 185 181 180 186 185 185 187 188 196 195 194 194 195 197 197 197 199 199 199 198 197 196 196 198 198 195 194 193 188 188 185 181 179 176 176 176 176 175 175 174 172 167 167 165 164 158 154 150 142 136 124 112 101 86 56 34 25 13 11 10 13 10 6 3 8 18 14 63 56 50 42 32 32 42 83 133 170 194 207 214 213 213 213 215 215 213 212 210 208 204 203 202 197 195 192 193 191 191 192 192 189 188 192 195 197 198 198 198 197 196 196 196 196 195 195 196 194 191 192 192 190 185 184 182 179 178 176 175 173 173 173 173 169 165 164 162 160 158 153 149 144 137 130 118 105 94 70 43 30 15 9 7 7 10 7 4 5 8 14 57 45 36 34 30 33 49 88 138 173 198 208 210 212 211 210 211 210 208 207 208 207 204 204 203 201 198 197 196 193 192 192 192 186 188 187 190 193 193 192 194 194 194 193 194 196 199 197 198 192 189 189 189 188 180 181 182 181 179 176 175 172 171 171 171 169 167 166 162 158 154 151 148 143 139 132 126 110 97 79 54 39 22 10 4 3 5 6 9 5 2 7 52 41 41 34 34 38 59 99 153 181 203 208 208 209 210 210 208 208 208 208 209 207 206 203 201 197 194 193 196 191 187 188 190 189 190 192 191 188 186 187 186 189 192 192 195 195 199 195 189 190 187 187 186 183 185 184 183 182 180 179 177 175 174 174 175 171 169 168 164 160 154 152 148 144 139 133 127 111 98 83 64 46 28 14 6 6 2 5 7 5 2 3 48 47 59 56 45 43 70 121 166 185 199 205 210 209 210 210 211 210 209 210 206 204 204 204 200 197 196 192 185 186 185 189 190 191 192 194 194 192 192 192 191 192 192 192 190 190 193 191 187 186 186 187 186 184 185 185 185 183 182 177 177 176 174 173 172 170 167 167 163 159 154 153 148 143 142 137 131 114 100 84 67 47 30 19 10 4 2 4 5 4 4 3 27 25 28 32 49 63 93 153 179 188 198 203 206 205 205 207 209 209 209 209 206 204 203 202 199 197 195 191 184 186 188 188 187 189 188 190 188 188 189 190 190 188 185 187 192 189 190 190 190 188 187 186 185 182 183 184 187 184 182 179 178 177 176 173 172 170 168 166 165 162 160 154 148 142 140 136 133 122 110 92 72 48 30 25 13 4 2 5 5 7 6 1 25 16 20 26 51 87 132 178 189 192 197 201 200 201 204 206 209 208 209 210 208 208 205 203 199 199 196 192 193 190 188 188 188 192 191 190 188 190 190 190 191 191 189 190 192 195 192 189 185 186 185 187 186 184 183 184 185 184 182 180 180 179 176 175 174 171 168 167 164 162 159 154 150 144 142 134 134 127 120 105 87 58 33 26 16 10 6 7 8 9 11 7 35 21 28 46 81 128 178 192 194 192 192 197 196 201 205 210 209 209 209 209 208 207 205 203 201 202 197 193 195 192 192 191 191 187 188 187 186 183 185 186 186 187 189 189 191 191 187 184 185 183 183 186 188 187 184 185 184 183 182 179 180 180 178 176 175 173 169 167 163 160 157 155 154 147 142 136 132 124 121 112 96 71 43 29 18 12 8 6 7 8 9 3 29 28 34 52 121 164 186 199 196 194 191 193 190 197 206 206 202 209 209 207 204 205 203 202 203 201 198 194 195 195 194 189 185 188 190 190 188 185 186 185 184 185 187 190 193 189 185 186 190 186 187 187 185 183 186 184 182 182 182 179 180 180 180 178 176 174 170 168 164 159 161 161 155 145 138 138 131 121 118 113 100 78 55 34 18 12 7 4 5 5 5 1 35 40 50 81 150 179 195 197 198 198 191 191 201 197 203 206 210 207 205 201 201 204 198 197 199 200 194 194 193 192 191 189 189 188 189 191 189 184 187 186 185 187 189 191 192 188 186 189 186 185 187 186 186 187 185 183 184 185 183 182 181 179 178 176 177 175 171 170 168 164 167 165 158 145 139 134 133 127 121 115 110 88 72 42 26 14 10 4 6 5 3 2 44 35 55 108 175 191 195 201 202 200 193 194 192 195 206 207 204 203 201 195 196 199 195 193 196 199 190 191 187 188 187 187 186 188 187 188 186 183 184 183 183 185 187 188 187 186 185 186 182 185 186 186 185 186 186 185 183 182 180 181 180 177 176 176 176 175 169 168 169 174 164 163 160 152 143 130 132 129 125 119 118 102 84 53 34 19 12 8 5 5 4 2 59 37 59 128 189 199 202 197 197 203 200 191 190 186 181 177 188 189 189 185 191 196 195 193 190 190 187 190 189 188 188 185 185 187 186 185 184 182 181 180 181 184 185 185 185 183 184 185 180 183 185 186 186 188 183 182 182 183 181 173 172 172 171 169 168 167 163 163 160 160 159 155 154 148 140 133 133 130 129 125 122 108 92 62 44 22 15 10 6 7 11 1 68 46 59 138 193 201 202 202 202 208 200 192 172 158 147 137 137 149 158 167 179 185 183 182 183 183 183 186 185 185 185 185 185 183 184 182 182 180 178 179 179 180 182 182 182 180 180 183 179 183 183 181 179 180 180 178 178 179 176 172 172 172 167 160 157 155 147 141 130 116 103 101 105 120 133 130 133 137 135 131 126 115 98 68 52 27 18 11 6 8 15 11 49 60 61 145 198 201 201 201 204 193 168 159 168 128 109 104 98 102 104 107 129 150 159 165 174 181 177 180 176 179 181 184 186 184 183 179 180 181 178 179 179 181 180 180 180 176 176 182 178 175 177 176 177 179 178 176 173 172 168 166 167 165 157 143 130 110 95 87 73 54 63 77 88 99 111 117 128 138 138 131 134 124 104 75 57 32 23 14 5 6 14 11 58 59 80 153 195 202 206 200 206 161 143 155 133 106 90 94 88 81 75 73 81 96 104 123 144 159 166 161 163 167 169 172 173 178 183 180 175 176 176 176 174 176 176 177 178 176 175 177 175 173 174 171 171 172 173 171 162 159 153 151 141 124 102 86 78 61 55 54 50 52 55 51 55 60 58 70 101 131 138 136 130 133 111 82 62 42 19 12 10 5 13 22 69 60 78 147 201 208 205 202 204 172 151 148 136 122 117 114 94 71 59 51 56 54 50 59 67 83 112 131 135 142 144 151 161 167 174 175 173 172 175 176 176 176 176 176 175 173 172 174 171 165 164 153 147 155 148 130 116 116 100 80 68 58 55 52 49 51 50 52 61 81 64 69 71 69 69 72 70 94 130 141 134 135 117 90 66 41 22 14 11 4 11 26 75 66 85 152 201 206 211 205 203 182 160 141 151 162 166 152 128 116 90 58 43 40 40 41 45 45 53 66 85 101 112 123 138 147 157 167 168 166 170 173 173 174 173 172 173 171 169 169 165 153 135 120 113 108 83 70 57 56 47 39 42 46 42 37 33 37 52 83 100 102 113 106 92 84 86 87 71 83 118 138 137 140 124 102 73 43 18 13 13 10 21 28 84 87 92 159 202 203 213 205 202 198 184 170 173 179 176 168 167 154 152 139 106 68 48 41 37 33 35 43 61 60 64 83 106 126 139 156 164 165 165 167 169 169 168 166 167 164 159 158 152 134 107 91 82 69 40 40 31 31 36 34 35 29 29 49 72 100 130 140 147 151 146 141 128 106 94 74 78 96 121 139 141 142 129 111 82 49 25 14 12 9 23 31 107 94 94 155 205 207 211 207 202 203 200 193 189 178 171 165 156 156 149 144 141 132 121 99 74 58 43 42 48 48 53 68 78 103 117 139 155 159 161 164 165 167 165 163 166 162 156 152 145 120 99 81 71 60 44 46 39 40 41 41 52 71 94 119 133 144 146 140 147 147 146 145 146 140 128 119 107 101 117 140 141 140 129 115 86 48 24 11 11 13 28 42 103 89 92 156 208 210 210 213 206 199 193 188 179 180 176 158 148 139 132 131 141 134 121 131 124 112 109 90 64 58 65 67 79 88 111 129 148 163 160 163 161 162 166 162 162 159 158 147 134 111 94 82 78 72 71 64 65 76 85 109 115 140 137 143 133 142 139 133 132 137 143 143 141 137 137 133 126 127 136 146 148 140 138 116 93 57 24 15 12 13 34 46 102 80 91 162 209 208 209 210 205 197 187 180 171 168 162 160 146 142 130 120 126 118 107 110 110 122 129 123 118 110 96 85 77 83 101 117 139 153 156 163 164 165 165 161 161 158 155 143 133 114 107 101 96 89 99 104 107 117 125 125 130 129 121 115 117 120 125 126 129 136 134 137 136 137 138 139 136 136 142 146 144 142 142 120 94 58 23 14 12 11 42 43 97 74 97 169 207 207 211 211 205 197 186 176 171 179 155 142 122 102 95 85 81 85 79 71 76 84 98 124 140 140 127 125 118 104 108 117 134 145 153 159 160 162 162 158 157 153 149 138 127 116 110 92 90 109 108 112 98 80 46 48 64 67 85 77 101 109 101 123 137 130 141 138 136 137 141 144 144 146 147 146 147 145 142 126 102 61 25 13 16 9 45 49 103 80 105 171 203 207 213 212 205 199 188 178 181 175 159 150 119 76 103 113 90 69 56 33 25 35 45 61 85 122 141 139 123 117 111 115 125 141 153 157 156 157 160 161 156 150 142 131 120 108 92 105 120 108 68 36 12 14 8 4 13 14 23 41 69 76 100 97 106 129 144 146 147 148 150 145 147 147 147 146 150 150 143 128 111 71 29 11 18 13 40 54 88 73 102 168 204 209 211 208 204 197 192 185 193 183 158 112 57 107 87 37 9 6 4 7 10 12 19 28 39 58 86 114 143 127 118 115 119 139 154 161 165 167 166 161 156 147 138 124 114 101 101 115 97 50 13 4 10 19 23 39 10 6 4 4 9 17 34 82 104 92 119 138 152 151 146 152 151 147 142 145 150 152 146 133 117 72 35 10 20 20 30 62 73 74 94 164 208 207 211 211 205 198 195 182 188 185 151 101 79 36 12 9 4 18 5 7 73 24 43 99 36 46 61 97 96 130 124 118 117 134 152 167 170 170 172 168 156 150 135 119 107 100 118 106 63 31 8 16 36 41 9 45 47 22 44 65 12 3 6 13 43 78 97 113 142 146 149 153 150 143 139 147 155 151 149 138 117 75 35 14 14 22 25 73 83 67 83 168 203 206 216 211 207 201 196 185 142 121 114 96 33 4 14 25 20 45 21 6 55 29 95 157 130 88 55 62 98 103 123 119 124 136 155 172 174 174 177 173 159 154 137 121 110 105 110 93 40 21 83 48 35 47 50 57 66 51 87 111 80 40 13 2 6 15 51 92 120 134 136 137 143 148 151 160 160 151 146 138 118 79 31 12 13 22 31 66 102 66 77 171 202 206 213 212 211 206 202 190 175 129 66 22 14 18 58 65 41 51 54 56 68 50 129 171 157 124 101 71 70 101 124 126 131 142 161 179 182 182 185 179 165 157 138 125 118 126 122 73 70 59 65 48 54 52 55 65 78 62 87 76 77 69 68 58 58 40 63 95 115 136 144 157 162 167 163 162 161 151 146 138 121 81 26 11 17 20 33 77 115 81 88 154 200 208 206 214 213 210 208 202 174 146 122 107 101 122 92 87 98 81 78 71 71 71 110 101 92 97 81 86 75 83 99 141 147 145 165 184 190 188 189 182 168 160 140 130 130 138 112 67 82 76 83 83 102 106 111 102 120 102 120 114 115 110 107 96 115 120 124 126 142 147 159 164 166 166 164 165 162 153 143 137 121 81 26 13 19 22 27 88 81 91 147 155 194 209 208 213 215 213 214 213 212 210 197 182 172 155 150 133 118 97 127 104 110 116 117 90 104 119 102 110 121 96 109 152 155 151 169 189 196 194 193 186 174 167 144 138 142 143 126 124 110 115 107 119 132 139 132 141 147 137 143 151 146 134 138 136 144 152 157 162 170 167 169 176 171 168 167 165 162 152 145 138 119 76 27 12 18 27 18 82 72 118 194 162 192 205 212 211 213 212 216 217 218 213 212 212 201 180 172 152 155 134 145 136 152 142 137 139 129 124 124 128 135 157 156 157 154 158 173 194 201 198 196 189 178 170 150 145 151 152 154 146 128 114 121 126 129 138 133 143 138 147 146 147 146 142 144 151 156 160 163 176 169 172 173 166 166 167 167 165 162 153 145 135 116 71 25 14 18 34 20 68 63 144 170 148 183 201 210 209 211 214 215 215 212 209 206 204 200 194 182 165 154 148 147 148 143 143 140 137 134 132 133 137 142 153 159 159 159 167 184 200 207 203 199 193 183 173 156 147 157 155 151 143 131 123 123 122 126 132 133 141 144 147 149 151 150 146 146 149 156 164 171 174 174 172 171 170 168 169 169 167 162 157 143 137 110 69 19 14 19 31 28 86 94 162 167 156 180 199 211 209 211 213 214 215 213 209 204 200 194 192 183 171 162 156 151 150 147 149 148 146 141 142 140 144 145 150 160 166 171 178 190 208 212 205 202 197 188 175 160 152 159 159 156 151 147 142 136 136 138 141 140 146 148 148 148 148 148 149 154 161 171 175 172 173 172 173 172 169 168 168 170 167 163 157 145 134 105 61 24 14 22 32 22 101 144 164 173 178 188 198 207 207 208 210 211 210 203 203 202 203 200 197 186 173 163 158 153 150 147 148 147 147 151 150 153 154 155 161 171 178 183 188 196 210 214 206 202 198 188 176 161 153 161 163 161 157 156 158 155 154 156 158 159 156 154 156 152 152 153 155 160 165 169 171 169 167 168 170 168 169 167 169 169 166 163 157 143 134 99 54 35 16 22 34 19 89 166 163 176 189 190 194 199 205 206 206 208 206 209 202 198 192 188 184 179 171 168 168 164 161 158 160 160 160 160 160 162 165 169 175 181 187 190 194 201 214 216 205 202 197 187 174 163 156 161 167 165 165 163 163 163 163 167 174 177 178 178 178 177 176 178 181 183 185 184 184 178 170 170 170 166 172 168 167 167 165 161 154 142 133 95 49 46 14 19 38 21 86 153 168 178 190 187 196 200 205 206 207 207 208 199 200 203 206 208 205 201 200 196 190 185 182 175 172 170 169 170 170 173 178 184 186 191 194 199 201 206 218 217 207 201 197 187 173 166 159 163 168 168 168 169 168 169 169 171 174 176 178 178 179 179 179 181 181 185 185 187 188 177 171 173 175 172 171 169 168 166 163 159 152 142 132 92 51 61 21 19 39 20 92 149 163 183 184 194 189 198 203 208 210 209 211 212 212 210 209 208 201 198 194 199 198 197 194 188 185 182 180 181 184 188 193 193 197 199 201 201 206 211 219 214 207 205 199 191 178 164 160 161 162 169 169 171 176 174 174 176 179 180 180 180 182 183 183 184 184 181 182 183 181 178 175 172 171 170 168 164 165 165 161 158 156 140 135 73 64 71 22 20 41 26 82 124 167 180 199 153 182 205 202 207 210 211 213 214 214 213 210 208 204 203 204 207 207 204 202 198 198 196 194 194 196 198 201 201 201 204 206 206 209 211 219 217 208 202 196 189 176 166 161 162 162 168 172 175 179 179 180 182 183 185 185 185 185 183 185 183 181 179 180 181 178 177 174 175 173 168 166 163 161 161 157 157 154 144 132 67 67 79 24 27 49 27 66 96 155 176 196 197 152 197 201 206 210 212 214 216 217 217 214 212 202 204 206 208 206 207 205 203 204 204 204 205 203 205 206 205 205 208 210 209 211 212 219 216 208 203 195 188 177 167 162 164 163 166 172 177 180 182 184 186 188 188 190 189 188 187 185 183 181 180 181 179 176 175 176 177 174 167 169 165 163 163 157 157 149 141 123 59 67 82 36 22 37 26 41 74 118 174 133 146 139 195 199 204 207 209 211 214 215 216 214 212 207 209 210 207 207 210 209 207 208 210 208 211 210 208 206 206 207 211 212 211 210 212 220 218 209 202 194 190 178 168 163 163 162 166 173 179 178 182 184 190 192 193 194 193 192 190 189 186 184 183 184 181 177 175 176 177 174 168 167 162 161 161 151 153 141 140 119 55 74 84 42 28 45 23 22 76 66 140 177 173 174 192 199 203 207 207 210 212 215 217 217 213 213 214 211 208 208 210 210 207 209 210 209 207 207 205 203 202 208 211 211 210 209 211 219 218 210 202 194 189 180 169 163 163 163 165 172 178 176 179 183 189 193 194 196 194 194 192 191 189 186 187 187 183 179 176 175 176 173 169 167 163 160 158 152 152 139 141 109 31 55 80 51 22 37 28 20 77 49 61 130 162 172 185 193 200 203 208 208 214 215 216 217 216 213 211 211 205 206 207 206 206 208 208 205 200 199 195 195 199 202 209 206 210 209 212 221 218 206 201 196 189 174 165 161 160 160 166 169 173 173 176 179 184 192 195 196 195 196 194 193 191 188 182 181 183 181 175 173 173 171 169 165 162 158 154 149 144 142 137 96 27 15 22 27 27 29 25 20 82 62 45 31 69 89 111 197 201 202 207 208 212 213 216 215 214 207 209 208 203 201 202 202 202 204 202 200 196 194 189 185 186 193 199 204 207 213 215 221 219 208 202 196 189 177 168 164 158 160 162 165 166 165 168 172 178 186 190 193 194 194 194 192 192 191 187 186 183 181 175 173 173 171 168 163 160 154 149 143 142 138 133 95 25 12 12 20 31 31 37 18 85 52 58 39 38 19 51 188 199 198 203 206 208 211 211 210 208 209 206 203 201 200 201 200 198 200 199 194 191 186 179 172 171 178 190 200 204 216 218 222 216 208 203 198 188 180 173 164 157 161 160 159 157 156 158 163 170 176 183 189 190 189 191 191 190 189 185 181 177 174 171 170 169 169 165 164 160 155 148 142 138 131 127 89 21 16 15 24 36 27 34 27 84 60 60 34 42 29 41 163 196 198 200 204 206 206 206 205 205 202 198 192 194 195 198 197 194 195 194 190 182 176 169 163 158 162 182 199 206 213 220 222 213 206 203 195 187 181 177 167 158 155 151 150 148 147 151 157 161 167 176 181 183 183 186 186 187 186 184 177 172 172 168 165 165 164 160 160 155 149 143 136 132 126 124 83 17 18 11 21 36 33 36 41 86 54 52 45 36 33 33 133 193 195 191 199 200 199 197 196 197 191 188 189 192 191 188 188 187 184 182 178 172 164 161 156 148 146 175 204 209 217 222 219 208 204 202 194 187 180 179 172 161 152 148 146 144 146 145 150 153 157 168 174 176 178 180 180 182 183 179 170 167 169 164 163 163 160 157 155 152 147 139 135 127 124 124 77 14 22 17 26 36 37 30 44 72 61 55 43 39 41 32 94 186 187 189 196 196 192 191 191 190 182 181 182 184 182 180 181 182 180 176 172 163 158 159 154 148 141 179 215 209 218 221 217 208 202 199 194 183 178 178 173 163 156 158 151 146 151 152 150 153 152 157 167 174 173 173 176 175 173 171 167 165 168 163 160 159 155 155 148 133 136 134 125 125 121 126 63 28 15 23 19 42 45 43 43 70 61 56 47 47 46 36 44 173 188 185 185 193 188 189 189 186 181 179 181 181 180 177 175 175 173 168 168 165 159 159 160 157 149 194 216 212 219 217 213 203 198 196 192 184 179 178 172 163 161 166 162 154 151 157 156 157 152 151 159 167 170 169 172 169 169 166 163 163 163 159 157 156 154 151 147 132 134 128 123 122 120 125 49 25 11 28 22 41 46 49 50 75 62 58 52 54 49 39 22 129 184 182 186 186 184 185 184 181 179 177 175 176 174 172 172 170 167 167 166 165 164 166 166 164 164 210 211 211 212 216 211 203 197 195 190 182 176 175 169 159 163 168 170 161 149 163 168 169 160 152 149 157 163 166 166 164 164 162 160 158 158 154 152 153 151 147 143 135 132 120 118 118 121 124 37 20 17 29 32 37 48 47 47 75 64 60 54 52 46 34 29 64 173 175 179 182 181 182 180 175 175 172 170 169 166 166 167 163 162 163 163 160 168 175 172 165 172 211 207 205 207 209 204 198 192 189 188 181 174 173 163 156 159 168 168 160 149 164 172 176 167 158 147 148 156 160 160 161 161 159 158 155 155 150 149 149 148 142 135 130 123 115 116 116 122 119 25 21 26 27 40 41 50 42 52 76 66 62 52 47 45 34 39 39 155 177 173 174 174 173 173 168 167 165 163 162 162 159 159 157 157 155 156 164 175 182 179 174 168 191 200 192 197 198 194 186 181 178 178 173 166 164 156 144 150 156 153 147 147 165 175 174 170 161 148 143 145 149 152 155 156 156 154 151 149 145 144 144 139 133 124 120 115 115 116 118 122 109 10 14 30 24 38 43 51 38 55 83 74 64 50 46 45 36 37 29 113 174 170 167 168 170 168 164 164 160 159 159 161 158 156 153 154 154 155 171 180 184 185 183 165 163 173 172 186 189 187 183 176 174 171 163 158 151 142 136 136 138 134 133 146 172 178 177 172 164 153 140 136 141 145 150 151 150 151 146 146 143 140 138 132 127 117 115 111 116 119 118 120 96 4 5 31 26 33 42 52 38 47 80 71 59 48 48 43 35 36 31 60 182 172 161 160 160 162 162 161 157 157 158 158 155 150 148 148 153 164 177 188 195 194 194 180 169 145 125 139 159 166 168 163 162 162 150 144 138 108 84 85 99 115 134 161 178 179 178 174 166 157 146 136 132 135 140 141 145 148 143 146 140 137 129 120 113 111 114 118 119 121 120 118 71 5 7 24 36 27 45 50 52 44 75 62 55 46 48 44 36 31 33 33 155 174 162 156 151 153 156 153 155 155 156 152 149 148 147 149 159 178 184 193 200 201 200 203 193 181 166 156 156 156 157 155 153 150 141 127 98 85 97 115 132 152 167 179 179 178 179 172 165 158 155 148 136 132 133 134 140 144 142 142 136 130 121 113 110 116 119 125 126 124 123 114 44 10 17 17 34 32 40 52 72 44 73 62 57 49 48 43 35 33 34 27 90 180 173 161 150 147 148 149 151 155 151 148 145 145 152 166 173 183 184 193 200 200 201 200 207 203 193 189 166 149 140 144 143 136 116 97 114 138 153 151 159 168 175 175 174 174 171 169 165 163 158 151 149 140 134 130 124 132 139 135 133 124 118 121 128 133 129 127 128 125 122 112 32 11 19 21 19 45 34 56 65 58 72 65 61 49 48 43 34 37 31 22 36 175 181 170 159 154 151 150 150 148 143 144 149 153 164 176 176 178 186 191 194 195 196 201 193 194 203 192 182 164 141 131 119 107 110 132 150 152 157 162 168 168 173 174 172 169 167 165 164 160 152 148 149 145 140 135 122 120 130 130 130 125 125 133 142 144 137 132 130 125 118 100 20 13 19 27 18 39 42 52 58 66 70 65 59 46 46 44 38 28 37 25 27 149 186 178 173 170 167 154 151 144 140 145 153 164 176 174 168 174 183 186 187 188 190 188 197 190 185 186 180 176 166 150 145 148 153 155 161 160 161 161 169 165 168 168 169 164 160 158 157 151 147 142 139 140 144 149 138 124 129 136 134 135 138 143 147 143 137 135 131 121 116 85 9 14 20 29 33 18 58 45 64 60 72 65 62 41 46 40 36 34 32 23 22 96 192 186 173 177 174 167 158 144 142 153 160 173 175 160 164 172 175 181 184 186 188 190 190 190 186 181 176 171 162 156 157 160 162 165 165 165 164 163 165 162 161 161 163 161 157 153 149 147 142 136 136 139 141 145 141 139 146 139 142 146 143 142 148 144 139 138 127 127 114 65 8 13 30 21 25 15 36 50 52 69 69 62 57 41 44 38 35 31 33 19 20 44 189 188 182 187 182 178 169 161 165 169 171 175 171 158 161 166 165 174 179 181 187 185 188 192 190 186 181 171 158 152 155 159 155 157 162 167 171 168 165 163 161 162 155 154 152 148 147 145 139 131 130 136 139 142 144 145 155 151 149 149 147 143 147 142 142 138 127 124 115 29 4 15 26 24 18 17 22 48 41 64 71 62 56 45 45 35 35 27 28 19 27 22 138 188 187 183 182 183 177 174 180 182 178 176 166 154 149 152 161 165 175 185 189 195 198 203 201 197 197 190 177 162 153 152 156 164 171 170 166 162 157 154 153 153 148 148 145 143 141 142 132 125 130 130 133 146 148 151 159 158 155 151 147 146 147 143 140 133 124 123 101 5 6 23 26 30 19 24 17 47 39 60 70 62 58 49 45 35 37 29 23 18 26 16 69 181 188 183 186 188 186 184 190 189 187 177 159 144 143 154 164 173 185 195 198 193 189 181 169 162 163 168 175 176 178 177 171 170 168 158 146 146 143 141 139 141 128 129 130 131 131 127 127 121 114 123 141 153 153 157 157 155 155 150 146 145 147 142 138 132 129 122 60 1 4 19 22 27 20 18 18 35 39 58 66 60 60 50 45 31 34 35 21 26 22 21 25 166 184 186 188 187 189 190 189 189 185 174 164 140 124 132 160 177 173 161 162 150 144 134 126 119 122 121 121 126 138 147 141 123 115 110 106 105 106 106 105 105 99 100 96 93 93 89 69 69 111 144 154 155 154 157 155 153 154 147 145 146 149 139 136 133 128 103 21 8 7 13 19 23 24 14 25 25 46 43 67 59 60 55 44 38 34 28 27 28 24 14 12 118 188 179 190 188 188 187 185 186 183 178 162 146 127 98 82 114 123 117 131 114 122 128 127 122 117 110 108 103 101 103 95 100 99 103 102 108 114 107 101 98 105 88 86 80 59 52 88 128 148 156 155 152 153 157 152 153 153 145 146 146 142 142 134 127 126 88 5 4 5 10 18 16 17 21 21 21 48 38 64 68 60 57 46 38 35 29 23 24 21 15 13 34 169 184 186 187 187 186 185 184 182 176 166 161 155 139 131 118 106 123 122 111 112 110 111 118 116 97 94 102 107 110 101 106 103 102 111 99 101 99 97 87 86 80 76 70 78 117 141 157 160 157 155 153 153 154 149 151 151 147 147 145 141 136 134 126 123 32 3 6 8 11 14 16 10 16 21 22 52 37 58 65 55 52 44 33 31 32 25 21 18 16 13 7 122 178 182 184 185 184 183 184 181 173 165 170 170 164 171 169 136 113 102 101 103 95 84 82 88 85 97 107 103 92 74 94 93 81 86 85 79 75 71 65 76 73 80 91 111 138 154 160 162 163 160 153 153 151 145 148 147 146 146 144 138 137 133 125 87 8 3 3 7 11 13 15 13 18 21 22 50 37 59 61 52 51 47 33 33 31 26 20 19 16 18 15 56 172 184 184 182 183 182 181 179 171 168 181 185 186 182 184 182 150 127 109 110 103 88 74 63 58 56 49 42 39 32 39 44 49 56 71 79 85 90 100 94 92 92 102 136 152 160 161 162 160 157 152 151 146 140 147 145 146 144 141 138 133 129 117 34 2 5 5 12 14 15 18 11 18 25 27 54 40 63 60 52 51 51 37 36 32 30 24 17 16 19 17 19 124 185 181 181 180 180 179 177 168 171 186 190 192 188 184 187 177 142 120 119 124 132 128 127 116 108 103 99 98 92 90 92 111 106 114 115 116 107 99 92 83 101 131 150 151 157 158 160 159 154 150 150 143 139 145 144 146 142 139 138 136 124 78 10 2 11 9 12 12 9 13 9 18 24 25 51 42 59 52 51 53 48 38 30 34 29 23 19 14 23 16 15 51 168 186 178 183 179 186 172 169 169 184 190 185 192 190 185 180 177 144 118 115 115 125 140 145 140 130 136 144 131 120 127 125 113 123 110 111 104 87 90 101 125 146 150 150 156 155 156 157 150 148 144 139 141 141 146 144 143 139 136 126 107 21 6 7 12 9 9 9 5 10 12 16 21 31 44 41 52 49 50 51 49 39 32 33 30 24 20 17 12 20 19 18 106 182 175 184 177 172 175 171 171 181 187 187 189 187 184 181 179 172 143 120 109 115 116 118 115 109 111 114 108 105 110 105 94 107 101 95 91 88 103 122 140 145 149 150 155 156 156 155 149 149 141 136 143 142 144 145 142 136 129 114 64 3 1 2 14 11 10 4 6 12 14 13 18 33 46 45 55 52 48 51 51 44 33 33 31 26 20 17 20 12 20 11 29 156 182 172 179 174 175 174 174 177 184 188 183 181 180 177 177 175 171 149 128 112 106 104 102 105 106 102 98 102 104 98 94 97 98 91 94 104 124 139 146 142 149 152 155 158 157 151 149 147 139 135 142 146 144 143 140 132 121 107 30 2 5 14 21 19 15 4 6 16 17 12 17 36 48 47 56 55 47 45 54 50 38 33 30 27 24 22 22 19 26 15 10 65 173 178 172 178 172 176 178 178 180 184 181 179 176 172 170 165 175 166 156 141 124 110 102 103 102 100 99 99 97 96 98 94 98 105 119 129 137 139 140 143 150 155 156 159 156 148 148 142 137 138 143 147 144 140 135 124 113 86 22 3 2 18 30 30 24 9 5 14 20 14 19 40 47 43 59 58 49 43 54 54 43 32 32 28 25 24 20 27 28 18 20 10 106 180 180 182 176 178 178 181 180 180 181 180 176 171 168 169 165 161 160 158 147 135 123 118 113 109 110 108 105 106 106 113 120 131 139 144 136 139 143 147 151 158 157 159 154 148 147 139 137 143 143 144 141 135 125 113 101 87 38 2 2 26 46 42 27 13 8 16 19 18 23 42 44 42 73 59 53 43 53 56 47 35 32 29 26 24 25 21 23 25 20 10 28 128 186 173 177 178 178 182 182 178 181 179 178 175 172 169 160 157 155 152 148 144 139 134 130 128 130 126 127 128 126 129 134 137 134 134 139 146 148 149 154 161 159 157 153 146 143 136 139 146 145 142 135 128 116 102 95 96 54 3 1 29 56 49 28 17 14 16 17 20 30 42 39 45 88 67 59 47 45 48 59 40 33 30 26 25 30 26 22 19 20 9 6 37 147 178 174 178 176 182 184 184 181 179 178 176 173 168 163 160 156 154 148 146 143 141 140 140 139 133 136 138 140 141 142 142 142 142 144 150 150 153 159 160 158 154 149 144 138 135 140 144 143 139 128 117 105 96 101 104 73 4 2 14 45 42 32 20 13 13 20 29 35 36 37 42 97 85 59 50 42 38 58 47 38 31 26 24 27 28 26 22 17 11 12 2 58 166 181 177 178 182 185 185 185 180 178 175 172 170 169 166 163 157 156 153 151 151 151 149 146 143 145 147 147 148 149 150 150 150 149 157 158 162 162 159 156 151 145 138 134 137 140 141 136 130 116 103 98 105 111 109 93 13 7 7 21 25 26 20 13 14 24 40 37 33 39 39 82 101 71 48 43 41 47 54 43 37 32 27 23 28 28 23 16 15 5 8 5 83 173 177 178 180 183 185 185 181 181 178 175 174 173 170 169 165 160 158 159 157 158 157 156 153 155 156 156 160 161 161 161 162 158 164 165 168 166 159 156 150 142 136 137 141 139 136 127 120 103 105 110 112 109 112 105 31 8 7 17 17 20 17 15 24 30 37 39 35 37 38 70 98 92 58 39 43 47 52 47 40 32 27 23 28 29 25 18 20 2 12 4 41 156 175 178 177 180 185 185 181 183 184 181 178 176 174 173 171 166 166 165 165 165 165 165 164 166 167 165 162 164 164 164 164 165 169 170 171 167 159 153 144 137 135 136 138 132 127 118 113 108 116 120 116 110 115 111 60 4 9 20 17 19 19 22 27 33 36 39 38 36 38 81 76 93 76 40 39 44 48 44 39 34 26 23 26 28 27 21 11 19 2 6 56 152 175 176 177 178 183 184 184 186 186 186 181 177 174 176 174 175 174 173 171 172 171 170 169 171 172 170 169 169 170 171 170 173 171 169 172 166 158 150 139 133 132 135 133 125 117 110 107 119 124 120 113 115 115 115 86 7 14 13 9 17 27 32 32 31 41 40 35 34 35 71 72 89 95 47 36 44 47 44 43 38 31 25 27 30 33 27 23 14 6 6 88 148 185 181 176 176 182 185 186 189 190 187 187 186 181 179 180 179 179 180 178 178 177 175 173 172 173 175 174 175 177 178 174 171 171 172 169 160 152 141 134 133 131 132 126 114 107 115 126 128 126 120 110 118 127 114 100 20 15 14 18 20 23 27 35 38 38 37 29 27 35 69 57 75 92 77 31 47 39 42 45 40 31 32 30 30 34 33 28 14 8 10 109 150 188 189 184 176 174 179 184 189 191 190 191 191 188 184 184 182 180 179 180 181 180 178 176 177 179 179 180 177 177 174 170 171 176 174 166 158 147 135 132 130 126 125 114 105 115 130 135 134 126 118 113 123 122 117 106 42 9 15 21 27 31 38 41 32 33 31 24 34 27 69 66 63 72 98 43 43 45 39 41 40 32 33 30 28 34 36 31 17 15 27 123 143 184 195 192 181 176 176 181 187 192 190 192 190 188 184 184 182 181 179 180 180 179 180 180 182 183 183 183 179 175 169 167 170 174 170 157 149 146 131 128 132 122 108 107 122 136 139 135 131 126 119 114 123 126 122 110 63 4 11 22 37 41 42 37 38 33 22 33 33 24 72 77 57 58 85 68 43 47 39 41 43 34 35 30 30 34 39 47 23 15 50 132 144 181 197 199 189 184 177 178 184 188 188 190 192 190 189 188 188 186 184 182 183 184 183 183 185 184 184 179 177 172 168 167 173 171 163 152 143 134 127 128 123 107 105 123 139 142 138 142 129 124 119 116 127 133 130 114 85 13 18 32 45 46 40 33 36 33 26 35 24 31 71 71 52 62 59 88 50 43 38 46 47 35 38 32 33 38 42 49 26 26 79 133 145 181 197 202 194 189 181 178 181 185 186 188 192 192 191 190 189 188 182 181 181 182 180 180 180 179 179 175 175 170 168 170 173 164 155 147 134 128 128 118 101 113 137 142 148 146 139 138 132 125 118 118 134 136 137 118 108 37 30 37 41 39 35 34 22 26 42 23 18 43 75 69 69 62 52 90 71 42 37 50 46 44 38 40 33 43 43 57 26 27 116 129 145 175 200 196 196 196 187 180 176 180 187 187 186 187 189 186 190 186 182 180 180 176 175 177 177 174 175 173 169 171 169 171 165 159 143 138 131 120 106 102 122 142 149 148 147 145 141 136 133 124 116 128 142 135 136 127 106 69 39 39 39 37 32 29 36 42 31 15 46 23 72 70 65 60 56 80 74 50 39 49 50 49 45 46 34 41 48 57 33 57 128 141 146 172 198 198 199 196 197 187 172 169 180 188 186 182 181 183 182 180 178 178 173 170 171 173 172 172 169 166 165 171 169 163 157 148 141 135 111 94 107 129 147 152 153 152 148 146 143 141 133 125 119 131 146 141 139 126 103 76 47 42 32 22 30 43 38 30 24 31 31 28 76 76 67 62 67 70 81 53 44 48 56 50 49 51 37 38 50 51 38 90 138 145 143 170 195 201 202 200 196 195 187 173 163 173 179 180 176 174 174 171 173 173 170 169 166 168 168 167 165 167 166 163 158 154 147 143 122 101 97 118 133 148 153 153 154 152 151 150 145 139 133 124 122 137 148 143 136 119 97 83 49 33 27 28 36 42 30 21 31 40 22 30 76 77 69 65 76 67 84 54 55 51 56 50 48 50 43 40 48 50 52 121 147 147 145 169 194 200 202 200 199 192 191 183 169 153 160 169 173 171 170 167 166 166 166 168 168 169 169 167 166 163 164 155 150 152 137 111 88 95 126 137 144 155 156 154 154 152 156 154 144 135 133 124 126 143 145 146 130 108 87 81 52 32 32 40 31 25 26 30 48 38 28 25 74 73 74 68 79 65 80 58 64 49 56 56 46 50 49 45 48 52 65 138 147 144 150 169 193 202 205 199 201 197 193 187 180 165 151 149 157 160 161 160 160 164 164 162 163 162 163 162 160 157 151 143 139 123 101 78 100 135 144 144 148 155 156 155 156 159 158 155 145 135 130 124 130 145 142 133 114 99 89 91 67 47 44 44 31 28 29 39 43 28 24 17 76 75 68 68 77 73 78 70 60 56 59 46 44 50 52 48 48 50 79 142 150 152 146 165 195 197 201 198 198 197 193 186 180 170 166 152 139 141 149 152 156 159 155 152 153 154 154 150 150 144 138 129 109 86 84 113 138 144 149 152 154 155 158 160 160 157 158 157 147 139 132 124 126 143 132 118 108 95 95 99 80 51 43 36 35 28 34 48 39 17 22 18 79 79 74 72 74 75 83 73 59 54 57 45 37 53 55 47 48 57 90 148 154 158 150 164 196 197 202 196 198 198 195 189 184 178 176 164 149 141 135 134 136 139 142 144 143 146 144 139 133 123 115 101 94 95 123 136 146 149 152 153 155 159 162 162 163 160 157 153 142 135 127 118 131 141 124 115 99 101 119 108 92 55 37 31 38 37 41 44 29 17 29 16 81 76 75 76 77 80 81 84 57 57 60 40 32 53 57 47 48 62 102 148 156 156 151 165 195 198 204 198 197 198 196 192 188 179 175 171 163 154 145 138 128 120 118 116 117 118 116 113 108 104 107 114 130 149 147 148 150 153 155 152 154 160 164 164 163 162 156 150 141 134 121 119 137 132 114 103 108 113 119 111 88 40 32 38 36 34 46 37 21 23 25 20 83 76 77 81 88 85 75 85 57 67 65 44 36 54 59 50 48 67 116 146 159 153 152 166 194 200 206 200 198 196 195 190 188 179 172 168 167 161 159 156 148 139 132 127 124 120 118 119 121 126 133 145 154 152 159 157 157 158 155 154 156 162 161 162 161 159 154 146 138 132 122 127 129 115 107 104 110 119 126 108 62 12 23 37 33 36 43 31 29 34 21 28