P2
# Generate pgm
92 112
255
59 53 46 56 34 25 20 27 30 31 26 18 21 21 23 28 24 21 24 29 37 33 32 36 34 36 37 37 46 44 38 43 49 52 58 62 68 68 70 72 72 78 78 82 81 87 89 89 98 87 86 91 84 82 76 74 70 70 63 67 68 61 58 60 50 48 44 49 61 54 35 39 43 48 43 35 36 33 23 19 26 28 28 39 40 23 23 25 24 29 41 56 57 49 43 39 19 18 23 32 27 31 30 26 21 25 22 23 24 25 26 31 36 37 38 41 36 35 39 43 39 41 51 54 55 53 60 66 70 74 73 76 80 84 88 86 88 97 101 102 105 104 95 101 99 95 87 81 83 79 75 73 70 70 72 79 61 55 52 54 61 49 41 37 47 52 46 33 28 32 30 29 31 28 27 29 31 26 27 21 25 27 36 41 49 44 33 22 19 19 22 29 29 27 25 24 19 23 19 21 24 25 34 39 43 45 43 45 43 41 45 46 50 53 59 61 62 60 63 67 75 83 85 91 95 101 104 100 103 107 105 115 119 118 112 111 110 108 98 101 99 98 90 87 88 83 79 83 82 71 69 60 57 49 45 42 46 49 46 37 33 31 29 30 33 28 25 26 24 22 21 21 22 28 32 36 46 36 17 17 21 17 21 18 19 22 24 22 27 21 26 28 31 37 45 50 48 52 53 57 58 63 60 62 66 63 66 67 68 73 81 87 92 94 103 104 106 110 116 113 113 113 119 120 127 125 128 128 129 123 115 118 116 118 106 105 100 99 91 94 86 83 75 62 57 53 51 48 49 40 40 33 31 30 29 27 34 30 28 26 17 19 22 20 20 31 33 33 36 25 22 20 18 14 16 16 18 21 23 29 31 34 33 35 44 45 49 56 57 64 70 70 74 78 83 79 77 87 89 99 98 94 90 97 107 106 115 121 127 130 132 131 125 125 127 132 136 137 145 140 140 138 139 138 141 133 128 125 122 116 101 101 97 90 81 76 66 60 59 57 52 50 43 32 27 26 24 28 27 26 27 23 17 18 20 21 23 22 31 31 34 25 23 20 19 21 17 16 19 26 27 31 34 40 39 44 51 54 59 68 76 79 84 85 92 103 99 96 105 109 110 112 118 120 122 127 133 134 136 142 145 144 150 152 149 145 143 142 153 153 157 156 153 157 157 156 156 155 149 139 137 127 113 106 115 105 93 89 85 70 69 62 58 55 54 41 36 28 25 23 20 23 27 26 19 18 18 21 22 21 31 27 29 23 15 22 22 20 20 19 21 24 31 38 43 47 50 49 56 65 72 79 88 96 106 113 121 121 117 124 127 128 131 135 138 143 141 145 150 156 157 158 158 158 160 159 158 162 159 160 164 168 168 168 167 165 166 167 170 166 160 150 147 137 131 122 115 114 110 102 101 87 74 68 68 63 55 49 42 33 25 19 23 26 25 25 22 20 18 18 21 28 31 31 26 25 30 29 19 22 20 23 24 28 37 42 45 51 55 64 72 81 87 98 110 120 127 130 135 141 142 142 140 144 147 147 149 153 157 158 158 167 169 171 171 169 169 170 169 168 173 172 177 177 178 174 176 174 176 175 177 170 167 158 155 149 140 133 131 127 125 120 112 100 88 85 73 67 65 55 49 34 26 24 27 24 21 21 23 24 21 22 26 24 29 34 39 18 27 22 20 23 25 20 28 36 38 52 61 55 62 71 83 87 99 112 127 132 140 147 148 154 152 155 156 157 159 160 159 161 164 169 174 177 178 178 178 176 177 176 177 179 183 186 187 187 186 183 181 181 184 181 181 177 169 163 158 157 150 144 140 135 134 128 121 110 95 89 82 68 69 64 56 44 33 34 28 23 22 24 24 26 26 28 30 32 30 34 25 40 31 15 18 20 22 23 31 38 45 52 61 66 70 78 89 99 109 129 141 146 150 156 161 162 163 164 167 165 167 169 169 172 174 175 179 181 180 180 180 184 184 184 183 188 190 193 195 194 191 190 189 188 187 185 185 181 176 168 162 160 154 153 150 145 140 137 129 116 107 96 88 77 72 59 56 51 42 38 34 26 27 23 22 21 23 25 18 18 26 28 28 46 29 16 21 21 19 27 36 44 51 58 65 74 81 89 101 109 126 141 150 156 158 162 163 169 171 170 170 174 174 177 176 180 180 180 183 184 184 185 187 187 187 191 193 193 194 196 198 196 194 193 192 191 191 189 188 184 179 176 170 163 158 157 154 152 147 141 136 125 111 101 94 87 82 72 63 53 42 35 31 29 32 30 30 22 17 17 18 19 21 29 28 25 19 14 25 23 17 30 40 50 53 66 74 80 85 95 108 122 137 148 157 161 164 167 169 173 174 175 176 180 182 183 182 184 186 187 185 189 189 192 193 191 191 193 196 200 198 197 198 196 196 194 195 195 193 193 189 187 182 179 176 168 166 161 159 157 153 143 138 134 118 109 100 86 80 76 66 58 45 36 34 32 31 26 30 33 21 22 21 20 21 24 20 17 17 12 24 14 24 33 46 56 67 68 76 83 92 103 120 132 141 150 155 161 166 167 172 175 179 183 186 186 188 188 190 191 193 191 190 190 191 193 194 195 196 196 198 201 201 199 200 198 196 195 196 196 194 192 188 187 185 181 180 172 168 165 163 158 155 152 145 136 126 109 104 97 85 79 73 65 55 44 33 32 26 26 25 21 24 25 18 18 22 21 27 21 26 13 17 16 26 37 50 62 70 72 80 87 99 111 127 138 145 151 156 161 165 169 175 180 184 184 186 187 188 189 191 192 196 195 196 194 193 193 193 196 197 199 201 202 202 201 201 199 198 197 196 195 193 193 190 188 186 183 180 175 169 169 167 161 157 155 152 143 131 117 106 105 94 82 77 70 61 47 35 30 29 27 26 19 17 19 16 19 21 25 26 20 17 13 14 15 28 43 52 63 72 76 88 96 107 122 135 148 158 166 170 170 170 170 174 178 182 184 186 187 187 187 187 190 191 194 197 197 197 198 198 196 197 199 200 200 202 202 202 199 200 198 196 194 192 194 190 189 187 185 183 179 173 167 165 165 161 156 153 148 139 129 112 106 101 92 79 73 60 46 41 32 30 28 21 19 19 22 19 15 16 14 29 28 17 12 15 15 37 52 57 66 76 82 90 100 113 128 144 155 162 168 172 174 177 181 184 187 188 190 190 192 192 195 198 198 200 201 203 205 204 202 202 203 204 204 203 202 200 200 200 201 200 198 196 193 192 192 191 190 188 186 184 181 178 175 169 168 166 164 156 152 143 134 123 109 101 90 89 78 64 52 41 36 33 30 26 21 20 20 19 15 18 20 33 30 20 13 15 23 36 57 63 75 77 81 95 106 119 137 150 157 163 167 171 174 176 180 183 186 189 191 192 193 195 195 195 197 197 199 201 203 203 205 203 205 206 205 206 207 205 201 200 197 199 198 196 194 194 194 192 191 189 188 185 182 180 178 177 174 170 166 162 153 146 136 126 116 103 93 89 82 70 54 46 38 34 28 28 23 18 16 16 17 19 21 29 29 20 12 16 29 38 54 64 73 79 84 96 110 124 141 150 156 162 165 169 171 173 177 182 183 185 188 190 192 194 194 197 197 197 200 203 202 203 202 202 202 204 205 205 205 205 206 205 201 200 200 197 196 196 195 193 192 190 190 188 184 183 181 177 176 171 167 162 158 148 139 132 118 107 98 88 83 72 58 45 38 34 30 24 22 18 17 16 17 19 18 34 33 16 14 15 32 45 57 66 73 82 87 98 111 128 143 152 158 162 166 169 169 171 175 177 180 183 186 188 189 190 193 192 194 197 198 202 204 205 205 206 203 203 202 203 203 203 203 203 201 201 199 196 197 197 195 193 192 191 190 188 186 184 182 179 175 173 169 161 158 151 143 137 122 110 105 90 79 74 63 51 46 38 29 24 17 16 16 15 17 20 20 36 32 19 13 19 33 43 59 64 74 84 89 98 115 133 143 150 158 162 167 170 173 173 175 174 176 180 182 184 187 187 189 189 189 191 196 202 201 206 207 208 208 206 204 203 202 202 200 201 200 200 198 197 198 196 193 192 191 191 189 188 186 184 182 180 176 174 170 165 158 153 147 137 127 110 101 94 79 68 64 56 48 41 27 22 16 15 16 16 16 18 21 34 32 21 16 23 34 49 57 68 74 79 91 103 120 136 146 155 162 166 171 173 176 180 181 181 184 187 191 193 196 196 197 196 197 196 196 199 198 202 204 206 205 205 208 207 205 203 202 200 200 199 199 199 195 193 193 192 192 192 189 188 186 184 182 181 179 175 172 165 158 155 146 134 127 116 104 89 86 74 60 53 46 41 28 24 22 17 16 17 19 19 18 34 34 14 17 25 41 46 58 71 79 82 94 111 127 143 151 157 162 167 169 173 176 179 181 184 186 188 192 193 194 194 196 198 199 200 202 204 201 204 203 203 205 203 204 203 202 203 203 201 199 200 199 198 196 195 192 192 191 190 188 188 186 185 184 181 178 176 172 166 160 155 148 140 131 119 107 94 80 73 62 51 46 40 31 23 18 19 20 21 20 17 17 32 34 17 14 34 43 52 65 73 79 82 98 116 130 142 152 157 161 165 169 171 176 179 182 183 184 188 190 192 193 194 194 197 198 199 202 203 204 207 205 202 201 202 202 203 205 203 203 202 201 201 200 197 196 195 192 193 192 188 187 187 185 185 184 181 178 175 172 167 162 155 150 141 128 122 110 93 84 68 60 49 42 38 31 22 19 19 19 18 23 19 17 32 30 19 16 33 46 54 63 71 76 82 100 118 131 142 153 157 161 165 169 172 176 179 180 181 182 185 189 190 192 192 192 194 195 197 201 202 202 203 202 204 201 200 201 202 203 203 202 202 201 202 199 197 196 195 195 193 192 190 187 186 185 185 183 181 178 175 171 167 160 156 149 141 131 122 113 95 82 70 60 51 44 36 33 22 21 19 17 21 30 22 14 33 35 23 17 35 45 55 60 69 76 82 100 118 131 143 154 157 162 165 168 172 175 177 178 180 180 184 187 190 191 190 191 194 194 195 199 201 201 201 201 202 201 202 201 202 202 203 203 203 201 200 199 197 197 196 195 193 192 190 189 189 186 185 184 181 178 176 172 166 161 155 150 140 132 125 114 100 85 69 62 51 42 37 30 26 19 16 17 23 25 19 16 35 35 25 18 42 45 54 63 70 73 80 99 116 130 143 153 158 163 164 166 173 175 178 179 181 181 183 187 188 188 188 190 192 193 196 198 200 199 200 200 200 202 202 202 202 202 202 202 203 201 201 200 200 198 196 194 193 192 190 190 189 188 186 184 181 176 173 170 165 160 155 148 142 133 127 117 105 86 74 63 52 43 35 30 26 24 20 23 21 20 20 21 36 35 30 18 42 44 57 61 67 74 81 98 115 131 143 153 158 163 165 166 171 175 177 180 182 182 184 187 188 189 191 192 192 195 198 199 199 199 199 200 201 202 203 202 203 203 203 203 203 204 202 200 199 197 196 194 193 192 190 190 189 188 186 184 182 178 176 172 168 161 156 149 143 135 127 117 108 93 78 63 54 44 37 30 32 24 19 17 22 22 22 21 35 39 30 21 39 44 50 59 67 74 81 100 115 131 143 151 157 163 166 166 171 176 179 181 182 181 184 187 188 190 191 194 193 195 197 199 200 200 200 201 202 201 202 201 202 204 203 204 204 203 203 200 201 198 196 195 194 192 191 190 189 189 188 185 183 178 175 171 167 164 158 152 145 138 130 121 110 96 83 70 56 48 40 32 28 23 19 17 19 20 19 20 37 37 33 24 41 45 52 60 67 75 85 104 120 133 144 153 157 163 165 167 172 177 180 182 184 184 186 188 190 191 191 192 193 193 196 199 200 201 201 201 203 203 201 201 201 204 204 204 204 204 203 203 202 200 198 197 194 192 192 190 190 190 188 186 183 180 177 173 169 166 158 153 147 141 133 125 116 102 92 77 64 52 40 34 27 20 20 19 19 22 21 21 35 33 36 27 37 46 53 64 70 76 91 105 118 131 144 153 157 162 166 168 173 178 181 184 186 187 188 188 188 189 189 191 192 191 192 195 198 200 201 203 204 203 201 201 203 203 206 205 206 205 204 204 202 201 198 196 194 193 192 191 190 189 186 184 183 180 177 175 171 169 162 154 147 141 135 127 119 105 93 81 67 55 45 35 25 20 19 19 20 21 20 21 34 33 34 33 35 46 57 66 74 79 88 100 116 130 143 151 158 163 167 169 172 178 182 186 188 189 189 187 187 188 189 189 189 191 189 192 196 200 205 203 204 203 203 203 204 207 208 208 208 207 206 205 204 199 198 195 194 192 191 190 188 187 186 185 181 178 175 174 173 169 165 162 150 140 135 128 118 106 96 85 69 58 46 34 26 21 23 15 17 18 18 16 31 32 35 32 34 49 57 64 70 73 83 100 122 133 144 150 156 164 166 169 171 177 182 187 189 190 190 186 187 188 189 188 188 189 187 192 190 191 197 201 205 204 204 204 206 206 209 209 209 208 206 203 203 199 196 195 194 192 189 187 184 184 183 182 180 176 175 171 169 168 166 164 152 143 137 129 123 108 99 89 74 58 48 39 26 23 23 17 17 18 17 13 31 34 31 28 33 44 53 56 63 70 81 104 123 136 145 152 156 162 165 168 170 178 183 185 185 187 186 185 184 182 182 186 183 186 189 187 183 188 193 197 200 201 204 205 205 205 205 207 207 204 201 202 198 194 192 190 189 183 180 180 179 178 178 178 178 176 175 170 166 162 164 162 155 149 140 132 126 113 101 93 79 62 50 40 26 18 21 20 17 17 17 20 29 31 31 26 33 36 46 52 61 68 86 112 126 137 146 152 155 160 161 164 168 174 176 177 176 176 175 172 168 169 166 173 167 173 178 179 179 180 181 183 191 193 196 201 202 203 200 202 199 196 196 197 189 187 188 183 182 179 174 172 170 177 173 175 176 171 168 167 165 161 160 159 159 153 144 135 128 117 103 90 83 67 51 40 31 22 19 20 17 19 19 18 34 35 32 25 25 34 45 51 59 67 90 116 126 137 147 151 152 154 155 156 158 157 157 159 160 160 159 158 154 150 144 153 152 162 163 170 168 172 174 174 178 183 187 190 192 191 193 194 188 190 182 188 178 181 176 173 169 166 162 164 162 158 161 162 163 159 162 159 156 156 157 156 155 152 146 139 128 118 107 93 83 70 55 41 34 25 19 19 16 20 17 14 31 34 31 25 25 34 45 50 56 70 92 114 126 137 140 142 140 135 137 139 138 138 140 143 143 142 142 142 140 141 134 135 145 154 156 163 166 170 170 166 167 171 177 176 181 181 180 177 174 178 176 173 174 162 158 159 156 148 147 141 147 147 150 150 146 143 141 143 150 148 152 151 151 152 148 139 132 121 110 99 85 74 58 44 28 23 18 22 29 29 24 14 34 30 31 21 23 33 44 52 59 70 97 113 125 131 131 124 123 123 121 119 119 119 119 125 126 125 128 129 128 128 125 127 141 145 152 158 159 163 167 166 165 163 166 167 164 166 168 165 161 160 158 152 145 141 137 146 139 140 135 134 127 127 129 131 130 133 127 131 134 130 133 141 141 147 147 137 130 123 110 99 87 74 62 48 35 27 21 24 28 26 30 34 36 33 34 20 24 35 46 52 59 71 91 110 115 117 113 113 110 104 101 97 100 104 111 120 123 124 126 127 126 131 129 132 144 145 150 155 156 157 160 163 162 164 163 162 159 156 155 153 147 148 143 140 132 127 133 130 123 121 117 115 116 112 109 113 114 113 116 120 117 122 124 125 133 140 145 140 127 120 109 98 86 73 67 54 38 31 31 27 28 30 38 42 34 40 42 26 24 36 44 47 55 70 89 100 105 110 102 98 95 96 96 98 93 96 104 110 116 120 125 130 131 132 136 140 145 145 148 151 150 151 151 153 156 157 160 160 157 151 148 143 144 139 136 128 120 118 121 119 115 111 106 101 99 102 102 103 108 107 111 112 115 114 116 123 131 134 142 142 129 121 110 97 86 74 68 50 35 28 33 32 32 37 38 42 37 47 45 36 29 38 42 46 59 70 85 93 95 94 96 93 90 90 94 99 99 103 105 116 118 127 131 129 127 125 124 128 131 136 137 140 142 143 143 146 149 150 151 150 152 146 143 139 137 138 132 123 119 118 118 118 112 108 102 99 99 98 96 98 98 106 107 113 113 116 117 126 134 137 139 143 135 126 113 98 87 80 70 54 38 25 30 31 36 34 40 44 50 45 48 42 29 35 44 47 55 67 92 91 101 99 96 91 94 102 103 100 103 105 111 115 114 117 114 110 102 97 94 96 103 106 118 123 131 136 137 142 147 148 147 144 141 140 133 137 134 126 120 117 112 118 116 114 109 105 104 115 100 105 103 110 109 105 111 111 118 121 124 130 130 136 140 142 138 129 117 101 88 79 71 57 38 29 30 30 37 42 47 48 55 40 42 43 33 38 43 48 54 71 91 97 96 101 105 106 97 97 93 96 94 97 108 107 101 96 80 76 79 80 83 86 98 112 113 115 125 127 131 137 143 148 148 154 145 142 138 131 124 118 117 110 108 103 96 92 105 93 95 98 107 104 100 107 108 113 114 116 122 125 124 128 134 139 141 142 139 129 119 109 92 82 73 58 45 36 31 41 41 38 51 53 59 41 38 41 39 43 46 52 60 78 92 95 98 108 108 102 100 96 95 96 90 84 90 81 74 73 62 69 76 91 94 90 89 96 107 115 121 126 130 141 144 147 148 152 150 143 137 134 120 114 111 116 113 100 95 107 100 92 91 88 81 84 87 82 90 98 98 106 114 118 124 127 132 139 143 145 141 131 121 111 96 85 75 62 52 39 35 46 40 42 52 51 73 53 52 54 42 48 50 53 64 84 103 110 109 108 106 107 102 98 94 91 87 77 84 76 74 89 86 73 72 84 96 101 104 116 111 114 120 127 134 144 149 152 151 151 148 145 145 145 126 119 113 105 97 97 101 104 115 97 89 94 97 84 93 94 89 95 96 103 111 116 121 128 133 133 141 142 143 135 127 116 103 90 79 70 54 43 46 48 53 50 56 58 83 74 63 65 55 57 56 58 75 93 110 114 116 112 115 117 109 101 92 83 72 83 97 98 102 102 104 104 97 122 116 110 117 130 131 120 123 133 141 144 152 161 163 160 156 149 145 143 133 129 121 114 116 102 112 117 103 102 103 111 106 94 87 91 106 99 96 104 103 111 121 129 131 133 142 144 142 138 129 119 107 97 83 72 58 54 52 54 63 67 74 82 84 83 68 72 67 65 63 65 84 103 115 123 121 122 121 119 110 98 91 91 97 112 116 105 110 111 113 116 110 127 125 123 121 131 140 146 145 148 150 156 162 168 172 167 161 157 152 148 143 139 138 143 144 137 115 105 114 121 130 135 119 107 108 115 121 117 112 114 117 119 120 134 136 135 141 146 146 139 135 124 113 100 91 76 60 58 63 61 73 104 101 102 92 82 67 82 74 79 72 72 92 110 123 128 128 127 122 114 108 107 114 113 124 123 130 117 120 126 137 128 129 132 136 138 141 146 151 151 147 146 152 158 167 174 177 173 170 164 159 156 146 140 144 149 151 153 148 140 141 148 141 133 134 132 134 137 146 146 139 136 135 130 131 137 143 148 147 148 150 139 134 127 122 108 98 80 66 63 73 88 103 110 120 127 101 92 73 79 77 89 87 80 100 114 123 129 132 131 121 117 123 133 136 129 136 137 130 129 128 138 139 133 131 136 147 142 143 155 149 152 154 155 154 159 166 172 177 176 170 166 162 157 154 152 154 158 158 155 149 149 151 150 155 152 150 151 147 151 152 154 159 155 154 152 150 152 154 156 159 156 151 143 136 131 123 111 99 91 79 79 85 89 94 115 126 134 93 108 81 87 83 92 91 85 107 119 129 137 138 131 129 131 138 142 141 142 150 150 148 146 152 154 154 145 142 144 148 151 153 160 162 158 157 165 167 163 167 172 175 175 170 168 163 162 157 157 160 163 162 160 161 163 157 157 160 160 162 160 158 161 158 160 164 167 166 164 168 170 168 165 166 164 158 153 144 132 126 114 104 103 90 82 93 102 101 126 128 127 89 110 94 100 97 104 94 96 111 125 136 142 140 141 138 142 143 142 144 149 153 155 156 156 159 159 160 157 156 163 167 169 164 166 169 171 170 168 170 170 171 172 176 176 171 165 161 159 158 160 164 169 170 170 169 168 166 165 165 163 162 160 159 160 164 166 169 170 170 171 172 173 172 171 169 166 162 159 151 138 126 115 105 99 93 97 102 100 121 118 112 109 83 106 98 102 105 110 97 95 116 128 139 145 147 146 146 146 153 152 151 155 158 159 158 164 167 163 163 165 168 176 177 174 172 173 177 176 173 171 167 171 173 174 178 178 176 171 167 164 162 165 169 172 175 176 175 177 176 173 174 172 172 168 167 168 168 169 170 171 170 171 174 174 172 170 170 170 166 162 156 143 130 114 111 112 109 108 110 113 132 137 123 107 73 106 99 91 104 112 101 102 117 128 140 145 148 148 150 153 160 162 163 165 168 167 167 171 172 172 170 172 173 176 176 179 178 176 177 174 175 173 176 176 174 173 176 178 177 174 171 167 166 169 174 177 178 180 184 183 181 184 185 183 181 179 180 181 179 180 179 179 176 177 176 176 173 173 173 171 167 164 158 146 137 120 110 123 118 115 122 129 140 149 154 131 68 106 105 93 96 109 100 106 118 130 141 146 149 151 154 159 161 165 168 173 175 175 175 175 178 177 176 176 177 177 181 181 179 178 177 177 179 178 180 178 177 177 179 179 178 173 171 170 167 170 175 178 179 181 185 184 186 186 187 191 189 188 189 190 188 188 187 185 182 183 181 179 176 174 174 170 168 164 159 149 140 125 107 124 123 118 122 140 148 146 154 121 71 102 109 97 96 109 96 108 122 132 141 147 149 155 157 162 163 166 171 178 179 179 179 182 182 180 179 177 178 183 185 184 180 179 179 180 180 179 178 179 178 179 182 183 181 177 174 170 170 170 173 179 179 181 187 187 190 188 188 189 190 189 193 193 193 191 189 187 187 185 182 181 178 175 174 170 168 163 161 149 140 126 110 123 125 122 114 138 143 139 147 113 81 97 104 104 103 113 99 109 124 132 141 148 151 156 158 161 162 169 174 177 181 184 185 185 182 181 181 182 186 187 187 185 183 182 181 182 181 179 179 179 180 181 183 185 182 178 174 172 171 171 173 175 178 179 184 189 191 190 191 191 191 192 195 194 194 192 191 190 187 185 183 181 179 177 174 170 168 164 161 151 142 130 121 123 124 122 119 139 141 145 141 116 86 90 100 105 110 114 103 113 124 131 142 149 153 157 157 160 165 172 178 180 183 185 188 188 185 184 183 185 189 188 187 185 184 183 182 183 182 179 180 180 180 182 183 184 183 179 176 173 172 172 171 174 177 179 183 187 189 191 191 192 193 195 195 196 197 194 192 190 187 186 185 182 180 176 172 170 166 164 160 153 141 133 129 122 121 126 129 142 145 144 134 109 84 84 98 104 110 115 108 117 124 129 142 149 152 155 156 160 169 173 177 179 183 187 189 189 189 186 185 187 189 188 186 186 184 181 182 182 180 178 179 180 179 182 183 184 184 181 179 174 171 170 171 175 178 178 183 186 189 190 191 193 194 194 195 197 196 194 192 190 186 186 184 182 180 175 171 169 165 163 159 153 142 135 124 130 129 129 135 145 151 155 126 111 78 79 102 104 122 118 109 116 121 128 139 148 152 152 155 161 169 172 178 180 185 189 189 189 190 186 186 188 189 187 187 185 181 179 180 181 177 174 172 176 178 181 183 185 184 181 179 176 172 170 168 172 178 179 181 185 188 189 191 193 195 197 197 197 196 195 192 190 188 186 184 183 179 176 173 170 164 161 157 151 141 134 125 131 133 132 141 161 159 158 124 114 80 77 101 97 123 122 107 114 121 128 139 146 150 153 155 161 168 172 176 180 185 189 189 189 189 186 188 188 187 185 185 179 177 177 178 178 173 172 171 175 177 178 183 184 184 183 181 179 174 170 168 170 174 177 179 183 186 189 187 188 193 194 196 196 196 194 191 190 188 186 185 183 178 177 174 169 164 159 156 149 142 129 125 130 130 141 145 167 164 159 129 120 78 79 94 95 120 123 108 109 119 126 137 145 149 150 153 161 166 169 176 180 184 186 190 188 185 186 186 189 188 186 186 178 176 179 179 176 172 170 172 175 177 179 182 184 184 183 181 179 176 172 169 169 169 172 176 179 184 187 188 188 190 191 194 196 193 192 190 188 187 185 182 181 177 175 172 167 163 156 153 144 137 125 130 130 137 140 149 167 169 156 138 125 83 81 85 95 114 124 111 109 113 124 135 143 147 150 152 158 163 168 174 180 182 185 189 187 185 186 188 191 190 190 186 177 176 179 177 175 172 167 171 175 177 180 184 186 183 181 181 180 179 176 174 172 170 169 173 173 181 183 184 186 189 190 193 192 190 190 190 187 187 184 180 179 176 173 170 165 161 154 151 143 135 125 131 128 134 138 145 166 171 152 136 118 94 82 79 90 110 125 112 104 112 119 134 141 143 147 154 157 162 166 173 177 181 185 187 187 186 185 188 191 190 185 183 178 175 178 176 175 173 167 172 176 177 182 185 188 183 180 182 181 180 177 178 179 173 165 168 170 176 181 184 186 184 189 188 188 188 188 187 185 183 181 179 177 174 171 168 163 160 152 148 140 133 129 131 126 130 134 148 170 169 148 134 107 86 76 71 94 105 125 110 103 109 120 130 138 140 146 153 156 160 165 171 174 178 181 184 184 183 183 184 189 188 185 180 175 174 177 177 174 170 163 165 171 174 180 184 185 180 179 180 176 178 178 179 179 175 166 157 169 176 174 179 182 184 184 184 186 188 186 185 184 182 180 177 175 172 171 167 161 154 151 144 139 134 128 126 124 129 135 147 167 161 140 127 105 78 74 77 100 98 116 111 107 109 118 126 135 140 144 151 154 158 163 167 171 173 177 180 179 181 181 182 182 185 182 176 171 168 171 172 171 163 158 163 167 169 174 178 179 177 178 175 169 171 173 173 172 171 162 156 165 174 174 176 179 182 183 182 184 185 185 184 184 181 179 175 174 171 169 166 160 155 147 143 137 133 130 119 120 131 133 150 166 150 134 114 104 78 83 84 102 96 112 107 109 106 113 121 131 138 140 147 152 157 161 163 165 169 174 176 173 173 174 170 174 176 175 173 167 162 163 159 154 138 127 135 151 159 164 172 173 175 177 171 164 162 164 160 164 165 164 159 163 172 169 172 176 180 182 181 179 179 180 181 182 180 176 173 173 171 165 162 157 152 146 142 133 135 125 115 119 137 136 152 151 133 116 107 95 76 84 83 110 99 106 107 107 100 109 119 129 137 140 144 147 153 159 160 162 164 169 169 167 168 171 169 163 166 166 166 163 164 157 151 149 137 134 133 137 145 152 157 163 165 165 159 150 139 138 145 154 160 163 160 160 170 170 165 171 176 180 181 178 174 176 179 177 177 174 173 170 168 165 161 158 152 149 140 132 134 127 117 122 138 144 149 146 127 113 101 73 77 79 87 108 106 102 102 94 100 106 113 125 135 139 141 141 149 156 158 159 161 163 164 163 158 156 159 155 147 150 157 158 159 158 158 154 151 149 149 149 144 145 152 157 154 152 144 135 136 139 140 146 155 154 153 153 166 170 170 172 173 178 178 178 174 169 171 174 175 173 172 170 167 165 160 154 152 149 140 133 132 129 120 115 129 134 139 141 124 112 93 50 77 77 88 99 112 96 99 89 90 109 111 123 133 137 141 141 146 152 156 157 159 161 160 155 155 154 160 158 148 146 152 151 151 153 161 158 150 150 143 137 141 141 143 148 144 135 136 140 141 137 140 139 140 145 150 156 170 172 170 169 173 174 175 178 175 169 168 167 172 173 171 168 166 165 158 153 150 143 131 135 130 130 116 106 121 130 135 138 117 101 78 48 78 77 82 87 106 84 83 92 92 99 110 121 131 135 139 144 144 148 153 155 157 155 151 153 160 161 159 158 157 158 157 151 155 159 158 154 147 137 132 134 131 126 131 136 136 137 138 137 136 132 136 144 145 150 154 163 171 172 173 170 171 171 173 173 172 170 167 168 164 168 171 169 167 164 154 152 148 143 130 134 129 129 114 105 122 126 132 126 106 90 61 46 76 75 83 89 91 74 70 91 90 98 107 117 128 134 139 141 143 144 148 153 155 156 154 158 158 154 152 155 151 159 161 158 155 158 150 142 134 121 117 120 127 125 125 127 135 142 142 131 125 124 142 148 153 152 159 161 162 166 168 169 168 166 168 171 174 164 162 164 162 165 168 170 165 163 155 152 147 144 131 128 125 124 109 111 122 131 129 120 105 76 58 49 75 77 78 85 90 77 70 87 87 95 104 117 125 132 137 139 142 142 146 152 154 156 155 152 152 148 149 152 149 151 156 147 147 142 136 132 125 121 111 112 117 125 126 120 135 135 132 126 125 130 131 136 140 151 152 150 158 162 164 165 165 164 165 166 170 166 162 155 157 160 166 168 164 161 152 149 146 139 128 124 126 117 107 110 118 131 123 115 95 55 52 49 76 77 82 72 70 75 68 81 80 92 108 113 122 128 132 132 135 138 145 148 151 155 151 148 144 141 143 140 141 138 139 145 141 135 121 122 119 112 109 106 115 118 119 135 132 126 129 129 135 131 125 124 127 135 144 147 151 158 158 167 165 166 162 162 166 161 160 156 150 157 165 167 162 161 148 143 143 137 130 124 121 118 103 98 114 117 114 110 78 49 47 50 77 75 75 67 62 66 70 71 78 87 100 107 116 125 127 126 131 136 142 147 150 152 145 139 136 137 137 136 135 131 132 135 140 132 118 110 110 106 109 109 108 112 123 135 144 147 137 139 137 136 131 120 120 124 138 145 151 155 158 161 162 162 158 156 160 160 159 158 145 155 163 168 163 155 146 142 135 140 131 122 119 114 93 86 96 104 109 86 55 45 41 47 77 75 73 73 67 57 64 59 72 84 91 104 111 120 123 124 128 133 140 144 145 145 141 132 128 139 137 130 123 127 135 132 136 130 122 114 113 117 120 112 119 129 130 145 158 159 155 149 142 140 131 128 129 129 134 141 146 153 154 157 161 159 159 151 154 160 160 154 151 155 157 166 163 152 139 139 130 134 124 117 115 105 86 75 81 84 79 53 48 37 40 47 77 79 75 74 68 51 52 43 61 79 89 101 105 114 113 122 123 130 135 139 141 137 135 131 137 135 134 125 123 133 129 133 134 133 126 124 122 115 112 119 133 136 141 144 151 156 154 145 140 134 132 130 129 129 130 135 140 145 148 150 151 155 158 154 153 156 162 159 156 153 152 161 158 150 134 133 129 128 120 109 99 93 79 68 58 52 45 45 36 36 36 33 82 77 74 74 72 59 47 38 53 73 84 95 97 103 106 114 121 127 133 134 140 132 135 132 127 128 125 121 124 122 123 119 120 123 118 126 125 123 118 121 128 134 135 131 126 136 147 140 136 136 127 128 130 125 128 139 135 140 143 145 153 144 146 148 150 151 158 157 156 154 153 161 157 149 135 126 123 117 117 103 85 75 61 48 37 34 36 34 29 24 22 26 83 77 75 76 72 62 49 39 46 57 75 87 94 93 100 110 116 126 129 137 140 139 137 139 132 132 126 121 126 123 114 103 102 110 115 122 116 122 123 120 125 132 133 128 127 129 134 137 131 138 132 130 136 130 136 137 129 137 143 136 146 142 140 145 149 152 153 154 158 152 155 159 156 143 131 127 121 121 116 98 82 62 45 36 31 31 32 36 35 18 27 32 82 77 75 75 76 64 46 43 41 48 65 81 85 92 97 104 111 121 130 139 145 147 145 142 144 137 129 129 131 126 119 106 104 105 106 117 112 119 132 125 129 132 133 140 142 140 136 144 143 139 139 138 136 128 140 136 130 137 132 136 126 128 136 147 149 152 159 162 156 153 149 152 146 134 126 123 117 115 113 95 76 55 45 35 31 34 37 37 40 19 28 34 80 76 75 77 75 65 45 47 40 40 59 72 82 84 93 101 109 110 121 128 135 142 147 143 141 135 129 131 131 126 122 123 120 119 122 127 133 127 137 144 142 145 149 156 160 144 150 151 147 149 145 149 142 144 147 139 142 140 125 127 123 125 131 135 142 152 161 163 161 157 152 143 133 127 120 118 113 109 105 89 71 54 44 35 31 31 36 42 45 26 32 44 81 78 77 76 74 59 40 47 38 37 49 68 72 82 90 96 99 102 113 122 130 139 140 136 140 131 128 130 128 123 119 117 123 122 129 125 131 129 121 130 141 153 160 160 166 156 151 148 153 151 151 155 152 148 153 146 134 132 123 128 126 121 123 124 137 153 157 162 160 157 149 142 134 123 114 111 107 113 99 82 65 53 43 37 30 32 36 42 48 25 36 46 80 80 78 78 76 46 40 45 42 41 43 60 67 80 81 87 88 96 107 118 123 126 128 131 131 127 130 124 123 120 126 122 122 116 130 139 145 144 128 133 142 146 157 156 156 155 153 154 154 149 140 147 136 133 138 141 143 135 131 129 131 128 128 134 142 154 154 158 159 146 135 135 126 113 105 102 109 102 94 72 58 51 44 37 34 36 39 48 53 32 45 59 82 80 78 77 69 49 42 54 43 44 42 51 63 72 75 78 81 95 97 115 120 125 118 125 121 122 128 131 129 124 121 115 113 113 120 126 133 137 133 140 145 140 144 144 153 151 146 153 151 153 142 134 130 129 130 134 139 138 137 136 142 138 144 145 148 150 154 159 162 145 132 130 120 109 100 99 103 98 80 67 56 48 42 39 38 41 41 48 58 43 54 69 83 79 80 77 59 62 52 56 44 43 39 48 58 64 70 75 79 84 93 103 111 114 114 116 114 127 138 145 140 138 134 133 129 125 127 131 135 135 138 140 134 128 141 146 138 135 134 136 146 152 156 143 137 137 136 142 140 138 140 141 139 148 151 149 145 142 153 151 154 142 128 121 113 103 100 96 93 87 68 58 47 47 40 36 44 45 48 55 60 49 66 77 87 82 74 69 53 68 62 58 44 46 42 44 52 59 63 66 71 77 89 100 98 111 113 117 120 133 147 151 145 142 142 138 135 131 132 134 133 134 137 143 144 145 148 150 146 147 157 154 153 154 151 155 152 150 147 151 152 154 153 153 149 155 157 146 150 150 148 151 146 138 123 116 101 100 91 96 90 79 57 51 51 47 43 39 46 47 57 58 63 52 70 80 79 75 82 76 79 76 66 57 44 37 43 41 45 54 53 56 67 77 86 95 102 100 108 117 121 131 140 147 147 147 144 146 143 141 140 132 130 132 136 147 147 151 151 153 156 158 161 164 164 163 160 161 160 161 157 157 154 156 154 163 163 160 153 149 153 151 147 145 139 134 115 110 100 92 92 83 88 75 56 50 49 50 50 45 44 50 62 75 68 61 71 74 83 79 84 85 79 75 73 61 45 41 43 43 43 47 55 61 74 73 87 93 97 98 108 119 123 136 147 156 161 158 155 158 155 153 149 147 145 140 140 143 142 145 147 153 158 163 164 166 168 172 173 167 160 163 167 167 161 161 160 162 165 163 158 152 153 145 139 131 132 123 113 92 97 89 89 81 82 64 56 52 51 53 55 50 55 63 63 71 70 62 73 83 79 73 78 78 88 76 76 65 46 38 48 49 42 49 54 65 68 78 89 94 93 94 106 120 131 143 154 159 163 164 162 165 168 166 163 162 159 159 156 151 152 149 153 158 163 168 172 172 174 174 173 170 165 168 168 170 172 170 165 161 168 169 160 153 148 142 130 119 118 112 93 93 94 83 78 76 71 58 53 53 56 65 57 59 74 66 70 79 65 65 76 83 74 70 71 73 78 75 75 68 45 41 54 55 49 50 53 60 65 70 81 88 89 97 107 119 130 146 155 165 171 172 167 171 173 172 170 167 164 162 163 158 156 153 154 157 159 164 170 173 172 171 172 171 172 169 167 171 175 174 167 166 157 166 168 154 146 134 128 121 110 100 87 81 83 72 69 76 64 53 51 57 60 63 65 63 67 72 70 79 61 67 74 76 63 71 69 73 80 80 75 74 58 41 58 61 52 45 50 56 63 69 73 78 86 92 102 117 125 143 157 165 170 169 168 170 171 171 170 168 166 165 163 163 162 155 158 158 161 162 165 164 166 165 166 171 172 170 171 168 173 176 171 166 165 158 158 158 146 129 121 115 97 87 79 77 70 72 72 69 62 54 53 67 66 73 65 70 70 70 72 77 60 65 73 77 61 74 79 73 80 80 77 80 70 47 58 65 62 48 47 52 61 61 65 73 86 97 102 109 123 138 148 160 166 171 174 172 172 171 170 170 168 168 165 165 162 159 160 159 162 158 159 165 164 165 166 168 172 174 173 169 169 174 170 170 168 164 156 146 137 122 112 107 89 82 75 65 58 63 64 61 58 57 66 78 75 86 70 72 85 82 80 79 66 77 84 86 66 78 90 87 85 83 84 71 65 46 66 71 64 59 43 51 55 54 60 73 83 91 95 106 114 128 142 149 160 171 175 173 175 172 172 172 171 171 169 169 169 167 160 162 163 160 160 167 164 165 168 167 169 177 174 171 172 170 169 169 158 158 151 142 125 119 108 98 80 79 74 58 56 64 62 56 64 58 75 89 93 88 82 72 84 87 84 76 66 75 82 92 79 83 89 91 95 98 92 86 72 56 70 67 68 63 49 43 46 51 55 65 77 83 90 101 107 118 131 143 157 163 170 174 179 177 176 176 174 177 178 176 177 168 168 168 170 166 163 165 165 168 169 171 173 174 177 173 172 169 163 163 154 147 139 133 120 106 93 86 72 64 62 58 56 62 58 58 65 72 85 96 98 93 83 89 86 84 88 75 68 86 80 91 81 90 94 98 95 98 94 84 62 74 73 75 77 69 55 42 43 44 48 57 65 76 78 86 95 105 115 135 153 156 168 175 178 180 181 177 178 175 175 176 178 173 174 171 166 167 171 172 174 178 171 176 179 174 174 171 171 167 160 151 141 137 129 121 111 89 80 68 58 58 61 51 55 55 54 65 68 80 98 102 97 92 89 99 94 89 86 72 73 81 80 94 83 89 98 101 99 99 89 70 63 80 79 73 77 76 65 54 48 45 46 50 60 65 70 76 87 93 109 123 137 150 161 171 177 180 181 182 177 175 177 173 177 175 179 178 178 180 177 178 181 183 180 175 178 175 172 173 168 161 156 143 137 128 119 108 96 79 67 55 48 51 56 51 51 57 57 72 81 87 103 110 104 107 99 111 105 87 86 66 75 77 93 95 90 97 99 101 101 88 79 68 71 83 82 76 75 80 79 64 49 46 45 44 51 61 67 71 80 88 98 110 125 137 147 159 177 178 181 182 177 179 179 173 182 180 178 182 180 178 176 176 177 175 183 182 176 172 165 164 162 158 148 134 127 121 107 97 85 68 57 53 45 44 52 50 56 64 71 81 90 96 118 115 108 107 99 109 119 103 89 74 83 96 95 97 91 95 99 102 85 79 75 68 82 86 83 72 87 89 86 75 63 59 50 42 49 56 63 68 75 84 90 99 112 124 136 151 163 173 175 177 178 180 175 178 182 176 178 180 180 176 177 181 178 175 171 171 172 170 166 159 155 150 141 129 120 109 101 90 69 61 50 51 43 45 46 54 67 80 92 93 101 97 115 114 110 102 97 96 116 118 89 84 87 90 101 97 96 98 98 87 79 77 72 66 84 86 87 82 83 97 87 90 80 68 61 51 41 48 59 65 71 75 86 94 105 109 123 137 150 166 170 172 175 177 176 177 177 175 181 175 178 172 176 173 172 167 165 160 161 155 155 151 141 143 129 122 110 99 84 80 61 52 44 40 48 48 52 65 82 93 104 97 104 97 105 104 103 105 107 97 97 119 93 90 89 89 97 103 100 98 82 81 83 80 75 82 86 88 90 89 98 99 90 94 89 82 73 63 46 44 53 60 66 66 80 95 94 102 114 125 138 151 160 167 169 170 178 177 174 174 168 168 164 168 161 159 162 155 149 149 152 145 139 135 135 128 121 107 99 93 75 67 54 44 37 38 46 45 61 79 99 108 112 102 103 99 110 117 115 113 110 100 89 91 91 97 92 90 97 103 95 81 78 79 81 78 72 88 85 88 89 94 100 99 98 95 92 88 80 72 58 45 44 54 60 64 78 87 88 92 95 113 126 133 142 155 156 158 165 167 162 163 161 156 157 149 149 158 151 143 138 142 139 135 130 123 122 111 106 98 84 80 68 52 42 37 34 39 49 59 78 96 106 114 114 100 97 106 109 116 116 115 113 104 92 74 84 98 94 91 96 101 78 81 77 76 78 74 77 88 86 88 87 101 105 95 98 93 90 87 89 79 72 59 45 53 57 58 69 75 82 84 89 110 115 117 129 139 142 147 150 148 148 150 146 143 142 143 136 137 138 131 131 125 127 123 109 106 105 93 89 84 76 64 52 41 34 31 37 44 58 71 90 106 118 121 119 101 103 111 110 115 119 116 112 106 88 71 78 93 97 94 101 105 75 76 75 74 76 72 91 90 87 88 92 106 105 88 93 88 85 83 92 90 76 67 51 45 52 57 56 63 71 78 88 94 103 108 111 117 129 130 135 131 138 137 135 129 129 135 133 128 126 120 117 115 111 108 96 95 86 80 66 67 61 53 40 35 33 35 44 54 68 86 105 118 136 126 118 111 121 114 115 113 122 118 112 109 83 74 82 79 96 94 108 113 71 77 76 73 75 79 92 92 92 99 106 106 97 89 85 87 84 85 92 96 84 66 56 50 48 50 46 55 62 71 79 86 94 99 99 108 107 115 125 118 123 118 116 116 119 120 110 112 115 111 102 102 106 95 86 82 70 68 60 54 46 43 35 30 34 43 57 70 82 95 118 119 133 132 125 127 129 121 120 116 122 120 116 104 90 78 83 81 81 97 102 106 69 74 75 72 75 94 103 104 107 107 107 105 90 88 85 87 87 82 82 90 93 76 66 51 50 47 45 47 51 63 69 79 78 77 86 91 93 97 101 105 108 109 101 98 107 112 104 97 99 97 89 94 96 86 72 73 61 56 55 50 40 35 34 37 40 58 66 88 98 105 112 124 137 139 130 132 122 116 125 120 124 121 116 102 92 85 84 80 78 86 99 103 69 73 76 81 89 117 116 110 107 108 107 105 88 87 95 82 84 64 80 78 92 82 74 55 51 46 45 47 48 52 55 62 63 70 74 78 78 87 86 87 96 98 93 91 97 97 95 85 90 84 74 76 76 74 64 63 53 54 47 39 33 27 33 45 51 69 83 91 99 106 117 130 137 148 128 130 120 119 125 121 120 125 113 107 96 93 88 80 76 78 95 111 74 84 97 102 102 121 115 112 111 107 107 102 86 86 94 95 68 62 74 77 87 82 78 62 55 49 52 44 41 43 48 52 50 61 65 60 61 69 71 71 83 86 86 88 88 87 84 80 69 69 71 64 66 58 52 50 44 42 33 32 26 31 36 49 62 74 90 91 101 116 130 132 141 147 127 130 118 125 122 119 119 114 123 114 99 101 85 85 82 82 93 119 97 105 101 105 104 118 115 110 105 105 106 105 84 87 90 79 70 63 68 76 84 85 80 75 60 58 52 44 38 40 42 44 42 44 54 51 52 53 58 64 71 67 70 72 69 72 70 66 64 55 59 57 49 49 41 37 38 34 26 28 28 36 39 59 73 84 88 98 108 124 133 133 145 141 121 124 126 128 120 116 114 109 122 123 106 104 84 86 96 100 102 108 106 105 101 106 109 118 115 108 103 107 107 101 87 83 73 73 79 65 62 78 84 86 85 87 68 65 58 46 43 42 38 40 37 35 39 43 44 44 49 52 54 54 63 61 56 59 62 54 50 47 48 49 42 41 34 29 34 28 24 27 32 35 56 65 80 84 97 103 113 129 139 121 143 138 112 114 122 131 123 114 105 108 116 115 119 106 90 83 89 102 105 104 108 107 109 110 115 114 110 106 104 106 107 102 84 67 71 71 76 83 62 74 85 86 88 89 86 73 61 57 48 44 41 33 32 30 31 31 35 34 40 42 40 42 51 50 47 44 49 48 44 37 33 37 37 28 25 24 29 25 22 32 35 46 66 71 82 91 101 112 121 128 132 122 139 123 100 104 125 127 120 110 112 116 114 108 113 102 98 92 88 97 102 107 113 109 109 112 121 112 107 105 105 106 107 92 68 68 70 71 74 81 77 73 79 85 84 91 87 89 77 65 55 52 47 37 33 28 25 31 30 29 33 34 32 32 37 37 37 35 35 35 34 29 27 28 25 23 24 26 27 25 32 42 47 53 72 84 94 105 113 119 122 135 134 115 119 120 107 102 112 120 112 111 112 116 117 113 114 99 94 93 93 94 100 104 110 110 108 111 119 111 106 106 106 104 95 78 67 68 69 71 73 82 78 83 75 84 81 88 89 93 91 76 68 60 54 51 41 31 28 29 26 27 28 27 29 29 26 27 24 23 25 27 22 27 25 25 25 26 27 32 29 35 39 47 57 69 85 96 104 109 114 120 130 128 110 112 117 126 113 104 103 109 109 110 112 113 115 116 115 102 96 87 86 93 98 101 111 111 110 115 116 110 107 105 105 91 86 75 66 69 70 72 74 85 83 82 80 76 80 86 89 93 93 91 83 70 64 61 56 45 35 28 27 25 24 23 24 21 25 26 21 21 22 24 22 26 26 23 27 28 30 34 37 46 46 61 72 83 93 99 105 111 122 134 119 107 100 117 124 126 117 100 93 98 110 110 113 113 110 119 105 102 97 86 83 90 89 95 115 115 118 118 117 110 107 104 89 82 83 74 68 70 71 73 72 84 87 79 83 77 71 69 84 92 94 95 87 84 77 72 68 57 49 42 38 33 30 28 27 27 27 25 26 28 23 25 27 31 30 28 31 32 36 45 49 55 60 75 84 94 99 110 118 126 124 116 111 103 118 122 125 129 119 92 93 96 108 110 112 114 108 113 96 97 93 80 86 94 91 93 