P2
# Generate pgm
92 112
255
74 70 64 65 63 60 63 63 66 72 69 63 66 68 75 76 74 78 76 81 87 87 89 90 91 91 90 93 93 93 92 95 98 97 98 98 104 104 103 104 107 111 112 112 112 115 115 112 113 110 107 110 106 105 103 102 101 100 98 99 96 93 91 89 84 81 77 77 79 77 69 70 70 69 66 60 58 60 55 55 59 51 53 60 62 61 63 65 66 70 72 74 72 65 60 63 57 61 60 65 68 71 66 68 71 77 79 79 79 80 83 89 92 94 95 99 96 95 97 96 96 97 99 97 97 98 100 103 108 111 111 115 117 119 119 119 120 123 123 121 121 121 117 117 116 115 113 111 112 111 110 107 104 102 101 100 95 88 83 83 84 79 76 74 72 70 66 62 59 58 57 54 59 56 51 54 58 60 62 65 66 68 70 69 63 63 60 56 57 59 60 65 68 66 67 71 76 78 79 80 80 85 93 97 99 103 103 105 103 101 101 100 103 104 105 105 107 106 107 112 117 121 120 123 127 129 131 128 129 130 128 129 131 131 127 127 128 127 124 126 125 123 119 118 117 114 111 108 105 100 97 91 88 84 80 80 78 76 70 65 61 57 58 57 56 55 51 48 52 57 59 60 66 64 68 68 61 60 54 56 60 59 60 65 66 66 70 75 80 79 81 82 88 96 99 102 107 108 109 109 105 110 110 112 114 111 114 117 116 117 119 125 129 130 134 135 135 138 142 140 139 138 136 136 138 137 138 139 140 139 136 137 138 137 133 131 129 126 122 119 113 108 103 97 93 89 86 85 82 77 72 68 64 60 57 58 56 57 50 46 43 51 57 58 61 66 67 67 58 55 56 58 59 59 62 66 66 69 76 80 80 82 85 88 97 100 104 110 109 112 113 113 117 120 122 121 122 126 127 129 128 129 129 134 138 138 141 145 148 150 152 151 149 148 146 148 147 147 148 148 149 149 148 149 148 146 144 142 140 136 130 128 123 118 111 106 99 96 91 90 85 80 76 67 70 61 59 54 54 55 53 50 46 46 52 56 60 64 65 66 58 57 58 58 58 58 65 65 69 75 79 80 82 87 90 95 102 106 110 113 116 116 121 125 127 132 132 131 134 137 138 137 139 142 145 147 151 152 151 155 159 158 162 163 163 159 160 158 160 158 158 158 159 159 158 158 158 156 153 150 148 143 138 135 134 127 122 116 109 101 99 93 91 85 81 74 68 68 61 56 52 51 55 53 48 43 47 53 59 62 66 64 59 56 55 55 57 63 66 68 72 76 79 83 85 87 93 98 105 112 115 117 122 126 130 133 139 139 137 140 144 145 147 147 149 153 156 159 161 165 164 166 167 169 169 170 168 168 167 168 169 169 167 165 167 165 165 163 163 160 160 156 153 150 146 142 137 136 132 126 119 110 103 100 96 91 85 81 70 66 65 56 52 51 52 52 52 45 43 46 54 61 63 65 59 58 57 60 60 64 65 66 72 77 82 84 85 92 97 105 112 117 118 125 129 133 138 142 145 147 146 149 151 152 154 155 159 162 166 169 168 172 173 176 176 176 176 176 173 174 175 174 175 175 175 174 173 172 171 170 167 166 163 159 157 155 151 148 145 142 140 135 128 118 111 106 100 93 92 86 79 68 64 61 55 52 51 52 51 50 44 44 49 57 64 67 61 54 55 57 60 63 64 67 74 81 82 86 94 96 102 109 117 121 129 133 137 140 145 149 150 151 152 154 158 160 161 164 166 170 172 174 177 179 181 181 181 181 180 179 180 179 180 181 181 180 181 180 178 177 176 174 174 171 168 163 160 160 157 154 151 147 143 141 136 127 117 110 105 96 92 88 83 74 66 66 59 54 52 50 51 52 47 47 49 55 63 66 56 60 56 56 57 64 61 68 75 77 81 87 98 101 109 115 121 129 133 139 143 146 150 154 156 157 159 161 163 166 167 171 175 178 179 181 182 185 184 186 185 185 183 185 184 184 184 184 185 185 185 184 182 180 178 178 178 175 172 168 164 162 160 158 156 151 148 146 140 133 124 115 108 101 96 88 82 77 71 66 62 55 53 53 50 51 48 45 46 47 57 62 57 62 56 55 58 58 62 69 74 77 82 92 99 105 113 120 126 130 139 144 149 151 155 160 159 160 162 165 168 171 173 177 178 183 183 185 188 188 188 189 187 187 189 189 189 188 188 188 188 188 187 186 185 184 182 181 180 177 174 172 168 165 163 161 158 155 152 148 144 140 130 120 114 106 99 93 85 77 71 68 64 57 54 54 53 51 48 45 45 47 51 56 58 54 54 55 60 58 62 68 74 80 85 95 103 109 118 121 127 136 144 148 152 155 158 161 161 162 166 169 172 175 178 181 183 184 187 189 190 191 192 191 188 192 193 191 191 192 191 191 191 190 189 187 188 187 186 184 181 179 176 175 171 167 166 163 160 160 156 150 146 143 135 129 120 111 102 95 89 80 72 67 67 61 54 51 53 53 50 48 47 45 49 53 53 50 52 53 58 56 64 71 78 83 90 100 107 118 122 126 135 142 146 149 152 156 160 162 164 166 169 173 177 179 182 185 187 189 189 192 192 192 191 190 194 194 194 194 193 194 194 194 194 192 191 191 190 189 188 187 183 180 177 174 172 169 167 165 162 160 157 154 149 143 138 131 127 119 108 99 92 85 75 69 66 62 55 50 50 49 51 49 46 44 49 51 56 51 54 53 54 58 65 71 78 84 93 103 115 119 125 130 137 142 146 151 154 157 161 164 166 169 173 178 178 181 185 187 189 191 193 193 194 193 191 193 194 195 195 194 195 196 196 195 195 193 192 191 191 190 188 187 185 182 179 176 174 171 168 166 164 160 158 155 153 147 141 134 127 123 115 104 97 90 83 71 65 62 57 50 48 47 49 48 46 46 46 50 57 53 51 52 52 56 64 72 78 85 97 108 117 122 128 134 140 145 150 155 158 162 163 164 166 171 176 179 181 184 187 189 190 192 193 193 193 193 195 196 195 196 195 194 194 196 196 196 195 193 193 193 192 190 188 188 186 184 181 177 175 172 169 166 164 162 159 155 153 149 143 138 130 125 118 108 98 92 84 76 68 63 60 53 45 46 47 48 46 45 44 46 58 57 50 52 50 55 65 75 80 88 100 112 119 123 130 136 142 148 151 157 161 164 165 168 171 175 179 182 184 187 189 191 193 195 196 195 194 196 198 197 197 197 197 194 197 196 196 196 195 194 193 193 192 191 189 189 187 185 182 179 176 174 171 168 165 163 161 158 154 151 147 140 133 125 119 111 102 94 86 78 72 65 61 56 47 47 46 48 44 45 43 46 59 54 50 49 51 58 68 78 82 93 103 113 121 125 131 138 145 150 152 159 162 163 165 168 172 178 181 183 186 189 191 193 193 194 194 195 196 197 197 197 197 197 194 197 198 198 197 196 195 194 193 192 192 191 191 189 188 186 184 181 177 175 173 170 168 165 162 159 155 151 148 141 134 127 120 112 105 96 87 78 72 67 62 57 52 46 45 46 46 43 42 44 57 52 48 46 51 60 69 78 84 96 105 118 122 124 132 140 147 149 152 158 162 163 165 168 172 176 180 184 186 187 191 193 195 193 194 197 197 197 196 195 196 194 196 197 198 198 197 197 196 195 193 193 192 191 191 190 188 187 185 183 180 178 174 172 168 166 163 159 155 151 147 142 136 129 122 114 106 98 89 81 73 67 62 58 53 48 45 45 47 42 40 42 57 51 46 46 50 61 72 78 86 98 110 118 122 127 134 141 147 149 152 157 161 161 164 167 171 175 178 181 184 186 188 192 191 194 196 196 197 197 197 197 197 195 197 196 197 196 197 196 196 195 195 193 192 191 191 189 187 186 185 184 181 178 175 172 169 166 163 161 155 152 147 143 138 130 123 116 107 98 90 81 75 70 65 59 53 47 45 44 46 44 38 40 55 51 46 45 51 62 70 77 86 98 111 119 122 129 133 141 146 149 153 157 160 160 163 167 170 173 175 177 182 186 186 189 191 193 193 195 197 197 198 198 197 199 198 197 196 196 195 195 196 196 195 194 192 191 190 188 187 185 184 183 181 178 175 172 169 166 162 160 156 151 147 143 137 131 122 116 108 98 90 83 77 69 65 60 54 47 47 45 43 43 37 40 57 50 48 46 51 63 70 77 88 100 109 117 122 128 135 141 147 150 154 159 160 160 163 168 170 173 175 178 184 186 187 190 192 194 194 195 197 196 197 196 197 198 198 198 197 196 196 196 195 194 193 193 192 190 188 187 186 185 183 181 180 178 175 171 169 166 162 160 157 152 148 143 137 130 122 114 106 101 92 84 78 69 66 62 58 50 47 46 44 42 37 39 56 50 46 46 49 64 69 78 89 101 108 118 122 130 139 144 148 151 156 159 159 161 163 168 170 173 175 179 182 185 187 190 193 193 194 196 197 196 196 196 196 197 196 195 194 195 194 195 195 193 192 191 191 189 188 186 185 182 181 180 178 176 175 172 168 165 161 159 156 152 147 144 138 132 123 116 108 99 93 84 76 71 66 62 59 51 49 46 44 43 36 40 52 48 46 43 53 63 71 79 90 101 109 116 124 133 141 146 148 150 156 159 159 162 165 168 171 173 176 178 181 184 186 188 190 191 192 195 195 195 196 196 195 194 194 193 194 194 193 194 194 192 192 191 190 190 188 186 184 184 181 178 176 175 173 171 167 163 160 157 154 151 147 143 138 132 125 117 108 102 94 86 78 71 66 62 58 54 49 44 41 44 37 38 48 47 45 43 53 64 70 78 87 98 108 117 125 134 141 146 148 151 155 158 159 162 167 168 170 173 175 178 180 182 183 184 185 187 190 192 192 192 194 194 194 193 193 192 191 192 192 192 191 191 191 191 189 189 187 186 184 183 180 178 175 173 172 171 167 163 160 157 154 150 147 142 138 132 126 118 108 100 93 85 78 71 64 60 57 55 50 44 40 44 37 36 49 48 47 45 54 64 71 79 87 100 108 117 125 133 139 143 147 151 157 160 161 162 167 168 170 172 174 176 178 179 180 181 183 183 186 188 190 191 191 191 191 192 193 192 191 191 191 191 191 190 190 191 189 187 186 185 182 181 179 176 174 171 170 168 167 163 160 157 152 149 145 141 136 131 127 120 111 101 92 85 76 69 65 58 57 54 50 45 39 42 37 38 50 47 49 46 57 66 72 81 91 100 109 118 124 133 140 145 148 152 157 160 162 164 167 170 171 172 173 174 176 176 176 178 180 181 181 184 186 188 189 190 190 191 191 191 191 191 192 190 190 189 189 189 189 187 185 183 181 180 177 174 172 171 169 167 165 162 158 154 150 146 143 140 136 130 126 119 112 102 93 85 77 68 64 57 56 54 49 43 37 40 38 39 52 48 49 48 59 67 74 83 91 100 108 117 125 133 139 144 148 153 159 159 163 165 169 171 171 172 172 173 174 174 174 176 177 179 180 183 184 186 187 188 189 190 191 191 192 192 191 190 189 189 188 187 186 184 183 181 180 178 176 173 173 172 169 166 164 161 157 152 150 146 142 139 134 128 124 117 111 104 94 85 78 70 64 59 56 51 48 39 39 42 40 39 51 48 50 48 57 66 74 83 92 100 109 119 125 131 138 143 149 154 157 159 163 166 169 171 171 171 172 173 173 174 175 175 176 178 178 179 181 183 185 186 188 189 190 191 191 191 190 190 188 187 186 185 185 183 182 180 179 177 175 173 172 170 168 165 163 159 156 151 146 145 142 138 134 128 122 117 112 106 99 89 79 72 66 61 56 51 46 40 41 44 41 39 51 49 50 50 60 67 76 86 93 102 109 120 127 134 140 144 147 156 159 161 163 167 169 171 172 172 172 173 173 174 174 175 175 176 178 178 178 181 183 184 186 188 189 190 190 190 189 188 186 184 184 183 183 181 180 180 177 175 175 172 169 168 166 162 161 158 155 152 149 147 143 141 136 130 124 119 116 110 103 92 84 76 68 63 57 52 46 41 42 45 42 41 53 54 56 53 60 70 79 89 94 104 113 120 126 135 141 144 150 155 156 158 161 165 165 168 169 171 172 173 174 173 171 172 173 174 173 177 178 179 182 183 185 187 188 188 188 188 187 186 185 183 181 180 180 179 179 177 175 173 171 169 169 169 167 164 162 160 158 157 153 149 145 141 136 131 127 122 119 114 107 97 87 79 72 66 59 52 47 42 40 41 38 39 54 56 58 61 64 71 82 91 99 109 115 120 127 135 139 143 149 153 154 156 160 162 164 168 167 168 169 170 172 174 172 171 173 173 173 175 177 179 182 182 183 185 187 187 187 187 186 185 184 181 179 177 175 175 175 172 170 168 166 166 166 165 164 163 159 157 154 154 152 150 146 143 137 132 128 124 122 118 113 104 93 83 75 68 60 53 48 43 40 35 35 36 56 54 58 60 62 75 85 94 104 109 113 119 130 137 139 139 145 150 152 155 157 158 161 163 167 169 170 168 170 170 171 173 174 174 174 175 174 175 178 180 181 183 184 186 186 186 185 184 181 177 175 173 171 170 168 165 165 163 160 159 160 158 157 159 156 153 151 149 149 147 142 141 137 133 132 128 126 121 118 110 99 88 80 73 61 54 51 44 41 36 33 35 57 54 54 59 62 74 85 93 102 108 113 122 131 136 138 138 145 148 149 153 155 154 158 160 161 163 165 165 168 168 168 171 171 173 175 174 173 174 175 175 177 178 181 182 183 182 182 181 176 172 169 167 165 164 163 160 159 156 154 154 154 153 153 149 152 146 145 142 143 139 138 138 136 135 132 129 127 123 119 114 104 93 85 76 65 55 51 46 39 37 34 35 59 52 53 59 61 70 83 93 102 107 116 124 133 135 137 137 142 144 145 149 151 150 155 158 155 156 157 158 159 161 160 162 164 168 172 174 173 172 173 171 172 174 176 178 177 176 176 175 171 167 164 163 161 159 159 155 152 151 148 149 148 146 144 144 143 143 141 137 137 136 131 128 127 128 128 127 127 125 121 116 109 98 85 75 68 60 52 48 39 38 37 37 61 53 52 57 60 69 81 94 101 107 115 125 131 132 133 132 138 137 139 142 143 144 144 144 142 145 147 147 148 150 151 156 158 160 163 165 163 164 164 163 163 165 168 170 170 169 168 168 165 161 156 157 154 153 151 148 145 142 140 140 140 139 138 139 137 134 131 130 132 131 129 126 120 120 120 121 123 123 121 116 109 103 93 80 71 64 53 49 40 40 38 41 62 51 51 56 61 70 81 94 101 107 114 125 127 129 129 129 130 130 131 133 134 132 132 131 132 136 134 137 139 142 142 143 149 152 153 158 157 156 156 156 156 156 158 158 161 161 161 158 156 153 148 146 145 142 138 136 133 131 131 129 133 134 131 130 124 117 115 120 121 120 123 122 119 119 116 114 114 116 117 113 107 103 92 82 77 64 56 50 45 44 43 45 60 52 52 56 63 71 83 96 103 108 118 122 126 130 127 124 126 124 124 124 124 122 120 121 120 119 121 125 128 129 133 133 136 138 143 149 151 152 152 150 149 151 151 152 151 153 154 149 145 142 135 131 131 132 130 127 124 121 119 120 118 118 117 119 120 113 109 112 112 111 111 112 113 113 116 114 114 113 113 110 106 100 96 84 76 66 58 53 48 45 47 52 60 58 56 58 63 70 85 98 105 112 118 123 125 127 125 124 122 118 116 116 116 118 116 117 117 116 115 114 113 120 125 129 133 134 138 143 144 145 147 146 145 149 150 149 149 144 143 141 136 132 128 125 122 120 122 120 115 110 111 113 113 112 108 110 107 101 100 103 104 108 110 107 108 112 114 112 111 111 111 110 105 98 95 88 77 68 62 55 48 49 49 52 59 66 59 62 64 72 85 97 104 113 119 125 126 126 122 122 121 120 119 118 118 117 114 109 112 112 113 114 116 121 123 126 127 129 133 137 135 139 139 140 141 146 148 148 147 142 140 137 133 127 124 122 116 116 115 115 113 109 107 109 108 111 109 109 111 109 110 109 106 107 109 111 113 115 116 113 113 113 111 108 106 100 95 86 82 66 61 58 52 49 51 51 67 64 66 64 66 74 86 95 103 112 120 125 122 122 122 123 123 120 123 121 122 123 122 121 121 123 121 116 118 119 121 124 124 127 128 129 133 135 137 137 141 141 142 143 143 141 137 135 133 129 123 118 117 117 116 119 119 114 106 108 111 112 111 111 114 113 107 107 108 110 111 117 121 121 122 122 118 115 111 108 105 101 95 88 81 70 61 57 55 50 53 54 69 66 70 64 69 78 89 97 105 112 122 125 125 123 124 125 123 123 125 123 124 122 124 125 121 121 123 123 120 116 116 117 121 123 126 129 132 136 138 141 144 145 144 144 142 140 136 136 132 125 120 119 117 119 120 121 123 123 114 115 111 116 116 120 121 118 113 113 116 118 121 125 124 128 126 128 125 123 118 115 108 102 97 92 85 74 66 62 58 55 56 56 75 66 67 70 75 83 91 101 105 113 123 127 126 129 128 126 125 124 122 122 120 117 116 112 109 112 113 115 118 119 119 117 122 128 129 130 133 135 135 140 144 147 147 149 145 142 140 137 132 127 122 120 118 118 117 119 123 120 120 118 119 122 121 128 127 126 125 117 119 121 125 125 129 131 130 129 128 124 121 117 111 107 100 94 87 78 72 69 64 57 63 59 77 69 68 74 78 89 97 106 110 118 127 130 131 132 132 126 125 122 120 119 118 116 115 110 106 110 108 114 119 126 126 123 125 127 131 135 135 135 135 140 145 148 149 148 145 143 139 136 130 124 120 120 120 119 120 123 123 118 118 116 112 113 115 119 121 125 124 126 126 121 123 125 127 129 130 131 128 124 121 119 115 111 105 97 91 83 78 75 69 61 68 67 82 74 73 78 83 93 98 107 112 121 132 136 138 136 135 129 125 123 126 126 120 116 117 112 111 115 120 118 120 127 128 126 127 134 132 133 133 133 134 138 143 144 145 144 143 141 139 137 129 124 121 120 121 125 120 118 128 124 121 123 125 123 126 123 121 119 118 120 121 123 122 125 129 133 134 134 134 128 125 120 118 114 111 103 94 84 86 78 75 68 70 75 86 77 78 85 89 94 103 108 113 123 133 136 137 138 137 130 128 128 127 123 118 120 124 126 124 128 127 128 124 131 130 128 132 136 136 137 135 135 136 140 144 148 147 148 147 142 140 138 135 130 125 124 131 128 122 124 124 126 132 133 132 129 126 125 126 124 123 123 120 121 128 131 133 135 138 139 139 134 127 123 118 115 109 103 93 87 85 81 79 75 74 78 85 81 84 88 95 99 102 107 115 128 136 140 140 140 137 130 130 128 127 127 129 128 129 128 135 137 133 136 132 133 132 132 131 136 140 141 138 138 143 143 144 146 147 148 147 149 146 145 143 136 132 137 137 133 130 128 133 135 138 144 141 135 132 131 130 130 131 127 128 132 131 135 137 138 138 139 139 136 131 125 121 113 108 100 92 89 87 84 83 83 79 86 91 85 87 98 103 103 107 111 118 131 138 141 141 143 139 134 135 134 132 132 135 137 139 137 141 139 139 137 138 133 133 133 137 144 145 144 140 139 141 148 152 152 152 153 151 153 156 152 145 143 143 141 139 140 143 144 147 149 147 148 149 147 143 143 144 143 138 137 136 134 135 137 140 143 144 144 144 141 136 129 123 116 109 99 93 88 89 95 93 86 86 93 96 90 88 98 109 107 113 114 123 136 141 143 144 147 142 138 139 143 140 138 141 144 142 143 144 144 144 141 142 140 142 139 141 149 148 145 146 145 147 153 156 156 156 158 157 158 159 155 149 150 146 143 138 141 141 144 145 150 153 151 151 151 148 149 149 148 147 144 146 144 143 145 145 148 149 149 146 143 141 135 127 117 111 106 97 93 94 96 96 94 90 96 95 101 95 104 111 109 115 118 128 139 145 148 148 149 149 148 151 154 149 148 153 153 151 151 153 155 153 147 146 145 145 146 148 151 153 151 150 153 158 157 161 164 164 158 160 165 162 157 153 151 148 144 144 147 152 153 153 153 155 156 156 155 154 156 156 154 154 154 154 151 152 153 153 153 154 154 152 148 146 140 133 125 113 107 100 95 97 100 99 101 93 95 94 103 103 109 117 120 118 123 131 142 149 152 154 153 155 156 157 157 154 156 158 158 157 155 157 158 157 155 157 159 159 157 155 158 164 162 157 157 160 161 165 168 165 165 165 165 162 160 156 153 152 150 154 154 157 159 160 160 161 163 163 161 161 161 162 162 163 165 162 159 158 159 158 158 158 157 153 152 149 141 134 126 117 108 100 100 101 100 106 101 93 92 94 105 109 114 121 122 122 125 136 144 150 153 157 157 160 163 163 163 159 160 159 160 161 162 164 164 165 165 167 168 166 163 163 165 167 165 164 161 161 165 168 170 167 168 168 166 164 162 159 160 158 157 158 160 161 162 164 165 167 169 169 169 170 168 168 170 170 169 167 164 163 163 162 161 160 159 157 155 151 145 137 128 122 115 109 104 103 107 110 105 97 95 93 108 110 115 122 124 124 128 136 147 151 155 158 157 160 162 165 167 167 167 165 164 166 170 171 173 172 174 172 171 171 170 171 169 169 168 166 164 165 166 170 170 167 169 169 168 166 163 161 161 161 161 163 167 168 168 167 169 173 174 175 175 177 175 175 175 172 171 168 168 167 166 164 165 164 162 160 158 153 147 141 130 120 120 110 106 107 111 110 108 106 105 99 110 113 119 123 124 125 129 136 146 151 156 158 159 163 163 163 167 170 172 173 173 174 175 177 177 178 178 176 176 175 176 174 173 172 171 170 169 169 170 171 171 168 169 171 168 166 164 163 161 161 163 166 169 171 173 172 174 177 179 179 180 182 181 179 179 177 175 172 172 171 170 166 167 166 164 162 157 152 147 141 131 118 119 112 108 108 114 110 109 109 102 104 113 115 119 124 122 124 132 139 146 150 155 159 163 166 166 166 168 171 174 176 177 178 180 181 181 180 178 178 178 178 179 175 173 172 171 168 168 167 167 169 170 169 170 171 170 167 165 164 162 164 164 166 170 173 175 175 177 179 180 181 183 185 185 182 180 179 178 175 173 171 171 169 167 166 164 161 157 153 145 138 130 119 118 112 109 111 119 110 112 109 101 103 113 116 120 125 125 125 131 140 145 150 156 160 164 166 167 167 172 175 177 179 180 181 183 182 182 181 181 182 180 179 178 177 175 173 173 171 169 170 169 168 168 169 171 170 168 166 166 163 164 165 165 165 167 171 176 176 179 182 182 182 184 186 186 184 182 180 178 176 174 172 171 169 166 164 162 160 157 153 147 139 130 121 118 111 107 113 120 112 117 106 98 102 114 116 123 123 128 126 131 139 144 150 157 160 164 165 168 169 174 177 178 181 182 184 186 184 184 182 182 182 180 179 179 179 177 174 172 171 169 170 172 170 172 171 173 171 170 169 167 166 165 165 167 166 168 170 174 175 176 181 183 183 184 186 186 185 183 181 178 177 175 174 171 170 168 165 163 161 158 153 147 139 131 124 116 110 108 115 120 114 117 108 100 101 110 118 124 124 129 127 132 139 143 151 157 159 163 165 168 170 175 178 179 181 183 185 186 186 185 185 184 183 182 181 183 181 178 176 171 167 167 168 170 172 174 173 173 171 170 168 166 165 164 163 165 166 167 170 173 174 174 177 181 181 183 185 186 186 183 182 180 177 176 175 173 171 169 165 164 162 157 153 148 141 133 124 118 110 108 117 119 115 119 107 104 103 110 121 125 129 129 130 131 138 142 151 157 159 161 165 168 169 173 178 180 182 184 187 187 187 187 186 185 184 182 182 182 181 178 176 173 170 171 170 170 173 174 174 173 172 169 167 166 164 163 163 162 163 165 170 173 173 173 176 178 179 182 183 184 184 183 183 180 178 175 174 173 170 167 164 162 160 156 151 146 139 131 124 117 111 109 118 123 118 118 106 103 104 111 122 123 129 130 130 130 136 142 150 155 157 160 163 166 169 174 177 181 183 185 187 187 187 186 186 185 183 183 183 181 179 177 176 174 173 173 172 172 171 172 173 172 170 168 167 166 164 164 162 161 162 163 167 169 171 172 174 175 176 176 179 180 181 181 182 180 178 175 173 172 167 165 164 161 158 154 150 144 138 128 123 115 111 110 114 120 114 119 108 103 103 110 117 120 127 128 130 130 135 141 149 153 156 157 162 166 168 172 177 180 182 184 186 187 186 185 185 186 183 184 183 180 180 178 177 175 174 172 172 172 171 172 173 172 170 167 166 165 164 163 160 157 155 158 161 166 169 171 174 173 175 174 174 176 179 180 180 179 176 174 172 169 166 164 162 159 157 152 147 141 136 125 124 115 112 107 113 118 116 120 111 106 102 106 110 120 129 131 126 129 133 141 148 152 154 157 161 164 167 170 175 179 181 183 185 185 184 184 184 185 184 184 183 179 178 179 178 176 174 171 172 174 176 177 173 171 168 164 163 163 161 160 157 155 155 153 156 161 167 169 172 173 174 169 171 172 174 176 177 176 175 171 168 166 164 161 159 158 155 150 145 139 133 124 123 113 111 109 113 118 116 116 114 107 103 104 108 117 126 127 123 125 132 141 146 151 153 156 159 163 166 168 173 177 179 181 183 184 184 183 183 183 184 182 181 179 176 177 177 177 174 171 172 175 178 178 177 175 168 163 162 160 159 159 159 160 157 152 154 161 167 170 171 174 171 170 170 171 171 173 174 175 172 169 167 163 161 159 157 156 152 148 142 136 131 125 122 111 107 110 115 119 116 118 115 103 99 100 103 117 122 125 119 123 133 140 144 148 152 155 158 162 164 166 172 174 176 178 180 182 181 181 181 180 181 180 179 177 174 174 175 175 171 169 168 170 173 174 175 175 168 161 159 158 159 159 158 157 155 152 152 157 163 167 170 172 172 171 169 170 171 170 170 173 172 168 166 162 158 159 156 153 148 145 140 134 129 122 116 110 106 109 112 115 114 115 110 99 97 96 103 110 116 117 117 123 131 136 143 148 151 153 157 160 162 164 169 172 173 175 178 179 180 181 180 178 177 177 176 173 170 170 169 168 165 163 164 164 167 169 170 169 167 163 158 156 156 158 157 156 153 148 149 156 162 167 169 170 171 171 169 170 170 169 170 170 170 167 161 159 159 157 153 149 146 142 139 132 128 121 113 106 105 106 110 114 111 112 104 98 97 99 103 107 110 115 113 118 125 134 140 146 149 151 155 158 159 161 164 168 170 173 176 176 177 178 176 176 174 174 173 170 166 163 161 159 156 154 155 158 161 161 164 164 164 162 157 152 151 151 152 153 153 150 151 154 159 165 169 171 172 171 169 169 168 169 168 168 166 165 159 157 156 153 151 147 144 140 137 130 127 119 112 105 107 105 109 110 110 108 100 92 92 96 99 106 108 111 111 114 120 131 138 144 148 149 152 155 156 158 161 164 166 170 172 174 175 174 173 169 168 169 169 167 165 159 155 154 152 152 152 153 155 158 157 157 157 155 151 147 145 145 147 151 152 153 152 154 158 162 165 169 170 171 169 167 167 169 166 163 163 161 157 155 151 149 147 145 142 140 135 130 125 118 112 106 106 105 105 107 105 103 92 80 94 94 102 107 108 107 108 110 119 127 136 141 145 147 149 150 153 156 159 162 165 167 169 171 169 168 167 164 161 161 163 164 163 160 157 155 155 153 153 153 151 152 153 151 150 149 148 147 145 146 148 149 152 151 150 153 157 162 165 168 168 171 170 168 164 163 162 161 158 158 156 154 150 146 143 143 140 138 135 129 125 119 112 102 104 99 100 103 101 99 87 73 88 94 98 106 108 104 105 104 114 125 135 140 143 146 148 148 150 154 157 161 163 164 165 165 165 165 165 163 159 157 160 159 157 157 156 154 153 152 149 148 149 148 147 148 146 145 147 149 147 146 148 149 146 148 149 152 156 160 163 165 168 169 168 166 164 161 159 158 155 152 151 152 150 146 142 140 138 135 131 127 123 119 111 100 102 98 100 103 100 94 81 73 88 90 91 98 104 97 98 104 112 121 134 138 142 144 146 147 151 153 155 158 159 160 161 161 164 165 162 160 158 157 158 156 156 153 155 149 149 145 143 145 146 142 143 144 143 142 146 145 143 142 145 145 145 146 149 152 155 157 160 161 164 166 166 162 160 159 157 155 153 151 149 150 150 147 141 137 135 133 128 125 122 120 108 101 101 95 96 96 94 87 72 69 88 88 85 87 89 90 90 102 109 120 130 136 140 143 145 147 150 151 152 154 156 158 158 160 162 158 156 157 153 155 156 156 153 151 149 146 143 136 136 138 140 141 144 144 142 143 143 139 135 136 145 142 141 143 145 148 150 152 156 157 159 159 158 157 157 155 154 152 151 151 148 146 147 146 142 138 134 132 126 124 120 118 106 100 99 93 88 87 88 80 72 71 82 83 81 77 78 84 89 98 106 117 123 134 140 142 144 146 149 149 149 152 156 157 157 154 154 154 152 150 149 149 151 148 146 142 141 138 135 135 130 129 133 137 141 140 140 140 139 134 132 131 133 134 135 139 143 146 148 150 152 152 153 151 152 153 156 152 151 149 147 146 147 145 144 143 143 139 133 130 125 124 120 115 105 100 96 91 84 81 78 70 66 68 75 77 76 69 71 75 82 93 99 111 119 131 138 140 143 144 145 147 148 149 153 155 152 149 150 149 146 141 142 141 142 143 139 135 128 129 131 128 125 126 128 129 132 136 135 132 132 130 127 130 129 129 132 136 141 142 146 148 148 150 148 147 149 152 155 151 150 147 143 145 145 145 141 141 140 137 133 128 125 121 118 112 100 96 94 88 82 77 68 64 64 67 74 74 71 64 66 68 75 85 96 106 116 127 136 140 142 141 143 146 146 146 150 150 146 146 146 145 142 138 136 135 135 134 138 135 128 128 124 124 127 129 127 128 131 135 135 135 132 129 128 132 131 131 132 135 140 142 144 144 145 146 146 145 145 146 151 149 149 145 141 143 142 142 140 137 136 133 129 128 122 118 115 109 97 92 88 84 78 67 63 61 62 66 75 72 69 66 59 59 72 79 94 103 112 124 132 139 139 140 141 142 143 144 147 146 144 143 140 142 139 135 131 132 136 134 138 133 129 127 126 124 127 127 128 131 132 136 138 135 135 132 132 131 131 132 134 137 138 139 140 141 141 141 143 141 140 141 144 145 145 141 140 138 137 141 141 136 132 130 126 125 119 114 111 103 93 86 83 76 68 57 60 61 64 67 78 75 72 70 65 59 66 71 91 102 110 119 130 138 135 139 139 141 143 144 143 142 143 140 140 139 133 129 128 131 132 135 134 132 129 126 126 127 124 126 130 131 132 133 133 134 134 137 134 133 131 131 133 137 135 136 139 137 138 137 136 138 137 136 139 141 142 141 139 137 136 140 137 135 130 127 125 122 115 111 107 98 89 81 73 66 55 54 55 58 59 63 81 82 80 76 71 64 66 66 85 101 107 116 128 135 133 136 137 141 142 141 143 140 140 139 136 133 131 130 130 132 131 131 131 133 131 131 131 135 134 134 134 137 138 131 129 134 136 137 136 136 133 132 132 132 133 135 137 135 134 131 132 128 127 130 133 132 134 133 135 134 135 140 137 133 128 124 120 120 114 109 102 92 82 75 65 60 54 58 54 57 58 59 84 84 80 78 74 69 67 66 78 93 103 113 124 128 131 136 136 140 142 142 143 143 142 142 140 135 133 130 131 130 130 131 127 127 131 132 130 135 136 135 134 140 138 137 133 133 133 135 134 134 129 128 129 127 127 129 127 127 126 123 122 120 119 125 125 127 128 128 133 132 135 136 135 130 126 124 121 116 112 106 98 87 78 71 66 59 57 59 57 56 59 60 83 84 82 77 77 70 65 70 73 87 99 109 117 128 129 131 135 138 142 143 143 145 145 145 143 140 136 134 133 132 128 131 127 127 131 131 128 134 136 133 136 134 134 131 130 129 128 130 132 130 128 128 126 121 125 128 122 121 121 120 116 117 121 124 126 127 132 134 132 132 134 134 133 130 127 126 118 114 114 105 98 84 78 70 66 60 59 58 59 54 57 60 86 89 85 77 77 71 67 72 73 80 94 104 114 123 128 130 133 134 137 139 139 143 145 144 145 141 137 136 134 130 127 132 130 127 129 131 130 132 133 137 133 137 132 136 135 129 135 135 135 133 129 131 125 125 134 128 126 124 123 121 119 122 126 126 126 128 134 135 133 134 134 126 124 124 122 122 117 116 113 104 94 84 77 68 65 61 59 59 59 58 59 66 89 86 83 78 76 70 67 72 72 79 90 102 110 120 127 130 130 130 133 135 137 141 141 140 140 137 132 131 133 130 130 130 131 131 131 127 125 127 123 124 126 131 137 136 141 138 136 136 136 133 130 132 129 129 133 129 123 123 121 123 122 122 124 124 128 131 131 134 133 135 129 123 121 120 120 120 116 118 109 102 92 86 76 69 63 61 58 58 61 60 62 69 84 81 78 78 79 69 69 70 72 77 86 98 106 115 123 126 127 130 134 136 135 136 136 137 137 132 132 129 131 134 134 133 133 131 134 132 128 125 117 119 125 128 136 136 136 135 134 137 137 133 128 133 129 130 131 134 132 129 128 126 127 127 125 129 131 135 134 133 135 132 125 120 118 118 119 117 117 112 108 100 88 83 75 68 62 61 59 60 64 62 66 72 79 78 75 78 79 71 70 72 72 77 81 91 103 112 121 122 125 130 131 135 133 133 131 133 131 130 131 132 131 133 132 128 129 127 129 126 126 124 121 127 127 123 128 127 131 133 128 130 129 130 127 128 132 130 129 130 129 128 126 124 126 126 131 131 133 136 135 138 138 131 122 117 119 121 118 118 118 110 104 95 86 78 73 68 64 62 60 58 65 63 68 76 76 75 77 77 72 74 74 74 73 78 79 87 99 109 116 121 122 125 129 129 130 129 131 132 130 133 137 136 135 136 134 133 130 129 127 128 130 128 127 128 126 123 126 131 131 132 130 129 133 136 139 137 134 132 132 132 129 127 126 123 123 128 132 132 135 135 136 134 135 129 120 117 121 122 119 117 112 108 102 92 83 74 69 64 63 63 60 61 66 66 72 79 76 77 76 74 70 74 72 72 75 79 78 82 91 104 112 118 119 120 125 128 125 128 130 131 132 136 142 144 145 142 140 140 138 135 135 138 139 140 138 136 137 136 133 136 135 139 142 140 139 143 141 141 138 139 135 134 132 133 133 133 129 132 137 136 136 138 138 138 132 126 122 121 120 123 117 115 110 104 95 87 80 73 69 65 64 63 62 67 68 68 77 83 75 77 77 76 77 75 73 74 75 77 76 77 87 93 105 112 115 120 123 125 128 124 126 129 131 136 141 144 145 147 145 141 138 137 137 137 140 139 145 147 144 145 141 140 140 142 139 143 146 147 145 148 147 144 141 140 140 141 142 143 142 142 142 142 143 140 139 139 129 125 123 122 123 119 115 110 109 104 91 82 78 73 69 64 66 67 69 75 75 73 78 80 78 78 78 79 79 74 76 76 72 78 75 73 78 89 100 107 116 117 121 126 126 125 126 132 134 139 142 147 150 153 152 151 149 147 145 146 144 143 142 146 143 142 140 141 142 141 140 141 146 149 146 149 145 149 148 147 145 146 148 147 149 146 147 145 143 141 135 129 128 126 123 120 123 118 114 108 107 99 89 81 75 72 71 62 67 72 74 77 77 80 79 80 78 76 77 79 84 75 80 76 69 73 76 76 73 82 90 103 113 116 119 123 126 126 128 132 137 141 146 150 152 156 155 157 154 153 150 151 149 147 145 146 145 142 142 142 144 146 148 149 148 152 148 147 148 148 146 147 150 151 151 146 149 150 147 146 143 137 132 126 123 124 119 120 122 115 110 106 102 94 87 79 74 74 71 64 70 68 74 82 78 83 80 79 78 76 79 79 81 76 80 80 72 71 77 78 71 75 85 95 106 114 118 119 122 125 127 129 134 142 146 150 154 155 156 156 157 155 154 155 153 149 150 149 146 147 148 149 148 149 151 154 153 152 153 150 150 148 147 150 152 152 152 150 150 150 150 145 138 131 128 126 121 119 119 116 119 110 107 107 100 91 84 78 72 73 71 64 61 65 73 84 77 83 80 77 76 76 80 80 80 80 82 86 78 70 77 78 70 71 79 89 99 108 111 115 119 120 124 128 134 140 146 150 151 153 155 157 156 153 153 152 153 153 153 151 149 148 148 146 146 146 145 147 146 147 147 149 150 147 148 147 149 152 152 150 147 146 142 139 133 127 124 122 118 114 116 113 114 109 105 105 96 89 79 79 75 77 71 62 59 65 76 84 78 80 82 76 79 84 83 80 80 81 86 89 83 71 76 77 75 70 76 84 91 100 107 110 116 121 121 127 130 137 144 146 151 152 154 156 156 156 156 154 153 153 151 152 148 148 149 145 141 143 141 143 144 145 145 145 144 146 146 146 145 147 148 148 146 146 140 134 129 124 121 119 114 115 112 111 107 104 102 98 90 84 79 82 80 80 68 59 64 70 82 82 83 81 81 80 83 86 87 86 84 82 87 87 87 73 82 76 76 76 72 79 87 92 100 106 112 114 119 124 125 130 139 144 148 153 155 156 156 156 157 157 154 152 149 147 145 144 144 143 142 141 143 144 142 141 142 143 143 149 148 147 147 149 148 149 144 146 141 133 129 125 121 116 111 116 114 106 104 102 101 94 85 81 82 86 85 81 73 58 64 74 86 80 82 76 78 80 86 85 86 85 85 86 89 89 90 78 84 77 77 79 74 72 80 85 92 101 108 110 116 120 123 124 135 141 144 148 153 155 155 153 155 155 154 152 151 148 145 144 144 147 142 144 144 144 141 143 143 143 146 147 149 148 149 150 147 147 144 142 139 134 125 122 118 113 109 108 109 104 100 100 99 90 84 82 85 84 83 81 73 64 65 74 86 80 83 78 77 81 85 88 87 83 83 84 87 91 86 86 79 79 79 82 78 73 77 80 83 90 103 109 113 115 119 121 127 137 143 145 151 152 152 152 152 153 152 150 150 147 148 148 151 146 143 146 148 149 146 148 149 148 150 148 150 150 148 148 147 145 142 140 135 129 126 117 111 110 108 104 106 101 97 97 93 88 86 83 88 89 83 79 71 68 69 73 79 77 82 81 76 82 87 85 86 83 84 85 85 84 84 87 78 79 80 84 84 83 79 78 78 83 98 105 108 112 118 118 123 132 137 141 143 146 151 153 153 154 152 152 151 150 151 150 155 150 150 152 150 152 152 153 155 153 155 153 152 152 152 147 147 143 142 134 130 125 120 115 109 107 104 101 101 97 94 95 88 89 88 84 92 93 84 83 79 77 79 75 79 69 79 79 76 81 89 88 86 84 84 80 77 77 81 86 80 80 79 84 91 90 80 77 76 76 86 102 106 109 115 121 124 130 133 139 142 146 151 153 154 156 154 153 155 153 154 155 157 155 156 154 155 155 156 158 161 160 159 156 154 150 151 148 144 139 138 131 128 122 116 110 107 105 101 96 101 96 94 93 89 91 91 86 98 96 79 83 82 83 91 83 81 77 81 88 79 80 87 88 86 86 78 73 70 75 81 86 82 80 84 89 93 91 89 80 76 73 78 90 103 106 114 116 119 121 128 136 140 142 149 153 154 154 155 156 155 157 158 158 156 159 160 158 160 160 158 162 159 159 161 158 154 151 149 146 143 138 135 128 124 121 112 108 104 101 99 95 92 95 94 93 92 93 95 92 99 96 81 80 82 86 93 88 80 79 82 86 82 75 88 87 85 81 73 71 69 71 80 83 82 81 83 92 92 99 94 86 81 75 74 79 92 103 108 110 115 118 125 128 134 141 146 151 151 153 155 156 157 156 160 159 159 158 163 160 164 163 162 158 159 157 157 153 153 149 147 144 138 135 133 126 117 114 106 103 95 94 95 93 91 94 95 93 94 94 98 96 97 92 85 83 88 88 90 90 83 82 81 83 83 78 87 84 79 74 74 72 72 74 77 81 82 80 89 94 95 98 97 93 88 80 73 76 84 92 102 103 109 118 118 122 129 136 140 146 147 152 153 156 157 160 158 163 159 158 161 163 162 161 159 157 155 155 155 150 147 144 145 142 134 130 129 121 112 109 103 97 90 91 91 90 93 94 94 94 99 96 103 101 99 97 90 89 88 87 87 85 84 82 82 83 85 80 83 80 75 73 72 72 71 74 75 78 81 81 92 96 98 98 98 96 91 88 77 77 80 85 94 100 105 112 113 118 123 131 136 141 144 148 150 152 154 153 156 160 160 158 158 158 159 159 159 154 150 150 150 149 145 139 139 133 131 128 118 116 110 100 95 91 87 87 88 91 94 94 94 97 98 100 105 103 100 100 93 90 91 87 83 80 85 80 79 81 80 81 76 75 74 72 74 71 72 74 74 76 77 87 95 101 97 98 99 97 98 91 85 80 79 85 92 93 99 106 109 111 118 127 130 133 139 144 144 148 150 151 151 154 157 153 153 155 154 152 154 151 147 143 146 142 136 134 128 123 123 121 114 106 101 95 88 84 85 87 87 88 93 97 99 101 104 107 106 106 103 103 100 93 94 89 82 78 82 85 80 79 82 82 76 74 73 73 77 71 76 76 74 75 79 94 95 98 96 96 100 100 102 97 91 86 82 81 89 91 93 96 103 106 113 117 123 129 132 135 137 142 144 143 147 150 151 147 148 150 152 150 145 144 142 141 138 137 129 127 121 119 115 112 102 97 91 88 84 81 86 86 85 90 95 101 108 107 109 110 109 112 107 106 104 96 96 93 81 77 83 81 81 79 81 83 71 74 74 76 72 75 76 74 74 77 90 97 98 96 94 99 102 106 103 101 96 88 83 85 90 94 91 93 96 102 105 111 116 121 127 126 129 131 135 138 140 140 142 141 143 144 143 141 141 138 135 135 135 128 125 122 113 113 107 102 94 90 84 82 80 83 88 85 87 93 101 104 111 111 115 114 114 113 114 109 106 102 99 94 82 78 81 83 80 82 78 79 68 72 73 71 71 78 77 77 75 79 95 98 99 97 94 98 107 105 104 102 100 96 90 86 90 94 90 89 89 96 99 103 110 111 116 121 122 123 124 129 132 132 131 133 136 137 134 131 129 131 127 127 126 123 118 116 104 103 100 93 88 83 78 80 82 84 83 89 94 97 103 109 112 116 117 119 116 116 118 112 108 104 105 95 82 80 79 79 80 81 76 78 69 70 71 72 75 84 80 76 78 81 96 100 99 97 96 99 109 105 103 101 107 99 96 92 92 93 94 92 89 89 94 95 99 105 107 112 115 115 117 119 123 124 123 124 127 126 125 122 119 121 119 118 118 115 107 106 100 95 90 85 81 76 76 80 79 84 87 91 98 101 108 112 113 121 119 118 118 123 122 115 108 107 105 97 86 81 80 79 78 78 76 80 70 72 75 77 77 82 78 80 81 85 94 103 99 98 98 107 103 104 101 104 110 104 99 95 97 96 98 94 90 90 90 92 88 96 102 102 105 106 110 112 116 116 117 120 120 118 118 115 111 116 110 111 108 102 98 94 90 87 81 78 74 75 75 77 83 86 91 95 101 107 114 111 118 123 121 119 123 125 125 117 113 107 110 102 90 85 80 80 78 77 74 82 76 78 77 79 77 79 81 80 79 89 95 104 98 99 101 106 105 102 100 107 109 111 107 102 102 101 101 98 93 90 88 88 82 83 92 94 94 97 100 102 107 107 111 113 108 108 108 106 102 105 103 100 98 92 90 85 81 75 77 74 73 73 76 80 87 90 94 101 107 111 116 115 124 124 120 123 127 129 124 117 112 107 110 109 98 89 79 79 81 80 77 80 78 79 76 78 78 80 81 80 79 92 96 97 98 99 100 106 107 102 98 107 113 114 114 112 106 105 105 103 99 96 90 86 86 83 80 84 82 88 91 93 94 96 98 100 99 98 103 98 93 94 94 92 88 83 81 77 75 71 71 69 71 73 81 84 89 92 100 106 112 112 117 118 124 125 123 125 128 130 126 117 111 109 109 107 104 92 85 81 81 77 77 77 79 80 78 75 77 81 81 80 83 96 96 93 97 95 102 106 107 107 100 105 113 114 117 118 119 112 107 105 105 101 96 87 83 80 78 78 77 78 82 82 84 86 89 92 88 88 90 89 89 86 81 82 78 74 75 67 72 69 65 70 74 79 85 89 93 97 102 110 115 114 120 122 128 125 122 122 129 132 127 117 115 112 109 104 106 93 88 88 86 79 80 80 81 78 76 76 80 81 82 82 92 101 100 94 94 99 103 108 107 106 104 106 111 115 115 119 123 122 114 110 107 106 103 97 89 82 77 77 76 75 71 71 75 75 78 78 80 77 78 81 81 74 71 72 69 67 65 65 67 66 70 76 82 85 91 94 98 103 108 114 119 121 129 124 125 127 124 122 124 130 126 118 115 114 108 105 108 95 85 90 90 81 80 79 78 77 75 77 79 82 84 87 98 102 99 93 92 102 108 109 111 107 108 108 110 114 115 120 125 126 122 115 113 108 106 105 98 91 84 79 77 75 71 67 68 69 67 69 69 70 73 72 69 71 68 67 66 66 67 69 70 74 78 83 88 92 94 100 106 110 111 118 124 124 125 126 126 125 123 126 122 127 125 121 118 115 108 107 108 97 88 88 88 82 81 78 78 76 76 78 80 85 85 93 100 100 98 94 93 103 110 112 113 111 111 109 112 112 114 120 125 126 125 122 117 113 110 108 105 99 94 87 81 80 75 73 68 65 64 66 62 62 64 65 63 66 66 65 68 69 71 75 78 82 84 89 93 98 104 109 113 113 116 123 123 123 122 126 126 127 127 127 123 126 126 124 120 114 105 108 105 97 90 86 85 82 80 79 79 79 81 81 82 86 87 97 98 97 97 97 97 103 111 113 113 114 116 110 113 112 112 118 123 127 126 125 123 119 116 114 112 106 99 98 94 90 87 84 81 78 73 69 68 67 64 65 67 71 70 71 76 78 79 83 87 89 91 95 101 108 113 115 119 119 117 121 122 121 126 130 130 130 131 126 125 124 127 126 121 114 106 109 104 95 90 87 85 84 80 80 