P2
# Generated by OpenCV 4.2.0
92 112
255
115 122 139 132 100 66 72 52 97 127 149 158 162 165 172 179 182 186 191 192 192 195 198 198 200 199 198 200 202 202 204 204 200 206 205 200 201 198 199 206 202 196 196 197 193 195 193 193 192 189 187 185 183 185 188 187 188 187 185 184 178 166 160 155 150 150 140 117 97 73 54 43 48 62 92 95 88 81 73 56 60 48 35 50 37 25 59 58 77 88 74 79 119 115 132 127 85 63 65 62 114 131 145 162 161 165 172 180 188 189 192 194 196 199 202 200 199 201 202 203 203 208 205 204 204 205 206 208 203 203 203 200 199 199 198 197 196 196 194 194 192 194 190 187 188 187 187 187 186 188 186 183 177 168 162 161 153 146 146 132 114 95 74 43 40 45 75 96 89 78 59 48 55 63 51 45 51 35 32 66 67 77 82 73 114 145 122 113 65 63 59 90 115 125 142 153 164 167 173 184 189 193 195 195 195 200 200 199 197 199 206 209 216 210 206 209 210 210 210 208 206 204 202 199 195 195 195 194 197 194 197 198 193 194 192 186 189 189 187 188 188 189 185 183 180 176 169 164 157 150 149 138 130 119 93 71 47 43 47 88 94 84 73 55 40 40 49 53 50 55 33 46 78 66 90 69 90 118 107 100 56 68 67 96 106 119 134 154 166 168 173 184 189 194 194 196 196 198 199 198 200 206 210 218 222 207 201 207 205 204 206 205 203 206 205 204 201 196 193 197 196 198 199 198 197 196 189 187 187 188 189 190 186 186 183 179 176 176 171 163 158 155 150 140 131 130 115 94 74 56 42 67 96 93 64 62 50 41 28 31 42 48 51 35 64 71 69 90 85 118 96 81 63 64 69 94 102 119 142 156 167 169 176 183 189 193 192 195 195 198 197 200 202 210 211 214 214 205 211 215 211 205 207 207 207 209 201 203 212 207 192 198 200 200 199 198 197 194 190 191 192 187 188 189 188 185 184 183 181 176 173 167 157 157 151 141 133 127 123 115 98 77 52 46 87 96 68 60 54 53 56 33 21 28 37 40 43 71 71 78 93 133 93 64 61 60 78 84 104 132 145 158 167 173 178 184 194 194 195 196 194 199 201 204 208 208 210 213 208 216 218 216 214 212 206 205 207 210 210 206 207 205 203 203 204 204 204 201 196 195 195 193 192 190 188 189 188 185 185 183 182 179 173 169 161 157 153 145 137 129 124 120 114 106 75 42 67 95 83 56 54 37 52 62 48 28 18 28 35 50 69 66 129 115 84 61 71 64 68 84 114 135 150 159 168 173 180 190 194 196 197 196 195 200 201 205 205 206 209 214 213 217 220 213 210 214 210 207 208 208 211 205 202 206 204 203 205 205 205 202 203 201 199 193 192 194 191 188 189 188 186 183 181 179 170 163 163 157 151 148 140 133 128 124 120 116 116 65 44 86 91 68 53 53 27 41 57 54 30 14 19 35 56 70 153 103 67 64 70 59 68 95 116 138 154 163 170 173 180 186 190 199 201 199 198 197 202 204 203 209 212 216 216 216 217 214 210 207 209 214 209 210 208 207 203 204 203 203 207 206 202 200 198 199 195 192 190 188 192 194 191 188 184 183 182 179 174 165 160 159 156 150 142 136 133 127 126 124 125 102 40 66 94 84 49 55 40 23 27 36 51 37 15 20 39 60 109 90 57 56 55 62 77 101 113 138 153 165 172 176 181 185 189 200 200 198 196 199 204 204 204 208 213 215 218 217 212 212 213 210 209 213 207 214 214 205 201 204 207 205 206 208 204 201 199 199 193 190 191 189 191 194 189 184 180 181 182 177 172 167 162 163 156 149 142 140 134 131 132 131 127 129 73 46 89 88 65 47 63 32 29 19 24 45 41 20 20 47 81 76 55 53 55 70 88 96 116 144 157 166 171 179 188 188 191 199 197 196 199 197 205 205 211 213 218 214 213 213 213 212 211 211 212 207 202 206 207 199 199 203 204 208 204 205 204 200 198 198 195 192 191 191 191 190 186 184 184 180 180 177 172 167 165 164 158 150 146 141 140 132 131 133 130 129 113 48 73 98 84 49 58 49 30 41 33 23 44 35 19 34 72 74 58 61 54 74 82 98 128 148 161 170 173 181 186 190 193 198 198 200 204 203 202 208 213 214 209 205 206 211 207 204 205 205 206 205 203 200 200 200 200 198 198 204 203 206 203 201 201 201 198 194 193 190 187 187 188 183 183 180 179 174 170 167 166 162 160 154 151 144 139 139 135 133 127 123 128 80 48 100 96 54 41 63 42 33 36 31 31 46 31 24 65 74 67 63 59 69 77 101 134 156 160 171 179 176 179 192 197 200 201 202 203 204 204 205 203 207 203 200 203 208 206 200 201 201 198 199 199 202 201 200 198 197 199 200 204 205 200 196 199 199 197 199 195 190 184 189 188 181 180 178 179 171 169 168 166 163 160 155 152 147 143 141 138 133 125 130 125 109 48 81 100 71 45 47 55 39 29 32 31 28 40 32 87 63 73 56 52 65 74 110 145 162 162 174 178 176 181 193 197 200 200 202 202 202 202 202 206 208 207 209 209 208 207 204 202 199 197 196 193 195 197 201 198 197 199 201 202 204 202 197 195 197 198 198 195 191 187 189 185 183 179 176 174 173 170 169 169 167 160 156 155 152 146 137 136 139 132 132 124 116 68 59 101 84 55 40 50 54 32 21 28 21 20 36 85 65 70 54 56 64 83 125 154 161 165 176 179 179 181 194 194 198 198 198 202 202 202 205 205 207 210 210 207 207 206 203 202 201 201 199 197 194 195 197 193 194 198 199 200 204 202 202 202 195 199 198 197 194 191 189 185 185 181 178 174 173 176 171 168 165 167 159 154 155 150 139 137 142 139 130 124 111 89 47 89 88 68 48 42 58 50 23 22 22 23 25 82 70 67 66 58 67 88 134 158 163 169 177 178 176 178 186 192 199 197 196 201 206 201 204 203 208 208 210 207 206 208 207 205 204 204 199 196 192 194 198 194 193 197 200 200 202 203 203 202 195 197 198 201 195 193 190 189 187 187 181 175 176 177 173 165 161 163 163 159 155 148 142 138 142 141 130 120 102 99 50 71 93 78 57 44 48 60 34 14 17 27 28 99 71 63 60 60 64 91 143 158 162 168 176 175 178 180 189 198 199 196 197 199 202 204 203 205 207 212 211 212 209 213 208 205 207 209 200 193 193 193 198 198 195 195 200 200 199 202 202 204 201 194 197 200 200 197 194 192 191 187 185 179 178 174 171 164 160 161 159 155 154 149 143 142 141 137 130 117 100 90 67 55 88 80 63 47 44 59 52 18 16 16 21 111 76 76 57 61 63 97 150 159 162 168 175 171 177 181 191 195 199 194 196 202 200 200 201 207 208 218 218 217 217 217 214 206 206 205 201 197 197 199 196 198 198 197 201 200 199 200 202 203 200 201 199 198 200 197 194 195 194 187 185 186 179 174 171 167 164 161 156 155 153 151 147 142 141 134 129 115 94 84 83 46 77 78 64 53 46 50 60 39 16 14 20 111 87 89 68 67 63 104 154 160 164 169 174 174 175 183 190 194 196 193 193 191 195 198 198 204 209 217 222 219 217 218 217 215 206 198 204 203 197 200 200 197 196 195 200 202 204 205 204 206 203 206 201 199 202 201 199 196 193 190 186 186 184 179 166 167 164 160 158 154 152 152 150 146 139 134 121 108 89 73 89 59 60 82 62 54 51 46 58 55 30 16 20 117 102 95 65 66 60 114 153 159 164 171 171 172 184 193 192 192 183 177 179 178 185 185 185 192 196 199 205 203 199 204 214 219 213 203 205 204 198 199 197 196 197 196 198 203 208 205 205 206 207 206 206 204 206 203 197 192 193 190 188 188 185 181 170 167 163 157 157 155 147 148 148 144 141 134 117 101 84 69 84 81 42 80 67 57 47 46 56 55 54 27 19 119 114 104 51 62 68 118 153 160 160 167 167 172 183 181 172 170 164 158 167 159 154 162 160 169 173 164 167 178 174 184 198 212 217 209 206 206 200 199 197 197 197 202 203 203 207 203 204 210 209 208 206 206 210 205 198 192 191 191 190 189 185 181 174 169 164 156 157 156 145 146 148 143 140 129 116 96 79 73 79 94 47 66 70 60 45 47 54 51 47 47 27 128 122 114 59 57 64 117 156 159 157 168 166 152 156 158 152 153 156 147 144 148 136 140 153 149 151 140 141 168 176 168 187 197 205 201 206 208 206 203 197 199 202 204 209 207 206 205 207 213 210 210 212 210 213 206 198 199 190 185 188 192 189 183 175 173 167 162 159 157 154 150 150 142 135 128 115 95 82 77 77 96 65 46 66 59 49 42 49 56 33 52 37 152 121 128 74 46 58 113 155 159 160 162 149 146 141 152 149 149 163 161 144 143 147 136 142 134 136 136 120 138 167 161 169 194 187 197 207 207 208 206 205 208 209 207 214 214 209 204 209 215 219 214 210 208 211 206 193 192 181 176 175 168 172 170 166 162 150 152 154 149 149 149 145 142 136 127 113 93 82 73 71 87 84 42 61 59 49 42 48 55 30 36 50 144 130 139 89 37 58 111 154 160 157 144 126 148 154 161 170 167 168 172 172 167 170 166 146 140 131 142 138 139 152 158 164 188 175 187 205 206 207 207 210 211 211 213 216 220 208 204 210 211 214 214 208 205 205 199 188 181 175 170 160 141 139 131 126 126 127 128 131 128 124 126 129 135 139 128 112 91 80 74 71 82 92 56 52 60 51 37 48 56 34 22 41 125 137 139 94 36 59 108 156 160 158 140 140 155 180 175 176 188 184 182 182 178 179 182 179 172 166 162 164 160 168 161 169 178 176 183 203 202 202 206 212 213 214 213 214 210 207 203 203 205 203 208 209 203 195 194 182 171 159 160 156 138 118 106 101 94 87 89 97 97 94 101 110 113 119 121 114 92 78 74 71 76 87 76 46 61 57 37 43 55 37 18 28 118 144 138 92 38 58 104 154 155 153 149 150 164 172 176 177 180 181 179 178 176 176 177 172 177 177 168 171 175 174 171 169 174 177 184 193 195 197 199 202 210 212 208 204 203 204 201 195 197 198 201 197 191 184 182 169 146 139 139 128 114 103 96 93 86 84 86 84 83 79 84 89 91 97 108 110 102 85 72 69 71 84 87 46 53 61 42 38 54 36 20 27 124 136 132 93 40 55 109 153 156 154 152 155 162 178 171 175 173 171 170 171 169 171 175 170 169 174 169 163 173 174 177 168 173 179 184 186 187 191 194 198 197 200 202 200 202 197 198 193 188 191 193 192 186 174 170 148 132 131 119 109 96 94 90 94 103 93 81 81 79 82 87 81 78 74 77 91 98 98 81 68 67 80 90 59 48 65 51 34 41 35 29 22 119 119 125 94 41 54 106 153 154 156 159 158 164 171 170 168 165 172 172 174 181 184 186 184 181 185 178 167 165 166 168 168 170 171 176 184 182 184 187 188 193 197 198 201 199 195 194 189 182 182 185 183 177 173 158 137 135 131 117 112 107 110 108 110 114 106 106 113 115 112 119 118 108 90 76 78 83 89 84 70 65 74 83 71 47 59 56 42 36 34 35 18 134 110 116 87 41 52 103 150 153 156 161 158 161 165 162 160 164 172 180 185 189 195 199 198 193 194 194 186 179 170 162 158 163 165 166 172 174 177 183 184 191 195 197 202 202 191 187 182 176 176 174 171 169 162 147 139 136 129 121 123 125 124 124 127 134 136 141 141 135 133 134 139 128 122 111 99 99 94 86 75 65 72 78 74 56 43 51 51 46 41 22 25 139 121 102 87 47 49 104 152 154 157 157 158 154 154 152 160 164 171 178 183 182 192 195 194 193 195 196 191 190 181 171 161 158 156 158 160 169 173 180 187 191 194 195 198 195 188 184 175 171 172 165 160 155 144 136 130 126 120 116 120 129 135 143 150 150 148 150 145 139 137 136 137 129 122 115 118 116 101 85 77 68 70 75 74 69 42 44 50 56 45 18 19 114 118 93 87 48 46 102 149 158 161 157 159 152 148 152 162 167 162 156 157 163 160 157 164 166 166 169 175 181 180 173 173 165 156 154 154 159 167 176 184 188 191 203 205 196 186 175 171 167 162 150 142 133 126 123 121 117 116 126 140 151 164 170 171 165 160 158 149 146 142 137 131 124 118 116 120 116 112 94 79 71 68 73 75 71 46 39 42 48 37 18 13 102 103 87 87 52 43 99 149 156 162 158 161 156 156 159 159 148 147 156 164 164 173 182 176 161 150 140 137 141 162 168 167 166 161 160 156 151 158 167 177 189 198 209 213 206 190 168 165 155 142 132 119 111 109 113 118 123 135 152 170 183 181 180 179 171 171 162 157 148 143 140 130 127 121 119 118 120 114 99 86 70 68 72 74 69 54 36 42 39 46 19 14 91 100 82 87 53 43 99 151 158 164 157 159 163 156 154 149 142 144 150 146 132 135 128 128 135 137 136 126 116 127 146 158 162 163 155 151 154 152 158 175 190 202 211 215 209 187 166 155 142 124 109 98 100 105 117 130 142 157 169 175 173 159 154 149 145 148 151 153 147 144 143 133 127 123 118 114 116 114 97 82 73 71 71 74 69 57 38 44 38 39 32 19 81 94 75 80 52 48 106 156 159 166 160 157 158 156 154 144 129 120 107 112 127 74 72 74 66 61 80 103 118 120 115 130 151 155 148 145 157 160 166 174 188 197 205 210 203 188 170 148 121 98 82 82 97 114 135 136 154 161 151 130 125 143 157 158 147 139 132 126 115 112 118 125 131 126 118 112 108 106 94 83 74 71 71 72 67 57 41 32 38 26 42 28 77 84 70 72 54 55 104 156 160 166 158 158 159 159 153 112 93 93 127 172 138 67 136 183 56 54 81 81 101 106 121 109 130 135 137 145 155 163 175 175 184 194 203 207 198 182 160 131 92 68 63 83 108 124 136 148 151 140 131 138 174 188 193 193 178 156 143 135 119 110 100 92 106 119 116 111 106 103 92 86 77 72 71 70 67 59 41 31 36 31 29 40 77 70 66 65 61 59 97 157 164 165 157 157 154 148 132 108 116 137 181 200 123 75 112 111 19 71 112 103 153 125 106 114 127 134 140 152 165 174 176 181 183 195 204 202 191 177 153 116 77 57 61 90 116 131 140 141 138 137 146 158 161 143 134 120 114 105 103 99 106 111 113 108 89 88 117 118 114 104 93 85 80 75 70 70 65 57 37 32 31 37 24 35 76 65 61 62 65 64 95 160 165 165 162 162 152 147 143 141 147 166 181 199 154 74 119 92 74 117 119 119 185 168 128 111 122 142 171 192 206 208 188 184 185 193 196 194 182 171 151 111 70 53 61 91 120 132 132 134 130 139 141 123 116 121 77 106 96 47 56 47 58 75 86 97 106 88 88 119 118 109 98 88 79 78 71 70 66 56 36 36 45 34 30 25 70 61 54 63 64 62 97 158 163 167 167 170 162 162 160 154 146 155 167 183 196 108 92 109 116 121 97 149 173 156 138 134 146 145 185 218 217 207 191 186 183 188 192 193 181 165 152 116 73 52 58 92 142 157 151 145 124 113 111 140 190 183 81 146 140 14 63 79 59 84 71 60 81 103 92 106 120 109 100 89 81 80 72 70 67 55 37 37 53 29 34 27 64 56 49 60 65 72 106 156 166 170 173 178 176 172 170 170 162 160 160 161 175 170 138 131 127 129 140 157 143 141 144 153 161 176 196 200 199 194 186 186 180 186 190 187 177 164 147 118 88 59 55 91 160 173 141 101 104 115 173 211 235 204 87 109 56 33 87 98 78 116 107 61 51 70 96 107 107 104 99 92 87 80 73 69 66 53 36 37 53 24 30 33 63 56 42 52 67 77 106 157 167 172 177 181 181 180 174 171 165 174 172 170 174 175 183 169 181 165 149 151 147 137 143 160 176 174 178 182 184 185 187 182 180 186 192 186 173 161 150 119 98 75 58 82 130 167 150 147 150 145 161 167 185 202 128 107 111 100 110 86 88 123 106 82 72 60 63 81 90 96 98 93 88 82 76 72 67 52 40 39 57 22 16 32 66 53 37 48 61 69 110 160 166 175 183 186 183 183 184 179 171 169 170 173 176 176 174 169 174 161 152 148 152 155 162 171 176 180 187 187 182 181 182 180 179 182 190 188 172 160 153 123 103 89 69 72 107 146 159 171 176 176 178 165 171 172 169 155 134 110 102 91 119 125 116 109 102 91 87 77 81 86 95 96 92 88 78 76 69 54 42 50 60 26 9 18 58 50 35 44 54 71 116 159 167 177 186 189 190 184 186 187 185 173 171 169 170 168 164 161 158 163 169 162 175 176 184 183 183 192 194 188 184 182 178 180 176 179 193 185 175 166 152 124 106 98 84 71 98 140 157 155 158 162 164 174 185 180 165 159 152 132 125 116 111 110 110 115 119 117 116 108 105 100 98 98 96 91 80 77 69 53 40 60 65 25 11 14 53 48 34 41 55 74 120 157 165 177 187 191 191 185 187 191 190 188 184 178 177 177 173 177 179 188 193 185 183 186 186 187 192 195 194 191 183 182 182 180 177 185 193 189 181 170 153 122 109 103 92 83 89 115 150 160 166 169 161 151 161 172 177 172 167 156 141 135 125 120 124 126 119 114 111 112 120 115 109 102 98 95 86 78 68 50 39 65 68 21 15 16 59 55 36 35 54 81 118 160 167 183 192 194 192 187 190 184 182 196 197 197 193 195 194 194 197 198 195 194 189 195 199 205 203 198 193 189 186 186 184 178 179 190 195 191 183 171 152 123 108 100 95 92 93 106 130 158 174 177 179 173 161 148 147 146 144 142 144 144 137 123 118 115 113 111 119 125 128 122 118 111 107 100 89 82 71 50 36 62 72 21 17 18 67 65 36 34 54 85 119 164 170 183 194 195 197 195 194 194 195 195 196 202 203 201 201 203 204 205 198 197 203 206 206 205 203 198 190 188 188 181 179 180 182 192 192 189 181 170 152 123 108 101 96 95 98 110 116 141 165 175 181 179 172 170 159 151 138 132 126 127 124 111 109 111 116 124 126 133 133 123 127 119 111 106 93 84 71 51 36 58 75 22 17 20 108 77 41 34 57 82 121 160 169 182 189 196 198 197 197 199 199 195 197 202 203 202 205 210 201 202 202 203 207 213 209 199 196 194 187 188 186 180 178 183 185 189 191 186 179 169 151 125 113 104 97 98 98 114 117 127 154 173 179 177 174 170 160 161 159 158 154 152 146 137 138 137 141 137 133 133 136 133 130 126 116 107 96 86 74 50 33 56 70 30 26 22 98 60 41 25 56 98 125 159 174 186 190 194 201 201 201 200 198 199 202 200 200 206 209 201 195 205 209 210 211 211 206 201 193 192 190 185 183 182 178 178 182 183 186 185 177 168 154 128 112 105 101 101 102 104 117 124 150 159 174 177 178 170 163 159 157 150 156 155 147 143 145 141 145 143 135 136 142 139 133 132 125 110 98 88 76 51 34 60 78 31 24 24 57 71 47 20 59 106 123 159 172 187 187 193 200 199 198 203 202 202 202 196 201 201 206 203 201 202 208 212 209 208 205 201 190 190 182 179 179 176 173 176 183 185 183 181 175 167 160 139 114 105 103 101 104 105 111 129 145 158 164 172 175 175 171 167 167 162 162 163 160 152 149 150 150 144 136 138 144 144 141 133 122 113 102 88 75 51 34 64 82 38 17 18 57 80 58 20 68 108 120 160 170 184 189 194 193 193 199 205 203 199 200 200 204 205 202 205 206 205 207 210 211 209 205 198 190 185 180 184 180 171 178 184 187 187 186 184 178 169 168 153 127 107 100 101 104 109 107 123 143 156 166 168 175 178 174 172 172 175 169 167 169 165 161 160 159 151 148 148 148 145 143 136 124 117 105 91 77 49 35 66 74 39 15 21 71 89 58 18 70 127 127 159 175 184 192 191 193 197 201 204 205 207 208 206 209 208 209 211 209 211 209 215 214 201 199 195 190 187 182 181 175 173 180 185 191 195 192 187 183 176 167 156 138 117 102 100 100 102 110 116 136 149 163 166 170 177 174 174 175 178 176 174 170 172 169 168 165 161 155 152 148 143 141 138 128 120 104 93 79 50 44 65 64 36 17 18 49 65 55 22 74 118 123 156 176 184 188 188 194 202 204 203 206 209 213 213 211 209 212 209 212 210 211 212 212 207 200 196 189 187 184 177 171 176 181 182 193 201 197 193 185 180 168 157 144 127 108 97 96 95 104 119 134 144 157 167 174 179 181 180 182 178 182 187 170 170 172 173 169 167 161 152 149 144 140 136 127 121 109 94 79 53 54 58 54 28 15 17 21 64 53 31 90 103 120 154 174 183 188 188 193 197 198 202 207 209 211 213 212 209 208 210 213 211 211 214 211 206 199 192 188 184 175 172 173 177 183 188 211 217 208 200 191 182 168 153 145 137 119 98 96 97 98 111 128 141 156 167 173 180 182 180 182 178 177 182 171 167 171 173 168 165 158 152 147 145 138 136 128 119 111 96 77 55 55 50 42 21 15 20 66 103 54 51 104 96 112 149 172 182 188 190 189 193 199 201 205 209 211 213 212 209 213 217 213 213 212 212 207 201 199 191 190 177 174 178 176 178 187 197 218 224 212 208 196 183 168 149 136 133 125 109 106 105 93 96 118 133 148 161 170 177 180 183 183 183 183 182 177 175 171 170 168 161 153 153 151 146 136 133 127 116 107 95 76 58 52 41 36 20 17 21 86 81 49 88 126 109 107 148 166 178 183 190 193 197 200 200 205 212 215 218 217 218 220 218 214 213 213 209 204 203 200 192 183 179 180 181 178 178 182 184 191 190 186 198 198 178 157 135 120 115 124 123 116 116 107 87 100 126 146 157 167 176 181 187 184 184 181 177 177 178 175 171 166 160 158 154 152 145 135 127 122 116 105 94 76 60 50 37 32 24 17 17 52 54 77 114 108 100 110 150 164 173 184 187 191 197 201 204 205 211 215 215 218 221 219 216 214 213 206 204 208 203 200 197 182 183 183 184 178 172 166 165 166 165 170 173 176 165 136 116 104 103 109 117 119 121 115 98 82 110 141 157 170 179 185 187 188 184 182 180 178 179 176 170 166 163 157 154 150 145 137 124 118 115 101 92 76 58 46 33 31 27 20 16 61 57 115 116 104 116 129 141 165 173 182 179 186 195 200 201 202 208 213 216 219 220 217 216 215 215 201 200 209 205 201 190 180 186 187 181 170 163 163 164 153 147 158 167 156 138 114 104 97 95 96 102 112 117 118 110 76 79 124 153 166 178 185 192 187 183 186 184 180 180 174 170 166 157 149 152 150 144 138 131 118 110 104 89 74 58 39 35 29 20 20 18 31 63 120 134 140 129 140 139 161 168 174 176 188 197 199 200 198 206 214 215 214 215 216 214 212 211 202 208 207 206 199 189 180 187 184 160 113 78 80 110 144 143 147 152 137 110 98 77 60 61 69 90 107 115 118 113 80 58 101 138 166 181 189 186 187 186 184 177 182 179 174 170 164 158 149 148 147 142 133 129 117 110 103 89 71 54 36 37 34 23 17 19 34 77 113 142 179 158 140 140 159 168 169 175 180 194 199 199 200 209 213 212 212 214 219 217 212 212 208 204 207 203 197 190 179 180 160 92 35 21 10 11 76 130 133 124 110 99 72 22 5 5 15 50 92 106 109 107 75 47 76 121 159 180 187 185 188 185 185 178 179 176 172 167 166 158 147 146 144 140 135 128 119 109 98 88 68 47 37 43 33 31 27 21 39 81 103 151 208 202 159 134 154 163 169 175 179 193 198 199 198 204 211 212 209 213 219 214 207 206 208 206 206 203 198 193 176 166 139 90 98 125 75 60 118 127 117 103 95 88 56 36 14 11 33 51 85 104 102 101 59 43 71 110 146 179 184 189 185 185 185 179 179 176 170 164 163 156 145 140 138 135 134 129 117 106 98 87 65 42 40 44 27 22 26 27 60 67 123 162 203 206 168 130 153 161 164 174 180 187 192 195 199 205 206 209 209 209 211 210 206 202 201 205 205 201 198 198 183 154 141 122 153 193 171 154 175 156 130 95 81 77 68 63 52 46 58 76 105 109 93 71 42 49 78 106 136 172 187 190 192 190 185 176 175 170 162 162 157 151 146 141 138 130 133 125 115 106 96 81 62 43 45 44 31 26 24 25 85 97 125 166 192 186 163 121 154 160 161 172 181 187 183 191 200 202 205 208 210 208 206 209 205 202 202 203 201 197 193 198 200 170 136 138 164 181 200 201 181 151 146 126 93 75 68 75 87 91 87 77 82 81 64 48 53 70 94 116 133 161 180 192 192 185 181 172 172 171 164 159 154 150 139 138 136 128 131 122 112 102 92 78 61 44 46 34 29 36 44 53 100 96 99 144 179 190 159 116 152 163 162 167 178 186 193 196 200 202 203 209 202 203 205 202 200 203 200 198 199 194 196 200 198 193 172 163 177 183 187 186 182 180 179 157 118 97 104 112 115 110 103 96 91 91 93 93 96 107 117 128 135 147 164 179 182 171 173 173 170 168 161 153 150 146 137 134 133 133 130 117 109 102 90 70 51 45 53 23 20 28 41 63 81 80 86 136 181 189 162 112 154 164 163 163 174 180 188 193 200 202 199 204 200 204 208 204 197 199 197 196 198 195 199 201 201 199 198 195 188 186 192 194 204 207 198 177 152 145 144 144 136 133 125 132 135 122 123 126 126 129 129 134 141 146 149 161 173 176 175 171 170 167 159 152 145 139 134 130 128 125 123 114 109 100 89 62 42 43 53 36 32 38 56 69 88 77 89 115 168 182 149 106 152 157 162 160 167 177 186 192 197 200 201 206 204 203 200 200 198 196 196 197 195 196 199 202 199 198 198 190 176 176 184 187 187 195 193 179 174 168 162 153 146 143 133 129 125 125 119 123 129 127 129 128 139 148 144 141 152 167 177 169 171 166 156 152 139 131 129 125 121 116 116 115 106 99 87 57 39 42 47 43 39 47 64 69 50 61 96 106 150 183 139 104 143 161 164 157 160 174 184 194 196 196 198 205 202 199 198 202 197 199 197 195 194 194 193 192 194 193 193 174 160 162 163 168 172 175 171 159 167 166 168 156 158 160 157 138 115 109 109 107 115 115 121 124 131 148 149 149 136 136 166 183 180 147 137 137 135 128 122 117 116 112 109 111 106 98 87 55 38 39 39 35 39 50 62 68 52 65 117 111 130 184 136 97 133 160 167 157 156 166 182 191 192 193 194 202 203 201 199 200 198 196 198 191 192 189 186 190 190 176 172 158 151 159 155 158 169 157 150 149 163 174 170 160 162 159 144 132 119 101 107 102 108 114 115 125 127 142 145 148 148 133 131 148 122 103 116 134 134 127 116 113 108 105 102 107 106 101 84 55 39 39 35 34 38 47 58 67 71 76 87 98 125 154 112 88 125 157 167 163 157 165 174 185 192 192 191 195 198 199 198 196 190 193 192 188 190 181 181 180 187 163 148 143 143 156 155 163 168 157 150 151 157 174 169 170 165 160 136 118 129 124 97 100 105 107 108 99 113 129 128 126 140 142 130 108 90 94 124 140 133 123 115 110 101 99 97 105 106 99 81 57 39 42 37 36 40 44 52 60 90 95 85 87 114 116 108 88 129 158 162 167 159 156 166 180 188 191 190 192 193 198 183 184 190 185 172 181 183 180 172 167 167 151 154 141 144 163 151 164 162 157 158 149 159 179 175 169 160 150 153 123 128 130 96 96 92 95 111 111 100 109 119 113 126 141 138 122 87 109 131 117 118 120 113 102 98 96 101 106 105 97 76 52 36 41 37 39 42 45 50 60 47 43 44 61 73 84 93 88 135 158 157 165 159 154 160 171 179 186 190 183 183 169 153 166 174 161 158 176 175 170 168 161 154 148 159 146 156 163 161 166 165 158 147 144 172 180 180 181 174 163 154 139 126 132 103 93 101 98 92 114 113 119 118 111 110 115 120 127 109 85 114 125 121 118 112 99 91 92 100 105 104 98 74 49 40 39 35 40 43 46 51 67 57 37 20 38 79 42 50 88 131 158 158 162 162 156 158 169 176 183 178 166 155 153 140 145 149 155 166 172 168 164 161 165 165 159 161 165 168 168 163 172 168 164 151 155 170 168 181 180 166 162 142 126 125 139 121 109 98 100 98 114 112 130 124 121 100 108 113 107 116 90 100 147 128 117 106 96 88 91 99 103 102 96 74 46 42 36 36 42 44 47 51 68 44 27 41 34 46 87 45 80 126 160 160 168 165 156 160 160 170 179 178 153 148 139 128 131 146 164 167 180 172 166 167 169 168 177 166 175 168 167 172 170 166 175 175 173 178 175 171 159 143 128 122 96 113 122 98 95 90 87 104 122 115 111 106 99 97 92 112 107 96 102 79 136 138 120 104 94 85 95 99 103 102 91 70 42 38 35 34 41 42 47 62 56 20 40 73 22 10 66 64 75 130 158 160 167 169 160 159 159 167 173 160 158 159 152 152 155 157 161 172 174 175 175 176 177 163 162 153 156 159 158 151 131 142 159 152 145 149 135 115 109 109 103 106 93 106 100 86 88 84 77 91 92 101 82 91 89 95 76 104 113 102 106 80 123 144 126 105 91 83 95 101 104 105 95 66 44 36 34 33 36 39 39 35 42 23 91 34 25 31 21 80 86 133 154 161 170 171 164 157 161 163 170 162 156 166 170 162 162 168 164 157 154 161 169 166 158 155 130 134 155 161 162 153 139 135 135 124 118 120 105 103 98 95 108 109 105 98 86 83 88 90 73 73 66 76 69 77 81 91 79 113 120 112 106 93 110 138 122 106 91 81 95 101 103 106 94 62 38 36 28 19 25 21 13 6 26 111 68 3 34 26 18 53 95 125 155 165 171 173 168 164 159 159 161 161 161 153 155 161 161 161 160 142 153 151 138 135 129 138 137 120 129 141 145 145 136 120 122 112 109 109 102 100 88 89 97 86 79 68 67 70 75 69 70 69 63 57 50 40 47 87 97 104 120 99 94 98 101 130 113 103 81 81 96 102 106 106 90 63 39 40 24 13 17 19 27 23 20 82 12 27 111 36 28 43 73 118 159 166 171 175 172 168 162 157 157 157 158 152 153 155 149 151 152 137 132 113 104 107 111 113 101 88 82 90 101 111 103 88 89 87 85 83 85 85 77 68 70 75 79 74 67 68 67 60 54 45 43 39 34 40 95 132 131 130 140 120 104 96 108 128 103 97 73 84 99 102 107 101 83 65 41 39 19 7 10 18 38 45 34 2 21 85 92 44 54 52 77 100 152 164 173 173 175 170 164 163 158 167 169 161 165 161 149 152 137 113 91 93 97 101 99 90 94 117 125 127 136 132 131 129 131 135 134 129 135 137 129 125 125 124 121 115 106 97 94 83 64 55 55 69 95 121 143 152 142 145 150 137 108 90 118 122 97 88 76 96 100 102 104 97 81 65 44 39 19 7 5 8 11 14 15 16 103 140 101 71 80 76 70 107 153 165 174 173 173 179 174 166 159 161 172 174 171 162 161 168 168 168 155 158 144 131 128 135 153 165 165 160 167 167 160 161 157 152 150 150 161 159 147 146 140 129 118 112 109 105 104 100 93 96 99 110 129 139 138 141 144 156 156 144 116 93 130 109 88 79 80 99 100 102 101 92 78 61 44 41 22 10 7 8 9 10 16 146 133 92 92 87 109 89 70 103 150 166 172 177 172 176 182 173 162 157 169 173 174 174 178 183 189 193 193 188 177 171 156 155 155 150 154 155 168 179 172 169 166 154 152 148 160 157 145 141 136 123 110 110 103 100 98 99 98 98 106 115 127 131 128 131 141 164 173 158 112 102 120 99 86 75 92 102 102 101 97 84 66 47 42 37 26 11 11 10 10 10 12 62 74 136 113 120 127 114 97 93 137 164 170 180 181 179 182 178 168 155 169 175 179 183 183 186 192 194 197 193 189 183 175 169 165 157 158 156 160 170 162 161 162 155 152 144 152 149 145 136 127 120 114 115 110 111 111 103 107 104 109 121 124 127 129 133 140 167 175 146 102 103 109 91 84 86 100 105 102 101 95 82 58 46 38 36 25 9 9 13 9 12 12 144 207 172 122 131 139 140 84 90 134 160 170 179 183 182 185 183 174 159 165 176 180 187 189 185 192 195 195 195 194 188 184 182 179 176 178 179 178 178 171 176 171 160 156 154 154 153 153 140 140 138 133 127 121 121 116 109 107 112 116 119 119 128 131 129 148 167 161 125 101 111 98 83 86 96 103 102 97 98 92 81 70 60 48 36 24 13 8 14 12 11 14 246 172 95 117 116 128 119 87 90 136 165 174 185 182 183 188 183 175 161 163 176 181 185 189 190 192 193 194 196 192 192 187 186 185 184 187 185 182 182 182 181 175 169 164 161 155 156 150 146 145 138 134 128 122 120 117 119 117 116 119 112 120 131 135 135 154 155 142 111 106 101 84 76 93 103 104 99 97 95 94 84 77 67 52 39 24 15 9 10 15 13 11 150 88 78 72 108 146 113 84 74 119 155 168 180 183 185 184 185 178 167 160 175 181 182 187 191 194 194 196 197 192 191 193 192 189 190 189 187 187 178 176 174 168 162 160 157 163 157 151 151 155 149 146 140 136 143 133 122 123 121 116 120 127 133 136 140 147 142 121 106 106 89 76 88 101 101 101 95 96 94 87 79 78 62 43 41 28 14 8 12 12 14 16 57 59 45 112 144 114 99 80 65 93 142 159 174 178 181 185 186 181 174 157 167 178 178 183 190 194 193 195 195 194 191 193 196 191 192 189 187 190 183 180 181 173 168 160 168 176 162 164 168 169 162 159 161 161 145 131 125 112 114 120 127 130 134 133 140 137 126 102 110 103 91 91 99 103 98 94 93 94 90 79 76 81 53 40 36 18 21 14 9 13 13 19 50 36 68 99 73 63 106 141 106 84 129 155 171 185 182 185 187 183 178 164 164 173 179 184 186 190 190 191 192 195 193 194 196 194 192 191 192 192 181 186 189 175 179 176 182 178 157 174 174 170 172 169 155 163 143 119 120 110 118 125 129 127 132 133 135 128 115 112 110 89 90 95 100 106 100 96 96 90 85 73 67 62 44 39 29 25 19 16 11 13 13 16 37 46 52 94 86 63 62 55 61 82 112 146 163 181 182 186 188 187 176 169 166 174 177 180 186 190 188 186 193 196 194 193 194 194 193 192 194 198 191 191 184 174 189 184 174 178 162 186 175 165 171 163 158 140 140 104 124 112 117 124 126 127 131 131 124 119 118 116 101 91 92 101 102 105 99 98 99 89 77 63 54 46 41 41 45 39 20 10 14 20 14 18 36 42 49 65 65 60 62 76 95 111 92 125 148 175 178 183 187 187 179 174 170 176 179 181 186 189 187 187 192 191 191 191 190 193 192 191 192 191 187 192 174 165 184 172 178 173 169 190 171 161 169 161 147 133 127 108 122 122 116 125 129 130 128 127 117 117 118 108 98 95 96 104 103 102 96 98 95 83 74 66 56 47 43 42 34 48 25 15 18 24 14 11 26 29 65 76 79 70 90 146 161 215 102 84 144 171 173 172 181 183 182 175 173 178 179 181 181 188 187 186 190 187 186 186 187 186 189 192 191 187 185 186 178 174 168 174 174 161 156 176 155 158 158 145 145 132 121 117 121 126 128 127 129 132 129 129 124 118 115 111 101 92 97 101 101 101 98 99 89 78 75 66 52 44 34 32 25 44 30 19 17 24 19 7 18 37 34 67 126 122 108 115 100 154 116 78 123 162 170 166 177 182 180 176 176 180 182 184 185 183 188 187 188 189 189 188 189 188 185 190 192 186 186 190 180 178 175 180 173 174 154 165 147 154 136 146 151 123 125 125 125 132 142 131 130 130 131 130 134 116 115 105 101 97 100 101 103 100 99 94 91 82 69 60 42 39 33 33 27 45 27 19 18 28 31 8 38 57 71 50 96 133 131 92 92 69 97 107 90 130 168 168 176 179 182 180 173 180 179 182 185 185 183 189 191 182 186 192 193 193 192 193 196 194 191 188 174 179 178 172 172 164 155 161 141 141 142 172 142 119 125 128 135 137 150 132 140 135 141 141 130 124 111 104 96 101 108 103 102 96 95 90 86 71 70 54 38 33 37 27 36 32 16 21 19 23 39 10 78 44 78 127 99 132 153 147 112 78 75 90 67 99 147 169 172 179 181 173 173 170 166 174 180 188 191 185 188 185 188 193 193 196 199 196 197 196 196 197 192 185 182 167 159 151 147 174 146 137 152 157 136 129 134 139 141 143 146 138 134 141 132 140 130 116 107 101 99 99 102 102 104 98 91 90 87 71 64 47 46 38 37 30 37 19 22 28 27 17 43 22 211 163 123 155 166 191 211 218 212 107 56 55 63 75 113 161 175 178 176 167 166 152 147 170 194 193 190 184 183 181 190 195 196 195 192 194 199 199 202 208 203 193 188 168 142 159 160 162 156 143 148 134 139 141 145 151 155 152 151 149 143 135 138 125 143 111 106 100 99 94 91 96 103 91 88 81 71 67 57 44 44 35 33 30 38 13 19 27 26 15 43 36 243 246 234 223 223 221 222 222 239 141 140 87 62 72 86 128 165 170 173 159 155 154 160 166 181 193 182 181 193 185 190 195 198 197 201 204 204 205 199 196 191 190 187 174 149 162 168 160 153 148 143 136 140 147 161 159 155 153 160 157 143 138 135 118 126 132 99 90 94 93 90 90 89 81 79 77 63 64 49 48 38 32 29 41 24 16 29 24 29 14 35 43 235 236 236 233 236 235 232 225 235 166 201 153 62 71 72 89 140 161 156 157 154 151 160 166 172 184 183 185 190 190 192 195 198 201 206 199 201 197 188 189 177 177 186 183 170 166 168 164 159 156 146 149 150 148 155 164 152 152 146 161 148 121 120 120 113 111 98 90 88 85 88 87 86 75 74 70 58 57 49 43 35 31 40 38 4 15 32 18 40 21 25 54 235 235 234 234 230 234 238 244 253 200 96 64 63 77 59 64 97 138 157 164 164 161 160 163 171 179 185 188 188 180 185 192 191 195 193 187 189 185 182 183 169 181 191 184 177 166 172 169 161 153 145 138 146 147 138 156 159 150 141 151 154 120 104 107 102 105 96 85 78 77 79 75 77 72 68 64 55 42 45 39 39 42 42 10 5 26 28 15 45 34 15 59 235 234 233 235 234 237 245 194 145 103 34 23 57 66 68 57 63 103 142 158 142 144 147 164 163 164 174 184 178 174 179 185 183 182 182 176 184 180 175 182 177 184 187 180 181 171 178 175 161 160 145 131 140 160 140 140 148 143 132 136 144 118 97 103 100 97 98 75 76 71 68 73 65 68 63 63 45 36 35 33 44 52 22 2 15 32 18 11 45 52 14 54 235 235 233 237 247 217 124 36 8 5 31 59 53 45 72 86 63 78 107 116 113 131 139 152 148 162 173 165 163 171 184 172 169 168 168 179 186 169 166 177 181 182 179 173 166 178 182 169 163 170 153 143 145 159 139 122 128 143 141 132 129 88 92 100 101 97 108 80 70 61 62 58 56 52 48 42 32 28 31 33 41 32 10 7 21 30 8 11 41 65 22 49 233 237 249 234 138 59 15 14 17 13 7 61 69 27 48 114 80 74 75 95 103 109 120 135 141 152 152 156 154 166 180 164 165 166 160 179 180 168 166 175 183 174 167 163 165 177 166 168 162 154 155 148 157 150 134 121 120 121 122 131 110 84 87 84 94 89 85 74 63 55 54 50 48 39 31 35 27 22 28 36 38 27 6 7 25 18 5 7 29 73 33 39 242 227 162 114 11 9 19 20 16 16 11 12 71 42 35 120 119 84 69 77 85 96 107 109 122 145 143 143 156 153 166 166 159 165 160 168 165 175 160 163 184 163 165 162 155 161 159 162 164 140 148 147 144 142 131 118 127 111 98 130 88 72 80 71 81 76 57 55 61 57 47 45 38 30 27 31 27 30 37 38 35 22 6 14 20 10 6 4 21 61 61 34 233 114 11 17 18 17 15 16 14 15 15 8 52 56 42 122 147 125 105 74 69 79 82 90 123 127 136 138 141 138 153 162 147 153 164 152 161 173 156 141 166 161 155 159 145 154 155 150 143 139 145 136 121 133 126 106 125 105 91 116 109 68 65 66 67 71 48 52 54 53 47 34 28 27 35 31 32 39 39 38 34 16 4 16 13 5 3 3 12 37 55 43 82 18 15 15 18 15 11 15 14 12 10 10 23 45 26 122 151 148 153 115 64 63 96 96 89 114 135 144 134 127 140 151 159 149 149 144 160 170 151 133 148 167 154 146 142 156 151 147 145 135 147 125 127 129 116 93 113 91 92 124 84 64 56 55 69 60 50 53 43 37 31 28 30 35 41 38 36 38 38 35 28 12 8 10 8 4 2 3 8 23 35 46 14 18 17 16 17 14 12 13 14 13 13 11 4 36 37 108 155 154 148 141 84 51 67 64 82 101 114 118 109 121 136 133 153 144 129 143 137 153 150 140 136 158 156 140 136 155 147 151 144 127 142 125 134 122 91 88 110 77 93 102 62 54 50 53 54 47 45 41 35 27 28 26 30 35 37 35 39 37 36 32 23 11 9 8 4 2 3 3 9 15 23 32 19 19 16 15 15 12 12 9 12 12 14 8 6 9 40 113 156 157 157 158 139 76 51 45 61 90 103 86 85 112 126 126 127 128 144 148 131 143 136 130 130 150 161 125 122 147 141 139 131 113 132 129 128 111 78 82 102 77 85 57 47 51 48 52 45 37 28 26 20 20 31 22 24 38 37 36 39 37 32 28 15 8 7 4 3 2 3 5 7 9 17 20 17 14 18 16 12 13 14 9 13 13 10 11 13 10 4 97 160 160 165 166 154 101 67 43 46 73 85 82 84 93 109 112 99 116 120 121 142 132 125 120 137 136 134 123 112 123 131 129 124 124 121 118 113 94 71 72 76 76 83 46 42 43 55 46 43 28 17 18 15 20 28 28 31 35 34 37 37 36 32 23 10 5 3 3 3 3 3 4 6 7 9 9 13 12 18 16 12 14 15 13 15 13 10 12 13 7 0 84 155 160 165 163 154 129 109 74 45 58 59 64 73 92 113 98 84 107 93 102 129 125 109 119 133 132 117 121 118 108 111 127 124 124 118 126 105 81 73 61 48 63 66 38 36 42 47 30 20 18 15 16 14 21 25 30 35 35 35 36 36 36 32 21 7 4 3 3 3 3 3 4 5 6 5 4 16 15 16 14 12 13 14 15 13 12 11 9 12 7 1 82 154 159 164 161 166 156 139 110 88 61 50 60 68 77 88 98 96 95 79 106 114 104 98 107 124 128 118 105 112 99 103 120 122 108 96 120 97 71 65 52 37 64 53 34 35 37 32 22 11 13 14 18 18 23 29 30 31 33 34 35 37 34 31 19 7 2 3 2 3 3 4 5 7 7 7 5 16 15 14 13 14 11 12 12 11 11 10 9 9 10 7 74 151 155 159 163 166 160 139 120 114 86 71 59 53 54 71 85 76 72 82 96 85 94 88 102 107 106 102 104 87 94 92 124 112 90 83 101 95 53 66 40 41 57 37 31 27 29 23 18 14 17 19 21 25 25 28 30 32 33 33 35 36 33 30 19 7 2 4 3 3 5 6 6 7 9 8 5 15 14 10 12 15 12 11 10 9 10 10 7 14 14 11 66 146 150 162 157 155 152 135 130 124 110 98 67 52 68 53 62 56 70 73 71 82 73 68 89 96 90 79 91 64 76 82 114 90 76 62 68 58 61 54 25 37 41 41 27 21 18 20 24 20 18 19 21 26 28 30 31 32 32 32 34 33 32 28 17 5 2 2 4 5 7 7 6 6 7 6 5 15 14 10 11 13 12 11 10 9 9 9 9 15 12 1 55 141 145 156 149 155 151 140 129 127 127 112 98 85 94 63 36 67 76 58 57 51 55 65 77 70 52 61 66 73 61 88 98 63 63 58 53 54 54 30 25 39 42 35 15 20 17 18 20 19 19 19 23 26 27 29 31 30 30 31 31 33 32 25 14 3 3 3 5 7 8 7 5 7 8 6 8 13 10 11 12 14 11 10 11 11 8 9 10 7 6 2 40 139 146 151 162 163 163 154 151 159 136 125 132 134 100 74 58 85 73 49 47 41 75 74 51 44 28 42 64 68 65 77 59 53 61 52 48 57 43 25 26 33 29 22 18 19 18 17 17 22 22 22 22 25 28 28 30 30 30 31 32 31 29 21 11 5 5 4 5 7 7 8 5 6 7 9 9 11 11 13 13 12 9 10 9 8 8 10 9 8 7 2 30 134 150 153 165 168 170 165 153 159 156 154 151 153 145 134 119 100 76 65 70 58 78 47 25 36 41 45 51 39 41 44 51 44 45 26 40 32 36 27 30 36 23 18 18 18 18 19 18 20 21 22 23 27 28 28 28 29 30 31 31 31 27 18 7 6 8 6 5 6 8 9 6 7 10 10 9 13 13 13 12 10 9 11 7 8 9 8 9 9 7 1 26 128 151 156 164 169 173 177 169 166 160 159 163 159 154 163 162 128 121 134 98 73 52 38 33 36 33 25 23 27 32 58 29 31 28 24 24 29 24 21 22 25 22 18 18 19 20 20 20 21 23 25 25 26 29 27 29 30 31 33 32 29 24 12 5 6 6 7 5 7 9 9 7 7 7 6 6 13 12 11 12 10 9 10 7 9 8 8 8 6 5 7 42 121 150 156 167 167 168 178 184 180 176 168 165 160 157 165 176 165 161 155 145 125 103 78 60 47 38 40 43 24 27 38 19 20 21 21 21 26 18 18 22 20 22 22 19 20 21 21 21 23 23 23 27 28 29 29 31 33 33 35 33 28 18 6 5 6 6 6 6 7 6 7 8 9 9 8 4 12 13 9 9 9 9 9 9 10 9 10 9 5 8 19 39 115 147 151 164 167 166 175 179 183 182 175 167 166 168 164 171 177 180 172 162 156 151 127 97 86 74 61 50 40 34 27 27 27 25 24 22 21 23 23 22 22 23 23 22 23 23 24 25 26 28 28 28 30 31 31 34 36 37 38 33 22 9 4 4 3 7 8 7 5 7 8 9 10 11 6 5