P2
# Generated by OpenCV 4.2.0
92 112
255
27 29 36 38 43 63 75 73 64 72 78 80 91 112 114 131 124 129 139 144 141 135 132 150 152 157 156 160 166 167 163 171 172 169 177 176 182 176 158 176 170 157 153 135 169 150 118 117 121 132 107 153 92 103 122 98 143 127 103 121 84 114 80 74 48 69 62 62 58 80 100 86 140 89 65 58 87 94 58 84 71 30 89 52 38 57 23 26 23 23 17 13 33 33 33 30 59 66 86 66 50 80 86 76 85 105 117 128 133 131 132 135 135 140 148 156 153 159 163 160 163 167 173 170 174 178 182 183 181 181 173 171 175 172 150 154 138 172 120 119 141 158 144 139 138 109 107 94 121 112 104 141 105 140 78 80 58 89 61 89 80 89 75 91 144 80 65 61 70 122 78 63 66 73 83 63 66 43 26 25 22 17 19 14 29 33 34 30 69 69 78 69 64 75 84 91 94 103 121 142 141 136 140 139 138 140 152 158 158 158 162 160 166 171 173 191 182 174 182 181 187 181 187 172 179 183 172 166 158 155 140 130 129 146 140 110 161 137 80 120 141 121 136 142 113 145 84 87 73 82 79 78 104 80 97 89 140 82 71 69 67 81 128 66 78 85 83 97 63 30 40 30 18 11 12 16 29 22 34 30 62 53 66 56 63 82 90 96 96 106 128 141 141 142 142 137 137 154 153 154 160 157 162 159 164 176 181 180 178 171 181 186 186 187 184 193 171 180 190 184 180 141 159 132 99 131 140 135 118 146 110 105 113 130 131 127 128 146 90 119 86 101 77 78 115 124 85 95 124 99 87 86 81 96 98 85 81 95 78 102 87 55 36 29 23 17 10 17 24 30 31 33 60 52 60 50 72 83 82 101 102 108 131 130 136 144 142 145 149 147 152 156 158 162 163 171 173 183 176 178 178 186 183 188 188 190 186 183 192 180 174 180 191 176 166 143 137 125 162 115 89 118 113 133 113 82 119 124 119 144 103 114 97 103 104 92 106 138 89 97 133 117 86 101 109 63 68 93 99 94 92 75 85 75 28 23 21 17 22 16 30 22 29 37 49 54 45 59 73 83 90 96 108 113 129 132 140 140 140 144 145 148 158 159 165 162 172 172 177 185 162 169 175 181 183 188 188 185 187 191 179 183 192 183 178 195 182 174 154 108 125 165 97 101 89 132 118 100 112 128 132 134 115 130 137 131 122 116 109 117 126 100 121 125 98 96 96 86 69 101 92 101 71 99 81 87 58 33 19 18 15 18 35 28 33 41 45 42 43 64 78 80 89 101 113 116 130 133 144 141 151 147 146 154 160 163 162 165 170 171 177 175 177 183 192 188 188 186 196 183 184 180 192 191 201 208 195 205 202 180 173 143 118 137 81 64 95 92 97 108 73 123 113 125 129 138 132 115 150 126 118 113 116 107 130 125 100 120 111 90 55 46 110 77 118 106 74 106 55 35 39 21 24 19 35 32 32 39 43 45 52 62 78 87 87 104 113 121 124 138 145 149 150 152 147 150 158 163 166 165 167 173 170 171 178 184 188 190 190 195 185 196 195 194 200 202 207 196 200 201 215 195 191 181 154 119 121 81 78 81 90 129 108 91 130 100 144 125 135 120 155 120 124 118 121 98 116 115 137 137 128 104 61 62 73 90 123 102 95 133 68 29 24 27 24 19 35 33 36 28 41 45 51 66 76 83 92 107 118 119 129 141 142 149 150 154 155 157 164 161 160 166 172 164 175 178 176 191 187 195 192 200 193 196 194 201 199 201 203 206 198 200 196 196 201 188 190 141 122 94 82 75 67 74 121 87 101 88 115 121 136 150 160 125 131 131 105 105 97 135 145 130 133 117 125 60 53 72 106 85 136 136 50 31 19 26 26 31 33 29 23 40 41 46 55 65 82 88 90 111 116 120 125 138 144 153 161 153 157 154 160 159 153 166 159 172 175 178 177 179 190 185 193 188 193 193 201 191 197 200 197 205 208 210 204 208 189 203 196 176 117 90 83 82 66 73 72 120 107 95 111 115 115 144 129 87 120 128 117 78 108 106 122 126 120 131 123 69 63 84 60 97 105 113 54 20 17 18 12 26 55 30 26 42 42 44 59 68 84 91 95 107 121 125 133 139 133 153 156 158 156 153 161 167 159 161 173 168 176 178 176 180 178 185 195 197 193 190 204 204 210 196 207 192 209 210 207 202 206 209 204 199 181 115 83 72 76 71 61 77 76 75 87 104 119 120 118 130 152 151 100 113 107 90 122 152 105 112 104 84 73 131 54 50 103 115 79 30 29 17 23 22 39 31 28 42 40 48 63 69 87 93 98 116 117 125 131 142 145 147 157 158 155 152 158 160 157 168 174 168 177 179 178 183 181 191 188 192 193 200 198 198 195 200 203 206 213 204 208 203 205 188 201 202 195 186 126 93 64 73 63 57 75 66 88 84 86 87 107 116 129 135 102 99 104 92 101 131 112 81 105 94 67 141 49 53 77 137 86 25 38 36 41 18 43 36 48 38 37 53 65 74 91 97 101 114 122 125 131 142 152 149 156 155 157 155 152 162 166 168 171 185 174 174 174 180 178 189 191 193 190 194 194 187 188 194 195 195 200 206 201 202 217 202 200 197 193 192 166 133 87 80 65 63 53 66 67 69 90 73 90 106 84 111 107 89 97 70 81 96 121 79 93 82 57 125 45 50 64 107 55 48 34 42 28 31 57 64 54 33 41 59 69 80 90 96 99 124 126 117 131 142 148 151 157 158 148 160 163 162 166 169 173 168 161 160 180 185 185 179 187 187 185 188 185 180 190 193 193 190 198 195 200 206 197 206 201 201 198 194 191 145 113 91 88 67 66 62 58 52 63 74 76 106 67 97 127 74 78 56 58 73 117 78 95 60 58 106 32 42 61 98 57 62 54 38 32 33 91 70 49 37 44 73 71 83 93 91 103 112 119 121 129 140 145 143 146 156 161 161 157 164 159 168 175 172 173 175 185 181 179 182 184 183 188 186 179 186 188 197 191 189 194 189 200 209 204 197 193 196 196 197 197 192 145 124 99 77 59 74 66 58 53 71 70 96 61 69 108 61 78 61 35 75 83 55 53 50 65 68 55 50 68 93 45 56 78 85 55 22 94 68 52 35 52 67 77 84 88 100 107 118 130 124 130 143 149 155 156 157 161 163 155 163 167 168 173 175 175 177 180 186 184 186 183 181 183 184 176 183 187 186 191 189 193 195 199 200 198 200 197 192 198 199 192 192 186 156 121 100 95 64 54 71 57 62 61 73 64 60 71 59 64 45 42 58 57 42 45 47 57 85 61 41 51 84 58 52 54 73 66 78 107 71 46 45 56 66 77 84 94 98 109 126 122 127 133 139 151 151 154 159 165 163 165 165 166 167 172 177 179 185 179 184 183 183 181 182 186 180 180 181 186 185 184 190 191 190 196 194 189 192 195 190 195 194 190 190 192 187 173 137 121 96 81 48 68 58 66 65 63 31 57 55 50 42 45 44 33 49 32 46 43 79 55 42 49 82 37 47 61 74 104 69 130 63 49 41 52 67 74 84 92 101 110 118 122 121 127 141 147 151 156 159 158 160 167 164 166 175 175 177 178 179 179 181 188 185 188 182 182 182 180 183 187 192 192 191 193 192 193 187 191 192 194 188 184 193 196 193 193 187 195 192 186 146 125 94 74 65 62 69 67 48 46 58 41 45 26 39 33 39 33 39 36 59 55 47 49 67 36 51 59 74 71 56 101 61 52 45 54 74 72 89 88 102 109 113 123 124 125 135 153 150 149 154 156 161 166 171 166 174 172 174 180 181 188 187 182 183 192 190 195 187 186 181 191 191 194 195 192 187 191 196 193 189 194 194 199 189 193 193 193 186 192 197 194 192 191 187 168 125 89 77 65 49 43 44 43 33 40 34 26 35 30 33 28 29 40 35 49 68 34 43 52 73 89 53 118 75 57 41 64 73 75 88 87 101 112 118 115 118 124 147 146 151 153 154 155 160 163 166 168 168 178 173 183 186 189 186 192 192 191 195 195 197 192 191 191 192 191 193 190 198 189 193 197 197 199 193 201 193 194 194 197 194 193 193 196 200 194 187 189 182 167 111 81 71 49 33 43 27 30 32 26 24 30 22 27 33 29 31 33 40 39 38 46 70 68 66 136 78 59 53 65 73 79 89 91 100 109 117 107 122 131 140 142 142 135 142 143 154 152 158 164 157 174 182 185 182 186 185 197 193 192 208 193 210 197 201 200 201 196 196 195 191 203 200 198 197 198 211 199 198 196 203 196 203 207 196 193 195 199 198 193 188 180 174 109 81 51 49 42 35 23 28 27 19 25 20 22 31 28 22 30 38 35 39 35 42 65 52 145 94 57 53 65 83 79 85 90 92 106 111 113 111 131 130 120 129 134 134 127 131 138 135 129 146 153 169 180 183 177 180 188 195 197 200 209 217 208 210 203 198 198 202 195 200 201 209 201 209 203 204 201 204 201 202 209 199 201 195 202 196 197 197 190 186 182 174 165 99 80 41 50 33 32 23 30 21 20 21 22 23 27 27 22 39 34 65 34 41 49 56 145 123 63 57 75 81 83 87 90 88 109 103 98 104 110 115 116 104 110 111 108 106 118 118 96 135 135 123 143 150 157 154 162 190 193 205 199 214 214 215 209 211 206 202 200 208 205 215 217 212 215 216 218 210 211 212 211 207 205 204 204 191 195 195 190 184 185 178 181 161 91 62 46 44 34 32 23 23 20 27 20 20 21 26 23 30 32 33 40 32 65 48 142 118 64 71 73 85 87 85 85 85 107 86 73 79 84 88 84 83 100 108 95 83 105 113 126 103 135 125 147 141 154 146 147 181 197 206 206 191 211 213 220 215 212 219 200 209 213 215 218 211 218 226 217 219 217 218 214 208 208 185 189 182 188 187 190 183 176 177 169 168 152 95 81 59 37 33 28 25 23 24 24 22 18 24 28 22 37 30 33 36 48 50 107 92 72 66 73 85 87 81 84 83 79 61 69 79 82 107 96 96 120 98 135 127 111 90 98 115 109 128 129 136 132 141 142 143 171 180 191 186 199 211 214 223 210 229 214 218 220 211 221 214 228 226 230 221 218 211 208 201 177 197 163 178 153 154 154 156 159 149 146 132 111 106 102 82 63 43 39 29 25 25 23 22 22 16 30 25 20 32 32 41 42 70 64 145 88 58 73 86 88 81 83 88 75 70 81 111 123 139 139 139 131 140 156 147 150 145 144 120 111 124 128 105 117 132 127 152 147 174 189 189 180 193 204 207 224 207 212 212 213 213 210 208 204 225 217 214 209 206 185 174 189 156 178 136 131 152 113 127 107 92 75 87 79 78 94 91 71 70 50 36 32 30 24 25 21 25 27 29 29 34 38 65 29 58 97 107 106 59 77 86 89 85 86 87 69 87 97 114 131 126 147 147 153 160 147 152 155 158 158 150 152 130 126 133 120 131 134 146 142 128 173 190 179 192 199 203 199 216 207 208 213 204 211 210 208 199 203 197 198 195 184 182 152 158 139 134 123 127 127 125 121 106 93 60 94 116 98 95 72 53 61 44 40 28 33 25 20 28 27 31 33 27 44 70 47 77 52 105 114 53 75 77 84 80 81 83 82 76 97 129 133 140 140 139 150 151 151 147 153 154 156 150 152 154 150 142 154 145 147 141 140 133 165 180 169 173 186 185 192 195 193 196 196 193 193 201 197 198 196 192 189 181 177 173 164 128 154 154 115 124 112 103 106 86 94 100 84 78 97 124 112 75 64 47 50 46 32 30 33 24 28 29 36 31 41 64 87 44 74 79 101 63 71 94 86 85 78 85 84 91 91 121 136 128 142 143 139 140 144 142 141 149 149 144 154 154 150 138 143 145 157 153 151 155 168 173 158 174 177 186 183 184 188 190 191 193 193 192 194 189 191 191 186 183 178 155 165 162 146 127 103 111 122 111 126 130 132 152 139 138 143 164 156 135 98 107 91 65 54 40 44 45 43 40 53 38 38 82 114 72 67 64 105 62 76 87 83 90 78 83 86 92 93 124 129 131 130 130 135 141 142 144 151 157 150 155 156 159 161 150 146 147 147 145 152 157 157 161 170 174 179 181 181 183 184 189 188 188 192 185 188 185 183 182 178 180 158 155 135 159 140 130 142 147 141 150 160 166 161 163 159 166 161 162 156 152 154 130 133 105 76 48 50 71 56 72 65 65 37 68 136 91 51 58 133 60 66 89 89 84 87 88 86 87 103 116 124 122 126 131 132 138 145 146 155 160 161 169 162 166 172 164 163 151 146 140 139 146 146 156 162 167 169 174 175 181 182 191 190 189 182 186 180 178 178 176 176 171 155 154 158 162 154 148 147 149 157 161 163 166 166 168 163 157 157 157 150 144 137 130 121 114 87 57 60 69 62 87 76 84 49 46 80 78 51 52 114 68 63 92 96 88 87 97 81 86 97 115 117 115 122 127 129 140 140 134 142 143 150 159 172 160 167 170 166 164 159 154 146 136 138 139 144 157 166 170 174 180 181 189 194 187 188 181 180 179 177 173 163 162 154 151 156 149 144 149 151 157 162 162 165 169 167 168 161 153 156 151 150 146 138 133 128 124 104 58 65 90 72 70 88 74 71 44 60 68 52 52 99 72 77 91 106 88 90 93 85 89 106 118 124 118 116 114 95 103 103 113 107 124 132 141 137 123 113 123 146 150 155 157 153 147 143 137 136 142 152 162 170 177 177 189 198 190 186 179 177 171 168 159 154 148 144 148 146 146 147 149 157 161 159 153 156 154 159 151 157 148 154 156 146 145 134 130 127 125 97 72 66 74 74 92 85 101 104 93 54 58 53 46 76 65 66 89 112 87 90 99 93 93 118 115 110 122 113 93 96 104 110 111 104 86 97 92 128 156 136 127 118 111 137 143 148 151 151 147 141 133 136 143 160 174 182 189 197 192 187 178 178 167 154 148 139 140 143 143 144 148 146 146 140 120 111 139 138 129 125 113 111 98 114 129 136 139 132 131 124 117 97 79 78 75 73 85 99 102 93 96 66 58 50 89 71 86 81 116 115 93 91 98 88 91 113 115 119 109 103 88 89 86 60 122 61 62 90 85 77 47 82 128 134 135 112 129 147 156 147 146 149 138 134 133 143 162 174 184 197 199 189 180 171 160 145 132 140 138 141 145 138 143 130 121 123 152 137 161 150 155 140 130 121 113 111 110 94 101 122 121 121 108 95 81 73 86 81 97 98 96 90 89 79 92 72 87 119 111 70 125 117 105 85 100 95 96 119 118 119 112 89 98 64 117 153 165 78 102 88 60 62 93 84 156 124 134 135 108 129 134 137 146 153 151 150 138 129 156 169 182 190 191 186 180 167 150 129 136 140 140 144 144 143 129 133 123 132 123 113 125 110 110 86 88 120 125 112 111 99 96 98 125 122 114 102 86 74 85 82 102 115 96 91 100 108 96 99 106 91 142 115 103 111 100 96 95 101 107 115 115 110 106 96 88 116 138 158 139 82 89 67 99 30 107 82 173 169 129 135 135 133 134 139 141 155 151 144 143 126 145 159 173 184 184 179 166 158 137 124 135 144 149 143 136 134 124 122 124 125 122 106 48 75 44 70 62 51 62 69 108 103 86 85 121 124 115 107 83 73 82 86 94 124 75 82 81 92 84 146 117 128 126 127 114 123 100 98 94 103 116 118 114 104 108 94 117 129 136 157 160 64 118 92 52 79 135 108 185 200 181 176 145 129 153 168 180 176 169 142 143 130 137 161 169 181 179 170 168 150 130 124 138 153 148 139 138 143 135 126 122 141 177 116 95 78 96 6 89 88 73 121 58 72 87 86 98 129 122 109 85 75 90 87 93 125 88 73 102 106 47 124 169 141 147 117 120 96 97 104 104 112 120 124 118 120 116 112 94 131 142 151 167 101 101 110 116 131 90 132 199 197 185 173 150 156 141 156 196 201 178 154 135 133 136 156 166 171 169 168 161 144 123 128 140 166 194 182 176 141 126 145 170 190 193 103 119 68 1 36 92 92 68 150 128 72 58 73 93 110 106 100 88 81 84 94 113 120 82 54 107 139 28 92 145 143 117 130 93 101 100 107 106 115 129 132 137 130 131 116 115 116 133 151 163 176 102 74 95 99 127 194 180 163 151 150 151 155 170 178 194 194 168 138 133 131 140 151 164 168 167 153 152 146 122 125 143 174 208 184 122 165 156 150 178 188 194 154 105 116 77 86 112 71 99 155 137 110 114 55 57 75 85 98 92 91 89 101 113 120 68 62 99 127 47 119 89 141 116 95 106 91 105 112 114 121 131 142 146 132 127 134 116 123 133 132 137 151 157 157 160 167 164 154 160 160 154 161 166 183 162 188 185 172 151 132 137 135 133 145 151 163 169 158 157 143 125 117 136 168 199 195 168 161 143 136 153 154 175 196 89 110 109 111 93 63 168 156 133 134 130 89 95 99 98 99 110 95 90 91 103 106 76 57 88 93 24 167 116 80 93 99 80 82 105 113 117 125 137 144 143 142 137 132 126 133 132 141 130 141 145 140 132 181 166 179 185 167 174 179 170 164 169 170 168 159 136 135 140 139 131 141 157 162 161 143 155 137 128 122 126 152 176 182 179 170 169 172 155 145 146 165 159 151 87 75 90 174 161 145 142 116 107 109 111 123 122 114 124 94 95 90 126 111 70 42 63 70 21 63 127 114 59 60 78 74 92 114 115 130 141 149 146 142 144 140 140 139 138 134 146 143 150 143 160 150 146 158 168 185 184 175 170 165 173 177 171 146 141 141 137 131 133 139 158 161 161 149 158 143 131 123 120 130 174 177 178 176 168 183 166 153 196 169 173 190 145 150 138 117 119 108 120 129 118 130 124 133 144 130 121 110 106 96 102 98 69 41 48 66 19 98 73 58 82 67 62 70 88 115 112 135 142 147 150 142 146 148 148 145 147 144 155 152 161 157 161 161 165 177 177 176 169 176 180 176 173 172 155 141 147 148 138 136 133 136 154 167 159 146 158 145 135 125 126 131 145 177 197 174 178 165 174 180 165 162 153 176 151 149 164 149 139 143 144 141 138 123 129 138 147 142 135 118 104 100 112 109 89 36 51 51 24 87 96 61 38 57 56 59 89 120 123 135 147 153 147 134 147 152 151 153 159 155 154 159 162 166 168 167 172 162 167 167 176 175 174 185 177 161 155 159 135 143 141 137 130 134 154 158 160 159 152 148 135 126 124 123 132 156 180 190 189 180 180 172 184 158 159 160 153 160 163 158 147 147 147 136 134 139 138 142 152 140 143 126 107 99 105 112 112 39 57 43 19 86 86 105 77 38 48 54 81 122 116 138 147 154 149 149 154 154 137 156 158 166 164 161 165 166 169 166 176 165 169 159 169 184 195 192 170 158 152 145 149 149 143 136 134 143 154 167 160 161 165 143 133 126 127 127 136 148 170 197 193 184 188 180 168 169 169 164 155 153 157 163 149 147 145 143 144 145 143 155 155 151 145 132 115 101 103 99 96 49 92 53 19 101 69 83 79 53 46 47 73 105 118 135 147 150 152 159 157 160 158 161 158 163 167 168 166 169 167 170 174 173 175 187 195 181 174 175 166 149 147 144 149 147 144 132 132 137 156 161 166 165 165 146 133 126 122 122 135 140 152 172 184 198 189 177 180 172 172 167 166 163 159 160 155 153 155 158 154 153 153 154 159 155 152 137 122 106 109 105 95 52 92 40 12 78 84 67 71 55 60 52 82 119 116 129 144 154 160 158 162 163 164 163 161 163 169 168 168 162 167 164 169 170 164 184 185 188 175 170 157 151 146 148 150 136 135 130 135 137 156 161 164 167 158 146 132 124 122 133 129 140 143 162 181 188 190 191 179 169 167 170 169 167 168 166 167 161 161 162 159 155 155 158 162 160 151 137 124 119 120 107 72 76 55 34 19 93 67 85 70 63 53 66 100 110 116 132 148 157 154 166 161 160 160 165 163 171 170 172 169 168 169 165 161 173 177 182 175 181 171 159 158 152 150 150 148 136 132 124 134 137 147 161 163 162 161 150 137 128 122 131 133 134 148 162 169 178 187 188 186 176 174 172 164 158 170 169 161 163 164 160 165 162 158 163 160 163 156 144 119 111 102 104 70 61 51 36 17 123 78 70 54 49 75 51 113 101 112 130 144 146 159 164 165 170 170 169 170 170 170 167 175 176 165 172 170 178 177 171 179 172 163 158 148 152 146 148 138 135 124 124 131 139 151 162 157 161 158 145 133 127 123 128 137 133 144 158 171 170 184 188 188 176 175 160 167 160 165 165 166 166 165 170 172 168 168 169 162 165 159 138 120 109 114 101 90 64 41 23 25 104 120 66 55 60 63 54 107 108 103 125 142 149 160 162 172 166 169 170 174 172 170 174 174 179 174 176 173 180 174 175 163 173 164 155 148 152 133 144 139 130 122 120 131 139 146 143 157 154 156 144 129 120 120 130 131 140 136 156 165 168 172 179 178 179 179 179 178 169 177 173 175 163 173 174 170 169 168 167 171 167 156 138 119 110 128 104 73 50 51 30 26 119 113 87 52 61 50 62 106 110 113 122 138 147 155 161 168 173 171 175 173 174 175 180 177 177 172 179 177 171 168 173 176 166 165 160 155 151 148 149 136 122 108 124 130 144 151 152 158 154 153 150 136 117 114 128 132 138 140 156 167 166 171 178 179 181 174 177 172 176 170 174 175 177 175 178 175 174 167 169 166 167 155 137 114 97 106 118 72 37 60 24 46 130 95 89 71 52 57 60 88 97 109 120 135 145 159 165 172 172 172 171 175 182 181 175 184 179 180 177 176 171 168 171 171 157 160 160 162 157 152 142 131 119 112 127 135 146 153 155 165 161 162 158 142 126 102 130 131 126 152 154 161 167 169 170 181 179 175 180 182 177 177 171 172 175 175 178 177 176 173 169 167 160 152 133 110 111 108 101 87 30 59 35 35 88 83 76 60 58 62 70 94 98 111 123 130 145 153 153 169 171 174 173 179 179 184 182 175 181 175 176 174 173 173 174 169 176 171 165 166 158 156 142 123 107 122 125 137 143 160 162 168 170 161 160 154 137 113 123 126 123 150 153 160 168 172 175 179 176 179 181 182 184 182 176 173 180 176 176 175 177 171 169 169 155 143 132 109 90 120 104 76 50 45 34 55 73 70 135 74 71 41 59 94 109 111 122 131 140 149 158 162 169 165 167 175 180 178 176 176 180 174 172 174 174 171 173 175 176 172 165 159 156 151 129 110 111 126 133 138 149 164 169 181 174 169 166 158 141 123 111 121 116 147 161 167 170 172 173 177 179 178 180 173 178 197 164 174 175 174 178 174 171 167 172 163 158 138 125 117 95 108 126 73 68 33 38 80 64 99 69 77 51 36 44 136 97 106 119 133 134 147 151 159 164 172 174 172 175 177 180 170 166 174 176 172 174 168 173 178 175 171 166 164 159 136 114 117 123 130 136 136 161 174 187 188 189 180 169 156 153 129 117 120 113 130 162 167 171 174 175 174 171 178 176 177 178 176 182 174 175 177 178 175 171 173 170 162 157 142 120 97 90 136 104 84 47 36 37 53 70 90 60 55 53 35 44 147 83 109 117 124 136 145 156 156 163 171 168 175 177 180 174 178 171 173 172 176 171 175 170 177 177 174 164 165 149 118 123 129 133 137 148 153 169 182 211 201 206 193 173 161 156 135 123 125 122 118 161 168 173 172 172 176 175 180 179 178 183 191 178 179 180 175 172 167 168 171 167 154 150 137 114 94 91 133 128 81 30 35 86 63 56 94 53 60 64 42 56 170 71 105 115 123 136 147 150 158 165 169 173 168 172 175 175 171 170 181 173 171 177 169 177 173 174 175 174 169 135 132 132 142 142 138 152 160 175 187 187 184 205 194 171 165 149 137 124 131 134 127 145 168 179 174 173 176 179 179 173 179 178 175 179 179 177 177 174 166 172 163 158 155 147 139 120 97 99 92 72 45 30 37 102 118 57 50 60 59 58 32 48 110 66 93 114 116 130 137 140 151 161 169 166 172 171 173 170 166 181 176 176 178 174 176 156 177 174 167 173 163 125 133 138 147 144 140 137 147 157 169 171 177 177 176 162 153 138 131 136 130 135 132 114 173 175 180 181 176 179 180 182 178 179 183 180 179 176 178 176 170 174 168 158 151 139 132 116 93 92 79 54 36 30 42 73 116 44 48 61 70 46 48 42 84 86 107 105 118 125 138 135 150 160 163 167 167 169 169 171 175 170 176 176 176 176 175 178 174 175 175 173 154 124 140 142 148 139 135 138 140 147 152 156 155 175 166 153 143 133 127 124 133 138 135 123 150 171 178 182 180 180 184 176 181 181 184 180 174 175 173 173 166 170 167 156 146 129 126 106 104 97 67 45 48 36 56 46 92 44 54 66 58 53 58 51 64 75 109 106 116 123 129 137 145 153 157 164 166 167 171 173 173 172 175 172 179 176 176 175 183 174 177 169 158 130 149 144 129 99 77 109 132 139 137 141 152 154 138 133 128 112 107 102 126 141 141 132 138 172 182 185 187 187 176 182 185 181 180 180 177 179 177 175 170 173 165 158 146 134 116 120 88 85 50 51 56 45 66 66 74 50 57 65 58 62 70 60 60 74 105 101 112 123 132 137 142 150 157 163 165 169 169 173 173 173 170 174 172 178 184 182 181 178 173 173 160 131 148 151 127 150 118 69 46 76 136 133 137 136 126 130 47 39 64 121 108 140 149 134 126 168 175 183 185 189 185 178 180 181 182 179 178 175 176 176 169 166 162 153 141 122 115 103 88 81 43 59 100 85 60 72 70 42 49 55 65 69 94 61 76 90 104 106 109 117 126 138 141 145 156 160 162 164 169 167 177 171 169 178 178 184 176 183 177 180 175 170 169 128 147 159 153 173 179 118 109 136 94 123 130 132 126 79 92 104 165 180 158 151 151 137 127 170 174 181 187 184 186 182 181 180 177 180 178 174 177 173 166 157 155 151 140 119 109 111 90 76 42 93 142 132 76 77 80 42 49 105 120 89 86 47 92 94 91 115 110 115 132 131 138 145 151 145 159 168 169 170 172 176 171 168 175 179 183 183 173 173 172 173 164 130 140 159 164 182 182 162 154 142 132 123 117 115 109 124 134 147 168 176 167 162 145 120 158 173 175 177 189 193 186 186 183 181 177 180 176 171 173 171 165 155 154 150 134 121 107 97 98 68 45 126 156 154 144 77 82 41 34 93 129 89 58 62 95 107 78 108 107 115 125 128 136 138 144 146 159 168 165 168 172 171 171 170 182 180 183 180 176 172 168 173 169 166 129 141 157 165 162 175 180 166 150 145 141 133 126 148 166 167 154 151 153 147 117 139 173 174 173 171 180 187 196 188 174 183 178 178 181 172 172 167 160 156 144 139 127 108 109 100 92 59 70 115 157 161 165 146 90 31 44 34 103 68 54 90 99 125 75 98 110 118 125 128 131 136 146 155 154 163 168 165 166 159 171 175 177 178 180 178 172 171 168 172 174 170 162 145 151 157 164 167 176 178 177 169 156 156 163 168 169 163 151 137 137 143 160 167 173 175 176 176 178 185 189 189 180 182 178 173 177 172 169 172 163 154 144 140 127 105 113 97 86 54 118 95 157 170 165 155 124 33 42 42 34 45 52 80 96 105 71 94 113 124 124 129 137 138 145 155 154 162 164 161 168 170 174 179 182 178 179 174 169 172 174 173 173 172 169 166 163 160 161 173 181 185 187 190 174 176 175 180 172 168 157 156 152 167 174 174 176 175 176 176 175 182 188 186 187 183 182 176 173 172 166 165 158 150 143 142 116 109 108 99 76 63 144 126 129 159 160 147 108 43 39 47 41 31 21 18 22 21 68 95 110 116 125 129 136 137 136 147 153 160 161 165 168 176 171 177 180 174 172 172 173 171 172 176 176 176 168 170 174 169 176 179 182 184 194 197 185 181 186 186 182 176 170 168 163 166 173 173 177 176 174 176 173 171 182 191 187 187 184 170 154 164 165 158 158 141 132 124 119 102 107 100 76 55 137 128 127 139 131 125 38 46 54 44 35 30 23 19 25 32 67 96 104 114 133 123 126 130 135 137 151 153 157 167 173 172 178 177 171 171 176 173 168 174 175 172 174 173 169 169 177 164 175 176 185 185 195 196 191 186 188 189 186 178 171 168 165 165 170 173 174 173 166 170 169 170 169 178 183 185 201 170 127 142 163 161 147 148 134 125 111 101 108 111 78 43 53 63 61 49 36 8 10 36 51 40 32 30 38 36 38 42 65 94 105 113 121 135 127 127 136 143 151 143 158 163 173 173 175 181 177 173 174 176 173 172 175 169 176 172 167 171 179 172 177 176 189 192 189 184 194 196 189 190 184 176 174 173 163 170 170 173 171 169 169 169 171 172 170 176 178 182 182 169 148 147 162 156 145 142 137 117 106 120 110 95 87 41 16 11 25 21 15 16 55 61 56 50 54 52 49 45 42 49 56 91 112 121 122 130 128 118 126 132 144 149 157 166 174 170 169 175 174 173 177 174 174 177 168 169 174 169 169 175 171 180 179 183 188 190 191 194 191 194 193 191 187 183 173 175 165 169 167 168 172 171 170 171 173 172 171 172 170 171 169 169 163 158 137 156 140 137 130 113 105 113 120 99 87 36 31 26 71 71 47 27 53 69 83 69 77 66 54 36 38 54 62 90 104 113 117 125 122 121 119 131 138 146 156 160 166 175 166 172 171 170 169 173 171 173 176 174 172 170 176 178 176 173 183 184 187 196 194 196 198 196 196 186 189 181 172 176 170 162 165 166 171 169 166 169 171 168 169 171 169 167 170 166 168 162 142 140 147 129 122 108 104 116 105 99 91 43 48 48 95 98 55 50 39 75 105 94 80 73 60 33 40 65 55 78 107 122 123 122 122 121 120 125 139 144 155 158 166 161 169 169 169 168 171 172 178 173 175 176 176 178 174 178 175 180 176 182 189 192 194 197 199 196 190 190 184 179 177 174 175 168 173 164 170 172 169 164 168 166 165 173 172 168 168 150 154 160 156 148 138 128 107 100 106 125 114 100 97 46 73 51 105 95 70 74 49 122 89 113 86 73 78 63 40 75 54 85 100 111 125 131 114 120 112 120 136 147 151 155 154 167 162 173 174 174 173 174 175 176 175 176 173 174 180 176 177 178 175 182 188 187 189 183 186 187 180 181 186 180 176 169 173 170 173 169 172 176 175 170 171 170 166 174 176 169 166 123 130 153 154 146 129 119 116 113 114 119 117 111 91 48 63 75 103 122 91 58 58 95 119 102 123 92 69 75 38 70 59 77 99 121 122 124 126 122 112 115 132 141 147 151 157 157 167 171 168 177 171 170 168 174 172 161 172 170 171 172 171 171 176 178 181 189 183 174 178 180 182 183 181 179 164 164 170 169 168 169 164 162 173 171 165 169 166 172 174 165 158 150 141 152 146 143 131 113 114 108 112 121 115 106 93 47 75 108 102 146 114 45 89 62 94 126 126 133 74 68 66 74 65 73 104 119 123 130 110 119 113 117 126 136 143 151 156 161 170 172 172 174 176 171 164 166 169 170 164 165 163 166 165 161 165 159 168 171 184 183 184 188 171 159 144 150 145 148 142 151 146 143 155 155 162 165 153 161 159 168 166 162 157 148 142 141 147 135 129 111 104 106 125 117 118 113 90 44 87 121 100 142 131 69 71 67 89 126 124 125 69 41 82 67 66 68 102 117 123 130 119 122 112 113 122 130 137 144 151 160 164 173 174 174 164 159 153 154 156 154 145 141 143 140 153 152 147 148 147 155 138 137 148 141 144 143 137 145 146 148 150 136 135 135 118 125 145 153 134 143 150 161 165 154 165 152 138 137 141 139 125 100 95 112 127 117 116 111 88 48 87 122 98 115 136 96 65 52 73 89 126 77 79 52 80 65 69 68 99 113 123 124 127 132 117 116 119 123 127 141 150 157 170 168 171 168 160 150 144 142 128 137 132 133 140 133 142 143 138 137 145 142 139 132 137 130 138 134 132 152 140 142 131 133 127 136 115 110 106 112 133 135 139 149 149 165 164 148 140 134 142 133 116 102 108 120 128 121 122 110 83 40 77 129 90 99 139 118 59 51 64 65 73 68 45 65 88 54 71 60 94 112 125 124 127 130 117 119 112 116 127 134 149 157 165 167 167 165 149 140 124 107 107 114 116 117 127 126 125 128 124 122 133 130 122 118 116 108 128 124 103 131 103 96 101 107 117 111 125 108 112 106 75 82 112 143 157 164 168 160 136 132 137 120 119 98 121 125 122 130 121 106 79 26 68 141 82 83 125 141 73 46 44 56 53 56 51 59 106 78 65 60 93 107 124 127 124 137 132 122 118 116 124 134 144 152 169 171 164 151 141 123 135 102 84 102 104 100 97 97 101 100 108 117 111 115 131 139 128 127 124 118 130 125 121 116 123 117 108 94 82 91 84 87 131 146 161 170 165 171 170 156 133 134 139 121 119 106 125 126 124 126 115 102 67 17 48 149 114 79 100 118 79 38 36 40 61 51 56 39 100 96 67 56 84 106 126 123 128 134 130 132 122 115 124 131 143 151 162 167 171 167 168 171 167 145 133 119 121 127 135 132 131 134 138 138 148 146 151 152 147 152 149 147 145 144 138 132 136 132 125 123 121 110 128 131 148 162 177 183 174 169 168 160 136 137 133 125 109 121 125 125 127 125 105 94 70 17 49 148 122 79 78 83 81 35 37 39 46 56 32 73 108 111 77 66 68 105 122 128 132 134 135 133 118 114 115 131 137 151 166 170 175 175 177 178 172 159 152 131 129 128 128 135 129 136 143 153 149 154 153 150 150 157 158 146 164 156 150 142 133 134 127 121 118 124 123 151 149 163 175 178 177 175 168 148 139 138 135 118 121 127 123 132 130 116 106 89 51 15 60 131 115 82 78 68 65 33 32 44 53 35 43 71 105 105 78 73 69 99 114 130 133 135 132 134 131 114 118 129 144 147 161 172 169 172 177 172 173 164 160 154 151 140 139 134 136 127 150 149 147 152 155 157 152 158 161 163 158 149 157 148 147 145 146 151 144 151 145 151 154 165 174 171 175 172 167 152 143 134 132 121 125 125 129 130 128 102 97 82 33 16 61 81 110 88 84 49 53 33 32 43 44 47 52 73 110 110 97 83 50 87 114 132 131 132 138 135 131 120 112 124 144 145 162 171 170 170 177 173 171 167 165 155 160 153 151 153 159 146 157 160 167 163 165 166 173 170 170 179 162 168 167 170 166 162 161 158 156 152 156 152 156 168 167 172 170 167 157 151 141 140 127 123 124 128 131 121 122 105 91 67 13 19 59 56 103 79 76 52 45 31 37 43 49 57 58 103 123 108 116 85 51 69 100 125 130 131 141 136 136 120 117 125 138 147 159 165 171 171 171 170 168 161 162 160 162 166 164 164 163 164 165 166 171 168 171 173 173 170 172 164 166 169 169 172 168 169 162 159 162 159 149 155 156 161 171 162 163 163 159 153 144 134 122 127 137 128 123 118 112 108 84 54 12 28 57 44 81 67 66 39 46 26 33 40 46 59 83 80 126 103 103 87 60 68 93 117 129 133 137 139 132 122 123 121 139 148 152 161 173 171 173 172 171 166 163 161 165 167 169 171 170 171 172 168 169 169 168 170 172 174 173 173 171 173 171 171 173 170 166 160 159 153 156 151 161 158 160 158 163 153 152 150 142 131 127 131 127 125 124 123 105 102 70 44 12 27 53 43 64 51 47 40 38 27 34 36 40 70 54 113 115 121 93 112 60 63 82 110 125 131 139 135 133 129 123 122 134 143 151 154 165 168 168 166 169 163 162 162 166 170 166 166 174 171 174 173 169 169 172 173 168 173 175 175 178 177 173 175 171 171 167 156 152 147 148 156 160 159 161 161 162 152 153 141 143 135 127 126 125 121 119 117 104 85 52 34 14 38 45 49 46 46 39 43 33 28 36 44 48 37 49 72 106 106 93 125 66 83 62 98 114 128 131 135 131 128 122 121 133 140 148 155 157 166 167 161 163 161 166 164 164 172 168 169 172 168 173 172 171 170 172 173 167 167 173 174 175 174 180 172 171 168 159 150 150 151 152 156 155 159 159 160 157 153 151 142 145 133 126 124 126 121 120 103 102 66 33 34 19 40 46 35 38 35 35 35 31 38 43 32 29 57 75 85 91 87 131 82 68 94 45 85 111 120 125 131 136 131 122 121 132 136 147 144 156 159 165 160 156 161 158 164 163 162 167 168 170 172 170 175 173 174 172 175 166 165 170 170 173 176 173 172 170 165 161 160 157 156 155 153 152 157 157 158 152 152 139 141 136 135 123 125 119 122 116 102 77 56 29 32 43 34 39 33 32 32 30 28 31 34 35 28 33 57 60 68 79 99 155 91 74 124 57 47 95 112 121 126 132 133 129 125 131 135 140 146 155 153 159 164 160 165 158 158 163 164 170 166 172 168 169 173 174 173 174 174 170 170 171 171 169 172 169 169 164 161 160 163 162 154 152 156 154 156 157 158 152 143 146 144 138 132 121 115 124 120 103 90 69 27 34 38 98 35 37 36 26 29 23 26 39 44 39 44 36 59 81 73 64 91 137 96 98 126 57 67 78 103 119 125 132 129 127 123 124 131 140 148 155 152 152 158 153 160 156 158 165 166 165 169 168 169 172 172 172 175 173 175 172 173 173 169 173 168 172 167 167 163 164 164 163 158 156 162 157 158 158 155 148 147 143 137 132 115 116 116 122 111 99 74 39 25 29 67 84 38 35 29 23 24 23 21 34 39 39 50 65 79 65 46 65 79 107 84 103 96 47 99 48 84 101 121 127 132 129 129 121 132 141 144 152 156 152 153 163 157 161 162 163 169 165 163 171 173 172 174 177 172 175 175 173 170 170 171 168 170 176 174 172 171 163 164 162 156 163 160 160 156 151 154 154 145 139 136 125 117 113 121 115 105 80 48 25 28 65 78 74 49 34 28 18 24 21 23 27 44 47 55 80 59 32 49 53 65 120 87 80 55 53 100 99 36 88 115 123 128 129 129 126 128 137 146 150 153 149 158 152 162 154 163 165 168 168 169 172 173 172 175 176 174 173 176 168 162 173 175 171 172 177 178 150 165 165 163 160 169 167 161 158 158 149 156 152 145 136 129 113 112 119 104 103 92 64 22 27 46 103 74 73 52 30 30 20 17 27 19 25 50 47 45 49 52 45 43 43 59 85 96 59 41 58 94 114 74 49 92 118 121 128 132 133 123 134 141 150 153 153 152 154 161 162 163 166 168 171 168 171 175 177 178 184 185 190 188 178 176 187 190 187 184 180 173 171 170 170 166 164 170 167 166 161 156 156 157 153 141 131 115 105 107 111 109 104 75 28 26 35 112 99 70 70 46 31 27 24 19 24 26 23 37 37 51 50 41 41 41 42 72 76 94 63 50 56 86 114 125 59 62 97 117 119 129 129 125 133 140 148 151 156 155 152 160 158 161 167 173 169 172 176 178 180 181 183 186 187 190 196 193 186 187 185 181 178 168 176 179 173 171 162 171 170 167 162 160 153 153 150 138 126 116 109 106 94 107 74 39 22 30 96 121 102 70 56 37 28 29 27 17 23 23 22 37 34 54 38 41 43 37 43 68 72 103 76 43 34 86 115 123 126 35 62 103 123 116 124 120 130 133 140 145 150 153 160 160 158 165 169 170 174 173 182 184 183 181 180 186 191 198 192 199 194 190 188 184 178 171 175 170 174 177 169 170 172 162 168 159 146 142 143 133 124 109 107 98 102 73 49 26 32 75 126 111 103 71 48 34 20 30 33 24 24 23 27 37 30 50 36 32 43 34 48 74 54 100 62 44 33 76 111 128 130 121 26 74 98 114 112 122 128 130 141 143 148 156 156 157 163 168 167 167 177 182 180 180 180 177 179 184 192 196 193 199 196 194 196 187 182 175 175 172 175 169 165 167 163 160 155 147 147 151 132 127 119 105 100 93 76 43 25 32 61 134 123 114 102 75 38 33 26 28 32 33 20 29 25 38 31 35 38 42 39 48 41 58 95 68 45 33 31 71 105 124 132 139 114 26 71 94 107 116 119 123 130 140 143 152 152 155 159 166 168 169 169 175 177 174 179 180 181 191 194 192 198 199 200 198 190 193 189 174 176 174 170 170 164 164 164 157 155 146 146 133 131 114 105 96 90 80 44 23 24 48 133 131 120 109 98 78 26 35 27 27 34 38 34 28 30 38 31 27 28 32 40 36 46 37 97 55 56 31 26 69 108 124 134 137 144 108 27 65 90 102 110 113 127 133 139 148 149 145 158 162 168 161 166 169 177 172 181 180 184 191 193 203 195 198 196 189 190 190 189 184 179 175 171 168 164 154 157 148 148 142 142 130 118 106 102 81 72 29 27 30 52 128 129 129 121 112 98 76 25 28 31 28 30 37 33 45 52 40 33 30 29 22 31 34 40 32 60 72 64 48 28 57 103 119 133 137 139 145 102 32 47 88 98 109 123 126 133 141 149 151 145 155 164 167 159 168 175 184 180 188 193 196 194 192 192 188 188 187 194 189 189 184 181 174 173 168 165 149 157 143 137 135 136 121 106 87 84 68 27 25 29 67 132 136 134 128 126 110 98 76 25 27 33 32 36 36 43 42 47 41 34 30 25 21 19 31 32 30 24 59 59 54 39 52 99 116 132 137 138 145 148 115 43 36 75 95 108 113 127 134 137 140 145 156 159 160 160 168 177 176 184 194 189 194 195 188 184 182 180 178 179 185 185 182 180 175 166 163 153 148 142 140 130 132 115 106 83 79 58 30 26 30 86 140 136 137 135 133 123 113 103 73 31 27 32 34 38 45 40 50 63 41 33 30 26 22 19 21 23 19 24 24 48 55 43 39 103 118 129 134 138 148 152 152 135 48 31 67 92 96 108 125 127 133 137 146 152 156 148 155 169 160 178 179 188 186 180 185 184 182 178 180 180 183 183 182 172 165 161 151 147 144 142 132 123 125 104 79 75 42 33 29 29 101 141 139 136 145 137 131 121 113 102 76 29 29 32 42 39 44 45 56 72 41 37 30 26 21 17 19 19 21 20 24 23 36 35 31 96 117 126 134 143 146 158 158 156 148 77 34 43 82 96 110 125 134 138 138 141 157 161 157 165 163 169 179 176 179 179 180 180 179 179 175 172 174 177 173 164 159 157 152 140 133 119 126 116 100 87 66 37 32 29 31 105 140 143 148 146 143 137 132 120 117 96 74 16 30 31 40 40 53 58 62 77 41 36 30 27 23 18 19 18 21 24 20 22 19 22 31 92 116 124 137 142 148 158 160 159 153 158 101 36 31 68 89 106 117 130 126 142 148 142 149 154 162 166 173 173 172 177 176 171 172 175 170 170 169 160 165 158 152 146 133 132 128 127 125 97 69 51 34 33 36 36 111 146 141 148 148 147 143 136 128 124 111 99 74 12 31 34 37 41 44 51 64 76 41 38 30 28 23 18 19 18 21 22 21 24 24 21 24 90 113 126 133 137 143 152 154 163 163 161 157 119 46 33 34 79 114 116 130 127 142 132 144 149 154 160 166 169 163 168 167 169 169 163 160 163 164 160 151 146 127 139 134 117 115 109 81 68 27 33 36 40 49 127 142 144 152 144 148 144 142 133 131 124 115 102 73 14 27 36 35 34 39 47 53 68 41 37 31 26 23 20 18 20 22 20 20 20 21 25 28 85 110 123 134 140 148 153 156 164 167 165 161 164 150 58 34 36 57 103 114 110 124 129 135 143 149 150 152 153 152 147 156 153 151 148 159 150 152 152 143 137 124 132 109 105 99 91 42 29 33 34 38 69 125 137 140 150 150 152 147 146 137 133 132 120 113 102 76 16 18 31 32 34 36 40 49 53 44 40 34 32 25 20 18 20 22 24 25 25 23 27 25 83 108 119 134 143 144 151 161 164 166 161 165 168 166 171 102 38 35 31 69 93 115 113 111 117 131 141 144 144 142 143 142 133 137 135 131 131 130 117 129 116 106 100 93 86 58 20 28 28 35 42 82 120 125 137 138 142 152 150 144 143 134 135 129 120 113 98 79 12 16 28 34 29 32 27 37 44 44 37 33 31 26 24 19 20 21 24 24 24 25 24 27 75 113 118 129 136 147 152 154 164 167 166 166 172 164 163 171 139 44 31 31 32 58 83 86 101 116 113 117 117 123 128 115 116 116 105 108 92 92 103 77 74 64 41 22 21 24 26 27 33 73 115 116 124 130 142 151 140 155 147 143 140 138 132 126 121 112 100 79 18 17 23 51 49 41 34 28 31 44 40 36 31 26 24 20 20 22 17 20 21 33 27 31 55 106 118 129 135 146 148 152 159 166 168 166 174 165 169 169 167 157 84 33 31 34 33 31 27 37 44 56 52 53 49 38 51 38 34 29 27 26 19 23 22 21 23 21 26 27 33 58 115 131 125 114 118 124 137 143 152 151 141 140 146 138 131 127 122 112 99 80 20 17 17 111 114 109 117 92 64 43 40 37 32 29 24 22 22 21 22 20 23 148 26 29 46 107 122 130 136 142 149 156 161 158 162 167 174 175 176 167 184 165 162 124 52 33 31 33 32 31 30 28 27 26 26 24 24 26 26 25 25 26 25 26 23 29 24 30 42 77 130 152 143 135 131 118 119 122 140 140 150 147 142 152 147 139 133 127 119 109 102 80 33 16 11 136 112 114 98 118 104 44 40 35 33 31 25 22 22 21 20 23 96 167 24 31 33 103 121 129 134 142 146 151 159 168 167 165 168 173 178 178 169 179 168 170 156 123 66 35 33 31 30 29 27 28 30 28 28 32 31 36 42 47 66 80 106 118 131 143 156 161 162 156 144 134 124 119 114 123 133 141 145 144 140 147 143 137 132 134 112 113 102 78 49 21 18 124 167 129 106 126 113 43 42 37 33 30 24 20 19 17 23 58 172 171 22 30 26 92 118 133 133 145 141 152 152 164 170 171 173 172 173 176 179 175 180 170 164 155 162 144 135 119 108 89 84 84 93 108 131 136 150 163 172 170 173 173 174 180 179 173 170 167 163 154 141 131 125 115 121 124 134 138 138 144 143 145 138 135 137 132 116 111 107 77 69 16 15 87 176 176 104 124 137