P2
# Generated by OpenCV 4.2.0
92 112
255
8 28 37 45 41 43 61 53 60 74 81 84 86 87 92 94 98 102 100 104 105 105 108 107 115 121 123 122 124 128 130 139 132 136 138 135 138 139 139 144 143 142 144 147 147 146 145 144 144 141 138 139 131 126 117 109 110 103 93 86 86 80 66 58 54 51 82 96 84 61 70 100 93 89 70 53 26 18 22 32 45 68 66 62 58 62 60 19 27 30 36 37 7 27 45 41 46 44 52 58 59 72 85 88 87 89 90 95 99 104 105 104 106 105 111 111 114 118 123 123 124 126 131 132 136 139 139 137 138 141 142 143 144 145 147 149 150 150 151 151 149 146 144 141 137 129 126 121 117 107 98 94 90 84 73 67 57 47 58 88 93 73 56 80 96 97 87 68 51 23 20 23 30 47 67 62 57 53 62 26 16 26 30 34 12 29 49 41 42 43 39 52 61 73 81 86 84 85 90 99 101 100 107 104 102 108 112 113 111 111 120 127 126 129 132 135 138 137 141 144 143 140 144 145 145 146 148 149 151 152 155 154 152 150 148 145 142 134 130 128 124 117 106 100 92 88 82 77 66 53 45 68 84 88 64 55 74 93 99 86 72 47 24 23 26 31 48 62 58 54 62 32 8 23 26 32 25 34 44 54 30 36 40 49 57 63 75 84 81 84 91 101 104 104 106 106 104 107 113 115 119 116 112 121 130 130 131 133 137 141 145 150 152 149 147 145 147 147 149 149 149 152 155 155 156 152 151 150 145 142 140 134 128 125 116 108 96 93 88 78 71 61 49 49 71 81 84 50 48 70 89 97 76 71 48 25 26 29 34 49 55 59 58 33 9 17 23 25 39 33 39 60 41 29 41 40 48 62 74 82 82 85 93 101 106 107 107 108 107 107 109 117 123 122 118 119 125 132 134 133 136 138 141 145 147 148 147 145 145 148 145 149 149 152 155 158 161 158 158 153 146 146 146 143 135 127 123 117 109 101 92 83 78 66 58 47 54 71 82 72 41 44 66 88 92 70 73 39 20 27 29 35 49 56 56 39 10 11 17 19 35 36 34 48 48 30 31 39 51 67 77 81 82 85 91 100 105 107 109 109 106 106 113 118 124 125 131 126 124 134 138 139 138 146 148 146 147 151 150 146 149 152 150 148 150 153 154 153 157 157 156 155 151 149 153 151 145 135 129 126 123 108 97 90 84 81 68 54 46 55 67 76 55 33 41 65 81 86 76 68 37 24 28 29 44 52 54 42 12 11 11 17 12 27 30 41 43 29 29 42 55 69 77 81 83 86 89 98 108 108 109 112 109 109 118 123 126 128 131 132 134 139 143 149 153 150 145 147 150 150 145 148 155 154 154 153 154 157 160 158 158 157 154 152 153 152 155 154 146 144 142 136 131 121 108 94 92 89 77 63 52 47 55 64 66 45 33 40 56 76 79 74 63 32 25 30 38 47 49 47 15 8 10 14 18 22 26 40 36 32 29 44 57 67 77 81 83 87 89 101 106 109 111 112 113 111 119 123 126 128 129 136 139 144 154 157 151 140 144 150 153 153 151 151 151 156 157 157 154 158 158 158 158 160 161 158 159 160 156 153 148 148 149 146 136 129 119 107 100 91 82 72 59 49 46 59 63 54 39 34 41 52 66 77 71 51 27 28 28 39 46 50 27 9 8 9 26 22 38 46 34 30 34 45 57 70 77 81 85 89 91 98 106 109 112 114 114 115 118 122 125 131 134 138 144 156 159 150 142 148 155 155 154 154 150 151 150 150 152 153 155 157 159 162 161 159 160 161 158 158 158 159 157 153 151 150 148 137 134 121 107 98 94 84 64 54 45 50 58 58 43 36 31 41 49 66 70 70 43 27 30 34 42 47 43 15 7 7 25 31 58 46 35 30 37 47 58 69 77 83 89 92 94 100 106 108 111 113 115 116 119 122 126 132 137 140 146 156 147 138 141 153 153 153 156 152 153 156 155 150 147 153 158 161 160 160 161 159 158 157 160 157 158 157 155 154 154 156 151 141 135 126 117 103 99 94 76 59 50 46 53 56 50 42 36 27 39 48 66 73 64 34 30 31 37 41 42 33 15 10 20 46 59 42 36 32 37 47 57 70 77 80 90 92 96 100 104 112 112 115 116 116 121 123 127 129 138 143 147 151 139 146 155 157 154 157 156 156 159 156 155 158 164 162 161 162 161 160 158 159 157 154 157 162 159 155 155 158 159 159 160 150 145 135 126 113 109 101 88 70 53 47 48 52 52 45 41 28 28 39 48 68 67 46 33 35 33 37 36 30 21 11 32 62 46 42 39 36 41 48 61 72 76 84 92 91 96 100 106 113 117 116 114 115 123 125 130 133 138 142 147 141 143 154 159 159 158 160 156 159 157 159 160 162 163 160 161 164 165 163 161 160 160 159 154 159 163 160 159 162 163 164 161 159 152 141 132 124 116 106 97 83 66 52 46 46 51 46 41 36 25 30 38 51 68 57 38 42 38 33 37 30 21 8 59 50 37 47 44 39 44 54 66 73 78 86 93 91 93 101 106 112 121 119 119 119 122 126 128 136 137 138 145 147 149 154 157 155 157 159 159 158 156 159 158 155 157 158 158 160 160 160 154 156 158 156 154 155 159 157 158 160 162 166 163 160 158 144 135 129 121 112 102 93 85 63 48 43 47 47 41 39 31 24 32 36 56 61 45 41 44 35 33 36 30 13 55 34 35 45 42 41 50 62 72 77 79 86 92 92 94 99 106 109 123 123 121 119 120 126 129 134 140 143 145 147 145 148 150 151 156 156 160 158 158 156 155 155 156 157 161 161 161 160 158 156 155 160 158 156 152 158 159 159 157 160 162 163 158 156 149 138 126 118 105 98 94 81 61 47 44 47 42 34 37 28 26 31 41 53 48 35 42 39 38 32 34 19 33 25 28 41 39 43 55 67 72 76 80 86 90 93 97 99 102 111 125 123 118 116 123 127 130 134 139 142 141 144 146 147 146 152 158 158 158 157 160 164 157 157 160 161 165 166 166 162 160 164 164 159 158 162 160 159 160 160 158 157 159 160 157 153 155 146 139 125 112 105 100 95 77 57 45 45 48 36 38 33 24 28 36 43 53 35 38 39 33 34 39 28 24 21 28 38 41 49 58 64 70 79 82 90 94 96 97 100 108 116 124 121 120 121 123 127 132 138 142 146 139 136 145 150 150 154 155 157 156 152 155 155 155 155 157 159 164 164 166 166 165 166 165 160 157 158 158 157 154 155 156 156 159 157 156 155 153 150 147 136 122 113 106 102 94 74 53 45 44 42 34 38 28 23 31 36 48 45 32 39 28 28 43 37 25 21 27 40 38 46 56 65 75 84 83 89 96 97 94 102 111 119 124 124 125 126 126 123 131 141 143 146 136 131 144 149 149 149 154 154 156 157 153 153 154 155 155 155 159 163 165 166 167 167 164 162 160 160 157 153 152 154 156 156 156 153 152 152 151 150 146 143 135 124 113 102 102 91 69 47 42 43 34 35 33 24 26 34 38 45 33 34 31 23 39 42 15 18 31 33 37 46 56 68 78 85 83 87 95 94 90 101 113 118 124 127 129 128 126 127 132 135 140 138 138 141 149 151 148 150 153 152 154 154 156 155 155 157 156 157 161 163 164 163 162 161 162 161 162 161 158 151 153 152 152 153 152 152 150 145 150 152 147 139 141 137 129 111 99 100 87 56 47 41 40 34 33 26 24 32 33 42 38 35 31 20 31 41 12 20 27 30 36 41 59 73 78 84 85 90 93 94 92 100 115 117 124 125 124 125 125 129 133 138 141 143 148 151 151 153 153 154 149 150 151 154 149 152 154 161 160 160 161 162 155 159 165 161 158 163 162 160 156 151 151 151 154 150 147 151 153 150 151 150 152 148 143 139 141 129 109 105 101 75 53 43 34 38 31 30 26 29 34 41 44 31 30 21 26 34 15 17 28 31 30 43 64 76 78 81 86 90 94 93 94 100 109 118 121 123 123 128 128 127 133 137 141 148 150 152 154 153 154 154 155 158 156 152 151 152 156 156 157 163 164 165 158 162 166 164 158 163 163 161 158 156 155 154 156 154 154 154 156 158 158 154 153 157 151 147 145 141 126 113 106 95 66 45 28 34 31 32 25 25 32 39 46 32 28 27 21 31 14 17 28 28 32 47 66 76 79 83 87 88 93 94 93 96 105 118 122 121 124 128 131 129 132 140 144 146 150 151 151 157 158 158 162 160 159 157 153 154 163 160 161 165 170 169 167 166 167 165 161 157 164 163 165 164 160 160 159 162 161 161 161 160 162 157 153 159 156 150 148 144 144 134 115 103 78 52 31 31 33 29 24 24 32 32 40 43 27 27 19 25 9 19 28 32 32 47 69 76 79 82 84 87 92 88 90 95 114 122 123 119 123 129 129 132 134 141 143 142 154 158 161 163 160 162 162 167 166 161 157 160 164 167 168 165 166 165 164 166 165 167 168 167 164 164 165 165 160 164 163 162 166 164 163 161 160 158 157 157 157 149 151 149 149 145 132 110 88 56 37 27 38 28 26 21 29 29 31 48 43 23 19 21 5 20 31 36 28 51 71 75 77 79 84 89 91 88 90 100 116 120 124 125 124 132 131 133 134 139 144 143 155 159 161 161 166 166 165 167 171 169 170 171 170 169 172 172 168 163 166 168 171 173 170 173 169 168 167 165 165 167 173 169 167 169 165 164 161 163 159 161 161 155 152 153 153 147 140 124 101 63 37 27 29 30 26 24 24 28 27 41 43 34 19 19 5 21 36 33 29 52 70 74 77 76 83 88 89 86 97 108 116 122 122 122 119 127 127 131 136 137 145 148 153 161 164 163 169 168 167 173 174 177 175 175 175 176 175 170 165 169 171 172 179 176 175 173 171 171 173 173 173 175 176 172 172 173 172 170 160 160 160 160 161 156 153 152 153 150 146 136 115 74 42 31 21 25 27 28 21 25 25 36 37 42 23 18 4 25 35 33 27 52 71 74 78 76 81 85 86 92 101 113 114 115 111 103 105 108 109 110 111 116 125 137 145 148 155 157 163 169 165 171 176 176 176 178 178 176 174 169 169 175 172 175 178 176 176 176 174 176 180 178 174 176 175 175 173 177 177 174 164 162 157 159 163 152 148 153 150 148 146 137 125 96 56 39 25 17 23 30 25 23 23 32 37 46 41 25 4 28 32 34 28 53 71 74 76 75 83 88 88 94 94 94 97 100 98 88 85 84 88 94 94 91 93 101 111 116 120 135 144 154 159 164 169 171 176 178 177 175 177 175 177 176 172 175 173 177 181 180 178 179 183 180 178 181 177 175 177 177 175 171 165 162 156 158 158 153 148 149 154 147 141 136 125 112 78 50 35 20 22 29 28 26 27 33 38 41 37 31 14 28 31 32 33 60 70 74 76 74 80 83 79 74 79 83 82 85 95 88 78 76 75 71 70 73 76 78 85 91 99 107 116 131 144 153 159 165 167 169 169 173 179 179 177 175 172 178 178 180 183 181 179 180 180 178 179 181 177 172 176 177 176 170 164 160 160 158 158 157 153 146 147 148 142 138 125 113 99 67 42 24 19 26 30 25 27 32 39 40 36 34 17 25 29 33 36 56 74 76 76 75 75 68 67 70 73 74 70 70 75 74 71 66 58 51 54 64 68 70 73 75 83 92 105 117 124 140 151 158 160 163 163 167 176 176 177 181 174 173 179 180 184 184 178 174 174 174 168 162 162 160 149 140 141 148 146 143 144 146 148 147 147 147 144 145 142 138 124 110 108 85 57 33 20 16 29 29 21 22 41 41 38 34 19 21 30 37 30 57 77 76 74 75 76 65 63 72 82 84 75 77 81 86 90 87 84 82 66 57 59 63 64 68 70 79 97 112 107 126 143 143 152 157 157 162 167 171 171 173 175 171 172 179 175 176 174 169 166 154 152 149 146 123 106 100 99 105 113 122 126 121 122 126 130 132 133 130 135 142 128 111 108 100 67 43 27 10 21 32 26 19 33 46 30 38 18 16 31 32 28 60 77 75 74 77 75 73 76 80 84 93 95 90 91 97 99 97 98 103 97 85 70 64 67 67 71 83 89 99 104 115 139 141 144 150 152 155 159 160 160 158 159 165 163 167 165 167 170 163 155 145 142 141 136 110 100 92 88 91 87 91 96 101 100 102 105 107 109 118 122 130 133 123 109 106 82 50 31 9 13 31 27 21 28 46 33 26 12 14 29 24 31 61 76 76 75 76 71 71 79 89 93 93 94 97 96 96 98 97 96 101 105 98 97 92 80 76 82 86 90 96 103 109 125 137 137 144 147 148 151 152 154 152 154 157 159 156 160 166 161 158 151 145 134 124 125 112 92 81 77 77 79 77 77 78 82 86 88 93 100 106 102 99 105 113 107 105 95 56 33 14 8 24 31 24 28 40 39 23 7 14 24 24 43 62 78 77 74 75 74 75 78 85 92 92 89 91 92 97 100 105 110 116 120 115 113 117 104 86 84 82 84 87 96 103 110 124 129 137 140 141 141 147 148 151 151 153 154 153 155 156 153 153 152 145 124 114 115 104 88 83 79 74 68 67 65 65 68 72 83 86 86 81 76 79 82 83 93 102 101 70 35 19 12 11 28 24 27 34 38 27 6 10 19 34 51 59 79 78 75 77 77 81 82 85 87 84 82 86 94 104 108 116 128 132 137 136 134 138 136 120 106 93 82 78 82 90 97 108 116 124 130 134 140 141 144 147 150 152 150 148 144 145 147 142 140 133 119 118 114 103 101 100 93 88 90 97 100 104 107 113 114 117 112 96 88 94 94 95 88 88 96 82 44 23 16 8 10 19 29 33 32 29 7 10 23 49 42 59 79 76 76 79 79 80 84 82 81 79 80 86 96 101 108 111 123 133 141 147 146 151 151 151 145 127 108 87 78 75 80 85 97 109 120 126 136 138 145 147 145 149 149 148 145 141 137 136 131 123 118 116 108 102 105 108 112 118 127 134 137 142 141 139 139 137 131 120 116 118 128 123 94 74 85 88 63 30 18 9 7 14 21 37 29 29 10 11 33 46 40 65 83 76 76 83 81 80 85 82 77 77 84 86 81 80 81 88 94 107 116 118 123 129 134 141 149 147 139 125 105 88 80 75 80 93 108 119 129 133 144 149 148 151 147 142 142 138 129 120 113 107 105 104 105 110 119 126 137 142 148 147 149 147 144 145 142 137 131 128 128 130 129 122 110 86 84 90 76 45 22 12 7 9 16 26 31 32 14 9 39 43 50 73 83 80 79 83 81 77 85 86 80 79 73 63 70 83 95 103 100 113 118 121 125 121 113 100 101 123 135 137 131 119 107 93 82 82 93 109 124 138 153 161 165 164 157 148 136 126 119 111 105 103 106 111 119 130 141 148 149 148 149 146 151 147 148 148 146 142 136 129 123 119 121 121 114 99 92 93 85 62 32 15 13 10 17 20 22 32 13 10 40 45 57 70 81 82 82 85 83 77 81 84 79 69 61 67 81 77 79 72 56 50 47 51 63 81 105 108 100 92 102 124 136 133 119 111 94 81 82 98 118 140 155 167 175 173 165 157 136 120 114 111 109 114 121 127 133 135 134 123 112 111 111 113 117 125 131 127 140 143 138 132 124 115 117 113 110 105 94 96 95 75 43 24 16 21 24 27 24 25 18 16 42 51 61 63 84 84 83 85 82 78 79 79 80 71 69 60 53 52 59 62 32 39 74 76 72 70 56 85 103 110 92 97 120 124 117 118 107 99 92 95 116 135 154 164 172 176 169 156 139 118 111 114 118 125 124 129 128 110 92 92 103 120 131 130 132 134 124 111 111 109 122 135 125 113 107 107 113 110 103 99 98 89 63 38 17 28 41 41 41 30 34 37 41 62 59 61 82 84 83 85 83 77 78 79 80 74 58 47 41 59 87 83 40 59 62 18 45 101 70 108 102 89 95 96 102 106 111 116 115 108 106 97 110 129 147 159 164 165 164 149 132 119 117 120 124 124 125 123 112 101 107 116 109 107 102 96 107 115 125 127 125 110 99 100 116 116 107 112 117 114 106 102 99 99 85 59 30 26 43 51 48 42 52 54 45 62 52 63 82 84 83 85 84 83 81 77 73 68 63 69 82 96 110 117 53 70 84 60 70 74 70 157 172 119 87 75 90 115 129 129 132 119 112 106 111 132 144 155 160 159 160 148 131 127 126 126 121 121 118 113 111 110 97 88 72 46 64 65 55 57 53 71 87 105 108 96 90 113 113 113 119 115 105 104 101 110 108 80 48 35 35 53 56 52 55 59 54 58 50 67 79 84 83 84 88 88 89 84 82 83 79 81 94 108 119 135 98 60 71 82 86 69 116 164 150 132 119 84 81 107 151 161 155 136 115 112 116 131 142 151 155 156 155 145 134 140 147 145 138 132 129 110 89 82 97 136 103 51 90 59 44 89 64 39 64 67 78 95 94 98 117 117 117 113 105 108 104 112 117 85 59 48 36 49 65 51 39 60 63 54 58 67 79 82 84 87 92 95 101 97 93 93 87 84 90 98 112 114 124 108 102 103 108 129 141 135 126 127 130 136 138 142 158 168 151 125 114 114 117 126 138 149 151 149 152 144 138 145 156 171 175 157 116 101 95 118 147 175 135 71 85 40 34 74 59 51 104 85 53 66 97 112 114 115 114 111 110 108 107 114 117 83 63 59 42 47 68 44 51 54 68 57 63 64 79 82 84 91 94 103 107 108 104 98 93 88 89 100 109 108 112 121 128 119 133 131 130 139 136 123 123 133 146 148 150 151 133 118 115 116 115 120 134 146 147 141 144 139 138 140 151 171 179 161 137 130 127 126 127 143 151 88 85 92 91 81 48 93 129 106 82 62 69 95 105 110 109 109 112 110 110 114 115 82 60 68 42 46 73 42 86 73 68 61 66 60 78 81 84 91 99 107 113 110 105 104 101 98 90 90 98 102 112 122 125 132 138 134 130 130 120 115 120 128 136 139 143 138 119 118 120 115 114 121 135 143 140 140 143 133 136 140 145 157 165 163 158 151 144 136 125 135 141 140 125 114 102 83 93 143 136 120 108 88 86 89 93 101 107 111 116 112 112 119 117 82 62 73 42 42 60 44 109 101 70 61 67 59 78 79 85 93 105 114 118 115 111 110 112 108 104 97 96 97 102 107 112 112 111 119 124 129 121 130 136 137 144 148 146 129 122 122 118 114 111 118 132 142 142 138 147 137 132 139 139 150 162 153 150 145 137 126 129 133 131 135 138 138 149 127 122 125 125 124 116 107 115 116 106 102 111 115 115 113 113 118 116 78 66 82 48 38 44 42 114 105 81 65 60 59 78 80 85 93 107 117 120 123 120 114 115 118 120 116 111 112 109 108 118 124 130 137 140 144 138 139 146 149 147 146 136 126 127 126 117 115 110 113 131 142 141 141 144 137 130 134 140 143 156 157 149 148 141 123 118 126 137 142 138 140 148 136 132 134 133 126 124 125 120 129 129 117 119 117 117 115 113 114 111 69 67 85 47 33 37 32 115 106 81 66 59 63 79 80 85 95 108 121 125 127 122 116 119 122 118 120 126 132 134 134 143 148 150 151 149 145 141 145 151 155 150 139 133 129 125 127 120 112 107 111 131 146 150 149 143 134 130 134 139 141 145 155 155 153 151 144 135 125 122 124 128 136 141 141 139 137 131 124 118 123 127 131 136 132 128 124 128 121 116 114 111 69 72 92 46 28 32 25 110 103 78 66 61 65 78 81 87 97 109 122 128 131 132 126 125 124 116 122 131 133 140 147 152 154 152 155 152 143 149 152 155 154 149 139 127 126 128 126 117 108 106 113 134 145 152 154 146 131 127 128 135 140 145 153 164 159 157 159 156 154 148 133 121 114 120 122 124 121 120 119 127 132 135 140 136 136 136 130 130 122 116 116 114 67 73 98 49 22 28 23 102 88 74 67 64 66 77 79 85 93 104 120 128 132 137 138 134 133 134 131 134 139 144 149 152 151 152 151 146 144 151 161 157 145 143 131 121 125 123 118 109 105 106 116 134 145 150 151 145 131 120 123 133 140 146 147 157 164 169 161 158 160 164 165 161 151 144 138 132 130 133 137 138 139 142 145 135 137 140 134 135 123 115 115 115 65 70 97 46 24 26 25 105 95 76 64 66 65 76 79 83 94 105 118 128 132 140 139 139 137 136 135 137 144 145 151 151 146 146 145 143 150 156 159 153 140 134 127 123 123 117 111 104 102 107 117 133 144 147 149 145 135 124 123 132 139 144 147 151 160 171 169 161 159 160 162 164 169 164 157 151 148 152 153 150 145 145 145 145 140 140 137 136 126 116 115 113 67 69 90 47 28 22 22 102 98 83 60 65 68 75 78 84 93 106 118 127 131 138 143 142 143 144 143 146 148 147 147 148 150 150 150 155 160 160 157 149 143 131 128 128 119 112 108 102 101 109 119 133 141 144 145 143 134 128 124 127 139 139 144 148 156 164 173 169 162 161 161 162 166 161 159 155 153 150 153 153 147 148 150 152 145 143 141 134 124 118 116 112 66 75 91 43 25 25 27 114 101 85 56 68 67 72 78 84 91 98 111 119 125 136 145 146 146 148 148 153 151 146 149 153 157 163 158 155 161 155 150 147 139 128 127 120 113 106 102 100 103 109 122 130 135 141 140 136 132 127 124 126 135 138 139 151 160 161 169 170 174 168 166 164 166 164 164 162 159 154 159 158 152 149 152 153 150 145 139 130 122 117 117 110 59 85 95 39 24 28 25 124 113 94 62 63 66 69 77 82 86 97 107 118 122 130 140 147 147 145 147 148 152 157 161 163 160 164 160 154 153 151 150 147 136 126 121 112 112 105 95 100 105 114 125 133 136 138 138 139 134 124 123 124 128 138 139 150 157 163 167 169 174 174 170 167 169 169 170 166 165 164 164 161 158 154 158 153 152 147 137 129 123 115 117 108 59 90 98 39 26 34 28 126 117 109 79 50 64 68 76 83 88 94 103 114 119 127 137 145 142 138 148 155 158 156 163 164 163 163 161 153 149 154 150 140 138 128 121 113 108 102 99 102 109 117 128 137 142 143 144 145 140 127 121 123 126 131 137 147 158 160 160 164 167 166 169 167 165 168 170 171 168 166 163 160 161 159 160 157 152 146 138 129 124 115 118 106 61 93 101 40 30 47 48 115 112 113 94 49 57 62 76 82 89 90 99 108 115 125 133 143 144 145 149 160 163 158 161 158 157 159 157 151 149 150 143 140 136 127 120 112 101 97 101 105 110 120 137 145 147 149 148 149 146 133 124 121 125 127 134 145 156 158 158 165 166 164 164 170 167 165 166 170 168 168 162 160 163 160 158 155 152 147 136 125 122 117 115 102 68 96 102 47 43 56 68 115 107 107 111 64 47 55 71 80 85 89 95 102 109 120 128 138 139 145 150 155 159 161 163 156 156 155 155 150 147 149 147 142 134 123 116 106 98 100 102 107 113 125 144 153 156 156 157 154 148 138 127 121 123 126 138 148 153 157 164 168 168 166 164 169 172 166 157 166 169 167 163 163 160 161 159 156 149 143 132 124 119 118 114 97 76 102 93 57 71 77 86 120 105 95 106 88 48 49 68 77 81 87 92 100 109 115 122 130 137 141 147 152 155 157 156 152 152 153 152 151 148 153 148 140 132 120 113 100 100 105 105 112 119 138 157 164 168 168 170 162 151 142 129 121 121 121 134 151 156 159 162 163 166 167 167 165 165 165 152 161 172 175 169 168 162 163 162 155 146 138 132 122 116 114 112 93 89 105 81 69 94 91 93 122 115 98 96 100 64 44 67 76 81 83 91 96 105 115 119 130 136 136 142 147 153 158 153 150 153 154 150 152 147 145 142 141 133 123 108 103 104 106 103 106 120 142 156 160 161 167 172 169 156 141 127 118 121 121 126 151 160 157 157 163 164 165 165 168 167 171 170 163 169 170 172 170 167 162 159 153 145 133 128 121 116 112 110 91 100 110 72 74 117 100 96 104 114 109 107 89 70 50 64 74 81 85 86 94 102 116 120 126 136 137 138 144 152 154 153 155 152 147 149 152 143 142 141 141 138 121 104 102 103 104 95 92 101 119 136 140 144 154 157 151 139 124 116 119 121 123 125 147 159 162 160 164 166 166 165 166 167 167 171 169 167 168 166 165 164 163 155 148 144 132 122 117 113 109 105 89 108 107 73 70 127 113 103 92 98 112 121 103 76 54 64 76 78 81 86 92 94 102 111 122 127 132 137 140 146 146 150 155 152 147 153 149 135 142 147 136 130 116 101 103 102 97 88 84 86 95 109 118 126 138 141 129 117 110 111 114 120 124 122 139 161 167 162 164 167 168 167 167 166 166 169 167 167 165 165 162 161 158 151 144 138 127 118 114 113 111 101 84 111 117 83 62 99 106 118 113 107 112 133 128 97 57 61 80 75 79 85 89 91 96 108 118 122 128 130 137 142 146 149 153 152 150 152 149 142 145 146 139 129 109 99 107 101 87 67 64 76 88 90 100 117 122 117 114 112 106 104 106 120 126 123 132 153 167 170 168 166 167 167 167 165 168 170 169 164 167 163 162 155 148 148 140 133 128 116 112 111 109 97 82 107 113 88 67 74 106 134 113 118 116 124 128 111 61 59 79 76 78 83 87 89 94 103 116 121 121 128 132 143 145 146 150 149 151 151 147 146 151 150 139 125 111 96 104 92 46 11 5 14 52 80 87 97 103 102 99 63 45 53 87 119 128 126 130 148 162 173 172 168 170 165 166 168 169 169 169 165 163 157 152 151 147 144 137 134 127 116 113 107 105 94 88 98 106 87 79 90 122 136 108 121 126 121 114 98 59 62 79 77 79 82 87 89 93 93 108 118 120 125 134 142 144 146 150 152 153 150 152 150 150 149 138 126 112 95 101 92 58 43 22 1 19 63 75 77 87 92 73 27 4 7 35 97 123 126 130 148 161 168 170 171 167 165 168 169 168 169 168 169 162 159 150 151 150 142 135 125 120 115 112 106 104 87 85 88 90 89 107 113 120 118 111 123 128 126 120 106 66 62 78 76 78 80 86 87 92 93 102 113 122 121 129 140 142 142 147 153 150 149 150 150 149 144 136 127 118 92 98 107 93 106 91 45 72 71 68 66 77 86 85 66 51 72 62 91 123 124 132 148 156 163 167 168 169 168 167 170 169 168 167 168 167 159 151 148 147 140 132 123 119 112 110 105 104 81 89 82 92 114 121 128 125 130 105 122 128 132 129 122 79 60 77 78 78 80 84 86 91 93 102 107 113 121 133 138 141 143 147 147 151 153 149 150 150 145 135 130 123 100 87 104 109 121 126 124 117 91 80 72 81 91 101 110 124 121 98 104 112 115 135 148 155 159 165 170 169 171 167 170 170 167 165 163 163 157 146 143 140 135 127 119 118 114 107 102 102 75 97 88 114 145 130 124 138 129 93 119 129 132 134 126 85 60 77 80 81 82 85 87 89 92 98 105 110 122 133 137 143 149 145 144 150 155 153 157 151 144 137 138 139 128 97 90 111 124 139 153 142 124 109 104 106 106 115 139 145 122 96 92 102 128 144 152 158 158 161 168 171 168 168 165 167 167 163 160 159 155 146 143 136 134 126 121 117 113 107 109 101 74 99 88 124 149 144 128 136 113 83 112 131 135 135 120 89 63 73 81 78 80 84 87 89 91 94 105 115 119 131 135 140 139 140 149 148 154 157 156 150 144 141 146 146 143 136 123 125 128 137 150 158 160 144 130 138 143 141 143 139 131 123 124 137 151 157 158 162 159 157 163 171 170 162 164 165 168 165 159 158 152 147 143 139 133 120 116 116 111 111 110 92 81 115 92 122 149 153 147 129 98 77 99 123 136 132 116 100 60 68 80 78 79 84 86 87 92 93 103 112 115 126 130 138 140 142 150 151 154 155 149 144 143 145 145 145 146 146 142 137 138 147 159 165 171 174 160 166 162 162 158 151 151 152 157 160 157 162 163 162 162 162 165 166 169 165 166 166 166 161 152 156 151 147 144 137 130 118 118 118 112 111 110 85 80 124 127 119 149 150 151 133 83 78 83 106 121 121 121 99 55 68 81 80 83 85 87 83 87 92 101 110 116 126 132 137 142 143 146 152 152 148 146 143 143 145 147 149 145 146 143 133 140 152 149 156 170 170 163 164 159 152 154 157 158 151 155 161 161 162 161 165 163 162 162 164 169 170 169 161 159 161 151 148 150 143 140 135 126 118 120 117 115 111 108 82 77 117 142 141 147 152 150 126 77 81 79 83 98 106 108 87 58 67 77 78 80 86 88 81 85 89 97 107 115 122 135 137 139 141 145 149 145 144 145 144 144 144 144 144 139 141 132 125 137 149 148 152 153 149 154 154 156 156 157 153 148 143 141 150 155 159 160 159 160 162 157 158 166 168 171 164 148 142 151 150 149 141 136 132 125 120 121 118 116 115 107 86 83 114 138 150 153 154 154 110 76 78 80 79 75 75 78 68 57 67 78 78 83 85 85 81 84 87 98 108 110 118 132 138 138 136 140 143 142 144 145 139 143 142 142 138 126 127 123 122 134 143 145 147 148 143 158 162 157 159 156 152 144 132 137 143 149 154 158 158 157 159 157 154 157 161 165 165 150 119 138 150 147 140 137 126 124 120 123 120 118 118 109 85 91 130 146 150 146 149 143 86 75 77 78 81 80 69 49 50 54 63 77 82 86 83 83 82 80 85 93 104 110 118 125 134 133 130 133 133 139 143 141 142 143 136 139 129 117 110 117 122 133 141 145 151 158 158 159 165 159 159 153 147 139 131 130 133 139 144 149 162 158 154 152 154 155 153 156 144 131 116 139 150 139 137 137 127 119 119 121 122 122 119 111 84 90 130 148 149 142 137 113 68 73 76 77 78 80 78 52 48 54 64 75 82 85 82 84 82 79 80 87 98 108 118 122 126 127 128 123 131 140 133 129 137 135 134 129 125 111 105 117 123 129 144 153 158 158 160 158 163 152 152 151 142 132 126 119 115 129 138 136 149 153 155 151 153 156 154 151 144 141 142 144 135 135 136 134 122 116 118 120 122 121 121 108 86 90 119 142 142 135 117 88 75 76 76 76 78 80 81 60 51 50 61 76 85 88 85 84 79 78 79 86 96 104 113 119 121 122 122 114 125 124 120 123 124 127 127 125 120 105 114 121 121 137 149 159 156 154 154 157 159 153 147 143 136 130 124 124 129 131 140 137 132 142 141 142 145 152 150 153 148 147 153 139 126 137 134 126 117 114 117 118 121 123 117 99 85 85 103 113 108 93 82 82 80 79 75 76 77 79 81 66 54 52 58 75 85 87 86 88 82 76 77 81 92 102 111 117 117 117 119 113 118 113 119 128 130 125 121 125 114 114 117 123 127 139 145 149 152 155 148 154 153 149 147 145 145 137 134 131 135 131 137 148 135 135 133 134 140 140 139 146 137 125 140 142 143 140 130 121 114 112 116 118 116 122 118 100 79 65 36 31 33 41 65 82 83 80 75 76 76 78 80 72 61 51 61 75 81 87 89 91 85 76 76 79 87 97 108 114 112 116 114 104 112 114 121 129 133 127 123 121 118 123 127 128 131 135 142 147 155 159 158 154 151 150 153 156 148 138 142 141 135 131 132 143 143 139 136 140 140 143 140 142 129 106 125 138 137 131 124 118 111 111 116 121 124 124 116 101 78 51 22 14 21 37 59 77 81 81 75 76 77 78 80 77 69 52 61 76 81 89 97 95 89 78 78 79 82 90 99 104 104 110 105 101 104 113 121 122 122 119 119 115 125 124 126 125 123 121 124 135 140 146 154 159 157 150 146 141 130 133 135 135 139 138 137 141 144 145 141 141 138 139 140 128 135 129 125 128 130 126 122 112 110 113 117 123 128 121 120 103 78 37 16 22 22 34 56 75 77 81 75 76 77 78 78 79 73 59 60 75 85 93 99 97 94 84 78 74 77 85 92 100 103 95 97 107 112 124 115 111 111 109 116 113 110 104 102 105 107 103 99 102 107 109 114 125 119 104 105 108 111 119 120 119 119 114 119 133 141 136 131 124 129 139 136 128 126 131 129 125 127 126 115 109 113 117 122 127 129 124 119 102 75 48 18 19 24 30 53 71 78 79 75 76 77 77 76 79 76 64 62 75 86 93 99 101 98 91 84 78 78 80 85 92 95 93 98 112 122 120 112 109 97 91 89 92 86 89 91 94 101 108 111 107 101 100 92 96 92 97 104 111 121 122 122 114 109 98 92 99 112 121 125 124 121 125 129 126 120 123 129 126 125 120 109 109 115 121 126 126 125 124 116 96 67 54 24 18 22 30 49 69 77 78 75 75 75 76 77 80 79 67 62 72 85 93 99 107 101 96 89 78 80 80 80 87 86 92 108 111 113 110 100 90 68 52 51 62 75 80 77 70 79 94 101 94 85 88 82 74 83 96 95 106 107 103 95 94 98 100 88 84 82 99 107 115 123 118 121 132 115 120 124 122 121 112 106 110 117 122 125 126 126 120 111 97 62 46 18 21 19 34 47 68 78 78 75 75 76 75 76 79 82 70 60 72 85 93 98 105 104 98 92 86 81 79 80 86 94 104 114 114 112 110 88 77 56 43 44 48 48 46 44 45 43 53 61 59 53 57 63 50 54 65 62 66 70 67 66 64 70 71 74 77 73 63 54 67 82 108 124 135 124 110 110 115 116 106 106 114 123 126 129 131 132 120 105 96 65 36 21 23 21 37 48 68 77 79 75 75 74 75 76 78 82 70 60 72 85 90 99 106 104 101 98 95 83 82 79 85 97 103 108 117 122 120 129 132 130 116 93 75 65 70 79 88 91 89 93 98 100 101 105 107 109 106 103 104 114 109 114 107 100 86 72 68 71 80 99 98 99 113 129 124 127 116 104 114 114 112 112 120 128 130 128 134 132 116 104 88 66 35 27 28 27 35 52 73 79 81 75 75 74 75 76 77 82 72 61 71 83 92 98 106 110 107 105 100 92 83 78 84 101 102 109 119 126 138 145 146 145 140 128 114 102 101 101 106 108 117 124 122 123 124 127 130 129 132 130 131 134 130 130 127 125 120 113 113 124 134 146 150 148 137 127 126 134 131 115 114 113 111 115 130 133 131 128 134 129 118 107 79 60 31 32 30 24 39 59 77 81 82 75 75 75 75 76 76 81 75 62 68 84 91 98 107 112 108 105 111 99 89 80 82 90 98 115 125 133 141 141 143 143 136 129 126 122 118 118 119 120 127 133 134 137 132 137 135 133 141 147 142 142 141 138 132 129 128 130 133 139 145 147 153 152 143 126 129 131 134 123 118 114 115 125 133 134 131 128 132 119 112 100 72 59 43 32 22 29 46 68 81 83 83 75 75 75 75 76 76 81 75 62 64 78 86 95 106 114 109 102 108 105 94 83 80 91 102 127 139 135 134 138 139 144 140 137 134 133 129 136 141 142 144 146 153 156 150 152 155 155 159 160 159 162 162 158 155 153 151 147 148 145 145 150 155 148 141 137 136 131 130 115 115 115 120 130 134 135 129 130 129 114 111 99 69 53 42 24 26 44 57 77 82 83 84 75 75 75 75 75 76 79 78 63 59 73 84 89 99 110 111 108 109 109 100 90 82 92 101 119 129 135 135 137 139 143 135 137 139 139 139 136 144 146 147 146 151 152 150 153 154 156 156 154 157 159 162 161 159 156 153 152 148 148 147 151 155 155 144 139 135 133 126 119 120 111 122 132 136 134 131 129 116 111 105 93 70 47 33 34 47 59 75 85 84 84 84 74 74 74 75 75 75 77 82 68 51 63 83 84 91 106 108 108 110 109 102 96 85 86 99 113 122 131 133 137 137 137 132 132 139 142 140 143 145 144 146 146 149 151 151 148 150 153 151 153 155 158 159 159 157 154 152 154 151 148 149 147 153 156 147 140 138 134 127 123 120 121 136 137 133 130 129 126 118 111 97 83 60 50 40 51 63 80 88 87 85 85 85 74 74 74 75 75 75 77 79 74 56 55 78 84 88 103 113 110 110 110 105 98 89 84 93 107 114 122 129 133 132 131 129 129 133 137 138 140 142 140 144 142 150 151 148 146 150 155 150 154 156 156 156 157 157 150 149 150 147 149 148 145 147 150 145 145 140 133 128 123 122 132 135 136 135 132 128 125 119 105 90 74 56 52 61 69 82 89 88 87 87 87 87 74 74 74 74 74 75 75 77 78 69 56 65 78 88 98 110 111 109 111 109 97 91 84 83 97 107 114 123 128 126 128 132 131 131 135 135 141 147 142 141 140 145 143 142 142 147 148 148 153 158 151 153 159 152 147 143 145 140 141 145 147 147 145 143 138 133 127 124 125 121 131 133 136 136 134 127 123 115 96 84 73 80 77 85 90 90 88 87 87 87 87 87 74 74 74 74 74 75 75 76 79 72 52 53 66 81 88 102 106 108 109 107 102 95 84 82 92 100 113 121 123 125 127 130 129 128 131 134 138 140 139 136 133 140 141 147 143 135 137 144 141 150 153 150 150 146 142 137 138 139 142 145 148 143 143 139 126 128 130 129 125 127 133 136 138 136 131 123 119 108 91 78 76 101 99 97 92 88 87 88 88 88 88 88 74 74 74 74 74 75 75 76 78 73 57 54 55 72 79 95 101 107 106 107 105 97 87 86 92 98 109 118 118 125 131 124 126 127 129 132 136 138 136 138 136 139 140 143 137 133 135 139 140 143 148 146 142 143 143 142 141 141 142 146 145 142 142 141 130 132 129 129 128 128 135 138 136 131 127 125 116 99 77 72 86 99 99 93 88 87 88 88 88 88 89 89 75 75 75 74 74 75 75 76 77 77 72 72 54 58 76 90 98 101 106 105 104 100 94 89 94 98 103 114 122 122 122 119 123 128 127 128 132 136 136 140 141 142 138 137 136 138 139 142 144 147 149 149 148 143 140 143 144 141 140 142 142 142 145 149 143 132 133 133 130 128 132 138 134 128 130 123 111 88 64 80 92 98 95 90 87 88 88 89 88 88 88 89 75 75 75 75 75 75 75 75 76 76 77 79 68 51 64 80 88 89 102 107 106 102 92 86 89 98 107 110 118 120 121 119 122 125 126 126 126 132 136 139 141 139 140 142 142 139 138 141 147 149 152 151 151 150 146 145 145 145 144 144 142 144 149 148 143 139 135 130 128 131 138 133 129 128 121 116 103 72 64 92 97 96 93 89 88 88 87 88 88 88 88 89 76 76 76 75 75 75 75 75 75 76 78 76 80 64 51 64 81 90 97 104 102 92 85 81 83 96 109 113 119 121 123 119 124 128 126 128 134 136 136 136 141 142 139 141 143 133 135 141 144 148 152 154 153 148 152 147 147 149 149 149 148 147 144 149 139 140 138 130 125 134 138 134 121 119 112 110 90 63 78 99 99 95 92 90 88 87 87 88 88 88 88 89 77 77 76 75 75 75 75 74 73 75 79 80 79 79 53 50 64 86 96 100 98 91 91 90 101 105 106 114 116 118 121 123 123 128 132 131 134 135 139 139 146 151 150 153 142 126 140 148 151 157 160 159 148 145 157 153 153 155 155 152 150 149 149 148 142 140 129 129 128 133 133 129 117 111 103 93 73 79 101 106 97 94 91 89 89 88 88 88 88 88 88 89 77 77 76 75 75 75 75 73 73 74 79 81 78 83 73 47 49 73 91 98 95 94 100 93 87 95 107 111 113 118 124 122 123 129 136 133 135 142 146 148 149 150 151 156 152 147 155 160 160 159 158 153 152 158 162 160 157 157 161 157 152 154 146 147 140 133 127 120 123 133 128 126 113 106 93 79 74 99 105 102 97 95 91 89 89 88 88 88 88 88 88 89 78 77 76 75 75 75 74 74 73 72 76 81 76 82 80 59 50 58 80 93 89 88 91 90 91 94 98 105 114 121 126 130 133 138 144 144 146 151 152 148 142 147 151 157 159 163 167 166 162 157 152 151 151 161 163 162 161 158 161 160 154 151 150 144 141 133 131 124 122 127 122 121 103 93 79 74 91 109 109 103 96 95 91 89 88 88 89 89 89 89 89 90 78 77 75 75 74 75 74 74 73 71 75 78 76 80 84 75 51 42 63 75 86 81 83 86 86 90 99 108 113 120 127 125 134 141 144 146 146 145 143 138 137 145 149 151 154 157 160 157 159 156 154 151 150 152 157 160 162 157 156 156 147 146 142 136 136 130 121 125 117 117 115 106 89 73 70 91 104 113 111 102 97 96 91 89 89 89 89 89 90 89 89 90 76 77 75 75 75 75 74 74 73 73 74 79 77 83 89 84 69 46 40 59 78 83 81 83 83 86 94 94 106 115 119 127 133 135 134 142 146 141 135 133 136 145 154 156 155 152 155 156 154 155 159 154 150 149 149 153 153 154 149 148 150 144 135 128 127 123 118 119 114 109 103 94 81 64 85 110 114 114 111 101 97 97 91 89 90 90 89 89 90 89 89 89 77 77 76 75 76 75 76 75 74 73 74 79 75 83 89 86 79 58 38 48 69 72 74 67 71 77 78 88 105 107 116 124 136 135 133 136 136 135 134 133 137 154 159 158 158 158 158 157 156 152 159 158 151 152 146 152 153 148 147 141 143 141 132 116 113 118 108 109 114 101 92 73 65 74 104 115 114 116 112 100 97 96 91 90 91 91 90 90 90 89 89 89 77 76 76 75 76 75 77 76 75 75 75 77 75 82 90 86 79 70 51 43 51 60 65 67 66 74 76 85 103 115 118 116 127 131 138 127 124 129 136 139 139 153 158 158 155 157 153 152 153 151 154 151 149 150 145 141 147 144 147 140 136 127 131 114 109 112 107 103 101 85 75 60 64 96 112 117 118 120 112 101 99 98 91 90 91 91 90 90 90 89 89 89 77 76 76 76 77 77 78 77 75 74 73 74 74 83 91 92 86 78 70 59 50 48 60 64 69 74 75 91 95 104 100 108 121 133 123 119 119 133 143 144 148 152 159 156 148 147 146 144 146 148 151 152 153 152 145 138 140 142 136 125 127 120 123 115 108 105 103 95 86 68 61 64 89 112 115 118 121 119 111 99 102 100 92 90 91 91 90 90 90 89 89 89 77 76 76 76 77 78 78 77 75 73 73 74 75 81 91 96 91 82 78 73 66 56 48 48 55 67 72 82 81 89 86 108 116 111 108 115 114 123 130 131 139 141 140 145 144 140 132 133 135 140 145 149 146 142 135 138 146 144 133 111 111 104 105 109 92 97 95 85 74 56 77 93 112 119 118 120 122 119 112 101 103 101 92 90 91 91 90 90 90 89 89 89 77 75 76 76 78 77 76 75 74 74 75 74 73 82 91 96 94 89 87 80 73 67 57 51 52 58 59 60 66 86 91 103 96 106 116 113 106 117 123 118 125 131 126 136 141 135 136 134 136 134 132 138 134 136 133 123 130 135 127 108 111 98 91 95 81 83 73 66 61 65 91 104 115 119 120 122 121 118 113 102 102 100 92 91 91 91 90 90 90 89 88 88 77 76 76 77 77 77 75 74 74 77 71 50 67 83 91 96 95 95 91 86 78 71 55 55 52 43 53 60 70 81 94 91 88 99 101 96 100 106 112 117 128 120 129 134 132 135 134 125 140 127 127 129 126 129 130 110 111 117 108 93 97 96 85 89 77 67 60 64 74 88 100 110 117 121 124 124 122 118 111 101 100 98 91 90 90 90 89 89 89 88 88 88 78 78 78 77 76 75 74 75 76 72 37 42 82 79 90 96 95 97 96 88 79 73 59 61 57 54 55 54 59 71 84 73 91 89 82 85 93 107 99 110 123 115 130 132 124 129 127 119 131 112 122 131 118 111 122 114 103 103 108 88 92 91 83 75 69 65 75 78 99 110 112 121 120 124 126 126 125 120 112 101 96 95 92 90 90 90 89 88 88 88 87 89 80 81 82 78 76 74 74 77 74 43 4 86 107 76 88 94 96 97 102 95 84 77 72 63 63 63 52 47 60 61 61 65 75 80 79 79 92 102 88 111 113 108 128 115 112 114 117 114 121 107 111 113 108 98 100 103 93 86 90 88 79 90 71 61 70 74 88 97 109 111 117 119 121 125 128 128 126 119 113 102 90 91 91 91 90 90 89 89 88 87 87 88 80 82 82 79 77 78 78 77 48 11 11 132 115 74 87 94 98 100 105 103 95 81 74 72 74 69 57 65 60 45 55 66 79 71 75 83 93 94 82 111 103 110 122 108 108 104 110 106 111 109 109 99 97 86 86 74 86 77 77 71 68 77 66 62 77 92 104 107 107 114 120 123 125 127 127 126 124 119 112 101 84 82 86 89 89 89 89 89 87 85 85 86 81 80 81 79 78 79 81 55 16 1 45 162 124 72 85 92 96 98 104 104 100 96 91 87 83 73 64 66 53 50 57 72 59 54 73 84 87 84 87 98 94 88 105 115 90 100 102 96 89 102 104 105 74 74 88 83 84 66 65 55 69 76 75 88 97 108 111 109 111 120 121 124 128 129 128 127 123 119 113 108 105 82 84 86 88 88 88 88 87 86 85 87 79 81 80 79 80 84 66 20 5 0 88 172 131 74 85 90 93 95 101 105 102 103 100 89 79 75 66 63 63 60 56 55 53 67 56 63 66 78 81 84 93 89 90 93 71 86 75 87 74 81 91 96 72 69 80 82 66 61 68 64 80 98 99 105 108 114 114 117 119 122 124 128 132 132 128 127 123 122 113 111 144 90 81 85 86 86 86 86 85 84 84 85 77 78 79 80 83 78 30 6 4 15 121 171 140 75 84 91 95 96 101 103 105 106 100 96 88 80 72 69 67 61 57 57 60 60 51 51 55 68 68 71 75 83 73 76 75 67 79 72 82 75 80 80 61 71 67 64 63 70 74 87 99 111 111 110 116 119 118 117 122 124 128 131 133 131 128 126 125 120 112 109 169 112 77 84 83 84 85 83 84 83 83 83 77 79 80 80 81 46 7 8 1 45 138 168 153 79 80 89 94 96 101 102 106 105 103 102 97 90 81 75 72 69 66 64 61 53 51 49 49 52 51 53 57 60 62 59 54 66 63 52 77 50 62 56 64 76 75 70 79 97 100 109 113 113 113 116 121 123 122 121 123 127 127 130 133 129 127 127 125 122 112 107 179 144 77 80 80 81 81 81 82 82 81 83
