P2
# Generated by OpenCV 4.2.0
92 112
255
109 106 98 20 56 59 42 49 68 130 112 136 139 154 160 171 177 186 188 193 194 193 189 193 196 194 204 201 204 204 208 210 213 216 215 214 218 221 221 219 223 225 222 225 221 220 217 210 217 221 216 210 200 200 181 153 142 122 159 172 168 155 142 137 116 106 99 100 97 102 93 89 83 75 72 61 66 59 51 41 44 46 51 58 103 58 44 36 44 47 44 34 103 105 37 74 68 53 47 54 115 103 125 149 150 154 161 169 175 190 184 192 192 191 187 190 196 196 203 203 201 205 210 213 213 212 214 218 218 220 222 224 223 222 224 225 225 222 222 216 210 217 219 217 211 203 198 177 165 152 127 131 158 183 161 148 153 141 119 110 95 88 98 96 83 84 82 70 57 61 55 50 50 38 49 50 103 62 62 37 39 56 34 38 120 96 123 65 70 54 53 92 99 131 144 146 149 156 163 166 178 184 189 189 191 192 188 190 193 196 206 205 204 206 209 213 216 215 218 220 219 221 225 224 223 221 221 221 220 220 221 220 215 203 211 219 219 209 207 195 179 166 168 142 135 157 155 152 163 154 148 154 148 123 85 78 95 90 82 87 74 56 61 54 54 49 47 70 70 60 69 55 40 48 36 45 113 133 150 87 67 58 46 114 123 140 134 145 146 157 163 167 178 183 186 187 186 189 188 190 199 199 204 203 207 209 211 214 214 217 220 224 226 224 225 225 225 226 226 224 223 222 221 222 221 212 203 207 212 218 209 202 199 166 171 177 172 152 138 131 134 149 158 153 152 148 141 114 80 58 72 82 82 74 67 62 58 53 42 62 66 65 55 63 58 35 43 48 135 119 74 63 68 55 99 122 129 124 128 144 152 162 162 168 178 184 185 189 190 189 189 194 203 203 206 205 206 209 209 213 215 219 223 223 219 222 217 221 223 224 224 225 222 222 225 224 219 218 213 204 204 206 211 215 221 197 184 171 186 188 181 176 171 155 152 158 160 155 144 143 136 120 85 71 73 76 73 62 60 63 50 42 60 61 44 52 59 38 51 39 109 40 42 67 68 50 127 116 115 129 133 150 156 162 167 170 179 180 180 190 192 192 191 194 200 205 204 202 205 208 212 219 224 225 224 220 220 221 220 222 224 224 224 225 223 222 222 222 220 220 220 214 211 199 205 209 215 216 213 205 192 198 195 201 193 170 174 162 159 156 148 143 136 132 124 125 102 87 74 68 59 58 58 52 51 51 61 56 51 40 48 45 90 61 27 101 77 51 132 100 135 119 141 150 152 163 167 171 179 180 183 191 194 194 195 195 199 204 205 204 206 208 213 219 226 225 219 219 224 224 222 223 224 222 221 220 220 220 222 224 221 217 222 219 219 216 212 213 211 217 215 215 216 209 200 200 203 195 192 184 170 151 148 144 138 137 130 125 121 113 111 84 65 47 47 57 56 47 46 62 63 47 47 51 62 35 44 101 63 116 113 114 113 125 142 146 158 167 165 173 178 179 184 193 195 195 194 197 200 205 205 206 206 208 211 216 222 221 217 220 221 222 222 223 223 222 221 220 221 219 221 223 224 218 221 221 220 219 219 215 214 214 217 217 215 215 209 208 205 204 199 200 199 182 166 147 135 136 136 128 131 120 114 107 91 68 51 40 42 49 46 49 66 59 51 59 56 51 47 136 66 119 112 103 113 119 140 145 157 164 169 175 177 177 185 193 196 192 194 195 198 200 202 204 203 206 211 217 216 216 218 222 222 222 222 223 225 222 220 220 222 220 223 226 224 221 224 222 219 217 218 219 218 217 219 219 217 216 217 212 210 202 199 199 197 194 190 182 169 161 148 139 134 134 119 102 95 81 73 60 49 47 43 52 55 68 59 57 55 61 74 118 114 98 99 98 108 121 141 151 157 165 168 171 173 179 186 191 200 196 192 191 202 203 203 206 207 209 212 217 217 218 222 222 221 222 222 224 224 222 221 221 220 219 222 224 225 221 222 220 218 217 218 217 217 216 219 219 218 218 216 208 208 210 203 201 200 196 187 190 191 190 187 174 158 144 137 121 110 96 87 65 59 60 57 55 49 49 74 67 67 63 96 126 105 90 107 95 111 127 141 149 157 167 165 170 174 178 183 189 200 194 196 195 197 202 205 206 208 210 211 214 215 218 221 222 221 222 221 221 221 221 223 222 218 218 219 220 221 217 216 218 216 216 216 215 215 215 216 217 220 217 214 214 212 210 203 199 201 194 191 193 193 193 192 192 184 176 160 142 124 111 99 87 72 69 77 72 60 44 44 55 69 59 101 97 85 77 111 90 111 125 142 148 155 163 164 171 176 179 179 184 197 197 197 195 197 199 204 205 209 210 212 214 218 218 218 220 222 222 223 223 221 219 215 214 215 215 217 217 218 218 218 220 220 218 217 217 216 217 218 216 214 215 217 213 209 211 205 201 199 195 192 192 193 187 191 193 184 180 176 165 139 121 117 98 93 71 85 88 80 66 62 50 66 79 87 98 87 67 115 99 109 122 145 153 153 161 164 170 176 180 183 184 195 196 195 194 192 200 202 205 208 208 212 214 216 217 217 219 219 222 222 222 219 219 220 218 221 218 219 220 221 221 222 222 220 217 217 219 219 216 217 219 214 213 215 214 211 208 206 203 200 197 194 193 190 191 191 185 184 184 176 169 148 132 124 112 102 86 93 96 85 85 71 64 92 67 91 86 90 73 127 102 109 131 147 152 154 161 164 171 172 182 187 187 194 196 193 191 192 200 201 203 208 210 212 213 215 216 216 218 219 218 223 222 221 222 218 218 221 220 221 221 222 221 220 223 216 213 214 219 218 216 216 216 213 211 214 214 209 208 206 199 202 199 194 196 188 189 190 185 182 183 178 164 148 143 139 117 119 92 87 89 100 71 75 87 52 91 59 90 88 57 138 96 119 134 148 153 153 160 164 169 160 178 184 191 195 194 192 195 195 196 199 206 210 210 211 209 213 215 214 219 221 223 221 219 219 221 222 219 221 220 220 221 222 220 217 218 216 218 219 218 218 216 216 219 218 216 215 209 206 205 203 199 197 194 188 195 184 184 188 185 180 179 174 161 145 146 144 128 117 104 87 78 98 74 76 82 77 90 71 107 87 69 125 96 121 141 147 152 153 161 164 169 163 178 186 192 195 197 194 194 197 198 200 204 209 211 215 213 210 214 216 219 221 220 220 220 219 220 222 224 221 221 222 222 220 219 218 218 218 219 219 220 218 217 217 217 217 216 219 210 205 205 202 200 196 194 185 190 181 181 186 182 179 179 169 159 144 146 144 135 120 114 93 83 85 85 69 66 88 84 72 120 89 79 106 102 116 144 146 152 152 161 165 169 164 177 186 195 193 196 196 197 195 200 199 203 209 213 209 203 207 214 218 218 220 219 220 221 221 220 221 223 223 221 222 221 221 221 218 219 219 219 218 220 217 216 217 217 214 215 208 209 207 206 202 202 197 194 187 189 183 182 184 183 178 177 169 160 141 141 143 136 129 115 98 84 82 79 66 64 81 72 88 125 85 70 85 114 120 141 143 151 153 160 166 167 164 175 182 192 191 193 196 195 196 199 199 202 205 209 215 215 213 218 219 221 220 221 218 220 220 220 221 219 219 220 220 222 222 223 223 223 217 220 220 220 220 221 222 220 217 215 211 206 211 205 204 198 200 198 189 188 183 184 183 182 177 174 164 157 142 143 142 137 136 119 98 80 80 69 57 54 77 97 81 100 89 81 71 107 126 139 139 147 150 160 164 166 163 174 178 190 191 195 194 194 197 195 199 202 206 209 214 217 217 218 221 222 222 221 221 219 219 217 219 221 219 221 220 223 222 226 224 222 220 222 221 224 222 222 222 217 218 217 213 207 211 203 200 196 198 192 188 185 184 184 182 180 174 174 157 151 142 145 142 141 144 120 98 75 77 64 53 53 84 103 89 86 90 73 74 108 124 137 138 140 153 161 163 159 163 175 181 193 195 198 196 196 199 199 199 201 207 209 213 216 217 215 221 223 223 223 221 219 220 213 217 221 219 219 220 221 220 225 225 223 222 223 225 225 225 222 222 221 220 217 215 208 212 202 200 196 195 188 186 186 183 183 180 179 175 168 156 147 141 144 144 149 143 122 92 84 73 65 50 45 90 78 146 47 78 95 73 110 118 133 139 137 152 159 161 157 170 183 188 197 197 201 197 198 202 202 197 200 205 209 211 215 218 218 220 223 225 226 225 222 220 213 218 223 220 219 220 224 222 227 224 224 222 223 225 225 225 226 223 222 219 216 215 213 209 201 199 197 196 189 186 184 183 183 183 181 173 164 153 142 144 150 146 146 133 116 88 89 62 56 48 47 108 56 176 33 76 96 75 116 118 133 144 139 148 157 156 155 178 189 190 197 197 201 199 199 203 201 202 202 205 207 208 216 219 218 220 219 225 226 227 224 223 220 222 219 220 222 222 224 225 225 223 222 225 225 227 226 225 226 223 218 218 217 216 213 208 200 199 200 197 194 184 188 183 183 182 179 170 165 153 146 146 148 141 133 135 107 93 88 53 53 42 40 79 82 148 57 68 78 104 105 125 134 138 132 147 155 158 166 179 186 196 195 195 196 198 198 200 205 203 199 204 205 209 215 213 215 219 220 225 226 226 223 225 223 222 218 220 222 222 225 223 223 223 223 228 227 227 224 226 223 221 214 215 215 213 213 210 201 199 195 195 197 188 182 184 186 179 175 170 166 150 143 141 142 138 138 129 102 96 80 50 48 38 36 83 95 106 75 61 67 92 104 135 137 137 133 144 151 158 168 182 183 193 189 187 185 186 192 194 190 197 201 205 210 206 213 216 216 218 219 222 221 222 222 222 224 220 218 221 220 223 225 224 223 221 223 228 227 224 222 225 221 215 215 214 214 213 213 212 205 200 193 192 192 188 184 184 183 185 180 171 163 153 137 140 141 135 141 124 105 87 63 46 45 36 36 87 93 112 87 58 60 76 108 134 135 135 133 144 149 153 159 166 167 175 172 169 172 168 169 167 180 185 186 193 201 204 212 217 214 214 215 219 219 220 218 221 222 221 218 218 221 223 223 223 224 223 224 222 224 222 220 219 218 213 217 218 215 215 213 210 204 201 196 195 196 194 189 188 181 185 178 173 168 153 141 138 139 135 130 119 106 73 51 40 32 35 34 88 92 114 91 64 54 78 110 131 133 137 131 134 132 133 142 148 152 156 160 158 170 173 163 153 162 167 160 166 179 183 183 184 188 191 204 214 214 213 219 220 220 220 215 216 221 222 222 221 223 221 220 222 224 221 220 218 219 216 213 216 214 215 209 209 203 196 191 187 186 184 181 183 178 177 175 171 170 158 147 133 135 133 124 114 98 62 43 33 34 33 34 89 73 144 73 75 63 75 117 130 135 139 135 133 130 135 144 149 135 143 152 160 159 152 157 153 149 145 145 158 152 152 145 147 163 176 174 197 207 213 208 215 216 219 215 216 220 219 219 221 221 219 219 220 221 219 217 216 216 201 207 203 207 198 197 195 188 188 177 173 172 172 171 170 157 157 159 164 163 163 154 133 128 133 118 116 88 53 39 34 35 35 37 74 87 114 73 104 63 81 120 132 136 135 136 130 132 135 139 152 157 144 136 132 137 130 126 122 124 127 127 128 131 135 132 126 140 164 168 176 192 200 203 209 211 212 213 215 216 218 218 218 217 214 217 216 216 215 212 213 203 192 178 180 167 163 155 151 159 158 164 165 150 148 145 149 147 148 148 145 147 150 148 138 133 126 119 116 95 40 52 39 34 43 39 63 93 98 74 116 86 79 111 140 135 138 138 136 137 138 144 144 147 148 147 141 137 142 135 134 132 118 106 115 115 114 109 123 132 133 158 167 172 191 198 206 205 208 209 214 215 215 214 214 217 212 210 211 210 209 210 201 193 186 176 166 143 137 128 135 130 130 127 131 121 121 127 140 141 141 133 128 132 133 131 129 129 120 120 125 114 45 51 42 42 43 45 71 81 75 88 140 106 85 130 140 137 143 143 142 140 141 143 150 150 150 152 156 160 159 158 157 152 141 131 106 93 93 104 107 117 121 133 165 166 178 198 201 196 202 202 208 210 209 208 209 211 207 205 207 207 203 197 187 188 179 157 146 127 126 119 101 103 125 112 108 121 124 115 124 128 130 121 112 116 116 117 117 121 120 120 120 116 57 50 65 37 48 47 66 66 67 91 143 88 98 134 149 141 142 145 146 143 143 144 149 151 154 160 167 172 176 182 188 188 193 185 168 169 145 126 113 112 113 126 142 157 165 179 184 188 195 194 198 196 203 204 205 205 205 202 196 200 199 189 182 186 163 144 136 119 111 95 95 97 97 94 96 96 101 111 114 114 109 110 104 106 114 114 105 114 111 119 121 116 84 61 59 53 51 57 58 63 66 85 122 91 113 134 152 147 144 146 146 142 144 147 149 148 154 164 173 183 187 187 196 201 204 208 198 208 196 181 161 156 141 125 119 125 138 155 158 171 182 189 191 193 195 198 206 204 203 195 190 184 185 178 168 158 141 131 121 107 104 111 113 110 120 122 133 145 150 153 159 159 151 145 141 128 121 122 117 116 115 117 119 118 95 68 64 68 65 56 59 55 58 73 95 97 120 140 148 144 145 144 146 144 148 155 149 147 149 169 180 181 185 177 185 175 186 183 182 186 196 196 196 184 174 161 143 126 119 123 135 149 159 170 179 186 197 202 208 204 198 190 181 173 165 156 141 129 119 117 122 128 142 150 172 186 191 198 201 199 193 185 179 178 165 152 144 133 123 115 109 117 117 118 115 119 116 78 66 79 82 56 87 74 45 55 67 113 119 142 159 143 141 146 149 144 147 157 154 153 153 133 126 121 145 144 137 148 147 160 164 151 121 123 164 184 189 176 170 155 138 128 122 129 145 159 175 183 197 206 209 209 196 183 169 159 145 124 121 119 129 141 157 172 192 187 193 193 207 206 205 203 192 190 185 177 168 162 156 141 129 127 125 125 124 120 117 121 123 97 60 85 108 68 102 93 58 37 56 141 121 141 155 141 142 148 152 144 146 155 153 135 99 110 151 132 121 121 77 59 64 83 79 94 142 142 113 112 129 166 175 175 163 152 136 127 135 154 177 192 208 216 217 215 196 188 163 145 133 125 126 141 150 160 168 174 181 157 143 130 140 153 153 153 162 162 169 161 160 154 154 136 131 129 132 130 126 122 120 125 126 108 78 82 129 72 133 95 60 46 47 125 120 132 145 144 147 152 151 148 146 148 132 135 135 114 107 90 129 149 63 113 96 167 26 143 46 111 139 150 123 140 161 174 167 167 154 146 144 154 179 198 208 217 220 217 199 186 166 148 130 133 142 158 155 158 152 113 97 139 152 140 84 94 74 86 107 114 115 107 113 133 141 135 131 132 130 129 126 125 123 126 128 105 95 80 121 86 145 101 68 55 51 112 130 117 147 145 151 150 154 150 153 149 148 150 126 103 116 127 169 164 85 116 101 86 66 121 91 210 149 126 148 143 148 158 161 174 174 170 180 161 181 189 208 218 221 217 204 186 162 134 139 151 159 166 168 158 133 151 151 120 102 64 93 152 56 112 70 58 83 102 111 96 93 124 139 130 130 127 126 129 124 126 126 98 92 88 124 81 158 99 73 50 51 100 127 119 145 146 151 155 159 157 161 156 152 150 140 134 153 156 167 185 79 113 137 155 152 135 114 233 224 192 150 131 150 164 177 183 190 190 179 166 180 189 205 217 220 214 204 182 152 151 160 176 172 170 150 154 154 130 113 189 163 93 117 85 17 114 109 77 137 98 78 102 113 103 125 128 128 126 128 127 124 128 131 93 93 99 124 87 164 92 112 62 54 109 118 117 149 145 149 155 165 164 170 169 162 175 153 126 148 174 190 196 210 81 106 118 136 89 214 214 196 174 159 169 166 164 200 229 220 204 184 175 178 192 202 214 216 212 202 182 155 160 184 202 202 186 167 147 121 183 211 224 212 93 137 114 119 128 88 95 151 135 81 92 101 127 117 127 127 127 131 128 127 127 131 94 95 105 122 73 164 118 132 60 54 111 105 119 152 145 153 154 167 169 179 182 181 175 160 150 150 167 178 190 198 206 172 144 176 197 209 201 193 195 199 195 203 207 219 224 224 196 182 179 179 192 203 209 211 209 200 182 154 167 186 214 217 193 140 174 166 172 165 192 225 123 100 139 138 117 76 174 159 146 136 116 93 118 121 128 129 130 135 133 130 123 127 89 97 112 112 70 132 118 169 111 68 108 109 120 161 142 152 157 172 181 182 189 182 178 170 162 146 167 181 174 193 173 187 199 198 188 196 197 193 186 180 187 204 217 217 221 207 188 187 179 179 187 199 206 208 201 197 186 159 166 185 206 215 214 217 203 193 198 186 185 194 199 161 145 112 109 184 186 170 161 138 114 123 138 131 131 136 139 139 136 128 122 128 89 98 116 101 46 96 155 152 146 77 106 107 121 154 144 148 157 175 185 189 193 185 187 176 170 155 153 162 180 180 188 188 201 191 210 182 194 187 186 171 193 203 203 213 216 193 188 186 182 174 184 193 201 206 197 195 183 166 162 174 197 210 212 205 204 189 178 173 176 171 190 194 203 199 172 161 170 149 151 142 128 141 150 157 149 154 151 146 144 129 125 130 91 103 119 81 60 61 159 164 178 104 95 109 123 139 141 147 159 180 184 194 197 196 189 178 178 172 164 163 164 169 176 175 181 180 177 189 192 196 182 192 199 204 211 215 201 186 187 187 174 172 182 193 198 200 188 190 173 165 162 167 183 208 202 199 197 187 179 177 177 184 185 179 176 186 185 162 153 165 144 134 140 152 153 148 155 161 159 151 144 131 128 128 96 108 112 76 85 57 165 176 187 148 94 115 121 139 143 145 159 177 186 197 196 198 192 187 183 177 179 171 170 172 168 173 181 183 184 200 203 200 195 206 206 204 211 213 197 189 190 184 172 172 179 193 199 198 186 191 176 162 161 167 170 202 210 201 197 194 179 184 181 193 189 185 184 184 176 168 158 143 136 137 153 164 160 157 160 166 162 156 148 131 130 133 102 103 107 70 122 65 142 211 197 180 70 106 106 141 143 145 159 179 187 197 199 199 201 184 187 188 187 181 177 180 179 188 189 196 201 205 203 209 204 200 208 212 217 205 197 191 190 178 177 173 174 192 201 198 191 188 181 162 159 162 167 178 201 208 199 198 195 192 195 189 168 158 166 162 161 155 147 144 152 159 162 163 166 163 167 169 166 159 150 133 125 126 107 109 99 65 133 65 92 217 198 197 95 103 98 136 139 144 156 171 184 196 203 206 209 199 196 187 170 185 189 195 198 200 203 207 205 208 207 201 199 202 209 218 211 198 193 189 189 180 178 173 170 190 201 199 195 191 183 164 157 161 166 181 191 210 209 200 202 199 202 204 200 192 179 174 170 166 164 163 163 165 166 165 167 169 172 172 168 159 148 138 125 123 100 103 88 74 154 78 63 217 197 191 145 91 105 136 136 145 155 170 183 198 203 207 209 210 200 200 189 191 192 196 197 206 205 204 203 204 201 197 200 204 212 216 208 196 190 185 188 181 178 172 170 189 203 202 200 194 180 165 155 158 164 177 185 197 212 203 202 200 199 199 201 200 198 190 182 179 171 171 172 170 167 164 168 177 178 176 168 157 145 136 124 124 97 95 89 84 176 78 50 219 192 180 179 93 94 123 139 142 154 170 183 199 204 209 213 210 207 205 202 195 197 201 200 203 203 200 203 197 194 193 202 211 212 211 201 188 186 184 187 178 173 169 176 193 204 204 204 200 181 164 154 158 163 176 183 186 208 216 208 198 194 188 190 190 197 191 185 179 180 175 173 171 165 170 177 183 178 181 168 154 145 132 129 119 96 90 90 96 214 80 71 195 200 177 169 142 90 118 141 140 153 164 179 195 200 207 213 213 214 210 202 201 199 200 202 203 202 195 198 197 193 196 203 215 211 205 199 185 186 184 180 175 170 171 179 196 202 205 203 198 181 163 157 157 164 171 176 176 205 210 212 202 192 190 188 188 186 182 180 179 179 174 175 176 176 183 188 185 183 180 166 153 144 131 125 120 83 92 88 121 202 89 70 155 188 197 153 148 106 104 138 139 156 156 177 190 199 202 213 213 216 213 211 207 204 203 201 199 199 197 195 195 200 209 212 214 211 203 193 190 186 183 178 177 169 172 182 193 199 204 204 197 183 167 159 157 161 168 166 180 197 206 209 206 198 191 188 186 183 182 181 179 181 180 182 184 184 189 198 183 179 175 163 153 142 131 127 118 76 93 89 123 209 106 84 150 184 196 165 169 108 85 126 135 153 154 173 183 195 202 205 213 210 211 212 213 210 206 201 201 203 202 203 210 211 215 217 210 209 199 189 191 184 178 172 170 164 176 185 192 198 202 201 195 185 173 159 159 160 166 169 175 189 205 206 211 208 199 192 192 188 186 185 183 189 187 193 192 194 196 193 190 181 172 160 146 134 127 126 116 86 105 96 120 142 85 93 145 159 171 169 197 151 86 125 133 151 157 167 176 192 202 203 210 212 211 214 214 209 208 209 211 215 212 216 215 216 216 211 216 209 199 188 182 179 177 171 164 167 176 189 195 199 201 200 196 188 170 159 153 159 162 165 167 184 203 211 213 213 209 202 202 200 195 191 192 194 190 193 195 195 196 193 186 176 168 156 141 131 123 126 117 85 122 110 121 149 57 91 109 216 159 185 210 186 80 116 132 147 153 163 173 189 195 203 204 213 212 212 212 215 211 210 217 216 221 220 220 215 217 217 212 207 198 189 181 181 182 169 153 169 178 190 194 199 199 198 199 184 174 155 147 155 159 160 164 181 198 210 209 212 211 208 210 211 200 196 195 200 199 203 201 199 194 191 183 170 163 154 141 129 123 124 116 93 120 98 139 152 54 55 70 198 174 179 218 220 132 114 132 140 151 162 170 185 192 200 201 209 210 210 211 214 216 215 218 215 219 219 218 214 216 215 210 207 200 192 183 175 173 165 156 175 182 191 197 198 199 197 196 188 180 161 145 156 158 154 161 178 194 204 210 212 212 209 214 213 209 201 199 204 202 204 202 195 190 186 178 169 161 151 137 128 123 123 95 99 103 110 162 153 47 72 56 168 192 185 200 210 164 115 129 134 149 160 170 185 193 199 195 206 208 211 211 212 217 217 218 217 219 217 218 215 213 215 214 209 197 191 185 176 171 163 160 177 184 194 198 201 203 201 199 195 181 165 147 151 160 151 162 172 193 202 208 213 209 208 210 209 213 193 193 202 204 203 202 193 190 188 174 166 156 142 132 125 123 121 88 93 124 140 161 142 61 58 31 168 196 199 196 181 170 111 131 131 143 150 162 174 182 194 194 203 203 207 213 211 214 218 218 216 216 218 217 215 216 220 214 208 199 192 182 167 170 160 163 177 189 196 204 210 208 210 202 198 191 172 151 149 162 151 155 181 191 208 206 212 208 207 204 204 207 194 190 199 202 201 196 189 186 182 165 164 152 136 125 121 120 119 94 123 141 184 178 141 52 52 19 174 199 207 200 188 171 105 134 130 143 152 157 172 182 192 198 204 205 205 209 212 215 218 215 211 214 213 218 216 215 217 218 211 203 192 179 164 173 162 164 181 185 195 212 216 214 219 213 206 196 176 159 144 164 156 151 184 193 203 203 207 206 204 202 203 204 203 196 200 201 198 192 187 185 181 166 161 146 133 123 119 121 116 98 177 153 192 163 155 51 49 29 164 200 209 213 204 176 102 126 134 143 151 157 169 176 185 194 202 205 204 208 208 213 214 212 214 213 216 217 217 215 218 210 212 205 191 165 177 174 162 169 180 186 204 216 223 222 225 220 210 197 179 165 142 163 161 151 180 200 201 204 206 206 199 199 203 201 201 199 198 199 193 192 185 181 174 165 156 145 131 122 118 117 117 98 176 137 173 164 163 56 47 45 112 206 209 209 208 187 103 125 136 137 150 154 163 168 176 185 197 200 202 205 207 209 212 211 217 217 215 218 218 213 216 215 209 212 197 160 184 169 168 164 178 187 204 212 219 221 223 217 207 194 178 160 150 161 160 153 167 200 199 205 208 208 203 199 199 200 202 196 197 194 194 185 181 177 169 160 148 139 127 121 117 122 105 124 163 159 169 176 167 50 53 49 48 204 205 213 211 182 108 125 136 138 146 160 163 166 172 183 193 195 201 204 205 210 210 211 213 216 215 219 216 204 216 215 211 209 184 164 176 172 168 159 169 180 193 203 206 209 213 210 198 185 163 154 157 161 164 157 138 192 204 206 207 208 204 200 201 198 200 199 196 194 189 182 179 174 166 156 142 134 124 122 114 113 103 141 177 177 178 176 176 51 51 49 25 198 197 208 207 190 120 121 135 140 146 158 158 166 168 174 188 193 199 201 200 207 211 209 213 216 214 217 220 215 219 216 213 207 181 170 169 165 161 149 148 157 172 186 187 198 200 198 177 163 146 145 142 148 160 152 134 189 205 209 210 206 201 202 202 196 199 197 197 189 185 179 176 170 164 153 138 126 123 119 112 116 101 140 177 187 187 182 175 52 48 50 51 101 194 209 201 190 118 119 136 144 149 157 163 163 172 169 180 190 196 197 199 207 210 210 211 215 215 212 218 217 217 216 215 202 173 167 169 146 126 120 141 147 146 156 164 184 181 179 160 151 135 126 108 129 147 156 132 174 198 208 212 207 203 203 198 191 197 194 196 191 185 176 171 167 157 145 134 130 122 117 117 116 95 148 179 187 189 183 170 53 49 50 51 25 157 184 187 180 110 114 130 144 154 150 159 169 163 167 176 183 192 195 203 206 210 210 210 215 215 215 217 218 217 215 214 201 174 154 152 121 86 77 25 56 131 140 144 159 167 143 141 119 38 35 60 65 123 146 138 175 185 204 210 203 203 202 201 194 195 194 193 188 182 171 166 160 150 141 135 128 125 117 124 113 102 144 172 182 183 174 181 51 50 49 48 51 29 113 167 160 100 102 133 145 150 152 159 166 166 170 174 177 186 189 200 206 210 209 211 212 214 215 215 216 215 214 212 202 188 146 156 134 131 147 113 64 83 103 117 119 122 119 97 48 61 108 136 108 128 149 135 167 182 196 207 205 205 203 198 195 197 188 192 185 179 168 164 158 151 139 131 130 126 121 121 116 113 157 171 183 177 165 149 51 52 50 51 51 46 40 39 88 102 115 128 149 149 154 159 163 170 170 172 178 183 188 200 204 209 209 209 213 213 214 216 215 212 213 211 203 197 157 159 158 155 177 160 139 149 111 111 109 112 106 109 120 139 147 172 146 139 134 132 186 175 192 202 208 204 203 199 198 195 192 187 182 177 168 166 159 150 137 132 130 126 121 122 114 103 157 164 172 160 158 33 52 53 52 50 50 52 45 46 58 88 112 125 147 150 155 159 162 169 173 172 178 186 191 198 205 208 208 208 212 214 216 214 215 216 211 210 205 200 184 135 144 167 179 184 200 177 157 129 121 108 118 137 163 175 164 161 140 125 117 172 187 175 188 197 203 209 202 195 195 195 193 185 180 174 167 165 156 146 134 133 129 125 121 119 112 106 140 152 149 147 58 15 51 52 52 49 52 49 43 42 56 92 107 129 144 151 156 158 165 165 170 172 176 185 187 198 199 203 206 196 208 210 212 212 213 212 211 207 209 205 195 186 159 167 177 181 180 186 184 180 149 145 166 182 178 176 166 150 129 122 156 184 185 187 193 197 201 205 196 196 197 194 193 182 175 173 169 159 152 144 134 129 129 126 122 120 113 94 108 94 68 13 22 22 53 52 52 52 50 49 43 41 48 73 108 126 148 153 155 159 160 162 168 171 174 184 186 191 198 204 206 205 210 211 210 211 211 209 207 211 211 206 208 207 194 192 188 196 204 211 211 210 191 198 206 197 187 174 168 167 166 175 178 186 197 197 200 194 195 198 198 203 202 193 191 183 176 174 167 161 144 141 133 132 125 128 126 119 111 88 30 19 26 25 26 20 53 53 52 53 50 48 45 44 39 73 109 134 150 155 152 157 156 160 164 171 172 183 190 191 195 203 208 207 206 207 208 207 210 214 211 211 209 213 206 208 207 203 191 197 208 203 211 221 213 205 205 196 193 185 164 169 170 187 192 197 205 200 199 197 195 196 198 197 202 194 190 179 175 172 166 155 142 139 133 132 130 128 125 119 106 98 34 28 27 25 25 24 52 53 53 54 51 48 45 38 39 76 112 137 142 148 152 154 155 159 157 167 168 180 191 192 193 201 203 205 204 209 208 210 212 211 208 210 210 209 208 204 198 190 173 179 205 203 193 205 179 214 203 179 170 182 169 177 167 172 194 193 200 196 194 194 191 193 194 191 197 185 182 180 175 169 164 153 145 133 133 129 131 122 121 117 103 83 44 25 29 26 23 25 52 53 52 51 51 50 48 38 40 57 96 129 136 155 157 153 153 153 151 158 163 172 184 190 193 200 204 201 202 207 205 204 207 208 210 210 205 202 187 195 187 175 171 189 191 192 181 192 185 214 195 200 207 187 170 165 164 164 184 187 195 194 195 194 191 189 189 188 192 182 185 182 179 167 159 148 144 136 129 131 124 128 127 118 104 82 34 23 25 26 25 25 53 53 52 52 52 50 48 43 40 54 93 124 138 157 161 155 153 148 152 153 160 169 180 190 191 198 202 202 203 205 199 199 206 201 199 197 205 204 182 185 192 185 162 195 185 205 185 178 193 198 193 204 198 186 165 158 156 163 174 187 181 190 197 191 186 184 185 183 185 183 191 195 175 163 156 149 138 131 129 130 124 130 130 120 101 82 24 30 26 27 26 24 53 53 52 53 50 53 51 46 42 41 88 117 138 150 163 159 161 148 147 144 161 165 176 187 189 192 197 195 202 196 196 194 198 184 205 192 200 191 181 184 177 173 185 193 197 199 194 172 193 198 201 201 197 188 166 163 131 152 151 176 166 176 188 182 181 180 172 182 184 184 186 175 152 157 157 148 136 130 128 131 128 132 126 118 92 77 27 25 27 26 25 26 53 52 51 49 49 51 51 48 45 39 87 114 140 148 161 167 162 157 143 148 154 157 172 180 188 189 191 193 189 189 199 200 190 179 192 199 185 188 167 176 191 188 194 189 199 178 203 195 198 206 207 208 196 187 179 180 160 155 162 158 163 150 165 161 164 175 181 188 176 169 171 170 161 164 151 144 133 127 130 129 129 133 121 123 101 70 24 25 26 27 26 26 52 53 51 52 50 52 50 50 45 41 75 118 136 150 163 172 172 165 145 150 148 152 170 176 184 176 182 185 184 191 188 187 163 191 189 180 172 178 176 191 168 175 190 193 194 207 217 189 206 211 207 199 190 192 179 177 177 175 161 169 161 169 163 166 162 172 162 172 170 128 142 165 161 154 147 143 132 129 128 129 131 134 122 115 93 60 26 25 26 27 26 26 52 52 52 54 52 52 50 50 48 47 47 115 131 148 161 171 176 170 145 141 147 152 166 173 180 173 178 175 185 189 183 187 182 198 185 171 174 179 182 189 194 188 197 201 203 210 207 205 206 212 213 207 210 205 190 182 187 187 167 174 165 167 171 162 164 167 157 169 175 168 145 149 159 157 148 133 129 125 129 126 127 134 125 112 88 63 25 29 25 27 26 27 54 54 52 52 53 52 47 47 48 48 40 112 131 154 161 169 175 172 159 142 147 149 158 171 171 172 177 180 168 173 187 175 181 182 190 180 183 183 188 189 199 204 198 202 207 205 218 207 205 210 216 211 208 201 187 196 189 196 183 173 169 169 179 165 158 175 158 144 145 168 139 143 163 157 141 132 131 132 132 132 132 126 119 113 89 55 30 26 25 26 27 27 52 52 52 52 53 52 52 50 50 46 45 86 131 152 161 171 179 175 167 152 144 146 156 162 164 159 171 181 170 184 181 172 172 170 176 178 187 180 185 180 174 168 168 172 168 175 191 202 212 212 217 194 171 144 136 152 151 157 159 152 163 177 170 160 160 157 179 160 164 151 156 150 162 150 135 129 134 135 133 135 137 129 113 107 77 34 30 26 26 26 28 28 52 52 53 52 52 52 53 52 51 47 47 60 123 143 160 168 175 178 171 160 154 151 155 156 166 159 170 171 175 176 175 170 159 166 157 168 166 162 141 131 132 144 145 135 134 130 138 132 127 156 132 117 123 134 146 164 153 150 135 119 133 158 151 160 140 137 159 164 156 155 151 149 154 145 128 130 134 134 136 136 132 126 110 110 75 27 27 27 26 26 26 27 54 53 52 52 53 52 53 51 51 48 47 34 108 136 152 167 177 184 177 172 161 152 157 152 160 163 158 163 173 171 174 168 162 154 150 141 128 116 111 124 105 70 91 99 101 114 100 110 88 110 97 116 116 132 112 106 108 108 125 110 112 107 132 146 147 139 150 160 146 149 141 132 148 142 135 133 138 133 135 135 127 124 116 98 75 25 28 27 26 27 25 24 52 54 53 54 53 53 51 52 50 49 47 42 77 130 146 163 177 181 179 170 167 162 159 156 158 159 165 172 174 178 168 159 134 95 83 95 90 89 77 66 66 78 104 110 117 120 116 108 144 110 120 107 121 125 119 102 77 66 73 109 101 97 82 85 96 136 143 164 154 156 146 147 152 137 137 139 141 133 133 126 124 115 125 80 76 27 26 26 27 27 28 28 54 53 53 53 53 53 50 52 50 47 46 50 44 122 132 155 173 175 185 169 176 159 163 155 160 165 167 176 175 179 170 162 151 168 162 149 122 108 115 138 165 175 173 181 187 175 187 188 189 195 205 186 189 187 176 167 165 177 136 95 89 85 121 158 154 152 152 166 168 155 153 150 152 139 137 143 142 138 131 125 123 115 103 78 25 27 26 26 27 26 27 27 51 53 53 53 52 52 50 51 50 49 47 46 42 95 121 152 159 176 181 175 179 171 171 154 155 172 169 178 174 181 184 191 199 209 209 201 187 172 165 154 155 162 171 176 179 187 189 177 191 192 195 195 178 175 170 164 159 161 153 149 158 177 171 185 187 193 179 175 175 166 157 147 149 144 142 143 140 134 129 130 121 114 93 67 27 27 25 27 26 26 27 28 53 53 53 52 51 50 50 50 51 49 48 47 42 67 101 143 152 173 179 175 172 177 175 158 154 172 175 171 188 189 197 204 205 208 206 200 195 186 189 184 167 173 169 172 180 183 191 187 190 191 192 188 178 180 177 174 169 155 161 158 161 170 173 184 194 195 191 182 179 175 160 148 152 140 140 144 141 132 124 130 118 103 75 55 26 26 25 26 27 26 27 28 53 52 53 53 54 51 50 49 51 50 48 47 47 54 104 122 142 167 185 174 177 177 181 165 153 167 176 178 197 201 201 206 209 211 208 203 202 200 187 185 180 192 193 194 194 194 192 190 190 189 194 197 187 185 191 182 181 182 179 162 168 174 179 182 189 193 189 184 193 179 155 152 149 138 142 140 141 135 130 125 113 103 75 23 25 27 26 26 27 26 27 28 54 53 53 52 51 51 52 52 52 50 49 46 52 50 74 111 129 155 182 174 179 182 181 174 158 161 175 183 185 202 201 206 209 210 208 201 204 200 200 187 187 188 189 187 191 201 193 191 186 185 185 181 183 188 187 182 180 177 175 169 174 176 177 176 188 191 188 186 184 171 158 151 146 141 144 132 135 136 130 126 116 77 51 25 24 28 26 26 27 25 27 28 56 54 54 52 52 53 52 51 51 51 49 48 48 49 58 94 113 152 167 174 183 183 182 176 166 157 171 181 188 195 202 207 209 208 204 203 201 204 198 193 194 192 192 187 180 178 172 167 163 164 170 164 171 175 176 182 181 177 174 174 175 178 181 177 188 188 186 186 182 170 152 148 144 140 142 141 141 135 129 125 110 61 34 24 28 23 26 26 27 25 26 28 53 53 54 52 52 52 53 52 52 51 49 48 49 49 46 76 96 137 163 171 179 180 181 178 171 164 169 178 187 190 200 206 205 202 200 202 203 202 202 198 197 190 194 198 193 202 192 184 183 189 189 184 190 203 194 187 187 180 175 179 172 171 175 180 181 189 183 183 177 170 159 156 136 138 142 136 134 135 123 111 86 39 28 29 27 26 26 27 29 27 26 26 57 53 54 51 53 50 52 51 52 52 49 48 49 50 46 67 87 112 144 165 176 175 179 179 170 170 171 174 181 188 197 201 199 198 198 201 203 203 202 199 201 201 202 197 190 190 188 191 195 182 183 182 185 187 177 176 185 173 185 171 173 176 176 179 181 180 183 179 171 163 158 142 143 138 141 137 127 123 120 102 67 27 29 30 28 26 26 27 28 29 29 29 54 53 54 51 53 54 54 53 52 52 51 47 49 49 43 52 128 92 117 161 171 174 177 177 170 166 173 178 181 193 194 198 195 197 198 196 201 199 197 198 200 202 197 197 190 187 192 178 197 186 176 174 183 177 181 180 178 179 181 176 180 176 177 177 176 180 183 175 165 160 165 144 140 138 138 141 117 113 107 95 58 35 27 29 28 26 25 27 28 28 29 28 52 53 53 54 54 54 52 53 52 50 49 47 47 47 47 43 119 127 78 134 166 171 174 180 175 165 168 170 176 187 195 198 193 193 193 194 195 197 200 198 200 199 201 200 196 194 199 184 191 185 185 185 196 184 182 184 180 182 177 173 180 177 177 175 176 181 173 164 163 155 154 135 132 136 137 115 124 106 104 107 28 20 28 26 26 26 26 26 26 29 28 29 52 56 55 53 52 53 51 50 53 54 50 47 44 44 46 51 110 161 95 108 152 166 174 178 169 158 156 164 177 181 184 193 192 191 191 193 195 196 194 195 199 200 203 204 202 199 193 190 188 185 188 186 191 187 188 186 189 185 182 182 182 181 179 182 173 176 168 167 160 161 158 136 132 135 138 126 110 90 81 122 28 29 28 27 27 26 27 26 27 28 29 30 52 53 52 52 54 54 54 54 52 52 49 46 47 47 46 47 111 154 156 71 131 157 165 173 169 153 151 160 174 165 187 188 184 192 189 193 198 196 194 194 199 206 203 204 204 199 200 195 192 184 187 185 181 191 193 199 195 189 186 189 188 188 187 183 175 175 168 160 158 156 153 141 140 132 134 118 94 84 100 129 25 31 27 27 28 27 28 28 28 29 29 30 51 53 55 58 57 54 51 51 51 49 50 50 47 47 47 51 100 144 174 121 89 131 149 163 167 164 165 161 174 175 180 186 189 191 191 191 195 198 201 201 205 207 202 205 209 199 201 198 181 180 187 184 201 205 205 207 184 190 191 192 194 191 192 178 176 176 155 163 163 149 139 142 137 129 118 94 91 87 115 131 19 31 27 27 26 27 27 27 29 31 30 30 51 53 54 55 54 53 52 51 52 52 50 52 48 47 48 51 93 138 172 170 84 93 134 153 166 152 153 158 154 174 186 181 175 184 193 194 197 205 207 206 205 208 208 209 215 215 218 212 203 201 205 206 212 210 204 200 195 200 202 200 201 198 191 195 178 171 168 160 155 146 129 121 119 119 103 77 78 109 130 131 11 28 29 28 28 26 29 26 28 29 30 30 56 55 53 52 52 53 54 53 53 53 48 49 48 48 48 50 82 136 160 177 144 80 105 136 151 139 146 161 164 162 188 185 179 177 191 198 196 204 212 210 210 215 213 210 213 217 217 217 219 219 217 216 208 208 203 199 202 202 208 207 201 200 183 185 164 176 169 171 149 135 121 113 111 117 88 75 99 125 127 127 10 28 31 28 28 26 29 28 28 29 29 30 56 54 56 54 54 53 56 54 52 53 52 49 49 48 50 46 74 138 158 177 177 126 90 108 133 130 126 154 156 160 189 185 190 184 193 199 199 205 212 216 216 215 214 205 210 216 217 219 220 218 215 215 209 208 208 200 205 207 206 214 198 204 196 180 171 174 151 130 136 133 117 104 101 115 61 91 121 130 129 126 15 32 27 28 27 24 29 28 28 28 30 30 52 54 56 54 52 56 56 52 52 52 52 49 48 48 48 49 56 139 154 173 180 169 131 78 104 109 123 143 151 155 174 165 171 175 187 190 199 199 205 211 211 206 206 209 212 216 218 223 219 207 213 218 214 211 212 203 202 197 203 200 194 190 188 176 155 144 141 163 158 113 109 101 87 87 67 115 134 137 129 122 15 26 27 30 30 28 29 27 26 26 31 32 53 56 54 53 54 53 54 53 52 53 50 50 50 48 48 52 37 144 147 169 178 183 169 107 90 115 113 111 134 149 155 154 184 181 181 180 194 196 201 206 203 189 202 204 211 214 213 221 212 211 215 215 211 215 209 199 202 178 199 197 185 173 177 155 144 151 140 106 122 108 106 86 70 69 114 133 142 139 129 121 16 27 31 30 30 28 29 27 26 29 31 31 52 54 55 54 54 50 54 53 52 53 53 51 48 48 49 50 39 138 150 162 181 187 197 155 107 61 86 97 120 125 132 154 172 165 174 183 191 193 199 206 182 204 204 195 215 218 220 211 206 214 217 216 206 215 212 200 197 191 194 187 175 166 170 153 166 157 136 111 111 104 101 76 58 100 133 146 143 137 127 112 23 33 31 31 31 28 28 28 31 31 28 30 55 55 54 53 54 51 53 52 52 50 52 48 47 47 49 50 30 126 151 158 172 180 192 183 156 98 85 88 100 117 119 119 138 130 150 181 185 196 181 169 194 203 202 202 213 217 202 202 199 202 201 205 209 205 201 200 194 188 176 181 164 171 138 129 126 118 118 113 96 91 77 58 82 133 154 149 145 137 131 101 28 33 31 30 28 27 27 29 30 30 30 32 55 54 54 53 54 54 54 53 53 51 52 47 49 49 45 24 5 138 148 160 168 179 189 191 185 156 73 62 84 92 107 133 148 139 163 174 175 184 179 162 179 197 202 200 206 217 201 208 201 199 199 198 200 205 197 191 190 187 164 170 144 141 139 130 141 119 107 77 93 61 62 66 131 156 159 145 138 139 126 99 25 30 31 30 27 26 27 28 29 30 28 30 56 55 54 54 54 53 54 53 53 50 53 49 46 50 25 12 1 114 143 153 170 179 184 190 196 173 137 80 65 90 119 104 110 135 144 157 165 180 166 148 197 188 192 192 189 187 198 193 196 194 190 193 192 194 182 176 178 168 153 148 137 129 118 135 131 116 108 83 70 46 66 113 142 160 151 150 138 135 125 94 23 33 32 30 27 27 27 30 31 31 29 34 57 56 53 53 53 54 54 53 55 54 54 51 49 28 12 9 10 111 145 151 168 176 185 190 199 193 178 142 71 67 82 71 104 110 151 160 151 155 160 169 169 166 194 186 172 186 192 186 186 188 186 185 185 182 189 180 167 155 155 116 132 137 137 110 100 82 81 67 63 70 109 140 149 163 151 146 144 135 125 83 27 33 30 30 29 27 27 29 31 32 32 36 54 55 56 57 56 58 55 55 55 51 54 51 33 18 14 6 83 108 144 154 163 175 180 185 198 199 191 184 142 78 82 81 96 101 106 113 136 146 144 145 145 177 161 172 169 176 180 186 176 184 183 182 188 175 179 161 151 147 140 125 116 102 102 112 99 81 63 60 72 103 134 146 160 162 148 139 147 132 124 87 24 29 32 31 28 27 26 26 30 32 32 37 54 56 58 54 57 56 54 54 54 50 48 31 25 16 13 3 99 111 141 154 164 174 179 187 193 196 192 191 182 151 79 72 83 112 85 107 119 125 131 148 153 155 144 169 161 173 169 171 171 174 168 186 162 161 168 120 137 155 120 109 119 94 113 82 75 76 58 71 105 137 152 152 162 156 142 148 139 131 125 86 23 31 31 28 29 25 28 30 32 30 34 39 57 56 55 56 57 55 53 55 54 56 40 26 24 10 14 4 118 112 133 151 166 176 178 187 191 193 195 192 192 183 161 77 67 103 83 117 102 104 122 121 126 133 122 146 172 148 157 156 164 147 140 139 134 121 132 135 102 114 111 112 88 73 100 65 68 61 84 105 134 145 157 158 154 148 148 144 135 132 127 87 29 32 31 29 29 29 29 30 31 31 36 42 59 55 54 55 58 56 55 57 51 50 28 20 14 12 14 3 115 108 129 149 163 174 176 185 191 193 189 189 190 196 181 171 106 58 113 66 75 94 103 105 120 131 114 150 131 135 150 174 141 152 141 126 160 139 126 85 95 81 104 103 74 63 70 62 72 95 113 127 146 147 149 143 148 148 155 144 139 132 127 91 24 30 27 32 31 30 28 30 33 37 40 45 58 55 53 57 55 55 57 53 53 28 29 16 12 10 12 13 83 125 130 146 164 174 176 183 189 191 192 196 192 192 194 184 186 133 89 59 57 63 63 80 63 92 109 99 106 112 129 115 113 81 120 73 122 95 92 67 79 68 49 66 50 58 52 79 111 108 124 142 149 153 152 154 153 158 154 142 139 131 128 86 15 31 30 28 30 28 28 31 35 37 43 43 57 58 54 57 56 52 54 54 43 39 25 21 13 10 12 20 19 137 128 138 161 172 180 184 186 188 197 191 195 199 194 196 187 177 150 112 76 62 55 56 64 80 65 82 89 89 74 70 87 68 76 37 65 29 61 46 30 48 41 51 58 92 111 111 129 130 139 150 144 151 152 154 155 157 150 143 142 131 129 75 10 26 30 29 30 28 30 32 35 39 43 42 56 53 56 54 55 58 53 50 26 32 26 24 14 6 9 15 14 95 129 141 156 170 182 187 189 190 194 196 194 196 200 200 196 181 168 156 142 119 84 71 45 50 55 48 45 29 41 27 40 35 20 16 18 24 27 42 63 67 81 108 126 127 121 131 145 141 148 145 145 150 158 157 161 153 150 141 140 132 120 74 12 15 28 30 31 30 28 34 38 42 42 43 56 55 59 57 55 55 54 35 33 31 30 25 13 7 9 13 22 9 132 129 155 166 177 190 190 188 194 198 197 197 199 203 201 196 186 169 151 155 156 151 119 106 99 78 73 60 75 68 67 48 69 92 116 131 138 143 137 151 135 129 137 139 130 136 147 145 144 143 148 152 155 166 156 154 151 143 137 130 121 75 6 16 26 32 32 29 27 38 39 43 44 44
