P2
# Generated by OpenCV 4.2.0
92 112
255
84 81 74 56 51 48 43 32 34 71 92 125 152 162 164 165 171 173 173 172 174 176 176 175 175 176 175 172 171 172 170 165 162 160 157 154 150 140 130 118 109 100 96 88 78 57 46 62 73 82 84 82 85 80 78 70 66 59 57 58 60 62 63 70 72 71 71 77 83 96 94 78 69 75 85 90 84 86 61 72 77 70 37 43 69 81 65 73 78 68 41 35 88 74 58 55 51 49 47 44 57 88 105 147 158 163 167 167 171 173 173 175 177 175 175 177 175 175 176 174 174 172 171 168 166 161 161 159 156 147 138 132 125 116 106 99 94 85 63 50 51 68 76 77 77 83 80 78 75 74 64 60 58 60 63 66 67 68 75 73 74 81 90 98 97 87 81 95 100 82 70 69 63 72 60 48 65 80 64 70 78 72 52 37 70 60 55 60 62 60 52 57 87 101 131 160 160 165 170 170 173 173 175 176 176 175 177 178 177 178 176 176 176 175 174 173 172 169 166 166 163 157 148 142 139 130 121 113 104 94 86 69 49 41 49 57 65 68 63 63 69 57 45 54 62 68 71 70 71 71 79 87 76 74 80 86 92 95 98 95 109 97 75 65 64 56 69 57 67 86 74 75 75 74 64 32 67 74 80 65 64 62 58 81 99 115 150 164 164 168 170 171 171 173 176 177 175 177 178 177 177 178 175 177 177 178 176 174 170 172 170 170 168 162 156 155 152 144 137 133 123 114 108 97 84 68 54 43 41 46 48 49 51 53 54 63 69 74 76 77 79 78 81 91 89 83 87 86 84 88 97 93 89 106 92 70 61 49 60 58 71 92 77 73 83 70 78 45 78 75 72 74 71 60 76 99 105 130 159 167 167 169 173 172 171 174 176 177 177 177 177 178 177 176 178 177 177 176 176 175 172 172 173 174 171 167 164 161 159 156 154 152 147 142 136 129 121 111 96 82 68 61 65 70 74 80 86 89 90 91 90 86 86 84 83 85 90 89 90 91 85 84 89 92 80 88 102 94 71 52 59 69 73 90 84 71 81 69 76 71 85 80 77 67 56 63 92 105 118 144 161 165 171 171 173 172 172 176 177 177 177 178 177 179 180 177 176 179 178 178 179 177 176 176 176 173 173 171 170 168 165 165 164 161 159 158 154 149 147 145 141 134 130 126 124 126 128 126 121 122 122 121 114 107 99 97 93 90 90 86 82 92 93 94 94 88 85 76 91 97 86 66 57 67 80 85 83 68 64 65 65 80 84 79 65 57 57 83 96 114 130 152 163 171 173 172 172 172 172 174 175 174 173 175 175 177 179 176 175 179 180 180 180 178 177 177 176 174 174 172 169 171 171 170 169 167 168 166 163 162 161 159 157 156 156 155 153 149 150 147 145 144 140 136 132 124 115 111 106 102 98 94 88 89 96 101 98 93 92 83 87 93 87 77 55 60 77 87 78 64 47 57 58 70 77 76 67 60 73 89 100 115 140 159 169 173 172 171 172 172 172 173 174 175 174 174 174 175 176 176 178 178 179 179 179 178 177 177 176 177 179 175 175 175 173 172 170 172 173 169 169 170 167 166 165 166 166 165 166 164 160 159 158 154 150 147 142 134 126 123 116 109 106 104 98 83 89 95 104 103 90 90 87 89 84 77 60 63 79 90 76 62 45 44 46 55 91 79 74 70 83 97 108 122 150 166 171 170 171 170 171 172 172 173 173 174 174 176 173 173 176 179 182 180 179 178 178 179 181 181 179 175 177 175 177 178 176 176 177 176 175 175 172 172 174 173 171 173 171 170 171 172 169 168 165 161 159 156 151 142 135 132 125 117 116 111 110 95 83 94 102 112 99 94 93 82 74 68 64 64 69 85 77 50 48 55 50 60 99 79 86 78 92 103 107 130 156 166 172 172 172 170 169 170 172 174 172 174 174 174 175 175 179 180 182 182 180 181 180 178 182 182 181 179 176 175 175 178 177 175 174 175 177 178 176 173 175 175 174 174 174 175 174 172 173 170 167 165 164 162 157 152 144 139 135 131 123 120 121 111 95 90 103 105 105 95 102 90 77 62 51 72 59 72 72 65 61 58 58 58 98 91 91 91 99 100 112 141 160 168 172 172 171 172 171 169 171 175 175 175 176 175 175 177 178 179 181 182 181 180 180 179 178 180 180 177 177 177 178 178 178 176 177 180 181 182 179 176 176 177 177 177 177 176 175 175 177 173 173 170 169 165 165 157 151 146 140 137 134 128 125 121 111 89 98 112 101 99 94 98 83 68 40 65 63 65 64 62 78 79 60 52 99 101 90 90 95 102 125 151 164 168 171 171 172 173 170 171 171 171 175 176 175 177 177 181 181 180 180 181 180 182 181 180 179 180 180 179 180 180 181 180 180 181 182 183 181 178 178 180 179 179 180 181 179 178 177 178 176 170 174 173 172 172 168 162 159 154 148 142 140 139 130 127 124 111 85 99 105 89 91 102 89 83 46 55 64 70 77 62 67 87 87 67 107 92 82 89 94 106 134 158 164 167 170 169 169 171 171 170 169 169 173 175 177 179 179 181 182 181 182 183 185 184 183 182 182 180 182 181 182 180 181 181 181 181 182 183 180 178 179 181 181 181 179 179 180 181 179 179 179 175 177 176 176 174 172 170 166 160 157 148 145 141 135 131 123 125 107 77 91 102 81 92 93 87 71 46 60 82 92 79 74 74 88 93 106 77 75 96 98 110 142 160 163 167 167 166 165 168 172 170 166 171 174 176 180 179 178 179 182 184 186 184 187 186 185 183 180 182 184 184 182 180 181 181 180 181 180 183 183 181 182 182 181 180 181 183 182 182 181 180 181 181 181 179 178 176 173 172 170 168 160 157 154 147 139 137 131 126 125 104 69 81 88 69 80 81 71 51 68 76 89 87 88 86 76 92 93 70 83 95 100 122 149 161 163 167 167 167 168 170 171 169 167 171 176 178 179 177 178 176 178 183 185 185 187 186 189 188 184 183 183 183 183 180 183 181 181 180 182 182 181 182 183 184 181 180 184 184 182 181 181 181 180 178 179 180 177 174 174 174 170 170 167 162 159 154 145 143 140 133 126 114 93 62 72 68 64 79 71 59 73 76 85 85 80 84 86 74 83 77 91 91 108 135 153 159 163 165 167 169 169 171 170 171 171 172 173 175 179 182 184 179 178 183 184 184 184 187 186 186 185 186 184 183 183 181 181 182 182 182 181 182 182 182 184 186 184 183 186 184 184 184 183 183 184 180 180 183 180 179 176 173 173 172 169 168 163 162 157 151 146 137 127 112 111 96 71 73 73 81 85 82 85 81 86 85 83 75 77 82 83 83 85 93 112 136 153 159 164 163 166 168 169 171 172 172 172 174 174 175 176 181 184 185 180 184 184 184 184 185 185 185 185 184 184 185 184 181 182 183 182 184 183 182 182 182 185 184 185 186 188 186 186 187 187 187 187 186 184 184 184 182 181 174 175 171 170 166 164 167 163 158 152 143 128 114 110 108 101 100 90 97 104 103 105 90 81 90 79 76 60 63 72 81 88 96 112 140 155 158 160 162 163 167 169 170 172 172 171 173 172 173 174 178 179 181 181 182 182 183 184 186 188 187 186 185 185 185 183 184 183 183 183 185 185 182 183 185 185 184 188 187 186 188 188 188 188 187 187 188 187 184 183 184 183 179 178 175 172 169 166 169 167 163 162 154 139 127 119 115 117 112 110 120 123 114 114 99 85 94 78 74 58 46 65 86 94 91 116 145 154 158 161 162 164 167 169 170 171 170 168 170 170 172 175 176 176 179 181 181 182 183 183 184 185 186 184 185 187 186 184 180 183 183 183 183 184 183 185 185 185 184 188 185 185 187 189 189 190 188 188 188 188 184 183 185 185 182 181 177 176 174 173 171 169 167 164 154 148 139 136 132 131 129 130 132 129 122 109 107 89 90 85 67 58 32 77 97 88 86 123 148 156 158 160 161 162 163 166 167 168 168 171 170 171 171 175 174 177 179 180 179 180 183 184 181 183 184 183 184 185 185 184 179 181 182 183 183 182 182 184 185 184 183 184 183 184 187 189 188 189 187 186 186 186 185 182 185 183 182 182 179 177 176 174 174 171 167 165 154 151 146 144 144 144 141 138 137 134 130 113 108 102 86 95 67 58 30 83 100 80 90 133 151 156 157 158 161 161 163 165 168 171 168 173 174 174 171 175 174 177 180 179 178 181 183 184 183 184 183 182 183 182 182 180 180 180 183 183 183 183 181 181 184 183 182 182 181 183 183 182 184 185 184 183 184 185 185 185 187 185 184 182 181 178 177 176 175 172 168 163 156 151 145 145 148 150 147 142 140 136 134 121 106 105 85 89 77 56 40 93 103 75 96 138 153 155 157 158 160 163 165 169 171 173 173 178 180 179 176 176 175 175 180 178 179 181 182 183 181 178 180 181 183 182 179 178 178 180 182 180 182 181 179 181 185 184 181 182 181 181 181 181 181 184 183 185 186 185 185 185 187 187 184 183 182 179 178 177 177 173 169 164 158 152 148 147 153 154 148 149 147 142 134 122 108 101 86 78 87 59 48 111 100 75 103 141 152 154 158 160 165 168 170 172 174 177 177 178 178 175 174 178 176 172 176 178 176 178 180 179 179 174 175 179 180 180 177 179 180 181 182 181 181 180 180 181 181 182 179 182 182 180 180 182 184 187 188 186 186 184 185 182 185 186 184 182 181 183 182 180 176 175 171 165 160 153 153 153 157 156 156 159 155 146 135 121 110 103 88 83 90 72 50 86 94 73 104 142 146 153 158 162 170 171 172 170 169 168 166 160 160 161 161 161 162 164 163 164 162 162 168 173 172 172 172 177 177 177 173 175 178 180 182 181 179 179 177 177 178 180 179 180 179 179 180 181 184 187 186 184 183 184 184 183 184 185 186 186 183 183 184 184 179 177 175 170 164 159 157 157 153 155 163 159 149 143 136 122 109 107 89 90 85 82 56 81 95 72 105 139 144 151 157 162 169 171 165 157 150 148 151 145 139 142 141 136 133 134 136 134 136 138 147 160 165 167 168 171 172 171 168 169 176 177 176 175 178 175 175 174 176 176 175 178 174 171 170 173 174 173 173 173 175 172 174 175 175 175 179 181 181 182 183 186 183 181 178 172 165 159 155 154 150 148 146 143 140 139 136 121 107 104 90 87 94 90 65 72 98 75 100 138 144 151 155 156 154 154 146 142 135 128 127 126 118 118 113 111 112 106 106 118 126 124 130 145 151 155 163 164 163 163 163 167 173 172 169 170 173 175 168 169 169 168 170 172 164 157 154 157 145 140 140 143 148 150 150 152 155 154 160 167 168 167 170 176 183 186 183 175 165 159 158 157 154 148 138 139 145 137 135 120 108 108 97 82 96 102 82 60 90 77 96 136 144 149 152 148 136 130 122 118 121 118 109 102 98 94 96 90 88 88 89 98 110 116 127 135 133 142 151 153 154 156 157 162 163 165 166 168 169 167 162 159 160 161 162 159 151 146 142 134 123 121 119 119 117 114 118 126 132 133 134 136 141 146 154 162 172 179 183 179 174 166 160 157 151 146 146 151 145 132 136 123 110 105 102 79 89 101 109 51 77 81 96 136 143 143 140 137 127 120 114 109 102 98 100 89 80 76 73 81 78 74 76 87 92 106 122 119 118 132 138 141 144 146 152 154 153 156 160 162 164 160 156 155 152 149 150 145 141 138 129 115 113 112 100 93 88 89 91 98 106 110 112 116 121 132 139 140 142 147 161 173 178 172 164 159 153 151 148 145 139 135 139 123 113 94 101 85 90 91 105 73 78 82 90 132 141 140 139 134 127 120 114 115 108 100 100 100 96 86 74 74 78 72 71 79 88 94 106 109 111 123 129 131 137 141 145 147 149 148 150 156 157 156 150 147 145 140 140 137 135 131 121 107 101 92 85 75 73 78 81 86 87 90 93 101 106 111 117 118 118 124 140 154 163 166 164 161 158 149 141 139 135 139 137 123 108 86 94 95 90 93 83 75 76 84 91 126 139 141 145 132 120 118 118 119 120 117 116 117 115 110 103 96 93 88 84 86 87 88 89 99 103 107 115 120 126 133 135 134 138 138 143 147 151 149 144 138 136 135 131 127 122 114 107 99 91 84 79 77 76 77 78 82 82 82 88 93 94 98 106 110 115 120 127 135 142 151 161 163 159 152 140 134 132 138 131 119 104 86 91 97 94 95 81 48 57 67 92 127 140 142 140 130 125 118 118 123 130 132 132 130 130 129 123 117 119 112 100 95 92 91 88 88 92 97 107 110 116 119 121 123 126 132 138 142 140 139 135 132 127 123 122 116 110 100 98 91 83 83 83 87 86 86 91 99 102 111 115 111 119 120 117 119 119 115 116 121 134 143 146 153 157 155 142 130 128 128 124 122 111 93 95 91 95 97 83 55 58 57 88 128 139 142 137 126 120 119 121 133 139 140 139 142 142 141 135 130 131 126 117 110 108 103 96 92 90 89 94 99 104 108 112 117 121 132 139 142 141 137 130 124 121 116 114 106 100 93 89 87 86 87 95 103 108 114 123 129 136 139 140 139 140 140 140 141 134 128 126 126 127 128 136 146 149 148 142 127 120 117 122 119 106 99 92 85 97 100 93 75 66 48 83 130 142 143 140 128 122 121 134 141 148 144 143 141 135 130 124 121 124 124 124 123 120 114 107 101 94 90 88 91 96 103 108 113 126 144 154 154 150 141 129 119 114 109 102 96 91 89 91 95 99 111 118 124 131 136 142 145 150 151 152 154 154 153 151 148 142 140 139 136 132 134 141 143 146 147 142 122 111 117 122 116 108 101 86 93 102 103 103 77 61 49 79 132 144 143 141 132 126 126 138 140 125 118 115 115 113 106 98 91 92 94 99 113 119 118 119 114 106 97 91 89 91 99 107 123 144 161 169 170 168 157 144 123 108 105 100 94 93 95 99 103 108 117 125 127 126 126 126 130 134 135 146 148 151 155 155 154 149 145 142 138 136 136 137 142 146 147 141 115 109 122 121 118 109 99 80 103 101 100 92 73 54 54 86 135 145 144 144 135 126 133 129 108 114 120 117 117 124 120 118 115 105 97 81 80 90 103 112 116 114 107 100 92 91 96 107 129 152 171 180 180 175 168 154 138 119 106 101 99 98 103 106 108 109 111 101 88 88 99 102 103 105 106 113 113 125 137 142 150 152 152 145 143 137 131 134 142 146 145 140 115 113 123 121 116 110 97 84 117 100 95 89 66 54 65 82 136 146 145 143 137 135 131 99 107 114 92 72 62 74 73 79 89 99 106 108 105 87 82 100 111 114 108 103 98 92 97 112 131 155 178 187 188 185 176 159 139 117 103 96 97 100 102 99 104 98 77 74 94 111 126 130 135 140 140 135 121 112 105 101 121 139 149 147 143 135 134 136 144 147 143 138 118 116 124 119 116 110 92 113 121 90 89 84 74 64 65 82 136 145 146 143 138 134 95 93 104 66 42 45 74 77 89 96 78 91 82 82 94 104 95 84 94 101 100 98 100 100 112 118 135 162 180 190 192 188 179 160 137 118 105 98 99 98 99 105 98 78 78 96 103 89 78 82 80 102 121 129 132 141 138 122 102 97 120 142 140 137 138 141 144 146 143 140 124 120 121 119 118 109 111 127 101 77 89 77 77 72 64 87 136 146 151 142 126 108 87 93 72 51 72 86 87 51 43 74 71 120 126 106 76 76 83 87 90 90 95 100 105 110 115 125 144 170 183 188 190 189 183 163 136 125 118 106 101 99 101 99 85 87 94 81 52 38 63 83 101 102 88 88 103 105 118 130 133 112 85 107 141 147 143 142 146 146 145 139 125 119 117 119 118 114 118 117 68 80 87 69 83 72 72 89 133 148 152 138 124 116 110 90 64 70 89 60 82 68 79 81 73 131 143 136 118 93 69 64 74 87 106 120 123 125 125 136 154 173 185 188 185 186 185 167 141 131 128 119 114 108 100 97 95 82 67 65 42 59 86 42 63 82 55 84 114 106 95 87 104 121 117 87 107 145 146 147 149 149 146 139 125 116 118 118 119 117 115 88 62 90 76 59 83 69 77 85 135 149 151 139 126 115 113 114 114 119 115 78 87 92 99 85 108 142 138 135 130 124 112 99 91 106 123 143 145 131 133 145 161 174 184 186 181 182 178 171 153 140 136 130 134 134 118 97 79 55 46 94 70 68 79 49 70 72 47 100 129 121 108 95 84 80 105 120 102 112 135 142 142 146 146 138 125 117 116 116 116 113 98 66 66 89 69 49 79 74 72 80 142 154 150 141 128 127 136 139 142 139 136 135 124 120 120 118 136 135 133 135 132 129 132 139 144 145 142 145 138 133 142 150 162 179 187 184 182 184 176 171 162 147 139 133 142 148 132 103 105 101 91 116 104 91 99 97 96 71 78 134 133 129 127 115 102 87 80 101 119 116 120 136 139 143 145 136 126 120 114 110 111 100 77 62 75 87 60 41 83 76 68 91 143 156 152 144 139 139 142 144 139 139 140 140 139 140 138 129 136 136 132 133 130 121 123 133 142 143 143 141 136 145 149 151 164 183 187 185 186 187 178 173 165 157 146 138 138 146 148 142 135 130 131 128 133 137 138 136 127 122 133 138 138 139 139 140 147 141 129 117 110 117 121 132 141 144 145 141 129 121 114 110 103 91 74 75 76 85 56 37 88 79 75 89 143 158 156 154 151 147 145 143 138 131 128 126 129 126 127 128 125 125 120 122 123 128 136 144 149 152 153 151 154 153 151 153 166 184 187 190 189 187 179 173 167 164 154 146 143 151 150 144 143 135 129 126 130 131 138 139 137 146 141 135 141 145 147 150 154 153 151 152 145 137 131 132 142 148 151 146 131 124 113 107 100 78 75 73 74 82 49 30 95 84 84 91 146 161 158 157 156 155 151 148 144 132 122 118 114 109 109 109 111 120 132 135 133 142 151 158 158 162 164 161 160 157 155 156 172 187 189 191 190 186 178 172 166 166 162 157 154 156 160 153 147 148 134 117 121 129 133 137 140 143 141 143 145 147 145 144 145 150 155 155 156 155 152 149 149 155 153 150 136 122 114 99 98 71 77 74 77 71 36 25 98 92 92 95 148 164 161 161 160 159 154 154 149 139 130 127 121 120 125 128 135 139 141 144 145 151 159 166 171 170 167 164 161 158 157 161 177 185 190 190 190 185 178 171 166 166 167 164 165 162 164 163 159 156 154 144 126 112 112 111 114 120 125 130 133 136 139 140 145 150 155 161 163 164 161 161 162 160 160 156 142 125 115 93 91 65 79 76 75 60 32 20 99 98 90 97 153 166 165 164 164 161 160 158 155 148 147 144 142 140 142 142 145 151 153 155 159 160 165 174 175 171 166 164 164 159 159 167 180 187 192 190 190 183 177 169 167 166 169 170 170 168 169 173 171 166 163 160 157 145 131 119 113 111 110 117 122 125 133 141 147 156 159 164 170 171 167 167 170 168 163 155 152 133 115 99 89 63 76 81 82 56 30 13 94 96 83 98 156 168 168 168 167 164 163 161 155 149 150 151 154 153 154 156 157 158 155 157 165 171 172 173 173 167 164 163 160 160 165 172 182 189 188 188 187 184 177 171 169 168 169 172 174 179 172 175 177 175 174 167 160 161 158 154 148 145 142 142 142 147 150 153 158 163 163 163 162 164 163 172 173 170 167 164 157 144 121 93 94 69 69 87 87 48 21 13 95 93 92 109 160 169 169 169 171 168 165 165 161 159 163 164 166 165 159 160 159 155 156 160 168 174 173 171 170 165 162 164 160 163 167 179 182 185 188 186 183 182 177 172 169 169 170 171 174 176 177 174 181 181 182 180 174 169 165 163 161 159 160 156 152 155 158 160 165 171 171 165 164 166 172 172 174 174 172 167 163 153 133 94 90 89 75 91 91 42 16 12 94 93 99 121 163 168 170 172 173 171 169 168 170 172 171 169 166 163 165 163 163 164 169 171 173 173 174 171 166 163 163 161 162 169 176 182 185 186 187 185 184 183 178 171 169 169 170 173 176 174 177 175 182 184 181 183 181 178 175 170 170 168 169 167 168 168 166 164 163 164 167 171 172 173 176 175 175 174 171 168 164 156 145 102 86 99 85 90 87 32 16 13 93 97 100 123 165 169 173 171 174 175 176 177 173 174 175 175 174 171 174 173 171 174 175 175 175 175 173 168 164 163 162 161 167 175 181 183 187 187 188 188 187 188 183 175 171 170 172 172 178 176 176 179 180 184 183 181 182 183 184 178 176 176 176 176 177 180 180 179 180 180 176 177 179 179 180 180 181 178 174 170 166 160 153 124 100 102 89 92 79 27 15 14 84 98 102 127 167 170 170 169 174 176 178 177 178 178 177 179 180 180 181 181 178 175 174 175 174 174 172 167 162 163 163 164 171 174 178 184 185 184 186 188 189 190 185 180 173 169 170 173 173 173 174 175 180 182 183 180 182 186 184 182 183 183 183 184 185 184 185 183 185 186 187 188 187 186 184 181 181 178 173 168 167 160 155 141 124 108 91 93 77 25 15 13 86 97 100 130 168 168 169 169 174 176 177 177 179 179 179 180 180 178 181 178 177 174 173 173 172 170 172 167 164 165 162 165 169 169 177 180 182 179 182 186 185 187 187 180 175 168 169 173 171 171 174 174 179 181 183 181 181 186 185 186 184 185 187 187 186 186 190 189 189 189 190 190 187 186 185 182 178 177 171 166 165 158 152 147 140 121 92 89 62 23 18 15 93 94 101 134 164 165 168 168 171 175 175 178 179 180 182 183 181 182 179 180 179 177 177 177 176 173 170 166 165 164 166 165 164 170 173 170 172 177 180 182 180 178 178 171 170 167 171 174 174 173 175 180 183 182 184 186 185 184 184 184 187 186 183 183 182 186 191 191 191 192 192 191 188 187 187 182 173 173 170 165 165 159 152 151 147 123 98 87 50 20 19 16 82 97 103 140 164 162 165 166 170 173 177 179 181 181 183 183 180 180 181 179 180 178 178 178 175 172 168 165 167 169 165 156 156 152 154 152 151 157 160 161 160 157 154 154 159 166 173 175 178 176 174 180 181 181 183 186 185 182 183 183 185 187 185 187 188 190 191 191 191 192 189 190 190 188 186 180 172 169 168 165 162 159 153 150 149 127 103 78 45 21 15 22 94 109 99 135 164 162 164 168 173 174 178 180 182 183 183 182 180 180 181 177 179 179 177 175 174 174 167 163 172 169 159 142 129 127 128 130 133 138 144 145 137 132 130 138 150 160 171 177 177 179 178 178 181 177 180 182 182 181 180 183 182 184 189 188 188 192 190 190 193 191 189 189 189 188 186 180 172 167 165 164 157 154 153 148 147 129 101 73 50 21 21 20 97 121 97 127 161 157 164 173 174 175 178 179 180 180 181 182 182 181 179 177 178 180 177 176 171 168 165 166 169 158 140 121 111 109 105 106 116 121 127 129 127 122 119 125 130 137 153 166 174 178 177 178 180 177 180 178 176 177 179 180 182 183 184 184 188 190 190 190 190 190 191 191 189 187 185 180 172 166 161 158 155 153 151 147 145 130 99 67 52 31 22 23 76 123 101 115 155 159 166 173 171 173 177 177 176 178 179 181 182 180 177 177 179 173 166 172 167 161 160 166 160 137 115 107 104 106 99 96 105 113 108 107 113 115 110 111 113 121 137 151 163 174 175 177 177 175 172 173 175 175 177 177 179 179 180 185 188 188 188 189 190 188 186 188 190 188 185 179 174 166 159 154 151 152 149 147 147 132 96 66 55 36 30 30 59 120 108 107 149 156 166 172 171 170 172 173 176 176 175 176 176 176 176 176 177 170 167 164 163 158 157 157 141 112 81 50 38 48 79 91 91 91 90 96 100 74 46 45 53 76 115 136 148 160 168 171 172 173 168 166 166 167 172 176 179 180 181 181 185 186 186 186 186 186 187 186 187 187 184 176 169 165 160 151 150 148 147 142 145 130 94 71 60 30 40 37 42 121 119 111 144 156 165 169 170 168 170 171 172 172 171 173 173 174 172 171 172 165 159 158 157 159 158 143 118 84 35 14 9 6 14 64 88 78 80 91 76 24 13 5 4 8 36 91 123 143 155 160 164 167 170 163 160 161 166 170 174 177 179 178 180 182 182 183 183 184 186 185 184 184 180 177 171 164 157 153 152 149 146 142 142 125 92 77 69 34 45 53 37 123 125 107 135 152 160 164 167 167 164 166 169 168 168 169 171 169 166 163 161 158 153 154 157 160 155 132 104 74 39 31 29 12 9 57 89 77 71 87 82 60 43 16 7 9 14 44 98 123 138 148 153 166 172 167 160 155 156 163 167 172 174 175 177 177 177 179 179 180 181 183 180 178 176 175 172 166 160 154 150 147 145 142 138 119 89 69 64 38 48 66 90 131 125 107 131 150 158 162 166 161 160 164 166 164 164 164 164 161 162 159 157 154 152 157 159 161 158 136 99 80 62 59 70 60 70 91 87 81 65 74 84 83 80 69 47 45 47 53 82 103 122 137 151 168 174 170 159 152 154 160 162 166 168 166 170 170 169 171 172 171 172 174 173 173 171 169 168 164 157 153 148 144 143 140 135 107 79 73 56 38 45 56 86 132 131 105 122 149 155 159 159 157 159 161 162 161 160 156 154 155 159 153 149 149 152 158 163 162 157 146 116 87 74 79 99 113 112 90 78 84 74 74 75 74 83 100 112 102 78 67 76 91 111 136 160 169 172 168 159 151 146 153 160 167 168 164 161 163 162 164 166 167 168 167 164 166 168 164 162 161 158 154 147 141 137 139 136 105 79 68 57 45 54 71 73 127 140 113 121 145 148 157 160 159 159 157 157 158 156 151 150 145 141 138 142 143 151 163 162 160 158 150 135 109 100 115 119 110 107 97 95 95 85 82 89 93 95 101 109 110 101 88 85 102 130 152 168 170 169 165 160 150 139 139 146 148 158 158 157 157 157 159 158 159 159 161 159 159 160 159 158 157 157 153 145 138 137 138 138 113 86 67 58 55 54 77 63 111 151 139 135 143 144 149 154 156 154 154 151 151 151 144 144 140 137 133 137 145 157 162 162 161 160 155 149 141 139 132 124 122 124 128 127 120 104 103 114 123 131 129 129 130 131 139 144 155 163 171 172 172 170 167 163 158 143 127 129 133 144 151 154 155 156 156 155 155 155 157 157 153 156 155 155 154 151 150 145 135 138 140 137 122 96 71 59 62 47 75 53 83 148 155 141 143 142 144 145 145 144 145 146 149 145 139 135 130 129 137 146 159 165 164 164 166 163 159 159 157 150 140 139 142 137 140 140 135 127 127 130 132 141 145 146 147 148 154 159 168 173 175 176 175 176 174 170 165 158 136 114 121 133 143 153 158 159 157 151 148 148 151 151 152 150 149 151 151 148 149 145 138 139 141 134 122 96 74 59 69 47 72 52 79 147 159 147 143 140 141 139 140 136 142 147 143 136 132 124 123 136 153 164 167 166 167 167 164 159 156 162 159 146 143 143 143 142 142 140 139 138 141 136 137 143 148 150 153 154 157 164 164 170 173 174 171 175 172 171 168 163 156 138 109 105 126 137 146 154 150 151 149 142 142 140 142 144 145 145 147 147 145 145 143 142 141 133 125 101 73 75 67 53 57 47 86 157 154 149 148 140 133 135 136 139 142 140 135 131 121 118 141 157 164 164 163 162 160 164 162 159 156 156 153 143 143 146 144 144 147 144 142 147 146 145 146 146 150 153 157 154 158 167 167 165 172 172 171 173 177 174 169 166 161 157 142 110 93 101 114 127 141 145 148 146 143 140 140 139 137 138 142 144 143 146 144 142 138 130 127 112 74 93 79 53 74 42 89 164 152 144 149 142 130 134 134 139 140 141 130 125 119 141 160 159 161 157 156 152 155 158 160 161 158 150 147 144 153 153 145 148 149 151 150 153 149 150 148 151 154 153 156 158 158 160 161 160 163 166 170 172 172 169 168 161 156 158 157 148 126 97 98 116 133 150 152 143 135 137 136 134 135 133 136 141 142 148 144 144 138 133 129 119 83 92 106 75 98 60 113 166 152 142 148 144 131 130 130 136 142 134 122 114 137 159 155 159 153 152 148 149 154 156 159 155 150 151 153 146 151 152 151 154 155 159 157 154 156 155 150 155 155 154 154 154 154 155 161 165 165 163 168 171 163 166 163 155 148 148 153 155 157 139 103 98 123 140 142 137 133 135 136 129 130 129 134 138 143 147 146 144 136 136 134 128 106 90 108 108 107 80 133 166 153 144 148 147 130 123 127 131 136 128 117 125 155 156 155 152 150 144 141 146 149 154 160 156 152 150 154 151 151 153 154 156 160 159 156 161 161 157 156 159 159 163 162 155 157 163 164 167 168 166 163 163 160 164 153 144 146 138 140 142 152 149 122 84 88 107 122 131 136 129 126 129 128 127 132 137 145 149 149 144 140 141 139 138 121 104 104 115 113 88 137 161 154 151 149 148 134 124 122 128 132 127 119 144 155 153 150 148 144 136 142 152 150 151 152 155 154 153 154 156 157 155 158 162 165 162 161 166 167 168 166 164 169 164 166 163 165 165 169 174 172 167 159 154 157 160 155 145 140 137 133 129 141 146 132 109 83 95 116 127 130 126 122 125 125 124 133 135 144 148 149 146 144 140 132 143 133 126 127 130 132 99 128 156 155 153 152 149 135 124 122 129 130 125 132 149 151 151 145 141 132 128 134 145 147 146 151 157 153 147 138 131 131 125 125 133 138 144 150 158 162 156 143 138 136 129 131 137 144 144 149 155 159 160 163 161 159 159 151 144 134 128 125 126 137 139 140 141 113 94 111 121 124 129 124 123 124 124 133 140 145 147 148 146 145 138 138 145 145 146 147 150 155 86 106 152 158 157 152 144 137 130 122 123 127 125 133 149 143 142 135 125 118 119 121 132 143 149 141 128 116 111 112 106 101 99 97 97 96 99 101 107 108 102 97 100 102 104 109 113 121 125 124 127 126 125 127 136 146 154 148 135 116 104 105 109 119 133 141 143 136 102 109 120 129 133 126 124 126 131 134 143 144 143 148 149 141 129 139 149 153 156 156 161 162 90 90 134 152 153 154 147 137 134 126 120 126 124 136 147 137 127 120 112 101 105 107 122 124 117 106 99 103 112 117 119 120 122 125 119 112 108 107 110 105 105 109 110 113 117 119 120 121 120 122 121 123 120 108 107 106 109 122 130 115 88 78 86 98 117 131 138 145 118 115 123 130 132 127 124 129 135 139 144 144 142 147 148 142 133 142 150 154 157 159 161 161 119 103 102 130 139 148 150 140 132 131 124 123 125 134 145 134 121 111 103 93 94 98 106 96 84 97 106 104 98 96 98 100 108 110 107 107 104 106 108 103 101 107 108 108 112 112 109 106 103 99 99 102 104 109 109 97 86 98 109 104 89 72 75 81 104 121 134 144 128 118 129 129 131 128 125 131 136 140 144 141 145 151 145 141 137 147 151 151 155 157 160 159 113 117 103 105 113 134 152 142 136 130 129 126 126 132 141 129 122 113 101 90 86 74 61 62 85 96 85 75 63 57 62 67 75 77 73 67 65 65 58 56 63 71 75 73 78 77 75 74 71 67 69 76 90 99 101 96 93 84 67 54 57 79 92 91 102 116 128 142 132 124 130 131 128 127 130 136 138 143 140 141 148 152 145 142 138 144 148 145 144 146 148 148 117 114 112 108 92 117 151 143 140 132 131 126 127 134 130 126 122 116 113 115 107 85 53 45 75 90 76 68 70 80 88 94 99 104 106 108 102 103 100 101 106 111 117 122 127 126 125 125 129 127 115 98 90 88 85 78 71 70 75 87 112 128 129 120 112 121 132 140 135 135 136 131 130 130 131 138 142 144 140 143 148 149 145 140 142 146 141 131 128 128 129 130 128 123 122 124 121 132 152 148 141 137 134 127 129 133 133 132 126 122 125 131 135 136 128 117 103 98 107 118 123 131 130 138 143 142 149 147 151 148 149 156 153 158 155 153 154 152 148 147 154 153 148 150 144 132 119 121 125 130 147 157 152 150 144 133 127 133 140 141 137 142 138 131 129 131 135 142 143 141 140 143 148 145 143 133 134 143 134 98 95 96 93 90 135 134 137 138 137 140 153 149 143 143 134 131 131 133 134 138 132 125 130 135 139 147 152 151 143 133 131 130 130 130 124 128 134 133 139 135 142 144 146 152 154 153 149 145 142 144 141 140 142 142 141 145 143 144 151 155 161 161 162 162 156 152 146 135 136 142 141 138 138 139 130 129 130 135 143 145 142 142 142 143 147 146 143 131 132 147 105 20 26 27 19 18 134 135 135 135 134 137 150 145 144 143 136 133 132 135 136 137 137 135 136 139 146 152 154 154 153 145 144 141 140 140 139 137 138 134 141 145 142 143 144 145 144 147 143 142 146 153 155 151 151 153 160 159 154 156 157 157 160 160 161 161 157 151 148 141 143 145 139 134 138 135 128 129 136 141 144 143 144 143 144 146 149 145 140 132 130 145 77 8 13 8 4 13 134 134 135 137 137 140 150 148 142 138 136 132 133 136 137 137 142 146 142 144 151 154 154 155 156 153 151 146 141 141 138 138 136 131 133 132 134 136 137 136 135 136 138 138 143 146 148 145 147 151 153 154 154 154 156 159 157 158 162 162 161 155 155 149 148 142 134 131 136 138 133 132 140 142 145 145 145 143 141 145 148 143 142 132 133 137 62 17 22 12 16 23 132 132 132 134 135 137 148 149 144 141 140 136 131 132 136 135 141 146 148 151 155 157 158 157 153 157 154 151 148 143 138 135 133 130 131 128 128 130 127 132 140 138 136 138 139 143 146 148 146 150 153 154 157 158 158 159 160 158 161 162 160 159 159 155 146 136 134 136 135 134 134 137 145 146 144 145 146 141 143 146 146 143 145 134 135 124 57 34 21 16 24 19 131 132 133 133 134 135 145 148 145 145 141 137 137 127 129 135 139 147 154 153 159 163 159 158 155 154 154 153 152 150 144 139 141 134 136 137 136 136 136 139 142 139 139 142 145 144 145 146 144 146 154 153 153 154 154 157 159 159 162 163 163 164 160 153 143 138 136 137 135 129 129 139 144 146 145 146 144 142 146 143 144 146 147 133 135 113 49 34 18 26 23 18 131 132 132 132 132 133 146 151 148 148 145 142 140 131 126 135 137 141 151 156 160 160 160 160 156 157 156 154 152 148 149 145 141 133 135 137 133 133 135 135 134 135 138 141 141 140 142 145 142 141 143 148 147 148 151 157 159 158 161 163 161 161 157 152 142 138 139 138 132 131 139 146 148 148 146 145 144 144 143 140 144 147 136 123 132 106 47 23 24 21 13 17 131 131 131 131 132 132 142 150 149 147 146 143 138 134 128 131 138 140 146 154 159 159 161 160 160 159 157 152 152 151 152 147 142 140 137 135 138 132 130 132 136 139 138 134 137 141 143 144 147 146 141 142 151 154 157 158 162 162 160 162 163 163 160 155 145 138 143 138 143 149 154 152 147 146 143 144 142 140 141 141 144 141 129 124 133 111 45 24 15 18 16 15 131 131 131 131 131 133 136 148 148 147 145 143 138 134 133 133 136 139 148 154 159 158 160 161 161 160 158 153 153 148 148 148 146 146 143 138 136 136 131 134 138 134 137 137 135 139 143 144 144 144 151 150 154 157 159 162 161 163 162 162 165 162 160 155 154 151 143 139 146 150 148 148 145 142 140 144 141 139 142 143 140 138 132 128 132 122 47 26 15 22 14 20 131 131 131 131 130 130 132 143 147 145 142 144 140 137 138 136 135 140 145 154 157 157 156 157 157 156 153 153 152 149 149 146 147 145 141 139 134 133 131 126 127 130 133 133 138 138 139 144 144 147 151 156 157 156 160 163 164 166 165 162 162 156 153 153 152 154 149 148 148 150 148 144 143 144 142 142 141 144 142 143 139 136 131 125 132 130 51 20 19 17 22 42 132 131 130 129 130 129 128 134 142 147 145 145 144 141 140 139 137 144 147 152 156 156 157 158 157 156 153 153 151 149 149 145 144 144 142 139 139 136 132 129 126 132 132 132 138 143 145 150 154 154 155 157 159 160 163 165 165 166 166 168 161 154 153 155 155 155 151 149 151 151 149 147 144 145 146 140 142 142 141 139 136 134 129 124 136 136 51 20 16 23 33 29 136 132 131 128 130 127 126 130 140 148 147 145 144 143 142 140 137 140 145 148 152 155 156 157 157 159 156 153 150 146 146 148 147 144 140 140 139 133 128 133 130 132 131 132 139 145 151 162 162 156 157 158 159 162 167 166 166 167 165 163 164 161 158 159 155 155 156 151 146 145 148 148 145 144 141 141 144 140 138 137 133 129 122 127 142 140 52 20 35 44 27 19 142 138 136 133 130 128 125 129 135 142 149 146 144 146 145 142 137 137 142 146 150 150 151 157 153 153 155 154 152 153 151 147 147 144 144 144 141 138 134 130 132 135 137 146 150 150 153 147 153 152 159 163 164 164 165 165 165 166 164 159 163 163 160 159 157 157 154 151 147 144 146 147 144 145 144 143 141 138 133 127 129 123 119 132 147 144 48 21 42 35 22 12 148 146 143 140 135 131 125 125 130 139 144 146 143 146 146 144 141 139 142 145 147 149 151 153 157 155 155 156 155 154 152 151 150 155 161 163 166 165 160 160 163 165 170 169 168 165 158 149 154 161 165 166 166 170 170 166 166 165 161 161 164 163 158 157 155 152 149 149 149 148 148 147 144 146 144 140 140 138 132 125 128 124 121 136 150 145 46 20 34 26 18 8 152 154 152 147 141 135 128 123 126 136 139 142 146 146 146 146 138 138 140 145 147 150 151 149 157 158 158 160 156 154 156 157 162 165 164 166 169 171 171 173 173 173 174 173 175 174 173 172 172 175 175 172 171 170 172 171 168 163 161 162 165 162 161 156 153 151 150 148 149 149 147 147 146 142 140 136 134 135 128 123 125 121 119 136 151 147 52 16 36 29 14 9 154 159 159 154 147 139 131 124 122 128 134 139 145 147 147 147 141 140 142 146 150 152 151 153 156 157 160 162 160 164 167 168 169 168 167 168 171 175 176 173 173 175 177 177 178 180 183 181 180 182 182 179 176 174 171 166 163 164 164 164 162 153 159 158 154 152 151 147 144 146 147 142 143 138 138 138 134 131 127 123 118 113 118 145 154 145 52 23 42 35 13 9 155 159 161 162 153 143 136 125 116 122 129 135 139 145 147 147 143 141 144 145 148 153 153 152 158 159 161 166 168 172 170 170 168 166 170 171 172 171 173 175 176 177 175 177 180 181 183 178 177 176 179 179 177 173 171 165 165 162 158 156 159 158 157 155 153 150 148 150 143 144 142 136 136 135 133 131 134 127 123 123 115 115 131 148 153 145 51 32 49 40 20 7 152 156 161 163 158 148 137 127 116 116 117 125 134 140 141 145 143 143 141 141 147 152 154 154 160 161 159 162 168 171 168 165 168 172 171 169 174 171 169 175 176 175 175 174 177 180 179 177 175 173 172 171 177 173 169 165 160 157 158 155 156 155 156 152 148 146 147 149 146 143 140 135 133 132 128 128 128 122 123 120 120 122 137 149 154 144 57 20 33 42 17 5 143 149 157 161 158 150 140 129 118 111 109 115 128 137 139 144 142 143 144 142 147 152 151 155 161 159 158 162 166 163 160 164 166 164 170 168 169 169 166 165 168 169 168 167 171 176 175 172 176 177 173 169 173 172 165 164 162 155 157 155 152 154 153 153 150 149 147 145 144 140 137 134 130 130 122 122 120 118 119 118 119 126 140 149 154 146 63 26 28 43 28 3 133 142 152 157 158 151 142 129 117 109 105 107 117 127 136 139 139 144 146 143 145 148 149 149 150 153 158 165 164 159 161 164 162 164 168 167 159 159 157 155 160 161 158 160 162 165 168 166 163 165 168 164 161 160 155 159 154 154 154 153 148 148 152 147 148 147 142 139 137 133 130 129 123 119 115 118 113 114 112 112 115 131 144 151 154 147 61 40 49 48 29 15 124 132 143 152 155 150 143 130 117 107 99 96 109 121 131 137 135 138 143 141 138 139 146 146 147 152 155 157 153 153 160 158 155 154 160 165 158 153 149 150 153 151 152 156 157 153 154 157 157 155 156 157 155 152 148 149 150 152 152 153 142 142 148 141 146 145 142 139 135 127 122 120 115 112 115 109 109 110 108 108 115 134 146 149 152 147 71 60 62 51 18 10 119 123 134 145 148 147 141 130 117 107 97 88 101 110 117 129 130 131 133 135 136 136 138 140 144 149 150 147 145 149 145 147 148 145 149 149 151 146 144 143 145 144 146 146 148 149 144 147 148 146 152 151 152 150 145 146 151 150 147 143 142 145 143 144 144 139 138 136 130 122 116 109 111 109 110 103 108 107 105 114 126 138 147 151 155 145 81 69 65 46 18 10 121 117 125 136 141 142 139 129 116 107 99 86 83 101 108 120 123 126 129 129 127 129 133 135 136 138 141 143 143 144 136 137 143 140 136 137 139 140 140 140 139 139 143 139 139 138 137 140 139 137 137 135 144 140 135 138 144 146 136 137 139 140 132 137 137 134 133 127 125 118 108 104 106 107 104 104 104 105 110 129 136 140 148 150 156 144 79 68 56 37 19 15 123 116 117 127 135 137 134 126 114 105 98 88 80 102 118 108 115 118 120 123 123 125 128 129 129 130 136 139 137 132 132 128 128 131 131 132 135 133 136 139 138 138 131 132 131 131 131 124 127 131 129 126 128 126 129 130 139 135 127 134 129 129 126 126 127 128 127 118 115 111 102 101 105 104 107 105 103 106 123 137 139 144 150 151 156 143 78 59 34 29 10 9 126 118 112 116 126 130 128 123 113 104 97 86 74 100 140 109 101 108 110 116 117 120 122 123 123 123 130 131 125 122 125 123 124 124 123 127 132 131 131 134 128 128 119 121 122 122 118 115 116 118 121 127 121 123 129 128 128 129 127 124 125 123 124 122 122 122 117 111 103 97 101 101 101 106 107 100 106 119 133 141 142 147 147 154 158 143 56 28 31 16 5 6 129 118 109 108 116 123 123 119 111 103 97 86 71 84 144 133 104 98 106 110 111 112 114 117 122 116 121 123 114 115 114 118 117 120 115 116 118 120 123 119 119 114 111 111 113 113 110 114 116 116 120 119 115 118 124 124 125 119 117 113 118 118 114 117 114 110 108 99 92 91 96 95 99 103 99 106 119 126 138 142 144 148 149 156 159 142 41 26 25 5 6 6 129 117 107 101 107 113 115 114 111 103 96 86 72 77 140 146 127 107 97 97 98 103 104 112 112 110 111 109 104 111 110 109 114 110 105 109 101 105 109 105 107 107 104 103 105 100 104 103 106 111 108 108 116 112 110 117 110 102 100 98 108 109 107 107 100 96 96 89 87 93 91 95 100 101 103 115 126 131 139 144 146 146 152 155 154 141 39 20 16 5 6 6 130 116 105 95 96 104 106 107 105 103 95 84 74 81 134 144 139 131 106 89 91 97 98 100 104 101 104 97 94 98 101 96 99 104 100 100 98 98 98 105 95 96 97 97 99 96 99 90 94 86 95 108 104 108 108 106 99 91 94 100 101 99 99 94 86 84 79 82 89 92 93 97 103 105 113 118 128 138 143 147 149 150 153 156 156 137 26 16 12 6 6 6 123 109 97 87 84 91 96 102 103 101 95 87 78 74 124 148 139 135 122 106 92 92 95 91 97 95 90 88 89 88 88 79 85 90 93 84 96 99 91 89 89 87 85 87 88 77 82 73 74 73 86 97 91 92 97 88 90 94 89 95 95 95 89 85 74 71 72 85 88 89 96 99 107 110 118 123 131 139 146 150 150 155 156 155 158 133 24 11 8 6 6 6 105 91 82 73 67 74 83 92 99 99 95 88 80 67 115 150 142 136 132 124 112 96 87 88 90 89 85 91 81 81 72 67 80 67 78 77 80 75 71 76 72 74 70 72 73 70 65 63 76 77 80 76 87 86 78 85 86 88 84 83 84 82 74 67 69 71 75 82 89 97 100 106 111 120 127 130 135 143 148 149 152 153 156 154 158 133 17 2 5 6 6 6 86 76 65 51 45 53 67 80 93 97 94 88 76 63 106 151 143 138 135 130 123 112 99 88 86 85 79 77 75 67 62 65 70 61 65 66 63 58 62 63 58 60 57 55 53 55 56 58 63 72 76 66 72 74 74 75 72 76 77 74 73 67 63 66 73 79 84 90 98 103 101 109 113 119 126 132 142 147 148 150 155 154 155 153 158 134 18 1 6 6 6 7 64 53 37 25 22 34 52 73 89 96 94 88 76 58 97 150 144 141 133 131 127 119 106 96 93 84 77 75 70 65 60 56 57 57 51 55 48 43 45 46 47 52 49 49 50 50 49 49 53 58 58 59 62 63 67 71 66 61 65 64 64 71 74 75 83 90 96 102 102 107 111 112 117 122 126 133 145 150 150 153 156 153 155 153 158 127 11 3 7 5 7 7 32 22 13 10 10 23 46 70 86 96 96 88 76 57 83 147 144 142 135 133 129 126 113 100 97 94 83 71 65 63 59 59 55 52 47 45 41 43 39 41 46 48 50 48 50 47 46 50 55 55 54 59 59 57 62 56 59 53 59 62 67 73 81 85 93 98 101 106 109 118 115 120 122 126 133 140 145 147 150 152 155 154 154 152 160 127 9 4 6 4 7 7 24 13 12 12 16 27 49 70 86 96 95 87 77 58 74 143 145 140 139 136 133 127 121 108 96 90 88 81 73 67 65 64 58 52 52 44 48 48 44 49 50 46 50 49 50 48 50 50 48 51 52 50 50 47 49 50 52 62 66 72 77 84 92 91 98 107 109 112 115 120 120 125 130 131 140 146 145 149 153 155 154 153 152 154 157 128 12 3 6 5 7 7 59 45 41 42 40 47 59 76 90 97 96 89 77 60 68 141 146 141 138 135 133 127 121 111 104 94 89 87 85 80 74 67 59 51 52 50 50 50 48 47 47 46 48 50 50 47 48 51 45 42 44 44 46 49 50 53 62 73 78 84 90 97 102 102 105 111 112 118 121 122 126 127 130 136 144 148 150 152 154 154 155 155 152 153 158 128 12 4 5 5 5 6
