P2
# Generated by OpenCV 4.2.0
92 111
255
26 35 32 29 41 29 47 88 49 62 68 56 37 64 79 97 112 112 124 126 127 132 139 143 143 151 148 150 158 162 156 153 156 119 151 169 169 160 156 116 103 78 48 41 45 64 91 120 126 82 57 74 91 113 100 100 76 76 74 56 46 47 51 54 71 39 41 24 53 74 58 45 43 51 53 59 72 74 85 75 57 47 35 30 31 32 30 23 17 10 14 17 41 47 37 34 40 49 65 62 50 68 64 44 48 72 99 109 112 119 126 127 129 135 140 145 147 147 148 150 152 154 155 155 143 134 160 169 160 161 138 103 103 105 66 58 39 45 59 63 79 99 106 90 72 78 98 96 85 78 85 80 56 52 60 58 73 56 41 45 36 46 54 53 51 46 43 44 46 51 72 81 75 63 54 35 30 26 24 21 20 19 13 17 49 46 36 35 38 54 64 54 61 67 51 52 72 92 107 113 113 119 126 127 130 135 140 144 147 149 149 151 153 154 155 157 147 143 164 170 159 156 128 110 120 121 80 72 58 50 41 44 57 72 79 84 87 96 110 125 135 134 120 94 68 57 59 64 70 60 46 51 38 28 55 56 43 37 36 31 29 47 54 55 57 53 40 35 33 26 22 20 21 23 21 36 50 45 38 39 37 51 54 68 82 85 77 74 94 105 112 112 114 121 128 129 132 137 142 146 148 152 152 153 156 157 159 160 154 153 170 172 158 153 127 129 144 143 109 99 84 58 36 33 36 43 58 80 113 136 149 163 169 163 156 136 103 74 62 62 60 48 38 50 52 39 36 45 50 49 43 35 33 29 31 34 37 35 35 40 34 23 16 19 28 29 27 43 42 40 43 44 40 46 56 85 97 97 103 95 98 105 108 109 115 125 130 131 134 138 143 147 150 154 155 157 159 161 162 163 162 164 172 171 162 156 158 157 152 146 133 144 137 105 70 50 46 66 100 141 158 165 164 169 164 163 167 152 130 119 99 69 65 69 40 24 55 56 33 36 45 44 35 28 31 43 18 21 29 19 17 24 27 31 33 31 28 27 41 40 34 41 52 41 40 57 71 82 94 90 96 101 99 103 106 112 120 124 128 131 134 140 144 148 151 157 158 159 162 162 165 166 167 168 170 169 168 166 171 175 168 164 159 166 176 172 156 141 137 151 172 175 175 172 168 167 163 157 162 155 139 140 134 112 92 98 105 70 52 63 63 51 40 37 35 31 27 32 32 45 39 19 12 18 22 26 31 36 39 43 58 52 32 46 60 31 32 70 70 77 93 94 100 105 105 107 112 118 122 122 125 131 134 140 144 149 151 159 160 161 163 165 167 168 171 170 165 168 173 177 167 180 178 180 175 166 170 173 175 174 180 184 179 173 172 175 172 164 168 166 163 158 151 147 138 125 104 119 145 128 89 63 56 53 45 39 36 35 35 45 55 45 32 27 19 19 18 20 26 37 50 55 57 63 23 56 59 36 48 63 69 77 90 97 103 104 107 110 115 119 124 126 129 135 137 140 145 149 151 164 162 161 162 165 170 170 170 175 175 176 177 177 172 178 179 181 178 173 174 176 177 179 182 184 180 180 178 177 174 168 169 171 164 153 155 153 141 123 104 129 142 140 136 125 89 61 43 40 41 45 53 50 44 30 31 30 27 19 15 23 26 37 49 65 54 57 27 45 57 40 64 61 68 77 89 98 103 107 108 110 114 118 125 129 132 135 138 143 148 152 155 162 163 162 163 167 170 170 171 173 176 177 176 177 175 178 180 181 179 176 177 179 179 180 180 181 181 182 180 178 174 171 169 172 169 160 159 152 131 109 109 136 147 143 142 141 124 104 73 44 35 43 49 49 53 49 54 48 33 24 19 24 18 24 46 80 68 60 39 34 53 39 64 56 65 75 87 99 107 111 110 112 116 121 127 131 133 136 141 148 155 160 163 160 162 166 169 170 169 170 171 170 169 172 175 178 176 179 181 181 180 178 178 179 179 180 180 181 181 183 181 178 174 171 168 169 166 164 162 148 122 101 126 147 153 147 144 139 130 121 89 52 39 62 88 80 71 71 86 86 50 22 22 30 15 14 38 79 76 59 37 39 45 42 52 52 64 74 88 100 109 114 112 114 118 124 129 133 135 137 145 154 162 167 168 160 165 170 173 173 170 170 172 168 168 170 175 179 178 180 183 183 182 179 178 179 180 180 180 181 181 182 180 177 174 171 168 166 162 159 155 145 127 113 142 157 158 151 147 138 132 116 80 51 53 89 117 108 95 95 89 91 85 35 24 31 21 18 28 61 72 49 20 43 39 49 51 61 65 75 88 100 109 112 114 116 121 126 132 135 137 139 147 158 165 167 166 164 166 171 173 174 172 173 173 172 172 175 177 180 180 182 185 186 184 181 179 179 179 180 179 181 181 183 180 178 174 171 169 170 167 156 146 138 132 129 152 161 159 152 148 137 126 110 68 48 79 111 113 114 111 114 91 79 100 62 32 23 18 24 26 51 68 48 19 42 43 51 55 67 70 79 90 99 106 109 115 117 122 128 133 137 139 141 150 160 164 163 161 168 169 169 171 173 176 176 175 177 180 181 180 180 181 184 186 187 185 182 180 179 179 180 180 181 181 183 180 178 174 171 170 168 164 154 145 140 144 146 155 160 156 152 149 137 109 83 60 72 108 123 114 114 101 104 101 84 87 74 40 23 19 28 26 45 63 49 33 40 48 46 56 63 72 80 90 100 106 109 117 120 123 128 134 138 140 142 150 158 161 160 158 171 169 168 169 173 177 177 175 180 184 185 182 180 182 184 187 188 187 182 180 179 179 180 180 180 180 182 179 177 173 171 168 160 155 151 149 150 155 161 156 159 155 152 150 139 112 71 68 106 117 110 114 113 100 88 91 81 78 70 43 34 30 32 23 36 53 48 35 39 44 52 60 64 71 79 90 103 114 121 124 124 123 126 131 138 141 141 144 149 155 160 162 164 166 170 173 173 171 173 177 178 179 181 182 183 184 186 187 187 184 180 180 181 180 179 178 177 177 177 175 172 168 165 163 163 162 161 159 158 157 156 158 159 160 158 153 149 134 119 114 120 119 112 111 112 104 89 72 66 69 68 45 42 42 31 27 31 38 45 34 35 40 50 57 64 74 81 92 104 115 121 127 127 126 129 134 140 142 143 145 149 154 159 160 162 165 170 172 171 170 171 177 176 179 180 181 181 182 183 186 186 183 180 179 179 178 177 176 175 175 173 172 170 166 163 162 162 163 162 160 158 157 157 158 160 160 159 153 149 137 123 120 125 122 116 115 100 88 73 61 56 54 48 36 34 38 29 25 27 33 36 31 32 36 44 55 63 77 83 93 104 115 121 131 131 129 131 134 139 143 144 146 149 153 157 159 161 163 168 171 170 167 170 174 174 176 178 180 179 181 183 185 184 182 179 177 176 175 175 174 174 172 169 169 167 163 163 162 162 163 162 161 159 158 157 158 159 159 157 153 149 136 125 123 127 121 116 118 100 81 63 53 44 37 28 33 27 33 27 24 23 26 25 34 30 34 44 55 66 82 87 96 106 115 121 132 132 130 129 133 137 140 145 147 149 152 155 156 158 163 166 169 170 167 167 171 173 173 175 176 177 179 181 184 183 180 176 174 174 173 171 171 170 170 168 167 167 165 164 164 164 164 163 161 159 158 158 157 158 159 157 152 148 133 123 123 124 116 114 120 113 91 69 53 39 27 25 43 26 28 22 23 22 20 18 36 31 35 45 59 70 84 90 98 107 116 119 130 130 128 127 129 133 137 146 147 149 151 153 154 158 160 165 167 167 165 166 169 170 172 173 174 175 178 179 181 181 179 175 172 171 171 169 168 168 167 169 169 169 169 169 169 166 164 162 161 160 159 158 157 158 158 156 152 148 133 125 127 125 116 114 123 118 100 77 56 43 35 38 65 31 27 19 21 23 17 16 39 34 37 47 62 73 87 92 98 108 116 120 128 127 125 124 125 128 135 146 147 149 151 153 152 157 160 164 166 166 165 165 168 169 171 173 173 174 177 179 180 180 177 173 171 170 169 167 167 166 165 171 171 172 172 173 173 168 165 163 162 160 159 159 155 158 159 156 151 148 135 130 133 130 119 119 127 113 102 82 59 49 48 53 83 37 25 15 21 26 16 17 50 31 39 51 68 69 91 97 102 107 117 128 132 130 128 126 127 129 133 140 142 145 147 149 151 159 163 164 163 162 158 160 164 162 164 169 176 181 178 179 178 176 174 173 176 178 174 170 169 169 169 178 178 177 176 173 174 169 167 165 162 160 159 159 164 160 157 156 149 139 132 127 127 130 130 127 121 114 107 100 73 55 63 68 78 60 23 31 21 34 18 18 59 40 43 53 64 73 92 98 103 107 117 128 132 131 127 126 128 130 135 142 143 146 149 152 154 161 162 166 166 164 160 162 165 166 169 172 176 179 177 177 177 177 177 176 178 179 175 173 173 175 177 181 180 178 176 175 174 171 170 167 164 161 159 158 164 158 156 155 148 138 130 129 130 131 129 126 121 112 106 107 91 61 65 91 97 70 31 33 24 30 18 18 64 60 53 54 61 76 93 99 103 106 115 125 131 129 128 127 129 132 136 143 146 151 154 157 159 161 164 167 170 170 168 167 169 173 177 178 177 176 175 175 177 178 181 182 181 179 176 176 179 183 186 187 186 184 181 178 177 174 173 170 166 161 159 157 160 155 153 153 147 137 127 130 133 131 127 126 123 106 104 111 106 68 73 115 113 73 39 32 30 27 21 17 64 82 67 61 61 77 95 101 103 105 113 123 129 129 127 128 130 134 138 145 148 152 157 162 164 163 167 172 176 179 178 176 176 182 183 183 178 174 175 176 178 181 185 185 182 180 180 181 185 191 195 196 194 192 188 186 182 176 172 169 165 161 158 156 155 151 150 151 146 137 125 128 133 130 123 122 121 104 107 111 106 72 86 114 104 68 42 33 37 31 25 16 61 99 87 78 61 76 96 100 103 104 111 121 127 127 127 128 133 137 139 142 145 151 158 162 165 164 168 175 181 185 185 186 186 187 187 184 180 176 178 178 180 182 183 184 184 184 184 186 191 196 200 199 196 192 188 184 181 171 166 164 163 160 158 157 152 149 149 149 146 136 123 123 126 124 120 118 115 101 109 107 101 79 89 92 77 60 39 34 40 41 30 17 60 106 104 100 57 77 98 101 103 102 109 118 126 127 126 129 133 138 140 138 141 147 155 161 166 166 169 178 185 190 191 194 195 191 186 183 182 180 184 183 183 183 183 182 187 190 188 191 194 198 201 192 188 186 180 175 172 161 156 157 157 158 158 158 147 145 145 148 144 137 121 116 116 119 119 113 108 101 105 103 104 91 76 69 53 62 40 38 39 49 32 16 68 100 112 107 58 73 96 99 100 101 110 117 123 125 126 129 133 137 139 138 142 148 154 159 163 165 168 179 186 193 198 198 200 195 189 184 184 185 188 186 185 183 184 184 191 197 194 192 194 195 192 180 175 170 164 159 158 153 148 149 150 152 153 151 142 142 144 145 141 132 120 113 110 113 115 110 103 100 102 103 106 98 74 63 48 63 43 37 41 50 29 16 80 82 104 86 65 70 91 95 92 100 113 114 123 123 124 127 132 137 140 141 146 151 155 158 159 158 160 175 179 187 200 199 200 202 197 189 187 190 191 188 186 185 188 192 197 202 198 191 191 186 171 164 147 144 139 125 131 141 141 138 134 131 131 128 134 136 139 133 122 114 111 106 101 105 108 105 100 102 106 108 103 94 89 71 47 56 43 32 51 41 27 19 75 58 77 62 62 67 86 91 89 97 111 114 109 111 115 120 124 128 127 126 128 133 138 143 145 139 143 158 164 174 188 191 195 198 195 190 190 196 191 189 187 187 190 193 196 201 196 186 185 178 163 159 132 130 124 99 105 115 114 115 114 112 111 111 123 125 121 114 103 93 97 95 93 96 99 97 95 101 106 108 104 91 78 72 34 52 41 43 62 26 31 24 64 31 56 53 61 56 81 85 81 86 97 99 96 100 108 112 111 109 105 104 103 101 107 116 124 126 121 129 147 166 173 176 187 192 191 189 191 196 189 189 189 189 190 190 194 197 192 181 177 170 153 155 134 124 113 92 93 88 83 90 97 102 105 107 112 114 116 113 108 104 107 103 93 87 87 91 94 101 108 109 105 92 70 61 38 49 39 48 54 21 35 28 56 36 51 48 58 55 71 73 67 70 79 80 89 91 91 91 90 89 87 91 94 98 100 101 101 108 113 118 131 146 158 169 179 185 185 183 186 192 184 186 187 187 187 187 188 189 184 174 171 163 147 145 135 120 107 104 101 100 103 111 119 123 123 123 135 137 138 137 136 134 133 123 105 86 80 88 96 103 109 107 106 98 73 51 55 47 37 40 30 27 32 27 49 48 45 39 50 64 60 63 59 63 74 76 80 88 96 100 99 91 86 85 92 95 92 86 80 95 115 120 120 126 146 167 173 178 176 174 177 182 176 179 182 184 182 180 179 180 176 168 167 161 144 139 135 124 118 123 125 129 137 147 155 159 158 155 153 150 146 141 137 133 138 133 115 95 85 88 98 107 109 104 108 107 81 59 62 45 35 27 14 27 24 21 41 45 32 37 46 64 49 54 56 65 80 84 84 91 102 110 113 112 109 105 98 90 87 88 91 98 116 116 117 122 141 164 170 174 172 168 169 173 171 176 179 182 179 175 172 173 171 164 166 160 145 145 140 139 140 144 152 163 171 175 177 173 163 158 159 155 148 141 135 132 130 128 121 105 91 90 96 110 111 101 108 114 90 73 58 44 33 17 14 21 16 15 44 77 40 40 54 68 55 48 65 81 93 106 108 117 116 115 125 128 126 131 123 119 118 114 104 104 103 107 113 124 135 146 157 157 158 163 167 170 169 174 179 182 179 177 172 173 175 164 150 144 145 141 140 150 171 181 175 176 184 180 175 169 165 160 154 155 145 147 152 130 128 130 124 110 97 93 96 103 109 105 116 116 102 65 86 68 34 20 19 9 13 13 52 56 54 37 44 57 55 50 64 82 93 105 108 111 116 120 122 123 125 137 137 146 150 145 135 132 127 121 117 119 124 129 137 146 155 160 160 159 164 169 176 179 178 173 168 165 164 152 142 139 143 139 148 162 173 178 180 170 170 168 170 171 165 164 153 151 149 145 134 124 121 123 123 114 104 99 101 105 103 114 119 114 90 85 95 76 28 20 21 9 13 13 61 42 56 36 53 61 59 54 63 81 94 103 106 101 108 118 124 133 145 148 152 160 168 171 171 166 161 148 133 122 115 112 115 124 136 147 154 157 159 167 175 179 178 172 165 157 151 142 136 140 145 158 157 162 167 164 152 143 141 144 148 158 148 153 135 141 127 124 139 137 118 119 125 119 108 102 102 107 98 119 110 102 80 98 88 76 29 17 19 13 13 13 80 55 53 48 59 63 60 59 64 80 95 103 102 96 106 120 128 138 151 153 156 156 164 172 179 177 177 174 166 152 140 128 119 114 114 125 141 152 156 166 177 183 181 174 164 154 145 139 140 146 150 152 155 153 144 133 128 128 122 128 108 97 85 105 105 121 125 115 108 112 116 124 128 122 110 100 100 111 103 120 86 83 77 82 77 65 25 21 19 10 13 13 57 42 35 52 46 57 64 63 64 79 97 101 95 100 114 125 125 120 121 125 124 121 122 129 140 137 146 158 166 166 160 155 146 127 110 110 120 131 151 161 175 182 180 173 162 149 143 143 149 155 155 150 147 138 121 114 113 111 71 66 45 50 52 71 49 78 99 105 104 101 117 128 130 122 108 101 102 114 111 115 67 68 73 54 81 48 12 27 27 5 13 13 46 37 26 46 55 64 65 66 64 79 99 100 94 98 102 102 107 108 106 115 127 132 128 125 127 115 119 128 138 148 154 156 152 142 130 121 115 112 139 151 167 175 172 164 152 142 139 145 154 155 151 152 141 128 119 120 127 127 75 87 73 74 76 82 69 96 85 65 85 109 120 125 125 118 111 110 112 112 115 109 68 65 58 53 87 30 14 20 22 14 13 13 58 57 34 41 62 65 68 69 61 77 100 101 97 82 85 96 101 92 75 68 62 59 55 70 81 106 117 124 124 132 147 148 148 149 144 134 119 104 128 144 161 168 166 159 147 138 141 152 162 162 156 150 141 126 121 138 163 170 104 97 80 61 80 85 68 120 127 100 72 92 117 121 117 115 113 116 117 112 113 107 71 69 55 67 68 21 17 15 18 26 18 15 54 63 44 42 60 69 74 73 61 76 102 102 89 78 86 81 70 78 75 53 55 46 92 72 75 101 128 122 116 127 135 144 157 157 142 129 120 108 121 138 156 163 159 156 145 135 138 157 176 179 172 157 138 132 134 140 161 177 145 99 93 95 82 71 116 137 128 127 99 94 124 129 123 118 117 118 117 111 112 107 71 71 60 67 43 19 16 17 18 23 22 17 61 71 56 49 64 82 79 77 67 78 99 100 88 65 51 57 86 115 96 67 79 37 24 77 84 124 186 167 133 117 113 135 160 175 158 130 115 107 114 133 148 155 152 150 145 134 129 150 179 190 187 152 133 130 129 118 126 147 160 113 109 117 77 93 146 133 117 126 123 120 145 149 141 132 125 121 119 112 108 107 69 68 56 59 35 17 16 14 11 15 23 18 66 76 59 55 72 83 77 74 68 79 94 93 89 75 70 81 102 126 122 78 88 85 98 98 92 172 185 166 144 133 118 123 158 188 173 134 108 97 109 126 141 146 145 144 143 136 129 139 160 177 183 162 154 145 136 135 136 149 151 148 149 148 139 124 132 130 126 124 130 137 153 154 149 141 134 129 125 114 107 106 73 66 53 62 40 18 15 13 16 18 24 22 64 79 59 63 80 80 74 70 70 81 92 91 89 79 82 101 111 126 147 121 91 76 91 110 120 168 143 143 135 138 153 149 163 175 153 119 106 104 107 121 135 140 140 141 135 127 125 128 139 160 178 160 151 149 147 141 146 152 157 160 153 161 160 127 149 147 142 134 138 146 152 152 150 147 142 137 133 120 108 104 82 65 54 70 44 18 12 16 21 27 28 28 54 81 70 72 84 84 76 72 78 89 98 101 106 98 91 101 106 114 136 139 118 111 116 146 150 167 139 143 149 157 162 153 161 156 131 110 104 100 107 120 134 136 137 141 135 126 124 122 129 147 162 170 152 153 154 146 158 163 168 168 168 163 157 167 151 146 140 144 151 155 154 156 155 154 149 144 139 127 112 102 95 65 56 68 42 16 13 14 18 26 33 35 47 84 84 78 85 91 79 77 85 100 107 111 122 113 92 104 121 115 117 123 117 134 138 155 140 155 157 146 141 147 150 157 159 141 114 107 105 97 109 121 131 136 137 141 144 139 127 121 128 135 139 164 163 163 161 160 157 165 166 165 155 152 162 149 147 154 152 157 156 159 161 162 162 160 154 146 141 133 116 101 105 66 58 60 36 16 14 13 11 22 35 39 44 66 100 84 81 85 77 81 91 107 116 117 116 112 108 108 114 121 130 139 143 148 156 162 165 161 155 151 154 157 156 154 146 126 116 116 107 95 105 120 137 148 150 144 136 127 119 121 131 138 139 155 162 170 174 173 170 174 177 175 172 170 168 167 167 166 165 164 164 163 160 160 161 159 155 149 144 125 117 110 101 87 72 55 51 8 15 17 18 26 44 24 36 55 88 74 68 81 81 84 94 110 120 121 122 119 114 114 120 127 133 137 138 144 147 152 153 165 160 158 162 164 160 154 143 126 116 114 105 94 102 117 136 149 150 147 138 127 119 122 130 137 138 146 156 168 178 182 182 182 182 180 178 175 174 172 169 168 167 166 165 165 162 162 162 160 155 149 144 126 113 101 97 94 90 78 48 20 15 16 16 33 46 44 32 48 76 64 55 80 84 86 96 113 125 130 131 129 124 124 128 134 136 138 142 148 154 160 164 169 166 167 170 170 162 152 138 125 117 112 104 95 98 114 135 149 153 151 140 128 120 121 129 135 136 142 152 167 180 187 190 183 180 177 176 173 171 170 171 170 169 168 167 167 164 165 164 162 156 149 144 129 112 99 95 97 98 88 55 36 24 19 29 37 63 86 31 47 69 57 48 82 86 87 96 115 129 135 138 136 135 134 135 138 144 155 156 157 159 161 161 169 170 173 176 172 161 146 132 123 117 111 103 94 98 114 135 150 154 150 141 129 120 120 127 132 133 143 153 165 178 183 185 182 180 178 177 173 171 170 174 173 172 172 171 170 169 169 167 164 156 149 144 133 118 105 99 93 87 87 58 46 56 18 46 53 105 139 27 49 62 50 45 83 85 84 94 113 130 138 142 142 141 141 140 140 143 149 152 154 158 160 160 163 166 171 176 170 153 137 127 123 117 109 101 93 100 116 135 149 154 148 141 130 121 120 126 130 131 142 152 164 174 178 176 184 187 184 182 180 178 177 176 175 174 174 173 172 172 171 170 165 157 149 144 133 120 108 99 87 73 85 50 49 86 21 55 84 134 177 20 49 54 42 40 81 83 81 90 109 129 138 144 145 144 143 141 140 142 150 152 154 157 161 162 156 161 168 172 164 145 129 123 123 118 108 98 93 105 119 137 149 150 145 139 131 121 120 125 129 129 135 145 159 170 175 176 183 186 184 181 179 177 176 179 178 176 175 176 175 174 174 172 166 158 149 144 130 117 104 94 83 71 79 49 53 82 34 67 116 154 185 37 47 47 39 36 67 80 76 85 107 126 135 147 148 147 146 145 145 148 155 156 157 159 160 160 165 161 163 163 157 143 133 121 112 114 103 91 96 108 129 137 145 145 140 139 129 118 117 122 129 127 129 136 149 170 171 171 177 178 177 176 175 175 174 171 176 181 183 181 177 177 175 172 165 155 146 139 127 113 98 89 80 71 70 50 68 82 46 88 151 162 181 47 44 42 39 30 47 72 75 84 104 125 134 149 151 150 149 150 151 152 156 157 158 160 162 162 168 162 159 158 153 143 135 120 108 110 97 88 100 114 139 144 150 151 145 148 137 126 118 114 121 119 126 136 144 162 171 173 176 178 178 178 178 178 177 169 176 183 186 183 178 177 176 172 163 152 143 136 125 111 97 88 79 68 49 47 81 98 65 98 146 139 168 36 36 39 40 35 36 60 78 86 100 124 132 148 151 152 154 155 156 156 158 158 159 161 162 162 162 158 156 154 151 141 132 121 112 108 93 89 108 119 142 150 156 158 156 155 147 139 124 112 118 119 122 136 149 156 172 175 177 182 182 181 181 181 180 171 176 182 184 180 177 176 174 169 162 152 141 135 124 110 94 86 76 67 57 66 91 125 114 113 116 134 161 19 31 37 41 45 42 53 81 87 95 120 129 143 148 153 158 160 160 159 161 162 161 161 162 162 158 154 152 153 150 141 132 123 116 105 91 93 114 127 148 160 165 171 172 163 151 145 129 114 121 126 118 127 155 164 168 172 175 178 178 179 178 178 178 174 177 180 180 178 176 174 173 168 161 150 140 133 122 107 92 83 74 65 76 106 113 139 143 138 121 153 143 15 32 38 41 51 48 54 80 83 89 112 124 136 143 151 159 162 161 161 165 165 164 162 162 162 157 153 152 154 151 142 133 125 115 98 90 98 118 132 152 169 174 182 184 175 162 152 134 118 121 122 118 118 155 177 167 167 174 175 175 175 175 175 175 177 178 178 178 176 175 171 171 167 159 148 138 131 119 104 91 82 72 62 80 126 118 137 155 165 133 141 128 11 25 41 52 60 56 62 75 79 85 102 118 129 137 148 157 161 160 161 168 167 166 164 162 161 158 154 153 156 155 147 138 128 111 93 91 105 120 150 168 189 194 204 208 190 168 152 137 124 125 120 125 116 140 174 172 171 177 177 177 176 177 177 177 179 178 177 175 176 174 172 169 166 157 146 137 129 117 103 88 79 69 61 85 130 109 143 179 181 125 118 133 0 13 44 69 74 68 68 69 75 83 98 115 125 134 145 155 159 159 160 169 168 166 164 162 161 159 156 155 157 156 151 141 128 108 91 94 108 120 138 156 177 179 191 197 182 162 146 137 131 135 130 131 121 126 165 178 177 180 180 181 180 179 179 179 180 179 176 174 174 173 170 169 164 156 146 135 129 116 101 88 79 70 61 91 143 129 161 188 182 132 131 133 5 9 59 89 68 79 60 52 68 79 99 103 125 133 142 150 155 158 160 163 165 166 163 159 156 159 159 154 151 159 155 142 114 103 103 115 107 119 132 147 154 158 171 171 158 154 144 133 132 132 145 134 138 126 148 183 188 186 185 186 184 180 175 173 183 177 174 175 173 166 164 164 159 152 140 129 122 116 99 91 82 68 65 98 140 163 182 185 174 149 136 116 11 4 43 101 94 70 54 50 75 76 88 102 122 129 138 146 152 156 157 160 163 164 163 160 156 159 160 155 154 161 155 147 118 104 109 113 110 117 123 130 135 145 158 153 143 152 137 105 92 87 117 142 152 131 137 172 184 188 188 186 184 181 179 179 182 176 173 174 172 166 163 162 157 148 138 129 123 116 98 91 83 68 64 95 157 177 177 176 173 155 139 89 16 3 22 84 110 86 74 57 76 75 80 99 116 124 133 142 149 153 154 157 159 162 162 159 157 160 162 158 159 163 157 144 114 120 119 96 81 66 96 111 124 132 136 137 138 124 80 51 55 75 98 129 155 141 141 171 181 188 190 187 185 183 184 185 182 176 174 174 172 166 161 159 153 145 137 128 125 115 100 93 85 70 64 94 162 179 174 173 174 165 147 73 8 3 12 63 104 103 117 79 69 76 79 92 109 116 127 138 145 149 150 154 157 160 161 159 158 159 164 162 163 167 156 143 113 125 128 116 104 60 33 58 90 112 120 126 124 89 76 84 103 143 142 131 153 143 146 170 177 184 187 187 186 184 185 185 181 174 172 173 170 164 159 155 148 140 134 129 126 114 101 96 87 70 63 99 152 165 176 177 173 175 150 76 9 5 19 56 99 103 146 108 60 79 77 85 102 110 121 132 141 145 148 150 153 158 160 158 157 160 165 165 166 169 159 143 114 129 143 148 160 149 97 86 88 97 102 104 111 111 135 147 143 170 172 150 147 134 149 170 173 178 180 186 189 187 183 180 181 175 172 173 170 165 157 152 145 137 131 129 127 114 101 98 89 71 62 101 150 153 169 177 171 171 131 59 27 7 12 47 104 114 149 128 58 79 72 81 98 106 117 129 139 142 146 148 153 157 159 158 157 161 166 167 169 172 160 146 114 119 148 159 169 183 145 131 125 117 105 106 114 134 158 168 166 158 161 148 132 132 165 180 172 169 174 185 191 188 179 173 181 175 171 172 170 164 156 152 142 134 130 128 128 113 102 100 91 73 61 99 157 153 160 170 166 162 104 29 89 22 9 29 109 123 138 119 50 68 73 75 94 102 110 115 124 137 144 144 150 156 158 159 158 161 165 170 170 165 156 150 139 117 124 159 170 166 166 165 162 158 142 140 151 164 183 186 178 163 153 141 140 154 170 174 177 174 175 185 191 190 183 177 174 175 176 174 167 160 151 146 139 133 129 127 125 115 111 105 93 77 66 104 167 162 163 166 170 136 59 9 127 53 15 20 106 130 141 122 55 62 73 75 93 100 107 111 119 134 141 141 147 152 157 157 158 161 165 169 168 162 156 148 149 139 125 133 147 154 152 166 173 179 171 168 172 177 182 176 172 165 153 158 166 167 168 175 171 165 169 176 182 186 184 183 179 177 174 169 163 158 149 144 138 132 128 126 125 114 112 105 91 76 64 101 170 165 154 155 159 108 38 37 164 94 23 12 100 136 151 134 69 57 72 79 91 98 105 110 117 129 136 137 144 150 155 156 157 161 163 166 165 160 154 152 155 155 138 130 142 147 155 171 169 172 177 178 184 177 168 168 161 154 157 147 154 158 162 166 165 160 162 165 172 178 183 186 182 178 171 165 158 154 148 143 135 128 126 125 123 113 111 105 91 73 58 84 143 145 145 138 104 41 29 59 182 125 38 8 87 134 153 144 86 52 71 81 87 96 103 108 113 121 128 132 139 146 152 154 155 160 162 162 161 157 152 153 155 155 151 146 149 132 138 158 159 163 170 170 175 163 149 157 149 136 142 146 145 156 162 157 159 165 165 163 164 170 177 180 176 178 176 169 157 146 144 141 131 123 120 123 122 113 113 107 92 72 55 59 93 86 69 50 37 25 38 56 185 145 64 15 62 117 148 150 103 49 69 81 84 92 101 106 108 114 121 127 134 142 149 152 154 160 160 159 156 154 151 150 150 152 148 142 135 113 127 145 147 153 157 155 165 166 158 158 158 150 135 135 142 145 149 155 154 159 162 159 158 161 167 170 169 175 179 173 157 142 142 139 128 119 116 120 121 116 116 111 96 72 54 59 41 13 18 24 19 27 45 58 187 160 95 30 34 90 137 152 117 48 69 79 81 90 99 104 106 109 115 123 131 140 147 151 153 160 159 156 154 151 150 147 146 143 135 137 130 120 135 142 143 147 144 151 163 155 145 154 154 143 136 118 128 131 135 144 142 143 146 146 149 153 157 160 165 171 175 171 158 146 144 137 124 115 114 119 122 120 122 118 101 77 55 38 37 31 35 32 25 36 49 73 191 169 114 45 18 59 122 149 121 49 68 74 80 91 100 102 102 105 112 122 127 136 146 151 152 161 158 153 151 148 148 144 145 133 128 143 138 129 123 134 147 158 155 158 171 150 136 160 154 138 151 142 138 141 137 130 133 134 133 136 143 147 149 154 162 161 161 164 158 152 145 134 120 113 113 118 124 123 125 119 103 81 59 52 46 32 31 36 25 29 52 86 189 171 126 61 15 11 66 121 118 54 56 67 84 94 100 98 95 99 108 121 122 133 146 150 146 159 156 147 149 141 142 135 136 126 125 135 122 111 137 138 143 148 154 157 160 161 158 159 155 151 151 151 145 144 134 137 143 136 131 134 140 140 139 142 152 138 136 159 164 154 144 124 110 111 114 121 130 127 125 116 104 88 63 60 53 43 43 37 22 27 60 100 188 177 144 73 16 7 13 50 79 53 56 69 84 93 98 99 96 97 103 114 122 135 146 146 139 147 150 145 142 134 137 130 125 117 118 133 130 127 144 144 146 151 160 167 170 175 175 163 159 152 140 147 143 141 147 147 140 134 140 144 142 147 150 141 138 140 134 151 160 150 141 124 110 112 116 122 132 132 129 117 105 90 65 65 51 55 43 29 16 33 70 108 190 184 162 87 16 10 9 5 8 28 63 65 81 89 95 99 97 96 95 104 119 136 143 139 131 135 141 140 135 128 133 133 128 119 122 139 142 146 140 147 157 165 169 171 165 168 172 170 172 169 161 157 156 150 159 159 153 147 146 143 137 139 142 138 127 149 139 143 156 155 141 121 110 115 117 125 134 137 133 118 106 91 67 57 38 63 52 37 24 41 83 118 192 188 173 100 20 10 8 16 7 12 49 65 79 86 94 99 99 92 89 96 116 133 137 132 125 128 132 136 131 129 131 135 134 127 125 135 136 141 152 157 164 170 174 175 177 174 171 174 164 154 155 152 154 144 142 142 148 163 158 150 148 144 147 154 138 147 138 145 161 155 138 120 112 119 122 126 135 140 133 115 101 87 64 41 46 83 68 30 26 59 97 125 197 188 172 107 24 10 8 10 9 14 37 66 79 84 91 100 101 91 85 93 112 127 128 125 123 127 125 131 130 136 131 133 132 133 137 146 146 153 155 155 153 155 161 166 173 168 159 154 144 136 138 143 140 132 123 122 130 140 139 138 142 142 145 151 137 138 133 123 139 146 134 119 113 121 125 128 136 139 131 111 97 83 61 39 63 91 78 25 37 79 109 128 200 188 167 111 28 9 9 4 4 17 34 55 76 81 89 100 102 89 81 91 109 122 122 122 123 130 122 127 131 143 133 135 139 140 138 139 131 131 133 135 137 138 138 137 138 140 134 125 130 140 142 141 130 130 122 120 114 107 117 128 137 147 150 146 155 136 136 127 142 149 133 118 114 122 126 129 136 138 128 108 92 79 58 47 67 68 82 40 60 93 117 129 184 187 174 123 47 5 2 2 1 6 34 66 69 78 95 103 101 91 81 79 96 106 118 122 113 126 136 138 140 135 147 146 145 138 123 113 119 130 127 138 145 142 134 132 129 124 119 115 116 120 122 117 115 112 112 115 119 111 90 82 88 107 141 147 154 148 143 139 139 142 137 120 125 135 133 130 131 131 128 108 92 79 54 58 56 59 59 59 80 135 143 153 190 190 176 134 62 9 7 6 7 12 28 54 68 79 95 106 105 97 86 81 98 105 107 112 117 123 134 137 138 127 134 131 121 105 105 116 115 106 118 126 129 120 110 105 105 107 108 113 118 123 126 114 115 113 108 101 93 95 98 116 136 144 148 135 150 150 149 146 142 138 133 123 130 136 131 130 131 130 128 111 97 79 54 48 51 56 57 68 90 138 152 159 194 192 180 153 91 29 9 5 6 2 11 45 69 80 97 107 109 103 95 87 94 100 94 100 118 126 141 148 150 136 137 119 98 87 91 101 101 93 93 104 116 125 128 132 143 154 155 155 153 147 144 137 134 130 125 119 117 125 131 144 160 168 169 158 151 153 153 148 142 136 129 127 138 137 129 129 130 128 126 113 101 76 51 40 47 57 60 86 110 144 161 166 190 190 184 175 131 71 18 11 12 8 12 41 68 80 95 107 111 110 105 95 89 93 92 96 112 131 148 154 152 132 125 107 92 89 86 87 95 105 106 111 122 133 140 143 148 153 155 155 153 147 142 145 142 138 135 139 142 146 147 148 157 167 170 168 160 155 151 145 141 139 129 130 143 139 130 130 127 126 122 109 101 71 50 41 48 59 65 105 133 154 168 170 187 188 187 187 165 128 65 24 3 6 15 29 62 76 90 103 110 112 111 105 93 89 92 97 106 123 142 155 160 147 144 143 144 126 113 111 112 115 117 118 124 136 144 145 149 154 156 160 161 161 160 158 159 161 159 155 150 154 159 153 158 167 167 171 166 159 150 143 141 141 131 135 146 140 135 131 121 124 114 99 94 62 47 50 45 55 66 114 148 161 169 168 193 192 189 187 182 171 128 88 37 13 11 14 56 72 86 99 109 113 112 108 106 93 89 97 104 123 143 157 168 163 169 160 146 132 130 135 137 133 149 144 143 148 152 148 155 161 160 159 162 164 166 174 173 172 168 163 158 159 161 151 153 162 159 163 165 162 155 150 143 138 132 136 144 139 140 133 115 123 106 88 84 54 46 56 38 45 59 108 148 161 164 164 193 192 191 188 188 187 171 154 105 46 16 14 49 71 85 96 108 112 112 112 113 99 93 100 109 129 144 155 161 155 157 153 148 145 145 147 147 145 157 152 151 154 157 155 155 156 153 152 154 159 164 170 167 163 160 160 161 162 165 162 164 167 162 162 161 158 155 151 144 137 136 140 142 138 136 127 115 119 102 79 77 48 46 62 30 39 51 103 149 160 163 163 189 189 189 189 189 190 188 176 137 68 21 16 36 67 80 91 105 109 112 114 111 104 98 104 113 126 140 154 158 156 156 152 148 148 149 151 152 152 158 157 156 156 155 156 156 154 151 152 154 157 160 163 163 164 162 161 161 161 162 161 162 162 162 162 159 152 148 149 146 138 141 142 141 137 129 123 120 116 99 70 61 48 63 75 28 39 41 97 152 163 164 164 187 188 188 187 188 188 187 186 159 95 37 17 25 44 70 85 99 107 107 114 112 107 101 104 111 126 141 154 158 155 155 152 149 150 152 154 155 156 160 160 160 159 158 158 155 154 156 158 158 157 157 164 164 163 161 160 160 159 159 160 161 163 164 164 157 151 147 146 143 137 139 141 140 138 131 124 120 112 93 66 43 54 93 91 30 38 34 87 152 167 167 167 188 188 188 188 188 188 187 187 169 112 50 20 18 28 59 79 95 109 106 113 114 112 105 106 110 123 137 151 156 154 152 151 149 150 153 156 158 159 163 162 162 162 162 161 156 152 158 162 162 159 155 164 164 163 162 161 162 159 158 159 162 163 164 166 153 150 146 142 139 136 137 139 140 138 130 121 113 93 74 62 47 69 106 94 30 46 40 84 148 164 168 168 187 187 187 187 187 187 186 183 170 120 59 24 19 19 47 71 90 107 107 111 117 116 110 107 107 118 132 146 150 148 148 147 145 148 151 155 158 160 166 166 166 166 165 165 159 156 160 163 163 160 159 168 167 167 166 164 165 161 161 161 161 163 162 162 150 150 145 139 135 134 135 139 139 134 124 111 102 82 53 54 59 88 112 91 29 48 56 97 143 162 167 167 187 187 187 187 187 187 186 183 175 131 69 25 19 16 28 58 80 97 107 109 118 121 114 107 105 112 125 140 144 142 141 140 141 144 148 153 157 159 169 170 169 168 167 168 163 161 159 160 162 163 164 173 173 172 170 170 169 167 166 164 162 160 158 156 147 149 145 136 131 133 135 139 137 131 116 98 87 73 50 58 81 106 119 89 31 47 71 114 143 161 164 163 186 186 186 186 186 186 185 186 184 144 78 27 17 12 15 47 69 85 106 109 119 123 116 107 105 107 119 135 138 137 135 137 136 140 144 150 153 157 172 172 170 170 170 169 166 162 158 157 160 164 168 177 177 175 175 174 173 171 170 167 163 158 155 152 145 149 145 134 129 132 135 137 136 127 109 89 76 62 59 81 109 117 118 91 35 42 77 125 146 167 161 160 188 186 185 186 190 190 184 192 185 156 102 41 14 11 19 30 38 61 87 101 106 112 112 109 106 104 113 124 134 138 136 137 142 145 148 151 154 156 165 169 175 178 178 175 175 165 155 159 157 162 177 181 185 176 169 177 176 171 178 164 155 159 149 141 137 137 131 123 122 127 127 140 125 114 95 84 54 58 82 105 125 128 113 85 29 34 88 133 148 160 165 165 188 185 185 187 190 190 184 188 185 166 120 59 22 12 12 19 30 54 80 95 105 115 117 112 108 97 105 119 131 138 139 139 143 145 149 153 158 159 167 170 174 175 174 172 167 156 151 156 155 155 164 174 177 171 169 178 178 173 178 171 159 151 142 146 149 139 128 120 116 109 114 133 119 97 89 71 57 85 105 121 133 131 112 89 35 33 80 133 154 165 165 165 187 184 184 186 189 190 188 185 183 174 134 74 27 12 8 14 21 42 62 78 94 110 115 109 103 93 101 113 126 134 137 139 142 145 150 153 158 161 170 170 171 170 168 166 163 159 161 165 164 161 162 165 167 166 168 176 179 176 173 168 162 146 136 145 141 130 121 118 114 106 109 116 104 81 71 52 83 112 126 136 141 134 113 95 44 35 74 132 162 168 165 165 187 185 184 185 189 190 191 185 181 176 138 81 30 12 11 16 17 24 40 63 81 101 110 108 103 95 100 108 118 124 127 132 138 142 148 154 159 162 169 167 166 164 164 163 163 167 174 176 175 172 167 163 161 161 165 169 174 177 164 157 156 145 135 134 124 122 117 109 108 110 107 105 90 64 57 59 117 124 135 140 143 135 115 97 60 50 75 133 167 171 165 165 186 184 183 184 188 190 192 188 182 175 144 95 36 18 14 19 14 11 23 50 69 89 104 107 106 95 98 104 110 116 121 126 134 137 143 150 155 159 164 163 159 160 161 163 164 169 174 172 174 174 165 166 160 160 161 157 162 165 152 146 147 140 137 125 120 121 113 101 96 101 93 102 80 51 68 101 134 129 139 140 142 133 114 94 80 78 87 135 166 169 164 166 186 183 182 184 188 189 189 191 188 179 156 117 50 24 13 13 10 8 16 31 46 66 83 93 96 86 90 97 105 115 124 126 127 132 139 145 153 156 160 157 156 156 160 165 166 172 175 169 172 176 168 174 163 161 157 148 151 148 143 147 137 132 137 126 123 115 106 99 95 92 89 91 64 62 95 136 140 142 146 144 141 131 110 88 97 104 101 137 162 165 165 166 184 182 183 185 185 186 186 189 188 181 163 136 74 37 15 13 10 9 14 15 27 45 64 79 89 85 83 99 106 106 113 120 127 131 126 136 146 149 150 148 148 151 158 165 174 180 180 176 176 177 173 176 174 164 166 151 146 141 138 141 131 122 125 112 114 111 103 93 87 84 83 67 63 98 127 147 149 153 152 144 139 131 112 86 99 123 124 143 163 162 165 168 182 183 183 184 184 184 185 185 188 185 173 158 102 57 22 15 12 12 14 11 15 27 44 62 77 87 75 78 81 87 103 118 121 125 119 131 139 139 137 140 145 151 161 168 175 178 176 174 172 171 170 170 176 164 169 153 141 146 133 126 121 110 114 115 98 93 87 85 84 78 65 63 94 137 150 146 150 156 153 142 137 132 116 92 86 141 131 161 169 165 165 166 183 183 184 184 184 185 185 184 187 191 188 181 135 84 35 17 13 15 15 15 10 13 26 43 57 64 69 82 96 91 87 102 109 114 121 133 131 129 128 134 145 156 165 169 171 169 168 166 164 162 162 163 169 162 165 148 133 140 125 115 108 104 111 114 82 69 66 76 76 66 62 92 141 164 161 154 155 157 154 142 137 132 116 111 82 136 127 142 159 171 166 161 184 183 184 185 185 186 188 183 183 189 190 187 160 113 55 20 12 11 12 18 15 13 20 30 38 42 55 63 73 74 87 108 98 107 123 133 126 126 128 134 145 155 161 162 164 167 166 164 161 160 159 159 165 161 160 145 131 120 115 113 106 107 103 87 80 71 64 56 57 69 103 139 163 162 160 164 163 156 153 142 137 132 116 95 84 114 130 65 60 106 149 171 184 184 185 185 186 187 188 181 180 184 185 183 173 140 84 36 16 9 8 11 10 12 14 20 24 29 50 63 69 66 81 99 91 104 118 125 120 121 128 133 141 147 151 152 160 167 167 164 162 160 160 157 158 153 149 137 128 116 109 98 104 101 84 77 82 70 60 50 67 115 151 170 169 161 163 166 159 156 153 142 137 132 116 101 85 98 150 108 9 26 86 156 184 185 186 186 186 186 184 181 182 187 187 182 179 165 118 60 27 15 8 7 5 6 12 20 26 39 39 49 53 50 60 71 79 101 103 107 111 116 124 125 130 137 144 150 160 166 163 163 161 159 158 151 146 139 131 125 123 117 110 84 96 91 68 71 79 62 67 85 114 162 174 172 167 165 169 164 153 157 153 142 137 132 117 95 83 89 150 160 40 9 22 88 185 185 185 186 186 186 180 181 186 193 193 188 184 181 143 82 38 21 14 15 10 7 16 31 43 33 17 32 49 60 68 62 70 94 87 91 101 110 115 116 121 131 142 153 159 162 161 159 157 156 154 145 135 126 117 114 115 107 115 84 88 89 65 56 72 57 89 137 157 172 173 166 162 164 167 163 157 156 153 142 137 132 117 102 108 98 166 162 73 9 13 16 185 185 186 186 186 187 186 186 186 186 186 186 190 179 165 134 76 25 9 14 9 8 11 22 52 59 41 29 32 46 50 57 66 68 79 90 95 92 106 110 117 125 133 139 138 145 147 143 141 132 136 127 124 123 116 112 98 89 94 88 68 75 76 70 67 96 149 182 177 175 172 170 168 165 163 160 159 152 147 143 146 142 118 106 116 133 194 167 109 10 17 9 184 185 185 186 186 186 186 186 186 187 187 186 186 179 173 153 106 52 25 21 11 9 12 21 54 72 60 40 25 25 42 52 54 58 64 72 78 84 99 104 113 122 131 137 136 136 129 130 134 124 121 118 120 114 100 87 82 85 79 72 72 71 60 62 99 150 179 177 172 171 170 169 168 165 163 161 159 156 151 150 142 139 127 116 113 170 196 172 135 28 11 19 184 184 185 185 185 186 186 186 186 187 186 186 183 180 182 177 143 91 51 25 11 6 10 20 55 80 77 61 37 24 31 42 53 66 71 66 60 61 96 98 103 108 113 116 125 131 123 120 123 112 109 95 92 86 87 76 74 74 65 55 55 54 70 104 156 183 180 167 174 176 171 169 167 165 162 160 159 151 148 151 142 145 133 113 141 205 189 162 149 36 7 13 183 182 184 185 185 185 185 185 185 185 185 187 181 183 188 189 171 130 84 34 14 5 9 16 53 79 84 85 73 51 30 26 41 56 63 60 59 62 74 74 77 79 82 83 91 104 97 86 79 70 76 59 57 58 68 68 75 61 51 44 47 71 123 169 176 182 183 181 178 172 169 168 167 164 161 159 157 150 150 146 143 147 128 134 197 211 187 168 148 27 16 9 183 183 183 184 184 184 185 185 185 185 185 185 180 186 188 187 181 159 123 68 33 14 12 10 44 74 85 100 103 86 53 34 29 31 35 46 58 68 55 56 60 65 68 71 66 68 63 54 50 46 55 44 47 44 39 37 46 49 62 84 111 137 169 178 174 177 185 186 176 173 171 168 166 162 161 158 157 159 158 148 146 141 139 185 227 202 195 192 133 11 17 19 182 183 184 183 184 184 184 184 184 184 184 184 181 189 186 179 181 175 154 106 62 32 18 5 33 74 88 104 112 102 84 63 45 32 26 28 32 31 40 41 42 43 43 44 41 40 33 35 45 45 52 52 51 55 60 75 77 96 120 148 163 164 176 179 176 173 179 185 181 178 171 167 166 163 160 159 157 157 156 153 151 140 178 223 214 198 194 192 106 10 22 19 184 183 184 183 184 184 184 184 184 184 184 184 182 184 183 181 181 182 173 144 108 62 26 13 22 64 83 96 110 117 108 98 79 58 50 50 43 32 31 29 31 31 31 30 38 54 56 62 73 76 89 105 110 121 135 151 157 161 163 168 170 170 176 180 176 178 183 184 180 171 168 166 166 164 162 161 161 156 152 164 149 171 213 221 203 210 189 177 65 18 21 17
