P2
# Generated by OpenCV 4.2.0
92 112
255
219 100 30 13 18 24 21 38 54 68 72 84 117 149 149 162 161 169 176 175 179 184 191 191 188 191 193 195 194 201 202 200 197 196 199 203 204 203 205 207 205 207 207 206 207 203 203 208 207 206 204 203 203 204 200 200 197 197 197 198 198 195 191 184 183 181 182 173 175 179 168 158 142 123 115 112 93 80 68 61 46 41 44 72 66 54 64 69 79 93 62 45 136 35 23 15 12 16 27 53 56 47 67 109 138 144 151 159 168 174 179 177 182 183 189 192 188 190 197 199 198 203 204 203 201 201 202 203 201 205 205 206 209 209 209 211 205 206 209 207 208 208 208 209 208 205 206 208 203 200 202 203 197 195 192 189 191 185 186 185 181 182 186 181 175 164 156 150 129 110 85 64 78 72 59 60 85 60 67 75 64 77 87 88 73 43 27 18 22 8 42 52 35 60 91 124 145 146 154 164 168 170 175 176 188 187 188 192 193 192 199 203 196 200 201 201 195 199 201 203 203 207 209 209 208 207 210 208 208 204 210 211 205 206 207 207 209 208 207 205 201 197 196 196 200 196 193 196 194 188 188 185 185 180 184 186 182 181 174 174 159 133 99 74 74 78 74 63 81 74 77 63 92 73 92 80 63 50 28 17 14 25 46 41 46 86 122 137 145 148 154 164 169 172 179 180 185 181 186 193 196 197 200 201 200 201 202 194 200 202 201 204 208 210 211 210 208 209 210 207 207 206 209 209 206 206 208 210 210 207 207 204 207 207 205 201 202 198 195 196 197 197 193 187 189 191 188 186 181 184 179 178 175 150 109 68 68 65 80 94 97 95 91 93 96 98 78 76 65 55 39 29 31 36 36 35 74 119 136 136 145 150 157 164 168 174 177 182 180 185 192 193 193 196 199 198 196 198 196 201 200 200 202 207 205 209 212 206 209 213 208 208 203 205 207 207 206 206 208 209 211 205 206 202 205 207 207 205 203 204 200 198 197 196 194 191 194 194 192 194 194 192 190 186 181 167 129 95 77 57 34 45 64 80 96 114 127 117 111 97 67 49 42 34 36 45 41 57 117 135 139 149 145 154 160 163 169 176 175 179 186 182 187 193 196 198 202 200 203 202 199 202 199 200 203 207 205 208 211 208 214 214 214 210 214 215 215 212 211 210 212 213 210 204 209 203 204 206 209 207 205 205 200 195 198 196 195 195 191 192 194 192 194 188 187 186 181 167 139 92 70 72 62 52 50 47 57 61 69 77 87 113 57 48 44 55 55 59 50 82 117 142 140 146 154 156 159 168 171 178 175 180 185 187 189 187 193 194 195 198 203 201 201 197 202 204 203 203 207 208 208 214 209 206 213 204 209 211 210 206 210 215 214 212 209 202 208 206 206 208 213 209 203 203 203 199 191 193 196 195 192 193 198 196 197 187 184 181 179 170 145 108 93 76 61 43 45 52 50 57 65 70 71 94 50 56 53 58 52 77 85 105 126 144 147 152 156 156 162 167 179 179 178 183 184 192 194 193 197 203 198 196 195 194 199 199 200 203 206 205 204 205 207 210 213 211 213 209 213 213 213 210 210 212 216 216 215 211 208 210 211 210 209 207 205 204 204 202 196 198 195 195 194 193 195 196 195 189 185 181 172 158 145 122 98 104 76 70 58 53 50 28 29 36 50 56 53 54 49 49 59 77 93 106 134 144 150 154 157 155 160 166 177 179 180 183 189 194 195 196 203 202 195 196 197 194 204 200 200 204 209 207 206 207 209 212 209 208 207 208 210 213 207 214 212 213 211 213 215 215 215 214 211 210 211 205 207 206 205 205 201 197 199 197 196 197 196 194 190 185 183 183 171 158 141 126 96 123 96 86 83 63 40 47 40 25 29 51 58 53 49 49 59 76 97 113 132 146 155 155 154 154 163 171 176 178 181 180 190 194 198 202 199 195 198 204 202 202 203 194 198 201 200 208 209 209 211 212 210 212 209 212 207 207 203 210 211 213 215 220 215 218 217 216 217 215 217 210 208 207 207 205 203 198 202 199 199 196 197 196 189 179 178 179 171 161 137 128 107 104 136 97 92 92 83 49 53 60 44 34 61 47 41 45 50 78 100 109 135 152 157 157 160 160 169 177 181 181 182 182 189 198 199 196 195 198 203 205 198 199 201 201 199 197 206 208 209 210 209 210 208 211 210 212 213 210 212 211 214 212 212 216 217 219 219 214 215 211 213 209 207 207 206 204 203 202 205 199 199 197 196 196 187 179 180 182 165 167 141 118 126 91 142 120 112 95 79 80 39 55 65 67 49 42 48 46 58 89 106 113 139 147 156 156 160 162 171 176 177 179 181 188 198 208 201 198 193 202 203 196 199 203 200 197 197 207 211 211 209 208 209 212 207 207 213 210 211 213 210 212 216 215 214 214 216 219 217 214 217 217 215 210 205 207 208 202 201 201 202 201 201 200 196 193 186 181 179 185 169 162 145 119 122 108 128 151 97 123 88 63 75 47 43 53 42 37 37 51 63 91 109 116 138 148 156 153 159 165 172 177 178 182 184 190 189 204 192 195 200 196 197 202 203 203 203 200 202 207 209 207 208 207 210 206 205 209 212 211 208 210 209 212 213 215 216 215 217 216 217 214 214 215 212 210 208 206 201 198 203 206 205 201 198 199 199 194 187 183 179 179 173 167 145 138 126 124 121 151 132 114 108 75 64 74 47 57 56 50 47 58 67 94 116 121 137 148 159 155 158 164 169 176 180 184 183 187 195 199 191 199 201 202 201 201 200 197 199 202 204 206 208 204 207 205 207 207 209 211 211 210 209 209 211 209 211 210 210 212 214 208 211 214 211 212 210 208 208 206 205 203 199 204 202 200 197 195 198 196 185 184 182 182 174 169 154 135 139 149 134 151 147 119 121 85 55 64 61 39 39 20 34 54 70 97 120 124 140 148 162 157 160 162 166 177 178 184 184 183 189 191 193 197 201 195 196 199 198 199 202 201 204 209 203 208 206 208 205 209 211 213 210 210 210 214 208 209 206 205 208 212 211 208 209 209 212 211 209 207 209 208 200 199 204 204 198 199 203 199 197 192 186 186 181 174 178 174 157 150 139 138 143 137 156 122 122 103 75 65 72 66 38 30 37 54 74 98 120 131 145 148 162 163 163 163 163 175 177 182 183 180 185 189 194 195 193 191 195 202 199 198 202 207 205 209 207 208 210 210 205 205 207 210 208 205 204 207 204 199 204 204 204 207 206 205 205 206 208 207 204 207 204 204 204 200 203 207 202 200 204 201 199 189 188 182 180 182 171 178 159 146 134 137 124 140 156 140 112 114 82 46 47 74 31 36 45 57 80 106 120 125 138 150 155 161 164 166 166 166 181 182 180 181 186 191 195 194 190 192 193 193 200 196 203 203 202 207 205 208 206 203 205 207 208 212 208 205 206 210 207 199 204 205 203 203 204 204 206 208 208 205 204 206 207 205 202 200 203 206 204 203 204 202 199 188 186 184 183 183 169 169 160 137 106 106 99 107 116 130 110 113 101 62 39 42 39 39 46 58 77 108 120 129 140 152 154 163 169 162 165 167 170 176 180 184 187 187 191 196 190 194 195 194 197 193 194 195 202 204 201 206 209 205 203 203 207 208 205 205 203 204 203 199 201 200 199 200 206 208 208 207 212 210 210 206 206 207 203 205 202 203 201 200 203 199 196 188 182 184 183 175 170 159 152 140 111 85 69 66 61 88 109 94 101 92 46 40 37 46 45 56 86 113 119 127 138 150 155 163 169 162 156 170 177 179 181 184 190 190 192 192 192 193 198 198 197 196 193 195 199 203 203 205 206 208 205 209 203 202 200 201 203 202 201 201 204 201 201 204 209 212 211 209 210 211 213 210 206 205 202 204 200 201 200 201 200 197 192 185 184 181 178 174 174 165 153 133 117 87 60 64 66 74 113 98 79 84 62 44 32 37 40 61 89 114 119 128 140 149 159 166 169 159 162 164 174 174 184 190 190 183 186 196 194 192 195 193 193 197 196 198 198 200 200 201 202 205 205 207 203 199 200 200 202 203 203 202 203 205 208 205 209 210 213 212 209 209 211 213 206 207 201 204 202 200 198 200 201 197 189 185 180 181 180 170 171 165 160 142 131 98 67 65 61 77 108 126 90 91 81 51 36 36 44 68 97 116 123 128 137 149 161 166 164 160 164 170 172 174 183 194 188 184 187 195 193 197 196 193 195 196 193 196 202 201 202 201 203 201 202 207 205 198 199 201 201 203 200 200 209 210 214 212 211 214 213 210 211 208 206 208 206 208 204 204 203 201 200 198 198 195 188 183 178 181 178 170 179 176 165 155 140 115 78 69 72 66 94 130 86 85 86 70 36 39 45 69 106 114 121 124 128 146 160 159 164 162 165 171 169 176 175 187 194 196 194 195 197 198 198 198 204 201 197 200 207 206 203 204 206 200 203 209 206 203 203 201 203 204 200 204 213 209 211 216 215 218 212 213 210 209 212 208 206 204 202 204 204 203 201 197 193 191 185 180 181 178 178 174 178 178 171 156 141 121 86 58 83 89 82 129 103 83 89 89 34 41 45 77 111 113 121 125 129 145 156 163 160 154 159 164 170 175 181 186 194 198 197 198 201 197 197 205 207 205 201 203 207 214 206 200 205 204 207 207 204 204 207 204 206 204 205 208 216 216 213 214 213 214 207 212 218 213 208 208 206 205 207 205 204 205 200 196 196 194 189 182 181 183 181 180 176 172 172 166 164 136 106 93 71 106 98 116 110 84 89 86 37 42 45 86 110 113 118 119 125 139 150 164 160 158 161 166 170 173 177 182 189 197 196 193 198 199 202 206 206 202 204 209 218 217 207 202 207 208 211 209 208 204 208 207 208 207 211 208 216 211 211 212 214 218 212 213 213 208 211 211 204 196 205 205 204 200 198 197 197 194 188 181 180 179 180 178 167 168 168 163 171 151 114 99 98 67 81 115 116 97 96 97 48 30 38 92 109 114 122 120 124 136 145 156 163 159 164 172 170 170 178 185 186 195 197 196 199 198 199 201 203 202 208 215 224 216 207 203 209 212 210 208 205 200 205 212 209 207 212 210 214 214 212 212 211 215 212 213 212 206 206 206 203 200 199 196 198 201 201 199 194 190 185 179 178 179 179 178 169 173 171 163 176 160 115 95 79 62 61 110 120 91 91 98 52 25 38 90 109 110 116 114 123 140 150 159 168 159 167 176 175 179 178 188 182 193 198 199 196 198 197 193 198 200 207 210 217 207 205 203 211 213 208 208 203 199 203 213 207 206 211 209 212 213 215 214 212 212 212 213 212 203 201 197 197 197 189 186 189 194 197 198 196 192 186 179 175 176 175 175 175 180 172 162 167 164 123 79 79 59 69 97 121 83 80 104 51 26 41 89 104 105 115 116 132 150 154 155 164 166 168 175 169 182 183 193 184 189 196 195 197 199 203 197 196 201 205 207 215 203 201 205 210 210 203 206 202 199 200 209 206 206 211 204 199 196 204 211 211 205 198 193 178 173 175 174 165 174 177 177 170 165 181 195 197 193 192 184 175 176 176 172 173 175 168 162 168 160 124 67 67 69 64 105 124 87 65 104 51 28 39 86 100 106 113 108 139 155 155 158 164 157 152 154 152 159 161 173 175 188 185 183 181 187 200 197 189 197 202 208 205 199 199 204 203 208 200 205 204 201 203 207 199 203 207 198 180 177 172 153 143 153 159 154 150 155 149 144 141 152 158 158 171 162 161 163 181 184 190 188 173 167 176 174 167 169 167 164 163 160 132 66 58 75 68 122 123 83 54 90 53 36 40 78 104 102 108 119 147 156 148 143 139 133 131 127 129 130 125 131 143 147 144 147 152 160 179 192 188 198 202 192 199 194 198 203 197 206 201 204 202 197 199 197 199 197 187 179 177 170 145 130 124 129 127 125 120 117 120 128 132 134 134 135 143 143 150 142 148 164 170 170 181 170 163 168 165 164 164 159 164 159 125 78 66 79 95 132 131 86 65 74 61 45 41 71 106 100 114 122 131 131 120 119 119 112 111 105 101 102 93 99 101 100 112 123 131 149 154 164 174 183 191 193 193 193 198 197 194 201 199 202 199 196 192 191 189 183 170 165 172 149 124 128 118 98 90 95 96 101 101 100 99 98 98 113 125 109 120 122 130 141 154 149 162 170 161 163 163 159 160 161 161 146 117 77 76 92 113 122 133 84 61 72 50 41 39 58 102 104 108 97 106 107 111 114 117 103 95 85 78 79 78 85 88 94 97 100 110 126 132 149 160 178 178 175 181 186 193 188 191 192 194 199 200 200 190 187 175 171 174 173 165 136 119 106 95 86 90 93 86 78 77 85 96 104 116 125 118 115 118 120 122 116 128 137 139 156 163 157 159 156 161 156 142 133 110 78 72 98 89 104 121 80 53 70 39 54 30 48 103 94 87 89 97 104 104 96 89 77 67 64 63 65 71 73 69 70 75 78 94 116 129 119 140 165 161 170 174 181 178 178 185 185 189 194 197 197 185 181 176 166 166 161 136 123 119 106 94 92 94 92 94 106 118 132 152 159 163 169 165 162 158 154 149 150 146 138 141 143 147 152 156 156 150 143 144 142 104 75 90 47 107 107 109 75 51 59 50 59 23 48 105 94 89 90 83 79 69 76 87 78 70 66 72 73 69 67 70 65 72 76 86 98 103 106 112 135 147 155 162 161 163 163 169 170 177 185 183 183 174 168 163 157 147 134 123 117 112 106 113 115 119 126 131 147 163 174 179 182 182 181 184 177 174 168 169 167 164 158 160 152 142 149 160 159 141 145 147 124 91 76 59 51 98 105 94 66 55 51 58 46 27 48 96 98 96 104 94 93 87 91 96 101 99 98 99 102 91 81 91 84 80 81 82 80 76 85 92 102 118 126 138 137 149 155 161 170 174 176 178 173 166 162 154 147 130 119 114 124 130 137 147 150 148 147 153 154 149 153 157 168 178 175 187 181 180 174 172 163 163 163 153 149 154 159 160 155 138 145 143 107 84 60 51 68 67 106 86 54 47 45 58 37 32 52 93 91 89 97 109 104 93 98 98 104 115 124 125 144 136 129 139 134 113 106 105 98 94 92 86 88 90 101 115 120 130 145 151 175 185 192 185 174 164 159 149 141 132 129 135 142 143 147 150 146 125 88 79 81 96 103 106 114 139 110 112 122 158 175 171 169 170 157 157 166 169 164 157 155 150 141 137 103 71 44 52 53 67 101 84 45 46 43 56 28 41 52 89 94 93 98 102 102 100 98 121 137 132 140 135 133 129 117 112 110 116 124 121 122 119 114 99 94 89 90 98 110 127 140 161 183 193 207 206 195 179 162 151 144 143 141 140 151 152 153 130 107 77 96 103 95 67 59 59 59 56 76 105 130 109 109 149 163 165 161 167 169 168 171 165 161 156 141 143 101 68 53 45 57 66 97 84 43 44 32 45 36 57 50 83 98 96 99 110 104 98 115 125 105 85 63 63 54 50 72 77 86 79 63 86 115 126 130 126 115 105 94 97 106 123 139 162 188 199 210 211 200 190 179 164 149 150 145 145 140 133 132 111 108 111 101 80 37 74 64 58 108 76 60 125 88 98 114 94 105 163 163 164 166 170 173 164 163 160 144 150 108 66 57 41 61 65 82 77 40 37 26 38 44 51 47 73 99 97 97 104 99 102 105 73 77 74 62 35 38 46 41 46 50 92 115 100 77 103 127 141 132 121 111 96 103 117 133 157 192 201 207 210 197 184 179 162 154 154 148 144 141 143 135 115 120 109 91 133 52 127 53 33 243 120 68 140 173 100 76 118 105 87 162 165 168 166 171 162 165 163 152 154 130 81 59 41 62 72 71 75 42 36 29 44 42 42 49 60 95 98 96 105 104 104 64 75 65 67 91 60 121 51 48 171 93 84 89 103 127 92 97 126 132 122 121 114 116 119 121 154 188 198 203 207 197 182 174 170 170 159 155 146 141 130 122 120 108 91 167 184 78 114 127 62 102 113 70 177 172 161 99 83 120 122 120 149 164 160 169 168 163 167 156 150 144 107 65 39 56 78 58 73 41 30 32 42 34 28 45 64 96 98 98 109 103 85 56 65 64 113 92 70 100 94 23 160 119 124 208 148 93 119 112 110 110 119 122 116 116 121 123 154 183 190 200 202 195 183 176 172 180 171 174 152 137 143 128 111 100 143 196 210 123 97 138 125 127 93 107 198 185 167 129 122 108 120 140 138 156 162 167 169 165 166 162 154 153 133 74 64 65 71 59 66 48 23 25 43 34 29 47 57 95 99 96 105 93 81 72 65 76 137 116 68 116 112 81 114 71 168 221 214 155 92 89 109 140 153 139 136 123 127 126 154 183 190 191 192 190 178 172 177 186 186 200 185 178 137 123 139 121 145 176 187 207 113 98 95 62 120 203 204 190 165 157 135 117 126 136 142 152 161 167 168 169 165 167 162 159 146 96 58 54 76 62 54 54 27 20 56 44 36 35 42 90 101 95 100 92 89 78 86 101 136 159 74 83 105 119 96 113 225 218 218 190 179 116 106 111 165 174 156 129 128 129 148 177 181 174 182 181 175 170 174 175 177 186 200 187 164 150 141 148 148 141 165 165 171 159 155 187 191 188 175 159 156 148 141 146 154 149 142 143 154 169 170 173 167 164 165 163 161 104 65 40 66 68 57 55 35 22 86 69 51 37 36 84 104 96 103 101 93 82 97 141 145 169 178 111 75 91 142 204 199 180 159 150 141 152 155 164 173 185 149 133 127 126 151 170 171 168 177 174 172 170 174 178 178 176 183 186 165 169 156 151 141 141 145 153 156 154 172 163 142 186 164 159 154 144 147 161 171 174 162 158 161 175 172 174 169 165 168 164 162 126 68 50 64 58 52 46 49 31 68 66 72 60 38 72 102 99 103 100 95 91 98 131 153 157 151 166 162 148 167 151 160 163 162 157 160 173 173 173 175 167 139 134 130 134 153 175 171 170 177 176 173 167 175 177 177 176 183 180 167 170 162 150 147 154 159 168 167 171 180 170 169 176 172 167 157 160 170 177 180 184 181 178 175 179 173 179 177 168 167 166 161 130 66 60 64 66 40 44 34 51 64 51 46 52 51 64 100 104 109 113 112 104 101 108 136 133 150 141 148 149 160 156 150 162 155 148 154 160 166 169 177 153 143 138 126 128 155 170 169 176 177 178 177 171 174 177 175 177 183 182 177 169 173 168 157 153 163 168 164 164 173 165 171 169 168 166 163 170 171 175 182 186 185 187 188 184 182 185 181 174 169 167 162 140 60 84 71 62 44 38 27 41 65 52 34 54 52 61 104 109 118 125 123 109 111 108 124 134 137 146 152 156 169 167 167 159 160 161 166 169 184 186 170 148 144 133 130 129 155 169 175 182 181 180 178 173 173 176 174 182 177 182 182 176 182 185 180 178 179 184 174 166 172 174 168 171 168 172 172 182 185 182 187 191 186 183 192 189 186 186 184 179 172 167 163 149 72 116 101 63 51 39 36 40 71 58 43 51 47 62 107 113 122 130 126 113 116 107 115 119 126 135 143 149 146 155 170 186 162 170 185 189 187 177 160 151 146 133 129 132 158 173 183 185 183 184 178 173 175 177 178 183 185 184 188 189 186 191 190 195 191 198 202 205 196 192 187 182 178 179 182 180 180 186 191 193 191 190 195 193 191 187 183 179 172 169 166 159 90 137 120 63 52 43 40 44 72 59 47 59 36 60 108 118 132 134 130 125 122 119 124 127 137 140 148 162 168 177 178 177 178 177 188 194 183 167 154 149 147 135 131 138 159 173 180 182 180 179 173 170 174 178 184 183 190 187 187 191 193 192 190 192 194 203 204 209 212 210 201 194 192 191 191 189 188 190 193 191 195 198 195 193 191 189 184 179 172 169 164 157 80 143 124 52 47 51 63 76 60 66 58 64 26 56 110 126 139 142 137 129 130 129 125 132 141 148 158 166 178 177 173 178 177 178 185 193 178 159 152 150 139 133 130 144 158 172 180 180 179 176 173 172 177 177 185 184 191 193 188 191 199 201 201 194 195 198 196 202 206 208 204 198 195 192 191 193 193 193 194 195 202 204 198 193 191 190 184 180 175 170 166 156 82 137 118 44 51 52 72 90 54 54 64 59 30 60 114 132 139 149 147 140 139 142 141 144 151 162 170 174 177 177 181 175 179 186 185 180 171 153 149 148 134 131 139 146 166 176 177 175 173 171 170 174 174 176 182 185 184 188 189 193 200 202 210 204 200 200 194 199 202 202 200 198 195 192 197 202 199 200 200 201 202 203 201 197 192 187 182 179 177 168 162 156 104 123 103 46 49 53 68 86 81 34 68 50 35 64 116 131 150 155 154 154 152 136 138 152 156 166 171 175 177 180 177 176 175 185 189 176 160 152 147 142 137 135 144 159 166 172 176 176 175 172 168 174 173 178 180 180 191 182 191 192 199 202 209 207 209 205 201 199 201 203 203 202 202 203 203 207 203 205 204 204 204 198 203 198 192 185 184 178 175 172 165 157 123 96 94 44 45 56 84 95 188 57 66 61 40 61 121 132 153 160 167 168 165 160 150 158 160 164 170 177 183 178 168 167 178 185 185 174 153 148 142 138 134 139 152 167 170 175 178 178 177 176 169 166 173 176 180 180 184 185 186 193 202 204 204 211 215 212 207 202 200 201 202 203 207 210 208 211 212 212 212 211 210 205 204 198 192 184 184 179 175 170 166 154 128 107 91 51 33 44 65 105 209 176 67 61 37 63 117 132 151 162 172 174 172 168 167 167 167 165 171 179 179 176 170 175 185 185 181 174 146 142 134 131 131 141 159 170 178 180 180 176 184 177 172 169 171 172 177 180 173 178 179 191 198 208 205 204 209 206 207 210 211 210 210 208 208 211 213 213 212 213 213 211 205 201 198 195 191 182 183 182 177 168 163 143 128 119 77 58 33 47 59 83 230 227 144 66 43 62 114 133 153 161 176 182 179 178 174 172 173 167 171 174 171 179 180 184 184 179 178 167 145 142 133 132 127 145 169 177 176 184 189 192 192 183 177 171 171 169 174 179 176 174 182 192 195 203 203 207 213 210 206 205 206 210 208 202 209 214 216 214 218 216 213 216 208 203 194 190 188 183 179 179 178 169 160 140 119 111 64 55 34 45 68 76 231 220 212 61 51 60 114 130 149 156 171 185 182 188 181 180 186 168 179 184 181 186 183 180 180 183 176 161 149 140 127 127 130 148 169 178 181 183 196 205 206 194 188 169 171 168 173 176 175 175 178 195 195 193 203 202 207 210 209 211 214 217 205 195 211 220 218 219 218 214 213 214 208 204 193 188 185 183 173 177 173 170 158 145 105 104 64 49 39 32 75 88 234 229 211 64 54 60 111 127 142 153 169 181 187 187 187 188 184 190 192 191 190 190 186 178 182 183 166 154 142 137 125 122 127 162 188 190 185 190 201 215 223 204 188 176 170 163 170 165 168 171 172 192 197 197 205 205 210 212 205 203 207 207 202 195 204 213 217 218 216 214 210 205 203 202 193 190 185 185 177 174 173 167 154 146 101 103 57 54 46 38 51 68 234 231 224 76 61 50 104 122 142 148 158 172 180 186 193 187 197 186 193 197 191 190 188 179 179 178 171 159 139 138 127 119 125 159 187 192 193 198 198 202 208 196 179 174 165 168 173 179 181 178 169 183 200 204 200 201 204 211 211 211 215 213 212 212 213 214 214 214 213 211 208 207 203 198 191 184 178 177 176 172 172 167 150 145 97 98 54 52 59 50 67 74 233 230 233 88 63 44 99 118 133 144 153 167 180 179 181 196 195 188 193 192 188 185 186 179 182 182 173 155 138 135 124 112 123 139 160 172 177 183 186 188 179 172 161 162 167 169 178 177 177 180 175 178 192 209 207 206 209 213 212 206 210 209 208 212 210 210 213 212 211 213 209 204 199 194 187 181 182 173 177 177 171 169 151 147 98 86 61 55 64 71 78 113 234 235 215 126 78 47 97 113 124 135 145 157 172 177 174 187 188 189 189 185 182 185 185 179 180 177 167 158 142 129 121 104 102 109 137 144 151 162 170 174 162 160 154 157 154 152 172 170 165 176 174 172 188 206 210 209 207 213 207 213 211 212 210 211 210 211 209 209 211 210 205 202 198 190 185 190 180 169 172 171 168 166 147 137 96 78 64 54 66 115 143 93 238 232 230 179 70 57 75 113 122 135 144 152 156 170 174 185 187 188 186 180 184 186 186 182 179 177 162 158 137 120 111 99 98 96 106 117 131 151 155 153 151 147 145 139 141 125 149 161 170 178 178 178 179 196 209 211 212 214 213 206 205 211 210 213 213 207 207 204 202 206 205 202 197 189 187 185 177 172 172 170 163 159 152 139 97 86 70 62 67 118 179 161 233 233 233 228 70 53 60 114 117 131 141 149 158 170 172 185 186 191 188 188 185 185 184 183 172 175 160 147 124 117 107 86 71 84 98 93 100 123 131 131 138 135 63 15 5 12 29 103 148 168 170 171 179 196 211 210 213 214 216 208 211 208 209 214 214 210 203 201 200 199 200 198 191 182 179 177 172 172 169 170 166 162 159 143 105 104 84 77 76 119 138 157 234 229 228 232 130 54 63 106 118 124 138 153 158 169 167 176 181 188 185 186 186 183 181 178 162 166 160 144 122 114 85 41 16 4 19 70 88 92 96 111 118 63 49 47 20 12 21 45 117 156 166 167 182 193 200 201 206 212 207 208 209 207 208 212 209 206 205 205 202 198 197 197 193 186 180 173 171 173 168 166 165 164 164 136 106 123 99 117 92 108 114 113 233 232 236 231 176 51 64 93 111 120 129 143 151 164 168 173 178 184 184 186 184 183 182 179 170 167 155 139 119 115 97 53 41 21 24 17 66 92 89 102 118 114 101 114 45 28 67 90 102 142 157 158 186 196 203 205 206 206 208 210 207 210 209 211 211 206 205 204 199 193 190 191 187 187 180 172 174 173 163 163 156 162 160 142 123 126 123 111 108 95 99 139 231 233 235 228 199 72 66 84 111 120 121 130 144 158 162 168 171 178 181 180 174 184 181 179 168 163 150 135 121 113 110 83 66 57 28 38 83 86 86 87 112 129 138 156 150 134 151 133 114 130 135 150 190 201 204 202 205 202 203 207 207 205 204 208 204 201 202 202 198 195 191 189 187 184 180 179 177 172 167 166 163 162 160 152 130 142 155 115 94 97 126 140 229 234 235 231 231 120 83 77 108 118 118 125 141 155 158 163 166 175 178 178 174 180 177 181 169 160 146 130 123 112 118 109 93 94 82 103 107 94 94 95 116 133 144 161 190 188 180 159 132 121 124 183 199 206 203 197 200 198 201 206 202 205 205 207 206 201 199 201 199 196 191 188 187 182 178 173 174 174 168 168 167 163 161 157 139 144 159 168 167 166 175 166 235 236 234 235 225 157 110 93 100 113 113 118 133 151 152 160 165 173 175 177 176 178 176 172 166 156 145 132 128 118 110 112 112 120 131 139 127 125 125 126 149 177 181 185 179 179 178 162 130 129 166 196 199 203 204 205 200 198 198 201 201 202 203 204 204 201 199 198 194 193 190 187 181 181 174 169 175 174 170 170 170 167 162 154 151 152 157 157 175 185 185 177 232 234 234 235 227 196 99 121 99 109 112 122 123 140 151 156 162 173 173 175 173 171 173 174 170 158 152 142 129 126 116 101 120 127 134 143 152 165 168 157 178 200 194 200 191 187 179 181 175 185 189 190 194 196 201 203 198 202 196 196 203 204 204 206 205 203 197 193 199 188 185 184 183 177 174 178 177 176 171 168 170 166 164 154 152 159 161 173 177 181 186 192 233 235 235 232 231 224 117 128 102 103 108 121 120 128 145 144 159 167 171 166 170 174 175 174 175 166 155 155 154 148 142 139 141 139 148 162 164 185 197 194 185 190 189 196 190 187 185 182 178 187 189 191 192 194 195 194 191 195 195 200 204 204 205 207 203 199 194 193 195 187 185 181 182 178 175 176 173 171 172 170 171 170 165 157 154 164 170 186 190 194 192 198 232 233 233 234 233 233 126 131 110 100 103 117 120 125 138 140 153 162 173 170 167 176 175 173 169 162 166 165 161 162 162 162 155 143 155 163 169 183 194 192 192 183 187 190 196 186 184 183 177 184 186 187 187 190 192 190 195 192 190 196 198 200 202 200 199 197 195 195 191 186 186 179 180 177 176 178 175 172 173 173 172 172 169 157 153 168 182 191 196 200 201 201 232 233 233 231 237 235 123 135 114 99 102 112 113 123 133 151 157 164 164 160 166 178 175 170 168 166 169 171 167 163 161 161 164 151 163 164 168 174 185 186 193 185 187 186 190 189 178 176 175 183 186 187 183 186 195 193 188 190 191 197 193 199 199 193 196 196 193 194 185 184 188 177 181 177 173 176 174 177 179 178 170 169 170 163 150 153 197 188 190 194 198 196 234 235 235 235 233 230 127 124 114 98 110 110 122 121 128 139 149 154 161 166 165 169 171 171 167 173 175 167 165 165 161 164 153 158 157 165 169 185 187 192 195 190 177 185 185 182 180 176 172 177 184 184 184 183 187 193 191 187 189 188 189 195 191 197 201 207 201 187 185 179 179 181 174 169 174 180 172 175 179 172 177 163 161 161 147 157 197 191 191 193 196 200 234 234 234 234 230 228 116 137 127 97 106 109 110 118 122 133 143 153 159 162 159 167 170 169 165 169 169 171 165 162 155 162 148 154 165 162 176 186 181 195 194 182 182 188 188 181 178 180 181 180 183 186 178 179 183 185 190 184 187 190 190 194 187 189 196 198 187 183 186 181 179 179 173 172 174 172 170 173 174 172 177 166 164 160 150 159 188 192 187 192 188 190 235 235 234 235 229 236 129 136 130 101 108 104 110 117 121 131 147 143 158 162 159 162 164 163 170 170 165 159 168 164 155 165 152 161 167 169 182 192 184 194 189 181 183 184 198 190 186 189 183 180 181 185 178 179 183 181 179 177 178 183 189 192 191 183 189 192 185 185 185 178 175 177 170 170 173 168 173 169 165 165 173 167 162 162 149 156 175 175 175 173 172 163 234 235 234 235 233 231 176 123 132 103 105 107 106 109 116 127 141 144 155 159 155 155 159 165 163 160 167 165 156 158 149 162 155 162 169 177 181 189 185 190 193 187 180 192 195 197 186 186 188 187 182 183 178 175 183 181 179 181 182 180 181 181 183 153 153 182 187 186 183 172 171 175 171 171 171 166 174 167 168 174 175 162 161 163 145 153 154 147 147 149 139 120 233 233 233 232 234 232 210 111 126 100 99 110 106 108 111 121 131 146 147 151 149 151 161 160 154 154 158 157 161 160 160 161 156 158 173 182 188 192 194 191 189 188 194 194 199 194 190 185 189 192 193 185 182 187 189 190 180 170 180 185 179 179 175 163 153 176 187 180 176 169 167 172 168 169 169 173 166 176 173 175 172 163 163 162 152 170 75 35 43 34 38 37 233 234 234 231 231 234 237 165 109 97 107 105 106 106 109 116 123 139 144 144 149 149 152 161 144 167 161 154 162 159 159 161 167 172 178 176 189 190 194 196 186 192 187 187 178 164 167 180 167 166 166 175 185 189 196 189 178 178 173 178 185 184 175 175 167 178 180 179 180 174 169 170 169 166 167 171 170 173 184 178 174 163 167 152 150 166 43 16 24 18 37 47 234 235 233 232 234 234 225 233 171 106 110 105 103 102 104 110 122 135 142 137 145 145 159 155 158 163 164 153 157 163 168 166 159 157 152 144 156 161 162 164 164 161 139 125 129 134 144 156 150 154 149 139 143 166 181 181 170 171 167 178 181 183 180 173 166 177 174 174 181 176 169 168 168 169 166 178 168 180 178 176 171 165 168 145 155 158 33 19 30 29 52 63 232 233 234 236 236 232 227 208 213 151 108 110 106 104 103 107 119 126 133 125 132 135 149 158 160 157 156 150 157 151 143 131 133 135 127 111 115 122 117 106 114 107 112 116 123 139 142 145 134 136 137 144 131 133 132 156 179 165 161 174 175 181 179 179 166 173 176 181 177 172 165 166 165 164 167 177 173 176 180 173 173 173 171 152 150 149 37 40 43 37 57 74 234 233 233 232 235 232 235 138 121 138 98 117 110 109 100 99 113 118 125 126 135 139 151 155 160 155 148 143 148 128 115 115 127 125 133 121 126 105 115 89 105 94 93 107 104 126 118 120 107 103 116 124 123 129 117 145 159 157 157 163 166 176 184 181 172 171 172 175 175 172 167 164 167 170 173 175 178 177 177 177 173 171 167 157 153 147 36 44 51 49 113 160 234 233 234 232 235 236 228 140 47 66 108 106 112 111 103 101 106 110 115 117 127 136 147 161 156 141 126 130 119 117 103 100 90 97 91 92 96 78 84 79 58 37 58 74 59 74 72 67 65 65 93 114 129 119 121 108 104 114 127 152 156 167 177 182 173 168 171 174 170 164 164 164 164 169 172 179 180 177 173 177 166 165 162 148 151 153 43 46 52 61 142 174 234 234 233 234 235 234 227 215 76 52 102 103 118 115 107 102 103 107 110 119 124 130 151 155 151 149 128 105 89 90 94 83 60 38 57 65 70 82 88 105 106 97 121 125 121 122 122 119 117 110 95 72 79 75 109 99 77 62 84 127 152 168 174 179 168 168 171 173 170 168 168 167 172 178 178 183 183 178 175 175 166 159 158 154 153 151 53 50 57 80 175 179 234 234 234 234 232 230 233 224 133 54 90 111 120 114 109 106 102 104 103 113 127 130 139 150 146 135 112 80 71 74 83 63 49 71 93 126 127 146 155 151 146 153 154 151 138 149 143 144 148 151 154 143 122 103 96 109 139 159 155 148 160 166 172 176 173 175 175 175 170 166 169 171 178 184 183 183 181 183 182 181 166 162 159 155 156 148 54 45 59 112 92 184 233 234 234 232 235 234 233 230 236 196 97 111 116 123 113 113 99 101 104 109 117 138 141 139 124 99 81 54 54 74 61 70 105 120 129 144 145 154 153 149 155 158 160 160 157 161 165 165 163 157 155 152 149 160 174 189 180 186 186 181 177 171 171 176 179 174 173 178 174 164 173 176 175 180 182 181 182 181 176 177 166 154 159 148 156 157 54 56 60 66 155 231 235 234 234 234 234 234 232 232 229 235 179 106 115 128 118 118 107 102 106 111 114 136 146 151 142 132 122 114 112 116 119 123 121 133 131 146 148 148 150 151 165 163 166 169 170 174 183 183 185 182 184 181 178 182 178 186 184 191 193 190 184 175 172 176 180 174 169 173 172 167 174 180 181 182 182 183 184 183 178 175 170 164 154 150 141 158 56 62 53 124 216 229 232 234 234 233 233 231 235 232 239 217 200 100 110 126 117 116 114 104 105 107 116 130 142 146 161 160 150 153 151 146 135 143 137 155 151 159 163 166 165 162 170 165 167 174 166 172 181 181 178 181 183 182 180 186 186 190 188 190 192 188 184 182 176 174 177 175 171 173 171 173 175 179 184 186 181 179 180 178 176 174 162 156 152 153 137 162 61 48 57 85 204 231 234 234 233 234 232 233 235 233 227 205 210 99 114 123 125 124 119 109 103 109 107 123 141 150 154 158 148 150 154 148 145 137 146 159 151 150 151 148 145 143 140 135 139 144 144 154 161 170 173 176 180 179 182 189 184 192 188 189 192 192 189 182 179 177 177 177 175 171 164 165 174 185 182 181 180 178 178 175 176 176 159 147 149 149 145 168 68 62 56 187 226 230 232 234 234 231 234 234 232 234 228 213 135 99 117 127 126 126 121 119 102 105 112 121 142 144 153 155 147 144 150 151 152 147 142 144 149 147 142 140 140 135 129 143 140 146 158 162 163 170 174 175 180 185 185 192 190 188 189 188 192 192 184 179 182 181 176 174 175 174 169 177 184 183 179 182 174 174 177 178 171 165 155 146 148 148 139 172 73 58 163 236 231 235 233 234 234 233 235 234 234 233 236 227 199 106 110 124 129 124 126 122 109 106 115 122 137 150 145 146 140 140 143 147 158 152 151 152 149 156 157 158 160 160 150 158 154 155 160 163 163 166 170 172 175 176 180 183 184 187 186 185 190 193 188 188 184 180 177 168 168 171 173 181 183 181 177 180 179 178 183 176 167 154 158 146 148 133 150 169 128 155 214 239 231 233 233 234 234 232 234 234 234 234 233 234 224 166 94 116 130 129 129 123 116 106 115 123 136 143 145 150 146 140 142 147 146 149 150 158 155 155 159 159 163 165 154 153 157 161 162 163 167 172 176 179 177 179 180 177 178 181 185 188 188 189 189 186 183 179 172 172 178 173 171 175 179 181 178 181 181 180 174 170 163 155 150 148 143 116 162 161 165 193 232 231 232 234 232 234 234 231 235 235 235 233 239 229 233 226 111 102 126 126 127 121 119 105 113 116 135 145 147 149 143 140 143 146 155 160 156 164 165 161 166 164 168 172 162 160 163 162 169 164 172 177 178 180 179 176 184 182 184 188 186 182 183 190 189 187 179 171 171 178 180 176 174 175 180 182 178 173 179 178 173 169 166 161 145 148 128 127 166 165 196 231 232 233 233 235 234 231 231 234 232 233 234 234 233 233 232 232 180 98 114 126 121 123 119 111 110 111 125 142 140 142 139 140 148 147 147 147 152 160 165 167 173 167 169 164 168 165 168 166 162 167 168 172 176 179 180 177 180 185 181 178 180 180 186 186 184 181 174 170 175 179 175 175 172 172 175 182 176 169 176 177 170 162 155 150 145 137 117 143 166 159 220 231 231 234 233 233 234 232 232 234 233 232 231 233 232 234 233 232 228 89 115 127 125 126 122 111 107 109 115 131 137 140 137 135 140 141 146 152 153 160 161 161 171 169 170 168 170 166 170 168 168 170 172 173 174 177 176 178 180 183 179 181 184 185 184 182 184 182 173 174 177 178 178 176 172 169 173 174 177 168 175 170 166 163 156 138 147 116 117 154 166 157 221 233 234 233 232 233 234 232 232 234 233 232 232 232 231 233 233 232 241 129 105 120 122 123 121 114 108 110 115 129 136 132 131 136 132 138 142 141 145 153 157 160 166 170 170 173 176 174 175 177 169 171 176 177 186 191 183 189 186 187 185 184 185 185 179 179 177 174 180 183 180 177 178 174 170 172 176 174 179 170 163 161 162 157 140 133 127 106 133 161 168 158 222 233 234 233 231 233 233 231 231 234 233 233 233 234 230 233 234 233 230 221 79 121 115 115 119 118 110 108 115 122 130 132 130 132 132 135 141 143 146 156 160 164 166 170 167 171 166 164 165 166 177 179 187 187 184 175 184 188 186 189 192 186 189 184 178 176 179 177 180 188 181 178 175 170 172 174 175 173 177 175 156 152 154 150 139 128 107 117 156 165 171 160 222 231 232 233 232 234 234 234 233 234 235 234 233 233 235 234 232 234 235 235 149 97 118 119 120 118 109 105 107 117 121 123 135 135 133 143 145 149 149 157 164 167 169 176 179 189 190 179 185 198 203 202 207 199 190 187 192 191 193 193 193 193 190 186 180 179 174 178 179 179 182 171 169 175 173 175 169 173 165 165 157 158 149 144 130 108 99 139 159 167 167 160 228 235 235 235 234 234 234 233 233 234 234 234 234 234 233 234 235 233 231 237 230 91 115 112 118 118 112 102 104 116 117 121 124 137 137 142 146 156 159 162 168 173 171 182 191 197 198 190 194 206 204 207 208 205 199 200 199 197 199 197 199 199 193 192 186 182 180 187 185 177 175 172 172 170 170 172 169 168 167 156 145 143 133 121 106 94 131 153 166 170 169 162 228 234 235 234 235 234 234 234 234 235 235 234 234 234 233 234 234 233 236 229 237 182 94 108 117 114 108 99 109 122 125 123 129 130 140 144 149 158 159 161 169 178 182 183 188 194 197 196 198 204 205 205 204 198 199 197 200 204 205 208 201 193 191 187 185 183 181 183 179 175 171 174 173 170 171 161 160 160 153 146 147 134 123 102 107 128 155 161 167 171 171 158 229 234 235 235 235 234 234 234 232 232 234 235 234 234 234 234 233 235 232 233 231 239 123 95 111 117 115 104 110 113 127 127 130 129 136 145 154 166 174 181 186 184 179 184 188 189 189 197 200 203 200 201 207 198 198 194 193 197 200 202 196 190 188 187 187 180 174 172 176 171 167 174 171 165 168 156 156 155 144 127 130 122 111 102 130 150 158 162 163 170 170 154 233 234 235 235 235 234 235 233 235 235 233 234 234 234 232 233 233 232 235 234 234 232 215 91 107 108 112 106 109 116 118 130 132 134 141 149 165 171 175 183 180 178 174 183 190 193 195 194 201 201 198 195 195 201 200 196 196 195 195 195 196 186 184 183 176 174 171 171 174 168 165 171 160 155 154 152 145 142 132 124 109 104 103 123 148 158 163 166 168 173 163 158 231 233 232 233 233 234 233 233 232 232 234 234 234 235 233 234 234 233 235 235 234 232 238 182 79 108 106 102 106 116 116 126 128 130 145 151 161 165 168 177 177 175 179 184 197 197 198 195 198 198 198 198 197 204 207 203 202 198 198 193 183 185 184 175 181 174 167 172 165 158 153 163 145 145 142 137 132 132 108 110 95 111 132 148 155 166 170 174 175 173 166 160 234 235 235 234 232 232 233 232 233 234 234 234 234 234 233 234 234 233 235 235 234 232 230 220 85 92 101 101 100 105 118 120 132 132 141 152 159 164 166 175 170 166 178 188 201 195 196 198 197 194 198 198 198 204 197 201 201 191 189 190 182 171 173 160 168 167 159 171 165 153 146 149 140 139 128 127 119 110 96 103 105 124 138 157 163 168 170 175 175 170 168 161 236 235 235 234 232 233 230 232 232 232 234 234 234 234 233 232 233 231 235 235 234 231 235 216 101 83 87 95 96 101 110 105 123 116 127 148 158 162 153 167 174 180 180 189 200 200 195 191 186 189 187 186 186 192 189 191 198 193 185 185 170 165 162 158 154 158 152 159 150 133 144 130 132 123 114 119 101 85 94 103 120 143 150 160 169 174 173 179 178 167 167 160 236 231 232 234 233 234 233 234 234 234 234 234 234 234 232 235 235 235 232 232 234 232 234 226 92 115 88 84 94 91 95 103 106 109 118 132 145 148 147 152 168 183 176 183 187 190 190 187 186 180 174 181 182 178 184 188 181 177 170 161 163 164 155 149 148 145 148 147 139 134 121 124 119 113 110 94 87 92 97 117 143 151 161 168 172 176 177 178 176 174 166 153 234 233 232 234 233 234 234 233 234 234 234 234 234 234 233 234 235 233 234 234 234 233 235 232 98 118 124 95 83 82 90 96 105 102 111 125 134 134 135 141 159 155 170 176 184 182 184 184 179 176 169 172 171 170 171 167 173 165 162 149 154 153 138 140 141 132 141 133 130 116 110 109 104 93 90 84 88 98 112 131 148 154 167 172 173 179 182 180 176 173 166 153 236 233 233 234 233 234 233 233 234 234 234 234 234 234 233 234 234 232 234 234 234 234 233 233 102 118 117 123 99 71 82 87 99 100 108 108 115 122 130 129 149 158 157 159 167 170 175 174 174 176 162 160 155 155 158 154 153 145 148 141 146 130 126 133 145 130 122 117 109 104 95 91 85 83 89 92 102 117 132 143 150 158 167 178 181 180 181 179 177 175 166 156 236 233 233 234 233 233 231 234 235 234 234 234 234 234 233 234 233 231 235 235 235 235 233 232 106 116 124 119 127 106 73 78 85 88 92 95 104 113 114 129 140 146 148 157 163 169 174 172 172 164 149 158 149 140 140 146 134 128 133 130 136 135 127 127 122 112 113 97 109 104 90 88 89 91 100 103 117 136 147 153 157 173 176 188 185 181 182 177 174 175 165 156 238 234 233 232 233 234 234 233 234 234 234 234 234 234 233 234 234 233 233 233 233 233 231 237 113 117 120 120 121 122 114 80 73 83 90 94 95 108 105 105 113 123 127 143 137 139 155 155 151 152 145 132 141 134 120 117 120 120 135 120 104 119 104 121 124 114 111 100 85 87 86 91 95 104 107 114 133 146 156 158 170 178 179 184 186 182 184 182 172 168 166 162 235 232 232 234 232 233 234 234 234 234 234 234 234 234 233 233 233 233 233 234 234 234 235 239 114 116 120 122 126 127 130 124 82 73 82 79 78 84 91 94 100 111 110 118 114 121 117 123 120 117 124 126 115 128 116 102 103 93 96 94 101 108 106 100 100 88 83 80 80 92 93 102 105 102 117 126 146 150 162 167 173 179 181 187 188 188 187 184 177 172 166 165 237 233 233 234 233 233 234 232 233 234 234 234 235 234 233 233 233 234 234 234 234 234 230 236 114 113 118 125 129 131 128 128 127 99 74 68 78 84 76 84 83 86 102 109 109 115 112 109 126 107 113 93 101 98 100 83 97 84 84 83 84 81 93 74 75 71 76 82 84 94 104 115 117 122 134 140 152 165 170 176 176 180 184 191 192 186 182 179 175 174 166 167 238 234 233 234 232 233 234 234 234 234 234 234 234 234 233 234 234 234 232 233 233 233 233 243 118 112 115 124 129 127 131 125 122 122 106 81 76 71 70 69 80 76 83 87 88 95 102 97 88 99 91 95 78 69 86 65 74 74 73 71 88 71 84 70 58 76 78 90 98 115 118 128 134 137 142 155 151 177 179 186 183 183 188 194 191 187 185 183 178 172 165 164 237 232 233 233 233 233 234 231 231 234 234 234 234 234 233 231 231 234 235 235 235 235 232 232 125 106 118 124 131 129 128 126 130 127 118 97 84 80 69 68 70 67 66 69 66 75 80 71 66 66 69 65 58 54 61 60 64 68 66 65 66 70 73 69 69 81 87 102 116 122 129 132 145 152 159 166 169 184 187 189 188 185 187 188 188 187 185 179 176 173 164 148 181 233 240 229 232 234 234 232 232 234 234 234 234 234 233 232 232 234 235 235 235 235 230 240 117 112 112 119 127 130 129 129 131 130 126 115 103 98 80 75 65 60 61 58 54 60 57 61 57 65 61 60 61 71 67 68 67 68 61 68 68 62 69 75 84 103 112 123 135 143 146 149 155 162 170 177 180 193 192 189 189 189 187 184 185 189 187 185 180 170 158 145 42 222 232 235 231 234
