P2
# Generated by OpenCV 4.2.0
92 112
255
56 57 44 77 71 64 63 100 54 37 75 87 75 100 102 95 93 85 73 68 112 155 154 154 148 118 110 129 123 137 142 163 162 156 162 165 171 170 168 165 156 137 114 120 127 143 159 130 107 123 132 162 161 169 176 185 177 171 170 161 146 125 105 95 82 66 64 70 60 79 92 96 69 66 71 69 71 83 93 74 83 81 75 61 34 80 93 90 73 51 42 54 83 55 67 83 49 76 84 64 45 78 105 79 76 95 93 88 88 80 69 96 135 146 154 154 143 141 141 139 132 131 130 131 131 139 156 171 179 175 171 175 175 157 126 131 129 135 152 170 140 148 148 159 172 184 187 191 189 184 187 192 189 182 159 138 118 101 98 81 79 84 89 94 80 71 66 83 80 60 71 61 61 65 52 49 41 47 68 68 61 50 42 51 72 49 82 53 56 88 58 51 76 93 70 72 97 103 92 88 86 78 95 131 148 159 159 150 144 153 161 162 160 158 156 156 151 156 169 178 186 188 173 175 181 166 142 142 139 147 161 161 170 170 169 164 168 187 190 189 198 192 192 194 200 202 195 182 163 137 124 123 122 115 86 83 83 94 92 78 76 57 50 55 55 58 45 34 37 44 50 51 65 59 38 39 40 58 58 32 85 59 50 105 95 70 67 104 100 99 101 97 90 104 129 148 159 167 165 159 159 164 170 174 174 176 177 175 171 170 175 181 186 189 175 174 183 177 167 159 150 148 169 173 163 179 178 175 165 182 194 182 197 197 194 196 200 202 201 199 189 171 138 145 142 139 137 123 100 91 102 100 81 63 48 47 54 55 46 36 35 48 50 54 68 77 41 33 28 57 27 40 87 37 71 128 85 63 77 92 103 107 108 107 120 135 148 157 163 168 167 165 168 169 170 173 174 176 179 179 177 176 179 182 182 181 176 174 182 190 187 176 172 147 156 177 147 187 184 180 168 182 195 183 192 196 195 199 199 200 199 200 195 187 161 159 163 165 166 163 144 124 108 109 111 96 74 58 57 55 49 38 43 60 65 54 66 79 55 37 36 42 15 69 53 45 113 125 65 61 79 90 99 103 109 122 142 146 148 154 159 164 167 168 170 170 171 173 174 176 178 178 177 180 184 186 184 182 183 183 185 189 191 179 187 164 179 185 161 185 191 184 180 188 193 190 195 198 197 198 197 196 192 193 196 194 179 175 179 183 185 187 187 173 154 126 123 137 117 107 86 62 50 49 50 60 69 55 62 77 75 43 43 26 29 87 47 81 136 70 62 72 87 94 100 113 126 137 146 149 151 153 156 162 167 169 170 169 171 171 173 176 175 176 180 183 185 186 186 186 187 191 193 187 194 187 190 178 181 196 175 182 195 190 191 194 193 195 199 199 199 199 197 197 196 196 198 195 183 183 186 184 186 192 193 188 182 162 134 135 153 151 140 123 68 47 61 60 63 71 65 79 89 57 49 16 43 71 68 121 116 53 78 86 94 97 99 118 128 140 147 150 151 152 155 162 166 169 169 170 171 171 172 173 175 177 179 186 186 187 188 189 189 193 198 195 198 195 194 194 177 191 187 183 192 192 195 194 191 198 199 199 199 198 198 199 200 200 200 198 189 187 189 189 189 191 191 189 186 179 171 146 144 161 163 166 134 65 56 63 56 71 74 79 93 72 36 20 61 61 102 119 82 69 78 84 99 101 116 118 128 140 148 148 149 150 155 160 165 168 169 169 171 171 171 173 175 176 179 184 185 186 187 188 191 192 196 197 197 198 200 198 186 183 186 188 196 195 196 193 189 197 198 198 198 198 199 199 199 199 199 199 195 192 192 195 194 194 193 191 191 187 178 169 161 165 169 168 158 117 71 67 62 61 67 71 81 73 23 27 67 54 125 93 72 65 79 94 96 106 115 116 128 140 148 146 147 150 154 160 164 168 168 170 173 171 171 174 175 176 179 184 185 185 186 188 191 193 196 197 197 199 201 202 197 184 185 193 201 200 202 201 199 202 200 199 198 198 199 200 200 199 199 200 198 196 196 197 195 195 193 192 192 189 183 178 175 169 172 169 165 146 96 84 73 59 59 65 67 65 25 40 67 63 125 82 74 67 86 89 98 108 112 117 127 137 141 143 144 149 154 158 163 167 169 170 172 172 171 175 177 179 177 185 184 184 185 189 191 193 195 197 198 200 201 201 201 193 192 201 205 204 204 204 204 204 203 200 200 199 199 201 200 201 200 200 199 197 197 196 194 191 193 192 188 187 183 177 177 175 172 172 169 152 124 69 85 58 60 53 60 58 43 55 68 86 125 83 75 80 83 83 96 103 107 114 126 134 140 146 147 150 154 157 162 167 170 170 173 175 176 176 177 179 182 184 185 183 185 189 193 193 194 196 198 200 201 202 202 204 205 207 207 205 204 205 203 203 203 203 203 200 198 201 202 201 200 200 199 197 199 197 194 191 192 192 190 190 185 180 176 176 175 173 174 157 150 82 88 97 88 91 71 65 55 69 58 96 114 75 72 78 79 77 88 96 105 115 125 134 141 144 147 150 153 155 159 167 170 171 173 178 179 176 173 174 179 184 185 184 186 190 191 194 195 196 197 201 202 202 203 206 202 204 203 204 204 205 204 203 203 203 202 201 200 201 202 201 200 200 199 198 198 196 194 191 192 192 190 192 187 182 178 176 175 175 174 162 158 121 74 125 111 147 118 108 68 68 43 88 99 68 76 72 65 72 87 94 103 109 118 128 137 143 147 152 153 154 157 164 171 171 174 176 176 175 175 179 182 184 186 190 189 190 191 196 200 202 201 205 205 205 205 203 205 208 207 210 205 205 204 204 204 201 202 202 201 202 202 201 199 200 200 199 197 195 191 191 190 193 193 191 188 180 177 177 175 174 173 162 153 138 83 94 130 132 133 98 82 64 39 73 84 60 72 62 55 75 89 92 100 109 118 126 135 142 149 154 154 154 156 165 172 171 175 178 176 175 178 183 184 184 187 190 191 193 194 200 205 207 207 206 204 206 208 202 205 210 206 208 205 206 205 204 204 201 201 202 202 202 202 202 199 200 199 200 196 196 189 188 193 195 195 188 187 183 177 177 175 176 174 161 152 148 112 85 112 135 126 116 85 69 37 67 75 51 66 52 67 88 90 86 98 109 118 127 135 143 150 154 155 154 157 165 170 171 175 177 177 176 180 182 184 184 187 188 190 193 198 204 207 206 201 200 204 208 208 208 207 204 204 205 202 202 204 203 204 202 202 202 201 201 201 201 199 201 199 199 197 194 191 189 193 194 193 189 187 184 180 178 177 176 175 161 153 149 124 92 107 111 131 111 86 68 23 77 71 53 64 55 79 95 82 88 99 112 120 130 137 144 151 156 155 153 159 166 167 170 176 178 177 176 179 181 184 189 187 189 192 195 200 203 204 202 200 204 207 208 208 208 207 207 204 201 199 202 204 205 204 203 204 200 199 201 199 200 199 199 199 199 196 194 193 194 193 192 192 189 187 184 184 180 182 177 174 166 156 151 131 113 106 97 126 97 92 65 24 68 78 52 66 56 95 84 89 100 106 114 120 131 137 145 149 156 157 158 163 167 167 170 175 177 177 177 181 183 184 187 190 192 193 197 202 201 200 201 205 208 207 208 210 210 208 206 206 204 201 201 204 206 205 202 203 201 202 201 201 200 200 199 199 198 196 194 193 193 193 192 192 188 188 185 186 185 183 181 176 169 159 154 139 121 110 118 92 104 96 62 38 51 88 51 70 80 94 95 96 99 104 116 121 129 137 143 149 157 159 160 164 167 169 172 178 180 181 179 181 183 186 185 190 191 193 199 200 199 200 203 207 208 208 209 210 212 211 211 208 206 203 201 204 205 205 203 203 203 202 200 199 199 201 199 198 199 198 196 193 192 192 192 191 188 187 188 189 186 184 180 177 172 160 154 144 120 123 130 105 103 107 52 56 53 93 57 59 108 93 95 96 102 112 117 122 130 137 142 150 158 159 160 164 167 169 173 179 183 183 181 181 183 186 187 190 192 193 197 199 200 200 206 208 209 208 211 211 212 213 213 208 205 203 202 204 204 202 201 201 202 202 199 199 198 200 199 198 198 198 196 193 193 191 191 191 188 188 188 188 186 186 180 177 172 160 154 147 124 125 114 136 91 96 48 57 58 77 78 72 101 108 89 101 104 101 111 125 138 144 143 150 160 161 161 165 167 170 173 178 184 186 183 183 183 185 186 190 193 194 195 199 200 202 207 208 207 208 208 208 207 206 208 207 205 205 202 205 204 204 202 203 201 202 199 198 197 200 198 197 197 197 196 194 193 192 192 190 188 187 187 184 187 187 183 178 172 161 155 145 119 113 116 120 95 77 50 54 57 64 90 97 109 102 91 106 92 95 113 127 139 144 142 148 158 161 161 165 169 169 170 175 184 186 185 181 183 186 186 188 192 193 195 199 201 201 200 199 203 206 208 209 210 209 211 209 208 207 205 205 206 206 206 206 205 202 199 200 199 199 198 198 197 197 197 196 192 195 193 192 187 187 187 186 186 186 184 179 171 160 154 143 116 103 128 117 102 62 55 57 76 69 82 103 114 90 93 94 90 99 115 127 137 146 146 150 159 162 164 165 169 174 173 177 186 188 184 182 182 185 186 189 192 193 196 198 196 199 200 199 203 207 206 207 208 208 209 209 207 206 206 205 206 206 206 206 205 203 200 200 199 198 199 199 197 197 196 194 192 193 193 189 186 188 188 187 187 187 187 182 173 160 155 147 116 105 116 134 106 68 75 68 82 65 77 109 101 90 86 85 90 101 124 135 144 153 151 151 158 162 164 167 168 176 177 181 188 187 185 181 182 184 186 190 192 194 195 197 192 198 201 200 203 206 205 207 205 206 206 206 206 206 206 206 206 205 207 206 205 203 200 200 198 198 199 199 197 197 195 193 190 191 190 187 186 189 189 187 188 186 186 184 172 159 155 148 124 99 111 136 113 72 85 79 81 66 66 109 90 89 86 91 95 109 132 141 145 152 152 153 158 163 165 166 164 170 175 184 184 188 187 187 188 190 187 190 191 197 198 196 190 192 198 200 200 200 202 205 202 205 206 207 205 202 206 205 206 206 206 206 204 201 200 200 201 199 198 197 195 195 195 195 191 190 190 189 190 188 189 188 188 186 185 184 171 157 155 150 128 96 100 119 128 82 85 82 87 68 61 109 87 87 90 104 101 115 138 146 148 151 150 151 159 164 166 165 161 168 176 184 184 188 188 188 189 191 189 190 192 198 197 196 194 196 201 202 202 202 199 198 199 202 203 202 203 203 206 206 205 206 207 206 205 201 203 203 203 200 199 197 195 195 195 194 194 192 193 192 192 190 190 188 188 186 185 184 170 156 154 148 128 96 98 111 123 92 86 82 82 60 71 118 95 93 88 106 109 120 142 145 146 148 148 149 157 163 166 164 161 166 175 182 184 189 189 188 190 191 190 191 191 198 198 201 200 203 206 204 204 205 204 200 200 198 195 198 201 203 206 208 204 205 206 206 203 201 206 205 205 203 199 198 196 196 196 196 196 194 195 193 196 194 191 191 189 186 185 182 167 155 152 146 134 103 89 113 114 86 78 82 80 57 75 108 96 99 81 100 112 125 137 143 144 147 149 149 155 163 164 163 161 165 173 183 189 191 189 189 189 191 190 192 194 196 197 201 205 208 206 207 207 208 207 206 204 199 197 199 202 204 206 207 206 205 207 207 206 204 208 208 208 207 205 202 201 199 197 199 198 197 197 193 194 195 192 190 188 188 184 176 162 156 154 153 139 97 86 103 119 78 64 70 64 51 62 90 91 98 76 91 113 129 130 142 141 141 149 150 155 161 162 163 163 165 172 182 189 190 188 188 189 192 190 192 194 195 199 201 207 206 208 210 209 212 213 213 209 203 200 204 204 205 207 208 208 208 207 207 207 209 209 209 209 209 208 205 203 203 202 202 202 201 199 196 197 195 191 191 190 189 185 174 160 156 157 160 143 86 83 93 123 71 63 49 43 42 54 79 80 95 73 85 113 126 125 142 141 135 147 151 156 159 160 160 163 167 174 183 186 189 190 188 190 193 192 193 194 195 196 199 206 208 209 211 213 214 215 216 214 209 204 207 206 207 209 208 207 207 209 207 209 212 209 210 210 212 210 207 205 203 204 203 203 202 200 197 199 196 191 192 190 189 184 171 160 158 157 154 137 81 61 72 121 56 73 29 29 44 54 74 77 90 73 79 114 122 126 140 140 133 141 151 155 158 157 157 163 170 176 183 181 183 187 185 188 195 192 192 190 195 201 198 206 208 210 211 212 216 215 217 214 212 210 209 208 205 208 209 207 207 208 208 211 213 211 211 209 212 208 205 204 202 204 204 204 203 200 197 199 196 189 191 190 185 181 172 160 157 152 150 135 79 54 53 119 57 59 27 25 40 56 65 88 61 79 80 112 122 128 137 140 135 137 149 153 153 152 156 164 172 179 180 176 177 177 174 177 183 184 184 182 189 198 199 203 206 208 212 214 216 212 214 213 212 210 208 207 207 207 208 208 209 209 208 211 213 212 210 211 209 207 204 202 201 200 202 204 202 200 197 197 195 191 190 187 184 181 173 157 153 149 147 132 77 51 60 118 63 37 31 25 42 54 46 91 58 76 88 108 122 130 135 139 136 135 148 153 155 154 157 163 165 168 165 164 169 163 158 159 160 162 162 161 165 173 182 187 188 196 201 206 208 208 209 212 211 209 209 208 206 207 208 209 210 211 209 211 210 210 208 209 208 205 203 201 201 201 201 199 199 199 197 195 193 191 188 184 180 180 173 159 151 148 146 136 76 52 89 116 52 41 22 23 44 53 47 53 72 59 97 111 122 134 132 136 136 134 144 153 152 148 145 137 136 140 137 138 146 144 140 141 140 137 139 137 138 145 152 152 153 163 173 182 190 204 203 203 207 207 208 207 206 207 207 207 207 208 207 207 206 205 204 204 204 202 199 201 199 201 204 200 196 192 188 188 185 183 180 176 172 170 174 162 153 148 140 123 69 62 98 107 71 36 20 24 63 59 55 44 64 74 97 120 119 129 133 131 134 131 135 134 127 118 119 127 133 133 128 125 133 136 129 124 121 118 118 115 114 120 126 127 128 138 148 159 170 189 197 194 199 202 204 204 205 206 207 207 207 205 204 203 202 202 200 200 200 197 192 187 182 175 167 162 158 154 151 149 148 148 151 151 147 152 164 160 152 147 135 112 71 80 115 105 62 34 23 20 67 70 61 55 60 88 94 117 120 124 131 130 135 129 127 119 118 120 124 130 143 143 135 133 131 131 126 120 117 111 104 100 105 105 104 109 111 113 127 139 151 170 181 184 189 194 195 199 203 204 204 203 203 202 199 199 199 200 197 195 194 190 183 174 168 139 135 125 118 117 115 113 112 111 116 130 134 133 135 143 149 148 131 108 80 103 98 108 70 40 33 29 68 81 62 84 66 67 91 107 120 121 128 134 137 130 128 123 123 124 133 142 151 154 151 148 142 135 130 132 135 130 122 114 105 100 98 100 110 108 120 138 146 156 159 176 184 189 191 194 199 200 200 197 197 196 194 195 193 197 195 190 185 180 169 162 149 129 120 113 103 100 96 96 97 97 103 113 111 108 113 120 133 138 125 102 83 82 77 114 73 58 40 54 72 100 64 93 80 80 100 100 114 111 116 126 135 131 130 128 127 127 138 151 153 154 152 153 151 146 143 143 145 148 148 144 135 124 117 109 113 120 131 139 143 148 150 174 180 186 187 190 193 194 195 194 193 192 192 191 190 194 191 187 182 172 160 148 133 115 100 90 86 91 100 97 91 94 107 117 111 108 107 104 115 127 119 90 64 54 102 108 63 92 60 57 70 115 85 74 92 82 108 127 119 113 118 128 134 135 133 133 131 129 139 149 153 154 151 150 152 152 154 152 155 157 161 160 155 152 149 141 130 128 135 139 142 150 155 167 173 177 182 184 183 186 190 191 190 190 189 186 183 183 183 180 175 163 149 138 123 107 97 102 107 110 113 116 123 132 153 148 146 139 132 126 125 129 101 73 56 65 97 95 50 103 82 50 64 107 103 86 82 84 102 124 131 128 131 135 138 140 138 137 136 135 141 146 149 148 148 151 156 160 164 167 175 180 183 184 177 173 171 166 159 148 140 138 138 145 150 154 159 164 169 173 178 182 185 189 189 189 186 182 178 175 172 168 163 152 137 128 121 118 125 135 145 154 163 168 171 175 174 170 164 154 146 142 135 134 100 71 65 68 72 102 43 82 92 53 58 75 105 100 100 81 105 113 129 133 136 139 141 143 140 136 139 141 142 146 145 142 148 153 153 149 146 145 145 148 152 152 155 162 171 175 179 172 160 146 133 130 131 134 138 146 154 165 172 177 184 188 189 187 184 176 172 167 159 151 136 126 118 118 133 148 159 171 180 182 182 182 183 182 178 176 172 162 154 148 142 142 120 74 56 58 82 123 63 64 79 52 48 53 70 98 115 95 114 124 135 140 141 142 141 147 142 135 138 143 147 148 148 146 136 124 134 129 137 141 133 132 139 148 149 144 136 129 143 161 168 162 156 145 130 126 130 139 149 160 170 178 190 196 195 190 185 175 164 156 142 130 126 130 131 140 150 139 140 149 152 160 162 151 152 147 146 153 166 160 151 142 141 146 120 64 51 62 96 120 79 63 58 50 44 46 40 70 95 108 116 131 142 145 144 144 144 151 146 136 138 143 148 149 150 141 115 115 135 124 107 78 56 59 49 60 76 109 136 132 116 116 145 159 165 165 156 143 134 132 140 155 170 185 196 205 205 200 192 181 161 146 129 131 139 144 142 130 112 141 160 164 158 160 158 162 166 160 152 119 117 142 142 142 142 145 120 67 59 65 91 107 87 70 59 54 53 48 45 50 70 99 113 129 138 146 145 145 147 150 148 137 136 143 143 143 139 137 131 115 92 90 103 58 71 104 101 96 85 93 127 127 130 133 116 140 161 163 161 154 146 144 147 156 171 184 196 206 206 203 199 179 157 134 133 143 146 139 133 128 143 132 95 82 80 76 72 91 121 123 138 145 123 118 147 147 143 144 133 89 71 73 88 94 111 95 72 56 52 48 46 51 73 95 113 129 142 148 145 146 147 146 147 142 139 145 143 142 143 137 115 91 74 117 137 82 112 104 57 90 106 106 186 157 115 120 122 129 133 142 147 151 152 162 164 164 174 184 196 204 205 202 199 176 155 136 143 142 140 137 143 139 135 110 100 129 126 125 89 126 121 131 105 103 121 125 140 144 144 143 135 95 76 80 73 75 123 114 107 70 46 40 42 57 77 102 114 132 142 146 146 146 147 149 149 149 145 146 145 144 144 134 116 117 127 157 161 90 106 122 102 125 108 134 205 193 166 131 117 130 135 147 159 171 178 175 174 171 172 183 196 203 203 198 194 175 157 150 158 155 152 149 128 137 186 142 116 119 75 92 110 75 137 157 132 86 98 118 132 139 143 143 138 94 76 63 60 56 129 129 123 93 52 41 45 62 81 103 113 133 141 143 145 148 149 151 153 157 157 157 155 155 158 152 139 132 142 161 171 150 100 101 111 112 105 182 201 185 168 151 139 143 152 174 195 203 196 182 179 176 173 180 193 199 201 199 194 177 163 166 188 181 159 139 137 181 202 173 112 134 128 135 110 89 169 166 139 123 103 107 131 134 142 143 139 93 74 73 69 39 135 139 126 116 69 37 45 60 81 103 109 132 138 142 144 148 149 153 159 165 166 169 169 169 171 167 153 140 141 149 157 172 153 140 137 156 164 179 169 168 160 158 163 171 179 191 203 205 193 181 179 177 175 178 187 196 196 196 193 183 171 178 200 196 170 163 159 160 170 166 152 141 139 116 96 151 192 171 157 143 123 131 143 140 145 148 142 104 90 102 77 85 143 147 136 128 97 38 48 57 80 104 108 125 137 142 142 147 147 153 165 169 171 174 176 176 174 170 159 148 143 152 163 158 164 169 170 169 168 172 161 166 162 159 165 178 189 193 198 196 188 183 179 176 171 174 181 189 191 191 189 181 175 176 193 198 197 194 187 181 173 171 174 180 178 165 163 162 157 162 163 151 142 151 160 156 155 153 148 114 96 107 100 127 150 147 136 118 96 66 59 49 72 102 108 121 137 139 138 146 150 153 167 174 177 179 179 178 177 175 169 159 150 151 154 156 159 166 173 175 178 179 173 169 164 161 167 181 191 194 193 191 188 184 181 175 170 172 176 183 186 187 184 179 174 176 185 198 195 186 180 169 162 169 173 173 173 170 175 173 166 162 162 152 154 158 165 170 168 160 150 120 96 98 137 162 167 149 138 127 107 93 76 58 58 84 105 118 134 139 137 144 151 155 168 176 179 182 182 183 182 179 179 174 166 161 157 159 159 160 164 167 166 167 175 176 172 171 181 190 194 197 194 192 189 186 183 175 169 170 173 181 185 184 182 181 175 173 178 190 197 192 187 177 165 167 172 178 177 172 178 177 171 166 161 155 163 169 173 176 173 165 152 120 100 118 162 177 182 156 136 129 118 113 102 70 64 80 110 117 132 139 139 141 149 157 168 176 180 184 185 186 186 184 181 179 176 172 169 171 171 171 176 176 181 187 188 187 182 182 190 194 197 197 193 191 188 187 184 176 167 168 172 179 185 184 182 181 176 170 171 182 193 199 194 191 186 182 179 175 167 155 166 169 167 163 163 162 170 175 175 177 177 169 157 114 95 147 186 186 190 168 138 128 129 127 121 82 76 80 110 119 131 136 138 141 150 158 167 176 181 185 189 189 189 189 184 181 180 180 181 183 185 186 187 187 190 193 192 191 191 192 199 202 201 198 193 189 189 187 184 176 168 167 172 179 186 189 185 184 176 168 169 178 190 199 198 200 201 193 192 185 180 183 178 178 176 175 176 178 178 176 178 181 181 171 161 117 105 172 192 178 196 186 144 135 141 150 140 94 81 83 103 117 124 134 137 142 151 158 166 174 181 185 190 190 191 190 188 184 183 185 187 189 190 192 193 193 195 195 194 191 195 201 207 208 203 198 191 189 188 189 185 176 169 168 172 176 186 191 190 188 179 170 169 178 187 196 199 203 205 200 196 191 190 190 190 189 188 188 187 189 185 182 186 188 186 174 165 119 134 190 197 160 196 196 148 141 147 164 152 109 84 86 96 116 120 130 135 141 149 159 167 175 182 186 188 190 191 191 190 188 186 189 190 194 195 196 195 197 195 194 193 193 201 208 210 209 202 197 192 187 188 189 183 176 169 168 172 175 183 191 193 191 182 170 167 175 185 192 198 203 209 207 202 198 194 194 194 194 192 189 186 187 186 186 187 190 188 177 166 132 178 196 200 145 177 193 147 134 147 161 149 138 94 91 94 107 117 125 133 137 149 159 167 174 180 185 186 190 192 194 193 194 193 191 193 194 193 198 198 196 198 199 199 203 209 212 211 207 202 195 191 188 188 183 179 173 168 167 171 174 184 191 191 191 185 173 166 173 180 189 199 203 205 207 206 204 201 199 198 198 194 190 189 191 191 191 190 191 186 176 164 168 189 193 194 140 148 183 149 126 141 155 151 154 123 95 92 98 114 120 128 135 147 156 163 171 177 185 184 191 195 197 196 196 196 197 197 198 196 197 199 202 203 206 210 213 213 213 211 207 201 192 189 188 184 177 173 171 165 167 171 177 183 189 190 191 189 177 168 168 176 186 196 203 203 204 206 206 204 202 203 201 199 194 193 194 194 194 193 192 186 176 165 178 186 187 190 135 123 174 165 130 127 142 155 150 146 108 100 97 104 117 123 132 144 153 162 169 174 179 184 188 194 196 196 198 198 198 198 198 199 198 202 204 206 208 209 211 208 209 210 206 199 190 186 185 180 173 170 167 163 164 169 174 181 185 188 190 189 181 171 169 173 181 192 201 203 203 205 206 206 204 205 203 200 198 197 196 195 195 194 192 186 175 160 160 164 186 183 130 106 152 174 146 133 129 138 144 149 130 104 95 96 112 116 127 141 151 163 168 173 178 182 185 191 195 197 198 198 199 201 201 202 203 204 205 206 207 208 209 210 207 204 200 195 187 187 182 178 173 169 163 159 162 167 172 180 184 186 189 187 184 175 171 174 177 186 198 202 202 204 205 206 204 204 203 202 200 199 198 198 197 194 192 186 175 158 162 180 191 167 125 100 149 158 149 141 141 129 110 134 138 113 92 92 107 110 120 135 148 159 167 173 177 179 183 188 193 197 198 199 201 203 204 204 205 204 205 207 207 208 210 209 208 203 200 195 191 186 182 178 173 164 158 157 162 169 175 180 183 186 190 187 184 178 172 171 173 180 194 201 202 205 206 206 205 206 204 202 201 200 199 199 199 195 193 187 175 158 171 185 180 158 121 71 161 158 146 150 147 140 114 119 140 117 97 95 105 108 115 128 143 154 163 170 175 179 184 189 192 198 198 199 203 204 205 205 205 206 206 208 208 208 209 209 210 207 203 198 194 190 180 176 169 162 155 153 161 171 177 182 187 190 191 188 185 183 174 171 173 178 191 199 203 204 207 206 205 206 205 202 201 201 200 199 198 195 192 186 176 157 172 181 173 160 116 39 143 181 162 162 167 157 136 131 136 119 105 101 105 107 111 123 138 151 158 166 171 177 184 188 193 196 198 200 203 205 205 206 208 208 209 210 211 211 210 209 208 205 201 197 195 185 170 164 163 162 157 155 161 171 178 184 193 198 200 194 191 189 180 168 170 176 189 197 199 203 207 208 207 206 206 204 202 200 201 203 202 200 195 187 175 157 174 186 179 155 116 34 106 170 183 187 183 165 154 141 135 119 112 106 103 107 109 119 134 148 153 161 168 175 182 187 191 195 198 202 205 208 210 209 212 213 214 213 214 212 211 211 210 205 202 198 194 177 164 164 167 165 162 158 164 173 179 189 203 209 211 206 202 199 190 171 166 172 184 192 195 201 206 208 208 208 208 206 204 203 202 203 203 200 196 187 176 160 179 189 181 145 125 33 64 154 189 199 198 175 152 136 123 119 113 106 103 108 115 121 134 148 151 155 163 169 177 184 190 195 197 202 204 209 209 210 216 216 215 213 213 211 210 213 212 208 205 200 191 169 160 168 173 165 162 160 164 175 180 195 209 213 214 213 205 201 192 173 160 167 179 187 193 200 207 209 209 210 208 208 205 204 204 204 202 198 196 187 176 159 179 191 180 145 136 28 39 134 191 200 205 196 175 156 136 117 113 109 107 115 120 119 130 144 149 151 155 166 174 181 190 193 197 202 204 209 210 210 211 213 213 213 214 212 210 211 209 206 202 195 176 157 157 169 174 168 165 163 163 166 174 185 192 194 199 202 200 194 178 161 155 165 173 183 188 194 203 208 208 209 209 207 205 204 204 205 203 200 196 188 177 160 179 195 185 149 140 24 23 101 187 199 205 206 200 189 162 127 119 113 110 119 123 118 127 141 145 149 150 160 169 179 190 193 197 201 204 209 210 210 209 210 212 212 212 209 207 206 206 202 199 197 173 156 162 171 175 172 168 165 162 158 160 164 170 174 182 191 187 175 157 145 149 156 166 176 184 187 197 205 208 208 207 206 206 203 203 203 203 200 196 189 177 163 184 198 187 152 144 24 24 45 164 196 206 208 208 201 175 136 121 114 114 122 125 118 124 139 146 144 148 157 168 178 187 191 195 198 202 206 208 208 208 209 211 212 209 205 201 202 202 200 199 199 175 148 159 170 169 159 154 142 138 138 138 146 154 158 173 174 173 150 137 123 122 141 151 167 180 182 190 202 207 208 206 204 203 203 201 200 199 195 192 186 174 162 186 199 183 151 145 38 38 22 116 189 203 205 208 202 180 144 121 114 119 130 132 125 124 138 146 142 144 153 163 173 184 188 192 195 199 203 205 205 205 206 208 208 205 201 198 199 200 200 201 199 180 143 150 155 150 128 89 55 45 64 97 130 137 140 155 154 138 118 60 38 57 112 138 168 183 180 182 194 201 207 206 203 202 201 198 197 196 191 187 180 168 161 188 195 175 150 144 52 52 53 60 159 195 203 206 197 181 147 124 117 116 124 130 130 131 138 143 140 139 148 158 170 181 185 189 192 198 200 202 204 203 203 204 204 201 199 196 197 198 198 199 197 188 142 140 141 132 79 43 50 30 48 75 85 114 117 123 121 120 57 34 52 74 104 132 179 186 180 179 186 193 199 198 197 197 199 199 199 196 189 185 176 164 160 191 191 167 150 144 61 60 61 58 97 170 194 194 194 186 151 126 117 112 118 127 133 137 141 143 139 135 144 154 166 178 184 188 192 196 201 202 202 202 200 199 199 199 197 195 197 197 197 198 198 198 161 132 128 128 134 143 156 143 125 108 102 106 107 100 105 109 130 136 108 109 108 154 186 187 184 184 185 186 185 188 191 191 194 197 198 194 187 179 171 159 160 184 175 152 141 132 61 62 62 56 55 82 143 168 177 172 144 125 113 111 119 130 135 139 144 148 143 136 140 150 159 172 183 186 190 193 198 199 198 198 197 195 197 197 196 195 197 197 197 197 199 201 191 158 145 143 159 176 181 180 159 130 111 106 100 97 109 143 158 157 164 164 164 176 182 188 189 188 188 183 181 180 185 190 194 197 198 190 182 175 166 155 154 159 145 132 123 110 62 63 61 55 52 46 58 80 100 114 108 113 108 114 119 126 135 139 144 149 144 137 136 145 157 167 178 183 186 190 195 198 197 197 196 194 194 196 196 197 198 198 197 198 199 198 199 195 189 186 181 178 181 177 178 187 174 150 138 146 167 182 178 178 178 177 182 186 188 190 192 193 192 189 184 176 173 182 188 195 192 185 176 169 161 149 139 125 126 121 114 98 58 57 56 52 47 44 43 40 45 28 16 61 103 112 117 126 136 139 146 150 146 138 135 141 153 162 173 180 183 188 192 194 193 191 190 189 192 195 197 196 198 197 196 197 198 195 192 191 192 191 183 183 196 202 202 209 205 189 180 187 191 191 191 191 184 171 172 180 185 188 191 193 192 193 189 187 171 162 165 178 190 188 174 161 155 144 130 108 115 114 114 104 49 51 52 48 44 39 36 40 42 41 25 30 96 111 119 129 136 142 147 155 150 144 136 139 149 158 168 175 181 184 188 191 191 184 187 190 191 193 195 194 194 192 192 192 192 191 188 187 188 188 179 179 189 193 196 197 200 199 193 195 194 193 192 191 184 172 172 175 177 181 185 187 185 185 189 190 185 170 165 174 187 180 171 158 147 142 118 90 104 114 123 118 43 43 44 42 38 38 37 37 35 35 32 29 82 103 120 130 136 142 149 153 152 149 138 135 143 154 163 172 178 183 183 183 183 184 191 192 192 193 195 191 187 186 187 184 185 186 185 182 185 188 183 178 178 189 198 199 195 194 197 196 196 196 193 190 182 177 177 176 174 174 176 177 175 174 176 181 188 182 162 158 161 161 158 152 142 143 106 75 88 100 119 122 41 41 39 38 36 36 40 42 40 39 38 25 66 102 116 129 135 143 149 154 152 150 140 135 143 151 159 169 175 180 182 180 180 190 190 184 183 190 191 188 185 184 185 180 182 183 184 182 185 188 184 182 187 192 196 198 198 197 198 196 196 194 189 183 178 176 177 177 176 176 175 174 171 171 168 171 178 177 151 143 154 163 158 144 140 148 102 69 77 82 100 109 41 39 38 36 32 36 40 46 45 43 43 24 50 97 116 127 135 144 151 153 153 152 144 141 145 146 154 164 172 177 180 179 183 188 185 179 178 185 187 187 185 184 182 180 181 182 184 183 185 186 183 184 190 195 199 200 196 193 197 197 197 196 193 187 181 180 179 180 179 177 177 177 173 167 165 166 164 169 172 154 161 166 158 145 146 148 96 74 83 89 95 97 41 41 38 34 30 34 41 46 47 45 45 34 39 90 114 126 135 143 150 155 155 154 147 144 149 147 150 159 169 176 177 178 182 180 181 178 179 183 183 183 182 181 179 177 175 177 185 186 187 188 188 191 193 197 200 200 198 195 195 197 199 199 197 193 188 187 187 184 181 175 172 175 173 161 160 155 159 165 172 161 164 165 155 147 153 147 96 85 95 104 103 96 34 35 36 36 37 35 36 38 42 42 42 35 28 81 109 128 136 144 152 158 159 157 151 148 151 151 148 154 166 172 174 175 178 179 179 178 181 185 180 177 176 175 179 180 179 182 189 191 194 194 194 195 194 199 203 205 200 199 199 201 205 203 198 192 183 181 182 175 166 160 161 165 162 146 130 136 155 162 167 160 169 171 148 150 155 144 95 89 99 106 109 108 27 28 35 41 44 45 42 40 40 40 39 34 24 71 109 125 134 145 154 162 164 163 156 152 152 156 152 151 160 170 171 171 175 178 178 176 173 173 169 166 168 171 175 179 178 179 178 178 180 182 182 184 180 177 186 194 199 204 203 201 191 179 172 167 161 158 160 153 141 128 123 126 136 117 108 116 151 161 169 164 175 166 147 159 158 138 88 82 88 96 103 111 31 32 37 43 49 49 50 49 42 41 42 40 33 70 108 120 131 146 153 161 167 164 164 158 150 158 157 149 156 166 167 167 171 176 176 177 171 163 161 159 156 153 152 152 147 144 146 149 156 164 168 167 164 160 160 162 158 158 163 159 149 139 139 144 146 152 144 141 138 132 112 103 100 125 150 160 166 173 172 164 177 160 152 168 157 132 88 83 81 84 96 111 42 43 43 47 50 51 50 49 48 45 44 47 46 68 96 116 130 147 154 162 167 166 166 163 151 159 164 152 154 163 165 167 171 175 174 172 163 154 145 135 120 109 111 121 130 140 139 133 135 138 143 150 152 153 149 147 142 142 140 138 135 135 133 130 122 111 93 91 97 102 102 123 158 181 191 184 184 187 177 167 163 157 166 170 152 125 97 91 86 84 91 103 51 52 50 51 55 52 51 52 52 50 48 49 51 67 89 115 133 147 155 163 168 166 167 166 157 163 168 156 149 159 165 167 172 174 175 172 166 159 144 110 87 81 100 117 119 105 94 92 91 90 100 111 117 115 107 98 90 91 85 87 98 101 97 92 95 106 106 104 100 100 126 164 182 193 195 189 189 193 178 172 156 159 169 167 147 122 111 110 103 96 96 104 61 60 59 61 64 64 60 57 57 53 51 50 55 68 89 111 130 146 155 164 168 168 169 168 168 168 169 162 152 155 162 167 172 177 179 180 183 191 193 183 170 155 134 121 122 123 122 125 136 134 131 139 137 143 144 143 143 146 146 157 156 155 156 150 153 155 154 149 142 140 157 177 188 193 193 193 196 191 165 169 153 163 173 162 139 122 121 121 118 107 107 114 69 69 68 71 76 76 72 65 62 57 54 56 60 69 86 107 128 141 151 158 168 173 173 172 171 171 170 168 156 151 161 167 173 182 184 185 189 196 196 191 189 182 171 151 142 142 136 141 155 153 162 178 183 184 184 179 173 170 172 185 182 175 170 163 161 157 152 147 143 146 164 179 189 194 193 195 198 181 162 158 161 176 170 152 132 121 124 127 124 115 114 122 74 75 79 82 84 82 78 74 67 61 59 60 66 71 90 100 119 136 148 162 169 173 174 175 174 174 171 171 162 153 159 169 175 184 191 192 194 198 200 196 191 183 179 173 163 158 152 148 151 151 155 165 169 174 176 178 177 177 175 179 176 169 165 165 165 164 163 162 164 163 173 182 187 192 194 194 188 176 166 156 175 181 165 144 117 107 117 120 116 108 105 109 83 85 87 87 85 80 76 72 70 64 62 62 68 70 91 95 107 130 147 162 169 172 174 174 175 175 175 175 167 155 159 168 175 184 194 196 197 197 198 196 191 187 183 180 179 176 172 172 174 173 172 172 173 174 178 179 179 178 175 176 175 175 175 176 177 176 177 176 174 171 174 179 183 188 192 191 182 171 162 168 184 173 155 137 98 87 94 98 98 89 83 83 79 84 88 85 76 69 64 62 63 60 58 59 64 63 84 102 96 121 140 153 163 171 176 177 178 178 179 180 170 160 159 164 173 183 191 195 198 197 198 196 190 188 188 189 188 187 183 184 185 183 184 184 185 186 185 182 181 181 180 180 181 182 184 185 182 181 179 177 173 171 174 178 181 183 187 185 180 169 161 180 183 167 150 125 73 69 71 74 74 72 69 67 63 69 73 67 58 51 48 49 52 53 52 55 57 56 78 107 92 106 130 145 159 170 176 180 180 181 183 182 176 167 162 163 171 178 186 193 195 195 193 194 192 189 186 187 190 189 187 186 184 184 184 185 185 185 182 181 181 182 183 183 181 181 185 185 184 179 179 174 168 169 174 177 180 182 183 182 182 174 171 183 174 154 146 105 56 58 59 58 60 60 61 60 42 44 44 39 34 31 33 38 38 39 42 47 52 50 70 110 99 98 119 138 154 168 177 178 181 182 183 183 181 175 166 164 168 174 180 188 193 194 193 191 190 190 187 188 188 189 188 188 189 189 185 185 185 186 186 185 184 184 187 184 181 182 186 188 185 181 176 171 168 169 175 178 182 182 182 183 183 173 175 181 165 153 136 78 50 53 53 54 55 53 53 52 30 28 28 25 23 22 26 30 30 31 32 36 41 44 59 107 111 98 112 128 141 156 170 178 179 180 182 181 178 177 173 169 170 175 179 185 192 193 194 191 186 190 191 191 190 190 191 192 192 190 190 189 189 189 188 188 187 185 186 185 183 183 186 188 186 183 175 173 172 172 176 179 181 182 183 185 180 174 177 175 155 146 110 45 48 47 47 48 47 45 44 44 24 23 23 22 22 21 23 25 24 24 25 27 32 35 45 103 120 104 95 116 131 146 161 170 173 179 182 183 180 177 175 174 173 175 181 183 191 190 193 187 189 191 188 188 191 191 190 192 192 192 192 192 192 191 191 192 190 185 184 184 183 182 185 187 186 186 179 177 177 178 178 180 180 181 183 185 176 175 175 165 148 133 63 45 39 38 39 40 39 36 35 35 22 21 21 21 21 21 21 20 20 19 19 20 25 25 27 96 121 121 97 100 120 138 151 163 169 175 179 181 180 178 176 174 173 173 179 183 186 185 190 188 189 189 185 184 189 192 191 192 193 194 194 196 193 194 193 194 191 188 184 183 183 184 185 186 186 185 180 180 181 181 180 181 180 181 184 183 170 170 168 156 142 112 39 34 31 30 32 35 33 32 34 34 18 20 20 19 19 19 16 17 14 14 13 14 17 15 7 89 119 124 114 99 102 125 143 155 164 171 176 178 179 178 177 174 172 173 175 180 181 181 186 187 188 190 187 187 190 190 191 193 193 195 196 195 195 195 195 195 190 189 185 185 185 185 184 188 189 188 184 183 183 183 183 181 180 182 184 181 168 164 161 147 131 75 36 33 33 33 33 35 34 33 33 33 12 12 11 11 12 12 11 10 9 7 7 6 6 7 1 78 118 123 121 109 90 113 120 140 156 166 171 176 179 180 176 174 170 171 174 176 182 182 182 180 185 186 185 191 193 191 192 192 194 196 196 194 191 194 193 192 188 187 186 184 184 186 186 190 194 189 189 187 186 185 182 180 179 180 183 177 165 159 155 140 122 53 42 34 33 33 33 33 33 33 33 33 5 5 5 4 5 4 4 4 4 4 2 1 1 3 2 69 117 120 121 121 112 95 102 124 144 160 169 174 176 179 178 174 170 171 177 179 184 184 184 183 183 184 184 188 192 194 195 195 197 197 198 198 198 196 194 192 188 182 181 183 185 188 190 192 190 186 192 191 191 189 182 180 180 180 176 169 158 156 151 133 128 42 37 34 33 33 33 33 33 33 33 33 2 2 2 2 1 1 1 1 2 1 1 0 1 2 4 58 114 119 122 122 119 109 97 105 127 150 164 170 174 177 177 173 170 171 176 180 186 185 185 184 182 185 189 190 194 197 196 196 196 196 200 204 205 204 202 202 199 191 191 194 193 193 193 192 192 194 200 197 194 191 182 179 180 179 170 162 152 148 127 144 136 38 36 34 32 33 32 32 32 33 33 33 1 1 1 1 1 2 2 2 1 1 1 1 1 1 5 40 109 118 121 123 123 121 107 96 103 128 146 161 168 171 171 169 169 170 174 177 181 182 184 183 183 183 183 185 193 197 199 201 201 201 200 202 200 202 203 204 205 205 203 199 196 196 193 192 195 196 199 197 194 189 181 175 175 173 164 157 149 136 134 166 131 35 34 33 32 31 32 32 33 33 33 33 1 1 1 1 2 2 2 2 2 1 1 1 1 2 3 32 103 115 120 126 128 125 119 107 95 105 126 144 159 163 164 164 166 167 170 172 180 182 185 185 185 186 186 187 193 196 200 203 203 202 200 198 198 201 203 205 207 206 206 203 200 200 198 195 194 193 194 194 191 184 178 170 168 164 154 147 142 130 165 171 125 33 33 31 30 32 32 32 34 33 33 33 1 1 1 1 2 2 2 1 1 1 1 1 0 2 3 28 98 115 120 126 127 128 123 118 104 90 93 118 143 150 153 156 158 160 166 168 174 181 182 184 185 185 186 190 194 195 197 198 198 196 195 194 197 201 203 205 207 207 208 206 202 201 199 197 195 191 191 189 186 180 173 167 166 160 148 140 131 149 179 170 120 29 32 31 31 32 32 32 33 33 33 33 1 1 1 1 1 1 1 1 1 1 1 1 1 2 4 22 94 114 120 125 125 127 128 123 115 99 86 100 121 136 141 145 148 152 157 163 172 170 171 179 181 180 182 188 192 194 194 193 193 192 193 197 201 200 206 208 208 208 206 204 202 202 200 199 196 194 191 186 181 172 164 160 160 152 138 127 134 172 176 166 117 27 31 31 31 31 32 31 33 34 34 34 1 1 1 1 1 1 1 1 1 1 1 1 1 2 6 16 89 113 119 125 127 128 128 127 123 113 98 91 102 115 125 132 138 144 146 154 161 161 162 170 171 171 176 183 186 191 192 190 192 191 196 199 199 204 207 207 207 204 201 201 201 200 199 199 198 194 189 182 174 162 155 153 151 143 128 127 160 180 177 165 116 24 31 31 31 32 32 32 32 33 34 34 0 1 1 1 1 1 1 1 1 2 2 2 2 3 5 12 82 116 122 127 128 128 130 130 128 122 112 99 93 91 102 117 122 130 138 139 145 154 159 166 167 167 172 178 182 188 186 183 186 195 199 199 199 202 204 205 203 201 199 199 199 199 198 198 196 190 184 175 164 155 152 146 139 122 117 158 180 182 177 162 111 21 33 31 33 33 33 33 33 33 34 34 1 1 1 1 1 1 1 1 2 1 1 3 2 2 4 7 75 112 120 127 129 130 130 132 133 128 118 108 97 87 92 100 106 112 121 123 132 144 147 153 155 159 166 170 177 183 182 180 180 189 193 192 194 195 198 199 197 193 190 190 190 192 192 192 190 180 170 161 152 146 146 137 127 112 139 174 184 182 171 161 127 31 30 32 33 33 33 33 33 34 34 34 1 1 1 1 1 1 1 1 1 1 0 3 5 1 4 2 69 110 117 126 130 130 132 135 134 131 122 112 107 99 93 86 91 100 100 108 121 130 136 142 148 153 157 161 170 170 173 180 176 182 184 184 190 191 193 194 192 192 190 189 188 189 188 185 180 169 161 149 143 141 131 124 113 120 159 182 184 178 168 160 183 78 31 33 33 33 33 32 33 33 33 33 1 1 1 1 1 1 1 1 1 1 2 1 1 0 5 0 62 110 113 124 128 130 133 137 135 134 127 116 111 109 97 88 84 86 93 93 103 109 119 137 151 152 145 147 158 159 154 156 168 175 177 179 186 187 188 187 189 186 186 185 184 184 181 176 168 156 153 143 139 131 117 106 116 167 187 184 182 176 167 153 216 123 34 30 32 33 34 34 33 33 33 33 1 1 1 1 1 1 1 1 1 1 1 1 0 2 2 1 51 104 116 124 127 129 133 138 134 134 133 124 122 117 105 97 92 82 86 83 87 94 102 124 141 133 140 145 146 156 152 147 153 161 165 172 177 180 181 184 184 174 171 170 170 169 165 159 155 147 144 138 134 127 109 111 154 186 190 186 181 177 166 166 228 177 29 37 31 33 33 33 33 33 33 33 1 1 1 1 1 1 1 1 0 1 0 1 0 1 4 21 111 105 116 127 126 127 132 140 135 134 134 130 129 125 115 110 104 97 89 80 82 88 90 89 104 118 128 136 133 142 144 143 151 157 159 165 162 163 165 165 165 165 164 163 163 156 146 138 135 131 129 124 116 107 109 157 184 187 186 186 181 178 164 178 237 206 53 27 32 33 33 33 33 33 33 33 1 1 1 1 1 1 1 1 2 1 1 1 0 3 3 58 159 107 119 130 132 126 129 135 136 136 135 134 131 127 122 118 115 108 101 95 91 85 81 87 97 106 113 116 114 123 127 131 139 146 149 155 144 144 148 143 147 150 147 141 138 140 136 124 116 118 120 113 97 102 152 182 188 185 184 182 180 176 165 210 237 217 132 10 32 34 33 33 33 33 33 33 1 1 1 1 1 1 1 1 1 1 1 1 1 6 1 120 156 106 122 135 142 142 140 135 135 134 136 136 135 130 128 122 120 115 112 111 106 97 81 76 85 91 93 99 113 114 110 114 115 117 118 123 133 134 141 140 134 130 126 117 116 121 119 106 106 116 100 100 103 151 181 189 184 184 181 179 177 172 173 231 237 221 189 50 26 34 33 33 33 33 33 33 1 1 1 1 1 1 1 1 1 1 1 0 0 4 12 154 147 96 114 137 151 157 159 154 144 136 136 136 137 134 131 128 122 120 118 116 116 112 107 96 77 74 78 83 93 87 85 91 101 108 110 120 128 113 104 114 109 109 108 91 89 89 94 91 90 95 89 108 154 186 188 185 183 181 177 176 175 173 207 241 235 226 219 121 20 27 31 33 33 33 33 33 1 1 1 1 1 1 1 1 1 1 0 0 4 5 50 180 146 94 116 136 152 161 166 166 161 149 140 137 136 136 133 132 127 125 122 122 122 120 121 118 107 95 74 54 51 58 65 68 69 69 70 73 74 74 78 77 79 80 79 78 74 80 86 90 95 97 100 148 183 191 188 184 182 182 179 176 177 194 234 245 234 229 226 174 37 33 29 33 31 31 31 31
