P2
# Generated by OpenCV 4.2.0
92 112
255
132 119 142 133 172 125 168 172 151 120 162 145 198 176 177 174 169 168 179 165 155 178 171 169 173 172 163 157 132 174 179 194 190 189 178 158 172 176 190 190 153 164 166 171 165 169 168 182 190 203 200 193 185 173 164 181 184 203 203 199 165 182 183 184 170 159 126 146 151 146 178 161 147 186 161 205 155 163 161 170 178 189 169 144 198 188 197 182 198 152 163 171 153 118 130 135 152 131 158 137 130 156 167 159 195 168 175 177 159 169 163 162 171 169 174 174 178 171 162 158 171 180 184 194 184 191 183 171 170 191 180 178 169 195 193 196 200 205 197 206 211 210 204 205 193 184 189 178 186 193 223 202 195 179 187 178 172 151 122 164 151 149 166 159 152 178 164 167 180 168 174 170 164 166 171 161 169 194 194 204 205 182 149 158 137 117 127 127 142 121 139 114 150 146 132 147 174 190 182 172 159 154 168 161 164 169 180 180 173 175 179 174 187 182 188 189 187 192 186 174 170 190 188 169 179 199 204 204 200 204 206 211 208 211 213 213 209 199 184 181 192 195 214 206 206 181 181 194 180 157 116 148 164 132 154 153 149 164 160 146 162 164 181 164 176 154 154 165 156 181 185 201 200 190 166 150 126 119 111 126 141 132 114 128 138 122 147 137 189 169 192 163 157 151 162 161 166 167 167 165 175 179 181 182 188 183 188 191 190 201 196 174 154 180 189 164 174 200 202 205 205 200 207 210 210 212 213 209 213 215 205 190 194 211 221 225 210 182 188 182 163 167 138 142 159 135 141 142 145 160 167 150 152 153 174 161 170 156 170 138 166 168 167 181 191 190 172 168 116 117 111 154 144 127 119 131 138 146 127 179 177 186 163 162 164 164 165 171 172 172 168 175 178 186 186 184 183 187 186 197 195 198 198 184 163 192 186 170 174 196 199 201 201 200 209 209 211 206 211 214 210 212 211 202 187 199 219 205 199 191 187 181 167 169 140 151 151 140 141 137 143 148 139 150 148 148 145 155 156 157 160 158 144 174 167 180 180 191 162 163 112 133 131 149 143 130 145 130 135 135 178 172 171 184 151 163 163 152 161 170 183 182 177 174 183 181 186 183 192 189 189 194 207 193 195 193 173 172 179 177 164 187 195 193 209 210 211 212 212 206 213 214 211 211 210 200 202 181 226 219 206 193 186 171 168 173 144 172 160 143 140 144 144 144 142 145 162 144 144 140 136 146 142 154 152 162 164 171 169 179 161 157 141 147 142 154 141 165 135 118 138 173 160 163 176 159 169 156 153 162 176 179 178 175 176 177 187 185 187 184 187 184 191 198 194 197 201 199 193 178 174 175 160 183 183 195 203 207 207 212 216 214 215 218 216 211 208 204 211 194 185 220 198 179 174 157 179 179 145 156 166 152 140 142 147 151 148 137 150 158 153 143 144 128 122 128 152 149 167 147 163 182 158 157 145 138 165 144 172 146 116 148 153 148 180 162 177 153 159 154 166 168 167 173 175 176 181 179 190 186 188 184 182 182 196 197 196 203 202 211 212 194 174 166 163 167 173 204 205 213 210 209 211 211 209 210 214 208 213 215 205 203 190 182 186 182 171 171 186 161 154 170 159 143 134 142 156 156 149 144 146 146 144 132 127 128 119 93 134 139 167 146 162 166 150 149 145 169 140 171 146 150 144 146 142 172 142 186 151 167 160 152 162 165 169 173 178 178 176 180 186 184 188 187 182 188 196 197 203 215 214 201 192 201 209 197 191 193 198 212 207 211 208 210 214 214 210 205 206 201 201 213 211 198 187 176 174 187 189 196 194 165 150 160 155 142 142 148 155 150 140 150 155 144 146 143 136 117 127 104 122 133 153 140 146 158 144 138 145 153 157 129 152 148 142 155 160 150 197 140 165 157 155 159 165 164 169 174 175 175 178 179 183 181 189 189 183 195 194 197 205 201 203 207 213 208 204 208 212 206 207 205 209 216 214 208 209 208 205 202 210 215 218 212 214 196 183 170 174 199 191 212 185 158 147 164 152 146 151 144 157 153 144 156 162 153 146 148 142 153 129 115 122 129 125 145 139 141 138 124 143 159 140 134 146 154 126 134 130 164 150 141 147 156 163 161 167 165 171 175 174 179 181 182 187 188 189 190 193 200 196 210 210 195 196 201 210 207 205 207 212 209 212 207 206 205 208 211 213 212 212 211 211 212 211 212 210 201 179 177 177 202 206 204 178 155 157 161 149 155 143 155 136 154 165 165 163 159 155 149 149 143 124 117 119 123 127 118 131 137 127 120 136 141 131 138 159 125 125 126 146 130 119 140 154 166 161 163 173 171 175 177 178 181 183 184 188 190 190 188 188 191 194 207 199 199 209 210 207 206 206 205 203 207 207 205 206 205 208 213 214 213 213 215 213 209 211 207 205 206 190 187 177 199 201 196 174 165 151 146 144 148 146 154 159 153 159 168 166 163 156 157 158 151 130 132 121 123 136 102 127 130 125 111 139 120 129 145 152 134 132 135 122 97 134 145 151 166 169 166 170 172 180 181 182 182 180 184 189 191 192 192 196 193 196 200 195 207 205 207 207 206 208 208 211 209 205 205 217 215 211 208 211 216 210 212 213 211 210 210 211 208 188 187 173 196 196 187 171 150 145 154 147 156 148 161 167 165 175 173 161 160 160 152 150 153 137 138 119 120 147 125 123 124 125 109 114 116 146 147 153 137 139 130 97 127 131 143 160 172 166 166 172 171 175 179 184 186 186 184 188 190 191 188 195 191 195 189 195 201 204 212 209 210 205 206 207 211 211 210 213 215 214 215 218 220 217 214 211 212 210 209 210 210 192 191 174 191 182 180 167 138 168 170 157 166 168 176 172 177 187 184 175 169 165 164 152 147 139 127 128 131 129 143 127 121 126 97 115 128 146 145 141 144 155 132 105 112 137 158 163 170 172 170 169 174 176 176 187 183 184 179 185 188 187 190 193 194 196 195 194 193 206 203 205 206 210 209 209 214 213 209 210 213 212 213 215 213 214 215 215 210 211 207 208 212 190 183 165 167 173 165 145 148 168 173 161 179 176 179 177 178 187 185 178 177 181 181 177 159 143 127 128 120 105 134 155 135 123 106 133 128 146 160 123 159 172 120 100 126 149 159 167 169 172 171 175 177 177 182 186 180 180 179 184 187 189 188 192 195 196 195 197 194 202 203 205 208 209 208 209 213 212 209 209 215 215 214 216 218 214 208 210 209 213 205 203 204 186 164 166 174 157 151 154 165 178 194 189 187 182 190 189 183 181 183 183 178 177 176 177 173 162 142 145 131 138 162 161 150 127 110 136 130 158 155 120 144 177 137 108 131 152 156 171 173 175 171 171 176 180 182 182 183 184 181 184 185 187 186 190 195 191 192 201 199 198 201 203 206 207 205 206 212 212 208 209 211 212 210 211 215 216 215 217 214 212 206 204 190 168 164 160 161 155 172 164 183 194 201 194 192 185 189 186 185 184 186 185 183 184 181 176 173 168 150 144 144 129 124 175 169 156 142 145 116 146 177 152 173 177 152 114 141 152 159 171 174 176 170 169 176 184 184 183 182 180 185 185 186 188 190 196 200 191 192 192 199 199 207 203 203 204 201 202 203 205 203 207 207 212 213 208 213 210 210 213 210 213 206 204 182 164 162 177 172 165 169 153 183 198 202 189 198 190 187 188 191 186 178 178 181 184 183 176 177 166 159 151 147 149 139 145 167 162 150 149 117 162 172 159 178 162 169 116 140 156 165 172 173 177 173 171 179 181 180 184 188 185 187 187 189 190 189 194 196 186 184 199 204 197 200 199 200 200 198 200 198 200 202 204 200 208 211 206 208 212 209 210 210 214 206 207 196 192 199 202 175 168 172 161 195 199 204 193 199 191 189 186 188 183 182 182 177 175 173 176 178 160 159 161 161 149 140 145 153 156 163 137 144 161 153 140 184 149 173 121 141 152 164 172 176 172 167 172 180 181 184 183 182 182 186 186 189 189 188 195 192 192 193 196 198 195 197 201 201 198 198 197 199 198 203 202 200 206 209 207 208 210 210 208 211 211 211 208 204 200 207 193 185 191 186 180 201 192 198 189 191 194 186 184 184 178 184 181 179 180 171 172 168 162 163 157 156 152 147 146 132 166 150 139 126 149 145 152 160 153 151 124 134 144 157 168 176 171 172 172 173 174 181 183 181 186 189 186 188 190 192 194 194 197 200 198 203 203 203 200 197 200 198 195 195 197 200 201 201 206 207 205 205 209 205 203 211 209 207 206 202 202 203 198 206 195 180 194 191 192 198 193 190 185 178 184 187 183 188 189 181 187 185 179 171 162 164 157 156 138 145 154 146 144 156 132 135 149 128 138 144 144 142 112 133 142 156 163 170 170 168 167 174 182 186 186 180 188 188 188 187 190 192 192 198 201 199 199 202 202 200 199 201 199 198 196 195 199 198 198 201 205 204 203 205 207 207 203 203 207 208 206 201 198 200 202 202 196 194 192 187 196 194 195 188 187 189 177 177 182 182 182 181 180 183 180 162 160 170 158 150 139 137 158 156 148 156 123 118 174 127 130 144 114 145 110 132 138 159 164 169 165 171 173 176 181 184 184 176 188 185 191 187 188 192 194 194 199 200 198 199 203 204 205 204 199 199 199 199 203 197 197 200 204 202 204 209 209 208 202 203 204 205 206 204 206 202 198 201 198 200 199 198 188 191 195 198 194 186 188 168 178 182 186 186 183 186 176 165 158 165 153 146 148 120 144 142 136 174 118 117 155 145 123 133 92 139 123 129 141 161 167 166 168 167 171 177 175 179 179 183 184 190 187 191 187 189 194 196 195 199 201 205 203 204 209 210 207 204 205 196 200 200 198 197 201 204 205 204 208 207 212 198 203 204 202 210 196 202 199 199 205 200 197 194 196 196 179 179 194 187 187 172 171 176 176 184 185 181 171 168 153 171 150 142 129 122 139 152 123 165 118 133 151 136 133 140 105 134 125 125 140 155 158 168 168 173 172 170 175 173 177 171 180 181 181 186 182 189 191 193 200 200 198 207 206 212 214 217 215 209 210 206 201 201 202 205 203 200 204 205 203 201 209 213 207 206 205 209 201 201 208 199 200 207 202 197 192 190 195 185 180 191 190 187 180 171 170 176 174 170 165 156 164 166 145 151 124 112 128 172 120 170 112 124 145 143 134 128 128 129 123 128 139 158 163 165 169 166 166 160 150 150 161 149 149 154 165 175 174 181 188 195 196 203 202 207 202 215 218 220 220 216 215 210 208 206 204 200 201 205 208 207 211 211 213 211 207 205 205 206 206 204 205 206 199 206 203 198 194 190 184 192 193 188 180 187 188 183 182 174 169 166 162 154 162 169 147 144 121 121 114 167 93 166 120 126 146 123 145 144 149 126 134 139 137 153 161 145 121 116 115 126 137 138 146 153 146 143 143 141 144 161 167 177 182 175 190 199 196 213 213 219 223 220 219 214 211 206 205 202 204 209 212 211 212 213 211 214 206 203 211 210 218 212 204 206 205 202 202 200 194 193 195 187 191 186 186 184 185 183 181 184 177 167 154 157 158 168 150 150 126 109 122 177 95 160 146 131 153 120 144 166 139 117 135 134 133 137 130 118 104 110 99 107 109 130 118 118 118 94 106 134 136 126 129 135 161 162 152 181 181 196 204 214 218 221 221 215 211 206 209 208 211 212 210 213 214 211 209 212 218 211 214 212 211 214 209 201 205 202 203 200 195 190 192 195 196 191 194 185 186 190 185 176 174 163 151 155 162 162 157 156 121 101 127 145 110 157 144 139 138 122 137 158 115 124 136 121 129 125 115 111 114 130 120 124 102 125 112 106 98 116 91 93 112 117 134 139 134 140 158 143 176 169 199 208 204 216 212 217 214 210 211 209 211 210 207 215 211 207 214 220 216 216 213 211 208 209 204 201 202 204 205 201 194 193 189 188 191 190 187 187 190 185 180 176 173 162 152 163 167 159 158 149 116 107 142 127 119 183 124 122 122 114 130 107 134 146 129 134 133 124 119 120 127 148 139 153 150 155 146 154 137 124 146 129 108 109 114 123 107 127 132 143 137 162 181 190 189 211 207 217 212 210 213 209 212 212 211 213 217 214 216 219 219 218 214 211 208 205 211 207 201 198 199 193 189 195 190 188 189 189 184 180 178 182 184 179 172 161 156 160 159 152 143 129 94 109 172 137 99 197 107 118 118 123 119 108 109 123 126 130 132 130 124 133 150 153 146 157 151 168 159 158 153 156 158 148 124 108 93 103 107 114 122 133 153 151 171 189 188 201 204 206 206 211 213 209 212 219 215 210 208 216 217 218 217 209 211 214 201 190 186 181 192 193 189 185 184 184 182 181 181 178 175 182 185 181 179 181 172 162 155 157 157 147 140 133 100 121 168 133 96 208 136 109 107 112 78 75 82 115 126 124 125 137 138 121 145 158 155 157 152 159 157 169 163 161 164 173 165 150 140 128 129 127 133 134 138 142 148 181 187 187 204 197 204 209 209 208 208 213 211 207 204 209 207 209 209 210 207 196 186 183 169 171 151 147 141 148 156 150 154 161 165 160 177 167 155 158 168 180 173 157 148 147 153 139 139 131 87 133 153 132 65 190 162 124 98 60 50 100 94 127 121 121 125 137 138 133 143 146 150 149 153 155 151 162 159 164 168 174 167 165 172 162 146 149 145 143 155 150 147 173 183 184 190 192 200 205 204 204 205 203 206 212 200 201 204 206 201 205 201 189 179 164 172 145 143 144 128 145 125 121 122 118 119 119 131 153 148 147 150 158 177 164 156 149 147 142 127 121 96 139 93 96 71 178 118 143 91 66 97 119 114 125 111 117 125 140 143 134 148 149 148 148 146 162 158 161 167 171 173 178 177 177 185 184 169 161 159 155 152 155 164 160 174 183 186 192 194 196 197 195 199 204 201 196 200 204 204 200 198 192 188 182 173 165 158 140 126 133 113 114 104 112 115 100 111 117 117 134 140 137 130 142 144 162 153 144 147 136 129 117 98 122 71 61 71 155 105 124 99 96 121 122 128 131 120 128 131 135 139 142 135 144 134 145 153 159 154 165 162 173 175 182 186 185 186 185 181 180 176 160 155 157 156 155 172 172 180 182 183 189 195 197 198 202 204 203 200 196 193 194 193 189 189 181 162 137 157 139 122 113 91 86 82 97 122 106 109 101 102 93 90 97 93 99 110 133 137 137 154 133 124 114 108 74 99 61 81 132 160 122 89 88 114 125 126 128 123 128 136 129 134 144 139 147 141 149 137 133 120 130 132 142 145 156 160 163 176 183 189 191 188 171 159 158 148 152 154 163 170 182 184 185 188 195 199 202 200 200 193 191 188 189 186 185 180 167 152 157 159 125 123 106 110 119 117 119 119 117 123 112 110 118 124 118 99 90 95 97 103 114 128 137 120 109 130 82 52 65 97 121 166 154 84 85 90 122 113 155 131 130 138 131 131 146 148 141 139 120 118 143 167 170 172 167 166 179 198 175 163 151 148 167 182 188 180 175 160 156 150 153 159 170 178 185 189 194 199 204 200 196 190 187 186 182 178 174 164 153 149 149 148 146 147 157 152 148 155 164 161 162 166 160 162 161 152 140 131 112 105 98 103 100 105 124 118 119 104 97 64 98 106 124 155 162 84 89 90 129 134 161 149 137 143 141 133 134 143 139 132 127 143 148 142 99 102 66 68 71 92 140 165 176 174 157 144 166 176 178 179 172 170 156 153 160 172 182 186 190 198 203 197 189 186 183 180 172 165 160 151 146 145 144 153 157 161 167 172 177 180 186 182 184 180 166 165 166 163 158 153 139 138 115 107 93 92 118 121 110 89 116 102 76 122 126 134 167 98 81 109 115 160 144 164 155 142 132 130 139 139 152 145 119 89 89 80 114 113 52 81 67 36 33 59 95 158 174 171 145 169 179 180 171 175 169 160 159 168 182 189 193 203 212 203 189 188 176 166 166 156 152 151 155 159 162 163 165 178 181 190 188 182 184 185 173 170 178 169 165 160 155 153 146 142 133 127 103 93 115 113 103 83 116 147 131 123 128 138 139 112 87 107 104 155 170 154 140 141 140 140 137 145 138 133 101 66 94 153 182 112 100 81 6 160 56 106 70 124 140 162 170 161 167 174 170 172 169 167 161 160 174 186 191 200 211 204 190 181 183 173 154 148 150 155 160 166 163 167 168 161 157 155 156 156 159 166 171 166 165 171 164 162 158 151 138 140 139 113 103 113 121 111 103 86 93 106 113 161 165 156 133 104 100 122 116 100 187 140 143 147 140 143 147 144 135 137 118 132 137 165 185 126 74 115 31 16 85 127 115 188 148 121 146 163 184 162 172 183 173 170 167 157 168 180 186 194 202 194 183 181 171 156 149 151 156 159 160 159 166 154 140 154 177 174 184 188 179 173 168 150 139 153 147 151 154 146 134 136 123 121 113 114 122 109 103 109 104 92 97 172 175 150 148 129 112 142 106 114 148 150 137 158 151 153 151 150 156 140 141 143 149 144 183 171 69 116 127 111 126 110 169 212 202 176 146 124 156 186 191 190 187 164 165 162 158 178 188 190 194 190 176 177 156 147 141 159 157 162 162 161 161 156 166 185 173 184 174 178 176 180 170 187 179 182 157 139 141 137 136 126 125 121 113 121 125 112 98 114 105 106 104 131 152 153 148 148 128 167 112 122 134 147 141 155 154 160 162 163 166 157 149 137 140 137 140 163 144 87 89 118 99 126 180 165 157 150 150 142 137 164 196 206 200 177 163 157 154 174 183 185 186 184 178 183 146 140 148 160 161 158 158 159 168 178 176 154 141 85 67 73 59 62 60 88 133 172 167 174 140 125 142 134 134 119 119 128 119 107 111 114 81 104 111 126 155 148 156 161 154 181 131 136 128 143 146 165 162 166 163 167 163 158 154 140 147 170 140 143 127 151 169 175 170 164 162 168 166 167 169 173 183 188 199 212 200 153 161 155 159 177 180 182 182 180 178 163 144 155 163 168 173 178 188 174 152 135 135 164 157 102 92 60 84 44 71 71 56 68 115 146 156 139 147 139 133 129 119 120 120 114 116 116 82 102 140 137 164 135 180 170 160 189 141 130 133 139 147 156 159 168 170 165 167 163 161 152 151 158 154 176 166 183 180 161 185 166 174 185 169 167 163 172 193 196 195 187 178 162 162 158 163 174 175 182 181 174 172 173 144 150 159 185 206 189 166 134 142 162 191 199 218 126 116 60 30 44 94 82 120 119 76 92 157 128 149 147 139 125 117 125 122 119 121 111 94 95 141 154 160 153 188 166 156 184 131 120 138 139 150 164 168 170 168 171 170 169 166 161 159 164 153 159 164 165 177 175 196 187 176 167 168 170 174 172 180 174 189 179 157 161 165 160 164 167 168 180 178 168 165 162 150 143 155 177 201 188 169 165 146 142 162 170 182 159 108 131 83 91 126 63 134 159 124 63 74 113 148 148 140 123 117 133 127 123 125 95 92 103 174 156 138 150 181 169 158 164 129 115 135 143 151 164 165 169 176 171 170 171 169 168 163 160 164 167 168 168 170 161 170 175 183 183 177 177 182 182 196 193 179 159 158 165 161 157 160 162 174 174 174 164 175 162 151 139 150 166 192 194 192 193 179 174 170 166 163 158 111 134 103 112 76 115 180 162 144 127 97 84 116 134 141 121 122 137 124 129 136 97 95 128 179 145 84 155 177 161 132 156 109 122 137 140 155 166 168 170 178 166 167 172 176 172 174 169 173 172 167 174 178 178 190 196 188 188 185 187 190 187 186 176 167 167 170 160 161 156 157 160 167 167 179 167 169 165 152 141 146 154 176 187 186 182 176 173 170 182 170 186 186 167 141 116 112 165 156 148 133 144 124 126 132 123 132 127 136 139 123 128 129 91 91 150 166 99 100 168 173 172 131 146 98 127 137 138 153 165 172 175 174 175 173 174 173 168 171 182 180 184 180 184 182 184 189 198 192 193 180 190 194 190 182 178 178 172 166 165 163 161 158 160 173 172 166 170 174 165 155 146 142 146 164 179 189 182 182 170 165 180 188 179 175 159 170 175 138 116 133 145 147 134 125 148 154 142 143 136 137 134 131 132 124 82 98 163 142 80 64 164 181 171 136 135 108 119 129 143 149 161 169 176 176 171 173 180 183 183 176 179 177 181 179 192 188 186 187 201 187 196 197 198 192 186 180 174 172 174 176 169 162 161 157 159 170 185 171 183 166 164 156 148 142 146 153 164 189 195 195 183 176 176 178 184 188 183 185 181 180 152 162 157 143 130 144 151 165 151 149 152 141 142 124 128 124 75 111 155 101 70 90 176 189 188 132 145 103 125 132 133 148 161 173 172 174 181 180 178 177 178 180 180 181 183 181 186 188 190 204 195 193 197 203 198 187 185 182 174 169 171 174 173 161 157 160 163 175 179 174 178 176 166 160 149 147 151 152 164 172 188 197 198 193 187 196 177 174 163 175 175 173 163 151 147 140 142 157 164 160 156 164 156 158 146 130 129 116 86 118 133 85 68 105 173 203 192 161 144 105 123 132 135 142 159 174 178 177 186 186 181 180 178 181 181 182 183 187 192 189 185 193 192 192 195 198 195 181 183 180 172 174 176 171 159 162 159 163 167 171 177 176 177 169 167 157 148 149 152 159 163 165 183 199 206 197 191 197 196 182 175 165 168 165 161 157 156 159 162 159 163 168 155 168 166 151 148 136 135 115 87 133 109 66 97 99 164 195 186 160 139 105 126 129 137 139 156 173 176 179 184 185 187 186 184 183 185 184 177 183 182 196 202 194 197 203 197 188 188 186 178 175 174 174 173 169 169 154 155 162 167 169 176 177 176 167 166 155 150 153 153 163 171 166 178 189 200 202 197 186 199 190 196 185 186 171 163 165 165 169 167 167 170 167 162 171 165 163 151 130 126 113 91 137 75 72 108 91 153 192 171 148 132 98 127 124 132 137 153 173 176 175 181 185 189 189 186 185 185 186 188 191 195 192 198 193 192 190 189 192 187 184 178 176 178 179 171 158 155 154 155 162 164 174 177 171 176 173 164 156 155 153 155 157 166 169 181 184 191 203 197 196 191 185 185 186 177 180 180 179 177 181 171 168 171 172 169 168 169 156 152 137 134 112 86 153 64 92 88 156 141 182 169 144 123 105 111 133 130 142 153 163 173 179 184 190 187 185 184 191 192 188 186 194 194 193 191 196 189 187 187 187 189 184 174 175 176 179 169 163 153 154 155 156 165 166 172 178 175 168 164 155 154 158 154 156 168 171 190 188 187 197 201 198 192 187 185 185 179 177 178 175 173 179 176 171 173 171 178 166 165 168 153 146 129 102 117 130 71 76 119 179 114 178 156 126 113 134 118 124 129 142 148 160 170 173 180 187 191 190 190 190 195 194 187 181 191 200 194 194 189 189 191 188 178 184 181 177 174 175 167 161 151 151 157 160 172 173 173 169 167 168 161 155 154 159 160 161 165 167 183 187 188 189 196 200 198 194 189 188 186 182 182 179 179 180 176 173 176 172 175 165 166 162 151 137 127 88 132 120 67 78 144 173 103 162 163 125 101 128 117 122 134 135 147 160 168 172 182 186 189 187 189 191 194 196 196 186 188 198 191 189 186 189 190 185 183 185 184 180 177 174 167 157 148 156 162 163 172 173 172 173 173 175 166 154 149 161 159 158 162 171 183 186 189 183 192 192 196 198 195 191 188 184 184 180 186 182 180 178 178 174 175 171 169 156 149 131 136 104 154 93 79 106 156 171 106 134 154 143 104 121 108 97 125 136 144 155 163 172 174 180 183 185 191 190 190 193 196 194 187 190 188 189 185 187 189 186 192 183 181 180 175 167 161 152 152 156 164 170 181 182 184 185 181 175 174 163 151 157 163 162 158 171 176 183 186 186 191 186 189 192 193 192 185 184 185 183 185 183 182 180 177 179 178 177 169 157 143 129 127 112 135 92 106 130 167 181 101 147 138 157 107 86 96 94 123 133 141 150 159 171 180 183 181 182 184 186 189 191 189 186 181 192 192 192 189 186 191 194 184 180 181 178 168 154 153 150 157 165 172 175 184 183 184 186 185 183 175 174 160 150 156 158 157 175 180 182 184 190 191 190 191 190 189 188 185 185 188 186 184 182 185 181 174 179 177 179 166 151 135 137 134 136 119 83 94 133 188 196 101 153 142 160 139 89 90 102 115 127 136 147 160 167 179 179 181 187 189 188 190 196 195 189 190 192 191 189 192 188 189 188 190 188 178 181 154 155 154 159 163 172 174 181 189 188 192 196 192 189 176 172 167 149 144 150 149 169 186 184 184 184 189 192 190 190 191 191 179 182 186 184 187 187 185 181 180 182 176 175 157 147 125 131 110 138 93 84 89 117 188 187 98 144 155 166 157 130 94 94 105 116 133 148 156 154 162 172 179 184 185 187 191 194 190 187 198 193 189 192 193 187 188 185 190 187 179 162 157 159 163 168 172 178 181 189 199 216 217 209 197 188 172 176 176 146 150 150 149 164 178 184 185 184 186 190 190 189 187 188 187 178 187 188 189 189 188 185 185 188 175 166 160 140 124 113 109 134 98 70 96 157 194 175 91 144 176 178 162 158 113 88 102 109 126 140 148 154 163 171 181 182 183 186 185 188 190 191 194 189 190 195 187 179 189 193 182 189 169 157 168 171 176 171 162 163 169 181 194 205 210 216 208 189 182 172 166 151 145 149 144 151 181 185 185 185 186 186 186 188 188 189 188 190 185 186 187 186 184 184 184 176 170 156 145 137 129 107 112 115 92 77 99 141 178 163 82 134 177 189 178 165 144 88 110 111 124 141 145 150 162 168 176 181 181 183 185 190 189 185 190 191 193 191 188 186 197 195 188 182 161 166 163 163 163 160 155 148 154 165 175 187 191 200 198 180 173 159 147 157 159 164 160 145 158 184 189 189 190 189 189 189 189 188 188 188 185 184 186 185 183 184 186 174 167 158 146 124 115 94 116 96 63 85 121 166 179 135 74 127 178 182 180 181 174 92 111 109 126 137 147 154 157 165 173 181 184 181 187 190 190 190 191 189 196 192 193 188 200 190 188 175 147 156 156 161 145 152 152 154 141 145 166 169 168 176 179 171 155 144 144 135 142 141 147 160 144 182 188 194 189 188 190 192 190 190 190 188 194 186 185 188 183 185 173 172 162 150 135 125 109 94 100 84 37 76 88 156 181 80 59 87 172 185 194 189 174 90 116 110 133 130 139 151 160 165 173 180 180 177 185 191 190 183 191 191 195 191 195 199 191 192 186 174 144 154 156 120 98 64 60 55 130 149 137 149 165 170 154 145 136 141 131 123 113 141 152 149 147 172 190 193 190 193 190 188 190 193 193 190 186 190 185 185 181 182 178 168 158 155 128 123 88 105 89 76 52 110 137 169 157 19 43 45 148 181 185 190 174 81 108 122 127 135 146 146 156 162 169 174 175 179 187 188 186 188 187 184 189 191 188 197 192 190 187 182 138 152 156 138 158 156 97 85 60 86 147 139 147 143 143 136 93 38 24 34 76 113 151 147 135 160 191 193 193 192 191 192 191 192 193 190 191 187 180 182 184 178 171 164 151 143 135 121 83 109 53 42 75 155 155 138 117 2 25 20 94 180 175 185 185 90 112 134 135 129 140 147 158 162 167 169 170 182 185 187 188 190 187 182 190 191 189 190 196 186 187 183 151 146 155 156 161 194 159 120 136 126 115 127 132 132 128 92 44 49 104 146 159 139 148 148 131 156 188 195 196 191 192 193 192 191 189 188 192 185 182 179 182 172 165 160 148 135 133 116 95 95 67 104 154 186 143 132 108 1 10 10 10 133 179 172 177 97 118 125 137 137 146 142 152 158 169 177 177 182 184 187 192 179 184 186 192 191 199 193 191 185 181 177 173 146 149 163 173 178 170 173 168 154 143 120 125 117 120 100 126 134 151 183 174 153 159 150 125 161 187 194 197 196 191 189 191 194 188 187 184 189 191 176 174 168 168 158 146 139 121 102 93 81 111 188 193 173 135 167 43 9 2 8 3 9 102 153 166 109 114 128 136 139 135 141 154 154 166 175 174 176 182 179 185 170 181 189 189 189 193 189 185 181 180 183 185 167 148 151 170 177 175 180 181 171 158 150 133 122 135 150 156 165 158 175 177 163 144 128 127 184 184 189 198 197 192 191 193 190 189 188 184 186 184 175 172 166 156 145 133 129 119 91 94 71 115 180 176 165 153 126 2 0 0 1 7 15 4 24 58 100 114 135 135 139 137 138 149 158 165 172 179 176 181 179 181 191 184 181 182 187 188 182 179 181 181 180 182 178 170 163 171 177 175 179 186 188 185 175 160 155 169 171 182 172 159 153 151 142 142 144 184 185 181 189 200 200 193 191 191 189 185 187 184 182 178 177 173 163 153 148 142 130 111 95 97 64 131 176 183 162 171 61 0 0 0 1 1 0 1 3 4 93 121 128 137 138 137 133 148 158 163 167 176 175 179 183 183 178 182 184 186 182 177 181 181 178 180 182 183 179 180 177 177 173 175 177 183 184 197 195 185 183 183 179 183 180 175 164 159 162 177 183 188 182 188 185 193 208 198 189 187 187 185 186 182 181 177 173 166 158 152 137 131 120 106 94 92 77 153 178 186 174 170 30 1 0 0 0 2 4 0 6 0 90 127 132 135 131 130 130 140 149 160 171 176 170 178 183 185 184 186 184 177 173 176 179 178 178 175 176 175 177 179 179 177 163 171 178 183 178 185 187 191 186 178 181 170 171 172 176 175 187 176 186 177 184 181 183 187 201 198 197 191 184 182 180 178 180 175 173 166 154 148 130 132 119 102 101 88 95 163 181 180 182 152 11 0 0 0 0 0 1 0 0 14 100 125 130 139 122 137 130 134 138 153 169 173 175 179 180 179 181 180 177 178 173 178 171 176 175 173 174 167 171 168 177 162 159 166 168 186 168 183 177 182 184 183 182 181 176 170 161 173 170 175 178 179 175 183 180 176 182 200 196 195 185 179 169 182 165 173 176 159 153 140 124 134 112 109 91 81 116 176 178 187 174 101 5 0 0 0 0 0 0 0 1 16 110 125 146 142 127 125 123 135 142 151 160 165 175 173 177 185 184 176 171 178 171 170 169 174 172 167 174 177 159 160 170 159 163 165 171 182 178 187 176 184 184 180 177 173 166 165 154 164 173 172 173 183 177 173 182 180 175 187 193 205 204 180 162 176 173 169 169 153 149 139 125 121 110 109 90 83 126 178 181 168 176 18 4 0 0 0 0 0 1 0 0 23 118 122 141 143 133 126 125 128 139 147 154 160 170 172 174 177 166 164 164 172 167 168 162 172 177 172 167 172 156 168 171 155 164 166 165 184 179 191 177 184 184 179 173 180 167 166 152 151 153 156 170 165 177 186 180 177 176 173 180 190 196 177 141 169 170 168 166 151 150 136 121 118 118 108 90 73 128 175 168 164 64 5 0 0 0 1 0 2 0 0 1 26 108 129 136 144 138 128 117 126 137 144 151 160 165 171 169 165 165 164 163 175 166 164 162 171 171 166 173 176 162 162 163 157 178 181 181 190 175 183 170 180 185 183 181 183 167 165 159 159 157 153 167 150 167 168 163 181 182 171 173 172 175 171 154 176 169 160 158 150 146 126 114 117 118 112 94 69 133 170 151 98 5 1 2 0 0 4 2 3 1 3 5 23 100 135 138 143 146 139 125 131 139 141 149 159 165 166 164 161 170 161 162 174 169 172 176 174 169 176 171 165 172 170 170 169 178 174 185 181 180 184 173 184 185 177 172 174 171 165 163 152 159 159 163 159 160 160 161 162 177 170 171 172 168 173 178 167 151 151 152 147 140 119 106 112 114 117 93 56 83 83 47 3 2 5 2 0 0 6 7 4 1 2 15 19 95 128 145 148 147 134 125 126 136 142 149 152 155 158 165 161 166 165 173 181 176 170 173 176 169 171 171 171 169 171 175 174 177 178 181 178 175 171 161 162 168 168 168 178 175 159 167 168 160 159 156 156 165 159 160 167 163 173 160 165 163 171 176 162 164 153 146 145 134 110 102 120 121 116 84 26 14 4 0 1 1 0 0 0 0 9 10 3 0 0 2 11 83 125 141 151 147 135 126 124 135 140 145 147 152 159 168 164 157 160 163 170 175 168 167 175 166 167 175 173 171 161 168 162 167 162 163 165 176 178 183 180 176 176 170 164 168 162 169 159 169 165 171 156 162 170 166 156 168 162 161 169 144 140 164 167 163 150 138 141 123 98 105 116 127 129 97 13 2 3 0 0 0 1 0 0 0 8 10 6 0 0 0 0 54 121 149 144 155 145 132 136 139 135 141 145 146 151 159 157 152 165 171 177 181 176 166 164 168 162 157 147 148 141 150 151 148 154 153 145 150 143 141 151 143 140 128 139 140 140 150 138 153 150 158 172 175 169 160 162 159 176 161 161 160 148 159 164 158 141 131 136 114 100 114 134 135 118 80 2 0 3 0 0 0 0 0 0 0 13 9 4 0 0 0 1 41 114 143 140 156 146 134 133 142 144 146 145 142 143 154 158 156 167 175 172 171 164 159 162 144 140 135 136 146 136 120 136 139 139 143 149 139 138 125 140 128 130 135 138 139 138 149 140 136 140 131 139 162 158 155 174 168 166 163 173 158 155 148 156 153 137 131 127 102 103 111 142 135 121 72 3 0 2 1 0 0 0 0 0 0 6 6 0 0 0 0 3 30 101 134 138 154 145 135 131 143 140 140 152 151 150 150 153 166 164 163 160 156 142 128 121 110 109 113 123 104 105 113 93 113 116 116 112 100 119 104 110 106 115 112 130 129 144 132 129 128 127 121 113 126 144 159 174 182 170 152 159 159 147 152 148 148 145 120 132 100 110 122 138 135 127 87 6 1 1 1 0 0 0 0 0 0 8 7 0 0 0 0 0 10 103 126 134 147 144 132 139 141 147 147 144 150 151 149 153 154 170 175 158 145 139 117 98 95 91 85 104 106 117 134 127 116 121 121 120 104 104 97 98 96 97 94 100 90 99 90 130 126 128 120 105 118 132 152 162 161 172 164 159 150 141 140 152 151 131 120 116 99 104 126 145 136 123 80 5 1 0 0 0 0 0 0 0 0 12 6 1 0 1 1 4 1 48 107 132 148 146 136 126 138 142 142 143 144 153 157 167 165 167 171 177 179 175 177 171 150 135 126 125 132 138 137 141 146 154 138 142 136 135 136 141 131 118 133 132 120 129 124 106 90 91 98 92 70 71 105 136 161 164 154 158 154 149 141 153 142 118 118 114 119 120 124 144 136 121 87 12 4 1 2 1 0 0 0 0 0 12 7 0 0 0 0 0 2 19 111 123 139 134 137 141 145 142 137 141 156 161 152 157 164 167 170 170 172 172 166 168 163 147 150 146 144 139 149 138 150 150 158 154 147 152 147 151 152 139 151 142 135 142 129 133 118 108 107 106 109 127 145 142 155 161 166 168 149 140 140 150 137 127 125 121 103 106 127 142 129 115 63 6 10 9 13 7 0 0 0 0 0 8 3 0 0 0 0 0 4 6 85 103 137 132 126 140 136 142 143 139 148 157 157 162 164 170 165 167 163 167 173 171 174 174 156 157 161 163 172 163 168 164 163 161 158 165 155 150 171 155 157 154 151 154 143 146 139 145 146 143 153 156 165 174 175 165 165 169 153 147 145 143 137 133 124 120 99 119 135 136 125 111 68 16 11 11 11 10 6 0 0 0 0 4 2 1 0 0 1 0 0 0 27 93 122 127 128 136 137 140 138 138 146 153 161 167 164 168 161 163 163 170 170 167 175 176 170 173 166 171 167 167 169 160 170 162 164 164 164 160 167 160 175 171 169 170 167 168 155 152 151 157 157 160 163 166 173 169 169 166 159 151 148 145 137 123 125 120 109 126 130 128 112 97 39 10 14 16 13 12 5 0 0 0 0 2 0 0 0 0 0 0 0 4 2 76 116 121 134 130 131 139 138 145 148 153 159 160 164 164 162 165 168 171 168 167 174 166 171 174 172 170 167 168 166 158 160 153 157 155 149 157 157 162 159 161 161 163 160 158 159 162 153 158 162 160 166 161 165 173 169 160 157 146 140 142 131 127 128 112 112 119 124 132 105 77 18 10 15 16 11 10 3 0 0 0 0 0 0 0 0 0 0 0 0 0 0 39 95 111 127 135 132 138 128 141 143 150 160 153 163 160 167 167 167 166 166 166 171 175 175 168 169 170 171 170 168 163 170 170 166 169 172 171 164 169 168 163 166 167 162 162 158 158 157 171 160 159 164 165 157 166 164 156 155 144 137 138 132 126 122 114 105 112 127 125 96 59 13 14 10 18 12 6 1 0 0 0 0 1 0 0 0 0 0 0 2 0 4 1 51 100 113 123 121 132 125 145 140 138 153 158 151 152 165 160 160 161 162 167 167 163 173 168 174 173 173 168 167 172 172 165 172 176 172 169 182 174 164 172 173 174 166 159 155 159 158 159 158 154 153 161 157 159 161 157 153 143 143 132 113 125 110 112 96 115 126 90 67 33 11 16 6 11 5 1 0 0 0 0 0 1 0 0 0 0 0 0 0 0 0 1 7 76 110 120 129 135 131 131 136 142 149 147 159 163 162 161 159 160 165 160 165 169 169 169 168 168 164 173 171 177 173 171 179 167 169 170 172 170 165 173 171 165 162 157 154 156 143 165 154 157 157 161 159 160 156 152 149 145 138 131 129 123 103 111 104 107 88 93 29 12 7 7 6 3 3 1 0 0 0 0 0 0 0 0 0 0 0 0 0 0 0 6 1 26 88 111 125 126 134 121 136 140 145 144 150 160 164 162 162 162 157 154 159 165 164 165 172 173 165 172 178 169 168 167 177 170 175 167 158 166 173 164 165 165 159 161 155 163 156 158 157 157 155 157 157 156 155 144 136 146 126 129 120 124 103 97 105 91 86 62 6 4 0 2 0 0 0 0 0 0 0 0 0 0 0 0 0 0 0 0 0 0 0 6 6 27 57 85 119 121 133 128 132 135 144 146 153 154 152 155 158 158 160 158 165 165 163 163 168 168 172 174 175 172 177 175 175 168 175 168 161 164 166 166 166 161 154 164 164 157 146 152 152 154 153 157 160 152 149 147 143 143 127 135 120 117 117 94 101 84 62 20 4 0 0 0 0 0 0 0 0 0 0 0 0 1 0 0 0 0 0 0 0 0 0 0 1 36 102 62 99 119 123 124 124 132 146 153 153 154 153 155 160 160 154 156 168 163 166 168 172 173 178 176 183 181 173 173 175 171 174 168 165 169 171 170 169 160 164 159 163 162 158 149 154 155 153 157 156 145 146 146 139 136 121 117 106 118 111 88 77 67 68 6 0 0 0 0 0 0 0 0 0 0 0 0 0 0 0 0 0 1 1 1 0 1 0 1 1 23 126 94 58 101 107 127 136 126 142 147 147 154 154 159 155 161 162 162 164 167 175 174 179 177 180 181 189 190 184 180 171 150 165 166 167 177 186 182 167 163 173 167 163 160 159 158 160 156 149 152 153 146 143 144 133 121 116 105 111 119 104 85 70 64 78 5 0 1 1 0 0 0 0 0 0 0 0 0 0 0 2 2 7 14 14 11 8 3 2 2 1 20 126 122 79 72 101 112 125 122 141 142 152 160 158 157 152 167 161 162 163 174 175 171 180 182 181 182 184 185 188 185 184 180 180 183 184 179 172 177 171 175 176 171 166 166 168 166 163 160 156 158 158 148 142 141 119 108 115 108 120 107 89 73 66 63 74 4 0 1 0 0 0 0 0 0 0 0 0 0 0 10 14 13 17 22 22 22 17 11 6 2 1 16 124 137 124 73 74 93 112 108 128 138 145 151 156 158 159 167 163 169 170 177 179 178 183 184 183 179 178 179 188 187 189 189 193 189 181 179 181 174 176 179 175 178 169 165 169 166 162 156 159 157 157 148 143 142 116 111 110 107 130 97 70 57 61 67 80 4 1 1 0 0 0 0 0 0 0 0 0 0 0 26 27 24 24 27 28 27 24 14 9 2 4 13 116 135 143 121 68 66 91 111 126 128 149 147 153 157 162 166 166 177 175 170 181 187 181 182 179 179 181 185 188 195 196 195 187 190 191 183 172 178 173 172 170 181 178 170 167 168 165 161 161 157 153 147 133 126 107 111 116 112 98 81 64 52 68 90 96 6 1 1 0 0 0 0 0 0 0 0 0 0 0 41 33 30 31 34 34 34 27 15 6 0 3 12 111 130 139 151 114 55 67 77 102 128 129 135 152 152 159 165 166 174 165 164 173 182 174 179 176 177 186 193 197 198 193 194 190 190 188 185 187 176 175 173 171 167 174 169 163 171 164 163 154 152 142 142 124 119 111 108 96 103 90 57 57 57 86 119 102 5 0 0 1 0 0 0 0 0 0 0 0 0 0 51 47 45 44 38 33 28 21 12 3 0 1 5 109 127 147 146 142 108 64 72 86 109 120 114 125 134 149 153 164 171 163 178 172 169 178 177 185 188 186 196 188 195 189 188 194 192 196 184 181 177 174 177 175 174 173 168 166 161 153 169 154 141 143 136 129 113 103 102 96 74 65 58 56 83 114 128 106 3 3 3 0 0 1 0 0 0 0 0 0 0 0 59 58 51 45 38 29 19 12 6 1 0 1 5 107 133 145 144 149 140 107 66 65 85 113 109 130 132 140 142 151 163 168 170 175 171 181 183 179 186 197 192 192 200 189 188 187 186 193 189 186 184 179 177 170 171 167 161 161 154 156 161 132 138 135 125 111 102 103 85 68 57 56 56 84 120 132 121 97 6 3 3 0 0 0 0 0 0 0 0 0 0 0 62 54 48 39 29 22 13 5 2 1 1 2 5 108 122 142 149 152 149 140 107 77 60 101 97 132 130 135 134 139 165 162 164 170 164 180 186 185 185 186 194 181 187 179 180 185 185 181 185 187 177 176 178 179 170 161 157 163 155 140 137 143 140 117 122 112 98 85 79 58 54 65 82 123 133 131 123 90 8 21 4 1 0 0 0 0 0 0 0 0 0 0 52 43 35 26 15 10 3 1 1 0 0 2 4 108 136 147 149 143 147 149 138 114 74 59 63 87 107 156 149 137 166 141 157 153 155 170 174 181 184 179 182 183 183 182 180 167 174 176 189 189 183 176 169 163 166 156 150 154 145 142 138 133 125 118 110 91 87 64 60 55 60 91 132 140 130 132 123 96 30 14 8 8 5 1 0 0 0 0 0 0 0 0 36 30 20 18 7 1 0 0 0 0 17 0 2 106 123 144 154 150 149 159 144 135 113 67 64 80 100 118 114 127 175 153 146 151 157 156 174 173 165 162 178 179 178 173 183 171 177 168 182 161 174 158 152 162 166 146 150 144 131 135 124 129 137 143 92 84 61 48 54 68 104 134 150 142 137 133 116 94 140 13 12 16 7 9 1 1 2 0 0 0 0 0 22 20 12 8 2 0 0 0 0 0 0 1 22 117 132 141 150 154 157 161 145 145 139 131 71 57 78 94 119 108 132 136 137 136 144 153 155 149 169 166 163 170 170 175 168 158 167 166 165 166 160 159 158 149 145 129 146 131 129 123 136 128 100 94 70 61 53 56 83 108 133 150 150 142 137 132 115 106 208 51 25 10 12 10 2 2 1 0 0 0 0 0 8 9 7 2 3 1 1 0 0 0 0 0 133 131 136 143 148 151 155 164 151 152 143 136 121 68 51 70 99 98 135 125 134 125 131 154 152 142 155 149 157 165 159 168 160 161 157 168 155 159 151 143 148 140 131 124 142 121 124 95 95 108 93 74 74 56 69 91 117 138 141 150 149 143 138 133 122 91 224 112 20 22 11 7 6 2 0 0 0 0 0 0 2 3 3 4 3 0 0 0 0 0 0 0 207 147 134 143 148 148 147 162 154 156 140 151 143 127 88 41 60 97 113 103 109 107 125 141 139 144 148 143 142 137 152 164 152 146 145 155 148 146 129 134 146 133 138 123 105 113 125 113 98 95 68 58 62 65 94 126 143 149 144 149 148 145 138 134 124 89 230 189 28 31 17 6 8 1 0 0 0 0 1 1 1 2 0 5 1 0 0 0 0 0 1 102 229 151 130 139 146 151 154 160 156 161 152 147 142 133 131 114 67 49 77 78 76 98 134 136 134 135 128 151 138 148 141 130 136 139 159 149 130 128 135 119 122 118 94 100 92 121 112 88 94 75 58 66 68 96 124 146 149 155 153 155 147 145 138 133 123 123 232 214 74 14 32 9 6 4 0 0 0 0 1 1 3 1 4 4 2 0 0 0 0 0 0 168 220 143 127 141 149 150 154 155 166 164 157 152 150 138 134 139 117 77 42 43 48 64 80 100 101 94 130 135 138 113 114 146 118 133 136 127 118 133 112 126 108 120 99 112 101 76 63 70 64 59 55 55 97 127 138 150 154 157 157 151 151 141 143 135 119 112 214 222 129 16 30 39 17 0 1 0 1 1 1 1 5 3 6 4 0 0 0 0 0 0 13 201 213 142 128 136 146 151 151 158 158 169 160 161 159 151 148 149 138 121 91 62 53 35 30 40 45 57 72 97 74 76 72 90 70 64 73 50 67 73 71 86 60 77 56 65 66 59 59 53 55 62 69 75 138 147 151 153 165 167 163 156 145 146 142 132 125 128 217 221 163 32 33 36 37 7 1 0 1 1 1 1 1 3 8 5 0 0 0 0 0 0 62 214 221 146 132 137 147 153 153 156 150 160 166 161 156 167 163 154 159 147 133 114 92 69 54 44 34 39 41 49 46 51 53 65 57 63 47 54 53 43 50 43 38 39 39 43 51 58 60 64 73 79 106 125 152 149 160 155 161 161 156 149 146 150 143 133 130 134 221 224 188 68 36 22 38 32 8 0 2 2 1 1 3 8 12 9 0 0 0 1 0 0 123 208 215 138 129 140 143 148 154 152 160 156 165 166 163 163 163 155 157 155 150 139 141 127 114 97 92 63 77 48 65 54 53 58 53 49 61 46 48 56 55 54 56 53 57 60 73 83 83 104 115 123 143 148 157 163 165 167 163 158 154 153 153 148 143 139 138 148 222 221 190 109 29 29 32 39 31 9 1 1 1 1
