P2
# Generated by OpenCV 4.2.0
92 112
255
128 116 115 110 98 99 113 78 75 97 105 112 133 143 146 147 170 187 189 193 200 202 203 201 205 202 201 202 207 205 207 207 207 209 208 206 208 207 205 207 208 208 207 206 204 205 203 200 202 201 196 190 186 181 177 164 161 146 126 108 66 55 74 95 96 97 130 118 101 88 81 81 76 79 78 75 75 75 79 77 91 94 92 88 89 85 86 103 83 77 59 65 112 111 114 99 94 105 114 82 87 105 109 118 133 143 140 158 177 190 194 198 200 202 202 204 203 203 203 202 206 207 207 208 209 208 208 207 207 205 206 208 208 209 207 207 204 203 204 205 203 202 199 195 194 192 184 176 172 163 155 144 115 73 54 64 78 89 94 100 105 100 84 76 69 72 78 80 88 97 95 90 93 96 101 109 102 86 80 88 100 83 71 59 99 110 110 93 106 114 105 95 97 103 108 120 135 132 139 171 180 192 196 200 199 201 203 203 202 202 203 201 204 204 205 205 204 207 206 207 209 207 207 208 208 209 207 208 207 205 206 207 206 202 202 201 201 200 192 189 187 183 172 167 158 134 96 62 51 56 63 70 71 71 66 64 84 103 112 113 104 103 102 95 103 100 94 98 108 114 103 88 101 101 72 59 108 110 105 106 122 114 101 102 101 101 107 124 132 125 156 172 188 195 195 200 201 199 202 202 201 203 202 203 205 206 205 204 205 206 204 207 209 207 208 209 210 210 210 208 208 207 208 206 206 206 204 202 203 201 198 199 198 197 193 186 182 175 162 134 100 75 66 69 75 82 90 102 118 132 137 139 129 117 119 110 112 114 107 104 98 107 113 106 95 103 100 73 98 94 101 111 106 98 91 88 88 92 107 128 121 148 168 182 193 195 198 200 201 201 203 202 200 202 203 203 204 203 202 204 205 205 203 205 207 207 207 206 209 210 210 209 208 208 209 208 206 205 203 203 204 202 201 203 202 202 201 197 195 193 190 186 179 169 157 151 152 158 151 143 149 153 152 149 142 131 124 118 113 118 108 113 112 101 111 105 92 81 107 93 99 94 88 91 97 97 88 71 73 89 122 133 141 158 178 192 194 196 199 200 201 201 201 202 202 201 200 202 203 202 205 205 204 205 203 205 207 207 208 209 209 209 208 209 208 208 207 208 208 208 206 206 206 205 206 205 206 205 203 201 201 200 200 200 196 196 195 192 190 189 187 181 176 172 172 165 156 147 135 130 119 113 109 103 109 111 105 105 93 73 85 101 87 93 93 103 105 98 78 66 72 112 129 138 152 167 186 193 196 197 197 199 201 201 202 202 202 201 201 201 205 205 204 204 204 204 205 207 207 207 210 212 210 210 211 208 209 211 211 206 206 211 207 208 208 205 205 207 206 206 205 205 205 203 205 203 202 202 202 201 196 195 195 193 189 185 182 177 166 162 149 143 139 126 114 106 104 113 114 106 96 70 64 86 80 89 91 94 104 98 81 77 96 119 128 143 160 177 188 193 197 195 197 198 199 200 201 201 203 202 201 201 202 203 204 204 204 203 204 205 205 208 211 211 211 211 210 208 211 210 210 209 209 208 207 209 210 209 207 209 207 208 208 207 206 206 208 206 206 204 204 205 204 201 202 200 194 191 188 182 174 168 159 151 149 141 129 106 107 108 114 107 103 78 73 86 71 75 89 87 84 84 81 83 101 113 138 146 165 182 189 193 194 195 197 198 197 199 197 199 202 202 201 200 201 202 204 203 205 206 206 207 207 207 208 209 209 210 212 209 208 208 211 209 209 207 207 208 209 207 207 205 207 209 209 208 206 207 208 209 208 205 207 206 206 204 204 202 200 197 192 188 181 174 168 161 156 155 152 126 97 102 104 109 107 102 73 79 79 88 102 88 72 66 63 78 114 122 138 147 167 183 187 192 194 195 197 195 198 199 198 202 202 202 199 198 202 202 202 204 206 206 206 207 208 208 209 209 209 209 210 210 208 209 209 209 208 208 208 208 209 209 208 208 209 210 209 209 206 206 207 207 206 206 207 205 205 207 203 203 201 201 199 193 187 181 176 171 164 163 167 151 114 102 112 107 111 115 92 66 87 91 94 105 78 63 63 96 124 126 139 155 174 187 186 190 194 195 197 196 199 201 201 202 202 200 198 198 201 203 204 203 205 205 205 205 208 209 209 209 210 209 209 211 211 210 211 211 208 210 209 211 210 210 210 212 212 210 210 210 210 208 209 209 207 207 208 207 207 207 204 204 203 202 201 198 191 185 182 177 175 169 167 167 139 101 107 110 104 98 103 72 74 79 76 71 63 52 65 116 126 129 150 163 180 187 186 190 193 195 194 193 199 199 200 202 203 201 201 200 203 203 206 207 207 208 205 203 207 209 209 210 212 210 212 211 208 210 212 209 209 210 210 210 210 210 211 210 211 209 207 208 210 209 209 207 208 209 208 208 209 205 202 203 202 203 203 200 197 192 187 179 179 176 167 165 163 126 93 111 104 88 94 87 79 59 59 64 71 56 70 123 124 135 159 175 185 188 188 192 192 194 194 195 197 199 201 201 203 204 202 203 204 204 205 207 209 210 207 204 205 208 210 211 212 212 213 212 210 210 210 210 210 210 210 209 209 209 209 209 212 210 208 209 211 209 210 208 207 208 209 209 209 209 204 206 206 204 203 201 200 196 193 185 182 176 173 168 155 155 107 79 104 92 83 87 61 51 61 72 68 57 73 131 126 142 163 179 184 187 188 191 191 192 193 194 194 200 200 201 203 203 203 203 203 204 206 206 209 212 211 210 207 211 211 209 211 211 211 212 211 211 211 209 210 209 209 210 209 209 209 211 212 210 210 209 210 208 208 208 210 211 210 209 208 208 207 207 207 207 204 201 201 200 194 193 189 182 175 173 162 155 137 87 68 101 74 79 47 59 62 77 64 55 83 135 128 153 167 180 183 186 187 189 191 192 191 191 192 194 198 202 203 201 202 202 202 203 206 207 209 209 210 211 210 210 211 210 211 211 211 210 211 211 210 210 210 208 209 210 210 210 209 209 210 209 209 210 210 209 207 210 210 209 208 209 209 207 205 207 207 205 203 202 201 201 199 196 193 189 180 178 171 162 145 124 73 60 70 64 84 75 74 82 70 59 77 133 131 160 166 177 181 185 185 187 191 189 191 191 192 193 197 199 201 201 205 204 202 204 206 207 207 208 208 210 210 210 210 211 211 212 212 212 211 209 209 211 208 209 208 208 210 210 210 210 209 209 209 211 211 211 209 210 209 208 210 208 208 209 205 206 206 205 203 201 201 201 200 198 196 193 189 183 174 159 144 138 112 67 78 80 68 73 80 91 88 66 75 126 137 157 165 174 174 180 184 187 190 189 190 190 193 197 199 200 203 200 203 205 205 204 204 206 206 208 209 210 210 210 211 210 210 210 211 212 212 210 209 209 208 209 209 208 209 209 209 210 210 209 209 210 210 210 210 211 211 212 211 211 210 210 211 208 208 207 207 203 201 200 198 198 197 196 193 188 179 164 144 138 138 118 106 104 66 64 75 78 80 70 68 121 136 156 164 176 174 177 187 189 190 190 190 195 196 200 202 202 202 203 203 208 206 205 203 205 207 207 209 210 210 209 211 211 211 211 210 210 211 211 211 212 210 209 208 209 208 209 210 210 209 209 210 211 211 211 211 210 210 211 212 213 211 212 211 210 209 207 208 206 204 201 200 196 194 200 197 193 186 172 155 146 145 137 133 138 73 66 69 77 82 76 62 111 132 158 165 176 174 177 183 186 188 189 195 198 198 200 201 203 205 205 205 209 208 207 206 206 207 205 208 210 210 210 212 211 211 212 212 212 212 209 210 212 210 208 207 208 208 209 210 210 209 212 211 210 211 212 212 210 211 212 213 214 211 212 212 211 208 207 209 208 206 203 200 201 200 199 200 195 187 176 166 161 161 162 158 154 69 65 63 79 87 74 63 105 132 152 164 175 173 174 182 185 189 191 196 201 203 201 201 202 203 204 201 203 204 203 203 206 208 204 205 208 209 209 212 213 213 212 212 211 210 210 210 208 208 207 207 209 209 208 211 210 209 211 211 210 209 210 210 210 211 212 213 214 215 212 211 211 208 209 210 209 207 205 203 201 202 199 197 195 186 176 173 171 171 167 164 156 54 55 58 65 83 87 90 101 128 142 164 174 172 172 185 189 189 189 189 196 200 197 192 190 189 189 193 191 191 194 195 198 203 203 203 207 208 208 211 212 212 211 210 211 210 210 209 208 207 207 207 208 209 209 210 210 209 210 211 211 209 210 209 211 212 211 211 212 213 209 210 211 211 210 211 210 207 205 203 203 202 200 197 195 185 177 172 176 176 172 170 159 56 52 67 57 71 78 87 97 123 144 165 175 174 171 181 184 180 183 180 176 180 178 176 174 171 170 176 174 170 174 179 179 181 188 194 196 199 202 201 208 211 210 207 209 211 210 209 206 206 208 207 207 209 208 210 210 207 211 212 210 209 210 211 211 210 207 209 210 210 210 211 211 212 211 210 210 208 207 204 203 203 202 197 192 183 177 174 178 177 176 176 160 56 57 87 67 80 75 78 95 121 143 164 174 169 171 173 169 164 171 164 156 154 154 152 159 159 150 150 150 145 151 147 146 156 159 160 170 172 181 180 190 204 205 208 207 210 210 207 206 205 206 208 209 209 210 210 209 209 210 210 210 210 212 212 209 209 209 208 210 211 211 211 209 210 210 212 210 207 206 206 205 202 201 197 192 184 177 179 181 181 182 179 161 52 59 90 85 95 90 73 97 131 149 160 171 168 170 173 167 165 163 161 155 145 143 140 134 137 139 130 120 119 123 131 126 130 137 133 139 153 167 161 169 189 202 203 202 208 206 207 204 203 205 208 211 209 210 209 208 208 208 209 209 209 211 209 208 209 210 210 211 212 211 210 210 208 206 210 210 208 207 207 207 203 199 198 192 185 181 182 179 183 182 172 160 54 54 90 99 103 84 70 108 137 153 164 172 174 170 169 172 173 166 157 159 155 153 154 144 129 131 132 118 103 103 109 116 113 111 120 122 131 151 154 158 178 184 185 198 203 204 203 203 202 206 208 207 207 206 208 206 209 208 209 209 209 210 209 208 209 207 211 212 210 209 209 209 210 208 208 209 211 209 208 207 206 202 199 193 186 181 179 177 175 171 168 158 53 52 89 103 100 79 86 111 151 164 172 174 173 169 169 169 166 167 162 156 158 158 160 155 147 140 138 139 129 113 99 97 106 102 100 109 123 125 142 163 167 166 173 190 197 199 199 199 200 207 208 204 204 204 206 205 205 206 206 206 206 209 206 196 198 201 201 198 198 200 202 200 202 203 202 203 206 208 206 207 207 206 202 194 182 182 181 178 173 175 167 156 61 47 79 113 97 77 97 115 157 173 174 174 172 170 172 169 162 161 164 160 154 156 156 160 159 156 155 155 155 146 135 127 116 113 104 107 114 125 132 156 154 151 171 185 185 191 193 194 198 197 200 201 202 202 202 200 198 199 201 201 204 203 193 187 184 188 177 168 163 168 175 178 181 182 187 187 194 198 197 197 201 206 204 196 188 182 180 176 176 177 164 158 70 50 74 109 97 93 98 118 162 173 175 175 173 170 171 171 165 161 158 154 150 156 162 164 164 165 165 165 167 165 157 153 154 139 133 128 127 130 132 142 152 151 168 179 179 183 186 189 193 194 194 197 197 199 198 195 195 194 195 197 193 188 182 179 175 169 155 151 145 143 143 136 143 153 162 165 166 168 172 183 188 197 203 202 196 186 181 177 175 172 162 159 83 58 60 106 103 90 88 126 168 172 171 177 176 172 170 171 168 165 159 153 157 162 164 172 173 171 172 176 179 179 173 170 171 164 149 143 141 138 136 134 145 149 156 164 168 176 182 183 184 188 191 190 193 192 193 192 188 189 188 186 185 180 177 173 162 150 143 141 127 115 114 115 119 127 135 139 138 144 153 163 172 176 176 188 197 188 181 177 169 165 162 158 61 70 51 94 106 92 102 127 167 175 173 177 178 173 170 172 171 162 157 158 159 166 174 178 178 177 180 180 180 181 178 176 177 175 166 158 154 146 140 137 138 141 148 157 162 167 170 174 175 178 182 185 189 191 192 187 183 181 182 181 178 173 170 164 154 138 129 116 102 96 100 104 114 116 111 114 119 128 136 145 147 141 147 167 178 183 182 178 168 160 159 152 41 62 59 78 105 96 100 123 163 177 177 179 179 174 170 172 173 163 163 163 167 165 156 149 147 149 146 151 151 150 152 153 164 171 174 173 168 158 146 140 139 136 137 143 150 157 162 165 171 174 178 182 187 186 183 180 178 174 173 174 171 168 154 145 140 132 120 117 114 110 107 107 114 117 109 114 124 127 128 136 137 140 148 155 160 169 179 178 164 151 152 143 62 56 57 69 100 94 99 121 167 179 179 182 181 178 172 172 171 170 172 161 135 123 143 154 159 162 159 162 171 163 156 145 131 129 136 159 167 167 161 152 142 136 134 133 139 148 156 160 166 169 176 183 187 186 179 175 170 167 164 163 158 153 143 137 134 129 126 133 134 134 131 137 145 146 151 153 148 153 151 148 150 149 144 144 160 168 166 172 161 143 140 134 77 51 47 64 105 98 103 129 171 180 179 182 181 180 172 168 159 158 147 121 125 152 162 147 146 136 118 120 124 125 133 150 156 147 119 117 135 152 159 159 153 142 137 133 135 142 150 158 163 173 186 195 195 187 179 171 165 161 155 149 141 137 134 132 134 137 144 149 156 161 167 172 174 178 179 177 174 175 173 173 170 162 160 160 159 159 164 169 157 129 137 129 69 50 30 67 115 94 111 131 168 181 182 182 181 178 168 163 157 153 142 143 146 128 122 110 128 111 85 95 110 95 92 93 102 129 143 143 118 125 152 158 155 147 145 136 132 137 145 158 173 185 196 205 205 199 188 176 160 150 146 140 135 134 137 142 145 153 166 169 174 178 182 185 186 188 187 187 187 185 182 176 171 168 169 168 168 169 167 169 151 128 145 131 61 56 37 68 119 98 107 130 169 182 183 183 181 177 173 164 158 152 149 139 112 95 92 129 168 120 76 106 95 70 84 106 93 106 115 132 139 117 128 149 149 141 141 140 137 139 146 161 176 189 200 208 209 204 195 183 165 150 143 138 140 144 150 152 155 161 167 167 162 160 163 162 169 174 178 187 189 188 186 181 177 170 166 167 168 167 169 170 144 135 145 133 74 63 49 70 123 113 117 139 173 183 186 185 185 180 178 169 162 160 164 161 153 135 129 148 166 121 63 107 92 55 83 107 89 154 154 112 114 121 122 129 136 137 142 143 149 155 154 162 177 192 206 212 212 208 201 184 163 143 135 138 142 146 145 149 153 143 131 124 127 130 141 142 142 139 149 149 151 172 180 180 179 175 168 164 161 165 174 173 145 135 143 133 86 77 64 83 122 119 120 143 174 185 187 189 189 186 184 179 173 171 177 175 174 166 164 162 168 162 75 97 123 119 126 106 115 188 198 155 111 99 112 124 140 149 156 160 152 158 160 165 181 196 208 212 213 210 201 180 153 137 136 138 139 142 145 145 132 119 120 137 148 159 171 177 178 179 179 165 143 131 126 152 173 172 167 160 160 169 173 172 149 137 137 130 89 81 66 85 118 115 116 145 177 187 186 188 190 190 188 188 185 180 177 177 175 177 176 170 170 177 148 113 104 119 119 105 161 183 170 154 136 115 108 121 155 178 186 179 168 162 170 173 186 201 208 212 213 209 204 178 154 149 141 138 139 142 144 131 129 133 130 129 123 114 111 113 115 139 155 168 171 169 144 119 127 158 161 161 163 169 174 171 150 139 136 134 99 90 76 93 108 122 123 152 178 184 188 188 193 193 192 191 188 188 182 176 172 169 174 178 176 176 174 168 163 157 161 175 172 167 165 165 165 170 168 167 175 187 193 180 166 169 177 178 191 202 208 211 212 212 206 180 159 159 154 153 151 145 143 135 123 118 119 123 90 80 93 88 98 100 103 107 127 150 159 152 116 125 162 170 167 172 173 167 149 137 139 133 80 72 75 89 112 120 125 159 181 184 189 189 194 196 196 195 193 190 187 183 178 171 167 167 167 173 177 177 177 165 173 177 170 175 176 170 171 179 187 188 184 184 178 170 166 177 176 181 192 200 207 212 208 208 207 186 167 166 175 185 177 152 133 117 107 116 154 183 106 96 97 53 54 91 86 74 113 114 122 137 145 121 142 172 169 169 173 164 150 139 135 128 81 88 94 92 116 125 128 160 183 184 188 190 195 198 197 196 197 193 189 189 186 179 171 165 159 160 163 160 168 167 171 168 162 166 165 166 173 178 184 185 182 179 172 172 178 181 178 184 192 201 206 210 206 204 203 193 176 168 177 193 188 149 134 130 129 146 166 189 132 97 124 90 96 111 70 79 154 126 99 105 133 150 144 154 165 165 171 165 150 144 129 118 117 112 106 94 116 128 133 159 181 186 190 193 197 200 200 198 197 192 193 195 192 188 181 175 170 160 157 157 155 155 159 166 174 171 174 180 185 189 191 193 195 190 186 186 185 183 179 184 190 201 207 209 207 205 202 193 183 173 175 184 191 188 180 166 163 163 161 167 166 113 117 125 119 93 69 135 165 147 114 111 111 124 152 150 160 167 173 169 149 144 124 111 127 122 118 107 119 127 132 163 182 186 191 194 197 201 200 200 201 198 195 195 189 182 190 188 186 180 177 175 173 175 177 179 179 179 177 187 194 199 197 200 199 195 192 193 187 181 182 185 188 200 209 213 208 206 206 195 188 179 175 186 192 186 187 183 179 177 174 176 175 180 166 155 134 117 142 182 166 160 162 155 143 142 147 147 157 170 177 171 149 137 122 95 143 136 129 121 118 127 140 165 181 186 190 194 196 200 201 200 201 199 197 197 194 188 185 185 187 187 185 185 183 182 187 188 189 193 192 197 198 206 207 202 200 198 194 193 190 188 190 187 187 199 209 209 209 209 207 197 189 185 180 185 195 195 188 184 178 168 170 175 174 180 181 172 178 176 167 166 169 173 176 174 179 179 176 170 166 175 177 171 149 136 113 79 157 143 132 123 118 126 149 163 180 187 191 197 198 199 201 200 202 201 198 197 194 195 196 196 195 197 194 192 192 192 194 195 194 196 203 203 205 206 207 206 201 197 197 195 192 191 188 187 188 198 209 209 211 211 206 198 192 190 186 187 194 199 194 193 190 176 161 162 172 179 178 178 183 178 174 175 176 176 175 179 183 182 185 184 182 182 183 176 156 135 103 77 164 153 146 138 123 121 141 163 177 185 191 194 197 200 198 199 204 203 203 202 202 202 201 200 197 197 197 195 190 194 192 193 196 200 206 208 206 205 206 202 197 197 196 196 193 190 187 187 193 203 210 211 210 211 207 197 192 190 190 194 195 201 203 201 197 197 189 169 155 154 155 163 170 174 174 177 177 173 172 177 184 190 195 192 190 191 185 180 165 134 93 71 155 152 155 159 140 110 138 159 177 184 188 192 197 197 197 199 202 201 203 205 204 202 202 202 200 199 198 199 198 198 200 203 205 205 208 207 205 204 203 200 195 195 196 194 190 189 188 188 196 205 209 210 210 211 207 197 190 189 192 195 197 199 206 207 204 202 197 193 186 170 155 145 144 148 154 158 161 168 175 183 189 194 196 191 195 195 190 185 173 139 84 68 154 147 147 158 150 114 129 152 176 181 186 189 195 195 198 200 200 202 203 204 206 205 205 206 207 207 207 205 206 203 204 206 207 207 207 205 206 203 201 200 196 196 195 191 190 188 188 192 198 203 207 212 212 211 207 197 191 191 191 195 201 201 204 209 209 210 201 198 195 192 188 182 176 172 172 174 178 183 188 191 192 191 189 192 196 198 194 188 181 145 76 73 156 144 145 161 159 124 122 146 175 182 185 187 189 194 195 199 200 203 204 203 205 208 207 207 208 210 209 209 210 210 208 207 208 206 207 208 203 199 198 199 191 192 189 190 189 188 190 197 201 203 209 210 211 210 208 199 193 192 192 196 199 200 203 210 210 211 211 206 201 197 194 191 191 192 186 189 194 192 196 198 194 191 195 199 198 198 194 191 184 157 94 85 170 146 135 156 166 140 120 143 172 178 184 185 188 193 193 196 198 202 203 204 207 207 208 209 209 210 209 211 211 209 208 206 207 207 205 203 206 202 197 196 190 192 191 191 189 188 193 194 200 205 208 211 210 209 207 202 195 192 195 198 196 199 203 209 209 210 211 209 206 204 199 199 197 196 194 194 192 189 190 192 195 198 197 200 200 199 195 190 185 172 131 99 184 175 163 157 158 145 118 132 169 175 180 182 186 189 193 196 199 201 203 206 208 209 208 210 210 210 211 209 210 209 209 207 207 204 202 202 203 200 196 195 193 194 194 190 187 191 194 196 203 206 206 208 209 209 204 203 196 193 194 197 199 197 203 209 210 209 208 209 211 208 205 203 203 200 201 202 200 200 200 199 199 200 201 203 202 202 196 192 184 179 140 107 183 186 185 171 151 153 123 127 171 176 176 180 184 186 195 199 201 203 204 207 208 209 211 211 210 208 208 208 208 208 208 208 210 206 205 202 200 197 195 200 196 191 190 187 187 194 197 203 205 207 208 209 209 209 207 204 197 194 195 196 196 194 199 205 207 208 205 209 212 208 209 208 208 207 206 205 206 204 205 207 207 207 207 205 203 200 197 190 185 180 140 112 178 190 191 174 154 166 132 126 162 174 173 175 181 190 196 199 202 203 204 205 209 210 210 211 211 209 208 210 208 208 209 207 209 205 202 202 199 196 199 198 190 191 186 187 191 195 200 205 206 208 210 210 210 209 209 207 202 196 193 197 193 195 199 205 207 208 207 210 210 211 210 210 212 212 210 207 209 210 208 208 209 209 207 205 202 201 194 188 186 178 144 106 188 191 195 187 165 174 149 117 150 174 173 175 178 187 192 200 201 201 203 206 207 207 209 210 209 210 211 210 206 207 209 208 205 205 202 204 198 196 197 189 192 194 192 190 191 196 200 203 206 208 209 209 211 211 211 210 205 198 192 195 196 197 203 205 207 209 211 210 210 211 210 212 211 210 208 205 211 212 213 211 211 209 208 205 203 196 191 189 186 175 141 92 194 191 192 194 187 185 159 123 157 176 172 174 178 184 190 199 201 201 201 205 204 206 208 208 208 211 211 210 207 208 208 203 204 206 199 199 197 194 189 190 198 198 194 191 192 193 198 202 206 206 208 207 208 211 212 211 206 199 195 195 198 197 201 205 207 207 210 210 208 209 209 211 211 209 210 209 211 213 212 211 211 210 208 204 201 192 191 187 183 175 135 79 196 194 191 189 190 179 165 141 164 179 172 173 176 178 188 196 200 200 199 201 201 204 206 206 207 208 208 208 208 209 208 199 200 203 198 189 191 189 188 193 199 197 193 193 191 191 194 200 205 206 211 209 208 211 209 207 203 196 193 195 199 198 199 204 202 205 207 208 208 210 209 211 210 212 211 212 212 213 212 211 209 208 208 208 200 193 188 185 182 170 127 76 198 194 190 183 175 158 160 145 159 179 171 172 175 181 183 191 198 196 198 197 200 202 202 203 205 206 205 207 205 206 204 201 200 196 192 189 188 178 186 195 197 195 194 191 182 179 180 185 193 195 200 206 204 201 201 197 190 182 184 195 200 202 199 201 202 204 203 204 207 208 210 209 211 211 211 212 212 212 214 211 210 210 208 206 199 191 184 180 180 165 116 74 196 195 190 183 180 172 161 150 165 180 174 169 171 178 181 189 194 194 193 194 197 199 199 201 202 204 204 203 200 202 201 194 189 189 188 190 188 179 185 192 194 186 181 174 164 156 159 162 171 177 180 188 189 188 183 177 170 171 180 191 199 202 199 198 197 197 201 205 206 206 207 209 209 207 209 211 212 212 212 210 211 209 207 204 200 194 183 176 177 154 99 71 192 193 193 189 188 189 178 155 161 177 172 171 171 174 180 189 191 190 188 192 195 198 196 197 197 198 200 197 197 194 191 186 187 188 189 190 184 175 180 182 178 169 157 145 148 147 145 145 145 150 161 168 177 175 164 156 155 163 167 177 188 196 197 192 193 192 195 198 202 204 205 206 208 209 210 212 211 210 211 212 208 207 208 203 199 192 184 176 173 118 74 79 187 191 193 194 194 193 187 165 166 178 173 172 170 170 177 185 191 188 190 193 194 194 195 196 193 192 191 197 194 188 187 185 188 192 191 192 187 174 169 163 154 131 97 79 69 87 121 139 134 139 151 159 155 155 151 147 147 145 151 167 177 186 193 189 191 191 188 196 199 202 204 207 209 207 207 209 208 210 210 208 209 208 207 204 198 189 182 178 169 92 71 75 182 190 195 195 195 191 188 171 169 181 178 173 169 170 174 179 185 190 189 191 191 191 193 193 189 187 188 187 185 180 182 182 187 193 193 191 187 177 160 147 131 98 85 96 61 32 45 99 126 131 139 142 136 136 128 97 84 87 111 148 165 175 183 185 192 190 190 192 194 197 201 204 206 205 205 206 205 207 207 207 207 204 203 201 198 191 183 177 160 98 76 77 167 183 192 195 193 188 187 168 160 179 180 176 169 171 176 178 180 184 184 187 188 187 187 188 182 183 181 176 170 174 176 183 191 195 192 192 188 181 164 138 124 106 108 127 123 92 98 101 115 124 123 121 126 114 66 34 47 79 80 97 139 160 168 181 194 195 186 185 191 194 198 202 201 201 201 203 203 202 204 206 205 203 200 196 193 190 180 174 146 94 82 82 96 164 182 187 189 190 187 166 162 182 179 178 173 168 171 173 175 179 177 177 182 183 184 184 179 179 176 171 172 175 184 193 195 194 193 193 190 184 177 158 129 121 127 137 151 153 141 120 118 120 111 113 120 105 92 91 99 110 98 95 122 141 165 188 192 191 183 182 186 193 199 199 198 197 198 200 197 199 201 200 199 196 195 193 189 185 180 174 135 108 95 92 43 97 160 175 178 183 184 168 170 180 180 178 174 168 166 170 172 176 176 177 183 183 180 178 178 168 165 170 181 191 197 199 197 195 197 198 195 190 186 182 170 159 153 148 146 147 137 124 122 118 106 103 106 108 118 133 135 112 99 108 126 154 184 192 190 187 183 179 179 184 192 197 198 196 194 194 194 193 196 196 196 193 190 190 186 183 180 170 130 107 140 108 40 42 90 136 155 166 172 166 172 177 178 179 176 169 166 168 173 174 178 179 179 179 176 172 165 160 172 187 195 199 198 198 196 199 198 197 195 192 195 192 189 178 167 165 160 161 161 156 148 129 115 116 122 125 129 136 136 134 139 151 171 188 195 195 195 192 187 184 173 169 178 179 189 190 189 190 190 191 189 190 190 188 185 184 181 179 175 165 128 114 155 137 46 55 59 69 86 104 129 155 171 176 180 181 177 171 166 165 168 172 177 178 182 176 169 166 158 177 193 194 195 194 195 194 192 193 197 194 192 187 193 195 188 180 177 180 181 176 180 179 176 159 147 152 155 165 167 165 163 165 178 186 195 199 201 200 200 199 196 192 183 163 161 174 181 184 187 189 191 189 188 187 185 184 182 179 178 174 173 160 136 153 162 163 50 54 45 56 61 53 52 118 175 180 179 178 176 171 164 162 160 168 175 181 178 166 158 158 183 193 191 191 192 187 189 186 188 188 193 194 193 189 188 188 183 175 177 180 180 181 183 181 180 173 178 176 173 174 177 179 178 180 182 186 195 199 199 198 200 198 199 197 191 180 155 153 170 185 190 192 192 190 184 181 180 180 178 176 175 170 169 160 158 178 184 186 48 43 42 50 64 44 48 100 169 180 179 177 177 170 165 161 163 166 171 176 175 165 158 180 194 189 189 189 185 187 181 182 186 190 190 191 191 194 186 185 180 174 183 178 180 181 185 184 180 179 185 183 178 180 183 183 183 181 187 192 190 195 199 196 200 200 200 197 196 194 181 149 142 162 173 185 189 184 183 178 173 173 171 171 168 167 166 157 175 189 193 196 40 39 44 46 54 39 35 82 159 180 181 178 176 173 168 166 161 164 173 173 172 162 172 190 187 188 187 185 186 179 177 180 181 186 189 195 187 185 184 186 179 180 192 186 181 184 186 183 184 190 189 187 186 184 184 186 188 184 185 192 192 189 195 197 199 199 198 194 191 190 191 181 154 132 145 159 172 179 180 179 174 171 170 166 159 159 166 160 181 191 194 196 34 37 40 46 61 59 29 64 153 182 181 179 178 173 172 170 160 159 171 169 167 167 184 184 187 185 184 185 178 172 180 189 185 184 190 192 191 188 185 192 187 182 188 191 186 192 193 192 192 192 191 192 187 187 188 184 183 184 185 184 184 186 188 193 198 193 193 193 185 182 189 188 188 164 139 154 170 185 187 177 168 167 164 157 155 157 168 166 187 190 193 195 32 32 33 41 63 73 43 59 153 180 178 179 178 173 172 173 164 160 164 170 167 173 184 181 183 183 178 176 167 166 173 182 183 181 182 190 192 189 188 190 189 190 188 193 192 198 198 197 193 195 197 196 191 190 191 187 183 182 183 183 192 193 193 191 194 191 191 180 178 176 178 184 190 189 156 129 155 173 173 173 167 164 161 155 154 160 169 161 185 188 186 188 28 28 31 39 43 59 50 64 145 177 177 179 180 175 173 172 171 164 161 165 164 175 181 178 172 174 169 159 158 158 161 169 180 185 184 191 195 191 192 189 188 191 192 193 196 199 201 196 191 197 197 194 195 196 193 193 194 187 188 192 193 195 194 191 188 187 192 181 174 177 174 169 175 183 162 122 125 144 157 168 167 155 153 151 153 164 170 164 177 176 178 179 26 25 28 31 31 40 49 56 142 177 180 185 181 178 176 170 173 166 163 164 168 172 182 175 164 162 155 150 144 148 149 164 169 173 172 161 161 158 154 153 152 157 164 164 175 188 197 197 194 198 199 202 201 195 197 194 194 191 195 195 199 201 198 189 186 187 189 185 175 170 171 168 171 178 170 153 131 146 159 163 160 152 150 148 159 170 169 158 158 157 157 149 23 24 24 25 29 30 44 48 121 177 177 180 183 177 177 176 175 169 161 164 170 172 176 170 164 158 149 141 141 143 141 147 136 125 131 129 124 125 127 136 136 132 130 131 131 137 147 160 171 181 187 182 169 165 164 157 159 167 172 170 175 177 179 182 187 187 190 180 169 159 156 160 169 175 174 174 147 145 158 161 161 155 152 156 165 173 170 103 75 79 70 56 20 20 21 22 23 32 39 41 109 173 175 177 178 181 178 175 176 171 165 166 172 169 165 166 164 159 149 140 132 114 93 94 105 110 118 129 127 124 121 128 133 140 145 151 150 138 134 130 130 137 135 128 124 127 130 132 137 142 148 148 152 153 149 141 148 161 166 170 159 135 132 140 153 167 173 173 161 151 163 165 163 156 156 165 171 172 173 60 16 34 19 29 21 22 23 20 24 34 33 35 105 171 174 178 177 178 179 175 176 175 170 170 171 170 172 171 166 161 163 164 156 135 101 79 84 111 114 103 98 92 87 85 91 102 116 130 137 138 141 141 142 148 136 134 137 134 137 145 146 146 145 143 143 141 139 133 131 118 120 148 150 133 123 126 138 156 168 174 167 162 170 165 160 157 162 168 172 172 167 59 36 35 33 44 26 27 30 31 33 25 30 32 92 167 174 176 178 175 179 175 176 175 173 174 173 172 176 179 171 169 171 171 174 179 175 160 136 118 112 116 110 104 107 102 97 94 89 93 98 100 96 97 98 102 105 113 118 117 117 126 124 123 118 109 111 117 124 131 131 119 111 96 94 114 131 132 141 153 163 171 167 166 170 165 158 162 171 173 172 173 161 67 36 38 37 39 34 33 31 39 39 29 34 41 79 158 173 175 177 177 178 177 177 175 173 176 175 174 173 178 174 171 175 176 177 182 183 180 178 165 152 154 151 146 154 150 151 154 151 143 141 140 129 122 114 107 107 111 114 110 107 104 103 102 105 111 109 104 109 110 108 106 105 113 139 161 167 162 157 157 165 171 170 174 172 162 160 163 173 175 171 173 151 47 34 51 51 44 44 42 39 41 39 35 37 47 70 150 172 174 179 181 179 176 177 177 172 170 172 174 174 176 184 181 179 178 187 186 185 180 177 171 165 164 159 153 151 152 150 166 172 172 181 177 177 175 170 178 175 171 173 169 172 172 170 169 170 175 171 161 153 139 142 154 162 182 187 185 184 176 169 171 176 175 174 179 171 162 163 172 177 174 171 175 137 46 52 57 62 57 54 50 47 48 43 43 44 49 63 132 170 176 177 179 178 180 178 181 176 165 167 170 173 176 185 186 184 186 189 188 189 185 180 175 172 170 165 162 160 165 158 162 163 162 173 171 178 180 181 184 183 184 184 179 177 177 178 175 175 174 169 169 163 168 173 179 176 183 188 188 184 177 177 183 182 176 175 177 164 165 171 179 177 174 173 176 124 49 55 51 54 48 64 61 57 56 52 47 51 56 60 98 162 172 173 177 177 180 179 177 178 170 162 166 174 174 182 187 189 189 191 193 193 194 185 181 179 177 170 160 161 166 164 167 166 162 168 178 179 178 181 182 181 181 182 175 172 174 180 178 177 174 175 175 169 171 170 169 175 185 190 185 184 181 184 188 181 172 176 169 161 171 177 178 175 175 171 172 106 53 56 44 41 37 73 70 67 65 60 55 52 56 66 83 147 165 174 174 176 178 178 175 175 172 164 164 172 173 178 183 190 192 195 195 193 195 193 187 181 180 178 174 167 162 157 155 154 154 158 162 166 166 169 171 171 170 169 166 168 171 173 168 166 167 165 162 165 165 167 172 186 194 193 187 188 187 188 182 174 168 175 171 169 175 177 177 176 173 172 166 95 52 60 45 34 36 82 80 77 75 71 68 65 69 72 87 145 157 169 173 172 176 177 176 173 174 168 166 170 174 176 178 187 191 193 193 194 195 193 193 191 186 182 180 177 173 164 160 157 153 157 158 160 163 161 165 170 169 164 161 163 161 162 162 159 162 164 166 170 170 174 184 191 194 191 189 190 192 187 176 174 173 172 168 174 180 178 177 175 169 170 150 82 60 63 61 41 31 87 87 85 82 80 81 81 81 87 101 144 155 165 173 176 174 177 178 175 176 171 170 170 171 173 179 185 189 191 192 195 195 195 196 195 194 189 184 183 183 181 173 171 161 165 169 165 167 169 171 175 173 170 170 172 167 166 169 165 170 175 173 175 178 186 192 193 192 191 191 191 188 179 177 173 172 164 162 175 178 179 175 173 169 167 131 65 61 60 57 49 32 92 92 92 92 90 89 85 88 95 103 153 148 154 169 174 172 177 175 177 176 173 173 171 170 173 178 183 191 191 190 191 192 195 195 196 196 194 190 189 188 189 185 182 177 174 173 170 169 168 169 169 170 171 173 174 171 173 175 172 172 176 177 177 183 193 193 188 190 188 188 186 183 175 174 174 169 165 175 182 178 175 172 167 164 164 106 66 65 61 52 42 33 98 99 98 99 104 106 101 103 98 101 160 155 147 162 172 174 174 175 178 177 177 173 168 172 174 177 184 190 190 189 190 190 192 192 191 190 191 192 188 186 189 190 187 187 185 180 178 175 169 170 175 177 179 176 180 182 184 186 184 182 179 184 187 190 193 191 188 187 189 190 188 183 174 172 172 170 177 183 181 174 170 171 163 162 153 94 72 69 62 54 40 29 105 106 108 108 107 108 112 113 106 107 166 173 145 158 164 169 173 174 177 179 178 175 169 169 168 178 182 184 188 190 192 191 193 191 191 188 190 190 188 189 188 186 188 187 185 181 177 177 171 169 176 172 177 178 181 184 186 187 186 186 186 187 188 191 191 187 188 188 190 187 185 181 180 177 170 174 179 177 173 171 168 167 165 161 129 91 80 74 67 58 45 33 111 114 116 116 116 117 118 116 114 116 163 182 147 145 157 163 169 175 176 178 178 178 174 173 171 175 177 181 185 188 188 189 191 193 194 191 188 189 188 187 186 186 186 186 182 182 179 176 173 165 163 170 171 173 181 182 183 185 184 183 189 189 186 186 188 190 189 186 186 182 179 179 180 177 175 176 177 175 170 171 170 164 161 152 113 94 92 79 70 60 47 36 119 122 123 125 126 127 127 127 125 126 163 184 161 136 150 160 167 173 176 177 181 180 175 169 173 173 179 180 183 183 184 189 190 186 190 191 190 189 187 185 188 186 185 183 181 181 180 177 174 171 168 172 170 173 179 184 186 188 189 186 187 187 188 188 191 189 188 189 185 177 178 182 180 176 174 174 174 174 172 170 166 162 156 134 101 91 88 81 67 58 45 39 124 127 129 131 133 135 135 135 135 136 164 183 180 146 131 151 159 170 176 178 180 179 173 171 175 174 178 181 181 186 187 184 192 192 190 190 191 192 193 192 189 184 183 182 180 177 175 172 169 169 168 169 167 173 178 182 190 194 188 187 186 186 188 192 192 189 189 188 188 185 183 180 180 179 174 169 170 174 172 168 166 158 149 117 93 92 83 73 64 53 44 41 129 131 134 137 139 141 142 144 146 148 165 180 186 171 129 134 151 167 170 173 177 177 176 174 176 175 180 182 186 189 184 185 190 193 192 192 195 193 189 188 189 189 187 194 195 195 194 191 182 177 177 179 183 190 188 186 184 178 182 185 188 191 190 191 188 190 191 187 185 187 184 181 178 175 173 173 173 173 170 167 158 153 131 104 94 92 86 77 68 59 51 43 133 136 140 143 145 149 152 155 159 160 169 180 184 183 153 118 137 157 165 169 176 178 176 177 176 177 178 179 187 188 187 186 192 191 193 195 198 195 196 196 195 198 198 198 197 201 202 201 198 197 200 201 201 201 199 194 188 184 190 193 193 192 196 195 191 193 188 187 188 185 184 179 175 174 174 174 173 172 167 159 152 147 126 108 107 97 93 86 79 70 65 55 138 141 145 148 152 157 160 164 168 171 173 179 182 182 172 135 121 144 159 167 170 175 175 176 178 175 173 179 185 189 188 189 191 194 194 196 199 198 202 202 201 201 201 200 199 200 200 204 205 203 202 202 203 201 202 201 200 201 203 203 201 199 198 199 196 193 188 190 190 185 183 179 176 175 172 172 172 166 159 152 145 152 133 112 113 108 105 100 93 88 81 70 142 146 151 155 159 164 168 173 176 178 175 178 181 182 177 167 135 130 146 160 168 168 171 177 179 177 175 177 185 187 188 189 191 196 194 194 200 201 204 204 202 201 199 199 200 201 202 205 206 204 203 204 203 204 204 205 205 206 206 206 205 202 200 196 193 190 191 191 187 180 182 180 175 174 172 168 164 156 151 141 144 167 131 114 119 117 115 116 112 107 100 86 148 151 156 161 166 172 176 178 183 186 178 177 178 181 178 172 159 128 125 142 160 164 165 168 176 178 177 176 180 179 185 189 192 196 192 192 195 197 201 200 197 199 201 203 201 203 202 203 205 206 206 206 204 204 206 208 206 202 203 205 204 201 199 195 192 191 185 183 186 184 179 174 172 175 170 166 161 150 141 128 157 172 130 120 125 127 128 132 129 125 118 103 150 155 161 166 172 178 182 186 189 192 182 176 179 180 179 175 170 154 127 127 146 155 157 161 164 169 172 169 172 177 182 182 180 187 187 194 199 200 196 193 192 198 199 199 202 201 206 205 203 206 206 206 205 205 204 206 204 201 199 198 199 201 199 195 192 185 184 184 182 182 178 173 172 169 166 159 150 138 125 140 170 172 129 125 132 137 141 144 145 139 133 119 154 158 165 171 176 181 187 191 193 197 185 177 182 181 180 178 174 170 150 121 128 142 147 153 155 159 164 169 166 167 174 178 179 183 190 189 198 195 194 193 197 197 195 199 203 201 201 202 201 201 202 202 202 201 204 206 200 200 202 201 196 198 198 195 191 185 183 181 179 177 176 173 166 160 154 146 134 119 131 165 176 168 128 132 140 148 154 158 158 153 145 132 155 161 168 174 180 186 191 193 196 199 187 176 179 180 180 179 176 173 167 139 120 127 135 141 148 157 154 155 156 163 167 172 174 180 187 188 189 184 186 193 197 195 194 198 203 202 195 195 193 195 199 198 197 198 199 200 200 198 196 197 193 190 189 185 183 181 181 177 170 174 168 169 164 154 146 130 117 125 157 175 179 162 130 138 150 159 166 169 170 166 159 146 157 163 170 177 183 189 194 196 199 200 188 175 179 181 181 180 177 175 169 163 144 122 125 131 136 145 147 150 154 162 162 163 169 169 179 180 179 179 186 186 186 188 188 188 195 199 196 191 188 190 193 192 192 195 193 192 193 192 189 186 188 182 179 175 178 180 177 174 169 168 163 159 157 149 131 114 121 150 171 176 178 159 132 146 158 169 177 181 180 176 170 158 159 165 172 178 185 190 194 197 199 199 187 175 179 180 181 181 179 175 174 165 158 142 124 117 124 131 141 138 145 158 151 158 161 160 169 174 179 176 184 179 171 183 188 185 183 185 187 184 187 187 188 187 187 189 190 187 184 183 183 183 183 179 178 174 179 180 170 169 167 159 158 153 144 133 107 114 149 169 174 177 179 158 137 154 166 176 184 189 188 183 177 167 161 168 174 179 186 191 194 198 198 199 191 175 178 180 181 184 181 176 177 170 164 158 141 113 105 121 126 131 140 140 145 157 155 156 162 172 171 172 170 174 169 172 174 176 176 179 180 181 183 183 180 183 184 181 180 181 177 182 174 174 173 178 170 168 171 172 162 161 155 145 146 139 120 112 114 138 163 173 176 178 178 157 143 161 172 182 188 191 192 188 182 172 166 171 177 181 186 191 194 196 198 198 189 176 178 181 181 182 181 176 176 175 168 161 155 138 118 110 110 120 121 128 139 147 151 146 149 164 163 159 159 161 167 165 168 171 173 179 178 176 178 180 180 177 173 179 173 174 169 170 169 163 160 160 157 158 167 161 157 157 145 139 133 117 104 113 141 159 170 174 177 180 177 155 148 164 176 184 190 192 193 192 186 177 169 173 177 182 187 191 194 197 198 197 187 175 181 181 182 181 180 182 179 177 172 167 158 143 136 118 109 108 117 121 126 138 139 142 144 147 152 147 152 155 160 160 162 164 166 170 174 173 177 172 172 168 164 167 166 163 159 155 156 156 160 148 158 159 155 158 153 149 138 124 107 107 117 144 158 166 175 177 181 179 176 156 150 166 178 186 190 192 195 194 189 181 171 175 179 183 189 192 193 196 198 198 185 177 178 178 183 181 179 179 181 181 176 170 162 147 142 137 125 107 111 107 114 126 131 131 133 137 131 136 149 148 153 155 160 154 156 153 159 163 162 163 162 154 154 154 156 153 153 154 152 157 150 141 152 153 151 136 132 131 105 99 108 119 139 153 161 173 177 178 182 179 176 154 151 168 180 186 190 193 195 195 192 184 173 176 179 183 187 191 193 195 196 197 186 176 178 178 180 180 178 179 180 180 176 170 165 155 146 138 135 129 106 102 111 119 120 119 124 124 121 123 132 136 133 145 151 144 147 143 144 150 153 149 148 145 145 146 141 145 143 144 148 141 145 144 140 140 125 119 116 106 94 109 127 136 149 157 166 176 179 181 181 177 174 151 150 167 178 185 189 192 195 195 192 186 175 176 179 182 186 189 191 193 193 204 199 177 180 180 179 181 181 180 180 182 179 174 168 161 151 145 132 132 122 106 105 109 116 110 114 121 116 114 119 113 114 131 134 139 130 142 144 138 143 135 136 138 139 137 134 133 122 125 122 139 133 134 133 125 117 111 97 99 122 134 143 154 160 167 176 177 179 181 179 176 173 148 148 166 177 184 189 191 195 195 193 187 176 176 178 181 184 186 190 190 199 219 196 176 181 181 180 180 181 180 181 182 182 178 175 168 159 156 144 136 134 125 109 94 97 98 98 104 98 100 98 99 114 113 111 124 116 126 125 119 121 127 124 119 124 116 113 112 108 109 117 126 123 115 112 108 101 99 108 124 139 151 153 163 167 174 180 182 181 180 180 178 173 144 145 163 174 183 187 190 194 195 193 188 174 175 177 178 180 183 185 193 218 216 189 174 180 180 181 179 179 178 181 183 182 178 178 174 170 162 155 148 146 137 126 109 94 91 88 92 91 88 84 86 95 89 96 96 96 92 94 98 94 99 95 93 94 97 92 93 104 110 114 101 103 102 89 98 102 119 136 144 150 157 165 165 171 177 181 179 180 179 180 177 172 136 141 160 172 180 187 189 192 194 193 188 173 173 174 176 178 179 182 210 221 205 186 174 179 181 181 180 181 179 179 180 183 180 178 174 163 154 144 151 155 151 141 131 121 104 92 87 95 92 84 79 83 74 75 75 79 71 74 79 78 84 83 84 77 78 81 87 89 91 95 94 91 89 86 113 126 136 144 150 157 162 171 176 176 180 181 182 182 180 179 175 178 156 134 156 169 177 184 188 192 194 193 188 172 172 172 174 176 176 190 225 212 193 179 177 176 179 181 182 180 180 181 181 181 181 177 175 173 167 152 152 159 158 149 143 137 131 117 99 89 81 78 86 88 78 76 80 79 75 86 79 80 86 86 86 84 78 81 89 86 86 82 80 85 103 125 141 145 150 160 163 161 164 175 179 180 180 183 181 180 181 178 174 184 213 144 148 165 176 182 187 190 192 192 188 170 169 170 170 173 172 201 230 206 174 174 179 179 181 180 180 182 179 180 178 180 180 178 171 169 170 169 164 163 158 149 145 150 148 141 133 125 102 88 84 81 80 81 80 79 76 81 84 87 90 87 84 87 83 72 76 76 82 87 108 133 142 152 157 159 163 167 172 171 174 176 179 181 184 184 180 181 182 177 174 182 235 188 142 161 172 179 185 189 191 191 189 169 168 168 169 171 171 212 233 205 156 168 180 180 184 183 179 181 178 176 178 180 178 175 175 174 171 171 172 170 168 160 156 158 155 153 148 141 135 127 123 112 95 84 81 83 72 78 80 82 78 77 73 80 76 78 95 106 127 141 153 160 165 170 169 169 171 173 177 178 177 178 180 180 181 182 183 182 179 179 174 185 230 229 165 155 169 178 184 188 190 190 188
