P2
# Generated by OpenCV 4.2.0
92 112
255
124 112 105 106 98 96 92 91 102 95 95 122 141 154 169 183 190 194 203 203 198 203 199 202 203 206 209 208 205 207 206 207 208 206 201 195 191 190 187 190 194 188 182 174 167 152 145 155 139 113 89 80 76 96 104 89 84 84 100 125 126 136 135 125 119 129 134 122 122 120 99 88 82 75 68 88 103 96 79 114 106 95 94 86 72 60 58 32 35 18 19 22 138 99 110 106 106 100 90 85 100 100 113 131 146 162 174 188 192 197 201 201 201 201 200 203 203 206 207 208 205 203 206 206 206 208 204 199 194 188 184 184 184 183 180 182 177 165 154 152 145 132 97 90 70 90 106 103 98 90 82 85 105 115 120 125 120 105 118 102 86 77 69 67 68 67 67 78 77 76 76 71 102 97 99 109 82 51 64 28 34 31 18 16 128 107 103 97 98 102 82 79 100 106 121 138 155 169 179 189 192 200 203 202 202 199 200 202 202 205 206 206 205 204 205 206 204 207 202 202 200 193 187 182 179 175 173 176 178 172 158 148 146 144 124 100 81 74 117 113 107 98 94 84 68 76 86 92 103 98 101 101 82 78 76 66 58 62 74 63 64 61 69 70 84 108 109 105 99 52 65 42 29 36 40 26 115 123 110 93 74 75 56 87 104 109 128 145 165 172 183 189 196 204 205 202 204 198 201 204 204 205 206 205 206 207 204 202 205 206 203 203 203 203 201 196 192 181 170 171 180 180 171 163 149 142 141 123 98 67 101 109 103 97 78 59 59 69 77 81 87 88 81 90 77 73 80 74 59 61 59 60 72 55 51 63 76 69 87 95 103 66 56 60 42 37 48 49 113 134 135 96 93 91 63 92 95 114 130 144 165 174 182 187 197 204 204 203 203 203 200 202 204 204 206 206 206 208 205 204 206 205 207 208 206 206 208 208 204 197 184 180 185 185 183 179 164 154 152 146 129 88 66 75 66 54 51 65 84 91 84 76 78 75 72 76 74 65 60 66 63 56 59 64 64 44 45 52 53 69 59 74 100 81 65 75 58 50 43 47 117 132 133 95 95 89 72 89 92 114 130 143 165 178 184 186 194 201 200 200 203 204 202 203 205 205 206 207 206 206 206 206 206 207 208 209 207 209 207 209 208 208 199 190 187 189 190 186 178 164 155 150 147 129 97 83 69 76 95 107 117 114 106 89 72 69 68 66 64 67 64 61 62 61 59 53 46 43 54 45 45 61 77 88 92 92 86 74 66 60 40 41 110 134 118 92 93 80 72 87 96 108 136 159 178 185 186 187 191 199 202 198 200 200 198 201 202 205 209 207 203 205 207 207 205 207 207 207 207 207 206 205 203 204 201 201 197 192 187 187 185 174 161 151 149 144 134 121 120 126 132 124 119 117 113 109 87 72 76 75 62 60 64 56 55 58 57 54 54 65 59 46 43 54 75 99 86 96 99 85 74 57 51 45 96 127 95 80 101 73 69 74 89 109 140 165 177 184 188 186 188 197 197 200 202 201 200 202 204 208 209 206 203 207 207 207 209 208 209 208 207 205 206 203 201 199 201 202 201 195 191 191 189 182 169 161 152 145 143 140 136 136 134 131 126 124 120 114 107 91 76 77 77 66 57 65 67 65 62 68 65 59 55 53 54 59 70 82 82 104 101 99 81 69 67 73 98 118 85 69 84 70 60 63 93 116 143 162 176 187 190 189 190 196 197 202 205 202 201 203 208 208 209 207 208 206 206 208 210 210 209 208 207 208 210 209 206 206 205 204 200 201 199 195 190 187 181 173 160 153 153 154 154 149 143 138 136 135 130 125 119 112 93 79 87 88 71 63 71 74 58 56 54 54 57 54 59 62 70 83 91 94 103 102 79 68 77 73 102 116 82 64 62 62 61 64 96 124 150 166 173 184 188 187 192 194 196 201 200 200 201 203 209 207 207 206 207 208 208 210 210 209 206 208 209 208 208 210 209 209 210 209 204 203 202 202 199 194 191 185 179 175 171 170 171 165 159 151 145 142 134 131 125 118 113 101 86 87 92 82 72 77 79 65 56 51 55 51 63 72 77 84 86 90 98 99 95 83 83 57 108 111 72 60 57 56 58 72 108 131 153 165 175 186 191 187 192 193 196 200 201 201 200 197 203 204 204 203 206 208 209 210 208 207 207 208 208 206 206 205 208 208 207 208 204 203 203 204 203 200 200 197 197 192 188 188 186 178 176 171 165 153 144 137 133 126 120 120 108 87 89 89 83 77 85 81 70 66 65 60 66 78 79 87 95 98 96 105 114 89 61 54 99 98 64 60 55 53 55 78 114 137 154 169 178 187 188 189 191 197 200 201 197 201 199 197 199 200 203 201 202 204 203 205 206 206 209 209 207 208 209 206 206 207 206 207 206 204 203 206 203 203 199 199 199 197 198 201 195 190 188 185 181 174 165 154 144 134 131 128 125 108 105 95 89 85 84 92 85 85 93 88 75 82 83 91 99 109 101 111 134 122 87 57 110 96 55 57 48 53 52 90 118 138 155 171 180 187 187 188 193 198 200 200 198 198 198 197 197 198 200 200 200 197 199 202 203 206 209 207 208 209 207 206 208 207 205 204 205 206 205 206 204 203 199 201 198 194 198 199 196 194 192 191 190 186 182 176 158 154 149 143 138 123 117 117 110 104 100 101 105 108 115 118 109 103 89 81 87 99 101 106 127 127 81 43 114 86 51 48 40 54 59 96 119 141 161 171 177 184 185 186 192 199 198 197 197 194 192 197 200 198 199 196 197 192 194 199 199 205 205 208 207 208 207 205 207 208 203 204 207 204 204 205 205 204 202 202 201 199 201 201 198 197 194 193 190 189 188 186 179 175 167 160 151 143 134 132 129 121 117 114 113 115 124 130 129 128 115 103 98 102 115 104 121 134 97 47 120 61 44 49 45 46 68 95 125 146 164 171 176 180 183 186 188 194 198 197 195 194 192 195 199 199 197 194 195 194 193 199 204 205 203 201 203 204 204 205 204 199 202 206 207 203 204 205 206 204 204 204 200 201 202 200 199 198 199 197 193 194 192 190 187 183 181 178 168 160 157 149 144 142 137 135 135 130 127 127 130 129 118 113 113 116 115 101 107 125 126 75 98 47 45 47 50 49 72 97 126 141 159 168 177 183 184 185 186 190 189 189 194 193 190 190 194 194 193 193 192 194 195 197 202 206 206 199 200 203 203 206 203 200 202 199 196 200 204 204 203 203 202 201 200 203 202 200 198 198 199 200 196 196 195 194 192 187 185 183 177 171 167 165 163 162 158 153 152 151 149 149 151 144 134 123 118 123 123 100 101 110 116 103 70 48 46 44 53 55 68 100 127 149 164 172 175 183 185 182 183 188 183 187 192 190 189 189 190 195 194 192 193 191 194 197 198 201 201 200 200 202 201 204 202 202 199 197 194 198 201 205 203 203 202 202 204 202 201 200 200 200 200 200 201 198 196 193 190 189 187 185 184 180 175 173 173 174 174 174 172 168 167 161 155 152 142 129 125 122 123 103 99 108 101 109 48 50 48 51 49 57 66 101 135 154 168 173 173 180 185 184 187 190 187 192 193 189 184 184 192 193 192 194 196 195 196 198 199 196 197 198 199 201 201 199 199 198 194 197 198 197 200 203 200 198 199 201 202 199 197 199 199 198 199 200 201 197 197 193 192 191 190 189 186 183 182 180 179 180 180 181 179 177 178 171 162 156 144 132 127 118 119 107 96 103 100 101 46 48 49 47 54 52 70 107 142 156 170 172 173 177 182 181 185 192 193 194 193 188 184 187 192 198 195 195 198 196 196 199 198 198 198 198 199 200 201 199 198 197 192 195 199 201 202 200 203 205 204 204 204 201 203 202 203 202 202 199 197 197 198 195 192 193 190 191 187 182 184 183 180 183 186 183 183 184 182 174 168 163 151 136 127 113 106 107 94 106 101 82 44 53 50 46 53 54 78 113 142 158 169 171 170 176 179 181 185 188 192 194 194 194 194 193 192 194 201 200 198 198 196 199 201 201 200 202 202 203 203 202 200 200 198 198 197 201 202 200 202 205 206 203 200 201 202 201 200 201 202 200 198 198 199 197 194 194 191 191 191 188 189 186 186 190 190 185 190 192 186 174 171 171 158 141 133 113 97 101 88 88 92 83 53 57 50 50 50 64 83 118 145 155 167 172 170 175 175 177 183 185 190 191 193 195 195 196 197 197 201 205 205 204 193 196 204 204 205 207 205 204 204 201 203 200 200 201 200 201 200 204 205 205 204 203 200 203 202 201 201 201 201 201 201 199 203 199 197 197 190 192 192 191 192 192 189 190 191 187 188 191 189 178 174 173 159 139 130 119 101 93 93 84 76 76 66 64 55 56 46 69 86 120 146 155 162 166 166 173 172 176 178 184 191 194 196 196 196 197 197 201 202 204 211 212 210 208 207 207 209 211 209 207 208 206 205 202 203 204 202 203 200 202 206 205 206 204 203 205 206 203 202 204 207 206 204 206 203 197 200 200 196 195 193 194 194 193 188 190 191 190 189 187 183 179 175 175 161 143 127 111 101 88 92 84 76 62 78 73 66 57 51 74 96 123 147 156 159 164 168 171 172 173 173 176 184 191 195 195 192 194 197 201 204 206 213 215 216 214 213 213 211 209 213 211 210 207 207 205 206 207 201 203 204 204 204 204 205 204 202 203 206 205 202 206 208 206 206 206 206 201 201 203 203 201 195 195 195 190 188 190 194 191 191 190 182 178 176 173 161 145 132 112 95 85 87 81 72 64 101 86 68 58 50 74 98 128 148 155 157 162 169 170 172 171 172 177 184 190 193 191 196 200 197 202 206 210 211 213 213 211 212 213 212 214 215 213 211 209 207 207 208 206 203 204 206 208 204 202 204 206 204 206 207 207 208 212 211 210 210 209 210 209 206 207 206 205 201 199 196 192 192 190 193 191 190 183 177 174 174 174 165 152 133 109 87 72 84 77 75 62 121 99 70 62 50 74 92 130 151 155 157 163 166 170 170 177 182 185 189 192 195 192 193 201 205 203 206 207 208 213 212 212 212 213 214 215 217 217 214 212 207 206 208 206 203 205 207 207 207 203 204 206 205 207 209 210 211 213 213 213 213 212 212 213 212 207 205 205 205 198 196 194 194 193 192 189 188 179 170 169 174 173 168 162 139 105 79 61 74 85 76 62 142 117 84 66 54 68 91 131 148 154 158 166 167 169 175 187 192 192 190 192 197 195 196 201 202 199 200 204 207 210 212 212 210 212 213 213 213 215 215 211 209 209 208 204 205 205 205 205 205 206 204 205 206 209 210 212 213 213 214 213 214 213 213 215 213 208 202 204 203 197 197 194 194 190 188 186 181 177 168 166 171 175 174 165 139 105 77 57 63 87 72 68 133 114 92 64 58 63 95 132 148 153 159 163 169 179 187 194 200 200 197 202 203 206 205 207 204 202 200 204 204 209 211 209 209 209 210 214 211 212 213 211 210 211 210 205 205 206 207 207 206 207 204 207 208 209 209 211 211 213 214 212 214 213 212 213 212 208 204 206 201 200 196 196 196 194 190 188 182 174 166 165 170 172 171 159 133 104 70 52 64 78 66 69 115 104 95 63 62 71 96 131 146 151 154 163 173 186 195 199 205 210 210 209 209 208 206 206 204 200 202 211 206 204 206 206 209 210 208 209 212 213 212 209 207 208 207 205 204 207 207 205 205 206 204 204 204 207 209 210 209 212 213 213 213 210 210 209 210 208 207 205 203 198 197 196 194 196 195 188 181 175 168 167 166 162 157 159 133 105 68 39 63 86 50 54 121 98 83 77 69 69 96 132 148 152 157 165 177 178 191 198 195 198 197 197 195 197 195 191 189 193 197 201 202 200 204 206 206 207 210 209 208 208 209 207 207 207 205 204 203 204 204 202 203 204 202 202 204 205 205 207 208 209 209 210 208 207 208 208 207 204 204 201 203 199 196 198 197 193 185 185 182 178 172 168 164 158 159 157 134 104 66 38 67 85 48 33 109 87 80 77 77 79 101 134 149 152 159 168 173 173 174 177 172 175 177 175 168 169 172 172 176 176 173 177 189 197 201 203 205 205 208 212 210 206 204 206 207 204 202 202 200 201 201 200 202 203 200 201 206 205 204 207 207 205 205 206 205 207 207 207 204 202 199 199 203 197 191 195 197 195 188 188 185 178 170 170 166 160 158 151 134 106 63 47 75 79 51 38 115 85 82 77 79 87 104 138 149 150 158 164 169 170 161 154 151 150 151 155 158 148 143 146 152 150 149 155 161 173 179 180 188 192 200 205 201 202 203 204 203 201 198 200 201 201 201 199 200 200 198 201 203 202 202 206 206 202 201 203 205 207 205 204 205 203 199 200 201 199 199 198 199 201 198 194 189 185 177 170 169 161 154 149 135 105 67 62 63 75 61 42 138 100 89 78 86 89 103 141 152 153 162 163 163 164 155 139 132 134 126 130 134 129 123 115 113 117 121 130 136 144 152 156 163 168 172 191 194 196 198 200 200 199 197 196 198 199 201 201 198 196 198 199 198 201 199 202 202 201 199 199 203 206 205 204 203 203 200 200 201 200 200 200 203 205 205 205 196 192 187 175 172 162 151 147 135 108 73 60 51 67 64 51 142 126 103 83 89 86 103 139 154 156 163 162 161 163 153 139 132 128 123 120 119 116 108 106 100 92 88 98 109 114 122 127 137 147 151 165 183 187 186 192 193 193 194 193 196 194 197 196 198 195 196 196 195 197 197 199 200 198 195 192 198 201 201 200 197 193 190 191 187 189 190 193 189 193 204 210 205 201 191 183 176 165 152 145 140 107 67 48 49 53 64 62 149 138 130 97 91 89 108 141 161 164 165 160 159 162 159 146 141 127 120 120 116 114 108 104 106 97 79 75 82 89 87 101 112 123 140 141 164 168 172 180 183 186 189 188 187 189 192 193 194 195 191 192 193 192 192 193 194 186 180 180 181 180 176 172 172 171 169 168 159 166 172 171 171 175 186 198 204 198 194 185 178 166 156 150 139 110 68 46 53 57 57 48 143 132 125 103 90 92 114 144 161 165 166 161 161 159 154 139 127 121 114 111 109 108 105 102 103 104 99 90 83 78 79 79 92 108 126 127 137 152 163 170 174 177 179 182 185 187 184 186 187 188 187 186 185 183 185 183 178 173 167 164 154 148 140 138 142 143 139 137 134 134 142 149 152 159 165 168 175 178 180 180 178 168 158 149 140 114 74 58 63 64 59 63 132 120 105 101 95 102 116 143 163 164 163 165 166 164 149 125 114 111 109 107 111 110 106 108 107 105 101 100 102 96 90 90 90 98 110 119 125 142 150 155 163 163 167 175 178 178 175 175 178 178 177 176 176 178 175 170 161 157 155 135 123 118 115 113 111 107 107 110 110 107 105 115 130 133 134 133 142 158 171 174 175 166 157 150 143 116 74 64 71 68 62 69 127 116 106 101 96 111 122 145 164 167 165 169 173 170 148 123 110 107 114 115 109 106 105 110 110 107 105 104 105 102 96 97 99 101 105 111 118 128 137 140 148 153 156 161 162 164 164 167 168 167 164 166 165 164 158 155 149 141 132 119 101 95 87 78 79 79 79 85 90 91 91 99 110 119 121 123 132 144 160 169 168 161 155 151 144 118 77 70 78 74 65 68 135 124 111 104 93 109 127 147 166 171 167 167 170 163 147 140 129 108 93 101 113 116 116 110 109 110 100 94 92 99 105 106 103 100 99 104 108 115 123 127 132 139 144 147 149 155 159 159 160 161 158 152 153 152 148 144 137 123 115 105 95 86 86 82 80 83 87 93 97 100 107 114 116 122 129 132 135 148 163 169 166 161 153 151 145 116 86 70 78 80 78 66 152 143 120 104 96 110 124 150 167 172 170 169 167 151 135 130 109 92 112 130 125 115 104 98 89 95 96 93 87 76 78 95 106 105 104 99 98 102 108 115 121 127 132 138 144 149 154 158 157 153 149 143 139 139 133 127 118 111 104 98 94 94 95 97 100 105 111 118 119 123 125 125 125 125 125 130 144 152 159 168 167 165 157 152 150 119 94 85 82 74 82 70 171 157 129 99 95 115 129 151 168 175 177 172 168 149 131 118 109 113 113 98 95 96 97 65 61 64 51 49 61 74 69 68 78 97 106 105 102 97 95 100 109 117 123 129 135 146 154 159 156 145 142 132 126 122 116 108 104 100 97 100 103 103 105 108 111 112 119 127 133 135 139 142 141 138 136 135 137 140 156 168 168 165 163 159 153 120 90 91 89 74 67 76 172 158 132 96 93 110 135 153 168 175 180 174 167 156 142 126 117 102 90 87 118 140 118 65 66 46 36 44 52 42 75 78 72 71 94 105 106 102 96 89 92 104 114 124 137 155 163 166 157 144 128 119 113 106 102 96 97 101 101 104 103 96 87 84 93 96 106 112 115 107 103 104 119 134 141 140 135 138 158 171 169 166 165 164 154 118 92 97 93 80 65 78 174 157 133 102 91 109 134 153 169 176 178 176 173 170 163 149 140 138 140 132 144 153 125 55 78 69 40 65 67 67 110 82 77 69 76 91 95 95 95 92 91 92 107 128 152 167 176 182 173 155 132 112 99 94 95 97 101 102 101 87 74 73 75 74 77 83 95 94 110 122 117 108 99 93 109 136 142 149 164 172 171 169 167 168 153 117 98 102 96 81 76 88 177 162 136 99 92 105 130 155 172 179 182 182 179 177 170 160 153 157 165 163 164 160 153 74 66 93 89 89 65 108 155 130 90 74 74 80 84 88 90 89 90 93 104 133 160 180 193 194 182 162 134 102 90 92 96 98 97 94 83 74 74 78 73 47 50 47 53 55 67 79 91 111 121 121 93 107 149 159 163 167 170 170 169 166 152 119 104 100 98 80 90 99 169 173 145 106 84 94 128 157 175 184 187 187 188 183 176 174 166 158 163 167 163 167 176 150 81 61 68 69 94 150 146 126 98 83 75 73 85 113 115 113 101 99 110 137 169 193 206 205 193 172 131 98 92 94 93 91 88 86 81 79 79 97 93 52 61 35 30 54 64 56 106 100 84 104 128 106 127 155 163 166 170 169 166 166 150 117 108 102 100 87 100 114 157 173 172 136 86 88 126 159 177 187 186 188 192 192 188 180 174 162 155 158 160 155 163 170 158 141 130 141 162 153 139 131 121 111 108 103 112 141 144 130 111 113 128 150 178 202 216 215 203 179 137 104 101 105 113 108 94 90 82 79 101 141 140 71 81 71 61 87 61 65 146 135 88 69 93 119 119 135 159 170 171 169 169 168 152 119 108 103 99 105 112 125 164 149 175 176 104 89 122 156 182 186 186 193 198 196 192 186 175 173 161 145 144 145 147 151 155 166 150 163 149 144 148 142 135 137 140 148 151 147 137 126 120 135 147 166 193 210 220 219 210 189 146 120 113 131 147 133 99 93 93 92 108 130 149 103 64 92 93 80 51 110 148 143 131 123 109 110 126 144 162 171 171 172 171 172 154 124 112 107 96 133 145 137 177 155 169 177 118 89 115 154 184 186 184 196 200 201 198 192 188 183 173 153 138 132 131 135 138 140 141 149 142 140 142 134 130 138 150 158 159 158 153 142 143 149 155 178 203 215 220 221 214 196 161 145 133 134 146 146 142 130 120 124 127 133 149 157 116 103 86 77 120 169 162 159 155 155 160 155 159 171 174 175 178 175 174 172 153 124 116 106 106 148 161 146 185 180 169 165 139 88 93 151 183 186 187 193 204 206 204 198 190 185 175 164 152 140 125 121 121 124 122 125 132 135 131 135 148 162 167 172 175 178 171 162 164 160 165 184 207 219 223 220 219 206 176 159 157 154 161 162 157 156 141 131 129 139 145 153 168 172 165 159 164 168 161 155 156 162 166 169 176 181 185 183 182 176 174 170 151 124 119 106 117 146 151 145 196 191 166 154 153 99 91 144 184 183 190 196 205 205 205 202 195 190 178 162 163 154 145 139 136 135 135 138 142 146 145 155 168 172 170 179 191 188 181 176 174 168 175 189 207 222 225 222 218 209 187 169 172 170 179 177 170 162 154 138 133 147 155 152 150 156 164 156 144 148 149 151 154 158 171 185 192 190 189 187 188 180 175 169 151 127 121 107 131 137 126 155 210 183 168 153 157 141 96 135 181 182 186 193 200 206 209 207 202 196 186 175 168 160 156 149 146 147 147 153 158 160 167 167 172 177 188 198 194 188 188 185 173 169 178 192 209 220 221 219 216 206 191 175 176 179 182 184 180 167 168 158 137 129 140 149 147 153 153 149 147 147 145 147 149 159 175 187 188 191 195 193 189 183 176 170 152 124 117 112 126 137 149 178 211 171 162 155 146 146 104 124 178 176 179 189 197 203 208 211 211 206 199 195 191 182 177 175 172 173 171 171 176 171 174 175 176 185 196 201 199 196 192 185 174 173 181 192 207 218 221 218 218 206 192 180 180 185 189 192 193 183 179 176 166 148 135 125 121 121 126 130 134 133 137 144 156 172 179 183 188 195 198 195 188 184 181 173 153 122 110 116 138 164 180 175 206 164 158 152 141 122 102 124 176 174 176 185 195 201 206 213 216 217 215 210 204 196 190 190 184 176 177 174 167 169 172 182 184 189 194 198 198 194 187 185 182 180 186 193 208 220 222 217 218 209 195 185 178 185 194 200 205 201 188 184 181 174 166 158 146 138 130 130 131 135 146 163 176 185 182 185 194 201 203 195 187 184 180 172 150 118 109 119 162 188 173 149 214 160 158 159 148 133 112 122 171 171 172 178 186 195 201 211 215 215 217 216 215 207 201 191 186 184 181 175 175 178 179 187 194 193 193 190 186 186 183 187 185 184 187 194 208 220 220 220 218 209 196 187 179 184 194 199 202 204 198 193 184 179 175 171 163 162 162 155 154 160 164 171 178 188 189 190 199 208 206 196 185 184 181 172 146 121 113 131 156 184 163 148 227 162 162 168 164 155 132 123 164 169 169 173 179 184 196 203 208 213 215 216 217 215 214 212 205 202 197 193 192 192 190 194 196 194 189 189 184 184 186 187 186 186 189 195 205 218 220 221 219 209 195 185 181 182 193 198 197 205 203 201 194 189 183 177 176 174 173 171 170 172 174 177 181 182 189 202 208 207 203 194 186 182 181 175 143 122 127 156 168 176 175 172 235 177 159 170 170 167 149 126 153 168 165 168 175 181 190 198 204 207 210 214 215 213 216 217 215 212 208 203 202 202 200 198 194 192 189 189 188 183 186 185 184 189 195 199 208 218 223 222 220 209 195 184 184 188 191 196 194 201 202 201 199 197 190 185 184 184 184 189 193 194 198 202 205 205 208 212 211 207 201 194 187 180 180 171 139 138 168 180 175 172 186 185 232 200 152 165 170 168 158 135 152 164 161 165 169 177 184 190 198 203 208 208 209 211 211 214 215 215 214 212 204 204 203 200 198 196 193 189 187 186 188 191 192 193 198 206 212 218 221 222 218 208 195 186 185 189 190 191 193 197 203 205 204 200 203 199 194 195 199 202 206 208 210 212 216 218 217 216 213 206 199 191 186 178 179 166 134 151 180 180 171 174 185 194 226 226 160 146 162 165 159 142 150 164 157 161 172 179 185 192 191 197 205 210 212 212 212 213 214 214 214 212 207 205 201 198 197 198 196 193 187 188 187 193 196 196 202 210 213 218 221 221 220 211 199 190 187 190 194 192 193 197 201 203 208 209 210 209 210 212 216 214 214 216 217 217 221 220 218 215 211 204 195 190 183 176 179 164 128 143 165 166 169 177 182 202 226 229 214 143 132 150 155 143 151 163 152 161 172 186 196 198 192 196 206 210 212 213 211 211 214 215 214 212 208 206 206 203 198 195 195 191 187 190 192 190 195 200 206 214 216 221 222 221 220 212 203 196 191 191 193 191 190 196 201 203 204 209 212 214 212 217 219 221 218 219 220 219 220 218 214 211 211 206 193 185 176 170 177 163 139 155 162 165 171 179 181 206 226 225 230 216 155 126 130 137 152 163 151 160 170 181 192 194 193 198 204 206 209 210 211 210 211 215 212 210 206 206 209 205 197 193 192 191 187 185 190 189 191 202 210 214 219 223 221 221 220 216 207 199 191 190 191 187 189 198 201 203 204 208 213 213 215 217 213 217 213 216 219 220 218 214 211 209 207 201 193 182 171 170 177 159 161 169 169 173 179 181 178 208 226 226 224 229 229 202 167 141 155 167 149 156 165 174 183 186 192 198 198 199 206 208 208 209 209 211 211 210 207 208 207 206 202 197 191 186 179 181 185 188 193 204 211 216 220 222 221 221 219 215 209 201 191 187 187 183 188 196 200 206 207 210 211 211 214 216 213 212 204 207 218 219 216 211 209 206 204 195 186 176 171 171 174 159 176 180 179 179 183 181 179 220 226 227 224 225 226 231 235 211 160 166 149 151 164 173 177 185 186 190 195 197 198 200 206 209 209 208 208 211 207 206 206 201 200 190 186 179 178 190 188 191 199 210 213 219 221 220 221 220 219 215 209 201 189 187 188 182 183 196 201 203 208 210 209 210 210 211 209 209 211 213 215 215 214 212 209 207 200 193 182 175 169 170 169 162 177 182 184 179 178 171 189 229 226 225 224 225 225 226 229 223 162 166 154 148 162 163 166 177 181 182 186 192 193 196 199 205 205 205 207 207 203 197 199 192 187 185 182 180 197 208 202 193 202 209 212 217 218 218 219 218 220 216 210 203 193 189 195 187 180 190 197 200 200 204 208 209 205 203 205 209 209 209 211 212 210 210 209 204 198 191 182 173 166 169 167 162 177 179 181 173 164 159 212 231 227 226 224 225 225 226 228 224 179 168 157 148 155 154 156 163 173 177 176 181 186 190 194 196 198 198 201 203 195 190 192 187 180 178 176 192 209 212 203 195 203 207 206 211 216 218 220 218 219 215 207 203 194 196 204 198 183 185 194 196 198 204 206 208 203 200 205 207 208 206 206 207 207 203 202 200 197 189 178 170 168 172 166 162 175 173 168 154 140 183 230 227 227 226 225 225 226 226 227 227 187 166 155 145 152 154 153 162 167 169 173 175 179 184 188 191 193 194 193 195 192 186 182 180 181 179 177 197 207 211 201 195 200 201 201 207 212 215 216 218 216 209 202 198 192 199 210 204 192 182 185 188 196 199 202 204 200 202 207 207 206 204 203 204 204 199 193 194 192 186 178 170 168 173 160 152 155 147 141 143 183 229 229 228 227 225 226 226 227 226 228 226 184 162 156 144 151 151 153 154 160 164 168 171 173 177 180 185 184 188 191 184 183 179 176 179 183 178 182 199 205 203 194 187 191 193 194 201 205 205 205 209 208 205 199 191 187 196 208 206 196 177 179 183 187 192 195 197 197 200 201 199 202 201 200 198 195 194 188 187 185 179 175 170 169 176 154 148 162 175 197 218 233 229 227 226 228 226 226 226 226 226 228 226 184 166 157 143 149 149 149 150 155 158 161 164 167 171 174 173 172 173 170 174 173 174 178 184 189 180 176 187 189 186 183 173 175 182 185 189 190 191 193 198 198 192 186 179 176 190 202 200 192 181 183 186 185 188 185 194 197 197 193 191 197 192 193 192 188 188 184 176 175 170 170 169 170 176 156 193 232 234 235 231 228 227 227 226 230 226 227 226 226 226 228 224 183 166 159 145 143 146 143 142 144 147 153 155 160 162 163 163 167 162 159 163 165 168 178 187 192 181 163 164 164 157 155 151 147 153 162 167 168 173 179 180 179 174 165 158 161 175 185 187 185 179 187 193 188 188 185 189 191 194 195 192 190 186 183 186 182 178 171 171 173 172 170 170 172 169 160 214 233 229 229 228 228 228 227 227 231 228 226 226 225 226 227 228 196 164 161 145 137 139 136 134 135 137 142 146 152 157 152 152 158 153 150 154 160 174 183 187 186 184 159 132 127 110 100 106 117 123 127 137 142 151 158 159 154 143 133 130 143 155 162 167 171 172 188 191 184 183 183 189 194 192 188 187 183 181 178 175 172 172 165 166 168 169 166 166 173 164 167 224 230 229 229 229 229 228 227 226 231 228 227 227 226 226 229 231 200 165 160 141 135 138 137 134 133 132 135 141 145 150 146 145 144 143 149 158 173 184 187 187 183 181 166 127 104 85 78 76 73 94 112 113 119 132 137 139 131 119 111 104 102 118 136 144 151 169 184 183 181 179 178 184 189 190 181 179 177 177 175 165 164 164 159 158 158 159 160 167 174 163 174 226 231 228 229 229 229 228 227 226 231 228 226 226 226 226 228 232 203 164 161 145 133 132 137 134 133 135 137 140 140 141 140 131 132 149 165 179 186 192 192 188 183 177 172 154 119 99 99 103 102 86 85 102 113 120 117 115 116 94 72 72 72 80 101 121 150 172 182 183 185 180 168 165 165 170 172 173 173 172 169 163 160 160 156 154 151 150 156 166 176 167 181 230 230 229 229 228 229 228 227 226 232 228 226 226 226 226 227 231 211 168 159 150 139 131 136 136 135 133 136 140 137 134 128 130 154 173 182 186 190 193 194 190 187 183 174 160 146 128 114 111 114 110 91 83 99 106 107 102 88 82 91 94 91 97 114 138 169 178 187 191 192 188 172 152 152 163 171 174 174 170 162 157 153 153 147 147 144 146 151 162 174 160 185 230 228 230 228 229 229 228 228 228 232 229 226 226 227 227 227 231 213 166 159 150 142 133 135 138 131 132 138 133 127 122 133 162 175 177 179 185 187 188 193 192 182 180 176 167 154 140 125 118 116 117 119 111 92 86 85 82 89 96 101 103 112 128 149 170 183 186 196 197 196 190 185 167 142 142 167 176 178 172 156 153 152 145 138 137 138 143 151 163 174 163 193 230 227 229 228 229 229 228 227 227 233 231 227 227 227 228 228 231 220 168 162 151 147 136 140 137 129 136 134 128 121 134 163 170 165 172 180 184 180 184 186 187 184 179 175 171 161 145 128 130 129 126 131 129 111 104 101 108 115 111 114 121 129 140 157 175 181 188 197 197 197 197 191 185 164 131 123 134 142 154 161 156 148 137 137 135 136 142 155 165 171 167 207 234 232 230 230 229 229 230 229 229 233 230 226 227 227 228 228 230 221 167 162 154 149 143 143 137 130 137 136 129 131 155 165 164 164 171 176 175 176 178 187 188 187 183 176 174 163 151 143 137 133 126 124 124 109 115 114 111 116 120 118 127 138 147 165 175 180 184 194 197 199 195 192 184 180 163 131 114 127 152 175 167 144 135 135 131 133 146 161 163 165 166 209 233 230 230 229 229 229 230 230 229 233 230 227 227 227 227 228 230 223 171 167 158 153 147 147 143 133 136 135 131 146 164 164 167 166 167 167 169 174 177 190 187 180 181 179 172 169 158 154 151 142 133 125 116 109 118 120 121 128 132 131 134 149 159 167 171 175 180 187 190 190 186 183 178 177 177 166 142 117 134 142 146 143 141 137 130 135 152 163 167 171 179 216 232 231 230 230 229 229 230 229 229 233 230 229 227 226 225 228 230 232 188 163 163 156 151 151 148 141 138 140 135 153 164 161 164 165 161 162 161 169 174 178 181 181 173 171 167 168 161 158 157 148 147 139 124 122 130 130 132 139 144 146 147 156 167 159 167 180 191 190 186 184 181 175 173 173 179 166 132 118 109 109 127 135 141 141 135 143 157 164 166 166 181 223 232 232 231 231 231 230 230 229 229 233 230 230 228 227 227 229 229 235 198 162 165 158 153 151 148 143 142 147 146 160 161 152 155 152 145 150 152 159 165 166 171 178 176 167 169 166 157 160 163 162 158 149 138 132 137 137 141 154 154 154 155 160 170 169 171 182 185 188 186 184 181 173 165 166 167 168 147 133 117 110 123 136 147 142 138 154 160 166 164 159 184 232 233 232 234 234 232 231 230 229 229 234 232 230 229 229 229 229 229 234 202 157 163 161 159 157 157 150 147 150 153 163 161 145 139 135 138 139 145 148 161 173 172 174 176 174 165 159 159 162 160 161 160 154 143 140 146 145 151 160 159 158 164 165 169 174 177 180 178 183 182 180 176 174 160 158 156 158 157 150 135 120 134 140 148 140 148 158 162 164 173 162 182 216 219 217 217 216 214 213 211 210 210 236 234 230 228 228 228 229 230 234 214 156 164 163 164 161 161 152 152 155 157 161 151 137 129 125 128 133 141 145 156 168 169 170 177 178 173 172 165 172 161 160 164 162 152 160 161 157 159 163 163 165 170 175 175 178 183 183 179 180 186 180 172 166 156 148 143 151 153 154 147 137 145 148 146 144 157 160 161 163 168 173 161 136 134 132 132 130 126 123 121 120 121 227 223 220 218 217 216 217 216 219 210 166 156 163 165 163 161 157 155 156 162 164 159 145 125 120 119 118 116 118 134 137 140 147 152 154 166 171 168 168 164 170 175 178 176 184 184 179 182 179 179 174 171 183 181 175 174 174 174 172 177 173 159 150 138 134 126 139 151 160 154 148 153 151 146 152 161 162 162 162 165 172 98 55 59 59 59 58 58 57 57 58 61 166 159 154 152 150 148 145 143 142 140 158 150 154 166 168 167 163 158 156 160 165 161 153 131 123 128 130 114 91 80 86 108 126 133 129 136 146 144 136 136 142 150 163 176 184 189 185 178 168 160 148 147 154 152 150 148 140 131 136 132 149 157 147 135 125 121 125 143 159 158 159 160 151 149 155 161 164 163 157 169 158 82 59 61 61 62 62 63 62 63 65 70 90 83 78 74 71 70 67 66 63 64 111 150 149 160 166 167 166 162 157 160 161 158 158 149 138 145 149 141 130 114 87 85 103 118 115 113 127 140 140 126 117 116 120 124 134 140 134 118 118 121 121 128 132 134 135 140 135 118 111 107 106 100 108 121 127 124 130 143 159 164 169 160 146 154 161 165 165 163 158 159 134 69 64 65 65 64 65 66 65 66 69 78 102 93 80 72 66 65 63 64 63 62 80 134 145 152 163 159 163 165 165 158 160 159 166 169 156 149 152 149 151 150 146 118 93 91 82 75 72 83 99 113 119 116 124 110 112 112 105 107 119 130 124 116 110 103 99 106 110 114 111 105 93 109 133 151 151 142 142 158 167 168 165 157 152 163 162 160 162 162 158 156 115 66 69 68 67 68 68 68 67 69 73 82 118 105 91 78 71 69 67 66 66 65 74 113 145 148 161 161 163 165 166 158 159 160 166 170 167 162 155 161 160 155 151 151 137 122 114 109 102 87 76 74 73 77 81 81 85 82 82 86 82 84 82 86 91 97 101 105 104 105 113 133 157 172 172 172 167 155 158 167 165 165 163 152 158 163 159 160 163 161 153 147 89 69 70 70 69 70 70 72 70 72 76 87 121 110 96 82 73 70 68 68 69 70 71 88 139 142 154 166 165 169 167 159 156 156 159 166 173 173 168 168 168 164 154 147 147 144 137 136 137 138 138 139 131 118 108 102 99 97 101 107 113 129 140 154 167 165 161 158 159 157 175 188 172 171 174 165 163 162 166 167 161 156 155 152 163 162 158 165 163 158 156 122 69 73 73 73 74 73 72 72 72 76 81 94 126 115 101 89 77 73 71 70 72 72 75 88 124 148 154 156 161 170 168 160 155 151 153 159 171 177 178 175 173 169 160 152 148 146 152 147 143 144 152 163 166 172 175 167 171 169 170 177 169 179 174 167 166 161 154 162 167 171 172 172 167 173 181 175 167 168 167 163 154 154 155 162 164 160 159 162 160 155 145 102 71 76 76 76 77 77 75 75 75 80 86 99 133 120 109 97 83 77 74 73 76 75 73 76 118 144 143 154 162 166 167 164 160 150 155 159 169 175 179 178 179 174 168 168 161 149 139 147 159 163 157 158 153 160 165 167 172 169 171 176 171 168 165 160 165 171 176 179 170 171 165 166 175 183 183 180 176 171 161 152 150 150 158 162 156 155 160 163 159 149 130 82 76 79 79 78 78 79 78 77 79 82 91 104 140 130 118 105 92 83 78 78 79 78 77 72 115 148 134 151 160 162 166 165 160 157 161 162 168 175 178 178 177 174 169 167 168 163 145 140 147 152 159 162 166 166 164 168 172 171 175 181 176 175 178 181 181 180 178 175 171 166 169 176 177 185 185 181 180 176 157 141 144 147 156 161 159 156 156 161 154 147 101 78 82 83 81 81 82 80 81 81 82 87 97 111 147 138 128 115 103 93 86 83 81 81 81 75 114 161 129 141 148 156 163 165 161 158 164 167 175 177 179 178 176 175 173 167 166 164 157 152 146 138 140 142 149 154 155 159 162 159 159 159 158 162 167 168 164 164 160 163 167 167 173 180 184 185 189 188 179 169 156 150 144 150 158 157 156 160 156 156 152 125 87 85 86 86 85 84 85 84 85 85 87 94 103 117 155 146 139 130 118 108 97 92 87 87 85 78 115 174 139 130 138 152 157 160 161 157 160 165 172 177 179 177 175 176 177 172 168 165 161 157 153 146 149 146 141 143 143 137 137 144 144 147 154 154 160 161 161 159 168 167 160 165 175 182 184 183 187 186 179 171 163 155 147 150 151 150 146 151 151 155 139 102 88 88 89 89 88 88 89 89 90 90 92 99 109 122 161 155 150 144 134 126 116 107 100 95 91 84 118 175 155 133 133 144 152 158 156 151 161 164 168 175 176 178 175 173 171 172 171 167 167 162 155 156 155 153 145 148 140 141 148 152 149 151 158 154 156 167 167 158 161 168 165 173 176 178 183 185 185 181 174 171 164 157 149 147 145 145 149 144 142 150 120 90 91 92 92 92 92 92 92 92 92 94 96 105 116 130 162 161 159 156 150 141 133 123 114 105 99 90 109 175 164 140 132 139 147 153 156 153 156 160 165 170 171 172 174 174 171 171 169 166 164 164 158 156 151 144 140 144 136 141 155 155 143 151 156 154 149 152 156 149 147 165 171 172 175 178 182 183 186 176 170 166 165 155 147 146 142 144 144 139 137 153 104 96 97 97 97 95 95 95 95 95 97 99 104 114 125 138 165 165 163 162 159 155 145 136 127 115 106 93 169 182 165 152 138 132 140 146 154 157 157 153 159 162 161 164 176 177 173 172 170 169 165 160 152 150 149 146 148 143 140 141 137 151 149 147 149 144 147 148 154 156 155 159 166 172 174 181 182 175 181 180 169 161 159 154 147 139 135 141 137 134 129 194 145 91 101 101 101 98 99 100 100 101 103 105 112 122 134 148 167 166 166 165 165 160 152 143 134 122 101 156 246 175 167 161 151 139 129 139 147 155 158 155 159 165 165 167 170 170 173 175 175 172 167 162 157 156 158 154 152 156 148 138 130 131 136 140 143 145 141 144 149 151 157 162 170 176 182 181 179 173 165 174 165 156 157 154 144 136 137 135 130 132 139 213 222 99 103 104 104 104 104 105 105 107 109 115 123 134 146 157 167 168 168 167 167 163 158 148 137 125 121 233 227 172 169 160 158 147 132 132 140 150 157 156 159 166 168 166 169 175 177 178 183 184 177 173 169 165 161 160 154 152 149 146 132 133 141 141 142 146 144 152 165 159 163 167 174 180 182 178 171 168 162 170 163 155 160 150 136 135 132 120 126 133 155 211 255 142 98 107 106 107 107 110 112 116 124 131 141 151 158 165 169 170 170 170 167 163 161 151 140 120 174 255 200 173 171 163 162 158 139 130 132 144 153 157 158 155 167 172 174 180 180 183 178 176 181 178 177 173 167 171 172 165 156 153 142 136 140 139 148 155 157 163 164 168 173 177 182 186 181 177 176 173 172 167 158 156 150 145 134 128 117 111 127 143 164 207 255 183 99 109 110 112 114 120 126 133 143 151 159 166 169 174 171 172 172 172 171 166 162 154 144 127 216 248 175 175 173 166 164 164 149 130 125 128 142 147 158 160 166 172 176 178 186 187 188 188 188 187 189 192 187 189 197 199 199 196 185 188 185 180 184 185 180 166 163 175 185 188 190 190 183 180 178 174 168 156 156 160 140 135 129 123 110 117 133 152 168 209 255 203 112 120 121 125 131 139 147 156 166 172 175 180 182 183 175 174 175 175 173 170 165 159 149 144 242 239 166 178 172 168 167 166 166 147 126 116 119 137 149 154 158 167 175 186 197 191 195 197 200 204 202 202 202 197 203 204 205 203 201 204 201 200 201 198 196 193 198 198 199 202 199 194 186 182 174 165 157 156 155 149 135 127 119 108 111 131 144 160 170 212 255 209 137 145 146 150 156 164 172 179 187 192 195 196 197 198 183 183 184 184 182 179 176 169 157 174 254 248 184 179 171 166 166 166 167 158 142 122 116 124 137 150 150 151 164 179 186 189 190 191 198 207 203 204 203 203 206 206 205 202 201 202 203 201 202 206 206 208 206 206 204 200 197 192 187 180 168 161 151 143 149 133 123 117 106 105 122 141 153 164 176 229 255 211 164 170 170 175 179 187 193 197 203 207 210 210 210 210 197 198 197 198 196 196 193 188 178 203 255 255 214 179 174 170 163 165 171 165 157 140 121 115 116 130 141 144 157 166 178 187 186 189 195 199 201 205 205 203 204 205 202 199 199 199 204 203 206 210 205 206 207 204 200 197 194 186 180 174 167 162 149 131 130 125 120 102 103 119 137 149 154 163 192 251 252 220 181 185 186 188 194 199 205 209 213 216 217 217 216 217 211 211 212 211 211 210 206 203 195 222 255 255 227 182 177 172 169 168 171 170 164 153 134 109 99 114 135 144 144 157 170 175 176 184 187 194 201 202 203 201 203 201 203 194 193 194 197 197 197 201 202 204 203 202 195 191 185 182 173 165 157 152 143 122 108 107 117 110 116 134 146 154 159 174 236 254 241 238 196 190 192 194 199 203 208 212 217 220 219 219 219 220 216 216 216 217 216 215 211 208 202 233 255 255 246 191 179 172 171 171 168 171 167 161 149 121 101 98 113 128 143 152 157 167 173 178 173 188 197 199 198 198 201 192 190 191 190 187 188 189 190 194 194 194 200 199 192 187 169 167 161 150 146 140 130 122 109 92 113 120 131 146 153 158 164 226 255 245 237 246 198 194 197 197 201 206 211 215 219 220 220 220 219 220 218 218 218 218 218 217 216 212 206 240 255 255 255 208 180 174 171 174 169 170 170 170 160 137 109 91 100 109 130 144 144 153 158 160 161 170 181 191 191 186 193 192 179 181 179 175 176 179 178 177 179 183 185 184 175 172 161 149 139 135 136 132 118 107 98 97 113 130 143 148 153 160 215 255 250 238 239 254 164 127 205 200 203 208 213 216 219 220 221 222 222 222 219 219 219 219 220 218 216 213 211 244 255 255 255 228 181 177 173 171 169 168 167 170 162 150 133 115 101 99 109 126 136 140 151 155 152 154 161 169 169 171 182 184 175 169 170 167 164 165 167 169 169 168 170 166 154 153 154 144 125 114 120 114 111 98 98 113 128 138 146 149 162 219 255 252 243 239 244 255 190 40 140 210 205 209 215 218 220 222 222 222 222 223 220 220 220 220 220 219 218 214 221 247 253 255 255 249 196 180 176 170 169 169 166 167 164 159 151 135 113 101 98 111 122 124 140 149 137 143 145 157 157 162 161 160 164 160 157 160 160 158 158 160 161 155 156 149 143 135 132 128 118 113 110 99 91 98 115 130 137 145 144 169 229 255 254 248 240 242 246 252 225 53 50 165 217 211 216 218 222 223 223 224 223 224 221 222 221 222 221 221 220 218 233 247 249 255 255 255 214 181 178 174 170 170 167 167 166 161 157 150 132 104 92 102 109 115 125 132 120 130 135 147 148 146 148 152 158 158 155 152 150 153 147 149 141 142 131 129 120 125 111 103 112 109 97 88 97 118 132 136 139 139 180 238 254 253 247 243 242 244 246 248 247 85 33 78 202 219 219 220 223 224 225 224 225 226 223 223 223 223 222 222 230 195 236 252 244 251 255 255 228 186 180 176 173 172 166 167 165 156 152 153 148 124 98 91 91 94 104 112 112 117 131 132 136 136 129 141 145 146 138 143 135 134 139 132 126 121 119 110 103 106 101 105 109 96 85 98 118 129 132 129 140 196 245 251 252 247 240 239 244 247 248 247 251 106 31 46 139 229 219 222 224 225 225 224 225 226 224 224 224 225 223 233 193 133 250 255 247 245 253 255 237 193 184 177 174 173 168 163 163 160 153 148 148 142 124 99 89 85 85 85 99 105 112 118 123 122 123 123 129 132 120 122 118 121 125 114 107 96 99 100 94 96 97 95 88 84 103 122 131 129 127 162 218 249 249 248 244 238 237 241 246 248 248 245 250 112 30 45 73 207 227 224 225 227 225 225 225 225 225 226 226 224 233 215 78 145 255 253 253 248 252 255 246 196 186 179 176 173 168 165 160 160 156 151 148 143 139 125 103 86 80 67 71 78 77 93 100 105 106 108 117 109 106 100 97 99 101 94 93 85 88 95 95 86 77 72 83 106 129 130 127 151 195 235 246 245 245 240 236 236 240 245 248 247 246 246 246 103 28 48 47 139 235 225 226 226 226 226 226 226 225 227 226 231 227 112 37 178 255 255 255 254 250 255 252 198 184 183 177 171 166 164 159 154 154 155 144 143 142 136 128 114 94 81 70 60 58 57 64 68 74 78 85 83 82 77 75 69 67 71 73 80 78 78 68 72 80 95 116 130 128 142 185 226 238 237 238 238 236 232 233 237 241 246 247 245 244 245 243 90 28 45 50 70 197 235 226 227 227 226 227 227 226 227 232 233 125 54 44 190 255 254 255 253 252 254 255 214 178 186 179 176 169 164 164 158 153 155 147 139 144 138 132 130 127 116 104 85 71 60 52 50 49 50 54 56 57 56 55 56 59 63 64 70 69 70 76 93 114 127 127 133 172 217 231 229 229 228 228 228 230 234 238 242 246 248 248 246 242 244 237 77 33 42 48 53 104 227 232 228 229 228 228 228 230 230 222 130 57 56 40 199 255 254 255 255 253 253 255 241 178 183 183 176 171 165 162 160 157 152 149 139 135 138 135 133 131 132 131 122 116 109 95 87 76 69 67 67 65 67 72 75 80 84 88 88 93 104 117 125 127 129 162 205 227 228 223 223 224 226 228 231 235 240 245 247 248 248 245 245 243 248 219 55 36 41 44 52 54 131 232 230 230 230 229 229
