P2
# Generated by OpenCV 4.2.0
92 112
255
134 137 111 143 99 110 141 160 193 217 204 133 219 216 219 221 223 220 221 222 223 224 224 223 224 223 225 228 223 225 225 227 228 226 220 217 224 228 233 227 219 211 201 209 182 153 139 108 80 108 105 96 114 97 86 89 117 143 90 111 67 71 75 70 82 57 57 104 70 76 66 81 75 85 56 44 76 68 101 91 74 48 44 47 25 83 46 96 51 51 71 58 147 115 117 134 103 98 137 149 199 208 214 118 219 224 224 223 222 221 220 222 222 221 225 223 224 226 228 228 226 228 227 227 230 231 231 230 227 223 222 218 218 219 211 198 186 169 151 138 100 74 117 99 118 80 73 75 58 78 85 104 75 97 89 79 39 52 71 66 81 81 69 61 58 70 88 92 71 60 91 52 87 76 60 44 41 53 34 67 71 57 46 46 139 115 107 143 110 116 136 144 183 199 187 122 220 221 223 224 221 221 220 220 220 220 224 223 224 223 229 225 227 226 229 230 230 229 231 227 221 227 222 224 227 223 213 206 196 181 164 156 136 106 68 104 80 93 94 93 81 67 83 75 60 77 54 111 100 58 37 61 57 58 83 46 74 57 51 51 80 90 100 66 65 71 104 69 47 44 26 33 62 99 89 32 147 107 83 126 120 99 133 134 171 186 195 106 218 222 218 220 222 219 221 220 223 221 225 223 224 223 226 224 231 222 230 231 230 228 230 227 224 223 230 228 222 222 220 206 197 182 176 154 144 128 119 75 63 89 70 82 78 77 66 45 39 56 49 33 53 39 50 30 44 52 55 90 66 62 67 73 39 49 78 95 81 78 43 82 64 52 43 44 34 39 55 26 143 121 99 105 133 116 112 118 105 179 173 80 218 212 216 218 218 218 219 220 220 221 220 226 222 225 227 225 225 221 226 232 231 233 230 229 228 228 226 230 228 226 220 217 208 197 186 168 153 136 131 127 115 73 72 88 80 84 75 82 83 61 57 57 48 38 37 56 56 54 57 42 83 45 53 47 81 101 97 61 59 49 78 50 62 52 59 43 36 35 56 39 142 154 121 122 134 140 102 95 115 153 121 140 209 208 213 216 214 214 214 213 214 223 221 213 218 214 217 222 228 228 227 227 224 230 227 229 228 229 231 226 228 226 218 213 205 207 194 180 162 146 138 128 126 121 109 94 64 68 80 63 69 72 70 78 82 64 44 49 57 54 54 65 65 99 88 82 70 66 29 45 58 62 79 48 57 46 53 61 36 26 23 37 150 139 122 119 124 115 116 122 110 94 131 165 187 204 212 214 212 214 218 219 221 217 215 220 223 224 222 224 226 224 222 221 214 215 205 216 226 223 220 221 212 228 219 213 214 211 209 192 182 157 143 134 127 117 116 114 116 113 113 107 108 103 100 94 95 86 69 66 70 70 83 80 71 71 76 39 34 21 38 30 34 26 35 50 45 58 60 62 74 51 18 44 136 131 140 131 126 126 138 148 161 163 164 189 205 208 213 213 211 213 215 214 218 216 216 218 220 222 222 224 226 228 229 226 225 223 224 222 221 210 212 207 217 216 216 214 216 215 202 196 177 166 158 145 131 127 124 117 119 104 99 103 110 104 99 100 98 96 101 88 78 79 69 74 80 80 93 74 71 60 56 43 38 34 24 31 29 30 45 49 62 68 43 38 137 151 108 122 126 132 152 181 190 196 193 208 209 210 214 214 212 213 218 216 221 219 222 219 219 221 219 216 217 221 225 226 225 222 223 226 227 227 219 214 213 228 217 214 189 180 189 179 188 183 172 163 149 131 123 130 111 105 93 99 96 96 99 102 96 88 89 89 86 81 76 74 83 82 82 81 68 65 79 79 74 80 81 76 57 36 40 43 44 46 18 37 86 138 121 130 122 149 165 180 193 197 205 209 210 210 215 213 214 213 217 218 216 217 219 219 223 222 220 221 216 209 218 215 220 214 220 226 228 223 219 217 212 213 216 218 216 216 216 214 210 201 197 171 157 157 145 123 114 115 116 107 104 106 102 97 98 98 100 94 89 90 97 91 84 83 84 76 78 75 69 71 70 82 83 69 47 63 53 43 45 48 46 24 115 123 116 133 123 146 160 174 196 204 205 201 215 212 215 212 215 210 213 213 213 212 216 220 220 223 218 202 212 221 222 220 220 212 222 224 222 222 222 218 216 212 213 212 212 213 211 205 210 213 215 214 208 200 200 181 164 139 122 123 126 126 124 114 123 120 117 112 111 114 110 110 118 117 113 106 96 96 90 85 79 74 85 60 76 67 48 50 47 63 66 59 118 96 119 110 122 154 179 195 201 202 198 212 212 214 216 213 214 212 215 211 218 213 210 212 210 214 206 222 224 221 218 218 210 218 220 215 217 222 218 218 216 212 218 220 217 222 212 215 215 218 214 214 214 206 205 200 206 203 183 188 174 175 166 165 161 157 155 155 156 158 152 155 159 151 155 152 138 125 113 100 97 103 113 95 103 92 87 59 49 59 54 35 103 92 133 93 116 154 183 182 194 191 204 213 213 216 214 213 212 207 207 208 208 211 215 210 213 204 200 217 223 222 227 224 219 220 218 221 225 231 223 213 217 219 221 217 220 217 209 214 211 217 213 213 213 211 206 198 210 197 197 197 204 202 193 183 185 173 178 183 188 186 188 188 182 182 180 165 155 155 137 123 129 133 118 134 100 102 97 56 54 46 63 68 80 37 78 115 150 151 188 191 195 197 207 208 209 213 213 212 207 206 211 216 218 218 214 212 212 210 214 224 220 217 220 225 226 225 222 219 213 219 212 214 215 217 215 217 210 213 216 209 207 205 204 206 210 208 205 211 204 206 205 207 206 202 197 189 191 189 190 195 200 202 198 197 192 190 188 175 169 166 155 136 147 143 135 129 103 89 82 73 45 48 70 51 128 85 104 93 146 167 191 191 198 199 207 211 206 205 213 215 210 208 212 216 216 215 219 217 216 216 223 225 226 217 218 218 221 223 222 220 213 202 205 212 210 215 220 214 213 221 214 206 213 208 212 213 204 214 211 206 206 207 206 202 200 194 196 193 186 196 199 201 209 203 197 195 195 190 190 180 168 177 170 150 133 152 134 133 114 88 86 70 39 65 68 77 113 85 99 88 145 175 194 191 201 201 200 208 207 204 209 215 215 214 213 217 220 221 222 217 222 221 220 227 225 223 219 219 221 216 217 214 221 209 206 201 208 203 206 211 218 213 211 198 193 198 197 199 211 211 212 208 207 207 201 197 196 200 201 195 198 196 198 195 201 196 186 188 187 193 193 177 176 184 171 154 146 156 139 141 122 83 90 76 21 37 55 46 40 65 84 108 167 180 196 190 195 192 201 207 212 206 209 213 214 213 214 217 221 218 224 224 224 225 223 226 223 226 225 226 225 217 210 202 209 224 223 220 221 219 225 228 224 221 215 210 214 211 207 215 220 209 208 210 207 207 209 203 203 205 196 197 196 201 197 196 200 191 175 180 187 193 185 170 175 175 157 158 139 140 131 109 104 82 84 66 57 52 58 50 99 72 76 95 170 183 193 192 193 198 197 208 210 205 207 212 211 209 219 222 220 221 226 224 227 227 226 227 229 230 224 225 223 225 213 220 223 221 222 220 219 220 223 226 221 218 208 215 218 215 217 218 220 218 216 215 212 206 204 202 202 201 200 197 206 203 197 199 202 189 183 189 193 190 176 168 171 172 152 158 155 121 125 116 104 89 73 82 55 33 14 73 58 112 85 92 177 189 189 188 190 197 196 201 210 209 210 211 212 217 208 218 218 220 219 220 224 226 226 225 228 233 227 228 226 218 224 223 222 222 219 215 213 220 219 216 215 213 215 217 216 212 215 220 223 219 221 217 216 215 216 208 209 206 203 205 203 199 197 195 194 183 192 194 195 185 166 170 172 160 152 153 150 144 125 112 92 89 78 78 51 47 32 55 99 99 42 118 186 180 183 186 195 194 199 198 206 210 209 212 214 212 217 214 217 220 221 219 208 216 226 229 227 231 229 231 227 226 223 231 228 218 215 221 219 217 223 221 218 212 205 216 213 206 207 222 224 221 223 220 216 214 214 210 204 202 206 205 205 201 197 195 198 193 195 193 191 181 172 174 172 156 163 162 145 141 119 98 96 56 85 52 46 56 56 13 95 62 91 103 182 180 177 179 185 192 194 203 207 205 211 214 215 213 214 215 210 216 220 224 218 209 219 219 226 228 230 232 226 228 229 232 230 218 215 215 221 222 222 220 219 217 218 220 223 222 220 220 219 213 204 214 211 205 210 210 208 202 205 206 200 193 193 200 197 193 190 192 183 177 167 162 162 159 156 150 144 125 109 102 80 77 51 96 73 50 81 66 137 62 75 82 187 183 179 186 194 194 199 200 203 199 212 210 212 208 208 207 212 207 217 227 226 225 226 226 225 223 230 229 229 232 233 233 228 220 217 219 219 221 222 218 220 215 220 222 225 226 227 227 223 219 217 216 216 214 215 211 210 208 201 198 200 194 188 187 198 193 194 193 191 170 161 158 164 164 159 161 154 126 97 97 72 61 68 70 67 76 77 69 105 116 82 84 184 186 187 186 193 203 210 208 203 203 209 212 210 208 206 198 208 207 210 214 220 220 218 223 224 231 233 229 228 229 232 229 222 212 209 216 217 221 221 212 213 216 216 217 222 225 227 227 222 221 217 214 213 216 213 209 206 210 204 201 198 196 203 197 195 192 191 189 170 164 160 154 166 160 170 170 140 115 99 89 61 85 57 23 57 75 71 74 81 97 79 65 184 179 181 183 190 201 211 213 209 206 213 215 209 210 210 205 206 212 211 207 215 219 221 218 220 225 229 230 227 225 225 225 218 206 207 216 216 218 215 209 204 205 214 218 217 220 225 227 220 216 215 211 214 214 208 196 201 205 199 201 195 196 193 194 198 192 194 190 170 161 152 158 163 164 180 154 129 103 90 70 69 81 46 49 35 52 38 65 100 97 55 94 183 178 178 183 201 208 215 216 214 214 214 217 213 211 211 210 212 210 205 208 214 214 214 214 219 221 222 224 221 219 222 224 210 197 206 219 218 211 206 202 204 210 210 211 212 215 223 224 217 213 214 216 211 205 199 193 197 194 200 199 199 201 200 201 196 192 188 183 171 153 158 168 169 163 149 139 121 93 85 56 60 41 61 42 52 36 51 38 91 73 95 102 185 171 169 181 199 207 214 219 222 218 222 223 223 220 220 217 214 211 208 215 215 216 213 217 217 217 218 214 220 217 212 207 202 199 213 219 218 211 211 203 203 217 217 211 212 213 218 215 213 207 208 210 205 201 203 196 201 200 195 196 201 199 205 198 200 197 188 185 174 167 160 164 146 145 130 145 107 108 81 65 48 41 74 57 38 29 19 30 86 66 115 118 184 176 172 191 208 214 219 220 227 224 223 224 226 224 226 224 220 218 217 218 223 222 215 217 219 216 216 215 213 210 213 213 203 198 209 219 210 201 210 206 215 215 215 210 218 212 203 209 206 208 209 211 211 200 198 202 201 204 203 202 201 204 199 200 196 198 196 189 183 170 167 162 148 148 151 145 125 116 88 60 45 28 29 68 97 48 38 41 90 92 111 125 178 186 174 200 201 208 215 221 221 220 220 219 217 219 223 217 218 221 227 220 219 219 222 214 215 216 215 210 203 207 212 207 196 206 216 213 211 211 217 207 213 215 215 212 215 211 206 202 207 209 214 214 214 207 209 211 210 212 210 199 208 208 208 206 199 204 200 189 181 175 170 165 151 156 150 127 129 127 106 68 43 26 31 51 54 33 51 26 76 93 90 116 177 181 175 194 191 186 195 184 212 202 195 202 203 216 208 214 218 212 214 223 219 221 219 214 213 213 212 214 203 208 212 209 196 213 215 214 213 215 208 207 213 211 213 209 214 208 204 207 213 222 225 216 217 214 212 207 210 211 210 210 211 211 212 212 208 204 202 199 189 181 168 164 157 148 129 122 122 126 118 91 49 30 30 41 58 31 40 52 94 82 109 108 170 174 179 183 181 172 165 157 186 184 191 187 187 190 185 192 205 210 217 217 202 211 209 201 202 207 205 202 208 211 210 205 198 205 211 209 209 207 214 205 208 209 209 206 209 210 196 199 203 218 216 214 213 216 213 210 206 214 213 211 210 212 214 215 214 210 208 192 199 193 189 179 166 147 131 126 121 128 121 107 62 36 36 48 83 24 26 56 78 98 61 112 172 179 185 184 168 157 137 130 143 132 127 151 163 164 163 170 171 170 167 168 173 170 158 163 172 186 194 208 207 203 200 197 202 202 203 200 205 212 210 205 208 209 203 203 210 203 188 185 166 170 181 201 205 207 198 193 213 206 198 195 193 195 195 206 211 210 211 200 203 196 172 182 174 166 152 136 136 135 130 115 79 34 63 50 68 41 35 44 49 73 82 96 183 186 186 187 177 137 118 112 123 111 104 132 114 118 114 111 153 142 121 127 125 118 112 128 129 171 189 198 199 195 188 180 187 200 206 197 201 203 207 205 200 196 198 200 192 184 170 163 139 125 134 143 159 176 184 201 180 175 173 173 161 184 190 175 163 178 185 200 200 192 194 172 162 154 149 144 132 136 128 128 102 40 65 67 67 47 24 50 50 61 89 130 170 189 187 190 182 153 127 127 133 123 122 123 106 90 79 88 89 88 88 81 78 89 119 119 134 147 157 169 174 177 172 176 184 195 191 189 192 194 197 192 177 193 184 190 178 175 160 141 123 120 125 115 129 116 99 118 133 128 136 141 161 159 164 155 157 164 162 157 164 181 190 173 154 143 140 143 136 137 130 140 97 97 52 80 64 37 47 34 69 98 62 121 177 189 188 192 186 163 140 150 162 185 180 173 176 166 139 107 84 68 65 58 59 74 76 89 104 110 130 140 156 151 157 168 175 180 178 175 186 194 189 186 177 178 178 181 166 166 137 124 121 105 83 64 68 90 90 76 95 111 117 129 131 143 136 135 116 128 134 132 146 163 174 170 161 138 134 148 144 136 135 132 115 91 46 97 62 39 69 51 61 114 149 134 170 191 191 194 185 173 160 171 184 183 182 183 174 173 182 175 158 116 96 94 77 72 68 70 77 77 96 105 115 132 140 155 158 155 151 165 178 182 188 172 162 154 156 156 141 130 113 96 89 76 68 72 63 56 70 73 95 101 85 73 72 80 92 104 105 110 104 108 133 121 124 154 150 145 141 146 151 132 144 137 119 73 85 86 51 53 93 48 117 117 87 140 159 191 194 191 180 182 177 195 147 85 63 51 54 33 45 25 31 30 52 55 51 80 85 82 77 77 79 82 90 106 108 120 122 125 133 159 177 187 172 165 144 140 129 121 110 101 85 78 78 70 66 65 67 66 71 72 76 78 87 96 112 118 133 142 139 125 110 94 110 123 112 135 154 149 146 136 132 144 148 137 114 100 117 71 48 70 75 34 187 121 69 130 178 197 192 190 170 145 136 109 42 121 123 91 99 111 59 65 72 145 15 30 31 51 30 60 84 81 84 78 83 84 99 93 99 111 118 152 179 197 170 148 141 117 106 91 81 79 79 76 74 75 84 85 78 86 102 130 147 161 171 176 182 186 173 172 139 130 123 120 108 100 106 133 147 155 154 146 140 160 154 131 128 103 125 64 46 67 86 44 85 133 113 114 168 202 196 192 181 162 154 145 111 85 52 132 170 159 18 53 65 143 29 61 30 63 76 57 45 85 88 81 76 76 61 76 95 126 176 200 207 211 196 169 126 87 80 80 75 77 80 82 87 86 82 80 44 33 24 41 91 152 168 185 179 176 162 172 171 158 152 144 124 111 121 135 153 153 157 159 151 156 157 141 128 124 126 63 53 70 90 101 209 142 128 128 189 193 198 200 175 166 158 139 152 177 162 162 186 160 12 90 92 88 108 108 64 160 90 63 61 63 78 82 74 69 60 72 103 157 191 200 211 208 194 164 135 106 83 75 76 80 81 85 94 87 45 61 84 96 76 21 9 56 33 13 23 16 61 118 146 159 157 148 139 128 127 142 152 146 154 153 160 164 152 131 113 133 134 60 59 79 82 139 224 131 129 139 187 195 199 201 193 185 176 178 170 182 201 188 172 183 78 93 105 107 130 77 127 183 158 101 56 60 80 77 80 86 83 108 123 171 201 213 222 223 206 183 139 94 85 70 76 78 95 103 99 75 109 118 90 73 110 53 61 33 10 41 17 64 58 47 52 40 91 157 161 150 147 142 149 156 165 155 166 162 149 130 80 114 129 69 65 70 89 163 224 146 132 141 176 193 202 205 201 199 197 192 185 177 193 194 217 209 219 84 44 51 54 119 190 171 156 124 131 136 63 147 213 192 169 152 152 172 200 220 234 233 204 191 137 109 117 95 99 97 122 101 118 127 76 62 162 201 161 74 105 58 49 103 64 32 120 72 44 68 64 69 154 147 139 137 144 157 160 162 167 158 150 141 113 117 149 89 68 56 62 113 232 187 134 146 181 197 202 208 209 209 207 200 186 190 172 181 187 190 208 214 224 228 221 186 203 178 165 173 194 182 196 209 216 199 171 164 171 184 206 226 236 231 214 198 150 129 146 164 185 208 180 128 92 143 233 133 195 211 211 62 109 127 123 105 59 86 121 107 81 61 73 108 66 131 139 151 152 163 164 163 167 165 142 131 139 127 139 78 78 62 28 73 227 207 132 123 180 200 203 211 217 216 209 202 199 196 169 146 177 168 188 186 187 158 174 171 187 174 167 153 155 182 206 203 197 210 181 174 185 197 214 227 232 225 214 203 154 143 158 169 200 203 191 189 157 148 170 168 177 185 195 176 37 94 101 56 68 177 177 171 146 112 102 98 103 118 128 156 167 171 169 169 166 163 148 138 141 134 132 52 82 64 55 79 227 201 170 137 164 198 204 208 209 214 216 217 202 201 180 151 131 127 142 154 151 162 176 173 160 152 155 165 185 201 207 208 219 192 179 185 183 200 216 226 225 218 214 204 169 157 162 167 181 201 178 202 173 163 157 156 167 183 203 202 223 217 199 205 208 206 185 175 153 133 161 167 157 160 149 167 165 178 175 172 168 163 149 138 130 132 131 56 78 72 83 91 228 213 214 145 165 203 207 209 220 217 219 217 208 209 192 174 159 141 127 103 109 101 104 114 152 183 171 190 195 203 210 207 206 191 193 192 195 201 217 228 225 216 215 208 184 167 174 173 197 213 216 200 200 175 158 168 155 181 182 187 175 204 167 170 168 172 163 152 141 141 159 177 171 167 171 177 183 186 184 177 172 161 152 151 111 129 94 58 91 95 108 123 210 190 213 144 160 202 197 209 220 222 219 216 205 194 197 191 169 158 156 142 152 159 172 192 194 194 209 211 193 180 202 214 205 201 200 196 198 210 218 224 223 215 213 199 187 169 176 169 182 221 210 207 198 184 175 173 170 167 171 152 171 172 156 150 153 150 131 115 125 158 177 180 185 180 191 191 189 192 182 174 167 163 155 132 119 121 59 56 130 147 137 186 222 227 169 203 159 203 196 205 219 223 223 220 209 200 198 168 191 182 179 182 184 189 193 198 197 196 197 190 182 201 226 215 209 203 200 195 198 207 218 221 218 213 210 199 190 176 182 181 177 189 211 189 198 195 176 177 156 106 118 116 117 106 112 124 106 92 113 140 165 179 187 190 186 189 192 196 194 197 183 176 173 162 154 136 146 140 62 76 156 157 128 174 226 227 199 192 189 196 201 205 217 220 223 222 216 211 200 193 196 195 192 197 198 200 203 193 200 192 184 180 193 218 221 214 209 206 204 197 201 210 227 228 222 212 214 206 187 178 187 187 186 193 212 224 197 194 192 199 206 193 184 161 143 155 138 130 139 149 146 167 173 182 191 184 182 186 194 198 202 197 187 178 170 164 147 132 99 69 60 104 152 163 153 155 226 229 209 204 196 200 195 202 212 219 221 221 216 211 209 209 205 213 199 201 189 198 194 193 188 182 184 193 202 217 216 211 210 212 208 203 203 211 229 228 222 213 213 203 193 179 181 176 190 192 199 221 214 197 193 190 196 199 193 189 175 174 157 144 146 154 167 171 188 174 173 178 194 200 199 198 198 191 187 176 165 164 152 118 92 49 86 114 141 157 174 145 223 225 213 208 210 203 190 195 208 214 219 223 221 217 218 214 212 201 192 191 203 190 188 178 175 172 188 204 212 219 210 209 209 210 208 201 206 211 228 223 222 218 211 197 192 177 178 180 192 198 189 209 214 211 196 187 183 185 189 195 189 183 180 173 179 180 183 179 177 169 181 192 204 205 201 201 195 191 184 173 168 159 157 112 133 85 118 121 170 167 153 136 221 225 221 216 185 202 187 193 196 205 213 214 214 220 217 217 212 207 194 186 182 183 171 178 176 192 204 212 215 214 211 210 212 211 206 204 208 218 228 227 224 218 211 197 186 176 183 186 193 200 193 197 216 215 203 191 192 184 189 189 183 182 183 188 192 178 181 188 190 195 200 206 210 212 209 204 194 184 179 157 158 161 150 113 113 85 125 127 150 143 163 181 220 223 217 217 182 200 185 187 186 204 208 211 216 215 214 213 209 201 194 193 187 188 197 193 199 209 213 213 214 212 210 208 210 206 204 207 211 222 230 229 226 218 207 198 189 182 185 189 192 191 195 190 210 210 205 199 191 187 188 182 184 182 187 189 187 183 188 187 190 200 208 214 210 210 207 197 194 185 171 165 166 163 155 104 87 89 130 128 129 169 195 191 219 219 214 211 195 184 181 181 179 195 199 206 211 211 212 212 207 208 209 204 209 200 204 206 215 217 220 214 212 209 211 212 212 209 208 210 212 223 229 228 224 218 209 199 192 191 190 192 195 190 187 190 205 214 212 208 202 194 183 189 191 186 192 187 191 198 210 211 208 209 213 209 208 207 204 197 187 177 171 159 159 164 150 98 88 124 114 105 140 177 199 175 220 219 203 210 202 192 183 173 172 183 194 201 206 207 207 209 209 210 210 214 214 213 217 221 218 218 219 212 215 212 210 198 202 209 208 211 219 225 227 228 223 218 211 204 199 191 193 194 193 193 185 194 207 207 211 213 213 205 197 198 198 192 190 193 194 199 203 205 209 212 212 213 207 198 197 187 183 170 155 164 161 155 154 100 110 138 94 127 158 194 191 163 219 218 189 206 206 197 179 171 177 177 187 192 200 207 207 204 210 211 209 212 215 220 220 221 219 218 214 210 214 212 205 203 206 205 208 215 220 224 232 227 224 218 210 207 197 188 191 191 190 193 183 193 195 206 208 217 215 212 212 211 212 207 204 203 202 204 208 211 210 212 211 208 202 194 188 179 174 165 158 152 148 152 154 119 123 150 166 169 186 188 165 184 219 217 195 197 198 182 190 162 171 171 187 188 188 195 201 207 207 212 217 217 217 222 219 223 223 225 219 218 215 209 209 201 205 204 209 217 224 228 226 225 224 223 212 203 193 185 186 185 191 178 188 190 205 215 216 217 221 218 212 221 219 219 213 210 209 207 203 206 208 204 205 197 193 188 182 174 165 155 156 154 148 154 139 121 125 137 184 187 186 166 166 190 217 220 218 193 205 198 208 170 166 171 179 185 191 194 203 207 212 214 218 217 219 225 224 223 222 222 223 216 210 205 205 197 201 208 212 219 227 228 225 225 223 219 214 209 189 181 180 186 188 182 180 194 195 200 203 218 221 220 222 219 222 224 214 212 212 210 208 208 204 202 201 201 191 165 168 157 155 145 143 147 146 145 141 128 123 104 149 154 158 168 187 184 217 218 221 163 188 193 200 169 162 162 172 186 195 205 200 206 210 214 218 218 215 215 225 221 218 221 218 222 217 208 198 200 205 210 217 225 229 229 224 223 221 223 219 211 194 180 178 190 193 183 169 191 205 213 215 220 223 220 218 220 215 206 198 207 212 211 210 207 203 200 193 183 183 172 167 148 144 150 146 144 146 160 142 133 131 146 145 154 154 174 190 192 218 219 219 213 139 167 199 176 161 162 161 177 190 196 200 203 211 212 217 218 220 218 220 222 215 214 219 220 214 201 184 209 214 209 220 224 227 227 225 224 224 222 218 214 202 186 187 197 197 193 159 189 201 213 218 220 220 218 217 216 219 213 210 207 214 212 205 204 202 196 192 177 177 163 154 148 136 147 139 136 144 156 138 129 144 156 173 170 174 184 194 190 216 219 219 220 212 116 177 181 166 164 157 162 184 195 194 206 205 211 214 214 218 220 217 219 221 221 219 212 203 191 201 221 210 213 220 223 228 228 229 229 227 221 216 210 199 186 188 204 206 200 168 181 193 215 207 214 218 219 218 219 217 212 211 207 212 211 206 205 203 198 186 175 173 162 159 144 141 137 133 137 141 141 140 138 157 175 177 184 189 197 194 177 216 217 219 212 217 226 168 188 168 157 156 160 188 193 195 199 206 210 213 216 218 218 220 220 216 203 213 199 200 202 226 214 211 214 216 219 222 230 239 238 233 221 213 206 197 192 193 202 207 207 183 181 201 206 210 218 219 217 216 215 215 213 210 210 210 208 210 202 200 196 183 171 159 153 145 137 131 133 129 157 148 151 131 141 157 177 184 190 186 195 188 154 218 216 218 218 220 219 192 188 173 164 159 167 165 177 188 196 200 208 210 213 213 215 210 217 210 217 210 205 205 212 219 215 205 206 215 209 211 212 212 226 223 213 205 202 191 188 195 209 208 209 194 180 193 206 212 214 209 212 212 215 216 212 211 208 210 210 196 195 198 194 176 165 151 144 147 125 123 124 114 143 146 156 129 138 167 170 179 185 177 178 168 149 217 218 217 217 218 214 187 197 179 168 163 158 150 167 182 199 204 210 208 210 209 211 212 209 215 206 208 201 201 209 209 205 192 190 195 202 196 194 202 205 207 205 196 189 176 170 199 204 204 205 193 178 199 205 205 206 211 214 213 215 211 214 211 208 206 201 199 192 189 181 177 165 157 144 131 135 132 127 133 144 149 156 150 153 157 171 171 164 160 152 108 223 218 217 218 216 218 218 184 183 168 163 161 161 165 169 186 193 200 204 207 207 211 209 212 214 212 206 203 206 210 200 184 168 158 146 148 168 177 175 180 186 190 181 164 144 133 158 167 165 173 181 193 178 193 200 202 205 212 206 207 212 207 207 209 204 207 197 198 193 181 178 168 154 148 130 135 133 129 136 149 154 153 140 135 151 143 138 138 130 128 96 198 215 217 217 217 217 217 216 184 188 177 170 163 159 163 175 178 192 202 204 204 213 212 210 212 212 210 210 207 203 207 176 140 121 94 132 124 128 129 131 153 168 165 142 122 115 106 118 115 122 141 162 169 168 182 206 207 213 195 207 211 212 209 200 201 201 204 202 198 180 170 172 155 153 142 135 133 127 131 133 144 151 151 138 151 141 115 94 80 76 135 222 218 216 217 217 217 217 217 218 194 183 186 170 172 167 178 184 182 197 201 206 210 211 208 213 211 210 205 206 208 213 209 183 110 73 27 27 20 107 109 111 133 136 123 125 95 93 32 7 11 17 86 118 135 153 184 203 199 194 200 203 207 210 210 208 205 200 200 197 185 174 178 167 163 154 138 133 135 138 136 139 154 154 156 153 139 138 211 229 220 221 213 215 215 214 217 217 217 217 216 217 208 185 175 170 163 164 176 180 185 189 203 206 206 211 210 213 209 208 205 209 211 213 209 209 113 87 51 46 39 26 57 103 108 100 85 86 60 42 17 14 34 31 46 95 113 146 186 196 198 200 204 211 216 214 210 205 197 202 196 189 183 176 174 159 162 149 141 137 147 141 137 143 151 157 150 149 127 166 208 215 213 212 213 211 214 216 217 217 217 217 217 218 211 191 182 172 165 165 170 185 182 188 192 196 203 191 209 209 202 209 206 209 217 208 209 205 191 117 84 75 84 89 72 58 95 88 90 92 57 64 73 66 55 52 66 76 106 154 185 203 202 204 202 209 213 211 206 201 199 205 188 180 182 182 167 163 164 147 146 138 138 137 139 146 158 158 150 143 136 187 214 212 213 210 212 212 215 215 217 217 217 217 217 219 205 184 188 167 162 168 170 180 182 190 198 203 206 206 207 206 207 198 211 211 214 217 215 214 205 187 156 142 129 105 84 75 75 67 65 60 69 71 85 92 89 62 67 100 133 172 196 202 208 210 203 202 192 190 198 203 205 201 191 188 183 175 166 157 141 144 142 146 135 136 142 153 152 146 147 135 119 199 213 213 211 210 209 211 213 214 217 217 217 218 218 218 209 190 181 172 161 164 171 183 188 193 194 201 201 205 206 202 209 210 214 217 214 216 220 220 216 211 204 183 173 167 157 144 112 84 73 84 103 123 139 136 143 146 156 155 170 189 200 206 208 210 204 187 191 205 203 209 206 201 194 187 180 170 165 155 148 145 146 144 137 138 142 149 157 140 140 135 131 203 215 208 211 210 211 212 213 214 218 217 217 217 217 217 217 191 172 174 160 153 163 177 183 194 196 204 203 194 196 209 211 214 217 219 220 219 214 218 218 214 214 186 200 190 172 171 164 115 109 112 124 142 164 165 176 178 185 204 204 203 210 213 213 210 208 199 191 193 210 206 212 201 192 192 178 176 162 160 152 141 141 137 136 138 144 145 157 140 142 152 144 194 216 210 210 210 211 211 213 212 217 217 217 217 217 215 217 207 174 171 166 162 163 175 179 190 203 201 204 197 205 215 215 215 218 212 214 215 216 210 203 214 205 191 181 208 193 178 165 155 157 140 127 149 160 163 186 180 178 187 203 197 211 208 206 209 209 206 199 181 181 176 169 186 187 181 191 169 163 160 151 146 141 131 138 123 151 162 153 149 139 137 148 203 215 212 210 211 212 211 213 212 217 217 217 218 216 216 216 191 182 173 169 160 157 180 182 186 190 189 197 208 211 211 210 200 206 196 201 208 213 209 193 192 194 189 204 202 195 189 177 172 192 184 174 195 199 169 175 168 181 191 208 198 211 208 210 205 205 203 204 184 180 172 179 169 205 195 184 173 169 158 153 141 138 136 142 129 147 169 154 146 143 124 155 211 213 212 211 211 211 210 211 212 217 217 217 217 217 216 215 192 172 171 178 163 168 180 178 181 187 187 188 208 197 206 208 207 206 193 196 203 205 204 192 207 181 169 198 196 200 189 185 174 187 191 191 189 195 191 173 151 162 197 196 196 196 198 205 201 203 197 199 196 188 167 173 201 210 191 176 172 157 147 151 139 130 135 134 135 142 155 150 142 153 116 158 214 212 211 212 212 212 211 212 212 217 217 216 217 216 217 219 206 186 178 174 174 172 178 178 173 183 173 202 195 200 199 212 198 190 174 198 196 189 187 183 186 182 189 189 200 195 172 160 176 184 185 170 199 192 203 183 161 175 184 177 184 175 189 188 185 189 196 195 194 199 190 165 172 153 142 169 167 160 154 139 137 135 141 144 153 154 149 153 152 159 126 175 218 212 212 211 213 212 210 212 212 218 217 216 217 215 215 216 213 179 180 181 183 176 159 172 175 189 188 199 196 188 211 189 194 184 195 204 193 192 188 184 191 186 198 198 200 188 187 181 179 191 190 187 198 200 187 202 183 181 188 170 180 178 179 172 166 183 185 197 191 187 186 185 154 151 153 160 150 147 142 129 137 127 144 141 152 145 159 135 153 137 126 173 213 214 211 211 211 211 212 211 211 201 199 202 199 199 200 199 204 186 179 181 181 183 185 169 161 169 184 186 180 197 195 188 182 186 200 192 176 187 203 212 191 188 198 206 191 183 200 180 196 198 201 203 198 186 196 199 192 183 181 191 178 188 177 187 193 163 154 161 177 192 155 143 175 154 162 147 142 150 137 129 125 135 132 141 154 151 142 137 153 101 123 191 214 213 212 211 212 212 212 212 212 165 159 156 154 149 144 144 153 193 182 186 192 185 176 184 160 158 179 188 192 176 180 181 179 166 189 201 204 187 196 203 212 209 206 203 205 206 204 200 209 200 204 213 206 200 192 185 197 194 180 191 180 176 180 174 173 169 148 170 161 168 163 175 144 139 149 156 146 142 130 128 135 144 148 150 144 135 134 128 144 95 136 203 215 211 212 211 212 211 211 211 211 143 146 145 137 131 126 129 122 135 186 187 182 186 183 178 170 170 188 188 191 187 178 143 132 174 197 194 204 197 195 204 198 183 180 177 187 199 211 214 213 218 219 217 201 169 164 175 185 185 198 193 201 192 195 202 172 150 157 160 167 155 168 143 150 149 149 157 142 139 126 129 144 141 154 149 157 152 121 145 126 115 157 208 213 211 211 211 211 211 211 211 210 135 148 145 136 130 130 127 132 119 181 184 191 189 182 188 175 168 179 178 177 160 163 159 162 133 108 121 147 155 146 128 134 143 143 124 108 128 146 171 190 205 189 145 126 112 117 127 125 127 122 122 151 174 175 157 139 169 140 157 150 141 192 152 145 136 145 138 128 137 125 134 147 157 149 150 148 142 131 123 137 127 147 214 214 211 211 211 211 211 212 211 212 139 141 132 128 127 130 133 133 130 173 166 173 186 185 176 177 171 170 171 177 191 151 129 139 100 122 78 87 86 93 102 88 74 84 114 115 105 88 86 76 84 69 70 87 111 101 118 102 109 106 94 84 87 102 145 95 104 116 144 141 134 146 148 154 146 140 134 121 136 133 143 135 149 158 161 139 144 128 116 121 120 182 218 214 211 211 211 211 211 211 211 212 147 135 111 118 122 129 133 134 133 170 179 179 185 188 181 181 173 174 183 172 148 143 130 90 92 20 19 16 21 35 32 19 24 23 24 20 22 23 33 22 25 27 36 24 27 23 23 19 33 68 61 92 62 53 64 66 79 86 96 123 136 130 144 146 150 133 130 134 135 147 144 145 147 158 148 141 143 123 114 113 133 195 212 213 212 212 210 211 211 211 212 212 153 136 108 113 120 130 136 136 134 152 170 173 184 177 177 173 181 185 166 158 158 126 131 147 142 147 177 169 152 131 129 145 153 170 161 156 151 110 86 64 59 61 58 76 98 97 96 103 78 42 18 22 46 25 17 17 24 64 85 107 138 134 134 142 150 150 133 130 147 152 149 153 155 160 142 135 138 127 96 99 137 198 213 213 213 213 211 211 211 211 211 212 153 141 114 107 115 130 137 135 138 131 122 177 168 181 183 191 178 183 179 165 149 142 146 156 174 183 196 193 193 194 178 182 182 173 185 198 201 198 176 189 179 197 206 161 190 175 177 170 173 159 163 149 149 159 149 156 138 140 128 126 127 122 136 145 157 145 137 142 148 146 157 151 160 148 153 140 137 120 89 114 172 203 207 212 213 213 213 212 211 212 212 211 151 144 123 106 112 131 139 136 136 137 120 159 190 169 178 184 183 188 176 170 162 174 157 186 182 196 196 191 183 190 193 206 197 193 178 184 184 187 179 194 186 204 193 173 183 185 173 168 157 161 171 177 169 172 170 175 186 155 164 150 133 139 150 152 130 146 147 142 146 149 146 146 154 139 149 139 111 96 98 240 230 204 211 213 213 213 211 210 210 211 212 212 147 145 128 112 121 144 143 138 139 139 137 143 173 167 178 185 187 184 186 166 175 175 175 163 197 194 191 200 200 196 176 165 191 185 190 194 194 196 187 196 189 196 197 193 175 190 195 192 189 187 175 165 171 173 179 184 181 178 164 150 126 138 135 137 144 146 134 148 151 148 149 146 134 147 131 128 106 108 148 248 249 198 207 213 213 213 211 211 210 211 212 212 149 143 129 120 142 156 157 139 137 140 145 146 152 165 181 181 173 183 164 150 198 170 178 193 200 203 196 201 196 204 195 181 169 163 146 148 159 151 162 163 160 154 165 164 166 175 163 165 166 163 149 149 167 179 170 177 181 184 182 164 170 144 153 134 140 146 156 145 150 134 152 148 141 140 134 128 97 94 177 249 253 202 209 212 212 213 213 213 212 211 210 211 162 155 144 150 173 181 176 166 162 164 168 182 126 166 183 178 181 172 160 160 176 161 176 195 198 196 198 189 189 188 184 191 200 164 182 156 166 148 115 117 112 123 125 124 136 131 146 148 153 159 164 171 173 178 175 174 183 175 171 172 167 157 137 146 147 139 150 148 141 133 135 154 149 134 117 138 95 115 201 250 248 218 207 209 211 212 212 212 212 211 211 211 197 196 198 203 208 211 207 210 210 209 210 212 191 148 172 171 174 178 167 155 163 159 170 185 193 194 192 196 197 203 199 187 175 193 180 192 198 173 165 176 155 169 165 199 184 161 164 169 182 168 162 165 161 170 174 178 178 177 172 168 168 171 129 143 135 139 135 138 149 129 132 148 141 134 112 119 110 126 214 248 247 229 207 209 211 212 212 212 211 211 211 211 213 213 212 214 214 215 216 217 216 218 217 220 218 161 155 168 171 170 172 181 186 183 184 189 189 179 185 190 190 186 184 180 177 181 200 182 137 187 137 165 161 139 186 145 194 177 175 161 173 162 152 160 162 170 170 174 170 172 182 179 180 153 147 140 156 136 139 133 141 140 136 144 136 130 107 107 116 136 233 250 245 236 204 208 211 212 211 211 211 211 209 211 215 215 215 214 214 213 212 214 216 216 217 216 215 210 172 167 176 177 175 184 167 158 186 186 182 188 175 185 181 179 175 195 169 171 151 165 159 151 186 167 143 164 166 157 131 115 169 135 134 153 154 159 161 168 172 165 172 171 169 172 162 164 170 156 131 130 137 147 132 134 126 136 138 98 111 104 125 167 245 247 240 235 233 208 210 212 211 211 210 210 211 211 212 212 213 212 212 210 213 213 213 215 214 221 216 205 253 129 162 179 184 161 168 166 168 184 190 179 182 173 192 175 170 172 177 162 170 153 162 161 129 166 127 185 147 144 136 128 125 141 166 141 150 161 163 163 161 159 164 170 172 165 147 140 139 147 149 120 132 148 126 113 134 114 119 88 104 111 131 217 243 247 236 234 246 209 209 212 211 211 210 210 212 212 213 213 213 213 213 214 213 213 211 213 212 212 212 247 252 226 146 167 170 192 164 175 220 180 146 188 178 190 170 167 162 160 164 168 164 165 157 142 145 154 163 149 166 133 133 157 156 146 142 152 158 158 167 167 178 170 160 173 159 152 171 155 163 156 140 132 137 113 128 107 101 102 104 95 114 123 148 244 249 242 232 237 246 216 211 204 210 210 210 211 212 212 213 213 213 213 213 213 213 213 209 211 212 212 221 253 249 209 134 175 164 171 166 178 178 189 165 166 197 187 179 177 172 177 177 160 166 166 169 167 166 161 164 140 148 151 151 149 157 182 162 160 163 170 168 182 168 177 171 169 157 151 129 172 163 150 134 136 125 132 121 98 79 94 85 97 113 123 226 247 245 237 232 240 250 234 230 215 211 211 211 211 211 212 213 213 211 213 213 212 213 212 211 212 210 205 249 253 252 168 174 163 156 179 171 194 169 168 181 174 172 185 197 199 194 180 186 186 186 208 215 219 213 192 168 191 193 204 211 184 185 145 173 174 182 181 185 185 176 163 173 155 166 161 164 155 127 141 135 118 114 105 91 65 80 88 97 104 121 177 241 245 243 234 235 243 251 254 5 232 213 210 204 211 210 211 213 214 211 213 213 213 213 213 211 212 210 223 254 253 231 154 201 176 157 150 175 183 201 199 192 195 180 208 199 203 197 196 204 212 213 211 216 212 211 208 205 208 202 201 204 204 187 182 173 183 189 189 188 197 179 170 178 159 196 157 173 142 149 139 140 105 97 92 68 72 85 94 99 115 129 247 249 244 239 232 237 244 251 252 17 11 227 211 212 213 211 211 213 213 211 213 213 213 213 213 212 212 210 245 253 253 210 168 190 172 181 169 165 158 170 177 183 191 206 204 212 214 212 219 214 216 217 212 210 214 205 202 210 212 208 214 214 207 211 209 212 206 210 210 201 196 179 162 161 178 186 161 143 145 130 127 113 107 79 68 69 81 90 97 108 121 251 249 242 235 233 233 239 246 250 254 112 6 25 231 215 212 211 209 214 214 214 214 214 212 213 213 213 211 208 255 254 251 174 160 186 187 171 166 137 133 157 160 204 192 208 193 201 202 211 215 213 208 211 214 214 213 209 207 204 208 211 206 210 214 212 210 210 207 213 202 215 205 199 177 173 188 139 159 123 159 113 104 108 123 80 62 84 95 100 106 107 237 244 243 236 231 230 235 243 246 251 251 226 16 27 119 215 212 209 208 214 214 214 214 214 212 213 213 213 210 223 255 254 247 162 117 170 196 184 181 177 150 154 156 182 189 189 184 209 197 208 207 206 210 212 215 214 211 202 204 196 208 203 212 214 210 198 209 197 212 203 192 195 186 183 186 153 140 131 130 139 134 116 126 92 74 70 77 90 94 111 102 232 236 238 237 231 229 231 237 244 245 249 254 255 18 20 18 236 214 208 209 214 215 214 215 214 213 213 213 213 208 231 255 255 245 166 99 165 193 187 180 161 162 171 167 167 182 199 193 191 203 210 195 205 206 199 200 205 209 208 198 198 198 202 199 207 204 205 192 201 203 191 192 180 180 178 161 188 155 129 104 109 112 126 87 90 78 81 92 95 95 129 238 237 238 235 231 226 230 236 242 244 245 246 254 239 19 23 32 103 222 208 211 214 214 214 215 214 214 214 214 213 212 247 255 255 244 155 110 144 193 188 186 184 163 141 175 173 164 187 206 181 200 192 194 200 206 185 206 200 185 205 184 189 215 186 202 199 203 192 207 191 201 184 152 170 173 166 135 158 133 108 106 100 96 93 75 72 84 94 88 78 177 235 236 232 232 234 222 227 237 241 241 242 243 251 252 97 19 27 29 27 235 214 211 214 214 214 214 214 214 213 212 211 210 251 255 255 248 125 116 137 198 191 187 187 179 179 134 134 194 190 176 202 197 176 184 183 176 198 179 187 177 171 172 189 197 187 179 178 181 188 180 208 190 175 187 154 163 136 114 128 88 130 107 122 81 57 70 80 95 89 87 222 231 234 228 227 224 222 226 235 237 242 239 239 242 253 254 2 26 31 31 31 59 229 214 214 214 214 214 214 214 213 213 209 208 251 255 255 249 114 110 121 201 189 181 191 185 178 139 94 152 162 164 164 182 178 179 146 187 159 186 186 174 180 177 186 155 197 205 163 161 170 163 145 148 161 151 157 161 138 160 172 111 116 106 110 79 76 76 85 58 179 213 233 233 223 219 229 223 218 232 238 239 241 238 244 246 253 182 35 28 32 34 29 31 179 215 214 214 215 214 214 214 214 214 211 209 251 255 255 253 123 100 113 190 193 192 189 193 192 182 134 113 137 164 170 175 147 134 177 183 167 168 159 170 148 160 168 154 170 196 152 158 160 163 158 162 111 122 158 103 129 84 130 101 97 97 61 61 76 61 112 217 214 222 228 222 216 220 223 225 231 236 236 240 235 240 238 250 252 0 25 24 34 34 32 25 23 231 214 214 214 214 214 213 214 214 212 210 251 255 255 254 177 92 92 181 188 189 191 190 192 187 166 147 136 136 176 185 164 142 139 117 144 133 185 138 155 146 161 202 153 192 185 176 152 149 157 127 114 136 131 153 132 108 87 106 91 61 56 43 92 210 202 227 211 219 216 212 216 227 223 228 236 236 237 236 234 242 249 255 63 24 29 31 34 37 33 25 19 22 214 214 214 214 215 212 213 212 212 210 251 255 255 254 247 53 83 168 189 190 194 193 190 190 184 164 130 116 138 167 158 135 123 128 160 137 159 188 111 148 136 136 145 176 164 165 162 138 104 136 77 80 92 135 101 62 108 94 51 45 80 178 198 207 209 205 208 213 209 210 221 228 224 233 240 232 235 234 228 252 251 206 22 26 29 33 32 35 36 35 29 30 214 214 214 214 214 214 214 213 213 211 252 255 255 254 254 78 76 150 178 193 197 193 191 189 183 179 174 140 104 135 132 127 116 117 106 130 136 194 130 169 133 141 113 104 116 121 198 73 129 90 112 114 111 97 125 56 43 30 80 169 190 198 204 206 198 199 211 211 207 221 228 224 230 236 233 232 233 231 242 251 250 0 21 25 33 34 34 34 35 35 31 31 214 214 214 214 214 212 214 213 214 212 251 255 254 254 254 223 42 130 161 186 193 192 190 186 185 180 171 170 160 126 97 116 93 136 89 121 78 127 164 83 172 94 81 123 103 137 70 76 61 97 54 71 67 85 33 22 93 166 182 194 193 200 203 201 194 199 210 203 217 229 223 229 235 229 228 230 232 238 249 253 38 35 37 28 31 34 37 36 35 37 36 35 212 212 212 214 214 217 214 213 212 216 252 255 255 254 255 251 39 108 148 178 193 197 192 188 181 179 173 169 156 138 128 104 96 112 103 124 99 134 76 98 88 87 72 124 89 57 76 78 86 52 60 69 31 29 100 171 178 186 190 190 188 198 198 194 200 209 207 215 226 227 222 231 234 224 231 232 235 243 250 138 13 21 26 33 31 31 36 37 36 38 40 37 212 211 212 212 216 219 218 220 218 149 254 255 255 255 255 255 231 77 131 165 193 194 192 189 184 180 175 171 160 153 135 131 112 89 73 62 69 55 49 69 68 35 49 37 42 40 55 36 37 48 30 39 122 164 173 188 185 189 190 185 191 199 192 197 209 210 210 224 227 221 223 236 228 222 238 232 242 253 225 6 21 26 31 36 33 36 36 36 36 37 37 43 212 214 215 214 200 119 232 221 233 3 255 255 255 255 255 255 253 102 111 160 183 196 193 190 187 184 178 174 163 154 142 128 117 93 88 72 67 68 67 57 47 56 66 63 64 57 59 65 37 74 150 166 174 178 183 184 189 185 178 186 196 193 191 207 211 209 220 224 222 222 228 225 223 234 234 237 250 255 8 15 23 27 32 34 32 34 33 35 35 38 39 41 213 214 219 231 34 38 19 179 71 30 254 255 255 255 255 255 255 247 76 139 174 189 191 191 187 187 182 174 171 154 144 137 119 102 92 82 77 71 68 63 70 57 66 61 74 47 46 123 156 166 173 178 175 181 177 178 192 185 183 195 195 197 200 217 217 215 223 224 218 224 230 218 227 231 233 251 254 36 20 21 25 28 32 31 32 32 35 35 33 39 39 39
