P2
# Generated by OpenCV 4.2.0
92 112
255
60 89 74 50 55 66 64 37 57 103 114 135 144 161 168 181 181 180 184 191 197 198 198 202 204 206 215 217 214 214 216 217 220 218 217 220 221 216 217 213 211 216 213 200 202 187 196 201 191 208 212 215 210 213 207 183 183 188 210 205 195 208 206 203 204 202 200 186 187 184 147 97 87 119 170 129 137 130 111 119 104 75 78 64 55 45 49 55 55 78 101 93 60 78 64 48 65 70 50 35 71 110 133 141 150 165 173 181 182 182 186 190 196 198 200 204 206 211 215 212 214 215 216 217 220 218 219 220 218 216 215 212 217 217 212 210 213 199 209 212 203 202 210 207 211 210 212 205 197 184 199 208 212 209 206 205 205 203 199 188 191 195 167 119 111 106 151 147 129 138 134 108 103 83 73 67 73 58 45 53 67 86 118 94 73 74 67 52 76 67 33 50 91 114 137 145 153 166 178 184 183 184 187 192 196 199 200 204 206 210 214 211 216 216 214 217 221 222 221 219 217 215 216 226 223 220 219 218 215 213 215 212 214 213 211 211 212 215 214 213 211 199 194 215 216 213 209 209 208 205 197 193 194 196 185 138 158 140 131 149 164 153 138 129 111 100 78 61 52 62 58 45 55 63 96 114 87 54 66 63 85 77 35 56 93 123 140 149 155 167 180 186 186 184 187 195 198 202 200 201 206 209 211 211 214 215 216 217 218 222 221 220 218 219 222 226 224 223 223 222 222 220 216 216 216 217 215 217 218 216 218 216 214 215 210 214 216 213 211 210 207 207 197 199 199 196 188 152 161 166 165 155 171 176 152 126 116 115 97 68 51 44 46 46 50 53 54 97 67 50 60 63 79 76 41 73 107 128 146 150 158 173 180 189 188 186 188 194 197 202 202 203 206 208 209 213 214 215 215 219 219 220 219 221 221 221 224 223 223 223 224 223 224 220 220 219 220 218 219 219 218 219 220 220 217 215 216 216 215 213 212 210 210 207 204 205 203 199 193 177 167 175 183 172 172 181 175 150 130 115 119 93 66 47 40 37 37 43 57 48 57 53 59 64 72 62 53 78 107 132 147 150 161 171 178 191 190 187 188 192 197 200 201 206 206 211 213 213 216 217 217 218 219 220 220 219 219 222 222 221 220 223 224 222 221 218 219 217 220 220 218 218 217 219 220 221 219 217 219 219 218 217 212 211 210 204 206 205 203 202 196 194 181 174 187 185 179 172 172 155 148 152 134 126 104 98 88 53 38 36 43 39 53 54 56 73 77 52 50 82 114 138 150 154 162 169 179 192 190 187 187 193 196 199 203 204 206 209 212 215 215 216 215 215 220 219 220 218 220 220 221 220 222 224 222 222 221 221 219 220 220 220 219 218 218 219 219 221 220 220 224 216 215 216 213 213 211 210 207 206 203 201 198 199 194 176 190 187 187 185 168 156 155 158 147 142 117 108 99 87 56 48 45 40 49 54 59 76 67 40 54 92 122 139 154 157 163 171 184 195 191 183 187 194 198 201 202 204 206 204 211 215 213 216 217 215 218 220 220 223 222 219 221 221 222 223 223 221 220 220 220 219 219 218 219 218 219 218 217 219 220 219 219 219 215 215 214 213 213 209 207 207 204 203 200 196 199 191 193 188 189 189 175 158 150 147 144 143 124 107 91 95 78 66 96 67 47 51 61 71 52 32 66 102 123 145 155 158 167 177 190 195 189 188 188 191 199 201 204 210 210 204 208 214 214 217 218 219 220 217 218 221 219 219 220 221 222 222 222 221 219 219 220 219 218 217 216 216 217 216 218 217 218 218 220 221 219 215 215 214 211 210 209 208 204 202 202 200 196 189 194 188 189 186 175 164 158 157 146 150 129 108 95 97 98 63 90 94 47 49 57 81 60 36 71 104 127 148 156 158 166 183 193 195 193 188 190 192 195 201 208 213 214 206 208 213 214 215 218 218 218 217 216 217 218 220 220 218 221 220 220 222 221 220 221 217 217 218 218 215 216 216 218 218 218 220 219 217 216 215 215 213 211 208 208 208 207 204 202 203 201 190 201 194 188 181 170 165 162 167 150 149 133 121 102 91 103 86 79 123 54 43 53 69 92 52 74 113 127 148 158 160 168 188 191 194 194 191 192 193 198 200 205 213 210 205 211 215 214 214 216 218 217 217 217 218 219 219 217 219 221 222 222 220 219 220 220 218 218 219 218 216 213 216 217 217 217 217 219 215 212 216 212 208 209 208 208 208 205 204 202 203 201 199 198 197 191 178 169 167 166 166 151 151 132 132 120 93 101 111 69 118 50 42 49 65 85 81 88 118 135 151 160 158 170 188 190 192 192 190 189 194 197 199 207 209 212 210 210 215 216 216 217 217 215 217 218 218 218 217 218 218 220 222 222 221 218 219 219 216 216 217 216 216 215 214 213 214 212 212 214 214 213 212 213 211 211 207 205 209 207 203 201 204 202 201 200 198 194 176 166 169 169 164 144 145 137 128 129 97 96 109 84 89 50 52 56 70 76 59 93 123 136 155 155 156 169 185 189 191 190 192 190 191 196 200 204 209 213 213 214 217 217 217 217 216 216 217 217 217 219 218 218 218 220 220 221 220 220 221 217 214 213 215 215 214 214 213 214 214 210 212 212 214 215 213 212 213 215 211 205 207 207 200 197 201 205 201 201 199 193 178 163 167 169 157 145 148 133 120 114 101 92 97 101 67 55 56 54 69 85 64 99 125 140 156 153 153 165 183 188 193 188 190 191 190 196 201 204 209 215 216 214 216 219 218 218 219 218 215 218 219 219 218 219 221 220 221 220 221 218 218 215 215 215 215 215 216 214 212 213 215 215 212 212 215 215 213 211 211 214 210 205 206 205 204 201 201 202 202 202 198 192 179 164 165 167 155 146 149 131 119 115 110 74 101 107 62 57 62 49 69 97 73 102 122 142 153 151 149 163 183 193 195 188 189 192 193 197 201 205 208 215 217 216 216 216 218 219 218 219 217 219 219 219 220 219 216 221 221 218 218 221 218 217 215 215 217 217 215 214 214 215 215 215 215 213 213 212 211 209 209 211 211 208 207 206 206 202 202 204 202 200 195 188 176 165 165 165 154 151 151 127 109 129 126 78 102 118 75 63 74 56 73 89 83 99 117 137 152 150 152 162 184 190 194 189 190 193 197 199 202 204 208 217 217 217 218 214 216 218 219 222 219 218 219 220 222 220 221 220 218 218 219 219 217 217 217 218 217 216 216 215 216 217 218 218 218 216 211 211 208 203 206 211 211 209 207 206 206 203 203 204 201 198 192 184 176 165 168 166 154 154 149 137 93 131 126 94 106 135 86 64 71 74 63 70 69 105 112 136 151 146 153 166 181 184 189 188 188 191 191 199 206 208 209 218 218 216 217 218 219 219 222 221 222 222 221 221 220 220 222 219 219 220 219 219 218 218 219 219 217 216 215 217 216 219 220 219 218 218 216 212 207 207 209 211 211 209 205 205 205 205 205 205 201 194 188 179 176 165 166 167 152 162 156 137 103 130 115 106 99 143 103 73 65 76 63 66 60 105 112 135 145 143 158 173 179 174 169 170 175 183 181 182 194 204 206 214 216 215 215 221 222 221 222 224 224 223 223 222 220 221 218 218 218 218 218 219 219 219 219 218 218 220 219 219 222 223 220 220 219 222 220 216 214 212 211 210 212 207 202 203 203 204 205 202 197 191 184 174 169 168 172 169 155 166 160 143 105 121 128 101 92 136 103 83 67 84 73 43 65 104 113 133 145 145 154 168 162 155 151 148 146 145 151 154 161 176 188 192 194 201 202 215 222 220 222 224 222 222 222 219 218 219 220 218 220 217 218 219 218 218 218 218 218 221 222 220 220 220 221 222 223 223 222 220 214 213 209 208 210 208 198 200 202 204 200 194 192 190 182 174 171 170 172 171 158 169 163 147 117 110 132 103 88 103 106 68 81 79 87 45 65 106 113 132 137 139 139 140 145 144 130 129 135 124 120 131 132 136 151 163 179 172 186 195 214 218 223 222 223 224 223 221 219 221 220 219 219 218 219 218 216 218 217 216 218 219 220 221 223 219 223 221 223 224 222 218 216 214 210 209 206 206 202 200 199 198 198 193 192 189 179 172 171 167 172 170 162 162 157 142 118 102 98 87 97 72 98 64 78 90 84 78 67 107 116 122 116 117 128 124 113 127 118 108 119 113 102 109 118 136 138 156 171 168 166 188 195 208 222 221 226 229 228 225 222 224 222 220 218 220 221 219 219 217 217 217 217 220 218 220 225 222 223 224 231 226 222 222 217 207 207 206 203 203 200 199 195 192 191 191 193 187 176 167 168 168 170 166 161 154 156 143 121 94 85 82 88 65 84 58 71 86 85 82 85 108 112 104 104 114 116 116 111 113 125 126 118 110 100 101 125 136 138 129 145 161 155 171 194 192 211 214 225 230 232 229 227 228 225 222 222 220 222 223 223 221 220 220 217 217 222 220 217 218 216 220 191 185 186 186 190 193 191 191 190 190 190 195 193 188 185 190 190 184 170 164 167 169 169 161 156 162 163 135 135 91 80 86 88 82 87 38 48 72 99 100 80 101 110 98 98 111 133 141 141 130 145 162 165 160 138 119 119 136 124 123 116 144 149 166 184 180 201 209 211 228 228 229 227 228 227 223 221 220 222 223 219 221 222 221 218 218 213 223 212 208 198 168 155 156 163 162 174 181 176 174 170 172 177 177 176 170 171 178 186 184 170 165 165 168 166 161 160 169 155 139 136 92 86 90 85 95 89 35 31 42 62 90 90 95 104 105 114 128 147 155 162 157 160 173 176 178 176 168 147 140 135 139 135 143 154 165 171 173 186 206 206 217 219 221 222 224 225 221 219 220 220 219 219 220 222 222 222 220 211 223 210 189 177 164 162 157 156 162 163 156 156 156 156 155 161 166 167 166 165 165 168 174 172 165 160 162 162 160 160 167 144 143 140 103 95 107 80 80 100 35 30 36 47 61 85 97 110 111 115 132 151 156 160 167 174 176 176 178 179 176 172 165 159 150 155 155 160 169 166 171 178 205 202 205 213 211 218 220 219 217 216 218 218 219 218 220 220 223 224 212 208 219 195 173 182 168 150 139 142 138 133 132 143 159 157 151 148 147 149 154 150 134 133 140 145 150 150 153 157 155 156 161 144 143 134 129 89 100 83 71 87 43 28 35 71 71 77 98 105 111 120 132 158 156 161 164 172 172 172 176 181 179 169 176 170 163 160 161 162 163 167 169 175 194 197 199 209 212 210 210 210 215 213 213 216 217 216 218 221 219 221 209 205 197 192 184 178 167 143 137 132 129 120 135 140 141 137 130 148 153 156 146 131 121 128 125 132 136 138 142 152 152 151 154 147 144 133 141 104 97 88 96 89 40 45 19 59 83 86 101 107 116 121 129 149 153 153 162 171 172 178 184 185 185 180 180 183 173 161 160 159 162 165 168 173 183 190 197 204 205 205 206 206 212 214 211 214 215 211 211 213 214 211 204 201 190 192 184 174 160 156 160 163 142 151 154 146 159 171 172 174 167 176 178 171 168 153 143 130 125 123 132 143 146 144 145 145 146 139 141 124 117 92 95 95 33 48 38 38 79 97 102 110 114 116 125 142 144 146 162 172 178 183 189 188 191 190 192 193 192 180 175 165 159 160 161 170 174 177 186 195 197 200 204 204 208 212 215 215 212 209 207 208 205 206 198 195 186 180 191 178 169 173 177 172 171 177 177 182 185 187 181 181 184 187 186 184 178 173 170 171 142 123 127 132 139 141 141 146 148 141 141 145 124 103 89 99 58 54 61 90 119 100 106 116 114 114 119 130 134 142 157 167 180 181 188 194 194 196 197 204 202 206 201 186 171 159 155 158 161 167 178 186 191 193 198 200 205 207 212 215 214 208 205 205 200 199 194 189 184 181 178 179 176 174 175 179 185 187 189 189 193 189 185 183 188 187 185 184 184 184 184 175 157 140 129 133 138 141 141 147 152 146 142 145 131 115 87 96 62 74 83 114 118 100 116 113 115 117 123 128 133 141 154 162 159 158 166 168 169 175 179 184 193 199 208 205 201 190 172 158 152 154 164 173 180 189 193 192 199 208 210 215 210 205 203 200 194 191 186 180 179 175 172 173 175 180 186 194 199 198 199 198 200 194 193 192 189 184 180 178 175 180 185 184 169 147 136 142 146 146 141 145 153 143 140 142 137 120 88 88 67 73 80 128 115 114 124 117 120 120 132 134 139 143 136 128 144 154 158 164 173 176 178 176 168 166 181 200 202 203 195 178 166 155 148 156 167 180 187 191 204 212 214 217 210 203 198 194 188 183 177 174 174 175 176 179 188 202 207 206 205 204 203 202 198 195 195 192 188 186 182 178 176 175 176 177 167 147 140 142 143 145 141 147 152 140 140 147 137 107 93 94 75 74 93 118 114 117 126 118 124 118 136 140 142 138 119 140 155 161 151 163 172 166 184 194 196 178 156 163 182 195 197 191 184 174 156 143 143 160 178 190 204 214 219 220 208 204 197 187 181 176 172 172 173 180 185 189 199 205 206 203 201 202 202 201 201 204 198 189 192 187 182 178 178 170 171 170 158 143 147 149 146 145 142 146 150 141 143 153 132 109 104 114 78 75 86 113 110 122 129 123 127 120 135 140 142 134 123 130 135 134 106 93 80 83 107 115 129 161 166 162 147 177 193 193 183 181 175 156 140 140 161 181 201 217 225 219 212 202 195 186 171 168 172 175 179 181 189 193 191 193 184 172 172 172 171 174 173 178 174 173 180 183 180 179 172 166 165 159 150 146 147 149 149 149 146 145 146 139 146 148 131 124 115 114 78 72 83 103 101 126 133 126 124 116 136 141 141 113 97 92 86 99 114 78 84 98 108 63 68 92 136 155 160 143 161 180 176 180 180 170 158 137 146 172 198 214 224 221 211 198 187 173 165 169 175 179 182 178 185 193 181 158 154 165 164 175 183 184 188 178 171 152 149 146 158 168 166 164 159 155 151 146 148 149 150 153 148 142 145 145 150 143 128 107 107 115 70 71 77 96 99 130 133 127 125 122 133 135 125 90 74 80 102 162 155 87 102 90 71 86 114 94 109 148 150 155 158 157 174 178 183 172 160 147 138 166 193 214 220 214 206 191 173 163 167 174 175 176 178 180 183 175 152 141 159 161 150 148 134 124 130 122 132 147 153 143 136 137 153 165 163 162 154 149 147 148 150 159 151 143 144 147 148 134 112 102 114 109 79 72 75 87 102 130 131 131 127 130 140 136 127 111 117 130 139 174 164 82 115 118 55 79 140 107 182 223 165 138 154 159 184 205 202 189 160 149 142 172 198 213 215 211 202 186 169 167 173 176 179 173 173 171 161 145 146 147 138 130 125 77 78 89 54 75 75 62 105 134 136 129 128 149 166 166 157 152 144 149 155 157 152 141 148 149 140 129 108 113 111 107 71 64 67 78 104 132 125 132 133 136 149 150 144 132 132 146 161 168 187 121 84 123 128 136 115 124 216 203 177 145 126 133 169 215 222 202 170 148 149 175 195 206 209 206 200 181 163 170 174 183 191 184 171 160 157 154 145 141 137 167 161 73 109 101 78 85 117 66 108 98 95 128 126 140 170 178 156 150 144 146 154 159 153 143 152 144 142 124 111 123 120 97 55 74 63 75 99 125 126 131 139 149 158 162 148 137 148 150 153 164 171 181 124 104 110 152 133 163 176 169 166 171 177 185 191 213 225 194 160 151 154 175 194 203 201 200 194 179 162 169 174 191 223 216 197 165 162 149 150 174 198 237 185 100 128 61 56 102 116 76 160 162 87 86 117 144 173 171 148 143 145 143 156 160 154 147 152 145 142 120 113 101 109 73 11 60 75 83 105 117 128 132 143 156 162 165 154 142 141 157 158 157 159 148 166 164 187 197 208 198 191 201 204 217 215 214 210 215 197 169 157 155 157 172 191 199 195 192 187 177 166 168 176 189 214 223 199 166 150 152 166 174 189 216 211 120 131 122 113 132 92 89 174 162 133 89 95 134 148 145 143 142 146 148 162 158 154 149 151 151 137 108 105 91 87 74 17 38 66 83 104 120 127 136 152 164 166 166 163 153 138 146 158 168 177 175 176 186 202 199 221 217 208 204 210 205 206 206 204 204 181 162 163 153 157 171 185 190 186 188 178 172 168 168 177 186 202 211 212 199 181 170 165 160 159 177 194 152 99 131 119 103 80 159 176 150 146 126 122 147 153 147 137 144 149 155 160 159 152 151 147 150 132 94 87 85 99 79 23 56 46 72 95 106 124 139 156 166 175 177 162 167 159 148 155 165 173 181 183 188 193 188 191 194 203 203 206 203 207 216 219 198 173 169 158 146 156 177 189 189 182 190 181 174 169 169 173 181 200 210 204 199 203 193 185 168 170 174 184 192 180 180 161 132 160 167 155 149 145 141 156 166 167 172 162 157 156 156 160 159 154 150 143 146 131 101 92 94 107 83 24 37 55 45 85 103 128 143 159 174 177 178 167 170 182 171 163 162 171 176 177 182 183 188 186 191 203 206 210 213 216 218 204 180 174 169 150 149 158 181 193 190 185 188 181 176 166 168 172 175 186 214 217 204 198 199 197 181 183 194 193 186 187 200 215 173 137 159 170 156 161 165 162 164 169 177 177 171 166 164 164 163 155 147 141 143 139 110 98 122 117 70 13 29 56 60 68 95 130 146 167 180 181 179 175 171 176 189 190 186 180 178 180 185 188 193 193 198 203 213 213 216 215 207 190 179 177 169 156 150 155 178 193 194 193 187 175 169 168 170 171 177 181 194 212 214 204 205 204 193 185 184 188 198 202 207 209 203 173 177 184 174 169 163 160 170 176 181 176 180 175 167 165 164 154 146 143 141 145 118 107 130 110 60 10 24 49 64 68 99 130 148 171 181 186 188 181 178 180 182 186 196 190 191 191 194 202 197 201 208 213 211 216 218 210 195 184 179 176 170 158 147 157 185 199 200 198 189 174 166 166 169 172 178 186 194 201 215 217 211 207 208 206 197 187 184 174 175 186 193 186 179 175 170 164 169 174 175 183 186 174 181 177 167 168 162 153 143 141 144 141 118 127 136 81 83 9 11 29 58 67 89 133 151 173 181 190 190 187 188 186 186 191 204 197 199 203 201 199 199 205 207 215 217 212 206 202 188 176 175 175 165 149 149 170 192 200 201 199 188 171 164 163 166 172 177 189 193 197 208 221 219 216 215 210 208 211 205 194 182 182 176 180 178 174 179 180 181 181 180 182 184 184 184 181 174 166 160 149 140 140 141 137 121 136 115 82 89 10 7 9 64 76 77 126 154 174 181 192 196 192 194 192 191 192 198 200 199 197 198 200 199 203 209 210 217 206 199 196 182 174 176 169 157 147 155 178 193 200 197 193 187 171 162 163 165 171 178 188 195 194 202 215 225 228 220 212 213 209 209 206 202 200 199 197 196 192 191 192 195 186 180 182 184 190 187 185 176 165 154 148 142 140 138 137 121 139 103 85 91 9 11 12 64 83 77 128 154 173 179 190 197 199 201 200 199 197 199 200 201 199 195 204 206 212 212 211 213 207 201 188 179 175 172 161 151 149 161 178 194 198 197 193 184 171 161 161 162 167 175 183 192 197 198 211 215 232 232 226 218 211 210 207 203 199 203 199 192 194 192 191 194 190 181 185 190 193 190 187 176 163 153 144 136 134 138 130 117 147 88 87 103 12 23 10 63 103 80 127 153 168 180 187 195 200 201 206 204 204 200 203 204 207 207 206 209 211 215 212 208 205 196 184 176 170 163 156 146 152 167 184 197 197 195 192 183 171 162 161 160 163 173 181 184 198 201 209 212 222 234 228 228 218 213 208 206 201 200 203 195 192 193 191 194 191 187 189 191 189 192 188 176 164 156 144 132 131 140 127 131 132 80 94 88 17 14 1 75 120 84 126 147 166 177 183 193 196 202 206 203 207 210 213 213 213 211 210 211 212 213 210 210 203 191 181 172 165 162 146 145 155 175 188 191 197 194 188 179 170 161 157 157 162 167 178 185 191 202 208 216 216 222 226 225 221 212 209 207 204 201 201 197 194 193 190 191 188 190 193 194 190 186 183 177 167 157 143 132 132 138 133 132 96 86 90 99 9 9 0 100 155 93 127 146 161 173 182 191 197 199 206 210 210 208 214 214 216 216 214 214 212 213 213 205 202 192 181 168 166 162 141 150 168 184 189 192 191 189 189 182 170 159 154 153 158 167 175 182 186 198 206 213 217 219 222 222 221 216 212 209 206 203 200 197 198 197 196 197 194 190 190 192 189 183 179 175 163 156 141 130 131 133 124 100 80 94 111 131 7 12 0 103 178 96 120 139 154 170 177 187 198 202 205 210 214 213 213 213 216 213 214 214 216 214 212 207 201 189 180 171 162 151 147 160 179 192 194 197 195 191 193 190 178 164 150 147 156 163 168 176 187 193 203 210 216 222 226 225 221 218 216 215 214 211 205 200 203 205 205 205 202 194 191 191 186 182 175 171 161 150 137 128 129 128 116 103 91 127 155 156 9 9 0 75 172 97 115 138 156 169 174 183 197 201 205 208 211 214 214 214 215 213 216 216 217 218 216 209 198 185 179 168 157 144 148 173 185 198 202 202 202 201 198 192 183 173 154 144 152 162 164 170 186 197 197 204 217 221 227 230 225 222 219 218 217 218 205 198 209 208 207 207 205 200 192 193 188 182 172 171 158 142 137 128 129 127 114 100 112 180 180 146 10 11 3 39 155 107 114 132 153 167 173 186 193 196 202 207 212 214 213 214 218 218 217 215 216 218 215 206 194 185 176 160 159 143 157 175 189 204 211 211 208 210 208 198 186 176 162 145 148 161 161 164 175 195 205 209 213 219 224 228 227 225 222 219 210 215 218 211 209 210 208 207 205 199 198 194 189 178 170 163 154 141 133 125 124 123 116 91 145 193 175 159 10 11 9 31 122 103 108 123 144 161 178 189 194 198 202 211 215 214 215 216 218 219 216 216 215 215 211 207 194 184 168 164 151 141 164 182 200 208 216 217 216 215 209 199 191 181 166 147 149 162 160 159 164 188 204 206 214 225 221 226 224 224 223 223 220 220 219 219 213 212 210 207 202 199 199 196 186 176 168 154 148 139 128 115 120 117 97 111 171 193 179 187 9 9 6 42 136 96 99 115 137 150 173 189 196 198 201 207 211 210 217 219 218 219 219 217 216 213 210 204 196 179 160 160 147 147 166 189 205 212 221 219 224 226 215 197 191 179 164 153 153 161 164 160 156 173 199 207 219 219 222 226 225 227 224 225 226 227 222 216 214 213 209 200 200 201 197 192 184 175 162 148 145 140 126 115 118 111 84 129 175 190 172 204 9 10 3 38 154 103 94 113 129 143 167 187 193 196 200 206 206 211 219 219 216 219 219 214 205 215 211 197 193 166 155 155 151 146 158 178 197 207 208 211 222 227 216 198 186 174 162 157 157 161 165 164 157 159 186 206 216 217 225 226 230 228 229 230 230 227 228 223 216 215 212 204 202 202 196 188 184 175 161 146 138 138 127 114 114 105 89 132 177 182 180 221 9 8 6 29 164 128 91 110 123 137 166 187 192 195 202 208 211 213 216 216 216 217 217 217 211 212 211 200 188 155 157 157 156 141 142 154 176 191 199 206 211 211 198 185 171 165 166 163 163 165 166 162 158 153 172 199 209 217 221 224 232 230 232 230 232 231 230 229 224 218 215 211 201 201 198 190 178 167 158 143 137 140 121 109 111 105 105 140 178 181 192 192 8 7 1 41 190 155 88 103 122 130 160 183 191 193 202 208 213 213 214 213 213 215 215 216 211 211 205 199 180 147 164 157 146 137 136 144 155 166 180 192 196 199 183 174 165 161 161 159 165 168 166 164 160 153 166 195 205 212 214 223 226 227 234 234 231 225 228 227 223 220 213 211 208 198 197 192 179 164 151 142 138 134 120 104 108 105 107 151 184 171 154 175 8 8 0 81 210 173 92 86 117 130 151 179 187 194 204 209 212 210 212 214 214 214 214 216 213 211 202 196 175 142 158 153 133 108 86 102 149 151 159 184 187 179 171 167 152 141 136 142 167 175 170 169 160 150 166 196 200 204 215 215 218 221 226 235 230 221 227 225 219 219 213 214 209 200 195 191 182 165 148 141 135 132 115 104 107 99 114 165 190 149 161 195 9 9 0 108 215 193 113 91 114 126 144 173 185 190 200 208 211 210 210 213 215 212 212 212 212 209 203 196 181 134 152 160 161 190 175 82 63 132 151 162 167 163 161 124 89 74 63 95 121 148 168 168 161 147 175 198 196 203 211 214 213 221 222 228 232 231 223 223 223 214 213 212 206 199 194 187 174 161 145 139 138 128 115 107 101 95 128 176 193 160 170 203 10 9 0 92 213 203 135 94 113 123 140 170 179 187 200 209 210 207 209 211 210 212 210 210 211 206 204 196 196 144 143 176 178 195 222 178 118 99 121 147 152 154 142 114 137 133 150 201 173 133 153 165 152 155 191 197 197 197 208 213 211 216 222 227 227 227 225 221 218 214 209 208 204 198 194 187 174 163 144 138 138 122 104 107 104 98 139 180 182 173 196 210 9 9 0 51 204 212 154 95 110 117 134 163 178 189 198 205 210 208 207 210 206 211 212 209 208 204 199 195 196 187 146 148 169 170 175 187 183 153 105 125 136 141 136 142 161 179 198 200 176 149 147 144 142 179 193 193 197 196 201 205 205 213 220 225 224 223 220 216 214 212 206 206 205 198 193 186 178 160 138 132 135 120 108 105 100 104 142 174 174 194 213 211 8 7 4 23 185 216 175 95 108 120 130 152 182 192 198 205 207 209 205 203 210 209 208 208 204 202 202 198 193 196 190 160 142 155 169 182 190 181 163 134 134 138 142 148 158 180 188 171 161 154 146 147 173 188 194 194 196 196 198 204 204 208 208 216 218 217 215 216 215 208 206 205 201 195 191 183 176 158 138 130 132 121 107 102 101 112 150 169 189 210 214 213 8 8 9 3 129 217 176 91 108 122 124 152 173 188 193 201 203 207 205 205 208 211 205 203 202 203 203 200 197 195 195 190 170 164 171 182 191 193 200 181 154 156 170 179 178 179 178 175 181 184 176 184 189 188 191 194 196 198 202 206 199 197 195 205 217 216 216 215 213 208 202 203 200 194 186 180 170 154 135 128 127 114 107 105 103 118 155 174 199 214 218 217 6 7 8 2 28 177 175 87 108 124 115 143 164 185 188 196 202 207 210 207 205 205 203 201 202 205 203 199 199 198 193 191 184 175 186 192 197 202 211 223 204 200 208 200 203 194 194 191 191 183 176 181 186 190 191 195 196 197 202 204 202 193 194 209 218 212 212 215 213 204 197 199 198 193 187 177 165 151 131 125 127 114 107 104 105 123 164 191 199 208 214 218 7 8 7 7 0 42 124 69 106 129 115 137 156 179 191 192 196 206 208 206 204 206 205 202 204 204 205 204 199 195 189 190 186 180 191 197 194 202 215 223 218 220 210 199 208 203 196 188 192 186 181 182 188 189 190 194 196 198 199 203 203 203 189 186 203 209 219 213 206 201 199 194 191 186 184 172 159 152 131 123 127 116 108 104 104 124 178 206 200 205 212 217 9 8 6 7 9 4 4 32 110 130 119 132 155 176 189 190 197 204 208 201 200 205 201 201 204 204 202 203 202 195 190 189 179 182 193 197 200 209 216 215 209 216 205 209 208 206 197 191 189 187 183 185 190 191 191 192 195 199 201 204 201 202 198 187 177 183 193 202 201 200 198 194 186 183 183 164 154 142 130 122 126 115 107 103 97 127 197 215 203 208 216 214 9 8 8 8 10 9 0 26 114 134 123 122 149 169 184 192 199 204 208 197 201 202 202 203 202 202 203 199 202 195 190 190 183 181 194 198 200 213 217 216 217 222 209 202 202 204 198 193 193 177 177 185 184 188 192 194 193 195 198 201 199 200 201 200 188 177 187 193 203 207 198 193 185 180 173 163 151 141 134 128 129 116 109 103 104 139 205 217 210 212 216 213 7 7 7 7 7 9 4 26 110 133 130 119 142 161 177 191 193 202 196 195 196 196 200 202 201 200 201 202 198 192 193 191 182 186 195 200 202 216 217 217 223 223 217 210 208 209 202 199 193 189 185 186 188 189 194 196 190 194 193 192 194 198 200 202 204 193 188 196 214 206 189 189 177 173 167 160 150 146 132 131 128 116 111 100 107 145 204 209 205 208 208 206 7 5 6 8 7 7 5 23 111 131 130 123 136 158 173 185 193 196 188 192 191 192 193 196 199 198 199 198 197 193 191 190 181 183 196 202 204 217 221 218 219 225 221 214 211 208 205 197 192 193 198 199 191 193 194 197 197 194 190 190 196 193 199 203 203 201 188 176 185 172 179 184 176 166 163 160 154 145 135 138 129 118 109 96 108 146 200 201 200 201 199 181 9 6 6 7 8 7 6 14 109 139 139 120 134 150 171 181 188 186 185 186 187 192 194 191 197 198 196 193 193 194 190 184 183 184 190 200 206 214 225 214 217 220 220 217 216 213 208 196 193 195 199 199 197 196 192 195 200 193 189 187 191 192 195 199 204 192 163 167 174 183 186 183 177 167 161 163 156 146 141 139 123 115 107 94 110 151 95 78 81 78 71 41 9 6 7 7 7 8 5 10 109 138 145 124 137 142 162 175 184 185 183 181 183 190 195 188 193 197 193 188 190 194 193 191 189 190 188 199 213 214 221 215 216 215 216 216 218 215 209 200 192 200 201 200 200 201 197 193 198 199 191 186 187 193 198 198 201 200 183 173 178 187 188 183 177 170 162 164 161 152 148 137 123 119 104 87 117 120 0 0 0 0 0 13 7 6 6 7 7 9 6 8 101 138 143 134 141 141 151 168 179 180 186 185 182 191 197 190 190 190 191 188 187 190 190 192 192 192 191 196 202 212 214 216 217 220 219 218 212 204 196 185 184 188 185 184 185 187 188 190 192 199 191 183 185 187 195 202 200 196 194 183 179 185 193 189 182 168 166 166 164 153 154 136 124 121 105 87 116 65 4 14 11 10 14 28 6 6 7 7 6 8 8 2 87 144 145 135 142 145 142 163 170 174 183 183 182 188 192 190 183 180 181 184 178 170 172 169 177 175 175 174 168 180 184 189 196 203 201 184 173 172 167 170 171 177 171 168 169 166 152 155 175 187 179 169 179 183 190 197 199 200 193 183 181 188 199 193 179 164 168 169 165 158 150 133 129 122 104 89 107 30 12 13 9 10 18 34 6 7 10 7 7 7 7 1 80 141 144 142 146 151 139 156 161 170 181 182 188 192 191 186 174 166 161 159 160 150 146 152 162 165 165 165 163 156 156 158 159 167 163 157 159 160 169 170 172 177 170 166 165 164 150 148 149 148 163 178 179 184 186 185 193 196 189 190 184 194 207 196 181 165 170 176 172 163 151 133 133 123 101 86 78 22 15 7 7 13 25 37 9 8 7 7 6 7 7 0 70 140 146 147 152 162 147 149 158 162 183 184 186 197 196 188 179 162 145 132 136 153 152 142 145 150 158 162 165 158 147 153 157 165 159 162 160 159 179 165 165 156 159 159 161 156 151 147 138 139 153 160 170 181 180 178 181 192 190 194 185 194 211 196 180 169 174 177 175 164 145 135 133 124 100 89 49 17 8 6 13 17 30 42 11 9 6 7 9 6 7 0 52 139 145 148 154 170 159 142 156 158 177 187 191 192 193 186 177 147 107 110 130 131 138 123 112 111 120 125 127 132 122 122 135 136 137 145 137 127 125 128 123 125 127 118 119 123 131 132 130 136 130 111 134 159 173 179 183 192 198 201 183 191 209 192 176 171 173 182 174 160 140 135 134 122 95 79 29 7 6 7 16 22 35 46 11 9 8 8 7 8 7 0 34 132 145 144 157 166 166 145 149 159 177 189 194 195 189 182 158 125 103 91 96 92 101 104 113 115 117 113 103 119 123 127 141 140 141 145 136 124 127 128 131 136 144 145 130 120 117 109 117 121 125 135 152 172 190 191 197 199 206 203 187 198 206 187 179 175 180 186 177 158 141 136 133 121 102 68 20 11 8 7 15 32 39 46 14 9 8 8 7 9 8 3 17 120 143 148 161 170 173 155 139 158 175 190 199 201 198 200 197 188 177 155 128 115 122 135 143 147 163 167 160 167 164 169 167 175 183 181 172 168 175 164 166 159 156 159 154 150 149 145 156 175 174 185 195 204 205 204 203 205 214 206 188 202 200 184 174 183 189 188 172 151 141 137 134 121 94 64 14 16 12 10 24 37 44 46 13 8 7 8 8 5 7 5 7 100 146 149 159 174 171 160 137 156 174 192 203 205 206 208 208 200 188 173 166 164 152 147 152 151 160 169 172 179 180 176 185 183 182 188 194 191 188 180 180 179 177 170 170 162 164 175 175 175 175 182 194 204 206 206 210 213 215 201 193 201 192 174 172 191 191 185 165 147 134 133 137 118 85 62 10 16 13 15 30 43 47 49 16 10 7 8 8 7 6 8 1 78 145 148 159 168 174 166 137 150 173 192 205 207 205 209 205 201 192 176 164 167 164 166 174 176 181 186 188 196 194 193 197 203 201 207 212 206 203 206 202 193 192 188 177 170 172 173 166 169 173 186 200 199 204 207 211 216 213 197 192 197 186 169 185 200 192 182 160 146 133 133 130 106 87 57 7 13 15 22 35 45 48 48 19 11 7 8 8 8 9 8 0 45 136 147 154 169 167 167 141 145 169 189 206 209 203 207 204 208 199 184 175 172 170 162 170 177 181 188 192 200 194 200 200 202 208 205 201 198 198 194 191 184 186 180 170 172 178 168 174 178 186 200 203 200 200 207 212 217 208 192 191 192 174 173 195 197 190 174 155 143 136 137 126 98 93 51 5 15 22 31 40 47 47 48 21 11 7 8 8 7 8 8 3 15 111 145 149 168 172 169 147 134 161 186 200 206 207 203 203 208 205 192 187 185 186 182 174 171 175 176 178 184 185 188 191 190 197 195 193 192 187 184 182 184 183 183 179 184 184 182 189 194 201 202 202 201 198 206 215 212 203 199 195 181 164 173 201 194 181 164 148 142 135 137 121 89 97 46 14 21 29 37 45 48 48 48 23 11 8 7 7 8 8 8 8 2 80 146 150 164 172 172 158 133 148 176 195 205 206 206 203 203 203 200 196 197 195 192 190 184 174 182 179 176 182 185 185 186 190 191 192 192 187 185 187 192 191 192 184 185 185 187 194 203 208 199 195 199 197 203 211 204 199 193 178 166 168 192 203 188 171 157 144 137 135 130 107 85 105 36 16 28 34 43 46 48 47 47 24 12 8 7 7 8 8 8 6 0 43 137 152 155 169 175 168 140 138 164 181 189 200 201 200 199 200 201 200 203 203 201 201 206 199 191 191 190 186 186 190 192 195 198 197 196 199 203 202 207 207 202 193 190 188 193 203 208 203 199 200 196 193 198 205 199 194 184 166 171 184 193 191 180 169 153 140 141 136 122 96 87 111 28 24 33 40 45 45 45 46 46 28 11 7 9 7 7 7 6 7 5 15 101 145 155 163 174 166 152 132 142 171 182 189 196 197 195 201 201 198 202 203 203 203 207 213 208 207 207 203 200 197 195 200 207 204 204 208 212 214 215 211 204 202 200 200 201 205 202 199 200 198 195 194 195 196 190 190 184 172 178 189 192 182 174 164 150 141 140 131 115 83 99 108 31 34 39 44 45 44 45 46 46 30 12 7 8 7 7 7 7 7 7 1 64 127 155 155 165 169 157 138 139 159 181 188 190 193 194 199 195 198 204 201 202 204 206 211 214 212 211 206 205 204 200 201 207 205 207 210 214 213 211 209 207 204 206 203 201 205 201 199 197 198 196 192 188 188 185 183 177 178 182 190 187 177 168 161 147 141 130 122 101 82 124 106 34 37 41 44 45 45 45 47 46 29 13 6 8 8 7 7 7 8 7 0 28 109 133 154 163 171 161 141 139 154 173 184 187 186 194 195 191 197 204 196 197 207 206 208 211 212 210 206 204 199 200 203 204 202 201 206 209 209 209 208 205 207 209 206 204 206 201 201 196 195 190 182 182 185 180 172 174 178 184 187 183 174 169 155 145 136 123 117 84 93 132 97 36 41 41 44 46 48 47 47 46 28 13 8 8 7 7 7 7 8 7 5 3 76 125 148 157 165 163 147 135 144 161 176 184 184 192 197 197 203 201 198 200 204 207 206 206 209 208 207 203 197 199 202 200 195 198 204 206 208 212 209 206 208 208 207 208 208 203 202 193 190 185 181 183 184 173 171 174 181 184 181 179 170 162 148 143 131 125 100 75 123 132 89 38 42 44 45 46 46 47 47 46 30 15 8 7 8 8 7 8 9 6 7 2 32 104 136 154 162 160 150 135 138 156 168 179 183 190 195 193 197 201 202 202 201 207 205 207 209 202 199 195 196 197 193 194 193 196 205 207 210 204 205 206 206 208 207 208 205 205 197 192 185 186 184 179 178 171 170 173 178 180 176 174 171 158 142 133 125 111 67 101 138 134 82 38 46 46 46 46 45 46 47 47 33 15 8 8 8 7 7 7 7 9 7 6 3 54 123 144 155 154 147 139 135 150 166 180 185 185 197 196 195 202 206 202 207 209 207 205 207 203 203 201 196 184 190 194 197 200 205 209 213 193 197 205 206 209 212 209 205 202 194 189 188 184 180 170 170 166 166 176 181 178 176 174 162 148 140 126 115 78 79 134 141 138 82 43 47 46 46 45 46 45 46 46 33 18 8 7 7 8 8 7 5 7 7 7 5 7 82 132 143 154 150 143 136 142 164 176 180 182 193 197 196 203 211 202 202 212 209 205 207 211 214 212 209 199 206 212 210 207 206 207 209 206 208 212 212 210 212 212 205 199 193 189 185 182 173 166 168 165 170 175 178 176 172 169 156 143 131 114 81 62 130 145 144 136 69 42 47 46 47 47 46 46 47 48 38 21 12 8 7 6 5 7 7 6 8 7 8 3 22 104 134 145 144 139 136 136 153 168 174 180 191 192 196 204 209 207 208 213 212 210 206 210 211 212 218 219 217 215 211 209 204 203 202 208 209 211 214 209 209 207 205 201 194 189 186 185 167 162 168 166 168 173 177 170 168 158 146 136 118 85 58 120 146 149 143 131 63 41 47 47 47 46 46 47 47 47 41 26 11 5 5 7 5 5 8 6 5 8 7 7 0 48 116 134 137 134 132 139 150 162 172 183 190 193 200 205 208 210 213 213 213 205 202 208 213 216 217 217 217 217 216 212 209 206 202 202 207 208 212 205 205 205 201 200 194 187 181 179 167 160 162 164 166 170 168 163 159 147 134 122 87 54 111 144 148 148 147 127 52 42 46 45 44 46 46 46 46 46 43 30 13 7 7 7 6 6 8 6 5 8 7 8 4 39 72 114 126 127 130 139 144 158 171 177 186 196 197 205 206 206 213 210 205 202 208 212 214 218 218 217 216 219 217 215 216 212 204 197 201 204 205 206 204 200 197 193 185 183 179 178 165 157 160 160 163 159 160 155 146 138 125 91 54 105 139 147 154 151 150 114 45 42 47 45 44 44 46 46 45 46 44 33 16 9 7 7 7 7 7 7 5 8 8 8 4 48 65 68 108 109 116 132 140 149 163 169 180 189 192 200 203 202 206 207 207 206 211 216 218 220 216 217 218 220 219 218 215 212 207 203 203 205 198 202 203 197 197 187 180 180 175 170 161 153 147 155 157 154 154 144 136 125 91 55 109 134 144 154 158 155 149 106 43 43 47 47 45 45 43 46 46 46 48 40 21 11 8 8 7 7 7 7 7 7 7 7 4 48 71 59 64 91 102 116 134 141 152 159 168 183 186 198 199 202 202 206 207 206 214 218 219 224 221 219 218 219 221 222 220 218 216 211 205 201 198 194 196 193 188 184 180 179 169 158 149 142 150 153 152 147 140 133 121 85 56 106 134 144 158 162 161 161 145 99 40 43 44 45 45 46 45 46 45 46 49 41 26 12 7 8 7 7 6 5 5 7 6 7 2 54 78 71 56 54 83 103 124 138 143 151 164 176 187 190 189 195 202 207 211 210 218 221 216 221 220 217 218 221 221 221 223 220 216 214 209 197 196 190 187 187 179 176 174 173 162 145 139 138 147 140 140 139 129 114 78 54 103 135 143 157 165 164 169 162 143 96 41 44 46 46 46 43 45 46 46 45 47 43 32 16 8 7 5 6 6 5 6 7 8 4 0 70 119 83 68 55 49 76 105 127 137 141 159 175 183 185 188 192 201 208 212 212 212 219 221 220 216 213 215 217 217 216 217 211 213 213 208 194 193 184 185 177 169 174 167 157 145 142 132 131 135 131 134 125 103 67 61 111 137 143 156 164 169 170 172 162 142 91 40 44 45 45 46 46 44 46 46 45 46 42 35 20 12 8 8 7 8 8 7 7 7 5 0 71 160 141 84 64 49 49 75 100 127 137 149 164 178 182 183 186 196 197 207 208 206 213 216 214 213 210 205 211 212 209 207 210 209 202 197 189 185 180 178 171 160 165 153 143 140 124 121 127 127 126 111 86 61 73 122 140 147 158 165 165 172 174 169 160 142 81 39 46 45 45 45 46 45 46 47 45 46 44 38 25 13 9 6 8 7 6 5 6 6 6 0 71 163 173 149 89 55 46 41 67 109 128 137 149 167 177 178 185 193 192 202 202 200 201 206 209 208 209 207 206 205 202 204 205 198 194 191 185 173 174 168 167 160 152 140 130 123 118 125 119 116 98 73 59 91 126 141 149 157 162 172 169 178 174 168 158 136 72 38 46 46 44 44 44 45 45 46 45 49 47 40 33 20 10 7 7 7 5 6 6 6 6 0 73 162 173 178 161 92 52 41 42 58 104 126 139 150 172 170 171 184 190 192 201 198 194 204 206 206 206 203 198 198 197 194 192 186 182 182 173 172 170 161 165 161 140 121 111 110 113 112 108 83 64 75 100 128 146 156 159 163 173 175 177 177 173 162 159 136 67 43 48 46 45 46 45 44 44 45 44 48 46 42 37 23 14 9 6 6 6 7 5 6 6 0 74 163 169 179 187 171 89 48 39 37 60 98 128 131 153 162 162 171 181 182 186 191 188 194 199 197 192 191 191 190 188 185 178 176 176 169 163 166 162 156 157 138 122 109 108 103 101 96 73 69 84 111 135 149 157 169 169 171 172 176 183 178 171 152 157 135 63 43 50 46 45 45 44 44 46 45 43 47 47 46 40 31 18 12 10 7 4 5 5 6 4 0 64 167 170 181 187 199 178 96 42 38 34 56 103 110 122 137 146 158 169 172 173 176 175 172 175 178 182 183 180 177 181 170 160 158 157 157 159 152 151 147 134 115 104 99 107 101 83 65 76 101 122 136 151 160 167 165 173 175 180 181 182 179 173 162 159 134 56 41 49 46 45 45 47 46 45 44 46 48 48 48 43 36 26 15 10 7 5 6 7 8 9 4 64 165 170 179 187 192 191 176 108 47 36 31 44 65 90 110 113 128 144 155 159 157 161 169 163 166 168 166 157 157 159 152 152 147 140 140 141 141 133 116 99 96 97 107 98 72 64 97 121 135 144 149 165 168 167 174 174 181 186 185 183 177 174 165 161 129 50 39 44 44 43 43 44 43 41 43 46 48 46 48 46 38 31 21 12 9 7 6 8 8 17 8 57 164 172 178 185 190 190 193 189 126 52 32 31 35 43 69 89 87 105 118 142 153 146 151 158 157 158 150 141 135 131 124 121 119 124 122 115 102 93 92 87 92 96 78 60 85 123 138 144 154 159 161 168 181 183 180 185 186 187 189 188 181 174 166 161 119 42 51 43 45 45 47 45 46 42 37 30 47 46 46 45 39 35 27 18 11 7 7 7 10 19 12 52 157 172 182 187 189 192 196 193 190 136 69 38 27 29 34 44 57 65 65 83 83 94 92 101 102 96 96 95 89 88 94 83 85 83 82 83 88 90 93 91 75 56 67 117 148 145 150 160 165 165 164 176 182 182 184 189 190 186 189 189 183 173 170 161 113 13 174 211 193 196 206 202 201 197 185 150 48 45 45 45 47 39 31 23 14 7 7 7 11 18 13 47 155 173 184 188 191 191 193 190 190 191 155 110 65 35 26 32 46 57 67 71 73 70 72 66 70 77 82 86 102 90 101 101 104 96 94 91 91 84 78 56 62 103 144 159 159 163 166 170 172 170 178 185 187 185 193 197 196 190 187 187 183 176 169 161 106 0 95 255 233 234 235 237 236 233 238 244 48 47 47 46 48 43 35 28 19 9 5 7 16 20 12 36 154 169 181 186 189 193 195 194 194 193 192 185 168 131 85 52 30 22 25 36 54 68 81 89 87 88 97 97 96 94 97 94 92 87 82 71 68 68 76 103 151 164 166 170 169 171 171 174 178 184 184 189 192 190 195 193 191 193 189 185 182 171 165 160 99 3 13 211 239 230 229 230 225 223 224 226 50 48 48 48 49 47 40 34 24 11 5 11 17 18 15 28 146 170 181 188 189 195 198 198 194 192 190 193 190 188 178 150 119 90 62 40 23 15 15 20 30 39 52 55 62 64 67 76 75 71 72 84 93 114 138 164 173 169 172 170 174 171 175 178 184 186 188 192 197 199 197 191 185 192 189 185 185 175 163 158 97 5 0 134 251 229 229 231 230 227 219 227 47 48 49 48 47 45 45 38 30 11 7 17 16 18 17 21 136 175 184 191 195 194 191 198 201 200 198 194 192 189 183 183 167 162 168 167 150 140 122 104 85 77 72 67 68 69 75 78 87 99 119 131 142 147 168 179 178 176 176 174 170 175 179 185 186 189 193 198 200 201 198 192 190 190 189 189 183 175 164 155 77 4 0 54 241 233 229 226 224 228 220 225 47 47 47 48 47 46 45 42 33 14 21 19 13 17 18 11 119 177 185 190 195 197 199 197 201 203 202 201 195 194 187 181 179 170 161 182 191 194 198 202 204 198 199 203 201 194 187 165 127 135 154 160 159 167 179 178 183 181 177 175 172 173 174 183 189 193 199 200 201 202 196 193 189 191 194 186 177 173 164 152 60 7 9 7 193 239 229 227 227 227 217 225
