P2
# Generated by OpenCV 4.2.0
92 112
255
58 46 41 36 36 34 54 61 56 103 109 134 148 156 165 170 170 167 168 167 171 165 166 163 163 165 167 166 167 167 167 166 165 164 165 165 163 166 166 168 169 167 169 169 170 171 171 175 177 173 171 167 162 156 154 154 153 151 152 151 150 149 145 142 143 143 136 121 84 69 71 74 74 61 54 41 38 33 31 33 40 39 49 50 53 67 87 86 87 96 110 109 59 48 34 39 61 84 89 101 117 128 126 151 157 161 167 170 166 164 167 167 172 170 170 168 168 165 166 166 166 167 168 168 167 165 165 166 168 168 167 167 166 169 168 167 169 172 175 177 180 175 173 176 175 168 158 156 154 151 149 149 151 152 149 148 146 143 143 145 131 113 82 74 74 70 62 59 50 40 39 35 40 34 45 46 51 48 70 85 87 90 108 106 66 50 72 85 95 107 113 122 127 114 149 152 154 156 159 163 168 169 168 168 171 171 171 172 169 169 169 166 168 169 168 170 170 170 168 169 171 171 169 168 169 171 172 171 173 177 177 179 177 176 176 173 173 171 165 165 159 153 151 151 152 152 148 144 148 147 144 142 137 130 126 103 84 67 57 52 52 41 42 39 41 40 40 40 51 46 67 74 83 89 98 107 62 76 96 86 85 98 96 122 108 132 152 151 152 152 160 165 170 167 166 168 169 170 170 170 172 172 172 172 174 176 175 176 175 175 173 173 174 175 175 173 174 177 177 176 179 178 177 177 176 175 174 174 173 170 168 165 164 161 159 156 155 152 147 144 146 148 147 146 138 132 131 135 120 98 72 57 57 56 41 39 46 45 40 37 44 46 57 63 82 83 102 104 83 107 98 86 89 87 109 112 113 148 148 151 153 154 160 163 165 167 169 170 168 169 171 171 171 172 174 175 176 177 175 175 175 175 172 174 174 173 173 173 175 176 176 175 177 177 177 175 174 174 172 171 172 170 172 168 168 167 164 161 160 157 154 152 149 150 152 144 141 139 139 134 135 115 101 82 65 67 56 50 44 48 40 40 46 45 50 63 70 82 93 99 70 92 95 80 87 111 119 82 140 148 141 155 154 159 160 161 165 168 170 171 170 171 170 173 171 171 176 179 177 175 175 176 176 174 173 173 175 173 172 174 176 175 175 176 179 177 178 177 177 176 174 175 174 172 170 170 167 166 165 164 164 165 162 156 158 153 157 140 142 145 136 137 134 118 116 113 90 85 92 61 66 49 51 37 39 49 44 50 65 82 82 95 53 73 97 98 96 109 81 107 151 139 148 148 152 156 158 162 166 168 170 168 168 166 168 171 172 172 175 176 176 176 177 176 175 175 176 176 176 174 172 173 177 178 177 177 176 177 179 180 178 174 173 174 174 173 172 170 169 169 167 166 166 168 167 164 162 158 161 143 142 144 141 136 132 123 119 124 109 109 91 86 72 71 67 46 43 42 43 48 60 69 72 85 24 62 89 97 97 89 74 143 137 140 146 151 154 150 153 162 165 166 169 169 167 166 169 172 174 173 175 173 174 176 178 178 177 177 176 177 176 175 174 174 175 178 176 177 176 177 179 181 180 176 175 175 176 174 171 171 169 171 170 169 168 166 165 167 168 161 161 154 153 150 150 142 136 129 119 122 122 99 106 105 74 87 89 61 49 45 45 48 60 60 65 83 31 29 59 82 103 86 90 143 141 138 146 151 158 154 153 165 166 165 167 170 171 173 172 175 175 175 175 174 174 174 175 174 172 172 174 175 175 176 175 174 174 179 180 181 181 179 181 182 181 180 179 178 178 176 172 171 171 170 170 169 168 168 165 168 166 161 159 157 161 154 156 148 140 131 116 125 124 112 94 112 90 88 99 94 66 45 45 44 54 52 58 75 35 29 57 88 94 84 125 142 138 142 151 157 166 168 165 169 168 171 174 172 172 171 170 173 174 174 174 175 174 175 177 176 174 176 173 175 174 175 174 175 173 177 179 183 182 180 181 184 182 181 180 181 182 179 174 171 169 171 173 172 171 169 166 163 165 161 158 155 158 156 156 155 146 136 129 112 124 123 102 109 106 83 113 103 86 65 46 45 47 49 49 67 39 40 76 92 83 91 141 140 138 149 152 160 169 176 179 179 176 176 178 177 173 171 170 170 173 174 174 172 170 171 172 173 173 174 175 174 172 172 172 173 174 175 175 179 179 177 177 177 180 176 176 174 174 173 173 168 165 169 170 169 168 166 165 162 162 158 159 155 153 155 154 155 148 135 134 120 116 119 111 119 111 92 111 108 102 82 61 39 50 47 46 54 68 62 80 91 91 112 139 142 149 154 166 170 179 179 176 177 175 175 177 178 177 177 173 172 172 173 173 173 172 171 171 171 170 173 177 174 173 173 172 173 173 171 169 167 170 169 171 167 169 161 168 167 168 169 166 164 166 166 168 166 166 166 167 162 162 159 157 157 150 152 152 156 148 138 134 132 115 118 115 113 100 106 99 114 112 101 88 59 40 49 40 48 82 85 92 92 103 128 140 154 155 164 169 173 182 176 168 175 175 177 175 178 178 178 177 176 176 175 174 173 172 169 171 171 172 173 172 173 170 169 168 170 169 162 155 146 148 150 148 151 149 149 151 151 150 155 155 156 160 159 161 168 167 165 165 164 163 156 154 155 156 156 155 153 149 140 134 131 123 116 112 107 104 101 106 111 103 111 102 90 48 43 36 46 102 97 94 104 108 138 149 157 171 177 175 178 172 170 163 164 169 175 176 176 176 178 180 177 176 173 174 175 175 172 173 173 172 175 174 172 166 165 165 161 161 151 139 131 132 124 127 121 123 125 123 129 126 135 136 137 143 140 150 157 162 164 164 161 159 156 153 154 156 158 157 147 147 145 136 123 121 117 112 104 99 100 94 107 103 111 114 106 81 39 28 27 111 109 101 103 108 148 160 168 180 170 162 165 152 153 149 153 159 167 170 172 173 174 179 178 176 175 177 178 177 173 173 174 175 173 174 172 167 161 163 154 155 141 137 132 123 114 113 110 111 107 103 109 108 115 120 121 127 130 141 142 147 153 162 161 160 158 150 151 153 153 153 146 149 143 137 131 116 113 112 105 98 91 79 99 92 97 114 109 104 69 26 32 153 102 104 94 114 151 175 168 171 151 133 131 129 128 131 138 151 156 164 168 168 172 181 181 179 182 180 173 176 172 173 175 173 173 172 169 167 159 160 152 149 141 138 130 119 109 107 111 109 105 102 107 108 110 113 114 119 121 127 128 126 135 145 152 160 157 155 152 154 152 148 145 150 150 142 129 118 109 105 109 95 90 77 79 84 97 101 109 106 110 72 32 146 101 96 100 126 164 165 146 130 109 107 111 110 115 120 125 137 143 154 161 164 170 173 177 181 179 178 173 176 173 173 171 169 170 168 166 161 156 160 151 153 146 140 134 126 122 118 118 116 112 109 115 113 113 108 107 110 114 119 122 122 129 134 145 152 156 155 152 152 149 146 143 139 145 141 134 119 104 95 106 86 84 81 72 65 81 89 105 95 105 96 31 93 106 88 94 135 153 141 110 99 92 85 101 101 105 113 118 134 138 150 160 165 169 171 176 180 180 178 174 176 171 170 167 166 166 167 167 162 155 158 150 150 147 139 133 132 131 127 126 124 125 125 128 126 126 123 121 123 122 125 126 127 126 123 130 138 150 155 155 154 146 140 143 146 146 140 131 121 103 92 98 88 75 69 68 68 67 82 96 91 98 98 78 96 85 95 91 141 130 109 84 77 82 81 92 101 106 114 115 126 128 143 150 155 166 170 170 173 173 174 172 172 167 166 167 166 166 161 163 162 156 157 147 148 147 140 134 133 131 130 129 129 131 132 131 132 135 133 131 135 138 137 138 136 131 131 135 137 145 146 149 151 151 149 147 145 144 137 125 121 112 96 81 81 87 70 62 56 65 64 81 81 87 95 93 82 86 93 109 140 118 92 77 76 83 86 97 100 107 115 117 121 131 137 144 145 154 163 161 164 165 166 167 165 166 163 167 164 161 161 157 156 152 151 145 144 142 142 135 133 131 136 133 133 130 131 128 128 130 125 130 134 139 138 144 143 144 144 143 137 141 143 143 149 152 144 143 140 138 129 126 126 118 106 86 82 80 76 52 43 47 46 51 65 66 84 92 85 90 90 113 114 98 95 86 90 102 105 104 98 104 114 117 118 127 128 132 136 143 150 152 158 159 161 164 163 165 161 164 161 159 154 150 152 149 143 139 136 135 138 132 127 128 129 130 129 128 126 127 128 127 128 129 131 131 134 140 148 150 151 150 147 140 142 140 146 149 143 140 134 132 130 127 127 120 105 93 77 73 82 68 43 38 43 46 53 53 57 76 90 85 93 95 102 97 97 101 107 112 107 109 107 106 106 110 109 114 119 126 129 133 137 145 152 154 157 161 159 161 160 160 158 155 152 149 148 143 137 137 132 132 132 129 131 133 129 129 128 128 130 133 134 133 135 130 129 129 136 135 139 143 146 148 151 152 146 141 141 143 142 139 132 132 130 127 128 124 115 95 80 70 80 81 54 42 39 41 51 62 52 75 86 83 80 90 102 101 110 117 118 119 119 114 113 107 102 102 102 106 108 112 116 123 130 137 145 151 153 153 156 157 159 160 158 155 149 148 144 138 134 135 130 129 128 127 129 127 127 128 132 138 143 146 152 155 153 153 151 139 133 130 132 137 138 148 148 149 148 145 140 136 140 137 135 127 130 131 130 125 122 111 95 68 62 94 55 42 42 49 46 49 50 58 92 84 80 89 100 107 114 121 121 120 118 114 115 108 104 103 99 97 101 103 102 112 119 130 134 141 142 147 155 156 158 160 159 155 147 138 136 133 128 129 124 123 123 126 129 134 136 143 151 151 160 161 169 173 171 167 163 157 150 139 131 129 131 133 143 143 147 144 140 135 135 135 136 132 129 130 132 131 129 117 97 76 67 98 65 40 36 42 50 42 48 46 82 81 82 89 109 120 121 117 119 119 117 113 110 111 109 109 103 98 98 97 95 97 105 117 127 137 140 149 161 167 167 166 162 154 146 134 131 130 125 124 120 122 124 129 132 136 141 143 146 159 161 171 172 172 171 168 169 164 161 149 138 131 130 130 133 133 137 135 135 135 134 135 136 134 132 131 132 130 128 130 102 75 62 84 83 51 37 38 50 50 47 46 81 85 75 78 111 119 120 113 114 118 121 126 122 128 121 118 111 107 98 95 91 92 96 102 112 126 134 144 158 167 177 171 168 156 144 133 126 127 122 124 123 120 122 130 132 135 139 149 148 153 150 156 157 159 156 153 158 157 163 161 145 137 127 123 123 127 133 136 134 135 134 134 135 135 133 132 131 130 128 124 111 86 69 70 84 46 43 33 38 44 49 45 80 83 73 87 114 108 109 115 114 125 140 149 146 149 147 137 124 110 102 98 93 86 88 87 93 107 122 148 156 173 177 176 173 158 145 133 128 128 122 121 116 119 125 130 131 135 136 136 145 151 145 152 152 162 165 159 152 142 142 150 151 148 135 126 124 126 130 134 135 137 136 134 133 132 132 131 132 131 131 126 112 89 65 77 82 39 42 39 34 33 42 48 85 89 69 77 105 108 111 115 126 136 140 150 149 150 145 147 139 124 113 105 99 93 95 86 85 92 112 139 156 176 175 180 177 157 144 133 130 127 120 117 114 118 126 128 127 129 133 137 149 156 157 148 143 146 153 152 149 138 137 138 133 144 142 134 132 129 128 134 138 140 136 135 133 131 136 132 131 131 130 127 114 91 64 78 82 48 37 41 42 39 39 53 85 92 73 78 96 95 102 117 123 129 129 139 138 138 140 138 140 135 124 113 104 96 99 92 87 89 99 127 159 174 174 178 175 154 144 134 131 128 119 119 117 120 123 127 123 120 129 137 136 134 137 132 144 146 150 146 141 139 134 132 133 127 135 135 130 130 136 138 143 143 137 137 135 132 138 135 133 130 131 129 117 86 71 85 85 43 28 40 38 39 40 53 81 88 71 79 93 94 104 113 116 122 129 133 157 150 144 137 126 131 130 122 113 101 100 96 87 94 92 124 160 171 172 176 171 156 147 137 135 125 124 120 115 116 118 117 113 106 112 120 105 96 111 98 95 88 79 111 105 109 112 117 128 129 126 132 139 132 135 137 140 144 139 139 140 132 133 135 133 131 135 133 121 92 76 79 96 44 36 40 38 43 38 51 88 85 73 71 85 88 93 103 119 121 121 131 134 136 138 130 123 120 120 116 109 106 104 100 99 87 98 137 171 165 165 169 166 154 145 144 143 136 123 125 115 110 113 108 105 108 97 89 89 99 130 85 60 128 125 80 86 67 98 75 95 115 124 132 137 137 137 136 141 142 143 140 142 138 134 132 134 131 133 137 124 93 67 82 102 51 42 36 39 38 52 48 73 78 72 68 88 89 98 104 118 116 121 110 117 105 106 115 120 115 107 103 105 105 103 102 104 93 114 146 165 156 171 165 161 153 148 148 153 147 137 132 127 113 110 112 105 93 95 99 123 136 102 80 74 58 32 79 91 56 117 94 72 88 113 128 129 134 135 137 142 138 143 141 140 144 139 134 136 142 138 139 121 90 71 67 107 57 41 32 36 39 50 52 74 68 79 62 81 91 90 98 100 90 89 88 62 51 60 62 53 90 91 89 108 112 113 119 120 117 135 158 157 163 167 161 157 154 149 148 147 143 154 147 148 134 116 105 95 95 110 128 144 155 102 82 57 54 39 49 64 52 106 106 85 84 101 120 131 134 135 134 136 141 142 143 149 144 143 137 138 140 145 132 125 91 80 61 106 60 41 36 32 41 46 54 71 73 74 61 79 92 80 83 70 93 111 83 93 67 125 66 172 95 125 81 76 97 118 137 150 142 155 160 157 172 171 164 159 152 151 152 147 138 147 152 154 152 122 103 108 115 125 128 149 148 105 79 81 46 40 76 75 64 112 114 110 103 107 114 132 134 135 136 138 142 144 148 152 146 146 142 143 143 135 133 118 87 74 58 101 60 40 42 35 36 42 48 67 69 72 63 83 84 70 59 67 97 111 47 65 59 50 38 67 60 139 133 94 67 98 148 146 144 158 161 168 171 164 159 158 153 150 152 153 143 146 150 151 155 153 147 138 129 127 128 145 144 137 70 83 87 87 67 73 110 138 129 123 123 137 138 140 141 139 137 140 145 147 151 150 150 149 148 145 142 137 137 129 88 85 63 88 58 39 42 44 37 37 39 65 74 68 52 76 90 70 55 72 96 105 58 67 55 27 33 86 59 118 132 109 122 145 140 139 148 164 166 181 170 156 157 154 154 153 153 153 152 153 159 165 155 158 159 157 145 135 132 135 136 140 141 124 115 113 112 133 142 135 136 134 141 148 160 154 155 152 154 150 153 153 152 149 151 152 155 149 144 136 135 116 101 66 81 82 59 38 37 55 49 38 34 45 78 64 58 77 100 83 88 90 94 106 70 72 78 70 80 92 103 127 124 138 146 145 132 134 156 162 173 178 163 155 157 154 152 149 150 152 154 157 159 169 166 163 154 153 150 151 147 140 134 130 125 145 132 130 129 131 131 130 133 136 152 156 158 159 157 158 157 151 154 155 154 151 153 151 153 149 142 142 136 110 92 79 83 90 58 41 33 58 57 34 33 56 84 67 53 68 91 94 101 114 120 116 135 69 90 98 118 133 133 128 134 130 140 138 133 150 163 161 168 169 160 160 155 154 150 149 150 153 152 159 156 164 168 169 160 161 154 149 149 146 145 135 136 137 132 127 131 130 125 127 135 145 151 157 159 159 160 159 160 156 158 157 156 154 154 152 152 149 146 137 133 115 84 87 88 95 56 43 36 56 63 33 37 66 75 63 59 71 102 104 107 108 114 120 114 118 127 115 120 121 122 133 140 142 141 137 147 159 163 168 166 166 160 158 157 153 148 151 153 157 152 163 156 156 167 170 166 165 160 158 156 156 158 143 138 132 125 124 125 126 136 141 146 156 156 157 162 163 164 160 160 160 161 157 158 158 156 152 150 148 142 135 131 113 83 85 93 92 53 44 48 53 63 36 37 60 77 69 62 74 112 108 105 107 111 113 110 109 109 114 110 120 138 140 146 143 139 147 150 156 160 165 165 162 160 153 154 153 149 148 150 156 159 162 162 159 165 175 172 169 164 163 165 163 163 158 154 154 148 143 146 148 151 154 156 161 162 164 163 163 163 161 159 161 161 158 160 158 158 150 150 149 140 134 132 112 87 87 102 93 54 45 60 61 61 47 47 68 77 74 63 75 119 109 111 110 110 114 115 112 116 115 126 130 132 142 148 136 143 158 160 161 160 166 176 168 162 153 149 147 146 148 147 152 160 158 159 161 159 171 176 179 173 166 162 160 161 167 170 166 161 164 162 160 158 161 160 164 165 167 160 164 165 165 164 164 162 159 162 161 161 150 150 148 141 134 134 116 94 87 111 88 48 40 62 77 80 63 75 58 79 73 65 91 131 116 115 115 117 121 125 124 129 133 138 137 141 153 145 146 151 156 160 167 168 170 174 170 167 157 154 147 144 149 149 147 159 162 162 158 164 164 174 177 176 170 165 167 162 166 164 161 167 165 167 168 165 168 169 174 171 169 166 168 167 169 167 166 163 159 160 159 159 155 150 144 141 134 135 115 101 89 106 81 40 54 65 90 97 84 108 41 79 78 67 104 131 125 122 120 125 131 136 137 137 143 145 148 156 154 139 143 159 163 166 171 171 173 173 167 160 162 157 143 143 149 149 149 153 157 163 158 164 163 170 178 176 177 173 170 165 165 166 165 167 172 173 175 173 170 171 171 170 168 170 167 170 168 167 165 162 161 162 160 158 152 150 146 139 134 134 114 101 96 103 79 46 63 68 88 99 107 122 24 55 80 75 128 144 129 124 133 134 140 140 142 139 143 145 149 144 147 128 150 158 167 167 169 177 175 172 168 163 157 161 156 140 142 147 148 148 155 162 158 168 167 171 174 176 178 180 173 169 171 168 169 169 170 173 171 173 171 171 173 175 175 172 170 169 165 167 166 164 161 158 158 156 153 146 147 138 132 132 112 103 100 88 81 63 68 77 78 103 127 129 19 36 77 101 142 144 141 130 131 135 136 140 144 147 143 146 148 144 135 129 155 157 161 166 164 177 181 173 166 167 156 154 159 155 147 147 146 150 153 161 162 168 168 169 169 175 181 179 175 175 174 172 175 174 172 173 174 174 173 174 174 175 176 174 176 174 170 166 166 162 158 156 155 153 145 139 140 139 131 129 109 106 97 91 88 71 78 75 81 116 125 126 23 36 64 116 149 146 151 143 142 141 141 143 137 141 148 152 148 145 118 121 141 146 149 152 158 160 162 155 149 141 149 149 153 165 162 146 148 142 153 158 165 168 170 171 173 175 179 182 183 178 173 177 180 177 176 176 178 173 173 175 175 172 172 174 173 171 165 163 162 161 157 155 152 150 139 135 140 137 135 125 108 106 102 96 96 76 88 78 75 112 125 105 17 30 43 134 145 148 147 148 141 140 144 142 139 142 144 148 149 151 99 115 122 132 133 144 150 151 143 139 134 132 137 144 148 158 164 166 161 152 146 158 167 173 170 171 171 174 178 180 182 179 176 176 176 174 173 173 176 173 174 174 175 170 171 171 170 169 165 164 163 158 154 156 152 146 143 136 134 136 134 127 111 105 99 99 97 85 82 89 84 109 116 111 15 24 41 135 143 148 147 146 146 147 143 143 146 150 149 145 146 134 91 91 104 105 118 129 131 136 130 132 128 127 128 128 139 153 155 158 167 163 148 154 168 177 175 175 179 177 175 177 179 177 177 173 171 169 167 169 174 175 174 176 174 171 171 170 174 170 162 159 157 154 149 148 144 137 138 136 134 134 133 127 112 107 101 95 91 85 88 94 88 103 114 125 16 24 48 132 132 136 142 147 145 147 150 154 151 150 151 146 148 130 86 85 87 94 99 116 120 124 123 122 116 118 117 119 116 132 150 155 158 166 157 149 165 170 173 174 175 176 178 176 174 175 176 173 172 168 167 169 173 175 175 175 177 174 171 169 167 166 161 153 151 150 148 145 140 137 136 135 135 131 131 125 109 105 94 107 90 88 90 93 90 105 132 142 16 23 60 131 123 135 139 146 148 150 149 151 153 150 147 149 151 120 78 74 74 83 90 96 114 114 118 114 92 64 47 51 79 114 139 148 158 162 164 153 159 172 175 174 174 174 175 176 172 172 172 171 171 169 170 172 174 171 172 171 170 170 167 163 159 160 156 156 151 145 142 141 138 134 132 131 130 129 132 119 105 99 94 102 85 93 99 102 100 100 153 154 63 21 44 123 119 132 133 137 145 152 151 148 148 150 141 149 152 125 86 64 49 60 71 81 88 106 108 85 45 48 23 15 16 32 89 131 148 151 156 155 158 169 174 175 174 172 173 174 173 172 173 172 170 167 167 169 171 171 172 169 168 168 164 162 158 154 154 146 145 140 136 135 135 128 128 129 128 129 130 121 101 93 99 101 95 104 114 109 96 73 103 128 90 71 58 115 113 128 131 134 139 146 147 147 146 149 141 147 147 121 97 75 52 36 41 75 79 92 102 94 85 66 72 25 24 25 38 108 143 153 146 145 152 166 175 177 173 172 172 173 172 173 175 172 170 167 170 170 172 171 171 169 167 168 163 158 155 152 150 146 146 142 136 129 129 129 127 128 129 128 129 126 101 93 100 100 110 119 138 125 69 66 88 115 83 110 76 108 112 116 128 133 136 142 144 146 141 144 147 144 146 127 106 100 67 40 32 38 70 81 98 111 113 99 103 61 26 28 49 91 133 142 150 141 152 166 174 175 174 172 173 172 173 173 172 171 171 169 168 168 170 170 167 167 166 165 164 158 153 145 149 149 144 139 131 130 129 128 130 130 127 127 129 124 101 92 104 104 119 124 145 164 109 93 103 118 120 98 111 105 106 116 122 128 132 140 148 145 140 144 145 140 147 132 107 115 86 60 47 27 47 73 84 111 117 119 129 105 36 78 119 113 122 136 135 121 153 161 163 168 171 172 171 173 172 169 169 171 170 169 173 170 168 166 162 162 164 161 160 150 146 143 142 144 139 135 129 127 124 125 125 123 125 125 126 127 110 102 108 112 131 139 154 157 145 109 112 119 109 93 83 96 104 113 120 126 132 134 133 139 140 143 147 147 151 145 111 122 121 86 75 50 59 78 92 118 117 123 134 141 116 130 132 119 117 125 126 125 154 163 164 170 170 170 170 170 170 169 169 172 172 170 169 168 167 166 164 163 160 159 156 148 144 144 136 136 134 132 128 126 126 125 124 122 123 124 126 127 113 107 109 127 138 146 160 160 152 129 125 128 63 60 41 80 99 111 121 119 130 135 134 139 138 141 142 145 148 145 114 105 123 130 106 83 86 92 106 130 124 132 140 156 155 149 132 113 114 111 118 142 162 162 161 162 170 177 173 172 169 171 169 168 169 172 169 167 164 161 159 161 156 152 150 147 146 139 134 134 132 129 126 126 128 122 124 125 122 121 128 128 114 110 116 130 141 151 153 159 150 145 136 147 32 48 23 77 91 104 109 119 124 130 135 134 135 136 144 147 144 144 110 100 114 128 128 135 136 124 122 141 144 149 148 154 150 145 142 119 113 116 129 160 157 166 164 163 166 175 173 179 172 171 166 166 167 168 168 169 168 160 155 154 153 149 146 142 141 136 133 130 130 127 125 125 120 117 124 125 125 123 127 126 115 110 121 132 139 150 151 148 147 148 146 159 44 40 27 51 93 95 111 114 120 126 134 135 135 139 142 149 146 140 126 108 94 122 137 138 134 134 137 142 140 134 134 143 144 149 147 140 141 141 154 159 168 166 165 163 166 172 176 174 169 170 168 167 165 166 164 162 163 159 155 154 150 143 143 138 138 135 132 128 128 125 124 124 117 117 113 117 125 126 125 125 118 114 119 134 140 149 147 148 160 162 157 156 118 58 32 23 90 92 104 113 118 123 127 129 134 141 149 150 142 135 133 131 123 122 131 129 134 143 146 137 132 125 136 137 136 145 146 146 157 152 155 164 163 169 169 168 168 172 177 177 171 172 169 169 168 168 164 159 159 156 156 153 144 141 141 140 134 132 127 127 127 125 124 120 119 121 125 124 127 128 124 123 119 116 125 135 143 149 141 145 168 173 165 159 98 34 39 21 73 89 87 107 111 121 128 130 131 141 145 147 135 136 135 134 134 121 126 129 136 139 138 145 147 147 152 147 136 146 146 146 158 159 160 164 167 170 168 169 169 172 177 176 172 175 173 171 170 167 161 161 158 154 157 152 144 144 141 138 132 131 126 126 127 128 126 123 124 124 125 126 128 127 126 120 117 122 118 131 143 144 128 147 170 155 157 157 44 22 26 21 57 87 85 98 105 114 127 125 132 139 142 140 131 132 135 135 130 119 123 131 134 133 137 156 147 151 153 146 137 130 136 146 152 156 153 162 165 170 169 167 172 174 174 176 174 176 175 171 169 165 161 160 159 156 154 149 143 141 138 134 130 128 125 127 128 128 127 123 122 125 128 128 130 128 127 124 119 119 118 132 141 149 131 144 144 148 162 164 12 27 25 22 48 92 85 92 103 110 122 120 132 134 138 133 131 129 133 129 120 119 120 129 138 139 145 149 135 148 150 145 139 127 123 135 147 153 148 161 163 164 167 168 170 171 175 172 173 171 173 168 168 166 160 159 156 154 152 145 142 135 134 132 131 127 125 128 130 128 125 126 122 128 127 130 130 123 124 121 118 121 121 126 142 152 147 140 152 171 168 159 7 24 24 22 36 92 86 92 99 105 118 123 132 136 133 129 128 130 125 116 108 108 123 132 149 147 149 152 145 149 155 150 143 127 123 128 144 147 148 155 161 160 163 165 165 170 173 174 172 176 163 153 159 161 161 162 155 155 148 147 144 134 136 133 128 129 129 130 129 128 127 127 129 130 130 129 129 129 123 123 121 120 121 132 145 142 153 167 168 169 163 151 22 16 22 22 22 85 81 92 93 104 116 122 130 132 131 127 125 123 117 107 101 115 131 143 149 151 147 143 140 147 151 149 143 134 127 134 128 137 139 144 150 152 158 161 162 163 168 169 171 174 168 160 158 160 163 160 153 153 148 149 146 135 134 129 129 129 129 128 129 128 127 129 131 132 133 129 131 129 125 125 122 119 119 133 141 139 148 159 157 159 160 159 27 13 23 23 16 76 88 92 88 102 112 119 130 129 125 124 120 115 112 105 105 118 127 144 152 150 150 146 147 151 151 149 142 135 129 142 130 137 136 138 142 146 147 154 156 156 160 166 169 168 168 160 166 167 161 158 154 150 147 147 139 133 133 127 130 130 129 127 127 126 127 130 133 133 131 129 130 128 127 128 124 120 120 137 141 146 155 156 159 157 161 164 25 25 25 20 19 67 96 89 90 98 110 116 127 123 113 123 118 109 104 107 105 120 133 150 157 153 153 145 148 162 163 160 141 144 137 138 150 143 145 145 148 146 142 151 149 154 151 157 162 165 160 165 166 160 145 150 150 148 146 142 140 133 129 130 128 127 127 126 125 126 129 131 129 137 130 130 127 129 126 128 124 124 125 135 145 151 160 168 165 165 164 164 20 18 18 15 24 64 99 90 90 99 110 113 116 118 111 117 116 112 117 118 107 122 140 149 157 157 158 153 161 169 163 151 149 150 148 146 153 148 145 145 147 145 143 140 136 147 145 153 155 159 160 160 161 153 140 144 147 143 141 136 132 132 129 127 127 125 125 124 125 128 129 134 133 134 136 130 126 126 124 125 121 121 121 137 153 160 160 161 166 168 166 164 16 19 19 17 18 26 98 88 89 97 107 111 111 115 111 118 118 122 120 117 119 129 128 132 144 153 160 163 151 133 133 135 146 147 155 162 156 151 148 152 144 133 137 149 143 136 137 152 152 144 133 141 150 149 151 145 143 141 139 134 131 129 127 124 127 125 125 124 127 128 125 129 131 128 130 125 124 126 124 125 121 122 123 131 145 159 158 156 164 168 164 160 17 19 20 19 17 24 87 87 87 93 101 106 110 113 121 126 117 118 125 123 129 120 114 108 108 110 112 115 113 113 120 126 130 148 152 157 153 155 157 161 150 136 138 143 147 138 143 134 145 142 128 132 148 154 142 136 133 132 135 132 130 128 124 122 125 125 127 128 128 127 123 129 134 130 130 127 123 120 120 120 118 119 121 132 150 160 159 158 162 161 159 158 17 21 22 17 20 24 86 86 88 91 94 101 105 110 111 132 124 123 126 127 122 114 113 111 113 108 108 106 107 118 122 126 133 135 135 139 129 144 157 165 155 136 139 137 140 141 143 135 136 139 136 132 135 142 140 136 134 127 134 129 127 125 123 124 124 126 129 128 129 129 128 131 132 133 128 125 124 124 122 120 116 116 116 128 141 152 155 149 153 152 153 138 17 19 20 18 13 11 67 88 89 90 92 93 92 110 112 124 122 132 123 113 111 119 117 106 104 109 102 110 108 113 115 116 119 120 122 125 126 123 137 149 143 136 131 130 136 138 144 137 134 137 137 132 135 137 138 135 134 129 130 128 124 124 121 123 122 125 128 130 128 127 124 132 133 136 129 128 126 123 122 125 113 110 120 128 135 137 136 131 133 135 133 116 20 17 17 16 18 14 50 94 89 89 92 95 97 109 109 113 114 108 110 109 105 90 94 84 80 96 87 87 90 98 98 103 102 104 100 117 111 112 115 132 147 141 145 133 136 142 139 130 131 137 137 135 131 137 138 134 133 130 122 123 123 123 121 122 123 121 128 127 130 134 133 132 134 132 127 125 126 127 120 123 109 110 110 128 134 116 103 104 103 100 83 52 18 19 19 19 19 13 33 95 91 90 89 89 93 103 111 117 111 92 97 100 89 82 79 82 63 75 77 69 57 72 71 89 81 82 94 104 111 114 107 127 130 136 140 141 137 139 141 132 129 131 128 131 135 135 135 132 126 125 123 123 127 126 125 123 125 128 129 130 132 133 134 131 131 132 128 128 128 126 116 119 111 103 112 124 134 107 70 41 37 32 23 18 17 17 19 19 19 14 18 89 94 98 88 82 91 103 107 108 99 88 77 83 72 71 57 54 51 50 50 35 22 33 46 69 58 72 81 85 109 102 100 97 106 126 127 133 132 128 134 135 127 127 130 124 133 128 130 132 126 124 123 124 126 126 126 125 128 132 129 129 133 133 134 131 131 132 128 122 128 124 122 112 113 110 120 121 123 101 81 23 28 19 27 23 15 17 18 16 17 17 12 74 103 96 91 87 88 98 106 104 98 87 71 71 76 63 56 53 52 49 26 18 13 12 28 53 68 72 69 69 73 81 93 88 88 98 106 118 128 123 127 133 125 124 126 130 128 130 130 128 123 125 128 129 127 130 130 131 130 133 135 132 135 136 134 130 128 127 125 124 130 131 120 108 113 109 117 118 119 102 86 20 30 23 23 24 18 15 15 16 16 19 17 65 94 102 95 88 89 94 95 94 89 74 69 52 52 59 88 110 110 103 103 99 86 89 94 101 94 107 91 96 88 71 82 77 79 94 100 114 122 127 126 133 126 124 129 132 133 132 129 130 128 131 130 132 132 132 134 134 131 135 137 138 140 134 133 131 130 126 118 124 129 119 119 109 114 111 115 121 116 100 106 22 28 23 28 23 20 16 16 14 16 16 11 49 101 100 102 94 87 87 97 108 107 105 102 99 88 102 117 117 118 116 116 115 110 109 110 108 117 115 112 128 126 120 127 123 127 137 140 138 135 134 130 131 125 127 131 130 132 132 134 134 132 130 132 135 136 137 137 130 129 137 138 135 135 130 130 131 132 119 120 125 129 120 103 106 105 110 111 121 116 106 108 24 31 31 12 18 17 13 11 10 9 13 12 36 91 104 103 99 89 89 96 115 121 123 125 124 117 111 113 121 127 123 125 126 128 124 124 119 132 133 134 139 134 137 142 146 142 142 144 141 139 137 133 134 130 127 128 129 128 131 135 134 132 131 136 139 137 139 139 134 131 134 134 137 136 132 132 132 127 124 122 125 125 113 92 110 110 112 111 120 108 111 107 25 32 21 22 21 10 18 16 12 13 13 9 15 97 100 101 97 89 89 100 112 116 123 124 117 121 112 112 122 131 122 128 131 136 132 133 135 136 142 134 137 137 137 145 146 141 139 139 142 136 133 133 132 130 129 131 130 128 131 138 137 138 134 139 140 136 137 137 138 139 134 135 139 137 132 129 132 129 127 124 121 120 108 96 107 108 106 110 114 106 118 114 34 28 32 25 18 14 12 15 18 9 13 12 8 84 102 103 100 98 99 100 103 108 114 107 105 117 120 115 116 118 116 124 133 134 132 135 139 141 143 144 145 145 138 144 140 138 134 140 131 135 131 130 131 131 133 134 132 130 135 138 141 139 134 133 135 138 139 140 138 139 134 138 137 135 131 129 128 129 124 126 117 118 104 104 111 111 111 111 113 109 116 120 43 23 28 29 12 15 18 14 16 10 12 10 10 63 105 102 99 99 96 95 95 104 111 113 112 104 114 121 122 120 119 118 121 130 134 134 139 142 145 153 151 139 129 131 132 129 125 131 133 133 131 131 132 134 133 131 134 134 138 137 139 136 132 128 131 137 139 140 138 138 135 134 134 136 133 128 130 133 128 127 114 114 105 108 106 105 107 111 111 105 117 122 45 20 25 26 17 28 19 16 20 18 12 12 6 36 96 94 94 101 97 98 99 95 107 106 110 107 111 113 110 117 114 112 124 121 115 120 130 133 132 134 138 133 130 124 128 129 127 129 131 134 128 131 134 135 136 138 134 133 136 137 140 140 138 141 140 138 138 136 140 136 138 134 135 139 135 130 130 130 126 124 108 111 102 107 100 100 106 109 107 101 112 123 58 19 21 25 11 67 70 58 36 23 9 8 6 13 87 92 95 99 93 94 101 98 108 109 111 109 113 112 102 99 104 96 96 98 111 95 108 117 123 124 127 127 130 123 129 126 129 131 127 127 131 131 135 136 136 134 137 133 134 135 138 140 140 143 138 138 138 137 139 139 139 131 136 141 136 129 131 130 125 122 109 108 104 102 95 94 112 112 109 105 110 121 59 20 23 19 11 58 63 60 58 69 67 41 14 17 81 92 100 98 98 92 95 96 96 110 112 108 110 110 115 111 122 109 106 93 109 123 120 125 121 121 125 121 126 118 118 118 124 128 128 125 130 132 135 139 137 134 136 135 133 134 135 136 138 136 140 133 134 135 139 143 136 133 141 141 135 134 129 125 126 120 107 99 102 95 91 97 104 105 106 108 112 118 59 31 32 21 11 59 56 56 58 59 65 66 75 53 67 98 94 93 93 95 102 96 94 103 103 107 107 104 112 112 120 112 112 105 106 107 114 119 119 123 123 117 122 126 124 124 125 126 126 128 126 130 134 133 135 136 132 135 136 135 134 132 134 137 136 137 136 135 138 140 138 142 139 140 136 133 127 122 121 114 103 97 91 93 94 98 105 106 103 107 113 118 53 29 35 25 18 69 98 66 58 53 60 53 64 64 58 83 96 90 94 102 107 101 102 93 103 107 110 108 100 101 104 97 111 108 96 113 112 107 109 112 109 112 105 128 122 132 127 123 126 128 131 129 131 129 128 128 132 136 136 136 132 130 130 135 134 137 136 134 134 136 148 147 148 141 138 131 128 123 110 110 103 99 91 84 92 93 96 103 99 109 118 116 53 24 26 22 19 6 13 38 58 84 80 63 58 53 61 78 90 93 88 94 102 106 100 95 100 98 109 108 103 105 97 105 107 116 108 111 109 104 112 113 115 122 120 124 123 128 125 124 124 126 128 126 127 127 127 128 133 137 130 132 132 129 127 132 133 135 134 135 136 138 144 145 149 142 135 130 129 113 108 108 102 92 75 80 95 100 95 103 101 113 119 116 63 29 23 22 19 6 7 11 11 15 17 50 75 74 65 68 91 90 87 89 94 108 98 97 105 100 107 112 107 106 108 110 108 122 105 122 106 119 116 124 126 120 125 124 127 132 129 130 129 125 124 123 126 127 127 128 130 131 137 130 131 128 126 131 133 137 138 138 137 132 138 144 147 140 136 131 125 108 108 106 94 90 86 93 94 94 96 100 98 115 119 113 67 35 21 21 16 18 15 8 12 4 13 8 5 32 41 65 82 94 87 80 97 105 105 106 110 103 106 112 116 119 111 109 111 113 118 114 115 122 122 122 126 135 127 133 130 132 134 136 135 135 131 130 130 127 128 128 133 135 131 131 129 129 131 134 136 140 134 131 125 134 132 136 139 134 133 128 118 109 109 103 86 93 86 96 94 97 93 89 112 119 120 107 71 42 27 23 17 41 36 26 17 21 11 8 7 13 10 14 68 97 90 98 92 97 97 108 113 109 112 116 122 116 116 114 111 117 113 105 111 115 118 119 122 131 136 136 135 138 138 141 141 139 135 135 127 125 131 134 138 139 135 130 132 129 131 133 133 133 126 130 124 132 132 132 138 131 133 126 121 106 104 99 89 90 86 91 102 100 91 92 112 123 126 110 65 36 25 12 15 39 36 37 42 38 26 19 17 7 7 13 36 91 87 89 92 99 97 104 110 122 122 125 125 127 131 134 134 131 114 114 121 120 133 136 139 131 135 138 141 144 145 146 145 144 138 139 131 131 136 134 138 134 125 118 128 132 131 134 134 129 129 134 129 129 129 129 129 125 127 118 107 100 97 93 88 87 88 91 105 99 99 103 119 126 122 111 63 33 24 8 11 40 43 46 40 38 45 37 32 31 21 22 17 64 88 83 92 92 102 104 120 125 127 128 134 134 138 141 138 139 146 140 142 139 148 144 144 137 140 142 144 147 147 149 150 145 136 137 134 137 142 137 134 132 131 132 129 127 128 132 132 129 132 135 129 128 126 123 117 117 122 112 101 95 91 88 85 83 83 91 99 106 94 110 124 127 125 112 60 17 8 10 16 40 40 40 44 40 45 39 40 37 36 29 36 51 84 77 95 97 103 117 119 126 135 141 141 137 138 142 144 143 145 152 151 149 149 151 149 149 152 155 156 155 154 152 153 150 141 137 141 138 137 132 133 128 128 130 133 125 127 130 134 132 134 134 128 127 124 116 114 111 111 102 93 97 79 81 81 83 92 94 102 104 109 121 134 125 125 120 40 12 24 18 17 40 41 42 44 45 44 46 47 44 42 42 42 47 67 86 89 93 103 121 122 133 138 142 136 134 143 147 146 145 147 151 151 150 154 154 157 156 155 155 154 154 156 151 149 153 144 139 134 133 136 131 128 126 128 127 126 123 129 131 130 128 132 132 129 119 113 109 111 102 111 96 92 90 81 78 86 93 104 100 107 105 119 122 130 132 114 120 19 20 18 12 11 43 42 39 39 46 47 45 37 43 41 43 41 46 53 78 87 93 113 113 120 128 132 134 131 136 143 146 146 146 143 139 147 148 153 154 153 153 152 150 152 156 155 152 151 147 141 136 135 132 130 124 128 124 125 127 128 122 122 123 124 126 127 131 122 106 102 103 96 95 98 87 81 76 80 86 99 106 107 111 110 119 124 128 131 123 127 142 161 13 12 16 20 42 41 47 39 43 45 45 41 47 39 39 41 42 48 63 77 94 113 108 118 123 124 128 130 131 136 142 147 143 142 139 148 147 150 156 154 152 149 151 152 152 144 148 145 140 133 137 138 132 133 119 123 119 113 114 123 122 122 122 125 120 124 128 117 104 94 101 90 92 90 85 81 73 78 96 103 112 119 115 118 123 129 133 134 126 130 132 230 160 13 22 19 43 42 46 45 43 44 44 47 42 41 48 42 38 44 60 82 92 99 116 126 112 118 124 128 126 140 140 143 148 141 146 148 148 149 150 155 152 150 148 148 148 141 144 140 141 132 135 135 128 127 120 121 119 118 120 123 123 122 122 123 120 116 121 115 101 94 95 90 88 87 87 86 81 94 114 115 117 123 122 125 130 131 131 130 124 129 130 189 243 82 14 17 44 44 42 46 45 43 43 42 40 43 35 41 42 35 53 79 87 102 111 112 110 117 118 126 129 142 138 142 148 140 143 142 144 145 149 152 150 151 146 141 140 135 134 130 132 126 123 127 128 128 126 120 118 121 120 116 117 118 117 119 114 108 112 106 94 88 88 86 86 86 83 83 90 105 123 120 120 125 128 134 135 132 130 131 131 122 130 185 237 206 4 20 45 44 38 39 43 43 40 39 38 43 39 45 38 48 59 77 89 95 109 113 103 114 116 128 127 138 141 146 143 144 136 135 140 142 143 145 144 146 137 131 131 130 127 126 128 125 120 123 128 123 116 112 108 109 112 104 106 106 107 108 107 108 108 96 87 85 86 80 84 84 82 94 105 121 126 124 126 125 130 136 137 133 132 133 127 134 132 170 229 235 60 18 41 38 44 46 41 45 45 47 46 45 41 36 32 32 37 73 82 84 94 101 93 104 105 120 123 127 135 139 142 134 139 126 138 142 136 134 131 130 127 128 132 128 124 121 121 117 116 117 118 124 114 99 97 96 101 101 92 97 105 97 99 103 92 85 81 79 80 77 78 82 97 111 122 127 130 127 130 132 137 144 140 136 134 132 130 135 130 181 229 240 118 18 44 46 49 48 41 44 41 35 37 38 35 36 29 22 21 50 72 89 89 93 94 93 107 117 122 127 128 131 133 136 125 130 130 128 127 132 131 126 123 121 123 115 120 123 118 117 112 113 107 109 98 97 96 101 92 84 90 87 95 89 90 90 81 77 75 74 75 71 85 97 111 122 126 130 128 130 133 135 139 145 140 138 136 133 138 137 129 200 234 232 153 11 41 44 39 38 35 37 35 32 31 28 28 27 25 21 13 25 72 76 87 96 88 85 97 100 113 120 121 122 125 125 130 131 121 124 130 120 126 125 121 117 118 111 110 107 103 102 110 108 108 96 98 93 96 88 82 76 81 89 83 85 77 75 68 70 66 79 79 78 94 112 127 129 131 133 132 132 139 142 144 146 139 137 135 137 130 150 145 220 238 230 160 3 37 36 37 30 32 31 26 32 26 27 25 23 19 19 17 7 49 59 86 89 87 90 90 96 108 115 118 123 126 124 130 124 123 124 122 120 114 114 113 108 109 108 105 97 96 99 106 109 107 95 85 87 88 81 83 75 73 79 69 72 63 70 69 70 71 81 84 92 113 125 129 133 135 133 134 136 141 144 144 144 142 138 139 135 143 143 162 233 237 225 193 21 34 32 32 26 26 26 25 26 24 22 21 21 16 18 13 9 16 63 72 79 79 77 85 94 96 113 116 114 116 127 125 118 120 120 111 116 108 118 103 99 103 92 94 97 94 90 95 106 100 73 82 81 75 76 73 69 77 63 59 61 58 65 69 73 82 90 100 109 125 131 135 137 138 139 138 140 143 146 146 143 142 140 143 142 147 143 217 239 239 212 203 84 25 29 28 28 27 25 26 26 20 20 18 18 18 11 12 11 2 43 73 76 69 72 79 88 105 110 106 106 110 106 108 111 107 100 99 105 88 101 90 102 96 90 91 91 90 89 86 81 82 66 75 74 77 69 73 67 65 54 62 66 68 69 71 84 91 99 110 119 131 133 137 139 139 144 141 142 146 145 146 144 143 145 147 151 141 186 238 238 230 209 204 165 22 26 26 24 25 25 24 24 22 19 18 13 13 14 13 8 9 4 38 75 70 59 75 83 81 87 97 79 101 100 98 103 97 86 88 94 104 93 78 100 76 76 78 95 75 79 82 77 80 65 68 69 74 64 59 54 57 63 74 76 83 76 84 94 101 109 122 134 142 143 138 142 143 142 148 147 148 148 143 150 149 147 148 148 175 231 239 235 220 205 207 216 25 25 26 26 26 23 19 21 20 19 16 15 17 13 10 8 5 12 20 151 76 64 51 66 70 73 82 84 95 89 87 97 88 78 90 92 82 86 77 93 62 79 67 78 80 58 68 77 62 65 73 56 62 49 52 66 73 75 86 88 89 93 97 101 109 127 135 136 141 141 143 145 146 145 146 147 147 146 148 145 148 149 146 165 225 242 237 229 209 209 208 222 25 25 27 25 24 21 18 18 19 17 16 16 17 12 10 8 10 4 46 188 171 91 55 58 47 65 69 66 75 81 78 86 69 82 66 80 70 57 67 63 65 71 58 50 61 57 58 52 80 58 59 52 59 69 74 76 83 88 84 88 98 99 99 110 123 135 134 134 144 144 141 144 143 144 148 148 149 148 149 149 155 133 173 231 240 240 231 216 207 212 216 226 24 27 24 20 20 19 19 16 16 17 16 15 14 11 8 8 14 1 72 185 175 141 45 67 58 44 46 44 48 52 61 64 63 56 51 47 47 41 45 46 45 53 57 55 67 53 48 50 44 60 58 71 82 87 90 92 91 94 95 101 104 112 119 126 135 141 142 141 143 145 147 148 147 149 148 146 152 146 151 153 142 184 234 241 238 230 214 204 207 211 220 216 26 24 19 16 19 18 17 15 15 15 14 11 14 9 11 18 13 1 112 183 177 147 47 89 80 62 55 51 41 39 43 45 38 37 46 45 45 43 43 46 46 39 47 48 53 46 65 65 69 79 86 91 93 90 93 93 96 97 108 107 115 126 136 138 140 143 143 143 144 145 145 147 151 148 148 147 147 148 145 155 206 236 235 236 227 217 209 204 211 217 225 220 20 17 18 17 17 14 15 11 11 14 14 14 15 12 12 9 13 2 147 180 177 157 64 69 98 93 78 65 60 62 47 38 36 38 41 42 41 43 41 40 40 44 46 50 55 64 87 93 91 89 91 92 92 95 95 98 103 104 111 113 126 133 137 138 143 144 144 143 144 144 145 143 144 151 149 148 143 140 182 231 233 236 239 227 216 207 203 207 214 218 223 218 18 19 21 18 16 18 13 11 14 15 17 16 14 12 10 14 11 21 183 179 179 163 88 43 87 89 88 72 79 79 66 70 65 56 56 52 51 59 54 56 64 70 73 84 85 92 96 92 93 93 93 92 101 101 102 104 108 113 122 136 129 138 141 139 137 140 142 141 144 145 147 146 148 149 143 145 181 224 238 237 237 229 221 213 209 203 206 209 217 219 219 213
