P2
# Generated by OpenCV 4.2.0
92 112
255
67 73 70 77 108 125 129 138 151 156 163 171 177 181 184 186 183 184 182 183 184 183 184 185 188 188 187 187 187 187 187 186 184 184 183 183 183 178 181 181 181 179 179 179 182 185 183 185 186 183 185 189 189 189 187 186 188 191 193 190 191 190 192 196 191 189 191 195 197 195 193 193 194 193 190 189 188 190 189 187 184 172 167 159 124 88 89 111 96 86 96 66 78 71 61 80 112 130 137 140 147 158 168 176 177 181 185 186 183 184 183 182 185 184 185 186 186 187 188 187 188 189 189 187 187 189 190 188 185 183 185 184 183 182 181 184 184 186 188 189 189 185 186 187 186 190 191 190 190 192 192 192 193 193 194 196 191 188 194 196 196 194 195 195 194 191 191 191 190 192 192 191 184 174 169 162 138 106 99 115 113 83 74 79 66 71 77 94 116 135 138 142 149 161 170 177 176 179 184 184 184 184 184 182 183 185 184 185 187 187 188 190 190 191 191 192 190 191 191 190 187 188 186 183 184 185 184 185 184 186 188 189 187 183 184 186 188 190 191 194 193 193 191 191 192 194 195 195 195 194 197 197 195 195 196 195 194 192 192 193 192 194 195 193 186 176 172 162 143 121 112 118 131 106 76 69 66 75 88 97 119 137 130 141 150 159 170 176 175 178 182 184 183 184 184 183 183 184 185 185 188 188 188 187 191 190 188 193 192 194 196 194 189 188 188 185 187 186 187 187 184 185 187 188 185 182 186 187 189 192 191 192 191 191 192 194 195 194 194 195 196 195 197 197 197 198 196 194 196 194 195 197 195 195 195 192 186 179 171 165 150 132 124 131 131 132 90 64 73 73 92 91 127 123 128 142 148 161 172 178 173 175 179 182 182 182 183 182 182 181 183 186 189 186 186 187 190 190 190 191 194 194 192 193 192 191 190 187 187 187 187 188 187 189 189 190 188 186 188 187 188 191 192 191 189 192 194 194 195 195 194 194 197 199 199 198 197 198 196 195 197 195 196 193 195 197 196 192 185 178 171 167 157 140 140 141 139 137 116 73 65 86 79 94 123 116 134 137 147 161 172 176 175 174 178 182 182 182 185 183 182 184 186 189 189 188 187 189 191 191 193 192 194 193 193 194 194 194 193 190 191 190 188 188 188 188 187 187 188 190 188 187 190 191 191 191 190 192 193 194 194 194 194 193 195 199 200 200 197 197 197 196 196 194 196 195 193 196 197 192 183 177 170 164 161 144 142 140 144 144 132 96 78 69 60 98 110 127 131 136 151 163 171 174 172 172 179 180 182 182 184 185 183 184 186 188 188 186 188 189 192 193 195 195 192 192 196 196 195 193 192 193 193 193 190 188 190 189 190 188 188 189 188 187 189 187 187 186 186 190 194 195 193 192 193 194 197 195 198 200 199 197 197 195 195 194 195 197 194 197 196 192 183 176 172 168 162 154 142 149 150 143 136 109 66 61 81 95 109 130 130 142 154 163 171 173 174 174 176 179 181 183 184 184 182 183 189 189 187 184 188 189 191 195 196 194 194 193 193 194 192 191 190 189 192 192 190 188 188 188 188 189 189 189 191 190 189 189 192 188 187 193 196 197 196 196 193 193 195 195 198 199 198 198 198 196 196 195 196 196 196 196 193 189 183 177 173 171 166 158 140 145 162 146 129 116 78 78 79 89 115 130 130 137 154 164 169 173 173 175 177 179 179 181 184 183 185 184 187 186 184 183 186 188 191 194 196 193 192 192 193 192 193 190 189 189 190 191 190 190 189 190 190 189 187 188 189 189 185 188 192 190 190 194 194 194 195 195 189 187 193 195 197 195 195 196 195 194 195 195 196 195 196 195 195 189 183 179 174 169 165 162 147 142 160 156 130 111 62 74 70 99 127 122 125 139 149 160 168 171 172 173 178 180 181 179 179 184 183 183 184 185 184 184 183 185 186 189 191 190 192 192 192 192 192 189 188 191 189 187 192 190 190 192 191 190 189 190 192 188 176 184 192 191 193 194 194 193 192 192 190 189 191 196 195 194 192 193 192 193 193 194 197 197 198 196 193 188 180 176 175 173 165 164 156 141 154 162 130 103 69 63 80 113 112 116 128 137 148 162 169 171 172 174 176 176 180 182 180 181 182 182 184 184 185 186 183 182 184 185 187 188 189 189 192 192 193 190 188 190 190 189 193 190 187 190 190 192 194 192 189 185 187 189 191 190 191 191 193 194 193 191 193 192 193 194 195 194 192 190 188 191 193 193 198 198 196 192 191 186 177 177 177 174 162 161 164 152 148 165 143 107 74 72 94 111 105 116 127 141 153 162 166 170 171 172 175 177 181 182 181 180 180 182 184 185 185 185 185 182 180 184 187 188 189 189 190 189 186 187 191 189 188 188 194 192 190 190 192 191 192 192 190 185 190 191 192 190 192 192 192 195 194 191 193 193 192 192 192 190 189 188 189 190 191 193 196 194 192 191 187 181 177 179 176 171 162 155 166 157 150 159 153 123 62 65 93 99 108 119 129 140 154 160 166 171 170 171 175 176 175 178 180 180 180 180 184 186 186 186 186 186 183 186 187 190 195 193 190 189 187 187 191 191 189 186 187 188 190 192 191 192 193 189 191 193 190 193 192 193 192 191 193 192 193 191 192 191 191 193 191 190 187 186 187 190 193 194 192 191 189 189 187 181 176 175 176 168 163 151 156 155 143 155 155 132 63 81 88 99 115 122 130 140 153 159 166 170 169 170 173 172 174 175 179 182 181 180 182 185 185 186 187 187 188 189 188 189 195 196 194 192 191 192 193 194 194 191 185 183 187 190 190 190 188 186 190 194 188 188 190 191 191 191 193 193 190 192 192 191 191 192 191 191 191 192 193 191 191 191 189 189 189 189 188 180 177 179 174 165 159 152 147 151 128 137 146 135 81 77 93 108 117 123 129 142 157 161 165 170 170 170 171 173 176 173 181 182 179 179 181 184 186 188 189 188 190 192 191 193 195 195 192 194 196 195 190 191 192 190 188 186 186 189 190 188 186 187 189 192 191 188 191 193 194 194 192 194 194 195 195 197 195 195 198 193 191 192 193 192 189 190 189 186 187 191 189 180 175 177 172 163 156 149 146 144 124 117 130 131 83 85 102 92 111 119 133 143 158 162 165 170 169 170 171 174 175 173 180 183 182 180 182 187 189 189 190 191 193 194 195 197 196 196 195 194 194 194 190 189 189 190 190 190 190 189 189 189 193 189 188 190 192 192 192 193 194 196 195 195 197 198 197 199 197 197 198 195 193 194 193 191 191 191 185 186 188 189 184 176 173 171 171 163 156 142 146 139 121 107 115 122 90 95 78 91 109 116 134 144 159 160 163 166 168 170 169 170 174 176 180 182 181 179 183 186 189 191 191 192 191 194 197 196 196 198 199 197 195 197 195 193 192 193 192 191 193 191 190 191 191 189 187 186 189 192 193 194 193 196 197 199 198 201 200 202 201 200 197 195 194 197 194 190 190 188 184 189 189 191 183 175 176 174 168 159 153 139 135 137 113 100 95 107 97 80 65 95 101 118 137 149 158 160 163 167 169 168 167 170 175 179 179 181 182 183 184 186 188 189 192 193 192 190 193 198 198 197 201 201 201 199 195 195 195 193 195 192 192 190 192 193 188 189 188 188 190 193 193 193 194 199 200 200 202 203 201 201 200 198 198 196 195 195 195 190 186 189 189 187 185 186 183 173 170 172 164 156 146 137 129 131 111 84 79 85 75 54 69 91 99 122 138 149 158 160 163 164 167 168 170 171 175 178 178 182 183 185 184 185 185 187 190 194 194 186 189 195 196 197 201 201 203 200 194 195 197 200 196 191 191 190 191 191 188 188 187 190 193 194 192 192 195 200 198 199 202 202 198 199 201 198 197 195 195 194 191 189 188 190 188 186 184 182 176 173 171 171 164 156 146 132 127 128 108 71 63 67 54 64 79 86 102 125 137 143 156 159 158 161 164 167 169 172 177 178 178 179 181 183 184 185 184 186 187 191 194 192 189 195 197 198 199 201 201 200 197 197 199 202 196 192 192 192 190 189 191 190 189 192 194 197 195 194 197 195 196 199 200 200 198 198 201 199 199 197 192 192 189 188 187 188 187 185 184 177 172 171 173 169 165 158 150 130 115 117 100 66 49 52 72 77 76 80 105 129 140 144 150 158 156 161 163 167 172 173 174 176 180 181 180 181 179 178 180 183 181 187 192 195 190 193 196 194 198 199 199 198 198 202 201 200 199 195 195 196 196 195 194 192 191 191 195 197 197 197 197 195 196 198 198 197 198 196 196 196 195 197 196 192 188 189 189 188 187 185 182 170 167 167 169 167 164 166 152 132 112 115 99 67 49 50 75 77 71 77 110 129 139 147 147 156 159 163 165 167 174 173 172 174 180 178 180 178 176 177 175 181 183 185 186 191 191 192 195 196 199 201 199 199 200 200 198 198 197 195 196 198 197 197 197 195 193 193 197 200 199 201 200 198 196 197 194 193 196 196 192 191 193 193 191 189 188 187 187 189 188 185 180 171 165 163 166 169 171 168 146 123 107 109 93 59 41 51 80 72 66 85 113 135 140 145 146 154 159 166 170 172 176 178 178 177 179 181 181 176 177 179 178 181 184 184 184 187 190 190 190 195 196 195 200 202 199 198 199 199 194 194 195 197 196 197 196 196 197 197 198 200 200 198 201 203 200 197 192 190 194 192 188 185 189 189 189 189 189 187 187 188 187 183 179 171 164 164 164 168 171 158 143 117 101 104 84 56 35 32 69 68 71 80 112 140 144 147 147 151 157 164 170 175 181 183 184 182 181 186 184 178 182 183 181 179 182 181 183 185 189 189 189 190 195 194 194 199 197 200 201 201 197 190 193 199 198 196 196 195 197 198 196 193 195 196 199 201 195 193 192 190 191 191 186 184 187 187 186 186 188 188 188 188 186 181 176 172 169 167 164 158 149 148 140 113 100 101 80 55 41 47 78 75 74 81 117 137 145 148 151 152 159 164 172 177 182 183 186 184 185 189 191 189 189 190 185 182 178 181 182 184 184 184 189 190 190 191 192 195 194 195 196 197 196 190 192 197 193 193 192 190 192 194 194 189 187 191 191 194 191 184 187 187 187 188 188 189 188 191 189 191 190 189 189 188 185 180 178 176 171 165 162 152 148 154 136 116 104 95 74 62 55 60 89 76 77 86 110 138 146 147 145 149 158 163 173 177 184 188 192 191 188 189 191 190 190 192 188 185 181 184 181 186 184 184 188 191 187 188 187 187 190 193 194 191 187 188 192 196 194 190 191 188 188 192 191 188 187 188 187 188 186 182 183 185 183 182 187 189 191 195 193 190 196 194 190 185 187 183 182 177 172 169 163 156 156 152 135 118 100 80 69 56 53 54 79 82 85 80 117 142 142 143 140 144 155 163 173 174 175 178 183 186 184 178 179 180 182 181 178 176 179 187 182 182 187 186 185 186 189 185 181 180 181 189 192 184 180 186 190 195 191 187 188 185 184 189 188 186 185 184 184 183 182 180 181 184 188 188 189 187 190 192 194 192 196 197 197 193 192 191 186 182 172 168 161 156 151 146 137 122 100 69 58 53 58 53 85 87 82 86 116 141 143 145 146 149 153 153 160 164 164 159 161 166 168 165 165 165 166 164 164 169 172 167 176 183 185 184 184 182 182 183 181 176 178 183 185 179 176 184 186 191 189 189 188 182 182 184 181 177 180 180 178 181 185 189 187 184 186 190 191 188 190 193 196 198 196 197 201 202 200 199 192 188 185 174 162 153 145 140 134 121 100 85 53 51 66 73 95 85 87 81 107 139 148 146 144 151 154 150 151 148 149 142 140 146 151 149 148 146 141 142 148 147 147 151 153 159 164 168 169 173 176 176 173 171 176 183 183 175 169 176 181 185 186 186 184 180 176 175 176 173 179 176 174 179 184 191 194 189 188 186 185 184 185 187 184 185 187 188 187 199 201 199 196 193 187 176 170 158 147 137 131 121 112 95 71 57 56 73 91 87 82 92 103 136 148 146 143 148 154 151 145 140 142 139 125 113 118 131 132 132 125 117 122 121 112 119 127 124 123 131 139 146 153 163 169 168 172 175 177 169 165 171 175 180 180 179 183 176 171 172 175 171 173 174 171 169 174 180 189 187 178 174 171 169 166 169 171 173 172 178 178 181 186 192 193 191 189 178 171 166 153 143 137 131 126 104 64 71 71 81 100 82 85 98 109 139 147 145 150 152 150 149 142 132 123 128 130 119 100 102 108 106 100 97 86 88 91 90 100 103 102 108 117 123 139 152 163 167 169 165 162 165 163 169 170 174 180 176 178 175 164 165 166 164 170 168 161 157 153 152 157 154 154 152 149 152 149 148 152 154 155 161 165 167 166 170 179 181 183 183 168 158 153 147 144 140 135 108 66 62 68 68 90 76 101 105 109 134 149 147 152 153 150 151 142 134 123 120 118 124 121 113 112 107 103 97 89 75 73 73 72 80 88 99 101 106 129 138 152 156 157 153 155 157 163 173 172 170 175 177 175 168 159 159 161 163 160 154 151 143 134 126 119 115 120 120 120 121 127 128 129 132 136 145 153 155 149 149 156 157 160 170 169 159 156 147 147 144 141 104 77 66 73 65 81 85 108 104 100 132 151 150 151 152 153 153 145 135 131 130 132 137 142 141 136 130 126 119 118 111 94 84 80 75 75 79 89 99 110 114 123 139 141 143 144 150 163 167 168 170 172 175 173 168 160 156 151 153 148 144 136 127 112 99 94 88 82 88 95 96 99 104 105 108 112 123 123 122 116 119 129 131 141 150 154 156 152 149 147 145 143 104 84 74 60 58 89 87 106 103 104 133 151 154 152 155 156 153 146 139 136 142 151 153 152 152 148 148 143 140 140 133 122 120 114 97 84 81 82 83 87 93 101 114 123 130 139 148 151 152 154 152 159 163 168 165 157 150 144 142 140 134 117 105 96 84 73 68 63 62 70 76 80 84 90 95 106 117 115 111 109 115 122 126 135 144 148 150 149 149 146 146 141 100 78 80 55 51 101 99 106 103 110 129 151 156 155 156 155 153 150 141 139 151 150 140 134 133 131 128 131 135 133 128 121 116 112 109 107 108 102 92 89 85 85 91 102 114 122 125 130 127 129 136 141 143 146 145 140 134 132 130 122 113 100 90 83 79 79 82 85 91 96 105 113 120 128 133 138 143 142 142 142 142 142 136 136 139 149 151 153 148 147 151 141 99 73 79 54 43 107 106 97 103 105 127 153 157 156 155 159 157 154 152 157 138 106 110 113 104 109 97 92 84 82 85 79 82 80 75 83 98 109 109 105 98 91 88 86 95 105 110 112 114 127 141 147 144 133 121 119 117 114 109 100 91 89 92 98 107 114 115 117 118 122 128 134 145 147 147 151 154 155 153 150 148 147 142 136 142 151 154 157 150 150 153 141 104 80 83 48 34 117 109 90 102 102 127 152 157 159 155 153 149 144 139 122 96 108 121 111 99 99 89 76 77 79 75 87 68 63 76 78 73 77 96 107 106 105 98 88 83 87 98 109 128 151 163 167 164 152 131 108 100 98 94 92 97 106 112 113 112 102 93 90 95 99 102 103 110 117 125 119 115 117 127 145 154 153 146 143 146 155 157 153 153 154 156 136 109 90 86 47 25 124 112 89 102 106 130 152 157 159 156 152 147 137 128 119 112 98 83 77 110 137 96 82 100 61 75 100 79 48 85 84 90 81 77 97 108 105 102 103 95 96 100 113 138 164 176 180 178 168 150 124 101 94 96 99 104 106 107 105 81 74 91 95 88 74 66 74 86 76 87 104 112 106 91 88 106 141 155 155 157 163 156 157 153 156 155 138 109 96 87 44 17 124 119 94 100 114 133 153 158 161 161 155 152 140 133 127 114 110 115 106 127 147 95 52 100 75 54 82 83 88 137 114 84 76 82 91 94 95 103 111 109 112 113 121 142 168 181 189 188 179 156 125 106 100 101 103 102 103 98 87 86 88 82 80 57 67 82 84 87 90 59 63 92 103 106 107 89 93 147 173 164 152 157 160 158 159 155 139 109 93 83 39 20 120 122 104 101 118 135 156 160 160 164 159 156 153 147 143 143 138 147 152 144 143 133 61 80 99 100 101 74 115 148 132 100 77 66 69 94 117 117 122 128 120 120 129 146 174 189 197 196 183 159 126 117 116 119 111 105 105 101 87 78 75 102 138 85 89 78 45 59 91 55 67 112 91 85 96 119 116 116 144 152 154 158 163 159 156 153 133 109 95 89 40 21 116 114 109 102 118 136 154 159 160 164 163 162 164 160 154 151 146 145 148 147 150 151 133 109 102 113 114 121 139 131 118 121 119 112 100 109 142 150 137 135 131 133 140 158 180 193 199 200 190 166 133 127 136 139 136 127 110 90 77 78 101 122 151 110 76 103 89 98 95 53 99 130 115 106 98 95 111 121 126 144 154 158 161 161 158 152 136 111 105 92 38 16 120 113 112 105 115 138 157 160 165 168 169 169 168 165 163 158 154 148 140 141 149 149 147 147 148 136 148 144 135 142 139 134 129 132 146 150 147 145 139 135 133 140 145 167 186 196 200 197 191 173 141 132 138 146 157 151 125 109 105 106 117 119 134 139 108 108 118 103 87 98 147 144 142 147 137 135 132 127 136 148 157 161 164 162 158 155 132 114 108 89 35 25 125 123 122 112 108 135 157 161 167 170 172 173 170 169 167 164 158 153 145 135 134 134 136 140 137 134 140 142 136 138 134 128 116 127 141 142 139 142 140 138 142 147 156 171 185 198 200 194 191 178 153 139 140 141 145 150 148 145 133 134 126 124 138 140 152 153 150 146 138 147 147 145 145 145 153 158 159 159 162 165 165 169 168 165 162 157 130 114 109 82 31 33 128 128 140 136 106 131 157 164 169 171 175 173 175 176 173 167 163 158 149 141 136 129 128 127 122 130 126 129 130 132 129 126 137 141 147 150 147 146 140 146 153 152 158 170 182 192 199 194 193 180 163 150 144 144 149 149 142 144 132 121 122 129 136 138 139 137 145 151 136 139 148 148 147 148 155 161 166 174 171 173 174 175 171 167 162 161 130 110 100 74 35 38 129 123 141 161 121 125 160 166 169 173 177 178 178 176 173 173 175 168 160 150 143 139 131 125 127 124 126 131 136 144 144 145 154 153 150 159 155 151 152 159 160 156 161 174 185 193 196 192 192 180 167 161 151 146 157 158 152 148 148 135 118 123 127 138 141 143 148 147 144 146 149 144 143 142 151 168 177 175 174 178 177 177 170 163 161 158 133 111 100 64 41 39 129 120 136 170 146 126 158 167 167 170 175 180 181 180 178 173 174 170 160 160 158 154 149 144 145 145 147 151 155 157 156 156 159 161 167 166 162 159 164 167 161 161 162 172 189 197 197 192 195 187 172 165 161 156 155 159 161 153 156 158 149 135 127 120 114 117 120 128 130 133 134 135 138 149 161 169 171 172 173 178 182 181 172 168 163 158 135 115 98 67 55 82 141 115 119 160 173 146 154 166 167 169 172 180 183 183 181 178 177 176 165 164 165 161 159 158 156 159 164 166 166 161 162 162 163 172 175 170 166 168 170 172 166 165 164 170 188 197 197 191 197 192 176 167 166 163 161 166 170 173 164 164 163 161 156 148 138 132 123 126 130 132 135 144 157 169 172 171 174 180 183 182 183 181 173 168 162 162 143 117 97 104 94 114 171 152 132 144 173 166 158 164 167 171 174 181 185 183 184 180 177 173 173 174 176 173 173 173 173 169 168 165 161 159 164 170 171 173 176 172 168 170 172 173 169 164 163 172 187 197 194 198 200 192 178 172 167 166 168 169 170 175 173 174 168 167 166 163 160 160 158 155 149 150 155 161 169 176 181 182 182 186 189 190 190 181 174 168 162 163 144 115 111 137 145 130 173 179 168 147 163 167 161 162 165 169 173 180 180 184 185 186 185 183 185 182 181 178 175 176 174 168 167 165 164 165 170 177 176 175 175 174 169 169 173 174 170 167 166 174 188 197 198 202 199 191 178 171 167 170 173 174 173 179 181 183 181 173 172 170 170 169 170 170 168 169 170 174 173 177 176 178 183 191 192 192 187 183 176 168 162 163 143 124 139 151 156 139 162 180 169 140 154 165 156 162 162 165 172 178 177 182 187 190 189 191 189 185 185 180 177 174 177 176 173 170 169 173 177 180 180 177 174 174 171 174 175 170 169 169 170 174 187 196 200 204 203 190 179 173 170 174 173 175 175 178 184 183 185 182 178 180 177 176 176 177 182 185 187 188 191 193 194 194 191 191 191 190 188 183 175 171 163 163 144 135 149 156 151 125 175 182 170 143 146 162 148 163 161 163 167 173 179 180 186 189 190 190 190 187 187 186 187 186 182 185 181 176 175 178 178 180 178 176 174 173 172 173 173 171 171 170 174 180 188 198 201 204 202 190 177 177 172 172 175 173 175 179 186 184 183 183 184 188 184 182 184 186 186 190 193 194 193 194 199 201 198 199 196 192 188 182 173 168 163 161 148 146 157 142 133 131 188 179 174 164 152 157 143 160 161 160 160 169 177 183 186 189 191 191 192 191 189 190 192 191 190 190 186 182 177 179 180 180 178 177 174 174 170 170 170 171 171 170 175 184 190 196 200 202 203 194 182 178 173 173 178 176 174 179 185 188 187 187 190 188 189 189 190 189 190 192 195 198 198 198 201 202 200 199 197 193 187 182 173 168 164 161 146 156 139 113 145 181 190 177 167 172 170 160 147 157 155 150 157 164 170 180 185 188 188 187 192 191 193 193 191 190 192 189 186 182 176 178 177 175 178 178 173 172 170 171 170 170 168 170 178 187 196 201 201 200 202 195 185 178 175 175 177 179 177 179 182 187 188 184 185 187 187 187 192 193 195 195 194 199 202 203 201 202 201 200 199 195 184 178 171 165 162 160 156 164 117 125 157 186 184 179 169 165 164 148 150 159 153 148 152 160 169 175 181 183 186 190 193 193 195 196 192 191 191 184 183 180 176 177 177 174 177 176 173 172 169 169 171 167 168 174 178 185 194 199 203 202 204 199 187 176 174 175 175 178 177 179 184 186 188 185 178 181 186 187 190 187 191 188 189 200 204 205 205 202 200 200 199 193 187 175 168 163 159 159 161 158 120 137 158 183 182 176 167 156 142 130 143 156 149 144 146 155 171 175 181 184 186 189 193 193 194 194 191 193 191 184 182 180 178 179 182 180 173 172 171 171 168 167 168 168 170 176 179 186 191 194 201 201 199 196 189 177 172 174 175 175 176 178 183 187 188 189 184 185 185 186 189 186 190 193 193 198 201 202 203 202 199 201 200 193 184 171 162 162 161 155 155 161 149 158 176 181 182 175 170 162 155 148 137 151 150 142 147 159 169 179 181 184 186 189 193 195 196 194 191 192 193 190 184 183 182 184 184 180 175 172 169 167 169 169 165 170 173 179 184 189 193 196 200 198 195 199 191 177 171 171 175 174 176 176 185 190 190 191 188 186 187 188 190 189 191 193 199 199 197 201 199 199 202 202 198 196 186 177 161 158 161 154 149 163 180 183 184 180 174 175 174 170 168 165 142 150 154 142 148 157 166 175 178 181 186 191 191 190 192 194 190 191 193 191 188 186 185 184 184 180 178 167 164 160 163 170 172 171 176 183 187 189 193 195 198 196 196 200 198 185 173 173 177 174 173 173 183 182 189 188 185 185 189 190 187 186 188 189 194 197 197 200 200 200 201 200 200 193 187 174 163 157 157 153 149 148 166 177 178 184 148 173 173 172 174 171 157 150 155 142 146 151 160 174 177 179 186 190 190 189 191 191 193 195 192 191 189 185 181 179 181 174 170 166 160 163 173 179 176 172 176 180 188 192 192 195 192 191 194 193 192 187 177 174 179 175 178 175 176 179 184 185 185 188 190 191 191 189 190 193 196 196 198 199 200 197 194 200 202 193 184 170 161 158 157 145 145 148 159 168 172 184 94 161 172 173 171 170 164 146 155 145 144 146 158 174 178 179 182 182 185 188 188 189 190 192 190 187 187 187 177 170 175 168 161 159 159 171 184 181 177 175 177 179 182 188 190 189 189 191 195 193 188 183 178 176 180 183 182 178 172 175 176 179 181 180 187 189 189 188 190 194 196 197 196 198 196 195 192 193 194 191 186 170 159 154 152 147 158 166 171 176 180 185 78 136 158 165 165 168 161 139 154 147 141 146 157 163 172 173 173 174 181 185 184 183 183 183 186 182 181 181 176 173 169 166 160 154 161 178 187 183 180 176 177 178 178 183 190 191 189 188 194 193 187 179 175 177 184 189 188 181 170 168 173 175 176 179 183 186 188 188 186 187 192 194 194 193 192 194 192 189 188 187 183 168 160 155 149 149 175 179 180 185 190 190 72 99 125 140 150 156 152 139 154 148 144 147 152 155 164 170 174 175 179 181 178 179 179 181 183 181 176 180 173 166 162 159 158 157 166 179 180 181 177 166 165 167 173 173 177 179 178 185 188 180 172 166 162 171 189 192 189 181 170 166 173 171 170 170 177 180 181 184 187 187 187 186 186 185 189 192 190 185 186 182 175 167 160 158 145 150 178 182 186 187 190 189 69 88 105 110 117 129 140 139 154 155 145 144 149 151 158 168 168 169 173 174 175 174 175 178 178 178 176 174 171 162 159 159 164 161 163 170 166 164 161 151 140 141 152 156 153 151 163 169 169 164 153 145 149 165 177 173 174 178 169 165 176 172 169 170 168 173 176 180 181 181 185 182 182 180 181 182 183 178 182 176 168 161 156 156 150 158 177 179 186 183 180 180 57 82 116 131 104 84 106 136 156 161 148 142 145 150 156 156 161 168 172 172 169 168 168 166 168 174 171 165 162 161 163 167 168 165 156 143 128 114 115 121 124 119 120 127 130 134 150 155 147 134 124 122 133 143 146 150 157 164 161 167 179 174 165 167 167 170 174 177 176 176 180 179 175 175 177 178 176 173 173 170 164 156 154 157 153 156 174 178 178 175 170 160 50 66 99 125 121 105 98 129 152 156 152 149 146 144 151 157 158 165 165 166 167 166 162 165 168 169 164 160 157 158 162 170 170 165 152 121 95 60 53 62 75 100 106 99 103 122 131 134 124 112 113 105 91 85 93 115 131 140 154 167 169 167 160 154 155 163 169 173 173 168 170 172 172 169 169 171 169 168 162 160 158 152 152 161 156 148 160 164 164 161 158 103 51 60 70 89 105 101 97 127 148 156 152 149 146 145 146 152 156 159 163 162 163 162 161 163 163 157 153 155 156 159 164 169 166 165 159 128 98 80 73 78 64 64 96 94 93 108 115 105 103 95 63 46 57 58 54 72 101 128 156 162 160 160 156 145 137 143 147 152 160 164 165 164 168 167 162 161 163 163 158 153 149 149 153 163 156 136 134 134 126 107 69 12 57 64 65 76 94 93 92 125 147 153 156 148 144 142 141 147 150 150 157 158 156 159 151 155 157 151 149 147 156 165 167 168 166 164 161 149 122 104 106 119 122 114 99 91 97 94 91 94 93 78 74 93 98 82 74 88 111 143 159 163 164 163 164 157 134 116 124 139 148 155 159 163 166 161 153 150 154 154 152 145 144 148 158 164 151 120 70 60 29 21 12 3 63 66 61 56 52 55 87 115 143 153 152 149 146 137 137 142 149 148 148 158 157 156 151 145 137 138 150 159 166 172 169 168 169 167 164 158 150 143 139 133 123 114 100 92 99 94 88 89 86 92 111 115 106 104 112 138 156 163 166 170 173 171 169 166 158 135 109 104 128 147 155 159 158 155 154 148 146 142 139 135 133 143 157 167 141 103 58 19 15 12 6 5 64 65 58 50 48 35 49 93 146 155 152 149 144 141 139 138 141 149 149 151 150 147 144 132 135 156 169 174 173 173 172 170 171 170 166 159 156 155 145 139 138 131 128 122 109 97 94 98 103 113 118 120 127 138 146 158 166 172 173 170 174 172 171 172 168 164 150 116 96 97 110 135 146 147 153 152 142 139 132 129 131 147 160 166 135 89 54 29 24 9 7 5 64 61 53 42 39 28 19 82 152 156 151 147 143 140 136 134 140 145 147 148 145 139 131 136 166 176 174 176 174 176 173 173 174 167 168 165 164 160 151 150 149 146 145 140 139 133 132 135 140 145 139 138 142 151 149 157 165 166 168 165 172 173 174 173 169 166 165 156 139 111 89 105 134 154 154 149 144 137 129 126 135 151 153 158 137 92 38 13 18 17 12 10 63 56 48 38 30 20 28 89 148 157 152 146 141 142 138 132 134 140 148 145 134 126 133 164 170 170 175 177 172 171 173 171 169 164 163 163 163 154 147 145 148 153 145 144 151 147 145 138 140 144 147 147 141 148 152 160 166 167 165 163 166 170 170 163 162 159 158 158 158 152 111 77 101 125 136 142 145 134 122 128 143 155 158 162 143 97 24 8 6 9 12 12 61 52 44 32 22 12 14 61 140 162 151 146 143 143 141 134 132 139 142 142 130 128 161 168 161 166 170 169 170 167 165 164 167 166 158 153 149 146 147 143 147 155 146 145 141 140 147 147 143 143 152 153 147 147 149 153 162 168 165 163 163 168 170 164 156 152 152 147 150 154 141 111 89 102 120 134 138 137 126 138 149 160 162 164 146 102 23 8 8 6 4 3 54 47 39 27 17 7 6 57 142 157 151 146 144 143 144 140 132 140 140 138 129 147 162 161 166 167 162 162 157 152 159 169 168 158 151 150 148 151 147 146 153 148 148 150 143 145 153 157 150 156 151 157 155 149 156 153 162 172 170 162 167 166 166 169 164 152 147 145 145 148 153 140 117 100 115 128 140 140 135 143 153 160 161 157 143 108 32 13 7 5 5 4 48 42 34 22 13 5 11 42 130 157 151 150 150 146 147 143 132 137 138 135 138 158 156 160 162 156 154 148 147 153 164 155 157 150 148 146 147 147 150 153 157 149 151 155 153 153 152 158 153 153 154 160 164 152 153 163 166 168 176 169 172 167 168 174 169 159 149 140 135 138 154 150 134 113 121 133 143 142 139 144 155 156 160 155 134 113 46 1 6 5 6 4 45 40 30 17 9 6 4 21 125 158 153 152 151 149 148 142 137 138 137 134 143 160 159 161 151 147 143 135 141 156 149 149 150 152 150 145 151 144 155 149 160 162 157 154 154 154 153 153 154 150 154 159 161 163 164 166 167 166 173 175 172 169 167 170 165 153 145 123 126 127 138 146 145 127 133 142 143 142 142 153 159 157 157 154 137 84 36 20 5 5 5 4 43 34 23 13 7 6 1 16 109 159 156 152 150 153 152 148 143 137 135 134 144 157 152 145 140 133 130 133 144 140 151 160 151 165 159 154 150 148 155 157 157 156 145 150 155 153 155 156 159 161 163 159 160 161 164 163 165 160 163 152 151 149 149 147 152 138 132 120 114 114 130 143 152 135 140 145 142 140 149 156 158 158 161 152 136 82 3 12 12 4 3 3 38 29 17 10 6 4 4 0 77 161 157 154 152 153 152 148 145 143 138 138 146 156 146 132 137 132 128 131 133 129 146 155 154 162 161 156 155 153 159 159 155 154 156 164 170 165 164 165 172 173 166 163 146 140 142 141 142 140 138 128 119 115 102 113 123 110 102 109 125 120 128 145 153 143 148 148 145 150 158 156 154 157 158 147 122 64 2 2 3 4 2 3 33 24 15 10 7 5 4 0 78 158 158 153 155 154 155 149 143 146 144 143 152 150 142 134 127 127 122 126 130 133 133 138 135 133 134 133 137 136 136 133 131 131 143 152 158 164 167 169 163 145 134 124 117 120 132 135 131 131 130 127 123 118 109 102 83 90 125 138 139 130 131 150 159 152 156 147 150 157 161 158 158 157 155 144 103 49 2 2 4 4 3 3 29 19 12 8 5 6 3 0 64 151 159 153 155 152 149 155 152 146 146 145 148 149 145 131 123 122 116 104 92 96 99 101 111 118 121 120 117 126 127 122 114 108 105 107 110 111 117 121 110 102 103 109 119 125 121 107 93 84 91 101 103 97 92 95 128 160 163 155 145 140 149 156 158 158 153 143 153 158 158 159 161 156 145 140 93 29 4 4 3 2 1 3 24 17 10 6 6 5 4 1 35 133 159 155 157 153 149 155 155 150 145 146 143 150 148 137 132 139 132 117 91 65 68 97 112 104 103 99 88 92 97 104 107 106 103 98 97 92 97 97 91 94 92 89 91 78 73 80 82 83 87 98 98 108 126 151 168 166 159 153 148 151 158 160 153 156 147 147 159 161 159 158 159 154 141 133 99 13 1 3 4 2 1 3 19 13 7 6 7 5 3 1 20 112 157 154 154 159 154 155 153 151 149 147 148 150 150 144 141 144 140 139 143 140 109 89 87 80 64 58 56 53 54 58 64 65 63 65 62 60 57 56 66 66 71 76 83 94 113 129 140 144 143 145 142 152 168 164 162 165 159 152 157 156 160 155 147 152 147 156 162 159 157 156 158 151 136 139 91 9 2 3 2 2 3 4 14 10 6 6 6 6 4 2 2 63 146 155 155 158 155 153 155 154 151 147 148 147 147 152 151 148 147 142 145 152 154 134 109 100 106 109 111 108 103 104 104 101 100 90 89 90 85 95 108 113 126 136 143 148 151 153 147 140 140 142 148 148 157 163 160 165 163 161 161 161 159 148 151 147 147 162 164 156 157 155 153 141 131 133 61 2 2 3 3 3 6 6 8 7 3 4 4 5 4 3 0 38 126 152 154 157 155 152 151 155 151 148 146 147 145 151 159 152 147 146 150 144 145 147 141 133 120 116 122 127 131 135 142 146 149 150 145 143 141 143 147 154 154 151 149 148 141 141 137 139 147 150 155 157 159 161 167 168 166 166 163 161 156 148 149 148 159 164 159 150 154 154 155 136 129 104 37 1 1 3 3 4 5 6 5 3 3 4 5 5 2 3 1 17 100 144 146 156 153 152 149 153 152 151 147 149 152 150 156 154 154 154 152 154 152 146 142 137 132 127 120 117 111 118 129 131 136 142 144 145 147 139 143 146 146 144 138 141 142 148 153 157 160 156 158 158 164 164 168 169 168 171 166 160 156 150 149 159 164 162 157 150 152 156 153 130 126 74 13 7 2 2 3 5 6 6 3 3 4 4 4 4 3 2 0 6 46 133 140 146 154 153 149 150 152 153 150 148 150 148 153 159 163 162 161 160 160 155 155 145 138 133 130 129 126 122 125 123 126 133 132 134 136 136 137 144 143 142 148 153 152 149 152 148 154 158 159 163 163 166 168 171 172 169 167 159 148 147 150 158 162 158 154 153 155 156 144 132 122 53 0 2 4 3 4 5 6 7 13 3 3 3 3 2 2 2 3 5 11 110 136 129 153 155 144 150 152 149 147 148 147 151 153 157 164 165 163 164 163 160 160 157 150 141 135 131 127 128 132 131 133 135 135 136 138 136 136 138 133 133 142 144 146 142 149 158 159 155 158 160 164 166 169 170 169 170 168 164 157 151 155 161 162 156 156 154 152 148 140 120 114 17 0 3 4 5 7 8 7 8 31 7 2 3 4 3 3 0 3 1 3 46 120 121 142 151 152 154 156 155 147 144 146 148 153 154 159 165 164 165 167 162 158 161 156 150 145 140 132 127 130 127 127 126 126 127 128 128 139 135 138 141 149 155 163 159 162 168 167 160 157 164 169 170 172 172 172 168 168 165 159 154 159 163 160 155 154 150 151 145 125 114 127 8 0 4 5 5 7 8 8 10 41 10 1 3 3 3 1 0 2 1 1 6 77 116 128 147 152 153 154 156 153 152 146 147 151 155 162 167 169 168 166 169 165 163 161 158 150 148 147 151 148 143 144 138 140 136 143 149 157 150 159 157 159 172 175 168 165 155 160 164 164 166 168 170 173 171 170 167 167 164 158 155 158 158 159 154 150 146 144 138 100 125 127 7 2 7 7 7 8 8 11 12 42 14 0 1 2 0 0 0 1 2 1 2 45 109 118 142 147 152 154 155 155 154 146 148 151 157 164 165 164 166 166 165 165 165 167 161 159 158 154 159 150 150 148 148 156 151 163 162 162 156 162 158 151 155 163 165 156 151 157 167 163 163 168 172 174 174 172 166 163 162 160 157 158 157 155 153 149 145 142 124 109 156 114 5 6 8 9 9 10 11 13 12 44 17 0 1 1 0 0 0 0 1 3 0 41 125 110 130 143 151 155 154 153 155 150 148 149 154 159 162 161 164 168 163 161 162 161 160 159 154 153 150 152 152 143 153 154 157 151 148 164 163 158 153 160 152 152 153 152 157 162 164 168 168 173 173 173 178 175 168 169 166 155 156 159 158 154 153 142 141 134 112 141 166 111 7 5 9 10 12 14 13 13 14 42 16 2 2 1 0 1 2 2 2 2 0 29 147 113 112 137 148 151 156 157 158 153 148 148 153 161 159 159 166 164 166 163 161 160 160 159 158 155 153 152 152 147 152 148 148 138 144 163 156 155 148 154 159 159 158 154 158 162 165 171 171 172 174 170 166 173 172 171 162 157 156 154 155 149 146 140 136 121 129 158 166 98 1 9 11 11 13 16 14 13 16 37 13 3 1 2 4 3 0 0 2 1 0 22 150 136 87 113 142 151 151 157 158 152 145 140 145 153 157 157 158 166 164 164 165 162 160 156 155 155 154 155 158 151 151 152 150 144 151 157 153 147 155 152 146 155 161 165 165 164 165 169 177 169 169 171 170 172 171 162 162 160 158 152 151 148 141 126 114 123 154 161 166 85 1 12 12 13 14 13 14 16 16 27 8 3 1 2 3 3 0 0 0 1 0 16 140 153 110 91 126 148 150 154 156 159 156 145 141 152 156 161 167 164 163 166 166 163 160 160 156 156 156 158 160 154 148 152 155 153 159 150 154 149 153 157 149 158 164 167 164 165 169 171 178 179 176 177 173 170 163 153 157 156 155 155 151 149 131 108 112 144 160 163 166 76 2 13 13 13 13 12 13 16 15 17 5 3 3 0 0 0 0 0 0 0 0 13 138 158 138 105 110 135 147 153 155 156 154 155 152 151 160 164 164 164 166 166 166 166 164 164 164 161 157 156 158 158 157 158 155 154 150 148 149 154 153 155 153 157 157 164 163 165 171 176 179 184 178 177 178 167 164 162 162 160 152 147 143 134 109 103 136 158 162 161 164 63 2 12 14 13 11 12 13 15 15 10 3 2 2 0 0 0 0 0 0 0 0 6 130 156 148 135 106 117 136 146 149 154 151 150 147 141 150 160 162 163 166 163 166 168 169 164 161 162 164 162 166 170 168 172 169 156 153 156 157 167 170 171 171 171 169 174 174 177 180 183 181 180 171 166 168 163 163 167 162 155 149 143 130 108 88 122 155 160 161 161 164 68 3 12 14 14 10 11 13 15 15 8 2 3 2 0 0 0 0 0 0 0 0 8 127 158 147 147 134 105 111 139 145 147 147 149 144 145 143 155 161 163 166 167 172 173 175 171 168 172 171 171 171 172 174 170 171 165 159 166 169 173 174 178 179 184 187 186 186 186 187 187 183 173 178 171 159 162 162 157 154 151 150 139 116 79 105 144 158 162 160 162 161 70 20 12 14 13 11 11 12 13 13 7 2 4 3 0 0 0 0 0 0 1 0 7 125 158 150 144 144 116 86 114 135 138 143 147 151 147 149 155 164 170 172 176 180 175 178 178 179 179 176 177 175 175 179 175 176 173 176 174 175 177 181 180 181 185 186 186 185 186 186 183 175 170 177 171 159 156 162 149 145 145 138 128 86 96 137 149 158 161 159 164 151 44 40 25 12 13 12 11 12 11 13 6 4 3 3 0 0 0 0 0 0 2 1 0 112 160 146 146 150 137 111 98 122 136 139 136 135 140 153 154 159 164 170 176 178 172 176 179 186 181 178 181 176 175 175 177 174 173 179 177 178 182 182 184 186 186 188 184 183 182 181 181 175 169 170 162 161 152 150 147 133 137 117 98 87 129 151 157 158 158 155 157 171 63 30 43 12 11 14 13 12 12 13 6 5 3 3 3 1 0 0 0 0 1 0 15 131 159 148 146 146 143 143 120 122 123 125 130 135 135 144 147 153 163 168 169 179 172 174 178 184 179 173 178 180 179 179 179 179 176 175 176 180 179 180 181 184 179 180 183 184 183 179 174 177 173 167 167 163 160 146 139 128 120 97 100 120 142 157 159 160 159 156 154 194 149 6 43 34 11 15 16 14 13 12 7 6 3 3 3 2 0 0 0 0 0 0 111 200 143 150 147 146 145 143 139 137 124 111 119 130 132 135 141 149 151 158 165 169 173 177 175 176 172 169 176 176 181 183 181 181 174 173 174 176 176 177 176 184 178 177 181 178 178 171 170 166 171 164 162 156 159 148 128 125 102 102 123 137 148 155 158 158 158 160 152 191 221 30 29 53 36 13 14 13 14 13 8 6 3 3 3 1 0 0 1 1 0 37 223 197 142 148 147 146 144 142 144 143 138 120 112 118 130 133 136 139 145 157 159 162 168 171 166 171 170 170 169 170 175 178 179 170 170 170 168 172 176 177 172 176 173 173 170 177 177 172 168 162 163 154 147 147 145 133 106 99 104 120 138 147 155 156 155 159 159 160 150 192 255 82 13 43 51 32 9 13 16 12 9 6 5 3 3 1 0 0 0 0 0 148 242 176 144 147 149 145 145 143 145 145 143 128 111 110 119 125 131 139 146 151 153 160 159 157 162 166 159 168 166 170 169 177 178 167 167 168 165 168 167 161 166 169 170 170 164 167 173 169 160 157 156 154 132 131 129 115 96 95 117 135 146 156 158 155 158 157 158 162 150 199 255 140 7 37 43 44 24 11 11 12 7 6 4 3 4 2 0 0 1 0 42 223 208 158 148 147 148 146 141 143 142 143 144 136 130 119 106 117 125 127 132 142 152 152 154 159 151 157 152 158 154 164 167 165 170 167 166 164 161 168 162 159 161 166 161 163 166 153 153 156 157 149 144 153 131 117 116 100 87 115 130 143 153 154 156 158 159 160 163 162 150 208 254 196 17 29 39 42 47 27 6 11 5 4 4 3 3 3 1 2 1 2 118 246 176 145 150 147 147 148 143 143 144 143 144 140 137 122 110 116 109 118 125 139 145 141 147 143 143 151 145 145 152 152 160 159 155 160 158 156 152 161 156 149 158 162 144 159 154 146 137 141 144 151 129 126 119 104 113 99 103 129 143 148 154 157 154 158 162 163 158 157 149 218 253 229 41 22 39 42 41 45 27 8 7 4 4 3 3 3 4 1 4 18 189 232 154 147 153 149 149 148 146 141 141 142 143 140 137 132 121 115 112 110 119 120 133 142 125 134 147 135 130 145 146 144 156 155 148 150 153 149 155 162 154 152 152 143 140 153 145 137 131 138 133 147 134 120 100 109 110 115 124 137 147 149 153 155 154 158 159 162 158 156 152 228 248 247 83 14 37 37 37 38 45 27 7 5 5 4 3 3 3 1 9 59 235 209 145 163 153 150 150 149 145 140 137 140 143 142 139 137 133 123 110 103 111 114 129 126 114 126 130 125 131 139 131 131 154 142 148 148 150 145 148 160 153 154 140 135 131 127 140 139 132 133 127 140 126 119 112 114 113 125 137 146 150 152 152 152 151 160 159 158 158 153 156 238 245 255 123 11 36 36 38 35 38 43 5 5 4 3 4 4 0 7 10 111 251 191 145 165 153 150 148 147 145 142 141 141 142 144 143 138 133 125 122 112 121 112 110 123 124 122 116 124 118 130 136 129 147 141 136 136 133 143 144 141 141 152 129 122 130 114 129 129 122 128 105 126 115 105 122 120 119 135 143 150 150 148 148 149 158 160 160 157 157 150 171 249 242 255 152 7 33 36 37 37 36 38 5 5 4 4 4 5 4 21 11 161 249 181 148 146 150 149 148 147 144 141 141 142 142 142 140 140 137 136 132 118 120 114 113 123 117 112 104 110 106 128 121 133 131 126 122 132 131 127 130 131 131 135 125 107 124 111 110 115 116 106 107 110 105 122 119 119 130 136 144 147 147 146 147 153 156 156 155 159 160 146 196 253 240 252 172 14 31 35 36 37 35 35 5 5 4 4 7 11 16 25 22 202 239 171 145 125 155 151 150 145 143 142 142 141 145 146 140 141 135 136 138 134 125 125 109 101 106 105 105 109 104 110 115 133 120 113 116 119 132 112 124 118 119 129 130 108 101 86 108 105 92 100 101 125 111 120 125 130 137 139 140 138 143 145 149 151 153 158 158 159 156 149 225 252 241 250 186 14 29 33 32 35 35 35 5 5 5 7 12 16 34 21 39 230 231 166 137 105 159 152 148 144 141 141 143 141 141 142 140 140 135 132 137 140 142 140 116 105 108 92 99 106 98 101 109 127 112 98 116 107 114 109 104 95 106 111 121 109 94 76 90 83 80 112 123 126 130 125 133 140 142 140 138 140 145 149 151 149 153 157 159 159 148 171 244 246 240 249 191 19 27 32 33 36 34 34 5 4 4 11 15 34 43 9 62 243 221 164 126 86 155 154 148 146 143 142 142 142 140 141 140 139 138 139 139 141 142 140 140 133 121 107 101 96 99 93 87 100 96 92 93 95 84 83 68 86 87 89 88 86 87 86 84 91 111 125 131 133 135 136 140 143 141 140 138 141 147 151 150 153 153 160 160 157 148 204 252 244 238 246 189 18 27 33 33 35 34 34 5 2 4 14 29 46 35 4 81 252 217 158 111 69 147 157 151 146 143 143 140 140 142 143 141 140 138 136 143 142 144 144 144 140 134 126 114 105 105 98 76 82 89 86 79 77 67 73 80 74 73 74 81 90 100 106 110 114 122 130 136 138 141 145 146 141 139 137 141 144 144 148 149 152 159 163 158 154 160 234 250 242 237 244 189 17 27 34 34 33 32 32 5 9 20 34 44 37 30 3 113 253 221 145 104 67 139 158 153 146 143 144 142 141 141 141 140 140 140 139 141 142 144 142 141 142 138 133 126 121 108 101 97 92 91 85 87 88 82 85 89 87 93 98 107 111 118 121 126 127 127 135 138 142 146 144 142 136 141 145 144 148 147 149 149 154 157 147 153 149 187 246 248 241 234 246 186 18 28 32 32 33 33 34