P2
# Generated by OpenCV 4.2.0
92 112
255
37 51 41 51 40 48 60 64 83 97 101 95 97 101 111 113 113 122 117 114 123 126 127 127 122 137 145 147 150 151 156 160 161 166 169 170 168 169 165 168 169 170 170 170 173 180 179 180 176 175 171 165 166 166 157 146 142 135 129 119 111 102 93 86 70 62 51 56 78 91 85 46 40 67 91 107 86 83 62 25 23 31 29 47 57 62 47 8 9 8 17 12 31 52 44 44 45 42 56 69 78 87 94 91 95 102 114 115 114 120 119 116 121 127 130 134 133 127 137 148 148 149 150 156 162 163 170 172 171 169 166 167 169 167 171 172 174 177 180 184 182 182 177 168 167 168 167 159 148 143 138 132 119 107 99 92 87 71 57 50 60 74 83 63 37 38 65 81 98 85 79 55 27 24 29 42 54 54 53 14 5 7 10 14 35 48 59 29 36 43 50 57 67 83 92 90 94 104 113 120 121 119 122 121 122 123 132 139 139 137 136 141 153 156 154 158 159 163 164 166 172 171 168 169 174 169 168 171 174 176 176 181 180 179 176 174 171 177 178 169 160 154 148 147 132 119 105 99 100 86 70 55 50 59 69 74 52 35 37 53 72 86 83 79 47 24 28 31 42 50 54 30 7 5 6 10 37 39 64 44 31 40 40 52 69 83 90 92 94 103 113 118 119 122 124 119 119 126 133 142 141 149 146 141 154 160 162 161 172 171 169 169 172 168 168 176 176 177 174 177 180 184 182 183 181 178 174 177 175 176 176 168 167 168 162 153 145 131 115 111 104 90 82 64 53 48 62 68 64 43 35 36 51 61 84 79 71 37 27 28 33 46 49 48 14 6 4 8 37 33 50 52 31 29 42 54 74 87 89 92 95 101 109 120 122 123 126 123 122 132 139 144 146 149 151 154 161 165 175 180 169 162 167 173 173 169 172 175 178 179 179 177 181 183 181 181 184 186 183 183 186 183 179 174 173 172 171 165 154 150 137 120 110 104 96 74 60 51 51 63 62 50 39 32 35 48 58 77 80 70 31 29 30 38 43 46 36 14 6 8 31 30 42 46 32 28 44 60 74 84 89 93 97 99 111 120 122 124 127 127 125 133 141 143 146 146 155 158 165 178 180 171 163 169 177 176 176 175 174 170 171 177 178 177 180 182 185 186 183 184 186 181 181 182 183 181 178 175 175 174 162 156 145 133 118 109 107 89 68 56 47 55 61 58 46 42 27 31 45 57 79 76 53 30 34 32 41 38 34 25 12 6 23 24 42 37 34 29 44 59 70 86 89 92 97 99 111 119 123 127 128 128 129 133 138 142 148 153 157 164 178 183 173 161 169 176 178 177 175 172 176 177 172 167 171 180 184 185 185 185 183 182 180 183 183 181 180 176 178 178 181 181 170 162 152 143 130 121 116 102 83 65 50 50 55 58 50 45 37 24 32 41 59 76 65 39 39 39 35 39 34 21 10 5 19 34 54 36 29 34 47 59 75 85 90 97 100 103 110 116 122 126 129 130 130 135 139 142 150 155 160 164 179 167 156 162 176 176 177 179 176 180 179 178 176 182 185 185 186 186 184 182 182 181 178 176 184 183 180 179 184 186 185 185 182 176 167 155 142 133 122 112 98 78 61 51 50 53 53 43 43 31 24 34 40 63 73 53 40 48 38 33 38 34 16 9 22 60 54 37 29 35 47 61 72 84 91 99 103 105 112 117 122 127 128 132 130 137 138 144 146 154 163 165 174 161 168 178 184 179 181 182 180 183 181 182 185 190 187 184 189 189 189 185 184 182 184 179 178 187 186 184 187 187 191 189 184 183 170 154 149 140 131 118 108 99 80 58 47 46 51 47 39 39 26 26 34 43 61 57 38 43 41 39 35 34 28 7 43 66 47 40 34 37 47 59 75 84 88 99 102 106 111 117 126 131 130 131 130 138 142 145 150 157 158 168 162 164 175 183 182 182 185 181 183 180 185 185 183 181 184 181 184 183 185 178 177 180 179 177 175 178 179 180 183 183 187 190 187 185 180 171 159 147 135 126 112 108 99 79 59 47 47 50 37 37 37 24 24 35 45 57 45 35 44 36 36 37 36 13 74 57 43 45 39 42 48 63 78 83 95 102 103 103 113 120 126 134 136 134 135 137 142 146 150 159 155 163 166 170 172 178 175 177 180 182 184 180 179 176 177 179 181 183 185 186 185 183 182 179 183 183 183 178 181 184 186 182 181 183 184 184 176 179 172 161 147 132 122 114 112 99 75 56 48 51 47 35 42 30 22 30 36 48 56 34 41 36 25 40 44 29 61 40 47 52 42 43 56 70 80 86 92 103 103 102 109 118 123 134 142 138 138 135 140 147 150 157 163 165 166 165 168 169 170 179 181 181 185 184 188 186 181 184 183 190 191 193 189 184 187 192 186 181 184 186 183 182 182 181 180 184 182 180 178 177 174 170 161 144 132 124 117 112 98 75 52 46 47 40 35 37 25 21 34 39 50 41 31 38 23 30 44 46 38 33 44 46 42 48 64 77 86 88 93 100 102 107 109 116 117 135 143 138 131 136 142 147 150 156 159 161 160 166 169 169 172 180 181 182 176 176 184 180 179 179 182 188 190 190 193 190 190 190 186 182 181 182 180 177 175 179 177 180 179 178 177 175 172 170 166 159 148 134 122 117 111 97 66 48 44 43 34 38 29 22 27 36 38 46 34 39 24 24 36 49 27 23 37 43 43 55 70 76 81 88 95 101 104 110 110 117 124 138 141 136 136 139 142 148 155 160 166 167 153 159 170 171 175 176 176 181 180 179 173 177 176 179 177 181 187 189 191 191 193 190 188 186 185 185 177 175 175 178 179 178 177 174 169 170 175 171 163 158 161 151 141 119 111 113 87 57 49 41 41 34 31 26 26 34 36 47 38 33 27 19 30 37 21 23 35 41 47 57 65 73 85 93 96 105 108 109 109 120 130 139 140 141 141 145 141 144 156 162 166 161 151 157 171 172 169 172 177 176 177 179 180 176 179 180 178 183 187 189 190 187 186 186 187 187 188 186 178 174 176 172 176 172 171 177 173 168 171 174 171 167 161 160 159 138 121 118 110 77 55 37 35 36 32 30 24 30 34 48 47 26 31 20 25 31 20 20 36 40 40 54 66 78 90 96 94 102 110 104 105 122 132 139 142 146 148 147 142 150 151 158 158 160 162 169 173 172 171 175 173 173 175 175 175 176 182 185 182 185 187 183 179 190 190 183 185 190 184 181 177 174 174 177 177 173 174 176 179 180 178 175 177 181 170 170 165 158 141 128 118 103 68 45 27 37 30 30 21 26 35 37 48 38 24 28 15 31 12 23 34 32 44 52 68 82 92 94 93 102 108 104 105 120 132 136 142 142 141 142 143 149 153 161 161 168 172 175 175 178 177 174 174 178 175 173 170 176 180 180 183 188 190 187 181 188 191 185 181 188 188 186 185 183 181 179 180 184 181 184 182 185 188 180 177 184 175 173 169 166 163 152 129 112 79 53 28 34 35 28 23 22 32 28 40 53 35 21 17 21 14 22 28 33 37 50 75 86 90 94 96 103 106 104 107 118 130 137 140 139 142 146 144 146 155 157 166 171 175 173 176 176 178 178 183 185 179 176 175 179 186 180 187 192 198 194 192 191 193 191 183 182 190 188 193 190 185 187 185 187 191 186 188 185 183 178 181 182 178 171 174 172 170 166 148 123 94 57 36 27 39 28 27 21 27 27 31 45 47 28 17 18 13 19 27 29 34 57 78 87 89 93 98 102 105 104 106 111 123 136 140 138 143 147 149 145 154 161 167 168 174 174 177 186 181 187 187 187 187 182 177 182 189 194 191 190 193 190 189 191 191 194 195 194 191 189 191 189 186 192 195 190 193 193 188 186 186 187 184 185 183 176 175 176 176 169 161 143 113 65 37 26 24 29 28 24 21 26 26 40 40 42 17 16 7 21 27 28 37 57 78 86 89 93 96 101 104 101 103 111 131 141 141 134 143 147 148 152 154 163 161 166 179 185 188 187 187 187 188 194 194 188 192 195 193 195 199 197 192 190 191 194 199 200 196 199 195 194 195 194 195 197 201 197 197 197 195 193 183 185 183 186 184 178 174 174 175 173 168 156 129 84 47 32 18 19 25 31 22 22 22 34 38 48 39 23 7 21 28 34 34 59 79 86 87 92 94 100 103 97 102 113 135 139 141 141 144 152 150 155 155 163 165 166 180 184 183 188 195 193 195 197 200 202 200 200 201 201 201 196 191 197 197 200 206 200 202 201 196 200 201 202 201 204 203 200 200 204 204 199 187 186 181 184 187 174 169 177 171 168 163 156 142 111 66 45 29 15 22 31 27 25 25 33 38 44 39 31 5 20 35 35 30 64 79 84 86 88 97 101 100 97 111 121 132 138 139 140 137 146 145 151 154 157 166 172 178 185 188 188 195 196 192 201 202 204 203 206 203 203 200 194 195 201 198 203 205 202 204 203 201 205 208 206 203 204 202 201 203 205 201 198 189 185 179 183 182 175 169 171 174 169 161 156 143 128 97 60 40 20 18 27 29 25 29 33 40 42 38 35 4 21 38 32 30 61 79 83 87 85 93 96 96 102 115 128 131 134 128 121 122 124 125 124 124 129 139 153 160 161 167 175 182 191 189 194 201 200 204 206 206 203 203 200 203 202 198 202 200 204 208 208 206 206 209 207 207 211 205 202 204 205 203 198 192 185 185 183 183 180 176 168 169 170 163 157 143 128 118 84 51 28 16 18 31 27 22 23 44 41 41 35 1 28 36 33 29 61 79 83 87 84 92 97 101 109 112 117 118 116 111 99 97 96 99 106 106 99 101 109 118 123 126 140 152 166 176 184 187 193 199 200 197 200 206 205 204 202 198 205 206 207 211 209 206 206 205 205 204 200 196 193 190 183 180 181 177 167 168 170 170 168 168 168 164 163 163 159 143 124 123 104 69 40 24 10 23 31 26 16 34 50 32 39 4 29 33 34 29 63 78 81 85 84 93 98 94 93 94 93 97 101 110 99 89 86 84 77 75 79 84 85 93 96 107 115 124 141 155 168 178 186 186 190 188 193 204 203 205 207 201 201 206 207 211 212 205 198 199 193 185 176 178 163 137 124 122 129 138 144 147 141 141 143 147 150 149 145 150 160 153 131 123 118 86 53 33 6 13 31 29 19 26 49 36 25 14 29 32 32 37 67 80 81 85 81 86 85 79 75 81 87 82 80 88 85 78 70 64 54 57 69 73 76 76 79 87 96 115 130 130 151 167 170 179 183 183 187 195 198 199 200 203 198 197 205 200 199 199 195 188 172 170 168 164 126 112 108 100 105 101 107 113 116 113 114 118 120 120 131 136 139 144 143 125 120 106 60 37 12 6 24 30 23 26 40 45 23 16 24 30 35 37 60 82 84 83 81 82 69 66 79 87 84 79 84 87 91 97 95 94 91 76 64 63 66 70 74 77 87 102 120 117 133 161 160 167 174 174 180 185 187 185 183 183 190 187 189 189 193 195 187 177 167 160 153 152 131 112 97 89 89 90 88 88 88 92 96 98 102 110 115 110 103 106 115 117 116 115 78 39 19 7 9 30 26 26 32 43 28 16 18 30 38 28 60 85 83 80 83 83 77 76 83 92 106 102 95 100 109 112 108 110 117 112 98 83 76 77 78 81 94 99 108 116 124 148 160 159 167 169 170 175 174 177 175 176 178 181 180 181 189 183 181 176 170 155 134 134 126 100 91 84 83 78 74 71 71 74 77 90 97 97 91 82 88 92 89 99 108 116 95 50 22 14 7 9 20 27 32 35 30 15 13 28 31 26 62 84 83 81 85 80 80 89 96 101 102 108 110 109 110 111 110 108 114 120 113 111 111 96 88 93 94 99 104 114 119 128 145 151 158 163 164 162 168 172 173 173 176 176 176 175 175 175 172 171 164 141 131 129 122 109 108 100 93 89 98 103 108 116 125 130 134 136 119 106 110 116 122 106 87 99 101 70 32 17 8 4 10 19 35 32 27 8 11 28 23 28 62 84 84 81 84 80 79 85 94 106 106 100 103 104 106 112 116 122 130 138 135 132 138 131 107 97 92 91 91 99 108 114 128 137 146 151 154 158 162 166 167 172 174 173 171 166 163 165 163 159 149 138 137 131 118 117 119 119 122 131 145 151 158 162 160 159 158 153 143 135 138 149 148 122 92 86 102 90 51 24 11 4 5 11 23 30 32 4 8 22 22 45 64 84 87 83 83 85 88 90 92 98 100 95 96 102 115 120 127 143 150 157 159 155 158 162 153 139 124 102 89 86 89 97 103 115 126 137 143 154 159 164 169 166 170 171 168 167 163 155 152 145 136 128 125 119 116 122 130 144 155 164 168 168 172 167 165 164 160 151 146 144 145 145 139 134 112 98 103 98 73 39 16 10 7 12 20 21 28 2 6 15 31 54 57 85 87 85 85 86 88 93 93 95 90 88 93 105 113 123 127 137 151 157 166 167 171 176 176 176 163 146 124 105 89 85 83 90 104 121 133 147 150 160 170 169 174 171 164 162 158 148 136 124 119 115 116 121 132 148 161 169 171 176 171 174 172 169 171 169 165 160 150 142 137 134 137 130 120 106 105 106 92 54 27 14 16 16 26 23 22 4 5 17 49 44 57 85 85 84 88 90 89 92 93 88 85 89 97 99 94 90 96 104 116 130 133 137 139 140 142 153 165 164 158 144 124 110 99 89 90 103 119 137 151 170 184 189 191 184 177 161 144 136 127 119 117 123 132 141 151 161 165 152 139 136 132 136 140 150 147 150 163 160 155 148 133 129 127 124 123 114 109 109 107 77 47 19 18 37 41 42 35 5 8 21 52 41 65 91 88 84 91 91 86 94 97 90 88 89 80 73 85 101 113 114 121 132 131 140 140 136 121 102 111 135 149 154 152 138 125 108 91 89 103 126 151 171 188 199 204 195 186 168 144 130 127 126 132 140 145 154 147 130 107 103 117 135 142 143 149 147 132 124 124 123 144 149 135 123 120 128 130 123 116 112 111 99 72 38 20 36 53 53 49 10 5 26 50 45 74 90 92 90 92 95 85 90 98 93 84 72 64 85 92 91 90 69 54 48 47 54 65 85 114 121 119 100 113 144 152 140 132 124 109 101 99 120 145 167 185 194 202 198 186 168 143 127 129 134 142 144 142 142 121 106 117 131 136 137 131 126 137 139 147 144 138 117 109 113 135 126 125 130 133 124 118 112 116 120 102 63 38 35 45 62 56 11 5 28 49 55 70 85 93 90 94 97 89 88 91 89 77 72 75 66 62 59 70 47 30 66 90 79 98 74 75 104 110 121 101 114 127 127 131 131 123 120 111 114 138 157 178 187 189 190 182 160 141 135 136 139 141 141 137 127 123 126 119 98 72 59 66 57 62 56 67 84 103 119 118 102 105 131 130 134 135 122 119 117 119 131 119 77 56 43 37 63 65 21 12 31 53 67 63 84 96 93 95 95 87 84 86 90 90 76 57 42 45 80 101 61 47 78 37 15 84 89 97 157 120 95 97 106 117 130 135 142 137 124 122 116 136 159 172 183 182 184 179 160 146 148 150 143 138 138 135 124 111 95 104 130 68 67 107 52 75 97 49 53 75 74 88 109 109 123 133 133 129 125 120 120 121 132 124 77 67 56 38 63 67 35 37 40 54 72 58 84 94 94 95 96 89 89 89 86 79 68 63 76 89 111 134 99 49 95 86 77 94 65 136 213 180 135 97 74 99 148 173 172 168 140 127 125 138 156 170 176 178 180 176 159 156 166 175 179 172 160 135 106 95 125 174 199 103 83 75 21 51 86 48 81 122 82 56 77 115 128 129 130 126 126 125 121 124 131 126 75 72 66 38 62 73 53 61 52 60 61 59 80 94 93 93 96 95 98 93 87 86 85 85 96 116 128 145 149 83 70 81 97 86 103 170 166 147 143 134 125 125 154 190 191 166 137 129 130 138 150 164 173 173 173 174 160 159 168 186 207 205 163 128 129 132 150 161 185 144 78 104 97 101 79 53 132 140 115 91 68 82 105 116 122 123 127 127 125 129 134 125 77 72 72 41 49 66 43 65 60 65 56 64 80 91 93 94 98 100 105 107 101 102 100 93 96 103 117 130 134 138 116 120 122 143 160 155 155 147 147 155 165 176 175 181 174 148 130 131 131 133 141 158 169 165 162 162 157 158 162 178 195 198 186 175 161 156 149 140 162 167 140 128 118 104 84 122 169 148 135 118 103 108 109 105 115 126 131 131 127 131 138 125 77 78 86 44 41 46 33 52 68 68 57 70 79 90 93 96 103 107 117 117 117 112 107 101 98 104 119 122 122 130 144 142 141 155 143 153 158 146 132 135 151 159 160 165 156 134 136 135 129 130 142 157 164 159 163 163 152 157 161 166 180 187 179 176 169 160 147 148 152 150 160 161 160 165 137 141 140 143 140 130 128 134 140 127 121 131 132 131 127 128 132 120 71 78 91 42 36 36 59 59 63 74 63 70 75 90 92 97 104 111 120 125 124 119 113 110 106 98 104 113 118 132 138 144 151 156 148 146 142 131 138 145 152 163 168 165 145 136 139 133 127 127 139 153 165 160 160 167 154 150 159 157 174 184 176 171 166 151 135 140 151 158 160 155 161 169 151 151 154 151 141 143 143 139 151 150 139 139 136 140 133 129 129 119 70 85 99 42 31 32 87 97 79 71 67 70 71 90 90 97 107 118 129 132 125 122 123 124 117 112 105 107 110 117 121 127 124 127 138 147 152 145 157 163 164 169 169 155 142 146 140 133 131 123 133 155 164 162 162 164 153 150 155 162 163 175 180 172 174 167 150 141 136 143 148 153 162 164 163 159 156 148 139 135 142 149 153 157 156 149 147 148 137 130 131 125 72 86 108 43 21 28 105 125 107 73 69 68 69 88 89 98 108 125 133 136 137 132 126 131 132 133 126 122 126 121 126 141 147 157 165 164 168 160 164 171 174 169 160 151 145 142 144 136 127 120 128 155 169 173 171 162 150 148 152 158 162 166 179 185 177 177 178 174 168 155 140 131 128 138 140 140 136 137 140 147 152 157 164 153 157 158 150 150 139 131 131 127 68 80 108 44 23 25 118 128 114 86 73 62 71 88 89 96 108 123 137 140 142 137 130 135 139 135 140 144 151 152 157 168 172 173 176 172 163 164 170 178 181 171 157 148 144 146 143 133 122 120 131 155 168 175 176 166 147 140 144 155 161 167 174 186 188 188 182 182 185 189 186 179 166 160 156 152 150 156 160 161 161 166 166 156 157 160 155 155 140 129 130 128 72 76 101 50 27 22 127 128 116 83 72 63 75 90 90 97 112 126 140 146 149 146 138 142 139 128 141 150 154 161 169 176 176 174 178 173 163 175 181 180 172 168 152 140 142 142 136 124 119 121 134 154 166 173 174 168 149 136 140 154 161 169 168 178 188 199 190 183 184 184 187 190 195 188 183 173 170 176 177 173 167 168 168 169 162 162 159 155 144 133 130 129 75 79 101 47 24 25 127 124 111 83 73 65 75 86 90 98 107 122 140 148 152 156 155 150 152 151 149 154 159 166 170 174 173 174 170 165 165 173 186 178 162 157 144 137 141 134 125 119 116 120 133 153 169 168 171 166 154 144 141 148 158 161 168 170 181 192 200 192 186 183 187 187 191 185 184 178 177 172 176 177 170 170 175 176 169 165 159 152 141 133 132 127 70 88 110 44 23 28 118 113 95 81 73 70 73 85 90 93 105 117 136 146 153 160 158 157 157 155 153 158 165 166 173 174 167 166 165 166 179 183 182 174 162 150 145 144 136 129 124 117 115 123 136 153 162 164 166 164 152 147 142 143 158 157 159 172 182 186 197 198 199 192 188 189 192 189 190 187 183 179 185 182 175 173 176 176 175 169 158 147 141 132 133 126 68 92 116 48 23 35 112 116 109 85 69 72 72 84 88 93 106 122 136 147 151 159 163 163 163 164 163 167 169 169 168 170 175 175 175 180 185 182 178 169 163 148 147 142 131 122 117 113 117 123 138 147 154 160 160 156 151 145 141 143 150 158 159 172 181 186 192 194 201 202 197 192 195 196 196 193 191 190 189 187 183 181 184 178 176 170 157 148 143 130 133 127 71 94 121 51 26 44 131 118 109 93 65 72 73 83 86 94 102 116 130 138 144 156 166 167 167 171 170 176 174 168 172 177 181 188 184 176 183 177 171 170 158 144 141 130 126 120 111 112 118 127 142 152 157 158 157 160 155 142 139 141 146 155 158 167 179 186 187 191 196 194 194 193 190 192 197 198 195 192 189 185 185 183 183 182 176 170 160 145 141 134 131 124 77 97 124 57 42 56 139 133 115 97 61 75 74 78 86 93 98 109 122 132 140 153 161 168 170 167 169 171 174 180 187 188 185 188 186 178 173 173 176 166 158 147 137 128 124 118 112 114 122 133 144 154 162 163 164 167 163 151 139 138 144 145 154 162 179 182 179 186 192 188 190 195 193 191 190 197 194 194 188 184 186 184 182 179 174 167 157 143 139 135 130 118 83 104 119 65 72 84 142 145 129 111 73 65 73 76 84 90 96 107 117 130 135 145 156 167 166 159 168 178 181 179 187 190 188 188 185 177 170 177 170 158 158 147 139 129 117 111 113 117 124 136 154 166 168 170 172 171 170 156 145 137 140 145 154 164 176 180 185 192 195 191 187 193 199 194 180 188 196 194 190 189 184 185 185 181 174 163 154 143 134 131 126 111 92 113 105 71 99 103 146 148 133 127 100 51 67 72 84 92 99 103 111 125 132 142 151 166 166 165 168 181 188 183 185 184 179 183 180 175 169 171 165 163 156 144 135 125 112 111 113 121 126 136 161 174 180 181 182 179 172 163 149 139 138 141 153 169 175 180 186 190 192 192 193 191 187 193 177 180 196 202 197 196 190 186 188 180 172 157 153 142 133 129 125 111 99 126 98 69 121 120 135 136 125 126 117 61 56 63 80 87 97 100 106 117 122 135 145 158 162 164 173 176 183 186 189 181 179 176 178 174 169 173 171 163 155 140 132 118 109 115 118 124 133 148 175 186 193 196 197 193 178 168 152 138 136 138 141 167 184 181 183 185 189 191 191 193 191 195 198 191 192 196 198 197 195 188 183 175 171 158 144 137 131 126 122 107 109 128 98 67 124 141 121 134 122 118 130 90 49 55 72 87 93 98 103 111 123 130 140 148 156 160 168 173 178 181 180 175 174 177 175 173 170 171 170 161 153 143 130 115 117 120 117 120 133 156 178 183 185 189 196 196 184 164 146 134 136 138 139 161 183 184 182 186 190 191 190 192 194 193 196 197 192 194 193 190 187 188 182 170 166 154 139 132 128 126 122 99 108 135 111 67 94 124 102 138 125 107 113 115 68 46 68 86 89 94 102 108 115 127 132 144 156 154 161 167 173 181 180 174 175 177 173 174 170 163 161 161 160 147 124 116 116 118 113 107 113 130 152 160 162 170 180 173 158 140 128 132 136 140 141 151 179 191 189 189 192 195 191 192 193 191 195 193 193 191 189 189 185 181 175 167 160 149 138 126 129 126 121 92 107 132 115 81 72 102 86 124 139 118 108 110 88 48 63 81 88 94 96 104 113 128 137 141 154 157 156 161 172 177 176 178 177 170 168 177 161 160 163 159 156 145 120 116 116 116 104 95 95 103 119 130 139 150 160 151 135 126 123 123 132 140 140 144 172 192 194 191 192 192 193 194 192 193 196 197 192 191 190 184 183 169 168 164 155 151 139 128 125 118 116 96 102 122 109 92 86 122 88 102 125 123 125 112 85 64 61 82 87 92 95 100 105 116 124 135 145 149 156 158 165 167 169 176 177 170 175 174 162 155 170 162 152 137 113 120 118 108 92 81 85 97 101 106 122 138 131 127 125 115 108 111 128 146 144 141 162 179 198 198 195 193 195 190 193 195 196 196 195 189 184 175 173 172 166 161 151 147 134 130 125 117 111 95 100 104 98 107 121 132 90 107 105 119 140 135 104 69 60 85 85 87 93 100 102 106 116 130 136 142 148 154 160 165 168 174 175 171 173 172 166 167 171 166 152 135 114 117 117 87 33 9 12 41 81 93 101 113 114 116 82 29 21 45 105 138 144 143 159 179 194 197 198 196 191 190 195 192 196 193 195 192 185 179 172 174 167 159 146 138 131 126 122 118 109 89 99 91 111 128 142 145 85 110 130 121 141 157 134 88 52 85 85 84 90 97 99 103 113 127 136 140 141 147 158 165 165 169 172 173 174 171 167 170 176 167 149 136 114 110 114 77 36 22 1 0 44 80 82 89 101 93 62 13 6 20 63 125 145 143 159 175 185 190 194 196 195 192 194 196 194 193 191 193 188 178 170 168 164 154 144 136 131 126 117 116 105 85 113 94 146 162 139 150 84 106 133 134 135 141 136 93 55 83 88 86 91 98 96 101 105 113 132 135 137 148 159 164 165 171 173 174 172 171 175 171 171 165 150 141 119 104 119 108 99 112 60 47 83 75 72 74 92 96 100 72 98 100 91 124 138 138 161 173 181 186 193 192 198 195 193 195 195 191 188 187 187 175 165 161 156 150 141 135 133 125 117 121 103 82 115 102 161 171 157 144 85 102 132 143 142 135 125 87 59 81 89 85 88 94 97 102 103 109 122 134 138 139 154 162 163 163 172 173 174 172 170 171 170 160 151 143 125 98 114 124 125 142 134 134 119 94 86 83 98 106 127 143 156 127 110 117 121 144 164 176 182 182 191 197 196 193 193 190 193 191 187 184 181 176 167 160 156 149 139 133 129 125 124 122 97 97 126 100 155 170 176 160 83 96 132 144 146 143 137 109 64 76 89 84 88 92 95 98 103 107 119 123 132 141 155 159 162 167 168 168 176 176 174 176 172 162 153 153 148 118 93 109 131 146 167 174 154 135 121 120 125 127 143 165 158 128 109 113 139 168 175 182 186 181 181 191 199 193 188 189 191 193 187 182 181 171 167 162 157 146 131 132 131 124 126 121 89 103 146 130 144 175 173 170 86 90 127 143 148 151 149 127 72 72 92 88 90 93 96 99 100 106 115 120 128 144 154 159 167 168 164 169 176 178 178 180 170 162 158 166 165 156 134 129 141 149 161 175 183 181 159 151 166 169 170 164 159 158 159 168 177 182 187 187 186 183 186 191 194 195 188 193 191 191 182 177 178 171 168 161 154 142 134 135 133 128 125 118 86 95 145 162 155 171 174 168 87 86 113 142 149 152 152 132 78 71 90 90 90 93 97 99 101 102 109 126 132 141 153 155 162 158 164 173 170 179 180 175 168 165 165 168 165 167 165 158 154 157 173 187 191 199 198 186 192 186 186 180 178 179 176 185 185 183 189 188 189 188 187 187 191 196 197 194 185 183 183 171 172 171 161 157 151 141 137 137 132 132 129 116 92 93 135 161 176 177 177 167 86 85 99 135 151 158 151 124 93 64 84 88 85 91 93 98 102 103 107 120 127 134 146 149 160 161 167 173 174 178 174 168 161 165 167 166 169 169 168 163 155 166 176 173 183 197 193 185 187 178 175 178 178 179 170 173 182 185 186 185 186 187 185 183 186 193 193 197 186 166 162 174 172 171 160 154 147 141 136 138 134 131 133 120 94 106 146 168 172 169 172 155 86 86 89 118 143 152 143 134 99 58 83 90 90 91 95 95 93 99 105 117 127 134 147 152 159 163 164 169 174 170 167 168 165 165 166 166 167 163 165 151 146 161 172 170 176 174 172 179 177 179 182 181 176 164 158 159 167 174 179 183 179 181 184 182 178 182 187 191 191 170 131 161 173 166 159 156 144 139 135 137 137 138 134 123 92 105 153 171 171 163 159 124 87 87 87 93 121 134 136 131 94 60 80 88 89 92 97 97 91 96 103 111 124 131 142 157 157 159 161 166 170 166 166 167 163 165 163 161 159 149 151 141 141 156 166 166 170 169 165 184 187 180 184 176 172 162 150 156 162 169 172 176 185 181 176 177 177 177 178 180 164 148 132 164 171 157 157 154 143 133 134 137 138 136 137 123 95 102 140 164 165 156 134 96 87 88 89 88 89 102 111 112 84 61 78 85 88 92 97 95 91 95 100 112 124 125 137 153 160 156 155 158 161 160 165 164 160 162 160 162 149 133 132 135 141 153 161 167 175 182 182 184 189 180 183 175 166 157 148 142 139 151 159 162 181 179 180 173 176 180 176 173 164 163 164 165 150 154 154 149 136 131 134 135 139 139 136 114 97 98 125 141 135 112 93 90 87 87 88 89 88 82 74 69 64 60 74 86 92 97 93 93 91 90 97 107 119 126 135 142 153 151 148 150 149 162 161 155 164 161 154 153 143 127 119 133 140 150 164 174 182 182 183 182 188 174 173 171 160 146 141 136 134 148 160 152 155 166 167 167 167 175 173 176 169 168 176 159 147 158 152 141 132 127 130 134 133 137 133 113 90 79 55 48 43 46 70 90 88 88 88 89 90 91 76 46 49 59 71 86 95 94 93 94 92 89 90 100 112 122 135 141 145 145 144 136 150 156 144 144 149 149 150 143 139 118 127 137 138 154 170 184 180 177 176 179 181 177 169 163 155 152 146 145 155 151 159 167 151 156 152 154 161 161 161 167 159 140 157 163 165 160 146 138 129 126 131 136 137 140 135 115 90 62 23 8 17 35 61 84 87 87 89 89 90 90 86 53 53 56 71 84 95 96 93 93 88 87 89 97 107 118 127 135 137 137 139 129 138 134 135 141 143 145 140 144 131 125 131 139 142 159 167 173 174 177 171 177 176 171 170 172 171 158 158 156 153 149 151 168 161 156 154 158 161 163 160 164 151 119 138 155 156 148 142 133 126 125 131 139 144 137 134 118 91 45 17 21 19 32 56 82 86 86 89 88 89 90 91 61 50 52 64 83 96 99 97 98 91 85 85 92 103 115 124 132 134 132 134 125 133 130 135 148 152 146 138 140 131 136 140 143 149 154 162 169 177 183 182 179 174 174 178 179 168 158 162 162 162 155 153 160 164 166 163 163 159 159 162 147 154 148 142 146 147 145 138 126 124 128 133 141 148 142 137 122 90 57 15 17 21 27 52 77 93 90 89 89 88 89 91 68 52 52 62 82 93 98 97 101 96 83 85 86 97 109 121 129 126 129 129 116 121 126 137 145 146 143 138 132 139 143 147 149 143 141 144 156 162 165 173 180 180 167 157 151 139 144 146 144 147 148 147 159 166 161 154 148 148 159 158 148 145 150 150 143 143 144 131 123 128 133 141 144 145 144 136 118 81 65 29 14 21 24 48 72 121 115 106 100 93 89 90 76 60 49 62 83 90 97 106 106 101 88 86 87 93 100 110 116 116 119 116 114 118 131 137 133 134 129 134 130 137 128 124 124 124 119 113 114 122 121 125 136 130 112 112 118 125 134 138 133 128 117 112 125 140 146 142 142 135 142 147 145 137 139 148 145 143 137 124 121 128 136 141 143 141 140 129 117 77 59 27 15 17 27 46 66 159 156 144 126 107 94 91 85 69 51 60 82 94 103 109 110 105 94 87 82 86 94 103 111 117 108 107 121 128 142 131 124 119 115 119 119 106 102 104 107 113 120 123 122 115 115 103 107 104 110 117 127 139 138 136 127 121 115 101 97 96 115 132 135 142 140 133 152 135 134 140 138 139 128 118 122 132 141 142 146 148 141 127 118 82 47 19 22 16 31 48 65 176 178 172 155 128 103 92 92 77 57 60 81 94 103 110 113 109 102 95 87 86 89 93 101 106 104 108 124 136 134 124 121 104 87 72 79 88 93 95 88 93 111 118 114 97 98 94 78 80 98 98 101 107 96 87 80 89 100 93 97 88 84 70 78 93 115 135 149 150 126 124 127 133 122 120 126 140 144 148 147 154 141 120 108 85 49 26 27 24 31 48 69 182 188 182 169 147 118 97 106 89 62 60 80 92 102 110 119 115 108 103 88 88 88 87 95 96 102 122 127 123 125 108 89 62 37 39 52 61 63 53 50 45 59 67 68 57 59 69 62 59 73 73 73 85 85 90 88 83 79 71 67 73 68 81 92 95 116 143 142 144 141 120 124 131 126 127 134 148 149 148 150 155 137 126 106 78 43 27 32 25 29 51 75 183 192 184 173 157 127 109 131 117 69 57 73 93 104 108 118 118 111 104 98 91 87 89 93 104 115 127 129 129 129 114 111 104 93 76 65 54 58 67 82 89 92 92 106 110 116 120 125 132 134 132 130 141 142 142 144 140 133 116 106 117 130 156 167 165 160 146 145 147 156 139 129 130 124 129 143 153 151 149 148 148 133 124 96 72 52 35 27 14 31 52 80 177 190 185 171 154 133 128 151 147 76 48 69 93 101 109 119 117 116 109 109 95 92 89 91 106 116 118 130 139 142 156 166 164 161 142 123 106 105 112 115 123 128 139 137 139 142 144 149 147 150 153 150 154 152 150 148 142 139 140 141 151 166 166 175 176 172 148 146 148 153 146 135 131 129 139 150 153 153 145 152 139 124 121 94 63 56 31 9 21 34 60 86 151 173 170 156 142 141 149 165 164 89 37 68 90 100 107 117 121 123 119 116 106 97 87 89 106 113 118 131 140 158 162 167 165 161 151 142 135 128 127 127 130 135 150 149 155 152 153 157 154 159 172 171 170 173 170 166 162 164 158 164 163 165 166 177 175 164 158 157 151 152 138 131 131 133 143 154 155 151 147 147 130 124 118 94 63 39 21 20 29 41 81 92 116 143 145 135 132 147 165 181 180 117 34 58 89 100 108 116 124 126 118 125 117 106 94 90 98 107 122 146 150 157 160 158 164 163 154 150 150 145 147 157 159 162 165 170 180 174 173 178 181 182 185 182 188 192 188 185 182 179 174 172 170 170 172 176 180 172 161 158 151 149 137 137 132 131 150 154 155 151 150 137 132 120 109 84 62 35 20 24 37 82 111 104 93 114 123 117 122 150 176 189 188 129 32 45 81 97 104 114 127 127 118 117 123 110 100 87 96 110 130 155 155 153 155 159 164 161 158 159 157 156 155 161 165 170 168 170 173 172 173 175 176 177 176 177 180 182 185 182 180 176 177 178 171 170 170 173 181 177 164 162 156 149 140 138 136 150 159 155 149 148 144 141 131 115 99 72 45 42 30 39 91 124 130 119 97 108 114 111 124 156 184 197 197 156 33 32 71 91 97 109 122 125 126 120 127 119 108 95 96 107 120 141 148 153 156 157 162 157 151 157 162 161 160 163 166 168 168 169 173 173 173 169 176 175 174 177 182 181 180 182 178 173 175 173 170 173 169 167 173 171 165 166 156 148 145 136 144 152 153 157 153 150 143 138 126 104 90 77 68 67 87 125 155 146 144 132 123 132 138 128 139 165 189 200 199 179 70 14 49 87 96 97 114 121 122 122 124 119 113 101 93 102 119 130 143 150 155 156 154 152 147 150 157 159 160 163 160 162 167 166 173 170 169 169 176 175 172 181 179 176 180 181 178 168 169 167 161 167 165 168 169 164 164 155 152 141 145 139 141 151 154 158 156 149 140 135 120 99 81 89 115 122 162 182 174 169 156 143 147 160 163 144 146 176 198 202 198 171 119 22 28 72 96 92 107 123 125 124 124 122 117 106 98 94 109 121 130 140 147 149 148 149 148 149 152 156 156 164 168 160 161 161 167 163 162 166 167 167 169 175 180 171 177 179 168 162 159 161 158 164 169 170 165 164 158 141 148 148 146 142 145 154 156 158 152 142 139 129 107 90 77 99 125 159 184 190 186 181 163 151 165 179 179 163 161 180 202 206 191 161 134 68 41 57 87 92 106 118 127 124 123 127 118 106 101 90 97 113 121 132 142 145 140 147 151 148 147 151 154 161 163 158 154 154 162 163 168 160 150 159 162 162 171 173 166 167 165 163 157 161 162 165 167 167 161 164 156 147 151 147 147 145 147 155 157 151 147 145 140 126 97 74 84 108 129 163 189 195 194 186 164 149 180 193 190 177 176 187 202 202 194 173 147 98 53 40 63 84 96 107 118 120 121 124 120 114 102 91 96 106 115 130 137 140 145 148 144 145 145 148 154 156 156 157 157 156 161 160 161 153 153 156 161 162 166 170 169 166 162 163 166 164 159 162 163 165 162 167 170 159 150 152 150 147 148 152 157 151 145 142 133 118 78 70 102 111 128 159 187 194 194 184 156 134 192 202 199 188 182 189 200 208 203 185 147 105 46 30 50 67 86 94 112 115 121 119 121 116 108 97 99 107 111 123 135 136 144 143 137 142 147 145 148 154 157 156 161 163 162 158 156 157 158 160 162 167 171 173 174 171 166 163 166 167 165 164 165 162 167 171 167 163 158 154 147 145 151 159 148 143 143 132 129 104 68 80 112 116 130 158 187 194 192 180 151 131 197 206 202 193 182 183 197 207 203 188 154 111 71 54 64 50 74 89 106 112 118 119 116 117 112 105 99 108 112 116 130 140 136 136 137 141 143 144 144 146 151 156 159 161 159 161 161 163 159 157 162 168 171 175 175 178 174 171 168 168 168 169 171 168 166 166 170 158 160 157 147 144 153 156 151 135 131 123 115 86 78 106 125 116 132 160 187 194 192 181 151 132 192 202 201 189 170 170 189 206 206 194 166 127 90 83 84 60 56 78 96 101 103 118 121 119 110 100 95 98 112 123 128 132 139 137 132 140 144 143 146 152 155 156 157 163 162 159 162 163 149 156 163 166 174 179 181 170 166 179 171 173 176 178 173 171 170 171 168 163 160 146 146 146 152 150 144 129 123 111 96 76 104 121 120 116 135 161 187 193 191 179 149 132 193 204 200 186 161 158 181 205 208 200 179 146 105 87 86 85 57 58 77 94 104 110 118 114 101 92 92 101 114 123 130 136 136 140 141 143 147 149 151 155 157 160 157 170 173 174 178 160 145 165 174 178 183 185 182 170 175 184 182 180 181 183 179 173 176 166 170 161 152 144 134 140 151 144 142 125 115 98 81 93 120 123 119 115 139 163 188 193 191 178 148 132 200 205 199 184 154 143 168 199 207 205 193 168 136 116 93 90 81 49 58 76 101 109 114 110 102 104 103 113 116 122 129 128 134 139 138 137 147 155 150 151 159 167 169 172 173 173 179 176 175 182 187 185 182 178 173 174 186 189 186 183 181 185 183 177 175 172 166 160 152 149 141 138 143 138 132 112 95 82 89 108 127 128 118 116 142 164 188 193 190 176 146 133 201 202 193 177 145 126 149 186 202 204 198 187 171 162 115 84 92 73 47 54 84 102 111 107 106 112 102 96 105 119 123 129 133 145 145 150 154 161 162 165 174 175 171 165 168 173 180 184 188 193 188 186 181 175 174 174 182 186 188 188 181 181 183 171 168 163 156 156 150 136 141 133 131 128 119 98 77 79 111 124 129 129 117 116 145 166 189 193 190 176 145 133 193 192 184 166 134 108 126 166 191 198 196 192 184 182 131 81 96 88 60 52 65 90 105 101 97 99 100 104 105 107 119 130 137 143 144 153 164 167 169 168 168 166 158 157 167 171 174 176 178 182 179 180 181 181 174 170 171 174 179 179 178 173 172 170 166 157 147 145 141 134 134 130 122 113 100 86 68 102 128 131 132 130 117 117 149 169 189 194 190 176 144 134 179 178 170 150 120 93 101 140 170 186 188 185 180 180 139 82 92 95 80 54 44 69 83 95 91 92 95 95 99 113 118 122 134 143 144 153 156 156 162 169 163 155 152 156 166 178 180 178 176 178 183 178 176 184 182 174 175 168 173 175 173 169 161 165 166 153 134 128 133 123 120 130 112 102 78 67 88 120 133 133 135 131 118 120 156 172 190 194 190 175 144 135 162 160 149 128 103 86 86 111 140 163 175 176 173 172 146 88 93 101 95 75 48 41 62 86 93 91 89 91 93 96 98 119 123 126 143 151 156 152 159 161 158 153 153 154 176 183 182 182 183 181 179 178 175 181 179 171 172 167 166 174 168 168 162 157 148 151 133 123 125 124 115 114 94 78 63 73 111 126 133 137 138 132 115 127 171 180 194 196 193 179 151 143 138 133 120 102 87 84 86 90 106 127 146 157 158 158 143 88 93 101 97 90 66 40 48 72 78 78 72 74 83 87 96 115 125 137 134 149 148 155 150 145 147 154 158 156 174 183 181 180 179 175 173 173 171 173 171 173 173 171 158 160 161 163 150 150 138 141 134 124 118 117 107 96 75 67 75 103 128 132 134 140 136 132 119 131 177 183 192 194 190 176 156 153 102 98 90 83 82 87 89 87 88 96 108 120 127 131 124 88 93 102 100 89 78 58 45 52 60 72 75 74 79 82 92 113 126 125 123 137 151 152 139 136 148 162 165 168 175 181 180 171 166 166 161 163 167 173 175 174 172 164 158 165 163 158 130 129 122 118 127 107 107 108 95 84 62 83 108 126 135 136 137 139 136 134 120 125 168 174 182 184 179 166 151 151 81 82 82 84 88 89 88 90 88 86 85 89 93 94 94 86 92 103 104 97 87 80 68 57 50 61 64 72 81 81 99 100 108 102 115 137 137 123 129 131 139 150 152 157 163 158 164 165 162 152 150 152 156 157 165 163 157 153 146 157 160 157 129 127 116 103 109 94 89 85 69 69 68 98 115 126 135 137 141 138 136 132 120 120 149 158 170 171 165 152 139 138 87 88 89 89 91 90 90 89 89 88 87 84 83 84 83 84 91 103 108 104 93 88 81 77 67 54 51 51 68 71 78 77 93 95 116 119 117 126 131 121 130 143 137 137 148 144 149 161 155 157 152 156 157 149 153 149 151 154 135 130 137 132 109 109 114 95 100 90 75 66 69 80 100 113 127 135 138 142 145 140 138 131 122 116 129 138 148 154 145 131 121 123 89 89 89 90 89 90 90 89 89 89 89 87 86 87 89 85 88 101 107 108 100 99 92 84 77 67 57 59 59 59 63 69 90 102 113 98 110 120 119 113 118 126 132 144 139 143 151 152 151 157 137 154 144 135 150 141 137 144 134 120 117 130 104 101 106 97 88 79 71 81 85 104 124 125 135 136 141 145 144 145 139 132 125 110 108 112 119 125 120 109 104 107 87 88 89 90 90 90 90 90 90 90 89 88 88 90 65 63 90 100 107 107 107 103 99 90 82 65 58 61 45 56 64 70 78 96 94 93 109 97 96 101 117 114 118 138 132 141 151 144 140 145 136 142 135 124 149 134 118 118 129 117 101 102 108 91 100 91 69 71 79 92 108 120 123 130 136 138 141 146 146 144 139 131 125 102 84 88 89 91 92 89 87 87 87 88 89 90 90 91 92 91 91 91 89 88 91 60 14 69 89 98 108 106 108 111 102 93 83 71 66 67 63 61 55 58 71 79 74 84 90 89 90 91 118 104 111 135 117 141 137 123 127 129 129 134 128 120 119 114 112 102 97 94 96 87 86 79 81 82 64 75 97 112 123 118 127 134 140 143 145 147 144 145 139 134 123 119 93 83 83 83 83 81 81 82 87 87 89 89 90 91 91 91 91 90 89 91 67 6 29 130 86 94 104 107 108 113 114 100 90 84 73 68 75 60 53 64 63 53 66 77 88 80 89 96 112 94 110 127 114 136 129 121 118 121 121 119 120 129 119 108 85 95 89 94 85 73 65 67 79 79 88 102 117 124 125 125 132 140 140 145 149 150 146 143 138 135 120 153 138 82 88 88 87 86 86 84 87 88 89 91 91 90 91 92 90 90 93 82 22 0 73 166 85 93 101 108 111 116 118 113 100 88 83 86 86 68 73 70 53 52 73 85 65 71 91 98 102 90 109 107 102 100 134 112 99 115 102 98 97 106 119 97 76 84 103 87 75 69 70 72 99 108 113 120 125 130 132 134 139 140 146 149 153 149 146 144 141 135 118 155 186 89 86 88 88 88 87 86 88 88 88 89 90 90 92 92 92 92 91 41 1 0 116 184 92 90 100 107 108 115 118 116 111 109 103 95 87 75 71 64 60 60 64 62 55 71 69 78 81 90 92 97 107 95 104 89 82 83 89 86 83 90 103 91 71 74 81 70 69 72 84 99 116 127 123 127 135 135 133 136 141 143 147 151 152 148 145 143 141 135 119 148 218 114 82 88 87 87 86 86 89 89 88 89 90 90 90 91 91 94 61 7 0 16 154 192 102 88 98 103 106 111 116 118 117 117 109 96 86 84 71 74 70 64 59 61 72 65 53 56 70 77 78 79 89 87 80 85 74 81 85 80 94 69 85 65 73 82 76 69 89 101 108 123 128 128 127 133 139 139 139 140 143 147 146 153 151 147 146 146 144 136 118 139 230 148 80 88 87 87 86 85 90 89 89 89 90 90 89 90 93 81 21 3 0 53 172 196 112 84 98 104 107 109 115 117 119 119 110 109 98 90 81 77 72 69 66 65 61 53 54 52 56 61 55 64 62 71 66 58 59 74 49 62 63 47 59 59 76 81 91 99 113 123 128 131 131 129 133 134 137 138 142 146 152 158 157 153 149 145 150 146 139 135 117 135 232 178 81 87 87 87 85 85 90 90 89 90 89 89 89 91 93 45 3 4 0 87 175 200 129 79 96 103 108 110 115 117 120 117 115 115 109 104 95 90 86 82 78 75 69 67 60 52 47 45 44 36 30 44 38 40 36 38 44 42 46 53 57 62 77 93 111 121 128 133 131 133 132 129 131 135 137 142 146 150 152 156 152 147 144 148 151 140 138 134 115 137 233 198 78 87 89 86 86 86 90 91 89 89 88 89 89 94 72 10 3 2 5 118 172 204 154 81 92 101 106 106 110 112 117 117 118 116 109 109 106 98 92 88 84 82 74 69 63 62 56 51 48 44 39 37 37 42 40 46 52 54 61 63 64 83 107 118 130 131 126 130 131 131 129 130 129 134 137 143 150 149 148 152 148 147 148 147 147 140 138 130 114 142 234 219 75 72 92 88 87 87 90 91 90 88 89 88 91 81 29 2 7 0 30 142 168 198 188 99 90 98 104 105 106 108 114 121 122 119 115 115 112 103 96 90 87 85 83 76 69 72 70 66 63 60 59 54 51 55 56 61 66 73 76 84 93 109 122 129 133 130 129 124 123 127 131 130 132 136 137 144 150 150 150 148 146 152 150 143 142 139 138 131 115 153 236 231 90 30 73 86 87 87