P2
# Generated by OpenCV 4.2.0
92 112
255
45 54 52 36 40 16 22 23 23 36 51 50 49 77 59 43 30 35 26 24 25 22 21 18 18 20 17 21 19 18 18 30 42 54 63 72 69 72 79 83 86 85 88 82 82 67 58 52 46 41 36 32 27 26 26 24 21 20 21 14 16 13 13 20 19 23 17 14 21 18 19 13 15 24 52 62 57 47 46 39 33 50 52 43 42 32 20 30 29 21 19 38 43 55 39 44 23 19 20 23 20 47 52 48 52 44 37 32 34 33 29 26 26 24 21 21 20 19 21 22 25 29 37 51 64 72 71 85 91 109 119 113 105 108 102 101 97 84 78 71 66 58 53 45 33 29 26 30 30 29 24 22 18 15 12 17 18 18 23 19 16 24 20 22 13 11 21 47 69 47 46 42 36 39 44 38 39 37 15 20 30 27 14 24 51 37 34 21 18 16 19 19 34 55 50 43 37 32 28 33 31 34 31 27 27 28 25 25 26 27 25 32 43 54 65 80 92 100 108 133 147 157 155 146 143 143 130 122 113 102 105 88 79 69 59 51 42 38 32 30 32 32 31 26 23 24 18 14 18 21 18 23 19 21 22 27 16 12 17 25 50 67 44 41 39 35 34 40 31 33 25 16 16 25 21 15 48 34 28 17 18 18 19 24 51 51 37 32 31 32 32 33 34 31 28 27 29 29 28 31 38 39 42 47 71 95 102 118 130 144 154 163 167 168 168 167 168 161 150 145 139 127 115 104 101 90 77 70 58 49 40 32 28 32 36 32 27 27 22 17 16 23 17 24 24 21 24 26 23 14 11 17 28 52 60 40 32 34 30 31 36 24 27 23 12 15 17 13 36 33 20 18 15 15 17 35 44 33 30 27 32 31 34 38 34 30 27 28 26 30 34 40 47 65 84 94 103 110 126 144 158 167 173 177 180 181 180 180 180 172 164 156 148 137 134 129 114 104 93 84 69 61 53 47 38 35 31 34 28 24 26 21 13 18 18 15 23 20 22 20 23 16 15 9 19 32 55 53 39 39 32 24 32 31 23 25 15 12 14 14 24 24 14 11 10 17 21 36 34 28 27 28 32 35 45 37 31 26 29 31 30 35 46 59 76 99 127 136 139 152 158 172 180 183 189 190 184 184 184 184 182 177 167 160 153 151 141 134 123 108 95 89 80 73 67 65 52 44 37 38 35 27 25 25 19 15 18 14 18 21 20 21 21 18 12 12 10 19 33 58 40 39 33 25 22 28 21 23 20 17 15 13 26 17 17 9 15 13 32 31 22 26 24 31 41 46 43 33 29 30 28 33 39 50 64 100 114 134 154 165 165 177 185 189 189 188 184 183 183 187 187 185 181 179 176 167 163 158 152 146 137 119 110 104 97 92 82 79 67 57 53 47 44 38 24 24 24 20 16 19 14 22 16 20 20 20 19 13 13 14 22 34 48 37 40 30 28 23 30 17 21 27 16 16 20 17 12 13 14 18 29 24 23 25 28 37 45 44 34 34 27 27 31 40 54 79 105 135 152 172 178 181 184 187 193 191 189 188 186 186 188 191 189 188 183 177 173 167 163 159 154 150 142 131 119 110 100 95 88 80 73 68 60 57 52 49 39 28 21 23 17 18 14 17 15 18 20 21 24 15 12 13 21 23 42 39 34 28 27 23 26 24 15 20 20 16 16 17 12 14 14 22 24 23 25 25 33 40 47 39 31 31 29 32 44 63 88 115 137 156 180 192 193 193 198 199 199 199 197 196 196 192 192 193 193 187 182 175 174 170 163 159 159 153 146 136 130 125 113 101 97 91 80 75 71 70 60 54 44 37 25 25 23 17 16 13 18 19 17 20 24 19 15 10 19 19 31 34 32 29 25 22 17 22 20 17 15 13 17 10 10 15 17 25 24 24 23 25 36 43 36 32 30 30 35 47 74 102 125 135 161 183 201 202 201 196 197 199 199 199 198 195 194 195 194 192 188 187 181 176 174 167 162 159 155 153 147 141 135 135 129 120 110 99 84 77 78 76 69 60 48 39 30 22 25 21 18 13 15 17 16 19 21 21 19 15 16 19 15 27 27 26 25 22 21 18 23 20 16 11 14 11 15 13 22 24 25 22 24 29 42 38 34 27 28 33 44 79 108 137 154 172 189 197 203 203 202 199 200 202 200 201 200 199 198 198 196 194 190 189 184 178 176 168 166 162 157 155 149 143 139 132 128 121 120 113 100 82 75 76 78 66 52 38 39 21 22 19 21 12 15 14 14 14 19 21 21 17 19 14 15 19 20 22 24 19 20 18 22 20 15 12 13 12 13 20 22 24 24 18 25 35 37 33 28 28 37 42 80 113 138 170 187 200 204 217 215 207 209 207 207 206 203 203 201 204 204 200 200 198 192 186 183 181 175 171 168 161 160 151 149 143 137 133 128 129 122 122 107 102 86 77 71 71 56 41 42 37 20 19 19 17 12 14 15 14 15 17 22 25 20 15 14 15 19 18 20 22 20 17 18 18 14 16 9 13 15 22 23 23 17 19 28 40 33 31 27 34 51 73 106 146 173 191 199 199 205 212 214 209 208 208 208 205 204 203 203 205 204 203 202 202 196 189 185 176 176 173 168 162 159 154 149 142 137 131 128 127 123 123 118 113 106 88 76 70 63 47 45 41 30 20 21 21 13 14 15 14 14 16 20 26 26 18 18 16 18 16 19 24 22 19 17 16 16 16 8 13 15 22 21 21 13 20 31 34 29 26 29 44 73 108 139 172 188 196 200 199 207 208 214 209 209 205 207 205 205 204 203 205 205 202 203 199 193 190 183 178 177 170 167 161 159 153 148 144 139 132 130 128 127 122 120 111 107 93 82 70 59 51 42 35 33 23 24 20 17 14 13 14 14 12 18 22 28 18 17 18 18 15 14 18 20 18 15 14 16 14 12 13 17 21 17 18 18 27 31 28 29 26 38 67 105 139 167 189 197 202 202 203 208 208 210 208 208 207 209 208 209 210 210 205 204 202 202 199 193 189 178 174 176 171 164 160 156 153 146 141 139 135 131 131 131 126 120 111 110 98 90 75 64 50 42 36 31 25 24 22 20 16 13 12 12 14 17 18 23 19 15 14 14 18 12 13 15 18 16 16 13 14 10 14 19 20 18 15 20 27 30 25 27 34 66 109 148 172 183 188 190 198 199 202 207 209 206 203 207 209 210 210 209 208 209 204 202 198 196 194 186 180 173 170 169 168 160 156 151 150 144 141 140 138 133 129 129 126 118 112 114 105 94 80 65 57 42 35 27 23 24 23 20 19 17 12 15 17 13 18 19 21 18 15 14 16 13 12 12 17 17 15 16 13 16 15 18 18 18 14 27 30 25 24 30 57 99 148 178 196 196 194 196 196 197 202 207 206 205 204 206 208 206 207 206 206 203 199 200 198 194 190 184 176 175 171 166 164 159 152 149 147 143 139 138 135 135 130 127 124 116 110 114 109 95 81 68 56 41 36 28 23 21 21 18 18 21 15 12 16 14 15 17 17 21 15 14 14 14 13 11 17 16 15 18 12 12 14 18 18 14 17 25 28 24 24 40 88 139 177 190 198 198 199 198 195 196 202 204 201 201 204 205 204 204 204 206 206 202 201 201 201 195 188 182 176 175 168 165 162 156 153 150 146 140 137 138 134 133 130 129 124 118 114 111 110 100 85 71 53 43 33 26 21 18 19 20 16 18 17 15 13 16 18 16 15 17 19 13 11 13 13 12 13 14 16 12 14 15 17 19 17 15 20 26 29 23 35 68 129 169 190 196 198 197 200 197 197 199 204 206 204 204 208 207 205 206 204 203 204 202 201 200 197 190 186 179 178 171 167 166 160 152 150 149 143 137 136 138 135 133 131 130 123 120 113 112 107 105 94 71 55 46 33 25 21 14 16 18 18 16 18 20 16 15 14 15 14 13 16 18 13 13 14 14 13 12 14 15 15 13 17 19 14 18 20 25 27 25 44 106 160 182 193 196 199 196 195 197 198 202 203 205 203 206 205 205 202 204 202 204 204 203 198 200 196 190 186 179 177 171 168 166 161 153 149 149 143 140 137 137 134 134 130 125 122 119 116 118 107 101 92 77 60 48 34 25 22 16 12 14 17 14 18 19 19 17 15 14 15 14 17 17 16 11 13 14 12 12 14 14 14 13 18 17 15 19 23 30 24 29 67 139 174 183 194 195 196 193 192 196 198 199 200 199 202 201 203 204 203 205 203 203 202 200 197 198 194 189 183 179 175 172 168 162 163 154 150 146 145 145 141 138 136 131 131 126 124 121 120 115 111 103 95 88 58 49 38 27 22 15 12 13 15 14 15 17 18 18 18 13 15 14 16 16 17 16 12 15 12 14 13 13 14 14 16 17 17 20 27 28 24 41 104 165 185 189 193 196 194 193 195 196 195 196 197 198 199 199 200 202 204 204 202 201 202 201 197 194 189 185 181 176 175 169 168 165 160 158 151 146 145 145 142 139 137 133 131 130 127 122 120 119 109 105 102 87 68 55 42 31 25 18 11 11 13 11 13 16 17 16 17 14 15 13 13 14 13 17 14 12 14 11 14 14 13 17 16 18 19 19 30 24 30 63 138 177 187 187 191 192 196 193 194 195 194 196 197 197 200 197 196 198 200 200 199 197 198 196 194 191 189 186 180 176 173 168 166 163 160 157 150 145 144 144 142 138 136 132 130 130 126 122 120 116 109 107 101 89 72 56 46 37 28 21 13 9 9 8 10 13 15 15 14 15 14 14 15 16 13 15 17 16 18 17 16 15 14 19 18 20 20 22 30 22 29 90 166 184 190 189 192 193 195 194 194 193 191 194 195 195 197 197 197 199 199 199 200 198 195 195 193 189 186 182 179 174 171 169 163 159 158 154 148 146 144 143 139 134 133 130 128 127 126 125 122 118 115 110 105 92 81 62 53 40 30 28 21 13 11 10 10 11 12 12 14 14 17 18 16 16 13 15 16 18 20 18 17 15 15 18 18 21 20 23 28 18 48 132 177 186 188 189 190 192 191 193 192 193 192 193 193 192 194 195 194 198 195 196 195 195 193 189 188 186 185 180 178 175 173 167 161 160 157 151 147 145 143 139 138 135 131 130 128 127 128 128 122 115 111 108 107 97 87 74 58 48 40 34 28 19 13 13 14 13 10 11 11 13 17 18 20 15 17 19 18 18 18 16 16 16 15 19 19 23 21 25 29 24 66 156 184 187 189 188 188 189 191 192 190 192 192 193 193 192 193 194 194 195 195 197 197 198 197 195 192 187 185 183 181 179 169 165 160 161 157 152 149 146 144 142 137 137 134 130 127 128 128 125 120 117 111 107 107 98 93 89 69 52 40 36 31 23 17 15 14 15 11 9 8 10 13 18 21 20 19 17 15 14 15 16 15 14 16 22 19 20 19 32 27 25 95 169 183 187 190 189 188 191 190 191 190 191 190 194 193 192 194 197 196 198 197 197 196 198 196 194 191 189 184 183 181 174 169 164 160 161 157 151 151 149 147 143 140 137 135 134 133 131 130 126 123 118 118 107 102 98 93 93 87 72 54 42 34 32 23 18 16 15 14 16 18 19 18 19 17 20 21 21 17 15 11 14 15 12 12 18 16 19 21 37 21 36 126 176 185 188 192 191 190 192 190 191 192 192 190 193 192 191 194 195 194 194 195 193 195 196 194 193 190 188 185 184 180 174 170 166 163 161 157 151 152 150 147 144 141 138 137 139 139 134 129 126 123 123 121 114 109 97 93 92 87 83 76 58 41 33 30 22 18 15 14 16 20 23 20 21 20 19 17 18 18 19 16 13 13 13 11 18 16 19 22 37 21 51 147 178 184 188 191 192 190 192 191 191 191 192 189 193 190 191 192 190 191 189 189 189 192 191 192 191 189 187 186 185 180 177 173 169 168 163 158 155 154 151 148 144 143 140 140 139 140 133 130 125 123 120 119 116 112 107 102 95 94 83 75 73 61 46 32 24 20 17 16 12 13 14 14 14 18 20 20 21 19 18 18 17 15 10 8 15 18 18 27 42 19 74 162 177 184 186 190 193 192 193 194 194 192 194 191 192 195 194 192 192 191 190 189 189 190 189 190 190 192 190 186 184 181 180 176 172 169 165 162 158 155 151 150 148 145 144 143 139 141 135 134 126 122 122 121 117 111 111 106 101 98 94 79 74 69 63 46 31 25 23 19 13 12 14 11 12 14 14 18 20 18 19 18 17 12 11 8 14 15 12 36 33 24 110 172 177 181 185 189 191 191 193 193 193 193 191 189 189 189 191 193 195 192 190 191 192 190 192 192 193 191 191 187 187 184 181 179 174 172 170 166 156 154 153 153 149 145 146 142 145 142 138 133 129 123 119 119 117 115 112 109 107 101 100 97 89 81 65 60 41 29 25 20 17 10 12 11 12 15 14 17 17 17 13 11 10 11 11 9 18 14 15 40 25 43 148 170 175 181 185 190 191 190 191 192 192 191 188 190 189 190 190 190 192 192 191 189 189 192 191 191 192 191 190 188 185 186 181 178 178 172 168 166 160 158 155 152 152 146 147 144 143 141 139 135 128 123 121 120 117 115 111 108 106 106 107 105 97 93 87 64 65 44 27 23 19 16 13 16 13 13 13 17 14 12 13 10 10 11 8 4 19 12 15 37 19 73 161 166 175 180 183 188 191 191 190 188 187 191 190 192 189 188 189 191 190 189 186 187 189 187 187 187 189 190 191 188 187 185 180 178 176 168 168 165 163 159 157 154 152 148 148 146 145 142 138 133 127 122 120 120 115 116 111 113 107 107 109 108 105 105 99 85 82 67 47 28 25 21 18 15 17 18 15 16 13 11 13 8 6 6 5 5 16 14 17 24 19 111 160 169 170 174 181 183 186 188 189 188 186 188 189 188 186 186 187 188 187 184 183 185 184 185 186 186 187 188 190 187 187 184 181 175 171 170 169 167 163 162 159 158 152 152 151 148 146 143 136 131 127 122 120 117 114 114 114 112 109 106 110 112 110 115 108 99 94 86 72 51 34 27 21 19 24 18 18 14 16 14 13 11 9 9 8 7 18 13 17 21 31 112 144 148 164 170 176 178 179 183 184 186 185 184 185 185 184 184 185 184 185 181 181 181 180 182 179 181 186 184 186 187 183 183 180 177 173 171 166 165 165 163 161 160 153 154 155 150 145 141 136 133 126 119 115 112 112 113 115 114 112 106 111 110 115 114 116 108 103 96 83 76 64 45 25 25 23 18 18 15 14 12 11 9 9 10 9 5 19 16 13 16 38 73 95 105 139 153 158 167 166 162 177 178 179 181 182 184 183 184 182 185 182 183 178 178 178 179 179 178 179 182 181 182 180 176 177 177 172 170 165 165 164 164 161 158 155 154 155 151 149 145 137 134 127 118 113 110 109 115 113 114 112 111 112 115 115 117 118 113 109 105 93 80 80 70 52 30 22 19 16 17 13 13 10 10 11 9 5 6 17 17 15 27 45 55 63 70 84 104 107 125 128 128 152 161 168 174 178 178 181 181 182 182 179 181 175 174 174 173 174 173 171 176 179 177 174 171 166 163 158 158 155 155 151 148 144 143 142 141 141 137 139 141 138 133 130 121 113 111 107 112 115 114 110 108 113 115 117 119 116 112 109 104 97 87 79 77 66 44 27 21 17 15 14 11 10 7 7 6 7 6 21 16 15 35 57 60 59 69 76 75 81 82 82 90 115 136 142 161 175 177 178 179 180 180 178 178 171 169 166 164 161 154 150 153 150 150 148 142 125 122 121 119 110 106 106 105 98 106 107 100 97 91 97 109 121 131 129 121 113 107 110 112 112 114 114 113 115 114 118 117 114 113 110 105 101 91 84 81 73 51 36 21 17 15 12 10 7 8 7 7 8 9 18 21 24 42 68 68 53 63 68 54 57 60 66 78 86 112 124 149 171 173 174 177 179 175 177 176 166 162 158 155 142 133 126 107 100 92 83 90 82 79 80 76 66 70 72 68 72 78 73 65 67 69 75 73 76 91 105 108 110 103 107 112 111 113 116 115 117 119 119 117 114 110 111 107 100 91 89 87 82 61 45 29 18 16 14 10 7 3 7 8 9 11 21 22 28 56 103 101 77 66 57 48 48 48 51 64 72 89 112 127 158 168 168 173 173 172 174 170 164 162 151 145 132 109 91 74 57 57 52 58 60 62 62 61 53 59 56 54 62 56 57 64 72 72 76 74 67 67 64 62 71 79 90 108 107 115 120 117 114 115 116 118 112 109 109 106 100 95 92 87 85 63 45 30 22 18 14 14 10 8 9 11 13 15 21 23 20 63 118 124 120 114 110 100 71 58 51 56 66 75 96 112 144 159 168 171 171 171 171 169 161 153 148 138 115 90 81 67 59 50 45 51 47 46 46 49 46 47 48 51 51 59 61 63 71 73 71 70 66 66 59 55 55 62 65 72 92 109 119 118 116 120 119 115 111 112 109 106 101 95 93 90 84 67 47 33 23 20 15 13 13 14 15 15 20 18 22 18 15 54 119 115 114 107 115 110 112 101 88 77 72 78 94 103 136 156 162 168 167 169 168 165 155 152 146 133 106 89 81 69 63 53 48 48 45 40 50 48 48 43 46 53 59 63 66 69 70 73 69 67 66 68 63 63 62 61 61 64 73 90 107 117 119 125 121 119 112 108 109 109 101 94 91 89 85 70 52 40 26 21 18 18 17 19 18 20 21 25 25 19 14 30 110 106 81 62 85 96 98 88 89 97 94 84 86 97 128 143 156 164 164 167 164 161 153 148 137 127 111 101 90 77 70 62 57 57 49 53 50 57 66 66 77 87 89 101 110 110 111 106 97 86 82 79 74 70 63 65 64 63 73 77 90 108 116 125 121 115 113 109 109 110 104 98 93 91 84 70 54 41 32 22 20 21 23 22 22 23 25 31 27 16 14 12 78 84 70 40 30 58 88 120 123 106 80 83 98 100 100 118 146 157 159 167 166 160 154 147 134 126 114 105 97 83 69 64 60 60 66 80 105 139 143 125 116 113 124 133 132 132 132 129 123 120 117 106 99 92 88 77 74 79 78 85 94 104 118 121 121 118 112 110 113 112 108 105 100 89 83 69 52 44 33 27 23 25 24 26 28 28 30 31 28 19 18 11 74 62 29 41 23 16 26 27 41 45 64 113 107 107 114 116 132 155 162 169 164 163 154 141 129 116 109 99 87 72 63 63 70 70 55 57 62 73 90 82 77 84 94 114 109 107 112 124 125 124 123 117 109 107 100 96 97 98 97 96 100 111 118 122 118 115 113 111 110 111 109 107 102 93 88 70 50 42 33 33 28 26 26 30 29 29 36 36 28 22 20 24 70 74 33 18 9 14 17 18 19 31 29 35 53 107 121 130 125 147 169 174 172 165 154 139 124 109 98 85 74 63 62 82 81 45 32 24 17 14 19 12 14 19 21 37 47 53 73 98 117 124 121 116 109 105 103 102 100 105 112 113 117 119 121 119 118 117 115 113 112 109 110 107 102 96 87 76 58 44 38 34 36 40 37 36 35 35 35 34 28 22 21 15 43 39 29 16 11 17 31 25 52 168 33 60 64 58 86 124 129 141 167 174 174 169 158 144 125 106 94 74 66 63 80 90 75 55 41 21 32 27 34 149 35 14 13 15 15 16 29 53 88 114 120 125 118 111 105 109 113 121 123 123 125 125 124 119 118 117 114 113 113 111 113 107 104 96 85 76 63 48 44 42 43 42 37 38 34 36 36 34 31 22 14 6 92 54 39 11 13 23 49 44 9 14 61 103 167 135 95 97 141 146 164 179 183 176 161 149 132 104 82 69 71 75 101 96 83 78 33 48 51 44 26 145 44 35 35 44 29 17 17 24 41 63 89 116 116 117 120 116 121 129 130 133 128 127 126 122 122 119 114 114 116 112 110 104 100 98 89 76 70 55 48 44 46 48 43 40 33 34 34 34 32 21 15 3 142 130 85 44 43 76 74 68 21 34 80 115 182 181 180 114 109 158 164 184 187 181 168 154 130 111 77 79 77 84 106 119 120 80 38 70 84 79 26 7 31 94 140 162 172 76 19 20 13 23 43 81 105 111 108 110 134 140 132 132 130 128 126 124 123 120 119 119 116 114 112 106 101 95 87 79 70 61 55 47 46 48 45 36 31 32 34 40 25 19 19 7 149 157 139 95 76 107 104 85 64 98 100 122 154 136 125 112 135 184 171 185 194 188 174 157 133 109 87 99 91 95 126 162 111 63 83 110 121 77 67 38 74 80 116 142 141 93 61 33 31 32 42 72 92 105 108 112 127 133 130 129 132 132 132 132 128 127 124 118 115 115 112 107 100 95 85 79 70 62 59 55 51 47 45 37 32 29 36 41 29 20 17 19 165 163 157 125 92 107 132 118 128 152 139 128 136 135 134 130 132 148 174 187 195 191 174 158 137 110 101 122 110 124 153 144 113 108 117 109 118 94 80 94 119 111 129 120 113 96 87 78 63 61 65 72 89 105 115 121 131 135 139 143 145 144 142 139 134 128 125 121 116 114 110 106 100 94 85 77 69 62 58 55 51 47 47 41 34 33 36 42 28 25 19 31 167 174 173 148 115 117 126 115 126 142 147 136 146 147 156 168 176 178 179 186 197 190 177 159 140 121 114 138 135 144 167 175 175 156 140 132 127 115 121 128 122 139 136 127 116 111 101 94 85 100 113 108 113 120 134 143 153 161 157 156 153 147 145 140 135 128 125 121 117 114 107 104 98 91 83 76 69 61 57 55 55 50 48 46 39 37 36 40 27 27 17 45 171 175 172 169 142 121 131 129 130 140 146 148 142 152 158 171 189 190 181 192 198 192 179 159 140 124 123 146 145 146 174 183 171 156 150 147 149 138 138 129 124 131 130 129 124 112 105 111 119 132 139 140 147 151 154 159 160 163 163 156 154 150 145 139 135 130 125 121 116 112 106 102 95 87 83 77 69 61 58 56 55 50 51 50 45 41 41 38 23 26 14 62 170 176 175 173 163 142 127 135 129 130 139 142 145 155 164 175 185 182 182 194 198 194 180 160 142 128 129 151 157 144 150 173 164 158 147 147 145 142 133 132 130 124 128 127 127 124 129 143 153 153 156 158 161 165 166 171 167 163 159 160 156 149 144 138 134 129 125 118 113 108 103 97 92 87 83 75 69 61 58 58 57 54 55 52 48 39 30 23 27 28 16 69 169 176 178 180 174 161 149 137 136 138 143 155 159 169 172 176 184 182 187 195 198 191 175 160 146 135 137 148 160 148 147 161 171 171 164 149 143 144 137 135 134 133 131 135 138 146 146 150 156 162 170 173 170 170 167 167 164 163 159 159 154 150 143 137 130 126 120 116 111 106 99 94 90 88 82 75 67 62 58 58 57 56 55 55 50 33 15 18 28 28 21 88 170 173 178 178 175 167 164 158 157 158 161 169 170 171 167 187 184 179 188 197 199 185 172 159 146 137 140 151 160 159 151 157 167 175 173 167 166 157 146 148 146 146 150 151 153 159 161 168 179 183 182 178 176 172 169 166 162 161 158 154 151 146 142 136 131 125 119 115 110 104 98 94 88 84 80 77 67 63 59 60 58 53 55 51 39 21 18 32 28 32 23 93 167 170 174 176 176 176 175 173 170 172 176 175 175 174 186 188 179 179 193 196 195 181 169 160 148 140 145 155 164 162 162 162 162 171 177 178 180 179 173 167 162 157 159 155 156 160 164 171 173 179 182 178 175 174 170 167 163 159 152 151 146 140 140 134 130 125 119 113 107 103 96 92 87 82 80 74 69 62 63 63 60 56 56 46 19 12 24 51 32 29 30 93 165 165 175 177 182 186 186 183 179 177 181 181 179 190 187 183 177 180 194 198 197 180 166 159 149 145 148 153 160 167 165 166 164 167 174 179 186 190 191 192 190 188 191 189 191 191 192 194 188 186 183 176 172 171 165 162 158 155 148 147 141 139 137 133 126 123 118 112 104 99 94 90 86 82 76 71 70 64 65 63 60 55 52 38 17 29 47 75 36 29 28 86 163 169 175 177 181 185 185 186 188 186 190 186 189 195 187 176 174 184 196 201 196 180 163 156 150 147 151 156 159 165 172 172 169 171 175 178 178 189 191 191 195 195 192 193 192 191 192 197 193 192 186 179 175 165 159 160 159 156 147 143 139 138 133 128 123 120 114 112 103 96 89 88 85 80 78 71 71 66 65 64 55 52 50 41 38 48 63 82 47 31 26 88 163 167 174 177 182 188 189 191 190 190 194 193 193 189 182 175 176 184 195 198 193 179 162 153 151 149 151 157 164 165 170 174 172 175 180 181 182 187 189 191 191 192 192 193 195 197 197 198 195 190 184 171 171 162 158 155 153 150 144 139 136 136 129 129 126 117 114 110 101 96 91 85 83 81 76 75 71 71 64 63 56 50 48 49 54 59 73 88 51 35 22 93 159 168 172 178 182 186 189 190 193 193 195 196 190 185 179 175 176 191 196 196 190 176 161 154 147 148 154 158 163 164 169 177 179 180 185 188 189 189 190 191 191 190 191 191 196 196 194 197 192 183 177 166 164 159 155 154 151 147 139 139 134 129 129 126 125 119 115 105 100 95 90 83 82 78 75 74 73 72 67 61 51 47 48 50 58 66 79 96 41 40 20 84 160 164 170 177 182 188 189 190 191 194 195 192 189 184 178 174 179 190 195 198 190 172 160 152 147 148 155 158 161 167 172 178 181 185 187 189 195 198 197 196 195 191 192 192 196 195 197 195 189 180 172 165 162 157 154 151 146 143 137 136 133 129 129 125 123 120 112 102 97 93 88 83 80 77 75 77 75 72 64 59 49 50 53 53 58 69 84 99 33 41 23 76 160 165 172 178 183 188 189 191 192 193 193 189 188 183 177 176 181 189 199 200 189 171 159 154 148 146 151 155 161 168 171 175 180 189 192 196 199 200 202 203 200 199 198 198 198 198 196 191 182 176 168 161 157 156 150 147 143 141 138 132 132 130 127 123 122 116 109 100 96 91 88 84 82 80 77 75 75 71 64 54 46 50 54 52 58 68 78 80 32 39 21 76 157 167 171 179 185 188 189 192 192 192 189 189 187 181 174 175 184 193 203 200 186 169 158 154 146 143 145 151 158 166 169 175 181 190 195 199 201 203 204 203 203 204 205 202 200 197 193 189 178 171 166 160 158 154 150 144 141 140 136 133 131 128 126 123 120 113 107 102 95 91 87 83 82 79 80 77 79 70 62 53 46 52 54 48 37 28 18 5 26 36 23 71 160 168 172 179 184 186 189 190 188 190 188 192 188 175 171 178 187 196 206 198 188 172 159 154 141 140 140 144 150 156 164 172 184 192 196 197 200 202 205 206 203 204 203 202 198 200 194 185 175 167 164 159 158 152 149 146 139 139 136 133 130 126 124 118 117 113 106 100 95 91 87 84 81 81 78 78 78 69 61 42 39 50 58 28 8 4 6 2 25 32 27 58 151 165 174 178 182 188 189 188 186 187 188 188 182 166 167 180 188 197 204 197 186 172 159 146 133 132 135 139 140 145 156 164 178 183 189 196 200 202 203 203 203 202 200 198 193 193 191 181 173 167 161 156 153 151 145 144 140 138 134 131 126 122 121 116 116 111 103 98 95 90 86 84 81 80 79 79 78 71 59 46 25 42 15 3 4 4 4 5 40 29 33 35 147 165 173 176 183 185 188 187 185 186 184 182 173 161 167 182 188 198 200 196 186 173 157 143 128 124 136 140 141 143 142 149 162 176 187 190 196 199 199 199 200 200 197 194 192 189 185 180 172 167 161 157 152 147 144 140 138 135 129 126 124 121 120 116 115 109 103 97 94 90 86 85 83 82 80 76 75 68 55 19 39 13 4 4 4 4 6 3 34 28 34 36 134 162 171 176 181 183 184 184 183 183 180 174 158 151 174 182 189 197 202 198 183 172 155 140 127 128 143 149 147 144 135 135 151 163 174 186 189 191 192 194 196 194 193 193 190 185 181 175 169 163 160 156 153 147 145 140 136 132 127 123 123 119 118 116 114 109 105 98 93 91 87 85 84 81 81 77 74 65 48 59 18 4 4 6 4 2 5 8 26 26 28 46 112 159 169 173 178 180 183 181 182 181 176 163 148 159 179 183 192 204 207 201 186 170 152 138 131 134 146 153 149 142 129 123 134 154 165 175 182 187 189 190 190 188 190 189 184 180 177 175 169 164 159 152 147 146 142 139 133 130 125 122 120 118 116 114 112 106 103 101 94 92 89 86 83 82 80 75 74 59 47 50 2 3 5 4 6 6 10 15 25 22 26 42 80 166 167 173 177 180 179 179 177 175 169 158 148 170 180 187 196 211 210 199 185 164 150 137 133 141 149 152 146 141 129 113 110 150 162 169 174 181 185 185 185 186 186 183 180 177 174 171 167 165 154 150 150 144 141 135 129 125 121 119 117 116 113 114 112 107 103 101 96 93 87 86 84 81 80 76 68 56 69 5 6 3 5 4 5 16 25 17 19 22 17 34 46 159 164 172 174 179 176 177 175 168 161 152 163 172 185 187 199 203 204 190 174 161 147 136 137 143 146 148 141 138 130 110 84 140 173 168 164 170 178 180 179 182 180 177 175 170 169 169 166 164 156 152 148 142 135 130 129 119 119 115 116 113 111 111 110 108 103 101 96 93 88 86 86 84 78 74 71 60 72 8 5 6 4 4 16 9 2 4 21 20 20 22 17 138 162 168 171 174 177 175 172 170 159 159 167 170 180 187 190 195 188 177 167 153 140 136 138 142 140 140 136 130 126 103 68 134 187 181 171 165 168 172 173 175 175 173 174 170 169 165 160 157 152 148 143 138 132 122 122 117 115 111 111 112 110 107 107 105 105 101 96 92 90 87 84 82 80 75 65 99 31 3 5 4 6 18 7 4 1 1 12 16 15 22 14 94 155 163 168 173 172 171 167 166 161 165 180 169 169 177 183 182 169 160 151 137 124 122 122 123 117 117 114 112 108 75 65 155 189 183 176 166 163 164 167 171 171 170 170 166 165 162 159 155 150 145 141 132 130 121 117 118 112 110 108 109 108 107 107 106 104 99 98 93 89 88 86 81 77 74 59 125 3 7 6 5 5 25 4 4 0 2 11 14 14 14 15 44 156 156 164 167 170 169 166 163 163 177 184 186 154 166 167 164 158 139 123 112 101 98 97 87 74 78 81 80 59 55 116 177 187 180 177 171 163 160 162 166 166 166 166 163 160 156 152 151 142 140 138 131 127 123 119 115 109 108 108 109 108 109 107 107 103 100 98 94 91 86 83 82 76 72 58 84 1 5 6 4 11 20 4 2 1 1 10 12 14 13 12 19 119 158 155 165 164 164 163 163 168 178 183 187 173 144 147 147 126 110 98 92 90 71 49 41 37 40 41 50 75 122 172 184 186 181 179 174 168 158 159 162 161 162 160 160 155 151 146 143 137 136 129 125 121 119 115 111 108 108 108 109 109 109 109 108 104 100 97 92 89 87 83 79 76 69 47 67 2 5 5 5 7 17 3 0 1 0 12 11 13 13 11 10 47 147 155 156 160 161 158 160 169 179 184 186 185 164 130 125 107 99 92 91 69 49 43 43 44 50 73 110 158 179 189 191 186 182 178 174 168 158 156 156 158 155 155 154 149 144 140 136 131 129 124 120 115 112 110 107 106 105 108 108 108 107 106 105 101 99 97 92 90 87 84 76 74 69 39 68 1 5 3 5 6 18 1 3 0 1 12 10 11 12 8 10 9 117 150 151 154 155 155 158 169 179 182 185 181 179 173 133 104 94 94 76 56 47 51 64 86 113 146 165 186 191 189 183 183 182 177 171 167 163 156 149 150 150 153 147 144 140 135 131 123 120 116 113 109 106 107 103 103 105 109 109 109 109 107 105 101 97 96 91 89 86 83 81 75 65 31 53 4 4 4 2 5 17 9 1 3 2 11 10 9 13 10 10 10 49 142 149 148 148 154 161 172 174 180 180 179 180 179 176 161 91 55 53 51 66 96 119 139 156 173 185 186 183 184 181 178 177 176 171 167 163 159 150 144 144 143 143 141 138 134 128 121 115 109 105 102 98 103 102 105 105 108 108 109 105 105 101 98 95 94 89 88 86 84 77 74 54 27 35 22 3 5 3 5 8 15 14 4 3 7 10 7 10 9 9 14 15 123 137 143 148 156 163 168 174 175 175 178 179 178 176 178 154 95 67 79 115 141 154 164 177 180 181 181 180 180 181 177 175 173 167 161 158 158 156 147 144 137 135 139 136 130 125 118 112 106 101 99 98 101 102 102 106 106 109 109 108 103 101 98 95 92 91 87 85 82 76 71 44 22 19 40 3 5 2 2 4 7 14 21 27 9 12 7 11 11 8 12 11 68 140 140 144 154 159 163 168 172 178 176 175 176 174 174 173 162 150 144 155 171 176 175 179 179 179 179 177 177 175 172 166 166 158 153 149 149 149 147 139 139 133 133 131 127 125 121 115 110 107 103 101 100 103 108 108 108 108 108 106 105 100 98 96 94 90 85 81 79 73 64 32 16 13 32 7 4 7 3 4 5 5 8 13 8 11 11 11 11 11 13 14 37 151 139 140 150 157 155 162 169 173 172 174 176 172 175 173 172 169 173 174 177 178 177 177 174 175 174 177 173 166 162 159 155 148 148 146 139 138 141 141 138 132 132 131 129 125 125 119 111 112 111 110 111 112 112 112 109 108 109 106 102 97 95 93 91 89 88 83 79 72 54 25 15 12 15 46 6 1 6 5 5 5 7 6 8 9 10 10 9 10 10 15 11 140 146 141 147 152 148 151 161 170 170 169 175 177 179 172 172 174 178 179 181 181 178 179 172 167 168 170 165 162 158 156 146 142 142 138 131 129 129 134 137 137 135 133 136 129 127 121 115 118 118 120 120 119 117 115 112 111 110 106 100 96 93 91 92 89 87 82 77 70 40 19 11 14 9 12 32 7 4 6 5 5 6 2 7 9 13 11 11 11 18 9 8 80 151 147 151 151 142 137 147 159 166 168 173 174 181 180 179 176 179 183 189 182 175 170 165 168 166 162 157 153 150 145 140 134 131 125 121 115 119 121 132 144 146 142 139 134 131 129 127 122 121 124 123 122 122 116 113 111 108 104 98 93 93 92 90 91 86 82 73 62 28 14 14 11 6 7 14 35 13 5 6 3 4 6 9 9 12 14 15 16 16 14 10 31 149 151 153 151 136 128 135 151 147 136 127 131 146 169 185 182 183 179 162 132 124 123 125 131 133 132 137 139 139 138 136 129 122 114 107 101 107 114 121 143 147 146 148 139 138 132 130 127 122 125 123 123 121 119 115 112 106 99 94 93 91 90 89 87 85 81 70 51 18 13 12 9 4 6 4 9 27 28 17 8 5 13 8 10 10 14 17 18 21 20 17 9 114 155 157 152 145 129 121 113 103 90 93 90 91 106 123 140 129 106 90 85 85 86 85 84 83 84 81 85 82 84 90 90 89 84 76 75 74 78 106 142 148 147 151 144 138 132 133 128 121 122 120 121 120 117 112 108 104 99 95 93 91 90 90 87 85 78 66 32 15 11 11 8 8 6 4 2 5 8 13 9 16 23 12 11 11 14 17 18 22 19 19 5 55 155 157 155 151 134 98 77 80 92 93 97 93 91 94 91 85 88 90 88 87 88 90 86 75 70 70 62 65 55 50 45 43 36 25 24 29 52 123 156 148 151 152 146 138 134 132 128 121 119 120 118 116 113 109 104 101 96 94 93 92 91 90 84 83 76 54 21 13 13 11 9 6 5 3 2 1 9 10 13 17 12 17 14 14 16 14 15 18 18 20 11 11 128 156 157 155 146 140 141 120 81 93 98 96 85 87 86 85 82 85 88 88 78 80 80 72 63 57 50 50 41 38 42 46 47 49 70 109 126 156 165 154 155 154 143 134 135 129 127 119 116 116 114 112 109 105 101 99 96 92 93 92 91 86 86 83 68 36 19 16 11 10 7 6 6 2 3 4 8 14 17 14 20 22 16 17 18 14 15 18 18 21 14 18 67 148 155 160 154 155 161 166 95 68 66 65 60 73 77 72 59 72 63 60 59 60 55 48 51 51 72 71 70 72 72 74 80 113 138 145 156 165 168 162 158 155 141 131 130 125 124 115 111 111 108 108 107 103 98 98 95 94 92 93 91 86 85 80 56 23 19 17 8 10 9 4 5 4 8 9 11 12 13 23 29 19 22 23 22 20 20 20 24 28 26 28 30 125 152 159 157 162 172 169 117 81 82 86 79 86 66 57 49 60 60 70 91 100 104 105 113 91 89 79 76 77 96 92 123 137 144 152 159 168 167 166 160 151 142 128 124 125 118 112 108 108 105 104 103 102 97 97 95 95 95 92 91 87 85 72 35 20 19 14 10 9 9 8 7 8 9 10 11 14 26 30 42 25 25 23 23 25 29 30 30 30 27 24 12 57 146 153 156 163 173 170 139 93 89 95 106 118 121 122 122 114 120 124 124 119 113 108 94 82 74 72 85 98 112 126 139 137 143 156 165 169 168 165 156 148 134 123 118 114 113 106 103 103 100 100 98 96 97 96 94 94 95 92 90 87 84 52 30 22 16 12 12 13 10 7 7 9 10 11 15 23 25 36 39 23 24 24 27 28 27 26 27 29 22 17 13 21 116 147 151 160 171 171 158 121 102 87 83 93 97 103 106 95 107 106 108 101 90 83 76 80 88 104 114 126 136 132 134 137 148 160 160 164 163 157 148 143 134 118 107 107 106 103 99 100 99 96 96 96 95 94 95 95 94 93 90 85 65 48 30 23 15 13 11 12 10 8 7 9 13 17 22 24 35 39 20 18 19 19 20 21 19 17 19 20 14 12 12 15 45 137 148 157 164 170 164 146 119 107 98 92 91 90 89 92 97 96 94 85 84 86 95 101 108 120 137 135 132 126 135 143 153 156 160 158 158 150 143 146 131 117 106 101 103 101 97 98 98 98 96 97 96 94 96 95 93 94 87 75 54 55 43 25 21 18 14 12 10 9 9 10 16 22 20 31 35 24 26 18 18 17 15 16 15 16 17 14 11 10 9 13 10 73 140 150 161 167 166 157 147 127 112 105 100 96 90 91 91 91 92 93 95 96 99 111 130 132 133 126 122 126 135 144 153 156 154 153 149 142 139 141 127 108 98 98 96 96 96 96 96 95 96 94 96 96 96 94 92 92 81 63 61 67 33 23 25 20 18 16 12 12 15 18 20 25 29 30 28 31 27 19 19 18 17 18 18 17 17 15 12 12 14 14 20 22 104 146 153 160 164 155 150 149 132 112 101 93 87 85 84 81 80 81 91 101 118 133 134 129 122 116 120 125 139 150 155 154 150 151 142 137 137 134 124 105 97 95 95 97 96 95 96 96 97 96 96 98 97 94 92 86 75 69 73 63 27 32 30 21 20 22 19 16 18 24 28 27 30 29 29 30 30 22 22 20 20 19 20 17 18 15 14 14 14 12 16 18 32 125 152 159 164 162 153 145 143 143 127 112 102 106 103 97 96 105 114 122 126 127 122 119 114 117 127 137 146 153 155 152 148 144 138 130 133 135 115 101 94 92 94 95 97 97 96 97 98 96 96 98 97 96 89 81 80 83 82 53 44 43 33 28 25 23 19 21 31 27 24 29 25 27 29 34 38 22 23 23 24 21 19 21 20 16 14 15 13 16 14 16 18 55 142 154 157 164 160 152 142 135 129 125 124 129 127 124 124 126 128 124 121 118 116 113 123 130 138 145 151 152 151 148 145 137 129 127 132 123 106 96 94 92 92 95 97 96 96 97 98 97 96 96 94 91 85 86 86 84 77 63 60 48 33 31 27 23 24 25 23 27 28 23 26 27 30 33 36 25 26 25 25 25 24 22 21 19 14 13 16 13 12 21 21 21 74 154 153 160 163 158 149 143 133 126 129 132 125 122 124 124 124 124 122 122 123 130 135 143 147 152 152 152 146 145 133 129 126 128 122 110 103 96 93 93 93 94 94 95 94 94 94 95 95 95 92 87 88 91 90 88 81 79 70 57 53 40 27 22 24 24 26 26 23 26 28 29 33 31 32 27 25 27 26 25 23 22 22 20 18 16 14 14 14 17 21 24 23 107 151 157 163 161 159 153 149 143 140 135 132 124 124 130 134 134 135 135 140 142 145 154 153 153 154 148 147 139 131 127 130 124 112 104 95 93 91 90 93 92 93 94 95 96 95 95 96 95 90 91 94 90 92 88 82 80 84 74 70 51 45 31 26 24 30 25 34 31 29 32 32 27 29 31 30 29 28 27 25 21 21 21 18 17 16 14 16 16 19 22 25 38 148 154 156 168 167 166 164 162 160 157 155 150 149 149 153 154 155 159 159 157 160 162 158 157 151 146 139 134 130 127 122 115 103 97 90 89 90 88 91 94 94 95 96 96 95 94 94 93 92 95 94 93 92 90 85 85 86 80 74 78 58 44 35 35 38 39 41 34 36 38 30 35 26 33 31 31 30 27 26 25 23 21 18 16 16 15 15 16 18 20 25 29 91 154 159 162 171 175 175 177 177 177 179 179 181 181 183 182 175 173 170 167 167 163 159 157 150 141 134 133 131 124 116 106 94 91 91 91 91 91 89 91 94 96 96 95 96 95 95 96 96 98 96 97 89 90 89 91 87 87 78 62 52 44 52 61 59 53 44 44 48 38 32 38 21 31 32 32 31 28 26 23 22 22 17 16 14 13 13 15 18 21 24 27 36 130 153 165 170 173 177 180 181 184 188 188 187 187 185 183 180 177 174 170 168 165 158 153 148 137 132 134 126 116 105 98 92 90 89 89 91 92 90 91 95 96 96 96 96 97 95 97 96 98 95 97 95 96 93 91 89 82 75 77 58 72 80 70 61 58 59 69 69 52 47 36 30 31 30 32 31 26 28 24 21 20 16 15 15 13 12 16 19 22 25 26 29 68 159 160 170 172 174 178 181 183 183 183 183 183 184 183 182 180 177 169 164 161 155 148 141 133 131 124 115 108 99 97 91 91 91 89 91 90 92 93 95 94 93 95 95 95 96 98 97 96 97 95 96 92 95 92 92 88 84 76 76 83 75 76 68 70 76 84 77 66 67 61 61 30 32 31 29 27 26 24 20 18 13 12 10 13 12 14 18 20 24 28 29 34 114 161 167 170 172 176 180 180 180 180 181 179 179 180 179 176 173 167 163 158 150 144 134 129 122 117 108 102 96 94 90 92 90 88 90 91 91 94 94 95 95 93 98 98 98 96 94 94 97 97 92 94 93 89 91 88 79 84 82 82 75 70 78 77 82 81 78 75 76 73 75 31 29 27 26 25 22 20 19 16 13 12 11 10 9 14 15 21 22 27 30 30 57 149 163 166 169 174 178 176 175 178 179 179 177 179 174 169 162 157 154 152 147 143 130 123 115 110 102 96 93 93 90 92 91 89 93 93 93 94 95 94 95 97 99 97 96 93 96 95 98 96 93 93 91 89 89 87 86 88 85 79 77 83 79 82 80 84 82 82 80 80 79 28 26 25 25 22 21 20 18 15 12 8 9 11 11 14 17 19 24 27 27 30 32 110 155 161 163 169 172 171 172 171 171 175 174 171 165 159 153 153 150 146 140 132 121 113 106 102 97 95 96 95 90 92 92 92 94 94 94 94 96 94 96 98 96 94 93 94 94 96 96 96 94 94 91 89 88 87 88 87 87 83 85 87 85 85 79 83 84 81 83 84 84 28 27 24 25 21 19 15 14 12 11 10 10 10 11 12 15 17 21 24 24 29 29 47 145 154 157 164 164 165 164 161 161 166 165 161 158 152 149 149 149 144 133 121 111 101 98 99 98 96 93 94 90 94 93 93 93 93 97 97 98 95 98 97 96 95 94 95 93 94 96 96 95 93 93 92 90 88 86 83 86 86 85 87 85 84 83 85 83 86 85 84 87 28 26 23 20 19 18 15 13 12 9 6 8 11 10 10 14 17 19 23 26 28 27 29 81 147 152 157 159 158 159 158 158 161 160 153 155 147 144 145 141 134 123 110 103 99 96 98 97 98 92 92 93 94 95 94 93 92 96 96 96 98 98 94 95 92 93 93 94 95 96 93 92 91 93 92 92 89 83 83 86 85 81 90 84 83 82 84 83 79 84 86 84 25 24 22 21 18 16 16 14 11 9 10 8 8 7 12 15 15 18 22 23 28 26 29 30 102 140 145 148 148 151 148 150 149 144 144 139 138 139 132 128 120 111 103 103 101 103 100 96 92 94 95 95 96 98 94 97 97 94 97 98 97 97 97 95 94 92 94 92 94 94 92 92 93 92 93 89 85 82 82 83 85 86 85 85 85 84 83 83 80 82 85 85 24 22 22 21 18 16 14 12 10 8 10 8 9 9 9 11 15 15 19 22 25 27 28 30 43 114 132 133 135 136 136 138 136 131 132 131 132 129 119 113 105 102 100 104 101 98 98 97 95 94 95 94 94 97 96 98 97 98 97 97 98 96 94 94 93 96 95 92 92 92 92 91 92 92 91 87 86 86 85 83 86 85 86 85 86 84 81 82 84 86 89 91 24 21 20 18 17 15 12 10 10 8 10 8 8 8 8 12 15 15 20 21 23 27 32 40 109 160 147 126 119 118 119 121 122 118 123 122 118 113 102 103 101 104 100 97 95 92 93 94 93 92 93 92 91 92 93 94 93 95 98 98 96 95 93 94 94 96 94 92 91 92 93 93 92 91 90 87 87 89 85 84 86 86 85 87 86 83 82 84 83 89 93 90 23 21 19 16 15 15 12 11 11 9 8 9 8 9 8 12 10 15 17 24 25 22 73 150 167 167 166 159 147 124 111 102 100 103 109 102 104 100 103 106 102 83 67 62 62 64 66 66 66 70 70 70 71 73 75 79 84 89 92 93 92 90 91 93 94 93 93 92 90 91 91 93 93 87 85 89 89 89 87 88 89 88 86 89 85 83 84 84 88 91 91 93 22 21 18 16 15 13 13 12 9 9 8 10 7 8 8 11 12 19 18 23 41 105 168 172 172 167 174 170 167 164 155 146 141 136 127 130 133 135 138 130 107 79 66 60 60 59 57 61 63 64 62 63 66 66 70 71 73 77 82 85 87 89 89 89 92 90 91 91 91 93 94 92 91 87 86 90 89 86 88 88 89 86 87 86 85 83 83 87 87 90 93 94