P2
# Generated by OpenCV 4.2.0
92 112
255
50 109 51 46 65 42 53 74 33 47 39 77 71 45 45 35 51 91 84 46 31 44 24 24 15 24 24 25 24 23 23 21 20 19 20 22 23 22 26 29 33 38 45 47 52 60 71 87 98 109 114 104 115 121 122 126 102 84 93 91 84 75 62 58 59 54 55 53 54 42 41 40 36 31 28 27 24 19 21 18 15 12 13 12 10 12 15 18 5 226 252 255
70 71 46 61 44 45 52 45 37 37 49 72 50 41 29 49 70 77 56 45 46 18 21 20 20 25 26 25 22 22 21 23 21 21 21 23 28 30 37 38 49 58 62 74 89 85 105 119 134 157 194 190 204 192 185 159 148 125 100 83 72 74 76 71 69 67 64 57 58 57 49 40 35 34 28 29 25 22 18 19 16 15 12 13 11 11 12 16 20 64 255 255
96 54 51 54 37 44 56 36 41 41 79 44 46 32 30 65 59 35 35 45 18 20 16 19 23 27 29 25 23 22 24 26 25 23 26 25 37 41 57 72 80 94 95 101 125 131 156 193 195 207 216 215 223 222 220 210 175 142 120 100 98 89 82 78 77 82 76 70 68 67 60 49 39 40 32 31 28 23 20 20 20 15 16 15 11 13 12 15 11 7 210 253 62 43 66 26 44 57 38 36 29 65 32 48 26 26 51 41 21 39 31 21 23 22 21 25 29 30 28 25 25 26 26 24 23 27 28 41 57 66 86 104 115 125 173 171 171 184 195 217 216 218 224 220 228 225 226 222 207 180 153 138 116 106 102 99 96 96 91 91 90 90 83 71 58 51 39 33 30 27 25 21 17 18 16 16 11 13 13 16 8 16 4 253 49 44 40 41 45 42 37 34 46 34 42 25 30 42 40 20 43 35 19 20 19 24 29 34 37 34 30 25 21 23 24 26 36 43 51 71 95 120 138 162 175 181 191 212 215 219 222 227 225 225 224 227 230 228 228 226 223 215 195 165 154 144 140 139 135 122 126 121 116 112 104 93 76 68 65 49 35 30 26 24 21 20 18 16 16 17 16 16 14 15 14 180 25 56 36 40 55 29 32 26 47 27 26 26 34 35 26 41 34 25 23 17 17 25 35 43 32 28 25 25 25 31 36 41 54 79 114 138 159 183 183 192 200 208 211 224 223 225 225 228 226 228 228 226 230 229 229 228 226 221 219 201 186 179 177 170 173 174 161 157 155 145 144 144 128 93 75 68 55 42 36 26 22 22 19 18 18 16 16 16 15 15 11 23 49 40 34 43 32 31 26 45 28 30 27 28 36 31 40 31 26 20 20 18 26 37 42 37 27 21 25 28 30 38 48 77 106 140 155 187 186 194 208 214 216 220 225 222 223 227 227 228 228 229 228 231 231 232 231 231 229 226 230 222 212 209 203 205 208 206 202 194 193 192 192 185 177 166 149 106 78 60 47 38 30 23 20 18 19 19 16 13 14 15 12 8 63 37 33 48 29 31 23 40 26 26 26 32 29 32 32 26 25 19 19 24 39 48 34 28 23 25 26 33 37 59 103 139 150 169 180 194 208 212 213 216 219 224 226 228 229 231 229 231 232 233 233 234 233 232 232 233 234 230 231 232 228 225 223 218 217 217 216 216 216 215 214 210 212 204 194 173 131 86 68 50 38 30 22 20 15 16 15 13 15 11 14 17 56 36 45 27 30 22 30 24 25 25 31 29 30 31 35 26 20 19 26 44 53 33 26 24 26 29 31 42 64 115 148 165 176 184 191 202 211 209 215 213 218 226 227 230 230 229 232 237 237 238 238 240 237 235 234 236 237 234 234 234 233 230 224 226 224 222 220 219 217 217 219 219 216 213 207 194 179 139 92 69 50 42 25 21 19 16 16 16 15 13 14 14 35 34 45 28 26 32 27 25 24 33 29 25 32 29 27 21 20 24 36 46 34 30 24 27 30 31 49 82 124 153 181 188 189 194 200 209 210 214 218 219 222 228 230 232 234 236 234 237 238 240 240 240 239 240 242 241 239 237 235 236 237 235 233 230 229 226 227 225 222 221 222 220 218 216 213 202 194 176 138 94 69 51 36 23 20 15 15 19 16 12 12 13 35 47 30 24 26 42 22 24 28 35 26 30 26 23 19 16 21 32 42 37 30 27 24 31 32 56 95 134 163 170 189 189 191 193 202 209 213 216 217 221 223 228 232 233 237 238 238 239 243 241 242 242 241 240 241 240 241 241 238 237 237 234 232 233 230 230 230 226 223 226 224 218 219 216 211 205 198 190 176 133 90 64 49 31 24 19 15 16 15 12 10 11 38 48 20 23 34 38 29 25 30 29 32 21 21 19 18 21 28 40 43 33 25 24 28 37 62 106 145 160 169 182 187 189 192 195 207 208 213 213 215 221 227 232 236 236 237 239 240 244 249 248 249 247 245 243 240 240 240 236 233 235 235 234 233 232 235 233 230 230 228 228 224 221 222 217 211 210 200 195 188 170 129 85 61 43 29 22 15 16 16 15 11 11 55 28 26 27 47 29 27 30 27 29 24 23 18 17 16 25 37 42 32 20 24 27 37 70 109 138 156 168 179 185 185 189 192 201 209 214 215 216 215 223 227 235 234 239 241 243 247 248 251 251 252 252 252 251 252 251 250 247 247 246 244 243 239 237 235 236 237 234 232 231 228 225 223 219 214 211 207 195 191 183 157 121 80 51 36 25 20 17 16 15 13 12 56 24 26 40 33 24 30 24 26 24 23 19 19 17 22 39 46 30 19 20 28 33 68 108 130 146 157 173 183 183 184 189 195 204 211 215 213 215 219 223 229 234 235 238 244 248 247 252 252 254 254 254 253 252 254 254 254 254 253 251 248 245 245 245 243 241 238 236 235 232 233 226 222 219 215 211 208 198 191 185 168 146 111 66 42 34 24 20 16 16 18 13 32 23 31 34 25 33 34 29 24 23 26 15 17 20 35 47 28 20 19 22 28 55 101 122 133 154 164 176 179 182 181 189 195 207 209 211 213 218 218 221 227 231 236 242 245 250 251 254 254 253 254 254 254 253 255 255 255 254 254 253 253 249 249 248 247 245 242 241 239 237 238 233 227 218 214 213 208 201 195 186 172 158 133 101 44 36 25 22 15 12 15 15 17 24 31 31 31 33 26 29 23 18 17 16 16 35 47 31 21 18 19 27 51 84 116 122 140 161 167 172 177 180 184 193 199 207 210 213 217 218 219 222 227 230 235 239 244 249 252 253 254 254 254 254 253 253 254 255 255 255 254 253 254 253 253 251 249 249 247 243 243 242 238 234 227 219 215 213 208 202 195 187 178 173 151 118 69 34 27 22 18 15 15 15 22 25 29 27 37 31 24 22 20 20 15 14 32 50 29 18 15 21 15 33 62 83 113 132 149 162 172 174 177 183 188 192 203 205 213 216 219 219 222 225 228 231 237 241 243 250 253 252 246 245 247 248 251 251 252 253 254 254 254 254 255 255 254 251 249 250 249 244 245 240 235 231 228 220 212 210 202 197 190 190 185 173 163 130 92 37 30 23 17 14 10 12 26 27 30 32 30 27 22 20 19 15 11 32 50 26 17 16 18 19 23 41 63 82 114 139 154 162 173 179 184 189 189 196 198 199 209 214 217 219 220 223 229 231 237 240 247 249 254 254 254 254 254 252 247 242 246 252 253 254 254 253 254 253 252 247 248 248 245 241 241 238 233 230 225 221 216 209 203 194 191 185 182 176 165 148 118 48 26 23 17 14 10 11 21 29 30 31 25 22 19 19 18 18 37 56 28 16 16 15 15 18 33 46 64 92 122 144 150 158 167 177 185 187 188 194 196 202 207 213 216 219 218 223 227 232 236 238 244 246 252 254 254 254 253 253 253 251 248 246 246 245 245 245 245 246 241 244 246 243 245 245 241 240 236 231 227 222 216 212 206 196 190 181 181 173 164 152 129 68 28 23 17 15 10 11 26 32 33 32 23 22 18 14 19 19 34 23 17 15 17 18 19 20 31 49 76 113 132 147 148 155 168 176 183 189 187 192 196 201 207 212 212 216 219 223 228 232 234 234 238 245 249 252 250 250 249 250 249 250 250 253 253 249 247 250 251 251 250 250 247 247 245 245 242 240 235 230 227 222 217 214 207 194 191 174 174 174 162 152 144 89 39 23 19 12 12 11 31 31 35 25 18 19 19 18 18 27 22 16 17 15 16 17 21 25 36 55 83 110 131 148 151 150 158 174 180 185 188 190 192 198 205 209 212 217 219 222 225 229 234 234 233 236 241 247 248 246 249 245 244 246 249 249 247 246 244 250 247 248 249 246 246 247 246 244 240 238 236 233 226 221 216 212 206 196 193 177 177 173 164 157 148 107 42 25 18 13 11 11 26 29 35 21 19 19 17 19 20 24 17 15 18 17 14 17 23 27 42 63 84 106 126 148 154 155 163 173 178 180 183 189 190 191 193 201 208 211 215 219 222 225 226 229 232 232 233 238 241 241 241 239 239 240 243 241 242 242 241 244 245 244 244 248 246 245 240 240 234 234 234 227 223 219 215 210 206 197 188 186 179 174 165 156 150 124 57 27 18 12 12 11 28 32 29 20 17 17 19 20 18 14 15 14 15 15 15 18 22 30 47 65 85 107 130 145 158 165 166 170 176 180 180 188 188 191 196 200 209 213 216 219 223 227 229 232 235 238 238 241 244 240 237 238 240 237 237 242 237 239 239 239 240 240 243 243 244 243 242 240 238 234 232 223 222 218 213 210 207 200 186 183 178 171 160 158 154 132 83 38 15 18 12 12 30 36 22 16 17 16 18 18 17 16 18 15 16 15 17 19 23 37 55 71 94 108 129 147 158 161 168 171 178 181 180 186 189 192 197 200 207 212 216 220 225 227 230 229 234 236 237 241 242 240 239 236 235 238 238 240 238 239 239 239 240 241 243 244 242 241 237 236 234 232 230 224 221 217 212 209 204 198 190 184 178 172 163 156 149 135 93 43 26 12 12 12 35 32 17 15 17 17 19 16 14 16 15 15 16 17 17 23 33 48 60 80 96 108 128 143 152 165 170 171 176 178 182 186 189 189 193 199 206 211 214 218 224 226 228 230 231 233 234 239 239 238 239 238 238 235 228 232 235 235 236 235 237 238 238 236 235 233 232 231 231 227 224 223 216 216 211 204 199 196 183 176 172 171 163 156 152 138 113 55 29 15 12 12 29 22 17 19 16 16 17 15 16 13 14 14 14 15 18 29 34 47 74 78 99 112 129 144 154 168 169 171 174 179 183 187 186 187 191 195 204 210 213 215 222 225 226 228 230 229 231 232 233 236 235 234 235 236 236 234 234 232 233 234 232 232 234 233 232 232 227 226 229 224 221 221 215 215 210 206 201 196 191 182 172 166 162 158 157 146 113 77 30 19 12 10 23 19 17 19 18 20 17 16 15 15 14 15 18 20 24 30 39 58 74 95 110 113 127 143 154 161 169 171 172 175 179 184 184 184 188 193 200 208 210 213 220 223 226 227 228 227 229 233 233 231 229 229 230 229 232 231 233 231 230 230 230 231 232 233 234 232 229 230 229 226 223 221 217 215 212 208 205 197 193 186 179 167 162 158 151 149 124 90 40 20 14 12 22 18 19 20 20 21 18 17 16 16 15 16 19 22 29 38 56 72 100 107 113 114 128 142 154 163 166 172 173 176 177 181 185 185 189 190 197 204 210 214 219 225 227 230 232 233 232 231 232 231 231 231 230 231 230 232 234 233 232 232 233 233 233 231 232 230 232 232 229 228 224 222 220 216 210 207 204 198 193 185 181 170 164 157 152 150 128 91 44 23 15 12 27 23 20 25 22 21 18 17 17 17 20 20 25 27 40 56 75 101 109 113 114 117 129 138 146 158 165 174 173 176 176 179 183 186 187 193 199 204 210 214 219 223 227 232 234 233 233 229 230 230 231 232 228 229 229 230 231 230 232 232 231 232 232 231 231 230 231 231 231 227 222 223 220 216 210 208 203 196 190 185 177 169 167 156 152 150 132 100 48 25 16 13 30 24 22 24 23 20 19 15 17 20 25 24 27 35 49 75 101 118 123 122 117 115 128 137 147 157 162 170 174 177 178 183 184 187 191 193 198 203 210 213 219 222 227 231 235 236 234 232 233 231 231 232 232 230 229 230 228 228 229 232 231 230 230 230 229 228 230 230 229 227 223 222 220 216 211 207 200 192 190 186 180 173 166 159 152 150 133 104 47 24 15 12 24 27 21 21 20 21 19 17 23 27 25 25 29 51 79 102 127 134 132 127 119 117 128 133 144 155 164 170 172 178 180 186 185 187 192 194 196 202 210 213 218 223 230 233 235 236 235 233 232 231 230 231 232 232 232 231 230 232 232 232 232 230 229 231 229 229 230 229 227 227 223 222 220 217 211 207 203 192 188 184 177 175 167 160 151 146 131 106 51 23 17 12 32 27 23 22 21 20 20 19 25 27 23 31 50 81 101 119 140 139 141 131 124 117 117 127 136 155 162 176 177 182 181 184 183 191 190 195 197 202 209 212 217 220 228 228 232 233 232 228 230 229 231 230 230 228 228 228 229 229 229 228 229 231 231 230 230 229 229 229 226 226 224 221 219 216 212 209 205 198 190 186 179 176 169 161 150 142 130 105 55 23 17 12 27 24 22 20 19 21 21 23 23 25 26 53 83 104 120 134 144 145 145 137 128 121 122 121 133 148 157 176 179 185 178 179 184 187 189 194 199 201 205 210 212 216 222 229 230 231 230 228 228 227 224 227 228 228 227 227 225 227 228 228 228 229 228 228 226 226 228 227 226 224 223 221 218 216 213 211 204 198 192 184 182 177 170 163 151 138 130 113 63 21 16 16 21 21 21 21 22 22 21 19 25 24 54 85 108 121 135 142 147 147 144 143 134 123 120 121 136 145 157 174 180 184 181 186 187 188 191 193 196 200 203 208 212 214 217 226 227 227 227 226 227 225 222 225 225 226 225 225 223 226 228 228 226 224 222 225 225 222 225 223 223 221 222 221 217 216 210 208 205 198 192 187 185 179 175 164 150 137 130 109 76 19 16 16 18 24 22 23 21 20 18 19 23 37 85 109 126 132 141 147 153 152 147 147 143 128 117 117 133 148 159 175 181 183 182 184 184 189 191 193 195 200 198 204 206 210 211 219 226 224 224 225 224 221 219 221 222 223 223 223 222 223 224 224 223 220 219 222 222 220 222 221 220 220 222 219 215 212 205 207 206 197 192 192 187 182 177 165 151 134 130 118 96 22 14 13 71 37 32 24 20 19 18 20 24 52 112 128 137 140 146 148 156 156 156 152 147 141 123 120 135 150 155 166 168 174 177 176 176 184 187 186 190 195 195 200 198 204 208 212 214 217 218 222 221 218 219 219 220 220 220 221 221 221 220 222 222 217 217 217 217 218 215 215 217 219 220 215 210 210 209 205 199 190 190 189 186 180 178 170 153 129 134 122 108 17 16 14 143 49 50 31 22 19 17 19 31 74 120 135 146 146 152 155 155 157 158 154 153 149 134 125 139 150 149 136 125 126 135 145 143 133 141 151 156 157 158 186 187 192 193 197 198 202 208 212 213 213 213 215 216 216 216 217 217 217 218 218 218 212 213 215 213 214 210 210 213 212 211 204 200 200 197 194 190 189 187 183 179 176 175 169 159 128 130 131 118 13 17 12 156 72 41 29 27 20 19 20 39 84 128 140 150 155 152 156 160 159 156 154 152 152 140 134 140 129 104 88 90 83 68 60 66 68 64 59 67 82 106 121 122 126 159 165 163 162 178 194 196 201 204 205 210 213 214 214 215 215 216 215 214 207 208 209 207 207 204 200 203 199 195 190 187 186 181 171 167 166 165 160 154 156 156 161 155 129 131 132 123 13 12 13 136 85 34 33 28 22 20 24 45 88 127 143 149 153 155 157 157 160 158 155 152 146 139 102 93 82 75 65 56 49 46 45 40 44 44 45 54 50 47 51 53 62 63 78 95 109 129 152 161 175 201 198 200 209 209 210 211 211 212 213 209 207 206 206 201 186 176 161 164 163 149 154 157 140 125 114 113 111 118 116 112 104 113 98 136 137 138 128 128 14 12 16 103 88 34 28 32 27 20 25 49 102 132 146 151 155 156 157 159 157 155 156 149 127 81 63 59 69 66 55 49 46 46 47 51 49 47 46 45 46 43 45 46 44 48 54 58 63 78 118 126 152 168 193 200 202 206 209 208 207 209 207 207 204 202 194 184 172 143 115 104 98 91 77 73 64 61 60 55 56 55 58 61 64 74 82 96 110 129 133 128 15 20 8 65 82 48 27 34 26 23 28 53 110 140 154 154 156 156 157 157 159 157 148 124 86 64 63 59 62 52 48 59 72 69 71 58 53 53 49 41 41 40 38 41 36 40 40 48 48 63 78 110 123 150 178 189 197 202 205 202 204 204 202 200 196 194 187 169 142 103 89 66 54 50 50 46 48 48 53 47 42 50 56 57 59 65 65 67 65 95 138 135 21 19 13 82 72 55 38 32 32 27 28 57 116 150 158 160 159 159 158 158 159 154 133 93 65 65 62 65 54 60 90 113 122 121 111 112 106 94 77 67 58 45 38 38 38 38 40 44 47 59 69 97 115 137 167 185 191 196 201 202 202 203 201 195 192 184 180 140 100 87 71 54 44 35 33 35 35 33 43 52 52 52 55 64 63 72 72 72 65 50 118 141 38 17 13 126 89 79 56 30 36 33 32 65 127 154 161 161 162 160 158 153 159 147 98 85 78 79 79 73 85 112 132 145 148 151 150 135 137 136 138 135 118 95 68 60 54 55 53 54 57 66 75 94 101 138 162 178 189 192 198 202 202 199 196 191 185 175 156 115 91 83 64 50 46 41 43 41 40 54 57 66 85 97 99 96 93 90 87 87 77 65 111 143 46 24 27 158 138 95 58 34 36 35 36 74 129 156 163 162 159 160 157 157 151 123 97 104 107 110 114 132 130 138 142 142 144 141 136 135 133 135 139 144 133 138 123 112 94 70 64 68 75 80 85 95 102 126 147 164 178 186 195 197 197 193 190 186 175 160 129 111 90 85 71 62 56 67 81 109 134 137 140 145 147 150 152 149 149 134 110 96 83 64 106 146 41 17 37 168 151 125 51 45 56 42 48 86 133 161 161 163 163 162 159 155 152 129 123 126 131 130 131 131 131 136 145 143 136 135 134 129 138 135 132 118 111 105 101 101 112 90 93 80 72 76 84 89 98 115 133 152 169 175 185 194 199 194 183 176 163 142 118 99 77 79 83 94 105 122 132 149 154 158 156 151 153 149 158 155 160 156 150 134 117 114 115 144 43 28 77 157 126 93 52 50 55 50 51 95 134 160 162 165 163 163 161 158 155 143 133 139 138 141 130 127 132 137 140 142 146 129 136 90 100 88 113 95 100 90 65 65 47 67 93 98 96 90 78 82 90 102 121 141 163 181 197 201 201 193 181 164 147 121 89 92 105 110 100 93 69 58 55 71 80 97 103 129 121 119 125 137 144 152 151 138 139 132 117 141 62 35 103 141 112 76 54 56 60 56 68 99 135 157 162 164 165 164 162 163 158 147 137 138 152 151 140 121 123 123 121 120 113 81 72 89 95 53 30 19 9 14 18 16 32 51 42 86 103 105 99 92 83 91 108 131 156 180 203 203 202 190 178 155 137 118 117 127 117 100 81 70 38 24 23 27 28 26 28 47 49 52 74 109 128 137 136 134 125 143 142 134 82 33 174 135 102 86 73 62 67 65 73 96 136 155 162 165 164 164 166 161 157 147 141 143 160 173 129 143 126 131 128 112 96 117 85 31 14 15 19 24 76 18 18 18 23 29 88 54 98 115 113 114 104 92 96 123 157 182 202 204 203 194 177 153 135 140 138 132 115 97 68 30 15 14 16 10 12 12 17 15 19 29 48 52 86 77 130 145 174 161 148 134 108 28 214 131 114 114 92 74 70 76 86 106 138 148 156 161 164 163 165 164 163 161 155 145 151 190 151 107 125 116 124 95 61 29 18 16 17 20 25 18 12 19 32 20 86 52 33 98 57 121 134 133 126 114 103 122 155 184 208 216 211 197 179 159 147 147 142 99 82 53 32 47 28 22 20 15 12 15 12 14 15 15 19 27 25 58 128 139 166 160 139 138 130 39 253 151 140 145 154 96 76 85 97 109 133 150 152 158 161 162 166 164 163 165 170 167 157 145 142 131 126 132 111 45 27 18 19 32 53 44 64 70 53 64 71 78 200 140 61 46 102 123 127 155 143 139 118 125 155 191 211 223 217 201 186 175 149 154 109 74 50 48 75 114 93 47 53 46 38 36 35 38 22 13 23 32 105 113 121 131 140 137 142 141 149 60 253 164 161 165 163 106 90 98 100 111 129 146 149 154 156 162 166 166 170 167 168 169 172 173 170 139 121 114 77 45 41 43 81 85 111 125 142 134 128 115 135 130 140 134 121 85 102 96 150 185 148 172 136 129 159 190 216 229 222 209 190 185 195 171 60 92 100 107 121 122 123 129 150 109 126 142 133 98 94 93 78 90 127 137 132 151 161 173 156 141 150 99 253 167 189 162 146 115 125 114 104 115 128 138 144 149 157 158 165 171 180 183 186 189 184 182 173 173 142 122 94 106 114 144 141 138 147 156 165 171 164 146 165 172 164 179 179 162 152 98 158 205 150 179 148 141 166 194 220 234 229 215 200 199 215 176 152 154 157 159 162 158 155 158 174 152 169 165 164 175 171 170 152 152 151 170 174 175 176 177 167 139 162 149 254 169 178 170 157 123 138 128 105 115 125 132 142 143 150 154 162 171 179 181 185 189 194 192 191 196 190 191 191 163 145 153 157 160 163 164 175 184 180 168 184 181 186 196 187 207 219 215 219 202 162 175 150 153 168 198 220 234 231 220 205 208 213 219 217 200 186 172 168 175 170 180 188 166 172 178 176 177 181 180 174 184 180 192 195 192 183 177 157 142 143 191 250 170 161 181 162 142 140 126 107 115 126 127 133 137 145 148 155 165 174 180 184 188 192 196 199 201 204 203 200 194 190 178 176 178 172 175 179 188 196 190 191 188 190 195 202 202 215 212 200 186 173 178 158 158 171 202 223 231 229 224 209 206 215 218 211 201 180 171 168 166 165 167 168 167 168 169 171 175 178 179 182 189 198 201 198 192 185 175 167 145 140 232 254 192 166 166 182 164 137 133 115 112 122 128 130 133 138 145 150 163 170 176 182 189 193 198 204 205 208 214 209 202 193 183 179 184 190 182 187 189 188 188 189 188 181 188 190 194 200 200 196 184 179 177 159 162 175 201 221 226 228 223 209 204 211 218 215 210 193 182 170 168 170 167 167 168 172 183 183 186 191 198 202 206 206 207 202 196 189 174 167 142 143 248 255
177 172 163 149 152 141 139 120 113 120 125 128 130 136 140 142 160 167 173 178 184 188 193 198 206 212 215 218 216 216 215 206 185 184 183 183 188 191 193 192 189 195 200 205 208 204 201 201 180 182 180 162 164 177 198 222 223 225 223 210 199 207 218 217 217 217 206 190 186 176 164 161 159 158 157 157 162 165 178 195 203 203 201 199 194 189 172 159 147 139 253 255
154 193 175 150 118 91 135 127 112 121 125 128 127 133 140 147 150 158 167 174 180 185 190 195 197 206 211 213 213 207 204 200 193 193 196 193 200 205 205 211 211 212 209 215 219 210 206 204 180 178 173 166 168 177 196 217 225 223 220 211 201 202 213 217 216 221 223 223 220 222 214 214 208 206 211 213 219 218 221 219 216 211 206 194 191 180 172 160 154 137 253 255
145 180 195 177 143 81 126 127 114 120 126 123 126 131 135 142 146 154 163 172 173 177 181 185 189 198 206 212 217 223 229 227 228 223 218 216 216 221 221 220 220 222 222 222 220 219 204 188 194 179 170 171 171 175 193 217 226 224 221 214 202 201 208 215 216 220 220 224 223 223 224 222 222 222 218 219 216 219 217 217 216 215 207 194 184 176 169 156 148 147 253 255
187 186 177 181 162 154 136 123 113 121 124 121 126 129 131 139 143 149 157 164 172 176 182 184 190 199 205 211 216 220 225 227 230 230 227 230 229 229 228 226 223 224 222 221 221 212 201 191 181 179 171 171 173 175 191 214 225 224 223 215 203 200 204 212 216 217 220 222 221 222 223 222 220 219 217 215 215 217 218 218 214 211 204 192 185 174 164 155 146 129 253 255
169 193 177 171 158 145 129 120 113 122 123 123 125 128 133 137 143 148 155 164 167 172 177 182 187 191 204 208 216 219 227 229 231 230 229 228 229 232 230 227 222 223 223 219 217 210 197 189 184 177 175 171 174 179 188 214 222 226 224 217 203 197 204 207 215 215 220 220 223 225 224 221 220 218 218 215 217 216 217 216 212 206 200 187 179 171 157 159 150 127 254 255
167 169 179 171 158 142 124 115 110 120 121 122 125 131 136 136 143 145 153 165 167 169 172 179 185 192 198 206 212 218 226 228 229 230 227 226 229 230 229 227 223 223 222 222 214 210 198 190 186 181 175 172 174 178 187 211 224 225 223 217 206 198 202 207 213 213 218 222 226 224 227 226 226 223 223 220 218 216 217 215 213 206 197 184 176 167 155 145 139 112 251 255
167 171 173 167 165 148 134 123 109 119 121 121 126 127 131 131 137 143 151 163 165 167 169 177 184 190 193 204 210 215 222 226 230 230 229 229 234 233 228 227 223 223 223 220 216 212 202 198 187 182 175 171 176 179 194 212 223 225 225 219 212 198 197 204 212 213 216 223 229 228 229 229 231 226 227 226 224 221 221 218 214 205 194 187 174 165 155 145 136 121 234 254 159 171 163 172 168 149 133 133 114 120 123 120 123 127 127 132 136 141 147 162 168 169 170 173 185 186 195 202 207 216 223 227 228 230 234 235 236 236 234 229 226 223 223 223 217 214 206 195 184 184 176 170 177 185 198 212 221 229 227 224 215 203 199 201 210 215 219 221 228 227 228 229 230 228 227 230 227 224 222 221 215 207 190 186 174 169 154 151 138 122 179 254 140 153 164 176 121 55 117 155 123 115 118 118 120 126 128 131 135 142 147 161 167 169 170 172 184 187 191 200 209 215 222 227 232 234 237 239 238 237 235 231 228 225 227 227 221 212 205 194 173 175 172 168 178 193 203 213 223 230 231 226 216 205 196 197 202 206 215 220 225 227 228 227 230 228 226 226 223 222 220 212 215 206 194 188 174 166 155 149 138 124 65 254 109 137 147 115 64 69 111 160 127 98 117 118 119 122 123 127 131 139 145 155 163 166 169 175 180 187 191 200 206 216 221 224 231 233 236 238 237 236 233 230 231 232 232 227 217 210 190 170 160 165 162 164 182 198 206 215 223 235 235 229 218 210 195 193 194 196 193 204 214 219 221 224 223 223 222 222 219 221 217 215 212 201 193 189 173 163 157 148 136 100 71 214 18 128 140 49 54 101 71 141 114 85 119 116 120 117 120 126 132 136 139 147 158 162 165 171 172 181 191 198 205 213 220 219 226 229 233 233 230 230 230 232 228 227 226 214 203 183 159 159 157 157 155 158 179 200 208 216 224 234 238 233 219 213 196 193 193 191 179 181 196 209 214 217 219 219 219 219 217 217 214 210 206 199 190 184 175 165 157 146 131 78 53 170 20 44 123 62 59 44 97 125 94 46 111 118 119 119 117 118 120 129 138 145 155 159 164 170 172 179 191 199 204 210 216 218 222 225 228 229 228 227 224 225 222 220 209 203 178 154 155 159 162 156 144 151 182 199 208 216 224 231 237 231 221 213 197 195 202 196 177 160 169 190 203 209 213 214 214 214 212 212 208 206 202 198 192 183 174 165 155 144 129 53 79 98 12 14 44 65 85 162 95 107 35 18 105 116 117 116 114 116 117 127 132 136 145 151 158 166 170 175 186 195 198 205 210 214 216 218 219 220 219 220 220 217 215 208 201 172 151 147 155 160 166 165 144 144 178 196 209 219 224 232 236 235 227 216 204 192 205 204 187 169 142 154 175 196 204 209 210 208 208 207 203 200 196 192 188 180 175 166 154 138 126 56 70 135 16 15 10 17 50 195 29 19 9 5 93 117 116 117 115 114 113 118 127 133 138 146 153 160 166 174 180 190 195 201 205 211 213 214 215 217 216 213 212 210 205 194 173 156 152 138 153 159 166 168 154 141 175 196 212 222 222 233 238 235 232 220 208 189 204 206 187 182 179 136 148 165 183 196 197 199 202 198 195 192 190 189 183 179 173 163 151 120 104 126 59 154 18 16 15 18 38 56 21 10 6 12 74 109 114 117 115 114 112 112 117 124 133 143 151 154 162 168 175 184 189 194 200 205 209 210 212 208 210 209 204 196 188 174 175 188 135 137 148 155 161 162 157 147 172 193 211 226 220 233 237 237 232 221 208 192 196 197 186 202 207 184 128 136 162 180 192 192 193 193 190 187 186 182 176 173 171 159 136 119 79 227 30 141 17 15 16 14 62 119 64 20 8 7 57 107 112 116 114 112 113 110 114 117 125 134 143 147 153 159 168 175 183 188 193 197 203 205 207 207 205 200 190 187 179 188 208 214 168 113 135 148 155 159 148 152 169 192 207 221 226 233 233 233 228 221 201 186 187 186 191 217 210 204 175 125 135 158 175 184 187 187 186 183 182 177 171 167 158 150 131 114 40 242 52 158 16 18 12 16 80 64 49 62 7 8 39 102 110 113 114 112 109 109 111 113 121 125 131 142 146 156 159 166 177 181 180 189 196 196 197 196 194 191 188 182 193 208 210 215 210 92 117 130 136 144 137 141 156 174 201 210 219 222 220 220 218 211 189 173 172 166 211 218 213 210 206 171 121 141 153 168 177 175 179 178 175 171 162 159 150 140 126 107 42 252 54 161 20 17 15 17 105 100 93 7 11 9 25 92 109 117 118 115 111 110 108 107 112 119 123 129 136 144 151 158 165 172 177 180 188 187 187 187 182 179 181 187 199 207 211 211 211 151 62 90 117 123 119 124 137 158 183 198 205 211 214 214 211 192 166 145 144 186 218 219 216 212 205 204 157 113 131 152 162 168 168 168 162 156 151 147 141 126 115 76 33 248 97 220 22 17 16 28 36 50 16 15 5 12 16 76 102 117 115 114 113 111 107 106 105 109 115 121 128 135 142 147 152 161 173 176 179 179 178 179 177 179 182 191 197 203 208 208 197 189 137 69 48 56 75 97 107 126 154 178 192 200 205 200 185 157 132 132 178 210 220 219 217 210 209 199 193 132 116 132 151 157 161 161 156 153 145 136 120 112 108 56 28 248 72 241 26 18 31 61 140 19 17 4 9 11 11 62 98 113 113 112 113 110 108 107 105 105 107 111 118 125 132 136 147 148 160 167 171 173 175 173 175 181 184 191 196 200 204 207 207 199 185 144 92 60 46 40 65 100 113 138 164 174 177 164 138 127 146 195 209 215 218 219 218 212 206 201 191 191 117 122 126 144 152 155 155 145 134 119 110 107 97 30 13 207 63 254 29 20 23 60 116 15 11 12 10 10 13 47 95 106 114 114 115 114 111 108 104 106 105 105 111 116 124 127 135 142 146 155 157 160 165 172 177 186 187 191 194 196 201 200 199 199 196 185 168 132 96 65 48 53 99 104 128 136 134 137 151 177 200 209 216 217 217 217 214 209 205 203 194 183 178 115 118 127 141 146 143 132 115 100 94 98 58 40 42 220 131 253 29 26 49 93 140 27 18 16 13 9 10 33 85 103 112 114 112 116 118 114 110 110 106 101 102 104 112 121 130 135 140 145 149 154 165 174 184 187 185 186 189 195 198 199 200 199 193 190 180 162 141 114 81 53 54 91 97 107 118 151 183 199 206 213 214 216 215 214 209 208 206 198 184 179 181 148 125 114 128 134 136 127 107 94 106 115 86 46 39 176 234 255
33 25 17 83 89 22 17 15 13 11 13 19 67 105 110 112 111 114 117 120 120 122 121 109 106 108 110 119 123 127 134 141 150 161 169 178 182 181 179 182 184 187 193 197 198 197 196 192 190 183 170 138 121 89 65 53 85 113 145 162 189 202 211 210 212 218 215 215 210 205 200 189 173 167 174 169 159 105 120 123 130 120 116 118 112 135 28 23 48 122 253 255
32 23 25 66 120 12 16 17 16 13 11 13 53 99 110 110 111 113 118 125 128 136 148 121 119 125 126 122 121 120 125 142 154 160 171 178 174 168 175 177 181 183 189 195 198 197 196 194 191 186 185 171 158 123 103 107 116 143 169 181 198 208 211 213 212 216 217 213 205 199 192 181 168 160 165 168 167 139 121 129 130 125 134 133 116 103 24 21 148 147 254 255
43 25 54 141 24 11 20 16 17 17 15 10 36 89 106 112 109 110 115 126 140 149 159 139 126 135 135 140 128 125 132 143 153 158 172 175 170 166 165 168 173 175 181 188 193 195 193 191 194 192 203 206 213 208 204 198 194 196 202 208 212 212 216 213 208 208 211 204 196 193 185 171 160 155 159 163 171 164 145 138 137 135 137 137 101 81 144 22 154 213 254 254 50 32 14 147 8 10 12 15 15 15 16 13 22 75 102 110 107 109 115 126 138 155 170 152 124 139 148 161 160 149 142 162 153 159 168 171 162 153 153 158 163 169 173 182 186 192 192 187 199 196 207 217 221 226 222 209 205 204 213 219 219 214 206 199 190 189 186 182 181 177 166 156 144 147 155 163 179 176 162 152 142 139 136 131 42 52 124 31 93 252 252 255
59 33 23 195 3 18 12 15 18 18 14 20 21 48 96 106 108 102 109 116 137 159 176 180 131 139 161 181 174 159 162 167 155 157 164 163 145 135 134 137 149 154 161 163 164 170 164 149 151 161 156 149 151 156 186 199 216 210 208 181 163 140 131 133 130 128 133 131 136 139 143 137 130 140 143 166 171 180 174 156 153 139 142 115 17 48 79 77 195 251 254 255
66 46 43 94 7 14 16 15 19 18 18 18 24 29 79 104 110 108 107 113 131 159 179 188 124 135 161 192 192 166 168 176 164 165 166 150 140 114 120 123 126 125 125 119 128 118 110 114 119 119 117 122 119 118 116 113 121 142 123 138 133 137 125 124 124 117 109 105 100 96 105 109 118 113 153 174 174 185 174 161 150 141 135 82 31 38 14 146 238 254 252 255
58 48 71 83 11 10 15 19 16 20 21 17 25 29 56 101 106 107 104 107 120 152 172 185 140 132 156 188 193 174 174 187 170 170 168 135 116 77 82 82 83 85 78 86 92 99 107 113 118 126 124 127 127 144 138 141 135 128 122 126 127 121 130 123 122 117 105 96 83 68 65 94 166 183 175 177 181 180 165 156 144 142 126 36 54 41 86 202 251 249 254 255
54 50 17 156 10 12 14 15 17 18 20 20 20 26 42 86 97 103 104 105 113 142 163 174 158 133 151 180 193 176 176 191 183 180 179 171 130 57 33 25 42 56 65 73 81 90 96 115 113 115 122 120 110 98 118 128 140 121 133 111 110 120 110 107 106 95 85 70 90 103 181 189 191 195 183 183 184 174 159 149 140 124 99 19 145 38 119 245 255 254 255 255
53 54 32 158 8 15 17 13 16 15 18 21 19 20 28 72 95 105 106 105 109 127 160 171 162 140 136 168 186 174 172 197 202 192 192 192 192 163 135 78 54 44 39 47 59 60 65 69 69 62 68 79 72 88 85 89 84 90 88 89 78 81 73 60 52 49 72 105 113 159 197 205 203 196 192 185 182 164 152 138 131 121 52 35 78 30 188 254 255 254 255 255
48 56 45 171 11 13 18 16 19 17 15 21 20 23 27 48 90 103 106 106 106 112 144 167 167 142 129 154 174 172 168 195 204 197 194 203 202 191 165 130 99 78 59 53 51 39 30 29 36 44 45 67 99 93 97 82 95 110 122 123 76 97 90 83 87 98 130 118 127 185 193 209 209 203 190 183 174 152 143 132 124 112 18 62 107 47 190 254 254 254 254 255
34 40 49 137 18 21 18 21 21 22 22 21 23 15 21 39 76 96 106 107 103 110 125 150 158 142 133 140 162 163 160 189 200 192 197 205 209 192 180 161 133 106 84 73 85 105 124 145 121 112 97 106 144 161 169 154 163 188 192 169 137 128 121 124 138 147 117 108 147 183 198 210 210 203 184 176 160 139 134 123 118 59 24 82 172 24 146 254 254 254 255 255
10 30 26 35 32 31 29 27 24 25 25 21 28 20 18 24 54 97 101 107 105 107 115 140 151 148 138 128 151 160 153 180 195 183 191 197 202 200 185 168 157 130 109 89 74 86 96 118 146 162 174 156 142 141 138 143 147 147 137 142 141 153 149 150 135 117 96 120 162 186 199 205 203 193 179 167 142 128 129 117 113 29 37 98 246 29 181 254 254 254 255 255
9 18 16 46 34 31 36 34 28 26 24 29 29 34 29 28 48 80 95 106 104 103 106 124 143 144 139 128 138 153 146 165 188 179 182 185 188 193 189 183 162 152 141 120 93 84 86 97 99 111 134 158 163 171 171 186 168 171 180 181 153 154 139 117 106 96 106 153 176 188 200 199 197 183 172 156 128 125 123 122 54 30 52 103 253 37 189 254 254 254 255 255
8 12 7 49 22 35 35 34 28 24 19 23 44 36 42 36 49 75 95 99 111 103 104 111 134 142 140 130 127 141 143 148 185 174 168 180 183 186 188 187 166 147 151 155 141 113 95 85 77 101 113 115 112 112 115 121 128 117 111 117 111 109 106 99 96 113 151 159 179 192 198 200 189 176 165 137 122 124 120 109 26 39 74 103 244 45 196 253 254 255 255 255
11 7 5 51 11 26 32 32 23 16 14 9 115 56 46 42 53 68 89 98 109 105 103 111 123 130 137 135 127 130 135 140 168 176 153 172 182 182 184 182 176 159 147 151 161 166 142 117 106 81 83 92 97 96 104 109 103 101 103 103 98 99 93 106 133 154 165 164 188 193 195 192 181 169 159 123 124 121 120 51 42 59 79 99 242 79 206 253 254 255 255 255
22 17 21 59 24 26 31 30 25 22 17 11 118 80 58 54 48 66 75 95 104 105 104 110 113 124 134 136 132 128 123 137 157 177 142 157 178 178 182 182 176 165 151 141 150 158 170 160 137 121 106 103 98 92 92 95 98 96 98 101 105 104 127 148 155 169 166 176 186 190 191 188 168 162 129 128 125 124 99 42 55 62 86 84 254 113 217 254 254 255 255 255
45 42 41 54 41 40 38 40 40 38 36 43 137 87 67 60 56 51 76 85 97 101 108 107 108 118 130 132 134 129 120 120 143 166 152 140 163 179 180 180 179 168 156 144 143 150 156 165 169 160 141 129 125 109 105 103 102 103 107 112 123 136 154 163 166 165 169 175 183 190 191 183 163 149 122 127 122 113 51 49 50 55 61 91 250 207 242 254 253 255 254 255
57 57 57 62 54 55 55 54 53 54 57 99 132 102 78 68 63 51 60 76 81 97 102 105 108 119 123 133 135 133 125 115 123 152 162 144 142 175 179 177 178 171 164 153 147 146 145 151 157 161 158 147 144 134 128 126 130 133 131 133 141 150 158 163 164 164 171 178 187 191 189 170 160 127 125 117 125 58 37 41 40 41 42 104 252 250 250 254 251 254 254 255
61 61 60 64 62 62 62 58 58 59 59 161 122 114 96 84 73 64 52 73 74 82 95 103 105 109 117 126 134 136 134 120 111 134 156 159 135 153 171 181 179 176 167 169 152 148 149 144 143 149 146 149 151 153 151 149 151 155 156 155 150 153 151 162 165 169 177 187 191 191 184 163 143 126 126 122 52 32 38 36 36 34 39 110 254 249 253 253 250 254 253 255
64 58 63 63 63 56 60 63 61 66 67 225 137 122 113 99 94 77 62 54 74 76 79 95 105 106 109 122 130 137 133 126 111 117 140 161 158 136 163 173 183 182 173 167 166 155 157 152 152 152 154 152 155 154 152 147 149 157 157 160 158 159 157 166 172 175 185 195 194 191 178 155 119 118 125 69 19 29 34 36 35 35 38 121 255 254 255 255 255 255 255 255
62 63 64 62 63 61 63 65 66 63 77 237 146 133 125 115 106 96 80 58 61 73 72 76 95 103 104 114 122 130 129 126 117 105 122 147 157 152 146 170 177 186 186 182 182 176 171 170 168 169 166 167 168 166 163 154 157 165 169 170 171 173 173 173 179 187 196 201 197 180 167 133 118 121 84 18 26 26 34 36 35 35 36 129 254 254 255 255 255 255 255 255
65 64 64 61 61 64 62 63 62 63 121 228 149 144 133 124 106 99 91 79 59 65 72 74 78 97 100 107 114 125 128 128 120 111 108 126 151 155 152 164 176 185 190 190 193 190 190 190 190 192 192 189 190 186 185 185 187 188 195 193 193 193 194 194 197 204 207 203 193 177 154 120 115 84 26 19 19 32 33 36 35 36 35 139 254 255 255 255 255 255 255 255
62 63 62 63 61 64 62 60 67 68 196 216 158 149 140 131 116 100 92 90 72 54 68 75 67 79 100 97 111 114 121 122 120 111 108 112 129 152 157 155 171 182 193 193 200 199 203 204 210 214 216 216 214 216 216 215 214 218 218 215 211 207 205 206 214 213 205 205 185 166 133 114 93 25 22 20 24 30 36 33 34 34 35 146 254 255 255 255 255 255 255 255
65 63 63 63 63 63 62 64 57 69 245 210 175 161 151 142 125 113 101 89 84 69 53 63 74 73 74 99 101 106 113 119 117 112 107 104 116 135 151 155 164 177 192 197 202 205 208 211 217 221 223 225 225 226 226 226 226 224 222 218 215 213 213 213 215 211 208 202 182 154 114 99 27 23 18 20 24 31 37 35 35 36 35 151 254 255 255 255 255 255 255 255
64 63 62 63 62 62 64 63 62 102 235 222 193 171 157 147 135 123 111 100 86 80 62 57 62 72 74 70 93 101 106 113 112 110 104 103 106 122 139 151 156 170 180 201 203 203 208 213 216 221 227 229 230 229 227 228 226 224 222 223 224 223 220 215 212 208 207 190 166 126 102 28 26 19 22 21 24 32 35 35 38 38 34 156 253 255 255 255 255 255 255 255
65 62 63 63 62 63 62 62 65 177 230 228 207 173 168 157 146 138 123 112 99 90 75 57 57 58 70 70 69 90 101 104 108 102 102 101 102 108 125 146 148 154 169 201 204 207 205 211 215 217 223 227 228 227 227 227 225 226 226 227 226 220 216 212 208 211 199 180 141 114 30 29 23 21 21 21 26 30 36 34 38 37 38 156 255 255 255 255 255 255 255 255
65 64 63 62 63 63 61 62 43 236 229 230 211 181 175 167 154 144 133 123 112 102 90 74 63 54 58 72 71 71 81 98 98 99 96 97 99 104 110 126 142 148 154 172 198 203 206 206 214 213 218 221 222 223 221 220 223 224 226 227 225 218 212 208 204 202 190 149 117 36 35 24 23 22 22 18 26 33 34 35 38 36 37 161 255 255 255 255 255 255 255 255
65 64 63 63 63 63 62 72 95 247 230 231 220 199 188 179 168 159 148 136 125 110 105 95 76 58 50 59 69 72 68 68 83 95 92 92 93 96 105 115 127 141 149 164 182 193 202 201 208 211 214 217 220 219 218 217 219 219 220 218 216 210 204 205 208 194 169 115 38 34 26 26 22 22 20 22 25 32 34 37 37 38 35 167 255 255 255 255 255 255 255 255
64 64 64 64 62 64 62 62 194 241 235 233 216 209 201 190 180 176 171 162 146 135 116 105 102 79 64 53 53 68 68 68 66 71 85 89 88 95 95 104 112 126 136 146 169 181 193 197 197 204 211 212 212 212 211 209 211 211 209 209 208 205 199 204 196 176 144 52 31 31 30 28 24 22 21 21 27 33 36 34 36 40 39 176 255 255 255 255 255 255 255 255
64 62 62 60 64 63 60 58 237 240 233 232 223 218 204 195 189 186 188 182 168 161 145 125 109 105 84 68 55 54 74 70 69 65 59 65 78 87 88 93 103 111 125 134 148 164 182 191 194 198 200 200 204 205 205 204 204 202 202 203 202 201 194 201 184 151 77 30 39 32 30 27 25 23 21 22 26 33 36 35 37 40 39 182 254 254 255 255 255 255 255 255
64 63 64 61 58 63 63 104 249 238 237 234 229 220 206 197 196 192 192 186 185 178 171 152 135 113 111 91 63 51 53 74 69 69 66 60 58 62 73 85 95 101 113 122 129 147 164 176 186 194 195 197 200 201 198 199 198 194 191 188 188 193 187 178 154 110 37 40 32 32 31 28 25 26 22 22 26 34 37 35 37 39 38 192 254 255 255 255 255 255 255 255
62 63 62 59 60 64 54 164 238 236 237 235 235 218 206 199 199 197 200 197 193 185 180 171 165 142 122 112 95 70 52 49 73 70 69 65 60 58 56 56 67 85 100 103 112 124 138 154 160 176 184 186 185 185 182 181 181 179 178 182 181 183 167 143 124 61 35 31 31 32 31 28 26 24 22 22 24 34 35 36 37 39 37 197 253 255 255 255 255 255 255 255
65 64 64 64 62 60 62 231 238 233 239 236 234 222 209 204 206 199 199 198 196 196 194 182 176 163 147 128 118 100 68 50 56 76 72 69 65 65 59 57 48 41 55 87 98 103 111 122 138 151 159 165 169 171 170 172 170 172 172 173 171 161 134 119 131 57 39 36 36 32 31 30 26 24 24 22 27 36 35 36 37 41 36 203 254 254 255 255 255 255 255 255
65 62 62 63 63 68 104 249 238 237 239 237 235 222 208 205 205 201 201 201 201 197 196 190 187 179 164 142 132 120 98 72 47 61 76 69 67 66 66 59 57 50 48 40 57 88 96 99 105 116 130 136 142 146 150 154 152 153 151 147 131 119 127 134 132 45 37 35 34 33 31 31 25 24 24 22 26 36 36 38 39 39 36 209 254 255 255 255 255 255 255 255
63 64 63 64 62 53 189 239 240 239 240 239 240 228 214 207 207 202 202 203 202 200 197 195 193 186 178 162 146 133 126 98 73 50 64 74 70 67 65 68 62 60 53 50 41 47 67 79 90 98 109 111 115 121 123 122 120 114 114 114 124 135 145 141 139 33 38 35 35 31 30 31 26 24 23 21 26 35 39 38 38 39 34 214 253 255 255 255 255 255 255 255
