P2
# Generated by OpenCV 4.2.0
92 112
255
153 155 160 135 43 35 21 15 10 11 14 13 20 12 10 15 16 11 20 28 18 24 23 17 19 33 30 34 26 27 35 51 55 52 63 71 75 82 88 96 89 70 79 85 75 92 74 51 53 51 46 47 40 31 25 26 33 45 49 48 51 52 61 58 51 46 46 41 33 37 39 28 20 19 16 16 17 18 17 12 10 8 9 10 8 6 88 156 151 153 153 153 200 199 207 108 32 28 18 14 11 11 13 16 15 11 11 14 11 13 27 20 20 18 16 16 20 29 31 25 20 28 40 43 40 49 57 70 87 98 90 82 73 66 79 81 84 71 57 58 58 56 48 40 33 40 51 64 82 80 87 93 91 93 96 92 82 80 77 66 55 49 47 43 36 27 26 22 21 20 16 14 10 9 9 10 8 3 26 132 156 153 153 152 218 223 202 48 29 27 16 12 14 14 13 12 9 11 12 9 9 17 17 18 17 11 14 18 23 22 22 20 21 33 35 33 44 56 62 82 83 75 66 67 68 77 81 83 69 57 67 63 60 53 43 42 61 101 116 120 126 137 148 141 143 146 146 129 129 110 100 91 85 73 60 55 54 47 40 28 23 22 16 14 10 11 9 10 10 6 2 56 153 155 153 152 212 228 141 23 26 22 14 12 14 13 13 10 9 14 14 8 10 12 12 16 13 12 17 22 18 17 16 19 27 29 34 42 51 64 72 64 62 63 57 60 72 75 74 67 73 76 69 60 54 53 72 98 116 133 147 160 164 174 176 182 186 186 167 161 160 129 122 128 120 101 86 70 65 71 58 38 28 23 16 10 8 9 9 10 12 9 5 5 105 158 153 153 218 219 70 20 20 14 11 13 14 14 9 9 10 11 10 9 7 10 13 11 14 15 14 18 16 15 15 20 25 31 40 48 53 54 49 50 52 46 54 67 69 70 82 94 94 73 63 75 98 115 130 146 159 169 179 188 187 190 196 201 204 204 190 189 174 160 156 148 138 119 106 87 87 80 66 55 37 25 21 13 9 8 9 10 11 12 7 3 32 143 154 152 230 177 22 23 19 13 13 13 14 11 8 11 11 9 8 8 7 10 12 13 14 13 13 13 14 17 17 22 26 34 42 49 45 39 46 44 38 53 57 61 64 81 98 93 69 75 100 137 165 172 176 174 174 186 197 199 205 208 209 212 212 211 208 205 195 184 172 164 157 144 126 109 102 91 79 68 48 28 21 15 10 9 8 9 10 13 8 7 1 84 160 153 234 104 12 22 16 14 13 13 12 8 11 11 10 8 6 8 7 7 9 10 12 14 11 13 15 18 21 24 30 33 37 35 38 38 37 35 50 56 60 64 79 97 90 76 101 145 167 190 196 196 207 202 199 202 205 211 214 212 211 213 212 212 208 206 203 193 181 183 176 159 142 124 109 104 96 72 49 31 25 20 10 9 9 9 9 11 10 9 3 18 136 156 200 40 19 18 13 14 13 13 10 12 11 11 7 8 8 8 7 6 7 8 12 13 9 12 16 19 21 25 32 30 30 27 35 38 39 38 45 56 61 71 96 87 94 135 172 196 198 207 210 208 213 215 212 212 211 215 215 214 214 215 213 212 209 205 204 202 195 192 187 169 145 132 128 133 116 87 56 34 28 21 12 9 9 9 8 10 11 8 5 2 63 156 99 24 24 15 13 13 13 18 14 14 13 8 7 6 8 7 6 6 7 10 10 9 12 15 18 19 20 20 22 23 25 27 35 36 30 44 52 56 66 72 97 131 173 194 205 200 208 215 216 215 215 218 217 217 217 216 215 216 215 215 214 212 209 207 206 203 201 195 191 180 168 154 147 127 109 98 89 54 30 19 15 12 10 8 8 8 9 7 5 4 10 124 28 25 19 14 14 12 12 12 12 12 11 8 7 6 7 6 6 6 7 7 8 10 15 16 16 16 16 16 20 21 23 26 29 26 36 44 51 60 82 126 173 193 198 202 204 210 217 219 219 218 217 219 220 218 218 217 217 216 215 215 214 212 209 208 206 203 203 198 192 191 183 172 156 133 113 101 95 78 41 21 18 17 10 8 9 8 9 9 6 6 4 71 24 25 17 13 13 12 12 12 13 10 9 8 7 7 6 6 6 6 7 7 9 15 15 16 12 10 16 22 21 22 27 21 26 42 46 44 56 107 158 192 197 196 202 210 217 216 218 217 219 220 220 220 220 221 218 218 217 216 214 215 215 213 210 209 206 205 200 195 193 190 184 178 168 164 143 118 100 80 60 27 22 18 10 9 9 9 9 8 7 7 7 31 19 19 16 13 11 11 11 14 15 9 9 9 8 7 5 5 6 6 7 8 10 15 16 11 9 14 20 20 20 24 18 26 43 41 39 62 134 195 208 210 211 214 218 218 218 216 216 215 217 218 219 218 219 218 216 216 218 219 219 217 216 216 214 212 210 207 203 199 195 192 190 183 171 165 159 138 122 99 66 42 24 15 10 8 8 10 10 10 8 7 7 16 20 15 16 13 11 11 12 13 13 8 8 9 7 7 6 6 6 7 8 8 9 13 11 10 15 19 18 17 20 14 25 37 33 38 83 159 208 210 213 215 214 220 219 221 219 221 223 220 219 220 220 219 219 222 221 220 220 219 219 217 215 215 214 212 213 210 207 203 199 196 193 188 176 170 165 153 139 121 91 53 26 15 11 9 10 11 10 11 10 7 6 12 17 13 13 11 11 12 13 11 9 8 8 10 7 6 6 6 6 6 7 9 11 10 10 13 16 16 18 15 11 20 29 26 38 111 190 214 216 218 219 218 221 220 223 223 224 225 225 224 223 222 222 222 223 222 223 222 221 221 220 218 216 217 215 215 214 211 207 204 202 197 193 189 180 169 162 162 144 131 106 70 35 20 13 9 9 12 10 11 13 8 5 7 15 13 14 10 10 13 13 10 8 8 7 7 6 6 7 7 6 7 7 9 10 8 10 14 16 15 13 14 16 20 19 41 135 205 216 217 219 220 222 223 224 224 225 226 226 226 226 226 225 223 223 223 223 223 223 224 223 223 222 220 220 219 216 216 211 209 206 204 204 199 194 191 184 174 166 162 149 133 114 86 48 26 17 10 11 14 11 10 14 10 5 7 15 15 12 10 10 12 12 9 8 7 6 4 5 7 7 8 7 7 8 7 9 10 11 12 13 11 17 23 22 18 59 164 216 214 218 221 223 224 225 225 227 227 228 228 227 227 227 227 227 226 224 223 224 224 225 223 225 225 224 222 220 219 216 215 213 208 204 203 203 198 195 190 185 176 170 163 158 140 122 97 60 32 22 10 13 13 13 10 12 11 5 5 13 13 12 11 12 12 9 8 9 7 5 4 5 6 6 8 7 7 7 9 13 11 13 13 12 26 24 20 21 80 185 221 212 215 219 223 224 227 227 229 228 227 228 229 231 230 229 228 227 227 225 224 225 225 225 225 226 225 225 223 219 217 216 215 211 207 204 203 200 194 189 187 185 178 172 166 162 150 123 104 71 40 22 13 14 12 13 12 11 10 5 4 16 12 12 12 13 11 9 8 8 6 4 4 6 6 7 8 8 8 13 12 12 14 15 16 34 33 15 25 118 206 220 214 215 218 222 224 224 226 228 229 228 227 229 229 229 231 231 230 230 228 227 227 226 226 226 226 224 224 224 222 218 216 217 214 209 206 205 202 199 194 187 182 177 174 171 166 160 155 131 101 81 48 27 18 11 15 11 13 12 11 6 4 15 14 12 12 13 12 11 9 7 4 4 6 6 7 8 9 10 9 11 12 11 15 24 50 38 14 50 151 218 219 217 215 218 221 225 226 226 226 229 230 230 230 230 229 229 230 231 231 231 228 227 226 227 227 225 224 223 223 224 223 220 218 218 214 212 209 206 203 200 194 191 186 176 172 169 168 160 155 152 113 81 56 33 16 7 13 10 14 14 12 6 4 14 15 12 11 14 11 10 8 6 5 6 7 7 7 9 10 11 8 11 14 16 28 45 41 15 63 175 216 212 215 216 218 219 220 223 226 228 228 230 230 231 230 231 230 230 230 230 230 229 227 227 227 225 226 225 223 225 223 224 224 224 220 220 217 214 209 207 203 202 193 190 186 178 174 170 165 159 154 153 132 86 63 41 19 9 7 9 12 15 12 5 4 16 13 11 12 11 10 10 7 7 6 7 8 8 10 9 9 7 9 15 17 38 49 28 28 93 190 211 206 210 212 216 218 220 221 224 227 227 228 229 230 231 230 231 231 231 230 230 230 229 227 227 229 228 228 228 227 225 225 223 225 225 221 220 216 214 210 207 206 203 195 188 186 183 180 173 166 159 155 150 135 100 70 44 25 14 8 7 11 16 14 6 3 16 12 12 12 13 10 9 8 10 7 8 9 9 9 8 9 12 14 20 39 46 41 60 125 201 206 204 209 211 215 216 218 220 223 223 227 227 228 229 230 230 231 230 230 230 230 230 231 230 229 229 229 228 227 228 228 227 226 225 224 223 221 220 217 215 210 208 207 204 198 193 185 184 182 177 169 162 158 153 139 110 76 54 31 16 10 5 10 16 16 7 3 16 13 13 12 13 10 9 9 9 9 9 9 9 9 8 13 20 28 39 41 47 83 144 200 204 200 205 209 211 214 218 219 220 222 224 226 227 229 228 229 229 229 229 229 228 230 230 231 229 228 230 229 227 226 228 228 228 225 226 225 222 222 220 218 214 214 212 208 206 201 195 188 185 180 177 171 166 162 151 142 123 85 59 41 14 11 6 8 14 18 7 2 15 14 14 12 11 9 9 9 9 11 10 9 9 9 10 14 21 27 38 68 99 141 192 198 199 199 204 208 210 212 216 217 219 220 222 224 223 226 227 227 227 228 229 229 228 228 228 228 229 229 228 229 227 226 228 228 227 226 227 225 222 223 222 219 215 213 212 208 204 199 194 191 187 181 175 172 165 164 156 143 134 101 60 45 29 12 10 7 12 20 10 3 13 14 14 11 11 11 10 10 9 9 10 9 9 10 12 17 26 44 88 128 155 182 191 197 197 200 206 209 210 212 215 217 221 221 222 224 226 227 229 228 229 230 230 229 228 228 228 228 229 229 228 228 228 228 228 228 228 227 227 226 221 222 219 217 216 212 211 208 202 196 192 191 186 178 173 173 167 163 156 146 133 115 74 42 34 17 12 7 12 20 14 3 13 13 13 11 10 10 10 10 10 8 8 8 10 13 21 40 62 103 141 163 177 188 188 196 196 199 203 207 209 211 215 217 218 220 223 225 226 228 229 229 229 230 229 228 228 228 227 228 228 228 228 228 228 228 228 228 228 227 225 224 222 220 218 218 214 214 211 207 202 198 195 191 186 181 173 168 167 164 155 147 132 115 83 45 32 29 14 9 11 20 16 4 13 14 13 11 10 10 14 12 10 8 9 10 14 22 49 79 104 124 159 176 182 188 189 197 197 200 202 202 206 210 214 216 220 221 224 225 227 228 229 229 228 227 228 229 228 227 227 228 228 228 228 228 228 228 228 228 227 226 225 223 222 221 219 218 216 215 212 206 202 201 197 192 189 185 177 171 167 164 157 149 136 117 84 51 32 32 21 11 9 20 15 6 13 15 14 11 10 13 14 13 11 10 12 11 22 46 73 98 120 141 168 175 184 191 193 196 196 198 200 202 204 207 212 216 219 220 224 225 226 227 227 228 228 228 227 228 227 228 229 229 229 229 228 228 228 229 227 228 227 225 224 224 224 223 218 217 216 215 211 207 204 200 195 191 189 183 175 176 175 166 160 150 139 126 99 59 35 27 23 15 12 18 16 7 15 16 14 11 10 16 20 18 10 9 15 21 42 61 87 118 137 149 166 178 185 189 192 193 195 195 196 201 202 205 210 215 217 221 221 225 224 226 227 227 228 228 226 225 226 228 228 229 229 229 228 228 229 229 226 227 228 225 223 224 224 222 219 217 217 216 212 207 204 199 195 193 188 184 178 178 178 166 160 152 140 128 108 73 37 23 19 16 14 14 13 7 16 14 13 11 12 20 18 13 10 11 15 30 56 85 104 131 133 148 163 175 182 188 189 189 193 193 195 197 202 205 210 213 216 218 220 224 225 228 228 228 228 228 227 227 226 228 228 228 229 229 228 228 229 229 226 225 226 225 224 223 224 220 218 217 217 215 212 207 204 201 196 190 187 187 184 179 181 169 157 153 142 131 111 80 44 20 21 18 14 11 10 6 16 13 12 10 16 18 12 10 9 14 21 37 64 102 127 144 143 150 165 170 179 187 187 191 193 195 195 198 200 204 210 213 215 217 221 225 226 228 228 228 228 228 227 227 227 228 228 228 228 228 228 228 228 228 226 225 226 226 225 223 223 221 218 217 215 213 212 206 205 202 195 190 188 187 186 180 181 172 161 152 143 136 120 95 56 28 21 24 19 10 5 4 16 14 11 16 19 16 10 10 12 19 30 52 91 137 158 162 157 149 161 168 177 186 190 191 193 196 196 199 203 206 210 213 215 217 220 224 226 228 229 228 228 227 227 228 227 228 229 230 228 227 227 228 226 227 225 226 227 226 223 223 224 223 220 218 216 214 212 208 207 204 198 193 188 184 183 178 176 172 163 152 145 135 131 120 82 39 31 29 28 9 9 9 17 11 11 19 17 17 12 12 15 22 45 86 131 158 169 168 161 152 155 165 175 185 190 194 198 197 198 202 203 206 210 211 214 220 221 224 226 228 228 227 227 226 227 229 227 228 228 228 228 227 227 228 229 227 226 226 227 225 223 224 223 221 220 217 216 214 212 211 207 203 199 196 191 187 187 184 179 171 160 152 146 137 135 133 111 53 36 24 36 62 124 119 19 17 23 21 17 13 10 11 16 41 87 127 153 167 168 168 167 156 154 160 170 183 191 195 197 198 200 202 203 207 211 213 216 216 218 221 223 226 227 226 225 225 228 229 228 227 227 228 228 228 229 230 229 226 225 226 225 223 221 224 222 219 220 217 217 215 212 210 205 203 201 199 196 191 189 185 179 171 158 149 147 138 137 143 132 67 28 19 32 138 190 175 10 18 24 20 14 14 11 8 28 84 124 150 164 169 165 169 171 163 153 156 164 181 192 196 201 197 197 202 205 204 210 213 212 215 217 218 220 224 227 225 224 225 227 226 226 227 228 227 227 228 228 228 228 227 225 223 223 221 222 223 222 221 220 217 216 214 211 207 204 203 202 202 197 194 193 188 180 172 159 146 147 141 140 147 138 81 20 24 55 171 187 173 78 23 19 23 14 13 11 13 56 123 151 162 167 173 171 172 176 171 159 154 166 182 192 198 200 199 201 203 207 208 208 209 211 214 216 215 220 223 225 225 224 226 226 223 223 227 228 228 225 225 226 226 226 225 221 220 221 220 220 219 220 219 219 215 214 212 211 209 206 203 199 197 197 195 191 186 184 177 161 148 145 141 145 151 137 83 24 15 76 189 187 171 196 136 42 27 15 8 9 24 84 149 163 167 168 175 176 174 180 178 166 151 165 184 192 200 202 202 203 204 208 209 209 211 212 212 214 214 218 221 222 223 225 226 223 223 224 226 227 227 226 223 224 225 224 223 219 219 216 217 216 218 218 216 217 217 216 212 211 208 205 198 197 194 184 187 182 177 175 175 162 150 148 143 145 153 148 90 26 20 91 179 127 105 195 203 115 19 14 10 12 32 99 156 166 167 169 175 176 176 183 182 168 148 167 179 191 193 192 197 199 204 202 204 210 214 215 214 213 217 219 221 219 221 219 220 222 220 223 225 226 226 224 223 224 224 222 222 219 218 213 213 213 215 211 212 216 212 206 207 195 186 182 173 165 158 151 160 148 129 135 144 152 151 150 147 144 151 152 94 27 26 86 75 93 76 188 204 158 23 12 13 16 38 110 157 166 171 170 174 176 180 186 188 168 153 168 170 170 156 139 141 160 176 173 178 188 190 185 194 210 210 201 197 199 200 197 197 210 215 216 221 223 223 222 221 224 222 218 219 214 210 206 209 206 203 195 194 179 155 149 138 119 112 94 94 100 104 102 88 76 97 118 114 109 121 148 152 147 151 151 99 32 28 94 127 152 28 143 166 167 48 10 16 20 43 118 159 166 173 171 174 177 180 184 181 158 147 140 138 127 114 108 104 98 102 107 119 134 131 136 124 134 146 135 128 126 135 168 177 192 204 201 213 219 220 218 221 219 219 219 218 212 208 206 199 196 176 160 135 113 115 98 79 90 73 60 61 63 62 63 56 76 101 97 96 86 75 90 135 152 152 151 101 28 38 133 172 104 6 136 138 145 78 12 12 20 40 118 160 167 174 172 174 179 181 182 169 114 82 87 88 87 90 87 100 91 91 89 85 86 79 88 87 78 77 79 91 85 76 119 149 170 193 192 209 215 216 215 218 217 216 217 214 208 205 196 195 170 148 132 100 73 73 72 77 67 65 73 66 52 55 70 94 102 97 105 109 103 85 61 99 161 153 154 107 31 52 153 170 52 10 183 176 138 86 28 16 16 40 118 161 167 174 176 174 179 180 179 129 70 86 98 92 91 93 100 106 94 86 83 77 66 57 62 61 63 67 63 63 66 77 96 120 162 184 182 201 210 211 213 216 215 215 214 210 206 197 195 182 144 139 126 103 90 70 68 64 56 60 62 69 80 103 125 131 139 146 143 129 125 103 80 92 153 161 159 109 26 73 174 147 13 14 184 201 193 125 43 19 22 39 113 159 167 173 176 175 178 175 155 100 81 97 123 143 145 137 130 130 133 123 109 99 85 74 66 55 53 69 73 66 65 84 109 132 161 184 183 193 208 211 213 215 214 214 211 207 201 194 192 172 154 149 124 116 95 83 86 90 104 116 130 150 165 170 177 185 188 185 177 164 148 127 111 111 149 163 157 115 38 100 184 132 10 23 175 201 207 186 80 21 28 43 113 160 168 172 176 174 177 167 134 117 116 117 129 150 172 186 193 188 180 180 176 168 169 168 150 130 106 106 109 103 96 112 128 156 172 179 181 190 201 209 211 212 214 211 208 203 196 186 177 166 162 144 127 116 119 138 158 176 187 192 195 193 192 193 192 190 187 184 180 177 170 161 154 143 152 163 155 123 57 118 191 116 7 33 171 199 208 203 130 31 27 51 122 163 167 170 176 175 179 160 146 154 163 172 179 181 187 188 191 195 194 194 194 189 187 186 186 186 182 173 163 151 140 129 139 153 164 172 181 184 192 204 207 208 213 210 203 199 191 177 167 156 141 132 140 162 182 189 195 197 196 194 184 180 186 185 179 176 176 179 178 170 164 169 169 159 162 163 154 131 78 136 197 97 10 39 167 196 211 209 168 58 32 56 123 166 169 170 173 176 176 167 164 171 184 180 178 183 183 184 186 184 184 183 186 190 193 192 190 191 188 185 190 182 176 163 151 144 149 160 171 177 189 201 204 206 211 207 201 191 178 163 150 135 149 172 185 185 167 125 102 95 101 93 88 113 125 136 145 160 161 175 173 169 170 175 170 171 168 159 149 135 103 153 208 92 13 47 172 198 211 204 178 92 44 65 132 168 168 172 174 175 177 170 166 176 183 180 171 172 176 177 174 170 177 177 168 161 148 148 135 115 99 103 118 133 171 180 178 170 161 152 151 165 182 196 207 215 214 206 198 183 164 148 142 161 185 183 162 130 87 33 27 24 23 16 14 24 39 65 82 95 128 153 181 178 179 177 174 172 158 151 152 135 121 171 219 92 18 53 181 202 206 196 179 118 58 75 138 167 169 174 177 177 174 172 168 179 185 180 168 165 169 170 169 166 156 136 115 94 54 70 55 28 21 26 26 55 89 133 181 191 188 180 164 157 173 191 205 213 213 208 194 177 152 144 162 186 189 170 129 73 35 32 36 48 84 10 23 12 9 14 27 51 50 69 133 172 168 169 163 155 158 160 155 135 142 200 218 94 22 51 183 205 198 190 180 147 82 80 138 166 170 175 178 180 178 172 170 178 188 179 166 157 161 159 144 116 92 83 42 29 15 27 36 42 49 30 26 14 36 96 157 194 199 198 189 170 172 190 205 213 215 208 195 173 151 157 180 199 184 164 91 53 142 115 69 78 36 31 73 52 48 36 10 11 15 37 84 138 147 158 165 177 177 163 150 137 149 208 215 100 27 56 185 206 202 192 187 181 137 102 138 162 170 175 178 180 178 181 178 169 179 185 156 146 142 118 78 51 32 17 27 51 39 64 55 51 58 75 85 119 62 72 141 181 193 203 198 184 176 194 208 218 223 212 200 175 158 170 195 200 154 105 81 120 185 152 94 106 93 90 107 102 99 88 70 47 53 71 118 153 173 187 191 185 175 161 149 137 144 201 207 100 39 70 183 211 213 206 208 210 176 124 137 161 168 175 181 180 179 185 188 186 170 166 152 124 125 100 45 6 9 33 86 109 84 98 77 48 75 78 102 188 146 78 116 176 192 202 196 189 180 195 212 223 226 218 205 176 164 178 203 161 118 141 166 160 140 152 153 135 138 143 116 128 124 113 130 122 134 160 177 188 196 197 194 188 181 168 149 138 156 200 196 97 49 70 184 211 217 210 218 216 201 143 132 159 165 172 179 183 188 187 188 190 189 180 169 144 113 76 41 58 94 91 103 104 123 130 138 127 138 122 109 133 138 130 135 128 176 206 197 192 184 194 216 225 226 221 210 183 170 185 203 183 193 206 203 188 182 175 178 169 175 177 145 146 148 155 153 170 183 191 199 203 202 199 192 186 182 170 149 138 164 185 192 82 49 59 184 204 218 207 212 216 210 152 130 155 162 169 177 186 194 196 198 199 200 198 196 192 175 150 137 133 149 121 137 134 126 138 165 133 169 160 144 168 177 185 185 172 188 210 201 193 187 198 216 224 227 221 212 195 173 188 212 222 217 210 206 203 202 198 196 193 189 189 181 174 181 185 186 187 194 204 206 206 204 200 192 183 177 168 152 140 148 169 192 56 50 66 184 200 215 206 201 217 209 159 128 151 160 166 174 185 192 195 198 201 206 208 210 210 212 210 197 176 176 172 172 173 170 167 174 164 181 185 182 192 198 208 215 216 212 205 195 192 188 202 216 223 227 224 217 200 180 189 206 218 216 213 210 208 206 208 207 203 203 205 206 203 203 200 198 204 211 212 210 207 202 196 192 181 172 166 155 147 156 193 174 42 54 66 158 198 202 212 199 210 214 177 135 148 157 163 173 181 190 193 196 202 207 208 209 209 208 210 207 200 197 203 202 199 195 199 200 197 202 206 208 207 211 211 209 208 207 205 199 194 192 205 216 223 227 225 217 204 186 189 199 207 218 218 216 213 213 212 209 208 210 207 204 202 199 199 206 211 213 210 208 205 198 193 190 184 175 167 155 147 178 204 148 41 58 62 105 201 185 207 201 193 195 175 143 139 154 161 169 177 187 193 195 201 206 210 211 214 214 215 216 217 213 210 210 210 209 208 212 213 216 219 215 216 216 213 212 212 209 208 204 199 199 208 214 223 227 224 218 208 193 188 198 204 209 217 220 219 220 218 216 215 216 217 216 216 217 219 221 222 220 218 213 207 200 192 185 181 176 167 154 148 193 198 116 46 57 66 47 193 196 183 197 201 183 160 160 135 150 157 165 175 183 187 194 201 207 210 213 215 217 219 220 216 215 212 209 209 209 213 215 221 221 221 220 222 221 219 216 215 215 209 207 204 204 209 215 222 226 223 218 212 198 191 195 206 209 210 217 221 223 223 223 223 225 226 223 222 223 221 220 219 220 219 214 205 196 192 181 177 172 166 151 147 196 195 108 49 61 64 14 156 215 189 199 213 198 164 169 142 147 154 162 172 180 185 192 199 204 207 209 210 212 216 218 218 221 221 222 221 220 221 222 223 224 223 224 222 221 223 221 215 213 211 209 206 208 211 214 221 223 226 219 211 201 193 194 200 209 209 209 214 218 219 223 223 223 224 221 220 220 221 221 218 218 216 211 205 197 190 183 176 173 164 151 142 188 201 131 46 55 64 10 108 213 197 208 215 216 196 184 154 140 151 161 169 177 186 193 198 200 202 205 208 213 217 218 218 222 224 223 223 223 223 223 224 225 223 222 222 220 221 220 215 213 210 208 207 208 209 213 220 224 224 221 213 204 195 193 199 205 210 213 215 217 219 222 223 221 222 224 222 219 220 219 218 216 213 208 201 197 188 182 177 171 163 152 142 186 203 125 43 57 62 23 66 186 194 213 209 212 208 190 164 139 149 159 168 178 188 192 196 198 200 203 205 212 215 220 222 221 220 223 222 223 223 223 222 222 221 220 220 219 222 219 213 212 210 208 207 206 208 212 221 223 224 221 216 206 198 196 202 207 211 216 215 217 218 221 223 226 226 224 223 223 221 220 221 219 215 207 200 197 188 183 178 170 163 153 140 164 194 87 41 55 55 37 41 154 195 208 210 212 209 194 168 141 150 159 169 177 186 192 194 196 199 205 207 210 214 219 221 221 221 220 221 221 222 222 222 222 221 221 220 221 221 219 216 215 214 211 207 207 209 213 221 224 224 222 217 208 200 199 204 210 214 216 217 219 220 220 222 225 228 226 226 225 224 223 222 219 216 211 202 197 190 180 178 171 161 153 141 116 145 35 46 48 54 37 26 135 202 205 211 212 213 203 181 144 145 154 170 179 183 189 194 195 201 206 208 211 214 218 220 220 220 220 221 222 223 224 224 224 223 222 223 223 221 220 219 218 217 215 211 209 210 214 220 225 224 223 219 209 201 200 204 211 218 219 220 221 221 222 222 224 228 228 227 227 227 224 220 216 217 212 206 199 192 185 176 170 161 153 143 114 57 31 54 48 57 41 24 91 198 200 210 221 220 202 194 167 145 155 167 175 180 187 192 196 202 205 208 210 213 218 221 222 222 223 225 226 225 225 225 225 224 225 226 225 224 224 223 220 213 218 212 210 212 214 219 223 224 226 221 211 202 198 202 210 216 220 223 223 225 226 226 226 227 228 227 228 226 225 221 219 217 211 204 198 194 187 177 171 160 151 149 67 12 41 50 47 58 54 32 32 165 200 205 140 126 183 209 194 146 156 167 172 179 189 192 194 199 204 207 210 214 218 222 223 223 225 226 228 226 227 228 227 227 228 229 228 226 226 224 220 214 215 210 211 214 217 221 223 225 226 222 213 203 193 195 203 210 212 216 220 224 227 226 223 225 225 227 228 225 224 222 219 215 210 203 200 194 185 178 172 160 151 135 40 32 43 48 46 54 46 44 15 74 199 154 70 71 122 219 198 146 151 161 169 177 185 193 195 198 201 206 211 215 219 222 223 225 228 228 228 228 228 230 230 229 231 230 226 224 218 216 215 215 211 207 211 220 219 222 226 228 227 222 215 205 192 190 200 208 205 206 211 215 220 223 223 223 224 225 223 221 222 223 218 213 210 205 200 192 186 178 169 159 149 122 42 41 45 47 44 49 42 47 35 12 124 164 63 57 139 214 196 149 148 157 166 176 181 191 193 196 200 207 214 216 221 222 224 225 228 229 229 228 229 230 230 229 227 224 218 209 208 211 212 214 210 201 210 219 218 220 225 228 227 221 215 207 193 191 205 206 202 199 200 199 202 210 218 220 220 222 221 219 219 218 213 210 209 205 199 193 185 176 165 154 148 105 32 43 51 48 41 47 45 49 42 34 18 136 146 93 189 207 170 110 145 151 160 172 180 187 192 197 201 208 214 216 218 220 222 224 225 226 228 228 228 228 227 221 219 209 199 200 205 211 212 214 210 199 208 217 219 219 221 224 223 219 216 210 199 190 204 208 201 190 192 199 192 193 201 208 214 215 216 217 217 213 210 206 206 203 197 189 183 175 161 148 145 83 29 41 54 47 40 45 48 50 42 55 21 23 84 96 171 144 48 50 145 148 155 169 175 184 190 197 201 208 213 214 215 217 220 222 221 222 224 224 224 223 219 212 201 188 192 195 199 206 210 212 209 199 206 216 220 223 224 226 224 222 217 213 200 186 199 207 201 186 197 206 201 188 182 194 207 211 212 211 210 210 207 205 203 197 192 185 181 173 161 146 139 63 34 40 49 44 39 44 46 52 44 54 43 50 28 34 28 9 20 51 132 147 150 164 173 179 185 192 194 201 208 212 213 215 218 220 219 220 218 219 218 216 210 193 185 198 208 198 190 204 210 211 209 201 206 216 223 226 226 228 227 224 220 214 200 187 195 202 195 185 205 207 207 205 189 180 189 199 205 207 205 205 202 199 197 192 186 180 178 169 156 143 133 44 34 42 44 40 42 44 45 51 49 60 47 59 61 36 29 35 68 40 106 150 148 159 167 175 180 186 194 201 204 207 210 213 215 217 218 217 214 214 212 205 191 189 205 216 218 216 189 193 206 210 206 203 207 217 222 227 225 229 233 229 220 215 200 186 194 195 178 180 209 209 210 210 207 194 177 183 194 198 200 199 196 194 190 183 178 174 172 163 148 141 114 28 38 44 46 37 36 40 43 48 54 56 61 53 55 31 65 61 66 39 89 152 146 155 163 172 177 184 193 199 202 205 208 210 209 210 212 211 210 208 203 190 187 206 217 217 217 219 205 176 196 207 202 200 208 215 221 227 229 232 233 227 217 212 195 178 187 175 162 196 209 209 209 207 207 207 194 173 175 190 193 193 190 186 180 175 169 166 163 153 143 141 81 15 39 48 44 36 36 40 61 46 49 59 69 61 59 29 63 53 73 54 66 150 149 153 159 166 174 183 187 194 199 204 205 207 205 207 207 206 203 197 185 185 203 213 216 215 214 217 216 192 166 177 193 196 202 209 216 222 225 227 227 220 213 203 183 163 149 151 189 204 204 205 204 203 201 200 201 191 167 171 184 185 183 179 173 170 165 159 153 145 139 140 51 23 41 47 44 37 35 41 62 50 48 56 72 54 47 34 68 70 81 67 38 137 153 152 156 160 169 178 184 191 196 199 202 203 202 204 201 199 194 178 182 203 212 212 214 215 215 215 212 211 195 160 145 160 185 196 206 213 216 218 218 213 199 178 144 131 157 194 203 202 204 203 201 202 200 197 191 188 180 160 161 175 177 178 174 167 160 151 142 144 143 129 29 25 42 43 42 37 34 40 56 50 50 52 73 51 42 33 62 63 74 74 22 113 156 155 158 159 164 169 178 186 190 194 196 198 200 199 196 190 178 182 204 209 208 208 211 214 215 213 211 211 210 207 184 148 139 169 193 201 207 207 205 195 168 131 139 176 198 202 202 204 205 203 202 200 198 193 190 184 176 172 157 160 173 173 169 162 155 146 148 155 149 103 13 22 40 46 48 36 36 42 58 44 52 54 74 63 39 32 56 58 63 64 16 62 158 158 161 160 163 164 171 177 183 188 192 193 192 189 187 175 182 203 201 202 206 206 209 213 212 213 213 212 211 208 204 199 173 139 151 185 196 196 191 164 132 150 181 193 200 203 205 206 205 201 200 196 193 192 190 182 174 165 168 168 167 170 164 161 153 153 164 158 150 64 14 40 47 39 48 39 38 40 58 43 48 46 69 59 31 30 47 57 60 63 26 36 149 163 170 168 169 165 165 170 176 184 190 190 186 182 175 180 202 194 194 201 204 207 209 209 211 214 214 214 212 212 209 203 200 184 146 135 153 157 143 128 154 184 194 201 206 206 204 204 203 198 195 191 189 187 178 170 160 158 170 187 176 174 166 162 156 166 169 154 140 109 123 125 128 51 40 37 38 40 62 52 49 44 60 61 30 33 40 51 59 64 43 21 126 165 176 174 180 177 171 173 176 179 183 182 182 181 181 198 193 187 196 199 200 203 205 208 210 213 211 211 213 214 215 213 210 200 188 159 136 133 145 174 190 198 206 207 207 205 204 201 198 193 193 187 183 178 170 155 147 153 181 198 191 185 173 169 171 170 168 153 150 140 162 109 70 61 34 35 36 39 52 53 50 44 58 56 29 31 39 44 64 61 48 7 93 165 179 181 185 187 179 181 181 182 182 183 187 184 190 194 179 182 190 193 196 199 201 206 211 210 211 212 215 215 216 216 220 217 209 200 194 191 195 202 207 208 204 190 180 173 168 159 154 152 150 143 137 119 105 105 154 186 196 204 201 187 180 178 174 168 164 154 134 104 134 110 93 71 25 38 38 40 45 51 50 47 43 46 49 35 21 30 63 50 48 4 47 160 181 186 190 192 184 185 186 186 184 190 195 186 192 182 165 175 180 185 186 185 180 170 168 167 168 168 170 175 178 179 187 191 203 213 212 213 213 204 191 178 157 140 134 132 125 116 110 100 89 75 53 53 58 101 200 199 205 206 201 189 184 187 173 165 164 151 66 88 112 132 134 52 26 38 36 41 34 49 44 48 134 151 112 122 111 55 46 40 49 16 10 132 178 187 193 198 189 185 192 194 190 195 201 195 194 181 159 135 100 102 111 119 113 111 115 121 123 129 133 136 141 142 149 149 152 162 172 179 169 147 136 132 126 122 120 114 103 95 88 79 96 81 87 96 93 159 214 206 209 206 200 189 189 187 168 167 163 131 15 22 48 49 14 17 34 38 37 44 25 45 41 67 109 101 145 161 145 93 39 38 43 24 1 93 174 182 195 203 195 183 193 201 198 196 205 205 201 194 186 136 69 71 52 76 94 89 89 96 104 105 108 113 116 119 121 123 124 130 133 127 120 119 117 113 108 105 99 100 104 108 106 138 145 98 110 104 142 210 217 211 210 208 197 191 192 180 168 168 157 90 2 3 3 3 18 33 33 37 39 43 46 40 38 60 81 67 160 152 151 95 34 40 36 31 2 44 158 179 191 202 201 187 189 203 204 200 207 211 206 205 209 186 126 121 110 108 161 163 120 128 131 136 124 115 116 117 111 110 109 115 112 110 125 121 119 121 126 128 132 135 170 150 145 183 123 99 116 138 192 216 218 211 208 208 197 193 190 168 170 165 148 47 5 13 16 15 30 36 29 34 36 38 54 41 37 23 114 128 128 122 140 45 27 41 37 31 9 8 112 176 188 200 205 192 185 198 205 204 206 211 210 211 213 220 191 139 120 113 143 203 183 171 162 213 185 162 182 187 164 167 174 183 174 172 197 194 196 179 169 189 192 163 210 180 177 146 124 122 134 177 212 220 213 209 208 205 198 194 178 168 171 162 120 17 14 22 21 25 33 27 30 36 37 36 39 43 40 13 5 35 49 45 40 11 18 32 36 29 21 3 45 159 181 193 203 199 187 192 203 203 203 211 212 210 214 219 222 194 134 120 131 171 194 205 178 228 219 177 213 234 188 194 232 241 216 195 206 238 239 204 170 215 211 189 224 193 166 115 125 128 153 197 212 215 208 207 209 201 196 186 170 173 167 152 71 7 20 20 21 24 30 25 32 34 36 38 37 45 42 30 8 1 1 2 6 13 18 33 39 32 27 9 5 110 177 188 201 203 195 188 196 201 202 208 213 210 212 219 221 217 181 129 128 134 154 202 198 219 232 211 221 241 212 208 240 244 230 200 221 241 239 218 194 227 220 217 223 175 125 129 126 133 173 203 210 207 202 207 210 199 190 173 172 171 164 133 25 10 19 18 22 32 27 29 31 29 33 39 33 43 45 45 36 25 17 10 22 36 25 27 35 30 28 14 1 49 155 180 194 201 202 192 193 202 200 206 214 211 214 218 222 217 207 167 123 123 131 156 157 203 227 228 229 237 227 222 238 239 233 215 228 238 236 221 220 233 214 205 217 144 116 123 114 147 185 202 203 199 199 211 207 195 180 168 174 167 157 83 7 17 18 19 23 34 26 33 29 28 34 41 29 40 44 46 44 44 43 38 28 34 32 26 30 37 31 19 5 7 100 170 183 196 201 196 190 197 201 203 210 212 215 217 220 219 209 199 154 119 121 123 116 168 211 191 210 233 229 224 234 235 229 220 228 233 230 218 212 220 169 143 164 130 117 112 123 170 192 199 198 200 206 213 202 186 169 172 169 158 133 22 10 18 15 22 24 28 25 30 26 28 36 43 33 37 34 40 46 42 43 43 32 37 41 27 28 37 29 21 6 4 38 143 177 190 196 197 194 190 198 200 206 213 211 214 214 216 212 203 191 146 118 120 133 138 145 137 161 196 166 183 226 225 220 208 214 217 212 181 136 148 131 127 124 117 105 109 149 182 195 196 193 200 210 209 191 173 169 172 161 153 81 3 14 13 15 21 22 23 30 28 25 33 36 39 42 30 30 36 48 43 42 46 37 37 44 33 27 34 31 23 14 12 7 84 163 179 194 197 197 193 192 197 202 212 212 211 213 212 213 206 196 185 138 116 118 125 130 137 138 141 136 147 174 183 179 164 165 167 160 147 140 136 131 128 119 105 102 131 171 187 195 193 195 199 209 202 180 165 172 168 154 126 18 8 19 16 15 15 23 22 36 25 25 32 42 46 54 39 36 32 44 46 46 48 39 34 40 39 27 30 34 28 21 15 4 28 124 167 185 194 194 194 189 193 198 208 213 206 211 211 211 210 198 192 182 137 115 115 121 136 148 155 161 166 164 164 165 161 168 172 170 162 155 145 131 118 103 98 131 167 178 191 194 193 193 200 205 188 169 164 168 156 146 51 2 14 18 14 16 20 21 28 32 21 27 37 45 52 56 49 41 34 38 49 48 50 46 32 37 43 32 28 30 31 25 17 3 6 68 146 171 185 192 194 190 190 194 204 212 205 204 211 209 212 205 193 192 182 144 120 115 116 130 148 165 183 189 199 175 161 183 186 170 150 137 128 117 104 101 133 170 179 183 193 196 197 192 199 195 176 164 167 160 153 91 4 8 14 16 13 14 19 24 39 27 23 31 36 44 54 56 54 42 39 37 52 45 49 41 37 32 38 36 30 33 32 25 20 9 5 45 111 152 176 187 192 192 189 189 198 211 210 203 208 210 208 208 199 189 192 188 158 131 119 117 121 128 133 140 151 139 142 157 146 134 131 120 111 111 124 154 178 176 178 187 196 199 194 190 194 184 166 164 161 153 114 15 4 16 15 11 12 13 17 27 36 23 26 33 35 43 53 57 58 48 41 38 47 46 48 35 37 35 37 40 39 35 37 24 22 14 4 36 91 124 160 176 187 191 192 187 189 204 212 203 200 211 211 210 203 193 189 193 196 184 162 143 129 127 129 133 130 129 127 130 129 124 121 117 126 151 178 187 182 175 179 194 199 195 188 189 187 170 161 160 153 134 35 4 11 17 15 10 14 16 19 26 27 23 28 35 35 44 26 60 63 59 45 45 42 43 50 42 36 38 45 43 37 33 32 25 24 21 7 32 105 101 129 160 179 188 192 188 187 195 207 207 197 204 211 212 207 202 195 191 193 196 198 191 178 161 151 143 137 139 138 139 138 143 150 164 179 188 187 180 179 180 186 199 202 193 185 185 174 157 160 155 149 67 5 12 15 14 14 14 18 18 23 26 25 28 34 42 45 42 27 60 62 62 52 47 47 40 48 41 35 32 43 48 38 36 34 27 21 27 14 10 105 126 101 134 167 180 187 189 185 187 199 207 201 196 206 214 213 206 202 195 192 190 194 198 201 198 192 186 184 181 180 182 186 186 190 191 191 185 182 180 183 186 194 205 200 189 183 175 161 155 156 149 104 10 10 16 18 17 14 18 18 21 26 26 26 31 43 52 57 56 58 60 61 62 58 54 52 44 39 41 36 33 41 47 39 38 35 34 22 24 20 11 88 155 122 105 142 170 182 187 186 184 189 199 204 196 201 211 215 212 205 203 199 195 193 193 193 193 193 195 196 194 192 190 193 191 190 189 187 185 186 188 187 196 205 205 195 184 177 164 152 151 149 118 63 23 24 23 23 24 22 23 23 29 26 26 26 37 50 57 57 58 60 61 58 60 62 56 56 53 44 40 38 38 45 45 39 40 35 37 32 27 28 21 73 157 160 126 111 148 172 182 188 184 184 191 200 202 197 203 212 216 212 208 207 202 201 201 201 199 198 200 197 193 191 191 192 196 198 197 195 196 198 194 197 207 210 203 190 177 166 152 150 147 120 81 82 62 49 44 42 35 32 36 38 42 30 29 32 32 53 53 26 24 25 62 58 58 63 59 58 56 55 46 35 36 40 39 38 41 41 35 37 32 31 30 59 150 165 166 123 111 152 173 181 183 182 184 192 199 197 198 208 215 217 212 212 212 212 210 209 212 211 210 209 208 206 204 208 211 211 210 210 208 202 201 208 212 206 197 183 168 151 148 148 122 84 107 106 66 64 62 62 57 55 56 56 54 44 34 29 20 35 52 37 29 25 63 61 58 61 58 56 59 58 53 47 42 34 40 36 37 40 36 27 29 35 42 71 144 168 172 165 120 120 157 175 184 182 181 183 190 195 195 203 211 216 217 214 215 217 216 218 219 221 222 222 222 220 220 220 222 221 218 213 209 206 207 210 207 203 190 174 156 141 146 122 87 119 140 110 66 65 65 64 65 65 63 63 64 62 35 16 9 12 38 59 61 64 66 61 59 61 61 57 60 60 57 55 54 39 40 38 33 37 46 39 37 47 52 81 141 168 172 177 170 120 123 163 181 180 177 177 184 190 193 198 206 214 217 216 216 217 219 221 223 225 225 226 226 225 226 225 222 219 216 213 210 209 208 203 202 197 177 162 143 144 120 88 132 152 138 110 68 64 66 66 65 65 65 64 65 65 52 18 6 6 15 46 64 71 71 63 59 59 60 58 57 57 56 57 60 56 48 41 37 33 42 48 50 55 54 93 142 164 176 178 184 169 121 123 158 175 173 171 175 184 191 195 202 208 214 216 216 216 217 222 224 226 225 223 225 227 224 223 219 218 216 213 212 207 203 201 200 186 168 150 140 116 91 142 164 148 140 115 74 64 67 67 66 65 66 65 64 65 63 41 10 6 6 26 57 67 84 68 60 58 58 58 56 58 57 57 60 63 63 57 54 44 44 48 56 57 56 116 145 163 177 184 181 187 172 123 110 147 169 170 167 171 184 190 192 201 210 213 216 217 218 219 223 226 226 223 223 223 222 222 221 219 215 210 205 201 198 199 195 175 155 139 103 94 154 175 157 152 143 120 81 63 67 65 65 65 65 64 65 63 64 59 23 6 8 14 52 47 106 82 64 61 60 58 57 56 58 55 62 59 59 64 65 57 54 55 57 56 70 138 146 164 177 186 187 188 191 182 130 105 137 164 165 161 170 183 188 196 206 208 213 214 216 219 219 224 222 222 221 220 221 221 221 218 215 206 199 195 196 198 183 159 132 90 102 164 182 166 163 160 145 125 88 63 67 66 64 66 66 65 65 64 64 63 31 6 8 11 50 75 130 107 76 61 59 59 58 58 55 56 60 55 57 59 60 60 59 57 58 52 99 153 151 160 181 186 190 191 190 192 191 148 98 110 154 164 157 168 183 189 197 205 210 212 212 215 219 219 218 218 218 216 218 218 218 212 207 199 192 192 197 190 167 132 81 116 180 186 174 172 172 160 140 130 103 62 66 66 65 66 66 65 65 65 65 64 36 6 8 9 48 92 137 127 95 66 60 58 59 57 55 55 60 55 59 58 58 58 57 58 57 61 133 158 153 158 177 188 191 194 196 193 195 198 168 108 90 129 155 157 171 182 188 197 205 209 210 211 214 217 216 215 215 211 212 213 212 207 201 196 193 194 189 175 139 90 117 186 186 180 182 180 173 159 138 137 119 67 65 66 66 66 66 65 65 66 65 67 44 9 9 10 47 94 145 140 119 83 63 59 58 57 56 55 57 58 57 57 59 58 57 59 52 88 156 159 157 160 173 186 192 195 200 200 196 198 201 189 144 90 88 119 146 173 181 187 197 201 207 208 210 210 210 210 208 207 209 207 204 203 197 194 193 187 179 149 91 104 183 188 184 188 189 181 171 156 137 136 134 84 63 66 66 66 66 66 66 67 69 67 51 13 12 12 47 102 154 149 137 109 77 63 59 56 56 56 58 56 56 59 60 59 59 60 59 127 164 162 161 160 171 183 191 197 198 202 203 202 198 198 201 179 122 80 75 109 160 181 187 193 199 203 205 205 206 204 204 204 202 198 197 195 192 190 184 177 148 94 94 168 189 185 191 193 189 179 166 154 138 138 142 107 64 66 66 66 67 68 68 72 72 70 57 18 14 17 49 115 163 160 152 135 107 75 61 58 57 57 56 57 56 58 59 59 60 60 86 157 169 165 163 161 170 183 190 198 201 203 204 205 205 200 198 200 199 174 116 67 86 139 173 187 190 194 197 199 199 199 198 197 196 194 193 192 189 183 169 138 87 84 158 193 188 191 195 192 186 178 166 153 137 144 144 129 77 64 66 67 68 70 74 80 80 74 66 29 18 24 50 120 172 167 164 153 133 102 75 61 59 59 57 57 58 59 59 60 60 58 118 168 173 172 167 162 167 182 188 195 202 207 206 206 206 208 204 199 198 201 195 144 80 72 102 145 173 184 186 185 187 187 188 189 189 189 187 180 168 144 113 81 85 150 193 194 196 196 194 192 185 175 164 151 140 153 150 140 106 66 68 70 70 73 80 83 80 76 74 39 21 32 52 120 173 171 168 162 149 129 102 73 60 58 57 58 58 60 62 60 57 79 153 171 177 174 171 164 167 180 188 194 201 205 207 209 209 209 210 207 199 196 196 198 161 97 67 71 90 117 146 161 165 172 171 173 169 157 142 127 102 84 76 91 157 196 196 198 201 199 195 192 186 175 165 152 141 157 157 144 131 84 71 74 76 80 89 89 82 81 84 55 28 39 51 113 172 172 169 168 161 150 137 108 79 63 59 59 60 61 63 57 62 126 167 177 182 177 171 169 168 178 188 196 201 205 206 209 209 209 211 212 206 200 196 197 198 178 134 92 68 62 75 84 91 98 96 96 94 83 71 72 74 83 121 174 199 194 196 202 202 200 196 191 184 173 165 153 142 159 160 150 140 115 87 83 85 92 96 92 86 89 98 76 39 43 49 105 172 172 170 170 169 165 160 149 123 93 74 65 63 63 63 68 119 158 173 181 185 180 175 174 172 179 187 196 200 202 205 209 211 209 210 213 212 209 206 200 197 199 194 177 140 108 88 79 80 76 73 73 71 72 87 107 133 169 196 202 197 197 201 205 202 198 194 189 183 175 165 150 144 160 161 157 143 135 120 108 107 108 108 103 99 108 120 102 49 46 46 97
