P2
# Generated by OpenCV 4.2.0
92 112
255
134 142 154 159 154 153 138 130 137 141 143 145 153 157 163 150 147 156 162 166 169 187 177 174 180 153 125 144 155 147 134 151 176 171 184 194 190 198 195 188 185 184 183 171 163 157 162 158 149 170 179 175 165 168 172 157 143 160 163 147 130 117 129 137 143 156 139 100 121 136 93 88 136 119 114 116 109 110 107 107 105 103 97 117 129 126 125 128 130 126 138 142 137 148 159 158 154 146 131 132 137 142 140 151 155 161 156 148 150 160 163 172 184 182 176 168 146 133 131 129 131 153 158 149 166 174 180 188 190 196 194 195 190 191 187 177 170 161 166 181 181 169 174 179 174 171 166 164 167 166 157 155 151 143 137 135 126 117 126 137 122 107 114 100 97 124 117 114 112 109 109 107 105 104 101 102 125 125 124 124 127 125 129 141 146 159 160 158 151 135 127 140 137 135 145 151 157 152 150 149 155 162 171 184 183 173 158 132 116 122 140 161 171 172 190 192 187 196 202 203 206 204 204 205 205 203 197 195 191 180 171 181 188 187 187 184 179 180 181 176 175 167 157 151 145 139 142 149 135 120 107 107 114 110 99 103 102 96 122 119 115 112 109 108 105 103 100 96 106 121 121 122 123 124 121 132 159 162 160 157 145 126 133 140 132 141 147 152 152 148 148 148 159 172 184 178 173 158 134 130 143 170 177 184 188 194 194 206 206 203 207 208 207 206 207 207 207 205 205 202 199 190 179 183 185 188 188 193 192 191 190 190 183 177 175 166 155 153 153 150 138 132 129 107 80 77 104 106 107 102 93 122 121 116 113 107 101 102 98 98 91 110 120 119 121 123 122 125 161 158 154 147 132 121 140 133 136 145 144 150 147 147 148 158 169 180 179 175 163 133 143 173 181 187 198 197 199 202 205 205 204 205 207 204 206 206 207 206 206 206 206 205 203 200 196 195 192 191 187 184 184 184 185 185 185 183 178 172 160 153 140 136 136 128 127 130 113 86 68 88 113 102 93 90 121 122 117 110 102 99 101 99 93 93 117 118 116 121 122 120 159 154 148 138 122 129 142 135 140 142 150 147 146 145 155 168 178 178 176 168 136 150 176 188 191 197 203 206 208 206 205 204 205 205 207 206 205 207 207 206 207 206 205 205 203 201 202 204 203 200 197 196 197 196 196 193 192 190 185 182 178 166 159 147 132 123 124 118 121 122 104 74 83 110 109 100 96 122 122 113 108 98 97 99 97 87 101 119 113 114 119 116 157 151 142 134 112 139 142 140 138 146 146 139 146 155 163 171 174 176 170 134 149 178 194 199 203 202 201 205 205 205 205 205 206 208 207 207 208 207 208 205 205 205 205 205 202 202 205 203 203 202 202 204 203 199 197 196 197 194 192 189 189 184 178 173 163 144 124 121 120 120 126 112 86 85 113 113 100 92 122 119 111 104 95 98 99 93 88 109 117 111 115 115 153 147 138 123 110 142 142 134 136 143 140 144 152 157 171 174 171 175 136 149 184 195 191 197 201 200 201 204 205 206 206 206 205 206 206 206 208 208 208 204 205 204 204 203 202 202 204 203 202 202 201 202 201 199 197 196 197 193 193 189 186 183 177 173 168 160 140 124 115 117 119 123 113 90 87 110 112 94 93 122 112 109 101 95 95 95 89 94 111 111 110 115 150 142 136 109 123 147 135 134 134 136 134 143 148 166 171 168 174 145 137 187 191 191 191 198 203 203 202 206 206 205 206 207 206 207 208 206 205 206 205 205 204 204 205 203 203 205 203 202 198 200 200 200 200 198 196 194 193 192 191 186 183 179 175 169 167 162 149 135 119 114 112 116 124 108 89 92 107 109 87 94 119 105 101 98 93 94 91 88 101 112 106 107 145 136 129 101 140 139 132 136 133 133 137 140 161 172 166 168 154 129 181 195 192 195 195 199 202 204 205 207 208 209 208 206 206 202 208 210 208 208 208 203 203 201 203 201 201 204 203 201 199 199 200 199 199 200 200 196 195 189 190 190 182 179 174 169 166 164 157 147 140 124 117 112 116 122 112 91 94 104 105 82 106 116 100 100 97 93 93 89 87 109 112 104 140 133 114 108 147 132 134 133 132 127 138 152 170 169 163 168 138 167 196 188 192 196 198 200 202 204 206 207 209 208 206 205 208 206 208 208 209 209 208 208 209 206 204 203 203 205 205 202 198 198 197 199 198 198 200 196 197 188 189 187 183 180 177 173 169 165 162 153 146 138 119 115 109 110 121 114 94 98 102 98 81 113 111 100 99 94 91 91 84 91 114 105 138 132 96 125 141 133 131 130 125 133 148 162 165 162 163 154 152 190 189 190 195 199 202 205 203 205 207 207 209 206 208 209 212 214 214 213 213 209 211 209 207 209 205 205 207 205 205 205 203 202 199 200 199 198 199 197 197 191 189 188 185 181 177 175 171 167 162 154 146 143 135 122 112 102 105 124 118 103 97 99 86 88 115 94 89 96 93 89 86 78 98 110 137 127 87 139 134 135 136 128 125 137 153 161 161 157 156 146 177 189 186 191 199 200 198 198 201 203 205 209 209 209 210 212 210 213 213 213 214 214 210 207 206 209 207 208 205 207 207 206 206 205 205 203 199 199 200 197 195 195 190 186 182 178 177 177 171 166 162 153 148 142 134 133 126 122 107 105 123 118 105 96 93 80 102 105 83 92 93 92 89 80 81 103 138 109 97 139 129 136 132 121 128 142 157 161 164 151 152 167 184 183 186 190 195 199 197 198 199 201 203 207 212 215 215 215 218 217 217 221 217 218 214 213 216 215 213 210 208 210 208 209 209 209 206 207 206 201 203 201 198 196 189 184 179 179 179 176 171 163 161 156 148 142 136 131 131 129 126 102 105 126 114 105 92 86 84 108 93 84 91 91 88 84 74 89 136 88 113 133 129 133 123 124 138 150 159 159 152 144 166 183 180 183 188 193 194 198 200 203 202 205 207 210 212 212 215 217 220 216 214 212 217 220 221 220 219 218 211 212 213 214 213 214 214 212 211 209 209 205 203 203 199 194 189 184 180 178 176 173 170 164 157 154 150 144 139 136 128 130 134 114 95 111 118 100 100 94 84 89 101 85 83 93 89 84 78 83 123 84 128 129 130 128 124 130 144 150 161 155 143 154 174 184 181 186 191 193 194 197 200 203 204 208 211 215 215 216 220 221 223 221 218 214 213 214 213 216 216 220 220 219 218 219 218 217 216 212 213 209 207 202 199 199 196 188 189 184 180 177 174 169 163 158 154 153 153 150 142 137 132 126 134 127 105 91 111 101 101 98 95 85 96 93 82 88 89 86 81 79 98 92 135 126 128 126 132 141 143 160 155 145 138 162 173 183 184 184 189 193 193 195 200 201 204 206 208 211 214 217 220 221 225 223 223 221 219 219 220 211 209 210 212 215 214 213 212 214 210 209 209 211 206 202 200 201 197 192 189 185 181 177 174 170 162 156 152 149 151 147 141 138 134 127 127 129 118 96 99 105 90 98 92 83 89 92 83 84 91 88 82 77 71 104 134 128 124 132 138 142 153 155 148 122 142 169 174 180 185 186 188 191 196 198 199 201 204 206 211 215 214 215 218 219 222 223 219 219 221 220 219 219 218 215 216 215 212 212 214 214 217 219 216 216 211 209 201 201 198 194 187 185 183 179 172 166 160 156 154 141 145 143 140 136 133 125 123 118 118 108 92 105 96 88 99 84 83 84 87 80 91 91 85 80 74 120 128 130 133 140 142 141 154 146 131 119 156 175 171 176 182 186 187 189 193 198 200 203 205 209 215 217 218 217 216 220 222 223 221 220 221 219 220 224 221 221 223 219 219 219 219 218 219 218 216 213 212 208 202 202 199 194 190 185 182 176 174 167 159 155 153 136 137 146 140 137 133 127 123 119 119 107 88 90 100 86 87 100 77 80 86 82 81 88 86 81 88 128 134 139 136 138 136 147 144 134 110 122 160 172 171 181 182 186 187 189 190 192 195 199 202 204 207 210 209 212 211 212 214 213 214 216 217 219 218 222 221 220 219 217 218 218 215 217 217 216 216 213 213 209 195 203 199 191 189 185 181 176 170 168 158 152 149 151 146 144 142 135 134 128 124 120 118 107 90 74 87 91 80 90 89 77 82 83 80 81 85 84 116 133 133 129 132 137 136 144 137 112 98 127 167 175 176 184 183 186 188 187 185 188 193 197 202 205 206 211 207 212 216 215 218 217 217 213 213 218 217 216 219 217 214 215 214 215 213 215 215 216 216 214 212 209 202 201 198 191 185 183 182 176 175 169 162 156 152 152 148 143 140 134 131 128 125 121 118 110 91 80 63 89 90 73 89 80 81 81 87 80 85 84 133 130 132 124 133 140 143 143 132 94 101 144 166 177 181 183 181 185 188 189 191 194 196 197 201 208 210 212 214 214 212 213 215 216 215 212 211 212 215 218 217 214 215 214 213 212 212 213 216 216 216 210 209 208 206 198 196 192 186 185 181 176 174 168 166 162 155 150 148 143 137 136 129 126 122 121 118 112 93 86 87 69 89 70 77 82 75 82 81 85 81 84 128 131 131 124 132 138 142 145 114 95 121 157 166 174 182 183 185 188 190 189 189 190 195 198 199 204 211 212 212 213 211 213 214 211 209 216 218 213 214 212 210 213 211 211 213 211 212 213 214 212 211 207 210 206 202 195 191 186 185 184 180 176 172 166 164 159 155 152 147 142 138 134 130 126 122 119 115 106 99 87 90 83 68 81 64 81 67 77 79 79 79 84 127 136 126 121 132 136 147 130 98 105 141 153 164 174 184 185 186 188 189 188 189 190 193 198 199 203 209 211 214 214 212 211 212 213 215 216 214 212 212 213 210 208 208 210 209 207 209 210 209 208 206 205 201 199 194 191 191 188 186 181 180 176 170 166 161 160 153 149 145 142 139 135 129 127 124 120 114 110 107 90 85 88 77 84 65 72 66 65 82 74 75 79 122 137 115 119 133 142 133 120 97 109 141 155 166 176 182 186 185 186 189 189 187 188 194 196 199 202 205 206 209 206 205 208 211 211 214 212 209 210 210 209 209 207 204 205 207 206 205 206 208 207 203 202 201 200 198 195 194 191 188 185 179 175 173 171 166 163 156 151 146 140 137 134 131 130 124 119 117 112 106 104 85 80 72 75 79 69 69 62 71 79 76 79 123 129 113 125 142 135 126 111 102 108 144 156 162 177 183 184 183 187 185 186 188 188 190 196 199 201 205 209 209 212 213 213 211 210 211 210 209 213 213 212 211 209 205 207 208 210 211 210 209 209 206 205 205 203 199 196 192 191 190 184 179 175 170 170 167 162 157 153 149 141 136 132 132 127 124 116 113 113 105 106 95 76 77 71 84 67 66 64 64 79 79 80 133 126 115 130 140 131 131 112 100 127 156 158 161 173 179 182 185 185 184 187 187 187 192 196 198 201 206 210 212 212 214 211 213 212 213 214 211 206 208 209 210 207 205 208 210 210 209 208 209 206 206 206 205 203 198 195 191 190 190 186 179 177 173 168 163 161 155 153 148 141 139 136 132 127 123 123 111 108 107 98 99 72 65 77 84 77 65 72 71 70 72 75 137 132 117 138 137 135 115 93 104 153 162 154 161 171 177 185 186 184 184 186 189 190 193 195 196 203 204 208 211 213 213 213 211 208 209 209 209 208 207 206 207 206 202 205 208 208 203 202 206 204 204 202 203 201 197 191 192 194 188 185 179 176 174 169 166 162 155 151 146 143 140 135 132 126 122 123 113 104 102 102 93 87 63 77 81 78 69 64 65 56 66 74 137 127 124 143 141 129 102 91 131 167 164 154 160 170 181 185 186 187 187 186 188 191 192 195 199 202 207 209 212 212 212 213 211 208 211 211 207 208 207 207 207 208 206 205 208 208 204 203 205 205 202 200 201 200 194 195 194 191 186 185 179 176 175 171 165 161 156 151 147 143 139 136 133 126 122 119 114 109 101 99 90 81 67 62 81 82 65 53 55 59 52 68 134 122 133 136 138 109 93 113 156 172 166 154 152 171 183 185 186 187 189 187 189 193 194 195 198 200 203 205 210 210 209 210 209 209 209 210 208 207 206 204 204 205 203 207 205 206 203 204 206 204 202 201 202 198 199 196 192 189 185 183 179 176 176 173 163 158 156 152 145 143 142 139 135 127 122 118 110 108 104 98 95 78 74 61 72 79 73 65 52 59 56 51 131 133 130 122 130 93 97 134 171 174 169 159 149 165 179 183 187 188 186 187 190 190 192 194 197 200 200 202 206 207 206 209 207 208 207 208 209 208 205 206 204 199 206 209 205 203 202 202 203 202 201 202 198 197 195 194 192 189 186 180 180 179 174 171 164 161 155 150 149 148 144 141 137 131 123 114 111 103 101 100 95 87 72 75 62 71 69 77 68 58 66 61 134 132 117 135 112 88 120 161 175 173 172 164 152 163 173 182 187 185 180 189 192 191 192 192 193 197 198 198 203 209 207 206 208 203 204 201 202 206 206 203 199 202 204 205 204 203 200 201 201 200 197 200 199 196 196 194 191 189 185 180 179 179 174 170 166 161 155 151 153 147 147 144 138 131 125 116 107 103 101 101 97 91 80 74 68 67 74 65 78 77 72 60 138 124 125 137 101 94 143 171 173 172 174 170 154 163 176 184 189 190 191 188 188 193 191 192 191 191 193 195 201 202 203 201 206 206 202 199 200 203 203 199 200 200 201 201 199 200 193 195 196 195 196 197 195 193 193 193 190 191 186 181 175 176 175 170 165 163 158 154 153 151 151 148 143 129 120 115 108 104 101 101 98 96 94 83 73 67 76 69 63 65 65 64 108 112 128 118 83 118 160 169 173 178 176 171 154 160 175 187 193 196 185 185 193 190 190 194 186 187 192 196 197 195 195 200 200 196 197 200 198 195 198 196 198 195 194 196 195 194 189 190 189 190 192 188 191 192 190 188 190 188 183 182 175 173 170 165 166 162 160 161 157 155 152 149 143 131 120 112 105 106 103 100 99 102 102 96 78 70 64 71 70 68 65 63 148 129 130 108 77 140 168 171 175 178 176 173 159 159 173 173 155 146 149 162 170 168 171 174 175 189 192 192 190 192 185 183 188 185 188 191 189 191 194 192 192 193 195 193 193 192 183 184 190 188 185 186 188 188 189 188 190 183 176 176 174 170 160 160 161 163 163 162 160 160 155 148 141 135 120 109 104 108 104 102 105 107 107 99 85 73 55 61 67 63 62 63 189 147 114 100 103 147 173 171 171 177 176 175 162 155 135 105 92 95 106 108 116 118 116 115 125 139 147 157 151 134 154 152 167 173 180 177 179 182 188 189 190 191 192 189 190 189 180 182 182 182 181 183 178 183 189 186 178 178 175 169 165 154 147 146 142 147 151 145 153 152 152 149 144 135 122 109 102 106 107 105 106 107 106 102 94 79 56 51 58 65 65 52 193 162 112 108 97 138 176 172 174 176 177 175 128 94 81 77 77 88 80 64 70 64 71 88 88 77 75 89 105 111 102 109 133 153 171 164 174 179 183 184 186 186 186 187 187 186 180 178 176 175 176 163 164 162 149 135 128 127 129 123 108 98 99 96 99 100 104 99 106 110 119 123 126 130 120 106 104 104 103 106 109 108 105 101 98 87 58 44 55 56 60 60 190 173 125 118 64 143 174 174 172 174 177 128 56 63 72 71 69 72 69 62 61 56 55 66 63 67 67 66 67 77 102 94 102 123 151 157 166 174 183 181 183 187 181 181 182 182 175 171 171 163 152 138 132 105 84 82 79 71 65 60 48 46 49 51 52 62 67 71 61 51 55 66 72 98 120 107 110 108 107 105 107 108 102 100 94 86 61 35 56 70 64 63 146 166 129 113 78 150 172 175 172 177 150 78 71 76 81 88 85 83 74 69 60 58 56 54 56 56 57 56 58 66 69 85 111 114 129 141 154 164 177 178 179 180 177 177 178 173 169 166 160 149 125 114 88 74 60 57 49 50 56 53 46 50 55 55 50 51 52 51 44 51 54 56 53 55 80 101 110 107 110 111 109 106 103 102 99 88 66 37 37 60 68 74 83 141 142 117 90 151 173 172 175 175 128 88 94 110 121 126 129 115 111 104 94 89 78 65 62 58 59 59 62 67 76 81 104 117 125 135 155 167 177 180 179 179 178 177 176 172 162 158 159 142 117 110 91 75 63 53 47 46 43 43 45 43 48 49 50 50 55 58 61 75 79 73 63 46 35 56 84 101 106 107 108 106 107 105 102 93 70 49 26 52 68 77 126 154 154 123 90 156 174 172 173 165 124 109 114 127 135 131 139 151 142 135 138 141 143 138 127 108 90 82 79 81 86 102 109 117 123 137 152 163 172 178 182 183 180 175 169 159 155 151 150 135 114 103 86 76 66 59 52 49 45 42 39 46 54 62 66 68 74 76 85 87 86 76 72 67 55 43 47 68 102 107 109 108 110 108 103 97 63 52 46 58 75 85 136 168 163 125 92 162 172 172 171 154 133 145 147 144 144 150 151 158 158 156 152 151 158 157 150 147 143 139 124 107 93 92 106 120 131 138 148 156 164 173 181 176 179 173 165 156 152 145 137 126 110 104 92 83 70 59 59 60 63 78 98 111 117 118 125 126 128 129 126 112 95 89 79 70 63 52 43 52 78 103 113 111 110 104 102 95 60 41 49 77 89 90 139 171 175 133 112 166 171 170 169 153 143 152 154 152 158 165 164 159 158 155 150 144 138 130 120 112 108 109 113 125 125 106 97 100 116 137 146 151 166 178 174 169 175 172 163 153 144 134 121 107 100 91 75 64 64 75 92 113 132 153 163 169 165 159 156 155 150 144 138 123 119 110 97 89 82 66 58 59 66 95 111 114 110 104 100 89 69 41 45 65 77 88 144 176 189 138 114 165 173 170 170 159 159 159 150 148 157 162 164 161 158 136 109 114 123 117 123 125 119 102 89 75 94 124 125 114 108 110 127 147 167 176 175 184 180 168 158 147 128 112 100 90 75 62 66 83 98 97 88 98 109 128 138 131 122 124 123 143 142 136 131 131 122 120 116 101 92 85 76 75 75 97 113 113 107 107 103 87 67 52 48 67 82 95 145 180 189 143 129 168 174 174 171 163 161 167 161 146 149 151 161 140 100 110 112 107 96 79 59 44 45 54 79 109 92 82 109 126 121 114 110 133 160 175 185 192 181 169 155 136 115 103 92 77 66 82 102 105 73 80 97 98 76 66 73 60 62 46 58 82 83 87 109 108 115 113 103 98 92 92 82 80 86 101 110 108 102 104 103 93 62 49 60 76 102 79 142 181 195 152 144 172 172 177 171 167 160 168 163 154 147 142 119 94 91 90 50 12 7 10 20 35 36 22 14 24 72 113 100 117 126 120 122 122 151 176 187 188 184 176 158 136 116 100 82 73 91 118 120 90 112 118 58 27 16 28 38 14 13 17 22 26 40 44 48 65 87 100 103 98 87 89 90 92 97 101 103 100 104 106 102 96 72 51 63 96 83 71 150 184 193 164 147 167 172 176 172 172 162 162 174 147 129 108 75 89 39 8 10 26 22 31 47 43 41 62 53 59 54 63 120 129 138 139 135 131 143 176 191 200 197 181 159 140 118 89 81 86 106 126 117 127 123 42 86 65 37 66 38 18 28 24 14 16 12 18 25 32 38 73 100 99 111 112 105 112 110 104 95 95 104 106 102 96 76 59 62 61 54 75 150 186 185 160 149 165 171 175 173 175 176 163 164 141 87 48 31 7 8 12 26 52 33 41 61 22 33 80 62 119 175 102 74 135 166 163 158 146 150 172 193 207 205 185 161 144 116 88 90 91 114 136 139 108 47 119 200 122 62 82 35 31 78 60 44 59 31 11 9 13 33 64 88 98 98 106 122 115 102 96 95 102 108 106 101 99 86 69 64 44 53 81 145 185 183 161 148 163 168 172 172 173 177 178 172 157 112 46 39 35 34 56 77 99 103 95 109 94 92 92 77 116 153 128 88 98 145 185 174 162 167 172 194 210 209 190 169 145 112 100 99 101 147 137 93 62 86 132 169 138 76 82 89 93 110 102 102 116 105 58 31 13 14 51 83 78 91 109 103 101 107 111 114 110 106 106 104 98 90 72 56 47 64 85 148 192 187 168 157 161 165 170 178 179 180 179 174 171 165 139 118 87 121 140 146 152 150 153 153 138 152 151 137 125 124 125 122 124 121 171 187 173 172 176 197 209 212 197 174 151 116 115 118 125 134 92 109 141 151 140 136 138 129 122 121 126 127 140 129 120 125 111 83 71 67 70 84 98 110 120 130 141 141 132 117 107 105 105 105 99 89 79 63 60 69 87 142 197 196 182 168 158 162 168 179 185 187 189 188 184 179 172 158 151 161 161 168 182 176 179 168 155 159 160 166 157 156 161 169 170 178 191 194 176 175 183 198 208 212 193 175 157 125 119 127 136 159 169 176 171 168 171 168 173 175 181 177 161 153 154 150 142 129 121 113 123 133 139 144 145 149 151 149 145 140 128 115 108 106 105 105 101 96 90 73 74 85 94 137 199 205 189 176 158 158 166 175 182 186 189 190 190 192 188 188 182 173 170 171 170 169 175 173 165 156 151 156 157 158 170 177 190 201 199 187 187 183 189 200 208 209 194 179 161 133 125 141 134 162 181 179 170 163 161 163 165 168 166 159 155 152 144 142 143 143 140 145 147 154 164 172 170 169 162 155 147 139 131 120 110 107 105 103 99 99 103 88 99 110 105 133 192 207 188 181 160 155 163 172 179 183 185 189 191 192 191 190 185 180 177 175 175 170 168 166 161 154 152 154 152 151 161 168 179 191 192 189 191 187 192 197 202 203 198 180 161 139 133 147 148 139 160 177 171 168 159 157 160 160 159 157 156 154 155 154 153 151 147 153 165 172 175 175 172 167 159 153 147 138 131 121 114 106 102 101 102 99 104 101 119 134 109 137 184 204 189 178 162 154 160 169 176 180 183 184 186 191 193 193 191 191 185 180 176 172 167 165 165 164 166 164 167 174 174 185 190 194 195 191 189 186 192 197 201 202 198 177 159 145 135 142 157 154 152 174 185 183 172 170 170 169 170 169 169 170 164 162 157 154 164 174 177 179 178 176 174 171 164 152 140 138 133 125 114 107 103 99 97 95 104 108 119 113 104 147 180 197 198 181 162 153 157 168 173 177 180 181 182 186 188 186 186 186 183 177 179 177 177 179 179 182 183 186 190 190 191 196 196 198 193 191 188 187 192 198 202 200 192 174 161 149 136 144 159 166 162 170 185 189 184 187 182 177 173 171 168 166 163 162 164 171 179 182 185 180 176 172 168 161 158 153 139 135 130 124 115 107 102 99 96 93 101 115 114 98 113 150 183 181 199 189 168 154 158 165 170 175 178 179 182 187 191 191 191 194 197 199 197 196 195 193 197 196 197 198 199 197 199 199 199 195 193 189 188 189 192 198 202 198 189 175 162 150 142 144 153 167 175 167 172 188 190 191 194 196 189 191 195 192 194 195 192 193 195 195 193 190 181 172 165 157 151 149 144 136 131 126 116 107 99 97 94 92 94 96 101 104 128 147 189 177 190 188 167 155 156 165 169 175 178 182 183 189 190 193 192 193 196 197 196 196 195 196 199 196 197 195 195 197 201 200 193 192 191 188 188 191 192 196 198 193 191 178 166 151 145 145 151 165 174 176 173 181 189 189 189 195 195 195 197 193 191 189 192 191 190 191 191 186 179 167 164 158 153 148 138 134 125 121 117 109 101 95 93 89 68 83 108 116 118 143 189 192 198 200 185 159 155 164 170 175 179 182 183 189 191 194 198 197 197 198 197 196 192 195 196 195 196 197 197 198 200 197 192 190 190 189 189 188 191 196 197 195 189 181 168 154 149 148 153 162 171 180 182 184 187 192 193 194 193 194 192 191 190 190 189 190 188 190 190 182 179 172 162 157 149 140 135 133 127 114 111 106 102 100 94 89 81 105 125 131 107 133 184 202 200 203 203 168 153 163 173 175 178 183 187 187 191 195 195 196 195 192 192 194 195 197 197 197 199 200 199 199 197 195 192 192 192 191 190 188 194 198 199 193 189 184 169 156 147 149 155 162 172 179 182 186 190 194 196 197 201 200 199 196 194 190 191 192 189 188 187 178 176 171 164 155 148 136 133 130 124 116 110 103 102 101 89 94 109 120 129 137 129 127 175 197 202 202 207 172 152 165 173 177 179 185 188 189 195 196 196 196 195 195 194 195 200 201 200 199 199 199 199 200 196 194 195 191 191 192 190 189 196 198 196 194 192 186 171 158 145 148 156 165 173 178 182 186 193 195 196 201 205 206 204 203 199 197 196 192 193 191 186 175 169 168 163 151 146 138 134 127 123 115 106 102 99 100 89 95 112 120 128 148 141 123 175 198 202 203 206 180 152 165 172 177 180 185 189 191 193 196 199 198 198 202 202 203 204 204 203 202 200 199 204 204 202 202 200 190 193 193 189 192 197 197 201 199 193 186 172 159 149 146 152 161 172 178 183 190 194 198 200 202 207 209 209 206 206 206 200 196 194 192 185 177 170 165 161 154 147 138 132 127 118 112 100 98 97 101 93 100 107 119 133 148 141 123 173 201 202 203 209 186 152 165 171 176 181 187 187 191 191 197 200 203 204 206 209 210 209 208 207 204 207 213 215 213 207 204 196 186 188 189 192 197 199 201 203 201 194 185 174 161 150 144 142 149 158 171 184 193 202 206 205 207 207 211 215 211 208 206 203 197 185 188 184 177 171 164 160 153 145 138 131 127 117 105 99 95 97 102 103 107 109 104 129 148 149 118 162 193 201 221 178 160 156 162 170 176 181 184 187 192 195 200 200 204 209 210 212 214 213 213 218 217 218 217 209 199 189 181 179 181 182 183 193 198 201 203 203 201 195 184 175 165 149 136 136 138 142 156 171 185 195 199 205 207 210 209 208 208 207 203 201 197 192 186 184 176 170 166 161 151 142 134 129 122 114 106 97 92 95 107 117 110 89 113 152 150 141 126 142 182 186 183 181 142 154 160 169 173 178 181 189 193 196 201 202 203 209 211 213 212 210 213 216 210 205 195 187 176 162 164 177 185 183 182 190 194 196 199 198 201 194 185 178 164 145 129 134 140 146 145 147 165 179 189 193 198 205 203 202 204 203 202 199 195 189 185 181 173 166 162 159 150 143 134 128 117 108 101 96 89 97 104 116 115 90 154 148 138 129 137 128 168 169 147 182 183 151 160 168 172 176 178 187 191 190 195 201 204 203 205 204 204 202 203 199 191 183 177 163 146 144 165 186 191 189 180 186 192 193 194 195 196 192 185 181 168 147 129 144 153 154 147 135 144 159 173 185 189 189 195 194 196 196 195 191 190 185 179 177 171 166 159 150 142 138 135 125 115 106 97 92 88 98 101 106 115 85 150 159 143 115 152 131 147 172 180 183 155 151 157 164 172 179 180 186 187 185 188 193 195 192 194 194 191 190 188 182 176 169 151 128 125 145 175 188 191 188 180 185 193 202 201 200 202 192 187 182 171 146 130 145 159 157 149 136 130 142 151 165 178 184 185 187 188 188 187 185 185 180 175 171 168 163 158 148 143 138 130 122 109 99 96 89 86 100 88 99 113 90 77 109 117 83 159 140 150 134 142 139 148 159 154 164 170 179 179 181 182 184 188 188 187 189 189 186 181 185 178 169 160 146 120 122 153 154 172 185 189 183 177 187 197 201 199 209 210 197 186 179 164 142 130 144 155 154 149 133 109 134 147 148 155 171 178 182 180 174 180 180 177 174 169 167 163 159 154 148 142 135 126 115 103 96 89 86 85 99 46 77 106 106 100 88 58 42 165 146 147 122 88 129 148 148 154 161 167 172 174 177 178 180 183 183 182 186 187 179 177 176 166 156 141 117 125 168 189 185 173 181 187 180 176 190 199 207 209 217 224 205 186 174 154 136 129 139 147 146 139 120 105 145 156 156 148 148 164 175 177 172 176 176 176 170 166 164 161 152 149 145 138 131 116 96 98 93 86 83 88 99 24 22 61 77 72 52 37 40 175 150 153 138 60 45 46 87 154 155 163 166 172 175 173 179 179 180 177 177 179 176 173 165 154 141 120 129 177 195 196 202 181 169 179 174 173 184 189 209 213 210 205 193 177 168 149 127 123 130 132 126 121 103 122 152 160 159 162 149 143 157 170 170 171 169 172 168 162 161 157 149 145 140 137 126 113 100 91 86 81 81 89 94 23 9 19 33 33 36 40 46 180 158 153 145 78 50 42 58 144 152 157 163 169 170 171 173 175 172 168 171 171 167 160 153 141 120 129 176 195 197 200 203 193 162 155 164 165 173 184 188 186 189 188 178 165 151 131 113 111 115 108 104 85 84 131 147 161 165 163 167 151 142 153 162 164 166 164 161 158 156 152 146 140 133 130 118 108 99 88 83 80 79 90 87 21 16 30 37 38 43 40 54 188 170 155 148 92 56 47 50 135 152 149 157 162 167 165 166 167 169 168 166 161 157 152 140 121 127 171 190 193 199 200 200 200 182 145 124 135 154 167 176 179 179 176 162 142 122 107 97 82 62 44 49 70 114 145 154 161 162 160 162 169 152 138 152 158 161 159 156 153 150 145 140 132 125 119 111 100 91 85 82 81 81 93 80 20 21 35 38 41 48 47 68 190 176 155 165 110 70 54 46 119 157 146 150 156 159 161 163 163 162 163 161 158 152 141 120 124 170 185 190 193 197 198 196 199 197 182 153 123 125 144 157 165 166 157 134 108 96 75 46 35 45 66 96 127 145 151 156 158 156 153 155 158 166 150 133 145 153 154 153 150 140 136 129 124 118 112 103 95 86 80 82 80 82 96 77 21 28 39 41 51 51 58 78 189 179 155 163 126 85 70 51 96 159 144 144 148 151 153 155 157 157 157 156 150 141 124 123 167 178 181 189 191 197 198 196 195 197 192 187 175 150 136 142 146 149 134 109 94 65 43 59 83 102 122 139 144 151 157 157 154 155 151 153 153 152 155 145 126 138 150 150 140 135 133 126 118 110 102 97 91 84 79 79 79 81 95 68 22 30 44 55 59 51 71 81 197 182 158 157 135 95 87 67 80 157 144 142 143 146 147 149 152 154 153 148 139 128 130 168 171 169 183 187 192 198 196 199 198 197 196 193 182 174 161 140 128 121 109 95 72 60 84 93 112 129 137 142 150 161 164 161 157 153 150 152 149 144 141 145 142 126 140 145 140 139 129 120 110 100 95 90 88 84 83 79 79 83 95 55 24 57 69 79 64 56 79 84 192 183 161 151 138 100 95 89 81 150 152 144 144 144 145 149 151 152 147 142 136 134 160 171 154 173 183 187 191 195 197 198 200 197 197 200 194 183 169 148 124 102 85 71 71 89 100 119 131 136 147 157 162 164 163 163 157 151 148 147 147 143 135 126 133 135 130 137 143 134 122 113 103 95 86 85 87 86 85 81 81 84 94 47 45 93 87 81 64 65 85 87 191 188 168 148 141 108 100 107 94 135 160 153 151 146 148 152 149 148 144 144 145 149 171 153 157 176 179 185 188 194 197 198 195 195 196 198 200 195 186 165 141 116 105 104 108 110 129 147 155 160 165 164 161 161 165 161 155 151 146 143 140 135 127 118 119 126 143 140 139 132 121 111 102 92 87 87 92 92 84 82 82 85 93 52 59 89 87 73 64 78 88 88 189 195 175 146 150 121 105 111 109 127 162 160 157 155 157 156 153 149 147 151 148 156 160 137 149 172 176 180 185 191 195 195 190 191 191 193 193 198 201 197 185 173 168 165 165 174 182 183 178 171 166 162 164 164 158 150 146 147 140 134 131 123 114 108 106 113 146 155 143 136 124 114 100 90 96 98 102 97 88 85 83 87 88 58 70 89 81 61 69 82 85 89 189 192 181 147 154 142 111 109 110 120 161 163 167 160 160 160 155 154 157 161 152 157 149 123 144 160 170 174 166 162 159 148 144 141 144 140 138 157 163 167 175 181 183 186 179 166 158 145 130 120 117 118 115 109 107 104 108 111 114 115 115 111 102 97 93 93 142 165 155 144 128 115 110 104 106 108 109 98 92 87 85 89 82 60 79 87 72 62 73 82 86 96 193 191 186 159 149 148 125 115 118 113 155 169 174 169 162 168 163 161 165 169 158 157 145 106 107 128 149 144 120 110 107 103 104 107 112 116 117 116 114 112 117 112 110 108 100 95 93 96 96 92 92 88 82 77 74 71 66 62 65 68 71 75 73 79 85 99 158 172 166 151 135 122 119 113 112 107 107 98 92 89 86 88 77 63 81 84 65 69 75 81 81 103 194 193 189 162 146 148 134 121 126 111 144 169 175 177 165 167 174 171 169 176 171 163 155 118 96 64 45 58 68 80 87 87 85 85 92 95 96 98 93 94 92 92 88 85 81 83 89 87 89 88 78 74 72 65 57 54 51 47 43 34 29 14 14 17 77 144 170 178 170 156 138 132 128 117 111 110 108 98 94 88 86 90 74 63 81 73 61 68 73 81 77 117 196 197 195 167 149 145 142 126 128 119 129 167 174 183 169 164 175 178 174 179 180 174 165 147 148 84 20 24 15 66 92 88 90 83 67 67 72 71 74 77 73 77 76 73 71 74 72 66 68 64 55 56 53 51 54 44 46 40 51 41 20 17 23 32 120 164 174 179 177 156 142 139 134 120 112 112 109 99 97 88 85 92 66 62 81 66 65 69 73 77 85 122 199 197 198 177 153 149 143 135 132 130 122 159 170 182 176 167 175 180 179 180 182 176 174 169 177 164 109 82 55 81 150 149 139 177 125 94 131 120 86 97 120 103 89 77 81 105 104 76 65 64 77 62 63 101 92 55 83 66 74 34 23 41 66 107 168 171 176 180 176 157 146 142 135 120 110 112 107 101 96 86 88 86 59 68 75 62 70 71 74 80 100 122 199 193 194 186 157 155 150 145 138 136 121 147 167 178 179 171 172 179 182 177 182 182 178 179 187 196 186 131 96 89 149 185 179 217 203 156 209 206 158 180 221 206 173 147 172 212 199 159 121 140 170 123 124 172 133 87 119 86 66 33 51 78 126 169 183 175 173 182 172 156 146 144 131 114 112 113 105 99 92 86 90 81 60 70 68 67 70 67 76 85 100 120 200 195 194 187 162 161 155 155 136 140 127 132 162 172 180 174 168 177 179 178 185 185 180 178 189 201 211 184 123 98 107 166 193 208 215 195 217 221 186 209 227 224 200 174 210 222 215 191 147 181 201 155 169 190 151 113 111 47 60 68 87 130 171 182 179 172 171 183 171 154 145 142 123 111 114 112 105 95 90 89 92 82 61 66 69 72 69 71 82 87 103 121 197 195 196 187 172 163 161 163 138 143 135 125 156 168 179 176 170 172 176 179 183 187 180 181 193 206 207 201 143 107 97 120 163 196 209 212 218 219 202 213 222 219 205 182 212 217 211 195 168 200 202 170 180 183 138 79 90 70 79 82 118 163 171 180 177 168 176 182 169 154 151 138 118 115 115 111 101 94 89 90 86 75 57 66 69 72 67 75 83 87 113 116 196 197 193 189 180 163 160 162 146 141 144 120 144 164 172 177 175 171 178 177 179 187 180 181 195 204 206 200 174 118 104 103 99 156 195 176 208 210 202 211 217 211 201 185 208 210 206 191 184 209 191 145 155 171 108 66 84 82 79 100 141 159 172 176 173 168 180 181 163 149 145 129 120 118 113 109 100 95 90 88 79 68 51 65 68 72 66 79 81 89 116 112 195 201 194 185 185 167 165 164 152 135 146 130 130 159 165 173 175 173 175 178 176 184 181 183 193 200 205 197 189 147 107 106 106 114 124 111 144 174 150 189 206 197 186 178 199 198 190 166 134 164 136 86 109 120 91 84 79 75 81 122 143 162 173 174 167 167 183 178 159 146 137 123 120 117 111 106 97 91 90 83 71 61 47 68 68 67 65 80 78 103 120 116 198 196 194 173 186 177 173 167 162 138 146 146 126 156 161 169 172 174 174 177 178 182 183 182 189 191 197 199 188 175 128 102 104 107 114 117 104 110 107 135 155 154 149 139 149 147 141 117 88 102 96 104 97 89 85 74 72 75 109 131 141 162 167 164 159 171 186 172 153 140 131 120 120 115 109 101 93 89 90 67 72 55 51 68 69 64 66 80 80 113 117 122 202 196 197 172 179 187 176 174 170 143 144 159 129 150 162 163 172 175 174 174 178 178 183 184 183 186 192 198 192 180 164 115 96 95 112 126 136 128 124 119 120 116 117 113 113 116 121 111 111 108 108 107 90 83 75 64 73 107 125 131 148 159 159 154 159 174 184 162 145 131 125 121 119 114 105 97 95 93 78 57 73 55 56 67 70 67 67 84 88 115 111 124 201 197 196 174 176 187 180 177 177 152 142 166 146 142 164 160 169 171 173 174 177 176 180 184 182 186 188 194 193 181 176 158 117 95 92 104 132 140 135 131 146 147 134 127 143 130 145 125 115 103 102 90 81 72 64 76 100 117 123 138 150 152 151 152 158 178 176 151 136 128 122 120 115 110 99 93 95 91 56 61 71 55 58 68 73 68 67 84 98 115 118 128 202 198 199 174 175 189 183 177 183 165 142 156 158 137 164 164 163 168 172 169 171 175 179 185 183 180 186 188 192 186 175 173 159 120 98 87 89 98 99 100 102 106 100 98 105 107 99 99 92 87 83 76 68 70 85 109 121 119 127 143 148 148 150 150 155 178 163 141 127 123 122 121 114 105 95 93 98 70 51 67 71 53 61 72 75 66 71 89 112 113 122 133 205 201 199 182 171 193 190 174 183 171 150 153 164 135 156 165 158 162 169 169 169 173 178 184 187 178 182 186 191 187 178 169 173 167 139 105 91 94 98 94 94 90 94 94 90 92 89 91 88 79 72 77 87 103 117 121 119 123 134 146 148 148 149 141 152 166 148 133 123 118 121 117 109 101 95 94 75 42 57 70 70 50 59 72 74 62 74 96 120 106 122 134 201 202 201 186 170 187 192 178 181 171 160 149 166 147 148 166 158 158 163 167 171 172 174 179 187 183 178 183 188 192 183 171 170 173 173 160 138 117 104 100 103 93 92 89 91 91 90 87 85 87 96 110 123 129 127 120 119 129 141 149 145 149 143 136 147 150 136 127 120 116 117 111 103 96 94 88 43 36 62 73 67 51 61 74 72 62 80 105 117 108 125 132 205 201 200 190 179 183 194 185 181 175 167 156 167 163 146 167 158 156 158 165 169 171 172 176 183 188 178 181 186 189 187 179 172 170 167 170 169 161 147 135 125 119 117 114 114 107 104 105 113 123 131 134 135 128 122 122 128 136 146 152 149 147 135 133 142 140 128 123 118 115 113 104 97 94 92 69 41 37 62 76 69 51 62 71 72 62 84 106 109 110 129 130 206 201 199 186 182 184 196 193 185 178 168 163 164 171 150 164 162 151 153 161 165 167 169 172 179 186 183 178 184 183 188 183 178 172 171 167 165 164 160 155 149 147 146 144 137 135 136 141 145 143 142 136 125 121 125 130 135 142 153 156 151 142 132 130 134 128 121 119 117 114 107 97 93 93 75 55 48 39 65 76 69 56 66 72 73 62 83 106 105 114 130 127 203 200 200 185 185 187 198 194 184 180 169 168 163 173 154 160 171 142 134 156 160 164 168 170 173 180 184 179 180 185 190 187 181 177 174 171 170 164 159 160 161 161 157 150 147 147 148 147 147 146 143 139 136 136 137 139 143 155 163 158 148 135 128 125 127 122 118 115 114 107 99 94 92 78 56 58 52 44 63 78 68 58 67 72 74 62 85 109 104 113 130 126 202 198 202 188 192 188 199 192 187 179 171 168 165 170 157 162 170 141 111 128 157 159 166 168 169 174 181 182 177 183 192 192 187 185 182 179 176 174 171 170 167 165 160 153 149 150 150 154 157 156 154 154 151 149 145 149 163 171 165 153 138 128 123 121 118 117 114 112 106 102 96 92 78 60 58 63 57 52 61 76 69 63 67 71 72 67 87 111 110 116 132 129 204 195 204 190 193 189 197 195 194 176 170 171 169 171 162 163 169 139 103 91 133 156 158 166 166 169 175 179 178 178 188 192 195 192 192 192 190 186 185 183 181 177 175 173 167 164 168 171 173 172 169 167 163 156 159 171 181 175 160 145 135 125 118 117 114 113 112 106 100 97 93 81 58 59 62 68 61 61 65 74 70 61 70 74 71 67 89 113 111 116 133 132 200 195 199 191 191 191 196 198 198 181 168 173 167 174 170 165 164 140 110 90 87 131 155 158 164 165 170 174 177 176 184 191 195 196 199 201 202 201 203 200 199 197 197 197 196 195 196 195 192 189 184 179 173 172 179 183 179 170 152 140 128 117 110 111 110 112 107 100 98 96 82 60 57 61 68 73 66 65 67 73 73 61 69 75 75 66 88 112 111 111 131 135 193 197 199 194 193 194 197 198 198 187 172 172 169 173 174 166 160 141 112 92 80 91 147 153 157 162 163 168 175 178 181 187 195 197 199 199 205 205 209 207 207 210 210 209 210 207 206 205 197 192 186 182 181 183 185 178 166 161 146 133 119 109 104 104 107 107 100 98 96 82 62 58 61 68 76 80 72 67 71 75 78 62 67 71 78 66 89 111 117 109 129 137 192 196 196 195 193 193 199 201 201 183 173 173 178 168 175 169 163 142 114 90 85 77 133 159 149 154 158 162 169 175 177 182 190 197 198 203 202 206 211 212 208 209 210 209 206 203 200 199 195 194 189 190 184 181 180 172 164 153 138 121 110 101 100 102 102 99 95 92 76 62 60 59 65 76 82 83 77 71 76 73 81 64 68 65 78 72 87 106 120 110 130 140 197 198 192 192 196 194 198 199 200 186 178 175 182 169 177 174 166 148 120 91 88 74 123 165 155 147 149 156 162 169 173 176 186 193 197 201 202 204 208 207 209 208 207 204 203 203 200 199 198 191 186 182 174 174 171 170 160 142 127 112 99 97 98 100 98 98 88 70 62 61 62 65 76 86 88 86 78 68 81 70 86 69 71 67 72 85 91 101 123 112 128 141 195 193 188 195 199 199 198 199 204 189 177 178 183 170 179 176 171 153 120 94 88 70 117 162 161 158 149 146 151 162 170 174 180 186 188 195 198 200 201 204 207 205 199 199 203 203 202 200 199 191 180 169 168 164 168 164 148 129 117 105 96 95 97 99 96 81 64 60 63 64 69 78 86 89 88 88 84 66 78 70 85 76 72 66 69 90 92 101 121 117 125 146 198 190 184 197 201 197 202 201 204 187 175 177 188 175 178 180 178 157 125 101 83 64 124 161 161 160 161 154 146 151 161 168 176 181 185 191 191 193 198 199 198 194 196 196 195 196 198 198 192 185 176 167 162 165 163 152 132 116 108 98 97 99 100 86 66 57 58 62 66 75 81 90 90 90 91 89 88 68 79 72 82 84 76 67 68 93 94 98 117 122 120 148 204 182 181 198 204 199 206 205 200 189 177 171 192 179 176 177 181 163 127 103 75 61 132 163 162 160 158 161 158 148 152 162 170 177 185 188 188 187 188 190 189 188 188 184 186 189 190 184 179 180 171 165 162 165 154 137 115 104 102 99 101 94 75 58 56 58 60 69 82 89 91 93 92 90 89 92 89 68 75 77 84 95 78 71 68 100 104 94 110 122 117 148 202 175 178 202 206 201 207 202 198 190 174 170 192 179 179 180 182 170 136 95 66 67 145 163 167 163 161 159 163 157 147 154 164 169 177 181 182 184 186 184 181 182 182 182 183 183 181 179 176 169 165 161 159 153 138 121 107 106 105 95 76 58 55 57 56 61 74 90 96 93 92 94 94 91 91 91 89 71 65 79 76 102 85 75 72 99 110 90 104 127 115 150 186 174 182 202 204 198 206 199 194 187 174 176 194 188 182 180 183 172 139 90 58 76 158 165 168 172 164 160 162 162 157 146 151 161 168 173 177 179 180 176 179 179 175 178 178 177 175 175 167 160 161 152 147 138 123 113 107 91 71 61 55 57 57 56 61 79 95 100 98 94 94 95 95 93 91 91 89 76 59 78 73 101 103 75 74 98 118 95 94 127 120 147 176 164 186 201 204 204 206 202 197 186 172 176 194 191 185 180 187 171 139 83 55 91 167 167 167 176 174 166 163 162 167 159 146 146 155 163 168 172 174 174 174 173 171 172 172 166 166 164 158 157 152 141 133 122 114 99 73 58 58 59 59 56 58 69 87 100 102 99 95 96 95 96 95 93 92 90 90 81 61 73 80 95 124 86 72 98 118 106 90 116 128 142 171 159 183 203 204 206 206 205 202 181 168 176 194 190 186 187 191 171 136 81 56 112 172 169 164 175 179 176 169 165 166 169 162 148 141 147 154 159 160 164 162 161 165 165 165 161 160 161 158 151 138 128 123 114 91 65 59 59 60 60 57 62 79 97 106 103 102 101 100 98 96 96 95 93 91 92 93 85 63 66 91 92 128 109 78 97 111 113 92 101 136 138 165 154 188 205 207 209 207 203 201 180 167 175 194 190 186 189 195 175 136 72 66 132 172 170 167 174 180 183 182 176 168 165 166 164 152 137 138 142 146 149 149 147 148 152 151 151 151 146 142 135 129 121 103 80 62 61 62 61 60 60 71 89 103 110 107 103 104 105 103 100 98 97 96 94 92 92 95 89 71 61 93 103 118 129 94 102 110 119 107 95 134 140 160 149 194 207 207 211 207 204 204 180 169 172 189 194 188 188 193 177 144 72 81 153 173 173 167 174 179 182 187 187 181 173 169 167 163 154 140 130 128 135 135 136 136 135 135 135 134 127 122 110 98 80 68 65 65 63 62 62 67 82 101 108 109 109 106 108 107 108 107 105 105 104 100 97 93 96 98 94 81 59 78 115 117 129 112 103 115 118 115 99 127 143 161 150 199 207 205 210 204 206 204 176 166 168 186 200 186 191 192 179 144 77 103 168 174 173 167 171 179 182 184 186 188 188 181 173 167 161 155 145 132 126 125 124 126 124 117 106 95 84 75 68 64 66 68 67 66 66 69 78 93 107 110 107 110 112 113 113 114 115 117 115 113 109 109 101 97 101 105 101 93 68 61 109 125 118 125 115 113 119 118 107 116 144
