P2
# Generated by OpenCV 4.2.0
92 112
255
59 48 72 31 66 62 58 62 61 67 21 26 39 53 59 68 82 82 101 119 128 123 137 154 160 166 166 171 169 163 162 113 72 62 53 39 38 38 36 39 41 43 50 69 49 53 56 57 48 45 41 42 34 30 25 25 46 50 60 48 53 55 50 53 47 47 54 55 47 44 42 46 50 52 58 71 53 55 67 65 53 49 55 60 63 50 51 55 68 69 74 58 45 62 71 30 54 55 69 63 48 42 28 43 71 82 92 96 118 122 131 134 163 155 161 161 166 170 172 172 177 175 167 154 125 113 69 63 58 57 52 53 59 80 61 76 59 57 44 41 49 54 58 40 42 34 40 25 23 66 52 62 51 64 54 50 55 43 52 57 55 54 37 44 51 49 55 65 68 50 53 64 58 61 55 54 54 52 49 55 65 67 70 70 44 64 58 38 56 51 64 70 44 36 48 63 86 106 120 135 146 136 152 156 166 171 171 174 174 170 173 174 177 174 170 174 156 144 111 100 118 81 72 66 70 78 101 115 88 78 75 59 50 47 56 55 57 48 42 47 35 25 67 57 58 54 64 52 55 51 52 52 51 51 42 38 49 48 59 50 67 70 56 63 65 61 55 53 45 56 52 59 52 63 66 66 38 71 62 54 57 46 63 70 55 37 55 72 97 114 138 142 156 163 162 166 174 176 175 175 174 170 174 180 185 180 178 169 167 166 150 118 111 106 114 119 108 108 117 116 132 145 139 136 136 115 73 58 58 50 53 51 39 37 55 60 63 52 66 62 52 48 54 54 53 49 48 41 34 44 50 57 55 63 75 65 63 65 61 60 57 50 55 64 61 68 57 61 55 58 50 62 59 52 57 69 52 50 65 93 113 129 136 148 161 166 168 173 176 177 178 178 177 179 176 183 184 180 185 185 178 183 178 175 164 161 153 143 141 134 124 137 145 127 134 134 142 143 133 94 62 63 63 47 41 41 36 77 62 72 52 67 56 61 60 58 52 51 52 44 41 36 52 55 58 57 73 64 67 68 68 61 61 60 56 60 61 56 72 62 55 64 47 52 47 50 51 73 56 59 79 97 118 131 143 143 162 165 170 170 173 175 177 178 181 182 184 183 186 189 190 184 189 188 186 179 176 179 181 179 180 178 175 173 141 149 167 160 166 159 133 119 92 78 62 61 50 41 50 52 63 62 69 51 79 58 55 51 58 51 41 55 41 33 44 53 61 60 59 69 64 74 67 65 63 67 57 66 66 72 64 68 63 61 52 53 52 62 55 65 40 59 97 105 130 139 148 150 163 165 166 173 175 173 177 178 178 182 184 184 184 189 189 188 188 191 192 189 192 189 192 189 187 188 180 179 180 180 181 144 136 140 142 138 134 81 81 64 60 51 41 46 58 50 54 59 56 73 51 53 63 53 56 50 44 45 31 49 50 63 60 56 83 66 58 78 68 63 55 66 61 68 64 55 69 56 57 57 54 62 62 61 45 64 97 116 131 146 152 157 165 167 169 172 174 178 177 177 178 180 182 184 185 189 189 191 190 192 194 191 190 194 195 193 190 191 193 188 190 184 183 176 175 179 165 160 160 146 92 104 62 65 59 43 62 67 42 58 57 64 66 56 54 49 54 52 67 39 48 38 44 39 64 56 60 69 64 60 69 76 59 67 66 58 65 57 69 55 46 55 43 54 63 76 43 80 113 127 137 145 151 157 165 168 171 173 176 177 175 181 179 182 179 181 187 189 188 188 191 195 191 191 193 196 193 193 194 191 192 192 194 196 194 192 185 181 177 171 163 154 141 92 112 68 70 44 40 44 52 52 65 54 60 65 53 55 51 55 53 53 48 41 46 55 43 75 44 66 56 68 85 77 66 68 61 61 60 73 80 43 58 68 62 61 54 72 45 96 123 135 142 150 157 160 165 167 168 169 171 171 180 183 180 180 183 184 183 187 192 190 191 192 193 192 193 194 192 197 195 193 191 192 190 191 190 191 186 186 180 174 166 162 156 120 113 115 62 70 48 69 54 44 51 59 62 59 59 52 59 46 50 56 39 57 41 43 56 52 53 66 59 38 68 70 69 52 62 69 59 68 81 48 67 59 79 73 58 56 56 109 126 140 145 153 159 166 166 168 171 174 176 177 179 179 181 183 185 183 186 187 192 193 189 186 192 193 193 196 196 198 196 192 194 195 193 191 191 192 189 185 180 178 169 165 164 154 99 130 108 61 61 54 52 52 55 51 51 58 75 49 50 67 51 45 51 39 39 40 54 58 59 60 50 54 47 68 70 52 50 56 67 68 63 52 57 60 74 66 68 56 66 119 123 138 141 151 157 164 169 170 172 176 175 179 180 178 182 182 185 184 187 189 193 194 190 193 193 193 194 196 198 195 196 197 198 196 196 198 192 194 192 185 182 180 175 170 168 164 136 110 119 96 55 58 42 55 57 49 59 49 59 63 58 48 57 46 56 41 51 46 59 52 49 45 45 41 45 59 63 70 55 56 60 65 53 60 63 68 66 59 60 46 85 122 123 141 148 152 158 161 166 168 177 177 177 180 178 177 179 179 182 185 184 188 191 193 193 193 193 198 194 195 195 199 200 198 197 199 199 198 198 197 190 188 186 180 178 177 166 165 155 108 132 132 89 56 48 53 62 48 45 55 55 62 62 53 52 56 43 61 45 46 54 59 47 48 42 47 39 45 52 65 56 53 67 60 51 60 65 63 61 58 66 37 88 119 124 141 151 152 158 162 165 168 172 175 180 181 180 181 180 180 180 184 183 184 191 190 193 192 196 195 194 199 199 196 197 194 198 202 198 198 197 195 194 188 185 186 177 175 170 165 159 150 102 115 114 69 60 52 49 45 52 58 52 57 64 71 63 56 50 49 35 42 41 57 50 53 45 41 31 38 41 75 54 58 70 75 49 56 62 73 69 56 69 45 91 123 124 142 150 154 157 163 167 164 170 172 178 175 176 179 178 182 179 179 183 185 191 191 193 192 195 191 196 196 194 197 196 196 198 199 203 200 199 199 195 192 190 184 181 178 174 166 164 158 122 132 123 87 58 61 48 56 49 48 50 55 58 62 67 52 62 49 54 43 48 60 52 40 46 42 41 39 44 49 57 51 65 68 39 66 74 58 70 69 64 42 102 123 127 142 149 154 157 164 165 167 172 176 182 179 179 176 177 179 180 183 184 190 188 192 191 191 195 192 194 195 194 198 195 199 199 200 201 202 202 197 192 189 187 186 185 180 172 169 164 165 151 103 132 104 80 64 53 51 49 50 56 45 54 54 62 61 57 61 42 39 44 53 64 62 29 41 45 39 41 39 49 53 67 65 57 57 64 66 66 68 56 48 101 121 130 144 147 154 158 160 163 169 173 175 179 181 181 176 179 177 178 177 182 186 189 193 193 193 196 194 193 195 193 193 195 197 199 200 201 202 202 197 194 191 186 185 180 181 178 168 165 164 155 127 115 105 105 77 48 43 47 51 43 51 56 64 46 71 55 58 56 45 41 43 64 53 40 34 39 39 40 42 47 48 67 68 41 55 65 62 68 85 50 47 104 126 133 146 150 155 161 162 164 168 173 174 174 179 179 178 177 175 179 177 176 184 188 189 189 190 193 191 192 191 192 190 190 194 196 198 200 197 195 192 195 191 187 186 184 179 171 170 166 161 161 139 105 118 110 81 59 50 48 33 47 46 46 58 58 55 80 46 45 47 34 45 48 75 73 46 38 38 42 41 35 51 47 64 60 52 57 75 66 78 61 57 96 119 127 145 150 155 158 162 169 165 173 173 173 176 180 178 180 180 180 177 180 183 187 185 187 191 188 189 192 191 192 191 194 192 196 197 197 199 193 193 193 189 188 187 184 182 179 174 169 164 163 150 139 106 108 97 58 57 55 43 51 45 53 56 63 55 64 69 57 66 39 46 49 56 62 38 43 35 41 35 37 37 49 54 34 45 58 72 68 59 66 62 102 120 137 142 149 155 155 162 164 167 169 171 174 175 178 180 180 176 180 178 181 184 184 187 187 191 188 192 192 192 189 190 195 191 192 193 197 196 196 193 192 192 187 188 180 178 179 173 169 160 159 157 146 95 121 101 68 49 48 45 49 41 53 53 62 51 53 52 62 49 54 45 56 57 69 47 42 36 40 34 34 33 49 52 52 36 49 61 72 53 52 62 104 116 136 144 151 157 164 167 159 167 171 167 170 171 177 180 177 177 182 181 179 184 187 185 189 191 191 190 193 190 189 189 195 190 195 196 194 193 193 191 191 189 186 185 182 181 176 174 169 166 163 156 141 115 109 125 88 59 47 56 35 50 57 71 53 75 48 65 55 62 50 38 46 55 59 57 45 54 44 31 31 38 35 46 54 50 53 55 79 50 56 69 105 118 131 144 152 155 162 166 166 167 171 171 170 174 173 176 175 176 180 180 180 184 186 185 187 189 191 191 191 190 189 192 194 193 193 192 192 194 194 192 190 189 188 188 184 184 176 176 170 168 160 159 143 137 102 120 93 69 39 45 35 39 49 53 63 63 59 52 69 64 65 46 42 57 70 47 38 41 48 37 29 34 39 40 42 47 67 49 67 57 51 67 113 124 133 147 152 155 163 164 165 172 172 173 173 177 172 175 178 181 180 180 183 182 182 185 188 187 186 188 193 187 192 190 193 193 194 191 195 194 193 191 191 188 188 186 183 185 179 176 172 163 161 160 153 148 106 123 110 78 44 43 45 39 48 75 52 55 52 59 51 66 58 59 45 43 49 60 50 42 46 45 33 33 31 41 44 38 46 72 63 71 52 71 105 126 138 148 155 158 161 164 167 169 169 173 174 175 176 175 174 174 178 181 179 181 183 182 185 183 191 188 187 189 190 189 191 190 191 192 192 189 190 190 190 190 190 186 184 181 175 175 165 166 163 160 156 145 121 108 123 86 61 55 55 37 28 47 57 63 63 57 54 51 61 66 44 54 43 59 37 37 46 44 38 29 38 32 55 35 51 63 64 55 52 72 111 130 136 143 153 157 164 167 166 166 171 174 174 173 174 177 174 178 174 177 176 181 181 180 184 187 188 187 188 188 188 192 190 191 191 192 189 190 189 187 185 186 184 184 181 184 183 171 163 166 161 161 156 142 120 103 121 84 71 47 46 45 40 49 75 61 56 83 63 43 47 49 54 42 50 67 87 50 30 36 40 26 31 38 37 61 69 61 65 59 56 77 109 128 130 144 155 157 163 166 169 170 167 169 171 175 174 174 176 175 175 180 180 179 179 182 184 181 186 186 180 184 187 186 189 186 188 192 190 191 190 188 186 189 184 187 183 180 178 175 171 170 164 159 156 141 132 117 116 93 78 48 53 54 40 44 51 64 64 65 70 66 51 52 56 50 40 53 49 57 45 44 49 36 37 39 43 46 69 65 66 64 62 86 112 128 134 143 152 156 165 165 167 173 172 170 172 173 173 174 176 175 175 181 176 179 179 182 184 185 182 183 182 187 186 186 187 185 187 189 191 191 191 190 186 186 184 188 185 180 178 176 173 168 165 159 158 144 137 131 116 111 83 57 52 58 47 47 51 68 68 63 75 59 43 41 45 54 49 48 54 44 50 47 32 37 34 33 39 46 65 64 62 54 61 92 115 125 133 140 153 157 163 166 168 172 173 174 176 174 172 175 177 176 178 179 180 180 180 182 184 183 182 183 183 187 187 185 186 187 190 189 190 192 191 189 185 183 186 184 184 183 178 175 173 171 165 160 158 141 146 134 110 115 82 70 44 46 48 41 47 59 52 59 69 62 54 41 33 48 48 63 63 50 46 39 45 33 38 40 40 51 63 53 56 48 66 108 112 127 136 144 151 160 164 167 170 169 174 175 174 176 176 173 174 174 178 177 178 179 180 181 184 184 182 185 184 183 186 189 190 189 191 189 192 190 193 189 186 187 190 185 183 183 180 175 174 170 167 164 155 137 149 136 112 115 83 70 49 43 60 45 49 56 66 57 55 70 60 45 57 35 47 37 57 57 35 52 35 27 28 33 41 46 54 50 61 53 58 106 114 131 131 140 150 156 163 164 172 170 174 179 175 174 179 172 176 177 176 180 182 179 179 183 182 182 181 183 184 185 183 186 187 189 187 189 191 191 193 189 189 188 189 185 184 182 181 175 172 171 165 162 151 153 147 143 125 117 96 77 55 55 46 48 41 43 49 49 62 55 62 48 34 45 34 48 43 59 66 31 48 38 35 33 51 54 53 55 50 56 78 100 116 122 134 141 150 155 162 165 171 172 175 175 175 175 177 175 173 178 173 177 179 180 180 180 184 181 183 182 184 186 187 188 186 188 189 188 188 189 190 189 189 192 189 188 187 183 179 175 173 168 164 165 154 155 147 147 128 111 105 81 50 51 44 52 46 42 49 61 50 49 57 48 40 40 34 39 36 50 45 48 40 45 26 32 35 49 51 48 48 49 70 99 114 126 132 133 142 153 154 163 167 172 172 173 174 178 173 178 177 174 177 177 179 181 178 181 184 181 183 182 181 183 191 188 190 192 189 190 188 191 191 193 190 191 190 188 187 187 183 178 174 173 168 161 161 158 152 144 126 102 121 92 62 53 54 54 58 42 35 40 54 49 52 55 37 33 37 30 38 42 58 60 31 41 29 34 39 39 35 47 38 42 48 73 111 129 135 136 147 152 153 157 164 173 171 169 173 171 171 173 175 180 176 179 179 182 178 181 182 183 183 182 184 181 188 187 185 190 191 192 189 192 192 196 192 189 187 190 186 183 179 174 172 168 170 162 166 160 160 143 131 101 119 94 67 63 41 47 52 50 45 37 44 34 46 47 55 38 29 29 33 38 52 56 55 20 35 36 33 35 41 45 46 27 34 55 62 98 120 135 137 148 152 156 159 166 168 169 172 171 174 172 176 179 176 178 177 181 185 181 182 180 182 181 184 180 184 183 186 188 187 192 188 192 193 189 191 192 189 187 184 183 185 181 173 176 167 167 165 159 157 146 133 121 117 104 81 52 46 40 41 51 54 33 42 52 42 40 43 43 31 26 19 33 39 62 42 42 30 34 38 38 48 36 51 25 40 42 45 46 78 90 102 130 145 151 155 159 164 163 165 169 169 170 174 176 175 178 178 179 181 181 181 182 174 180 181 184 181 185 183 184 187 188 191 191 192 191 178 192 186 187 187 185 179 178 176 175 167 167 164 161 153 149 135 133 105 113 90 59 53 48 40 47 62 62 41 38 38 39 41 41 31 24 32 23 33 38 46 32 32 31 30 35 46 29 39 34 29 26 43 34 43 52 60 78 107 119 133 141 153 156 157 161 168 172 171 172 172 175 175 178 178 179 181 179 177 175 178 176 177 178 182 184 187 187 184 187 188 189 186 186 184 181 181 180 181 180 177 167 174 169 165 162 158 146 134 137 105 109 84 70 61 40 49 39 39 69 47 35 34 30 39 39 40 29 22 29 28 29 55 44 23 34 25 27 40 39 41 42 45 50 44 34 27 32 38 42 48 70 72 98 114 125 141 154 156 168 165 169 172 175 175 176 176 176 176 179 172 175 176 173 174 175 176 183 181 180 181 180 181 182 181 180 180 171 176 171 166 166 166 169 158 152 152 150 155 148 133 133 109 105 97 71 66 47 55 46 33 33 40 40 33 31 31 38 33 27 29 18 24 30 34 43 29 25 31 26 28 53 42 75 85 58 45 34 22 35 40 33 39 44 54 54 75 97 97 118 151 154 164 167 171 172 170 176 174 175 176 177 170 173 173 170 168 167 171 173 175 179 179 176 176 173 166 167 154 153 152 148 140 118 126 124 108 108 113 116 112 120 130 115 116 113 88 73 61 46 55 48 46 38 41 40 38 31 25 30 23 34 27 20 17 26 31 36 45 21 27 28 37 48 53 76 95 100 106 96 100 73 49 31 36 34 40 45 50 69 86 91 105 145 155 166 164 164 164 172 170 172 178 173 169 175 169 168 154 157 168 146 144 150 148 155 147 129 132 110 103 92 88 73 87 94 94 67 64 78 79 67 68 82 68 83 87 88 89 87 52 71 45 55 43 43 28 30 37 35 33 23 27 28 32 27 23 22 23 29 30 30 27 35 61 40 50 61 95 95 92 100 102 89 92 89 70 50 33 36 48 45 65 67 105 135 144 158 162 167 166 169 170 169 174 174 168 169 165 152 136 143 105 111 87 74 78 66 82 61 71 56 66 59 67 101 76 74 59 68 89 83 93 71 74 72 77 58 53 43 49 76 53 74 54 43 48 39 58 21 26 35 31 30 25 19 27 30 19 22 13 33 25 27 20 36 38 44 60 44 62 73 70 69 73 69 77 79 81 81 75 65 41 34 49 75 60 96 131 152 159 157 168 165 164 169 171 164 167 162 150 139 127 126 84 82 56 67 49 42 46 38 52 51 54 56 51 66 69 52 82 90 109 96 97 77 65 84 84 62 55 50 56 45 46 58 47 41 50 43 51 43 25 37 27 21 22 25 20 22 27 17 20 16 32 28 22 41 46 54 59 53 47 54 44 38 29 34 27 24 21 36 44 58 73 66 55 60 69 88 123 139 152 156 162 165 168 163 168 167 167 155 145 134 114 102 86 76 78 64 54 45 61 43 55 47 42 42 54 63 90 105 113 120 135 123 129 116 93 73 80 71 74 68 69 74 61 44 61 48 46 46 41 35 42 21 23 20 20 24 20 18 23 19 20 16 27 29 31 34 41 58 70 57 50 41 26 21 18 19 23 16 13 12 17 11 17 25 53 67 65 73 108 127 136 148 157 161 164 165 164 160 162 156 141 130 118 109 94 89 78 65 59 55 65 62 70 80 94 113 109 139 147 145 166 161 161 160 154 149 144 137 133 126 108 89 92 83 69 67 51 67 37 41 54 43 30 42 27 20 15 20 20 22 24 21 23 17 20 23 19 23 47 61 82 74 55 61 27 14 14 17 27 93 81 53 55 37 46 20 25 30 53 63 68 93 120 139 154 154 159 167 163 162 155 148 140 129 120 120 109 99 89 87 87 84 89 86 95 98 123 109 127 135 143 143 148 150 157 154 152 152 154 153 149 135 134 129 101 94 89 71 40 52 58 40 50 46 38 36 44 23 18 14 25 21 21 25 18 23 14 19 37 38 52 77 78 55 44 32 20 18 21 54 98 115 91 49 64 51 25 35 56 25 43 50 58 60 87 130 144 155 158 162 166 157 152 143 134 124 109 95 91 90 91 90 84 77 61 61 64 49 76 57 84 100 104 115 114 129 127 132 138 141 141 135 137 135 136 130 120 96 104 75 61 64 53 41 50 44 37 32 39 34 16 16 14 20 20 17 25 19 17 17 26 47 59 78 88 73 63 55 46 34 40 67 81 123 123 54 65 69 56 62 65 50 88 86 65 59 66 111 142 158 163 164 163 155 148 146 132 116 103 95 92 91 87 76 53 42 45 19 15 31 14 15 10 20 43 50 67 75 92 100 112 113 117 123 122 125 123 132 132 103 110 77 75 56 61 61 46 44 47 32 24 32 43 20 15 15 16 23 15 23 16 16 33 29 68 84 93 101 116 116 68 51 48 47 62 80 106 84 62 69 73 66 61 76 153 125 62 82 79 84 132 158 169 170 170 165 156 144 127 109 106 103 97 86 76 63 59 46 48 86 154 107 26 40 21 78 12 13 26 22 27 55 69 86 106 112 119 125 122 129 131 114 96 95 89 52 52 57 70 52 34 42 29 21 30 19 13 13 14 18 15 21 24 13 49 18 68 87 98 105 126 123 99 61 74 64 53 70 52 76 116 103 93 109 106 96 87 88 87 92 88 84 134 158 167 175 178 169 158 146 122 120 118 110 101 95 80 74 52 94 124 136 157 107 48 62 46 9 32 53 14 9 16 19 42 60 100 97 109 114 111 121 138 123 105 116 89 67 71 65 49 61 54 34 45 29 21 21 19 13 13 18 17 18 16 22 40 24 67 88 96 112 127 126 110 98 95 91 111 88 63 91 85 82 92 132 129 139 114 97 92 95 111 103 138 157 174 183 182 176 164 147 133 136 122 132 122 108 84 75 89 100 120 146 164 155 51 58 63 55 48 51 41 47 19 21 41 77 92 87 112 103 118 122 134 133 114 113 97 69 58 53 66 57 52 55 30 40 30 19 19 15 10 5 10 16 21 16 25 35 72 89 98 114 133 133 122 118 116 110 109 117 122 130 138 137 129 133 127 126 135 133 138 131 135 114 137 162 176 186 184 171 163 156 143 145 128 150 133 116 93 89 92 86 103 107 127 151 103 57 62 98 55 76 75 64 47 61 54 91 102 111 105 109 127 129 140 147 120 117 134 86 57 55 65 46 57 53 54 42 40 39 22 19 13 7 7 17 15 17 23 41 78 88 100 117 137 137 135 130 120 129 134 127 130 118 135 140 141 142 139 146 147 155 156 145 126 117 143 165 179 191 188 179 166 160 155 153 138 153 140 130 133 113 94 81 73 69 59 77 98 90 77 132 90 90 104 91 73 69 102 116 119 134 134 143 148 148 143 145 127 117 132 107 79 57 64 54 52 48 57 43 48 45 29 23 23 13 6 4 17 14 18 43 76 88 107 124 138 142 141 143 133 131 125 126 129 133 138 144 145 140 140 144 151 154 159 133 129 121 149 168 185 192 184 177 169 162 159 160 148 157 160 154 133 126 108 109 98 107 82 81 95 92 76 126 105 127 119 117 121 123 145 150 151 158 163 162 156 153 151 148 145 131 121 130 70 73 52 67 54 53 64 64 45 52 55 39 23 29 18 11 7 10 24 38 77 89 108 128 138 142 152 153 150 143 140 140 141 141 141 144 147 148 149 153 148 154 146 136 136 129 154 173 186 192 188 178 169 166 162 163 167 163 160 148 144 136 131 124 114 124 114 121 123 113 99 119 122 127 133 148 151 158 155 161 165 168 164 163 157 155 148 149 140 128 126 114 116 70 64 48 61 56 49 58 57 51 50 64 55 30 33 14 3 13 29 40 78 89 116 131 138 144 158 161 162 161 159 155 152 154 154 154 156 156 155 158 155 150 149 136 131 134 161 176 186 195 187 177 174 166 165 170 172 164 164 165 156 153 144 134 136 130 133 134 134 135 135 140 144 153 157 158 161 160 160 167 167 171 161 158 159 149 152 154 138 139 130 116 115 88 80 55 51 63 46 44 61 60 58 48 42 58 40 39 10 3 18 40 76 92 118 131 142 148 158 162 165 165 165 161 165 165 166 165 162 164 163 161 156 152 145 135 125 143 162 180 186 193 188 175 170 168 167 169 175 175 168 169 162 163 155 151 145 143 145 140 151 154 159 163 164 158 158 159 162 171 176 180 178 169 168 160 161 158 154 154 146 142 139 123 120 112 82 47 55 33 51 51 53 48 43 59 51 58 43 54 52 14 18 36 77 96 120 133 143 149 159 161 166 169 171 167 172 172 171 175 171 170 166 162 159 152 141 133 132 146 169 182 188 191 183 178 175 169 169 176 174 180 179 173 172 168 170 167 160 158 151 150 152 153 153 153 157 162 163 166 171 175 174 175 178 170 169 167 165 159 155 152 144 135 147 122 116 112 89 66 51 61 32 54 54 58 45 39 48 56 45 45 55 41 18 36 77 101 120 134 142 150 157 165 169 168 170 180 174 176 176 176 171 170 167 159 159 146 138 131 137 157 166 183 188 188 187 182 174 172 169 173 180 180 182 176 176 176 174 173 173 168 167 172 170 168 168 170 172 173 174 178 178 179 179 174 174 171 171 167 163 163 155 155 147 139 146 136 116 103 103 75 49 52 41 21 53 53 65 41 38 44 47 47 37 42 15 33 78 108 121 136 148 157 158 166 163 167 168 175 174 177 175 171 170 167 159 162 154 145 135 134 140 156 174 180 189 186 186 184 177 174 168 169 176 175 179 182 181 184 180 176 175 178 177 169 179 181 176 177 177 182 182 182 183 182 182 183 176 176 172 170 167 159 158 157 139 145 142 138 128 101 81 84 47 49 57 30 21 55 57 56 50 32 46 49 42 43 11 33 83 112 122 134 144 152 157 162 168 167 168 177 171 171 170 170 167 169 162 161 149 144 139 133 142 162 174 182 195 185 189 181 176 176 172 172 170 174 180 182 184 183 183 182 177 176 179 177 179 181 179 185 180 181 182 182 183 184 183 182 176 176 172 170 167 164 159 152 144 145 138 132 128 110 98 88 64 51 44 59 40 23 63 45 44 47 39 37 61 28 10 34 88 108 122 136 145 152 157 161 165 164 167 170 175 172 172 166 169 167 162 158 153 147 140 136 148 168 180 187 193 190 186 182 178 177 179 175 176 178 178 184 184 184 187 185 183 182 177 173 183 179 181 180 181 183 183 182 185 184 184 183 177 179 170 165 163 157 156 153 152 137 139 134 128 115 93 76 78 45 53 49 50 41 39 64 44 51 45 38 25 38 16 32 89 106 125 136 144 149 156 159 162 166 170 171 172 170 169 168 167 167 164 158 156 148 136 140 155 165 182 188 193 195 187 185 183 177 179 181 178 180 179 182 184 186 185 187 183 182 184 183 182 179 182 182 182 179 181 182 185 188 185 183 184 173 172 167 162 157 152 151 148 144 134 129 128 114 104 77 65 56 44 47 48 33 37 39 54 39 48 45 44 25 20 27 84 104 124 133 144 152 156 160 162 166 168 166 168 168 166 165 172 170 164 157 154 147 138 151 165 168 178 185 193 193 191 184 181 181 173 178 179 184 183 185 181 183 186 189 187 184 184 186 186 186 183 180 183 181 183 186 186 185 184 186 181 175 171 164 161 157 153 151 144 141 138 130 117 109 104 87 57 69 54 48 45 50 43 34 41 39 46 39 38 52 14 11 87 102 121 130 143 151 156 159 161 163 164 166 164 164 165 166 166 168 158 155 149 143 143 156 168 169 181 194 197 192 193 185 186 183 180 181 181 182 185 187 184 182 186 187 189 184 187 186 184 181 185 185 182 183 189 190 192 188 181 184 178 177 170 165 160 155 150 149 143 139 131 127 116 115 102 88 68 47 50 46 45 41 54 38 31 43 34 45 36 36 21 18 73 93 116 129 136 145 154 156 156 162 160 162 162 164 163 163 161 156 148 143 134 138 145 159 165 173 186 193 193 192 193 187 181 181 178 177 178 177 183 185 185 185 182 187 186 187 185 184 185 185 182 185 186 187 189 193 190 187 185 179 179 172 170 165 159 152 149 147 142 138 129 128 117 111 100 89 67 64 53 55 42 43 41 41 39 31 34 33 42 29 26 26 45 90 110 124 134 138 142 150 156 158 158 159 161 158 159 157 155 148 138 133 137 138 149 161 165 172 185 194 193 193 191 190 183 177 178 174 175 171 171 170 171 178 181 185 184 181 188 186 183 182 185 184 188 183 179 192 190 186 182 180 178 177 170 161 156 152 150 144 139 133 131 125 118 105 96 83 67 65 48 42 40 44 43 44 29 37 33 37 31 35 18 23 19 84 103 118 132 136 143 149 153 153 155 156 156 155 155 147 139 131 132 130 141 145 158 161 169 178 188 196 195 193 192 188 178 172 171 171 170 169 169 167 159 162 169 174 176 178 185 182 184 182 181 182 186 185 181 186 186 185 181 179 175 172 169 162 156 153 150 143 139 131 126 122 111 100 88 77 74 71 64 46 38 53 54 48 24 28 37 33 44 35 26 21 14 63 92 113 123 133 138 149 150 147 150 149 146 146 145 136 125 131 138 132 140 144 155 167 168 181 191 194 196 194 193 184 180 169 176 182 175 175 174 168 160 154 154 168 172 172 176 177 182 182 181 184 182 183 182 182 182 181 179 175 175 174 168 160 157 151 144 140 136 129 125 119 105 93 85 80 71 76 60 42 46 40 58 37 34 23 51 40 38 36 25 22 20 23 87 102 118 128 137 140 144 147 149 140 144 140 135 129 135 149 151 133 145 141 158 171 170 183 191 197 198 193 192 187 176 168 181 183 179 179 173 168 161 157 151 147 156 165 171 175 174 177 177 176 177 181 179 181 179 175 176 173 172 165 164 161 156 149 142 139 131 123 118 109 99 86 81 82 75 69 66 46 39 45 42 41 30 25 23 50 43 43 23 23 20 19 54 88 106 122 126 136 137 136 140 139 138 134 130 132 150 153 152 132 141 139 161 171 174 185 190 197 196 193 187 184 178 169 180 183 181 178 174 169 160 146 152 148 139 145 162 163 168 170 171 171 176 174 173 174 171 171 171 168 166 166 163 160 155 147 142 136 126 118 110 97 92 87 84 82 76 72 58 49 52 54 25 40 35 23 27 46 40 50 26 23 25 42 5 66 94 109 117 123 130 130 136 136 126 125 129 144 151 153 154 131 135 143 159 170 173 181 189 193 193 189 189 182 179 176 182 183 179 178 177 170 152 142 162 161 154 133 146 153 161 160 164 166 169 170 168 170 168 168 167 165 163 161 158 157 149 126 136 132 123 111 101 92 80 82 86 84 82 71 65 45 48 48 37 27 30 22 28 43 42 40 28 31 38 37 8 16 74 95 105 120 125 126 124 124 122 122 142 148 147 154 155 137 125 141 158 166 177 181 190 194 193 189 178 178 176 175 178 181 175 174 170 161 143 153 169 165 160 157 135 136 152 159 160 160 163 164 164 163 166 165 163 160 158 155 151 146 143 137 131 126 114 104 95 84 82 88 82 85 84 60 52 39 47 50 58 23 32 15 28 39 39 42 24 25 33 28 18 0 28 75 96 110 120 120 119 117 116 136 137 140 146 150 149 148 119 132 156 165 173 171 183 189 188 183 175 169 166 169 165 168 164 166 160 147 151 171 174 169 168 164 161 139 129 150 155 155 158 158 155 161 162 159 155 152 154 150 150 146 140 138 127 116 106 97 87 83 84 84 91 87 75 51 63 44 40 49 51 23 38 19 35 42 52 36 34 50 27 26 17 9 3 59 77 96 108 111 113 114 129 137 131 133 140 147 152 153 138 119 149 160 170 168 171 177 174 170 167 162 158 153 150 149 148 135 137 156 170 182 180 177 173 169 166 160 146 123 141 145 151 154 154 156 153 151 154 150 147 145 143 140 135 127 116 107 102 95 83 80 88 90 95 88 79 54 50 48 44 42 38 23 27 24 32 47 40 44 59 65 38 16 16 13 5 53 59 84 96 108 114 122 130 129 120 128 134 143 151 155 152 103 124 148 161 161 167 166 160 158 150 138 127 120 122 131 152 159 164 174 181 181 181 177 177 169 167 161 153 149 124 132 137 145 146 145 146 142 142 142 139 137 133 129 121 115 110 100 93 87 86 87 93 92 91 89 79 62 44 40 45 41 31 27 21 25 35 33 37 39 40 53 53 25 15 15 9 17 73 85 95 109 118 123 124 127 114 114 124 135 145 154 151 147 93 126 141 147 156 149 139 128 117 113 134 148 157 160 160 168 179 182 182 181 182 173 176 164 168 159 156 149 147 125 119 133 137 141 138 141 137 135 134 124 120 116 111 108 98 94 93 90 94 91 98 98 95 80 69 64 44 40 53 45 35 33 26 32 34 34 44 50 39 48 54 23 31 15 15 11 77 83 107 111 126 123 121 129 102 98 113 130 144 146 152 156 145 90 115 131 137 132 117 113 132 141 151 156 159 165 172 177 177 182 183 181 176 171 172 166 164 161 157 146 142 136 122 112 125 131 132 136 136 131 127 116 112 104 97 90 89 94 94 96 100 99 103 94 93 78 64 74 37 37 39 50 32 26 29 23 25 42 38 54 61 62 69 33 22 11 4 15 32 96 117 119 127 142 130 135 125 88 102 125 139 141 152 150 153 141 112 99 108 109 111 119 122 131 143 153 167 176 177 178 178 181 181 181 179 171 173 169 164 163 156 154 146 137 123 111 104 108 126 126 125 122 118 115 110 100 95 95 99 105 106 104 108 104 102 94 87 83 77 72 36 43 40 61 32 32 37 23 24 36 49 48 52 77 61 49 26 32 2 10 8 88 99 127 127 147 144 143 140 131 73 93 119 130 138 152 154 153 140 141 134 139 131 126 131 130 134 153 167 172 180 178 178 178 182 180 180 172 171 162 163 159 156 152 145 137 127 119 105 109 113 119 119 122 118 120 110 109 111 113 116 118 114 112 116 106 105 100 97 87 71 63 37 45 37 49 30 35 41 35 24 40 44 52 47 61 54 50 33 15 16 5 21 30 96 124 126 145 153 155 154 147 132 63 84 95 101 104 112 125 143 142 140 138 134 135 132 140 155 169 176 185 185 184 177 177 179 179 170 169 167 162 160 155 148 146 136 129 108 98 93 110 123 116 120 119 119 116 112 125 124 125 126 124 119 122 116 105 105 99 93 81 78 60 37 57 34 46 35 39 39 32 31 37 42 59 74 59 48 57 56 21 29 14 19 7 79 105 126 139 153 155 163 156 162 104 50 72 88 93 96 102 105 112 120 140 157 165 166 162 168 172 182 187 187 185 181 176 173 173 166 165 163 154 152 148 141 133 120 98 75 67 87 102 137 130 132 130 125 125 130 128 128 128 131 128 121 122 117 109 100 96 80 88 75 62 37 55 31 42 32 26 32 31 20 30 43 59 56 61 52 41 48 35 23 25 17 25 30 101 119 134 152 158 162 162 160 159 105 40 69 69 94 93 99 98 101 106 113 132 129 127 124 127 122 127 126 136 140 139 137 135 128 126 124 113 107 82 80 88 53 45 67 87 83 120 140 139 142 136 135 136 135 133 132 130 133 129 127 124 123 105 105 87 91 71 77 50 34 54 38 40 38 32 39 30 22 30 41 58 64 59 56 53 57 31 19 32 29 28 2 69 109 124 146 160 157 157 159 169 136 82 45 84 71 66 79 75 91 98 107 108 108 110 117 117 112 123 123 124 133 119 113 109 102 94 81 76 110 123 130 96 57 67 75 92 138 130 146 146 147 138 141 143 139 137 133 132 134 133 128 123 116 105 93 88 86 73 57 47 38 50 39 44 39 31 34 31 21 46 69 63 62 48 48 53 42 36 30 18 27 22 13 19 98 124 138 158 158 157 164 167 150 92 74 91 137 128 131 99 68 80 92 95 93 97 103 105 104 106 105 102 102 101 90 85 98 92 131 157 153 62 110 72 62 79 112 150 152 150 151 154 147 148 148 149 143 136 133 134 137 132 129 122 112 100 89 81 92 65 50 52 44 54 40 46 44 28 33 32 29 34 62 63 53 57 43 46 43 45 34 15 31 19 22 16 52 106 120 146 157 156 158 166 151 116 77 58 138 144 161 160 119 157 158 137 103 121 136 137 132 88 89 123 129 102 146 166 164 152 157 157 133 38 69 75 115 128 165 164 159 154 150 155 152 152 153 146 143 132 133 135 136 132 127 118 109 84 76 87 88 67 47 60 36 47 43 46 41 31 35 45 30 43 44 59 65 63 57 40 48 42 30 27 40 18 16 22 18 81 116 130 153 152 153 159 152 129 86 77 135 144 170 172 159 175 178 176 140 170 181 182 176 151 155 176 170 149 169 175 177 158 85 138 89 71 101 125 138 171 170 168 163 160 152 157 154 151 151 147 141 132 135 136 133 127 126 112 94 89 81 89 69 51 51 76 37 48 42 38 41 34 37 40 34 34 59 42 60 63 52 45 31 40 34 27 31 28 22 31 25 21 92 119 138 153 146 152 153 131 88 84 68 42 152 164 162 179 186 188 172 184 192 192 193 178 178 189 188 162 177 181 180 137 43 70 98 116 139 133 164 174 172 171 166 160 152 158 157 154 149 146 137 134 135 138 132 130 119 110 91 92 81 71 67 60 59 81 36 56 36 36 35 34 26 45 32 34 73 52 74 56 53 40 40 31 37 22 34 38 35 28 20 1 61 100 131 150 139 147 153 136 96 82 88 89 73 64 94 165 180 179 171 182 189 194 192 193 192 193 177 128 126 171 167 52 84 126 135 147 137 155 172 174 174 172 168 155 156 159 154 150 145 141 139 136 136 138 128 122 108 106 96 80 77 65 66 77 88 66 43 55 33 39 36 40 28 41 36 45 53 64 52 55 49 36 39 31 35 26 26 44 31 27 12 15 7 81 114 141 142 141 145 143 107 71 91 99 101 88 73 122 170 158 169 170 174 181 177 161 95 133 109 89 108 75 82 114 138 149 129 130 140 169 169 176 173 168 164 161 156 160 156 148 144 137 137 141 139 131 124 115 112 100 91 75 68 76 81 83 81 85 40 53 32 31 38 40 35 40 39 62 55 53 48 66 53 35 40 27 32 25 30 43 29 24 13 16 5 37 94 133 146 132 146 142 113 70 78 97 108 107 98 89 73 72 74 75 85 94 93 97 112 92 81 93 109 123 132 145 135 143 127 129 166 166 173 176 174 167 161 162 163 157 152 146 141 137 137 140 139 126 119 114 101 95 87 65 71 83 87 90 84 90 36 58 41 27 32 33 39 41 38 53 59 58 48 43 42 36 32 29 25 37 24 30 20 18 18 15 1 28 76 104 139 133 136 146 120 99 73 95 102 101 105 112 119 109 107 107 100 101 105 108 114 115 119 135 131 169 147 122 117 141 128 161 164 169 172 171 170 167 165 160 166 158 148 139 138 134 139 136 128 128 118 107 94 92 73 71 86 83 99 95 87 87 44 50 39 24 30 38 33 40 42 50 39 40 52 35 44 30 31 34 25 38 28 28 17 30 14 16 15 38 55 78 116 142 131 142 137 104 82 79 95 102 110 119 123 132 141 144 132 137 151 139 134 147 169 191 165 140 120 118 112 132 156 159 166 167 173 171 170 168 168 163 163 155 146 138 135 136 132 130 120 124 110 96 87 70 78 94 89 94 99 82 88 85 49 46 44 25 22 31 38 40 47 52 44 31 50 37 44 33 29 36 20 34 18 26 22 22 15 15 26 84 77 69 91 128 132 142 143 109 110 78 82 96 104 109 113 122 138 145 123 134 153 168 167 154 155 148 124 113 112 110 138 153 159 161 166 173 173 168 168 169 164 163 158 152 141 137 133 129 130 124 114 110 101 85 72 71 95 95 97 80 95 88 104 88 45 43 43 23 27 38 48 38 51 43 40 36 45 40 39 33 29 37 27 40 17 28 19 19 17 15 27 70 51 84 65 102 128 130 145 134 116 114 90 85 96 100 108 114 115 128 115 115 115 120 121 120 115 109 108 109 119 144 158 158 158 161 167 170 168 170 170 167 164 160 151 147 140 134 129 129 130 121 113 99 85 71 70 101 106 99 82 82 93 80 79 80 48 33 37 20 29 27 45 40 57 38 35 36 45 43 36 36 31 30 27 37 21 28 17 21 11 12 34 72 42 106 53 75 117 128 140 141 125 107 123 98 84 94 95 104 108 113 110 112 110 111 112 109 109 110 111 132 150 155 158 155 157 165 168 170 171 170 167 165 162 157 152 143 141 132 131 130 123 111 101 82 72 73 110 106 96 103 94 91 98 94 76 65 49 30 35 27 21 15 38 40 53 38 43 48 52 37 39 41 29 35 26 38 16 25 19 14 15 12 22 94 51 122 54 30 88 117 134 148 133 119 113 122 120 98 92 92 95 97 101 101 104 102 105 105 116 134 146 154 154 155 156 156 160 168 170 174 169 165 161 163 159 155 143 141 135 116 112 116 105 94 78 67 74 107 106 105 104 93 90 93 71 96 87 57 36 30 39 21 18 19 29 49 43 37 36 44 43 42 34 36 28 31 30 28 12 24 24 22 8 7 13 82 64 107 42 23 34 108 124 146 149 134 125 119 121 125 129 122 112 107 113 110 108 114 122 134 142 149 152 152 152 150 156 160 163 168 169 172 169 162 159 155 155 149 144 136 121 128 113 108 105 82 64 78 118 108 113 104 90 85 89 75 73 60 57 58 38 27 43 17 5 36 30 55 41 40 46 41 45 42 39 38 26 35 29 27 10 24 14 14 10 16 14 102 71 88 45 15 7 56 120 140 153 147 139 134 129 130 131 127 134 133 136 135 135 135 141 140 144 144 142 145 153 153 162 165 166 174 179 174 168 161 159 153 149 145 136 116 121 116 112 104 86 70 86 118 110 101 94 98 101 103 94 88 76 70 69 46 33 26 40 15 14 22 30 56 37 36 48 47 44 42 39 37 28 41 33 28 21 18 15 10 9 7 19 42 91 70 28 19 16 0 103 131 152 153 152 150 147 146 138 142 136 135 130 134 136 142 145 144 146 147 151 153 162 163 165 169 174 179 179 171 162 163 155 151 146 140 124 119 111 100 93 82 66 88 122 135 114 125 122 131 121 111 97 95 79 62 65 48 35 23 31 25 21 19 42 47 30 36 49 47 42 41 39 41 31 34 38 25 20 19 14 22 4 10 11 22 67 67 27 26 13 4 28 120 149 154 157 154 155 156 156 158 153 152 149 148 152 153 153 154 160 160 162 166 166 167 173 175 181 179 175 167 165 157 151 146 133 124 116 108 101 96 80 67 111 138 134 127 125 128 127 122 125 115 110 75 67 65 51 44 21 19 27 17 24 13 46 44 21 42 37 42 44 44 35 39 41 37 37 19 19 17 10 14 7 10 16 14 77 80 27 32 17 2 1 90 138 154 161 160 159 164 165 167 169 170 170 169 169 170 169 172 169 171 175 179 178 178 182 187 183 179 174 164 160 151 141 131 120 107 104 99 85 69 83 129 122 112 121 108 134 135 123 112 91 90 79 67 78 60 51 31 20 12 15 35 21 7 43 44 27 35 23 35 43 43 41 44 45 38 38 25 15 17 6 19 0 16 10 11 72 47 14 32 18 4 0 22 125 151 163 160 163 166 171 176 175 176 180 178 180 181 182 182 184 183 182 180 183 184 186 179 179 177 168 160 154 147 129 120 106 99 93 78 58 90 116 127 134 124 121 110 118 109 114 121 118 101 111 87 81 71 49 22 15 5 13 33 5 27 37 45 34 29 16 32 47 42 42 46 47 38 40 24 11 13 12 12 1 8 12 9 55 33 13 24 19 12 0 3 85 141 157 160 162 167 174 178 170 178 182 180 178 183 183 184 189 187 188 187 185 186 184 177 178 168 161 154 143 130 113 106 96 83 65 70 115 114 117 137 139 136 117 127 122 123 128 112 106 103 97 67 68 46 30 22 13 3 22 18 13 16 35 43 40 29 22 9 45 44 42 48 43 37 30 15 18 8 15 5 8 4 4 10 47 35 25 16 16 10 5 3 24 125 143 153 159 166 171 172 176 181 179 177 178 179 185 183 184 187 192 188 186 180 179 176 171 161 157 144 136 112 96 83 73 50 100 124 135 127 121 102 126 121 123 136 130 119 113 93 93 91 82 92 84 51 23 15 9 13 11 11 22 24 28 45 36 20 21 11 49 51 46 56 43 39 11 4 5 5 5 5 3 7 5 12 23 29 20 12 14 11 6 7 2 85 133 148 157 161 171 170 173 176 179 176 175 182 182 186 185 186 182 184 180 176 178 172 164 147 142 130 107 88 75 51 79 123 101 116 109 129 131 121 131 125 126 129 127 121 111 83 94 94 89 85 47 33 23 13 15 13 2 20 22 17 37 31 45 13 24 17 51 50 54 51 39 21 12 4 8 6 4 5 2 4 6 1 17 20 18 11 11 11 11 15 0 57 109 141 152 159 164 167 168 175 176 171 169 175 179 180 183 184 185 179 181 177 175 166 151 136 128 102 71 53 81 103 105 116 131 126 126 130 133 122 125 117 122 122 120 113 113 97 112 99 97 42 31 32 22 14 13 13 4 12 20 18 36 31 39 32 6 19 54 54 51 46 44 10 11 3 13 6 4 6 1 1 2 9 16 8 20 9 14 12 18 25 8 63 79 115 138 149 157 162 165 167 167 170 167 168 171 169 175 175 176 175 165 169 165 153 137 120 100 46 68 103 126 116 114 124 123 128 139 120 129 121 117 105 125 115 122 126 111 121 87 47 31 31 32 34 20 14 9 7 5 7 15 25 32 34 39 27 14 16 48 63 54 39 25 18 5 10 9 7 4 1 0 2 2 2 7 9 24 8 9 8 17 26 18 30 104 103 112 136 144 154 160 162 159 162 163 161 163 167 167 170 167 168 166 160 152 133 112 88 46 94 129 124 125 122 112 116 130 125 127 131 132 128 96 121 114 123 86 67 46 43 43 35 34 33 40 28 20 14 13 13 7 11 6 18 28 38 46 19 18 8 57 59 48 35 20 13 2 1 5 5 4 1 1 3 2 4 6 6 29 10 10 7 5 21 27 14 131 111 55 100 128 141 148 150 155 157 157 154 157 160 159 159 167 157 156 143 129 107 71 54 93 109 110 118 116 118 107 91 120 115 109 107 112 101 82 86 92 90 99 72 49 36 32 34 28 34 43 24 18 13 12 13 9 9 15 5 25 34 45 38 19 15 71 51 31 32 18 7 3 4 10 8 4 1 0 3 2 0 2 13 18 6 5 10 12 28 25 15 96 75 25 29 70 113 130 138 140 144 146 149 146 146 150 150 150 142 134 117 88 48 62 101 101 108 93 102 101 105 107 103 94 87 88 75 85 84 85 89 84 74 69 50 31 35 28 18 31 31 43 24 18 16 11 15 13 9 13 16 13 31 33 42 34 26 63 51 19 19 18 8 3 5 7 6 3 0 3 0 0 2 0 6 18 6 3 11 14 51 28 19 32 21 18 20 15 18 69 104 119 123 129 137 134 135 133 126 117 106 86 49 46 86 102 116 106 108 92 99 106 116 119 122 118 117 117 96 77 81 86 77 70 59 36 30 28 20 22 23 32 29 40 23 18 14 10 13 11 13 19 4 18 23 21 42 33 41 60 29 24 19 11 8 6 11 5 5 10 5 0 0 2 0 1 6 1 3 4 10 34 55 29 49 44 37 37 23 14 16 26 36 44 51 68 87 87 86 77 61 49 44 41 79 116 102 124 125 113 115 109 102 113 118 116 107 103 79 78 84 85 92 65 65 46 37 28 27 25 28 24 27 32 35 38 24 14 15 15 14 17 18 19 12 15 19 12 26 39 21 55 38 20 17 19 1 8 11 15 5 2 9 2 0 0 1 0 8 4 3 6 16 78 56 36 53 55 63 61 58 52 59 48 47 42 40 41 38 39 36 42 49 64 95 120 124 112 128 118 110 110 121 123 96 99 118 109 74 84 80 82 97 72 66 43 58 40 31 28 27 22 23 31 32 34 29 41 27 14 17 17 14 17 14 18 13 8 16 16 26 23 35
