P2
# Generated by OpenCV 4.2.0
92 112
255
61 36 39 9 10 14 20 8 9 5 17 10 18 24 33 26 39 65 54 74 79 35 47 55 45 43 42 51 70 65 64 110 138 95 103 125 107 99 87 97 120 150 142 159 164 145 136 120 113 110 97 97 97 76 70 58 60 46 35 31 28 18 12 8 5 5 4 4 0 2 6 6 4 1 2 1 0 0 1 2 0 0 0 0 0 0 0 0 0 0 0 0 47 21 8 10 22 18 3 10 11 11 15 21 16 11 33 68 52 45 55 65 59 52 27 41 43 46 69 96 100 91 94 91 78 112 124 105 128 140 148 157 144 158 165 165 157 159 161 149 138 132 114 107 106 105 83 90 79 94 88 62 61 40 28 22 26 12 10 2 4 1 2 3 2 3 2 1 1 0 0 0 0 0 0 0 1 1 0 0 0 0 0 0 18 7 8 20 5 9 13 8 11 18 20 20 14 40 22 52 44 62 56 53 49 51 57 89 81 89 70 83 124 125 124 136 144 147 144 164 167 163 175 169 167 169 172 162 154 166 160 152 144 149 146 143 139 128 124 112 118 98 90 77 68 67 59 47 32 36 20 18 7 16 5 4 4 3 1 1 2 0 0 0 0 0 0 0 0 0 0 0 0 0 0 0 13 7 5 6 16 8 17 27 29 27 25 15 30 25 26 33 50 57 68 46 74 95 104 102 91 120 144 145 140 144 163 160 162 168 167 169 170 173 175 177 177 175 178 188 168 156 148 152 146 148 150 145 144 157 161 152 156 153 150 138 140 121 97 66 47 28 25 28 20 7 12 11 10 3 3 4 2 1 1 1 0 0 0 0 0 0 0 0 0 0 0 0 4 7 15 10 16 32 31 35 22 27 22 30 15 32 56 50 70 73 87 92 88 102 133 130 128 144 150 158 169 173 177 175 172 179 181 179 181 178 180 179 185 186 184 183 183 180 172 170 155 154 160 162 152 152 161 162 159 161 162 161 150 144 123 119 104 75 48 35 24 25 10 11 7 13 3 3 2 1 1 1 2 2 0 0 0 0 0 0 0 0 0 0 4 5 17 14 9 23 47 21 26 28 21 20 28 34 59 76 82 83 101 128 135 143 150 166 178 193 187 184 188 186 183 187 187 188 185 184 183 187 188 191 192 187 189 188 187 188 186 184 183 183 181 180 182 178 168 169 178 174 173 172 164 160 148 137 128 102 86 59 38 28 26 12 13 6 11 4 3 0 2 1 1 2 0 1 0 0 0 0 0 0 0 0 12 18 8 7 24 35 19 29 33 21 25 31 36 36 62 61 88 128 139 152 166 180 188 192 194 202 201 200 195 191 187 189 190 192 191 191 190 192 191 190 191 194 192 192 191 191 191 188 184 185 182 182 180 178 179 175 173 173 172 175 169 169 151 145 132 115 128 110 77 57 34 28 9 13 7 11 3 2 1 1 2 1 2 1 0 0 0 0 0 0 0 0 7 5 9 24 26 26 24 26 28 32 25 27 52 72 91 109 141 141 166 173 182 194 202 201 202 203 202 202 195 193 190 191 194 194 191 191 193 195 194 194 195 193 194 193 192 193 191 191 190 189 187 186 183 182 182 181 183 180 174 173 165 162 157 147 150 137 128 119 103 79 62 28 35 23 19 10 8 5 3 2 1 1 2 3 0 1 0 0 0 0 0 0 2 10 26 34 43 30 35 29 23 36 28 47 75 115 108 132 168 182 184 190 201 210 211 208 206 202 201 202 201 201 199 196 199 197 193 194 193 195 192 191 193 195 196 193 192 194 191 192 192 191 190 188 186 186 183 183 181 177 179 177 170 172 165 156 153 149 132 134 114 109 95 62 36 28 26 13 13 16 3 2 3 0 0 1 0 0 0 0 0 0 0 0 9 15 32 27 33 29 23 35 31 29 53 54 109 109 169 165 179 189 205 205 211 211 204 209 212 212 209 206 201 199 196 199 197 199 196 196 197 195 194 193 194 194 197 194 195 193 191 192 190 191 189 189 186 186 188 182 178 175 175 175 173 172 168 168 160 153 150 140 130 121 105 74 77 50 32 36 18 13 11 3 3 5 1 1 1 0 0 0 0 0 0 0 13 37 24 27 33 30 47 34 40 39 45 92 122 161 160 175 191 197 203 204 209 213 214 213 214 211 203 205 204 202 199 198 196 195 198 198 198 198 197 197 197 198 196 193 193 194 193 193 190 189 191 191 189 188 189 187 185 181 178 178 175 171 174 170 162 162 152 145 138 127 117 107 90 96 34 33 29 20 16 18 6 7 3 2 1 0 0 0 0 0 0 0 24 19 26 30 30 51 19 51 44 29 62 83 133 155 170 189 196 197 199 202 213 213 214 213 208 209 207 203 203 201 200 200 199 199 196 196 196 198 198 197 198 198 195 193 194 194 192 192 192 192 193 191 191 189 188 186 184 180 179 177 177 175 174 173 161 162 160 154 143 136 125 116 107 97 76 31 40 18 15 8 14 4 10 1 1 1 0 0 0 0 0 0 18 35 24 17 37 16 46 32 38 41 74 120 134 174 185 192 192 196 205 209 211 213 215 213 214 208 206 200 202 199 198 196 198 196 194 194 194 197 194 195 196 194 194 199 195 194 193 193 192 193 192 192 188 188 193 188 184 182 178 174 174 173 175 171 168 163 161 156 144 138 134 132 118 91 83 69 34 24 17 9 10 7 3 4 2 0 0 0 0 0 0 0 30 13 16 18 10 41 23 31 24 43 103 126 153 181 192 187 201 205 206 204 204 207 205 205 204 201 198 202 201 199 196 196 196 198 197 197 198 198 195 194 194 195 198 196 194 192 193 191 193 193 192 193 192 190 189 189 186 180 178 179 175 171 170 169 169 165 163 158 156 147 140 130 123 117 96 64 39 27 18 20 7 9 2 3 3 1 2 1 0 0 0 0 23 22 11 21 24 23 41 24 27 41 100 145 166 189 188 200 202 204 206 205 206 211 211 209 209 206 202 201 196 198 197 196 196 198 193 195 196 197 196 195 195 197 198 198 196 197 195 195 196 194 193 192 191 187 187 185 182 180 181 178 173 170 171 171 161 165 160 158 156 153 149 138 125 114 109 76 45 28 18 7 14 4 4 1 3 2 3 1 0 0 0 0 30 34 39 20 20 34 28 28 31 59 108 146 168 192 196 200 204 203 203 205 205 207 209 206 203 203 199 203 198 195 196 197 197 196 193 189 190 193 195 198 197 198 198 200 198 194 193 193 193 191 191 190 188 188 188 189 188 181 179 177 175 172 169 168 169 170 163 158 157 152 152 144 136 118 109 99 62 34 19 8 11 5 3 3 1 5 2 2 0 0 1 1 34 22 48 30 23 46 31 20 33 54 100 150 174 190 194 202 199 199 202 202 202 202 205 204 200 204 199 201 197 196 199 197 196 197 198 196 196 191 193 193 194 194 193 197 193 191 190 194 192 190 192 193 194 191 188 187 185 178 179 175 173 173 173 172 171 170 164 156 160 157 152 146 136 126 117 102 73 47 27 12 9 4 4 4 1 3 2 2 2 0 1 16 19 19 27 32 31 37 13 27 29 63 124 160 176 194 192 192 199 198 198 203 207 208 208 204 200 199 194 197 198 194 195 195 196 198 197 198 197 197 195 192 191 190 192 191 191 196 196 196 193 191 192 193 194 192 187 185 184 180 177 178 175 170 172 172 165 165 163 162 158 156 150 146 140 131 125 98 86 54 34 24 9 4 3 3 4 1 2 2 2 0 3 26 93 25 29 33 31 17 16 16 43 81 119 159 185 198 199 196 200 201 198 197 205 206 199 202 203 201 202 199 195 197 198 198 199 198 198 196 196 197 194 196 198 198 199 198 198 194 196 195 193 194 195 195 196 191 185 184 185 178 180 177 174 175 174 175 170 167 163 165 161 158 153 146 142 134 127 116 93 67 43 19 7 6 3 2 3 2 1 3 3 3 0 13 34 26 6 11 27 7 25 16 67 70 126 170 187 186 196 201 202 205 202 201 198 201 208 201 199 197 197 196 195 193 191 193 195 193 197 196 197 196 196 197 199 196 197 200 199 198 194 196 195 194 194 196 192 189 188 184 183 182 178 176 178 174 172 173 173 172 167 164 161 160 156 150 144 138 133 121 107 89 59 29 15 7 3 3 3 3 1 1 4 1 2 5 84 7 33 33 27 6 18 50 52 79 120 168 186 196 199 205 203 202 203 200 193 196 196 195 193 191 186 184 183 185 183 182 190 190 189 194 197 194 195 195 197 196 198 196 197 199 194 194 195 197 190 191 189 190 187 185 183 179 179 180 175 174 174 171 169 170 163 159 159 156 154 153 147 138 135 122 111 104 77 37 21 3 0 1 2 2 1 1 2 7 0 7 97 59 47 20 23 12 16 25 58 86 132 173 187 194 204 199 203 202 204 210 207 208 203 203 203 200 200 195 192 194 195 193 192 192 193 194 190 195 198 198 196 196 195 197 196 195 195 195 198 193 194 190 188 189 184 179 181 179 179 176 176 177 170 169 168 166 165 159 157 156 154 151 141 144 133 129 116 102 88 49 29 8 1 1 1 1 1 1 1 4 1 7 89 86 85 49 36 14 24 22 41 106 153 165 185 196 198 203 202 202 205 202 201 199 199 202 200 198 199 196 197 194 196 195 193 194 196 193 194 190 190 190 193 194 193 196 197 196 196 196 196 191 190 185 184 183 182 182 183 181 184 180 177 174 172 172 173 170 165 166 160 157 153 150 148 144 135 129 120 110 99 60 40 16 3 0 1 1 1 0 0 2 4 4 28 57 31 30 38 8 27 14 49 105 142 169 185 191 200 200 205 203 200 201 203 198 203 202 201 196 197 197 194 194 193 189 191 189 192 192 190 196 195 194 191 186 194 187 192 195 192 196 190 191 185 184 185 187 183 181 182 180 183 180 177 172 173 170 169 167 163 160 161 160 153 151 149 139 135 135 125 110 92 79 48 25 4 2 0 0 1 1 1 0 1 7 53 44 38 25 17 16 15 38 73 107 155 172 187 196 195 199 199 200 199 201 201 198 202 202 203 198 197 197 194 191 186 188 190 193 194 193 194 195 192 192 192 193 194 188 189 189 187 192 191 192 189 186 185 186 182 184 181 181 184 180 177 173 176 173 170 166 165 162 159 160 155 150 146 139 136 133 124 115 100 77 46 25 12 1 0 0 0 1 0 0 0 3 53 16 24 16 7 29 13 37 72 128 159 179 183 193 196 196 196 198 202 200 201 198 199 198 201 199 197 195 191 190 188 188 189 191 192 193 193 193 194 193 191 194 196 193 190 197 195 191 192 187 187 188 192 191 192 186 182 186 183 183 175 178 175 173 171 169 168 166 159 155 153 150 148 142 138 135 132 119 112 81 53 25 17 5 0 0 1 1 0 0 0 0 75 47 28 39 60 42 34 55 101 152 170 174 187 191 194 199 201 198 199 200 203 200 202 200 198 198 199 196 194 193 192 192 191 191 192 193 191 188 190 191 192 190 186 190 192 195 193 196 187 188 188 186 186 184 185 185 187 184 182 182 177 180 175 177 174 173 168 167 162 158 154 152 150 143 138 130 132 126 116 106 59 35 19 8 0 1 1 1 0 0 0 0 31 4 9 7 5 12 46 81 141 167 177 180 186 192 195 194 197 194 200 198 199 203 200 201 201 197 199 196 195 192 195 195 192 191 189 190 190 188 186 186 188 191 186 190 191 192 194 187 191 191 190 187 188 189 189 184 185 186 186 186 179 179 175 177 174 174 169 164 162 158 156 154 152 143 138 135 132 120 124 110 78 45 19 7 2 0 1 2 1 0 0 0 24 12 1 3 11 22 71 132 162 182 184 181 183 188 196 190 198 194 199 199 203 203 202 200 197 201 198 197 195 195 194 195 195 192 190 191 192 191 190 188 189 192 189 192 193 193 193 190 192 189 187 190 188 187 186 186 184 184 185 183 180 182 176 174 174 173 171 167 159 158 157 155 151 144 136 129 134 124 116 109 87 59 24 14 1 0 0 0 0 2 0 0 46 25 7 4 23 68 122 158 180 188 185 180 183 187 192 191 197 200 197 198 201 200 201 200 196 199 197 196 192 193 191 190 190 191 189 190 190 191 187 189 191 188 188 190 191 191 190 187 188 188 186 190 189 189 190 190 187 185 185 181 180 167 178 172 170 168 168 164 158 164 160 154 152 147 142 132 132 130 121 112 94 71 40 16 5 0 0 0 0 0 0 0 23 10 8 22 34 104 153 178 186 189 192 190 181 189 186 193 198 201 189 199 199 196 196 197 192 193 192 194 191 191 190 188 190 189 191 191 189 190 186 182 184 186 188 187 189 187 184 187 191 189 190 190 190 190 188 186 186 185 184 181 178 175 172 168 165 165 158 154 163 154 147 159 157 149 142 130 135 132 119 113 115 78 45 20 11 2 1 0 0 0 0 0 43 16 28 27 58 134 173 186 186 190 191 192 186 190 191 193 191 197 198 199 196 195 188 193 191 190 194 189 188 190 191 189 188 189 189 189 188 188 186 184 180 182 183 185 186 186 187 181 184 190 190 187 189 185 187 184 181 178 174 173 178 170 163 168 151 153 153 125 126 137 97 89 83 118 141 129 134 132 127 119 118 91 58 34 7 4 1 1 0 0 0 0 58 31 15 30 82 164 183 185 187 192 190 196 190 189 192 191 196 197 193 195 194 185 186 189 188 185 187 188 182 185 186 190 187 188 188 188 187 185 187 183 182 183 184 183 185 184 185 179 183 184 184 182 184 182 177 181 180 167 170 168 156 156 148 118 123 96 79 75 71 53 67 86 103 115 131 125 135 128 130 129 116 105 64 41 15 6 1 1 0 0 0 1 124 19 19 54 87 177 188 191 190 192 190 197 195 188 187 192 188 183 186 187 183 178 177 181 183 180 183 182 182 184 185 180 184 184 184 185 185 182 183 182 176 179 181 180 181 181 183 179 178 181 180 177 176 169 169 176 159 153 136 142 120 111 65 72 59 61 49 47 47 46 64 51 50 54 63 93 130 137 133 128 120 111 62 48 16 7 5 1 1 1 1 6 176 43 23 62 113 180 191 189 190 191 196 199 195 194 180 157 160 160 148 150 153 144 150 160 162 163 174 172 175 170 169 168 174 172 175 178 185 181 178 179 176 177 180 179 180 182 179 174 177 180 178 171 156 147 144 127 102 84 78 66 49 40 63 47 54 36 41 48 75 104 75 79 78 69 42 49 100 118 137 132 121 119 66 53 21 8 4 1 3 1 3 59 166 43 35 54 112 184 188 192 191 192 194 195 163 150 169 153 125 141 118 107 115 115 108 113 111 108 129 143 152 166 135 156 153 154 172 170 170 177 170 175 175 176 178 173 173 179 179 171 172 173 164 157 132 108 90 80 46 45 43 31 36 64 31 54 38 43 71 109 110 120 114 116 99 105 98 88 55 93 132 137 115 120 84 57 27 7 4 0 5 7 3 83 75 41 56 53 128 183 186 192 193 191 195 156 138 155 146 135 99 114 105 122 93 62 69 52 73 57 57 49 58 74 110 90 123 132 139 147 160 169 174 172 171 172 172 172 174 170 173 169 167 169 159 132 106 88 94 44 67 38 37 57 51 42 42 80 118 134 150 150 156 151 157 147 138 98 109 84 77 95 127 141 135 124 102 66 29 5 6 2 4 11 9 72 43 46 48 70 107 189 190 196 195 186 192 166 141 159 148 131 115 122 105 99 80 75 52 54 53 39 41 41 55 54 76 80 66 92 117 136 133 161 165 168 168 170 172 170 170 168 171 168 163 164 149 115 107 95 90 56 70 58 55 74 86 95 128 135 139 151 149 143 149 149 151 151 145 150 120 116 101 119 123 137 136 126 116 75 32 4 2 4 2 24 23 121 32 81 52 66 119 192 192 196 192 193 191 156 168 150 139 151 159 152 120 111 121 109 69 50 29 39 49 48 28 44 73 61 60 76 85 110 118 146 160 165 168 168 168 169 169 170 170 167 162 155 144 115 110 112 101 108 97 114 111 119 129 137 141 140 136 143 147 147 149 141 147 157 146 152 133 129 119 98 128 140 136 134 130 83 40 4 3 2 5 12 46 129 66 44 72 87 115 194 194 198 197 193 190 184 170 165 170 162 165 157 165 156 152 147 149 140 143 136 112 94 82 63 54 84 74 80 105 102 127 131 155 164 168 168 170 170 169 168 165 167 162 156 140 132 129 120 121 115 116 120 127 135 138 145 140 138 137 140 150 131 139 140 141 139 142 144 141 135 135 138 139 143 134 136 119 90 39 8 1 3 8 20 74 136 69 96 133 87 113 195 196 198 198 192 187 189 186 177 170 173 172 167 160 155 153 155 144 147 142 138 138 138 138 132 117 100 104 102 97 110 119 140 155 162 164 168 169 171 168 167 163 165 160 150 137 128 121 115 121 133 135 150 147 141 141 135 129 128 143 154 144 137 133 141 142 145 143 137 136 139 135 135 140 137 141 141 119 96 48 11 3 2 14 32 61 125 139 101 96 84 119 198 196 198 197 193 190 184 180 177 172 174 171 166 165 157 156 149 149 151 147 140 128 145 139 143 141 140 133 124 111 113 127 141 145 155 159 168 162 165 171 167 166 161 157 146 131 114 119 130 137 140 147 141 118 125 125 128 142 151 123 134 106 95 124 134 145 136 144 143 143 141 142 138 141 142 139 151 127 98 49 10 4 5 27 22 103 129 127 140 77 91 116 193 196 203 199 196 187 183 177 169 169 176 167 167 170 162 151 156 143 116 114 104 89 103 104 119 157 156 140 137 124 124 114 125 142 153 163 165 170 173 170 170 164 159 153 132 115 124 134 138 142 151 110 122 130 102 39 75 53 48 25 65 72 114 88 79 140 148 141 150 148 141 139 141 143 144 149 151 125 110 55 12 2 7 32 27 98 93 98 103 66 80 149 193 193 195 197 197 189 182 179 169 171 172 158 159 149 151 117 85 131 140 105 48 64 47 41 45 42 41 94 137 130 125 119 121 128 153 165 170 174 174 173 168 166 155 148 125 118 134 141 143 143 106 103 58 42 15 0 0 0 0 1 0 4 6 35 125 77 115 140 135 152 143 143 143 145 148 151 147 137 121 66 14 4 4 33 51 95 102 79 96 85 84 133 198 194 201 202 195 188 183 180 171 179 186 189 171 111 101 164 149 97 50 39 10 0 0 0 0 10 5 25 52 116 127 119 123 128 154 168 173 173 176 179 174 166 156 134 123 129 139 142 127 98 67 32 14 93 140 188 69 76 93 0 1 0 0 3 10 120 69 99 136 145 145 153 152 151 151 149 149 141 124 78 13 9 16 13 77 86 127 72 98 70 78 127 195 195 197 199 194 189 182 183 185 187 176 151 97 107 137 47 32 9 2 7 97 30 58 153 63 25 40 7 13 76 96 118 125 133 147 174 179 180 185 183 175 166 156 131 137 132 135 123 107 54 38 78 155 158 165 168 74 42 23 19 51 29 4 6 6 12 56 86 116 128 149 147 143 143 152 154 151 146 121 75 9 8 10 20 60 85 141 75 79 60 95 126 195 193 199 200 196 190 185 185 178 173 141 157 161 77 13 6 2 8 114 163 170 45 42 74 2 38 49 21 82 38 114 123 129 137 152 175 186 187 188 187 178 170 153 137 134 147 142 117 58 73 96 139 149 169 174 183 144 35 69 64 50 34 76 77 63 38 36 103 127 136 142 154 161 163 162 153 151 141 134 74 8 10 21 17 78 75 150 87 42 52 62 138 191 194 200 200 201 192 191 187 175 166 132 74 29 12 4 32 61 142 160 171 161 98 59 87 65 82 46 29 141 87 73 134 159 138 156 180 192 192 192 191 180 171 157 140 147 154 139 63 90 74 89 79 94 106 119 137 133 85 89 80 92 96 81 69 96 107 140 148 156 162 164 166 166 164 165 157 148 144 131 78 6 15 12 21 83 63 141 127 66 39 65 139 189 196 198 201 204 197 195 195 195 191 148 112 98 147 146 89 74 100 89 104 128 115 58 99 72 62 94 79 59 54 69 130 173 145 158 181 196 196 194 192 185 172 159 144 152 160 136 112 127 130 124 132 113 126 147 104 134 95 135 120 112 101 103 106 118 145 160 161 165 159 162 168 166 166 163 157 154 141 127 82 8 4 13 20 74 78 104 142 92 64 76 134 183 197 196 200 205 204 203 198 198 185 177 176 172 172 145 146 155 121 95 145 95 92 126 119 98 108 127 117 121 126 158 166 154 156 165 185 200 201 195 194 187 174 164 152 158 160 157 161 139 129 123 140 144 148 151 141 164 148 147 150 133 119 127 130 144 160 166 169 177 178 173 169 168 168 163 157 152 143 126 67 10 8 12 13 107 112 118 118 114 40 110 135 168 192 192 201 204 206 210 207 207 208 208 205 194 181 163 159 150 164 123 137 144 152 153 157 142 137 141 137 144 158 166 163 158 162 175 190 209 203 200 194 187 177 163 157 159 160 154 158 140 131 130 138 134 142 139 139 146 145 142 142 141 137 144 152 162 169 171 173 171 173 172 171 170 166 164 158 152 144 126 63 12 9 23 14 99 56 144 54 130 91 134 136 166 182 198 197 202 204 209 210 210 209 209 202 200 191 187 168 157 155 157 159 158 153 145 145 143 144 139 153 146 157 162 166 170 176 181 196 210 202 199 197 188 181 166 161 162 164 158 156 162 147 144 138 147 149 149 159 153 151 151 147 148 148 154 163 168 171 172 174 173 172 171 170 169 168 166 160 150 139 123 53 10 10 38 14 80 62 133 67 35 183 183 159 162 183 191 199 202 204 208 210 210 209 206 204 198 197 189 182 170 166 159 161 147 155 153 154 154 151 154 158 165 163 169 176 186 184 188 200 211 204 201 193 187 181 168 161 164 167 165 161 162 159 163 157 159 164 158 159 155 161 159 157 160 162 168 172 178 178 178 176 175 174 172 169 168 169 169 163 155 139 127 31 8 13 29 13 80 103 80 105 48 168 157 147 139 188 191 196 200 206 207 210 208 209 202 199 198 193 191 185 174 169 161 155 158 157 160 162 165 166 169 170 168 168 179 184 189 189 191 199 212 207 202 195 189 179 168 163 167 172 171 165 162 164 168 168 168 170 174 169 172 168 168 167 163 165 172 172 174 177 175 175 175 174 172 169 168 167 166 160 151 143 122 18 11 12 34 12 123 97 41 123 89 155 169 155 137 184 188 194 199 203 206 208 205 205 207 201 201 199 200 193 189 189 177 179 172 176 175 172 173 170 172 173 176 180 183 188 192 195 198 205 214 208 203 195 189 181 168 164 164 169 171 170 170 169 171 170 172 176 177 179 181 184 182 182 183 180 180 182 180 179 174 173 174 172 169 169 170 165 164 160 149 137 124 26 11 15 26 13 130 99 21 53 174 161 175 178 179 183 188 192 195 198 201 202 199 200 202 200 198 196 189 191 188 187 190 192 190 185 182 181 181 177 182 182 188 190 193 198 195 196 200 207 214 207 203 195 191 181 169 166 165 167 170 171 173 174 175 174 172 175 181 180 183 182 181 182 183 183 182 185 185 181 176 172 174 171 170 171 170 164 162 158 150 140 108 52 10 16 35 21 115 119 33 98 154 165 182 188 190 182 186 194 195 198 201 202 202 202 201 198 201 207 197 200 199 194 193 196 191 189 189 182 183 183 188 194 196 197 195 199 201 202 205 208 214 207 204 195 190 184 173 169 168 169 170 174 174 176 178 177 175 177 182 182 184 182 181 183 182 184 185 186 188 179 175 171 175 173 172 167 165 163 160 154 151 141 85 66 15 13 37 18 108 120 19 119 152 171 184 188 188 175 184 190 193 198 197 202 200 202 203 206 204 210 199 197 197 201 198 195 194 192 192 190 195 191 196 200 201 204 200 203 204 204 206 211 215 208 206 195 192 187 177 171 168 170 170 173 176 176 177 179 181 180 183 181 182 182 184 182 187 183 184 180 182 175 172 172 174 170 167 163 164 160 159 154 146 146 53 88 30 25 41 21 116 123 33 92 143 175 176 186 190 178 181 186 195 195 199 200 201 202 203 202 201 204 193 195 198 199 199 198 197 195 197 195 199 205 205 208 207 208 204 206 202 204 204 211 216 210 204 194 195 188 178 171 171 170 170 173 176 175 178 181 181 184 188 189 185 183 185 182 185 180 177 179 178 174 174 175 174 170 169 161 161 160 156 154 149 145 37 102 31 33 39 24 118 76 36 60 151 169 186 173 154 182 194 181 188 196 197 201 200 202 202 202 202 203 200 197 196 199 203 202 202 199 200 199 207 206 209 213 209 211 206 207 205 205 206 215 216 211 202 198 192 187 180 172 170 172 171 174 176 179 180 183 183 185 190 191 192 187 185 185 185 180 180 180 172 175 171 172 170 168 168 163 158 156 154 153 144 148 30 95 36 49 34 20 99 11 38 62 116 156 185 187 216 115 202 179 184 192 194 198 200 201 201 200 202 203 195 194 203 200 203 202 200 200 203 203 208 209 213 211 210 210 208 207 208 207 207 215 215 211 202 198 194 187 181 172 169 170 170 173 176 178 179 182 184 187 190 190 190 188 187 185 181 179 179 182 174 173 172 171 171 163 166 162 159 157 152 147 139 134 44 91 38 54 33 36 21 15 39 64 73 161 172 143 141 112 184 177 184 188 195 196 196 198 201 202 198 201 199 205 202 203 204 201 203 203 205 202 209 211 208 205 204 208 207 200 204 205 212 215 213 210 205 199 194 189 183 172 169 169 171 173 175 177 180 183 184 188 189 190 188 190 187 187 184 184 177 184 179 175 172 172 169 168 162 157 155 150 146 146 143 123 30 70 45 55 44 13 33 16 34 60 61 60 173 171 194 173 174 185 181 190 189 193 194 196 195 198 198 204 205 203 203 201 202 202 203 204 204 206 209 208 206 204 204 198 198 203 205 207 212 215 212 208 203 198 195 191 185 178 168 162 166 166 170 176 179 183 186 185 189 192 192 189 185 187 187 182 177 181 178 175 170 169 168 164 160 159 156 153 148 141 134 104 13 31 30 60 36 24 26 24 29 62 54 70 54 160 168 173 164 166 183 187 189 189 191 197 197 199 200 200 201 198 203 201 200 201 200 198 205 207 208 202 203 199 193 190 196 199 201 206 212 215 213 206 201 199 196 190 185 182 172 158 162 162 164 173 174 182 183 184 186 186 188 187 190 186 186 183 182 178 176 172 169 166 165 161 160 156 150 143 143 134 136 92 10 11 20 57 31 29 30 16 25 60 51 65 45 24 40 86 65 56 192 180 183 185 193 197 195 198 199 197 196 200 199 198 197 198 197 199 204 204 202 198 194 190 182 179 194 204 200 205 213 216 210 205 203 199 193 189 184 181 174 160 162 163 160 167 169 176 178 182 183 180 185 186 189 183 186 183 182 175 174 169 168 167 163 159 157 151 147 141 132 132 129 87 10 16 13 59 35 42 35 10 16 88 65 64 41 36 26 25 20 21 185 179 180 187 184 190 194 193 196 196 196 197 194 192 196 198 199 199 198 199 196 194 186 180 172 172 201 208 207 206 214 217 210 206 205 199 193 188 183 178 170 160 163 167 161 160 165 168 175 179 179 183 181 184 185 183 181 183 181 171 172 168 165 164 160 159 156 148 141 139 134 122 134 91 12 11 13 63 38 34 46 14 10 77 72 74 46 42 26 25 25 24 120 176 178 179 182 185 191 192 197 189 194 192 192 194 194 197 195 194 197 194 188 185 176 173 169 170 204 208 205 205 210 215 208 203 199 196 191 183 179 175 167 163 164 169 164 159 162 166 169 175 179 181 180 180 179 180 181 178 173 167 169 166 164 159 161 156 153 146 141 133 132 126 131 70 18 18 14 60 40 40 44 14 17 88 79 71 47 49 26 22 32 28 57 183 181 179 179 183 188 184 182 187 189 183 183 186 188 187 190 192 193 188 182 178 174 169 163 179 205 208 204 204 206 208 203 196 195 193 191 182 179 174 163 161 165 167 163 159 160 165 168 168 171 175 177 176 173 179 177 174 171 168 170 166 162 158 158 151 139 145 139 127 125 129 133 38 22 31 16 57 48 42 36 20 28 79 93 58 55 30 36 23 38 20 11 191 168 175 177 181 188 184 182 184 186 183 187 188 187 187 187 191 185 184 177 172 169 170 166 183 200 200 194 195 194 196 193 192 190 191 179 173 168 166 157 157 157 160 162 154 163 171 169 167 168 168 172 176 171 172 174 174 169 167 165 161 161 160 155 149 135 139 130 123 121 130 134 13 34 38 12 68 34 44 42 37 25 55 95 51 58 41 32 33 31 19 14 143 163 173 174 177 179 182 183 184 182 184 182 186 183 182 186 186 179 177 173 169 172 173 176 170 195 186 184 178 172 182 184 183 180 180 171 166 162 144 144 153 149 153 155 152 169 178 173 167 167 164 167 170 168 169 171 169 166 166 164 158 155 159 155 148 141 131 127 119 127 138 134 6 36 38 24 70 36 39 44 40 53 49 94 53 53 49 57 36 33 22 16 60 177 172 173 176 177 180 180 183 183 180 183 181 180 179 184 182 176 172 170 167 174 181 185 181 174 166 152 134 163 163 171 173 169 168 165 154 145 143 112 108 129 134 134 157 174 177 172 167 167 166 165 164 166 166 164 166 166 162 162 160 157 153 149 144 135 129 124 122 128 131 131 4 36 14 34 54 69 52 45 47 41 44 92 51 54 51 49 30 34 32 23 18 193 168 169 172 176 177 179 178 178 178 178 178 180 177 179 175 174 168 169 171 184 190 193 192 185 171 144 141 120 143 162 159 161 159 154 144 126 91 146 142 142 145 160 170 172 176 173 172 168 163 162 162 162 167 162 163 163 161 159 158 156 153 150 140 127 129 125 123 129 126 124 3 23 19 56 43 62 42 45 44 46 34 88 60 62 64 39 26 37 27 16 9 169 168 170 169 173 174 176 176 174 177 175 173 178 175 178 173 170 167 174 182 190 195 197 195 196 191 188 181 169 161 150 153 150 147 141 124 136 152 149 156 163 164 172 175 175 175 172 173 168 160 158 164 159 162 163 160 158 158 156 154 154 147 141 130 123 126 127 127 123 115 88 5 3 34 46 46 61 32 47 39 53 54 83 88 64 52 38 31 37 25 23 17 110 176 167 166 171 172 174 176 175 175 173 172 175 175 172 165 172 171 177 188 194 199 199 200 198 199 193 195 188 177 166 147 146 143 131 147 163 163 164 165 170 172 177 177 175 174 174 172 166 168 158 160 158 159 161 161 159 157 158 154 150 145 142 127 124 126 127 129 126 122 52 1 2 50 31 48 69 29 55 42 58 99 70 49 70 46 48 35 36 30 22 22 31 191 167 165 165 166 173 174 177 174 172 174 175 175 168 169 168 174 186 194 199 202 199 196 196 201 196 194 190 182 171 170 160 158 160 160 163 166 167 169 174 174 177 176 176 174 171 172 166 162 163 151 157 158 158 158 160 157 155 151 146 141 134 123 125 130 132 131 128 127 6 1 2 29 22 51 69 38 54 39 43 81 93 60 50 60 35 37 32 30 14 15 7 187 176 163 164 167 169 170 172 170 170 174 174 168 171 166 170 181 192 193 194 196 194 198 195 197 194 193 187 182 178 162 164 158 158 164 167 167 170 167 172 174 175 173 173 171 172 164 164 160 155 158 148 155 153 154 155 155 150 147 145 136 135 126 131 135 135 128 122 137 0 1 5 4 59 36 66 55 41 47 31 48 81 61 62 60 32 39 31 30 18 28 10 128 172 171 168 164 165 168 169 171 172 171 172 170 171 170 175 184 188 191 194 193 191 197 194 196 194 190 187 183 176 168 166 166 167 170 173 171 169 168 171 170 175 174 171 170 168 164 159 156 155 162 153 153 149 153 156 150 150 146 144 133 134 129 135 136 132 124 120 127 0 0 1 3 49 42 59 59 49 44 40 63 76 63 52 60 35 47 28 35 23 18 21 16 193 172 169 167 166 165 168 167 168 168 168 169 171 171 179 179 182 188 192 192 197 196 200 202 197 197 191 188 182 171 165 169 171 172 172 173 171 172 170 168 170 169 168 164 160 162 158 154 149 150 146 150 152 150 155 151 152 134 139 138 139 136 140 137 137 129 112 86 0 1 0 7 26 56 43 70 34 58 33 62 70 62 51 65 42 32 42 31 23 17 12 6 188 164 174 172 167 165 169 169 169 168 167 170 171 172 174 172 173 181 186 187 192 199 198 201 204 202 198 194 186 174 165 162 161 170 174 171 166 165 162 162 166 166 164 161 159 157 154 149 145 148 145 155 154 149 149 153 144 143 143 143 137 141 142 139 134 125 128 17 0 1 3 8 8 43 50 70 45 41 61 57 62 73 45 64 46 26 43 28 24 21 16 7 121 174 174 172 171 169 170 169 171 167 167 172 171 173 173 164 170 173 184 190 192 199 208 209 202 191 180 177 180 189 182 176 173 177 186 182 166 167 168 157 161 156 159 155 150 150 148 143 146 142 142 155 151 152 154 150 150 148 143 141 140 142 145 140 130 127 139 0 0 0 5 8 18 47 40 57 69 32 52 59 57 74 53 57 41 33 40 30 29 17 12 12 25 189 176 174 174 171 170 170 171 170 169 172 168 170 164 160 163 170 174 187 198 202 191 171 159 141 141 144 152 142 147 155 169 150 135 125 123 131 123 128 132 134 138 143 147 146 142 145 133 140 139 150 154 153 152 152 154 151 142 141 143 144 146 136 133 118 109 1 0 2 0 9 16 19 46 63 48 46 33 53 49 70 50 51 44 45 36 25 31 18 9 2 8 172 174 177 177 180 177 177 172 170 170 173 167 166 158 154 155 167 177 187 174 161 141 133 138 137 140 125 113 115 124 133 119 122 116 116 120 112 123 115 114 114 107 104 103 102 111 114 130 126 148 158 155 157 157 158 156 149 143 144 150 147 150 139 129 127 27 2 0 0 10 4 6 15 39 49 58 40 53 56 50 65 60 50 49 46 30 28 28 16 11 3 11 71 187 176 177 180 177 174 177 171 172 174 168 165 162 152 146 148 171 149 117 119 111 115 115 117 115 116 100 108 108 99 107 108 109 101 115 104 106 113 105 102 97 102 94 70 33 42 99 137 150 158 157 158 157 157 155 150 145 145 150 146 141 134 133 128 1 0 0 0 11 4 5 8 46 47 51 39 46 58 56 57 66 50 46 43 27 35 28 17 4 9 9 9 193 178 174 177 178 176 177 173 172 174 168 169 161 151 127 68 69 107 107 97 93 95 87 80 99 84 93 95 112 102 89 104 94 89 85 88 92 83 62 79 98 28 31 45 80 113 138 150 159 160 158 157 157 155 155 148 141 146 152 144 144 135 127 60 0 0 1 3 5 1 4 11 55 32 48 34 50 74 46 43 69 53 52 44 34 27 21 15 9 9 7 11 109 173 173 177 180 176 178 181 176 174 169 166 162 153 139 76 72 54 39 35 53 78 22 143 148 115 161 154 150 154 132 149 149 148 151 107 132 98 31 30 35 63 86 98 115 151 154 159 159 160 161 161 157 154 153 148 147 148 150 143 141 126 136 9 0 1 2 2 6 4 4 6 52 32 52 31 49 48 52 45 56 42 47 47 34 27 25 22 9 9 5 7 10 193 176 177 178 179 177 178 178 173 170 167 164 162 161 147 135 113 106 108 88 58 49 62 92 77 140 173 173 171 124 162 154 140 84 53 116 41 36 68 93 112 118 111 142 157 161 160 160 158 157 159 157 155 153 148 146 147 147 141 137 122 92 0 0 0 1 2 2 5 9 3 48 39 52 41 44 59 56 44 48 72 42 55 30 25 22 20 14 5 7 5 5 131 171 180 180 180 176 177 175 171 171 170 161 167 167 167 164 151 139 147 146 115 92 54 61 84 73 62 57 63 72 73 57 58 71 56 66 67 84 109 125 100 114 127 153 159 165 160 158 160 160 159 158 153 151 150 147 145 146 141 129 135 14 0 0 0 0 2 2 2 8 4 43 36 42 37 46 64 50 55 43 60 41 44 31 31 18 24 17 5 2 2 7 25 185 181 179 179 177 176 174 171 172 169 162 164 166 174 175 167 151 166 149 152 170 152 116 84 80 80 100 88 80 80 92 93 93 95 89 104 142 112 109 119 101 149 154 160 164 160 161 157 160 156 156 152 148 148 149 146 144 140 130 94 0 0 0 0 1 1 3 1 5 7 38 34 51 46 46 56 53 52 43 44 51 42 36 33 17 17 18 7 1 0 5 3 124 175 174 179 179 175 174 168 172 169 165 169 174 181 179 173 174 146 148 146 141 172 158 149 127 123 112 115 109 104 102 117 115 117 113 143 109 109 111 102 142 151 161 163 161 160 159 156 157 155 154 149 145 147 148 146 142 135 136 5 1 0 1 1 1 1 0 2 4 7 27 22 51 49 35 42 62 52 41 38 56 41 47 32 26 16 19 11 5 0 0 3 10 183 176 176 178 177 176 171 170 167 166 172 179 184 180 182 177 179 151 139 123 129 157 159 160 164 149 140 133 121 143 157 147 135 144 119 111 109 97 127 151 158 163 160 157 161 157 156 157 153 149 146 145 148 146 144 139 125 109 0 0 0 1 0 1 0 0 1 1 12 26 31 40 48 44 67 52 51 41 50 42 44 50 35 26 15 16 15 3 2 1 1 10 64 191 176 175 173 176 173 167 169 168 172 176 174 180 180 180 173 176 154 139 135 124 133 129 142 133 140 144 114 142 134 96 119 123 104 116 98 129 151 151 159 160 157 155 160 156 158 157 150 147 144 144 148 146 144 128 120 62 1 0 0 0 0 0 1 0 1 1 18 22 38 38 46 41 57 59 63 41 41 40 51 44 42 26 24 16 15 10 2 2 1 6 11 160 177 180 172 175 171 168 170 166 171 174 176 181 182 180 174 169 171 156 137 127 120 124 110 123 123 117 114 129 115 110 115 110 106 100 140 149 153 157 160 160 159 160 160 154 160 156 152 151 145 149 146 143 136 125 87 78 2 1 0 1 1 0 0 1 0 4 35 25 30 38 43 34 60 63 43 40 49 38 40 47 45 37 24 14 16 6 9 3 3 5 9 23 191 166 177 171 169 170 170 170 171 173 180 177 176 179 175 171 162 170 168 147 119 119 118 121 120 118 116 117 113 112 111 110 129 150 151 153 157 159 161 163 162 160 156 158 159 157 148 142 145 147 144 144 124 115 92 92 4 0 0 1 1 1 0 2 1 13 27 29 33 41 34 30 93 48 53 47 46 37 37 32 63 41 23 19 11 17 13 9 5 10 5 10 52 194 179 174 173 174 171 170 172 172 177 181 181 180 177 173 172 164 163 161 152 137 123 122 112 117 116 121 115 125 136 147 156 152 155 156 158 162 163 161 162 158 158 161 158 153 148 146 145 142 136 125 124 98 105 95 12 0 0 0 1 3 1 1 8 11 31 18 27 43 30 29 104 80 60 47 43 38 36 46 44 51 36 23 15 12 25 5 4 6 6 1 5 112 177 168 171 172 174 173 174 177 176 180 182 181 180 180 177 171 167 165 156 156 146 150 150 145 145 145 147 147 148 153 155 154 159 160 159 163 162 162 161 158 159 158 154 150 147 142 145 142 130 121 108 123 102 90 32 0 0 0 1 4 1 1 20 17 21 19 38 45 43 22 66 102 56 54 44 43 36 43 42 66 32 29 24 17 21 13 6 10 5 8 6 7 156 169 173 167 177 176 177 181 174 180 181 182 180 180 176 172 169 165 163 162 156 158 157 153 148 147 153 154 155 154 158 159 160 159 162 164 165 164 160 158 157 155 153 148 145 144 141 132 123 122 116 116 107 98 54 2 0 0 3 6 7 13 7 19 17 25 42 23 33 24 80 96 96 44 65 56 29 43 42 43 42 36 34 22 18 19 13 10 13 3 2 9 7 170 173 174 171 176 179 182 181 180 183 183 181 180 178 178 173 169 166 163 162 163 161 156 155 156 160 161 163 163 163 164 163 166 168 168 166 162 159 156 155 151 150 147 143 138 135 119 124 123 126 117 111 99 80 2 0 0 3 11 16 22 20 29 12 31 46 47 20 22 76 75 104 41 62 47 46 39 41 44 48 30 32 42 16 27 15 11 8 5 5 1 4 9 179 170 170 176 174 180 184 182 184 183 183 179 181 178 177 173 170 171 169 170 170 168 168 167 170 170 170 169 166 166 167 172 171 171 166 160 156 154 153 149 147 143 137 132 125 124 133 118 137 119 114 107 91 10 3 3 4 11 29 23 32 17 13 28 37 29 12 16 91 76 62 120 54 50 54 35 27 39 37 30 39 22 26 21 18 15 6 8 4 3 1 1 167 164 164 172 176 179 183 184 183 184 185 184 184 179 181 180 177 176 174 175 176 175 174 174 174 172 173 172 170 168 170 169 165 171 166 160 156 154 151 142 143 137 131 125 124 140 125 129 130 124 116 105 98 42 2 0 6 27 38 21 18 12 23 22 45 9 21 10 75 70 101 78 76 56 58 38 23 37 31 45 26 33 32 18 22 19 9 8 9 2 5 4 153 172 167 166 172 176 181 184 183 184 185 185 186 180 181 182 183 181 180 179 178 175 176 176 177 175 174 175 176 172 170 168 166 170 167 160 156 151 141 145 132 131 117 133 148 134 119 142 127 125 119 112 101 84 0 5 35 39 24 17 19 39 14 42 18 12 15 6 68 81 45 73 122 56 40 55 27 37 38 44 31 39 23 26 25 18 22 7 8 7 4 3 163 174 183 171 164 171 176 182 185 187 185 186 188 182 184 183 180 182 183 181 179 177 177 176 176 177 178 176 175 172 170 170 169 165 161 157 147 140 140 131 129 115 144 144 129 126 139 138 134 129 121 111 99 99 16 11 36 24 21 16 20 15 36 41 5 16 10 4 67 50 75 77 74 62 57 35 37 32 38 31 34 28 36 29 30 11 29 16 10 8 5 3 130 168 182 188 178 162 170 178 180 183 185 186 189 184 183 180 182 178 178 179 179 177 175 176 178 179 179 175 170 168 165 169 168 165 161 152 144 138 135 129 118 151 145 147 135 125 149 142 132 129 120 113 107 99 61 41 39 25 27 18 33 20 30 25 11 12 5 5 66 71 72 66 62 118 35 58 29 25 39 34 22 29 29 27 36 13 18 21 12 11 8 6 108 169 180 186 187 181 170 171 179 181 184 181 188 179 178 181 180 177 177 179 178 176 177 178 177 181 178 174 170 167 164 167 171 158 155 147 140 134 117 133 153 150 151 146 119 149 144 138 134 126 126 117 106 109 84 34 23 21 38 29 13 43 33 21 4 22 5 4 75 79 53 58 63 96 46 53 34 35 41 32 20 42 34 33 34 23 25 28 20 13 9 7 96 170 184 188 188 183 177 173 174 175 178 181 183 181 182 179 179 180 177 177 176 177 175 176 180 175 172 172 171 168 170 170 163 157 149 142 127 124 144 152 153 152 152 129 146 153 145 137 136 132 123 121 115 97 103 42 25 30 23 11 47 35 14 6 9 12 3 5 64 81 48 66 61 47 100 52 41 36 41 34 22 44 43 21 39 24 15 22 28 9 13 13 82 173 183 186 190 189 184 182 177 172 172 178 175 184 183 179 181 177 173 171 172 169 171 172 171 172 168 169 168 167 169 167 156 156 135 113 140 144 164 145 160 149 134 141 159 150 147 141 134 123 129 108 104 101 102 65 21 19 21 38 33 21 33 5 16 12 4 7 89 65 49 80 55 53 111 43 40 35 46 39 26 43 50 38 35 28 20 28 22 11 10 11 96 164 188 188 186 185 186 182 179 175 172 174 175 175 179 178 176 173 172 173 170 167 168 170 170 170 167 169 168 165 166 161 151 138 128 153 151 152 156 155 154 149 129 159 145 153 151 141 129 143 129 119 91 108 96 80 35 19 21 36 30 14 11 14 5 7 2 7 82 66 60 73 49 65 66 71 45 42 48 39 26 58 43 39 19 41 23 25 21 13 10 8 112 174 187 190 190 189 184 182 185 183 177 172 169 171 170 172 172 170 171 171 166 167 167 167 166 167 168 168 163 160 162 160 140 130 162 156 154 156 163 161 151 129 159 152 156 151 145 139 141 135 125 113 116 92 83 75 58 27 50 29 10 26 18 7 10 3 3 13 69 54 69 69 67 59 63 94 46 56 44 40 21 57 55 40 24 37 37 27 24 24 10 7 124 176 187 190 192 191 188 184 182 184 181 180 172 166 164 165 167 165 163 167 167 164 167 169 169 169 170 170 164 164 155 123 136 157 154 155 158 159 159 157 136 154 153 154 154 150 142 137 141 139 108 101 114 77 50 54 33 30 44 8 9 24 16 9 7 3 4 13 83 59 48 72 63 57 73 105 44 55 51 37 31 55 55 45 25 35 37 27 18 27 11 11 133 177 186 190 193 191 191 187 185 183 181 179 177 172 161 156 163 160 164 165 164 164 165 168 168 163 161 156 156 124 120 144 157 156 159 158 161 160 159 137 148 157 156 153 151 147 142 135 140 143 84 63 24 26 43 15 13 49 12 7 17 25 17 8 4 3 8 8 78 96 79 62 55 67 57 100 72 59 54 38 62 43 48 53 22 30 39 27 23 30 12 18 140 178 184 188 191 189 187 192 189 181 177 176 178 176 167 146 128 160 157 160 156 160 159 164 161 155 145 135 132 151 160 160 157 158 160 164 164 166 140 141 159 154 151 148 149 147 139 145 102 65 18 41 29 38 41 71 70 69 30 19 18 16 18 3 7 5 12 5 75 78 66 53 46 69 62 91 70 66 56 44 57 55 56 46 27 28 42 27 31 37 18 54 126 173 186 191 192 191 189 192 192 191 186 180 173 170 157 169 185 179 180 171 167 165 153 155 148 148 149 157 161 163 164 162 163 160 167 166 167 144 142 154 155 145 158 147 144 151 105 20 15 50 42 51 98 128 114 113 98 49 32 11 35 26 17 4 7 12 11 10 89 72 87 60 38 74 91 78 77 81 50 46 53 66 60 41 29 25 48 37 31 31 18 86 125 179 186 185 192 190 189 191 189 188 184 181 176 178 177 187 188 186 182 189 185 180 176 169 170 167 162 164 167 165 164 161 165 170 169 168 150 138 158 150 148 155 138 146 128 11 5 5 43 46 108 113 106 117 129 95 96 68 79 74 68 40 14 21 12 15 6 5