P2
# Generated by OpenCV 4.2.0
92 112
255
85 111 123 144 125 134 114 88 91 104 79 79 66 56 34 33 53 51 79 53 37 70 61 46 49 41 53 51 67 35 24 26 34 23 30 37 49 49 65 75 89 102 92 87 93 96 93 92 92 85 87 100 99 115 126 113 72 76 85 83 78 75 75 69 72 91 81 92 84 85 43 70 90 122 150 166 173 170 131 133 130 127 160 170 174 158 151 157 175 187 200 210 92 117 120 133 132 130 108 69 94 94 83 86 49 31 46 43 57 67 56 40 63 58 54 47 43 48 45 62 50 27 35 26 26 40 43 43 52 63 72 87 98 106 109 104 116 131 134 118 104 93 66 73 61 39 51 54 65 51 38 30 20 18 19 16 4 22 34 41 49 64 53 38 44 66 104 146 151 145 141 120 128 95 124 152 159 159 152 157 175 181 189 201 122 94 146 124 127 116 82 93 115 79 67 61 34 35 42 50 52 69 50 49 59 68 47 46 47 36 56 72 30 29 31 34 47 52 54 64 73 78 95 98 106 116 115 126 122 115 111 101 94 90 67 54 51 46 45 44 39 35 26 24 22 22 18 18 15 15 10 15 10 14 26 43 42 36 48 82 121 137 146 139 131 106 97 134 129 156 166 158 155 171 185 189 114 124 127 133 122 104 87 97 85 65 64 46 31 38 56 52 52 72 42 58 61 48 43 46 44 44 55 53 34 32 42 50 53 67 74 80 97 109 111 118 126 128 125 131 127 117 114 104 94 98 88 73 64 47 48 45 43 37 36 33 30 29 23 17 17 15 11 14 10 11 10 16 20 33 39 47 73 102 119 140 137 133 107 110 127 145 159 146 151 157 177 186 117 141 120 127 108 89 93 101 66 57 56 39 41 52 49 53 62 65 48 66 61 40 49 46 41 47 54 55 49 53 59 66 80 86 95 105 112 117 125 128 129 131 133 138 138 134 132 125 109 99 88 85 77 65 56 47 53 41 36 41 41 36 28 25 17 17 7 8 6 9 8 7 14 17 20 31 50 73 91 129 139 128 128 100 106 114 148 146 130 161 163 171 132 134 117 120 105 83 102 86 47 61 48 41 47 47 52 48 70 55 48 62 64 43 55 48 45 56 68 54 60 69 79 86 92 100 109 119 123 125 133 137 140 140 139 143 141 146 141 140 129 121 114 99 89 76 80 72 63 60 59 52 43 34 32 26 21 23 17 16 11 9 3 6 7 9 21 20 30 46 66 95 123 129 121 119 110 123 112 144 139 122 158 173 136 122 121 109 90 89 103 51 54 54 46 35 58 42 52 53 72 49 59 65 50 61 57 45 56 58 75 62 74 91 103 106 111 115 119 126 129 135 140 140 145 147 147 150 153 153 145 144 141 136 130 125 120 116 108 100 92 89 86 81 79 81 67 61 47 46 40 32 26 17 12 3 6 6 16 17 22 36 48 71 105 131 126 111 107 109 106 112 129 123 131 167 139 121 116 109 91 95 81 43 56 46 45 51 40 51 55 74 61 53 65 74 48 57 48 51 54 68 68 75 90 106 109 117 121 122 127 132 135 140 146 147 152 152 153 152 153 157 151 149 146 144 141 138 134 134 129 125 120 113 108 112 107 97 96 86 80 72 62 51 42 32 20 12 5 6 9 14 15 20 36 44 79 105 133 114 108 102 111 104 116 131 123 133 136 112 108 95 97 102 55 52 51 40 45 48 41 54 64 70 56 56 78 50 45 67 54 52 60 73 77 90 103 115 119 120 121 129 135 139 142 145 149 150 155 156 157 155 156 154 155 151 150 152 152 147 144 138 141 138 138 135 129 122 122 124 115 120 103 93 81 69 56 43 32 18 14 9 5 9 12 16 26 44 62 83 98 121 113 103 109 95 95 137 126 129 121 107 105 100 96 101 42 64 43 41 50 41 48 60 74 73 54 59 74 45 54 63 51 59 60 74 88 103 119 122 126 128 134 139 139 145 146 153 154 152 155 157 154 156 158 154 156 153 152 152 155 150 148 145 144 140 146 142 138 142 136 131 124 115 120 106 94 84 73 52 46 31 18 12 8 6 7 14 24 27 47 69 86 103 130 103 85 104 96 100 134 106 103 113 105 100 102 77 51 65 49 48 51 40 49 62 73 63 59 68 67 48 53 64 63 63 71 86 99 116 128 129 129 135 137 144 147 152 154 152 158 159 158 161 160 157 156 155 153 153 154 155 153 151 147 149 147 151 152 149 144 142 142 137 131 129 122 106 92 88 78 63 53 41 33 18 14 8 9 10 15 21 37 57 78 90 114 112 96 92 107 84 120 128 99 108 97 95 103 48 51 64 44 52 43 57 79 70 61 64 57 75 67 52 60 68 65 58 84 87 108 127 128 129 134 139 141 146 149 156 159 157 159 161 163 165 163 158 158 160 161 157 157 157 151 151 152 148 150 151 149 147 146 142 142 138 136 134 129 120 106 102 86 74 61 55 43 31 19 13 7 13 15 17 28 50 70 82 98 122 105 81 99 98 106 141 97 109 94 99 91 47 66 54 41 55 41 55 66 55 69 62 65 82 57 56 67 55 65 69 86 93 117 131 136 140 140 142 150 154 156 159 160 165 164 165 164 165 165 164 162 160 161 157 160 156 156 156 151 150 150 152 149 149 153 146 143 141 137 133 130 124 114 105 93 82 71 61 53 38 27 21 20 15 8 18 26 42 59 84 85 110 106 82 83 104 86 104 95 103 88 98 55 55 66 47 55 44 33 54 64 52 77 60 57 76 51 62 72 56 68 78 97 108 130 141 147 138 145 146 152 155 156 161 163 165 164 165 166 164 166 162 158 161 161 152 157 156 155 157 156 154 152 155 151 150 146 141 143 143 141 133 127 125 114 113 98 86 80 68 55 49 36 21 19 16 8 18 22 38 43 71 94 91 120 83 75 86 110 99 102 105 87 96 55 58 65 45 54 32 49 60 60 67 67 58 72 72 56 66 68 56 78 82 98 115 135 146 144 144 144 151 157 162 163 166 168 166 167 168 167 165 165 160 157 157 160 157 158 159 157 155 153 155 155 154 153 148 150 144 145 141 139 134 131 128 122 113 102 93 85 74 59 50 38 29 26 18 10 9 23 31 41 57 78 90 104 98 65 83 87 101 104 97 89 82 59 62 64 45 53 33 43 65 54 64 64 56 79 62 63 68 67 67 80 86 107 125 146 150 146 148 147 156 162 165 166 168 167 169 165 167 167 167 167 164 161 165 165 161 159 156 157 159 160 154 155 155 157 153 150 147 146 143 139 135 132 128 126 118 107 100 93 79 66 55 46 38 27 17 16 11 19 28 36 47 64 85 93 101 82 59 98 91 102 94 93 72 68 67 49 50 46 34 48 57 67 61 67 61 75 58 67 70 64 72 76 92 112 132 156 156 153 151 154 161 162 163 167 168 168 170 169 168 167 169 166 166 163 163 159 163 162 160 162 160 155 156 157 156 154 154 149 147 144 145 142 136 134 126 126 121 113 104 96 84 74 58 53 45 38 22 13 9 17 29 34 44 63 77 91 95 94 69 76 93 98 98 98 68 68 67 45 48 42 41 52 54 61 70 60 68 77 59 69 71 67 77 76 89 118 145 151 157 153 154 157 165 167 167 171 170 166 169 171 169 166 166 167 166 162 164 166 161 161 158 157 159 158 154 158 158 153 151 149 151 147 141 139 140 135 128 126 122 115 105 96 90 79 65 55 48 41 28 15 13 12 28 31 40 57 74 80 92 97 73 73 95 99 96 79 63 71 61 46 51 36 43 54 63 63 70 57 75 65 62 73 70 73 83 78 95 127 143 155 155 150 151 163 165 166 169 170 169 171 171 168 170 170 170 169 166 162 163 165 161 156 155 159 158 158 160 159 158 157 153 147 146 147 141 137 138 134 129 125 118 115 107 98 92 86 73 60 48 41 30 16 13 10 26 34 37 50 63 66 88 95 94 52 84 93 87 75 65 74 55 43 49 46 46 60 51 64 63 60 76 65 70 70 67 71 76 75 98 130 156 157 154 153 157 163 170 169 169 175 171 169 169 167 170 171 168 166 167 168 164 162 158 162 161 162 162 160 159 158 154 158 154 148 143 142 141 136 137 135 130 127 122 115 109 101 91 82 77 64 53 43 32 18 9 6 25 33 37 43 62 66 80 98 96 75 51 91 86 72 72 74 50 44 41 47 40 52 57 69 60 61 71 62 66 72 65 75 83 87 106 131 158 159 154 151 150 167 173 174 175 174 173 173 173 169 172 172 169 169 167 165 170 164 164 162 162 159 160 159 158 158 158 156 156 146 148 142 139 138 135 132 126 126 123 116 110 101 94 92 83 68 58 46 34 26 10 7 22 31 35 43 57 68 69 87 100 94 57 91 81 71 74 70 52 50 42 53 36 49 72 67 65 70 69 60 71 75 66 81 88 87 111 139 149 156 152 151 153 160 166 166 171 173 174 169 171 171 169 170 168 172 169 170 165 167 166 163 163 163 161 160 161 154 159 155 158 151 149 142 138 139 136 134 127 126 121 114 110 104 98 87 79 74 60 49 38 25 14 9 15 33 37 42 52 64 58 79 97 96 79 83 86 76 77 74 52 47 49 20 42 47 66 63 64 64 65 60 69 70 64 83 84 88 112 141 149 159 154 152 159 167 169 177 177 173 172 171 176 174 176 174 174 179 173 168 168 167 166 167 164 161 159 164 162 159 161 162 158 151 146 143 143 138 134 129 126 127 122 115 114 104 99 92 83 75 61 55 41 27 14 10 9 30 38 37 47 64 62 71 86 91 90 83 86 74 85 67 51 52 36 31 42 52 65 67 54 64 65 63 68 69 67 80 81 94 115 147 151 159 156 151 159 169 173 172 177 178 175 178 175 177 173 173 172 173 174 170 167 168 166 167 166 167 164 164 158 158 159 161 158 152 144 146 141 136 135 129 128 125 122 119 113 104 102 92 84 76 62 54 42 30 20 13 13 29 33 40 43 59 55 66 80 87 91 83 77 70 78 69 51 45 34 19 53 45 66 73 58 69 59 61 65 65 72 79 81 99 120 151 151 157 158 152 159 168 170 172 174 179 172 177 173 177 177 176 177 173 173 168 170 168 169 170 169 168 164 163 162 160 159 153 155 148 144 147 140 137 136 128 128 121 120 117 112 102 100 94 86 80 68 55 45 30 20 18 8 24 34 38 43 58 56 58 68 70 89 80 67 75 79 64 51 37 27 26 42 49 55 67 52 59 55 62 58 64 70 72 87 98 118 149 150 157 160 150 157 168 172 176 177 178 177 175 176 176 177 178 174 179 172 171 168 171 170 168 164 167 165 162 161 165 157 155 155 149 142 143 142 136 136 134 128 126 123 117 112 106 98 93 86 79 66 56 47 32 18 16 9 25 34 38 51 49 58 54 67 73 75 82 73 71 72 64 50 34 31 23 42 55 53 57 64 66 53 62 65 66 77 71 89 96 127 149 151 154 157 159 162 166 173 176 174 176 174 174 174 177 176 178 179 182 172 171 172 168 170 173 172 169 167 167 166 164 157 160 154 152 142 144 140 137 138 130 125 123 120 120 113 108 102 99 86 75 70 57 48 37 24 13 15 21 36 38 45 52 49 56 58 71 77 81 63 67 75 63 48 33 24 25 45 50 59 51 67 64 54 63 64 65 70 69 94 96 132 151 149 154 155 161 164 164 171 177 175 179 177 178 175 177 178 178 177 175 175 173 173 172 174 174 173 169 166 164 164 160 154 150 160 152 147 149 145 139 138 132 126 124 121 118 114 107 102 93 90 79 73 60 48 38 29 12 10 24 35 43 41 56 56 55 58 63 78 79 65 66 72 57 41 29 23 26 50 52 65 53 59 61 60 58 60 66 68 71 99 100 131 154 144 151 157 161 167 172 172 176 178 179 176 177 173 174 179 179 175 171 174 169 171 171 167 172 174 171 168 165 163 160 162 164 155 151 151 143 143 140 138 131 129 128 123 117 115 111 100 97 91 79 72 61 51 37 29 19 10 23 37 42 44 47 51 75 54 65 71 73 63 68 74 51 41 26 21 30 50 52 60 49 72 59 57 61 62 63 68 78 95 112 135 149 153 153 157 163 169 172 177 177 172 177 179 178 179 171 183 176 175 173 171 174 174 177 171 173 169 170 163 160 166 164 161 160 160 150 149 146 145 138 135 132 129 126 121 115 115 107 106 96 91 82 75 59 50 40 31 23 11 19 35 46 39 46 51 62 64 68 80 73 66 75 64 53 29 34 16 29 58 61 64 57 74 48 63 57 61 72 71 77 97 120 141 151 152 156 154 165 172 173 179 180 179 172 174 168 171 177 176 180 177 173 171 169 166 169 166 170 175 171 166 171 166 165 166 158 159 156 158 149 143 139 140 135 129 127 123 120 118 113 102 90 92 88 73 63 47 43 31 23 14 15 33 49 41 44 55 44 46 62 64 70 69 70 54 49 26 36 18 34 55 66 61 54 65 53 65 58 60 68 77 84 101 121 143 152 153 152 160 167 169 176 181 181 181 180 179 171 174 176 176 181 173 170 174 172 169 172 171 172 168 173 168 166 167 164 168 161 160 161 151 153 145 141 140 135 132 125 124 121 114 109 103 99 91 80 75 63 49 40 30 23 17 16 33 41 41 42 50 47 43 54 54 71 73 66 47 41 33 34 23 39 67 55 53 66 56 55 55 53 69 71 81 82 104 125 145 153 155 155 163 163 173 178 184 178 181 181 180 172 176 173 176 175 172 169 174 172 166 174 172 173 170 175 170 167 170 162 163 157 159 159 152 153 143 140 139 131 129 126 124 121 115 114 103 95 95 90 81 64 57 38 31 23 22 18 34 40 41 39 50 43 34 50 53 67 65 69 54 49 27 34 19 37 62 66 49 72 54 54 58 55 66 72 73 86 110 128 150 153 151 147 159 167 175 181 180 181 181 179 180 177 177 176 180 175 174 171 171 167 168 167 170 170 171 170 164 163 161 161 155 152 160 155 148 149 143 144 137 134 124 125 123 122 121 110 110 103 98 92 83 64 49 39 29 22 20 17 33 44 42 45 50 50 32 48 59 61 62 67 50 42 29 34 16 46 64 59 47 71 51 60 59 61 65 70 74 94 109 129 144 153 148 153 157 159 164 168 177 175 181 179 169 171 177 174 172 169 169 166 163 164 169 170 166 164 165 166 162 159 154 157 158 156 153 150 149 146 139 140 135 129 124 124 117 117 115 106 104 97 93 88 78 64 50 37 31 25 22 19 31 41 43 42 40 50 39 46 57 55 69 64 51 41 27 27 13 51 64 54 50 64 50 54 59 62 61 68 75 89 99 122 125 137 129 134 148 152 154 158 168 166 169 169 168 169 159 160 168 167 163 167 161 164 164 162 163 161 159 163 161 157 158 152 150 145 148 146 145 138 139 130 130 123 119 117 110 111 107 96 99 87 84 79 72 63 49 35 37 29 22 19 27 45 43 42 39 44 45 47 49 53 70 60 45 38 26 24 22 58 67 56 52 67 52 59 55 57 59 63 58 70 68 76 86 84 82 97 102 117 141 140 141 142 147 152 143 136 142 147 150 154 160 158 159 163 159 165 158 158 161 156 151 152 147 143 145 143 133 131 133 134 129 120 121 111 104 99 93 91 94 83 76 70 63 59 62 59 50 35 28 29 21 23 31 41 41 41 41 47 41 49 55 57 72 59 42 39 31 24 31 62 63 52 57 63 59 54 57 52 51 49 45 47 46 53 50 43 49 51 50 52 57 57 73 72 69 74 92 113 116 123 142 137 145 152 158 163 155 163 159 156 156 151 150 150 146 144 133 119 112 113 106 93 79 81 77 77 67 57 47 45 42 38 35 31 31 40 46 38 39 35 26 26 27 25 29 46 42 40 35 43 41 38 52 50 68 52 34 33 30 22 44 68 63 50 56 62 58 56 56 49 44 39 46 44 43 40 47 45 45 52 50 51 48 50 49 53 57 56 70 72 94 97 106 133 131 146 154 156 156 161 153 148 145 146 142 145 141 121 108 95 90 70 66 52 44 36 34 30 29 23 28 29 33 26 26 24 24 27 25 27 27 23 23 26 28 26 27 47 46 43 37 40 40 39 51 59 71 47 36 33 20 34 44 62 63 52 58 57 56 60 54 46 44 48 44 45 52 63 55 46 48 51 58 60 58 58 47 55 57 60 76 61 69 84 100 116 129 142 149 152 156 153 147 147 145 142 139 139 130 108 88 72 70 62 48 39 34 34 26 25 34 31 35 30 22 21 31 35 31 27 20 18 18 10 19 22 26 23 30 45 46 41 38 40 44 36 49 53 75 49 37 33 24 40 42 62 54 58 59 52 64 66 52 44 51 52 69 81 82 86 87 89 94 83 92 87 74 69 74 72 62 67 72 71 71 69 92 112 126 147 155 159 153 151 148 142 139 134 132 129 124 102 79 74 54 53 47 49 43 38 38 33 39 40 40 45 50 55 55 54 49 50 38 32 27 16 15 14 28 25 28 46 39 39 42 37 40 32 27 56 76 50 29 34 36 31 47 67 54 55 58 51 68 62 40 53 60 78 109 122 126 127 120 122 130 130 132 137 134 127 118 107 101 93 83 76 83 85 106 118 126 148 161 162 161 154 151 145 136 130 129 124 115 94 79 69 60 61 58 56 57 58 66 70 76 76 86 93 100 96 89 90 84 75 58 45 30 21 11 15 23 28 27 44 41 42 39 34 44 34 32 56 70 48 30 35 31 32 40 69 53 68 62 53 67 50 52 55 80 101 124 136 135 129 140 138 138 140 137 139 135 133 133 128 126 124 132 129 126 118 119 132 141 156 160 163 160 153 148 137 136 127 125 117 107 92 87 80 85 80 79 86 96 95 105 116 112 111 113 115 109 107 108 101 101 93 83 71 53 34 21 16 27 28 25 37 43 43 44 37 39 33 30 61 70 40 22 40 33 31 47 69 53 61 57 61 61 47 63 67 89 111 125 136 135 138 137 135 136 140 142 139 138 132 130 132 126 131 130 130 135 142 146 147 155 161 166 169 155 153 143 138 133 126 114 109 99 97 93 89 81 85 98 108 112 120 121 119 122 124 114 110 111 109 104 103 101 94 90 77 63 47 33 19 30 29 28 27 44 44 42 34 37 40 36 68 62 39 30 34 28 36 53 67 54 61 51 65 53 43 66 81 106 119 124 130 120 134 125 135 126 133 124 125 122 121 121 116 119 118 119 128 127 138 144 153 157 168 173 170 156 169 150 139 128 121 109 101 94 87 74 67 85 100 107 115 117 118 109 115 116 109 100 100 95 96 93 94 92 88 86 76 61 52 38 30 27 29 25 26 45 38 43 44 32 47 37 56 56 31 33 28 26 28 54 68 60 52 49 60 42 52 62 94 97 111 120 111 115 103 94 80 60 49 42 34 31 30 32 40 68 88 114 116 131 131 135 145 160 168 171 173 167 168 153 138 125 112 98 87 74 63 62 88 95 94 88 70 53 44 44 49 46 53 50 57 68 67 74 80 78 81 78 70 58 55 46 44 31 30 24 25 40 43 43 36 32 42 37 52 64 29 30 26 25 20 60 69 54 56 51 61 40 55 67 85 100 96 94 90 81 27 21 41 47 32 19 10 18 20 26 19 20 33 63 103 116 124 126 138 148 163 178 184 173 165 156 137 118 104 91 81 55 60 76 69 70 42 25 40 23 25 24 21 29 20 28 21 16 21 32 45 69 71 70 68 54 53 55 45 36 29 29 25 36 46 44 41 40 31 30 55 58 31 28 22 27 32 60 67 58 61 54 54 49 56 75 88 88 82 65 33 22 29 17 2 13 12 26 40 24 34 42 32 50 36 36 66 106 115 122 134 149 162 179 186 179 171 158 134 122 103 84 60 55 67 64 62 34 29 20 15 18 40 24 30 10 16 12 14 11 19 16 19 29 42 54 49 50 54 53 49 40 29 24 22 32 45 41 39 37 34 34 55 55 42 22 26 28 29 61 63 59 60 43 62 56 56 79 98 90 59 33 23 12 6 12 13 34 35 93 40 100 43 51 39 84 77 39 39 75 107 119 129 148 165 180 188 191 175 162 138 117 94 76 57 57 57 64 39 21 26 47 90 41 95 25 150 27 36 18 25 19 9 13 17 13 21 26 62 54 58 59 53 38 30 25 25 27 42 48 44 39 35 31 50 57 43 24 32 29 40 59 67 48 59 56 48 59 71 82 95 97 78 44 24 12 14 21 40 49 79 89 45 26 55 43 56 101 109 67 53 55 107 130 143 152 168 179 188 192 180 158 139 119 99 68 58 59 71 54 29 28 55 93 94 67 70 36 23 37 48 31 34 27 15 10 8 11 17 42 55 58 61 57 52 44 36 25 24 24 35 45 45 43 36 30 59 48 37 31 29 27 50 66 68 58 55 59 41 57 85 90 97 97 82 65 54 50 59 48 49 49 54 55 61 53 58 59 62 65 59 56 52 59 75 140 154 161 175 182 189 200 179 167 145 120 95 72 65 62 62 33 28 40 49 49 56 53 50 49 55 58 59 48 44 37 35 34 33 26 36 44 56 56 62 60 58 47 36 26 19 21 35 42 50 40 33 33 59 50 37 34 30 32 52 74 56 58 71 56 41 75 85 95 98 103 102 98 82 90 97 98 107 105 110 110 103 103 98 97 89 98 88 91 92 78 82 133 160 158 177 183 187 191 183 167 141 120 103 74 72 74 70 62 77 95 84 96 111 106 107 104 86 92 78 74 69 63 63 55 53 57 61 62 64 65 70 67 60 52 38 26 23 16 26 44 50 47 35 36 55 48 33 33 39 41 43 65 63 57 73 56 48 65 93 99 111 118 122 120 118 123 125 123 127 129 123 121 123 113 107 99 99 98 96 97 122 135 147 161 163 169 180 181 187 191 182 167 143 124 101 84 80 78 84 94 98 92 95 94 107 112 116 111 114 108 98 86 80 70 73 75 84 85 88 89 85 81 79 71 63 55 39 29 22 13 13 46 47 51 36 33 56 51 37 30 34 48 35 67 55 58 70 57 48 63 96 100 119 119 127 131 135 138 146 144 138 133 126 127 122 119 109 104 100 97 112 121 127 131 150 165 171 180 184 181 187 187 178 168 148 121 109 90 83 86 81 95 98 97 94 94 96 93 100 104 97 93 92 90 87 88 90 90 91 91 97 93 90 87 83 76 69 56 44 31 20 16 14 32 43 46 43 33 57 46 35 41 27 47 42 72 62 65 64 54 50 60 97 106 122 124 130 133 136 141 144 149 149 148 146 139 134 122 124 119 121 129 136 139 144 159 166 178 185 183 183 183 190 183 179 168 147 130 109 94 90 94 92 88 105 105 107 107 102 102 102 101 103 105 100 103 108 106 100 101 107 111 108 107 99 88 82 76 68 60 46 27 22 18 17 20 46 47 44 43 55 48 40 39 38 43 47 71 58 62 60 52 49 59 102 110 114 132 136 145 152 148 148 153 147 149 151 144 135 139 131 135 142 153 149 158 166 171 176 181 181 181 181 186 191 185 175 163 153 122 111 107 92 101 102 103 90 111 108 112 113 105 102 107 107 107 109 107 103 103 106 105 111 109 114 108 98 93 87 74 69 57 49 37 24 16 16 12 42 43 43 44 59 45 40 33 49 49 43 71 60 58 60 47 59 67 96 114 121 131 130 135 142 141 143 146 150 150 155 149 151 150 155 153 157 159 162 167 173 180 179 182 181 180 185 190 188 190 176 166 152 132 115 109 101 98 103 102 103 106 116 118 121 121 122 119 122 123 122 127 133 131 130 128 128 124 119 114 105 98 89 81 76 61 50 39 18 16 15 10 30 45 50 48 55 49 35 36 47 38 47 67 64 61 57 52 60 65 95 111 124 140 147 152 150 142 148 151 153 153 155 156 159 157 154 158 163 162 163 169 176 179 179 181 182 183 185 191 184 184 176 169 153 134 119 111 107 101 102 105 111 113 117 121 123 127 133 135 136 141 143 138 135 134 136 138 132 133 125 114 107 100 92 78 73 61 53 40 28 29 26 9 16 40 46 43 54 49 41 38 44 48 39 79 66 53 65 53 51 63 91 112 130 143 148 156 148 155 152 156 159 161 159 160 161 160 160 164 165 165 168 171 175 175 177 178 180 185 182 186 186 189 179 163 159 138 126 114 108 105 105 108 113 120 121 126 133 130 132 137 142 142 137 142 137 138 133 130 133 130 125 118 100 96 86 85 74 60 52 38 28 42 42 9 10 25 49 50 60 49 42 47 44 43 42 74 70 57 72 57 52 72 97 117 135 149 155 150 158 158 161 164 164 165 164 163 160 160 167 164 168 165 169 171 177 177 180 185 186 189 187 191 189 186 180 174 154 142 131 120 114 109 111 113 118 120 128 126 129 133 139 142 140 143 144 139 139 141 138 136 136 131 123 118 112 94 87 77 74 62 57 41 29 41 40 19 15 9 40 46 61 51 43 45 51 46 48 66 69 51 64 60 46 69 93 119 141 152 152 155 161 167 170 170 167 165 167 169 165 167 169 166 172 171 171 177 181 181 186 185 189 191 189 186 187 193 180 168 153 144 129 116 112 111 112 120 116 121 124 128 134 138 142 145 150 146 144 141 140 140 136 134 131 127 121 114 106 96 87 83 72 63 56 41 24 32 43 30 11 7 33 42 60 47 50 47 38 40 44 65 68 49 64 60 45 63 91 122 145 151 150 160 171 174 176 176 175 173 175 175 171 171 173 172 183 174 178 186 184 187 192 187 190 191 187 191 196 194 179 171 160 145 134 124 114 111 112 120 119 124 124 128 133 134 137 142 145 144 143 144 146 142 138 134 133 127 117 108 103 98 86 83 73 64 56 44 24 43 40 17 10 9 24 43 58 49 54 36 40 48 43 70 67 51 61 62 48 61 95 126 145 148 147 163 179 184 188 184 179 178 180 177 174 176 175 182 178 177 179 183 190 192 197 193 195 195 194 195 194 193 188 175 163 143 133 128 117 107 109 106 117 120 128 132 135 138 140 140 142 146 146 143 146 142 142 135 129 126 121 112 108 97 92 80 74 60 51 43 32 33 44 40 18 10 18 42 61 48 53 35 42 42 51 70 60 58 53 67 46 65 94 129 144 144 154 174 184 190 193 190 182 180 184 181 179 181 179 182 177 175 174 176 176 176 190 195 195 196 195 194 194 188 184 174 166 152 141 129 113 107 107 102 106 109 123 130 133 139 139 142 140 140 144 144 145 142 139 133 129 129 120 114 107 95 87 84 77 65 54 43 23 30 61 19 16 18 14 32 63 53 45 38 40 35 51 70 69 57 57 70 49 64 89 129 142 140 157 178 188 193 191 190 183 178 183 184 183 178 184 176 173 162 159 149 155 178 183 187 191 196 195 197 194 190 182 172 166 157 141 137 119 101 103 99 101 97 106 116 131 135 137 141 138 142 143 143 147 143 139 134 130 129 119 113 107 98 89 81 75 64 54 40 31 15 29 64 12 21 9 26 57 57 45 38 38 40 57 63 62 59 62 66 57 64 88 122 137 139 161 178 191 191 185 186 185 181 178 179 178 179 173 166 160 145 143 138 155 176 185 183 183 191 196 191 188 187 181 172 165 156 146 137 123 106 108 107 108 91 94 103 117 126 133 135 134 139 139 140 141 139 137 134 128 125 118 113 106 96 89 83 74 61 51 39 10 22 51 22 31 11 17 21 60 62 36 35 39 42 57 62 61 65 46 66 57 59 86 114 132 140 158 177 186 186 186 183 181 176 182 174 173 166 161 152 136 129 124 129 166 182 184 186 188 193 195 196 193 187 181 173 164 145 143 140 128 109 114 117 112 101 89 100 103 114 121 129 133 136 138 139 146 142 137 126 125 120 116 112 105 98 89 84 73 59 51 37 29 49 28 27 5 16 11 21 62 62 40 40 39 37 57 61 59 67 49 62 62 54 84 106 130 134 149 175 183 184 179 182 179 179 173 170 161 158 148 131 120 117 130 142 167 184 189 184 186 189 189 199 198 190 187 172 170 153 148 138 123 115 111 117 113 115 86 103 103 108 114 123 128 131 134 135 137 137 132 127 127 120 117 112 103 93 87 78 71 59 50 34 30 24 25 5 6 7 17 20 57 65 35 34 32 42 49 65 72 64 53 58 64 56 71 98 117 126 142 159 171 178 180 176 174 172 168 163 152 144 133 120 115 136 149 147 177 179 187 189 194 187 195 202 198 189 179 173 167 155 139 128 122 111 108 111 106 105 89 105 113 110 108 114 123 132 131 131 129 132 130 124 120 117 114 108 102 93 87 77 65 55 45 29 13 6 2 1 4 13 16 22 58 69 39 38 35 34 50 58 67 74 60 61 59 58 65 94 113 122 132 150 166 174 173 169 170 167 163 149 137 132 117 116 142 157 161 168 168 185 183 187 187 184 192 195 198 191 178 177 169 151 135 125 112 105 100 101 100 94 98 106 111 108 108 110 114 123 128 129 129 130 126 120 120 118 110 104 97 91 84 75 61 50 40 24 0 7 1 3 6 16 18 25 62 66 43 36 35 32 47 66 67 70 59 63 56 58 61 85 105 115 124 138 152 164 164 167 161 155 152 138 126 115 114 145 155 170 176 182 177 175 177 183 179 182 186 189 191 182 174 169 165 144 122 113 101 90 89 90 93 91 112 115 107 109 111 111 114 117 128 129 131 129 126 122 121 116 106 101 97 92 85 74 63 51 39 23 0 0 2 4 11 10 19 28 62 62 52 36 31 30 45 67 68 71 67 54 65 61 51 76 104 107 121 121 136 150 155 156 154 143 141 127 112 115 143 164 168 181 186 190 185 179 166 153 158 168 169 173 179 178 166 158 144 132 115 98 85 81 78 83 91 108 113 111 109 108 112 109 106 112 123 128 131 126 122 122 119 107 105 98 96 85 83 71 55 44 38 18 1 1 3 5 12 9 25 28 57 65 58 35 37 37 40 67 67 64 70 63 68 57 60 67 97 106 110 120 126 131 136 143 138 134 123 114 112 144 159 168 181 182 187 189 192 193 189 180 168 154 161 163 163 163 159 147 134 104 92 82 72 75 87 101 108 112 114 111 107 107 107 107 106 106 110 122 126 125 120 119 107 109 103 97 93 85 76 63 53 40 34 10 0 2 1 8 9 14 26 32 53 66 59 39 34 32 45 68 70 71 65 64 71 62 63 62 84 98 102 111 114 122 132 131 133 125 112 113 138 150 162 178 186 190 186 191 193 192 192 193 194 194 184 174 164 155 147 136 113 98 81 84 96 100 99 104 109 109 110 107 107 105 103 106 103 101 104 106 120 127 119 115 110 105 97 94 85 77 71 59 51 40 37 3 0 1 4 11 9 13 25 31 52 61 65 47 35 30 45 62 70 64 67 73 65 74 64 66 76 96 100 101 113 117 116 123 120 112 112 137 142 148 168 179 190 192 198 193 194 191 188 189 193 192 184 179 168 157 130 123 105 97 102 111 105 103 106 107 106 109 110 106 104 104 100 96 96 95 100 96 102 120 115 113 106 101 99 88 82 74 66 54 48 44 21 4 2 2 21 7 15 22 28 36 48 57 68 58 38 32 37 62 68 67 59 67 65 71 71 56 72 90 103 103 106 109 112 109 110 111 129 135 132 157 172 183 190 194 195 195 190 187 183 181 176 177 173 168 157 145 138 126 114 112 112 111 109 106 105 108 108 111 105 109 100 100 97 97 96 93 93 97 104 111 114 111 101 97 89 80 72 70 65 59 49 40 20 1 0 10 11 10 14 24 30 40 48 54 61 57 41 37 37 62 73 65 66 69 67 70 68 78 60 84 105 107 109 107 109 109 114 119 129 121 136 158 171 184 187 189 194 193 184 183 177 167 161 156 145 142 132 124 109 119 114 118 118 111 109 106 108 114 108 107 106 107 102 100 96 92 89 88 90 94 97 112 115 112 104 94 85 77 69 70 69 55 48 41 8 4 1 17 11 12 17 28 35 38 45 60 57 63 47 35 37 67 75 68 71 71 67 70 67 74 61 81 99 111 107 104 106 114 112 119 120 114 134 158 173 181 183 190 192 195 194 192 185 180 173 165 160 155 146 136 128 126 120 120 128 128 125 118 117 111 112 110 106 99 90 93 93 88 84 88 87 92 100 115 113 116 101 92 81 69 72 74 71 57 48 34 3 3 8 16 7 12 18 31 40 33 47 51 54 60 55 39 41 63 75 66 58 72 74 66 70 66 64 75 99 110 114 112 107 118 110 120 110 101 133 149 164 178 177 181 185 179 178 174 164 153 148 142 138 129 130 129 138 153 145 124 112 109 102 89 86 91 82 80 80 81 86 83 82 84 83 80 76 86 98 121 117 116 101 90 82 80 75 75 67 59 52 19 3 1 12 13 15 13 23 34 38 37 44 52 50 55 63 49 37 57 73 67 60 64 78 67 71 72 76 72 103 112 118 117 116 119 113 114 98 87 108 130 149 155 147 136 146 152 150 152 141 147 133 130 123 110 107 102 114 103 93 93 84 88 80 85 77 74 77 71 68 62 60 50 53 60 64 68 70 73 107 128 122 121 104 96 90 81 72 71 67 53 47 16 1 3 14 12 15 16 25 35 39 34 37 51 49 47 61 58 43 62 80 72 55 51 76 71 69 72 71 67 82 115 132 123 125 126 118 115 101 77 65 51 64 79 91 105 107 116 130 127 128 116 117 111 105 104 97 94 97 91 90 81 88 83 79 77 75 72 70 67 57 61 49 46 36 19 25 34 44 83 120 128 126 120 100 97 93 79 75 71 63 54 40 7 1 12 15 12 11 10 21 42 45 32 44 49 46 46 47 65 53 57 76 70 58 51 60 70 64 72 74 74 80 108 127 132 133 129 121 115 109 88 58 36 30 42 123 131 134 129 127 144 116 124 106 116 98 108 105 98 96 86 85 96 82 80 79 83 74 64 65 76 55 67 70 79 39 31 43 37 56 91 127 130 129 118 104 101 93 80 76 68 59 53 34 4 3 10 9 15 14 14 25 41 41 30 40 44 47 34 48 63 61 55 87 66 54 52 56 79 65 74 76 74 72 101 118 135 134 131 124 116 110 105 85 54 46 33 96 139 163 162 184 183 163 132 176 169 142 148 161 159 123 107 102 122 135 102 82 85 110 76 96 114 67 105 73 63 16 32 39 46 82 103 130 132 129 116 107 98 90 79 74 69 57 50 14 3 3 9 11 16 10 9 25 38 37 36 38 48 43 39 51 56 71 61 74 65 55 54 55 67 66 71 71 75 78 89 128 130 140 134 125 120 119 115 112 100 64 58 68 123 167 176 196 205 193 166 211 204 158 188 205 195 169 125 158 182 161 133 95 151 136 87 142 118 90 102 67 35 32 41 49 78 105 124 131 134 125 113 108 101 86 77 71 67 58 43 7 1 4 6 10 11 15 13 31 42 32 29 43 43 49 55 55 51 63 64 79 74 58 47 62 60 61 69 70 69 78 98 111 126 130 138 134 122 118 120 128 130 116 85 82 75 123 171 192 199 194 194 217 202 179 220 207 191 186 155 194 190 167 145 119 156 147 118 131 125 78 85 37 38 45 51 81 102 112 128 127 130 122 111 104 96 83 79 76 62 55 29 3 2 3 3 9 17 13 7 29 40 32 30 50 47 44 56 49 52 60 74 73 70 60 46 59 64 67 68 72 64 73 83 98 144 144 139 130 121 126 133 139 139 141 113 93 97 108 127 147 197 188 208 205 196 190 217 206 202 185 165 187 180 170 149 136 160 133 128 132 124 52 52 55 51 49 72 96 103 122 124 127 131 121 110 104 92 84 76 70 56 49 18 1 1 2 10 9 10 13 14 30 33 28 25 51 48 50 51 48 51 62 76 75 74 46 48 41 61 62 63 68 68 68 75 91 131 146 137 141 123 125 136 139 146 140 137 108 100 103 100 120 176 139 157 194 187 178 208 200 191 175 166 186 168 163 146 134 153 134 74 112 97 48 57 57 53 64 87 102 110 117 119 123 129 116 104 99 89 84 78 69 54 39 2 1 1 3 6 5 15 12 10 25 35 32 23 53 51 39 49 52 53 56 67 77 69 53 46 43 65 55 63 69 67 74 68 80 119 151 153 141 131 135 142 146 142 139 139 129 119 111 123 115 111 121 112 106 71 94 189 180 174 168 152 173 157 151 130 60 81 52 48 59 62 65 65 61 55 74 94 105 109 115 114 124 126 110 104 96 88 81 71 62 54 16 1 0 1 4 7 5 10 13 10 21 34 30 34 56 46 43 45 55 57 60 61 79 79 54 41 37 59 53 58 74 70 67 68 73 94 129 154 145 140 137 145 142 144 144 139 138 127 115 127 130 137 129 115 113 111 109 115 120 101 84 66 77 63 76 76 66 82 82 66 77 74 62 61 59 69 85 95 106 107 108 112 129 121 105 97 90 84 78 71 55 44 4 2 0 1 3 8 5 13 13 8 23 42 29 30 56 54 43 48 55 54 59 55 77 80 60 41 38 55 53 54 74 68 62 68 77 81 128 151 152 142 140 146 143 144 143 143 144 145 134 122 128 146 163 144 138 117 110 116 102 110 106 109 116 125 109 98 96 97 101 77 81 66 59 54 63 81 91 98 107 106 106 114 127 108 102 95 89 82 73 60 58 18 4 2 0 0 4 5 6 16 14 9 20 36 24 33 57 57 39 46 53 52 66 57 73 77 74 45 40 49 49 56 70 63 71 61 71 73 117 139 147 152 146 148 143 144 143 142 143 146 153 144 136 145 143 158 149 145 126 140 128 126 128 106 138 120 119 114 110 96 88 71 69 65 58 63 77 84 92 103 104 99 104 117 120 102 99 87 89 77 69 54 37 2 3 2 0 1 5 8 7 14 14 4 21 33 26 28 65 57 48 43 43 45 56 61 68 76 73 44 50 31 46 48 59 60 69 69 60 68 106 141 156 159 151 149 148 143 142 143 143 144 154 165 154 140 139 141 132 123 123 122 117 126 112 104 121 113 105 98 87 80 75 67 63 58 67 86 89 89 96 100 100 102 96 116 108 100 95 87 82 74 63 45 13 2 1 0 0 0 3 5 11 14 14 11 16 32 32 25 75 74 48 43 43 50 62 60 62 77 73 47 51 28 39 45 45 55 58 68 61 63 80 135 149 156 158 156 149 142 138 143 144 148 148 158 167 163 148 129 126 123 117 114 117 112 103 102 113 99 95 90 83 78 69 67 68 79 92 91 85 93 103 106 103 98 99 114 98 99 88 80 76 61 54 19 2 4 2 3 1 3 2 3 11 12 16 11 18 38 38 25 78 68 58 42 45 46 52 65 50 68 69 64 44 31 39 46 39 54 55 59 62 57 74 108 137 142 155 163 151 144 141 143 144 147 148 156 162 161 167 161 147 130 120 116 109 100 103 102 96 92 94 84 85 83 90 92 96 99 94 87 91 99 102 102 100 92 101 103 94 92 82 76 68 53 27 2 0 1 1 1 2 3 4 7 13 14 19 9 16 34 37 27 81 70 68 48 41 51 50 65 53 58 66 73 50 29 31 43 36 52 49 57 56 55 61 89 127 144 159 161 158 147 142 140 147 145 149 157 159 162 162 163 160 154 144 133 125 120 119 116 112 112 107 114 113 114 110 110 104 96 90 85 95 104 102 105 96 92 97 97 89 82 78 67 59 33 3 1 2 3 3 2 3 3 9 6 10 16 20 15 14 30 37 30 77 71 67 51 33 47 53 61 56 57 55 69 54 32 41 40 35 48 48 49 50 55 64 77 113 138 154 159 162 149 144 141 148 151 152 153 157 162 162 158 159 152 151 146 140 139 136 132 124 122 120 125 125 118 112 105 96 94 92 96 101 106 106 101 93 92 94 89 83 76 68 57 30 4 4 1 5 2 3 2 2 2 10 9 12 16 17 17 16 24 37 30 67 65 68 52 40 46 48 58 52 53 57 66 58 39 36 36 36 43 46 53 42 44 55 69 100 129 145 155 161 154 143 139 143 153 154 154 156 161 163 160 158 152 152 148 144 140 138 134 129 126 126 122 119 116 110 105 99 95 99 98 112 110 103 96 90 89 88 81 71 66 60 32 10 5 1 3 1 1 1 3 3 11 16 8 14 24 19 13 14 26 38 33 63 65 69 58 47 41 52 54 52 51 54 63 58 37 33 33 34 42 43 51 40 39 42 59 83 119 128 152 157 156 145 138 142 153 157 161 161 161 166 165 164 161 153 149 150 143 137 133 132 128 130 125 122 116 112 112 106 101 105 112 116 105 98 92 85 86 82 73 64 58 31 9 13 27 8 2 0 1 2 1 8 13 14 15 19 22 19 16 15 23 38 34 53 62 60 66 51 45 49 48 53 50 45 50 58 42 35 36 38 40 43 41 42 41 39 53 77 102 120 138 150 153 152 142 144 152 159 165 165 170 168 168 168 164 164 160 155 154 147 141 138 134 135 135 129 126 120 119 110 111 117 118 114 103 92 88 81 78 75 65 57 30 18 25 13 9 2 4 1 2 4 2 10 20 17 17 21 19 22 18 10 15 41 35 46 55 74 66 54 38 41 46 54 48 42 44 58 41 27 40 36 38 42 43 41 40 28 39 53 83 112 125 139 151 148 140 142 148 160 168 168 173 174 176 175 170 167 164 163 161 157 155 152 153 147 143 134 130 126 118 117 122 121 113 104 98 89 81 78 74 67 56 25 25 35 21 8 11 2 5 3 6 2 4 14 20 15 21 17 22 22 19 17 8 39 37 40 70 66 61 60 47 47 40 48 47 38 43 49 43 35 32 37 37 42 45 40 39 26 35 33 42 76 110 126 140 147 141 141 146 158 168 173 175 179 183 178 172 172 168 166 165 165 163 160 156 153 145 142 138 129 127 128 125 118 107 104 94 84 76 69 66 52 29 43 38 29 22 11 5 5 5 3 2 3 13 17 18 16 19 18 19 18 22 18 16 37 41 45 47 62 58 60 48 38 39 42 49 38 28 42 44 22 18 38 29 39 41 34 37 31 33 20 46 45 69 99 122 136 137 135 150 157 168 176 180 183 183 184 179 179 176 172 170 167 166 166 161 150 147 141 139 140 125 126 119 111 107 92 89 77 68 64 52 41 52 45 42 26 21 7 9 4 3 8 8 11 9 20 13 15 15 13 16 19 27 17 22 26 41 41 46 68 55 54 55 43 38 40 51 25 35 37 42 31 18 37 31 40 40 37 29 26 25 16 41 54 61 51 99 120 132 135 137 159 163 173 185 184 183 181 177 176 173 169 167 166 167 161 164 152 150 146 137 128 122 117 114 108 99 90 87 67 70 46 63 63 51 47 30 31 17 12 13 8 5 4 9 8 14 14 14 14 18 16 21 16 26 23 22 22 38 37 44 57 54 48 53 46 36 38 44 33 29 29 39 39 17 39 28 35 35 36 30 33 24 13 31 55 59 74 55 74 127 121 148 148 164 169 169 182 181 181 174 176 173 170 168 170 167 170 164 163 151 142 134 127 124 115 112 102 89 83 72 65 57 77 72 57 58 41 36 31 15 17 3 3 8 10 9 13 16 14 13 16 18 19 19 14 22 17 16 20 34 35 43 55 53 49 47 49 30 41 45 25 29 22 36 33 18 35 31 38 35 33 25 32 24 10 22 52 62 66 73 75 56 105 122 146 158 168 180 181 181 176 172 170 170 170 166 161 159 161 160 152 140 137 130 123 119 115 104 94 88 78 66 76 86 79 71 64 48 42 36 24 15 7 9 11 6 15 14 18 10 19 10 17 19 22 15 18 13 18 13 15 29 24 43 51 52 50 44 50 42 39 41 28 22 17 33 34 24 40 27 32 32 34 27 32 23 11 21 48 57 61 70 72 90 74 85 132 142 162 167 174 178 173 175 168 162 157 157 152 156 150 149 146 142 132 126 118 112 108 101 88 78 65 87 89 90 79 72 55 52 32 30 20 15 19 12 11 10 23 16 13 25 18 14 16 17 15 22 16 12 15 17 19 26 24 44 50 47 46 42 52 48 34 30 28 19 29 28 24 40 31 24 35 32 33 27 27 20 10 18 31 62 69 77 82 82 83 85 88 134 146 164 165 169 169 166 163 157 153 150 149 149 148 147 142 137 130 124 120 111 102 91 86 66 97 100 93 92 83 61 52 48 37 27 24 9 15 14 14 19 30 25 21 23 20 17 17 19 18 18 12 9 11 15 12 20 20 43 46 41 46 39 46 46 33 29 25 20 20 26 35 33 23 28 33 33 29 26 26 13 14 17 32 49 65 69 80 88 88 86 88 78 127 146 154 158 164 160 154 153 149 142 146 145 145 139 134 129 125 121 108 105 95 83 67 97 96 98 91 84 72 63 58 46 40 23 20 15 19 13 6 12 43 31 23 24 16 13 17 21 18 20 11 7 11 13 12 19 32 40 42 42 49 37 42 51 30 26 29 18 19 24 31 33 25 34 32 31 32 33 21 10 20 16 30 44 63 73 78 87 88 92 91 92 72 103 137 144 149 147 147 144 141 138 143 135 136 132 130 126 118 110 104 95 75 70 102 97 103 91 92 87 74 73 50 49 36 27 12 20 22 15 6 14 48 28 23 25 18 15 23 21 17 16 9 8 11 11 15 13 32 40 33 44 48 36 45 51 38 30 27 15 24 24 32 34 29 33 34 29 31 26 17 14 17 14 31 49 58 75 79 88 92 89 90 92 94 80 75 108 125 136 139 130 134 131 133 131 131 131 119 117 109 100 79 73 80 100 105 104 94 102 90 85 76 66 58 50 28 24 22 14 19 16 10 21 44 43 29 23 25 22 19 21 20 16 8 7 8 9 13 18 48 34 28 50 49 48 41 50 41 26 28 20 21 22 29 28 30 36 34 26 27 24 23 14 21 13 28 44 59 65 77 83 89 95 94 95 91 95 95 87 76 79 92 99 105 106 108 109 104 98 97 90 74 72 80 93 101 105 107 101 110 97 91 80 78 60 66 39 35 23 21 22 14 20 10 17 52 52 22 25 25 21 19 20 17 16 10 12 8 9 12 14 57 32 32 37 50 40 38 49 45 29 28 20 24 28 33 32 32 36 35 29 29 21 18 19 18 8 33 38 65 66 76 83 90 91 95 96 96 99 100 92 95 95 91 87 79 81 79 82 82 84 83 86 96 99 99 104 109 109 109 108 105 99 90 87 72 71 54 44 40 26 22 26 13 21 13 24 56 57 27 31 26 17 18 17 17 19 11 10 5 8 13 16
