P2
# Generated by OpenCV 4.2.0
92 112
255
153 151 142 130 114 58 41 37 25 35 43 34 35 28 26 42 33 33 34 28 48 66 86 94 101 122 136 149 139 164 168 150 149 160 171 166 174 176 154 153 150 144 141 128 112 114 104 94 84 80 83 83 82 81 82 83 78 82 75 58 43 29 11 8 6 15 30 31 38 28 27 29 30 31 32 29 38 36 32 36 24 23 24 27 32 35 34 32 33 42 60 70 150 144 136 122 77 53 39 28 29 39 39 38 29 30 30 30 31 34 45 53 63 82 91 104 120 135 150 171 169 169 176 182 187 198 197 198 196 188 179 173 166 159 153 148 143 132 126 119 117 118 118 121 129 129 128 128 124 121 110 91 70 47 37 22 12 7 13 27 35 36 30 27 29 27 30 24 28 31 33 35 30 25 27 24 24 35 33 39 36 31 43 63 148 141 123 87 51 38 29 34 41 40 36 32 32 23 24 40 40 31 37 52 73 91 108 127 139 150 164 170 175 186 195 200 204 205 205 203 197 193 192 190 184 178 170 161 158 157 154 151 147 145 148 153 156 153 148 147 142 137 125 111 98 85 75 54 29 10 5 12 26 34 34 29 29 28 33 26 26 25 27 31 32 28 29 25 22 33 31 32 32 32 33 43 149 131 91 48 46 35 34 41 43 38 32 26 26 25 29 35 31 35 50 68 87 110 127 139 148 160 172 170 180 190 194 197 199 198 196 192 189 189 189 185 184 182 178 171 165 163 161 159 157 156 157 159 157 155 150 149 150 148 137 126 122 114 103 83 56 32 15 8 13 31 38 31 25 23 36 29 24 24 26 29 33 30 31 28 21 29 28 29 32 33 32 31 140 112 72 47 36 28 39 42 39 38 29 20 13 25 32 32 35 51 72 91 107 122 137 149 159 170 173 179 184 189 191 193 196 199 192 189 192 192 189 184 184 184 184 178 174 171 166 160 157 156 155 155 155 155 155 155 155 154 148 140 135 125 109 101 84 61 37 14 8 18 31 35 28 23 30 29 27 23 25 27 32 29 30 30 21 24 25 30 32 35 37 36 131 94 57 41 41 39 44 40 33 33 23 13 15 29 31 36 46 63 86 103 117 129 147 160 167 177 176 180 181 183 187 189 188 191 187 187 189 188 185 189 187 185 185 183 181 181 175 169 163 160 157 155 157 158 159 159 159 160 155 149 143 134 124 120 105 85 58 30 18 12 19 35 34 28 23 31 30 28 24 22 28 26 28 30 23 24 28 31 31 32 32 36 104 63 44 38 39 42 40 37 35 27 17 11 28 38 36 42 58 79 99 116 127 141 157 164 163 172 179 182 181 182 185 185 183 181 182 184 181 181 182 183 180 179 180 181 181 183 182 181 177 172 170 169 170 171 171 169 163 162 158 153 148 140 126 123 113 101 86 65 38 14 11 29 34 30 26 34 34 31 26 21 28 25 24 29 25 25 29 28 25 30 26 29 85 52 40 38 40 41 36 34 30 20 13 24 36 40 43 48 69 94 107 124 141 152 158 163 168 172 175 179 178 178 178 179 180 183 180 177 177 178 179 177 178 179 179 178 178 180 181 181 180 178 177 178 177 177 176 174 167 164 161 156 149 142 134 128 121 111 96 81 52 28 12 22 34 34 26 32 30 30 28 24 26 24 24 29 28 21 25 26 25 29 28 27 55 44 42 32 39 37 35 29 21 20 14 39 48 34 45 64 83 100 119 138 151 154 157 162 166 169 172 174 174 175 176 177 179 179 178 177 176 175 174 176 178 179 179 179 179 181 182 182 182 180 181 183 182 182 182 179 174 170 166 162 154 146 140 134 125 118 110 100 77 50 23 13 24 36 23 29 31 31 30 27 24 20 21 26 27 23 27 28 25 29 27 28 49 41 33 39 38 33 34 24 15 20 24 41 39 34 59 77 92 110 132 149 152 153 156 162 164 167 169 173 173 176 176 179 181 177 177 175 174 172 170 174 175 177 178 179 178 181 181 181 181 181 182 184 182 182 182 179 177 172 169 165 156 150 146 138 128 122 118 113 102 79 44 15 17 36 28 25 27 30 32 31 24 18 17 22 25 25 28 29 24 26 29 23 38 37 39 38 36 29 27 19 16 19 31 41 35 48 69 82 98 119 143 154 153 154 158 162 165 167 170 175 175 176 177 181 183 180 179 179 177 176 173 175 176 176 177 176 178 180 179 179 180 181 181 181 180 180 180 178 174 172 168 165 160 154 150 142 132 125 120 115 113 98 70 32 18 29 32 26 24 28 33 34 26 20 18 19 22 25 28 29 25 27 31 28 31 34 42 34 36 30 20 19 22 22 38 40 41 57 68 91 107 131 149 151 154 156 160 164 167 170 173 175 176 177 178 180 181 182 180 179 179 179 179 177 178 178 178 178 178 181 180 181 181 181 183 181 180 181 180 177 175 173 168 165 160 155 152 145 136 129 123 116 114 110 97 60 27 23 35 26 26 30 30 34 31 25 22 18 19 23 24 27 24 29 35 33 37 39 35 33 29 24 14 15 20 24 39 39 43 56 73 103 120 139 148 148 152 157 161 166 169 170 174 175 176 177 180 181 181 180 178 176 175 176 177 177 179 181 180 180 179 182 182 181 182 184 184 183 182 180 182 179 177 173 169 165 160 156 153 147 140 133 127 122 114 114 109 78 40 25 34 27 28 32 30 31 36 31 23 19 21 24 23 26 25 27 31 33 36 39 38 35 25 21 15 14 18 26 36 39 44 56 84 108 128 142 147 150 153 157 163 168 170 171 173 175 177 179 181 182 182 180 179 179 177 176 175 175 178 181 182 180 180 182 182 182 183 184 183 183 182 181 180 182 178 173 168 165 162 156 150 146 142 135 130 127 115 114 111 88 52 31 32 30 25 34 32 29 35 34 22 19 20 23 23 23 28 26 25 33 36 35 36 38 22 17 13 12 18 25 31 32 38 59 90 118 137 145 146 150 155 159 163 167 169 171 174 176 177 179 181 181 182 181 180 179 178 177 177 175 178 182 181 180 181 182 182 182 183 184 184 184 183 183 182 181 178 174 169 166 163 157 152 145 140 135 133 131 120 117 113 97 65 38 29 30 29 31 34 32 30 35 28 19 18 21 24 24 28 28 29 31 35 35 33 30 18 13 9 10 17 21 23 26 40 68 104 128 141 146 148 153 156 160 164 167 168 172 174 176 177 179 180 181 181 179 178 178 177 176 175 175 178 180 181 181 181 182 182 182 183 184 184 185 184 184 182 180 178 175 169 167 164 158 154 148 141 136 133 131 122 115 112 102 75 45 29 31 33 29 36 33 30 38 34 23 20 22 23 24 27 30 31 29 31 36 34 26 14 9 5 10 15 17 20 23 43 76 109 129 142 148 150 155 156 160 164 166 168 171 175 176 177 179 179 181 179 180 180 179 180 179 178 176 178 179 181 181 181 182 182 182 183 184 185 185 185 184 181 179 177 173 168 166 163 159 156 150 142 138 134 132 126 118 112 108 85 58 32 32 37 27 38 34 29 35 33 25 19 19 22 24 26 33 32 28 30 33 30 20 12 6 3 7 13 16 16 25 51 85 112 132 143 146 148 153 154 159 163 166 167 171 175 177 177 179 179 179 179 179 179 180 179 180 179 176 177 179 181 181 182 182 182 182 183 184 184 184 184 183 180 176 175 171 167 166 163 158 154 150 145 140 136 133 128 121 114 109 94 68 38 32 38 26 37 31 32 31 34 27 20 19 19 23 25 33 32 28 31 29 24 16 11 4 3 8 12 14 17 34 67 97 119 138 145 146 148 153 154 158 160 164 166 169 173 176 179 181 181 180 179 180 178 178 177 178 177 176 176 177 178 180 182 182 182 183 183 182 182 183 184 182 179 175 172 169 165 164 161 156 152 151 146 142 140 135 130 122 114 108 95 72 43 29 40 25 37 31 32 31 35 29 23 20 18 23 24 28 32 29 30 26 21 15 9 3 2 8 10 14 22 43 76 98 120 139 145 145 148 152 153 156 158 162 164 167 171 175 178 180 179 178 180 179 178 179 178 178 177 176 175 175 177 178 181 181 183 182 181 182 180 182 182 181 179 175 171 168 165 163 159 156 153 153 147 142 141 136 131 123 116 111 98 78 47 26 40 28 35 30 33 31 37 31 24 20 20 22 23 27 34 32 27 25 20 14 5 1 2 8 13 16 30 55 83 103 124 140 142 142 146 150 152 154 157 160 162 166 169 175 176 176 176 176 179 178 179 180 179 177 176 176 176 176 178 179 181 181 181 180 180 182 181 181 182 179 177 175 171 168 165 163 159 156 154 154 147 141 141 138 132 126 118 114 103 84 52 25 41 30 32 35 34 31 34 33 25 21 19 18 22 29 32 34 27 21 15 9 3 1 4 9 16 21 36 62 89 109 129 141 139 141 144 150 151 154 156 159 162 166 171 173 177 179 178 178 179 177 178 180 179 177 176 176 177 178 178 180 180 181 179 179 180 182 182 181 180 179 175 175 172 169 165 162 160 157 153 155 148 142 141 139 133 128 119 114 104 87 58 28 41 32 31 36 35 31 33 35 27 22 19 15 20 28 28 30 24 18 12 5 2 1 4 12 21 27 41 68 94 114 133 139 139 140 144 149 151 154 158 161 163 168 172 173 179 182 182 179 178 178 178 179 179 178 176 177 178 179 179 178 178 179 179 179 181 180 182 182 180 178 176 176 175 170 165 162 160 158 153 155 149 144 141 138 134 129 120 113 102 87 63 35 36 34 33 36 36 33 32 34 32 25 22 14 18 26 27 27 22 18 11 5 1 3 6 13 24 33 50 74 99 121 133 137 138 139 143 149 151 155 158 161 164 167 172 176 178 180 179 179 180 179 179 179 178 178 177 177 179 179 179 178 177 177 179 180 181 180 181 182 181 179 177 177 175 170 165 161 160 158 152 154 152 147 142 136 132 130 120 114 106 94 66 39 32 37 36 36 35 35 32 33 33 27 23 18 18 21 24 28 18 14 9 2 1 4 10 19 23 32 55 85 105 124 132 138 139 140 144 149 152 155 157 161 165 168 171 175 176 177 178 178 180 179 180 179 178 179 181 177 180 180 180 179 178 178 179 181 180 182 182 182 180 181 181 178 173 171 166 164 163 161 155 153 151 147 144 141 134 130 122 117 109 95 73 42 32 38 40 36 38 40 32 36 30 31 22 17 17 15 23 29 16 9 5 1 4 6 14 21 23 35 64 94 108 124 133 141 143 143 147 151 153 156 157 159 162 167 171 172 174 178 178 177 178 182 182 178 175 176 177 178 179 180 180 179 180 181 181 181 182 183 182 180 179 181 181 177 173 170 165 163 162 160 157 153 150 147 144 140 134 131 122 118 109 98 73 43 30 35 39 39 37 37 32 36 31 33 25 19 19 16 22 27 13 5 2 1 5 10 16 20 21 43 81 103 113 124 134 147 150 149 149 152 155 158 157 157 159 164 168 168 174 178 180 180 180 180 179 177 175 177 179 178 179 179 180 179 179 180 180 181 181 181 181 180 179 181 181 177 173 171 166 162 161 158 157 154 150 147 143 139 135 131 123 118 110 102 77 50 33 34 40 45 39 37 33 37 35 35 27 19 19 16 18 21 13 6 3 3 8 12 17 16 23 54 89 106 116 129 141 154 157 155 153 153 156 156 157 158 160 163 164 165 173 179 179 179 180 176 177 176 176 179 182 179 178 179 179 180 180 179 179 179 179 177 179 178 178 181 181 178 176 172 166 163 160 158 157 154 150 147 144 140 136 131 125 119 111 106 79 54 32 33 37 49 39 34 33 34 36 35 29 20 19 18 16 18 13 5 1 5 10 13 15 13 27 65 90 104 119 137 148 157 160 160 157 155 155 158 158 159 160 161 161 166 173 176 174 173 176 175 176 177 175 176 179 179 178 178 177 180 180 179 179 178 178 177 177 179 177 180 181 177 175 171 166 162 159 157 157 154 151 149 147 143 140 133 128 120 111 109 81 56 31 33 31 47 37 30 31 29 34 31 29 24 22 19 19 18 11 5 0 4 11 10 12 11 31 75 96 103 121 139 147 156 160 164 160 155 156 161 160 158 157 160 164 165 171 174 167 166 171 167 170 173 175 176 178 179 179 178 179 180 180 177 176 176 175 175 176 177 177 179 181 177 172 167 163 159 156 155 158 154 152 150 149 146 142 134 129 119 109 110 86 60 34 38 31 47 39 32 33 29 37 29 27 26 21 19 19 18 7 2 2 6 7 11 13 16 37 89 96 111 123 136 150 151 164 169 156 151 150 148 152 152 147 145 151 146 142 143 149 147 157 166 174 165 175 174 182 176 172 178 179 177 176 174 170 175 176 174 174 175 177 180 179 176 167 166 168 166 161 156 163 153 148 153 155 148 144 138 128 117 109 107 91 63 38 35 38 42 40 31 33 34 34 33 27 23 23 19 19 21 5 1 0 5 9 17 14 18 47 94 96 104 125 136 148 155 151 135 133 140 134 119 111 106 99 89 84 85 88 97 110 113 129 139 160 163 168 165 175 174 173 177 177 176 178 173 170 172 170 166 162 164 170 172 170 164 160 159 157 155 155 151 144 153 158 152 149 153 151 143 131 119 110 103 93 66 42 35 40 43 39 30 31 32 31 32 26 19 23 22 18 18 4 1 0 4 10 21 15 21 61 98 97 105 117 128 141 134 119 112 111 95 79 73 70 68 66 61 59 54 61 74 87 93 111 115 144 159 160 161 170 169 173 174 173 174 176 169 168 166 161 152 149 150 145 136 125 118 114 117 123 127 128 125 130 130 133 141 144 144 146 143 133 118 109 105 94 69 43 34 37 41 37 31 29 28 28 28 23 18 21 22 18 19 3 1 0 2 10 24 16 28 75 99 99 107 117 138 137 106 83 82 82 68 69 59 56 52 46 42 45 42 48 62 78 82 99 110 129 149 154 159 164 167 170 170 169 171 171 166 164 161 153 141 136 131 109 89 77 71 70 66 57 59 72 85 89 96 101 104 112 121 128 139 141 127 110 102 91 70 45 32 33 38 36 32 28 27 26 24 24 21 20 16 17 20 1 0 0 3 12 25 18 35 87 101 102 104 112 116 97 76 70 74 88 90 87 88 90 87 78 72 73 70 65 68 75 73 82 106 116 140 145 155 157 164 166 164 165 166 163 162 160 155 147 134 129 125 105 93 84 73 60 52 49 47 49 53 54 53 58 70 73 70 78 95 115 122 112 98 89 74 48 31 31 35 34 35 29 27 23 22 25 23 18 13 14 17 0 0 2 4 16 28 21 43 95 99 99 104 99 72 73 88 99 113 127 136 140 137 136 134 131 122 112 110 99 94 99 93 97 101 110 137 140 153 156 163 162 160 164 163 157 160 158 151 144 132 120 112 105 103 91 63 52 49 51 51 51 50 45 48 46 43 49 59 63 60 74 101 106 95 90 76 52 33 30 33 35 38 31 26 23 22 25 20 19 14 13 13 0 1 2 4 20 29 17 52 91 100 104 80 72 84 94 118 128 148 144 163 157 155 160 157 157 154 153 146 139 130 122 120 120 123 124 138 143 147 159 160 159 162 162 160 158 156 149 143 143 127 113 113 112 97 84 89 93 98 98 109 111 110 117 112 106 96 79 70 76 71 62 68 86 96 88 75 56 29 29 32 34 35 36 31 22 17 20 22 18 16 11 12 1 1 3 5 23 25 17 58 93 98 96 75 80 100 120 136 142 144 140 147 153 154 155 153 156 150 154 158 154 151 145 135 126 123 127 141 146 147 155 159 160 162 163 159 156 152 144 142 133 124 123 121 118 117 123 132 141 149 148 158 161 162 164 159 156 150 136 126 105 94 82 64 52 53 75 73 56 33 31 29 33 34 34 31 23 18 20 21 19 18 12 10 1 1 2 8 25 23 21 64 94 95 86 81 100 118 128 131 141 137 133 119 134 133 141 141 126 109 136 150 150 154 156 151 143 125 120 127 138 146 153 162 167 169 168 164 156 148 140 138 128 123 124 121 122 128 138 141 146 153 153 161 164 163 157 156 155 152 147 145 151 121 102 90 63 36 40 54 49 34 32 23 33 34 35 31 25 19 19 21 20 16 15 9 2 1 4 10 23 26 27 67 95 99 98 96 110 123 128 120 119 121 119 99 117 112 111 101 79 61 86 94 103 119 136 144 145 135 116 107 118 134 146 160 171 174 172 165 154 145 136 133 131 123 112 118 132 137 141 137 135 136 124 127 133 142 143 151 152 144 139 139 132 136 127 115 88 48 35 47 51 40 35 24 31 36 37 33 28 22 16 18 19 18 15 11 3 1 5 12 22 24 33 75 97 94 105 119 121 128 118 103 86 94 89 63 56 49 44 31 27 20 24 25 38 60 85 112 132 139 126 112 109 120 133 154 170 173 172 163 152 141 133 130 124 113 115 128 132 122 111 94 77 70 53 53 61 71 82 100 117 127 131 127 130 134 127 127 116 86 59 51 52 39 32 22 26 35 39 32 28 20 13 14 18 16 17 14 2 3 6 14 21 21 33 83 101 93 118 126 112 119 108 94 39 29 21 19 17 15 21 17 14 12 13 16 13 12 27 64 99 131 139 130 113 115 129 151 169 173 172 166 151 139 130 130 110 106 119 123 110 85 62 33 16 17 10 12 10 10 17 26 41 69 99 105 100 125 134 119 109 114 86 59 54 41 33 27 22 33 37 32 24 19 12 13 17 14 17 17 4 3 4 10 20 16 44 86 97 96 105 120 112 117 113 68 31 13 10 10 12 10 18 14 27 58 24 31 30 24 19 47 81 108 123 133 118 117 129 150 163 172 173 160 145 131 120 116 114 124 127 115 100 83 40 40 73 52 48 20 14 17 15 6 16 25 29 50 77 114 111 105 118 112 104 79 57 43 34 34 22 27 39 37 27 23 17 10 10 15 13 13 4 3 5 9 15 20 51 90 97 98 100 103 102 107 101 67 26 17 29 33 45 47 44 45 37 40 68 52 22 32 50 61 66 84 102 124 118 116 136 147 163 172 172 162 150 135 128 121 115 121 112 110 95 60 64 114 130 58 30 25 53 20 19 11 11 14 12 19 35 65 88 110 119 106 99 84 68 50 38 35 25 25 37 42 31 22 17 12 8 8 14 16 5 1 6 10 14 29 62 93 97 105 107 100 98 94 90 77 61 80 101 114 125 132 139 128 121 122 101 94 74 56 55 57 34 79 105 103 106 120 130 148 164 171 168 162 152 137 128 126 126 126 123 99 57 57 83 70 62 45 58 60 70 70 69 74 72 60 39 14 12 31 73 109 114 101 95 88 74 53 38 36 28 20 29 40 34 22 16 10 8 10 10 12 4 2 6 10 15 36 70 91 95 106 109 100 96 89 89 104 114 130 132 141 148 151 152 156 151 145 146 138 131 116 100 83 71 60 84 94 107 123 136 149 162 164 163 156 150 145 127 120 122 115 101 91 105 118 117 117 118 130 128 136 132 134 142 141 128 114 100 84 63 62 79 94 96 99 98 90 78 57 42 38 34 21 23 35 37 28 17 10 10 11 5 8 4 2 6 8 16 42 75 92 97 110 110 105 105 108 112 126 129 138 141 152 161 157 161 160 152 153 144 127 128 136 142 135 141 151 143 135 123 125 139 145 153 154 154 148 139 138 125 121 134 139 147 147 142 137 135 138 140 144 135 154 147 154 147 147 148 144 135 131 128 117 106 96 89 90 86 80 75 61 47 41 34 28 22 29 36 33 23 14 11 10 9 7 6 3 6 8 20 47 80 94 105 122 133 125 122 128 125 136 132 136 143 145 147 152 148 147 147 147 141 136 139 137 139 151 150 147 150 140 131 135 130 139 145 149 153 147 135 134 124 114 120 128 140 143 142 134 132 129 126 135 138 140 149 147 159 153 150 143 134 137 136 131 129 120 108 104 102 94 87 72 53 42 33 30 21 23 31 33 29 19 11 7 11 6 13 6 3 10 24 43 80 90 114 123 130 132 130 129 133 136 138 140 138 136 136 135 137 141 142 139 140 138 141 140 142 148 146 140 138 132 127 129 133 140 160 170 170 155 138 131 122 121 115 118 127 131 136 134 131 133 134 134 135 138 141 143 143 140 138 137 140 141 142 138 131 125 116 109 105 101 92 76 57 44 34 31 20 20 29 31 28 22 15 6 8 11 13 10 7 6 24 42 82 92 113 123 132 136 134 130 130 135 140 145 148 151 154 151 151 150 149 149 151 148 145 144 147 145 134 129 129 126 124 129 137 159 182 187 181 167 150 135 127 126 121 121 123 119 124 129 133 137 138 139 138 139 137 137 136 138 143 146 148 149 145 141 134 126 117 109 110 102 94 82 62 44 36 36 29 20 25 31 25 22 19 12 7 9 6 10 9 3 24 47 86 93 114 125 132 134 132 132 134 140 145 149 152 155 157 156 154 152 149 149 151 146 142 139 138 135 131 127 126 125 129 141 154 182 189 184 180 175 163 148 140 136 130 130 133 130 124 122 126 135 140 141 142 144 146 148 150 151 152 153 152 152 145 142 137 130 120 113 108 102 95 88 68 46 38 33 33 24 20 28 25 20 18 15 9 9 4 10 15 9 28 53 88 91 115 126 129 129 130 135 141 145 148 153 156 156 157 158 157 153 152 153 152 149 144 139 132 130 134 133 132 132 140 158 172 182 187 186 188 181 166 159 149 141 135 136 138 140 140 136 134 136 138 138 140 142 144 144 147 147 148 149 153 157 145 141 135 129 121 116 109 103 96 93 75 53 41 30 30 29 21 23 26 19 16 15 12 8 4 17 36 35 35 52 90 97 117 125 128 129 133 140 144 148 154 161 165 164 164 160 156 155 156 154 150 153 144 139 137 137 141 145 143 141 148 167 184 186 187 183 185 184 174 163 152 142 141 143 144 146 151 154 152 148 149 151 151 151 151 151 151 150 148 148 149 152 146 140 132 126 120 116 111 107 99 97 84 61 44 35 29 29 27 23 25 23 16 15 13 8 4 28 56 58 39 54 86 100 119 124 130 133 138 143 146 149 155 162 165 164 162 164 164 165 166 163 157 149 141 145 151 146 149 151 149 142 153 173 180 187 196 192 185 177 170 165 153 142 142 143 147 152 155 159 164 159 155 157 158 158 156 158 157 155 155 155 151 149 144 137 130 124 120 114 112 110 101 98 87 68 47 41 28 30 26 25 23 27 19 14 12 11 3 40 64 58 44 57 83 102 120 128 136 139 142 146 150 154 160 166 169 170 170 171 171 169 168 163 158 151 155 158 160 160 157 151 149 142 161 183 181 190 194 192 186 181 177 169 153 137 138 140 139 150 159 167 169 171 165 164 165 166 166 167 169 163 164 161 151 147 141 136 130 125 119 115 114 110 103 100 90 74 50 42 31 29 18 31 23 23 25 14 10 12 8 55 80 66 59 54 87 106 120 131 139 143 147 150 153 156 161 169 174 177 179 178 178 174 168 163 162 163 174 169 164 164 155 144 141 143 165 186 190 195 198 200 195 192 186 170 151 130 130 136 136 142 154 167 172 181 179 172 168 173 177 175 176 171 169 165 156 150 144 139 132 128 122 117 113 111 106 103 95 81 54 42 35 25 13 28 28 22 23 20 13 10 5 54 91 95 72 51 88 110 121 133 137 144 148 151 153 157 162 168 174 178 180 180 179 177 171 167 171 172 169 170 162 148 145 136 138 148 164 178 185 191 200 205 198 184 175 165 148 129 128 130 129 135 142 150 167 174 179 179 176 177 179 180 182 179 176 170 161 153 146 141 135 131 124 120 114 112 107 104 95 81 59 40 37 20 15 15 29 35 20 25 19 10 1 37 75 95 75 51 89 109 120 131 138 142 146 150 152 157 161 166 170 173 175 176 176 174 172 172 173 166 158 144 135 137 134 135 150 158 162 173 180 189 192 191 187 174 168 159 142 135 135 131 122 134 146 138 144 160 173 180 184 181 179 184 183 181 177 171 164 155 147 141 137 131 124 122 116 111 107 104 94 81 62 37 37 21 27 13 16 28 30 17 19 17 8 34 55 79 70 53 90 108 118 128 133 137 141 144 148 152 157 163 167 169 172 173 172 172 172 168 163 154 135 127 130 128 130 142 164 162 158 172 179 186 183 182 180 176 168 153 135 137 142 138 125 125 141 144 132 141 156 168 179 181 179 183 180 181 176 170 165 156 148 142 137 130 125 121 114 112 107 106 98 85 66 39 35 27 45 21 13 15 29 24 18 17 21 38 44 59 61 51 87 107 118 121 128 134 137 140 145 151 156 162 165 168 171 173 169 166 165 159 148 134 124 136 139 126 133 153 163 159 156 168 179 182 182 181 181 174 164 149 132 131 141 137 127 122 133 150 147 134 140 153 168 175 176 178 179 177 172 169 165 158 148 144 137 131 125 119 115 110 106 105 99 88 69 39 33 32 44 25 15 7 16 26 24 17 23 34 54 67 47 39 79 101 111 118 124 131 135 138 144 149 154 160 163 166 167 169 163 160 157 148 134 128 134 147 147 133 134 154 152 146 146 161 177 178 181 182 179 168 156 147 128 120 131 134 127 126 139 146 153 148 126 139 157 161 169 174 175 171 168 168 164 156 150 145 139 133 125 119 116 109 106 105 98 89 71 38 29 32 38 23 14 7 12 13 21 20 18 29 76 86 71 60 81 98 100 115 119 127 132 137 144 148 153 158 161 162 164 163 159 156 148 137 127 135 149 155 152 140 130 140 142 141 139 148 157 169 176 178 172 157 141 133 125 121 125 128 122 123 145 148 150 157 141 128 135 153 162 164 167 165 165 165 161 153 148 145 138 132 122 115 114 109 107 104 96 88 73 36 31 34 36 22 12 10 9 5 11 19 21 40 92 89 89 93 85 90 97 112 117 125 131 137 144 148 151 156 159 159 160 158 158 151 136 129 134 146 157 157 151 145 132 119 121 122 126 137 148 158 164 164 157 144 129 124 120 116 113 112 114 126 149 153 154 155 160 139 127 142 154 157 162 161 160 159 157 154 148 143 138 129 118 109 113 108 106 101 94 86 66 32 33 30 27 18 14 10 9 6 6 11 16 49 93 86 98 112 92 83 93 105 114 123 131 136 142 145 150 155 155 157 157 152 149 139 126 130 145 155 160 155 149 147 139 127 112 96 99 118 137 151 156 155 146 135 120 103 91 87 92 109 127 138 149 150 155 157 154 161 140 120 143 154 158 158 156 154 153 153 150 144 137 129 119 111 110 106 103 98 90 83 64 34 40 29 22 18 14 11 13 8 4 4 10 54 94 98 76 89 92 79 92 104 111 122 130 134 139 142 147 151 153 154 153 149 139 127 129 142 153 158 156 154 152 148 144 140 133 122 116 116 119 136 144 144 135 122 108 98 99 109 119 130 142 144 149 146 150 155 151 158 150 130 126 146 153 154 154 152 148 147 144 140 133 127 120 115 109 104 99 93 88 82 66 36 41 25 21 17 11 14 13 5 4 4 15 62 119 136 114 95 120 78 88 97 107 117 124 131 137 142 146 147 148 150 146 143 123 130 137 145 152 153 151 153 154 149 142 139 140 137 135 134 130 122 127 133 122 110 115 127 127 136 140 142 145 143 146 147 146 148 151 150 151 141 124 132 152 152 150 155 146 142 139 134 130 125 119 113 108 103 95 90 86 83 59 40 34 20 21 12 12 13 13 6 3 2 13 73 149 177 133 118 151 105 85 95 106 115 123 128 134 139 144 146 146 147 143 134 126 132 143 147 150 151 150 151 152 150 147 146 147 141 142 144 142 134 122 120 120 125 136 138 138 141 141 142 141 138 139 143 143 146 149 148 146 142 130 120 142 151 150 151 147 144 135 132 126 122 116 111 105 100 94 88 85 83 59 41 35 21 19 13 13 13 12 5 1 1 2 51 121 157 121 98 121 102 76 99 104 113 120 124 130 135 140 143 144 143 136 124 132 132 142 144 144 147 148 147 144 144 146 146 146 144 143 142 139 137 130 133 133 134 139 140 140 142 141 138 138 135 135 139 138 140 144 144 141 143 140 119 123 141 149 144 145 141 133 128 123 119 112 108 101 96 91 86 84 81 60 43 40 23 18 12 13 10 9 3 0 2 1 27 83 125 101 94 116 110 79 94 103 111 117 122 127 133 139 141 141 138 129 126 139 134 141 141 141 136 141 145 146 148 154 145 145 145 139 130 124 123 119 117 118 123 128 123 127 130 133 134 134 135 133 135 132 134 137 144 141 140 144 129 110 126 146 140 141 132 129 126 121 116 111 106 97 92 88 86 81 77 53 46 43 20 15 11 10 7 7 3 3 0 0 4 36 78 85 100 113 93 87 91 102 110 117 119 123 130 135 138 138 136 128 137 139 139 142 142 141 142 143 143 143 144 145 154 158 167 167 161 160 154 152 154 157 158 157 155 152 148 147 143 134 127 124 126 124 128 133 140 140 136 138 130 116 117 142 140 140 130 126 122 117 113 108 104 96 90 88 85 80 72 43 32 33 13 12 10 7 6 7 3 3 2 0 4 10 33 59 78 68 34 81 93 103 111 116 119 123 126 131 135 136 137 132 141 130 139 144 141 139 131 125 122 123 127 127 129 129 136 136 133 134 140 143 156 170 163 147 142 138 133 132 129 126 122 118 117 114 117 121 129 134 134 135 130 125 107 132 136 137 129 122 118 114 110 105 101 96 91 87 86 80 70 35 14 17 7 11 8 6 6 7 2 0 0 1 3 2 3 6 7 5 4 69 91 104 113 115 117 123 126 131 131 143 137 133 139 130 139 137 131 119 107 99 100 114 104 115 118 122 118 127 125 117 123 130 128 129 129 124 127 126 124 127 124 119 107 110 107 108 100 103 113 118 132 125 128 123 111 121 141 134 129 122 117 114 110 102 100 95 96 95 87 81 64 25 1 6 10 10 9 6 7 5 1 0 1 1 3 2 3 6 6 5 3 52 90 102 114 116 118 125 130 134 132 143 139 136 135 122 135 134 114 91 59 60 64 79 83 96 93 96 99 98 96 108 107 113 113 109 107 107 105 103 104 100 95 93 97 80 77 73 69 74 80 89 110 120 125 123 112 122 139 132 126 119 113 114 111 105 103 100 98 96 88 80 60 21 2 7 10 7 6 6 7 5 1 1 2 3 2 0 3 4 4 5 5 30 87 102 114 121 121 127 132 138 134 145 143 141 140 120 121 105 70 47 54 64 74 82 113 128 116 110 114 107 107 119 110 103 103 102 106 109 95 87 100 102 99 104 116 89 76 63 57 59 57 65 76 101 113 117 112 124 139 133 125 125 120 119 114 106 104 100 99 95 84 80 60 17 4 7 9 5 4 7 5 4 1 1 3 3 2 0 3 3 3 7 8 14 78 100 114 124 123 128 136 144 139 149 152 146 142 116 103 75 53 56 78 106 126 120 153 153 172 160 169 162 162 165 165 150 152 160 163 166 156 146 146 136 135 144 146 138 118 114 107 98 78 66 43 64 95 110 110 127 141 136 129 131 125 123 117 110 106 101 103 96 79 75 60 13 2 3 7 6 4 4 4 2 1 1 1 3 1 0 4 3 2 7 9 5 63 97 113 126 123 129 138 150 144 156 161 152 146 116 87 58 58 70 96 129 131 130 161 184 168 161 193 172 168 188 197 179 173 185 195 197 183 167 166 162 150 150 158 147 118 136 113 113 86 87 52 50 70 103 113 132 146 141 136 130 124 123 119 113 110 107 105 94 76 68 49 9 1 3 5 6 3 4 3 1 1 1 1 3 2 2 6 5 5 8 10 3 49 95 112 127 124 128 140 152 149 160 166 156 152 121 83 55 64 68 121 167 161 168 168 203 171 171 224 183 169 223 225 203 176 186 219 227 193 151 175 205 169 155 192 160 129 169 127 154 114 111 67 47 58 101 116 136 149 144 138 135 129 127 122 113 112 110 99 89 79 69 42 5 2 6 7 5 2 4 3 1 1 1 1 0 2 4 7 6 6 5 5 7 30 93 105 127 124 130 139 148 153 161 167 161 157 137 97 52 67 56 108 176 188 185 180 212 205 192 223 194 189 232 226 222 185 208 229 230 203 163 201 210 167 183 206 169 161 180 162 170 147 107 58 57 58 99 123 143 148 146 144 136 131 129 118 117 113 107 101 88 78 57 25 3 2 3 5 6 5 3 3 0 0 1 1 0 2 4 7 6 6 7 9 6 21 86 104 118 127 130 136 143 152 162 170 163 160 155 127 85 74 58 55 135 176 170 178 190 202 198 215 213 199 217 216 222 186 209 227 221 204 180 213 213 185 196 202 171 168 169 171 154 121 79 53 69 69 113 130 146 153 149 145 138 132 129 117 116 110 107 97 85 77 49 16 2 2 2 3 4 3 3 3 0 0 2 4 0 2 5 7 7 5 8 12 8 12 70 107 113 131 130 134 141 151 162 172 163 154 163 155 128 89 63 26 69 124 180 167 189 192 202 205 203 204 206 210 208 180 198 209 212 202 202 226 200 174 191 188 167 170 159 120 80 35 42 58 73 96 130 136 148 159 153 147 141 132 128 118 116 109 107 93 86 75 40 6 1 0 2 3 5 4 2 1 0 0 2 4 1 2 3 5 9 5 8 12 11 7 48 105 112 130 130 134 141 151 160 171 162 155 167 172 159 115 71 32 42 35 76 78 137 75 87 159 133 165 199 198 200 167 189 204 201 188 145 189 186 120 145 183 127 94 65 29 37 48 53 57 91 133 142 139 150 162 156 149 140 131 127 119 118 110 102 91 86 69 30 2 3 2 2 2 3 2 1 2 0 0 2 4 2 1 0 2 7 9 11 13 13 10 28 90 109 126 129 133 143 149 157 171 162 158 164 176 171 150 105 53 68 65 50 42 46 52 55 44 49 62 99 97 94 56 79 101 100 86 47 63 70 44 56 66 47 36 30 45 44 78 77 83 130 153 150 146 155 165 156 150 139 131 130 121 117 106 98 88 82 55 19 3 5 5 3 2 2 2 0 2 0 1 2 5 1 1 1 1 2 10 16 15 14 13 16 72 104 123 130 132 140 148 155 171 164 164 166 177 166 165 127 103 70 86 71 80 80 69 67 80 61 58 46 44 43 47 45 27 40 42 56 57 58 55 53 37 74 83 76 64 102 97 81 122 160 160 155 150 162 168 157 150 141 132 131 122 115 102 96 86 72 40 12 8 7 4 4 2 2 3 1 1 0 1 4 8 4 4 4 3 4 8 14 18 14 13 10 45 95 116 122 133 141 148 155 168 164 160 172 178 172 159 135 110 95 92 105 108 100 96 79 84 79 69 57 59 59 58 52 51 45 45 52 62 76 78 71 64 92 119 110 136 117 95 106 140 159 162 164 153 163 166 158 145 141 132 124 121 114 105 88 79 54 22 7 5 3 3 3 3 2 2 3 3 3 2 3 5 6 7 4 3 4 4 15 16 14 16 11 18 85 104 125 132 138 143 150 164 166 162 171 174 168 158 142 114 112 99 107 139 147 135 107 108 108 119 91 62 51 57 52 49 53 86 112 93 101 103 88 125 146 155 134 106 97 100 121 147 162 162 167 155 165 165 150 143 141 133 128 122 111 100 87 69 39 14 7 10 5 3 2 2 2 2 2 2 4 3 3 3 7 6 4 4 5 2 11 13 14 21 13 7 58 102 122 128 136 138 145 160 168 163 168 171 168 160 146 126 114 108 100 108 144 166 174 187 157 182 179 144 137 150 149 149 161 185 174 166 186 169 146 176 148 119 104 100 96 110 133 152 164 164 165 152 163 160 143 141 137 131 124 116 102 91 81 63 39 20 11 10 5 2 0 1 2 2 2 1 2 3 3 1 6 7 6 6 5 6 9 10 12 20 15 13 30 95 112 123 131 135 140 154 169 165 165 168 169 162 147 133 112 107 108 102 114 122 143 173 156 170 172 166 180 169 173 186 164 170 178 160 169 157 133 125 109 106 103 107 106 120 138 156 163 162 161 154 164 154 141 140 135 130 123 111 95 83 75 52 26 13 6 3 5 2 0 1 1 2 2 2 2 3 4 4 7 6 9 8 7 10 5 7 13 13 17 14 13 61 102 118 126 131 135 146 166 170 163 162 168 164 149 146 126 101 103 121 120 112 122 117 119 125 120 128 130 132 129 133 126 125 125 127 120 120 123 114 114 111 92 111 121 130 147 161 159 160 158 160 164 148 139 137 131 128 119 106 91 79 65 37 12 7 6 5 7 6 3 2 3 3 4 5 3 3 3 5 5 6 8 9 9 13 2 7 12 9 18 10 13 28 90 116 122 130 132 141 161 174 163 157 164 166 152 139 137 122 108 109 114 140 177 161 152 148 144 145 148 149 150 164 149 144 135 142 146 130 116 114 99 102 99 115 129 137 155 164 156 161 156 163 161 141 136 132 129 124 113 99 85 76 44 18 5 6 6 4 8 9 6 5 3 3 5 3 4 7 6 2 6 7 8 5 6 8 8 8 10 11 10 13 16 12 50 102 116 124 132 132 149 170 166 153 158 168 158 146 142 136 122 109 108 120 141 142 138 139 140 154 166 185 161 174 166 162 139 135 130 121 114 106 98 107 126 129 130 144 155 157 161 158 160 166 153 135 133 130 128 122 105 87 77 67 32 7 3 6 2 4 10 16 12 11 8 6 6 3 4 6 6 4 6 7 9 6 3 4 5 6 8 9 9 12 16 7 19 74 111 118 130 130 138 162 168 156 152 164 160 143 141 143 140 127 121 115 118 125 135 140 137 136 142 157 147 153 147 143 135 132 123 109 101 106 121 131 137 132 133 151 157 151 160 152 166 161 142 127 129 127 121 113 93 79 67 48 11 2 3 3 1 5 7 12 11 12 10 8 7 6 5 6 4 4 6 6 8 7 6 7 4 3 5 8 12 11 19 13 7 40 97 115 118 127 132 151 166 158 146 160 162 151 142 140 144 144 143 135 122 120 123 123 124 126 126 133 134 131 127 121 115 111 112 118 124 133 139 137 133 136 143 153 157 154 155 151 163 153 134 125 127 122 113 99 81 75 56 25 4 1 5 7 6 6 6 10 9 12 13 10 9 4 3 1 2 2 6 6 6 8 5 7 5 4 6 9 11 9 16 19 9 13 58 107 114 122 125 137 157 157 146 152 160 161 150 146 148 146 144 152 149 144 137 131 128 131 127 127 128 125 121 125 132 133 137 140 141 142 142 136 132 141 151 152 157 158 148 151 152 141 130 126 123 116 109 89 75 63 36 6 6 2 6 12 11 8 11 13 11 14 15 10 9 6 4 3 1 2 7 6 4 8 5 6 5 5 8 7 10 10 12 20 15 9 18 79 110 117 123 128 144 155 148 146 157 158 151 149 152 151 152 145 154 152 151 153 150 151 149 152 153 158 152 153 147 139 143 149 146 139 139 139 139 145 153 154 156 152 146 146 140 132 126 122 116 110 97 78 66 42 13 6 8 7 8 11 15 17 17 15 12 15 13 10 9 6 6 3 2 1 6 5 4 7 6 6 5 3 3 3 11 14 13 19 18 14 8 38 94 108 115 124 134 149 149 144 154 162 156 152 150 151 156 157 160 155 154 160 158 156 153 154 152 157 153 155 157 155 154 151 148 145 144 142 141 148 154 158 153 145 143 140 132 127 121 117 110 99 83 68 50 22 8 16 11 13 9 15 25 25 25 21 18 18 13 9 6 4 2 2 0 0 5 6 8 9 7 6 5 3 3 0 5 16 13 17 21 11 13 7 54 108 111 118 124 138 146 143 146 158 159 159 155 155 158 158 160 162 162 162 160 161 159 158 159 160 162 162 161 160 158 156 152 149 149 147 148 155 159 155 147 141 138 134 125 125 117 109 103 86 73 51 22 10 13 15 7 7 6 17 24 21 27 21 17 16 13 9 6 4 3 2 1 0 7 6 8 8 7 6 5 3 3 1 5 13 12 15 20 12 7 8 9 70 110 111 115 128 141 143 141 153 158 161 158 158 161 162 164 166 167 167 166 169 167 167 168 168 170 167 165 165 164 162 157 152 151 153 158 162 156 149 143 136 131 125 120 117 107 99 90 74 55 28 14 17 16 10 10 6 16 22 23 27 28 25 20 16 16 12 5 6 5 3 1 0 8 7 7 6 7 6 3 3 3 3 4 13 11 13 19 15 8 14 10 15 78 108 109 116 127 136 140 145 151 159 160 160 162 165 167 170 172 172 173 176 174 174 174 174 175 172 171 168 167 163 159 155 155 159 162 157 149 143 135 129 123 118 111 108 99 90 77 59 26 17 19 20 14 9 15 18 21 27 34 35 27 27 23 17 15 12 7 7 6 2 2 0 10 9 7 7 7 4 2 1 0 2 2 11 11 11 19 17 15 8 16 4 34 93 106 110 114 124 135 138 149 157 160 163 165 166 169 173 175 176 176 177 176 176 176 176 176 175 172 169 167 163 161 161 161 163 160 149 142 137 127 120 114 110 107 101 90 77 58 39 19 24 19 13 16 21 20 23 15 19 29 29 25 27 23 17 13 12 9 8 5 1 2 0 14 11 10 8 7 4 2 1 0 2 0 10 11 8 19 16 16 8 12 7 18 59 88 106 108 115 127 132 142 153 159 162 166 166 169 173 176 176 176 176 176 177 177 176 176 175 172 171 169 164 162 163 162 158 152 142 137 129 117 110 104 102 97 86 72 60 44 29 27 32 20 17 24 18 17 19 21 18 20 31 29 22 19 17 14 15 14 7 4 1 1 1 14 11 10 8 5 4 1 1 2 3 3 7 10 10 18 17 10 13 11 1 17 42 62 87 104 105 115 124 135 147 153 158 164 167 170 172 173 174 175 175 177 177 175 174 176 175 173 172 169 165 161 159 157 151 144 136 131 120 108 102 96 95 86 73 58 48 40 30 32 29 21 22 22 10 10 17 15 19 25 23 29 25 16 20 22 16 12 7 3 2 1 1 13 10 8 7 4 3 3 3 3 3 5 5 10 12 17 20 10 12 11 1 14 45 66 69 90 106 104 114 124 136 144 152 160 165 168 171 171 172 173 175 178 177 175 175 176 177 174 171 167 162 158 154 152 147 138 129 124 104 90 94 92 81 65 59 51 49 49 40 34 30 25 21 18 15 16 14 27 24 20 26 24 25 20 25 23 12 9 6 4 3 1 0 13 9 8 7 4 4 5 3 3 3 5 7 10 12 16 23 11 9 11 4 11 39 71 83 84 86 98 103 113 125 135 147 156 162 166 169 170 171 171 174 173 174 176 175 174 174 172 168 163 156 154 151 145 139 131 119 103 90 84 85 78 67 60 60 58 56 50 40 34 34 28 20 16 20 19 19 31 26 20 27 24 30 34 32 21 13 9 7 4 3 2 2 14 10 8 7 5 6 5 4 3 3 5 7 10 12 18 24 14 8 9 5 10 36 61 86 101 90 88 94 103 115 128 141 150 156 162 166 169 169 171 170 168 171 173 172 170 169 167 163 159 153 150 147 138 129 117 99 86 83 82 75 66 64 67 69 67 61 52 47 41 33 29 24 19 21 20 26 20 26 30 20 26 34 36 25 17 15 10 9 7 5 3 3 13 9 6 6 7 7 6 6 3 4 8 7 9 11 18 23 14 9 8 5 9 25 64 82 95 105 96 92 94 102 116 132 142 147 153 160 163 164 165 167 167 168 169 168 166 165 162 159 155 149 143 137 125 115 99 85 85 78 68 69 72 73 78 78 75 66 55 56 48 31 28 29 22 18 21 20 21 24 26 27 37 40 34 24 21 17 12 9 6 4 3 5 15 12 11 9 9 7 6 4 3 5 8 7 8 12 18 23 14 10 6 4 8 23 59 80 92 104 110 107 100 95 100 116 129 138 145 153 156 157 159 159 161 160 157 158 158 156 152 148 143 137 129 121 110 96 85 82 76 74 78 82 83 88 86 84 82 70 57 59 49 32 29 29 22 21 19 22 24 17 24 37 39 36 28 31 26 14 12 9 7 6 4 5 21 16 9 9 9 6 3 4 7 6 7 7 9 13 21 21 13 9 7 3 10 24 50 76 93 103 111 121 115 106 94 96 111 125 132 140 146 150 152 155 155 154 153 153 154 152 147 140 131 122 114 106 94 82 78 79 81 84 90 92 90 97 87 95 81 64 66 60 46 35 30 27 20 18 18 21 20 21 28 33 34 29 25 25 21 14 13 8 6 5 6 9 22 13 9 13 9 4 3 6 7 7 7 7 8 12 22 21 13 11 5 3 14 24 50 77 91 102 109 116 119 125 116 96 85 106 116 127 135 139 140 140 141 144 144 143 140 135 129 123 115 107 97 87 84 82 85 90 97 98 101 103 98 98 101 94 82 73 68 56 50 33 27 28 20 10 16 18 20 25 33 36 30 28 28 28 24 19 15 9 6 7 8 10 21 13 9 15 8 6 5 8 7 7 7 7 9 15 21 19 12 9 5 4 17 25 47 74 91 103 108 116 117 123 127 118 106 89 92 101 111 121 125 127 129 130 128 126 124 120 112 103 95 88 84 84 87 93 99 104 105 106 108 106 100 99 103 89 80 79 66 51 53 32 25 29 20 5 14 16 19 23 30 34 31 27 26 25 21 18 15 10 6 7 10 11 18 14 12 11 7 7 7 9 10 7 7 7 10 16 22 17 10 8 5 5 17 24 45 71 89 100 106 113 120 128 132 128 119 111 102 91 86 85 86 92 92 95 95 98 97 87 83 82 84 86 90 99 102 106 110 112 110 115 115 106 103 109 97 95 83 73 67 53 50 33 26 26 19 11 13 15 18 22 27 32 31 26 23 22 20 16 13 7 7 9 11 14 16 20 15 11 7 7 10 11 10 7 6 8 13 19 20 15 11 10 9 8 17 21 40 68 88 102 107 111 120 124 126 127 124 123 117 113 110 103 96 93 89 86 85 86 89 93 92 95 102 104 107 108 110 113 114 116 115 120 115 103 100 105 93 90 76 67 66 54 51 38 29 23 16 16 10 14 20 24 30 33 27 25 27 28 23 16 10 8 9 11 13 18 22 17 9 6 6 8 11 12 10 7 8 10 16 20 17 14 12 14 13 10 19 19 38 66 86 101 106 113 119 121 125 128 124 121 117 118 122 122 118 118 116 115 114 113 114 114 112 110 111 113 113 114 115 116 117 119 119 119 113 108 107 101 103 79 71 82 78 70 55 39 30 24 17 15 12 15 19 21 25 27 24 28 32 30 17 12 10 11 13 15 14 17
