P2
# Generated by OpenCV 4.2.0
92 112
255
113 74 44 42 47 37 57 44 43 57 51 58 53 54 58 53 53 46 41 44 43 35 62 46 142 136 78 112 125 93 56 75 82 70 47 39 46 34 45 57 61 72 88 90 99 104 109 118 119 129 144 146 150 164 156 165 171 169 164 169 176 176 156 137 152 143 123 118 114 101 112 72 89 98 89 96 84 127 156 216 201 115 108 113 108 104 106 108 111 110 109 109 107 50 51 57 40 51 48 41 50 47 62 65 54 61 57 53 54 52 41 30 35 59 112 157 104 103 108 64 61 59 45 36 37 25 40 45 77 61 101 114 121 122 126 126 128 131 136 131 141 144 143 148 162 163 171 174 192 184 187 176 180 182 181 176 174 167 155 140 147 150 129 136 139 110 108 97 129 98 138 131 228 184 107 101 110 107 104 106 108 108 109 109 73 47 45 45 45 49 45 44 61 55 72 47 66 54 51 47 54 43 41 52 53 120 136 94 112 86 61 52 51 53 45 64 59 75 79 93 79 92 106 124 139 147 153 161 162 154 153 156 156 162 165 165 167 172 178 193 186 187 184 181 191 188 191 188 189 183 182 181 176 171 172 156 169 177 174 149 110 85 149 160 180 233 150 103 103 104 104 105 108 107 109 109 42 62 48 38 54 52 40 60 56 78 60 56 57 49 54 52 32 47 45 68 135 125 95 98 39 47 67 48 63 64 83 89 66 85 100 113 118 125 136 153 163 170 170 175 178 174 177 174 169 169 172 176 176 176 181 186 190 198 200 190 197 191 196 198 197 195 196 194 189 186 191 190 204 210 196 212 176 144 154 152 162 201 208 112 96 110 106 105 106 107 107 108 48 44 47 60 53 43 56 64 76 57 60 58 52 39 50 45 53 40 85 128 109 98 63 51 53 54 63 73 77 63 62 82 94 96 109 123 142 150 157 168 174 177 171 181 182 181 184 180 179 179 182 182 183 183 185 187 189 187 195 193 195 197 196 199 194 199 198 199 200 207 205 218 210 203 212 204 215 164 142 119 124 156 216 202 110 109 110 105 106 107 106 108 59 49 52 60 50 37 62 74 64 60 67 57 39 59 46 46 45 81 114 107 86 49 75 84 77 80 97 67 56 78 84 87 100 115 129 136 151 158 166 171 176 178 179 182 181 183 185 186 185 184 185 182 184 184 186 185 187 186 190 191 190 199 196 199 191 202 201 201 200 208 210 211 228 224 220 218 208 203 134 151 136 108 166 222 142 101 106 102 105 106 108 108 58 50 70 54 39 68 68 87 64 81 66 46 43 43 43 46 78 126 115 77 51 76 52 60 89 68 47 67 77 85 89 104 116 139 150 158 163 170 174 176 177 179 181 182 182 183 185 185 185 185 184 185 185 186 185 184 185 185 186 188 186 197 194 196 198 200 199 200 201 207 208 223 228 225 236 226 230 217 198 141 101 106 146 199 214 105 100 106 105 105 108 109 50 69 55 51 58 78 84 61 86 79 68 46 39 42 51 66 123 118 75 57 66 60 77 85 51 62 77 70 85 98 109 120 132 143 156 165 167 169 174 176 179 179 181 183 182 185 183 184 185 185 185 184 183 185 183 183 181 184 184 186 188 195 192 194 194 198 199 200 202 206 208 215 229 232 235 234 236 238 216 196 156 133 147 182 211 189 92 104 104 106 106 108 58 71 68 38 80 82 74 80 87 74 62 54 36 51 57 106 138 78 69 63 75 65 54 63 62 62 71 83 101 112 116 123 132 147 159 162 166 170 176 176 179 180 184 184 185 183 183 184 184 183 185 186 183 183 183 183 182 182 184 184 184 193 190 191 193 195 198 200 203 204 206 216 224 234 237 238 241 231 234 217 195 149 151 85 186 209 177 105 103 104 105 106 67 75 46 75 79 89 65 90 82 56 52 44 65 68 108 136 103 86 64 97 72 62 63 57 58 67 82 98 109 119 127 141 147 154 162 165 167 171 173 177 180 182 183 184 184 184 184 185 184 184 184 185 183 183 185 184 183 183 183 184 182 190 191 189 193 193 196 197 200 202 204 214 222 231 241 243 244 242 234 226 215 203 142 150 133 213 196 117 104 102 104 104 73 72 58 88 83 57 92 84 67 51 39 43 57 99 127 100 71 60 84 56 55 45 50 68 73 86 102 116 124 128 136 144 158 160 159 162 169 171 174 176 180 181 184 184 185 184 186 185 185 185 183 183 184 185 185 184 185 182 183 183 182 185 189 188 187 190 194 193 198 199 201 213 220 227 240 242 247 239 240 240 231 194 177 147 155 188 197 160 101 113 99 106 78 56 69 85 88 74 89 72 63 40 54 44 77 109 128 72 80 82 66 64 44 50 68 80 92 100 114 122 128 130 147 149 156 157 162 166 170 170 174 176 178 180 183 185 184 186 185 184 184 186 185 184 184 185 184 184 185 186 184 182 182 185 185 187 189 187 189 191 193 196 199 212 218 227 234 252 252 245 236 233 229 219 206 151 131 159 214 170 129 106 104 107 69 47 81 89 70 77 78 75 53 51 43 58 91 124 100 75 92 67 63 46 52 62 90 92 103 110 116 120 131 138 143 149 154 153 161 164 169 169 173 175 178 180 182 185 185 184 184 184 185 187 186 185 185 184 184 184 183 183 182 181 181 183 183 185 185 185 187 188 191 195 196 205 213 217 234 237 241 245 247 240 235 225 201 164 139 148 209 185 117 103 105 106 66 76 90 85 75 83 79 69 50 41 52 91 129 113 93 91 46 67 44 56 64 76 84 94 108 114 122 131 135 137 143 149 151 154 158 163 169 169 171 173 173 177 179 181 184 182 183 185 187 188 188 186 186 185 186 183 181 182 181 180 180 179 181 181 182 182 183 188 186 193 196 201 211 219 235 234 242 248 247 241 232 231 219 181 143 124 168 183 141 131 98 107 61 80 83 77 89 80 73 55 56 41 88 110 117 106 85 71 46 38 43 64 72 77 92 108 121 130 128 134 136 142 143 149 149 153 156 163 164 166 165 170 171 175 177 178 181 180 179 185 188 186 183 184 185 184 186 183 181 180 182 180 179 180 179 181 182 181 182 185 187 191 195 199 211 216 235 231 240 248 244 248 229 235 227 201 154 149 127 198 151 126 115 110 65 81 80 79 80 83 62 62 46 74 99 118 114 94 91 46 47 37 46 64 71 84 98 118 127 133 132 137 140 145 146 149 149 154 154 152 157 163 165 168 170 173 176 176 178 177 179 184 184 185 184 185 184 184 184 182 180 179 181 180 180 181 178 180 182 182 181 182 187 186 196 197 209 210 224 228 227 236 238 240 234 233 222 201 139 140 130 182 164 117 108 111 82 78 71 86 83 71 63 64 57 93 113 116 113 79 57 37 46 51 58 68 69 91 106 124 129 134 137 141 144 146 149 141 142 147 153 151 153 161 164 165 169 171 176 178 184 185 183 182 185 185 185 185 185 185 184 182 184 183 179 178 180 180 180 180 182 182 180 180 185 184 188 200 206 209 219 231 235 238 241 228 230 231 233 218 164 100 131 155 197 127 104 108 82 76 71 88 85 69 65 63 81 112 108 119 88 48 38 51 50 56 55 66 85 103 117 133 132 133 135 140 142 144 144 139 146 146 147 150 151 156 162 164 168 170 176 178 181 183 182 182 185 183 184 185 185 185 185 185 185 182 180 180 182 180 181 181 182 182 181 179 183 182 196 199 203 209 213 225 237 237 236 233 224 233 221 211 178 122 114 145 203 143 105 106 79 67 86 79 78 65 69 68 103 112 118 107 59 37 52 43 42 53 59 78 94 108 123 130 131 131 135 136 139 140 140 136 124 134 147 148 150 155 161 165 167 170 172 176 178 182 181 182 184 184 185 183 185 187 186 184 182 181 180 181 182 182 182 179 178 179 179 180 183 187 187 188 197 204 209 213 231 237 234 226 222 226 218 209 196 123 93 115 194 153 112 104 77 72 80 86 65 64 71 76 111 117 127 84 48 54 41 37 46 51 78 86 105 113 119 132 132 131 131 135 138 137 139 137 144 148 146 149 154 159 161 165 167 174 168 175 177 180 180 181 182 187 187 185 186 185 184 181 182 179 179 181 182 181 180 181 181 181 180 181 180 189 187 197 195 207 207 225 215 215 225 224 227 227 214 211 202 110 86 99 183 167 113 103 74 75 85 80 67 69 66 100 110 115 98 42 43 26 33 37 50 67 78 101 102 111 126 133 132 132 132 133 133 138 141 142 142 146 148 153 157 160 163 162 167 177 168 173 173 176 183 184 185 185 184 185 186 187 184 183 183 182 181 179 180 180 180 180 177 179 181 179 183 185 186 191 193 208 208 210 224 222 227 214 217 214 218 218 207 119 88 92 178 165 129 109 68 87 83 65 61 68 88 114 113 112 62 59 29 34 34 51 71 76 88 96 99 117 126 132 133 135 131 131 132 136 139 142 145 149 149 151 153 155 162 159 161 165 167 167 166 175 176 177 181 179 179 182 187 186 185 183 184 182 180 177 178 178 177 179 179 179 179 180 180 185 184 188 199 206 205 219 216 218 217 218 213 217 218 216 212 139 87 95 153 183 135 119 80 88 73 60 75 74 97 109 115 78 58 37 40 32 46 71 69 85 88 95 98 111 120 135 130 129 128 130 131 135 137 139 143 145 147 147 152 154 157 159 165 166 165 170 172 172 169 172 175 175 176 181 183 182 180 180 181 181 178 176 175 177 177 177 180 179 177 175 176 182 185 191 191 204 207 210 216 221 223 219 213 219 214 215 213 157 99 102 146 192 135 125 81 81 69 65 62 96 106 112 91 60 52 34 33 43 61 54 75 80 90 98 98 111 127 130 130 130 130 132 133 136 136 135 137 142 145 150 156 157 160 158 160 161 166 170 169 170 174 178 177 178 181 182 179 179 177 178 180 180 177 178 175 178 176 176 179 178 176 177 176 179 180 182 191 191 201 216 222 219 218 217 220 218 212 214 214 168 96 95 126 194 113 102 85 67 69 80 80 104 108 105 67 55 23 23 26 45 56 65 74 85 84 96 110 114 124 130 132 132 132 133 134 139 135 140 144 146 150 154 155 153 153 152 156 162 165 168 168 171 170 179 180 180 183 182 181 179 181 181 183 181 175 179 177 176 177 175 177 176 177 176 176 178 185 187 193 198 205 212 210 212 211 214 214 213 215 218 215 182 119 101 128 176 153 143 82 72 62 78 102 108 117 81 54 26 35 29 27 54 71 52 77 81 87 101 107 113 125 136 133 133 132 136 139 137 136 140 145 146 147 148 150 153 154 158 156 159 169 172 170 171 169 176 182 179 179 178 182 183 181 180 181 182 176 178 180 175 176 174 175 179 178 181 184 178 187 192 195 197 203 207 214 214 208 207 211 216 210 207 209 187 115 103 125 173 150 106 76 68 67 85 107 112 77 61 22 29 17 39 49 45 47 63 70 80 95 99 112 112 127 129 128 128 131 134 139 140 136 137 145 146 148 153 153 156 156 156 157 163 165 169 171 172 171 175 180 178 174 177 179 177 177 177 182 185 178 175 180 175 175 178 177 176 176 179 181 185 188 191 191 197 207 216 214 213 220 213 210 213 206 210 211 194 133 82 114 177 118 104 71 69 75 105 108 102 63 31 20 23 31 30 35 33 47 54 77 85 98 105 105 122 128 132 129 129 130 136 139 140 140 140 144 146 145 149 153 158 159 163 162 166 169 167 171 173 174 178 177 177 179 181 182 181 181 182 183 182 181 176 174 177 177 180 178 179 178 180 176 182 181 187 192 199 204 212 220 215 217 212 215 208 210 219 206 195 124 86 105 183 133 102 65 76 90 112 115 79 61 46 40 23 31 37 41 39 53 52 74 88 105 109 109 116 126 132 131 130 133 135 140 141 141 142 140 142 145 152 155 159 164 167 167 171 172 169 174 176 177 179 179 181 180 181 180 179 179 177 179 180 178 178 176 177 179 178 179 180 182 180 176 175 178 186 190 196 204 210 215 231 217 217 216 217 220 219 210 201 160 81 105 175 123 128 77 79 96 112 101 52 31 38 15 22 34 32 38 40 45 67 67 93 105 109 112 121 126 132 133 131 133 136 139 141 142 141 142 145 147 154 158 161 167 169 173 176 173 173 174 176 177 178 180 181 178 177 178 179 181 179 181 179 178 177 175 176 179 180 179 179 180 178 175 176 176 179 188 197 196 203 220 223 220 222 220 214 222 224 216 205 176 87 88 171 187 113 61 82 97 105 75 38 28 22 15 30 33 33 39 38 45 47 76 92 99 105 122 123 126 129 130 130 133 136 138 142 143 144 145 146 149 153 157 165 167 170 172 171 171 173 175 176 179 180 182 180 176 176 176 175 177 177 176 177 176 176 177 176 177 178 176 174 177 175 175 177 172 181 191 194 195 204 211 212 218 221 212 221 225 224 203 212 200 103 93 141 121 110 75 91 101 82 43 43 20 28 28 26 32 21 25 43 43 65 70 100 112 116 120 124 125 126 129 130 133 137 139 143 145 144 146 146 151 154 159 163 165 170 169 168 169 174 176 177 180 176 179 177 175 171 171 169 172 172 173 172 175 174 173 172 173 174 173 171 173 180 178 170 173 176 180 184 194 197 206 217 224 223 231 224 222 231 205 212 212 118 90 123 124 109 79 87 90 52 42 26 45 28 20 33 19 30 31 39 51 52 95 101 113 118 120 123 125 124 127 129 133 137 141 143 147 145 146 150 157 163 162 164 167 167 166 170 172 173 169 167 174 168 171 166 171 166 165 165 167 171 171 173 171 175 171 170 170 169 169 168 168 170 166 169 167 164 176 185 201 191 202 204 221 233 242 248 236 232 217 212 220 139 64 123 110 107 84 95 64 44 30 20 24 28 29 18 32 22 30 43 54 74 99 103 111 117 119 123 125 126 125 130 132 130 136 145 148 153 161 160 161 165 164 162 159 158 160 162 161 162 164 160 163 165 161 153 151 160 159 158 158 165 169 173 168 171 169 169 167 166 164 165 161 160 154 156 150 151 159 177 177 190 179 186 195 203 217 232 242 235 216 218 218 186 70 82 117 101 85 81 49 47 25 31 25 24 36 35 24 30 35 44 67 87 113 108 114 118 119 122 125 127 123 129 130 134 140 149 156 151 150 142 139 140 131 133 124 114 118 118 119 122 125 128 126 122 136 137 145 154 153 154 157 160 164 169 166 167 169 168 166 163 164 156 148 140 142 129 110 118 122 113 123 115 124 119 131 137 165 166 183 189 205 234 223 205 70 89 132 100 88 54 49 39 24 19 25 31 21 15 18 28 42 57 88 107 117 115 115 121 121 126 121 119 123 129 126 136 146 147 126 102 102 109 91 84 91 87 85 81 79 65 73 74 81 72 88 80 103 112 118 121 149 149 155 155 161 169 167 164 162 162 163 160 159 143 138 124 107 91 88 90 78 70 70 78 87 81 109 100 114 120 147 160 195 222 233 226 81 88 129 105 69 55 40 28 22 42 29 20 24 23 26 44 57 88 107 115 116 118 117 118 123 126 123 119 118 120 133 128 105 87 82 60 62 63 76 77 74 66 69 76 71 69 61 64 62 60 71 65 65 92 97 101 133 142 154 150 156 157 162 160 162 163 160 158 158 142 134 108 96 84 76 83 53 61 71 67 71 68 77 79 123 101 123 123 171 175 245 233 95 92 132 100 54 55 44 12 40 25 14 17 29 31 54 56 84 100 115 121 123 122 123 122 123 125 124 117 117 120 126 75 75 73 72 69 72 64 66 74 72 74 70 69 63 59 62 59 59 67 62 80 72 93 109 95 120 139 146 151 152 156 162 161 159 159 158 157 149 136 132 107 90 85 74 59 60 62 67 58 52 57 69 78 84 106 124 127 140 167 212 236 121 92 107 111 62 53 15 51 30 27 26 31 29 45 55 88 95 111 121 126 126 130 129 125 124 122 122 119 118 103 65 78 84 83 75 78 72 74 74 76 69 59 53 73 61 55 64 64 66 63 83 86 88 90 90 117 126 141 143 147 151 153 161 163 158 158 159 153 138 118 122 109 100 81 89 71 76 76 71 76 95 97 107 118 114 135 140 133 155 175 181 228 137 106 126 111 61 45 72 47 29 19 32 29 34 46 66 98 106 118 124 129 126 128 124 126 126 123 123 122 82 66 69 90 102 100 102 111 111 108 101 100 105 94 88 90 87 82 83 87 86 81 84 90 99 108 118 113 125 135 140 145 149 151 157 162 163 160 156 149 138 131 127 121 114 115 110 113 113 117 119 127 127 128 139 132 131 155 146 169 156 159 185 222 164 110 122 120 58 69 53 33 35 28 30 21 33 57 86 102 107 116 125 126 124 126 129 126 128 129 119 90 67 83 79 90 99 120 122 138 141 138 146 135 132 126 122 121 118 114 104 107 112 113 102 111 107 112 119 121 122 136 136 142 146 151 148 156 154 152 152 143 140 141 133 134 126 123 119 125 129 131 129 134 132 137 141 141 149 166 180 182 194 177 202 214 188 113 122 101 69 56 36 28 25 8 14 28 38 55 96 108 114 116 122 126 124 124 127 132 127 128 95 70 78 95 107 122 125 140 143 149 149 145 152 145 152 141 130 136 133 135 122 117 118 110 103 101 104 112 115 117 123 125 135 139 143 147 154 154 147 149 149 144 141 139 134 126 121 124 133 127 128 128 115 118 128 133 135 138 164 171 186 191 201 203 225 221 210 141 174 105 39 33 25 13 11 14 24 25 35 64 99 114 122 119 120 127 125 128 126 129 117 108 87 77 96 108 123 135 143 144 145 144 147 147 143 144 132 116 110 96 111 97 116 118 113 127 113 108 99 98 100 107 115 121 125 132 137 143 156 163 164 156 153 149 132 128 127 122 126 115 121 105 63 72 60 59 50 82 97 101 115 150 185 212 194 182 216 232 219 151 179 107 18 13 11 9 4 10 12 25 44 68 94 116 121 117 119 130 128 127 135 126 116 104 98 99 113 124 137 140 139 139 138 131 121 117 100 100 56 50 31 28 31 71 41 37 60 87 110 113 114 103 96 99 104 111 119 126 136 147 156 160 162 158 150 142 123 117 118 121 116 86 60 48 35 56 55 43 42 27 37 42 82 113 184 199 207 192 209 236 233 181 182 107 33 26 8 13 12 15 18 31 40 63 93 119 115 118 124 128 130 129 133 127 122 117 121 133 139 138 139 131 132 129 117 107 90 77 40 30 31 38 22 41 39 57 33 78 80 35 69 106 118 114 105 97 99 108 118 124 137 144 159 163 165 159 149 130 114 119 115 109 73 53 42 26 18 7 27 26 21 27 39 51 38 61 109 131 180 179 213 235 232 179 162 106 75 48 26 14 9 15 23 31 43 71 100 119 113 118 123 122 128 132 133 135 134 131 131 132 126 126 125 126 122 116 90 61 39 30 51 21 24 20 26 29 39 26 49 47 44 57 72 74 119 119 110 103 100 105 117 127 140 146 162 169 175 163 144 123 122 110 110 72 62 35 11 32 49 72 59 24 35 45 15 29 28 23 25 82 161 216 197 237 229 188 122 99 104 52 27 30 26 23 21 29 42 67 92 115 118 123 121 118 122 130 132 143 142 140 139 137 140 131 122 134 132 96 53 29 26 24 18 17 14 27 22 35 63 43 85 114 65 38 78 83 87 110 111 104 103 106 104 128 141 152 168 175 180 173 150 124 128 114 92 76 44 32 39 32 9 38 56 56 69 80 25 9 5 7 12 26 176 208 229 231 241 178 104 102 115 46 48 22 19 12 26 34 49 66 90 111 118 122 121 119 120 122 123 134 135 148 146 144 118 119 121 127 113 48 35 19 15 15 36 42 63 57 41 51 25 27 78 136 113 66 32 86 104 106 118 115 103 112 111 128 142 157 171 182 179 187 150 138 128 113 89 47 87 39 47 58 41 58 59 55 79 76 66 54 43 0 82 164 165 218 224 237 232 203 100 102 100 72 66 35 30 33 34 34 47 68 96 114 115 123 120 122 129 118 112 118 129 135 138 141 145 129 109 89 73 75 75 31 31 53 74 90 105 130 134 101 124 121 110 113 92 99 94 44 51 92 125 124 102 123 115 130 143 159 174 184 200 222 170 142 137 99 51 59 70 86 89 100 123 128 129 121 140 125 142 143 165 167 92 117 192 208 226 231 230 223 108 98 104 80 55 34 37 32 34 35 46 73 98 116 114 122 122 126 129 135 127 131 126 118 122 107 125 114 103 109 102 109 104 86 94 108 122 135 138 151 159 156 165 167 166 158 146 138 135 142 140 87 126 131 115 134 121 133 145 161 173 186 208 225 195 151 149 105 101 120 116 118 116 130 133 147 152 150 158 162 178 191 214 198 179 146 187 189 206 222 212 222 119 100 107 96 89 27 33 33 36 42 58 76 98 110 113 116 119 125 126 133 128 135 146 149 146 156 150 154 144 135 128 132 126 139 135 137 142 140 146 141 146 151 146 149 144 148 145 142 142 142 135 156 145 139 130 142 131 139 148 166 175 190 209 227 223 157 150 161 161 148 128 124 121 129 125 133 135 138 150 154 162 179 205 200 227 229 243 235 235 229 226 231 103 104 123 105 114 75 43 40 50 48 54 81 105 110 116 115 118 123 125 132 134 121 135 145 156 148 157 163 166 160 167 159 145 145 144 155 153 146 146 139 140 137 140 145 140 138 132 131 132 122 133 137 133 132 142 136 133 142 144 163 180 189 200 227 239 189 157 163 134 127 119 116 118 119 121 128 126 140 147 149 163 183 201 218 213 208 224 234 237 236 224 231 116 109 133 126 105 93 99 73 59 65 71 84 105 108 116 116 118 122 126 127 128 132 135 142 154 148 157 163 163 167 162 167 171 166 167 157 150 161 152 153 155 156 153 152 136 139 141 141 131 140 146 141 129 144 148 136 136 148 149 162 166 185 195 221 240 226 173 163 142 131 122 127 123 122 125 132 133 135 141 147 154 184 196 207 212 218 218 231 236 236 232 228 110 99 137 121 82 66 102 93 83 79 77 87 101 104 112 115 120 123 127 129 132 133 135 140 144 144 155 166 165 161 169 160 163 160 150 137 135 128 121 123 124 134 130 131 132 130 138 148 159 149 149 137 147 148 148 145 140 145 153 162 168 182 195 215 235 239 191 159 167 160 149 134 136 133 132 135 140 145 146 145 141 136 146 156 160 191 224 232 234 235 228 238 121 99 125 104 78 64 85 98 92 89 81 88 96 102 107 115 118 122 127 129 131 135 137 138 141 145 149 154 157 155 158 163 175 172 184 182 186 182 176 179 168 162 156 158 159 165 168 167 157 159 150 158 159 152 145 142 143 145 154 162 170 180 194 209 231 240 224 187 164 165 163 153 152 148 148 145 148 144 154 162 172 184 192 190 210 223 203 206 219 228 227 231 126 107 121 98 73 73 87 95 89 93 84 88 100 105 105 114 116 120 124 129 131 137 137 141 145 149 151 153 152 160 164 167 171 181 179 174 170 175 175 174 173 173 173 175 172 170 164 165 174 166 167 162 156 152 148 146 147 147 156 163 172 175 192 206 229 242 233 230 203 181 183 172 172 170 167 167 174 176 173 185 186 185 182 188 194 200 227 229 219 220 226 229 143 102 111 98 84 82 93 96 95 99 90 83 96 105 105 113 115 117 124 128 133 134 136 140 144 146 147 150 151 153 157 161 164 170 183 183 177 177 179 179 179 180 176 182 180 181 177 174 171 173 169 166 160 155 152 151 151 150 155 163 171 182 188 202 228 243 235 230 229 215 214 201 199 195 197 185 185 188 189 184 196 197 195 196 198 217 220 228 225 222 226 227 154 108 106 101 89 96 100 98 110 113 98 84 94 104 108 110 116 118 122 128 135 134 132 140 143 143 145 148 149 151 155 159 166 171 180 183 180 181 182 182 181 183 186 186 184 183 179 177 176 175 172 169 168 165 162 156 150 151 153 162 173 179 189 204 218 235 242 233 235 228 223 217 208 201 201 200 190 194 192 198 202 193 207 210 207 217 231 234 230 225 227 224 185 97 105 103 107 117 120 108 123 124 105 85 92 104 102 106 110 116 120 124 126 134 132 134 139 141 144 151 150 148 155 165 168 170 178 182 182 184 184 185 186 185 185 186 185 185 184 185 182 178 173 170 176 170 159 154 152 151 154 163 174 181 192 198 216 238 243 235 239 234 231 222 207 203 201 208 205 195 200 200 198 197 206 214 220 228 241 243 237 231 226 226 185 101 106 112 128 134 127 116 130 126 107 93 88 105 100 103 108 116 116 124 127 133 129 135 140 142 144 148 150 152 158 160 165 170 176 183 183 182 184 185 186 185 186 187 187 186 186 187 188 180 176 171 168 163 154 152 151 152 153 164 175 182 193 199 217 229 244 248 237 228 215 216 209 205 209 208 212 206 202 198 201 200 206 211 222 224 240 248 245 235 226 221 195 102 118 118 134 129 121 116 134 132 110 98 91 103 101 101 106 114 115 120 124 129 130 134 138 142 143 146 154 156 159 166 169 173 175 181 184 182 182 186 186 186 186 188 188 188 192 185 181 176 167 158 151 145 148 147 142 147 153 169 176 182 190 197 208 223 238 246 242 219 193 161 171 175 191 206 206 214 211 201 200 198 200 204 217 222 230 246 245 242 234 228 195 95 124 113 131 130 124 107 127 130 118 104 99 103 103 101 106 112 119 121 124 126 130 133 136 140 143 145 149 154 156 161 165 169 172 176 179 180 182 184 186 187 186 188 188 186 178 171 169 157 143 142 154 149 144 144 139 147 157 169 174 182 185 192 202 221 230 239 244 235 174 142 140 151 164 179 189 208 203 205 201 196 200 202 211 220 231 241 244 235 226 226 197 98 149 130 115 134 131 119 121 121 127 108 101 103 103 102 104 111 117 120 124 126 130 131 134 138 144 145 149 154 156 158 162 165 169 172 174 179 180 183 183 181 182 182 182 178 173 164 150 135 135 135 161 159 160 152 139 142 152 167 174 179 183 192 197 212 226 238 246 230 217 140 136 135 146 151 160 176 183 192 196 191 194 198 206 206 220 230 239 232 235 221 203 100 146 143 131 133 124 106 110 123 127 118 106 103 105 104 105 110 117 118 122 124 128 125 134 136 140 145 146 150 153 153 159 160 165 168 171 170 177 180 176 176 175 175 169 161 156 142 132 129 134 146 160 166 168 164 144 139 150 164 173 176 183 189 194 206 217 238 247 228 238 173 117 116 122 134 147 158 165 174 181 173 181 184 194 193 200 215 228 227 228 222 193 94 100 123 138 152 147 123 98 117 129 120 109 105 107 106 105 108 115 117 121 124 128 130 128 131 137 143 144 148 151 151 155 157 161 163 166 165 168 169 167 167 167 165 158 153 136 128 127 124 136 147 158 165 165 161 145 137 147 157 163 173 181 191 192 199 208 233 246 241 246 232 123 107 108 117 132 141 150 154 164 160 167 173 180 188 194 204 217 219 224 215 183 100 109 113 135 149 155 154 150 133 123 119 111 107 109 107 108 110 113 117 119 123 125 125 125 134 134 143 144 147 149 150 151 155 158 156 157 161 163 163 160 162 159 160 144 130 129 130 134 111 123 142 147 155 155 153 142 138 132 146 155 161 166 181 186 187 203 234 239 234 240 227 126 120 104 106 112 127 137 145 154 153 158 162 169 180 187 192 204 208 215 222 156 101 143 135 147 153 151 155 148 129 124 120 113 109 107 104 106 109 111 113 116 117 118 119 123 128 124 129 132 142 148 151 150 153 154 155 155 161 163 158 158 159 151 136 124 126 136 138 141 122 103 127 133 141 136 142 134 135 131 133 142 148 155 163 173 179 185 204 210 219 216 217 146 137 120 108 102 116 128 134 143 150 151 157 163 172 178 183 197 207 211 217 139 107 140 144 136 155 151 149 146 132 132 123 115 114 108 107 108 111 107 110 112 115 119 120 120 120 124 130 137 143 145 146 147 150 153 153 155 150 154 155 155 147 131 118 124 138 141 141 141 137 110 104 115 128 126 123 124 120 118 123 133 137 147 154 157 160 169 192 189 197 200 174 143 143 131 125 101 104 119 125 135 146 145 150 155 163 172 181 188 205 205 219 128 104 132 140 134 148 155 148 143 134 136 139 116 114 110 109 111 111 107 107 110 110 112 116 121 121 127 130 137 137 139 141 143 144 145 147 150 150 154 153 144 132 122 130 137 144 143 145 147 147 134 95 83 80 82 81 89 106 107 113 110 119 133 144 151 148 165 183 178 148 159 156 150 156 149 136 118 97 109 117 125 137 139 144 148 157 168 174 186 193 210 210 105 106 118 139 137 144 143 147 140 138 147 141 118 115 112 109 110 108 108 108 109 107 111 114 118 117 124 125 132 132 131 135 138 140 141 144 145 145 143 139 128 119 131 140 140 146 149 150 152 148 145 133 106 83 59 51 48 41 55 82 104 108 119 129 137 152 165 169 128 142 153 160 154 156 154 144 138 119 96 105 121 130 138 145 144 149 160 167 184 184 197 184 110 100 106 128 140 124 66 72 95 131 146 127 112 114 110 112 110 108 108 107 106 106 109 112 112 111 120 120 121 128 129 129 135 136 136 139 140 141 136 125 118 130 141 144 146 147 149 148 148 148 144 141 134 125 109 102 96 85 71 68 84 105 120 120 132 144 202 166 145 152 155 161 162 162 158 147 146 137 115 94 112 119 132 140 143 149 157 164 171 185 204 141 107 104 108 118 136 78 224 117 73 116 144 126 86 112 110 112 110 106 106 107 106 106 107 108 108 110 118 117 117 121 126 124 130 131 132 135 136 130 122 113 129 133 137 141 145 146 148 153 155 153 156 144 140 136 125 123 110 111 105 97 94 106 115 123 145 180 176 158 156 159 162 166 165 167 157 153 148 134 128 116 100 115 123 132 141 150 158 169 174 180 210 130 102 105 118 111 119 62 210 77 51 122 141 114 64 107 106 109 107 106 105 106 107 103 104 106 108 109 113 110 112 115 123 120 125 127 136 134 132 120 114 122 128 131 134 140 151 156 155 156 162 161 162 158 150 142 133 128 119 112 109 109 104 101 106 120 134 137 154 146 155 164 166 169 167 166 167 157 151 136 121 140 110 111 113 123 137 153 155 166 174 180 205 101 109 108 116 109 106 77 29 49 63 138 126 93 58 99 107 107 107 105 106 105 107 105 105 107 108 111 109 105 107 112 119 124 125 126 130 129 123 112 113 119 125 136 138 142 147 155 156 158 165 163 165 163 156 149 138 129 116 106 98 84 81 79 95 94 98 115 144 162 175 178 182 162 167 178 165 161 155 141 124 128 131 114 119 120 138 151 168 168 170 196 168 100 108 107 116 111 110 102 76 46 99 123 105 64 58 75 103 108 104 104 106 106 108 105 105 107 109 111 111 108 106 113 118 115 124 127 130 124 114 109 118 121 132 139 141 145 148 149 152 154 160 164 164 161 159 161 153 152 148 144 134 124 111 100 114 129 136 159 174 182 193 205 217 236 223 184 174 162 157 148 132 123 139 121 121 123 131 149 167 179 173 204 147 101 107 107 113 116 114 111 81 76 82 98 89 64 57 71 102 108 107 103 106 107 108 108 107 110 110 115 116 111 111 115 115 121 126 125 127 125 110 113 116 119 122 129 136 138 141 142 143 142 145 137 130 134 131 133 134 134 135 136 143 146 156 159 166 155 148 138 134 147 141 149 165 177 195 220 191 159 157 140 131 106 129 129 119 130 140 151 176 186 169 220 109 108 107 107 113 116 119 114 97 116 72 104 93 79 64 68 97 106 108 103 106 107 108 112 117 114 112 117 121 122 120 119 116 118 119 124 126 124 104 104 108 115 121 125 127 120 120 118 114 112 121 121 121 119 123 126 123 122 116 118 114 111 111 117 111 113 117 116 119 130 132 134 137 144 148 159 167 147 150 144 129 98 120 130 122 138 150 149 184 189 180 211 120 106 107 105 113 117 116 113 106 49 70 99 107 72 63 61 92 103 107 103 107 105 108 110 115 115 114 122 126 126 126 124 123 122 124 127 133 142 99 91 109 108 112 106 95 90 87 88 90 85 91 95 96 99 102 104 105 105 105 100 108 108 106 105 111 110 111 109 105 106 113 113 111 122 124 132 127 114 120 120 114 95 128 127 127 149 150 158 190 192 185 188 102 105 106 104 116 116 115 112 118 129 113 106 110 77 52 54 84 106 108 103 104 106 109 112 115 118 115 123 128 125 127 127 128 122 128 134 138 141 99 89 89 75 52 47 48 52 58 62 58 56 66 70 78 81 81 87 91 95 98 90 103 102 96 93 102 107 103 104 105 102 98 105 99 85 64 24 19 50 77 86 71 99 134 135 137 165 159 167 196 189 204 160 106 106 105 103 116 116 114 114 112 127 117 115 113 81 72 59 77 102 108 103 103 106 109 112 114 118 119 125 128 125 127 128 133 129 132 139 148 148 130 91 39 26 13 28 44 55 67 74 73 75 71 76 81 78 68 67 56 67 71 68 80 83 83 79 89 89 101 86 99 109 116 132 130 96 44 12 14 15 19 73 95 114 138 136 145 171 170 179 200 188 204 129 102 102 105 105 115 114 116 115 116 114 167 117 115 100 77 60 75 98 105 104 102 106 107 110 118 119 121 124 129 127 126 132 137 135 134 141 145 146 140 111 39 20 18 34 45 58 87 63 82 103 86 103 132 119 100 106 119 113 106 122 141 134 142 132 141 159 151 143 144 179 135 159 196 150 88 13 22 26 43 100 122 133 135 139 157 175 175 179 197 191 225 138 105 112 104 105 116 117 116 115 113 118 150 105 107 101 86 61 71 95 104 103 104 106 107 110 117 120 123 124 129 129 126 131 136 141 139 140 148 146 149 132 119 56 37 20 46 54 113 93 102 145 97 127 179 163 109 158 181 121 112 175 198 199 155 140 175 210 216 150 181 230 143 207 232 177 97 40 49 68 96 135 142 140 139 147 168 182 181 198 205 192 215 127 97 109 107 105 114 115 115 117 119 107 174 121 111 106 102 64 81 84 109 103 102 108 107 109 116 120 122 125 129 133 128 129 135 143 142 139 150 150 145 142 150 122 90 62 46 36 102 103 120 160 126 147 185 193 139 172 193 160 138 195 204 206 195 148 202 210 228 179 212 229 178 214 233 178 54 67 98 114 151 152 145 138 140 153 172 179 181 195 193 198 184 138 102 98 102 105 115 114 112 113 124 38 50 104 107 118 84 70 73 82 103 106 104 106 110 111 115 120 122 126 128 132 131 130 135 141 143 140 147 154 145 148 154 154 141 107 88 67 80 78 102 149 145 159 186 189 167 181 196 184 156 198 201 202 201 169 203 209 220 204 217 222 222 215 210 146 96 115 106 158 162 164 149 139 145 161 180 179 191 199 199 204 117 171 119 106 104 105 115 116 115 120 120 16 57 69 112 104 69 63 70 82 92 107 104 107 109 107 113 117 121 126 130 132 134 129 134 140 143 144 151 149 143 143 154 161 153 148 130 104 110 114 100 113 69 146 179 180 163 180 192 190 175 195 196 195 192 189 196 200 209 205 198 224 207 221 165 140 197 201 183 162 171 164 153 142 151 164 184 179 196 197 196 194 152 107 109 104 104 106 116 114 115 114 115 12 36 72 105 93 67 55 57 80 87 105 105 107 108 109 110 115 119 125 130 132 136 129 133 138 142 145 152 157 149 148 156 160 147 153 145 137 116 116 115 122 91 106 159 152 63 168 178 186 153 179 183 177 196 174 184 191 200 177 173 184 140 187 185 228 223 225 220 174 170 172 158 143 151 167 181 187 198 196 198 153 157 136 122 106 96 104 115 117 116 116 116 25 87 70 88 68 64 45 48 82 84 101 104 106 107 107 110 115 119 124 128 131 137 133 133 135 139 140 147 155 154 151 151 154 151 153 143 136 131 123 123 127 130 127 128 134 115 111 101 85 78 129 143 136 133 119 146 165 165 158 157 170 162 178 231 243 243 228 220 204 183 171 162 145 156 177 183 193 193 198 187 113 171 168 124 127 104 104 118 116 117 117 118 15 63 163 150 75 55 48 45 74 86 94 102 104 104 106 108 114 115 120 126 129 136 135 134 134 136 138 144 159 159 148 151 149 149 151 144 134 134 131 124 124 125 117 133 131 136 144 141 139 137 136 132 140 151 139 153 154 161 164 161 163 194 209 218 229 212 214 218 213 201 176 158 151 172 185 182 194 185 209 132 132 173 135 100 101 102 104 117 117 117 112 114 118 119 173 173 80 45 52 41 68 85 91 102 102 102 105 109 111 114 118 122 126 131 134 137 133 132 136 141 152 163 154 153 151 148 149 146 144 138 130 127 119 111 117 115 119 131 133 135 144 153 148 154 155 159 151 151 153 155 156 155 164 170 187 179 201 207 215 216 208 205 187 154 153 176 186 191 187 199 189 106 126 210 218 93 105 103 104 116 117 116 114 115 114 130 141 195 98 52 59 44 61 82 91 96 98 101 104 105 109 112 116 120 124 131 133 137 135 129 134 134 148 158 159 149 149 149 148 146 150 141 130 125 127 122 117 107 112 112 114 117 116 118 129 132 135 142 137 132 134 134 128 130 120 149 150 166 195 212 215 208 204 202 195 156 168 182 183 197 181 210 128 100 112 212 223 148 99 103 102 116 116 117 116 115 122 117 153 227 107 79 50 43 62 79 84 93 96 100 101 105 107 111 114 118 123 126 131 133 135 127 133 132 138 151 164 147 150 148 144 146 148 143 135 129 129 131 130 123 118 115 114 115 118 117 121 120 122 128 123 123 123 122 118 125 135 128 152 179 204 209 212 198 201 205 194 162 178 184 186 194 204 182 100 105 110 198 181 197 105 106 100 116 115 113 116 118 111 132 109 220 113 92 66 48 60 77 82 90 96 99 100 103 106 109 112 117 121 124 128 132 136 128 131 133 130 146 162 155 148 145 148 147 148 146 140 133 129 130 135 134 133 130 126 115 109 108 109 114 113 112 116 119 118 117 112 119 128 148 182 193 203 206 206 203 202 204 185 170 183 190 179 198 197 117 103 98 111 226 162 217 109 108 99 115 115 115 116 116 114 113 127 167 168 100 65 56 66 76 82 86 94 96 98 102 102 107 111 116 119 122 126 131 133 129 126 129 128 137 155 155 145 145 147 151 146 145 144 136 131 133 134 135 135 142 139 129 126 125 114 111 110 118 121 121 122 125 133 145 153 168 179 191 197 209 202 204 203 200 189 180 192 185 195 204 150 99 102 105 108 195 144 225 141 106 104 116 116 119 120 115 118 134 129 162 199 98 78 82 58 71 83 87 90 93 96 100 101 103 108 111 116 120 124 128 133 132 126 127 129 133 144 151 145 142 146 150 151 152 145 141 135 134 135 134 133 136 137 136 141 136 130 128 128 126 128 131 137 141 139 148 162 170 172 190 203 204 200 203 206 201 191 189 191 188 196 185 105 104 101 103 105 209 101 209 198 99 106 114 115 115 116 118 117 147 100 148 164 100 83 65 69 66 78 87 89 90 92 96 98 101 107 108 111 116 119 124 128 129 129 129 130 131 135 144 144 141 143 148 154 154 152 148 139 138 137 135 130 132 135 137 136 138 136 139 137 132 135 138 141 141 144 145 155 163 177 188 197 199 201 206 205 201 191 195 197 191 202 117 106 99 104 102 99 210 131 155 230 121 103 117 116 117 119 118 116 65 131 121 146 153 86 77 65 69 78 88 87 87 89 93 97 97 99 104 107 111 115 120 121 125 129 132 132 133 133 135 138 142 141 144 150 156 159 155 144 139 140 137 139 138 138 137 137 138 136 136 137 133 133 137 143 140 142 143 156 171 178 187 195 200 208 213 207 201 200 197 191 201 145 104 98 105 101 104 107 203 126 132 247 140 99 116 116 117 116 119 121 75 90 116 150 145 96 83 64 72 80 89 89 88 91 92 94 95 96 100 103 107 110 112 117 121 125 127 130 131 131 134 135 139 139 140 146 153 162 164 153 149 145 144 143 146 145 146 144 146 144 144 142 136 137 143 147 145 152 159 168 183 187 197 204 209 215 210 207 199 198 197 200 161 98 109 99 109 104 99 96 206 181 109 203 200 101 116 116 114 126 113 109 66 115 109 171 134 95 89 78 71 78 90 88 90 91 91 94 93 92 96 100 102 106 109 113 118 121 124 127 129 126 130 131 135 138 137 142 148 153 166 167 160 156 153 152 156 157 157 152 154 158 156 157 153 157 157 159 161 163 171 177 195 200 209 211 210 214 210 206 204 200 195 184 106 107 102 101 103 102 106 106 177 226 111 169 234 177 119 118 120 118 113 79 64 99 116 112 164 112 97 83 70 81 89 90 91 90 92 94 93 89 93 93 98 103 104 109 113 117 120 123 126 125 127 129 126 133 132 138 146 150 159 168 168 166 160 155 161 168 170 167 171 177 174 173 174 176 174 175 176 177 192 199 206 210 214 219 215 214 211 205 203 196 201 108 101 104 102 101 105 105 100 100 196 131 106 161 230 231 115 117 116 115 118 135 62 80 113 114 156 113 93 73 81 74 88 96 96 91 90 94 92 95 91 91 94 98 99 105 107 111 116 121 123 121 122 124 123 127 130 132 137 147 154 162 162 166 166 170 165 168 167 171 176 173 174 175 180 180 181 181 186 186 194 206 211 217 222 222 217 213 211 209 205 199 133 100 107 101 103 102 105 105 109 101 170 246 122 116 210 207 117 117 118 118 123 75 52 103 118 120 83 139 92 80 78 80 86 93 99 94 91 97 91 96 94 92 90 93 94 98 104 108 111 113 118 120 119 119 119 121 124 126 131 142 148 155 159 158 161 167 168 171 171 171 172 174 176 180 175 177 177 181 186 187 195 208 209 218 222 224 217 217 208 205 202 148 102 108 101 104 105 103 103 107 112 107 176 161 105 107 180 222 117 119 120 119 117 94 62 116 107 127 155 113 97 78 68 80 82 91 94 102 93 96 93 94 97 93 88 90 94 98 95 104 108 110 114 117 116 113 116 114 122 122 126 131 144 150 156 156 156 158 160 163 162 166 173 178 177 175 177 177 176 178 183 186 188 200 211 218 216 219 212 209 206 195 155 105 104 102 107 103 104 106 105 107 101 106 156 231 107 95 185 227 119 106 120 120 97 63 74 96 113 119 119 73 105 81 90 80 84 85 94 104 100 96 94 94 99 98 96 85 87 93 97 99 106 104 110 112 112 112 112 116 116 118 121 126 134 139 150 154 154 150 147 150 154 163 165 172 176 174 172 171 172 172 175 177 180 195 203 203 207 217 213 207 198 160 102 100 102 106 106 106 106 106 108 106 105 108 155 170 106 110 143 204 115 118 112 118 100 133 71 74 123 111 125 97 111 89 78 76 82 86 93 102 107 99 92 97 98 99 98 96 86 83 89 96 101 102 105 109 111 112 112 113 114 114 115 120 127 129 143 150 153 147 151 148 148 155 160 160 165 166 162 162 163 166 170 170 176 180 190 194 201 209 207 210 165 109 108 105 104 106 107 107 108 107 107 108 107 103 158 215 110 111 107 193 116 117 124 115 88 114 52 79 122 115 113 163 106 93 87 76 84 86 90 97 106 107 100 98 99 102 101 101 97 87 75 84 93 100 106 103 105 110 110 112 112 110 111 114 123 122 127 139 149 151 149 146 146 148 155 152 157 160 158 156 155 160 160 170 166 173 190 193 199 205 211 144 93 106 105 105 107 107 107 108 108 108 107 108 109 105 155 227 136 104 91 175 118 118 119 113 106 51 50 107 121 122 114 71 63 102 84 96 80 84 90 93 104 107 106 107 101 100 103 103 99 96 90 79 70 79 94 107 107 104 110 111 112 109 108 112 112 119 122 128 138 145 144 145 149 147 150 150 151 154 154 153 153 155 154 161 163 169 180 184 201 200 143 98 108 104 104 106 107 108 106 107 108 107 107 107 105 110 135 198 132 109 112 151 117 116 114 110 123 112 120 120 118 113 119 46 64 108 87 98 86 76 86 94 99 107 111 112 106 100 104 108 103 99 98 91 78 74 64 78 92 105 107 110 113 111 114 115 114 116 118 120 128 134 137 142 143 143 144 147 146 149 145 148 146 148 150 157 154 171 174 184 207 129 105 104 103 100 105 107 108 108 109 110 109 110 112 111 107 112 148 168 104 105 114 133 116 117 117 119 118 116 114 119 110 120 119 79 116 91 90 100 100 79 83 95 99 104 110 118 110 107 105 104 113 108 99 93 95 82 71 65 65 76 85 103 111 114 116 115 115 121 114 118 120 129 127 132 133 139 140 141 141 142 145 145 145 148 150 150 156 169 171 196 132 107 105 102 110 101 109 108 108 109 109 109 109 111 111 109 113 117 151 215 137 109 116 119 117 115 116 111 119 112 114 119 113 122 109 104 172 66 76 96 105 104 78 89 100 103 108 113 120 118 112 106 111 109 109 106 98 91 85 76 67 61 61 72 85 100 104 108 109 116 121 122 119 117 126 124 125 130 134 135 138 138 140 139 137 138 137 141 146 160 172 135 110 108 108 105 104 106 107 109 108 107 108 110 109 109 107 106 114 116 124 214 180 105 107 113 117 117 116 114 116 116 115 117 119 120 91 70 39 57 111 94 96 103 99 76 96 105 108 112 119 122 124 114 114 112 113 109 102 99 93 85 78 73 68 63 65 75 87 89 97 104 101 111 115 117 124 125 130 128 129 132 136 130 133 136 133 144 141 150 164 165 108 108 105 107 105 105 106 107 107 107 109 109 109 110 109 110 108 109 114 124 109 159 163 105 109 111 116 115 115 115 116 116 115 117 118 110 86 78 45 71 97 89 99 102 100 87 84 105 108 116 119 119 123 120 117 116 115 112 109 103 103 93 85 84 77 70 67 68 75 82 90 94 94 92 102 103 113 120 125 129 132 132 134 135 142 145 145 151 180 204 227 115 109 105 106 106 106 106 107 108 108 109 110 111 109 110 108 111 108 108 112 112 108 123 118 98 104 107 116 116 115 116 117 115 116 117 119 103 98 82 75 121 92 119 107 105 108 108 81 98 109 121 119 121 123 125 123 121 118 116 115 108 111 102 98 90 86 81 77 73 73 77 82 88 93 97 100 100 105 109 112 121 129 129 137 147 145 146 172 212 209 179 217 120 102 106 107 106 106 106 108 109 108 109 108 109 110 109 110 113 112 109 108 114 160 147 106 109 113 114