P2
# Generated by OpenCV 4.2.0
92 112
255
13 10 17 17 6 3 14 46 65 64 83 90 77 83 65 85 83 67 64 79 81 71 63 84 93 107 81 78 72 65 65 64 48 32 24 49 78 64 56 74 60 35 44 31 41 49 36 43 36 35 37 29 22 33 55 58 48 48 46 41 47 68 70 64 55 59 79 87 93 126 141 148 126 96 77 48 30 14 7 13 10 3 2 2 5 1 0 0 0 0 0 10 11 9 12 17 28 48 52 55 64 70 67 80 77 75 95 87 78 65 65 78 76 95 105 117 119 90 78 84 78 61 59 45 48 55 68 84 59 47 60 57 43 50 55 55 56 51 48 39 36 38 33 39 42 48 57 58 57 71 74 86 83 81 93 99 93 84 74 93 141 144 138 145 129 101 86 67 43 29 20 12 12 4 1 3 2 0 0 1 0 0 0 2 13 9 13 26 36 46 43 42 53 55 57 64 62 60 49 60 64 66 85 106 95 121 121 106 98 97 74 61 68 72 64 63 65 66 63 49 42 55 49 49 54 56 66 69 62 50 59 56 58 62 69 74 72 74 78 100 95 88 103 112 109 115 125 137 134 135 137 138 154 159 155 154 141 125 112 87 61 50 39 31 20 11 9 1 0 0 0 1 0 0 0 0 4 9 18 22 34 36 27 42 53 51 57 59 66 74 90 90 83 91 94 102 89 95 85 90 89 96 85 85 92 75 66 76 57 59 57 54 53 51 44 62 65 74 77 72 63 73 84 87 97 103 106 109 126 137 132 140 147 145 154 161 165 159 170 167 161 171 175 177 176 171 157 154 150 146 130 109 89 82 73 67 50 45 28 12 4 0 0 1 0 0 0 0 12 16 21 25 28 44 50 54 63 75 92 95 87 97 102 92 104 92 91 91 85 87 93 98 91 94 88 83 79 77 71 56 50 54 60 61 52 61 73 83 89 91 103 113 115 130 140 144 145 151 155 158 164 159 169 172 174 183 187 188 187 191 189 185 188 186 191 191 188 187 180 162 154 142 141 138 133 130 119 108 88 65 43 25 6 2 3 3 4 0 0 0 27 32 38 45 44 46 60 58 69 67 70 91 98 115 129 120 106 91 95 106 112 101 96 90 77 85 83 81 82 84 71 52 47 52 63 72 83 87 91 102 119 136 153 159 167 175 185 184 186 188 190 200 206 190 182 189 193 189 192 192 195 195 196 195 192 195 196 192 193 194 193 186 172 153 138 135 141 141 138 128 123 118 91 65 32 6 2 2 6 4 0 0 33 27 35 29 42 62 76 89 96 102 104 97 102 93 94 97 92 97 109 108 105 78 79 91 96 95 82 82 95 68 54 53 66 86 106 111 123 129 141 152 163 175 183 185 182 181 187 201 206 203 205 211 210 206 208 203 202 192 195 196 199 198 195 193 193 196 195 198 200 198 194 194 191 185 173 155 148 157 152 143 148 148 142 119 77 28 2 0 1 3 2 0 59 61 57 50 45 55 70 72 69 72 82 84 72 85 95 79 70 61 59 59 65 85 95 99 107 98 81 72 70 57 80 101 110 107 121 134 155 155 172 181 182 184 192 199 196 203 207 214 212 215 211 212 212 214 212 208 203 199 194 196 198 199 201 199 200 200 200 201 203 202 196 196 193 194 190 187 181 176 175 173 167 165 166 145 116 68 16 1 0 0 0 7 36 32 47 60 64 68 86 82 93 96 98 98 89 82 80 72 70 81 89 101 100 78 73 83 83 80 91 84 91 102 103 96 109 127 154 173 184 187 194 200 201 206 211 214 214 218 223 222 220 219 216 216 209 210 208 207 204 203 199 199 206 203 202 202 204 203 200 203 204 200 198 198 198 195 195 195 195 193 186 183 184 173 169 166 140 101 47 8 0 0 2 7 33 33 50 52 62 70 62 69 66 66 61 58 63 62 66 67 86 105 83 67 55 64 78 77 81 98 95 83 97 105 100 128 147 163 186 190 192 191 200 208 217 216 222 224 226 224 226 223 218 215 220 222 216 215 218 213 211 209 206 206 206 205 202 204 204 205 198 200 200 200 201 197 200 200 199 200 198 194 190 191 185 183 173 162 146 122 85 27 1 0 2 6 20 25 47 54 51 53 52 68 55 53 48 38 36 27 30 51 50 32 30 40 59 74 82 82 80 60 61 71 101 99 115 151 161 177 190 192 201 208 216 219 218 221 225 225 220 223 223 225 226 227 225 225 224 219 217 217 211 209 210 209 207 206 209 206 204 203 200 200 197 200 200 199 203 200 198 198 198 193 193 190 185 185 178 167 147 132 110 56 6 1 0 1 36 33 46 54 68 64 57 56 50 50 41 52 46 40 43 36 30 44 65 72 94 82 55 49 47 54 85 78 80 111 145 157 173 190 197 210 222 219 224 221 219 223 226 226 226 229 228 225 225 227 225 226 223 220 218 216 213 212 209 208 205 205 208 207 205 204 204 202 202 199 198 200 201 195 195 197 199 194 193 193 188 181 181 172 161 143 117 85 19 1 0 0 34 39 45 65 69 72 79 90 85 79 86 91 97 91 89 97 94 89 73 47 35 31 26 32 80 109 73 89 134 147 153 167 192 202 207 218 222 223 223 221 222 229 234 233 233 231 231 229 226 228 227 227 221 220 216 214 215 209 211 210 207 207 204 203 204 204 206 204 204 202 199 198 200 199 196 198 196 196 192 195 192 184 179 175 165 151 133 106 45 2 0 0 28 29 26 34 53 65 80 75 76 76 69 59 62 62 49 59 63 44 29 32 24 16 26 71 98 63 95 139 135 149 169 188 194 210 215 221 225 224 227 232 229 234 234 230 229 228 227 227 226 225 223 226 220 220 217 213 211 210 210 206 206 206 202 202 203 203 208 203 202 202 197 198 199 199 196 194 193 196 194 195 192 187 182 177 168 158 140 115 65 8 0 1 33 46 45 29 37 34 32 37 53 50 56 50 44 59 72 71 68 50 32 14 13 17 48 62 53 86 133 118 137 154 168 193 205 215 218 224 228 234 234 229 229 231 230 230 229 227 225 225 223 225 222 220 219 217 214 215 211 212 210 208 204 205 202 202 203 203 203 200 198 201 198 198 197 196 195 196 196 197 195 196 192 187 181 176 167 158 145 129 84 23 1 0 73 65 71 66 60 54 54 52 47 65 61 64 55 55 63 48 40 36 15 14 24 31 40 44 67 116 127 119 141 160 182 196 206 213 225 226 231 235 236 232 230 229 228 229 228 227 226 227 228 227 226 221 219 220 216 214 210 209 206 205 207 204 201 203 200 205 198 194 198 199 199 198 197 195 193 196 197 200 196 195 195 189 183 173 165 161 148 135 107 38 2 0 58 83 96 88 95 98 88 85 81 74 70 62 60 59 57 55 51 45 35 32 19 20 35 52 81 117 113 129 149 173 193 203 213 221 231 228 231 232 229 229 224 225 223 224 224 222 221 223 225 228 226 221 219 219 218 214 210 204 206 205 204 199 199 198 201 200 196 196 198 198 200 198 196 195 196 199 197 197 196 193 193 188 184 173 164 158 150 137 119 51 3 0 87 89 96 103 91 82 87 106 96 92 84 77 79 70 54 70 64 47 38 26 20 24 63 54 87 109 130 140 147 170 190 205 219 224 230 231 227 225 222 223 224 222 219 223 223 222 223 223 222 223 221 220 221 217 216 214 210 208 207 207 203 205 200 198 195 193 194 199 197 197 199 198 196 195 198 199 197 195 192 188 189 186 179 176 166 156 146 136 124 58 4 0 94 106 94 91 92 95 110 95 104 98 95 106 105 97 85 84 84 77 47 31 31 54 39 47 91 126 131 141 156 184 192 214 225 225 227 227 220 225 224 225 222 223 224 222 221 222 225 226 226 222 223 220 216 215 210 212 210 209 210 205 202 204 202 204 200 198 196 195 189 192 196 194 192 192 195 194 190 192 189 189 189 186 179 175 165 157 147 135 126 73 5 0 79 98 96 72 68 64 86 91 68 82 89 103 82 76 72 79 97 91 59 30 35 31 22 60 96 114 130 144 155 183 202 211 221 223 228 225 226 229 229 229 224 226 225 220 220 221 221 223 227 224 222 222 220 218 216 212 205 209 205 202 203 204 204 203 200 197 196 196 190 187 191 191 191 195 194 191 190 194 195 192 189 188 179 172 164 154 146 140 128 85 9 1 37 62 67 65 57 65 60 65 73 96 94 87 83 69 66 48 66 84 78 62 23 14 32 64 97 119 133 147 175 192 204 214 218 221 230 229 230 231 231 228 225 225 223 224 223 222 217 218 221 222 220 216 219 216 213 209 207 208 202 201 203 204 202 200 200 200 199 200 199 196 196 194 196 196 193 190 191 192 192 191 188 185 176 171 162 158 151 139 129 89 14 3 61 61 64 65 56 60 67 62 50 46 52 50 43 50 74 75 77 85 67 41 21 18 44 73 93 129 158 179 196 202 207 212 219 228 230 230 232 231 226 223 225 224 223 223 224 219 216 220 218 217 211 211 211 204 202 201 198 196 193 193 197 196 199 200 199 199 201 202 196 192 195 195 195 193 193 194 195 194 194 189 182 184 176 171 164 157 147 137 135 96 17 2 69 58 50 44 52 44 46 49 53 59 61 61 76 80 71 69 65 58 53 51 36 57 63 87 125 145 152 171 185 197 207 216 225 225 227 229 228 229 227 227 227 225 224 224 222 221 226 223 221 220 222 220 216 213 210 204 195 200 196 195 196 196 193 198 196 201 201 198 194 192 192 193 193 191 194 194 196 194 190 186 184 183 174 170 163 157 150 138 138 105 18 0 45 46 49 50 32 23 22 13 20 19 18 29 45 60 80 81 73 89 85 57 63 82 90 118 132 140 160 181 196 203 209 220 223 226 226 225 225 225 227 226 222 224 224 220 220 219 220 216 217 216 216 216 216 214 209 207 206 200 200 200 196 197 195 191 191 199 201 198 195 193 191 192 194 191 192 194 192 190 188 187 181 181 176 170 162 157 152 140 135 107 21 2 77 69 45 42 60 52 42 37 39 30 35 43 42 56 56 40 49 64 96 100 87 86 101 120 133 159 182 197 205 211 219 221 221 218 229 224 224 223 220 220 222 222 220 220 220 220 221 213 218 217 215 214 213 214 213 208 204 202 208 197 196 195 193 192 191 193 196 197 194 193 194 193 191 191 195 195 191 188 188 185 182 179 174 169 163 158 151 140 134 109 22 3 64 62 57 51 48 61 63 59 60 64 61 59 57 61 66 84 88 86 85 94 98 112 134 162 181 192 201 209 211 213 218 221 222 220 221 223 223 221 222 221 222 219 220 219 217 217 217 214 218 217 215 216 211 208 209 206 205 203 197 189 192 193 194 195 198 198 193 189 190 190 191 192 192 193 192 191 190 188 185 185 177 176 173 168 163 151 144 136 128 108 28 3 46 56 51 64 58 62 74 71 66 53 41 49 65 68 69 68 84 101 118 132 157 174 183 194 202 208 212 213 214 215 217 219 219 219 219 220 221 221 221 223 220 220 221 216 218 218 217 218 211 210 216 215 211 210 207 203 200 192 191 191 194 198 199 197 197 194 195 194 192 194 189 191 192 190 190 189 185 185 185 181 180 178 176 170 163 155 146 140 131 106 24 3 61 51 64 44 35 38 48 44 42 49 51 61 70 67 77 101 122 146 164 178 200 207 212 216 214 217 220 216 217 219 213 217 221 219 218 220 218 217 216 215 219 217 217 215 217 219 217 215 218 214 212 215 213 209 208 207 200 197 194 192 195 195 196 197 194 197 192 190 191 190 187 190 190 190 189 191 188 184 187 186 183 179 176 171 160 153 147 138 130 106 22 3 42 60 60 54 54 45 46 37 30 39 55 73 82 116 138 159 169 181 191 207 211 211 216 220 217 217 216 217 219 218 205 212 217 216 217 219 220 215 213 218 216 210 213 211 215 214 215 216 215 217 214 212 209 211 209 204 201 201 198 195 195 196 194 194 196 195 192 192 196 192 190 191 192 193 195 189 187 186 185 181 179 178 176 172 162 153 145 138 129 104 19 1 61 48 56 69 72 77 59 44 45 60 76 98 120 147 177 194 200 203 211 214 217 218 219 222 214 218 220 221 221 219 204 205 213 215 214 217 220 212 214 218 218 215 215 215 217 215 217 218 216 215 213 213 215 210 210 204 200 201 199 196 194 193 192 194 190 188 188 189 192 187 190 191 191 190 189 187 184 186 187 185 178 179 179 170 164 156 146 137 134 96 6 2 116 85 84 103 114 91 68 63 72 83 109 121 130 181 206 208 210 217 219 221 222 222 218 221 220 221 218 218 224 222 212 210 214 218 216 214 215 220 220 219 221 216 215 217 214 213 216 216 216 215 212 215 214 212 207 205 201 200 200 200 195 190 192 190 196 190 187 189 188 188 189 190 192 185 185 187 184 183 183 184 179 180 176 168 162 155 145 137 136 94 1 2 124 99 98 105 114 96 92 92 83 94 99 128 179 200 213 212 219 225 220 224 223 218 218 220 220 221 222 221 224 223 220 214 219 220 221 223 219 224 221 217 219 212 200 212 215 212 210 210 211 213 209 212 209 211 204 201 199 197 196 194 194 193 194 195 193 188 188 188 188 188 192 192 189 187 189 190 184 184 185 183 182 177 175 167 162 157 146 139 135 92 0 4 119 101 91 106 100 102 104 81 82 94 124 159 181 210 216 218 226 223 222 224 223 219 219 224 223 223 227 223 223 225 223 224 222 221 225 224 225 221 217 212 215 217 213 215 215 212 210 206 205 208 202 205 209 208 203 199 199 193 190 193 192 191 193 194 190 188 188 185 186 189 192 191 191 186 189 184 183 186 183 184 180 179 178 171 164 155 145 139 140 86 0 8 122 114 100 88 88 91 77 88 87 114 145 163 195 215 220 225 224 220 222 225 226 223 223 225 224 226 230 227 225 228 232 233 229 226 226 225 212 219 221 217 218 218 217 218 213 209 201 204 202 203 202 203 202 204 200 195 197 196 192 192 189 191 190 187 188 184 183 184 187 189 190 190 188 186 187 183 183 185 183 184 180 177 175 169 163 152 146 138 141 84 0 11 108 115 115 98 81 82 78 72 93 121 136 177 205 217 227 227 226 224 225 226 226 227 226 220 223 226 227 227 223 227 238 240 235 238 237 226 216 207 195 191 191 192 203 208 201 206 201 200 201 202 196 194 192 197 193 193 193 193 189 187 191 192 191 186 184 185 182 181 187 187 188 188 185 185 184 184 183 184 180 181 176 177 173 163 160 154 149 140 144 85 0 15 108 106 100 92 91 88 75 73 82 112 142 188 203 223 228 229 228 227 226 227 229 229 227 221 222 225 228 225 230 231 225 220 217 209 210 215 194 170 159 169 170 154 154 160 164 165 164 172 185 187 190 187 192 194 191 191 190 185 188 187 189 190 189 186 183 182 177 179 183 187 187 187 180 181 185 183 182 181 179 176 174 176 173 160 155 151 146 141 146 90 0 21 109 101 83 97 121 115 79 52 78 114 154 192 212 226 228 230 230 229 228 227 227 229 228 225 222 226 227 227 233 227 196 172 177 177 169 164 171 166 148 126 120 129 112 103 108 116 108 116 136 143 142 160 183 183 185 181 174 177 175 175 178 182 187 185 178 177 176 178 181 183 184 184 179 181 181 179 181 177 177 175 174 169 165 161 154 143 141 138 136 103 4 21 120 110 117 123 127 121 62 51 84 117 163 192 218 230 228 231 229 230 228 230 228 228 226 225 227 228 226 227 229 223 215 196 167 170 173 177 147 131 120 98 103 114 106 97 81 74 79 71 68 82 75 90 93 108 135 150 146 147 156 150 165 172 177 179 173 177 177 178 180 183 182 180 176 177 176 176 178 175 172 179 173 168 160 151 142 132 121 106 94 71 16 19 116 121 125 135 141 99 53 55 73 128 168 201 221 231 232 232 230 230 230 231 230 228 228 225 224 226 230 230 223 207 198 194 191 168 157 163 154 139 125 115 117 109 98 80 62 55 54 40 46 40 42 44 32 34 37 61 97 101 113 129 147 158 162 178 172 174 179 176 176 178 180 177 173 177 175 171 167 158 157 157 141 133 130 119 91 74 53 46 33 46 23 23 134 141 125 136 105 68 67 57 80 134 176 208 222 230 229 231 231 232 232 231 229 230 229 227 227 226 225 227 226 219 216 204 190 170 158 155 158 165 168 160 140 122 104 88 67 51 29 23 34 32 29 38 29 34 34 47 57 77 84 98 114 138 149 170 174 171 174 175 171 173 173 169 167 169 160 146 126 119 114 93 66 62 47 28 21 23 21 17 21 39 15 22 124 126 94 86 84 92 53 62 107 143 185 211 224 229 228 231 231 231 232 229 228 228 228 223 224 228 227 215 215 220 217 210 205 189 187 189 183 177 180 178 176 167 159 156 145 132 115 93 70 56 50 59 61 39 54 68 60 65 89 73 92 124 139 154 167 168 173 174 171 168 168 161 158 152 135 104 81 62 55 40 26 18 15 14 13 14 12 25 43 33 23 23 93 88 80 117 111 54 55 87 124 160 193 205 220 230 231 231 233 233 230 230 229 229 227 225 223 222 220 213 205 203 198 197 197 193 193 192 184 184 183 177 170 168 168 166 160 157 151 148 144 122 112 102 95 85 78 85 81 72 77 80 92 122 132 155 170 170 172 169 169 167 166 157 149 134 98 71 49 28 17 11 10 12 14 15 23 24 36 64 59 50 34 30 67 75 89 96 62 70 99 113 125 169 193 210 224 225 231 233 234 231 229 230 230 229 228 225 222 216 213 211 203 196 185 180 184 189 189 189 183 179 172 164 162 149 136 116 115 121 128 117 120 123 146 139 129 116 105 105 105 95 91 92 102 118 140 159 171 171 172 170 167 162 159 151 133 104 76 59 41 25 23 21 24 33 44 63 86 100 106 104 98 69 35 32 93 82 62 74 112 121 113 106 131 173 200 214 223 226 225 231 233 231 232 230 230 228 225 221 216 214 215 204 201 195 183 180 184 190 189 181 178 171 151 116 95 67 56 34 23 25 24 20 30 49 84 122 144 142 134 119 114 114 117 122 129 136 146 163 171 172 169 167 162 157 150 139 117 96 76 74 70 69 66 89 103 115 123 127 134 133 133 125 111 83 34 34 72 60 104 148 153 131 128 121 139 178 199 211 221 226 226 229 229 231 233 231 232 231 228 224 215 209 206 203 206 199 184 196 207 199 183 162 138 97 63 27 23 8 7 6 0 0 0 0 0 5 7 37 94 137 144 133 125 118 127 135 142 146 154 163 171 165 163 165 161 151 142 118 96 84 74 65 59 40 34 51 62 85 99 105 113 122 117 120 116 79 30 34 71 112 152 156 146 148 136 135 153 181 198 207 217 225 226 226 229 230 232 233 231 229 227 224 216 209 205 200 203 201 202 206 204 191 142 88 71 42 15 3 0 0 18 6 2 46 101 69 35 14 3 26 48 105 137 131 120 121 125 134 151 161 170 176 172 175 178 166 155 142 118 85 51 27 6 0 0 0 1 0 0 2 7 19 48 72 73 100 115 59 25 32 167 162 161 174 182 167 145 145 165 186 198 209 215 219 222 224 226 230 231 233 231 230 228 225 218 211 208 208 204 191 187 190 178 155 123 78 21 0 0 0 8 3 40 23 14 120 173 144 142 127 70 7 44 85 115 121 113 121 135 145 158 169 175 180 181 183 176 165 149 124 78 28 0 6 52 53 19 43 109 60 7 0 0 0 3 16 49 91 102 43 32 31 199 181 176 191 191 182 162 161 174 193 196 212 217 215 218 223 226 229 231 230 232 230 229 227 223 220 213 208 207 202 190 182 171 156 106 57 27 32 54 44 44 26 36 46 48 160 197 171 160 161 125 58 27 79 92 108 111 134 160 163 162 175 183 186 187 180 176 167 145 77 8 2 12 14 55 46 25 50 143 146 102 35 0 0 0 7 52 64 79 36 35 33 151 172 182 204 205 195 180 176 185 199 198 211 215 211 214 219 221 225 229 232 233 232 230 229 226 227 226 221 214 206 198 185 169 156 139 122 118 119 118 98 78 88 83 57 84 181 192 170 147 127 104 110 78 61 104 114 126 156 176 172 171 181 188 193 192 188 183 170 125 46 10 6 28 22 31 54 28 86 163 164 126 67 12 1 0 0 0 54 95 37 32 34 148 155 180 209 209 199 194 191 196 200 206 212 210 213 213 215 217 221 228 231 233 232 231 227 225 225 227 227 225 225 222 218 211 206 194 180 171 176 161 153 146 147 113 81 116 99 104 113 71 69 83 85 97 61 123 162 182 173 181 182 177 184 194 200 199 194 187 175 99 29 35 36 47 52 60 50 43 86 105 99 66 70 51 35 19 28 43 90 125 50 33 34 208 199 193 207 207 199 200 201 202 202 207 211 204 211 212 216 217 221 227 229 233 232 231 225 224 227 225 226 225 224 222 221 217 213 216 208 201 193 189 185 175 166 152 133 145 129 136 121 103 98 107 101 112 123 158 179 192 177 181 185 180 188 197 204 204 198 191 176 116 50 60 85 100 102 108 109 123 103 90 107 104 118 119 84 80 94 119 137 147 64 29 37 216 214 204 200 199 199 202 205 206 206 207 210 205 204 212 213 215 219 223 227 232 232 229 231 228 225 224 224 224 222 221 219 213 206 206 202 202 200 189 181 168 168 162 161 166 159 158 149 145 138 131 125 136 155 165 177 181 177 176 182 186 191 198 206 207 202 194 176 145 139 125 108 105 132 150 149 160 163 165 154 150 134 130 113 133 147 150 155 160 83 24 39 211 207 195 187 189 198 206 208 208 211 208 212 208 203 211 213 219 219 220 226 229 225 231 229 226 224 226 221 223 219 217 215 211 208 208 202 199 192 186 179 175 167 157 154 155 149 144 139 136 129 130 137 141 148 164 178 183 183 186 187 189 193 200 210 209 205 198 182 153 143 137 123 120 136 142 142 149 148 148 144 137 132 124 131 146 159 160 156 162 104 29 38 211 205 201 196 191 197 208 212 213 215 212 211 207 206 206 214 217 217 218 222 224 227 229 227 226 223 220 220 220 215 210 211 211 208 203 200 201 198 188 179 174 168 163 157 151 148 145 140 136 135 145 151 148 162 180 187 196 195 194 193 192 197 203 213 213 205 201 190 162 143 143 132 126 134 131 131 130 137 138 138 138 136 130 139 156 164 166 161 163 128 38 38 176 190 206 205 198 195 209 213 214 219 214 210 206 207 206 211 217 217 216 215 224 224 226 228 225 223 220 221 218 219 214 208 207 203 200 195 190 184 180 175 175 170 168 164 162 163 162 161 162 171 170 171 171 180 186 198 196 199 201 195 192 197 202 211 207 203 203 197 171 150 153 156 145 137 143 143 142 148 146 144 144 139 141 158 171 171 170 165 159 144 48 39 207 166 197 220 202 197 211 215 214 221 219 212 211 208 210 212 218 219 216 212 223 223 226 227 227 223 220 221 222 217 217 215 217 214 214 214 211 200 200 198 193 192 188 184 181 181 181 181 181 180 183 185 187 188 192 197 195 201 199 195 196 197 204 214 209 204 203 196 173 158 155 159 160 166 170 170 167 161 159 154 151 152 162 174 176 169 163 160 152 153 70 36 146 156 204 220 196 186 212 214 215 219 220 215 211 208 211 213 216 218 217 216 218 222 223 224 227 223 221 224 226 224 222 222 222 217 213 213 206 194 197 202 204 200 196 191 190 188 186 184 184 186 190 194 197 198 198 200 201 201 198 198 201 205 205 212 215 207 203 199 175 158 162 161 166 181 188 189 190 192 191 189 191 192 191 191 192 180 169 161 151 152 80 32 179 200 209 205 171 165 211 217 215 217 219 217 212 209 210 211 216 215 216 217 217 219 219 219 225 226 223 224 225 225 225 225 221 220 217 215 209 203 203 202 206 207 205 198 196 195 190 190 188 191 196 200 200 201 200 201 202 201 201 200 204 207 210 214 215 208 206 201 182 157 159 164 169 187 190 192 194 196 197 194 191 191 190 190 189 186 172 162 154 150 78 29 205 207 200 170 109 148 209 214 213 220 220 217 216 210 211 212 217 218 216 219 218 218 222 225 226 226 226 226 222 223 226 223 224 222 220 219 219 202 202 209 205 207 209 205 201 201 198 196 199 200 199 200 202 202 201 202 202 203 203 205 206 209 209 214 215 211 209 202 188 162 156 164 169 185 193 195 193 196 195 193 195 196 194 188 184 179 168 163 151 148 86 32 107 107 95 93 110 146 202 211 212 220 223 219 216 213 211 211 216 216 215 218 220 219 220 225 222 222 225 224 223 222 223 223 223 223 220 221 214 208 213 212 203 206 208 211 205 206 206 204 203 202 206 206 204 205 203 203 204 208 207 209 210 209 210 212 217 215 208 203 192 169 158 165 172 184 193 196 197 200 199 197 197 195 193 187 179 173 168 161 150 146 91 36 0 4 15 88 135 144 194 211 213 221 222 220 219 216 213 212 212 212 212 214 220 221 220 221 223 223 221 223 223 223 224 223 222 226 224 222 217 213 210 208 204 206 206 204 206 209 208 208 209 206 208 207 206 208 209 209 210 211 211 209 211 211 212 216 220 217 208 203 196 175 161 166 171 185 193 196 198 202 203 202 199 195 192 186 182 173 163 158 148 145 83 34 1 13 20 79 139 151 186 209 215 221 221 221 221 220 218 216 213 209 211 212 219 218 220 221 218 219 222 223 221 223 225 224 226 226 226 222 219 211 210 211 206 204 205 205 210 208 206 208 209 210 207 205 204 209 212 216 215 209 214 212 208 211 213 217 220 217 210 201 198 182 162 166 171 182 195 195 197 201 201 199 197 194 191 183 183 175 162 157 149 141 80 35 10 15 10 60 141 163 186 210 214 220 223 221 223 223 220 218 213 207 208 212 216 214 215 217 213 217 220 222 216 220 222 222 222 221 225 222 218 213 214 210 209 205 205 207 207 203 210 210 210 208 207 205 201 206 211 213 214 209 214 215 214 213 214 221 222 217 210 203 200 185 162 163 171 177 191 195 196 199 198 199 196 191 190 184 180 178 166 156 150 142 74 35 2 19 3 53 152 177 185 209 213 218 222 222 222 224 221 219 214 208 208 210 213 213 213 212 211 216 216 217 215 215 217 219 214 221 222 219 216 217 214 209 205 205 203 204 204 204 210 212 205 202 199 197 189 187 189 195 203 204 208 215 217 218 219 221 222 217 212 207 200 187 165 158 163 170 188 192 193 196 197 197 193 189 186 179 168 175 168 156 145 140 74 35 0 33 9 40 155 183 186 203 215 219 221 221 224 225 221 216 215 211 206 206 207 209 211 210 210 205 210 211 210 215 213 211 212 214 210 209 213 214 206 200 200 202 199 201 203 204 203 202 193 193 185 177 164 159 169 185 195 204 209 212 217 225 224 222 222 217 212 205 200 190 173 150 148 160 173 188 191 191 194 190 189 189 182 179 171 171 165 152 146 140 68 38 10 13 20 21 133 183 191 202 214 217 220 219 222 225 222 219 217 209 207 206 203 199 203 205 205 202 205 207 209 210 208 202 202 198 200 205 201 191 188 192 192 197 195 194 195 191 189 185 178 173 163 144 138 156 175 191 200 200 202 208 223 231 224 222 219 215 213 205 201 192 179 151 139 148 160 178 184 188 183 185 185 182 177 177 169 166 160 151 145 132 63 43 8 0 23 45 105 180 195 199 212 217 217 221 221 224 222 218 216 211 207 205 202 196 196 203 202 204 203 205 203 205 203 201 196 196 197 198 193 182 183 183 184 186 186 185 184 185 180 171 163 143 128 125 144 163 187 202 212 210 216 220 228 231 223 221 217 214 210 203 199 195 184 165 137 135 145 162 178 176 178 179 180 173 175 174 169 161 155 146 141 123 47 42 0 0 3 40 91 173 198 198 209 217 217 221 222 224 221 220 217 210 210 203 200 197 198 199 199 199 199 200 199 197 198 194 189 193 193 188 184 184 183 185 183 179 180 179 179 173 166 152 133 124 128 143 156 174 196 205 216 220 228 229 228 232 229 225 221 216 210 204 202 195 187 173 148 128 132 142 163 170 172 173 172 169 172 171 163 154 150 142 138 108 39 41 0 3 0 8 71 162 194 199 204 216 218 220 220 221 222 216 212 214 210 205 202 195 196 195 195 196 193 195 194 189 191 190 189 188 185 181 180 181 179 177 177 176 173 170 170 156 142 128 132 150 164 156 153 182 199 204 214 222 228 228 227 230 230 226 221 217 211 205 202 194 187 175 158 131 129 127 142 161 164 168 164 166 165 162 158 153 147 138 133 86 37 44 0 1 0 7 65 157 189 201 202 214 220 220 221 221 218 216 211 213 211 207 201 196 192 190 189 192 191 191 189 185 184 183 178 180 179 174 174 173 173 170 171 169 167 160 149 132 129 145 165 181 185 173 148 170 193 202 210 218 224 224 223 226 228 231 224 215 213 207 202 194 187 172 158 139 132 122 124 144 158 160 159 160 157 155 153 147 138 130 124 59 36 44 0 0 0 12 42 146 188 204 202 210 218 221 221 222 220 218 219 215 210 209 202 196 193 187 187 189 185 183 180 182 177 179 178 175 168 169 169 168 163 165 162 157 152 141 126 128 152 177 192 189 191 190 164 146 170 194 199 203 216 216 219 221 222 226 225 216 206 199 199 191 183 166 152 141 137 123 115 126 146 152 154 153 155 151 142 139 130 127 101 34 38 46 0 0 0 16 40 122 183 204 204 206 217 221 220 223 221 218 218 216 213 207 203 197 192 183 182 182 177 170 170 170 172 172 171 170 166 165 161 158 157 158 153 144 132 124 136 159 180 192 195 195 198 198 191 165 143 147 166 186 199 205 204 205 211 209 212 212 196 188 190 182 173 158 145 145 139 132 112 110 130 145 146 146 146 143 136 129 124 118 57 34 43 46 0 0 0 9 52 104 179 205 205 203 216 221 223 221 219 217 214 215 213 207 204 204 191 183 185 182 166 165 162 160 163 161 161 160 159 157 154 157 153 149 140 123 122 146 165 181 189 190 195 198 196 198 203 200 182 154 128 118 130 155 182 185 193 195 196 195 191 186 188 176 153 139 146 148 141 132 122 100 109 129 140 140 137 135 125 119 118 83 30 38 44 51 0 1 0 3 43 91 172 205 206 203 213 219 221 220 221 217 212 213 212 209 206 202 196 192 194 182 163 164 162 159 157 155 154 154 156 155 154 149 141 128 119 133 154 164 173 181 186 190 196 196 196 195 199 206 205 200 191 172 142 118 116 145 163 169 178 181 179 177 176 155 125 138 151 144 137 129 125 107 92 110 128 135 129 122 114 114 88 42 34 36 46 52 0 2 2 1 31 77 161 205 206 205 210 218 220 221 221 219 216 214 212 208 205 202 197 197 193 175 167 167 162 160 159 159 158 155 155 152 144 135 125 124 149 156 149 166 178 183 187 193 198 197 198 197 195 197 197 199 195 190 188 175 138 118 141 153 162 164 162 163 149 118 127 152 143 140 134 121 111 111 93 97 114 125 122 117 112 85 35 34 43 45 45 53 2 1 4 0 25 69 139 199 209 205 207 216 218 220 219 217 217 214 211 209 208 203 203 200 195 181 174 174 173 173 169 166 162 159 152 143 137 135 138 160 151 140 156 172 180 185 186 193 197 200 200 201 198 197 192 189 186 182 174 165 161 146 142 148 147 142 141 127 112 124 147 150 147 137 130 119 102 98 98 100 105 116 116 110 76 34 44 41 38 47 50 52 6 2 1 0 14 63 113 186 207 205 203 211 218 217 219 216 216 211 209 213 208 203 206 202 194 181 177 182 186 182 174 167 160 154 147 146 144 144 159 147 130 151 168 170 177 184 185 189 194 201 200 201 201 196 194 189 183 178 169 158 147 140 131 124 114 109 108 107 126 144 147 149 144 134 126 116 95 91 115 111 105 116 111 86 35 30 47 51 43 40 51 54 4 4 2 1 8 69 96 177 207 206 201 205 215 217 216 217 214 212 210 211 211 206 205 203 192 187 183 189 194 186 180 164 158 156 158 155 144 155 143 121 146 163 168 169 170 177 184 192 200 200 204 199 197 198 197 189 185 180 172 162 144 128 129 125 121 115 117 134 145 148 145 142 138 130 123 95 74 104 129 120 115 115 105 46 31 37 35 52 52 44 47 54 1 3 4 3 5 59 96 166 209 208 200 201 208 216 214 215 213 214 210 210 210 208 206 203 194 188 185 192 196 195 184 173 164 165 168 157 149 152 106 100 129 153 164 173 178 183 181 183 196 206 205 201 202 205 201 193 187 184 183 180 167 151 145 145 147 153 150 149 153 153 142 141 132 118 104 79 101 131 134 129 122 119 73 27 36 35 33 51 56 52 51 51 1 4 5 4 6 42 86 146 207 207 203 202 205 213 214 212 213 213 212 210 208 207 204 201 196 192 188 190 195 192 183 178 172 171 175 161 156 139 71 18 34 73 111 120 141 146 142 149 154 163 164 161 167 168 164 153 144 142 142 151 158 163 167 167 163 166 166 155 142 135 130 122 105 84 87 110 139 144 139 138 126 111 33 33 41 39 30 46 57 48 55 59 0 8 9 11 11 34 81 122 196 209 204 198 202 209 213 215 213 211 212 211 210 210 204 201 196 192 190 192 198 196 187 184 181 178 179 167 158 136 82 22 14 53 142 119 76 94 87 87 91 98 103 110 111 117 120 120 115 113 109 105 103 109 121 132 129 116 107 103 96 93 88 73 57 73 123 140 150 146 144 136 134 68 24 38 39 38 39 40 60 43 46 51 0 10 16 17 19 41 83 103 176 211 208 196 199 205 210 214 214 211 212 211 211 208 200 197 195 192 191 191 194 197 190 185 187 180 177 168 158 147 135 95 57 68 160 172 139 173 158 92 85 88 80 85 87 86 90 95 96 91 84 87 90 92 94 89 82 84 85 82 83 79 72 50 61 132 150 148 147 146 142 140 114 25 24 35 43 34 32 38 61 50 45 48 0 9 20 23 27 39 75 91 153 204 210 200 194 198 205 211 211 212 211 206 203 206 203 198 198 197 193 192 194 196 189 187 184 177 175 166 160 154 159 171 135 88 111 108 131 208 204 164 180 193 165 104 68 108 108 72 69 88 84 77 74 77 72 69 70 71 67 66 70 56 37 56 136 155 151 143 145 145 138 137 57 20 28 32 48 31 33 30 56 53 46 49 4 5 20 39 30 48 70 88 135 192 208 206 193 193 198 206 209 211 211 207 203 207 204 199 195 196 194 193 194 193 189 186 181 180 179 170 156 156 169 177 187 139 105 63 87 203 202 184 207 221 219 178 151 207 195 120 115 187 181 143 78 83 132 133 72 89 104 114 86 23 47 120 157 150 145 138 147 145 143 96 21 28 28 30 47 34 33 29 49 56 51 47 4 2 21 41 37 59 74 84 123 166 201 208 199 189 193 199 206 208 212 211 211 207 204 200 195 195 194 194 193 195 191 185 180 177 178 169 158 169 181 179 187 184 143 122 108 141 122 92 211 218 214 206 213 225 215 178 203 221 217 205 135 174 206 189 131 162 160 172 85 40 85 139 154 146 141 145 147 143 129 39 32 27 29 31 43 37 33 34 48 54 48 47 11 4 15 35 47 62 78 84 111 151 186 206 206 189 188 193 202 206 207 209 207 208 206 200 198 197 194 194 194 196 193 187 177 175 178 166 162 177 187 187 181 185 172 138 132 127 92 45 166 230 215 160 202 227 212 194 221 225 220 208 185 213 211 194 174 189 169 163 66 69 100 147 150 142 142 150 140 141 69 24 48 27 31 33 41 40 33 38 42 57 49 47 6 6 17 38 50 63 90 98 107 140 168 198 208 199 184 188 193 201 202 207 206 206 205 198 194 195 195 194 197 193 193 187 183 182 178 164 171 184 188 187 184 180 180 165 140 146 145 118 104 142 116 72 164 216 185 174 225 218 214 200 192 212 205 191 190 182 137 118 64 78 115 151 143 139 150 145 140 99 24 37 44 32 34 33 38 41 32 38 38 55 46 46 8 13 28 44 57 61 98 114 107 135 160 178 201 205 185 182 188 193 200 205 206 203 203 203 198 195 196 193 195 195 191 185 184 182 179 169 173 184 184 185 186 184 180 184 164 143 141 148 133 107 85 88 92 116 93 134 221 215 206 183 189 204 198 158 112 72 39 63 82 77 132 149 141 148 151 140 122 37 28 42 43 33 38 36 35 38 31 34 39 51 41 44 7 14 37 60 64 68 99 121 111 133 157 165 187 204 200 179 181 185 190 200 205 207 207 203 200 196 194 192 195 192 191 188 186 179 176 174 175 185 184 186 187 189 186 184 188 159 136 146 144 156 141 117 93 79 83 88 102 116 108 96 100 112 91 52 32 44 81 100 79 88 147 144 149 157 141 130 67 22 33 41 41 35 40 35 37 38 34 33 40 48 43 45 10 14 46 63 55 75 109 117 111 126 153 172 171 191 204 195 174 182 185 194 198 201 205 202 199 194 192 195 195 189 186 185 184 183 181 177 177 186 190 190 192 189 193 188 186 188 164 135 127 130 152 148 129 116 101 92 79 69 63 64 62 61 62 66 80 94 110 99 67 115 147 145 156 148 132 89 24 31 33 41 37 38 36 32 38 37 34 33 41 47 47 46 21 23 40 58 57 62 102 118 121 117 148 167 174 173 192 202 184 172 181 186 192 195 199 199 199 195 192 194 190 188 185 187 185 184 183 181 177 184 191 193 189 189 190 189 186 188 191 161 123 115 114 124 151 155 139 126 124 116 113 106 107 110 112 110 113 115 108 80 73 140 145 148 155 136 109 33 26 29 34 45 35 37 33 31 32 38 37 31 38 45 43 47 38 38 37 44 61 69 81 103 123 116 139 158 181 177 179 194 200 180 171 179 185 195 197 195 198 196 190 191 190 187 188 190 188 187 186 183 181 183 191 193 191 190 189 192 188 188 188 189 160 125 111 108 123 128 119 125 128 119 121 112 109 115 116 109 104 100 84 62 111 151 143 149 143 117 47 21 28 26 41 38 31 33 30 27 33 38 33 27 37 45 43 48 28 32 37 36 47 60 76 90 99 115 129 157 171 189 180 183 196 194 174 169 178 186 192 192 196 196 190 193 193 190 189 191 189 186 182 185 187 185 189 192 192 192 190 189 186 186 186 189 185 163 131 110 102 100 100 100 101 100 104 99 94 103 98 90 86 83 60 87 144 148 144 145 126 55 18 28 27 33 41 37 36 31 26 28 34 34 29 30 39 42 44 48 23 29 31 37 32 40 56 83 101 111 113 148 167 181 194 183 183 192 189 170 168 179 183 188 194 194 193 190 189 189 187 186 188 188 188 189 190 185 186 192 193 193 191 189 188 188 185 184 186 185 167 142 111 94 95 93 89 93 91 89 95 92 88 87 76 66 89 132 146 148 143 136 65 16 26 27 30 39 41 39 34 29 27 31 35 33 29 26 35 39 43 48 16 56 75 45 33 27 41 57 81 107 121 122 165 176 190 195 187 183 189 186 168 170 178 183 190 189 189 187 187 186 188 185 188 188 188 192 194 191 188 195 194 195 193 190 190 189 185 180 178 177 175 169 152 124 102 92 89 90 87 87 86 84 81 81 85 112 136 140 149 144 140 85 19 23 28 35 36 37 34 36 27 27 27 31 35 29 24 27 36 39 41 45 24 61 107 65 41 39 25 38 55 78 104 127 138 173 182 193 200 189 189 188 184 168 169 177 185 188 188 187 187 187 186 186 190 190 190 191 192 193 191 192 195 195 196 192 187 187 184 180 176 171 166 165 164 156 142 127 113 106 106 108 104 101 106 118 129 135 135 148 149 144 102 26 26 31 35 33 35 40 35 31 31 30 31 33 32 25 25 31 36 41 40 46 52 66 94 90 59 48 42 28 48 62 71 107 128 155 183 183 196 201 194 189 190 180 167 172 177 183 187 186 185 185 185 186 186 189 191 191 192 194 196 193 193 195 196 195 187 185 185 179 177 174 167 160 157 150 148 146 142 136 133 134 127 127 130 130 128 131 143 155 152 120 34 26 32 31 30 34 38 35 31 33 31 31 35 29 25 27 28 33 37 40 43 48 66 95 85 84 92 75 61 47 32 53 62 77 112 118 175 186 187 196 201 196 190 189 182 166 167 174 184 184 183 181 184 181 182 187 188 192 194 196 196 196 195 197 197 194 189 188 189 184 177 174 170 166 158 152 150 148 147 137 134 132 132 132 132 133 136 141 156 158 139 51 19 32 30 30 41 35 32 31 33 33 36 38 28 25 27 27 29 34 37 39 47 51 80 107 95 84 91 92 90 69 46 39 57 61 88 103 126 188 192 192 194 200 197 191 191 178 165 164 171 179 181 182 183 183 182 185 187 190 196 196 197 195 196 200 200 199 196 193 191 189 183 180 173 169 167 164 160 156 150 142 139 142 143 146 144 145 144 155 163 156 90 24 38 36 40 42 36 33 34 37 38 43 42 33 27 27 26 26 32 36 41 41 47 54 106 107 103 83 89 83 98 100 91 53 40 47 53 100 106 145 194 197 192 193 198 196 191 190 181 162 159 167 172 176 180 181 180 181 185 188 193 197 200 198 200 200 200 199 200 199 195 193 191 187 180 179 178 176 175 171 167 165 164 166 165 165 161 154 155 164 161 137 47 36 39 35 36 34 36 37 37 41 36 33 30 25 28 27 26 29 31 38 42 43 50 55 111 109 102 82 99 95 90 105 111 92 54 44 34 59 113 112 149 197 196 196 194 196 196 193 188 180 162 154 160 167 166 170 175 174 179 183 191 197 199 200 204 202 201 200 201 202 199 193 195 195 191 188 187 184 182 182 182 181 181 183 178 171 167 165 169 163 162 93 24 34 34 35 36 35 36 35 31 29 30 31 30 27 28 28 30 32 34 41 45 45 51 55 100 122 106 86 93 116 104 97 106 123 90 59 54 36 75 127 116 159 193 196 198 198 194 191 188 185 179 160 149 154 163 166 167 171 173 179 187 192 197 199 201 203 203 203 202 205 203 199 200 197 196 193 190 188 187 187 185 184 184 182 175 176 177 172 163 163 141 43 32 37 37 34 33 34 30 28 26 26 30 31 25 28 28 30 33 30 36 42 45 43 49 57 108 124 114 84 88 115 115 110 103 112 122 90 75 44 47 106 140 116 167 190 194 194 195 192 189 182 180 177 157 141 146 158 162 164 167 171 176 187 197 197 199 204 205 201 202 201 203 201 200 198 196 195 192 191 188 187 185 180 182 182 179 178 176 165 160 169 95 21 35 33 25 27 31 27 30 26 26 30 31 33 31 28 28 31 29 33 35 44 46 45 54 60 111 123 106 89 96 115 125 120 124 115 115 128 100 63 40 62 129 142 127 166 188 193 192 194 192 187 182 178 178 160 137 139 152 158 161 162 168 177 187 196 198 199 202 201 201 202 193 194 196 196 190 188 189 189 187 184 183 181 184 184 180 176 164 155 161 144 40 27 34 29 30 34 29 27 28 27 32 32 29 28 27 32 31 27 31 33 38 43 48 49 55 60 94 100 100 96 97 105 122 140 125 121 129 126 121 102 60 39 59 146 151 148 163 186 191 192 195 190 187 180 179 177 165 138 129 141 152 157 156 160 173 191 191 190 199 202 201 199 193 191 190 189 187 189 187 186 184 180 182 182 184 185 180 170 157 151 164 87 21 35 33 32 30 26 26 29 33 32 29 29 29 30 30 28 30 36 33 33 38 42 46 51 57 60 64 80 78 76 81 82 93 126 121 120 145 142 116 118 85 56 37 87 157 169 155 156 182 192 191 193 189 189 184 176 174 171 151 122 126 140 149 155 156 168 187 191 196 197 195 193 196 193 190 188 188 186 182 181 181 179 178 179 181 178 170 159 149 159 137 35 33 31 33 32 29 30 31 35 32 31 32 31 30 28 24 26 35 33 35 38 41 42 47 53 57 59 49 66 57 47 37 29 7 8 13 26 52 82 93 114 103 86 47 49 107 159 178 159 151 175 187 190 189 189 189 184 175 171 170 158 131 108 113 132 146 154 169 181 189 190 190 190 187 187 188 185 184 180 176 174 175 170 173 174 173 167 160 153 152 151 67 24 34 32 34 28 31 32 31 27 32 31 30 27 25 24 27 36 33 31 37 42 43 46 53 52 53 58 47 68 46 48 50 53 46 50 28 7 0 0 17 47 58 74 72 51 77 131 162 179 165 146 171 188 185 187 189 183 181 171 164 165 164 146 116 100 104 114 132 158 179 179 181 181 179 177 180 178 176 173 174 170 167 167 169 170 164 160 154 153 153 86 22 36 35 34 32 30 28 28 28 33 31 26 29 28 27 26 33 33 33 33 39 42 41 47 53 51 56 58 68 78 54 68 87 119 147 169 159 143 122 77 44 30 11 18 51 52 65 116 143 165 175 166 143 163 183 186 184 182 181 176 171 167 161 161 151 133 112 93 82 90 124 159 173 169 171 173 175 174 168 169 168 162 158 162 163 157 156 151 153 150 90 27 31 37 36 32 28 27 28 28 34 31 27 27 25 26 29 30 32 33 35 38 41 44 45 47 50 53 59 62 97 87 84 104 140 155 170 184 184 185 177 173 160 127 86 42 28 30 47 64 112 153 172 169 169 148 150 179 188 181 178 181 178 175 166 163 160 150 142 127 111 96 83 96 129 151 159 161 162 160 159 159 156 157 156 159 158 156 155 154 137 68 24 31 37 39 32 31 29 30 29 33 30 25 26 24 27 32 33 31 34 36 35 41 42 44 48 54 54 54 57 61 128 118 129 154 185 174 180 190 191 184 183 181 168 160 154 141 96 66 54 27 17 61 121 160 172 168 152 145 169 186 184 182 183 181 175 170 164 157 157 149 137 123 114 96 83 93 120 134 147 152 153 149 147 149 153 152 149 146 132 103 46 19 32 33 35 33 24 27 25 26 29 27 25 26 28 32 42 37 29 33 37 39 40 42 47 50 53 53 54 56 57 60 126 157 172 196 206 194 196 200 203 196 194 192 180 175 163 151 130 115 98 54 18 4 6 53 103 140 157 157 142 157 174 178 185 182 177 175 170 164 159 157 154 143 130 123 115 95 85 86 97 114 123 128 127 127 120 115 114 83 55 35 32 36 46 45 51 47 49 50 46 51 47 38 33 30 35 44 32 28 33 37 37 39 46 49 52 55 55 53 53 54 57 59