P2
# Generated by OpenCV 4.2.0
92 112
255
212 212 212 213 213 211 212 209 200 177 109 35 32 21 19 19 18 22 15 17 22 19 26 28 25 27 31 37 45 44 43 38 35 31 35 30 35 31 45 47 65 67 42 25 33 37 43 37 42 44 38 45 57 58 44 35 43 47 46 51 61 63 58 70 78 79 79 78 75 56 43 47 44 61 49 29 31 38 39 41 54 65 70 136 204 215 221 217 224 227 226 228 213 213 212 212 212 211 212 200 191 166 69 31 26 20 20 19 19 21 19 23 24 24 25 26 25 26 30 35 44 47 51 50 43 45 44 47 43 48 54 57 83 81 67 65 46 33 36 49 50 48 46 41 42 50 55 53 41 46 51 53 56 62 58 68 78 77 80 82 75 68 48 44 44 47 57 45 29 32 37 38 45 58 70 96 169 209 220 221 218 225 226 226 213 212 212 213 212 209 204 199 189 123 30 28 20 20 19 17 23 22 23 27 27 23 22 23 23 26 30 31 33 43 54 60 62 65 58 65 63 79 92 77 102 119 113 87 67 51 38 38 49 53 51 50 48 46 41 49 52 43 52 51 56 60 56 60 67 73 85 78 78 76 62 51 50 40 44 56 46 33 31 34 37 40 59 67 109 192 210 223 225 221 225 226 214 213 212 211 212 202 198 197 174 59 28 23 19 19 21 22 27 23 23 21 23 21 18 24 27 24 25 33 42 54 61 67 76 94 85 95 111 116 122 113 124 148 138 125 106 82 61 44 42 55 61 57 54 48 54 51 48 56 46 52 54 55 60 59 57 60 80 88 74 74 72 57 48 44 34 40 53 45 31 24 35 35 42 61 68 124 197 210 223 222 223 227 212 212 213 213 208 197 198 198 107 26 31 23 20 24 24 25 26 23 22 20 17 21 27 33 32 37 41 39 49 65 84 90 87 110 125 113 131 141 148 148 150 150 149 146 128 110 95 74 49 41 58 64 61 58 53 63 56 61 59 45 51 59 59 63 65 60 69 77 82 72 77 64 48 39 41 36 41 50 41 30 27 32 30 43 63 77 151 205 217 223 220 224 212 212 213 214 201 197 195 163 44 31 31 25 24 27 27 23 24 21 19 18 21 27 37 41 52 57 68 77 75 75 86 110 111 117 138 145 148 150 159 160 159 156 158 160 155 139 135 119 93 55 47 59 62 66 56 59 71 56 61 64 52 52 56 62 71 63 65 73 80 77 73 71 58 41 36 41 37 41 45 39 31 26 29 29 44 65 106 171 207 222 221 224 213 212 213 211 196 202 197 91 27 34 27 27 29 30 26 24 22 17 21 22 27 34 36 44 57 66 77 88 109 114 120 124 130 139 149 158 160 166 166 165 164 163 166 167 166 161 158 144 140 116 77 48 60 70 71 60 67 73 54 65 79 67 58 57 61 70 65 74 88 66 64 68 69 52 35 34 37 35 41 40 41 28 23 28 30 45 63 125 186 207 220 221 212 212 212 206 196 198 151 35 33 27 23 32 31 23 21 21 18 22 23 25 37 40 51 70 76 92 102 108 119 132 142 150 156 160 164 166 169 168 168 168 166 169 169 173 172 170 163 166 151 155 137 86 62 72 76 69 77 83 75 51 64 79 79 62 56 58 72 63 76 79 61 57 64 65 44 36 37 32 39 41 39 37 27 24 27 30 47 79 158 195 214 216 212 212 206 202 191 187 92 25 33 24 30 30 27 24 21 17 18 25 28 34 38 51 70 75 88 100 108 123 135 140 152 160 165 164 166 170 169 169 172 170 172 173 172 173 173 174 167 167 168 158 163 151 95 71 83 80 77 78 95 63 55 68 96 85 68 57 54 73 64 78 79 60 49 63 57 43 42 31 35 45 39 39 35 27 23 27 35 48 99 178 207 216 212 212 209 205 193 160 45 29 29 31 33 28 22 19 17 17 25 25 34 46 51 68 74 92 107 111 128 139 139 151 159 162 163 167 169 169 168 171 171 172 174 176 176 170 171 174 174 167 170 167 161 160 142 107 65 78 90 75 83 88 66 60 74 102 83 71 52 55 64 74 76 79 56 49 69 46 47 32 28 35 41 33 38 31 26 24 30 36 53 126 191 211 212 213 211 196 187 114 28 30 33 35 29 22 19 19 19 21 23 33 51 57 62 69 85 111 113 120 131 139 152 160 160 167 166 167 169 171 171 171 171 173 173 176 177 172 173 174 176 175 166 174 167 160 155 153 110 77 82 80 72 93 86 71 69 77 96 91 69 52 58 70 71 76 73 49 56 57 42 46 28 28 38 40 35 37 29 26 25 32 42 75 155 203 212 211 214 195 176 56 29 33 37 33 23 20 19 18 17 23 31 47 58 56 62 74 102 117 122 124 139 152 156 158 162 165 166 166 168 172 174 171 172 175 175 178 178 177 174 174 175 175 172 172 173 157 156 160 158 113 72 85 78 73 83 75 76 67 80 97 88 65 56 74 69 61 70 66 40 51 49 47 39 26 31 44 35 33 34 30 24 24 35 47 96 179 211 217 216 209 140 30 37 36 36 24 21 19 19 18 19 28 32 49 55 57 67 95 116 128 126 139 151 152 158 160 163 167 170 169 172 174 176 176 177 177 176 177 180 178 176 179 178 174 174 173 169 162 170 163 162 157 104 83 92 70 72 75 80 68 76 86 93 95 66 61 70 66 62 64 53 39 49 46 45 29 28 37 40 31 34 37 28 23 24 34 57 118 224 230 220 216 101 31 39 43 28 21 18 18 17 17 27 27 38 48 56 58 87 115 125 125 136 148 151 155 159 162 165 169 172 171 173 175 178 179 181 179 178 178 178 180 177 180 180 179 179 180 164 175 180 174 163 162 157 110 86 85 74 77 75 81 75 73 85 92 90 61 60 67 61 59 58 44 41 45 42 35 28 30 40 38 27 39 34 23 23 29 40 81 233 232 227 212 61 36 46 32 22 22 16 18 17 19 25 28 35 50 57 75 102 111 121 139 144 147 152 158 161 165 166 170 172 173 177 177 179 180 179 180 181 183 180 179 178 177 180 182 182 178 169 178 179 180 178 168 158 142 103 91 83 76 78 76 80 66 72 77 87 87 57 54 59 58 56 49 34 43 43 38 29 28 33 43 34 27 43 29 20 25 32 54 241 233 240 163 33 45 36 25 23 20 19 17 19 34 25 26 37 48 59 92 107 113 132 143 147 151 154 158 163 168 170 174 176 177 180 180 180 183 180 180 183 184 184 184 180 180 181 185 180 176 179 179 182 181 180 182 170 156 141 95 82 77 77 65 79 78 70 67 66 89 85 48 56 57 55 56 39 35 44 40 35 29 28 38 39 30 33 49 26 22 28 37 232 223 220 88 41 39 30 25 20 17 17 19 23 22 22 26 37 52 76 106 114 125 138 145 151 154 155 161 165 169 173 176 178 178 178 182 184 185 182 183 184 187 186 188 185 185 185 181 182 180 186 183 183 184 183 182 183 178 156 125 87 85 73 61 57 76 75 62 57 66 88 66 46 59 50 52 51 34 37 40 39 29 31 32 40 34 23 47 43 20 22 32 206 211 163 50 42 29 26 21 20 19 19 19 21 12 20 31 46 66 94 112 122 137 143 148 152 152 158 162 167 171 173 175 177 178 181 183 185 186 185 187 183 184 183 186 187 182 182 187 180 184 188 188 183 186 187 185 183 182 183 158 114 84 74 65 59 60 74 72 61 54 68 81 51 50 53 52 55 42 34 43 40 29 30 33 38 38 29 24 54 38 19 26 201 202 110 38 33 27 27 21 17 21 18 21 14 14 23 34 45 71 103 117 131 139 144 149 153 155 155 161 169 172 172 176 176 178 181 184 187 188 188 189 188 186 188 186 179 179 184 181 182 188 190 191 185 187 189 188 186 182 182 182 155 99 79 66 61 55 61 81 68 47 51 79 60 41 55 56 44 51 35 37 41 35 32 32 34 37 34 22 36 52 26 21 203 184 66 35 27 24 20 17 17 20 18 22 12 19 25 31 54 82 106 122 136 142 146 149 155 156 158 165 169 173 172 177 178 180 181 183 187 188 189 190 190 193 189 184 184 184 178 182 189 188 190 190 189 185 190 187 188 185 182 183 179 144 91 75 56 55 53 66 74 51 44 59 71 42 46 50 49 47 44 29 39 43 31 31 35 35 38 29 23 40 42 22 214 138 38 31 25 21 19 16 16 14 20 21 14 19 22 33 57 87 108 129 140 141 148 152 156 159 165 168 169 172 171 177 181 182 183 186 188 190 190 193 191 185 185 190 187 179 186 191 188 189 191 192 192 186 188 188 188 189 186 190 185 173 135 80 64 53 55 57 72 59 44 41 66 53 43 51 51 42 45 34 32 41 33 27 30 36 31 34 23 31 44 34 197 87 33 29 21 20 17 16 16 20 24 14 16 20 26 47 74 92 118 133 137 142 148 153 158 161 164 168 171 174 176 177 180 177 185 189 189 190 192 192 188 187 193 190 186 187 191 190 190 190 191 192 193 190 187 192 191 193 189 187 186 185 171 106 75 58 53 55 59 57 50 39 45 53 36 42 46 41 36 44 30 38 37 28 25 28 28 35 24 25 37 42 142 58 32 26 20 18 14 16 15 19 19 9 16 23 35 70 80 102 124 131 138 145 151 154 158 160 164 169 171 174 177 179 180 182 187 188 187 192 194 192 189 195 193 192 192 191 191 190 192 193 192 192 192 192 186 191 195 194 192 188 190 189 182 155 92 64 51 47 57 50 54 45 40 43 37 39 38 42 33 38 35 34 37 33 28 23 29 32 31 20 28 41 97 45 29 21 19 16 13 15 18 20 12 12 19 23 47 64 76 111 126 134 137 145 149 153 158 161 166 171 171 173 177 180 183 185 190 191 192 193 194 189 196 187 191 197 199 197 193 194 194 193 195 194 193 192 191 190 199 196 195 193 192 189 183 180 131 78 62 48 54 59 56 48 37 41 39 36 39 38 36 32 38 33 36 32 31 24 25 28 39 23 19 30 58 38 27 19 18 16 14 15 16 20 12 18 20 31 41 62 90 112 125 133 140 149 151 154 160 163 167 169 173 175 178 181 184 188 191 192 195 198 193 199 189 192 195 194 196 198 197 197 197 198 198 196 196 197 197 191 195 197 194 192 192 189 184 182 172 111 73 57 47 54 56 55 41 37 40 34 38 40 44 33 36 34 34 33 29 28 22 28 35 33 17 23 41 36 23 18 16 14 14 14 16 14 10 16 22 31 50 72 92 113 127 136 144 146 150 154 159 164 164 169 174 177 180 182 185 187 188 195 195 190 196 195 198 202 201 198 197 198 199 199 197 200 200 197 198 197 198 195 194 199 195 192 193 189 183 182 183 156 89 65 57 45 56 53 49 36 39 37 37 42 42 34 33 35 31 33 31 28 24 26 31 36 21 19 40 32 20 19 17 13 14 14 15 9 11 16 24 41 59 77 98 117 131 142 145 145 149 154 157 162 167 169 173 178 179 183 184 188 190 192 190 190 194 199 201 201 202 201 201 199 200 200 203 202 202 201 199 199 200 198 194 199 198 196 192 190 187 185 184 180 138 72 62 52 42 51 49 41 35 37 34 35 39 40 34 35 31 33 34 28 29 27 26 32 28 16 36 27 19 19 16 13 14 17 15 7 10 14 32 48 74 86 105 121 135 141 144 150 151 155 159 163 163 169 173 176 178 182 184 187 190 192 190 191 198 201 202 200 199 200 205 203 204 203 204 205 201 200 199 198 201 199 195 197 197 194 192 192 190 187 184 183 175 112 59 59 47 44 47 41 34 34 35 34 35 40 33 36 31 33 34 29 25 28 24 26 32 21 33 23 20 18 14 13 13 16 11 7 13 23 34 58 85 100 110 121 133 140 145 149 152 152 158 161 163 168 173 176 178 183 186 190 188 186 189 198 197 201 201 200 202 203 201 205 205 203 205 204 203 203 200 193 200 201 203 194 197 194 192 192 191 188 186 182 181 151 90 52 52 42 48 43 39 31 34 36 34 34 33 35 34 31 30 32 29 25 27 24 31 29 31 21 19 14 12 12 14 14 7 9 19 23 42 74 96 102 115 129 133 140 148 151 153 154 155 161 165 168 171 175 180 183 185 188 182 185 194 199 201 199 199 200 204 203 202 202 207 204 207 205 204 204 206 199 202 202 204 194 192 195 194 192 191 188 183 182 175 176 127 71 47 43 45 44 38 38 33 32 32 36 36 33 35 29 30 29 31 27 25 26 26 34 25 19 14 13 12 11 15 13 7 10 19 31 58 94 103 109 121 129 135 141 146 152 155 157 158 161 165 168 169 174 178 181 184 179 184 192 194 201 202 202 199 202 204 203 207 204 207 209 207 211 210 205 204 208 203 203 202 195 192 197 195 193 191 188 186 183 174 174 164 106 63 48 43 45 42 36 33 31 32 31 37 31 35 30 28 29 28 31 23 23 23 34 21 17 13 13 12 14 16 7 9 16 25 40 73 98 109 121 125 131 137 143 146 152 153 154 158 161 163 167 171 172 176 182 174 178 192 198 201 201 202 205 202 204 206 205 208 210 208 208 211 209 211 208 205 206 204 204 202 200 192 195 195 194 192 189 187 182 178 176 177 145 87 54 45 39 46 36 35 29 35 28 35 34 32 32 27 30 28 26 26 22 20 27 19 15 15 14 16 17 13 8 11 22 29 50 85 107 114 121 126 129 134 139 143 149 151 151 159 162 165 166 169 169 176 174 172 186 193 199 201 202 205 207 204 205 208 208 207 211 212 208 211 215 212 209 209 206 206 203 205 200 194 192 196 193 192 190 187 182 180 180 178 167 117 66 48 39 38 37 38 38 32 31 28 30 32 35 27 27 27 29 25 25 19 24 16 14 14 11 16 16 8 9 17 22 32 64 98 114 117 120 124 131 135 137 143 148 150 150 153 157 163 161 167 166 162 168 179 185 193 199 199 201 205 206 205 203 211 208 207 212 208 208 213 216 211 202 207 206 204 204 206 202 200 193 195 194 191 188 185 178 180 180 176 175 145 88 47 42 34 35 36 39 29 34 29 30 31 33 32 28 24 30 27 20 22 23 15 14 11 12 12 10 5 15 19 20 38 80 105 112 119 123 125 130 131 136 143 139 136 139 146 147 151 155 157 153 157 170 178 184 195 195 195 198 201 200 204 204 203 206 210 206 203 207 208 208 208 202 201 199 202 199 198 203 201 201 192 191 185 183 181 177 174 166 166 168 162 123 63 44 36 34 34 34 33 29 34 29 30 30 30 32 26 28 30 22 25 24 16 11 12 12 9 7 10 16 16 21 53 89 105 114 117 120 125 122 127 125 107 102 117 114 107 113 116 121 126 135 148 150 162 163 164 174 180 188 179 193 192 203 197 201 204 203 204 205 204 203 200 197 199 199 195 189 192 199 194 197 195 186 185 174 168 165 159 160 156 154 157 139 86 45 35 34 33 32 37 27 34 33 35 31 25 27 28 23 28 23 22 19 12 11 13 9 8 7 11 12 15 32 70 95 110 116 118 123 122 121 118 102 89 90 80 74 70 71 76 76 76 80 83 84 94 104 101 107 131 152 162 171 177 186 191 194 200 199 201 200 199 198 198 193 197 194 185 185 182 169 178 175 160 152 154 147 138 141 136 119 109 105 103 99 84 51 37 32 33 32 37 36 28 29 31 30 31 27 25 22 23 26 20 18 11 12 12 6 5 8 9 13 14 50 84 101 112 117 119 123 112 82 75 69 75 75 72 77 75 70 63 56 58 55 60 68 61 72 85 80 99 124 127 138 165 179 183 187 193 191 195 193 194 195 194 187 190 186 172 169 158 139 128 110 100 88 74 70 75 72 54 54 38 36 45 60 54 54 41 31 32 32 33 42 26 28 35 29 29 23 30 27 24 28 21 18 19 14 5 3 6 7 6 13 22 66 91 105 112 118 119 104 64 42 51 52 49 58 80 79 69 61 59 64 68 66 69 70 67 69 80 81 79 98 100 116 155 172 169 180 185 189 192 188 190 190 189 185 180 173 159 159 125 101 101 85 85 77 71 77 59 58 59 54 52 41 46 53 49 56 47 36 32 29 28 38 32 22 30 27 30 24 24 25 23 24 25 20 23 12 5 6 6 8 12 16 27 71 94 108 113 117 115 87 47 46 55 65 78 87 98 102 102 102 94 95 95 87 73 81 82 67 71 68 68 75 95 120 145 160 163 177 183 189 187 187 187 187 184 181 174 170 154 133 108 134 100 107 91 65 71 51 54 64 65 60 63 72 71 71 80 77 55 41 36 29 26 31 33 24 25 31 26 28 22 27 24 24 26 20 14 5 5 6 8 7 12 12 31 71 99 109 114 112 105 79 55 67 80 106 126 132 133 135 141 146 149 145 146 140 124 110 114 105 96 77 71 80 94 125 144 150 167 178 183 186 186 187 185 182 180 183 179 170 141 126 129 131 111 121 87 82 86 77 81 83 95 110 123 134 136 129 114 114 90 52 40 36 29 27 31 32 26 29 27 24 20 25 25 24 26 20 16 15 2 4 6 8 11 14 31 75 100 112 117 115 103 69 78 104 114 122 130 134 145 154 157 159 160 165 164 161 162 155 145 136 127 119 112 111 118 135 150 152 167 178 180 183 187 185 181 179 180 181 176 164 146 148 144 143 137 124 113 117 122 130 135 142 158 163 166 163 160 153 146 142 139 94 42 41 33 26 31 34 25 26 26 24 22 23 27 23 26 22 44 48 16 2 7 10 8 12 31 78 102 112 119 117 104 87 85 103 120 123 134 140 146 150 156 161 162 167 167 167 168 168 173 162 152 139 128 120 121 129 150 161 164 172 178 181 182 183 183 180 178 176 170 162 154 159 150 142 132 129 138 149 157 169 178 174 175 173 172 169 161 156 149 143 146 124 65 38 39 28 28 33 27 24 26 25 25 21 26 24 24 24 51 56 42 9 6 8 8 13 34 79 103 116 121 114 105 97 97 105 122 129 136 142 146 152 154 158 160 164 165 167 169 169 170 175 173 169 154 136 120 113 131 151 158 170 177 182 182 184 185 180 181 174 169 160 151 140 129 127 137 153 165 174 179 177 179 179 171 167 171 170 168 160 151 147 139 131 102 47 38 31 24 29 33 23 27 28 26 21 25 27 24 24 70 54 49 27 9 10 11 12 33 79 108 118 119 113 99 96 104 110 117 125 135 141 142 145 146 152 151 147 147 148 151 160 164 170 173 170 166 162 144 125 112 122 151 166 177 186 192 194 186 183 177 171 162 148 129 117 129 150 165 171 176 179 179 176 178 175 173 170 165 164 161 158 155 151 141 133 121 76 36 36 28 28 34 27 26 31 26 23 23 28 23 25 105 85 79 62 22 10 11 12 31 81 107 117 119 118 102 97 104 109 119 124 128 134 142 142 131 124 120 118 116 122 121 115 124 130 143 159 167 169 163 147 128 108 125 159 172 179 193 194 190 183 175 167 149 122 114 136 158 161 163 171 166 155 147 145 147 147 151 155 153 152 153 152 147 149 141 134 125 98 50 35 33 28 32 32 24 32 29 28 22 27 20 23 132 101 115 116 56 14 13 16 36 83 110 119 122 119 105 100 108 110 118 127 134 137 128 109 92 82 82 77 85 77 61 62 90 76 111 121 147 165 168 158 146 127 112 142 167 180 189 195 192 184 175 159 127 109 134 159 159 160 159 138 123 119 107 107 117 119 113 109 112 117 125 141 148 149 144 137 124 104 70 39 30 33 28 33 27 28 30 27 19 25 25 23 146 116 135 153 121 39 13 17 32 84 115 119 120 120 114 105 109 109 113 126 131 108 81 61 51 39 29 25 35 33 33 48 40 44 49 90 126 142 152 162 159 139 123 130 164 179 191 197 193 182 173 147 112 123 152 160 152 139 117 90 68 70 47 51 59 52 46 46 68 75 81 92 120 140 143 135 119 107 90 58 32 31 28 31 28 27 30 28 20 23 27 24 141 120 137 162 167 85 12 16 37 90 112 119 121 118 119 110 111 105 107 112 102 71 44 38 24 39 59 42 58 37 77 65 66 93 116 68 99 136 147 147 158 142 127 129 162 180 188 196 193 182 170 136 113 138 155 153 146 139 81 68 79 48 57 55 61 35 44 28 27 32 41 55 73 104 130 130 116 107 115 83 39 26 28 30 35 22 28 28 20 20 29 23 135 121 138 157 162 121 35 23 48 94 113 122 121 119 122 116 111 100 94 76 54 39 28 21 26 118 129 68 83 43 41 62 76 107 200 150 93 112 150 164 151 146 129 131 158 175 184 190 190 181 166 130 114 137 158 167 143 105 85 159 173 85 86 58 53 55 90 69 104 48 18 32 45 57 103 115 104 117 128 104 58 30 28 28 34 27 27 29 23 19 31 26 136 122 140 164 156 141 67 32 56 95 114 121 122 122 125 125 119 109 90 68 38 27 26 30 44 69 81 61 72 68 58 72 68 108 161 145 117 98 103 134 146 154 138 136 153 174 183 189 187 179 164 133 118 140 144 116 98 96 127 162 159 88 86 69 46 86 83 83 131 85 29 22 19 28 55 78 102 123 125 126 85 35 28 30 29 31 25 29 29 17 26 34 124 123 139 165 163 154 103 56 62 99 111 118 121 125 130 131 128 128 127 114 86 53 62 68 54 35 32 61 59 69 101 76 76 96 95 108 126 125 105 116 153 160 145 138 154 171 180 184 181 176 163 140 134 145 137 110 112 128 126 98 96 76 70 73 86 72 58 68 57 58 55 55 44 46 71 109 130 132 136 138 116 46 27 28 33 31 26 27 33 19 20 34 96 126 152 161 165 162 141 89 70 104 112 118 123 129 134 135 136 141 142 141 132 104 103 115 102 79 83 104 72 116 124 112 105 137 145 146 161 165 174 171 168 154 141 140 156 167 174 178 177 175 162 144 144 151 164 172 166 167 156 153 147 133 114 109 105 91 94 87 90 106 100 100 95 119 138 151 154 151 151 147 138 74 35 25 32 36 34 27 31 28 18 30 71 124 160 166 161 165 170 128 77 102 111 117 123 130 132 135 139 146 150 149 148 141 133 132 126 123 139 143 129 149 153 152 148 150 149 158 159 170 178 168 159 148 140 141 158 165 172 177 176 171 162 146 142 149 161 174 176 172 165 157 158 162 158 177 168 155 143 142 136 138 138 143 149 156 159 162 162 161 155 150 143 103 43 24 32 42 37 25 28 34 19 26 46 121 166 177 170 169 187 153 82 99 110 117 124 130 130 137 142 147 151 152 150 149 148 146 146 142 142 149 154 153 155 155 155 155 157 169 172 168 164 159 158 147 142 147 159 168 175 178 175 169 163 149 140 149 154 167 168 168 167 162 160 155 159 162 162 159 159 156 152 149 151 157 164 168 169 167 166 164 159 153 147 125 59 27 28 40 40 32 26 35 22 22 31 120 178 181 186 186 186 141 74 100 110 117 124 129 133 139 146 150 153 155 155 156 155 154 153 153 153 154 157 158 163 169 174 176 176 181 179 164 159 158 151 145 145 153 162 171 176 178 175 171 165 157 145 149 154 160 169 172 175 175 170 173 170 163 166 166 165 166 166 165 164 170 174 175 174 171 167 164 161 156 149 136 86 32 22 34 41 42 23 32 28 19 20 112 171 168 182 190 177 135 74 104 108 114 122 128 133 139 142 148 152 158 160 162 164 165 163 163 164 165 168 173 177 178 184 187 184 177 165 161 159 156 152 146 150 157 162 170 177 177 175 173 165 158 151 150 155 157 162 171 176 181 185 187 184 180 178 175 176 178 177 176 176 179 176 178 176 173 168 165 160 155 152 142 110 52 23 29 42 47 28 29 27 20 15 105 161 155 163 176 168 133 92 101 107 111 120 126 131 139 141 148 154 156 160 160 163 164 167 169 171 176 176 183 185 185 186 184 176 168 163 165 161 153 152 149 154 157 161 171 178 179 177 172 167 156 155 154 152 159 163 167 172 178 182 184 188 186 186 186 187 185 180 179 180 180 177 174 174 173 171 166 160 154 152 142 122 66 29 23 39 49 38 26 28 20 10 100 147 148 148 164 169 141 112 99 106 112 122 125 131 139 146 151 155 158 158 158 163 171 175 174 176 178 179 183 181 178 176 172 168 168 168 164 155 150 149 155 156 155 164 172 177 178 176 174 171 158 154 155 154 157 166 170 173 176 177 181 186 184 184 186 188 188 185 185 183 182 182 177 174 175 172 167 163 156 153 146 131 88 38 26 30 44 46 31 31 24 2 100 139 147 143 145 163 145 123 105 107 113 122 126 135 142 145 151 154 156 160 160 165 173 173 177 176 177 176 176 177 174 170 169 168 167 167 161 154 155 158 157 152 154 165 172 178 179 177 176 172 160 154 154 158 158 166 172 176 177 178 179 181 183 185 186 185 184 183 183 182 181 182 179 177 173 171 164 161 158 153 149 138 102 45 32 28 41 44 41 29 25 0 94 142 136 134 131 127 122 129 116 107 111 122 126 135 140 143 149 153 158 161 166 169 172 173 174 171 170 171 172 171 170 169 168 168 168 166 163 159 159 159 156 149 157 165 173 179 182 180 176 173 161 154 154 158 165 168 169 174 176 179 180 182 182 180 181 182 182 181 183 180 179 180 177 175 169 170 164 162 159 153 150 141 112 52 32 30 43 43 41 35 28 0 79 146 131 136 157 142 118 132 121 110 110 119 126 133 136 143 147 152 156 159 165 171 171 172 169 165 165 167 170 169 170 172 172 169 167 168 168 168 159 157 154 150 163 170 177 177 181 182 179 174 163 151 152 159 167 172 175 172 178 180 179 182 184 182 181 179 178 178 179 178 180 180 177 175 173 168 164 158 154 153 148 142 117 47 34 31 32 43 45 40 33 1 61 140 140 155 159 158 143 142 127 110 109 118 126 132 135 142 147 152 154 159 165 167 166 164 164 165 167 171 172 176 174 172 173 169 171 174 175 173 166 157 149 154 164 172 178 180 179 181 178 174 164 151 149 157 167 178 181 177 178 181 182 184 184 182 181 180 179 174 171 176 177 176 174 175 173 170 162 156 155 152 149 143 118 41 41 38 26 32 47 49 34 3 44 122 139 158 161 163 154 146 130 113 109 114 123 132 136 142 146 152 154 156 160 163 163 161 164 170 174 176 174 174 172 172 173 176 182 183 180 174 162 150 143 150 165 171 176 178 178 179 177 174 169 155 144 151 162 178 185 186 185 184 183 184 184 182 183 180 183 178 176 176 180 176 171 172 172 168 162 160 158 153 147 141 114 33 45 43 30 26 45 50 39 12 23 105 140 153 161 163 155 144 137 116 112 114 123 129 136 140 147 150 151 154 157 162 163 168 173 175 178 181 177 175 176 175 180 188 193 191 184 166 151 146 138 150 164 172 178 178 176 176 176 176 172 160 144 146 152 170 190 193 193 191 187 184 186 186 185 184 184 185 183 174 178 178 173 171 169 165 163 159 154 151 146 143 110 29 51 45 37 25 37 46 47 20 24 113 142 150 168 175 168 135 153 127 111 111 122 130 135 141 146 148 150 155 159 164 166 170 176 181 184 182 178 177 179 182 190 196 194 186 175 155 145 145 143 148 160 175 178 179 180 179 177 177 173 164 147 146 148 157 181 193 199 200 194 189 186 186 188 190 188 187 184 182 178 179 176 173 169 163 161 157 154 149 144 143 100 28 63 39 43 30 32 43 52 48 25 106 146 154 178 200 165 136 166 143 112 108 119 127 135 138 143 147 151 156 161 166 169 172 176 178 183 180 177 179 181 189 192 191 184 181 169 145 144 146 146 150 163 177 178 179 183 183 179 177 173 165 151 146 150 147 168 189 194 201 200 196 191 191 194 191 192 189 182 185 180 180 175 172 170 165 159 156 153 148 144 146 82 32 61 38 42 36 30 41 46 80 38 69 141 141 177 167 113 143 177 156 113 105 117 125 136 139 142 144 151 158 160 162 168 171 175 176 182 177 177 180 185 192 186 180 179 183 166 142 147 146 145 151 163 176 183 190 198 195 184 179 178 166 153 150 151 148 157 185 192 192 197 198 195 192 194 191 190 191 189 183 181 179 177 171 168 164 160 156 152 147 142 144 66 41 66 43 39 41 32 39 45 114 68 42 116 179 176 155 142 145 181 163 123 106 115 124 131 138 144 148 150 157 161 163 166 169 175 178 179 179 180 179 184 187 180 179 185 185 164 141 149 147 145 154 165 176 187 201 211 206 187 179 175 164 154 154 155 151 152 179 188 189 190 196 197 194 190 190 191 191 186 181 180 180 179 172 166 161 158 154 150 148 141 136 41 48 69 44 38 44 37 38 40 149 104 57 59 147 145 147 149 159 179 154 119 111 114 123 129 137 144 149 150 154 159 163 163 165 173 177 176 174 176 180 185 182 181 185 190 191 167 137 147 146 144 148 161 173 180 184 190 187 181 175 166 156 153 154 156 151 154 185 187 188 189 188 190 192 188 188 191 189 182 180 180 179 174 171 168 161 156 151 147 144 145 123 28 60 78 50 38 42 44 33 39 156 130 93 51 53 121 153 153 159 142 59 84 123 110 122 128 135 139 145 149 154 158 162 165 164 169 173 174 174 173 177 180 181 184 187 189 187 181 145 136 140 135 134 145 163 170 174 179 178 170 161 155 145 146 150 151 141 167 190 185 187 184 182 184 188 187 187 186 186 185 182 181 178 173 170 166 163 152 145 147 142 146 101 22 64 77 56 39 38 52 29 24 171 148 117 77 37 38 61 79 66 26 0 62 125 112 118 125 132 136 143 149 154 156 161 162 164 166 168 170 172 173 174 178 182 183 183 182 180 178 164 139 134 136 117 109 143 161 168 172 168 160 149 116 123 131 139 143 153 178 181 181 181 182 181 180 185 184 185 184 186 184 181 182 177 172 166 166 161 151 145 147 142 145 76 26 64 71 52 42 33 41 27 32 169 163 144 97 47 51 33 18 12 11 10 47 121 117 113 122 130 136 142 147 152 155 158 160 162 166 166 162 169 173 173 174 176 178 178 178 174 173 173 164 155 156 137 118 112 136 157 162 154 143 122 115 141 154 160 162 172 180 179 180 175 178 179 180 183 184 185 185 183 180 178 177 175 173 168 166 159 153 149 145 142 139 51 32 68 65 54 40 32 29 33 41 183 170 159 130 55 56 75 51 34 25 19 37 113 120 113 120 126 132 139 145 151 154 157 157 159 164 165 165 167 168 169 170 172 172 174 174 172 170 174 171 168 159 155 156 138 129 134 140 143 145 156 160 156 159 170 173 174 176 178 178 179 177 178 176 178 179 181 181 178 178 175 175 172 169 169 163 157 151 148 144 144 124 32 44 69 66 56 42 59 59 57 35 196 183 168 156 70 49 85 76 57 39 26 23 100 127 115 118 123 129 135 143 150 152 156 154 156 163 164 164 164 161 164 167 169 171 168 171 166 166 171 173 172 172 166 164 167 164 154 146 160 173 179 172 173 174 174 179 178 172 175 175 176 177 175 177 175 176 177 178 178 175 173 172 171 168 164 160 151 148 147 142 145 102 21 54 55 72 48 55 75 77 52 36 200 193 181 175 104 48 88 85 75 60 40 21 70 129 115 116 122 127 130 138 146 150 151 153 155 160 159 160 162 159 162 167 169 169 164 165 164 167 170 172 170 168 166 167 177 181 177 174 176 178 185 180 174 172 174 176 177 176 172 172 173 175 174 177 174 172 175 175 176 176 173 170 168 162 158 155 149 147 143 141 144 79 25 49 58 69 45 71 64 68 51 42 204 199 191 190 148 54 89 99 79 71 57 37 54 123 118 115 119 124 130 135 141 145 149 152 155 157 159 160 161 161 163 164 164 165 163 167 166 170 171 170 167 167 167 175 182 182 176 176 179 181 186 185 176 174 174 171 174 174 170 171 171 171 171 171 174 171 171 174 172 172 171 167 163 158 156 152 151 146 141 140 139 59 30 39 69 47 52 70 51 75 57 29 206 203 196 194 173 67 80 115 85 73 70 53 51 118 123 117 122 124 128 133 140 144 147 150 154 156 158 160 158 160 159 161 160 160 160 162 162 162 164 161 161 162 162 167 176 172 170 177 179 179 183 185 173 171 173 171 170 171 169 167 167 166 163 164 168 170 169 171 170 171 169 164 156 152 151 150 150 145 142 143 129 40 33 43 55 33 75 55 48 65 40 29 206 205 200 196 193 106 72 116 103 81 81 71 52 98 129 116 121 126 127 133 137 142 146 151 153 153 155 156 156 160 159 156 155 155 155 154 156 156 151 150 151 145 148 152 161 156 151 154 155 155 163 170 168 165 163 162 165 164 163 165 162 159 159 160 161 167 170 171 171 172 169 162 156 153 150 150 149 143 142 143 113 27 35 46 34 41 81 41 41 49 43 34 207 208 205 199 203 140 95 104 119 97 110 99 71 81 128 118 121 129 134 133 136 142 146 150 153 152 153 154 153 158 157 154 150 150 147 145 148 151 148 147 144 145 145 154 164 176 170 165 163 162 167 169 167 165 164 160 161 159 153 157 156 153 152 154 156 165 173 173 171 171 168 163 152 149 152 155 152 145 142 143 90 26 36 39 21 55 64 33 41 79 58 42 207 208 207 203 205 166 110 107 109 118 139 139 103 84 125 121 119 129 136 135 135 141 145 149 150 150 154 153 155 158 153 147 148 147 144 138 146 141 136 134 134 134 134 137 142 139 153 169 157 145 140 142 140 138 141 140 140 145 147 148 149 148 147 145 154 165 171 176 174 174 167 161 155 153 156 162 152 148 144 139 61 26 38 26 26 51 44 30 41 90 82 68 207 208 208 207 205 194 133 127 97 128 158 170 145 108 123 125 119 128 137 141 136 141 147 153 148 146 154 155 159 161 148 140 139 139 131 119 118 115 114 115 117 119 124 124 121 115 122 127 120 118 120 124 126 128 126 122 116 120 122 122 130 139 134 134 148 162 174 180 176 173 169 164 160 154 156 159 153 149 143 122 42 31 37 19 34 50 43 26 42 77 80 63 208 208 208 208 208 206 151 125 104 127 160 183 174 150 133 128 118 124 137 143 137 138 147 155 148 146 154 160 168 164 144 123 97 105 102 96 99 105 108 107 107 109 117 112 103 101 108 110 107 108 112 111 119 117 119 116 112 111 105 101 100 102 93 110 151 165 183 183 176 172 168 167 160 154 158 156 153 147 141 102 28 37 28 23 34 42 38 27 42 66 66 56 208 208 208 208 208 209 169 116 110 121 154 184 188 175 159 137 119 122 131 142 139 137 143 155 152 150 154 161 172 172 165 133 83 71 74 83 89 88 89 90 90 95 99 108 113 112 114 111 116 118 114 107 105 100 103 100 94 88 87 81 73 67 93 122 172 179 186 184 178 172 168 167 160 156 162 156 152 146 139 76 23 35 30 25 37 43 31 28 36 43 38 53 207 207 208 208 209 210 192 129 120 108 149 179 195 188 182 153 121 121 127 138 140 137 142 152 155 151 154 164 175 181 183 165 140 107 91 86 87 90 93 103 126 152 159 164 180 178 177 164 179 179 176 165 155 165 138 119 104 97 96 88 93 102 133 164 183 188 189 182 177 170 169 166 158 158 159 153 150 144 130 52 24 32 36 26 42 47 38 31 31 26 28 41 207 208 207 208 208 208 204 161 143 104 139 171 190 196 198 178 130 121 126 136 142 140 140 147 154 151 153 163 172 179 182 178 167 142 114 97 97 103 107 112 114 120 132 142 159 168 168 159 173 178 173 160 152 150 114 98 106 118 115 103 101 125 161 181 191 192 187 181 175 169 168 163 157 158 155 152 148 142 109 31 28 29 35 28 44 48 54 36 29 34 32 35 204 208 208 208 208 209 208 175 142 117 118 168 188 196 199 196 146 120 126 135 142 142 139 143 151 153 156 160 168 170 174 178 172 159 140 107 92 96 101 104 106 105 105 103 110 115 115 118 124 129 117 112 106 104 100 104 111 114 102 95 113 154 172 182 189 189 184 179 173 168 165 160 154 158 157 152 146 137 76 23 31 31 34 31 38 55 66 52 29 41 35 35 190 203 209 209 208 209 209 194 146 135 114 154 185 198 204 206 173 122 124 131 139 142 142 142 148 151 154 161 166 168 170 175 173 156 153 142 113 99 91 91 100 111 117 124 127 131 130 127 125 138 133 125 124 127 124 115 107 99 97 113 146 164 176 180 184 182 180 176 171 165 162 157 157 159 155 150 143 121 44 25 31 32 36 35 34 57 71 63 43 43 42 58 194 193 202 208 208 208 209 204 169 143 121 146 167 190 202 206 191 138 119 127 135 140 144 143 146 149 150 158 162 167 169 172 169 159 151 153 146 127 112 107 99 103 111 126 138 146 157 139 129 152 144 132 126 125 119 108 102 103 120 144 159 164 177 179 180 179 178 173 168 162 159 156 158 157 153 148 137 87 25 30 31 33 37 35 37 53 79 79 62 35 43 60 201 199 196 202 205 207 208 206 190 156 126 141 166 182 199 205 201 160 123 125 133 141 144 145 145 150 151 153 160 164 167 164 164 166 160 152 153 153 144 129 114 107 110 114 119 113 116 121 118 126 119 118 113 114 111 109 114 128 148 154 161 169 175 177 176 174 175 171 164 159 158 156 157 156 152 143 122 46 21 30 30 35 40 38 43 47 68 98 89 45 35 50 201 202 202 200 202 205 203 205 203 168 126 118 163 176 195 204 204 178 132 122 129 141 142 145 146 149 150 151 159 160 161 160 160 164 164 160 157 153 156 154 145 131 120 117 122 124 124 124 120 120 120 119 112 116 120 131 145 154 155 159 168 170 173 173 172 173 173 166 160 156 155 156 158 153 147 140 92 18 26 27 31 35 42 41 48 60 65 88 97 80 46 48 203 202 204 204 202 202 205 208 208 184 137 106 150 177 195 204 203 178 131 124 128 136 140 143 145 147 149 150 155 158 156 158 158 160 163 164 158 158 156 158 157 158 150 138 133 129 123 120 121 124 123 124 132 142 151 160 161 155 158 165 170 170 170 168 168 171 169 161 157 154 153 155 154 148 143 129 41 15 28 28 32 34 43 46 46 64 75 83 80 86 64 46 205 203 202 206 205 199 203 209 210 203 155 111 136 169 192 202 199 182 124 118 125 132 137 143 142 144 148 149 154 160 153 153 158 159 162 165 163 162 162 161 158 158 161 161 159 156 154 155 152 151 153 159 163 165 162 159 159 160 162 166 172 171 169 166 165 168 166 158 154 152 154 153 149 145 142 81 8 28 29 31 31 33 44 47 47 57 70 67 68 69 69 52 206 205 205 203 202 207 202 201 207 211 185 123 124 167 183 201 201 189 128 107 121 129 136 140 143 145 148 148 152 159 154 150 155 160 160 163 166 164 165 165 166 164 161 159 162 166 168 166 160 163 166 166 167 166 164 162 163 166 166 171 170 168 167 162 162 166 162 156 151 151 152 151 146 141 115 23 18 30 26 30 32 34 46 49 52 56 88 59 54 53 47 53 206 207 205 200 204 206 209 206 203 205 199 152 110 155 179 198 200 185 137 109 115 122 131 136 140 144 148 148 149 156 158 152 151 159 160 160 169 167 167 167 167 167 168 167 169 166 166 160 160 166 166 167 168 171 169 168 168 169 169 170 169 170 164 161 162 162 157 152 152 149 150 149 143 127 45 6 28 31 26 30 33 37 44 51 62 51 79 71 59 48 42 46 208 207 203 205 204 204 205 208 208 205 203 180 120 134 177 192 197 199 147 112 121 117 124 134 140 144 146 148 149 154 158 157 151 156 160 160 166 170 173 171 173 173 174 173 173 172 169 168 164 167 171 171 172 173 172 169 169 172 174 174 171 168 163 161 161 159 154 153 153 149 146 141 135 66 3 25 33 32 26 28 36 41 46 50 72 55 54 69 64 49 40 36 205 205 207 207 205 202 204 205 209 208 207 196 142 118 169 184 199 203 153 115 129 121 118 127 134 139 141 146 148 150 154 158 156 153 158 162 164 169 174 174 176 179 181 180 182 181 180 178 176 178 180 178 179 179 176 172 174 177 176 173 168 164 161 160 158 155 151 152 150 148 140 132 87 8 12 46 50 31 31 28 36 38 46 48 66 60 47 54 54 50 42 37 205 207 209 207 206 205 204 204 205 207 208 208 176 119 152 176 196 202 155 116 130 136 120 117 128 135 140 143 146 147 150 155 158 155 158 163 166 169 171 177 176 179 184 187 186 187 188 185 185 188 190 186 184 180 177 178 178 176 177 172 165 160 160 157 153 151 150 148 145 141 135 99 31 7 27 47 55 34 35 27 33 37 42 48 52 61 50 53 51 40 38 47 207 207 208 209 208 206 204 204 204 205 205 206 199 126 131 178 192 202 158 116 131 142 142 120 118 131 137 142 143 145 147 153 154 158 158 162 166 169 171 175 176 180 185 191 190 191 189 189 188 185 187 185 184 182 180 179 178 174 174 169 163 161 156 152 150 149 150 144 141 135 97 48 29 16 34 35 39 33 35 33 33 42 39 43 49 46 51 48 44 40 31 37 207 207 208 208 208 206 206 204 203 203 203 205 207 158 116 173 189 202 170 119 133 142 149 147 118 116 130 136 139 142 144 149 152 156 156 159 163 170 174 175 177 180 182 192 195 194 191 190 186 186 188 186 183 181 180 177 175 175 171 166 162 157 151 147 147 148 144 141 134 90 47 57 43 19 38 36 33 35 37 38 34 43 39 35 52 42 43 49 42 43 35 28 207 207 208 208 209 208 208 208 207 205 204 205 207 192 122 159 183 198 178 121 133 142 147 154 149 115 113 130 134 138 140 143 149 154 154 156 161 168 173 176 176 179 182 189 193 194 195 191 189 192 193 190 183 180 177 176 175 175 169 162 158 152 147 142 145 142 141 126 80 52 76 98 53 22 38 37 31 34 37 42 37 38 43 34 48 50 43 52 42 46 31 30 207 208 208 208 208 208 208 208 208 205 204 205 205 205 131 144 178 195 183 119 132 144 148 152 159 155 119 108 126 132 135 139 144 149 151 155 158 164 163 171 175 177 183 190 192 192 193 193 196 196 196 192 185 179 178 176 177 175 166 160 154 149 144 140 141 135 105 63 59 96 125 113 48 27 38 33 31 36 37 46 46 39 46 45 43 57 47 52 41 47 28 26 207 208 208 208 208 208 208 208 208 207 206 207 204 210 155 145 177 190 190 126 130 145 150 153 157 164 159 122 103 120 128 132 137 144 149 152 156 162 165 170 174 176 181 188 191 191 191 188 189 195 191 187 183 175 176 177 175 170 161 154 150 144 138 138 121 85 56 81 124 141 133 111 44 28 40 33 31 38 34 41 46 49 47 53 48 53 53 51 51 40 43 22 207 207 208 208 208 208 208 208 208 208 208 207 203 210 171 152 180 181 194 132 127 143 151 154 157 161 166 167 138 104 112 127 131 138 142 146 154 158 166 170 174 176 178 181 182 184 183 180 181 186 183 183 180 176 175 173 171 162 153 151 144 140 130 96 62 69 115 149 151 142 131 110 40 29 44 35 25 35 35 41 41 51 50 48 48 50 57 50 57 51 43 31 207 207 207 208 208 208 208 207 208 208 208 206 206 211 180 169 187 178 186 125 125 141 150 154 157 161 166 167 170 152 115 103 120 130 137 142 149 155 162 167 170 173 177 178 176 179 180 179 180 181 180 178 174 177 170 170 163 156 149 148 142 113 72 60 101 147 163 156 148 142 130 108 47 30 45 41 27 30 38 43 41 46 58 51 51 55 58 55 52 59 46 34 207 207 207 207 207 207 207 207 208 208 207 205 206 212 178 185 197 180 164 112 126 139 147 154 157 162 167 167 170 171 169 135 102 105 127 137 142 149 158 162 166 171 175 174 174 175 176 177 176 177 176 176 175 171 165 163 154 149 149 128 83 56 78 133 167 170 160 154 150 144 129 110 63 45 51 50 44 34 40 38 46 32 55 55 54 54 57 60 55 60 47 36 207 207 207 206 206 206 207 208 208 208 205 207 207 205 165 200 204 189 144 103 125 139 146 152 157 163 167 169 172 172 174 175 163 125 97 110 133 143 148 155 161 166 170 170 174 174 174 174 174 174 173 173 174 166 160 155 150 143 107 60 62 107 154 172 172 166 160 154 151 144 130 110 79 61 67 66 69 57 50 41 50 35 47 59 57 60 62 62 58 59 60 34 208 207 206 206 206 207 207 208 208 209 203 204 207 191 169 213 207 195 128 103 123 137 145 151 156 162 165 170 173 174 174 175 174 174 151 108 89 112 136 146 153 158 162 168 169 170 172 173 173 170 168 170 165 160 153 150 132 86 52 73 130 167 170 169 168 166 161 157 152 143 130 113 91 69 76 74 74 71 67 60 53 44 42 59 61 64 67 68 72 70 86 70 206 206 206 206 207 208 208 208 208 208 206 207 210 166 192 213 213 184 109 108 119 135 146 152 155 160 165 168 171 173 175 176 176 172 173 168 133 89 85 115 140 148 153 161 162 162 165 169 167 165 164 160 155 153 141 107 65 54 88 143 171 170 170 170 167 165 164 159 152 143 131 116 99 71 76 80 77 78 73 76 69 64 61 76 79 78 75 83 94 92 109 103 206 206 206 206 207 208 208 208 208 207 203 208 177 175 213 210 212 145 105 113 117 133 143 152 158 161 164 167 172 172 178 178 177 176 174 168 172 161 121 79 76 96 120 138 147 152 156 157 157 155 151 141 129 103 69 53 64 108 158 173 170 170 172 170 169 168 163 158 151 144 130 117 107 77 79 80 82 80 78 77 79 73 73 84 89 89 84 87 97 101 107 109 206 206 206 206 207 208 208 208 208 208 209 193 161 209 210 213 189 113 116 116 116 129 140 150 157 162 164 166 169 172 177 178 177 176 174 172 169 171 171 154 115 79 63 67 75 88 95 102 104 95 88 74 59 54 64 95 136 166 173 170 170 171 171 173 173 168 163 158 150 144 130 120 115 84 83 80 84 87 86 81 88 81 78 87 88 89 89 86 95 101 104 113 206 206 206 207 208 208 208 207 208 209 201 171 202 211 209 207 141 110 123 119 116 129 140 149 154 160 164 168 170 174 176 176 177 176 176 174 172 171 171 174 173 161 139 117 97 85 79 78 78 75 80 89 102 120 142 166 174 173 172 171 173 174 175 176 173 168 164 159 151 143 131 123 122 93 83 86 91 103 106 91 93 94 85 88 95 88 91 87 94 97 100 110