P2
# Generated by OpenCV 4.2.0
92 112
255
89 63 64 61 89 73 74 83 57 95 91 81 95 96 73 44 42 54 57 84 68 60 40 50 52 44 40 56 62 62 73 64 82 104 54 47 74 80 89 95 112 126 125 132 157 161 169 179 181 187 182 182 183 180 178 185 180 168 167 163 148 129 114 95 91 100 96 92 97 72 58 52 33 50 50 53 80 91 86 73 73 56 50 61 92 87 67 93 139 201 223 245 67 61 66 71 84 69 79 71 74 96 76 91 96 83 61 45 56 53 82 79 65 52 35 54 48 47 46 61 66 63 80 69 98 90 41 59 78 95 105 124 119 129 143 158 168 174 179 185 187 189 185 185 188 188 185 187 184 181 177 167 151 146 144 131 120 112 104 95 86 88 73 64 56 54 48 61 76 76 76 84 87 69 52 49 68 75 83 82 113 177 216 230 61 68 72 79 70 79 77 73 90 96 81 103 86 66 43 41 57 71 93 78 62 46 45 53 45 55 61 63 72 75 76 76 95 62 42 76 98 115 122 124 140 150 162 171 179 182 187 184 184 186 183 187 189 191 189 185 189 189 185 179 167 160 153 150 140 125 114 104 90 92 81 69 73 65 60 58 68 75 76 77 71 70 73 59 68 67 91 76 88 134 185 222 59 72 80 79 72 83 75 81 103 92 94 107 76 46 39 53 62 92 81 68 59 52 47 46 60 59 65 61 73 81 81 94 81 51 64 94 116 129 140 143 153 156 164 181 181 179 181 184 185 181 180 188 188 189 190 195 197 189 186 185 175 167 160 148 141 136 131 124 112 99 86 66 66 68 69 69 63 72 80 74 66 64 63 74 60 62 75 90 73 107 155 206 71 76 82 83 82 72 90 92 100 83 107 96 64 35 47 54 81 83 68 64 60 49 48 58 68 69 61 61 80 84 92 101 59 53 80 109 122 141 157 158 162 170 168 176 179 182 180 180 179 177 182 186 188 189 189 192 195 189 185 188 187 181 176 166 150 146 143 143 131 116 102 86 63 57 57 70 77 61 77 63 50 77 66 67 79 69 67 82 92 75 136 175 85 72 82 80 78 75 95 98 94 93 116 84 42 42 44 68 95 82 69 66 58 44 64 59 68 83 47 76 88 88 102 87 45 71 109 119 135 159 159 159 165 171 170 172 177 179 180 183 186 182 185 187 188 191 192 194 188 187 187 188 189 185 185 186 173 161 150 142 140 130 117 99 88 67 57 61 65 72 71 59 61 52 74 72 66 60 62 70 100 87 98 157 67 75 90 73 74 88 93 95 88 113 106 52 32 38 48 85 99 79 75 71 57 62 55 60 75 80 44 90 86 86 107 62 64 102 124 136 146 151 154 163 169 178 171 171 179 180 186 184 188 183 184 187 186 186 190 188 187 189 188 186 186 189 189 185 181 171 163 148 142 146 133 117 99 87 71 64 59 69 75 54 60 62 47 73 74 54 59 63 81 99 79 140 63 73 89 85 79 99 93 98 99 117 73 36 32 47 63 101 84 73 71 72 55 70 51 71 92 62 50 90 96 97 101 65 100 130 143 152 157 161 167 174 177 181 176 175 181 183 184 182 183 180 182 186 182 186 187 188 190 191 190 190 188 187 189 188 189 182 176 166 149 149 146 123 110 89 88 71 56 59 74 64 44 58 69 61 72 67 53 66 62 88 97 112 58 84 88 80 81 97 94 102 115 107 50 32 39 45 79 97 82 69 63 70 68 63 57 79 96 41 57 99 107 100 102 92 134 150 156 165 170 175 175 180 183 180 178 178 182 182 183 180 182 186 188 190 187 189 190 190 193 194 195 194 188 189 188 191 188 183 181 178 167 158 146 131 112 91 74 73 64 58 53 69 43 52 72 60 66 73 66 59 62 80 95 129 66 97 88 74 86 93 99 110 119 83 54 24 56 49 97 93 74 61 71 67 66 48 61 102 73 39 56 101 109 103 103 120 150 158 162 166 169 176 177 177 179 181 184 185 186 186 184 187 190 191 189 186 191 193 194 196 197 196 196 196 190 190 194 192 186 186 186 184 175 165 145 130 120 105 81 60 56 56 45 48 54 36 46 60 63 71 71 64 64 82 79 118 76 99 86 67 90 90 112 107 111 78 32 31 56 68 105 92 57 59 85 63 62 49 87 107 38 40 59 112 108 102 109 142 158 167 166 170 178 181 182 184 189 190 190 191 190 189 189 189 185 189 191 193 196 193 194 197 197 197 197 198 194 193 194 193 191 190 189 186 178 172 157 128 126 108 89 70 42 41 48 35 62 35 25 46 56 51 64 66 79 82 75 96 84 95 87 77 86 95 115 103 110 54 16 46 49 93 106 74 46 70 80 57 61 59 105 89 27 47 75 110 106 104 128 154 163 171 173 178 184 188 190 193 192 192 193 194 194 192 191 190 189 193 197 197 197 200 199 198 199 198 198 198 197 196 196 194 196 192 189 187 183 174 165 150 131 118 99 76 49 39 43 42 45 52 25 39 35 48 48 66 62 71 88 89 83 94 83 78 91 105 111 116 87 28 24 58 60 117 89 49 60 80 69 52 71 71 111 72 34 52 88 109 107 118 144 160 167 174 178 180 184 189 192 192 192 191 193 189 193 195 198 198 200 200 202 204 205 206 205 202 203 201 201 200 198 196 197 195 194 193 190 188 187 183 173 164 149 132 116 80 57 30 33 42 31 48 22 26 35 39 47 61 59 67 68 78 90 94 83 85 98 105 112 118 68 18 32 61 78 121 73 50 78 83 55 56 59 88 102 47 34 53 92 117 112 131 150 166 172 176 181 184 184 190 195 193 191 194 198 198 201 201 201 202 202 202 205 205 205 204 203 205 206 201 201 202 200 198 199 194 194 192 189 190 188 184 179 174 160 147 130 103 72 48 34 28 24 41 39 11 38 24 47 45 54 56 66 68 91 94 74 93 105 112 115 114 51 13 43 67 93 114 57 64 82 82 51 59 61 106 86 38 29 77 101 118 115 142 162 172 177 183 187 191 193 196 198 200 199 203 206 204 204 206 207 205 202 201 204 206 205 203 203 206 206 205 205 202 202 202 201 194 190 195 194 190 189 188 185 178 168 151 134 116 83 58 46 30 40 44 41 41 23 25 29 32 43 55 62 70 101 84 76 107 105 116 115 109 29 14 60 67 105 99 59 80 85 81 45 73 66 109 57 31 49 86 105 116 119 150 164 175 186 192 195 195 198 201 202 205 206 209 207 207 208 204 203 206 205 205 207 209 209 208 206 206 208 206 205 205 204 202 200 196 194 193 194 193 190 189 188 182 173 159 139 116 102 74 40 40 43 37 37 35 25 21 26 23 18 62 53 57 101 77 87 114 107 115 121 96 16 25 60 77 112 78 58 88 93 69 49 77 82 81 44 38 59 93 114 115 126 159 168 176 186 186 187 194 193 198 205 207 203 204 203 205 204 208 210 211 210 210 211 211 213 211 210 209 208 205 203 206 205 199 196 199 197 194 192 190 190 188 187 183 177 168 160 126 102 91 56 36 24 34 39 46 38 22 18 8 24 42 45 51 86 78 95 111 108 114 116 75 7 34 58 98 111 76 52 90 92 46 58 72 88 65 37 44 69 92 119 116 138 165 176 185 188 192 193 195 191 195 201 202 203 204 209 212 211 216 215 210 210 212 210 210 213 212 210 210 208 207 206 205 205 203 200 197 196 197 194 194 191 189 188 186 180 174 170 156 123 98 81 44 18 22 39 41 37 33 24 17 32 15 18 39 76 87 89 116 102 115 108 56 3 46 69 117 103 77 64 97 79 43 61 78 94 58 37 59 77 100 123 117 150 168 180 182 191 196 195 196 200 203 208 212 210 211 213 214 214 212 213 212 212 213 212 206 208 213 210 209 207 206 205 206 203 203 200 197 195 196 195 196 192 190 191 188 187 176 166 160 144 115 94 62 32 32 31 33 25 35 32 24 24 14 15 23 89 89 90 111 108 112 100 41 6 52 74 122 97 66 78 90 73 34 61 81 90 48 40 70 90 109 119 123 158 167 179 181 191 195 198 201 203 203 207 208 210 212 208 209 215 212 211 210 209 213 212 210 210 212 211 208 207 207 206 206 202 201 201 197 193 191 193 195 192 189 189 187 182 178 173 165 153 125 98 75 61 34 21 25 39 38 29 22 15 7 13 12 93 91 102 107 115 116 92 25 15 53 91 114 81 70 93 91 62 27 65 102 82 44 43 84 91 114 119 125 160 169 180 183 190 191 197 199 200 203 204 206 207 209 210 207 207 211 210 209 208 209 208 211 211 207 207 206 204 203 205 201 202 199 199 196 195 196 192 192 189 190 189 185 184 182 172 169 157 131 110 97 79 44 18 16 26 25 24 24 15 7 9 7 94 99 97 107 110 119 77 17 27 65 103 107 69 87 94 81 45 37 70 104 71 52 47 103 93 114 119 129 160 170 176 184 189 189 194 197 198 200 203 202 206 205 207 206 206 211 209 208 207 208 207 207 202 204 202 205 202 203 204 201 204 202 202 200 200 199 195 195 193 192 191 190 189 186 178 171 160 144 118 86 68 70 40 22 30 32 39 26 21 17 16 14 96 99 97 105 110 118 63 14 39 62 115 95 58 90 94 72 40 43 78 102 70 47 61 101 93 121 120 136 162 173 182 184 187 188 193 197 198 199 201 202 201 206 207 207 209 206 206 206 205 206 204 201 203 203 204 205 206 205 202 201 202 202 201 200 199 199 194 192 194 192 191 188 190 186 180 174 164 157 133 97 66 59 62 44 27 35 39 34 27 21 11 5 94 100 99 112 117 116 57 11 18 65 128 90 62 90 88 71 36 47 85 92 71 36 83 90 101 120 126 144 165 175 182 184 186 190 190 190 188 190 194 200 200 202 203 203 206 205 201 201 200 204 203 202 208 207 206 208 206 206 204 202 202 201 201 201 200 197 195 197 194 193 190 187 188 185 184 178 172 162 152 117 84 48 48 46 41 35 26 30 19 5 1 9 97 94 101 119 120 110 53 13 12 87 128 89 73 86 77 63 38 57 100 78 71 41 103 94 111 119 132 151 169 176 180 184 190 194 195 192 193 196 194 196 198 202 202 200 202 203 204 204 204 206 208 207 207 205 208 205 208 205 204 204 205 203 201 199 201 200 197 195 194 193 192 189 189 186 185 180 179 175 163 146 105 72 36 52 55 30 29 25 6 6 13 5 87 87 105 120 116 98 42 14 19 108 123 79 61 90 75 52 41 71 108 63 67 51 110 110 117 126 140 154 169 177 180 188 188 190 190 190 189 192 194 195 193 199 200 204 204 206 205 203 204 204 208 208 208 205 206 209 207 205 206 207 206 202 201 200 200 199 195 195 194 192 192 190 190 185 184 179 178 177 169 161 140 96 66 43 32 27 18 13 13 59 68 29 78 86 112 120 118 91 34 17 37 115 121 73 63 101 77 41 44 79 103 61 72 65 113 109 125 133 143 157 166 178 185 190 188 186 190 193 193 193 197 198 199 201 203 205 204 203 203 202 203 203 205 207 205 202 208 208 205 205 203 206 206 206 203 205 201 200 199 197 195 195 192 189 186 185 185 182 177 180 179 168 161 127 90 57 30 25 14 4 42 120 106 57 89 85 115 125 114 86 34 20 51 118 102 70 70 98 67 34 47 94 96 66 75 88 111 109 128 130 140 158 170 177 185 189 191 192 193 192 195 194 195 196 195 196 199 200 200 198 200 201 200 199 202 203 204 206 205 207 204 206 206 206 206 207 204 205 201 202 202 193 196 197 195 191 187 185 182 182 178 181 181 171 171 151 109 64 51 29 12 15 100 144 125 78 86 85 107 124 111 79 24 29 61 120 92 67 74 98 58 35 54 109 87 65 74 110 112 118 135 133 147 163 175 180 186 191 194 192 188 189 190 193 194 193 196 198 201 201 199 202 202 200 201 201 203 203 205 207 205 208 208 208 209 207 204 205 206 207 204 200 200 195 196 195 194 193 189 186 182 182 180 180 181 176 174 166 143 78 48 44 27 43 129 155 122 55 74 88 106 122 114 67 24 32 61 118 97 65 81 107 53 37 65 114 75 68 85 114 112 124 136 135 152 169 177 183 189 187 187 185 188 193 191 193 196 195 196 200 199 201 198 197 202 199 199 200 201 200 203 204 206 205 207 206 204 208 206 209 205 207 207 205 203 201 197 196 196 196 192 186 183 185 183 181 181 179 177 170 163 112 60 46 19 47 146 113 27 10 65 102 108 118 111 59 33 29 60 110 96 60 79 99 50 41 75 113 73 70 102 101 123 127 135 135 153 168 177 187 191 188 192 191 190 191 190 189 193 195 196 197 198 199 197 196 197 198 197 198 197 198 201 204 206 206 207 207 204 197 206 205 205 204 204 203 201 203 201 197 198 197 194 190 186 185 182 182 182 184 182 176 167 134 72 43 9 59 118 64 11 21 80 94 103 123 107 66 31 18 80 112 98 53 93 86 43 48 87 110 67 61 105 106 132 126 137 142 158 170 178 185 188 190 188 188 191 190 191 192 194 194 197 196 199 200 195 193 195 194 197 198 197 196 198 200 202 204 206 203 206 202 200 199 201 201 204 201 197 186 181 182 181 187 193 190 185 188 189 184 179 181 183 183 178 145 78 37 11 54 118 94 37 25 88 94 98 122 102 61 24 24 86 100 102 54 107 79 33 51 96 106 60 65 110 116 131 131 144 147 158 169 178 186 185 188 189 184 187 189 187 192 192 193 193 195 195 195 194 191 191 192 193 195 192 193 194 199 201 198 195 197 200 199 197 195 187 184 173 166 155 139 135 136 140 156 172 184 193 193 190 187 181 181 182 183 184 154 94 53 22 69 135 109 54 24 74 96 105 119 100 68 29 28 100 96 85 64 114 66 36 63 115 105 50 84 110 123 128 136 142 147 160 170 179 185 187 186 186 183 180 184 189 189 190 191 191 192 194 194 193 189 188 188 187 186 189 188 190 194 195 196 194 193 188 182 177 159 149 139 123 123 109 101 106 122 129 125 128 140 155 174 185 184 185 182 183 185 184 161 96 70 33 72 149 120 66 20 80 88 106 120 99 66 11 46 105 98 63 76 111 55 36 74 124 96 54 103 110 123 127 134 138 147 159 172 183 185 185 187 186 184 181 181 184 188 187 188 187 189 188 190 190 188 186 185 187 187 185 187 190 192 193 190 183 176 160 142 126 102 88 85 89 97 105 118 130 132 125 114 109 116 116 126 148 180 190 182 184 186 183 168 108 79 37 78 152 132 79 20 79 79 105 122 105 55 7 64 98 96 57 90 105 51 39 79 122 78 62 110 107 130 134 134 135 143 159 170 176 182 185 184 183 182 181 181 180 182 183 183 186 189 187 188 188 182 183 184 183 181 179 175 176 172 164 147 137 124 108 90 72 77 86 82 89 102 114 126 131 123 125 135 136 130 135 123 138 176 186 185 182 186 184 174 120 76 47 93 147 141 88 24 89 79 116 119 101 46 12 61 96 84 52 101 98 49 45 96 123 63 79 111 114 138 136 133 135 147 160 169 171 178 182 176 176 178 179 176 179 177 179 184 184 184 186 185 185 183 178 183 179 173 160 147 147 129 107 94 84 81 77 64 67 88 74 70 88 92 98 105 131 136 139 141 137 146 145 150 162 171 185 186 185 186 186 179 127 94 73 111 142 140 99 25 94 85 117 119 99 39 15 66 99 78 60 107 87 38 61 118 116 60 98 118 121 138 129 133 137 151 161 164 165 170 170 170 174 175 172 172 172 174 176 182 180 180 181 182 184 181 176 178 172 159 139 133 119 99 82 70 77 75 61 70 77 73 81 107 134 141 154 168 177 182 178 170 175 175 172 169 176 178 185 186 187 187 188 184 138 97 104 132 142 139 114 26 101 89 114 118 97 42 18 59 101 75 69 111 81 29 72 122 109 64 109 104 134 145 130 118 113 122 130 129 131 130 146 157 160 170 167 170 172 174 173 176 179 179 176 178 179 177 176 173 163 141 122 124 111 101 88 80 75 72 77 99 107 130 155 170 177 178 179 182 185 183 185 190 188 183 179 175 180 182 189 186 191 190 188 184 158 116 115 137 142 143 129 36 105 73 123 110 96 33 21 65 104 63 70 117 71 37 74 129 95 82 115 111 143 137 131 66 40 55 67 80 86 86 101 130 141 150 152 164 167 172 173 174 176 176 177 176 178 173 172 169 158 135 121 123 121 109 102 94 100 109 127 149 170 179 178 178 179 176 173 174 171 174 177 178 181 180 179 181 181 189 190 190 191 190 189 185 161 134 127 143 145 144 139 47 88 74 122 101 92 33 29 70 110 65 84 127 58 46 87 132 92 100 115 133 143 134 112 36 33 35 41 52 63 75 80 93 119 139 139 150 161 166 174 173 176 173 175 175 174 172 175 169 150 132 133 137 134 126 122 127 141 156 161 172 171 164 161 153 146 149 150 151 165 169 169 171 175 176 177 176 182 187 188 186 187 191 190 186 164 148 147 144 150 151 146 58 73 71 122 101 84 49 23 84 106 65 104 127 43 58 108 128 96 95 119 144 148 135 81 27 34 31 19 34 57 58 68 76 97 124 129 144 156 163 169 173 174 175 174 176 173 170 173 167 151 146 151 142 128 125 136 145 136 118 103 94 81 96 106 105 106 114 124 114 124 129 161 169 176 180 178 174 183 184 182 184 189 193 191 189 168 162 164 152 155 160 148 69 91 73 121 106 84 50 17 104 98 68 116 115 44 68 129 126 88 98 137 157 139 120 65 45 37 35 34 39 48 58 63 80 92 110 124 137 146 156 162 169 170 170 175 175 174 172 171 169 163 156 145 131 133 142 131 88 60 46 29 13 15 24 32 36 48 52 70 100 103 104 101 129 167 175 173 179 179 177 182 190 191 192 193 190 172 161 170 149 153 159 143 72 92 74 120 103 86 50 16 120 91 70 129 107 47 80 142 118 81 121 151 151 139 105 90 102 100 95 92 90 88 83 82 85 93 98 112 125 136 144 154 163 165 164 172 175 174 174 171 166 159 150 139 139 145 127 78 33 16 18 52 82 81 78 65 26 34 30 11 14 18 53 83 107 124 148 170 177 183 188 191 190 192 191 192 189 174 163 158 151 155 163 134 81 85 77 117 102 86 40 21 129 82 76 131 102 45 92 140 108 96 136 160 148 135 105 113 127 137 139 138 137 132 125 116 106 99 94 94 104 117 132 148 159 167 173 174 175 178 175 172 165 156 142 139 145 126 85 38 46 54 54 88 57 30 76 72 47 102 102 67 43 33 46 61 116 139 163 178 184 191 192 191 193 189 189 190 190 176 168 147 154 173 161 126 92 89 87 116 104 89 26 45 133 69 85 128 93 53 117 138 92 113 154 157 146 119 106 105 102 104 97 87 89 100 117 129 131 124 113 105 96 99 118 139 154 167 173 176 180 179 178 174 167 156 144 142 136 120 74 48 142 141 72 88 92 89 100 104 110 123 126 152 151 150 151 150 163 173 178 183 190 195 194 194 191 189 190 188 188 178 162 161 166 174 129 133 91 80 89 122 106 84 16 67 128 70 107 133 73 58 142 121 96 134 160 151 123 96 77 50 41 38 38 36 32 51 65 76 99 125 125 118 109 102 103 130 149 163 172 179 184 187 186 180 172 165 153 153 150 111 72 87 122 125 109 96 109 123 143 154 163 179 181 177 182 179 177 184 185 189 192 191 195 194 192 192 191 189 190 189 188 176 152 166 178 158 128 152 78 69 83 118 106 76 17 74 119 66 117 131 58 73 150 116 113 158 163 131 83 82 68 24 12 24 53 44 29 34 44 78 82 97 117 121 115 110 108 120 147 163 177 186 195 199 196 186 177 170 165 175 127 73 101 118 126 136 151 146 165 173 175 177 184 189 182 182 184 187 188 185 186 188 193 196 197 195 193 193 192 190 191 189 187 172 154 172 195 179 152 160 67 61 97 108 107 79 20 81 104 79 124 115 42 110 146 102 136 164 158 67 68 86 69 11 18 100 146 97 77 127 82 47 60 105 119 118 118 118 123 127 145 169 185 192 201 205 200 186 181 175 178 174 119 109 140 148 154 159 162 166 171 172 170 170 172 174 178 183 185 186 186 188 192 193 196 198 198 198 192 190 191 189 190 190 187 174 174 190 201 193 171 162 52 58 104 111 103 65 21 91 101 88 130 106 51 150 130 108 157 160 132 31 71 82 63 54 46 26 58 39 92 191 179 126 74 63 100 131 133 142 136 137 145 170 189 195 201 206 203 187 183 181 182 182 178 181 168 158 153 156 156 158 160 161 165 167 175 183 189 187 186 187 191 189 192 193 192 195 195 193 193 190 190 190 191 190 188 180 191 198 199 196 190 167 40 65 104 109 97 59 33 104 100 104 140 93 91 158 121 138 168 149 101 42 96 87 63 64 79 76 86 75 107 143 131 113 114 106 83 85 136 156 143 141 144 168 189 192 200 201 200 190 186 188 187 193 189 180 171 163 156 156 158 164 165 168 173 176 181 182 182 181 181 183 187 192 196 195 195 195 197 195 193 194 189 188 187 188 188 181 190 202 204 198 194 193 71 65 102 109 91 59 47 107 97 112 135 96 108 148 122 153 161 127 90 75 101 99 87 93 98 96 113 121 141 142 148 151 149 151 132 128 155 166 147 144 147 166 187 193 198 199 201 190 185 189 191 191 191 185 177 176 173 172 173 173 173 172 175 177 178 179 183 188 191 195 198 199 199 201 200 200 199 197 196 191 190 190 184 186 187 184 192 202 205 200 196 200 95 67 105 106 89 52 49 114 94 115 135 87 117 142 135 160 134 115 97 93 100 111 113 122 121 119 150 164 167 166 163 164 161 165 175 178 169 160 152 147 153 166 185 194 196 199 201 193 185 188 192 193 191 191 184 185 183 183 176 177 179 178 179 185 188 191 192 191 193 193 195 196 200 197 200 199 201 198 193 187 190 185 184 186 187 187 187 187 193 199 194 196 78 79 110 106 76 52 50 121 101 125 129 72 132 141 154 159 122 112 98 98 108 118 131 142 144 151 157 162 156 157 158 159 161 162 166 172 163 157 155 152 153 166 181 188 196 198 198 191 185 185 189 195 194 190 188 188 190 188 186 184 187 186 186 192 193 192 191 191 193 193 192 195 198 199 201 203 199 198 192 188 188 185 183 184 187 183 173 182 197 198 187 174 33 88 116 93 70 56 70 128 97 135 113 67 153 153 163 142 108 115 103 109 109 115 118 126 137 146 150 154 157 160 156 157 161 160 156 163 167 162 155 155 154 164 177 188 194 198 192 191 187 183 191 196 194 194 191 190 189 189 189 188 188 189 190 191 191 191 191 191 192 194 194 194 197 199 199 201 199 196 194 189 189 184 183 184 185 187 186 159 171 196 200 90 1 85 116 89 85 64 54 114 104 139 86 90 163 160 153 116 105 118 112 121 112 123 128 136 143 147 151 155 163 164 162 162 163 165 161 164 167 158 156 155 156 163 179 188 193 193 195 194 190 184 188 193 193 194 195 195 193 192 193 192 192 193 192 193 194 194 195 193 195 195 196 198 201 201 199 201 200 198 197 191 187 186 185 183 186 191 167 151 169 220 201 28 6 94 117 97 83 43 69 124 108 138 90 122 169 162 139 102 113 112 130 126 117 128 128 137 143 149 157 162 163 164 164 163 165 170 167 168 163 156 157 157 161 164 177 188 196 195 194 191 188 187 188 191 190 191 194 194 194 195 193 195 192 194 198 199 201 199 198 200 200 199 202 206 207 205 202 201 203 201 195 192 188 188 185 185 187 187 132 153 193 234 179 23 12 115 116 84 63 43 100 127 114 131 88 146 169 157 119 105 115 115 134 122 126 132 137 147 153 156 160 162 164 167 170 169 171 173 173 168 162 157 158 160 164 166 177 191 197 197 195 193 188 190 193 192 193 196 195 194 195 196 196 197 197 198 201 201 200 198 202 204 207 206 204 205 211 211 207 206 202 201 198 193 189 188 182 186 187 182 157 187 187 187 41 2 15 127 103 73 60 45 99 120 118 118 89 169 156 134 105 113 109 120 139 132 148 154 154 156 160 163 170 169 172 174 171 171 175 175 174 166 162 159 162 165 164 166 177 193 198 198 198 196 192 190 193 193 194 198 198 197 198 196 198 201 200 201 202 202 202 204 203 204 209 210 206 210 214 214 212 209 208 204 198 195 191 188 185 184 184 189 116 89 81 19 1 9 16 124 102 75 57 57 104 117 121 117 135 170 141 119 98 117 106 125 135 139 155 156 165 169 170 172 177 175 175 173 174 173 175 175 173 167 163 165 166 168 166 170 181 193 199 196 196 196 194 191 193 193 194 199 200 202 202 200 201 202 203 201 202 205 204 204 202 204 205 210 209 212 209 212 210 210 209 204 197 194 192 188 184 185 185 195 80 0 0 1 7 11 19 124 95 74 63 82 122 116 121 128 162 152 135 99 104 109 99 133 131 137 154 158 165 167 169 173 172 173 174 175 175 175 178 176 174 170 169 170 171 171 171 171 180 190 197 197 197 200 196 192 193 197 195 199 202 202 197 201 200 199 201 201 202 207 204 203 204 201 202 205 207 205 206 205 204 206 204 201 198 194 190 186 184 183 182 194 81 0 5 3 6 9 10 111 90 75 77 88 109 116 119 145 168 120 122 94 120 98 106 136 124 138 153 158 161 167 169 173 173 175 176 177 175 177 180 179 177 176 178 171 174 171 169 173 183 191 195 196 199 199 195 191 192 196 196 197 198 192 186 179 180 184 189 192 194 199 197 197 202 201 194 197 199 201 196 195 195 198 197 195 194 192 186 182 184 183 179 192 85 2 8 3 6 7 11 101 90 83 78 76 118 114 118 153 154 114 112 94 115 95 118 130 124 142 151 158 165 166 173 177 179 179 179 175 177 182 182 180 184 184 184 174 178 173 171 176 183 190 193 198 198 198 197 195 193 194 194 194 190 192 187 173 161 160 169 175 179 183 188 189 189 191 193 192 194 189 189 189 189 186 189 188 188 187 182 175 182 181 175 190 78 0 7 5 5 9 13 113 87 70 77 87 111 118 136 166 132 107 102 106 100 99 129 125 126 143 148 159 168 173 177 178 180 180 179 178 179 187 190 186 183 180 177 174 175 173 172 177 185 191 195 199 200 201 197 193 193 191 188 187 185 185 186 180 161 146 142 149 161 167 171 176 179 178 181 182 182 182 184 182 184 181 179 182 183 181 179 182 183 180 175 189 67 1 9 6 3 9 13 93 90 73 86 87 106 125 155 155 106 102 108 113 91 107 133 121 131 144 155 165 170 177 180 177 182 183 183 184 187 189 184 178 168 160 162 169 170 170 170 179 186 188 193 197 198 198 192 192 192 192 188 186 187 189 189 183 168 152 143 132 131 144 155 162 167 171 174 174 174 177 176 176 177 176 175 176 179 178 176 180 182 177 174 186 75 1 6 7 5 8 12 97 85 72 76 86 106 139 156 145 84 102 114 105 92 119 130 121 136 146 160 171 174 179 181 181 183 185 188 187 184 178 173 160 148 148 156 164 165 166 167 175 183 188 191 195 196 193 195 194 191 190 191 188 190 191 193 191 161 155 163 153 135 123 128 143 154 162 165 167 170 173 171 172 173 171 171 171 172 173 175 178 178 174 172 183 56 3 14 10 6 9 11 103 59 71 77 105 120 133 156 124 70 108 114 96 96 126 120 124 137 150 159 168 175 180 181 180 183 179 179 175 172 167 157 139 131 142 155 165 170 163 164 175 185 191 193 194 197 194 196 196 192 193 193 190 189 190 192 188 168 168 172 172 165 147 123 117 133 145 152 158 164 165 167 168 167 168 168 167 167 170 171 174 175 175 179 175 28 5 16 13 6 7 10 80 59 74 78 118 98 140 151 103 74 117 110 82 98 126 119 127 141 150 158 164 172 176 175 173 174 173 168 165 160 152 135 123 123 141 158 169 171 169 166 174 185 192 196 198 199 199 198 202 201 199 194 188 192 194 189 179 178 182 184 183 181 175 161 137 113 119 136 147 153 156 160 163 163 164 165 165 165 167 170 171 174 175 180 166 20 8 13 15 7 5 7 70 72 81 93 111 105 149 137 86 86 116 102 84 109 122 117 125 135 148 157 159 165 168 169 167 167 165 161 157 150 132 123 130 117 139 163 168 173 169 166 174 188 191 192 197 202 205 209 211 212 204 190 190 191 184 175 172 187 193 192 190 186 180 174 166 151 120 106 123 141 150 155 159 161 165 165 164 165 165 163 167 173 175 186 152 8 10 10 13 12 10 8 52 77 86 105 111 132 139 129 72 96 118 89 100 112 114 115 123 134 145 152 159 159 163 162 164 162 156 152 145 131 125 139 149 144 141 160 170 173 170 164 176 196 203 199 202 200 199 207 201 195 186 179 184 177 163 165 181 191 194 192 190 187 185 177 171 162 151 129 105 105 128 143 154 163 162 164 164 165 162 162 168 174 177 189 132 1 15 20 18 23 18 13 47 78 96 118 118 130 132 121 73 98 111 82 112 109 110 110 122 135 143 147 155 158 160 156 157 157 149 145 132 126 147 155 158 157 149 150 164 169 167 165 172 181 194 196 194 192 186 188 182 175 170 170 166 156 164 186 192 191 190 187 189 188 186 185 179 169 161 146 128 106 100 119 142 156 161 164 166 171 171 169 173 176 177 192 112 1 11 19 10 10 13 17 63 96 115 119 102 126 128 113 67 112 104 85 112 114 111 106 120 133 141 145 149 155 155 155 152 148 143 133 129 144 157 162 161 166 162 146 144 154 161 164 165 168 171 177 179 178 177 175 172 164 158 160 165 174 188 189 189 189 189 191 191 187 187 191 188 182 176 160 136 120 114 113 120 143 155 164 167 163 175 177 174 177 180 189 82 1 12 16 11 12 10 11 64 105 119 115 117 127 130 103 67 124 78 99 109 121 109 103 117 131 135 139 145 151 151 147 144 142 134 125 141 153 158 161 164 166 169 169 152 141 138 144 150 158 161 163 165 163 163 162 159 156 158 171 183 184 184 184 184 187 189 191 191 193 189 186 187 185 178 166 151 131 116 139 128 132 151 161 164 166 177 178 176 177 179 184 65 4 12 12 11 13 14 11 74 99 109 110 126 119 130 83 81 118 73 109 102 118 99 103 116 125 132 137 139 141 142 142 142 134 122 136 151 153 156 159 163 164 165 168 169 168 163 155 153 152 150 155 153 150 149 153 158 155 163 171 174 176 179 183 185 187 191 190 192 192 191 188 186 182 177 168 152 121 110 149 149 145 156 161 163 171 177 177 175 177 182 170 36 10 11 12 15 15 15 13 72 93 113 106 124 112 125 66 100 102 85 98 100 112 97 104 114 124 129 135 139 142 142 141 133 121 133 148 148 148 152 156 165 168 170 172 169 168 168 165 162 153 139 144 149 141 140 151 144 146 158 162 171 172 177 179 181 184 187 186 185 188 183 179 180 180 178 165 139 109 116 152 157 156 161 165 169 171 176 179 179 179 185 148 16 16 11 12 13 20 21 12 59 106 108 115 116 101 111 62 113 90 87 105 116 115 98 106 115 123 125 130 136 138 137 132 123 131 143 138 140 146 151 160 166 169 174 173 171 168 167 161 155 146 138 129 128 127 127 130 133 144 152 163 168 170 175 178 180 184 183 180 183 178 167 168 167 143 96 75 102 129 135 156 162 163 168 166 170 174 178 176 179 180 188 120 10 22 9 15 16 21 22 16 56 111 107 113 111 111 95 80 117 74 92 96 110 105 100 108 114 118 121 127 134 132 127 125 128 141 135 130 139 148 153 156 162 167 171 170 172 169 166 164 161 153 149 144 140 143 144 152 158 159 167 172 177 182 183 181 180 174 172 169 162 152 143 118 68 40 32 47 120 152 145 158 162 166 171 170 170 175 177 176 179 178 187 84 9 25 9 16 17 24 25 23 79 112 117 105 107 115 90 102 100 72 98 94 108 100 99 104 110 113 118 125 127 125 126 126 133 137 129 133 134 145 151 156 163 169 170 169 168 173 171 167 168 169 170 171 169 169 169 170 172 178 181 177 171 168 164 165 163 156 152 145 138 130 152 67 38 79 97 120 161 161 156 160 162 168 170 170 172 177 177 177 180 179 176 52 16 23 10 16 22 28 25 27 106 128 119 98 102 109 92 112 85 88 95 103 114 99 100 100 108 114 118 122 123 124 129 126 133 132 126 129 135 142 149 152 160 169 173 175 178 180 178 176 175 177 178 182 182 181 180 184 180 172 161 151 152 150 152 147 146 141 135 136 145 169 194 90 85 109 129 161 178 170 163 159 163 168 171 171 173 173 177 178 178 182 145 19 31 25 9 16 20 26 32 31 129 127 100 103 105 91 93 117 76 99 102 98 116 102 101 104 110 115 118 120 120 125 128 125 130 128 118 127 133 138 144 146 148 161 165 169 172 166 161 159 156 158 156 150 152 152 152 152 147 140 141 143 138 135 136 134 133 142 172 155 177 195 168 112 109 132 167 185 178 173 165 156 164 173 171 174 173 174 178 177 176 186 95 3 34 27 12 18 27 28 36 33 122 117 89 100 109 73 107 110 85 94 105 103 117 108 102 103 113 113 118 122 124 133 130 125 137 115 98 104 120 133 141 140 138 140 146 143 144 143 141 143 144 139 140 134 132 135 138 137 135 126 120 124 122 121 132 150 146 167 217 178 196 184 128 125 138 163 191 191 181 173 165 161 168 173 171 172 173 175 177 176 177 175 50 11 32 28 18 28 30 27 39 40 124 87 92 94 99 81 117 102 98 78 90 118 117 111 106 105 114 118 126 126 124 136 139 132 142 126 95 65 22 41 62 75 92 106 112 127 130 120 128 128 125 118 114 118 113 112 116 113 110 115 140 153 144 141 165 199 161 188 223 205 197 148 121 145 154 191 195 187 182 173 163 161 170 171 170 171 175 174 175 175 182 143 18 21 36 31 19 24 33 31 42 45 108 67 91 89 90 91 110 100 93 71 87 122 124 116 112 106 113 120 132 132 127 139 149 144 143 144 139 116 49 26 22 12 23 93 90 108 119 143 118 103 114 138 108 110 130 152 142 137 133 167 221 234 193 156 194 224 190 199 217 205 151 144 155 160 179 195 188 184 178 171 165 167 170 171 172 173 173 175 176 175 182 88 11 29 41 29 23 25 32 31 43 47 67 63 99 93 85 107 105 103 82 71 96 107 130 120 118 112 110 119 132 137 134 137 148 153 151 152 152 154 129 95 71 53 46 100 126 147 138 189 177 126 156 206 162 144 195 220 215 184 165 207 226 223 222 179 205 222 210 200 213 190 135 157 159 172 192 191 189 182 176 172 171 171 172 172 173 172 172 174 174 178 154 32 20 34 37 31 30 32 33 35 50 45 32 77 91 89 92 106 99 94 84 72 111 59 116 129 118 117 112 118 128 136 138 137 144 152 158 155 153 155 158 151 124 91 81 81 93 152 158 186 205 183 176 214 200 168 207 217 219 208 178 213 222 223 221 201 210 220 203 175 192 170 163 167 167 183 189 190 189 186 176 172 169 169 171 171 170 172 172 174 173 182 86 18 29 35 35 29 32 40 44 43 50 40 41 90 85 86 94 87 98 91 79 80 105 53 67 128 120 120 116 116 123 132 136 136 143 153 156 155 151 155 164 162 154 130 112 108 100 126 139 176 195 194 195 213 210 188 206 217 215 213 189 205 217 217 219 201 204 207 166 140 156 167 179 172 177 188 185 189 187 184 182 178 171 171 170 169 168 171 173 173 179 143 28 28 28 38 36 26 33 39 42 41 51 41 84 88 83 90 90 88 97 94 76 86 106 71 8 82 132 120 124 120 122 127 135 137 140 150 157 154 154 158 162 162 157 148 133 121 127 125 108 134 191 185 183 209 203 189 203 211 208 206 185 195 206 207 202 164 146 153 154 167 171 181 175 175 181 186 185 186 183 184 185 179 175 175 171 168 168 170 171 173 173 70 22 38 29 38 35 29 38 41 44 39 56 47 97 73 84 100 85 92 87 89 73 101 103 57 0 17 119 126 124 125 124 126 131 136 134 144 156 156 152 156 161 164 158 150 145 138 131 132 129 139 162 150 130 175 180 149 173 196 193 185 167 169 179 174 164 152 149 154 168 178 180 173 166 177 182 187 188 183 183 187 184 179 177 173 171 169 170 171 170 179 113 35 33 38 30 39 38 35 47 47 49 42 56 55 88 73 98 95 81 76 89 79 78 106 86 45 0 0 40 128 126 123 125 127 130 137 135 138 149 153 151 153 157 159 158 154 148 153 148 138 139 151 149 134 131 140 145 136 148 164 165 161 151 151 162 163 166 172 174 178 184 174 167 160 174 182 183 186 184 183 184 187 185 179 177 173 171 169 170 171 173 150 40 40 34 38 37 39 40 39 52 49 51 52 51 56 77 83 103 89 71 76 90 69 89 101 80 31 1 0 0 68 132 124 125 127 131 135 138 139 142 151 150 150 151 151 155 157 153 152 160 145 141 145 161 159 153 157 155 161 162 169 168 173 176 179 184 191 184 182 178 169 158 157 156 167 181 185 183 183 183 185 188 185 183 179 177 173 172 170 171 170 168 80 24 44 37 40 41 41 43 41 50 50 54 59 50 53 70 91 104 80 66 90 82 73 97 98 73 18 1 0 0 2 86 132 124 127 130 132 134 138 138 145 155 147 149 153 154 157 159 154 156 162 147 139 153 163 168 166 169 170 171 175 181 177 176 171 174 170 163 161 153 150 146 152 167 182 183 181 180 184 184 186 188 186 181 179 176 173 171 169 170 169 132 53 31 48 39 44 42 45 49 40 53 53 56 60 52 59 80 95 98 70 78 94 73 78 99 96 53 5 3 0 1 0 13 106 130 127 129 133 134 136 136 139 149 150 144 152 155 155 157 159 155 162 165 156 145 142 149 155 153 162 156 154 155 157 157 156 152 154 149 145 141 142 155 168 179 180 181 181 179 183 186 188 186 183 181 177 176 173 172 170 168 152 112 62 34 52 43 47 43 47 50 45 59 51 58 67 57 62 82 101 84 65 91 82 65 87 100 94 39 6 6 0 1 1 0 23 111 132 128 133 133 131 136 139 145 153 146 145 154 154 158 159 158 158 163 170 162 150 141 141 142 148 147 149 147 147 147 145 145 140 137 135 141 157 168 176 176 176 177 179 180 184 188 186 184 183 180 176 173 174 169 166 162 141 113 67 34 51 43 42 46 54 56 48 59 52 59 71 57 67 94 97 68 73 93 73 65 96 99 92 25 4 6 0 1 0 0 0 33 119 130 131 133 133 135 135 141 150 152 143 148 156 159 160 160 157 157 165 170 167 159 147 139 134 133 135 133 136 135 135 133 133 133 142 156 165 169 168 170 175 177 179 181 187 191 186 182 183 181 175 172 170 165 161 157 142 116 70 36 47 49 47 46 57 58 51 65 56 57 74 57 72 95 83 64 88 74 70 71 98 94 81 7 13 16 13 10 7 4 2 1 49 123 131 131 134 135 135 137 144 151 151 144 154 160 161 163 160 159 161 165 167 168 168 160 151 147 142 137 139 142 149 149 151 150 154 158 161 163 165 172 176 180 181 185 190 190 185 185 183 177 174 171 166 160 167 159 147 127 78 38 45 49 46 48 60 57 63 80 57 67 74 64 76 93 75 77 78 75 68 78 100 91 82 29 37 35 23 19 16 10 6 36 15 53 123 133 134 136 138 137 138 148 155 149 148 157 161 166 166 162 161 160 161 161 161 162 160 156 153 152 152 150 154 154 157 158 156 159 159 164 170 177 180 180 186 192 193 188 185 185 182 176 171 167 160 169 172 158 153 135 88 40 42 50 47 51 59 54 63 62 62 72 77 68 80 91 65 84 77 77 67 86 101 77 67 24 21 6 8 11 6 5 7 62 45 4 59 120 135 136 137 137 137 143 149 154 152 155 163 169 170 165 163 162 160 160 158 156 154 152 153 154 154 151 147 151 158 163 164 165 170 175 180 184 184 186 194 197 194 188 186 184 179 171 166 161 167 177 170 161 154 138 100 49 44 47 51 51 62 53 66 79 62 72 84 77 82 62 71 85 75 75 64 94 97 61 55 24 12 8 13 6 2 5 4 46 87 20 4 67 120 134 136 139 138 140 144 151 154 155 160 167 172 173 167 167 164 163 161 159 160 158 158 160 163 161 163 166 169 173 178 181 185 187 188 189 191 196 195 194 194 189 186 180 175 168 161 167 177 176 171 164 155 143 114 57 42 47 53 51 64 52 63 84 61 80 87 77 81 58 83 74 71 68 68 104 86 57 52 38 12 17 12 8 8 7 16 26 67 65 6 38 80 115 136 138 139 140 142 146 153 158 159 163 171 176 175 172 172 170 170 168 167 171 173 175 177 179 181 183 186 187 192 196 192 191 191 190 194 196 193 190 194 188 184 178 169 161 167 175 178 175 171 167 161 146 121 70 43 46 53 54 76 51 61 73 72 77 85 89 81 77 74 71 69 65 81 107 72 62 51 38 26 22 17 18 12 7 17 28 43 66 17 33 73 86 115 136 139 139 140 144 151 155 161 163 169 174 177 178 176 177 177 178 178 183 183 185 188 190 192 194 193 194 195 193 194 197 194 196 197 195 194 193 189 185 182 172 161 168 175 179 178 178 172 167 163 149 128 80 49 46 55 58 78 56 55 75 82 75 93 89 78 76 70 77 69 66 94 102 61 65 52 42 14 8 4 9 11 12 9 7 35 40 17 21 76 88 95 119 139 143 142 144 148 153 160 165 169 173 178 180 181 178 182 185 183 185 189 189 190 192 195 194 192 194 194 193 195 195 196 195 194 192 194 192 185 181 176 165 168 175 179 183 180 180 176 169 162 153 135 87 52 44 55 64 79 64 48 78 87 95 99 94 86 68 73 73 63 72 97 78 48 73 51 34 15 15 12 5 10 10 16 8 6 44 29 16 67 96 100 105 120 138 145 147 148 152 158 165 166 172 177 182 182 180 184 181 186 188 188 192 193 194 194 193 192 193 193 194 196 197 194 190 186 189 191 187 180 178 168 169 177 177 181 183 183 182 178 169 163 156 137 95 56 41 47 72 77 74 53 68 93 103 107 101 82 71 77 58 66 78 93 60 66 55 21 27 11 14 15 14 9 7 12 17 1 15 33 13 53 99 104 110 116 122 133 143 148 150 157 162 166 168 176 181 184 184 185 185 185 187 189 189 193 193 192 192 192 192 194 196 195 192 189 190 187 188 186 182 178 170 170 176 178 181 183 183 184 186 181 170 164 159 139 100 58 48 48 71 76 85 54 55 86 103 116 113 84 83 64 64 73 93 70 68 46 23 33 22 11 14 9 11 8 13 7 12 3 5 6 27 57 97 106 114 120 122 121 129 138 148 156 163 165 170 172 177 180 179 181 184 183 183 185 187 189 188 190 188 188 191 192 190 188 188 185 188 187 185 181 178 173 167 174 175 179 184 184 186 187 185 178 174 168 158 145 112 61 47 47 67 73 87 67 53 68 102 114 117 82 74 59 63 83 99 77 68 30 30 41 15 15 15 11 16 10 12 12 11 2 38 17 8 51 99 108 116 123 123 125 126 124 129 142 156 167 170 170 174 177 172 178 178 180 182 183 183 185 188 185 183 183 184 184 181 182 183 183 180 182 179 176 172 169 172 177 174 180 181 183 187 188 184 179 178 172 163 151 123 71 45 54 60 77 85 81 58 64 84 117 115 77 64 67 68 85 93 80 61 35 38 43 16 20 23 16 20 15 9 14 10 2 13 89 81 43 101 108 116 124 127 127 128 130 125 124 131 148 167 172 174 174 175 175 175 175 176 177 179 179 179 180 176 176 177 178 178 177 174 176 177 175 174 171 169 169 175 177 180 182 180 186 188 187 183 182 179 172 165 153 131 83 43 56 53 79 83 93 78 63 72 102 116 73 61 75 80 86 81 67 65 16 35 60 34 35 27 12 25 22 10 17 5 1 23 100 119 78 102 109 116 122 128 130 129 131 131 127 122 116 131 162 175 174 173 175 172 171 174 173 173 172 173 173 172 175 174 171 170 170 168 172 172 170 168 166 167 170 175 177 182 181 184 184 186 186 185 182 178 174 166 157 139 96 45 53 60 77 87 93 89 83 81 81 110 73 77 82 90 89 76 83 37 13 33 45 38 46 21 12 29 24 13 22 7 5 20 39 94 103 104 109 117 123 128 132 134 133 131 130 128 123 117 119 149 174 175 171 170 169 170 170 168 171 170 168 168 171 168 163 165 167 166 166 166 164 163 164 169 174 172 175 181 184 183 183 185 183 186 185 181 177 168 159 142 112 58 51 59 79 87 97 93 81 96 79 87 73 89 94 84 83 93 67 22 26 36 48 35 38 27 15 38 26 16 26 10 9 12 35 46 86 110 113 117 124 132 133 134 137 136 133 133 129 128 123 120 136 162 173 171 168 167 165 163 164 162 164 164 163 161 158 162 159 157 158 157 158 161 166 170 174 172 176 181 183 184 184 184 184 185 185 181 176 170 159 147 123 69 51 56 71 86 91 98 88 100 95 73 63 101 92 85 90 78 35 28 30 42 67 51 42 26 16 43 21 21 28 15 9 2 1 22 96 110 114 117 123 128 132 134 137 137 132 133 133 133 132 127 121 127 146 159 163 162 159 156 157 154 152 154 152 149 149 148 146 153 151 154 159 161 165 169 171 174 178 179 182 184 182 183 185 180 180 182 177 170 163 157 135 84 64 53 70 85 98 98 101 95 99 91 59 93 90 85 86 55 35 38 28 56 78 56 45 23 31 59 19 25 32 20 8 0 0 47 105 108 117 119 123 126 132 135 137 136 135 135 134 131 133 134 133 130 129 134 143 148 151 151 149 146 145 143 143 144 145 146 149 150 151 158 161 164 165 169 174 177 178 177 181 185 183 184 182 182 182 182 175 169 165 161 141 100 75 58 69 83 94 98 101 103 92 96 73 95 80 87 74 48 43 39 40 82 75 63 55 22 50 57 25 35 31 26 8 0 1 70 108 109 114 120 125 128 132 135 136 139 139 136 137 136 136 136 137 137 140 140 138 138 142 145 148 148 146 145 145 145 143 141 144 150 154 158 161 164 167 172 176 178 179 179 181 183 184 184 185 187 183 181 178 173 167 162 146 115 84 68 73 73 88 95 96 99 94 89 78