P2
# Generated by OpenCV 4.2.0
92 112
255
36 39 30 15 25 15 44 44 60 55 38 30 20 12 8 17 21 29 35 36 43 53 57 58 70 77 64 60 59 63 52 45 63 71 92 73 90 82 93 99 116 122 111 109 102 93 91 85 83 81 70 71 69 70 73 82 83 88 91 84 79 75 63 55 41 36 24 54 53 67 50 82 96 79 89 82 57 64 143 49 106 71 86 116 114 86 83 96 128 121 131 128 40 35 13 29 11 29 44 44 67 46 30 18 13 14 17 22 29 41 49 59 68 77 86 87 95 103 96 84 76 85 63 60 60 83 106 107 99 118 110 123 136 130 129 125 116 107 101 101 101 99 89 87 86 90 97 106 110 112 109 105 101 93 88 80 67 55 41 57 62 45 58 38 58 58 55 107 62 66 90 149 54 89 98 84 101 109 85 104 125 135 138 128 40 16 27 21 5 37 41 52 49 33 24 11 14 14 15 27 43 66 88 107 112 121 115 115 119 125 121 113 101 93 86 69 68 77 93 123 123 126 129 128 130 139 137 138 138 138 126 117 115 117 112 108 106 113 114 124 124 128 124 122 119 113 106 98 84 72 63 59 57 44 43 39 36 63 53 70 98 36 57 109 140 67 75 74 61 112 111 63 119 128 130 136 27 26 22 10 17 48 30 48 33 25 23 16 12 17 20 35 63 90 117 139 140 148 153 149 141 139 134 130 112 113 98 91 92 77 95 110 131 146 141 136 134 150 165 163 160 160 154 147 141 136 133 132 128 126 129 136 134 136 138 134 124 120 120 114 104 91 79 73 63 41 36 35 35 35 53 63 74 79 24 65 100 117 76 101 51 76 116 102 81 134 133 135 21 26 18 15 26 41 32 46 32 22 27 18 14 21 33 63 102 129 143 152 152 155 158 161 160 161 157 142 136 123 115 111 110 107 102 114 126 140 152 160 148 147 163 162 164 166 163 163 164 154 152 152 148 142 142 142 139 141 140 142 137 129 121 119 115 106 101 85 74 45 32 31 33 26 48 47 64 65 38 21 67 116 96 141 79 55 59 120 91 133 131 128 15 18 12 18 33 30 29 38 28 34 37 17 12 31 54 93 125 143 147 153 158 162 165 162 162 165 165 159 164 146 143 144 140 133 138 136 146 156 169 176 175 165 165 161 163 165 164 167 169 163 163 160 155 153 148 146 145 145 141 138 137 130 128 127 119 114 113 104 89 63 35 34 24 28 32 49 44 57 60 17 15 91 110 88 110 81 27 46 117 109 139 131 20 12 19 24 33 28 29 31 27 42 34 16 21 44 75 116 139 151 153 155 159 162 167 167 168 170 167 168 177 169 170 176 173 166 163 169 161 176 181 185 178 176 167 163 164 164 164 167 170 166 166 158 154 154 151 150 146 146 142 135 131 132 131 129 123 117 115 114 106 78 44 33 23 24 22 37 45 51 56 57 25 35 100 59 100 105 74 26 93 97 131 131 20 18 17 35 25 28 28 24 31 44 27 18 32 62 93 128 143 150 152 156 161 161 164 169 169 172 173 175 180 183 184 190 184 182 183 185 186 174 188 188 185 177 171 168 165 165 167 165 167 168 167 164 158 158 152 148 144 142 141 138 132 129 130 129 124 119 118 118 111 94 56 32 24 23 22 22 40 45 60 50 20 32 87 55 64 89 86 34 38 85 129 130 18 20 19 34 22 27 29 28 33 40 23 28 46 76 108 135 144 147 152 156 160 164 165 170 169 173 176 175 184 187 187 188 190 184 189 189 191 189 188 190 194 179 172 169 167 166 168 167 165 170 165 165 161 158 154 149 145 143 141 138 131 135 129 130 123 120 118 121 114 97 72 40 29 20 19 22 33 41 48 44 39 22 33 72 34 58 83 63 37 60 111 127 19 19 20 32 21 23 28 26 29 32 24 38 62 94 118 137 143 145 149 154 159 162 167 169 169 172 177 178 184 189 187 188 184 179 182 186 191 192 189 191 191 183 177 173 170 169 168 165 167 169 168 163 162 160 159 154 152 147 144 140 135 134 133 124 119 119 123 121 115 98 82 56 34 22 20 22 21 32 44 48 31 23 22 66 24 32 79 54 59 33 87 122 17 17 20 31 21 24 27 25 27 29 27 49 75 104 126 136 140 144 147 152 154 162 167 168 171 176 174 181 180 185 186 181 181 186 183 187 191 190 187 188 183 182 179 171 169 171 168 167 169 167 171 163 160 157 158 153 151 148 145 140 137 139 133 125 118 117 119 119 115 99 88 71 48 30 20 19 17 21 31 48 48 36 21 39 50 25 30 82 43 57 46 110 17 18 25 29 19 23 28 24 27 29 30 57 89 116 131 138 137 145 150 155 158 162 165 168 173 178 177 185 180 184 183 182 184 192 190 188 189 186 186 192 183 185 187 177 173 168 171 174 169 171 165 161 163 165 161 156 154 148 141 143 139 138 137 128 121 120 117 117 110 95 88 78 61 39 22 19 18 16 21 38 58 49 28 36 53 14 24 39 75 55 29 91 20 20 26 25 21 21 28 25 27 31 38 68 101 127 135 135 137 145 153 156 160 163 165 170 173 175 176 184 182 185 184 184 180 181 188 185 184 179 183 184 183 181 176 175 173 172 169 175 170 172 173 166 164 164 164 159 154 148 144 138 136 138 137 127 120 119 118 118 110 92 82 76 67 45 27 19 18 17 16 31 48 56 36 37 58 14 23 24 43 73 43 68 22 21 25 22 20 18 28 27 30 34 46 78 114 132 137 135 136 148 150 152 159 162 163 167 170 172 177 184 182 179 181 180 182 185 187 188 187 182 183 181 181 183 180 175 171 170 172 171 168 170 168 168 167 164 164 160 154 149 144 135 134 136 137 128 122 120 119 115 109 95 83 80 74 55 36 21 14 15 14 23 44 56 44 11 41 39 18 24 14 63 58 49 21 19 22 20 16 18 28 28 29 36 52 86 122 134 138 135 136 148 152 153 158 160 164 166 168 173 176 176 183 181 182 186 186 188 185 188 187 188 188 185 186 187 182 178 174 171 174 176 172 173 165 169 170 165 163 160 156 151 143 135 132 131 135 127 120 118 117 114 106 89 76 77 74 63 42 23 16 16 14 15 33 51 56 22 23 52 18 23 23 27 70 72 18 20 24 15 14 19 28 23 29 38 61 93 126 139 139 133 142 151 156 159 160 159 165 166 169 170 177 177 185 181 183 183 185 189 183 183 183 189 185 185 184 185 183 179 176 171 169 174 170 167 163 168 170 165 163 160 158 155 148 140 137 135 134 125 119 117 117 113 104 86 76 74 66 56 45 30 20 16 12 14 24 43 58 45 12 47 22 37 13 22 34 74 17 19 21 13 14 23 28 22 30 44 69 101 129 139 138 136 142 152 155 158 160 161 165 165 168 176 178 178 182 178 183 184 183 185 183 182 181 183 185 185 182 184 177 175 174 172 174 171 168 167 163 164 167 164 158 157 155 153 150 144 141 139 135 127 121 118 119 111 102 90 81 76 59 47 41 31 28 20 15 11 18 37 60 49 35 46 37 22 34 12 20 49 18 17 16 12 15 24 25 24 37 53 75 105 130 137 140 137 139 150 157 162 160 159 162 165 168 169 173 173 174 175 180 184 183 181 181 180 183 185 185 184 181 181 176 172 168 174 173 170 168 164 165 163 164 161 157 152 149 151 148 148 144 142 134 128 123 119 116 114 100 87 87 82 62 48 36 26 24 24 18 12 8 31 41 60 28 50 47 46 32 38 29 21 19 17 10 12 15 24 24 28 40 55 81 109 130 137 142 140 140 146 152 157 157 159 161 164 168 169 172 175 174 181 179 180 185 184 182 184 182 183 183 183 181 180 178 174 166 176 174 168 167 165 163 164 163 159 152 149 148 147 149 147 144 141 136 129 125 122 119 114 105 95 92 83 63 49 37 28 22 18 18 14 10 22 31 56 44 32 46 33 36 42 42 42 20 12 8 11 17 26 25 27 35 53 87 118 130 136 144 143 142 147 149 154 158 159 158 164 165 167 170 173 176 179 179 184 185 182 184 185 185 184 182 184 184 182 176 175 168 171 171 170 169 166 163 162 162 156 152 148 146 145 146 145 144 141 138 131 128 125 123 116 105 100 100 89 65 50 36 27 20 15 16 17 14 16 26 39 44 51 55 43 23 31 15 32 15 8 11 12 20 27 24 28 36 58 94 123 128 138 145 146 146 147 151 155 158 155 159 162 164 165 170 174 178 177 182 186 185 182 184 184 186 186 184 184 181 177 172 173 167 164 165 168 166 163 162 163 161 154 149 144 141 144 147 149 149 150 136 130 127 125 120 113 104 100 103 94 69 47 37 27 23 18 15 17 16 15 36 29 51 29 47 41 31 30 20 20 12 7 16 17 22 28 23 27 38 66 105 126 124 137 145 148 151 151 154 158 160 161 161 164 166 167 172 174 176 181 183 185 187 185 185 187 185 183 183 186 184 184 184 182 176 170 167 171 166 164 160 161 160 153 151 147 126 142 150 150 154 141 136 132 129 128 119 108 97 105 104 92 73 52 39 30 26 17 15 16 16 16 28 28 54 40 50 22 38 32 23 25 13 12 17 19 25 25 22 27 41 72 104 121 129 137 144 146 151 152 155 159 162 163 160 162 164 168 172 172 175 177 179 181 183 180 182 183 182 180 183 185 184 183 186 178 172 173 170 175 167 161 160 161 159 154 153 153 143 153 153 157 142 148 140 131 128 122 116 108 100 109 102 93 77 59 44 29 25 18 18 15 15 18 18 41 38 58 52 19 31 38 32 26 10 17 20 22 27 26 23 28 46 70 102 122 128 136 145 144 148 152 155 159 160 163 160 158 162 166 170 169 170 172 178 180 179 176 175 177 179 177 184 181 180 181 182 180 175 172 169 172 165 161 161 164 159 156 155 154 154 157 148 154 147 146 139 127 125 121 110 106 102 108 103 95 81 67 52 37 32 25 20 17 15 15 23 32 40 50 40 30 30 40 30 30 15 18 21 24 28 21 25 32 42 65 106 122 125 132 144 145 147 151 154 158 159 161 162 164 165 163 167 167 173 175 179 179 178 180 179 178 179 178 183 183 182 182 182 184 180 172 169 172 167 164 163 165 161 159 159 153 159 157 157 151 155 144 143 125 113 119 112 108 106 110 109 98 84 71 50 39 36 29 25 18 15 13 14 36 38 49 32 27 19 40 33 34 15 19 26 26 27 21 27 27 40 70 108 126 128 131 142 146 151 151 154 160 162 162 163 165 164 167 166 168 174 176 179 180 181 179 177 176 177 177 181 186 185 182 183 183 178 175 176 171 170 161 165 168 165 162 162 161 163 160 157 156 154 145 140 128 114 119 118 112 110 111 110 96 85 69 52 45 45 42 25 19 14 12 17 22 44 48 29 28 19 34 37 37 17 25 27 22 20 21 26 33 49 69 99 128 131 135 140 147 150 153 155 160 164 166 166 166 168 168 167 172 174 180 179 178 178 179 178 177 180 180 182 185 187 186 185 184 182 182 175 170 168 162 164 167 167 164 163 165 165 162 159 157 155 149 142 134 127 125 124 126 121 116 111 101 86 64 53 48 52 53 36 23 16 11 12 22 41 45 51 31 30 19 37 44 25 26 27 22 18 19 27 37 40 62 102 124 132 134 138 149 150 155 156 158 164 166 167 170 170 166 170 175 172 178 178 179 181 179 182 183 182 181 185 188 183 184 185 186 187 184 170 167 167 168 168 171 170 164 162 160 161 164 159 157 157 156 146 140 138 135 137 135 133 131 122 103 81 69 56 52 59 62 50 30 18 17 15 18 42 48 58 34 20 25 43 40 33 24 25 20 19 23 26 26 41 72 109 119 128 132 143 147 150 155 157 160 167 172 165 168 169 168 173 175 175 178 181 179 181 181 186 189 184 181 183 187 183 181 183 185 185 179 169 175 169 165 162 167 168 164 161 164 162 165 163 156 152 153 148 136 129 134 140 141 142 144 147 129 88 66 57 54 64 70 58 36 24 22 23 21 41 49 55 48 11 32 39 39 21 26 21 16 18 20 23 27 44 79 110 124 125 131 142 145 150 155 158 160 165 169 169 171 170 171 175 176 176 178 180 179 181 180 185 186 182 181 182 185 183 181 180 180 178 174 173 170 168 168 160 161 165 161 162 161 157 155 158 153 142 146 134 122 114 114 123 133 138 137 141 139 106 65 58 55 66 74 68 45 25 22 25 24 33 45 46 57 15 26 29 33 25 25 18 16 19 20 24 45 76 102 112 125 128 133 145 148 155 156 159 162 168 172 171 169 168 172 176 175 176 177 174 179 179 178 180 181 176 181 180 181 180 177 172 173 170 167 164 161 163 161 162 158 148 144 141 135 126 124 131 133 127 122 114 102 98 96 93 93 99 102 109 110 102 84 58 57 71 81 78 53 43 25 28 25 25 41 43 53 18 29 26 34 25 26 18 21 17 21 31 69 110 116 112 122 125 138 143 146 147 153 156 157 163 166 166 163 169 172 176 174 172 171 172 171 174 174 177 176 171 174 176 176 174 172 168 169 169 164 157 156 154 145 151 140 112 107 101 86 86 90 75 77 96 95 94 95 91 86 86 87 83 78 75 86 89 83 66 63 78 87 82 65 40 49 34 31 28 39 45 50 30 27 20 38 25 23 20 19 18 27 35 100 125 118 117 119 130 143 145 134 137 135 143 148 147 152 157 161 159 159 165 162 169 155 162 164 169 168 172 172 167 168 172 174 169 163 158 159 161 157 147 146 141 123 121 99 78 73 67 65 70 71 79 78 68 77 80 81 76 71 72 73 75 69 64 62 66 79 73 74 79 85 88 74 65 47 58 42 24 31 41 55 46 23 18 42 27 24 17 16 20 25 59 121 130 123 117 119 135 136 124 118 123 122 129 135 125 127 123 128 131 131 124 125 140 144 147 150 156 161 165 165 161 165 168 170 169 161 158 157 157 152 140 126 124 115 103 82 71 70 63 61 65 60 57 58 64 70 69 69 67 57 63 62 60 58 57 60 59 69 72 77 81 87 87 77 83 75 51 50 39 30 37 49 50 24 18 42 25 21 16 18 30 29 62 122 128 126 124 117 117 99 98 117 116 110 113 113 106 96 98 95 94 90 81 87 97 118 126 133 145 145 152 158 158 160 166 168 163 158 150 147 148 147 139 128 118 102 84 73 68 62 61 57 60 68 75 82 84 87 94 92 84 79 73 67 64 65 59 61 62 67 74 78 87 90 83 82 71 84 64 62 43 40 33 44 54 29 25 45 30 21 20 25 30 31 71 120 129 128 121 102 96 88 94 97 86 90 102 95 88 77 81 76 65 55 64 72 87 99 105 117 132 122 131 141 151 158 166 170 165 158 149 145 142 139 127 118 105 91 74 64 61 53 67 74 87 102 108 117 123 123 116 116 109 100 93 78 68 68 68 68 71 70 73 76 82 87 85 83 87 83 78 56 61 49 41 33 60 43 23 56 30 25 26 30 35 33 75 123 134 126 119 97 86 83 88 84 87 89 93 86 77 74 76 70 74 74 69 71 76 90 97 105 111 116 123 134 143 150 156 163 160 150 145 140 133 127 110 100 82 68 61 57 64 75 72 61 64 62 61 67 83 94 99 104 107 107 108 100 87 84 81 86 86 79 73 73 79 86 79 72 78 81 91 67 57 44 47 38 63 48 24 95 30 26 33 32 34 33 85 123 132 134 119 98 93 87 92 103 122 128 129 132 133 134 132 132 130 117 107 89 87 75 77 86 96 105 119 128 137 144 154 167 168 156 144 141 131 117 97 77 64 59 60 66 68 56 52 78 70 52 52 83 18 27 22 54 44 47 54 70 88 91 89 95 92 81 81 77 79 83 75 80 77 88 85 82 48 47 40 46 63 57 34 55 27 27 33 31 32 42 100 127 136 135 118 101 94 96 111 126 143 149 153 155 158 150 136 124 107 82 70 64 63 77 86 81 74 81 101 112 121 144 156 166 166 165 150 144 128 114 84 63 61 62 74 70 63 77 97 77 102 68 80 150 17 44 29 59 65 49 52 46 62 84 94 95 87 90 94 88 90 90 82 80 75 79 87 98 95 57 64 50 58 55 33 44 31 31 33 33 42 62 114 126 140 136 122 115 103 110 129 139 150 149 130 102 78 51 30 20 26 31 51 78 77 62 65 77 91 88 83 90 120 142 162 169 174 170 155 147 129 110 78 68 73 75 74 81 96 89 82 125 170 96 53 3 33 68 43 98 93 78 62 52 66 77 79 78 87 98 101 99 106 104 96 87 75 80 75 94 100 125 76 56 55 43 32 44 38 34 26 42 51 84 122 134 139 139 133 126 127 126 139 128 104 62 43 48 58 40 33 153 134 31 48 84 80 95 91 92 89 100 108 103 110 141 165 172 181 172 159 151 132 108 86 85 86 86 99 123 94 87 108 151 165 144 78 82 50 71 85 144 124 110 83 66 70 83 80 88 104 106 109 112 121 119 119 108 87 85 88 78 103 121 112 77 52 56 34 39 45 27 29 51 62 77 128 134 140 135 139 141 136 138 122 84 56 56 59 95 114 43 47 34 23 20 69 122 131 87 90 100 125 111 114 126 134 144 163 175 177 172 163 157 138 111 91 96 102 111 140 122 81 123 143 160 164 163 155 150 139 138 139 130 123 109 93 65 91 106 111 112 116 119 119 118 122 117 125 127 103 102 94 88 104 119 102 82 67 50 37 36 51 29 33 62 70 115 131 136 138 138 145 144 139 132 107 83 79 75 84 123 138 78 58 44 32 54 78 147 147 122 101 110 130 150 146 147 148 149 159 174 179 176 162 154 139 120 95 106 123 145 161 130 145 168 159 147 137 140 137 134 132 131 132 131 125 108 74 85 116 118 123 122 121 128 125 127 126 120 121 116 111 98 112 72 97 110 108 91 58 70 46 49 42 31 38 76 94 96 128 136 140 140 142 146 144 129 113 110 98 109 124 129 142 145 78 76 72 96 124 167 148 133 129 141 119 167 175 167 162 150 161 170 178 177 166 156 145 132 103 103 124 158 166 163 167 153 140 133 138 147 153 155 154 142 134 119 98 81 89 115 121 127 127 124 127 131 132 136 134 124 122 111 100 87 98 86 96 104 122 89 70 93 66 94 45 43 59 81 70 96 129 137 138 144 147 148 148 132 117 120 128 128 132 129 139 145 152 148 162 162 154 143 140 144 163 164 174 177 187 167 165 153 169 173 183 177 170 161 151 144 119 99 122 139 153 152 153 149 142 126 115 117 120 122 116 109 102 94 86 97 106 127 139 139 130 124 130 133 137 143 142 137 137 129 113 97 74 95 82 96 116 96 80 70 85 59 49 44 66 63 72 97 123 137 141 146 149 152 153 145 140 147 146 135 148 150 150 137 144 129 135 132 134 134 130 141 160 167 170 176 177 170 161 156 168 177 177 175 168 166 156 148 127 105 113 133 140 156 155 155 153 144 133 120 111 100 88 88 86 94 106 120 150 149 147 148 136 129 133 138 140 141 140 142 141 130 119 105 87 79 88 96 98 100 69 59 51 68 94 69 68 60 80 101 126 139 144 150 153 156 158 155 151 149 149 132 134 144 148 144 154 144 141 125 117 117 125 143 162 166 169 169 172 168 160 160 169 178 180 174 170 165 158 150 139 114 102 126 142 156 165 165 158 152 152 156 153 154 150 149 147 147 150 152 157 156 149 144 145 140 138 139 143 145 141 139 136 134 128 107 101 94 73 112 87 117 82 67 53 58 134 89 72 68 84 100 133 135 144 152 156 154 156 158 157 156 154 142 132 117 115 112 114 107 106 105 112 131 152 161 161 160 173 177 175 166 155 160 172 178 178 171 167 161 155 147 124 103 92 115 136 150 166 172 169 165 164 165 161 162 161 163 159 163 163 161 161 158 154 150 150 144 140 144 147 145 145 144 141 137 126 105 97 96 89 98 103 95 81 75 57 67 133 95 72 85 76 102 127 141 146 154 157 158 157 158 159 159 154 156 154 138 127 122 121 128 137 150 165 164 167 163 171 181 183 177 171 159 148 155 170 173 170 166 161 155 150 130 96 89 93 107 126 145 159 166 168 171 171 177 170 172 172 168 171 170 166 168 164 164 163 157 152 144 145 148 147 145 144 144 141 134 123 100 94 81 95 115 105 89 72 59 61 70 145 101 74 77 77 102 127 139 145 153 159 157 159 159 162 162 164 164 164 165 169 167 165 166 168 170 170 173 176 178 182 181 177 171 161 152 149 151 160 170 168 163 159 155 137 115 98 101 98 101 117 138 161 161 157 170 177 177 173 170 171 168 172 169 164 171 166 166 163 161 156 151 151 149 149 146 146 141 137 127 119 106 85 85 89 102 90 82 57 60 63 68 143 120 72 72 79 104 126 135 145 153 158 156 162 163 165 167 163 162 167 171 168 166 168 173 177 175 175 173 179 184 185 178 172 163 153 148 147 151 160 167 169 158 152 151 133 113 99 107 110 102 110 126 151 161 158 165 173 168 174 178 174 173 172 170 167 169 168 167 165 160 155 153 155 154 151 143 141 136 136 124 117 117 96 85 99 94 77 92 52 54 61 75 142 116 70 66 79 106 127 138 146 154 155 156 161 164 167 168 166 167 168 172 169 170 172 174 173 174 179 184 182 183 182 175 169 159 150 149 146 149 154 158 167 156 151 148 131 116 104 107 108 101 103 119 143 160 159 173 166 147 168 174 172 176 176 174 170 172 169 167 162 160 153 153 151 153 151 144 132 128 130 124 117 110 82 96 94 91 76 81 61 55 60 74 139 111 81 75 66 102 123 136 146 151 155 160 163 161 163 166 172 169 169 174 175 176 178 179 184 183 185 186 184 182 179 169 163 152 147 148 144 150 153 158 166 159 151 142 132 113 110 113 113 104 104 118 136 152 162 180 169 156 175 170 176 175 175 175 173 172 166 163 159 157 153 152 150 147 147 143 135 127 121 112 112 102 77 83 89 86 89 77 52 55 59 69 146 120 91 81 65 90 120 133 141 149 154 156 161 166 167 168 171 172 173 174 179 180 182 181 179 184 186 184 183 178 175 165 157 149 148 149 145 148 153 161 165 160 151 143 133 122 117 118 113 110 107 114 127 148 159 170 176 170 175 176 177 178 177 172 170 172 162 158 158 157 154 152 148 142 141 137 131 128 118 112 113 97 78 80 99 87 91 79 48 44 54 71 144 130 93 81 80 99 122 134 139 147 152 154 161 167 172 170 168 171 175 174 174 173 176 180 181 188 189 186 183 176 170 161 154 149 147 147 149 150 153 167 179 167 154 145 137 123 120 121 114 113 103 105 119 142 155 165 172 173 177 176 179 177 176 172 170 166 158 154 154 157 152 151 150 142 133 132 131 120 118 108 109 95 80 76 97 89 75 73 62 70 62 84 146 151 107 74 77 87 117 130 139 146 151 157 160 165 169 170 169 170 174 177 175 176 179 186 187 189 186 182 182 174 169 163 151 148 145 144 145 151 160 172 179 167 154 146 137 125 124 125 116 107 97 94 114 133 147 160 166 169 173 174 173 175 173 169 165 162 157 154 154 155 151 148 140 139 134 131 128 121 116 109 106 87 80 83 82 86 74 59 53 101 135 89 147 157 114 62 65 89 126 126 137 148 152 155 160 164 169 170 169 170 173 174 174 177 182 188 188 189 183 182 181 172 167 164 147 145 145 147 149 152 159 171 170 159 151 143 131 126 126 123 119 106 98 87 109 129 143 154 161 167 172 175 170 172 169 165 164 163 158 155 155 151 150 149 140 138 133 130 123 116 109 106 98 93 69 85 71 69 77 68 61 98 145 137 139 144 130 90 80 89 109 123 136 145 150 155 160 163 166 167 168 168 170 170 173 177 182 186 185 187 185 181 178 169 170 164 150 142 148 146 145 156 153 167 168 160 148 127 128 122 124 124 121 111 98 88 96 128 144 154 157 161 167 173 165 169 167 165 162 161 157 152 149 147 149 146 135 129 126 122 116 113 103 104 99 93 90 97 64 65 65 115 99 98 120 171 142 129 132 101 73 83 99 118 132 141 150 155 156 162 164 164 168 166 168 171 174 177 181 183 183 183 182 180 176 173 174 167 150 141 146 146 150 147 153 159 166 159 146 129 121 120 123 130 129 122 113 99 94 122 144 157 157 160 162 171 165 168 165 159 156 155 152 146 147 144 146 139 126 126 127 118 107 104 103 102 104 77 101 89 63 80 57 71 85 100 119 155 146 130 133 100 73 75 95 111 129 141 150 149 150 161 162 163 166 166 168 171 175 178 183 184 185 185 180 178 178 176 176 163 147 143 147 146 145 148 152 157 170 161 146 132 120 121 130 138 136 127 113 101 93 106 144 163 163 159 160 165 168 166 162 152 149 146 148 142 137 139 136 138 126 121 118 110 103 98 96 96 90 70 91 80 74 75 69 64 84 98 107 142 146 135 126 103 71 63 84 115 124 137 147 147 152 162 162 161 163 166 168 170 174 177 179 181 179 179 177 176 182 178 176 158 144 146 149 144 144 147 163 197 190 181 152 134 123 123 129 134 135 128 110 96 88 89 132 155 166 164 162 159 166 164 159 150 146 145 143 143 138 136 134 133 127 118 112 108 99 98 87 99 87 77 90 79 70 60 82 69 86 97 104 132 157 165 146 125 74 66 76 118 122 135 146 148 149 152 156 161 162 164 167 169 174 177 178 181 174 177 179 177 177 176 172 149 137 145 149 146 142 152 193 203 193 190 168 147 129 123 125 129 125 121 105 88 78 75 123 147 164 164 163 153 159 162 158 149 147 146 138 137 135 133 133 122 127 115 104 105 100 92 90 87 87 72 83 89 56 75 67 60 80 90 101 121 155 173 160 134 87 72 73 118 121 133 143 148 148 149 154 158 161 164 165 168 170 174 174 178 173 176 174 170 178 173 168 143 132 138 140 142 144 164 169 166 165 166 163 158 138 123 108 104 107 101 86 72 67 67 113 140 160 166 165 158 156 158 154 152 145 137 137 128 127 130 125 120 121 113 104 100 99 89 90 87 87 74 58 91 57 55 51 69 72 86 86 109 149 157 168 124 114 80 71 106 120 131 141 148 146 152 155 154 156 160 162 166 170 170 169 172 174 170 172 176 175 171 166 145 120 117 129 128 124 143 149 143 146 144 146 155 131 93 73 75 68 66 64 64 61 61 106 138 154 164 167 160 155 156 149 147 142 139 137 124 127 128 117 113 116 108 102 97 92 95 91 88 89 68 57 70 69 51 48 54 59 67 90 130 157 161 163 133 115 81 71 94 113 130 146 145 144 149 152 155 152 157 160 164 167 169 166 168 171 171 172 174 175 170 169 154 102 86 71 96 105 110 122 131 130 122 115 114 80 60 45 28 12 27 50 57 56 60 108 136 143 153 161 162 156 155 149 147 142 134 128 127 119 124 115 111 106 108 103 98 95 90 94 86 81 72 60 64 53 53 46 43 46 99 128 133 154 162 161 135 106 77 70 95 116 127 141 146 144 148 151 153 152 156 159 161 161 162 163 165 167 172 175 168 165 162 166 159 128 75 47 24 43 79 93 91 95 97 88 81 55 33 22 15 12 25 42 45 46 78 116 140 145 147 155 160 152 151 149 147 138 130 125 121 120 118 107 107 103 108 101 97 102 93 92 80 78 69 69 58 65 64 36 38 58 89 129 134 152 156 160 147 109 69 69 107 120 129 141 146 146 148 149 150 154 158 156 153 155 160 163 163 165 173 168 166 162 161 165 158 137 100 61 50 40 32 56 62 63 60 58 49 28 17 17 23 23 27 35 46 64 105 122 140 146 148 150 154 154 155 155 146 137 127 126 119 114 109 103 98 98 103 99 100 95 92 93 77 88 81 67 47 62 51 38 37 51 92 121 131 141 147 151 143 128 80 69 89 121 126 142 145 148 148 147 147 147 152 156 158 153 160 160 162 164 169 164 164 162 162 162 157 138 128 97 75 61 54 48 44 32 31 27 25 20 23 27 34 53 60 58 73 94 111 132 140 146 147 146 147 149 153 152 143 135 124 120 115 109 103 101 93 105 105 103 103 97 86 90 76 80 85 80 60 56 48 40 41 46 96 118 136 111 118 128 124 112 65 58 80 120 121 138 145 148 146 148 146 151 153 152 155 154 156 148 154 164 164 164 159 161 162 161 156 147 114 104 87 75 90 70 57 48 29 31 32 27 29 37 47 52 69 74 78 98 111 132 148 141 142 144 143 145 150 146 137 129 123 123 112 100 90 89 94 104 108 106 105 101 89 76 77 78 98 78 54 61 58 36 28 51 91 118 137 129 112 85 62 43 49 44 84 113 122 136 143 144 143 148 144 148 152 151 152 157 156 151 156 161 162 162 155 155 162 153 157 142 106 81 82 92 85 83 74 53 25 39 41 40 36 44 47 66 83 85 74 98 124 123 149 149 142 135 139 140 140 141 136 134 124 121 110 99 85 88 97 104 110 106 103 104 98 74 86 94 81 78 57 59 47 38 30 53 86 113 132 135 110 76 46 43 46 45 79 98 121 135 140 148 147 148 144 141 150 151 152 156 156 156 160 160 163 157 156 154 157 148 140 119 91 65 68 100 94 99 65 81 46 53 47 57 80 60 56 65 78 77 65 77 114 130 142 143 140 134 129 135 142 137 135 126 121 114 105 90 78 88 96 102 108 110 103 102 88 80 82 95 76 74 56 80 54 39 30 61 89 111 130 127 110 86 43 47 44 46 78 103 116 130 138 149 146 144 140 140 142 146 150 155 155 157 161 166 157 147 145 146 149 133 124 104 83 64 87 111 110 104 111 69 50 55 74 65 70 59 65 79 68 75 70 76 101 124 131 138 142 134 142 124 126 132 125 130 124 116 100 80 72 93 100 108 112 113 105 102 85 86 78 77 74 66 57 72 46 39 37 61 92 115 134 130 109 76 46 51 53 53 82 105 109 135 134 148 149 147 144 142 140 142 147 148 150 158 160 152 138 137 138 128 126 120 94 93 68 67 116 104 110 106 110 59 67 70 93 81 61 54 74 68 45 58 62 68 95 109 119 123 134 134 139 134 123 121 124 119 121 113 94 77 74 93 99 110 113 110 107 100 82 80 78 71 73 71 58 66 38 39 48 59 92 116 135 128 115 77 64 68 49 56 56 103 113 126 131 146 150 149 143 143 139 142 146 149 153 156 144 133 131 121 125 111 105 108 78 98 70 65 114 102 105 93 76 95 71 73 97 76 60 67 46 56 49 54 60 62 86 94 115 114 120 119 113 124 122 96 115 105 110 107 89 77 68 97 103 109 115 109 101 84 82 73 67 71 75 70 53 67 49 38 60 58 95 119 134 130 113 92 86 84 58 70 57 93 104 120 130 143 150 148 140 143 138 140 145 142 155 142 140 118 120 107 107 100 97 97 89 76 69 82 99 76 80 73 52 74 70 78 72 41 59 66 47 61 60 54 55 58 87 77 103 102 98 105 100 91 96 99 109 102 98 107 89 69 80 82 99 98 108 112 98 77 76 69 67 70 83 57 49 59 61 45 58 64 98 120 133 133 117 106 107 80 74 87 57 97 109 109 131 145 150 147 135 139 138 132 141 140 145 115 112 97 98 99 105 100 88 81 80 60 57 75 72 65 45 57 52 70 60 49 40 41 53 50 55 52 57 55 59 56 77 65 94 100 97 77 89 87 69 83 96 86 101 87 92 79 76 82 101 108 100 112 98 72 75 70 70 70 74 52 43 64 51 37 58 69 100 118 132 130 119 112 117 86 77 84 68 82 105 106 123 141 147 152 141 136 144 143 134 140 136 108 99 92 78 89 98 108 69 97 72 56 54 50 65 64 41 52 66 63 72 72 55 39 45 50 39 59 59 54 66 71 66 57 75 99 67 79 71 65 83 79 71 68 81 93 76 81 70 98 100 94 87 101 97 70 66 67 59 61 69 58 44 59 47 32 61 68 114 109 132 132 125 123 111 113 103 82 67 66 95 113 111 128 135 143 134 131 145 145 129 131 111 99 76 81 75 82 78 86 62 76 55 59 65 65 70 79 71 62 72 73 84 98 79 68 53 59 62 67 66 56 59 53 55 49 66 71 50 75 52 44 69 63 63 54 55 83 72 72 68 78 89 90 91 87 86 73 73 66 62 54 57 59 50 43 48 39 65 66 109 116 132 129 131 132 125 123 108 70 66 71 90 99 107 112 139 128 116 129 128 143 125 123 102 79 83 72 67 72 50 58 49 57 57 58 57 65 63 83 97 98 96 87 83 79 65 63 65 73 74 65 60 54 50 41 39 41 46 44 41 37 43 39 48 43 60 66 42 60 73 63 66 75 78 87 94 81 66 66 68 57 64 50 50 56 48 48 45 42 69 67 96 121 128 129 133 132 126 128 126 89 81 63 85 85 104 104 128 137 125 128 115 135 122 115 94 70 81 64 55 56 48 41 39 33 37 56 66 78 93 82 83 85 88 95 87 78 73 79 83 83 82 87 86 88 84 74 56 52 55 53 46 43 50 46 40 47 62 64 60 71 73 51 61 67 81 81 92 76 62 64 62 66 60 53 60 53 40 46 51 42 68 76 95 121 132 132 133 134 126 134 126 107 60 76 65 98 97 104 108 135 130 125 117 122 118 112 83 87 72 69 59 61 48 48 59 63 75 99 111 135 147 141 145 150 145 143 138 135 134 129 131 129 132 132 131 127 119 111 106 100 94 85 87 82 79 79 70 72 74 77 65 77 64 42 58 63 70 62 79 71 69 65 58 54 52 45 43 54 44 35 42 56 64 87 97 117 127 134 133 134 132 133 129 111 52 63 53 87 100 97 110 126 135 135 127 116 115 106 69 68 63 76 60 54 80 95 109 118 122 127 132 148 143 151 149 155 156 156 147 147 138 145 143 148 149 142 136 132 125 124 123 110 111 109 104 97 91 95 99 98 96 95 73 73 60 38 39 52 60 56 63 77 72 63 63 50 58 41 43 55 33 43 43 61 60 94 104 120 127 132 135 134 131 129 131 117 75 61 52 69 90 99 111 118 120 132 111 114 110 95 89 68 75 75 80 93 78 118 130 132 133 132 137 142 136 149 152 156 155 145 139 139 133 133 131 136 129 133 136 126 133 125 122 122 115 115 108 111 104 109 118 111 108 90 75 81 54 56 36 38 50 57 61 77 72 58 52 57 41 35 43 60 36 47 50 52 68 111 112 125 128 134 134 133 129 133 128 123 80 66 56 53 76 92 109 119 111 117 109 106 86 88 84 80 71 80 100 108 107 134 131 135 141 144 147 145 140 149 140 143 133 131 128 116 109 110 119 113 122 116 124 114 112 103 102 98 105 117 106 97 110 113 118 113 102 95 57 66 51 27 47 42 36 50 56 64 70 54 53 49 35 36 39 55 35 35 50 68 92 117 123 126 131 134 134 134 133 136 127 124 86 78 50 57 70 87 93 102 93 104 112 110 98 85 91 75 72 87 98 101 130 143 133 134 143 142 143 139 138 138 123 117 113 125 111 99 93 91 124 110 113 111 93 107 103 103 101 101 107 113 109 114 115 110 118 120 102 87 64 64 40 33 44 30 44 56 53 63 61 46 50 44 32 41 55 40 42 46 61 106 113 119 125 129 133 134 134 133 131 131 125 120 73 63 54 52 61 70 85 88 86 92 101 101 89 82 84 79 71 97 98 102 125 140 137 131 132 139 142 136 139 126 116 105 97 112 97 98 97 91 115 104 118 103 92 89 109 102 100 106 97 106 116 119 116 116 118 119 99 84 74 62 31 42 49 41 42 55 59 63 51 41 47 43 36 37 67 38 37 42 91 128 115 123 128 131 135 134 132 134 132 133 131 130 88 69 66 61 57 60 70 72 73 92 87 86 87 67 79 87 83 73 86 103 141 140 137 135 133 127 129 123 134 127 108 106 94 94 100 110 89 88 101 111 117 100 100 87 101 115 116 115 116 112 111 124 115 119 116 106 98 83 54 49 58 41 48 43 46 51 55 62 45 37 50 35 35 37 77 58 41 49 112 128 127 123 130 130 133 134 134 133 133 135 130 129 97 55 62 67 42 63 49 55 62 78 77 69 73 70 73 72 76 73 80 113 137 127 130 138 137 116 122 122 133 129 104 105 104 95 83 114 84 86 90 104 102 100 101 100 90 94 120 111 112 110 113 123 122 111 92 96 82 68 53 47 52 61 42 44 43 43 41 45 49 33 59 37 36 47 77 71 47 53 116 128 125 127 131 132 131 133 133 133 134 135 131 131 112 61 63 54 62 36 49 48 69 78 71 71 62 57 60 59 77 64 84 116 130 129 130 134 133 123 118 128 119 126 115 119 109 80 101 111 73 70 96 98 104 105 83 91 91 100 105 117 112 119 124 130 136 110 99 78 65 73 56 36 36 57 46 54 39 36 38 30 53 43 60 37 50 64 89 71 56 70 124 128 123 130 132 133 132 133 133 135 135 134 133 131 116 67 60 47 63 37 43 43 52 70 66 74 55 54 55 47 62 61 96 110 116 131 136 138 143 136 126 139 125 130 119 112 104 98 112 107 90 71 95 89 104 102 103 81 84 99 120 123 121 108 113 119 117 99 98 75 63 53 51 42 41 52 43 35 40 30 35 29 50 44 37 40 62 79 92 81 56 90 127 128 126 131 134 132 128 134 133 135 134 134 132 131 118 77 87 77 48 40 41 40 48 51 54 73 48 47 51 48 45 61 92 109 107 110 130 143 146 150 137 140 137 131 129 117 116 104 97 85 85 82 91 89 95 91 114 88 98 113 128 126 126 108 119 111 106 94 98 66 64 48 48 52 41 43 37 33 29 26 34 37 49 26 41 44 80 83 99 87 61 112 125 130 129 132 134 132 131 132 133 135 132 136 133 132 119 82 106 110 71 39 36 46 37 37 53 58 46 44 49 47 49 51 80 91 99 104 131 140 143 149 135 144 149 142 127 123 109 103 88 76 81 79 82 93 87 86 103 104 101 130 131 130 117 108 107 106 96 83 101 72 56 62 41 34 37 38 29 34 27 24 33 40 40 35 37 49 71 103 120 94 74 123 127 129 130 132 131 131 129 133 133 135 132 134 133 132 112 89 118 122 99 49 43 34 43 36 41 45 41 37 43 48 52 61 83 95 94 106 122 125 131 137 137 152 156 145 136 125 109 98 91 88 80 81 93 71 93 91 98 117 108 126 113 117 116 103 104 101 79 89 76 64 59 41 34 27 41 32 27 31 23 18 28 39 26 36 30 46 70 115 109 88 95 127 130 132 130 132 132 131 131 135 135 135 135 135 135 134 109 105 121 123 107 69 43 30 38 28 35 30 45 47 34 51 41 58 58 95 74 91 99 102 123 133 132 132 132 127 140 117 106 105 104 102 77 83 89 66 98 94 90 107 109 135 108 101 110 108 92 91 82 102 66 57 60 37 35 30 47 27 33 22 20 20 25 26 20 28 33 50 69 99 118 95 120 131 131 132 131 132 132 131 130 135 135 134 135 134 135 134 109 110 125 128 111 85 56 24 36 26 30 30 35 48 41 51 44 65 75 81 77 83 99 98 112 105 115 115 118 112 124 93 93 114 109 102 94 81 82 98 90 95 102 100 113 113 96 99 91 101 110 91 76 88 58 52 60 42 33 24 48 23 34 18 22 23 32 22 24 27 38 54 79 40 89 101 126 131 129 130 129 131 132 131 132 135 135 135 135 135 134 135 115 112 128 130 121 102 80 55 32 29 27 27 31 37 46 46 52 69 56 67 71 64 86 89 85 78 108 102 102 115 97 94 95 118 120 102 103 80 92 96 96 94 115 96 120 102 89 85 86 88 87 91 70 89 53 43 51 37 33 50 26 27 27 19 16 27 33 21 26 34 47 59 87 25 22 91 129 130 130 133 129 132 132 132 130 136 134 133 135 135 135 134 127 114 132 133 128 71 83 77 50 33 26 35 28 27 33 45 37 53 44 61 60 71 72 77 69 82 108 85 87 107 88 90 112 125 134 96 91 78 95 97 97 96 114 84 107 100 77 75 73 78 72 72 48 77 46 41 44 45 25 30 39 28 20 20 16 28 29 27 26 40 46 65 81 11 14 44 102 132 130 129 128 132 131 132 132 134 136 136 134 135 134 134 128 117 129 137 104 44 96 86 80 49 37 28 27 34 28 27 40 42 48 39 46 61 57 63 69 90 99 76 92 82 90 83 133 108 119 85 89 76 93 107 84 95 92 94 87 107 71 71 67 71 75 54 41 53 34 39 41 33 18 29 23 22 14 17 24 25 28 29 32 38 46 68 77 14 11 26 71 101 137 128 133 132 131 133 132 134 136 136 134 135 136 134 135 118 131 112 53 49 92 98 92 83 54 35 25 25 30 36 41 40 40 32 40 43 54 55 62 84 80 98 81 80 68 95 105 111 95 76 76 77 89 117 78 89 84 83 88 81 83 54 55 51 56 47 48 47 35 41 36 19 21 22 21 14 15 18 23 31 35 30 35 38 48 66 73 13 14 16 50 78 111 133 129 131 131 132 131 134 136 134 135 135 135 135 133 131 104 50 50 56 86 101 101 98 86 70 42 26 26 33 41 43 35 33 42 44 44 47 73 72 67 82 56 63 64 81 91 101 76 83 81 71 85 106 70 90 62 76 96 70 69 39 48 42 35 48 42 54 49 40 30 20 18 16 19 14 14 25 24 24 27 31 36 39 51 69 66 10 16 13 32 72 79 125 131 131 131 129 128 134 135 135 135 133 135 134 135 121 58 51 50 64 81 109 107 106 102 82 61 46 31 27 31 37 33 34 36 43 35 57 72 54 54 53 65 60 67 78 88 82 87 72 69 86 80 106 61 78 47 69 70 55 57 44 46 26 28 43 54 34 39 39 25 20 25 20 16 18 18 23 23 30 30 33 40 44 52 71 59 11 12 21 25 64 62 92 128 132 131 131 129 136 136 135 137 130 133 135 132 70 59 54 53 62 73 110 111 117 111 94 86 76 50 30 24 25 27 29 46 52 30 59 64 49 37 61 61 49 52 54 67 67 86 73 63 72 77 92 50 58 50 69 65 64 45 49 26 27 30 32 49 33 28 35 24 20 25 20 18 19 19 22 25 30 33 36 42 45 54 74 57 15 15 17 20 54 62 60 108 130 129 129 131 136 136 135 131 133 132 134 82 66 62 47 65 67 66 110 118 120 119 111 104 93 81 52 32 26 29 24 35 42 31 48 37 70 39 50 70 45 47 54 55 65 54 59 61 57 54 58 48 53 53 59 51 48 48 36 32 29 26 37 41 26 20 22 25 21 17 15 23 24 23 28 30 32 35 39 43 52 55 75 47 7 12 32 21 44 69 56 73 123 135 127 130 137 135 134 135 131 139 89 61 77 69 48 73 60 64 111 122 123 123 122 121 107 100 75 55 35 37 27 25 32 35 38 39 33 43 53 72 42 49 45 57 47 52 32 44 54 44 57 49 26 46 49 45 31 25 29 28 25 31 38 41 25 19 16 17 20 17 22 25 23 27 34 33 34 40 41 43 56 57 74 41 5 14 39 23 40 65 58 56 91 136 129 131 135 137 136 132 139 108 63 80 76 71 58 84 55 75 113 123 123 126 126 128 120 114 100 88 63 52 41 33 30 29 38 55 35 33 36 53 53 37 65 44 44 40 38 45 51 35 42 43 48 55 51 32 23 18 22 22 34 38 32 29 16 19 19 18 20 19 19 22 26 30 36 36 37 40 41 45 56 60 74 37 6 15 43 31 41 62 62 55 63 113 132 132 135 135 136 131 123 75 73 74 67 63 61 87 66 80 108 122 129 128 130 126 125 123 113 107 91 72 53 60 44 40 56 38 33 28 40 38 58 43 59 47 39 44 41 41 37 39 43 36 31 41 21 23 20 25 40 47 40 21 19 26 19 26 26 19 22 23 22 22 27 29 34 38 40 42 43 49 59 64 75 31 5 15 46 39 42 62 64 57 58 80 126 129 134 135 129 141 76 71 81 80 69 60 66 90 86 78 113 122 131 130 133 131 129 128 126 121 110 97 83 62 62 67 35 26 29 30 37 26 38 33 38 45 36 43 44 41 51 35 25 26 23 29 27 16 23 23 22 23 23 21 23 24 23 24 30 24 23 26 25 25 28 33 35 41 41 42 46 52 60 67 76 27 2 18 43 43 36 61 58 55 53 58 101 133 134 135 141 98 66 84 84 82 76 59 69 85 109 69 116 122 131 134 136 135 135 130 136 127 117 109 105 90 74 63 53 45 41 38 26 56 40 49 43 42 42 28 37 53 38 17 29 26 26 26 25 20 24 23 27 28 29 27 27 26 22 23 22 24 28 31 31 32 34 37 40 41 44 44 47 54 62 70 78 24 3 20 46 47 39 67 61 56 52 61 76 123 131 119 101 67 80 84 87 82 76 59 79 80 129 61 115 121 129 138 137 134 137 134 130 136 128 120 110 104 91 86 74 63 52 40 45 45 39 33 25 30 30 25 17 32 22 23 21 26 27 21 23 27 33 32 27 27 28 26 25 27 28 25 26 28 31 32 34 37 37 40 42 46 46 45 48 55 58 71 72 11 6 21 43 43 40 58 53 52 56 60 69 95 63 61 56 74 84 84 86 80 72 54 88 77 111 43 111 124 127 134 139 136 136 138 132 130 133 128 116 113 104 94 85 74 58 53 45 40 33 31 30 26 20 19 21 22 23 22 23 20 21 21 23 27 31 32 27 30 31 31 27 27 30 31 28 30 33 33 35 37 40 41 44 47 49 48 50 54 63 75 58 4 4 17 47 44 51 65 58 53 52 60 72 78 69 65 69 74 88 92 85 74 67 55 89 74 92 23 101 121 129 134 136 143 142 139 135 133 135 132 127 122 114 106 97 78 66 60 50 42 35 36 30 33 28 27 23 18 22 20 15 17 20 23 26 30 29 29 30 30 28 29 30 33 30 30 34 35 37 36 38 40 44 47 49 50 50 50 51 53 68 70 36 13 11 16 49 49 56 62 54 49 57 62 72 72 66 72 73 73 86 91 85 73 62 53 91 80 85 13 96 120 127 135 139 143 145 145 141 141 140 139 139 130 126 119 111 100 90 73 59 52 53 48 51 45 37 34 27 24 24 23 27 23 25 27 30 35 32 31 34 27 29 32 31 34 34 33 34 36 38 41 43 44 47 50 48 52 53 51 51 56 70 55 27 17 16 15 82 69 62 57 58 50 55 57 63 71