P2
# Generated by OpenCV 4.2.0
92 112
255
13 22 21 16 9 11 10 15 19 27 23 9 21 39 23 18 32 17 17 10 20 25 27 18 26 34 35 22 66 29 65 71 73 53 18 25 32 38 49 58 68 79 75 76 83 105 104 89 67 66 87 78 49 39 37 32 29 35 35 28 32 36 36 39 38 45 37 38 36 34 33 27 25 24 28 30 46 36 29 26 24 20 18 15 10 10 19 28 23 26 24 27 15 15 16 10 8 12 14 23 27 28 12 17 30 21 18 27 20 14 12 22 25 23 17 20 29 34 22 51 47 38 70 70 70 26 22 34 54 72 84 102 108 104 105 110 109 119 128 119 98 91 103 98 54 53 43 35 37 58 55 39 47 48 45 42 52 58 48 50 43 41 36 35 33 30 35 35 40 36 37 36 34 31 25 18 13 11 14 26 18 19 18 19 11 14 9 6 15 17 22 28 22 10 14 29 15 16 23 20 16 12 22 27 22 16 21 25 30 20 36 58 32 61 60 66 43 25 42 60 80 106 116 133 143 138 134 136 137 135 139 142 117 114 122 105 66 66 53 40 46 81 78 61 70 65 64 64 74 74 64 56 52 50 44 44 42 42 42 39 44 49 53 54 52 44 38 31 24 13 13 26 20 10 15 15 12 8 5 12 10 14 23 17 9 14 22 16 19 22 20 23 20 28 22 25 15 22 26 29 18 17 50 35 45 53 52 57 30 43 65 87 109 125 131 145 155 157 159 154 148 150 154 162 141 137 136 107 82 72 63 47 49 87 95 83 92 88 92 86 86 84 75 67 61 60 58 55 50 53 52 53 58 63 70 69 67 61 53 42 36 22 14 25 18 13 11 15 9 4 8 13 8 20 15 11 10 16 11 19 24 21 21 21 31 28 16 18 19 25 30 20 10 40 43 30 45 38 48 39 38 58 83 102 118 137 150 155 157 161 162 165 164 166 169 165 148 138 132 121 102 82 76 66 57 82 106 105 102 109 102 88 90 90 86 83 75 69 68 66 64 65 60 66 74 81 84 85 79 74 67 57 49 35 17 17 16 13 12 11 5 7 16 14 19 13 14 9 10 11 17 22 31 20 16 21 22 17 13 19 24 29 23 8 26 51 37 29 36 30 45 43 53 75 98 119 132 142 153 155 161 164 167 168 166 170 175 177 170 147 138 128 119 102 94 94 76 74 97 126 125 120 105 101 109 116 119 119 111 99 90 88 82 83 81 77 86 96 97 97 95 85 79 72 62 48 25 13 15 13 12 9 4 11 11 16 17 10 13 10 12 21 20 24 22 18 19 16 17 15 18 21 26 23 17 18 41 48 25 28 35 32 39 48 63 86 108 125 136 147 156 156 159 167 173 172 169 168 170 173 184 179 152 140 131 127 113 101 91 77 91 109 126 129 123 110 128 142 144 143 138 131 123 114 112 110 110 104 102 106 108 106 104 95 90 81 71 59 38 14 13 12 11 9 8 10 9 15 12 13 13 15 22 20 21 20 19 19 17 14 17 17 20 23 16 14 20 35 48 30 19 26 28 33 40 55 71 98 116 130 139 148 154 155 158 162 169 172 174 174 174 173 182 196 171 158 153 150 139 116 113 108 105 117 125 133 139 130 138 151 148 150 147 146 146 141 133 130 127 125 122 117 117 115 106 103 103 93 80 71 49 20 8 12 9 8 11 11 17 17 11 11 15 26 19 20 20 21 18 17 16 16 16 18 23 16 9 17 23 35 35 16 23 23 20 32 44 63 81 108 126 140 146 148 149 154 157 162 169 173 174 177 180 179 177 181 188 173 172 164 156 152 143 134 129 135 147 149 154 150 149 150 148 151 149 150 152 148 143 141 135 134 129 127 123 124 115 107 108 101 88 81 61 25 8 10 9 8 14 15 15 11 8 11 20 16 18 22 20 16 14 15 19 17 17 20 12 5 15 18 22 33 22 17 24 24 22 37 52 74 96 115 133 145 148 148 147 152 156 167 171 173 176 174 178 181 180 176 176 173 172 177 172 166 164 156 154 151 152 156 159 154 152 150 149 148 148 149 153 151 150 148 141 138 136 131 128 127 120 113 109 105 93 85 75 34 9 8 10 7 9 10 11 12 10 22 18 20 22 18 17 13 15 17 18 21 18 8 3 14 16 14 29 25 13 20 19 22 28 44 63 87 106 122 133 144 154 149 148 153 160 165 166 171 181 176 179 180 176 177 177 178 178 176 173 166 162 161 161 161 159 159 159 157 153 151 148 149 150 149 148 150 150 151 146 144 142 137 133 128 122 117 112 105 95 89 82 51 14 5 7 6 7 7 5 12 22 16 19 24 20 14 13 15 20 16 21 22 7 2 13 17 10 24 23 14 14 22 18 22 35 52 71 96 114 129 139 148 155 152 153 153 157 163 164 169 174 177 178 180 179 179 178 176 178 176 175 172 158 158 161 163 161 161 162 159 156 154 151 149 150 148 149 150 151 148 146 147 143 140 137 131 128 119 116 105 93 88 81 55 20 5 5 5 13 12 11 20 16 20 25 21 21 16 12 16 14 19 20 8 3 11 16 10 15 22 16 9 18 21 21 20 41 61 81 103 119 130 145 148 153 155 152 152 158 160 161 166 169 171 178 178 178 175 173 172 175 173 175 172 160 158 158 159 163 165 161 161 155 152 150 150 149 149 148 148 149 149 148 143 143 140 138 135 127 120 120 111 94 88 82 58 26 5 5 7 12 11 15 16 17 24 25 16 16 15 14 15 22 15 5 4 9 9 8 9 18 14 10 14 19 21 17 24 57 71 89 110 122 133 144 146 151 151 150 153 158 159 160 164 170 173 174 171 175 174 168 168 169 166 165 163 163 159 155 155 160 163 162 159 155 151 149 150 149 149 147 148 148 150 144 142 142 140 136 135 129 122 119 114 98 90 84 61 32 8 4 4 5 12 17 16 23 22 18 14 16 14 16 24 13 2 5 8 8 7 6 15 19 12 11 17 21 21 14 32 71 82 105 122 129 138 145 152 156 156 155 156 159 163 165 168 170 171 170 169 169 168 170 169 172 171 168 168 163 158 155 153 157 159 160 157 156 153 148 147 149 151 148 148 150 148 144 146 144 142 139 136 129 122 118 116 99 86 84 62 29 11 5 2 13 19 13 21 27 23 14 17 17 14 22 11 2 6 7 8 4 8 15 22 15 11 16 18 21 23 17 45 79 97 117 132 137 138 145 155 158 161 162 159 159 166 169 168 174 175 171 174 175 173 174 175 172 175 173 171 169 162 158 155 157 160 158 155 154 150 149 148 149 148 149 146 150 148 145 143 148 146 140 137 133 123 113 113 99 87 84 61 27 9 7 7 22 13 15 29 24 15 18 18 16 20 8 2 5 6 8 6 6 10 20 19 12 16 17 19 24 23 20 60 84 101 123 135 137 131 136 147 153 156 159 158 156 160 163 169 172 174 173 172 175 176 173 175 171 173 177 173 170 167 160 159 161 162 160 160 157 153 150 150 149 148 149 147 148 148 145 145 146 147 144 137 132 119 111 109 96 84 84 63 33 12 8 8 11 17 29 25 17 17 17 12 15 9 1 5 7 13 11 7 8 14 26 13 13 15 15 21 24 16 40 74 92 113 128 139 143 138 135 140 147 151 154 152 150 154 160 166 167 168 169 167 170 173 172 172 168 168 167 163 165 158 158 160 163 161 160 161 156 156 153 150 150 150 148 150 149 145 148 147 144 144 143 139 133 119 111 106 94 82 82 66 37 18 10 8 16 30 31 19 18 17 13 14 13 2 3 8 6 13 11 8 12 24 18 9 13 17 22 25 21 24 67 85 102 120 138 146 144 143 142 142 146 150 150 151 151 151 155 157 164 165 164 165 163 166 169 169 167 161 158 158 157 155 155 158 162 160 160 158 157 155 153 151 150 149 149 147 147 145 146 148 147 144 144 142 133 124 115 108 96 87 85 65 35 13 11 13 31 35 24 19 21 13 14 16 5 2 6 8 9 8 13 12 19 17 6 11 15 19 27 25 17 52 82 95 112 132 142 142 143 146 147 146 151 156 156 156 157 160 159 165 167 167 170 171 171 174 173 171 167 162 162 158 157 155 154 154 157 162 159 157 156 152 151 152 150 150 150 147 143 143 144 146 141 142 139 138 131 124 115 106 97 88 82 68 38 12 16 17 38 28 16 20 16 14 15 9 8 9 8 10 8 8 11 19 17 7 8 10 16 21 23 18 41 69 88 107 120 139 145 144 143 146 147 147 150 154 155 157 155 156 159 165 170 175 174 177 176 173 172 170 167 161 160 161 160 157 157 158 155 156 155 154 152 150 149 149 151 149 146 144 142 143 142 142 142 139 135 132 127 124 115 107 100 90 85 73 44 18 17 15 31 18 23 20 15 13 5 7 10 8 10 11 8 11 18 19 7 7 13 18 23 21 21 41 63 79 101 117 129 137 144 147 145 146 147 144 148 149 153 154 154 152 155 158 165 167 169 172 174 172 170 170 167 164 155 155 159 158 159 159 154 156 157 152 152 151 142 145 149 147 143 143 144 143 143 141 141 137 135 130 124 121 116 111 104 93 84 75 51 22 16 19 15 23 23 18 14 6 9 11 9 8 11 9 10 16 20 10 8 12 16 19 18 17 33 57 78 94 113 124 129 135 143 144 143 144 146 145 146 149 150 155 156 153 149 145 152 158 162 164 166 169 166 166 166 163 158 156 160 160 159 161 158 157 158 156 152 148 147 145 147 144 143 143 143 143 144 143 138 136 133 127 123 120 118 114 104 92 79 73 57 23 18 23 19 24 15 12 10 11 10 11 8 9 8 9 14 22 13 8 12 14 15 16 21 30 45 67 87 107 122 128 131 133 137 142 144 148 149 151 155 157 159 163 164 164 160 157 153 152 154 158 156 157 164 164 162 160 157 156 159 161 160 159 160 162 161 157 153 151 147 143 145 143 144 144 143 144 146 145 141 136 127 128 127 127 127 117 106 93 76 70 55 17 20 37 25 19 13 12 16 16 11 9 10 5 10 15 20 13 8 11 13 13 16 23 33 41 54 77 100 118 129 133 135 134 137 140 143 147 150 150 156 159 159 161 163 165 165 169 170 167 163 159 158 159 159 163 166 164 161 156 155 155 156 156 162 163 159 160 158 157 152 147 143 145 149 148 147 145 148 142 142 139 119 122 129 130 127 121 106 89 76 73 56 19 30 60 16 13 10 9 6 13 11 10 6 7 15 20 15 9 12 13 16 21 29 35 40 48 75 101 113 121 128 135 135 135 137 138 141 144 149 150 151 153 156 158 162 160 162 163 165 169 171 171 171 171 170 168 166 166 163 159 156 158 157 156 164 162 160 162 159 156 152 150 150 149 150 148 144 145 147 141 142 140 137 133 132 131 125 120 102 85 76 76 57 22 40 94 18 18 18 15 13 11 13 14 10 16 21 18 16 19 19 24 32 45 54 58 63 67 92 114 121 120 124 128 131 132 136 137 136 140 146 147 148 152 155 157 157 158 160 162 165 164 169 173 170 169 172 169 169 168 167 162 159 158 160 157 162 164 160 160 161 159 155 153 149 148 151 145 146 147 146 145 144 145 142 141 134 135 128 119 97 84 79 80 60 25 59 106 13 13 16 18 12 13 12 13 18 17 18 17 16 19 32 45 62 74 82 81 90 97 107 120 127 124 126 128 128 131 136 136 138 141 143 145 150 156 158 159 161 161 160 163 164 165 167 170 172 169 167 169 168 167 169 162 159 157 159 160 163 164 164 160 159 158 158 155 153 151 152 148 145 147 151 146 148 148 144 142 140 139 133 116 90 86 85 84 63 41 71 102 10 6 9 9 10 9 13 17 13 10 7 8 14 27 41 63 85 90 95 98 108 115 117 118 124 127 130 129 127 130 136 139 141 136 142 149 153 156 158 162 165 166 165 165 166 167 166 165 172 169 168 171 168 165 164 163 160 159 155 159 158 159 159 160 159 163 162 154 154 154 154 150 150 150 152 148 151 147 145 148 146 143 136 117 95 92 93 86 66 45 62 92 18 14 13 11 12 15 16 11 7 7 13 15 20 32 51 76 99 103 105 110 115 125 121 115 122 126 130 130 127 132 139 141 138 141 144 149 156 157 156 158 162 168 168 169 167 168 169 170 171 169 170 172 168 169 170 166 163 161 157 158 159 160 162 161 160 161 162 160 159 159 156 152 151 151 152 151 152 152 151 146 147 144 135 123 107 99 101 91 77 49 50 80 20 15 18 18 19 16 10 6 7 15 16 16 25 39 61 82 102 114 114 117 121 128 123 118 124 126 128 130 130 136 145 143 139 143 145 145 145 149 153 153 160 166 166 163 164 166 173 180 178 172 169 169 172 172 170 168 166 163 161 156 157 163 163 158 161 166 164 163 160 159 155 152 149 154 155 155 152 149 147 145 141 140 138 129 112 105 103 95 84 55 57 88 16 19 21 23 16 12 7 6 16 16 15 22 29 48 69 98 112 119 124 123 125 129 127 124 123 124 126 130 134 142 144 145 144 138 132 132 133 136 140 145 148 150 160 159 162 163 172 179 179 175 171 167 170 169 169 170 166 166 165 157 157 163 161 158 164 169 167 166 163 157 155 153 156 154 156 155 151 150 146 146 142 136 134 131 113 97 100 101 95 57 61 100 39 45 34 20 17 12 8 11 16 15 19 22 36 60 90 106 115 127 129 126 127 128 131 127 120 120 124 134 138 143 145 137 125 116 119 122 116 118 119 126 126 128 132 141 150 154 163 171 171 170 168 164 166 167 169 167 162 165 162 160 158 158 159 159 162 167 169 168 160 159 161 157 151 149 150 154 153 148 146 144 145 137 128 121 100 83 86 96 103 78 61 95 83 53 23 14 13 11 15 16 17 13 16 27 56 81 100 113 124 130 129 128 128 128 130 126 120 122 126 133 136 129 120 109 107 108 115 112 101 102 104 108 109 109 107 110 116 124 138 149 153 158 163 159 156 161 163 164 160 162 160 157 158 158 156 158 158 163 166 166 161 159 156 153 152 147 144 149 150 148 145 135 127 124 115 100 80 72 73 78 88 75 66 97 73 35 21 18 18 15 11 13 13 16 33 54 71 92 108 121 127 131 129 128 128 130 124 125 117 116 122 121 116 109 104 98 97 98 102 88 84 93 94 89 90 91 93 90 91 89 91 93 100 123 142 149 146 156 154 158 156 163 159 155 157 157 158 156 157 163 165 160 157 155 149 149 149 147 145 141 124 122 112 89 74 76 78 71 62 60 62 70 77 81 78 85 105 77 39 25 21 14 13 12 19 33 36 53 72 102 122 125 125 129 130 130 133 132 126 127 117 114 117 108 99 96 96 92 100 104 99 96 95 98 92 81 76 74 76 73 68 62 57 63 73 88 105 131 135 136 142 152 153 156 157 154 155 158 158 153 154 157 159 157 151 147 144 144 140 134 132 105 85 86 68 63 55 47 50 54 56 52 49 50 62 82 86 63 109 98 67 43 25 14 20 25 29 26 47 67 84 116 124 131 133 128 130 132 135 133 128 124 117 115 106 103 106 113 114 114 121 123 134 140 136 133 135 130 125 118 109 101 89 84 85 78 80 90 97 113 113 118 133 137 145 152 153 149 153 155 154 152 151 147 152 151 146 140 136 133 118 103 85 57 60 56 61 60 50 43 39 46 47 45 45 47 58 80 75 55 106 87 53 41 30 22 30 33 40 46 67 80 107 113 121 134 134 129 130 131 133 137 132 123 115 109 102 111 113 122 124 127 126 134 144 147 149 150 148 147 143 140 137 133 131 118 110 109 104 99 108 110 100 118 127 118 121 136 147 148 152 153 152 152 148 146 148 142 139 126 114 114 95 77 59 55 54 57 61 59 58 54 55 61 58 55 54 57 69 92 66 63 98 74 54 42 33 36 26 31 47 69 80 90 100 106 121 133 134 133 133 133 137 137 133 126 119 113 105 101 107 114 124 126 129 135 139 142 142 140 136 130 127 124 125 122 122 123 117 111 111 108 103 114 109 112 117 114 110 124 139 149 154 151 148 144 143 139 142 139 131 123 109 103 82 65 63 54 47 47 49 57 61 56 53 58 60 63 61 68 78 85 59 77 108 100 80 56 44 33 22 46 58 80 64 71 101 109 124 132 133 133 137 132 137 136 132 133 125 119 114 110 112 116 121 124 126 131 128 115 92 77 70 61 58 63 68 74 72 77 89 99 99 101 103 108 111 114 117 121 130 134 139 147 153 151 146 138 136 134 134 133 128 119 108 90 72 53 31 23 27 15 11 45 63 50 36 43 48 64 78 75 78 84 62 86 117 114 102 77 51 37 39 47 62 75 60 87 102 104 119 132 132 133 133 133 136 135 134 138 133 128 125 122 119 122 122 124 114 97 77 48 37 32 27 23 26 34 45 56 76 66 55 66 83 89 90 96 107 113 119 123 131 137 139 146 150 147 143 134 128 128 128 122 111 99 80 58 43 18 14 70 69 28 30 69 124 104 67 47 40 58 78 75 82 91 69 97 123 119 114 104 61 50 60 50 50 77 76 86 89 104 122 133 134 133 133 133 135 135 136 141 142 135 128 127 125 127 121 102 81 59 47 49 31 27 53 123 70 49 81 94 79 95 88 69 67 81 84 84 89 99 110 118 126 129 137 142 146 147 147 130 124 121 116 103 87 64 44 43 66 37 38 32 22 47 42 101 146 121 101 92 52 54 75 80 93 100 72 86 133 127 121 108 81 73 59 57 55 69 73 74 91 117 131 132 132 134 136 136 137 137 139 138 142 143 131 128 126 123 107 97 80 55 87 109 33 38 60 81 52 60 100 169 139 89 96 106 88 80 85 89 84 85 91 98 112 122 133 146 149 149 144 129 121 118 106 81 58 51 52 75 121 91 47 45 42 46 78 149 148 129 130 110 66 71 81 95 101 105 84 75 148 147 131 109 88 94 75 61 58 66 62 80 99 117 129 130 132 135 136 139 141 141 142 144 145 146 140 128 123 114 108 102 92 104 126 140 66 51 56 31 61 65 124 178 167 135 100 95 107 108 97 97 100 100 99 93 97 114 129 146 150 150 143 133 123 109 83 56 66 73 49 88 120 135 120 86 77 102 150 156 141 136 127 93 73 81 88 98 108 111 96 81 150 163 145 114 97 108 90 59 59 58 67 87 107 113 124 123 132 133 138 143 144 145 148 147 149 148 143 130 116 111 114 114 122 128 138 151 128 65 55 49 61 89 167 181 171 141 120 140 123 111 130 121 119 124 120 123 115 106 123 144 152 151 148 135 125 108 74 70 99 86 86 128 142 139 156 157 150 146 133 119 118 119 111 81 76 87 91 103 113 116 110 89 144 155 146 122 105 113 99 56 64 61 65 90 113 112 125 128 134 135 139 145 147 149 150 150 153 156 149 141 135 136 140 138 133 131 131 134 146 140 123 98 114 156 174 164 159 143 130 143 126 99 146 170 158 152 141 142 143 124 121 147 159 155 155 141 132 112 82 100 128 118 142 160 137 125 127 122 120 120 113 120 119 120 101 71 84 92 95 110 113 123 120 79 128 152 150 133 122 119 92 56 67 62 59 89 109 114 120 126 134 136 144 147 150 153 152 150 153 156 155 152 148 147 149 145 135 134 135 137 134 138 149 147 144 140 148 142 140 141 130 124 137 148 169 183 189 184 165 154 155 141 125 140 164 166 158 148 141 120 92 114 144 145 148 138 123 115 115 118 122 128 133 135 122 105 71 70 96 100 101 113 118 128 122 85 119 145 157 141 128 126 109 68 55 65 60 75 98 115 121 125 129 136 143 147 151 153 156 154 153 152 157 158 152 148 145 146 140 134 136 142 145 146 129 135 129 121 128 127 125 120 123 133 142 161 177 177 179 182 169 159 163 150 133 142 165 172 164 154 147 130 103 113 131 138 131 128 123 112 102 102 108 109 105 95 83 69 72 100 107 106 107 115 123 134 128 82 149 135 137 134 126 130 110 65 40 74 68 79 100 112 121 123 129 137 142 147 151 154 157 157 153 153 155 156 151 151 150 146 135 128 128 130 137 142 144 151 145 136 131 124 119 111 115 128 137 148 154 164 171 177 169 163 161 151 137 150 165 172 167 161 150 139 115 108 122 129 131 130 126 121 113 104 94 86 80 77 83 96 117 125 114 114 115 122 127 136 121 78 155 141 141 138 110 124 123 56 43 67 67 83 97 107 117 120 130 136 141 143 149 155 156 155 153 155 155 155 156 155 153 147 144 143 133 120 115 114 115 117 118 116 111 104 107 116 127 136 140 144 154 166 173 171 166 164 156 145 140 152 165 176 171 165 155 144 127 107 119 138 137 137 131 129 125 126 124 122 119 123 129 134 133 129 123 124 123 122 130 130 111 87 145 147 153 140 103 107 132 76 60 62 70 77 98 106 115 116 128 134 141 145 149 153 155 154 156 155 156 157 158 157 155 157 158 154 149 139 129 122 115 110 111 113 118 127 136 145 149 145 145 163 176 177 177 171 164 162 149 143 142 153 167 176 171 168 162 150 137 118 113 136 150 148 143 140 137 136 138 137 138 137 139 137 137 134 133 129 128 127 127 119 95 87 147 153 164 154 121 106 127 87 57 54 72 75 100 109 115 118 124 131 137 143 149 153 155 154 154 156 156 159 158 159 159 157 155 156 160 161 162 160 155 152 152 151 148 152 150 149 151 154 168 182 182 178 172 171 162 158 148 142 146 160 169 174 169 165 162 157 147 131 111 126 147 156 154 150 148 147 145 145 142 143 142 140 138 138 140 137 131 130 121 112 98 89 153 158 164 161 152 129 120 91 60 48 67 70 92 105 110 120 127 130 134 137 147 152 155 156 157 158 159 156 159 160 159 154 154 156 159 159 159 162 159 161 163 159 158 154 156 159 164 172 180 182 180 175 168 164 157 154 148 144 154 166 172 170 167 165 161 159 154 137 118 120 144 146 150 153 153 150 147 146 145 147 144 143 141 142 142 136 131 131 124 112 104 91 157 163 164 159 156 140 127 100 67 46 56 63 86 100 106 118 125 129 134 136 146 148 149 155 155 159 160 158 159 159 157 160 159 159 159 161 155 148 152 158 157 158 159 160 160 166 175 183 181 179 174 165 163 154 147 151 146 146 158 170 183 178 167 165 162 159 153 141 122 111 136 134 140 154 156 152 152 150 150 148 147 147 145 144 140 134 126 123 119 111 100 95 157 163 166 162 157 147 134 107 72 49 43 52 82 98 98 111 120 128 136 137 141 147 152 153 152 158 160 161 159 159 159 161 160 158 157 159 157 154 159 156 155 158 161 164 168 172 175 183 180 172 169 159 153 149 147 147 150 149 156 169 189 192 171 165 159 156 148 141 115 98 123 134 145 161 143 145 155 150 150 151 148 149 145 142 137 134 127 119 113 112 97 98 156 159 164 161 159 155 144 118 70 47 36 45 75 92 97 108 116 123 132 137 140 144 150 152 154 158 159 163 162 164 160 162 163 158 160 162 162 163 164 160 160 166 168 169 174 178 178 177 175 170 164 155 146 145 143 144 150 148 149 159 181 196 178 160 157 153 146 140 101 91 117 135 149 158 132 147 152 153 153 154 153 152 142 138 135 131 126 114 106 110 92 101 146 152 157 156 155 148 137 120 81 47 35 46 68 79 98 99 109 120 130 136 140 146 149 150 156 160 159 164 164 162 158 161 164 164 164 162 165 164 163 170 171 172 174 177 178 180 178 179 173 162 158 149 144 145 146 145 147 146 146 153 168 187 178 164 156 154 145 128 92 90 112 131 149 155 147 155 154 156 156 155 153 150 138 133 131 130 124 110 102 109 91 103 93 120 138 143 140 124 95 65 62 52 40 51 55 68 101 99 104 112 126 136 139 144 151 152 152 157 158 161 164 165 161 159 161 163 169 171 173 174 173 180 180 180 182 183 181 182 179 179 169 161 151 147 142 144 146 145 145 146 147 152 163 184 186 168 155 149 146 118 88 90 105 126 141 154 153 153 155 158 155 151 152 146 135 130 130 129 119 106 104 100 80 104 23 41 58 71 57 46 37 32 45 49 44 50 58 73 102 106 106 111 123 133 137 140 145 149 152 156 158 159 164 164 161 160 162 164 169 174 174 179 183 187 183 180 183 181 183 180 179 177 167 157 151 147 143 140 143 143 145 145 146 148 161 178 183 172 155 147 141 118 92 90 98 121 138 149 154 156 157 156 153 152 147 142 137 133 129 127 115 99 98 93 72 104 24 23 19 13 1 18 42 55 56 38 45 48 64 68 92 110 111 110 118 128 135 141 146 148 146 152 158 156 157 161 161 159 160 164 168 168 173 178 184 182 185 187 186 179 179 179 178 174 165 155 153 147 145 141 140 140 145 147 144 147 155 163 176 172 159 145 142 117 94 94 95 115 134 147 149 155 156 153 151 149 144 142 136 130 125 126 110 92 95 80 74 100 30 31 22 14 10 25 53 76 77 41 35 49 56 71 84 108 104 104 118 125 131 140 145 147 141 147 154 158 158 159 159 161 162 166 164 171 176 176 178 178 183 185 187 186 182 179 176 169 164 157 150 143 139 139 139 141 143 141 141 146 156 162 167 169 157 144 139 123 96 97 93 105 130 143 145 152 154 149 150 148 142 140 135 124 120 120 99 83 88 73 79 101 36 42 26 14 11 32 73 94 86 45 33 45 47 68 77 94 102 107 115 123 129 138 144 144 144 148 155 156 157 158 160 160 161 164 162 168 171 174 177 178 177 179 182 186 182 180 177 171 164 156 144 133 132 135 135 139 141 142 144 147 152 159 166 169 162 147 136 126 103 99 100 99 124 137 142 145 149 148 147 144 137 134 127 120 115 111 91 74 79 64 79 100 46 42 23 20 7 32 83 104 97 51 34 42 47 55 81 99 110 106 113 122 126 134 139 142 144 145 142 152 155 154 157 158 160 161 163 164 167 171 175 176 179 178 180 182 181 180 174 170 164 153 137 129 131 131 137 141 139 141 144 149 149 156 169 176 162 150 142 128 107 99 98 103 121 137 140 142 144 148 143 138 133 127 123 116 111 101 81 74 81 60 83 100 52 46 29 22 4 34 88 106 90 55 30 32 42 53 79 103 106 108 112 119 128 133 136 138 139 144 138 146 153 153 155 156 159 162 164 163 167 167 172 175 174 176 177 177 176 174 170 166 160 154 137 129 128 131 138 140 139 141 147 150 155 159 176 191 171 154 141 129 112 101 96 97 124 138 138 140 145 146 143 134 125 121 121 112 106 93 69 76 73 74 90 101 59 46 36 18 6 34 93 109 83 49 38 32 36 51 67 96 106 112 112 120 130 136 136 134 138 143 145 147 148 150 157 156 157 160 162 166 168 168 172 171 173 177 173 175 173 171 164 164 157 139 137 132 132 133 132 134 145 146 148 149 155 163 178 188 178 155 141 131 115 104 96 89 121 134 139 140 140 138 140 132 125 123 116 106 98 81 70 79 69 84 94 101 55 42 37 13 11 37 90 107 86 42 43 43 50 49 57 87 106 115 115 122 126 132 135 133 137 143 142 147 148 144 149 153 159 158 162 165 168 168 170 171 169 169 170 174 169 163 159 161 152 134 133 132 136 136 132 135 148 150 144 150 156 159 177 191 176 153 140 132 110 101 98 91 110 126 135 139 134 137 139 134 125 117 108 99 89 74 75 81 71 84 98 101 46 43 35 16 13 35 88 102 75 49 58 44 60 46 54 90 99 114 116 115 126 133 135 133 138 141 142 146 147 145 148 152 157 157 162 163 165 166 165 168 168 167 168 166 158 157 160 157 142 131 131 132 136 135 136 139 144 147 147 152 154 159 170 191 180 146 135 121 103 98 104 99 101 124 133 138 138 135 134 129 120 113 102 92 83 74 71 70 81 88 100 100 46 46 29 27 16 37 86 92 73 69 50 41 60 45 54 82 96 105 112 112 123 136 136 136 137 138 141 143 147 149 152 153 154 158 160 163 160 163 164 164 164 165 164 160 156 159 160 154 137 121 125 129 135 135 141 139 142 144 149 149 148 154 160 179 181 153 138 117 97 101 115 109 92 119 130 136 137 132 132 123 118 109 98 82 76 76 74 65 88 90 99 100 49 41 22 34 26 44 80 87 79 63 44 45 53 50 51 77 96 103 108 118 128 133 135 135 137 137 140 141 143 147 152 153 153 154 155 158 156 159 163 164 165 163 163 157 153 161 165 160 144 115 119 126 129 131 139 145 147 145 146 147 144 153 156 164 174 158 141 122 98 105 119 112 87 107 120 128 134 132 131 124 114 103 91 78 77 77 81 73 78 89 97 98 51 44 28 46 36 46 81 98 77 52 36 37 60 55 55 77 104 104 102 118 129 130 134 132 131 135 138 139 144 146 151 152 152 152 149 152 158 159 160 163 161 162 160 150 154 158 164 163 161 131 112 118 125 132 134 147 148 144 144 145 141 148 150 153 164 160 145 123 100 105 117 104 84 102 112 125 132 130 126 122 109 97 79 75 80 71 75 72 75 90 95 99 60 40 35 50 42 44 72 106 89 36 36 40 67 40 61 72 100 106 105 113 122 132 137 135 133 139 136 137 144 150 151 147 153 153 149 151 157 159 158 160 161 158 153 152 160 163 165 165 166 154 115 103 114 124 131 143 147 147 144 139 134 144 153 179 184 165 152 130 108 103 110 91 83 105 113 120 126 129 130 119 106 88 74 76 76 70 65 69 76 92 95 98 60 35 34 45 55 52 62 95 101 53 40 42 59 48 68 71 98 107 112 119 129 124 137 138 133 136 135 135 139 146 148 146 146 149 152 152 154 153 157 157 155 152 151 156 162 164 168 169 165 162 136 94 80 85 100 127 138 138 145 139 138 146 186 195 172 161 156 142 116 104 93 72 80 101 113 117 118 125 124 110 96 84 76 76 72 68 65 64 71 91 93 94 50 33 44 49 57 58 58 83 101 73 51 47 57 60 71 70 103 103 107 115 125 122 137 140 137 133 131 133 137 142 145 145 145 152 153 152 150 138 145 153 149 150 156 159 161 165 164 166 167 157 145 131 89 57 46 60 103 129 134 136 145 161 172 160 153 155 155 149 130 103 63 59 90 102 109 114 114 118 116 102 88 81 82 73 69 62 61 77 79 92 98 97 47 38 48 49 52 61 57 73 99 75 45 43 55 62 66 69 98 94 103 105 120 125 133 140 140 134 132 135 136 135 139 141 146 150 151 151 150 148 150 151 146 154 158 156 163 165 167 162 161 151 149 144 117 83 76 42 33 73 107 114 128 151 150 139 142 144 143 146 137 82 34 58 85 106 109 112 118 114 112 99 78 73 81 74 72 54 60 78 88 95 98 97 42 40 48 50 53 63 60 61 84 71 41 48 46 52 66 68 78 100 107 98 116 131 136 140 139 129 136 134 131 132 137 139 141 146 149 149 149 151 152 155 153 156 157 157 158 156 163 157 155 157 158 127 100 106 97 59 49 48 49 75 94 117 126 124 123 121 120 125 96 41 41 68 86 111 111 105 114 119 106 90 76 75 74 67 70 56 66 85 92 95 97 97 34 39 48 53 61 61 65 54 63 86 57 32 38 52 67 72 75 83 95 106 108 128 140 140 140 126 124 133 129 132 136 139 139 137 142 144 147 152 153 152 151 153 150 150 155 157 158 154 154 150 144 123 78 100 93 59 82 89 45 29 51 75 85 86 87 81 71 56 32 43 48 67 93 110 112 109 98 98 97 84 71 70 71 63 55 55 74 88 91 97 98 97 36 42 51 56 60 63 63 57 48 80 63 25 35 47 72 72 71 78 95 111 101 123 132 138 141 130 122 132 126 127 132 135 134 137 143 147 150 154 155 139 142 139 137 137 142 148 152 146 139 134 130 107 79 87 72 60 98 83 60 44 28 26 30 32 24 21 20 11 23 57 69 59 96 111 115 113 110 91 81 78 74 72 71 64 40 45 75 91 97 97 96 96 41 41 51 61 63 62 62 56 52 60 66 29 39 39 50 73 61 77 94 100 95 113 127 132 127 121 122 132 135 132 127 129 132 138 141 147 150 150 129 126 127 124 127 134 136 129 127 138 121 109 114 93 90 80 63 74 101 81 74 76 43 26 15 20 23 29 28 27 34 52 76 69 78 105 110 107 99 82 70 74 77 77 70 63 40 50 87 98 96 96 96 96 38 44 51 62 66 62 59 63 61 50 57 41 39 38 51 57 54 70 94 86 98 99 120 133 108 113 122 125 136 134 126 125 125 130 137 138 139 120 107 118 120 118 110 118 121 115 115 128 108 101 105 103 80 68 62 98 105 88 79 78 66 57 31 35 51 62 47 48 41 60 68 73 74 88 79 86 80 69 66 72 74 70 58 58 52 72 93 96 96 96 96 96 36 52 56 65 70 64 64 67 61 53 40 40 36 38 54 53 47 56 83 92 94 95 105 135 114 110 112 111 128 134 126 128 128 132 133 132 121 88 95 102 105 100 101 107 105 111 104 108 97 84 91 93 55 53 79 115 96 87 89 90 98 70 44 65 75 61 59 50 54 62 53 74 76 79 74 69 65 52 47 63 74 61 55 54 50 82 95 91 95 96 96 96 37 55 59 62 68 67 70 67 61 57 31 36 34 46 43 54 45 52 71 88 96 97 104 128 125 121 113 101 111 132 124 124 124 121 130 114 100 83 92 83 82 85 91 102 101 95 87 90 87 77 86 65 43 59 79 87 88 95 94 93 82 64 42 72 81 54 49 45 48 46 51 65 86 69 69 60 59 47 44 52 54 63 59 50 58 91 96 94 92 95 94 95 42 52 54 61 70 73 71 68 68 54 33 29 42 32 39 48 42 44 62 79 95 104 107 121 126 125 124 109 109 128 121 119 121 116 107 101 93 93 82 76 70 72 71 93 84 79 82 75 84 70 64 59 47 48 76 80 78 86 90 80 64 60 60 55 60 46 45 38 43 46 47 51 65 63 58 56 54 44 52 37 42 53 41 41 74 97 94 95 94 96 95 95 43 45 57 62 68 75 77 75 69 59 39 25 33 17 21 42 36 41 53 64 99 94 112 110 113 119 119 107 110 123 111 109 118 106 97 93 76 73 63 66 58 61 72 81 67 74 68 53 71 60 61 53 33 47 66 73 67 58 68 49 44 47 38 29 31 32 50 43 42 38 52 48 43 50 58 49 48 35 38 38 43 38 27 53 88 97 94 94 94 96 94 94 40 44 60 63 72 74 81 78 69 62 51 22 19 24 12 34 41 34 50 57 79 77 99 101 100 112 108 93 107 118 108 104 105 108 87 79 72 62 59 67 58 60 69 67 53 62 54 45 68 54 45 39 39 51 55 59 40 34 42 39 48 52 39 22 23 35 45 39 35 39 54 46 46 47 52 44 51 39 39 33 50 35 40 76 94 93 94 94 93 94 93 94 41 44 60 69 74 74 75 75 73 67 56 34 18 24 21 31 41 26 46 52 58 70 89 94 77 100 116 100 94 102 101 98 110 103 74 66 73 65 65 72 49 44 48 47 40 48 42 42 49 41 41 47 48 45 54 55 49 48 51 51 52 52 50 34 30 43 41 38 38 43 32 38 48 51 52 57 60 51 53 52 54 29 52 84 96 92 95 94 94 94 94 94 42 46 67 72 68 66 68 71 70 68 61 48 25 25 21 32 37 29 28 46 38 56 70 70 75 90 104 97 98 101 105 83 95 82 69 61 50 55 57 64 42 52 68 79 88 80 72 70 86 83 86 101 100 85 77 73 78 77 75 71 67 66 62 62 66 67 67 69 69 65 59 60 70 61 64 71 69 61 55 48 50 37 58 91 97 93 94 94 94 94 94 95 42 54 68 70 71 72 67 62 62 64 69 56 32 19 21 31 28 27 23 36 28 35 56 60 71 84 89 87 90 95 102 77 84 79 71 68 47 54 67 67 73 79 96 108 123 115 111 115 122 111 120 139 142 134 130 124 124 122 118 115 110 121 116 112 115 113 107 108 100 89 83 88 80 73 73 70 67 65 54 38 46 54 66 90 89 92 93 94 93 94 94 94 42 53 70 76 76 75 69 62 55 60 64 62 50 29 28 28 32 16 22 27 29 24 54 82 59 60 89 84 72 88 88 71 72 70 65 68 65 64 73 71 97 105 117 130 132 130 121 119 122 125 129 133 136 146 151 149 146 138 131 127 118 122 125 124 127 127 118 112 105 104 102 97 74 71 78 76 58 62 52 40 46 63 74 92 90 92 92 94 93 94 94 95 38 53 76 74 69 75 72 65 59 57 57 61 60 50 47 32 29 29 17 18 20 21 45 70 48 61 90 74 61 71 77 68 59 71 68 58 51 57 66 82 104 119 133 132 125 125 135 128 127 124 128 134 135 142 146 153 153 146 144 132 130 129 130 125 125 124 117 110 117 122 93 79 80 83 80 75 64 66 65 43 39 57 80 91 91 92 93 93 94 93 94 93 48 61 78 75 67 70 75 68 63 57 54 58 60 56 49 40 30 19 19 16 16 12 32 42 41 73 79 73 54 61 61 65 52 61 75 69 63 57 66 98 106 120 133 127 118 124 135 134 136 135 134 133 126 132 134 135 137 136 132 126 124 120 115 115 113 110 118 124 107 91 81 82 91 84 72 64 59 71 56 36 54 62 91 91 91 92 92 92 92 92 93 92 51 63 74 75 62 67 76 69 60 57 55 59 62 55 46 51 42 24 19 20 16 18 26 23 33 52 62 60 48 47 47 49 56 55 68 63 68 62 70 86 115 129 128 133 127 123 126 131 133 138 135 132 126 133 135 124 126 120 120 111 105 98 101 110 102 110 98 96 82 69 73 77 88 94 60 54 57 62 43 32 66 78 85 91 91 92 92 92 92 93 93 92 41 59 72 75 63 56 68 74 71 64 59 57 54 53 49 52 48 36 23 23 19 16 22 15 22 34 43 48 49 38 41 45 49 44 43 58 52 62 61 96 125 124 126 126 132 126 121 126 130 132 135 131 121 124 120 99 104 111 110 99 96 84 98 113 97 97 76 77 83 78 78 83 92 110 81 53 48 39 36 38 69 78 89 91 91 92 92 92 92 92 93 92 39 54 75 74 70 57 57 69 75 68 64 59 50 51 55 51 48 47 40 22 19 18 17 17 21 21 39 46 39 33 42 46 53 41 40 45 45 55 83 106 111 124 123 122 128 136 131 121 127 124 122 124 119 123 109 94 82 94 88 91 91 86 94 113 103 91 70 70 85 88 79 86 106 95 85 60 35 28 35 42 67 85 92 91 91 92 91 91 91 92 93 93 37 51 75 79 76 66 54 58 68 75 70 65 53 50 54 53 50 49 46 36 19 22 31 14 16 16 23 28 30 26 29 33 41 41 33 28 45 58 86 107 109 114 127 129 128 136 120 118 122 120 117 122 122 109 94 93 85 88 79 96 101 85 85 99 101 95 77 63 67 87 94 85 93 82 58 59 39 37 35 53 83 90 90 91 90 91 91 91 91 91 92 92 58 51 72 79 79 71 65 61 60 72 75 75 65 51 49 48 48 51 49 47 39 19 25 25 16 11 9 16 18 26 24 25 29 35 30 25 43 62 78 90 101 90 112 130 143 142 125 123 123 123 117 117 115 109 94 95 86 94 84 96 89 81 77 87 89 84 74 70 77 86 93 86 95 88 58 57 44 40 45 73 86 89 90 90 90 91 91 91 91 91 91 91 69 64 66 77 76 68 66 60 60 65 73 77 72 57 50 48 47 48 48 50 49 37 20 38 30 24 14 9 9 19 24 32 28 34 29 36 53 78 84 80 83 93 107 127 140 140 143 126 130 129 129 120 120 116 103 106 104 94 96 99 83 62 75 92 89 80 68 66 84 100 96 90 87 74 71 66 46 37 50 85 89 88 89 89 90 91 91 90 91 91 91 90 57 81 73 72 80 70 61 55 56 64 70 71 73 64 52 53 48 45 45 46 49 53 37 26 48 45 32 23 15 11 20 27 25 29 28 40 51 56 79 86 91 98 119 120 126 134 141 134 132 140 139 126 125 117 110 118 106 89 106 96 78 58 63 77 80 79 83 83 99 101 93 86 72 51 51 60 55 43 67 88 88 89 89 88 89 90 90 91 91 91 91 91 70 71 87 69 76 75 61 55 53 56 62 65 74 72 61 53 50 49 44 45 49 51 56 33 27 48 55 50 32 17 12 26 28 24 33 33 50 48 88 88 79 97 93 107 118 129 137 137 130 142 143 135 131 119 116 111 102 88 93 73 75 76 69 76 78 80 86 97 98 93 99 79 73 55 42 55 58 43 76 91 88 88 88 87 90 90 90 91 91 91 91 91 69 71 81 85 74 77 75 58 50 52 58 67 78 77 70 59 56 53 45 43 42 49 57 56 35 28 60 66 50 39 22 17 24 27 37 39 46 56 71 64 59 86 76 94 107 112 127 129 138 143 145 150 136 125 121 103 92 94 92 82 75 75 77 73 77 82 91 97 103 85 87 84 59 56 38 54 52 56 81 88 87 87 88 88 89 90 90 90 91 91 91 91 40 66 77 86 85 77 76 68 52 51 56 63 68 77 76 65 58 57 52 45 41 40 46 57 50 36 35 58 62 56 45 26 20 21 20 31 52 51 50 49 50 63 72 84 104 107 111 118 127 134 143 136 132 132 124 103 91 89 104 87 66 65 77 74 75 84 87 92 108 92 71 83 62 56 43 49 65 79 86 84 86 88 88 88 88 89 89 90 91 91 91 91 59 49 77 80 85 85 77 70 56 48 54 57 63 70 76 74 63 63 63 54 49 44 37 46 57 53 38 31 55 64 61 45 28 24 21 19 35 32 32 41 52 45 52 75 110 101 89 95 112 112 116 114 126 132 121 106 95 97 91 97 74 77 76 73 61 85 82 94 110 89 70 64 43 47 47 46 66 87 85 88 87 88 88 88 88 88 89 90 91 91 91 91 72 58 53 87 82 91 83 72 66 50 47 49 56 62 74 82 72 64 64 64 54 54 46 40 48 54 57 37 33 60 68 61 41 36 36 30 24 24 24 32 40 46 55 72 92 78 74 82 102 106 94 97 114 118 101 88 90 119 103 90 91 78 71 73 70 87 85 87 104 96 61 54 40 44 31 37 66 86 84 88 88 88 88 88 88 88 89 89 90 89 90 91 76 74 56 56 88 79 92 78 68 58 49 46 51 58 68 80 76 67 63 65 63 61 58 46 38 49 60 61 37 38 64 70 59 49 37 33 28 22 17 20 24 31 63 56 56 65 58 84 97 99 83 85 108 99 82 76 92 105 96 75 92 85 73 81 76 87 96 76 90 97 61 54 46 43 32 44 73 85 86 87 87 89 88 88 88 88 89 89 89 89 89 91 69 70 64 50 65 83 75 90 71 69 59 51 46 52 59 70 78 75 63 66 67 65 60 63 47 44 48 60 62 37 38 64 69 66 52 34 27 25 17 19 13 34 40 42 35 59 79 85 85 87 73 79 99 83 80 88 105 98 102 81 87 86 72 81 72 88 96 71 72 89 62 55 43 31 42 57 78 86 85 87 87 87 88 88 88 88 89 88 89 89 90 91 69 71 65 69 56 79 77 78 81 66 62 54 46 46 55 66 73 76 69 68 66 67 65 65 60 44 41 44 56 60 42 38 59 69 69 56 36 24 21 20 22 26 28 31 26 48 77 65 73 77 69 64 86 72 61 85 104 101 101 95 79 69 72 86 82 68 84 56 60 75 65 58 35 27 40 71 87 86 86 87 87 87 87 88 88 89 88 88 88 89 89 90 74 68 73 71 62 60 85 70 80 71 57 56 55 49 50 61 71 77 78 71 64 71 71 64 63 55 46 37 44 56 62 40 38 60 67 65 63 43 27 22 20 25 37 29 29 49 50 48 53 59 71 60 61 61 58 82 91 88 89 93 69 63 73 83 80 68 70 53 50 63 60 39 29 48 56 73 84 86 86 86 86 86 87 88 88 88 88 88 88 88 89 89 77 71 74 72 71 71 78 80 74 82 55 57 55 49 45 57 72 75 77 75 68 67 72 67 64 62 56 48 43 46 59 65 37 37 57 61 64 59 53 40 25 27 21 21 25 42 36 32 46 41 66 55 49 60 67 68 70 85 75 69 71 56 64 81 73 59 56 53 51 63 44 27 39 115 143 112 83 81 85 85 86 86 87 87 88 88 88 88 88 88 88 89 73 78 70 71 74 80 79 82 74 76 74 57 57 53 46 48 64 75 77 80 76 69 70 67 66 72 66 56 50 46 52 63 59 39 36 53 59 58 57 52 40 32 18 24 24 38 43 19 31 32 36 41 28 43 68 58 59 78 53 57 66 58 66 72 55 48 46 47 47 52 35 38 58 94 146 166 130 89 83 84 86 86 87 87 88 87 88 88 88 88 88 89 76 78 71 73 75 77 80 84 85 65 77 64 62 60 55 45 56 72 70 74 77 74 70 69 67 73 76 65 58 53 50 50 62 64 48 39 49 53 58 52 50 43 34 26 28 23 29 26 29 27 37 29 26 32 53 49 47 53 47 52 46 63 58 63 44 36 38 57 46 39 45 46 58 67 90 122 149 127 89 83 85 86 88 87 88 88 88 88 88 88 89 89 69 77 75 73 75 81 84 76 83 76 64 70 60 67 63 54 48 60 66 70 80 80 71 72 73 74 77 73 60 57 58 50 54 60 63 48 35 46 52 52 49 48 45 51 43 25 12 23 23 31 52 22 26 35 33 28 39 40 51 45 39 49 46 53 32 34 48 50 37 40 57 57 62 57 57 74 116 139 106 83 85 85 86 87 88 88 88 88 88 88 89 89 59 71 77 71 73 89 83 78 75 82 75 72 66 63 66 62 53 47 60 72 77 75 71 75 77 68 67 73 66 60 61 58 56 59 62 59 45 35 44 49 48 44 56 59 37 34 26 20 23 22 50 22 32 30 16 35 34 44 30 39 30 28 27 37 24 38 43 42 37 37 46 61 72 67 59 59 82 103 108 89 84 85 86 87 87 88 88 88 88 88 88 89 54 71 80 74 75 81 68 79 65 58 82 72 78 66 66 60 63 51 50 68 71 75 77 78 74 69 68 74 70 63 60 62 57 57 57 59 62 56 39 41 45 44 52 40 37 35 33 30 43 35 34 34 26 30 40 33 28 30 25 25 22 23 31 46 59 82 66 40 36 34 34 37 40 51 62 62 53 68 96 89 85 86 85 86 87 88 88 88 88 88 88 89