P2
# Generated by OpenCV 4.2.0
92 112
255
19 18 21 24 32 37 41 42 41 44 46 46 55 65 73 81 88 81 83 86 83 83 81 84 84 91 86 77 78 86 87 83 79 74 80 87 91 102 107 112 119 104 153 135 113 110 114 123 118 111 124 135 142 150 166 163 168 188 201 207 209 206 209 211 208 206 206 205 202 201 199 197 188 166 127 91 80 78 85 67 83 87 91 89 74 71 62 75 83 65 70 74 19 17 17 22 33 31 34 40 35 40 46 54 69 81 92 97 99 101 102 102 100 99 102 95 98 105 108 108 100 94 96 91 84 89 87 91 99 115 118 130 125 127 151 140 135 137 142 139 137 149 152 161 169 177 187 192 190 197 210 208 212 211 207 208 207 205 205 205 204 202 202 200 199 179 146 118 97 79 75 91 62 81 91 81 72 62 70 67 78 68 67 69 19 16 12 23 23 32 44 47 62 60 62 81 102 103 111 122 117 123 126 120 124 122 132 144 133 125 122 121 120 118 107 102 101 90 98 109 111 116 139 144 143 158 163 174 179 175 172 173 172 172 183 187 197 199 197 197 208 204 212 212 208 202 204 209 206 203 203 203 207 204 202 202 196 185 160 131 129 104 86 85 82 70 84 77 66 63 69 72 64 77 67 72 23 29 32 38 30 35 51 63 65 75 91 105 116 121 129 126 133 137 137 140 142 141 144 148 151 146 141 141 132 128 117 113 107 108 105 113 123 132 130 159 155 158 178 194 197 196 200 198 196 194 192 195 203 202 206 207 207 208 207 210 216 209 205 209 206 204 204 204 203 204 202 199 197 184 166 146 130 122 101 82 95 71 64 69 63 75 57 68 70 69 86 78 29 24 25 27 37 49 49 57 76 81 97 117 127 130 138 136 143 145 148 153 156 157 156 154 150 157 154 156 151 154 145 131 130 121 122 120 120 140 152 162 176 182 183 195 201 203 204 203 206 204 201 203 208 212 210 212 211 210 209 209 211 209 207 209 206 204 204 204 203 204 201 200 193 187 168 149 134 122 120 94 82 96 73 63 65 56 76 63 64 69 71 89 26 24 32 35 37 38 49 66 70 85 107 125 132 134 141 137 144 148 155 160 157 158 161 167 166 165 164 167 162 171 173 156 154 145 144 142 148 148 165 180 187 196 202 204 207 203 203 205 208 207 204 206 206 211 208 213 213 211 211 210 210 209 208 208 206 204 204 204 204 204 202 200 195 188 172 154 140 118 116 114 85 95 98 66 53 59 75 62 77 59 72 78 26 25 33 29 38 50 52 62 80 90 108 128 138 141 144 139 144 153 152 156 158 166 170 174 177 180 176 181 175 180 194 180 176 171 173 178 174 175 181 193 198 200 211 211 211 207 207 209 207 208 207 208 208 205 210 211 211 211 213 212 209 208 206 205 205 204 203 203 203 204 202 200 192 180 172 149 143 129 115 117 104 75 99 89 64 57 64 72 102 66 58 71 27 29 33 31 43 49 60 77 64 81 106 127 143 148 146 143 144 150 155 157 164 169 174 176 176 182 183 183 184 190 193 194 191 190 190 193 192 190 191 199 207 211 209 210 210 208 208 208 208 209 208 208 209 210 207 209 210 211 210 209 208 207 206 207 206 203 204 204 205 202 201 196 187 177 172 155 137 134 114 115 107 94 53 96 74 60 62 69 94 104 49 74 31 33 27 37 40 50 61 55 64 86 112 130 143 150 149 145 148 152 156 159 167 168 173 177 180 186 185 190 191 195 197 198 195 192 193 196 198 198 196 200 207 208 210 209 210 208 207 208 209 209 208 209 209 210 208 207 210 209 212 210 208 208 206 207 205 202 204 204 205 203 201 195 192 185 164 152 147 129 118 119 107 86 69 50 86 73 47 74 84 128 73 65 36 32 33 38 42 42 53 54 65 85 108 131 146 151 149 145 148 153 158 165 169 169 176 179 184 185 188 192 196 197 198 199 196 193 195 197 200 202 201 201 201 205 210 209 207 207 209 207 208 208 207 209 210 210 208 208 210 212 210 209 209 209 206 206 204 201 204 206 205 201 202 197 187 180 177 162 146 128 104 91 93 101 81 53 52 77 62 67 80 103 105 53 32 29 29 30 35 49 51 46 63 82 107 130 147 153 153 148 150 152 155 166 169 173 178 181 185 189 191 194 197 196 196 199 197 195 198 198 199 202 203 200 200 204 209 207 205 207 207 206 206 205 207 209 210 210 208 208 210 212 211 210 209 208 206 205 203 200 204 206 202 200 198 193 178 172 173 167 139 118 101 91 94 75 92 67 56 70 64 57 61 77 115 65 30 32 26 33 43 42 35 43 56 83 110 129 145 157 153 153 152 152 158 167 170 171 180 183 185 191 192 197 198 197 196 199 197 198 200 199 201 203 203 200 201 207 210 208 204 207 208 206 205 206 208 210 211 210 208 210 209 211 208 210 211 210 210 207 202 201 204 205 202 199 194 189 185 180 165 149 151 136 100 96 70 77 68 70 50 50 57 60 69 66 101 66 30 29 29 37 36 34 40 52 67 85 104 122 140 156 154 154 151 153 159 167 170 171 179 182 187 189 191 195 197 195 195 199 201 201 202 203 206 207 205 202 202 207 207 206 203 204 205 205 205 206 209 213 212 210 208 210 211 212 210 209 208 208 207 206 202 199 202 200 201 200 194 190 182 171 166 163 143 122 119 71 80 66 67 45 62 54 51 61 76 72 81 81 26 26 32 39 37 33 44 54 59 80 101 123 137 152 154 154 153 154 161 167 171 172 177 181 186 190 192 196 198 198 199 199 201 202 203 202 205 205 208 205 201 204 206 206 204 205 204 203 205 207 208 211 212 209 209 209 212 213 212 209 211 208 207 208 203 199 199 198 200 199 193 190 179 169 160 151 158 136 103 97 73 69 64 53 53 62 56 61 74 82 69 92 30 29 34 36 32 38 49 53 55 78 97 115 130 148 153 155 153 154 162 168 169 170 174 176 182 189 189 195 196 198 200 198 196 197 200 200 201 199 205 202 201 204 205 206 206 204 202 204 206 205 204 209 209 207 205 205 209 211 210 212 211 209 207 207 202 199 201 200 198 197 191 184 183 175 161 137 136 127 117 94 77 75 59 72 38 52 56 72 87 87 76 71 31 32 38 31 39 48 45 40 57 72 90 113 130 145 152 154 153 155 162 168 171 169 171 174 179 185 186 189 192 194 196 199 199 200 201 201 201 200 201 199 200 203 201 203 204 201 201 205 205 204 203 205 205 205 203 204 205 208 209 209 209 206 203 203 198 197 198 200 199 193 187 179 174 161 151 141 120 125 105 91 87 65 61 54 52 54 61 74 85 95 78 51 32 34 35 33 41 44 39 51 77 91 109 114 124 142 150 153 153 150 159 165 168 169 169 176 180 186 186 190 191 193 193 196 199 198 200 201 198 200 201 200 201 202 201 204 203 201 204 204 205 204 204 205 206 204 203 202 204 207 210 209 207 202 200 199 198 196 197 201 198 191 186 183 175 162 147 143 125 102 99 81 82 63 55 63 53 50 61 75 83 86 78 76 34 36 28 37 41 45 49 63 69 79 95 104 116 137 149 155 153 151 159 165 168 168 170 176 177 178 182 186 188 189 187 192 198 198 197 196 194 197 196 195 197 201 201 203 203 203 205 204 203 203 204 202 203 202 201 202 203 204 205 203 202 199 197 198 199 196 197 201 199 192 187 181 175 169 150 133 115 97 88 72 72 80 53 59 58 46 55 76 77 74 64 78 32 34 33 45 40 43 51 49 65 75 92 102 112 131 146 153 153 149 154 162 167 164 165 169 171 176 179 183 185 186 184 189 195 199 199 201 199 203 195 193 195 199 197 201 201 200 203 203 203 203 203 205 205 204 202 197 198 198 196 202 202 201 199 200 199 196 198 200 196 193 188 181 170 152 147 140 119 95 85 72 61 63 66 49 55 46 50 70 82 78 79 58 39 32 38 46 44 53 41 49 51 66 91 103 113 130 139 150 153 150 154 160 168 169 162 168 174 178 179 182 184 185 185 189 197 197 199 201 199 203 200 195 193 199 197 201 203 202 204 204 203 203 202 202 203 202 199 198 197 196 194 198 200 200 200 200 199 196 198 201 196 194 190 180 168 153 133 124 127 103 75 72 69 65 67 61 55 53 58 65 74 91 77 66 40 35 44 46 50 43 38 44 56 62 84 103 113 122 134 147 151 154 153 156 166 165 162 164 171 179 178 179 185 185 186 190 193 195 193 187 190 199 197 198 196 193 197 199 202 204 203 201 197 200 202 201 199 200 202 201 202 200 197 196 198 200 198 197 197 196 197 197 195 190 186 183 174 151 137 119 105 106 104 65 51 59 71 71 59 56 63 70 70 83 75 61 44 39 47 52 41 34 43 44 51 57 77 97 112 121 135 145 149 155 155 156 164 168 164 166 173 177 176 179 181 185 188 191 194 193 196 192 194 198 199 198 198 195 190 191 194 196 197 199 199 198 198 200 200 200 199 203 204 204 201 202 203 204 202 200 198 196 194 194 193 189 185 182 180 157 135 112 103 86 70 73 61 60 56 57 69 64 64 71 60 74 76 64 45 43 48 44 35 39 47 37 47 54 68 90 108 122 133 144 149 152 154 157 164 166 164 168 172 178 179 182 184 185 188 191 194 196 197 197 197 198 201 201 199 196 197 199 202 202 202 201 200 198 198 201 203 203 201 201 202 203 201 204 202 202 201 201 202 198 195 194 191 188 183 182 175 162 141 118 86 91 66 50 33 40 43 50 66 79 73 76 66 73 67 72 49 46 48 40 33 42 35 36 47 52 62 85 108 119 132 142 148 150 153 154 158 163 165 166 171 176 178 181 182 183 186 191 197 200 201 198 199 200 202 202 200 198 199 199 201 200 201 200 197 196 198 200 203 203 200 202 204 206 205 206 203 199 198 200 199 195 191 190 189 186 183 182 179 174 156 136 126 104 84 64 59 54 50 52 53 81 86 81 69 86 77 79 50 46 52 38 37 36 32 41 46 50 64 84 107 118 130 142 150 149 152 158 167 165 168 168 175 178 180 183 186 188 189 193 198 201 201 202 202 202 204 201 199 197 199 200 199 201 203 200 197 197 198 198 204 205 203 206 204 206 206 205 207 205 202 201 196 188 190 189 187 186 184 182 188 182 169 152 145 144 123 79 57 45 44 46 63 76 82 79 69 85 84 60 46 48 51 42 36 29 42 46 50 54 66 84 105 116 128 137 145 147 149 154 162 167 170 167 175 179 182 187 187 188 190 194 197 200 203 203 201 202 203 203 199 197 197 198 200 201 201 199 198 200 202 201 204 205 203 205 204 206 206 207 208 209 204 201 192 181 183 188 187 186 184 183 177 180 178 171 171 164 155 117 75 56 52 52 61 72 80 67 58 47 74 61 59 46 43 43 41 41 41 46 48 55 69 88 106 119 129 138 145 146 149 152 160 169 173 169 173 179 184 189 187 189 190 193 196 198 202 201 201 201 203 200 201 197 195 196 199 200 199 200 201 203 203 204 206 205 203 205 206 207 207 208 210 210 207 203 197 193 193 192 191 189 185 182 183 182 177 173 172 178 170 139 96 64 57 61 66 78 86 68 56 59 78 63 57 46 51 49 43 42 35 44 44 51 71 103 111 118 130 139 148 148 150 154 160 167 173 171 176 181 182 185 188 189 190 192 194 196 198 200 201 203 200 201 199 200 196 194 194 199 201 201 204 205 203 201 202 203 204 206 207 207 208 208 210 210 206 202 199 198 197 192 193 191 188 184 179 176 175 177 173 180 168 146 107 73 58 69 73 78 79 74 61 63 67 62 62 53 55 41 43 32 38 43 45 59 78 115 117 117 127 138 148 148 152 153 161 166 173 172 176 180 179 182 188 192 190 191 193 195 196 199 202 206 200 201 201 200 196 190 191 200 205 204 204 203 202 200 202 204 207 208 206 209 208 208 209 208 205 202 201 200 199 201 194 191 187 183 181 175 172 175 177 177 178 169 126 86 59 67 79 77 78 75 69 73 60 66 67 59 58 47 37 29 39 45 48 80 93 115 125 119 126 142 147 149 156 155 162 172 177 177 176 179 177 180 184 187 186 188 193 197 195 200 200 205 205 202 201 203 194 188 192 196 199 199 199 200 202 204 205 206 204 207 204 207 207 207 207 206 205 205 198 195 199 199 195 194 193 184 179 174 172 177 178 179 177 170 142 105 73 57 73 71 81 84 77 76 109 59 66 57 56 43 31 27 34 43 55 99 106 113 125 119 128 148 148 154 159 162 167 177 182 180 180 183 186 188 187 187 186 187 191 195 194 199 200 206 207 201 199 203 201 183 189 196 195 197 196 198 200 201 205 205 203 205 201 205 204 203 203 201 197 194 187 185 190 192 187 192 194 190 179 175 174 177 179 181 181 174 155 114 89 52 59 71 79 57 66 119 193 147 66 50 52 36 31 29 35 46 75 110 111 112 120 122 135 151 150 158 163 169 173 177 182 179 178 177 182 189 189 189 186 184 185 187 191 195 198 201 199 197 197 200 204 184 179 192 194 192 191 194 196 196 200 197 193 190 189 193 195 194 193 188 180 173 175 169 162 166 175 178 177 180 178 173 170 174 178 181 177 177 162 132 109 71 63 60 68 93 131 156 170 183 73 51 55 43 28 31 38 52 95 112 111 116 118 126 142 151 152 155 161 169 171 176 179 178 178 180 182 185 188 186 183 184 187 189 184 189 190 196 192 194 196 198 201 189 176 178 183 184 183 186 189 190 184 166 152 147 147 153 158 161 162 162 157 155 149 146 159 162 173 167 158 160 178 171 170 174 176 181 177 178 169 156 123 87 64 68 83 107 156 174 184 159 67 52 57 44 32 46 51 49 98 111 113 120 113 131 150 145 137 139 145 147 152 158 162 167 166 167 170 181 183 180 173 180 179 184 184 182 182 184 182 184 188 192 190 186 175 178 175 173 175 175 172 169 152 131 121 111 104 108 120 131 133 142 145 142 144 146 145 141 146 150 150 151 158 164 168 174 180 184 182 178 176 161 121 104 67 74 110 134 165 178 178 146 75 54 54 45 45 55 39 48 102 117 118 122 113 127 127 116 116 122 119 115 126 129 133 132 137 142 148 148 151 159 157 163 168 170 174 174 177 179 175 176 180 183 182 181 167 169 165 157 154 151 143 136 119 108 108 92 85 90 101 98 103 114 119 119 124 127 125 126 127 132 138 147 155 163 170 174 177 181 179 176 177 171 158 121 96 72 84 149 185 126 54 100 81 48 45 48 50 51 44 59 104 121 122 122 108 107 98 91 95 104 104 100 101 99 100 96 100 97 106 113 115 119 125 135 153 157 162 161 168 168 167 171 177 181 178 178 160 158 161 151 139 135 132 121 113 111 105 88 75 72 80 81 87 95 106 117 129 135 135 136 133 135 140 149 156 166 170 173 176 180 178 175 176 178 177 147 112 99 96 146 153 127 90 98 97 65 55 51 52 57 49 69 103 123 123 120 100 89 84 91 90 95 90 96 87 86 80 81 77 72 67 75 84 89 97 107 131 134 140 144 159 163 160 165 173 181 177 180 155 152 154 147 136 128 121 119 106 101 90 90 92 101 106 109 124 134 138 147 151 155 154 143 145 145 143 147 160 169 173 172 178 182 180 176 179 170 162 174 128 116 129 137 172 174 130 104 106 98 71 63 57 53 58 92 111 120 127 119 95 79 75 76 90 89 91 94 94 98 94 93 85 80 75 71 73 76 85 97 105 111 129 131 153 153 150 157 173 181 181 174 163 151 147 141 134 128 115 109 93 94 98 99 104 107 114 114 140 151 163 164 172 162 170 167 166 161 162 164 171 177 170 173 179 184 179 171 170 179 166 160 144 133 133 162 170 181 174 117 46 115 72 52 59 76 91 93 121 126 127 114 94 81 77 77 90 104 111 112 117 117 132 132 133 124 113 102 92 81 77 78 87 96 109 121 138 138 132 147 169 182 179 175 164 148 135 131 126 112 100 97 97 98 87 70 82 80 56 43 59 29 44 58 81 112 128 158 163 179 171 169 176 170 170 179 179 181 177 170 169 182 174 169 152 144 149 163 171 183 192 156 57 86 83 66 56 86 90 104 130 133 127 116 96 86 85 90 105 115 128 127 131 141 134 131 119 110 100 91 80 75 79 77 75 76 84 97 113 118 123 142 165 179 181 182 172 155 142 131 120 113 105 108 107 92 87 108 103 74 51 53 106 46 49 48 97 72 70 85 99 139 174 181 170 173 179 179 180 184 177 171 173 176 163 166 178 139 151 162 200 196 187 187 88 74 88 62 73 99 97 119 136 131 127 125 113 104 102 104 117 129 129 115 101 77 56 40 34 55 46 54 81 85 75 74 74 77 74 76 84 97 115 140 163 179 187 189 184 173 161 143 137 137 122 116 109 111 116 99 119 138 79 65 40 68 46 75 146 122 110 95 108 123 140 152 165 178 179 180 183 184 178 173 173 176 172 166 173 149 157 155 190 202 182 194 95 95 85 69 78 103 94 123 141 128 126 129 122 121 114 109 118 95 59 44 57 61 36 40 66 104 62 58 64 84 101 88 74 69 83 78 76 88 109 145 169 187 191 192 193 185 171 157 159 146 130 113 142 108 115 129 149 146 122 106 122 138 152 165 151 149 150 141 131 133 145 160 177 183 180 184 191 184 178 174 172 179 167 166 176 134 149 134 167 178 170 184 119 111 92 76 84 106 120 122 135 132 122 126 133 123 120 113 99 68 53 58 74 110 73 42 62 33 59 55 119 128 90 97 94 101 84 80 91 84 108 144 170 186 197 198 196 188 178 172 172 160 156 171 130 107 139 140 138 137 145 147 156 161 163 167 162 165 161 155 176 181 182 181 178 182 179 187 189 182 181 179 172 176 167 163 180 137 144 161 172 172 167 183 139 126 103 87 95 122 131 116 138 133 129 125 128 130 120 105 97 72 74 97 110 123 111 69 60 59 91 101 141 140 128 109 100 122 123 101 92 96 106 148 179 196 204 203 202 192 180 175 175 172 185 181 125 159 149 141 146 149 152 156 166 170 173 175 166 162 159 173 177 186 188 186 187 185 184 192 191 186 183 179 171 173 163 148 166 153 156 175 175 164 174 190 150 132 114 92 104 129 117 123 134 131 134 133 130 129 116 100 95 82 92 113 131 127 142 141 141 149 163 149 145 149 144 143 134 99 132 142 119 113 106 150 179 194 201 201 201 192 183 176 179 183 194 182 181 167 154 139 136 142 152 152 160 159 156 155 148 150 159 175 182 188 190 190 190 188 189 192 192 187 184 178 173 170 163 144 148 169 171 173 172 167 176 184 158 138 119 92 104 125 115 137 138 137 131 134 141 138 135 124 109 104 104 113 126 137 134 139 139 150 147 144 145 133 142 160 141 154 160 160 133 118 119 161 180 192 200 199 201 194 187 177 177 183 185 177 177 161 149 125 123 124 123 121 128 130 134 139 147 167 177 177 179 188 191 189 186 186 189 189 187 184 183 179 177 167 166 152 139 167 178 175 173 184 180 183 164 140 116 98 90 124 123 128 138 138 141 145 143 143 147 145 142 124 114 108 114 127 133 141 148 152 148 138 128 129 146 159 159 160 156 157 134 120 141 177 185 199 203 203 204 196 188 179 177 186 189 182 171 167 158 160 153 145 140 136 133 134 139 146 156 169 180 184 190 191 191 189 186 188 188 189 187 183 180 181 179 167 163 151 135 164 192 185 192 185 177 185 170 146 125 108 85 118 133 125 134 138 146 150 150 150 149 151 152 149 132 113 105 110 113 116 120 124 124 119 123 136 147 150 149 150 146 148 129 126 165 186 188 198 205 205 206 200 193 183 178 185 195 193 183 179 175 168 172 177 179 182 179 177 180 183 185 189 187 188 184 188 188 185 189 187 189 188 188 185 184 179 173 164 157 142 117 164 202 199 205 179 174 188 165 150 136 114 101 110 127 118 135 138 144 150 152 152 153 157 159 149 139 140 135 117 115 114 116 119 124 131 141 149 151 153 157 156 150 148 130 133 173 189 190 199 204 203 206 205 200 193 180 182 195 197 200 196 189 186 188 189 190 189 187 187 192 195 196 199 197 196 187 189 188 186 190 188 189 187 188 185 185 179 176 170 162 152 108 159 199 196 194 170 172 192 169 150 145 133 100 95 117 125 135 139 145 151 151 151 154 157 157 163 168 158 156 151 147 144 144 146 151 154 157 161 163 166 166 159 149 145 130 139 165 184 189 199 201 199 205 206 202 191 175 177 194 194 198 197 195 201 195 190 192 197 194 195 198 198 197 201 200 197 193 188 187 186 190 189 187 187 188 186 185 179 173 172 154 142 116 160 199 193 183 161 169 194 171 144 145 142 119 106 101 117 133 137 144 147 145 147 153 157 162 165 163 162 167 170 165 162 158 163 162 163 165 168 171 171 163 156 147 134 120 135 162 181 192 199 201 200 204 208 192 179 182 181 188 193 199 200 197 203 201 198 198 196 196 196 198 199 198 199 197 197 196 194 190 186 187 192 193 189 183 185 180 175 172 176 145 122 106 162 196 190 174 168 188 196 174 147 135 138 140 110 98 124 129 137 146 148 144 147 152 158 161 162 168 173 180 176 172 170 167 169 167 168 172 173 171 170 163 155 141 130 125 131 154 175 189 196 195 199 202 200 185 180 185 182 185 188 198 200 194 205 201 194 196 193 192 195 199 200 198 199 200 199 197 195 194 193 186 190 192 187 185 184 179 175 173 167 149 112 108 150 196 173 176 190 198 184 168 150 129 129 133 112 103 128 126 134 146 149 148 151 153 153 158 163 171 173 179 178 176 173 172 170 172 174 175 172 174 170 159 151 137 129 129 131 152 173 182 189 189 199 199 194 184 183 191 186 185 187 196 201 200 201 188 177 192 196 195 197 202 202 201 200 199 197 198 194 189 190 189 190 189 187 184 183 177 174 177 166 136 108 104 149 205 177 175 197 196 182 157 153 131 115 113 117 82 113 126 133 143 150 149 150 153 155 159 165 171 176 181 180 177 173 176 173 175 177 178 175 173 168 153 143 135 134 130 136 148 169 182 190 188 195 194 194 186 182 190 185 186 183 189 198 203 201 196 185 200 201 200 200 202 204 205 200 196 195 193 187 187 189 193 190 187 183 183 182 176 173 174 163 127 123 95 159 193 185 199 204 201 192 145 159 139 106 110 119 86 112 127 135 140 145 150 144 148 160 157 166 174 177 184 178 180 182 181 183 184 184 177 176 170 164 153 141 138 135 136 138 144 162 180 188 193 194 198 191 186 188 190 190 187 184 189 197 204 204 202 202 201 202 201 199 199 202 201 199 195 194 189 190 189 188 193 193 190 184 181 184 175 175 170 145 135 119 103 160 177 190 201 202 199 195 124 154 154 127 114 122 97 107 122 131 140 147 152 148 152 161 160 165 173 177 183 185 187 188 187 188 186 181 176 172 167 161 154 143 140 139 137 138 149 165 181 188 189 191 198 197 190 189 190 189 186 192 186 190 200 205 203 202 203 203 202 199 200 199 199 201 198 194 195 195 194 193 186 188 187 185 183 185 179 173 162 148 136 114 107 164 172 188 194 199 196 193 128 154 172 157 141 125 99 97 117 129 140 147 151 151 155 160 160 166 174 178 183 187 188 188 189 190 187 180 175 172 167 162 152 140 132 136 141 142 152 166 181 189 195 195 198 196 190 191 192 189 186 186 190 194 196 204 203 203 205 205 202 201 201 200 202 204 202 198 195 197 194 191 189 187 183 180 180 183 177 171 153 146 131 109 118 170 174 191 191 193 192 191 149 129 161 172 150 131 99 87 115 128 138 143 147 152 156 158 159 165 173 177 181 183 185 187 186 187 182 175 174 172 171 167 150 131 131 138 141 145 151 165 182 192 199 199 199 195 190 192 192 189 186 184 188 193 194 200 200 201 203 204 201 201 201 201 201 200 198 197 195 197 194 188 186 183 179 179 177 175 172 166 149 137 118 108 125 163 177 189 191 195 190 182 162 150 165 167 163 135 103 73 111 124 140 143 142 149 154 157 158 164 172 175 182 182 184 186 185 187 181 178 175 170 173 167 148 134 136 146 147 145 148 163 182 193 200 200 197 196 197 194 192 188 180 182 182 184 190 202 200 197 203 203 203 201 200 200 198 197 197 196 194 195 195 188 183 181 179 175 175 172 169 162 148 128 113 103 140 149 172 181 179 176 175 150 154 159 167 166 160 134 108 74 103 115 134 141 142 148 152 155 159 164 172 176 180 183 186 186 185 184 178 175 174 174 175 167 150 141 135 145 145 143 149 163 185 193 196 206 205 197 194 192 191 187 180 181 181 180 186 190 195 202 200 201 200 197 197 196 197 196 195 195 193 192 193 187 184 181 177 174 173 173 169 157 143 127 115 92 131 132 137 142 152 147 141 77 147 160 163 163 165 143 120 82 102 109 126 138 142 146 148 153 161 162 169 175 177 180 183 184 182 180 176 174 174 170 168 157 144 140 134 143 143 140 150 155 178 189 196 201 197 190 190 191 192 189 183 185 183 179 183 183 187 193 198 200 198 196 195 194 194 193 191 192 191 189 191 186 183 179 174 174 169 169 165 150 134 121 114 103 134 168 155 139 124 88 57 53 131 157 160 165 162 147 129 88 109 107 120 132 136 141 146 151 156 159 164 172 172 175 178 179 177 178 172 171 169 167 161 148 138 140 136 143 141 141 144 157 174 191 205 201 192 190 193 194 195 196 191 187 184 180 184 189 181 181 189 193 192 191 192 192 191 191 189 188 189 185 187 184 179 179 175 171 166 166 163 152 141 130 107 141 140 159 160 148 118 57 56 51 100 144 154 156 147 140 127 85 108 109 115 127 131 138 144 148 152 157 162 170 169 171 175 177 175 173 168 164 162 160 153 137 132 135 138 143 141 143 140 165 182 192 202 199 188 185 191 197 200 202 195 184 181 178 181 191 182 178 181 184 184 185 188 189 190 189 186 186 188 185 185 184 176 180 177 168 166 166 163 158 147 131 102 171 152 168 157 144 110 55 46 56 73 93 113 132 133 123 102 67 110 112 114 122 125 134 141 148 150 157 160 167 167 168 166 171 170 163 162 160 156 157 155 133 125 130 143 148 144 138 149 169 193 198 206 200 193 191 193 199 194 193 185 182 178 170 174 190 190 187 178 179 180 182 184 183 185 184 177 175 182 181 179 182 179 180 174 170 171 172 158 156 144 121 121 149 148 172 164 151 102 52 48 51 62 63 72 84 94 81 74 61 112 97 115 116 124 131 138 146 150 156 156 160 159 163 163 165 167 163 161 157 155 157 158 146 111 120 137 143 144 137 153 178 192 199 214 208 200 193 191 194 195 194 187 172 166 160 173 190 194 191 181 172 174 179 179 180 181 182 178 178 178 178 177 176 180 178 174 173 176 171 156 153 140 122 137 146 155 173 183 170 94 51 50 51 63 62 59 64 60 56 65 66 100 107 115 115 123 125 132 140 147 150 148 152 152 151 158 158 155 157 153 150 150 152 159 151 108 95 112 126 131 135 160 174 180 179 194 202 206 200 194 183 179 168 155 150 148 150 171 191 194 193 183 172 172 172 175 175 178 179 175 174 175 176 175 171 171 174 176 173 175 169 158 159 144 138 144 148 165 173 180 137 64 50 52 50 62 63 60 63 64 61 67 63 90 108 112 122 116 120 126 137 144 145 143 147 149 153 156 153 157 150 148 144 147 149 156 133 105 76 69 96 100 117 147 155 159 155 159 175 189 183 169 159 135 83 78 100 121 149 187 193 195 191 186 177 173 170 173 177 179 178 173 171 171 173 170 165 163 169 177 173 172 163 151 154 140 128 160 133 169 168 158 87 49 44 50 47 62 64 64 62 61 65 64 63 85 98 118 121 117 116 122 132 136 139 138 141 145 146 147 152 151 146 141 149 150 147 139 133 113 82 58 45 60 75 108 132 137 136 126 136 161 152 123 88 42 46 63 102 143 161 190 194 194 191 188 188 179 171 173 175 177 178 175 172 172 167 165 160 157 161 176 175 171 158 148 150 142 130 157 131 159 124 86 45 47 47 45 48 66 63 63 66 62 65 62 62 89 91 114 126 120 113 116 127 132 134 138 139 136 136 132 143 142 141 145 145 147 149 141 138 123 94 70 51 53 53 69 88 104 105 103 92 109 99 87 79 90 107 109 133 171 180 180 193 193 193 191 188 183 175 169 167 171 176 177 173 170 161 159 160 151 159 170 169 166 158 141 145 132 144 158 145 133 64 51 50 48 49 46 50 66 64 63 66 66 68 64 66 90 95 114 125 123 114 110 120 126 130 136 137 132 140 139 146 144 143 148 139 137 148 142 139 118 85 69 55 61 49 47 57 68 70 69 68 73 79 96 108 88 118 130 142 142 172 175 187 191 192 189 186 183 177 170 166 167 170 174 173 171 160 159 161 153 164 174 169 166 157 150 145 140 150 147 140 122 51 58 45 53 53 48 55 64 67 66 64 63 65 64 70 83 101 113 113 123 119 109 115 121 124 129 132 133 139 147 143 140 135 135 128 129 136 127 115 104 83 84 62 70 79 90 68 42 52 68 66 63 96 105 102 123 113 104 148 144 168 175 183 189 191 189 181 179 177 177 174 166 164 169 176 173 164 163 163 155 167 175 168 163 141 159 141 151 147 148 141 142 76 64 59 51 48 47 67 69 65 65 65 64 69 67 61 84 104 99 118 123 120 115 107 118 115 123 128 128 142 145 139 135 136 127 132 115 126 99 117 105 97 94 65 79 72 92 70 55 69 91 70 81 92 114 117 123 110 110 116 159 165 169 179 178 196 177 179 176 158 166 171 165 159 169 177 174 174 168 161 150 162 168 172 162 144 152 141 150 153 144 146 197 207 213 202 155 63 118 204 66 65 65 63 65 62 65 72 79 100 112 95 121 124 117 112 121 123 125 129 136 141 146 132 111 110 107 106 130 93 99 105 103 110 62 49 128 106 56 75 109 106 89 77 100 83 117 109 111 112 133 121 126 144 166 175 186 179 173 179 161 159 146 151 173 169 171 173 173 172 164 156 148 166 173 163 149 136 133 163 141 168 130 145 197 199 204 200 204 127 122 188 64 64 63 64 63 60 63 63 67 85 111 88 122 122 116 113 123 123 122 125 134 135 125 108 89 79 94 99 97 97 110 91 96 115 88 131 124 97 98 123 97 83 84 90 108 114 117 99 99 93 110 116 130 130 163 155 171 159 175 168 143 153 138 136 153 159 155 163 177 173 159 144 140 159 161 158 150 132 137 150 146 168 126 130 160 138 130 149 165 123 110 157 64 62 62 60 61 63 63 59 67 90 99 93 106 115 108 114 122 122 124 123 133 134 115 98 79 95 84 96 105 87 117 95 65 104 107 106 107 112 86 75 93 95 101 102 97 101 115 98 109 99 111 103 113 131 129 149 159 163 157 148 141 149 146 143 139 147 127 164 165 166 157 145 136 164 152 156 157 133 147 140 161 156 144 110 112 75 80 135 164 111 105 155 63 61 60 60 63 63 63 63 65 91 99 95 99 114 99 110 118 114 116 117 128 111 104 78 80 80 78 111 69 101 102 94 90 86 98 79 86 93 88 80 94 89 98 105 105 94 93 91 106 104 109 103 115 117 126 119 135 161 133 119 122 131 129 116 123 147 131 146 165 158 148 137 143 172 153 148 149 142 144 151 160 132 168 114 102 48 75 141 163 123 103 159 63 60 61 60 62 62 61 62 59 103 94 79 100 116 100 111 105 98 114 109 123 113 116 74 70 69 76 103 64 89 89 71 81 101 87 82 80 75 80 103 85 105 101 102 95 98 92 80 101 144 103 98 113 125 112 119 130 143 138 125 104 99 102 111 128 106 123 124 164 147 116 125 155 158 153 151 139 132 149 147 171 159 155 166 127 86 73 140 173 116 110 179 60 60 57 60 61 60 60 59 59 116 92 73 98 110 104 114 91 97 103 106 115 122 112 86 68 66 47 77 65 73 85 68 68 69 94 85 77 86 72 93 93 102 108 109 92 93 98 99 91 122 96 98 109 135 109 110 112 105 126 103 81 79 94 105 105 104 111 124 156 141 120 144 152 145 151 147 134 130 145 157 164 168 163 164 120 96 82 148 162 116 103 157 61 59 58 59 58 58 57 58 55 89 84 76 88 102 99 113 91 103 91 104 109 124 93 89 82 85 59 65 61 52 44 29 54 53 61 76 69 85 78 79 72 88 115 120 104 79 89 89 84 118 95 89 100 114 109 114 97 86 103 80 70 74 91 94 76 95 118 145 157 127 116 139 150 151 152 143 132 132 136 165 146 180 142 166 115 99 82 149 172 111 105 166 61 58 58 59 58 58 58 58 57 60 78 85 84 101 94 104 91 96 88 92 107 103 89 87 75 81 103 92 76 68 58 36 44 45 60 65 55 85 84 76 89 76 87 83 76 71 80 73 77 84 77 72 93 83 89 75 48 53 77 80 78 79 101 92 103 108 143 149 153 110 100 143 143 149 135 135 143 132 138 137 149 155 166 176 146 134 117 164 174 105 108 178 61 61 57 59 58 58 58 58 55 62 83 80 86 96 99 108 97 91 82 90 93 100 101 104 94 105 102 92 89 89 86 81 67 55 71 63 70 100 119 107 129 130 130 128 110 117 124 122 109 85 90 77 54 48 63 82 99 117 130 125 123 104 109 104 99 136 135 154 129 103 120 138 136 157 125 131 154 142 141 143 160 161 188 184 192 204 211 200 171 89 112 171 61 58 58 58 58 59 58 59 50 80 112 67 85 90 95 100 93 92 88 101 86 92 100 120 129 107 116 112 115 94 95 101 103 93 102 95 95 91 86 94 113 151 153 137 109 116 128 123 109 87 91 99 118 126 125 136 159 165 165 166 157 145 125 125 110 133 152 149 106 89 110 144 132 141 133 123 161 132 138 151 139 159 171 150 157 154 155 165 126 63 109 167 60 60 60 57 60 59 60 60 63 80 90 87 81 91 99 89 96 85 91 92 75 88 99 112 113 93 98 105 121 114 114 110 107 110 112 115 115 121 118 108 114 113 111 120 115 117 122 125 128 135 155 149 152 156 163 166 169 167 176 177 166 159 138 135 120 123 155 137 100 106 104 132 135 139 128 122 154 130 124 150 149 165 140 136 114 75 74 68 51 46 66 76 62 63 61 60 60 59 60 60 68 66 78 78 85 75 85 83 93 96 113 85 71 83 88 96 106 84 103 134 130 121 111 124 139 127 135 138 139 135 139 137 145 142 146 149 137 146 155 155 163 162 168 170 168 167 173 177 173 173 171 171 171 168 146 121 129 121 148 109 94 105 113 125 147 124 123 128 153 143 133 143 143 143 135 102 86 60 49 47 47 51 47 46 110 116 117 121 117 116 115 115 109 117 119 93 70 79 70 82 86 90 84 88 68 76 71 88 107 80 102 129 141 119 117 120 122 146 161 163 160 159 153 161 158 153 158 153 159 158 160 163 173 174 183 180 169 167 155 172 167 156 155 169 176 167 152 142 125 115 133 91 102 104 133 142 133 118 128 120 157 141 170 125 131 147 159 98 62 61 56 49 49 49 48 47 193 239 241 244 243 241 240 239 241 248 243 205 71 72 66 85 92 92 85 80 67 65 65 79 85 86 100 126 149 127 117 118 118 132 150 154 162 159 155 156 158 161 150 157 159 157 168 162 165 160 166 165 154 163 173 170 176 161 164 168 172 172 165 151 141 126 105 72 113 104 142 140 124 126 129 140 140 127 152 107 105 140 158 126 56 61 57 56 50 49 48 49 185 210 234 237 244 242 242 240 244 235 240 227 135 69 64 84 97 81 84 93 60 63 51 66 72 74 100 116 131 123 114 110 111 123 142 147 134 132 130 161 157 146 140 151 146 144 164 152 144 146 153 149 150 153 152 165 153 157 165 173 170 162 149 141 128 101 78 89 115 116 167 134 117 132 130 163 127 122 131 114 102 131 181 217 67 52 51 52 56 49 48 50 184 194 198 225 231 231 229 228 212 230 220 227 180 62 54 77 96 77 74 86 70 68 47 55 57 60 82 115 141 124 116 119 112 113 122 121 122 137 138 132 133 144 134 132 124 126 148 142 139 132 130 137 148 158 166 160 160 165 171 179 171 162 148 135 117 113 105 126 119 125 142 132 122 153 133 124 128 130 124 116 111 141 199 227 171 51 55 48 57 53 52 49 187 197 200 189 188 186 178 180 182 183 184 181 175 78 46 51 70 69 62 86 76 65 49 46 51 64 88 134 118 122 114 107 101 105 100 119 131 137 124 133 146 133 120 122 129 128 136 146 164 155 118 140 151 146 159 169 166 175 172 171 174 168 136 140 130 90 95 87 118 122 142 144 123 157 121 137 126 115 85 108 105 166 217 227 236 73 58 65 49 53 63 46 188 198 201 190 198 197 181 174 177 179 179 178 174 137 45 53 60 67 63 68 74 57 62 54 51 68 94 129 128 125 118 112 105 97 102 101 103 125 117 132 122 122 112 126 117 107 142 149 128 123 130 133 146 156 157 173 165 164 172 175 156 153 154 126 119 93 106 112 111 121 152 126 123 183 122 121 109 121 103 103 170 197 222 237 229 145 56 61 49 54 57 68 187 197 200 189 196 201 194 174 163 163 162 162 159 155 82 50 67 76 54 46 74 57 65 55 52 59 108 116 101 106 112 115 117 105 104 94 93 111 131 139 129 132 118 132 136 115 122 138 142 140 133 150 146 143 154 172 174 163 168 157 155 153 163 116 110 111 112 113 128 133 141 133 148 162 131 105 127 99 91 125 192 211 226 239 235 208 61 50 49 51 54 69 187 196 201 188 201 200 201 145 83 82 80 81 82 80 78 47 81 92 50 51 56 59 60 57 53 68 97 97 85 108 121 117 116 109 117 100 124 144 131 123 110 119 119 141 133 118 126 119 119 130 148 148 163 161 155 156 171 172 167 168 153 136 144 148 142 101 140 112 131 151 123 136 136 149 118 107 96 88 99 167 197 226 235 237 236 235 75 56 57 55 51 46 188 198 200 189 207 203 204 144 55 53 52 52 53 50 53 66 81 87 39 48 55 62 56 64 59 77 76 70 102 120 126 122 121 119 107 109 127 120 123 115 110 118 113 115 123 118 105 114 125 126 136 135 156 168 165 160 166 167 155 159 152 135 128 142 133 76 130 115 141 130 132 143 121 129 124 123 55 115 144 197 218 228 235 239 235 240 79 59 55 49 48 54 186 196 197 187 205 207 201 147 56 57 54 53 56 54 57 73 78 40 43 49 47 58 54 64 63 58 88 75 119 114 117 126 131 124 118 128 124 132 135 115 114 123 123 115 106 115 107 124 131 141 129 153 158 168 167 171 161 156 139 139 130 123 125 108 103 99 100 121 113 141 132 146 122 121 119 93 112 144 203 214 224 232 238 236 237 233 77 59 57 52 49 48 185 194 195 183 200 208 202 147 57 57 56 53 54 47 55 46 63 47 41 35 46 46 54 67 69 61 65 89 85 113 98 103 119 123 134 141 131 134 123 128 132 141 125 92 136 110 105 126 129 148 143 155 157 180 176 158 149 144 137 127 102 114 122 154 97 78 117 89 107 124 138 149 125 127 75 93 115 191 218 210 234 237 239 235 235 206 61 54 59 52 47 49 182 191 190 179 201 212 202 149 58 57 56 55 55 55 55 50 57 56 54 41 37 62 65 75 67 60 71 65 94 83 83 113 120 119 130 132 139 123 132 122 123 133 132 93 137 105 112 116 154 159 153 160 164 176 169 163 156 147 147 131 101 108 113 159 101 105 110 126 89 109 125 126 143 102 80 122 167 231 224 235 235 237 238 233 236 156 60 59 61 60 55 52 182 190 189 178 204 215 202 152 59 59 57 55 51 58 50 58 50 64 50 50 60 45 62 82 62 62 49 88 68 83 84 113 113 120 120 129 139 129 128 120 128 136 108 124 123 117 126 114 156 166 161 152 143 144 163 154 150 145 146 136 108 97 95 119 109 95 124 99 103 89 122 98 142 94 112 130 227 233 232 230 238 236 239 234 239 89 55 64 57 53 54 53 178 189 190 178 206 208 202 140 65 68 66 53 67 54 57 55 53 68 43 17 53 56 57 52 60 55 49 56 53 62 102 110 79 89 124 130 122 113 117 120 134 137 129 138 137 130 128 158 154 158 163 169 145 137 133 139 140 143 131 114 129 93 96 117 102 97 99 92 95 77 75 108 89 124 167 210 230 228 229 233 239 230 238 229 212 67 59 59 64 50 54 45 178 187 188 178 200 206 213 185 166 153 158 160 155 149 154 152 156 116 28 28 21 81 47 46 38 44 52 45 43 92 65 102 83 88 128 132 132 111 103 126 169 155 141 157 132 126 136 152 156 160 167 156 155 149 122 145 129 137 138 119 107 83 97 99 103 91 77 76 73 71 80 100 121 138 174 248 232 233 237 236 237 233 236 223 148 52 58 49 56 53 51 47 175 183 185 175 204 222 224 214 205 214 203 206 202 220 220 180 86 36 18 24 34 125 49 40 36 48 44 48 54 76 105 95 69 127 98 140 125 127 118 126 154 139 130 123 128 144 154 140 132 132 145 149 155 133 126 120 129 115 136 118 91 94 98 78 81 93 59 76 64 58 105 98 130 175 227 228 235 236 240 237 233 243 226 233 73 52 49 63 67 55 52 49 179 185 187 179 215 237 227 232 227 226 231 220 176 100 50 23 39 18 23 24 41 130 57 46 42 41 36 44 48 70 87 81 119 89 104 116 119 102 110 105 119 120 142 120 131 131 141 129 141 149 132 138 134 129 113 117 149 114 111 91 114 93 90 48 63 83 67 56 77 91 105 118 157 235 232 234 238 240 236 236 232 230 238 213 52 53 48 63 60 59 51 52 174 178 185 177 192 182 187 183 163 133 81 34 25 38 38 34 31 29 25 31 54 142 85 54 48 52 30 38 43 65 83 99 77 85 124 105 101 92 88 131 114 122 143 137 150 136 141 127 143 147 121 125 100 124 101 130 138 110 133 96 106 87 88 76 89 72 79 66 77 102 117 182 236 233 236 237 237 237 237 234 237 236 232 124 51 59 54 51 64 56 56 49 172 187 178 182 187 181 137 73 33 38 43 39 36 34 37 38 28 27 27 29 61 154 118 50 73 39 38 39 53 59 73 81 97 116 121 97 102 86 104 119 130 109 144 135 137 132 121 115 121 136 148 115 106 96 75 104 132 118 127 110 55 58 78 69 55 75 77 85 124 138 180 236 236 238 239 235 237 236 237 236 234 237 227 54 62 51 51 59 61 57 48 51 175 185 186 121 89 44 41 44 45 37 31 36 38 35 37 38 27 25 30 27 76 150 153 86 78 47 44 35 45 46 66 86 108 118 99 118 76 101 101 102 99 112 108 127 129 124 119 85 140 135 136 115 104 90 89 91 123 106 140 119 63 51 44 67 62 73 96 126 124 185 238 234 241 242 239 237 237 236 237 236 237 233 148 56 61 60 63 69 64 61 58 50 151 70 32 54 51 48 32 37 40 31 26 33 38 38 39 34 29 24 31 26 87 146 174 135 67 58 55 62 49 45 66 91 96 93 84 111 80 91 102 104 102 101 110 115 126 117 118 94 119 98 120 118 94 92 66 74 78 132 100 80 57 65 47 47 86 97 132 118 182 233 233 238 239 240 239 237 236 237 237 238 239 223 77 64 63 48 52 54 55 54 51 51 50 46 47 42 42 41 41 39 36 36 35 35 34 36 37 33 27 28 26 30 91 144 166 156 86 73 66 63 40 55 70 51 92 88 112 111 77 94 108 68 130 108 112 90 115 99 102 90 98 92 91 88 88 110 54 67 93 108 92 65 57 61 66 68 112 125 114 208 232 232 238 238 240 240 239 238 235 236 238 234 242 175 62 50 59 52 43 59 62 61 56 49 40 43 41 41 38 39 38 37 35 35 34 36 36 38 36 28 23 27 25 31 95 142 161 170 113 78 80 71 53 66 37 49 108 59 60 107 111 88 97 85 111 87 110 112 99 104 96 77 104 124 106 68 103 116 48 79 79 81 96 66 58 84 74 104 121 128 209 226 233 234 238 239 239 240 238 238 237 233 246 238 235 107 50 62 56 56 57 64 67 59 58 57 45 45 46 47 42 42 41 39 38 36 36 34 35 36 35 29 27 29 29 28 98 141 154 176 140 93 82 91 77 57 40 65 44 79 107 67 70 104 81 94 81 65 67 110 72 83 50 95 81 70 112 75 51 111 100 67 66 85 65 72 65 77 110 128 132 194 224 231 233 236 238 239 240 238 238 238 240 237 239 240 208 60 58 62 56 58 63 63 63 60 62 59 44 41 40 42 38 39 38 36 37 37 35 34 32 31 32 31 29 29 30 28 102 144 148 171 162 120 87 94 94 71 59 75 65 71 91 77 86 65 92 64 77 55 78 93 50 69 62 81 47 58 84 83 62 95 85 75 78 70 79 71 109 116 124 129 209 230 233 230 233 236 238 242 239 239 239 237 238 243 234 240 135 52 49 46 54 53 56 58 50 62 55 61 45 42 40 40 43 44 42 38 36 35 34 34 34 34 31 29 28 28 27 27 103 144 144 168 174 144 94 88 100 91 71 60 52 48 88 28 74 67 60 86 71 70 81 93 55 61 76 71 51 69 93 78 104 82 71 69 63 95 86 101 116 115 148 215 225 232 228 236 235 237 239 241 239 239 238 237 242 243 232 217 65 69 45 46 56 62 61 68 57 58 52 62 40 42 44 45 43 40 36 39 36 36 35 36 35 34 34 31 30 24 26 27 113 145 146 157 173 159 106 94 96 95 90 78 67 56 72 55 72 69 55 87 85 78 58 74 56 44 60 78 72 67 63 109 76 68 72 69 75 80 107 117 125 153 220 221 229 230 233 233 236 238 241 240 241 240 238 236 236 238 244 142 50 58 54 52 56 63 70 63 60 65 61 58 44 43 41 37 41 38 34 37 38 39 38 37 36 34 33 31 30 25 30 21 122 145 149 149 167 173 140 82 96 98 97 91 81 69 76 69 47 39 54 57 112 64 48 44 62 46 58 57 82 70 63 104 65 69 72 88 93 104 104 111 154 216 213 229 229 232 235 237 238 240 241 242 240 239 237 235 232 242 207 61 57 56 55 52 52 51 57 52 52 73 63 66
