P2
# Generated by OpenCV 4.2.0
92 112
255
58 64 32 35 27 47 33 58 51 60 48 66 58 62 45 50 66 81 97 97 118 132 121 134 119 113 66 54 89 64 56 99 146 156 142 138 137 131 123 119 120 116 116 132 153 162 159 151 165 175 175 178 181 183 182 177 179 180 180 183 183 181 178 174 184 187 179 171 171 167 165 166 171 150 142 129 125 114 75 43 59 83 110 167 120 129 163 140 139 126 166 163 72 50 34 23 41 29 40 63 58 49 58 52 55 51 48 71 92 110 92 113 124 126 121 110 103 67 66 115 75 77 126 147 160 180 166 155 154 155 156 158 157 162 144 160 170 176 183 181 173 182 175 182 183 183 184 179 182 191 187 187 187 186 184 180 179 186 187 181 182 177 181 174 158 165 147 153 140 115 91 74 55 81 75 147 137 148 135 166 148 145 126 177 49 48 31 42 38 47 45 62 49 54 48 50 40 57 72 100 115 97 120 115 113 112 116 120 74 88 111 87 95 130 157 162 158 179 188 165 179 179 170 176 176 181 165 182 179 181 186 188 190 188 183 185 183 186 187 185 190 186 186 191 190 191 191 187 187 181 188 180 183 182 182 176 180 162 164 163 152 135 104 90 61 73 70 121 155 135 101 187 165 127 131 191 44 46 39 31 33 39 68 68 46 39 44 49 53 64 89 85 84 94 119 136 120 111 107 93 83 70 123 124 109 159 165 174 180 178 182 181 181 179 181 186 182 177 182 183 187 187 187 189 189 187 189 189 185 185 189 191 193 192 188 195 194 192 194 193 190 190 191 184 184 182 190 190 189 175 175 171 157 135 124 87 72 79 76 109 126 118 93 148 135 123 149 147 45 34 37 36 41 68 67 47 50 41 56 56 64 101 78 82 95 110 122 112 110 90 111 99 78 122 145 119 130 170 174 182 181 186 181 183 183 184 181 189 194 188 192 188 186 191 188 189 188 189 184 187 187 187 191 190 191 197 193 193 196 192 193 194 191 190 191 187 183 194 193 189 187 183 181 177 159 148 111 102 72 54 70 86 103 153 150 123 177 150 127 124 46 45 26 43 43 51 37 49 44 48 60 55 110 109 90 112 120 127 119 98 94 103 104 71 130 151 144 132 165 167 177 179 181 185 179 180 179 183 187 192 185 186 189 191 189 188 189 187 192 193 190 190 188 186 187 189 194 191 194 193 195 196 193 194 195 200 190 194 193 199 190 198 191 193 186 177 166 141 115 83 61 59 66 92 86 146 162 90 162 164 130 167 48 38 39 40 36 36 49 60 47 56 58 90 102 89 116 119 118 114 94 101 105 87 84 136 151 159 143 139 176 179 184 184 184 180 184 181 187 187 188 186 184 187 191 193 190 187 186 182 186 186 183 188 189 187 186 192 194 195 195 196 196 194 197 198 197 199 198 200 197 196 198 192 199 195 191 182 163 159 126 92 64 49 59 72 101 122 166 132 147 162 115 144 45 27 49 26 34 48 37 53 42 55 67 93 108 89 111 116 127 88 103 114 90 95 140 154 150 157 147 163 178 182 186 185 185 181 183 185 186 187 194 190 194 196 193 190 194 191 193 189 188 190 189 191 193 186 186 192 191 193 192 192 195 195 192 197 197 194 198 202 204 199 202 201 197 199 193 188 171 151 156 111 67 62 41 56 82 140 151 149 74 150 141 108 41 41 33 31 37 32 41 48 38 65 83 98 98 99 116 131 66 98 134 82 95 144 155 151 149 164 160 168 180 184 187 191 191 191 190 189 189 189 191 192 199 197 196 194 195 194 192 192 190 188 191 189 193 187 195 194 193 196 194 192 189 197 195 198 199 197 201 202 206 207 200 200 198 199 198 189 177 164 134 143 112 49 48 31 66 105 156 145 85 121 150 112 36 38 27 41 30 34 36 38 61 80 77 92 109 104 108 64 118 145 88 101 139 152 152 159 158 154 151 166 186 183 184 189 187 184 180 181 184 186 194 197 196 195 194 199 195 197 198 195 192 196 193 193 190 198 197 197 199 199 193 187 193 194 197 194 196 198 200 203 203 206 201 202 203 200 195 190 171 157 168 121 131 95 42 39 60 86 142 141 122 137 134 128 40 21 30 32 32 34 46 55 66 65 75 93 103 88 77 140 139 99 108 139 142 154 160 161 158 156 154 170 181 186 184 184 182 185 186 189 194 194 195 192 193 190 194 193 189 191 192 192 189 186 187 187 193 192 191 191 195 193 194 197 192 194 197 195 196 202 204 200 197 202 199 200 201 202 199 191 173 162 147 150 116 98 83 52 51 81 136 139 135 138 135 139 29 25 31 27 32 44 52 55 54 82 85 96 63 78 142 133 94 131 138 142 150 158 162 163 156 157 160 176 180 180 181 179 184 190 188 188 198 195 193 193 194 194 190 193 191 193 192 192 191 190 187 188 191 192 194 192 194 196 192 193 189 193 197 198 200 200 201 201 199 203 203 199 197 195 194 187 181 171 156 134 123 122 88 76 50 57 127 139 139 107 120 142 23 28 31 26 43 43 62 47 77 89 101 63 83 117 111 108 142 137 134 139 152 157 162 168 152 161 154 177 180 181 185 185 187 189 190 193 198 197 196 195 193 193 191 193 193 189 189 191 195 192 190 192 191 194 198 196 193 194 193 197 198 199 199 202 198 196 196 197 197 198 198 198 200 201 193 183 167 167 171 160 116 98 104 88 50 72 115 126 149 113 105 155 25 27 25 34 50 50 51 65 88 93 83 89 107 105 115 141 141 141 140 139 143 155 162 164 159 163 157 177 184 187 188 186 189 195 193 193 195 199 199 196 195 193 192 192 192 194 195 190 187 188 188 191 189 191 192 190 190 188 192 195 194 195 195 197 197 195 195 195 195 200 196 194 196 196 193 174 179 168 141 141 140 104 95 93 84 38 103 143 149 141 102 150 27 33 24 50 50 45 53 92 84 105 101 95 93 112 130 142 149 143 145 144 143 155 163 162 159 162 149 165 178 183 183 187 186 191 190 193 201 196 195 195 197 192 193 191 195 198 195 195 195 188 188 191 189 190 190 193 194 190 193 191 191 194 195 194 192 195 192 190 188 194 191 194 196 191 186 179 176 174 160 140 137 125 103 65 79 65 81 116 134 162 84 154 33 32 36 49 33 47 93 63 100 87 101 87 94 119 136 153 147 146 148 143 146 154 160 165 165 169 159 156 187 186 185 187 188 186 192 190 195 195 198 192 193 198 197 191 196 192 194 194 192 184 190 194 194 191 190 193 193 192 192 191 190 192 191 190 188 193 191 189 188 191 189 189 193 196 193 181 178 160 161 148 140 133 105 107 54 86 48 93 135 144 103 133 29 29 42 41 54 92 74 84 70 99 78 106 129 123 136 142 148 154 148 150 154 157 162 167 165 167 159 148 185 178 178 184 186 186 187 190 185 192 194 193 197 200 199 194 191 191 197 192 192 190 190 193 192 187 188 191 190 191 191 194 190 193 185 184 186 192 191 190 187 190 189 193 197 192 190 186 176 166 139 139 142 141 136 99 109 39 62 74 146 127 119 140 28 33 49 48 61 85 67 55 76 67 96 108 127 134 131 138 148 151 159 143 153 159 164 168 165 173 164 157 170 180 181 185 186 187 190 189 189 192 192 190 193 195 194 193 190 189 191 194 189 190 188 188 188 190 187 189 190 190 189 189 185 190 190 185 182 182 186 188 189 191 191 193 194 194 191 187 182 168 142 126 112 125 160 128 66 116 59 75 109 124 123 140 31 44 47 56 80 71 51 80 58 73 81 105 120 128 136 144 147 154 157 154 157 162 166 172 171 173 173 163 148 184 186 183 183 184 188 186 193 193 192 192 193 193 194 193 193 187 189 185 183 190 187 182 183 182 187 188 186 188 190 187 190 190 194 191 190 192 193 195 192 192 189 188 193 195 190 184 183 171 149 144 120 99 118 155 119 65 80 91 100 148 132 121 33 51 56 60 87 56 55 50 59 83 88 91 104 129 140 145 149 155 156 156 159 163 165 169 172 172 167 175 149 171 191 180 182 188 186 186 192 193 194 192 190 193 199 196 194 192 191 194 192 191 186 187 187 183 186 181 182 187 190 186 185 186 191 185 191 191 192 191 191 197 193 191 192 190 188 186 183 166 145 139 141 128 119 99 140 130 91 74 98 137 117 116 32 39 49 62 56 45 45 67 71 65 73 94 111 131 138 142 146 154 156 154 159 163 166 174 172 174 178 167 170 153 178 176 184 179 181 186 191 186 182 183 187 190 194 193 197 192 191 192 195 186 187 187 186 181 181 184 185 183 185 189 191 190 191 192 191 192 192 195 191 191 187 189 186 187 184 187 179 166 149 121 95 90 87 127 133 130 142 87 83 131 111 127 40 56 57 56 42 57 54 55 65 72 85 94 116 138 133 140 145 153 157 155 160 164 169 172 180 172 168 176 173 172 150 176 179 180 184 183 184 187 187 186 189 192 195 191 192 189 189 189 188 193 187 184 186 189 182 191 190 191 191 187 192 195 196 198 198 198 198 198 196 193 189 187 184 185 185 185 181 174 163 142 111 84 61 43 91 118 134 161 144 102 125 119 58 55 56 58 42 54 50 51 59 82 80 95 116 134 140 140 146 153 156 158 159 161 167 171 176 173 169 168 172 177 167 156 174 182 182 189 185 190 188 187 184 186 186 186 191 190 188 190 194 184 189 184 185 188 186 183 191 194 192 188 191 198 201 200 201 200 202 201 202 199 192 185 180 180 184 183 184 178 172 152 126 94 73 54 39 80 79 97 176 175 151 97 62 43 66 47 47 37 51 55 57 67 71 90 116 133 138 148 144 149 155 156 160 164 169 169 174 175 174 170 175 172 183 171 172 174 175 189 187 187 185 188 187 184 187 187 190 192 193 188 188 181 187 184 185 186 189 188 195 191 193 194 195 196 201 199 203 199 201 201 200 202 198 192 190 182 187 186 188 178 171 158 148 117 66 43 38 32 70 59 61 153 182 113 65 47 60 47 32 44 46 61 36 55 71 108 129 129 136 140 140 148 154 156 159 161 166 171 178 179 176 179 180 177 178 188 171 175 183 183 178 186 187 188 191 191 191 190 189 192 196 193 186 191 189 186 187 191 192 189 192 188 188 191 199 200 202 199 205 204 204 207 204 204 205 202 198 195 193 190 183 185 175 159 156 141 103 46 36 39 39 71 45 101 142 160 60 50 54 38 39 48 50 29 55 75 93 121 141 132 135 141 141 149 158 158 160 163 165 171 175 182 181 181 175 181 181 181 186 174 178 185 192 188 186 191 191 192 192 194 192 194 191 195 198 194 191 192 194 196 187 185 186 192 194 195 197 199 202 199 202 203 203 205 212 209 212 199 205 210 201 197 190 187 177 160 159 153 127 66 49 34 39 58 90 106 125 127 54 57 51 40 43 37 31 46 61 92 123 120 135 135 140 142 144 152 157 158 161 166 168 171 174 186 180 181 182 183 183 183 183 184 185 190 190 193 190 193 192 197 192 190 198 192 190 190 197 201 201 190 190 180 188 190 193 190 196 196 189 193 201 199 199 200 201 202 204 208 212 215 206 210 212 207 197 185 175 168 166 157 142 71 46 49 34 59 59 139 131 118 55 64 45 48 39 25 33 47 82 121 125 131 127 137 136 139 149 155 155 160 167 170 168 169 181 182 182 185 183 185 187 189 187 189 183 179 187 192 192 192 190 194 193 197 197 199 198 182 196 202 199 196 195 189 187 188 194 189 199 194 190 196 199 198 196 198 196 196 201 202 203 217 217 210 209 217 214 194 182 173 170 160 150 118 46 46 53 42 67 122 138 102 59 60 45 45 33 34 39 53 102 123 128 127 130 137 143 139 154 150 159 164 159 169 173 177 178 185 183 178 183 182 187 192 186 187 186 191 187 189 191 199 196 199 188 197 196 196 198 184 182 196 196 191 186 189 190 183 192 196 194 197 200 196 194 200 195 197 195 182 185 193 193 202 215 213 211 210 224 215 184 177 172 168 166 119 107 58 42 43 71 130 153 95 61 63 47 37 28 39 39 67 115 127 126 133 130 129 132 151 153 158 162 158 151 148 155 164 175 175 180 179 178 186 187 189 187 189 184 195 184 187 193 188 191 187 184 190 197 199 196 186 178 192 184 177 178 182 185 183 185 184 169 167 170 164 168 170 175 173 168 160 163 166 172 166 176 201 214 205 200 206 201 183 178 176 169 151 106 101 87 51 65 120 144 127 52 63 48 29 44 40 40 73 120 129 128 135 125 127 141 151 154 146 127 121 134 140 150 135 144 148 144 153 156 158 167 173 172 187 175 180 167 181 184 184 188 182 181 186 192 192 189 182 170 183 182 171 166 177 171 151 168 134 114 124 121 113 118 119 124 128 137 133 134 144 147 162 165 167 176 188 192 195 199 191 186 185 181 161 127 93 103 104 71 102 157 124 49 63 40 52 50 39 49 78 123 127 131 135 129 128 141 131 114 106 115 114 124 123 110 121 121 117 112 107 104 105 113 120 130 158 155 173 150 167 170 177 184 180 174 181 185 193 188 180 166 171 174 161 155 157 143 127 133 94 97 99 79 95 102 103 101 97 116 126 130 116 131 146 152 146 150 164 160 171 193 195 186 192 191 183 151 125 129 145 118 109 113 143 54 69 41 50 45 45 33 94 127 130 135 134 126 124 122 115 106 97 92 98 100 118 117 115 101 103 94 77 68 69 67 79 96 101 124 138 153 147 157 161 174 172 171 179 187 184 183 182 154 162 164 152 136 127 125 103 113 105 109 93 79 65 70 72 73 94 83 83 97 109 113 126 127 126 129 140 148 162 183 198 193 195 202 188 169 149 148 150 172 131 131 119 70 70 54 47 48 43 68 104 126 129 133 131 125 123 106 102 98 107 112 107 103 100 92 97 87 80 75 65 66 66 68 75 94 89 99 101 141 140 140 132 160 167 162 175 185 187 180 176 159 154 157 158 142 132 113 126 106 102 97 87 79 73 85 85 92 89 90 98 101 119 119 120 126 126 123 135 148 160 175 192 200 200 199 198 169 170 186 166 169 180 155 132 75 56 60 46 64 41 88 107 124 135 136 130 125 118 101 97 104 100 109 122 130 124 112 102 107 104 109 109 110 108 102 91 85 90 107 102 113 124 141 137 156 161 153 167 176 186 181 175 166 152 157 149 148 131 119 124 102 94 101 105 116 129 144 142 145 149 157 152 155 153 156 161 154 138 142 140 130 147 176 197 193 205 205 198 180 174 125 173 203 157 151 157 82 64 79 64 33 84 102 117 131 133 140 137 132 118 116 99 99 119 128 134 142 150 146 150 148 153 161 160 160 154 147 133 122 102 92 94 97 116 126 138 150 150 143 158 178 188 178 175 168 146 141 138 136 123 110 100 103 116 120 108 87 87 85 82 92 105 131 141 154 160 173 170 177 177 164 157 157 163 167 180 198 207 208 198 190 160 185 184 149 162 145 129 73 95 70 56 83 88 115 126 134 133 134 138 135 126 113 114 120 136 148 154 155 156 158 153 146 126 78 76 79 83 81 75 82 101 108 99 85 85 103 124 130 137 146 162 176 187 175 177 169 159 146 131 125 115 109 112 118 111 77 93 105 83 40 44 35 34 28 21 13 57 91 128 160 182 188 163 162 168 163 181 200 200 204 195 193 180 170 196 189 166 161 145 89 68 70 76 100 116 131 138 132 135 142 141 138 134 135 135 138 152 161 166 142 99 55 33 39 29 40 40 29 26 77 110 107 85 78 111 112 105 95 92 107 131 146 163 178 187 190 184 173 166 156 138 125 121 125 125 118 106 122 111 91 82 51 78 130 32 61 52 135 101 49 56 81 115 168 182 171 172 170 184 189 200 202 200 189 181 167 193 210 189 147 155 73 74 77 100 121 112 120 139 135 137 138 138 142 146 141 134 141 144 133 83 39 37 70 76 25 74 32 142 66 56 97 97 107 120 112 116 114 117 112 117 105 116 142 161 180 190 193 184 177 168 160 142 142 145 132 118 122 133 101 86 157 147 58 60 16 50 37 33 146 130 104 100 92 102 123 169 169 167 168 177 193 203 204 199 189 184 187 177 207 199 148 166 70 82 81 117 102 111 132 138 136 140 140 138 155 145 146 145 133 123 83 61 42 70 125 119 24 42 51 29 53 49 148 172 103 94 113 130 133 127 118 125 131 123 141 165 186 190 192 190 187 173 158 150 152 141 133 151 156 87 90 129 139 149 92 81 118 87 94 127 142 133 155 159 145 112 129 137 147 172 177 181 189 201 200 205 197 181 173 198 184 198 179 172 65 83 107 134 111 103 129 146 140 139 139 142 144 159 146 135 142 102 94 81 116 127 129 129 71 50 53 35 41 43 159 148 120 94 80 100 164 152 139 136 136 136 140 169 190 194 194 191 192 176 155 149 157 143 163 176 99 110 134 140 160 132 141 147 158 123 152 144 151 159 170 170 164 153 147 153 166 176 180 183 186 196 205 209 199 184 167 154 210 182 191 186 78 108 106 121 93 121 124 135 135 143 142 154 148 144 149 150 113 116 101 124 138 140 139 136 162 142 161 137 160 162 128 149 136 121 127 98 101 169 163 163 147 139 141 162 178 194 195 187 186 177 161 154 151 158 174 161 139 165 166 158 151 159 162 169 180 158 168 170 165 167 152 158 164 177 183 178 176 173 173 181 193 201 203 199 198 184 173 174 171 179 192 197 83 101 113 121 119 123 134 138 138 139 149 149 154 159 153 140 130 120 132 138 141 143 158 163 153 151 153 122 171 160 169 147 140 157 154 153 167 167 187 171 152 140 140 170 184 191 192 185 185 184 166 151 150 158 180 172 173 169 160 138 139 146 169 168 163 165 155 155 149 145 143 168 190 172 176 179 180 179 182 191 195 199 200 207 203 189 161 167 166 186 181 189 94 101 105 125 104 112 139 142 136 147 152 156 154 156 159 153 155 157 151 139 145 143 146 162 161 162 167 169 166 142 136 117 122 139 165 178 171 183 178 160 154 137 148 179 185 190 191 190 187 185 178 157 149 155 156 173 170 155 161 134 120 125 125 137 136 136 139 137 141 142 155 141 154 187 190 185 189 189 183 191 198 205 204 206 199 188 168 169 171 186 167 166 90 107 110 108 128 124 124 137 141 150 149 158 158 150 157 161 166 156 149 150 133 129 136 126 138 130 133 134 122 122 109 119 130 152 155 155 161 168 172 159 152 136 166 183 185 192 194 189 187 192 187 172 149 157 167 169 163 162 157 162 165 148 129 122 105 105 107 126 129 144 162 191 182 163 179 191 190 187 188 192 194 205 206 208 204 186 193 158 188 182 165 174 85 116 119 125 124 114 127 132 147 152 159 159 162 157 149 159 153 160 164 152 134 142 123 132 122 112 112 117 112 119 141 154 158 160 158 159 166 168 169 158 144 150 180 190 185 196 187 190 185 186 198 192 165 159 167 175 179 177 171 168 165 172 174 173 169 171 166 169 168 173 173 173 184 186 187 182 188 187 188 194 196 199 202 203 202 192 184 184 183 151 158 168 86 121 136 116 102 114 124 133 143 153 155 161 159 159 154 156 162 170 159 163 176 168 160 159 154 152 149 156 159 163 163 160 162 164 175 182 179 175 167 159 139 164 173 191 191 192 184 189 185 189 195 194 184 153 171 178 180 185 188 178 175 179 172 177 175 178 178 181 185 191 188 187 176 178 187 183 178 189 197 195 196 199 205 205 211 199 176 164 160 144 163 162 112 98 148 127 129 104 118 129 142 154 153 158 160 158 158 162 161 162 172 175 174 165 183 167 181 179 174 181 181 176 175 175 178 184 187 182 181 175 161 145 143 158 170 194 192 186 184 185 182 183 192 184 169 161 166 172 184 180 188 196 191 190 182 187 187 182 189 195 187 187 191 189 191 183 181 190 191 194 191 195 196 197 207 208 206 189 177 143 202 173 135 148 127 122 127 136 132 121 124 132 135 153 153 159 158 155 155 154 163 169 172 173 171 182 179 187 176 182 183 181 182 179 183 181 186 185 181 185 175 167 154 143 147 153 160 174 187 187 188 182 181 188 192 171 168 164 163 167 184 177 180 192 195 193 189 192 189 179 184 195 191 191 190 191 188 189 187 184 193 193 191 197 199 197 202 201 197 198 174 160 185 192 126 130 124 121 122 138 116 116 131 125 132 152 155 157 160 155 161 160 161 170 167 175 174 181 184 182 183 187 180 182 180 179 185 187 188 188 185 185 172 159 147 142 146 149 156 172 188 184 183 184 186 187 181 175 178 172 161 166 179 190 175 191 191 189 192 192 191 190 190 192 188 192 190 187 189 187 184 187 186 190 191 193 198 194 200 199 198 196 172 182 179 195 123 141 153 120 122 133 88 114 129 129 131 141 149 158 158 155 161 166 163 159 171 174 180 181 183 184 186 187 185 179 185 189 187 184 190 190 188 170 163 152 146 147 140 146 155 162 177 191 182 181 187 195 191 177 180 175 168 169 172 188 188 194 179 165 191 188 189 191 189 185 186 189 188 189 190 187 187 194 183 188 196 193 194 188 194 202 197 197 182 190 179 189 140 140 175 152 139 124 116 113 122 135 139 139 149 158 154 154 158 164 165 167 172 170 173 184 186 183 187 185 190 182 184 192 193 187 189 186 177 165 158 145 148 148 147 147 149 154 171 184 181 179 195 191 196 179 177 182 168 167 176 182 190 196 188 166 188 191 185 193 191 192 189 188 188 191 189 187 190 192 186 185 194 193 192 189 183 192 197 202 172 157 190 184 133 124 173 176 140 129 151 94 133 135 141 144 156 151 159 158 160 163 171 167 165 176 171 185 184 179 182 179 188 186 189 192 193 191 186 188 177 165 154 147 147 143 145 137 151 157 168 181 173 178 183 194 199 193 181 179 176 168 171 180 186 188 194 192 197 189 186 193 193 192 192 193 186 190 188 187 189 190 190 188 191 188 190 183 190 192 200 208 177 141 153 200 142 148 154 156 143 154 114 120 126 134 139 146 150 154 155 161 162 160 169 170 167 169 177 177 180 181 181 186 183 186 192 188 191 188 183 177 167 161 151 148 144 145 140 144 147 158 171 183 177 176 182 189 198 204 191 176 174 176 170 181 187 187 190 186 189 188 189 193 188 191 197 191 189 188 184 186 185 187 189 189 190 185 188 187 182 185 199 194 176 139 167 192 179 216 113 149 144 165 122 101 115 123 134 141 148 156 159 160 165 166 171 167 164 171 171 173 177 180 183 186 185 189 188 186 185 185 178 175 170 162 158 146 142 142 143 148 149 156 179 187 180 174 182 183 191 204 206 196 182 173 179 180 181 188 185 186 192 190 192 189 195 194 196 193 192 185 184 189 186 184 183 183 187 184 181 184 182 185 199 199 155 139 195 186 163 204 119 136 137 170 133 78 111 123 130 141 150 153 160 160 168 168 167 167 168 170 171 173 175 185 186 186 183 187 188 187 188 182 180 176 169 167 146 136 139 145 143 145 153 163 182 190 186 181 181 183 184 182 203 207 197 176 176 187 186 183 188 185 189 193 195 190 195 191 191 196 195 189 187 185 187 184 185 185 179 186 186 181 180 183 192 205 152 168 184 204 202 209 162 148 130 166 138 82 132 125 125 138 150 159 159 153 163 168 169 165 167 163 172 176 185 188 187 189 187 186 186 187 183 182 184 188 177 168 138 141 146 150 155 150 150 159 187 193 183 178 184 187 187 185 188 193 199 184 169 172 185 193 187 182 188 192 194 189 196 195 195 196 193 188 188 187 187 180 178 179 178 174 178 181 181 181 192 188 134 173 178 195 210 204 172 162 135 166 147 93 117 125 127 135 152 158 154 150 165 168 164 165 167 165 174 175 184 189 191 192 191 189 189 191 187 189 186 188 184 165 137 140 139 160 150 154 155 157 176 189 182 178 185 183 184 190 176 186 189 197 176 167 177 186 189 188 188 192 196 196 192 190 194 189 191 189 187 188 183 180 177 173 170 176 172 172 173 179 183 150 186 191 170 189 198 200 188 179 164 172 145 128 113 115 126 140 149 152 155 157 161 165 164 168 169 170 175 182 182 188 191 191 190 189 187 184 189 186 189 187 175 154 146 142 148 157 159 161 154 152 168 183 184 187 188 185 184 181 178 185 186 201 191 169 167 172 182 191 189 190 189 194 193 192 193 191 186 187 184 187 182 175 178 175 178 165 171 170 171 178 183 167 202 187 180 193 191 193 184 176 175 167 158 122 105 122 112 133 139 151 154 159 157 162 164 161 166 164 170 178 180 183 188 189 186 188 186 187 195 191 192 188 167 147 140 143 155 159 155 149 147 150 154 179 188 184 197 201 188 186 191 186 193 202 205 182 167 173 180 185 190 187 187 189 193 190 191 189 184 187 189 182 179 180 170 167 173 173 170 171 167 173 187 166 205 190 181 193 193 188 180 175 173 169 162 131 116 128 110 122 141 149 155 154 159 163 159 163 167 169 177 177 184 179 181 187 182 184 184 185 180 181 175 175 157 146 140 149 158 158 151 150 140 157 181 182 181 179 193 208 207 199 194 199 190 197 197 192 168 174 179 185 184 190 187 187 186 188 190 183 186 175 177 179 178 181 174 174 173 169 167 173 171 168 191 197 205 182 172 185 188 180 180 179 177 179 175 143 100 130 122 127 141 145 147 149 151 159 162 163 164 167 172 176 182 178 178 179 183 187 182 187 177 180 179 178 151 139 139 145 161 154 149 134 145 179 200 205 190 176 180 199 209 207 200 194 191 185 183 179 168 178 175 176 182 180 177 186 189 191 187 189 184 185 182 180 181 174 175 172 169 172 172 168 175 193 162 206 218 171 162 173 180 183 179 176 180 181 179 146 128 106 117 123 136 150 149 144 153 156 158 167 167 168 171 167 174 184 178 174 176 175 174 173 171 177 178 175 145 129 133 147 159 156 147 138 171 197 207 198 218 197 193 191 209 211 196 192 184 179 168 166 168 174 178 177 169 179 179 183 183 185 186 185 181 184 178 181 178 169 178 176 169 168 160 164 171 176 194 219 201 89 60 109 148 116 171 171 171 169 164 147 118 112 106 117 136 149 154 157 156 151 161 164 164 168 167 171 168 154 171 176 179 176 179 168 165 167 174 182 167 120 126 130 145 147 139 144 166 179 172 182 164 180 178 195 189 187 183 156 162 157 151 156 160 174 179 177 174 172 176 179 188 179 186 183 182 180 180 181 175 179 180 174 171 174 169 171 169 176 201 226 195 130 15 19 22 19 142 150 157 144 84 42 126 122 98 122 143 147 151 153 157 155 156 163 167 166 161 161 168 169 169 173 175 177 169 158 160 166 172 169 177 140 104 91 86 126 132 124 144 159 152 158 164 154 175 177 169 163 158 129 78 103 135 151 165 167 170 171 170 166 175 175 184 184 187 187 186 179 180 179 179 182 178 180 176 173 180 163 170 182 202 211 224 57 21 30 27 26 60 72 73 68 51 40 129 127 123 123 127 143 155 153 153 153 155 164 163 165 161 162 168 170 162 168 178 170 159 147 161 163 175 164 157 150 113 71 34 7 70 120 131 132 146 141 136 131 141 151 143 117 26 14 64 88 112 144 172 177 179 174 172 169 175 170 177 187 186 183 183 187 179 178 176 177 179 171 174 167 166 174 176 180 191 224 218 61 24 23 30 28 66 64 66 64 53 64 108 120 131 113 139 151 153 156 156 155 158 169 162 167 163 161 164 164 158 172 163 158 143 159 166 163 150 145 160 167 140 107 81 98 59 43 90 118 114 114 114 115 112 124 80 39 82 65 76 97 145 162 177 174 177 174 176 168 164 172 177 189 189 189 178 184 185 183 175 174 176 174 175 177 174 177 169 180 191 209 222 130 23 32 27 28 66 66 66 65 47 47 102 134 118 114 145 152 156 155 157 153 156 163 162 165 164 163 160 158 140 164 158 146 156 158 163 162 162 151 155 157 138 141 121 96 106 107 52 58 98 82 84 89 73 51 83 131 138 116 107 155 174 158 170 183 176 181 175 173 165 169 172 180 185 189 189 184 183 186 176 179 179 182 181 169 173 165 183 176 187 192 221 117 10 30 30 28 67 66 63 68 53 61 120 131 113 138 147 149 156 154 157 153 154 160 160 160 168 163 164 162 161 163 159 152 164 163 157 159 163 139 150 155 133 120 99 106 142 120 130 83 42 61 56 62 83 98 145 129 131 101 113 166 155 166 159 172 182 180 177 176 168 162 164 171 178 183 186 185 186 186 174 170 171 184 177 172 171 176 180 171 198 206 215 103 16 25 30 28 63 63 61 63 63 57 98 140 122 135 137 147 150 152 152 148 153 161 159 159 162 161 159 160 165 166 159 147 154 152 151 136 144 149 150 144 130 119 111 106 146 149 164 125 125 87 114 92 99 141 136 110 134 116 113 147 154 149 171 170 176 181 181 174 170 175 166 166 173 175 185 187 185 178 183 164 173 173 166 181 168 171 176 184 174 220 206 19 26 26 29 27 66 65 62 73 73 60 60 148 107 140 140 152 136 156 149 141 153 160 155 159 156 158 146 164 167 142 132 157 143 143 116 135 134 147 127 125 119 136 117 85 140 141 152 120 113 122 121 99 91 153 142 129 132 140 140 145 164 169 164 167 163 171 181 174 162 162 163 167 162 172 178 185 189 180 180 167 178 178 168 177 178 182 166 203 177 213 209 67 22 27 28 28 63 68 73 67 62 58 74 116 110 136 141 131 133 154 140 146 147 160 157 155 153 155 161 164 160 147 156 122 132 105 128 124 131 114 113 92 128 107 106 122 147 138 138 127 120 98 124 91 120 146 143 134 129 115 134 129 145 162 163 147 165 162 158 156 147 145 140 162 161 156 174 179 185 181 178 167 162 168 189 176 170 186 170 165 174 214 213 41 25 25 26 26 66 63 61 62 60 60 96 114 109 141 108 140 152 147 149 150 146 157 156 157 152 157 161 157 161 134 120 105 106 146 117 112 120 128 137 108 136 109 121 157 140 167 136 140 142 117 91 138 113 71 124 135 127 124 133 117 114 128 154 167 146 152 146 155 139 130 148 151 162 160 170 175 187 182 179 168 167 167 185 176 166 172 177 155 187 216 223 29 26 26 27 27 61 64 60 61 62 59 75 127 102 146 120 136 151 161 144 136 153 159 155 157 151 152 163 145 112 131 109 153 99 131 117 147 116 137 108 104 88 135 124 101 109 105 138 125 129 117 106 133 112 99 84 119 124 130 115 125 122 123 151 147 146 157 139 128 110 152 123 158 162 159 166 174 184 185 177 157 171 170 178 181 151 159 169 164 188 190 225 55 18 27 28 27 64 62 63 61 63 60 77 131 122 161 125 131 141 158 140 135 148 153 149 148 150 153 152 112 125 152 128 120 165 102 121 115 104 108 98 97 106 98 120 96 82 129 137 108 109 110 122 115 107 121 87 129 127 131 124 123 136 125 115 133 141 142 142 118 115 154 142 132 155 130 156 170 184 186 170 147 166 169 171 177 159 161 148 170 180 177 233 40 21 24 29 27 61 61 63 61 61 61 52 146 148 136 126 133 130 153 152 131 144 146 148 150 152 149 153 130 122 145 129 125 109 101 96 109 115 102 111 101 137 121 146 125 126 128 149 138 112 133 103 118 123 125 140 152 120 111 112 142 132 124 116 133 138 119 135 118 108 149 104 147 159 126 125 153 176 184 176 145 162 163 171 171 173 180 173 164 189 198 222 26 20 27 26 29 63 61 60 61 60 56 66 122 158 139 131 117 137 141 145 154 145 135 136 159 135 141 159 152 132 143 116 100 110 96 92 91 109 121 131 132 157 139 157 155 151 140 153 156 153 151 136 123 120 140 159 146 131 138 144 144 128 144 132 139 123 126 145 102 120 110 114 132 129 133 125 131 169 174 169 147 159 175 155 180 167 180 190 182 178 219 197 12 28 27 30 29 61 61 60 60 59 56 48 174 136 104 117 108 137 140 148 148 145 129 138 131 124 139 155 164 128 124 103 99 94 81 84 89 115 142 136 127 118 114 117 112 111 109 110 113 123 136 155 136 140 137 134 125 145 140 149 145 145 137 139 136 133 128 106 93 56 103 107 101 111 128 109 150 174 149 151 147 150 183 159 171 173 175 189 191 187 220 213 16 20 33 25 28 59 58 61 59 58 52 54 110 138 105 116 134 142 145 151 157 132 137 137 143 146 137 132 135 123 112 107 99 92 81 59 46 59 55 70 76 75 68 80 85 88 83 87 80 79 80 81 95 84 64 73 89 88 106 107 114 121 126 125 125 112 106 72 56 54 53 83 86 124 127 117 148 170 161 138 136 160 152 166 169 163 159 188 184 202 234 196 5 26 29 30 28 61 60 58 59 59 64 59 66 141 151 108 133 143 151 136 133 146 136 132 134 132 135 144 121 141 122 116 117 111 102 104 72 37 8 36 66 51 81 118 121 87 87 98 138 129 132 117 103 115 132 118 98 77 56 49 46 54 46 59 43 35 35 64 100 86 76 89 87 118 139 139 141 166 160 127 158 166 145 176 155 149 168 178 190 201 228 161 18 23 28 29 28 58 58 59 59 57 53 58 61 144 134 115 115 139 129 154 132 133 135 143 135 121 134 156 159 141 152 130 100 110 123 129 125 89 77 78 78 87 103 107 120 101 162 167 105 147 140 132 157 151 145 144 128 93 149 105 66 85 87 97 98 91 93 119 130 121 95 115 106 101 150 144 153 147 158 136 167 168 162 166 159 184 146 151 187 205 213 144 26 27 25 31 28 59 61 59 57 58 57 51 57 145 127 122 113 128 132 139 158 119 106 143 127 127 143 151 146 163 149 150 132 104 161 153 126 120 108 100 102 115 144 146 144 133 131 129 136 124 119 118 114 119 114 107 119 111 115 123 135 122 145 123 116 127 142 141 146 151 117 106 122 99 146 157 161 155 129 119 162 158 141 159 158 180 159 160 194 217 221 48 20 29 27 26 29 57 58 58 58 57 57 55 48 153 137 121 121 129 111 124 158 135 113 129 138 127 123 137 124 156 144 128 112 127 133 132 144 138 122 115 124 133 126 138 152 152 154 153 153 154 136 130 131 128 125 136 139 144 140 158 153 159 148 160 152 153 153 155 146 146 129 123 118 132 143 169 158 130 126 132 130 168 143 155 149 179 184 168 191 207 159 20 24 28 27 28 31 58 58 57 55 56 55 55 55 99 128 149 119 109 110 132 142 147 127 116 159 111 141 143 145 138 130 123 141 142 136 141 139 137 135 134 135 136 142 152 159 156 155 156 159 157 154 149 150 154 145 149 161 166 173 168 168 166 159 163 165 162 165 159 152 145 144 140 132 166 145 165 162 163 139 119 163 156 162 133 168 178 190 151 202 199 170 46 25 27 26 27 31 59 58 57 57 56 57 57 57 70 99 127 112 99 105 120 122 140 134 119 123 118 96 135 145 124 126 129 140 131 149 132 139 138 131 133 144 155 150 155 157 169 171 168 160 165 153 169 156 170 160 161 158 161 159 168 167 162 153 148 165 156 157 158 160 158 155 137 138 114 155 159 137 143 146 143 164 134 190 142 176 172 190 158 191 201 76 24 27 27 25 29 31 57 57 58 57 56 55 58 55 53 82 101 121 106 95 114 117 139 126 121 96 105 94 128 118 136 127 131 130 121 133 132 140 138 126 132 152 151 129 147 149 130 149 138 144 132 152 122 139 127 114 124 135 147 157 138 127 137 145 145 157 153 151 161 147 157 134 156 147 122 151 147 148 107 142 147 156 166 165 156 148 169 163 184 171 136 45 27 28 27 28 29 28 57 57 57 55 54 54 56 54 59 54 77 95 110 86 115 125 123 141 120 114 115 110 82 126 122 115 118 122 117 137 143 145 143 128 130 138 132 136 129 108 105 129 112 122 113 113 103 110 101 143 125 112 127 133 142 126 124 122 137 142 142 156 147 156 153 153 152 148 140 119 141 130 139 124 137 165 156 176 155 175 154 169 180 206 152 15 20 27 28 30 25 30 57 55 54 54 54 54 54 54 56 55 65 90 127 104 108 113 84 117 117 118 108 106 84 93 112 102 119 124 136 145 144 145 139 143 134 117 107 113 109 111 109 98 106 128 120 105 100 102 109 137 138 139 124 127 136 145 137 138 145 141 136 146 156 156 149 155 146 143 133 142 125 130 112 106 151 165 150 169 186 158 180 152 166 196 187 154 22 5 26 25 30 29 57 53 54 53 54 52 53 54 59 53 58 109 117 84 123 100 87 119 128 107 101 93 96 94 119 107 125 119 148 139 136 139 142 149 152 142 118 109 122 125 122 111 104 130 147 134 115 120 147 106 111 107 118 111 138 142 155 148 160 152 148 155 159 160 148 142 152 167 141 133 173 125 122 133 136 158 138 156 182 160 178 121 156 190 175 185 236 155 0 20 29 26 54 53 54 54 54 54 55 54 52 51 49 68 121 94 103 96 96 116 124 121 106 85 107 103 103 116 137 138 152 135 138 124 135 143 163 150 144 116 128 112 114 116 96 109 134 138 130 126 121 96 123 87 126 134 155 149 154 165 160 155 159 161 158 154 132 113 134 133 130 154 137 136 118 154 152 156 180 171 155 200 154 159 156 202 179 106 184 227 219 37 15 30 53 53 53 53 53 53 53 53 57 54 54 47 60 87 115 82 99 108 107 91 84 93 101 97 102 109 127 126 157 150 152 135 139 155 151 152 140 135 131 131 136 126 107 122 136 102 128 134 124 113 123 116 130 153 147 164 160 166 167 164 167 162 140 138 130 154 158 104 133 132 150 136 144 145 151 168 170 190 144 196 186 161 182 208 192 78 105 180 226 238 60 17 50 53 54 53 53 51 52 52 52 52 51 52 47 86 98 90 83 93 81 138 103 99 106 83 115 130 123 144 138 126 128 130 151 157 155 157 146 148 142 155 153 138 130 139 131 123 110 142 126 125 123 133 130 149 159 167 168 166 168 160 161 155 137 136 135 144 165 156 153 128 106 128 132 112 131 173 153 140 121 180 192 178 183 194 215 113 49 99 199 232 246 82 52 51 51 52 52 53 54 54 53 54 53 53 49 82 107 128 50 109 95 133 121 78 77 105 93 101 119 135 156 145 147 137 151 165 162 157 155 161 161 157 160 164 153 145 160 137 143 137 153 135 158 164 150 153 161 165 166 161 165 177 156 156 140 137 143 155 189 163 142 120 108 124 131 142 138 160 184 180 157 161 189 190 188 200 205 103 110 43 169 207 236 254 52 50 52 51 52 53 51 51 53 53 53 52 48 73 114 114 85 70 82 118 105 81 89 106 109 92 110 136 118 127 122 134 127 131 139 133 152 164 162 150 139 143 144 169 152 139 120 128 143 134 127 162 153 148 158 165 181 169 171 159 169 145 146 141 145 135 150 178 107 143 123 149 150 140 161 142 164 148 124 152 161 175 190 198 205 109 133 87 116 204 220 238 51 48 50 50 51 52 51 49 52 52 51 52 43 57 123 113 86 78 81 84 101 121 107 100 91 101 140 115 132 119 97 148 148 136 140 144 149 155 136 138 143 141 138 148 148 137 113 136 146 152 129 163 163 151 163 170 182 168 147 141 144 159 146 138 147 179 131 157 145 139 131 123 160 148 177 181 125 131 164 175 182 183 185 200 208 118 134 110 65 200 206 229 53 52 50 50 51 52 49 49 51 51 51 52 45 46 121 121 110 106 77 47 108 135 86 115 91 100 85 109 121 109 124 122 117 119 134 150 157 159 136 155 148 146 149 155 174 141 154 151 162 165 152 167 164 153 158 163 151 144 151 137 142 143 166 153 156 127 137 134 153 98 126 118 132 131 186 186 156 146 166 177 181 176 187 195 208 130 133 116 88 188 209 220 52 52 50 50 51 51 50 50 50 51 51 48 46 41 110 127 111 105 78 87 89 75 106 134 112 110 83 108 102 91 115 129 120 127 126 126 149 121 135 121 139 150 154 162 152 155 156 137 135 161 178 163 147 158 151 141 171 155 146 142 152 151 120 113 113 112 121 139 114 104 117 118 129 140 153 122 150 170 177 182 180 176 188 192 206 140 103 111 64 161 205 217 52 49 48 48 49 49 47 49 47 48 47 49 44 35 83 134 135 123 105 94 63 91 100 103 116 81 77 63 114 117 135 120 118 60 120 156 136 146 146 149 155 139 156 159 161 152 157 145 142 142 158 142 122 148 158 157 156 150 144 140 144 150 168 105 118 105 123 130 96 136 116 117 119 168 128 88 152 175 162 169 174 181 189 197 212 109 0 6 0 164 208 211 51 49 48 47 48 48 48 47 49 49 48 46 48 43 55 131 135 141 129 87 78 61 58 78 71 82 69 92 91 151 90 98 121 145 132 122 154 169 149 132 140 143 158 141 183 138 147 146 170 132 141 119 142 161 150 152 129 161 124 135 134 110 126 90 164 111 87 107 129 116 124 117 156 119 99 148 184 170 171 180 184 186 184 192 210 118 3 48 77 118 209 204 49 48 48 48 48 48 49 47 48 47 47 46 43 40 37 126 134 143 139 114 102 101 85 67 83 91 83 111 60 83 118 136 123 129 120 192 188 141 145 127 121 153 155 150 170 171 163 152 161 161 141 143 135 132 137 135 117 132 132 145 138 142 123 143 102 102 102 74 167 95 73 96 105 143 160 177 175 187 176 171 185 181 182 186 207 149 82 91 77 135 206 210 49 47 48 48 47 49 47 49 47 47 46 45 43 38 35 110 131 144 135 127 135 118 93 59 134 85 87 61 80 79 103 101 132 140 128 134 158 138 124 133 150 144 137 144 148 149 130 133 156 139 119 161 162 133 149 156 131 131 123 148 146 163 141 92 97 80 88 73 98 73 99 134 118 145 191 162 166 178 170 177 181 184 179 190 195 166 56 68 56 79 204 212 48 48 48 48 47 48 47 48 46 48 44 45 46 40 29 77 148 141 145 128 124 139 133 117 60 51 92 68 54 36 112 120 142 121 145 145 132 123 134 136 168 137 116 111 133 125 131 125 126 145 111 111 146 144 142 118 96 122 155 101 165 133 127 146 86 121 57 74 101 75 139 109 125 165 164 175 178 166 170 178 186 189 183 176 190 184 75 65 55 54 198 217 47 46 47 47 48 48 47 47 45 46 45 43 40 36 26 67 140 142 136 138 158 138 143 133 104 93 64 73 72 62 68 135 127 124 135 162 132 120 120 109 141 119 132 150 124 120 153 154 109 99 143 123 134 148 139 110 95 123 112 139 126 124 94 98 91 74 76 91 87 116 86 119 145 155 167 163 177 173 182 185 178 180 185 184 195 180 94 86 72 67 202 218 48 48 46 46 47 47 47 46 47 46 45 44 38 30 51 145 134 142 145 147 153 153 151 142 120 130 92 75 93 94 63 75 112 119 134 126 104 150 105 121 122 140 124 118 110 127 131 129 112 111 124 144 64 123 135 113 107 96 110 134 137 93 91 70 93 56 76 86 105 143 155 120 143 139 174 182 170 174 177 177 180 182 182 182 186 164 99 101 95 84 198 220 47 45 46 45 47 45 46 45 47 46 45 39 39 28 159 161 132 137 145 156 151 154 146 151 155 145 136 108 77 65 81 78 111 82 123 138 68 145 101 126 121 135 111 118 98 128 117 104 99 91 120 122 94 89 67 135 105 53 113 101 84 97 47 52 101 50 65 112 120 147 149 156 165 175 172 175 173 172 175 180 179 184 183 187 182 156 86 109 106 82 189 218 44 43 46 46 46 45 46 46 45 42 42 42 23 145 178 167 139 135 143 150 161 152 139 150 153 162 137 136 109 90 58 69 53 85 105 113 126 118 95 108 111 93 92 100 75 108 128 101 106 81 103 103 109 107 85 87 86 88 76 101 65 69 63 52 82 87 104 113 143 150 159 175 176 170 170 175 174 179 177 176 177 180 180 180 180 148 68 105 111 92 186 220 44 43 44 46 47 46 45 41 49 45 41 19 130 190 165 188 151 134 140 148 152 161 153 153 157 154 152 149 152 136 109 59 67 73 78 85 66 93 128 94 113 73 85 110 81 107 102 98 90 76 57 76 76 88 92 112 76 67 80 53 100 90 71 80 75 99 115 118 151 156 158 174 159 161 178 180 176 174 178 180 177 177 180 180 174 135 60 91 111 104 185 219 44 43 45 43 45 45 44 47 40 46 28 103 200 165 161 197 167 131 140 142 152 155 163 157 149 146 168 153 160 155 126 99 88 76 63 84 70 69 102 62 125 89 130 107 66 47 79 73 78 89 47 65 91 63 57 56 43 59 75 108 106 92 97 143 154 156 152 140 169 171 180 171 161 180 173 172 171 172 175 172 173 176 177 178 170 129 58 81 102 100 179 216 42 43 43 45 45 42 43 41 41 36 63 200 174 175 172 199 178 124 142 147 148 149 157 166 165 154 152 165 151 160 154 134 93 92 77 69 65 75 73 73 95 76 107 68 43 51 50 57 40 51 50 53 39 68 92 87 88 82 85 103 98 124 154 162 156 151 153 155 159 179 177 165 170 171 167 171 174 174 177 175 174 176 177 180 164 126 63 78 95 99 179 218 44 40 42 43 42 42 41 44 37 41 184 199 175 163 179 196 198 116 131 146 146 155 148 163 171 165 148 149 151 153 150 147 134 131 108 85 82 73 76 65 63 65 65 57 72 65 53 61 89 97 78 67 82 99 80 95 64 104 119 116 151 143 139 148 153 155 163 149 161 178 178 173 164 170 177 172 175 173 177 177 169 175 177 173 152 118 61 77 93 89 187 217 44 42 43 42 43 42 39 39 29 164 201 193 172 166 185 197 185 72 135 141 147 147 151 151 162 167 169 150 145 147 152 149 147 140 145 140 128 122 89 69 76 84 49 48 49 64 84 38 61 55 54 52 53 68 56 76 107 120 153 170 154 148 157 160 144 158 164 174 174 170 173 166 167 177 177 174 175 177 176 171 173 181 175 163 147 105 66 79 93 83 187 217 38 42 43 42 41 38 21 14 140 204 195 185 174 167 189 199 185 30 125 138 145 150 155 149 151 163 169 177 150 153 166 165 170 138 145 156 133 133 135 133 104 109 90 103 106 90 91 97 81 86 98 98 82 89 126 139 128 119 146 157 158 156 167 167 172 170 170 172 171 166 172 177 176 174 175 172 170 174 172 172 177 176 171 145 151 96 71 88 85 86 194 220
