P2
# Generated by OpenCV 4.2.0
92 112
255
3 5 8 0 0 5 12 12 10 12 10 9 3 1 8 6 3 0 21 35 24 18 5 26 36 15 15 8 33 24 7 24 8 6 9 26 37 23 17 25 19 29 37 25 21 49 39 34 49 50 33 29 28 25 38 52 51 64 87 80 91 98 113 132 134 130 135 134 140 141 145 136 125 111 66 50 40 13 35 57 49 48 53 82 43 48 58 43 83 119 111 111 10 6 2 7 14 5 6 13 16 11 9 7 10 12 11 16 14 13 26 34 16 19 19 22 34 17 15 12 29 30 10 23 12 7 14 30 37 30 22 33 33 37 37 37 37 60 59 55 71 59 41 27 32 36 47 60 61 81 87 88 109 123 127 127 140 142 139 139 143 145 142 137 129 120 90 59 63 51 17 30 41 39 50 68 64 39 43 51 64 118 111 110 3 4 4 10 20 30 29 16 8 11 10 16 18 26 25 26 36 36 38 39 21 15 14 23 37 27 13 15 29 40 19 23 17 13 23 37 36 32 28 49 54 54 53 56 59 65 62 78 81 58 41 33 45 53 61 68 78 91 97 103 121 135 144 143 146 153 144 145 145 146 145 140 137 127 107 86 66 77 74 38 32 44 36 54 72 50 30 44 50 100 114 110 7 6 6 16 25 20 16 16 13 20 28 29 30 38 40 38 40 49 56 48 30 29 27 24 37 36 24 16 22 37 28 27 23 19 23 42 40 39 38 61 70 72 74 65 82 74 64 77 72 54 41 50 66 67 70 82 90 104 114 123 143 149 147 150 151 151 151 152 144 143 146 139 138 143 120 96 80 49 55 55 29 40 38 27 53 66 39 26 44 74 118 111 4 6 12 7 2 4 12 20 24 28 31 40 49 56 62 65 61 60 60 54 43 40 45 50 48 40 42 37 28 33 36 34 33 33 27 45 50 51 47 78 86 94 99 79 95 77 75 77 72 63 58 71 76 72 89 101 115 119 138 152 149 154 157 154 150 150 149 149 145 145 144 144 142 140 128 112 98 74 52 39 40 29 37 27 30 65 59 23 38 55 110 112 5 1 0 2 10 15 15 26 37 36 56 65 65 75 82 80 79 79 77 71 69 56 54 62 67 61 52 55 55 44 49 43 46 55 51 46 54 61 55 87 105 115 108 90 98 91 93 93 81 71 80 85 85 100 115 123 130 139 154 161 161 156 150 154 150 149 148 143 146 147 145 147 142 141 129 116 100 94 74 52 45 43 27 32 32 48 65 39 26 46 85 117 0 1 2 10 22 33 40 39 42 56 76 81 77 81 86 87 93 99 98 95 94 94 90 88 84 72 80 69 86 84 54 57 54 53 56 57 61 69 66 85 119 127 99 100 114 120 120 116 111 103 107 109 122 138 144 150 152 155 160 161 162 165 153 148 149 144 147 144 145 147 148 147 144 143 134 115 100 87 85 85 59 44 35 22 43 35 41 64 19 33 59 114 0 4 10 24 38 43 45 48 58 77 88 91 93 93 95 100 106 114 114 121 117 113 116 122 118 98 91 94 91 104 83 75 69 65 75 72 80 92 87 90 118 119 111 120 135 155 156 155 155 153 148 147 152 159 164 162 159 163 160 158 161 165 167 154 155 150 150 147 148 151 149 146 146 142 139 120 96 78 61 68 83 45 22 22 34 45 32 60 32 19 48 100 3 7 20 32 40 48 50 55 71 87 100 106 106 107 105 104 109 116 121 127 129 126 124 124 123 123 110 108 109 108 107 90 79 75 80 82 78 86 106 103 111 124 138 129 147 162 162 164 165 164 163 160 166 169 170 171 165 166 165 163 161 158 163 155 155 152 151 150 148 149 149 145 143 140 132 119 102 85 72 51 55 71 40 19 22 38 50 37 45 11 38 76 11 19 30 35 43 47 53 69 81 96 106 112 112 114 110 109 114 121 128 131 132 138 132 133 129 129 124 117 110 118 127 112 96 89 87 86 88 97 106 119 119 134 152 159 164 167 164 165 165 167 168 165 169 174 167 171 167 165 170 168 163 161 157 153 152 158 155 148 148 149 149 148 139 134 129 111 95 83 68 63 50 49 59 34 18 20 40 22 48 23 20 58 19 29 34 27 29 37 46 59 76 100 110 112 115 118 114 112 121 126 133 138 133 137 139 141 145 139 134 139 126 120 139 145 121 120 118 120 127 129 134 131 142 148 157 176 180 174 169 167 170 169 167 171 167 172 173 166 165 164 168 165 164 163 159 154 152 159 156 152 150 154 152 148 137 134 128 113 92 69 63 46 45 40 41 40 30 20 21 22 31 36 12 42 16 17 12 14 18 27 43 59 88 103 107 113 121 120 115 108 119 124 128 132 135 141 143 144 145 145 148 150 144 140 153 170 153 147 151 153 150 153 154 147 150 156 170 176 180 175 169 172 170 169 169 170 170 169 169 167 168 168 167 165 162 158 155 159 157 154 152 148 153 153 152 148 138 132 128 118 102 76 58 45 36 31 32 33 38 37 15 28 20 39 17 35 17 6 4 16 31 39 52 72 94 107 109 116 123 122 116 112 118 121 127 135 137 142 148 146 148 153 149 152 154 159 163 162 166 162 163 164 165 168 165 163 159 165 171 176 183 177 175 171 170 170 169 171 171 168 166 166 166 168 169 163 162 163 162 162 162 155 147 149 155 154 150 147 139 131 120 109 102 91 63 48 37 37 33 29 29 39 22 17 29 39 22 30 3 2 13 34 38 44 51 70 90 104 109 113 124 124 118 113 114 122 129 133 138 141 144 147 151 152 152 153 157 163 168 166 166 169 167 165 167 170 170 170 161 167 170 174 183 176 171 171 169 172 167 167 170 170 164 169 172 169 168 164 164 161 165 163 160 156 148 151 154 149 149 146 134 131 128 110 93 88 74 53 44 27 31 35 24 27 40 15 21 33 27 24 4 24 44 36 37 44 56 71 89 103 112 116 124 126 117 111 115 121 126 135 141 140 145 149 153 153 158 156 155 160 169 168 165 166 164 163 165 165 169 170 166 165 168 171 177 170 169 176 172 170 166 170 168 170 168 172 172 170 167 165 162 160 163 163 159 156 148 149 151 151 148 143 130 121 118 102 94 81 73 57 41 38 16 31 35 13 29 27 16 26 29 23 25 27 14 18 29 48 60 75 94 108 113 114 124 125 116 117 118 119 122 136 141 143 146 149 152 152 157 157 159 162 164 165 163 160 163 164 165 170 170 170 170 164 167 173 170 166 171 174 174 175 172 170 169 172 171 172 173 171 170 163 157 161 162 161 159 157 149 144 147 151 149 140 133 124 119 104 78 64 60 60 45 29 34 7 28 25 9 29 16 28 32 22 6 2 7 19 27 45 68 81 92 105 114 113 118 121 120 119 113 115 121 135 144 141 144 150 153 156 159 158 162 161 162 163 162 162 162 161 161 165 168 166 168 166 164 172 169 164 166 168 169 167 168 168 171 172 175 173 172 175 171 165 160 159 164 159 156 158 152 142 142 144 144 138 130 120 114 114 97 65 48 43 47 27 22 36 9 27 10 20 20 22 33 22 0 8 20 24 36 47 60 68 84 95 104 107 114 120 122 121 118 117 124 138 144 139 141 145 149 155 161 157 159 160 164 160 162 167 165 164 156 161 171 168 164 167 163 165 166 168 165 161 161 162 169 166 164 170 172 171 172 174 170 160 156 162 160 156 154 157 152 143 146 147 142 134 124 124 112 95 86 76 52 44 39 40 14 21 32 14 22 8 16 21 32 24 4 15 15 18 30 36 46 52 62 78 93 104 111 116 123 121 117 119 129 139 146 141 142 147 147 148 157 159 156 159 163 161 164 163 162 165 157 157 165 172 175 173 171 171 172 171 170 168 166 166 171 173 171 164 169 174 171 166 160 158 160 158 150 151 152 153 145 138 144 148 142 133 123 122 109 97 79 60 49 40 41 39 38 2 22 23 15 8 9 15 28 26 8 8 10 24 19 25 40 50 66 84 98 108 112 115 126 126 114 116 129 138 143 143 139 141 143 143 149 154 149 152 155 161 164 164 166 166 164 164 167 167 171 173 170 165 165 169 165 163 162 162 164 170 168 163 164 165 169 157 152 162 158 154 153 151 151 150 145 138 143 144 141 133 124 120 102 93 82 65 42 31 31 34 36 19 1 26 18 13 8 10 27 28 5 8 14 18 18 28 42 62 81 90 103 103 103 114 123 128 117 109 120 135 138 139 137 134 142 142 141 149 149 148 147 158 157 163 165 165 165 161 162 162 163 167 170 167 166 167 162 156 165 166 161 161 158 162 161 163 162 155 157 156 151 149 150 153 148 144 141 138 141 142 143 136 129 118 101 88 78 69 60 32 21 21 33 30 1 3 17 19 8 6 23 28 6 8 8 15 26 37 51 64 70 83 92 102 106 112 119 125 125 110 115 128 134 139 136 132 137 142 140 138 144 137 133 154 153 160 166 166 160 153 152 159 158 160 166 171 168 162 159 157 156 162 163 160 158 162 163 163 164 162 157 150 146 149 153 149 146 143 140 138 141 144 145 137 128 125 109 80 66 61 60 54 41 25 19 40 20 0 3 22 15 10 18 27 8 10 9 17 19 24 37 45 57 79 88 96 106 111 118 124 128 118 115 121 132 133 129 127 130 135 137 135 143 144 149 153 160 164 166 160 167 160 157 160 156 157 161 162 162 161 158 156 160 164 159 161 162 166 162 158 161 160 153 148 149 151 149 146 148 147 143 141 142 146 141 135 131 133 120 95 68 53 49 47 51 63 41 25 42 2 0 8 20 18 11 25 10 11 15 10 6 20 27 42 55 63 81 99 109 109 115 122 129 124 117 123 135 139 136 134 133 137 142 145 151 154 154 159 162 162 164 164 167 165 167 168 159 155 160 160 160 161 160 161 162 165 162 163 163 165 163 156 155 159 155 152 152 148 145 148 147 146 146 142 143 142 138 134 132 136 123 105 85 63 47 39 36 35 39 44 46 11 2 5 16 21 8 27 8 10 10 3 17 27 33 37 43 61 89 98 105 105 108 117 123 127 123 126 134 137 136 131 131 137 147 147 144 149 153 157 163 165 167 169 166 163 162 164 161 160 161 159 154 152 150 152 155 155 161 158 158 161 160 163 160 160 157 160 157 153 156 157 152 149 146 146 142 139 133 131 133 132 120 103 84 72 64 43 32 28 31 39 47 27 9 12 12 23 14 21 7 10 6 18 34 29 26 34 47 59 78 93 101 108 110 112 117 123 126 126 133 137 140 140 142 143 146 149 145 150 159 160 160 163 171 171 168 164 162 161 165 166 161 161 156 153 153 152 153 157 156 158 163 162 165 163 157 155 154 157 154 151 160 156 150 149 146 143 139 135 133 132 133 129 127 117 102 80 63 46 24 15 19 23 37 37 11 1 12 21 29 20 13 5 8 30 19 17 21 30 43 54 69 87 101 104 112 115 117 120 125 128 135 139 145 145 146 148 146 149 152 157 157 156 159 161 168 171 170 167 166 165 165 166 168 162 165 164 167 165 165 166 163 161 162 162 164 158 158 159 159 157 157 157 163 159 154 151 148 143 135 129 133 133 134 132 131 125 115 104 94 82 46 14 7 7 18 34 36 17 14 21 26 27 5 4 16 19 15 20 21 30 42 49 56 80 103 101 105 112 116 114 116 124 132 137 141 146 142 142 146 148 154 156 152 153 157 159 167 168 166 164 163 163 166 166 168 164 166 163 164 160 167 164 159 159 160 162 159 157 158 161 162 159 161 165 164 161 159 158 153 145 138 132 135 136 134 132 130 126 118 110 110 110 83 34 11 14 11 27 35 11 12 28 22 27 5 9 15 12 12 11 19 31 36 48 59 88 107 104 101 110 120 119 118 123 136 144 147 147 150 152 154 155 154 151 154 155 157 163 165 168 172 172 169 169 171 169 165 163 163 160 163 163 164 162 164 163 162 159 164 160 159 161 163 162 162 165 164 164 161 159 154 147 142 141 141 139 137 134 132 127 119 113 116 118 104 56 19 13 24 23 36 32 15 22 29 21 1 17 16 11 11 11 21 29 41 49 55 79 106 107 105 111 120 125 124 120 132 141 148 148 147 155 155 155 157 153 154 153 155 159 160 167 173 171 168 171 168 167 167 163 159 162 163 161 163 165 165 165 164 160 162 165 164 164 166 166 166 166 166 165 164 160 157 153 152 149 150 150 144 136 134 125 118 116 119 123 119 81 28 10 15 27 22 34 32 29 44 25 14 29 10 8 7 10 20 27 25 35 54 77 104 107 109 113 121 127 125 122 128 135 143 148 149 152 154 154 155 157 152 152 154 161 160 165 167 170 167 170 170 166 168 167 163 163 164 167 170 172 169 172 154 150 156 163 165 170 168 169 169 167 169 164 165 164 164 160 158 156 154 152 146 140 131 121 116 118 120 128 131 100 52 33 21 22 27 41 44 28 47 42 32 12 8 8 5 11 17 17 23 38 62 85 98 106 113 114 121 130 129 129 131 135 146 149 147 149 156 150 151 155 157 155 151 154 157 158 165 168 174 172 169 169 171 172 163 162 165 166 177 168 163 158 149 149 158 171 168 168 165 169 171 168 166 166 166 162 158 158 157 160 153 149 149 147 131 123 117 119 124 129 136 115 75 56 48 34 42 43 50 41 43 50 21 10 12 6 7 9 12 23 42 66 80 93 102 108 111 116 124 130 132 135 139 137 146 154 146 147 150 151 148 151 155 152 149 150 157 160 162 169 172 175 171 164 172 172 162 154 160 167 169 159 152 154 162 162 168 169 170 166 166 169 169 164 163 163 159 158 151 147 150 155 151 150 150 148 135 124 117 118 128 133 141 128 91 54 51 51 29 49 62 68 70 73 20 15 3 5 10 4 19 45 70 82 87 91 104 110 110 118 129 135 136 147 148 146 152 156 154 151 148 150 151 150 150 150 147 148 157 158 161 163 168 174 173 167 166 165 165 144 153 164 159 157 158 159 161 163 167 167 165 162 162 162 161 160 156 149 143 139 137 131 130 134 140 143 139 138 132 121 118 119 128 134 137 131 113 83 75 89 69 42 50 60 76 100 16 11 0 6 11 17 37 77 93 89 89 93 103 108 116 128 133 136 142 150 151 153 154 158 159 155 154 154 155 155 151 155 153 146 152 154 154 155 160 167 160 161 161 162 166 145 140 152 153 150 148 148 155 154 153 149 151 143 140 144 140 140 134 128 119 113 110 109 109 107 112 113 110 115 120 114 118 120 127 136 138 132 125 96 86 85 71 35 34 60 65 74 15 12 5 17 16 19 51 91 105 97 96 94 102 107 121 134 135 138 142 148 154 154 157 158 161 153 152 155 156 157 154 154 155 152 151 152 148 148 151 153 146 150 155 162 162 150 134 143 143 138 138 139 135 140 136 116 114 88 94 98 94 94 93 95 92 88 84 87 87 86 84 87 88 86 96 105 113 118 127 137 139 134 131 112 88 77 79 73 51 76 72 43 17 13 13 23 16 22 54 95 110 106 99 96 99 107 127 135 137 139 139 138 142 144 152 151 153 150 146 150 156 155 152 150 140 142 149 148 152 149 145 142 137 142 151 157 154 144 133 134 135 128 127 128 116 114 97 78 76 61 55 54 62 64 69 71 70 72 75 71 70 73 73 72 73 74 89 100 113 119 125 132 136 136 126 115 89 85 73 70 61 65 96 69 24 16 21 24 23 26 60 101 112 111 104 99 95 112 130 136 129 119 116 112 113 123 124 125 126 122 126 131 135 140 142 137 129 135 141 138 141 143 143 140 131 138 144 148 148 136 125 124 124 114 106 105 102 89 74 64 65 55 38 34 41 40 38 50 56 64 72 77 79 80 78 78 78 79 85 102 122 121 126 134 137 134 127 114 103 90 88 72 63 77 129 108 28 19 22 16 18 28 74 114 118 112 107 99 95 104 110 109 99 93 91 88 92 93 91 97 91 85 86 87 91 90 98 111 108 113 122 127 128 130 138 136 126 133 143 147 147 139 118 112 120 119 102 90 86 75 67 59 56 42 33 40 49 56 68 79 86 96 102 104 105 105 103 103 99 95 102 112 117 115 128 133 134 130 129 123 110 94 87 84 66 84 149 148 25 21 12 18 35 53 89 114 117 112 105 100 94 82 74 71 72 74 76 73 74 73 72 70 66 58 62 63 55 55 60 69 70 80 95 111 117 112 119 125 118 123 140 146 142 139 126 108 113 113 102 89 76 67 55 47 49 57 64 75 86 94 104 109 115 118 120 122 129 129 127 128 124 117 120 122 109 115 126 130 128 129 129 127 115 111 97 82 83 88 140 163 22 14 17 37 59 69 97 108 112 113 102 98 88 71 62 56 51 53 54 53 63 66 63 51 41 44 38 29 29 29 33 42 50 56 70 85 95 94 104 114 109 113 128 134 133 136 126 110 97 98 90 79 62 48 49 57 57 49 44 31 13 25 50 54 31 34 39 44 52 69 88 106 123 123 128 117 113 121 125 130 131 130 129 127 115 91 105 92 92 126 149 156 18 11 24 54 74 91 99 108 109 112 105 103 85 65 54 53 50 55 63 71 73 77 74 78 83 87 83 75 67 53 43 42 36 40 46 61 76 87 91 103 99 97 122 142 141 134 123 109 93 80 72 60 53 62 68 55 52 60 60 47 22 34 37 43 8 1 49 44 24 20 27 48 84 118 114 111 116 119 125 132 128 125 130 128 123 95 79 90 93 126 148 137 15 27 57 89 82 82 105 115 109 110 107 102 89 70 55 57 72 89 98 109 113 109 113 120 128 127 113 92 79 61 49 40 36 35 34 34 45 62 73 84 89 98 123 141 144 140 132 121 106 86 69 71 79 79 64 70 78 63 84 125 59 31 27 28 20 35 106 97 82 69 55 54 63 75 96 114 123 124 129 130 129 130 127 128 123 112 106 80 63 96 129 122 24 40 70 71 77 95 115 118 109 110 107 101 98 85 75 81 97 110 114 116 115 104 88 68 44 29 51 47 2 15 37 49 38 33 37 39 36 36 43 57 79 98 125 146 156 157 143 131 119 96 91 94 86 78 89 84 64 82 112 126 101 75 86 90 99 113 123 105 107 102 90 93 93 99 114 127 128 128 132 130 131 133 131 130 126 103 113 92 57 84 121 119 32 46 62 76 87 94 111 115 109 108 105 104 100 104 98 98 107 108 91 62 37 25 28 3 0 15 32 56 25 66 95 72 70 62 55 48 48 46 45 47 68 102 133 153 164 163 156 141 125 109 108 101 100 123 113 69 92 108 113 98 105 104 114 108 116 120 122 115 103 95 107 128 132 133 128 130 128 130 137 132 134 134 131 130 125 98 104 86 68 88 122 124 55 50 71 85 89 95 110 110 107 108 106 104 108 102 103 102 90 60 19 10 24 45 80 43 9 29 26 38 37 105 138 94 64 62 73 94 78 71 71 60 71 111 143 159 169 169 164 149 129 116 118 120 130 142 99 107 127 110 101 101 110 114 126 121 121 119 110 98 90 107 128 127 135 136 133 136 136 139 141 136 141 136 128 128 126 99 69 85 81 95 115 122 88 60 71 88 92 89 104 111 104 105 108 110 110 109 98 86 71 51 32 56 78 93 103 106 83 72 72 95 107 123 132 122 108 95 71 91 122 109 104 79 76 110 143 157 173 174 160 146 134 122 119 127 153 141 130 137 125 101 91 100 109 106 100 101 101 91 87 92 101 111 123 135 140 139 137 138 135 142 144 138 139 136 128 123 125 96 69 82 86 99 119 126 99 70 70 80 81 80 102 112 105 105 109 111 108 107 101 72 61 57 56 81 94 106 110 112 112 127 120 123 121 122 121 112 114 129 118 110 131 141 126 91 82 119 147 157 169 173 159 150 145 128 116 126 134 129 134 129 122 106 90 85 79 77 77 77 79 80 87 98 116 129 132 134 138 138 137 134 136 145 145 134 132 128 129 124 117 107 85 80 95 114 132 127 91 64 67 80 78 81 104 114 108 109 113 112 114 116 114 99 86 88 93 85 90 100 115 114 120 126 127 130 118 110 95 92 109 128 131 138 137 146 124 93 91 131 156 160 169 174 166 158 152 135 118 126 133 130 125 125 127 122 123 118 112 112 104 98 97 101 107 117 127 135 142 144 141 135 131 134 141 143 143 136 128 130 131 125 116 99 80 76 109 135 138 122 68 60 92 77 71 88 102 109 107 112 118 124 120 117 126 129 124 114 102 96 86 80 86 95 103 107 109 103 95 85 82 92 113 121 123 125 123 131 121 92 112 151 160 163 168 173 171 162 154 143 128 125 135 142 150 140 132 129 133 134 141 143 137 138 135 137 141 146 146 143 138 139 138 138 134 132 139 144 144 138 136 139 132 122 115 101 72 82 120 142 127 117 73 69 86 81 70 85 100 100 106 113 121 125 128 118 118 129 129 123 123 107 83 83 80 71 72 71 73 73 74 80 92 112 119 121 121 128 129 128 113 98 135 159 158 166 170 168 171 167 157 151 140 122 136 146 156 160 154 143 139 140 143 146 145 146 147 156 156 159 156 155 147 144 139 136 138 140 140 137 140 138 137 136 127 118 118 101 94 87 120 142 119 109 85 83 78 88 59 78 98 103 107 114 121 124 126 124 119 127 132 131 125 118 116 114 97 89 88 85 86 95 105 114 121 127 127 133 144 145 137 128 109 106 140 154 158 166 168 166 169 165 156 152 140 122 133 147 153 160 164 167 158 152 152 151 157 158 155 164 162 155 159 157 155 149 142 141 141 142 141 140 138 137 131 128 124 118 117 107 96 84 124 140 115 116 84 77 74 94 57 79 100 104 105 114 120 126 131 129 125 129 129 129 133 144 142 132 130 127 125 125 127 134 132 130 134 139 142 152 154 149 140 122 107 108 128 151 162 166 169 163 162 153 152 141 122 121 127 139 148 165 156 163 171 163 152 149 154 157 163 167 165 158 160 160 161 153 147 145 141 141 143 140 138 134 135 128 122 118 111 99 85 88 136 135 129 140 84 80 90 99 72 73 93 102 105 112 122 127 129 124 118 122 128 133 139 136 134 139 142 140 140 137 135 140 138 138 140 145 155 158 153 146 133 116 109 109 123 142 156 160 164 161 154 151 149 135 120 128 126 131 146 161 148 154 171 158 159 159 156 164 169 172 165 159 164 160 158 152 148 150 140 137 143 142 138 136 134 128 121 117 111 94 73 80 144 122 118 146 92 92 95 108 75 66 87 98 103 115 124 125 125 119 120 124 129 131 129 138 144 143 144 145 143 147 142 142 140 143 147 149 157 157 148 141 127 114 109 109 119 134 151 159 162 160 152 155 143 131 129 135 127 128 141 151 155 167 169 142 137 167 171 170 171 168 166 168 168 160 155 147 145 147 141 136 140 138 139 136 129 122 120 115 108 90 75 86 145 120 119 155 86 103 110 109 80 64 87 93 102 110 121 126 125 124 128 129 124 121 131 143 145 143 145 144 146 147 141 143 146 148 153 154 152 152 143 137 121 111 109 110 117 135 149 156 159 152 155 149 143 137 130 137 129 124 134 148 157 165 173 142 137 169 168 168 169 168 167 168 167 157 151 146 142 143 144 140 137 137 137 135 125 113 120 115 102 89 68 93 133 137 154 162 75 98 108 112 86 77 90 93 101 106 118 125 126 126 125 128 128 128 135 142 144 147 149 145 150 147 150 148 158 160 158 157 154 148 140 132 115 109 109 111 120 129 139 153 156 149 152 150 139 137 132 135 133 122 129 142 152 155 163 169 166 167 165 171 172 166 167 169 160 148 143 140 142 142 138 133 137 135 133 130 127 119 116 110 102 82 62 98 115 132 160 157 63 81 97 105 96 81 88 90 97 108 118 122 126 126 123 124 134 134 136 146 145 153 151 149 153 155 162 163 167 165 161 158 152 147 141 128 116 110 110 116 115 128 137 146 149 142 144 149 141 136 138 134 133 128 130 133 147 156 157 164 167 168 166 170 173 171 166 166 163 152 142 140 147 142 133 129 133 133 131 132 127 120 113 103 98 80 80 102 113 125 148 150 72 66 93 102 90 68 81 88 95 106 118 122 122 121 127 126 132 136 137 144 146 152 157 157 160 166 170 170 169 166 160 157 150 148 138 125 114 109 114 116 117 128 134 142 151 148 147 147 144 137 139 137 133 128 130 135 142 150 153 160 163 168 171 169 168 167 164 164 162 154 143 143 145 140 137 130 128 128 128 124 119 115 105 102 86 83 85 106 116 131 148 150 111 102 97 104 90 65 80 94 91 103 115 120 122 122 126 127 133 133 132 140 147 151 154 159 161 162 169 172 168 164 158 153 147 146 133 120 107 107 114 117 125 124 133 146 154 154 153 148 137 133 140 139 133 131 123 132 142 148 150 155 158 165 168 168 169 168 165 163 159 152 144 146 143 135 131 125 122 121 122 118 112 108 102 102 87 88 100 102 116 136 147 145 123 122 91 93 94 76 79 85 90 102 112 113 122 123 129 128 133 136 136 139 148 151 153 159 162 161 165 170 167 165 157 152 150 144 129 106 98 108 115 119 121 125 131 147 157 155 153 146 141 137 135 138 131 130 126 120 129 144 152 153 155 161 161 169 170 168 162 159 154 153 146 141 143 133 127 126 121 122 117 111 110 103 98 98 92 84 101 88 103 126 133 129 129 130 110 99 90 79 75 80 86 96 112 116 123 117 123 130 132 136 137 142 150 147 151 160 163 161 168 168 165 160 155 155 154 147 129 107 102 110 120 122 121 119 132 147 155 156 152 147 143 142 140 138 134 123 119 119 116 137 152 157 159 160 159 163 167 166 161 148 150 149 145 142 143 130 126 126 124 121 116 109 109 102 95 94 102 99 111 86 76 89 96 95 133 133 128 108 84 76 74 85 85 91 108 114 119 114 121 133 132 136 137 140 148 146 151 156 162 162 167 166 160 155 154 154 153 147 135 117 110 105 119 122 115 118 129 144 154 150 146 139 138 134 134 133 135 131 127 124 123 124 137 154 161 161 159 161 162 161 158 150 148 149 145 138 134 131 128 123 119 117 114 108 99 96 93 101 101 93 100 112 104 97 99 104 136 131 116 100 82 78 74 83 85 89 100 109 115 121 121 125 132 132 137 138 144 148 149 155 161 165 163 162 156 154 156 154 151 145 130 114 115 108 109 114 119 119 125 133 148 154 151 136 133 132 132 140 139 140 132 129 125 126 134 142 156 163 160 157 158 154 154 154 146 143 140 136 131 126 124 124 120 113 110 103 100 98 99 100 112 99 101 110 109 111 112 110 135 132 116 101 90 83 82 75 88 87 92 104 109 113 117 126 129 127 135 133 139 145 150 155 156 161 161 157 152 154 153 150 145 136 118 111 113 113 109 112 116 115 124 135 143 155 154 143 139 138 141 142 148 144 135 126 122 128 141 141 143 152 153 147 155 152 145 147 147 142 141 137 132 132 121 122 121 113 104 100 102 101 103 110 108 110 104 109 109 109 108 109 132 131 118 106 97 84 90 76 88 87 89 103 106 108 117 122 124 125 129 132 134 141 150 150 151 155 154 151 149 145 136 142 140 127 103 104 108 116 126 124 117 113 126 140 150 154 151 144 136 139 142 143 146 140 134 124 114 123 143 147 143 140 147 144 148 148 144 146 142 137 135 130 130 131 119 117 117 110 106 104 105 106 106 106 105 112 110 107 108 110 109 110 125 126 114 99 87 72 71 75 83 86 94 98 102 104 113 115 122 120 124 128 133 138 146 150 146 146 147 145 143 142 139 136 139 121 89 97 99 122 131 125 117 115 142 157 165 166 166 145 140 142 142 145 143 135 125 112 105 118 141 153 150 141 142 145 145 145 141 143 140 135 131 127 129 128 124 120 112 105 106 105 109 109 108 107 104 112 113 107 108 110 109 108 89 96 91 71 55 67 84 69 72 78 92 100 102 98 106 115 115 121 128 127 130 132 136 140 139 144 144 142 137 136 130 128 138 122 86 86 90 110 124 124 115 125 146 152 152 155 173 157 146 147 141 134 124 115 99 94 96 120 140 148 145 137 135 140 142 147 144 140 135 135 132 129 127 125 122 116 110 101 101 105 115 112 105 106 106 107 114 106 109 109 108 109 92 88 78 74 87 116 105 71 68 77 97 104 98 101 103 108 113 119 125 126 127 128 128 125 130 137 138 140 139 130 121 125 133 122 98 82 70 80 101 103 104 123 136 128 126 118 129 144 143 142 128 106 84 59 58 70 93 130 142 144 140 132 135 141 137 142 142 137 134 130 134 135 129 119 108 108 109 102 104 110 112 110 107 104 103 101 110 108 109 108 107 107 116 115 115 118 119 118 105 79 72 83 108 101 99 98 98 102 109 114 125 125 123 123 127 131 129 128 130 134 130 120 116 123 133 127 105 89 55 32 41 71 75 84 110 110 104 99 97 113 123 110 87 54 15 8 31 58 105 139 142 147 143 137 137 138 139 143 142 140 136 129 130 129 127 118 107 108 112 110 111 114 112 107 103 108 107 107 105 106 108 108 108 107 115 114 114 116 115 118 107 85 88 81 97 96 105 100 93 96 105 114 118 123 123 122 123 126 128 128 125 130 124 116 120 125 124 125 111 105 76 41 18 21 41 55 68 80 85 78 64 70 82 68 41 29 48 52 60 102 125 139 142 140 139 142 140 130 136 137 140 139 134 130 126 125 124 112 103 104 105 106 111 112 110 105 102 109 103 108 106 108 107 108 108 107 115 115 114 115 116 117 100 88 85 80 92 102 106 103 96 96 101 111 118 120 121 116 120 121 114 121 122 118 113 118 125 130 123 121 115 109 91 80 64 48 38 32 38 46 53 52 46 45 45 48 67 92 87 91 108 132 128 133 146 142 136 140 137 134 128 126 132 134 129 128 124 121 117 111 99 102 101 108 116 119 106 107 108 114 89 108 112 107 108 108 108 105 113 114 114 115 116 117 100 93 80 91 97 105 99 103 94 90 95 105 115 115 118 123 120 118 101 108 116 113 117 125 126 126 129 124 124 117 100 80 63 68 65 52 31 23 19 12 15 17 32 76 89 88 81 91 101 114 124 134 143 143 139 138 133 132 133 128 128 129 124 126 125 115 111 106 96 97 107 114 110 104 105 104 107 102 83 94 110 107 107 107 107 107 113 113 113 114 115 118 98 77 92 93 93 99 100 104 92 83 92 101 106 113 116 120 119 115 112 113 119 121 116 120 119 121 128 127 120 99 94 74 58 61 71 70 69 39 20 14 17 24 65 96 89 91 83 87 103 111 133 134 135 142 139 135 132 128 124 133 132 123 121 121 124 118 106 99 102 98 115 113 100 102 105 100 102 95 99 96 98 107 107 107 105 105 113 112 112 114 113 115 111 93 90 86 97 103 107 107 105 85 86 99 104 106 109 111 111 110 115 120 122 120 114 108 102 109 124 124 106 99 91 84 74 76 81 77 88 80 68 66 47 41 86 100 81 95 111 96 96 102 128 128 128 134 131 129 121 116 110 117 121 119 115 119 118 117 109 103 104 109 111 114 101 110 101 102 103 99 108 90 100 106 106 106 105 105 114 113 114 113 114 116 116 96 83 90 96 103 110 109 112 92 85 90 100 105 105 106 110 114 123 123 113 112 111 114 100 103 111 113 99 82 80 69 74 97 101 90 82 80 64 63 54 61 74 82 81 99 89 100 89 99 110 124 123 118 107 126 122 114 114 107 106 116 118 110 117 117 111 100 104 108 110 116 101 105 103 99 109 98 92 89 108 108 107 105 105 105 113 113 113 113 114 114 115 95 83 93 89 96 104 104 107 102 84 87 98 104 105 108 115 125 121 115 102 90 94 109 103 107 98 103 98 78 74 68 80 96 97 88 83 92 65 61 64 70 57 75 90 84 78 84 87 93 95 103 118 103 94 111 114 107 103 100 108 114 118 117 120 115 111 108 100 103 105 114 101 99 101 106 109 99 100 98 108 108 106 104 105 106 114 112 112 114 115 114 115 105 81 85 86 98 106 113 111 104 88 85 93 101 105 107 113 116 108 105 105 86 89 89 101 103 105 100 85 73 66 68 90 70 72 71 87 82 61 70 71 73 69 74 93 85 82 90 93 94 83 90 104 106 113 104 104 102 103 106 108 98 97 109 111 112 108 110 101 104 111 112 97 95 101 112 106 104 92 111 108 106 105 105 105 104 114 114 113 114 115 115 115 109 87 78 86 89 107 117 113 102 93 85 94 97 98 102 108 107 111 98 94 81 104 94 111 118 110 85 69 62 65 64 74 63 62 78 90 86 69 78 81 81 80 89 95 85 82 98 97 81 74 89 98 99 110 107 106 109 117 106 104 112 93 105 112 108 105 100 102 108 115 105 99 105 95 118 113 102 96 113 108 107 105 105 104 104 114 113 113 114 115 115 115 117 87 95 83 85 100 100 106 103 94 84 90 95 96 101 104 107 95 90 78 73 84 91 85 74 93 75 71 67 81 97 92 81 99 105 99 97 95 95 89 85 96 115 106 92 96 100 95 82 78 87 102 101 88 96 86 89 96 101 97 99 94 89 104 112 107 105 106 111 116 100 99 106 105 116 114 110 114 111 106 105 105 105 104 105 114 114 113 115 114 114 117 116 95 92 87 90 88 95 95 98 93 88 88 100 99 96 95 104 106 99 97 76 66 79 55 59 65 72 89 94 106 112 92 81 101 104 100 94 106 109 104 99 110 119 115 114 104 104 97 107 107 93 93 94 91 88 68 61 64 66 68 87 86 88 104 106 93 99 103 120 110 105 101 95 101 106 114 107 107 110 105 105 103 104 103 104 113 114 113 114 114 114 117 113 93 78 82 93 98 97 97 97 101 81 81 90 95 91 89 111 105 90 80 74 65 45 33 43 52 73 89 91 82 68 62 59 62 64 65 61 66 78 92 86 78 74 74 76 79 92 91 98 98 98 89 88 80 68 53 38 49 63 53 68 92 98 100 98 92 102 113 121 109 110 102 98 102 96 102 93 98 108 104 104 104 105 104 104 113 113 115 114 114 114 116 119 90 71 81 80 91 100 100 104 100 82 87 91 85 93 92 100 100 77 72 88 76 49 41 37 29 34 34 28 31 24 26 32 31 30 32 28 23 23 31 28 14 10 19 26 31 30 38 41 45 45 46 47 49 61 67 64 65 68 77 77 93 107 101 90 95 100 119 126 102 99 105 108 105 97 78 95 94 104 104 103 104 102 104 103 113 113 113 113 115 115 116 118 106 77 78 80 82 92 95 100 93 85 94 95 87 88 89 98 106 92 90 88 84 78 70 73 65 48 43 58 64 68 71 69 58 52 48 49 51 46 37 35 40 41 42 46 50 54 57 57 59 60 65 81 94 102 102 101 92 82 92 92 110 106 96 89 87 97 94 115 90 101 99 114 108 102 101 95 98 104 104 104 104 103 103 104 113 113 114 114 113 114 116 115 120 88 81 79 80 84 99 88 99 101 89 90 91 92 94 102 109 110 109 96 91 90 94 96 95 91 90 92 97 107 109 110 111 106 108 108 105 101 92 91 93 97 106 111 111 117 117 111 116 118 115 117 112 115 112 108 105 96 93 97 111 108 100 81 86 114 105 104 110 103 98 118 105 102 99 90 103 106 105 104 103 103 102 104 114 114 114 113 115 115 115 116 125 95 84 74 80 75 91 91 98 115 99 87 93 87 91 98 104 120 116 95 85 89 100 93 96 91 86 93 102 111 112 114 119 118 119 119 119 115 117 114 115 114 126 133 128 124 127 120 117 120 116 119 119 116 109 104 107 103 95 91 102 102 89 79 95 114 109 105 118 94 101 124 93 106 82 74 110 106 105 104 103 102 103 103 113 114 115 114 115 115 116 116 122 96 67 78 81 77 78 100 94 94 95 90 88 84 90 93 98 107 103 91 83 95 100 96 92 92 97 98 102 107 106 110 117 118 118 116 115 110 123 117 113 112 114 113 116 118 116 110 109 115 115 118 120 111 109 106 104 100 98 94 101 96 75 78 101 109 116 114 99 87 89 98 88 82 85 96 108 105 106 104 103 104 103 103 114 115 115 114 116 115 115 116 118 108 55 69 75 74 74 79 92 86 93 103 93 83 85 86 94 92 90 93 95 102 107 100 92 90 93 98 111 113 108 112 109 102 98 80 81 85 84 89 88 90 86 85 94 94 85 95 109 106 113 115 113 114 114 108 105 97 102 102 90 89 77 92 113 108 114 116 110 106 102 86 81 65 75 108 107 107 105 103 103 104 103 103 114 115 115 114 116 117 117 117 118 122 83 49 58 62 82 66 88 85 92 96 81 77 86 83 88 84 97 104 105 105 102 95 96 98 95 88 93 109 106 98 93 86 88 78 76 69 64 68 75 85 75 71 71 88 92 95 97 95 98 105 107 112 111 108 105 110 98 96 94 86 75 84 99 95 112 109 96 106 121 88 68 55 83 110 107 107 105 105 103 104 105 103 115 115 116 116 115 116 118 118 117 122 112 61 50 58 70 75 82 84 84 79 79 76 86 78 77 80 95 93 93 93 94 87 94 98 99 93 86 91 95 85 78 74 76 79 72 62 59 66 68 75 87 79 72 88 103 100 95 101 102 107 104 108 116 109 99 101 101 92 97 95 92 89 88 97 114 114 90 92 102 84 63 74 100 109 107 106 106 105 105 103 103 103 115 116 115 115 115 116 116 118 118 119 125 98 46 56 56 70 69 78 64 70 80 79 83 88 69 77 83 84 81 89 101 91 87 97 97 94 92 89 84 84 85 77 72 69 64 71 71 76 82 80 76 81 91 99 103 101 107 121 112 111 109 106 121 106 99 113 107 103 94 84 92 97 105 107 105 105 103 109 82 63 68 102 104 111 108 106 106 106 104 103 103 103 116 116 116 116 116 116 117 118 117 120 121 123 71 39 41 56 62 69 68 84 92 77 73 81 71 73 78 86 87 97 102 99 94 93 93 95 100 94 89 82 92 87 83 86 80 79 87 92 87 84 71 86 104 109 111 106 115 118 117 119 114 111 112 101 99 113 101 90 98 101 102 101 113 116 102 99 88 103 69 73 93 104 89 98 113 106 106 105 103 104 104 104 115 116 116 117 117 117 116 118 118 119 120 124 110 39 37 48 61 68 85 80 81 77 67 70 77 72 65 75 90 105 102 113 104 95 98 96 102 101 93 88 97 96 89 88 88 87 84 84 84 75 82 93 108 111 110 122 117 112 116 119 117 115 109 94 110 113 84 93 104 100 101 112 93 105 104 106 87 70 53 99 104 106 98 32 82 112 107 105 104 102 103 104 117 116 117 117 117 117 117 117 117 118 120 121 125 73 37 39 46 57 62 67 60 65 66 78 83 72 66 67 95 102 94 103 96 94 105 107 103 104 98 104 107 98 102 94 91 97 86 91 86 91 89 108 116 116 130 126 120 119 123 120 114 112 114 105 106 117 122 113 104 95 96 100 92 75 82 92 73 54 80 104 105 101 166 42 9 72 110 106 106 104 104 104 117 116 117 118 117 116 116 116 117 119 120 121 127 102 66 45 24 37 48 68 65 59 77 75 74 75 60 76 101 88 90 94 99 101 107 112 110 104 106 106 106 106 112 119 119 117 111 105 102 104 103 113 123 118 121 127 129 131 133 124 114 101 114 109 112 114 117 110 107 93 85 90 94 71 66 73 57 84 97 103 106 102 193 102 0 15 71 112 106 105 106 104 118 117 116 116 118 118 118 117 118 119 121 123 124 112 82 56 23 28 42 52 66 72 80 66 56 63 66 69 85 86 91 96 111 99 107 115 117 109 112 110 104 101 113 123 121 127 115 100 102 100 104 118 123 118 114 125 139 129 118 117 115 107 111 93 111 109 109 105 100 92 72 78 84 71 66 68 68 97 101 105 104 102 198 164 10 8 19 79 111 105 106 105 117 118 118 117 117 118 118 117 118 121 121 123 125 119 85 77 63 28 22 41 60 69 68 58 50 65 71 63 81 86 101 104 101 87 99 105 109 110 111 111 114 117 115 119 123 123 120 119 99 111 115 119 126 126 123 129 131 118 116 114 113 103 116 114 104 116 112 109 85 82 87 70 62 54 68 82 95 101 105 106 102 102 197 204 45 2 12 24 90 112 106 105 117 118 119 118 117 118 118 119 119 120 121 124 126 126 92 83 82 63 33 30 43 46 58 62 63 71 64 57 82 94 86 98 90 85 93 104 105 113 104 103 111 114 114 113 119 122 113 106 119 128 133 124 117 125 119 119 113 99 116 109 107 111 104 96 95 101 108 100 74 74 72 60 37 38 69 91 105 109 108 106 100 108 204 216 102 0 15 11 31 92 111 106 118 117 118 118 117 117 119 119 119 119 122 124 132 73 55 90 83 83 68 39 24 35 44 48 58 68 60 63 59 59 84 90 82 80 80 77 87 111 97 100 105 104 107 125 118 117 107 113 121 130 132 127 111 125 125 122 112 97 100 111 109 112 96 94 95 100 96 78 59 63 56 33 46 77 91 100 110 109 109 106 100 119 212 212 151 6 12 17 13 34 89 111 118 118 118 118 118 119 119 120 120 121 124 132 82 4 29 89 87 82 81 65 45 31 36 40 48 64 57 59 53 70 78 88 96 97 83 68 90 97 99 109 105 100 112 127 110 116 121 119 122 117 111 105 106 123 126 124 105 106 91 97 111 108 92 91 103 91 80 78 70 49 35 52 92 106 108 114 118 114 113 110 97 134 218 206 184 33 5 15 13 11 26 72 118 117 117 118 118 121 121 122 123 126 131 80 9 2 16 81 92 86 84 80 68 49 36 26 36 42 47 42 50 55 59 81 89 88 74 78 91 92 96 99 88 99 109 116 119 117 115 120 123 107 107 104 119 127 120 105 100 93 91 94 103 99 90 89 90 81 63 58 56 41 55 80 101 109 115 115 117 112 109 107 96 151 220 203 200 78 0 14 15 15 15 20 117 118 116 117 119 120 122 123 127 132 73 7 5 1 39 109 85 89 87 84 79 69 67 41 37 39 38 37 49 49 56 64 77 61 80 98 95 86 110 100 82 95 105 109 116 113 116 116 109 114 108 110 117 125 108 93 96 89 86 94 90 95 85 85 84 61 43 34 38 70 77 93 104 106 117 113 113 110 106 105 97 175 221 202 202 130 2 16 19 17 19 16 118 119 119 119 120 121 122 127 130 68 4 4 9 0 75 153 81 89 88 85 79 75 75 70 46 30 25 35 45 54 40 41 86 86 90 94 97 104 104 92 88 84 109 94 99 103 108 100 97 111 103 103 117 107 97 89 88 85 88 96 83 100 85 77 66 39 31 34 65 76 81 88 106 109 114 115 113 107 111 106 115 212 217 202 200 168 23 13 18 17 17 19 118 118 120 121 122 122 128 130 63 3 5 8 8 0 102 181 87 87 90 84 69 84 80 73 67 49 32 29 45 35 32 29 82 75 83 81 92 90 81 87 92 96 97 84 80 98 100 101 94 99 92 100 93 97 99 93 93 84 79 79 84 103 84 51 33 26 44 67 80 84 98 100 101 106 112 112 111 111 112 101 155 231 210 201 199 188 54 6 19 17 16 17 118 119 119 120 123 130 126 57 2 5 8 8 9 1 122 193 112 75 91 88 88 84 81 76 67 59 50 40 34 29 36 30 50 76 60 72 87 91 78 84 66 86 75 81 104 91 99 92 83 85 103 103 87 79 83 96 78 74 58 66 97 78 43 33 34 48 67 86 96 103 109 112 107 112 114 108 107 111 115 110 210 223 207 202 199 195 86 2 20 17 17 20 120 119 119 122 129 125 51 2 7 7 8 8 7 8 139 190 153 75 86 90 90 87 88 85 79 74 74 70 50 31 25 25 25 65 67 69 83 81 79 72 64 80 73 83 81 86 88 84 77 80 99 90 74 70 69 84 75 53 52 52 66 34 41 57 61 68 75 92 101 110 113 109 114 113 112 110 112 119 108 161 234 212 206 203 199 198 114 4 21 18 17 19 119 119 120 127 125 50 2 8 10 8 7 8 4 20 155 181 185 106 74 90 89 92 92 89 82 74 77 76 66 45 31 17 18 52 44 70 58 48 64 74 56 61 65 68 53 70 84 77 73 71 68 68 61 62 76 56 60 55 53 51 48 49 70 74 84 86 82 100 108 100 111 111 115 112 111 111 117 112 117 223 224 210 205 203 200 198 136 10 20 19 15 17 119 120 125 129 56 3 10 10 9 9 9 9 3 29 162 177 183 169 75 80 89 92 93 92 87 82 80 75 70 59 49 44 38 23 22 47 46 67 68 64 48 43 56 53 43 58 58 65 74 48 42 45 56 51 55 44 51 47 44 50 49 65 78 94 102 103 106 105 110 111 115 110 112 115 117 118 116 97 192 234 215 209 205 203 199 199 151 19 13 19 18 17 121 127 133 71 3 8 10 11 10 8 9 9 3 32 163 178 173 193 141 67 82 89 85 88 94 89 84 78 77 69 57 54 49 37 29 25 25 46 64 49 46 62 69 50 23 29 43 51 54 45 52 31 34 42 28 30 29 27 39 58 64 75 84 97 103 101 108 110 115 116 114 114 115 115 118 119 94 157 236 220 212 208 205 203 201 198 156 28 11 22 19 17 122 117 72 10 9 11 11 11 10 9 8 8 4 31 161 177 174 177 195 120 68 85 87 90 95 92 90 83 80 77 75 74 62 43 51 45 33 30 20 21 30 36 34 45 26 24 24 18 19 17 17 12 6 8 11 17 22 41 72 84 83 94 105 107 104 106 107 115 116 112 113 114 113 114 117 101 137 233 226 215 210 207 204 203 202 200 162 41 10 21 17 19 48 29 8 8 11 11 11 11 10 10 8 9 5 24 156 177 176 173 185 197 118 69 82 89 95 91 86 85 87 80 75 78 73 63 64 58 51 40 29 24 17 15 17 7 8 12 9 4 3 5 6 14 14 17 14 23 43 65 79 95 107 107 100 95 107 109 112 114 110 112 113 113 113 115 100 126 226 230 217 214 210 207 204 204 203 199 166 53 8 18 17 17 11 8 13 13 12 13 10 11 9 8 7 9 9 15 141 178 177 175 176 191 196 121 77 81 88 87 88 86 85 80 80 80 80 77 75 77 72 57 50 42 35 29 23 18 28 27 22 18 18 18 20 24 30 25 39 60 73 73 91 106 112 116 107 97 110 111 110 110 110 109 111 111 111 104 127 222 233 219 216 213 211 207 205 205 203 197 167 65 7 19 17 19
