P2
# Generated by OpenCV 4.2.0
92 112
255
148 147 105 72 102 106 101 104 96 96 97 109 112 114 126 109 70 97 101 53 54 48 74 61 63 63 47 109 120 123 128 136 139 137 122 105 57 40 44 30 22 23 26 32 27 33 48 39 32 37 78 101 48 23 49 48 48 61 57 30 30 28 28 33 37 42 45 66 94 103 78 97 102 87 77 93 94 107 123 99 129 159 135 137 170 168 173 159 178 191 161 208 141 136 76 92 111 107 111 110 95 110 101 102 110 118 108 87 99 90 39 34 34 39 70 54 62 75 103 118 120 126 122 128 111 87 65 51 44 48 39 36 34 32 26 31 34 31 29 39 38 30 32 55 77 58 39 51 54 57 72 45 41 33 29 36 40 41 47 66 77 79 86 107 124 114 102 102 103 128 101 63 118 160 147 139 160 166 184 166 168 188 182 209 143 125 93 106 104 116 132 94 108 107 93 111 124 117 100 103 96 42 34 32 30 52 58 50 84 102 97 110 129 128 112 81 65 58 58 56 51 48 46 41 43 40 36 34 38 36 32 29 38 37 28 25 42 61 53 43 54 63 64 53 46 41 37 42 44 44 51 64 87 84 93 108 129 130 119 114 129 133 114 89 125 150 155 147 158 157 185 180 155 179 198 219 143 144 124 112 109 117 107 93 94 66 112 129 105 109 110 95 51 47 37 36 39 60 56 87 97 68 97 126 128 112 73 67 73 70 64 56 66 68 62 58 51 43 37 41 43 47 43 38 32 40 41 39 35 43 49 53 60 66 63 59 44 47 47 45 50 53 64 76 94 105 114 121 122 130 135 141 149 147 138 115 128 145 162 125 146 154 176 196 156 157 188 221 143 132 135 122 119 116 102 94 50 83 122 94 105 117 105 71 37 38 32 34 39 64 78 84 68 88 124 126 113 78 72 78 78 79 85 85 80 77 71 67 58 55 49 45 51 56 60 63 54 46 51 53 54 53 58 62 69 63 67 70 57 54 55 54 63 76 86 94 106 130 129 141 146 155 158 163 162 159 152 134 138 150 153 99 135 151 171 190 181 175 176 198 134 117 144 134 114 104 91 64 66 118 103 110 132 117 77 46 37 39 33 35 48 86 88 70 97 117 126 110 86 76 92 105 97 96 99 108 101 90 85 79 73 68 71 67 75 80 77 72 65 61 57 67 71 72 77 86 83 72 73 74 76 72 67 76 83 91 100 109 128 146 155 163 169 171 174 173 174 174 166 150 144 140 122 111 121 135 156 180 174 186 174 186 111 116 146 132 89 79 76 69 104 118 106 125 131 85 60 35 37 42 33 41 70 94 78 100 116 118 113 97 88 103 117 112 111 116 119 117 112 103 96 94 96 93 91 90 88 72 59 60 67 71 66 70 83 87 90 103 95 93 98 91 88 97 105 105 100 109 121 133 146 163 173 176 179 184 184 183 182 183 170 159 147 140 113 78 98 123 136 176 168 181 180 176 91 139 150 108 80 71 79 94 114 98 101 125 98 72 54 29 41 38 38 53 92 89 98 109 118 113 103 100 116 126 126 111 124 137 135 125 119 112 111 108 110 101 97 87 80 80 76 68 67 70 69 72 79 100 103 111 118 121 131 131 126 124 129 137 140 144 152 157 162 169 179 186 191 192 190 189 190 186 177 172 153 154 114 61 62 119 112 167 176 171 185 168 102 137 128 93 87 80 95 109 110 95 101 108 89 82 40 42 42 35 45 78 104 101 115 123 112 104 102 123 137 134 123 123 144 148 146 137 134 130 127 119 103 105 100 99 104 97 92 82 84 85 88 93 97 106 121 128 132 135 146 151 156 153 156 158 159 170 174 175 180 186 191 192 194 194 192 192 195 191 186 184 164 160 115 77 43 95 116 145 174 169 183 173 126 128 115 91 90 94 107 110 105 110 102 91 95 64 47 43 34 43 61 99 114 119 126 114 103 104 124 142 142 135 124 143 152 152 148 143 139 134 120 93 106 124 111 125 133 117 115 118 123 121 121 121 123 128 135 146 150 151 160 163 165 169 171 171 173 177 182 186 191 196 199 199 199 198 196 197 199 195 191 188 176 162 126 78 59 79 113 137 170 166 186 176 113 132 106 87 100 114 107 93 93 96 82 82 78 51 47 37 45 59 88 107 120 125 122 110 102 120 145 146 141 137 137 157 156 149 146 138 135 120 91 112 142 136 124 135 145 143 141 148 148 146 149 147 144 145 153 157 164 167 169 171 171 174 175 174 177 184 186 190 195 200 202 204 207 205 201 201 204 199 194 195 185 171 148 94 67 79 89 119 168 158 181 187 104 131 104 96 118 107 88 87 100 94 78 83 68 50 43 39 54 74 102 119 136 126 116 100 117 139 143 144 145 134 146 151 143 142 143 146 132 101 122 145 148 141 138 141 150 161 161 159 160 160 159 157 158 156 160 163 168 173 176 176 178 180 181 182 183 187 189 193 200 201 204 206 207 208 207 206 206 204 204 201 194 181 160 109 64 68 91 106 151 151 162 189 105 124 113 117 112 86 74 109 113 88 68 77 64 53 39 50 70 90 109 134 135 127 98 106 133 149 150 146 134 126 138 149 154 153 150 122 109 136 151 150 152 147 148 150 158 163 165 163 164 164 165 163 164 162 167 169 171 177 175 180 181 183 182 184 186 188 193 195 201 203 206 209 210 212 213 211 216 212 209 206 202 190 166 128 75 55 83 88 136 161 159 180 122 119 118 123 105 81 95 112 90 59 62 72 58 43 59 67 87 108 128 144 139 123 98 147 138 152 158 156 138 154 163 160 158 152 123 115 146 157 154 153 153 153 157 157 162 163 166 164 164 167 167 166 167 167 170 173 175 178 181 183 184 186 184 187 187 190 195 198 201 204 206 210 213 216 216 217 222 220 215 213 208 194 169 138 92 54 70 89 120 161 157 169 130 128 112 114 90 76 93 97 67 59 67 60 54 59 69 84 113 132 141 143 144 117 132 160 145 153 164 155 150 168 170 171 158 125 122 152 155 153 152 153 158 159 164 162 162 165 166 167 168 170 167 168 171 173 171 173 175 178 181 184 185 187 188 187 189 192 196 199 204 207 208 210 213 219 222 223 222 219 219 218 214 199 180 152 110 72 60 86 111 155 163 159 139 128 112 90 85 74 96 88 66 61 42 57 63 63 92 114 124 129 131 144 142 123 151 165 150 149 168 149 158 175 174 155 132 140 158 157 156 156 155 157 162 165 165 167 166 169 168 169 169 172 173 175 176 174 173 173 176 178 181 183 188 190 190 189 193 194 195 198 200 205 210 213 213 218 226 225 225 222 223 221 216 203 184 169 122 79 71 75 99 152 169 148 135 126 103 96 82 74 100 84 57 40 49 50 59 90 112 115 116 126 140 152 151 150 161 168 161 150 167 151 166 171 138 131 156 162 158 159 159 158 158 163 167 167 169 170 167 168 170 169 170 174 177 178 178 177 176 177 179 182 182 184 189 193 191 192 194 195 196 197 201 203 207 212 213 215 223 227 231 227 225 223 217 205 191 168 150 97 59 58 84 139 169 144 128 116 97 98 87 102 94 51 36 44 48 46 79 98 95 100 120 139 146 153 161 163 166 168 170 157 162 164 160 138 140 168 170 162 160 163 162 161 161 167 167 168 169 170 171 169 170 173 175 177 179 181 181 178 178 178 179 181 182 186 186 188 188 191 193 194 194 196 197 202 205 207 214 217 223 222 228 227 227 225 217 204 192 182 154 136 85 53 69 129 168 149 121 113 99 105 106 106 62 32 39 45 38 67 95 96 95 113 134 145 155 165 164 166 167 165 172 169 157 154 141 154 177 172 164 164 164 165 163 166 167 167 167 167 168 170 174 172 172 176 177 179 178 180 181 182 182 183 184 183 187 189 189 188 192 194 192 194 196 193 196 200 203 206 209 217 220 218 222 220 219 222 218 207 191 181 168 137 115 81 58 112 163 147 126 117 103 110 108 93 42 42 50 40 62 95 88 90 108 136 138 148 160 159 160 168 170 170 174 174 140 141 164 175 172 169 168 167 167 166 167 169 169 170 171 169 171 174 175 172 174 177 179 179 178 180 180 180 181 182 183 184 185 185 187 190 191 192 196 196 197 196 197 197 200 202 205 213 220 218 219 220 215 213 213 208 198 186 164 149 127 100 75 102 156 140 122 120 112 112 111 74 32 47 61 48 101 94 93 107 132 135 138 145 152 161 165 166 169 173 175 154 153 176 177 171 171 168 166 165 167 169 171 169 170 171 172 171 172 175 175 172 175 174 178 179 179 178 177 180 181 180 181 185 185 188 186 188 191 191 191 192 193 193 193 194 197 201 205 205 210 213 214 212 212 214 211 203 195 188 176 142 128 113 82 97 152 151 115 122 112 96 109 64 35 52 42 85 96 86 105 132 129 127 137 149 153 155 160 167 172 171 166 174 183 174 176 175 172 169 167 164 167 166 165 167 167 167 169 169 171 173 176 177 179 178 174 175 178 177 176 178 181 182 182 183 185 187 187 186 189 190 188 188 190 189 192 193 193 196 199 199 204 209 213 211 207 209 208 203 196 183 175 160 127 121 96 88 137 152 120 123 102 91 110 60 41 50 67 92 86 101 122 125 115 127 137 137 144 153 163 172 176 174 180 183 182 181 173 174 174 173 173 173 171 170 169 170 168 169 172 173 173 174 177 177 179 179 179 178 176 178 180 178 179 183 182 181 180 184 184 184 185 189 188 188 187 187 187 190 193 192 193 197 199 201 204 208 208 207 204 200 199 190 174 166 151 115 102 92 113 152 126 133 93 107 116 57 45 52 96 86 99 115 129 113 114 126 123 134 143 154 167 173 176 180 181 181 181 180 177 173 173 174 172 170 170 169 168 167 169 170 170 172 173 172 173 175 176 178 178 176 178 177 181 179 177 178 180 181 182 181 183 184 185 185 186 189 189 190 188 187 189 190 188 191 195 195 198 201 205 208 206 201 195 186 178 167 159 144 98 92 104 148 110 127 79 104 112 54 50 64 91 87 113 125 116 104 117 110 124 138 150 155 160 165 174 177 181 182 181 180 179 176 176 177 176 176 175 173 171 171 171 172 172 172 175 174 173 177 177 178 177 174 178 180 179 173 175 176 177 179 182 185 186 185 183 185 187 189 189 190 189 187 186 184 186 190 194 195 198 201 204 208 208 202 194 181 171 168 170 152 129 90 94 138 100 122 82 97 119 62 55 83 90 105 118 114 102 110 111 125 135 143 144 147 155 165 174 178 181 181 178 179 179 177 178 179 178 178 176 174 173 175 174 173 175 177 178 176 176 175 178 180 179 177 177 179 182 181 179 175 173 175 179 183 186 185 181 181 184 187 188 188 190 190 190 188 183 183 187 193 198 202 204 207 207 204 196 181 167 149 162 171 132 124 110 129 105 117 86 92 125 72 55 87 97 113 119 102 103 109 122 133 133 135 136 146 157 170 178 179 181 181 179 179 177 177 178 179 178 176 176 175 173 174 175 175 177 179 176 176 177 176 178 180 180 179 179 180 179 180 183 183 184 183 183 188 186 186 187 189 189 193 194 195 193 195 197 197 193 193 195 198 201 202 203 206 205 202 200 186 176 162 143 159 166 127 127 143 103 115 89 86 123 83 51 97 117 122 116 95 108 112 121 125 127 134 145 149 160 172 178 178 179 180 179 179 179 179 180 181 182 182 180 178 178 179 177 176 177 176 175 176 178 180 183 185 184 179 178 179 180 179 182 183 182 185 188 192 193 195 194 196 197 194 198 197 193 191 194 195 194 196 197 201 203 205 204 205 203 202 194 181 170 164 162 152 163 157 131 140 93 97 92 85 117 88 61 117 118 117 106 105 103 106 114 116 120 131 144 148 159 172 179 179 180 180 180 180 178 178 180 179 182 181 180 178 179 180 181 183 181 179 180 182 184 184 184 188 188 187 187 187 189 187 186 185 187 187 187 189 190 192 190 193 196 195 194 196 200 199 200 200 200 199 201 202 202 201 201 201 202 201 192 178 155 128 120 135 157 161 164 157 101 76 78 98 107 83 78 124 114 117 98 91 95 104 110 103 105 122 141 161 170 175 179 180 182 179 178 180 180 179 180 182 183 183 182 183 183 181 182 182 183 182 182 183 183 186 185 186 188 188 188 190 189 188 189 189 188 189 189 191 195 192 193 194 197 200 200 199 201 204 206 208 210 207 208 209 206 201 199 199 198 200 196 185 156 108 94 93 109 135 148 179 117 77 71 91 92 97 86 117 121 116 90 95 104 95 89 103 123 143 155 169 176 177 177 178 181 178 178 181 180 179 182 183 183 185 185 185 186 184 184 183 183 185 184 184 184 186 186 187 190 191 190 191 190 190 188 187 189 190 190 191 195 194 194 196 196 198 201 202 199 204 210 211 214 212 215 216 214 206 201 198 200 203 201 189 159 83 64 70 82 117 107 146 118 77 71 87 99 100 106 127 128 106 102 100 82 80 91 114 143 159 166 174 177 179 180 181 180 179 180 182 181 181 183 183 185 185 187 187 186 185 185 184 185 186 185 185 184 184 185 184 188 191 192 193 192 192 191 190 189 191 190 190 194 194 194 195 196 197 197 197 200 205 209 212 213 215 219 221 219 215 209 204 204 204 202 193 170 95 55 47 64 100 113 136 127 73 66 78 100 98 108 136 127 101 94 73 75 88 110 142 161 167 173 177 177 180 181 181 180 182 181 181 183 184 186 186 187 187 188 189 187 185 183 182 182 182 182 183 183 183 184 185 186 189 191 194 196 192 192 193 188 187 190 189 194 194 195 197 192 192 194 197 201 206 209 213 216 216 219 223 224 219 216 216 213 207 202 198 180 111 70 61 62 91 132 153 124 73 72 69 95 102 118 140 123 95 73 77 84 101 129 156 166 172 176 178 177 180 181 182 181 183 183 184 186 188 189 189 187 187 188 189 189 188 186 184 185 185 180 179 181 182 183 183 184 186 190 192 194 190 192 191 187 182 187 189 190 191 186 188 192 191 195 199 202 206 206 208 211 213 216 222 229 232 223 226 227 216 204 199 185 127 68 68 71 96 135 165 115 76 80 69 97 114 122 132 120 89 79 83 88 114 147 164 170 173 176 180 179 179 181 182 182 185 185 186 188 188 187 188 189 187 189 188 187 186 186 185 186 185 183 183 183 180 179 179 182 182 184 187 189 189 187 188 189 178 183 186 186 185 186 189 196 196 192 195 197 197 204 207 208 212 215 219 225 233 236 229 229 225 211 200 190 149 96 71 81 103 146 166 100 77 88 70 94 121 121 134 111 90 85 77 89 123 158 169 173 176 178 181 180 179 182 184 185 186 186 189 188 184 181 180 181 183 183 186 184 184 183 184 184 183 182 183 180 179 178 179 178 179 181 182 181 183 184 184 187 172 174 180 183 184 182 184 188 190 189 193 197 195 199 203 203 206 207 210 217 224 235 236 227 231 226 206 196 163 129 110 89 116 156 168 93 87 101 76 97 123 136 128 111 94 80 82 105 142 165 173 176 178 180 181 179 180 183 185 184 185 184 179 173 168 168 167 167 168 165 169 174 176 176 178 180 181 178 180 173 172 173 176 177 175 175 173 172 176 179 182 185 173 167 171 174 174 171 174 182 182 185 187 191 194 193 192 193 193 195 193 200 206 212 228 228 225 224 213 201 182 148 143 132 129 155 172 111 101 115 86 96 134 137 116 110 87 90 108 130 149 165 176 179 179 181 181 178 180 184 182 178 172 166 160 155 151 151 153 149 143 142 143 143 149 153 154 159 166 168 169 167 163 164 166 171 170 170 166 162 170 175 179 181 173 162 167 166 163 162 163 169 172 172 166 163 165 164 174 176 176 176 175 183 190 191 196 211 214 211 217 210 196 172 159 163 152 153 166 117 118 125 96 96 151 138 129 106 103 111 131 136 150 169 177 180 182 182 180 179 181 182 176 169 166 158 151 147 141 137 137 137 139 137 126 120 113 110 113 120 124 135 145 150 154 151 155 161 161 166 164 159 165 169 175 175 164 153 162 159 157 155 156 150 146 135 126 127 117 124 135 149 156 163 161 161 166 180 184 188 196 197 211 214 206 186 174 168 175 165 175 127 127 126 108 104 143 148 139 112 114 128 131 143 163 175 179 183 183 182 182 182 181 176 165 157 154 149 147 145 139 133 129 124 123 110 96 94 87 83 82 87 98 113 115 126 132 138 143 148 155 160 158 156 163 169 170 172 158 141 152 146 142 138 134 126 112 103 106 95 89 94 95 105 122 141 146 143 149 167 172 173 180 186 207 218 211 188 188 187 176 186 181 144 127 128 114 114 146 152 130 124 131 134 142 156 168 176 179 182 183 183 184 182 175 170 162 152 150 148 152 151 148 142 133 122 115 107 98 91 87 88 91 95 101 109 110 114 118 127 132 135 141 150 149 153 168 172 168 167 157 134 141 138 129 118 116 110 104 104 100 85 73 72 76 81 89 100 105 119 130 142 148 152 166 182 203 218 216 195 180 190 192 184 186 150 145 146 112 115 146 151 135 137 138 146 145 161 173 179 179 183 183 183 184 181 172 163 157 155 158 161 169 163 158 157 148 143 141 138 135 130 124 117 114 109 108 109 114 118 121 121 128 131 133 141 140 149 162 167 171 167 161 136 133 135 129 118 113 111 102 97 93 92 95 100 105 110 113 114 122 132 143 147 145 154 159 170 203 217 217 200 193 189 185 188 183 171 165 150 123 130 147 146 142 142 157 147 152 162 175 180 181 182 184 185 182 179 169 161 163 171 174 178 176 175 169 158 145 132 118 103 92 86 88 85 84 83 91 101 103 108 116 124 128 128 133 138 134 147 160 168 170 170 162 137 121 124 123 118 110 103 95 89 84 79 77 82 92 111 126 136 147 160 173 176 177 169 161 169 194 216 217 201 194 207 195 186 187 171 171 156 140 147 146 151 142 157 160 152 151 165 176 180 182 184 183 183 181 178 169 168 170 174 177 178 169 144 105 80 67 68 54 53 52 81 52 52 65 73 60 70 93 97 101 111 121 126 130 130 139 158 167 170 171 172 166 146 126 120 119 111 102 91 75 65 57 36 45 51 51 52 63 62 73 100 134 170 200 189 171 179 194 218 218 205 196 206 204 191 196 169 173 173 154 150 144 154 148 159 167 151 152 163 174 180 183 184 184 182 182 179 170 166 173 177 172 141 99 68 52 76 104 82 60 44 45 72 68 112 94 84 92 78 81 96 101 107 118 125 131 136 149 164 171 172 178 181 171 157 141 132 125 110 100 90 78 80 59 48 46 43 67 61 92 126 92 70 78 93 150 198 190 183 197 217 219 207 193 202 208 203 223 167 169 147 131 146 155 153 152 160 157 161 155 160 175 180 183 185 185 183 182 174 171 170 168 170 142 97 94 125 127 121 122 97 63 58 61 56 87 153 133 83 74 85 91 95 99 108 119 130 137 147 157 169 177 178 183 185 180 167 148 143 132 115 112 87 73 96 92 60 58 49 53 45 113 147 122 131 139 123 112 171 187 184 200 217 219 211 190 196 206 212 236 160 153 119 110 144 158 158 149 163 159 151 155 167 179 179 182 184 185 182 180 178 173 168 164 149 131 120 141 170 170 159 152 150 137 114 103 111 140 143 138 128 98 81 74 101 113 123 132 139 145 150 162 176 184 182 185 188 189 173 154 149 140 145 102 75 100 119 123 110 111 107 112 129 146 147 152 169 177 152 141 157 181 193 203 211 218 214 192 192 203 211 236 152 151 133 116 141 159 161 150 169 157 149 158 169 176 181 184 187 184 183 180 180 180 174 167 159 158 162 166 169 172 167 165 161 153 142 141 137 133 133 139 141 136 126 95 101 142 142 151 149 151 153 165 179 187 188 192 195 192 179 159 152 154 141 97 120 123 120 121 125 128 131 138 146 159 163 170 172 179 182 178 180 185 192 203 212 218 216 196 194 197 212 241 143 148 138 128 152 164 165 160 175 159 153 160 170 176 183 187 187 185 184 185 182 179 178 177 177 174 170 167 167 162 161 161 161 157 153 147 147 143 139 131 121 125 138 145 148 152 155 157 154 154 158 169 182 188 191 194 196 196 186 167 157 161 151 151 146 129 115 117 130 138 145 150 155 160 158 151 164 189 191 193 195 192 196 207 213 217 218 198 186 195 212 243 138 140 131 136 154 172 169 161 180 160 154 158 172 180 184 185 187 186 184 183 181 178 177 180 180 177 176 171 156 144 147 141 140 137 135 137 134 126 116 108 110 124 136 143 147 153 157 158 157 159 162 171 188 193 193 194 198 201 196 178 160 156 152 150 137 124 105 106 116 122 128 131 135 137 142 151 162 186 205 201 201 200 199 210 217 218 219 204 185 198 207 241 130 138 136 139 154 180 173 168 184 170 154 165 176 181 185 188 186 184 184 183 183 182 182 184 185 183 173 160 155 162 148 126 123 119 114 111 108 109 108 113 126 135 135 138 140 151 164 162 160 164 165 177 192 196 196 197 199 203 203 192 169 163 148 140 140 134 126 114 104 101 102 109 115 123 135 156 173 170 181 204 210 205 204 209 213 218 219 206 190 199 216 238 119 140 146 147 162 184 186 179 185 171 151 168 180 185 186 188 187 185 185 185 183 181 183 182 178 177 179 182 180 167 154 147 142 137 131 129 131 135 137 140 144 142 143 150 159 165 169 167 166 167 169 188 195 193 198 198 200 203 206 205 185 169 168 153 148 146 147 148 145 140 133 130 130 135 144 151 164 188 192 188 200 206 206 209 211 214 219 206 190 189 231 242 116 133 148 159 177 185 186 183 181 165 151 171 182 185 185 188 187 185 183 182 182 180 181 177 181 185 181 172 168 169 167 161 161 160 158 158 159 157 154 154 154 155 160 170 173 172 172 171 171 169 180 193 191 192 196 199 198 203 205 211 208 178 177 174 167 158 155 155 157 159 158 160 166 170 173 173 171 170 188 201 196 202 210 211 209 213 221 209 181 195 239 244 115 123 144 166 176 186 186 191 178 170 153 174 181 185 186 187 185 183 184 183 182 179 181 183 182 176 168 172 179 173 167 167 167 167 166 165 161 159 162 161 163 167 175 177 176 176 171 171 173 173 182 190 192 194 196 199 199 201 203 207 205 184 179 181 180 176 169 167 164 167 168 172 178 182 184 184 184 182 181 193 200 205 210 211 209 214 220 209 178 208 244 242 132 115 131 162 173 188 188 189 176 176 163 176 183 185 188 187 183 183 185 181 181 181 184 184 174 169 177 179 175 170 170 170 171 171 167 166 165 163 163 166 170 175 177 178 177 173 170 173 175 180 182 185 193 194 198 201 201 201 204 203 188 183 181 183 182 183 181 175 170 169 173 177 178 184 184 187 187 189 187 189 200 207 209 211 209 214 217 213 186 213 242 240 159 146 145 163 170 188 188 190 180 162 168 180 180 185 189 188 184 183 181 182 184 179 179 177 176 180 179 177 175 175 173 173 174 172 170 168 169 173 170 169 177 178 174 176 177 171 171 174 176 180 181 182 190 192 195 203 204 203 205 202 191 189 183 183 173 182 184 184 180 173 173 178 182 184 186 186 188 191 194 193 196 201 208 209 207 208 217 213 197 225 238 238 160 180 186 162 146 182 187 186 178 155 170 179 174 186 189 187 185 183 183 182 182 181 179 178 184 181 180 181 180 181 180 178 178 177 178 175 177 179 178 176 179 177 176 178 174 172 174 177 180 177 180 180 189 193 193 201 205 208 208 207 199 196 187 186 181 184 176 177 188 183 181 181 183 181 187 189 190 190 192 198 199 197 208 207 205 206 216 213 200 219 234 236 174 189 194 168 140 178 186 182 176 161 166 173 176 183 187 185 183 182 183 183 181 181 182 182 184 181 180 182 182 183 185 182 182 183 183 180 181 182 180 179 176 179 180 176 173 173 174 179 180 179 181 182 186 190 195 201 204 210 216 215 206 199 190 190 191 187 172 163 188 189 188 190 188 186 186 188 193 193 193 199 202 198 205 206 203 203 215 207 209 223 228 233 190 192 191 191 182 182 175 178 175 157 165 180 183 180 186 185 184 184 182 182 183 183 183 184 183 183 184 186 186 185 185 186 184 185 184 184 184 182 181 180 178 181 179 177 176 177 177 178 179 181 180 180 185 189 191 199 202 210 218 223 214 206 195 192 194 189 185 182 190 190 190 192 193 191 192 187 189 193 192 194 198 200 200 204 203 200 214 205 209 232 232 227 192 189 187 190 191 177 164 176 177 164 170 178 183 178 186 184 185 185 186 184 182 182 185 184 185 187 187 188 189 186 186 187 186 185 185 186 184 184 182 182 182 184 183 183 181 178 179 180 179 180 179 182 186 191 192 195 198 205 213 228 226 210 203 197 199 196 190 188 191 189 190 191 192 196 194 193 189 190 192 193 195 197 198 198 201 199 210 217 225 225 239 224 188 189 186 183 180 169 161 176 181 168 167 175 180 179 184 186 184 184 185 183 181 182 188 188 189 189 188 188 188 187 188 188 186 185 185 185 186 186 186 185 184 183 178 170 168 173 177 178 179 179 184 183 184 191 190 193 196 202 208 219 234 228 211 201 204 202 194 191 191 192 190 190 192 195 196 197 196 197 196 193 193 195 199 199 201 199 211 211 216 216 238 220 187 186 184 181 175 167 160 175 185 172 173 174 181 177 181 186 184 182 183 183 181 183 188 190 189 189 189 189 189 188 188 188 186 187 186 186 185 184 185 183 179 172 161 157 165 173 177 179 182 182 182 184 187 189 188 191 194 199 202 207 223 237 226 200 203 207 201 195 195 193 193 191 192 195 198 199 199 200 200 197 195 194 193 196 197 198 210 197 201 210 231 211 183 184 182 177 171 167 155 167 185 175 180 173 180 180 177 182 182 182 181 179 182 186 188 187 188 187 186 186 187 186 187 188 185 184 184 183 182 180 178 174 167 160 162 174 174 175 178 180 184 185 183 182 185 189 189 190 196 199 200 202 204 218 228 206 185 200 202 196 196 193 191 191 193 194 198 200 202 202 205 201 194 192 189 190 192 199 206 188 196 206 224 198 179 173 170 167 161 156 145 159 186 179 177 179 179 180 177 182 181 178 177 177 183 186 186 185 186 185 186 186 184 186 185 184 185 182 181 179 176 174 171 166 159 161 175 173 176 177 178 178 183 186 182 184 185 187 190 195 195 198 200 198 198 200 212 214 178 182 193 195 196 194 189 189 190 193 194 197 200 202 203 202 198 193 189 186 189 198 201 186 191 199 214 183 235 210 183 168 164 156 146 151 187 182 180 183 179 174 176 181 182 178 175 179 182 181 185 185 185 183 184 185 183 184 183 181 179 177 176 173 170 165 159 156 154 166 174 174 177 179 180 181 182 182 181 183 185 185 187 194 197 200 197 196 193 191 202 220 191 163 176 188 191 193 189 189 189 192 193 195 199 202 204 203 200 192 190 183 185 201 190 168 176 194 196 165 250 251 224 198 222 170 142 138 181 186 184 184 182 171 167 180 181 179 179 182 183 181 183 185 184 182 182 182 181 179 180 177 173 170 169 165 162 159 152 152 155 159 165 174 178 180 182 184 182 182 181 181 184 186 191 194 201 210 214 202 197 198 203 225 215 171 164 175 186 190 188 186 187 188 192 190 192 196 200 202 201 195 192 186 186 203 185 174 197 199 168 162 247 247 214 204 231 187 148 134 175 190 181 187 187 170 170 181 182 178 180 181 182 180 180 182 181 180 180 178 175 172 170 174 171 166 165 159 156 149 147 155 155 146 152 171 178 179 182 186 186 184 182 183 182 187 193 195 200 211 230 222 211 211 214 221 219 188 166 163 173 182 184 183 185 187 188 190 194 194 196 198 199 197 192 185 189 207 200 237 246 198 165 163 248 248 213 217 232 199 157 141 164 194 183 185 186 178 179 178 178 179 180 177 178 178 179 179 180 177 175 170 169 170 167 165 164 163 160 157 149 139 149 159 163 152 143 167 174 176 181 185 186 185 184 181 184 194 194 192 194 201 215 234 231 224 215 208 207 193 180 167 165 174 178 181 182 183 185 185 187 189 192 197 196 199 191 185 187 206 203 241 248 208 163 162 249 245 236 240 239 200 155 144 162 191 185 187 183 184 174 174 184 182 176 174 177 177 178 178 176 173 169 167 167 167 167 162 158 159 156 144 132 139 160 170 171 170 150 147 170 173 178 183 183 185 184 182 189 188 183 179 186 196 200 223 237 221 202 196 193 187 188 180 163 165 174 178 178 179 181 184 184 183 190 194 195 201 193 188 190 205 203 242 250 220 168 162 248 248 247 247 245 214 168 135 153 187 182 189 187 183 174 178 184 181 172 173 176 177 174 176 174 170 167 163 162 163 164 158 156 149 140 129 136 158 171 174 176 171 160 136 144 151 150 163 180 179 180 183 180 169 164 164 166 175 193 210 218 201 186 175 180 184 187 187 171 159 167 174 178 179 181 182 184 180 182 186 194 199 192 188 192 206 204 243 250 231 176 162 249 249 249 249 244 230 191 147 147 182 181 189 190 181 175 182 185 178 165 167 174 174 174 173 170 166 165 161 159 159 156 143 144 135 128 138 158 172 174 173 169 166 169 162 133 112 78 62 113 166 173 168 157 150 146 144 143 154 171 190 197 178 140 141 176 187 190 189 181 165 167 168 176 180 182 177 180 182 180 181 186 197 189 190 198 206 205 244 251 239 185 162 249 248 248 250 243 239 214 155 139 188 189 194 187 180 179 183 184 175 160 168 168 170 174 170 165 163 160 155 160 159 157 149 137 135 145 162 169 171 171 173 170 164 169 165 149 138 121 91 79 96 138 160 152 137 132 130 127 133 149 168 144 82 94 156 186 189 193 191 187 174 163 168 176 180 183 179 176 179 182 177 183 194 192 190 198 206 210 245 250 244 197 161 249 249 249 250 245 244 225 168 136 186 190 188 182 178 183 185 180 167 159 165 161 167 172 167 163 159 154 157 161 160 159 148 134 140 156 162 166 167 162 167 166 163 167 164 152 136 119 112 103 90 80 105 140 130 122 120 118 120 134 137 92 92 156 186 186 192 192 193 188 183 167 161 165 173 177 180 177 174 182 174 173 193 193 187 200 202 217 247 249 247 210 165 248 249 249 248 246 249 236 182 132 189 192 189 181 175 185 182 169 169 164 161 163 166 169 165 163 154 157 167 168 165 154 134 132 150 157 156 157 155 153 163 167 166 160 161 150 136 122 109 122 118 99 68 65 91 86 95 99 101 111 107 125 142 175 177 177 188 193 193 192 189 182 164 154 160 168 175 178 170 179 172 163 185 189 186 201 228 242 248 248 248 234 208 249 248 249 248 248 247 242 198 131 189 197 193 177 175 187 177 166 173 168 163 158 166 168 163 162 158 166 170 170 156 134 132 146 143 144 146 143 146 148 153 158 154 146 142 139 141 125 102 124 125 124 90 70 52 46 57 87 103 109 111 119 136 163 172 178 184 187 190 191 187 185 182 167 159 163 172 181 176 177 168 160 182 187 192 201 238 251 249 249 248 248 245 248 248 248 249 249 249 249 197 137 179 198 194 186 180 188 180 169 171 168 162 153 163 165 163 163 161 167 172 161 130 106 131 141 141 138 146 151 144 138 152 144 151 144 124 143 122 120 120 130 116 122 93 90 86 68 71 104 136 111 130 139 150 170 184 181 178 180 184 187 178 171 165 174 164 162 171 182 183 179 157 157 182 188 193 198 241 250 249 249 249 249 249 248 248 249 249 249 250 245 195 137 181 204 198 193 188 182 178 170 166 164 162 149 161 165 157 161 159 168 170 149 111 114 145 150 155 145 144 137 138 156 149 145 155 139 129 135 132 124 140 138 139 120 110 93 101 89 93 121 139 128 130 137 152 160 178 181 174 170 173 169 170 162 154 167 175 172 171 184 189 180 154 165 182 189 192 197 245 250 249 249 249 249 249 249 249 248 248 249 248 244 202 156 185 203 202 191 184 182 178 168 167 164 156 151 165 159 152 158 162 165 165 147 120 129 139 141 138 158 139 129 139 146 133 135 138 131 114 122 141 123 118 114 135 120 125 116 92 98 116 101 109 126 141 139 140 144 159 167 177 167 165 164 153 154 148 162 180 175 177 188 192 169 148 169 182 183 184 201 246 250 249 249 249 249 249 249 249 249 249 249 248 246 212 182 186 210 197 189 178 169 173 163 163 162 156 156 164 154 144 155 155 150 162 153 144 147 127 98 97 124 123 127 125 132 136 126 123 120 116 121 128 119 99 109 123 116 112 105 96 105 105 109 95 117 138 135 133 141 151 163 172 167 168 162 142 145 152 153 173 159 168 188 196 158 147 167 179 178 171 211 247 250 249 248 249 249 249 249 248 248 249 248 249 244 224 196 179 209 196 192 181 161 165 167 170 165 158 156 157 154 146 150 153 156 165 152 130 123 113 84 65 76 86 107 124 129 138 144 146 136 149 139 144 144 123 128 131 134 111 109 105 104 104 110 108 118 133 139 136 143 154 148 154 163 158 151 138 142 146 148 162 149 163 184 190 155 159 165 177 182 183 217 250 249 249 249 249 249 249 249 248 249 249 248 248 245 238 204 171 203 200 189 188 174 164 171 174 170 161 149 145 156 153 147 153 152 161 153 130 123 117 99 83 80 66 63 66 101 128 149 151 153 151 145 144 149 147 139 143 138 127 128 116 109 114 122 130 139 124 123 133 146 142 142 151 158 153 149 131 120 116 124 135 130 157 183 168 151 165 163 178 186 194 226 251 249 249 249 249 249 249 249 249 249 248 249 249 247 240 190 176 200 207 189 184 175 168 163 167 166 166 153 145 153 149 148 148 149 159 162 149 136 124 120 111 111 111 111 82 47 38 75 95 111 111 109 113 114 113 115 117 122 125 138 137 118 124 134 138 135 136 139 141 143 147 146 147 147 140 128 84 84 89 89 113 138 163 177 149 151 163 168 177 189 205 240 252 249 249 249 249 249 249 251 249 249 249 249 249 249 231 186 181 202 206 188 174 169 173 163 163 164 161 166 152 141 139 149 148 147 159 165 158 143 136 129 118 118 137 144 144 123 86 67 56 83 79 75 73 77 85 87 88 84 92 99 112 115 110 108 111 111 127 133 137 135 147 147 136 126 114 94 63 63 76 82 114 146 167 174 149 156 156 173 177 183 217 247 251 249 249 249 249 249 249 249 249 249 249 248 250 248 234 201 192 193 196 181 168 176 173 163 169 152 154 164 155 146 134 151 153 148 159 153 152 147 144 133 120 120 136 150 150 154 148 134 127 126 121 117 104 91 92 71 86 96 87 81 72 66 66 60 60 63 68 76 86 93 96 103 106 114 131 128 108 102 103 98 128 151 168 160 151 163 158 176 173 180 222 252 249 249 249 249 249 249 249 249 249 249 248 249 248 249 244 216 209 191 190 170 169 182 171 153 164 149 154 163 158 153 136 148 161 143 152 156 154 149 137 130 130 135 136 146 152 157 159 157 153 157 161 158 154 145 131 113 115 122 114 105 87 75 81 74 66 59 67 80 92 104 110 120 142 157 158 157 132 117 117 112 138 164 163 144 156 165 164 172 177 186 232 251 249 249 249 249 249 249 249 248 249 249 249 249 249 249 249 237 228 192 179 176 169 181 164 150 154 145 153 154 161 153 144 147 139 145 140 144 152 143 132 130 133 139 141 147 153 154 158 157 162 162 161 164 162 162 160 157 147 142 141 132 126 123 123 128 134 139 147 158 163 164 171 174 174 169 166 156 139 126 130 137 146 161 154 138 153 161 160 169 182 201 248 249 249 249 249 249 249 249 249 249 249 249 249 248 249 249 248 243 239 195 169 159 173 177 170 159 154 149 154 150 163 150 148 145 124 138 136 143 148 143 131 130 136 137 141 149 152 154 158 162 162 159 159 161 157 157 161 163 161 160 158 155 155 153 155 158 165 172 175 174 175 177 179 176 173 172 164 158 146 132 138 148 155 168 156 142 158 159 156 167 187 221 251 249 249 249 249 249 249 249 249 249 249 249 249 249 248 249 248 246 243 201 174 171 168 164 168 169 151 155 151 157 151 148 155 143 139 138 142 122 141 135 130 127 131 124 131 145 147 156 156 155 159 162 168 158 154 156 156 152 152 147 149 149 154 156 156 157 156 162 163 172 173 170 169 172 176 168 165 163 147 135 132 148 157 169 162 154 158 166 157 178 197 241 251 249 249 249 249 249 249 249 249 249 249 248 249 249 248 249 248 248 248 204 182 178 149 163 174 168 153 153 157 156 137 136 148 142 137 134 137 123 128 126 131 124 128 130 139 147 153 158 157 154 151 156 163 152 152 152 141 137 134 131 127 128 124 127 123 123 139 146 152 152 155 155 160 166 166 167 165 159 149 144 137 154 158 153 163 161 163 178 169 176 208 248 250 249 248 249 249 249 249 249 249 249 248 249 249 249 249 248 249 249 252 205 184 178 148 154 176 163 148 162 163 154 143 142 149 150 136 131 125 128 128 133 137 127 132 137 147 155 154 155 152 153 150 152 146 136 141 128 118 117 117 113 114 113 109 110 125 124 130 131 143 134 134 144 151 159 162 172 168 159 154 144 145 150 152 157 160 163 168 178 174 180 232 247 249 249 249 249 249 249 249 249 249 249 249 249 249 248 250 249 250 250 232 197 184 185 175 146 157 168 166 162 149 157 155 148 155 145 143 130 118 133 128 139 132 139 145 142 150 147 146 151 151 158 156 153 139 126 123 128 119 111 111 106 110 112 105 108 118 142 136 133 131 140 140 150 158 160 163 171 171 165 155 147 150 160 154 154 155 171 164 173 177 211 246 250 248 249 249 249 249 249 249 249 249 249 249 249 249 249 248 250 252 235 208 193 185 181 179 165 139 148 169 154 144 149 150 155 139 133 133 123 122 131 130 140 136 147 143 152 163 154 151 141 148 157 162 153 146 134 126 130 122 112 103 112 119 121 106 117 126 110 113 127 129 140 150 163 171 168 170 172 168 154 164 168 157 167 163 156 159 167 159 178 202 238 251 249 248 249 249 248 249 249 249 249 249 249 249 249 249 249 249 251 238 216 203 189 185 181 177 167 145 122 140 172 158 137 152 158 149 150 142 133 123 123 128 140 148 151 145 153 153 150 154 145 154 162 157 152 147 140 131 128 127 123 100 109 116 133 119 118 116 118 113 116 139 153 155 171 177 175 178 175 161 143 151 152 161 175 163 162 175 168 171 193 234 247 250 248 249 249 249 249 249 249 249 249 249 249 249 249 249 249 251 240 218 213 197 181 186 181 179 177 171 156 142 162 131 139 161 141 157 164 152 124 121 116 134 146 136 139 149 161 162 150 152 147 160 168 163 159 152 150 142 143 134 128 120 119 113 112 119 123 106 113 121 130 150 157 169 170 172 175 178 169 164 166 176 160 166 169 169 162 171 172 183 227 251 250 249 248 249 249 249 249 249 249 249 249 249 249 249 249 249 250 242 221 214 211 193 176 187 183 180 174 170 164 148 138 113 145 151 144 153 155 150 139 133 128 141 145 138 140 153 163 153 153 152 155 160 167 166 159 161 158 153 154 150 144 137 131 124 116 110 129 121 118 131 142 156 163 174 178 177 175 176 163 161 170 175 182 170 159 164 151 152 176 218 252 249 249 248 249 249 249 248 249 249 249 249 249 249 250 249 249 250 244 223 215 212 209 193 169 187 181 177 174 167 165 158 136 131 138 125 144 147 142 147 154 142 138 140 134 133 154 149 152 142 141 143 153 150 155 160 157 158 163 162 162 156 155 154 151 147 128 127 130 137 140 148 160 162 173 173 177 184 183 175 164 165 171 186 178 172 168 158 157 158 205 249 250 249 249 249 249 249 249 249 249 249 249 249 249 249 248 249 250 248 227 216 212 210 209 195 166 185 183 179 177 171 159 157 148 137 127 117 145 155 148 147 150 133 144 152 144 145 139 128 158 147 132 141 155 150 158 156 153 154 160 160 159 153 157 150 155 149 143 132 132 142 145 162 169 164 172 181 180 180 181 180 169 171 168 176 180 173 167 163 168 209 243 249 249 249 249 249 249 249 248 248 249 249 249 249 249 248 249 250 248 230 217 214 211 211 208 198 171 183 183 177 175 171 167 160 146 142 134 124 130 131 147 147 146 148 157 155 149 152 137 139 143 132 143 146 154 142 149 153 155 164 163 159 165 159 156 155 155 153 143 139 144 149 150 164 172 170 174 189 185 170 170 179 176 166 184 176 179 181 159 160 208 243 250 249 249 248 249 249 249 249 248 249 249 249 249 249 249 249 251 247 230 217 214 211 210 210 208 202 176 180 183 178 173 174 169 160 149 136 135 142 138 117 133 129 134 142 146 141 137 138 129 128 136 140 146 147 151 146 135 141 154 162 151 156 150 157 157 161 158 159 141 145 150 158 158 163 176 175 175 177 172 169 164 169 178 173 168 173 173 158 146 196 240 251 249 249 248 248 249 249 249 249 249 249 249 249 249 249 249 249 246 230 218 214 210 208 209 210 210 205 181 180 183 180 176 174 165 157 153 148 153 151 141 129 135 116 131 138 131 130 128 136 135 133 138 159 151 145 139 133 128 140 160 153 158 161 158 166 155 161 160 154 148 146 145 151 166 177 173 168 171 166 169 169 171 172 175 162 154 160 164 155 197 244 250 250 249 249 249 249 249 248 249 249 248 249 249 249 249 249 249 249 228 219 212 209 207 208 209 210 209 208 187 176 181 179 178 174 166 157 146 136 146 143 142 137 131 110 121 124 127 133 137 133 147 134 130 144 136 140 148 151 152 144 160 166 175 168 157 155 155 161 156 160 150 144 145 136 158 165 151 158 170 169 173 173 175 170 173 157 158 151 163 182 236 249 249 249 249 249 248 248 249 249 249 248 248 249 248 249 249 248 249 249 217 210 207 207 209 210 210 210 209 209 192 176 179 180 177 174 167 157 154 155 153 138 145 136 122 134 119 115 111 134 136 124 128 128 137 129 147 146 146 156 152 156 176 179 162 163 149 143 150 157 150 176 156 148 149 145 145 149 147 158 168 163 164 162 170 158 156 148 161 147 178 188 213 245 250 249 248 249 249 249 249 248 249 249 248 249 249 249 249 248 249 249 210 207 207 210 210 210 209 210 209 210 199 178 179 179 176 175 170 164 162 161 158 152 145 136 131 137 133 121 113 118 131 135 121 130 99 115 152 141 145 152 144 162 162 170 152 144 144 153 152 149 150 160 158 153 149 150 141 142 145 154 148 151 153 159 173 169 162 153 135 164 196 153 179 239 249 249 249 249 249 249 249 249 249 249 249 249 249 249 249 249 249 249 209 207 207 209 210 209 209 210 210 210 204 182 176 179 175 173 171 168 164 161 157 150 147 148 138 139 140 128 125 116 119 130 110 121 119 125 148 168 162 149 156 162 158 162 132 144 154 162 142 140 138 131 143 132 143 145 136 143 153 144 145 155 150 157 154 177 165 146 160 182 190 97 134 215 248 249 251 249 249 249 249 249 249 249 249 249 249 249 249 249 249 248 209 207 207 209 210 210 209 210 210 209 205 189 174 176 173 171 170 169 166 162 157 144 141 145 143 134 132 133 127 133 126 105 93 108 128 122 137 157 150 157 160 165 164 146 137 128 143 152 129 132 135 122 133 138 123 132 126 133 143 144 146 135 130 160 155 170 162 171 175 193 168 44 90 175 239 250 250 250 249 249 249 250 249 249 249 248 250 249 249 249 249 249 208 206 207 209 210 210 209 209 210 210 208 196 175 172 171 168 168 167 165 162 160 154 149 144 142 137 135 136 134 134 128 123 111 98 109 115 110 144 145 157 154 143 132 151 145 129 134 140 135 143 141 129 134 138 129 113 135 119 133 141 139 122 134 132 164 158 154 177 180 197 139 44 54 137 215 249 250 251 250 248 249 250 250 249 249 249 250 249 249 249 249 249 207 207 207 209 209 211 209 208 210 209 208 202 183 169 171 170 168 168 163 161 160 158 155 146 140 142 139 130 136 138 119 117 129 121 113 107 101 117 132 146 149 151 115 147 127 132 138 134 122 120 126 120 117 115 121 112 128 126 94 137 138 121 129 116 149 162 171 180 183 191 109 70 40 96 179 239 250 250 250 249 248 249 249 248 249 249 249 249 249 249 249 249 207 207 208 209 210 210 209 209 209 209 209 204 194 170 170 169 168 166 163 161 157 158 158 153 146 137 139 134 133 134 130 128 121 121 126 115 106 109 99 122 128 146 149 144 121 120 127 121 104 96 104 121 115 106 102 105 109 115 98 92 122 120 105 153 163 165 177 179 189 169 74 86 59 56 142 216 249 251 250 251 249 247 248 248 248 248 248 249 251 249 249 249 206 207 208 208 210 210 211 210 210 209 208 206 200 180 165 168 169 165 163 160 156 153 154 153 150 146 133 127 125 123 124 127 130 121 121 120 122 118 113 112 98 98 121 144 143 118 114 109 98 103 95 131 124 99 97 111 114 110 111 107 117 135 151 176 173 171 172 181 197 123 33 84 87 46 96 184 241 250 250 249 251 248 248 248 248 248 248 248 248 249 250 250 206 207 207 208 210 210 209 210 209 209 209 206 201 192 166 165 168 165 163 161 158 152 148 147 150 148 142 126 120 121 120 126 136 129 124 129 125 117 119 118 113 98 90 102 104 124 127 138 129 113 95 119 116 111 111 88 109 115 126 169 173 175 180 175 172 171 174 184 194 86 21 68 98 71 52 140 223 250 250 249 250 250 249 247 248 248 248 248 248 248 248 249 205 206 207 208 209 210 211 210 210 207 208 207 202 197 180 158 165 164 165 162 160 157 150 147 144 143 143 138 127 126 130 132 133 138 126 125 128 124 120 119 106 98 94 95 101 104 119 134 107 93 93 95 102 106 114 108 122 166 174 180 182 185 176 174 170 174 179 188 179 62 28 51 92 98 53 91 198 245 250 249 249 249 249 247 247 248 248 248 248 248 248 248 206 206 208 208 209 209 211 209 208 208 208 208 204 198 192 165 154 162 163 161 161 159 157 152 151 149 144 141 139 132 132 130 133 130 128 120 124 129 128 118 99 98 103 104 101 105 114 105 98 102 102 105 103 113 124 127 129 156 177 185 191 181 174 170 172 176 179 192 173 63 32 40 80 104 81 57 153 231 249 250 249 249 249 248 247 247 247 248 248 248 248 248
