P2
# Generated by OpenCV 4.2.0
92 112
255
11 10 11 12 14 13 13 11 15 21 23 35 29 13 4 8 7 14 42 37 15 30 20 10 11 8 26 16 13 19 15 12 26 14 11 14 18 13 17 27 19 39 24 27 48 47 56 32 16 25 15 14 16 12 16 24 21 25 24 23 33 36 50 58 59 82 82 70 76 80 67 71 74 51 35 19 16 23 20 50 41 42 22 8 17 21 12 18 22 16 24 15 13 11 9 11 12 16 23 19 21 23 16 10 15 10 1 36 67 57 36 30 10 12 13 5 26 29 11 13 12 9 18 21 9 14 14 13 21 18 9 37 25 51 37 21 42 63 41 41 34 33 24 17 16 22 22 20 27 29 33 33 43 63 64 82 87 89 99 99 94 96 94 83 89 78 59 31 21 20 18 10 27 39 22 23 14 11 29 12 12 28 17 9 18 10 10 10 13 17 18 17 13 11 19 15 7 15 124 70 36 17 14 34 51 48 25 86 58 11 14 10 12 11 16 16 15 14 16 16 18 27 19 32 27 66 84 47 54 63 54 42 40 32 22 24 26 31 29 28 36 45 39 58 68 85 104 101 99 111 112 102 109 105 103 102 87 112 75 49 52 38 33 13 14 33 24 17 19 14 13 23 12 14 25 11 14 8 10 10 20 13 12 11 15 18 9 10 23 59 16 14 34 52 70 60 36 34 97 51 8 14 11 12 19 22 18 23 18 19 18 22 17 27 80 33 39 81 172 54 85 76 54 54 52 45 33 33 34 45 37 42 58 66 77 86 99 108 112 115 117 114 123 111 122 115 116 110 106 113 85 61 59 40 25 49 14 27 38 23 15 14 12 19 16 15 18 20 7 11 11 12 16 17 13 11 15 9 14 27 22 13 20 40 35 21 21 25 20 110 55 17 19 22 24 27 28 67 42 30 32 25 27 29 30 24 26 63 77 101 185 138 102 76 65 84 67 46 51 54 61 67 75 67 63 81 89 110 114 123 121 118 124 118 125 119 118 119 113 120 97 111 112 50 85 32 46 26 55 12 26 25 19 14 10 9 15 17 11 20 14 14 13 11 11 10 13 12 5 21 22 12 24 19 24 17 19 24 23 26 89 67 20 31 35 39 43 57 60 52 63 52 43 40 49 31 46 67 50 78 109 125 182 145 161 139 142 131 134 122 86 84 115 114 109 104 108 111 106 130 113 128 131 126 129 126 127 127 127 124 120 119 122 116 82 95 71 58 22 27 29 32 10 18 21 15 14 13 15 11 20 14 20 14 11 10 9 12 11 6 14 20 13 22 17 20 21 21 25 36 34 41 71 36 42 49 57 60 75 74 96 91 125 97 70 46 61 57 67 85 106 96 91 159 161 147 162 164 170 167 177 174 164 140 148 152 151 159 143 130 144 133 136 147 144 152 126 138 126 135 119 131 123 119 140 98 75 81 35 56 70 29 15 33 16 8 17 15 14 18 14 13 14 25 14 9 8 9 11 30 12 15 18 12 12 26 13 20 24 28 39 44 50 56 65 46 58 70 100 112 122 118 129 137 152 156 140 119 118 145 99 100 126 142 138 151 184 197 139 176 180 171 178 178 186 176 176 173 173 163 158 158 154 156 149 157 143 147 141 140 134 122 125 126 121 116 124 62 113 89 76 45 26 33 34 12 26 10 11 12 10 16 21 10 10 15 7 12 7 13 21 10 8 23 13 9 10 21 21 21 30 32 45 63 70 84 61 75 99 110 135 135 143 155 155 159 166 185 164 166 165 142 164 161 177 160 164 175 194 200 196 186 180 182 184 181 193 197 187 184 187 168 180 161 170 162 164 158 154 148 141 140 131 131 125 124 130 118 104 75 58 57 78 40 35 32 31 30 17 17 6 13 11 11 12 15 6 11 13 9 10 24 11 6 20 15 9 13 16 18 29 27 31 53 58 71 92 81 81 104 129 131 140 161 161 163 164 172 175 199 206 192 204 200 198 209 192 216 180 199 206 201 196 197 185 187 187 187 191 188 198 195 192 188 181 178 174 166 167 166 161 143 142 140 136 127 130 125 131 118 71 88 71 51 35 50 35 23 31 33 22 16 23 8 9 7 8 15 16 11 6 14 21 10 7 9 12 9 11 14 20 21 45 37 41 61 74 87 94 100 113 136 150 160 156 164 164 172 172 185 189 204 200 214 209 212 216 213 216 210 189 215 211 212 203 195 191 186 183 183 191 188 193 197 192 186 187 185 182 178 170 166 163 148 151 137 141 133 126 126 125 116 91 67 68 58 34 28 32 25 21 16 30 24 8 14 9 7 8 8 14 8 10 15 8 14 10 12 9 11 13 21 17 30 52 30 77 76 74 93 104 117 146 157 141 159 165 164 169 176 184 197 192 202 215 210 210 208 209 211 211 210 207 204 215 207 210 203 192 196 190 189 188 189 195 192 187 191 186 184 184 185 175 167 168 159 154 153 136 119 126 124 111 116 83 82 49 37 53 32 18 21 23 14 10 16 15 11 13 13 9 7 13 18 7 15 17 14 16 12 14 11 20 23 20 39 71 43 91 79 81 95 110 142 153 158 168 169 167 171 168 180 181 196 196 205 197 218 209 213 206 215 208 221 215 214 214 208 215 198 198 190 197 189 190 190 192 189 194 186 187 182 182 182 177 162 155 160 156 153 132 123 115 125 125 111 84 67 62 63 29 22 28 17 16 26 10 8 8 12 12 12 10 11 9 13 11 11 9 11 13 15 19 17 27 34 24 55 89 44 95 91 95 106 140 150 159 159 165 167 172 173 171 180 187 193 203 197 213 201 208 215 218 212 220 211 213 211 212 207 210 205 207 199 191 192 194 192 191 196 192 189 193 187 190 182 178 172 171 164 155 153 135 117 125 124 119 102 80 55 49 34 39 39 25 18 13 10 20 13 5 9 4 10 10 9 11 10 10 9 11 18 17 10 9 14 20 25 32 41 85 32 107 97 106 122 138 156 158 163 167 165 172 175 182 189 191 200 207 204 210 208 203 199 205 204 208 204 208 212 211 204 203 209 202 202 194 191 201 197 194 193 195 195 194 190 186 178 180 174 171 163 158 150 141 117 123 118 110 102 73 63 51 41 34 22 23 27 21 9 10 14 13 6 8 5 6 9 5 14 12 10 16 13 9 12 14 17 20 32 20 64 87 27 110 111 117 133 143 156 160 162 165 168 170 180 182 190 190 200 200 195 193 208 206 209 206 209 208 204 200 194 201 202 198 202 197 198 193 185 188 194 189 196 190 200 184 193 187 182 177 178 175 162 148 141 146 116 119 105 109 92 68 55 53 47 33 20 17 13 15 20 10 12 10 12 7 7 7 5 9 13 7 18 14 8 14 14 16 19 23 32 18 71 71 37 117 119 117 137 149 152 162 164 161 167 172 178 187 191 199 208 202 211 205 208 211 208 198 212 218 210 215 209 208 199 206 204 199 193 194 196 198 195 201 192 198 192 193 194 185 181 170 170 172 160 158 140 143 122 119 105 106 85 64 44 46 30 37 22 18 8 10 8 13 12 13 12 12 6 6 8 6 19 9 12 13 13 13 11 19 23 31 43 42 109 83 28 123 122 130 133 139 155 157 161 162 169 171 178 185 192 197 190 196 209 211 208 209 219 209 211 202 210 207 220 204 211 206 205 200 195 192 198 186 201 199 189 191 199 188 190 182 177 179 181 163 159 151 148 139 113 105 103 91 79 61 56 59 26 19 23 19 10 12 9 11 7 11 17 9 13 8 5 8 10 8 11 9 9 14 14 14 26 29 36 62 75 72 59 95 123 134 127 137 150 162 164 165 166 175 178 178 187 190 195 195 208 198 214 213 204 216 202 210 200 205 206 210 209 213 201 203 197 193 190 199 195 195 182 193 191 192 193 176 183 167 170 159 149 154 143 140 120 108 105 93 79 58 52 43 35 29 16 12 13 10 8 8 10 6 14 13 7 11 11 7 13 5 9 7 13 10 20 22 15 22 47 65 67 93 103 55 138 136 130 142 153 154 159 161 167 170 174 182 180 188 194 192 198 200 207 209 209 200 202 201 204 201 211 203 206 206 206 192 200 199 195 194 194 184 181 186 186 181 187 177 171 169 162 149 150 147 143 130 113 109 110 98 88 65 57 48 35 26 22 21 14 8 6 8 6 6 11 12 11 7 10 12 16 8 7 10 11 24 20 12 17 30 35 48 33 87 106 76 135 137 125 143 144 156 158 163 161 163 167 170 178 184 190 191 195 193 208 208 202 204 197 191 197 200 201 208 206 214 196 197 193 186 199 200 189 171 185 188 185 190 184 177 171 164 157 151 149 142 140 129 119 115 110 104 82 69 66 47 32 22 21 16 19 22 12 14 6 5 8 10 16 12 7 6 66 9 8 13 21 8 12 17 19 26 29 38 79 87 98 116 87 148 137 145 157 159 164 167 173 172 177 182 186 184 183 193 204 206 206 217 205 210 202 200 207 200 204 199 205 195 203 196 190 200 202 183 184 182 183 185 186 188 178 169 162 152 157 154 146 138 146 135 129 115 110 99 95 87 73 60 40 32 22 17 18 13 14 19 11 10 7 11 12 13 9 7 59 7 11 17 13 12 15 18 13 17 30 48 83 89 112 123 110 146 113 150 145 157 158 160 162 169 173 176 179 181 195 190 188 195 203 203 206 202 201 200 204 198 192 198 210 205 199 195 197 193 194 181 192 187 195 192 187 178 174 165 154 153 157 140 146 138 128 137 113 116 100 98 88 75 81 63 47 31 20 14 14 15 13 8 3 4 7 7 10 12 11 11 67 10 13 14 9 11 11 10 16 16 43 52 51 77 106 121 136 136 125 144 150 159 159 170 173 171 179 180 181 186 188 197 194 202 208 220 202 201 197 202 196 204 200 192 190 178 188 192 188 191 176 183 186 184 183 185 186 178 176 164 162 160 159 164 167 165 147 137 127 113 108 93 81 79 80 59 43 33 26 23 19 11 10 7 11 7 7 8 4 15 15 14 74 7 13 13 9 11 16 14 26 21 33 27 51 86 102 122 128 136 130 146 151 156 160 168 168 172 174 175 183 192 187 185 200 202 206 215 204 210 204 207 200 202 201 204 205 212 206 208 200 193 187 194 202 187 183 188 195 171 172 154 165 162 157 164 164 161 142 135 129 109 96 93 81 96 74 71 49 35 25 18 11 9 6 8 9 9 8 8 11 19 17 42 73 16 18 11 9 9 12 16 17 18 27 32 45 90 116 116 125 131 125 141 149 156 166 163 171 166 170 174 181 184 189 183 191 187 200 198 197 192 199 194 198 196 202 200 206 206 210 207 206 196 204 204 196 186 181 180 171 177 175 173 170 166 169 171 174 162 151 137 121 107 80 90 80 89 88 69 56 42 24 20 16 9 5 7 7 7 11 18 11 19 11 55 82 8 12 12 8 10 8 24 14 24 31 37 52 99 105 119 129 134 133 145 147 161 162 168 164 172 176 182 187 193 181 194 185 193 200 208 204 199 196 197 207 205 207 212 203 212 208 212 204 205 197 206 197 187 178 177 173 186 177 177 171 174 179 180 173 167 154 144 125 100 96 85 91 98 90 77 59 41 27 23 22 15 9 6 8 10 8 6 21 19 26 23 73 14 8 13 10 9 14 17 19 16 16 38 75 93 106 119 126 130 133 141 146 155 170 167 168 170 181 184 186 182 182 190 190 193 199 209 206 199 197 196 195 207 206 206 217 209 209 212 208 197 200 199 197 185 176 194 176 184 178 178 180 179 182 177 176 169 156 144 124 107 111 98 98 105 102 83 59 46 29 29 24 18 7 8 8 11 13 15 16 14 51 63 43 9 13 10 7 6 17 9 8 18 22 30 87 98 111 120 128 137 143 143 152 153 161 163 173 178 173 187 185 184 189 189 189 203 206 207 203 207 197 201 202 198 207 212 210 204 211 210 212 200 190 203 197 185 178 183 185 183 180 180 185 182 178 184 178 175 156 142 134 127 124 122 121 107 89 72 56 53 32 30 26 23 13 10 7 10 14 10 13 22 33 82 81 14 13 8 7 7 12 8 13 21 46 62 84 99 100 113 122 149 140 155 148 153 165 171 175 178 182 186 179 190 188 196 198 201 205 198 210 202 196 202 192 200 208 210 212 213 216 201 218 208 209 198 191 175 171 185 181 185 187 181 185 180 184 183 176 175 160 160 142 140 134 145 138 121 106 78 41 34 39 36 36 27 19 14 12 9 12 12 21 16 26 63 81 7 11 9 8 8 16 12 17 27 70 100 94 103 107 107 116 140 148 156 159 163 172 180 181 174 181 181 188 184 195 190 190 203 199 198 203 209 204 216 196 203 211 207 210 205 209 213 204 216 198 190 176 173 184 198 193 189 186 173 177 183 183 182 181 176 167 164 155 152 146 135 130 130 126 92 49 40 36 39 43 34 18 24 23 14 12 13 12 19 20 63 63 16 14 7 10 4 21 12 21 49 95 100 89 91 113 109 132 148 147 158 165 170 177 179 186 184 187 182 186 185 189 190 193 188 196 202 201 205 207 214 206 191 205 205 208 179 203 206 211 201 181 182 187 193 182 180 187 186 181 180 174 178 174 176 176 168 162 152 150 153 145 144 132 135 126 104 65 49 35 45 45 45 33 26 35 29 24 15 20 20 30 56 51 18 10 13 8 12 28 10 18 84 99 96 98 98 106 112 144 144 159 161 168 172 176 185 187 184 189 188 189 192 202 191 201 190 196 197 198 200 202 211 205 207 186 204 198 198 190 194 201 191 190 201 184 185 183 194 183 181 178 179 169 167 169 173 165 158 155 138 124 132 129 131 120 111 113 79 57 55 38 50 56 47 41 55 32 38 23 17 18 24 32 36 38 45 13 13 8 12 13 10 26 77 98 108 96 103 98 130 146 148 158 166 173 166 181 177 182 189 175 187 187 194 197 194 200 196 196 190 196 193 198 192 196 181 192 190 196 187 181 186 185 180 181 176 182 186 177 184 163 167 170 167 161 157 156 155 154 137 119 99 78 73 109 79 73 68 65 87 47 51 46 50 67 55 43 33 35 33 31 27 20 28 32 26 13 14 18 11 14 16 17 13 26 78 108 112 116 90 113 139 146 163 148 154 136 151 161 170 175 173 176 173 185 195 188 189 185 185 183 190 190 190 188 181 173 181 192 194 192 181 175 180 181 168 171 173 174 178 168 176 129 141 100 74 100 90 96 94 88 78 93 48 66 45 49 56 54 41 33 36 36 58 58 60 84 56 54 77 58 35 19 21 21 30 13 5 12 97 18 14 13 15 13 6 36 96 112 104 118 103 114 138 134 85 88 128 121 152 143 147 137 139 151 150 161 166 179 177 175 168 173 176 178 180 183 180 172 177 182 193 183 175 171 170 175 168 162 164 164 150 163 116 79 61 40 49 43 87 46 64 66 62 52 63 58 44 37 28 34 31 28 27 24 30 49 56 67 66 36 43 65 71 22 24 28 11 9 5 16 89 33 32 14 10 18 15 70 101 109 120 97 97 107 66 55 70 89 82 97 94 99 114 115 84 84 98 101 116 102 125 159 142 150 161 165 161 172 170 162 176 184 185 182 165 163 161 163 157 139 134 141 93 99 101 34 35 26 28 42 48 32 30 29 25 28 34 36 31 22 21 21 25 22 22 30 41 36 45 57 53 40 37 40 70 30 19 18 12 12 10 20 147 83 31 28 19 12 54 68 106 121 118 104 94 54 72 54 51 52 49 74 74 82 60 72 46 68 54 38 43 60 64 85 125 119 137 146 150 155 163 155 170 184 188 174 173 146 147 154 147 144 115 71 88 51 44 32 29 27 22 25 14 25 25 28 36 39 39 38 37 36 40 30 29 24 28 31 35 33 47 66 46 51 46 43 35 32 18 25 16 30 23 23 69 149 36 19 19 42 22 91 108 113 129 110 63 44 35 44 29 43 36 36 44 39 29 21 38 25 28 46 26 28 33 44 45 78 103 111 107 124 140 145 161 183 190 183 171 152 142 135 134 136 107 80 49 42 27 27 23 23 27 36 41 48 53 63 73 82 86 73 79 77 68 55 44 50 50 44 46 46 51 58 63 60 43 42 77 35 41 23 22 35 51 21 131 114 60 20 18 44 40 87 122 122 139 123 52 53 41 49 54 76 102 103 89 92 83 82 59 60 45 55 39 32 33 30 37 43 53 96 87 107 124 136 148 171 176 185 158 150 130 126 116 96 62 46 27 21 22 22 27 18 14 6 9 1 19 3 5 21 8 12 11 23 49 59 71 56 80 39 47 49 45 78 64 50 57 47 61 101 19 36 38 39 43 54 166 96 101 14 44 33 46 109 128 119 127 130 105 66 59 63 99 116 146 128 147 156 167 171 162 145 113 71 61 49 51 51 33 26 37 50 79 96 109 110 129 163 192 187 161 133 119 108 75 43 32 25 20 21 23 15 15 37 9 45 19 80 102 3 20 9 30 30 24 24 16 29 47 85 38 62 60 50 84 78 63 66 74 62 83 72 39 50 31 31 31 51 171 147 96 32 29 98 52 126 120 121 121 133 104 123 107 123 133 140 148 121 73 49 28 10 2 30 50 12 8 12 29 18 22 39 40 35 26 48 67 89 136 173 178 191 173 136 133 105 68 34 15 20 21 24 20 38 36 27 132 149 26 27 7 16 40 4 83 68 71 39 39 33 33 27 45 63 96 75 94 67 70 65 66 65 55 65 93 41 25 17 35 51 176 153 82 24 46 56 70 123 125 119 135 116 141 130 137 127 103 58 19 6 17 21 49 10 9 92 102 15 16 67 40 48 52 36 37 46 41 33 41 78 137 166 190 196 181 160 139 103 64 33 25 26 25 22 74 27 47 62 125 172 76 46 36 38 38 135 166 127 87 47 28 44 65 55 84 110 92 87 90 88 75 73 64 63 36 86 98 29 21 22 36 82 162 125 130 34 53 109 52 122 117 121 127 122 138 124 118 95 40 17 23 31 18 67 156 12 36 7 12 39 24 150 139 50 35 50 67 54 57 58 55 64 138 169 187 205 190 175 153 134 81 28 42 33 39 114 54 49 120 168 193 181 199 212 192 176 184 130 132 113 87 63 29 75 97 110 104 118 93 96 109 84 90 67 72 58 36 34 104 25 23 21 57 132 152 111 100 33 88 64 89 120 123 122 128 141 126 136 137 56 52 45 56 91 131 121 147 124 18 39 26 50 68 170 162 91 136 158 32 181 100 103 103 90 145 180 194 206 196 188 172 139 84 41 51 57 117 147 40 163 190 152 151 130 108 112 136 129 126 152 147 114 68 34 84 92 113 115 111 124 108 108 110 119 106 89 59 55 46 20 39 25 21 34 56 111 150 116 89 47 47 111 65 127 131 129 127 143 151 129 109 84 51 89 91 118 114 133 159 184 200 187 196 223 183 187 157 127 134 152 91 155 175 163 146 135 133 177 197 210 206 190 176 148 101 52 55 98 200 162 179 193 148 135 136 143 160 169 168 166 128 121 79 52 47 97 120 126 121 113 126 122 122 118 121 91 108 69 82 59 56 28 49 44 27 47 55 114 153 135 146 112 101 43 97 123 118 128 128 143 151 152 147 138 139 138 107 122 140 166 169 118 137 110 124 90 130 114 128 132 154 181 187 185 201 181 160 146 150 182 198 213 208 191 184 157 137 70 68 102 138 178 152 170 146 124 91 107 100 108 87 89 78 65 68 78 84 99 104 128 138 129 126 122 127 128 115 100 100 80 59 58 66 43 55 60 34 38 63 98 165 158 142 122 145 14 72 111 123 131 130 149 149 147 155 152 136 124 134 99 107 137 163 157 172 158 159 140 136 100 86 105 146 163 165 182 177 181 157 149 164 189 202 217 213 194 184 178 152 109 52 103 127 151 160 168 154 156 144 120 95 82 77 69 62 65 76 92 121 160 151 136 123 133 129 116 132 129 122 106 100 85 69 51 35 49 49 32 33 33 51 93 167 183 168 143 133 42 48 111 120 127 142 144 157 155 153 155 152 148 132 99 99 82 96 104 108 117 96 86 62 61 84 121 141 143 152 162 173 173 159 149 177 196 201 212 212 196 187 178 162 138 61 88 121 149 185 165 167 158 156 156 153 164 148 144 144 143 147 150 154 155 159 151 150 141 135 129 136 132 124 83 91 93 58 49 31 25 18 26 26 25 46 86 166 169 182 175 99 69 56 110 112 124 142 143 152 162 164 156 156 158 121 141 143 100 73 75 67 64 65 75 90 127 157 155 152 159 168 193 180 172 162 147 187 197 203 219 207 194 189 185 177 152 86 69 129 139 178 210 179 167 179 181 163 154 159 154 150 163 165 181 168 170 155 161 148 148 131 138 139 132 123 106 102 62 66 48 25 23 22 36 21 22 49 76 161 142 187 200 106 57 59 90 116 126 134 150 149 160 163 170 148 163 173 172 160 167 158 155 132 142 164 165 165 166 163 158 177 196 195 181 179 170 160 161 184 204 210 214 209 198 191 192 178 154 96 53 105 130 165 183 191 197 175 178 170 173 170 169 164 181 173 167 180 170 173 165 162 134 147 138 143 127 117 124 78 78 61 70 29 14 16 32 17 38 79 54 170 133 169 200 104 60 40 101 107 126 139 151 157 152 164 157 159 171 163 156 171 167 175 173 174 175 179 187 182 177 184 193 196 199 190 178 171 160 157 155 186 198 212 219 204 197 186 180 174 132 62 60 85 117 166 205 177 186 187 184 189 190 177 172 174 179 178 175 172 172 169 164 155 154 145 143 140 130 115 122 82 77 66 48 27 11 22 16 28 61 54 25 166 146 127 181 121 34 48 71 105 125 138 143 154 160 163 160 166 160 166 170 175 187 185 183 180 177 181 187 179 186 182 197 206 189 182 173 167 155 154 162 177 196 206 205 205 193 184 181 157 74 56 63 68 105 125 194 144 169 187 200 184 186 182 181 189 186 179 174 186 176 175 166 158 154 137 146 140 130 98 101 79 61 55 30 22 19 23 16 39 86 80 40 184 149 108 136 152 50 28 94 98 116 140 144 153 158 161 159 162 158 170 174 179 183 179 181 185 178 186 177 189 186 198 194 194 184 177 165 153 154 159 154 169 180 204 203 201 190 186 173 139 68 84 75 66 86 117 161 168 185 194 172 176 188 188 190 177 185 167 185 177 176 160 161 162 151 141 150 139 129 115 103 65 58 63 52 20 15 21 38 62 89 100 120 145 193 172 144 153 83 25 75 98 119 143 133 158 156 155 163 157 168 173 175 179 186 181 187 189 189 186 179 194 200 200 197 191 183 170 161 151 157 155 154 169 186 194 202 192 188 179 175 124 80 98 95 81 69 111 146 181 190 204 158 157 192 194 190 187 181 182 181 184 179 173 165 157 152 139 121 126 114 107 98 59 74 57 38 19 19 19 43 66 84 104 104 110 217 168 183 145 148 15 58 99 118 117 136 149 150 158 164 168 165 167 174 189 185 190 202 182 202 195 208 199 205 198 197 192 174 169 153 156 156 163 159 163 180 192 199 193 182 183 163 125 78 99 111 79 75 104 146 168 186 199 195 192 191 190 191 187 187 184 178 181 172 175 161 161 158 144 136 123 120 102 94 52 59 45 26 16 15 20 32 67 74 89 100 128 176 173 187 143 159 32 59 92 100 134 132 140 149 159 161 169 177 177 174 188 194 194 191 202 201 202 204 206 207 199 200 189 176 168 161 152 156 163 158 166 176 186 200 187 190 180 161 133 106 115 115 104 89 92 138 165 181 198 190 192 197 193 194 199 182 194 176 176 173 169 159 154 157 138 121 137 101 104 92 56 48 34 42 15 14 23 42 68 79 79 82 192 175 192 184 179 122 89 28 90 87 128 123 143 151 153 162 167 169 171 179 186 185 192 203 205 205 217 206 201 202 200 182 185 175 169 156 150 160 162 149 166 182 181 195 200 177 170 164 127 124 123 122 109 92 103 124 161 179 191 192 197 198 188 193 193 178 190 178 172 173 164 164 146 142 134 122 113 102 88 86 56 44 37 24 19 14 29 46 76 75 76 67 176 178 199 172 160 140 81 28 74 89 116 131 137 148 159 159 162 173 167 178 181 184 197 198 202 211 213 205 206 201 197 184 185 173 164 148 154 156 156 165 163 178 186 201 201 186 171 160 138 128 139 128 116 76 72 108 154 167 187 189 196 193 192 190 186 193 183 176 176 164 168 148 143 134 130 118 87 87 77 65 48 45 27 22 22 13 25 38 48 57 49 24 179 186 196 183 170 144 130 67 82 74 128 118 135 134 155 164 160 162 176 176 183 187 190 197 205 203 212 207 204 199 192 190 181 170 154 131 153 153 165 159 174 174 196 218 204 185 166 156 144 131 147 124 113 89 52 107 144 168 180 184 190 195 190 186 192 183 175 175 175 165 159 152 142 131 113 102 94 89 68 61 41 38 20 18 18 21 16 28 31 24 23 66 164 185 186 183 175 175 160 87 71 76 96 128 129 124 147 150 154 161 167 176 175 173 193 189 200 208 206 201 201 197 194 203 193 182 160 146 151 158 168 160 168 181 192 212 206 189 173 155 146 143 137 121 112 90 44 73 145 173 180 180 188 180 189 188 185 176 169 170 165 151 153 156 127 121 119 108 86 75 64 53 37 34 31 20 25 99 66 37 36 60 81 77 141 175 177 174 175 175 156 78 60 86 97 113 128 129 140 143 155 161 165 172 176 179 181 185 200 198 206 200 204 200 190 205 192 182 168 148 135 163 164 166 171 172 199 202 207 184 171 147 134 133 122 125 99 93 70 57 149 170 180 180 186 178 188 181 180 176 170 169 157 155 148 127 124 125 96 84 82 68 60 46 36 15 28 20 33 86 84 81 78 77 77 75 52 94 150 165 163 128 95 55 78 115 75 100 115 132 134 146 147 151 160 174 170 180 181 187 191 192 198 194 198 199 208 196 187 171 157 154 139 160 164 167 173 174 187 209 194 177 147 141 123 109 130 127 121 102 95 64 102 160 185 184 187 192 186 181 182 176 175 166 160 139 149 120 120 116 100 99 74 65 55 42 30 35 22 41 27 82 78 76 76 74 76 76 71 69 55 55 53 46 60 63 91 81 85 105 108 125 136 140 146 155 160 164 164 176 174 185 184 195 182 192 192 203 194 192 187 164 151 146 149 161 163 164 165 176 180 196 200 186 151 134 121 113 148 153 150 130 99 73 77 163 182 184 184 185 180 183 177 171 170 173 142 141 147 122 117 102 92 72 75 57 67 37 33 29 18 46 38 84 85 80 78 79 76 78 75 72 71 73 70 75 67 54 85 91 68 103 113 117 129 139 143 151 144 165 166 166 175 180 181 183 184 189 183 169 176 174 175 161 136 147 157 170 161 162 163 171 183 194 200 187 158 130 121 139 151 158 167 134 71 57 56 149 174 185 187 183 171 186 173 169 167 147 149 145 122 133 113 94 101 87 61 59 62 44 46 30 15 27 51 73 79 79 78 76 75 77 73 72 71 70 71 68 69 70 76 77 87 113 117 118 123 130 141 150 162 159 164 167 168 168 174 180 180 176 174 175 173 177 160 148 123 132 170 170 168 154 157 183 197 220 214 186 164 137 135 138 151 149 145 110 56 41 44 131 170 185 177 187 184 166 175 162 170 148 140 139 122 115 105 102 74 73 73 72 62 37 24 34 22 44 39 87 80 78 75 77 78 76 73 74 74 70 69 69 69 83 83 92 102 97 112 117 122 119 138 149 150 161 154 163 159 171 175 171 174 172 160 153 162 171 181 156 101 109 152 173 167 148 163 197 223 220 215 194 168 148 137 127 149 134 121 79 40 33 33 118 167 177 176 187 183 170 179 153 160 145 134 126 135 116 117 85 71 87 65 63 71 46 26 26 27 26 62 82 76 76 78 76 76 76 73 71 72 71 72 68 70 66 67 82 82 101 127 120 121 123 138 145 151 156 154 168 158 159 164 167 163 162 158 152 164 170 169 181 103 73 110 142 144 147 170 183 186 191 185 189 179 164 137 118 75 62 61 27 23 28 39 112 160 162 175 180 180 176 170 171 160 143 132 120 109 101 87 73 86 74 67 81 62 44 35 23 44 29 57 81 76 79 77 77 76 76 75 74 72 71 69 70 70 70 81 81 105 109 130 128 122 117 129 135 146 151 154 159 164 156 161 159 158 149 134 153 164 165 177 169 156 30 37 75 110 105 155 162 156 168 166 158 165 167 107 42 39 22 19 22 22 12 55 122 160 167 167 179 177 174 171 168 152 147 132 125 110 91 78 84 73 73 63 81 61 48 55 36 26 39 65 80 78 78 77 78 77 75 75 73 68 73 69 68 70 67 91 85 80 109 122 138 122 122 128 143 141 152 151 149 160 157 174 154 140 142 138 159 168 171 170 166 156 108 14 8 36 64 84 120 143 136 134 131 145 119 36 27 8 4 4 9 9 30 86 115 158 165 164 162 168 169 155 166 152 124 134 112 114 70 75 74 62 83 47 68 69 40 36 36 30 24 78 79 76 77 79 74 77 73 69 73 74 73 70 69 70 60 102 61 74 98 126 148 125 111 115 125 141 146 141 158 147 131 109 156 133 128 154 159 169 160 167 166 163 153 76 46 25 13 43 70 71 90 74 67 63 37 18 6 7 8 9 19 34 50 97 150 150 159 168 161 157 167 159 147 151 129 115 113 102 70 48 79 82 75 42 80 60 39 32 24 36 27 74 82 78 79 79 77 75 78 75 71 71 72 73 69 68 70 64 67 73 106 126 124 125 119 108 126 137 140 151 152 146 141 144 151 136 150 158 158 167 166 170 163 163 125 135 59 51 35 17 22 35 30 26 34 23 11 6 7 14 14 23 26 59 67 118 150 166 159 154 155 159 149 151 152 144 127 111 105 90 86 45 80 68 59 58 77 55 43 50 25 14 22 81 79 81 79 77 77 74 73 73 70 71 71 73 71 70 69 76 38 98 97 129 134 140 112 112 122 131 140 146 145 144 148 147 151 158 153 153 155 158 162 154 153 119 147 86 35 99 93 53 39 7 6 6 5 5 11 11 14 16 31 20 37 29 94 124 149 171 150 146 147 155 148 153 141 136 126 112 89 64 59 39 73 74 78 73 45 59 30 48 24 31 20 71 80 77 77 76 77 76 77 76 73 72 71 70 71 71 70 80 50 87 99 105 123 138 112 111 112 116 129 136 118 127 149 147 150 144 177 127 127 155 143 158 136 106 81 89 43 131 121 50 59 14 21 9 15 9 22 36 20 40 25 23 63 67 57 131 125 160 157 149 132 146 148 160 140 126 109 98 80 57 43 39 87 77 85 73 49 54 25 32 30 30 35 80 80 78 77 75 76 74 75 70 75 72 71 71 70 70 68 86 80 92 72 101 127 120 125 119 119 123 131 123 138 137 144 142 160 94 100 153 120 150 140 148 141 109 79 93 125 114 109 73 75 47 29 24 35 14 75 36 44 27 69 37 77 41 64 121 135 149 122 94 148 113 89 124 129 106 107 102 80 63 57 19 100 82 59 99 60 42 40 50 25 34 45 78 80 76 77 75 76 74 78 73 71 74 70 73 71 69 70 61 114 107 63 122 117 123 118 95 96 121 121 123 132 140 144 134 99 78 130 138 139 124 132 105 144 99 80 52 140 140 128 116 73 110 6 31 57 23 50 82 56 51 89 65 66 77 73 124 118 147 112 104 99 86 108 119 84 125 101 105 85 67 40 25 92 66 85 60 72 53 44 46 36 12 32 77 75 79 78 76 78 75 77 71 73 71 73 74 70 71 70 74 79 93 81 101 99 125 130 99 102 124 104 123 130 143 129 129 72 151 106 81 96 113 144 121 86 65 64 87 150 94 133 100 143 116 74 36 100 57 80 42 101 78 64 55 76 43 71 101 120 73 78 99 82 60 132 109 141 104 87 88 90 43 35 33 82 104 107 80 68 42 44 34 33 44 33 83 77 74 74 75 74 76 75 75 72 72 74 73 70 70 71 63 98 55 68 58 106 119 104 92 100 119 105 100 123 122 135 114 127 59 108 155 146 106 137 51 77 117 56 53 128 57 65 146 112 113 83 71 104 76 99 76 91 111 65 89 87 16 142 70 76 74 68 72 73 91 67 148 111 85 69 73 80 48 21 61 82 97 99 69 46 40 19 49 16 15 64 82 80 76 74 77 74 75 76 73 72 73 73 69 71 70 71 74 67 33 56 66 76 109 99 116 79 114 92 102 119 119 85 100 85 91 96 59 110 59 99 57 69 79 115 113 140 110 158 150 171 94 159 136 92 119 122 119 111 81 136 56 65 93 60 62 64 132 97 136 69 58 123 47 50 66 66 59 86 58 23 30 78 68 105 66 50 66 13 28 22 24 39 69 80 76 75 73 77 76 78 73 74 72 74 71 73 72 72 65 101 46 61 79 105 97 119 140 79 107 104 95 109 120 153 94 141 48 72 53 52 77 40 83 151 140 166 151 159 135 173 166 164 151 132 168 136 151 173 142 148 127 103 100 135 71 53 34 73 55 41 36 22 47 47 58 81 49 93 50 63 36 20 48 87 101 68 41 58 33 33 21 28 21 56 79 76 78 76 77 74 74 73 74 72 72 73 72 72 71 72 73 70 67 71 80 70 108 127 126 115 101 111 98 122 113 151 83 79 60 54 28 29 29 53 93 133 106 97 96 91 73 66 76 83 90 128 167 140 157 157 136 134 142 126 104 135 116 72 87 54 30 44 21 15 16 31 34 48 77 46 95 50 29 24 52 94 84 44 29 40 53 18 16 32 30 59 83 81 73 74 75 74 74 75 74 73 74 73 73 71 73 73 72 70 63 46 78 76 88 105 135 114 98 109 101 113 99 132 86 88 70 58 48 34 26 15 20 15 19 19 19 18 25 36 42 40 30 37 46 91 51 34 28 31 32 44 46 46 59 47 32 35 20 14 8 15 20 60 43 99 96 120 114 52 31 22 49 95 50 69 39 37 43 47 54 22 17 80 74 75 78 76 74 76 73 75 73 74 71 73 70 70 71 74 71 68 91 40 55 43 77 104 124 104 99 110 129 98 101 152 129 107 131 70 111 83 113 70 31 20 9 9 14 31 18 7 10 20 12 15 16 9 9 15 15 14 17 12 12 9 6 7 10 7 11 17 31 36 73 54 124 116 141 119 120 67 21 21 60 78 66 48 16 31 52 69 44 23 16 88 78 77 73 75 73 74 74 77 72 75 70 76 70 71 71 74 73 75 82 18 48 45 69 72 84 116 99 120 125 109 113 132 147 124 119 114 151 114 127 113 124 85 81 83 106 116 80 37 40 67 34 73 36 26 42 24 32 12 15 19 18 27 27 37 39 61 53 84 61 81 142 101 75 112 147 143 118 57 25 18 75 77 114 26 29 40 30 64 10 13 44 84 80 74 73 74 74 74 74 73 74 77 71 71 74 74 72 73 74 73 75 84 80 12 58 85 63 151 114 85 135 103 105 122 124 152 132 119 113 152 164 119 91 127 109 86 148 148 163 126 117 127 110 121 115 97 103 109 116 85 97 131 106 136 134 135 117 93 112 52 96 103 110 131 144 122 122 156 97 35 19 22 88 107 78 72 44 47 50 30 21 18 26 47 87 77 74 74 75 73 77 75 76 74 75 75 74 72 73 72 75 72 71 80 29 85 19 86 58 91 110 106 92 86 54 124 123 133 104 129 96 154 129 130 120 76 117 120 128 133 141 187 161 187 169 163 167 141 156 154 132 145 156 150 148 149 151 121 131 69 80 102 144 96 101 125 114 137 132 131 101 22 19 31 75 106 83 15 22 43 34 22 19 4 92 4 14 92 75 77 77 76 76 72 74 74 73 73 71 71 73 72 74 72 71 75 76 22 37 51 67 81 125 99 90 99 44 108 130 124 105 122 113 146 126 130 118 127 94 107 153 153 161 182 185 186 172 163 178 147 143 153 169 177 170 170 157 147 130 106 105 87 143 66 83 87 108 111 128 111 151 121 52 26 16 42 119 80 64 15 22 14 51 15 14 15 111 1 6 13 90 75 75 74 75 73 71 73 74 73 74 73 72 74 76 74 75 71 76 39 19 27 73 65 113 106 53 57 67 77 94 93 102 106 125 118 135 113 123 110 118 131 123 127 146 163 175 189 190 202 180 188 175 177 169 158 164 141 127 118 124 126 97 73 51 74 99 105 121 119 136 148 145 89 42 24 33 52 118 83 36 24 39 48 21 26 9 54 90 3 5 7 18 84 74 74 76 74 73 71 73 70 70 71 73 75 73 73 72 73 70 73 15 28 41 43 63 91 60 64 53 50 82 78 107 96 123 111 130 125 118 122 121 131 136 134 138 141 135 154 140 113 109 129 107 104 103 83 94 131 112 114 83 49 74 67 70 89 71 90 95 88 143 125 104 71 31 22 24 28 108 50 22 31 48 60 9 22 10 121 101 1 6 4 6 36 82 76 72 75 76 75 76 73 75 74 72 73 71 73 73 74 72 78 61 29 23 47 46 78 86 70 52 69 71 91 114 97 131 128 100 136 119 121 79 116 126 98 90 101 67 121 106 106 49 62 72 41 74 53 99 70 39 26 37 37 40 34 74 78 78 110 98 128 97 133 119 90 18 21 18 87 52 45 26 19 25 27 19 10 54 133 99 4 4 9 6 5 59 78 72 76 73 72 73 76 71 71 73 77 73 73 76 73 74 72 77 41 35 52 33 72 85 11 33 82 74 58 56 115 104 160 126 129 113 124 91 100 94 100 69 37 38 65 57 48 59 32 57 71 92 74 64 55 41 60 69 31 46 59 77 86 98 106 112 88 139 101 95 53 20 20 21 53 75 34 15 91 16 9 16 8 127 132 102 6 6 7 4 7 5 63 79 76 74 74 72 74 72 73 73 72 70 74 75 70 75 72 79 48 46 22 33 46 48 26 78 79 96 88 116 140 132 153 149 126 133 121 128 117 101 79 92 107 55 44 27 96 48 78 54 90 52 76 66 41 50 66 86 68 79 91 101 110 99 120 114 95 58 130 69 37 19 21 67 32 35 19 27 19 15 13 8 63 147 127 109 14 8 4 7 8 7 5 53 82 75 77 72 72 72 74 75 74 73 72 73 75 71 76 63 140 53 26 16 26 45 45 78 99 68 60 99 123 133 137 166 98 131 122 94 131 130 83 71 85 101 54 45 65 26 127 111 52 58 55 59 94 76 70 81 118 83 105 121 124 126 114 97 106 126 63 79 26 19 29 47 53 20 50 15 15 9 15 7 148 144 126 114 19 4 7 8 5 8 8 4 53 75 74 77 72 72 74 74 74 75 73 74 73 73 67 132 221 47 54 29 33 31 51 47 78 65 45 95 128 140 108 94 73 125 130 153 150 115 111 126 105 104 56 79 95 108 108 99 99 71 52 50 74 103 99 95 112 128 109 134 122 111 108 101 101 109 158 45 23 18 25 49 30 36 30 13 9 11 7 100 177 152 136 119 33 10 4 7 9 9 7 9 4 76 76 75 71 73 74 76 75 72 71 72 71 71 82 241 159 57 66 82 24 17 26 56 51 47 91 63 97 105 110 118 118 139 148 160 166 140 142 144 124 127 120 97 79 121 69 107 99 119 79 151 112 114 138 164 126 137 145 132 110 98 88 123 89 101 67 58 21 14 21 71 33 15 23 17 12 14 15 183 175 159 139 124 40 31 3 8 7 9 7 11 10 73 74 74 73 71 74 75 74 70 71 72 76 57 201 217 46 86 78 76 55 17 26 28 66 68 45 49 63 87 100 126 88 147 155 125 130 147 159 162 147 136 168 169 172 151 159 164 161 95 183 124 149 160 134 135 153 148 142 126 105 96 87 38 102 91 63 85 13 20 19 34 20 19 13 15 13 11 144 193 184 164 143 124 64 22 6 9 8 6 11 7 5 75 75 75 76 71 74 77 74 70 72 72 75 112 237 141 190 61 90 93 67 36 20 25 38 37 40 46 55 79 101 76 85 125 158 127 155 155 176 170 150 160 158 136 171 172 126 169 154 174 124 185 135 139 131 160 146 117 116 115 85 86 99 47 25 82 59 34 18 16 25 15 16 15 15 21 21 25 205 197 191 170 142 121 66 25 6 8 7 9 9 8 9 76 76 76 74 76 72 71 74 74 71 71 54 224 198 168 84 59 105 95 87 53 55 19 22 47 31 27 33 45 41 64 46 96 123 80 109 93 164 144 180 161 162 173 179 189 190 165 167 175 170 145 166 156 138 112 119 129 143 105 92 120 78 73 66 28 44 16 19 20 36 19 11 18 21 19 12 181 206 203 194 172 142 115 74 27 6 10 9 8 9 9 6 75 74 75 74 72 75 76 70 73 72 76 106 240 166 186 38 39 108 99 91 102 84 54 39 17 31 32 28 48 81 54 70 93 141 93 117 119 127 116 135 140 159 150 181 181 146 165 171 182 176 162 146 134 152 125 103 144 134 104 90 65 64 49 45 31 25 17 19 30 13 10 16 17 20 20 64 216 206 208 192 170 134 116 78 31 5 9 9 11 7 8 9 77 74 75 74 74 73 73 76 74 71 63 240 213 224 86 57 61 94 114 114 113 90 90 67 29 15 28 25 70 66 78 59 37 66 72 109 107 133 142 138 140 139 179 119 157 185 163 130 166 181 127 142 162 110 127 145 51 95 100 79 137 39 60 38 11 21 46 20 14 15 13 18 19 24 24 212 222 215 211 193 168 126 115 85 29 8 8 11 9 7 9 11 78 75 76 76 75 75 75 77 71 68 82 243 181 195 62 60 101 73 113 128 133 120 106 69 63 15 17 28 17 46 67 40 107 112 78 114 141 163 129 138 159 161 147 149 172 167 153 147 134 159 122 151 138 143 58 73 93 73 88 51 27 50 19 39 18 14 17 12 12 19 20 22 25 22 94 223 220 219 211 190 159 119 106 88 30 11 11 10 11 11 9 10 74 74 76 73 74 76 74 74 72 65 161 225 226 119 85 89 130 104 102 119 132 127 120 129 88 84 76 9 20 21 40 69 73 69 124 80 145 149 90 123 137 111 145 160 153 168 143 118 135 104 149 131 144 97 44 142 36 127 29 42 33 19 35 9 13 14 18 14 19 21 24 21 36 34 213 224 226 219 210 188 142 104 106 98 27 9 13 10 11 11 10 8 79 76 75 76 73 75 74 75 73 63 241 208 231 122 72 121 148 155 87 125 129 145 138 115 108 92 62 43 16 19 27 23 61 31 85 139 103 112 83 90 134 151 127 163 138 173 133 147 99 132 108 113 95 115 89 49 52 37 39 19 48 36 22 24 14 14 19 20 23 25 32 34 18 144 217 229 218 217 206 173 118 87 118 100 18 13 14 13 13 11 11 10 78 77 78 75 76 77 75 72 72 90 246 213 186 137 69 130 171 214 70 116 126 142 138 132 118 102 91 72 44 33 51 44 91 105 50 75 126 71 96 96 97 106 103 92 106 117 76 125 66 122 111 94 124 60 91 37 56 30 17 53 79 44 14 16 14 14 19 23 25 28 30 40 70 223 228 224 223 215 208 152 98 80 120 85 11 12 14 13 12 12 11 11 79 75 77 76 75 76 74 73 68 153 226 229 172 153 71 143 183 219 78 108 124 147 138 146 138 106 97 80 72 67 28 26 29 98 50 106 77 75 77 92 89 75 52 98 96 113 85 58 103 149 79 100 64 82 44 44 27 22 36 55 5 33 12 18 21 19 24 27 31 30 38 25 174 217 231 222 218 214 209 124 77 82 128 72 7 14 11 14 14 12 12 10 77 74 78 78 74 81 84 68 8 227 218 213 194 153 84 150 190 208 113 84 121 136 145 147 138 136 109 109 86 78 67 35 28 14 39 46 80 71 49 70 53 64 139 110 83 90 72 81 94 101 54 64 50 40 34 50 9 18 42 27 17 19 16 18 21 24 30 34 33 33 46 75 217 221 229 222 219 210 191 86 66 93 137 51 9 14 13 12 12 14 14 10 80 80 72 85 92 42 2 15 43 251 216 189 209 165 89 153 191 199 151 76 110 127 157 144 141 142 138 107 97 91 72 63 47 36 43 40 43 63 23 47 25 70 10 91 44 55 79 65 31 31 78 32 43 50 65 15 12 22 23 16 14 19 23 17 24 27 32 33 37 45 29 204 211 235 229 222 216 205 176 72 65 107 141 29 12 10 13 13 13 13 12 13 79 105 61 11 5 12 6 6 126 233 220 199 196 184 98 151 190 202 155 66 108 123 144 148 152 155 141 133 118 99 96 61 65 58 33 47 48 54 72 22 34 58 10 27 31 37 50 64 31 43 34 28 22 27 27 42 35 20 21 25 23 24 21 20 28 30 34 34 41 47 80 213 225 231 227 222 214 202 164 66 73 126 133 14 12 12 16 16 13 13 12 13 46 10 6 10 11 12 9 0 224 222 233 204 193 193 97 154 186 194 167 63 93 118 134 148 148 145 153 144 128 123 104 84 68 59 56 36 35 23 40 29 43 43 30 20 24 25 21 50 38 20 20 24 28 12 25 20 21 22 25 22 21 25 24 31 33 36 41 48 59 44 197 215 235 230 223 221 215 195 154 59 82 134 115 9 13 15 14 16 13 13 11 13 6 11 10 10 12 9 13 64 247 230 228 220 184 193 112 147 184 187 170 46 90 102 120 147 149 153 150 141 145 128 116 101 104 70 68 59 54 36 30 24 25 14 21 25 23 15 19 16 21 17 14 15 17 16 17 21 22 23 27 25 26 25 26 36 41 44 46 58 54 72 196 228 228 228 224 219 213 195 142 58 90 134 79 7 13 15 14 14 13 13 11 14 9 9 8 10 10 12 1 176 231 227 222 222 203 177 133 143 184 187 156 11 102 101 128 126 143 148 153 147 141 142 133 129 103 92 90 54 63 50 46 42 36 27 22 17 16 18 11 15 18 12 19 16 20 20 25 22 27 29 25 27 33 34 34 43 47 52 54 58 52 166 213 230 230 228 226 219 212 194 133 53 99 132 46 8 14 16 16 16 14 13 12 14 9 11 11 10 10 11 0 231 226 234 224 219 215 161 154 137 186 183 90 12 88 85 107 138 144 141 144 153 150 139 147 117 118 105 58 92 61 73 49 50 50 31 28 23 23 21 19 24 23 26 16 22 27 25 27 30 35 32 35 33 34 41 47 53 55 57 58 56 60 222 227 237 229 230 226 221 207 191 121 53 100 130 24 11 16 18 17 16 15 12 11 14