P2
# Generated by OpenCV 4.2.0
92 112
255
44 50 50 51 74 61 55 60 87 134 143 132 140 132 138 143 144 150 156 161 168 172 172 180 178 181 187 188 186 185 194 200 196 196 195 198 200 197 193 197 200 203 204 203 201 196 193 189 187 188 188 188 193 191 192 191 188 181 177 181 179 176 173 171 169 162 157 156 155 153 151 139 142 143 125 54 21 21 29 12 17 18 14 9 6 8 9 10 11 10 4 6 43 45 43 48 63 65 52 51 100 134 144 143 142 129 133 141 142 147 152 156 165 171 173 175 181 182 185 186 190 191 199 199 195 198 197 197 201 199 197 199 200 201 200 199 198 194 193 190 188 187 186 186 191 190 192 194 191 187 184 183 179 175 171 169 167 161 161 161 155 144 147 146 148 146 140 104 60 33 17 21 18 11 11 7 4 6 5 9 11 8 6 5 44 37 42 44 52 57 45 48 102 134 140 144 137 132 127 138 142 145 152 159 163 166 176 176 180 186 185 188 188 192 199 198 200 201 198 196 194 195 199 201 202 200 199 199 200 196 192 189 188 189 187 186 191 192 191 191 190 189 186 184 181 175 171 170 169 165 165 165 159 147 147 151 147 139 142 129 97 70 39 16 17 18 18 9 8 6 5 8 9 12 11 9 47 32 39 35 41 48 37 54 107 133 147 147 136 129 127 136 137 143 152 160 163 167 176 179 180 183 186 187 192 194 195 197 198 200 200 199 197 198 195 197 201 200 199 199 201 199 194 190 189 191 187 188 192 193 194 192 190 189 187 186 182 179 175 172 165 163 164 162 156 146 146 150 147 145 136 127 113 90 86 49 25 11 19 20 15 11 6 3 4 7 8 9 39 35 35 32 39 40 39 70 110 126 143 143 131 130 130 136 137 145 156 163 165 169 176 179 179 182 185 188 195 193 193 195 194 193 199 201 200 197 207 205 202 202 204 204 204 202 199 191 190 189 193 196 191 192 194 192 193 191 189 186 183 181 180 175 171 169 168 164 159 150 147 142 146 149 138 129 118 96 88 67 45 27 23 13 13 11 12 11 11 7 8 8 31 37 26 29 42 35 51 79 119 123 142 142 135 133 135 138 138 149 157 165 164 169 176 181 184 186 189 191 195 195 195 198 199 200 199 201 202 200 206 202 197 198 203 204 204 202 198 197 196 195 194 196 196 194 195 193 192 190 192 188 183 182 179 176 174 172 168 167 162 154 154 152 144 146 140 121 116 106 88 68 48 37 41 26 13 10 9 8 10 15 13 10 25 37 26 31 38 36 50 81 114 117 134 139 137 135 137 136 137 151 160 166 168 170 178 179 186 190 191 189 193 198 199 201 200 206 202 199 201 204 205 207 210 209 208 210 208 204 207 210 206 198 198 199 201 200 199 198 197 192 197 193 188 184 181 175 174 173 173 174 167 156 156 155 146 139 132 116 112 105 81 66 52 38 33 34 35 27 14 6 10 13 10 12 28 32 28 35 38 43 59 93 116 113 122 138 138 140 140 138 137 151 163 166 167 170 174 179 184 188 190 187 193 197 201 198 193 196 196 198 202 204 199 202 205 204 201 208 206 203 202 202 201 196 195 198 198 196 196 195 196 194 197 191 186 185 181 179 175 174 172 174 169 158 157 156 147 144 138 122 116 114 110 88 55 39 26 27 30 35 22 10 10 11 14 16 29 29 31 28 32 41 61 93 107 106 123 139 135 138 134 133 137 156 161 166 169 171 174 182 185 183 187 191 194 194 195 197 198 197 200 202 201 200 205 204 201 202 201 204 201 201 200 199 203 199 199 199 198 194 195 196 195 195 196 191 188 187 182 184 180 174 170 171 169 158 158 156 149 147 136 122 123 108 107 99 71 45 32 32 20 34 35 17 14 9 5 10 25 31 29 27 32 48 73 104 113 114 120 133 138 139 136 132 142 161 165 171 172 174 177 183 186 186 188 190 192 197 199 201 201 199 202 204 203 202 204 204 204 206 207 207 205 205 208 204 206 201 199 199 202 199 198 198 199 201 198 195 190 191 187 185 181 176 174 175 169 158 157 154 149 145 135 123 122 113 76 80 76 56 36 32 21 25 40 24 22 20 9 5 20 36 26 20 28 46 74 108 118 111 111 132 144 140 143 140 147 164 168 174 177 177 179 180 185 188 193 195 195 199 199 198 198 205 206 208 207 206 203 204 208 209 209 206 206 205 206 203 200 202 203 201 199 203 198 199 200 203 198 199 197 195 193 183 179 176 175 170 169 162 155 157 151 138 130 113 112 105 87 72 58 51 42 30 36 26 36 32 14 11 11 14 25 30 26 19 33 49 77 90 96 104 116 131 136 140 146 144 146 158 166 174 177 175 179 181 186 190 195 200 203 201 202 200 200 207 209 211 210 210 209 210 211 208 207 208 204 204 204 201 202 201 201 201 203 200 199 199 200 202 201 198 195 191 190 188 183 180 178 173 173 165 156 157 149 141 137 121 126 114 85 68 56 41 33 31 29 27 28 29 24 17 8 8 19 32 29 25 35 39 60 75 95 111 116 126 138 140 141 140 148 158 166 173 175 175 178 185 189 188 192 196 199 198 200 201 204 207 209 212 212 210 210 211 211 211 212 213 210 209 209 206 206 201 200 201 205 200 200 200 200 200 200 198 193 188 185 190 187 183 181 177 167 164 158 161 157 142 138 127 123 112 89 69 62 53 36 31 28 27 26 27 22 16 11 11 16 29 27 25 38 42 65 79 102 118 118 128 139 141 145 143 151 157 164 171 173 175 173 179 184 185 188 192 194 194 195 199 199 209 209 210 216 209 209 214 213 215 216 212 209 208 207 204 205 206 203 201 199 201 202 201 200 198 197 196 195 193 192 191 188 184 182 179 175 170 159 160 158 144 138 131 125 108 76 60 49 38 34 33 30 29 28 28 23 18 13 10 17 19 33 22 35 44 63 72 96 117 119 127 136 143 149 150 154 160 168 174 176 176 172 174 182 184 187 188 190 193 197 198 199 206 207 207 213 207 210 213 214 213 212 211 211 207 207 207 205 205 207 205 202 201 201 201 200 198 196 194 191 188 187 191 187 185 182 179 177 172 162 160 157 148 137 140 134 112 86 64 48 34 40 32 31 30 32 33 31 26 15 11 15 23 37 25 37 36 53 72 94 116 125 126 133 144 154 153 158 160 166 172 173 175 176 180 183 185 187 186 186 194 196 198 200 209 210 212 214 208 210 212 212 210 211 212 214 213 209 205 203 200 200 201 201 199 198 200 200 196 193 194 191 187 187 188 185 184 180 178 173 169 165 160 156 148 135 144 140 114 93 68 54 42 32 25 26 29 30 35 32 25 17 11 14 26 24 25 28 28 45 72 90 118 130 126 133 146 156 157 162 160 167 173 174 174 180 182 181 181 186 187 188 192 196 199 200 204 207 209 210 209 211 211 209 210 210 207 206 204 203 203 201 194 196 197 197 193 192 196 196 193 193 191 189 188 185 185 186 184 182 179 174 169 167 161 157 148 136 142 142 126 98 70 49 38 26 26 26 30 28 31 28 17 13 9 19 19 26 29 27 30 42 61 85 110 122 127 129 143 157 160 160 163 165 171 178 180 183 179 181 182 187 191 192 192 195 199 204 204 208 210 208 208 210 212 210 212 213 212 209 208 205 205 200 197 196 197 194 190 189 192 191 191 190 189 187 185 187 184 187 187 185 182 177 172 168 163 157 150 144 141 137 131 113 81 57 44 35 27 20 24 21 25 25 16 13 7 25 16 21 25 26 30 42 56 85 111 119 128 133 147 156 155 157 159 163 167 174 177 181 176 181 181 182 192 193 196 196 198 199 202 204 204 206 209 210 211 210 212 210 208 211 208 205 203 202 199 200 198 192 187 188 192 192 190 189 189 186 187 184 184 187 187 183 181 175 170 166 161 155 152 149 143 138 135 123 93 68 58 50 30 17 17 16 18 20 18 12 5 33 20 23 27 28 32 43 54 82 115 128 122 130 145 152 151 158 159 162 166 170 173 175 172 177 178 180 187 189 192 193 194 195 198 199 196 197 195 196 198 202 204 201 203 205 199 200 200 199 198 195 193 190 190 190 191 192 189 188 187 186 184 183 183 186 185 181 176 173 167 163 156 152 153 153 147 138 134 122 100 81 75 73 46 20 19 17 16 17 18 16 6 36 21 24 31 31 33 41 57 82 117 131 121 130 138 147 153 161 161 163 167 171 174 172 170 177 176 179 184 186 190 191 191 191 196 200 200 203 201 201 200 202 202 201 199 200 199 202 202 200 198 194 194 191 190 190 190 191 191 191 190 188 187 187 189 189 186 181 176 171 164 159 155 151 152 154 149 140 130 118 103 90 90 88 60 27 27 25 18 15 15 17 10 27 30 21 27 30 34 47 62 85 112 126 131 133 134 145 158 159 160 164 167 170 173 172 173 180 179 180 184 187 190 191 193 195 200 201 199 198 196 197 198 198 199 206 203 201 201 203 202 198 194 193 193 195 193 192 190 189 190 192 192 189 190 187 187 189 186 182 176 169 162 159 156 152 152 152 149 142 131 121 107 92 94 100 82 38 24 30 25 16 11 20 12 23 24 24 25 29 33 48 63 82 105 123 134 137 136 144 152 155 156 161 169 173 174 173 174 182 182 182 185 187 192 194 195 197 202 202 197 194 197 198 200 204 206 206 202 201 201 199 200 199 196 194 195 198 196 194 191 190 191 193 193 191 192 189 189 190 189 184 178 169 161 158 155 153 150 146 143 139 133 120 104 93 96 102 85 45 23 32 33 21 15 18 19 15 17 22 22 30 43 57 70 91 102 115 129 133 135 142 147 147 151 159 165 172 177 180 180 186 189 186 187 188 194 197 195 194 198 200 200 201 199 199 198 199 202 203 203 206 209 203 203 205 203 202 201 200 200 198 196 193 192 192 193 194 192 190 191 192 190 185 180 171 162 159 157 153 145 140 135 133 130 119 101 96 101 105 98 56 21 26 31 29 22 17 19 16 17 19 22 40 63 71 82 101 107 111 119 128 133 143 147 147 150 159 163 169 181 186 182 186 191 192 190 191 196 200 198 201 201 203 202 202 202 201 200 199 204 203 204 210 215 210 205 209 211 208 206 205 195 196 200 199 194 193 193 193 193 192 190 189 186 181 179 171 160 154 153 149 148 143 135 125 120 114 104 99 102 108 100 66 30 22 23 28 29 21 19 21 17 21 31 59 89 91 88 99 109 116 120 122 131 145 151 149 153 161 165 172 184 185 185 184 188 192 191 194 198 202 203 205 205 208 207 206 201 205 204 201 201 205 207 207 207 210 217 218 214 207 204 200 194 192 200 201 202 197 191 189 190 192 194 184 182 178 173 170 163 148 138 150 148 148 143 124 113 112 105 99 104 110 102 77 48 27 18 24 26 23 19 26 20 26 43 76 103 104 97 96 101 113 120 121 131 143 145 146 155 161 169 174 179 187 187 183 186 192 191 196 198 202 206 202 204 206 208 208 205 210 213 210 209 208 216 213 209 212 214 217 216 213 212 209 206 195 197 203 200 194 188 188 190 190 193 187 179 169 162 152 139 122 124 131 131 135 139 129 109 105 103 95 106 111 113 83 50 46 30 22 20 22 19 32 34 37 52 85 108 110 93 97 107 109 112 119 137 140 143 143 151 165 167 171 179 183 182 180 182 187 191 196 198 202 209 197 200 204 206 207 213 217 216 216 217 214 217 217 211 209 212 214 211 207 205 204 207 195 193 198 186 181 176 174 177 166 168 168 165 162 145 137 126 111 122 114 116 111 105 111 102 95 98 101 109 114 111 95 67 46 35 24 17 28 23 37 34 34 56 92 115 111 100 88 101 107 99 117 136 138 137 134 136 150 162 171 176 182 180 179 191 191 200 198 193 200 202 195 206 209 207 208 213 217 214 211 214 217 213 213 211 206 206 209 203 199 197 203 205 191 190 188 151 149 142 131 127 127 123 122 116 118 113 119 122 113 116 109 109 103 90 84 85 87 93 100 112 124 110 105 90 90 68 43 19 18 20 35 28 33 59 97 114 107 108 94 88 92 92 122 133 122 114 113 122 135 145 154 158 169 168 164 176 187 190 195 195 198 194 191 202 203 203 204 210 214 210 208 209 212 214 212 205 202 204 206 201 194 191 199 184 175 167 154 115 123 120 111 101 113 110 117 105 103 102 105 111 107 114 108 111 114 104 93 90 88 91 95 114 123 118 106 83 75 88 61 28 13 18 30 32 33 56 99 115 107 109 106 88 86 95 107 95 76 92 104 115 126 118 120 130 135 136 129 141 153 146 154 168 180 183 177 185 191 198 200 206 206 205 202 202 205 205 204 201 199 199 197 191 183 178 176 163 154 141 108 111 117 103 91 96 89 100 110 115 105 99 110 112 111 119 110 107 111 105 104 111 92 91 100 108 120 120 112 105 77 83 70 50 25 20 34 29 22 49 98 119 111 107 104 82 68 76 77 73 76 93 99 107 114 111 108 108 105 108 108 117 119 98 101 117 136 149 154 164 177 186 192 197 199 200 200 198 202 202 200 199 198 197 194 190 184 176 158 148 144 147 130 120 123 102 83 84 93 106 120 132 127 133 136 135 130 131 133 120 127 119 122 110 105 99 91 112 122 124 115 109 87 74 75 68 29 17 30 16 26 58 101 115 108 110 102 81 66 69 83 84 88 91 91 97 105 111 115 111 98 97 94 94 103 90 87 95 107 120 126 144 164 175 178 181 187 197 198 197 202 203 201 196 193 188 185 189 186 178 163 158 146 138 130 129 111 111 131 150 164 166 171 175 176 176 170 164 153 144 139 129 128 132 125 128 131 118 94 111 123 122 112 104 88 85 79 69 41 35 21 34 45 71 102 114 107 107 97 80 65 87 98 99 105 117 124 130 138 137 133 143 139 130 124 102 94 103 96 100 111 120 124 139 150 163 171 173 181 193 193 195 201 205 202 193 190 185 179 182 180 172 163 154 142 124 116 118 134 146 156 162 163 156 165 164 164 158 157 156 153 152 152 140 134 142 142 156 152 125 96 116 126 118 111 103 94 83 76 64 51 33 42 54 48 74 105 111 113 111 97 85 82 88 98 107 118 131 152 160 167 168 169 167 179 179 185 179 172 159 143 128 112 119 124 143 150 146 159 169 180 190 192 193 193 202 200 189 186 182 185 173 164 161 151 132 115 111 129 143 143 127 118 119 87 65 63 54 52 66 77 93 113 131 139 142 142 142 156 158 146 124 108 128 131 118 114 104 99 92 82 76 42 32 50 46 48 88 110 113 112 106 94 85 89 95 100 113 127 147 158 162 167 173 182 186 190 184 190 190 182 175 166 157 149 133 118 114 119 140 151 161 171 170 174 184 190 201 198 187 183 179 174 168 157 142 125 109 123 135 135 117 121 138 122 79 71 74 67 62 37 49 67 62 70 97 115 137 143 143 161 153 147 140 122 128 133 123 119 105 102 97 89 67 46 42 35 47 76 102 114 110 111 109 104 105 114 119 115 119 124 142 157 168 170 164 160 155 133 120 105 99 92 108 129 126 118 128 134 126 109 109 120 138 154 163 174 179 190 199 200 189 182 174 168 162 146 124 119 129 150 142 123 137 152 145 134 95 78 81 77 74 39 81 148 124 70 61 97 133 147 148 146 143 144 143 136 126 134 127 115 110 101 97 100 75 63 40 49 74 88 106 117 117 106 104 110 127 136 135 132 134 138 146 157 143 117 81 63 83 39 46 46 61 75 73 104 137 149 131 121 123 136 133 114 113 122 141 158 172 189 202 205 195 179 169 163 151 131 137 140 151 140 139 165 154 132 181 209 127 87 62 47 69 38 109 168 152 131 96 61 100 132 131 135 141 145 141 136 135 134 125 119 115 102 80 84 97 70 51 73 69 77 104 116 118 115 111 113 133 145 153 140 133 135 142 117 89 58 54 110 102 42 62 62 101 77 78 146 157 141 168 141 134 133 140 141 130 122 122 136 164 188 201 206 196 183 172 158 149 144 151 150 137 156 169 147 123 149 179 185 147 98 108 109 94 99 136 156 139 134 126 103 104 127 134 144 154 156 146 146 149 136 124 122 116 106 92 70 74 77 71 83 67 92 111 117 122 115 114 122 143 152 149 144 140 141 127 95 58 68 123 180 122 39 68 50 44 80 69 166 220 178 134 146 158 159 136 137 139 144 131 132 161 187 203 204 196 190 173 162 140 148 152 149 146 188 168 135 148 159 166 176 170 159 163 161 159 160 157 156 153 146 131 126 141 158 162 159 161 160 150 150 156 139 127 121 112 109 106 75 48 54 76 61 84 96 101 117 115 121 120 124 140 145 149 137 129 138 129 91 108 127 151 155 146 75 65 74 73 92 106 186 184 187 150 133 139 177 188 157 149 151 146 132 155 184 202 204 197 190 176 166 141 144 157 153 177 179 144 160 174 179 170 170 168 176 180 186 186 170 166 172 164 141 137 153 166 171 170 162 162 159 155 158 158 141 131 121 113 112 87 84 82 61 71 67 92 93 103 123 117 113 120 129 146 149 151 142 125 131 124 110 136 144 146 146 151 148 132 120 137 143 158 175 185 165 162 166 155 132 178 179 174 160 144 127 152 177 196 200 195 188 177 167 144 134 153 169 203 184 170 182 183 175 170 176 181 186 186 191 191 179 169 165 151 144 160 167 175 174 171 168 164 162 162 163 155 141 135 121 110 114 92 80 72 63 94 83 83 99 117 116 115 118 127 140 149 154 154 150 139 134 137 139 134 150 157 168 165 160 178 164 178 173 186 182 186 175 181 182 176 172 184 193 193 175 152 126 154 177 191 196 195 188 178 167 150 131 136 168 188 193 189 179 178 170 162 164 168 172 173 172 170 167 159 152 151 161 171 172 175 177 168 169 163 162 168 167 159 145 136 123 113 111 97 65 66 67 97 82 79 97 116 114 113 121 132 149 153 151 156 160 155 151 147 143 146 149 158 171 174 183 189 182 190 186 187 177 166 170 179 193 191 192 197 202 189 164 145 125 160 178 189 197 196 190 180 172 159 136 134 163 170 187 190 185 186 183 177 174 164 160 162 156 154 154 157 156 165 178 183 181 181 184 177 169 160 161 171 171 161 145 134 121 113 111 101 67 58 72 127 96 81 91 107 108 112 123 139 156 153 147 154 161 160 158 152 154 150 147 158 157 166 175 177 178 179 170 157 158 160 168 179 185 190 190 189 182 180 157 132 135 168 182 190 196 194 190 184 175 159 147 131 151 166 179 194 193 193 191 189 188 192 185 187 179 176 173 179 177 185 190 190 188 183 178 175 168 161 161 171 172 165 148 137 125 115 108 96 70 58 63 134 90 79 89 104 108 111 127 146 158 157 156 155 160 161 162 166 167 149 154 163 150 154 153 149 154 152 157 161 166 174 184 185 188 194 193 184 174 174 149 126 154 175 188 193 195 190 189 183 177 169 161 137 142 170 179 193 202 204 197 196 189 194 195 190 185 187 188 193 188 190 195 194 194 187 178 176 174 170 169 167 168 165 150 140 127 116 105 96 71 51 66 132 76 80 89 100 107 103 121 141 149 155 158 157 155 161 170 176 175 169 176 180 173 168 166 164 167 171 172 188 189 188 197 195 195 196 190 183 180 171 142 133 167 177 191 195 196 192 192 185 179 176 166 142 129 165 173 184 194 204 207 198 205 204 203 201 195 190 199 201 193 193 195 195 193 191 185 179 174 172 172 170 165 156 149 140 128 111 110 104 73 46 91 138 80 60 93 106 101 108 126 140 153 159 157 152 155 164 170 175 180 184 185 189 191 189 192 187 184 196 190 191 198 200 203 208 209 200 191 185 178 152 129 140 163 180 191 192 190 185 186 180 179 177 164 141 122 150 165 184 195 191 206 205 213 206 201 203 204 197 200 203 196 198 199 189 191 191 188 183 176 173 174 173 168 159 149 141 129 111 108 104 73 53 94 142 67 83 79 91 108 111 127 143 154 157 159 156 160 163 168 176 180 183 186 190 194 196 193 192 196 200 202 199 201 205 208 206 201 192 184 181 171 140 124 146 158 175 187 190 189 182 182 175 174 172 148 141 134 135 155 177 193 186 199 208 203 204 201 201 203 201 201 200 194 197 194 193 193 192 187 183 185 180 176 170 163 160 150 141 128 113 98 101 72 53 100 147 38 81 95 92 95 106 124 144 151 156 158 158 162 161 170 176 179 184 189 194 199 196 194 198 200 201 201 199 206 207 207 201 197 192 184 175 152 134 134 145 156 170 183 184 187 183 180 178 174 159 137 146 144 130 146 164 191 195 195 204 188 180 197 201 203 201 203 200 195 198 191 194 194 192 187 181 181 179 178 173 169 160 151 143 129 112 97 102 71 48 92 144 54 42 83 93 99 102 119 144 151 154 160 159 165 166 173 175 180 184 189 196 196 195 198 203 200 202 200 203 209 206 202 198 195 191 181 166 143 132 140 145 153 167 178 181 184 179 178 178 170 154 138 147 151 137 140 158 176 194 203 205 191 177 190 201 200 201 200 201 199 201 200 193 193 192 188 184 182 178 178 173 168 161 156 149 131 113 99 101 72 50 80 141 65 64 73 93 97 104 121 149 155 159 159 157 169 173 175 175 180 184 187 194 191 192 194 197 196 199 203 207 206 201 199 198 194 183 169 155 139 137 142 141 147 163 172 179 183 177 177 176 163 150 136 142 151 142 138 146 167 185 195 206 208 197 201 207 202 204 203 201 199 197 197 190 188 188 188 184 185 177 180 178 171 163 157 153 138 114 90 90 77 63 96 141 88 67 75 103 104 106 127 144 152 157 159 162 169 177 176 174 178 182 186 191 187 188 188 188 198 198 208 208 198 197 197 195 191 178 161 146 137 141 141 141 147 157 164 174 179 173 176 172 162 150 137 137 141 139 138 140 157 180 189 198 208 204 205 205 200 203 204 199 200 197 192 183 182 184 185 183 183 177 179 177 170 162 155 145 138 115 101 78 72 57 115 152 115 55 73 102 101 102 124 141 152 156 163 165 172 178 178 177 174 179 184 183 186 188 191 197 200 201 205 203 199 200 196 186 183 172 157 150 145 143 135 135 148 159 167 177 182 177 175 167 164 152 140 140 140 136 137 137 144 168 183 192 203 201 206 206 203 205 200 197 200 199 192 183 181 183 188 187 183 179 177 175 171 164 156 145 132 112 96 92 56 63 135 156 128 46 63 97 101 94 121 141 154 164 167 170 173 178 180 178 172 172 178 179 185 189 194 201 204 203 200 203 199 196 191 180 179 170 160 155 142 139 136 141 150 159 168 177 187 184 178 172 165 152 148 147 141 137 132 139 145 158 175 182 196 199 206 207 202 204 203 200 196 196 193 188 182 184 186 186 183 179 173 171 168 164 160 148 128 106 101 87 49 77 141 160 118 49 62 106 110 100 122 140 152 161 163 170 176 176 178 176 169 170 176 179 183 188 193 200 200 203 198 198 201 193 186 180 180 177 165 147 132 131 135 146 154 158 170 184 192 191 182 171 159 150 150 149 144 137 131 137 155 161 166 176 184 194 201 204 204 205 203 202 196 193 192 191 185 183 185 183 179 174 166 161 159 159 155 141 125 108 92 66 41 102 167 173 112 56 61 95 94 99 123 142 157 166 156 170 175 175 177 171 170 174 183 185 191 196 200 202 202 201 199 200 199 194 190 190 191 185 165 136 126 134 143 149 160 164 174 187 189 195 186 174 163 156 155 151 151 145 130 130 151 167 176 181 183 189 196 200 206 206 205 202 198 193 188 193 188 184 186 184 173 169 163 157 162 159 148 139 124 110 96 79 53 117 183 190 127 65 50 82 103 94 109 142 153 158 162 171 172 170 171 171 172 180 186 187 194 198 201 203 202 201 203 200 195 195 194 197 200 189 154 129 123 140 153 156 158 164 173 185 189 189 185 179 171 162 159 156 153 146 124 114 135 168 186 188 189 190 191 194 201 205 205 203 199 193 187 188 185 183 187 178 171 169 163 157 158 153 146 137 120 104 98 75 55 147 190 184 152 75 42 77 102 100 106 133 152 159 166 173 172 172 172 174 175 181 187 188 196 201 201 206 200 204 201 198 199 202 200 205 201 176 144 129 123 142 157 164 161 169 172 178 186 186 177 168 165 161 158 161 156 148 131 121 126 159 188 199 200 199 194 192 194 204 206 205 202 198 188 187 183 184 185 176 173 172 166 160 157 154 148 138 119 104 86 43 46 111 175 177 161 67 42 69 80 94 100 127 152 160 162 166 169 171 172 174 177 182 187 190 197 203 205 207 202 199 201 199 203 208 206 205 190 156 138 131 130 142 157 164 159 163 166 170 182 188 178 167 156 154 156 162 160 152 143 135 119 136 169 193 207 206 201 197 196 200 201 202 201 201 192 189 183 185 184 175 176 170 166 162 153 148 140 128 108 99 84 37 16 14 54 81 181 79 42 68 91 95 97 122 147 151 158 165 170 173 176 177 180 183 188 192 197 202 204 208 202 201 203 202 203 208 206 199 176 143 137 132 135 148 158 158 154 147 150 161 172 180 174 158 147 147 153 163 160 159 151 135 130 130 159 192 197 204 204 199 195 192 196 199 200 200 194 190 185 186 182 176 176 164 162 158 153 145 138 129 112 99 93 53 8 1 3 3 195 133 58 63 104 106 100 121 146 147 150 163 171 173 177 179 182 182 188 192 195 198 200 204 201 204 205 205 203 205 201 193 173 143 133 132 140 153 156 150 139 133 145 164 173 180 174 153 144 145 149 160 160 162 151 136 134 127 154 183 198 202 205 200 196 191 194 195 195 196 191 187 185 183 178 179 174 158 154 156 145 138 134 127 112 106 97 47 0 8 2 3 190 157 71 58 99 103 104 111 151 141 151 159 168 174 178 180 184 184 189 193 193 193 196 201 200 200 206 206 209 209 197 193 181 144 124 128 143 157 153 142 128 138 162 186 194 192 187 156 145 143 144 150 155 158 151 137 128 119 154 189 190 196 199 199 198 191 191 190 190 186 189 186 183 183 178 173 173 165 154 148 148 140 137 131 113 107 97 33 11 1 2 0 132 76 23 52 96 98 103 110 143 144 148 156 163 173 177 181 183 183 185 190 188 192 198 199 205 204 205 207 206 199 192 193 187 151 116 125 142 157 152 137 128 155 185 208 213 216 209 172 158 148 145 146 150 160 153 140 123 114 158 184 183 188 191 192 195 196 190 190 191 187 192 185 181 179 173 172 169 165 149 143 145 139 139 135 120 102 95 25 3 2 3 1 19 3 7 31 92 100 103 116 134 142 144 148 158 169 179 181 184 183 182 188 188 190 193 196 197 202 206 204 195 187 189 190 186 159 116 114 131 149 138 125 143 179 199 202 201 205 216 194 167 161 149 138 140 147 137 130 116 121 171 182 183 185 185 188 195 198 189 191 193 189 189 183 180 176 171 170 163 160 145 145 149 142 144 138 121 103 92 18 3 2 4 1 7 3 1 21 77 102 104 121 131 143 144 146 153 163 177 179 184 182 181 185 190 191 194 194 196 199 201 199 189 181 185 181 180 163 122 97 103 117 123 120 133 174 188 186 184 180 177 193 186 161 139 130 117 90 100 103 98 136 187 179 180 185 185 188 190 196 191 193 193 188 184 181 177 175 170 164 160 161 143 146 148 144 143 139 123 109 88 10 1 2 1 2 6 7 11 0 61 112 107 122 141 150 145 143 149 161 170 174 181 179 180 182 185 179 187 193 195 196 192 192 188 180 177 177 178 169 151 123 95 77 82 94 112 147 166 172 172 171 164 172 173 138 112 88 66 74 80 97 115 154 177 175 181 183 182 189 187 187 191 192 189 185 180 178 173 169 169 163 150 161 144 143 147 141 140 136 124 112 86 7 3 1 2 2 3 5 5 0 60 107 106 123 136 148 151 144 146 157 166 173 176 176 178 179 177 164 174 193 194 191 188 186 182 177 175 174 169 166 168 150 138 132 96 71 76 103 137 149 154 154 144 147 131 101 73 88 116 120 122 131 159 155 158 181 178 179 179 185 186 182 187 189 187 185 181 180 175 167 163 153 140 150 145 139 143 143 140 135 128 106 90 11 2 1 0 1 3 3 6 1 42 108 106 129 134 153 154 143 140 147 164 172 175 177 175 174 178 181 182 191 192 188 185 178 173 173 174 169 166 160 163 159 151 134 136 150 102 61 92 118 124 120 127 117 84 85 131 149 159 149 141 143 149 155 159 171 180 179 177 178 180 181 184 184 182 178 171 173 170 163 156 151 136 151 158 141 139 144 141 133 127 109 97 19 0 3 0 2 3 3 4 3 38 104 100 128 144 152 155 146 141 147 158 169 172 173 174 170 175 184 190 191 196 185 180 179 174 160 170 167 162 156 153 142 154 144 152 148 168 152 106 87 74 69 61 68 123 164 161 168 168 150 140 146 154 158 166 170 180 180 177 174 170 175 178 179 176 174 167 162 163 158 150 143 135 158 165 146 142 143 137 131 126 110 100 25 0 1 1 2 4 4 3 3 21 91 111 128 137 159 164 156 145 146 156 163 169 169 171 166 171 183 189 181 184 175 174 174 161 162 168 167 162 157 149 147 156 150 157 156 171 190 190 173 137 148 154 148 165 172 164 175 169 158 149 140 139 157 170 170 176 179 168 166 165 165 169 174 174 174 168 160 159 153 146 139 139 166 164 156 145 139 135 131 122 110 97 28 1 0 1 2 4 4 2 1 16 68 108 125 143 155 167 161 148 142 157 160 169 164 167 170 178 184 181 174 173 169 169 169 155 165 160 157 162 147 142 148 150 151 159 180 170 180 190 192 167 167 153 139 163 174 164 170 168 164 162 138 131 147 156 161 171 174 164 162 159 156 156 170 178 176 166 162 154 147 147 135 141 168 168 156 147 140 136 130 121 110 95 29 2 0 1 2 4 4 4 2 11 86 109 124 142 151 162 165 153 143 154 157 166 162 164 170 182 181 172 167 166 160 158 157 156 157 153 152 158 149 140 146 142 145 157 187 177 184 182 174 157 169 175 163 154 181 175 179 169 153 160 139 125 130 145 159 162 161 154 157 165 165 154 163 174 169 162 158 156 148 142 133 148 172 167 151 145 139 133 125 120 114 98 39 0 1 1 0 2 4 3 4 10 71 104 124 139 150 158 160 150 141 155 157 167 159 154 170 176 172 159 164 159 159 141 161 169 149 149 149 148 145 150 150 146 150 166 181 162 170 161 159 173 181 175 160 159 164 157 170 170 161 149 142 143 131 130 147 146 145 138 149 156 158 158 167 177 166 156 152 153 144 129 131 152 166 157 143 138 131 129 128 121 113 100 37 0 0 1 1 2 3 4 1 7 69 100 111 131 148 166 170 166 156 160 157 157 154 150 167 172 161 161 155 137 156 144 156 162 148 155 160 154 145 142 145 155 173 166 162 159 170 178 167 169 176 175 161 159 176 170 169 160 156 151 134 138 131 124 137 140 147 139 145 149 155 169 162 162 160 156 150 146 136 125 136 158 169 157 148 144 136 133 130 122 112 99 36 0 0 1 1 2 1 5 4 7 74 101 104 128 149 166 171 166 149 155 161 159 160 147 159 176 167 169 155 155 160 134 137 147 138 142 153 156 152 152 158 162 168 166 168 181 186 184 182 175 169 175 173 172 177 184 179 159 160 146 136 144 130 127 139 145 152 142 146 137 144 168 159 163 160 159 151 142 130 126 142 160 167 161 155 151 143 135 126 120 113 99 32 0 0 0 1 2 1 4 5 2 61 97 101 126 145 158 167 170 153 146 164 160 164 139 152 184 180 169 161 160 147 121 130 143 147 143 152 167 172 165 173 177 173 173 178 183 185 183 182 180 176 182 184 186 177 183 184 170 170 161 161 156 156 137 133 147 140 138 118 121 134 146 147 164 158 149 146 142 128 125 147 166 162 160 156 154 141 132 127 122 116 98 26 0 0 0 1 3 4 4 3 0 43 95 100 118 132 152 159 168 161 147 156 147 159 146 151 184 179 159 167 175 166 144 130 111 117 131 149 162 167 158 162 167 165 167 167 161 164 168 165 175 185 185 175 176 171 172 176 170 173 169 155 159 159 151 141 146 136 126 104 94 112 132 143 156 159 164 157 139 124 122 139 158 163 158 156 154 142 137 129 116 108 95 5 1 0 0 0 2 3 4 4 1 35 86 93 113 136 158 162 167 176 155 151 167 158 153 148 170 180 168 179 183 175 174 164 137 99 86 99 108 113 111 114 123 120 121 123 124 130 130 125 140 151 159 146 141 135 136 141 141 150 151 145 161 146 144 136 123 120 96 99 130 141 152 161 165 164 177 162 132 125 127 148 162 155 141 149 152 145 145 132 107 106 79 2 0 0 0 0 3 4 3 3 1 21 76 89 110 131 155 159 164 173 157 150 164 160 150 142 156 179 178 176 177 186 188 173 151 136 107 61 49 76 76 100 110 109 119 124 129 130 125 122 115 120 125 115 118 124 130 127 112 114 118 110 102 101 97 88 80 85 106 136 165 172 158 158 165 173 180 154 126 125 133 161 170 156 144 150 153 150 151 132 101 98 52 1 0 0 0 0 4 3 1 2 1 7 65 89 107 128 148 153 161 169 165 166 166 163 160 148 150 175 184 180 182 176 169 172 167 154 142 120 96 98 98 117 137 150 167 201 206 196 197 202 202 206 201 195 215 219 207 196 158 160 139 75 67 85 87 100 112 124 143 154 169 177 169 170 175 174 172 141 116 122 139 152 157 153 150 141 154 151 147 125 111 97 31 1 0 0 0 0 3 2 2 3 4 1 55 84 101 119 137 144 159 168 159 156 167 163 152 149 142 160 181 181 184 177 168 169 166 154 137 132 119 114 115 108 109 115 121 136 161 153 180 222 218 214 202 207 213 207 191 178 136 122 111 102 108 124 125 120 131 140 150 161 171 170 174 180 171 182 169 138 111 124 147 158 145 143 138 144 148 148 141 114 96 73 10 1 4 0 0 0 2 3 2 6 4 4 37 86 102 107 127 143 151 166 168 158 149 158 154 153 133 142 166 171 174 171 171 170 165 167 163 146 126 120 117 128 141 139 136 128 118 113 121 138 137 123 123 126 120 127 114 109 108 126 131 141 140 140 146 143 149 156 156 160 164 165 169 172 162 167 148 124 116 135 150 162 146 143 144 144 144 146 142 112 86 37 0 1 0 0 0 1 1 5 5 4 8 5 19 78 103 102 126 144 151 163 168 166 157 158 159 153 141 148 158 162 171 177 177 174 171 156 154 156 142 136 133 135 144 140 142 153 149 135 141 146 131 129 131 123 127 141 135 144 147 156 154 160 150 157 151 151 150 157 156 160 165 163 165 169 162 164 146 114 116 143 152 154 151 156 156 148 145 137 130 111 78 14 0 1 0 0 0 0 3 7 10 12 12 13 5 52 89 92 112 138 146 151 158 164 162 148 148 150 143 144 150 159 165 175 180 173 172 161 156 157 146 143 149 152 154 156 158 162 161 161 165 169 165 160 153 150 157 156 155 174 170 167 167 165 161 164 157 146 146 156 158 165 157 159 165 172 164 154 134 109 123 147 148 146 152 155 150 143 138 123 113 93 55 1 1 1 1 0 0 0 3 10 14 17 17 16 9 18 70 85 97 125 135 142 153 156 164 151 148 148 143 139 140 157 160 167 176 173 170 167 153 156 153 144 152 162 170 165 169 168 165 177 179 172 165 161 168 164 156 165 166 166 164 172 163 153 158 154 144 145 147 160 163 163 159 163 172 173 161 143 114 112 138 147 152 159 153 147 147 137 130 121 108 78 16 0 1 1 2 0 0 0 4 10 17 15 20 14 14 13 42 76 94 106 124 135 152 149 154 153 146 142 142 137 137 152 154 157 165 174 163 162 156 160 157 146 145 152 160 160 161 164 162 165 164 159 150 151 163 152 144 149 150 161 152 157 156 152 148 142 150 156 162 167 165 159 155 161 172 167 150 127 113 125 150 150 145 150 147 133 138 126 112 109 77 38 0 1 0 1 1 0 0 1 10 14 19 19 18 19 14 9 12 53 80 89 103 126 143 136 140 140 150 137 142 139 138 135 148 156 161 175 169 159 160 160 161 161 152 149 152 149 146 157 158 155 160 160 155 151 149 144 129 145 153 153 143 143 136 143 147 151 163 166 170 167 163 160 158 162 163 164 152 116 115 129 142 157 155 150 143 131 131 128 110 87 34 4 0 0 0 0 0 0 0 0 10 14 18 19 19 14 13 8 1 26 64 69 100 126 128 122 138 150 153 143 140 146 132 134 140 157 162 172 169 162 165 162 167 160 154 155 159 154 150 158 159 164 167 159 153 144 135 128 139 140 143 157 140 143 151 166 169 154 160 169 166 161 164 171 167 160 164 157 131 115 122 137 148 154 155 137 127 125 120 121 94 46 8 1 0 0 0 0 0 0 0 0 10 14 16 16 16 14 10 9 7 9 27 76 84 105 127 136 132 141 152 144 142 151 146 138 137 141 152 169 165 170 167 165 165 160 161 163 159 156 166 161 164 171 168 160 158 152 142 133 143 152 146 146 143 150 168 162 165 160 162 167 169 169 170 175 164 162 166 145 124 130 134 147 150 148 148 126 117 118 107 86 46 9 1 1 0 0 0 0 0 0 0 0 11 15 16 16 13 12 9 8 6 9 14 44 64 89 100 126 135 150 144 139 138 153 159 137 143 147 147 152 173 173 166 165 175 165 165 164 168 171 173 170 175 180 176 164 164 167 160 157 154 150 150 154 160 163 177 173 167 175 171 171 173 173 172 168 162 164 160 135 132 120 134 148 142 145 134 127 116 102 81 51 25 9 2 3 0 0 0 0 0 1 3 2 10 15 18 17 13 11 8 7 4 10 49 18 39 69 96 116 118 114 142 139 134 143 149 137 135 136 142 153 165 163 165 170 172 170 171 172 173 174 174 175 177 178 176 169 163 169 166 161 158 155 154 160 170 169 176 173 171 174 169 174 173 170 168 161 161 156 156 143 127 126 125 141 138 128 126 124 101 71 44 26 19 9 2 2 1 0 0 0 2 3 4 2 12 14 15 12 10 7 4 5 6 7 67 88 12 48 76 88 112 118 131 138 135 142 145 136 134 132 139 154 148 160 166 170 169 176 174 175 174 173 177 177 177 180 180 170 167 171 167 162 152 163 164 163 179 174 174 176 177 171 173 175 176 169 163 160 164 150 162 147 135 125 129 132 134 127 111 106 75 31 12 25 69 82 1 4 1 0 0 0 2 3 2 4 12 15 14 12 8 8 5 4 5 7 57 117 83 33 29 70 85 103 116 135 142 143 142 141 135 133 132 138 153 163 170 173 175 174 170 169 174 179 176 175 175 181 187 184 182 179 173 175 172 176 172 173 183 175 170 175 175 173 177 175 173 167 162 166 162 158 146 140 133 115 125 128 119 114 92 70 29 17 49 66 133 177 0 3 1 1 0 0 2 3 1 4 13 11 11 9 9 7 3 2 10 10 34 107 137 101 59 27 55 81 97 108 129 145 141 144 138 116 126 141 147 163 165 168 169 169 164 173 178 176 177 175 172 171 181 181 184 181 172 179 185 170 171 176 177 173 170 172 170 178 173 170 166 163 161 161 158 153 142 143 131 112 117 125 104 93 68 36 18 53 103 99 149 204 0 2 1 0 0 0 2 3 2 4 14 11 9 8 8 5 4 4 18 20 57 94 132 134 133 73 11 53 78 92 115 133 131 126 143 120 125 129 145 160 158 157 168 165 165 167 169 171 173 171 174 169 172 175 176 175 166 173 172 165 167 166 174 170 168 163 171 174 166 169 169 160 162 159 160 142 148 140 115 108 98 107 94 59 27 13 67 117 116 92 169 204 4 1 2 2 0 1 2 2 3 5 14 9 8 7 7 5 3 12 24 19 124 114 113 134 146 157 97 13 32 73 84 103 126 115 127 126 127 130 149 147 155 158 168 159 160 165 170 173 170 166 172 170 168 163 183 187 178 177 174 176 174 170 176 169 167 161 168 170 164 166 169 158 162 164 153 141 127 120 103 103 98 84 64 18 17 71 129 126 114 90 187 196 27 2 1 1 1 1 2 3 2 5 14 9 5 10 6 1 12 31 21 22 142 144 112 131 130 153 167 136 31 20 65 76 104 109 108 123 117 133 142 138 152 155 163 152 149 161 170 169 159 157 161 167 166 166 182 184 181 175 183 191 188 179 176 173 168 160 161 159 162 165 166 158 155 154 144 145 133 108 89 88 67 53 20 20 81 136 129 123 114 108 208 193 39 6 5 3 3 3 3 2 3 3 14 8 7 3 5 17 24 32 7 50 134 180 113 128 139 149 166 170 148 67 13 51 68 95 107 105 104 121 132 131 146 152 160 151 142 157 163 160 159 163 163 161 171 185 187 182 191 189 186 190 191 189 176 168 166 163 166 163 155 158 161 161 158 154 143 140 120 85 88 69 39 16 17 102 147 137 131 121 111 147 234 183 65 13 12 6 2 3 3 2 1 5 9 6 4 10 17 26 26 23 2 67 141 185 187 112 146 143 159 164 179 167 92 23 47 68 87 103 110 93 107 125 133 147 152 148 149 165 156 149 151 161 163 174 176 187 192 188 188 184 184 179 184 192 180 175 171 166 168 165 167 160 155 155 147 145 140 130 104 76 54 39 13 30 125 157 150 131 135 119 121 193 236 177 86 19 17 10 5 3 3 4 3 4 8 9 12 25 28 22 22 22 10 74 164 168 235 158 116 157 151 163 151 173 190 126 37 22 65 84 90 88 95 103 114 145 156 145 144 157 145 154 149 154 162 164 173 186 189 192 190 184 190 185 178 181 183 171 168 167 159 156 157 161 145 146 147 136 125 102 70 52 30 13 43 151 166 161 153 139 130 130 157 228 219 180 108 25 23 15 8 5 5 5 4 6 12 18 25 25 22 18 22 30 8 83 185 172 204 228 139 145 161 155 164 179 185 176 134 55 10 48 82 82 86 95 117 131 149 140 137 153 159 169 145 147 160 162 168 173 182 191 189 178 185 189 174 176 181 170 176 177 166 167 162 158 160 145 135 131 104 76 48 27 18 65 149 174 162 160 156 131 138 139 197 238 203 185 128 26 26 19 14 7 5 4 5 5 25 29 21 20 19 21 25 29 4 81 187 186 206 235 214 127 159 158 165 179 184 175 185 170 87 21 38 72 85 80 93 114 126 121 132 150 146 153 138 139 152 165 169 173 184 189 181 167 178 183 168 172 176 173 174 174 163 154 144 145 141 139 153 130 86 47 25 13 71 154 177 174 159 153 151 142 141 157 228 232 193 189 146 35 23 16 14 12 12 8 6 10 22 25 21 20 19 21 23 19 10 75 178 197 207 215 242 202 148 164 166 171 182 190 185 190 191 118 26 30 60 82 85 99 118 113 123 141 144 157 164 153 152 160 158 159 171 169 164 166 168 173 169 168 170 175 172 168 160 150 141 144 141 137 141 85 43 29 15 60 152 180 162 171 164 151 154 149 149 200 242 214 186 197 164 43 12 24 20 11 10 15 14 11 18 22 21 20 19 21 25 20 12 57 174 206 210 211 229 252 201 152 173 173 177 187 193 181 174 186 136 39 20 57 71 84 103 118 118 136 140 154 151 147 144 151 144 154 157 152 162 167 164 167 173 168 157 161 164 163 151 138 125 117 139 118 77 46 19 9 62 146 181 172 165 172 165 160 160 153 179 239 233 201 192 199 168 47 13 22 26 6 11 10 12 10 16 21 20 19 18 20 23 26 12 35 170 208 219 217 216 235 247 217 158 175 165 181 196 187 190 179 194 161 73 22 47 66 77 90 93 117 128 140 133 127 146 150 162 163 161 165 159 162 160 157 172 175 160 152 140 148 138 125 120 103 98 70 23 27 13 62 144 184 164 169 172 165 170 168 158 170 220 243 219 203 207 203 175 103 0 25 23 22 12 7 5 6 20 18 21 18 17 21 22 23 17 21 156 206 221 219 225 226 233 244 216 178 171 171 185 187 194 194 183 197 175 87 29 45 58 60 73 109 115 114 117 111 114 140 151 151 143 143 151 143 154 152 153 158 146 155 140 121 109 96 89 73 43 16 14 19 59 136 172 176 167 162 169 172 173 171 164 202 243 227 211 207 209 202 176 186 67 9 33 13 17 12 7 5 17 18 17 15 16 18 20 24 23 16 144 201 220 230 221 225 233 237 246 232 193 172 179 200 191 188 187 184 196 193 117 28 28 43 52 68 97 96 95 116 111 108 129 128 123 120 136 148 147 126 119 138 127 130 112 92 90 80 44 25 11 19 25 73 133 162 166 176 170 171 169 172 178 164 188 234 235 217 215 218 207 204 171 203 154 0 23 17 17 11 9 9 19 19 16 15 16 18 21 24 21 12 133 195 218 228 228 229 229 231 237 246 237 204 177 183 197 192 192 195 192 191 192 149 68 27 39 43 46 49 63 71 104 84 95 88 96 106 110 123 122 120 114 91 83 74 55 40 34 25 10 10 17 32 87 145 154 159 170 173 172 179 179 179 176 181 230 244 220 219 223 221 208 205 169 205 210 8 18 28 17 11 8 8 21 18 16 15 14 16 19 22 24 14 102 193 212 225 227 235 238 234 236 240 249 242 223 178 187 201 189 194 189 197 196 195 173 107 48 42 32 34 34 29 47 52 62 64 57 45 61 49 56 47 40 21 16 10 10 11 8 5 8 21 62 104 140 141 149 170 170 183 180 183 183 179 181 226 247 229 219 223 228 224 209 203 173 169 236 58 6 30 22 14 8 8 21 18 15 12 12 15 18 21 25 19 74 184 209 223 223 231 239 241 238 235 240 247 249 238 199 185 198 202 194 196 197 196 198 183 148 92 58 35 29 31 29 28 21 17 14 13 11 13 13 11 11 11 4 7 6 5 13 37 94 129 150 149 133 150 156 168 175 176 177 180 177 177 226 250 242 224 228 227 231 226 207 202 177 135 222 128 0 27 23 16 9 8 21 17 15 12 12 11 18 23 24 24 55 165 206 224 224 231 239 240 243 240 238 244 245 246 245 222 204 199 195 198 198 192 189 188 190 180 159 116 83 59 46 35 30 25 22 17 16 14 16 14 20 26 37 57 78 93 114 166 170 159 155 141 131 153 157 167 178 180 180 171 179 224 248 212 166 125 214 232 232 224 208 199 170 130 206 147 16 24 24 21 15 10
