P2
# Generated by OpenCV 4.2.0
92 112
255
32 50 51 31 15 11 22 40 50 63 73 85 100 111 128 126 121 126 113 96 91 96 103 93 90 82 78 69 73 74 96 86 83 85 105 104 98 90 97 109 125 143 142 135 132 126 156 168 181 170 181 186 171 179 199 202 208 209 207 204 207 202 208 209 206 208 209 211 206 208 205 198 188 173 158 157 138 122 79 80 133 132 120 96 123 110 70 66 67 79 78 99 37 29 20 30 29 30 36 49 67 79 95 107 131 147 150 150 150 144 153 140 125 118 121 122 129 121 105 101 91 83 96 92 91 86 97 113 124 102 112 135 167 161 173 175 163 158 179 194 192 189 194 194 190 201 204 203 207 208 209 205 207 203 202 207 205 207 208 209 207 205 204 200 187 174 164 136 129 119 92 58 110 129 134 87 105 104 91 60 64 70 86 89 17 13 23 27 26 20 44 67 91 107 121 142 163 175 175 170 177 170 169 165 170 169 161 153 159 163 140 131 123 106 103 119 91 98 106 114 128 138 146 175 196 206 205 207 205 201 200 206 207 210 210 206 203 206 205 207 207 207 210 209 208 206 202 207 203 204 205 203 205 204 199 194 191 172 161 148 118 108 104 74 67 120 135 104 79 97 100 56 57 61 78 80 17 31 35 34 31 40 55 79 115 141 160 174 175 185 190 189 193 197 198 193 185 190 194 182 182 192 183 163 150 140 111 122 110 119 132 133 151 167 174 182 205 211 213 215 216 215 214 214 216 215 215 214 213 212 211 210 209 208 208 208 205 206 205 205 204 203 204 203 202 202 197 190 183 170 145 134 133 107 99 89 46 88 111 122 67 97 80 69 55 68 76 86 37 35 31 35 33 37 60 99 138 173 187 183 183 188 194 198 204 205 204 205 204 202 201 198 190 193 207 189 168 168 153 132 126 134 164 166 175 193 202 201 212 215 212 213 217 218 219 218 216 217 215 214 215 215 213 211 210 208 205 205 205 206 208 205 205 204 205 204 205 200 187 183 169 157 146 122 105 105 87 97 62 60 98 111 73 85 90 84 50 77 79 70 56 48 37 32 32 49 83 131 169 192 195 187 187 195 200 204 203 204 205 207 210 207 205 208 202 198 212 208 192 188 193 180 170 166 181 196 199 209 213 218 219 219 218 218 219 221 221 217 216 215 211 212 214 215 213 209 209 208 206 206 205 207 207 206 204 203 204 204 201 194 189 183 172 154 137 117 101 85 79 73 85 58 80 94 85 76 94 99 56 77 83 67 45 33 42 56 63 76 107 155 188 200 199 194 196 201 207 209 210 209 207 204 208 211 207 209 212 208 215 217 209 211 210 207 203 200 198 204 212 211 216 220 220 220 219 219 219 219 219 218 216 213 212 213 214 212 210 210 209 208 204 205 207 205 207 203 203 205 205 204 198 190 183 181 179 161 144 120 96 70 58 55 63 63 58 73 90 72 91 93 70 72 79 71 27 48 64 52 47 79 127 166 190 201 204 201 198 203 206 208 209 211 207 207 208 208 210 211 212 212 214 215 216 214 214 215 214 211 210 209 215 216 219 222 219 221 218 221 219 216 216 216 215 214 213 214 216 213 210 208 208 207 205 206 207 206 205 201 203 204 205 201 196 190 181 167 167 168 160 132 105 80 55 35 37 55 55 60 66 72 82 95 75 75 73 69 57 54 50 46 62 92 134 169 192 203 207 203 200 203 206 207 209 208 208 208 207 206 209 210 212 214 217 219 219 220 219 217 218 215 215 210 215 220 220 219 218 220 218 218 215 215 215 216 215 213 213 213 215 212 210 209 209 207 206 206 207 205 201 198 201 202 202 199 193 186 180 172 164 152 149 145 127 95 61 37 23 44 52 52 44 63 64 82 79 73 76 64 63 50 42 50 82 117 153 181 193 205 208 204 201 204 205 207 209 209 209 206 205 204 208 210 213 215 217 218 217 218 218 220 219 219 218 214 214 219 218 218 217 216 216 215 214 214 214 214 215 215 213 211 212 212 209 210 209 206 204 204 206 204 200 197 198 202 201 197 190 182 171 160 162 159 154 136 125 108 68 45 25 22 37 44 43 47 54 77 81 58 74 78 56 54 77 103 108 128 149 170 188 200 207 204 201 202 206 207 209 209 207 205 205 205 206 208 214 216 214 214 213 215 218 217 218 220 218 216 212 217 216 213 212 215 212 212 214 214 214 215 215 215 214 212 211 212 209 208 207 205 205 205 204 204 203 195 197 200 201 194 188 182 174 164 152 144 139 134 121 110 100 65 43 19 25 35 40 31 58 76 82 75 73 82 48 63 89 70 86 105 134 163 186 197 206 204 201 202 205 208 209 209 208 206 205 206 207 210 214 215 214 213 212 209 212 215 218 218 216 216 214 214 214 216 214 214 214 214 216 216 216 216 215 214 213 212 210 210 208 207 206 204 204 204 205 205 202 193 194 195 198 193 187 180 173 176 170 150 128 118 114 106 96 74 59 37 15 30 43 26 60 81 76 86 78 78 27 55 53 64 77 95 134 164 184 196 206 205 204 203 204 207 206 205 204 203 204 207 208 209 211 210 208 209 213 214 214 217 221 218 218 214 213 211 211 213 212 211 212 211 211 214 215 213 213 214 212 210 209 208 206 204 205 205 205 204 203 203 199 193 193 194 194 192 184 173 162 156 153 154 142 119 97 91 82 60 50 55 34 11 34 34 46 72 80 83 79 87 46 51 67 65 71 111 139 162 177 192 206 207 204 203 206 206 208 203 203 205 206 206 208 209 210 214 216 217 217 217 216 212 214 218 220 217 217 216 212 212 215 215 213 212 212 216 216 214 213 214 210 207 208 206 204 202 202 205 204 202 201 202 198 192 191 193 193 193 186 174 169 156 136 132 133 131 103 79 72 64 55 32 46 23 15 38 50 52 82 86 64 82 50 58 47 47 85 110 134 164 177 185 200 207 205 203 205 206 206 203 201 202 201 202 204 206 209 209 212 211 212 212 211 208 207 212 213 214 218 219 216 213 214 213 210 213 213 213 216 212 212 210 211 210 206 204 203 204 204 202 200 200 201 201 195 188 190 192 192 189 180 173 173 164 146 134 123 107 106 95 70 63 68 48 24 39 16 33 59 50 67 100 57 61 48 42 41 65 89 125 146 161 175 183 197 205 204 198 201 205 202 200 198 197 198 199 203 205 205 205 207 207 211 214 210 208 205 208 209 210 213 211 211 211 209 207 206 210 212 213 210 208 205 207 208 209 207 202 202 203 203 202 201 200 201 197 195 189 189 192 189 187 180 174 171 163 150 139 124 113 87 82 76 60 64 71 37 22 25 27 60 59 50 98 77 51 38 36 57 76 104 117 139 157 174 181 192 202 203 196 195 198 202 201 199 198 199 199 201 202 203 203 202 205 206 209 209 207 205 206 207 208 210 210 211 211 210 207 207 207 209 210 208 205 204 205 206 206 204 202 201 199 196 196 197 198 197 194 189 188 189 193 191 188 183 180 174 160 134 122 113 107 104 86 65 62 62 61 63 30 22 29 48 62 60 98 88 43 36 52 62 90 103 114 131 144 165 175 190 199 201 196 192 194 198 200 197 193 194 197 196 197 198 197 197 202 206 208 207 206 203 202 206 206 206 209 209 210 206 205 206 204 206 208 206 203 205 205 207 207 204 202 200 195 195 193 193 195 196 195 191 187 187 193 191 187 185 186 181 170 147 124 103 82 80 90 85 64 63 70 63 46 30 34 52 70 61 86 96 62 48 61 77 78 98 102 111 148 167 174 186 195 199 194 191 195 198 200 197 194 193 194 194 198 200 202 203 204 206 210 209 210 207 207 209 206 201 203 205 203 202 203 203 205 206 205 204 205 206 206 207 206 204 201 197 193 193 195 194 194 197 198 194 191 192 193 192 188 186 186 182 170 155 138 121 107 91 83 77 65 60 69 70 45 49 37 57 68 74 81 84 78 61 76 75 80 72 82 114 135 161 177 184 193 199 197 195 197 199 198 198 194 193 196 199 201 200 197 199 200 201 206 208 206 207 209 210 206 201 200 201 200 201 201 201 204 205 203 204 207 207 208 207 199 196 194 193 192 188 186 190 193 194 194 192 191 191 191 190 190 184 185 183 176 160 140 117 99 93 84 79 84 74 72 74 63 41 49 54 74 84 85 82 88 75 72 71 68 65 96 113 141 162 171 184 192 197 197 195 195 197 198 196 196 194 195 196 195 197 200 200 201 205 207 204 202 204 205 207 206 204 200 198 198 200 203 206 207 205 203 204 203 205 205 204 203 204 201 197 195 195 198 199 198 198 198 197 197 195 192 189 187 187 187 180 174 166 148 138 123 102 83 61 50 41 35 53 72 54 58 55 85 81 81 87 90 71 70 51 54 98 112 104 116 147 166 183 191 196 197 200 201 202 204 203 199 200 200 198 197 198 200 202 203 205 208 206 204 205 204 204 208 206 204 202 198 198 203 204 202 201 203 205 206 208 209 210 207 208 203 199 199 200 204 204 202 199 198 198 200 200 193 189 187 188 188 183 179 170 162 158 147 137 117 89 55 36 26 37 60 65 72 69 89 78 67 78 98 77 58 40 75 73 78 91 112 138 169 180 186 190 191 195 197 197 201 203 200 200 201 199 202 203 200 204 206 204 205 208 209 207 208 205 205 206 208 208 213 214 215 215 213 213 215 216 215 213 211 210 206 207 205 202 203 205 205 205 201 200 201 199 199 195 189 189 189 188 185 186 183 177 174 169 164 155 144 124 86 45 33 33 39 48 78 83 86 89 74 74 92 78 53 62 63 68 86 97 108 137 171 180 184 190 189 192 198 200 203 204 201 197 197 197 199 203 198 199 204 205 205 207 206 205 204 204 204 207 211 210 211 213 217 215 215 216 218 217 216 214 212 210 212 211 208 205 207 209 209 208 206 204 204 202 198 193 188 188 188 189 188 187 186 181 179 174 173 167 163 150 110 69 41 27 35 41 57 94 93 97 97 94 65 63 63 70 73 88 93 101 116 138 168 181 184 189 193 194 200 204 205 205 204 204 204 205 205 207 203 204 208 211 214 217 215 214 214 214 215 214 212 214 215 216 217 216 215 215 219 217 214 214 213 213 213 210 207 206 210 211 212 211 207 205 207 203 199 197 193 192 191 193 192 187 186 180 181 178 178 179 172 164 140 96 57 33 32 55 54 81 91 89 101 110 96 74 84 81 75 75 75 87 114 146 171 186 186 190 193 195 197 202 204 205 203 205 205 206 207 206 207 209 210 210 211 214 216 215 214 214 216 215 214 217 215 215 215 215 217 218 219 218 215 212 215 214 214 210 209 209 210 211 212 210 210 208 206 205 203 203 201 198 197 199 195 186 186 182 181 179 179 181 179 175 160 125 87 54 37 47 62 80 107 68 82 99 88 89 64 33 33 46 63 95 126 164 173 184 189 191 196 198 200 202 205 206 205 205 205 206 207 205 206 206 209 213 212 214 215 217 214 216 217 217 216 216 218 218 217 218 219 219 218 217 214 211 214 214 213 214 211 211 212 215 216 214 212 209 207 205 204 204 206 203 204 202 196 189 185 179 177 177 181 184 181 181 172 147 103 80 56 45 58 73 118 80 75 80 81 64 38 34 39 39 49 102 160 179 180 184 191 196 200 202 203 203 205 207 207 206 206 206 207 207 210 211 209 212 212 213 217 217 217 217 217 218 220 217 216 217 216 220 220 217 216 214 207 207 210 212 214 216 214 216 217 217 218 216 213 212 212 210 208 208 207 207 202 201 199 193 183 182 179 178 183 187 184 182 178 153 123 100 94 65 56 78 101 109 70 71 88 82 33 36 30 21 47 129 179 182 184 190 194 200 203 204 207 209 208 208 208 206 204 204 206 206 210 209 207 209 214 214 219 220 221 220 216 219 222 219 210 213 214 216 216 211 211 208 202 206 214 218 218 217 215 217 217 216 217 217 216 214 211 209 208 209 210 208 204 203 203 195 187 186 183 178 182 188 189 186 183 171 139 104 92 94 84 63 83 107 88 92 97 72 38 35 25 42 69 156 184 183 182 189 200 204 206 212 214 213 212 212 212 207 204 203 202 203 204 205 202 206 213 214 217 221 220 218 214 215 219 216 209 206 211 211 209 205 202 207 213 216 216 216 216 216 215 217 215 213 214 215 215 211 207 203 201 205 206 203 201 204 205 197 192 188 186 182 183 189 192 191 184 177 156 121 88 77 89 82 67 89 106 112 114 73 50 35 45 57 82 171 191 192 182 190 202 207 211 216 217 213 212 214 215 210 210 209 208 209 206 205 204 205 208 208 211 214 215 213 216 217 213 215 210 201 206 209 205 205 210 208 209 212 214 217 216 214 214 212 212 210 210 208 206 200 197 193 190 193 191 191 189 193 193 194 190 185 186 182 182 187 191 192 187 179 168 144 95 78 79 99 91 84 95 98 98 75 58 53 77 63 85 176 196 195 188 193 205 210 213 217 219 216 215 216 216 213 212 213 213 212 210 209 208 204 203 205 207 207 207 211 211 211 209 210 210 198 199 204 203 203 201 202 207 207 208 209 207 208 206 203 198 199 195 188 180 173 174 169 165 167 170 173 167 163 171 170 169 178 183 183 186 189 194 192 190 181 166 147 110 87 77 69 91 103 97 93 107 81 65 86 80 60 98 180 201 194 188 199 208 213 213 209 209 212 212 213 213 212 209 209 212 209 208 207 205 205 205 203 202 202 202 200 200 205 207 208 209 200 194 195 195 193 194 195 194 193 186 184 185 170 159 159 165 166 166 164 163 158 151 148 147 142 146 148 151 149 153 150 156 168 176 180 191 193 192 190 191 188 171 150 123 105 96 80 82 89 105 98 113 84 78 81 71 76 115 182 200 197 192 204 209 199 186 185 188 197 200 200 200 201 201 202 204 207 203 203 200 199 200 201 200 197 196 191 192 200 203 204 205 201 189 187 187 182 183 183 179 172 156 148 144 111 107 106 113 119 123 137 136 131 136 139 135 129 123 125 129 128 132 137 146 160 170 180 183 187 191 194 189 190 182 152 130 113 95 88 83 87 98 115 128 83 73 78 76 95 137 179 201 196 191 182 173 163 162 167 170 169 169 169 168 169 170 171 178 186 183 181 186 187 190 192 193 195 194 184 184 194 198 199 197 191 178 178 174 167 163 161 155 143 128 112 102 90 85 78 80 78 78 90 106 116 117 119 120 118 121 122 126 133 126 127 137 156 172 173 175 187 196 195 189 191 188 167 135 121 119 101 92 99 94 111 137 81 81 75 84 117 147 187 200 198 182 156 149 141 142 148 148 143 134 135 136 129 125 119 123 127 135 140 149 162 166 172 178 184 186 179 176 186 192 192 194 185 166 166 165 154 140 131 127 119 106 93 94 85 74 70 72 77 77 85 97 107 116 128 131 136 140 140 144 146 140 142 153 169 165 161 175 191 192 191 192 193 190 175 157 111 98 101 99 108 92 119 141 89 86 74 102 127 151 193 207 197 171 146 133 120 121 117 123 133 116 109 101 99 91 80 76 77 92 103 107 125 142 146 154 159 169 172 169 179 191 193 191 186 168 154 158 155 133 118 110 104 95 89 86 83 83 89 94 99 105 111 115 119 132 139 145 154 156 162 167 168 165 158 170 165 159 174 179 185 193 192 188 193 193 184 160 129 96 107 95 109 121 114 127 98 95 82 106 120 163 198 206 195 157 133 123 117 120 123 112 104 95 87 77 74 70 71 71 69 72 78 84 90 106 123 126 138 147 160 160 174 188 194 192 186 175 150 142 139 125 110 100 95 89 85 85 83 70 65 57 40 37 45 57 50 49 51 62 64 80 107 131 158 169 174 170 160 169 172 179 191 197 193 190 194 195 191 178 127 103 107 109 111 107 115 110 104 93 88 104 126 169 201 205 195 159 128 123 133 145 144 126 116 112 109 105 104 100 94 93 87 81 77 74 75 79 94 106 115 130 142 141 161 182 192 192 184 169 148 125 111 104 99 93 86 82 84 74 55 52 50 54 26 2 9 10 12 11 38 69 52 44 44 62 92 137 158 152 165 173 180 191 197 192 190 190 193 194 193 174 144 111 89 108 123 108 117 113 103 92 95 107 132 178 200 202 192 170 145 146 166 161 153 150 146 131 115 99 85 70 61 50 45 49 62 65 68 70 73 81 92 107 114 129 161 184 193 192 188 177 162 140 114 102 98 93 89 87 73 58 60 60 51 95 87 25 31 48 50 70 116 136 135 136 124 100 100 107 130 160 179 182 186 195 194 191 190 191 195 195 194 177 143 121 83 100 127 119 121 128 114 91 111 108 133 177 200 203 189 174 161 169 183 167 144 112 72 45 45 40 10 5 11 18 6 7 36 55 53 54 61 64 70 76 90 128 164 183 192 199 195 187 176 159 136 115 110 103 87 75 71 66 68 88 112 129 141 139 156 166 174 172 170 157 164 162 158 155 160 164 172 179 187 185 188 197 197 197 197 195 193 193 190 183 152 116 92 100 106 130 129 145 113 88 105 98 135 175 198 202 190 178 169 178 173 123 71 35 43 49 66 68 11 0 2 1 8 19 65 53 43 44 54 58 56 62 73 115 166 190 201 205 201 196 188 173 150 130 129 110 98 109 96 76 109 127 136 148 159 165 180 178 185 182 182 170 160 156 161 171 180 187 189 193 196 195 196 198 199 197 196 193 192 192 186 181 165 116 92 101 115 134 147 155 107 103 99 99 142 180 199 200 190 176 171 171 146 88 62 96 128 124 131 147 127 89 86 89 104 120 126 92 60 38 44 65 58 57 64 106 175 197 206 210 206 205 198 181 156 153 150 134 153 158 121 144 151 144 151 164 181 188 191 188 181 170 155 147 142 154 171 182 193 198 197 200 194 193 198 201 196 193 192 189 190 190 185 177 154 139 106 90 117 135 157 147 114 96 91 110 120 175 200 201 187 183 176 167 136 93 82 134 161 166 173 176 181 187 176 191 195 181 179 159 137 110 71 68 105 104 103 124 176 204 211 215 213 210 202 189 168 163 161 161 186 179 182 171 154 136 135 149 153 153 147 146 139 139 143 151 163 172 180 184 185 193 194 197 194 196 198 198 196 191 191 187 192 187 177 169 149 121 121 108 109 135 156 141 132 87 97 102 118 175 199 202 196 190 186 189 171 152 159 161 158 167 178 179 178 179 178 179 174 170 159 156 165 182 175 163 180 185 162 153 180 205 214 220 216 212 205 199 184 166 170 173 179 178 180 171 166 154 133 119 108 109 109 111 115 124 133 142 156 175 191 203 204 200 196 190 191 194 196 196 193 191 192 193 189 185 177 164 161 120 111 103 106 132 150 133 125 86 108 101 127 172 195 201 199 197 191 194 198 192 183 172 160 145 149 158 163 168 170 162 149 138 134 146 174 194 193 195 199 204 173 165 197 211 218 221 219 214 207 205 197 175 171 182 190 187 177 179 179 179 179 175 170 168 157 153 150 150 159 174 185 193 198 199 201 203 200 197 195 190 188 192 193 191 192 190 184 188 182 168 154 110 105 94 94 135 145 145 124 106 107 111 125 172 195 197 196 196 198 199 204 205 205 184 144 150 140 120 116 117 116 113 114 114 128 154 170 176 179 184 194 198 175 180 208 217 220 224 221 215 212 208 202 185 170 186 197 201 202 197 194 192 196 199 203 205 200 201 203 205 212 214 212 211 209 203 196 197 195 200 203 200 195 195 196 192 188 187 186 187 176 167 155 103 92 101 92 140 134 159 153 121 103 106 118 165 199 198 200 201 206 208 210 209 197 188 189 188 155 140 131 120 110 111 120 140 161 175 178 181 191 202 202 195 179 194 215 219 221 222 223 220 217 212 204 187 171 182 198 203 210 212 209 204 204 207 207 208 211 213 212 214 217 212 211 210 210 209 203 194 192 194 198 196 199 198 195 192 184 184 184 182 176 154 142 93 88 106 126 151 127 160 170 134 105 99 121 167 195 198 199 201 201 206 205 202 208 209 197 182 181 173 170 166 164 177 190 192 189 189 189 197 209 211 202 194 188 207 216 217 221 222 222 222 218 213 208 193 175 179 192 201 210 217 216 214 210 209 208 206 207 211 214 215 211 208 211 210 211 210 207 203 203 192 187 194 200 198 197 195 188 182 183 180 170 142 109 81 93 121 141 156 158 176 179 146 108 98 108 172 194 193 194 197 197 199 201 205 199 190 191 197 202 198 196 198 196 200 198 198 197 199 203 208 210 205 199 192 191 205 213 219 220 218 221 220 216 214 206 186 175 181 188 196 207 211 201 206 213 214 210 206 209 212 213 215 211 211 214 213 212 207 205 203 202 201 199 201 202 201 194 190 183 179 183 180 160 142 107 84 98 128 125 148 175 185 178 164 129 103 109 169 191 187 195 200 194 200 202 191 184 198 203 201 201 201 200 202 200 197 195 197 201 202 206 210 208 202 198 189 186 199 212 219 221 218 218 217 213 210 192 168 177 181 182 192 202 207 196 202 214 206 197 210 216 217 219 219 219 216 215 213 208 206 202 199 202 204 204 203 203 201 197 188 186 177 182 181 168 137 105 74 94 117 125 146 168 178 187 187 170 128 113 156 191 187 193 197 199 200 193 184 197 205 202 202 203 202 202 202 197 198 201 200 200 204 209 210 205 201 195 188 189 200 210 215 217 218 221 217 212 206 181 171 182 184 182 185 195 205 206 208 209 192 187 213 221 219 223 221 219 218 217 213 209 205 203 204 206 205 201 201 202 200 198 192 189 179 177 178 166 141 102 71 84 117 140 149 166 171 159 179 178 142 114 155 191 184 188 195 196 188 189 202 204 206 205 210 209 211 213 209 210 206 212 211 210 209 210 208 204 200 193 187 189 199 207 214 217 219 218 217 210 202 184 184 189 186 181 181 189 198 210 210 210 210 212 219 220 221 221 221 220 219 216 213 212 208 208 208 209 208 204 202 196 190 191 188 185 177 175 170 161 148 94 80 87 118 140 158 170 171 165 190 190 165 117 152 187 182 187 190 190 190 197 204 203 207 208 214 216 216 219 219 221 219 218 216 216 214 209 207 202 198 191 187 190 200 210 214 216 215 213 212 208 202 187 188 191 188 179 182 188 194 207 211 212 218 218 221 221 222 220 221 219 218 218 215 214 210 208 210 209 208 204 199 189 179 178 181 179 171 171 166 140 147 110 87 104 122 129 157 168 164 201 196 193 185 118 122 181 184 186 188 191 197 201 201 200 204 209 213 216 219 220 221 225 222 221 217 215 214 208 206 204 201 194 190 195 203 207 213 217 215 211 211 206 199 192 194 194 192 191 192 192 196 204 208 210 216 217 220 221 220 218 219 220 218 218 217 216 213 209 210 210 209 203 196 187 179 173 173 178 172 166 162 137 128 119 90 111 148 126 124 134 138 205 199 191 178 132 116 174 183 183 186 192 199 201 202 204 209 212 211 215 217 220 220 221 221 218 216 212 210 207 207 203 201 196 194 199 204 209 212 216 216 216 209 205 199 199 201 199 194 192 190 191 198 203 207 209 215 216 218 219 217 216 218 219 218 217 215 216 214 211 207 209 206 201 197 189 180 172 167 172 171 159 149 133 121 110 101 116 221 237 188 173 185 200 196 193 177 137 108 159 179 183 188 190 198 204 208 209 210 211 212 215 216 219 218 218 219 218 216 213 211 207 202 192 179 191 201 204 208 212 213 220 222 215 209 206 203 203 203 202 197 190 181 176 186 199 206 211 213 217 219 219 217 217 217 217 219 217 215 213 209 207 207 205 205 201 196 190 183 173 163 160 165 157 145 121 113 113 110 133 233 255 255 254 255
189 190 188 180 146 102 150 181 183 187 187 198 206 208 207 207 207 210 215 218 220 221 219 219 218 216 213 212 207 198 176 169 191 203 209 209 209 213 224 226 220 211 206 201 201 204 202 196 193 185 175 175 180 193 202 207 214 217 218 218 217 218 217 217 212 212 209 207 206 204 203 204 201 194 188 186 178 163 154 156 158 143 123 124 127 112 139 236 255 251 252 252 170 177 176 171 156 103 144 175 179 184 188 195 204 204 204 204 206 208 212 216 217 218 219 216 215 213 211 208 203 196 189 188 196 206 208 208 207 213 225 226 220 212 205 201 198 202 200 194 187 184 185 183 183 184 188 195 201 207 211 212 211 212 212 212 210 209 209 204 204 199 198 196 198 194 186 188 180 168 153 152 153 142 130 139 132 113 138 229 252 252 251 251 177 148 145 141 125 101 135 172 176 178 189 197 201 200 199 200 202 205 208 212 214 214 213 211 211 209 205 202 197 195 196 196 199 206 204 205 206 212 225 228 220 210 203 200 201 202 199 194 187 185 191 191 184 189 196 193 192 193 198 201 200 205 206 205 205 204 201 199 199 195 193 190 190 189 185 184 179 173 162 157 149 138 117 140 156 124 139 225 253 252 251 251 255 224 184 159 158 163 124 163 169 173 186 194 194 195 197 199 198 202 205 205 208 211 211 209 206 204 201 197 195 193 195 198 193 202 198 200 200 212 224 225 216 206 201 197 199 195 195 194 197 197 195 195 182 186 200 203 198 190 190 194 194 197 196 196 200 198 196 196 195 188 182 177 171 166 172 177 181 172 165 157 153 132 125 124 144 131 170 232 255 252 252 252 255 255 255 255 255 232 126 159 166 170 182 187 190 193 191 196 199 204 202 202 203 205 205 204 201 198 196 194 196 183 196 202 192 196 196 202 200 205 221 224 214 201 199 196 192 196 200 201 204 199 195 189 176 173 196 206 206 200 191 188 191 190 192 193 192 193 191 188 185 180 175 170 165 149 144 160 176 175 169 160 153 131 138 135 139 131 164 235 254 253 252 251 231 232 232 229 231 205 122 144 166 170 178 182 190 191 192 196 199 198 199 196 198 201 200 197 196 193 192 197 198 181 191 204 197 194 193 200 202 207 220 224 215 204 200 198 198 204 208 207 203 199 192 183 170 165 190 207 209 204 197 184 182 184 186 188 187 185 186 179 173 172 172 169 168 154 125 138 166 172 170 161 157 143 129 134 132 115 159 234 253 252 252 252 93 92 92 88 94 100 113 138 159 169 170 177 183 185 188 192 194 193 190 193 197 199 195 195 192 185 187 196 205 199 186 199 205 201 197 203 209 212 221 224 216 205 202 202 206 206 208 209 202 195 186 173 160 163 196 209 211 207 203 197 184 175 176 178 180 179 176 170 165 159 155 156 161 164 132 124 156 168 166 167 151 156 127 114 123 101 143 227 253 251 251 251 0 0 0 0 0 15 98 125 161 165 162 171 178 185 183 182 186 190 188 189 193 193 193 194 185 175 186 198 205 208 186 184 204 207 205 207 214 218 224 225 224 206 200 204 206 205 206 205 197 183 169 157 146 169 204 207 207 208 205 203 193 171 152 143 144 147 149 149 149 153 148 142 145 160 143 126 161 168 158 162 154 146 135 118 118 99 138 212 254 252 251 251 0 0 0 0 0 5 99 127 167 163 156 166 173 176 177 178 178 184 185 187 189 191 192 180 167 174 192 199 203 204 182 161 193 206 209 208 212 214 212 217 222 210 204 205 206 205 200 188 169 140 128 121 129 180 204 208 205 207 204 202 200 191 170 150 132 119 115 121 132 149 158 159 155 159 147 133 167 171 163 156 147 136 137 121 108 110 127 209 253 251 251 251 6 7 8 7 5 11 98 127 163 165 157 162 169 171 173 171 172 174 177 176 181 179 167 160 169 189 198 200 196 195 181 149 146 185 201 201 203 203 202 204 209 210 210 206 204 191 172 120 60 51 72 106 157 188 190 201 205 204 203 203 199 194 182 182 184 175 155 148 151 157 170 173 173 169 145 133 171 173 163 154 138 142 134 124 102 110 123 226 253 251 251 251 144 144 146 146 142 145 134 135 162 163 153 158 166 162 161 164 164 163 168 161 160 163 156 162 184 194 199 202 196 191 187 169 106 113 171 187 192 189 187 182 186 200 204 196 180 146 88 57 51 55 92 145 179 174 186 197 201 201 203 201 192 184 168 160 169 183 188 182 184 182 181 183 178 165 135 143 166 157 164 156 141 138 144 120 97 97 141 240 249 251 251 249 240 242 242 243 241 247 184 130 156 164 160 155 158 154 150 153 153 160 170 174 171 165 163 171 181 186 195 197 198 189 190 175 133 78 84 130 153 162 159 153 145 156 175 159 116 60 52 77 94 96 103 137 157 170 188 192 191 190 184 180 167 158 171 168 154 174 167 142 164 186 185 189 183 171 131 154 169 159 169 145 134 135 137 115 99 82 147 236 251 250 250 250 255 255 255 255 255 255 198 127 159 168 157 148 155 153 150 146 151 165 172 181 170 157 158 159 176 176 180 189 186 182 187 160 138 97 67 67 95 114 127 132 114 104 112 84 43 58 76 74 82 106 96 126 150 160 180 181 180 190 176 155 162 142 137 152 138 153 139 115 114 157 180 175 182 169 127 162 169 152 157 141 126 135 139 118 91 77 139 237 255 251 250 249 255 255 255 255 255 255 205 128 158 157 145 147 151 156 159 151 162 176 183 174 150 140 139 153 166 150 165 172 171 179 166 150 128 96 100 84 79 72 69 61 60 61 50 18 31 77 80 79 81 107 117 119 148 149 152 162 171 170 177 156 153 149 121 133 133 115 122 114 107 125 181 173 170 154 127 167 168 156 141 135 129 130 129 107 88 74 142 236 254 250 250 250 255 255 255 255 255 255 220 133 153 150 136 141 152 147 160 158 168 179 176 153 126 113 121 128 133 136 152 159 157 166 150 135 133 110 101 119 94 86 54 25 42 49 50 37 35 79 96 74 84 97 94 113 121 128 135 144 158 142 142 145 137 136 121 123 128 111 109 85 105 112 170 178 164 138 130 172 173 161 134 126 127 132 128 118 88 89 147 237 252 251 250 249 255 255 255 255 255 255 235 144 142 160 145 139 140 150 152 154 163 176 171 124 111 109 112 124 107 119 124 142 142 146 149 137 125 95 104 130 118 103 81 41 44 44 36 41 62 85 106 74 88 116 87 94 110 109 131 125 136 125 123 130 106 111 90 102 103 97 83 72 72 100 155 167 142 131 140 165 165 151 132 121 113 122 121 125 100 113 185 238 253 251 250 249 255 255 255 255 255 255 252 171 136 145 145 141 137 142 156 158 161 171 162 126 110 112 117 110 96 92 120 121 134 139 123 128 121 107 110 130 134 128 93 68 63 40 46 58 75 94 93 85 96 108 102 90 99 91 108 114 124 123 107 115 95 84 81 68 76 68 75 64 72 106 148 150 119 110 149 156 146 146 134 112 122 116 126 116 97 128 198 250 252 251 250 249 254 255 255 255 255 254 255 199 127 124 143 139 134 130 154 158 160 163 163 138 137 112 110 95 65 97 113 88 127 108 99 113 110 117 116 111 108 107 112 75 63 58 61 61 61 96 92 75 95 95 106 102 107 93 96 111 110 111 97 98 93 58 87 63 74 77 64 67 104 130 124 118 98 113 166 147 129 122 127 111 108 126 121 96 92 133 200 255 250 251 249 249 253 255 255 255 255 254 255 194 113 121 145 136 131 123 137 144 146 145 156 165 149 105 130 86 58 102 80 85 101 107 111 79 107 117 96 97 101 89 93 109 75 69 79 54 63 85 83 73 99 111 108 98 113 112 114 115 114 98 71 46 72 97 113 107 102 119 108 97 138 156 102 89 88 137 165 142 139 114 124 107 102 115 112 82 90 128 204 244 249 252 249 249 253 254 255 255 255 255 254 223 130 119 129 137 130 127 130 137 144 141 152 168 113 99 81 39 81 81 59 63 97 96 98 94 124 100 97 93 112 102 100 141 100 91 102 66 69 84 97 72 88 121 105 93 89 124 109 102 86 51 40 72 130 146 155 151 126 118 118 113 164 155 99 78 85 132 144 142 141 124 119 98 86 122 105 83 103 156 201 243 250 251 249 248 254 255 255 255 255 255 254 241 139 102 121 124 124 127 123 122 141 137 144 159 118 78 68 56 80 76 67 54 62 51 77 101 117 88 101 81 92 101 89 85 93 114 111 90 81 96 95 79 75 92 84 81 76 106 96 61 49 55 100 144 160 175 175 164 152 137 101 137 163 136 79 68 88 131 131 130 121 112 131 112 103 107 100 95 117 174 220 245 252 250 249 248 254 255 255 255 255 255 254 245 147 102 107 111 121 122 130 122 126 139 129 160 144 92 73 100 112 114 120 104 72 47 45 30 51 65 72 70 62 71 78 76 81 95 90 92 92 105 111 115 93 111 116 79 91 109 78 60 91 129 157 163 170 179 176 171 154 137 109 156 146 109 61 64 106 133 130 132 112 106 118 116 114 89 95 105 130 186 237 249 252 250 249 248 255 255 255 255 255 255 255 249 188 111 86 116 132 125 123 114 117 131 131 142 164 139 95 97 116 131 155 157 148 132 94 58 54 62 33 52 94 100 100 133 141 142 138 120 140 157 163 151 121 148 133 52 52 95 105 124 150 172 176 175 181 176 175 175 160 128 112 130 118 85 70 81 116 141 126 112 106 96 108 124 127 95 82 113 164 207 236 252 250 251 249 248 255 255 255 255 255 255 255 252 225 128 84 109 125 131 123 111 117 123 144 143 161 149 116 111 128 136 152 171 177 171 166 148 131 132 118 92 94 77 93 148 162 164 144 126 148 159 159 144 90 116 113 105 132 154 162 174 175 182 181 179 177 183 180 174 161 127 114 124 104 74 67 96 129 148 126 109 107 104 124 123 118 104 80 110 178 221 247 252 251 250 249 248 255 255 255 255 254 255 255 254 246 139 76 101 102 111 120 110 130 119 134 130 133 142 124 126 129 145 165 180 183 182 177 180 184 186 186 185 174 148 135 139 156 165 140 141 146 140 151 151 142 156 173 186 192 194 194 189 180 177 167 167 171 186 177 183 179 147 125 117 69 78 80 116 147 148 120 119 110 103 134 128 100 106 87 109 196 243 255 250 251 250 248 247 255 255 255 255 255 255 255 255 254 162 79 92 86 106 120 96 107 99 126 124 132 145 127 118 126 167 181 186 178 179 182 181 192 194 196 196 195 199 197 192 193 192 193 189 189 189 190 198 202 202 202 198 200 202 193 183 173 163 163 155 149 178 182 173 177 164 118 88 62 76 93 130 134 124 98 118 107 111 135 130 108 88 82 108 205 251 248 250 251 249 248 247 252 254 255 255 255 255 253 255 255 200 103 98 70 103 107 85 98 92 121 106 109 130 106 98 125 164 177 180 186 186 177 182 183 184 192 193 194 201 203 205 205 207 206 205 203 199 204 199 202 204 203 199 195 188 175 169 173 155 159 165 159 173 178 173 147 147 114 81 57 80 108 134 129 111 104 121 121 112 109 124 110 78 61 112 214 244 250 252 250 249 248 247 250 252 254 255 255 255 255 255 255 232 135 116 67 84 102 78 93 121 85 92 78 100 101 86 111 141 163 169 182 186 180 178 182 182 181 184 191 197 199 200 195 191 198 198 196 190 190 188 187 192 195 184 167 164 154 152 169 163 166 170 175 178 172 184 156 134 102 79 61 80 137 135 129 98 94 118 106 108 106 104 92 59 64 126 222 250 253 251 250 249 248 247 240 247 252 254 255 255 255 255 255 254 192 114 64 84 83 76 93 111 90 69 55 81 90 89 111 127 168 173 180 183 181 176 164 174 179 180 185 183 179 184 168 163 167 168 164 160 163 167 156 154 167 169 152 153 151 146 157 172 174 170 176 163 138 157 137 126 110 75 73 98 132 135 134 93 94 130 84 119 108 87 87 71 104 171 246 252 251 252 250 248 247 247 204 228 245 253 254 255 255 255 255 255 237 165 94 68 75 76 94 102 87 65 47 56 87 81 79 147 182 181 180 188 178 173 172 172 156 163 160 148 138 155 147 138 143 156 137 139 145 166 153 137 151 149 142 146 147 149 153 168 181 183 183 172 159 164 146 115 96 90 90 109 146 124 129 112 105 127 78 109 101 95 82 82 113 215 255 250 251 251 250 248 247 247 88 164 223 244 252 255 255 255 255 255 255 217 118 63 66 70 73 72 73 85 78 61 61 80 102 134 175 175 171 172 171 178 172 158 147 143 141 138 138 139 136 146 135 156 138 143 147 179 176 148 137 152 152 153 156 167 186 181 177 172 179 187 175 172 185 134 95 99 97 95 140 124 110 116 116 124 82 80 105 84 93 106 135 240 255 252 252 251 250 248 247 247 0 37 137 216 244 253 255 255 255 255 255 253 143 54 69 65 60 51 55 91 106 72 68 104 118 149 168 156 147 152 170 172 169 156 158 148 149 143 140 130 137 149 160 167 134 142 139 140 164 155 130 135 167 169 169 178 184 185 190 182 178 168 169 157 174 149 74 88 98 98 118 131 108 118 119 102 70 78 76 104 97 114 141 242 255 252 252 251 250 249 247 247 2 0 18 117 213 246 254 255 255 254 254 255 222 65 55 74 66 56 55 68 68 70 77 101 140 140 124 114 114 140 171 176 161 159 156 152 149 139 134 137 128 121 155 151 125 133 165 125 111 134 139 125 143 169 193 199 190 192 195 184 181 165 155 160 166 120 67 74 86 83 123 129 125 119 110 84 78 70 62 87 85 120 149 223 255 253 251 251 249 248 247 247 3 4 0 9 114 219 248 254 255 254 255 255 255 127 57 99 72 70 43 51 59 79 85 100 116 96 110 133 137 166 183 185 179 175 168 147 147 149 149 131 116 128 150 143 117 120 174 145 115 113 118 133 147 166 186 197 205 202 197 187 165 163 159 131 138 157 77 67 81 101 96 118 132 106 103 94 81 57 61 84 109 116 137 207 251 253 252 251 249 248 247 247 3 4 5 0 11 127 228 251 255 255 255 255 250 109 77 77 60 72 63 58 63 98 108 90 87 95 148 133 151 171 172 185 193 186 174 164 169 163 157 156 148 156 139 130 140 138 146 140 114 129 134 128 159 176 184 177 203 206 194 173 158 152 158 135 104 114 92 72 92 90 95 106 99 110 85 74 69 61 82 112 134 135 129 196 243 254 252 251 250 249 248 248 5 5 5 3 0 19 157 244 255 255 254 255 156 27 103 94 49 54 40 43 70 82 104 106 75 117 130 126 152 147 161 184 188 184 187 192 190 173 176 175 178 161 149 125 129 140 133 119 126 137 155 149 149 168 193 191 183 186 194 183 151 133 126 124 108 75 71 61 75 76 84 108 61 105 116 56 52 84 130 131 139 145 125 188 237 253 252 251 250 249 249 249 6 7 5 3 1 0 50 206 254 255 255 182 36 4 135 213 81 68 66 45 50 83 107 82 60 103 113 143 148 125 147 159 169 184 195 200 203 186 173 178 169 158 187 140 108 129 127 116 146 147 164 174 160 167 195 201 181 158 159 173 139 118 109 87 89 84 69 66 60 81 89 86 86 93 103 57 77 113 133 143 144 151 115 192 234 254 252 251 250 249 249 249 4 4 6 4 2 1 0 109 246 255 170 37 17 23 179 250 177 76 52 52 78 92 72 89 78 100 89 95 126 139 149 156 160 178 190 204 204 185 184 172 150 169 199 156 114 120 124 124 136 170 169 186 166 172 183 194 200 169 133 144 138 116 106 78 77 101 101 56 72 69 79 79 93 59 63 97 115 124 135 144 145 147 133 223 227 240 255 251 250 249 249 249 82 10 1 3 3 0 0 34 162 121 41 31 20 23 214 254 240 122 25 69 78 57 42 66 66 90 61 87 91 127 146 154 150 164 192 194 178 174 180 162 156 172 197 168 149 114 115 143 145 185 175 184 175 161 170 169 174 160 141 151 125 105 105 83 48 82 98 61 60 42 49 73 87 60 73 123 127 131 139 146 144 140 176 240 227 132 243 253 250 250 250 250 208 84 0 0 2 15 33 50 53 43 38 31 16 41 237 255 248 233 111 46 75 48 34 36 54 85 84 61 92 139 139 149 135 159 173 163 156 152 162 170 153 189 180 173 165 139 138 155 180 190 170 170 185 167 159 167 159 128 140 144 129 89 76 76 59 55 59 49 54 40 61 79 45 72 92 115 133 142 147 149 145 146 217 241 241 74 134 255 250 250 250 251 254 199 57 11 36 52 48 45 47 47 35 35 11 52 247 255 248 247 228 116 81 53 39 47 62 60 61 75 140 157 108 99 144 163 159 165 157 136 166 170 177 198 186 177 160 162 156 153 170 166 165 166 173 180 166 156 142 132 103 97 105 96 59 47 44 56 47 52 46 52 83 84 43 91 115 128 138 146 147 149 145 189 240 236 243 122 27 246 254 251 251 251 249 204 89 35 37 34 37 35 35 41 40 28 6 53 245 255 249 241 244 196 131 63 49 67 76 47 72 96 108 116 92 124 152 118 139 160 170 151 169 166 169 166 164 171 156 172 156 138 134 145 170 174 171 159 166 159 147 116 120 103 80 93 66 62 35 46 60 42 47 70 75 60 71 107 131 141 145 149 148 143 168 236 242 235 237 175 0 161 255 251 252 253 67 43 31 33 32 32 30 39 44 41 31 21 10 47 240 255 249 252 251 241 226 151 75 62 64 55 63 50 54 76 114 148 108 139 165 175 172 137 143 145 151 170 157 175 166 158 158 132 114 140 165 174 170 140 132 118 107 89 113 116 75 85 79 68 70 46 51 30 51 47 59 89 123 139 137 141 148 149 148 154 224 246 243 236 231 215 22 49 248 253 252 254 24 28 30 29 34 37 35 33 36 34 33 25 13 37 228 255 253 253 252 254 241 225 150 93 69 68 73 47 75 76 121 117 135 137 171 163 138 132 142 151 143 138 144 167 174 132 147 142 124 150 162 156 147 141 103 115 91 86 97 119 95 74 74 44 61 57 32 46 37 49 92 115 129 141 143 148 151 150 150 210 245 245 241 235 231 239 72 0 180 255 253 254 25 30 30 29 33 34 42 41 38 28 29 26 18 32 217 255 255 254 252 250 241 241 234 148 50 48 70 61 74 50 95 104 139 137 160 118 120 136 145 151 126 120 124 150 160 108 106 107 113 151 157 145 129 116 82 92 84 94 113 95 102 75 38 31 24 53 39 60 70 81 97 125 137 144 145 149 151 147 192 243 248 246 240 234 233 246 113 0 64 252 255 253 30 29 31 32 38 40 43 35 35 34 24 26 23 31 203 255 254 254 252 249 250 242 236 220 147 79 61 52 42 72 80 93 115 118 116 108 139 137 129 143 151 146 129 154 140 119 90 93 119 150 158 130 111 97 79 95 68 69 107 63 99 71 33 47 33 69 77 83 109 118 121 135 147 149 150 153 142 179 241 250 249 244 240 236 234 246 141 0 0 151 255 255
36 32 31 32 34 39 38 29 30 25 25 24 21 18 185 255 254 254 253 253 252 251 248 243 234 174 101 49 36 72 90 95 86 106 99 87 117 143 114 118 127 134 133 147 132 127 111 113 126 133 130 113 102 82 95 81 67 58 76 79 51 43 41 52 62 94 105 108 117 131 141 146 146 147 155 146 168 235 251 250 246 242 240 238 234 245 155 2 6 18 169 255
36 35 33 33 29 26 35 38 30 24 23 32 26 9 156 255 255 254 254 254 253 252 251 248 234 227 175 115 64 50 73 103 68 83 66 84 81 142 120 120 103 96 125 144 132 120 111 114 117 94 76 93 99 81 83 64 80 73 74 76 15 40 60 57 97 114 116 130 137 143 149 149 150 154 144 180 242 254 251 247 242 241 240 238 236 242 151 1 7 11 19 147 38 31 36 35 37 40 34 33 30 36 35 24 24 8 113 254 255 254 254 254 253 251 251 252 248 246 234 191 141 84 50 81 72 78 79 71 84 120 132 117 105 109 103 112 123 118 122 106 120 95 67 73 108 75 96 60 85 83 55 52 58 83 88 94 107 116 123 133 145 147 149 153 153 144 180 245 254 251 249 246 241 241 240 239 239 241 144 3 5 13 19 21 34 36 34 33 42 45 33 32 29 24 28 25 25 11 68 239 255 254 254 254 254 253 254 254 252 252 247 232 210 169 101 73 38 86 104 82 80 90 96 108 103 96 105 107 103 102 129 114 101 114 81 83 97 109 108 77 73 56 48 63 93 93 100 117 120 124 132 140 156 155 158 151 147 200 250 253 251 249 247 243 243 243 243 243 242 241 141 6 6 10 23 26 32 33 37 38 44 39 39 37 35 31 25 21 24 14 27 201 255 254 255 255 255 255 255 255 254 254 252 250 236 221 185 121 63 71 91 104 70 83 99 98 79 69 112 101 96 76 61 115 106 103 85 105 94 96 66 71 63 44 69 87 95 109 106 127 129 138 150 156 165 163 151 154 213 251 253 252 252 250 245 244 245 245 245 244 243 242 157 10 5 7 16 26 38 35 41 39 42 44 40 39 35 38 34 32 34 23 12 158 255 254 254 255 255 255 255 255 255 255 255 253 250 243 231 203 161 68 69 79 93 73 103 97 73 82 84 77 79 57 67 98 107 88 77 82 54 71 53 67 70 84 103 119 129 136 127 130 136 154 165 164 166 153 166 224 249 251 251 250 249 246 245 245 244 245 245 245 242 241 180 19 7 6 12 19 37 40 44 35 39 40 34 33 30 34 37 33 32 25 10 131 248 253 254 254 255 254 255 255 255 255 255 255 255 255 255 245 222 181 103 58 57 48 71 72 45 57 58 76 31 38 73 87 75 79 88 78 57 78 79 93 99 120 131 139 138 136 132 138 150 161 171 165 150 182 235 253 252 250 250 249 247 246 245 244 244 244 244 243 241 242 188 27 6 9 13 19 38 37 43 36 38 46 37 37 32 27 29 29 29 25 8 103 237 254 254 254 254 254 248 201 177 166 150 152 163 179 201 215 234 233 203 136 66 57 61 59 54 44 69 61 50 53 71 81 77 74 86 89 103 99 110 118 122 138 147 142 137 140 145 156 162 170 161 151 195 239 251 253 253 251 250 249 248 246 245 244 244 243 243 242 240 241 181 23 5 6 11 17 37 41 44 43 38 42 38 38 41 34 32 34 24 22 13 71 220 252 254 254 254 255 198 37 35 38 31 32 28 23 25 32 53 71 87 103 118 93 80 82 84 76 74 78 91 90 90 100 106 105 114 126 126 120 127 133 139 139 139 139 139 146 158 169 168 160 166 213 245 251 254 254 253 253 249 249 248 246 245 244 243 243 244 240 239 236 168 25 8 7 11 14
