P2
# Generated by OpenCV 4.2.0
92 112
255
114 53 20 49 61 59 94 100 81 84 82 55 43 53 29 37 66 50 33 37 71 64 35 36 64 92 89 73 74 83 86 83 80 63 61 46 37 39 32 12 6 3 0 1 42 68 61 60 66 58 49 52 56 54 32 23 46 46 36 38 34 54 65 54 63 75 71 77 85 82 75 65 50 46 40 13 36 72 74 67 102 77 39 65 75 105 111 61 68 74 96 85 29 23 53 69 75 93 90 80 73 74 56 42 42 46 56 60 55 48 58 62 50 35 42 71 81 74 76 84 82 67 69 65 60 49 48 46 45 37 23 25 20 7 4 11 39 42 47 59 63 64 57 59 67 58 47 58 60 56 59 57 47 49 68 79 74 81 87 89 87 84 82 80 62 55 43 21 31 67 80 66 105 87 39 49 73 104 109 73 72 74 100 87 29 50 68 90 95 79 79 74 62 45 37 47 64 68 57 49 49 53 45 35 27 32 52 65 71 78 80 77 60 63 65 58 55 53 53 49 48 54 51 49 52 44 31 39 45 63 73 70 78 77 73 79 78 67 72 76 73 62 59 64 65 72 74 81 91 96 102 96 95 95 97 91 69 60 46 38 22 57 81 72 100 96 48 27 69 95 109 83 73 81 92 94 62 71 89 91 90 98 74 40 38 48 64 70 64 50 44 53 57 57 60 67 56 57 69 87 88 80 80 70 64 59 53 51 58 67 64 65 71 75 74 68 63 56 57 69 78 79 80 75 80 80 71 63 50 61 71 68 72 67 68 61 66 76 89 88 101 105 109 105 99 107 103 97 80 57 45 41 32 55 82 80 98 88 64 12 55 102 108 86 63 84 81 89 67 79 91 97 91 59 29 45 62 65 65 64 63 70 78 83 83 75 75 74 70 74 80 80 70 64 52 49 55 56 57 63 78 83 76 71 83 89 85 77 70 74 81 82 83 76 60 58 50 42 42 47 77 87 70 74 68 75 77 72 85 80 85 100 108 111 109 106 108 115 110 99 90 67 49 34 32 55 77 74 83 83 80 34 26 101 97 84 54 76 83 84 83 82 77 71 51 37 51 62 68 78 80 77 74 65 65 62 43 39 49 62 67 64 62 62 60 66 72 73 74 79 88 87 85 77 76 84 88 83 80 80 77 76 72 71 81 67 60 48 36 45 63 68 73 61 76 82 76 86 85 88 102 110 103 108 113 112 111 118 118 120 117 108 96 76 59 42 36 61 68 74 65 71 57 62 23 98 91 92 46 72 89 84 67 70 67 49 47 64 70 71 80 67 47 45 45 46 52 55 58 67 70 75 70 69 74 78 83 82 88 85 88 91 97 99 93 89 91 88 74 75 77 71 56 55 54 49 53 56 54 59 72 71 68 56 50 59 70 83 88 88 93 94 109 114 116 119 122 119 123 128 125 124 121 114 104 87 67 50 53 64 62 74 48 51 54 56 42 83 88 97 44 66 88 81 50 58 52 60 68 76 66 50 44 41 43 50 49 52 56 63 66 61 72 79 78 86 91 92 84 69 62 65 82 93 90 83 74 70 63 61 59 50 48 51 55 59 54 47 30 25 38 51 43 39 44 47 46 66 80 78 89 87 101 106 114 118 118 126 128 129 132 132 130 127 123 118 103 89 71 51 58 60 64 69 41 43 54 48 42 68 77 97 52 48 91 79 38 44 46 69 67 54 32 34 41 37 38 39 41 54 58 68 72 71 78 96 105 94 88 71 65 58 62 77 80 77 68 59 43 24 20 29 29 23 25 31 39 32 25 22 22 29 33 32 22 32 48 59 54 52 66 80 76 92 112 120 119 122 126 129 129 132 134 134 135 132 125 116 105 93 77 69 64 55 55 69 42 32 53 55 35 45 54 93 63 29 88 75 53 46 55 66 47 34 38 44 43 42 47 48 53 64 64 69 73 65 73 96 94 81 69 56 69 68 71 72 63 49 40 32 25 24 28 26 26 30 40 50 51 44 36 42 43 31 30 34 44 54 53 52 67 64 63 77 102 118 122 125 124 127 129 131 132 134 136 139 139 136 125 120 109 96 85 71 69 54 48 51 48 28 34 60 43 34 36 84 76 34 70 95 57 57 56 55 49 34 37 40 42 49 51 52 63 67 70 70 66 78 89 81 70 68 71 71 65 62 55 41 28 26 35 37 36 36 32 35 36 36 44 50 60 63 65 64 64 58 49 50 59 67 78 73 76 83 92 94 108 120 127 127 127 130 138 139 136 135 138 141 141 138 127 119 114 103 84 68 75 70 68 27 30 45 29 56 55 41 33 73 81 48 53 103 26 35 53 59 51 37 23 27 39 41 43 57 67 78 73 72 81 85 78 76 81 84 72 55 51 44 20 23 31 38 33 31 37 36 37 44 50 51 49 58 66 68 70 74 76 75 73 70 69 67 81 96 89 93 97 105 115 122 128 133 132 134 141 140 136 140 142 142 143 139 131 121 108 99 85 84 66 42 62 52 18 31 33 40 63 45 33 53 73 51 48 89 33 52 64 37 15 11 19 36 41 38 44 46 47 61 62 69 69 64 62 69 65 56 47 54 59 46 35 53 57 54 50 50 49 49 49 53 60 67 67 72 78 76 77 80 77 80 82 87 88 85 78 91 97 101 109 115 120 128 131 132 134 137 139 142 140 145 145 143 143 138 132 124 114 101 93 88 78 53 25 48 54 18 28 29 40 63 42 45 47 54 60 75 58 42 10 6 12 26 35 40 47 47 43 49 60 58 56 54 43 38 53 58 51 50 60 68 62 59 64 65 67 64 65 63 64 58 61 65 71 77 79 82 85 84 85 81 82 86 91 90 97 100 93 98 103 107 117 121 124 125 130 132 135 140 139 142 143 145 145 144 144 141 128 117 110 104 100 88 81 79 55 14 39 47 12 25 24 49 55 44 49 45 69 65 41 3 13 25 28 29 43 48 47 50 61 68 62 50 53 46 38 61 62 58 57 66 68 63 67 70 76 73 72 71 71 72 73 73 70 76 81 86 86 87 86 88 88 89 90 93 96 95 102 105 102 106 107 113 118 125 129 133 134 135 139 144 144 144 144 145 147 145 143 139 132 119 109 102 92 84 76 71 74 48 16 40 46 10 25 35 58 51 55 38 76 69 10 9 20 20 25 37 45 51 57 65 64 62 62 65 58 46 59 64 66 65 67 77 69 70 78 73 75 79 76 74 73 77 78 81 78 83 86 89 90 91 92 92 94 95 99 100 100 101 104 109 110 113 114 118 125 129 132 137 138 143 142 142 143 144 145 148 147 148 146 139 136 128 114 104 95 84 77 64 60 58 48 18 33 28 13 30 56 64 47 42 62 67 20 15 23 21 34 37 47 60 64 65 68 69 72 70 53 70 73 73 74 74 79 78 75 84 78 77 78 82 82 78 80 83 83 87 89 90 94 92 96 99 100 98 98 104 106 106 104 107 110 113 115 117 122 123 128 136 136 138 141 143 144 143 144 139 142 144 144 145 145 141 132 129 119 103 91 75 69 63 58 59 51 48 17 33 27 15 41 78 56 50 60 60 18 14 23 17 32 40 55 63 69 73 80 79 80 63 70 83 81 80 81 83 82 82 88 91 83 84 88 87 87 87 89 90 93 97 96 97 97 96 101 103 103 104 109 113 113 112 112 115 117 117 120 122 124 128 129 135 138 141 144 146 145 143 144 144 144 144 144 144 143 139 133 125 118 107 100 82 60 52 51 56 59 48 28 15 29 17 23 65 71 51 65 56 8 16 17 23 46 53 69 77 82 84 84 85 74 76 88 88 88 88 91 91 90 93 99 91 89 92 93 93 94 97 99 98 102 103 102 100 103 106 108 109 108 111 117 117 117 119 120 123 126 124 125 126 128 131 131 135 141 143 147 146 145 145 145 145 144 148 148 147 145 140 136 132 121 115 102 93 70 47 44 39 47 61 39 22 16 21 8 43 66 48 58 65 12 14 33 38 50 58 68 78 86 93 93 83 74 93 93 95 93 95 92 92 95 101 98 96 99 98 94 99 100 98 99 101 106 104 106 108 108 111 111 111 112 115 118 121 118 119 120 121 125 126 125 127 129 131 133 139 140 143 146 145 145 146 146 141 141 146 147 146 142 138 136 129 117 110 107 99 101 77 47 40 27 41 57 33 15 26 19 29 59 56 46 67 18 46 43 32 45 53 71 85 96 99 100 85 88 102 99 99 97 99 99 97 102 101 100 98 99 98 99 101 105 103 103 105 108 110 109 110 111 112 113 113 115 116 117 116 118 122 123 124 126 131 131 130 133 136 139 138 139 144 145 148 146 146 146 145 143 146 147 147 147 140 135 126 116 106 92 84 78 88 81 65 47 31 36 52 30 14 27 32 53 72 57 46 46 39 36 45 43 53 68 86 100 104 101 88 100 105 106 104 103 103 103 103 105 103 104 104 104 106 106 108 108 111 112 111 116 117 117 116 115 117 116 120 119 122 123 122 127 127 129 133 132 133 134 132 137 138 139 142 142 143 147 148 149 146 145 146 144 145 148 149 146 142 140 132 121 109 98 91 77 75 76 80 73 70 60 59 62 34 26 41 53 67 77 63 32 33 34 37 41 52 72 92 102 108 102 100 106 108 108 108 107 106 107 108 107 107 109 110 109 109 111 112 113 117 119 117 120 121 120 121 122 120 122 124 123 126 125 125 127 129 133 133 135 134 134 134 136 139 141 140 139 141 143 145 146 145 144 145 145 146 147 148 147 145 143 137 128 114 100 90 87 87 83 70 53 52 47 40 49 57 56 40 53 66 63 73 37 40 30 30 53 62 67 92 103 111 100 110 109 109 110 110 110 109 110 112 111 112 113 114 116 115 114 117 119 121 121 122 120 123 123 123 122 122 124 127 130 127 127 129 131 132 136 134 137 138 136 136 138 141 142 141 143 144 146 144 146 148 149 150 149 150 149 147 147 143 141 140 132 121 115 109 101 93 80 58 36 20 16 12 7 15 41 50 47 55 55 64 37 27 43 65 65 59 69 89 105 115 110 114 111 111 113 112 111 110 110 111 111 115 115 114 112 114 115 120 123 124 123 122 125 125 124 122 123 127 127 130 131 130 130 128 131 136 137 136 140 139 138 139 144 147 148 145 143 146 144 142 143 144 146 149 147 147 147 147 146 146 142 137 135 125 122 113 108 102 98 79 49 32 21 28 24 14 23 48 49 55 55 58 28 50 57 45 64 69 73 83 101 114 115 116 115 115 116 119 115 115 113 112 111 113 117 116 113 117 121 124 127 126 128 126 125 127 126 123 126 128 127 131 133 131 132 131 135 137 138 141 140 144 144 144 143 144 146 143 142 142 143 145 147 148 147 148 149 148 147 144 145 144 145 142 140 137 129 121 119 117 114 99 69 41 27 20 29 31 20 48 61 59 64 87 42 54 51 61 66 63 69 85 104 116 118 118 119 118 119 121 118 117 113 118 117 120 120 122 122 123 124 129 130 131 133 131 131 131 130 126 128 129 130 132 136 137 135 133 137 139 138 139 139 140 141 143 144 147 150 151 151 150 150 151 154 151 152 150 147 145 143 145 144 141 143 145 146 141 134 129 127 126 121 118 103 74 46 25 13 27 33 41 65 66 68 78 50 61 65 61 63 69 73 86 106 118 118 121 119 119 121 122 123 123 120 120 121 124 124 123 127 128 129 133 133 136 134 133 134 133 133 131 131 131 130 128 126 132 131 132 132 132 131 133 138 142 147 148 149 148 150 151 151 149 151 153 154 154 153 149 146 144 140 145 147 145 146 146 148 144 136 134 133 133 131 129 119 97 76 69 43 19 29 43 61 69 75 76 53 43 37 44 47 56 66 87 109 117 120 121 121 121 122 121 119 120 120 121 126 127 128 132 131 131 132 132 136 139 137 136 136 136 136 134 135 134 131 129 129 135 138 139 138 139 141 144 148 151 153 147 148 150 151 153 152 153 155 156 157 155 154 155 148 147 148 148 149 149 150 148 147 144 139 136 137 137 138 137 126 109 79 65 81 58 44 45 55 77 75 83 38 27 23 17 23 44 71 91 109 119 122 123 123 123 126 129 126 125 123 120 121 122 128 129 131 129 130 131 134 135 135 134 135 136 134 135 135 137 138 134 136 141 141 144 144 142 143 144 150 151 150 147 148 152 150 152 154 158 158 161 159 158 158 158 155 153 153 154 155 154 153 149 144 141 138 140 138 141 144 143 132 129 114 87 55 58 79 75 76 95 103 104 25 14 6 8 11 33 73 97 110 116 123 124 123 122 126 131 133 130 131 132 131 127 125 125 127 128 130 136 137 139 138 134 137 135 137 138 138 138 136 140 141 144 145 144 140 141 143 144 151 149 152 150 151 153 153 155 155 156 159 161 161 160 160 161 161 158 160 161 160 157 155 152 145 144 145 139 142 147 147 148 138 124 128 110 89 58 38 59 78 87 114 113 13 1 9 15 19 36 79 102 113 119 123 125 127 125 127 129 131 134 135 135 135 135 136 134 135 137 139 140 140 144 145 145 143 143 142 142 143 144 143 141 143 144 144 145 144 145 145 147 147 150 152 151 153 153 155 158 159 161 159 160 161 163 164 165 164 161 161 161 158 157 158 160 153 151 147 141 146 150 149 150 144 131 121 112 101 98 65 71 86 86 92 98 20 9 20 26 14 32 83 104 116 121 123 126 129 129 128 129 132 135 135 135 137 140 138 139 137 138 141 145 144 147 146 143 145 145 147 145 142 143 145 144 144 144 148 146 148 146 148 150 148 147 146 149 154 157 156 158 161 160 160 160 161 163 164 163 164 164 163 159 157 161 162 162 160 154 148 146 144 148 151 151 147 140 131 129 110 101 84 72 91 102 98 108 11 21 30 14 3 27 86 107 117 122 128 129 130 132 136 138 136 134 134 136 139 137 138 142 140 140 142 144 140 139 143 145 146 149 148 146 144 145 144 146 146 146 150 151 147 148 151 144 140 141 147 151 155 155 155 157 158 158 160 160 159 161 159 156 159 161 162 159 160 156 153 156 157 152 147 147 147 148 152 153 149 139 132 129 125 114 106 108 90 96 122 143 26 26 17 11 12 34 89 114 117 129 132 132 137 146 145 142 142 140 139 135 135 133 138 140 142 140 140 141 141 139 141 144 147 151 148 146 148 148 145 142 145 144 149 151 147 146 143 142 143 145 151 151 154 155 156 158 155 153 152 159 155 154 150 150 149 150 153 154 156 150 144 143 142 145 147 152 151 150 150 151 151 140 128 125 119 125 119 91 84 77 96 135 28 21 17 15 27 60 97 116 120 130 139 142 146 148 145 144 142 141 141 138 136 136 135 139 140 139 138 139 143 147 144 145 149 152 154 146 147 148 148 141 143 148 149 150 146 143 145 149 150 150 149 155 152 151 151 150 150 151 147 142 137 133 133 133 135 134 133 135 138 136 132 130 129 134 140 146 152 151 155 152 147 146 135 128 124 125 133 114 93 81 84 116 37 28 21 27 59 74 98 121 125 139 142 143 147 146 146 142 141 139 143 140 142 142 142 141 138 137 138 139 143 145 146 145 148 154 153 153 148 145 150 143 137 146 149 149 149 146 144 146 146 145 146 146 142 141 138 132 128 130 128 121 117 114 118 119 120 121 119 114 115 113 112 117 125 129 137 145 148 152 158 150 147 149 139 122 127 128 139 135 119 88 100 116 51 39 37 61 67 72 107 121 128 137 137 142 137 128 129 130 131 132 136 138 137 142 145 145 141 140 141 138 139 141 143 144 146 152 151 146 147 148 150 148 136 142 147 145 145 142 140 142 142 138 134 135 120 112 109 106 105 105 106 106 105 107 106 105 106 111 107 103 101 102 109 114 122 127 138 140 146 152 153 155 154 151 145 126 128 126 141 138 122 103 108 118 70 66 65 69 64 85 112 125 129 126 127 126 120 118 109 105 113 115 117 123 120 128 138 142 141 142 140 138 141 142 142 144 147 148 144 141 146 147 150 148 138 139 147 142 137 134 137 134 132 124 105 113 95 84 83 84 85 85 83 85 97 98 94 90 91 100 103 103 108 117 118 119 124 126 129 131 144 151 154 159 156 156 157 137 131 131 131 148 121 103 111 111 77 77 68 70 71 83 117 131 128 112 108 101 101 93 87 93 93 91 98 98 103 108 113 122 131 134 134 134 134 135 139 140 142 145 139 138 142 148 148 148 142 136 147 142 127 124 124 116 115 104 87 98 78 70 69 73 81 85 86 90 100 102 108 112 114 120 122 121 128 134 134 135 134 132 131 139 144 149 156 158 158 159 158 147 128 133 127 133 143 112 106 110 94 75 65 75 65 87 118 134 125 106 96 90 87 82 76 78 77 80 80 74 83 93 94 95 102 113 117 124 125 128 132 136 138 143 138 136 141 144 149 147 142 130 134 136 124 116 108 113 102 106 95 95 91 89 79 78 75 60 54 62 70 86 90 100 109 114 112 114 127 139 146 140 140 137 135 139 145 151 157 155 155 159 160 156 133 116 129 133 149 136 114 113 100 74 71 71 82 107 122 134 131 117 101 93 88 84 81 81 78 69 64 63 70 77 78 76 83 92 93 100 105 113 123 123 127 135 134 130 137 142 146 147 142 125 123 132 131 116 106 107 107 105 101 102 86 71 72 71 81 22 12 10 0 25 11 30 89 60 41 43 63 91 118 135 132 132 139 142 145 151 153 156 157 160 161 157 142 120 117 138 147 134 126 122 97 74 68 78 101 105 126 137 132 120 111 107 106 106 104 103 101 99 96 95 86 78 72 70 73 82 83 85 95 102 107 108 113 127 129 123 133 144 150 148 145 130 118 123 125 118 113 109 103 101 100 83 65 81 74 95 128 64 13 52 50 42 10 70 116 73 83 91 78 89 95 107 123 138 145 145 149 154 155 156 159 157 159 158 147 129 112 116 141 144 132 118 94 76 70 95 98 101 126 137 133 123 122 125 125 121 119 105 83 66 65 33 8 16 14 15 14 22 60 72 72 80 95 104 108 116 121 117 126 139 148 148 142 132 119 113 112 112 110 103 96 97 91 81 87 66 57 95 129 129 53 60 57 47 53 107 106 111 125 131 124 124 124 127 136 141 148 145 152 158 156 160 159 154 156 159 152 131 118 113 140 151 131 110 97 74 72 92 98 104 133 141 137 126 123 132 124 102 60 27 38 77 91 34 1 23 14 18 23 13 76 68 64 58 66 83 95 106 109 109 118 138 150 148 141 135 124 119 114 110 104 100 93 90 88 93 69 51 60 85 100 117 107 70 62 84 111 121 120 123 133 135 136 144 145 147 146 145 149 151 154 157 159 163 159 155 158 156 155 129 112 111 134 151 130 102 104 74 81 93 93 115 139 142 135 127 124 124 103 71 44 51 49 101 127 93 17 24 48 58 28 51 115 84 46 44 61 63 68 84 95 104 120 136 144 148 145 140 136 128 121 109 105 98 92 91 101 50 44 70 88 100 101 101 105 117 119 124 125 128 134 137 135 138 147 144 146 153 150 151 153 154 154 157 159 160 158 157 159 154 150 128 93 103 138 151 130 120 109 78 79 99 86 116 140 146 138 130 126 119 100 81 79 103 87 91 122 147 84 31 53 41 41 104 95 64 35 25 41 65 63 74 80 96 120 138 142 149 154 150 147 139 124 111 109 105 104 109 102 66 87 92 91 93 100 99 106 119 117 128 139 141 140 133 134 141 146 150 151 152 152 152 151 154 157 155 155 157 157 160 160 150 144 123 91 103 139 141 119 137 123 87 76 94 89 115 141 146 139 136 131 124 110 111 111 121 119 112 111 121 127 97 74 74 98 106 93 77 59 53 33 55 81 75 76 90 126 145 150 157 158 158 157 148 127 114 110 111 122 123 113 115 113 104 99 100 107 117 127 134 136 142 144 137 131 133 139 137 136 145 154 155 154 154 154 157 158 160 155 157 158 162 160 151 141 128 95 106 141 120 96 131 130 100 80 93 91 115 142 143 140 138 134 131 128 130 127 124 120 118 120 111 113 114 113 116 108 104 99 90 87 93 84 83 97 99 88 92 129 150 156 159 161 164 160 149 136 123 115 114 123 119 125 119 109 105 101 98 103 116 123 126 127 129 128 124 126 129 134 145 152 152 152 152 153 154 159 161 159 158 157 160 162 159 159 155 142 130 98 107 140 122 110 145 134 114 84 95 87 118 141 145 143 140 135 134 135 131 132 129 125 125 123 115 115 104 109 108 111 100 93 89 95 98 103 106 107 107 97 98 128 148 158 165 164 167 161 154 145 130 120 119 128 124 116 110 109 107 109 110 110 112 116 116 118 116 120 124 130 137 144 145 153 154 156 156 154 155 158 160 159 157 156 158 161 155 158 155 136 116 110 113 144 155 155 163 122 128 101 91 90 105 142 145 142 141 139 138 138 134 137 123 117 121 124 126 127 124 120 112 101 94 89 92 97 95 97 101 108 110 100 108 141 153 159 166 166 166 165 161 155 141 123 125 134 132 131 125 117 116 117 121 123 126 126 129 130 132 134 140 146 150 150 151 150 153 155 158 159 159 160 157 154 156 157 156 156 157 156 153 141 116 116 125 146 163 169 164 115 128 123 97 94 104 140 143 142 144 143 140 140 140 129 122 124 113 110 109 111 109 106 100 95 92 98 101 100 101 104 107 112 113 104 120 152 161 163 168 170 168 169 167 159 149 131 130 141 144 142 146 134 131 129 130 129 133 136 138 139 141 141 149 151 152 153 155 156 154 158 156 160 162 156 161 159 154 156 155 152 156 153 153 137 124 114 127 141 150 155 154 117 117 136 118 105 107 138 146 143 145 146 143 146 138 132 135 132 120 113 109 104 102 101 103 102 102 108 111 109 110 113 122 125 118 111 136 162 166 165 167 171 170 171 167 162 159 143 133 141 150 152 153 154 149 143 143 140 144 143 144 147 145 146 154 151 151 156 155 158 162 159 162 160 160 157 158 158 154 154 152 152 155 154 152 147 124 103 123 137 143 147 151 129 112 122 126 127 114 138 144 143 146 141 143 144 141 142 137 132 128 127 124 118 112 114 112 112 114 116 118 118 123 130 132 127 118 123 156 164 164 170 168 168 173 170 170 168 169 153 136 140 148 152 155 159 160 159 152 151 151 149 147 149 148 148 151 155 155 157 157 161 163 162 162 161 155 157 160 155 153 149 148 148 154 156 149 146 127 108 119 132 145 147 149 138 119 113 137 147 121 136 141 141 144 142 148 144 146 142 137 133 133 130 134 129 121 124 124 123 123 127 129 132 135 134 132 128 118 135 158 163 166 171 166 169 173 173 171 170 170 155 141 141 147 154 154 151 144 152 160 157 157 151 150 151 150 153 153 154 156 157 159 161 161 162 162 157 150 159 161 158 153 152 145 147 153 154 151 143 121 126 115 114 133 139 138 145 134 139 154 150 134 135 140 140 144 147 148 145 145 139 141 139 137 138 135 129 129 132 130 128 130 132 133 137 138 135 130 125 122 136 152 161 170 172 168 168 173 169 171 167 151 149 152 142 146 152 155 153 147 152 160 152 154 159 159 154 153 153 152 153 155 159 162 160 158 160 160 158 153 157 158 158 153 148 144 145 149 149 142 131 134 140 150 133 130 134 136 146 153 158 155 148 142 137 142 141 144 146 147 146 140 139 145 145 143 141 139 136 137 134 136 134 134 137 139 136 137 133 130 125 129 138 146 160 171 172 172 170 171 168 166 157 142 151 158 150 147 152 156 156 157 158 158 140 140 161 164 160 163 161 158 160 158 160 158 160 161 155 157 160 158 155 156 155 149 146 143 144 145 136 138 129 139 149 170 171 166 166 163 131 159 154 151 146 141 134 141 142 142 144 142 143 142 143 145 145 141 141 140 141 139 136 137 142 144 139 139 143 135 132 132 124 133 139 142 154 166 170 176 173 172 167 164 156 150 156 158 157 147 149 154 161 159 157 162 154 154 165 165 163 168 169 168 164 163 159 155 156 156 157 159 159 156 158 154 151 152 148 144 137 144 126 128 125 137 147 172 172 171 170 166 102 146 146 145 143 139 130 138 138 140 140 143 141 147 143 144 143 139 139 136 139 139 142 143 147 149 146 145 144 141 137 132 128 136 138 143 151 161 169 177 172 174 172 164 159 158 162 158 157 149 151 152 157 160 161 164 164 164 164 163 166 168 167 168 167 162 157 155 154 156 158 159 155 153 155 153 149 146 143 142 141 141 138 129 132 141 155 173 170 169 170 166 74 116 140 138 136 132 130 143 137 139 143 144 137 144 145 144 144 142 144 141 144 148 150 149 150 151 149 147 143 145 144 136 133 137 141 146 154 164 173 172 168 174 170 169 164 157 162 160 158 156 154 152 156 164 166 162 167 168 167 165 166 166 168 167 166 164 160 157 160 158 157 157 157 153 148 144 146 142 139 138 139 143 139 135 146 139 158 174 172 173 171 166 70 84 114 126 124 118 118 143 141 139 141 143 141 144 142 138 142 144 146 149 152 157 159 157 154 151 149 150 146 148 147 140 138 141 146 149 153 164 174 170 166 173 168 164 165 166 165 161 157 157 158 160 162 164 167 168 167 166 169 169 166 164 166 168 166 167 163 160 158 158 155 154 152 146 145 142 142 142 139 136 140 136 136 137 148 141 160 174 173 174 172 167 73 70 77 92 105 105 104 137 144 138 141 138 139 142 144 140 140 143 144 149 152 160 159 161 157 155 153 151 149 146 144 136 138 145 149 153 158 162 170 166 169 175 172 167 165 170 164 161 158 155 151 157 162 165 166 170 168 168 169 170 167 165 168 165 165 165 164 162 158 157 157 153 152 147 146 148 141 142 141 139 139 139 142 136 143 155 177 173 175 174 172 167 73 71 68 71 79 86 87 129 148 133 138 135 134 143 141 140 142 145 144 147 152 156 155 155 155 157 155 153 153 145 134 121 139 150 155 157 161 165 168 168 166 166 171 171 166 170 169 166 166 158 152 149 148 157 164 170 166 164 168 168 169 166 170 166 164 162 165 159 156 157 154 149 150 148 145 147 144 138 137 141 137 135 133 141 151 157 180 175 175 175 172 167 71 70 69 71 73 79 81 120 148 132 135 135 137 141 140 143 141 145 146 146 150 154 155 154 155 155 155 154 149 142 126 121 145 156 159 155 158 164 168 171 167 168 168 168 166 170 171 168 166 162 151 145 134 146 159 163 166 166 170 166 167 168 168 167 162 161 160 159 155 153 148 148 148 148 146 143 141 140 138 138 133 137 132 132 154 166 180 174 177 176 174 168 71 70 69 70 74 80 80 111 148 134 128 134 130 133 140 143 141 143 145 148 150 152 154 157 155 152 151 148 145 138 126 132 149 158 154 154 155 159 168 169 167 167 167 166 162 167 170 167 162 156 152 149 139 139 146 155 164 167 167 167 166 168 169 167 163 160 160 156 154 149 146 148 147 148 145 143 140 138 140 137 138 139 141 143 156 154 173 178 178 178 175 169 71 70 69 69 74 78 77 108 141 135 132 131 132 134 138 138 142 142 144 147 153 154 155 154 154 151 150 145 144 134 129 141 152 155 145 145 151 155 165 168 171 163 164 165 160 161 162 165 160 156 154 155 144 138 139 151 156 165 168 166 165 167 166 166 165 159 157 156 153 150 148 142 145 147 144 142 142 142 142 139 140 136 143 146 144 151 169 179 182 182 177 171 70 69 69 71 72 76 76 96 132 137 134 131 131 133 135 138 140 140 137 147 154 153 156 155 151 151 150 145 140 131 136 148 142 147 141 141 150 160 166 168 166 165 165 159 158 156 156 158 157 161 163 160 152 141 146 147 149 154 161 159 155 167 168 165 162 162 160 157 149 150 150 145 147 144 142 141 141 143 144 138 132 141 145 148 151 155 181 183 185 184 180 174 70 69 69 70 71 74 73 94 135 140 133 129 129 129 133 138 136 139 140 146 150 151 154 154 152 149 141 140 138 127 138 152 140 140 139 143 148 156 170 167 163 161 161 155 145 150 159 155 160 163 163 164 156 140 145 149 151 148 151 153 152 162 165 166 163 159 158 154 154 150 149 146 146 145 145 144 143 140 141 136 133 146 145 145 142 158 187 185 186 186 182 176 67 66 66 68 70 72 72 75 120 142 132 128 131 132 133 133 138 136 141 145 149 148 151 152 150 146 144 139 135 126 136 146 138 139 141 143 145 151 163 170 168 163 157 155 151 157 160 162 165 162 160 161 153 137 141 152 157 147 145 154 159 157 162 160 160 159 157 154 153 148 150 146 144 145 148 142 145 141 131 139 143 144 143 143 142 160 190 185 187 187 183 177 65 64 65 66 67 69 70 68 112 140 132 130 127 132 132 131 138 138 138 142 145 146 148 150 148 144 143 137 134 128 131 144 146 146 143 147 156 161 165 171 166 166 169 161 161 163 161 163 164 162 155 151 144 132 137 150 153 153 144 148 154 159 165 162 164 160 159 154 151 152 150 145 145 148 148 141 136 139 136 136 143 141 139 141 143 152 188 186 188 188 184 179 63 63 64 64 65 68 68 66 102 135 133 132 128 131 133 135 134 142 140 139 137 141 150 150 149 147 140 132 130 131 129 139 150 146 147 155 165 165 168 174 174 168 168 166 167 165 163 163 158 151 145 142 137 128 138 148 151 157 145 144 152 154 162 164 162 159 159 154 153 153 149 148 144 145 145 144 137 139 140 136 137 133 130 140 140 156 187 187 189 189 186 180 65 64 63 61 65 66 68 66 88 127 130 129 127 131 134 136 136 140 142 138 141 144 146 148 146 145 135 131 134 133 128 136 146 146 150 164 171 170 170 171 174 171 168 171 170 167 168 156 154 147 138 138 125 128 145 152 157 155 152 145 150 156 159 165 167 163 160 155 157 155 146 145 147 144 144 145 143 139 143 141 138 130 136 139 134 167 190 188 192 191 187 181 64 63 62 60 62 64 65 65 83 131 130 133 128 127 132 136 138 141 141 141 141 144 145 147 147 138 129 132 139 141 132 123 135 141 154 161 158 159 155 160 167 166 173 171 173 165 153 147 117 97 117 113 112 135 147 151 155 156 157 150 145 152 157 165 163 164 161 158 155 154 148 144 144 140 145 144 142 140 138 142 143 129 138 139 135 165 190 189 192 192 187 181 66 65 63 62 62 64 67 68 73 121 131 128 123 124 128 131 134 141 142 141 141 140 138 144 141 131 126 137 142 137 134 115 107 126 144 146 148 150 152 154 158 161 167 166 164 149 135 90 44 49 85 105 127 141 151 156 154 157 157 154 147 143 150 157 161 160 160 157 151 154 152 145 146 138 145 139 137 134 129 138 139 140 137 129 137 174 191 189 194 192 188 183 69 67 66 66 67 68 69 73 71 116 132 126 121 124 127 126 135 141 142 143 144 138 128 140 134 123 129 140 144 140 131 123 107 93 116 139 147 149 149 146 147 156 161 152 145 118 83 75 77 91 112 127 119 131 152 154 157 159 160 157 153 144 144 152 156 157 160 158 154 153 154 147 149 146 145 139 131 142 139 137 141 143 128 139 135 178 188 192 194 193 189 184 72 71 68 70 72 73 72 74 73 111 134 122 123 123 127 122 131 140 140 144 145 143 143 137 129 126 134 137 142 135 131 126 114 93 73 94 125 136 137 136 125 131 146 137 102 78 79 95 100 101 118 119 125 135 148 151 155 155 151 148 147 153 149 149 151 154 158 156 153 151 150 142 143 146 143 138 137 142 144 144 142 141 137 146 136 182 190 192 196 195 191 186 73 73 72 73 74 75 75 76 74 94 126 126 128 124 117 118 130 135 138 141 140 140 140 138 132 126 132 137 134 131 133 126 118 93 78 66 84 104 115 116 113 105 102 82 80 79 87 93 103 106 111 125 133 135 137 147 150 153 148 141 136 143 153 152 146 153 158 158 154 151 145 135 135 131 131 137 141 139 138 139 136 133 134 144 135 182 189 192 196 196 191 187 75 74 75 76 78 78 78 78 77 83 127 123 121 120 116 120 119 130 138 142 136 137 142 136 124 121 128 126 124 129 126 118 102 95 92 71 81 75 87 81 81 58 46 51 97 88 102 96 94 95 99 111 126 129 135 146 149 145 143 142 143 136 133 148 152 152 151 157 158 151 138 130 142 139 130 135 140 138 130 128 128 138 130 123 137 182 188 192 196 196 192 186 77 76 77 79 81 80 80 79 79 80 123 120 114 117 124 127 114 127 134 137 139 145 141 132 119 122 131 124 119 118 110 107 92 90 80 82 101 89 89 79 75 52 46 54 83 77 92 82 84 93 98 102 119 121 135 140 144 143 131 126 141 139 131 140 155 149 152 155 153 140 139 133 141 143 139 136 139 136 129 121 129 133 126 120 145 185 186 192 196 196 192 188 76 77 78 79 81 82 80 79 79 78 116 119 112 121 126 127 118 121 131 132 139 143 136 126 119 116 124 121 123 121 111 109 94 87 84 99 105 105 87 87 72 54 52 74 69 75 81 91 97 102 103 90 103 112 125 123 127 128 131 127 127 132 144 149 142 138 147 154 154 140 131 136 130 142 129 141 144 134 136 129 127 127 123 126 165 184 185 190 194 194 192 189 74 77 79 80 80 80 79 78 77 76 93 118 109 118 119 123 119 120 122 126 134 139 130 117 112 107 107 111 125 118 107 107 102 96 101 96 101 90 86 76 60 61 75 83 76 89 95 99 109 105 101 109 93 98 122 119 125 114 124 130 119 117 133 145 139 140 144 152 151 146 131 131 134 140 128 139 138 125 122 131 132 127 113 127 173 179 183 187 191 193 191 187 76 76 80 81 81 80 80 78 78 76 83 99 107 111 117 117 125 123 117 115 126 139 129 119 110 111 117 112 122 120 105 104 94 96 101 99 93 88 94 94 75 68 70 79 88 103 102 85 102 95 99 117 104 107 117 125 123 113 115 129 125 119 123 129 136 134 134 148 148 136 137 131 135 136 129 136 132 124 118 125 138 127 101 143 176 174 179 185 188 189 188 184 76 77 79 81 82 81 79 80 80 81 83 90 105 103 106 117 125 124 113 120 127 130 126 124 115 106 117 103 114 116 113 108 105 111 111 117 103 102 107 119 97 90 80 84 91 118 114 105 109 109 100 114 115 110 115 121 122 116 122 120 116 126 117 128 127 133 135 148 144 135 134 123 119 135 128 138 130 129 127 117 128 131 117 161 170 169 176 181 185 187 184 181 75 78 79 80 80 81 81 83 83 84 87 96 101 98 96 112 121 127 113 115 119 123 130 118 113 103 112 102 111 116 113 119 127 122 119 128 127 123 126 130 125 115 104 100 106 120 132 124 126 121 111 126 127 127 118 127 134 137 131 104 98 101 105 117 124 127 139 149 142 139 136 120 133 133 137 143 131 124 130 122 128 121 128 166 165 167 170 175 180 181 180 175 76 78 78 79 79 81 82 84 86 89 91 95 95 100 92 98 115 116 116 112 115 127 124 103 106 108 94 91 102 104 112 124 130 127 124 124 121 117 125 121 124 132 129 124 129 132 130 130 134 132 129 139 134 136 131 124 116 93 72 61 60 77 94 107 114 127 145 147 143 131 126 116 131 137 147 149 128 120 128 121 117 117 140 164 157 163 166 171 175 176 174 171 76 78 78 80 78 80 83 85 90 92 95 96 97 100 102 93 101 122 127 121 123 125 126 109 102 104 101 89 76 73 83 84 78 75 74 77 83 86 95 101 101 107 118 123 107 93 89 98 95 82 72 74 68 62 62 56 51 59 83 93 87 85 96 108 115 130 138 142 125 117 118 129 140 143 150 141 121 118 121 108 111 125 150 156 153 156 161 166 170 170 169 165 75 77 77 78 78 81 83 87 91 93 95 98 103 98 82 92 104 117 121 117 123 121 132 130 113 103 91 95 79 60 50 29 23 26 31 28 20 12 16 27 30 47 45 35 39 35 14 24 19 11 16 25 42 59 76 86 99 120 127 119 118 112 107 111 117 126 133 148 125 112 121 134 139 132 137 139 121 123 122 104 119 133 151 148 146 151 154 159 164 165 163 160 74 75 76 75 78 81 83 87 90 94 96 99 104 103 86 91 94 109 120 114 117 118 130 134 118 107 94 101 96 93 98 90 85 95 92 83 71 54 40 35 37 43 42 36 42 49 50 56 65 75 83 95 109 116 118 122 131 137 138 133 134 125 115 113 115 125 138 139 133 122 128 141 147 142 123 116 125 136 123 114 127 133 146 140 140 144 147 150 157 158 156 152 73 72 71 72 75 80 83 85 90 93 94 99 100 104 108 90 78 111 120 123 116 109 115 122 116 103 98 106 99 110 109 112 112 115 115 116 115 109 102 100 102 99 96 94 91 92 96 104 109 115 125 130 131 135 138 139 143 144 144 144 137 131 128 119 117 127 136 135 128 124 121 134 148 141 130 125 125 120 106 123 132 136 141 129 132 136 139 143 148 149 147 144 67 66 66 68 72 78 80 83 87 90 94 97 98 101 106 100 79 92 114 122 110 101 102 121 112 98 100 96 101 109 121 120 113 116 118 121 121 126 125 125 126 120 114 111 108 109 119 126 130 134 144 144 142 146 144 144 151 153 139 132 136 130 128 119 120 125 133 122 121 122 124 126 137 138 124 129 138 102 100 122 136 138 134 119 124 127 130 135 139 142 139 137 63 63 63 63 67 72 76 79 83 87 90 91 95 99 101 114 106 78 99 115 109 100 105 117 113 107 105 107 107 114 119 123 121 121 123 126 128 131 134 136 134 132 131 128 126 130 136 144 148 149 148 147 141 143 143 144 145 145 135 135 140 138 131 124 114 113 124 121 111 123 130 136 135 141 131 119 118 110 116 129 135 141 126 111 116 118 120 125 131 134 133 130 57 58 58 59 62 64 70 74 77 80 83 86 95 93 77 108 114 75 77 116 117 96 91 108 104 101 107 110 110 112 114 121 126 129 127 125 127 132 138 141 140 139 133 141 139 141 137 141 141 139 142 135 133 131 135 139 140 144 138 143 141 138 118 117 114 108 123 124 119 121 130 130 126 127 136 125 100 116 130 129 135 137 107 100 108 111 112 117 121 123 125 122 52 51 52 51 53 57 61 66 71 77 83 90 88 62 34 93 120 96 76 94 112 91 93 96 100 107 104 102 108 107 116 114 117 129 133 129 127 129 127 134 127 119 120 127 118 119 119 124 118 123 124 121 116 121 129 131 138 141 140 141 141 133 121 118 122 127 123 120 121 127 118 121 116 121 119 111 110 127 135 133 140 124 49 38 60 77 95 109 114 114 113 112 48 46 44 42 44 49 57 65 74 75 75 72 54 29 18 80 123 110 94 73 103 86 84 97 100 113 100 110 108 102 113 121 125 122 127 128 124 123 114 118 111 107 108 99 97 102 113 110 108 113 110 110 120 116 124 131 136 138 132 132 135 118 117 132 121 117 132 115 115 123 115 124 113 118 124 118 129 132 135 134 140 112 14 1 1 7 23 63 100 106 103 102 43 41 37 33 39 52 59 58 54 48 46 40 31 19 12 66 123 108 95 80 86 101 96 87 100 104 106 106 110 109 109 117 122 117 116 119 114 117 104 100 100 103 94 82 96 95 109 106 102 99 106 114 127 124 126 128 134 138 133 132 131 115 111 128 119 117 129 109 115 113 112 131 128 108 122 131 126 127 126 134 142 102 8 0 0 0 0 2 52 94 93 89 34 32 33 40 46 49 42 29 25 31 33 27 20 12 8 49 116 116 101 93 81 96 107 88 87 94 99 104 105 110 106 106 117 118 118 113 102 105 107 101 96 91 97 98 95 103 94 102 99 99 120 126 129 136 140 134 138 137 137 133 127 119 121 129 137 133 126 99 112 114 104 119 106 102 105 119 127 127 128 139 140 87 1 0 0 0 0 0 10 69 88 78 31 34 41 50 44 30 21 15 19 27 24 18 15 6 5 38 109 118 112 111 95 65 94 79 76 93 111 114 115 109 98 106 119 117 115 114 110 108 111 106 94 93 87 104 105 102 100 102 103 109 126 127 135 132 135 136 137 136 138 135 134 130 116 118 135 126 120 107 104 103 99 93 84 106 110 120 127 130 136 139 136 93 21 0 0 0 0 0 0 42 80 73 45 49 47 38 27 16 12 12 16 19 15 13 12 8 5 28 100 118 115 115 106 82 75 82 76 85 103 113 115 98 94 118 123 124 119 117 114 113 119 113 103 99 98 93 96 103 93 101 102 113 123 129 135 139 138 140 140 139 134 123 126 135 126 130 127 130 124 103 100 102 82 73 100 104 120 129 132 131 137 136 135 129 101 47 12 0 0 2 1 19 55 68 58 47 33 22 16 11 6 7 12 15 13 13 10 7 5 21 92 117 115 114 112 109 86 76 78 83 95 111 119 114 111 113 118 126 124 120 119 114 114 116 113 104 106 90 93 101 94 104 118 125 120 133 132 142 146 146 147 140 133 126 118 111 131 133 123 132 126 107 97 91 73 98 121 129 132 136 133 134 137 135 133 146 145 110 74 39 8 0 1 12 29 47 36 26 19 17 12 5 3 2 6 9 9 9 8 7 7 13 81 119 114 113 114 112 105 92 79 73 82 100 105 117 111 102 117 120 121 122 128 122 120 117 117 115 121 104 98 102 106 110 121 127 135 143 141 150 144 138 141 137 137 130 123 119 117 123 129 122 96 101 81 66 83 114 126 130 136 136 133 136 135 133 136 153 161 142 120 99 62 23 1 10 23 28 20 18 16 14 9 3 2 3 5 6 6 8 10 9 9 9 66 119 116 113 114 117 114 108 79 71 71 79 100 104 100 100 107 115 119 120 129 126 130 123 119 124 129 121 120 122 123 121 129 133 141 139 148 150 142 140 135 129 130 126 118 125 121 107 105 111 96 83 81 79 102 122 125 124 136 139 137 135 133 132 139 154 161 154 146 136 110 72 31 14 20 18 16 15 16 12 8 4 1 1 4 7 6 6 7 8 10 8 49 116 118 116 113 115 116 110 92 62 52 77 91 96 103 102 102 104 103 112 121 121 133 117 117 119 135 133 127 131 123 137 131 131 140 134 136 136 132 133 135 132 133 116 113 117 125 111 91 90 81 64 81 106 125 129 124 129 139 138 137 136 135 135 140 151 161 162 161 154 135 106 64 23 16 15 13 17 15 9 5 2 0 1 2 3 3 4 6 7 9 6 28 107 121 118 117 114 116 110 102 88 67 56 76 104 93 93 104 100 103 113 103 107 114 113 113 114 126 131 131 130 124 126 127 138 138 132 134 139 134 119 129 136 127 127 112 104 128 112 86 65 48 86 109 121 130 127 128 136 138 136 135 134 134 136 141 150 159 164 163 161 150 125 81 26 14 14 15 17 12 7 5 2 0 1 1 2 3 5 8 8 8 7 15 91 123 118 120 117 113 112 111 106 101 65 48 77 80 96 104 99 98 107 112 127 119 118 120 121 117 111 129 125 120 116 128 126 128 132 138 134 127 127 121 121 118 107 102 99 108 103 66 63 91 114 124 129 131 131 132 137 139 138 135 136 136 138 141 149 159 161 163 165 159 140 96 33 13 12 16 16 12 7 3 1 1 2 3 4 4 5 5 7 8 11 8 65 119 120 121 121 118 114 115 113 109 98 77 54 79 98 107 103 100 118 120 121 122 113 123 124 129 126 118 118 123 117 125 128 130 128 126 123 117 109 127 115 110 116 99 104 82 71 72 100 120 121 125 129 130 130 133 137 138 139 138 135 137 135 139 151 156 159 162 164 163 152 111 44 13 12 15 12 6 3 1 1 0 1 1 1 1 2 3 5 9 12 6 37 108 120 119 120 122 119 118 116 114 110 104 78 64 80 83 92 119 118 127 107 101 108 112 125 129 126 133 131 122 120 117 122 126 123 122 118 110 111 111 115 99 130 119 89 66 87 116 126 125 118 124 126 128 132 138 139 137 137 136 136 137 134 140 152 158 160 162 165 166 160 128 57 11 12 13 7 4 3 3 2 2 0 0 0 2 2 3 6 10 11 9 18 89 118 118 118 121 120 120 120 117 111 108 104 103 81 78 86 109 107 122 105 97 112 112 118 124 138 132 120 113 114 113 116 121 119 128 123 109 109 105 101 110 110 89 86 100 120 118 125 122 120 125 130 137 141 142 140 137 135 136 136 138 139 140 150 159 159 162 165 166 164 140 72 13 11 9 8 7 4 4 3 3 1 0 0 2 3 3 5 10 9 10 9 63 110 118 121 120 118 118 121 119 113 110 106 105 102 90 87 81 108 111 101 101 106 104 106 107 120 126 112 98 107 106 107 122 123 121 118 105 94 85 78 109 72 85 113 109 111 121 126 122 124 132 138 141 142 142 141 137 137 137 135 138 142 142 152 160 162 163 165 166 164 146 86 17 9 7 7 8 5 4 3 4 3 1 0 1 2 3 4 6 9 10 5 35 95 115 119 120 120 117 116 117 116 113 110 106 106 105 84 97 90 96 84 83 95 95 108 109 107 114 111 89 107 111 95 112 114 115 105 99 76 65 75 79 85 96 97 104 113 117 120 128 134 135 137 139 139 141 139 135 137 136 136 139 143 148 154 159 161 164 166 166 164 150 98 24 8 8 9 11 7 6 5 3 2 1 0 1 1 1 3 7 7 8 7 19 74 108 116 119 120 122 117 113 114 116 114 110 108 105 105 95 72 88 75 75 81 90 96 103 94 92 96 98 96 107 109 96 93 106 87 93 78 84 105 103 104 99 112 118 118 125 130 134 136 136 137 136 139 138 137 137 138 139 138 138 144 149 152 156 161 164 166 164 162 151 104 31 7 9 9 11 8 8 5 3 3 1 0 1 1 2 3 5 6 7 7 12 51 95 113 117 119 123 124 122 116 117 114 112 110 108 105 102 100 95 75 67 49 78 80 84 88 88 84 99 82 79 90 77 84 77 71 95 107 113 111 114 111 111 115 119 125 130 135 137 136 135 138 138 137 139 138 136 137 139 138 138 145 150 152 156 162 164 164 164 163 153 112 40 6 9 8 8 7 6 4 3 3 2 1 1 1 3 2 3 6 6 6 6 28 76 102 113 115 119 120 123 120 120 118 113 112 108 108 105 101 99 99 95 66 66 86 73 71 81 78 85 75 69 71 79 88 89 92 110 115 113 111 115 118 118 124 128 130 132 135 135 133 136 138 138 137 137 136 136 136 139 136 137 144 150 152 155 161 163 164 163 163 156 120 54 7
