P2
# Generated by OpenCV 4.2.0
92 112
255
7 12 15 11 11 8 12 9 26 55 55 55 106 91 106 55 22 31 20 13 11 7 7 7 7 6 6 9 16 17 15 12 12 16 35 45 20 18 23 18 13 15 15 13 22 23 34 27 29 28 39 85 44 75 96 62 106 105 93 97 106 117 113 116 117 114 108 112 57 48 23 24 36 67 119 58 42 32 29 46 33 34 45 44 32 27 15 32 18 5 14 17 14 8 8 8 6 15 4 10 28 16 3 4 8 4 8 33 57 21 27 26 23 13 11 12 9 6 7 6 10 14 22 9 18 29 28 72 47 16 37 33 21 10 16 24 30 31 26 35 38 45 46 70 86 105 102 108 118 129 146 146 143 143 149 139 136 151 134 124 97 76 53 30 40 40 68 71 53 26 22 30 45 32 24 37 30 22 26 21 30 15 8 17 11 5 3 9 16 11 26 26 1 8 16 20 15 14 54 39 32 33 17 24 19 12 7 7 8 10 13 15 21 11 41 26 24 37 34 95 95 27 50 33 23 27 15 32 26 44 32 52 44 68 79 70 107 137 151 135 145 164 169 162 160 162 162 165 164 158 163 130 123 89 47 39 32 21 70 78 33 29 33 20 13 44 24 21 21 30 26 22 27 18 6 4 6 11 8 14 13 10 11 39 55 48 49 20 45 64 5 12 9 14 26 21 31 24 21 14 7 14 14 18 27 40 32 40 43 62 67 142 88 63 52 37 31 22 37 42 48 66 61 87 67 84 105 108 142 147 162 167 167 172 173 178 174 171 166 163 168 180 159 151 120 106 91 53 43 25 6 39 57 31 23 24 23 9 39 22 19 20 27 37 14 18 12 12 16 9 10 10 23 32 65 53 19 8 7 41 44 14 14 14 13 15 9 33 21 13 20 21 16 14 20 21 18 55 56 85 57 36 111 128 131 44 63 45 31 30 62 63 61 67 73 94 103 90 142 144 165 180 182 182 177 179 181 179 177 175 171 167 173 177 144 144 138 134 81 79 89 37 23 19 29 38 20 20 21 25 16 30 22 15 19 33 25 6 17 11 7 9 7 25 49 31 12 7 18 36 66 79 81 30 22 22 10 17 15 9 20 12 12 13 19 27 22 25 31 29 64 91 135 83 127 142 91 89 67 55 46 29 77 106 67 114 105 138 141 136 175 167 180 177 182 187 177 173 182 177 179 177 178 177 180 174 161 177 124 143 137 103 82 65 100 42 22 34 38 23 20 19 15 18 19 16 24 23 33 26 4 15 10 12 13 19 8 8 19 34 42 70 35 17 21 25 14 10 12 7 8 15 19 16 23 17 16 22 18 41 63 48 61 72 176 147 161 115 105 90 88 78 63 79 96 111 113 129 111 142 146 162 183 183 186 189 185 175 185 177 178 179 171 176 172 176 179 165 160 128 173 162 132 125 94 70 60 103 24 27 27 23 16 17 19 13 21 26 17 24 20 33 22 4 13 14 19 6 13 25 17 12 44 30 9 9 8 12 12 9 17 19 22 26 25 31 28 31 26 32 25 33 26 85 100 111 166 155 172 154 153 143 140 138 100 129 159 148 151 164 159 161 167 171 176 177 186 193 190 173 183 176 181 180 175 172 176 177 184 163 123 167 157 155 145 117 111 92 43 66 82 23 20 25 17 24 20 16 12 22 14 19 25 19 28 21 14 9 9 8 16 17 11 34 32 4 12 19 21 26 32 37 38 40 43 47 49 43 30 41 31 50 67 49 76 74 100 144 137 171 189 201 212 195 199 192 178 158 181 176 185 184 173 171 183 182 181 180 182 180 194 181 185 179 174 175 171 174 176 178 169 135 178 159 167 169 153 109 90 125 108 41 52 64 15 21 20 13 23 23 21 12 17 21 19 30 18 21 12 6 11 7 20 12 15 22 12 15 15 18 23 35 37 37 46 55 69 80 70 83 55 52 50 52 60 94 87 75 114 149 169 166 179 199 209 211 202 206 200 188 184 192 191 192 184 182 189 188 186 188 187 184 189 183 183 183 175 175 176 172 164 176 156 171 164 167 165 153 152 146 113 74 68 92 53 37 34 12 16 20 13 20 20 21 16 7 24 15 23 29 6 5 9 8 13 11 9 16 13 11 24 29 29 33 46 64 86 99 102 99 100 123 143 98 106 107 108 88 107 116 148 163 186 197 192 210 215 214 209 209 209 204 197 196 204 192 188 199 186 193 190 190 188 185 182 180 178 186 178 171 173 169 174 172 141 175 159 144 136 137 145 144 104 99 55 57 52 53 35 24 14 17 14 14 15 29 17 19 12 21 10 16 4 5 6 16 10 12 11 14 15 27 35 26 43 59 79 101 116 132 136 142 144 142 174 145 133 129 140 149 151 164 156 188 198 211 215 214 208 211 206 204 209 209 211 213 209 199 196 197 189 193 188 189 189 184 183 179 176 181 180 174 172 173 177 131 167 162 156 148 146 135 129 118 129 111 74 52 55 80 49 33 27 6 12 13 12 14 20 19 12 8 14 21 4 5 8 19 6 8 15 13 25 40 25 41 56 67 103 119 141 152 153 158 160 161 181 181 167 176 181 182 176 189 172 201 202 212 211 213 210 212 207 206 206 207 207 207 211 209 201 202 196 197 191 186 191 183 177 185 178 181 180 167 170 170 158 163 169 157 149 140 149 148 124 91 87 70 74 54 27 35 53 47 9 32 15 12 9 13 10 23 21 11 7 19 6 7 10 14 4 12 13 13 37 32 37 54 77 106 117 144 151 159 166 168 179 182 188 192 187 186 186 187 194 197 178 200 207 210 214 217 209 205 202 204 207 206 208 211 202 209 205 204 203 202 198 188 187 187 182 180 180 173 173 164 169 169 163 170 159 156 161 136 99 115 140 111 77 55 48 56 19 24 22 28 26 11 19 16 13 9 13 18 22 20 8 12 7 7 9 16 6 13 9 24 42 38 44 60 100 124 128 146 160 163 171 177 183 185 190 193 194 187 187 194 190 204 196 200 205 207 215 213 213 211 211 210 208 206 206 211 211 205 201 202 201 199 199 191 183 185 184 181 185 178 169 165 163 170 170 165 156 157 141 149 141 128 99 77 89 52 41 22 53 27 11 8 9 10 12 18 14 14 13 13 14 19 21 15 6 7 7 13 8 13 11 36 46 47 49 80 123 140 145 160 164 163 177 181 186 186 185 184 190 185 189 195 193 202 204 193 202 214 208 215 215 207 207 210 212 207 208 209 218 210 211 206 203 202 198 194 189 187 185 184 178 175 165 162 168 169 172 165 155 142 142 122 100 104 116 105 79 38 37 20 18 33 36 11 16 2 5 3 9 13 10 13 8 8 20 16 7 9 10 10 10 15 19 39 50 54 65 100 131 136 149 159 166 167 176 178 185 185 185 186 185 184 195 196 202 208 202 198 203 211 213 214 214 213 213 210 214 212 211 212 219 211 212 209 208 203 198 194 193 191 189 187 184 185 166 165 171 162 168 164 145 139 140 139 129 99 88 73 46 52 47 37 35 18 18 16 15 10 5 8 6 4 9 7 14 9 17 17 7 9 10 9 11 15 30 42 55 63 88 104 138 140 148 160 173 178 182 186 183 187 184 189 193 185 187 189 204 196 204 196 206 209 211 208 210 211 213 206 215 212 222 219 209 212 210 216 211 207 200 195 192 192 186 181 181 184 170 166 164 157 161 155 140 132 134 121 124 123 96 66 39 34 21 49 33 18 18 14 17 11 13 6 8 3 6 7 10 21 7 24 10 10 9 11 11 15 30 35 57 78 104 110 141 140 148 162 168 172 179 181 185 189 184 191 198 192 195 203 201 203 199 196 195 196 202 205 206 203 198 196 199 205 200 209 215 211 207 214 212 208 202 194 193 190 187 182 179 181 174 165 168 161 161 158 146 115 110 113 92 78 89 71 36 30 25 13 16 13 17 7 20 12 7 11 11 11 4 7 3 8 21 10 8 7 6 11 11 20 32 39 64 90 103 116 142 152 152 158 163 175 180 183 186 189 188 185 192 188 193 191 196 209 211 205 205 211 210 208 212 209 210 211 217 213 217 211 214 218 217 221 218 204 199 198 196 186 186 184 179 177 167 160 161 159 155 152 139 120 119 126 103 40 53 61 44 25 21 18 12 12 11 10 12 17 15 6 14 12 7 8 7 7 18 16 10 9 4 13 9 20 41 44 70 108 105 125 143 152 150 156 161 174 177 179 174 180 186 190 194 195 201 199 200 202 205 206 204 205 207 204 204 207 206 205 208 214 218 211 211 214 219 216 215 206 207 193 191 187 183 188 179 175 172 159 156 160 154 148 135 115 115 115 91 81 53 34 30 27 23 14 16 10 9 9 8 15 19 13 8 10 11 13 7 7 13 11 8 10 8 15 19 21 34 43 69 114 104 115 146 151 156 161 166 168 174 178 177 183 184 186 188 185 195 200 191 202 192 205 202 210 205 199 209 203 209 212 208 217 211 206 210 208 212 217 199 206 191 187 179 178 179 186 178 173 166 159 157 158 158 147 132 124 135 117 111 76 70 58 35 18 19 12 10 11 8 8 6 8 14 14 14 12 12 13 12 7 10 17 10 6 10 14 11 21 31 47 73 111 110 112 144 154 154 154 165 171 167 177 179 182 178 187 186 190 188 200 189 200 203 192 197 193 206 199 201 205 201 205 209 212 202 210 203 208 210 209 205 194 194 183 178 182 180 177 172 170 166 165 159 160 158 149 138 134 129 118 89 63 55 49 29 35 33 21 19 18 7 7 9 7 11 13 18 19 15 12 11 6 4 13 7 18 14 6 13 23 37 33 80 109 117 111 136 151 144 148 156 159 172 177 178 183 180 179 193 193 197 193 183 188 193 191 198 200 198 205 200 202 201 213 210 207 198 193 211 204 211 210 196 191 180 181 179 178 169 175 175 176 168 168 159 160 159 147 138 140 134 126 98 84 54 43 43 26 20 21 20 23 19 12 8 7 6 7 12 16 13 12 11 12 5 14 14 18 8 8 15 22 32 48 60 107 114 109 130 153 156 156 167 171 173 174 176 178 180 184 190 195 198 205 190 204 196 182 187 193 188 196 202 198 204 202 192 195 205 200 209 208 207 200 188 183 175 178 173 171 170 169 176 170 167 160 156 158 156 144 127 133 133 122 110 82 56 39 25 28 31 20 22 8 8 5 6 6 7 8 8 15 13 13 12 11 9 12 14 6 12 10 13 15 38 64 60 103 115 114 124 147 141 136 149 161 169 169 170 171 174 176 183 191 193 187 192 200 189 195 188 196 195 189 194 205 199 200 197 202 205 214 211 194 202 198 194 181 188 184 180 180 180 185 179 176 166 168 157 158 149 145 131 136 137 117 119 108 79 47 36 33 24 20 14 9 9 11 8 8 8 7 6 10 14 16 21 17 17 10 13 6 10 9 6 28 37 67 66 95 116 123 122 149 155 145 153 158 165 166 174 176 178 180 185 190 187 187 183 191 194 200 193 182 177 185 188 190 192 183 189 187 195 196 204 210 207 196 184 180 184 181 182 187 187 184 177 174 166 174 161 155 143 139 138 135 128 132 125 109 92 75 42 32 18 13 12 13 9 10 10 10 10 10 9 9 14 14 39 36 24 37 6 11 7 17 16 25 26 59 72 98 113 123 132 146 154 150 152 157 166 167 175 172 177 176 184 200 193 197 192 192 203 191 196 197 206 203 209 213 203 199 206 213 217 214 207 203 198 193 188 186 182 188 185 188 190 188 181 175 170 163 151 143 140 140 139 139 137 132 122 112 86 55 35 33 35 36 23 13 11 10 11 9 11 16 15 10 13 10 10 22 18 26 11 4 11 19 11 10 26 54 84 90 110 116 125 136 150 150 145 154 163 174 173 167 175 179 187 197 195 191 190 195 191 192 201 194 192 197 201 207 212 213 206 208 206 205 202 195 200 199 196 192 187 194 191 193 189 191 182 175 166 161 156 139 128 129 146 143 134 117 113 108 81 64 47 49 55 62 46 26 17 9 8 11 11 9 18 15 9 10 12 36 18 17 7 9 11 12 13 16 19 62 78 83 108 116 126 144 159 165 159 163 165 171 170 177 176 183 191 198 200 198 199 205 204 203 200 196 205 201 203 206 210 205 200 208 208 206 203 191 206 197 193 196 195 196 197 196 194 190 179 179 169 155 152 142 136 146 146 150 142 130 112 103 91 66 55 59 77 91 66 31 20 19 10 11 15 16 15 21 14 8 12 47 35 19 9 12 12 8 21 14 24 56 83 87 109 113 123 141 152 154 158 164 169 169 169 177 180 183 188 198 203 206 203 204 205 205 200 202 203 200 208 206 209 203 208 207 213 205 205 199 205 201 196 197 195 194 201 196 194 194 182 178 167 161 161 154 145 151 147 155 140 121 111 101 86 70 64 70 81 100 94 67 43 24 12 8 13 22 16 21 18 9 21 16 41 19 10 13 18 11 15 11 12 56 85 93 105 112 118 140 154 160 157 167 171 178 176 174 179 187 188 200 206 205 199 201 205 201 203 193 200 205 203 202 206 207 209 207 211 204 204 206 202 201 197 199 199 196 205 197 193 194 183 176 169 170 173 174 164 165 160 151 138 126 110 97 74 57 71 72 94 111 107 90 52 54 33 12 8 13 17 18 12 16 13 19 40 29 14 17 20 9 6 11 13 58 77 91 105 120 119 133 150 164 162 172 168 176 180 180 179 192 195 198 198 200 200 205 209 203 202 197 196 203 199 213 210 213 216 214 201 196 201 199 208 207 198 203 207 202 205 201 199 193 184 186 180 179 175 179 180 170 159 152 142 134 106 100 74 73 67 81 103 110 121 101 81 74 34 38 19 14 16 10 19 10 17 18 43 46 14 8 17 7 10 11 8 58 72 90 109 119 117 132 157 164 165 175 170 176 180 187 178 189 184 190 203 201 197 206 207 207 205 204 199 201 201 205 217 214 214 202 194 202 208 214 214 210 202 204 207 199 198 199 199 186 188 183 178 179 185 181 176 166 165 165 151 133 126 103 86 74 72 95 120 123 127 108 100 78 57 37 41 42 13 15 21 18 22 36 79 111 14 11 10 11 10 6 17 66 72 85 117 124 135 149 165 173 166 170 174 178 183 185 180 182 182 196 201 204 207 216 207 206 204 205 194 192 196 206 210 199 195 202 217 207 215 214 213 204 205 205 202 200 199 196 196 190 183 177 174 173 176 176 175 173 173 168 155 141 122 110 101 69 74 99 119 125 119 112 106 114 96 57 76 35 35 13 17 23 34 61 116 122 18 8 10 16 12 8 22 74 73 100 116 137 150 159 168 175 176 179 179 178 183 183 182 181 187 190 198 199 210 216 203 202 203 197 206 181 188 200 188 204 199 204 198 201 212 211 206 209 199 195 195 194 193 187 182 170 169 147 127 148 156 160 155 154 148 156 161 126 106 115 87 81 89 101 130 128 125 118 105 101 93 92 39 45 36 25 25 23 49 85 128 114 29 5 19 16 12 9 29 80 82 115 130 139 155 163 176 181 172 177 177 178 182 189 191 176 182 184 194 191 200 208 189 202 204 197 207 182 179 187 198 185 194 187 203 201 186 186 185 180 170 173 162 162 174 168 157 142 117 116 101 114 108 130 105 100 78 87 101 118 98 114 88 88 105 114 132 131 122 120 115 141 110 96 40 37 35 34 16 68 81 117 112 56 57 1 19 19 16 5 29 76 92 125 138 150 167 165 166 179 177 170 175 183 181 184 183 181 188 186 188 187 192 192 193 199 194 199 196 190 175 181 179 190 178 182 186 172 140 157 132 99 92 84 87 98 94 121 111 101 94 101 100 76 78 84 105 95 80 63 62 71 78 96 76 96 112 120 124 131 121 121 91 109 120 110 111 37 22 23 24 65 106 113 33 14 59 7 22 13 9 16 24 97 114 129 112 120 125 146 157 161 164 169 172 178 178 176 168 170 172 177 182 179 180 177 183 192 192 191 188 185 179 175 173 170 172 162 163 168 97 107 79 42 38 65 69 40 51 66 70 47 69 68 70 74 58 48 58 45 57 64 48 50 69 72 74 89 106 120 115 129 110 120 106 91 115 79 130 53 28 24 25 55 89 57 13 38 78 26 24 20 15 8 29 97 92 56 83 106 113 99 106 115 133 138 147 153 158 170 160 160 161 166 167 173 176 175 172 180 183 190 180 177 169 170 167 138 138 145 48 122 110 47 72 45 41 27 55 36 31 39 37 27 33 37 51 44 46 43 40 40 62 60 65 58 72 89 102 84 104 105 121 142 100 106 112 106 104 86 69 54 48 23 23 44 65 72 22 67 64 44 25 20 26 15 31 83 46 59 57 51 67 79 71 49 50 53 66 87 87 122 126 134 143 156 150 163 167 160 168 176 179 179 187 173 159 154 160 151 119 83 108 72 74 54 63 42 33 28 21 27 37 47 54 78 83 111 107 112 103 98 95 74 67 70 63 88 89 85 101 60 102 120 127 123 91 118 107 103 97 107 87 83 60 48 28 36 67 61 39 94 75 75 50 28 22 23 55 56 48 41 41 40 49 37 36 41 36 47 39 34 43 51 79 110 109 128 131 142 153 155 153 169 183 181 171 167 161 147 148 157 137 107 59 79 62 43 36 38 24 31 58 77 83 95 119 133 136 140 144 146 149 140 130 130 114 112 116 111 115 111 102 118 126 131 130 130 119 120 107 109 103 104 96 124 67 38 42 29 54 37 94 146 72 75 76 35 33 31 72 82 26 26 34 20 28 30 28 20 24 19 24 24 21 33 34 43 58 102 99 109 137 151 149 154 180 183 188 174 158 137 132 131 121 92 79 55 38 33 26 35 59 53 26 19 11 2 2 7 4 2 7 31 36 67 91 98 133 134 118 169 122 105 112 126 120 131 135 125 127 114 119 113 95 101 74 74 93 50 76 39 50 22 79 122 77 88 81 47 40 32 84 99 27 27 46 69 79 82 90 84 85 74 68 57 39 31 28 29 39 46 83 93 113 129 125 136 161 177 175 166 153 132 115 92 71 59 47 33 27 28 48 52 29 14 41 54 11 26 5 171 82 24 25 28 26 23 17 15 46 86 142 104 112 104 111 130 136 146 134 127 125 120 107 116 97 104 111 81 149 49 85 37 39 13 38 93 75 78 78 40 29 24 90 104 34 40 61 95 115 128 138 140 133 126 121 84 59 50 33 35 37 35 35 62 92 98 100 122 167 185 182 166 151 145 124 88 63 42 29 30 30 46 34 20 36 57 84 56 161 71 36 1 5 12 14 30 67 58 41 50 54 63 52 46 99 134 160 147 146 148 139 134 131 120 120 110 104 111 64 112 93 83 63 40 35 35 96 112 75 79 85 44 42 18 89 104 74 63 90 119 122 109 72 42 32 0 3 9 0 4 22 28 22 23 33 19 27 45 77 119 158 176 188 175 163 153 122 101 70 34 33 45 40 41 42 56 82 72 25 121 186 176 42 67 0 6 58 158 133 113 65 58 88 121 97 125 140 158 167 148 153 145 143 135 130 119 123 113 105 72 63 81 99 94 37 52 45 56 120 115 79 75 101 54 66 47 89 114 98 107 115 60 21 6 21 19 25 33 13 14 145 0 19 8 27 41 15 19 31 28 42 102 156 179 192 190 175 164 146 116 83 50 66 68 41 38 90 86 45 148 166 175 193 197 160 175 185 190 188 141 124 127 102 66 141 162 166 167 161 160 160 157 153 150 140 141 135 142 126 115 106 82 52 25 94 60 44 62 71 68 117 98 76 70 96 50 58 48 78 107 93 106 59 20 26 23 9 50 111 77 19 18 1 9 44 49 92 28 32 30 40 30 25 96 159 182 201 196 186 176 156 124 68 90 118 74 81 160 169 34 151 135 161 148 141 144 142 108 155 148 166 163 146 124 71 106 138 147 162 167 159 167 163 161 158 154 147 149 127 127 110 119 96 109 61 39 81 67 48 62 92 60 104 109 75 68 102 59 114 64 81 102 88 95 48 36 29 50 63 80 122 160 45 47 35 19 26 130 138 74 66 58 84 51 44 88 168 190 205 204 202 186 165 133 102 121 125 115 167 191 168 166 181 168 158 152 151 168 180 193 181 169 167 133 99 77 129 163 156 163 168 165 167 168 166 165 161 166 151 153 138 128 119 109 116 88 75 62 102 80 39 71 94 72 116 149 73 77 77 111 88 50 111 105 105 87 53 34 36 68 107 150 170 180 175 126 141 201 188 180 161 131 139 95 91 133 100 86 165 192 206 209 198 182 172 151 120 118 137 129 203 182 188 184 164 135 106 120 135 153 142 144 137 112 104 93 114 112 129 140 159 167 173 164 170 165 165 165 162 153 154 143 125 133 108 118 84 81 85 40 87 32 38 78 123 91 128 186 73 72 79 78 148 69 96 116 117 114 109 82 74 83 129 156 127 109 138 120 127 124 118 148 151 178 185 167 167 177 135 112 175 195 206 210 202 186 171 165 133 115 144 138 177 159 173 163 149 151 133 105 78 79 78 73 68 68 69 89 112 139 170 179 182 171 164 173 164 166 167 164 164 159 147 153 132 135 123 107 101 70 59 50 25 64 30 82 142 86 121 175 74 72 59 74 178 70 81 117 122 123 125 102 75 74 132 149 157 168 152 150 143 152 120 112 124 149 166 167 166 172 139 139 180 198 209 213 202 191 181 172 151 117 131 152 162 163 176 159 163 164 162 163 169 160 155 151 133 145 155 155 168 178 177 181 177 177 179 170 163 166 169 165 164 159 147 142 133 133 113 109 97 63 49 36 20 44 39 96 137 95 94 174 73 71 74 101 160 74 93 119 128 130 124 113 99 70 59 93 117 128 135 127 114 89 73 89 106 136 135 156 151 152 133 176 191 200 208 216 205 198 186 175 163 131 110 154 163 169 186 197 185 173 175 183 179 182 186 178 185 183 182 190 202 192 191 187 182 183 170 175 170 166 167 160 162 160 152 141 135 118 116 130 93 73 66 26 21 19 57 94 131 68 102 130 73 71 72 81 156 127 78 120 123 125 129 122 120 86 107 67 51 53 53 59 57 62 68 115 148 148 151 153 168 162 147 185 187 200 209 215 207 197 192 184 174 140 99 137 167 167 182 191 206 197 189 185 188 187 189 195 196 197 201 204 198 204 197 195 192 180 174 167 174 167 169 166 156 156 150 139 132 123 121 111 92 66 35 25 26 16 58 108 143 32 100 141 74 73 72 74 145 109 83 116 130 132 138 138 135 158 152 138 114 95 79 93 108 127 152 160 160 166 180 182 171 148 141 183 193 200 209 216 210 207 195 182 180 136 99 124 151 165 172 197 202 198 210 201 198 196 198 201 199 196 203 204 196 203 199 195 187 176 176 173 171 171 169 168 162 159 149 139 136 131 109 74 65 67 42 29 23 27 43 103 121 30 119 172 74 73 77 74 131 74 86 123 134 126 135 144 156 150 144 167 163 163 157 161 165 164 167 170 190 184 183 177 162 140 140 182 196 202 206 218 210 200 191 179 146 110 109 118 136 159 166 193 216 173 202 204 208 198 193 194 205 207 209 206 203 206 200 193 188 179 178 175 170 172 171 169 159 156 147 142 123 119 113 92 75 47 25 20 29 23 42 98 121 104 167 185 74 72 66 71 89 74 87 115 129 132 142 147 149 155 160 172 171 174 164 164 173 173 176 184 180 184 178 173 158 138 141 177 190 196 205 210 208 194 186 152 114 111 124 122 124 146 159 183 189 171 204 208 194 204 207 211 209 203 209 202 205 206 198 188 183 178 179 179 174 172 174 174 162 155 140 129 125 117 106 79 81 51 35 32 29 25 38 93 103 158 181 177 73 70 73 76 133 63 81 108 132 137 141 144 147 163 165 171 174 172 174 171 173 170 182 185 184 180 174 165 147 136 133 169 186 195 206 205 202 191 175 136 121 142 141 137 122 134 150 161 190 203 205 208 166 181 217 213 217 214 210 208 205 206 195 184 184 178 178 181 172 169 171 164 160 153 144 132 119 112 96 76 67 42 37 27 27 32 37 77 98 140 179 171 71 73 71 61 161 70 94 109 131 136 146 149 157 163 167 175 176 176 180 173 171 177 185 186 185 183 172 160 142 141 132 170 184 191 199 201 194 187 171 138 131 150 147 146 126 122 148 154 181 196 206 202 189 214 217 215 216 211 210 208 206 199 187 180 176 177 181 174 173 169 176 163 156 144 135 124 122 107 60 71 57 52 30 22 17 23 38 77 115 149 175 173 70 77 66 61 164 120 93 103 124 136 142 155 156 159 169 180 174 185 179 183 182 187 188 188 188 182 173 157 136 141 131 169 184 193 193 196 197 186 167 139 124 157 158 152 127 129 152 154 175 187 206 224 219 226 211 217 210 215 204 209 199 196 183 178 180 184 180 177 168 170 168 156 153 146 135 125 108 90 75 62 71 50 30 21 22 28 38 91 148 167 170 167 72 70 74 71 152 165 104 97 123 131 138 150 161 168 172 180 184 182 190 189 192 191 190 189 189 180 177 158 137 145 133 165 184 192 199 200 190 179 160 157 153 159 159 159 143 144 144 152 176 195 203 214 222 216 220 214 214 211 206 204 198 194 187 179 183 180 180 176 166 166 155 148 141 145 124 110 94 86 66 58 49 25 35 24 27 25 33 76 132 155 160 160 73 67 74 64 145 146 116 90 123 135 142 150 152 160 174 180 185 189 195 199 201 195 189 187 187 178 177 149 140 141 137 171 175 192 193 195 193 180 160 163 164 164 160 153 145 138 143 153 168 185 196 216 214 212 215 213 210 210 206 196 199 192 188 181 186 178 179 170 166 156 148 140 141 138 118 110 97 76 65 61 43 24 26 30 31 27 19 31 88 114 112 104 73 70 70 64 128 154 142 92 115 129 148 147 156 165 174 179 183 189 195 195 199 196 194 191 185 177 169 137 144 145 144 167 179 197 212 202 186 183 167 163 170 163 160 154 136 112 128 151 171 180 190 205 210 213 213 215 206 212 202 200 196 194 194 183 180 184 179 175 160 150 145 146 125 120 116 103 85 79 65 41 34 27 25 37 37 32 19 38 49 41 55 59 72 70 74 62 124 156 165 97 111 115 152 154 162 163 171 179 186 188 194 193 199 195 193 190 188 180 165 139 143 140 155 168 190 201 215 205 191 180 163 167 172 169 153 147 140 102 111 141 167 187 197 203 204 213 207 215 211 214 196 197 192 189 186 177 177 182 176 164 167 155 146 134 128 127 106 107 72 65 43 62 49 27 29 37 34 24 20 62 65 79 79 79 70 77 66 67 87 159 157 91 98 111 147 151 154 166 173 177 181 186 195 198 194 194 193 189 186 183 173 151 140 136 153 168 190 203 213 203 187 180 168 171 172 163 158 142 130 104 112 115 155 191 195 205 202 205 208 210 211 205 202 197 194 190 184 177 176 177 168 166 159 142 126 135 112 117 92 85 61 62 57 74 46 56 39 34 20 28 23 52 75 82 78 79 72 72 72 73 55 115 140 122 83 107 131 146 160 164 175 179 181 185 190 196 197 184 190 187 187 190 180 139 144 142 148 171 194 203 213 199 186 178 172 172 161 163 155 141 129 125 124 109 148 170 189 200 207 207 206 208 203 207 197 195 191 185 181 176 177 170 161 156 152 150 130 120 119 104 94 89 88 69 54 46 51 42 52 33 21 22 32 62 72 81 82 77 72 72 70 68 72 48 63 93 68 105 124 137 145 160 169 177 182 184 192 191 186 189 191 192 192 188 173 121 140 145 153 166 186 203 205 187 176 170 157 157 166 165 156 163 154 142 143 105 123 165 188 192 198 204 204 202 204 198 198 193 192 189 181 178 174 169 165 151 142 144 126 128 99 88 105 86 75 58 54 73 35 78 54 49 29 22 37 66 67 79 82 77 72 73 72 71 68 74 63 56 78 85 115 130 150 160 162 171 180 183 189 192 189 186 187 188 188 184 158 123 139 136 153 161 181 206 206 181 170 161 156 161 177 177 171 174 158 145 127 104 96 177 188 190 189 193 202 194 204 198 194 191 187 178 180 174 163 158 150 143 125 125 123 101 100 112 107 95 61 73 69 53 11 88 48 40 53 46 39 76 71 78 79 79 72 71 71 70 70 67 65 67 73 72 96 127 144 150 164 169 179 178 182 185 183 183 179 183 186 176 135 135 141 129 149 170 186 204 204 182 173 165 167 170 178 185 188 176 152 124 118 81 62 170 189 196 191 183 199 188 193 189 190 188 186 177 170 169 159 153 141 143 130 136 116 98 99 96 117 97 61 69 77 69 53 60 48 29 50 27 37 71 75 75 77 79 72 71 71 71 71 69 70 71 74 79 86 119 130 152 158 164 170 172 176 183 178 177 180 179 173 174 115 151 144 134 157 186 194 219 211 180 167 168 164 175 180 180 175 154 145 115 90 62 51 158 186 198 197 183 183 188 191 192 184 184 182 177 171 160 159 145 140 138 131 118 106 102 110 125 89 116 83 77 76 71 47 55 41 26 61 29 44 73 78 77 78 79 72 73 71 70 72 70 70 63 77 65 76 104 131 142 156 165 164 163 172 178 180 177 174 170 166 181 111 152 146 135 173 191 205 224 221 190 177 171 172 169 173 164 164 141 114 83 58 50 52 163 190 196 192 183 183 186 185 190 191 183 183 173 171 157 162 149 142 124 108 113 103 101 92 114 100 95 105 87 111 77 67 43 45 50 57 27 48 74 78 79 78 79 74 72 72 71 72 69 70 64 81 82 77 91 116 146 142 153 160 166 172 173 174 178 172 167 165 168 130 101 124 147 178 190 188 199 209 197 183 176 172 153 145 122 113 78 59 49 39 38 75 172 188 192 192 189 182 187 189 182 189 180 177 170 164 154 148 135 117 108 107 111 102 113 102 127 100 95 85 107 82 75 56 44 63 27 76 22 53 72 76 78 77 79 74 72 72 72 70 70 71 67 76 81 82 78 108 129 134 149 158 159 162 169 173 170 158 160 164 166 146 65 81 136 166 172 174 171 170 184 182 167 137 95 75 54 26 15 29 22 30 15 133 185 188 190 191 187 185 179 179 176 182 182 174 161 159 147 142 139 111 97 77 101 79 105 76 122 103 116 76 88 85 78 60 51 66 38 66 29 62 75 76 77 79 79 74 72 72 72 70 70 71 69 83 77 102 83 92 113 130 128 142 151 150 155 165 161 156 163 170 159 147 87 36 61 120 149 147 144 147 161 160 108 55 38 26 4 5 8 8 16 22 86 158 185 188 194 190 187 184 173 173 170 168 171 170 157 149 143 129 122 110 98 77 119 93 102 79 118 107 102 76 74 77 63 47 59 39 34 97 19 66 78 79 79 78 79 72 71 72 70 70 69 71 71 45 79 104 73 76 105 120 129 135 130 116 162 156 152 157 163 166 150 136 88 41 21 47 87 104 98 82 74 69 41 27 11 3 7 18 21 22 42 113 144 180 181 190 195 188 191 181 184 176 156 166 162 157 156 151 142 123 101 107 87 65 114 83 109 108 113 102 109 72 97 93 52 43 32 42 27 54 25 68 78 79 77 78 79 72 73 71 71 71 71 71 70 46 78 66 105 59 88 110 121 128 142 134 156 157 159 156 164 159 171 136 118 51 27 11 29 49 48 47 41 32 19 3 12 15 25 61 50 57 83 105 160 165 189 191 194 197 188 178 180 176 169 167 156 150 148 142 132 115 109 85 76 78 128 104 120 101 100 88 91 87 101 75 55 61 44 46 31 45 16 63 77 78 77 78 79 75 73 70 70 70 70 70 74 53 64 87 128 75 65 88 112 115 123 157 150 157 150 151 152 160 146 131 97 65 15 34 20 14 5 6 6 8 4 14 16 22 57 56 84 65 125 99 149 164 174 174 186 180 187 183 162 127 164 165 142 132 133 142 132 124 96 102 73 58 155 112 108 119 106 86 87 42 90 53 77 49 54 42 30 47 20 61 76 79 80 79 79 73 73 73 72 71 72 71 72 61 52 70 95 83 61 83 89 105 127 145 160 137 142 115 128 143 139 134 84 48 29 42 39 16 13 8 9 8 14 10 37 107 49 81 96 61 152 116 163 122 175 160 188 169 151 155 152 145 117 126 148 162 133 130 136 130 113 94 49 72 142 111 103 131 106 89 92 81 90 87 65 57 43 30 94 43 20 79 72 75 76 79 79 75 74 74 71 71 72 71 70 72 69 62 95 97 53 69 81 91 122 131 139 72 109 161 119 132 128 123 100 71 59 65 52 27 35 26 18 22 30 21 78 64 70 51 139 95 127 144 144 155 163 172 168 162 158 122 126 140 117 153 109 158 142 124 139 126 87 70 59 63 129 109 118 118 92 111 104 96 89 97 76 56 41 28 40 43 27 72 68 78 76 79 79 74 74 73 74 73 73 72 72 70 80 61 79 98 65 62 68 85 114 113 73 110 100 92 133 136 122 114 77 68 73 88 92 57 38 77 23 26 26 28 66 75 95 126 146 128 125 90 116 112 149 153 125 118 116 107 103 99 119 141 170 130 86 133 108 119 93 70 43 94 122 141 130 99 126 112 88 73 76 85 70 94 56 36 39 24 29 66 73 80 77 79 79 74 74 73 74 73 74 71 71 72 81 41 67 88 60 60 63 68 93 114 78 87 92 107 112 122 105 86 57 38 120 93 100 73 96 88 47 38 80 46 74 77 112 112 85 95 116 117 146 118 123 121 98 120 94 132 106 125 94 115 67 131 100 92 110 126 86 59 35 113 132 126 125 112 114 77 105 48 67 91 65 43 50 17 78 19 29 73 82 78 79 79 79 74 73 73 74 73 74 70 70 74 73 39 45 89 64 62 55 46 74 97 81 64 62 87 123 89 75 71 88 28 78 70 50 99 93 102 74 72 82 72 101 94 130 134 132 100 130 83 106 92 124 84 121 141 121 93 81 76 123 62 85 78 85 102 112 107 94 21 38 71 148 118 102 100 112 90 103 55 56 63 56 32 49 22 27 23 37 80 81 79 78 79 79 74 72 73 73 73 71 73 71 74 72 41 42 49 75 59 63 56 58 98 81 68 47 45 54 39 47 57 73 85 99 108 128 128 147 100 132 118 107 130 135 128 153 109 147 131 100 100 93 66 78 110 65 99 68 55 33 27 24 48 23 66 72 80 117 94 62 37 38 95 138 139 87 120 79 100 92 82 65 64 37 55 18 36 23 19 49 82 76 78 78 75 77 76 76 76 75 73 72 72 70 72 69 61 49 51 87 79 64 64 62 76 84 62 27 30 23 23 23 62 93 140 136 120 149 139 151 138 141 171 153 149 159 160 173 156 156 132 125 143 157 124 151 92 81 30 37 16 16 11 11 30 38 58 89 139 125 72 57 39 47 101 120 98 96 100 76 76 52 91 50 47 57 54 38 52 35 15 71 74 78 77 79 77 78 76 75 73 73 72 74 73 71 71 72 67 50 43 72 77 64 60 66 60 84 52 42 42 30 19 21 38 60 64 71 69 64 53 78 89 109 155 162 139 148 137 112 115 128 106 117 104 106 90 71 54 51 16 11 27 49 64 84 74 129 114 126 128 157 88 40 24 37 76 116 112 87 93 86 87 75 90 86 73 52 29 18 20 30 11 120 79 78 75 78 77 78 76 76 74 73 74 74 74 73 72 72 76 46 42 45 72 75 53 72 62 124 105 84 95 92 93 39 22 10 10 12 17 27 31 27 23 16 32 71 64 21 14 16 18 14 20 9 21 13 13 12 18 38 67 111 110 121 141 149 125 126 128 152 148 140 77 31 24 36 131 129 105 84 84 66 97 89 79 99 80 20 39 14 19 21 29 153 90 76 72 78 77 77 75 75 76 75 73 72 73 73 71 71 70 75 26 56 44 82 73 95 53 79 111 132 114 124 68 137 84 61 52 103 107 169 105 100 92 88 61 27 20 40 27 45 82 94 102 158 146 118 141 133 123 145 141 129 142 130 130 151 151 156 126 150 151 129 76 24 36 63 128 114 133 136 67 83 83 93 60 90 65 27 30 8 19 25 25 158 115 67 86 77 82 81 76 76 74 75 75 74 73 72 72 70 72 75 54 22 61 53 70 56 101 65 77 122 114 86 112 118 129 64 87 108 114 144 160 160 172 185 175 168 150 157 146 165 179 191 163 165 179 170 186 173 126 128 129 140 147 133 154 143 156 119 151 136 152 131 48 30 33 85 103 165 144 121 75 65 96 99 48 77 32 30 36 17 21 28 32 178 124 0 54 81 77 80 76 76 74 74 74 73 74 74 72 71 71 72 57 44 40 37 58 82 63 53 109 127 77 125 139 144 108 124 76 113 148 160 171 158 171 172 177 176 182 177 178 184 198 193 197 187 167 153 148 147 131 124 112 134 147 124 130 136 141 138 129 157 132 86 36 22 54 124 147 120 89 80 65 93 42 63 55 27 27 20 15 21 26 33 62 180 129 36 3 54 77 76 75 75 75 74 74 73 74 73 74 72 73 74 71 75 37 23 65 51 64 46 76 94 94 109 127 107 95 87 127 119 112 128 137 151 171 155 187 149 177 175 178 166 160 139 151 156 150 136 128 133 138 113 117 141 136 149 138 150 140 141 158 142 107 66 37 32 86 103 138 149 81 118 45 69 57 29 66 17 25 13 12 24 35 22 140 166 106 104 5 4 54 83 76 74 73 75 73 75 73 74 73 68 73 74 76 77 31 35 40 65 43 30 47 64 55 103 137 114 102 73 92 127 144 131 131 106 133 130 113 127 110 108 113 107 87 110 133 130 89 85 70 118 112 110 90 136 95 139 134 126 117 149 127 128 81 40 26 57 84 93 147 135 94 43 76 89 85 34 50 35 29 18 17 28 30 39 198 140 116 130 0 9 4 72 76 75 76 74 75 76 73 73 71 72 72 73 72 74 62 16 27 42 40 71 33 43 63 98 123 87 104 95 64 85 99 100 105 89 108 115 85 71 67 68 39 105 82 65 69 92 34 92 67 65 71 95 111 128 114 133 132 140 135 115 145 125 117 27 25 48 81 160 94 106 64 70 65 66 48 67 20 21 19 7 26 27 17 142 197 118 109 144 67 11 8 15 76 76 76 76 76 75 75 76 75 73 74 75 73 76 75 81 22 28 34 37 49 45 64 44 131 136 109 100 80 84 81 96 58 39 58 39 53 29 47 40 88 124 76 65 76 56 102 111 96 80 124 116 121 135 134 135 150 124 108 128 124 121 67 37 37 79 70 149 80 94 50 44 65 18 12 22 20 13 14 26 27 40 48 200 172 111 116 156 97 6 13 8 76 76 76 76 77 75 75 75 74 72 74 75 74 72 75 75 51 33 50 10 49 48 46 62 124 120 120 118 99 99 72 55 84 66 36 52 58 71 82 88 91 31 64 79 87 65 97 118 130 128 127 132 148 152 154 141 153 135 97 90 136 81 76 28 57 87 108 90 60 73 82 32 43 89 22 13 13 15 26 33 41 37 160 202 148 126 102 161 151 1 8 12 75 76 76 76 76 74 75 74 75 73 74 75 74 75 75 73 77 52 20 17 49 54 69 74 135 133 157 107 101 80 107 86 54 70 114 64 68 69 96 146 88 87 87 41 115 102 85 102 124 151 133 138 156 165 158 129 136 138 151 124 73 110 56 28 45 77 107 83 63 50 78 2 44 34 15 19 15 23 31 35 51 106 211 192 138 130 102 161 161 0 7 8 76 75 76 76 75 75 75 75 75 73 73 75 74 74 72 75 72 65 25 23 29 64 30 65 102 114 82 94 117 123 147 98 114 109 102 69 80 98 91 120 106 109 71 78 89 99 127 151 104 158 153 151 161 155 137 148 136 146 112 148 156 78 33 23 47 64 91 76 38 39 25 60 15 7 18 17 22 34 45 64 48 205 202 179 134 136 97 167 173 35 12 9 77 76 75 76 75 76 74 74 75 74 74 75 73 76 73 73 75 75 70 31 25 54 42 44 91 73 102 119 137 149 148 131 154 117 135 134 125 103 103 86 143 119 137 111 181 130 162 155 181 161 168 172 167 142 141 133 136 141 126 117 118 107 48 23 32 48 103 76 36 29 79 26 10 14 18 20 26 40 55 43 172 205 194 166 144 141 89 165 178 45 15 11 76 76 76 76 76 76 75 75 75 73 75 73 75 72 74 73 74 72 79 50 32 30 34 35 71 60 106 85 152 114 141 151 161 162 125 166 144 168 172 135 165 172 142 175 162 175 170 157 164 177 185 163 166 148 137 144 85 102 149 134 97 106 60 23 33 39 47 44 39 22 22 17 13 22 24 37 47 53 49 116 211 207 189 162 157 143 93 168 177 41 14 12 76 77 76 76 76 75 74 75 75 74 75 74 73 74 73 75 71 75 70 133 111 20 29 43 51 72 83 91 131 134 148 138 146 163 169 139 141 166 170 156 186 162 186 183 177 187 167 166 194 171 121 169 147 148 125 129 120 12 113 117 85 83 60 30 32 30 22 29 15 13 19 20 29 29 31 53 50 65 70 216 208 200 180 166 164 138 99 177 175 55 15 11 75 74 76 76 75 75 75 75 74 73 75 75 75 74 73 71 70 66 100 206 88 58 20 29 39 55 54 76 114 73 88 125 145 181 160 153 148 178 191 184 170 170 192 191 179 178 187 157 152 151 178 162 142 132 157 132 103 119 65 57 79 55 16 25 15 29 34 24 9 18 16 24 31 39 56 63 60 51 203 212 205 198 184 176 167 135 106 179 176 48 18 12 77 76 75 76 74 75 75 75 75 75 73 73 73 74 72 72 70 75 214 164 173 62 37 19 25 36 36 69 91 102 127 101 113 120 128 153 150 165 181 148 185 183 202 182 180 168 168 176 156 149 161 170 139 129 96 109 92 94 94 34 36 30 16 26 27 25 17 14 13 17 23 26 43 51 53 68 48 180 222 215 208 203 182 182 169 136 112 173 176 32 14 16 77 75 76 77 75 74 73 74 73 74 77 76 72 73 72 66 68 168 203 165 150 43 48 20 15 55 32 51 86 46 86 97 133 126 146 127 166 146 157 187 152 171 174 175 162 188 189 174 163 135 113 143 128 136 162 121 42 100 73 27 29 32 37 28 23 11 14 16 19 22 25 34 52 55 69 61 124 222 222 214 210 197 182 181 168 134 120 171 168 0 17 15 78 78 76 77 76 75 75 76 75 75 76 78 74 74 71 67 97 232 183 204 52 69 33 54 50 35 40 46 90 79 112 136 136 120 142 170 147 171 165 183 161 110 171 180 165 177 166 156 126 127 137 110 144 91 48 83 59 73 49 26 10 35 38 14 22 15 19 18 25 32 33 48 56 75 82 88 227 228 219 215 209 198 183 182 168 135 118 178 151 0 15 15 76 77 78 77 75 75 76 74 77 77 76 76 74 74 73 59 211 205 217 141 73 66 38 88 73 22 28 50 60 80 97 148 110 100 126 117 152 152 165 173 162 153 150 151 163 178 158 137 127 134 106 145 90 67 70 41 41 38 30 19 19 11 18 16 14 22 22 27 39 44 53 56 71 78 45 221 233 224 221 216 208 192 183 179 172 125 123 184 125 1 14 16 77 78 77 77 77 77 74 79 78 74 77 77 73 80 69 127 232 204 191 107 110 42 61 100 134 59 29 40 66 93 149 123 95 71 131 151 139 159 166 164 163 159 128 159 128 147 151 140 102 105 82 87 88 45 58 38 41 56 33 21 8 18 16 15 16 21 32 33 50 48 70 74 86 74 182 227 224 227 221 213 205 185 177 177 170 119 118 190 101 6 15 12 78 77 77 77 77 77 77 76 78 80 73 78 75 69 50 213 223 212 174 136 93 63 80 116 146 136 100 36 68 84 53 138 40 136 97 95 108 96 131 121 118 155 75 128 165 119 150 109 116 77 72 66 52 19 80 88 39 16 21 12 18 17 18 19 20 28 42 46 53 62 75 87 81 132 243 227 230 225 217 211 199 180 175 178 169 119 115 200 63 17 16 16 78 77 76 78 76 77 81 83 83 83 78 62 32 7 111 237 224 203 179 179 57 76 93 123 159 171 54 111 50 46 86 81 68 68 62 89 66 114 124 139 102 93 113 148 79 145 94 113 92 92 71 40 27 59 87 41 58 13 21 15 18 18 22 24 28 38 53 66 62 79 92 101 85 233 229 233 228 223 217 206 190 177 175 177 166 115 128 209 24 18 19 18 81 76 81 78 82 86 79 72 57 37 15 8 9 0 241 219 213 213 193 167 51 94 107 131 158 171 99 90 86 66 58 69 73 67 41 76 118 106 106 121 81 98 138 111 85 78 80 51 62 58 11 24 22 122 28 19 17 25 19 16 19 19 24 31 39 50 67 69 69 88 95 66 222 238 236 226 228 222 212 198 181 169 171 175 164 104 140 208 0 20 17 18 81 83 83 92 75 60 33 11 7 8 13 14 1 124 230 229 205 206 208 164 55 106 116 135 158 173 148 87 86 71 38 61 52 41 26 60 28 75 61 74 85 87 61 63 85 49 57 68 63 45 13 9 30 20 19 16 18 18 21 23 25 31 27 36 48 61 67 76 88 71 79 189 223 237 233 233 220 220 203 184 169 158 174 180 160 100 151 199 9 20 18 16 85 74 62 31 19 3 5 9 10 11 12 14 38 221 224 231 219 211 205 169 54 115 126 142 176 168 150 74 106 81 88 85 98 58 32 60 17 44 38 27 34 94 41 46 44 36 59 41 38 92 37 42 34 12 19 17 25 22 25 26 27 30 31 43 59 65 74 80 88 94 128 233 232 235 230 226 222 212 191 173 158 151 179 179 148 95 158 162 15 20 20 19 28 12 3 11 9 11 9 10 11 12 12 1 163 233 240 218 216 209 207 173 65 116 131 148 167 168 148 97 92 99 93 92 69 64 28 36 49 12 15 29 18 26 29 24 24 20 20 37 0 9 47 16 14 18 18 25 18 24 30 33 35 37 47 56 55 71 86 88 105 88 224 235 234 233 231 226 215 196 174 155 147 158 183 181 142 76 169 130 19 20 20 19 10 10 12 11 11 12 12 12 11 12 14 43 233 235 231 231 213 204 208 182 70 111 140 156 176 169 137 54 89 104 101 101 86 74 83 58 41 40 64 46 26 26 30 16 11 12 14 18 18 21 4 20 18 21 21 26 30 33 30 36 41 36 42 63 81 89 90 105 102 169 231 230 235 231 230 225 205 179 155 138 147 168 188 178 120 73 188 83 23 18 19 19
