P2
# Generated by OpenCV 4.2.0
92 112
255
75 71 39 27 41 45 36 45 46 44 47 57 49 94 118 84 78 82 77 100 85 62 85 92 70 72 77 68 94 89 81 95 107 106 135 110 141 163 165 157 162 169 163 159 156 159 166 169 167 162 126 106 105 126 116 129 102 112 107 80 76 89 96 84 88 90 90 97 100 107 117 114 95 103 110 123 133 134 134 138 139 136 138 127 108 102 108 125 133 92 67 63 56 39 30 34 45 40 38 37 39 48 54 42 67 111 97 76 85 84 90 78 69 76 86 65 67 71 65 83 88 85 104 122 116 128 133 131 161 163 166 166 171 174 174 173 165 167 176 171 152 138 135 135 157 166 127 123 124 133 132 117 102 101 104 114 111 109 129 132 135 133 126 124 140 144 134 140 148 150 144 140 139 137 143 135 100 103 93 104 128 115 70 55 26 32 33 44 54 42 42 46 49 47 43 55 109 98 65 68 84 82 70 66 82 83 61 63 64 65 77 83 96 119 142 140 135 144 133 162 174 172 174 180 173 171 180 189 184 171 160 160 150 152 174 183 178 180 152 149 163 162 161 166 152 153 135 137 145 145 158 156 155 150 153 165 174 174 165 155 154 164 157 148 150 148 149 147 103 90 95 92 93 95 91 69 45 40 38 70 72 49 49 48 41 48 47 92 108 66 63 80 73 64 59 77 85 63 57 67 65 74 88 105 125 144 140 139 151 136 149 172 171 171 175 179 179 180 182 183 182 175 157 158 173 187 192 190 177 182 166 175 180 183 181 175 174 170 167 163 172 171 171 167 160 167 178 178 179 178 174 174 159 161 166 161 157 155 151 149 112 78 79 80 88 64 67 73 34 48 61 60 55 46 41 42 62 66 69 110 69 54 71 76 66 58 75 76 54 61 63 67 72 100 126 134 143 141 141 153 143 143 162 168 169 177 181 184 185 186 185 186 189 182 175 180 186 196 200 196 191 185 171 188 189 188 187 181 184 177 183 179 182 180 175 171 173 175 174 176 179 180 180 182 177 170 167 162 155 155 155 157 131 83 74 64 72 68 50 49 48 54 52 37 29 31 39 52 69 48 92 82 53 65 81 65 58 71 75 53 61 66 67 82 116 139 143 149 147 148 164 154 150 153 169 173 174 179 181 183 185 185 191 189 190 193 197 196 196 193 196 197 195 187 182 191 190 189 190 189 188 184 187 187 183 185 183 178 178 174 176 178 177 180 182 183 180 178 176 170 164 160 157 159 148 103 82 81 73 71 64 50 34 34 22 24 32 47 53 45 40 69 94 50 60 74 71 54 62 68 50 60 65 65 89 122 141 146 156 163 159 170 165 148 158 154 172 173 175 175 184 187 183 187 191 196 201 201 202 199 198 197 197 197 194 192 192 194 192 189 187 188 190 193 190 190 189 188 188 183 179 178 180 182 182 184 186 185 183 180 181 177 171 168 159 161 155 115 88 79 75 70 69 64 47 42 31 40 45 42 36 42 43 91 71 50 65 77 55 61 58 51 62 65 74 106 143 151 147 155 166 171 171 171 148 157 155 163 173 175 174 179 189 189 189 191 193 199 203 203 205 203 200 199 200 200 198 196 195 200 199 197 195 195 192 195 193 189 188 188 189 188 183 185 184 187 187 187 186 186 185 184 183 179 175 171 163 159 160 124 92 90 80 62 63 62 45 43 42 44 47 39 45 37 64 90 55 62 70 70 57 69 57 61 60 78 118 141 150 146 159 167 171 169 171 163 146 170 156 174 173 176 177 183 190 193 192 189 195 204 209 210 206 209 206 204 201 203 204 198 200 200 202 199 199 196 194 191 197 196 189 189 189 187 184 189 189 190 189 189 189 190 188 188 186 180 180 176 169 162 163 129 86 93 84 66 55 54 38 36 45 52 41 37 37 37 86 70 52 65 69 56 65 57 64 66 82 124 145 146 146 156 159 163 169 168 174 153 163 166 157 176 176 175 179 185 192 195 194 194 202 207 208 209 208 212 211 209 206 204 197 196 200 198 199 197 195 194 193 194 196 200 195 192 186 186 190 187 188 192 191 191 193 190 191 191 188 185 182 179 174 164 162 141 89 83 94 73 70 47 33 31 39 31 21 30 29 54 78 54 56 71 58 61 67 68 82 98 122 129 130 136 148 160 164 167 166 169 170 143 175 156 166 177 178 175 182 186 192 195 195 194 198 200 206 209 208 205 200 206 204 203 202 199 201 202 201 201 198 197 193 195 196 197 195 194 191 193 191 189 192 193 191 192 193 191 191 191 190 188 187 179 175 166 162 147 94 88 89 93 80 57 32 30 28 26 38 35 36 65 64 46 60 64 51 72 84 101 106 117 118 124 143 152 146 158 165 166 170 171 158 147 178 157 177 175 173 178 182 186 190 199 199 199 195 201 211 213 210 210 207 205 206 205 203 205 203 202 206 206 203 200 195 198 200 197 196 198 198 195 193 191 193 197 195 191 192 194 193 193 190 188 188 178 176 170 163 151 88 73 85 97 96 64 24 33 38 45 39 31 44 64 48 47 63 51 68 83 93 104 97 115 131 144 149 152 153 158 162 162 167 172 148 160 173 161 181 173 176 178 182 187 191 198 204 203 199 201 207 212 210 212 212 209 206 209 208 207 203 201 207 206 204 200 198 199 200 200 199 199 198 194 193 193 192 196 195 191 192 198 196 192 188 192 187 180 176 169 160 156 101 68 68 90 95 79 36 41 45 36 27 29 48 57 49 57 54 57 76 87 91 94 109 139 157 157 154 156 163 164 164 158 162 165 144 172 159 170 186 182 181 176 180 185 192 195 204 203 199 198 205 211 213 215 216 214 215 215 213 209 204 203 204 205 203 202 199 197 200 202 202 199 198 191 192 195 194 193 193 189 190 195 195 190 188 186 185 182 176 170 162 156 113 84 77 71 92 84 37 43 37 25 30 45 57 54 60 67 62 75 86 78 84 108 139 151 145 149 152 155 167 165 167 166 165 166 144 172 147 178 186 185 183 176 182 182 188 195 200 202 195 194 199 207 211 210 211 209 210 207 208 207 207 204 203 202 202 201 199 197 199 201 202 204 196 192 193 195 195 193 193 191 192 194 195 190 186 185 184 181 176 170 164 158 111 75 83 77 83 93 54 35 25 35 38 52 63 70 81 66 72 78 74 89 104 117 121 126 137 144 151 164 163 161 162 164 167 165 148 165 146 184 184 185 187 181 184 182 185 192 196 198 197 198 198 201 204 207 206 209 208 209 208 207 206 202 204 205 205 203 202 199 198 201 202 201 196 195 192 194 194 193 192 191 192 192 193 190 186 182 184 184 177 171 166 164 122 73 80 87 80 86 32 28 36 36 42 64 90 90 76 74 77 81 87 90 99 110 119 124 124 144 155 156 154 160 161 165 172 162 150 154 150 183 184 189 189 188 186 187 186 193 202 204 200 201 201 200 207 211 208 210 212 208 211 208 205 201 204 203 202 205 201 200 196 202 204 201 201 199 195 195 197 194 193 192 192 191 192 189 185 181 179 182 178 173 170 166 133 67 65 80 79 88 27 31 40 45 60 84 88 88 83 73 85 79 91 88 105 106 114 136 142 152 149 145 150 163 158 160 167 165 155 143 157 182 187 187 189 190 193 193 191 194 199 202 201 200 199 200 200 204 209 206 208 209 208 209 208 202 204 202 200 203 202 202 201 200 201 201 199 199 198 192 190 192 191 189 191 194 193 189 186 185 183 184 181 174 170 164 143 96 84 81 79 79 32 39 51 63 70 86 90 85 69 76 82 84 82 83 95 108 119 127 128 126 131 134 140 150 158 163 169 166 154 137 169 181 186 188 190 190 194 195 192 197 197 202 205 203 202 203 205 206 209 210 212 214 210 207 205 204 203 200 199 203 201 200 203 204 202 204 202 201 201 195 191 196 196 194 195 197 194 188 185 189 187 189 184 175 172 162 141 85 74 78 81 74 53 52 51 74 81 88 77 59 65 79 83 81 81 90 103 110 109 109 100 106 118 126 138 147 153 160 170 166 145 136 176 180 185 190 191 188 191 191 191 192 189 192 199 200 197 195 200 202 205 209 210 210 212 207 201 201 198 197 194 202 198 199 203 207 206 207 205 203 203 202 200 201 199 195 193 195 192 188 188 189 187 189 184 177 172 160 146 85 60 61 66 80 45 52 59 89 89 88 71 75 65 74 76 76 84 103 99 91 87 87 97 112 125 131 142 156 159 164 172 166 145 141 175 180 184 191 190 187 188 189 192 192 194 194 200 204 201 198 200 199 201 202 200 200 202 200 201 201 199 198 197 196 200 204 202 207 206 208 207 205 205 200 199 201 200 193 193 193 194 192 192 190 190 192 189 181 170 157 151 84 58 70 65 78 51 46 67 79 83 70 72 74 68 72 70 72 87 87 78 84 92 103 117 127 130 138 147 154 161 161 169 170 142 150 174 178 180 187 188 190 193 192 190 195 201 202 206 205 202 201 203 205 206 208 208 207 204 204 205 204 202 201 199 200 201 203 205 207 207 207 208 206 206 200 198 201 201 196 190 196 198 195 194 194 194 194 193 185 170 155 157 85 51 65 61 69 40 41 76 75 75 58 68 66 64 64 69 80 83 88 89 102 110 114 124 133 141 149 155 162 165 163 167 172 140 154 179 178 180 186 187 189 191 192 189 193 195 197 202 204 203 203 203 206 207 208 209 207 204 205 204 204 201 204 201 201 202 202 205 207 209 208 205 207 205 202 202 202 202 199 194 197 198 197 199 199 195 197 193 186 174 160 162 95 38 52 55 65 27 53 84 77 59 62 59 65 66 67 76 90 105 123 137 142 144 147 152 147 152 160 161 162 165 165 168 171 141 155 180 180 177 184 184 183 189 192 193 192 192 193 197 201 202 201 204 208 209 207 208 208 206 206 206 202 200 200 204 202 203 202 204 204 208 212 210 204 205 206 205 203 202 199 195 195 196 198 200 200 198 199 195 186 177 166 166 117 50 44 51 72 36 70 81 55 60 64 56 58 71 91 111 127 138 137 127 126 126 130 141 150 157 155 155 159 168 169 170 170 143 153 178 178 176 181 184 185 189 192 190 188 190 192 195 200 204 203 203 210 208 209 208 208 210 209 210 206 205 205 204 205 207 204 202 205 205 206 205 210 209 206 207 204 199 195 190 194 201 200 199 199 199 198 198 194 185 175 173 134 68 62 75 95 58 87 64 50 66 50 56 82 90 104 121 133 127 127 131 139 140 147 159 164 164 159 153 159 171 172 172 170 149 151 176 175 174 181 186 189 188 189 188 189 191 195 197 202 207 206 204 206 205 207 205 206 207 206 208 207 209 212 207 205 207 206 200 203 207 202 202 211 211 207 206 200 197 194 195 198 199 199 198 197 199 198 197 196 190 182 176 158 87 87 90 97 82 74 45 59 56 67 85 77 89 115 126 113 122 141 139 143 149 157 164 167 168 160 158 164 167 169 173 174 156 156 173 171 175 182 187 187 183 186 191 194 195 197 199 203 205 207 207 207 207 208 210 212 207 208 206 206 206 207 208 206 207 206 201 201 201 202 201 207 213 207 202 198 200 197 192 196 199 200 197 197 198 198 196 195 190 182 170 172 126 87 86 89 62 49 49 57 60 68 58 95 117 117 110 125 133 130 137 145 153 160 168 166 164 168 165 168 167 165 170 175 157 156 169 171 179 187 182 181 184 187 189 192 195 196 203 207 210 211 209 207 209 214 216 218 213 213 210 207 205 204 204 204 208 208 202 200 197 199 199 202 210 208 200 198 197 194 193 191 193 197 194 192 194 192 194 189 184 177 166 165 154 97 77 78 44 42 50 58 58 51 90 108 106 108 113 125 125 136 150 158 164 162 166 166 164 168 169 167 165 163 170 169 156 155 166 171 184 185 182 185 188 187 181 182 186 189 201 200 200 203 208 207 210 211 215 217 216 213 207 205 203 205 205 202 203 202 198 200 200 198 199 200 204 206 194 192 190 190 189 187 189 183 166 174 173 167 171 170 162 158 154 152 149 117 76 66 44 54 58 56 54 82 83 97 109 97 107 119 132 146 160 159 163 165 168 169 166 166 168 168 166 165 167 166 160 153 166 175 175 176 184 183 180 176 175 171 167 174 177 168 171 181 178 169 172 174 174 185 190 197 201 195 198 196 201 199 199 199 194 196 200 204 197 195 198 201 194 186 185 188 184 173 164 140 135 145 138 133 140 140 142 135 126 128 133 120 77 52 59 61 50 59 91 82 89 100 89 107 100 122 132 135 146 155 160 167 167 169 169 167 169 172 167 168 165 162 160 159 174 180 178 172 172 168 170 170 169 160 154 154 164 170 161 158 136 127 126 122 126 129 137 161 179 175 184 183 189 189 193 197 193 196 197 199 193 189 192 196 191 183 179 181 166 143 128 105 114 121 118 114 120 120 122 117 113 109 117 116 78 43 60 53 62 88 78 75 84 78 89 85 105 126 126 139 150 157 162 168 169 168 170 170 169 170 171 167 158 161 157 158 169 173 173 171 167 166 159 156 159 156 152 146 158 154 141 132 120 116 117 111 115 124 124 139 150 149 162 172 177 177 185 191 191 196 196 196 192 186 186 187 182 177 167 158 140 129 116 111 104 111 109 102 97 101 106 109 106 106 111 111 70 31 65 78 79 70 73 69 64 85 77 97 112 118 126 139 151 161 168 170 168 168 171 172 170 168 170 167 154 155 157 162 155 157 158 158 162 160 160 164 158 161 162 154 148 141 140 136 136 125 122 130 139 140 139 145 148 147 156 166 166 166 175 185 189 195 198 197 190 185 180 182 180 173 161 146 126 117 111 110 117 134 139 130 131 129 124 121 112 108 115 120 64 26 83 74 69 73 64 54 74 69 91 101 110 118 130 152 163 166 167 172 170 166 171 172 171 168 166 166 161 155 158 158 156 154 156 160 157 157 162 173 179 178 178 177 170 164 169 167 165 164 161 152 149 151 152 152 153 158 156 159 165 172 178 179 186 195 198 196 191 183 175 177 173 164 147 130 115 118 132 147 158 160 158 163 161 156 149 144 124 118 135 129 81 21 75 76 73 69 56 68 77 77 90 86 102 124 155 165 168 166 165 171 169 165 170 174 174 168 164 165 165 160 159 156 158 161 159 159 162 157 168 177 180 186 186 183 188 188 182 182 183 178 176 167 159 154 150 148 150 156 159 160 165 172 177 179 184 193 195 195 185 176 168 167 159 141 121 113 123 129 113 94 92 102 109 118 130 143 155 152 139 140 156 117 94 44 78 74 68 59 67 73 66 81 75 94 119 149 170 169 159 167 171 169 168 170 170 172 174 171 165 165 165 163 162 157 155 157 157 161 165 171 176 181 184 190 196 196 194 186 178 171 162 155 149 149 155 156 154 148 143 144 150 157 160 167 174 177 184 192 198 194 181 170 161 150 135 116 112 126 122 93 85 84 57 102 132 107 76 79 96 124 146 155 153 146 114 70 64 67 71 75 62 60 73 73 80 111 144 164 163 170 169 171 170 169 166 169 169 169 171 171 170 171 169 169 170 165 159 164 165 170 172 176 181 189 189 173 144 129 110 95 95 109 117 136 139 127 119 137 153 154 148 143 142 145 150 157 164 173 188 196 201 193 187 174 159 135 114 120 127 110 91 85 106 106 63 101 186 178 141 96 85 103 145 161 159 144 133 55 73 73 69 67 65 69 63 75 103 145 171 163 156 160 171 172 178 175 166 170 172 169 173 173 175 173 176 176 175 171 166 166 168 172 173 177 170 146 108 69 63 74 84 81 94 141 136 118 139 150 136 126 140 152 153 150 151 154 150 148 158 174 185 196 205 202 196 181 159 126 114 131 150 108 87 85 72 82 57 120 192 180 148 135 123 97 126 151 160 156 148 74 70 68 69 67 63 66 73 103 143 158 157 160 151 172 171 172 179 175 168 174 173 166 171 172 171 178 177 175 180 176 171 170 167 169 166 153 112 76 66 60 73 79 111 96 113 199 210 167 131 143 154 145 139 146 152 150 155 164 165 157 152 167 185 196 208 205 199 188 168 125 136 137 162 154 127 142 119 103 102 162 177 165 164 159 135 116 123 151 163 154 153 86 73 76 77 71 71 79 104 132 149 155 148 152 169 171 169 173 177 175 171 175 175 170 172 175 169 180 188 182 174 174 176 170 164 165 150 131 102 120 107 67 79 73 90 83 126 206 199 187 170 143 146 156 156 151 153 165 161 163 169 170 160 165 183 199 214 211 200 197 181 138 152 118 144 174 191 187 176 173 171 158 155 157 166 159 140 145 154 161 166 165 135 84 78 73 82 87 80 107 124 132 144 141 158 171 169 169 178 177 173 174 174 176 176 168 174 178 180 180 182 185 183 173 167 165 158 153 142 132 148 162 168 152 135 135 118 110 166 196 191 176 167 158 147 137 144 179 181 185 177 169 176 174 164 166 179 194 211 211 208 199 186 163 162 141 164 185 192 176 176 172 169 173 171 168 168 153 142 163 164 161 166 174 129 81 113 100 90 114 89 117 134 141 146 166 179 170 169 169 169 170 167 170 175 176 175 172 177 178 180 187 187 184 184 186 175 162 154 154 146 149 172 175 178 182 188 190 181 168 175 171 170 166 170 166 161 163 149 180 197 197 195 182 182 176 166 165 177 190 202 209 208 202 191 174 178 176 176 174 165 165 176 184 181 179 175 165 148 132 159 169 166 168 168 173 146 83 128 103 84 111 106 134 129 136 166 175 156 169 163 154 167 176 170 171 172 175 173 176 182 182 182 188 192 192 191 186 180 174 171 171 173 176 175 177 181 188 192 188 191 186 184 170 170 170 165 161 168 180 189 194 200 207 202 183 182 180 170 163 172 188 200 207 208 207 200 185 172 179 177 170 159 152 154 156 155 153 151 143 137 149 167 175 171 172 172 178 135 85 100 102 91 97 118 136 133 154 176 164 158 157 160 159 171 176 174 171 169 175 178 181 181 186 190 191 191 190 195 193 188 188 188 185 181 177 177 177 175 179 183 188 191 192 192 181 175 167 159 158 167 179 183 188 200 201 194 183 182 181 172 163 171 189 200 207 208 206 202 195 178 174 181 177 168 159 150 149 149 146 148 151 158 173 176 175 176 174 176 180 138 76 115 116 105 103 118 122 148 172 159 156 165 162 150 156 171 172 169 172 174 174 178 182 182 185 192 194 191 190 189 193 196 194 190 188 185 185 180 166 170 169 167 168 167 168 167 164 159 151 155 165 175 179 182 188 198 195 193 189 184 177 170 162 177 197 206 206 207 206 203 199 190 177 189 184 178 176 176 178 174 170 170 174 179 182 182 181 178 178 179 176 163 92 111 114 102 110 118 110 137 162 137 149 159 158 154 161 166 167 167 170 175 177 179 181 187 187 192 195 195 191 190 190 194 194 192 196 195 187 178 175 178 167 163 163 161 156 160 162 164 171 180 189 189 189 195 202 197 200 196 192 188 177 166 166 189 202 206 207 208 205 202 202 196 184 185 194 189 186 186 185 184 180 184 189 190 191 189 184 181 179 181 181 181 104 133 125 116 119 121 141 130 149 159 154 148 155 157 159 160 168 171 168 170 173 178 183 187 188 191 193 191 190 190 191 192 195 200 196 192 196 199 194 188 182 181 184 185 182 188 193 194 195 196 197 199 204 207 206 205 202 196 191 185 178 168 173 190 199 205 210 210 207 202 201 194 184 179 198 196 193 194 192 193 189 193 195 193 193 193 188 184 183 183 179 183 103 147 122 123 134 135 138 142 155 154 151 149 153 154 157 164 165 168 168 170 173 181 185 183 186 192 193 192 189 188 189 193 196 195 198 205 203 198 194 194 195 194 199 201 202 204 203 201 202 206 205 210 209 207 206 206 200 194 186 182 176 175 180 188 194 201 207 208 208 203 201 194 181 179 198 196 199 197 195 195 194 193 195 193 196 195 192 188 184 181 181 183 122 146 132 143 167 155 125 140 162 161 152 155 145 146 154 160 161 168 168 169 174 179 181 184 188 190 191 192 190 191 192 190 192 200 203 201 198 202 203 201 201 203 202 207 210 205 205 206 207 210 210 213 213 214 210 202 194 188 185 181 177 183 187 186 187 191 197 206 207 207 201 197 178 180 189 191 201 199 197 197 195 196 196 195 197 196 194 191 189 187 182 185 132 148 144 160 186 163 152 150 158 153 159 149 144 146 145 154 162 168 165 168 170 176 182 184 186 189 189 191 192 193 194 194 194 199 198 196 202 206 204 204 205 207 208 208 208 208 208 206 211 214 218 215 217 217 205 196 191 183 182 181 182 186 185 184 186 188 195 204 205 206 200 196 179 174 188 195 204 195 194 200 198 197 195 196 200 196 194 189 189 186 187 183 143 169 160 172 191 177 165 148 145 157 157 151 154 158 156 158 161 165 164 167 170 173 181 182 186 190 192 190 192 193 196 200 200 197 195 203 205 204 203 206 208 207 210 209 208 206 211 213 211 211 217 219 217 204 197 193 186 182 183 186 184 185 184 182 187 187 190 196 203 208 201 194 181 172 188 197 204 190 188 203 200 202 199 197 199 198 197 193 190 182 185 184 152 192 172 170 191 190 164 131 153 155 162 154 149 149 155 153 160 166 168 167 171 173 178 180 187 190 189 191 193 192 198 199 201 201 202 206 205 205 203 206 203 205 205 206 209 208 211 214 213 212 216 217 213 200 194 188 183 182 186 189 186 181 185 185 183 184 188 191 195 201 199 194 183 169 186 195 201 198 197 202 200 203 200 197 199 198 195 192 189 187 182 182 156 193 173 159 190 192 141 140 151 164 166 144 146 152 151 156 157 161 160 168 171 173 179 183 186 188 188 193 194 195 198 197 204 207 207 204 206 205 207 208 204 204 207 208 211 210 213 213 211 214 213 213 208 199 193 189 187 188 189 188 184 181 184 183 179 181 191 194 195 196 200 193 181 168 177 195 201 202 202 201 202 201 200 199 200 197 190 186 190 186 182 180 155 191 181 152 178 189 139 156 147 160 160 134 149 150 154 149 148 153 162 164 166 171 175 180 184 188 190 193 192 197 199 198 205 208 206 202 203 205 207 205 206 208 209 209 210 211 213 211 210 212 212 206 203 200 196 196 192 189 188 185 184 183 182 182 184 188 186 189 196 201 205 198 185 172 166 186 197 201 203 205 204 203 203 200 200 197 193 189 190 185 180 177 147 175 185 168 171 193 150 145 150 139 165 161 156 141 155 147 148 150 160 159 162 167 170 177 181 182 191 194 194 198 201 202 205 206 204 205 205 203 203 203 206 209 209 212 211 213 214 213 211 208 209 204 203 204 204 196 187 180 182 178 175 181 183 184 187 189 189 191 198 205 208 199 188 175 165 172 187 196 200 205 206 203 203 202 199 199 195 192 191 185 176 175 150 163 154 173 170 190 163 142 157 146 145 149 152 143 146 151 139 150 160 151 160 168 170 178 182 182 188 196 196 193 204 203 205 203 204 204 204 203 206 207 208 211 214 212 212 214 215 213 212 211 213 215 216 213 206 186 174 173 176 175 178 183 186 188 189 187 192 190 196 206 208 205 191 179 171 166 181 195 197 199 206 203 202 206 199 198 197 193 192 185 172 169 139 180 149 151 173 181 167 138 148 147 143 141 141 132 144 139 130 150 156 150 155 163 169 179 184 186 193 197 190 192 203 204 204 202 203 204 203 207 209 209 211 214 214 215 216 215 213 214 214 214 215 215 210 206 203 184 173 173 170 175 177 176 188 192 192 187 187 187 193 206 210 206 191 179 170 167 172 192 196 198 201 203 202 201 200 196 195 193 192 185 170 159 139 198 185 159 165 180 169 159 140 134 133 151 130 140 133 123 138 142 148 146 150 159 169 179 180 183 193 194 191 193 196 200 204 204 207 205 204 208 210 212 215 217 220 218 217 215 215 214 213 211 212 207 203 205 194 181 176 174 173 177 178 172 181 192 192 188 190 190 197 197 206 206 195 174 164 161 166 184 195 198 199 200 202 203 202 196 193 192 191 184 169 157 137 197 188 184 186 189 175 169 142 127 135 144 136 126 114 124 149 145 143 149 150 159 169 176 178 179 189 190 194 195 191 197 203 205 205 206 208 209 212 216 219 222 220 218 215 215 215 211 210 206 204 202 206 203 183 177 178 177 178 180 181 181 182 188 189 191 189 188 193 190 198 202 200 180 162 165 171 178 195 198 198 199 203 203 200 195 193 189 187 183 167 150 119 199 196 196 195 192 178 164 155 138 133 123 136 111 119 128 147 138 151 151 148 153 164 167 174 176 184 186 189 194 194 199 198 199 206 205 208 211 216 219 223 222 218 219 214 213 211 207 203 199 199 198 206 199 178 173 177 178 182 181 183 183 187 191 186 186 183 185 186 189 191 197 202 190 165 167 177 174 187 196 195 194 198 200 198 195 194 190 182 177 170 153 109 201 201 199 199 194 178 161 159 144 117 131 148 137 133 120 137 133 160 155 146 154 159 162 169 176 181 179 183 188 191 198 197 196 203 203 206 212 215 218 221 221 219 217 211 208 207 202 199 197 197 201 205 189 169 168 172 175 180 178 180 187 193 194 189 187 186 180 181 189 194 205 204 195 172 164 175 172 180 195 196 193 193 198 198 197 193 188 182 176 168 151 106 204 202 199 204 205 182 170 165 146 125 146 158 144 133 117 136 139 160 158 148 152 152 164 169 176 178 175 182 187 190 198 198 197 201 202 203 211 213 214 217 219 215 210 205 203 199 197 197 196 201 203 201 191 160 159 168 172 172 173 176 181 191 194 191 189 182 173 178 191 206 207 202 198 182 166 169 166 173 195 195 195 194 195 195 195 189 180 177 176 172 132 90 203 199 199 201 200 191 170 170 146 126 156 149 145 129 127 139 141 148 157 154 149 148 164 171 177 176 177 182 186 188 195 198 200 200 200 202 205 207 210 212 208 208 207 204 202 197 197 194 198 204 206 205 197 171 154 162 166 165 173 175 178 188 191 190 188 182 178 184 214 211 195 196 196 189 175 165 150 166 191 192 194 194 195 194 191 188 180 175 172 167 123 89 195 195 193 186 157 136 148 174 141 134 151 140 139 134 130 141 132 143 152 153 149 150 166 166 173 175 177 181 182 184 189 195 197 199 200 199 198 200 207 207 208 205 202 200 198 197 195 195 202 210 211 209 203 186 151 146 157 160 161 161 164 174 180 178 175 170 172 187 210 193 184 189 185 187 179 154 137 178 189 188 194 195 192 193 190 184 178 171 170 169 148 95 143 150 146 133 128 139 127 159 148 147 155 150 154 140 132 138 139 149 152 144 140 153 168 168 174 173 171 174 177 182 185 187 194 199 198 196 194 195 200 204 206 204 197 200 198 196 190 195 206 208 208 207 198 196 174 150 137 137 134 126 100 107 136 159 164 158 152 165 175 177 173 174 172 182 171 135 165 189 189 187 192 194 191 193 189 179 175 167 162 156 142 117 65 100 120 149 165 165 142 150 138 154 167 153 153 143 140 142 147 154 146 137 137 165 164 170 176 173 173 173 177 180 182 185 192 193 191 192 192 192 195 200 202 196 196 195 188 185 192 200 206 202 199 201 197 200 200 187 165 140 140 141 117 112 128 106 122 140 143 146 154 158 157 153 151 149 117 126 174 183 185 187 187 188 191 193 185 177 168 164 164 144 124 122 84 119 141 161 172 166 150 142 139 159 162 161 143 145 143 152 154 146 146 132 145 171 162 167 170 176 175 173 172 178 181 182 190 189 187 190 193 190 189 192 193 181 186 188 184 190 200 201 201 200 198 193 187 193 198 194 170 155 161 145 148 152 146 125 123 108 113 133 131 130 131 129 116 96 107 143 164 170 183 185 180 182 184 183 179 171 164 156 162 139 109 103 79 116 139 154 175 168 156 137 146 159 156 143 138 148 153 157 155 145 152 127 154 156 165 161 166 177 173 170 171 173 177 179 184 185 186 188 189 187 186 186 190 192 190 185 190 198 198 200 196 189 192 183 182 188 186 165 157 160 150 141 142 140 141 132 112 95 88 113 110 103 97 99 85 86 117 138 156 160 174 180 177 180 175 172 168 160 157 153 158 141 99 87 88 116 147 151 169 171 156 136 137 161 172 149 148 149 157 156 147 135 141 135 159 151 159 167 171 179 171 168 169 171 176 181 182 183 182 182 183 180 181 189 198 196 190 186 183 188 187 189 181 190 184 185 179 175 163 158 170 165 140 130 127 129 139 147 105 107 84 105 124 99 107 107 119 102 100 133 149 162 166 175 176 175 176 170 158 158 152 154 148 130 93 87 97 122 150 151 167 177 157 136 149 158 151 153 158 151 159 148 143 146 139 140 162 161 161 165 178 178 175 174 173 175 176 176 178 181 178 179 179 181 183 194 201 193 185 176 176 179 174 162 170 185 187 186 171 161 162 148 144 150 131 133 137 130 122 146 129 112 87 78 94 99 118 112 124 133 93 118 143 151 161 171 170 159 168 162 154 154 155 151 137 115 101 89 98 128 153 153 163 178 156 128 154 148 138 167 163 144 165 161 151 164 155 139 162 169 164 167 181 181 179 170 180 177 174 179 179 180 179 178 182 188 194 196 190 177 165 168 166 164 153 147 166 161 171 160 151 151 141 129 146 142 117 124 139 130 102 137 142 109 121 96 100 85 95 127 119 147 117 105 127 145 152 152 141 145 146 151 153 151 151 150 141 118 96 89 106 128 155 160 160 177 154 126 137 152 158 158 167 157 173 163 154 162 156 147 159 169 166 173 179 174 178 171 177 173 171 178 178 179 180 181 184 187 191 182 164 151 150 154 147 156 142 145 151 148 145 141 129 129 134 129 139 151 131 105 138 137 131 146 126 122 120 101 103 103 94 124 106 119 141 105 97 125 157 150 130 122 132 153 151 141 148 147 150 108 87 86 105 128 156 168 167 170 164 130 135 155 147 161 162 165 176 145 152 165 158 154 167 160 168 168 177 170 168 169 168 172 174 178 176 178 179 181 181 185 186 170 151 154 143 139 154 137 135 142 141 150 149 130 116 127 135 125 128 148 131 98 149 138 143 143 114 120 124 87 89 107 110 130 129 107 131 122 110 121 134 148 140 131 108 129 131 145 151 146 137 117 94 81 100 124 149 170 176 169 166 138 136 141 151 167 153 162 177 140 135 161 159 153 168 161 165 165 162 167 171 174 168 172 178 179 170 177 172 181 181 179 176 145 151 129 129 135 133 118 121 142 137 147 137 140 117 133 126 107 131 154 115 124 152 125 140 118 125 132 116 81 94 97 104 122 133 126 130 121 110 136 108 120 127 117 89 108 118 134 151 139 135 121 91 79 105 121 147 167 178 169 163 142 151 154 160 174 147 158 181 147 127 146 162 156 166 161 157 159 155 159 174 170 158 171 173 173 173 180 177 179 177 175 164 145 142 121 133 126 118 106 128 147 139 138 142 128 123 136 120 133 145 142 106 144 154 143 134 108 132 145 91 95 112 94 109 131 130 150 113 111 132 141 102 113 122 103 101 99 117 119 133 117 122 116 87 79 114 121 142 163 175 173 166 139 136 156 167 167 160 160 170 159 136 151 155 167 169 164 154 164 158 156 170 166 150 158 166 170 167 176 177 167 165 175 162 146 109 122 111 134 121 119 125 144 134 119 124 136 136 147 123 136 132 127 127 136 145 144 115 120 100 106 88 108 112 112 108 110 100 116 105 109 124 133 108 119 114 103 102 95 106 104 134 125 125 105 80 82 121 124 138 160 175 182 165 155 150 155 170 170 168 165 166 163 152 155 145 161 168 166 151 152 154 162 162 155 152 149 157 165 154 160 170 160 162 171 149 131 118 110 115 145 111 115 127 111 98 94 111 118 118 138 119 115 111 114 113 108 111 101 97 113 112 92 107 122 105 100 111 113 101 93 98 99 127 116 107 117 95 90 95 90 95 86 136 138 113 89 76 76 101 126 130 152 172 180 172 160 158 143 168 160 156 169 167 166 165 159 137 145 164 160 151 138 148 181 169 150 150 155 154 155 154 161 158 156 158 167 156 127 122 106 116 123 106 107 116 93 80 88 99 108 115 121 91 109 93 105 113 92 92 95 115 103 111 98 113 116 96 92 91 106 104 105 90 87 97 121 123 102 90 89 92 90 92 102 121 132 100 80 73 72 83 142 136 143 167 178 177 152 157 149 155 171 166 171 157 159 171 161 149 137 159 161 160 148 141 163 169 160 150 142 151 154 160 152 149 154 158 156 160 126 121 128 117 98 101 132 144 142 116 87 97 102 90 131 125 114 117 131 153 153 147 163 179 170 169 162 175 181 174 149 139 111 62 74 78 85 84 102 104 78 89 96 97 89 92 105 116 123 121 77 68 69 77 129 149 132 163 177 182 162 159 158 149 186 171 163 165 172 176 164 157 145 166 161 151 146 131 130 170 167 157 139 154 160 161 152 150 145 146 150 139 139 128 125 114 97 115 153 172 172 167 142 119 107 103 118 121 105 124 110 153 187 165 184 203 207 197 183 200 205 195 164 139 92 57 69 71 71 82 87 84 104 109 104 100 97 104 126 116 117 118 67 67 66 113 116 156 132 151 175 185 173 152 161 159 193 175 163 166 182 180 167 153 155 158 150 143 143 147 140 170 162 164 132 138 170 173 157 149 144 159 157 134 131 139 121 110 108 145 148 165 165 170 166 159 151 140 133 124 129 131 128 134 145 139 144 162 161 157 155 155 150 131 123 103 96 108 106 103 107 124 132 127 134 127 127 99 96 87 101 110 120 91 68 62 63 108 130 147 155 131 168 183 184 161 157 167 189 178 161 164 175 178 162 139 141 144 145 145 145 162 154 157 163 155 155 129 163 171 165 145 143 163 162 145 128 152 131 112 128 150 160 168 176 174 171 171 164 153 157 154 156 163 167 160 154 152 143 137 136 132 129 123 124 124 127 132 136 136 140 137 138 142 138 136 136 121 120 100 101 95 80 124 130 70 65 56 58 41 127 149 162 141 152 180 187 170 152 165 187 178 173 155 171 174 149 136 143 153 158 131 146 167 160 154 164 151 164 129 138 160 160 132 134 154 142 135 134 141 120 117 155 155 167 178 181 180 172 170 169 157 164 166 169 177 182 178 176 179 173 169 163 160 153 149 147 150 154 160 164 161 158 163 160 145 140 139 131 124 122 101 96 90 78 128 129 65 52 51 50 30 75 149 151 165 139 168 187 181 157 169 175 170 173 170 169 167 154 140 126 141 153 122 131 164 163 161 158 151 163 134 126 134 144 134 146 150 126 140 149 124 114 143 144 146 165 168 174 172 170 171 175 169 161 160 173 177 176 180 181 185 191 188 179 175 173 170 166 163 166 162 170 165 162 156 142 138 135 134 136 130 122 91 93 83 107 119 107 55 39 43 43 36 26 106 164 161 153 147 184 187 157 169 161 166 167 173 167 150 155 149 133 136 160 127 128 162 157 158 148 141 151 134 137 134 132 136 156 140 121 116 135 123 120 132 123 134 152 159 167 171 174 175 170 163 166 167 169 166 163 171 180 187 178 170 161 159 164 164 156 144 144 128 135 147 144 150 145 133 112 126 133 111 118 92 83 94 104 98 69 36 37 38 39 25 25 29 155 169 165 138 165 187 169 156 166 166 148 166 162 136 161 150 155 145 153 129 117 143 146 148 146 137 131 138 126 146 139 117 129 132 110 98 112 92 115 116 127 135 135 154 171 175 179 173 171 169 170 172 170 160 167 162 157 152 144 161 134 145 141 144 130 130 133 132 122 130 131 135 151 145 115 110 127 117 107 98 75 91 103 90 42 29 34 35 35 25 31 19 49 180 163 158 141 178 171 144 161 152 136 156 145 139 155 153 141 162 151 134 119 123 141 148 155 150 127 140 124 121 124 99 100 128 111 92 107 86 93 105 134 135 137 160 158 179 181 178 175 177 174 170 162 164 168 152 145 134 122 137 133 138 140 143 131 123 144 147 137 127 142 144 143 146 131 108 122 126 111 108 89 90 110 77 26 26 27 28 29 25 29 34 7 83 188 164 147 152 179 162 147 123 127 131 126 141 135 151 155 159 157 130 122 126 128 148 154 135 127 147 138 106 98 84 99 110 127 98 81 97 97 96 125 131 149 147 156 169 164 166 172 169 165 162 160 160 167 147 140 129 121 123 126 138 137 137 146 129 138 159 145 137 123 131 132 124 136 122 127 144 125 93 100 93 111 83 29 17 21 22 23 26 27 33 31 3 123 192 157 141 155 148 120 117 120 125 107 127 118 138 156 162 149 135 120 128 130 134 132 138 117 138 132 141 109 86 87 106 109 119 93 86 106 103 125 127 140 157 171 164 148 149 149 147 147 162 158 142 144 138 127 127 123 126 127 142 145 135 131 129 145 168 145 135 113 117 127 125 121 128 129 135 139 85 96 111 82 50 68 21 14 16 17 27 27 30 38 25 13 161 185 150 136 149 138 116 106 99 99 133 122 112 144 168 144 132 115 112 134 128 127 120 106 120 122 138 112 104 80 109 96 94 98 92 99 123 128 119 148 165 168 158 150 153 157 146 149 154 150 136 126 125 120 119 127 124 119 144 157 126 125 119 142 153 131 155 147 113 112 117 122 132 146 131 124 88 90 112 56 22 32 19 10 13 13 30 30 30 36 39 19 38 198 171 142 116 127 131 101 92 81 110 103 98 132 162 153 139 128 108 117 120 138 112 107 121 127 136 103 106 98 90 107 81 92 92 115 121 112 138 153 165 155 154 162 170 163 162 160 164 152 143 138 129 136 128 135 130 105 141 155 130 145 136 133 144 139 147 147 112 125 123 130 122 135 127 140 101 87 90 35 14 5 8 10 10 12 33 31 32 33 38 37 10 77 216 160 129 137 129 92 74 66 69 99 101 130 116 151 147 131 126 116 123 127 107 134 104 127 141 96 121 130 98 96 91 90 100 114 133 118 138 171 164 144 159 163 162 178 183 177 164 152 158 152 159 152 146 149 147 123 138 149 158 162 134 124 119 152 132 150 125 125 146 135 133 118 110 123 97 102 87 17 15 8 8 10 10 12 37 36 34 32 36 37 35 8 121 211 132 124 122 97 89 86 77 94 96 89 85 128 146 121 111 112 115 108 111 140 104 119 136 96 118 143 105 91 98 89 104 106 121 110 146 164 138 151 161 154 169 180 178 179 175 176 178 174 163 167 163 153 154 150 146 136 143 156 145 139 97 135 125 132 127 130 151 138 138 111 99 110 114 90 60 11 11 9 9 10 11 12 41 40 38 33 36 35 41 33 10 155 206 130 109 112 102 81 90 81 57 69 98 96 113 121 114 95 112 112 112 136 91 103 139 122 110 130 104 94 90 92 113 96 115 116 163 164 143 158 139 140 162 160 164 164 167 178 179 178 190 170 152 165 152 142 144 144 123 143 143 142 124 121 129 134 139 128 143 152 134 122 99 101 117 68 33 16 8 10 11 11 12 13 44 42 41 41 36 39 42 44 27 24 192 187 115 117 112 100 89 77 69 65 71 68 83 98 111 81 111 100 91 114 103 107 142 126 117 120 98 90 84 99 94 96 139 126 147 159 143 142 132 136 153 168 168 158 163 174 169 188 188 162 164 164 171 143 138 144 133 130 136 129 133 137 144 151 161 135 144 148 115 108 104 113 113 43 18 12 10 10 11 12 13 13 41 45 47 44 39 38 41 47 45 22 48 220 165 115 132 142 124 93 109 83 48 71 67 80 92 103 84 85 91 105 100 113 108 124 122 98 93 92 80 111 99 93 140 130 122 149 127 140 133 135 165 160 139 149 156 163 172 177 165 151 167 168 177 163 145 153 133 129 134 124 134 138 154 144 159 151 153 143 133 109 105 120 127 59 13 12 12 11 11 12 13 14 39 43 43 44 43 42 41 42 47 48 15 74 243 176 137 149 153 120 101 99 91 89 69 76 81 88 86 88 104 114 103 97 106 120 109 102 116 117 94 94 100 109 114 115 121 123 132 129 130 139 143 130 129 124 139 168 167 160 159 155 168 173 170 174 161 147 152 139 129 129 133 145 146 149 161 147 141 154 149 122 105 113 94 39 22 13 13 13 14 13 13 14 39 44 46 45 43 41 41 44 44 46 41 11 119 255 177 139 146 153 146 126 110 92 75 76 82 92 87 73 92 88 84 81 94 113 99 93 121 119 93 99 97 115 107 113 108 132 112 129 124 126 126 118 120 120 156 164 153 162 149 157 160 165 166 184 175 144 148 149 142 134 138 151 144 154 167 158 149 140 147 129 112 109 70 11 16 18 15 14 14 13 14 14 37 41 43 45 43 47 44 43 45 46 53 41 16 161 255 169 136 159 148 147 136 107 117 100 96 87 67 87 98 90 75 68 84 118 97 99 108 96 78 87 100 86 99 97 110 134 109 128 111 132 122 124 118 130 142 158 156 160 152 169 160 164 176 183 164 143 131 127 134 140 136 153 155 158 174 158 137 144 132 129 139 97 73 19 16 18 17 16 15 15 14 14 39 41 48 50 48 49 50 44 45 45 51 52 33 31 203 255 183 145 147 146 137 124 110 107 98 102 90 79 90 76 65 74 87 91 94 82 86 84 79 78 90 73 85 96 107 110 126 119 110 123 131 124 108 126 149 167 168 163 162 157 175 173 168 174 155 156 132 125 132 134 124 135 154 154 175 144 138 129 149 130 142 105 34 27 22 19 18 18 17 16 15 15 38 39 46 50 51 51 48 45 46 48 47 51 51 30 56 231 254 195 158 152 149 153 127 110 110 106 122 112 100 84 71 71 80 91 79 54 85 56 73 82 67 62 77 59 102 94 125 121 115 117 112 124 118 148 155 158 165 175 168 141 175 185 163 167 154 147 142 137 130 127 128 124 141 144 161 146 121 134 153 148 142 107 30 23 25 21 18 19 18 17 16 15 39 39 39 42 46 51 49 51 48 49 52 50 55 50 21 89 251 254 207 164 159 163 152 141 129 150 145 119 98 92 80 87 84 100 83 82 77 65 73 63 58 60 65 58 74 102 121 123 111 97 122 128 112 145 145 157 173 163 160 164 147 168 166 156 162 138 129 147 126 132 133 128 115 113 140 130 115 133 123 135 143 89 54 12 17 18 19 19 18 18 17 16 41 39 40 41 44 50 51 54 50 52 54 50 53 55 48 21 125 255 252 220 174 177 167 140 131 152 151 132 103 80 93 90 85 102 88 86 95 109 98 52 49 51 69 80 65 77 112 122 105 87 124 124 125 136 161 164 161 147 161 169 156 147 141 149 156 138 115 137 138 118 126 118 119 120 144 119 126 128 126 139 104 33 33 22 16 18 19 18 18 18 18 16 43 39 39 40 45 45 46 51 51 53 58 55 56 58 53 45 28 167 255 251 235 183 149 151 141 116 148 154 150 131 117 101 87 102 97 86 87 96 82 61 48 66 70 85 62 80 107 115 112 101 118 138 162 146 141 169 178 151 160 170 155 139 132 159 144 136 121 124 129 108 136 128 106 139 135 116 105 131 145 128 101 27 6 15 16 18 18 18 19 19 18 17 37 40 40 42 42 45 49 49 56 58 55 54 54 64 58 55 43 39 201 255 251 242 208 185 176 162 146 150 159 157 130 117 117 100 98 98 73 76 86 70 80 94 91 80 66 74 79 122 130 91 140 152 169 168 128 149 168 155 144 167 155 124 148 148 141 136 140 118 128 109 127 135 107 115 108 102 102 127 123 120 51 36 10 13 14 16 18 18 18 18 18 17 35 41 39 42 41 45 46 46 50 53 54 55 57 60 58 62 57 34 60 228 254 248 252 230 196 178 160 155 168 171 164 163 158 153 135 133 98 100 118 95 89 91 88 75 64 71 102 125 118 96 130 127 160 175 139 154 136 148 134 141 151 119 136 126 141 138 141 125 135 131 101 125 117 105 94 97 118 110 121 63 7 9 10 12 13 16 16 18 18 18 18 17 35 35 37 42 42 42 41 44 47 52 53 55 59 60 60 59 60 53 34 89 246 250 246 252 248 214 176 163 147 145 160 162 162 167 153 152 142 149 123 129 138 101 88 83 78 73 81 90 130 123 128 109 135 155 132 143 123 147 132 133 125 121 147 116 126 149 140 120 127 132 117 122 104 109 82 96 128 104 81 9 7 9 10 11 12 13 14 16 17 18 18 17 33 36 38 40 42 42 43 45 46 50 51 54 58 61 63 58 59 58 50 27 126 255 246 246 248 251 237 207 192 160 149 155 156 161 165 160 143 144 151 139 140 121 121 126 111 107 74 73 107 98 119 131 122 144 128 141 121 121 141 120 124 121 131 122 127 141 136 98 118 130 110 101 108 122 93 103 122 66 36 9 10 8 9 11 10 12 13 14 16 17 18 17 31 34 38 38 40 41 43 46 46 49 50 53 53 57 61 58 59 63 57 52 39 169 255 244 246 247 248 244 248 239 201 153 154 172 178 176 165 151 142 135 141 139 135 150 144 151 128 91 93 75 84 101 119 128 126 111 109 100 104 105 134 114 107 118 100 94 118 126 129 109 91 115 99 97 83 91 94 33 22 13 9 10 9 9 10 12 13 14 15 16 17 17 32 34 35 37 41 41 41 44 46 48 47 51 52 56 55 63 60 62 59 57 47 49 204 255 243 246 248 246 244 244 249 230 172 157 172 178 179 178 162 143 145 156 155 134 131 138 131 117 112 101 88 76 83 110 117 102 109 124 107 123 95 76 100 102 69 72 115 111 119 75 113 100 93 68 62 65 31 14 14 14 10 9 10 10 10 11 13 14 14 15 16 16 35 35 36 36 38 39 43 46 45 49 47 51 52 54 54 58 60 61 62 60 58 45 75 229 255 244 246 249 246 245 245 245 237 190 164 172 181 175 168 161 142 138 153 156 149 143 138 132 127 116 111 105 85 82 81 86 89 87 100 117 99 86 87 94 82 98 103 105 113 98 112 98 64 31 25 26 12 12 13 13 12 10 10 10 9 10 12 14 14 15 15 15 34 34 34 35 36 40 44 44 43 44 47 45 47 51 55 53 56 58 59 60 62 60 43 74 197 245 244 246 248 247 246 243 240 243 219 192 181 180 176 169 165 156 152 163 162 148 139 135 131 128 123 146 124 108 111 79 64 62 72 84 79 92 101 134 168 144 133 191 139 67 66 61 23 11 15 14 12 14 13 13 13 10 11 10 11 11 12 13 14 14 14 14
