P2
# Generated by OpenCV 4.2.0
92 112
255
28 27 28 26 25 25 30 37 42 49 55 65 71 75 83 90 90 92 102 104 103 103 99 100 105 106 107 117 127 145 159 164 163 174 192 189 180 174 187 203 201 201 208 208 208 207 212 219 222 222 222 224 222 221 223 222 222 222 221 221 221 221 221 221 220 220 219 217 206 191 175 145 127 106 91 71 82 92 99 137 128 118 137 116 100 119 126 106 135 127 119 137 24 26 28 28 35 43 46 48 50 55 63 70 80 90 97 98 96 100 106 111 107 106 107 107 112 114 112 124 137 144 161 179 190 198 203 202 197 196 198 202 206 210 213 212 213 215 218 220 221 222 223 225 223 221 223 223 222 222 221 221 222 221 222 221 220 220 218 215 208 191 177 157 133 116 99 91 83 92 92 115 122 104 110 118 113 111 130 122 119 126 109 134 23 28 32 38 44 46 53 55 60 69 77 85 96 101 107 109 110 115 115 115 115 108 112 116 120 123 124 132 151 157 165 183 198 205 209 211 211 209 207 203 208 214 215 216 218 219 220 220 221 222 222 225 226 223 223 223 222 222 221 221 220 220 221 222 220 219 217 214 207 195 182 169 142 129 119 110 96 96 100 98 114 107 96 101 122 113 110 126 112 115 105 109 28 33 35 37 42 46 56 62 69 81 93 105 111 111 111 114 118 124 128 132 126 124 127 123 125 130 136 145 160 174 182 189 200 208 211 212 212 211 209 207 209 215 216 218 219 221 222 221 220 221 221 223 223 221 221 221 221 220 221 221 219 220 220 221 220 220 217 213 209 200 188 177 157 135 127 128 122 97 103 101 98 111 119 110 112 126 107 125 122 115 109 103 30 31 33 38 42 47 60 72 80 91 106 116 122 129 134 134 133 131 135 154 150 142 143 143 147 150 155 166 177 185 195 203 208 213 211 213 213 212 211 212 209 213 215 218 219 220 220 221 221 222 221 222 221 218 218 220 220 219 220 219 220 220 220 221 220 219 217 213 204 201 191 176 166 149 128 125 133 122 98 118 112 108 120 125 111 124 122 121 132 124 114 110 28 29 35 40 43 54 70 81 86 100 114 122 133 145 151 153 151 152 154 170 172 166 166 166 168 169 173 178 187 193 201 208 213 215 212 215 214 213 211 214 210 212 215 218 218 218 218 219 220 221 219 219 220 218 219 220 220 219 219 219 219 219 219 220 220 219 217 213 203 196 186 171 163 159 139 126 128 136 117 102 121 120 112 114 113 111 127 120 129 135 126 107 28 32 39 47 50 58 79 90 93 110 121 132 146 152 158 162 164 166 171 180 182 177 178 178 181 181 182 185 190 195 201 209 212 213 215 216 214 213 213 213 212 212 214 217 217 216 216 218 219 219 219 219 219 218 219 219 219 220 219 219 219 219 219 219 220 220 218 216 205 198 186 175 166 156 145 137 128 126 132 114 98 132 122 118 129 121 120 135 126 130 136 120 32 38 45 44 47 65 90 97 98 114 127 140 148 157 162 167 171 174 178 184 185 184 183 184 188 187 186 187 193 195 200 208 211 212 212 214 213 212 211 211 214 212 213 216 216 217 217 218 218 218 218 219 219 219 220 219 220 218 219 219 219 220 221 221 220 218 214 214 212 204 191 180 167 152 143 140 129 119 126 132 106 105 137 122 120 132 112 122 117 127 137 136 38 40 39 42 51 74 99 104 103 119 134 142 152 160 166 168 172 178 182 185 185 187 183 187 190 190 193 192 189 193 201 208 207 208 211 213 214 213 209 210 213 213 214 214 217 217 218 218 218 218 218 217 218 219 220 219 219 219 219 219 219 219 219 220 220 217 211 208 208 208 205 188 169 153 146 135 130 126 123 134 131 89 106 137 121 127 110 103 122 120 140 140 35 38 44 42 53 82 106 108 105 122 139 145 156 161 167 171 176 180 182 183 185 185 185 189 190 193 199 195 188 192 199 205 204 206 213 214 213 211 212 211 211 212 213 213 214 216 219 217 217 218 218 217 218 219 219 218 218 219 219 219 219 219 218 218 217 215 213 211 202 197 198 196 178 155 143 135 128 126 129 126 136 116 83 103 123 125 135 112 113 121 134 139 38 41 39 40 60 92 110 109 110 124 142 149 157 162 167 173 179 184 182 184 185 184 187 191 192 196 198 196 192 194 200 203 201 205 212 214 211 210 212 212 213 212 213 214 213 217 219 217 217 218 218 219 220 221 220 217 218 219 219 219 219 219 218 217 215 214 212 211 206 198 190 185 185 165 144 145 140 127 132 126 120 127 102 83 101 122 134 121 109 126 138 139 37 34 36 48 71 96 112 110 111 129 145 149 159 164 170 174 181 184 183 185 186 186 188 191 195 198 199 198 195 195 201 201 200 205 210 212 211 211 212 212 213 212 212 213 215 217 216 216 218 218 219 219 221 222 222 219 218 219 219 219 220 220 219 217 215 213 208 206 201 198 187 178 177 172 156 137 143 137 123 137 118 106 113 99 90 115 133 130 113 130 133 134 33 37 43 54 73 95 111 112 113 134 145 149 158 165 172 177 180 183 183 184 188 190 193 193 196 199 201 199 197 198 201 201 204 207 209 210 210 210 211 212 214 213 211 212 215 217 217 219 219 220 220 220 220 221 221 220 219 219 218 219 220 220 218 216 214 214 210 204 198 193 187 174 169 164 160 148 119 127 118 124 150 113 109 108 92 110 135 133 119 131 129 126 36 42 47 53 75 94 109 114 118 135 145 149 158 164 171 177 180 183 184 183 186 189 192 193 195 197 200 200 197 198 200 201 205 208 210 210 210 210 209 213 213 214 210 209 213 217 218 219 219 221 219 220 219 219 219 220 220 220 219 220 220 218 215 212 211 212 210 202 195 190 183 176 169 158 151 154 137 101 112 111 128 129 108 105 101 112 126 132 121 130 131 122 44 45 44 50 74 93 112 115 121 141 148 149 157 163 170 174 177 180 183 185 187 188 192 194 193 195 198 196 195 196 196 199 204 207 208 207 209 208 208 215 213 212 208 209 213 215 219 219 220 219 218 218 218 219 219 220 219 220 221 221 220 217 213 210 210 208 202 197 188 184 179 168 162 162 154 142 143 124 97 106 113 123 109 102 115 118 127 135 122 130 136 127 45 39 39 56 77 95 114 116 126 144 147 148 156 163 169 173 176 179 184 185 190 190 192 192 191 194 195 194 195 194 195 199 203 207 206 207 208 210 209 211 212 212 209 210 212 214 216 218 220 217 217 217 217 218 218 218 217 219 221 221 219 217 214 212 212 208 199 193 188 180 172 164 152 146 140 144 139 131 107 96 112 118 114 95 106 125 131 133 120 119 136 134 40 45 58 73 86 94 114 114 123 143 149 148 156 163 166 172 177 179 182 183 189 192 192 192 191 191 193 192 193 193 194 199 202 206 207 207 209 209 212 211 212 211 210 209 211 214 214 216 217 218 217 216 218 218 216 217 217 218 220 220 219 218 215 211 209 205 200 195 184 176 165 157 152 148 133 130 131 118 119 94 91 105 104 97 96 112 131 131 133 120 134 131 54 62 55 56 78 91 114 116 122 141 147 146 153 160 164 168 173 176 175 179 189 191 193 195 194 195 195 190 192 192 193 200 200 204 207 205 207 209 210 210 211 209 208 209 210 211 212 213 215 216 216 216 216 216 217 218 218 219 219 219 219 217 216 214 210 204 195 188 184 179 166 145 135 136 138 127 126 122 108 107 89 87 97 103 104 108 124 121 123 115 132 131 51 39 45 59 74 88 112 118 118 135 143 145 150 156 161 166 171 174 174 179 189 194 194 195 197 200 198 190 190 190 193 198 201 206 206 205 205 206 207 208 208 209 208 209 210 211 211 212 212 212 214 214 216 217 219 219 218 220 220 219 219 217 216 214 212 206 196 185 172 169 165 160 143 119 108 107 106 116 124 112 109 94 89 104 113 118 115 119 114 113 125 135 32 43 49 60 74 90 112 122 123 137 147 147 148 156 164 164 168 172 176 182 185 190 191 187 192 199 198 195 190 189 193 199 201 206 206 206 204 204 205 206 205 206 208 210 212 213 212 213 212 212 213 214 215 216 217 218 217 218 219 219 218 216 214 215 214 207 197 190 179 165 155 148 147 137 116 102 108 116 123 132 121 108 102 100 115 120 111 121 115 113 120 128 40 45 46 59 78 88 109 123 126 135 146 146 148 156 162 162 166 172 175 182 187 190 189 188 190 195 196 196 192 193 191 192 196 202 204 206 204 202 202 204 206 207 207 209 212 213 213 213 213 215 215 215 215 215 217 217 217 217 217 218 216 214 212 214 213 209 199 188 177 160 148 142 128 117 114 96 92 102 106 109 113 114 114 111 121 120 107 117 118 103 99 104 46 42 47 55 71 88 106 124 128 136 146 148 151 156 162 165 168 174 175 180 187 193 193 192 193 196 196 196 193 193 192 190 198 202 202 204 201 199 200 204 208 208 206 208 212 213 213 212 213 212 212 213 215 216 217 216 216 216 216 215 214 212 212 211 213 210 204 193 178 164 150 144 141 126 116 101 86 81 89 91 94 109 121 121 122 129 116 108 118 104 106 101 46 40 46 49 66 89 106 119 126 134 146 150 150 155 159 166 170 171 176 178 186 192 194 193 192 195 195 195 193 190 191 194 197 201 204 202 195 195 199 205 208 207 206 208 212 213 214 213 213 211 209 213 215 216 215 214 213 213 213 213 212 212 212 212 213 214 210 203 193 183 173 164 158 160 160 143 120 95 88 88 93 104 116 130 125 129 132 104 110 111 111 97 38 43 42 45 67 87 105 116 124 133 143 147 147 153 158 165 168 168 173 181 190 196 199 195 195 197 197 193 191 190 191 192 195 198 203 199 196 196 203 208 208 210 208 210 214 215 214 213 215 213 214 215 215 215 210 207 211 211 211 211 211 212 212 212 213 216 213 208 205 200 191 190 192 195 186 168 144 115 93 84 83 96 115 132 131 125 133 115 99 102 99 91 39 42 39 43 65 85 106 116 123 135 144 149 152 158 164 169 171 172 178 184 190 195 201 199 199 199 197 192 189 189 190 189 193 199 199 196 197 199 206 210 210 212 210 213 214 215 215 214 215 216 217 217 217 214 208 204 209 211 211 211 211 212 211 211 212 212 211 209 205 200 199 199 203 207 203 187 170 144 113 99 94 90 105 128 136 125 119 127 103 97 93 81 43 42 37 44 64 87 102 118 121 133 147 150 150 158 167 171 172 174 181 184 187 195 200 200 200 199 196 192 188 189 189 190 192 197 197 198 199 203 208 212 212 212 212 213 214 215 215 215 217 217 217 218 217 215 214 211 211 211 211 211 210 209 210 209 210 210 210 209 206 202 203 204 207 209 208 196 180 162 135 111 104 102 107 128 139 130 119 122 116 104 95 88 45 41 42 44 61 88 101 115 119 130 147 152 152 161 166 172 174 174 179 186 189 195 197 198 199 199 196 193 189 185 188 189 191 199 197 199 203 209 212 212 209 212 212 213 213 213 214 216 218 216 217 217 217 216 218 217 215 211 211 212 210 209 209 208 208 209 208 207 205 203 204 205 208 210 208 201 186 169 148 121 104 107 113 126 137 132 119 113 114 107 95 92 43 44 36 39 59 85 102 115 119 128 143 151 157 163 164 169 175 179 179 186 187 189 192 195 201 202 197 194 193 188 186 185 191 197 197 202 209 212 211 207 206 209 211 212 212 213 214 214 214 215 215 215 216 216 217 216 215 214 212 210 209 209 209 208 206 205 204 204 203 203 203 206 208 212 210 210 201 180 160 140 111 109 114 117 128 127 119 111 110 110 102 95 45 42 28 33 58 82 105 118 121 128 143 152 157 162 162 167 174 179 179 183 186 188 191 195 202 204 196 194 194 192 183 182 189 196 201 204 208 209 209 205 206 210 211 211 210 212 212 213 213 213 213 213 213 211 211 212 213 214 212 210 209 209 209 207 205 205 204 203 201 202 203 208 209 210 212 211 203 192 169 151 129 103 108 115 113 116 120 118 111 111 107 103 51 41 28 30 59 84 105 119 127 136 151 159 159 160 162 168 172 175 176 181 185 187 190 194 198 205 198 191 197 195 182 182 187 197 203 201 203 206 209 206 205 207 211 211 208 209 212 213 212 211 209 208 206 204 202 203 208 209 208 208 212 211 209 207 204 204 205 203 201 200 202 208 209 208 210 210 203 195 179 161 140 114 98 104 109 110 118 122 97 89 90 86 49 39 29 32 63 87 112 124 133 144 156 163 163 164 170 174 174 176 175 178 183 185 189 191 197 203 198 193 195 200 185 179 190 197 199 197 200 204 206 205 205 204 209 205 209 210 212 211 208 206 201 195 191 191 189 184 189 197 199 202 206 207 208 208 206 203 202 202 201 200 203 208 209 208 211 210 205 198 186 167 151 125 104 98 108 110 109 110 113 103 110 123 45 37 29 38 64 94 120 130 140 149 161 166 165 167 171 177 178 180 178 177 179 182 186 188 197 199 195 194 194 203 193 176 185 193 195 193 194 198 200 197 189 187 182 176 184 187 188 188 186 185 179 173 173 176 176 180 188 196 197 193 189 194 202 207 204 201 200 201 201 201 205 208 209 210 211 210 207 202 195 184 163 135 121 110 101 111 113 111 111 126 156 182 43 39 32 39 68 105 126 132 142 151 160 163 164 166 173 178 180 177 175 177 178 181 183 185 192 193 191 193 197 202 198 180 179 186 188 185 184 185 188 179 162 154 151 143 129 140 142 148 155 159 165 165 168 173 172 175 180 184 186 185 184 183 188 194 196 199 197 198 201 201 202 206 209 210 211 209 209 205 197 182 160 149 133 119 109 108 116 127 129 145 180 202 50 39 33 45 76 111 112 118 130 139 147 156 158 161 170 177 174 171 172 172 174 179 180 184 186 184 183 185 194 198 195 181 177 182 181 173 172 169 171 154 141 139 134 114 114 111 108 113 126 141 150 147 152 157 161 163 164 166 170 176 180 181 185 192 194 197 198 198 200 200 203 204 208 210 209 209 210 209 203 194 175 160 142 130 118 111 123 147 171 184 198 207 56 41 40 46 85 99 102 103 105 114 120 124 128 137 147 156 155 155 164 165 167 174 176 180 182 179 176 177 188 196 193 178 169 170 164 155 153 152 147 138 134 142 134 118 106 96 93 92 98 105 114 126 137 152 163 164 162 163 163 166 172 176 183 191 194 195 196 197 199 201 202 203 206 206 208 207 206 206 206 202 197 188 165 151 132 119 122 141 172 202 211 208 60 47 41 55 79 82 90 87 90 92 90 90 95 106 120 125 126 128 137 150 157 165 170 173 175 170 169 175 185 194 195 178 163 165 159 150 144 147 138 140 142 144 139 126 114 107 110 115 120 127 134 141 150 168 176 181 179 178 175 178 179 177 179 183 190 195 197 200 200 200 201 204 207 208 207 206 205 204 204 203 201 197 178 161 148 139 144 151 172 203 210 205 63 51 48 57 69 77 82 80 81 78 74 75 80 82 85 93 99 102 108 126 139 147 153 163 171 157 156 171 185 193 196 186 164 163 164 157 151 150 152 151 146 142 138 131 129 131 137 141 144 155 165 174 180 185 191 198 198 191 187 185 182 182 181 186 191 196 199 199 199 202 204 205 208 209 201 202 201 202 202 197 196 197 184 164 158 154 159 165 187 207 201 194 67 54 47 54 66 74 79 74 82 87 88 89 89 84 80 77 82 88 93 106 120 129 140 153 159 147 148 167 185 194 196 192 175 161 163 161 161 160 158 155 148 139 136 137 136 130 121 117 114 120 136 151 164 176 186 196 205 205 202 200 197 193 191 191 196 198 197 197 200 204 205 205 206 207 201 198 197 201 202 201 197 190 188 183 166 167 174 186 198 207 203 193 72 56 47 60 65 65 77 88 96 106 112 116 121 118 112 105 95 91 89 91 100 112 127 138 148 137 138 160 183 194 196 194 184 167 160 160 161 160 157 149 143 137 137 135 113 91 94 97 80 59 50 51 61 74 96 90 116 145 165 182 200 200 194 194 199 197 197 200 205 205 205 205 206 204 199 195 196 201 203 198 193 194 190 189 169 172 188 196 201 207 203 191 78 61 62 67 69 67 77 98 113 125 136 143 147 146 134 119 106 91 83 81 84 92 100 115 128 122 127 155 179 195 200 202 194 183 175 170 169 166 161 151 146 140 135 120 102 110 120 100 99 83 58 69 112 94 128 56 96 93 103 128 153 183 197 197 193 196 198 201 203 204 205 205 206 202 198 193 194 200 202 194 189 188 195 189 166 172 196 195 194 205 211 207 73 67 65 75 78 73 82 106 126 138 140 127 104 84 72 59 58 74 87 78 69 76 81 89 99 108 118 145 175 195 207 208 206 203 195 188 184 183 178 170 154 139 128 117 124 126 110 132 163 124 72 75 55 63 65 110 152 130 117 129 141 152 171 180 188 196 200 204 204 203 205 207 205 203 198 194 194 197 198 194 191 191 192 189 172 178 201 200 198 197 205 223 68 70 66 81 86 83 92 107 110 90 71 58 57 66 39 42 57 126 61 71 82 79 75 75 82 94 109 144 175 195 209 212 212 211 206 199 194 194 189 177 155 135 126 132 131 127 127 147 158 146 99 107 125 138 155 170 182 182 174 164 164 171 173 182 193 201 204 204 205 207 209 206 203 201 198 196 195 195 197 196 191 196 199 179 174 190 204 202 204 182 144 173 69 68 66 88 92 91 99 97 75 63 57 80 124 107 48 52 71 122 54 51 89 89 78 72 74 81 98 145 176 196 209 213 215 214 209 203 201 203 195 182 170 154 148 119 121 137 146 141 137 140 149 163 176 188 187 184 196 198 194 194 196 197 197 199 201 202 202 203 205 208 208 205 204 200 199 197 195 195 196 195 191 191 202 190 166 184 205 202 202 184 147 154 72 63 79 93 95 94 98 91 69 63 70 106 140 119 61 58 53 52 61 79 135 111 77 76 81 76 94 148 181 199 209 216 218 213 208 205 205 205 200 198 198 189 144 120 136 135 134 137 142 151 151 166 179 187 189 192 192 191 194 199 200 202 205 205 206 207 204 204 207 210 208 207 205 201 199 196 191 195 196 189 182 187 197 192 165 184 206 204 203 195 176 177 68 72 85 95 95 94 93 84 66 90 117 125 133 138 98 69 79 111 128 138 145 126 98 76 84 81 92 145 180 199 207 213 214 211 207 204 204 203 199 201 198 187 172 171 150 137 139 150 161 164 171 179 184 183 180 180 180 184 193 200 199 203 204 206 207 207 204 206 209 210 209 207 206 202 200 197 193 194 192 190 181 174 190 188 174 186 206 208 208 204 192 191 69 77 80 97 98 96 91 82 78 105 127 131 130 135 134 135 146 151 159 163 167 157 134 105 105 94 103 151 179 195 204 210 212 210 207 204 203 203 200 200 196 191 184 170 153 134 129 140 146 151 156 160 163 167 170 177 185 190 187 189 195 202 206 206 206 205 203 204 208 209 206 205 205 203 203 200 196 193 193 193 182 166 178 182 172 187 206 211 213 213 205 198 72 73 79 101 101 101 102 91 91 109 129 132 135 138 135 136 136 139 142 147 156 158 146 145 143 111 131 166 183 196 206 211 212 209 205 203 204 203 202 203 201 188 176 168 163 160 150 146 140 137 141 144 150 159 164 173 180 188 196 201 201 200 200 203 206 204 205 205 206 207 205 205 205 204 204 201 198 194 193 193 181 167 175 179 164 186 211 214 213 213 206 196 73 70 88 106 110 112 114 108 100 102 119 133 146 151 148 144 138 133 132 137 148 149 149 149 133 126 159 175 188 199 206 211 211 207 206 205 203 204 206 208 208 198 185 178 177 179 179 178 178 177 175 175 177 181 183 187 187 190 192 194 199 203 199 200 203 204 205 206 205 207 205 206 207 205 203 201 198 193 190 189 174 159 172 174 170 190 212 215 214 210 204 204 69 79 94 107 118 117 118 122 118 104 105 113 121 130 132 130 124 121 128 139 148 151 149 144 123 142 169 179 189 199 207 209 211 212 211 208 203 203 207 210 211 207 201 195 191 186 186 187 188 190 192 193 194 198 200 198 200 200 198 196 196 199 201 202 203 203 203 202 204 206 206 207 207 205 200 199 199 195 187 185 178 158 161 167 167 189 212 216 215 209 208 216 68 77 92 109 122 121 125 136 135 123 129 121 117 117 119 121 125 133 141 149 151 155 155 139 124 149 172 181 190 198 204 208 211 215 218 213 203 202 206 209 211 210 207 205 201 196 194 194 194 195 197 196 197 201 202 202 203 203 201 200 200 201 201 203 204 203 204 206 204 205 206 207 207 203 197 197 201 198 190 186 187 167 154 160 174 192 213 216 216 209 205 208 70 69 85 114 121 122 131 142 146 149 150 149 142 137 135 140 147 150 153 156 159 163 150 130 115 146 173 184 190 195 202 207 215 221 216 211 207 204 205 209 210 211 211 208 206 205 204 199 197 196 197 198 199 200 202 204 202 202 203 201 202 203 204 204 203 203 205 207 206 205 206 207 204 200 198 199 200 198 189 180 178 163 146 153 171 191 212 216 213 210 207 199 72 72 88 117 119 123 134 144 155 155 156 161 158 153 151 155 159 159 159 163 167 161 144 120 109 143 170 182 191 198 201 209 218 218 209 208 208 207 206 208 208 211 211 204 206 210 208 204 202 197 196 197 200 199 201 203 201 202 205 204 204 204 205 204 202 204 206 206 206 206 206 202 199 199 199 199 196 195 185 175 173 160 142 146 168 196 212 215 211 212 206 192 73 76 90 117 119 123 134 147 152 156 164 166 163 159 160 161 160 162 166 168 165 156 140 113 111 140 164 179 193 199 203 210 213 209 207 211 213 209 207 206 209 211 214 211 209 211 197 192 201 198 196 195 200 200 202 202 202 203 207 205 204 203 206 203 202 206 206 206 206 206 205 203 199 199 199 199 198 193 181 173 167 156 146 143 157 193 212 214 213 207 191 187 73 73 89 118 123 126 135 145 151 159 162 166 165 163 164 165 165 167 170 167 163 155 130 108 111 140 162 177 189 198 204 211 212 207 207 212 212 212 207 205 208 210 213 215 213 206 187 189 202 202 199 198 200 202 204 202 203 206 207 207 204 202 202 206 205 205 204 204 206 207 206 202 198 199 199 199 199 188 175 168 162 158 150 143 153 199 218 221 214 177 165 189 70 66 89 118 126 129 138 142 151 158 162 164 162 163 164 164 168 172 169 166 166 150 121 107 114 138 164 180 188 200 205 209 211 207 205 212 212 210 206 205 207 207 210 213 213 208 198 199 202 200 198 200 201 204 205 206 204 203 202 201 201 201 202 206 208 206 203 201 204 204 204 201 197 200 200 199 196 184 175 171 169 164 147 132 155 204 217 219 214 188 187 206 70 68 91 120 128 130 140 145 150 158 162 161 162 165 166 170 174 174 171 169 163 146 121 109 118 140 165 179 191 203 207 209 208 208 208 208 208 208 207 206 207 205 207 212 213 208 203 201 200 200 200 200 202 204 206 207 205 203 204 202 202 203 203 205 205 206 204 202 204 205 204 201 198 201 200 195 188 184 177 165 166 157 141 121 161 206 209 208 209 214 216 217 70 71 93 119 129 131 142 147 151 158 163 166 169 173 175 178 178 174 172 166 156 141 119 114 126 148 169 182 194 203 210 210 209 208 207 207 207 206 207 207 207 206 207 210 213 209 203 201 201 200 202 201 202 203 206 207 207 207 207 207 206 205 204 204 203 203 202 204 205 205 204 203 199 197 194 190 185 182 171 159 161 156 141 137 183 206 204 200 205 213 218 214 70 73 89 118 129 136 144 146 150 156 162 168 174 177 179 181 178 173 169 162 152 134 116 120 133 151 174 186 197 207 209 210 210 211 209 209 210 206 203 206 209 210 209 209 211 208 203 201 202 203 202 202 204 205 207 209 209 208 206 207 206 204 204 203 201 201 200 201 203 203 201 203 201 196 189 188 178 169 166 156 156 149 137 152 189 205 203 198 202 208 209 209 73 72 90 118 130 140 142 144 151 156 163 170 176 179 181 181 177 173 167 162 152 134 120 125 137 156 178 188 199 208 211 210 207 210 211 210 209 205 203 204 208 210 210 210 210 208 204 202 203 204 204 204 206 206 207 207 208 208 206 207 208 205 204 202 200 199 199 200 201 199 199 196 197 195 191 183 173 159 159 155 150 142 127 156 191 205 202 198 202 206 206 206 69 71 90 118 127 139 140 142 151 159 166 171 175 180 180 179 177 173 167 164 157 137 124 125 137 159 177 191 204 209 213 214 212 212 213 210 206 200 201 202 206 205 204 208 210 208 204 202 205 205 206 206 205 207 206 206 207 207 205 205 207 206 204 201 200 199 200 200 198 197 197 197 195 191 189 178 172 160 153 154 147 137 141 163 193 205 195 191 199 203 204 204 69 75 88 114 125 140 141 146 154 162 169 173 176 179 179 178 175 172 168 168 159 134 123 126 136 161 177 192 208 212 215 215 217 214 213 213 206 199 199 201 202 202 203 203 201 201 202 204 204 205 203 202 206 206 207 207 207 206 204 204 206 206 203 202 200 200 199 199 200 197 196 196 193 190 186 177 171 158 153 151 138 128 161 179 192 201 174 175 187 194 196 195 71 82 90 111 125 134 141 147 155 164 168 173 176 179 179 176 172 171 171 168 151 124 121 124 134 158 181 199 208 212 214 214 215 215 215 214 209 205 204 201 200 200 203 201 193 191 195 201 203 202 200 200 202 205 207 206 206 205 203 205 207 206 203 203 202 200 198 198 198 195 193 193 192 190 184 175 172 154 153 148 141 144 170 176 189 173 127 130 155 174 175 170 69 89 90 106 119 127 138 149 154 164 166 171 176 177 175 173 172 173 172 163 139 119 120 121 134 161 189 207 212 211 211 214 215 216 215 214 211 206 203 202 201 199 201 205 198 187 186 191 199 200 199 200 202 204 206 206 207 208 206 206 206 206 205 201 202 204 201 196 195 194 192 192 194 192 182 175 177 157 146 147 156 164 170 172 180 157 139 86 81 102 114 147 75 93 86 103 117 126 135 146 155 163 165 171 177 175 174 174 173 170 168 155 129 121 121 122 145 172 194 207 210 210 209 212 215 216 214 213 210 208 204 203 201 198 200 206 205 194 185 184 191 192 193 198 200 202 204 205 202 205 205 203 204 206 206 200 202 205 201 197 194 192 190 193 193 193 184 177 176 162 146 161 176 170 168 173 169 170 152 80 60 60 82 156 68 91 83 92 110 122 137 147 157 163 166 168 171 174 174 172 173 173 166 145 123 128 123 133 166 182 193 206 209 209 211 211 213 213 213 211 210 208 206 203 199 195 195 203 206 199 194 184 184 188 190 193 196 199 200 200 197 199 201 203 204 203 204 203 205 204 198 195 195 193 194 195 188 186 187 180 175 163 147 166 179 180 174 173 173 184 154 75 63 61 91 168 65 77 73 86 105 121 139 146 154 160 164 165 165 171 171 169 170 170 158 132 114 128 122 149 176 179 190 208 215 212 213 212 213 216 216 212 210 204 202 199 195 193 190 196 202 201 200 189 178 184 189 191 193 196 198 199 198 199 200 201 201 199 200 204 205 200 195 195 196 196 197 194 185 187 190 180 171 152 154 173 173 182 176 171 180 193 153 70 64 61 106 191 65 65 72 81 101 114 134 145 149 156 157 161 167 168 168 171 171 164 146 121 108 114 127 160 175 176 179 200 221 220 217 216 213 211 207 203 199 191 191 192 190 189 188 193 200 201 199 196 181 178 186 189 193 195 199 198 199 200 200 199 200 198 198 199 201 201 199 197 195 197 193 190 187 189 195 177 168 161 171 182 180 185 175 176 186 192 149 66 64 60 100 186 62 66 67 79 100 107 128 143 146 153 157 158 164 166 167 169 169 155 135 117 98 99 123 157 167 167 163 174 203 216 217 207 196 193 186 163 143 150 166 175 179 178 183 196 202 205 202 199 190 179 183 188 192 196 199 199 198 198 201 200 198 197 195 192 196 200 201 198 195 195 189 186 187 187 192 177 170 168 175 192 187 181 183 183 192 199 146 66 62 60 79 155 62 67 65 82 100 104 122 139 144 150 156 158 163 167 168 166 162 147 127 117 94 75 97 137 155 157 151 146 170 192 187 179 171 159 125 75 53 74 112 139 155 170 187 199 201 203 203 200 197 187 181 184 191 195 199 202 201 199 197 198 196 195 189 188 190 192 198 198 195 190 185 182 184 187 188 181 175 168 176 194 184 169 189 187 189 196 141 62 64 63 65 116 65 65 67 78 97 105 117 133 140 145 150 149 150 161 163 162 155 144 124 107 95 74 59 91 124 137 138 126 130 154 165 159 143 134 122 125 132 119 130 147 176 187 195 203 202 200 203 202 201 195 185 181 183 190 196 201 202 198 197 194 193 192 190 185 180 185 193 195 192 189 185 181 179 187 184 176 174 172 176 188 178 167 184 178 178 188 129 62 66 66 62 79 64 66 66 76 102 103 111 126 139 144 145 143 148 160 160 158 152 139 120 111 99 78 51 44 67 100 110 111 109 126 132 121 122 136 137 138 148 159 157 168 200 194 193 203 205 202 204 203 202 198 194 184 176 179 188 194 199 200 199 192 186 188 190 189 180 183 192 191 188 189 189 180 177 188 178 174 180 180 177 180 173 174 184 180 181 187 116 62 67 66 65 66 64 65 64 80 104 103 106 121 135 142 142 147 157 161 160 156 147 134 118 109 90 64 52 54 56 62 75 67 73 87 81 85 107 129 146 129 132 147 153 162 181 191 196 204 205 204 203 202 201 199 199 195 185 178 178 185 192 198 200 196 188 187 188 190 184 187 192 194 190 185 185 182 183 187 176 179 183 182 179 177 167 174 182 181 187 187 106 62 67 65 66 67 65 63 66 84 95 103 105 115 127 136 137 145 156 159 153 143 134 125 113 98 76 65 58 48 63 89 81 66 71 81 87 94 124 122 131 127 128 128 147 178 191 196 200 197 201 204 203 201 199 194 189 188 188 183 178 180 187 192 195 197 195 192 191 193 187 183 192 195 190 178 174 180 185 185 176 183 183 177 178 181 161 171 183 189 197 180 88 55 65 66 66 66 67 64 64 82 96 103 106 111 122 129 131 145 157 151 140 134 125 117 102 83 83 80 54 55 88 90 88 88 91 98 97 100 124 123 125 137 120 135 143 162 168 190 195 193 195 200 199 196 190 186 181 175 174 180 186 183 184 188 191 196 198 195 193 190 182 178 188 192 189 173 169 179 179 185 179 179 181 180 181 179 170 166 186 193 197 184 148 97 66 57 61 68 66 67 67 82 94 102 107 109 121 127 130 143 151 139 122 114 108 101 88 77 83 80 62 102 110 83 95 110 104 93 104 122 99 119 127 111 114 141 142 145 149 177 181 185 192 190 188 188 185 175 174 167 151 162 180 179 176 184 191 195 197 194 187 184 172 176 187 188 184 172 167 172 168 178 180 179 181 190 189 172 164 169 190 196 187 200 233 221 184 132 83 61 66 67 67 81 91 101 101 105 120 124 127 137 128 116 88 92 90 87 91 89 86 102 89 145 122 102 88 111 97 91 104 103 114 110 122 132 120 123 133 131 137 157 164 174 181 184 181 174 174 158 161 162 151 154 167 156 156 179 182 191 195 191 187 177 163 170 183 181 181 181 179 167 169 177 176 177 183 189 188 167 154 168 189 196 187 207 237 237 238 235 211 165 67 66 62 77 94 98 93 104 116 120 122 129 122 95 78 87 80 97 117 108 104 87 89 91 127 97 85 94 110 110 79 92 108 91 118 124 115 135 121 123 133 145 136 161 172 177 176 157 153 148 148 152 146 140 147 162 149 161 174 191 191 186 186 173 158 174 185 177 181 184 180 173 180 177 174 180 190 186 182 167 152 157 179 192 192 211 237 240 239 240 242 242 66 65 63 74 84 90 95 100 111 112 112 119 105 82 86 79 95 102 95 100 84 84 79 76 100 86 91 87 101 105 86 89 86 90 107 104 125 132 110 128 137 134 124 142 159 158 160 147 128 136 138 131 134 130 135 144 142 143 167 193 188 181 172 162 153 178 188 181 178 184 173 169 182 181 176 184 193 188 170 172 163 158 178 190 188 193 213 228 236 240 243 245 66 66 68 67 76 86 98 97 101 101 105 114 99 88 86 78 97 88 82 87 84 80 88 88 80 75 101 109 102 107 101 102 102 94 95 115 141 121 109 121 131 124 119 141 148 140 145 147 131 123 122 111 121 122 128 128 144 134 156 187 183 171 161 152 161 178 182 182 180 184 166 165 176 179 176 191 193 190 176 179 174 178 193 190 185 176 179 188 206 221 234 242 64 65 63 66 83 82 98 98 95 96 101 106 108 88 81 69 85 83 77 85 82 78 93 93 84 95 95 106 110 128 116 106 101 114 119 134 146 122 124 124 127 135 131 146 151 137 151 145 142 118 94 103 110 98 87 102 128 145 168 185 180 162 165 159 170 175 174 180 181 181 172 169 171 174 185 198 190 188 190 187 173 191 199 190 186 179 177 176 176 179 194 215 62 63 61 62 77 77 94 95 91 97 94 99 93 78 88 73 61 64 65 68 66 72 78 93 93 96 89 91 96 114 124 120 96 105 107 117 129 113 113 118 121 135 140 145 142 134 134 119 111 102 95 91 102 94 94 101 117 157 179 182 177 158 164 160 170 181 173 175 178 176 178 179 171 171 191 188 179 186 196 183 184 204 190 189 184 177 176 178 175 167 167 174 62 62 61 61 63 66 89 90 84 91 87 90 86 86 85 83 82 82 61 57 52 47 53 57 64 66 61 61 65 70 83 91 89 79 70 80 86 81 80 94 98 107 122 117 115 107 109 115 130 136 138 118 109 104 103 112 133 162 189 180 155 147 145 150 170 173 176 176 177 173 175 183 170 170 185 176 171 188 192 181 195 202 191 191 184 172 175 178 173 165 166 170 62 60 60 62 61 65 79 90 84 77 80 84 89 105 91 92 88 79 88 87 80 65 70 84 96 95 91 92 93 91 93 92 94 90 81 81 85 84 86 109 117 120 134 136 146 154 169 178 187 182 175 159 144 122 111 119 143 174 190 173 135 144 145 147 169 164 175 181 171 172 181 180 167 162 171 170 180 183 184 180 199 199 185 186 182 168 174 177 168 160 165 179 58 59 59 59 65 75 73 87 82 74 81 90 92 112 111 98 103 110 97 95 102 92 95 106 114 124 128 138 141 141 140 134 132 124 128 137 152 155 157 169 170 172 173 180 187 194 198 193 190 188 183 174 160 141 122 117 142 179 183 158 125 136 146 141 163 169 171 174 163 169 179 184 171 170 172 176 184 186 186 186 196 189 175 167 184 186 152 164 168 165 172 182 59 59 59 62 70 79 77 82 78 76 95 84 89 105 102 96 108 107 104 106 118 121 114 119 121 125 128 139 142 147 145 146 151 147 153 158 171 182 187 187 190 187 188 191 194 196 192 191 192 190 186 177 163 142 130 125 142 172 173 151 129 128 143 138 148 161 176 172 172 158 181 192 174 170 164 177 183 178 182 194 186 176 176 172 186 219 189 113 133 162 175 180 59 59 59 64 62 72 76 76 89 92 79 76 96 85 94 91 106 123 125 111 119 125 133 138 139 139 140 150 150 153 148 153 159 164 171 166 179 183 190 194 188 184 181 182 186 187 183 180 177 183 188 181 168 150 139 126 140 170 159 140 119 135 147 137 155 157 178 166 162 158 184 192 165 169 176 171 177 174 174 182 168 170 182 181 169 193 229 172 63 90 123 153 59 61 59 59 61 67 65 69 71 73 67 77 85 76 84 74 94 113 126 112 106 108 126 137 141 138 135 141 147 145 147 144 137 151 154 147 154 156 170 172 168 173 177 184 186 187 181 175 175 180 185 184 174 160 150 138 150 163 142 124 124 151 150 144 172 172 167 154 161 159 172 189 161 177 175 170 166 170 172 169 149 159 183 188 148 152 203 234 137 47 63 79 60 60 59 59 60 57 58 66 67 69 70 67 70 74 71 71 93 105 119 114 103 101 117 128 117 119 124 135 135 132 129 128 115 131 140 135 141 137 143 150 154 155 160 170 180 177 174 178 183 183 181 178 162 159 152 144 141 139 130 118 128 140 148 158 175 168 155 164 171 160 169 172 164 166 173 166 146 164 170 161 150 165 181 184 138 121 169 216 219 82 55 59 61 61 59 59 58 56 60 67 69 70 70 66 62 60 64 69 79 101 118 110 107 106 106 100 100 123 113 114 130 130 118 111 114 126 140 143 142 126 128 142 155 163 168 169 173 174 181 187 186 190 182 177 155 143 150 135 129 140 140 135 137 149 149 166 189 170 153 161 172 163 171 157 162 163 164 144 132 150 151 159 147 171 190 185 133 110 138 195 241 142 51 63 61 62 61 58 58 59 64 65 64 69 66 62 65 54 59 67 78 111 130 109 108 102 91 92 105 106 108 120 118 117 108 114 108 115 151 139 135 126 122 139 158 164 169 176 183 183 189 187 184 187 181 173 163 144 147 140 143 145 138 127 133 151 155 166 181 165 148 156 175 163 166 161 156 148 149 132 137 131 138 144 151 176 194 182 128 107 124 180 241 170 49 64 61 61 61 59 59 58 60 66 62 55 56 58 58 50 54 63 91 122 114 108 99 96 95 97 100 91 109 130 124 129 118 131 112 110 154 140 124 130 124 145 160 165 171 182 188 179 185 188 186 178 170 165 162 143 134 140 152 147 128 130 130 147 157 157 168 169 156 157 178 168 160 160 159 147 146 121 122 126 126 150 174 190 196 182 133 109 122 183 245 204 90 54 60 61 60 61 59 59 58 64 75 54 53 48 51 55 54 59 84 112 105 101 99 107 106 100 91 97 124 124 124 124 116 134 129 138 119 130 126 142 142 162 166 164 169 173 188 186 181 186 184 167 157 161 175 154 124 129 155 155 144 147 145 146 149 153 172 166 140 159 189 162 154 156 151 143 122 126 108 116 151 175 190 193 199 181 133 106 126 215 248 235 227 163 59 59 59 59 59 58 59 60 73 57 55 53 51 51 51 56 94 94 83 99 117 118 116 105 98 120 122 110 108 125 117 120 120 118 109 128 134 135 145 158 160 177 179 180 181 188 187 183 182 177 158 153 161 174 168 136 135 158 155 155 151 156 163 148 168 166 144 173 190 146 134 143 136 135 117 128 143 148 168 180 190 195 200 179 128 99 171 247 246 236 242 255
59 59 58 59 59 58 58 61 61 64 83 60 46 47 48 68 85 67 88 107 120 113 110 112 120 124 126 113 112 128 121 109 100 101 113 142 144 145 140 158 174 187 181 182 186 187 178 170 170 177 166 148 148 170 176 156 119 141 160 158 149 152 171 152 153 155 159 171 180 139 116 134 144 104 100 130 148 163 178 189 194 195 200 174 112 143 240 252 246 238 147 151 59 57 58 59 59 58 58 60 68 83 83 55 47 46 50 54 75 79 99 106 107 112 119 126 134 131 130 122 135 136 119 112 136 109 107 134 142 155 154 171 172 186 184 181 177 175 168 170 155 141 150 127 136 157 140 138 133 132 143 149 148 139 157 162 141 155 151 157 158 130 129 124 112 100 121 149 160 178 192 196 196 198 204 162 117 224 253 248 246 252 153 31 58 58 59 58 57 56 57 58 71 73 72 63 41 43 48 55 63 81 96 91 92 102 118 127 131 128 129 119 112 121 111 123 131 115 99 136 156 154 166 179 177 182 186 179 169 167 172 173 152 121 121 125 150 178 156 139 125 123 124 128 133 138 144 150 153 141 140 143 133 133 119 93 124 145 151 162 170 184 198 197 196 201 199 146 194 254 248 248 248 251 209 52 57 57 57 57 56 56 55 55 56 58 62 70 65 47 44 63 57 67 76 75 103 118 116 121 135 129 119 112 126 123 113 122 129 113 122 146 170 167 171 173 160 173 179 178 177 170 172 171 155 138 128 127 142 180 172 163 120 120 143 121 122 127 136 146 158 165 132 122 121 133 112 146 159 155 167 178 188 196 199 198 197 201 176 185 252 249 248 248 248 251 240 82 58 56 56 55 56 56 54 56 56 57 55 67 118 85 50 55 56 59 60 79 93 91 108 132 124 113 111 116 139 129 131 146 138 122 153 161 168 173 177 173 152 147 150 157 163 167 161 156 162 155 132 124 116 144 146 151 131 118 143 130 122 108 118 133 134 158 134 131 115 120 129 144 160 171 180 190 196 200 199 198 198 184 186 245 251 248 248 248 248 250 251 126 58 56 56 56 55 55 56 56 57 56 50 85 147 151 77 49 51 50 55 73 77 88 115 127 127 116 110 131 154 143 156 150 127 130 154 167 173 170 176 174 170 162 148 154 149 159 167 160 148 149 136 120 120 134 134 135 121 117 119 124 118 112 102 122 128 147 133 107 122 130 134 156 173 183 188 195 196 196 199 199 191 192 242 251 247 248 248 249 248 247 251 159 56 56 56 56 55 57 57 56 57 57 55 130 179 174 130 54 44 41 51 74 87 112 92 120 136 125 114 136 149 139 137 126 133 149 150 152 143 154 171 168 171 168 143 145 145 148 158 165 155 133 120 117 122 132 140 136 121 116 109 108 108 102 98 108 108 125 115 122 152 163 171 185 183 184 190 194 195 198 204 195 199 243 252 247 248 249 248 247 248 248 251 184 55 54 56 56 56 56 56 57 57 52 71 162 180 170 170 89 43 39 60 93 107 89 114 138 123 103 101 125 127 127 128 122 134 144 139 136 136 161 155 151 160 151 137 138 148 155 141 161 143 133 110 119 123 138 116 112 119 109 86 82 80 76 89 100 115 107 128 152 168 181 184 189 193 197 199 200 201 203 197 208 245 251 248 249 248 248 247 247 247 247 248 204 55 56 56 54 55 56 55 56 55 48 107 184 180 182 159 132 79 34 55 88 84 72 126 115 99 88 105 127 116 128 136 140 128 132 139 139 136 159 134 139 140 146 126 133 159 165 136 144 125 126 119 118 120 96 75 92 88 101 70 70 75 79 97 119 113 118 124 144 166 170 171 180 191 192 195 200 200 195 214 248 250 247 248 248 248 248 247 247 247 248 247 222 55 55 54 53 52 54 55 55 52 57 127 150 116 90 64 52 47 40 43 71 98 118 120 107 92 96 112 116 118 126 139 144 136 136 131 132 133 152 127 126 122 131 118 131 158 164 127 121 115 126 126 109 111 104 88 84 86 90 66 56 68 94 119 144 152 153 148 158 157 159 171 179 186 190 197 198 193 218 249 250 247 248 248 248 248 248 247 247 247 248 246 230 55 55 55 55 51 48 51 50 46 44 45 33 25 22 25 27 36 43 32 56 105 122 119 111 95 98 101 104 117 125 135 132 124 120 110 136 148 137 132 128 121 104 98 117 138 152 124 123 133 116 91 98 97 87 82 73 91 97 82 74 97 134 133 140 148 151 157 157 161 167 179 186 194 199 196 196 225 252 249 248 248 248 249 248 248 248 247 248 247 248 246 234 54 52 49 48 45 41 40 38 37 34 32 32 31 31 29 28 43 37 27 35 77 111 122 97 85 100 96 105 124 115 122 125 121 127 102 130 117 132 131 137 113 97 97 110 112 134 137 152 136 103 78 71 83 90 62 68 93 99 91 111 126 122 130 141 151 166 165 173 182 186 194 197 200 193 204 239 251 249 248 248 248 247 247 247 247 247 247 247 247 249 248 233 45 41 39 39 40 38 37 35 33 32 32 32 32 29 30 32 39 27 22 28 88 87 102 102 108 107 94 114 130 104 112 120 118 106 101 103 120 127 113 126 113 112 88 96 77 110 146 146 118 79 73 63 58 67 79 101 124 115 118 130 115 120 138 150 160 176 183 186 193 193 197 195 194 213 246 251 248 248 248 248 249 247 247 247 247 247 247 247 247 248 248 226 38 37 36 35 34 34 33 33 32 32 32 33 32 32 32 32 30 24 20 33 53 70 100 101 100 125 99 121 102 112 118 121 99 102 90 93 135 112 96 101 111 128 70 77 76 99 133 139 94 57 63 68 77 83 108 132 138 145 141 137 149 156 153 161 173 178 178 192 194 195 192 197 226 251 250 248 248 248 248 248 248 247 247 247 247 247 247 247 248 249 247 208 36 35 33 33 32 32 32 32 33 32 32 32 32 33 33 29 26 22 20 35 54 97 84 97 92 109 99 123 97 93 95 117 81 92 97 99 119 113 109 95 104 132 84 75 80 89 99 131 79 63 82 89 101 105 122 138 155 155 147 146 160 167 165 169 172 170 180 195 192 188 208 240 251 248 247 248 248 248 248 248 248 248 248 247 247 247 247 247 248 248 236 157 32 32 32 32 32 32 32 32 32 32 32 32 32 34 32 28 26 25 21 21 76 122 96 96 85 99 117 89 75 88 79 93 72 66 95 91 91 113 112 85 88 117 122 75 84 103 91 102 107 110 118 129 138 135 131 146 156 155 145 146 152 159 171 175 169 180 189 187 189 219 248 250 247 248 248 248 248 248 248 248 248 248 248 248 247 246 247 248 248 241 191 87 33 32 33 31 31 33 31 30 31 31 32 32 33 32 30 28 25 24 19 20 92 126 108 78 74 86 93 85 85 89 93 98 64 75 89 94 72 79 103 98 75 113 125 92 85 90 90 112 103 124 147 157 151 147 155 153 150 153 151 158 168 175 181 182 185 187 182 203 236 252 249 247 247 246 248 247 248 248 248 249 248 248 248 248 247 247 247 248 245 209 104 59 33 32 32 31 31 33 31 31 31 30 31 32 32 29 27 26 26 25 19 36 110 118 105 81 91 99 87 83 103 104 94 104 80 81 77 113 98 76 100 135 116 105 102 94 87 80 83 108 103 123 142 151 156 150 153 162 164 156 163 173 181 183 183 185 183 191 222 247 251 248 247 247 247 247 247 247 247 248 248 248 248 248 248 247 247 246 248 246 225 126 57 65 32 32 31 32 32 31 32 30 30 31 31 31 29 27 26 26 27 24 20 66 129 129 121 88 98 97 75 80 83 120 112 90 75 84 90 105 118 110 113 122 127 94 90 106 109 116 115 120 127 130 134 135 145 154 159 165 171 168 177 180 181 184 183 183 206 240 251 249 247 248 248 248 248 247 247 247 248 247 247 247 247 248 248 247 247 248 247 231 156 67 63 65
