P2
# Generated by OpenCV 4.2.0
92 112
255
21 14 10 17 24 18 23 34 12 8 21 24 20 12 36 53 39 48 39 25 29 23 17 15 16 16 17 18 20 23 21 39 23 25 47 23 80 76 30 37 30 26 27 22 30 33 44 28 43 46 40 72 55 88 98 120 123 100 134 152 155 142 143 147 147 142 139 151 123 129 95 71 60 34 31 46 47 75 49 35 34 39 44 33 31 40 42 30 34 28 34 26 17 19 22 21 20 21 21 37 49 63 48 43 19 59 49 22 19 15 35 31 23 34 30 26 19 18 20 20 27 30 29 44 37 39 54 59 117 109 50 54 44 35 28 28 35 37 45 40 56 60 51 90 81 97 127 151 159 134 156 161 169 161 157 160 161 159 157 163 155 138 97 79 50 38 29 34 73 80 51 31 34 29 27 36 37 23 27 39 29 27 31 37 18 20 13 15 24 29 48 65 44 34 16 25 51 36 15 20 19 23 18 25 40 24 24 32 27 24 25 25 23 37 45 58 62 50 46 97 131 94 64 69 44 44 37 38 50 41 56 70 73 98 79 107 113 128 150 160 162 169 169 171 173 173 171 169 164 169 173 169 148 153 118 105 90 65 46 32 5 49 52 42 32 30 25 28 39 31 29 22 36 35 30 23 15 16 14 25 45 47 28 5 21 20 46 60 83 56 35 24 24 24 21 16 22 28 16 22 21 25 30 29 33 32 41 67 99 94 48 106 137 101 70 73 46 36 41 62 88 72 71 81 91 114 99 136 151 158 171 178 180 175 172 177 174 175 174 171 167 166 175 166 150 140 138 136 78 67 81 62 32 27 33 45 29 26 31 26 27 34 32 28 19 31 35 23 17 19 25 27 22 14 17 34 41 61 57 20 34 33 27 22 18 22 18 27 26 19 24 25 21 20 27 28 50 69 47 42 61 151 91 150 128 107 82 76 68 55 46 81 88 104 99 112 130 142 145 157 172 173 179 175 177 185 170 174 175 174 173 173 173 175 171 171 141 165 136 146 128 93 84 69 104 8 32 42 38 32 31 32 24 27 26 23 27 28 36 32 22 24 20 18 18 31 29 22 38 45 23 19 24 19 19 15 18 23 23 24 27 31 28 32 27 27 30 32 30 47 79 77 88 167 130 149 127 111 110 101 103 74 81 124 125 131 128 125 133 153 150 165 182 179 188 189 165 172 176 177 176 173 171 172 172 172 176 161 158 125 164 150 124 116 96 68 63 115 26 39 27 35 26 25 26 19 27 28 29 29 29 34 23 19 17 19 25 23 23 27 48 27 15 22 23 28 28 34 36 39 30 45 41 45 37 37 38 44 43 44 49 50 78 118 124 151 161 179 181 193 167 166 162 131 129 154 160 156 163 162 163 167 167 170 173 170 180 187 176 175 178 172 178 173 170 172 171 184 173 154 132 159 156 152 140 116 108 97 46 76 86 27 26 31 29 25 30 27 19 30 23 27 33 28 19 16 21 18 25 24 25 27 21 14 25 30 27 35 38 44 44 47 56 69 64 63 58 50 41 43 50 87 76 86 89 82 160 150 164 192 190 205 206 202 202 187 177 177 185 183 180 179 172 177 180 179 178 180 180 186 184 176 179 173 173 172 164 170 173 172 168 141 177 167 159 166 129 104 108 126 106 49 68 54 32 26 27 21 28 30 24 21 23 25 31 30 15 16 16 18 20 24 17 25 22 20 22 26 35 33 42 49 62 79 84 80 88 89 119 88 67 92 83 52 77 86 102 150 143 184 176 178 207 208 206 204 206 203 190 185 190 189 195 176 184 185 190 183 182 187 182 181 182 176 183 174 166 171 169 168 168 166 132 169 160 164 160 145 157 135 94 69 70 81 49 62 40 25 26 26 25 27 29 29 26 18 26 33 12 17 17 17 17 21 20 22 22 25 35 36 32 48 58 82 95 113 122 125 126 121 146 153 117 114 112 131 121 138 135 152 173 184 206 213 209 207 208 207 203 208 206 201 199 200 194 184 190 181 193 188 185 185 182 178 176 173 179 179 173 168 170 166 175 139 161 171 150 140 137 141 143 142 107 95 59 63 64 56 39 26 25 24 21 22 27 28 25 21 23 24 12 17 15 21 15 19 20 19 23 38 36 36 48 60 78 109 121 138 143 149 150 151 157 180 151 153 159 160 168 172 159 173 197 201 210 209 213 209 204 204 205 204 205 206 209 208 205 194 194 191 188 185 185 183 180 178 176 173 173 184 173 171 169 169 166 131 165 153 149 146 139 128 124 130 116 105 70 58 67 72 51 36 27 16 18 20 20 25 24 28 22 18 13 14 16 25 13 19 20 17 34 42 34 48 58 81 98 123 136 148 155 160 165 170 173 183 178 174 181 179 184 183 186 182 202 206 217 206 210 206 203 203 207 205 200 201 205 206 205 204 201 198 193 191 186 184 184 175 180 179 175 176 169 164 165 165 152 172 166 152 145 137 143 141 109 91 89 83 84 51 37 40 73 60 34 30 22 19 21 17 20 30 30 18 12 15 18 21 15 21 21 19 39 41 44 56 73 108 124 138 154 156 162 169 176 182 179 185 193 185 185 182 188 190 199 176 203 203 205 217 212 210 208 204 201 201 205 205 206 203 203 205 201 197 194 195 188 185 188 182 179 181 171 177 165 163 168 169 148 162 151 157 146 133 103 128 141 108 65 47 71 60 33 24 26 36 28 22 25 22 17 16 19 27 32 28 16 16 18 22 15 23 20 35 41 53 45 66 98 124 132 139 161 159 166 175 179 180 182 185 183 190 181 188 188 191 200 196 199 201 210 212 209 208 209 207 206 213 200 204 207 211 208 201 200 201 197 192 187 180 178 180 179 181 176 172 162 159 164 165 166 159 152 146 141 139 130 107 87 84 79 54 42 42 52 31 21 21 24 24 26 26 21 22 19 20 23 24 15 17 18 20 16 24 24 43 44 54 53 80 118 132 138 152 164 160 166 177 181 183 181 183 184 185 176 190 191 198 202 202 194 203 210 209 214 211 210 207 206 212 204 206 208 210 210 209 205 201 199 193 191 188 182 186 181 180 171 167 161 163 165 167 157 153 151 142 135 109 106 120 115 100 70 46 36 31 34 47 34 21 15 10 13 17 20 21 18 19 19 21 16 16 19 20 17 21 30 47 46 60 72 93 126 135 140 152 159 167 172 179 181 178 182 179 184 180 182 191 195 202 201 196 196 203 204 210 210 213 214 212 208 212 211 213 210 211 212 210 211 208 203 198 193 190 186 187 181 181 182 172 158 165 166 161 163 152 140 132 148 123 121 106 85 59 58 63 49 33 27 29 34 19 20 19 17 15 14 15 15 18 22 15 18 16 18 20 16 20 32 45 50 69 92 103 128 137 141 154 163 169 174 179 179 181 182 183 188 188 187 186 194 199 192 196 196 199 203 213 208 207 209 208 203 207 208 215 217 212 213 209 211 210 204 197 193 188 186 183 178 176 180 175 162 161 155 155 159 146 135 137 134 128 129 107 88 53 37 37 43 41 36 21 16 34 24 21 19 17 15 14 14 15 18 20 17 15 15 20 17 24 34 42 56 77 103 102 133 140 146 156 159 168 176 179 183 183 185 183 188 192 192 187 203 195 209 199 196 198 199 197 203 205 201 200 194 199 204 201 204 211 213 208 211 207 207 197 189 190 188 185 179 175 178 172 163 162 156 156 156 147 133 113 109 113 96 81 87 61 41 32 30 28 26 29 23 18 25 19 16 18 17 17 14 13 13 21 19 17 15 20 16 25 36 45 62 87 104 108 135 143 147 152 156 166 177 178 182 178 185 180 185 187 189 188 194 194 210 208 203 204 208 209 206 207 207 206 207 207 215 213 214 212 215 213 216 214 206 197 191 189 186 182 181 177 174 169 161 157 158 158 154 144 130 116 118 113 80 56 66 54 46 29 27 24 24 17 17 19 23 24 19 16 18 20 19 17 15 17 19 19 13 22 20 30 38 53 63 103 111 105 134 147 149 151 159 164 172 175 174 168 178 183 190 191 189 201 197 200 200 199 201 204 205 199 200 204 204 202 202 205 213 215 209 206 211 213 217 210 209 203 191 185 183 182 184 180 172 172 158 152 155 154 147 136 118 108 111 109 96 74 43 39 40 35 29 23 20 19 19 16 18 23 26 19 16 18 18 17 16 15 18 19 18 27 22 28 32 45 72 106 105 99 133 149 150 150 162 163 167 172 173 178 180 180 183 188 180 200 191 193 192 193 199 202 203 202 204 207 205 206 208 206 212 211 205 203 207 209 211 202 203 192 183 176 175 176 180 179 169 164 157 151 155 153 149 140 123 114 118 121 93 71 66 38 32 28 18 19 18 16 14 15 16 19 23 24 17 17 20 21 20 13 18 20 21 19 18 30 40 39 69 107 113 109 131 146 150 148 156 161 164 171 173 178 177 176 180 188 186 192 184 182 202 197 186 195 186 201 199 197 203 198 202 202 206 196 205 206 206 207 208 199 198 187 183 172 171 177 177 171 164 163 162 156 153 157 148 137 127 131 118 113 81 64 52 44 38 37 32 26 21 22 18 17 14 15 19 22 25 24 20 17 18 16 21 26 19 15 22 33 35 42 62 107 111 100 118 145 144 144 152 157 165 172 174 176 175 177 185 190 195 193 190 185 189 190 185 200 190 197 199 199 197 198 203 204 204 196 201 204 205 210 208 193 189 178 178 174 173 169 163 174 171 167 164 159 152 159 151 136 132 132 125 112 82 56 43 43 30 26 27 26 25 26 18 18 16 15 17 19 22 23 23 23 19 16 19 21 16 20 20 25 40 51 64 99 117 108 127 148 152 149 152 164 171 169 166 170 174 175 180 186 191 193 198 197 201 190 175 179 186 184 197 197 200 198 193 191 197 202 203 210 205 202 195 188 183 174 173 173 164 166 162 175 171 160 158 160 155 153 146 139 130 134 136 116 102 82 53 52 47 42 30 32 34 25 19 16 17 16 15 17 21 23 22 23 20 18 19 17 21 20 19 29 45 63 66 92 117 114 118 141 143 130 143 152 162 166 165 172 165 175 178 184 188 194 183 188 198 188 188 184 197 186 194 199 208 202 200 198 200 204 204 199 199 198 195 194 182 181 179 179 173 178 173 172 175 165 161 153 154 148 142 139 125 135 127 116 110 87 57 44 40 40 33 27 19 16 14 18 17 15 16 16 15 21 25 23 24 23 21 18 18 19 24 33 36 60 71 89 111 117 118 140 154 148 148 153 160 166 165 171 169 174 177 186 186 179 185 181 187 187 195 185 178 178 181 192 187 189 186 189 190 192 194 198 204 199 196 187 177 177 178 178 181 181 180 170 173 163 168 161 155 146 139 135 131 129 122 120 111 98 78 65 44 31 26 25 21 20 18 19 19 16 14 17 14 17 21 19 23 22 23 20 13 30 25 27 25 54 77 87 111 114 125 138 148 145 147 155 160 163 166 167 171 174 178 190 196 194 191 188 196 200 194 198 199 203 200 205 207 202 202 208 212 212 210 205 198 190 190 185 180 180 183 180 183 184 182 177 174 167 166 154 147 136 141 137 138 136 131 129 111 94 73 53 37 31 29 28 24 19 15 15 18 18 18 19 18 16 18 19 34 43 18 17 20 25 25 23 28 59 86 84 109 106 119 124 145 154 144 149 156 167 171 166 171 172 185 188 190 190 188 192 192 188 193 201 189 189 197 202 210 211 210 207 205 201 200 199 196 200 191 190 190 186 189 186 188 192 184 177 171 164 161 152 142 124 133 132 134 138 130 124 113 96 76 52 51 46 46 45 35 26 19 17 18 20 20 21 25 21 19 19 21 32 13 18 23 18 27 24 30 57 80 83 103 110 124 137 150 154 156 159 166 172 168 168 177 173 187 194 200 200 197 196 202 205 198 196 200 200 200 202 205 207 201 197 210 208 200 194 190 201 195 189 193 194 189 193 192 189 188 182 178 170 155 144 144 131 136 140 142 144 130 118 110 94 78 59 51 57 67 75 50 28 27 19 18 17 22 19 27 23 18 18 19 43 16 19 21 19 26 23 24 55 82 88 100 105 118 135 150 149 151 160 165 166 167 170 170 178 179 191 201 203 201 199 201 202 201 198 198 199 200 203 207 204 203 205 208 202 204 199 193 201 197 189 193 193 190 195 196 190 190 181 172 168 157 151 155 137 144 139 151 145 129 116 106 92 81 64 59 69 80 87 69 41 33 24 17 20 24 26 26 31 25 21 19 39 20 17 23 21 18 19 22 54 81 89 105 111 116 131 150 155 153 158 169 174 172 174 171 181 185 186 205 203 199 198 201 203 199 194 195 195 203 199 204 200 205 208 204 206 198 201 202 200 198 196 195 195 196 199 197 192 188 177 172 167 160 165 163 157 154 153 150 138 127 115 98 87 74 64 69 71 93 98 93 69 46 29 23 14 23 25 24 22 21 18 21 30 19 19 20 21 16 20 26 56 77 87 100 112 114 128 147 155 164 167 163 171 174 176 176 184 191 186 204 197 198 197 203 205 201 198 189 200 199 203 205 210 207 211 210 199 198 201 195 202 201 201 200 198 197 198 200 195 190 183 182 174 171 173 172 175 168 159 144 142 135 117 99 81 66 67 66 85 102 109 113 88 56 65 26 35 10 20 27 26 25 22 21 24 23 17 19 18 16 16 22 56 69 85 107 116 116 128 154 159 163 170 169 171 176 180 176 183 184 183 193 202 195 202 206 205 203 203 200 197 197 196 204 213 216 211 199 194 198 200 215 212 205 198 200 205 201 197 198 196 190 185 181 175 176 175 178 176 166 157 157 146 140 122 108 92 73 69 72 92 111 116 113 93 98 59 54 28 37 15 22 21 24 21 22 26 20 15 20 20 16 16 25 70 72 84 111 124 137 146 161 169 165 166 170 169 176 180 177 178 176 184 195 203 203 206 210 202 203 196 200 187 187 200 207 206 195 192 197 205 211 212 210 207 204 202 203 202 198 196 195 191 185 184 176 176 178 174 178 171 167 170 170 164 141 126 109 102 77 67 80 104 120 124 123 105 95 85 61 60 39 52 25 23 28 25 30 46 24 17 22 22 19 15 32 79 75 99 118 125 149 155 167 175 172 175 177 176 180 179 179 174 179 182 194 197 203 211 211 198 202 198 201 194 175 192 194 189 199 204 202 206 199 212 208 208 201 199 191 190 201 187 195 184 181 170 168 152 154 163 163 168 164 162 156 151 137 133 112 110 83 72 90 112 122 117 115 109 91 121 107 38 77 42 43 28 25 28 39 72 22 14 30 25 21 16 42 81 81 117 129 136 157 158 171 175 171 170 172 175 180 186 188 176 174 180 187 189 193 204 197 192 203 199 197 197 175 173 194 193 195 185 192 202 198 196 197 187 192 183 181 189 171 180 177 166 153 152 125 109 116 125 144 123 120 115 116 131 137 114 111 102 82 82 92 110 123 126 121 116 112 116 94 89 59 42 54 25 35 44 46 89 52 18 21 24 20 15 38 85 100 125 132 144 158 162 161 171 167 168 169 177 177 178 179 176 179 184 184 184 184 192 191 190 193 193 194 192 175 176 177 180 178 183 182 187 176 148 166 140 122 113 112 102 106 134 140 125 113 106 91 103 92 80 102 116 110 78 69 74 84 83 90 101 87 98 112 117 133 130 111 122 102 137 119 95 35 40 28 50 34 60 91 121 59 27 29 25 22 16 30 91 113 117 102 111 121 136 149 155 159 165 161 172 174 172 170 164 172 175 177 179 177 176 177 185 188 190 191 188 180 169 167 171 168 162 168 169 166 91 120 72 52 50 66 90 66 55 87 101 80 72 101 97 98 71 70 69 74 72 77 58 54 66 74 72 75 97 118 122 121 123 122 118 89 98 112 119 82 43 35 30 33 67 106 99 63 36 31 28 22 14 49 101 81 63 79 96 109 102 108 109 121 132 141 149 148 162 156 161 157 160 162 167 173 175 169 174 179 182 181 176 173 170 169 154 145 151 138 105 144 96 65 64 45 42 42 59 57 62 49 54 38 52 63 60 63 52 34 43 47 41 56 44 59 67 75 77 89 87 104 114 107 128 101 111 96 99 106 83 98 40 30 28 30 58 83 59 62 53 37 34 33 22 51 72 39 40 59 60 60 82 75 47 43 54 72 82 80 114 134 129 138 153 152 156 166 164 159 171 175 178 182 175 166 156 152 154 133 100 101 86 74 86 56 60 50 41 29 24 20 36 36 34 44 58 51 74 70 69 72 73 64 56 69 59 64 75 71 92 93 83 103 118 127 122 95 110 103 85 103 71 83 51 57 29 25 49 78 66 80 73 62 26 20 29 70 48 43 44 37 42 51 40 36 40 39 53 39 36 36 49 67 103 94 126 126 135 151 154 151 165 174 176 174 171 160 148 146 152 152 116 79 79 71 59 54 44 40 30 36 44 63 59 85 103 117 119 144 135 128 133 123 104 94 85 84 82 94 105 99 100 81 105 108 124 127 119 107 107 111 108 80 97 119 70 56 57 30 35 71 53 73 81 73 32 44 40 81 78 34 31 38 34 34 33 34 25 33 22 31 28 27 35 44 48 58 95 94 99 126 146 147 148 164 181 182 173 163 150 129 139 140 116 95 71 62 48 35 35 34 48 57 62 55 60 48 69 65 83 89 103 110 115 123 134 133 128 127 109 109 123 94 93 107 122 114 122 128 130 120 115 97 117 87 107 94 126 57 44 40 36 55 44 78 94 66 45 41 16 112 76 35 36 49 73 78 82 85 77 73 69 65 58 46 29 31 33 34 50 75 82 107 131 130 128 152 168 174 169 157 143 130 114 96 78 66 52 39 32 34 45 49 52 21 13 30 31 21 2 91 32 24 7 0 3 23 36 54 92 121 127 159 123 104 116 124 117 123 129 131 126 115 108 109 110 87 117 86 97 53 64 72 40 37 34 73 72 88 25 48 34 100 100 39 39 68 105 122 119 145 138 137 126 101 90 71 51 42 38 28 38 36 61 80 99 106 109 143 175 181 171 151 138 120 104 75 57 45 35 31 40 39 46 33 26 39 71 42 73 41 25 82 26 14 28 32 43 31 30 33 35 53 93 84 107 89 104 129 136 143 138 131 123 122 118 110 105 109 89 133 86 135 91 69 41 31 24 79 77 90 27 69 35 94 96 68 79 96 106 122 107 78 59 27 26 21 10 36 17 16 22 28 26 30 27 38 60 75 98 142 165 180 178 161 162 135 107 80 53 34 39 38 44 44 37 42 72 80 30 119 191 115 28 21 19 29 3 56 115 82 50 57 57 68 49 55 96 128 157 143 148 148 140 137 129 128 118 115 108 96 107 45 85 119 69 48 44 40 39 77 74 99 49 95 43 103 106 94 104 98 63 25 13 12 20 32 27 16 5 166 66 24 21 36 36 31 28 37 28 39 87 134 167 184 187 177 161 147 119 99 65 42 59 55 49 34 52 84 66 47 95 156 176 193 80 78 42 40 137 166 125 111 82 65 85 131 130 129 143 150 153 158 151 147 140 138 131 127 119 118 104 99 68 35 103 123 56 57 52 42 64 76 70 108 38 95 47 97 97 94 104 54 29 34 28 15 49 104 73 18 26 0 11 38 34 66 41 31 35 28 33 40 61 136 171 189 195 186 176 166 137 103 62 75 98 59 55 110 144 53 93 160 183 177 177 183 178 189 209 176 167 137 126 138 99 65 129 160 167 166 163 158 158 151 149 145 144 141 136 126 119 116 113 100 78 36 51 100 70 35 72 72 77 76 71 100 61 104 60 91 104 81 89 47 36 32 50 57 82 117 145 30 51 42 31 1 89 135 77 73 37 66 64 39 56 140 175 196 202 197 185 174 145 105 90 116 120 92 139 191 120 109 169 156 154 134 126 133 154 129 163 170 161 167 146 104 85 117 136 135 153 161 156 160 162 158 160 152 152 142 136 127 116 111 104 102 92 59 52 65 84 45 68 90 64 79 73 93 86 113 58 122 96 99 82 49 41 40 72 104 153 159 179 170 79 79 147 158 179 159 125 101 87 54 114 83 62 132 187 195 204 202 190 176 154 125 111 120 123 134 208 182 178 190 166 149 133 140 154 171 179 185 166 154 140 107 89 84 115 141 165 167 162 166 162 165 159 156 157 158 153 147 147 126 126 111 104 105 87 58 58 89 59 49 83 95 70 72 77 89 105 127 75 99 116 113 108 98 79 62 83 121 132 141 110 157 150 184 175 149 139 159 169 184 149 145 153 151 90 144 183 196 207 205 189 177 167 140 117 112 141 143 173 184 177 165 144 135 94 98 117 121 111 116 115 100 91 92 105 121 135 141 144 158 167 159 164 162 162 165 160 156 149 143 131 119 122 110 102 93 75 70 75 76 31 47 87 116 76 74 74 81 115 147 50 103 113 117 117 116 94 79 85 133 156 143 170 136 136 128 147 131 120 127 149 176 172 178 174 155 110 160 187 202 207 206 193 180 167 157 133 97 152 140 177 164 163 154 144 148 143 117 81 84 75 78 68 65 79 95 117 140 169 177 171 172 166 168 167 165 158 165 154 158 150 142 144 136 129 118 106 79 62 71 52 44 58 47 99 132 78 74 74 75 130 167 54 110 124 125 122 124 103 96 66 73 116 133 140 150 138 128 95 85 98 101 132 131 150 144 141 148 141 178 190 199 211 206 194 186 179 162 147 102 139 149 162 160 182 161 164 153 162 165 172 178 166 166 155 160 159 165 174 176 178 178 178 175 173 165 157 159 159 163 159 157 146 138 137 126 114 108 101 73 71 42 32 37 58 40 114 134 81 76 73 72 112 101 100 89 118 122 124 125 118 101 79 86 49 55 62 66 65 65 57 65 84 118 137 142 142 162 159 140 161 185 193 202 212 208 198 189 181 167 159 105 118 155 168 162 186 201 190 177 177 182 182 185 186 186 183 181 186 189 202 197 188 183 183 180 171 166 167 162 168 157 157 158 152 143 140 120 119 111 118 75 60 77 27 25 42 42 128 108 71 76 74 71 97 153 75 107 118 127 131 135 126 134 145 142 111 84 65 64 72 72 100 124 148 157 151 158 168 172 156 142 175 184 191 205 209 210 203 191 187 179 160 112 102 140 160 166 180 188 205 202 189 182 189 189 190 192 195 194 203 204 197 198 199 191 185 174 172 164 169 166 162 170 158 153 151 138 130 127 120 109 113 82 55 48 27 28 35 54 140 94 51 75 73 74 75 158 54 109 121 127 126 132 148 156 140 140 167 148 149 144 149 155 151 156 162 175 179 184 181 164 147 125 173 188 197 204 214 215 205 196 186 170 154 100 112 130 155 154 175 203 201 186 206 202 194 191 198 199 192 197 203 200 196 198 196 191 186 176 171 170 165 171 162 156 162 152 152 141 132 132 116 91 69 64 59 50 17 36 26 57 127 68 51 74 71 64 100 64 45 96 113 129 132 141 150 145 150 162 164 167 167 155 161 168 169 172 171 176 184 179 167 158 143 128 173 187 193 201 212 208 200 188 178 140 111 101 115 117 135 157 168 197 187 166 205 200 207 195 191 196 200 207 208 200 199 199 194 190 184 177 174 170 166 168 167 169 158 152 143 149 124 117 113 107 88 67 39 30 30 32 28 62 123 81 96 75 74 68 106 93 59 90 113 133 136 138 141 146 158 160 169 170 167 169 167 168 166 175 182 185 179 176 168 156 135 124 162 181 187 198 204 204 198 186 162 118 114 121 122 120 126 145 156 181 183 180 210 204 177 199 209 207 208 205 206 200 205 205 195 184 177 172 172 177 173 164 170 168 161 154 141 138 123 123 107 95 89 62 50 33 31 35 32 56 109 110 161 74 70 67 109 125 64 99 108 128 138 142 144 150 161 163 168 168 171 171 167 166 170 176 181 179 178 177 156 145 132 117 155 180 184 201 202 198 191 177 149 118 135 142 138 135 114 138 151 160 193 203 211 188 149 200 207 215 213 210 209 202 204 206 192 181 178 175 175 178 172 165 169 164 160 156 137 139 119 111 106 80 82 52 46 33 27 32 35 54 95 104 157 73 71 67 106 165 92 93 113 126 134 141 151 154 160 165 174 173 176 178 175 167 179 182 183 181 180 175 156 136 140 121 161 176 185 189 192 191 191 176 153 123 141 149 142 134 108 134 146 162 182 195 211 205 194 212 215 213 214 210 209 205 206 193 183 180 176 176 179 171 170 167 170 159 153 149 135 128 124 107 83 64 75 59 35 35 25 27 30 53 83 107 151 73 64 71 99 159 116 92 107 123 135 139 146 158 160 168 177 175 179 184 185 183 189 189 186 186 178 174 159 131 141 127 152 181 188 191 194 193 182 168 149 135 142 156 156 139 127 139 147 153 178 191 215 217 221 211 215 211 210 210 201 204 195 192 182 177 175 176 175 170 165 162 169 161 151 146 131 129 104 98 79 59 69 69 41 26 26 28 39 46 112 145 163 72 75 69 92 155 139 91 101 121 137 135 148 151 161 173 176 183 186 191 192 195 188 185 183 184 176 173 157 135 141 122 161 175 186 189 193 193 181 167 153 151 156 160 155 146 140 137 142 157 178 189 205 214 212 215 208 213 207 207 203 203 193 189 181 177 178 181 175 172 170 161 157 145 145 140 120 120 110 88 71 66 44 48 33 42 31 33 39 42 111 151 160 73 67 65 86 148 145 109 94 120 137 144 140 148 161 172 175 181 186 189 195 196 194 188 186 184 176 168 146 135 139 130 166 167 187 195 193 185 181 166 154 158 161 160 152 141 135 129 140 155 168 181 200 215 212 213 216 210 209 205 202 194 191 189 185 179 181 173 172 171 164 155 149 138 142 135 127 101 105 84 81 50 48 49 29 29 33 30 35 37 68 119 127 72 68 75 68 145 162 128 91 113 129 147 150 160 161 174 174 178 186 189 191 194 193 191 186 183 174 163 130 138 139 141 160 174 187 210 204 187 178 167 156 167 164 157 155 140 118 108 131 158 168 184 191 203 206 210 213 210 207 206 204 198 193 192 188 179 177 178 176 170 160 152 143 139 133 119 115 102 84 77 56 57 31 37 37 34 33 32 35 23 45 60 69 76 73 73 67 143 153 148 77 108 117 144 153 157 160 169 176 183 183 189 195 195 192 190 187 183 177 162 138 136 135 144 160 184 197 209 204 189 178 168 159 170 166 155 146 140 116 94 111 138 164 191 192 202 203 207 210 209 210 205 196 190 191 184 186 170 174 177 168 164 159 153 146 139 129 117 111 111 77 78 58 58 59 32 36 34 39 35 29 28 71 65 69 75 70 74 63 94 140 144 66 106 122 141 148 157 168 169 175 179 182 189 193 191 189 186 185 181 183 175 147 137 137 147 164 185 193 212 203 187 176 170 162 163 161 158 141 131 112 111 106 125 165 186 197 203 202 204 206 208 206 203 196 192 187 183 180 170 176 173 164 162 156 144 127 130 120 115 94 94 71 62 46 54 48 43 48 38 48 29 26 37 69 73 82 73 74 71 70 59 78 111 88 87 112 130 140 155 161 172 175 177 185 190 190 187 184 187 188 183 184 176 134 137 136 146 163 189 194 211 198 185 174 165 165 161 158 155 141 137 119 121 111 112 158 171 190 196 204 205 203 205 203 201 192 192 186 182 177 173 174 167 158 156 151 143 134 119 108 109 98 76 75 59 70 54 63 46 69 40 27 31 30 48 66 80 80 80 66 76 71 69 60 58 69 79 100 124 131 152 158 161 171 177 182 186 184 186 186 189 190 190 187 163 120 132 134 147 157 177 197 207 183 170 165 152 149 158 162 154 161 152 149 132 125 92 144 174 187 189 198 203 199 203 205 199 188 190 188 182 178 171 169 164 158 152 140 141 129 120 104 88 100 83 87 69 47 98 46 73 68 42 36 36 22 60 69 73 76 70 75 69 74 69 71 64 77 67 90 116 136 142 157 159 168 174 179 183 185 186 183 178 179 174 178 146 121 134 129 144 164 175 197 205 184 169 160 154 157 170 173 171 173 157 145 129 119 79 135 180 189 183 185 195 197 191 196 191 192 186 183 174 176 169 165 157 151 141 125 133 120 120 100 99 98 91 76 82 65 53 38 54 59 39 49 52 26 65 72 73 76 73 73 74 72 70 73 70 75 73 75 105 120 139 154 160 167 171 172 174 175 175 177 178 176 184 169 127 136 142 129 142 162 179 202 203 182 171 160 161 166 172 178 184 173 161 131 123 99 63 111 178 187 192 185 185 191 190 186 187 185 184 180 172 174 165 153 148 146 142 129 122 115 108 101 111 109 85 70 64 79 60 41 71 80 48 40 51 27 67 72 74 76 73 74 74 72 70 72 70 80 75 76 87 119 140 148 154 160 167 170 174 177 175 173 174 174 168 173 113 155 142 125 156 178 196 218 212 180 168 165 164 167 174 174 173 157 142 117 99 65 50 101 177 187 194 188 179 181 186 186 191 180 179 175 166 166 158 153 146 144 135 121 113 102 99 101 99 101 115 93 67 84 67 64 53 39 36 63 49 22 67 73 76 77 73 75 74 71 71 73 66 71 61 79 85 108 127 145 148 159 162 158 166 172 172 174 173 160 168 168 118 140 136 133 175 185 195 216 225 195 175 169 167 166 174 167 160 145 118 94 68 52 42 99 180 188 189 184 179 180 182 180 189 183 180 178 168 165 157 155 140 126 117 108 109 107 107 96 121 102 96 94 76 93 83 70 56 41 42 49 46 29 70 77 77 77 75 75 74 73 71 70 70 79 70 90 79 94 124 135 140 149 160 162 166 166 170 174 161 159 162 169 124 90 112 139 175 182 184 189 204 194 181 172 169 151 139 124 111 89 66 52 40 40 41 136 177 187 188 186 184 183 184 182 185 180 176 173 166 161 154 148 136 121 105 104 109 92 96 100 118 102 101 88 103 92 98 62 47 56 38 68 52 29 69 74 78 78 75 74 75 73 72 70 69 79 62 87 83 84 109 126 133 138 156 157 165 164 171 158 156 155 160 163 136 71 71 121 155 163 172 161 166 175 183 162 136 92 77 53 36 25 23 32 31 22 67 165 187 188 188 186 183 176 179 173 168 182 178 167 159 155 147 135 130 107 97 91 104 89 108 85 119 99 120 77 94 83 71 65 53 57 37 88 59 26 67 73 77 76 74 75 75 72 73 72 74 69 57 90 97 75 98 116 122 129 136 129 136 152 161 156 155 159 164 155 139 71 38 61 104 135 148 138 139 153 153 109 55 44 34 21 11 14 15 21 20 43 125 174 182 185 183 186 191 174 168 171 171 167 170 159 152 145 137 135 117 115 87 82 119 97 102 79 121 109 111 82 80 67 90 73 52 64 32 63 48 45 74 75 76 76 72 74 74 71 71 71 73 65 75 71 100 77 74 102 124 132 132 113 135 153 150 146 158 156 164 147 117 92 45 27 41 79 91 94 78 69 71 45 32 16 14 16 20 32 32 38 69 123 151 170 182 190 189 187 179 180 176 157 156 161 158 151 152 148 141 123 117 109 84 73 106 77 91 92 116 105 104 76 77 86 58 45 47 38 38 82 43 47 76 78 77 76 75 73 74 73 74 73 74 66 74 83 105 77 66 88 103 113 123 131 143 151 158 155 154 160 154 156 136 104 54 32 20 32 45 48 42 42 34 26 20 18 21 32 52 52 55 72 90 153 155 178 189 191 186 196 182 177 176 177 162 157 154 146 145 138 134 110 96 88 70 80 115 93 103 100 95 92 83 72 99 97 54 64 40 60 38 48 33 53 76 77 77 78 74 74 73 72 75 74 75 69 80 60 110 100 57 72 96 105 109 128 149 154 148 151 131 151 159 142 128 96 61 23 43 27 22 12 15 15 15 13 17 23 25 56 37 96 66 88 104 127 149 180 173 185 178 182 178 170 159 147 162 159 135 126 140 133 124 117 109 92 71 73 137 98 111 101 107 69 102 62 91 77 48 70 61 39 40 56 26 47 73 82 75 76 76 76 76 74 75 74 73 68 63 69 80 102 70 67 83 88 107 132 149 157 127 129 119 121 149 137 115 76 49 41 33 50 32 23 24 20 20 17 29 27 94 44 85 73 87 88 141 147 131 163 151 175 173 160 165 160 149 131 139 135 159 135 123 136 123 126 98 94 50 74 144 128 109 117 103 99 96 65 87 76 82 58 60 41 35 38 34 55 70 79 77 78 76 76 76 74 74 75 73 73 69 56 90 90 75 50 72 88 102 122 122 103 86 123 147 132 142 131 102 87 79 57 73 48 31 41 28 24 24 32 17 89 77 68 71 119 110 72 169 140 152 146 161 172 164 145 159 133 135 136 128 118 118 154 138 124 143 114 101 75 55 81 131 90 104 116 100 112 97 85 83 103 57 78 43 34 65 96 19 65 68 73 77 75 76 76 76 74 76 74 73 72 71 71 77 85 84 65 61 74 98 109 109 63 107 89 102 122 121 103 115 63 64 77 86 87 59 45 78 26 34 35 36 64 73 75 111 139 133 120 120 102 111 133 142 138 124 125 111 100 104 111 121 158 158 107 107 133 110 112 74 65 49 69 123 130 132 110 109 114 97 87 83 89 72 76 61 36 36 44 26 59 65 74 78 75 76 76 76 74 75 74 74 73 72 63 46 65 87 57 53 67 65 95 113 106 91 111 91 105 133 96 71 52 41 116 87 111 71 97 74 42 35 67 52 70 60 120 112 84 110 111 117 116 151 110 139 101 110 113 116 118 105 102 99 124 116 135 92 113 107 106 94 64 47 125 116 124 127 97 116 95 78 63 84 88 68 80 68 32 69 32 29 66 72 76 79 76 76 76 74 75 75 74 72 75 73 66 37 52 76 69 52 59 66 84 77 62 83 98 78 100 89 79 74 91 35 93 74 58 93 84 111 84 66 72 66 97 96 121 124 114 108 132 104 101 95 110 113 89 116 117 115 94 94 109 100 76 75 62 119 91 120 110 83 46 39 80 122 105 116 121 114 89 107 51 57 53 58 32 74 31 69 28 31 69 77 76 79 76 75 77 73 75 75 74 74 73 74 66 34 58 73 74 52 67 41 77 101 64 61 55 42 47 48 55 69 70 85 97 101 114 117 132 96 128 127 107 120 125 122 143 107 153 123 95 99 81 81 41 92 103 119 82 84 58 50 66 71 57 68 85 56 94 88 99 60 31 53 94 135 126 99 100 93 90 111 69 54 60 58 37 44 35 36 30 30 76 80 73 75 76 76 75 74 73 74 74 74 72 72 73 47 54 64 83 68 75 74 62 96 64 45 41 29 31 27 30 65 99 138 130 123 153 137 146 130 146 157 153 147 148 160 167 140 154 130 118 146 136 111 115 94 93 56 80 31 29 20 20 28 29 21 72 84 125 99 87 47 37 51 111 139 123 79 123 68 103 67 85 62 57 55 51 29 58 35 26 40 78 78 78 76 77 77 75 75 75 75 75 75 74 72 76 65 43 66 73 80 48 58 68 72 65 61 50 46 30 20 28 50 63 76 79 69 77 78 97 100 111 157 149 137 151 149 135 135 140 119 129 122 124 104 122 65 70 44 26 29 26 32 53 29 75 97 81 122 123 133 59 50 34 52 107 140 97 92 72 71 91 89 87 49 50 99 56 41 41 39 24 56 77 78 80 75 75 78 74 75 75 76 75 76 75 74 73 68 41 50 52 95 43 89 72 73 112 95 99 68 113 71 48 19 7 18 23 16 2 23 34 34 31 45 83 81 53 27 21 41 38 40 26 31 39 25 17 15 16 9 54 68 90 97 139 128 89 124 122 144 137 123 65 44 28 53 102 111 99 79 94 69 89 102 92 104 81 34 39 29 30 31 27 91 85 78 77 77 78 75 77 75 75 74 76 76 73 73 74 76 62 39 43 66 85 80 75 61 103 113 128 119 115 95 124 51 58 55 100 100 147 82 68 60 59 47 27 12 6 16 38 31 64 51 73 85 86 88 79 81 105 130 125 124 122 133 144 146 131 138 135 149 150 116 66 28 41 63 137 109 125 102 74 63 87 95 108 79 84 37 40 28 29 28 14 128 111 76 77 75 76 76 76 76 76 74 74 74 74 74 73 72 75 23 51 44 85 61 90 77 72 114 132 99 91 113 131 117 71 76 101 116 136 159 165 160 176 163 147 122 137 128 140 156 171 162 181 162 171 169 157 149 115 135 127 131 142 137 135 153 138 156 124 125 154 100 45 36 46 79 126 119 127 132 62 86 80 104 46 100 77 26 37 19 24 29 6 139 134 64 83 75 79 78 75 77 76 75 75 75 75 76 75 75 70 61 36 46 53 77 69 56 65 112 96 109 115 128 118 111 88 77 137 136 141 166 143 166 170 158 172 161 151 165 169 188 188 186 176 173 171 143 151 122 131 151 118 135 127 128 143 129 143 119 148 143 143 92 39 29 45 90 108 141 137 112 76 70 101 103 35 98 32 35 35 24 30 31 7 173 128 44 43 78 78 77 75 76 75 75 75 75 75 75 75 74 72 91 39 47 51 64 53 65 42 93 100 90 127 123 115 102 97 116 113 104 128 148 165 167 156 179 162 180 171 179 183 182 173 164 153 139 145 148 139 140 128 95 116 134 138 123 138 135 122 149 133 138 115 56 34 30 84 122 158 127 105 112 58 89 65 59 63 21 33 31 19 25 31 44 53 191 109 80 13 24 78 76 75 75 75 74 75 75 74 75 75 76 70 81 62 25 46 55 60 38 42 55 55 73 117 108 108 95 82 93 134 143 124 131 120 145 134 123 127 127 108 121 119 103 121 142 147 137 99 83 124 111 120 110 134 115 115 133 132 124 157 144 148 124 86 37 38 69 89 92 158 147 83 93 65 66 55 29 80 26 32 22 25 24 39 28 130 172 107 99 13 16 34 76 76 76 75 74 75 74 75 75 74 74 76 72 72 37 31 48 42 53 53 43 48 77 102 101 93 100 93 60 105 109 109 111 81 119 106 102 86 71 79 50 87 76 92 78 112 58 63 64 81 80 101 91 102 108 119 127 137 97 110 148 86 111 94 27 30 66 107 92 139 105 75 60 52 98 56 55 46 38 31 21 25 30 36 20 190 150 104 131 30 18 10 77 77 77 76 75 76 75 76 76 75 74 78 78 74 79 39 24 37 50 38 43 56 58 75 127 120 104 84 77 73 86 92 75 56 61 75 66 42 55 48 66 110 84 73 71 45 85 89 86 51 98 77 100 126 136 124 142 129 120 107 128 155 105 72 29 54 57 107 129 87 88 58 66 49 50 72 55 46 23 23 23 29 35 24 122 197 126 110 129 93 10 21 77 77 76 76 76 76 76 76 76 76 75 73 75 76 78 61 46 36 48 27 55 54 45 77 117 110 100 101 83 100 72 50 64 66 50 53 64 77 76 59 88 93 75 77 64 65 75 100 93 80 125 122 122 127 136 132 153 132 114 134 122 84 95 65 36 49 75 86 115 121 82 63 38 60 30 43 34 26 24 24 26 33 48 43 205 183 116 110 132 131 12 20 77 77 76 76 76 76 76 76 76 75 75 75 75 76 76 77 61 42 29 34 51 62 57 78 131 134 137 110 89 78 78 87 69 77 77 55 64 55 99 126 77 44 77 57 89 70 84 121 126 142 131 135 137 153 150 140 149 117 117 108 101 95 98 42 43 56 94 97 82 62 62 58 53 53 63 19 21 18 28 30 36 44 36 153 208 155 118 114 137 162 22 22 77 77 77 76 76 76 76 76 77 76 76 76 76 76 77 71 78 48 17 34 51 58 38 94 113 122 88 114 104 115 138 71 92 89 105 61 81 92 89 123 101 96 75 54 89 123 112 115 103 156 142 123 156 160 153 144 127 147 134 133 112 86 100 27 49 58 76 96 71 61 28 84 19 50 32 19 27 24 29 37 46 41 109 208 187 143 126 107 145 167 39 22 74 76 76 76 77 75 76 76 76 75 76 76 76 76 76 71 82 72 42 28 49 49 45 69 102 65 86 112 131 154 131 149 124 104 104 104 87 85 100 80 121 109 102 92 131 99 139 153 145 154 162 154 157 154 157 129 136 144 134 124 141 132 50 33 43 73 52 73 84 33 37 45 44 19 24 20 27 28 36 48 61 33 200 207 178 141 136 102 154 181 69 16 77 76 77 76 77 75 76 76 76 74 76 76 75 74 77 74 72 86 67 30 30 40 53 44 91 76 91 121 137 110 144 144 160 124 129 162 142 127 121 129 152 143 128 148 168 158 160 148 175 165 161 173 172 140 136 141 137 142 110 151 119 101 59 37 29 52 62 111 53 57 44 62 27 22 26 28 28 42 49 54 41 175 211 194 171 151 141 98 161 185 75 18 74 76 77 76 75 76 76 76 76 75 75 76 75 75 73 71 71 74 80 138 52 31 35 42 55 79 97 112 118 129 137 149 154 157 143 150 124 167 168 127 175 167 160 170 155 170 164 158 170 175 168 149 161 171 130 151 101 59 123 140 118 95 106 35 33 40 36 53 37 35 17 34 21 28 27 30 47 47 53 48 129 209 205 184 160 157 144 95 165 180 63 18 74 75 77 76 75 76 76 76 76 76 76 75 74 75 70 74 76 64 170 155 53 43 24 42 68 65 53 113 119 99 104 137 145 179 166 135 169 170 181 189 176 158 179 178 181 174 176 156 180 166 129 163 141 118 135 117 125 66 50 104 95 58 67 41 31 30 39 27 33 20 29 23 31 29 35 41 57 54 56 75 215 206 198 181 167 162 140 98 167 179 70 19 77 77 75 76 75 74 75 75 76 76 75 75 75 74 75 65 65 141 205 126 125 32 39 29 29 43 49 68 102 90 112 127 116 135 133 151 137 167 185 155 177 160 189 183 175 174 174 167 118 135 160 171 148 146 144 143 107 119 107 69 60 43 40 32 25 29 36 30 22 24 18 29 32 30 52 51 58 61 47 212 208 207 198 181 175 165 136 102 174 184 62 23 77 77 76 74 76 73 73 76 76 74 76 75 74 76 67 74 101 214 169 188 64 40 38 28 37 52 38 81 117 74 92 95 125 115 129 126 161 159 167 165 162 172 186 168 174 161 179 168 168 141 147 154 152 118 98 111 86 86 90 49 37 57 23 31 36 34 27 24 23 24 27 30 34 45 49 59 77 43 192 222 215 213 195 185 178 165 138 102 175 187 52 25 77 75 76 76 76 74 76 76 76 75 76 74 73 71 78 53 197 202 189 144 50 61 39 49 40 51 34 59 57 76 112 143 139 129 144 155 147 159 157 179 150 131 184 173 145 183 173 166 151 135 109 116 133 121 128 144 53 87 84 36 37 32 39 46 31 25 20 22 27 27 29 31 38 57 58 74 54 155 227 219 211 205 199 180 179 165 133 108 176 181 28 28 77 77 77 76 77 77 76 76 76 75 77 77 75 71 60 138 217 200 192 72 79 46 59 87 38 33 46 66 95 74 140 148 93 122 138 152 138 173 159 181 153 134 145 159 167 173 159 146 106 113 125 104 119 118 61 64 68 34 73 39 22 26 30 36 23 22 24 23 29 32 35 42 51 60 74 62 113 230 220 219 212 208 193 180 178 166 129 117 175 161 18 28 76 76 78 78 77 76 77 77 76 79 75 78 77 75 78 215 208 213 135 92 71 50 75 115 79 30 42 75 70 122 144 164 57 94 125 112 148 143 180 165 158 151 152 148 145 155 156 143 112 133 87 139 123 52 75 47 30 56 23 30 27 21 31 17 22 25 24 29 37 48 47 51 64 75 78 87 237 224 225 218 212 207 190 180 185 173 119 124 175 137 15 25 80 77 76 80 74 80 78 75 77 76 78 80 78 51 156 229 220 190 135 147 48 62 93 122 154 44 68 8 55 81 78 103 95 90 127 131 139 136 148 146 148 152 121 141 151 118 121 130 100 76 90 67 74 39 62 69 48 52 63 28 21 22 26 25 23 24 31 34 43 47 62 71 78 79 73 210 222 228 222 218 210 203 185 176 180 173 115 119 186 107 19 22 76 79 78 78 81 76 78 81 88 79 75 57 37 53 223 219 212 182 170 130 60 79 113 137 166 97 91 72 92 65 99 104 80 120 60 83 70 108 129 100 114 114 95 124 123 119 146 99 111 80 78 75 50 23 80 95 63 21 25 23 23 25 27 26 27 29 40 46 52 58 68 75 86 67 177 237 232 223 225 218 208 199 177 174 175 172 111 119 196 67 17 23 81 79 82 81 81 84 82 70 60 42 27 16 1 141 228 226 214 192 178 85 72 87 122 149 169 135 70 63 50 64 73 85 49 55 70 91 100 109 114 134 85 101 139 136 83 144 79 103 84 60 33 33 40 53 127 23 96 33 17 24 26 28 26 26 31 35 50 57 65 59 78 89 92 147 235 229 228 228 222 215 202 187 176 173 174 170 105 128 203 27 22 23 81 87 85 82 75 53 38 24 17 16 20 20 47 237 221 218 219 203 184 74 86 102 126 141 172 164 74 79 76 37 33 74 63 55 44 75 104 106 108 96 87 84 118 78 90 61 76 47 68 71 20 27 36 74 52 23 32 29 29 22 25 28 29 34 41 45 62 68 70 79 85 98 90 238 231 236 225 228 220 209 193 179 167 168 172 163 96 137 208 18 24 27 82 68 52 36 19 13 17 18 19 18 21 5 175 231 228 216 206 211 185 76 97 115 129 153 171 163 103 95 86 84 85 53 50 42 34 74 35 63 67 47 65 63 69 87 67 51 61 51 58 70 7 26 28 32 23 26 26 28 28 28 29 35 31 35 45 56 66 73 78 88 94 88 211 232 238 225 239 222 217 200 184 170 161 172 176 159 94 147 191 21 25 28 26 19 14 17 17 18 21 19 22 20 13 85 238 230 223 218 206 207 185 88 101 123 135 158 165 159 127 83 94 90 97 78 80 56 27 70 35 32 27 55 68 56 36 68 42 29 52 48 27 48 49 38 31 29 24 27 30 28 29 31 32 37 36 43 53 60 70 77 85 87 71 168 243 235 233 231 226 220 208 188 170 156 155 180 176 151 91 161 165 16 28 27 18 22 18 20 19 20 19 20 24 24 1 219 234 231 225 213 206 205 194 94 100 129 142 163 173 160 109 75 99 92 99 87 69 64 56 33 46 31 32 44 28 43 48 32 29 22 30 34 33 59 45 27 22 28 24 25 29 31 34 33 36 42 43 52 58 65 77 83 88 98 128 239 231 233 231 230 222 212 193 174 157 148 155 184 171 140 80 176 130 21 28 26