P2
# Generated by OpenCV 4.2.0
92 112
255
32 57 51 34 48 47 46 57 60 62 59 61 60 55 60 65 75 59 62 56 63 75 72 64 56 43 47 54 68 68 57 83 106 76 113 122 98 90 94 107 105 125 141 134 122 126 143 147 147 148 152 156 151 156 160 157 160 160 159 160 162 162 158 160 163 158 155 152 146 142 132 119 100 85 85 84 72 56 65 69 70 56 36 42 53 37 41 45 39 20 18 28 57 47 37 33 48 47 53 66 70 71 79 83 76 78 68 65 70 68 67 69 65 63 65 58 62 60 66 74 83 86 79 102 118 92 119 115 115 120 131 136 135 144 142 136 140 153 153 156 154 156 156 152 153 158 164 158 161 158 154 155 159 159 158 161 162 161 158 155 149 145 132 122 111 98 82 73 71 74 62 59 45 45 45 39 52 40 36 48 43 26 22 21 51 31 32 40 48 56 74 79 82 87 91 95 94 93 91 89 83 79 83 76 92 74 70 65 59 60 64 78 91 106 100 122 119 100 124 135 146 141 137 153 162 157 153 152 159 166 160 160 160 163 159 154 155 160 165 162 162 159 161 159 158 156 156 157 159 158 158 152 150 145 134 127 113 98 87 75 68 63 83 62 58 39 42 38 41 41 39 42 44 33 23 20 40 35 35 47 56 68 81 88 91 93 101 100 104 106 111 111 102 93 95 92 87 85 80 83 82 73 74 81 99 113 109 126 121 122 136 144 154 158 159 162 161 162 161 159 165 163 164 163 168 167 164 165 162 163 163 164 160 158 161 163 159 159 157 155 156 155 155 151 148 144 133 120 107 94 85 71 73 49 56 82 59 45 34 34 36 44 41 37 50 52 34 25 40 37 37 49 61 76 89 93 97 97 102 105 117 122 126 124 115 110 120 115 105 100 88 84 85 90 95 95 106 116 119 131 137 145 145 160 161 160 162 163 166 164 163 163 169 168 166 165 171 170 168 166 165 163 163 163 159 158 163 160 159 159 157 157 155 153 156 150 146 139 127 111 95 82 77 67 54 61 50 48 76 57 36 29 30 29 44 40 42 50 36 26 36 36 41 55 62 83 95 97 98 101 107 115 122 132 136 138 133 128 128 125 120 131 119 112 117 118 116 118 129 136 132 139 147 159 163 156 159 162 165 165 173 170 169 169 172 166 165 165 167 167 167 165 163 161 163 162 158 160 162 160 160 159 160 161 156 150 151 150 151 149 139 122 104 85 72 67 54 37 34 35 45 51 50 33 26 25 27 40 46 53 42 36 32 39 49 59 67 88 95 102 99 102 114 120 122 143 143 147 152 150 140 138 133 150 157 142 142 145 149 148 153 155 151 154 159 165 174 173 173 170 172 173 170 171 174 173 174 175 171 168 168 168 167 164 162 161 161 161 159 161 162 160 158 160 161 160 156 150 147 147 150 150 154 145 124 103 82 73 70 62 50 45 35 37 47 38 23 27 23 30 30 55 56 40 30 38 46 56 69 91 96 106 105 106 113 114 128 145 153 156 158 154 152 151 153 153 165 154 157 156 157 159 161 160 157 160 165 172 175 176 177 174 173 172 170 169 174 173 175 178 178 175 172 168 166 163 161 160 160 162 162 161 161 160 157 159 161 158 154 153 146 142 143 143 141 139 135 120 98 80 61 60 49 44 38 37 37 45 33 15 22 27 32 52 35 34 41 43 48 58 77 95 100 109 104 104 115 134 153 171 178 180 185 175 166 161 160 156 156 163 164 160 163 164 162 163 162 161 166 171 174 174 173 168 170 170 170 170 171 172 169 170 174 175 171 168 168 165 164 162 160 161 162 161 160 157 157 161 161 157 154 152 145 143 146 149 149 134 123 114 107 104 80 57 58 47 42 32 29 28 37 20 21 33 18 31 45 29 46 41 45 63 80 93 105 108 100 109 138 170 181 183 189 188 191 188 189 182 173 167 165 165 171 163 162 166 166 169 168 167 169 169 172 174 171 168 168 171 169 169 172 172 172 171 170 170 169 165 165 165 165 165 161 161 159 157 159 154 156 158 158 156 151 147 143 137 135 136 138 137 133 123 108 101 91 69 60 59 55 43 29 28 19 25 20 33 24 38 48 32 39 37 47 71 84 96 107 115 102 138 169 176 179 185 186 192 193 188 192 194 187 175 173 168 169 167 167 161 167 169 171 168 164 166 170 172 172 170 172 173 171 172 172 172 170 168 168 169 168 168 166 163 163 163 163 162 160 159 156 152 153 155 156 154 149 144 142 137 134 134 127 121 115 108 104 95 80 78 79 62 56 50 34 33 22 21 23 27 32 23 41 33 26 29 42 68 95 104 106 107 126 163 168 175 182 183 186 189 189 193 190 197 200 184 171 169 164 166 168 163 168 171 172 167 164 169 171 171 171 171 175 174 174 173 174 176 174 172 169 169 171 170 167 164 163 162 164 163 160 159 157 152 151 152 151 153 149 142 140 141 138 138 133 124 113 100 86 79 87 72 57 69 61 50 43 31 31 24 24 24 28 29 35 36 23 33 61 87 106 104 109 123 155 169 166 178 184 183 182 188 189 189 193 195 196 190 177 168 166 170 168 170 170 172 169 169 167 170 174 169 167 173 177 175 175 175 176 181 180 178 180 176 173 171 170 166 164 163 162 160 159 158 156 153 149 149 149 148 147 140 137 136 134 134 128 118 108 100 89 79 67 67 59 47 57 47 47 39 27 24 23 26 28 27 28 34 49 65 62 85 102 100 126 159 166 163 164 178 181 182 183 189 195 195 194 193 191 182 181 186 188 187 172 173 176 176 175 175 172 171 172 169 168 171 173 172 174 175 172 176 176 174 176 180 175 173 171 167 167 163 163 161 158 157 155 152 149 145 146 146 146 140 134 136 130 120 115 113 107 99 87 76 74 68 64 67 52 57 46 50 7 24 23 24 21 26 26 25 50 56 61 87 96 118 152 166 162 163 170 177 182 183 184 188 191 195 198 197 201 211 201 204 192 175 175 173 175 174 177 181 178 174 174 175 174 175 172 173 176 175 174 176 180 177 175 177 174 173 172 169 168 161 161 159 157 156 153 151 147 146 145 144 142 136 134 141 136 138 129 115 100 95 84 73 73 65 55 50 46 54 47 41 42 23 20 20 21 26 25 26 41 46 70 99 109 149 165 166 165 160 167 183 184 181 180 183 184 189 195 197 192 194 189 192 184 176 177 176 178 176 172 182 182 178 178 178 177 176 177 175 174 175 175 176 175 177 176 181 175 169 170 169 164 162 160 159 155 155 151 148 146 144 145 142 139 136 136 141 128 117 121 122 109 96 84 75 72 65 58 59 51 50 45 43 35 23 23 25 19 23 24 27 55 75 83 92 118 150 156 166 170 161 168 176 176 176 176 179 180 181 182 181 181 184 189 193 188 178 173 175 181 180 174 181 177 175 176 178 174 173 178 175 172 173 175 171 172 174 175 175 172 170 169 165 160 159 158 157 155 153 151 147 145 143 144 143 139 139 138 134 133 120 107 98 91 91 88 73 68 67 60 57 56 50 43 37 34 28 18 18 21 26 28 25 70 85 93 92 133 159 157 166 166 156 160 167 171 173 175 178 174 175 178 177 179 184 181 182 183 184 181 178 178 179 175 172 175 178 177 181 170 174 175 175 174 177 172 170 171 172 173 171 171 169 163 154 155 157 157 157 154 154 150 148 144 144 145 144 141 142 140 137 131 123 107 96 84 73 78 77 69 65 58 49 53 55 51 37 34 28 18 14 19 26 28 26 89 88 75 119 158 159 152 161 166 156 154 164 168 173 175 176 177 175 174 175 174 178 187 190 198 184 179 174 171 179 177 171 176 178 172 177 176 174 175 177 176 174 171 171 174 171 169 173 172 167 158 151 159 157 158 157 157 153 150 147 145 142 144 144 139 138 141 144 138 129 116 108 96 85 71 62 62 60 63 53 42 41 42 39 31 35 26 15 18 18 22 28 48 49 88 122 145 150 146 157 164 160 155 162 169 171 171 172 172 173 175 185 189 194 190 186 185 194 188 181 180 185 177 172 170 171 168 179 172 174 176 178 175 170 174 175 169 170 171 173 167 162 158 154 154 157 157 154 153 155 151 149 147 145 144 142 142 139 144 146 132 122 112 102 90 87 80 68 58 49 51 57 54 42 39 38 35 36 29 16 16 16 22 26 35 71 73 109 138 144 141 151 163 157 159 162 172 175 172 179 185 185 184 187 188 186 184 185 184 184 184 184 185 186 183 165 168 173 173 176 181 181 181 181 177 180 176 174 171 173 169 166 167 164 161 158 159 158 159 159 156 155 153 152 150 146 142 141 143 142 146 138 133 126 111 96 85 78 80 77 68 56 47 44 50 52 35 31 33 36 29 20 16 19 25 29 51 52 71 106 129 142 143 149 161 167 162 166 171 174 171 172 174 178 181 175 182 186 188 189 190 184 182 184 183 183 181 177 175 167 165 164 171 178 173 170 171 177 173 168 170 173 171 168 165 165 166 164 160 160 160 159 154 154 154 153 151 144 141 142 142 144 147 143 136 128 118 108 99 90 84 81 74 57 54 47 40 42 40 34 32 33 32 27 19 17 24 28 43 60 95 101 126 142 143 148 154 159 165 165 169 173 174 179 178 180 181 185 191 188 191 188 191 191 188 186 188 186 183 184 187 194 189 185 186 182 176 180 186 187 184 181 178 178 173 171 167 164 164 162 161 161 162 160 160 155 155 153 148 143 141 143 143 145 148 145 141 133 125 116 108 104 100 102 93 69 54 48 41 39 41 34 30 29 27 32 27 29 30 32 70 74 80 108 123 136 141 143 155 160 167 171 174 176 179 180 180 180 186 188 186 191 188 191 190 185 186 183 184 181 177 190 190 186 190 197 197 192 189 184 189 187 182 177 175 172 173 172 169 165 165 163 161 162 162 161 161 158 155 151 148 145 141 142 143 146 147 145 140 136 129 115 111 111 116 116 111 96 70 46 33 42 36 32 31 30 25 25 25 32 38 40 33 38 83 87 101 133 140 145 153 156 163 169 172 175 176 177 180 184 180 179 182 182 198 203 194 192 187 187 189 189 190 194 192 193 196 194 193 190 184 182 191 187 184 179 180 175 174 174 173 170 167 165 164 166 165 165 163 158 153 153 150 148 144 144 145 149 149 146 142 134 127 118 115 115 122 124 123 104 85 67 55 45 37 28 31 35 32 26 26 32 36 42 48 94 85 82 106 125 139 144 155 156 164 167 174 181 187 188 190 193 195 197 195 204 204 201 202 206 196 199 198 197 195 194 195 190 194 193 194 194 192 190 188 187 182 177 178 176 177 175 175 174 170 167 168 170 169 167 163 158 155 155 153 152 149 147 149 150 146 142 142 134 124 120 117 121 127 130 128 116 98 72 51 33 40 32 26 28 39 31 21 27 34 38 94 73 76 91 104 123 141 140 153 162 166 169 175 184 183 184 193 199 199 203 197 198 197 200 198 198 193 195 194 197 197 193 192 191 190 192 195 192 188 189 188 187 178 176 178 178 180 180 180 180 178 177 170 171 170 168 161 158 158 158 157 157 155 153 151 150 145 141 141 132 123 119 117 123 129 134 134 127 116 96 72 51 43 35 32 29 36 48 48 36 45 43 59 60 82 88 110 120 138 145 157 162 164 165 176 183 188 186 188 193 196 195 193 197 199 196 192 196 194 200 198 196 195 193 190 188 191 193 195 194 190 188 189 186 175 175 184 184 186 181 178 181 184 179 174 172 169 166 161 158 159 161 159 160 158 155 153 149 144 141 135 128 122 118 118 124 128 138 136 130 117 104 85 66 45 38 33 32 26 37 50 51 49 59 44 50 56 74 86 116 141 151 154 162 167 167 173 182 186 190 191 190 191 201 201 190 184 189 190 194 195 195 195 195 193 192 190 188 184 186 190 191 189 187 181 177 172 176 187 189 188 182 176 180 181 178 177 175 169 167 163 161 159 159 161 161 160 155 152 151 148 141 134 128 123 120 119 126 133 138 138 134 127 115 102 95 67 42 33 30 30 32 36 39 46 52 49 49 51 60 80 112 137 152 158 165 171 172 173 180 184 184 188 183 184 189 189 183 183 190 189 192 193 192 192 191 189 187 186 185 177 177 179 184 187 181 175 174 180 182 188 185 182 181 177 178 176 175 176 172 165 163 159 155 153 152 154 155 155 151 155 153 150 141 134 128 126 122 119 129 136 135 138 135 131 121 116 111 90 55 34 28 32 31 35 49 45 45 31 31 40 61 83 118 143 155 163 169 175 179 183 188 190 187 187 186 181 180 179 179 181 182 182 185 189 191 189 189 185 185 183 188 181 174 174 181 182 172 175 181 179 177 182 177 177 175 175 172 167 165 165 159 156 152 148 144 138 142 146 149 148 147 147 144 147 145 133 127 128 124 121 128 139 139 140 136 135 129 116 124 122 86 48 32 35 30 26 31 35 86 37 38 44 62 85 122 147 160 168 175 184 189 189 192 200 198 194 194 198 190 186 180 177 176 179 181 184 182 187 185 185 182 179 186 178 168 169 176 174 173 172 170 172 172 169 158 163 160 156 160 156 150 151 144 138 133 131 127 125 126 132 137 140 141 135 137 142 140 129 127 128 123 127 129 139 141 141 139 138 138 132 118 110 114 90 58 44 47 55 70 104 117 28 40 52 72 100 130 145 166 171 179 189 193 191 190 193 189 194 190 189 187 189 191 188 181 177 178 180 180 180 180 179 180 178 181 175 165 163 167 165 162 159 160 162 162 152 138 138 129 120 123 127 133 132 131 132 128 118 117 116 115 118 121 122 125 120 121 126 128 126 129 128 125 134 133 137 140 136 134 136 145 149 145 134 106 108 85 65 68 91 102 117 114 28 52 42 76 105 143 151 174 175 180 190 191 190 190 193 190 183 188 184 183 181 175 176 178 179 177 171 172 171 170 171 172 175 178 172 162 157 159 156 155 152 150 138 143 129 117 111 102 101 102 98 100 101 107 111 112 112 113 123 117 112 114 115 112 113 114 116 116 120 123 125 128 135 134 134 139 135 131 131 136 156 153 145 144 125 82 90 103 104 111 98 96 32 45 40 72 127 148 153 169 176 179 184 185 187 184 182 181 174 174 174 177 175 170 167 168 169 171 173 168 163 159 161 167 172 171 168 159 152 152 153 146 140 139 129 128 113 106 103 102 87 78 76 75 82 89 93 95 102 111 112 108 109 112 108 111 110 108 112 116 122 122 127 128 134 133 132 139 128 127 135 131 135 151 151 140 141 112 82 107 116 98 77 102 56 41 38 96 147 143 152 168 174 175 172 172 171 166 172 169 173 166 159 160 163 164 158 158 162 160 162 157 160 155 158 162 165 165 164 157 147 145 148 139 126 124 127 122 108 110 113 101 85 82 96 100 102 108 119 120 126 128 128 128 123 119 118 119 118 114 111 120 124 126 134 131 132 133 135 137 126 129 134 131 127 134 146 140 136 129 124 127 107 120 99 112 55 43 46 111 154 151 157 163 164 164 157 152 153 159 167 141 141 142 138 133 128 138 142 145 150 151 150 151 157 153 149 159 162 159 160 155 148 146 150 142 129 122 122 117 110 108 102 100 104 112 123 132 125 131 140 142 137 142 138 142 142 133 126 122 126 123 124 132 131 134 128 132 132 134 137 134 128 133 131 132 136 138 136 139 140 146 129 112 109 107 128 144 60 45 69 131 151 146 143 144 148 149 142 135 134 141 127 119 107 105 103 106 105 108 115 127 139 140 137 143 151 149 147 160 166 161 157 154 146 141 138 136 131 125 116 115 106 99 104 115 122 112 107 97 104 99 104 110 112 122 130 130 138 142 145 139 136 129 129 139 136 133 136 137 133 135 139 132 131 131 132 134 131 133 134 132 140 140 118 111 125 106 128 148 65 66 91 144 156 143 130 127 128 128 129 128 122 116 99 95 98 86 79 80 85 92 98 107 119 127 129 132 142 143 140 148 161 164 160 153 143 137 130 126 123 118 111 105 100 103 111 115 97 83 81 92 74 53 16 36 47 38 22 38 36 56 93 113 128 133 140 143 134 132 139 138 134 139 140 132 129 128 133 131 130 131 127 118 140 148 123 117 122 90 95 125 50 103 128 158 150 136 116 105 103 110 114 109 106 107 108 110 115 113 108 105 96 95 96 92 97 108 122 122 133 133 131 144 157 162 160 156 145 137 129 123 119 115 105 104 108 109 108 93 79 95 94 82 124 112 48 60 44 43 32 43 69 59 54 75 100 115 129 128 130 134 137 137 138 142 140 132 132 128 132 128 127 123 125 136 125 129 111 114 105 111 101 125 105 116 157 147 157 131 106 94 95 113 122 124 118 121 129 132 135 142 144 134 124 109 102 103 96 93 97 110 124 123 120 141 162 166 162 158 152 143 139 131 122 116 116 114 114 106 102 90 102 99 80 142 162 133 57 64 57 67 78 100 108 104 93 89 99 106 109 120 133 141 137 138 142 144 138 135 135 135 132 127 126 125 121 136 118 137 133 116 99 105 104 132 103 155 176 159 160 137 111 99 108 117 125 130 141 143 148 142 124 98 67 32 45 59 76 80 75 91 93 94 96 104 120 137 162 167 166 163 156 149 146 135 126 122 123 116 111 104 101 104 106 98 107 117 120 121 107 113 139 126 137 120 120 124 120 120 126 128 131 135 139 137 136 138 143 144 137 135 137 132 127 126 125 120 120 141 137 134 128 118 110 102 110 118 130 124 164 152 159 153 137 128 137 137 138 133 110 93 81 75 54 14 22 92 93 50 49 80 89 79 81 86 88 94 107 138 170 178 177 170 161 154 151 135 124 126 121 110 113 128 114 95 100 116 118 111 115 117 124 137 152 137 141 131 130 129 127 133 143 143 146 146 144 142 142 143 145 145 139 139 139 132 125 127 129 120 116 120 136 129 111 97 115 103 100 116 99 160 149 151 152 157 151 147 149 140 105 62 48 66 100 131 110 35 54 48 35 54 51 115 87 84 89 94 87 92 101 145 180 182 182 175 168 160 151 137 123 128 122 120 136 149 109 113 122 112 113 124 132 138 141 144 146 144 137 138 126 133 137 138 138 139 148 146 149 147 147 143 147 143 140 143 136 127 127 126 123 119 113 115 129 130 113 93 109 107 103 120 146 128 140 151 152 162 159 153 139 104 75 96 93 82 98 110 116 69 48 72 84 91 100 115 111 80 105 108 99 94 98 150 190 195 192 184 173 163 150 139 128 124 122 135 158 140 138 137 118 107 115 121 131 133 129 131 132 129 126 126 128 131 133 143 153 153 150 147 147 148 144 146 146 142 138 140 134 129 129 124 120 124 117 111 110 105 105 113 120 109 107 134 116 142 160 147 158 147 153 163 137 101 92 87 105 116 114 118 115 110 122 129 134 135 141 130 120 110 94 110 113 111 100 156 201 201 194 188 178 166 152 142 128 122 124 137 156 150 149 129 114 107 110 113 115 117 121 117 121 121 127 130 140 142 140 142 144 148 148 145 144 145 145 148 148 142 138 137 131 130 127 119 115 118 118 112 121 116 97 126 130 119 127 133 111 163 138 148 150 141 142 139 118 93 91 106 122 132 137 137 124 121 132 127 133 126 119 124 140 134 121 133 148 123 107 180 213 207 195 189 177 169 157 145 130 124 129 134 137 145 141 129 128 128 128 127 125 129 128 127 128 130 133 139 140 144 152 155 158 151 148 145 143 143 146 148 147 143 140 137 131 129 125 118 112 114 118 98 98 107 109 122 141 121 129 128 115 146 136 150 155 154 159 162 154 148 131 135 142 144 142 142 143 146 144 134 122 117 108 113 126 128 132 138 137 104 145 208 215 202 196 187 180 172 164 150 136 119 132 139 137 143 143 140 136 139 142 147 150 149 150 147 146 147 148 150 154 152 150 152 152 151 149 145 144 144 146 145 144 142 143 141 133 126 120 121 109 115 118 90 98 105 108 114 154 128 126 126 128 124 128 152 153 158 163 170 171 167 161 167 136 124 130 132 128 131 128 123 113 105 107 121 124 130 134 129 120 114 187 221 213 204 194 187 182 176 170 157 143 121 127 139 142 148 152 155 153 151 153 157 157 158 156 157 162 163 164 161 161 163 160 158 155 150 148 146 144 143 145 146 145 143 142 139 130 126 121 121 119 111 119 109 97 99 117 124 148 118 122 116 122 101 126 145 153 165 164 166 176 185 176 145 138 139 122 120 114 115 117 116 113 119 125 131 134 136 135 132 121 142 208 214 206 198 189 183 180 175 172 163 150 128 123 141 146 150 155 160 159 162 163 164 165 164 166 164 167 168 168 166 165 164 164 158 153 151 148 147 146 147 146 147 145 144 141 137 130 127 123 120 122 109 122 111 83 83 108 128 147 119 115 123 103 96 130 146 153 160 170 177 179 174 160 164 181 151 128 124 127 120 118 124 126 129 135 140 147 147 138 135 117 156 198 208 205 194 187 180 176 172 166 160 150 134 127 136 143 148 156 160 157 166 169 171 171 169 168 169 165 167 170 163 163 165 163 160 155 153 151 150 152 150 150 149 146 143 138 134 130 127 120 119 112 111 107 98 94 88 111 134 152 106 106 133 86 102 134 146 155 164 172 181 176 174 187 173 150 141 149 140 135 133 136 139 140 141 145 150 151 147 138 135 118 165 182 205 202 193 185 177 170 166 159 145 140 132 128 132 139 146 158 161 150 164 166 168 171 171 172 177 176 169 167 163 162 163 160 159 156 153 152 150 147 151 151 150 146 142 139 134 129 126 118 121 110 119 105 96 107 102 101 146 149 104 105 137 76 99 126 147 151 165 170 170 173 180 167 157 179 177 177 164 150 143 148 149 147 149 153 155 153 144 136 128 133 168 173 199 213 198 184 176 167 162 154 139 135 135 137 128 136 139 152 165 149 168 159 138 157 165 168 167 169 169 166 165 163 163 161 158 157 156 154 152 150 150 152 150 146 142 141 130 126 123 117 111 118 110 110 78 99 106 101 143 146 130 142 154 77 74 112 142 148 164 168 169 174 163 161 177 175 171 168 169 173 158 149 148 146 156 153 154 151 142 136 123 160 166 171 195 215 201 182 178 163 158 148 136 137 141 144 138 138 142 144 156 169 175 158 136 144 170 167 167 170 171 167 166 165 162 158 155 154 154 156 154 152 153 152 149 144 142 140 136 129 122 119 104 110 108 100 70 103 112 127 138 144 152 163 158 72 75 109 146 150 165 169 174 168 159 176 174 172 168 169 174 178 173 162 159 155 154 151 151 151 142 130 134 172 168 174 195 214 196 176 174 164 156 146 137 137 144 146 136 132 141 142 150 158 170 174 164 161 167 167 165 166 167 167 168 165 159 157 153 151 153 155 154 153 154 152 149 144 144 139 132 126 119 117 114 106 107 84 69 105 105 132 141 138 148 157 150 64 79 113 150 149 165 165 166 166 171 177 173 177 185 188 188 187 187 181 179 175 163 159 153 149 137 135 160 173 170 171 204 221 201 181 175 166 157 147 138 139 143 148 138 135 137 141 152 154 163 177 177 168 164 163 164 165 164 166 167 165 160 155 154 156 156 155 152 151 151 149 147 144 145 137 133 125 121 111 113 97 105 91 80 102 93 131 137 140 145 149 147 56 74 106 149 152 162 166 163 173 179 178 182 187 202 208 201 203 202 195 196 192 184 176 165 154 151 163 173 174 165 171 209 218 199 178 172 164 157 149 141 140 141 142 142 141 136 136 149 158 163 163 166 171 166 168 166 166 166 167 168 168 163 157 155 155 158 156 153 151 146 145 147 144 140 135 131 125 119 109 100 110 102 94 100 97 96 123 138 146 145 144 147 67 72 98 145 148 160 167 168 176 174 180 180 187 199 209 209 208 202 200 196 194 190 194 190 181 178 177 177 174 165 177 210 215 181 171 168 163 156 151 147 145 143 139 138 140 140 138 148 152 157 161 167 171 171 169 166 166 167 169 168 168 164 159 157 155 156 153 150 147 142 139 139 136 135 132 126 121 114 110 92 96 88 102 93 118 124 119 139 141 143 140 140 81 81 82 137 150 161 169 174 175 173 182 185 197 203 206 209 202 199 200 195 198 198 206 200 189 180 170 177 171 168 179 202 201 177 176 168 159 155 153 152 150 150 144 138 133 137 147 151 153 155 157 163 167 169 167 166 167 168 168 168 165 163 160 158 159 157 155 150 146 142 140 140 134 132 129 124 116 108 108 87 84 82 93 113 129 116 124 118 129 134 131 127 83 89 83 138 156 163 169 174 175 176 185 189 197 201 199 199 196 194 195 199 201 208 206 192 180 166 162 177 170 171 179 189 189 180 175 166 157 157 156 155 153 148 143 140 130 132 142 149 157 162 161 161 163 166 166 168 170 167 167 166 165 165 160 157 158 158 155 151 147 142 139 136 133 131 128 122 115 109 109 97 100 97 112 111 131 121 88 64 92 108 106 99 101 94 83 138 156 164 169 175 177 179 182 184 188 192 193 192 192 192 192 195 197 198 198 187 170 160 167 177 167 169 175 186 195 186 178 163 162 157 157 156 154 150 141 134 131 131 131 142 158 167 166 164 166 167 168 170 170 171 169 165 165 164 161 159 158 157 156 151 147 144 138 134 133 128 124 122 116 105 106 109 96 105 102 117 126 111 72 56 59 60 63 60 99 102 89 126 153 162 169 172 175 178 179 182 186 188 189 189 189 191 192 191 188 186 180 173 166 171 177 171 166 166 175 194 203 180 170 161 160 157 154 152 150 147 145 139 132 129 130 143 150 164 168 170 169 167 165 168 170 173 171 165 164 166 162 155 152 152 152 147 143 145 138 133 128 124 121 121 118 109 99 117 96 130 105 131 112 108 79 81 62 58 54 53 94 94 95 122 151 158 166 171 174 175 177 178 181 184 184 183 186 187 186 182 178 173 169 169 170 183 173 167 165 169 175 199 203 177 170 159 155 152 150 147 144 146 149 147 138 132 129 140 147 158 159 163 164 168 164 164 166 169 169 167 165 161 158 153 151 150 153 149 146 145 142 132 125 122 120 121 116 118 106 123 117 132 108 128 117 107 82 83 61 59 56 55 104 95 82 108 142 154 164 169 171 172 173 174 177 180 179 180 181 182 177 170 167 166 161 162 172 181 168 164 162 168 176 197 209 185 171 156 149 150 151 146 150 149 153 150 142 137 129 135 146 159 158 161 157 164 161 163 166 167 165 164 161 156 155 153 151 154 155 150 148 143 136 131 127 123 118 123 115 130 110 111 122 131 127 116 130 117 90 91 54 58 56 56 101 103 71 88 138 147 159 166 170 169 171 171 176 176 178 178 175 171 168 163 157 157 154 152 165 174 165 166 164 166 181 221 204 182 172 160 152 151 154 153 150 151 152 147 140 135 129 130 146 159 162 163 155 154 160 161 160 162 162 160 155 154 154 151 148 149 146 146 146 142 137 132 129 125 115 118 115 115 118 96 119 135 129 145 125 124 94 84 53 59 56 58 99 99 72 78 122 143 157 164 166 167 168 168 172 173 170 170 167 165 164 159 159 154 152 153 162 171 169 169 168 172 193 212 187 182 168 161 152 150 155 154 159 152 150 147 132 128 124 123 140 157 165 166 162 152 159 157 158 160 158 153 155 151 148 146 144 142 138 136 141 139 138 134 128 123 120 123 120 118 117 98 124 139 146 146 114 123 94 79 55 57 56 56 85 91 74 77 121 136 153 160 164 164 164 164 167 165 165 164 161 156 156 154 155 145 151 166 168 157 169 169 169 183 195 185 182 182 165 156 154 153 150 154 154 148 141 135 129 124 119 120 139 156 160 162 162 154 151 152 154 156 157 155 153 148 147 146 145 140 140 133 132 134 137 134 130 122 127 124 118 119 111 100 98 140 131 142 132 121 93 77 56 58 55 55 65 74 65 79 121 138 149 152 161 162 161 160 160 158 157 160 159 156 155 154 146 140 157 182 190 159 163 169 172 170 176 167 164 187 183 158 152 154 149 141 142 138 130 121 116 118 114 118 141 158 161 163 161 153 152 150 146 149 153 153 154 148 145 142 141 138 135 128 122 128 135 133 131 121 121 123 121 117 108 109 89 113 135 150 129 117 87 76 57 57 54 55 55 61 53 85 109 132 143 152 157 158 157 157 155 152 153 147 149 149 152 143 135 140 172 187 200 166 131 156 150 152 152 156 150 151 167 154 144 139 133 126 124 107 91 96 107 109 107 120 144 158 160 161 159 154 152 147 145 150 153 154 151 147 145 141 140 139 135 129 120 116 127 131 124 116 121 115 119 110 120 104 107 116 121 155 145 117 93 68 54 57 54 55 57 60 62 79 94 132 144 150 152 153 151 149 148 146 145 143 144 144 141 134 135 145 175 178 176 187 158 128 128 130 137 133 137 136 137 143 132 118 116 105 75 53 45 58 71 89 102 128 150 155 158 158 155 152 145 138 138 143 141 143 141 140 139 138 135 130 130 129 120 118 131 124 117 116 118 111 112 109 128 122 118 118 122 153 152 104 93 66 52 57 54 55 57 56 64 94 82 124 136 146 147 148 147 144 144 143 136 133 138 137 132 132 131 157 175 173 165 173 169 95 104 104 114 130 133 118 113 122 119 100 85 75 87 94 84 98 93 123 137 139 147 155 158 157 154 151 148 140 138 138 135 134 136 136 135 134 132 124 127 130 120 112 133 132 121 119 108 105 110 110 130 121 119 128 145 140 151 119 83 58 56 54 54 55 57 55 68 85 89 122 129 138 144 146 146 144 140 138 132 131 138 137 131 133 132 165 181 171 172 163 155 115 46 78 101 105 112 109 106 97 93 82 91 108 105 121 99 102 108 120 134 133 143 149 153 155 153 150 145 142 144 141 138 137 135 138 142 141 136 132 126 130 124 116 129 134 122 119 106 95 115 108 139 114 115 125 162 143 140 122 96 76 58 53 54 54 58 57 78 86 98 108 127 129 137 139 136 139 132 137 137 139 140 136 131 119 131 163 170 172 165 149 154 133 103 69 81 76 74 76 70 72 66 67 107 110 110 117 106 97 112 104 127 138 146 150 149 149 148 149 133 126 130 130 130 137 137 132 141 145 139 138 131 125 117 116 132 125 126 132 115 98 118 114 133 122 119 109 167 134 118 121 92 75 62 57 53 56 57 55 61 92 104 109 123 126 134 134 130 131 133 132 142 146 137 119 121 111 142 159 170 161 152 168 147 131 111 90 78 66 80 65 49 88 66 73 81 102 86 123 101 103 104 115 121 141 140 139 141 146 143 135 127 125 120 121 117 127 134 134 137 143 138 140 134 120 109 116 132 126 127 123 112 112 111 116 125 111 114 103 132 127 126 129 97 60 51 57 51 52 58 58 55 88 104 118 113 119 130 132 130 129 131 141 146 144 130 110 111 113 147 149 150 152 152 148 161 134 132 133 134 105 98 83 83 96 69 40 91 99 76 121 95 109 90 116 115 130 137 139 139 133 127 126 115 114 110 111 107 136 116 120 129 133 139 141 138 132 108 104 132 115 123 123 108 107 93 107 114 116 119 127 129 120 128 123 89 70 55 52 54 52 59 61 61 77 98 119 107 114 119 125 130 127 135 152 147 138 119 103 122 114 160 142 131 137 151 142 141 126 157 121 137 106 107 82 72 69 72 77 90 98 75 108 121 98 95 101 112 118 124 129 134 128 124 129 117 101 83 95 90 108 96 102 98 123 140 131 129 129 101 98 122 117 128 118 93 100 94 120 118 117 130 136 126 124 145 110 85 73 65 52 53 56 58 58 52 83 95 102 110 100 118 123 133 128 136 149 131 114 105 109 129 124 108 137 123 147 145 136 136 138 159 136 114 127 112 105 61 71 71 87 82 109 76 77 127 81 104 95 114 108 112 112 115 114 109 105 106 96 79 87 116 93 90 103 67 91 135 124 122 112 100 95 126 127 118 111 88 103 98 118 112 128 134 121 151 143 130 110 117 68 76 58 53 56 56 62 55 83 92 90 105 97 123 117 132 126 142 148 127 111 132 135 128 129 130 114 139 137 125 129 126 117 103 83 98 90 136 103 81 86 80 87 69 84 78 90 109 95 104 92 109 107 94 103 112 109 104 106 113 87 90 69 88 104 104 87 75 81 126 128 108 95 82 119 144 119 103 114 90 97 113 109 117 135 151 124 128 151 136 116 124 170 73 67 56 59 57 61 50 82 91 92 90 93 113 118 124 125 151 133 132 108 139 124 131 116 107 163 122 140 115 124 97 118 117 86 102 103 108 113 70 85 89 68 67 70 67 87 95 109 88 96 119 99 90 87 99 109 88 116 96 88 88 79 74 90 112 88 77 98 110 119 98 83 84 100 134 105 108 100 107 96 126 116 144 119 147 140 147 155 133 96 95 167 148 41 60 56 57 56 52 66 81 105 80 88 101 106 114 136 133 123 121 104 129 97 119 105 126 102 85 113 136 129 106 104 118 84 93 105 96 105 55 83 95 75 68 85 86 98 96 104 96 117 111 100 77 77 93 100 95 91 86 89 86 68 63 68 84 101 75 108 107 113 85 92 88 99 139 117 97 101 102 90 112 126 152 125 155 129 163 161 154 111 90 156 199 69 54 57 56 57 54 54 82 102 78 86 91 99 110 125 115 134 127 113 109 97 103 82 93 70 79 102 114 120 95 112 126 99 104 109 101 88 89 91 94 86 79 90 102 100 88 94 108 115 97 100 89 83 103 83 80 72 83 76 84 84 83 78 79 84 80 98 112 105 83 92 90 115 127 107 98 104 97 106 115 100 163 126 162 117 155 141 143 126 70 156 234 99 60 64 56 59 56 58 81 99 74 84 87 96 116 101 115 121 113 111 108 89 85 73 103 67 64 66 73 95 75 89 104 92 88 92 87 85 95 103 108 105 94 88 95 109 95 102 90 96 99 92 89 83 79 53 72 87 96 104 107 96 93 87 72 81 85 102 108 91 95 86 92 119 131 100 88 101 101 113 125 114 161 114 168 106 159 134 134 111 73 193 223 157 66 65 56 60 56 59 64 115 72 96 88 102 100 95 107 107 114 145 108 89 88 107 94 95 87 76 65 48 40 53 51 61 52 62 71 68 77 73 81 82 72 75 67 74 70 71 64 67 67 68 68 72 79 97 109 115 121 125 122 108 96 86 78 92 102 120 101 69 72 75 104 126 124 89 98 103 106 132 136 131 152 143 162 129 152 125 128 118 115 231 208 195 63 75 58 59 57 57 53 94 84 88 95 95 86 77 107 110 105 113 123 102 92 116 82 107 108 102 93 78 88 90 91 90 80 70 60 66 66 65 64 65 62 60 61 64 68 74 83 90 93 98 105 112 113 125 132 127 125 119 118 121 105 95 97 94 105 115 83 62 65 77 108 126 106 101 104 112 108 136 156 155 149 113 137 147 122 121 125 92 184 228 207 206 90 70 57 59 56 57 54 74 87 78 98 90 92 63 99 115 122 125 122 104 121 119 112 116 118 127 124 111 121 113 119 128 132 133 117 112 112 104 102 106 99 107 106 107 116 116 113 129 135 131 131 140 137 136 135 128 123 125 122 114 107 93 98 95 107 104 74 65 64 84 114 122 121 100 110 127 107 139 166 140 148 110 131 135 106 116 116 145 231 219 208 207 133 69 59 59 57 58 54 62 89 86 98 88 103 71 94 127 115 118 116 115 111 135 127 129 133 147 144 137 148 143 140 137 140 149 143 128 124 123 118 117 118 128 130 139 138 141 140 142 140 125 118 124 126 130 130 130 114 122 123 115 121 106 78 83 106 96 75 64 67 95 115 112 136 95 114 120 100 135 180 141 128 120 133 121 111 110 115 207 231 215 215 208 192 79 61 59 59 57 58 54 83 109 85 65 116 96 86 122 119 119 122 101 108 126 116 122 125 135 155 160 169 164 153 151 148 152 157 148 136 128 133 139 133 137 137 133 133 141 127 140 121 119 116 119 130 131 117 116 118 121 130 126 118 99 97 89 92 73 64 58 78 96 111 106 138 94 119 119 108 138 166 140 126 142 135 117 105 116 181 228 222 215 215 204 206 125 65 63 62 59 58 54 81 101 85 66 119 93 86 106 108 98 111 98 92 96 105 129 143 143 149 156 170 162 156 170 157 145 150 149 132 125 136 129 124 124 101 107 108 124 124 114 113 106 110 132 122 122 123 120 117 122 129 118 113 107 91 82 96 67 68 65 86 98 117 100 126 101 107 126 120 128 148 141 128 125 121 120 97 153 224 226 221 221 218 211 216 166 70 67 65 64 58 56 66 96 86 66 89 88 77 89 131 101 81 83 76 86 111 120 135 144 145 154 152 165 165 160 138 124 137 143 135 141 134 103 121 116 110 103 97 98 100 105 124 103 96 110 118 116 118 124 114 116 140 125 110 118 111 85 99 64 70 92 109 93 107 97 122 125 113 125 143 117 150 137 119 119 122 125 140 204 229 222 222 221 219 214 203 200 73 71 68 64 59 56 61 92 80 66 88 73 84 73 131 93 78 75 87 93 116 119 128 160 142 145 144 147 144 140 138 127 113 122 119 147 128 86 114 127 135 102 109 95 104 105 111 121 107 117 130 132 130 118 121 114 105 109 100 106 117 84 96 75 66 108 111 111 103 106 120 134 107 129 143 128 153 133 114 131 82 116 196 231 227 223 224 224 221 216 200 215 76 75 73 65 60 61 64 75 86 62 81 69 71 84 103 73 76 72 88 100 128 147 147 147 144 142 133 128 127 101 115 129 131 108 126 125 100 97 104 115 118 102 120 104 98 98 113 125 118 119 124 127 132 126 127 116 100 100 124 108 111 105 111 88 75 113 110 119 106 123 122 141 112 133 137 144 114 124 116 110 108 182 211 220 224 224 225 227 225 217 202 201 75 75 73 68 62 59 56 59 69 71 80 70 72 78 75 78 70 66 81 117 114 154 130 133 155 132 130 112 110 108 122 125 111 94 102 117 123 108 101 118 124 110 108 85 91 117 106 115 138 137 136 128 120 121 119 104 112 120 122 122 101 125 100 100 76 131 110 128 106 105 125 154 102 125 127 136 121 123 130 118 142 210 221 226 224 224 227 230 227 216 205 207 76 76 73 68 61 57 57 59 69 77 77 79 47 52 66 64 58 64 77 108 98 169 133 143 154 142 158 124 111 102 114 121 113 94 85 146 115 103 124 118 129 106 87 95 100 102 110 134 145 130 130 129 124 112 127 116 96 119 148 132 106 105 105 91 60 138 100 125 136 128 151 138 101 131 144 119 134 131 106 153 202 225 227 220 226 225 227 228 228 221 204 214 76 77 73 69 65 59 56 57 65 59 71 96 52 54 82 30 53 74 83 112 116 160 116 132 153 147 153 131 122 105 113 130 116 90 90 114 122 108 125 109 118 93 98 97 106 122 131 132 129 140 128 111 119 103 118 141 118 112 132 135 125 97 82 82 70 125 128 104 119 119 138 130 96 120 139 125 113 124 142 215 228 222 224 225 226 227 229 229 231 223 207 213 75 80 75 70 64 60 60 52 59 62 89 87 55 54 49 48 64 64 95 130 131 118 135 120 161 167 168 157 145 109 118 128 121 113 96 110 97 124 107 100 107 108 113 106 96 112 117 134 139 135 131 118 106 105 101 134 149 137 147 124 95 110 73 75 80 91 108 124 108 121 152 125 95 132 139 139 126 164 199 221 227 231 227 222 227 229 231 231 233 222 209 214 75 79 77 70 63 59 58 52 59 64 78 72 69 50 40 52 50 58 85 99 124 116 147 168 158 165 163 148 149 138 126 122 115 113 115 112 125 125 121 96 106 119 115 135 116 113 91 109 135 126 122 117 110 93 93 121 129 120 126 134 120 76 80 80 92 98 97 129 129 135 128 121 128 123 141 116 152 212 227 227 228 227 227 226 226 229 233 232 233 223 212 216 76 79 77 75 68 58 58 56 57 58 63 68 65 43 46 46 46 61 71 95 133 168 137 120 131 151 140 145 151 146 137 140 137 138 131 116 112 125 121 103 108 121 124 126 112 101 106 128 130 121 115 122 108 88 90 129 134 115 110 118 129 55 82 69 95 87 95 114 141 124 111 130 110 124 126 149 183 224 232 230 230 229 227 228 229 232 234 236 231 225 216 219 78 77 77 73 67 60 59 58 57 57 57 60 62 55 58 45 43 56 60 100 120 139 114 116 155 154 135 134 145 174 167 163 149 148 149 147 115 94 98 95 118 137 132 116 117 109 109 121 129 131 104 97 111 94 99 98 140 97 114 74 134 64 77 76 88 83 77 78 124 134 74 88 84 123 162 205 219 228 230 232 230 228 227 227 230 233 234 235 232 226 219 222 75 77 77 74 69 59 58 58 57 57 57 56 54 57 55 49 47 51 69 76 113 107 126 115 165 139 132 152 178 143 154 145 148 160 155 130 128 117 99 120 138 142 164 133 124 96 118 119 104 130 110 111 119 110 116 107 97 111 102 91 110 74 66 70 93 84 87 95 117 121 97 134 151 189 217 234 227 230 230 232 232 231 227 230 232 234 235 233 232 229 222 218 74 77 78 75 69 58 59 56 55 55 56 58 57 56 49 73 49 54 58 65 86 98 107 120 156 126 142 178 165 122 176 154 154 158 146 135 127 131 106 130 153 171 172 138 128 106 112 128 108 104 112 119 140 128 105 97 76 90 100 108 54 53 51 79 81 79 82 115 108 116 129 165 206 221 226 230 233 235 236 234 233 231 231 232 233 234 234 235 233 228 222 217 77 78 78 75 69 61 58 58 56 55 56 58 56 54 53 91 56 57 58 60 52 112 133 139 139 112 119 159 156 162 181 149 161 156 139 147 129 134 128 113 136 152 153 154 132 116 98 132 109 92 133 97 138 141 113 90 91 59 68 95 63 45 57 69 92 104 105 119 103 161 195 222 233 234 230 232 232 236 235 234 234 231 230 232 235 234 233 235 234 228 223 219 78 78 78 78 72 63 61 59 57 58 54 54 55 57 72 72 54 56 42 44 73 124 139 130 161 147 150 175 163 152 148 158 173 147 146 145 150 128 153 126 112 156 140 137 120 120 97 105 121 108 119 114 117 124 127 100 72 57 49 75 36 81 54 78 99 78 99 129 148 215 231 232 231 233 236 235 235 235 236 233 234 233 232 234 235 235 234 236 234 229 224 220 78 78 77 78 71 67 60 56 56 58 51 57 56 58 68 57 64 49 52 23 107 112 136 171 136 168 145 154 202 160 149 168 151 113 154 139 130 134 126 141 120 111 102 126 106 116 110 83 133 99 120 103 121 140 113 72 73 58 62 52 38 79 85 110 98 99 126 162 211 222 230 234 233 236 239 237 238 237 235 234 235 232 232 234 236 237 236 234 234 227 224 222 78 79 77 76 74 68 63 57 57 57 57 57 55 53 57 55 56 55 67 38 108 104 88 143 166 139 150 165 187 160 155 152 122 134 156 110 119 134 105 132 123 93 96 103 82 94 93 79 130 102 113 117 119 145 138 89 65 47 47 56 52 91 62 88 92 110 177 215 229 230 234 235 234 235 235 239 237 238 235 236 235 234 234 237 237 236 235 235 232 229 225 221 77 78 76 76 75 70 63 58 56 57 57 56 56 55 56 57 58 56 59 67 89 88 81 176 176 129 180 146 172 166 154 137 151 157 136 116 150 115 110 115 110 106 113 117 71 83 82 71 112 90 109 130 113 152 106 140 74 54 49 55 70 67 94 92 145 207 209 210 227 226 231 235 237 237 238 237 239 238 238 234 235 236 237 237 237 235 234 234 230 227 226 220 77 76 78 77 75 72 65 60 58 56 56 56 56 56 55 57 56 57 57 69 67 96 91 145 159 158 155 163 162 154 124 122 158 143 131 139 119 115 112 102 86 106 104 125 90 83 59 81 100 101 98 99 135 149 100 96 67 61 66 50 96 91 109 156 210 218 229 230 226 230 235 235 236 237 237 237 237 238 238 236 236 237 237 238 235 235 233 233 229 227 224 215 77 77 76 74 75 73 67 63 57 58 57 56 56 55 55 56 56 56 56 58 57 69 54 137 156 136 161 160 154 137 129 141 123 137 121 100 118 115 105 97 86 92 78 100 97 58 74 66 93 148 89 135 119 115 107 88 76 71 72 85 105 121 204 223 225 232 227 231 234 234 234 236 237 237 237 238 237 237 239 238 239 238 238 236 234 234 232 232 228 224 221 214 77 76 76 74 76 74 70 66 56 57 57 57 56 55 54 56 56 58 55 57 50 62 66 110 138 146 151 164 136 121 120 113 126 142 105 98 123 82 111 77 81 99 81 69 98 69 117 69 100 111 111 143 87 117 99 74 67 94 102 106 160 203 232 225 230 230 229 232 229 237 233 236 236 237 238 237 238 237 237 237 237 238 237 235 235 236 232 229 227 224 217 212 76 74 76 75 76 74 70 66 59 56 53 55 56 57 54 56 56 56 55 55 56 58 50 70 116 126 147 140 133 120 104 106 107 128 99 102 115 86 100 67 79 76 87 58 100 100 97 86 80 86 136 97 92 103 69 69 100 103 105 185 225 229 223 230 227 229 230 231 234 233 236 235 236 238 237 238 238 238 238 238 238 237 237 233 233 232 228 226 224 219 217 190 74 75 75 75 75 74 73 68 62 58 56 56 56 54 56 56 54 55 54 55 56 59 67 97 107 77 120 136 136 123 124 102 112 114 95 72 119 76 83 85 75 97 107 65 91 93 125 94 100 101 117 99 81 62 87 104 101 142 208 229 223 224 223 228 228 230 231 232 234 234 236 236 236 235 238 238 238 237 238 238 238 236 235 233 230 228 227 226 222 220 209 131 73 74 75 74 76 75 74 68 64 60 56 56 55 54 54 58 56 58 51 53 70 80 80 102 143 72 93 103 102 144 149 93 122 122 87 95 76 94 111 79 92 76 87 74 113 96 120 103 111 96 93 76 66 91 100 121 179 219 220 222 224 224 226 228 229 229 231 232 234 234 234 237 236 237 238 238 238 238 238 238 238 235 234 232 231 228 227 226 222 216 152 88 73 74 75 76 77 76 75 72 67 60 58 56 56 56 55 54 55 59 73 95 117 95 79 97 161 117 60 79 111 88 123 132 115 112 96 68 79 96 53 100 109 78 58 61 123 108 63 69 99 100 67 88 95 103 142 205 228 222 225 221 223 226 227 228 230 230 232 233 234 234 234 234 237 236 238 238 238 238 238 237 234 234 233 231 229 227 225 224 222 176 104 86
