P2
# Generated by OpenCV 4.2.0
92 112
255
65 68 56 46 52 39 37 25 22 17 29 41 63 96 115 113 126 130 126 123 127 130 129 110 105 102 93 95 93 94 102 108 130 128 118 136 152 167 171 169 169 172 173 171 175 175 170 171 170 169 172 169 165 165 165 158 155 153 152 150 146 142 143 142 139 138 136 137 138 131 108 87 59 55 85 64 36 96 56 29 34 40 49 44 30 34 19 20 28 39 45 48 61 53 40 43 37 35 23 23 27 11 25 68 113 135 141 148 157 158 163 157 155 151 159 143 131 125 114 115 121 119 124 131 140 144 138 140 153 173 172 174 178 177 181 177 179 182 179 175 170 173 173 171 168 168 165 160 154 153 150 151 149 142 142 144 144 140 136 136 137 136 124 105 76 59 79 73 33 66 86 29 26 34 36 33 39 34 20 22 27 37 44 48 44 48 57 39 38 38 28 31 13 32 76 119 146 157 161 168 168 168 170 171 178 176 181 176 165 164 159 159 151 148 141 147 159 161 165 162 163 178 180 178 178 179 183 181 182 185 184 178 176 177 172 171 169 169 165 167 161 156 151 151 152 147 145 144 145 142 137 138 135 133 127 118 94 70 72 81 55 28 85 53 17 25 23 23 39 35 22 18 23 30 42 48 40 53 55 37 41 31 39 33 34 70 120 154 161 167 172 176 177 176 179 181 185 186 191 201 188 187 187 188 182 177 171 164 172 176 180 184 180 181 184 182 181 186 186 183 183 185 183 179 178 178 173 169 166 166 160 161 161 159 157 154 151 148 147 143 144 145 141 140 139 132 120 119 114 81 55 79 95 28 53 91 26 28 16 25 33 31 33 25 22 23 39 48 50 54 47 37 45 32 39 44 61 111 150 156 162 171 176 185 189 193 195 195 195 193 196 204 201 196 196 194 192 194 185 177 180 186 188 189 187 184 183 184 184 188 189 189 188 187 185 181 180 178 176 172 168 169 164 160 160 160 158 154 150 146 146 145 143 145 144 138 136 134 124 113 108 105 67 49 94 79 30 73 57 29 15 24 38 31 39 33 21 18 35 50 52 56 32 38 36 46 59 54 97 146 161 158 166 176 182 189 193 195 198 200 201 197 202 203 202 197 196 197 198 197 191 186 187 189 190 190 188 186 188 188 188 188 188 187 188 187 186 185 182 179 178 174 171 169 168 164 161 162 160 151 148 147 145 146 145 146 144 135 129 127 125 117 104 101 103 71 58 98 44 64 100 36 22 19 36 29 38 36 21 17 31 52 54 39 40 38 47 63 47 77 134 159 158 160 171 181 187 194 197 198 200 203 202 203 204 203 204 200 198 198 197 195 195 193 194 193 193 193 191 189 188 187 188 186 186 188 188 184 184 184 184 183 182 179 176 172 169 167 164 163 161 147 142 144 147 150 146 143 138 130 125 115 109 112 111 107 108 95 62 73 83 48 76 46 30 18 32 39 40 31 21 21 31 53 45 39 45 47 62 52 54 111 156 164 161 164 178 185 189 195 198 201 201 201 203 204 205 204 201 200 198 198 197 195 198 199 197 195 195 193 191 189 190 189 190 189 186 188 187 183 182 186 185 182 182 182 180 174 168 167 168 163 157 146 143 149 153 149 145 142 136 130 129 120 108 99 102 102 107 99 76 53 90 66 41 53 36 15 34 46 34 29 24 31 32 52 28 35 48 51 57 59 90 139 163 169 170 170 182 185 192 195 199 203 203 202 205 205 204 203 200 200 200 200 199 197 200 200 198 195 194 192 192 192 193 191 189 189 189 189 186 184 183 187 186 182 184 183 178 174 170 166 170 163 152 146 144 149 150 147 144 140 135 127 119 125 130 108 95 96 87 97 93 52 60 106 72 70 45 17 26 51 32 30 23 34 34 47 37 53 42 56 63 71 109 147 164 172 173 175 181 188 196 195 199 203 204 205 206 204 200 201 205 205 203 201 203 204 199 200 202 202 199 195 194 193 193 191 191 190 191 191 190 190 187 186 187 187 185 183 181 179 175 167 168 165 154 149 148 150 149 146 142 135 130 125 120 120 126 120 99 88 88 78 94 86 50 83 92 87 48 19 16 54 44 28 30 34 30 42 57 52 56 57 61 71 108 148 168 178 177 179 181 192 198 197 199 203 207 207 206 206 206 207 208 205 202 199 199 198 197 199 201 202 203 200 196 195 195 193 191 194 193 193 193 192 191 191 192 190 185 184 182 179 174 170 167 166 159 152 150 150 149 147 141 131 123 115 116 123 120 112 106 99 86 73 75 95 68 46 79 88 61 34 16 51 41 23 36 41 29 39 42 52 57 59 69 77 116 151 172 182 181 179 183 197 197 199 203 206 207 206 205 206 207 205 202 199 200 200 199 198 196 197 197 198 199 198 196 194 194 191 191 193 192 193 192 192 192 193 194 190 186 186 185 179 172 171 169 165 158 151 150 150 150 146 140 133 125 118 111 105 107 109 105 97 87 78 58 67 99 48 73 79 77 47 23 54 48 32 31 35 28 37 56 51 51 62 74 90 130 160 172 183 185 182 187 199 200 199 204 205 205 206 204 202 203 202 201 199 202 201 197 197 195 195 198 199 196 197 196 193 191 191 193 193 194 194 191 192 194 195 191 188 186 186 183 177 171 170 169 166 157 151 149 150 149 144 135 127 121 115 114 110 101 96 101 91 82 78 57 50 91 80 69 83 70 47 28 58 46 32 34 31 26 36 51 41 54 60 82 112 136 147 172 184 187 183 190 198 201 201 203 202 202 205 204 203 204 204 201 201 204 202 195 196 198 196 197 197 194 195 196 194 190 190 192 191 193 192 191 191 193 194 189 188 188 185 178 172 171 170 169 165 156 151 148 149 148 144 136 124 116 110 106 102 103 89 82 90 85 77 66 56 65 96 38 69 78 58 28 44 45 31 32 31 34 33 41 41 53 72 98 112 131 152 169 187 189 185 190 196 199 201 201 201 202 204 207 206 208 206 205 204 204 203 200 200 198 194 196 199 197 195 195 194 190 191 192 191 193 191 193 191 191 194 191 189 184 182 177 175 172 173 171 165 157 149 146 147 146 139 131 124 117 112 103 89 91 85 76 77 83 76 75 67 56 91 48 68 87 70 31 50 49 34 36 32 39 35 27 43 65 85 78 92 123 150 168 188 189 181 189 196 198 198 199 201 201 204 206 206 207 207 205 202 202 200 201 200 199 196 197 200 199 196 196 193 192 193 193 191 191 192 192 188 190 194 192 187 182 182 180 179 176 175 173 165 156 152 150 148 145 139 129 122 117 108 98 97 89 82 79 71 69 79 73 72 61 65 71 62 79 71 27 52 47 38 49 39 39 37 39 49 67 66 61 90 128 147 170 187 190 183 186 194 195 196 197 197 200 204 205 204 204 204 203 202 201 201 200 199 200 198 199 200 199 196 196 194 193 193 192 191 189 191 193 190 190 191 188 184 180 178 177 176 176 174 169 163 156 153 150 151 148 138 127 127 122 111 95 91 84 74 74 68 62 61 64 72 60 61 81 57 60 65 41 40 34 37 57 46 31 41 48 57 57 53 69 101 140 154 170 186 186 187 187 194 199 200 199 199 201 202 204 204 204 205 203 201 200 201 199 199 198 195 197 201 199 197 196 195 193 190 190 191 190 188 189 189 188 187 186 182 180 177 174 175 176 173 168 165 159 157 152 152 147 137 125 127 121 112 97 87 80 71 68 57 57 51 54 68 59 61 75 50 45 54 61 44 32 33 76 48 29 52 59 59 50 71 81 115 137 149 172 186 188 187 186 191 196 196 195 198 202 204 205 204 204 204 202 200 200 200 199 200 199 195 198 198 197 195 196 194 189 184 183 187 190 188 190 190 188 186 184 182 182 177 175 177 181 179 170 166 164 158 151 150 145 139 129 124 120 116 105 99 90 74 64 60 58 59 58 61 56 55 85 57 39 44 57 49 37 30 71 51 35 53 43 51 61 82 91 110 126 151 171 178 189 188 186 191 197 199 199 201 203 204 205 204 203 204 203 202 200 199 199 198 197 196 198 197 198 197 196 195 192 190 189 191 191 188 191 190 188 186 184 181 179 175 173 178 182 178 171 166 165 160 151 146 143 135 130 123 119 119 111 102 93 83 71 67 59 54 48 49 66 51 73 60 50 51 51 56 44 44 65 48 36 57 36 48 61 72 83 96 128 148 170 181 188 191 190 193 197 198 199 198 200 205 204 202 203 202 202 200 197 194 197 196 197 195 198 198 199 198 196 194 193 192 193 194 191 187 190 191 188 186 184 180 179 178 178 179 181 175 168 165 163 156 147 145 140 133 130 125 119 117 110 97 86 78 70 64 50 43 45 44 54 56 60 64 49 50 61 56 52 53 58 60 39 55 31 56 60 73 76 100 113 144 170 179 189 190 189 191 195 199 199 198 199 203 203 202 203 202 201 198 194 194 194 197 197 195 197 198 199 198 197 196 194 192 194 193 193 189 191 190 187 183 184 183 181 182 181 179 178 174 167 164 159 150 145 139 136 134 130 125 122 119 116 107 93 80 69 62 51 40 41 43 46 57 49 79 54 54 69 63 49 53 58 70 43 56 42 49 65 69 75 93 116 146 166 180 186 188 189 192 198 200 201 205 204 205 204 203 204 203 202 202 198 194 195 196 196 194 197 196 196 199 197 196 194 194 194 192 190 189 188 189 187 186 185 183 179 179 182 184 181 175 169 162 154 148 140 134 133 134 132 126 122 120 116 113 105 101 96 87 74 59 48 41 46 50 48 55 52 58 81 70 48 56 64 70 52 54 44 53 69 67 84 90 112 138 164 176 185 187 187 187 196 199 198 203 205 207 206 205 203 203 203 203 198 195 196 195 192 193 195 197 199 198 196 194 194 194 193 193 190 188 187 188 189 190 185 182 178 179 180 183 180 173 165 160 155 148 139 138 139 138 136 130 121 120 116 114 111 107 106 104 91 79 62 42 47 54 54 46 65 60 79 74 59 49 57 67 60 53 39 56 72 80 79 91 106 137 164 175 185 187 186 188 196 203 201 206 208 206 207 206 205 203 200 199 197 197 198 195 193 196 194 196 198 199 199 198 194 192 193 190 189 185 185 188 187 187 182 181 181 180 179 180 176 171 164 160 152 150 148 144 137 138 137 131 122 119 116 116 112 104 108 112 108 95 75 60 46 44 67 56 68 64 87 80 78 38 59 70 49 54 59 62 73 88 88 90 104 135 166 176 184 188 188 190 195 199 201 205 205 205 205 204 205 203 200 201 200 197 197 195 194 194 194 194 196 200 199 198 197 195 196 187 184 184 190 190 186 185 181 183 183 182 184 182 179 177 168 160 152 149 149 146 140 138 135 132 123 117 114 113 111 105 109 114 115 110 95 70 58 49 63 56 60 67 101 74 90 45 39 72 48 54 59 62 74 95 100 94 112 139 169 176 184 189 189 192 196 202 202 201 200 202 204 202 203 200 201 203 201 194 194 197 193 191 194 196 194 197 203 203 199 193 193 192 187 183 191 190 191 187 185 181 185 182 182 181 176 171 166 158 149 148 148 146 141 139 134 131 124 114 109 108 107 108 112 115 115 116 105 86 59 55 66 62 73 77 90 65 82 51 37 67 58 77 72 75 90 107 114 121 128 148 168 175 184 190 194 196 201 206 206 202 203 205 205 202 200 198 197 201 200 198 199 199 193 191 194 195 192 196 202 201 198 197 196 196 194 185 187 184 184 185 177 174 175 168 166 165 158 149 140 137 131 126 127 127 126 133 138 134 122 112 107 104 105 111 116 118 116 115 107 98 80 56 54 63 70 73 79 76 79 64 44 42 54 85 72 74 103 108 109 106 119 154 168 174 186 192 199 198 206 210 205 203 206 206 205 202 200 198 196 197 198 199 200 198 190 191 194 193 194 191 197 198 191 188 187 188 187 187 180 159 164 148 135 137 131 131 133 137 133 127 116 114 111 97 103 112 108 110 120 129 121 111 107 102 102 107 115 118 117 118 114 100 89 75 54 58 64 88 88 80 90 65 56 39 57 82 75 78 102 108 95 100 135 161 173 178 191 194 198 201 206 209 204 199 201 204 205 202 199 200 199 198 196 194 194 193 187 189 193 191 187 187 188 191 184 176 178 176 164 166 143 129 130 103 109 113 99 101 107 110 109 111 116 117 114 108 104 108 109 103 91 97 108 107 104 107 103 106 113 118 118 120 117 109 90 81 73 58 67 90 86 76 85 54 53 39 49 71 72 96 103 90 86 98 144 169 172 186 189 181 179 186 189 187 190 186 189 193 195 198 189 186 192 191 192 189 191 189 184 186 189 190 183 182 179 183 179 169 164 156 144 137 117 105 102 96 95 98 100 83 76 83 82 83 94 102 107 99 96 101 98 95 93 90 90 95 100 102 104 107 112 119 120 120 118 115 111 97 87 64 62 84 85 78 75 56 47 43 43 61 71 111 101 84 87 113 151 167 174 181 163 150 153 158 155 149 149 146 145 146 151 160 161 154 169 175 181 182 183 182 179 185 189 187 182 175 167 174 174 165 160 147 133 129 120 115 107 106 88 81 84 78 79 84 87 92 101 105 102 101 102 94 97 95 88 89 92 98 103 100 101 108 112 119 122 120 118 120 121 113 97 88 64 78 73 72 75 51 35 41 37 48 89 106 95 94 102 116 164 170 162 153 140 132 149 144 130 123 118 111 112 109 108 119 129 131 140 154 161 165 171 173 174 181 185 184 181 172 163 168 170 167 155 147 136 126 118 109 102 95 86 87 103 118 128 135 140 139 135 130 121 122 123 114 106 100 94 99 108 109 111 105 97 103 111 115 119 118 115 118 121 124 110 97 64 56 65 72 75 44 36 35 42 62 102 95 83 102 104 116 160 157 143 138 130 131 144 134 121 108 99 99 97 87 94 104 117 127 133 139 145 152 162 165 167 175 185 184 178 169 159 158 163 157 150 141 127 116 110 98 88 93 109 131 154 165 168 173 170 165 157 148 140 136 129 127 116 107 105 110 110 111 112 105 106 105 111 115 119 118 113 118 120 118 111 113 79 58 63 72 68 48 41 52 74 109 94 100 88 106 93 122 163 151 138 133 133 129 119 129 131 122 114 115 116 112 110 114 114 123 131 135 143 150 156 162 160 168 181 182 171 161 152 148 152 148 133 126 112 99 93 89 97 123 140 135 125 128 126 129 147 145 142 151 144 137 133 131 121 111 111 111 115 120 120 118 110 104 111 116 120 118 112 116 116 113 117 123 98 65 57 72 55 48 44 68 108 139 81 96 96 100 103 130 164 148 138 130 132 132 137 151 150 148 162 164 166 169 157 146 132 120 117 126 133 140 150 154 156 167 180 185 174 162 147 139 142 136 127 112 94 88 89 98 118 126 94 80 83 60 23 29 44 35 42 58 72 82 100 120 128 122 116 114 122 126 129 116 109 109 115 121 124 122 115 110 112 123 124 126 107 77 74 81 64 56 63 80 133 152 100 108 102 108 110 121 171 153 135 132 141 154 160 162 167 174 181 184 185 165 154 143 133 127 127 117 114 121 135 143 152 168 182 184 176 165 149 139 136 125 112 96 94 94 105 117 115 86 94 127 109 86 71 96 58 72 42 32 87 66 44 62 90 114 122 115 125 130 119 118 121 112 117 122 125 121 116 114 117 120 119 123 122 103 74 65 63 66 82 111 139 138 92 109 101 119 105 133 179 156 135 139 154 163 170 177 181 169 128 88 66 57 51 81 101 106 111 120 128 119 122 127 138 158 180 189 185 173 157 140 129 116 105 102 105 109 112 116 105 121 146 118 143 159 84 75 38 72 49 63 132 124 95 71 77 95 110 117 123 122 125 128 127 119 122 126 124 122 119 118 117 117 120 118 131 116 84 59 64 74 95 127 122 91 136 118 107 119 120 151 180 159 139 142 157 172 175 153 104 71 44 20 33 42 46 60 105 122 125 120 124 136 131 132 137 154 186 194 189 177 164 147 127 114 106 114 116 110 113 113 141 144 117 123 171 176 105 90 91 101 106 126 141 132 124 102 81 89 107 111 115 118 118 124 128 126 129 130 126 122 120 119 123 119 124 118 130 126 106 80 71 89 105 109 100 93 183 122 125 122 127 156 178 167 155 158 171 165 116 60 46 96 83 57 93 72 92 87 121 132 137 142 137 137 136 141 145 161 187 199 192 181 171 152 129 115 107 116 113 104 109 146 153 114 140 165 161 152 144 144 148 158 161 153 150 142 134 114 105 109 119 124 128 134 137 142 138 134 137 134 128 123 122 122 125 120 115 121 121 126 113 91 70 87 106 113 98 108 196 132 107 135 144 171 180 174 170 169 166 117 54 54 99 170 86 43 72 50 62 70 138 173 134 118 135 158 156 148 149 162 187 198 196 185 173 156 138 119 110 114 111 114 126 146 122 152 176 175 168 174 175 174 174 170 166 156 150 135 121 119 120 129 143 151 151 147 144 139 138 140 142 137 132 126 123 122 125 124 117 120 115 120 134 91 78 86 109 119 90 121 193 154 117 147 164 180 186 174 175 174 153 103 94 131 136 159 133 80 78 79 101 105 154 163 145 128 126 145 177 169 162 170 192 198 196 189 178 163 144 128 112 109 110 123 143 156 167 180 174 164 161 170 172 167 161 156 148 141 132 122 120 132 141 145 150 150 147 150 153 150 143 146 143 138 132 129 125 121 129 127 123 111 121 124 121 112 83 86 107 113 100 126 160 155 132 154 163 182 184 177 174 171 148 119 133 169 172 169 172 156 149 154 166 170 171 172 163 164 157 156 180 188 175 183 197 197 195 189 184 174 157 138 117 106 114 122 136 158 177 174 167 154 146 143 141 143 141 139 134 130 127 128 145 148 152 159 161 156 149 150 151 151 149 153 146 139 134 132 129 127 127 121 123 112 122 112 114 104 88 86 97 110 141 156 148 130 129 147 158 188 181 177 176 172 145 126 151 171 181 182 177 186 183 187 177 174 157 153 164 177 190 199 197 190 186 194 198 197 194 190 186 181 172 154 129 107 116 125 132 145 165 178 172 169 168 160 154 154 151 144 145 144 148 158 169 172 172 165 164 162 156 151 148 152 153 153 148 142 136 131 131 127 123 126 118 108 113 113 110 95 92 90 90 83 131 161 156 97 111 149 171 188 185 180 178 173 158 153 166 167 164 167 171 173 175 168 158 143 133 143 169 182 188 191 189 188 196 202 196 192 194 193 189 184 179 166 143 115 116 132 137 143 145 165 184 179 178 178 184 178 172 171 176 175 175 179 177 182 182 178 171 165 160 152 148 153 154 153 151 142 134 129 126 125 123 121 118 109 106 117 114 94 92 95 93 68 108 152 143 93 131 176 179 188 185 182 185 186 185 179 176 164 162 154 147 148 143 142 137 132 140 164 178 179 183 184 182 187 198 204 198 191 189 189 184 179 167 154 138 121 119 129 141 147 150 154 173 185 185 184 184 186 181 179 182 187 187 181 184 187 183 184 179 166 159 151 154 156 154 154 150 144 140 131 126 123 120 117 118 111 99 115 108 92 94 97 97 85 122 159 149 96 144 191 182 188 184 189 185 186 187 185 182 159 164 158 148 149 146 148 149 158 172 182 186 188 192 191 190 184 195 206 200 195 188 184 180 169 151 135 127 125 122 128 136 145 152 151 153 180 193 196 193 190 192 186 188 191 189 186 187 187 184 179 179 173 164 160 155 156 155 152 149 142 143 135 127 121 120 120 112 115 95 99 104 97 97 104 105 98 132 161 138 105 162 188 191 188 185 187 186 188 190 191 185 188 182 175 175 177 172 178 184 194 193 192 197 201 199 195 191 185 193 207 203 196 190 186 176 160 141 130 131 132 129 125 132 138 150 158 148 171 196 193 192 195 196 194 191 191 188 186 188 187 186 179 175 175 170 167 164 159 156 152 148 143 138 133 123 119 118 120 108 102 86 93 103 101 102 116 118 108 132 157 111 128 191 182 182 186 186 192 192 192 191 193 200 196 189 193 191 195 196 200 198 199 203 204 204 204 197 195 190 187 195 207 206 197 186 186 175 156 141 130 134 136 132 126 129 133 148 163 157 170 190 174 179 193 194 197 193 190 190 191 189 184 181 180 176 173 168 166 167 163 156 152 148 143 135 128 122 119 116 118 108 99 85 74 97 104 104 130 132 108 130 152 118 164 194 172 179 186 188 192 194 192 195 194 191 195 202 199 199 204 203 202 202 204 205 208 206 202 197 192 188 186 194 206 207 198 189 183 168 153 143 134 135 135 132 127 127 132 140 152 163 184 194 175 167 192 193 193 196 194 191 192 193 187 180 178 178 176 170 164 164 163 159 149 148 141 132 124 119 119 113 112 108 98 75 62 79 97 108 134 141 114 126 155 152 201 205 165 170 186 188 192 193 194 193 187 195 199 198 199 202 204 204 203 205 209 203 206 207 203 195 190 187 187 196 206 202 193 188 181 169 154 147 140 138 136 134 129 127 131 136 144 155 183 197 191 182 192 194 197 197 195 193 192 192 185 181 179 173 171 170 168 166 164 159 152 145 138 132 118 114 116 110 105 97 94 72 57 76 92 113 139 145 119 126 165 168 207 204 154 169 185 191 192 194 194 190 196 200 201 203 201 201 203 206 204 204 206 206 206 208 202 196 191 189 192 201 209 204 193 185 179 169 156 151 148 146 139 135 133 133 131 131 141 149 168 187 193 191 189 193 197 196 197 195 193 190 185 181 176 171 169 168 167 167 163 158 151 144 140 132 112 112 114 104 102 97 90 65 67 75 98 120 141 139 111 119 154 183 199 194 163 166 182 190 193 192 193 196 201 205 205 205 202 203 204 204 204 206 206 205 205 204 201 197 192 193 197 203 211 207 195 188 175 167 157 152 155 153 143 136 130 131 136 138 140 147 164 179 187 195 193 194 196 196 194 194 192 188 187 180 171 169 177 172 167 163 160 155 148 141 135 129 120 116 110 102 87 90 73 59 79 77 107 128 143 138 112 115 134 193 199 185 165 167 182 187 191 192 194 199 202 206 205 208 207 209 206 204 205 204 206 205 203 203 200 190 192 197 198 201 209 205 198 189 177 167 156 156 153 152 141 134 127 125 130 141 145 148 160 174 183 189 196 197 196 196 194 195 193 188 186 182 169 168 173 172 166 158 152 148 144 139 132 127 119 115 102 92 84 79 74 68 92 88 114 134 146 134 106 124 141 196 200 178 162 175 182 183 188 191 197 201 201 205 207 209 208 209 206 204 206 205 206 209 207 206 195 182 195 200 194 198 209 206 196 185 172 162 155 159 152 146 141 132 124 122 121 131 148 155 167 177 181 184 191 197 197 196 195 193 190 187 185 180 177 171 171 168 159 151 144 138 138 134 126 121 114 105 90 85 85 74 70 65 77 91 113 142 155 130 95 125 149 194 202 178 160 175 177 185 190 194 198 202 203 206 208 209 209 209 206 204 208 209 210 211 209 204 194 189 195 195 191 195 206 205 194 179 162 155 155 153 150 149 148 138 133 129 125 121 138 156 163 178 189 186 190 194 197 195 194 191 190 187 182 179 177 174 170 161 153 151 141 136 135 129 122 115 110 104 87 77 76 75 60 59 74 83 111 143 160 140 120 143 157 192 200 180 165 171 179 183 190 197 199 200 204 206 206 207 209 210 208 209 210 211 211 207 201 196 193 194 192 188 189 197 205 203 196 180 159 147 147 152 155 157 159 154 143 133 130 124 125 143 154 166 191 196 192 189 196 198 196 192 189 185 184 182 173 172 169 160 153 149 137 131 130 126 122 115 107 100 91 73 81 77 53 50 73 87 109 132 153 150 150 162 159 189 202 187 160 156 178 187 185 194 199 202 205 207 208 210 212 210 209 209 209 208 206 200 196 197 195 194 191 187 186 200 207 197 191 178 162 143 142 154 163 166 165 156 139 129 129 126 119 132 148 153 172 196 196 193 193 196 195 191 188 186 182 179 173 170 165 160 152 144 136 127 123 122 119 111 103 94 89 73 75 83 58 62 79 104 109 124 145 145 153 162 156 181 200 190 162 153 172 186 183 190 198 202 204 206 208 212 212 211 210 210 207 204 198 191 189 189 191 194 195 189 196 209 207 201 191 178 162 148 146 153 164 166 158 148 134 125 120 119 114 126 147 152 152 177 195 193 189 193 192 190 186 186 176 176 173 166 160 159 150 138 134 123 119 117 115 111 101 92 86 81 83 87 68 63 87 97 105 117 142 150 158 162 158 181 196 197 165 161 174 180 186 189 197 201 202 203 207 210 213 212 210 206 201 195 187 183 182 180 181 188 196 189 199 213 213 210 206 194 171 156 147 149 152 147 141 137 128 116 112 112 109 121 148 158 153 155 181 190 187 190 189 187 183 178 175 173 167 163 156 161 151 135 130 124 119 112 110 107 103 91 83 86 77 90 82 67 99 96 95 113 143 162 163 160 159 173 190 200 195 182 171 176 183 189 194 197 200 202 207 208 209 207 204 201 193 187 178 176 180 183 176 177 187 185 190 199 192 189 188 195 184 159 142 130 125 118 123 124 116 109 107 105 103 114 153 162 157 151 160 184 187 186 184 181 180 174 171 168 163 161 158 154 144 136 130 124 121 113 108 109 105 93 86 77 73 89 79 83 103 98 97 111 150 163 159 160 156 154 186 198 211 195 172 169 179 187 190 192 198 202 204 201 202 203 198 194 186 177 175 173 184 192 179 154 164 171 167 174 168 167 163 171 173 153 123 102 101 93 74 65 85 96 99 97 95 122 159 159 158 154 148 172 186 183 182 179 176 170 166 164 157 155 151 145 139 140 128 121 117 113 112 112 104 93 84 63 71 86 87 83 108 109 96 82 121 147 150 145 143 154 190 195 212 197 178 167 176 186 189 191 196 200 198 195 198 200 193 189 183 170 171 181 187 193 189 151 115 128 140 149 151 151 144 140 143 122 92 77 65 42 22 16 33 62 74 74 95 143 161 156 155 157 149 157 180 181 177 176 172 168 162 156 155 153 146 140 135 136 126 121 116 113 110 108 108 99 86 77 77 87 90 90 92 95 82 41 58 89 105 110 99 166 195 204 208 197 165 164 178 183 187 189 192 194 194 193 192 192 190 187 174 168 176 188 187 189 188 185 135 103 123 122 118 119 117 114 114 92 64 47 46 46 57 75 74 81 83 108 134 149 150 154 154 159 160 163 171 175 176 174 170 165 158 153 151 145 143 134 131 132 127 124 117 119 112 110 112 101 98 95 82 98 82 108 102 96 79 37 39 43 47 52 54 167 199 205 205 202 165 162 175 177 185 189 190 190 190 189 185 185 188 180 167 169 186 193 191 188 186 187 174 143 134 130 105 91 86 81 72 59 48 38 59 72 80 103 89 95 114 127 132 132 141 149 153 159 166 172 165 164 168 173 170 161 159 155 146 141 140 129 120 127 135 129 121 121 118 114 110 102 101 100 73 106 98 95 101 94 75 41 43 42 42 48 53 142 199 201 205 204 162 158 169 174 181 187 188 188 185 184 179 178 178 163 158 178 191 189 187 186 165 144 132 107 131 131 106 95 72 68 70 62 48 53 75 88 108 94 77 86 101 106 106 121 140 145 156 162 161 163 167 158 156 165 166 159 154 147 140 138 134 126 114 119 135 129 120 118 112 112 108 100 97 89 81 88 96 100 95 101 68 46 41 43 44 51 55 115 193 199 200 194 157 155 169 172 179 184 183 182 181 177 170 169 172 166 163 177 171 173 182 165 135 128 125 129 123 127 134 133 97 88 95 118 96 84 112 85 108 99 72 86 89 112 119 127 137 148 153 157 156 152 150 150 155 157 161 156 148 145 139 128 131 124 115 107 135 135 123 110 105 101 103 98 106 102 100 79 94 98 84 90 74 41 44 46 46 51 54 61 170 194 192 184 160 168 169 166 173 179 180 178 178 174 172 176 174 164 170 165 163 159 162 139 144 161 147 137 136 150 151 137 107 102 90 113 109 105 126 133 115 96 103 98 95 109 107 110 126 139 147 136 142 141 126 132 150 155 156 150 148 146 140 133 129 122 112 104 133 133 122 109 105 100 94 100 102 86 67 90 86 99 96 97 85 40 40 45 47 50 52 21 76 141 161 163 146 164 173 164 170 176 175 173 171 172 177 176 161 157 151 149 139 136 130 140 144 149 155 145 139 151 136 125 117 86 49 108 125 112 87 143 117 85 94 106 94 89 99 91 107 123 132 126 110 112 111 112 135 143 151 149 145 154 144 128 120 129 119 110 144 146 130 120 106 105 86 103 99 93 70 87 82 91 103 94 72 50 37 43 46 48 50 29 24 29 50 71 127 169 174 168 165 171 170 169 168 172 179 175 148 136 128 125 121 130 126 143 125 144 154 137 117 104 140 114 124 88 60 100 107 114 80 93 87 84 107 85 79 82 87 94 84 108 112 103 105 105 100 93 111 124 146 144 140 151 147 127 120 129 117 106 147 156 138 126 106 99 93 110 100 94 87 104 91 97 98 87 69 49 39 40 42 42 45 28 30 25 21 13 95 184 175 170 167 166 170 167 168 176 181 166 130 117 129 137 109 115 137 118 111 132 108 109 111 96 98 111 132 88 64 84 105 92 65 92 87 93 101 66 93 101 77 83 74 90 100 87 91 101 101 75 82 120 154 130 121 137 148 134 120 119 104 101 145 158 135 124 110 95 107 110 102 97 85 96 99 98 123 99 74 46 35 39 41 39 41 31 28 28 30 26 77 179 177 170 171 165 169 166 171 178 174 143 125 141 149 118 115 123 127 94 122 130 89 90 96 113 115 108 97 82 80 86 96 75 73 88 88 90 75 82 86 111 90 78 74 69 75 76 70 87 81 73 68 107 144 128 105 108 119 125 121 116 96 96 141 152 127 124 105 94 103 96 99 101 86 83 102 101 114 99 65 44 35 37 40 39 38 26 28 27 30 28 87 162 168 175 173 164 174 170 170 178 169 140 146 124 114 102 110 105 115 111 126 120 117 102 112 110 113 100 92 96 99 90 103 94 87 92 86 90 74 81 93 116 97 70 68 68 71 72 68 71 60 82 75 70 97 116 103 93 97 112 114 113 93 99 138 133 121 125 97 88 87 93 100 101 90 87 84 105 101 99 59 40 36 36 37 37 38 30 26 29 26 30 73 174 175 178 172 168 175 170 168 169 168 128 104 106 92 102 90 84 115 119 106 114 111 105 123 115 108 100 94 106 121 105 108 93 100 104 95 102 95 102 100 96 81 63 61 68 70 82 65 54 59 52 57 64 76 89 86 80 97 114 107 98 90 114 128 115 130 124 95 74 95 101 99 81 89 89 88 105 93 106 70 43 43 44 45 47 47 30 28 28 26 37 80 165 170 171 178 176 170 167 165 167 163 112 100 103 93 110 79 108 112 97 104 109 92 85 95 98 102 102 95 96 93 106 106 76 84 94 106 100 96 91 89 80 71 71 73 75 71 71 72 57 57 52 53 63 63 94 103 71 83 110 108 88 87 117 118 117 125 113 92 88 98 105 92 77 96 90 96 102 88 93 82 68 70 73 77 78 79 29 27 28 30 28 61 143 162 162 184 184 166 161 161 162 156 119 110 94 91 93 69 75 75 59 51 76 86 102 121 118 138 157 145 153 156 155 147 133 157 161 155 129 114 112 92 78 73 66 67 64 56 54 59 38 23 33 54 69 58 60 91 82 81 97 95 83 88 121 110 124 120 105 86 93 101 96 102 90 115 110 91 97 106 88 86 99 103 110 113 113 115 29 29 28 27 22 61 144 161 150 174 173 174 162 155 152 142 123 96 87 98 87 82 80 36 5 0 74 144 174 177 172 199 211 206 215 218 211 202 196 209 213 206 186 186 194 151 84 98 106 74 51 67 34 19 8 22 58 68 67 75 70 72 73 101 92 83 83 87 118 113 122 127 103 86 91 102 86 96 111 123 107 94 97 102 103 109 126 131 140 145 148 148 29 28 29 29 35 56 114 165 154 162 165 168 165 153 146 154 127 109 88 102 93 117 137 114 44 3 39 157 189 148 60 145 160 149 218 222 209 182 196 221 214 208 179 118 120 82 25 34 66 42 23 41 6 14 51 88 110 99 93 88 84 96 84 102 93 80 76 80 113 117 124 115 99 90 95 104 104 96 112 125 111 87 103 103 99 121 148 155 164 169 171 173 31 30 30 33 45 23 80 162 149 157 167 160 162 153 140 148 150 139 115 110 107 121 146 150 106 40 5 49 73 27 12 49 85 53 96 100 87 59 78 86 88 99 59 13 26 35 48 64 69 49 22 12 49 98 120 114 134 139 124 99 87 100 109 103 85 71 75 82 119 118 117 105 98 89 90 110 101 96 113 123 127 122 106 100 91 130 167 173 180 187 188 190 30 31 31 29 30 21 62 130 137 158 171 145 160 158 138 155 170 151 114 107 105 124 150 163 145 103 32 29 29 0 22 101 129 100 87 100 98 101 75 45 54 49 46 77 113 115 103 108 106 72 65 81 112 136 133 131 152 157 141 117 80 93 113 110 77 57 66 88 111 123 111 93 90 92 91 104 87 90 111 118 106 131 110 89 76 146 173 187 195 199 200 201 30 30 32 29 30 24 47 136 142 156 166 154 169 163 154 164 167 160 120 93 94 124 151 166 165 147 117 85 75 87 83 117 169 183 192 168 158 152 155 151 163 165 155 178 202 175 131 111 115 100 106 120 124 133 138 149 147 148 149 145 114 85 108 97 83 56 65 87 95 112 104 94 101 108 83 103 97 108 104 114 112 112 100 92 72 154 186 196 204 208 209 208 33 32 30 30 32 25 33 114 144 159 166 162 175 157 153 166 167 155 130 117 109 130 149 161 166 165 157 146 154 160 157 137 162 200 212 203 203 176 175 166 178 197 187 176 165 146 133 120 119 122 124 130 133 135 136 129 133 151 146 134 133 106 94 83 67 57 85 91 91 121 105 91 102 107 93 115 115 105 98 101 122 94 99 92 90 166 192 199 207 213 213 211 29 30 30 31 31 29 20 89 155 159 163 156 177 162 147 159 148 151 129 101 108 133 159 173 169 162 166 164 178 183 180 163 146 166 168 181 185 168 161 158 159 166 164 155 155 158 155 148 143 139 137 134 131 131 129 127 140 142 141 143 139 118 87 75 55 50 81 93 97 123 128 97 100 103 112 135 100 99 100 104 114 95 103 84 98 168 194 200 209 211 211 208 30 30 31 32 32 30 18 65 167 149 160 149 158 163 161 157 137 133 127 98 99 141 167 169 168 163 164 169 182 188 186 177 167 173 179 186 185 176 177 178 175 171 167 159 157 165 168 159 144 141 142 134 122 126 119 120 139 146 152 146 134 111 82 62 57 63 75 111 107 117 124 107 107 121 118 115 92 100 100 101 106 101 83 93 97 143 182 202 208 209 207 203 30 30 31 32 31 30 24 47 125 161 150 140 147 142 151 154 120 121 112 118 134 147 149 161 172 174 166 163 179 185 188 183 182 181 178 179 171 165 162 172 170 173 173 173 168 158 147 139 137 135 130 124 123 128 122 118 128 147 152 154 132 95 72 58 56 60 97 122 120 117 115 111 107 117 105 88 85 108 102 85 98 95 80 82 113 156 186 202 205 207 203 198 27 30 30 31 29 29 28 32 98 157 138 134 145 129 145 137 115 107 103 141 142 152 157 162 165 165 173 168 169 174 181 185 186 179 175 179 165 167 163 159 163 167 173 166 155 144 137 125 118 122 117 114 108 121 127 122 131 142 126 136 129 94 59 50 56 67 102 125 125 112 115 125 117 138 106 99 90 100 97 86 102 100 72 69 110 182 194 197 206 205 199 191 30 30 28 29 30 30 31 26 83 163 141 132 137 133 130 116 142 91 105 125 154 145 158 162 161 158 171 171 165 172 167 159 167 156 157 160 157 149 151 142 124 129 143 141 129 131 133 120 110 102 102 111 106 122 129 120 133 133 126 121 99 92 74 30 64 64 90 129 119 97 119 122 115 138 120 107 75 101 87 92 96 94 58 71 105 179 190 199 202 201 194 182 29 28 28 32 32 31 31 26 61 166 152 119 135 133 124 142 149 101 107 112 132 131 157 161 166 172 160 151 155 148 141 135 137 132 133 139 144 125 124 122 112 118 116 112 110 106 110 114 107 101 99 105 118 115 111 125 120 132 139 132 113 106 106 64 70 73 87 122 113 97 116 120 126 94 125 111 84 86 67 90 90 87 67 56 103 181 190 197 201 198 187 173 31 29 28 30 32 31 31 27 66 139 145 129 123 141 132 127 125 110 86 108 125 167 171 153 164 175 153 149 138 126 125 131 115 113 132 135 138 123 114 121 124 112 111 113 110 104 94 103 105 101 105 114 121 117 113 123 121 133 141 121 96 89 88 59 60 87 107 98 108 92 101 106 121 92 113 106 87 87 73 71 91 78 67 54 105 182 186 193 198 193 185 167 32 30 29 31 31 31 31 36 45 85 172 135 119 131 130 121 116 113 87 87 117 156 134 150 157 153 145 145 129 114 130 132 117 133 136 139 132 129 116 124 130 114 105 100 98 97 100 106 111 114 113 103 108 112 117 132 125 124 146 144 99 82 84 47 68 92 100 87 85 93 98 116 88 101 124 99 76 75 51 63 78 76 66 59 119 179 182 188 194 190 179 163 33 32 30 31 33 32 31 34 46 72 182 128 144 158 149 138 138 111 79 77 124 127 140 155 155 161 155 150 133 117 128 140 133 118 139 133 140 128 137 137 117 128 112 98 90 94 89 112 116 119 111 118 113 127 127 122 136 144 122 127 101 98 76 44 82 103 90 89 95 87 95 98 87 91 126 96 72 75 51 57 66 73 76 67 131 180 181 184 188 188 180 167 32 32 30 31 30 30 32 32 34 48 146 157 149 151 136 135 127 111 88 75 104 113 139 146 150 153 159 158 147 141 145 158 128 117 141 148 132 131 160 151 124 114 101 113 102 108 104 106 120 125 116 126 118 128 114 119 115 131 137 110 101 109 78 32 92 117 93 97 90 81 91 99 95 110 97 74 79 76 60 64 66 74 73 72 92 137 166 188 194 187 180 169 30 31 30 29 29 30 32 32 34 29 82 149 126 133 139 119 154 117 98 91 103 148 139 140 154 147 166 174 167 167 158 148 137 132 134 135 128 130 133 127 129 108 105 114 116 109 114 119 119 120 127 130 133 119 118 116 94 91 127 108 101 117 68 39 97 119 110 112 103 103 92 76 86 86 69 45 88 71 69 75 73 74 72 72 26 12 44 93 143 177 186 174 30 31 31 30 31 31 32 32 35 32 48 129 128 143 149 145 146 120 97 117 137 141 145 145 151 155 160 167 170 176 164 163 148 150 142 130 137 129 108 125 114 107 130 129 117 112 121 121 125 120 126 130 126 124 124 115 119 89 103 91 104 86 59 60 85 113 110 104 102 83 98 70 54 84 66 52 65 65 78 80 78 78 76 73 68 5 0 0 10 51 119 169 29 29 29 32 31 31 31 30 34 36 41 77 100 143 113 136 126 136 111 100 134 136 138 143 150 161 153 158 173 171 178 162 148 159 144 149 131 107 118 115 115 136 145 142 137 119 121 132 136 141 136 134 129 124 124 99 91 97 87 73 81 62 46 63 86 106 89 98 88 65 100 93 63 80 64 83 87 89 79 75 79 80 79 79 113 43 0 3 1 0 0 65 29 29 30 31 31 32 32 32 33 35 37 48 56 107 116 138 146 118 90 98 117 159 110 143 173 157 165 165 168 166 158 157 163 145 137 152 130 130 139 130 127 138 144 142 137 126 122 125 145 137 119 121 138 125 114 99 71 87 87 70 69 59 47 56 65 82 78 75 102 88 85 96 56 71 45 64 91 89 81 84 91 93 83 83 132 103 8 0 2 4 3 2 29 29 30 32 31 31 32 32 34 37 35 36 42 50 99 142 128 98 117 105 94 117 99 167 168 145 158 169 149 145 157 181 169 163 166 150 141 128 117 127 155 153 141 153 143 139 134 135 127 110 104 120 140 130 121 93 71 79 89 71 77 62 43 61 52 69 65 65 71 73 90 110 58 46 63 77 77 88 89 95 105 92 79 97 140 131 59 1 1 3 8 15 29 29 31 32 29 32 32 33 34 36 38 38 39 36 53 142 122 129 145 91 57 116 141 137 123 132 135 142 161 163 153 168 159 190 171 140 148 136 126 149 155 177 170 150 150 143 143 135 125 119 104 110 121 137 108 92 74 77 64 45 61 59 39 41 58 58 58 54 63 89 81 87 38 44 82 73 81 93 103 111 114 95 74 109 148 134 111 23 0 1 6 16 29 29 30 31 29 31 32 33 33 35 36 38 39 39 31 70 111 105 116 107 79 109 114 106 134 134 124 161 175 167 169 174 171 175 172 148 140 129 128 118 138 169 178 156 142 145 144 142 135 127 84 114 121 120 89 102 93 79 52 43 44 55 47 37 48 58 53 58 55 78 56 58 52 59 76 89 106 114 120 123 113 94 81 132 151 141 140 71 1 2 3 14 29 29 30 30 30 31 32 32 33 37 36 37 37 37 39 51 45 60 95 93 89 86 89 131 135 134 160 174 164 173 171 164 178 166 174 175 124 104 121 136 144 158 151 152 137 126 141 138 131 128 108 78 124 128 91 72 70 68 47 35 28 47 42 48 52 59 59 53 55 44 43 59 76 87 89 99 121 128 125 120 108 87 94 152 161 151 158 129 28 0 3 9 29 29 31 30 28 30 32 33 33 35 36 35 36 37 38 34 38 67 98 125 100 91 104 122 131 170 155 175 185 178 160 152 174 164 178 157 138 144 144 143 150 150 139 117 142 127 127 120 131 124 109 100 108 106 107 74 57 50 45 28 39 34 28 51 49 56 49 38 41 57 63 83 102 100 108 114 125 130 125 120 106 81 121 175 168 155 163 158 76 2 1 9 29 29 30 28 27 29 30 32 34 34 35 37 37 37 36 34 31 43 58 113 126 102 77 112 153 159 157 186 181 188 162 156 172 174 172 159 142 137 132 148 124 130 117 109 128 126 111 112 113 119 83 98 101 106 132 108 89 42 19 25 27 21 26 37 36 38 44 40 56 69 84 98 116 120 127 124 126 129 124 118 99 91 165 185 166 159 168 163 128 34 1 6 29 29 29 29 29 29 30 32 33 34 34 36 34 36 37 34 23 26 28 89 159 132 107 138 166 137 180 182 175 182 146 156 171 170 154 142 143 138 127 120 110 112 109 116 114 98 112 107 79 100 86 106 91 93 137 101 101 60 16 36 28 41 39 48 54 78 69 67 75 80 84 96 112 123 126 126 131 126 123 115 88 141 196 184 167 166 170 168 150 87 7 3 29 29 29 29 29 30 32 32 33 34 35 35 36 36 35 31 30 30 7 113 188 162 139 128 111 155 188 185 161 144 134 154 171 144 138 123 129 144 154 119 90 122 126 110 134 91 92 97 60 85 98 90 107 79 88 93 96 54 30 28 42 44 41 69 67 75 75 74 80 85 100 108 124 127 122 128 129 124 117 95 123 200 198 181 172 172 171 168 161 122 32 1 29 29 29 29 28 30 33 32 33 35 35 35 36 34 30 27 36 28 12 168 198 168 157 123 107 182 183 186 152 124 143 163 151 145 141 118 120 129 148 137 91 108 127 105 120 74 82 83 67 68 63 91 105 93 52 51 42 44 31 27 53 53 66 72 66 73 72 74 83 102 119 127 131 126 126 133 129 121 102 109 193 212 194 181 176 176 172 166 164 142 73 6 31 30 29 29 29 30 32 33 34 34 34 35 34 31 24 29 37 24 20 190 223 177 168 164 148 153 159 160 150 128 120 168 150 135 140 133 111 136 125 108 117 118 143 102 79 92 90 58 55 53 70 96 91 72 48 57 32 29 39 41 59 56 60 59 59 77 85 101 117 127 136 135 132 130 133 126 125 115 105 185 220 203 192 186 182 178 172 167 166 151 98 25 30 30 31 31 30 31 30 31 33 32 32 31 29 26 24 31 30 14 19 193 244 185 180 187 156 161 145 141 111 141 144 141 158 141 121 141 118 120 126 90 105 110 114 100 57 105 84 71 50 47 92 89 62 48 36 62 63 61 60 62 63 62 57 71 75 80 105 123 127 132 134 137 134 134 132 123 116 108 178 223 210 199 193 189 185 181 172 167 167 159 112 38 32 30 31 32 29 28 29 29 28 27 28 28 27 25 22 20 18 10 35 205 250 195 181 184 179 187 168 147 120 125 148 148 133 130 107 115 103 112 102 98 64 112 106 116 68 78 58 47 62 53 76 81 72 60 57 55 50 64 76 70 71 70 68 74 84 95 115 124 121 128 136 139 136 130 125 116 114 177 227 214 207 198 195 190 187 183 174 169 169 160 112 36 29 28 29 29 26 23 23 23 22 25 27 25 27 28 27 24 17 10 40 214 251 215 176 178 191 196 183 171 157 142 148 150 127 139 99 85 95 69 72 94 92 96 120 93 78 62 52 69 81 66 66 68 84 89 74 70 54 68 84 73 73 75 74 79 96 121 121 117 128 134 135 136 135 131 122 115 179 229 218 208 203 200 198 195 190 183 175 171 170 158 105 28 28 26 27 27 24 22 22 20 20 25 24 19 23 27 26 21 23 4 72 227 248 233 187 183 191 193 186 176 177 172 164 149 140 143 115 96 106 82 57 90 100 97 119 83 80 77 83 83 72 74 83 71 74 76 67 70 73 75 73 73 76 73 78 93 116 133 129 127 134 136 133 134 132 120 120 184 228 222 212 208 204 202 200 197 192 183 176 172 170 158 93 17 22 24 26 25 23 20 20 20 21 24 22 22 22 20 17 17 17 3 99 235 242 245 203 184 185 182 188 189 181 177 173 162 154 139 134 113 110 117 102 83 72 100 82 82 92 91 85 73 63 60 73 64 69 76 72 74 76 69 72 79 75 79 93 116 133 132 130 136 134 133 130 131 121 123 188 230 221 215 211 207 205 206 201 198 192 183 177 174 171 152 72 6 24 25 23 21 23 23 21 22 24 27 27 26 23 16 15 18 16 5 134 238 235 248 223 188 185 183 190 186 186 182 172 169 161 147 138 128 128 112 85 73 77 93 73 68 67 83 74 51 51 60 57 58 62 75 79 86 84 79 81 78 81 105 130 134 132 132 135 135 134 133 131 124 139 199 232 222 216 213 209 208 206 205 201 197 190 184 179 175 172 139 46 3