P2
# Generated by OpenCV 4.2.0
92 112
255
83 64 9 22 52 108 128 103 116 110 56 0 8 45 53 19 8 46 68 93 104 123 119 97 92 73 59 80 73 52 51 54 71 76 93 82 91 102 87 35 24 30 25 39 36 67 74 47 50 66 50 36 8 12 37 37 36 37 63 101 121 132 143 155 170 159 137 116 111 118 107 143 134 121 87 52 40 57 111 135 94 57 54 43 73 55 18 23 37 38 33 8 26 7 42 70 95 90 81 81 62 36 29 72 93 91 85 115 96 105 115 114 108 96 65 91 75 62 73 53 22 20 13 6 18 15 5 10 24 36 59 62 70 58 35 60 68 73 76 36 23 66 57 16 18 42 39 28 46 79 104 128 159 164 151 161 164 148 135 136 126 130 137 161 142 133 109 67 44 36 75 119 132 109 88 106 69 82 14 28 40 62 41 25 13 70 79 91 88 73 53 50 70 68 93 86 86 92 77 57 62 98 107 89 78 68 45 40 35 33 12 8 12 12 7 9 17 10 10 9 17 20 23 40 52 50 51 44 49 91 70 19 95 57 6 25 54 36 35 73 80 106 109 112 137 162 154 161 164 151 138 144 152 149 150 157 154 152 131 89 69 46 60 109 126 141 98 125 90 93 28 42 79 67 70 35 64 53 48 57 59 63 106 113 88 82 79 87 85 84 81 88 79 89 92 84 72 52 46 33 24 6 8 11 22 9 16 20 13 10 14 17 7 15 45 69 73 58 62 80 58 82 23 40 43 19 52 45 42 54 70 58 90 126 153 114 159 169 165 164 166 161 158 162 162 150 156 163 159 144 157 118 94 114 75 82 119 173 123 122 109 87 44 43 104 82 75 56 45 27 46 44 63 111 101 68 75 80 109 114 120 111 97 93 89 113 91 83 73 64 51 31 24 22 37 38 25 24 42 28 18 10 12 10 33 38 41 82 98 90 85 76 76 65 17 59 38 34 19 32 51 70 69 99 110 132 134 151 183 172 170 168 175 177 169 161 158 159 160 173 154 145 155 129 128 79 129 63 95 142 174 137 148 80 64 35 74 80 69 58 26 44 65 62 83 71 68 53 93 126 109 113 115 96 89 95 116 97 87 75 66 62 48 54 50 88 79 65 44 53 39 29 32 26 32 41 41 42 52 74 99 90 92 93 96 35 45 45 34 27 60 62 67 88 111 120 152 153 127 171 182 178 174 179 182 182 174 167 170 173 165 161 170 161 168 128 134 110 133 98 71 97 183 177 180 94 81 59 22 105 98 79 51 69 37 45 59 89 82 107 93 69 103 134 88 58 99 111 110 110 92 64 102 90 89 82 113 102 83 70 76 67 47 44 48 44 43 38 45 65 67 77 95 114 99 128 50 30 39 30 31 56 55 68 103 119 147 136 159 115 171 179 175 182 177 181 182 179 175 170 177 177 171 177 170 178 167 161 146 105 104 106 70 69 122 181 189 112 104 87 20 117 82 87 42 21 22 36 79 81 44 40 79 123 148 102 51 91 103 121 108 102 69 102 74 74 95 127 121 91 71 80 94 64 46 59 56 62 65 51 53 71 61 95 102 126 109 76 64 66 52 58 56 61 74 129 134 147 151 157 120 176 183 188 176 183 179 186 186 181 180 177 173 171 174 180 170 166 154 160 126 113 101 77 72 64 70 172 171 136 101 115 54 110 112 121 26 19 36 76 63 13 45 89 99 119 80 23 82 102 133 103 95 71 121 75 77 106 139 124 103 90 75 88 105 103 56 82 79 91 75 66 71 94 98 111 137 159 108 86 110 65 65 74 68 94 126 132 183 167 155 149 191 178 178 179 181 184 182 188 190 187 182 183 183 179 173 176 157 163 142 161 149 100 81 89 40 69 60 133 159 157 95 118 101 72 141 125 13 17 61 62 17 55 66 61 112 67 13 78 124 128 101 76 72 107 78 100 113 140 121 114 113 99 98 102 82 113 101 88 101 122 112 124 116 138 146 170 170 140 58 105 103 77 80 72 99 131 146 178 180 162 150 180 183 189 194 189 183 185 185 186 191 194 185 185 186 185 180 173 151 148 136 112 108 95 80 75 54 32 48 88 146 144 92 117 127 79 164 107 15 24 72 46 49 44 61 93 52 21 55 129 106 74 75 89 85 70 101 131 140 120 119 130 122 95 95 108 91 126 139 117 89 151 148 169 173 188 177 204 157 56 138 146 133 103 99 100 129 169 187 179 156 162 180 192 186 191 194 192 193 184 185 192 189 195 181 181 185 191 179 163 165 153 155 137 104 77 65 62 60 32 40 54 101 122 102 127 148 65 127 95 18 46 66 46 34 57 96 40 14 52 118 108 82 70 89 78 81 101 130 114 125 141 131 138 113 98 105 113 130 146 134 163 137 121 179 194 199 204 215 149 46 163 190 159 116 99 140 154 174 170 172 161 174 192 194 193 198 195 193 196 191 188 190 189 193 187 182 186 188 187 170 158 145 141 147 146 129 95 48 48 70 24 22 41 84 81 111 104 168 77 112 89 13 63 55 53 70 73 43 21 26 94 94 90 69 120 90 83 120 134 103 118 164 133 125 135 114 97 109 133 143 151 164 177 184 178 145 208 210 201 147 78 189 200 160 179 112 132 147 175 190 185 186 198 194 192 192 199 201 204 196 197 195 191 195 194 189 181 178 186 189 176 160 154 161 147 135 111 96 127 62 34 49 34 31 19 63 63 112 91 153 89 108 91 30 67 53 82 70 35 20 27 60 80 71 75 127 97 87 94 109 74 112 159 137 127 139 141 121 127 126 142 153 162 176 182 189 201 188 168 213 179 108 192 198 169 185 162 131 156 187 195 191 192 193 199 198 199 196 200 203 203 206 204 197 193 192 197 191 184 177 178 183 184 160 150 145 128 123 132 117 94 107 40 41 24 27 10 43 63 109 87 124 108 76 66 52 59 60 46 16 13 19 38 71 74 63 107 92 83 84 94 96 90 178 144 137 136 147 136 133 130 140 159 173 178 192 193 198 209 216 202 153 122 198 205 186 192 193 123 122 206 188 201 196 195 199 201 205 202 203 204 206 206 204 203 203 196 195 191 188 189 176 179 187 183 158 146 149 127 109 96 101 86 83 77 34 25 20 16 26 54 90 79 92 104 53 41 69 41 28 13 4 16 15 52 90 54 75 80 82 86 74 93 90 144 153 137 147 147 139 130 146 144 159 172 177 188 201 203 203 210 216 179 136 171 213 196 199 197 170 83 199 197 208 202 204 207 206 210 209 205 207 207 213 211 205 204 199 201 195 193 189 181 185 186 182 178 161 152 141 151 136 111 75 68 86 72 63 3 29 15 7 48 65 70 69 107 75 34 88 14 6 9 5 11 49 88 75 56 73 86 93 97 77 91 112 169 121 153 143 142 137 139 149 151 181 184 189 186 200 208 217 218 162 163 214 203 197 197 190 200 77 165 202 203 202 196 198 203 205 209 210 210 209 211 214 210 210 208 202 200 195 183 187 185 187 188 175 174 156 136 126 126 110 104 98 60 55 63 69 24 12 20 10 38 52 87 58 105 86 37 60 10 8 3 5 34 86 68 68 72 77 84 101 79 95 94 159 150 131 155 136 141 140 145 145 175 185 204 205 209 204 215 214 154 173 221 214 214 191 190 208 136 153 211 209 201 203 203 209 213 206 211 212 209 205 208 212 216 209 206 204 200 195 190 186 184 184 182 175 170 160 143 131 129 94 97 89 79 62 61 50 51 17 6 20 12 45 76 65 99 85 38 33 23 10 15 37 40 37 55 55 64 87 102 84 70 110 106 157 145 133 143 136 135 143 149 162 185 197 198 201 208 212 205 159 200 223 207 208 206 195 202 200 134 208 203 205 202 204 208 209 209 210 206 209 211 214 213 209 208 211 208 203 200 193 191 190 185 186 182 173 165 158 135 142 132 103 98 82 62 41 46 58 59 49 48 38 37 43 50 63 108 92 45 34 14 5 32 24 22 29 48 57 69 85 96 77 104 117 117 135 139 173 149 130 127 145 156 161 174 173 180 207 212 210 204 215 223 215 210 212 204 209 206 142 189 202 208 199 199 204 208 211 212 213 210 206 208 214 213 210 206 207 202 198 198 197 193 185 178 180 178 174 162 149 137 145 133 97 91 81 74 61 45 32 17 23 20 37 37 51 57 78 102 68 62 34 8 20 21 7 15 38 42 58 86 97 110 88 120 119 120 139 141 166 144 143 133 143 155 173 185 196 207 204 203 210 216 213 215 214 210 206 200 198 164 176 212 210 207 203 201 202 204 207 209 207 211 208 209 214 217 210 206 204 201 199 199 197 191 188 183 184 174 175 168 146 149 155 134 94 72 56 54 50 59 58 43 41 50 41 36 32 42 84 94 52 59 13 27 38 12 20 28 22 47 65 88 105 110 92 136 121 137 147 151 167 151 134 141 152 164 177 185 198 201 205 207 214 219 223 215 217 213 209 205 177 171 209 204 207 200 194 199 202 203 207 206 199 203 207 212 215 213 212 208 204 204 203 197 193 194 191 186 184 177 176 165 147 161 160 145 110 88 67 43 37 34 28 38 40 47 15 17 36 21 63 115 50 76 22 36 17 6 23 20 39 46 68 93 103 91 112 140 141 154 159 153 161 164 135 149 161 171 189 189 200 204 200 209 214 217 212 213 215 216 210 199 176 199 198 199 196 197 201 195 196 206 205 207 209 212 214 213 216 216 211 208 208 204 201 199 201 197 192 186 186 183 174 165 156 154 165 151 121 104 89 92 89 70 62 47 52 31 19 7 20 18 48 102 65 81 33 22 10 25 28 38 39 34 56 76 111 107 127 143 154 161 169 159 166 167 156 165 177 183 187 191 194 206 209 210 213 217 212 209 211 207 209 182 211 201 201 199 199 204 203 201 206 205 205 208 210 210 211 215 216 217 211 208 210 207 204 202 199 196 194 194 183 177 166 159 166 163 163 141 140 106 73 69 48 56 43 33 28 20 29 23 15 11 49 94 56 77 35 18 12 29 27 29 30 35 59 88 119 115 133 141 155 155 171 169 165 171 172 180 184 187 188 199 201 203 208 207 213 217 218 218 213 205 200 215 213 208 208 201 208 208 206 211 208 208 210 211 212 210 215 215 216 216 213 208 208 205 201 199 198 201 199 196 191 182 167 165 150 162 152 140 135 115 114 77 60 36 15 18 33 9 9 18 19 23 46 81 66 70 31 14 22 16 26 30 46 54 66 98 128 124 120 147 156 152 166 168 171 173 177 180 187 193 195 202 207 201 211 213 213 212 216 211 212 213 210 218 211 211 217 215 211 211 216 212 212 217 215 215 217 219 221 218 219 216 210 206 208 205 201 211 208 204 198 189 184 175 152 159 164 166 154 149 137 126 103 91 71 55 25 6 14 9 9 8 9 29 33 77 95 67 38 21 17 13 18 33 49 61 71 94 123 124 129 150 161 163 168 172 177 181 185 192 193 203 202 209 207 209 210 207 203 213 221 219 220 220 218 218 213 211 218 215 217 215 217 219 220 220 220 227 223 218 220 217 217 215 212 209 210 210 212 220 216 205 197 187 176 166 151 158 163 165 155 154 148 136 118 116 103 90 44 18 11 17 12 19 11 37 52 77 102 60 28 15 12 7 19 18 34 51 79 102 126 135 144 152 160 155 170 181 179 186 189 194 200 206 207 221 219 218 214 215 217 213 216 221 221 221 226 224 223 222 219 224 220 220 222 223 219 222 223 221 217 220 222 218 214 219 218 215 212 212 222 218 214 206 203 187 174 160 160 164 166 169 164 151 146 136 126 125 122 116 71 37 15 14 24 17 10 34 50 79 83 79 23 10 2 23 23 24 42 56 71 116 120 141 145 148 156 157 167 177 188 189 193 198 202 203 210 218 226 227 219 216 215 224 216 225 222 227 226 225 224 221 220 225 224 220 223 224 221 224 223 223 221 219 221 219 215 217 217 212 215 216 219 216 216 206 198 189 179 169 169 169 171 170 162 158 143 138 135 136 135 127 104 57 34 18 25 22 17 30 63 80 84 82 19 15 38 40 33 40 71 95 88 127 125 133 136 150 160 164 173 174 184 194 198 204 208 207 217 217 227 226 221 221 220 225 223 229 221 227 226 225 225 224 226 229 224 223 228 226 223 225 223 227 222 216 221 223 218 217 220 218 222 222 225 222 213 206 202 184 177 180 183 180 180 176 156 156 134 130 133 137 137 136 125 83 57 42 25 29 38 42 69 88 60 47 32 36 36 18 17 42 103 125 106 127 132 138 138 146 158 163 174 180 196 205 209 216 211 209 213 218 219 222 226 225 222 227 224 222 226 228 228 227 227 225 226 224 227 222 227 229 227 227 225 224 223 221 225 225 221 224 222 225 225 222 221 222 215 216 207 201 194 190 194 184 180 169 168 144 131 130 137 146 146 142 145 109 60 52 46 36 46 35 84 67 48 59 16 35 17 17 24 65 119 128 118 117 133 142 137 160 168 164 180 204 200 218 215 221 216 217 216 221 221 223 222 226 224 223 231 227 229 229 227 228 228 230 228 229 225 224 226 229 226 223 227 222 223 223 223 222 227 228 219 224 225 215 223 219 222 217 213 206 197 205 199 190 187 181 167 146 138 137 135 148 151 151 147 112 88 75 45 32 60 54 77 45 53 79 26 43 28 17 26 84 132 134 124 123 129 148 151 177 165 171 202 211 214 215 216 224 218 217 221 223 220 222 223 223 226 226 225 227 227 231 233 225 229 227 226 224 221 221 222 225 223 225 222 223 222 224 223 224 224 228 220 221 224 218 218 217 220 207 204 195 181 194 196 184 186 195 176 147 147 148 134 143 156 150 156 132 106 97 59 20 51 74 78 34 49 49 42 38 20 17 32 95 141 143 135 124 128 139 161 174 187 185 180 194 196 208 205 208 219 212 207 220 229 229 227 227 227 226 225 226 224 227 229 223 225 226 225 224 224 222 221 221 223 222 222 221 216 214 223 218 224 217 220 219 212 205 212 197 187 173 170 177 171 172 168 168 167 178 177 155 145 146 132 154 154 153 148 139 108 78 68 61 40 71 72 59 74 48 50 23 19 30 40 99 141 154 137 130 128 150 187 183 161 129 152 164 169 169 178 191 201 208 201 207 214 224 220 222 224 223 226 227 222 221 220 223 219 222 222 223 222 221 218 219 217 216 215 209 208 213 215 205 207 199 192 188 174 172 171 164 146 146 139 135 133 138 144 136 123 125 139 136 135 139 144 153 155 158 144 146 142 117 71 89 44 70 83 73 86 42 45 9 28 37 54 105 149 150 145 134 129 155 133 123 113 114 113 113 94 99 136 151 160 158 175 187 196 212 206 212 216 218 217 223 217 219 216 219 215 217 217 219 220 216 215 215 211 206 206 204 205 200 192 192 160 134 112 123 134 136 139 148 144 141 136 125 104 99 102 102 109 97 109 112 129 127 149 154 165 161 151 145 131 110 117 79 66 67 74 62 84 101 47 22 38 41 84 116 144 161 149 124 127 117 113 96 103 107 94 115 109 88 92 95 93 85 97 112 137 154 174 185 196 203 207 215 212 213 211 216 214 214 212 214 214 210 211 211 209 193 192 187 182 177 176 130 117 80 81 92 88 87 87 72 100 96 86 98 83 89 83 83 87 85 93 97 109 129 136 145 157 162 153 141 148 133 109 107 58 58 83 59 80 145 32 39 53 73 98 124 154 164 153 130 114 110 93 102 94 97 115 111 111 95 79 72 72 69 72 74 81 98 131 146 167 177 177 192 192 200 202 209 207 206 212 215 210 209 203 196 192 187 180 174 170 166 120 83 99 79 60 58 57 68 66 74 71 75 83 96 92 91 94 95 104 87 92 97 120 138 141 152 161 162 158 151 131 148 126 93 79 54 60 62 90 138 39 50 51 81 116 135 159 159 153 127 100 97 107 113 129 151 159 162 162 147 136 116 103 82 78 65 70 68 83 101 119 145 160 163 172 184 190 197 201 205 203 215 208 203 199 192 181 180 169 151 155 121 93 88 87 80 74 80 94 98 102 105 111 106 122 124 121 108 109 114 100 100 96 110 133 137 139 162 161 156 157 156 136 128 145 106 100 74 52 66 134 145 40 36 74 109 99 138 160 163 163 135 105 102 109 119 135 167 173 176 166 157 163 166 151 144 129 115 94 81 85 89 93 113 140 142 149 166 185 188 193 202 217 208 206 198 193 180 162 169 151 128 113 98 87 88 84 77 83 82 78 77 70 71 66 62 63 78 99 121 128 125 124 122 123 141 140 130 139 154 161 154 163 150 150 132 125 102 92 67 50 46 159 151 46 43 95 98 123 156 162 159 161 138 110 91 100 121 135 151 162 156 161 161 153 139 135 128 113 113 107 96 91 87 87 94 106 131 133 154 168 178 186 200 210 208 206 194 181 163 156 159 142 121 97 84 81 78 80 57 45 23 6 3 13 9 6 47 30 22 11 38 85 135 158 136 131 141 124 141 148 157 163 155 163 160 151 155 111 98 106 85 47 62 100 142 41 50 112 104 121 154 170 166 166 145 126 119 113 121 149 139 153 138 95 57 42 20 3 4 20 32 50 64 77 89 85 80 93 112 128 146 164 166 169 189 205 205 199 190 169 150 132 129 109 91 73 70 80 58 39 51 40 8 36 9 48 63 12 134 139 111 57 36 33 21 94 147 156 130 145 156 151 166 164 162 157 157 151 146 112 90 85 101 59 40 96 129 50 54 130 136 132 163 168 162 153 147 138 139 124 115 139 146 102 49 13 33 6 12 82 76 25 33 56 70 52 55 79 82 77 76 94 116 129 143 164 191 215 212 199 180 172 157 127 99 85 70 64 70 57 45 72 72 111 46 78 73 76 54 95 220 203 161 115 110 79 73 70 94 118 129 150 154 161 173 163 163 155 153 150 136 95 81 76 100 78 61 72 152 52 101 121 108 127 167 176 168 163 145 161 135 129 144 145 76 47 35 70 70 3 39 41 38 77 85 156 93 86 91 55 66 80 75 76 78 87 126 164 189 209 214 210 197 185 158 131 93 77 73 77 65 70 78 48 61 178 154 50 37 55 96 209 214 197 182 166 145 111 123 108 89 102 140 161 164 171 180 167 161 155 151 151 130 79 85 69 77 86 99 74 142 63 85 108 108 117 159 162 166 162 166 162 159 137 138 103 71 57 56 90 137 11 71 92 86 65 162 208 197 105 81 91 78 70 73 81 77 82 96 156 192 215 224 217 211 197 172 129 88 91 84 80 102 115 94 105 148 176 200 193 182 175 208 202 194 193 183 162 165 137 152 152 148 147 154 162 169 184 173 165 165 157 152 153 118 77 82 55 70 73 120 107 125 45 74 110 120 133 171 165 166 168 170 169 173 169 130 101 82 106 148 176 181 133 63 55 53 146 235 220 192 143 83 83 102 97 102 86 90 91 97 153 200 220 225 217 214 210 185 123 114 114 104 138 176 76 117 152 157 184 183 195 194 165 189 161 194 199 204 187 144 133 163 157 163 170 172 172 175 182 172 170 159 156 150 154 131 71 54 73 68 56 137 138 154 50 76 110 119 128 168 166 175 171 170 179 175 167 131 101 109 131 152 172 178 208 209 204 192 226 225 214 216 194 167 139 103 57 163 157 136 123 123 153 209 228 226 227 226 212 191 139 142 129 161 199 173 172 211 205 190 185 170 180 179 195 207 215 211 208 187 141 114 154 164 155 171 185 180 184 190 187 179 165 160 160 150 148 121 88 99 57 67 98 148 155 151 51 85 63 99 113 170 170 178 181 183 179 184 177 171 161 154 142 151 175 186 186 173 186 162 182 181 177 182 180 198 201 194 182 184 203 196 160 155 152 201 226 230 230 226 216 201 166 140 147 181 200 213 205 198 179 150 142 162 184 200 201 200 189 193 172 134 116 127 118 148 183 186 187 185 183 193 185 175 168 163 160 155 143 121 116 74 75 65 113 170 157 146 46 122 52 90 106 147 171 183 180 181 177 176 178 185 187 167 147 134 141 172 200 208 208 194 198 181 179 164 163 171 187 203 211 202 202 201 176 164 172 215 224 235 232 225 216 205 187 146 159 182 179 180 192 194 182 173 140 100 94 104 118 120 108 102 94 84 97 119 172 184 190 195 188 186 190 198 194 181 170 167 158 157 144 124 83 45 82 75 113 159 126 139 88 104 56 98 121 152 162 173 181 185 181 178 185 186 189 181 159 125 122 122 138 150 160 169 154 138 132 122 128 153 180 187 186 188 200 202 182 164 190 220 230 235 233 225 217 213 200 172 150 183 185 196 190 186 196 186 189 199 180 140 112 105 99 110 119 137 166 191 195 201 200 193 190 188 195 196 194 185 175 165 156 154 137 108 84 57 78 89 133 154 112 138 73 58 88 91 108 146 159 175 182 186 178 183 184 185 189 184 177 143 137 100 103 105 111 99 110 105 109 131 164 187 188 182 197 202 197 199 180 164 212 226 233 234 232 230 224 214 194 182 143 170 198 219 222 219 203 203 213 206 204 205 201 200 198 198 200 205 210 200 197 204 199 196 196 193 193 191 191 186 180 168 160 150 146 111 96 68 58 81 140 128 122 171 77 48 64 78 106 153 164 165 176 188 183 186 190 185 194 191 192 190 188 159 131 125 111 129 143 167 188 202 201 195 194 199 214 218 208 200 173 181 225 230 236 235 230 231 229 224 212 205 154 164 193 209 222 223 224 220 210 206 205 208 211 206 207 209 211 208 206 204 203 206 206 205 202 197 193 191 192 187 178 169 161 146 146 132 72 50 48 73 139 141 143 173 140 75 81 65 104 152 157 159 182 178 183 187 190 190 197 197 192 200 206 213 217 208 209 200 203 199 196 197 202 206 215 226 227 216 200 192 164 196 220 230 234 231 230 232 230 224 210 202 163 160 176 198 221 227 229 229 230 221 216 209 212 212 205 215 214 210 204 206 203 202 205 205 200 200 196 195 189 185 179 170 160 148 138 119 71 54 46 107 108 152 174 160 138 123 92 60 110 140 158 170 170 180 189 191 194 194 199 200 201 207 210 216 216 212 208 203 217 212 207 204 212 219 223 230 215 210 198 185 149 190 217 233 238 232 225 231 226 222 210 182 147 157 167 186 213 222 227 228 232 232 221 213 211 216 217 219 220 212 213 215 208 208 210 210 201 200 196 192 182 181 183 175 167 146 138 91 63 46 88 157 121 173 194 177 105 107 74 63 103 139 152 154 177 183 191 196 200 201 200 204 207 210 214 218 218 210 207 209 203 204 203 212 217 217 230 221 214 198 187 168 155 174 210 229 234 230 227 228 219 214 189 152 150 155 160 176 194 210 220 220 225 230 235 233 223 224 222 221 222 214 216 212 201 203 204 205 203 199 197 190 185 180 181 168 166 147 123 88 47 32 107 159 182 197 195 188 154 118 72 64 90 119 159 154 173 189 185 195 199 204 205 210 212 214 216 218 216 213 212 205 206 209 211 214 218 224 227 222 208 193 179 163 162 173 202 226 228 228 228 231 221 206 171 157 160 160 159 169 180 205 212 221 225 223 231 233 228 228 227 225 224 220 218 217 209 205 205 205 206 199 197 195 185 176 174 164 156 135 116 82 42 53 127 144 190 192 192 188 164 129 70 68 77 118 149 152 171 184 192 196 195 201 207 211 212 214 214 217 216 220 218 216 217 222 225 223 222 224 225 216 199 189 172 164 157 174 200 223 231 229 226 226 210 200 174 169 172 172 168 171 182 201 212 214 223 220 228 230 230 232 233 226 227 222 216 209 203 205 209 210 203 196 196 191 183 178 167 160 154 142 127 55 41 56 121 138 171 178 177 187 189 150 113 74 67 101 134 150 165 174 183 189 192 196 205 208 206 216 210 222 221 224 227 226 230 233 236 235 231 228 222 214 194 180 164 164 168 175 191 210 227 228 215 218 208 195 178 174 181 180 178 184 183 192 212 213 221 225 227 233 235 234 228 227 224 220 214 206 200 202 206 203 200 195 192 183 175 174 165 155 142 134 121 51 40 73 125 152 171 173 184 173 200 191 169 89 65 92 122 135 159 174 184 182 185 192 197 203 209 216 213 226 227 232 235 234 241 237 240 237 236 231 222 208 190 178 166 165 170 165 190 202 220 222 214 218 205 188 175 173 178 186 183 185 182 190 201 211 219 224 232 234 233 233 230 230 226 219 214 206 200 205 206 202 198 193 185 173 172 170 157 153 136 122 118 46 44 79 118 167 166 179 172 160 195 182 168 132 70 73 108 132 159 169 189 188 192 194 197 204 204 210 211 223 230 233 236 241 240 242 240 239 235 227 217 206 193 183 173 168 173 171 196 211 218 222 216 213 208 192 173 180 188 185 174 176 185 192 203 207 216 224 231 232 233 227 227 227 224 220 216 209 207 206 201 196 190 187 176 163 166 162 161 153 134 111 109 62 56 70 119 153 162 160 142 122 199 187 161 112 66 68 97 127 154 173 175 186 195 200 200 203 201 210 214 218 227 231 235 237 241 239 240 239 232 225 217 205 194 188 172 179 174 182 189 205 224 228 227 216 206 192 180 186 185 184 174 167 180 181 193 207 214 216 222 226 231 229 229 223 223 220 215 207 203 203 198 191 186 178 166 166 165 160 162 147 125 114 88 66 95 132 74 90 104 98 102 160 206 186 182 165 91 64 76 124 141 169 185 188 187 197 199 204 208 206 212 215 224 229 231 233 235 239 239 237 232 229 218 202 201 183 184 183 180 190 193 208 230 235 232 223 208 192 177 186 182 171 172 160 162 178 186 202 213 216 220 222 227 224 225 223 218 211 213 206 202 203 197 190 184 175 169 163 158 159 155 130 115 118 85 48 106 188 181 183 164 173 198 202 199 188 192 192 124 71 79 119 132 154 180 181 188 196 196 203 205 205 211 213 221 229 230 232 237 235 238 234 232 232 220 206 197 184 186 184 179 190 194 211 231 236 233 219 208 195 180 186 183 176 164 156 153 155 178 194 208 216 220 217 224 225 223 219 215 212 210 200 198 205 194 189 179 174 166 161 158 155 140 118 106 97 56 53 121 176 190 195 203 200 200 197 186 175 174 165 125 68 81 112 115 139 167 187 181 195 196 202 204 207 209 214 216 227 229 231 231 237 233 232 229 228 217 206 192 181 185 186 188 189 188 208 231 235 233 223 206 183 188 184 180 180 173 170 158 157 170 191 203 212 220 218 226 223 222 222 217 209 204 203 195 198 187 177 174 171 161 159 153 146 138 119 112 77 63 35 122 171 188 199 196 194 197 195 148 150 135 108 44 68 83 109 112 136 159 170 175 193 198 199 201 202 207 213 220 223 228 229 228 232 229 233 230 223 211 200 185 174 183 186 187 192 196 201 223 234 230 214 195 180 177 170 176 179 187 179 174 150 168 193 192 204 217 218 219 219 220 217 214 208 206 197 199 192 185 178 171 166 159 159 153 139 135 127 109 89 68 51 126 168 185 195 196 193 197 195 19 33 25 11 0 66 97 108 108 132 149 156 169 187 194 194 196 197 199 209 214 221 226 227 229 229 228 225 222 219 206 198 184 173 178 181 188 185 189 196 217 231 229 209 184 175 172 178 196 198 197 176 166 144 158 187 204 195 206 214 211 214 216 216 211 207 204 199 194 188 181 176 165 164 156 152 146 133 135 134 110 93 70 59 132 175 182 190 197 197 200 194 10 2 4 1 13 53 116 122 109 123 149 158 156 174 191 192 192 200 205 207 212 219 217 222 220 224 224 218 214 206 201 195 175 175 188 189 185 178 181 187 206 230 226 206 192 180 180 193 197 208 193 175 155 128 153 188 200 202 201 208 211 211 212 210 209 201 200 195 190 184 178 173 164 161 155 154 148 136 132 122 119 94 69 64 155 168 180 187 196 201 196 191 1 5 3 3 6 38 102 131 108 120 150 157 153 174 186 194 191 196 200 204 210 211 210 219 223 223 218 217 207 205 201 195 166 173 196 197 194 179 186 188 226 233 232 218 184 177 185 193 192 200 188 163 142 122 157 178 197 195 201 204 206 204 211 199 206 197 194 192 186 180 174 167 159 153 147 149 144 133 138 117 121 99 49 89 156 165 169 182 195 201 194 192 9 8 4 7 1 38 114 128 119 123 144 153 157 171 179 192 195 198 207 208 210 210 208 217 219 220 213 213 201 204 205 185 142 159 195 195 201 174 180 218 232 233 232 226 190 177 187 186 193 187 168 140 121 118 167 185 202 198 202 199 203 204 208 201 198 196 190 189 183 174 167 165 158 152 149 152 148 139 135 108 105 106 58 94 157 168 171 181 193 195 194 191 7 7 5 6 2 16 94 118 134 121 152 161 148 160 178 183 192 194 200 200 205 211 214 218 220 217 215 214 206 205 206 201 144 117 159 177 186 176 190 218 214 214 219 219 201 183 185 179 169 153 122 93 80 142 176 193 206 202 204 201 208 203 205 200 200 196 191 184 179 178 168 160 156 148 147 148 146 145 128 128 107 99 48 100 164 173 169 182 191 192 193 191 11 9 9 10 9 12 105 110 121 129 154 169 156 155 172 178 192 197 202 202 202 203 211 215 215 216 215 209 208 206 205 192 157 81 95 132 154 161 204 206 200 204 196 202 205 189 167 147 120 61 19 42 78 156 180 197 209 208 207 195 197 205 207 205 200 194 191 182 179 173 161 156 154 150 145 149 154 145 134 146 106 86 77 117 158 170 179 180 190 193 192 191 13 11 15 14 16 13 56 126 109 131 165 166 164 155 164 177 190 194 196 197 202 203 204 208 209 208 212 213 213 211 199 182 154 111 36 32 105 126 159 182 171 167 168 175 189 177 135 87 21 13 17 49 116 155 159 202 206 204 202 202 195 195 203 202 197 189 187 179 170 165 162 155 149 150 143 150 155 150 121 115 121 86 82 128 163 174 172 181 189 191 191 187 15 13 18 16 24 15 56 123 109 118 164 164 171 160 156 164 184 197 194 198 200 198 197 203 206 210 207 206 216 212 201 184 165 142 103 57 24 59 92 117 127 128 114 94 114 98 57 19 45 39 47 100 128 136 166 203 206 210 207 204 191 188 191 195 197 189 187 177 167 164 160 155 148 147 149 140 149 153 105 109 120 81 102 154 179 173 180 181 188 192 192 187 16 20 20 19 23 10 47 92 111 125 158 164 172 162 143 158 173 182 190 191 192 202 198 201 206 208 207 210 210 202 199 188 185 157 110 89 41 50 58 77 77 87 84 74 64 40 39 52 90 83 66 87 123 148 178 198 196 205 210 197 199 193 192 192 191 192 184 173 160 155 159 155 151 151 155 147 146 143 130 115 119 85 83 75 90 105 128 135 169 193 198 200 17 27 25 16 24 17 59 93 107 148 155 181 168 176 141 148 163 175 184 186 186 197 200 201 202 203 203 195 198 198 182 181 174 123 110 39 79 80 69 52 36 25 25 34 28 40 61 61 44 70 62 83 85 139 170 185 200 187 185 193 191 189 192 189 182 181 185 169 167 153 151 151 150 156 162 156 133 127 128 118 138 92 105 10 8 10 14 19 24 26 64 113 25 24 23 17 22 19 40 108 95 131 148 160 165 173 147 146 154 166 175 189 193 193 194 200 203 208 181 172 177 189 173 170 155 103 92 86 70 90 85 85 21 38 18 26 12 42 82 75 56 72 92 83 103 109 151 170 196 175 163 160 164 174 188 186 179 178 175 167 156 149 148 153 153 157 159 150 113 153 105 118 127 95 106 7 15 21 23 23 32 20 18 10 22 28 23 25 24 24 37 106 101 118 119 141 156 167 161 149 146 165 174 178 185 191 197 209 195 174 165 151 151 158 165 162 126 81 116 65 81 82 101 130 19 46 26 26 35 67 85 63 64 60 101 56 94 99 134 156 156 176 152 162 130 176 150 157 166 175 156 162 152 144 136 145 162 153 156 156 128 111 96 128 106 106 106 4 23 22 24 27 26 26 26 32 19 25 29 24 23 24 35 93 71 141 116 138 150 170 162 154 143 151 172 173 177 194 210 204 166 138 162 126 142 137 120 125 113 102 104 105 102 112 110 139 88 42 37 26 44 109 99 46 109 98 96 47 67 108 85 136 135 132 143 134 88 157 145 154 144 158 166 145 151 134 120 148 159 154 133 148 125 108 93 145 124 142 75 6 15 13 16 17 22 24 25 22 25 33 31 29 25 18 28 83 119 115 122 121 145 158 163 158 141 145 153 171 173 185 193 168 129 124 154 98 105 111 86 143 107 87 93 101 73 120 119 135 74 125 51 60 64 100 63 60 109 112 91 89 69 66 118 128 107 98 125 118 72 156 135 140 112 116 162 152 146 147 126 141 163 150 134 140 121 109 125 129 124 127 57 9 20 14 18 19 20 20 20 23 21 30 38 28 29 17 30 66 138 88 115 124 143 137 152 160 137 149 149 150 166 184 163 131 140 125 119 101 117 118 113 130 68 97 41 114 104 110 105 140 65 106 137 64 65 101 59 71 89 76 77 78 73 74 79 90 96 108 104 121 93 150 151 146 143 103 126 133 145 157 130 143 168 160 154 125 116 137 118 94 139 133 33 14 12 14 14 18 23 19 18 21 26 25 26 18 18 18 9 65 103 86 109 125 129 139 170 153 138 147 170 151 167 175 148 149 134 108 124 78 130 109 108 102 85 57 56 110 119 98 83 138 147 70 99 85 76 105 94 119 119 124 103 122 90 79 57 76 81 123 111 85 96 125 121 136 98 82 104 138 135 144 128 142 151 158 147 137 119 122 110 114 127 136 38 17 7 7 8 17 12 19 18 17 25 26 28 24 21 14 7 60 100 102 107 118 120 159 179 148 138 132 155 151 162 157 148 113 116 108 139 88 111 131 143 126 114 97 110 111 127 147 117 161 152 102 110 75 97 126 135 146 116 151 114 136 116 103 87 90 73 84 103 81 67 84 106 108 68 64 87 141 129 157 153 144 152 147 136 129 140 118 84 122 107 61 16 22 13 19 10 13 10 17 17 19 22 33 26 25 22 15 19 26 80 114 108 91 107 161 166 117 141 143 153 134 136 144 149 135 86 122 85 79 78 106 101 127 142 129 131 135 147 145 134 149 128 120 130 126 110 116 123 125 107 135 136 106 115 120 104 106 90 63 58 43 47 64 84 87 82 94 88 128 116 142 151 136 147 154 104 111 116 125 116 117 112 11 8 18 19 20 15 18 12 18 21 17 17 35 25 24 25 19 14 20 94 103 114 104 98 138 162 130 174 152 131 149 143 148 151 105 59 71 77 57 60 56 88 113 108 99 78 85 90 84 99 104 94 81 94 119 104 83 79 74 80 85 68 64 61 43 41 33 24 32 53 67 49 59 67 75 81 104 119 115 129 119 149 135 164 139 108 130 105 105 115 104 97 8 15 8 19 19 17 14 16 19 17 23 24 35 21 30 14 16 12 18 72 97 95 98 99 125 146 156 170 138 139 143 155 131 139 91 68 73 75 70 38 41 43 33 37 58 91 60 50 63 60 62 77 61 57 52 36 30 19 38 38 47 48 74 87 78 76 100 125 127 122 137 121 162 118 98 94 102 108 95 118 112 129 124 165 125 127 131 102 123 119 110 48 12 17 14 14 11 17 18 21 22 18 22 27 34 27 28 24 21 15 12 20 119 71 80 80 127 139 163 151 126 124 165 145 135 163 116 89 103 99 103 98 137 139 148 158 162 183 179 195 164 137 171 172 158 133 120 111 121 128 151 164 190 197 201 177 183 172 161 144 156 167 183 157 121 127 118 106 113 122 68 111 118 111 98 150 132 135 121 119 116 113 65 31 28 8 20 19 22 21 24 25 13 19 16 21 30 31 29 34 14 16 17 9 80 58 89 81 101 107 131 150 137 119 148 153 154 178 158 127 94 148 144 167 185 161 167 176 177 185 204 195 214 211 226 218 214 201 198 189 200 203 215 212 217 221 210 193 182 158 172 171 175 187 165 148 144 108 153 101 92 120 78 96 98 127 123 148 141 127 110 90 114 87 11 13 42 32 21 22 22 25 20 26 31 35 36 15 25 28 38 30 19 20 10 31 18 50 110 79 75 99 133 118 154 146 129 172 134 168 175 135 114 131 148 160 186 189 164 151 173 195 210 213 217 221 224 218 221 216 221 217 222 218 220 221 216 194 189 182 167 176 169 165 166 152 154 148 146 94 126 101 115 110 94 70 110 138 109 147 147 125 129 89 117 65 4 1 6 10 13 19 28 27 26 32 36 29 29 15 29 34 27 30 25 16 10 8 12 63 91 101 91 98 136 105 117 129 123 142 104 149 139 164 119 125 135 160 164 174 192 172 162 176 182 189 203 215 220 217 216 202 205 201 198 190 183 192 189 171 167 167 152 150 151 138 144 160 182 180 143 120 118 77 91 101 109 79 98 159 123 145 137 136 121 116 90 11 23 8 2 4 3 3 10 3 10 14 10 5 7 18 32 31 33 28 29 19 15 8 8 40 32 97 46 80 116 112 122 119 99 111 100 139 161 136 101 144 161 179 165 185 170 172 176 179 175 180 189 183 186 169 159 170 155 140 138 145 134 144 157 140 134 109 136 144 141 134 137 149 163 160 158 129 109 76 89 76 103 96 104 139 138 152 103 101 101 120 51 20 13 18 3 1 2 2 1 2 2 1 2 1 2 12 29 31 36 25 22 26 17 17 13 11 9 47 65 68 116 86 126 140 93 108 67 145 124 100 107 143 167 170 156 164 150 160 155 166 175 172 155 130 147 131 121 142 118 108 119 160 111 120 134 128 114 113 114 141 137 126 143 130 148 148 182 185 132 77 86 79 74 91 102 136 132 123 102 112 80 50 27 18 21 23 14 0 2 2 2 2 3 1 2 1 2 10 20 29 25 26 38 27 14 19 11 12 12 8 57 46 72 79 113 131 78 72 74 94 83 101 119 123 187 153 151 170 184 171 154 150 118 166 142 122 128 135 119 155 126 134 126 196 149 125 104 125 118 120 112 129 147 133 149 150 151 178 183 167 163 78 96 112 87 92 91 143 109 88 91 103 50 14 15 20 21 26 28 9 2 3 3 2 1 2 2 1 1 13 21 32 27 31 43 36 33 21 12 15 17 6 12 37 38 77 83 93 62 82 86 101 86 101 99 126 175 162 160 179 158 150 158 123 123 110 127 137 106 152 137 199 90 138 154 112 158 94 98 131 141 147 154 160 175 141 154 160 149 126 155 124 124 100 120 94 106 109 79 120 112 78 72 83 14 13 16 21 23 13 29 20 2 2 3 1 2 3 3 3 3 16 13 20 31 25 40 29 35 17 12 17 15 18 7 17 68 90 55 82 72 105 88 106 77 116 91 118 190 185 172 138 151 181 178 146 150 135 123 97 123 124 91 209 102 125 183 102 97 81 108 147 144 160 164 178 168 157 157 170 166 134 118 130 110 99 90 106 123 117 99 90 102 64 64 24 18 18 19 19 20 31 26 31 20 5 3 4 4 6 5 9 9 24 5 18 28 18 38 31 23 21 14 16 13 11 15 5 81 63 60 64 78 104 95 104 75 132 138 163 221 165 147 135 193 185 161 145 144 140 112 107 100 94 108 160 145 130 146 124 89 108 143 156 171 217 189 175 177 176 165 171 160 188 156 173 111 80 99 83 100 84 80 93 59 63 27 10 26 22 21 18 25 22 19 31 25 17 10 9 10 12 14 17 20 30 13 14 24 31 35 31 31 27 20 20 12 22 16 9 7 48 41 73 57 82 101 118 62 156 142 149 140 130 104 122 168 174 150 164 145 147 144 118 143 130 141 93 129 157 120 130 112 130 141 170 169 205 205 215 208 196 176 182 161 156 158 142 183 86 95 88 78 89 63 85 81 25 0 14 22 30 18 14 27 17 17 26 37 28 18 14 19 19 23 28 20 46 29 14 12 24 39 37 39 40 23 26 18 18 13 13 16 5 25 27 43 75 85 90 79 117 135 123 103 123 76 140 189 189 180 169 171 186 152 176 188 163 137 118 88 125 152 122 154 173 164 170 164 186 198 206 220 201 178 163 175 151 141 132 110 67 84 63 60 50 79 97 77 0 8 17 22 32 22 19 18 19 24 24 33 33 18 19 13 18 15 16 18 55 37 17 20 25 42 45 25 37 29 19 19 23 19 20 20 11 9 20 18 43 85 74 78 77 133 120 177 124 101 139 191 194 188 192 213 206 194 173 171 144 172 161 88 113 129 147 166 160 175 177 178 188 209 206 196 204 155 143 123 149 106 140 165 124 60 60 40 50 93 110 24 2 3 14 20 25 28 17 17 23 26 25 26 33 33 20 13 21 21 25 19 58 46 26 12 19 40 41 24 35 33 21 18 20 20 22 15 17 6 6 7 13 53 71 67 64 105 107 152 110 84 145 164 166 199 206 219 223 205 161 161 141 188 203 110 93 126 172 151 185 178 186 172 192 206 198 162 159 163 163 120 89 158 79 78 97 63 24 47 93 103 96 3 4 4 8 16 20 23 18 22 24 23 28 20 33 39 23 21 21 16 15 23 40 42 42 15 9 25 35 28 31 24 27 26 25 22 26 14 18 13 8 0 2 17 56 86 78 70 101 123 99 90 130 151 150 182 200 214 205 183 170 160 165 208 209 135 101 134 149 157 193 180 185 136 180 192 200 172 125 171 152 120 79 95 83 80 51 34 49 98 99 99 60 1 2 6 7 14 22 21 19 21 17 17 25 19 24 25 43 28 19 22 25 25 58 37 38 23 7 20 38 39 43 35 25 28 27 17 34 13 20 17 14 10 0 31 48 49 64 75 92 92 89 92 151 124 116 160 208 201 160 167 142 141 145 184 209 155 109 113 160 200 181 178 192 163 153 195 159 138 124 148 110 96 67 75 82 66 43 41 95 96 97 105 18 1 2 7 9 16 25 24 19 15 22 19 29 28 16 28 38 23 28 27 27 23 56 45 39 28 18 20 27 35 43 33 29 35 29 24 30 19 27 24 21 13 9 0 1 28 60 61 77 59 61 101 130 92 111 162 194 143 151 149 159 160 170 193 184 164 148 134 162 194 188 185 158 166 173 153 177 113 92 145 132 100 62 79 48 41 53 90 102 105 103 70 2 1 2 4 8 11 17 26 21 11 21 33 25 26 30 25 31 41 44 36 24 16 33 44 34 23 23 16 20 25 43 35 29 38 30 27 20 20 20 25 10 6 8 1 3 15 44 38 46 69 77 101 108 77 111 153 118 142 135 100 147 138 195 180 162 149 160 172 132 149 169 156 142 149 143 151 151 117 87 123 105 87 41 45 20 58 76 99 104 97 98 30 6 4 3 8 11 16 19 26 27 16 21 23 28 22 19 16 30 36 34 36 23 21 46 44 40 21 27 16 24 29 42 39 35 25 32 36 31 23 20 26 19 17 18 3 1 4 26 55 45 39 48 105 81 51 83 83 158 132 133 92 118 112 176 158 117 153 169 150 147 114 142 141 139 156 118 151 123 142 109 82 79 52 36 19 39 81 91 102 107 102 97 7 23 0 3 5 9 15 24 23 18 19 23 25 28 22 26 34 26 30 30 41 40 33 43 51 34 37 20 17 17 31 35 38 32 24 24 26 31 27 22 31 21 20 19 11 4 0 14 48 64 39 48 81 92 113 76 100 171 122 147 106 95 110 134 127 127 158 152 138 143 145 96 180 111 137 119 98 83 72 90 67 110 100 40 57 71 81 92 104 104 97 67 10 41 2 3 5 6 9 10 30 24 21 20 29 25 26 31 38 25 27 33 40 25 48 45 48 40 39 17 13 18 28 45 42 26 37 38 39 31 35 25 33 21 26 18 10 8 3 6 34 63 85 65 70 45 52 93 105 108 116 68 99 93 94 123 132 108 197 137 109 111 92 84 153 119 119 117 55 86 53 72 45 87 40 69 65 86 95 109 113 100 92 143 18 56 6 1 2 6 8 12 25 26 20 18 24 29 26 22 34 28 29 33 33 32 31 46 46 40 36 21 19 17 34 35 39 31 48 36 35 29 29 26 24 17 24 20 13 10 3 1 18 58 89 90 84 33 48 118 127 107 105 69 78 99 75 93 96 95 176 151 95 106 121 89 137 95 84 81 54 47 20 69 33 71 60 58 74 91 102 111 108 95 145 201 20 69 22 3 3 6 5 12 23 18 20 27 37 28 31 23 26 35 29 32 16 42 39 37 52 38 30 31 20 14 32 32 37 38 45 43 46 29 24 23 27 25 18 23 18 16 10 6 7 34 69 84 85 52 44 69 87 75 63 71 63 100 87 97 101 79 115 100 93 99 116 108 99 69 85 39 42 60 20 75 58 53 76 80 89 107 113 113 101 79 157 198 54 82 36 0 4 6 4 15 23 22 24 28 21 26 28 25 29 29 26 37 32 35 41 38 55 48 50 31 13 24 32 37 42 38 39 28 46 40 39 34 18 33 23 32 25 16 12 4 4 23 48 68 77 77 82 57 53 55 37 65 89 59 65 62 75 75 83 109 71 97 83 123 28 32 101 37 48 21 20 55 51 56 70 88 101 104 109 105 99 74 148 205 78 100 54 0 5 4 5 11 26 30 22 27 25 31 36 33 31 16 38 34 33 34 33 34 47 47 57 36 26 17 16 33 34 39 42 35 44 41 30 32 22 44 28 26 24 21 19 9 4 13 41 70 83 77 90 80 72 49 26 31 73 54 39 56 51 23 83 84 73 79 64 53 58 46 28 29 52 44 39 46 52 75 86 97 104 103 106 103 88 64 145 205 100 115 64 0 5 4 6 10 29 32 24 18 29 27 39 36 29 21 31 30 34 30 36 40 47 48 31 50 27 24 24 36 47 46 47 41 51 44 50 33 27 38 30 33 26 20 23 17 4 4 37 55 77 88 92 97 94 92 82 57 63 45 45 59 33 17 65 32 41 33 38 25 55 56 39 55 69 64 68 77 85 89 95 100 105 108 107 99 83 52 144 202 112 118 116 14 4 5 8 6 24 28 21 24 22 31 44 43 32 32 20 22 33 27 31 34 37 30 30 34 23 23 24 29 41 38 47 35 40 35 46 37 33 30 39 35 40 22 27 17 5 1 25 47 72 89 91 101 110 103 89 81 87 85 58 69 48 64 57 45 66 66 65 78 80 66 55 74 68 54 64 79 77 89 98 103 107 112 99 93 93 24 154 197 104 107 131 61 0 7 5 3 18 30 25 31 22 25 39 41 29 34 24 24 29 33 23