P2
# Generated by OpenCV 4.2.0
92 112
255
133 136 102 62 59 55 49 43 49 65 59 43 53 66 78 69 47 39 19 25 38 34 35 39 42 40 38 45 47 54 54 49 50 51 48 58 59 72 111 118 115 91 115 108 112 127 127 112 121 124 118 124 130 125 118 107 134 148 149 142 130 127 122 120 121 115 99 104 62 31 56 66 79 66 40 38 46 53 70 43 81 103 101 81 87 120 138 144 133 139 122 119 161 147 77 56 59 56 44 43 52 57 44 42 60 68 79 57 49 35 40 53 58 63 61 61 64 65 69 67 65 71 73 65 67 62 57 60 67 76 106 132 125 100 124 136 148 151 146 134 137 144 149 144 144 140 131 131 141 142 147 146 136 129 124 124 124 116 109 109 88 39 60 73 54 57 42 40 51 48 84 58 61 94 105 87 92 133 143 161 156 134 104 110 167 117 50 50 66 43 35 48 52 42 31 50 71 76 81 52 39 48 69 81 84 97 108 99 99 107 119 114 102 96 95 92 92 88 82 82 85 87 105 131 135 121 144 169 173 171 171 166 161 165 165 160 163 161 156 155 154 146 143 141 139 138 137 134 127 119 119 112 104 70 45 75 58 37 35 37 51 55 66 92 54 70 102 99 88 111 141 151 135 103 110 124 119 67 42 65 56 31 39 50 41 33 21 58 73 82 76 37 54 83 92 110 115 108 123 130 128 137 139 144 134 117 125 128 112 109 108 114 109 114 114 129 153 143 152 168 170 172 171 170 170 171 169 167 166 163 161 160 156 153 153 153 145 134 139 137 130 124 121 115 108 100 65 67 61 49 30 30 42 56 55 87 79 53 87 107 89 104 130 122 103 120 147 154 66 44 48 65 40 33 47 41 37 21 23 66 70 88 57 45 89 99 102 118 128 132 125 133 145 154 154 155 163 151 148 148 148 141 133 138 144 140 143 141 164 169 164 167 168 164 167 165 167 168 169 167 168 167 164 161 156 152 150 151 151 138 138 133 130 127 121 118 115 113 90 72 61 47 33 27 35 53 59 61 94 71 59 97 99 90 113 113 123 162 175 167 47 43 62 54 32 43 41 37 29 19 28 78 81 93 47 77 102 104 119 133 138 142 147 150 155 155 160 155 164 179 173 171 174 174 166 158 166 164 158 166 170 176 176 171 169 165 166 166 166 166 166 170 167 164 163 159 159 156 152 149 146 145 141 135 130 128 126 120 118 116 107 74 63 43 38 25 29 47 64 59 76 89 56 69 102 92 108 121 147 170 159 142 38 58 58 38 37 43 36 39 20 15 35 83 91 86 57 96 97 110 126 135 139 146 151 157 160 160 163 165 168 180 180 176 180 181 180 176 169 173 171 176 179 177 176 173 168 166 165 164 166 169 168 169 170 164 162 156 157 156 154 151 143 138 139 138 134 130 127 122 121 118 115 96 68 46 36 25 22 35 59 65 58 85 70 47 83 96 89 113 132 139 121 114 49 59 37 34 40 34 36 30 14 19 44 73 103 76 67 94 103 118 128 135 142 148 148 154 156 161 163 167 170 175 179 177 178 177 176 177 174 174 174 181 179 180 177 172 170 167 168 166 165 169 170 170 171 167 163 163 159 155 154 151 146 139 135 138 135 132 129 125 122 118 118 114 92 49 35 27 19 27 51 61 57 78 93 54 63 99 85 93 109 126 150 151 56 48 34 40 33 31 30 17 16 24 44 85 113 74 77 90 109 118 127 134 141 147 149 155 158 160 164 170 173 177 177 179 177 172 174 176 176 180 177 174 175 175 174 173 171 170 164 161 165 169 173 172 171 168 167 164 161 157 153 151 145 142 138 137 134 132 133 130 126 121 121 117 108 67 30 28 22 21 41 54 69 71 95 81 59 97 89 81 100 125 160 163 49 35 34 36 29 29 22 17 16 27 47 96 113 78 85 99 110 115 125 135 141 147 154 157 159 162 165 167 172 177 177 177 173 172 172 172 176 177 179 177 174 175 174 169 169 172 171 168 167 168 173 174 171 169 168 165 162 161 155 152 148 142 143 139 132 129 133 133 130 126 119 113 105 79 37 26 26 18 44 50 70 71 84 100 68 81 87 76 96 114 128 138 44 35 30 28 30 26 18 17 13 27 52 99 113 79 95 101 108 114 125 136 141 148 155 158 162 165 166 171 174 172 174 171 172 174 174 174 177 175 179 177 176 177 178 171 172 173 172 174 169 172 174 174 173 172 170 166 165 161 159 153 150 147 147 142 130 126 130 136 132 125 119 114 107 85 50 25 23 19 43 50 59 73 78 99 82 66 90 77 76 97 103 100 48 34 25 26 29 22 16 21 17 27 63 110 111 76 102 103 107 113 128 140 145 150 155 158 162 166 169 175 173 173 177 177 176 177 180 183 184 182 181 182 184 186 185 184 179 179 177 178 179 179 180 178 174 171 172 171 166 163 160 156 154 152 150 145 132 127 130 133 130 125 117 113 108 99 73 35 19 19 26 46 56 72 72 85 98 58 65 85 63 92 103 116 36 26 21 32 27 19 21 26 17 27 74 121 100 82 111 103 106 113 130 140 145 152 158 160 166 168 170 175 179 178 178 180 176 175 179 182 185 186 185 186 191 193 191 189 183 186 185 181 184 183 183 181 179 176 173 171 169 164 161 160 157 153 151 152 143 134 136 135 132 125 114 109 106 98 89 58 25 17 18 44 55 68 66 67 97 69 46 80 67 82 118 135 28 23 27 31 22 19 25 20 17 23 69 120 98 89 111 109 107 114 133 143 147 154 160 162 164 165 167 174 176 172 173 176 175 179 183 182 180 180 179 179 183 181 184 185 187 181 182 185 185 178 174 179 180 179 178 175 174 168 161 163 161 155 151 153 146 136 137 136 136 125 114 100 98 94 80 68 43 18 16 39 51 57 78 67 77 85 43 66 79 69 106 127 20 21 28 25 19 18 22 13 20 20 71 126 101 97 115 114 106 115 136 145 146 153 159 164 162 162 167 172 170 172 177 178 178 183 185 184 185 185 181 187 186 183 186 186 190 186 186 183 185 183 180 180 183 186 183 181 177 172 168 166 165 159 156 154 148 140 138 138 133 126 117 108 96 82 69 60 56 29 15 27 45 46 73 73 61 81 48 49 78 58 80 106 16 23 26 24 17 20 19 15 20 23 83 132 98 97 114 113 105 121 140 148 154 157 160 163 161 166 172 172 169 172 176 179 180 179 188 189 192 189 189 191 186 183 184 182 183 182 180 182 184 184 182 183 185 186 186 184 180 177 174 172 170 165 158 155 151 142 141 141 136 127 112 105 98 91 68 49 52 35 18 21 41 41 57 77 55 76 56 42 67 59 62 103 22 22 21 20 18 17 13 21 20 34 86 134 96 99 116 113 109 130 147 154 157 160 163 164 164 169 174 173 176 175 178 185 183 184 192 192 197 196 195 186 187 188 184 193 186 188 192 189 189 185 183 183 185 184 187 184 180 178 175 175 172 168 162 158 154 144 142 142 136 125 110 109 101 82 79 55 45 40 21 15 33 43 48 65 55 73 68 50 56 52 55 109 19 17 18 15 16 15 16 20 24 44 87 137 96 101 119 118 115 131 149 156 158 159 163 166 168 172 174 175 177 178 179 185 193 193 196 195 197 201 196 193 196 193 195 192 189 193 190 190 190 187 184 184 181 184 186 182 182 181 176 176 175 171 168 161 155 147 144 145 138 127 110 108 108 83 66 59 50 44 36 15 26 42 43 53 50 63 73 58 52 48 51 92 16 17 16 14 15 13 15 22 26 45 85 139 94 104 123 121 119 133 148 157 159 160 165 166 169 170 172 172 173 177 174 186 192 191 197 198 200 203 199 204 197 193 197 195 191 187 193 197 193 190 183 185 181 184 186 183 178 178 179 178 176 173 171 164 157 151 147 146 141 126 113 114 100 80 68 53 49 44 47 30 20 39 42 45 49 57 73 57 55 52 45 67 17 17 14 11 13 14 17 24 25 43 81 138 96 106 122 121 123 137 147 154 159 159 162 162 164 168 171 173 175 172 176 187 191 188 193 194 199 201 199 198 202 204 206 199 194 188 185 195 195 198 190 188 187 182 179 181 175 175 177 178 176 174 171 164 161 156 148 146 141 131 119 115 102 73 58 56 46 46 46 49 19 32 40 41 47 54 74 56 49 51 44 49 18 16 13 11 12 14 19 22 29 36 74 136 106 107 120 125 129 138 148 152 159 160 161 164 166 170 170 172 177 177 180 186 188 196 195 192 197 201 199 199 198 193 195 190 191 194 187 186 182 180 180 174 180 179 174 175 174 176 172 176 177 175 171 166 161 158 150 145 141 133 129 121 105 79 57 47 43 43 50 55 30 23 41 40 43 50 67 63 43 43 50 43 21 14 10 12 13 13 21 20 23 49 76 138 113 105 124 129 136 141 148 155 159 159 160 167 166 167 168 173 173 176 179 183 194 194 192 192 196 201 192 194 186 175 184 183 182 177 177 177 171 169 170 170 174 174 172 173 171 171 171 175 176 173 169 164 164 160 151 146 139 132 131 130 109 81 62 46 37 35 44 67 54 21 37 36 40 45 58 58 41 44 55 40 17 13 11 14 15 12 22 20 36 46 81 136 105 105 125 133 140 142 147 158 159 161 163 164 166 167 171 173 176 177 181 183 187 188 196 193 195 197 199 195 188 191 194 186 179 179 176 175 169 165 168 168 170 171 171 172 169 169 170 172 178 172 168 163 163 160 151 146 139 133 133 130 117 98 77 56 37 32 36 54 74 32 30 35 37 39 48 45 38 48 56 40 14 9 8 12 10 16 20 26 30 42 80 135 110 108 122 135 139 142 149 154 158 162 161 160 164 166 169 171 171 170 173 177 176 174 177 177 180 185 189 185 179 180 179 178 177 174 173 165 164 167 168 171 173 174 173 173 172 171 170 166 173 172 167 162 158 155 152 145 141 138 136 130 121 104 78 58 42 32 30 37 59 61 35 37 35 39 42 42 37 44 53 44 12 9 10 12 10 18 16 21 24 32 66 139 115 106 121 132 137 142 148 152 154 159 157 157 161 163 165 164 167 170 172 175 174 179 181 179 178 179 179 180 179 174 177 180 177 173 169 167 169 168 170 173 175 172 174 172 172 173 172 171 171 170 165 161 153 149 149 142 141 141 138 132 125 113 90 68 51 37 30 27 32 45 49 41 40 44 40 38 34 35 46 44 11 8 12 13 14 17 14 15 21 29 59 143 117 105 122 132 138 143 147 153 156 157 152 157 161 165 167 166 171 173 174 178 182 180 177 175 176 179 178 179 180 178 175 174 176 174 171 170 173 172 176 177 179 177 177 174 173 172 172 172 171 169 161 155 151 144 143 140 142 141 140 134 124 111 103 87 69 51 31 23 24 27 34 37 33 35 36 37 27 30 44 40 9 8 13 13 14 15 16 17 20 32 66 139 120 105 120 131 140 142 143 150 154 153 154 159 165 165 164 166 175 175 174 179 179 174 173 178 176 177 179 178 178 181 182 179 176 177 173 172 174 178 182 181 177 174 173 173 176 173 171 171 168 165 162 154 149 142 142 138 138 139 141 133 122 112 105 94 88 78 49 22 20 23 23 32 32 33 36 35 23 30 38 40 8 10 16 12 16 15 16 16 26 39 62 134 122 107 120 129 140 140 141 146 153 156 156 161 168 167 166 172 176 177 177 174 173 176 180 179 175 175 182 180 175 183 191 186 184 183 185 189 189 181 179 177 176 179 175 176 172 176 173 169 170 169 165 156 151 142 141 139 132 130 129 127 121 111 101 91 94 98 73 32 22 22 23 22 24 31 40 36 19 26 31 38 7 15 14 12 16 15 13 19 27 36 58 123 124 110 117 125 134 136 139 144 149 159 162 164 167 167 170 177 178 183 181 179 183 183 182 184 182 183 183 181 178 180 184 190 191 198 205 194 187 182 176 177 177 182 176 174 173 175 178 172 168 167 160 152 149 140 139 138 132 126 120 118 117 108 98 92 98 106 91 46 26 29 28 21 18 29 36 39 20 18 27 31 9 11 8 14 16 13 13 15 18 38 65 117 120 107 114 121 132 134 137 141 150 162 164 167 170 169 171 178 179 185 182 181 191 190 194 190 190 198 195 189 195 195 196 197 200 211 213 210 206 199 190 192 180 178 188 175 167 168 173 178 170 164 154 143 131 120 122 128 132 133 124 111 104 103 96 94 97 103 96 61 31 33 32 25 18 26 29 33 20 15 23 30 10 11 9 16 15 10 11 14 28 48 69 108 115 100 110 122 127 130 137 144 152 161 163 168 169 169 174 177 182 182 180 180 190 195 196 198 205 209 202 203 196 202 208 202 211 217 220 215 218 210 200 198 177 175 179 146 136 137 142 145 142 139 140 125 111 106 104 115 112 109 119 115 98 97 96 97 96 104 98 69 34 25 43 34 19 19 30 31 19 15 20 26 14 9 12 17 12 12 16 22 41 62 70 89 113 98 107 117 120 127 140 145 154 158 163 166 167 171 178 181 181 181 180 183 193 194 193 204 219 212 208 206 199 205 208 206 206 213 201 194 200 195 186 189 146 148 142 124 115 112 107 106 100 111 109 113 113 103 94 101 109 88 79 97 100 90 95 98 99 102 104 76 35 20 38 41 23 21 29 27 17 15 16 26 12 8 14 18 13 24 19 26 55 77 76 80 106 99 106 112 109 111 123 139 146 148 155 156 158 162 172 176 174 180 183 184 185 192 203 202 213 209 206 206 204 206 202 202 198 201 193 172 170 168 160 151 115 119 118 104 97 101 97 99 99 104 105 110 112 115 109 108 111 104 94 84 94 91 90 96 101 103 105 92 50 25 29 34 29 20 24 25 18 16 12 22 12 8 15 16 18 22 17 39 68 79 85 83 98 100 100 91 89 105 122 131 127 122 124 118 118 128 137 142 147 156 165 169 175 184 194 198 203 198 195 198 200 194 192 193 192 190 184 175 158 153 143 138 126 126 127 109 91 99 103 105 113 116 125 129 134 134 129 132 130 124 115 100 91 93 89 95 106 107 104 98 65 32 23 25 27 21 22 26 18 17 12 17 11 8 16 15 19 17 26 41 73 86 89 79 90 101 74 77 99 99 108 112 103 96 90 96 110 113 101 109 115 126 134 141 156 169 177 182 187 190 189 193 195 189 191 187 184 179 177 175 166 157 144 144 129 125 125 116 117 126 134 147 159 155 154 158 155 142 140 140 134 133 126 117 111 97 87 91 104 110 105 98 80 45 25 20 21 22 23 24 16 18 12 13 10 10 15 18 17 20 24 43 79 88 89 74 81 86 60 85 104 104 101 99 98 89 79 94 101 98 84 88 97 113 124 126 143 156 151 156 180 185 180 185 195 192 187 182 178 176 168 167 166 154 142 141 132 125 127 137 157 169 168 174 179 176 170 167 154 151 148 143 137 136 132 129 126 114 101 89 102 110 109 101 89 68 43 24 22 19 22 20 14 17 15 13 9 11 17 19 16 25 27 45 84 88 95 76 72 87 81 103 114 102 98 106 116 120 117 117 121 113 112 107 105 110 124 128 135 147 152 162 171 176 171 175 189 188 180 176 173 171 167 161 156 146 135 129 123 128 148 159 160 160 164 170 177 175 172 168 164 156 148 145 138 135 139 137 135 127 119 96 102 108 109 106 94 68 61 41 19 14 16 19 13 13 16 14 11 14 20 18 13 29 28 44 85 88 96 77 67 82 89 103 116 126 138 148 152 156 164 166 161 161 156 144 133 121 114 121 128 138 149 159 166 166 163 166 186 190 175 172 170 164 160 154 148 134 124 120 132 147 146 129 125 128 130 123 114 108 117 124 137 138 144 148 145 138 140 148 147 148 130 102 109 108 110 105 103 94 62 50 28 13 15 20 12 12 17 16 14 17 19 17 16 34 22 44 83 91 92 79 64 74 86 114 131 145 157 161 164 168 172 179 185 181 176 165 155 145 131 117 109 118 132 146 153 160 158 164 184 190 176 168 166 165 159 148 133 124 124 138 146 135 114 128 139 120 82 66 57 50 44 50 74 99 120 127 140 145 138 153 153 146 131 112 115 112 107 105 102 103 83 49 46 10 13 21 19 14 14 17 19 18 18 13 22 33 20 48 82 90 93 83 71 70 79 113 136 148 158 165 173 177 174 165 156 149 145 134 127 122 129 135 122 108 107 117 128 143 149 158 180 190 177 164 159 156 149 135 131 133 142 153 141 124 137 142 126 105 66 81 106 60 43 54 90 66 77 102 123 142 142 149 147 144 142 122 120 118 106 106 102 99 93 61 34 16 16 22 39 35 16 19 17 18 21 15 25 22 20 51 82 92 92 95 95 68 69 101 140 153 157 151 137 112 87 64 64 69 85 115 132 130 116 115 130 130 117 111 110 115 135 155 176 191 182 167 156 147 139 135 146 143 147 149 142 148 141 122 171 167 82 76 89 65 54 90 134 107 74 63 106 138 141 136 141 142 139 130 126 124 109 105 104 105 92 91 51 31 34 34 57 51 29 31 11 19 21 16 23 22 41 67 85 91 97 114 126 75 64 86 140 141 120 86 61 60 31 44 63 79 78 75 120 138 150 133 121 128 129 125 126 113 119 154 174 182 178 170 161 145 130 141 150 140 142 158 164 138 132 139 160 147 118 119 124 121 130 144 136 128 119 89 89 125 129 134 146 147 141 136 133 125 111 102 103 105 92 95 59 36 63 58 60 50 49 54 25 23 20 11 26 53 47 66 93 97 104 128 146 90 64 79 112 103 70 46 111 128 43 53 72 112 72 89 178 154 129 136 144 145 134 129 130 124 112 146 169 178 176 167 159 145 126 135 145 141 153 173 135 134 154 154 145 142 156 164 165 164 166 161 155 141 132 125 126 139 143 146 152 154 146 141 141 128 113 105 101 100 86 80 77 45 73 76 92 95 92 97 57 35 20 17 41 43 44 80 96 102 110 129 146 115 75 76 91 68 61 88 130 135 81 65 69 77 90 115 172 163 134 123 133 159 154 143 138 127 109 141 163 172 172 162 156 145 126 121 139 156 174 156 136 166 166 152 152 165 168 176 182 180 170 158 152 143 141 144 150 152 156 155 150 152 147 147 145 127 115 106 100 101 97 85 77 61 74 95 123 118 122 123 59 34 22 31 33 44 75 89 95 103 111 134 145 128 96 80 80 74 108 126 124 129 128 132 135 144 144 169 166 154 156 153 140 130 157 160 152 126 113 147 162 167 168 164 156 147 133 115 132 156 182 176 171 167 152 142 148 158 162 161 162 164 155 149 145 146 148 151 159 158 157 154 152 150 148 149 147 131 118 108 103 102 92 79 96 82 84 99 119 121 115 135 36 29 31 40 47 69 80 92 99 106 117 133 145 138 119 86 84 96 120 132 148 149 149 170 165 175 171 180 160 154 166 165 156 158 170 173 149 117 129 154 162 169 167 165 160 151 138 121 124 148 165 185 172 159 158 152 151 151 152 150 151 153 149 151 149 155 163 160 164 169 166 155 148 147 152 151 143 131 120 108 103 101 88 73 86 80 76 101 114 120 110 143 31 33 36 44 67 71 89 102 103 111 126 139 143 144 136 111 101 111 123 134 145 153 163 170 169 170 158 148 142 142 157 160 165 173 173 163 134 119 146 153 166 171 166 163 162 157 149 134 119 139 151 171 179 171 170 170 172 167 168 164 162 160 157 159 165 170 178 178 174 167 165 158 145 144 154 155 147 130 120 110 106 102 88 72 81 57 79 140 129 114 128 130 25 27 29 42 65 89 80 99 102 114 130 136 140 147 145 141 127 123 129 133 146 143 148 150 152 150 147 142 144 151 158 166 171 173 159 152 125 128 150 157 165 166 164 162 158 156 153 142 119 127 150 163 172 180 183 185 188 189 185 182 176 173 177 177 179 178 178 180 182 175 163 151 147 148 152 158 150 135 122 110 104 100 88 77 81 64 70 128 131 111 129 111 32 23 35 54 79 85 90 100 103 117 134 139 138 143 147 142 148 147 135 141 153 150 150 149 149 150 153 158 163 169 172 179 177 164 156 145 115 127 148 158 160 159 156 152 149 153 147 136 120 116 143 160 171 174 181 187 195 197 194 192 184 179 183 180 179 182 178 179 178 176 167 154 148 151 153 154 148 140 130 114 108 95 89 75 69 68 69 132 142 114 123 120 44 34 42 62 82 83 94 95 103 121 135 144 141 137 140 148 158 159 161 169 166 163 164 161 158 165 169 174 179 185 189 187 172 164 157 129 108 124 136 150 153 156 156 151 150 144 134 132 130 116 127 152 170 169 171 185 190 195 191 194 190 183 181 177 176 180 177 179 175 169 170 164 159 157 158 156 143 135 130 115 106 98 91 80 61 74 64 100 128 111 123 152 56 58 53 69 83 83 82 92 101 124 137 140 138 138 147 153 156 167 171 169 175 176 174 172 168 179 183 182 189 192 190 175 166 162 145 116 112 123 135 146 149 152 146 148 144 137 127 130 138 123 119 139 163 181 173 182 179 175 188 195 191 185 180 176 178 178 177 178 177 171 163 163 166 164 157 154 144 138 131 113 100 98 86 74 64 60 61 77 95 117 163 188 84 77 56 81 87 82 85 91 104 123 135 137 137 141 148 152 162 165 166 176 180 180 175 178 178 182 182 188 192 189 179 172 165 156 128 110 116 121 128 134 147 150 140 145 139 132 125 122 134 129 117 128 151 176 181 183 171 155 176 184 179 178 182 179 182 181 178 176 176 168 163 163 160 165 158 154 147 140 127 115 104 98 93 72 54 66 62 71 80 131 186 182 123 100 60 79 71 69 86 92 108 122 135 140 138 141 143 157 159 161 172 177 177 177 175 177 175 178 185 190 186 179 176 171 159 144 114 112 115 114 122 128 138 144 140 144 142 129 122 122 125 128 117 121 138 161 176 186 186 177 179 176 175 178 178 177 176 178 174 172 170 167 167 167 162 163 159 156 151 142 130 114 104 103 93 74 67 58 86 80 117 135 173 175 135 105 62 74 50 58 79 93 108 124 137 140 144 146 152 157 155 161 168 171 169 166 161 163 173 175 186 184 176 173 173 167 150 128 114 112 111 109 120 129 140 148 146 145 142 130 123 125 120 120 121 120 126 149 164 176 185 182 178 175 175 178 177 177 176 173 170 166 165 166 163 165 164 163 162 155 149 143 135 116 105 98 84 66 63 65 103 107 143 152 139 160 140 96 56 72 55 71 76 93 109 125 137 139 140 153 157 152 151 159 164 165 155 157 160 167 173 178 182 175 174 167 163 156 139 125 118 112 111 114 118 135 151 155 151 148 141 132 127 127 123 118 116 122 123 134 156 167 178 179 179 180 178 177 175 179 177 177 175 168 162 165 164 161 162 159 162 155 146 142 135 123 106 97 86 68 49 59 112 129 119 148 125 123 151 93 56 60 63 69 74 96 109 125 136 143 148 152 151 155 153 153 151 150 155 161 169 173 176 179 176 172 166 159 154 148 141 132 113 107 110 118 125 138 154 159 156 149 146 139 129 131 126 119 111 114 133 135 139 151 166 173 178 183 179 176 180 180 178 179 175 170 162 161 158 160 158 156 155 155 148 141 136 125 110 92 89 77 40 51 116 127 99 111 137 122 114 82 62 52 58 60 79 96 109 123 133 143 150 148 152 155 148 143 144 146 158 167 170 171 176 177 174 168 157 155 157 161 157 127 103 107 115 123 125 142 157 157 152 150 150 144 140 139 132 122 108 104 127 148 151 153 156 163 173 181 186 181 182 182 181 175 173 173 167 163 161 156 154 152 146 146 149 140 133 124 104 94 83 66 37 51 116 128 124 87 116 133 110 91 63 48 67 61 76 97 107 119 135 144 144 148 149 144 140 146 149 155 165 169 174 178 179 176 172 168 164 167 174 176 159 114 99 116 123 123 128 138 151 155 152 147 147 140 141 140 140 129 112 100 105 141 170 172 165 166 170 176 181 185 186 185 182 177 173 174 170 165 162 158 149 150 144 148 146 137 130 120 99 97 77 60 38 51 126 139 134 118 92 111 127 97 63 53 69 77 69 91 107 117 135 135 141 147 144 138 144 156 159 164 170 175 179 177 180 179 173 173 176 179 191 176 144 110 102 121 129 124 124 130 138 151 153 142 134 132 134 143 142 130 124 114 104 119 164 181 183 182 180 176 178 187 188 191 186 187 177 174 171 166 160 159 152 148 144 146 147 137 128 119 98 91 77 61 43 53 147 137 126 153 131 75 147 107 63 70 81 79 72 93 111 119 130 129 141 141 139 144 151 158 164 171 173 179 181 181 181 178 179 183 185 190 189 154 123 105 107 123 126 117 114 122 134 149 150 137 127 124 133 139 142 137 128 118 111 110 136 174 187 191 191 183 181 184 189 192 191 184 183 175 170 168 165 161 158 148 144 143 140 135 127 118 95 80 77 57 39 71 160 150 143 160 163 100 149 113 71 73 89 72 74 88 109 120 129 132 136 139 142 149 157 159 167 174 178 180 180 179 179 181 184 187 195 193 174 141 111 102 113 123 118 107 111 137 155 157 152 140 126 123 127 131 136 136 129 120 113 106 126 163 181 187 188 188 184 184 187 187 186 184 181 176 173 167 167 164 164 146 143 142 133 130 123 110 91 82 68 54 48 87 163 157 159 162 166 104 148 116 69 72 72 65 66 90 107 119 128 129 134 137 146 152 157 163 168 172 175 177 177 180 180 188 189 189 193 185 168 138 107 103 118 121 111 101 132 167 183 184 185 155 136 129 126 131 137 138 130 121 114 104 123 158 173 183 185 187 183 181 182 183 182 182 178 177 175 170 167 164 162 149 138 136 132 135 123 105 89 76 56 42 48 106 164 160 166 170 167 101 132 114 87 85 75 54 63 93 105 113 124 129 136 139 147 151 161 168 171 172 176 174 179 182 182 186 191 191 183 178 171 144 106 101 118 123 107 115 155 190 199 185 206 192 155 139 132 131 135 140 137 124 113 101 117 162 172 176 182 183 183 182 182 183 179 179 175 174 171 168 168 163 158 154 140 128 127 131 122 108 91 73 49 55 53 117 170 169 169 174 157 88 115 153 126 112 93 46 52 85 105 108 125 127 136 144 150 155 160 158 164 167 170 175 181 182 186 187 188 181 169 167 167 153 106 97 110 117 104 118 158 174 173 169 163 179 174 147 128 124 127 126 120 116 110 95 127 160 164 166 171 177 179 179 178 180 179 179 178 170 166 167 163 157 152 152 144 129 130 127 124 111 100 74 53 47 54 128 179 174 167 166 151 97 112 141 142 118 90 60 49 69 103 107 121 121 132 144 151 160 155 148 159 167 171 171 177 180 184 184 179 167 161 159 154 148 108 85 84 88 101 100 128 152 156 157 149 149 161 134 110 100 76 54 81 101 98 98 147 162 158 165 164 170 175 177 176 178 179 179 175 168 165 164 159 153 148 148 147 135 128 129 128 112 100 77 69 46 52 102 168 174 166 156 142 84 126 124 154 145 126 76 53 69 86 109 121 122 130 141 152 155 158 155 157 165 170 171 173 179 177 175 171 161 154 153 150 137 126 98 78 57 57 71 96 125 134 140 133 131 126 99 69 72 67 68 70 88 93 121 148 156 153 156 160 164 166 169 173 175 179 178 173 168 161 160 158 151 142 149 152 138 134 132 129 113 98 80 61 68 52 24 71 111 115 100 70 55 129 147 159 155 147 100 56 57 93 111 118 118 123 139 151 152 158 156 159 164 160 157 171 172 173 171 167 161 152 142 138 140 143 134 105 84 86 70 50 87 110 117 114 112 88 69 93 113 105 104 101 110 125 141 139 145 154 155 152 159 159 162 164 166 170 174 168 163 161 158 155 147 135 144 155 141 129 131 126 112 101 86 63 71 53 22 0 7 15 12 24 47 138 156 165 164 164 124 63 57 95 108 117 121 123 137 146 151 156 159 159 161 154 149 169 172 172 167 164 154 147 138 135 136 136 105 73 72 107 109 87 68 64 71 75 75 80 125 135 109 119 105 103 117 121 129 123 143 150 155 151 154 152 156 160 159 161 164 165 164 162 156 149 144 139 141 162 147 128 127 124 115 101 74 62 81 44 25 10 10 12 17 23 39 143 159 166 169 172 140 63 51 78 102 117 124 127 131 141 149 151 160 160 160 162 168 174 171 160 152 154 151 142 133 127 119 114 91 75 72 105 103 97 111 102 96 119 115 108 107 123 111 121 114 108 92 105 126 127 142 149 152 149 151 149 152 155 162 163 155 157 166 162 157 148 142 140 147 165 150 130 126 123 107 108 94 51 84 57 22 15 15 19 21 20 40 131 151 164 171 174 150 70 53 71 100 117 127 128 126 138 148 151 157 158 155 163 170 165 156 154 149 147 140 140 125 123 116 107 86 84 85 119 102 97 127 115 105 133 134 87 103 120 107 106 87 99 91 92 114 132 135 139 148 141 144 151 140 150 159 162 160 147 156 161 155 149 138 131 151 172 157 138 120 114 106 101 90 59 62 56 26 13 14 18 20 28 47 83 107 135 147 145 107 52 50 66 101 116 131 128 124 135 144 151 153 151 154 165 171 147 140 132 146 136 124 123 117 115 126 93 88 83 93 126 108 91 106 93 91 135 129 83 87 121 91 69 81 100 98 90 97 113 124 139 134 130 126 147 141 143 145 144 148 141 142 164 156 147 138 129 153 175 162 144 129 108 114 96 85 69 49 49 19 14 18 20 23 36 56 49 43 47 39 32 13 35 48 68 98 117 134 131 127 133 145 153 151 146 154 166 157 114 122 133 130 122 101 107 114 97 93 86 96 89 118 127 126 87 93 79 76 111 112 74 54 104 98 74 90 103 80 77 94 105 102 127 125 117 129 116 135 138 134 132 129 124 121 146 161 143 132 132 156 173 166 142 128 112 108 93 77 58 52 43 30 15 18 22 26 41 60 50 36 20 8 12 10 31 44 60 88 115 137 134 133 135 146 154 150 140 155 163 128 92 115 116 108 118 104 103 103 71 73 92 102 96 127 118 122 86 89 87 71 100 112 70 62 78 117 79 102 85 63 85 91 101 79 93 103 111 122 114 116 108 128 121 117 106 95 119 149 147 125 129 148 174 159 145 129 108 101 88 82 64 59 46 23 16 16 23 26 43 59 49 33 19 22 21 14 25 40 57 88 115 136 137 134 136 148 153 149 136 154 145 115 107 121 102 109 124 101 109 103 93 76 78 77 103 108 109 97 78 88 83 77 100 104 91 79 96 110 91 89 99 98 97 94 91 78 83 101 104 105 101 110 99 117 109 88 106 92 113 149 149 124 117 150 175 153 141 133 100 92 91 78 51 51 55 16 20 20 21 29 50 60 46 27 16 21 19 14 18 34 69 97 109 130 137 137 137 148 152 142 128 153 139 96 109 92 73 92 99 108 89 107 113 92 84 96 110 111 106 99 98 92 87 95 113 104 111 104 100 122 118 134 123 84 100 118 100 78 96 111 119 122 94 84 77 97 101 98 111 103 113 144 132 116 121 158 170 155 129 127 83 95 98 72 38 61 75 16 21 26 27 37 58 56 36 28 33 27 18 15 19 26 78 105 109 131 140 143 139 144 149 141 122 143 138 116 96 81 68 78 84 87 70 93 108 113 106 106 114 113 119 113 93 90 101 132 145 112 119 120 103 120 104 103 106 87 116 122 105 82 104 108 109 96 75 59 57 96 107 100 128 119 135 137 116 112 135 168 161 146 131 116 91 92 96 71 45 59 70 31 32 28 28 43 65 52 29 37 36 27 21 20 21 37 70 97 96 122 132 125 125 138 148 142 119 134 135 117 96 91 82 80 82 67 56 65 75 85 82 83 91 94 101 101 83 82 102 112 114 117 117 111 97 95 94 86 90 96 108 96 87 87 85 87 69 57 73 77 112 143 126 114 134 136 131 120 108 104 135 167 149 134 135 112 98 94 81 61 59 60 78 39 28 27 33 51 66 47 42 44 35 30 25 23 22 39 56 77 90 109 121 128 121 125 139 143 116 120 147 101 94 108 114 143 138 102 71 42 48 75 97 90 114 135 119 136 144 124 128 132 132 129 120 130 140 147 143 118 128 137 107 95 87 80 75 63 72 100 126 137 155 159 137 113 119 135 121 112 99 88 139 164 156 141 124 101 102 105 71 66 78 72 61 35 23 31 43 59 66 48 50 45 41 38 34 25 29 31 46 65 90 102 113 122 133 121 136 134 112 111 129 122 103 104 128 154 150 137 122 95 71 87 111 102 124 150 136 169 207 187 189 208 209 207 182 196 215 212 204 171 197 186 116 106 107 99 92 93 110 138 145 158 160 158 142 104 118 122 109 104 104 89 125 167 149 125 116 104 95 96 77 67 80 63 40 38 27 34 51 64 65 54 49 51 47 48 38 24 37 29 34 75 77 95 118 108 130 119 118 129 120 115 115 135 126 103 116 131 138 143 133 118 100 85 75 83 92 96 103 115 135 141 146 165 169 165 154 165 168 157 150 128 125 115 107 104 109 115 113 120 132 141 146 147 148 151 142 102 109 121 111 96 91 82 118 144 125 120 121 99 90 94 93 79 87 75 47 38 32 38 52 65 62 53 50 51 47 52 34 31 38 37 42 76 86 87 113 106 109 131 123 129 135 122 120 120 122 121 123 113 146 141 133 131 120 107 102 103 113 116 114 119 116 113 116 119 123 118 115 116 119 117 119 124 127 128 130 128 129 133 132 135 144 136 135 145 149 151 152 127 108 117 106 76 80 100 122 132 131 137 126 81 83 89 84 71 89 90 44 33 37 48 59 73 56 53 46 46 51 49 35 44 40 35 53 69 73 98 110 111 108 127 126 124 131 120 114 121 125 130 114 113 145 147 137 133 129 122 118 123 132 134 131 135 135 140 147 148 157 149 154 144 150 150 154 153 154 147 144 140 139 132 131 126 134 134 134 142 152 148 145 131 99 89 78 64 88 88 117 136 126 139 111 81 97 88 78 73 95 88 46 40 41 51 63 74 54 50 45 44 49 42 46 61 41 39 47 78 75 83 100 120 126 126 121 132 130 103 108 120 122 103 94 126 145 142 134 130 122 116 122 135 146 146 142 145 145 156 161 159 162 158 160 153 152 155 154 150 150 146 135 141 140 132 135 125 122 132 142 142 158 162 146 134 94 75 73 69 83 87 132 125 126 121 100 99 104 93 89 73 67 84 50 39 44 52 70 77 55 51 45 46 47 44 61 66 39 47 41 76 96 73 86 117 124 130 115 116 127 116 98 101 106 92 87 132 145 136 131 125 123 114 118 129 140 141 140 141 145 153 146 144 152 148 140 146 146 146 143 151 124 132 133 138 132 130 133 132 128 132 145 140 142 152 147 119 92 86 65 61 87 97 132 126 117 91 89 100 110 88 86 75 49 78 67 40 51 55 78 82 52 53 43 48 46 49 70 64 40 52 45 63 77 78 98 95 102 128 128 121 116 110 95 89 104 87 81 123 140 142 128 124 129 128 124 116 126 141 136 133 136 130 128 141 144 136 126 134 136 149 135 139 126 130 131 145 129 105 112 132 129 132 142 143 135 123 148 126 87 74 57 67 80 90 132 141 99 83 96 96 93 78 88 79 64 84 79 53 53 49 76 82 57 50 44 45 44 55 67 53 46 50 47 46 65 68 93 101 107 115 113 136 104 92 85 93 85 73 88 122 131 141 137 134 139 135 127 126 120 128 137 141 132 140 137 138 142 127 115 119 133 119 118 134 124 125 127 143 138 138 130 131 134 135 142 135 145 133 122 113 86 72 71 94 94 119 137 93 87 93 105 107 79 83 107 75 80 67 77 53 56 51 84 86 55 44 44 44 46 52 58 43 57 52 45 34 54 67 77 103 104 96 108 136 118 92 70 86 82 64 76 104 122 127 134 138 140 137 133 138 135 131 138 138 139 148 144 130 119 110 117 110 116 105 108 113 106 123 138 147 144 151 155 148 146 138 144 135 122 124 93 83 87 64 86 97 84 107 124 82 90 94 105 114 88 90 101 62 62 51 60 61 55 61 91 79 52 46 44 43 43 55 51 46 60 52 50 31 53 65 64 85 89 89 105 125 110 93 72 78 88 66 72 91 113 130 132 135 136 150 138 137 142 139 140 131 124 134 136 126 103 109 119 107 108 116 96 100 109 114 155 147 144 142 146 156 155 146 130 114 126 115 98 69 67 78 75 73 81 93 114 84 80 103 112 99 87 92 77 55 43 61 46 67 62 76 93 70 52 47 43 42 47 54 46 55 66 56 52 37 40 52 55 74 73 92 96 108 103 94 76 74 84 73 71 87 118 137 118 122 134 143 142 143 146 135 139 147 134 122 113 126 121 132 108 96 103 107 100 95 99 113 148 155 155 149 150 159 153 137 129 114 107 108 104 67 60 92 74 68 83 103 112 85 77 92 86 59 74 84 52 63 43 84 43 56 60 80 96 66 50 46 45 45 50 54 49 61 65 60 58 50 32 41 43 51 62 92 94 87 87 95 83 77 94 89 79 85 102 119 109 118 120 136 150 152 143 137 147 149 131 146 122 130 142 133 97 95 102 96 109 106 107 124 144 153 158 153 157 154 145 135 123 126 108 100 78 67 75 91 78 75 76 98 86 87 79 66 75 67 75 67 42 39 50 82 37 58 65 91 101 58 48 46 48 46 50 49 50 68 61 60 63 60 36 29 34 40 40 62 92 78 89 91 73 76 88 100 78 81 90 97 116 105 119 134 145 141 149 147 152 148 143 147 136 142 139 118 90 108 112 107 125 125 114 137 140 144 149 148 151 150 130 127 114 102 117 111 69 54 76 83 77 75 83 87 84 82 89 59 77 60 55 62 44 27 53 66 38 70 75 95 93 52 45 47 46 48 49 47 56 78 59 64 66 69 46 17 25 43 44 44 75 83 71 82 73 73 64 89 74 72 72 83 87 109 109 131 134 140 141 147 154 145 140 116 135 126 137 128 78 116 116 116 106 128 114 144 144 141 144 142 136 138 130 119 109 88 108 98 70 55 61 61 72 63 67 71 66 68 72 57 61 60 57 52 38 27 39 53 46 57 73 87 96 54 45 49 47 47 48 46 64 75 62 73 64 64 50 21 26 37 38 54 70 59 64 65 74 79 61 74 77 54 61 94 103 98 109 121 131 137 134 146 140 140 135 123 129 123 141 139 95 104 117 123 101 130 132 134 131 130 127 129 125 118 118 140 110 74 90 98 87 62 61 64 56 56 58 57 61 60 68 51 64 55 40 33 30 30 35 43 56 52 70 76 85 55 45 49 48 46 47 47 69 69 68 76 67 60 55 34 35 38 39 40 58 42 53 58 74 80 68 97 77 49 63 93 92 74 104 107 115 107 120 135 116 125 128 113 116 125 147 153 113 91 132 143 125 125 132 111 115 122 106 116 117 108 110 108 95 89 86 72 88 66 55 63 64 60 65 74 57 51 58 55 49 36 43 32 27 45 54 44 36 53 76 77 74 59 47 48 50 48 47 46 70 63 79 83 71 66 55 40 39 37 37 29 40 42 47 56 63 81 78 87 66 55 66 77 66 79 101 82 102 105 121 120 102 109 119 117 136 131 138 154 141 134 148 130 144 140 129 120 122 118 115 104 107 103 96 97 86 74 92 77 65 63 60 60 72 64 72 83 61 36 53 50 29 25 44 32 34 63 72 40 29 53 72 77 74 55 48 47 52 50 45 51 69 73 93 82 72 71 57 49 44 34 32 33 37 31 37 44 47 71 80 76 55 57 47 61 77 82 84 69 82 99 120 105 105 122 126 126 125 119 111 140 145 146 140 118 130 139 125 129 140 118 114 95 91 114 94 91 78 61 74 70 55 55 53 54 57 68 62 57 67 43 44 38 21 33 32 46 77 96 77 42 31 53 65 64 77 52 48 46 57 50 43 58 74 85 89 80 80 71 60 50 46 42 27 24 31 27 37 39 35 55 59 56 56 57 44 57 84 91 86 73 74 103 102 90 105 108 111 121 120 120 118 131 147 138 152 151 116 125 137 136 135 108 107 95 93 103 99 83 63 62 64 45 49 61 60 49 51 63 53 44 56 49 46 32 31 25 61 95 115 107 79 42 32 50 60 58 69 52 47 49 59 50 51 65 77 87 82 79 81 70 65 53 47 44 25 22 22 21 36 28 27 33 40 39 51 53 53 56 56 73 65 69 73 98 75 103 100 93 102 129 124 138 133 114 151 126 131 158 132 125 125 135 119 96 97 84 95 96 80 86 66 62 53 38 37 42 55 41 32 44 39 54 35 37 51 28 33 64 109 129 126 104 83 47 37 56 55 59 61 50 49 50 64 52 53 63 82 71 73 83 71 70 74 62 52 46 30 27 25 19 29 39 23 32 30 29 31 53 53 47 48 67 61 63 67 78 79 114 89 95 104 116 130 130 129 108 129 124 117 116 127 111 118 125 116 92 98 80 91 86 85 72 52 56 47 38 35 39 31 38 34 43 59 40 19 38 27 56 101 134 136 132 125 104 81 53 45 55 46 61 56 47 49 48 69 52 46 67 83 62 80 82 68 75 89 75 60 58 40 26 29 30 23 24 20 25 22 27 31 41 37 40 52 68 49 79 68 73 94 104 74 88 89 104 117 122 132 106 113 123 124 107 130 122 126 116 107 96 89 73 82 81 78 94 60 45 35 32 36 39 24 30 29 41 45 26 29 41 72 117 133 142 142 137 128 104 83 56 47 48 52 64 49 47 49 47 70 54 53 73 58 69 86 75 67 76 96 89 76 70 47 26 28 42 28 23 20 18 25 27 23 31 34 36 29 53 63 69 58 75 96 86 72 75 82 105 108 112 128 126 110 125 111 108 111 120 103 107 99 81 86 77 70 57 67 91 67 36 36 40 44 37 30 23 32 40 27 28 46 75 125 146 146 143 143 139 131 106 86 49 40 50 61 56 45 51 52 52 72 57 59 60 46 81 79 73 67 74 97 98 88 78 66 34 24 52 53 31 23 18 22 28 21 30 36 31 27 53 60 59 48 75 98 90 65 47 79 110 112 92 111 127 114 108 105 97 93 101 94 105 81 68 80 68 61 41 59 74 54 45 36 61 42 22 29 33 30 26 39 61 98 129 142 144 145 147 142 138 129 106 87 49 28 42 57 49 45 53 56 61 79 62 52 45 56 95 85 74 62 69 95 95 91 91 79 58 34 56 77 61 31 27 20 21 24 22 31 32 28 51 55 52 71 74 74 106 80 54 73 93 106 71 101 113 115 106 85 92 86 79 85 101 77 67 56 51 44 43 65 66 35 40 31 42 32 26 24 31 34 28 59 109 137 156 153 149 144 143 142 135 124 108 88 53 28 33 37 43 49 58 64 75 88 69 52 47 72 97 84 68 57 71 100 90 83 92 89 76 55 49 81 81 46 33 25 23 36 26 24 34 31 30 74 78 63 53 74 78 73 60 66 55 89 66 78 96 108 102 80 73 75 59 61 79 67 48 46 45 42 50 67 43 31 26 27 32 28 23 31 47 59 55 79 126 155 160 159 148 143 145 141 132 123 111 86 54 33 31 32 35 42 58 78 94 102 83 59 55 62 87 77 57 54 73 103 82 79 81 86 80 57 38 71 87 73 62 45 36 51 31 19 25 25 30 33 48 57 68 66 62 58 65 70 61 58 81 75 71 92 83 60 60 47 60 61 57 49 33 41 41 45 47 39 43 39 26 27 33 28 29 50 79 67 102 126 145 166 158 156 149 149 149 139 128 124 115 87 61 38 31 34 37 36 38 59 100 115 95 69 59 55 91 77 47 51 74 100 79 69 67 82 81 45 32 76 102 95 88 78 49 42 28 35 35 39 34 22 24 38 53 39 89 55 34 63 66 40 44 55 55 73 68 62 59 34 54 53 46 33 36 34 31 31 30 27 38 41 32 28 34 29 46 74 109 123 142 158 163 168 160 154 154 155 149 133 128 129 116 91 67 40 34 37 39 40 38 39 53 122 101 76 55 59 97 71 45 53 73 95 79 64 74 68 53 46 32 62 100 111 121 120 83 44 39 35 26 29 34 27 30 22 20 28 47 30 34 62 94 44 30 42 42 63 62 46 55 46 56 50 35 39 26 31 36 29 29 34 27 34 37 25 29 42 77 125 154 153 161 166 169 167 158 158 158 154 145 132 130 129 113 93 67 44 37 38 40 41 42 47 45 121 102 75 52 57 93 69 46 49 65 82 78 76 87 58 44 47 28 49 96 111 127 140 128 99 90 58 37 41 48 27 32 20 22 21 24 27 26 35 61 59 25 25 45 54 53 38 21 37 38 40 38 34 22 35 38 37 35 28 27 31 31 35 59 95 99 136 153 162 168 164 163 163 163 160 160 151 141 138 133 125 110 96 63 46 38 41 42 45 45 46 52 117 97 70 51 55 92 75 49 48 57 73 87 79 66 59 55 48 27 36 93 111 125 133 134 138 135 104 77 58 45 21 18 20 26 21 26 32 34 38 36 29 36 30 31 32 26 20 23 24 21 27 36 27 34 32 33 30 25 28 36 57 81 97 116 140 140 154 166 165 158 167 167 165 162 158 154 149 145 141 130 120 116 99 66 55 44 43 39 43 48 50 50 111 91 68 52 55 92 85 56 45 59 79 78 56 49 62 56 53 28 24 80 108 121 130 136 146 151 148 129 107 65 32 21 22 21 23 27 32 26 28 33 19 24 30 23 28 28 31 27 24 30 42 31 38 36 27 40 45 56 66 85 132 133 109 123 162 175 179 174 168 168 171 167 164 161 157 152 150 144 137 128 120 121 93 73 58 46 42 45 48 51 52 51 109 91 72 58 63 88 77 65 59 75 67 68 50 50 54 51 55 36 17 62 102 118 129 137 142 145 146 137 125 110 73 49 41 35 35 50 54 42 41 26 12 27 24 24 23 22 25 17 11 31 26 47 61 75 75 94 114 116 121 135 150 150 148 167 179 181 173 171 168 169 166 162 162 162 159 157 150 141 138 129 124 121 82 67 58 45 43 46 52 56 55 54 113 95 78 65 61 79 78 71 62 54 58 60 50 50 53 48 53 36 13 49 99 113 125 137 140 145 151 153 151 137 111 90 70 72 77 98 105 110 94 87 88 84 58 36 35 35 29 29 54 77 80 116 118 121 125 124 138 135 137 146 165 170 168 171 173 173 170 170 168 166 165 165 164 162 159 154 148 144 137 131 130 112 81 75 57 46 44 48 53 58 59 57