P2
# Generated by OpenCV 4.2.0
92 112
255
30 34 57 65 40 53 40 32 28 24 58 78 64 64 61 62 45 42 59 68 73 47 51 63 66 71 86 103 78 73 66 64 69 75 75 82 83 88 93 110 117 119 136 143 148 154 153 153 152 158 165 165 164 166 162 169 176 182 184 190 187 185 186 184 182 180 178 179 180 174 168 154 125 94 64 48 38 64 56 51 61 74 114 121 91 70 102 88 51 23 25 16 36 41 50 50 47 50 33 31 21 40 61 61 62 67 58 47 35 59 63 74 62 63 76 85 83 88 104 92 74 73 77 77 81 86 90 98 99 109 126 143 148 150 156 161 159 164 168 170 172 172 174 174 177 179 178 177 181 183 182 185 183 181 184 184 184 177 176 180 180 176 169 159 138 104 79 58 48 52 60 61 71 73 87 116 113 89 88 98 69 22 26 28 47 44 50 41 53 37 31 25 31 51 46 57 67 57 39 32 47 60 71 70 74 90 101 101 97 107 94 90 96 83 93 99 106 111 117 126 126 140 159 168 174 175 176 176 174 177 177 179 187 187 184 180 179 182 184 181 181 184 185 185 184 180 182 181 181 177 177 178 178 178 171 161 150 130 111 80 63 54 64 61 66 81 83 94 116 106 83 92 99 34 15 26 35 51 49 46 44 31 29 25 45 45 50 69 60 35 25 46 47 57 77 82 97 112 112 108 105 100 92 96 115 112 111 126 133 138 142 147 155 159 173 178 181 181 180 181 181 182 177 180 186 186 186 187 186 183 185 181 180 183 184 182 184 180 180 182 181 179 179 179 177 179 168 158 145 134 117 109 94 77 78 91 59 62 83 94 105 113 97 87 100 79 16 18 51 50 48 51 36 29 28 38 44 43 63 56 36 20 27 40 49 72 86 104 111 110 110 104 102 100 101 109 124 138 138 145 149 153 158 161 169 170 178 181 183 187 186 184 182 182 183 181 184 186 186 186 188 189 188 185 182 183 184 183 184 184 182 184 180 181 183 180 178 176 170 157 140 123 110 106 106 95 85 87 93 71 72 82 101 107 103 98 89 95 46 14 43 45 58 50 31 28 27 43 40 52 58 33 18 21 27 40 66 84 101 110 109 104 101 92 103 107 118 132 144 150 159 158 157 159 163 171 178 182 182 181 184 187 187 184 185 186 188 186 186 190 188 188 191 191 191 189 185 185 184 185 182 184 184 183 181 182 183 183 179 176 170 161 148 124 106 93 93 95 94 78 77 86 64 62 76 106 101 89 94 92 82 31 36 49 56 35 30 25 33 43 44 60 41 17 16 28 33 56 80 95 103 103 101 101 90 105 114 124 138 150 161 162 164 163 162 167 169 180 186 185 183 186 187 187 183 189 189 191 191 187 190 191 189 190 190 189 188 188 189 187 184 185 184 185 182 180 179 182 181 182 180 178 171 160 155 131 110 100 87 89 91 93 81 72 80 65 59 79 98 92 87 93 93 59 45 55 47 32 26 27 41 40 52 51 26 12 21 30 45 73 89 100 103 99 103 96 104 122 130 145 156 162 166 169 164 163 169 178 181 189 189 189 185 192 191 192 191 191 192 193 194 194 194 196 196 194 194 192 191 188 188 189 186 187 187 186 187 184 181 182 182 183 182 177 168 160 155 142 116 98 95 90 85 85 96 97 86 82 51 36 60 87 87 95 101 47 56 66 44 32 22 30 45 48 54 42 17 20 28 35 61 84 93 103 102 104 103 102 123 135 147 161 167 168 172 170 170 170 172 177 188 191 187 189 189 189 191 193 193 194 191 189 189 194 192 190 194 195 196 195 193 189 191 190 189 191 187 186 188 186 182 182 182 185 181 177 169 157 150 142 133 108 89 88 89 89 83 98 94 73 72 61 52 69 95 101 99 63 71 71 43 30 19 37 43 49 47 38 20 21 35 49 78 88 93 104 108 111 103 122 137 150 163 170 172 173 171 167 170 173 178 184 188 189 189 187 189 187 188 190 191 192 194 189 193 196 194 190 192 196 197 195 192 192 194 189 190 191 188 188 187 188 183 183 181 184 182 175 171 164 152 134 128 124 111 93 87 95 92 76 94 87 64 75 64 56 90 110 74 95 70 60 42 24 23 45 40 45 39 34 26 26 40 68 90 90 100 112 117 110 119 138 146 159 165 167 169 168 168 169 174 178 186 188 187 192 193 191 191 189 189 192 192 192 192 193 193 193 195 193 192 194 198 197 197 194 194 190 191 190 190 189 189 187 182 181 181 182 182 176 167 155 153 140 120 106 104 106 93 77 90 96 83 90 76 56 68 69 98 101 88 111 59 59 38 18 31 46 41 40 39 30 31 36 57 84 96 94 106 121 124 118 137 147 154 161 164 163 161 161 168 170 178 183 185 188 187 189 191 191 190 187 190 191 192 187 190 194 192 194 197 193 193 192 195 197 195 194 194 193 191 191 192 190 187 185 183 179 182 184 182 175 168 157 142 130 126 116 100 92 92 79 68 75 89 85 88 76 46 93 92 76 118 104 68 54 37 20 39 43 44 37 38 28 36 49 74 95 96 100 116 129 135 139 146 153 159 162 166 163 163 165 171 174 183 186 189 190 189 189 190 189 187 189 193 190 191 188 189 191 192 194 198 195 194 192 194 194 192 194 190 192 193 192 190 188 189 183 184 183 184 184 182 174 165 162 154 141 124 111 108 102 99 100 96 85 77 87 85 93 90 78 76 89 96 75 72 52 38 26 44 41 49 45 35 27 40 62 89 102 102 109 130 140 142 144 149 156 162 163 165 162 163 168 173 178 186 192 192 191 189 189 191 189 184 189 190 188 191 188 189 190 193 194 192 191 193 191 191 192 189 191 192 191 191 192 189 189 188 186 186 183 185 187 183 175 170 162 144 145 140 129 108 89 83 89 95 99 87 78 87 98 97 84 90 87 68 83 60 50 38 29 44 42 42 52 33 30 50 72 100 110 113 118 133 144 149 148 150 156 160 161 161 159 160 164 174 179 182 190 192 195 194 192 197 190 185 187 187 192 194 187 189 194 195 195 194 190 189 189 189 192 190 190 190 189 186 185 189 188 185 188 188 185 187 187 183 176 176 166 143 130 127 129 129 115 110 102 94 97 102 102 93 102 101 99 93 70 86 96 44 47 35 33 44 44 39 50 32 40 58 82 107 119 122 124 134 144 152 153 153 153 155 157 159 159 162 170 174 179 182 185 190 191 190 189 192 191 188 191 190 190 190 189 192 191 190 191 191 186 183 183 188 192 191 188 189 191 188 188 189 187 186 186 184 185 184 184 181 177 178 168 149 131 119 110 111 113 111 109 110 99 98 105 100 87 83 76 78 87 87 82 40 46 30 38 40 44 40 49 35 47 60 91 115 124 130 131 132 140 153 156 155 152 151 156 160 160 165 173 176 179 185 188 190 187 187 188 189 192 193 192 190 188 185 187 191 186 187 188 184 185 185 190 192 190 189 187 189 191 191 191 190 188 188 186 184 184 184 179 176 179 177 171 155 140 133 124 111 101 101 99 101 103 93 82 88 87 86 80 82 88 83 84 37 41 27 39 39 45 49 45 35 50 69 100 118 127 137 138 138 145 153 155 156 153 153 155 161 165 170 175 178 180 182 186 190 189 186 189 191 195 192 192 189 190 190 190 190 191 192 190 186 189 188 189 190 187 187 190 190 191 193 191 191 188 189 186 183 182 180 178 176 178 175 168 157 137 129 120 110 107 109 95 83 83 93 91 85 82 86 80 80 85 101 82 27 34 23 39 40 46 50 33 38 53 75 99 117 132 137 144 146 148 155 158 159 154 154 157 162 171 173 174 175 176 178 183 188 189 188 190 191 193 191 192 189 189 190 188 187 189 188 185 187 188 187 189 190 191 188 192 192 194 194 195 194 192 190 188 183 180 176 175 176 177 175 170 167 149 129 126 117 101 98 95 93 91 85 83 86 86 95 101 96 83 77 94 31 32 25 31 43 47 41 32 45 57 77 97 118 134 138 145 150 151 155 158 159 154 152 157 161 167 171 171 171 173 176 183 187 189 189 190 190 192 191 189 189 188 188 186 189 188 187 189 191 189 188 190 192 192 192 191 193 194 191 193 194 195 189 188 185 181 176 174 175 176 175 175 173 163 151 134 123 109 91 80 79 81 79 76 81 88 84 88 83 71 65 77 40 32 23 23 42 45 46 37 41 59 85 99 117 135 139 143 146 150 154 156 162 158 158 163 169 171 173 173 172 175 180 181 188 191 193 189 190 191 190 190 189 187 186 189 188 190 190 190 193 193 191 192 193 190 193 193 193 194 195 195 196 193 188 185 184 183 180 177 176 174 176 173 175 171 161 150 137 114 87 68 59 72 78 71 61 65 77 78 82 86 77 60 38 30 27 27 41 45 48 35 45 64 85 99 115 133 139 141 144 150 157 162 164 161 162 166 170 174 174 173 175 175 181 185 188 192 189 188 191 193 192 191 193 191 189 188 191 194 194 195 197 193 188 186 190 190 194 194 194 195 196 194 196 195 191 186 183 181 181 181 178 174 174 173 173 172 165 161 148 130 98 66 53 46 56 65 68 67 66 73 86 96 91 70 40 33 28 29 47 45 51 42 46 63 85 97 112 129 137 141 143 145 156 162 164 165 164 169 172 171 172 175 181 179 182 183 184 186 188 190 194 194 193 193 196 192 189 187 195 201 201 197 189 187 189 187 192 196 194 193 194 197 196 195 194 193 190 189 183 180 180 182 178 176 174 173 175 169 166 164 161 147 114 69 51 53 54 56 53 59 69 71 79 95 97 93 33 35 28 28 50 51 45 37 50 64 92 102 109 127 137 137 140 146 152 157 161 161 164 172 171 169 172 178 180 181 183 188 190 186 189 191 195 195 192 196 198 197 183 184 199 201 196 193 190 191 192 191 194 194 196 193 197 197 196 195 191 190 186 180 175 172 175 177 176 178 177 172 170 165 164 169 168 159 137 88 59 52 57 60 61 52 56 79 70 85 100 105 35 33 34 29 48 52 44 48 55 67 89 104 112 126 138 138 139 144 149 154 161 164 164 169 171 169 172 176 179 180 182 188 190 190 190 193 197 197 197 197 201 205 188 184 194 198 194 195 194 193 191 189 189 184 182 184 177 182 183 179 175 179 171 158 155 156 157 160 167 170 171 172 165 162 161 170 170 164 148 106 72 56 60 66 66 61 48 65 73 66 88 102 35 35 35 33 51 48 44 53 61 73 95 105 110 120 137 140 140 141 150 157 166 170 171 176 178 176 179 178 179 185 182 184 186 189 191 193 200 197 199 195 191 199 195 184 190 193 193 191 188 183 180 185 168 161 151 142 128 138 138 143 145 148 143 139 148 146 142 144 155 159 158 167 166 159 161 167 170 167 157 125 91 71 57 65 70 60 60 39 64 71 70 96 33 32 34 32 49 52 46 54 65 85 102 102 105 118 137 140 138 148 156 162 170 174 174 175 177 181 185 181 182 186 184 186 187 187 188 189 197 194 194 194 193 195 196 187 187 190 187 180 179 177 161 166 136 130 131 117 109 108 112 119 114 114 124 133 140 143 141 135 139 148 152 156 161 156 162 165 172 169 165 142 99 95 76 63 76 58 62 53 39 72 63 80 26 27 34 37 42 52 48 52 62 93 110 108 108 120 136 135 140 156 161 166 170 173 175 170 171 178 182 180 183 183 184 187 184 189 186 186 190 189 188 192 194 194 193 189 184 188 183 170 165 165 149 136 125 124 129 117 103 101 104 100 102 106 115 131 140 142 143 141 137 144 148 149 149 151 160 165 171 173 169 158 118 89 96 74 82 68 44 62 43 50 72 68 26 24 38 42 43 49 47 53 69 95 118 117 111 128 136 138 141 147 150 155 152 155 160 156 153 160 165 166 170 171 174 174 178 182 183 185 187 184 184 186 189 192 190 186 178 181 183 170 155 148 153 132 136 141 137 119 109 106 105 110 115 125 130 141 149 152 149 147 146 145 146 144 149 154 155 162 171 175 170 164 146 111 94 76 66 87 57 46 63 37 64 73 28 39 39 42 46 47 50 61 86 102 112 114 113 134 139 129 126 127 125 125 128 127 124 115 117 123 123 128 141 147 155 159 167 169 171 178 184 180 181 182 183 184 187 185 173 176 180 177 164 152 150 145 141 141 131 124 123 126 133 139 144 152 158 163 160 161 161 156 153 156 153 149 157 155 155 160 167 173 175 171 157 138 130 99 56 80 87 43 64 52 48 79 47 39 38 41 36 42 53 70 99 105 108 110 121 129 122 111 116 111 103 100 94 93 96 97 99 95 98 103 113 122 130 149 156 153 155 166 179 174 174 182 184 184 185 188 175 169 173 174 170 163 151 151 143 136 131 132 140 152 159 162 166 173 175 176 175 177 178 170 161 158 156 154 156 159 161 160 167 170 178 171 162 142 143 124 76 59 88 65 42 56 40 63 29 36 41 34 37 41 52 77 97 105 108 109 119 110 103 99 98 95 102 100 88 82 89 96 95 89 94 97 104 111 119 133 146 147 149 161 171 169 170 177 180 184 183 185 180 166 166 163 159 156 149 144 136 131 140 153 157 155 153 153 159 168 173 180 185 185 183 180 172 167 161 162 164 168 169 162 165 170 172 171 167 159 144 144 122 75 70 69 30 44 53 45 35 42 36 35 32 38 60 82 96 108 106 107 107 94 97 93 90 96 109 116 111 113 114 109 107 104 103 103 104 110 115 124 128 139 148 158 162 161 158 167 178 185 185 184 180 166 157 155 152 147 139 133 131 143 152 132 100 90 95 90 75 68 78 92 108 127 152 171 179 178 173 167 169 174 173 164 164 169 175 173 168 161 161 149 153 125 101 83 51 34 56 43 45 38 29 33 33 47 66 86 96 115 105 94 91 96 98 102 113 122 133 141 143 149 152 145 142 138 130 118 110 105 106 109 113 123 134 148 152 153 156 167 177 185 186 186 181 175 165 157 147 137 128 130 141 142 113 80 97 114 97 58 68 75 33 37 55 68 67 96 121 149 170 167 172 174 169 168 166 171 174 167 168 164 163 163 161 146 104 113 93 58 67 86 42 31 31 32 39 48 68 92 103 113 102 83 92 101 108 120 134 144 152 154 161 165 165 170 172 171 163 148 136 120 108 101 98 102 110 121 132 145 155 163 176 183 189 190 184 179 167 152 139 134 131 136 134 114 99 121 129 114 99 50 62 72 32 72 82 137 70 63 89 110 139 166 169 168 172 175 171 172 171 166 168 165 155 159 158 143 125 95 100 80 78 75 32 33 33 35 46 44 66 99 108 113 102 85 99 104 114 126 143 151 155 161 171 176 175 163 146 131 116 106 99 103 116 112 102 95 94 95 107 125 143 159 177 186 192 193 188 182 172 154 146 148 141 136 126 123 136 123 107 153 144 63 38 13 31 55 86 143 119 108 102 121 132 142 156 169 175 175 174 173 171 167 167 164 158 147 158 152 155 111 96 125 105 85 40 27 31 43 50 47 72 104 110 115 103 90 94 103 113 126 145 156 160 161 149 120 91 71 61 53 75 95 94 77 72 92 108 104 93 90 90 96 129 159 178 187 192 193 192 187 177 160 163 153 140 134 140 142 111 101 133 164 165 108 99 103 110 114 147 151 155 163 153 135 144 149 162 176 179 176 179 178 173 168 168 170 166 156 154 149 155 159 141 134 130 131 39 23 37 57 46 52 82 105 114 117 96 96 100 106 116 131 149 152 132 101 72 57 46 34 55 93 51 55 100 117 113 94 97 108 104 98 96 91 112 155 176 187 192 191 190 189 180 170 168 154 149 162 158 106 121 140 158 159 156 152 143 159 155 169 174 175 172 176 166 169 176 178 179 180 181 178 180 183 172 170 169 169 166 155 143 145 144 151 169 153 132 123 25 24 51 61 61 71 93 108 114 116 106 111 111 110 118 134 129 95 71 61 76 97 45 32 36 71 41 50 88 111 105 113 115 120 113 112 110 107 107 147 173 184 190 189 189 190 184 175 168 164 173 183 143 137 169 154 151 148 152 156 163 179 176 179 185 181 170 165 171 178 182 189 185 180 181 176 178 185 174 170 168 164 160 147 146 143 146 141 142 126 96 97 13 38 72 77 65 84 110 109 111 116 115 124 123 116 119 120 85 64 58 60 104 128 56 43 31 12 29 51 122 152 99 80 96 122 140 131 131 117 115 157 179 187 194 193 191 189 187 177 169 170 183 188 180 184 176 157 143 149 158 168 176 177 179 177 172 166 159 162 172 184 183 182 181 185 187 184 183 185 178 173 169 164 161 155 148 132 130 133 119 125 124 99 37 62 77 78 91 95 117 114 112 113 120 132 125 115 117 103 91 72 72 83 108 133 116 69 71 75 95 111 154 151 141 132 127 118 148 164 152 131 131 168 183 190 193 194 191 191 188 180 171 173 178 179 179 174 171 166 154 140 138 138 142 144 148 150 150 151 160 177 175 176 185 186 183 186 186 186 187 186 182 179 174 165 162 159 149 134 122 129 128 130 137 130 53 69 94 93 84 102 125 120 113 115 128 142 129 108 107 114 99 88 111 124 134 142 148 140 131 145 163 164 159 155 159 164 161 161 166 173 151 134 154 177 181 191 194 192 193 190 191 189 180 174 181 178 179 177 178 175 173 170 159 150 146 144 142 148 156 167 177 181 192 190 185 187 186 184 187 187 189 188 179 177 175 169 165 160 135 140 126 116 133 133 137 147 64 75 88 90 94 113 123 117 117 122 130 139 147 124 104 107 105 117 130 143 153 153 153 162 159 159 158 160 145 141 149 162 167 168 166 162 150 142 166 176 186 192 193 193 190 189 193 195 193 175 182 185 186 191 190 185 185 185 186 187 185 181 181 183 188 191 193 191 188 191 193 190 187 184 186 189 189 188 179 174 175 174 167 164 135 127 131 116 131 125 131 139 85 79 86 102 96 113 126 121 117 121 135 138 144 136 120 120 134 135 139 145 156 162 169 174 171 165 149 135 130 135 150 162 164 164 159 159 151 146 164 176 189 192 190 187 187 189 196 196 186 172 178 188 192 193 199 195 191 191 191 192 193 190 190 192 197 197 197 195 195 193 193 194 191 185 187 187 188 188 185 180 173 175 168 161 141 128 139 122 122 133 136 153 79 84 97 112 118 121 120 122 122 125 138 142 151 150 144 139 135 138 132 130 135 141 141 140 137 131 125 124 134 154 164 165 167 167 167 162 150 143 159 169 182 185 188 187 189 192 194 186 180 178 176 184 191 196 193 194 201 200 201 199 199 200 197 199 202 200 198 199 198 197 196 195 191 190 191 190 187 188 184 183 177 174 169 157 132 130 136 125 131 144 134 153 81 90 112 111 118 121 121 123 124 134 146 146 151 159 153 143 144 146 133 139 124 126 126 126 130 133 142 152 160 167 171 176 178 175 169 158 144 141 150 162 176 180 187 186 187 190 190 181 182 188 177 180 186 196 198 190 199 203 204 202 202 204 202 201 203 200 199 199 198 198 194 194 194 194 190 190 191 187 187 182 177 171 170 158 132 115 129 128 131 137 144 149 90 101 114 114 119 125 125 124 130 137 154 150 147 157 153 151 154 151 154 161 151 149 151 152 156 166 170 171 173 177 183 186 179 175 166 152 141 141 146 157 169 180 187 179 186 187 188 179 179 188 182 179 185 191 200 196 200 197 193 197 202 203 204 203 200 199 198 199 197 198 197 194 194 194 194 192 193 192 186 184 177 173 171 162 139 121 118 139 142 134 138 140 66 106 110 119 114 115 126 124 132 142 153 154 150 153 158 161 159 167 172 167 170 172 173 172 173 178 178 178 179 183 188 185 179 173 160 146 139 139 144 152 157 174 179 173 186 188 182 177 174 183 185 179 182 186 193 200 204 198 187 190 200 199 202 203 199 200 199 198 197 198 195 196 196 192 193 194 194 192 186 180 177 172 170 162 131 124 124 151 154 134 123 130 68 102 108 118 111 106 119 124 134 141 151 155 154 156 161 161 168 167 168 171 178 178 178 177 177 178 180 182 186 187 186 184 178 168 157 144 139 139 143 152 160 172 182 182 182 185 183 177 176 177 181 182 181 185 190 197 200 206 199 198 200 198 199 199 199 198 198 201 196 196 196 195 195 195 195 196 194 190 187 179 176 171 165 159 123 121 121 148 152 114 118 136 78 93 111 98 103 109 120 120 133 143 152 154 153 158 163 164 167 168 173 176 181 182 179 181 182 181 184 186 188 185 184 183 173 164 151 143 139 140 142 150 162 177 189 187 185 183 180 177 178 179 177 179 182 182 186 193 195 199 202 198 198 199 198 198 198 200 199 195 193 193 191 193 195 195 195 196 194 190 186 185 176 173 165 153 126 116 135 149 144 119 120 134 90 86 103 87 90 114 114 119 132 145 150 152 154 159 160 163 165 173 176 178 182 183 185 183 183 183 187 188 188 186 184 177 170 160 151 143 139 141 146 153 163 177 190 191 185 181 182 177 178 181 180 176 179 183 186 189 194 196 198 199 200 198 198 198 200 198 197 195 194 192 191 192 195 194 194 195 192 186 183 184 176 170 164 146 132 107 131 146 144 131 119 130 96 80 91 89 91 114 111 116 129 145 147 152 157 162 163 162 168 173 175 180 183 182 185 182 185 186 189 189 187 185 178 174 168 160 150 141 142 144 147 152 163 178 187 191 187 184 186 185 181 179 178 177 173 183 191 192 190 194 196 198 200 200 198 198 199 198 199 197 195 193 193 194 194 194 193 191 189 185 181 182 177 166 159 135 114 108 134 147 151 126 111 134 100 87 87 92 98 96 107 113 129 144 149 152 156 162 166 167 171 172 174 182 182 181 186 187 188 191 193 187 185 181 176 172 169 163 142 140 147 147 147 150 162 173 185 187 184 183 187 185 184 179 182 177 170 175 186 193 197 196 196 196 198 200 198 198 200 199 198 197 196 194 193 192 193 191 190 187 185 185 178 177 174 162 156 136 102 109 133 150 149 133 138 159 97 92 88 93 84 85 99 109 125 142 147 152 154 160 167 170 169 171 174 178 180 183 187 189 190 193 190 185 182 179 176 173 172 160 138 138 147 151 147 151 155 163 181 188 184 180 182 182 179 183 182 181 176 170 174 188 197 199 201 201 199 199 200 199 197 196 196 194 196 194 192 194 191 187 184 185 180 182 174 170 166 159 141 131 106 113 130 160 153 133 169 182 100 104 95 84 78 88 90 111 122 142 145 148 155 162 165 169 166 168 172 173 177 184 186 189 190 191 188 186 182 179 181 181 174 159 146 138 143 149 145 145 154 163 178 187 181 180 179 179 182 182 183 183 180 176 173 183 189 195 201 203 200 197 197 197 197 196 193 195 193 190 190 192 189 188 179 181 183 178 169 170 161 157 127 116 109 114 128 161 174 164 184 189 106 101 95 75 76 91 93 108 119 138 146 147 154 160 163 165 167 167 169 174 177 182 188 189 191 190 187 185 184 183 182 181 174 156 145 138 147 145 141 140 153 174 190 191 187 181 176 177 178 180 182 181 179 177 176 177 180 187 189 197 201 198 197 196 196 195 190 189 192 189 190 190 187 187 181 180 182 175 169 168 159 150 135 107 113 117 129 155 183 194 194 192 106 110 96 83 80 82 92 102 115 135 146 149 153 161 162 164 166 164 169 174 176 182 187 191 191 189 184 182 183 184 183 179 161 150 140 144 150 147 137 143 169 194 204 212 204 188 180 178 176 180 184 186 182 177 173 174 184 190 187 185 192 197 193 196 195 194 189 189 190 187 187 187 186 185 182 176 179 175 169 168 158 146 128 107 118 110 130 157 179 194 193 192 105 98 80 72 98 86 84 91 112 134 143 151 151 155 163 163 164 164 168 173 177 183 188 191 187 186 182 183 186 183 180 173 154 141 135 145 155 146 135 153 182 194 194 194 202 195 189 185 183 181 184 185 182 174 168 167 183 191 189 183 185 191 189 194 195 194 193 192 190 189 184 179 183 181 181 176 176 174 169 165 157 138 117 97 120 130 146 165 182 189 192 193 96 83 83 79 80 77 88 90 104 130 143 151 147 154 162 161 164 164 168 172 178 181 184 187 183 182 183 182 180 177 173 165 147 133 130 144 151 139 133 159 179 181 182 178 179 190 194 188 177 169 176 171 165 165 162 162 178 189 190 188 182 184 190 190 192 193 192 189 186 186 184 184 182 177 180 176 175 174 167 166 151 130 109 98 117 143 147 158 188 191 189 189 109 82 78 75 82 72 86 87 94 121 139 146 149 149 148 159 162 164 166 170 175 177 181 184 182 181 182 181 180 174 168 161 138 124 125 130 137 132 120 140 168 173 174 170 162 170 182 164 155 152 116 106 135 150 156 158 172 185 188 185 183 177 186 190 193 189 189 187 184 185 186 187 182 181 183 179 176 171 165 160 147 137 110 110 125 142 138 153 183 192 191 186 120 92 59 64 89 71 73 76 92 116 133 142 147 147 146 151 159 163 166 169 171 173 172 178 180 178 177 177 174 165 164 164 141 118 119 115 108 106 110 113 138 155 160 155 144 141 146 148 120 60 9 31 100 134 146 150 179 187 189 189 182 178 184 188 189 192 191 187 185 184 184 181 183 181 182 178 176 174 170 155 147 145 112 112 139 138 115 137 173 182 183 179 141 124 99 85 87 76 72 68 86 104 125 141 141 144 146 146 151 159 163 168 171 171 168 173 180 180 179 176 166 158 160 159 153 107 94 100 68 25 49 84 114 129 133 134 130 128 134 110 60 39 43 39 64 101 116 151 184 187 186 191 185 180 180 183 186 191 192 188 184 185 183 180 179 180 181 180 176 174 170 159 145 148 122 117 142 142 92 50 97 122 121 98 158 149 139 113 93 85 72 78 80 93 119 137 136 140 145 149 151 161 162 164 169 167 166 175 179 180 180 171 160 159 160 159 148 119 74 56 35 28 28 41 62 93 113 109 111 119 98 65 62 85 104 96 87 111 155 164 173 185 186 186 188 185 175 180 183 191 193 189 185 186 183 183 180 180 180 181 175 172 168 163 146 146 133 123 145 149 99 14 10 12 8 5 126 144 148 137 121 103 75 76 81 91 112 133 135 138 144 150 155 160 161 163 166 166 168 172 174 179 177 166 158 162 160 151 142 136 116 81 57 44 48 49 44 46 54 52 53 59 56 65 79 95 120 119 97 116 135 143 159 186 189 189 189 185 180 174 178 185 188 188 185 183 186 181 180 182 182 182 177 173 169 162 147 142 130 128 151 150 90 24 14 8 8 9 136 147 153 145 137 114 94 68 77 92 108 132 138 139 143 146 153 160 161 158 162 167 169 168 171 174 170 160 158 164 155 145 148 139 117 98 91 94 78 59 50 51 42 36 39 35 52 88 106 108 119 113 100 89 130 143 162 183 187 189 188 189 185 177 170 176 182 185 182 180 184 182 179 179 179 181 176 173 160 162 148 144 119 132 167 149 84 30 10 9 10 10 154 155 157 151 146 126 101 71 65 88 107 133 139 137 140 142 150 159 160 158 158 164 164 158 168 169 164 156 158 161 149 144 145 126 91 96 108 109 104 91 77 91 80 41 52 49 54 98 101 123 124 113 111 82 109 151 155 167 178 179 185 180 177 178 175 175 179 180 181 179 178 182 177 175 177 180 165 166 154 157 147 130 116 133 160 150 85 26 11 9 10 11 155 157 161 160 154 140 106 85 62 75 110 133 139 137 137 142 150 155 157 160 160 159 158 150 166 167 156 151 151 150 140 133 134 110 84 90 81 93 107 90 85 132 91 61 64 80 71 86 93 108 114 98 117 77 89 116 130 153 169 167 161 171 164 165 175 178 175 174 179 184 172 176 174 173 173 177 168 159 157 146 155 133 134 139 145 145 74 36 14 9 11 11 153 155 160 162 155 143 114 89 61 75 104 129 140 142 139 141 147 153 155 158 161 160 160 165 167 163 156 144 136 138 124 123 127 89 81 74 82 87 116 104 84 120 81 66 64 74 86 80 80 109 89 114 106 76 95 92 103 135 152 165 141 144 154 145 157 169 171 174 178 174 174 174 172 170 168 169 168 156 152 149 160 135 139 133 158 146 70 34 40 9 11 12 138 147 157 157 148 135 103 80 69 91 100 128 142 145 140 142 144 147 152 156 159 156 157 161 163 163 146 132 125 125 101 104 105 84 83 67 74 105 122 96 90 103 87 53 57 60 103 104 90 110 83 104 97 78 80 89 93 115 123 142 136 134 145 133 136 148 155 166 172 170 173 171 175 173 170 171 171 166 142 152 158 145 141 133 157 155 79 41 18 15 12 12 58 88 118 126 118 88 44 70 67 87 96 125 145 149 141 140 144 147 151 152 156 151 155 165 163 142 133 123 107 103 83 86 92 95 88 64 93 115 105 109 99 109 95 69 51 54 78 114 87 81 103 99 77 72 77 104 99 88 106 121 121 117 123 125 121 132 136 136 167 174 169 166 165 167 165 174 177 171 136 147 154 151 140 128 149 158 59 24 16 11 12 11 5 9 22 28 25 28 22 75 71 83 98 117 134 149 140 141 140 146 148 151 150 149 157 167 148 120 111 95 94 89 77 79 97 92 85 73 94 97 110 85 86 112 85 93 70 71 69 71 76 77 93 91 86 80 88 104 96 85 90 105 104 102 115 120 111 131 120 112 138 164 169 164 163 153 162 165 176 160 133 139 147 148 140 138 143 146 62 17 24 13 12 12 10 10 7 6 11 27 33 66 74 77 98 119 131 148 141 142 139 140 148 150 147 147 159 159 122 103 84 86 88 82 77 95 102 85 79 92 90 79 95 72 78 88 80 85 73 77 89 77 75 71 87 103 99 90 92 84 81 98 92 93 114 98 109 117 113 117 122 110 132 156 165 167 167 154 148 154 162 155 145 142 136 134 130 125 140 137 64 14 23 17 11 12 11 10 11 11 13 26 28 54 72 79 105 120 125 143 135 146 144 142 149 150 147 144 153 132 98 90 100 89 86 88 95 84 90 87 78 91 104 88 82 86 82 93 90 66 81 105 112 93 82 78 91 100 110 111 95 95 104 100 91 95 112 109 102 107 125 123 115 120 115 135 158 160 156 152 137 150 154 158 156 148 141 123 122 127 129 133 79 11 12 11 11 11 10 11 11 9 13 19 24 52 70 95 111 117 120 134 140 146 145 148 148 144 143 143 150 111 89 104 109 91 92 91 89 77 92 90 87 86 97 112 98 95 96 102 95 87 101 105 105 93 87 87 85 86 103 116 104 111 115 94 91 100 107 112 93 90 107 111 104 97 131 119 141 139 143 145 139 151 161 148 151 136 142 127 129 129 137 142 93 23 19 20 15 11 12 11 11 10 10 15 23 38 66 88 113 109 122 128 139 144 140 147 149 141 139 141 128 88 90 106 107 89 81 93 79 80 99 95 86 85 82 84 83 82 87 86 93 107 105 103 93 91 102 96 97 81 74 78 74 84 88 88 90 95 89 109 87 75 88 94 89 89 122 121 124 128 129 135 129 146 154 147 144 130 137 136 143 149 142 142 85 13 16 22 17 11 10 9 9 9 11 11 18 28 64 94 108 98 117 123 137 136 128 141 148 142 146 134 115 82 85 104 95 87 81 87 69 80 70 56 57 56 63 60 61 75 85 74 111 128 129 120 107 104 113 103 89 59 44 45 33 27 35 40 39 37 44 63 63 60 65 79 85 95 107 104 120 136 119 108 115 138 143 147 145 135 129 135 145 154 155 144 78 22 12 12 12 11 9 9 9 8 9 7 12 21 45 94 113 86 109 120 131 122 112 134 140 140 143 124 107 83 71 98 87 94 71 65 52 27 0 2 12 29 64 78 93 95 73 82 105 107 124 109 91 107 103 94 91 83 91 103 104 103 98 87 86 89 91 82 73 62 65 78 87 82 98 119 130 121 105 98 97 126 132 137 151 140 122 127 153 161 161 134 81 39 16 16 12 11 10 10 10 9 9 10 11 18 35 94 103 89 100 122 127 111 114 122 124 133 134 122 103 81 78 82 74 78 70 53 44 44 43 38 59 96 118 125 129 136 137 142 142 145 143 139 135 133 134 143 150 156 161 167 164 160 165 157 155 156 149 143 133 107 101 102 94 94 106 127 118 106 104 102 100 112 139 134 143 131 138 122 151 168 169 119 71 58 18 12 12 13 12 12 13 15 14 13 14 20 39 107 106 97 96 116 127 108 109 116 119 130 130 122 96 79 81 88 78 75 70 78 92 109 117 118 127 130 135 141 149 159 159 162 164 166 161 159 158 162 164 168 179 179 177 176 177 171 174 170 166 166 171 164 156 142 116 111 106 112 120 113 117 93 98 103 110 123 143 142 129 134 149 128 139 166 166 112 75 55 25 10 20 17 18 18 18 18 18 19 20 17 36 95 105 91 97 105 114 102 110 110 119 127 110 114 98 92 91 81 77 95 99 116 130 132 133 128 131 137 143 149 157 164 166 175 171 171 166 172 170 165 167 164 166 163 159 162 157 162 163 160 153 150 164 161 157 150 138 111 114 109 111 117 115 95 91 100 102 118 147 149 122 128 143 138 138 165 159 111 76 65 42 19 18 10 26 26 26 25 26 25 26 25 33 65 110 94 94 116 98 95 102 109 109 125 102 102 104 102 85 76 72 111 120 119 140 144 143 141 142 145 141 142 151 160 151 162 152 145 149 151 139 132 131 133 131 133 139 137 128 139 140 148 152 153 153 157 157 154 146 119 109 108 107 123 117 95 80 83 92 121 156 144 118 118 144 137 144 170 151 109 71 61 62 30 8 10 38 38 39 39 39 39 39 40 43 56 102 97 91 110 96 94 100 103 97 116 107 104 117 101 79 81 80 103 106 133 149 145 136 140 140 140 143 133 132 139 142 130 119 114 117 117 112 114 129 113 125 117 122 119 126 131 125 132 141 150 145 153 153 155 147 131 103 107 115 111 112 93 77 80 95 130 156 155 119 129 146 143 145 174 156 108 64 46 55 46 34 21 54 55 55 55 56 56 53 52 47 58 103 100 98 101 103 88 100 106 99 111 104 102 114 108 83 75 82 96 107 129 135 132 131 124 129 146 136 121 110 113 116 98 108 112 100 98 109 107 121 119 130 118 128 120 113 129 119 122 128 132 131 134 144 153 150 146 120 100 105 101 99 87 87 86 109 126 142 150 138 126 146 159 130 165 171 122 73 44 53 53 49 34 69 70 70 70 69 69 68 68 62 69 102 92 93 99 103 100 91 110 102 109 105 105 99 100 85 90 90 84 118 133 128 131 129 128 137 130 119 113 106 102 97 99 104 108 104 95 115 119 108 119 104 123 128 124 114 131 138 136 129 124 141 139 137 137 148 143 145 120 93 90 82 70 83 96 102 130 147 148 137 130 133 155 143 154 174 117 67 36 38 40 42 39 82 81 81 80 82 82 82 82 81 73 82 100 95 97 100 81 83 103 98 91 107 87 94 93 89 87 83 84 115 125 126 131 132 131 129 110 106 113 103 103 90 100 89 99 95 90 111 112 123 140 93 103 112 110 123 132 147 151 139 129 131 135 134 127 124 138 138 133 97 84 86 70 83 114 111 123 138 150 138 129 137 145 139 158 172 123 59 46 43 32 23 25 93 93 93 94 94 93 92 91 84 47 60 100 96 88 85 92 83 102 108 88 107 91 85 79 85 70 84 88 107 120 126 132 135 127 130 121 122 105 98 91 94 98 87 95 92 105 89 114 119 123 98 79 95 114 122 123 142 146 145 150 140 138 134 128 113 118 131 127 99 82 88 76 84 114 122 120 123 136 150 123 147 149 133 165 167 123 47 40 47 45 33 25 101 101 101 102 101 102 98 96 70 36 51 98 75 82 65 79 72 92 107 101 99 98 72 76 72 66 85 95 120 133 129 121 132 125 119 118 95 101 93 88 90 94 99 93 105 123 91 110 100 109 105 93 92 105 120 122 142 152 150 147 145 136 128 132 126 122 117 121 109 98 76 84 98 110 121 103 121 125 149 132 132 142 144 156 162 125 38 33 38 43 44 41 103 105 105 105 105 104 103 87 47 29 23 68 78 74 69 84 70 81 93 95 87 80 64 66 57 71 74 86 126 125 122 122 109 109 105 97 100 109 83 97 93 100 105 93 123 117 101 100 99 111 93 92 98 98 114 133 144 148 152 146 145 145 131 127 121 113 103 110 119 91 87 78 102 110 121 113 118 130 140 142 138 135 146 150 159 131 35 31 36 40 43 46 106 106 107 108 107 107 105 53 21 26 19 19 66 79 83 84 78 66 72 76 100 82 64 57 59 66 57 92 129 121 115 103 111 116 108 108 109 93 92 97 94 105 93 103 107 110 97 109 95 106 101 92 120 116 109 132 159 154 149 143 133 139 132 130 132 129 108 114 128 103 111 76 76 119 135 110 109 132 135 148 141 141 150 154 160 136 39 30 37 39 43 45 106 108 108 109 110 111 81 30 27 22 20 20 33 65 87 83 69 66 70 70 89 81 63 59 60 52 80 99 120 111 95 101 124 128 117 104 103 111 101 116 104 93 97 96 101 119 97 101 87 86 107 119 130 128 122 133 159 165 153 146 136 123 129 120 119 131 120 118 140 124 127 83 78 112 146 113 113 138 149 147 142 141 152 158 159 145 50 31 34 38 39 39 107 108 112 113 100 66 30 26 28 21 25 27 16 28 76 81 70 70 74 74 56 73 57 55 44 53 78 88 95 124 100 103 130 121 102 96 111 106 112 105 109 97 107 106 125 115 92 94 78 87 110 136 145 127 121 135 140 150 158 142 135 127 111 106 103 100 115 110 116 115 118 80 80 99 133 116 125 136 138 141 147 147 152 157 158 150 54 29 33 34 35 38 112 114 108 76 35 18 21 27 24 25 33 23 7 7 61 72 58 60 63 70 48 67 56 55 52 65 83 81 95 126 94 106 110 112 95 101 100 113 105 108 122 97 110 114 123 114 99 102 91 122 136 134 138 133 129 136 137 139 127 135 143 135 113 94 94 91 103 97 135 101 102 72 79 109 118 118 135 121 135 139 146 149 152 156 157 150 56 26 32 33 36 38 102 84 48 23 18 22 26 29 24 31 28 11 3 0 30 66 58 63 67 56 60 66 62 58 64 65 71 84 106 107 104 99 99 113 98 103 109 110 90 114 112 103 124 137 126 107 102 94 113 117 136 125 125 135 131 125 126 149 137 119 122 133 116 98 99 91 104 115 107 122 83 74 87 119 93 119 133 131 141 142 148 152 154 156 156 151 60 26 32 33 36 38 34 25 20 21 23 24 26 24 27 25 16 8 5 1 9 28 43 72 63 52 58 54 57 64 73 53 62 95 91 99 97 90 95 109 103 108 108 97 111 116 117 113 119 132 118 101 103 84 108 112 116 136 113 129 113 106 111 139 150 121 109 122 109 107 91 82 95 108 78 67 64 85 75 112 117 134 126 134 138 142 147 154 158 156 157 155 64 26 31 34 36 37 21 22 23 23 25 25 23 25 24 9 12 9 6 5 5 9 30 75 65 57 58 43 48 47 61 54 76 87 74 76 89 86 86 103 92 101 106 98 129 124 124 118 114 116 113 101 109 87 105 118 126 121 117 113 114 106 112 117 150 131 108 118 95 108 97 95 94 82 69 50 70 65 83 119 113 118 122 129 142 144 145 154 158 156 158 157 73 26 31 33 35 38 24 24 25 25 26 25 24 20 15 4 8 8 5 5 3 7 18 57 38 63 67 50 48 43 55 52 64 74 83 58 85 64 81 93 95 103 123 116 111 125 145 110 96 130 106 111 113 95 115 98 112 125 126 110 99 93 99 98 130 122 109 108 97 88 87 109 88 54 58 58 52 80 105 99 99 123 137 137 143 146 147 156 161 162 160 159 74 26 32 34 36 37 25 27 28 29 28 25 20 15 9 4 5 5 5 4 4 1 22 27 33 59 66 41 39 41 45 37 54 54 56 64 69 61 77 80 108 116 128 139 115 100 139 124 109 120 127 113 105 105 102 100 96 121 126 102 93 101 85 88 129 112 110 113 106 94 74 86 67 58 51 65 88 105 112 109 102 129 138 140 144 149 156 159 163 163 161 157 73 27 32 33 35 38 26 28 29 28 27 23 19 12 4 6 7 5 5 6 7 6 12 15 12 51 66 56 43 43 42 38 39 40 41 63 63 66 81 105 108 113 127 136 152 101 113 101 116 114 119 100 106 115 100 85 99 96 95 99 92 96 85 88 139 115 111 123 98 101 94 68 61 45 50 69 92 96 107 106 123 133 136 143 149 155 159 161 161 163 163 154 69 28 32 32 36 41 28 29 28 28 25 22 17 9 2 7 7 7 7 8 8 6 3 2 0 41 70 71 61 52 49 40 33 32 37 56 61 73 104 103 100 118 150 125 141 126 117 121 93 119 106 101 115 118 125 88 86 96 78 93 88 104 75 78 103 108 110 151 107 99 113 65 28 51 62 77 94 90 108 131 136 137 140 138 147 156 159 161 161 163 160 150 61 29 32 32 34 37 30 29 29 28 24 21 16 5 4 8 8 9 9 9 9 7 4 4 0 29 82 75 70 77 59 42 30 33 35 59 75 88 105 121 111 152 146 120 135 119 119 126 128 82 105 111 105 104 115 115 87 89 82 82 81 68 75 64 76 109 119 143 104 101 81 66 43 63 60 72 84 104 115 130 139 136 136 141 151 156 161 164 163 165 163 145 52 31 34 33 33 36 28 27 25 23 21 19 9 2 8 9 10 11 11 11 9 7 5 5 0 20 74 73 72 73 83 74 55 44 40 51 59 72 101 129 137 144 108 118 120 115 112 88 133 105 93 116 99 96 110 110 117 109 90 80 79 63 75 66 92 97 95 130 98 80 54 48 58 69 68 95 99 106 106 117 131 136 138 150 159 160 162 166 167 165 162 137 45 33 35 33 35 37 24 26 23 22 21 18 6 5 11 12 14 13 11 11 9 6 6 4 2 4 57 76 78 79 83 82 75 56 63 50 48 71 83 122 131 114 112 109 98 112 90 93 97 74 81 109 74 79 92 107 84 88 93 63 74 72 71 67 90 96 107 113 97 65 58 70 65 77 96 112 99 99 111 129 136 143 149 156 160 164 165 166 168 162 164 126 36 36 35 32 35 37 24 23 22 21 19 15 6 8 12 16 16 14 12 11 10 8 7 5 3 0 45 76 77 82 83 86 88 79 72 62 67 72 76 94 119 100 121 123 89 110 100 102 112 66 61 82 82 54 87 107 78 67 92 70 78 83 76 65 66 81 80 103 84 68 77 91 77 89 107 114 115 129 142 144 140 141 151 157 162 164 166 169 166 166 166 104 30 37 35 33 35 37 24 23 23 22 18 13 6 10 15 17 17 16 13 12 10 8 7 4 3 0 28 73 78 80 85 87 91 94 80 74 61 62 69 64 110 100 128 119 97 95 114 120 113 103 64 51 86 80 92 80 71 70 72 94 69 103 104 91 65 84 65 93 79 79 86 85 86 99 127 131 137 140 139 140 141 149 156 160 164 166 169 171 169 171 166 83 28 39 35 34 33 37 22 23 24 22 17 11 5 11 18 18 18 17 15 13 10 8 7 5 3 1 13 64 78 81 84 88 89 94 84 70 67 63 51 71 93 114 106 110 106 93 99 88 92 99 105 81 56 74 101 79 69 71 81 89 101 112 114 115 86 106 94 101 98 103 99 106 107 119 131 132 131 135 138 143 148 153 157 162 166 169 172 172 172 167 161 66 28 38 35 34 34 36 24 25 23 20 16 10 7 17 19 20 19 20 14 12 10 8 7 4 4 3 4 53 79 83 87 89 90 92 92 91 89 84 78 71 80 93 87 68 92 110 116 82 80 86 82 68 69 64 91 82 66 90 105 90 123 112 106 110 117 108 106 111 114 112 112 120 121 122 135 135 130 136 149 151 153 155 160 165 170 170 172 173 172 166 152 55 32 38 35 33 34 38 24 23 20 19 16 9 10 20 22 24 21 18 15 13 11 9 6 6 3 4 1 38 79 82 89 88 92 91 90 94 94 85 73 73 78 72 63 64 101 111 89 95 86 91 65 65 69 68 73 63 69 98 93 83 110 107 99 94 117 101 97 98 113 118 116 123 122 132 142 137 136 143 152 153 156 158 163 168 173 172 174 173 170 168 140 42 39 38 36 36 36 36 23 22 21 19 15 9 17 22 23 23 21 19 15 14 11 11 7 5 4 5 2 22 74 81 87 89 91 92 94 95 94 89 81 81 86 81 84 86 91 96 95 102 90 94 81 77 76 76 78 72 75 91 79 85 87 94 104 109 112 109 112 122 129 129 123 137 140 141 139 140 142 148 154 154 159 164 168 171 173 175 176 172 172 171 120 36 44 40 36 38 37 37 23 22 23 20 14 14 23 22 23 22 22 19 17 15 12 10 7 5 4 5 4 8 61 82 86 90 93 95 95 93 92 94 90 78 78 82 92 86 87 87 90 90 72 87 84 94 83 90 95 91 92 95 83 84 84 109 105 105 123 121 126 125 126 124 125 135 144 143 142 141 145 151 156 160 162 166 170 175 178 178 173 177 176 172 94 30 45 42 37 35 35 38 23 22 22 18 14 18 25 24 25 23 23 21 18 15 13 11 9 6 4 5 6 3 41 83 86 90 93 97 96 96 94 96 95 84 70 83 89 90 89 87 88 82 75 89 84 85 79 78 95 112 104 95 81 85 101 104 106 114 123 130 135 132 136 139 141 140 141 142 142 141 146 151 156 160 165 171 176 180 178 175 180 180 172 166 66 29 46 41 36 38 41 38 22 23 21 18 15 24 26 26 23 23 22 22 20 17 14 11 8 5 4 6 8 5 21 77 86 91 92 96 99 99 99 97 95 88 73 75 91 98 97 101 94 86 81 91 84 84 80 74 93 102 99 80 84 102 108 102 119 127 132 132 141 145 141 138 144 145 140 141 147 149 155 157 160 164 167 173 177 177 178 183 181 175 169 143 43 33 43 41 39 38 41 38 24 23 22 16 21 29 28 25 22 21 22 24 21 18 15 11 7 5 6 7 8 8 8 62 86 89 93 94 99 100 99 97 96 92 79 72 78 96 93 84 82 78 86 90 95 90 91 98 102 108 97 89 102 111 117 113 110 116 122 130 136 139 135 138 145 147 145 146 149 153 158 160 164 167 170 175 175 180 184 182 178 174 170 123 27 35 42 40 40 39 40 42
