P2
# Generated by OpenCV 4.2.0
92 112
255
59 46 31 16 13 14 23 29 17 27 51 53 49 61 70 58 41 25 22 24 27 29 27 25 22 17 30 73 81 53 44 61 52 36 30 33 40 32 42 47 36 38 45 53 63 69 66 61 55 49 50 56 49 39 37 37 38 38 47 60 64 77 95 108 101 117 132 130 123 118 120 118 89 65 65 53 75 97 59 52 86 87 79 79 66 55 58 57 42 50 54 65 64 57 30 19 20 21 24 22 23 38 54 55 60 67 62 47 34 22 28 34 31 31 36 35 34 39 55 60 56 65 69 58 47 46 46 42 46 44 45 56 54 54 57 61 73 85 83 77 67 67 52 49 42 40 42 40 44 49 58 76 79 90 104 119 123 126 140 147 140 133 125 125 111 84 76 62 49 96 84 53 60 71 72 73 71 66 60 56 44 40 47 59 67 56 25 23 24 21 18 25 40 47 53 50 55 54 40 38 32 36 44 39 38 47 53 58 69 76 80 67 79 93 79 69 74 70 67 53 54 58 54 53 59 66 78 85 92 104 96 92 86 81 62 55 49 46 42 51 61 70 75 89 100 107 123 131 137 143 148 151 152 144 138 140 131 106 82 71 47 77 108 59 57 63 52 55 69 70 65 55 52 42 37 51 61 40 26 26 22 17 23 28 38 49 41 51 54 45 43 40 37 41 42 45 59 76 94 103 101 103 110 116 122 123 120 111 111 100 83 69 65 63 66 63 72 81 95 99 101 115 112 99 88 77 65 58 53 56 59 63 73 87 100 103 112 131 143 146 155 159 156 154 158 154 148 142 137 128 100 77 66 57 101 79 57 70 45 38 54 66 68 67 54 55 37 44 47 32 23 24 19 19 22 22 36 33 42 55 54 51 51 36 36 43 55 72 84 103 121 111 117 133 137 141 142 144 152 145 134 134 117 98 86 79 79 89 92 90 109 115 112 119 124 119 123 119 107 95 81 78 81 87 94 103 121 130 123 140 163 161 163 164 161 160 160 162 154 146 143 142 121 87 80 63 81 89 54 67 59 33 41 55 68 80 55 53 48 43 36 33 19 20 17 19 15 31 40 43 52 49 58 58 39 40 46 58 73 86 101 119 119 118 141 142 144 153 154 153 157 162 162 161 146 124 106 100 95 104 114 112 118 135 142 143 146 155 176 174 160 155 139 123 112 118 121 133 146 143 139 151 171 173 168 165 159 161 161 161 153 149 150 146 136 107 91 81 70 87 61 63 71 50 41 46 58 77 66 45 54 49 35 28 20 17 17 12 20 45 37 52 51 62 69 59 46 53 58 73 87 100 111 123 128 140 140 146 156 166 172 178 174 173 176 181 181 157 154 151 148 132 132 147 148 161 177 190 187 177 189 194 185 179 169 163 161 159 152 160 169 168 167 161 176 176 176 175 165 165 161 158 153 154 155 150 146 133 101 94 75 82 70 66 78 75 52 39 43 63 81 52 48 52 40 30 21 17 17 12 27 44 43 51 48 65 72 52 56 65 76 94 106 107 117 134 146 144 142 161 171 181 193 196 196 194 184 176 192 187 177 180 174 169 186 191 190 192 203 209 214 202 201 206 200 197 188 176 174 178 184 184 185 187 189 185 178 179 182 182 173 168 168 164 156 158 160 158 154 146 117 100 84 76 72 59 72 85 75 43 33 49 77 67 48 48 39 32 26 23 19 11 28 46 46 35 46 73 61 49 70 82 103 114 110 106 130 146 149 151 164 181 186 191 195 198 201 202 193 184 198 205 195 194 193 203 219 218 214 207 213 219 224 217 214 211 204 206 208 202 190 187 195 196 196 195 194 196 189 185 181 178 175 170 168 164 161 161 159 162 157 150 133 100 86 82 81 58 72 72 85 75 35 32 55 71 52 47 41 42 31 19 11 13 34 44 35 36 58 74 56 59 77 98 117 117 112 120 143 154 156 167 181 191 195 195 198 201 200 194 196 202 208 209 202 206 217 224 224 223 221 218 222 228 228 222 217 214 209 210 210 209 210 207 206 207 204 200 194 194 191 188 184 181 178 175 171 165 163 161 161 159 158 150 136 106 94 87 84 60 78 75 67 77 47 22 45 67 57 45 47 45 24 15 15 14 43 47 37 43 52 59 52 66 90 112 121 123 127 139 150 157 165 176 184 189 195 199 199 197 193 195 203 212 209 205 211 221 223 222 222 222 222 223 224 230 227 224 216 213 212 211 209 207 210 212 210 211 210 207 200 194 190 187 184 182 177 173 172 167 161 161 163 159 157 144 127 98 77 78 86 73 68 83 77 65 66 30 28 61 61 44 48 37 25 19 15 20 43 46 32 33 51 46 51 70 102 113 129 142 145 148 155 162 168 177 184 189 193 197 194 189 191 203 211 209 206 214 221 222 221 222 219 223 226 227 223 226 226 226 220 215 213 211 210 212 212 210 211 210 209 210 207 200 195 191 186 183 177 172 170 167 162 164 166 162 154 139 129 105 63 69 86 87 76 74 84 73 69 62 22 39 63 50 40 34 25 21 18 24 47 39 31 37 50 43 56 82 105 120 146 150 150 156 161 163 167 178 185 188 193 191 187 195 205 210 212 213 215 217 218 219 221 223 226 226 226 225 223 223 225 226 222 218 216 215 213 213 212 212 211 210 209 208 206 202 200 195 188 185 177 173 170 163 162 167 164 160 150 137 129 121 79 71 78 74 78 73 85 89 75 74 49 28 51 55 33 32 28 21 18 23 40 31 31 42 43 45 71 100 113 129 146 150 158 166 165 165 171 182 190 190 190 189 195 209 215 211 215 221 223 220 220 221 225 229 230 229 228 227 227 225 226 225 222 221 217 215 216 216 213 214 212 207 207 207 205 202 199 194 188 186 181 176 171 165 163 166 165 160 150 135 123 119 99 83 71 58 67 80 78 84 77 65 64 41 38 47 37 33 28 19 18 21 25 27 35 41 43 57 84 103 116 132 147 163 167 165 168 170 175 187 192 189 189 195 203 209 211 216 223 228 225 220 219 219 221 223 223 224 224 225 226 226 225 225 221 220 220 219 217 217 217 216 215 210 207 208 209 203 198 195 188 187 184 181 176 167 164 166 167 161 147 130 116 110 104 88 68 52 41 69 76 79 85 76 58 59 41 41 35 33 26 18 19 21 15 27 43 40 46 59 80 101 120 132 150 170 172 167 168 171 179 189 191 186 190 202 203 202 209 218 223 221 221 221 221 222 224 225 225 225 225 226 225 224 223 226 224 221 219 219 216 218 218 215 214 211 211 210 207 204 201 196 189 187 186 184 180 170 164 165 166 157 142 127 117 107 99 85 65 65 47 66 64 72 86 94 57 56 42 45 29 33 29 20 21 19 16 32 44 41 45 59 82 103 118 130 154 169 174 173 168 172 181 188 189 188 192 199 201 204 209 214 215 219 224 222 223 225 228 228 224 224 225 227 225 223 223 225 225 223 219 217 217 218 217 213 213 214 214 210 207 207 206 201 194 188 187 186 181 169 163 165 164 154 141 127 116 107 97 75 62 64 56 71 52 64 70 93 69 46 47 48 33 42 38 26 25 19 23 37 36 37 48 69 85 105 118 131 151 166 175 175 169 171 182 190 192 193 193 193 199 208 212 214 217 221 223 223 223 224 226 225 224 225 225 226 224 223 224 223 222 221 220 219 217 217 217 212 211 215 214 210 208 208 207 203 197 190 187 186 182 169 164 166 163 154 137 119 111 104 92 69 59 61 58 72 51 44 61 84 88 48 52 50 39 45 42 35 31 23 31 37 32 38 58 78 93 116 127 131 144 162 174 177 170 169 178 189 195 194 192 194 200 208 210 213 219 223 223 222 222 225 226 226 222 220 219 222 223 224 225 223 219 216 219 220 217 217 216 209 208 211 213 210 206 205 205 201 197 192 187 185 180 170 165 166 163 153 132 115 109 95 81 68 60 58 55 68 54 40 61 72 96 55 52 55 43 45 48 41 35 31 35 35 42 52 67 78 90 111 124 136 145 162 173 178 174 169 176 188 194 192 191 195 199 202 205 211 216 219 220 221 223 225 227 227 222 216 215 219 221 221 222 220 217 215 217 217 217 216 215 212 210 211 211 208 204 201 199 198 196 192 187 186 180 172 167 167 162 150 133 119 105 84 72 62 59 58 55 69 52 47 56 66 87 65 57 60 42 43 52 45 38 38 36 38 53 59 63 69 86 109 127 138 146 164 172 178 176 173 178 189 194 192 197 196 196 201 206 210 214 218 220 221 222 225 226 226 225 225 222 221 219 220 220 219 220 217 217 216 216 213 209 210 209 208 206 205 203 197 194 195 196 195 190 187 180 173 168 168 166 150 137 124 100 76 66 53 49 50 53 75 51 44 51 72 76 65 54 51 42 39 52 45 38 32 37 50 53 53 59 73 87 109 129 134 145 161 171 179 180 177 181 187 191 194 194 195 197 201 205 209 214 219 221 222 222 220 225 225 224 225 222 220 217 219 221 221 222 218 219 218 216 215 209 205 207 206 204 202 198 195 195 193 194 195 192 187 182 176 172 170 167 152 141 127 93 75 62 50 47 43 52 73 44 39 43 61 64 62 59 57 43 48 49 41 33 39 53 57 48 51 63 68 77 92 106 129 146 160 171 181 183 181 183 186 193 198 195 199 202 203 206 209 214 218 219 222 223 225 225 224 223 223 223 222 217 218 218 216 217 217 215 212 211 212 207 202 203 202 202 199 194 196 197 195 194 195 192 189 186 180 176 172 164 152 137 114 102 89 56 46 51 46 56 74 42 39 38 48 55 57 51 62 44 56 51 44 37 53 53 44 47 56 59 58 66 85 114 130 144 158 169 180 184 186 185 188 197 203 200 200 200 205 207 210 215 216 217 219 223 224 223 222 223 222 221 219 220 218 213 211 216 218 212 208 209 211 206 203 205 204 201 196 193 194 197 195 197 199 196 192 188 183 178 173 166 151 128 108 108 90 61 48 49 49 64 65 38 43 42 49 55 51 36 53 44 54 48 48 48 54 40 40 43 47 54 64 68 82 116 131 144 156 167 179 184 184 185 189 195 201 201 198 196 201 207 211 214 216 215 216 219 220 220 218 220 220 217 216 219 218 214 213 218 221 216 212 213 213 208 205 205 202 200 197 193 195 196 193 198 201 197 191 187 183 178 171 162 143 124 115 102 77 63 57 49 45 66 49 34 41 38 51 59 48 36 33 44 50 49 50 60 52 40 37 43 50 57 68 76 94 116 138 147 154 164 176 182 184 186 192 199 201 199 197 196 198 203 209 210 210 210 211 212 214 216 215 215 218 220 218 217 219 220 219 219 219 216 212 211 211 206 204 205 204 201 199 198 196 197 198 201 205 198 191 185 182 176 167 155 142 130 121 104 86 67 59 48 48 67 41 31 32 35 40 47 46 44 34 49 50 52 53 58 48 42 37 38 43 47 62 76 89 107 134 145 152 161 174 182 184 184 189 198 200 199 195 198 201 203 208 209 207 209 211 213 218 219 218 218 218 221 220 218 218 219 219 218 218 217 212 210 211 208 203 203 204 205 201 201 198 198 200 203 204 201 193 183 177 172 161 152 144 133 126 119 106 87 67 53 56 54 28 26 27 33 35 37 39 41 33 56 51 46 53 49 41 37 37 32 43 58 68 77 92 112 133 145 154 162 173 180 182 184 188 194 198 199 198 201 205 207 207 206 207 210 212 215 219 217 215 217 215 217 218 220 219 216 216 217 216 217 216 214 214 210 206 207 208 208 204 202 200 200 201 203 204 199 193 183 175 169 159 155 148 139 135 131 121 108 86 69 62 46 26 27 27 29 36 37 38 44 39 57 55 47 46 42 45 41 40 44 54 57 64 76 104 125 136 147 156 163 171 178 182 186 189 193 199 202 203 205 209 208 205 206 209 212 214 214 215 216 214 215 220 218 218 219 221 221 218 217 217 219 217 215 214 210 206 206 206 207 206 202 205 204 202 202 202 199 194 184 174 170 159 156 156 149 140 133 126 114 97 85 70 46 30 29 29 30 31 38 44 48 48 62 62 50 47 52 51 52 46 45 46 49 66 84 107 134 138 141 153 162 173 182 185 187 189 193 199 204 206 204 205 206 205 209 214 213 214 216 219 219 218 219 220 215 217 221 221 221 222 220 219 222 219 215 211 205 201 204 205 205 204 203 208 206 203 202 202 199 194 185 176 171 163 160 163 156 145 137 126 111 103 98 85 57 34 26 32 37 36 37 46 51 51 75 66 57 56 63 56 48 39 42 46 60 88 109 119 143 151 146 149 159 175 182 183 188 189 192 202 206 206 205 207 210 208 210 213 214 213 215 221 222 222 222 221 218 217 222 225 222 221 220 222 223 217 211 211 205 205 209 212 209 198 198 205 204 203 202 203 202 197 188 179 173 167 163 162 157 146 133 120 106 106 108 98 71 43 30 34 39 48 43 48 50 47 75 68 61 64 61 47 35 36 42 49 74 105 126 130 141 150 149 153 163 174 179 183 191 195 200 207 209 209 209 210 213 214 214 213 213 209 212 216 220 222 222 224 221 219 220 224 223 218 217 220 219 215 214 214 207 206 211 212 210 202 199 202 203 203 203 202 198 195 184 175 173 171 164 159 157 145 128 115 105 107 109 98 84 60 36 33 38 55 60 55 44 46 70 72 61 62 52 38 36 38 47 60 88 121 131 135 139 147 145 154 170 175 179 184 189 193 199 207 211 212 211 210 213 215 217 216 213 212 212 215 215 217 220 222 218 218 220 222 221 216 215 219 213 211 211 210 206 205 209 207 202 203 201 195 194 195 200 196 186 181 172 164 165 166 164 161 160 151 128 111 106 111 113 105 97 79 47 31 41 56 69 53 38 42 84 79 62 57 46 39 40 39 49 69 99 126 131 134 137 141 141 154 174 175 173 172 175 182 192 196 198 201 202 204 208 212 217 214 208 214 213 213 213 212 212 214 210 214 219 221 218 212 211 213 207 200 198 204 203 197 194 180 175 171 160 157 161 167 172 171 160 150 148 142 137 140 147 148 147 147 127 107 104 115 119 117 106 87 61 36 44 53 61 44 37 39 96 79 57 49 41 42 42 44 54 80 113 130 135 136 136 135 140 161 166 157 148 151 156 165 169 166 165 164 163 165 171 178 188 195 194 198 201 202 204 204 208 209 204 209 217 218 213 205 202 204 200 191 189 194 189 177 160 136 125 124 122 122 121 120 122 131 133 127 128 125 117 120 126 120 114 125 123 106 101 113 123 123 115 97 76 56 49 49 52 37 38 33 100 79 48 43 39 47 43 43 65 84 114 137 139 140 133 125 132 137 121 116 128 132 129 139 139 131 131 126 125 126 126 121 126 151 158 165 183 193 194 193 198 202 198 205 212 210 203 198 194 192 190 181 171 169 167 149 131 106 104 96 97 103 98 94 99 100 104 110 110 107 105 108 107 98 91 94 101 103 102 113 122 123 117 114 89 71 49 43 47 37 39 28 104 78 44 37 41 49 41 47 64 77 117 135 138 143 129 118 119 109 105 107 116 122 126 131 123 113 104 98 94 93 90 91 101 115 122 130 156 176 175 175 183 189 193 201 209 211 203 196 189 182 183 176 162 151 142 130 121 106 99 85 76 77 77 80 87 91 97 103 102 100 94 94 90 87 87 88 91 95 98 112 122 123 118 114 107 90 63 42 40 31 32 26 116 79 50 38 37 41 43 51 51 84 125 136 140 138 129 113 105 107 104 108 121 130 131 128 118 108 106 100 93 88 87 92 94 99 111 120 134 146 150 158 169 178 189 199 206 209 202 195 185 175 175 171 162 147 126 118 108 95 85 83 89 98 105 110 113 117 117 117 117 113 102 97 93 91 91 94 96 100 100 107 122 125 120 117 125 113 79 45 34 30 30 40 126 98 74 48 40 38 46 51 52 102 133 136 139 136 126 113 105 105 104 117 134 150 159 153 148 146 153 153 153 150 145 130 115 105 103 111 119 127 139 149 158 172 179 190 202 205 197 188 178 170 162 154 143 126 106 96 83 86 101 118 132 143 153 160 167 169 166 161 154 145 137 127 115 105 97 102 109 113 113 109 118 124 118 116 136 138 94 52 36 35 35 61 134 112 81 55 43 33 45 57 89 116 128 136 139 139 128 115 109 106 110 128 150 167 179 181 184 194 197 204 199 191 178 155 144 133 120 105 102 106 118 133 149 162 169 182 201 209 198 184 173 162 150 134 114 97 86 85 94 113 115 109 106 112 109 110 129 152 168 168 163 163 158 143 132 121 116 123 130 132 116 110 122 127 117 112 123 144 132 75 36 38 49 74 164 138 95 72 56 44 43 76 100 126 134 135 138 139 133 123 115 114 125 146 165 178 188 190 189 188 172 151 134 117 107 105 103 103 109 117 113 104 103 110 121 144 164 179 196 209 202 186 176 166 144 116 95 85 89 104 116 101 92 94 100 72 47 68 59 53 53 70 83 94 116 132 139 134 130 144 146 135 120 117 125 124 117 118 120 130 148 108 46 45 74 70 114 137 119 84 65 50 52 84 118 140 139 136 138 142 141 144 141 132 143 159 167 168 151 119 103 82 59 53 55 49 53 79 100 102 92 101 117 122 114 109 108 120 147 177 199 211 207 192 178 165 141 110 93 93 107 113 102 107 117 116 123 98 64 83 67 51 26 54 74 51 51 70 99 125 134 152 145 132 131 125 126 124 119 120 130 123 137 138 72 50 77 71 80 129 120 89 81 52 78 115 138 147 143 139 140 145 150 158 153 144 142 148 127 86 54 59 95 64 39 59 81 76 69 98 128 117 125 113 114 120 123 125 126 119 136 175 202 213 210 199 185 165 140 117 106 103 107 119 130 124 115 130 182 161 85 70 58 61 47 107 132 100 73 60 74 106 123 135 128 135 140 132 127 126 123 122 134 134 127 144 96 56 78 92 126 150 119 103 89 62 113 141 140 146 145 140 142 146 161 167 158 151 139 117 84 62 76 110 148 108 47 57 55 66 76 139 183 140 106 112 131 136 131 127 132 133 143 177 203 213 211 204 192 170 143 127 124 118 129 168 153 117 139 171 191 182 140 140 145 127 129 156 153 133 111 85 84 101 108 116 132 144 147 142 138 131 121 124 133 131 128 147 111 61 82 108 154 162 142 126 86 90 127 132 149 151 147 142 143 153 161 169 168 151 131 107 90 104 135 149 161 155 111 98 97 117 132 177 194 171 136 121 125 155 162 149 149 144 145 175 201 212 214 205 195 178 150 131 133 147 178 184 148 162 182 182 180 174 177 177 177 170 169 170 158 139 119 107 127 140 133 138 154 158 157 155 149 133 123 125 125 122 137 159 127 73 81 123 157 163 155 132 99 102 134 139 147 148 145 144 149 161 168 169 170 152 127 116 114 131 155 170 177 179 176 175 174 191 186 190 188 178 178 182 152 169 197 193 184 159 152 181 201 209 214 206 193 184 162 135 131 169 201 183 179 197 191 171 168 177 185 185 188 184 178 170 156 132 121 131 159 174 169 161 158 159 161 164 153 135 129 124 122 120 128 160 138 84 104 140 168 163 156 134 115 120 140 154 157 149 145 148 155 166 174 176 175 165 149 145 148 150 159 173 184 187 188 194 193 193 183 174 160 156 179 200 198 202 210 208 188 162 165 194 203 207 213 210 196 188 173 143 130 160 184 184 192 186 169 149 145 158 167 167 170 165 157 143 128 121 138 158 168 173 170 169 170 167 167 170 159 143 134 123 121 119 120 143 133 96 123 146 185 171 153 136 114 123 142 156 158 152 149 153 161 170 179 184 184 183 177 169 165 164 150 148 160 172 178 176 178 174 158 139 132 147 177 190 189 196 203 195 176 162 178 199 204 209 213 210 202 191 179 156 132 148 168 182 185 182 173 161 149 135 132 130 127 127 125 123 129 141 163 166 173 177 174 175 173 172 173 172 161 149 136 123 119 116 113 132 125 95 127 139 193 173 149 146 128 133 148 149 147 148 150 156 166 180 188 182 178 183 183 181 180 170 155 147 138 132 134 133 132 127 128 130 147 170 178 182 187 192 194 190 170 163 185 197 206 210 209 206 201 192 181 165 137 145 165 183 195 192 185 181 179 169 164 161 151 145 145 148 162 172 184 189 185 179 175 175 170 173 180 175 162 149 136 123 117 114 108 111 123 116 139 134 199 168 149 145 132 144 152 148 145 142 147 158 171 181 188 183 179 181 185 186 187 189 191 180 161 150 145 142 144 153 164 173 188 191 189 194 197 200 196 186 167 165 186 197 205 203 202 204 198 188 177 159 135 138 162 177 198 206 201 199 192 193 193 190 186 184 187 192 194 195 197 200 195 189 182 175 171 174 177 177 164 147 132 123 115 113 108 107 119 135 147 137 195 168 154 147 130 139 147 144 139 144 144 157 172 180 186 186 184 187 185 184 193 202 202 201 198 195 194 191 198 200 199 197 198 202 208 212 206 201 190 178 162 163 184 198 204 203 200 199 195 188 173 144 127 134 155 171 186 205 211 213 209 209 205 205 201 198 203 207 204 205 205 205 201 194 186 178 174 176 178 177 167 153 137 125 114 107 109 108 116 141 146 147 190 170 163 170 160 144 144 140 131 140 141 159 170 181 188 186 186 186 188 191 195 197 200 207 209 208 204 199 207 209 207 210 213 217 219 211 201 193 182 170 159 160 176 191 199 202 201 200 196 183 159 136 133 134 144 160 182 197 198 211 218 217 212 213 208 204 210 210 206 207 204 203 201 194 186 179 176 177 177 173 165 157 141 123 112 102 96 96 119 134 148 164 185 173 169 180 177 150 136 128 125 136 142 157 170 181 184 184 185 186 190 194 195 200 207 213 213 213 210 208 211 209 211 218 219 221 217 208 198 187 175 165 162 162 170 188 197 202 200 197 190 176 151 135 141 136 137 152 183 199 190 207 213 211 213 216 215 211 212 210 207 208 205 202 199 193 186 183 182 181 178 170 163 155 137 117 111 103 86 91 123 131 161 182 186 181 182 181 173 151 133 116 121 136 142 153 170 181 182 183 187 189 190 189 196 204 209 213 218 221 219 217 215 217 218 220 218 216 212 203 193 182 169 162 163 161 171 186 196 201 199 192 186 170 148 135 140 140 136 145 170 192 200 211 204 186 200 215 217 218 216 212 211 211 207 200 197 192 187 186 185 184 180 171 162 153 137 117 110 101 92 98 119 145 180 185 188 185 189 183 168 160 142 113 111 128 140 153 169 181 182 182 188 191 192 194 199 205 209 213 216 218 219 217 218 219 219 218 212 212 210 197 183 173 167 164 162 160 169 180 189 198 195 191 185 165 146 140 142 142 137 140 159 185 202 214 209 178 197 216 216 218 220 217 215 213 206 200 195 191 188 186 183 183 178 171 159 150 132 116 105 97 98 92 112 152 180 173 188 178 182 192 174 156 139 108 112 128 136 152 169 177 179 182 188 192 196 197 199 202 211 213 210 213 215 214 216 218 217 216 213 208 202 193 182 171 166 164 161 162 172 182 188 196 194 188 181 168 152 146 145 141 141 142 152 177 193 210 218 202 212 218 218 218 217 215 212 209 202 196 190 189 187 186 184 183 176 168 158 149 131 112 101 91 88 79 112 148 166 158 190 172 171 197 186 155 137 119 107 120 136 151 164 171 178 183 188 195 196 196 196 200 207 209 207 210 212 215 219 219 217 212 211 204 197 190 182 172 165 163 162 166 173 183 193 206 205 194 185 172 155 153 150 141 139 142 150 168 187 200 212 215 216 216 218 218 214 212 211 204 194 186 184 184 186 186 184 182 173 164 154 147 128 110 100 97 88 85 112 147 158 148 189 174 162 178 178 163 131 111 98 113 131 147 160 170 178 185 188 191 194 194 195 197 200 206 210 211 212 215 218 218 215 209 207 200 195 189 176 162 156 159 164 170 176 184 199 212 210 197 186 174 158 155 153 143 133 133 146 165 182 193 203 213 217 219 215 211 211 211 208 201 193 186 185 185 185 184 181 178 169 160 151 141 126 108 91 93 91 91 119 138 143 150 187 176 156 149 161 166 140 106 103 111 123 147 159 169 180 184 189 189 191 192 193 194 194 200 208 211 212 215 216 214 214 207 203 202 199 191 171 150 152 161 166 169 174 188 201 209 210 195 179 175 164 158 152 142 132 124 141 166 179 187 199 205 214 218 214 212 212 211 206 201 195 187 185 187 185 183 178 173 167 162 152 137 124 105 90 91 84 90 131 138 138 155 175 188 172 154 149 161 149 121 117 108 117 142 160 173 171 174 188 191 191 192 190 195 199 203 208 211 214 217 218 216 215 212 209 208 210 204 175 150 151 165 172 168 172 184 203 210 204 190 178 170 163 159 153 144 130 120 126 158 187 193 199 202 209 212 215 215 212 208 204 199 194 188 185 186 179 176 169 163 161 157 147 134 118 99 90 88 76 84 132 144 155 171 166 208 198 181 152 152 156 133 114 100 112 135 156 168 166 169 183 188 189 190 192 197 201 207 213 216 218 218 220 218 215 215 216 215 216 199 171 155 153 164 173 170 176 182 191 203 206 189 169 159 155 155 152 149 138 132 124 149 187 203 209 206 207 212 214 213 208 205 201 196 193 189 185 183 173 167 160 156 155 150 137 126 110 96 88 92 78 87 134 145 166 174 155 187 198 197 177 159 152 127 109 99 105 124 149 164 171 175 179 184 187 192 195 196 200 208 214 217 217 217 216 215 216 218 219 217 213 184 160 157 159 167 172 170 171 177 184 197 203 188 166 153 152 158 162 161 156 145 134 140 168 199 215 212 207 208 211 212 209 206 199 195 192 186 182 179 168 162 155 151 150 142 129 119 106 93 89 111 79 91 133 144 162 163 173 177 195 200 190 172 158 137 122 95 95 120 143 161 166 173 178 182 185 189 195 195 198 206 212 213 215 214 212 212 216 215 213 213 201 175 155 156 166 176 173 165 160 172 187 202 210 192 165 150 152 161 168 169 164 145 136 132 153 192 210 214 214 210 209 209 209 204 198 197 192 185 180 176 166 161 155 149 144 135 125 114 98 91 86 97 74 94 137 151 162 165 185 185 195 195 189 175 161 141 134 91 100 115 139 157 158 167 175 178 179 183 192 196 198 203 207 207 210 211 210 211 212 209 207 208 192 164 147 152 171 182 172 162 158 184 208 221 222 205 171 152 151 159 166 169 163 146 131 126 150 186 201 209 212 208 202 203 203 201 198 192 187 183 178 173 165 158 154 145 135 130 124 115 96 88 91 89 89 109 147 159 166 173 179 192 198 197 193 182 170 142 136 104 108 110 133 153 155 158 167 175 179 183 185 194 198 201 204 203 204 207 208 208 207 205 205 208 198 164 139 145 167 181 171 157 165 205 221 220 223 216 184 163 157 160 159 159 156 135 118 117 149 182 197 207 209 207 200 199 200 198 195 186 182 180 173 169 163 153 146 138 130 124 120 114 103 92 82 83 98 111 149 160 160 162 182 194 198 201 197 191 177 152 136 112 105 115 128 149 151 155 162 172 179 183 184 190 193 196 197 200 205 209 207 204 204 202 198 205 203 173 131 126 145 161 155 146 174 196 196 195 195 195 190 171 154 141 134 133 129 115 107 105 146 183 192 198 206 208 202 198 198 193 188 179 177 179 174 168 161 150 139 136 127 122 118 111 99 100 81 84 100 90 117 134 136 129 157 183 195 199 194 187 171 143 138 110 106 122 132 151 151 152 158 166 175 181 185 187 189 190 190 197 203 206 205 204 200 197 196 198 198 173 122 104 98 105 128 123 141 168 173 170 164 166 177 167 128 105 90 73 75 88 90 101 148 180 186 193 199 202 200 195 194 189 184 177 173 172 169 163 159 151 141 135 131 129 124 116 104 96 108 99 87 57 59 71 75 67 142 157 160 170 165 153 138 135 153 118 108 117 141 156 154 150 156 160 174 181 183 181 182 186 187 191 198 202 202 200 193 192 194 195 189 165 124 100 68 49 68 95 113 130 139 140 135 132 135 120 83 57 35 22 39 68 77 107 161 179 186 193 196 200 200 196 192 188 184 177 169 166 164 159 157 151 141 134 132 133 129 122 123 100 106 94 67 47 42 39 41 39 128 195 189 177 165 161 179 216 194 118 112 121 138 159 162 155 158 160 171 178 180 178 177 181 186 188 196 202 198 194 189 187 188 186 183 171 141 121 97 89 72 74 92 94 95 101 105 101 89 74 58 41 39 38 46 59 84 131 174 181 187 191 194 195 197 196 193 190 183 172 164 162 160 156 150 141 132 135 136 136 135 137 121 111 94 93 93 65 48 39 40 40 59 133 219 246 249 248 251 252 195 127 117 124 136 157 166 160 160 160 165 173 177 178 179 184 182 174 187 195 189 190 189 185 182 180 180 174 167 140 105 84 90 92 87 93 81 65 66 67 64 69 62 48 52 65 74 82 121 150 166 181 189 190 188 191 192 193 192 188 181 170 162 157 155 150 142 138 136 141 140 139 134 128 114 109 99 98 104 70 48 40 40 39 47 50 97 157 194 205 202 173 143 138 119 119 142 152 164 162 159 157 161 168 175 181 182 182 181 178 188 197 193 191 187 178 176 177 170 160 168 132 98 93 103 91 106 123 86 60 57 65 60 76 82 73 79 76 74 96 124 148 156 174 187 188 183 183 186 186 185 180 173 167 159 148 148 144 133 135 139 144 139 135 126 130 120 103 110 110 92 60 47 41 39 39 58 54 48 53 66 78 71 62 100 138 124 128 141 150 166 164 159 157 160 165 169 178 182 178 180 188 195 199 193 182 173 161 163 170 156 133 131 107 96 122 100 106 117 118 90 66 66 94 75 91 97 90 114 88 79 94 111 125 148 172 180 182 179 172 177 180 180 177 168 160 153 142 140 138 126 136 142 141 133 119 121 126 125 101 99 111 89 57 48 42 37 38 61 55 55 48 45 44 47 59 97 137 139 140 143 158 171 167 161 156 159 164 163 172 178 176 179 186 188 189 178 166 148 139 158 153 137 119 105 100 113 139 130 115 104 122 97 72 71 87 90 100 118 98 113 91 98 87 94 99 130 150 168 166 166 162 157 168 174 170 156 149 152 142 135 133 126 140 151 133 125 114 121 115 110 120 82 94 85 65 56 48 42 40 64 54 46 53 67 72 71 61 89 140 134 144 151 161 164 168 169 163 157 162 161 164 169 173 178 181 176 166 139 124 128 138 139 120 126 117 114 107 118 132 138 136 122 112 121 86 62 78 98 115 134 122 110 110 123 97 81 83 116 131 160 147 141 152 141 153 164 168 159 147 151 144 136 132 130 147 154 140 126 109 114 116 111 120 85 102 81 49 53 54 46 45 53 64 105 160 195 209 199 167 136 134 127 136 155 157 156 172 167 168 158 162 164 165 168 175 183 178 158 120 96 113 114 126 115 111 125 117 116 109 120 112 126 150 122 108 134 92 75 77 80 102 107 113 105 119 97 93 100 85 92 114 135 134 128 128 124 134 143 160 165 151 152 142 134 135 132 146 152 147 135 108 103 109 118 112 98 106 79 47 54 56 51 50 70 163 234 252 254 253 253 254 205 139 123 118 147 153 155 169 163 164 159 160 161 165 165 172 169 145 132 103 114 112 102 112 100 122 116 107 108 126 131 108 118 132 125 128 128 82 91 89 76 104 93 101 97 106 94 86 102 98 73 103 113 116 123 120 106 99 112 136 139 136 146 143 128 126 134 147 147 146 141 111 100 96 107 100 108 108 70 46 57 60 58 56 171 245 255 240 209 184 197 240 240 161 131 119 138 147 155 161 170 159 157 155 153 160 162 170 150 127 121 83 107 106 104 108 104 111 100 102 122 127 110 107 106 98 132 137 112 99 73 76 76 99 95 115 97 88 83 95 88 84 71 93 111 100 101 89 93 89 85 99 95 100 127 139 130 122 131 140 134 138 139 112 106 96 102 102 103 96 74 49 56 59 58 58 240 254 234 147 81 65 73 131 206 177 136 125 131 139 161 163 167 150 153 153 152 162 162 160 124 106 88 81 102 90 79 102 99 113 114 109 115 111 101 109 99 89 112 110 101 76 59 74 85 92 100 111 104 101 94 95 106 91 74 83 97 87 91 78 81 99 89 87 85 66 99 127 128 130 124 116 121 132 130 103 99 82 93 94 85 103 68 47 52 56 58 58 253 252 169 68 56 59 59 62 106 151 137 124 120 128 149 159 154 147 153 152 159 158 148 134 99 88 85 105 117 88 77 81 82 95 95 93 99 104 105 110 88 68 84 105 97 59 81 99 96 91 80 102 96 97 88 79 86 98 73 71 95 91 85 83 73 93 112 88 96 73 75 113 108 119 118 114 121 128 120 97 94 81 79 79 91 115 64 46 52 55 57 56 253 241 123 54 65 62 62 62 75 128 135 128 113 116 137 160 151 147 152 149 149 142 136 120 92 100 92 100 105 82 89 73 68 78 89 92 88 92 94 95 87 72 77 80 78 73 94 110 93 70 63 80 82 74 79 76 79 86 70 61 94 93 57 59 66 80 110 93 75 73 66 93 99 105 113 99 138 127 105 92 90 88 77 88 102 108 65 46 53 61 57 55 254 236 115 56 62 61 62 62 67 112 138 113 105 116 141 154 153 154 144 137 128 129 137 123 106 118 100 86 91 82 74 71 82 61 48 46 46 60 71 61 70 90 85 103 111 108 102 96 97 95 93 81 70 68 62 66 75 71 73 56 62 58 49 52 48 63 96 71 71 70 69 87 99 91 93 102 142 123 96 91 96 98 87 107 123 82 49 48 52 59 57 54 252 245 140 58 58 59 60 54 64 113 137 99 102 115 140 140 138 157 129 123 124 119 130 123 112 126 102 86 97 113 104 106 106 84 60 50 61 76 93 91 83 109 131 151 173 172 155 150 158 164 154 127 103 96 67 46 43 49 45 44 46 47 56 64 57 63 83 72 86 82 83 100 96 72 83 112 134 115 99 104 113 107 99 122 128 75 43 46 53 55 53 52 248 253 197 85 48 50 51 67 119 146 141 110 98 99 127 142 142 154 130 127 135 117 117 121 116 129 115 110 130 132 132 144 142 131 113 108 117 123 124 130 129 126 134 133 147 149 139 147 143 140 133 108 122 128 94 70 77 78 68 73 82 91 104 107 104 102 96 77 82 107 107 92 75 72 86 119 121 104 97 97 107 106 102 126 124 76 46 47 52 51 48 50 221 254 248 189 121 93 106 172 240 223 156 121 100 99 126 136 148 148 132 135 131 127 115 117 121 128 119 113 117 118 135 150 151 149 140 137 142 146 151 142 148 149 147 148 145 148 141 136 133 130 131 129 125 122 130 129 121 122 120 118 122 133 147 147 138 130 111 93 109 122 117 84 68 73 101 125 109 91 84 90 107 101 106 124 110 67 47 48 50 50 48 49 131 222 254 254 241 231 236 252 254 234 161 121 106 108 127 125 139 145 133 127 138 138 122 116 124 123 111 94 100 126 144 155 157 157 151 147 154 165 168 165 169 170 175 180 178 172 163 157 156 159 159 166 159 160 157 158 156 149 142 146 146 144 149 147 143 128 106 100 105 112 103 84 73 81 109 119 110 97 76 88 112 99 103 112 98 57 43 46 46 47 44 49 50 112 203 246 254 255 255 250 218 142 116 123 111 114 124 119 130 138 138 130 129 136 121 98 110 117 98 89 104 128 142 153 156 157 150 150 154 162 162 166 170 170 174 182 179 172 169 170 171 173 168 172 172 168 166 159 150 146 143 147 136 130 141 148 149 146 122 94 87 105 89 70 67 76 97 121 121 106 95 99 114 117 102 99 90 54 43 44 45 48 57 79 20 37 73 127 164 176 169 143 94 55 98 124 105 108 110 107 128 123 136 148 134 137 111 83 91 113 80 86 105 132 156 156 156 159 154 150 152 152 145 135 132 127 142 143 143 143 137 129 135 141 138 135 140 138 132 135 129 119 119 129 130 127 131 139 142 136 127 103 91 85 92 74 58 76 94 118 123 108 100 118 117 124 109 102 88 58 45 41 53 73 94 107 8 11 15 26 39 52 62 53 36 25 77 96 97 90 86 102 121 120 125 143 124 126 117 93 84 102 70 80 111 141 148 160 161 147 146 141 124 120 126 115 107 111 117 116 112 113 112 97 106 120 129 121 113 115 110 106 110 115 116 109 109 116 121 131 140 135 120 101 84 75 71 58 60 90 108 116 127 118 118 122 112 111 100 95 73 66 54 68 90 104 112 111 7 7 7 6 8 20 31 28 13 17 42 57 104 99 98 116 100 105 110 127 106 122 118 87 74 89 69 90 127 145 151 165 163 140 123 117 99 97 103 104 90 107 108 109 110 105 97 96 106 108 124 135 104 101 116 106 102 110 112 101 98 107 112 126 150 137 113 93 79 72 51 51 64 112 127 114 117 128 124 103 107 105 77 66 59 78 88 99 106 108 109 110 10 9 8 9 14 14 14 13 11 19 10 36 107 105 103 111 108 100 113 123 108 98 86 85 78 74 82 115 135 151 171 164 148 141 120 111 105 87 90 88 89 99 104 114 106 96 95 95 103 113 117 135 136 102 107 98 90 99 101 106 110 109 119 127 146 144 109 83 81 83 59 61 76 105 134 111 113 134 119 117 105 100 61 37 37 72 98 104 105 108 108 109 13 10 9 14 21 15 12 12 11 12 7 29 89 88 89 112 109 88 99 102 90 96 86 78 73 61 96 110 121 156 163 143 139 142 122 114 112 111 93 80 87 98 101 101 96 90 92 106 114 106 123 111 132 115 101 100 93 93 92 113 125 124 132 122 123 144 125 75 77 82 63 65 79 82 127 112 119 122 124 129 108 94 56 17 5 21 80 108 108 111 108 109 13 13 12 15 18 16 11 13 12 11 11 21 55 92 96 107 91 81 73 89 85 86 84 79 59 71 101 105 124 143 121 116 148 150 133 131 134 129 101 82 90 109 101 85 99 97 100 124 136 122 130 112 96 97 97 112 114 116 113 117 129 126 131 108 118 122 130 84 92 89 62 73 83 80 112 111 118 124 132 144 119 88 33 11 6 3 35 95 110 110 112 108 15 13 13 15 16 15 13 12 10 10 14 19 23 90 111 98 95 91 76 77 80 79 83 73 57 79 103 103 116 124 99 119 158 156 143 143 145 124 108 105 112 120 108 104 117 116 122 119 125 134 139 126 92 91 103 126 140 141 138 139 132 121 114 102 110 137 122 89 110 91 64 79 98 94 119 113 122 136 139 139 86 70 24 6 7 8 7 56 108 114 110 109 15 15 14 15 15 14 12 10 10 13 13 9 16 93 119 111 109 108 87 84 82 99 86 83 60 77 77 100 115 115 112 129 154 161 156 139 142 146 134 135 148 136 113 113 128 132 117 120 118 136 117 120 105 101 102 114 133 143 152 150 136 129 108 95 109 118 123 111 117 106 69 78 98 91 121 110 131 123 135 91 62 54 20 6 6 9 7 19 61 101 113 112 16 15 15 13 14 12 12 11 13 13 13 10 17 86 136 118 106 107 98 96 89 96 86 75 68 77 75 132 131 136 121 135 143 150 138 131 149 161 154 149 147 125 109 119 146 141 106 118 123 119 113 112 121 113 110 113 127 131 152 148 138 132 98 81 112 133 128 104 133 121 74 72 103 91 101 98 130 120 91 73 65 55 15 6 7 8 8 6 12 41 86 108 17 16 17 15 12 10 12 12 13 12 12 13 14 84 133 125 131 102 112 95 89 89 85 73 83 91 98 125 131 143 116 126 134 134 140 139 157 164 170 153 140 130 119 135 151 141 108 124 99 102 121 142 155 134 120 126 138 133 136 133 123 126 98 79 105 134 137 104 125 87 52 71 100 88 83 99 125 90 43 78 82 52 12 6 8 9 9 8 8 7 28 76 17 17 17 15 12 11 12 13 13 13 13 10 12 78 136 137 130 116 102 69 71 81 90 78 93 90 82 105 132 121 94 98 116 135 146 145 157 163 165 137 144 141 126 146 153 169 120 115 111 105 134 152 163 166 135 118 130 133 126 121 112 112 99 89 105 115 121 113 108 76 58 64 86 76 78 119 93 61 65 77 82 52 10 6 8 8 8 8 9 9 3 33 17 16 17 16 14 12 12 12 13 13 13 9 10 74 131 143 133 132 100 60 60 80 87 79 88 75 61 81 109 83 83 102 135 140 132 138 159 156 140 133 145 140 150 167 158 161 140 133 136 132 147 162 173 164 132 127 120 127 110 109 118 124 107 83 90 107 110 102 83 77 63 59 74 87 95 106 79 65 77 79 71 40 8 7 9 9 8 8 8 9 8 12 17 17 16 15 16 13 12 14 13 13 13 9 9 69 126 142 145 145 124 95 68 91 85 76 69 72 57 70 92 92 103 109 125 125 119 138 147 132 133 142 150 158 154 159 164 151 146 149 146 128 135 152 175 161 118 122 122 120 114 112 120 133 113 98 90 90 107 83 45 60 63 65 82 82 75 84 88 80 82 79 71 36 5 7 10 10 9 9 10 9 10 7 17 17 16 15 15 14 12 13 14 13 13 9 8 63 126 138 146 145 142 133 107 101 82 71 81 64 43 59 85 101 94 99 114 140 136 130 141 135 151 157 154 174 153 142 160 146 131 154 144 118 123 130 152 159 121 118 118 102 103 100 92 118 123 100 72 91 107 60 33 45 67 58 68 68 78 84 82 84 86 81 69 30 4 6 10 10 9 10 10 10 10 8 17 17 17 17 17 16 13 12 12 12 12 11 6 60 124 132 142 145 151 145 143 119 90 78 54 60 36 59 79 101 92 114 138 140 139 147 149 144 151 142 147 178 147 146 162 154 121 129 107 123 128 135 139 148 123 122 125 100 113 98 88 100 112 67 77 67 84 59 34 48 40 48 75 77 88 87 89 87 86 79 66 25 4 6 7 11 12 12 12 10 9 10 17 17 16 15 17 16 14 12 12 12 13 11 5 56 120 131 138 147 151 145 138 135 125 94 53 33 31 52 86 74 88 128 127 141 142 164 155 155 161 150 142 167 159 150 151 147 131 121 91 106 109 126 134 121 105 120 140 136 117 100 108 125 93 44 76 58 64 51 46 42 40 72 90 90 86 93 91 89 87 78 64 23 4 6 8 12 12 12 12 10 9 8 17 17 17 15 15 15 19 17 14 13 12 11 6 54 120 132 141 150 150 148 143 135 137 116 95 65 59 59 68 53 92 121 133 141 151 177 162 172 184 167 140 160 163 135 120 116 144 135 104 97 92 114 121 108 110 112 120 146 106 83 110 131 96 59 55 42 40 35 43 47 54 87 92 93 98 95 94 91 87 78 60 18 4 7 10 12 12 12 12 10 9 6 17 17 16 15 15 18 25 19 16 14 12 11 6 51 117 133 145 148 151 153 152 149 150 132 115 98 85 62 43 36 84 119 121 128 167 170 166 170 175 163 154 152 141 130 114 123 140 127 127 109 98 109 93 115 136 103 83 113 113 95 113 110 96 87 49 36 35 30 47 70 80 93 99 100 97 96 97 90 85 77 56 14 4 7 10 12 12 12 12 10 9 9 15 16 17 16 16 16 14 16 16 14 12 12 4 44 114 132 143 147 155 159 157 161 150 147 142 126 101 84 67 42 65 107 124 129 163 172 166 156 161 139 155 139 151 150 114 121 139 121 124 117 89 120 83 104 104 78 74 98 109 103 116 114 82 47 61 48 37 59 78 87 93 97 96 101 95 95 94 88 81 72 49 11 4 9 12 13 12 12 12 10 10 9 16 16 16 16 15 15 14 15 15 14 12 12 4 36 109 131 141 147 154 161 159 158 158 153 155 154 134 114 103 80 77 91 121 132 150 173 163 154 146 119 130 144 144 143 119 119 129 128 110 95 98 112 78 90 82 88 87 75 108 113 133 103 52 32 44 53 63 86 90 88 92 96 100 100 96 93 91 86 78 70 45 9 5 11 12 12 12 12 12 9 7 9 16 15 16 16 15 15 15 15 15 15 13 12 8 27 100 132 143 146 153 159 159 158 161 162 159 152 147 134 124 107 104 100 91 111 116 156 160 147 146 118 106 112 117 131 116 108 107 110 99 93 120 115 74 65 83 72 60 63 105 120 110 69 52 66 60 71 85 96 95 93 101 100 103 98 96 95 88 81 79 71 42 7 8 12 12 11 14 12 12 9 8 12 18 17 16 16 14 15 15 15 15 15 15 15 13 15 79 132 145 149 153 157 161 163 159 162 165 156 153 145 136 125 120 104 97 95 75 94 121 139 146 108 86 97 109 92 74 82 94 106 92 92 91 105 72 63 78 61 58 65 72 87 69 61 71 88 84 91 103 103 98 98 106 104 100 98 100 96 86 82 81 71 41 8 10 12 14 12 14 12 11 11 11 12 18 18 17 17 15 15 15 15 15 14 16 16 13 11 43 116 146 153 155 158 160 164 166 162 162 158 159 153 141 133 127 129 118 108 93 81 65 108 143 114 88 88 106 94 64 65 82 93 86 83 90 102 64 61 57 66 73 72 52 58 49 55 68 78 94 104 106 104 103 105 104 104 102 101 99 92 88 86 82 71 39 8 11 14 15 13 12 11 12 12 13 12 18 18 18 17 16 16 15 16 15 15 16 15 14 13 17 75 140 157 158 157 160 161 165 168 166 160 157 152 143 136 131 131 132 126 109 108 91 95 96 95 73 86 85 75 85 56 63 103 101 89 74 63 38 49 55 49 53 53 33 47 73 88 85 87 103 105 101 100 103 105 104 104 106 101 95 94 93 89 75 70 35 7 13 16 14 14 12 12 13 14 16 14 18 17 18 17 17 18 15 16 17 15 15 18 13 17 10 24 95 154 161 160 159 157 158 164 167 164 156 153 153 146 139 135 133 137 133 130 124 113 102 96 71 57 61 68 68 56 75 97 78 60 44 44 31 43 50 51 53 44 58 76 85 92 94 97 104 103 102 101 102 106 107 107 103 99 98 98 95 86 76 66 29 9 15 16 14 15 13 13 14 14 14 15 16 18 18 18 17 17 15 13 16 14 16 26 19 15 15 8 35 109 154 160 164 161 157 155 160 163 160 158 156 151 142 138 140 139 142 142 138 141 132 118 103 78 65 55 42 45 56 56 50 51 58 58 48 52 61 76 78 79 86 88 88 91 96 103 105 105 104 104 105 107 106 103 100 99 100 98 94 84 76 63 24 11 15 15 13 15 13 12 14 14 14 15
