P2
# Generated by OpenCV 4.2.0
92 111
255
49 41 40 37 37 36 30 32 40 45 39 21 37 39 47 58 39 51 23 32 61 87 29 84 104 70 57 34 28 35 45 19 6 5 11 27 33 23 27 36 52 49 38 71 86 87 75 58 58 62 58 55 49 35 72 92 68 54 43 45 46 52 55 53 54 55 58 57 67 80 89 93 93 101 114 113 109 105 105 98 88 58 32 17 23 21 59 63 56 35 19 47 48 35 40 39 37 35 29 41 37 27 23 39 40 38 60 36 26 24 30 44 78 61 72 95 66 55 33 27 38 28 9 3 13 20 26 28 25 34 32 39 47 57 69 71 52 51 66 70 67 56 37 43 42 41 64 82 71 65 61 68 63 70 70 76 79 87 87 96 100 110 112 115 115 121 122 121 117 118 114 110 106 85 48 33 19 16 40 65 57 52 24 29 37 38 42 37 34 33 35 39 29 29 38 39 32 60 46 33 38 50 53 65 80 72 91 75 61 19 31 33 17 4 7 17 18 23 30 50 58 60 49 63 56 33 20 45 71 83 83 59 47 54 58 64 56 51 78 87 88 83 83 73 80 93 93 112 123 125 126 124 126 132 137 141 139 140 138 138 134 126 125 121 119 106 71 35 23 15 21 57 51 42 39 22 22 45 43 33 26 38 41 36 23 35 42 10 31 52 33 48 56 56 42 66 65 91 87 55 28 33 31 7 3 11 17 27 36 55 62 64 50 51 67 75 41 27 31 37 48 53 64 79 68 60 57 57 47 62 82 86 91 87 101 95 104 107 109 141 144 144 146 151 153 154 155 159 157 153 151 143 144 138 136 125 121 113 90 42 28 25 16 36 62 42 42 21 38 45 47 33 24 41 46 37 29 35 23 20 51 41 41 57 51 32 50 46 75 91 53 35 38 32 8 6 12 40 33 37 66 64 57 49 61 71 59 25 28 33 44 48 56 56 59 65 78 64 68 56 54 63 84 93 101 109 112 120 130 137 131 146 150 153 157 163 163 162 165 167 167 162 162 156 151 143 143 138 132 128 102 57 33 28 19 20 42 51 43 22 41 62 46 27 38 47 39 31 29 25 22 44 43 45 48 58 41 27 45 46 78 68 37 34 23 6 11 23 34 34 36 61 56 51 55 64 53 44 32 43 60 67 74 73 77 78 88 94 109 107 85 77 78 96 112 119 130 134 129 142 155 166 161 160 161 162 166 168 170 169 173 169 167 169 166 163 160 151 143 142 137 132 117 71 32 22 23 15 22 39 42 26 64 58 31 43 53 50 28 19 27 30 46 56 42 41 47 40 27 26 32 64 76 46 38 25 10 8 25 41 36 37 42 48 42 42 44 43 37 53 71 74 77 78 84 93 98 100 105 117 118 127 123 106 121 132 140 147 150 154 152 163 164 177 176 174 172 173 174 176 177 179 178 175 174 176 170 166 162 156 152 146 140 139 127 86 43 24 9 16 19 34 33 33 71 56 38 51 41 31 12 15 29 19 27 46 30 34 41 22 12 18 30 84 51 41 28 13 12 21 36 39 37 39 40 42 35 40 41 53 72 79 66 81 82 95 107 110 114 110 116 118 116 124 136 140 143 150 164 169 164 174 168 175 179 183 180 181 176 176 176 179 178 182 180 178 179 179 176 170 165 160 158 150 141 142 137 103 56 35 13 1 14 20 33 29 47 41 39 41 30 14 9 12 34 28 35 32 24 33 19 10 9 20 67 71 48 31 17 15 17 27 28 30 31 36 42 43 43 44 48 64 69 75 83 90 98 104 106 113 114 122 125 126 132 139 143 149 159 166 170 170 178 173 178 178 180 178 181 181 176 177 175 177 177 180 177 177 177 180 180 176 171 166 164 156 145 146 142 114 71 33 28 11 5 12 32 29 53 39 39 18 16 9 16 27 30 37 29 20 24 17 9 9 14 41 78 55 39 18 17 12 16 20 29 27 29 27 30 30 36 47 55 62 74 84 89 98 102 111 120 127 128 138 141 141 147 155 158 163 167 171 171 178 180 183 184 184 184 182 184 180 178 178 178 178 179 179 178 179 178 179 181 179 174 169 164 160 146 143 140 118 77 41 29 25 11 5 25 28 61 31 24 11 11 17 14 27 39 27 30 25 15 8 13 11 34 53 71 45 33 27 14 15 15 25 23 24 14 21 29 32 40 54 59 71 83 92 97 106 121 130 138 145 149 162 170 165 172 182 175 174 175 180 182 187 182 184 186 186 183 187 183 182 178 178 181 180 180 177 181 183 180 180 183 180 177 174 168 166 152 145 141 123 83 43 36 25 20 4 10 37 35 26 21 13 15 18 22 37 20 18 28 19 11 9 21 24 42 56 39 43 33 18 19 18 19 28 19 17 25 27 34 40 57 58 68 73 89 103 113 119 133 146 150 163 167 176 174 177 181 178 179 182 183 185 183 188 192 192 193 186 183 185 185 183 184 177 176 178 182 184 180 181 179 181 186 180 175 172 168 161 158 144 139 133 95 46 34 26 21 13 3 28 19 27 28 21 23 19 26 31 13 27 33 15 13 15 23 30 46 44 20 47 32 9 12 17 20 16 11 20 33 36 43 46 55 62 77 89 108 124 137 140 146 156 165 166 173 178 178 181 183 186 189 189 187 185 187 190 191 195 189 184 183 184 184 182 184 179 175 176 181 181 180 184 183 182 184 180 177 174 167 162 160 147 139 132 101 56 30 29 25 15 5 8 28 35 23 16 19 18 19 18 15 26 18 15 15 22 15 39 52 29 29 46 31 12 15 17 19 10 14 25 35 45 52 55 66 75 89 107 124 138 145 148 151 161 170 165 180 185 184 185 189 191 194 196 193 193 196 196 194 195 192 191 189 188 189 187 193 186 182 183 186 186 184 185 184 184 184 181 176 174 168 163 161 150 140 134 106 60 41 22 29 18 10 2 22 24 13 11 10 16 15 16 12 13 16 13 15 23 24 41 40 25 36 36 22 18 18 13 12 18 27 36 43 53 67 78 83 92 105 121 130 141 151 160 156 165 164 181 183 188 188 191 195 195 195 197 196 191 191 195 197 193 185 186 190 190 191 193 187 180 178 178 179 181 184 182 181 184 183 179 174 170 168 162 160 153 139 139 112 60 42 34 19 32 16 21 30 31 22 15 19 12 10 14 18 19 12 12 14 14 22 23 35 20 37 32 23 25 15 16 24 27 36 48 57 74 88 95 100 102 110 123 133 148 161 176 174 175 167 186 185 189 194 193 191 196 197 196 197 195 195 196 192 183 184 187 190 188 188 189 185 182 177 178 183 183 182 176 176 179 177 172 169 168 164 161 157 152 137 136 114 81 49 44 24 23 29 33 32 20 19 18 15 7 9 9 6 17 14 19 23 19 16 12 26 19 34 39 31 20 21 24 31 38 48 58 66 85 98 106 108 110 119 138 151 165 178 182 183 172 177 181 185 186 189 191 191 196 198 198 196 191 194 194 189 182 185 189 192 188 184 186 182 178 176 178 182 184 179 173 175 176 169 168 167 165 160 161 155 149 138 137 118 82 50 50 46 16 33 43 30 13 24 22 8 10 7 5 9 20 17 17 27 20 6 14 19 18 33 44 30 29 28 35 44 51 53 65 78 89 100 115 128 137 139 148 156 171 179 180 176 168 178 184 185 186 186 192 192 195 193 195 192 193 192 193 189 182 183 183 187 186 184 178 175 173 179 180 181 183 176 175 176 175 176 172 166 165 159 159 158 151 143 138 127 99 45 43 47 45 25 40 20 19 25 13 6 13 8 5 15 24 18 20 27 18 5 11 14 16 28 25 22 31 30 36 45 53 57 67 80 99 122 141 152 162 155 153 155 162 169 172 175 168 173 177 177 179 183 182 190 191 198 194 195 195 191 190 192 191 187 186 181 180 182 182 176 177 172 176 182 176 175 176 173 173 172 169 163 159 156 158 159 151 145 142 127 106 47 45 50 47 35 31 15 27 24 10 8 8 5 6 20 21 15 20 25 12 11 13 15 19 24 24 24 32 35 43 52 58 66 78 97 125 144 154 156 164 156 153 156 159 168 178 169 179 182 183 185 182 183 192 195 196 192 195 195 190 190 191 190 189 188 189 186 179 184 184 182 177 175 181 178 177 174 172 170 172 174 172 167 162 156 156 156 151 146 143 131 113 57 38 38 46 45 30 24 24 15 8 8 4 9 12 12 14 11 13 15 13 17 11 16 23 23 25 24 32 37 47 57 67 82 97 116 132 144 154 162 164 158 154 159 163 174 175 166 175 174 172 176 180 184 184 189 194 194 196 195 193 190 187 187 188 186 187 184 180 183 182 179 179 176 173 174 174 172 170 173 176 179 174 173 169 166 166 164 157 150 146 128 112 53 32 30 35 32 46 16 15 12 5 5 8 10 11 9 10 7 14 11 16 16 9 17 19 24 33 29 30 34 45 64 79 97 111 128 139 142 150 159 162 163 162 164 166 166 158 173 173 179 179 175 181 186 187 189 187 195 196 198 196 193 189 186 186 187 189 185 186 188 187 182 180 181 172 172 183 189 187 185 183 176 166 167 170 168 172 171 161 153 142 127 117 58 23 15 23 21 33 15 16 11 3 6 9 9 6 12 15 15 11 14 21 9 13 19 19 29 34 34 31 39 55 77 91 108 119 131 143 148 152 152 165 170 169 170 173 168 165 179 180 176 180 184 187 185 190 191 194 186 190 191 190 193 192 190 190 190 186 179 187 190 192 194 191 187 185 185 190 187 181 180 182 177 172 172 172 171 175 173 163 153 139 126 123 67 14 8 11 14 24 25 11 9 7 7 10 10 14 21 18 16 14 24 22 10 18 19 22 32 30 29 40 50 59 77 96 114 127 134 139 146 151 154 155 160 165 166 165 166 174 175 178 181 178 178 181 181 182 185 183 183 189 190 188 194 192 191 185 188 188 184 188 189 192 194 193 187 184 183 186 186 180 183 180 181 174 177 178 178 180 176 164 153 137 127 125 78 11 10 13 11 13 18 11 8 5 5 10 17 14 30 20 22 33 25 18 21 23 23 28 29 32 40 49 54 65 82 100 119 134 136 135 142 149 157 162 161 157 160 166 175 179 185 184 182 183 185 186 183 187 184 184 184 190 194 193 193 191 191 190 192 193 188 186 190 194 193 195 195 189 181 183 189 180 177 182 179 181 184 183 180 182 180 170 156 142 130 130 88 22 14 19 11 16 7 10 8 6 7 13 23 22 30 22 32 35 30 26 18 21 19 25 34 41 47 55 66 78 91 107 126 138 138 138 142 146 152 162 164 165 167 168 171 174 183 184 183 180 181 185 183 189 189 192 191 193 195 194 193 196 190 191 190 189 191 190 191 195 191 194 194 192 188 189 190 180 179 182 185 181 184 184 181 183 183 173 161 150 141 135 96 30 23 14 14 18 13 16 9 10 11 15 21 35 27 30 41 36 30 30 22 28 30 34 40 46 52 59 74 88 102 119 131 135 135 138 145 149 155 161 167 165 166 168 169 173 179 182 186 185 182 190 186 188 192 194 189 192 192 194 194 198 190 187 190 191 190 189 192 196 197 194 193 199 193 193 188 180 179 181 177 180 186 186 186 185 185 178 170 157 151 147 109 40 37 26 17 23 13 13 7 11 7 15 16 31 26 36 37 28 26 30 35 40 46 50 48 54 61 63 83 105 121 128 131 136 138 141 148 146 148 160 167 165 167 168 169 172 177 182 189 184 186 189 192 191 189 195 193 196 193 195 194 192 192 189 188 192 189 189 194 199 193 194 198 197 194 190 184 180 173 179 182 185 181 184 189 184 183 181 175 166 155 154 124 46 24 35 19 21 18 14 11 9 8 14 18 18 26 36 20 24 32 41 50 55 53 49 47 54 67 75 98 120 134 137 134 135 132 137 147 151 156 162 164 170 172 169 175 173 180 186 194 193 185 188 194 191 183 189 193 196 198 193 195 195 195 191 188 190 193 193 194 197 186 191 194 189 195 186 178 176 181 182 183 182 182 181 183 179 179 181 174 166 156 152 145 82 38 22 30 21 14 8 16 10 17 13 21 15 34 30 29 39 44 46 45 45 50 52 53 65 89 103 113 122 136 144 139 136 134 141 148 151 157 160 167 170 173 174 176 179 180 182 192 195 188 189 186 184 182 187 190 190 193 190 193 197 193 193 196 195 192 188 188 191 191 185 188 189 189 181 178 182 176 177 182 184 179 181 178 176 179 175 168 161 150 141 143 110 58 31 37 41 8 12 16 11 18 14 16 20 36 29 30 44 45 35 37 44 52 60 79 100 117 131 130 131 138 138 142 141 144 144 145 150 158 162 169 168 173 176 182 177 182 184 192 198 196 192 191 190 194 196 190 190 191 188 185 189 190 194 190 192 186 184 187 188 188 182 184 187 184 179 173 173 173 170 175 175 174 176 166 165 166 157 143 143 134 127 122 110 80 57 39 47 12 12 16 17 13 11 14 30 31 29 43 45 38 34 39 45 68 95 115 129 130 134 135 134 133 133 137 141 147 143 142 153 163 163 168 169 174 175 183 191 188 193 198 195 196 193 193 195 196 194 194 193 193 191 189 182 183 188 187 188 181 179 186 187 184 179 175 181 173 166 162 167 166 164 163 150 146 140 124 129 125 125 124 111 101 101 104 102 79 73 48 46 9 17 22 20 11 14 21 38 27 37 40 37 35 36 56 70 93 118 127 135 132 130 135 136 132 133 136 135 138 142 143 152 169 169 166 174 175 176 179 184 186 185 192 194 193 191 189 192 194 194 194 192 187 175 176 176 183 181 178 177 171 171 179 183 181 174 168 169 162 156 150 151 152 142 135 107 98 95 98 101 100 97 100 92 89 84 84 85 84 74 50 44 7 22 21 18 13 17 23 31 25 43 41 36 38 54 69 86 110 128 134 137 135 130 132 138 136 132 133 136 140 139 148 157 165 168 171 176 176 172 165 159 164 171 171 173 173 172 171 176 178 179 180 180 172 174 169 163 170 170 169 169 165 166 172 180 174 165 161 158 155 150 141 134 132 110 89 68 70 67 79 77 72 71 73 70 66 69 64 80 99 75 53 41 9 27 22 20 14 17 25 25 33 47 40 33 48 58 75 98 115 124 136 137 137 137 133 140 140 130 132 136 138 142 152 159 164 175 167 155 151 152 150 146 144 142 139 141 137 135 128 125 131 141 144 147 153 156 145 157 161 158 161 163 158 164 168 174 169 161 151 150 145 140 125 115 101 82 71 61 56 51 54 53 53 60 71 70 67 67 69 89 104 90 52 33 14 29 26 26 13 15 27 33 42 49 30 47 57 62 87 99 113 123 134 137 135 137 138 140 138 132 130 130 138 134 150 164 157 147 140 144 139 140 132 125 114 112 115 107 97 86 82 77 81 89 91 98 113 119 119 134 142 145 153 160 151 164 165 169 159 155 143 146 140 135 120 101 80 71 60 51 47 52 58 59 74 78 92 95 95 91 87 104 127 104 51 23 21 24 27 30 15 20 29 36 41 52 43 64 52 68 75 106 123 131 136 140 140 140 137 137 137 134 129 127 126 136 132 137 132 126 123 119 107 103 100 107 104 98 92 83 76 69 62 54 52 56 63 76 84 94 102 113 122 125 128 135 147 159 166 168 161 151 140 131 128 121 99 82 69 59 54 56 58 64 68 81 89 91 95 104 112 112 112 117 122 106 75 35 27 24 29 33 21 22 32 35 50 50 68 55 59 69 92 124 134 136 138 137 136 139 140 139 137 135 133 130 132 130 120 115 112 107 108 103 101 102 99 98 93 83 78 73 66 61 61 55 56 53 61 69 76 87 91 96 107 119 118 129 139 151 163 168 161 151 134 120 109 92 74 59 56 51 43 38 33 30 23 20 30 35 41 47 70 107 127 126 130 113 94 53 36 22 30 29 24 18 34 44 58 57 76 68 87 87 115 135 136 137 137 139 135 139 143 142 138 136 134 132 128 113 116 111 98 99 99 101 108 112 122 119 118 117 107 107 122 120 101 93 81 69 63 61 61 68 79 90 100 111 118 123 127 144 165 177 173 149 125 109 85 62 54 51 41 43 47 22 77 51 27 16 37 45 20 31 31 75 120 122 128 129 121 102 38 28 31 31 24 24 36 54 56 60 62 72 59 88 135 141 136 136 139 136 135 139 143 143 139 138 137 126 116 110 105 102 101 104 114 120 127 133 138 146 145 148 155 161 145 132 112 95 75 68 69 68 63 59 62 68 76 87 98 108 126 150 169 176 175 155 137 110 72 59 61 55 59 72 75 41 37 27 44 26 78 88 80 71 57 66 96 120 135 133 143 153 50 33 34 32 27 33 35 51 54 51 47 58 74 123 146 134 131 145 143 138 138 139 141 143 142 141 138 136 124 111 107 104 109 123 132 142 150 152 151 147 140 124 103 82 56 42 39 33 45 46 46 60 70 71 69 67 70 74 80 102 132 154 168 181 178 169 148 112 75 70 78 67 71 104 119 86 84 79 78 92 125 134 113 92 76 86 104 125 138 135 159 187 58 45 35 20 34 29 24 43 48 44 51 70 102 141 109 136 148 153 149 143 141 140 140 142 146 145 143 147 134 131 124 126 129 140 150 150 144 130 95 48 27 19 43 82 22 24 59 66 63 78 68 64 71 79 81 85 92 91 90 105 135 161 175 187 186 177 160 120 86 107 98 76 106 128 154 149 149 146 126 125 129 135 124 104 108 117 122 128 144 135 158 193 104 72 41 19 39 26 26 33 45 41 46 81 116 130 132 136 141 150 153 146 143 147 137 143 132 140 146 142 143 144 139 137 131 135 126 83 46 17 32 58 38 21 38 24 42 42 110 136 81 73 98 90 90 86 96 100 114 122 124 121 140 163 181 194 195 189 178 142 105 133 94 120 146 157 138 139 143 142 138 140 140 135 113 100 117 128 132 135 141 143 154 182 111 80 50 28 37 28 29 25 44 46 64 87 115 132 136 134 146 149 151 147 145 146 142 147 141 141 149 152 145 140 139 136 128 103 69 55 65 85 96 116 103 65 71 59 64 71 145 148 118 89 108 91 117 135 135 139 140 141 138 137 142 160 185 201 201 193 183 165 130 144 134 146 148 123 117 129 143 145 136 133 124 109 93 105 129 139 139 140 144 144 148 169 124 102 72 49 41 36 32 38 52 58 80 86 121 132 125 139 152 150 142 146 147 148 138 146 150 153 148 144 153 154 137 123 108 91 81 105 126 138 147 156 147 145 134 125 121 140 159 144 143 131 136 126 135 168 180 178 166 149 140 140 151 171 188 200 203 197 189 177 149 142 138 143 133 116 93 97 95 95 91 89 86 85 94 126 138 140 140 143 151 141 134 143 140 131 102 80 58 42 30 59 59 72 91 109 126 129 144 148 141 145 143 147 149 148 143 153 150 159 168 164 149 141 136 121 103 103 123 136 140 144 151 150 158 153 135 134 127 135 133 140 127 129 141 168 174 180 181 182 171 156 142 138 150 168 186 205 207 200 195 182 173 137 128 131 136 122 112 99 91 83 78 78 83 103 122 138 150 151 139 140 153 148 129 106 141 125 77 71 85 65 51 72 77 88 97 135 127 141 144 140 149 152 154 152 150 147 152 155 158 157 164 163 165 163 154 148 144 151 150 147 142 145 144 143 152 155 157 155 153 143 136 121 112 114 141 152 151 163 174 184 168 155 151 148 152 174 194 203 201 203 199 194 181 161 150 136 133 129 128 133 135 132 130 134 144 154 160 161 158 153 148 140 148 145 131 81 120 89 49 53 98 87 72 72 86 101 118 137 142 147 136 151 149 147 145 149 150 153 155 155 161 165 167 166 167 168 170 170 163 162 154 159 149 130 128 126 122 123 121 122 118 111 99 99 109 126 138 142 145 166 175 182 164 155 154 150 149 174 196 197 202 200 199 196 188 176 154 170 157 147 142 150 151 154 152 157 167 169 172 172 164 158 151 149 154 147 140 81 118 91 72 63 104 102 88 89 105 116 118 139 145 138 129 151 142 147 142 150 158 157 156 157 164 171 173 170 161 161 171 178 169 174 172 156 140 146 132 118 103 99 91 87 92 105 114 133 146 146 148 154 171 179 182 180 172 166 156 148 157 178 197 198 204 201 197 199 192 182 151 164 170 170 160 166 165 166 168 162 171 173 173 175 171 161 156 158 156 152 145 93 137 119 102 103 112 120 127 111 115 128 132 136 135 142 140 136 142 145 150 150 152 153 154 158 164 170 173 170 164 170 176 182 180 178 164 170 186 177 158 142 145 141 140 149 156 157 161 161 159 161 170 181 192 188 186 175 168 165 159 150 156 174 193 203 204 200 193 191 186 173 144 161 171 171 168 166 168 166 168 169 172 170 175 177 175 170 164 159 162 151 145 106 145 134 119 132 125 126 151 133 126 131 132 133 140 140 136 133 139 141 149 148 147 150 155 161 166 171 174 174 171 173 176 177 174 175 183 186 175 171 172 176 172 175 176 178 180 178 175 176 176 178 187 196 194 191 183 170 162 161 156 154 158 169 186 201 204 204 198 195 190 171 135 148 158 162 169 169 170 172 170 175 176 176 180 179 174 169 169 162 160 158 142 108 145 139 134 140 131 120 154 156 138 136 143 144 136 142 124 129 130 142 143 144 147 150 155 163 167 170 171 174 173 174 169 169 179 181 181 174 181 183 182 185 187 186 189 188 182 179 181 184 187 196 200 202 195 185 171 166 159 158 156 160 164 165 175 190 196 202 200 196 190 169 139 142 156 165 169 160 161 180 180 183 185 185 183 177 170 168 164 158 161 157 143 112 157 145 142 146 131 132 166 171 155 151 141 126 143 141 124 107 126 139 145 143 145 148 154 160 164 166 169 174 173 172 169 169 178 172 170 184 181 185 184 191 191 194 189 187 187 182 182 183 193 196 200 192 188 185 168 161 155 155 157 161 162 166 172 188 200 203 203 196 190 174 150 142 154 166 170 151 161 184 185 190 191 188 188 177 168 165 160 159 158 154 144 117 171 164 163 153 133 138 170 173 154 154 134 108 134 135 108 109 119 131 139 138 139 146 152 159 165 169 169 171 169 169 176 175 169 164 180 184 186 184 190 195 195 199 194 189 186 188 193 191 192 201 196 186 179 179 168 157 159 162 157 158 157 163 168 182 192 197 199 195 184 179 153 148 150 166 175 175 177 182 185 191 192 187 190 180 172 164 167 164 156 153 142 118 177 175 176 155 142 142 169 174 162 159 132 105 136 136 107 104 111 132 140 137 140 146 150 158 166 169 167 170 168 168 171 173 176 174 183 185 186 191 196 194 193 191 192 190 191 198 198 197 198 196 192 182 174 173 171 166 163 165 162 159 166 162 163 175 189 189 197 196 183 180 157 150 151 162 174 177 185 186 192 193 193 186 188 183 178 172 170 165 160 146 141 116 165 176 173 154 143 128 156 176 166 159 142 110 124 122 125 110 109 126 141 139 139 143 147 156 167 168 166 172 167 166 167 175 187 185 186 190 190 194 197 188 189 192 200 201 198 200 201 199 198 194 187 183 181 179 171 171 167 169 166 165 166 164 163 179 183 192 197 195 184 176 164 153 154 161 171 175 184 191 197 195 193 192 188 186 182 176 171 165 159 143 134 105 141 160 171 169 149 131 144 181 170 159 142 112 111 130 120 116 108 111 139 130 139 144 149 155 162 163 162 166 170 176 177 179 188 189 183 188 192 194 193 198 195 198 202 204 200 200 198 193 193 193 185 186 184 183 173 166 160 168 166 163 167 167 172 177 182 190 195 198 189 180 172 155 155 157 167 175 179 186 195 192 192 195 187 183 181 178 175 168 161 140 127 94 153 157 166 168 151 140 141 176 171 157 142 102 109 125 125 125 103 115 133 129 131 138 143 152 159 161 165 170 169 177 178 178 188 180 182 188 189 192 193 201 200 202 198 201 205 204 196 194 192 194 189 188 181 167 147 149 150 154 159 165 168 164 172 179 184 190 199 205 193 181 169 153 153 149 157 171 176 183 190 190 190 190 187 185 182 179 174 166 156 139 119 81 175 169 165 166 148 128 140 166 167 152 145 104 94 109 113 127 111 107 121 118 124 137 142 153 157 159 169 172 170 178 179 177 183 181 185 185 189 194 197 200 200 203 200 201 204 204 198 201 200 198 192 182 169 157 148 149 148 154 157 164 166 172 174 180 179 189 201 205 194 188 168 152 149 144 148 160 171 182 186 190 190 186 188 181 180 177 173 166 158 134 112 62 183 168 161 178 165 122 114 158 161 145 136 112 96 101 109 115 105 95 121 109 116 126 135 147 154 159 171 171 162 171 184 184 179 185 189 189 192 195 202 205 204 202 202 202 202 203 203 202 201 194 187 180 178 172 155 151 149 155 151 159 174 177 173 175 174 188 202 206 193 183 165 152 142 141 146 152 163 174 182 184 186 188 187 183 178 173 168 160 155 132 103 51 167 171 169 181 179 174 159 163 148 137 131 119 100 99 105 93 97 108 112 112 114 121 129 141 148 154 167 171 167 172 180 183 179 187 188 190 197 196 197 197 207 207 207 202 205 206 203 195 191 182 176 175 171 156 158 157 152 156 153 151 166 174 169 172 173 186 188 194 199 189 168 149 138 144 153 152 156 164 175 175 179 185 180 179 174 168 164 159 156 131 98 59 166 175 175 180 177 177 167 154 143 132 128 115 101 83 114 91 99 117 111 112 113 118 126 135 144 154 162 167 169 173 173 181 181 182 189 188 192 193 196 199 205 206 205 201 202 198 191 187 180 171 171 169 166 140 157 159 162 158 158 160 163 162 162 166 170 177 182 188 197 194 179 154 144 156 162 149 154 156 164 167 170 176 173 173 168 162 158 152 147 129 101 64 173 183 184 185 174 168 160 152 139 130 124 118 102 87 88 116 114 113 102 112 113 106 119 129 135 149 161 161 161 171 172 175 178 182 182 186 187 190 195 199 199 200 202 196 195 189 183 173 163 162 167 159 142 134 148 155 157 162 162 166 170 173 166 163 158 164 178 181 191 193 189 161 152 157 162 147 151 155 152 162 167 172 169 159 160 155 148 140 140 126 98 59 174 184 183 182 178 174 166 160 151 129 124 128 115 92 76 100 111 111 113 128 121 114 118 119 130 147 155 154 154 165 167 169 170 173 178 180 186 187 189 195 197 197 194 194 189 180 173 162 155 163 163 151 129 117 136 153 154 156 159 171 181 176 167 165 158 167 183 198 205 193 189 162 150 152 152 137 148 155 151 157 165 166 167 159 159 145 136 127 126 123 109 63 157 172 175 173 176 171 166 164 154 125 117 120 115 98 95 99 112 101 101 123 114 115 115 122 129 141 146 145 152 157 162 170 168 171 174 173 180 187 186 185 185 186 181 177 174 168 160 150 150 164 175 170 143 106 127 134 133 144 150 160 176 175 169 163 156 166 188 202 190 182 184 163 156 149 134 116 152 160 156 150 156 155 159 159 155 139 134 121 109 120 95 66 127 149 162 163 166 164 160 153 134 96 96 123 125 110 102 88 104 95 102 115 113 119 116 123 128 135 146 142 144 154 160 166 168 176 177 173 179 181 178 182 172 172 175 175 169 167 150 145 160 177 183 181 169 122 103 113 118 119 128 139 155 157 153 150 154 166 174 174 162 160 162 160 153 134 84 119 154 160 159 151 150 150 156 156 151 139 128 108 98 116 85 59 51 96 129 133 136 141 136 113 70 25 54 114 124 110 99 98 107 107 99 119 113 116 124 132 135 135 148 147 148 153 154 159 165 168 167 168 172 172 170 169 169 171 167 166 161 153 138 146 169 180 185 183 175 165 118 87 86 76 75 82 103 129 135 129 125 138 148 150 136 134 135 147 145 90 88 149 155 161 157 151 137 140 146 148 142 133 119 99 100 117 115 63 36 38 49 60 63 62 52 34 19 28 34 89 113 112 95 102 114 115 113 122 115 125 124 142 137 147 147 143 140 145 148 152 152 163 166 163 159 158 163 167 168 164 164 164 156 136 141 167 177 177 172 173 172 174 159 121 70 44 31 20 18 51 77 91 93 97 104 112 108 98 93 97 86 70 116 130 146 157 159 154 140 123 131 133 131 130 113 100 113 121 103 69 36 36 36 32 20 15 16 18 20 33 39 68 106 109 104 108 117 123 132 120 121 118 126 133 138 145 149 145 135 140 147 152 149 160 160 157 159 154 159 159 158 153 148 152 140 141 160 171 174 177 166 167 169 169 161 143 110 102 98 75 63 43 34 36 56 73 73 68 67 62 59 59 61 79 101 106 135 157 148 148 141 138 134 126 130 130 112 108 124 120 97 69 36 35 37 31 22 20 23 18 18 35 47 64 89 102 112 115 115 111 138 115 126 124 124 137 144 147 148 148 136 141 141 146 149 154 153 154 154 155 155 154 152 144 143 139 139 155 156 160 164 168 172 172 170 161 154 139 118 126 103 92 72 69 64 41 10 28 40 37 36 37 42 57 64 77 106 118 138 147 148 132 113 113 134 113 118 134 114 113 134 124 109 59 36 35 37 35 30 26 25 21 22 33 52 69 81 101 110 123 127 108 127 126 130 128 130 135 145 142 151 149 137 141 137 136 141 145 147 150 152 149 148 152 149 161 153 138 139 140 131 143 154 164 157 166 158 146 136 128 115 133 96 107 97 89 101 75 44 25 15 16 32 58 56 64 88 82 73 116 127 137 126 107 98 96 132 125 126 134 117 126 131 127 110 52 35 35 35 33 36 35 32 28 24 31 58 80 88 96 113 122 120 111 121 134 132 133 134 134 146 149 151 147 139 137 135 137 140 140 141 145 149 140 148 151 158 158 141 117 128 109 122 130 137 146 147 144 132 118 120 127 135 132 110 121 107 111 122 90 62 52 41 43 52 73 103 61 75 90 70 99 113 130 116 93 89 84 112 116 113 132 118 123 132 107 98 52 35 34 32 35 35 34 33 34 29 27 60 87 94 98 101 108 107 110 135 129 128 123 139 135 142 148 154 153 144 135 126 134 139 131 133 139 139 144 155 160 158 146 128 121 108 104 116 135 129 121 113 125 119 112 104 110 130 141 125 123 106 122 115 86 77 67 55 64 66 63 86 61 69 87 76 88 105 114 105 96 89 80 77 95 101 117 121 119 114 97 89 55 35 35 35 34 36 34 34 34 29 25 59 86 89 94 91 126 122 139 126 118 125 128 137 134 133 149 141 158 144 132 132 132 134 134 136 140 141 153 157 166 153 133 130 120 126 108 106 149 116 112 105 111 114 134 102 104 135 127 117 105 85 115 105 85 78 95 71 62 76 58 84 72 74 102 91 92 97 105 98 71 73 87 89 97 103 120 111 127 111 85 95 64 34 34 34 34 33 34 34 34 27 30 49 82 90 91 115 127 120 126 120 108 120 129 127 136 135 134 140 157 143 138 129 124 134 134 133 136 141 151 158 152 134 126 133 101 118 114 88 129 126 105 133 134 136 137 107 109 120 111 102 89 121 89 105 74 83 107 94 98 83 74 82 98 83 89 92 87 80 81 87 62 69 75 85 93 98 119 105 121 110 84 90 54 35 34 33 33 34 34 34 34 30 32 42 83 90 92 116 119 120 131 133 117 122 126 128 133 133 120 143 157 138 136 128 126 137 139 134 139 145 148 154 144 123 125 108 105 106 103 89 108 103 97 120 107 118 116 102 104 95 105 109 93 91 100 113 99 84 88 117 117 108 106 95 101 82 80 94 99 79 70 72 53 63 69 74 64 94 107 109 120 111 90 78 41 34 33 33 33 34 34 34 34 33 33 37 79 88 93 105 112 117 141 133 118 118 126 132 128 141 125 129 135 147 129 131 137 140 130 135 143 142 145 148 139 101 123 108 102 92 92 91 73 77 89 91 106 111 125 112 105 117 124 130 119 88 142 125 119 100 100 113 103 102 125 117 104 91 85 96 92 74 63 47 51 36 52 62 89 104 111 106 108 109 96 92 42 33 32 33 33 33 33 34 34 32 34 35 65 86 92 104 107 120 134 143 126 110 117 138 125 133 135 122 134 151 133 129 130 129 123 130 137 133 136 134 121 127 132 100 86 78 69 66 56 72 71 79 101 101 122 136 119 101 116 117 114 96 109 111 101 112 116 123 117 95 108 100 90 92 91 86 69 63 58 59 42 58 72 94 117 124 86 121 103 91 101 88 41 33 33 33 33 33 33 34 35 33 37 38 57 88 93 97 113 121 127 146 130 118 122 139 127 122 115 124 131 143 143 137 124 124 118 129 134 126 126 130 130 132 112 89 72 59 60 52 42 44 53 65 68 74 85 79 76 71 68 70 69 75 76 68 64 71 70 82 75 60 60 57 53 51 50 48 39 45 70 90 80 77 85 109 137 113 83 114 84 86 111 82 43 33 31 32 32 32 33 33 33 34 34 37 49 82 93 104 116 123 125 145 135 122 116 128 124 118 116 134 129 136 138 132 115 120 121 134 122 121 119 124 126 125 102 104 103 86 101 93 90 59 21 35 46 45 66 73 69 50 67 74 77 82 95 103 101 95 79 86 93 90 75 69 49 19 25 29 45 75 103 118 105 89 84 94 128 96 110 100 85 103 122 81 41 32 33 32 32 32 32 33 33 32 32 35 45 77 94 102 107 118 124 141 132 112 110 115 109 120 125 137 132 135 128 131 122 122 138 124 123 124 119 115 120 124 109 121 124 104 113 117 136 130 111 73 54 19 72 111 68 22 47 108 130 101 154 163 158 141 127 132 139 135 97 91 35 35 67 73 89 111 123 126 117 116 91 96 115 96 107 92 111 132 120 60 38 32 32 32 32 32 32 32 31 32 32 35 40 68 92 96 104 115 119 123 110 110 118 117 116 125 136 139 135 137 116 144 141 132 135 120 123 130 122 117 136 141 120 123 121 100 121 141 144 152 154 141 120 105 92 106 93 90 78 104 116 103 142 155 155 132 118 125 133 114 103 93 89 111 117 120 130 131 130 129 129 126 103 109 103 84 113 105 104 149 111 50 37 32 32 31 31 32 32 32 31 34 34 34 35 57 86 93 97 112 113 124 106 116 117 117 112 106 137 133 135 145 117 147 143 133 131 127 127 117 123 127 127 154 136 120 120 96 109 131 144 148 149 144 149 144 137 135 140 151 142 144 141 131 124 128 122 126 121 111 117 119 126 133 137 142 148 140 148 133 119 119 126 119 111 103 93 89 114 114 98 142 100 53 37 32 32 31 31 31 31 32 32 29 31 33 33 50 82 100 100 115 120 127 105 106 116 118 108 103 131 133 129 127 115 133 138 133 128 130 132 120 131 133 128 144 134 123 106 112 140 146 146 145 147 151 149 142 141 158 164 169 166 168 162 168 166 158 154 143 141 138 139 142 150 157 161 161 155 156 152 122 115 126 133 120 114 97 89 94 116 105 107 115 65 49 40 32 32 32 31 31 31 31 32 29 29 33 32 46 76 91 105 118 112 119 104 109 104 105 107 109 108 123 129 120 114 120 118 125 124 131 122 124 133 131 115 136 129 117 106 104 118 138 149 146 149 144 143 142 143 148 157 163 174 167 170 171 173 173 173 166 160 157 157 158 155 160 160 155 149 127 108 102 115 128 133 124 119 87 69 115 116 113 123 124 50 39 38 32 31 31 31 31 32 31 31 30 30 31 32 39 70 92 99 95 101 103 90 104 97 111 98 94 100 123 125 115 114 120 111 130 129 136 128 115 124 112 103 120 131 105 106 119 135 138 140 147 150 148 144 142 148 139 150 161 156 155 163 164 165 163 159 149 153 150 146 141 139 140 138 136 127 106 93 99 114 123 134 124 118 92 79 106 116 122 120 104 51 39 38 31 31 31 31 31 31 31 31 30 30 33 31 33 67 97 97 95 98 95 83 99 102 109 94 98 97 130 128 129 116 121 104 138 138 139 128 84 110 118 112 123 120 112 100 130 124 123 135 148 148 156 152 137 139 130 135 144 139 138 138 156 149 146 128 123 122 124 123 110 116 125 100 107 102 91 86 97 115 131 139 115 125 98 108 109 130 129 126 60 41 40 38 32 31 31 31 31 31 30 30 32 32 32 29 30 58 95 96 90 85 92 81 90 118 103 88 83 108 120 132 133 114 122 112 137 138 132 121 112 92 100 104 108 108 124 101 118 131 133 140 143 153 157 150 146 133 126 125 127 123 104 103 88 107 109 97 98 95 121 87 115 113 114 112 91 88 92 90 123 128 121 111 113 98 117 112 128 125 137 109 54 37 38 38 32 31 30 30 30 30 30 30 33 28 30 29 32 50 94 100 90 83 73 72 80 115 92 91 86 97 107 129 114 125 113 114 136 126 127 97 96 83 99 88 91 83 96 107 133 142 146 135 139 143 149 146 142 128 133 122 105 83 97 91 84 81 80 76 86 105 97 106 122 107 108 89 70 82 85 107 119 132 125 110 121 86 98 113 117 118 125 76 41 40 37 35 31 31 31 31 30 30 30 30 28 28 29 27 31 43 83 99 98 90 79 77 78 99 87 94 89 97 93 115 105 106 99 116 118 118 122 107 92 91 102 80 78 69 105 111 105 121 122 125 138 135 137 140 144 125 125 122 99 104 98 89 90 78 78 76 86 106 107 102 119 104 100 101 101 109 97 111 120 132 124 110 139 124 86 112 116 118 103 50 27 34 36 38 31 31 32 31 30 30 31 31 29 30 30 27 29 36 76 102 105 98 100 82 61 72 107 93 102 86 89 97 87 91 99 108 116 117 127 108 105 109 96 105 82 88 102 105 99 122 119 133 134 116 119 144 141 133 127 131 119 117 96 91 94 103 94 94 92 111 117 124 130 107 100 96 101 110 132 128 133 129 128 117 148 153 92 114 128 108 72 28 24 24 30 36 31 31 31 30 30 30 31 32 33 30 28 27 29 28 65 101 108 104 101 90 61 50 97 90 89 87 94 94 82 89 106 98 127 94 108 117 112 116 105 118 112 109 100 105 115 109 112 125 122 140 147 150 149 154 143 141 134 132 124 127 131 114 109 111 87 110 115 120 107 109 115 93 113 113 125 141 142 130 115 129 145 117 90 106 112 136 56 33 23 21 22 27 30 30 30 30 30 30 30 30 30 29 29 29 28 28 49 96 107 108 103 101 87 71 77 91 63 83 96 88 83 95 103 104 113 70 106 129 100 114 116 119 116 115 121 132 109 121 128 131 132 136 150 155 162 155 154 155 155 156 154 149 135 131 124 115 112 115 105 95 113 118 117 114 116 130 141 151 148 129 113 121 144 119 87 103 88 67 49 33 24 25 25 26 30 30 31 31 30 30 31 30 28 29 29 29 28 28 38 88 106 111 109 108 99 82 74 67 62 78 85 83 94 96 92 102 81 96 117 111 118 108 116 100 94 140 123 122 130 141 164 163 154 149 167 147 153 159 152 164 170 162 165 167 152 161 151 143 150 145 112 134 118 119 145 150 131 142 150 148 138 128 101 126 123 87 82 96 95 10 46 31 25 26 27 28 30 29 30 30 29 29 30 30 30 29 29 29 28 27 28 78 104 110 108 105 98 91 84 57 54 56 57 63 93 82 91 87 92 101 118 115 106 116 112 87 125 137 121 122 132 162 144 166 156 154 144 150 140 135 152 159 164 165 169 168 160 145 158 170 163 160 134 106 108 110 141 160 148 142 155 154 141 127 99 116 104 97 65 84 99 1 19 28 27 27 28 30 30 30 30 30 30 30 30 30 30 29 30 29 28 28 25 68 101 110 110 108 99 92 93 84 61 38 56 51 75 61 52 58 77 84 96 109 116 113 125 110 120 114 125 97 134 127 142 142 130 141 141 130 141 143 148 159 161 154 170 161 152 151 159 166 174 168 156 128 137 157 153 162 156 152 146 155 143 142 137 106 81 79 67 112 111 8 21 34 29 26 29 30 29 30 30 30 30 30 30 30 30 29 29 28 28 28 25 54 97 111 114 113 103 96 101 97 80 58 44 33 41 50 53 50 56 72 81 103 92 97 95 113 124 115 110 82 93 87 129 135 130 123 132 154 133 138 149 161 155 147 165 151 159 145 141 164 172 158 157 150 148 150 165 163 160 152 146 136 120 133 137 117 84 52 75 129 119 22 23 38 30 30 31 31 30 30 30 30 31 30 30 31 30 29 29 29 28 28 27 44 93 108 111 112 103 98 98 97 84 72 53 46 55 57 39 40 50 75 77 75 60 93 99 96 121 108 112 95 89 92 129 126 138 129 142 140 121 164 152 142 150 148 156 145 150 146 138 179 182 158 162 165 153 144 164 151 149 144 136 137 124 110 114 96 75 66 120 132 117 34 21 30 29 35 33 31 32 32 28 28 32 29 29 25 30 32 31 28 27 30 28 35 81 103 110 113 112 110 111 108 96 83 74 74 69 46 51 47 45 55 66 71 74 85 98 102 109 108 114 106 103 108 127 129 153 113 116 117 115 111 101 138 153 148 141 146 154 152 157 160 155 154 124 118 150 140 162 164 152 128 111 131 133 105 123 113 62 89 127 126 122 43 15 32 33 31 31 33 34 32 30 28 31 32 30 28 29 30 29 28 28 29 27 29 68 99 107 110 111 112 112 112 107 100 91 80 69 53 41 40 34 39 59 55 61 73 74 75 82 86 103 86 79 90 93 107 127 130 141 130 126 130 121 140 158 173 155 149 140 150 158 158 145 143 134 139 140 142 147 135 134 116 88 137 128 98 121 93 69 106 126 131 127 45 16 35 34 31 32 33 32 30 28 30 31 31 31 30 27 28 30 26 27 29 26 23 51 94 104 111 108 117 113 106 103 98 100 95 86 70 59 59 49 48 49 51 55 68 64 69 71 76 82 78 66 76 91 74 119 117 116 137 141 144 151 170 154 177 163 161 123 152 131 131 155 143 153 139 140 132 129 116 126 112 81 121 115 75 112 88 111 129 135 130 130 50 15 34 33 31 33 33 30 30 30 30 32 31 31 35 32 31 30 28 29 31 26 22 39 87 101 110 110 116 119 111 103 96 96 101 94 89 74 70 59 44 52 75 47 53 64 65 57 74 61 62 67 78 69 102 120 122 124 121 139 145 171 157 163 167 166 153 131 140 124 142 148 148 144 125 119 117 115 115 116 120 72 104 110 84 127 77 110 139 136 128 131 56 17 32 32 33 32 33 42 56 59 41 30 38 58 81 88 83 66 42 28 27 25 19 31 76 97 106 118 116 120 118 115 114 106 110 104 97 84 76 64 54 62 64 47 53 57 68 56 56 47 42 58 71 71 67 89 107 102 134 146 139 141 138 154 140 143 148 148 133 118 130 132 143 128 159 123 110 117 109 112 102 95 102 79 99 98 132 140 134 131 131 127 54 19 34 35 32 33 34 89 112 102 66 45 79 123 141 145 140 125 94 54 24 21 17 24 67 91 101 115 117 116 121 123 121 122 111 109 106 93 85 81 72 77 72 55 51 61 73 52 46 47 57 67 58 37 55 87 74 88 111 120 149 147 139 128 150 128 119 145 134 129 138 109 133 120 130 123 128 118 134 106 94 94 65 59 84 107 136 142 138 132 132 120 44 17 34 36 33 33 34 137 145 132 93 86 137 161 172 170 164 159 139 70 28 18 23 18 49 85 96 109 114 118 121 124 123 119 114 116 114 111 101 93 88 77 65 62 66 84 63 55 48 36 37 53 46 36 83 70 77 88 117 115 138 148 115 117 125 125 103 84 118 110 117 79 143 137 84 94 79 98 104 114 97 84 66 76 112 134 135 137 135 135 135 120 34 15 31 37 31 32 33 162 170 152 112 122 163 175 171 166 168 146 86 31 22 25 23 13 31 81 96 103 109 116 123 127 129 128 126 118 117 111 108 103 95 89 85 79 75 63 54 56 56 50 45 50 45 45 49 49 68 92 82 82 88 104 108 103 127 89 98 96 86 108 102 89 105 104 70 85 66 71 85 66 71 52 90 99 118 132 139 138 138 135 134 114 30 18 34 36 33 33 34 172 172 146 116 149 174 173 140 100 98 67 26 21 23 24 22 14 11 70 92 99 107 118 127 130 129 128 129 135 124 118 113 113 104 98 101 96 96 83 79 72 76 70 60 57 48 47 44 38 57 65 55 66 73 95 91 97 114 88 77 64 79 103 116 77 93 81 68 73 69 78 76 44 74 84 110 120 127 136 136 135 137 136 132 106 29 20 35 35 33 34 34 173 168 126 116 160 177 162 92 38 29 24 24 24 23 22 25 14 9 67 87 97 105 112 121 127 135 139 135 129 130 123 122 126 112 104 100 100 101 103 103 101 87 62 63 59 53 44 41 42 60 41 44 51 59 83 67 75 104 73 65 59 53 81 91 70 68 76 78 68 71 90 69 54 83 109 119 125 134 140 137 137 141 138 127 98 28 21 34 37 33 33 35 171 155 98 105 143 130 95 36 27 23 26 22 22 22 27 27 14 23 79 85 95 105 116 122 124 130 135 138 136 135 133 129 120 121 113 109 110 104 104 111 104 104 95 86 75 63 58 56 49 37 33 30 23 34 28 43 38 58 51 77 49 36 47 24 49 55 83 53 46 76 68 72 87 103 111 124 128 136 143 143 141 145 138 123 88 26 23 34 38 34 35 34 167 140 71 53 62 47 31 19 25 21 24 24 22 23 28 25 12 28 85 81 88 99 113 120 123 128 134 135 140 140 138 135 133 132 128 125 117 113 107 110 114 113 108 103 95 85 77 77 73 60 52 29 25 27 24 21 17 19 31 47 24 34 36 40 44 41 48 54 62 62 76 89 102 113 121 127 129 134 145 138 143 144 140 122 82 23 25 36 36 36 35 36 151 98 41 29 26 24 23 21 21 22 22 23 24 26 29 24 12 27 84 83 81 91 107 115 119 123 129 137 139 142 143 140 134 134 130 129 127 116 112 118 114 112 109 108 107 103 93 87 80 74 67 50 44 40 39 32 26 28 29 23 23 29 30 30 38 43 52 63 68 73 83 98 107 115 127 129 133 139 143 139 142 143 141 119 81 20 26 37 33 36 36 36
