P2
# Generated by OpenCV 4.2.0
92 112
255
90 86 73 56 29 18 26 43 34 35 27 19 48 59 15 22 18 23 35 73 15 22 64 51 45 56 108 97 58 63 43 28 24 28 32 28 21 31 30 16 9 7 9 11 12 19 27 38 45 37 40 61 74 115 107 32 15 43 22 135 38 72 23 70 57 76 21 18 39 32 26 39 45 48 43 62 59 72 91 88 69 47 41 37 43 60 66 85 127 143 147 158 87 80 68 45 21 11 40 33 30 33 24 37 38 26 22 20 19 32 42 25 23 37 60 47 51 79 66 52 39 28 25 28 26 14 10 11 8 7 1 2 4 5 9 10 10 7 3 7 17 25 31 63 54 145 94 39 44 16 20 83 38 38 39 58 35 38 39 31 30 30 34 39 47 46 50 77 57 74 70 68 53 46 39 43 48 55 75 92 139 142 153 152 88 76 55 27 7 26 43 21 25 28 40 28 17 22 24 12 36 20 10 14 26 55 63 64 89 64 27 27 17 31 32 16 2 1 0 0 8 6 11 14 24 31 32 22 9 2 0 3 2 0 47 28 77 137 82 60 54 26 20 32 25 31 29 27 32 27 30 29 28 31 29 44 53 60 62 73 71 90 71 65 72 58 41 49 54 62 77 92 137 145 127 154 81 66 36 16 11 40 29 25 28 27 33 30 29 30 23 36 31 18 14 24 48 69 66 71 55 26 17 21 26 13 0 0 1 1 1 0 9 22 35 43 50 49 47 37 31 31 23 22 8 13 34 21 97 132 41 33 50 25 32 25 32 32 37 35 37 38 36 37 39 40 44 56 55 71 73 78 80 96 111 117 93 77 59 44 50 67 72 89 126 158 147 145 74 54 25 9 21 38 22 29 28 34 35 26 25 17 17 37 24 37 42 39 51 80 76 50 24 18 29 12 2 1 1 0 1 0 1 1 16 20 26 46 59 47 74 79 63 51 78 89 88 78 60 54 116 135 37 46 36 41 40 39 43 47 47 50 50 45 59 58 51 53 63 61 72 92 94 90 98 117 120 119 114 108 79 56 43 51 84 105 119 143 171 143 68 42 22 13 36 21 29 40 32 41 30 20 13 16 35 22 37 38 29 30 59 77 41 26 21 21 3 1 1 0 5 3 7 10 19 24 29 36 57 54 59 69 54 30 69 80 61 60 52 77 90 107 142 139 57 62 54 51 53 50 50 57 66 70 68 65 68 73 68 77 94 76 96 109 104 104 126 136 148 150 157 142 103 57 39 38 77 115 125 132 165 143 59 35 21 29 36 21 33 32 51 32 18 19 19 37 30 34 41 22 23 25 60 42 17 27 13 1 0 2 13 6 2 8 25 22 21 20 46 54 50 25 13 26 49 79 59 68 102 101 100 83 48 60 123 117 79 55 63 65 62 60 73 82 94 84 83 77 75 87 100 116 110 109 124 124 121 133 157 169 173 169 160 155 129 81 41 18 46 87 129 125 149 153 51 34 27 40 25 31 33 34 36 10 10 25 29 46 28 34 23 22 26 43 55 24 25 9 0 0 2 6 7 5 15 34 24 17 29 46 41 33 12 24 35 36 49 45 97 86 46 57 95 92 124 100 119 108 74 59 78 90 97 98 102 112 109 106 111 110 111 122 127 128 133 147 149 154 164 183 188 184 179 175 171 167 148 114 62 20 25 60 101 131 139 147 42 34 29 40 38 40 38 31 17 6 16 19 29 21 27 21 6 3 22 58 31 24 7 1 0 4 12 20 2 8 14 16 17 35 36 15 7 16 28 50 62 58 54 51 54 81 106 82 65 53 56 80 111 110 94 89 90 103 110 118 132 134 136 154 150 150 150 156 163 172 182 169 172 170 175 186 193 200 196 193 192 188 169 140 96 38 23 40 89 138 128 136 45 44 41 43 44 34 19 10 5 11 20 26 23 18 15 5 2 10 50 36 26 8 1 1 5 9 17 10 8 11 12 18 23 23 14 14 35 51 73 66 45 41 47 68 62 63 67 89 81 66 52 62 97 93 94 97 112 113 122 131 143 158 175 190 191 191 184 190 193 194 196 194 192 192 197 206 207 207 207 205 199 187 180 166 119 75 34 28 77 134 140 127 44 28 31 38 36 21 10 13 8 11 24 29 20 13 7 1 1 28 47 33 12 6 2 3 5 5 9 13 22 26 25 25 26 26 42 35 43 45 35 29 44 54 67 76 74 74 66 70 80 79 63 91 110 102 110 119 135 130 140 150 166 171 185 203 203 208 208 211 211 213 214 213 212 212 213 213 214 213 210 207 206 201 197 177 141 77 49 36 64 111 155 136 20 11 28 28 27 28 25 7 7 20 28 18 15 8 2 0 17 53 28 22 24 4 7 3 12 20 18 16 13 15 12 13 19 22 32 30 30 26 34 50 60 66 75 78 81 73 81 78 95 115 106 117 139 141 150 153 157 148 167 185 193 198 212 216 216 218 213 214 215 218 219 219 217 217 218 217 218 221 219 213 212 200 203 193 163 106 49 39 47 79 139 148 13 16 27 34 22 30 28 22 17 23 15 33 9 0 1 6 21 29 29 28 17 5 5 5 7 6 7 8 11 11 11 11 12 18 35 35 34 40 56 66 77 81 87 88 87 98 107 107 119 132 141 144 163 162 174 175 181 178 187 192 201 213 215 221 220 221 223 218 218 220 223 223 222 223 226 225 222 219 219 217 216 211 207 200 181 136 78 51 37 54 127 150 17 16 35 27 17 17 4 13 16 12 26 10 6 1 2 15 23 14 38 26 7 3 4 7 5 0 3 7 10 6 4 12 23 24 33 37 49 62 72 76 82 92 102 103 112 114 122 127 136 155 165 177 179 182 186 186 192 195 192 206 212 217 220 218 221 221 220 216 219 221 224 226 225 224 225 227 226 223 220 224 221 209 210 205 196 154 107 62 44 37 97 134 18 14 28 20 24 12 4 7 7 6 7 11 8 6 12 20 37 17 39 26 2 3 1 3 1 1 7 13 10 9 14 23 29 35 37 47 69 77 83 88 94 103 109 113 124 128 138 149 166 170 179 186 184 188 190 198 201 197 195 198 206 213 219 219 225 220 221 221 221 221 225 226 227 225 227 227 228 226 221 216 220 213 216 210 199 168 118 70 44 39 62 120 29 22 21 15 22 12 7 3 0 1 4 8 4 8 7 32 23 21 42 18 1 0 1 0 2 0 3 10 16 20 26 31 32 38 48 59 73 85 89 94 106 112 117 123 134 143 156 167 176 177 188 188 186 195 196 194 201 204 199 198 207 212 217 216 218 220 220 224 221 221 224 225 228 228 229 228 226 224 223 223 220 215 216 214 202 182 127 73 36 37 40 101 30 33 25 11 14 8 9 1 1 0 5 2 1 8 3 24 10 21 24 12 12 1 1 3 3 6 9 15 24 30 37 37 44 49 58 71 83 93 100 103 114 120 128 139 147 159 167 174 181 182 188 185 185 195 198 194 206 205 200 197 201 206 211 210 216 222 226 222 218 221 221 228 227 230 229 228 227 224 225 227 223 219 221 218 206 190 155 92 39 27 32 82 20 23 28 12 12 13 4 0 1 0 6 1 6 17 0 5 16 16 38 18 4 3 8 6 7 9 10 20 32 39 47 54 54 54 68 81 96 106 110 109 117 131 139 151 158 167 174 181 185 183 187 187 189 191 194 196 203 200 201 195 198 207 209 215 216 221 221 217 220 223 222 226 226 229 229 228 228 228 228 228 224 219 221 218 207 192 171 131 66 26 19 47 10 13 16 12 19 20 2 0 1 1 5 2 13 2 1 7 9 21 43 12 9 2 4 3 8 7 21 33 42 53 62 63 59 63 80 96 102 118 117 109 124 140 149 158 165 172 178 186 189 189 190 193 195 200 200 206 211 208 203 194 193 208 210 208 213 220 221 221 224 225 225 227 227 229 230 229 229 229 230 229 223 219 221 218 209 190 166 130 94 44 27 15 9 13 11 14 19 10 1 0 0 5 6 9 15 4 4 1 8 18 15 9 14 5 7 8 10 20 29 39 51 61 71 71 72 72 87 103 111 117 119 120 133 139 149 157 166 171 177 179 184 190 187 191 187 201 201 203 206 212 206 208 201 204 208 210 212 212 211 213 217 217 221 223 226 226 229 229 229 232 231 229 225 221 223 218 212 191 167 129 99 73 27 11 25 18 15 12 9 0 0 0 2 8 4 10 2 1 4 7 13 9 11 4 1 4 12 18 23 32 36 43 54 69 73 84 84 73 87 98 113 128 121 130 133 138 147 153 162 171 171 177 180 186 189 197 192 198 199 198 200 206 204 204 206 206 207 213 223 220 222 226 225 222 222 224 225 223 230 231 230 229 228 226 226 221 219 216 210 192 167 133 100 72 46 15 24 8 3 9 7 0 0 0 1 1 2 5 3 2 2 7 11 8 11 4 2 6 14 29 33 40 43 50 59 73 79 85 88 83 89 98 114 121 123 129 133 141 148 154 155 167 167 175 179 182 186 193 191 193 195 191 198 209 203 201 205 205 207 211 215 212 213 216 220 224 224 220 222 227 229 230 229 228 226 226 226 221 217 214 208 196 171 120 97 76 67 30 10 1 7 16 5 0 0 0 0 0 2 4 3 1 3 6 8 8 13 7 5 11 14 26 33 40 45 54 64 76 83 91 95 91 95 98 112 112 127 130 127 134 139 146 153 159 168 175 179 180 183 189 191 196 189 192 194 204 198 195 202 206 206 207 207 213 214 218 220 219 218 219 217 220 224 227 228 225 218 225 225 219 214 211 206 194 181 129 74 80 56 56 11 7 3 6 1 2 1 0 1 0 5 3 4 8 10 5 5 7 6 9 8 11 13 26 35 44 48 59 65 75 86 98 101 98 103 109 116 128 135 136 136 140 145 152 157 165 169 174 176 181 183 189 192 194 195 191 193 194 191 195 197 195 194 204 207 209 209 214 213 212 213 214 216 212 211 216 219 220 220 222 222 216 214 212 207 199 172 144 90 61 68 62 7 3 1 2 1 0 0 2 4 1 7 3 10 9 7 3 8 14 9 10 10 13 19 29 41 47 53 65 67 75 86 98 106 108 109 110 110 124 130 130 133 134 135 147 149 158 169 168 171 182 183 187 193 194 200 194 198 202 189 189 190 192 200 202 207 206 207 214 215 215 214 212 212 212 211 214 216 215 212 216 218 214 214 214 209 204 181 138 122 63 53 60 6 7 6 5 6 0 1 4 6 7 5 9 17 12 8 7 9 14 10 12 18 19 22 29 38 46 54 65 69 76 85 96 105 111 113 115 116 127 135 134 138 140 144 148 154 156 159 168 173 180 182 186 191 191 192 192 194 197 188 190 192 189 196 202 207 206 205 208 212 214 213 215 215 215 212 211 212 214 216 215 216 213 213 213 208 194 175 151 123 97 40 53 14 10 2 8 8 0 0 7 5 8 7 25 16 7 10 11 9 16 12 13 17 21 27 32 36 50 59 68 72 79 87 95 99 101 105 110 121 127 135 141 138 142 152 152 155 161 164 168 175 179 184 192 195 191 191 189 191 196 192 193 191 193 194 199 205 208 202 205 208 208 211 214 213 212 213 210 211 212 213 215 215 215 213 212 210 211 178 145 130 119 66 45 20 12 7 10 3 1 3 4 4 2 16 20 6 5 13 15 18 28 19 20 22 25 30 33 39 53 64 70 72 82 91 100 104 107 110 118 127 127 136 139 139 142 149 149 153 160 170 168 174 179 181 192 197 198 195 191 198 199 195 198 195 193 188 199 203 206 211 209 207 210 214 217 219 218 218 215 211 208 210 215 216 217 215 212 209 204 182 160 140 123 107 57 21 16 18 5 2 1 5 1 3 2 18 3 6 14 23 27 26 32 21 23 23 27 35 44 50 59 68 69 75 82 89 100 106 109 112 121 127 136 142 143 145 150 157 159 162 162 160 164 171 180 189 199 200 199 193 192 196 187 189 200 202 201 203 209 214 209 211 216 214 217 219 219 218 218 220 222 220 217 220 216 217 219 215 210 208 207 186 160 129 128 128 104 20 16 8 1 0 1 6 3 1 15 13 9 18 24 24 23 20 23 20 20 27 31 40 53 58 61 66 71 82 87 91 102 109 112 112 115 127 137 142 149 142 143 153 160 169 175 176 179 182 186 193 197 205 211 206 205 204 200 192 201 198 199 197 203 212 216 219 216 214 215 217 219 217 215 216 218 222 221 221 219 219 218 215 209 208 202 172 134 119 112 113 123 13 11 1 1 0 4 2 1 6 20 11 12 23 14 9 12 12 12 15 25 38 43 47 59 68 62 65 71 84 87 94 104 111 113 113 117 126 133 146 149 150 150 158 160 167 174 176 173 177 184 191 201 206 212 210 209 206 206 196 201 199 204 205 210 213 216 209 212 219 220 222 220 218 218 221 222 226 227 225 221 219 217 212 209 208 202 170 112 91 83 87 95 9 8 0 2 1 6 1 2 13 18 13 21 14 5 5 5 8 16 30 42 50 57 55 62 74 70 70 77 86 90 98 109 113 116 119 123 123 135 141 147 147 152 160 162 164 171 180 178 178 180 198 200 207 211 211 204 211 205 204 199 201 204 208 208 213 212 207 213 211 218 219 223 220 222 222 223 226 229 229 223 223 217 210 205 205 200 176 93 39 45 42 52 3 5 1 1 3 4 1 4 13 12 23 17 10 4 7 13 21 33 45 54 60 64 62 65 74 74 76 82 84 92 102 110 116 120 126 130 132 140 147 155 152 149 158 166 163 166 173 178 186 181 196 196 197 203 207 207 214 205 208 202 199 204 205 202 213 215 214 214 217 220 223 228 224 224 224 225 228 231 230 224 222 218 211 207 206 204 181 93 30 30 36 39 3 5 3 2 6 4 1 6 15 21 24 16 10 15 13 18 29 41 53 60 62 66 65 65 69 76 79 83 85 105 109 112 122 128 136 144 140 147 150 162 165 159 151 151 157 156 169 177 184 186 195 204 205 200 196 211 213 217 209 207 205 197 203 199 214 220 219 215 217 222 218 217 218 223 227 226 230 233 232 225 223 220 215 211 209 201 187 105 33 35 38 35 4 3 4 5 8 4 2 8 17 21 23 7 11 13 13 19 31 50 65 62 63 68 72 69 72 74 77 86 93 113 123 121 126 131 134 146 152 159 160 164 170 166 164 168 170 169 175 174 175 177 187 196 200 196 201 205 213 215 205 206 207 190 198 204 209 216 213 215 216 213 212 217 221 227 226 226 230 233 232 229 228 223 221 217 212 201 191 114 53 50 49 47 11 2 2 8 9 7 2 12 18 26 25 8 17 12 16 26 38 52 67 67 70 72 75 72 70 78 84 89 103 119 122 123 130 139 141 150 158 158 163 169 176 169 163 171 175 175 179 181 188 181 182 186 193 198 198 200 210 210 209 208 207 196 189 195 207 212 205 204 216 218 213 219 222 224 226 224 229 232 231 235 230 226 226 224 217 206 192 129 61 79 60 48 17 6 6 13 8 5 2 11 22 34 28 25 17 14 19 31 45 59 68 75 78 78 80 78 70 78 87 98 112 122 124 126 127 133 136 139 143 151 157 158 161 165 164 165 174 176 179 177 177 183 179 179 185 190 191 194 208 199 205 203 202 205 178 189 196 201 202 207 213 215 219 217 216 221 224 224 227 230 232 234 231 231 229 226 221 209 190 150 77 68 86 64 10 13 16 18 9 5 5 14 32 40 30 28 27 25 24 43 58 66 75 76 79 80 80 78 71 77 83 95 113 121 116 109 109 115 120 118 124 139 138 143 141 144 153 155 167 168 176 170 170 173 170 174 181 183 184 189 195 193 198 199 204 207 176 181 191 198 198 194 203 208 202 212 217 220 222 219 221 227 226 229 223 221 222 223 225 220 201 172 119 87 84 84 6 22 23 22 16 10 8 19 34 37 36 33 35 31 45 64 68 72 82 79 82 82 82 81 77 79 86 87 93 94 96 91 89 93 102 98 103 101 110 112 116 125 122 136 142 149 157 158 159 164 155 166 173 179 175 183 185 184 184 192 199 204 182 170 179 187 184 185 193 196 198 196 195 200 203 202 207 211 206 200 204 205 208 216 218 219 202 193 162 135 99 102 26 34 31 27 21 10 10 20 31 30 36 30 18 40 70 71 74 74 81 83 84 87 85 84 81 80 74 71 67 68 68 67 63 65 74 85 81 80 78 76 79 71 76 88 98 105 114 130 128 145 152 157 160 164 166 174 175 174 176 183 193 191 180 162 174 176 169 174 174 173 177 164 161 152 153 167 171 177 189 187 188 188 191 197 196 205 200 200 180 165 134 102 44 42 39 34 27 12 10 15 27 26 26 25 41 85 79 72 77 86 84 86 87 88 88 87 78 73 63 60 51 50 52 52 58 61 57 62 65 60 58 52 50 59 47 44 50 67 64 82 93 107 131 142 147 152 161 169 160 168 171 177 191 191 175 156 168 162 154 153 158 139 133 123 128 115 130 145 150 150 167 172 167 168 172 182 194 191 193 204 187 174 149 111 61 55 48 43 33 14 13 12 18 25 21 27 70 77 80 89 92 93 87 87 90 91 90 88 76 67 58 53 52 48 50 50 59 68 73 72 70 71 63 57 51 45 39 38 39 40 50 53 65 82 101 116 129 133 143 162 147 153 166 173 185 191 169 149 153 150 142 130 129 112 114 111 100 89 101 109 114 125 137 147 151 157 163 166 166 173 193 208 194 177 153 119 76 64 56 47 38 21 16 15 17 28 26 44 79 82 85 85 90 96 93 90 92 91 90 87 85 74 59 50 52 51 60 60 70 81 93 98 96 99 104 105 96 86 70 56 45 41 41 45 48 56 71 86 107 117 135 146 139 134 165 183 180 184 170 143 145 140 126 119 115 107 103 96 83 71 71 75 89 94 104 125 129 136 143 150 163 180 201 214 205 187 153 123 81 65 57 57 52 34 23 15 24 29 35 44 79 88 83 91 92 98 94 92 89 88 86 88 82 80 67 64 62 67 77 85 93 95 97 98 97 101 103 94 77 71 60 51 45 46 43 41 42 45 53 64 84 99 119 128 116 134 156 180 188 185 162 138 134 132 124 114 107 96 87 86 84 87 92 98 110 124 135 156 161 164 167 172 172 184 204 211 210 202 161 127 82 65 58 60 50 33 29 24 37 32 49 58 78 79 90 94 90 88 95 94 90 93 82 95 87 78 87 77 78 80 80 74 60 52 27 9 1 2 5 12 34 19 12 28 16 15 29 39 38 35 41 46 56 75 95 103 101 127 162 187 191 183 159 133 125 120 110 97 87 83 77 60 50 46 56 78 110 141 150 162 178 193 188 190 186 191 202 208 211 208 174 131 76 61 58 54 38 22 30 34 35 41 59 77 80 97 96 92 90 89 96 92 93 97 94 85 89 91 76 79 76 68 42 24 16 17 20 27 3 17 8 19 22 41 84 48 44 43 27 32 35 35 37 39 42 45 62 78 96 123 160 188 198 192 174 144 124 106 94 85 65 56 48 29 14 29 39 10 15 52 62 73 105 152 189 200 200 201 205 212 209 207 191 132 71 59 58 53 41 26 32 38 36 60 70 85 89 95 102 101 94 94 100 95 94 92 92 96 89 83 101 75 65 55 40 31 51 71 84 82 23 26 37 51 43 90 131 111 45 47 53 42 37 39 36 36 37 34 43 64 96 123 166 195 209 211 196 161 134 115 98 79 68 68 77 44 41 14 41 24 44 127 104 55 62 59 108 189 208 202 208 215 211 211 196 141 71 61 60 60 54 36 32 46 54 67 79 97 91 88 102 96 93 96 100 102 101 102 100 100 104 96 83 72 58 54 51 56 82 96 109 125 122 96 78 73 88 137 142 125 86 54 48 48 56 45 38 41 44 48 47 59 96 128 167 193 211 214 204 176 150 124 116 96 78 86 117 80 71 63 70 64 128 179 146 134 144 120 106 156 192 201 210 213 212 214 195 150 76 67 65 64 60 44 35 62 65 72 85 98 98 99 98 91 94 96 102 103 107 112 115 113 109 109 105 95 93 88 80 80 87 105 117 120 124 123 130 132 138 148 141 140 140 113 97 59 55 85 63 63 55 58 55 63 102 146 178 201 218 224 212 184 166 169 172 104 106 119 141 159 152 160 161 170 185 189 187 162 166 171 151 164 188 204 213 211 211 213 190 149 85 71 71 66 59 53 47 68 75 75 89 97 99 102 91 90 97 96 98 101 106 112 118 119 111 106 110 112 109 102 89 89 82 83 97 115 123 134 142 144 147 145 142 139 130 125 132 120 98 110 114 94 71 66 62 76 111 153 182 202 219 226 217 195 181 192 167 150 157 134 133 132 137 154 154 166 176 184 185 179 177 190 197 194 193 205 213 212 212 213 188 144 96 74 77 75 68 60 63 99 102 97 99 91 97 100 84 87 96 97 97 105 107 111 115 117 116 116 117 125 129 127 118 93 63 79 77 82 92 106 122 134 137 129 120 114 107 116 125 126 128 124 124 103 82 80 64 90 132 169 191 208 219 227 222 203 196 197 187 183 173 133 119 123 140 159 165 182 184 187 179 169 181 204 201 209 205 211 217 214 212 210 192 138 107 80 79 86 80 65 69 102 101 96 83 90 102 84 75 90 96 94 96 104 113 120 125 130 127 125 125 133 134 132 119 114 115 107 75 71 63 65 70 80 85 87 88 95 102 118 116 115 109 117 113 103 88 82 77 108 155 185 199 211 217 223 222 213 200 181 171 166 143 121 102 107 114 129 137 146 162 161 163 171 175 192 211 214 211 213 215 212 210 204 199 136 115 89 79 84 80 73 75 103 105 96 75 90 96 65 74 90 92 93 96 104 114 118 118 119 119 126 125 126 131 140 145 144 128 121 119 106 98 97 97 102 104 117 122 126 130 125 126 124 127 118 117 105 94 84 87 124 170 196 205 215 216 223 224 218 202 199 173 157 153 143 136 119 102 96 101 106 122 129 147 164 187 206 205 210 209 214 216 214 213 207 189 151 115 100 75 78 84 77 76 96 105 95 80 93 90 70 72 81 88 88 93 100 111 115 117 125 121 120 116 127 140 143 142 144 150 153 150 142 142 135 140 147 151 145 143 145 147 144 144 144 133 129 119 111 100 82 94 140 178 187 207 215 217 223 225 223 211 212 209 182 168 171 163 167 166 157 153 158 164 173 178 190 186 199 212 207 205 214 216 212 210 211 184 149 112 111 91 79 81 77 68 93 105 90 83 81 89 79 71 85 92 92 97 100 109 122 125 122 122 127 133 128 130 132 143 151 160 163 165 165 160 156 154 159 158 159 153 157 156 153 144 142 138 126 114 100 97 91 104 139 169 188 208 216 216 221 225 231 219 214 214 213 199 187 183 188 189 200 202 200 209 214 214 209 206 203 208 213 208 212 213 212 211 206 179 148 92 119 115 109 104 94 73 94 102 92 79 68 85 81 72 80 97 93 104 102 110 118 116 123 123 124 128 130 126 145 148 156 163 167 169 168 167 164 160 159 159 159 159 157 165 161 144 141 129 119 105 98 97 97 103 126 159 186 207 215 217 220 223 231 219 213 215 222 222 213 208 204 210 203 208 214 221 221 218 214 211 208 207 211 214 213 213 213 212 204 171 143 77 104 115 117 122 100 65 86 98 84 70 69 90 83 68 85 88 94 95 99 106 113 113 124 124 124 127 142 141 150 154 159 169 173 172 169 167 169 165 165 162 166 164 157 160 153 141 135 124 111 101 98 98 99 105 122 148 175 201 211 217 220 225 223 205 208 214 214 205 215 207 202 202 196 202 211 213 214 215 216 219 220 215 213 216 219 216 213 211 207 169 137 90 91 118 122 129 116 91 92 88 68 61 66 75 83 70 78 79 88 94 98 105 113 119 124 128 132 136 148 154 154 160 162 175 180 176 174 176 172 175 172 176 172 170 158 157 148 133 127 122 108 100 98 101 106 108 115 138 163 193 206 218 221 228 221 209 214 217 206 192 214 215 209 215 199 203 209 215 211 216 219 214 219 223 219 218 219 218 212 210 206 173 133 124 117 124 126 123 122 114 95 78 67 64 70 69 80 70 68 67 84 95 104 109 114 119 125 131 141 141 149 146 150 159 169 173 176 180 186 186 185 185 178 180 178 170 163 151 148 130 125 116 109 103 104 100 100 108 116 135 157 186 204 216 220 228 219 210 212 213 213 212 211 191 193 213 212 211 218 219 223 219 224 222 218 219 221 216 218 218 213 207 205 180 136 130 133 132 128 123 116 107 89 77 67 73 62 64 59 70 63 64 74 91 101 109 116 122 124 131 139 142 143 151 158 163 165 173 179 189 189 191 193 193 189 184 177 169 162 149 147 138 131 122 120 118 113 106 109 115 116 132 155 179 205 213 216 225 220 217 214 214 216 216 209 199 198 219 214 213 220 222 222 221 220 220 219 219 219 219 223 220 213 206 204 196 148 116 132 137 128 122 113 100 85 74 66 65 53 64 57 72 78 68 74 85 97 105 115 122 120 129 139 143 146 151 155 159 171 175 179 185 190 194 195 191 188 184 174 166 159 149 145 138 130 120 116 116 117 116 118 119 119 134 154 173 198 208 213 225 219 217 218 216 215 220 218 215 213 216 213 215 218 219 222 223 221 221 220 220 219 220 222 219 212 204 200 213 164 101 115 127 120 118 113 103 94 75 69 68 53 60 81 68 72 59 72 84 92 103 115 118 119 126 137 142 149 154 156 164 170 171 181 189 191 194 195 191 186 182 173 169 161 152 141 130 111 96 96 105 116 123 124 125 129 140 157 170 195 204 224 225 221 220 217 215 218 220 219 217 215 215 218 217 216 218 221 224 225 223 224 223 223 222 218 215 214 204 201 214 174 112 93 108 110 109 104 103 91 76 64 65 59 55 72 66 68 66 67 71 85 97 107 110 115 126 133 137 144 151 154 158 165 176 178 184 195 194 195 193 187 181 173 173 165 158 141 120 93 80 90 101 111 124 128 132 135 141 148 173 192 213 224 229 224 220 218 215 215 218 220 219 217 216 217 218 217 218 221 224 229 229 227 227 226 227 218 211 213 203 203 209 175 145 130 109 88 84 86 81 75 53 49 73 68 66 66 61 65 66 63 69 78 90 98 99 111 123 128 130 136 145 148 159 166 170 177 183 191 193 193 189 183 179 171 168 159 155 138 123 106 99 102 105 114 123 128 128 130 140 149 169 191 212 223 231 226 219 223 220 209 212 217 220 215 217 216 218 217 219 221 222 228 228 227 226 225 225 216 205 202 198 198 206 169 159 160 159 152 134 108 89 44 26 37 65 70 66 67 56 61 64 65 66 73 82 89 98 108 114 122 126 132 138 146 153 158 168 174 178 185 190 183 178 179 174 171 166 154 142 131 112 109 109 107 109 107 128 127 126 123 128 141 164 184 211 221 226 219 217 215 216 207 186 201 208 213 217 218 215 217 217 220 223 219 224 225 224 223 223 218 203 196 190 192 198 152 167 167 164 165 165 162 128 49 24 36 60 69 64 67 64 68 67 65 63 72 71 88 91 102 106 113 119 130 133 138 145 156 161 170 173 178 181 181 175 170 167 163 152 147 133 118 100 106 115 116 116 103 111 120 116 119 123 139 163 190 206 223 221 213 211 210 211 212 193 178 184 191 202 212 210 213 217 219 221 221 223 222 219 224 224 219 204 193 175 177 162 119 171 170 169 174 171 168 140 70 32 38 60 68 65 74 74 79 67 64 85 80 77 85 92 94 98 109 120 128 131 136 142 150 157 156 167 160 165 167 165 161 158 155 146 141 130 101 82 101 114 116 117 110 109 112 111 112 115 136 152 179 205 218 218 209 206 203 210 216 211 186 170 170 182 197 202 207 209 213 216 213 217 219 218 219 221 219 204 184 152 136 120 106 174 173 171 171 172 168 149 106 55 37 54 62 71 73 85 85 76 70 86 75 82 83 80 83 90 97 105 117 120 124 134 142 147 145 150 161 165 163 162 159 149 141 136 140 132 90 63 89 103 116 119 118 114 112 107 104 114 135 149 175 199 221 222 208 207 210 213 217 221 205 182 166 166 180 183 194 202 207 209 211 213 213 213 214 216 214 202 180 150 123 116 120 171 172 170 173 174 167 161 145 86 35 55 69 73 83 80 71 77 75 72 80 89 86 68 74 87 90 97 110 112 111 122 126 136 139 145 148 153 154 156 151 140 136 132 138 141 108 53 78 91 101 109 124 129 122 111 103 111 134 152 176 200 222 222 215 214 218 218 217 217 206 201 181 163 167 176 182 191 196 199 203 205 205 203 207 210 212 203 186 158 133 131 130 168 168 167 170 171 168 162 151 107 49 56 71 76 85 78 81 79 77 74 83 84 82 66 72 82 88 91 99 104 109 108 119 122 130 135 140 144 151 148 138 131 128 129 133 131 117 66 63 74 80 93 116 129 126 119 117 120 145 163 185 210 221 226 223 221 219 220 213 211 203 210 197 176 159 170 178 189 190 188 195 195 196 193 193 195 207 203 193 160 138 138 136 163 163 162 162 164 164 157 149 110 51 58 75 72 76 78 89 89 83 77 85 85 83 62 70 69 76 83 89 96 99 102 110 113 116 114 134 136 133 134 131 125 128 127 123 120 109 87 49 53 60 69 87 114 119 120 118 122 144 171 186 198 211 223 222 221 218 215 204 200 202 211 210 200 162 158 168 178 187 187 187 187 183 185 181 185 198 201 196 161 143 141 141 142 144 145 146 150 148 146 140 100 53 61 76 81 79 87 85 86 92 85 82 87 85 68 66 68 73 79 83 88 92 97 99 104 111 111 120 130 132 129 129 121 128 123 115 114 106 98 70 36 28 34 51 70 92 94 104 117 136 158 170 170 187 205 217 218 212 196 182 183 209 214 214 206 186 167 165 173 179 181 181 176 172 177 168 157 187 198 193 164 145 145 144 119 120 122 123 126 126 125 123 92 67 64 82 90 84 87 78 80 89 80 83 83 87 75 65 68 72 73 72 79 85 87 96 106 113 124 127 132 119 117 106 106 107 118 110 104 103 97 85 50 22 9 8 14 53 66 69 88 127 142 150 151 153 176 200 210 196 137 146 190 215 213 215 207 194 173 158 160 166 169 171 166 163 169 159 127 177 195 186 161 152 148 147 93 94 96 99 100 99 100 99 84 73 69 98 87 87 91 72 75 77 78 81 78 88 80 69 63 67 68 72 82 84 92 103 116 126 123 111 94 94 87 87 97 102 116 108 110 103 87 78 72 45 27 15 6 4 26 43 51 81 116 125 120 113 144 180 181 127 113 184 207 205 214 212 209 200 184 151 132 136 146 156 161 151 162 142 131 180 197 195 159 151 147 147 82 82 80 82 82 79 81 83 79 69 71 91 84 94 102 74 74 76 75 69 82 96 82 69 60 73 74 76 84 84 98 111 120 116 103 82 82 70 74 87 84 86 106 108 106 95 85 78 80 57 31 35 14 7 3 12 36 55 75 88 83 67 92 136 151 155 165 185 184 195 202 210 205 197 187 179 175 159 163 173 182 166 164 135 152 185 194 194 161 146 145 145 81 81 80 81 81 81 80 79 79 74 68 87 86 105 95 76 67 79 71 70 72 91 76 64 67 80 81 79 80 88 100 111 116 94 95 100 94 84 67 89 99 90 93 92 88 74 63 74 80 72 39 48 34 21 22 11 15 43 53 51 56 66 105 126 156 146 175 178 183 196 204 203 194 189 167 164 177 177 171 181 193 184 167 141 169 193 194 187 156 142 142 142 81 81 81 80 80 80 80 80 79 74 72 91 88 94 92 81 65 80 68 80 66 77 86 66 65 81 74 90 91 82 96 110 108 97 84 64 72 81 75 99 93 87 66 77 74 75 63 76 87 81 59 56 53 41 40 45 39 49 62 30 35 95 158 143 141 168 177 150 187 186 196 196 180 171 155 150 167 185 179 186 199 188 156 156 178 197 200 179 144 138 136 137 81 81 80 79 80 80 80 80 79 74 76 96 90 97 92 86 77 87 63 64 65 79 88 69 66 68 67 71 74 82 98 106 86 79 65 68 73 65 89 94 81 83 70 81 76 82 74 55 87 77 86 62 72 51 61 73 79 90 80 43 60 48 148 161 131 148 152 134 152 177 190 191 168 143 142 136 156 177 175 174 190 194 157 165 182 191 188 159 123 125 127 129 80 80 80 80 79 80 79 79 79 75 76 92 92 93 91 94 71 63 60 54 69 74 84 79 59 61 63 67 78 69 85 102 93 85 63 53 50 70 48 46 78 60 99 79 77 92 60 62 80 68 65 61 67 64 61 80 97 125 80 53 84 74 120 133 118 130 150 135 157 166 180 172 171 154 126 120 133 164 167 182 194 178 152 162 168 169 174 137 105 107 110 110 80 81 80 80 79 79 78 79 80 77 71 87 92 90 89 74 65 57 53 56 69 74 78 73 48 59 71 75 67 69 81 103 104 84 49 40 32 32 32 28 32 44 55 57 83 79 62 79 54 68 54 45 83 51 80 81 89 144 90 81 78 82 113 131 131 137 164 153 151 152 174 177 152 130 120 122 140 142 153 182 186 158 158 168 167 161 173 121 86 88 87 88 80 80 80 80 79 79 79 79 81 80 71 86 94 85 90 77 72 64 56 64 70 71 75 66 63 61 81 68 62 65 67 95 98 75 56 56 37 35 19 13 28 25 41 59 55 70 54 59 65 71 66 70 64 77 91 89 100 112 121 114 99 106 101 130 125 144 149 153 143 143 144 157 133 123 128 107 130 121 134 179 188 151 164 172 167 166 173 113 76 77 76 75 79 80 79 79 78 78 78 78 81 81 76 85 103 97 93 77 71 63 58 55 75 66 82 73 81 64 71 61 66 65 57 80 106 78 73 79 49 50 38 24 11 17 26 35 44 58 62 60 59 73 87 75 80 103 102 123 109 129 131 117 110 130 121 123 113 127 128 151 144 138 145 133 103 100 116 87 102 123 150 180 170 158 162 174 167 181 171 107 81 72 76 75 79 78 79 79 78 78 77 78 81 80 71 82 92 83 84 64 67 60 54 54 66 65 76 69 82 66 67 65 61 63 62 80 111 102 82 81 57 67 54 53 39 16 5 10 16 33 36 35 40 50 60 65 70 77 84 88 115 126 126 114 124 137 134 123 123 125 130 136 143 118 121 125 120 63 84 97 116 146 174 171 160 170 158 177 171 186 142 88 78 77 76 76 79 79 78 78 78 78 78 78 81 82 74 77 75 74 71 63 62 57 52 53 50 61 58 62 70 59 54 65 65 54 65 74 108 112 93 79 60 76 72 73 69 60 37 18 5 24 49 42 36 45 48 54 51 61 59 60 66 80 95 89 90 85 98 91 125 124 120 111 114 108 119 149 139 106 117 114 132 168 180 141 159 172 157 163 171 195 124 76 76 76 76 76 78 78 77 78 77 77 77 78 81 80 80 78 78 78 70 66 62 65 55 43 52 64 60 55 62 56 48 67 65 61 84 74 99 102 91 79 67 73 74 84 79 84 78 62 45 42 55 41 34 59 86 81 86 101 103 99 90 81 88 94 91 80 74 76 65 74 86 66 76 132 179 186 174 129 118 117 134 168 177 154 163 164 147 160 170 180 111 77 78 76 76 75 78 78 78 78 78 78 77 76 77 80 71 66 68 66 57 57 66 69 51 38 61 67 60 59 67 56 59 62 83 56 79 79 80 89 83 80 84 89 88 82 91 88 83 88 84 76 75 87 97 92 82 83 102 145 151 152 146 122 140 148 151 131 123 103 32 95 129 124 144 179 195 193 178 149 142 132 149 173 157 157 158 163 164 172 184 153 95 80 76 75 76 75 77 77 75 78 76 79 78 77 77 81 73 59 54 49 49 61 66 64 54 38 65 73 66 58 68 56 69 61 58 49 52 59 62 80 77 73 80 87 92 88 88 97 96 91 90 91 99 109 115 128 127 113 98 104 145 153 133 143 160 169 159 131 170 123 91 135 159 170 184 199 200 195 184 162 151 146 165 168 154 165 167 166 187 189 187 138 78 75 76 77 75 75 77 77 78 77 76 77 78 77 68 59 69 67 53 44 46 57 63 61 59 41 52 66 63 61 55 60 69 56 56 51 49 62 62 66 68 80 105 102 90 90 88 95 89 89 94 97 107 121 124 131 137 146 145 140 148 154 147 154 147 150 156 145 159 158 172 188 195 201 206 199 194 193 183 153 152 153 169 165 165 168 181 164 181 206 189 109 77 76 75 75 75 75 77 77 75 79 79 74 77 67 39 28 64 74 61 46 38 38 46 76 64 55 59 60 55 51 40 55 59 55 44 33 33 40 46 57 80 80 94 82 90 90 90 95 86 77 88 98 112 116 134 131 134 140 152 164 168 167 174 174 172 162 171 169 179 183 198 207 213 206 202 188 179 185 181 160 156 168 162 147 163 172 176 168 175 211 170 91 76 75 73 75 75 75 77 77 75 79 78 76 69 42 14 8 56 73 66 57 37 26 34 76 61 62 48 60 40 41 44 53 59 49 47 40 46 32 32 43 53 86 100 100 102 92 91 93 91 84 85 93 104 117 122 127 136 146 151 161 167 168 176 179 181 176 187 189 198 205 209 203 199 196 191 187 190 188 181 172 167 167 137 147 173 173 173 176 172 181 146 86 71 75 73 75 73 73 77 76 78 77 75 69 44 20 4 6 55 74 68 56 47 34 40 52 66 40 62 50 50 40 52 50 61 51 49 49 45 33 25 21 50 80 82 136 106 111 108 93 91 91 79 81 82 114 121 129 131 145 140 151 160 156 162 171 179 178 182 179 186 187 187 188 172 161 175 176 185 186 171 163 175 174 158 156 166 175 177 176 190 129 112 89 73 74 74 75 73 73 77 77 78 78 75 52 23 12 2 6 58 77 71 62 51 37 37 49 48 47 61 56 54 44 53 52 54 35 47 56 49 32 30 28 47 57 74 87 88 95 90 89 85 83 75 81 85 97 87 104 110 124 132 128 140 136 135 143 147 153 153 159 154 166 167 167 160 158 176 182 189 188 184 163 174 172 175 173 178 182 186 173 181 123 78 74 75 74 74 74 73 73 80 77 77 76 57 30 14 9 1 5 58 76 74 57 53 40 28 22 28 48 57 47 56 58 43 51 43 39 81 40 41 37 40 30 42 53 77 97 98 95 88 74 83 82 72 69 66 60 67 91 91 96 95 119 114 113 129 141 119 127 132 154 135 129 145 144 153 157 177 178 188 181 158 172 164 168 172 183 183 194 198 176 137 91 80 72 73 73 73 73 73 73 78 77 70 54 28 14 15 10 0 9 59 74 76 66 58 52 42 24 22 25 36 39 57 58 56 47 50 69 63 58 53 40 39 49 61 79 66 76 86 82 91 95 85 75 72 67 57 60 54 58 74 65 79 82 94 111 123 124 127 124 138 154 141 119 125 148 151 180 199 192 189 173 171 183 159 165 178 176 177 193 185 161 99 75 75 73 73 73 74 74 73 73 78 69 47 25 11 12 11 10 1 11 60 73 77 70 56 54 54 41 24 20 36 31 46 38 35 36 42 54 65 53 55 43 34 65 66 54 75 78 96 91 95 99 92 91 89 73 75 70 67 59 66 66 79 75 88 103 133 107 128 148 115 139 134 123 131 159 162 181 187 184 179 162 174 202 186 160 176 186 181 180 154 105 78 72 73 73 73 73 73 73 73 73 68 46 23 17 13 11 9 8 1 11 61 73 78 74 64 57 56 52 34 21 16 21 31 35 32 31 32 43 52 71 62 57 47 62 43 70 87 122 126 117 109 118 104 100 93 86 86 80 74 70 73 87 93 88 96 110 126 127 136 153 137 138 140 149 168 182 180 179 183 185 185 176 188 209 198 169 187 189 180 163 111 76 73 70 74 73 73 73 73 73 73 73 37 22 14 14 13 12 11 10 2 10 63 75 78 78 68 58 59 50 38 23 21 46 46 29 23 27 44 53 56 51 52 47 60 44 47 68 93 94 119 122 124 119 112 116 114 104 105 103 99 100 104 95 115 97 96 114 127 121 131 140 138 155 140 157 167 186 193 196 191 181 175 177 196 205 179 163 179 175 177 127 82 73 74 72 72 73 74 74 73 73 73 73 22 16 11 11 11 12 11 9 4 10 61 75 77 75 74 68 69 61 50 38 29 25 21 30 37 39 43 52 45 40 50 45 56 49 34 38 49 87 105 87 116 118 115 104 105 116 126 121 115 121 108 108 108 105 117 124 121 112 131 139 149 147 159 170 173 190 199 200 199 187 173 176 189 204 167 169 169 148 144 98 77 73 70 69 71 72 73 73 72 73 74 75 22 19 14 13 12 12 10 9 4 11 62 76 78 78 78 77 68 64 59 49 41 27 19 19 22 17 22 42 44 47 57 62 60 52 42 26 35 72 85 96 106 101 111 115 114 123 126 130 139 122 120 122 130 133 146 148 139 128 141 142 159 186 182 169 190 197 201 191 176 172 179 176 192 184 154 161 150 120 111 90 74 76 73 71 72 72 73 74 74 76 77 80 29 26 15 14 13 12 11 10 5 14 63 76 79 83 82 82 69 60 62 55 49 41 28 22 32 20 28 35 36 45 41 45 54 52 43 35 44 55 84 81 107 126 125 113 126 122 129 126 140 129 132 130 147 153 166 158 152 120 138 142 164 187 194 193 191 201 200 181 180 168 162 183 173 184 152 139 117 92 80 81 72 77 73 73 72 73 73 75 80 82 91 92 25 23 19 17 15 13 12 11 7 10 58 76 80 84 84 83 80 71 69 58 55 52 39 33 35 29 28 27 44 45 47 44 41 37 47 38 37 69 78 109 82 101 99 118 126 127 133 132 136 140 141 131 135 142 152 170 165 154 162 176 187 185 200 197 194 192 195 196 180 189 185 172 155 151 146 124 96 77 73 74 72 74 75 73 74 73 74 79 87 93 102 104 24 22 21 19 17 13 12 10 8 7 53 72 80 83 83 83 86 84 80 67 59 59 46 36 40 26 32 33 24 25 28 33 33 38 35 38 35 39 67 93 94 91 87 81 75 103 142 129 116 129 137 132 134 155 156 152 159 169 168 163 183 191 195 202 186 182 184 172 190 198 186 172 128 121 119 119 75 68 74 72 72 72 72 73 74 73 77 84 97 104 112 112 20 20 21 20 16 15 12 11 9 6 45 72 82 84 85 85 86 86 80 74 70 64 57 48 36 28 26 35 32 31 36 42 43 44 33 23 32 40 42 82 90 88 98 108 87 101 139 141 113 136 130 147 147 167 164 156 156 159 160 152 184 186 183 190 176 176 186 158 160 188 176 167 113 110 95 86 72 71 73 72 72 71 73 75 74 74 78 88 104 114 119 120 16 19 20 18 17 13 13 14 10 6 30 72 78 86 87 84 85 87 84 79 80 71 62 56 42 33 34 37 32 29 38 56 34 21 13 13 28 24 63 58 66 104 92 104 104 120 135 156 122 122 112 156 148 147 143 141 132 144 160 161 177 186 183 195 158 177 169 174 157 193 176 149 93 101 81 75 75 74 75 74 74 76 77 78 78 79 87 101 115 124 129 127 15 16 17 18 17 15 14 14 12 8 17 61 71 82 85 84 86 89 89 87 83 77 68 62 51 45 39 36 33 30 30 37 30 30 30 40 34 29 35 42 62 70 82 103 144 130 132 148 133 127 110 142 133 135 138 140 155 160 154 158 162 159 156 168 138 160 176 173 154 179 166 139 116 88 85 85 86 86 87 87 87 87 89 89 88 90 101 117 129 134 134 134 13 14 15 15 15 15 14 13 13 11 10 41 70 74 84 88 88 90 89 89 85 82 74 67 63 55 47 37 30 31 42 41 41 35 32 37 33 14 31 45 49 82 85 99 107 95 132 105 132 118 131 103 121 137 139 159 151 147 145 143 148 138 153 153 126 141 183 151 142 170 143 154 117 95 92 96 101 102 102 103 103 103 103 102 102 104 115 132 142 143 140 138 12 12 14 14 14 14 14 15 16 12 7 17 62 71 82 87 91 92 88 88 89 85 78 76 72 67 55 43 35 29 31 29 27 31 29 29 28 25 46 34 41 66 65 92 112 96 96 98 116 126 127 104 105 140 146 142 145 152 123 124 134 132 135 154 123 131 175 151 133 182 136 128 96 101 103 108 111 115 116 117 117 116 115 115 115 117 127 143 151 150 146 143 13 14 11 12 14 14 14 15 15 12 13 6 43 72 78 83 92 94 89 89 89 88 85 82 75 69 63 54 45 37 29 28 26 29 35 35 29 30 30 27 52 59 59 76 111 76 75 84 82 91 121 106 123 134 134 129 129 172 134 109 140 125 136 122 136 140 132 139 156 172 163 119 100 109 117 121 125 129 131 131 131 130 128 127 128 129 135 148 157 155 153 149 15 15 12 12 13 13 13 14 13 11 14 7 18 64 81 84 88 94 93 93 90 87 85 84 78 76 74 65 54 47 43 34 26 25 29 28 28 25 22 28 37 45 48 55 64 74 67 71 63 77 89 97 94 110 115 142 132 99 127 116 136 143 119 118 139 125 113 126 164 165 125 82 97 105 118 129 132 135 140 135 136 139 138 135 135 135 137 147 157 156 155 149 17 16 12 12 12 11 12 12 14 16 14 14 10 41 75 86 89 94 99 97 92 86 83 85 81 81 78 69 60 54 49 43 36 33 32 26 27 23 23 27 32 25 38 52 57 64 71 69 41 53 69 84 91 82 89 126 99 59 84 84 103 123 125 110 119 122 138 167 182 165 102 86 87 87 98 114 128 136 141 139 140 142 141 139 138 138 139 145 151 156 155 149 19 19 14 12 12 12 11 12 15 15 15 17 9 11 62 85 90 97 100 102 98 93 89 89 87 86 81 75 68 62 56 51 43 36 32 29 26 24 23 26 26 24 23 35 56 50 77 75 41 53 42 55 105 89 74 100 63 61 80 103 77 96 99 104 124 161 173 191 190 138 88 89 91 87 87 91 103 121 133 142 141 143 145 141 138 142 141 141 144 151 153 148 22 21 18 17 16 14 12 13 15 13 15 12 14 4 35 77 89 95 98 102 103 102 98 95 92 89 84 79 73 69 64 59 52 44 38 37 33 29 27 25 22 22 24 24 26 29 35 43 32 52 35 46 64 65 83 57 84 67 81 81 101 115 115 139 185 192 197 192 180 103 75 87 89 89 90 91 87 89 101 125 134 142 143 143 142 142 140 136 136 142 144 141
