P2
# Generated by OpenCV 4.2.0
92 112
255
53 48 46 42 49 41 56 98 89 57 66 52 48 60 59 64 96 89 74 89 66 60 47 40 44 45 36 37 35 29 39 50 35 43 51 49 58 77 75 69 77 80 88 75 56 52 59 68 64 96 76 92 95 92 85 113 146 127 152 157 159 157 148 159 150 150 162 166 157 153 151 149 147 143 132 93 57 39 43 36 39 57 58 47 53 56 89 133 112 88 119 120 46 50 55 46 49 52 43 66 94 88 91 79 84 76 65 66 63 99 77 50 59 69 63 61 56 52 42 48 47 43 41 46 42 45 52 55 66 76 99 78 102 102 81 79 74 67 68 74 94 100 89 95 99 118 127 147 141 154 162 161 154 163 165 163 159 155 159 162 162 158 156 156 155 153 137 111 80 56 43 44 38 43 55 63 52 56 69 112 123 113 87 140 46 40 48 44 53 49 52 55 68 87 93 85 85 88 90 84 91 75 96 92 84 69 64 69 61 64 50 48 42 42 45 46 44 54 68 71 69 92 132 113 120 103 92 86 81 86 97 111 131 113 137 143 153 140 133 139 164 163 171 173 169 164 161 164 167 167 161 163 165 162 161 162 160 156 144 114 86 68 48 40 45 41 49 61 65 68 57 83 118 141 90 114 46 42 57 51 45 31 36 56 74 91 102 103 96 83 86 90 85 86 89 84 87 90 80 79 67 81 67 67 65 61 60 58 57 59 68 79 93 95 111 128 135 136 149 148 151 150 136 131 135 143 146 149 140 153 150 157 159 162 165 172 176 163 167 168 164 163 166 165 166 167 169 167 163 157 149 127 98 80 63 49 47 54 50 53 62 64 89 64 85 131 131 109 52 39 60 53 29 37 46 70 102 109 102 109 113 103 96 101 107 108 102 91 84 86 92 96 95 92 82 67 70 64 50 57 57 69 75 83 90 105 111 108 137 160 159 168 170 167 164 158 159 164 169 169 166 165 161 163 166 164 170 170 177 183 175 172 174 170 165 167 171 172 171 173 172 163 160 143 116 95 79 74 55 52 54 58 64 71 99 70 77 118 127 119 41 38 47 43 32 39 56 88 113 115 109 118 120 114 110 112 110 110 106 98 92 84 82 82 81 83 81 81 66 64 78 69 74 74 75 86 99 116 125 141 139 153 170 177 177 175 176 170 168 168 171 173 172 172 171 172 175 174 170 167 171 175 172 171 171 171 170 169 171 173 174 175 174 166 156 147 129 102 85 76 85 77 51 53 63 65 65 105 79 110 123 117 39 42 37 36 42 50 70 95 111 117 120 123 124 124 124 120 117 118 123 128 124 113 109 103 95 89 96 101 114 121 112 112 109 113 113 108 106 123 151 155 174 179 178 181 178 176 177 177 176 174 178 178 176 173 173 174 174 173 174 173 174 176 172 172 172 176 177 170 167 175 176 175 174 167 159 147 138 110 95 76 80 83 73 51 56 62 63 88 76 123 121 113 43 42 30 30 42 46 66 99 117 123 126 127 125 129 127 123 129 128 128 126 124 126 126 127 126 123 132 151 145 136 147 151 147 149 149 145 140 156 156 165 178 180 185 187 180 177 178 177 175 178 180 179 176 177 178 177 176 177 174 176 177 175 172 174 174 177 178 172 168 174 176 175 174 170 159 144 133 117 103 95 82 70 72 74 60 47 57 83 90 93 118 119 48 37 32 36 47 58 80 112 129 129 129 132 133 131 128 127 130 136 134 132 139 131 132 133 137 140 135 154 162 159 168 155 156 156 157 159 159 164 162 171 175 178 177 179 174 172 174 174 173 174 178 181 181 180 179 173 174 175 175 175 174 172 173 172 173 178 177 177 174 177 179 176 176 173 171 162 143 127 97 82 86 76 71 65 75 65 61 86 57 69 94 122 42 32 43 37 40 62 83 111 128 137 137 134 135 131 126 125 133 136 138 140 144 144 142 141 141 147 154 158 164 168 163 159 163 165 162 164 161 166 169 167 173 171 172 176 176 173 174 176 171 172 178 179 181 182 181 176 174 175 175 175 174 174 175 176 176 176 177 177 177 174 175 181 180 176 163 156 159 153 122 102 87 82 83 83 68 79 74 71 78 58 83 106 31 35 29 40 54 59 88 122 138 139 132 130 135 134 136 137 141 140 143 147 148 148 149 150 150 155 159 162 162 164 163 162 169 169 168 171 166 164 165 169 170 171 181 179 174 171 174 172 169 172 177 176 180 177 177 178 179 179 174 174 175 175 177 174 174 172 174 176 177 176 176 180 179 173 168 154 140 133 138 103 73 71 76 72 73 73 84 94 76 62 73 102 44 37 41 43 54 78 102 123 135 140 136 136 140 139 141 142 145 144 147 150 148 148 153 157 161 163 162 164 164 160 161 165 167 165 170 171 164 158 166 169 169 169 166 172 177 178 176 173 175 179 178 178 185 184 178 181 179 171 176 174 173 175 179 177 175 175 176 177 179 179 177 178 174 169 164 157 150 136 120 107 95 89 75 66 60 72 85 104 75 66 63 102 36 37 53 53 69 89 103 119 130 141 144 141 143 143 141 143 145 144 148 151 152 150 155 161 162 164 166 167 165 160 161 164 167 165 170 170 165 158 166 167 163 161 167 175 182 179 173 172 178 180 177 177 177 176 177 183 185 177 176 175 174 177 179 182 181 179 176 177 178 180 180 178 176 172 165 146 134 124 115 105 95 93 78 74 81 77 81 70 95 70 56 69 43 55 50 57 70 75 96 120 136 145 145 142 142 140 143 145 150 148 150 155 154 157 160 163 162 164 163 160 161 162 164 163 159 160 165 161 160 161 164 164 165 161 165 170 174 175 178 176 178 178 179 181 176 179 183 184 182 177 176 175 177 177 177 181 180 179 175 177 179 183 183 179 176 174 167 165 149 127 111 101 91 88 79 81 77 68 71 63 95 84 70 56 60 47 57 60 65 82 101 122 134 143 145 146 142 143 142 145 152 151 152 152 152 158 160 161 160 161 159 154 156 162 165 165 162 163 166 162 165 161 160 166 168 163 157 165 171 168 164 161 164 164 170 173 167 173 179 182 182 185 175 177 177 176 178 181 180 180 178 179 180 182 181 177 172 168 152 140 144 128 92 91 116 100 70 78 85 74 69 66 53 75 96 88 61 57 52 61 80 94 113 132 135 139 146 147 145 148 151 153 151 151 153 154 154 155 157 159 159 159 158 158 161 162 162 166 164 165 166 167 166 161 162 162 164 163 164 167 169 168 173 172 168 170 175 177 175 169 174 178 178 174 171 177 176 175 179 180 181 180 177 179 180 185 183 177 170 159 149 145 127 115 131 126 79 74 93 83 70 97 55 64 49 64 60 93 67 53 55 68 79 89 106 125 131 138 147 145 143 143 147 153 156 149 150 154 152 155 157 159 160 161 160 159 164 165 163 164 166 166 166 167 164 164 162 162 163 165 167 167 168 171 174 168 171 179 173 173 177 170 176 182 180 172 177 176 175 174 172 178 178 177 176 178 180 182 181 178 173 161 150 139 133 121 106 91 100 75 66 86 97 91 110 69 71 47 56 71 57 66 75 66 69 84 102 125 134 137 141 147 146 144 146 151 152 154 151 149 157 158 158 161 162 161 163 159 160 164 164 164 162 162 164 165 163 158 162 160 162 167 169 167 166 170 170 169 172 174 174 170 166 166 165 167 172 175 171 172 175 178 178 177 179 177 176 178 181 185 181 184 181 170 158 136 109 95 88 90 93 117 104 83 79 91 104 129 74 64 52 74 84 65 57 56 64 78 94 115 129 141 148 148 148 145 145 150 150 155 152 146 154 157 155 156 155 152 155 153 152 161 162 164 161 159 160 160 158 157 162 161 162 169 166 168 166 163 166 172 171 169 176 172 163 165 168 173 172 169 170 172 174 174 176 176 179 178 178 180 183 186 183 181 178 169 155 145 130 118 96 99 97 73 83 80 69 66 109 99 96 82 60 71 59 58 63 53 54 76 96 123 137 141 143 144 150 147 144 151 151 152 149 145 143 143 146 150 153 155 154 149 155 166 166 165 164 161 160 157 153 156 161 161 158 163 163 167 165 160 163 167 165 164 170 171 167 174 173 175 174 170 170 178 178 175 178 178 179 179 179 181 182 186 186 181 179 175 163 147 145 144 111 90 86 75 75 85 87 92 65 88 108 78 73 79 50 64 54 52 71 78 95 116 130 143 143 142 147 149 151 149 157 154 150 146 150 155 152 152 154 155 152 153 156 162 165 164 170 171 167 166 159 155 154 157 162 163 163 164 164 168 167 161 167 167 172 175 167 173 174 170 169 171 169 169 172 176 180 177 182 180 178 180 184 184 183 179 178 179 175 166 151 131 114 102 105 97 92 85 79 78 81 68 89 87 79 72 49 55 63 76 70 70 83 99 126 144 145 146 148 147 150 155 154 153 149 147 148 154 153 154 156 154 155 155 157 163 164 164 166 168 166 166 162 161 157 156 156 153 159 168 166 162 164 158 158 157 154 161 166 171 168 173 175 172 171 172 175 178 180 179 180 179 176 180 182 184 184 181 181 183 179 169 157 142 132 117 99 76 70 68 74 68 71 67 74 71 82 82 63 71 72 67 67 76 83 102 129 144 145 149 144 141 144 148 157 156 150 150 149 150 149 151 152 152 154 157 159 164 166 164 164 166 169 169 170 166 160 155 148 142 149 151 153 152 150 151 156 159 163 170 175 170 171 174 177 178 178 179 180 181 180 183 183 181 180 181 180 180 179 177 179 182 183 178 168 160 152 127 106 84 71 64 59 59 62 62 73 79 78 84 76 65 59 62 70 72 79 104 133 144 148 149 146 143 144 149 155 151 148 147 148 153 155 157 158 156 153 153 155 161 163 161 159 160 163 162 164 163 161 159 160 160 162 155 158 162 158 158 159 163 170 169 170 167 173 172 172 179 178 179 179 178 175 183 180 179 179 178 178 179 178 175 178 181 185 186 182 172 167 162 134 104 76 66 59 74 81 75 68 85 87 87 66 58 61 62 64 78 81 103 136 145 143 146 148 148 150 153 158 157 152 150 151 147 147 150 152 150 149 152 156 161 164 163 159 159 163 158 163 157 156 158 160 160 161 160 165 161 159 162 165 172 171 169 181 176 175 177 180 181 180 183 184 185 183 184 179 177 178 177 175 177 173 172 174 177 186 186 180 175 176 177 161 132 88 66 60 65 74 93 75 91 105 93 54 65 69 69 73 77 81 104 137 145 140 145 147 146 152 152 159 158 154 152 153 151 153 158 158 154 153 157 157 162 166 168 166 164 163 164 164 159 161 161 162 159 162 159 159 163 165 168 178 176 171 177 176 177 176 179 181 180 179 182 186 187 185 186 183 180 177 177 175 176 174 175 177 179 186 183 181 178 178 180 181 162 118 79 59 70 62 89 95 76 79 84 68 51 45 56 67 70 88 117 136 145 146 142 145 143 148 149 156 157 155 154 152 152 155 159 159 157 156 156 160 163 167 166 160 163 167 168 164 167 162 159 164 158 166 165 163 165 171 174 172 169 175 179 177 178 176 179 182 182 187 186 187 187 185 183 181 181 179 180 177 174 173 173 173 174 181 181 180 179 179 184 184 168 132 91 76 77 72 73 87 95 92 92 51 54 55 56 68 82 102 125 135 137 141 142 146 145 150 151 154 156 159 157 151 151 154 159 159 157 159 159 161 160 157 155 161 160 163 168 168 170 166 160 162 161 158 166 169 170 176 183 173 170 170 165 170 179 179 181 183 185 187 187 186 186 185 184 184 184 184 182 178 176 175 175 174 173 175 179 179 178 182 186 183 179 152 105 74 63 73 86 86 92 90 92 58 47 48 54 77 98 114 131 140 137 136 142 147 146 151 151 153 157 160 159 155 155 157 160 161 162 160 160 162 159 157 157 160 167 172 171 166 164 171 165 156 160 155 165 172 171 170 164 158 163 163 166 181 176 179 177 178 182 182 184 183 184 185 183 183 183 180 179 177 177 176 175 175 174 173 178 176 177 183 184 185 187 167 121 93 82 66 76 90 90 72 79 61 49 56 65 78 107 124 137 139 138 137 142 148 149 153 152 156 159 163 162 160 154 154 156 156 157 157 158 159 161 163 162 161 168 175 174 168 163 166 172 155 147 162 165 167 166 163 163 173 173 169 176 180 181 184 180 179 185 184 185 187 184 182 179 179 179 179 180 178 177 178 177 178 176 175 181 177 176 181 185 182 186 175 146 101 96 82 76 86 98 102 89 61 61 62 65 98 115 134 137 130 137 135 143 149 156 157 153 158 156 161 165 161 160 161 160 163 158 160 160 156 155 159 161 163 164 169 170 174 163 163 171 163 140 160 164 164 163 164 168 165 175 165 170 177 182 187 181 184 189 187 189 186 179 177 170 168 163 166 175 175 176 181 180 178 181 178 177 178 176 183 189 182 185 179 158 158 114 91 78 82 93 105 86 61 60 57 63 107 133 122 135 142 129 147 154 150 149 155 159 154 158 163 166 165 159 163 163 166 157 160 152 156 162 161 158 166 164 169 162 161 165 165 172 169 144 149 162 161 157 160 158 171 162 174 173 145 168 161 158 164 164 168 169 171 164 149 151 151 143 145 156 162 167 167 168 173 181 180 174 175 177 182 182 184 187 183 168 140 163 120 87 126 105 102 99 63 62 57 62 113 131 134 134 134 141 144 147 155 147 141 145 151 157 160 159 163 155 164 166 168 159 168 158 156 163 156 160 161 160 166 154 153 166 168 176 170 150 146 160 160 148 149 154 154 148 158 130 138 127 115 125 127 131 122 122 130 135 128 136 136 135 139 146 145 144 145 151 158 163 173 175 170 179 181 186 186 189 183 168 165 140 155 106 93 90 140 93 63 57 53 60 112 134 132 136 136 138 153 148 127 114 120 134 143 138 139 145 148 141 152 157 163 157 160 148 151 151 149 164 158 158 165 151 150 161 166 173 169 155 143 156 156 137 129 140 135 130 122 89 120 96 92 103 97 110 109 112 114 118 122 112 115 120 133 139 138 143 143 135 138 145 166 172 169 176 175 177 182 187 187 180 154 141 135 189 56 94 93 99 68 51 46 65 119 136 141 130 134 137 105 95 92 97 107 110 103 101 100 103 107 105 117 120 127 128 136 138 145 143 141 149 156 156 166 149 148 158 165 164 170 157 135 144 153 134 120 114 131 111 112 108 89 101 92 88 81 89 85 92 100 107 111 125 119 112 117 126 127 131 131 131 142 156 160 167 172 171 172 183 184 185 183 178 171 167 149 125 156 89 88 106 63 53 61 83 126 137 128 142 134 94 96 93 92 91 92 92 97 100 88 75 74 80 86 83 84 86 95 100 104 119 138 143 142 145 160 145 148 155 163 161 172 161 129 138 152 144 126 123 108 126 111 111 118 107 92 82 78 79 89 78 81 93 101 100 109 126 142 144 143 148 148 151 149 148 150 163 175 171 180 179 181 183 183 183 172 167 147 150 162 95 107 98 63 72 76 95 126 137 135 135 122 102 96 99 97 98 99 88 84 76 71 61 60 61 68 70 66 75 84 90 96 110 119 123 127 138 152 137 137 156 164 165 167 167 146 138 145 145 143 126 124 122 118 112 108 111 100 109 110 113 110 118 117 121 124 146 156 152 165 167 172 163 167 167 158 158 159 170 173 173 177 178 186 181 183 179 169 156 172 149 125 143 100 81 71 80 85 103 131 143 141 138 125 107 104 99 94 93 91 94 92 88 87 97 102 100 87 80 95 92 91 89 91 95 105 115 123 136 147 133 130 147 157 162 167 166 156 141 138 135 140 137 131 119 113 111 109 107 104 84 80 68 80 78 100 117 112 136 136 155 161 160 166 178 179 173 174 167 164 165 167 172 177 178 180 174 178 178 175 158 159 154 134 132 112 117 89 84 88 114 134 139 139 134 125 118 115 114 125 137 134 140 135 130 132 148 151 147 144 147 121 101 100 97 96 91 97 104 110 129 141 126 121 148 159 163 166 163 160 146 140 134 139 132 124 116 114 114 108 87 66 77 89 81 48 46 30 97 35 22 40 51 67 112 118 115 152 189 166 169 170 168 172 178 176 182 179 173 177 178 181 162 146 154 173 167 116 128 89 88 100 129 139 138 140 135 130 130 131 136 142 149 151 154 141 146 151 126 100 75 81 31 62 53 65 67 78 86 88 92 100 107 113 115 126 143 154 161 166 166 167 160 158 148 147 137 131 124 117 109 100 87 100 106 91 91 59 67 55 144 67 62 74 101 75 71 91 106 111 140 178 175 167 169 177 180 177 182 177 176 174 178 176 168 165 140 168 160 132 142 100 98 98 115 136 141 146 140 136 139 136 150 156 148 125 88 50 41 44 25 21 40 28 168 28 39 79 75 63 68 81 88 88 97 103 111 128 141 152 161 169 173 170 166 169 158 155 146 144 135 120 107 103 105 101 85 144 178 77 75 79 79 80 52 121 125 95 94 73 94 117 121 142 162 162 167 175 177 178 181 177 174 174 177 180 157 174 128 130 151 155 153 91 94 89 125 131 143 137 142 142 136 145 148 116 67 53 51 47 76 104 35 52 54 29 102 58 38 106 80 92 73 81 79 89 88 100 106 129 146 154 160 168 169 168 172 172 162 151 154 144 130 118 121 113 91 68 90 114 163 125 57 76 73 79 61 123 126 129 129 145 125 121 130 128 140 165 178 174 180 181 180 177 175 175 175 166 165 164 154 166 163 189 143 95 98 96 126 132 143 140 145 143 134 139 120 82 70 56 51 72 149 162 87 57 67 72 113 52 94 177 113 69 60 91 93 83 92 100 98 133 153 156 159 167 169 179 174 163 157 159 159 134 144 139 158 72 88 105 127 129 123 135 116 126 131 162 141 162 151 148 155 177 165 156 154 154 157 169 178 176 183 183 180 180 177 175 173 174 171 154 147 181 160 158 155 93 96 92 124 133 143 142 146 143 134 133 115 91 81 86 100 88 92 135 136 53 60 54 54 67 155 125 101 153 54 55 93 99 84 97 97 123 154 159 164 171 174 170 169 166 157 152 151 152 149 163 113 97 117 108 103 110 112 110 117 132 119 131 146 162 175 172 160 169 174 171 168 171 161 171 175 174 180 183 181 181 180 176 171 168 168 149 153 151 157 187 109 86 98 102 129 130 141 147 151 147 139 134 112 94 101 132 130 125 125 120 141 124 113 147 150 138 144 142 141 119 123 85 90 112 110 102 94 126 151 160 166 169 166 169 167 162 155 153 153 145 177 155 156 149 139 124 109 111 113 137 147 151 163 163 177 168 164 157 157 167 175 170 167 175 175 178 179 180 183 186 181 182 181 176 171 174 167 145 145 130 170 181 100 80 94 97 128 135 144 145 149 147 143 139 126 121 134 143 140 149 143 141 122 129 119 123 125 124 131 120 121 137 132 118 119 138 130 100 100 136 156 161 166 168 166 169 167 162 154 153 159 145 164 153 171 133 132 116 107 107 119 131 134 147 145 159 158 154 157 157 165 162 166 170 173 174 177 178 177 180 181 181 183 182 179 175 172 168 160 146 106 161 130 150 125 101 114 126 126 137 143 148 152 148 144 143 138 138 136 137 144 141 150 154 159 153 143 137 130 131 111 107 116 123 123 125 130 128 126 99 111 149 157 165 162 171 172 168 165 157 153 153 150 158 161 155 145 132 129 133 124 115 104 110 114 113 121 127 128 133 141 149 163 165 164 170 175 173 174 178 176 181 185 182 179 180 179 177 173 160 173 158 112 133 152 171 135 90 125 121 135 136 148 152 156 153 148 148 144 139 150 130 120 133 137 138 140 137 144 128 109 98 94 96 107 117 121 127 132 129 111 97 132 159 156 166 163 170 175 171 170 166 165 160 153 161 163 160 157 150 141 131 130 147 157 145 140 136 135 136 144 151 159 162 165 173 177 173 174 177 179 179 179 179 180 180 174 175 180 179 175 172 161 168 138 117 134 155 157 129 116 110 124 141 153 152 152 152 148 145 140 143 143 131 149 115 114 108 106 104 97 96 98 100 110 124 134 135 130 127 126 133 111 117 155 154 154 165 162 167 176 171 169 171 177 169 157 159 161 165 166 164 154 154 152 149 144 152 156 164 164 162 158 161 169 170 171 170 172 175 174 169 163 174 179 179 180 186 177 181 181 177 173 171 157 156 132 116 139 148 145 136 119 104 124 140 152 153 152 151 147 143 148 150 140 147 152 136 130 123 115 111 112 120 123 124 132 137 139 141 140 138 136 128 114 128 153 152 158 165 165 169 173 171 172 172 179 178 164 157 163 166 163 165 169 165 158 154 162 164 163 168 167 167 166 165 164 168 170 171 172 174 174 171 170 173 177 176 178 182 179 184 183 177 175 163 156 152 131 119 131 138 161 105 115 104 133 139 149 154 156 153 148 145 145 145 156 163 151 157 153 152 142 138 138 137 137 137 144 151 154 152 148 143 136 116 111 127 149 154 162 163 168 171 166 162 169 170 170 170 165 158 160 161 158 164 167 171 179 175 169 169 162 168 166 171 172 169 166 167 169 170 171 168 168 172 174 176 176 176 178 177 176 181 178 175 176 181 156 156 117 93 149 153 164 107 94 104 128 143 149 152 153 150 146 147 150 153 155 149 158 153 152 152 146 143 148 150 149 151 151 156 159 154 149 141 127 112 115 132 148 143 157 154 165 167 159 166 174 175 170 171 167 158 156 157 158 165 160 160 180 186 180 175 170 179 175 167 170 168 166 168 169 169 171 174 174 174 173 172 172 177 180 179 180 181 177 171 172 171 162 135 125 112 160 166 182 101 101 97 122 142 151 151 150 147 148 151 154 152 152 155 156 155 156 155 157 157 152 153 151 155 157 155 156 150 147 138 121 113 123 134 141 145 143 144 161 163 163 165 170 170 166 171 171 165 161 160 163 166 167 166 180 177 174 183 175 172 173 173 172 171 168 167 168 171 171 171 173 175 176 169 173 177 179 180 177 180 178 174 174 169 157 138 113 117 178 180 173 89 106 94 120 141 148 150 151 149 151 153 152 150 156 160 158 160 157 155 153 152 152 153 155 157 158 152 153 148 140 129 117 117 127 131 137 146 142 145 155 157 164 162 169 170 164 167 172 168 161 159 159 162 167 171 179 149 137 167 175 172 168 173 172 172 171 169 167 168 172 170 170 172 172 171 174 176 178 178 175 177 177 175 175 176 150 142 109 131 173 190 158 84 92 97 124 138 147 150 151 149 152 155 155 150 156 161 159 159 158 155 155 157 153 151 154 155 151 152 152 150 136 122 117 121 127 125 127 138 146 152 154 152 162 160 164 165 161 162 166 167 162 157 157 158 165 174 181 151 142 169 179 178 173 167 167 170 171 169 165 163 166 166 169 171 172 175 174 175 174 174 176 175 178 177 178 177 152 117 127 123 178 202 137 79 89 94 123 140 148 148 148 147 150 152 155 153 155 157 156 159 155 152 150 151 153 153 162 162 155 155 150 146 135 123 123 128 128 122 126 138 141 147 152 154 162 164 160 161 162 158 160 165 164 160 158 157 163 166 170 169 173 174 176 171 175 175 167 168 169 166 165 164 165 166 168 169 172 172 170 172 173 173 171 172 174 175 175 172 148 120 129 115 188 200 105 67 94 80 109 142 148 148 148 147 147 152 158 157 153 153 155 156 153 153 156 163 160 157 166 162 152 152 145 139 136 128 130 129 123 119 127 140 145 151 154 159 162 170 163 162 167 158 154 160 162 160 157 154 162 168 171 177 170 174 187 177 174 169 168 169 169 169 168 169 170 169 168 170 170 165 167 170 173 177 174 174 176 180 177 168 137 153 114 120 193 203 113 53 76 91 109 138 144 151 148 146 151 150 154 150 149 155 152 153 156 154 154 162 162 164 162 157 154 148 144 140 138 133 124 119 130 126 137 140 143 152 154 161 165 157 163 164 165 165 162 158 154 158 162 163 161 163 165 169 174 179 172 174 169 170 169 166 174 170 166 166 166 167 164 167 165 167 162 164 168 170 173 171 175 175 170 171 146 127 105 112 186 187 187 55 74 88 104 130 143 146 147 149 152 148 149 142 142 147 147 148 148 153 157 158 158 162 162 157 151 149 142 145 140 121 116 123 133 130 138 146 148 153 160 168 165 168 164 157 166 171 164 163 157 155 162 172 167 161 164 169 167 173 172 173 170 170 164 167 165 167 169 161 165 166 164 166 162 164 163 165 168 170 167 167 170 172 169 166 131 116 110 123 172 180 193 110 90 81 95 124 145 145 147 150 148 139 137 145 142 141 145 153 151 155 158 153 157 160 161 156 151 155 149 147 129 109 119 131 136 132 139 145 149 152 156 170 167 172 171 166 166 168 167 163 154 153 157 160 168 170 168 165 166 173 173 172 170 168 162 167 160 163 168 161 164 166 165 165 162 160 161 164 167 166 168 170 168 168 166 155 118 106 106 153 166 175 183 125 100 87 91 117 144 142 145 146 142 141 140 143 138 138 157 149 152 156 160 158 158 161 159 156 154 152 152 149 124 108 119 139 137 136 137 139 156 159 159 168 166 169 176 171 166 167 166 162 155 155 151 145 163 172 169 164 168 172 173 168 168 165 166 166 164 164 166 164 166 164 163 164 164 162 164 167 167 164 166 171 166 167 161 140 116 134 120 170 156 173 169 133 120 106 85 109 141 138 142 142 141 149 144 143 147 145 149 151 154 155 155 159 160 161 159 155 156 156 151 131 114 116 122 141 134 137 139 137 143 158 162 169 168 168 168 166 169 167 159 163 165 160 150 145 159 166 165 165 167 170 172 165 168 168 167 161 164 161 157 161 164 161 158 163 163 160 162 164 164 157 160 168 164 166 158 146 113 148 124 156 148 161 168 132 126 109 93 114 136 135 136 139 142 141 145 147 146 147 151 153 156 157 156 157 161 157 154 156 154 150 145 124 120 121 134 135 138 138 135 135 145 157 172 173 163 170 167 169 170 166 164 164 163 163 160 150 146 152 169 170 169 167 166 165 163 162 164 162 161 163 163 163 162 159 161 160 156 160 166 163 161 167 165 166 164 161 151 133 125 165 134 139 136 152 165 119 118 112 101 109 129 133 130 129 131 134 141 145 144 144 145 151 155 157 156 155 152 154 157 155 152 147 138 116 120 127 138 139 136 129 129 134 150 159 166 168 164 169 169 170 170 170 166 165 164 166 165 154 148 159 162 162 170 168 166 164 162 162 167 166 163 163 166 166 160 160 157 157 157 161 161 160 159 160 162 162 156 149 145 120 136 156 138 148 99 129 139 117 112 104 98 114 130 132 130 130 135 140 141 146 146 146 147 147 153 156 157 158 153 156 155 149 144 139 124 103 119 135 143 136 129 125 137 154 165 170 173 178 165 169 173 173 168 168 168 167 166 169 171 163 153 160 157 155 165 166 163 160 160 162 162 162 162 160 163 163 159 161 157 156 160 162 159 159 162 161 164 167 162 147 134 132 147 143 153 161 43 74 98 114 112 102 88 102 123 133 135 129 131 138 139 143 145 144 146 149 151 150 149 148 154 152 150 148 144 138 119 97 121 137 144 139 129 132 150 166 165 171 182 197 178 172 176 178 176 175 176 174 167 165 163 156 155 156 159 161 154 160 159 159 160 161 158 162 164 162 160 159 159 162 160 159 159 160 157 159 164 169 171 165 158 151 145 149 157 135 165 158 51 49 44 109 107 99 93 104 116 128 135 128 127 135 140 143 144 144 148 151 150 148 146 148 152 146 147 149 140 127 110 92 113 130 139 133 128 144 159 158 168 172 172 189 187 179 179 179 179 172 169 168 161 159 161 154 149 153 161 165 153 156 159 161 163 163 163 162 162 162 160 157 158 158 160 159 156 158 157 155 160 170 168 159 158 153 140 143 149 164 150 77 68 53 48 108 104 96 81 110 103 118 135 131 125 133 141 145 148 149 150 148 147 143 152 154 153 154 154 149 138 127 115 96 100 108 111 125 126 146 157 158 156 161 159 165 174 170 187 173 173 149 170 140 131 144 147 149 143 158 155 164 158 155 154 159 164 164 163 162 159 157 158 160 161 156 154 154 158 160 156 153 157 170 159 155 160 166 138 146 148 153 161 70 45 46 47 135 104 115 148 103 108 121 125 125 126 133 136 144 149 149 146 144 145 144 151 152 153 158 152 143 137 125 115 97 88 92 90 90 110 117 134 143 148 148 143 147 165 173 158 147 147 138 20 57 112 125 143 135 146 158 159 161 156 156 157 159 160 164 165 164 161 157 157 156 155 160 163 162 163 163 157 152 152 159 167 157 159 152 141 153 173 178 166 75 74 67 69 237 249 240 201 92 114 122 127 128 127 128 132 140 146 147 143 141 147 148 149 151 150 151 140 132 133 128 125 106 90 90 75 39 53 100 117 123 138 140 133 124 127 134 150 122 75 52 35 50 92 113 121 137 147 156 167 166 163 154 158 158 159 166 165 165 162 159 158 159 160 159 161 162 163 159 155 148 150 157 149 154 143 145 150 153 168 145 161 155 162 163 165 240 234 236 210 113 100 116 128 128 129 133 135 137 143 146 148 138 145 145 142 147 150 148 136 132 137 136 128 109 99 88 63 75 61 53 75 105 106 115 117 116 116 126 104 78 104 93 83 68 83 110 127 154 152 155 162 162 161 162 155 158 165 168 169 166 164 162 161 159 157 157 161 163 162 162 160 150 156 159 156 154 142 121 159 157 157 153 141 209 212 214 217 243 235 235 209 116 104 115 120 120 127 135 135 138 142 145 146 140 143 140 134 145 143 137 130 134 137 137 129 123 119 99 79 58 49 73 53 71 81 75 78 86 92 68 96 120 127 100 131 110 120 154 144 161 163 169 164 168 164 165 159 158 161 164 167 164 163 166 163 161 160 161 163 157 147 159 157 146 152 152 165 158 150 119 178 151 147 124 158 224 219 223 228 229 241 238 212 102 111 118 118 122 125 126 133 138 141 144 141 149 144 141 137 150 145 135 132 139 141 139 132 119 97 68 51 64 67 46 76 79 54 43 55 63 63 95 88 123 102 168 119 130 147 139 145 143 156 165 164 169 165 169 165 158 154 158 164 164 165 167 166 161 159 157 163 161 157 158 157 149 161 164 156 162 131 129 154 150 158 124 175 205 235 231 233 235 236 227 214 91 105 118 114 121 119 124 131 136 142 144 144 143 149 152 144 146 146 128 140 137 147 136 89 95 91 73 61 40 49 60 96 56 60 68 65 51 53 79 119 69 143 99 97 108 144 144 146 163 163 157 170 165 168 164 167 161 155 161 159 161 162 164 166 165 159 162 165 157 153 157 158 155 160 153 153 146 152 145 168 140 175 140 173 210 235 234 235 232 231 233 213 93 111 115 119 114 125 122 128 135 146 140 145 144 149 146 147 153 132 127 131 131 126 112 114 85 93 76 116 53 97 123 73 126 48 66 75 52 65 92 104 62 124 74 133 87 132 132 138 160 160 160 167 165 169 164 159 163 156 163 151 154 158 163 165 164 160 165 169 165 164 168 161 160 154 155 157 152 140 144 146 136 174 147 163 238 234 236 237 230 230 239 219 102 107 113 118 99 121 123 131 138 138 145 136 143 145 149 147 127 109 139 137 103 111 101 80 109 88 100 68 43 113 135 72 108 80 48 87 65 64 89 93 110 93 61 86 85 113 104 141 133 147 155 159 159 163 167 152 156 150 159 144 149 158 162 160 162 164 167 166 160 160 158 160 159 148 152 143 152 123 148 143 149 143 145 154 224 232 238 238 233 231 236 225 115 102 119 114 100 116 121 130 137 134 148 137 137 152 147 141 131 131 106 76 109 91 69 91 77 53 115 54 51 166 79 111 83 71 64 66 65 60 59 91 84 105 99 72 63 81 94 137 117 136 155 152 153 157 143 149 140 139 152 158 156 154 157 162 164 163 167 169 163 167 161 161 154 148 157 144 141 167 146 141 128 141 138 146 231 239 240 241 228 230 233 238 134 103 125 111 118 117 113 115 124 131 140 143 142 143 147 143 110 98 85 91 86 68 95 87 101 66 113 62 53 128 60 85 64 111 65 98 85 38 94 43 157 64 61 77 73 95 85 94 83 120 149 139 144 143 135 126 116 142 123 156 157 159 157 158 161 165 164 157 147 150 156 165 151 143 139 143 147 160 131 130 138 132 134 154 238 239 241 240 225 228 240 240 140 109 120 109 116 104 112 119 108 145 129 130 137 145 152 121 107 94 86 76 66 81 93 65 81 55 92 86 60 65 68 90 117 57 81 47 73 61 40 86 67 69 62 90 64 103 72 86 72 107 118 139 114 122 128 116 110 124 133 146 150 147 163 151 167 154 165 147 142 145 152 164 161 139 123 166 177 154 125 159 146 123 124 195 238 248 245 247 223 231 238 233 181 114 121 113 110 101 111 107 115 131 127 129 133 150 124 98 106 89 60 61 85 137 68 70 48 136 50 106 79 81 77 101 71 69 57 80 57 69 57 60 102 77 97 76 163 56 83 68 73 92 100 107 107 111 127 122 94 114 114 120 142 162 138 141 166 157 152 152 134 188 143 165 159 128 126 178 187 146 149 159 110 145 152 193 245 245 252 243 227 229 233 231 219 124 111 110 106 102 106 95 120 120 120 123 122 133 120 139 65 59 102 41 113 64 92 71 75 56 111 88 94 78 72 126 97 111 87 94 103 77 78 85 102 78 116 100 86 77 74 76 93 93 96 97 103 108 110 97 106 100 100 122 119 141 148 155 154 166 144 146 153 136 172 168 156 127 147 170 163 155 168 158 132 138 161 218 243 248 246 248 222 228 237 234 216 131 100 105 102 106 101 95 121 117 113 108 119 132 116 133 68 104 64 90 77 70 92 71 75 131 87 127 111 72 97 107 114 92 101 144 151 112 91 126 130 106 128 110 119 72 89 89 103 98 89 108 98 106 93 91 89 99 82 121 128 112 131 161 168 154 150 132 152 135 169 160 156 136 151 141 159 161 174 143 158 128 187 141 250 250 242 247 223 231 233 234 220 150 99 109 92 102 99 93 113 119 107 99 103 114 120 64 74 56 104 68 59 78 71 82 91 80 87 88 84 111 108 105 103 100 107 112 124 128 123 107 120 100 131 120 87 101 89 136 126 116 103 113 106 92 91 84 89 103 97 104 118 105 150 167 161 136 152 121 156 168 170 162 153 152 153 152 153 168 169 159 156 165 135 126 71 171 253 243 225 231 230 232 234 178 102 99 96 99 104 93 104 120 111 83 99 94 108 133 71 73 66 67 67 48 43 34 43 45 66 69 59 63 56 61 73 83 82 77 91 113 104 97 94 124 129 111 94 94 98 98 97 104 102 90 67 70 66 63 71 90 96 84 107 96 143 155 161 151 140 157 141 169 165 171 147 101 142 163 148 146 145 169 180 183 132 90 47 64 107 241 227 228 230 235 229 228 104 101 101 94 99 91 104 102 98 101 88 114 102 110 93 74 86 75 77 66 72 83 69 70 101 104 113 113 106 92 84 88 91 79 69 68 73 77 68 75 73 79 88 97 97 93 86 81 88 110 122 135 126 107 89 76 84 92 88 75 160 165 147 134 127 136 152 138 165 158 129 137 143 150 146 144 125 172 152 181 174 72 69 58 60 67 228 232 233 235 233 238 148 97 95 98 87 96 113 88 113 96 98 73 112 116 101 80 82 69 83 94 108 113 113 121 110 128 122 120 130 128 133 113 126 122 116 116 103 117 117 125 130 133 134 138 140 144 149 148 152 164 156 142 137 140 109 119 86 95 92 88 161 155 157 63 165 109 131 145 149 143 150 97 138 168 144 138 127 178 168 155 157 83 54 71 65 70 226 231 229 232 238 242 191 95 117 84 104 83 112 95 101 132 94 115 90 124 84 103 77 89 108 105 105 127 117 121 133 130 131 125 132 128 132 139 139 133 134 136 144 142 141 162 159 158 159 157 154 156 159 160 162 162 160 163 157 141 128 104 107 83 96 109 156 146 116 109 122 104 124 159 149 123 149 117 150 139 151 114 106 184 145 168 159 124 48 55 52 63 228 230 229 233 237 236 233 133 106 94 98 88 97 104 87 124 121 64 112 134 79 64 88 105 103 124 103 100 122 130 131 133 130 139 139 138 142 126 125 125 133 130 125 143 135 132 140 150 147 149 155 158 158 155 161 162 158 152 149 142 150 114 109 98 103 123 156 150 109 120 121 98 120 104 155 138 151 131 145 150 67 193 122 115 130 177 162 99 50 59 61 55 233 232 236 238 235 241 220 200 100 82 88 88 91 107 106 116 106 101 83 111 92 94 79 126 126 127 117 119 120 111 143 132 147 132 109 135 131 124 117 117 116 94 100 118 108 122 133 134 136 127 127 148 159 156 137 141 144 156 147 145 146 129 111 105 122 143 141 133 107 103 139 116 136 162 144 119 133 139 153 150 114 159 113 142 155 157 159 118 54 49 56 56 223 231 236 233 244 242 242 233 117 83 92 81 83 79 103 132 66 104 74 84 88 88 100 128 125 121 116 114 114 117 135 136 123 125 131 94 94 105 109 94 71 82 90 116 108 98 108 108 107 112 120 117 121 155 141 156 143 134 159 156 132 148 119 96 108 127 129 104 103 100 162 86 148 153 148 116 132 129 155 123 119 139 131 181 160 165 165 119 57 54 55 55 232 234 237 241 240 242 236 243 194 107 71 88 76 102 106 121 72 93 61 63 93 83 105 97 120 120 115 129 124 129 119 122 120 111 105 107 112 104 114 90 75 76 87 119 94 103 107 107 101 116 118 110 144 148 137 143 149 151 161 144 147 139 139 104 98 117 123 91 97 107 117 131 133 159 148 130 140 149 134 140 129 113 95 169 172 168 165 125 51 53 52 54 231 235 234 239 242 244 233 239 238 144 63 70 77 60 90 83 77 77 68 66 65 86 88 108 117 103 116 134 125 117 108 116 103 100 110 90 88 125 109 91 94 76 88 121 83 101 86 97 107 89 132 122 134 138 149 146 152 143 156 145 134 123 128 105 100 125 127 110 116 86 108 150 161 111 143 106 161 118 152 86 92 95 170 175 174 167 167 131 43 49 51 52 222 236 234 232 230 218 212 165 115 83 54 72 67 72 75 74 74 75 67 61 56 70 61 72 105 124 130 133 127 112 112 114 108 91 95 106 114 77 82 120 80 92 124 115 103 84 88 87 123 122 104 147 157 132 140 141 146 142 140 150 139 146 95 134 115 102 132 122 108 104 138 140 128 148 132 117 182 87 99 112 95 137 164 171 173 172 165 134 46 49 50 51 241 233 224 207 148 87 47 50 33 45 67 33 45 56 62 71 54 63 71 68 42 39 69 116 124 109 102 104 122 125 122 114 111 109 119 158 78 100 81 109 66 113 130 90 94 75 137 92 147 133 129 147 159 156 155 165 163 150 149 141 136 134 152 112 136 105 113 141 133 57 132 133 144 101 112 135 131 108 87 122 88 153 170 177 165 172 159 132 45 50 49 51 195 152 122 74 52 54 52 49 42 37 39 43 48 42 44 52 52 71 82 74 52 54 89 120 114 103 97 135 132 130 147 130 101 119 120 96 92 99 99 89 97 106 67 97 105 89 152 93 122 140 138 149 153 156 146 154 160 150 137 130 136 124 95 147 104 153 103 105 130 118 140 116 145 154 102 147 112 100 105 153 124 174 166 179 173 167 159 132 48 52 50 51 74 59 54 46 40 38 40 40 36 35 36 39 51 50 49 49 56 61 63 50 49 63 104 97 80 101 109 129 130 131 131 128 121 124 123 119 127 99 70 106 96 90 67 53 110 104 89 94 130 142 146 144 159 163 159 153 150 136 160 129 151 126 123 129 101 130 106 131 108 82 156 117 122 126 95 87 100 97 109 159 164 171 179 175 169 166 161 123 50 53 51 52 56 47 32 38 41 34 34 33 31 30 30 26 34 42 51 45 47 48 57 43 48 68 97 76 106 91 118 131 133 126 133 129 141 139 135 123 115 105 125 109 74 100 106 76 75 111 122 125 147 140 154 147 157 160 165 154 151 137 152 148 141 129 118 179 121 67 105 77 126 91 108 143 119 99 145 75 108 147 146 167 175 164 173 171 169 167 163 113 47 47 46 47 43 45 38 36 30 31 34 33 33 30 29 27 25 36 55 58 40 34 43 47 59 70 81 121 111 91 82 96 122 133 137 142 128 137 138 149 133 107 97 78 85 124 69 83 82 126 139 145 145 133 152 160 156 154 149 136 128 112 103 103 135 166 126 154 138 114 88 102 88 110 98 137 78 142 74 117 117 167 171 168 172 174 171 169 166 167 169 103 48 45 43 44 36 36 31 29 30 33 32 31 31 30 28 31 31 31 52 71 32 39 36 48 50 44 68 111 94 73 70 73 98 121 117 110 172 148 119 148 119 107 115 108 81 112 106 93 126 144 138 158 152 147 148 164 148 157 144 147 143 131 127 90 98 180 135 107 161 125 95 86 80 73 100 95 99 104 91 124 139 168 165 176 172 176 171 174 164 166 167 96 53 50 49 48 29 23 31 28 28 33 28 25 24 26 25 23 31 37 36 32 50 28 42 32 73 46 50 105 65 74 65 76 89 106 128 128 99 151 104 121 88 156 118 136 121 110 98 106 148 148 140 122 169 119 147 127 147 148 152 137 135 140 115 82 126 109 137 137 156 99 118 88 66 70 50 61 104 133 152 158 158 163 177 171 178 175 173 172 174 160 170 79 41 51 53 46 28 36 19 16 29 30 28 24 27 26 21 30 31 33 31 26 25 27 29 47 69 56 42 67 51 61 71 65 113 70 78 110 88 125 129 132 171 160 114 132 121 133 82 128 134 149 116 155 152 146 154 138 126 122 138 139 116 116 99 74 87 107 126 105 107 119 94 77 41 49 66 107 123 152 165 155 165 174 171 171 175 171 170 170 170 156 174 53 48 50 53 47 28 22 29 21 18 18 22 28 24 27 33 30 31 29 25 24 15 21 32 70 45 46 27 43 63 80 75 59 91 42 71 129 119 153 124 136 156 114 126 114 137 86 127 124 94 142 155 122 151 141 150 137 117 107 143 143 130 154 97 56 98 95 110 88 85 117 80 39 43 66 85 102 142 148 157 159 159 164 168 175 174 169 170 168 168 157 171 31 49 47 49 47 4 5 0 9 15 18 19 20 37 38 29 32 31 28 24 23 28 12 1 112 117 47 33 22 58 53 76 78 68 68 124 126 100 121 118 76 94 135 87 116 101 112 118 116 82 124 121 128 166 123 111 111 115 105 124 131 130 134 90 83 68 82 99 60 83 65 40 43 79 100 116 150 145 152 160 157 168 177 173 174 173 170 171 170 166 165 137 31 48 46 46 47 190 196 171 145 112 69 44 27 25 30 35 34 32 27 24 21 20 16 9 64 112 91 55 48 42 52 78 64 54 74 130 154 97 106 81 92 96 132 126 106 131 125 119 126 86 122 121 134 150 124 117 120 105 98 124 98 78 124 156 46 100 63 82 53 64 62 56 109 99 127 144 142 162 170 162 167 173 176 172 173 172 169 171 165 162 170 88 40 46 53 49 47 168 162 164 168 174 183 186 161 21 24 24 35 34 36 16 23 19 22 6 12 115 134 82 61 54 57 75 50 68 145 114 105 90 78 67 76 71 86 99 126 120 121 121 117 114 91 134 116 129 131 108 90 146 84 170 114 83 66 67 80 75 49 43 54 55 66 96 107 132 149 154 158 161 158 168 169 172 175 172 174 172 168 167 167 160 163 58 45 45 51 47 45 153 158 172 177 178 184 185 184 202 52 30 32 31 21 30 19 24 14 10 2 81 109 132 146 81 54 36 107 88 112 55 98 46 62 53 95 63 65 132 98 131 99 106 112 82 104 123 123 138 137 87 104 122 95 144 102 68 94 69 86 69 29 30 73 80 78 121 106 136 150 160 163 165 162 169 170 171 173 172 168 169 169 168 167 161 155 56 45 43 47 48 43 164 170 180 183 181 177 183 178 178 203 69 29 40 22 22 22 20 11 10 4 44 127 127 114 122 108 51 80 68 40 57 142 67 76 54 133 70 113 106 104 66 98 101 72 78 120 110 119 126 135 60 89 71 73 141 88 100 98 100 71 50 64 82 92 73 149 127 143 155 160 158 160 165 167 169 172 170 168 171 168 168 169 167 163 166 134 48 42 45 45 48 42 151 163 172 176 172 169 171 178 184 168 193 93 7 27 22 23 15 16 3 8 21 105 129 115 123 112 95 35 81 91 80 63 89 51 61 113 71 112 58 94 89 82 118 87 116 77 130 117 82 67 76 65 73 37 115 107 95 93 88 16 76 96 89 105 130 131 151 164 153 156 161 164 168 164 168 171 170 167 170 170 171 168 164 161 169 96 43 42 46 48 45 42 153 161 161 169 176 176 168 187 183 178 184 188 143 18 26 22 19 12 4 1 11 72 127 124 112 110 109 93 100 51 78 76 93 34 62 97 47 108 64 71 46 89 63 119 57 129 48 51 55 71 65 57 55 43 82 104 75 117 44 73 90 95 115 135 102 150 156 171 146 157 164 168 168 162 167 168 171 171 170 170 170 168 165 164 161 51 40 45 42 50 42 40 176 168 154 155 167 178 179 185 187 188 183 175 178 103 6 27 19 11 8 0 14 38 104 113 122 122 109 112 108 72 84 58 83 61 78 67 53 107 39 44 122 71 72 39 100 61 69 70 62 60 115 51 40 60 54 67 76 115 68 79 97 84 120 110 150 165 161 150 162 165 163 163 165 165 167 166 169 172 171 168 167 169 163 176 132 36 40 45 42 46 42 41 174 173 172 171 168 171 176 179 184 188 192 180 179 184 149 5 21 7 10 1 7 18 85 120 121 116 115 117 113 107 103 106 65 58 63 87 63 52 40 29 127 74 53 84 48 33 57 75 134 39 83 76 48 89 82 80 76 102 102 81 120 131 130 147 156 156 152 158 162 165 164 167 167 166 166 168 169 170 171 167 178 161 162 170 75 40 44 47 49 45 45 38 179 174 176 181 179 179 183 184 182 185 190 181 175 171 174 170 54 10 13 10 11 15 46 104 111 118 117 111 110 113 123 110 92 77 90 70 78 78 22 101 48 58 46 50 76 44 45 48 56 119 49 95 57 106 83 82 93 104 110 148 142 150 142 155 155 149 151 159 161 164 164 165 165 166 169 171 172 170 167 172 167 167 165 152 40 45 39 49 44 46 46 28
