P2
# Generated by OpenCV 4.2.0
92 112
255
11 9 25 37 23 20 68 54 56 93 93 40 48 48 45 60 82 62 67 60 55 61 70 65 73 73 80 65 59 97 74 59 78 92 127 111 86 62 77 79 72 69 73 51 55 61 86 64 131 69 123 124 161 113 115 106 97 103 111 113 134 130 140 155 155 148 144 186 189 189 188 191 184 183 151 54 57 68 65 97 182 27 4 25 39 11 10 15 33 49 39 8 9 51 28 10 15 32 44 52 53 36 45 48 51 37 32 42 53 65 74 57 70 84 88 91 106 104 91 103 91 63 82 97 111 97 79 109 148 136 101 97 101 87 81 80 63 74 86 94 112 111 156 157 123 135 133 141 129 144 152 149 154 166 168 166 174 168 180 202 202 199 193 188 187 186 175 126 46 52 93 77 105 176 28 40 12 8 9 9 23 44 42 17 47 53 8 8 19 24 39 38 32 61 59 49 44 59 55 65 84 68 80 99 110 112 124 129 124 129 136 127 127 133 125 129 127 139 152 143 143 157 155 126 118 114 95 88 81 78 103 106 121 132 162 184 159 171 189 197 197 180 177 192 192 182 187 187 186 182 198 197 199 196 195 192 187 187 185 171 92 66 58 73 68 155 134 63 34 18 7 6 13 32 43 25 44 8 10 11 21 50 28 30 48 42 49 40 22 37 51 50 57 95 112 126 133 153 143 139 150 163 165 163 168 170 160 167 183 176 165 167 169 163 167 149 154 152 128 119 124 119 107 126 137 161 144 185 182 175 207 215 212 212 205 204 203 207 203 194 196 197 206 197 197 195 193 188 190 187 188 182 144 69 55 65 104 69 153 124 7 5 3 1 8 22 40 34 5 5 9 13 18 8 31 21 22 24 37 25 24 33 43 73 108 116 128 139 153 154 145 159 168 173 170 174 178 172 172 178 173 165 158 162 169 175 176 192 168 169 170 173 163 153 149 154 146 172 174 192 193 185 203 216 216 217 215 212 214 215 216 207 205 205 205 200 200 191 190 189 187 185 189 186 172 100 65 75 96 103 104 98 121 2 0 1 7 14 34 38 4 11 9 8 8 22 23 37 44 30 18 49 50 51 68 87 107 136 145 147 147 150 152 169 169 166 169 178 178 175 181 176 180 186 193 183 190 189 186 202 219 198 194 202 199 193 195 182 191 191 201 198 211 211 215 217 214 213 212 213 211 217 216 216 206 207 204 203 198 201 195 186 184 183 190 193 188 141 87 67 51 104 129 167 90 32 7 1 2 7 27 37 12 6 6 14 21 48 57 53 52 46 91 39 39 60 68 120 128 140 148 150 159 166 153 162 169 167 170 181 179 183 189 188 193 200 200 205 204 210 209 202 220 228 210 215 219 221 215 213 206 209 207 215 218 217 217 217 215 213 214 215 217 214 215 207 205 204 201 203 199 194 193 193 188 185 190 189 196 161 124 94 81 105 93 128 99 138 19 35 0 7 18 31 27 8 16 32 35 43 7 95 61 60 36 38 52 74 90 117 151 161 158 159 169 169 159 159 171 168 174 179 180 185 194 198 199 200 206 209 211 213 214 214 218 220 220 217 215 215 217 215 211 209 212 215 217 216 217 215 215 212 210 211 215 216 214 212 209 204 204 204 203 199 194 190 191 184 188 192 193 179 143 108 103 71 122 128 172 122 39 1 0 1 9 24 6 30 16 51 70 24 109 13 82 55 62 68 58 75 131 141 157 160 158 171 169 169 165 159 172 171 176 181 182 188 194 196 200 201 205 209 211 212 214 215 216 214 217 220 217 216 218 216 214 212 213 216 216 215 215 215 214 212 209 213 213 214 213 212 209 204 201 204 199 199 191 190 191 185 184 191 193 186 163 136 107 102 76 127 183 90 137 19 3 1 4 12 4 61 44 48 23 83 21 99 63 78 74 47 86 131 148 151 155 159 168 176 170 171 166 162 168 170 178 178 184 190 194 198 202 206 204 209 212 209 212 212 215 216 216 218 216 216 219 216 218 218 213 213 208 211 213 212 209 209 209 211 210 212 214 211 210 207 204 205 200 199 196 191 190 187 183 191 195 187 168 137 136 114 86 80 143 125 152 1 0 0 4 8 27 51 37 12 102 25 87 79 81 53 58 108 110 116 133 143 159 164 175 176 177 173 166 162 169 171 173 175 185 195 194 199 203 207 205 208 212 211 211 213 215 212 212 212 213 215 215 218 216 217 213 214 213 215 212 211 211 214 214 215 212 214 212 207 210 212 210 203 202 198 197 193 190 189 187 185 191 181 160 134 95 117 131 112 86 171 94 74 3 1 4 5 13 56 18 48 81 75 99 76 71 55 67 103 111 129 132 155 164 164 173 174 181 175 164 160 168 169 169 177 187 196 194 196 201 206 211 214 213 213 213 212 214 213 215 216 218 220 217 220 219 220 218 218 219 221 217 215 213 216 215 213 212 210 212 214 208 210 210 206 202 201 198 196 191 189 188 185 188 186 168 140 118 101 98 112 94 114 150 142 0 1 1 3 6 38 18 84 42 64 64 95 39 133 72 95 100 119 135 138 151 163 172 175 181 176 165 167 168 169 170 178 187 196 195 197 204 208 208 210 212 214 213 217 220 214 213 213 214 213 212 217 217 222 220 223 225 227 221 221 221 226 224 221 221 221 220 220 213 212 211 208 204 200 195 199 197 188 187 185 191 186 170 142 104 98 84 91 99 73 141 104 57 1 0 1 10 38 56 71 48 66 93 70 87 69 80 90 108 118 113 145 160 166 162 173 178 173 169 170 167 168 167 180 187 196 195 194 200 204 204 208 210 211 214 212 212 211 212 213 213 215 215 218 214 214 212 214 217 216 209 212 208 209 210 216 211 209 210 213 213 216 216 211 208 203 199 202 206 195 190 189 191 184 174 139 127 85 86 64 87 78 131 117 111 1 0 0 47 33 77 43 57 64 84 74 92 64 66 87 82 106 125 140 152 160 152 164 176 173 166 169 170 163 169 178 186 197 196 198 202 204 209 207 214 209 213 210 209 210 211 214 214 215 213 216 217 217 214 216 215 212 219 217 216 216 220 219 216 215 214 217 216 215 215 211 207 207 206 200 204 202 193 193 195 185 161 136 114 114 66 74 65 115 63 143 146 45 0 1 75 9 65 33 25 85 85 67 59 83 71 74 100 115 121 130 141 152 150 151 166 172 170 168 167 163 172 181 192 197 201 199 204 206 212 209 214 217 217 217 211 218 215 215 217 217 218 216 217 217 215 219 215 215 216 217 216 216 218 217 217 218 217 217 220 221 217 213 211 210 210 211 208 209 205 200 199 189 176 153 123 102 114 93 72 80 83 105 162 0 0 0 71 44 58 29 70 55 66 48 70 46 85 88 99 87 101 110 133 143 154 154 161 167 169 166 171 166 170 182 198 201 207 202 204 209 213 216 219 216 217 223 223 215 216 215 219 219 220 218 220 214 213 217 217 219 215 215 217 215 218 220 220 221 221 221 223 222 221 216 216 213 213 215 212 208 203 203 203 193 168 162 133 92 84 87 84 83 83 55 149 21 0 1 6 45 33 38 48 74 50 44 45 79 57 78 75 88 118 125 137 146 146 141 144 159 170 172 171 164 168 179 193 203 206 202 202 208 211 213 216 219 220 220 213 218 215 218 222 224 220 224 224 223 222 220 223 223 217 221 212 218 222 220 223 218 219 222 220 222 221 214 214 214 214 218 214 209 200 204 201 193 171 134 125 91 113 110 86 88 48 63 136 82 2 3 29 24 14 35 56 68 47 49 59 44 47 79 110 104 119 124 138 153 143 142 143 153 170 176 178 175 176 180 189 201 203 202 202 205 204 208 212 213 218 217 218 219 215 218 220 223 222 222 221 225 222 222 221 219 220 222 218 219 220 222 222 221 218 218 217 220 221 213 213 217 216 213 213 210 202 204 203 189 167 147 103 98 103 70 118 69 78 79 94 85 5 4 25 60 20 31 100 54 42 42 36 45 73 74 113 105 102 123 130 139 146 144 146 156 168 170 181 178 176 178 185 196 202 203 199 200 202 209 213 212 215 216 216 215 217 219 220 223 221 226 224 225 224 219 225 228 226 225 223 221 220 223 221 221 219 220 219 217 213 212 212 214 212 211 213 212 203 206 204 192 173 137 135 102 85 86 87 67 68 69 64 106 4 2 16 12 22 72 54 52 21 45 27 41 91 85 77 83 94 110 127 137 131 149 151 156 164 171 184 183 183 183 188 197 202 203 201 201 206 208 209 211 207 216 217 218 218 219 220 225 219 224 223 224 223 223 224 227 222 217 221 217 213 217 220 216 217 213 212 211 210 211 211 212 210 209 211 211 206 206 205 197 184 142 98 71 83 97 66 87 55 69 49 84 3 1 10 14 39 60 51 22 50 39 30 76 81 71 73 70 86 105 109 139 151 149 152 153 155 168 183 184 186 186 186 195 202 204 203 203 205 209 207 208 212 214 208 209 215 216 221 217 218 222 220 223 222 224 218 213 210 213 216 210 210 212 205 207 204 210 214 215 214 214 214 211 208 211 209 208 203 205 207 199 187 153 96 75 54 70 71 68 54 54 56 86 6 1 24 7 56 48 17 35 36 12 72 67 67 51 53 69 79 101 122 110 127 152 159 157 161 174 182 178 187 187 189 196 201 203 203 201 201 207 206 211 209 216 212 216 215 215 217 223 223 223 222 222 222 221 221 223 220 217 216 211 212 209 207 207 208 213 211 208 211 213 214 214 209 208 206 209 208 203 204 197 189 162 115 85 70 58 71 63 62 56 58 92 30 7 6 22 53 30 21 40 10 48 54 69 40 56 69 81 88 78 87 120 130 141 154 156 163 165 175 176 184 183 185 192 196 196 198 198 192 200 201 205 206 207 204 206 209 210 213 208 206 206 206 213 215 216 215 215 216 212 211 212 211 207 204 204 209 210 210 211 208 210 212 214 213 210 205 206 207 204 201 196 192 169 126 82 56 54 53 54 72 57 69 88 19 7 16 32 46 20 38 14 10 82 74 44 47 51 64 57 56 82 88 113 121 143 159 157 159 164 178 182 179 184 187 192 194 199 200 194 195 202 202 206 206 204 204 204 207 207 207 206 209 209 207 214 213 209 208 207 212 212 209 211 205 202 206 207 206 209 213 213 213 212 211 211 213 214 209 204 200 197 193 192 191 181 128 66 54 58 40 39 48 38 67 99 37 7 15 26 22 16 26 12 77 50 42 26 48 44 52 53 73 66 82 108 126 152 161 156 157 163 174 180 184 184 182 187 196 199 191 194 194 197 202 205 204 207 205 206 207 212 207 214 213 207 205 203 207 207 210 209 209 213 210 208 205 202 207 211 212 209 214 215 211 213 213 212 214 211 210 208 196 194 192 190 192 192 157 84 48 45 49 34 37 41 91 99 50 23 15 38 7 17 18 28 85 40 16 37 41 35 52 51 57 78 90 111 132 153 157 154 157 167 169 180 185 180 182 186 190 191 192 196 190 196 204 203 205 206 203 208 208 211 210 209 204 202 203 207 207 206 211 211 211 209 210 210 209 208 211 208 215 218 212 213 216 215 211 211 213 211 208 201 200 194 195 195 194 189 166 124 47 21 28 33 39 54 88 95 47 38 25 40 4 23 20 73 43 18 23 31 33 46 52 60 67 73 91 107 132 153 155 156 162 164 171 183 183 183 184 185 186 185 193 196 198 203 208 206 207 209 208 212 210 207 208 203 203 203 208 206 211 207 204 209 219 216 213 212 216 218 218 221 215 211 210 210 213 213 214 213 212 209 205 201 202 198 191 192 198 194 176 164 38 33 38 24 40 38 80 104 49 39 22 36 9 29 14 75 49 18 28 25 36 41 51 48 70 79 95 114 131 148 152 159 162 162 170 176 183 184 181 180 182 183 198 203 202 202 204 212 209 214 214 214 214 211 214 209 210 209 207 210 208 212 215 212 214 218 213 214 219 224 218 203 215 213 218 218 216 212 214 217 211 211 205 204 199 195 195 185 192 195 184 192 29 28 34 41 38 27 121 88 24 43 10 16 24 35 37 44 17 22 24 15 44 38 47 49 65 74 103 135 137 142 144 151 159 161 166 180 176 176 182 180 180 187 199 207 204 203 209 207 206 212 211 211 217 215 215 218 219 217 213 218 219 212 209 214 221 217 227 225 226 227 224 223 222 214 219 224 220 209 223 213 216 215 214 202 180 177 183 188 182 187 186 185 74 40 36 51 53 25 89 84 37 21 11 9 22 34 48 48 25 31 13 29 46 44 34 60 77 106 122 149 150 145 142 149 150 158 171 174 168 175 177 184 189 191 197 206 206 206 209 210 216 218 217 221 215 215 220 219 224 227 225 226 224 222 223 217 228 219 230 229 224 222 223 228 225 221 226 225 209 211 195 214 217 219 203 180 178 162 162 180 189 175 186 183 85 47 45 55 61 40 99 82 37 28 46 18 19 29 53 22 19 14 33 57 40 21 49 81 113 133 135 141 145 147 147 145 139 163 173 167 174 172 181 184 186 199 203 212 213 214 212 213 220 221 220 221 224 230 229 220 225 224 229 227 218 227 222 223 226 223 223 228 213 215 217 219 222 214 221 198 168 157 171 156 175 175 175 154 143 127 134 125 152 189 180 186 125 50 44 53 77 59 87 68 49 30 55 38 25 16 59 45 24 23 61 31 16 40 72 107 138 144 142 139 141 145 139 140 137 165 165 166 171 161 157 163 175 194 196 201 196 193 193 200 207 214 221 223 215 223 222 222 225 226 223 217 218 221 222 226 218 217 212 219 209 196 200 203 192 163 159 114 131 147 113 131 122 130 148 146 154 164 170 180 160 141 164 185 168 46 67 50 53 75 100 59 46 38 5 42 33 46 49 40 11 89 31 17 34 61 90 130 145 142 143 142 138 142 136 130 137 160 164 155 126 138 148 162 166 158 164 147 129 133 128 139 153 158 165 174 172 213 187 207 210 207 210 209 206 216 215 216 208 204 204 205 197 187 170 178 154 128 121 116 118 95 108 103 116 102 87 99 115 130 131 129 135 128 152 178 182 47 69 69 68 114 84 60 42 44 24 31 64 53 48 30 33 33 21 18 41 69 116 145 145 140 143 140 138 139 124 125 147 138 99 101 118 131 143 141 132 133 121 130 118 105 117 112 108 114 121 133 148 159 179 189 191 198 201 200 202 208 209 211 202 201 189 192 201 190 177 164 149 137 112 133 114 93 81 111 97 96 95 103 104 109 130 139 144 147 141 181 182 132 54 84 52 97 75 49 41 33 11 9 70 58 37 20 89 21 8 20 55 95 134 144 143 140 140 139 137 126 113 135 114 121 107 87 102 127 120 113 113 104 113 96 97 83 74 77 83 87 109 125 141 127 173 161 175 168 183 201 197 207 213 207 204 202 188 191 195 184 173 164 137 142 126 125 100 99 120 130 135 147 155 145 163 155 169 145 135 130 147 179 180 127 119 80 93 80 81 72 35 29 10 7 65 55 47 33 52 27 20 72 67 105 133 149 144 145 143 141 134 120 122 112 103 119 124 134 133 130 132 134 118 110 105 97 114 114 94 88 100 109 105 120 140 141 155 162 168 183 179 191 190 200 210 211 205 195 187 190 189 176 167 151 148 132 124 121 148 168 171 176 182 183 183 191 181 177 170 167 151 137 162 181 193 154 121 140 65 75 71 63 29 31 6 8 76 50 42 53 49 30 63 42 59 102 136 152 143 141 139 136 132 112 119 106 101 124 123 122 132 135 138 140 156 161 163 187 180 179 176 163 141 125 115 117 117 137 137 155 160 176 189 190 180 188 206 215 204 192 187 181 168 159 154 143 124 125 139 162 159 166 175 189 198 199 200 194 197 191 179 166 152 156 153 175 202 176 135 86 122 104 70 44 32 33 13 13 53 66 49 42 53 48 46 34 66 110 137 152 143 144 142 134 124 119 121 118 112 126 116 114 141 159 182 193 192 192 207 217 218 217 211 202 176 154 134 119 117 115 128 139 153 163 169 171 178 190 208 212 202 194 186 177 160 149 134 117 128 147 131 98 97 108 106 89 103 130 157 182 198 197 193 185 183 180 182 182 172 185 120 152 116 101 73 35 25 42 9 78 29 66 38 57 44 30 25 56 82 125 132 146 140 151 152 132 133 123 117 126 122 126 133 148 160 181 185 195 212 216 219 226 210 175 146 118 122 125 133 125 121 115 113 118 124 129 148 155 170 186 204 215 208 198 186 172 154 144 136 148 144 117 118 154 126 73 57 12 22 19 42 54 84 115 170 187 191 182 191 180 186 192 149 111 124 131 64 18 29 38 67 53 72 74 37 38 22 19 54 86 124 131 140 146 148 148 145 138 130 124 132 130 134 142 162 160 177 184 197 192 150 126 55 41 45 94 139 189 172 129 80 105 128 127 123 118 120 121 120 144 160 182 206 217 214 202 199 171 156 160 161 148 122 147 149 78 45 38 152 197 9 149 148 91 54 93 94 150 187 193 188 190 189 192 146 123 125 99 39 45 27 36 67 45 57 77 33 48 25 43 87 113 118 129 144 142 150 143 145 143 146 149 147 141 143 153 152 165 166 141 85 39 25 50 78 44 12 206 95 68 165 164 173 121 116 125 130 125 142 137 133 133 162 189 213 215 214 203 193 179 178 173 153 132 161 141 143 157 105 51 0 83 43 113 211 154 114 58 88 136 149 191 196 194 195 200 163 124 130 114 82 69 42 33 94 101 84 13 25 39 9 81 104 107 124 136 154 145 153 141 146 146 156 155 162 153 152 145 157 150 106 59 45 48 67 7 61 95 11 28 85 253 162 134 160 171 149 137 132 130 135 147 153 138 160 190 214 214 213 209 207 174 194 167 161 204 133 159 163 182 120 109 120 132 109 184 171 173 156 177 127 132 153 180 189 183 195 199 182 139 135 96 40 33 30 23 110 79 14 22 39 13 82 69 112 123 129 139 144 146 153 136 143 141 167 172 153 149 149 144 145 112 90 52 103 115 140 26 71 65 99 76 161 231 232 156 102 132 162 189 146 155 141 152 163 143 151 180 205 213 214 206 194 187 186 178 190 138 129 165 176 186 183 197 182 164 172 153 193 201 199 180 175 184 190 197 202 192 199 192 192 165 141 96 14 19 16 12 144 42 16 35 25 56 81 118 110 104 115 135 147 148 148 140 149 150 162 166 171 151 138 137 136 123 110 148 158 164 177 166 144 137 101 174 211 192 201 185 164 164 107 154 189 169 168 157 167 142 149 183 204 207 209 204 203 193 188 196 213 181 184 202 196 190 190 198 209 214 212 218 209 199 181 180 189 211 211 205 199 198 197 200 192 148 169 76 14 9 9 7 36 72 20 49 32 50 84 111 113 101 126 144 147 153 149 142 150 161 166 164 165 171 156 143 135 134 152 165 174 188 190 188 159 187 180 194 185 200 209 208 199 203 195 197 210 197 180 162 175 138 156 192 203 205 207 206 204 203 194 196 207 211 202 195 184 178 176 191 200 196 190 189 176 170 166 178 206 204 198 204 205 202 203 201 199 164 139 125 0 1 1 1 76 33 56 25 46 80 108 108 120 125 115 137 147 152 149 147 149 163 172 177 178 171 167 171 164 160 149 168 178 200 199 200 216 208 187 204 207 216 188 188 199 210 217 223 214 196 178 172 167 147 186 202 205 206 208 206 204 206 204 193 203 214 206 205 201 173 145 136 145 148 148 146 151 158 184 205 187 202 213 209 200 208 209 199 201 152 169 170 0 0 0 0 51 71 52 23 42 81 95 111 122 133 113 137 153 144 151 153 157 171 175 170 175 187 188 188 170 154 160 137 149 155 168 181 186 192 186 178 179 169 160 166 186 196 204 205 192 187 181 177 155 159 204 205 202 204 207 202 203 208 207 201 199 211 219 220 209 205 207 204 196 187 186 192 184 196 204 199 212 209 208 209 208 208 206 198 205 177 157 159 0 1 0 0 108 74 59 32 55 68 70 117 116 77 121 152 146 149 150 151 162 173 180 182 179 182 188 188 190 199 173 138 174 135 143 129 125 131 133 135 141 158 184 205 206 207 203 196 189 185 182 170 153 175 203 207 204 206 204 199 201 204 213 212 205 211 214 220 223 221 218 215 214 209 208 207 215 219 222 218 213 213 212 207 200 210 205 195 202 191 143 154 0 0 0 0 113 145 56 60 67 136 123 94 128 96 115 139 141 150 151 155 166 171 179 181 181 181 186 198 209 187 199 211 204 196 187 188 180 181 193 197 204 204 211 211 216 214 206 193 189 186 176 160 159 168 187 198 205 202 208 202 199 196 215 201 199 208 213 215 221 225 226 227 224 221 222 221 218 218 213 219 217 213 211 208 204 205 209 197 196 191 160 126 55 0 0 0 156 141 32 72 81 66 127 91 97 88 122 140 148 147 149 154 165 172 181 184 182 180 191 198 195 209 211 198 201 210 209 206 212 213 221 224 219 220 221 225 227 210 201 198 193 183 168 162 160 166 179 183 199 195 200 201 195 202 208 198 201 201 212 212 218 229 228 226 227 228 223 223 226 220 220 220 217 212 209 208 208 204 203 197 197 196 138 137 50 58 0 0 151 119 50 51 75 107 147 98 105 97 108 144 146 147 148 155 163 175 175 176 174 182 187 197 207 207 203 217 216 216 216 214 218 217 224 223 222 228 225 222 219 214 201 194 183 172 163 158 166 169 173 187 193 192 194 196 193 198 206 196 203 200 215 218 216 224 224 228 225 229 228 224 221 217 220 219 215 211 208 211 208 208 204 197 191 199 160 147 88 0 6 1 154 125 53 71 48 93 160 118 84 96 130 140 149 147 148 152 164 176 175 173 178 186 189 199 197 200 214 215 212 214 214 212 217 214 220 219 222 225 220 217 216 219 199 187 176 163 161 163 166 164 169 176 188 192 202 197 195 194 197 192 204 197 209 219 220 223 200 207 219 222 218 220 217 221 215 215 217 214 212 206 203 208 210 201 192 208 126 141 35 2 0 0 178 179 98 105 94 74 132 110 122 99 101 138 147 143 145 149 164 174 174 175 173 188 196 196 192 204 211 207 213 206 203 204 209 211 212 219 224 220 218 220 219 213 189 176 168 163 162 163 162 162 164 172 181 186 195 195 199 197 195 189 196 199 204 213 226 223 222 209 219 219 215 214 219 218 217 216 211 214 215 207 205 207 205 200 192 206 138 145 7 0 0 0 189 204 168 160 103 82 129 104 122 73 115 129 138 136 140 147 161 169 171 174 176 186 192 196 204 200 210 205 208 199 204 198 206 212 212 218 217 221 217 218 215 207 189 172 165 164 165 164 163 164 161 171 177 186 200 198 195 196 194 184 191 193 196 208 209 223 227 223 219 210 218 218 218 215 213 211 211 211 209 213 209 208 206 198 196 209 96 142 37 48 102 164 184 196 196 181 142 111 81 95 116 78 106 129 140 140 144 152 163 168 172 174 180 180 187 196 198 198 200 197 198 201 203 204 209 213 217 217 218 219 216 210 208 201 190 184 171 167 161 160 161 167 168 170 171 194 202 203 199 198 193 187 184 188 192 199 209 212 219 219 219 218 217 213 216 214 214 210 208 210 210 213 210 210 205 198 188 208 113 139 229 246 250 252 196 198 202 194 159 154 125 83 107 92 107 128 135 135 138 155 161 168 173 175 181 175 188 193 196 194 191 194 194 200 204 206 208 211 214 216 217 217 212 206 204 201 198 188 165 163 156 160 163 167 168 173 176 197 206 205 205 201 197 204 194 187 186 199 203 208 217 219 220 219 219 215 217 218 218 211 210 212 210 213 208 207 203 197 185 193 129 140 254 251 252 253 190 206 209 191 145 155 150 102 104 88 101 120 136 133 136 154 159 166 177 171 179 178 187 185 187 188 194 196 198 201 203 208 208 209 210 211 213 211 209 211 214 214 203 176 157 156 155 156 172 174 174 174 175 197 206 206 204 202 205 216 213 201 183 195 207 207 213 215 217 218 218 216 217 218 219 215 212 212 211 211 207 204 204 199 189 192 92 169 253 254 255 254 171 217 225 174 155 172 151 108 119 75 86 111 127 128 137 151 162 169 179 158 179 180 177 181 190 192 203 200 206 208 209 208 211 214 214 214 215 216 218 220 228 228 196 169 159 154 151 148 174 179 176 182 179 194 200 209 202 198 212 217 211 210 192 177 200 211 212 211 214 217 220 217 219 217 216 217 213 212 216 212 206 197 196 192 191 183 118 192 250 252 255 253 146 191 197 184 145 174 157 97 118 42 99 108 111 126 132 157 166 174 171 156 173 182 172 185 193 193 200 208 215 215 215 211 205 212 214 217 219 219 223 224 228 210 171 167 154 152 151 153 176 181 188 182 180 185 191 204 204 201 205 214 212 212 202 185 201 212 217 216 218 217 219 222 223 222 220 217 215 216 219 215 211 203 196 191 182 186 83 212 228 254 255 254 132 151 179 171 145 199 178 134 95 83 54 105 145 120 128 148 160 171 167 170 168 170 174 182 192 196 203 205 215 217 218 214 209 209 210 215 221 223 221 220 215 185 158 162 150 147 149 161 176 180 179 167 159 171 175 194 204 199 192 204 215 215 206 191 189 203 214 220 220 218 217 221 223 223 222 219 217 214 214 212 207 197 190 182 177 154 109 197 202 254 254 254 160 150 162 148 127 198 187 124 73 78 69 94 114 118 131 142 152 170 164 165 164 176 171 184 191 198 204 208 216 216 214 220 219 215 217 217 214 209 215 209 192 169 163 153 153 152 156 172 181 177 171 154 156 179 200 206 204 202 190 185 196 198 201 193 189 202 211 215 216 218 216 218 220 219 219 220 217 212 214 214 210 200 188 179 169 140 143 207 202 254 254 254 202 179 179 150 129 190 190 147 72 75 63 96 111 126 121 140 153 161 165 162 162 172 176 182 190 194 202 208 216 210 220 219 217 219 214 208 209 207 209 203 182 165 144 149 144 148 158 179 180 175 171 137 170 199 213 231 222 221 199 203 190 199 205 201 188 197 205 211 211 212 213 215 214 216 218 217 215 212 207 210 203 193 188 174 164 147 149 201 201 240 254 254 190 176 195 181 164 195 171 155 82 83 87 101 115 115 130 132 147 161 154 160 161 174 177 185 196 196 206 204 210 209 212 219 213 216 210 206 206 208 203 198 186 173 140 144 138 143 151 164 182 173 151 153 193 229 246 227 233 233 221 215 202 210 200 190 175 191 207 212 209 208 210 209 214 212 216 215 207 206 202 206 198 196 183 169 167 106 155 212 202 231 254 254 173 181 193 188 183 183 181 139 132 87 97 88 116 121 119 125 144 160 150 155 160 171 175 188 189 196 196 196 206 199 207 212 210 212 210 209 207 207 200 190 185 176 156 128 130 130 129 140 147 147 140 144 185 212 201 202 190 196 210 219 209 173 162 151 157 188 209 206 206 204 206 206 210 210 211 208 208 205 197 198 200 192 181 171 165 123 172 193 172 247 254 254 181 184 192 189 184 184 175 157 136 74 70 97 75 133 110 120 142 158 156 154 155 165 176 186 191 190 193 186 193 201 202 210 204 209 208 208 203 204 187 186 182 170 165 123 116 109 88 75 103 135 125 115 143 172 183 176 178 170 197 192 162 144 89 113 152 188 204 204 204 197 207 207 208 209 207 204 203 202 197 185 191 191 182 180 146 119 149 187 207 254 254 254 178 182 191 188 189 192 187 168 116 104 83 100 103 121 101 114 143 149 154 156 160 162 171 184 189 186 189 192 194 199 201 206 204 202 198 196 204 201 184 173 168 166 165 166 116 72 67 78 36 20 80 100 123 140 145 152 149 140 148 143 75 16 85 124 162 196 198 207 201 199 200 203 204 206 203 204 194 194 188 186 181 187 187 175 156 138 123 225 250 254 254 254 180 186 190 194 191 202 191 170 145 77 75 83 91 117 100 140 141 146 159 156 160 163 169 177 183 185 183 186 184 194 182 182 198 196 189 199 198 194 185 179 177 181 178 158 129 128 120 103 112 134 92 29 81 92 107 112 112 109 117 118 132 131 131 132 175 190 199 203 200 199 196 199 203 206 202 201 192 188 186 175 176 192 187 165 170 159 251 249 254 254 254 254 164 172 184 188 182 175 172 109 124 74 95 80 123 99 105 117 142 143 157 158 157 158 165 174 179 182 185 187 182 187 182 188 200 194 197 205 198 192 184 177 163 166 161 138 124 103 141 118 144 126 163 157 82 41 49 48 79 87 135 166 174 156 142 166 163 167 191 203 200 200 195 190 190 194 197 192 189 182 179 169 175 184 189 177 130 118 248 251 254 254 254 254 92 114 147 148 150 125 41 13 68 104 83 101 83 100 85 121 142 135 157 153 156 155 162 171 176 179 184 184 189 186 195 201 202 199 180 196 184 180 166 161 121 150 118 128 123 137 88 78 138 113 175 144 114 62 122 157 98 168 179 129 133 133 121 117 172 181 190 199 203 199 193 194 186 189 189 182 186 181 170 172 183 188 186 160 165 128 248 254 252 253 254 255
41 38 20 20 79 86 47 39 73 135 68 98 123 61 111 133 131 155 169 154 152 152 161 166 173 175 180 180 178 191 200 212 196 180 176 173 167 159 156 137 134 125 150 102 138 121 120 85 127 151 140 107 105 106 168 123 83 102 125 157 109 108 141 111 148 177 191 199 200 195 189 194 196 192 182 182 188 181 177 176 192 187 180 180 151 132 252 254 253 253 254 254 77 82 87 93 111 97 73 70 102 146 113 107 146 91 103 128 135 146 167 161 158 152 160 172 175 174 171 181 182 199 196 198 186 163 173 159 140 150 143 131 111 130 104 100 141 99 115 168 156 129 151 141 157 95 114 119 86 116 101 145 119 121 101 123 94 131 166 195 190 195 184 170 175 189 178 177 187 186 177 185 193 200 186 163 157 134 252 253 253 254 254 254 108 113 122 132 144 124 85 114 101 135 105 110 135 96 108 120 147 139 166 155 163 157 163 175 177 176 171 177 190 193 187 160 143 119 114 115 135 117 129 109 116 105 108 141 105 105 125 130 211 128 140 115 145 58 142 131 79 67 55 130 115 146 88 87 75 135 144 181 175 178 178 165 161 179 199 188 183 185 181 172 192 189 183 161 132 145 251 253 253 253 254 254 110 122 132 140 135 145 121 129 121 101 126 77 105 77 127 121 140 138 166 168 158 151 167 171 178 175 170 174 189 199 158 124 114 101 110 97 98 136 110 126 136 103 90 105 112 120 108 143 146 117 146 139 95 125 119 126 97 79 57 92 125 113 83 100 103 104 118 162 164 155 159 160 147 174 180 165 181 189 171 178 196 197 184 168 134 165 250 255 252 255 255 254 104 108 120 137 137 135 157 134 125 90 111 85 111 79 122 137 118 137 156 164 147 150 178 170 176 170 162 173 180 175 131 139 110 93 119 105 121 116 111 123 103 106 77 100 112 106 109 115 82 159 167 79 90 128 134 107 154 88 123 95 112 55 93 100 91 113 110 124 160 150 166 143 128 158 179 155 170 176 166 167 187 181 170 164 152 146 253 255 255 251 255 254 97 107 112 138 125 136 133 150 128 125 89 95 103 124 124 148 127 142 134 160 160 150 181 172 174 165 158 161 179 142 107 131 113 74 121 69 87 157 86 106 116 82 111 107 150 100 119 103 78 181 144 96 97 100 121 109 135 104 79 82 106 101 139 118 80 144 103 89 127 129 142 105 123 134 145 133 149 164 176 144 197 185 180 128 136 170 249 255 253 255 255 254 93 97 104 117 117 124 126 121 128 116 102 104 132 122 127 142 127 135 158 154 156 147 172 179 159 172 160 150 179 163 102 101 52 168 59 91 111 157 97 95 112 89 147 147 106 119 119 124 125 118 96 138 96 109 123 110 122 118 98 104 97 98 143 118 76 98 84 78 118 110 119 110 134 135 108 124 124 172 162 148 218 173 174 155 141 160 254 252 253 254 255 253 89 92 98 100 110 119 126 125 135 142 114 89 94 99 117 137 111 132 126 146 159 157 149 150 168 149 157 153 168 151 113 73 41 140 72 85 85 87 95 83 87 58 106 84 90 94 113 119 117 117 113 127 122 120 140 156 143 129 127 121 113 127 109 106 109 95 124 104 119 126 88 88 90 76 156 145 134 161 149 167 205 173 200 120 163 186 254 255 255 255 255 254 87 91 94 97 104 109 114 117 128 126 122 100 128 106 111 126 116 129 133 139 158 156 170 142 142 137 151 146 139 185 114 79 98 92 163 93 75 49 27 80 95 127 112 85 115 120 105 117 111 101 98 99 98 102 97 94 97 100 112 125 106 115 95 106 110 165 106 113 104 134 71 84 89 117 121 158 173 142 134 168 203 211 161 145 149 179 254 255 255 254 254 254 100 103 99 101 106 104 113 124 122 129 128 101 130 113 115 91 112 111 147 139 151 165 147 147 132 136 138 146 96 167 110 119 106 113 143 131 130 125 87 103 101 167 153 171 187 179 177 192 204 213 208 225 215 212 194 196 202 199 172 136 147 105 69 70 57 63 41 56 66 59 56 109 88 116 131 147 152 155 107 197 189 195 144 138 136 212 254 255 255 255 255 254 139 136 134 132 134 134 128 130 123 142 145 114 128 126 106 96 112 105 114 150 147 159 138 152 135 128 117 145 138 138 148 144 92 118 140 178 174 168 152 130 113 111 115 114 115 132 145 188 230 199 213 240 241 240 224 231 239 238 235 183 226 144 84 110 96 94 113 134 161 144 132 115 99 128 124 126 173 109 138 179 185 168 133 134 171 201 255 255 255 255 255 254 169 168 166 166 167 167 160 166 143 147 144 127 68 118 106 109 144 118 122 127 142 163 131 165 141 118 122 98 149 165 149 144 121 94 162 192 177 168 154 148 154 144 136 123 133 131 164 148 145 143 154 157 157 164 162 179 184 178 167 149 138 144 143 145 148 143 147 172 173 166 159 139 138 109 117 151 134 99 173 158 146 144 148 97 128 225 255 255 255 255 255 254 183 179 179 179 182 181 177 179 163 177 151 120 129 97 98 103 123 143 117 140 149 161 114 144 154 131 122 116 132 159 136 148 115 123 157 162 175 168 163 170 162 131 145 141 159 168 161 159 172 175 172 164 165 173 163 171 163 165 167 170 172 166 185 177 179 176 177 190 186 186 178 159 127 112 147 144 112 86 134 120 163 141 136 134 123 247 255 254 255 255 255 254 186 180 182 184 187 185 184 184 181 179 160 118 120 104 107 95 132 125 116 129 130 168 139 131 144 139 130 121 102 137 151 117 82 144 169 187 177 165 167 157 169 162 155 153 161 172 179 177 186 181 180 181 177 174 175 179 162 174 177 182 194 200 186 191 186 185 189 185 172 167 177 170 142 148 125 132 143 80 138 186 148 109 156 118 147 247 254 255 255 255 255 254 184 183 183 187 187 184 185 182 187 187 151 106 112 102 103 94 123 126 127 147 109 149 155 123 116 132 136 110 113 111 142 138 105 155 186 150 176 168 161 160 156 148 161 187 176 178 171 183 189 190 201 188 199 183 183 189 175 184 189 185 190 184 188 182 179 169 166 143 161 175 179 166 168 125 126 101 104 127 147 174 115 143 139 138 180 252 255 254 254 254 254 254 185 184 186 187 189 185 186 185 190 183 178 119 123 106 104 120 101 117 117 141 130 142 124 165 139 123 113 119 103 102 134 119 97 134 152 173 172 165 158 158 143 156 149 160 174 180 166 177 160 144 182 169 174 168 160 162 148 144 147 152 154 170 156 147 145 156 165 151 147 166 174 188 162 140 125 98 100 148 152 143 114 121 168 93 218 248 254 251 251 249 248 246 184 182 185 186 188 185 187 185 185 193 191 99 127 76 95 107 130 107 119 120 120 149 140 160 141 128 118 122 90 91 123 114 128 133 150 191 164 163 162 157 167 162 153 159 142 171 165 140 162 159 160 136 148 142 132 133 113 125 153 160 138 141 145 138 144 151 161 153 163 176 170 155 170 134 136 98 71 102 162 132 117 141 152 131 228 242 232 228 227 228 229 229 182 182 183 185 186 184 186 185 189 192 174 166 113 83 110 119 78 121 97 131 97 149 132 113 147 128 124 126 70 76 108 90 103 125 123 160 180 173 167 168 169 165 158 152 130 147 134 138 151 158 152 153 175 154 127 105 111 110 147 152 139 124 156 131 177 153 151 171 162 169 173 163 135 172 111 94 99 143 126 140 122 135 168 147 212 216 212 211 210 210 207 202 182 180 182 183 184 184 185 187 181 178 188 212 102 103 113 92 104 125 112 116 120 86 110 114 150 117 124 109 89 89 48 68 89 115 164 174 157 155 174 164 168 166 165 159 155 143 150 148 153 145 183 151 156 163 184 100 148 149 182 143 143 141 123 173 154 144 152 136 169 169 170 169 159 132 85 128 99 138 115 125 129 153 138 172 206 195 193 188 185 181 175 171 183 183 185 186 187 187 187 187 192 187 196 189 116 104 98 91 86 121 135 101 107 119 127 119 131 100 112 64 124 57 83 111 102 124 161 173 150 169 152 149 167 150 166 164 171 126 130 165 160 199 158 131 165 149 156 144 99 164 129 135 141 150 168 151 149 176 159 164 175 158 153 162 137 133 124 114 108 143 119 137 117 124 137 185 177 178 177 173 170 167 165 162 185 183 184 186 187 187 186 186 190 194 198 187 142 115 76 76 70 104 88 84 96 98 133 109 103 80 75 111 94 97 79 87 120 124 160 164 124 139 182 170 175 162 159 174 159 133 171 167 188 163 140 156 141 121 149 179 125 149 129 135 124 151 124 152 164 170 172 173 164 159 149 149 162 109 130 82 103 154 115 121 145 135 166 171 171 172 168 163 160 159 158 156 188 186 187 187 189 186 189 187 187 194 191 192 176 108 95 62 65 72 60 81 79 119 98 114 113 86 82 86 78 88 57 84 88 119 140 130 137 146 168 170 171 178 167 161 152 145 162 173 177 170 133 130 127 136 177 159 142 91 136 132 144 135 121 145 166 173 160 158 141 148 144 136 152 146 118 114 142 138 122 148 86 170 148 164 165 160 160 155 152 153 153 155 188 188 190 187 191 189 189 191 191 193 191 189 211 52 79 77 46 74 62 76 100 80 81 71 102 83 112 96 57 58 76 78 101 115 117 154 139 144 154 166 173 178 163 179 173 183 178 187 193 149 155 130 139 164 123 158 136 95 96 122 150 137 139 146 154 159 170 165 160 119 132 151 140 148 121 96 140 141 105 114 126 141 171 157 159 156 156 155 154 155 155 156 189 189 190 189 192 190 191 190 192 191 190 192 205 74 88 65 30 45 53 30 95 80 116 86 96 116 83 64 69 86 84 86 96 136 125 140 143 113 146 126 165 171 163 171 174 189 181 172 154 147 163 152 144 105 117 94 164 114 115 156 148 170 168 163 153 167 169 158 145 138 123 102 137 120 156 106 144 110 110 120 126 139 162 157 155 156 155 153 156 158 158 158 186 185 187 188 190 191 193 195 196 197 192 195 193 129 122 62 93 31 76 32 50 69 73 90 127 31 91 44 68 91 70 81 80 85 130 129 117 133 127 123 162 144 166 163 175 176 172 166 164 138 148 155 156 113 108 143 111 107 138 137 137 189 154 153 168 178 154 156 142 152 85 120 122 77 115 137 142 148 121 126 157 169 153 156 155 155 156 153 156 157 157 158 149 158 162 168 173 177 184 183 188 188 190 195 198 120 148 105 81 54 51 6 66 31 55 47 86 45 49 90 113 76 94 79 70 85 112 124 99 116 139 148 132 108 121 149 154 168 130 124 142 160 154 162 166 169 130 163 148 129 166 173 174 197 168 162 125 152 158 117 131 137 86 91 96 125 102 109 153 114 119 125 138 148 145 142 149 148 148 148 150 149 151 152 82 88 98 108 116 124 134 141 148 151 153 162 168 154 134 152 117 63 35 6 71 11 52 90 7 27 70 72 55 118 77 96 96 83 81 111 116 107 134 117 118 107 98 132 146 122 128 152 165 166 164 200 187 167 142 168 170 109 150 186 133 187 157 172 164 135 137 165 147 135 122 89 93 74 93 76 115 138 135 140 141 143 142 139 140 141 140 141 144 147 147 148 31 34 37 39 41 46 53 56 61 71 81 90 95 106 134 149 137 124 84 40 60 11 46 41 13 24 73 68 102 79 67 83 46 66 75 79 116 138 122 134 114 79 102 123 119 126 157 157 145 156 171 179 176 173 142 158 159 130 133 133 130 180 151 147 134 133 98 131 121 160 83 94 116 95 78 43 129 126 234 144 137 142 140 142 143 144 145 146 148 150 150 149 40 34 35 30 31 26 29 29 26 23 25 28 30 32 131 151 157 139 108 66 83 37 45 78 4 68 25 61 49 45 51 57 63 63 64 79 81 97 126 90 74 106 105 149 138 124 140 158 145 138 141 178 181 162 155 132 154 146 137 137 136 157 142 130 112 146 124 129 154 110 113 64 85 68 75 111 141 161 255 0 95 156 143 150 148 145 151 156 154 156 154 154 66 62 60 53 52 49 48 46 41 36 34 27 20 24 121 140 156 155 140 111 81 73 9 13 31 44 52 46 63 21 35 68 52 74 67 50 70 147 101 108 92 109 120 125 147 153 112 129 135 119 152 155 136 114 165 163 121 155 151 130 140 170 154 131 108 131 142 123 140 122 91 65 63 77 44 141 133 219 255 3 21 55 174 158 153 140 148 157 166 164 161 158 93 88 85 85 82 84 81 77 72 69 70 63 59 56 133 136 148 155 147 141 122 67 63 13 41 4 4 86 74 58 49 33 23 15 25 54 58 119 129 116 153 106 124 133 128 136 110 132 115 125 130 162 134 127 150 140 167 146 151 150 110 170 166 103 102 139 110 120 108 138 110 97 56 65 151 153 148 255 255 4 6 33 19 126 164 138 138 156 167 167 160 158 114 116 113 112 110 111 112 112 110 108 110 104 102 92 203 123 141 152 159 159 134 146 135 104 60 69 86 52 30 8 42 38 25 6 36 32 48 115 81 103 79 142 175 130 133 111 120 93 118 98 114 98 158 131 144 145 134 135 100 150 84 159 150 121 117 101 122 115 135 108 73 80 102 130 156 175 247 253 255 8 19 25 29 26 59 150 139 134 154 162 162 159 134 130 134 131 134 136 137 137 137 133 133 133 131 92 239 109 136 147 159 161 167 142 130 92 86 71 26 25 17 36 6 9 55 60 20 12 76 65 127 107 104 81 99 84 115 145 167 154 146 94 101 103 131 145 139 109 140 109 91 148 118 133 144 96 83 92 125 109 128 95 75 123 133 145 188 204 249 252 255 18 20 13 31 29 24 21 100 125 131 143 150 142 145 145 145 145 144 148 149 150 146 154 155 149 156 47 251 110 138 131 157 164 161 146 105 112 116 62 98 65 47 38 75 68 6 23 13 24 20 96 113 85 114 66 114 103 108 137 172 91 158 100 119 105 92 133 142 107 110 88 102 138 117 119 100 86 94 106 90 102 108 57 100 152 150 177 194 249 254 253 252 128 25 38 26 22 17 11 23 72 109 115 125 107 152 150 150 150 148 151 155 155 160 158 158 169 8 61 250 154 137 149 149 171 169 163 175 147 138 151 113 50 76 67 75 58 67 42 15 54 54 42 58 56 52 120 94 63 137 121 92 73 102 90 119 136 90 97 142 96 116 77 98 142 90 90 128 71 56 30 123 95 100 115 154 156 174 197 236 255 253 253 254 255 6 27 23 28 22 23 11 18 38 92 75 80 151 152 152 153 154 155 159 158 160 168 151 4 3 83 249 233 114 136 156 150 159 169 177 160 159 160 146 137 130 36 88 63 47 6 37 31 8 59 50 37 125 71 76 114 106 126 90 105 126 79 124 106 107 134 139 83 97 95 63 108 113 70 147 105 73 74 93 85 111 145 171 173 188 207 254 254 254 254 253 255 8 21 28 26 23 21 25 17 24 31 58 47 157 154 156 158 158 160 158 175 170 128 4 0 0 49 254 255 126 138 150 154 167 168 175 175 177 171 184 160 92 95 64 64 75 108 84 50 51 14 5 78 64 70 101 92 125 67 110 49 133 103 103 32 108 111 125 57 111 37 46 88 76 69 154 102 49 59 111 114 147 167 178 196 182 250 253 255 254 254 255 251 15 30 34 26 27 20 20 22 15 17 31 54 161 159 161 164 165 166 171 172 89 1 1 7 0 36 255 254 180 136 140 152 163 173 178 178 183 176 173 174 163 154 132 87 81 95 86 38 58 64 93 39 113 51 149 47 131 94 87 69 61 110 89 17 99 98 72 98 71 111 49 99 65 124 129 125 134 127 129 146 157 166 207 177 241 255 252 255 255 255 255 252 72 39 31 28 33 27 28 18 20 21 20 28 163 161 164 166 167 163 165 83 4 0 0 0 2 29 240 255 254 123 147 148 157 166 175 177 172 174 179 170 162 168 150 152 128 115 75 93 116 80 114 96 88 44 48 64 30 94 89 79 85 87 71 58 100 88 31 82 75 46 118 74 97 71 130 99 116 122 143 152 169 207 191 219 251 250 251 255 255 255 252 252 134 28 24 24 24 23 26 29 24 30 28 27 167 169 170 170 171 174 109 3 1 0 1 0 1 59 205 252 254 219 147 153 155 165 168 182 176 184 178 183 174 174 167 178 156 140 119 75 71 108 64 68 78 53 13 22 23 50 21 71 32 44 100 60 102 45 57 102 51 49 110 120 96 103 124 120 157 161 179 194 206 202 193 253 253 247 252 255 255 255 255 254 190 14 23 27 24 26 28 22 22 31 25 30 156 160 173 165 169 143 0 0 0 0 1 2 2 98 180 243 254 250 173 151 153 168 164 176 182 186 184 181 174 171 173 173 165 141 135 148 119 134 92 129 79 89 64 50 29 25 4 12 7 32 21 21 45 12 76 8 95 98 127 111 139 150 151 149 202 177 196 204 201 209 254 254 254 253 254 255 255 255 254 252 216 19 25 27 29 36 35 29 32 33 29 27 95 112 111 121 130 3 0 2 0 0 1 4 9 126 175 222 242 253 254 146 172 160 158 171 172 181 183 186 184 175 171 167 172 165 169 156 156 124 90 124 156 120 126 133 105 96 66 49 39 35 15 79 67 60 76 111 88 128 138 149 136 180 184 200 195 199 211 214 200 255 253 252 255 249 251 255 255 254 255 255 230 17 22 26 25 34 34 33 36 36 31 29
