P2
# Generated by OpenCV 4.2.0
92 112
255
37 31 40 56 59 60 62 68 60 53 56 72 82 92 89 56 49 78 89 78 64 60 53 39 38 45 43 49 70 61 52 37 48 76 81 75 63 60 61 82 84 66 70 82 72 67 72 84 81 92 104 107 119 116 121 115 120 130 135 137 141 140 138 139 141 146 147 148 143 130 115 110 109 93 77 82 93 92 87 86 74 78 81 63 65 110 100 31 32 47 57 107 38 45 45 45 49 64 55 57 71 67 70 86 92 76 60 66 80 93 100 97 93 93 88 74 60 64 60 63 63 59 54 54 60 82 88 69 63 86 105 125 118 109 88 82 94 96 103 114 116 118 116 119 123 120 119 125 132 134 131 134 139 137 140 142 143 147 148 148 145 132 123 116 121 116 101 87 92 94 94 93 88 74 59 62 60 83 112 78 40 47 46 54 35 29 29 47 46 59 56 63 74 80 85 79 63 69 96 103 104 107 106 111 111 99 104 99 81 81 70 61 57 54 68 75 87 113 96 62 81 109 129 147 147 146 137 115 116 115 127 131 133 134 128 127 127 127 124 130 137 139 140 137 141 142 144 144 143 146 148 146 141 128 122 115 118 122 118 105 97 91 86 84 90 91 70 53 58 54 84 102 69 52 49 54 22 34 48 44 40 51 44 69 79 80 70 68 77 98 106 108 111 121 127 122 113 108 111 118 116 121 103 87 89 88 92 104 116 114 80 108 128 135 141 142 144 147 148 143 126 121 139 141 136 135 136 139 136 132 134 137 134 141 144 143 140 142 146 146 145 148 150 146 135 128 123 114 107 110 115 113 102 90 78 64 67 64 67 56 44 48 44 80 87 40 26 35 35 52 45 25 40 42 52 78 80 64 59 81 92 91 101 113 125 129 130 129 131 130 131 159 152 146 141 128 128 122 118 125 127 100 111 151 151 151 146 147 147 151 153 155 147 129 135 146 147 145 145 142 137 139 142 142 136 137 144 145 142 141 145 148 148 150 149 143 138 129 127 119 117 114 106 100 102 89 77 54 39 27 33 48 39 26 23 29 80 68 28 31 48 39 31 24 45 35 63 76 72 74 79 87 97 104 106 116 125 132 138 141 138 140 153 167 168 157 153 143 151 148 139 138 129 116 142 155 158 157 153 151 150 148 148 151 155 151 139 140 145 143 140 139 142 144 141 143 140 140 143 143 142 144 146 149 151 151 147 144 143 136 131 124 124 119 110 104 94 77 69 56 47 31 17 23 37 31 20 17 36 87 58 27 34 29 27 37 40 45 66 66 84 89 84 94 104 114 120 126 132 137 143 141 145 158 165 167 165 163 156 153 156 154 152 147 131 139 149 152 156 153 150 149 150 147 147 148 151 153 153 148 148 149 150 148 145 143 145 145 146 148 144 143 144 147 147 145 149 149 149 141 131 130 130 133 135 131 123 105 94 81 63 53 49 38 32 16 8 17 29 28 19 45 93 37 25 32 21 38 44 43 56 74 94 93 90 99 109 121 128 134 143 147 149 154 159 164 168 169 164 164 159 159 156 158 157 148 149 155 156 153 158 156 152 150 151 149 150 152 154 154 155 154 156 149 148 152 148 146 147 147 151 152 147 145 145 149 149 144 146 150 144 138 129 127 121 122 131 134 136 118 91 70 56 43 32 28 27 25 28 16 11 15 18 18 68 77 37 25 19 36 41 50 65 79 97 96 96 105 113 129 135 141 150 156 162 166 164 168 171 168 164 166 165 162 156 158 159 160 158 156 159 158 156 159 156 157 156 155 151 157 157 155 157 156 155 155 151 151 151 149 148 149 149 151 148 146 147 151 153 149 144 143 139 134 130 125 122 115 108 115 121 128 112 79 54 49 36 18 22 27 22 23 13 5 6 9 32 78 34 32 37 38 39 54 64 78 99 102 104 110 120 137 140 146 155 163 167 168 166 169 172 170 168 165 166 166 163 165 166 165 159 159 161 159 157 164 165 164 160 161 161 160 160 158 159 161 158 155 156 155 151 151 152 153 153 153 151 148 147 151 151 149 147 141 142 138 129 124 117 111 99 98 104 105 114 100 64 43 37 32 18 17 21 16 16 14 10 6 8 50 34 35 37 33 29 51 67 84 103 108 114 118 129 141 145 151 160 167 171 172 171 173 172 170 170 168 167 166 164 168 167 167 164 164 166 166 159 168 169 168 166 168 170 174 177 171 168 162 166 165 158 157 155 153 156 155 154 154 152 146 147 149 147 149 146 141 137 132 125 123 121 114 102 83 79 97 105 99 82 52 38 28 31 16 17 25 19 19 29 21 12 27 30 30 37 34 31 46 71 88 104 116 121 121 135 145 147 152 162 168 173 173 173 173 172 169 173 173 171 168 165 167 168 166 166 169 170 169 160 169 169 169 165 169 168 170 175 172 169 169 173 166 166 159 154 156 158 156 155 154 153 147 148 150 149 148 145 139 131 125 123 114 111 113 114 101 87 70 77 96 93 71 45 25 22 26 16 23 32 28 25 26 19 18 38 34 32 34 43 54 71 88 109 123 123 125 140 151 154 155 164 169 169 170 175 176 175 174 172 171 170 168 164 166 167 169 166 168 167 165 161 166 167 165 167 174 168 166 167 168 169 171 170 171 167 161 161 161 156 154 156 156 153 146 146 149 149 147 145 138 131 127 125 119 108 96 95 95 92 83 67 75 95 88 55 36 20 22 25 23 26 35 29 25 19 15 37 40 46 51 53 62 78 91 113 130 130 130 144 154 160 160 166 169 168 169 173 172 174 173 172 172 173 172 166 168 168 171 170 169 170 169 165 170 168 168 168 171 173 172 168 173 176 178 178 174 171 165 164 158 157 155 154 154 153 146 144 148 148 146 142 136 132 130 121 116 112 100 82 78 72 66 67 65 77 80 61 48 32 13 12 17 27 28 29 20 22 25 49 56 49 51 61 72 87 98 118 134 138 133 144 156 160 159 165 170 169 171 170 171 174 174 170 172 174 173 169 171 173 171 169 171 170 167 167 166 167 170 169 168 171 172 170 170 173 181 182 172 171 167 164 157 157 156 151 149 150 145 144 148 149 147 142 137 132 130 122 113 102 96 90 84 78 63 54 47 55 72 69 53 45 18 8 12 18 22 25 17 15 21 43 48 50 64 63 74 90 103 123 136 140 136 143 154 159 158 162 168 168 170 168 169 171 173 174 174 176 174 172 171 172 172 166 170 170 166 166 164 166 172 172 172 174 172 172 173 178 178 177 172 166 161 162 158 156 154 150 148 148 147 146 148 149 147 142 138 135 125 124 114 107 94 82 82 83 75 67 57 41 48 71 57 49 36 19 9 4 10 17 15 11 14 56 60 56 64 68 73 88 103 123 137 141 138 142 153 160 161 162 163 168 172 174 174 173 172 173 174 176 175 173 171 175 171 168 171 173 167 172 171 169 171 171 174 173 171 175 172 173 177 176 169 163 156 156 156 160 152 152 152 150 150 147 149 150 148 143 139 134 127 122 112 104 98 89 81 81 78 75 69 67 50 53 69 58 44 36 28 23 22 21 15 21 29 59 64 59 61 51 54 81 104 121 138 148 146 145 156 163 161 161 163 169 170 171 169 170 170 166 169 175 179 173 173 179 171 170 171 171 171 173 172 173 173 173 170 173 175 176 173 172 175 170 164 159 155 154 152 156 153 148 150 152 152 148 147 148 145 142 137 132 132 125 120 118 112 108 101 90 77 74 69 63 63 56 56 77 57 42 37 23 19 14 17 27 29 42 47 51 52 50 64 86 112 124 141 148 148 150 156 161 161 159 160 163 167 166 169 171 171 171 172 173 173 173 172 176 173 172 170 171 171 173 173 174 171 172 171 172 171 169 171 171 169 164 158 159 159 156 159 158 158 154 154 153 152 150 149 143 139 140 136 133 129 121 114 103 94 92 93 96 90 85 77 72 69 62 60 77 82 44 26 20 17 27 36 23 31 45 47 52 54 60 72 89 109 125 144 152 153 156 160 164 166 165 168 166 168 169 171 172 173 172 173 176 172 171 174 176 174 173 169 171 171 168 171 170 162 159 163 162 163 166 169 169 166 163 155 160 163 157 157 159 158 154 152 154 151 151 149 143 139 138 137 131 126 122 118 110 101 101 100 99 98 97 86 77 77 72 60 64 82 80 51 44 47 41 29 28 40 53 52 53 60 76 87 92 108 126 143 151 152 155 157 160 165 164 165 167 170 175 173 172 170 171 172 173 171 170 171 172 173 175 175 174 174 172 175 174 170 167 167 165 168 168 167 163 162 163 160 161 159 159 158 165 159 160 157 153 151 148 143 139 140 138 135 130 129 126 121 115 110 111 110 107 107 97 88 75 60 52 48 48 54 81 89 79 54 45 41 38 43 68 73 72 80 85 86 90 109 125 140 151 152 157 162 163 170 169 168 169 170 171 171 169 168 172 173 172 172 170 170 173 174 177 178 175 174 175 175 173 173 171 170 168 166 165 164 165 165 164 166 163 162 162 162 167 166 163 160 154 149 144 140 135 138 139 137 133 131 126 120 116 110 111 113 113 113 107 96 77 63 55 47 40 31 51 77 82 73 61 45 37 33 81 84 72 78 81 79 94 108 126 139 150 156 159 165 170 173 172 173 178 178 173 174 173 172 174 172 174 174 170 174 176 177 174 177 177 178 176 173 168 167 168 171 168 165 162 167 168 170 166 169 167 166 166 168 172 169 165 163 156 149 144 140 136 139 141 139 133 131 128 121 116 110 111 113 114 113 111 103 87 77 63 56 42 31 27 50 68 56 56 44 36 30 84 84 69 56 62 72 90 110 127 141 148 157 161 165 172 175 174 173 176 178 177 176 171 172 174 171 174 174 175 175 175 177 176 178 173 173 174 172 169 169 170 172 172 169 165 170 170 169 170 170 169 168 167 171 170 166 165 161 159 153 149 146 141 142 143 141 135 134 129 121 116 108 111 115 112 114 112 107 93 77 67 65 52 48 40 28 47 54 32 34 43 47 65 59 48 43 53 72 93 118 129 140 151 156 161 165 172 177 178 179 179 177 179 175 174 173 172 171 174 173 175 173 175 177 176 177 176 172 173 173 174 175 175 175 173 170 170 172 171 171 172 171 171 170 170 172 169 165 166 163 161 156 153 153 151 152 150 144 138 134 127 119 114 110 112 115 115 113 112 111 101 87 69 60 56 62 61 44 32 58 67 49 41 47 61 56 38 46 49 68 105 124 133 141 155 158 161 164 170 176 179 180 182 177 176 175 177 174 170 169 173 173 174 176 176 175 175 176 176 174 173 175 178 178 177 177 174 166 167 170 172 172 170 170 172 169 168 171 171 168 166 164 163 161 161 161 157 157 155 149 145 133 126 119 114 113 114 114 117 114 115 116 105 96 88 72 50 55 65 58 45 43 50 58 51 50 68 47 45 55 49 77 116 128 136 143 155 160 166 171 175 181 179 177 178 176 173 175 178 175 172 174 173 171 177 176 173 173 175 174 172 171 175 177 177 183 182 173 166 166 169 176 176 174 172 169 172 173 171 171 170 170 167 166 165 162 164 165 162 158 157 158 153 138 131 124 117 112 114 116 118 117 118 120 116 105 90 82 65 52 61 56 56 44 38 31 57 55 63 46 49 41 48 78 120 129 137 150 159 168 177 178 181 185 185 182 182 180 178 173 174 173 172 173 175 173 174 173 172 172 172 173 174 172 171 177 179 179 177 173 172 171 171 177 180 177 171 172 171 173 171 172 166 164 156 152 151 149 154 156 155 156 158 152 149 141 132 126 122 116 113 119 118 118 119 119 119 117 116 91 83 66 61 56 45 38 42 40 53 75 59 60 46 52 57 76 124 134 142 159 165 176 182 182 183 184 183 181 183 183 180 177 175 175 170 169 174 176 174 175 176 177 173 174 180 178 168 172 181 182 178 179 178 174 171 176 178 170 170 165 160 159 162 158 151 143 140 141 141 141 141 144 145 151 149 144 143 142 131 126 122 118 116 119 120 122 120 120 121 116 120 115 108 92 86 76 53 45 54 48 52 76 66 49 42 56 49 73 123 138 151 167 172 169 171 177 179 176 177 174 177 179 179 176 175 175 171 170 171 174 174 178 182 177 177 175 178 182 170 168 170 173 168 169 166 165 167 158 146 142 140 135 130 130 132 133 134 131 128 127 128 128 129 133 132 135 132 133 132 130 123 127 125 122 116 119 122 124 122 122 124 125 118 120 121 106 93 88 83 71 57 62 75 88 56 40 59 48 37 79 123 140 159 160 155 149 147 155 154 156 163 164 164 168 171 170 166 163 165 167 169 171 167 171 172 169 172 174 177 177 171 165 164 158 153 158 156 141 146 123 107 113 104 101 104 110 111 116 125 125 119 116 116 118 120 119 120 123 123 121 118 117 118 122 123 121 118 119 120 125 121 121 122 125 124 131 127 114 104 97 87 82 84 91 97 94 58 57 48 41 49 89 131 135 145 143 137 129 128 129 128 133 135 134 135 139 144 148 150 150 157 158 159 164 163 164 160 161 165 170 172 167 165 160 160 152 144 145 139 125 121 95 97 98 90 88 89 90 91 97 103 101 101 107 110 112 115 114 114 116 115 110 109 114 118 120 123 121 119 122 122 125 123 122 120 119 128 140 144 123 103 86 78 81 98 103 101 105 67 62 55 66 82 118 139 132 127 126 124 122 117 118 116 114 113 110 107 104 102 111 123 129 136 142 146 150 154 155 154 157 161 162 163 162 158 151 151 146 136 129 120 117 111 105 106 101 92 78 81 86 89 97 102 106 108 109 113 116 117 113 111 114 114 113 111 111 116 121 129 123 122 126 128 129 125 123 123 122 121 134 148 140 127 96 88 87 104 112 95 103 62 65 65 87 109 125 144 128 117 116 113 110 108 109 107 102 96 100 96 86 80 86 96 98 109 124 133 135 140 148 150 150 157 163 163 157 154 146 144 143 138 129 121 112 113 109 103 99 96 99 108 114 115 119 124 128 127 127 125 126 126 120 114 114 115 117 116 118 124 127 127 124 128 132 132 131 125 125 125 125 124 122 150 150 143 129 100 102 116 106 106 111 58 64 92 122 117 131 149 133 118 113 111 116 115 113 114 111 109 108 104 99 92 89 93 96 98 110 120 123 129 140 146 145 152 162 163 158 153 146 140 138 132 127 120 114 113 108 99 100 106 101 97 95 86 71 82 86 87 98 107 113 121 126 127 122 116 116 117 123 125 124 125 127 129 132 133 130 127 130 129 129 125 125 133 147 160 156 122 103 102 105 110 131 60 92 133 128 124 142 157 143 117 110 116 123 127 129 129 130 132 131 130 127 117 106 101 98 100 105 112 119 126 132 140 140 145 156 161 155 150 141 137 133 125 119 115 109 104 99 100 101 91 85 88 68 40 41 65 56 22 54 84 70 71 82 103 113 118 117 116 126 126 122 129 128 130 132 136 133 131 132 131 132 128 122 124 134 152 159 150 114 92 94 97 118 88 132 128 125 140 154 159 150 128 119 124 129 133 137 136 135 128 113 102 91 93 105 107 103 98 97 100 104 115 128 132 132 140 154 158 150 145 137 131 127 119 114 106 100 100 104 102 93 94 98 93 79 48 49 96 121 28 70 134 126 87 52 64 87 106 116 123 124 122 125 128 130 133 138 138 134 132 134 132 136 130 121 126 136 140 155 156 140 120 102 96 106 138 135 133 148 145 157 160 152 141 131 135 141 134 115 83 68 45 34 28 51 55 66 107 113 114 101 93 95 97 105 113 126 141 156 158 155 144 141 135 127 117 107 104 106 109 108 101 104 109 96 113 129 66 57 52 56 49 111 145 131 107 91 78 77 98 113 113 114 122 130 130 133 137 141 138 134 133 136 132 134 134 127 123 133 149 154 152 142 139 109 85 118 140 134 152 147 149 160 165 157 146 138 145 133 95 60 57 70 25 37 36 98 93 69 123 115 119 122 107 98 97 95 99 113 138 161 167 166 152 142 136 127 114 108 113 115 109 106 111 122 104 91 114 139 97 60 56 70 96 133 129 116 116 118 110 100 103 115 113 116 127 136 136 136 139 145 141 133 137 136 134 134 133 126 120 125 132 152 153 144 133 112 101 132 156 155 153 149 152 160 168 161 150 145 142 110 76 75 80 104 53 38 57 62 68 121 173 154 121 111 117 118 110 101 103 108 134 163 170 169 158 151 140 126 111 111 116 111 108 120 143 109 93 111 120 121 121 111 103 114 123 131 133 128 128 128 118 118 125 127 128 128 130 134 135 135 143 149 140 137 140 136 135 135 132 124 116 119 128 136 140 133 125 121 126 137 150 146 147 147 148 157 169 161 153 148 132 109 92 118 121 119 108 62 55 57 100 168 167 157 133 115 101 113 133 121 114 112 135 171 175 172 166 158 141 126 112 112 113 113 121 134 129 99 120 123 117 117 119 130 129 137 141 149 143 140 131 123 121 127 132 131 132 132 135 141 139 142 147 150 144 143 144 139 134 133 132 126 117 110 118 140 148 130 128 120 124 138 137 148 148 148 148 165 167 160 156 148 129 112 115 138 140 132 134 124 111 113 137 147 141 142 135 123 121 112 116 139 133 124 137 174 179 177 167 158 146 130 115 111 111 117 139 148 131 135 143 132 118 120 129 141 146 152 152 147 136 129 122 120 125 130 138 138 135 136 141 145 145 147 150 151 146 145 141 137 133 132 130 128 118 113 112 136 155 131 137 129 125 144 144 141 141 141 149 167 171 166 160 156 142 137 147 143 142 142 137 135 140 131 130 130 138 144 146 143 143 137 134 146 150 134 146 174 177 174 165 155 146 136 121 109 112 119 133 143 146 144 136 128 120 116 121 128 128 127 127 126 121 120 122 124 131 133 139 144 144 144 144 144 147 150 152 151 142 140 137 135 135 130 126 120 119 119 122 128 149 142 141 140 123 141 141 133 141 146 146 167 170 170 162 161 160 155 154 146 140 145 146 146 144 136 133 132 128 123 124 134 139 144 149 152 145 134 160 181 177 177 168 159 150 138 126 115 110 122 130 136 142 137 136 131 130 134 131 127 123 123 120 121 121 127 132 140 146 146 143 146 148 148 147 144 149 150 151 151 142 141 136 134 135 132 127 121 119 109 128 134 142 149 138 143 126 138 133 125 141 139 145 166 172 171 165 163 166 160 156 140 129 130 130 131 135 133 125 117 115 113 120 131 137 141 142 144 140 145 174 182 177 178 172 163 155 144 133 118 111 122 133 134 143 148 143 144 143 150 152 154 157 154 151 147 146 148 152 156 154 155 152 152 151 148 148 149 153 153 154 152 149 146 138 134 133 132 122 118 119 105 122 147 139 147 145 143 130 136 140 129 140 139 150 165 172 173 170 169 169 166 153 142 142 121 115 114 114 115 113 111 116 127 138 143 147 146 148 148 145 169 183 181 180 174 173 169 161 153 143 127 113 121 134 138 145 154 162 161 155 158 160 164 166 163 164 160 159 164 163 165 163 164 157 153 153 148 147 153 155 154 151 146 148 146 141 135 129 130 124 117 118 116 117 140 126 137 143 142 133 136 157 152 140 135 149 167 170 176 173 171 172 165 157 160 154 143 138 132 125 126 128 131 137 145 150 153 156 158 161 154 156 179 181 180 179 175 173 168 163 155 150 137 115 119 132 140 147 153 160 168 172 167 166 167 167 167 170 168 172 175 168 166 168 167 163 160 155 151 152 150 154 154 150 148 147 144 142 134 131 129 122 118 114 121 115 128 125 134 138 140 130 138 165 149 138 141 153 164 171 175 172 173 169 170 168 162 156 156 154 154 150 147 149 149 149 156 160 162 167 171 168 155 154 174 182 181 175 175 173 163 158 150 141 130 116 117 125 133 143 156 159 157 174 182 178 173 173 177 180 175 179 180 171 173 172 170 165 165 163 160 158 154 152 151 151 147 142 138 136 134 131 126 119 112 110 119 125 129 128 133 140 135 117 131 158 160 143 143 155 164 171 173 175 173 169 170 164 160 160 160 160 157 154 156 158 154 153 158 164 169 175 175 164 151 152 172 185 184 178 172 168 161 154 138 125 121 124 120 119 129 138 155 172 152 160 179 179 177 181 184 182 180 183 178 168 175 171 169 167 164 161 162 162 158 153 155 151 145 141 139 134 132 128 123 116 111 106 112 109 116 128 126 142 138 121 141 154 177 155 139 154 163 167 170 174 175 170 166 161 166 164 165 163 156 159 159 158 156 159 165 169 174 174 172 159 150 156 166 180 182 180 174 168 159 147 131 122 127 130 124 120 127 131 144 163 162 167 168 155 160 176 181 178 176 173 173 171 173 172 170 167 165 163 162 155 155 154 156 149 145 139 135 132 129 129 126 112 117 109 101 92 105 117 124 136 147 157 168 171 170 162 143 158 164 168 170 176 177 170 163 168 174 169 166 169 166 163 163 164 166 172 172 174 177 173 169 157 152 157 164 178 180 179 174 167 155 142 129 125 130 131 131 123 125 132 138 149 166 182 172 153 150 170 170 170 170 169 167 170 174 170 171 172 169 167 166 158 153 157 154 150 144 140 131 127 126 125 121 108 104 112 97 89 112 115 114 131 148 156 168 185 168 167 147 140 163 165 168 171 173 172 170 174 172 168 169 169 170 169 170 171 177 180 177 177 179 175 164 156 155 162 168 179 184 178 170 167 150 140 131 122 128 133 133 125 124 131 136 145 152 169 181 168 165 174 171 170 172 167 165 170 176 171 168 169 167 167 165 162 156 156 149 147 142 137 128 126 124 122 119 115 98 94 86 99 98 102 112 138 145 152 160 193 179 178 146 131 158 164 166 171 172 176 176 174 174 174 173 173 175 177 181 181 184 183 183 180 179 175 162 159 159 167 174 178 184 178 170 161 146 139 134 131 130 131 133 130 128 129 133 143 152 160 174 174 168 170 172 170 172 165 165 166 169 171 163 161 162 166 161 159 158 153 146 141 137 135 129 125 121 117 121 119 102 91 86 95 98 105 114 141 151 155 159 193 193 186 145 132 153 160 168 171 173 176 178 176 178 175 181 183 185 188 188 184 184 184 185 181 180 175 165 162 164 169 175 180 181 174 166 154 148 140 136 139 136 132 131 131 131 132 134 141 150 159 167 170 171 173 172 171 172 168 170 170 169 168 164 163 164 163 156 156 153 148 144 140 136 134 126 122 115 114 114 116 113 97 75 89 111 103 110 146 162 162 164 198 195 173 153 130 149 161 166 171 172 175 176 174 176 181 182 184 189 191 190 190 189 186 183 183 182 172 155 156 170 178 177 183 184 175 161 147 145 143 141 145 143 138 136 127 123 128 137 145 146 151 165 170 176 179 174 173 173 172 171 171 171 167 164 166 164 162 159 155 149 145 141 137 130 124 122 119 114 109 99 102 110 104 80 85 102 106 115 142 158 160 160 192 198 194 171 121 140 160 162 169 170 173 173 175 177 182 182 187 189 189 190 194 193 189 187 188 178 163 144 159 182 181 174 183 182 174 161 149 143 139 140 143 143 140 136 127 118 121 136 149 153 156 162 168 173 177 173 171 174 173 170 171 170 168 163 165 164 162 156 151 145 137 132 132 126 122 117 115 109 104 101 95 103 112 88 87 111 129 121 117 138 148 146 186 191 188 165 131 129 156 162 163 166 171 173 176 178 181 183 187 187 188 190 192 191 191 190 184 172 158 148 174 181 166 169 178 179 172 158 145 142 140 137 140 142 137 134 122 116 114 126 145 163 168 164 167 171 174 173 172 174 171 168 167 169 166 162 165 163 158 155 151 140 135 132 128 123 120 115 111 105 95 102 95 101 107 99 100 114 132 132 89 78 117 125 163 183 172 170 145 122 155 157 158 163 172 172 173 174 175 178 182 186 190 192 189 188 189 183 176 169 157 160 175 166 156 163 176 179 172 156 147 141 138 138 134 137 137 132 124 120 117 116 137 164 172 173 171 172 172 174 173 172 169 167 164 163 163 162 163 159 151 150 148 143 132 129 125 119 115 110 107 101 100 107 106 111 106 101 112 122 145 140 96 52 73 108 108 167 171 163 145 131 155 151 157 162 169 172 172 172 175 176 180 185 185 188 188 186 182 180 175 166 161 165 158 157 153 161 176 181 167 153 142 139 134 131 131 135 137 138 136 132 126 118 128 149 161 173 174 172 171 173 176 172 170 165 163 162 160 158 160 156 150 149 145 140 132 125 122 117 118 114 97 97 109 108 100 106 105 104 130 136 151 149 99 50 67 101 54 108 147 150 135 123 146 145 150 157 163 167 168 168 169 172 181 183 179 182 182 179 176 176 175 165 168 173 158 153 154 160 170 178 169 150 138 133 131 131 138 141 143 147 140 133 128 123 127 146 159 163 172 175 170 171 175 169 168 166 164 162 157 154 149 147 146 146 143 139 131 123 118 115 117 120 99 97 102 97 99 110 107 111 143 159 163 154 104 37 64 91 68 65 84 106 116 117 139 145 139 152 161 163 165 164 164 173 178 177 179 180 176 172 170 172 170 165 167 170 162 153 155 165 173 175 170 154 142 135 133 137 140 145 151 148 140 132 127 122 122 147 164 164 165 174 172 163 171 169 167 164 164 161 157 154 146 147 147 138 136 135 124 115 115 116 116 112 108 98 100 103 103 117 128 128 151 164 173 165 118 45 47 76 77 73 69 67 90 118 129 145 139 144 155 160 162 162 166 169 171 173 174 174 172 171 171 171 172 171 160 162 170 163 166 179 178 174 168 155 143 140 137 141 147 151 150 143 136 128 120 115 118 147 163 166 165 170 170 165 166 165 164 165 159 153 150 150 148 151 145 140 136 128 119 114 116 118 118 108 110 103 102 105 98 117 143 143 158 158 158 169 126 61 45 57 81 80 78 74 89 126 130 145 140 138 152 161 162 160 166 165 167 169 168 169 167 166 169 170 171 176 161 150 168 173 180 185 179 174 168 154 142 141 140 142 147 149 145 141 131 121 116 111 115 143 163 169 165 163 169 169 163 165 160 161 159 152 149 149 150 147 143 142 133 124 115 116 118 116 117 109 103 100 95 100 104 122 146 153 159 158 156 161 137 63 40 44 83 83 83 85 91 120 126 136 140 139 144 156 160 160 159 159 163 164 168 169 165 165 168 166 168 179 172 144 150 167 176 173 169 165 179 177 154 140 142 143 139 132 129 123 117 114 112 109 114 141 157 164 162 164 164 168 165 165 160 157 152 152 150 148 145 144 142 136 127 119 112 117 118 114 112 109 103 98 93 101 116 124 149 157 154 163 179 171 145 72 53 46 88 96 91 89 95 115 124 132 142 141 139 147 157 160 156 155 158 160 162 164 164 166 165 164 168 178 174 148 134 145 156 161 157 152 156 170 169 149 141 132 121 113 91 72 83 101 105 106 122 144 155 163 160 160 165 167 160 163 161 156 149 146 149 146 142 140 137 127 119 113 111 119 122 111 108 106 112 99 100 107 107 123 144 150 161 173 193 183 138 78 69 70 82 98 107 111 111 116 122 128 134 143 139 139 148 158 158 152 156 161 159 161 166 166 163 165 172 177 167 160 138 121 133 144 141 138 136 139 147 143 130 111 93 71 52 50 50 72 94 110 132 147 153 164 163 159 164 168 162 162 160 155 145 143 147 143 141 132 129 119 115 114 117 123 125 106 104 113 113 110 105 94 108 123 142 139 168 191 197 190 149 84 74 75 67 72 81 97 112 112 125 126 128 139 138 136 141 150 153 153 155 157 156 157 159 161 161 164 172 170 166 162 140 113 105 117 122 122 120 117 126 123 100 82 73 73 85 75 74 76 105 125 136 149 153 159 162 157 161 166 162 163 155 150 145 142 141 139 133 124 121 118 116 116 117 125 124 107 105 113 109 113 97 98 123 131 136 146 170 188 205 188 169 101 71 70 67 72 79 91 94 115 135 128 129 136 143 134 129 142 149 153 154 153 147 148 159 157 163 165 171 162 156 148 136 119 99 95 101 99 97 91 88 82 64 61 69 63 96 82 88 98 114 127 137 152 156 155 156 155 156 156 157 157 151 147 141 136 132 131 122 118 113 116 116 114 117 122 110 103 109 113 101 96 94 96 122 139 128 146 164 182 204 194 176 121 78 78 67 71 79 84 97 136 141 135 142 135 144 136 125 131 140 146 152 150 152 154 160 160 165 165 165 161 150 144 131 113 106 96 93 84 79 59 53 56 39 39 58 43 73 84 81 96 105 124 137 151 160 158 154 152 150 150 149 150 145 134 134 134 129 124 118 114 112 115 113 121 124 113 98 104 111 116 112 99 93 99 125 131 119 144 162 177 196 207 193 142 90 83 64 69 75 82 89 110 141 139 146 144 150 141 134 129 132 138 144 147 150 155 161 164 163 160 160 155 150 145 121 103 99 110 99 86 79 51 46 47 44 64 75 57 62 77 70 87 102 120 140 150 162 160 153 150 147 147 149 148 134 128 131 132 126 119 116 108 115 118 118 119 116 105 102 101 113 122 121 104 94 110 121 118 116 144 170 175 198 191 183 156 94 97 59 64 72 79 86 102 139 149 137 140 144 135 138 137 127 127 135 140 146 157 165 159 154 153 156 157 155 128 105 108 108 109 103 88 63 57 60 53 52 63 90 83 56 92 83 78 97 110 128 141 159 159 155 149 142 145 149 145 131 127 132 130 122 114 107 109 115 119 125 125 116 99 110 108 111 122 115 109 97 111 122 109 130 154 159 183 203 197 175 150 97 103 54 61 67 73 77 91 124 144 145 130 135 133 129 135 128 121 130 137 146 162 162 159 151 145 142 156 143 121 102 114 111 123 118 93 80 53 47 53 85 66 75 89 77 89 88 69 85 92 113 132 151 147 146 142 130 136 145 137 134 134 130 125 125 113 106 111 114 111 117 122 119 106 108 112 116 128 113 111 110 124 120 111 145 149 154 169 195 192 185 130 40 67 49 55 64 71 81 98 112 132 145 133 129 123 127 129 131 129 123 131 144 156 153 153 148 131 130 140 130 125 114 100 125 125 111 94 87 34 46 55 95 86 62 83 72 68 93 65 89 93 106 131 146 131 126 131 117 117 130 129 133 134 127 124 123 116 112 112 107 107 117 120 126 102 91 120 121 129 122 111 123 130 111 122 145 136 143 172 189 186 181 146 42 40 47 53 63 72 95 87 98 129 151 140 120 117 127 133 127 127 119 129 138 141 142 140 129 124 132 135 119 134 118 105 134 106 94 100 90 47 57 60 94 78 94 63 60 67 91 68 70 83 105 123 127 124 124 123 111 107 119 128 126 123 116 122 123 117 112 106 105 111 127 121 104 82 94 125 119 119 120 113 130 122 114 133 143 135 150 191 178 177 183 159 48 43 42 50 61 70 72 74 95 120 143 138 123 120 124 134 124 112 118 137 133 129 139 128 114 118 128 122 124 116 108 115 121 99 71 86 74 63 90 63 88 66 76 56 76 73 86 75 64 63 83 98 103 117 118 120 112 95 102 121 113 110 107 114 118 117 108 99 100 117 127 111 85 93 108 114 116 130 119 125 129 130 124 139 146 136 153 191 193 167 168 164 64 35 40 49 59 69 80 82 89 121 141 127 122 118 124 125 119 116 112 123 120 119 131 113 103 110 123 137 126 105 98 111 111 78 69 95 76 83 81 65 87 75 65 63 77 89 76 80 81 72 69 85 94 102 109 110 107 87 88 102 110 94 105 112 114 109 110 99 99 117 114 102 98 108 112 110 112 130 138 138 126 130 125 160 140 121 159 176 199 191 169 151 62 35 47 51 59 68 78 78 83 124 148 142 138 109 119 123 112 114 111 108 115 111 113 90 108 113 131 125 101 95 79 104 90 89 92 107 82 94 80 73 84 91 86 84 74 81 87 78 80 72 73 74 76 88 110 103 100 98 93 89 108 96 78 95 113 100 106 105 100 116 107 88 111 112 114 114 110 123 128 130 134 134 122 159 142 127 155 165 174 179 165 155 57 33 92 77 69 70 71 77 89 125 143 144 129 104 108 134 115 108 111 104 112 103 94 101 103 108 106 86 111 102 65 85 73 83 80 85 78 84 88 85 78 75 89 77 62 79 75 77 74 67 74 71 84 88 102 106 84 90 110 101 99 92 82 85 103 108 82 103 107 95 102 94 113 111 104 118 121 107 117 124 125 129 135 153 161 139 149 166 159 161 152 171 70 30 141 125 107 95 85 86 88 118 127 132 121 115 112 122 121 112 107 112 120 104 99 127 84 95 88 77 104 96 67 70 65 50 41 48 66 101 111 109 99 96 96 75 66 79 74 74 87 83 80 75 90 91 83 95 81 77 97 89 85 84 62 89 106 96 75 82 84 87 102 108 115 100 89 123 130 117 122 118 121 130 139 151 158 138 133 160 154 118 128 144 57 29 185 167 148 132 121 108 102 104 116 131 114 113 124 116 119 111 105 122 117 106 110 108 82 92 78 68 72 71 60 47 42 56 71 43 50 76 97 103 102 100 95 89 81 73 60 73 73 76 80 72 82 83 76 77 82 65 74 79 63 72 64 62 91 85 76 66 65 96 110 92 107 93 100 124 123 115 125 126 126 134 119 143 139 140 138 152 147 113 128 113 30 29 211 199 186 169 147 129 115 101 126 137 119 104 122 118 121 117 105 111 113 111 108 83 76 92 87 76 62 62 68 66 50 75 93 78 86 102 94 97 96 91 84 81 94 88 85 80 59 71 67 61 62 67 86 72 67 73 73 79 68 60 62 64 83 78 69 58 65 89 118 103 92 88 115 122 117 112 122 121 124 123 105 140 136 114 128 129 140 131 140 91 19 30 225 215 202 188 167 146 130 127 140 145 119 112 130 119 116 112 95 107 101 115 109 88 74 94 106 107 101 98 103 105 87 67 61 75 102 124 111 121 104 97 104 95 111 94 77 73 87 89 78 83 74 87 115 99 93 81 79 81 78 57 63 77 85 76 71 61 77 99 101 114 95 100 114 121 115 115 125 114 127 117 104 129 150 107 112 97 120 140 135 53 16 26 241 227 209 190 173 160 155 153 160 167 128 109 120 111 105 104 97 112 109 113 101 90 83 110 107 110 115 110 120 127 121 111 97 84 83 93 91 108 96 84 93 86 91 85 88 98 104 107 103 101 103 109 111 111 110 93 89 79 89 61 60 77 87 78 59 62 76 100 97 86 92 93 109 128 110 122 126 116 125 116 98 113 132 132 127 128 129 130 98 17 19 26 235 228 216 198 182 172 175 183 192 197 158 115 106 114 114 96 108 119 111 92 96 96 113 110 114 129 131 122 124 129 128 128 129 122 120 119 111 102 100 103 103 107 110 115 124 124 116 115 111 106 112 110 103 114 112 106 96 89 89 67 66 81 84 62 52 65 79 90 87 86 104 104 109 126 130 130 126 112 122 107 81 106 105 130 135 129 125 119 48 8 20 23 220 208 195 188 187 187 193 201 212 224 202 137 100 110 113 90 102 99 92 81 101 108 117 114 120 125 135 135 128 123 124 132 138 134 136 129 125 119 119 120 122 131 144 143 134 127 113 107 106 114 112 105 110 115 117 111 103 84 80 71 65 69 72 54 51 68 74 84 87 100 118 120 117 121 122 131 126 131 119 113 83 92 98 102 123 126 126 83 6 12 19 21 207 191 174 164 169 187 206 222 236 245 243 176 102 108 98 99 99 91 83 96 110 103 97 106 111 116 134 137 132 121 119 125 130 130 132 131 132 133 131 131 127 134 133 126 119 112 110 104 97 103 110 104 108 111 107 118 114 101 85 63 59 57 50 49 49 66 75 76 80 98 124 129 114 123 114 116 121 118 110 111 86 86 100 110 114 129 117 77 1 15 17 20 196 178 164 158 176 205 230 248 253 254 255 233 136 104 87 95 97 85 79 91 84 84 98 103 110 123 127 127 130 130 132 125 121 120 112 110 109 112 110 109 99 102 101 103 103 94 90 101 96 99 99 97 97 107 104 113 117 117 94 64 52 55 43 46 57 65 80 78 92 102 127 132 122 120 123 125 108 97 112 99 96 107 106 121 119 111 117 75 0 14 18 23 185 168 158 167 196 225 246 254 252 254 255 255 167 99 88 87 83 82 77 81 71 93 92 100 117 117 120 132 134 134 136 122 111 102 96 92 94 91 90 90 79 85 96 100 97 93 83 87 91 88 91 85 95 111 111 107 113 119 103 86 53 54 59 47 54 68 83 85 91 93 131 132 117 107 117 100 102 88 96 106 92 105 117 116 114 96 136 31 0 15 18 23 173 159 159 184 214 240 254 255 252 235 206 172 146 111 94 77 86 98 72 66 84 81 93 108 104 108 112 125 130 116 104 110 91 92 106 102 104 87 87 98 93 88 95 89 99 100 89 98 98 98 79 84 96 118 111 89 110 108 102 79 69 49 51 49 58 72 73 94 87 99 128 142 106 92 113 95 96 91 82 100 104 118 106 103 92 134 121 0 1 15 18 23 165 154 169 204 229 234 218 188 158 132 114 109 116 114 93 81 77 81 81 78 89 70 100 115 109 106 102 103 117 97 98 97 75 88 109 106 102 90 90 107 105 98 97 87 92 89 88 83 96 99 87 96 109 106 100 91 108 110 99 84 61 51 41 51 55 66 77 114 96 87 110 132 123 78 111 117 111 96 100 86 97 107 109 102 98 173 50 1 2 13 17 24 159 159 175 182 169 142 119 112 110 108 112 109 105 111 113 78 61 78 90 95 77 68 113 115 109 119 101 96 101 91 92 76 63 89 106 101 102 90 98 109 106 105 94 95 81 74 92 91 91 84 102 103 102 105 101 109 119 100 97 117 72 54 46 45 68 82 97 121 108 91 108 119 124 89 98 106 112 83 105 101 109 119 116 102 163 128 4 9 1 16 21 22 146 146 134 123 113 107 108 106 106 101 95 87 79 100 114 100 75 105 86 86 84 93 110 104 116 136 110 107 105 90 80 81 70 79 97 94 82 90 97 90 101 96 96 95 70 71 87 94 102 93 109 106 96 93 103 101 110 89 91 126 93 70 60 37 60 92 100 112 111 117 115 114 113 81 86 90 88 88 116 121 125 122 106 154 192 38 6 9 1 14 21 24 123 116 108 110 102 97 94 94 91 86 84 79 72 82 90 91 99 91 80 82 82 104 108 115 119 114 113 117 115 106 94 99 94 73 93 93 86 92 83 89 80 100 96 103 74 73 84 100 107 108 116 104 91 88 85 84 83 83 99 99 81 89 77 39 48 70 99 102 98 105 107 124 104 76 80 75 70 107 120 126 126 119 158 224 113 1 12 7 1 11 21 25 111 101 95 94 90 89 87 88 84 82 79 70 68 64 60 86 83 61 80 88 75 108 117 119 107 101 105 109 117 119 120 117 115 96 94 100 115 99 88 87 61 89 94 98 81 91 89 101 108 118 115 102 89 86 87 78 71 83 94 102 107 95 66 51 56 59 76 88 88 86 109 125 116 85 101 100 113 124 129 128 137 176 217 188 26 3 8 5 1 15 23 23 97 90 87 88 86 83 84 80 77 76 70 64 62 57 58 84 75 70 72 86 87 108 115 104 105 111 117 110 117 119 124 118 117 99 110 107 112 114 94 89 69 76 94 87 91 96 105 106 115 116 107 97 89 96 84 72 62 90 91 100 102 85 63 46 58 60 61 78 68 103 121 113 113 112 110 122 128 132 147 174 200 213 210 77 0 8 8 5 2 14 22 22 90 87 84 80 79 80 78 74 70 66 62 62 58 56 58 59 73 98 83 73 113 128 101 94 93 119 105 106 109 116 114 122 117 111 105 104 101 100 85 99 90 81 96 106 105 102 104 106 102 116 125 102 89 84 75 73 63 75 104 97 100 77 45 43 60 64 60 80 87 107 105 95 102 120 113 129 139 163 201 221 222 208 112 0 5 4 4 5 2 15 23 24 87 83 81 75 73 74 72 71 65 65 60 58 54 59 60 62 83 86 98 75 104 98 93 88 107 95 86 98 108 116 115 127 123 117 98 105 105 91 80 86 96 104 106 120 118 110 108 102 93 100 109 112 101 87 82 74 70 66 78 94 89 80 39 34 42 47 53 70 87 77 87 101 119 108 116 142 175 217 224 226 219 141 12 3 4 0 1 1 3 17 25 24 81 77 75 72 72 68 71 69 66 63 59 57 55 55 51 75 90 90 101 78 89 83 95 101 103 80 91 101 120 122 117 131 116 121 115 113 110 101 91 84 94 102 121 119 127 122 112 102 102 100 107 101 109 86 83 71 62 80 72 80 63 62 42 38 53 42 58 79 77 82 114 131 132 123 136 180 221 223 219 228 168 32 0 3 1 0 4 1 3 18 24 24 73 75 72 73 69 67 67 67 63 61 57 54 53 49 64 89 87 104 97 79 74 84 88 100 107 91 93 99 115 126 115 118 126 135 119 109 108 96 89 97 110 108 116 128 121 123 113 96 103 102 113 98 91 70 78 77 54 69 79 82 44 33 39 45 49 48 69 66 76 102 133 130 131 136 182 219 224 218 222 202 54 0 2 1 0 2 5 2 3 17 26 26 73 73 71 71 66 66 64 63 62 57 52 53 49 51 81 92 91 95 84 76 133 104 69 93 114 94 90 114 134 130 114 137 142 137 117 92 99 95 93 99 100 110 119 124 117 100 106 101 100 98 118 119 94 77 82 87 57 69 67 73 43 33 39 42 43 52 67 75 107 126 132 135 138 181 218 224 225 217 219 91 1 0 1 0 2 5 1 1 6 23 27 27 70 71 69 65 66 65 63 60 56 54 52 51 47 67 93 93 93 99 82 89 203 145 74 107 114 82 108 118 137 130 125 155 136 129 112 99 102 102 98 109 91 91 107 112 126 91 85 105 104 97 127 123 102 93 91 89 69 68 70 55 41 24 27 45 59 62 90 106 124 131 134 139 183 217 223 227 224 220 124 1 0 1 1 0 3 2 0 0 8 23 24 27 67 69 66 65 65 61 62 57 52 53 52 49 51 84 88 91 92 94 65 102 241 207 143 107 81 99 137 134 128 132 130 158 133 120 118 104 107 108 98 111 87 82 85 108 113 81 83 91 102 92 104 111 79 95 104 71 57 85 80 48 20 20 32 47 76 91 127 141 130 126 140 188 215 223 228 232 224 143 9 0 1 0 0 0 0 0 1 5 9 23 26 25 68 64 66 66 64 60 57 55 52 53 50 47 68 90 87 91 96 88 52 130 254 254 209 120 72 122 134 140 117 136 135 137 123 114 119 93 93 116 91 89 95 95 89 90 103 79 87 99 99 95 91 110 72 109 120 92 75 86 54 42 16 20 48 90 113 115 133 139 129 147 193 215 221 226 232 239 151 16 0 3 1 0 0 0 1 1 88 51 3 24 28 26 64 64 66 63 61 61 54 51 50 50 46 54 88 91 89 92 96 83 48 140 254 253 244 168 105 126 131 135 124 125 144 130 108 110 119 96 85 102 97 81 96 102 85 91 97 82 73 96 99 95 104 108 95 115 115 77 86 83 47 19 26 53 96 124 132 141 134 130 155 200 218 221 227 230 239 203 26 0 3 1 0 0 0 1 1 79 208 40 1 24 27 25 66 66 64 60 57 56 53 49 50 50 46 71 95 92 94 97 94 77 44 138 254 252 254 231 163 124 144 140 139 131 136 118 98 105 109 99 104 107 99 83 89 113 90 94 89 81 80 95 92 86 94 92 92 112 118 66 67 73 31 43 83 118 130 144 142 133 131 166 207 217 221 227 229 231 244 120 0 2 1 1 0 0 0 1 64 217 202 17 9 24 28 26 66 65 64 57 55 53 51 52 50 47 58 89 92 89 96 101 90 71 40 132 254 253 253 254 230 167 142 130 125 133 120 121 99 100 100 92 108 117 107 102 76 93 97 86 81 68 95 99 74 63 76 87 95 111 119 60 48 56 77 109 132 140 146 144 134 133 174 211 219 223 225 228 229 237 222 37 0 1 0 1 1 1 1 60 207 243 166 6 14 26 27 25 64 62 60 58 56 55 50 53 49 46 75 93 89 89 94 95 85 66 38 121 254 255 253 252 255 228 173 131 113 121 122 130 126 111 104 93 96 119 109 107 100 86 96 90 71 76 81 89 70 55 73 89 86 108 106 61 65 84 121 140 143 142 142 131 135 182 214 220 226 227 228 227 231 247 160 0 0 0 0 1 1 1 59 207 239 230 163 1 17 27 27 26 64 60 56 57 54 53 49 50 47 56 91 90 91 92 95 89 77 65 39 102 254 254 253 253 253 242 230 187 136 103 101 106 115 118 112 106 100 110 95 83 97 85 101 92 57 55 75 78 81 55 62 87 79 84 94 94 115 128 128 135 140 142 134 144 190 217 224 227 230 228 226 226 231 239 72 0 0 0 0 0 0 58 208 242 222 244 151 0 18 30 29 28 63 56 56 56 53 48 48 50 49 75 92 89 93 92 94 89 76 58 31 86 251 254 253 253 253 251 251 241 193 141 105 95 93 113 100 103 85 95 104 93 79 83 94 72 46 65 81 61 66 81 66 53 56 60 101 123 138 141 140 140 140 132 154 199 218 223 229 230 231 228 223 225 240 184 7 0 0 0 2 1 62 206 244 227 228 254 120 0 21 27 26 28 58 55 55 51 53 51 50 48 57 89 88 88 91 90 95 88 73 56 30 64 242 255 253 253 251 252 253 253 250 227 164 112 82 102 94 74 94 71 92 107 80 70 88 82 48 58 83 67 68 69 87 79 82 88 122 140 144 146 142 136 136 162 204 217 222 228 230 230 228 222 219 225 239 85 0 1 0 2 2 69 212 245 231 228 242 252 84 0 23 31 24 28 55 56 53 48 49 50 51 50 74 93 88 85 90 93 92 88 69 52 30 44 225 254 254 253 253 253 253 252 251 254 236 177 129 112 102 85 94 84 88 103 85 95 64 86 80 63 67 74 99 107 113 116 118 127 136 144 146 143 134 135 172 209 219 221 226 228 230 228 222 218 219 236 191 9 0 1 1 2 82 219 244 235 230 240 247 242 58 3 23 31 29 29 54 53 51 48 51 50 49 59 90 86 89 85 87 87 86 79 68 50 28 26 202 255 254 253 253 253 253 252 252 253 255 249 203 146 121 110 111 105 110 92 103 89 69 87 106 102 98 117 137 133 127 130 130 139 141 139 141 137 139 181 215 221 225 227 228 228 228 223 217 215 221 236 93 0 2 3 17 103 224 244 236 232 239 246 245 226 38 7 25 29 27 28
