P2
# Generated by OpenCV 4.2.0
92 112
255
27 21 15 17 33 14 8 14 17 14 57 30 24 42 23 15 26 29 26 15 60 50 34 20 6 16 9 4 7 17 41 77 103 115 105 113 109 107 108 97 107 94 111 90 78 80 67 76 84 69 77 106 100 110 155 163 161 160 171 193 207 199 196 187 175 169 169 171 168 166 167 174 168 168 146 86 36 38 29 6 3 3 2 43 51 55 25 64 66 74 36 31 18 14 24 34 15 8 13 19 15 39 40 21 35 28 15 19 31 24 15 46 53 42 27 9 13 15 10 25 35 59 90 118 128 117 116 129 131 130 133 127 126 128 120 110 91 91 84 77 80 88 94 92 104 117 130 160 163 171 177 190 205 204 202 196 191 188 188 192 188 182 183 181 180 178 182 165 119 67 46 26 14 10 7 25 57 59 40 47 64 72 56 35 21 31 23 7 5 5 12 17 31 39 23 38 32 15 17 26 26 17 43 56 33 29 13 8 16 12 31 54 76 101 121 135 135 139 141 148 145 148 144 146 133 131 119 126 120 108 109 104 94 90 92 100 99 120 140 156 180 185 185 190 201 196 200 201 200 199 201 197 199 195 190 188 182 179 184 189 178 154 98 63 34 7 3 4 38 52 48 27 52 66 62 40 33 16 6 11 6 10 16 24 38 16 32 32 13 14 26 20 20 32 55 33 31 18 6 15 18 30 54 78 106 122 131 133 136 147 152 152 159 165 161 159 155 154 151 160 179 167 153 146 144 145 144 152 167 168 173 171 190 205 202 202 202 195 198 199 198 198 200 202 201 195 194 193 187 187 184 180 179 180 161 110 68 37 9 6 16 51 52 27 41 63 56 53 7 10 14 6 7 19 25 32 18 28 33 15 11 25 22 22 23 53 33 29 24 9 9 31 30 52 72 105 127 127 140 147 146 151 155 160 169 176 174 176 179 181 180 181 189 203 192 189 194 191 195 196 190 187 191 190 196 204 205 207 205 199 198 199 198 200 201 200 200 194 193 191 189 189 185 179 177 182 181 161 113 72 31 16 5 41 54 32 25 58 64 56 19 15 8 6 17 29 31 21 23 34 20 8 23 20 23 17 39 41 30 26 17 6 17 40 48 64 88 122 130 129 141 145 147 152 155 167 171 173 182 183 187 185 190 191 193 206 213 209 208 207 205 206 202 196 205 193 199 206 206 207 203 201 200 199 195 197 198 196 199 196 196 195 190 189 185 181 176 179 182 180 166 114 59 23 6 24 58 39 13 39 69 62 18 6 6 15 32 31 27 22 27 23 8 18 16 23 19 24 43 26 36 18 11 7 31 51 63 89 105 124 127 136 138 146 150 155 162 173 177 176 181 186 186 192 195 194 198 198 202 208 204 200 200 204 204 200 205 197 199 206 207 206 203 203 200 197 195 194 198 199 197 196 197 197 197 194 190 183 179 180 179 176 183 168 114 36 9 8 50 57 20 26 51 68 6 8 15 28 38 32 25 25 24 9 20 20 22 23 18 46 25 37 24 12 8 21 47 66 83 105 114 121 126 137 139 144 149 156 165 170 173 176 185 183 187 188 190 192 195 199 200 198 203 194 199 204 200 205 209 204 205 205 206 209 208 206 202 199 200 199 200 203 201 202 202 201 198 201 199 196 188 186 182 173 180 174 160 68 23 6 26 52 24 16 37 58 13 12 28 29 31 26 27 25 13 19 23 13 31 17 39 35 28 40 15 7 10 34 58 79 102 112 111 121 134 137 137 143 155 163 166 171 173 177 181 184 188 190 191 195 200 200 196 198 199 200 203 204 203 209 211 208 206 204 208 207 205 205 206 206 203 205 204 204 202 202 203 204 203 203 204 201 197 195 190 176 177 175 179 131 40 13 16 50 32 18 34 38 5 19 28 27 30 28 21 19 14 19 13 16 17 32 43 19 42 26 12 7 19 43 63 94 111 117 120 132 132 135 135 147 159 166 167 167 172 178 181 185 187 191 195 197 196 195 197 196 198 200 204 210 208 212 208 204 205 208 208 206 206 204 210 208 208 207 204 204 207 203 204 207 204 205 203 201 201 198 196 187 181 183 182 167 82 20 9 38 38 27 27 33 18 18 27 30 31 22 18 15 18 17 9 17 24 49 22 29 33 17 10 13 24 45 69 108 120 122 129 136 131 131 140 154 160 168 167 168 174 179 181 187 189 191 194 197 195 196 197 200 202 196 198 206 208 209 203 202 205 207 204 206 204 204 209 208 208 207 206 206 207 205 207 205 206 205 204 200 200 199 200 193 186 188 186 170 102 32 9 33 43 28 21 26 11 20 33 32 24 17 15 15 22 12 11 17 42 43 18 35 20 13 11 14 27 48 86 115 118 129 131 137 141 130 141 155 160 163 164 161 169 172 180 185 192 189 192 196 194 196 194 196 201 203 203 203 207 208 208 203 202 203 202 204 204 204 207 206 204 206 205 201 205 206 206 206 206 207 206 203 201 200 198 196 187 187 191 181 140 48 7 30 52 32 22 24 16 36 31 27 21 14 11 20 17 11 10 38 55 25 27 24 20 11 12 24 36 64 104 116 121 132 131 139 139 134 145 154 161 166 165 163 168 173 180 185 186 187 188 188 195 198 198 200 201 202 207 206 207 210 207 206 208 205 207 209 208 205 207 207 206 208 207 207 207 207 205 205 203 207 205 203 202 198 198 196 189 190 193 184 149 88 37 20 46 40 25 26 42 34 26 20 14 13 22 23 13 8 24 63 36 21 27 23 20 12 15 26 45 74 103 116 125 136 136 140 135 141 153 159 164 167 172 171 168 172 177 183 179 186 188 182 191 196 199 201 203 206 207 210 207 208 207 205 207 207 207 206 204 203 203 206 204 206 207 208 206 202 206 205 207 207 206 206 201 193 193 192 187 190 192 187 152 91 63 36 38 43 20 22 32 23 20 19 19 23 23 18 7 12 40 60 18 29 20 24 14 12 16 35 59 91 104 114 125 141 142 150 149 141 146 160 168 168 169 170 170 171 178 181 182 185 190 189 192 198 202 201 202 206 206 208 206 202 204 205 206 207 207 204 206 207 207 207 207 206 206 207 203 200 205 207 207 208 209 205 200 196 194 190 183 186 189 185 164 110 60 41 53 49 19 25 25 16 13 18 20 19 18 10 6 22 48 28 15 30 24 21 13 14 28 54 77 85 97 105 122 137 143 154 150 139 142 150 162 170 170 171 170 171 179 182 177 184 194 190 193 197 197 199 200 204 205 202 198 198 200 204 202 205 209 207 208 207 203 205 204 203 205 205 203 203 205 204 204 206 205 202 196 195 195 189 186 186 189 183 171 131 91 62 49 70 20 30 14 14 13 16 23 15 17 4 18 45 41 7 22 23 27 17 13 21 38 56 70 83 96 107 121 133 146 150 155 147 144 142 152 165 166 167 166 161 167 170 169 177 184 189 191 192 192 198 201 206 203 204 198 198 199 202 201 197 205 203 201 203 204 200 199 204 206 203 204 202 203 204 203 203 199 195 198 196 192 189 184 184 190 185 172 114 73 92 62 57 24 33 13 11 15 21 16 15 9 6 38 51 16 13 24 20 22 14 14 21 37 59 73 87 102 111 125 137 147 145 152 141 141 141 147 160 163 166 169 168 165 166 177 179 183 189 192 195 196 198 201 203 202 206 207 203 206 208 201 198 200 203 204 205 204 202 204 203 201 200 203 204 202 203 201 198 191 195 197 193 191 192 183 184 192 192 186 132 52 46 80 68 30 25 10 12 22 16 11 15 6 20 49 34 4 24 20 25 17 9 10 31 44 57 73 90 99 104 121 134 144 152 153 149 147 149 151 160 167 171 170 165 166 172 180 182 179 183 191 191 194 197 199 201 200 204 201 202 205 207 203 200 200 200 204 205 205 205 202 205 201 202 201 202 199 198 193 192 192 194 190 186 188 188 185 187 191 189 190 150 68 49 73 76 41 25 15 26 27 13 17 14 14 40 48 14 12 23 25 23 16 8 17 25 46 72 84 93 106 112 115 126 134 147 149 151 156 154 148 154 163 168 166 169 169 177 178 182 182 177 186 192 192 198 200 202 207 203 199 199 201 205 204 205 203 199 195 196 203 199 198 200 200 196 196 197 198 199 197 197 199 196 193 195 195 189 188 187 187 187 191 158 67 49 53 74 57 29 25 25 11 15 17 15 31 49 32 6 21 23 26 17 10 8 13 21 45 76 91 101 104 112 119 130 134 149 152 146 158 157 154 160 168 173 171 169 169 176 180 185 184 185 191 195 191 197 199 200 204 200 203 202 205 204 205 204 204 206 207 204 207 207 201 202 202 202 203 200 202 196 194 194 194 193 192 196 195 191 192 190 186 183 190 173 88 50 27 41 75 38 25 14 8 20 7 25 47 42 12 8 17 23 20 13 4 9 17 31 52 67 75 92 101 112 120 133 135 145 149 138 148 152 153 154 156 160 168 168 166 164 169 176 182 190 192 191 193 195 193 198 199 198 199 201 201 203 203 204 205 205 206 206 206 206 207 206 203 200 201 200 203 198 197 195 193 196 196 197 196 195 193 190 184 183 189 181 101 70 48 28 48 65 14 8 16 14 10 47 49 24 6 12 19 27 17 11 9 14 30 40 37 49 71 90 104 114 114 127 134 149 152 143 142 151 156 157 160 166 167 173 176 169 178 179 181 187 186 183 184 185 194 199 202 203 202 200 202 205 209 206 204 200 206 205 207 207 207 204 201 201 202 202 200 201 198 196 193 198 199 201 196 196 194 189 179 181 187 196 105 22 50 43 37 52 9 11 18 10 38 53 36 8 9 16 23 23 15 10 13 18 22 27 42 59 79 99 113 113 112 118 127 141 153 150 150 158 154 157 165 172 177 176 173 178 184 188 190 195 193 193 192 197 200 199 201 204 206 206 206 207 207 207 204 204 206 205 205 209 209 203 201 203 203 200 204 201 201 197 197 197 199 201 199 199 195 189 182 179 184 201 119 2 21 28 21 50 7 19 12 34 50 48 9 8 6 19 30 21 14 12 13 17 26 47 62 71 84 101 115 117 116 123 125 136 145 147 147 152 152 155 164 171 177 182 178 181 185 183 191 195 194 192 195 197 200 205 204 207 204 207 203 204 206 207 207 205 204 204 206 205 205 204 207 204 206 203 204 201 203 202 201 201 202 204 203 197 193 190 189 184 186 199 144 9 9 17 14 36 20 14 12 26 56 21 6 10 10 27 29 25 12 12 15 23 32 47 55 69 86 102 114 116 123 129 133 130 140 149 150 153 155 156 163 170 175 179 182 184 187 193 190 191 196 195 197 196 198 206 204 203 202 204 202 204 208 207 206 204 204 205 203 204 206 203 204 208 208 202 203 201 203 205 203 204 205 207 206 203 196 190 194 192 190 194 158 18 5 23 19 28 22 13 15 55 32 4 12 8 13 36 30 18 10 17 17 18 25 30 48 77 93 104 109 111 118 127 132 134 144 145 154 156 153 155 162 166 173 180 178 181 185 190 188 188 194 197 194 195 200 203 200 198 203 204 203 207 207 208 207 210 205 204 203 203 208 208 204 207 203 197 197 206 207 204 202 207 206 207 207 207 203 198 198 194 191 193 174 31 0 22 27 24 21 13 37 49 5 6 13 7 27 32 24 11 12 11 10 17 28 47 53 82 110 109 108 111 118 120 126 138 146 149 152 152 152 159 167 175 182 187 191 183 181 184 185 183 185 193 191 192 196 199 200 204 204 206 206 207 207 206 207 210 208 200 201 204 207 207 203 200 197 199 204 208 207 204 204 206 206 204 205 207 204 196 199 203 193 192 187 58 2 14 30 23 14 31 51 12 3 8 9 12 34 25 21 9 11 16 15 27 60 83 81 87 107 113 120 123 124 118 122 140 146 152 150 154 164 172 171 182 187 193 198 194 196 194 194 192 191 193 187 188 188 197 203 200 202 204 207 210 208 208 204 207 210 195 197 202 203 200 203 205 201 200 203 207 210 205 207 205 207 205 203 204 195 184 177 181 193 204 199 92 5 8 23 26 19 55 22 5 10 15 5 26 27 28 18 14 13 9 20 60 96 109 105 104 101 103 119 126 125 118 129 145 150 149 149 162 172 179 187 190 192 198 201 201 195 194 194 193 198 198 193 196 193 190 191 194 197 199 201 206 207 206 203 203 206 200 183 189 195 199 200 195 201 206 201 202 206 200 206 202 199 203 196 184 167 169 156 154 161 171 193 137 34 4 16 26 64 32 6 12 17 10 8 33 25 24 11 6 5 19 52 90 99 105 114 107 96 98 117 120 122 121 136 159 158 152 156 168 171 177 188 189 196 195 195 194 195 190 192 198 203 201 196 195 192 195 193 194 191 192 195 200 197 196 201 203 203 203 181 183 185 187 188 187 191 198 199 194 180 157 164 145 148 156 154 164 160 142 141 149 150 144 148 149 72 27 8 20 41 13 6 8 8 4 21 34 25 11 4 4 12 44 79 98 98 100 110 112 100 102 118 118 123 131 151 161 160 163 165 166 167 165 164 168 178 179 172 174 178 177 180 190 196 196 191 187 186 186 188 192 192 190 190 190 187 186 192 200 199 198 181 174 185 184 178 181 185 180 185 165 124 107 93 88 102 105 117 126 133 123 119 115 114 122 135 164 107 64 5 22 18 6 6 9 5 3 31 29 18 6 4 7 29 60 92 102 104 108 110 114 105 110 112 114 127 148 156 164 164 157 145 137 136 137 147 145 135 141 137 132 138 147 155 158 167 174 175 173 174 182 180 179 183 184 186 187 182 179 183 188 192 185 173 168 179 175 169 166 168 165 136 98 87 82 61 75 84 80 87 97 104 118 118 107 109 116 129 169 120 103 73 102 10 5 9 6 3 15 34 23 11 5 7 11 36 68 97 106 108 112 110 116 110 109 105 110 131 143 141 137 129 113 110 103 101 108 116 98 90 100 110 102 91 95 105 105 108 106 126 134 131 161 170 166 171 173 180 183 172 172 177 179 186 184 173 164 167 166 157 144 143 129 96 96 96 69 57 54 52 55 63 79 100 126 121 123 121 116 138 181 125 96 157 195 7 8 8 3 3 31 30 22 10 4 6 18 42 73 100 109 112 116 114 112 118 109 104 107 116 112 99 95 95 92 91 87 85 79 89 92 87 74 67 67 62 59 52 49 52 59 75 84 100 125 141 152 152 161 168 177 169 168 179 180 180 183 172 158 160 166 157 141 129 108 105 102 90 70 66 75 97 116 128 128 140 143 142 138 142 129 135 178 146 113 170 193 8 7 3 1 15 37 23 11 4 6 8 18 45 80 107 111 112 119 116 111 117 108 98 107 102 84 79 79 79 78 77 77 75 69 67 68 61 55 50 40 37 31 30 35 45 57 68 76 95 99 112 133 133 139 149 165 166 166 173 182 179 179 171 154 156 159 152 142 119 107 93 85 81 93 110 121 129 148 153 151 154 166 177 171 155 146 153 186 162 118 148 187 7 5 0 4 25 30 13 8 5 7 10 28 60 85 108 111 107 119 114 112 117 114 101 102 100 83 70 76 75 71 82 96 104 108 101 103 98 108 113 111 98 91 80 68 55 53 61 66 79 92 95 109 123 135 139 154 153 154 161 173 178 173 172 160 151 145 136 118 97 86 80 68 57 40 27 24 29 34 32 41 67 95 115 159 175 164 173 184 177 106 126 184 6 3 0 14 29 24 6 7 6 5 12 44 79 96 102 113 108 112 119 120 112 112 98 94 86 76 77 78 76 86 107 121 128 141 149 155 163 170 174 174 172 158 138 114 92 73 58 54 57 68 83 94 110 125 139 152 146 144 163 183 187 173 169 158 135 120 106 89 87 75 53 58 37 36 53 55 41 72 94 59 41 74 87 89 168 181 176 184 188 112 117 186 2 2 5 24 27 10 4 4 5 9 40 69 88 103 109 105 107 110 117 119 111 108 98 89 78 72 72 71 84 101 109 130 144 159 166 169 164 151 128 101 84 74 63 46 51 69 79 70 56 50 54 63 77 99 122 135 144 145 166 181 190 181 173 164 141 111 97 94 87 68 70 43 32 56 52 77 56 96 187 159 92 50 85 101 148 185 175 180 196 151 108 184 5 3 18 25 17 3 4 3 3 31 58 63 87 104 115 103 101 107 114 117 117 113 107 103 89 87 92 91 105 122 141 151 143 118 84 63 41 26 20 13 20 40 71 98 65 34 38 66 70 60 53 51 53 58 78 105 133 149 169 183 193 193 182 168 137 126 120 99 95 79 102 61 53 29 7 45 7 90 210 173 124 108 80 95 125 153 171 176 193 175 102 162 5 15 23 15 10 5 3 6 23 56 51 81 107 118 117 103 105 109 114 114 119 118 110 110 109 105 105 114 123 130 109 69 38 17 14 17 11 50 61 75 65 111 89 71 117 110 70 51 65 73 67 63 65 59 60 87 126 152 172 188 197 199 193 173 150 144 129 152 109 83 158 130 66 73 49 52 53 173 198 169 165 152 135 119 130 160 180 178 187 194 129 144 19 24 14 16 7 3 7 20 53 53 66 97 97 111 115 106 110 113 110 109 110 121 123 120 117 117 115 123 111 75 38 23 17 50 32 5 24 12 9 34 32 172 201 107 58 93 105 104 83 78 79 77 82 88 76 82 124 154 180 198 200 203 202 181 159 150 177 178 103 121 156 176 182 169 158 157 168 165 163 169 168 168 159 170 168 177 184 184 186 193 148 151 30 29 23 16 5 5 17 58 56 59 68 80 103 115 110 104 110 116 115 114 114 119 132 126 106 110 119 104 87 67 56 52 66 88 67 9 26 30 44 41 73 205 205 181 107 69 88 86 129 130 113 105 100 108 105 94 116 149 187 199 204 204 203 189 163 164 194 141 126 172 161 156 154 149 158 157 152 157 170 181 180 161 160 184 185 182 183 188 188 196 156 146 53 43 15 10 8 6 20 51 44 45 80 93 107 109 110 114 116 116 115 120 126 122 121 138 134 106 91 86 83 66 75 99 124 149 153 123 98 88 67 80 163 198 183 175 167 144 141 79 88 175 167 157 130 121 115 100 119 153 177 194 203 204 205 197 176 170 197 182 183 184 156 131 138 148 171 181 188 193 191 176 148 135 171 180 184 185 187 190 189 194 171 150 58 36 15 9 9 8 30 30 56 67 92 93 97 103 109 114 122 120 121 124 129 130 131 130 131 121 92 78 77 84 109 131 138 139 142 146 165 162 166 162 166 150 156 174 174 173 179 174 152 161 189 183 148 130 120 103 125 166 187 199 203 205 205 202 192 175 175 186 180 166 152 121 102 122 133 141 143 143 142 126 126 150 164 184 188 189 189 192 191 192 179 149 51 31 28 29 11 13 33 45 51 69 90 88 104 114 120 114 121 123 127 130 132 136 141 151 145 135 128 125 127 131 119 121 133 142 152 149 148 149 158 145 156 159 168 157 142 146 162 177 177 174 175 172 141 138 128 111 132 176 198 201 204 203 208 207 201 187 174 168 169 171 166 157 127 103 88 87 87 92 105 122 148 182 184 178 187 190 190 195 192 191 188 151 53 36 25 48 24 12 42 51 41 75 81 92 114 123 125 116 120 134 131 137 146 143 144 149 156 150 152 152 140 122 114 107 99 109 134 150 166 171 178 176 166 149 126 111 108 129 148 153 154 154 154 163 148 135 120 114 144 188 202 203 205 205 205 207 206 202 186 179 183 176 169 173 181 177 172 165 160 159 166 180 189 188 191 193 187 186 190 196 195 187 187 165 51 42 51 42 36 27 39 45 57 71 71 94 111 117 123 124 123 130 139 143 155 156 149 144 157 161 155 150 148 144 135 98 83 79 73 81 88 92 96 94 89 86 89 110 143 159 158 155 165 166 159 162 151 141 119 120 157 195 202 203 207 206 204 206 208 207 199 184 192 195 185 182 181 183 188 188 189 192 196 198 201 193 187 188 191 188 187 195 198 192 189 171 14 22 58 35 20 27 45 58 58 46 75 101 113 120 121 128 130 132 143 148 153 160 155 155 154 157 158 155 160 161 149 136 134 136 106 89 85 88 91 105 118 139 156 169 171 167 168 176 177 174 167 162 153 141 123 130 157 185 199 205 208 207 205 205 203 205 196 183 187 194 200 193 191 192 191 191 189 194 201 201 200 201 194 188 187 186 193 193 196 192 188 177 34 26 49 50 22 23 55 71 50 46 71 97 115 122 123 125 130 133 140 147 155 159 160 157 160 157 160 166 163 159 166 175 179 180 178 173 167 170 167 175 180 179 177 175 179 181 188 182 180 177 169 159 146 135 128 132 149 169 192 207 208 208 206 207 205 204 179 172 189 195 192 205 199 195 195 199 195 197 204 200 201 203 200 197 193 192 197 197 194 189 185 182 64 52 69 96 43 18 41 62 60 54 76 98 110 116 118 122 128 135 143 153 160 163 163 160 159 161 165 165 162 171 173 168 167 174 187 183 183 182 177 182 184 180 180 177 182 191 189 182 181 173 165 153 140 131 131 137 144 163 177 200 207 204 209 203 204 199 176 174 186 194 183 201 203 198 201 203 204 205 204 204 204 203 204 204 198 197 199 197 196 188 181 189 73 62 73 107 67 28 50 62 63 47 82 99 98 113 118 121 131 140 143 153 158 160 163 158 162 159 160 168 167 167 162 163 170 180 185 187 183 184 182 181 180 177 181 184 190 193 190 185 183 170 156 144 134 129 137 142 139 156 174 193 203 204 205 203 207 197 182 179 180 191 196 207 195 187 203 207 209 207 208 206 207 208 204 202 201 196 197 198 196 187 180 188 82 77 69 97 98 51 61 67 53 43 76 80 88 109 119 121 130 145 146 149 153 161 162 163 164 163 163 164 166 166 167 174 177 181 184 185 184 184 187 182 188 186 189 194 191 192 192 189 178 162 146 138 136 137 137 137 143 153 171 189 198 205 208 201 206 196 184 181 179 188 206 209 202 180 201 209 209 209 208 205 209 209 205 201 199 198 193 194 194 188 181 184 98 98 81 107 125 89 66 57 60 31 51 88 89 104 109 116 126 136 142 147 152 160 160 162 165 167 168 167 169 166 176 178 177 184 189 186 188 195 197 194 191 197 201 195 190 194 192 185 169 158 143 138 137 140 138 137 144 152 168 183 193 200 204 199 201 197 185 183 180 186 197 205 208 201 207 208 209 210 210 210 210 205 201 202 200 196 195 190 189 189 182 177 127 110 86 114 128 96 72 65 48 44 40 73 98 104 106 113 122 131 133 145 151 153 156 158 158 164 168 170 172 175 173 178 182 192 194 191 196 196 199 203 201 203 199 195 194 194 191 178 165 155 147 139 139 137 132 138 147 151 171 184 188 193 200 198 199 197 190 185 182 185 198 203 208 212 210 209 211 211 208 211 211 202 197 196 195 188 191 193 187 185 182 171 144 105 84 112 134 104 77 52 43 53 47 47 89 101 106 114 122 127 136 151 151 150 156 160 156 164 169 175 177 175 173 176 180 193 192 195 191 195 198 202 201 204 196 195 193 191 184 178 167 160 154 144 139 134 133 141 152 163 170 174 185 192 198 202 202 197 186 188 187 183 194 202 205 210 212 209 210 208 209 211 209 203 198 191 187 177 185 191 184 178 175 177 147 118 91 99 139 115 72 60 36 42 48 52 69 95 104 112 119 124 137 145 150 149 151 155 162 166 166 174 177 173 174 176 178 187 192 196 194 198 200 204 204 200 198 198 197 185 182 176 170 163 149 133 132 127 134 149 163 170 171 170 180 192 202 201 202 194 184 184 191 184 186 197 202 206 208 211 209 210 209 204 204 204 200 196 192 185 184 186 183 182 173 178 138 129 105 84 131 129 81 81 47 22 39 61 70 86 101 106 112 110 125 142 142 151 150 146 148 163 164 173 174 172 171 177 182 183 186 191 188 198 198 197 199 198 199 198 190 184 181 178 176 154 124 123 127 125 141 157 167 162 170 167 177 189 197 203 205 197 189 179 185 183 180 193 201 203 204 208 208 206 210 205 205 205 200 197 194 193 183 180 177 178 169 166 123 121 112 78 113 136 99 90 64 27 32 60 69 81 97 99 109 112 122 135 136 142 150 141 150 162 155 159 166 169 171 175 181 183 185 188 193 203 199 199 198 196 196 196 192 190 189 186 174 145 117 125 131 129 148 165 165 165 163 162 171 187 200 200 195 196 188 180 181 183 175 186 201 203 204 203 206 206 207 204 201 201 197 192 191 187 180 174 170 173 164 159 120 123 96 59 102 138 104 98 80 42 38 51 61 75 88 98 102 112 125 133 133 139 142 140 143 161 158 163 167 172 171 169 181 182 181 190 195 200 199 202 197 191 195 195 198 194 186 183 174 144 128 132 133 127 135 164 170 164 161 161 168 173 193 199 195 189 182 176 173 179 181 183 187 199 207 203 199 205 205 204 199 194 192 191 188 181 177 173 169 165 159 156 139 152 119 61 87 128 100 92 80 54 35 28 66 71 84 92 94 101 114 131 133 137 145 126 130 155 157 165 164 170 172 167 174 181 184 185 189 192 196 198 197 195 192 193 195 190 186 184 164 138 136 138 143 147 149 158 162 159 159 158 164 169 183 192 204 198 180 175 180 181 183 183 178 186 201 205 200 203 204 202 198 192 192 186 178 175 172 170 170 161 159 152 150 158 156 134 119 123 100 93 86 61 40 33 65 67 71 82 96 96 106 120 127 134 139 140 146 151 154 163 161 165 166 169 173 174 180 181 188 187 194 194 194 193 190 197 192 185 181 177 147 129 135 140 149 164 163 160 157 156 155 156 165 177 183 187 200 201 185 181 181 182 189 184 186 180 184 196 202 200 199 197 197 191 186 181 173 175 173 166 165 156 152 149 159 151 148 147 131 126 109 106 99 63 45 46 65 68 63 80 93 93 106 117 120 132 139 141 144 147 145 157 156 161 165 162 166 169 173 175 182 184 188 189 185 188 190 186 178 177 179 155 126 118 130 140 148 165 179 173 167 164 160 156 171 187 194 204 199 196 184 183 182 183 186 179 183 186 180 185 192 195 198 193 194 191 183 181 175 168 167 163 159 153 147 175 157 153 143 139 132 130 109 106 106 72 43 44 66 64 54 87 92 93 100 113 120 128 130 133 142 145 145 148 150 155 162 162 161 162 166 167 175 179 180 182 177 181 183 172 168 173 169 142 103 109 123 131 145 156 174 181 169 166 163 158 172 197 211 210 209 211 197 188 186 183 186 176 171 192 180 172 187 191 190 192 191 185 184 178 176 162 165 161 153 151 163 195 152 153 150 146 145 145 116 102 106 77 57 43 51 69 58 77 93 91 100 112 118 121 124 128 137 141 139 145 148 149 149 153 159 161 164 161 160 173 175 178 176 175 171 169 163 166 162 139 89 95 112 115 129 136 154 165 158 160 159 164 179 199 192 183 186 198 204 197 191 179 171 149 158 192 184 174 179 185 188 186 187 181 178 176 173 164 166 162 149 140 176 201 152 150 148 151 154 147 123 100 109 71 77 53 51 77 59 80 92 89 93 100 114 123 125 124 133 139 138 150 145 146 153 153 156 163 161 161 150 161 168 173 176 175 169 158 152 160 166 162 110 73 91 96 94 96 113 128 130 131 125 130 161 178 167 166 163 166 185 198 186 160 100 84 163 188 185 173 173 180 188 189 186 179 174 173 171 168 163 160 156 139 167 211 134 139 142 145 144 133 92 74 116 78 74 58 56 80 75 91 82 78 94 104 117 122 119 115 126 136 135 144 146 145 155 153 156 157 153 152 147 156 168 174 175 175 164 150 152 160 158 165 150 79 55 62 60 40 28 45 80 102 90 73 100 143 153 145 135 121 149 177 142 59 28 117 187 184 189 181 174 181 183 188 187 181 175 168 164 165 163 162 159 146 149 201 101 115 121 117 103 60 11 20 101 87 67 54 59 69 74 73 68 72 97 94 114 123 120 118 128 133 136 129 138 146 151 152 154 149 146 155 160 151 161 165 168 165 152 148 156 161 158 152 150 121 68 32 19 7 3 2 5 29 57 67 69 91 113 118 105 83 95 111 56 27 107 180 180 182 189 190 174 173 183 190 189 180 179 171 161 161 168 164 165 148 163 192 26 27 33 28 11 0 1 5 73 77 68 44 56 62 67 74 74 76 85 95 115 122 126 124 126 129 128 132 128 140 145 147 159 151 148 152 158 155 162 167 164 150 145 153 158 159 156 148 142 137 132 92 70 54 59 54 26 13 8 25 53 61 73 76 69 65 80 104 97 123 174 178 181 188 190 191 181 173 182 184 184 182 177 171 165 166 173 166 160 146 153 196 0 0 0 0 0 2 4 3 47 90 73 54 53 64 61 80 89 80 79 95 112 127 126 124 123 128 132 133 133 132 143 141 143 146 147 149 152 150 158 159 152 143 150 161 161 162 160 154 147 138 143 127 117 93 86 73 67 49 29 10 13 31 33 29 42 74 105 120 96 128 164 169 184 192 188 188 187 178 172 178 181 176 176 168 161 163 169 169 157 154 163 187 4 2 3 1 2 2 5 20 44 81 68 69 57 55 75 71 95 78 77 102 115 119 122 122 123 126 126 134 135 138 145 145 148 144 148 145 142 130 147 155 148 143 151 159 159 161 167 154 150 147 143 117 114 105 85 77 90 78 58 27 32 27 8 12 47 85 87 88 87 100 144 180 183 185 189 188 185 189 174 174 176 178 176 163 160 164 159 163 154 159 175 190 2 3 3 2 1 0 16 63 58 56 59 61 64 63 76 72 84 93 95 95 112 113 119 136 124 126 120 121 129 134 143 145 146 150 147 144 145 149 156 155 153 153 147 153 158 152 152 145 149 146 132 118 118 108 76 103 117 85 80 64 52 48 29 17 75 107 113 100 105 97 123 171 176 175 179 183 181 179 182 177 172 173 175 159 161 163 161 156 139 150 194 197 7 8 5 4 3 1 29 76 62 51 53 59 60 67 79 77 81 87 99 101 110 108 116 138 124 115 119 116 122 132 134 141 140 145 143 144 143 153 159 159 154 154 154 148 144 147 150 158 141 115 117 116 100 85 98 123 134 126 121 111 52 65 67 50 93 131 124 99 102 122 109 150 180 180 177 168 178 181 179 180 167 174 171 163 165 161 168 155 132 149 188 201 14 8 7 8 5 4 38 67 67 46 48 67 54 72 80 73 79 71 99 112 114 112 123 137 130 118 122 112 121 128 128 130 134 138 140 135 142 155 166 163 159 151 159 144 140 142 153 148 134 115 100 94 82 99 103 160 158 145 129 96 68 71 70 75 82 94 105 104 91 117 110 116 152 175 177 173 167 170 186 174 168 174 167 170 165 161 172 155 138 133 185 199 15 9 10 12 9 4 39 61 78 59 44 68 58 72 78 65 68 80 84 109 114 116 102 130 140 117 110 117 118 119 121 123 127 131 136 138 149 157 158 141 125 125 144 144 131 135 134 130 138 113 98 111 102 109 104 127 114 113 123 50 60 78 76 75 72 75 113 117 107 96 108 95 118 158 150 160 150 147 164 169 158 163 167 164 163 161 164 142 132 131 188 202 13 10 14 11 15 1 34 64 84 66 38 54 70 70 73 61 65 78 81 98 116 114 100 114 139 128 102 117 112 108 120 125 129 125 134 145 154 154 136 117 101 119 131 119 113 126 126 132 133 107 96 96 85 104 96 100 112 94 117 64 78 92 69 86 98 94 115 141 126 88 96 82 103 130 138 147 149 137 162 156 156 168 165 161 157 156 153 151 126 126 194 202 12 13 14 11 16 1 26 71 73 71 47 47 70 74 75 68 65 74 96 97 114 113 108 106 129 121 100 108 110 106 112 124 128 125 132 142 150 152 130 106 101 115 93 108 120 100 105 95 103 99 74 65 84 114 119 121 137 125 137 131 114 118 115 100 103 128 131 126 114 106 83 85 77 99 120 129 140 115 137 147 124 138 161 159 164 146 153 142 132 126 199 197 14 13 13 9 16 2 19 69 69 76 50 47 72 82 67 68 79 81 89 99 105 112 121 101 107 121 110 100 105 112 116 123 122 119 126 129 129 115 101 108 92 77 68 109 89 88 94 99 97 83 100 113 104 137 155 154 159 167 168 175 167 167 164 133 132 150 146 131 112 136 111 110 87 92 121 116 137 120 105 133 123 118 142 156 161 157 158 132 113 141 202 195 17 16 11 9 15 4 8 67 89 79 46 58 82 85 66 75 89 93 72 90 100 107 124 135 100 110 118 100 110 122 111 118 110 113 122 127 122 113 80 75 83 88 65 70 86 79 83 84 112 117 125 153 141 140 136 135 122 121 115 113 129 158 161 135 131 127 126 129 119 140 141 144 141 116 132 126 97 90 101 113 134 138 140 167 160 164 148 139 111 170 204 192 22 17 10 12 11 4 1 67 91 79 76 71 77 76 79 82 88 96 72 87 93 104 117 125 119 115 115 107 125 122 115 105 113 112 111 123 136 104 76 88 85 51 37 65 84 66 67 68 98 118 98 102 94 88 73 69 63 54 46 41 46 61 84 68 48 41 44 50 74 90 111 130 132 116 122 97 58 53 91 124 119 140 141 167 157 168 136 123 129 185 212 195 18 19 12 11 8 5 1 52 95 78 79 72 63 62 66 75 86 97 69 74 104 98 109 114 122 119 106 105 122 119 100 87 110 108 90 114 117 87 95 86 61 54 52 71 53 58 53 50 54 51 40 34 26 33 40 38 47 68 83 84 74 50 43 60 61 54 29 27 27 18 35 44 47 54 52 24 33 46 73 126 130 118 135 165 150 149 120 121 134 194 214 201 26 19 17 9 7 5 0 29 99 79 77 62 43 62 76 79 79 72 69 55 93 103 103 112 111 123 118 119 104 99 105 114 98 101 99 108 93 93 97 77 64 56 55 32 13 7 7 7 3 22 26 2 0 31 68 64 65 153 176 181 172 132 133 153 144 111 59 52 21 2 0 3 19 46 93 80 56 74 112 95 115 110 131 163 159 125 112 139 152 218 212 204 24 17 11 5 7 8 1 11 92 95 73 38 35 58 67 68 84 75 71 68 78 99 98 113 95 96 115 123 102 110 117 107 93 93 105 102 97 88 86 87 76 72 72 76 67 32 19 6 30 60 44 110 102 82 122 125 103 142 159 136 160 127 114 170 139 103 153 154 58 48 51 85 115 136 152 139 102 91 117 117 144 128 127 151 166 136 126 120 182 221 210 205 23 16 10 3 7 8 2 3 70 113 80 44 51 69 44 75 72 69 61 71 70 88 94 100 104 108 104 129 104 108 104 84 98 94 102 96 105 95 103 97 80 125 116 122 127 120 109 92 89 111 110 137 171 159 171 199 164 187 203 165 192 215 163 201 166 139 167 128 89 112 146 146 152 157 153 160 141 119 97 124 152 115 139 125 142 134 119 127 196 217 207 205 29 17 7 2 7 7 2 1 49 112 89 73 53 73 58 74 81 72 64 60 66 69 90 82 104 118 104 130 104 93 103 88 79 89 91 97 106 126 120 125 108 125 133 135 125 125 122 131 119 129 119 127 125 133 130 126 122 131 149 142 141 152 138 131 121 113 109 122 150 155 162 162 156 154 161 156 147 131 119 127 151 111 135 139 134 143 97 123 208 210 206 202 23 10 8 1 7 8 2 2 30 100 108 65 42 67 62 57 71 67 77 75 79 62 80 93 107 118 117 128 128 101 83 95 79 72 84 102 117 127 131 139 122 133 133 130 127 126 113 112 118 131 122 148 151 156 159 160 154 154 150 152 142 130 129 126 140 155 166 176 182 179 173 167 156 169 162 148 154 145 123 141 117 95 112 141 148 149 83 137 218 205 203 199 18 8 7 1 8 13 7 2 17 81 113 80 56 50 51 66 67 52 71 77 88 66 71 82 96 115 117 126 136 105 73 87 81 64 86 98 119 113 120 129 127 143 130 118 126 128 117 101 102 115 125 142 156 154 162 170 171 177 172 171 161 156 163 165 172 174 179 184 177 171 172 164 160 160 148 149 147 137 122 126 91 89 105 147 133 121 89 174 207 197 194 194 14 14 6 3 8 34 29 2 10 58 116 99 69 48 30 66 59 48 62 70 74 70 56 86 98 105 112 116 132 126 72 60 84 74 78 94 112 108 117 140 137 147 139 132 118 122 113 107 108 123 124 129 133 140 147 154 164 171 175 168 157 160 166 163 161 156 159 155 170 164 150 143 158 159 155 153 149 142 125 102 103 98 121 137 120 81 115 199 197 192 190 188 13 14 7 6 8 59 66 3 1 35 104 100 40 46 22 45 58 41 60 49 64 76 62 80 95 74 95 109 119 133 91 64 88 69 71 89 97 117 123 138 137 144 141 139 120 119 116 107 102 103 128 131 130 138 140 143 142 142 134 123 122 126 121 123 126 128 124 113 131 123 113 146 150 155 149 144 159 154 144 103 92 121 107 132 90 72 163 202 194 189 188 187 9 8 9 10 14 59 60 11 14 14 68 99 56 28 17 21 44 40 44 45 54 62 63 52 79 54 88 111 109 106 92 84 67 63 71 87 98 91 101 128 125 129 129 126 122 119 124 113 101 104 107 115 125 112 119 119 109 110 91 100 100 105 101 96 96 105 116 92 104 123 126 137 140 157 155 155 150 150 120 103 93 115 112 125 65 95 201 198 190 188 188 185 15 11 13 16 33 29 12 27 55 14 34 90 71 23 18 8 22 46 32 43 59 55 56 42 54 44 81 91 70 94 87 78 74 74 70 81 71 59 96 103 109 115 117 115 122 121 125 122 112 105 102 104 93 83 84 86 81 86 86 99 90 71 97 106 85 107 117 109 106 121 136 142 162 159 158 162 137 143 136 117 119 121 108 85 73 167 205 193 188 186 184 179 13 18 14 13 39 16 0 41 91 42 13 65 104 60 17 27 29 24 23 24 36 39 47 42 41 49 37 53 67 97 89 63 88 62 63 69 52 67 84 90 95 132 134 123 121 120 124 127 131 127 115 107 90 84 86 85 89 89 88 97 111 85 87 98 94 112 132 135 147 141 151 152 163 160 171 167 123 100 136 118 147 122 95 56 139 202 193 190 187 183 179 175 12 20 10 9 25 18 2 49 104 81 23 26 89 78 30 25 15 10 22 20 24 28 39 39 49 54 44 42 60 111 100 80 65 60 71 60 64 77 64 67 103 127 121 126 130 130 133 132 124 122 115 110 115 106 98 90 83 84 73 79 110 91 89 109 95 109 127 147 170 169 172 167 165 172 178 160 136 115 117 117 122 137 77 94 177 195 189 184 179 176 178 182 15 13 5 13 25 15 6 50 108 120 64 15 51 88 66 22 17 13 12 13 23 28 28 30 51 62 63 56 61 81 87 80 53 50 72 86 67 74 81 84 118 132 139 147 144 118 123 132 120 120 121 126 130 112 113 120 114 84 86 100 108 86 82 111 102 115 143 142 149 164 167 164 170 173 166 149 141 130 100 135 104 95 83 155 174 183 180 177 174 177 182 187 18 10 8 23 25 15 11 26 109 133 108 30 66 64 87 49 25 11 5 24 21 17 27 29 45 54 44 47 49 47 62 74 62 65 78 74 57 77 90 100 115 131 134 126 112 114 127 139 127 123 135 122 116 124 131 126 130 113 106 98 97 92 109 115 104 127 149 141 155 160 157 174 185 173 161 154 131 133 115 129 109 48 101 177 179 174 176 179 177 181 185 188 18 8 15 29 23 18 15 9 60 140 140 47 76 88 58 78 43 23 12 19 24 14 26 24 49 39 39 58 35 57 71 71 80 63 83 61 57 82 81 95 110 116 115 107 104 140 143 149 134 133 139 124 143 154 139 128 136 151 123 121 123 108 118 117 103 130 153 145 160 167 171 180 189 168 157 146 147 144 136 87 67 53 148 182 184 178 181 182 184 185 186 189 13 8 27 31 21 16 20 23 14 100 150 79 56 120 84 65 80 40 23 17 11 5 9 21 31 24 36 39 41 67 65 78 90 66 67 43 68 70 66 91 77 109 113 103 137 159 144 145 136 141 149 160 161 158 148 144 143 145 142 164 138 133 125 143 143 136 149 160 164 167 184 181 179 173 159 122 123 131 123 120 66 143 180 173 179 183 184 184 184 187 187 189 10 23 36 32 19 14 24 28 15 25 129 106 94 117 129 90 64 57 24 16 7 4 4 13 19 24 20 24 43 33 56 58 64 60 66 69 83 61 50 74 93 121 104 101 116 106 136 137 132 149 160 160 161 163 154 156 141 132 164 173 151 154 147 150 171 156 149 169 164 163 175 161 156 164 141 131 128 116 101 64 99 193 186 175 171 175 180 186 186 187 187 187 17 33 35 30 16 13 28 34 27 10 59 109 111 150 133 133 84 63 66 30 20 13 14 9 8 5 11 16 31 31 32 53 73 52 69 91 76 53 32 70 104 115 84 82 80 111 126 130 129 134 147 134 147 141 145 171 140 146 171 166 153 150 154 165 152 165 153 158 165 166 158 161 155 146 147 141 115 88 89 75 160 188 183 181 175 173 175 185 187 187 187 187 18 31 33 34 15 16 37 42 34 26 21 68 132 157 173 130 124 79 64 65 39 44 39 13 3 3 9 11 16 29 26 37 50 46 73 65 54 37 47 60 82 83 89 78 104 108 110 129 123 117 121 122 117 119 140 148 136 154 158 148 132 132 150 164 134 141 156 152 147 148 157 141 138 157 167 154 121 107 78 112 186 186 183 183 182 175 177 180 185 186 189 188 17 36 36 32 16 20 38 42 28 29 32 21 112 180 173 172 151 165 100 69 68 46 48 37 27 16 11 8 8 13 17 29 39 42 68 54 48 56 62 57 54 89 90 68 97 98 105 91 87 87 98 111 129 132 128 131 142 149 165 159 143 136 148 148 121 119 135 135 150 148 143 133 125 135 136 113 116 90 55 104 172 184 179 181 185 183 180 180 184 185 189 190 21 34 36 36 24 16 36 40 30 35 38 26 34 156 190 179 167 171 196 121 64 76 55 67 71 42 23 21 15 10 18 30 25 20 35 52 41 50 62 40 40 61 63 78 78 91 81 48 67 74 77 95 133 122 137 152 144 144 146 145 156 135 132 152 143 120 114 119 136 152 121 116 107 115 122 88 72 46 73 112 155 178 177 180 185 186 185 185 185 184 186 188 21 28 37 41 24 15 38 40 37 43 39 39 25 54 187 190 176 161 179 204 145 74 77 63 74 76 67 32 9 4 6 12 13 18 21 25 27 47 50 41 42 46 57 73 61 75 62 65 77 98 86 98 129 108 113 115 125 126 129 140 141 140 138 137 131 107 117 115 125 148 130 117 119 104 102 81 41 74 118 113 137 171 176 175 179 184 185 185 185 186 186 186 9 14 36 39 26 23 35 36 35 39 44 43 38 16 87 202 183 170 168 182 206 175 92 71 64 64 84 63 33 10 2 5 10 7 6 12 27 45 40 38 31 38 50 41 66 71 81 82 96 111 99 76 112 93 78 74 109 119 108 112 111 134 135 123 127 100 107 117 103 139 128 110 99 94 92 69 49 148 177 135 122 158 171 171 175 182 185 184 184 184 183 186 7 10 20 29 32 26 27 32 35 44 48 43 41 42 17 115 210 182 172 173 181 202 200 123 77 62 66 88 73 45 26 8 8 13 11 16 12 24 31 24 27 31 29 38 65 59 70 50 76 75 78 90 116 78 68 79 78 110 110 114 109 111 116 116 126 117 105 93 98 131 108 96 68 67 115 100 102 152 179 162 131 147 169 174 179 184 184 185 184 184 183 185 17 12 13 21 32 35 31 27 36 45 39 39 37 44 35 24 147 211 183 173 174 178 196 216 166 97 74 70 74 70 65 34 17 10 10 8 14 37 16 18 32 23 24 39 27 54 55 53 38 35 73 103 105 75 66 67 61 95 92 100 100 93 112 113 126 125 109 103 100 131 94 71 49 48 89 186 181 144 166 176 159 156 169 177 181 182 181 183 183 184 184 184 36 25 20 31 38 37 36 32 40 40 37 38 41 44 43 39 41 175 210 185 179 177 178 190 217 208 140 84 57 75 88 75 53 21 16 10 25 12 7 13 12 19 26 19 35 54 52 58 25 61 78 84 98 37 54 38 63 79 97 106 95 101 114 107 107 103 106 90 86 93 78 45 39 55 107 213 224 170 151 174 178 164 166 175 181 180 177 178 181 182 183 182 49 47 45 38 40 43 41 41 40 40 46 42 41 48 44 44 30 56 194 202 186 181 180 180 182 202 224 201 139 73 65 84 71 46 24 16 6 5 7 8 11 9 10 21 27 38 53 58 28 79 75 72 68 26 48 54 57 78 90 79 75 91 105 94 72 74 95 98 90 60 63 48 56 96 172 215 226 229 191 167 176 171 172 176 180 180 177 175 178 180 181 181 53 51 53 45 42 45 47 43 45 50 44 40 38 46 45 46 42 26 76 205 198 186 182 182 180 183 193 215 227 198 118 65 72 67 44 36 22 20 18 13 15 11 10 12 17 27 32 37 38 59 41 48 61 46 41 56 57 92 79 58 42 73 71 80 62 59 58 74 61 25 17 87 165 149 141 173 218 236 235 191 166 171 172 176 176 174 172 173 173 176 177 177 51 50 48 48 48 42 46 48 45 45 49 48 46 48 49 51 51 49 25 100 211 195 189 186 185 183 184 188 202 217 221 172 102 71 59 51 39 38 32 22 18 14 12 11 12 17 16 27 35 22 61 56 77 46 54 41 42 62 37 49 61 56 45 51 44 27 39 42 39 61 100 156 188 145 136 150 188 226 238 231 185 162 170 172 173 170 170 172 174 175 173 172 50 52 57 56 55 52 50 53 54 58 50 48 52 54 52 47 45 46 46 23 129 213 193 190 188 186 187 188 191 196 205 218 209 159 88 50 43 45 40 37 31 24 25 23 17 9 8 21 22 29 28 57 56 29 50 44 31 31 24 29 52 42 28 30 46 66 90 95 118 152 177 185 170 131 136 152 175 199 226 240 228 178 164 171 169 169 169 170 173 173 170 169 52 53 58 57 55 54 49 53 49 48 45 46 54 52 50 52 48 46 51 39 32 150 205 194 192 188 188 190 191 191 190 195 205 218 208 156 91 48 44 44 42 41 41 35 27 29 25 17 18 23 11 33 26 26 43 38 25 36 47 49 41 38 49 49 73 124 139 152 154 162 172 174 160 123 133 158 174 176 201 229 241 224 177 167 171 168 167 168 169 170 169 168
