P2
# Generated by OpenCV 4.2.0
92 112
255
107 101 97 93 107 53 48 34 79 43 35 45 30 21 22 22 28 42 40 36 37 51 49 84 82 38 49 103 78 77 136 120 56 20 29 41 43 32 19 34 51 70 77 105 114 95 114 133 135 142 141 113 79 45 88 152 118 89 96 96 146 115 77 42 88 84 54 56 61 70 96 91 97 111 122 124 89 66 38 82 74 52 42 52 63 61 68 75 120 117 126 179 100 91 88 102 61 31 42 31 63 49 40 39 28 27 21 26 33 30 22 17 17 43 67 66 43 69 96 103 103 118 88 42 27 26 27 33 41 50 56 48 64 74 100 99 92 117 136 115 130 142 123 105 67 65 135 132 104 99 103 137 139 110 51 72 92 77 55 69 80 83 96 108 125 136 146 146 126 78 44 38 76 71 60 55 64 71 71 77 112 123 108 136 98 76 93 71 24 24 9 39 43 61 38 28 18 19 11 13 14 19 16 31 73 98 93 69 90 110 102 111 95 59 27 21 23 25 31 43 48 51 68 74 84 102 107 100 120 134 113 109 133 123 115 86 104 118 143 118 106 126 141 156 130 82 58 97 90 71 74 89 95 106 121 142 149 155 159 157 154 133 73 48 61 56 53 73 89 94 83 73 83 105 81 113 60 68 90 32 24 25 33 46 37 42 35 16 13 17 21 28 41 41 50 87 98 81 73 83 75 76 88 79 38 27 26 26 32 32 35 39 54 76 89 110 113 124 138 143 139 163 148 122 122 135 114 77 107 165 121 109 121 162 170 142 112 64 106 107 92 78 97 116 126 137 147 151 157 164 166 168 165 169 128 78 71 74 52 66 95 117 122 86 70 70 68 93 64 82 59 36 40 40 38 43 42 32 34 22 31 34 41 42 51 68 80 80 76 65 77 55 51 61 50 30 25 27 32 36 45 55 72 95 122 152 154 140 145 161 183 189 176 172 145 117 129 138 122 100 134 145 121 121 150 172 146 144 119 120 130 119 113 113 118 125 129 143 162 170 174 171 175 176 173 172 166 118 84 91 97 73 64 104 120 109 78 64 64 85 82 68 48 62 58 37 31 49 36 22 25 40 46 53 43 56 74 71 76 64 60 66 50 50 41 27 30 39 34 37 56 77 101 124 144 170 190 194 179 151 182 196 197 201 198 159 126 110 130 131 129 126 150 124 137 142 163 138 133 161 162 156 146 154 147 147 152 162 162 164 166 171 181 181 180 178 176 174 173 157 115 106 103 118 94 74 97 118 102 73 58 71 60 58 48 61 50 31 42 40 29 32 33 50 47 35 41 71 72 70 53 59 55 31 31 27 28 36 38 42 53 74 108 129 160 183 202 215 217 207 178 189 205 206 202 194 200 178 114 131 150 149 138 148 147 142 141 143 142 147 170 167 167 159 157 159 158 160 181 192 192 192 185 181 185 192 187 178 178 182 179 176 146 123 121 115 115 104 83 91 100 90 60 60 54 53 68 42 36 32 44 39 34 44 53 49 33 37 63 71 69 56 62 56 24 26 33 37 43 45 46 64 92 128 150 176 201 210 216 219 220 196 195 219 215 215 207 200 191 157 135 182 189 177 170 169 159 162 145 130 159 186 191 171 168 161 166 175 175 184 196 194 197 197 195 197 198 197 194 191 185 185 186 179 160 143 138 134 105 98 115 86 86 81 71 56 47 57 80 34 31 35 40 37 47 56 47 40 47 66 61 55 52 62 48 37 39 50 49 53 54 57 71 104 139 162 188 206 213 215 220 223 213 194 220 222 218 215 213 198 193 146 198 210 197 200 193 178 179 170 120 151 195 202 178 165 180 180 191 185 184 199 203 203 199 198 203 207 208 202 200 198 192 184 186 184 170 150 137 143 140 87 83 113 76 71 80 67 51 80 49 27 39 45 40 57 64 54 59 65 63 50 42 45 56 42 37 57 69 71 66 63 68 90 107 134 157 191 206 210 211 216 218 220 213 217 220 220 218 211 206 210 186 187 212 212 208 200 184 187 190 136 120 191 209 188 159 181 193 201 192 181 190 203 207 208 205 207 214 212 212 210 203 200 199 191 186 188 177 148 134 132 144 140 81 86 103 75 78 77 62 91 29 34 43 46 53 57 56 73 70 59 44 41 49 59 46 44 60 74 76 72 67 81 97 118 143 163 185 203 208 208 212 215 215 216 215 220 218 219 210 210 210 208 192 216 217 213 204 198 188 195 169 109 178 215 201 165 177 195 208 198 181 188 200 207 215 210 203 215 220 217 212 210 207 202 201 195 188 188 178 149 130 125 130 144 135 86 97 92 71 72 82 62 24 49 38 49 58 62 61 59 54 42 40 48 53 42 54 69 76 73 74 71 82 106 124 155 181 192 201 203 207 209 210 213 213 213 218 219 219 213 210 216 215 207 212 222 218 203 205 195 199 205 130 135 218 211 179 179 196 207 205 184 185 202 210 214 216 207 210 217 219 218 216 214 209 206 202 194 191 191 182 153 125 126 118 130 143 120 86 87 82 67 75 50 45 53 57 70 55 66 57 51 38 45 53 62 45 55 64 72 72 76 76 86 114 146 180 193 200 202 202 206 206 208 208 215 216 218 218 217 216 217 219 220 216 216 226 224 214 211 206 200 216 186 122 191 213 193 181 198 202 214 195 189 204 213 217 220 212 211 215 219 219 218 217 215 210 208 203 195 192 193 184 168 140 127 127 120 122 136 128 95 75 72 64 49 55 58 85 60 51 60 47 42 53 57 75 72 57 65 76 76 78 82 107 134 155 187 202 206 205 204 207 206 206 209 210 215 219 219 215 216 220 225 225 225 221 229 233 223 216 217 203 215 211 141 163 217 203 184 194 195 212 205 192 204 214 215 219 216 208 215 219 219 220 220 218 216 212 208 205 199 189 190 187 173 145 119 127 135 134 123 131 111 86 84 73 61 73 89 89 55 60 47 42 69 79 95 105 85 73 80 91 84 90 124 155 164 186 200 207 210 207 206 207 206 205 207 211 215 221 218 217 219 225 226 227 228 229 232 226 224 220 211 214 229 172 164 202 212 197 201 195 203 210 206 209 215 217 222 220 211 212 218 223 221 221 220 221 218 214 209 204 201 191 189 188 169 144 113 103 113 128 148 147 128 100 72 64 74 86 98 84 64 50 39 67 103 121 117 96 79 94 96 92 111 147 164 170 187 191 198 205 210 209 209 208 210 209 207 211 217 220 221 219 220 225 228 229 230 233 228 228 226 217 218 232 204 174 208 211 199 210 206 195 212 211 218 217 215 224 223 214 213 217 221 223 224 222 221 220 216 214 211 204 200 196 189 188 172 147 131 103 88 95 106 146 156 132 89 55 84 84 97 64 54 36 48 101 133 110 103 91 93 91 91 119 143 156 162 183 195 192 195 200 208 209 211 210 209 207 208 213 217 220 224 224 223 223 226 228 231 230 229 231 223 226 234 225 194 211 214 203 210 219 198 203 214 217 220 216 222 224 217 210 216 221 219 218 223 224 220 216 215 213 209 204 199 196 190 188 179 158 134 124 100 91 89 92 132 135 112 83 89 98 84 57 43 41 76 111 102 121 106 86 77 96 124 129 128 152 179 189 193 194 194 199 205 207 212 213 210 205 205 212 217 222 224 224 221 223 226 230 232 231 234 229 229 234 233 210 206 226 211 210 218 210 196 208 220 221 220 222 223 219 215 214 215 222 220 222 222 222 216 211 211 212 209 205 199 194 187 187 177 155 134 119 129 91 82 77 91 128 110 100 89 93 64 56 43 66 86 88 120 109 70 71 103 132 120 111 141 177 187 182 186 190 194 198 201 204 212 212 210 207 204 209 214 220 222 224 218 218 223 227 225 226 228 223 228 233 226 215 224 224 214 220 210 203 207 219 220 218 222 225 224 212 211 218 221 222 220 221 222 220 217 209 210 211 205 204 200 194 186 186 174 155 127 116 114 119 83 78 74 90 110 96 91 68 66 45 53 71 75 96 100 67 69 110 138 112 123 136 168 182 180 184 194 197 194 189 194 202 209 213 212 211 206 208 210 215 219 220 217 217 217 220 222 228 228 228 235 231 227 227 226 217 223 225 210 207 220 224 217 222 224 229 222 210 216 222 222 219 219 220 221 219 213 209 210 210 208 205 200 192 187 187 175 156 136 110 105 100 110 86 74 72 80 90 76 54 53 44 51 60 81 92 64 77 122 147 120 113 127 155 174 172 183 190 188 188 193 191 192 201 208 210 211 213 207 209 207 216 221 221 221 222 222 223 227 231 229 229 233 229 231 231 222 220 223 208 212 216 228 221 222 222 225 227 222 219 220 223 221 223 218 219 217 218 216 214 210 209 207 206 201 197 189 188 181 159 129 113 104 91 92 103 86 79 81 84 57 47 47 49 53 67 88 75 79 110 137 120 97 121 145 166 161 172 171 176 180 184 192 194 196 201 206 209 213 214 214 213 209 212 217 217 218 221 220 221 224 230 226 229 232 229 230 225 225 222 214 207 215 223 227 224 226 221 223 218 216 222 220 216 219 220 217 217 219 222 218 216 215 212 208 207 202 197 193 190 181 170 132 106 120 87 93 100 97 82 78 67 52 47 52 56 55 78 82 83 103 125 107 87 110 128 152 156 149 150 171 173 176 190 197 197 197 198 201 206 212 215 215 217 217 216 219 221 225 225 225 224 226 228 230 232 231 231 229 228 229 219 219 223 225 226 223 226 228 230 231 225 226 229 226 225 226 224 222 221 221 219 216 214 214 212 215 215 208 201 193 189 181 175 138 97 110 115 79 94 93 83 74 50 49 49 50 51 61 85 84 94 113 100 74 98 115 146 145 132 142 157 161 169 179 181 188 198 200 197 200 206 211 214 216 217 217 219 219 218 222 221 221 220 222 225 227 229 228 228 229 227 223 221 225 224 227 224 225 228 229 233 230 229 231 230 227 227 228 224 220 220 221 218 216 215 212 212 216 214 207 200 195 190 178 174 149 118 99 104 97 84 92 82 71 68 59 57 43 52 71 86 96 113 91 75 92 111 137 133 117 130 141 137 143 157 172 172 181 193 198 198 199 203 210 212 211 211 214 216 217 217 218 223 222 222 223 224 224 228 227 227 228 229 229 229 229 229 227 227 232 232 231 231 230 235 231 232 227 225 227 224 220 219 219 221 218 216 215 216 220 219 211 203 197 187 176 173 149 101 98 101 110 101 81 87 77 63 73 47 38 69 71 89 109 89 74 90 103 132 125 110 122 127 135 137 140 155 156 159 173 190 198 196 196 201 208 210 209 213 216 218 220 221 222 226 223 226 228 227 228 231 231 230 229 232 230 230 230 228 226 227 230 231 229 228 232 230 233 233 228 227 225 224 220 218 220 222 220 218 219 221 221 220 214 207 198 185 176 175 159 97 85 100 89 92 91 78 87 85 59 28 50 72 85 104 95 68 81 81 128 116 102 106 124 130 125 137 142 139 143 159 181 195 196 193 194 199 205 211 213 214 212 213 216 221 222 226 225 227 226 226 227 230 229 229 230 231 233 232 232 227 226 229 229 228 227 233 236 233 233 233 230 228 226 224 221 219 220 221 221 223 223 224 222 220 218 210 198 187 177 174 169 109 50 62 74 67 96 81 84 83 40 29 57 74 100 97 64 82 75 110 115 102 99 113 125 110 128 130 125 139 149 160 180 195 196 195 198 200 206 210 212 211 213 214 216 218 220 226 225 226 227 229 228 229 232 232 231 232 233 231 229 229 231 232 229 229 231 232 232 236 238 234 233 231 228 224 220 216 218 222 224 223 224 225 224 224 220 210 199 193 184 177 175 118 40 42 68 40 67 87 81 64 28 33 68 85 96 57 72 78 91 105 96 87 102 119 101 129 129 113 124 138 148 158 172 192 196 198 203 201 204 211 212 213 214 214 216 217 219 223 224 223 226 228 228 228 229 230 231 233 233 234 234 233 233 234 232 229 231 234 230 228 236 240 236 233 226 223 218 220 223 225 223 224 222 226 223 222 219 214 206 196 193 186 178 137 40 27 63 37 39 72 83 35 23 46 79 91 69 54 72 88 100 100 88 97 105 93 115 117 115 124 132 136 148 163 178 187 192 198 201 203 205 213 215 216 216 214 217 220 221 224 228 227 227 227 228 228 228 228 228 231 232 235 235 235 234 235 233 231 231 232 232 228 231 237 237 230 226 226 220 219 222 221 227 225 222 225 224 221 218 216 211 202 199 194 184 149 48 27 50 47 26 50 78 16 35 64 73 73 53 56 75 100 92 91 97 96 86 113 108 105 111 109 105 123 158 181 180 183 185 194 200 203 207 213 219 217 220 222 221 220 223 226 231 232 232 233 233 235 236 235 235 235 232 229 229 233 234 234 234 229 231 231 232 229 225 230 231 227 225 219 217 217 217 221 222 220 222 223 222 223 219 212 208 200 195 196 189 163 69 25 40 45 23 37 66 24 51 76 63 51 55 56 89 91 94 96 88 82 102 105 83 81 82 88 104 127 157 187 193 192 194 197 199 206 211 213 216 218 220 223 225 226 225 229 232 233 232 233 234 234 236 237 236 232 231 232 232 229 228 229 227 222 227 230 230 228 225 221 223 219 215 212 214 214 212 216 197 193 197 190 191 197 197 195 186 173 165 174 187 182 92 39 45 37 23 30 58 42 51 68 53 50 57 78 84 84 88 79 75 89 97 75 70 82 86 104 151 170 174 184 191 192 195 196 197 206 215 215 217 220 219 215 217 220 223 228 228 226 230 230 230 230 231 233 230 226 225 226 224 227 225 222 220 218 222 226 228 224 221 216 218 217 208 206 209 204 192 179 155 154 148 141 153 160 157 164 156 146 145 156 166 178 118 42 57 48 22 31 59 43 67 71 48 47 58 66 81 97 75 71 72 86 82 66 72 84 114 156 182 186 180 182 185 188 192 197 199 208 216 216 222 218 208 202 201 207 209 203 200 202 194 193 189 187 198 202 204 214 209 213 211 216 214 215 218 214 218 221 225 221 214 210 213 209 203 196 192 181 155 134 119 101 107 124 128 138 127 132 136 148 141 134 148 156 147 78 50 48 39 32 59 51 69 68 40 43 55 71 92 72 64 69 63 80 60 55 75 112 167 190 185 188 184 184 187 191 192 195 200 212 217 213 203 187 179 180 180 180 176 180 179 173 157 139 128 131 134 144 153 178 175 185 193 203 202 208 213 210 217 220 220 217 213 203 205 202 194 184 169 151 135 122 108 96 92 94 97 98 101 123 137 126 120 121 116 129 151 95 60 52 48 37 65 55 73 49 34 50 46 87 68 62 65 56 78 66 49 70 112 168 189 193 189 187 193 187 188 189 186 195 203 205 198 185 172 170 168 156 160 158 161 168 147 130 131 116 104 96 99 117 131 133 146 156 180 180 184 192 202 206 217 221 221 216 210 200 196 197 193 179 157 134 124 111 104 84 72 65 70 78 86 98 109 114 107 112 113 117 140 117 70 58 61 54 73 68 63 38 28 32 57 73 52 66 54 60 62 69 76 108 159 187 190 193 195 190 196 196 189 186 185 185 188 184 168 154 147 150 151 148 152 152 144 137 121 94 84 88 87 87 96 113 122 130 137 142 158 167 170 181 191 203 213 218 217 216 207 197 188 187 180 168 147 125 105 90 77 77 92 105 117 132 142 142 135 126 125 113 109 115 142 159 109 71 58 61 92 63 59 34 21 30 67 48 59 59 52 66 82 89 94 141 173 189 191 194 198 193 193 198 191 182 182 177 162 154 134 130 130 147 156 154 151 155 142 127 127 137 129 117 111 100 93 90 95 109 125 136 151 166 172 182 187 190 204 216 220 212 202 191 178 168 151 134 116 100 82 82 97 115 137 156 172 184 189 184 174 164 155 136 115 114 143 172 164 136 84 50 111 63 56 24 13 35 51 46 52 55 53 77 103 105 123 147 174 193 191 192 199 197 192 196 194 185 180 165 146 138 135 124 126 152 170 183 189 190 189 192 202 214 216 211 197 177 147 112 87 83 94 110 127 140 157 172 177 186 204 218 221 216 202 190 178 147 121 105 92 86 95 96 82 77 65 59 74 92 103 118 136 157 172 158 136 127 146 167 154 158 139 81 111 63 41 12 22 41 35 54 47 58 69 93 112 118 122 154 182 194 195 194 201 198 193 193 196 189 176 161 144 134 133 146 168 181 191 199 208 212 220 228 221 205 186 169 147 130 130 140 126 101 86 89 95 103 117 137 163 192 207 220 225 223 212 198 174 136 106 90 90 98 85 73 85 63 63 60 33 18 33 45 62 75 111 163 164 154 151 167 162 140 147 134 123 60 31 18 37 34 36 54 53 74 103 120 111 106 139 176 181 192 198 195 199 200 197 184 184 177 162 147 141 143 154 176 189 198 211 216 208 189 166 131 92 63 43 43 57 78 64 60 101 126 109 90 86 92 96 116 154 187 208 223 229 228 220 204 178 128 104 99 103 100 108 123 113 76 107 67 80 72 60 91 53 77 64 101 168 172 152 165 166 155 159 155 136 42 25 21 41 31 47 59 63 95 124 101 103 146 179 184 183 196 198 198 196 197 198 192 188 183 172 162 160 166 180 195 202 202 180 136 95 66 48 27 52 86 58 51 81 113 151 125 85 105 131 123 117 119 121 123 154 195 212 225 231 227 222 216 192 142 119 112 125 140 122 133 184 131 104 75 88 74 102 160 121 97 97 97 145 170 160 167 168 157 162 172 141 33 25 28 31 34 53 59 77 117 124 100 155 185 183 183 190 199 196 197 195 196 198 201 193 189 187 182 179 184 182 185 178 116 55 43 63 113 78 46 84 48 91 107 137 159 117 161 174 154 149 153 160 167 172 174 169 191 213 226 232 230 226 221 201 162 140 153 159 117 151 198 218 189 176 179 159 159 183 197 180 156 111 112 115 146 163 166 174 168 170 165 151 33 33 44 44 43 55 59 101 125 106 148 193 175 174 182 197 203 198 199 194 192 194 192 199 196 190 192 190 185 184 158 92 60 81 102 130 175 147 91 118 101 113 115 178 214 149 112 134 174 196 192 195 195 199 200 189 190 210 222 231 232 227 220 213 191 181 203 153 175 211 212 213 215 214 208 202 196 192 190 190 162 139 145 143 166 178 177 178 174 169 165 148 54 65 67 61 68 67 81 105 105 130 188 172 171 187 186 195 200 197 199 199 193 193 181 193 207 203 182 173 178 160 126 109 135 161 177 197 200 211 214 203 197 184 195 208 206 206 191 176 154 211 232 228 222 215 208 196 196 213 225 232 232 231 225 221 211 213 217 199 216 210 201 203 210 215 214 212 200 192 181 160 140 155 180 187 181 182 183 180 179 166 165 146 60 92 98 108 97 80 82 92 113 174 174 171 171 183 181 191 196 197 197 195 194 199 198 191 188 198 206 188 155 135 138 153 157 177 189 199 207 211 215 207 212 200 201 201 203 190 195 218 223 223 232 235 229 220 216 203 197 215 229 233 233 232 228 226 221 212 212 215 210 202 181 174 175 175 171 167 162 152 136 120 149 186 184 187 190 187 184 184 180 169 157 154 33 88 120 105 87 75 99 105 143 185 156 174 179 181 185 189 190 192 194 195 193 200 203 204 202 198 197 193 178 168 182 197 193 181 187 188 193 198 203 202 205 202 200 194 178 168 188 213 223 223 225 231 228 218 217 204 200 223 232 233 233 232 229 228 227 218 208 206 208 206 187 160 137 123 118 113 113 120 130 157 176 185 199 193 192 194 189 189 185 160 151 147 43 61 121 126 82 92 92 123 161 180 158 174 181 179 178 186 187 192 194 194 196 200 205 207 210 213 216 214 212 214 213 207 201 199 183 168 169 168 163 160 163 160 152 147 149 171 197 208 208 211 222 229 227 221 213 200 208 228 233 234 234 231 229 229 226 223 211 214 214 208 202 196 190 183 169 152 147 150 160 182 203 206 200 199 195 195 193 192 190 159 153 133 70 64 123 145 99 86 80 126 155 186 160 178 178 177 174 187 189 189 194 195 203 204 213 215 214 214 215 219 223 218 216 216 213 195 179 189 177 158 147 143 134 138 148 166 191 214 216 213 216 227 229 228 227 222 213 201 209 223 230 236 235 231 228 228 224 218 199 214 227 221 213 207 208 210 208 207 207 206 206 209 207 210 211 204 198 197 200 192 185 169 158 127 94 65 69 110 98 67 99 125 157 178 177 170 165 175 179 187 189 190 193 195 204 208 212 215 216 212 215 217 222 223 224 217 210 213 220 214 196 191 191 189 187 201 215 222 224 225 225 230 234 235 233 228 223 219 212 203 208 217 225 230 234 230 228 227 225 213 183 206 224 229 226 218 219 217 216 215 216 221 223 223 220 216 213 207 201 199 201 195 187 177 151 133 110 107 113 95 84 72 103 119 157 167 180 159 174 152 166 181 182 188 194 197 202 210 211 212 216 217 219 221 222 222 219 223 230 227 220 219 224 223 225 230 236 238 233 234 233 233 235 238 237 234 231 225 219 215 208 208 211 214 219 227 234 230 228 226 226 209 186 198 221 224 225 228 226 222 221 222 220 223 223 222 223 222 218 209 204 203 200 198 189 185 157 142 146 176 157 82 80 85 110 115 164 177 165 163 151 147 169 183 185 187 190 197 204 210 213 217 217 216 216 217 216 217 222 226 220 223 230 233 230 230 234 237 236 234 235 238 240 239 244 240 239 233 226 220 216 211 209 208 210 214 219 225 227 229 229 225 224 212 194 194 213 216 215 228 225 224 223 225 223 223 224 224 223 222 218 212 208 206 203 198 191 184 157 138 172 182 133 81 87 99 108 118 156 172 154 151 130 151 157 182 186 188 191 197 204 209 211 214 215 214 215 214 215 217 216 214 222 229 230 231 233 236 236 236 237 236 238 239 242 242 243 241 237 229 223 218 213 212 210 209 211 215 218 221 222 225 228 222 222 214 199 197 205 215 220 229 223 215 226 227 224 226 225 225 225 220 217 214 210 206 207 202 190 184 153 134 172 143 86 89 80 111 102 105 168 169 144 142 138 155 161 179 184 188 191 195 203 209 211 213 214 213 215 218 217 213 208 219 226 226 229 233 236 238 239 239 239 239 241 242 239 240 241 237 231 225 221 218 216 215 212 212 214 213 216 221 222 225 226 222 220 218 205 202 203 213 223 229 220 208 228 226 229 229 228 225 224 220 217 214 211 202 206 205 192 186 155 122 180 140 108 102 78 115 120 108 149 150 127 133 139 151 162 175 185 180 189 194 198 205 212 213 212 212 214 218 218 216 218 223 225 227 232 234 231 234 233 238 239 241 242 240 240 240 234 231 228 225 222 219 216 217 215 215 214 216 216 217 222 229 232 227 222 218 206 202 208 211 219 225 227 226 228 226 228 229 228 226 224 218 213 211 207 204 203 201 194 183 166 136 165 147 145 124 111 122 131 107 119 142 126 118 119 140 164 166 175 182 187 191 194 201 207 206 212 212 214 215 217 221 221 222 225 227 233 231 227 230 233 235 236 238 238 239 238 236 231 229 226 224 219 212 210 213 215 214 216 216 216 221 223 231 236 232 224 215 207 203 206 205 214 223 227 228 229 227 228 229 228 229 223 218 210 203 206 206 202 196 190 181 174 182 155 147 157 140 128 141 136 103 106 129 112 106 118 160 166 163 180 182 184 185 194 200 205 207 211 211 213 216 218 223 221 220 225 228 229 229 231 232 232 233 235 237 236 236 235 233 230 228 223 219 204 197 205 209 213 216 218 216 217 220 221 231 234 232 225 216 208 202 201 201 202 218 226 228 230 228 228 229 228 227 223 220 214 210 208 203 202 194 182 175 181 214 164 157 156 158 144 150 146 109 123 118 87 96 136 164 166 172 173 179 183 182 189 197 203 210 209 209 214 218 218 220 219 222 224 224 228 229 231 233 234 234 233 235 235 237 236 233 233 233 227 215 199 201 208 210 208 214 220 217 217 217 220 225 233 231 222 213 204 201 198 198 198 208 222 226 227 230 229 227 227 224 221 220 213 212 208 202 195 191 183 171 180 226 169 167 166 154 140 151 154 139 138 111 90 119 138 162 172 168 167 181 179 180 186 195 201 207 207 210 215 217 218 219 221 222 222 226 230 230 234 235 235 235 237 236 237 237 236 237 235 232 229 221 210 208 210 212 207 210 221 219 218 216 219 219 226 230 226 215 200 196 198 201 205 209 219 223 223 227 228 226 224 222 220 218 215 210 207 199 188 184 182 169 180 238 162 184 175 156 140 146 154 172 148 115 112 121 132 157 159 166 173 171 175 183 187 196 198 203 209 207 208 216 220 219 222 222 222 228 229 231 235 237 237 237 237 237 237 236 234 234 231 231 229 219 210 209 211 213 213 214 219 217 215 215 216 218 218 224 227 220 203 195 203 209 212 212 215 224 224 224 226 226 223 221 217 215 210 208 204 195 187 179 170 158 181 245 166 180 192 174 157 157 163 188 138 126 137 135 135 147 150 164 172 165 171 181 183 194 199 205 209 202 206 212 218 218 219 220 221 226 228 231 234 237 238 237 236 237 235 234 231 230 229 230 225 207 206 208 211 214 218 219 221 217 216 213 213 220 226 234 232 222 205 197 204 212 216 207 212 219 223 223 221 223 224 220 217 213 208 205 202 191 184 176 164 153 178 249 184 177 191 189 169 158 160 185 148 129 132 145 127 150 152 157 164 163 164 168 176 187 194 202 205 205 204 205 213 216 217 220 219 224 227 231 233 233 235 235 232 232 231 229 223 222 223 223 215 199 198 205 208 209 217 224 222 218 217 210 210 228 244 244 240 229 212 200 202 210 214 200 200 216 217 222 219 219 220 219 215 211 206 201 198 191 179 170 158 143 171 251 205 192 185 190 183 164 157 188 164 127 121 141 131 146 140 147 163 161 166 169 179 185 192 199 200 199 201 205 208 209 215 218 219 220 222 228 231 231 233 231 228 228 226 222 217 216 220 217 199 180 189 193 195 202 210 221 222 217 214 207 213 233 232 223 225 224 218 206 200 198 198 183 187 216 218 219 216 215 219 216 214 212 205 199 194 188 176 166 155 131 150 245 227 219 207 210 212 174 155 180 167 129 120 134 131 129 136 143 157 166 168 162 167 171 186 192 193 193 193 199 207 206 210 215 214 218 220 224 227 230 229 228 226 224 220 215 212 214 222 220 199 165 172 175 174 178 182 198 203 202 195 184 198 213 207 203 202 202 209 205 185 164 147 132 175 218 215 217 214 211 212 212 211 204 200 196 193 185 171 159 155 135 133 226 206 217 213 219 222 208 190 186 171 146 132 122 134 144 134 135 147 167 163 164 164 164 179 189 186 188 192 196 207 207 212 213 214 218 218 221 221 219 224 225 224 223 216 210 208 215 223 229 224 178 149 150 140 127 107 106 136 167 161 141 148 172 182 178 171 167 180 177 141 89 68 95 173 210 210 211 214 211 212 209 206 200 198 195 190 181 171 156 150 122 135 212 187 210 216 224 218 217 206 188 173 155 133 113 132 145 151 136 151 163 162 164 163 168 179 191 185 184 190 196 203 207 213 211 211 215 215 215 214 213 218 220 219 217 214 206 207 219 225 228 227 210 142 108 95 60 18 7 21 57 101 118 120 131 136 139 128 120 118 107 50 28 56 115 181 200 206 207 212 212 211 209 205 198 194 191 187 175 165 153 150 126 125 219 213 217 219 224 218 211 206 195 181 165 158 132 128 158 166 139 157 160 161 153 167 169 181 191 190 188 191 192 196 203 208 213 209 208 210 212 214 216 215 215 218 216 207 200 212 220 221 224 220 213 191 128 77 51 44 42 34 25 23 53 92 96 89 93 89 89 68 41 23 41 82 146 181 195 208 205 210 210 207 207 204 198 191 183 180 173 163 160 149 128 158 244 210 218 221 224 223 217 212 208 197 174 166 162 130 158 146 138 152 156 140 160 168 172 183 187 189 183 186 190 192 198 206 208 208 208 207 208 212 212 212 214 212 201 194 208 221 221 220 219 214 210 215 206 179 157 143 126 108 80 53 31 40 65 60 59 58 48 44 57 70 91 128 156 173 192 207 205 203 206 208 208 203 193 187 184 173 163 157 156 149 129 217 255
203 211 217 220 224 218 214 215 202 177 165 171 152 160 136 131 138 140 142 163 173 174 181 189 192 187 186 190 194 197 203 202 205 202 202 203 206 206 193 199 199 187 201 219 219 221 221 217 211 214 216 209 180 167 175 181 180 143 105 61 37 24 22 23 30 42 66 82 93 111 140 150 167 200 206 202 200 197 200 203 198 191 187 175 168 163 160 155 152 162 231 251 174 192 209 212 214 212 206 198 182 148 162 176 170 132 140 135 134 152 152 162 172 174 181 188 193 189 186 186 192 192 200 202 200 202 205 202 201 201 202 203 198 200 211 209 208 206 209 211 206 200 196 189 163 177 168 185 191 179 160 124 102 56 18 27 47 91 93 107 115 101 129 159 177 201 206 201 198 196 193 195 191 186 181 171 158 159 161 159 140 158 217 239 110 129 160 180 187 190 177 153 96 57 128 177 162 136 137 144 144 141 141 145 173 175 184 196 194 187 187 185 188 193 194 193 193 198 196 195 200 203 206 204 203 201 190 198 190 189 199 197 189 181 173 167 166 171 164 165 185 170 173 163 162 132 51 69 107 131 156 113 134 139 114 152 172 182 196 195 193 196 197 194 189 187 179 168 157 154 159 150 140 158 200 221 74 70 62 79 95 92 81 54 28 46 86 170 175 153 152 145 149 142 135 151 175 177 189 191 193 186 185 181 185 190 187 189 188 190 189 194 198 209 207 198 190 179 181 193 175 179 177 178 165 155 168 162 160 139 158 154 194 171 184 164 151 183 109 100 163 156 136 139 138 162 130 121 147 154 182 181 177 171 190 194 181 181 179 168 159 162 155 141 136 155 178 188 74 69 41 21 27 19 24 17 25 52 82 146 188 173 159 138 151 140 141 168 172 175 183 186 190 191 185 176 180 186 184 187 187 179 188 199 205 210 203 184 176 162 182 178 173 168 154 167 139 140 164 176 157 140 148 166 189 177 183 167 156 161 100 121 144 166 141 161 141 109 112 115 141 143 158 167 165 172 177 194 187 178 172 161 164 169 159 146 140 138 137 136 83 75 56 30 40 34 22 20 21 48 96 154 182 170 174 150 130 140 161 175 172 177 182 183 188 193 184 185 182 184 187 188 191 190 195 202 206 199 181 156 149 151 145 153 162 159 162 152 140 163 161 171 165 134 154 157 168 173 193 163 171 132 92 94 140 154 160 155 114 112 86 125 112 136 147 150 160 162 164 181 187 172 162 153 162 174 161 141 146 138 124 109 89 84 69 36 38 37 26 24 20 41 86 156 173 161 163 156 153 152 160 164 181 174 177 163 185 190 181 183 187 190 192 191 186 190 191 199 201 184 159 156 146 161 158 155 148 157 150 140 137 149 131 171 171 126 148 169 192 162 162 151 142 107 105 108 103 124 123 148 124 125 109 110 117 111 147 153 145 156 153 157 161 161 164 153 159 165 167 144 134 140 127 113 104 96 73 33 35 42 31 26 21 44 102 132 152 167 149 168 159 157 153 171 179 162 173 170 186 186 174 183 184 189 198 190 185 189 188 197 194 168 155 131 144 182 177 139 152 141 154 137 143 133 107 162 177 118 163 181 147 158 130 121 127 122 107 117 130 107 82 133 119 120 139 118 98 95 120 142 131 124 149 150 142 120 149 160 153 149 164 137 140 141 118 114 120 113 89 44 37 52 37 25 23 42 119 148 149 162 146 163 163 146 143 161 170 160 169 184 177 172 163 180 180 190 186 189 187 187 190 194 187 141 130 123 150 153 139 133 147 129 126 123 152 121 106 136 132 111 125 124 106 116 102 86 83 118 121 103 134 122 72 89 93 116 124 123 106 98 107 131 113 115 123 135 133 121 128 156 149 149 144 134 146 131 120 110 149 145 122 67 34 52 43 27 28 29 117 156 150 172 160 165 177 154 146 157 174 148 164 187 168 174 168 170 174 181 173 189 190 192 171 182 178 151 123 118 144 120 95 130 105 106 104 114 114 105 104 113 75 78 81 65 60 63 60 60 49 73 98 89 82 85 56 63 87 89 94 116 111 95 108 111 114 112 116 141 110 111 116 140 152 150 142 142 132 124 119 110 185 175 156 96 36 49 47 27 35 43 119 153 156 170 163 178 184 161 150 158 168 145 147 161 168 160 160 171 186 176 176 188 188 181 166 177 165 154 103 127 139 126 90 82 73 62 81 67 67 58 55 53 50 47 54 58 57 63 75 71 72 68 66 71 65 59 55 50 54 61 70 78 79 78 75 71 94 82 97 97 109 110 108 125 134 141 135 130 114 132 143 130 210 205 196 149 64 55 50 42 41 41 111 170 155 173 159 181 186 169 137 152 151 141 125 137 143 146 176 160 180 171 178 171 177 174 182 172 165 147 107 104 102 116 103 68 49 50 55 31 33 30 52 67 80 85 76 77 76 83 115 127 124 107 89 95 98 87 53 34 18 10 28 35 36 40 35 28 45 57 72 68 110 113 99 139 121 139 131 113 111 179 184 174 223 221 214 187 96 63 53 59 68 41 116 170 149 167 170 189 187 172 152 155 143 147 132 124 132 168 183 165 156 165 176 171 156 165 176 164 169 143 127 119 109 111 135 99 97 120 137 144 152 158 167 173 183 181 174 164 149 138 165 171 166 145 131 142 138 123 103 96 107 120 117 107 91 81 71 61 38 42 76 75 96 130 100 116 116 127 124 118 131 219 218 211 233 231 229 214 141 72 63 53 55 67 123 148 171 175 188 190 170 176 162 142 144 143 133 133 146 164 172 166 152 157 170 168 150 164 166 165 179 150 117 108 105 120 148 161 183 186 191 188 187 185 197 198 208 212 209 209 215 210 205 200 194 190 184 179 181 186 193 203 203 200 197 187 172 152 134 124 100 68 98 97 79 121 113 89 108 106 126 113 163 243 238 233 239 239 236 226 160 87 85 63 40 61 90 137 172 172 176 177 174 170 153 130 127 129 138 129 147 164 162 168 156 133 159 157 157 158 168 177 173 154 118 120 132 154 163 165 193 198 197 190 179 176 186 186 192 199 199 208 212 215 219 215 215 209 203 203 201 200 198 204 200 196 196 186 186 175 158 155 148 135 134 130 102 91 96 86 112 108 127 106 182 250 244 245 243 241 239 228 160 102 83 52 46 63 60 142 158 174 182 171 179 167 163 135 107 119 145 138 136 156 164 178 163 130 142 150 172 173 176 177 168 163 128 115 151 143 169 185 198 191 189 176 177 183 170 183 195 192 185 193 200 197 189 190 173 179 174 176 170 172 177 176 179 184 184 169 166 156 153 170 174 172 156 140 125 108 84 82 132 132 128 123 219 255 251 252 244 242 240 225 155 89 67 57 55 52 56 135 147 161 186 168 178 185 167 130 108 128 146 132 118 152 168 179 157 139 143 151 176 175 169 174 164 171 135 130 155 132 167 190 208 194 196 194 186 181 176 177 180 181 183 174 169 163 185 161 140 151 146 148 145 149 155 160 152 155 164 155 141 150 156 160 159 158 142 111 107 97 77 91 119 144 120 144 247 255 255 254 243 243 243 223 142 104 89 65 63 45 52 120 152 151 177 175 158 167 152 122 99 132 145 130 128 147 163 168 151 139 151 154 168 168 166 150 163 159 140 136 132 144 157 184 193 192 202 201 196 187 176 175 171 169 166 160 137 133 168 127 136 135 149 146 154 159 159 165 161 168 152 149 132 146 145 145 157 167 144 114 101 92 73 118 129 122 102 164 255 255 255 255
243 244 241 217 161 152 118 70 69 60 48 109 157 154 158 180 179 156 142 140 100 121 129 130 146 142 159 160 159 165 150 141 162 179 145 135 148 138 148 106 126 143 153 171 173 193 196 192 181 180 186 180 167 157 149 158 153 132 146 137 127 161 156 138 154 166 162 164 149 171 158 150 155 156 142 138 153 174 148 101 105 108 86 114 119 117 103 197 255 255 255 255
243 243 239 224 207 174 114 85 69 55 41 105 157 144 153 173 188 156 155 126 113 111 132 140 145 146 137 142 154 163 156 139 164 168 135 125 143 140 123 95 106 134 173 188 194 200 191 172 169 177 159 145 158 147 131 156 159 128 143 140 148 174 174 141 141 154 149 158 177 159 166 166 159 164 152 149 167 167 155 114 100 82 84 104 116 122 118 210 255 255 255 255
243 243 243 237 226 165 109 89 66 57 45 97 156 149 130 152 171 164 160 125 106 97 118 139 117 146 139 122 141 169 148 136 172 165 139 122 123 124 97 84 106 135 178 194 194 190 189 170 169 173 159 145 146 147 145 148 150 143 132 130 148 162 180 137 125 162 160 139 162 161 152 162 162 153 148 155 160 159 145 153 115 94 83 94 106 113 137 237 255 255 255 255
243 243 242 241 223 149 107 81 71 70 47 82 156 148 115 118 143 153 132 148 117 111 101 103 127 153 136 120 116 156 150 152 154 146 152 109 95 87 77 76 102 145 183 186 177 177 182 172 162 170 151 150 145 142 145 160 150 158 138 154 145 149 165 164 139 168 175 164 140 147 146 156 161 147 153 159 150 143 142 134 135 99 95 77 97 114 180 255 255 255 255 255
243 243 241 242 202 131 97 85 107 108 57 72 154 160 135 118 132 130 107 114 130 127 111 102 140 147 132 121 98 143 147 160 152 122 118 114 95 86 73 84 124 158 168 177 159 153 178 182 184 177 166 186 183 158 151 162 160 153 160 161 138 171 154 169 178 166 150 169 149 127 148 159 165 168 155 167 159 152 140 125 131 101 87 88 103 124 210 255 254 254 255 255
243 243 241 231 169 117 87 109 154 117 55 60 145 168 155 116 107 116 116 124 115 132 102 109 111 122 121 112 113 139 145 141 151 110 100 124 112 95 106 110 146 143 164 139 140 170 187 197 190 178 189 202 198 168 158 175 155 161 182 163 165 156 163 169 172 166 150 132 152 149 140 154 158 163 169 163 158 147 138 136 122 115 81 78 95 140 228 252 250 251 253 254 243 243 243 217 150 108 102 164 170 60 25 47 137 167 163 123 90 118 120 104 91 107 98 101 113 102 94 112 112 116 139 102 130 113 103 92 89 109 121 118 139 135 144 168 177 178 188 194 187 190 194 190 184 174 173 169 162 174 186 176 164 150 147 169 133 117 135 141 138 173 146 156 174 161 149 154 147 155 134 150 170 124 98 75 95 170 232 242 244 247 249 252 243 244 237 197 143 117 151 200 106 29 21 78 146 162 165 153 92 95 121 98 123 84 92 87 102 92 76 108 96 106 116 96 93 108 85 78 75 117 123 101 125 130 137 174 170 179 181 177 177 191 185 167 184 186 187 172 176 189 185 161 157 155 134 140 115 113 122 139 155 159 174 157 183 177 164 154 138 130 143 149 138 125 96 73 103 187 223 225 231 238 243 248 244 243 227 189 149 139 199 149 31 28 32 144 163 154 168 172 126 102 92 121 121 81 72 61 106 107 71 96 88 87 106 97 98 95 90 98 93 112 98 120 137 149 130 140 163 178 161 164 186 188 165 175 180 179 168 171 188 181 166 171 176 167 170 141 118 113 145 142 168 155 178 182 172 176 186 157 138 118 126 144 134 96 88 89 130 176 182 194 208 222 233 242 244 241 225 198 161 187 185 57 26 22 68 197 175 147 169 179 163 111 84 119 103 90 66 75 106 87 73 108 67 88 85 106 100 77 83 103 112 105 120 92 143 166 151 112 140 164 151 157 172 160 160 189 175 172 156 189 181 172 177 179 186 185 180 172 139 136 146 158 184 167 159 166 175 163 172 160 139 117 121 143 123 82 105 120 144 132 124 139 163 194 219 235 243 240 233 204 190 197 91 29 34 16 99 226 192 142 167 182 175 127 100 87 81 82 77 61 72 65 99 106 66 82 71 93 99 67 71 92 91 101 111 91 151 132 119 124 140 141 132 156 149 149 161 169 169 164 155 189 193 191 186 190 175 177 179 145 149 173 149 141 174 177 157 164 167 159 159 136 139 104 121 156 118 55 100 138 141 122 107 106 113 148 194 224 242 242 238 223 193 105 34 35 34 19 124 238 209 142 159 178 182 153 116 102 75 76 80 62 75 80 99 91 75 82 56 69 81 74 73 89 93 96 85 92 140 110 91 116 110 130 134 136 132 146 151 162 161 164 167 183 196 183 178 187 181 157 170 148 156 171 155 136 160 185 152 166 163 140 160 122 127 137 111 154 118 67 108 119 129 120 112 107 104 113 163 209 243 244 244 206 101 37 35 36 37 22 130 241 226 158 152 172 182 174 137 111 99 97 92 73 57 97 82 84 77 62 60 71 62 66 80 89 80 84 78 61 111 125 107 86 95 136 136 129 150 158 158 181 162 172 179 178 196 175 168 170 168 180 152 136 160 153 154 143 148 152 140 130 155 164 128 132 102 123 151 137 121 94 101 114 123 111 108 108 106 104 137 195 250 242 175 81 38 38 35 36 36 23 120 242 237 180 144 166 176 176 168 126 106 86 86 68 49 66 72 100 94 58 52 63 60 75 78 57 75 106 82 54 94 120 105 89 95 134 133 132 151 160 156 174 168 174 190 176 165 181 193 159 150 167 165 160 144 161 148 138 126 113 143 115 129 158 143 147 80 107 127 113 123 111 106 118 118 107 108 108 107 104 123 182 214 132 48 35 38 37 35 34 36 25 93 238 240 210 147 158 173 179 185 154 118 103 88 63 52 58 42 59 72 91 89 65 71 71 76 75 69 53 78 64 75 109 96 74 78 154 136 149 168 149 163 160 171 185 177 171 164 167 199 139 137 139 157 151 120 134 121 115 121 121 126 105 147 127 125 151 92 99 107 85 119 117 105 110 109 108 108 108 106 104 116 171 68 38 34 37 36 34 34 36 36 30 60 220 242 236 172 152 168 173 181 176 141 117 100 96 79 55 50 47 27 48 73 72 81 74 70 74 46 39 60 57 56 101 90 73 115 167 157 161 150 122 149 158 179 178 166 175 158 161 178 117 135 150 142 136 133 128 117 125 93 111 123 96 138 112 111 146 105 118 90 100 130 110 107 109 108 108 107 107 105 103 113 166 35 35 34 35 34 33 35 35 35 36 35 185 245 245 209 155 163 171 173 178 167 143 121 103 85 69 68 71 63 69 74 102 101 79 51 63 76 52 61 61 63 81 80 71 128 158 148 141 117 133 158 154 157 169 149 149 166 164 170 140 148 146 117 121 112 116 121 111 100 102 104 107 118 100 101 105 114 96 86 151 134 110 108 108 108 107 107 107 106 103 112 164 34 33 34 36 35 34 35 36 35 38 27 130 248 244 245 182 156 169 173 170 177 161 140 122 101 83 68 52 55 70 63 61 52 52 58 63 77 78 73 64 55 64 102 82 135 131 144 128 129 158 149 177 156 130 154 169 158 126 143 154 125 136 108 111 119 107 99 99 117 113 125 121 88 101 109 107 104 118 143 179 136 109 106 107 107 107 106 106 106 103 112 165 35 32 32 34 34 33 34 36 36 37 31 81 237 244 252 232 167 167 175 169 168 177 164 136 111 89 74 71 54 44 44 48 47 57 53 58 58 70 66 68 59 51 67 105 143 133 109 109 168 173 159 123 143 136 158 152 126 112 126 119 100 117 145 128 145 86 81 99 99 84 113 95 80 116 106 115 105 174 191 188 138 107 108 107 107 106 105 106 105 103 115 170 34 32 32 33 34 33 34 35 36 37 40 51 204 250 245 255 218 163 169 171 171 174 176 156 132 115 101 87 76 67 58 55 55 54 66 46 50 63 62 60 70 65 64 72 97 123 76 115 143 164 153 119 113 128 131 118 110 138 133 120 103 112 131 141 139 78 85 128 86 94 88 71 87 84 115 125 193 211 210 193 140 106 107 106 106 106 106 105 104 101 119 177 34 32 30 31 33 34 34 34 36 37 43 37 148 254 242 250 255 209 164 168 168 167 167 174 160 149 128 97 91 87 79 64 69 86 81 71 78 75 71 56 65 85 113 69 60 93 103 142 146 157 151 124 94 91 107 110 119 110 161 138 83 96 110 127 78 79 79 132 88 88 58 103 101 99 127 216 246 225 218 190 138 105 106 106 106 105 105 104 103 100 130 188 33 30 29 28 30 32 33 33 35 38 39 37 89 243 245 245 253 255 215 170 160 164 165 170 172 167 160 131 115 96 91 87 95 89 78 73 51 52 52 55 60 85 75 60 77 87 87 101 136 141 159 135 138 126 98 132 94 89 138 102 87 96 111 90 55 79 63 110 94 75 79 104 82 100 172 244 242 239 224 189 136 105 105 105 105 104 104 103 101 103 149 203 34 33 29 28 29 31 33 35 35 37 40 43 49 201 251 243 250 255 255 220 173 162 167 170 174 172 168 161 146 125 96 90 80 75 97 82 72 65 55 61 63 62 46 55 68 93 95 82 122 97 146 101 124 160 110 94 90 101 98 98 79 73 86 72 60 81 51 77 85 97 76 100 81 112 227 255 246 240 223 189 132 102 103 103 103 102 101 99 99 126 177 217 35 32 30 29 30 31 33 34 35 42 48 51 40 137 254 244 247 253 255 255 230 184 169 174 173 173 170 162 164 147 121 97 78 83 95 82 70 73 80 69 64 55 54 69 77 97 72 75 104 83 75 72 94 123 120 103 85 92 65 49 60 78 57 86 126 93 79 94 75 96 86 77 97 129 241 255 247 240 224 192 138 108 110 109 109 109 111 117 136 173 208 229 35 32 31 33 33 32 30 30 35 51 57 56 51 78 231 250 244 250 254 255 255 240 192 174 178 172 173 169 162 158 150 119 103 86 85 85 81 76 74 71 65 74 77 73 70 85 54 66 79 55 55 67 67 90 84 68 76 79 78 64 49 74 63 71 93 95 122 103 81 94 88 100 107 140 214 253 251 242 231 210 175 155 155 154 155 157 163 174 190 211 228 240 36 35 34 36 33 29 28 30 42 52 58 60 59 52 169 255 245 247 252 255 255 255 244 197 181 180 175 177 169 162 167 154 134 115 92 98 99 93 92 84 77 73 68 70 67 54 49 55 60 40 47 45 48 42 48 51 56 52 54 46 49 70 75 81 88 93 95 99 91 98 76 104 119 183 157 195 248 245 238 227 211 204 203 204 205 207 210 217 224 233 240 247
