P2
# Generated by OpenCV 4.2.0
92 112
255
92 88 92 66 86 104 68 74 86 105 92 51 35 56 74 98 86 61 87 87 79 88 74 53 44 41 36 32 27 26 24 22 26 44 59 61 60 58 48 37 35 41 68 31 20 29 28 25 22 14 20 30 16 20 22 22 26 21 17 20 21 23 24 26 30 35 40 58 65 68 83 112 143 154 147 140 131 116 79 84 112 73 78 136 151 151 163 160 128 158 124 136 79 92 74 57 82 98 90 89 88 91 57 46 82 99 103 91 59 62 72 77 82 73 54 45 42 39 41 41 38 36 33 27 23 22 23 29 35 45 47 43 46 56 46 39 39 33 24 21 19 15 33 28 26 25 25 27 31 25 23 24 24 24 26 25 29 39 43 62 83 93 108 138 166 164 157 154 152 135 89 73 90 114 96 100 141 161 150 160 151 131 132 136 66 98 57 55 105 117 104 88 65 56 75 87 107 92 77 91 103 97 98 88 77 63 59 71 73 65 63 57 50 41 35 29 25 19 17 14 17 19 21 45 62 55 47 40 39 33 26 28 22 18 32 30 32 27 32 38 40 34 29 29 25 24 26 29 34 50 65 75 98 118 145 160 185 185 184 173 163 155 113 82 63 102 100 91 117 151 162 135 155 130 126 150 71 79 84 109 137 139 107 95 76 76 69 59 60 76 69 64 92 93 74 88 101 92 76 64 49 36 22 21 22 15 16 14 15 14 13 16 15 22 52 63 46 37 28 34 34 33 31 29 26 27 33 34 33 35 46 52 46 39 37 34 33 30 34 38 46 72 82 98 123 140 169 190 209 204 200 192 179 172 143 101 81 70 68 68 95 124 150 159 143 143 131 145 71 69 110 144 133 134 123 95 73 69 53 56 65 56 59 84 91 109 106 92 61 46 55 52 46 48 48 46 46 40 38 36 33 27 25 21 25 61 62 32 24 35 40 33 36 38 38 31 35 38 44 42 47 53 53 57 55 49 45 43 44 44 45 51 71 89 94 130 149 164 192 205 211 210 207 200 191 181 161 123 96 85 72 59 56 93 127 138 149 143 137 154 60 68 104 117 107 93 86 71 66 82 67 55 56 66 91 114 123 109 69 29 19 33 40 35 37 43 50 59 64 65 58 63 53 45 40 50 76 64 30 20 24 29 40 42 33 38 54 55 51 46 49 54 75 71 65 69 67 59 54 51 54 56 65 77 86 90 129 161 167 184 206 211 214 216 213 208 200 190 178 147 107 88 83 76 61 61 106 137 131 128 142 165 46 77 111 98 111 108 89 75 81 74 66 67 59 78 99 94 66 40 27 25 39 48 37 31 32 33 39 39 39 41 42 46 51 48 60 85 71 50 42 40 38 39 39 48 46 37 41 56 62 58 58 73 104 96 84 84 76 71 67 67 72 78 82 93 106 126 153 169 184 199 210 214 215 218 217 214 209 200 191 163 125 98 88 76 75 66 57 112 146 120 122 154 73 108 116 125 115 101 92 74 63 58 70 69 74 77 58 46 37 30 28 45 53 42 42 42 47 45 48 49 47 48 49 51 52 62 88 76 60 59 55 63 59 60 56 50 52 54 54 55 58 67 78 91 121 116 99 100 95 93 91 88 93 104 112 127 142 151 164 174 188 199 205 207 213 218 220 217 212 207 201 176 137 114 92 78 76 69 60 55 118 138 114 130 106 96 92 95 88 76 60 46 56 78 65 58 56 48 44 41 31 30 45 54 49 50 52 58 53 54 55 56 56 60 65 66 69 94 91 71 69 68 70 75 76 71 71 67 62 64 67 76 81 82 91 104 121 131 124 137 140 138 138 136 134 142 153 160 164 173 182 186 192 200 208 208 211 215 222 220 216 215 210 190 154 119 111 87 70 70 67 62 59 111 127 131 93 101 87 90 83 70 58 69 80 64 54 53 47 43 34 30 33 46 51 49 55 55 60 63 58 59 64 64 66 75 81 84 94 97 91 84 87 85 88 88 95 93 90 90 81 80 85 87 92 97 99 108 127 136 140 155 162 162 162 165 164 161 170 177 184 187 192 194 196 205 214 217 216 219 223 223 219 219 215 201 170 127 105 118 98 70 61 76 68 62 100 127 94 84 93 94 76 64 68 65 53 57 56 47 42 34 30 27 42 55 52 58 63 58 74 66 63 69 76 77 83 91 92 99 102 101 104 105 108 105 106 104 109 124 118 113 109 108 110 111 109 117 117 126 138 156 157 167 174 170 172 175 174 174 177 185 187 190 197 201 198 204 213 219 216 220 225 224 220 221 218 207 183 156 119 89 109 121 80 54 75 74 67 105 58 58 88 90 68 62 62 54 56 51 48 40 30 32 29 37 57 57 58 68 66 74 77 67 70 82 87 89 92 98 99 105 112 113 115 119 122 125 127 130 130 143 151 136 140 141 137 143 141 144 139 149 158 171 178 178 181 179 182 181 183 183 185 188 188 193 195 198 199 205 211 216 216 218 225 227 224 222 223 213 186 159 144 109 81 101 138 83 47 78 77 81 55 59 64 58 47 51 51 49 46 47 37 27 30 29 38 60 60 59 65 70 76 83 74 70 84 94 97 99 100 103 108 114 121 121 124 134 137 137 141 144 149 155 168 167 164 164 165 163 165 162 163 163 174 178 180 184 184 184 186 184 184 187 189 190 192 194 197 198 200 205 207 216 216 217 225 229 229 224 224 217 193 162 142 140 115 87 94 128 75 55 103 85 44 30 37 39 41 53 57 50 44 39 34 30 30 41 70 58 52 64 71 73 88 92 77 81 98 104 107 109 111 114 117 124 128 133 139 143 146 149 152 159 164 167 170 174 176 175 175 175 175 176 174 167 178 181 185 182 185 186 186 187 187 189 189 190 192 196 198 199 201 204 208 213 216 216 223 232 229 227 230 222 198 170 132 124 133 130 101 112 121 52 85 110 30 33 32 29 60 73 56 44 40 43 41 34 38 67 59 48 60 71 70 79 99 102 82 99 110 113 114 116 118 120 124 133 132 140 148 152 153 161 161 167 171 172 172 171 176 175 176 176 175 178 179 176 178 180 183 185 185 186 187 188 186 188 189 191 193 194 196 200 200 200 206 212 216 218 224 231 230 228 230 227 203 171 144 111 104 121 143 118 127 103 36 113 34 33 26 63 82 50 49 61 60 52 42 40 57 56 45 56 66 81 74 88 110 105 76 116 120 120 121 124 123 126 133 136 141 147 154 158 158 164 168 170 174 176 176 174 175 176 177 178 177 180 181 180 180 180 182 182 183 187 189 189 188 188 190 191 193 193 195 197 200 201 203 209 215 215 225 232 231 228 233 226 203 179 154 135 95 94 122 136 117 132 53 68 36 36 60 73 50 56 69 63 53 46 42 47 57 53 59 68 78 89 77 101 122 101 88 128 125 126 127 128 130 132 139 143 146 150 157 162 164 167 172 175 177 177 177 177 176 176 178 181 182 183 182 178 177 180 184 185 183 186 189 190 188 190 192 193 193 194 195 196 199 203 205 206 212 213 219 230 233 232 232 223 201 177 158 152 141 93 88 123 111 94 89 55 45 55 59 47 60 58 58 49 47 43 47 59 56 56 63 69 82 91 86 111 127 103 110 135 132 128 131 136 135 135 144 148 148 151 157 162 166 169 174 174 178 180 176 175 178 177 175 178 181 180 178 176 178 181 183 184 181 183 187 189 187 189 191 195 191 190 194 197 198 201 205 206 212 212 215 225 230 230 232 225 210 183 150 140 150 148 100 103 121 73 80 86 46 52 51 55 45 49 53 43 35 42 45 46 54 63 66 71 86 92 91 112 126 105 126 140 137 135 137 142 140 139 148 152 151 155 158 162 166 172 172 174 177 178 175 175 179 181 180 180 183 181 182 180 178 179 180 180 182 184 184 184 186 189 188 191 193 189 191 196 197 198 201 207 210 209 212 224 225 222 226 219 204 188 153 115 107 125 138 99 111 82 57 89 61 57 48 36 47 51 40 30 29 33 48 61 64 69 73 81 90 94 95 116 132 112 141 144 144 144 145 146 144 146 149 154 155 155 157 158 163 172 174 176 177 179 183 181 178 181 182 181 181 183 183 186 185 184 185 184 183 185 188 187 191 192 193 192 192 192 191 192 196 196 197 201 203 205 207 218 225 224 224 214 200 182 170 135 85 71 94 98 102 99 63 82 67 49 34 50 56 41 32 24 31 52 60 59 60 70 80 92 98 102 108 131 132 114 144 148 150 149 148 144 145 147 150 151 154 154 155 158 162 166 173 175 173 175 179 181 181 182 184 183 180 180 180 181 184 183 182 181 182 182 183 184 188 190 191 191 189 189 189 189 191 196 198 199 201 201 205 210 216 218 219 210 202 185 165 167 122 83 95 112 104 104 78 80 41 37 43 54 41 31 24 31 45 50 55 54 63 78 89 94 96 107 112 123 131 119 144 149 151 150 147 143 143 146 151 154 155 156 154 160 163 165 169 173 173 175 179 178 179 181 179 178 179 176 179 176 179 179 180 182 183 183 183 186 186 188 190 186 187 186 186 187 188 184 186 189 194 198 206 210 215 216 217 211 199 186 174 155 151 96 81 121 127 104 90 94 43 37 44 40 34 24 35 43 37 50 44 59 79 84 81 76 90 104 109 125 135 124 142 148 152 153 150 148 145 143 148 152 156 154 151 158 161 161 164 169 171 173 175 176 178 180 180 178 176 173 176 177 177 178 178 179 178 181 182 181 184 184 185 187 189 187 185 185 187 185 180 180 192 193 198 203 207 213 219 217 200 179 166 148 158 159 90 75 113 124 97 102 37 48 42 29 24 28 34 30 39 40 65 80 72 61 64 76 98 103 108 123 135 134 142 151 153 153 153 148 146 147 150 155 157 157 154 156 159 161 165 169 173 174 177 177 179 182 182 182 180 178 180 179 174 176 178 176 179 180 180 182 184 183 183 186 189 190 190 190 188 183 179 181 185 192 198 202 207 213 217 213 204 177 154 148 151 161 154 114 78 113 130 118 40 45 27 22 24 27 24 30 40 76 71 52 60 68 75 83 90 93 108 128 134 136 144 150 151 154 152 151 150 151 153 156 159 156 153 156 162 168 170 171 173 173 176 177 176 179 182 181 181 182 183 179 174 170 176 176 178 183 186 185 183 182 185 187 191 190 188 187 189 183 179 176 179 190 195 200 205 211 214 212 205 182 156 142 150 153 164 152 102 90 128 139 51 38 24 25 25 23 24 44 73 67 48 55 59 64 72 79 76 90 118 127 131 139 145 148 149 151 151 150 153 151 153 155 157 157 152 156 158 164 170 170 171 175 176 176 180 182 183 179 179 179 180 179 179 176 175 174 175 182 185 184 186 186 185 186 186 189 189 191 194 195 191 187 189 194 195 196 202 207 212 210 203 191 157 129 132 155 162 121 92 91 118 151 52 31 29 30 24 22 38 65 65 56 49 45 53 62 68 76 86 101 113 116 123 137 143 148 152 151 152 150 153 154 157 159 161 163 161 163 164 165 170 172 175 176 176 178 181 183 184 181 181 181 181 183 181 180 178 178 176 182 185 185 186 185 186 188 192 193 188 189 192 197 196 198 197 200 200 199 208 211 207 210 208 197 175 149 133 128 126 104 92 116 153 156 40 25 29 31 25 40 56 57 59 49 42 54 54 62 68 83 86 93 98 108 123 136 144 150 152 151 151 150 152 153 156 158 160 162 163 161 163 165 168 173 177 175 175 176 179 182 182 182 181 182 183 180 182 184 182 183 185 184 187 188 188 187 186 191 193 193 189 193 196 198 200 199 201 203 205 200 202 205 208 213 214 208 201 169 118 103 117 118 121 157 165 149 31 32 39 31 39 55 55 64 51 37 48 53 56 65 75 68 76 95 99 111 129 140 146 149 147 150 155 153 153 157 161 165 165 168 171 166 166 168 169 174 174 174 174 174 178 183 185 185 184 185 184 185 185 184 182 184 185 185 186 187 185 185 185 192 190 191 194 198 199 202 204 204 206 208 210 207 206 208 208 212 221 222 215 195 127 102 117 115 113 157 178 158 41 43 48 44 47 46 55 51 34 38 49 54 60 67 63 77 80 93 100 113 130 142 148 149 149 151 155 156 155 158 162 166 167 169 169 170 172 174 176 177 175 177 176 177 180 181 185 188 188 186 186 188 187 185 183 184 184 185 188 188 185 186 186 190 191 194 195 197 201 202 203 206 208 211 215 217 217 217 215 219 226 230 218 208 147 105 119 124 100 133 180 164 42 49 56 46 37 47 53 34 33 44 43 40 51 60 66 67 74 84 101 120 132 144 150 155 154 155 156 158 158 161 162 165 168 170 172 172 172 173 175 177 177 176 175 177 180 182 185 186 185 184 187 188 186 185 183 182 184 186 187 185 184 187 188 189 188 192 194 196 200 201 200 204 206 211 214 222 225 225 226 223 229 230 223 220 165 105 112 138 126 108 194 170 48 46 44 35 40 47 39 33 42 38 28 32 52 52 55 66 84 94 111 132 137 142 149 156 158 159 162 163 164 164 166 166 168 169 170 174 172 175 173 174 177 177 177 179 181 181 181 182 184 185 188 189 186 186 183 183 184 184 189 188 185 188 189 187 183 185 189 194 196 198 201 205 206 209 214 222 227 226 233 229 236 227 219 226 188 117 110 131 155 140 190 182 43 40 39 47 54 43 33 45 35 27 27 40 50 51 68 89 108 116 125 136 144 150 153 158 164 170 170 168 171 169 170 171 172 172 172 173 172 174 171 172 176 177 177 176 177 177 176 180 185 185 187 188 188 187 186 181 183 182 184 188 185 187 184 179 180 187 192 194 194 196 201 203 204 206 211 219 227 224 225 235 240 233 221 228 208 142 129 133 151 165 195 179 58 54 49 54 48 40 50 43 26 27 36 49 55 64 85 109 124 132 137 139 149 155 157 163 170 171 172 174 175 179 180 178 178 177 176 174 172 171 171 171 172 174 174 173 171 172 173 177 181 184 188 188 184 184 182 178 176 179 181 183 178 174 181 187 186 186 192 193 195 196 198 198 201 201 206 208 216 224 225 233 237 244 227 230 221 162 158 159 151 176 231 203 51 44 42 39 41 51 57 39 30 36 40 53 63 79 104 120 126 135 139 140 141 151 159 166 174 173 177 182 183 182 181 178 177 177 177 176 175 176 174 174 175 173 173 174 171 172 172 174 176 178 185 182 176 180 178 179 166 169 178 176 176 175 180 184 185 185 189 189 192 192 193 189 191 191 193 194 202 214 224 235 232 239 234 231 227 185 165 179 183 188 230 235 54 57 49 38 47 66 55 36 38 45 43 55 76 102 120 128 132 142 146 147 146 152 161 168 175 180 181 181 180 179 180 178 174 174 176 177 172 173 174 172 175 171 174 176 171 169 171 172 172 174 177 172 170 177 177 180 165 158 168 172 172 165 166 174 176 175 177 181 182 177 176 175 171 170 166 169 173 189 201 213 222 223 233 233 232 205 187 181 196 204 223 229 77 66 57 50 55 71 53 38 50 46 45 55 79 114 131 136 143 149 154 150 152 155 165 174 176 177 178 176 176 170 166 163 162 164 166 168 167 163 167 170 171 169 170 165 163 164 168 168 168 169 168 162 167 174 176 178 166 153 161 160 160 160 161 164 160 149 147 147 139 142 142 146 146 140 133 137 145 159 174 177 187 201 223 234 234 211 193 188 188 202 198 186 100 79 63 55 61 72 53 49 53 49 45 56 85 120 139 146 152 154 158 150 150 158 172 171 171 175 171 162 153 147 137 135 139 140 140 141 146 147 148 150 156 161 160 153 150 153 153 159 163 163 164 156 159 166 172 170 164 151 154 155 150 149 150 147 139 115 107 97 94 99 101 109 121 123 123 126 130 136 148 158 161 173 198 230 238 218 200 190 181 176 134 149 111 94 87 79 72 77 56 53 54 48 50 68 99 133 147 152 152 153 158 154 155 162 163 158 155 153 141 131 126 121 121 125 120 119 117 111 110 109 111 113 119 125 132 136 137 140 141 147 151 154 155 150 154 160 166 168 160 144 145 143 136 130 128 117 111 93 83 72 70 80 87 85 79 89 102 116 120 122 128 141 149 154 182 219 237 222 196 201 190 158 116 149 116 99 94 90 84 75 63 54 57 68 74 94 119 138 152 156 156 158 157 160 160 158 146 140 135 125 113 104 104 103 102 102 104 103 100 87 77 73 71 72 75 84 96 106 118 118 126 131 136 145 146 140 149 160 162 163 158 134 134 137 128 110 101 96 90 82 78 68 62 68 75 75 81 91 98 108 118 131 142 154 150 147 177 214 234 227 194 186 193 167 101 148 119 111 98 97 77 73 66 66 78 76 92 113 122 141 152 160 160 162 160 164 165 146 128 116 111 108 98 91 91 85 83 87 86 80 73 66 65 63 60 59 59 65 73 79 88 98 108 110 116 131 136 131 141 157 165 167 160 135 125 132 125 106 94 91 81 79 82 87 97 103 109 120 129 133 138 143 150 162 180 197 179 165 172 208 235 230 204 184 187 193 126 143 119 113 98 91 83 81 79 87 73 80 107 116 133 146 155 161 164 168 165 154 141 125 116 103 98 99 96 97 100 103 98 97 96 94 95 92 88 86 86 81 75 72 73 73 75 82 93 100 107 121 124 120 131 149 162 165 159 137 115 113 110 99 90 86 86 84 80 73 73 80 83 93 104 107 111 123 138 156 182 212 202 181 181 215 234 235 214 197 195 212 199 161 118 112 103 96 95 84 68 81 89 96 106 127 136 155 160 162 165 167 165 151 132 117 108 106 107 111 116 121 124 127 129 130 133 134 135 135 129 122 113 102 94 90 85 77 71 74 81 90 100 109 110 112 131 151 163 165 160 140 116 102 98 94 92 88 74 62 50 31 46 47 46 42 40 68 63 50 55 69 98 154 203 189 185 210 229 237 225 204 203 205 225 200 122 122 118 109 97 69 76 94 106 94 119 125 143 157 163 167 167 164 161 152 138 128 120 128 136 140 141 137 138 135 130 127 120 108 92 76 68 57 57 64 63 62 71 79 78 74 73 77 83 91 101 116 136 154 162 174 168 151 129 114 110 103 90 78 64 60 65 40 45 42 44 35 59 111 92 85 102 102 91 106 162 176 188 211 227 240 233 215 207 201 204 213 137 134 122 110 77 73 86 98 87 111 134 136 143 155 164 166 167 164 156 151 140 136 140 145 154 152 138 119 95 72 57 46 34 28 22 34 41 53 68 57 69 70 63 67 77 77 76 79 79 82 98 120 139 158 168 177 179 164 142 127 120 103 99 75 60 76 95 86 81 87 86 86 111 127 129 129 163 183 148 132 154 178 193 206 221 238 237 222 205 198 176 201 152 150 125 107 87 82 84 87 91 126 134 131 145 160 163 164 165 167 158 147 144 136 133 141 145 117 84 53 34 35 47 39 27 35 39 45 40 90 117 79 59 71 72 77 81 80 81 85 88 89 104 130 149 164 176 181 185 181 154 132 120 118 106 60 83 101 112 117 113 123 125 125 132 147 155 156 159 177 183 176 178 184 196 205 222 234 238 226 198 208 167 186 145 133 99 105 107 89 97 94 114 129 136 129 147 162 162 162 165 164 161 149 138 139 133 124 113 85 62 67 86 92 95 90 93 91 81 78 85 108 110 110 105 84 73 64 90 105 100 96 99 99 107 134 158 174 181 187 191 188 164 136 129 137 110 103 122 116 109 111 122 132 137 148 147 150 148 141 156 183 181 191 192 193 204 210 221 234 240 231 203 203 180 184 117 89 59 87 121 87 109 108 136 139 133 130 155 166 165 165 167 161 156 155 149 139 129 118 97 83 85 102 123 122 120 123 126 121 118 119 116 119 121 121 117 112 112 89 98 123 127 113 108 108 111 135 159 178 185 189 192 192 180 147 138 147 141 138 122 107 98 105 116 126 124 127 128 127 130 138 152 176 190 195 198 199 202 209 224 234 237 233 206 188 179 191 104 92 76 78 115 100 121 125 128 128 125 138 155 164 165 168 172 166 161 158 156 151 147 137 129 125 127 121 121 125 124 128 129 130 132 136 137 132 124 110 98 108 120 124 131 134 136 121 110 110 117 145 171 182 188 190 193 195 192 166 142 143 136 132 124 118 106 99 97 98 100 102 108 116 127 146 163 162 172 192 207 205 200 206 218 237 237 235 208 169 158 195 118 113 95 81 119 130 132 136 127 117 129 146 155 160 165 167 167 169 167 163 159 155 157 158 158 149 143 138 130 112 107 111 116 119 119 120 117 110 98 91 93 105 113 115 121 129 132 123 114 115 126 157 180 185 188 190 194 194 196 187 158 148 144 136 135 136 137 133 130 127 124 123 124 131 140 146 159 179 184 181 196 209 205 204 213 231 234 229 210 170 144 186 117 114 104 91 127 151 145 142 127 109 130 138 157 163 166 166 167 167 164 161 160 161 161 163 164 165 162 143 123 113 116 104 97 97 95 94 92 93 95 101 114 119 117 120 127 132 135 128 120 121 139 170 183 184 189 190 192 195 195 200 182 157 162 161 153 148 151 152 154 155 155 156 158 165 168 166 164 164 177 190 193 202 206 204 204 222 238 231 203 175 149 183 114 110 107 100 125 159 155 142 111 120 131 132 157 163 167 168 167 168 167 166 167 167 169 170 168 160 150 149 154 154 141 125 117 115 114 113 118 124 128 131 132 134 133 140 145 142 138 133 128 130 153 169 178 184 187 188 190 194 195 205 211 173 168 173 172 168 163 163 162 165 164 166 175 176 178 179 177 173 173 182 194 201 199 206 208 220 235 229 202 157 138 190 120 119 110 105 136 167 164 152 103 125 127 131 156 163 166 166 167 170 171 168 168 163 165 164 157 159 167 167 158 147 145 146 143 144 141 144 149 146 145 146 148 149 152 154 153 146 137 131 132 143 155 162 175 184 188 188 189 191 194 202 200 176 173 177 177 183 178 173 170 168 169 172 175 178 175 180 181 180 177 178 192 197 197 206 212 222 230 232 203 143 146 201 129 132 127 112 149 165 169 156 123 132 122 130 151 158 163 168 168 171 169 167 166 159 161 159 164 168 157 151 156 160 158 156 155 157 158 156 155 151 153 155 154 158 159 158 152 145 135 134 139 151 156 160 173 184 185 188 188 189 194 202 188 182 176 177 165 178 184 180 176 170 171 174 178 179 182 181 183 187 188 185 185 190 199 204 212 222 231 233 199 144 163 213 121 129 139 130 148 164 170 151 135 121 110 137 149 156 160 165 167 170 169 169 165 163 166 166 162 152 148 160 163 160 159 160 158 161 162 160 158 154 157 159 160 163 162 155 149 141 134 135 145 160 161 161 166 178 182 188 190 189 196 212 202 192 180 182 169 177 183 168 181 181 179 178 180 183 185 186 185 185 185 189 189 186 195 205 211 219 225 224 192 180 202 203 107 122 134 133 142 163 169 143 124 107 110 135 150 157 159 162 165 165 168 165 166 169 163 161 157 153 160 165 165 162 163 163 163 164 164 160 158 163 162 162 166 165 160 152 146 137 135 142 152 165 167 163 167 178 183 185 187 189 199 219 207 201 183 185 183 182 180 158 174 189 186 187 186 187 186 188 190 189 186 187 191 190 190 202 210 214 215 222 197 172 219 213 99 107 128 133 138 161 164 143 114 101 104 127 144 154 159 163 164 165 165 164 168 163 158 155 161 165 162 164 169 170 169 165 167 167 168 170 169 171 169 167 166 164 160 150 144 138 140 148 161 169 175 174 170 178 182 187 184 190 201 219 206 198 186 184 186 183 184 178 186 189 186 188 191 188 189 189 186 184 186 184 189 191 189 196 207 209 206 221 199 177 210 227 133 136 152 145 133 156 163 148 120 106 108 122 133 151 159 163 163 163 165 165 161 160 157 158 165 166 164 167 171 173 173 172 173 175 177 177 174 173 168 169 164 161 160 153 147 146 149 156 164 170 178 178 174 178 179 182 182 187 199 218 214 193 190 186 186 189 185 187 188 188 189 190 188 190 191 191 188 186 185 185 187 189 192 194 201 204 199 212 203 212 209 220 156 180 178 140 109 147 159 147 118 115 107 127 127 141 153 162 160 163 162 163 161 161 162 161 164 163 161 164 172 174 174 176 177 176 178 178 175 173 169 168 166 162 162 160 155 153 155 159 163 167 175 180 178 179 178 178 180 182 195 213 222 205 193 192 192 191 188 184 187 189 190 190 187 189 191 190 190 188 189 187 188 187 188 192 196 201 196 210 188 200 203 210 169 185 183 155 126 150 150 143 108 118 120 119 113 130 149 155 161 163 162 159 159 162 164 161 161 165 167 170 173 174 174 174 177 176 176 175 175 173 173 169 168 166 163 157 144 139 150 158 162 170 185 181 173 175 180 179 180 185 195 205 219 220 211 194 190 197 192 187 186 189 190 190 189 190 191 193 192 192 192 189 188 187 183 182 189 189 191 212 178 179 193 204 187 181 176 180 181 161 129 135 120 111 126 116 120 133 148 148 150 159 159 160 161 155 157 162 163 170 170 169 170 170 171 174 176 175 176 175 175 175 175 172 171 168 158 143 132 136 151 159 168 184 183 167 169 169 176 182 184 188 189 200 213 221 226 209 171 179 195 193 187 189 189 188 189 190 191 191 191 191 193 190 188 183 183 180 179 182 188 210 171 175 186 199 183 176 171 173 170 148 124 132 137 117 126 138 141 139 146 147 146 152 152 157 158 152 156 163 166 167 164 163 166 167 170 174 174 176 176 176 175 175 173 172 168 160 151 147 144 148 157 163 172 182 166 160 159 164 175 184 184 186 192 200 204 211 223 227 182 150 175 187 188 189 188 187 188 187 186 187 185 184 187 189 189 184 182 179 173 176 192 202 157 168 174 188 179 174 169 164 153 141 127 131 143 120 128 145 144 140 135 143 143 146 146 152 152 151 152 157 160 159 159 160 162 166 169 171 175 177 176 175 174 170 171 166 159 154 152 149 147 156 164 170 160 160 157 155 157 162 168 183 183 182 192 201 200 188 199 221 213 157 147 167 181 185 188 184 186 187 187 186 184 184 188 187 185 182 178 177 171 171 196 189 137 149 152 174 171 170 168 163 153 146 131 127 145 128 127 151 142 143 138 145 138 140 141 142 144 148 151 152 153 154 156 157 157 159 164 167 169 173 174 172 170 168 165 157 150 145 147 142 152 165 175 181 164 152 151 152 154 160 164 175 181 186 195 199 201 188 189 209 224 189 147 151 166 180 186 184 181 184 184 183 182 182 185 184 184 185 178 174 167 164 194 171 121 138 162 178 160 163 163 155 149 138 129 119 141 137 132 151 146 143 144 149 136 137 137 138 139 144 149 148 152 154 149 152 157 157 159 164 164 167 167 168 166 161 148 140 138 139 135 135 151 172 186 181 161 152 151 152 158 171 176 174 179 188 200 212 211 207 198 203 222 219 169 152 153 165 175 179 181 179 180 181 179 178 180 183 182 179 177 171 163 167 201 191 160 167 171 168 134 139 142 137 127 113 106 101 139 144 134 144 153 147 143 147 131 133 136 139 136 138 142 145 148 148 148 148 152 154 158 160 161 160 162 161 154 149 142 134 136 137 122 119 147 168 175 170 166 161 160 163 175 182 180 176 181 186 197 215 222 213 203 202 216 222 176 163 156 153 163 170 173 175 178 177 172 174 175 180 180 177 181 171 163 176 200 193 164 161 159 159 165 150 133 119 107 105 82 97 133 141 137 141 149 148 147 146 137 133 136 136 135 136 138 141 143 148 150 149 150 150 153 153 157 157 157 157 148 143 134 128 138 144 128 111 135 149 151 154 161 167 169 177 182 184 181 181 181 185 188 205 226 221 209 198 191 193 167 169 171 153 155 166 168 171 173 172 170 169 171 174 175 178 176 173 170 176 205 196 159 158 158 158 190 186 176 157 123 106 70 92 129 146 143 148 152 143 143 141 145 142 135 132 135 135 135 138 143 147 146 145 148 147 146 143 146 151 152 149 146 139 128 135 146 149 144 120 116 127 132 137 148 155 161 178 182 170 169 169 167 174 183 192 219 229 201 172 158 161 159 168 172 162 148 158 165 173 173 173 171 167 163 166 170 180 179 171 177 177 201 185 157 156 155 154 185 182 176 174 139 105 69 91 133 145 143 154 156 139 147 145 141 137 138 138 135 131 133 138 141 143 145 143 141 140 143 146 145 145 144 144 141 130 128 142 149 152 148 132 106 99 100 100 109 128 136 148 153 147 146 145 148 146 156 171 194 200 164 125 115 142 160 170 176 170 154 155 162 171 175 175 171 169 166 162 162 173 181 173 182 190 202 193 149 153 152 153 183 181 176 176 153 113 76 90 138 138 147 153 145 148 152 147 138 141 144 143 138 130 134 137 140 140 141 140 138 136 139 144 144 143 141 139 134 127 138 147 147 142 141 139 125 93 65 47 39 63 100 113 110 113 124 130 129 123 128 144 158 150 80 53 97 140 163 174 179 177 166 155 155 164 175 175 168 167 166 162 160 172 178 175 180 188 204 182 148 152 151 151 180 181 174 176 160 127 84 88 133 136 136 151 149 146 151 144 143 144 141 142 138 132 134 134 136 137 138 137 135 134 134 137 132 124 132 131 126 135 146 150 149 144 140 136 131 122 93 76 58 46 45 64 83 92 97 107 110 104 101 116 127 84 63 91 133 157 166 176 177 178 174 158 153 160 170 173 167 160 160 163 158 163 172 176 182 186 214 180 146 149 150 150 181 181 176 175 167 137 85 82 131 141 128 139 156 148 148 141 135 141 143 141 135 131 132 129 131 133 137 133 132 134 133 133 129 123 131 130 131 141 143 147 148 146 142 133 132 124 113 95 67 70 61 50 50 62 81 85 84 85 87 91 88 97 104 119 149 156 165 177 179 178 175 165 153 154 162 168 169 160 156 164 148 159 167 170 185 181 211 180 143 149 150 149 179 178 175 174 169 144 91 75 126 146 132 143 161 150 143 137 133 141 144 139 127 129 130 126 132 133 133 131 132 130 131 135 137 137 136 137 138 139 139 144 142 141 139 137 124 120 112 88 64 75 79 70 61 38 48 53 47 49 66 83 89 95 104 115 131 147 167 174 177 178 174 169 159 152 160 161 170 167 155 161 139 146 160 166 179 178 208 178 144 149 148 148 178 177 173 175 175 152 96 74 125 145 147 159 151 140 131 138 142 148 140 136 135 133 130 126 129 129 126 126 125 127 130 132 138 140 138 137 134 130 127 136 140 136 140 136 124 111 103 97 81 86 88 75 80 67 60 58 50 48 76 102 98 95 105 118 146 153 156 161 166 173 172 167 163 160 161 164 168 170 156 155 136 139 163 169 175 176 201 174 144 148 149 147 177 175 172 172 174 155 105 79 123 147 145 151 153 140 127 132 142 146 137 132 134 130 129 129 128 127 127 124 121 127 133 137 137 141 133 120 124 128 127 128 135 133 135 134 115 108 104 99 96 107 104 89 84 90 78 74 70 60 85 105 85 102 118 116 142 158 152 150 158 159 164 156 145 156 160 167 168 173 163 145 138 149 161 155 174 189 188 157 145 146 146 146 174 173 171 170 167 154 117 85 117 155 149 147 160 147 130 134 140 135 133 132 131 124 129 127 126 121 123 124 123 131 138 139 132 127 111 101 116 128 128 130 131 130 123 126 121 97 96 98 107 117 109 107 104 108 84 70 77 80 76 92 93 115 120 124 135 145 147 154 155 151 146 147 135 131 155 176 177 183 161 135 144 151 157 164 165 181 196 158 142 144 144 143 170 170 169 170 166 158 115 91 115 158 158 147 158 140 131 143 139 130 127 136 131 125 126 121 121 122 120 119 124 132 140 133 121 105 109 112 112 110 119 124 128 133 118 112 108 89 86 108 114 99 100 99 113 108 92 83 94 88 89 90 111 109 108 121 119 129 139 146 140 144 139 132 134 136 148 177 186 183 155 133 138 143 158 165 166 171 193 155 143 142 143 142 168 167 167 168 166 155 115 98 119 153 165 167 165 142 138 142 135 128 129 135 125 127 123 116 121 124 120 118 117 129 134 124 119 115 113 101 117 119 117 125 128 126 101 103 108 99 85 101 110 102 111 115 119 103 102 98 96 98 97 108 110 117 123 122 122 129 139 134 129 136 129 113 123 145 156 155 181 184 152 125 139 150 158 168 179 186 190 146 144 142 142 142 166 165 165 164 163 153 115 101 114 151 164 162 150 148 149 145 127 130 128 129 122 125 118 115 119 122 122 114 114 129 131 120 106 111 100 92 104 106 110 103 103 107 98 101 101 116 119 118 117 126 131 130 132 119 123 119 107 108 117 125 125 118 132 123 117 115 124 120 128 142 134 117 113 122 137 145 167 187 153 130 145 154 158 173 181 192 181 141 141 143 142 142 164 163 161 159 163 149 117 107 111 150 165 162 146 143 147 136 114 123 120 118 123 122 115 114 113 116 118 112 116 123 131 128 112 112 109 86 86 83 89 93 87 99 115 121 121 132 136 132 123 124 125 126 126 123 124 133 124 119 130 133 136 137 128 128 131 122 114 117 133 146 129 116 115 110 121 133 169 186 140 128 140 148 155 165 166 190 182 138 142 142 141 141 160 159 159 159 162 150 127 119 125 150 168 166 146 147 142 123 117 118 119 117 119 120 118 115 116 118 114 105 112 124 132 130 106 98 99 86 73 66 69 77 85 100 112 120 105 101 98 93 87 82 82 82 81 77 87 105 113 105 102 103 111 124 126 133 140 138 130 119 115 116 95 91 99 102 119 122 165 174 133 132 138 147 153 166 156 182 181 140 142 142 142 142 157 157 156 157 159 154 137 130 150 165 158 169 149 146 138 121 111 122 123 122 119 122 124 114 112 116 115 111 115 121 127 128 106 95 95 87 71 59 48 47 48 50 52 52 55 55 47 49 63 63 62 64 63 60 62 64 71 67 60 62 66 74 90 97 107 118 121 112 102 85 56 68 84 90 109 132 165 167 130 138 134 136 150 161 156 177 154 140 142 142 141 142 155 154 154 157 160 157 147 142 195 193 152 171 163 156 133 125 108 118 119 117 117 122 124 119 108 109 115 108 113 117 122 129 122 108 104 94 84 73 72 70 47 29 24 14 44 43 8 13 58 85 62 90 113 113 111 96 93 104 99 83 50 52 34 32 52 63 70 74 86 84 63 66 84 101 114 137 175 157 127 129 123 138 143 159 159 174 149 142 143 142 142 142 152 151 152 152 156 156 157 187 228 202 158 167 144 143 130 121 117 111 113 109 119 115 118 126 109 104 118 115 118 119 125 132 132 125 117 102 97 94 98 104 98 84 71 61 69 68 51 30 51 82 88 85 110 117 118 96 99 115 106 85 66 50 23 30 58 76 88 106 119 120 105 81 94 112 128 142 174 134 123 125 126 135 139 156 157 171 142 143 142 142 143 142 149 149 149 149 153 150 156 221 238 218 159 153 128 136 135 118 122 113 106 101 119 102 110 122 115 106 110 112 114 116 127 124 125 131 122 104 99 98 113 109 111 116 117 108 109 113 115 114 107 100 103 92 109 107 96 106 95 94 86 71 82 72 79 103 117 127 138 142 137 135 123 108 110 121 134 152 173 133 127 126 128 126 143 161 182 171 139 142 143 144 142 142 149 148 146 150 149 143 167 240 237 227 164 147 129 129 126 114 117 120 103 104 112 102 107 115 119 109 102 111 115 106 110 120 124 124 115 109 105 105 111 115 116 115 119 124 121 124 121 124 129 126 115 115 117 117 109 107 99 97 98 102 109 117 134 141 151 157 149 148 146 138 133 129 127 127 131 156 159 129 129 135 143 126 150 163 186 149 140 142 142 143 143 142 146 147 146 151 146 140 183 246 236 235 170 144 143 102 105 123 114 122 100 95 102 114 108 108 113 117 106 107 102 101 96 118 125 122 119 118 113 114 119 117 114 116 121 120 122 125 127 123 124 131 132 134 131 128 125 118 114 117 123 129 137 143 147 151 151 151 143 141 147 141 136 130 123 130 139 160 145 125 136 146 148 139 147 160 168 140 142 142 142 142 143 143 145 146 146 146 145 141 199 246 235 242 182 146 127 88 108 119 115 121 112 103 92 109 111 106 105 114 109 106 94 90 91 108 115 113 112 116 118 113 116 118 119 118 118 121 123 122 122 121 124 127 132 136 132 133 130 130 131 131 133 134 144 141 142 141 142 145 144 143 147 145 141 133 132 134 139 148 143 144 142 140 136 142 149 164 164 139 143 142 142 143 143 142 144 144 145 144 145 137 207 245 233 245 202 145 126 90 101 99 108 133 114 108 93 94 93 108 107 110 110 101 91 84 88 99 106 101 108 109 113 112 110 117 124 124 121 122 122 123 123 120 119 121 117 121 123 114 112 117 118 116 116 112 121 127 131 124 119 132 135 142 141 144 139 130 137 132 135 136 136 147 143 136 140 134 148 159 143 142 143 142 143 143 143 143 144 144 144 146 137 85 201 248 233 242 218 152 135 111 104 84 94 101 99 97 93 86 93 106 108 106 110 90 96 95 82 96 103 103 106 104 114 117 109 115 122 126 131 120 112 118 112 111 109 107 102 114 112 98 99 97 93 94 95 92 102 109 109 105 112 121 129 147 146 145 137 121 131 134 146 138 134 136 142 128 129 136 148 148 141 143 145 142 142 142 143 144 144 144 144 145 95 52 207 248 234 237 231 161 142 118 90 80 92 82 88 91 86 94 103 99 101 98 106 99 95 85 76 93 100 107 105 106 118 124 122 115 118 121 127 120 115 109 101 100 96 87 87 99 89 84 82 79 81 86 98 99 95 92 98 117 125 131 147 153 148 151 135 124 135 145 150 137 142 132 137 139 146 174 156 141 145 144 143 142 142 142 142 142 142 141 147 120 61 44 187 250 236 232 241 173 145 132 96 76 73 80 88 98 98 88 91 101 105 100 107 110 91 65 75 97 101 106 109 115 123 126 127 120 117 122 125 124 121 111 98 91 95 92 82 77 74 78 77 78 76 95 104 99 97 95 111 132 136 152 154 153 149 149 134 126 140 133 140 141 133 133 149 145 147 171 159 141 143 143 142 143 142 143 143 142 141 143 139 75 50 34 148 251 238 230 243 196 144 140 116 77 58 72 87 90 101 82 89 90 97 97 105 108 84 74 95 98 107 112 114 122 127 131 130 125 111 125 119 113 115 119 107 95 99 102 93 83 76 86 87 104 92 91 92 90 105 117 126 136 148 150 151 157 153 140 137 139 130 141 141 145 134 122 151 170 161 141 142 142 143 143 141 142 143 143 143 143 141 146 104 52 49 32 101 242 240 233 237 228 151 138 128 91 69 70 70 84 100 96 88 89 88 92 98 103 82 90 99 97 101 92 109 128 129 126 124 113 104 123 122 119 125 123 107 105 107 113 107 91 96 98 95 110 110 99 98 94 105 124 133 138 148 150 148 155 149 138 140 138 150 146 133 141 135 134 153 156 153 143 142 143 143 142 142 144 143 143 143 143 147 125 67 51 48 36 51 210 242 233 230 245 188 134 131 114 81 61 54 65 90 94 88 86 80 78 100 101 102 111 101 100 99 95 107 116 120 122 117 115 115 120 132 136 135 124 120 123 122 114 105 101 99 103 104 101 107 109 103 107 120 125 142 153 157 154 154 150 140 140 142 143 161 145 127 143 143 142 158 152 141 142 143 143 143 144 143 143 143 144 144 144 138 85 55 50 46 40 24 154 244 233 229 236 236 155 128 129 94 68 59 60 65 79 86 78 71 80 94 97 100 106 100 95 99 103 102 110 108 108 109 126 121 121 134 135 131 128 132 133 130 126 126 127 118 114 110 108 119 119 122 126 136 141 151 160 161 157 160 150 143 141 124 137 159 155 143 142 157 154 141 139 143 142 143 142 143 145 143 144 144 144 144 145 91 65 54 49 45 42 26 91 234 234 230 228 241 214 136 129 118 79 71 65 66 68 84 80 76 88 83 81 91 91 98 104 108 95 92 103 111 110 114 112 108 117 132 130 131 128 139 138 138 132 132 137 131 137 127 117 133 133 132 140 139 145 155 158 162 157 150 154 142 134 117 124 155 163 138 129 149 205 168 138 145 145 145 144 145 146 146 146 144 144 145 145 66 59 52 49 45 40 33 39 193 237 230 228 229 243 203 129 123 108 89 78 73 69 60 67 72 63 74 71 90 98 99 103 96 94 101 93 103 100 107 100 100 111 124 128 118 124 133 142 142 146 141 135 136 141 140 133 142 134 140 143 150 152 157 155 159 150 149 143 142 141 133 131 145 149 123 122 138 218 228 143 143 146 145 146 145 145 145 146 145 146 146 145 59 54 51 47 43 39 37 20 135 237 229 230 226 232 243 196 126 125 110 89 74 58 49 57 65 60 61 71 76 90 98 96 97 94 95 85 97 95 101 93 99 108 116 124 117 125 121 130 138 148 140 139 139 149 155 144 139 143 149 154 151 155 154 150 142 148 155 149 143 136 131 124 132 130 127 138 168 187 239 196 135 147 146 146 145 146 146 145 146 146 146 147 52 51 49 45 41 39 36 22 74 222 229 231 228 227 235 241 189 130 127 108 86 65 51 56 52 47 64 75 62 68 90 100 98 90 84 82 96 107 106 96 93 105 115 110 114 127 118 122 132 133 133 137 138 144 144 142 138 142 154 159 149 151 149 150 150 138 144 149 144 144 128 127 127 136 127 170 175 184 199 242 163 141 146 147 148 145 147 146 147 147 147 147 48 49 47 44 43 39 36 31 29 177 233 229 231 227 229 238 240 192 123 117 106 91 75 66 53 49 51 55 63 74 74 77 84 74 84 86 89 95 107 99 96 106 109 109 106 128 129 141 140 136 140 140 145 137 141 145 143 134 139 152 141 145 153 146 139 136 126 147 135 124 122 135 106 144 162 175 142 183 186 223 226 143 146 147 147 146 148 147 147 148 148 148 50 50 46 44 42 38 36 32 18 117 231 229 233 228 226 231 238 242 185 105 96 100 98 87 69 71 67 48 60 65 60 66 71 74 90 91 66 69 92 102 107 111 120 111 107 123 144 139 124 130 141 139 142 137 149 140 138 128 128 136 140 154 147 137 131 129 136 138 116 104 105 114 117 149 186 161 135 162 195 193 241 193 142 148 148 148 148 147 149 149 149 149 56 54 47 43 41 38 34 32 23 58 206 230 233 231 228 227 234 239 243 176 90 112 111 99 81 75 66 54 59 49 47 53 64 81 80 73 62 68 61 101 94 96 105 106 126 122 133 130 105 111 128 129 128 141 141 144 141 132 130 127 126 136 141 139 137 120 125 132 100 108 118 115 134 164 181 145 145 147 183 201 207 239 156 145 148 149 148 149 149 149 149 150 58 52 46 41 39 37 33 32 29 23 156 233 231 233 230 227 228 233 239 243 168 94 109 104 92 88 78 67 62 52 44 41 55 87 73 71 78 66 59 91 84 98 105 108 112 117 122 110 111 109 121 131 129 133 134 138 131 134 120 124 128 130 132 129 122 113 114 98 100 136 123 113 153 174 166 131 149 152 161 199 196 232 212 142 149 149 150 150 151 151 151 151 55 49 43 40 39 37 34 34 31 20 95 223 231 232 231 229 226 229 234 239 243 169 94 104 101 98 89 86 80 62 49 49 49 53 61 77 84 65 73 90 107 106 119 110 93 110 116 96 105 123 105 102 105 104 115 122 115 113 113 118 120 126 127 121 113 98 105 93 112 137 136 144 161 176 146 123 152 155 161 185 202 203 247 177 145 152 151 150 150 152 152 152 47 43 39 37 37 37 35 33 32 25 46 194 232 233 231 230 228 226 228 233 238 243 175 97 100 100 96 94 91 78 71 70 62 59 59 52 59 69 71 67 82 99 112 93 110 99 103 103 89 92 93 98 106 108 109 115 116 97 110 129 110 109 105 110 102 90 78 101 108 116 149 158 163 171 123 120 157 160 169 183 197 201 225 233 152 151 151 152 153 153 152 153 39 38 37 36 36 35 34 33 33 29 19 145 233 233 232 231 229 228 227 229 233 238 243 184 103 97 104 100 93 95 90 81 71 58 68 69 52 56 74 60 63 70 89 89 85 80 105 95 84 86 90 92 97 115 109 104 107 102 103 107 105 101 94 101 97 71 61 90 102 141 153 155 161 155 106 118 157 163 172 187 192 204 205 249 201 145 154 154 154 154 153 155 38 37 36 36 36 35 35 34 32 31 19 84 223 233 232 231 231 230 229 229 230 233 237 245 194 103 97 107 101 97 95 90 79 78 74 67 65 62 57 55 63 52 77 80 79 84 87 79 80 80 74 84 62 93 99 95 92 91 84 94 104 84 95 93 94 62 75 113 146 151 156 158 160 139 97 118 153 165 178 192 194 198 210 222 250 170 151 156 156 157 157 156 38 37 36 36 36 36 34 33 32 31 25 37 190 234 232 232 232 232 231 229 229 232 235 237 244 200 111 90 101 100 96 98 94 88 80 73 80 80 71 66 68 57 62 69 96 92 76 84 82 69 79 78 60 70 75 79 92 92 72 78 89 68 79 78 93 126 138 149 150 152 155 156 155 121 96 118 150 165 183 194 194 195 213 210 241 231 155 156 158 158 159 159 37 38 36 36 36 35 34 33 32 30 30 17 138 234 233 232 232 232 231 231 230 231 232 235 238 244 209 114 90 102 100 102 103 102 95 85 82 85 85 83 80 78 67 70 78 68 66 75 65 71 72 72 63 55 77 67 78 79 75 50 65 76 93 124 146 158 160 157 151 153 154 154 147 105 93 108 144 166 185 191 191 199 211 216 218 255 202 154 161 160 161 162 38 39 38 38 36 33 34 33 32 32 31 18 77 221 234 231 231 232 232 233 233 232 232 233 235 238 244 216 124 92 101 102 102 100 99 97 90 92 95 90 83 89 89 83 76 78 75 71 67 78 69 74 67 74 80 69 69 80 78 79 107 137 157 168 164 158 155 153 153 154 152 152 131 99 94 104 140 167 185 190 191 203 210 217 215 234 252 174 157 164 163 161 40 38 37 36 35 34 33 33 33 32 32 25 33 181 234 231 231 232 232 233 234 233 233 234 234 236 237 243 223 139 99 101 105 104 99 100 98 99 101 99 92 95 90 87 88 88 90 88 93 88 87 85 93 98 97 96 94 102 110 119 130 151 165 170 161 153 151 148 151 153 152 148 116 98 96 102 137 166 184 189 193 203 209 216 221 218 249 230 145 149 159 162