P2
# Generated by OpenCV 4.2.0
92 112
255
71 61 63 23 80 31 78 71 77 90 71 31 29 22 32 11 1 5 6 17 25 46 61 81 89 94 99 99 91 103 108 97 80 82 78 81 84 100 91 98 131 151 143 141 147 154 163 160 154 145 130 123 120 111 97 76 70 63 59 53 44 35 36 35 17 7 18 3 37 62 57 50 39 45 65 69 79 55 50 45 40 31 23 49 65 84 163 167 151 167 188 185 77 58 34 71 24 80 59 71 79 81 48 22 31 34 19 9 6 3 15 34 57 96 117 129 133 133 131 131 130 127 122 105 108 92 98 87 97 96 95 110 123 149 146 151 156 173 192 189 186 183 173 160 155 150 144 132 123 109 95 84 71 53 41 36 37 33 8 16 3 42 56 53 46 41 36 54 56 70 64 58 55 49 27 27 43 66 117 152 165 159 181 192 63 32 75 29 66 51 71 75 88 58 29 26 36 27 0 6 6 21 47 74 110 136 140 144 146 149 147 142 145 133 142 132 125 126 122 110 110 115 109 129 133 156 168 174 170 172 186 190 190 194 189 184 180 178 178 176 164 156 154 153 145 121 84 55 40 35 34 17 17 8 34 55 55 44 42 42 59 52 63 59 58 61 43 30 29 48 67 129 168 161 171 188 48 80 46 49 83 60 64 79 74 47 16 34 39 13 1 7 22 51 81 106 140 150 151 158 161 165 166 162 161 153 171 179 164 161 158 163 157 170 160 168 162 175 180 189 192 191 195 189 188 192 191 188 189 189 188 189 181 176 175 170 163 162 156 133 90 59 40 34 22 17 18 47 54 46 38 52 47 55 55 61 60 56 53 37 29 36 45 96 142 163 161 177 56 56 38 80 34 65 64 100 64 23 23 40 33 3 11 22 53 77 106 140 148 152 160 159 173 170 169 173 178 179 178 191 202 187 200 193 198 190 194 194 179 190 196 197 199 199 198 195 192 196 190 188 189 193 193 195 188 185 184 176 168 164 168 171 147 123 83 54 39 29 13 26 51 56 46 33 52 59 55 56 60 57 58 37 43 35 34 49 115 152 154 172 53 43 64 52 58 58 84 85 43 17 27 35 32 21 26 42 68 98 130 146 152 155 161 171 173 176 181 185 187 191 190 198 201 200 204 203 200 201 195 197 197 191 195 202 202 202 200 194 196 196 195 193 194 193 192 190 186 186 186 184 181 176 171 173 164 150 137 102 69 43 25 11 33 50 54 41 47 53 60 61 53 50 60 43 24 35 28 36 82 133 154 167 44 49 61 49 59 62 100 47 42 13 36 38 33 27 40 57 87 121 143 150 155 161 167 176 176 180 183 184 185 192 193 198 197 202 198 193 195 199 198 200 198 193 196 201 199 201 197 196 197 196 194 193 193 194 194 192 188 188 187 185 183 182 176 172 164 161 160 139 110 79 52 25 19 43 56 42 33 51 48 60 62 51 62 66 34 26 33 33 37 106 154 159 27 75 34 59 61 76 93 50 27 22 42 46 37 35 58 68 103 133 142 144 152 160 167 175 174 178 184 188 187 193 195 198 195 196 198 197 199 202 200 204 203 200 199 202 198 200 195 195 194 197 195 193 193 194 194 193 193 192 191 187 183 180 178 170 168 163 169 160 140 114 82 63 37 23 52 53 33 41 48 48 58 52 49 63 54 31 30 33 32 51 140 156 60 49 55 56 80 99 74 42 17 25 35 36 44 49 73 86 118 137 140 150 159 166 171 178 176 180 185 188 191 197 194 195 192 192 196 197 202 203 203 207 203 203 200 203 199 201 197 197 196 197 198 198 197 197 196 194 196 195 194 192 191 185 182 175 171 166 168 163 157 145 114 84 68 41 42 50 38 29 40 52 52 64 50 51 58 43 33 29 34 32 87 149 74 46 58 71 70 102 57 27 16 27 32 29 55 68 80 99 131 141 143 150 162 166 169 180 182 185 189 189 191 194 194 199 202 201 198 199 205 208 205 204 201 204 201 205 204 202 198 198 201 203 204 200 200 198 198 197 200 198 198 197 198 194 187 183 173 177 171 163 161 160 148 123 80 44 48 51 49 30 33 43 42 55 47 51 54 60 34 43 22 35 49 125 36 58 57 66 69 89 45 29 29 22 27 35 67 79 94 118 139 138 142 155 167 170 172 183 181 185 191 194 197 199 197 198 199 202 200 204 206 208 209 209 207 205 206 206 204 203 205 204 206 205 205 203 203 202 202 202 201 200 198 199 200 198 195 193 184 182 176 165 161 164 161 142 113 71 44 44 54 35 29 37 41 48 52 52 45 56 41 46 30 24 44 82 55 48 55 90 101 56 33 26 35 11 33 33 63 91 115 131 145 143 150 158 167 168 169 178 182 189 190 191 195 196 199 199 197 197 199 203 204 204 207 206 204 202 205 203 203 201 201 206 205 205 207 205 206 205 205 206 204 202 201 201 200 198 196 195 191 188 183 170 164 169 158 145 137 97 49 37 51 41 34 29 34 39 54 46 44 40 52 41 58 28 40 50 37 58 57 84 93 51 33 25 28 13 34 43 73 103 124 138 149 145 149 162 168 171 173 178 187 191 187 186 188 192 197 199 198 203 204 208 209 207 207 203 202 203 203 207 208 204 202 204 204 204 207 207 204 204 203 204 204 202 200 201 201 199 198 197 191 188 189 178 168 171 172 158 156 131 84 41 42 39 32 28 30 31 45 42 50 32 52 41 52 41 30 52 49 55 77 68 74 46 28 23 14 11 36 44 76 112 136 140 144 148 156 164 171 175 177 181 186 194 192 194 198 198 200 200 198 203 202 206 208 206 203 204 206 204 207 205 204 205 204 206 206 206 206 209 209 207 205 202 203 201 199 199 200 201 200 193 189 183 191 182 171 172 173 167 157 141 120 60 46 44 34 31 28 28 36 45 42 43 45 44 42 52 33 43 47 71 69 90 57 34 28 23 20 18 35 53 86 122 142 150 153 148 159 169 172 174 178 183 190 187 186 193 197 201 204 204 206 202 206 208 207 204 205 206 206 204 207 207 206 204 204 203 208 208 205 204 206 202 198 203 202 207 206 202 201 199 197 194 188 184 186 178 172 175 174 171 158 142 127 85 46 45 34 34 28 22 32 42 39 43 35 50 34 63 44 31 44 93 49 104 43 30 33 18 12 23 43 63 93 125 145 152 153 148 154 168 172 176 178 181 182 186 189 193 198 201 202 200 205 208 209 210 206 203 209 209 207 205 205 206 207 206 205 202 199 200 203 203 204 203 203 206 206 203 202 202 203 201 196 190 188 186 185 177 172 175 175 171 165 152 138 100 57 45 39 33 35 28 21 30 38 40 38 38 45 48 58 43 80 70 54 90 57 30 27 11 22 33 52 74 103 131 146 154 153 147 150 162 171 177 181 184 180 188 192 194 197 199 200 200 204 203 205 206 208 208 209 208 207 205 202 203 205 204 204 203 202 203 204 204 203 205 204 203 205 202 203 203 199 199 196 189 188 187 182 175 171 173 177 170 165 152 144 119 77 40 39 33 35 32 17 20 41 31 39 35 52 40 53 46 93 41 79 67 48 26 19 6 33 41 53 78 109 133 146 151 153 148 149 167 174 181 181 180 182 189 191 191 191 194 198 199 200 205 203 202 202 203 206 207 208 205 206 207 207 205 205 200 200 201 201 200 198 201 204 202 204 199 201 200 193 197 198 190 189 185 181 175 171 169 176 170 160 149 137 115 103 69 38 38 29 38 25 19 28 31 34 39 42 46 50 54 67 34 94 61 26 31 24 9 25 35 61 85 116 139 149 151 152 152 153 157 168 177 179 180 183 188 188 186 187 193 197 198 198 204 203 201 204 204 206 206 207 207 204 204 203 201 200 203 199 199 202 201 200 200 200 196 201 192 190 193 191 195 197 190 187 184 179 175 171 168 174 171 158 150 149 114 99 86 47 42 29 40 29 22 15 34 30 39 29 44 50 56 58 53 90 59 17 25 10 13 30 45 66 89 119 132 142 154 152 154 155 161 173 182 182 182 186 189 192 189 194 195 198 201 201 200 202 200 201 204 204 205 206 206 206 205 204 202 203 204 201 195 197 199 197 199 198 198 194 191 190 193 193 191 189 184 181 184 178 173 169 169 174 173 160 151 146 129 101 75 59 55 29 29 34 27 17 29 29 31 37 40 55 52 42 78 71 61 19 23 7 17 31 45 68 95 123 133 143 155 153 154 155 161 170 177 180 181 179 180 186 188 194 193 193 196 201 201 202 201 201 203 203 205 207 206 207 206 204 205 207 206 203 203 203 201 199 199 199 198 191 190 190 192 192 190 186 183 185 181 178 175 172 172 175 170 165 156 152 120 102 94 71 56 47 28 32 28 22 23 21 28 34 40 50 48 27 81 67 40 22 14 13 26 29 50 83 102 125 133 141 152 151 150 154 164 168 174 179 185 184 186 186 189 194 193 191 194 200 206 205 204 206 207 206 206 208 209 203 203 202 204 205 205 204 201 201 198 196 196 197 197 193 191 189 188 186 185 185 186 189 183 182 179 177 176 172 169 168 160 154 120 92 80 80 52 56 29 25 35 28 27 22 28 35 37 43 50 44 70 64 33 14 15 12 27 35 55 78 101 128 134 139 153 153 152 159 164 173 180 183 185 187 192 190 192 197 195 195 199 202 204 204 203 205 206 205 205 207 206 204 204 202 204 204 206 205 203 201 199 198 197 198 198 195 195 192 189 187 189 190 190 190 183 184 181 177 176 169 169 167 161 155 125 100 67 64 65 50 38 24 34 27 26 25 28 36 28 36 52 67 72 68 19 16 13 18 33 38 48 70 111 129 133 140 150 154 156 161 166 175 182 189 193 191 194 196 196 196 198 194 195 204 206 205 203 203 206 204 205 206 206 206 202 202 203 205 202 201 199 200 201 200 199 199 199 197 197 195 191 191 194 193 192 189 185 186 176 179 174 168 166 164 160 153 130 101 79 66 63 56 59 33 21 29 29 22 18 32 29 36 38 59 67 66 17 11 24 27 30 32 53 76 117 131 133 136 145 154 157 162 168 175 181 184 187 189 194 194 193 196 201 200 198 199 201 200 199 200 203 205 205 207 208 205 206 203 205 205 204 202 201 200 204 202 199 198 198 200 201 200 198 196 195 194 193 191 182 187 181 179 172 162 164 165 161 158 139 110 85 68 59 62 55 40 26 25 19 24 27 32 32 37 40 44 68 63 13 11 25 21 28 45 64 81 119 134 139 139 144 157 158 164 170 176 183 186 191 188 191 193 191 196 199 196 196 200 197 198 197 200 204 206 207 207 206 205 206 205 203 204 203 201 199 198 200 199 198 199 204 201 201 201 201 202 200 199 199 195 186 183 177 173 172 160 164 167 163 159 143 117 89 68 53 51 53 52 30 37 26 21 26 32 30 30 36 56 74 53 10 20 27 24 35 48 59 84 120 131 143 144 144 157 162 168 173 178 185 190 196 191 192 192 192 197 193 190 193 197 201 200 197 197 200 205 206 206 204 204 207 203 199 204 207 204 201 201 197 195 196 200 206 204 204 203 204 204 203 201 202 199 193 183 178 173 178 164 165 165 160 158 148 126 100 74 55 39 42 49 39 33 33 25 23 18 31 36 38 78 77 46 5 29 27 35 40 37 61 88 121 129 143 145 144 157 163 177 187 190 194 197 202 197 194 194 197 198 195 195 196 190 194 196 197 201 203 204 204 204 202 205 206 200 197 205 204 201 198 198 195 195 197 199 201 204 201 198 201 200 199 199 202 198 196 189 188 179 180 178 173 170 165 165 157 140 114 87 64 45 36 38 56 35 34 36 27 27 29 27 39 84 70 27 19 26 27 24 28 36 58 110 129 131 138 145 148 156 172 187 190 189 195 194 199 192 189 194 195 202 197 196 198 194 193 193 194 198 202 207 203 202 202 200 204 203 193 200 196 197 197 197 197 199 199 196 200 200 195 207 201 198 200 196 193 195 192 189 176 182 185 179 174 177 164 158 150 150 130 100 67 47 32 39 39 43 25 26 20 23 28 29 32 66 84 26 23 33 24 18 23 45 69 115 136 135 135 146 155 168 174 172 179 177 186 184 184 184 183 189 196 196 190 185 184 186 192 192 191 192 192 199 196 197 199 204 200 200 192 187 192 189 184 185 190 196 198 192 193 167 180 177 167 175 188 189 185 181 169 167 163 155 170 181 172 168 162 158 154 153 139 131 73 35 30 24 44 55 42 24 19 21 25 26 31 83 79 25 26 19 16 12 23 68 95 114 131 127 135 156 163 155 149 151 155 149 156 151 146 152 149 155 163 170 170 165 169 186 177 182 186 187 187 188 186 187 191 199 194 192 185 174 184 180 175 177 181 169 173 175 144 133 132 114 112 130 132 136 150 155 155 142 145 142 150 153 169 177 165 154 154 155 145 143 109 44 32 19 32 49 49 29 31 14 22 29 28 78 66 20 23 10 13 14 40 93 110 115 128 132 138 151 138 126 120 129 128 115 119 120 119 113 111 112 114 114 124 131 139 158 163 167 172 175 178 179 174 176 180 182 186 181 176 165 174 171 162 155 158 156 150 128 100 114 87 86 92 96 100 101 112 125 125 123 118 126 131 138 134 144 160 161 151 151 146 148 125 66 26 23 21 28 48 33 27 25 26 28 25 66 48 23 19 8 15 14 63 101 110 118 131 130 136 128 113 103 96 105 108 110 100 90 91 78 80 77 73 72 84 91 107 125 144 153 151 159 167 177 168 170 173 183 180 177 170 163 165 162 159 140 139 136 118 102 99 98 87 81 77 79 81 77 84 92 105 107 104 113 109 114 128 124 128 147 153 144 149 149 134 89 17 22 27 24 41 38 26 24 36 33 18 62 50 20 10 12 14 22 81 104 108 129 125 120 115 107 107 108 99 89 98 86 76 71 67 67 64 58 65 74 86 92 99 111 115 133 139 143 143 161 158 165 173 175 172 170 165 158 156 159 157 144 133 120 107 104 104 100 92 71 60 59 62 67 75 85 106 121 123 115 104 102 114 120 126 138 152 150 153 154 142 117 38 20 22 24 34 39 28 17 34 45 30 56 49 16 9 13 10 34 95 103 110 126 118 112 103 105 94 94 97 101 101 99 107 114 110 100 90 86 84 74 79 85 95 106 108 118 131 135 138 156 153 158 163 176 174 165 161 153 146 151 147 141 128 112 105 100 95 89 84 79 85 100 116 120 120 115 109 114 113 117 118 116 110 110 112 116 137 145 150 156 148 122 54 23 19 24 28 37 26 18 20 31 25 59 44 17 12 15 17 51 104 109 120 130 122 101 92 96 96 111 123 136 142 139 136 139 149 146 139 135 116 93 85 79 82 93 108 111 120 130 139 148 145 150 157 168 171 160 159 153 149 146 137 130 116 103 102 91 86 80 81 99 122 130 130 137 142 141 148 138 129 128 120 119 110 108 114 124 139 149 151 155 153 138 90 43 15 25 27 33 25 14 28 36 21 72 40 14 12 17 19 55 106 109 114 130 116 104 110 94 107 129 132 144 135 145 154 149 147 155 155 143 139 129 110 91 77 78 85 102 115 120 131 145 139 149 159 174 177 158 155 149 141 130 123 114 103 92 90 77 83 97 104 99 90 88 91 91 101 107 108 126 134 138 135 129 131 118 118 128 133 146 153 160 155 148 105 62 31 19 26 35 30 16 21 28 20 70 33 20 14 18 24 62 109 114 127 129 119 100 95 94 117 119 140 137 145 130 115 114 91 71 64 59 53 66 78 97 98 83 73 81 86 98 110 118 136 146 163 177 177 176 161 153 144 133 119 106 90 76 81 81 90 79 45 27 28 20 17 16 31 21 27 40 58 90 134 147 140 129 119 117 129 139 153 156 160 151 132 92 72 30 22 26 33 12 28 29 20 65 35 20 14 29 25 67 111 113 131 126 113 100 102 105 134 141 141 110 57 43 29 22 12 12 14 40 69 77 56 38 62 87 82 75 74 80 83 96 126 145 163 177 182 180 169 162 147 126 115 104 98 86 96 95 70 34 77 39 7 27 31 25 53 99 85 47 51 74 64 112 149 149 143 139 144 161 151 153 153 153 132 103 97 78 17 26 41 30 30 22 16 67 32 29 20 9 35 80 111 112 127 128 126 115 117 127 137 129 64 49 47 20 4 33 139 182 194 158 125 78 112 125 82 66 86 89 86 86 89 89 109 143 163 182 190 183 177 165 151 136 125 124 120 125 113 86 68 89 53 37 99 110 145 155 135 181 172 128 56 47 84 75 128 156 137 162 170 140 137 155 147 156 154 108 70 55 72 13 39 41 34 19 16 59 24 26 15 22 65 98 115 119 129 129 137 139 134 136 135 82 59 43 17 40 6 57 23 60 50 155 189 185 81 88 126 104 80 86 84 86 98 101 112 144 173 187 196 189 184 173 153 140 139 135 133 114 85 91 99 70 84 52 53 32 54 41 144 194 170 115 121 93 85 84 102 139 171 162 138 149 154 157 156 153 139 110 103 62 56 28 33 29 25 21 19 63 29 24 16 64 80 102 111 121 125 130 134 145 141 137 122 85 76 71 106 110 116 95 89 88 89 186 189 186 159 104 83 107 116 116 100 105 104 118 123 133 168 191 198 193 190 178 161 141 146 136 115 113 136 123 73 114 149 156 156 152 153 158 152 148 162 171 160 158 144 111 104 121 123 142 160 150 146 150 148 145 156 127 94 109 35 29 52 74 113 83 26 57 31 3 55 72 93 117 116 127 119 142 153 132 122 120 111 89 117 139 143 146 144 143 147 148 148 148 150 163 164 148 121 124 92 136 157 132 131 135 128 144 187 199 200 199 191 182 167 147 148 143 148 156 147 104 137 138 150 138 134 150 158 172 179 184 177 175 178 175 168 138 110 112 122 141 146 149 150 151 157 160 157 135 101 110 87 64 53 110 140 166 104 61 34 36 81 79 101 111 117 133 129 128 131 153 146 114 97 91 132 152 161 162 167 170 170 158 160 166 176 166 172 157 161 155 141 120 159 175 147 148 131 172 198 201 200 201 199 197 180 156 146 150 159 169 160 170 162 155 148 159 166 166 171 173 173 176 178 169 164 156 145 147 151 156 155 158 160 165 161 153 155 156 156 143 124 89 86 73 58 85 117 138 153 58 34 61 57 93 99 122 129 130 128 146 140 134 131 119 101 125 143 137 133 152 154 153 166 160 160 148 146 136 132 136 149 161 164 179 168 169 148 150 160 204 201 205 202 202 203 202 196 177 151 156 164 160 174 152 140 133 125 117 124 145 150 151 151 155 144 137 128 124 125 142 158 159 165 167 165 164 163 157 148 152 155 148 128 109 79 71 74 80 104 141 149 58 35 69 52 78 98 111 117 128 133 140 146 158 158 148 142 130 136 123 126 116 112 117 118 119 125 111 113 109 113 123 136 142 151 153 152 172 150 143 186 198 202 205 202 202 203 201 197 191 173 161 161 164 153 170 166 153 136 127 105 91 90 92 89 90 95 106 115 137 167 158 163 172 175 172 170 174 174 165 158 154 156 153 139 112 98 64 101 82 60 61 108 63 57 68 91 83 110 123 130 135 138 156 162 155 157 156 150 163 134 111 143 125 116 101 110 104 98 100 109 113 132 147 154 167 160 163 164 159 151 157 183 194 203 207 205 203 198 196 196 194 176 156 160 164 170 172 164 172 171 169 168 155 140 125 133 133 131 133 138 140 139 169 183 172 166 174 172 176 174 168 162 156 154 150 142 127 90 67 63 61 25 24 80 52 60 59 84 90 123 125 126 137 151 155 154 155 162 158 164 151 172 160 138 129 139 137 139 125 137 148 157 165 167 175 180 172 169 173 169 159 149 157 181 192 203 206 204 200 197 195 189 179 163 151 154 166 172 169 172 177 184 185 183 179 180 176 171 170 173 172 175 178 179 163 168 183 175 167 169 173 175 170 161 158 158 152 143 116 108 76 72 143 78 20 97 63 62 69 80 94 118 124 130 135 142 158 164 165 158 153 162 170 147 153 170 175 168 156 168 170 176 176 179 184 185 186 186 178 171 173 164 150 144 157 175 188 199 198 203 199 200 198 185 167 153 150 148 155 172 180 177 173 188 192 190 190 186 186 181 184 189 185 186 190 190 186 168 165 169 170 171 166 168 168 162 161 162 156 145 108 122 103 67 146 140 35 86 73 67 74 62 97 119 123 127 140 157 162 159 153 152 166 163 148 180 188 175 169 174 181 178 177 176 179 186 190 192 191 181 179 175 168 153 147 149 160 171 184 194 199 202 196 200 194 179 162 153 156 152 153 168 180 173 175 183 182 175 183 190 187 189 188 190 189 190 192 193 194 191 169 160 166 174 167 166 165 161 160 162 155 145 102 108 132 78 127 163 107 84 75 57 79 62 91 119 126 137 146 151 159 154 160 158 161 152 182 186 177 185 184 177 179 188 180 179 187 188 192 188 184 179 175 174 160 143 145 156 162 168 180 190 199 203 192 192 184 177 161 156 162 154 151 160 173 183 192 191 187 177 180 189 195 193 197 193 194 198 199 197 190 190 187 171 156 170 171 174 166 161 157 158 156 147 114 89 136 93 165 161 169 109 77 73 89 67 93 118 127 136 143 152 156 156 156 157 159 175 186 184 190 190 185 185 181 189 188 187 192 193 190 186 183 180 175 163 156 156 151 162 163 167 183 189 195 195 194 190 187 180 169 165 165 161 155 155 162 179 182 187 185 185 191 193 194 197 201 202 200 198 196 193 194 189 183 180 170 162 165 172 169 162 159 156 154 145 125 77 113 113 160 173 174 166 80 67 77 75 99 112 127 138 142 155 156 155 154 164 175 176 176 179 182 186 186 190 190 198 197 197 196 191 188 187 180 174 168 168 168 163 156 164 169 171 176 186 192 195 195 189 183 177 173 176 173 168 167 173 171 174 183 179 189 194 192 196 198 200 198 202 201 204 202 194 194 186 179 176 174 171 165 164 169 167 163 157 160 150 117 79 101 112 139 166 165 180 84 68 75 70 87 114 126 141 151 154 153 152 161 172 175 176 180 186 182 186 191 191 194 195 194 196 193 189 186 183 180 178 174 168 158 153 159 170 170 171 172 183 193 193 193 187 181 177 170 177 179 173 159 163 174 179 178 183 186 190 195 196 199 201 201 199 197 198 200 199 194 190 184 177 170 172 176 172 164 166 167 160 159 152 124 87 128 157 149 145 157 182 69 71 82 70 89 114 129 142 149 152 148 153 162 168 172 177 183 186 184 188 196 194 195 191 190 190 186 185 188 185 185 179 171 151 145 153 166 170 165 165 173 183 194 193 190 185 183 173 166 174 175 177 167 158 160 176 183 191 191 188 191 195 196 197 199 207 205 205 203 202 199 194 190 187 179 174 176 178 168 163 164 158 155 147 132 78 142 165 161 142 155 185 95 67 105 62 77 113 129 143 147 153 151 157 162 172 183 182 188 187 190 192 194 193 194 194 193 192 190 190 195 184 180 176 171 158 148 162 168 171 165 166 171 178 195 193 180 183 178 171 166 170 169 166 167 163 162 164 164 172 186 191 197 197 188 193 201 202 202 200 198 195 197 193 190 189 187 179 171 173 173 167 166 157 153 135 127 90 157 159 156 139 170 196 102 84 117 60 66 112 136 146 148 151 143 156 164 171 178 181 187 188 194 196 196 194 193 193 188 189 187 187 183 175 177 171 162 158 163 162 154 166 162 165 168 173 183 188 182 181 166 164 161 164 165 165 173 174 171 164 159 161 157 170 192 194 194 194 196 202 202 202 201 200 195 195 191 186 183 177 170 168 168 169 166 158 158 136 110 99 158 165 140 139 164 183 108 101 93 63 76 104 135 150 153 154 146 159 168 172 174 176 179 184 190 191 192 195 192 190 190 189 183 177 169 170 168 160 156 160 175 169 155 159 155 156 162 169 177 187 190 185 170 162 159 164 166 169 178 178 175 166 159 166 163 152 157 172 188 192 200 198 199 199 198 198 197 195 191 185 181 176 171 166 161 165 162 152 148 125 93 118 155 172 144 150 164 179 110 114 107 71 61 98 135 147 148 146 155 158 162 167 170 175 178 181 185 186 190 193 190 187 175 171 163 153 154 157 144 138 151 165 169 168 157 150 153 153 162 175 181 183 185 182 173 165 164 168 171 178 182 173 170 170 152 149 164 158 148 153 164 171 183 195 196 198 197 197 196 191 187 185 182 177 171 167 161 162 162 152 148 121 95 134 154 172 159 144 162 181 139 127 103 96 68 95 134 144 146 147 153 155 161 165 163 169 174 176 177 177 181 181 174 166 161 156 148 144 142 148 128 125 145 156 157 167 169 163 159 158 169 187 199 197 194 184 177 171 169 172 173 174 172 160 155 154 144 136 153 159 150 137 146 156 166 182 184 188 191 193 186 187 184 180 179 175 168 166 163 156 161 148 136 114 107 138 162 166 155 134 158 182 170 140 116 101 61 87 130 138 143 146 154 155 158 163 164 168 170 172 169 165 168 168 164 161 150 146 137 137 145 153 139 116 131 141 144 154 158 155 157 165 186 201 190 188 202 207 188 174 169 168 170 163 164 151 148 141 132 123 149 157 153 137 131 144 151 159 169 172 179 180 182 178 174 170 170 174 169 160 156 150 146 146 136 95 92 146 156 169 144 137 158 201 134 141 126 112 77 73 128 138 139 142 151 152 155 158 161 162 159 162 164 160 161 159 153 149 148 137 129 142 157 159 155 139 114 114 125 128 149 143 146 161 186 171 167 165 170 183 193 181 164 161 145 135 140 117 124 120 117 138 150 158 154 146 125 125 137 150 157 161 170 172 168 168 162 168 169 167 167 162 155 147 145 131 134 98 87 138 157 168 148 156 185 184 129 127 133 109 93 65 120 127 135 145 145 147 150 153 158 159 154 157 161 155 148 143 143 143 128 120 132 148 153 153 143 132 110 89 92 105 112 122 112 117 151 157 142 141 134 146 171 180 154 118 120 119 92 85 88 88 128 149 147 155 156 159 146 122 124 133 144 151 163 165 170 163 161 156 152 155 164 167 158 145 128 126 128 75 98 133 151 158 147 180 189 153 132 123 138 112 109 65 117 123 139 144 139 142 145 149 152 152 149 152 152 148 142 141 137 131 110 125 144 151 147 148 133 127 117 90 51 30 32 66 88 83 93 113 116 115 102 100 113 112 93 92 59 22 13 27 49 109 137 145 150 154 159 161 158 132 105 114 131 145 157 158 155 152 159 158 149 139 146 159 156 146 125 127 136 82 95 116 133 149 180 183 189 169 157 144 138 119 121 67 97 119 136 134 137 140 142 148 149 144 145 146 142 136 131 131 116 97 114 141 151 151 148 147 132 125 121 102 89 61 38 26 36 60 76 78 80 87 79 71 79 83 68 42 46 73 75 76 101 118 131 130 148 147 157 155 164 163 137 86 94 127 143 150 158 155 149 145 147 134 131 149 154 146 126 118 127 93 100 118 130 147 172 176 180 175 153 145 142 132 116 74 80 119 130 127 133 136 142 144 144 138 137 132 126 120 105 108 109 127 137 136 140 139 146 137 138 140 112 107 91 83 81 67 63 40 33 58 59 64 62 60 65 55 49 59 97 90 88 78 91 110 125 136 134 140 155 161 157 145 163 156 97 77 117 138 143 149 143 139 143 139 114 138 153 149 127 123 122 99 105 113 136 151 170 173 173 171 151 145 146 137 118 80 82 118 129 125 125 127 140 137 133 135 123 120 128 134 142 131 116 123 131 131 145 137 135 129 126 116 114 105 106 73 76 89 77 73 56 26 38 27 23 29 31 41 73 79 78 87 85 92 72 110 99 135 139 140 147 140 156 155 148 143 157 141 80 121 143 155 153 147 130 137 116 125 144 145 137 130 120 103 121 113 147 161 171 173 169 165 154 154 152 141 123 85 81 114 127 123 116 122 135 129 127 121 117 128 147 149 138 107 123 135 147 144 138 129 147 135 119 99 106 102 76 83 109 109 85 79 55 51 37 36 45 43 29 50 80 76 99 87 62 97 74 93 108 111 141 135 151 140 145 143 152 152 149 156 130 89 122 146 160 158 138 126 123 115 144 143 142 127 122 111 102 112 146 162 167 166 162 152 154 151 146 134 126 87 80 112 129 127 116 121 130 119 121 106 132 151 153 147 99 101 115 128 141 141 139 127 131 120 119 97 95 75 91 81 123 104 94 98 77 60 52 49 54 58 53 45 75 78 82 79 70 87 88 79 98 93 126 129 128 125 142 125 133 139 157 155 149 109 102 135 158 159 146 131 120 121 139 141 146 125 125 125 72 92 123 145 149 147 142 126 133 139 122 109 87 98 70 120 119 126 111 115 122 129 113 129 138 154 146 111 69 102 110 131 125 119 115 125 120 123 113 84 101 88 102 118 125 81 88 96 73 67 62 63 57 67 57 60 67 80 91 82 75 87 88 95 75 91 107 112 119 114 131 119 118 127 130 132 134 148 101 108 156 151 148 139 125 132 138 133 133 126 134 111 39 20 60 93 111 115 104 81 105 87 53 10 24 86 84 124 124 134 110 114 123 127 130 129 147 151 133 80 85 91 107 102 73 134 104 110 103 94 109 85 82 79 112 100 79 117 87 116 68 66 85 81 86 81 97 96 90 88 103 109 127 86 83 94 87 85 91 94 100 91 127 121 119 113 135 134 124 113 126 112 142 144 150 127 120 135 141 139 133 120 132 107 42 11 7 18 31 48 58 63 11 5 4 4 18 97 88 117 101 131 117 103 125 127 135 123 145 140 111 56 80 84 93 78 101 99 95 97 99 105 92 93 86 92 111 112 124 115 109 115 100 81 97 108 101 95 98 106 116 105 106 113 103 88 109 78 104 83 83 99 114 98 123 110 119 93 103 93 97 98 86 117 132 146 134 130 104 134 142 137 127 117 134 106 19 26 34 28 38 55 59 61 9 4 9 2 1 91 86 107 100 123 115 96 121 130 129 121 138 148 119 71 83 75 72 65 55 92 83 92 90 92 126 103 125 123 114 124 117 114 128 118 116 127 112 123 121 125 111 109 113 108 117 114 100 112 112 108 110 111 109 106 112 106 104 91 92 88 84 90 93 92 63 107 131 149 120 122 100 132 134 138 129 118 129 108 19 21 43 27 45 62 65 73 15 3 4 5 3 78 90 99 114 99 122 104 111 122 119 123 125 145 115 69 102 70 58 43 71 73 82 67 80 72 95 93 98 106 99 98 102 101 94 107 107 101 125 109 122 121 114 105 112 109 96 78 82 101 91 89 98 106 101 91 96 102 87 92 69 69 66 76 72 87 82 111 155 135 114 94 112 138 133 122 121 113 120 101 49 50 66 41 61 68 67 80 14 9 7 7 24 75 75 97 118 122 111 109 108 132 108 113 104 136 132 100 83 73 55 56 50 47 40 26 40 33 35 50 50 55 67 46 48 62 64 60 62 66 69 78 71 74 65 75 59 56 54 45 56 41 58 52 58 62 55 47 42 26 20 21 22 38 46 52 80 85 84 136 148 133 105 100 128 140 122 123 119 116 120 99 44 65 59 58 69 74 66 98 21 16 14 4 40 46 79 94 110 134 115 117 102 118 116 108 92 132 148 86 91 109 70 90 78 18 7 7 9 34 55 63 70 148 184 128 104 179 167 108 108 202 201 168 110 123 106 125 136 129 142 145 155 111 100 124 107 75 67 50 40 16 7 11 30 55 61 62 65 62 98 146 133 120 92 107 125 135 125 119 105 120 113 83 54 69 64 70 66 80 57 115 19 20 15 9 47 53 96 106 108 118 117 125 97 106 130 115 97 119 144 118 114 115 96 150 151 119 31 6 12 46 62 127 112 177 218 198 164 218 225 144 199 245 242 246 209 134 192 243 248 210 149 163 205 166 147 212 175 100 106 84 48 25 14 66 120 138 108 86 85 101 140 145 119 99 85 116 124 134 131 119 92 114 87 71 57 68 70 79 65 87 57 119 22 21 16 26 34 58 88 102 99 111 118 119 107 99 117 110 87 100 142 131 139 140 136 131 135 136 130 59 10 93 127 164 152 180 197 203 172 202 221 165 198 220 230 217 222 169 234 233 234 224 138 212 230 165 209 231 174 139 161 145 88 60 94 130 125 112 105 95 92 126 158 134 114 91 94 127 118 126 124 111 106 105 92 71 52 64 74 83 72 92 60 119 26 20 25 20 36 52 111 98 90 115 109 109 103 90 109 117 79 96 124 163 153 147 134 126 142 144 136 129 105 80 120 156 152 169 194 200 179 207 193 216 191 237 222 224 216 193 216 221 228 217 173 228 210 160 222 200 172 156 156 130 94 105 135 128 125 131 118 86 106 154 156 121 92 75 113 130 113 127 121 91 104 106 93 74 51 62 91 69 63 99 60 139 34 24 20 21 24 56 102 98 82 101 104 121 110 108 94 120 90 75 105 143 149 144 137 134 138 142 131 130 141 119 113 114 136 139 186 112 45 161 215 151 207 217 225 216 211 197 217 217 230 205 178 213 202 125 207 187 150 146 117 116 134 142 133 132 139 135 118 101 136 167 155 108 71 68 109 133 117 114 96 86 119 103 100 71 56 63 76 60 84 105 57 190 30 25 19 15 45 79 97 90 78 95 96 115 112 116 95 91 113 77 85 117 147 140 144 142 144 139 132 135 130 129 131 119 128 101 140 81 61 20 40 33 115 159 176 197 187 173 217 223 205 212 58 175 98 10 60 162 116 114 129 142 145 149 141 131 133 141 144 139 156 152 128 87 67 92 116 124 124 93 88 101 108 102 110 54 59 61 69 64 97 100 86 199 12 29 20 31 44 67 94 98 81 85 96 110 123 120 128 82 94 79 77 105 137 148 150 145 152 139 136 139 139 130 122 127 126 130 157 152 138 140 116 169 119 83 84 34 31 40 18 46 35 27 101 93 124 135 134 146 146 141 143 144 139 141 146 129 137 138 138 125 152 153 86 66 67 107 113 110 117 94 107 105 113 88 102 54 64 55 74 59 107 94 104 219 17 26 30 25 25 67 69 99 73 79 79 111 119 116 128 104 79 88 74 87 111 147 150 141 151 142 143 136 129 131 120 120 130 147 146 155 160 157 154 136 149 159 158 162 160 149 152 143 144 142 141 148 149 153 154 153 160 151 147 150 148 149 130 126 143 149 145 129 133 96 62 61 70 118 96 117 96 103 104 103 116 83 115 39 65 55 81 64 97 96 159 211 35 26 28 23 44 32 52 86 101 91 84 92 102 121 129 114 84 83 77 76 89 120 128 139 140 151 143 135 127 129 124 138 130 138 160 172 176 176 160 162 155 166 173 174 157 170 151 160 158 159 154 157 159 165 158 158 159 154 152 149 142 136 135 143 141 152 159 129 131 74 70 63 89 112 100 124 108 103 91 114 95 95 115 40 62 67 76 66 101 109 197 217 25 36 23 26 30 13 45 90 82 102 96 82 104 88 115 110 93 88 85 79 77 91 119 120 134 133 137 134 128 123 125 119 126 141 144 153 170 180 176 177 175 182 178 174 172 176 170 177 159 173 177 171 169 172 163 152 150 142 148 153 149 146 133 138 146 154 140 135 99 71 65 82 102 126 102 108 101 104 90 112 87 101 85 42 57 77 71 73 110 135 221 219 36 40 17 40 26 6 31 106 75 91 86 91 88 77 109 95 81 87 87 84 72 69 110 116 119 151 138 135 135 138 130 128 135 138 148 160 155 151 160 166 165 162 176 156 157 156 155 162 181 165 169 169 168 166 156 142 131 151 151 148 138 134 142 140 129 143 133 128 73 74 66 94 121 99 95 95 92 103 88 92 87 78 58 49 59 83 78 76 128 191 218 215 31 26 35 62 34 13 48 93 77 89 76 97 73 72 81 86 93 86 75 72 69 65 90 104 132 144 141 139 134 134 125 116 117 131 126 127 142 151 149 147 131 130 124 137 132 126 139 143 126 143 152 134 145 140 131 125 141 143 126 137 144 139 138 141 148 157 138 97 74 74 88 118 126 90 94 98 88 109 91 90 82 62 36 61 61 71 69 82 175 220 210 207 43 30 72 52 33 9 55 58 73 89 64 74 65 68 69 55 69 112 91 70 69 72 81 95 121 150 142 137 145 136 143 128 125 111 129 117 114 111 126 119 105 128 142 129 121 130 123 145 146 129 130 124 128 127 134 137 131 132 131 141 142 146 144 130 122 151 140 79 100 90 103 119 119 92 91 97 77 106 86 80 77 45 43 54 67 76 62 130 210 219 219 218 33 44 77 24 25 32 24 86 107 63 83 76 69 57 66 64 65 86 90 69 66 66 76 98 136 142 150 147 146 140 145 135 124 106 106 109 125 126 121 107 122 128 130 126 121 122 112 127 114 130 129 128 118 118 123 133 130 132 145 148 144 152 138 110 120 106 100 91 102 97 100 109 96 97 84 95 81 99 88 75 87 51 42 61 59 68 84 194 218 218 221 219 20 107 78 17 30 18 14 72 45 64 66 64 69 63 82 81 79 77 79 93 81 84 85 77 113 133 144 142 131 131 142 137 134 117 113 120 115 114 125 134 122 126 138 117 111 130 131 129 118 137 122 143 139 143 122 129 127 134 149 153 145 157 131 141 138 110 126 89 121 119 88 111 111 113 100 108 70 74 89 76 88 59 59 59 72 67 134 214 214 206 210 211 95 99 17 12 40 12 13 47 53 57 54 42 56 62 83 78 86 60 80 75 90 73 67 89 114 136 130 123 124 132 141 134 129 136 134 122 108 122 113 116 121 98 129 127 120 120 113 126 115 125 125 136 138 153 145 140 146 155 152 150 153 143 136 127 126 102 96 98 107 126 109 122 113 85 97 84 65 73 82 77 61 67 70 50 71 61 169 207 194 182 191 207 159 37 10 58 19 12 22 36 39 56 52 40 63 57 75 78 86 64 99 81 106 82 63 79 79 100 129 135 137 146 148 141 142 145 118 109 119 127 124 114 103 111 127 135 119 119 134 121 124 114 135 135 149 155 150 148 160 154 152 151 151 141 131 129 133 106 108 104 99 88 121 109 109 81 113 83 90 83 59 53 50 54 54 55 78 85 207 196 195 183 184 192 44 31 31 27 18 9 30 24 38 61 36 44 58 60 73 74 76 86 91 95 81 77 91 85 84 110 128 119 152 150 143 147 143 139 135 143 138 137 129 124 120 123 141 122 116 110 136 128 124 124 135 143 150 127 144 144 159 157 152 153 136 134 152 130 137 104 57 102 112 86 102 124 83 93 106 80 93 47 62 40 43 48 56 57 64 148 193 194 191 186 183 185 29 29 31 18 19 21 37 28 40 67 42 59 37 60 76 60 72 77 83 91 99 79 105 69 69 108 112 105 102 127 143 143 141 150 150 155 147 138 136 150 138 134 132 121 106 127 144 104 117 136 137 145 137 144 150 147 150 166 159 151 136 117 124 137 119 121 105 100 125 73 97 88 91 90 66 67 88 65 39 36 52 59 65 51 74 180 180 191 197 187 182 186 34 24 40 19 24 39 37 34 44 74 51 46 45 33 55 54 59 71 81 78 89 86 108 74 71 100 110 108 115 144 144 143 149 151 152 151 146 139 149 151 137 134 159 125 129 136 136 130 126 134 144 143 134 151 144 155 146 154 151 153 139 132 129 124 130 97 96 86 115 96 103 93 85 69 43 62 88 39 38 50 56 60 77 54 130 189 202 213 197 191 194 200 38 39 24 37 47 44 35 37 40 60 85 38 45 32 47 46 52 59 76 82 92 103 102 80 75 85 125 98 117 122 137 140 146 152 155 148 144 138 134 129 143 160 144 142 140 121 141 147 142 133 154 149 149 140 146 161 154 153 146 142 126 134 128 112 93 119 82 94 118 89 99 100 86 52 53 52 83 34 39 52 65 52 64 76 182 197 218 208 201 193 197 196 38 40 28 104 43 45 37 40 33 42 118 67 61 35 40 28 52 46 67 70 87 93 108 93 80 74 108 98 129 119 127 121 135 114 131 137 141 141 137 128 153 164 152 152 150 157 151 140 155 146 150 146 153 135 153 145 146 141 129 144 143 122 106 115 87 107 79 105 96 97 77 69 84 45 46 66 91 32 41 54 74 49 76 142 183 195 195 211 206 189 181 175 31 55 109 68 48 45 61 45 38 40 107 111 76 49 24 23 40 34 49 59 72 57 83 69 77 59 66 115 118 106 90 103 100 111 122 123 133 143 141 138 137 138 128 135 137 154 165 147 137 149 143 138 143 150 145 144 129 136 138 143 155 131 110 109 95 101 67 88 91 57 56 61 56 56 96 101 83 32 37 59 66 61 67 168 184 176 195 210 207 198 181 167 68 134 81 47 38 48 54 36 39 41 100 119 82 61 39 44 26 30 34 67 45 65 62 81 86 77 74 64 89 90 81 101 99 114 122 128 133 133 136 142 160 159 138 147 155 158 149 140 129 133 124 138 138 121 144 131 129 117 149 124 121 101 124 117 67 86 96 79 57 53 39 42 45 97 96 108 73 20 42 52 62 60 108 173 171 176 202 209 208 205 187 170 109 91 40 40 83 43 43 40 49 47 99 100 109 92 69 52 31 27 13 24 69 47 50 62 92 64 66 81 99 88 96 97 104 103 120 136 134 149 147 144 132 145 145 141 119 146 149 146 129 138 121 130 136 131 125 132 121 97 135 135 98 86 78 80 72 67 55 74 48 34 43 65 84 100 113 114 46 31 56 61 66 79 133 171 164 174 192 203 208 203 200 190 111 39 45 74 108 31 41 44 50 47 114 118 130 114 90 59 42 36 39 36 11 43 39 54 61 51 59 37 95 83 98 105 124 122 117 107 118 125 125 130 140 131 122 139 146 136 143 138 111 128 123 111 127 134 114 111 115 107 110 113 105 86 65 59 61 53 49 49 34 42 43 64 112 101 105 109 29 70 67 39 57 134 156 165 159 164 185 206 212 210 214 200 55 48 41 179 28 45 42 51 61 45 142 181 101 134 110 111 96 71 44 42 35 19 27 69 61 56 65 55 49 90 75 105 101 97 122 101 100 89 88 133 123 120 124 126 148 132 131 133 108 123 118 116 121 135 116 111 108 100 97 98 100 65 56 49 43 41 29 30 29 59 57 97 107 103 106 112 44 77 52 41 103 172 189 160 161 165 191 201 205 215 217 199 42 34 102 76 35 46 48 56 59 55 144 194 127 131 139 112 122 73 80 79 69 51 40 25 31 44 45 42 55 84 84 49 74 121 120 104 95 95 70 111 113 116 107 125 123 115 114 131 114 126 110 97 107 126 101 116 78 101 87 87 110 64 44 48 46 21 30 33 37 58 81 105 107 119 111 95 72 33 49 79 181 163 196 171 175 186 178 197 212 207 206 201 55 62 69 42 48 45 50 55 58 60 100 219 162 117 150 121 133 128 103 63 75 56 54 44 33 28 45 48 46 60 81 76 77 95 116 91 77 75 87 96 93 104 122 94 97 114 112 116 118 118 103 95 107 124 86 93 84 59 71 93 114 55 41 34 29 36 36 27 51 66 100 113 113 115 111 99 35 58 76 168 188 170 184 195 188 173 190 199 201 194 193 187 41 58 59 50 42 51 51 56 61 57 71 238 198 139 128 154 118 131 121 109 99 62 46 40 36 27 20 30 50 51 65 50 97 91 123 68 70 69 73 90 106 113 95 97 118 105 113 108 112 108 103 92 101 105 83 73 75 52 76 58 50 42 45 39 38 39 43 49 79 93 103 116 119 110 122 66 54 63 185 185 196 182 182 175 192 184 184 197 207 195 184 180 70 64 63 50 46 55 62 64 61 64 48 185 212 172 132 135 162 118 136 107 94 89 63 36 50 39 39 32 26 55 48 48 62 48 89 61 53 75 64 70 81 99 83 84 91 101 89 87 86 101 93 84 82 68 74 46 69 37 63 41 43 47 47 27 48 55 62 62 79 121 120 122 119 122 125 36 84 163 193 192 174 184 178 181 180 176 176 195 189 193 183 177 64 63 54 51 47 57 59 60 61 66 66 88 231 199 159 132 144 154 123 134 136 112 82 71 46 45 44 35 33 30 29 41 46 57 51 95 48 72 57 71 86 86 68 57 89 74 98 77 66 70 63 78 84 57 57 61 45 41 34 34 39 33 41 41 50 58 63 87 99 122 122 118 121 112 127 68 110 181 186 176 166 173 189 185 179 173 188 196 195 190 191 171 61 59 58 59 52 58 60 65 72 64 66 46 231 188 209 156 132 160 152 122 134 124 93 101 86 59 60 55 43 32 38 34 26 45 86 67 64 43 51 49 65 53 60 52 66 56 65 64 50 53 51 66 60 34 43 41 25 35 30 30 42 42 41 56 65 61 86 98 125 113 124 124 125 114 181 103 122 206 200 175 179 179 184 177 183 186 190 200 204 194 193 184 66 63 58 60 62 60 65 67 66 72 67 70 139 219 194 214 136 142 160 150 130 139 131 113 97 86 65 57 46 46 49 34 36 44 39 68 22 61 49 25 51 30 29 51 55 42 35 51 40 39 43 29 51 45 28 34 42 47 54 60 60 54 71 84 76 84 106 119 126 131 127 124 125 120 202 157 88 220 226 201 176 188 180 183 186 185 179 191 193 189 193 188 68 64 56 58 62 61 65 64 64 69 67 61 46 208 190 217 229 125 145 167 148 136 138 118 107 99 80 65 67 53 32 39 37 54 48 51 42 39 38 31 37 39 35 42 31 44 38 34 29 46 28 52 48 36 43 36 44 48 60 74 75 72 79 80 84 98 116 132 123 129 129 129 129 119 161 237 61 217 241 222 186 183 192 192 181 180 182 187 184 191 193 189 72 57 54 67 71 73 72 69 69 71 72 75 69 152 202 197 238 225 138 146 159 132 130 118 119 97 89 82 66 60 49 46 42 38 38 41 41 58 46 57 38 40 46 35 23 38 30 41 33 39 28 33 34 34 43 54 38 54 56 69 82 99 99 98 104 127 131 125 126 128 132 127 130 137 150 229 126 190 217 234 203 173 197 192 183 182 188 178 187 199 195 190 62 70 63 70 69 68 74 72 64 72 71 64 68 80 211 186 210 243 226 131 151 142 124 142 127 121 104 88 89 78 71 66 65 46 45 51 57 50 41 43 33 36 38 37 37 34 29 32 40 41 31 38 44 52 55 55 42 60 64 64 69 104 113 105 99 115 121 129 131 132 134 130 131 115 150 215 211 162 210 237 212 153 193 200 189 185 174 180 190 197 186 182