P2
# Generated by OpenCV 4.2.0
92 112
255
124 117 111 106 121 98 89 104 84 87 93 79 55 60 121 96 99 93 44 42 84 108 101 71 79 102 108 77 43 87 121 87 56 33 23 19 44 71 79 87 77 64 50 42 37 34 32 31 32 38 43 53 65 69 72 78 82 100 101 111 88 101 109 97 94 78 69 68 78 68 68 80 73 49 59 49 58 86 68 105 136 90 83 66 61 113 90 82 81 92 115 97 116 107 83 92 100 71 66 80 89 87 76 55 62 100 102 80 73 49 52 109 127 98 80 96 114 100 65 38 47 76 63 39 26 24 23 38 67 84 88 74 62 51 40 35 35 36 35 34 41 50 57 71 79 83 91 101 111 116 116 111 87 115 116 103 98 84 70 74 89 81 63 76 81 60 57 44 56 72 77 95 125 94 100 57 54 95 85 88 56 74 124 99 93 77 74 74 59 59 70 77 87 73 62 77 96 89 79 76 53 76 129 121 75 75 101 100 82 48 21 36 50 38 20 20 31 31 29 38 75 95 90 70 48 36 33 31 32 37 38 41 52 69 86 99 108 116 121 128 134 130 120 97 102 124 127 113 111 101 79 70 100 92 67 87 76 73 57 42 42 47 72 88 93 86 107 40 57 68 82 80 47 69 107 105 82 73 62 53 59 89 82 66 69 71 88 97 86 89 86 53 94 125 80 55 73 78 56 38 31 51 81 69 36 19 26 51 41 32 38 71 102 89 55 38 35 33 35 32 35 43 49 62 81 90 106 124 128 133 147 145 148 132 123 122 123 129 130 121 121 110 86 76 98 94 85 87 79 76 68 50 30 33 65 79 63 81 60 23 49 66 83 89 67 51 92 95 71 56 55 69 87 82 69 73 62 84 109 89 65 78 61 73 81 54 66 91 73 39 21 41 84 93 56 27 25 38 67 37 33 43 42 72 59 45 36 39 43 45 42 41 45 53 67 86 104 120 136 141 151 159 155 156 158 148 137 140 138 134 134 128 119 117 88 84 93 91 90 82 90 85 66 64 40 29 64 77 65 61 33 33 45 62 61 77 87 54 58 82 51 67 80 85 72 62 67 74 100 108 82 49 61 60 66 76 54 69 93 60 29 27 72 104 71 31 22 35 27 40 32 25 27 25 30 38 41 38 40 44 51 55 54 59 67 75 89 107 129 143 149 158 166 161 161 165 161 156 158 153 143 143 141 139 131 122 101 99 89 88 93 89 95 89 68 59 59 45 49 75 54 50 51 52 41 59 51 54 74 56 54 60 65 78 71 59 58 50 44 78 80 48 42 52 60 72 86 66 72 65 41 27 46 85 86 45 24 25 41 33 26 25 26 27 28 29 36 42 43 47 51 65 70 76 82 89 92 93 111 132 149 159 172 173 172 171 176 172 162 162 165 156 155 154 151 149 142 134 122 121 104 89 96 97 94 91 81 74 64 66 53 58 61 46 70 72 41 66 62 50 58 57 51 64 68 64 49 46 46 46 42 45 38 56 62 61 64 89 79 61 52 24 32 72 88 64 34 26 28 41 40 32 37 34 33 35 36 44 53 56 71 83 87 98 98 101 103 101 106 116 135 152 164 176 183 181 181 185 184 179 173 169 162 159 161 159 158 157 153 145 142 137 118 102 106 98 99 97 96 90 76 69 62 63 69 59 75 94 51 72 62 53 51 62 50 59 59 51 46 43 50 47 40 46 58 58 57 65 78 78 57 45 30 46 98 88 55 30 28 32 38 52 45 47 45 41 40 44 61 75 78 85 96 100 111 121 119 112 110 115 127 145 159 176 187 188 186 191 190 189 183 178 181 179 171 165 164 163 160 160 161 154 158 156 142 122 111 95 97 98 103 108 87 82 69 74 68 84 87 98 82 82 72 74 65 76 65 58 45 48 49 49 42 43 48 48 44 44 58 63 66 54 42 32 38 74 85 48 32 35 34 38 50 62 61 52 44 48 57 76 98 95 97 104 106 119 129 127 125 126 133 148 161 175 183 190 192 194 193 194 194 187 184 180 182 177 174 171 168 165 165 162 165 159 164 164 157 141 119 99 104 106 100 116 93 83 67 79 75 77 103 109 115 82 76 80 82 82 85 59 41 46 45 36 33 38 41 41 50 51 50 43 50 42 32 33 59 68 42 37 43 40 43 51 60 64 58 54 54 70 93 105 109 105 99 111 126 132 141 139 140 150 166 176 181 186 190 192 191 193 191 191 189 189 183 178 180 178 173 174 173 169 167 165 169 166 166 169 167 153 136 121 115 112 99 106 96 86 61 76 89 93 91 114 128 104 97 83 85 96 93 68 43 47 43 37 35 40 36 36 42 47 37 37 39 34 38 43 40 35 42 46 43 45 56 64 70 59 56 67 80 100 109 113 115 110 108 134 143 143 145 148 158 171 181 186 189 190 191 191 193 194 194 193 192 190 189 183 181 181 179 179 177 172 168 170 171 170 169 172 167 164 152 138 134 133 115 99 87 82 67 64 85 89 81 85 119 127 100 103 96 99 101 91 47 51 42 36 38 31 32 31 38 36 38 37 36 40 43 40 38 45 51 46 48 62 70 72 66 65 71 82 99 109 113 129 133 135 131 139 141 142 147 159 170 186 194 194 192 195 194 195 195 196 195 194 195 192 191 187 187 188 188 183 182 179 172 173 171 170 173 171 166 163 162 153 144 134 129 114 97 82 68 60 72 81 74 66 70 123 104 94 98 98 98 106 54 51 40 39 35 27 33 30 37 43 39 40 44 45 41 41 47 53 50 51 61 72 78 74 75 77 88 105 112 125 135 141 145 147 145 142 143 156 157 163 178 191 193 191 193 195 197 195 196 200 199 197 198 197 193 190 189 191 191 188 190 186 176 174 176 176 176 168 164 159 156 155 150 141 124 114 110 89 77 62 60 76 58 62 48 71 107 92 97 97 91 105 43 40 39 37 23 28 28 35 43 46 42 46 49 44 45 50 55 57 50 59 73 85 85 89 93 92 113 130 139 146 149 153 157 151 147 150 158 165 167 174 181 183 182 184 187 188 189 192 196 193 196 197 199 197 199 194 194 194 193 191 190 182 174 174 175 175 175 169 160 162 159 152 148 142 137 124 111 91 69 63 50 53 59 50 51 41 68 90 96 104 95 101 39 39 45 37 22 27 28 41 45 49 47 51 49 47 58 56 57 55 57 72 92 96 101 108 107 122 141 149 153 153 150 156 164 163 161 169 174 173 177 181 184 187 187 190 194 193 192 194 197 195 195 197 199 198 193 195 200 198 195 193 189 183 175 174 171 173 173 167 163 156 163 157 152 138 132 122 106 97 73 58 54 45 47 43 41 35 40 70 76 91 102 90 42 38 40 27 23 28 35 46 48 51 52 53 48 56 63 56 54 61 72 95 107 107 116 112 126 144 150 154 153 159 161 161 166 167 171 177 171 172 176 174 179 182 186 187 189 194 195 192 193 194 193 193 192 196 199 197 196 194 193 190 187 181 174 172 173 175 169 166 158 152 149 149 146 146 139 124 98 86 81 62 44 45 46 40 31 32 28 40 65 74 93 91 38 36 32 25 23 29 40 45 49 55 55 50 54 69 62 57 59 77 99 110 109 118 120 127 145 147 151 157 159 164 165 161 171 171 173 171 170 171 173 173 176 180 185 184 188 190 189 191 192 189 190 188 185 190 193 193 193 191 190 188 186 181 170 167 172 171 169 165 159 155 153 144 131 128 123 118 104 93 71 62 52 37 36 41 36 29 27 29 45 61 72 86 31 31 25 28 25 30 39 44 50 59 56 52 64 68 62 60 75 97 111 110 113 115 126 140 142 143 148 162 167 162 159 164 169 171 166 167 170 172 173 175 176 178 181 180 184 186 186 189 189 189 186 189 193 187 188 187 183 185 186 185 182 178 170 170 172 169 167 163 157 155 159 154 133 124 116 108 97 87 81 58 48 44 33 28 33 30 26 25 36 46 51 73 27 26 22 22 26 32 41 50 55 60 57 59 67 63 61 72 89 100 103 106 110 118 135 141 137 144 155 165 169 168 163 165 170 170 164 165 169 166 173 171 175 178 179 182 183 182 186 187 187 190 192 191 191 187 182 180 183 184 181 180 179 175 171 173 173 173 171 166 160 157 150 143 135 132 115 97 89 73 65 54 49 43 37 30 27 28 28 25 32 47 42 63 25 24 20 22 28 35 42 47 55 59 60 67 68 63 68 86 98 99 103 115 120 134 140 141 140 149 155 164 167 171 171 170 174 171 165 166 170 167 170 170 175 181 182 180 177 180 180 189 188 188 192 190 190 184 181 181 182 180 181 184 182 179 177 172 174 175 173 166 164 159 149 138 123 111 98 88 81 69 63 56 45 40 41 37 30 26 28 26 27 39 40 46 25 21 21 28 31 37 41 46 57 60 67 72 68 71 94 110 108 105 113 123 138 140 142 146 144 149 157 164 160 163 169 166 172 171 169 164 165 165 168 173 179 181 181 181 175 174 175 182 185 186 186 186 187 184 181 178 177 179 179 179 179 178 176 175 175 176 170 169 170 167 159 149 133 115 95 77 72 70 59 48 42 36 32 34 34 28 28 30 27 34 37 41 23 20 28 29 33 36 40 48 57 63 75 74 75 89 107 110 109 112 120 125 136 139 141 147 147 152 157 163 167 163 164 165 169 172 171 169 166 167 162 168 174 176 177 177 175 177 176 177 185 187 188 188 188 190 187 185 186 186 187 183 179 176 175 172 172 171 169 166 165 166 163 155 144 130 112 98 86 75 60 50 43 36 36 31 32 32 28 30 29 35 42 39 19 28 30 30 34 35 39 48 56 69 77 78 86 98 100 99 101 107 108 114 122 133 137 133 140 149 152 161 167 164 162 164 166 168 171 171 171 171 170 172 183 187 183 183 181 184 185 190 189 186 187 190 187 188 188 185 186 186 188 182 179 176 177 174 172 169 167 160 165 168 165 155 148 132 113 95 77 66 59 48 42 39 32 31 30 31 30 31 33 34 41 36 29 34 26 29 34 36 42 50 60 73 80 84 90 89 89 98 116 125 126 128 130 132 135 131 133 143 152 163 167 169 165 165 166 167 171 171 169 170 168 173 179 185 186 180 177 185 192 190 190 190 190 190 193 188 187 186 189 190 187 182 180 177 174 170 170 166 161 156 165 165 160 153 147 139 123 110 88 70 61 54 39 35 31 28 30 27 28 30 32 32 35 37 38 29 27 31 33 36 41 50 63 75 80 84 88 95 113 125 135 137 140 146 149 154 152 150 148 149 154 161 170 173 175 175 173 175 174 172 171 170 171 173 179 185 179 176 180 185 190 189 193 192 191 191 191 192 189 187 190 192 188 184 182 178 172 168 162 162 161 160 164 164 161 161 153 143 132 121 102 82 65 57 48 39 30 27 28 30 27 28 33 28 34 41 32 26 28 33 35 36 40 49 64 73 77 90 96 104 112 115 119 125 130 140 143 150 156 155 151 151 157 161 169 172 176 175 174 174 172 171 171 166 171 173 174 178 179 181 186 187 189 194 194 192 192 189 192 192 189 190 193 192 189 186 184 179 173 164 161 160 162 163 164 163 160 162 160 154 141 130 118 97 72 59 48 42 33 28 27 28 28 29 35 33 34 38 29 24 30 36 34 36 40 49 68 74 81 92 93 94 93 101 110 117 125 133 138 143 151 158 157 155 160 163 160 168 176 177 176 176 175 172 165 163 172 170 176 180 182 185 190 192 191 193 192 189 191 192 193 192 192 194 193 192 191 186 182 180 173 165 166 165 166 163 163 164 159 157 157 156 151 144 139 127 108 77 51 40 36 30 28 29 26 26 32 35 37 43 26 23 32 35 36 37 38 50 69 76 85 88 85 86 106 124 132 130 127 130 135 136 146 152 154 154 159 163 159 167 176 179 179 177 176 173 170 165 167 166 177 186 185 190 192 185 182 182 188 190 195 195 196 198 199 197 197 196 195 189 185 180 176 175 174 168 169 168 164 161 156 155 155 153 152 148 150 148 146 128 84 53 45 41 34 30 33 31 33 38 43 47 23 28 33 32 38 36 40 51 70 81 86 86 84 103 124 132 141 143 143 144 145 144 147 151 153 152 154 158 162 170 175 178 182 177 172 175 178 167 159 164 174 185 182 179 182 185 185 185 191 197 198 195 193 197 196 195 195 195 192 188 183 182 177 174 177 176 170 166 164 158 155 154 149 150 150 147 151 154 154 149 114 68 43 38 41 37 34 36 35 44 39 42 22 31 30 33 35 34 40 52 71 82 87 89 98 122 126 128 133 139 134 137 143 148 156 155 161 154 145 149 159 169 170 176 183 183 171 171 178 174 155 162 169 175 177 176 181 186 189 188 188 195 195 194 192 193 190 191 194 191 184 183 176 173 173 174 175 174 172 166 165 158 152 149 147 144 146 148 151 153 152 151 131 94 54 33 37 37 35 39 38 44 42 41 26 29 29 32 30 32 41 63 72 80 84 96 108 116 115 116 119 125 125 126 134 140 148 153 158 158 154 149 151 163 165 171 181 180 177 170 171 176 154 152 167 172 174 169 174 181 185 181 180 184 183 186 188 184 181 184 185 179 174 171 165 157 159 164 167 167 170 170 168 161 152 148 149 144 145 149 150 154 156 156 146 120 83 45 31 37 37 41 39 36 39 45 30 31 31 25 25 32 43 67 76 81 93 99 90 87 92 95 99 99 109 118 121 128 135 145 148 150 153 154 154 157 159 164 170 172 172 167 171 174 161 147 155 162 164 159 162 168 174 167 155 172 156 156 154 154 160 162 158 153 149 142 144 141 139 145 149 151 156 158 164 162 152 149 150 147 144 145 151 155 155 158 153 132 104 72 42 31 39 41 43 39 38 42 36 33 27 26 25 33 49 70 77 87 100 82 74 67 64 64 64 66 75 82 94 106 111 121 133 141 142 145 150 154 153 157 160 165 165 165 168 168 165 148 149 152 152 152 153 146 153 140 131 134 107 108 106 108 116 119 122 127 130 127 127 128 118 127 141 140 139 134 141 155 154 148 148 152 143 145 153 157 156 155 159 149 132 96 59 40 39 42 41 40 40 40 33 31 27 24 24 36 59 73 78 94 83 66 55 50 50 46 45 46 51 55 64 77 82 84 104 119 121 130 132 141 148 152 153 155 156 159 161 159 160 147 141 145 139 138 138 130 123 110 103 97 84 78 71 80 84 79 88 103 109 115 111 115 120 120 123 124 121 117 122 128 143 146 145 145 143 149 153 158 157 156 157 149 143 122 83 59 46 46 41 41 45 41 36 28 23 21 25 40 66 76 85 88 71 54 47 44 43 42 39 40 43 42 42 52 59 62 69 86 98 110 116 122 134 143 146 150 151 150 155 157 155 141 133 135 126 118 113 110 100 93 82 84 73 59 55 59 54 55 62 78 87 84 83 91 98 105 106 104 104 102 100 108 130 134 137 141 145 151 152 157 157 158 157 154 148 133 121 92 50 45 43 35 46 48 42 29 22 24 27 46 70 81 89 77 61 54 58 58 60 59 51 48 49 48 46 46 47 53 58 64 79 90 100 102 116 134 137 138 146 149 151 152 152 135 124 126 121 111 103 96 92 88 79 79 68 57 54 51 49 51 54 56 61 63 68 75 78 84 89 86 85 87 96 108 124 121 128 138 141 146 150 153 158 156 154 152 147 146 136 102 85 52 41 35 43 52 41 32 26 29 30 52 73 90 92 71 60 61 73 75 80 79 73 68 60 56 52 48 48 51 55 55 64 74 83 90 103 124 128 127 137 152 157 154 152 137 118 117 116 108 98 88 83 75 70 67 61 57 55 54 55 54 53 53 64 84 106 110 114 118 116 110 104 104 108 108 110 124 133 143 139 145 146 149 154 153 155 155 144 135 142 124 101 78 54 38 39 49 40 33 33 34 32 52 77 91 86 67 60 68 78 79 80 77 73 71 65 60 54 50 46 47 51 52 55 61 70 79 91 108 114 115 125 143 154 155 149 137 118 107 104 99 85 73 71 65 61 58 55 55 50 45 44 43 41 45 58 78 87 97 118 134 146 146 140 134 123 118 128 131 134 141 138 145 150 151 152 152 151 153 142 137 127 125 108 92 84 44 44 60 43 37 40 33 27 48 80 86 78 68 64 68 72 73 73 77 79 72 61 50 43 40 41 44 47 50 52 54 59 66 77 92 100 103 120 144 158 156 149 135 118 102 87 79 74 67 64 61 58 56 54 42 30 31 30 23 21 24 22 25 30 33 40 56 80 108 127 144 141 134 134 139 140 130 131 144 152 154 156 152 150 151 142 132 131 124 112 94 76 73 73 75 42 44 41 33 27 49 82 96 75 62 64 63 69 74 79 74 63 53 49 49 49 43 31 28 35 44 49 49 52 55 60 70 85 99 117 138 158 165 160 153 136 118 95 78 71 66 61 59 56 53 40 30 37 37 24 17 15 29 24 19 48 57 42 41 39 39 48 88 128 136 138 139 134 139 143 146 150 153 153 149 150 149 144 140 122 128 107 96 76 83 78 94 42 47 44 33 28 50 87 102 75 59 60 66 77 80 62 51 49 45 40 39 40 49 54 44 29 25 36 46 48 50 53 59 70 87 111 141 160 175 174 167 158 143 122 94 68 57 53 52 51 42 34 43 46 44 30 27 13 13 32 30 90 132 113 77 63 65 50 39 73 121 132 130 141 143 150 148 152 154 154 150 151 151 147 140 131 117 96 100 81 86 89 100 45 46 45 35 39 57 91 100 78 61 61 69 77 58 48 44 35 24 21 16 46 37 38 49 50 37 24 32 43 46 47 51 56 76 111 142 163 176 180 179 175 162 145 123 89 63 51 47 42 38 46 43 43 79 65 50 36 32 43 69 148 155 146 132 124 115 106 82 67 76 103 127 140 147 147 148 152 154 154 153 150 151 153 144 137 126 101 85 85 76 122 124 45 43 41 38 45 64 88 93 75 63 67 72 58 48 44 33 38 24 23 10 49 42 44 67 55 47 45 31 30 39 43 46 48 68 112 140 166 181 185 188 182 169 156 150 144 121 86 67 73 74 53 45 80 128 119 77 75 80 100 140 169 161 141 147 151 137 134 139 131 118 121 138 152 156 150 153 157 154 153 151 153 155 153 146 132 116 121 96 85 85 116 162 43 44 46 50 47 69 89 90 73 67 72 68 49 45 31 41 52 25 27 16 12 29 54 108 93 57 43 41 36 33 37 44 45 53 103 141 167 184 184 185 178 169 160 160 162 153 145 147 160 94 86 107 126 138 139 132 125 146 141 148 153 160 156 155 151 133 133 159 169 162 158 157 157 157 155 160 165 157 155 154 153 154 151 139 130 123 107 108 88 81 95 145 45 43 55 50 53 74 87 84 72 69 74 64 50 38 33 45 65 40 42 32 37 48 96 134 117 86 54 37 37 41 45 47 48 53 109 147 164 178 181 182 176 170 163 159 154 164 182 188 171 139 140 132 118 112 110 111 120 132 139 152 168 167 160 145 131 130 148 157 160 167 167 159 158 157 156 167 169 160 158 156 155 153 148 139 127 133 106 98 95 74 99 134 46 49 57 59 59 76 87 80 73 69 68 59 54 50 66 91 102 87 59 49 48 84 139 148 135 123 102 81 65 50 63 72 64 76 136 156 164 175 183 182 177 172 165 158 158 163 181 178 173 173 156 135 108 94 101 115 131 138 141 148 148 144 133 124 124 132 145 156 159 165 166 163 163 162 164 169 167 163 161 157 153 153 149 139 129 113 107 103 100 78 101 142 56 65 61 56 65 80 85 79 77 79 66 62 63 63 86 105 112 120 116 114 113 125 123 122 127 128 128 134 116 99 95 97 81 111 152 164 165 173 183 181 178 169 163 158 160 166 176 161 152 150 135 123 111 88 75 77 84 89 85 89 94 92 98 107 126 145 147 157 164 166 165 164 166 166 169 172 167 164 165 161 152 151 153 143 125 113 121 118 114 98 109 140 58 69 58 65 70 77 86 81 83 83 75 79 76 67 85 97 106 108 110 115 113 118 116 121 111 102 108 122 116 109 105 100 100 133 157 167 169 172 180 181 181 177 170 162 159 168 175 173 155 135 131 128 123 120 110 91 78 70 69 71 77 90 109 126 145 162 169 170 166 167 166 166 164 167 174 173 166 160 164 161 154 149 154 147 125 108 111 116 113 116 133 131 47 67 78 65 60 79 85 85 85 88 91 90 76 75 73 80 95 103 107 112 112 113 104 97 97 99 104 106 105 110 108 105 114 133 156 169 173 172 179 183 185 187 179 169 157 167 177 180 187 175 148 141 141 142 145 148 145 143 141 143 150 156 164 170 173 168 168 174 175 172 168 168 166 171 175 174 165 159 159 158 156 152 150 147 129 101 92 103 115 115 140 128 45 73 97 57 65 83 88 88 88 96 97 86 80 79 66 63 65 69 70 72 74 77 81 85 94 104 112 111 107 115 120 111 111 129 155 168 172 171 174 180 192 191 171 163 157 162 174 182 188 195 187 174 161 153 153 156 161 166 167 167 171 177 182 183 179 178 175 173 174 174 171 166 169 172 174 173 167 159 160 157 156 153 149 142 131 108 92 102 113 117 141 129 50 74 100 62 70 88 91 94 95 93 91 89 94 84 73 70 58 55 58 61 65 72 87 100 115 125 126 123 125 125 122 108 104 123 146 164 168 169 172 180 193 176 156 153 158 163 168 175 183 197 196 192 190 182 170 173 168 173 174 172 176 183 182 180 184 185 182 176 176 175 174 173 172 173 169 169 164 161 160 159 156 153 147 138 121 106 103 94 99 127 143 137 60 78 105 66 70 90 96 96 96 90 92 102 99 99 103 99 90 84 84 87 94 105 113 120 128 135 140 140 130 123 117 100 101 120 142 159 166 168 174 182 181 167 155 158 164 163 165 170 177 193 190 183 195 197 191 182 178 176 178 177 178 182 183 181 186 186 184 183 180 180 177 176 173 175 170 166 164 163 161 160 152 150 149 135 119 107 88 92 99 120 148 151 72 75 103 74 74 91 95 97 100 103 107 108 111 114 117 116 120 121 124 123 126 132 127 127 133 142 148 141 126 118 107 97 103 120 142 159 165 162 171 176 174 164 157 166 166 165 165 169 175 188 180 168 191 199 190 190 183 179 181 183 187 185 183 185 185 186 188 188 184 180 179 179 175 172 171 166 162 163 158 153 152 149 151 141 126 113 91 101 95 120 148 159 78 81 89 80 84 93 97 105 110 121 120 114 120 119 120 127 132 135 132 129 130 132 132 134 138 142 142 134 121 114 101 95 104 122 138 158 162 162 174 175 168 160 156 164 168 165 162 165 173 180 190 191 195 192 169 177 192 190 186 184 189 189 188 188 190 189 186 183 182 185 180 176 175 177 174 166 160 159 155 149 150 146 146 139 134 110 100 102 99 131 149 165 81 85 84 73 84 97 104 108 110 124 124 121 117 124 133 136 138 136 133 135 133 136 138 141 143 142 140 130 119 110 96 99 109 121 136 151 163 167 175 179 166 156 161 164 168 166 162 163 171 178 189 196 196 191 166 175 196 195 193 194 194 192 192 192 193 188 185 182 182 183 181 174 172 176 173 165 161 157 154 151 151 146 138 131 127 96 88 103 100 133 150 171 82 86 88 73 78 105 112 106 118 134 128 118 117 129 134 137 141 141 140 140 139 140 146 147 145 144 140 125 117 107 97 106 113 123 138 152 163 171 176 175 164 160 161 161 164 166 167 168 170 174 184 194 197 195 191 194 193 195 195 198 198 197 195 193 188 182 180 179 176 178 178 173 172 172 168 165 161 158 151 151 148 147 137 132 113 102 107 94 96 142 155 175 83 82 96 72 79 116 121 117 126 131 129 120 122 128 134 139 140 142 146 142 146 150 153 147 145 145 133 124 118 103 105 112 113 118 139 158 170 176 178 177 167 161 163 159 162 166 165 167 169 172 180 188 192 194 193 194 194 196 197 197 196 194 196 192 188 181 176 177 178 179 177 176 174 171 166 162 160 160 150 145 147 140 131 136 105 96 89 76 106 141 152 170 87 80 86 71 90 125 128 124 125 122 122 127 122 128 131 138 142 144 149 150 153 156 153 149 145 140 127 122 108 98 111 111 113 118 137 158 172 184 185 188 180 171 166 164 158 161 163 163 166 173 180 183 187 190 191 193 194 197 197 194 193 193 194 189 188 183 181 180 181 178 173 172 171 169 163 158 157 157 150 145 143 135 134 130 103 89 84 94 104 142 155 168 88 82 80 76 98 135 132 118 125 122 117 123 122 121 128 136 142 149 154 158 159 158 153 149 145 134 126 118 100 99 110 110 112 117 138 153 166 185 190 186 180 183 176 169 161 151 148 156 165 168 177 185 185 188 186 191 193 195 195 193 194 193 192 190 187 185 182 181 178 176 176 171 167 163 163 162 155 155 150 145 139 128 130 127 97 86 88 90 98 144 164 167 92 91 79 78 100 133 124 117 120 118 115 122 118 117 128 135 143 148 153 157 158 156 153 150 145 134 127 118 105 102 109 107 110 113 129 146 168 176 180 176 171 173 170 172 166 156 147 154 162 161 166 179 188 187 188 191 195 194 195 194 194 191 190 190 189 183 181 182 178 175 171 166 163 159 159 157 150 150 148 139 131 129 130 126 95 79 83 89 99 136 163 164 91 88 83 78 90 129 119 119 113 115 118 118 118 122 126 134 141 146 150 155 153 150 151 149 144 136 129 124 113 100 104 102 104 115 126 149 168 173 169 168 165 166 177 180 171 161 154 155 158 159 166 170 172 182 190 191 195 193 194 192 191 191 187 185 186 184 179 176 177 175 170 161 157 155 154 152 149 146 141 135 129 130 126 113 91 85 73 76 97 128 151 155 88 82 77 84 88 127 123 109 108 113 114 116 123 123 125 132 138 146 150 153 153 149 146 143 141 135 132 125 107 100 103 101 103 117 135 160 167 162 160 160 161 165 172 177 178 165 154 152 155 158 160 168 166 168 178 188 192 192 191 190 191 190 186 184 179 179 177 175 173 168 169 163 156 158 154 147 145 143 139 135 131 128 120 104 91 92 76 77 102 114 136 152 114 81 72 74 82 121 118 108 109 106 118 122 126 121 125 136 139 145 148 152 148 146 140 142 143 134 127 116 100 106 106 102 110 133 151 166 181 180 164 158 159 162 164 168 172 173 159 149 153 150 153 168 174 164 164 175 185 191 189 188 187 184 184 178 178 177 173 172 167 163 164 159 156 155 154 149 144 142 138 136 129 124 120 103 100 92 78 74 99 113 134 150 197 123 56 62 75 108 111 104 99 102 117 117 121 120 124 128 137 141 144 148 143 140 137 138 140 130 120 101 98 110 106 103 121 146 150 150 182 205 185 164 164 158 164 171 172 164 152 143 144 140 143 162 173 172 160 161 173 178 184 188 187 182 181 181 181 172 170 171 164 162 162 155 155 152 152 147 146 143 142 135 126 119 114 95 100 88 73 79 101 117 133 156 183 190 117 97 63 96 109 93 93 100 103 107 112 116 118 123 131 138 140 143 141 137 137 132 132 120 111 90 88 102 100 100 127 142 143 137 142 167 188 179 167 156 153 152 152 147 138 134 133 132 134 157 169 175 172 157 160 172 179 181 182 181 179 175 172 172 170 168 165 162 157 155 154 149 148 148 146 141 143 137 119 115 122 103 97 79 72 87 107 106 131 167 124 157 189 167 76 83 107 89 87 89 95 99 107 113 118 124 128 134 137 134 137 135 134 136 124 114 103 80 72 82 83 85 112 127 125 119 115 129 159 167 155 137 128 123 107 94 97 110 117 119 128 156 169 175 174 163 151 160 174 179 179 178 176 171 167 168 166 163 165 163 153 157 157 151 150 144 145 144 143 138 127 120 125 105 94 80 80 97 101 79 119 159 103 164 171 177 105 63 98 84 85 88 94 98 101 107 115 120 125 132 132 130 134 133 133 128 113 109 103 76 57 54 62 63 71 95 104 101 85 84 110 119 106 96 83 55 27 25 51 72 94 104 128 170 174 174 172 169 152 153 162 172 178 175 175 171 170 169 165 164 163 160 156 153 153 155 150 146 145 140 143 135 128 132 128 118 107 92 92 95 91 76 87 124 154 177 155 144 90 68 93 83 79 83 89 93 98 106 111 117 123 125 130 136 135 137 137 120 108 106 97 69 48 41 33 39 51 59 66 71 60 55 60 75 72 46 24 13 13 13 31 52 67 92 147 181 177 175 175 175 164 151 157 163 174 176 173 171 168 163 155 157 157 157 158 155 154 152 151 152 150 146 141 140 132 130 130 125 117 106 92 90 80 140 139 97 200 173 139 108 77 69 85 83 78 79 86 91 99 105 110 113 116 122 126 128 133 139 131 114 109 106 94 67 37 31 23 18 26 42 48 49 49 49 51 52 38 25 25 22 25 27 31 50 78 131 173 178 173 173 173 174 173 157 150 159 171 175 172 166 164 161 160 159 155 155 159 156 157 153 149 151 153 148 143 139 134 135 117 132 128 117 98 83 86 168 191 180 179 157 127 100 75 60 74 87 79 81 83 84 90 103 108 106 110 118 124 125 134 137 120 109 111 104 89 72 45 30 26 22 20 21 32 39 38 39 42 37 29 32 43 54 71 92 102 110 140 170 170 168 176 177 173 173 174 169 152 151 159 170 170 167 165 163 163 162 158 152 153 154 156 156 151 150 153 147 148 147 137 136 127 133 133 123 110 75 97 181 181 185 137 126 114 96 68 63 94 95 75 82 82 84 89 97 104 109 110 112 115 124 128 127 116 109 109 105 89 71 53 39 27 22 24 23 24 21 19 21 24 26 29 52 88 101 106 115 123 135 150 165 168 174 178 179 177 175 172 173 166 149 149 159 166 165 165 163 162 163 156 153 156 154 157 160 156 150 151 147 143 144 140 133 135 132 131 112 120 75 103 182 177 180 95 97 91 79 65 68 90 84 79 82 79 80 85 93 101 106 105 108 98 112 125 117 113 111 106 102 91 70 58 49 35 24 20 24 23 19 22 24 20 21 33 69 99 101 102 109 119 141 145 146 167 173 171 174 174 172 169 166 170 166 156 154 155 160 161 162 161 157 154 153 152 155 154 158 156 152 153 149 143 136 139 134 134 118 128 112 111 72 107 177 174 176 80 67 66 62 50 51 75 83 80 83 79 81 82 92 98 102 106 106 109 118 120 117 109 102 96 93 88 68 60 51 46 34 28 24 22 22 32 26 23 22 37 81 103 93 93 106 122 124 132 132 160 169 161 173 168 160 170 159 156 168 169 162 161 161 159 157 157 154 153 151 149 155 152 151 155 153 156 153 149 141 136 127 135 121 126 116 113 68 111 174 171 171 154 125 100 91 99 124 105 85 84 84 83 79 78 87 95 103 105 102 109 119 120 116 100 93 93 95 83 72 58 44 44 39 39 28 19 28 27 27 23 38 57 77 108 92 87 96 111 112 107 121 139 153 161 169 161 148 157 150 145 152 164 168 158 158 163 155 148 150 150 152 148 151 150 151 152 153 153 154 150 137 138 125 137 124 114 112 126 68 121 170 165 167 167 169 168 168 171 173 122 87 88 88 82 78 75 82 90 99 103 99 107 113 109 107 99 90 89 89 75 74 61 43 38 36 48 42 35 35 39 44 43 58 74 72 96 88 84 82 96 109 113 118 121 139 143 153 144 139 139 141 147 138 143 160 157 151 157 158 151 149 152 151 146 145 150 155 154 155 148 147 142 135 139 128 136 118 125 106 118 90 126 164 160 161 157 158 157 159 158 162 123 85 82 86 87 77 74 75 83 89 93 95 106 109 102 90 86 78 72 77 78 62 49 42 41 41 46 43 53 61 60 73 91 87 57 78 90 89 82 85 91 105 120 117 106 112 121 133 135 123 127 122 140 146 133 137 152 152 152 151 150 149 146 149 152 148 152 155 156 151 141 137 135 137 135 133 123 110 121 122 128 106 129 155 153 154 151 152 151 151 151 154 132 89 86 88 96 83 77 73 79 84 89 98 103 98 88 72 74 67 73 77 70 54 45 42 47 46 54 61 83 95 98 94 119 113 80 82 95 100 97 100 90 101 110 99 93 104 107 113 120 120 114 122 129 124 146 135 126 135 152 154 148 150 141 146 150 151 154 153 152 153 141 139 134 125 135 135 113 115 107 115 132 111 129 146 145 145 145 144 146 146 146 151 129 84 88 85 93 85 76 75 78 82 87 91 90 86 82 66 68 71 87 71 65 57 57 56 64 72 77 82 96 112 121 126 131 112 95 97 118 131 127 106 101 114 109 101 100 113 120 105 108 111 107 113 121 112 124 132 125 116 135 141 146 146 139 134 146 156 153 152 145 150 139 135 133 119 138 140 119 118 99 100 111 108 124 137 137 137 139 139 138 139 140 142 131 92 86 80 82 86 77 71 74 75 82 88 88 88 72 71 63 69 71 57 72 74 74 69 83 86 90 87 88 99 113 127 127 114 112 111 123 135 127 119 123 121 117 121 117 123 122 108 110 107 98 94 89 100 116 114 112 131 137 136 143 138 135 138 145 146 146 147 142 145 139 128 127 123 137 139 120 116 118 95 100 105 111 130 129 129 132 133 132 133 134 135 137 101 82 77 83 83 77 71 70 70 76 80 85 90 73 62 60 74 49 45 56 72 85 70 74 66 61 63 63 64 67 79 97 109 96 86 80 75 73 84 88 87 103 106 112 128 127 113 104 104 82 60 69 72 79 110 113 115 127 137 142 137 135 142 147 140 146 154 153 141 143 123 122 124 136 137 122 114 118 93 97 107 94 119 124 121 127 127 127 127 127 132 130 102 81 80 84 79 77 73 69 69 70 74 79 70 62 60 61 48 42 48 51 64 67 53 44 43 49 54 57 59 56 52 56 65 60 51 50 58 63 60 53 50 55 57 68 75 85 81 81 70 62 45 49 64 77 90 109 103 114 123 135 137 138 144 137 141 143 152 152 145 136 118 134 125 134 140 124 120 104 97 95 108 92 102 114 111 123 123 123 123 124 124 125 104 76 75 79 79 83 78 73 68 67 68 75 65 59 51 46 37 40 44 45 40 34 32 30 30 37 39 41 51 50 48 46 48 49 50 53 53 59 57 56 53 51 56 52 50 45 47 53 49 43 32 26 49 66 71 97 117 123 128 125 124 122 143 135 140 145 143 147 154 134 122 140 133 131 142 130 110 94 105 103 108 102 94 104 107 122 121 123 122 122 122 126 114 71 69 73 80 83 78 76 69 64 63 72 69 59 51 54 41 31 27 23 19 20 35 58 72 88 91 94 101 114 120 118 123 122 122 125 126 138 137 137 139 137 137 135 122 120 123 126 128 125 106 76 73 76 74 90 119 123 127 120 128 116 125 131 136 148 147 142 149 140 123 137 129 128 136 132 106 93 107 104 110 101 96 99 102 122 122 122 122 121 122 130 117 70 66 71 77 79 71 74 77 71 65 70 69 63 66 59 51 45 32 28 35 54 82 102 116 124 125 128 132 145 151 153 153 147 146 150 156 160 165 161 161 164 156 158 154 148 149 149 150 150 147 140 110 104 108 99 131 136 124 121 130 132 112 129 144 148 146 136 142 134 121 131 124 123 133 129 101 96 109 110 109 100 97 98 97 122 122 122 122 122 123 127 108 71 67 67 75 77 75 76 78 70 62 66 66 76 79 67 80 79 65 64 70 78 89 97 113 118 121 127 135 144 148 144 146 153 151 160 159 165 164 161 164 160 153 153 150 143 147 152 152 153 151 150 131 121 120 109 129 140 132 118 112 119 121 121 138 155 141 142 140 128 130 130 115 124 117 114 96 103 111 108 105 100 100 95 95 122 122 123 122 123 123 125 101 62 61 64 76 68 75 78 78 67 64 67 70 84 83 85 87 80 82 75 77 82 95 96 105 110 117 115 119 128 122 121 121 125 127 134 134 135 138 143 143 141 148 151 150 148 148 152 152 147 147 148 148 135 128 118 123 131 134 118 109 112 123 128 122 138 138 145 129 127 128 126 120 122 102 95 80 105 107 103 106 101 98 93 93 122 122 123 122 122 122 126 106 65 57 64 71 66 71 75 74 72 64 65 68 84 87 84 76 76 78 85 83 85 98 107 107 111 109 95 95 101 100 103 96 95 96 103 107 108 115 120 110 114 133 140 147 143 141 150 152 148 149 154 152 143 126 116 115 123 118 106 104 114 121 144 149 120 130 136 123 131 121 118 126 110 88 82 82 104 108 105 105 97 95 95 95 122 122 121 123 123 121 122 118 77 54 65 66 70 74 70 69 68 68 70 73 83 81 75 75 91 79 75 79 83 92 100 105 98 89 76 81 84 87 89 82 80 85 91 92 105 102 99 97 107 121 128 131 130 134 142 142 150 155 155 148 136 122 115 114 125 113 94 86 102 125 141 143 128 119 134 127 128 113 101 134 111 94 91 73 102 114 109 103 97 97 96 96 122 123 123 123 122 123 122 126 92 52 57 66 64 74 73 66 62 64 64 73 73 73 77 85 90 82 70 72 72 73 80 88 82 82 67 74 80 84 97 85 70 83 84 91 81 86 88 92 114 123 122 124 126 132 139 147 149 149 150 146 144 143 124 114 119 109 95 92 111 120 132 131 134 131 118 133 122 112 99 121 102 95 89 82 106 116 108 102 100 97 97 96 122 123 122 122 122 121 121 124 109 60 54 65 61 64 73 69 61 60 53 60 63 69 77 84 88 83 76 75 68 64 75 72 66 72 64 66 72 83 95 86 79 77 77 80 79 74 85 103 113 118 122 134 132 146 153 149 152 149 147 141 138 144 129 119 112 107 95 96 117 125 128 125 130 149 115 121 121 106 100 102 88 101 72 82 106 110 106 103 102 100 96 96 122 121 122 122 122 121 121 123 123 67 44 51 59 59 65 66 59 51 48 49 54 63 72 72 82 78 76 77 75 71 69 66 65 64 67 72 72 75 86 78 77 87 81 76 71 84 103 120 121 126 133 140 144 147 154 153 153 155 144 132 128 138 138 119 118 112 97 100 113 120 120 124 128 133 120 110 116 99 91 88 72 82 70 78 108 112 108 101 98 100 114 101 122 123 122 122 121 121 121 122 123 80 42 41 54 55 55 58 55 49 48 44 51 58 60 73 80 76 74 76 80 73 71 76 69 64 77 78 72 86 79 74 73 94 97 86 85 97 117 132 133 136 147 148 152 154 153 156 156 157 141 124 129 137 134 122 105 105 102 109 119 119 109 122 124 117 108 94 113 97 80 80 70 53 71 102 109 111 105 100 98 97 103 100 122 122 122 122 122 123 121 121 124 104 55 42 49 56 48 47 50 54 54 50 54 53 61 77 75 76 78 78 77 74 74 80 73 76 82 76 89 78 81 76 81 99 107 116 119 133 136 151 158 155 155 154 154 156 151 149 150 144 125 122 123 117 111 117 100 102 112 119 114 116 114 108 125 114 106 85 90 84 71 72 60 47 81 112 113 108 105 102 98 97 96 95 122 122 122 122 122 122 122 121 122 124 83 42 41 48 39 42 49 48 50 52 52 51 58 72 77 89 84 83 79 80 86 85 86 96 93 94 98 103 113 98 107 113 113 128 132 144 160 163 165 166 163 158 161 155 146 146 140 132 131 124 115 114 110 112 107 92 116 115 129 109 99 108 111 105 102 87 83 75 65 59 40 60 95 105 111 108 102 100 97 96 97 96 122 122 122 122 122 122 122 122 123 127 84 38 28 40 39 42 48 43 45 48 50 47 58 74 83 96 71 71 85 88 91 95 102 102 105 106 100 104 122 122 112 123 122 135 148 134 157 162 163 166 166 158 158 150 142 133 131 127 129 128 130 139 132 123 114 97 108 124 132 104 74 86 94 95 79 76 69 56 58 50 57 92 101 102 112 107 99 98 96 96 96 95 123 123 123 123 123 122 123 123 127 100 47 36 26 32 40 37 40 36 37 45 50 41 59 81 73 64 70 80 91 87 88 103 103 103 103 99 99 110 118 125 128 134 144 140 155 147 159 154 155 171 159 148 140 145 144 136 145 134 101 103 137 145 124 118 104 87 97 122 112 101 82 74 78 85 72 65 59 37 47 52 83 102 105 111 115 110 100 98 98 96 96 94 121 124 123 123 123 123 123 125 117 56 32 32 25 28 41 30 32 31 33 45 46 37 63 69 62 63 75 83 89 87 100 94 100 108 109 99 101 119 128 117 112 134 145 148 148 162 164 154 156 152 156 155 147 138 133 134 143 143 115 106 125 117 112 115 110 87 79 91 106 102 79 66 65 62 63 63 53 30 51 80 89 94 103 111 116 113 89 65 93 94 85 78 121 123 123 123 123 123 123 128 82 32 29 20 19 33 33 25 28 29 32 38 39 45 53 52 56 61 70 67 78 89 97 105 97 88 103 107 111 110 115 117 105 116 148 152 149 150 153 155 155 144 141 146 148 130 125 132 131 123 124 114 118 125 101 121 117 87 74 68 81 76 76 54 48 39 32 39 37 42 64 83 88 103 106 110 113 110 80 31 53 73 68 68 123 123 123 123 123 123 126 115 45 26 22 15 18 48 33 21 25 31 34 38 44 45 41 47 58 54 58 63 74 77 91 94 83 89 105 115 126 123 120 130 128 128 144 143 133 130 156 150 145 156 139 114 139 134 127 136 127 114 112 100 95 99 109 97 102 75 62 56 50 47 53 43 35 27 26 36 56 72 79 89 94 100 109 117 109 105 70 25 30 46 63 64 122 122 123 122 124 124 125 74 29 27 20 15 15 57 46 21 20 26 28 36 39 38 44 44 47 53 55 62 67 66 76 73 95 101 101 112 120 117 130 136 127 131 133 131 129 133 156 139 137 134 119 113 114 125 135 137 128 102 128 117 79 72 87 70 64 62 49 37 36 32 26 25 40 33 32 48 64 78 92 95 106 105 108 114 110 101 60 24 29 32 43 59 125 125 124 124 126 121 85 34 25 24 18 13 9 46 47 27 25 19 23 26 31 31 36 39 36 48 56 64 58 59 71 81 91 76 71 83 112 116 123 119 109 128 131 125 131 129 137 137 134 119 123 102 116 122 114 111 101 102 118 114 89 73 65 64 41 46 36 26 23 21 18 25 29 30 46 59 72 84 82 90 97 97 107 114 110 99 46 21 26 29 30 41 107 106 104 101 94 70 39 28 26 22 18 14 9 39 46 30 27 22 16 20 27 26 29 35 33 39 45 51 49 58 65 84 92 64 73 89 105 97 104 112 109 121 128 120 114 121 124 122 119 109 126 115 109 122 94 110 96 74 85 80 69 64 44 46 50 34 19 20 18 18 20 25 31 42 51 62 74 82 85 87 99 106 110 112 107 95 35 17 24 25 27 38 62 64 66 60 51 36 28 26 24 19 17 13 10 33 42 30 28 30 25 19 16 22 25 26 31 37 43 48 52 60 83 95 75 71 72 97 89 87 91 102 99 102 114 108 103 101 107 101 106 107 120 106 105 100 70 96 102 82 62 60 46 41 29 24 43 40 16 17 17 17 21 29 40 48 55 70 82 82 83 99 102 104 110 113 107 87 28 15 20 21 27 44 44 45 43 36 32 31 26 22 20 17 14 12 9 29 40 28 29 30 30 24 17 15 18 23 22 25 39 49 51 66 66 77 59 63 74 66 73 81 83 97 94 95 104 107 101 88 90 90 97 105 98 84 83 88 72 80 95 83 47 43 37 23 17 24 25 25 21 17 16 22 30 39 52 65 75 79 82 81 91 106 106 106 113 112 107 80 21 16 18 21 28 45 29 28 26 26 26 23 22 20 18 18 16 13 10 18 30 28 27 28 28 29 26 23 17 16 17 18 24 29 41 49 70 71 52 54 64 60 65 76 76 77 85 85 92 88 94 84 80 78 72 84 81 73 54 66 81 96 58 44 33 28 18 25 28 19 19 20 20 18 24 37 43 53 65 82 91 90 89 96 104 110 110 110 111 110 105 72 16 15 18 19 27 42 18 18 19 21 21 20 19 19 19 18 15 14 11 11 29 29 25 27 27 26 25 25 24 22 19 15 18 28 39 43 62 45 47 43 56 61 66 67 64 74 67 82 73 69 68 74 71 75 63 66 61 50 39 46 66 68 34 28 29 22 21 26 27 20 20 20 20 29 43 50 51 52 64 81 87 91 94 100 106 104 104 112 109 104 101 63 12 14 18 19 26 38 12 12 12 14 17 18 18 19 20 19 16 13 12 9 29 33 25 25 25 24 23 23 23 26 22 23 37 28 31 37 54 36 41 40 40 32 55 58 44 48 58 65 57 51 39 47 58 65 67 51 49 43 43 38 37 22 24 26 22 24 27 23 17 19 21 27 32 44 50 53 51 49 63 72 81 90 99 101 100 102 113 115 109 100 98 51 10 13 17 18 22 30 11 11 11 13 15 16 17 18 19 20 17 14 14 10 24 40 26 24 25 25 26 25 24 24 23 25 25 27 30 23 34 34 41 30 29 30 33 41 37 30 40 30 42 39 30 32 46 47 46 44 39 31 44 39 24 25 22 19 19 18 19 24 27 32 35 39 45 55 58 56 57 67 72 72 72 86 99 106 104 112 120 115 111 103 99 44 9 13 16 18 19 21 11 10 11 12 12 14 14 16 17 15 17 15 13 12 14 35 27 24 26 25 25 26 24 23 25 24 24 25 26 15 23 39 47 27 30 30 34 24 28 31 28 20 21 34 39 24 27 23 19 30 27 25 28 27 24 23 21 20 23 25 30 36 44 49 58 57 50 53 57 69 79 82 85 83 86 98 107 107 109 119 122 113 109 103 89 34 10 13 14 18 19 18 10 10 10 11 12 12 14 16 15 16 16 14 13 11 13 24 25 23 25 25 26 25 25 27 24 22 24 25 24 23 23 26 27 24 22 20 21 19 19 22 26 29 22 30 29 14 18 27 20 22 20 23 31 26 23 24 26 28 31 35 43 59 66 55 61 61 53 70 74 75 81 85 92 94 101 108 108 109 119 125 123 117 110 94 76 27 11 14 14 17 19 19 12 10 10 11 11 13 17 17 15 16 17 16 14 11 11 16 21 22 24 25 25 26 24 26 24 24 23 25 27 28 22 20 22 22 22 19 19 23 19 23 28 29 22 24 24 17 19 23 22 21 21 20 20 22 21 23 27 34 39 47 52 59 60 65 61 67 71 80 88 83 86 91 96 99 99 105 109 115 126 124 120 114 104 92 72 18 11 15 16 17 17 19